<?xml version="1.0" encoding="utf-8"?>
<!-- Generator: Adobe Illustrator 16.0.0, SVG Export Plug-In . SVG Version: 6.00 Build 0)  -->
<!DOCTYPE svg PUBLIC "-//W3C//DTD SVG 1.1//EN" "http://www.w3.org/Graphics/SVG/1.1/DTD/svg11.dtd">
<svg version="1.1" id="圖層_1" xmlns="http://www.w3.org/2000/svg" xmlns:xlink="http://www.w3.org/1999/xlink" x="0px" y="0px"
	 width="250px" height="250px" viewBox="0 0 250 250" enable-background="new 0 0 250 250" xml:space="preserve">
<g>
	<g id="小物上色">
		<path fill="#E580C4" d="M15.677,71.537c-13.708,33.799-16.43,79.582,5.606,110.482c22.85,32.029,53.202,57.966,94.618,59.337
			c56.592,1.87,83.673-23.861,100.316-45.202c16.657-21.328,29.817-52.978,29.498-91.305c0,0-7.874-63.291-60.491-87.858
			c-10.677-4.891-28.536-12.291-40-7.035c-1.016,0.469-1.99,1.017-3.084,1.211c-1.428,0.247-2.883-0.142-4.271-0.48
			c-7.542-1.857-15.349-2.62-23.118-2.277C75.099,10.151,30.986,33.796,15.677,71.537z"/>
		<path fill="#CEE7EF" d="M51.086,42.227c-5.472,6.066-13.134,13.82-16.042,20.827c-4.086,9.899-5.313,20.807-5.019,31.447
			c0.454,16.754,3.55,34.321,5.071,50.947c0.827,9.131,1.521,18.509,4.457,27.266c4.673,13.841,16.604,25.979,27.068,35.784
			c11.053,10.367,24.612,14.229,39.615,13.179c16.872-1.175,34.235,2.793,50.906-0.98c29.792-6.734,36.572-36.171,57.634-53.317
			c12.253-9.974,16.815-27.36,16.243-42.718c-0.308-8.114-2.042-16.138-4.578-23.832c-2.136-6.466-8.275-14.802-9.129-20.907
			c-1.643-11.85-6.101-24.014-12.359-34.146c-5.26-8.489-12.348-16.024-21.517-20.246c-14-6.453-30.392-0.748-44.952-5.097
			c-9.236-2.746-19.181-4.201-28.751-2.473c-10.651,1.938-21.837,5.759-32.273,8.718c-9.917,2.819-18.099,6.066-24.932,13.92
			C52.075,41.126,51.581,41.673,51.086,42.227z"/>
		<g>
			<path fill="#6BA4BD" d="M127.859,210.273c-15.002,1.05-28.563-2.824-39.614-13.172c-10.45-9.806-22.396-21.948-27.054-35.789
				c-2.937-8.749-3.631-18.136-4.472-27.267c-1.495-16.612-4.618-34.18-5.072-50.946c-0.293-10.641,0.922-21.548,5.032-31.441
				c2.896-7.001,10.558-14.756,16.029-20.826c0.508-0.563,0.988-1.109,1.456-1.645c0.334-0.399,0.692-0.775,1.054-1.148
				c-7.928,2.572-14.655,5.925-20.421,12.551c-0.454,0.536-0.936,1.083-1.455,1.638c-5.459,6.065-13.12,13.819-16.03,20.826
				c-4.084,9.9-5.312,20.807-5.019,31.448c0.453,16.754,3.551,34.321,5.071,50.947c0.827,9.131,1.522,18.509,4.458,27.266
				c4.671,13.841,16.604,25.979,27.068,35.784c11.051,10.367,24.599,14.229,39.614,13.18c16.871-1.176,34.235,2.793,50.907-0.981
				c9.557-2.151,16.711-6.647,22.757-12.311c-1.108,0.334-2.216,0.641-3.391,0.914C162.109,213.066,144.745,209.105,127.859,210.273
				z"/>
		</g>
		<g>
			<path fill="none" stroke="#000000" stroke-width="3" stroke-linecap="round" stroke-linejoin="round" stroke-miterlimit="10" d="
				M103.661,59.058c5.192,0.51,3.978-15.415,3.978-15.415s11.892,11.148,15.603,6.179"/>
			<path fill="none" stroke="#000000" stroke-width="3" stroke-linecap="round" stroke-linejoin="round" stroke-miterlimit="10" d="
				M107.626,43.643c0,0,13.214,9.231,11.719,47.98c0,0,2.217,28.048,11.185,35.677"/>
		</g>
		<g>
			<path fill="none" stroke="#000000" stroke-width="3" stroke-linecap="round" stroke-linejoin="round" stroke-miterlimit="10" d="
				M98.537,162.889c-2.536-4.563-14.91,5.537-14.91,5.537s2.362-16.131-3.844-16.346"/>
			<path fill="none" stroke="#000000" stroke-width="3" stroke-linecap="round" stroke-linejoin="round" stroke-miterlimit="10" d="
				M83.627,168.426c0,0,0.026-16.131,32.674-37.012c0,0,21.729-17.854,22.863-29.564"/>
		</g>
		<path fill="none" stroke="#000000" stroke-width="3" stroke-linecap="round" stroke-linejoin="round" stroke-miterlimit="10" d="
			M103.661,115.75c0,0,40.376,6.633,47.209,11.194c0,0,0-3.42-5.713-5.704c-2.281-0.922,26.215,0,33.049,7.982l-4.564-5.697
			c0,0,11.852,1.629,26.987,5.938"/>
	</g>
	<g id="圖層_11">
		<path d="M129.569,174.845c2.456,0,6.78-0.099,8.462-1.015l0.32,0.261c-0.054,2.878-3.084,9.866-5.687,9.866H117.85
			c-1.268,0-1.588,0.533-1.813,1.648l-1.229,7.309c3.042-3.086,5.927-5.178,11.719-5.178c7.034,0,11.666,2.672,11.666,10.401
			c0,6.132-4.151,11.776-15.536,11.776c-6.808,0-11.772-2.076-11.772-6.499c0-2.451,2.242-4.049,4.484-4.049
			c1.588,0,2.228,1.116,2.763,2.986c1.016,3.888,2.496,5.498,4.312,5.498c1.655,0,3.363-1.918,3.363-9.005
			c0-5.979-2.551-6.981-5.111-6.981c-2.978,0-4.738,2.031-6.074,4.103l-1.975-1.169l2.456-19.665l0.213-0.261h14.256
			L129.569,174.845L129.569,174.845z"/>
		<path fill="#3599B4" d="M211.094,150.178l0.054,0.146c-3.443,4.274-7.008,6.887-12.867,10.047
			c-5.513,2.919-7.233,5.684-10.73,12.517c-1.415,2.746-3.631,2.746-6.193,1.438c-2.643-1.363-5.258-3.253-3.442-6.808
			c2.576-5.028,7.715-6.646,12.626-8.31c4.564-1.557,9.798-2.411,12.24-3.787l-14.884-7.642c-1.748-0.896-2.122-0.977-6.18,1.917
			l-1.563-1.403l7.636-10.099L211.094,150.178z"/>
		<path fill="#FFFFFF" d="M71.001,102.384c12.6,4.349,14.228,12.751,10.171,24.581c-5.125,14.875-15.883,20.521-29.911,15.685
			c-4.179-1.438-6.555-3.294-7.194-3.928l1.175-2.031c1.147,0.741,2.644,1.402,4.031,1.871c8.462,2.918,14.309-3.936,16.59-10.367
			l-0.307-0.1c-2.99,1.729-6.087,1.982-8.889,1.026c-6.381-2.204-9.639-7.693-6.435-16.986
			C52.849,104.448,59.896,98.557,71.001,102.384z M63.554,114.514c-1.709,4.964-2.83,10.74-0.16,11.663
			c1.548,0.541,3.737-1.136,6.006-7.701c2.91-8.497,2.776-12.905,0.802-13.593C68.065,104.141,65.489,108.876,63.554,114.514z"/>
		<path fill="#3599B4" d="M61.885,79.619c-1.723-0.36-2.842-0.828-3.376-1.39c-0.508-0.562-0.774-1.37-0.774-2.426
			c0-1.062,0.333-2.091,1.015-3.104c0.693-1.002,1.788-2.218,3.282-3.648c1.362-1.001,2.376-2.196,2.99-3.58
			c0.643-1.375,1.295-2.698,1.977-3.967c0.668-1.275,1.095-2.44,1.228-3.487c0.16-1.048,0.134-1.923-0.054-2.61
			c-0.187-0.683-0.546-1.356-1.094-1.992h-1.454c-0.414,0.183-0.763,0.455-1.017,0.822c-0.253,0.36-0.573,1.021-0.946,1.971
			c-0.36,0.941-0.762,1.718-1.201,2.306c-0.428,0.58-1.254,0.861-2.456,0.84c-1.214-0.025-1.922-0.139-2.162-0.34
			c-0.228-0.207-0.4-0.541-0.534-0.994c-0.134-0.455-0.094-1.196,0.105-2.197c0.188-1.003,0.429-1.971,0.683-2.888
			c0.254-0.914,0.601-1.804,1.028-2.665c0.426-0.854,0.853-1.516,1.279-1.964c0.429-0.439,0.908-0.828,1.428-1.147
			c0.521-0.32,1.75-0.461,3.646-0.4c1.922,0.053,3.123,0.094,3.577,0.094c0.479,0,0.895,0.16,1.254,0.468
			c0.374,0.309,1.015,1.361,1.909,3.18c0.895,1.811,1.335,3.888,1.295,6.227c-0.054,2.331-0.214,3.779-0.48,4.354
			c-0.28,0.557-0.573,1.123-0.895,1.684c-0.32,0.562-0.654,1.13-0.987,1.697c-0.348,0.574-0.895,1.314-1.655,2.204
			c-0.748,0.889-1.401,1.725-1.922,2.471c-0.521,0.756-1.694,2.204-3.511,4.336c1.241,0.246,2.736,0.361,4.498,0.327
			c1.775-0.033,3.043,0.141,3.831,0.501c0.773,0.367,1.361,0.722,1.708,1.075c0.361,0.354,0.588,0.742,0.668,1.183
			c0.079,0.447,0.014,0.949-0.16,1.517c-0.187,0.562-0.508,0.969-0.962,1.242C73.217,79.565,69.279,79.667,61.885,79.619z"/>
		<path fill="#53A4E4" d="M146.359,75.892c-0.908-0.888-1.228-1.756-0.974-2.598c0.253-0.842,0.707-1.63,1.374-2.338
			c0.668-0.708,2.35-0.828,5.071-0.389l2.057-4.555l2.936-7l-0.6-0.469c-5.061-2.018-7.942-3.239-8.676-3.66
			c-0.734-0.42-1.295-1.115-1.696-2.098c-0.387-0.981-0.4-1.916-0.053-2.792c0.359-0.889,0.935-1.852,1.708-2.872
			c0.801-1.042,2.188-2.579,4.179-4.643c1.988-2.063,4.11-3.98,6.34-5.758c2.242-1.776,4.139-3.066,5.712-3.86
			c1.549-0.803,3.044-1.177,4.473-1.13c1.428,0.04,3.617,0.956,6.605,2.746c1.176,1.469,1.335,3.626,0.534,6.466
			c-0.801,2.839-2.775,7.81-5.872,14.943l0.613,0.58c1.521,0.949,1.948,2.312,1.309,4.103c-0.668,1.789-1.643,2.606-2.949,2.417
			l-1.136-0.228c-1.495,1.79-2.815,4.096-3.951,6.907c-1.146,2.818-1.414,4.655-0.84,5.53c0.601,0.868,0.546,2.063-0.174,3.601
			c-0.693,1.53-1.735,2.064-3.124,1.59c-1.36-0.481-3.362-1.122-5.978-1.903C150.657,77.662,148.361,76.809,146.359,75.892z
			 M162.75,52.18c0.827-0.862,1.602-2.186,2.321-3.969c0.733-1.776,1.269-3.146,1.63-4.082c0.359-0.94,0.427-1.876,0.213-2.825
			c-1.056-0.453-2.456,0.015-4.244,1.39c-1.789,1.384-3.444,3-4.992,4.852c-1.521,1.843-1.948,3.019-1.255,3.499
			c0.721,0.487,1.734,1.003,3.07,1.55C160.802,53.128,161.896,53.001,162.75,52.18z"/>
	</g>
	<g id="線搞">
		<g>
			<g>
				<g>
					
						<path fill="none" stroke="#000000" stroke-width="3" stroke-linecap="round" stroke-linejoin="round" stroke-miterlimit="10" d="
						M15.13,71.31c-0.119,0.309,0.055,0.742-0.079,1.063c-0.12,0.309-0.588,0.486-0.722,0.795c-0.12,0.307,0.907,1.075,0.801,1.383
						c-0.119,0.308-0.16,0.647-0.267,0.968c-0.12,0.32-0.494,0.522-0.614,0.843c-0.105,0.32-0.439,0.548-0.561,0.869
						c-0.107,0.32-0.962,0.373-1.067,0.693c-0.105,0.321,0.026,0.722-0.094,1.035c-0.106,0.319-0.2,0.642-0.308,0.962
						c-0.106,0.313,0.026,0.715-0.094,1.035c-0.105,0.321-0.454,0.562-0.561,0.876c-0.095,0.318,0.761,0.948,0.681,1.269
						c-0.105,0.32-0.28,0.614-0.374,0.937c-0.106,0.319-0.347,0.595-0.44,0.908c-0.094,0.319-0.974,0.42-1.054,0.74
						c-0.107,0.32,0.813,0.937,0.72,1.257c-0.08,0.319-1.28,0.34-1.36,0.674c-0.08,0.313,0.121,0.729,0.04,1.056
						c-0.094,0.32,0.24,0.755,0.161,1.089c-0.08,0.327,0.627,0.844,0.547,1.17c-0.08,0.334-0.4,0.594-0.48,0.914
						c-0.08,0.327-1.988,0.214-2.067,0.534c-0.082,0.335,1.268,0.988,1.187,1.322c-0.08,0.335,0.081,0.709,0.027,1.036
						c-0.08,0.334,0.227,0.734,0.16,1.063c-0.08,0.334-2.028,0.26-2.097,0.595c-0.066,0.327,1.082,0.908,1.002,1.242
						c-0.066,0.327-1.016,0.475-1.082,0.81c-0.066,0.333,1.575,0.98,1.508,1.309c-0.053,0.334-1.802,0.354-1.867,0.688
						c-0.055,0.327,0.227,0.729,0.159,1.057c-0.054,0.332-0.105,0.66-0.159,0.994c-0.055,0.327-0.349,0.628-0.4,0.956
						c-0.054,0.334,0.587,0.773,0.534,1.107c-0.054,0.328-0.015,0.668-0.054,1.017c-0.055,0.326-0.135,0.66-0.175,0.987
						c-0.04,0.335,0.28,0.723,0.229,1.049c-0.054,0.334-0.481,0.614-0.521,0.948c-0.039,0.327,0.454,0.729,0.414,1.056
						c-0.04,0.334-0.187,0.654-0.214,0.996c-0.025,0.326-1.014,0.567-1.054,0.901c-0.04,0.327-0.494,0.627-0.547,0.968
						c-0.027,0.328,0.667,0.741,0.641,1.069c-0.04,0.334-0.24,0.661-0.28,0.995c-0.014,0.327-0.948,0.601-0.987,0.941
						c-0.041,0.347,1.401,0.781,1.375,1.121c-0.026,0.327-0.36,0.648-0.388,0.989c-0.014,0.334-0.04,0.675-0.04,1.002
						c-0.026,0.347,0.694,0.708,0.682,1.042c-0.014,0.341-0.614,0.646-0.627,0.975c-0.015,0.349-0.948,0.655-0.963,0.982
						c0,0.341,1.136,0.708,1.122,1.042c-0.014,0.341-1.321,0.646-1.336,0.988c0,0.341-0.159,0.682-0.186,1.016
						c0,0.342,1.494,0.681,1.494,1.016c0,0.341,0.508,0.661,0.508,1.002c0,0.34,0.187,0.66,0.187,1.002s-1.654,0.708-1.654,1.042
						c0.025,0.34,0.561,0.655,0.573,0.988c0.014,0.341,0.388,0.661,0.388,0.988c0.014,0.348,0.573,0.642,0.588,0.981
						c0.025,0.341-1.202,0.741-1.176,1.075c0.026,0.341,0.521,0.635,0.548,0.976c0.014,0.335,0.388,0.654,0.413,0.981
						c0.026,0.334-0.373,0.708-0.334,1.036c0.015,0.334,0.907,0.594,0.935,0.928c0.04,0.327-0.399,0.708-0.359,1.049
						c0.027,0.328-0.573,0.729-0.534,1.069c0.027,0.333-0.319,0.721-0.279,1.048c0.04,0.335,0.014,0.689,0.066,1.016
						c0.054,0.334-0.066,0.695-0.026,1.028c0.054,0.328,1.415,0.476,1.468,0.822c0.054,0.327,0.642,0.581,0.694,0.908
						c0.054,0.334-1.948,0.995-1.908,1.321c0.065,0.334,1.348,0.454,1.414,0.788c0.054,0.327,0.254,0.637,0.32,0.971
						c0.054,0.325-0.814,0.834-0.734,1.16c0.054,0.328,0.614,0.567,0.695,0.902c0.053,0.327,0.666,0.548,0.746,0.875
						c0.067,0.334,0.12,0.662,0.188,0.995c0.08,0.327-0.027,0.694,0.053,1.021c0.08,0.334,0.613,0.55,0.693,0.869
						c0.08,0.327-0.813,0.889-0.733,1.223c0.08,0.326,0.613,0.533,0.693,0.861c0.094,0.334-1.094,1.009-1.015,1.323
						c0.095,0.319,1.055,0.413,1.161,0.728c0.08,0.32,1.201,0.349,1.281,0.668c0.107,0.313-1.255,1.089-1.147,1.409
						c0.094,0.321,0.134,0.675,0.24,0.995c0.094,0.313,1.44,0.227,1.548,0.549c0.094,0.313,0.654,0.475,0.774,0.794
						c0.106,0.32-0.027,0.708,0.08,1.028c0.12,0.313-1.495,1.263-1.374,1.583c0.12,0.321,0.56,0.515,0.68,0.829
						c0.135,0.319,0.4,0.588,0.507,0.895c0.135,0.309,1.177,0.247,1.309,0.556c0.134,0.307,0.722,0.42,0.854,0.729
						c0.134,0.307-0.214,0.821-0.08,1.128c0.134,0.309,0.802,0.367,0.936,0.675c0.133,0.309-0.254,0.842-0.107,1.149
						c0.16,0.307-0.454,0.975-0.319,1.27c0.16,0.308,0.414,0.547,0.573,0.854c0.146,0.294,1.269,0.1,1.414,0.407
						c0.161,0.302,0.04,0.74,0.174,1.043c0.16,0.293,0.135,0.693,0.295,0.986c0.159,0.294-0.908,1.276-0.748,1.577
						c0.174,0.294,1.067,0.167,1.256,0.454c0.159,0.294,0.052,0.742,0.238,1.035c0.16,0.287-0.106,0.868,0.054,1.155
						c0.188,0.279,1.576-0.188,1.75,0.101c0.173,0.287-0.814,1.343-0.629,1.616c0.175,0.287,0.854,0.239,1.042,0.526
						c0.187,0.274,0.039,0.81,0.227,1.083c0.2,0.273,1.669-0.354,1.868-0.08c0.2,0.274,0.773,0.262,0.976,0.534
						c0.188,0.273,0.213,0.674,0.4,0.949c0.187,0.273,0.053,0.794,0.254,1.068c0.2,0.272-0.081,0.888,0.12,1.162
						c0.213,0.272,1.348-0.161,1.548,0.112c0.2,0.274-1.042,1.623-0.842,1.883c0.199,0.275,0.359,0.582,0.562,0.844
						c0.2,0.267,0.32,0.606,0.521,0.882c0.214,0.26,0.267,0.646,0.479,0.908c0.214,0.267,1.695-0.469,1.896-0.2
						c0.213,0.261-0.214,1.021,0,1.282c0.199,0.268-0.107,0.947,0.105,1.209c0.188,0.261,0.374,0.573,0.574,0.835
						c0.213,0.261,1.508-0.354,1.722-0.107c0.215,0.269,0.106,0.789,0.32,1.056c0.214,0.262,0.613,0.361,0.827,0.614
						c0.214,0.261,0.828,0.181,1.041,0.441c0.214,0.268-0.534,1.336-0.32,1.59c0.214,0.247,1.628-0.516,1.855-0.269
						c0.214,0.254-0.147,1.002,0.094,1.258c0.213,0.253,0.4,0.533,0.614,0.786c0.213,0.247-0.361,1.23-0.135,1.483
						c0.215,0.247,1.908-0.815,2.137-0.562c0.227,0.255-1.188,1.982-0.962,2.229c0.228,0.255,2.042-0.941,2.256-0.694
						c0.227,0.255-0.947,1.805-0.707,2.045c0.213,0.246,1.026-0.047,1.255,0.206c0.227,0.235-0.107,1.051,0.105,1.283
						c0.24,0.24,0.828,0.153,1.067,0.389c0.227,0.239,1.309-0.327,1.549-0.088c0.24,0.24,0.268,0.667,0.508,0.907
						c0.239,0.241,0.854,0.08,1.095,0.321c0.239,0.241-1.042,2.017-0.803,2.259c0.241,0.24,1.95-1.029,2.189-0.789
						c0.24,0.241,0.319,0.614,0.561,0.855c0.24,0.227,0.48,0.479,0.708,0.708c0.24,0.227-0.134,1.128,0.106,1.354
						c0.254,0.229,1.348-0.467,1.588-0.241c0.254,0.235-0.188,1.21,0.054,1.438c0.24,0.228,0.761,0.16,1.016,0.382
						c0.238,0.227,0.841,0.065,1.094,0.28c0.241,0.232-0.373,1.448-0.133,1.662c0.254,0.222,0.507,0.447,0.773,0.668
						c0.24,0.215,1.055-0.206,1.309,0.008c0.267,0.221-0.107,1.175,0.159,1.389c0.255,0.222,1.016-0.167,1.27,0.047
						c0.253,0.221,0.04,1.017,0.306,1.224c0.269,0.214,0.349,0.66,0.614,0.867c0.254,0.2,0.374,0.603,0.642,0.81
						c0.268,0.2,0.642,0.272,0.907,0.474c0.268,0.207,1.229-0.474,1.495-0.28c0.267,0.207,0.907-0.105,1.188,0.087
						c0.279,0.207,0.439,0.516,0.708,0.723c0.279,0.192-0.534,1.89-0.269,2.097c0.269,0.195,1.575-1.048,1.855-0.854
						c0.279,0.193-0.454,1.811-0.174,2.004c0.267,0.192,1.574-1.081,1.842-0.896c0.267,0.192,0.146,0.968,0.428,1.162
						c0.268,0.193,0.453,0.534,0.721,0.714c0.294,0.182,0.547,0.4,0.828,0.582c0.292,0.188,0.693,0.193,0.96,0.367
						c0.28,0.181,0.988-0.309,1.282-0.141c0.279,0.188-0.188,1.551,0.105,1.736c0.294,0.167,0.348,0.748,0.628,0.921
						c0.28,0.174,1.682-1.517,1.962-1.343c0.294,0.168-0.054,1.423,0.24,1.584c0.294,0.16,1.015-0.435,1.309-0.273
						c0.306,0.167,0.64,0.239,0.934,0.399c0.295,0.154,0.454,0.535,0.763,0.696c0.293,0.16,0.493,0.487,0.786,0.646
						c0.294,0.16,0.134,1.183,0.428,1.344c0.294,0.159,0.479,0.548,0.788,0.708c0.307,0.146,0.946-0.389,1.254-0.241
						c0.294,0.153,0.28,0.995,0.574,1.142c0.294,0.147,0.641,0.214,0.935,0.368c0.32,0.146,0.88-0.287,1.188-0.141
						c0.307,0.141,0.521,0.494,0.813,0.629c0.32,0.133,0.747-0.021,1.067,0.112c0.307,0.141,0.828-0.214,1.121-0.08
						c0.32,0.128,0.106,1.517,0.414,1.644c0.307,0.128,1.348-1.529,1.654-1.402c0.308,0.127,0.44,0.715,0.734,0.835
						c0.318,0.121,0.56,0.407,0.867,0.534c0.319,0.114,0.813-0.254,1.121-0.141c0.318,0.112,0.014,1.938,0.333,2.051
						c0.319,0.12,0.895-0.508,1.201-0.396c0.32,0.114,0.428,0.856,0.747,0.971c0.32,0.1,0.693,0.047,1.016,0.146
						c0.319,0.102,0.521,0.602,0.827,0.694c0.32,0.101,0.681,0.112,1.015,0.214c0.32,0.094,0.935-0.781,1.255-0.694
						c0.32,0.095,0.76-0.247,1.094-0.167c0.32,0.087,0.48,0.809,0.788,0.901c0.32,0.08,0.787-0.301,1.095-0.221
						c0.334,0.08,0.628,0.261,0.947,0.341c0.32,0.08,0.721-0.134,1.04-0.055c0.334,0.08,0.735-0.227,1.068-0.159
						c0.321,0.066,0.441,1.115,0.773,1.183c0.32,0.074,0.802-0.568,1.121-0.501c0.334,0.073,0.534,0.822,0.854,0.882
						c0.334,0.054,0.64,0.247,0.974,0.309c0.334,0.053,0.548,0.774,0.896,0.821c0.321,0.054,0.747-0.462,1.095-0.401
						c0.32,0.061,0.854-1.223,1.188-1.176c0.332,0.048,0.613,0.4,0.945,0.447c0.321,0.047,0.643,0.113,0.988,0.146
						c0.334,0.047,0.642,0.308,0.962,0.354c0.347,0.033,0.533,1.409,0.854,1.449c0.347,0.034,0.761-0.689,1.095-0.655
						c0.319,0.04,0.747-0.86,1.067-0.827c0.348,0.021,0.561,1.598,0.907,1.616c0.32,0.026,0.666,0.147,1,0.174
						c0.334,0.021,0.683,0.055,1.017,0.066c0.333,0.021,0.732-1.208,1.08-1.194c0.334,0.006,0.668-0.436,1.015-0.422
						c0.348,0.007,0.668,0.627,1.014,0.634c0.334,0.015,0.668-0.02,1.017-0.02c0.347,0.013,0.693-0.802,1.041-0.802
						c0.347,0,0.64,2.19,0.986,2.19c0.348,0,0.694-1.115,1.043-1.115c0.331,0,0.68-0.741,1.014-0.741s0.681,0.694,1.015,0.694
						c0.347,0,0.667-0.627,1.015-0.641c0.348,0,0.693,0.614,1.027,0.614c0.334-0.008,0.681-0.36,1.015-0.36
						c0.334-0.014,0.722,1.241,1.055,1.229c0.348-0.014,0.642-1.423,0.975-1.436c0.333-0.014,0.682,0.146,1.027,0.127
						c0.348-0.014,0.642-0.803,0.975-0.81c0.348-0.026,0.787,1.764,1.121,1.743c0.334-0.026,0.668-0.308,1.001-0.334
						c0.348-0.021,0.587-1.362,0.921-1.39c0.334-0.021,0.734,0.689,1.068,0.648c0.347-0.021,0.627-0.622,0.974-0.662
						c0.349-0.033,0.843,1.757,1.176,1.724c0.347-0.033,0.533-1.604,0.881-1.644c0.334-0.033,0.721,0.461,1.067,0.428
						c0.334-0.04,0.721,0.348,1.055,0.313c0.334-0.033,0.654-0.341,0.975-0.388c0.348-0.047,0.787,0.707,1.121,0.66
						c0.347-0.04,0.479-1.549,0.801-1.596c0.349-0.046,0.882,1.235,1.201,1.188c0.348-0.046,0.627-0.421,0.961-0.48
						c0.349-0.055,0.454-1.528,0.774-1.568c0.347-0.061,0.801,0.627,1.135,0.567c0.333-0.062,0.562-0.724,0.896-0.775
						c0.319-0.061,0.666-0.061,1-0.127c0.334-0.067,0.708,0.127,1.055,0.06c0.321-0.072,0.653-0.127,0.987-0.192
						c0.32-0.073,0.908,1.036,1.229,0.956c0.349-0.067,0.374-1.483,0.722-1.55c0.319-0.081,0.987,1.354,1.335,1.273
						c0.319-0.08,0.668-0.08,1.014-0.159c0.32-0.08,0.668-0.16,0.988-0.248c0.319-0.08,0.588-0.414,0.934-0.493
						c0.32-0.088,0.734,0.113,1.068,0.026c0.319-0.094,0.12-2.098,0.454-2.19c0.319-0.094,1.121,1.437,1.44,1.343
						c0.32-0.086,0.174-1.811,0.494-1.903c0.334-0.101,0.827,0.414,1.147,0.308c0.333-0.101,1.026,0.994,1.349,0.896
						c0.347-0.108,0.534-0.643,0.854-0.742c0.319-0.106,0.214-1.517,0.533-1.624c0.32-0.112,1.201,1.403,1.521,1.29
						c0.321-0.113,0.348-1.082,0.668-1.196c0.32-0.112,0.854,0.367,1.175,0.24c0.32-0.111,0.32-1.095,0.613-1.222
						c0.321-0.127,1.122,0.981,1.442,0.854c0.319-0.127,0.294-1.095,0.612-1.215c0.32-0.127,0.269-1.13,0.589-1.256
						c0.319-0.141,0.987,0.594,1.295,0.467c0.307-0.14,0.853,0.262,1.161,0.127c0.307-0.141,0.641-0.239,0.961-0.381
						c0.293-0.133,0.318-0.908,0.641-1.055c0.293-0.153,0.347-0.835,0.654-0.982c0.307-0.146,1.188,0.924,1.508,0.775
						c0.293-0.147,0.026-1.463,0.333-1.61c0.308-0.146,0.922,0.309,1.216,0.161c0.32-0.161,0.373-0.756,0.681-0.909
						c0.293-0.159,0.947,0.349,1.241,0.193c0.308-0.16,0.48-0.574,0.773-0.741c0.294-0.16,0.801,0.04,1.095-0.113
						c0.308-0.174,0-1.396,0.28-1.563c0.308-0.174,1.428,1.096,1.722,0.923c0.294-0.175-0.319-1.851-0.025-2.018
						c0.294-0.175,0.347-0.722,0.641-0.89c0.294-0.188,1.735,1.482,2.016,1.311c0.28-0.182-0.439-1.951-0.159-2.131
						c0.279-0.182,0.934,0.192,1.214,0.013c0.294-0.188,0.907,0.12,1.175-0.073c0.294-0.192,0.439-0.566,0.721-0.749
						c0.268-0.191,0.627-0.286,0.907-0.479c0.268-0.193,0.694-0.193,0.976-0.4c0.279-0.192,0.254-0.808,0.521-1.015
						c0.267-0.201,0.614-0.315,0.881-0.521c0.268-0.207,0.428-0.567,0.682-0.774c0.28-0.206,0.854-0.014,1.135-0.22
						c0.254-0.2,0.294-0.717,0.561-0.93c0.254-0.22,0.24-0.788,0.494-1.009c0.254-0.214,0.573-0.354,0.841-0.567
						s1.281,0.48,1.549,0.262c0.268-0.214,0.586-0.374,0.84-0.597c0.269-0.214-0.387-1.476-0.119-1.694
						c0.239-0.229,0-1.003,0.268-1.217c0.24-0.233,0.707-0.207,0.947-0.435c0.254-0.227,0.334-0.628,0.574-0.868
						c0.238-0.228,1.055,0.142,1.295-0.095c0.253-0.227,0.253-0.7,0.493-0.94s0.895-0.047,1.135-0.287
						c0.239-0.24-0.254-1.229-0.04-1.471c0.24-0.239,1.588,0.614,1.828,0.374c0.239-0.239,0.653-0.319,0.882-0.566
						c0.227-0.24-0.788-1.696-0.548-1.938c0.239-0.254,1.533,0.533,1.774,0.28c0.228-0.247-0.174-1.089,0.04-1.344
						c0.24-0.253,0.642-0.339,0.854-0.594c0.239-0.247,0.213-0.716,0.439-0.969c0.228-0.247,1.548,0.48,1.774,0.228
						c0.228-0.247-0.467-1.323-0.253-1.57c0.227-0.253,1.055,0.014,1.269-0.24c0.212-0.26,0.706-0.293,0.92-0.561
						c0.215-0.261-1.026-1.743-0.813-2.004c0.214-0.261,0.761-0.254,0.962-0.514c0.213-0.263,0.627-0.355,0.841-0.615
						c0.228-0.261,1.481,0.319,1.668,0.06c0.229-0.267-1.107-1.757-0.881-2.022c0.188-0.262,0.881-0.135,1.095-0.396
						c0.214-0.267,1.494,0.327,1.708,0.067c0.214-0.261-1.12-1.73-0.921-1.998c0.2-0.26,1.27,0.127,1.481-0.146
						c0.2-0.272-0.214-1.003-0.014-1.274c0.2-0.274,1.694,0.399,1.883,0.127c0.187-0.273,0.214-0.689,0.399-0.969
						c0.2-0.274-0.508-1.202-0.319-1.483c0.199-0.272,0.773-0.287,0.974-0.561c0.2-0.274,0.601-0.407,0.801-0.683
						c0.2-0.272,0.055-0.787,0.241-1.063c0.173-0.287,0.907-0.207,1.106-0.487c0.174-0.287-0.761-1.303-0.561-1.59
						c0.188-0.28,1.161-0.054,1.334-0.341c0.188-0.28-0.867-1.343-0.694-1.637c0.188-0.287,2.124,0.521,2.311,0.233
						c0.174-0.281,0.334-0.588,0.521-0.875c0.175-0.287-0.239-0.948-0.079-1.243c0.174-0.287,1.042-0.18,1.202-0.479
						c0.187-0.294,0.412-0.554,0.586-0.841c0.174-0.294,0.174-0.684,0.348-0.982c0.16-0.294-1.014-1.344-0.854-1.643
						c0.16-0.295,0.561-0.455,0.721-0.764c0.16-0.293,1.389-0.032,1.549-0.326c0.16-0.301-0.562-1.074-0.4-1.369
						c0.16-0.302-0.267-0.889-0.105-1.195c0.16-0.302,0.507-0.495,0.666-0.802c0.161-0.294,1.521,0.013,1.683-0.294
						c0.16-0.309-0.534-1.028-0.399-1.337c0.159-0.307,0.881-0.332,1.014-0.642c0.16-0.307,0-0.748,0.16-1.055
						c0.146-0.309-0.866-1.156-0.721-1.463c0.135-0.309,0.561-0.476,0.708-0.781c0.133-0.314,1.709,0.021,1.843-0.288
						c0.145-0.308,0.119-0.693,0.252-1.002c0.146-0.307-0.946-1.155-0.8-1.463c0.134-0.307,0.428-0.548,0.573-0.854
						c0.135-0.31,1.643-0.048,1.775-0.361c0.133-0.307-1.309-1.27-1.188-1.589c0.119-0.309,0.427-0.549,0.547-0.861
						c0.134-0.322-0.16-0.789-0.054-1.108c0.134-0.32,0.682-0.454,0.802-0.775c0.119-0.319-0.174-0.774-0.055-1.096
						c0.107-0.32,0.428-0.555,0.549-0.874c0.118-0.321,0.652-0.48,0.76-0.804c0.12-0.313-0.48-0.888-0.374-1.208
						c0.106-0.313,2.216,0.048,2.323-0.273c0.119-0.313-1.79-1.322-1.695-1.636c0.105-0.321,1.495-0.222,1.588-0.55
						c0.107-0.318-0.854-0.994-0.746-1.314c0.093-0.313,0.412-0.567,0.506-0.896c0.107-0.319,1.522-0.254,1.616-0.573
						c0.093-0.313,0.399-0.588,0.493-0.921c0.105-0.327-1.815-1.243-1.723-1.564c0.094-0.327,2.068-0.113,2.162-0.44
						c0.093-0.333-0.707-0.901-0.613-1.235c0.094-0.327,0.279-0.621,0.374-0.956c0.093-0.326,1.188-0.386,1.295-0.714
						c0.08-0.334-1.603-1.108-1.51-1.438c0.08-0.333-0.118-0.722-0.04-1.056c0.08-0.327,0.654-0.534,0.734-0.86
						c0.08-0.335,1.269-0.401,1.349-0.729c0.079-0.334-1.147-0.961-1.067-1.288c0.08-0.335,0.987-0.481,1.042-0.809
						c0.079-0.334,0.905-0.516,0.974-0.85c0.066-0.327-1.829-1.068-1.748-1.401c0.066-0.327,1.868-0.314,1.936-0.648
						c0.066-0.333,0.04-0.681,0.094-1.028c0.066-0.326-0.774-0.827-0.708-1.169c0.054-0.334,0.468-0.606,0.534-0.948
						c0.054-0.327-0.44-0.762-0.387-1.096c0.053-0.328,0.053-0.675,0.105-1.016c0.054-0.327-0.374-0.741-0.334-1.068
						c0.054-0.334,1.669-0.435,1.723-0.773c0.04-0.335-1.147-0.855-1.107-1.189c0.04-0.327,1.628-0.468,1.668-0.796
						c0.054-0.34-0.746-0.787-0.693-1.114c0.04-0.348,0.373-0.642,0.427-0.981c0.055-0.341-0.467-0.741-0.427-1.075
						c0.04-0.341-0.534-0.741-0.494-1.083c0.04-0.34,0.015-0.674,0.04-1.015c0.027-0.342,0.269-0.647,0.294-0.989
						c0.04-0.34,0.08-0.674,0.107-1.015c0.025-0.342,1.733-0.535,1.762-0.874c0.026-0.35-1.136-0.776-1.122-1.123
						c0.026-0.341,0.428-0.648,0.454-0.988c0.026-0.342-0.987-0.742-0.961-1.082c0.027-0.348,0.347-0.662,0.373-0.995
						c0.027-0.342,0.802-0.636,0.802-0.981c0.014-0.342-0.16-0.694-0.16-1.022c0.014-0.341,0.293-0.675,0.32-1.015
						c0-0.341,0.908-0.661,0.908-1.003c0.013-0.34-0.334-0.694-0.321-1.041c0-0.341-0.28-0.694-0.28-1.036
						c0.015-0.341-1.375-0.694-1.36-1.035c0-0.341,1.682-0.674,1.682-1.016c0-0.341-1.828-0.688-1.828-1.028s0.025-0.614,0-0.955
						c-0.025-0.501,1.147-0.435,1.041-1.096c-0.04-0.273-1.081-0.44-1.135-0.828c-0.04-0.3,0.627-0.77,0.573-1.129
						c-0.066-0.313-1.12-0.447-1.175-0.801c-0.054-0.321,0.24-0.71,0.16-1.063c-0.054-0.314,1.015-0.889,0.947-1.229
						c-0.066-0.32-1.521-0.354-1.588-0.694c-0.08-0.321,0.854-0.875,0.773-1.209c-0.054-0.32-0.773-0.501-0.854-0.842
						c-0.08-0.32,0.988-0.93,0.908-1.27c-0.08-0.314-1.775-0.247-1.855-0.58c-0.08-0.321,0.84-0.896,0.76-1.243
						c-0.079-0.32,0.494-0.829,0.401-1.163c-0.094-0.32-0.668-0.514-0.762-0.854c-0.094-0.32,0.439-0.829,0.36-1.163
						c-0.106-0.32-0.026-0.707-0.106-1.036c-0.094-0.318-1.948-0.139-2.042-0.452c-0.094-0.321-0.308-0.608-0.4-0.937
						c-0.094-0.32-0.174-0.654-0.279-0.968c-0.094-0.321,0.895-0.982,0.773-1.303c-0.094-0.32,0.4-0.843,0.293-1.163
						c-0.093-0.32-1.188-0.307-1.279-0.629c-0.107-0.319,0.745-0.968,0.626-1.287c-0.12-0.321-1.32-0.248-1.429-0.568
						c-0.12-0.319,0.08-0.741-0.04-1.062c-0.12-0.322-0.895-0.39-1.001-0.71c-0.106-0.319,1.469-1.262,1.362-1.581
						c-0.121-0.321-1.136-0.295-1.256-0.615c-0.12-0.309-1.254-0.229-1.36-0.548c-0.134-0.308,0.734-1.016,0.613-1.336
						c-0.133-0.309-1.015-0.314-1.147-0.628c-0.134-0.308,0.922-1.115,0.802-1.424c-0.134-0.308-1.095-0.272-1.229-0.58
						c-0.134-0.307-0.692-0.434-0.827-0.741c-0.146-0.308-0.133-0.682-0.267-0.989c-0.134-0.307,0.427-0.935,0.294-1.242
						c-0.134-0.307-0.508-0.515-0.642-0.82c-0.146-0.309,0.054-0.774-0.08-1.082c-0.16-0.314-1.469-0.047-1.614-0.354
						c-0.147-0.308,0.707-1.096,0.562-1.402c-0.146-0.308,0.159-0.842,0.014-1.144c-0.16-0.307,0.104-0.82-0.054-1.115
						c-0.16-0.293-1.749,0.135-1.896-0.173c-0.16-0.295,0.481-1.017,0.321-1.322c-0.161-0.295-1.095-0.182-1.255-0.475
						c-0.16-0.301,0.08-0.815-0.08-1.108c-0.16-0.295,0.2-0.89,0.027-1.184c-0.161-0.3-1.763,0.229-1.923-0.072
						c-0.188-0.295,0.532-1.089,0.373-1.391c-0.187-0.294-0.601-0.435-0.773-0.728c-0.16-0.295,0.24-0.937,0.054-1.224
						c-0.16-0.279-0.08-0.741-0.267-1.035c-0.188-0.288-0.828-0.294-0.987-0.581c-0.188-0.287,0.293-1.002,0.104-1.29
						c-0.187-0.286-0.253-0.646-0.438-0.935c-0.174-0.286-0.828-0.274-1.016-0.562c-0.174-0.28-0.014-0.815-0.199-1.103
						c-0.188-0.287-1.415,0.147-1.603-0.128c-0.199-0.272-0.214-0.667-0.414-0.954c-0.199-0.273-0.439-0.515-0.641-0.803
						c-0.201-0.272-0.067-0.794-0.253-1.067c-0.214-0.273-1.122-0.014-1.336-0.287c-0.2-0.273,0.054-0.89-0.146-1.163
						c-0.199-0.272-0.174-0.715-0.388-0.987c-0.2-0.267-0.228-0.689-0.426-0.962c-0.214-0.261-1.576,0.399-1.789,0.127
						c-0.214-0.261-0.08-0.81-0.268-1.067c-0.227-0.269-0.227-0.695-0.439-0.964c-0.228-0.261-0.494-0.467-0.721-0.714
						c-0.214-0.261,0.467-1.304,0.253-1.564c-0.228-0.254-1.441,0.367-1.654,0.113c-0.24-0.246-0.588-0.388-0.802-0.635
						c-0.24-0.253-0.106-0.82-0.333-1.074c-0.229-0.247,0.319-1.229,0.08-1.483c-0.229-0.246-1.295,0.287-1.535,0.048
						c-0.24-0.24-0.708-0.24-0.948-0.48c-0.24-0.239,0.134-1.082-0.105-1.33c-0.24-0.24-0.309-0.661-0.548-0.889
						c-0.239-0.238-1.603,0.655-1.843,0.428c-0.253-0.233,0.428-1.423,0.174-1.663c-0.254-0.227-0.307-0.682-0.546-0.921
						c-0.254-0.228-1.63,0.774-1.87,0.548c-0.253-0.228,0.294-1.356,0.055-1.583c-0.269-0.229-0.16-0.87-0.428-1.083
						c-0.253-0.22-1.48,0.694-1.734,0.476c-0.269-0.214-0.24-0.763-0.507-0.981c-0.255-0.215,0.119-1.217-0.135-1.438
						c-0.267-0.214-1.36,0.607-1.629,0.4c-0.266-0.207-0.772-0.086-1.04-0.293c-0.28-0.208,0.08-1.21-0.2-1.417
						c-0.279-0.207-0.094-1.003-0.374-1.21c-0.279-0.199-1.228,0.536-1.508,0.342c-0.268-0.193-0.054-1.088-0.319-1.282
						c-0.281-0.192-0.107-1.049-0.401-1.242c-0.267-0.193-1.548,1.082-1.842,0.889c-0.28-0.192-0.32-0.722-0.614-0.901
						c-0.293-0.181-0.906,0.146-1.2-0.033c-0.268-0.188-0.494-0.461-0.788-0.642c-0.28-0.18,0.32-1.811,0.014-1.99
						c-0.268-0.175-1.015,0.36-1.308,0.188c-0.294-0.168-0.534-0.422-0.828-0.588c-0.308-0.176-0.268-0.937-0.561-1.11
						c-0.294-0.166-1.215,0.789-1.509,0.63c-0.308-0.16-0.573-0.355-0.882-0.517c-0.293-0.16-0.04-1.368-0.346-1.522
						c-0.308-0.159-1.482,1.362-1.776,1.217c-0.318-0.16-0.279-0.969-0.587-1.115c-0.307-0.146-0.787,0.053-1.095-0.095
						c-0.307-0.146-0.694-0.08-1.014-0.227c-0.309-0.134,0.105-1.844-0.2-1.99c-0.309-0.141-1.175,0.955-1.482,0.815
						c-0.306-0.135-0.587-0.328-0.907-0.469c-0.293-0.135-0.359-0.842-0.666-0.976c-0.321-0.141-0.614-0.302-0.936-0.437
						c-0.307-0.139-1.015,0.669-1.335,0.55c-0.294-0.127-0.508-0.515-0.827-0.642c-0.307-0.127-0.641-0.215-0.961-0.342
						c-0.294-0.127-0.748,0.066-1.055-0.061c-0.309-0.121-0.201-1.361-0.493-1.488c-0.321-0.127-0.414-0.842-0.734-0.964
						c-0.321-0.112-1.269,1.497-1.589,1.385c-0.32-0.114-0.188-1.504-0.507-1.617c-0.32-0.113-0.828,0.313-1.148,0.214
						c-0.318-0.112-0.853,0.4-1.174,0.295c-0.321-0.102-0.134-1.752-0.454-1.857c-0.319-0.1-0.668-0.207-0.986-0.307
						c-0.32-0.102-1.056,1.194-1.39,1.108c-0.319-0.094-0.454-0.868-0.773-0.948c-0.348-0.094-0.787,0.271-1.121,0.193
						c-0.32-0.096-0.734,0.174-1.067,0.094c-0.32-0.08-0.454-0.949-0.801-1.029c-0.32-0.08-0.774,0.447-1.108,0.375
						c-0.333-0.068-0.493-1.003-0.813-1.068c-0.334-0.068-0.562-0.855-0.896-0.916c-0.334-0.053-0.947,1.67-1.295,1.623
						c-0.333-0.047-0.614-0.387-0.947-0.42c-0.348-0.047-0.521-1.53-0.853-1.564c-0.349-0.032-0.842,1.564-1.162,1.536
						c-0.348-0.021-0.694,0.388-1.027,0.381c-0.334-0.015-0.628-1.108-0.975-1.122c-0.334-0.006-0.668-0.273-1.015-0.273
						c-0.348,0-0.642,1.129-0.987,1.143c-0.349,0.014-0.682-0.407-1.016-0.374c-0.347,0.034-0.601,0.581-0.934,0.628
						c-0.349,0.04-0.828-1.041-1.176-0.98c-0.333,0.053-0.733-0.146-1.067-0.08c-0.32,0.064-0.587,0.566-0.896,0.646
						c-0.334,0.094-0.785-0.227-1.119-0.127c-0.309,0.107-0.896-0.354-1.202-0.227c-0.32,0.127,0.04,1.896-0.268,2.029
						c-0.333,0.16-0.493,0.661-0.841,0.821c-0.334,0.16-0.988-0.254-1.322-0.127c-0.332,0.127-0.813,0.047-1.174,0.114
						c-0.36,0.065-0.761,0.227-1.108,0.22c-0.372-0.014-0.692-0.527-1.054-0.581c-0.359-0.06-0.521-0.914-0.868-0.994
						c-0.359-0.08-1,1.048-1.334,0.968c-0.348-0.08-0.668-0.112-1.002-0.192c-0.332-0.08-0.586-0.408-0.92-0.477
						c-0.319-0.072-0.548-0.666-0.882-0.733c-0.32-0.066-0.561-0.707-0.88-0.761c-0.334-0.067-0.748,0.307-1.095,0.246
						c-0.334-0.054-0.935,1.463-1.281,1.402c-0.32-0.053-0.507-1.021-0.841-1.082c-0.334-0.054-0.694,0.066-1.027,0.026
						c-0.32-0.046-0.494-1.355-0.828-1.396c-0.319-0.041-0.921,1.977-1.255,1.943c-0.347-0.041-0.479-1.824-0.813-1.865
						c-0.334-0.032-0.763,0.662-1.082,0.643c-0.348-0.032-0.693,0.146-1.027,0.127c-0.334-0.026-0.734,0.781-1.055,0.762
						c-0.348-0.02-0.653-0.174-0.987-0.193c-0.347-0.021-0.614-1.376-0.961-1.39c-0.334-0.014-0.668,0.28-1.015,0.28
						c-0.348-0.006-0.694,0.141-1.016,0.141c-0.334,0-0.667-0.213-1.015-0.213c-0.347,0-0.693-0.194-1.015-0.194
						c-0.348,0-0.668,0.621-1.015,0.636c-0.333,0.014-0.693-0.902-1.027-0.889s-0.681,0.02-1.027,0.033
						c-0.348,0.014-0.613,1.335-0.935,1.342c-0.348,0.026-0.722-0.729-1.055-0.701c-0.334,0.021-0.602,1.115-0.935,1.135
						c-0.334,0.027-0.762-1.021-1.082-1c-0.334,0.025-0.668,0.181-1.001,0.207c-0.333,0.033-0.601,0.854-0.935,0.888
						s-0.722-0.435-1.055-0.399c-0.319,0.032-0.721-0.44-1.055-0.408c-0.334,0.033-0.521,1.311-0.854,1.355
						c-0.333,0.047-0.922-1.85-1.256-1.803c-0.333,0.047-0.534,1.107-0.866,1.154c-0.321,0.041-0.602,0.535-0.935,0.588
						c-0.321,0.047-0.908-1.437-1.229-1.375c-0.348,0.054-0.348,2.083-0.682,2.144c-0.334,0.055-0.841-0.929-1.175-0.868
						s-0.574,0.627-0.894,0.683c-0.334,0.061-0.734-0.249-1.068-0.183c-0.32,0.068-0.694-0.066-1.041,0
						c-0.32,0.068-0.667,0.035-1.015,0.107c-0.32,0.067-0.454,1.089-0.774,1.17c-0.334,0.072-0.827-0.662-1.174-0.582
						c-0.32,0.081-0.788-0.453-1.122-0.373c-0.319,0.08-0.721-0.067-1.04,0.013c-0.334,0.08-0.654,0.234-0.976,0.314
						c-0.334,0.08-0.374,1.271-0.692,1.354c-0.334,0.08-0.896-0.762-1.229-0.682c-0.334,0.094-0.334,1.303-0.681,1.383
						c-0.32,0.087-0.896-0.701-1.201-0.607c-0.321,0.094-0.603,0.4-0.922,0.494c-0.319,0.088-0.707,0-1.027,0.102
						c-0.319,0.1-0.654,0.146-0.988,0.24c-0.318,0.1-0.8-0.287-1.119-0.188c-0.32,0.106-0.16,1.737-0.48,1.852
						c-0.321,0.101-0.881-0.528-1.201-0.423c-0.319,0.115-0.935-0.641-1.255-0.525c-0.321,0.113,0.08,2.244-0.24,2.365
						c-0.32,0.112-1.255-1.483-1.574-1.37c-0.32,0.113-0.642,0.214-0.962,0.326c-0.319,0.114-0.533,0.502-0.854,0.614
						c-0.32,0.129-0.053,1.725-0.373,1.852c-0.309,0.127-0.802-0.239-1.121-0.102c-0.32,0.12-0.881-0.38-1.202-0.254
						c-0.293,0.128-0.935-0.5-1.24-0.373c-0.308,0.12-0.628,0.293-0.922,0.428c-0.319,0.142,0.027,1.783-0.28,1.917
						c-0.307,0.141-0.707,0.026-1.026,0.159c-0.294,0.143-0.961-0.5-1.27-0.366c-0.307,0.141-0.681,0.16-0.974,0.313
						c-0.32,0.146-0.881-0.274-1.202-0.127c-0.293,0.146,0.269,2.07-0.053,2.224c-0.294,0.147-1.281-1.095-1.588-0.946
						c-0.309,0.146,0.133,1.775-0.16,1.937c-0.294,0.146-0.654,0.207-0.948,0.367c-0.293,0.16-1.361-1.176-1.682-1.016
						c-0.294,0.159-0.747,0.047-1.041,0.199c-0.294,0.161-0.294,0.883-0.587,1.057c-0.294,0.153-0.215,1.003-0.509,1.162
						c-0.307,0.161-0.534,0.421-0.84,0.589c-0.294,0.172-1.027-0.422-1.309-0.248c-0.294,0.168-0.854-0.106-1.135,0.066
						c-0.293,0.174,0.026,1.356-0.28,1.537c-0.28,0.173-1.27-0.781-1.563-0.604c-0.278,0.182,0.614,2.272,0.321,2.439
						c-0.281,0.188-1.375-0.922-1.655-0.741c-0.294,0.188,0.24,1.645-0.04,1.823c-0.279,0.188-1.187-0.602-1.48-0.421
						c-0.28,0.188-0.374,0.661-0.642,0.849c-0.294,0.194-1.014-0.287-1.294-0.094s0.333,1.663,0.066,1.856
						c-0.28,0.193-1.135-0.435-1.415-0.239c-0.268,0.192-0.453,0.526-0.722,0.729c-0.267,0.192-0.079,1.041-0.347,1.248
						c-0.268,0.2-1.762-1.207-2.016-1.016c-0.28,0.2,0.68,2.005,0.414,2.211c-0.269,0.2-1.749-1.155-2.018-0.936
						c-0.266,0.201-0.358,0.648-0.626,0.862c-0.254,0.22-0.334,0.661-0.588,0.881c-0.268,0.215-0.882,0-1.147,0.215
						c-0.268,0.221,0.693,1.87,0.428,2.091c-0.269,0.214-1.441-0.654-1.709-0.435c-0.24,0.214-0.534,0.407-0.787,0.634
						c-0.254,0.229-0.547,0.4-0.813,0.629c-0.24,0.228-0.827,0.101-1.082,0.335c-0.254,0.227-0.119,0.86-0.373,1.088
						c-0.254,0.232-0.066,0.929-0.307,1.155c-0.254,0.228-0.106,0.854-0.348,1.096c-0.241,0.24-0.961,0-1.188,0.227
						c-0.24,0.24-0.427,0.535-0.653,0.774c-0.239,0.242-1.309-0.332-1.549-0.079c-0.239,0.241,0.668,1.583,0.454,1.838
						c-0.239,0.24-0.025,0.9-0.268,1.146c-0.213,0.254-0.826,0.142-1.066,0.375c-0.214,0.254-0.36,0.573-0.588,0.821
						c-0.228,0.254-1.695-0.588-1.922-0.341c-0.214,0.254,0.72,1.517,0.507,1.771c-0.227,0.259-0.854,0.165-1.066,0.419
						c-0.215,0.263,0.213,1.036-0.015,1.296c-0.214,0.269-0.854,0.175-1.054,0.437c-0.214,0.259-0.294,0.627-0.494,0.9
						c-0.2,0.261-0.015,0.834-0.214,1.108c-0.2,0.268-1.855-0.562-2.068-0.301c-0.201,0.272,0.562,1.27,0.373,1.543
						c-0.2,0.273,0.107,0.895-0.105,1.17c-0.188,0.271-1.282-0.08-1.47,0.191c-0.187,0.274-0.72,0.335-0.906,0.608
						c-0.2,0.287-0.854,0.247-1.056,0.534c-0.174,0.287-0.388,0.568-0.574,0.855c-0.173,0.287,0.24,0.955,0.066,1.242
						c-0.186,0.286-0.172,0.694-0.358,0.981c-0.16,0.279-0.48,0.501-0.642,0.794c-0.174,0.287,0.347,0.996,0.188,1.275
						c-0.188,0.302-0.268,0.629-0.428,0.916c-0.159,0.287,0.054,0.787-0.106,1.081c-0.16,0.301-0.774,0.342-0.935,0.643
						c-0.16,0.294-1.309,0.08-1.469,0.374c-0.16,0.293-0.374,0.581-0.507,0.888c-0.161,0.308-0.294,0.629-0.44,0.922
						c-0.146,0.308-0.227,0.654-0.359,0.963c-0.146,0.307,0.239,0.854,0.105,1.161c-0.133,0.308-1.228,0.207-1.375,0.515
						c-0.134,0.309,1.629,1.438,1.496,1.743C16.865,71.323,15.263,71.003,15.13,71.31z"/>
				</g>
				<g>
					
						<path fill="none" stroke="#000000" stroke-width="3" stroke-linecap="round" stroke-linejoin="round" stroke-miterlimit="10" d="
						M50.526,41.726c-0.213,0.254-0.533,0.414-0.773,0.66c-0.228,0.254,0.588,1.45,0.375,1.704c-0.24,0.246-0.08,0.842-0.295,1.089
						c-0.239,0.254-0.882,0.121-1.095,0.367c-0.241,0.254-0.321,0.627-0.534,0.875c-0.238,0.254-0.747,0.239-0.975,0.493
						c-0.228,0.248-0.08,0.829-0.307,1.083c-0.228,0.255-0.881,0.113-1.107,0.367c-0.227,0.247-0.948,0.054-1.175,0.308
						c-0.229,0.246-0.574,0.395-0.788,0.661c-0.239,0.247,0.348,1.195,0.12,1.456c-0.227,0.261-1.614-0.487-1.828-0.228
						c-0.229,0.262-0.32,0.628-0.534,0.889c-0.227,0.261,1.081,1.791,0.868,2.051c-0.214,0.268-0.788,0.221-1.015,0.481
						c-0.214,0.26-0.573,0.399-0.787,0.674c-0.2,0.272-0.588,0.394-0.803,0.662c-0.199,0.272-0.88,0.192-1.066,0.467
						c-0.213,0.273-0.642,0.395-0.827,0.682c-0.188,0.287-0.107,0.763-0.294,1.05c-0.188,0.287,0.641,1.222,0.454,1.502
						c-0.188,0.287-1.389-0.066-1.563,0.228c-0.174,0.303-0.721,0.389-0.868,0.689c-0.187,0.293-0.146,0.728-0.294,1.021
						c-0.159,0.313,0.563,1.056,0.429,1.349c-0.135,0.309,0.105,0.748-0.026,1.063c-0.134,0.31-0.534,0.487-0.668,0.796
						c-0.12,0.307,0.16,0.762,0.054,1.082c-0.12,0.307-1.468,0.174-1.589,0.493c-0.12,0.314-0.24,0.636-0.333,0.941
						c-0.106,0.32-0.294,0.614-0.401,0.937c-0.093,0.32-0.506,0.548-0.612,0.867c-0.094,0.32-0.293,0.629-0.373,0.941
						c-0.107,0.321,0.373,0.815,0.293,1.136c-0.094,0.314,0.281,0.763,0.199,1.091c-0.079,0.32-0.653,0.527-0.733,0.854
						c-0.08,0.334-0.36,0.621-0.427,0.936c-0.066,0.335-0.294,0.642-0.349,0.962c-0.08,0.328,1.47,0.969,1.39,1.296
						c-0.054,0.335-1.229,0.447-1.295,0.775c-0.055,0.334,0.239,0.721,0.199,1.048c-0.054,0.333,0.374,0.734,0.349,1.063
						c-0.055,0.327-1.683,0.447-1.709,0.773c-0.054,0.329,0.774,0.775,0.733,1.116c-0.039,0.334,0.827,0.769,0.787,1.096
						c-0.025,0.335-0.013,0.66-0.053,0.995c-0.027,0.328-1.669,0.508-1.695,0.854c-0.014,0.341,1.548,0.795,1.534,1.13
						c-0.026,0.327-1.054,0.587-1.08,0.921c-0.014,0.327,0.92,0.716,0.894,1.049c-0.014,0.327-0.426,0.636-0.452,0.981
						c0,0.326-0.36,0.648-0.374,0.989c0,0.334,0.239,0.675,0.214,1.002c0,0.334-0.428,0.66-0.428,0.995
						c0,0.327,0.188,0.668,0.188,1.002c0,0.326,0.96,0.66,0.96,0.989c0,0.334-0.439,0.674-0.439,1.008
						c0,0.326-0.721,0.683-0.721,1.015c0.015,0.328-0.308,0.683-0.308,1.01c0.014,0.334,0.268,0.662,0.294,0.994
						c0,0.328,0.174,0.662,0.2,0.989c0.014,0.334-0.334,0.688-0.32,1.028c0.014,0.327,1.349,0.596,1.374,0.936
						c0.014,0.326-1.44,0.748-1.414,1.083c0.026,0.333,1.121,0.601,1.147,0.935c0.025,0.334,0.294,0.647,0.319,0.981
						c0.027,0.327-0.827,0.729-0.813,1.056c0.025,0.334,1.014,0.596,1.041,0.93c0.013,0.327-0.588,0.714-0.548,1.048
						c0.025,0.328,0.439,0.629,0.479,0.969c0.027,0.326-0.507,0.716-0.479,1.05c0.025,0.327,0.079,0.66,0.105,1.001
						c0.04,0.327,0.937,0.582,0.962,0.916c0.026,0.327-0.988,0.761-0.947,1.088c0.039,0.334-0.854,0.769-0.813,1.096
						c0.026,0.334,0.347,0.643,0.374,0.969c0.025,0.335-0.08,0.689-0.054,1.017c0.04,0.334,1.375,0.527,1.415,0.854
						c0.04,0.334,0.133,0.661,0.187,0.996c0.026,0.327,0.32,0.634,0.36,0.968c0.04,0.327-1.429,0.843-1.389,1.177
						c0.039,0.326,0.787,0.573,0.813,0.907c0.04,0.334,0.654,0.596,0.694,0.937c0.026,0.334-0.32,0.708-0.268,1.049
						c0.053,0.327-0.922,0.788-0.882,1.115c0.04,0.334,0.24,0.654,0.28,0.98c0.04,0.327,1.615,0.481,1.669,0.811
						c0.04,0.333-0.773,0.773-0.733,1.107c0.04,0.327,1.16,0.535,1.214,0.86c0.041,0.335-0.668,0.756-0.641,1.097
						c0.053,0.334,0.427,0.627,0.48,0.961c0.04,0.328,0.573,0.604,0.613,0.937c0.04,0.327-1.121,0.809-1.095,1.148
						c0.053,0.327,0.32,0.636,0.36,0.97c0.04,0.333-0.48,0.728-0.44,1.067c0.04,0.333,0.573,0.608,0.614,0.937
						c0.053,0.334,0.24,0.653,0.28,0.98c0.04,0.334-0.774,0.77-0.734,1.096c0.04,0.327,1.603,0.487,1.654,0.821
						c0.025,0.328-1.694,0.875-1.654,1.209c0.026,0.327,0.347,0.635,0.4,0.969c0.025,0.328,0.239,0.648,0.28,0.982
						c0.039,0.327,1.16,0.547,1.2,0.874c0.04,0.334-1.562,0.843-1.521,1.177c0.04,0.327,1.828,0.48,1.854,0.809
						c0.027,0.326-1.533,0.835-1.494,1.161c0.026,0.334,0.429,0.629,0.454,0.955c0.026,0.334-0.479,0.709-0.439,1.043
						c0.04,0.327,1.428,0.534,1.468,0.86c0.04,0.348-1.001,0.781-0.974,1.123c0.04,0.341,0.64,0.628,0.652,0.968
						c0.041,0.341,0.867,0.604,0.896,0.942c0.026,0.348-1.146,0.788-1.122,1.129c0.027,0.347-0.466,0.734-0.426,1.076
						c0.026,0.34,1.414,0.554,1.439,0.888c0.027,0.34,0.16,0.675,0.188,1.016c0.04,0.341,0.427,0.636,0.467,0.981
						c0.04,0.341-0.561,0.741-0.521,1.083c0.025,0.34-0.08,0.693-0.026,1.034c0.026,0.342,0.467,0.642,0.507,0.97
						c0.04,0.34-1.001,0.808-0.961,1.154c0.054,0.342,1.215,0.533,1.255,0.861c0.054,0.341-0.399,0.755-0.347,1.082
						c0.053,0.341,0.507,0.622,0.561,0.961c0.066,0.342,0.653,0.582,0.721,0.923c0.054,0.342-0.507,0.775-0.454,1.103
						c0.054,0.348-0.053,0.709,0,1.042c0.08,0.341,0.374,0.628,0.428,0.956c0.08,0.334-0.653,0.835-0.587,1.175
						c0.08,0.327,0.347,0.628,0.427,0.956c0.08,0.334,0.146,0.675,0.24,1.002c0.08,0.333,1.375,0.354,1.469,0.688
						c0.079,0.328,0.359,0.596,0.453,0.922c0.094,0.334-1.882,1.257-1.775,1.584c0.095,0.333,1.162,0.367,1.27,0.694
						c0.106,0.333,0.601,0.527,0.692,0.848c0.107,0.313,0.429,0.549,0.534,0.862c0.12,0.32-0.319,0.834-0.199,1.142
						s0.653,0.454,0.788,0.77c0.134,0.308-0.923,1.122-0.788,1.43c0.146,0.313,1.787-0.066,1.936,0.239
						c0.134,0.309-0.16,0.815-0.025,1.123c0.146,0.294-0.589,1.048-0.429,1.343c0.134,0.294,1.335,0.062,1.495,0.354
						c0.161,0.294-0.561,1.067-0.4,1.369c0.16,0.294,0.414,0.549,0.589,0.828c0.159,0.287,1.588-0.167,1.762,0.127
						c0.187,0.287-0.988,1.391-0.802,1.678c0.159,0.287,1.441-0.127,1.63,0.159c0.172,0.287,0.56,0.407,0.746,0.694
						c0.188,0.287-0.454,1.096-0.255,1.369c0.201,0.274,1.057,0.08,1.242,0.354c0.188,0.273-0.708,1.322-0.507,1.598
						c0.188,0.272,1.055,0.053,1.254,0.327c0.188,0.272,0.614,0.374,0.801,0.641c0.215,0.261-0.413,1.149-0.214,1.423
						c0.214,0.261,1.122-0.02,1.337,0.24c0.198,0.261-0.414,1.183-0.215,1.45c0.215,0.261,0.227,0.681,0.453,0.94
						c0.214,0.269,1.362-0.261,1.575-0.014c0.214,0.269-0.427,1.243-0.213,1.497c0.227,0.253,1.654-0.521,1.868-0.274
						c0.214,0.254-0.309,1.163-0.08,1.417c0.227,0.246-0.094,0.981,0.134,1.229c0.228,0.254,0.373,0.566,0.614,0.821
						c0.213,0.254,1.12-0.127,1.36,0.113c0.228,0.254-0.334,1.229-0.106,1.469c0.228,0.255,1.229-0.214,1.441,0.026
						c0.239,0.234,1.28-0.3,1.521-0.06c0.241,0.239-1.106,2.005-0.867,2.243c0.24,0.24,0.921,0.048,1.161,0.288
						s0.642,0.308,0.881,0.548c0.24,0.24,0.48,0.468,0.722,0.707c0.239,0.234,0.601,0.355,0.827,0.589
						c0.239,0.239,0.467,0.501,0.693,0.734c0.24,0.233-0.188,1.169,0.054,1.408c0.24,0.241,1.44-0.533,1.708-0.307
						c0.228,0.227,0.854,0.066,1.096,0.301c0.239,0.227-0.188,1.183,0.054,1.409c0.24,0.228,1.014-0.101,1.254,0.127
						s0.214,0.741,0.454,0.97c0.24,0.24-0.32,1.368-0.08,1.596c0.254,0.229,1.521-0.682,1.788-0.468
						c0.268,0.227-0.374,1.529-0.12,1.743s0.494,0.515,0.761,0.728c0.269,0.223,1.028-0.192,1.309,0.015
						c0.268,0.208,0.454,0.548,0.722,0.756c0.267,0.2,0.227,0.888,0.507,1.081c0.281,0.193,0.947-0.174,1.229,0.021
						c0.294,0.193,0.854-0.033,1.136,0.146c0.28,0.188,0.387,0.675,0.68,0.85c0.294,0.18,0.494,0.5,0.788,0.667
						c0.308,0.174,0.976-0.313,1.27-0.16c0.293,0.16,0.04,1.363,0.346,1.523c0.32,0.152,1.362-1.17,1.669-1.017
						c0.307,0.146,0.361,0.782,0.667,0.937c0.308,0.146,0.107,1.422,0.428,1.556c0.308,0.142,0.896-0.327,1.201-0.193
						c0.319,0.141,0.641,0.24,0.961,0.368c0.32,0.126,0.44,0.809,0.748,0.921c0.32,0.113,1.026-0.827,1.349-0.715
						c0.319,0.114,0.787-0.239,1.095-0.14c0.347,0.106,0.227,1.623,0.546,1.723c0.334,0.101,1.056-1.222,1.376-1.129
						c0.334,0.094,0.347,1.31,0.694,1.391c0.318,0.08,0.692,0.066,1.014,0.146c0.334,0.08,0.614,0.461,0.948,0.527
						c0.333,0.065,0.827-0.661,1.16-0.595c0.32,0.066,0.668,0.173,0.987,0.228c0.334,0.06,0.787-0.694,1.121-0.648
						c0.348,0.047,0.642,0.32,0.976,0.368c0.348,0.04,0.6,0.734,0.92,0.774c0.348,0.033,0.748-0.688,1.096-0.661
						c0.334,0.033,0.626,0.327,0.974,0.354c0.334,0.021,0.629,0.729,0.976,0.748c0.334,0.026,0.693-0.634,1.041-0.628
						c0.347,0.014,0.641,1.437,0.975,1.449c0.348,0.014,0.707-0.948,1.054-0.948c0.349,0,0.668-0.781,1.016-0.781
						c0.334,0,0.654-0.127,0.988-0.14c0.347-0.007,0.707,0.627,1.041,0.614c0.347-0.007,0.747,1.449,1.095,1.437
						c0.347-0.021,0.653-0.81,0.987-0.829c0.347-0.025,0.613-1.274,0.961-1.302c0.334-0.021,0.772,1.85,1.106,1.836
						s0.642-0.935,0.976-0.948c0.348-0.007,0.668-0.501,1.014-0.508c0.348-0.013,0.694,0.476,1.042,0.468
						c0.347,0,0.681,0.729,1.027,0.729c0.334,0,0.667-1.69,1.001-1.69c0.348,0,0.693,1.042,1.016,1.042
						c0.346,0,0.693-1.188,1.04-1.176c0.349,0,0.694,0.053,1.028,0.053c0.346,0.015,0.64,1.965,0.974,1.979
						c0.348,0.007,0.721-1.669,1.068-1.655c0.347,0.014,0.667,0.533,1,0.562c0.334,0.007,0.653,0.889,0.987,0.896
						c0.349,0.014,0.708-0.408,1.042-0.395c0.334,0.006,0.668,0.133,1.015,0.146c0.334,0.015,0.732-1.322,1.081-1.309
						c0.347,0.007,0.614,1.409,0.961,1.422c0.334,0.014,0.694-0.562,1.041-0.547c0.347,0.013,0.627,1.027,0.961,1.048
						c0.348,0.02,0.668,0.335,1.016,0.342c0.347,0.026,0.772-1.984,1.12-1.957c0.334,0.006,0.588,1.535,0.936,1.549
						c0.347,0.006,0.733-1.096,1.067-1.082c0.347,0.008,0.693-0.072,1.027-0.06c0.347,0.013,0.601,1.736,0.947,1.743
						c0.347,0.014,0.721-0.922,1.067-0.908c0.334,0.007,0.667,0.293,1.015,0.307c0.334,0.006,0.654,0.81,0.988,0.822
						c0.347,0.006,0.733-1.744,1.065-1.737c0.349,0.015,0.643,1.45,0.988,1.45c0.348,0,0.694-0.694,1.041-0.682
						c0.334,0,0.681,1.021,1.015,1.021c0.349,0,0.694-1.021,1.028-1.021c0.346,0,0.68-0.542,1.014-0.542
						c0.349,0,0.682-0.308,1.016-0.308c0.347,0,0.692,0.77,1.041,0.756c0.334-0.014,0.667-0.241,1.015-0.255
						c0.333-0.007,0.707,0.723,1.054,0.702c0.349-0.026,0.668-0.401,1.002-0.428c0.348-0.021,0.653-0.469,0.975-0.488
						c0.347-0.021,0.641-0.581,0.975-0.614c0.334-0.032,0.76,0.788,1.094,0.741c0.334-0.033,0.643-0.399,0.976-0.447
						c0.334-0.047,0.642-0.326,0.961-0.373c0.347-0.048,0.588-0.596,0.921-0.648c0.334-0.061,0.683,0.088,1.028,0.033
						c0.333-0.062,0.921,1.275,1.255,1.209c0.32-0.073,0.721,0.134,1.066,0.066c0.333-0.066,0.694-0.106,1.027-0.174
						c0.334-0.08,0.294-1.684,0.628-1.764c0.32-0.08,0.72,0.168,1.055,0.08c0.334-0.094,0.562-0.501,0.882-0.594
						c0.334-0.095,0.895,0.601,1.214,0.5c0.32-0.101,0.868,0.454,1.188,0.354c0.32-0.113,0.44-0.821,0.761-0.935
						c0.319-0.114,0.294-1.149,0.613-1.276c0.32-0.126,1.016,0.742,1.322,0.615c0.319-0.127,0.601-0.355,0.895-0.488
						c0.319-0.14,0.228-1.155,0.534-1.289c0.308-0.146,1.015,0.555,1.308,0.407c0.308-0.146,0.641-0.24,0.948-0.394
						c0.294-0.16-0.066-1.53,0.239-1.69c0.294-0.16,1.643,1.537,1.937,1.376c0.293-0.166,0.641-0.308,0.921-0.475
						c0.293-0.175-0.574-2.226-0.294-2.404c0.28-0.188,0.974,0.28,1.241,0.1c0.294-0.192,0.613-0.287,0.908-0.479
						c0.267-0.193,0.373-0.647,0.64-0.842c0.268-0.193,1.147,0.407,1.415,0.208c0.268-0.208,0.721-0.189,0.987-0.401
						c0.268-0.206,0.188-0.875,0.44-1.082c0.268-0.221,0.574-0.374,0.841-0.607c0.255-0.215,0.693-0.233,0.947-0.453
						c0.254-0.229,0.066-0.942,0.307-1.177c0.255-0.228,1.068,0.153,1.31-0.08c0.253-0.228,0.293-0.683,0.533-0.907
						c0.24-0.241-0.28-1.258-0.04-1.497c0.239-0.24,1.349,0.388,1.589,0.153c0.24-0.24-0.562-1.477-0.32-1.724
						c0.229-0.254,1.001,0.02,1.229-0.229c0.228-0.254,0.08-0.835,0.308-1.081c0.228-0.255,1.694,0.602,1.922,0.347
						c0.228-0.247-0.28-1.148-0.066-1.408c0.214-0.254,0.882-0.141,1.107-0.401c0.214-0.261,0.229-0.682,0.454-0.947
						c0.213-0.262-0.734-1.472-0.521-1.73c0.214-0.261,1.066,0.014,1.294-0.254c0.2-0.261,0.146-0.734,0.359-1.001
						c0.214-0.261,1.229,0.093,1.429-0.167c0.2-0.268,0.628-0.367,0.842-0.643c0.214-0.273,0-0.854,0.214-1.114
						c0.2-0.275,0.787-0.255,0.986-0.516c0.214-0.273,0.081-0.788,0.28-1.063c0.2-0.274-0.039-0.862,0.174-1.135
						c0.201-0.275-0.106-0.916,0.106-1.189c0.2-0.272,0.896-0.181,1.095-0.439c0.188-0.275,0.588-0.402,0.787-0.676
						c0.2-0.274-0.054-0.876,0.146-1.155c0.188-0.268,1.229,0.074,1.442-0.2c0.186-0.274,0.64-0.375,0.826-0.654
						c0.188-0.268-0.134-0.922,0.08-1.195c0.188-0.273,0.388-0.556,0.587-0.828c0.215-0.274,1.147,0,1.335-0.274
						c0.214-0.272,0.388-0.547,0.588-0.821c0.214-0.272,0.508-0.467,0.693-0.739c0.214-0.275-0.813-1.457-0.613-1.725
						c0.214-0.273,1.041-0.08,1.229-0.341c0.213-0.273,0.066-0.809,0.267-1.068c0.215-0.273,0.494-0.48,0.694-0.756
						c0.214-0.26,0.507-0.468,0.721-0.729c0.188-0.26,1.161,0.08,1.389-0.188c0.214-0.261-0.16-0.987,0.054-1.249
						c0.214-0.267,0.479-0.48,0.694-0.74c0.214-0.262-0.4-1.209-0.175-1.472c0.214-0.266,1.588,0.47,1.803,0.201
						c0.228-0.26-0.828-1.615-0.588-1.87c0.214-0.248,1.735,0.654,1.963,0.4c0.227-0.246-0.976-1.797-0.734-2.05
						c0.214-0.254,1.269,0.253,1.495,0.013c0.227-0.254,0.868-0.105,1.095-0.354c0.239-0.24,0.427-0.517,0.667-0.757
						c0.24-0.239-0.16-1.113,0.08-1.342c0.24-0.239,0.601-0.367,0.854-0.595c0.239-0.228,0.439-0.521,0.692-0.755
						c0.24-0.228,1.016,0.106,1.255-0.113c0.254-0.228-0.025-1.035,0.24-1.263c0.254-0.221,0.508-0.468,0.774-0.688
						c0.253-0.214,1.12,0.301,1.389,0.08c0.253-0.214-0.642-1.776-0.374-2.004c0.24-0.214,1.36,0.562,1.628,0.333
						c0.24-0.232,0.294-0.66,0.534-0.895c0.24-0.228-0.107-1.049,0.12-1.282c0.24-0.24,0.654-0.268,0.895-0.515
						c0.215-0.254,1.095,0.101,1.334-0.146c0.214-0.254-0.187-1.042,0.027-1.29c0.213-0.267,1.682,0.488,1.895,0.229
						c0.2-0.263-1.094-1.691-0.881-1.964c0.2-0.275,1.949,0.606,2.148,0.334c0.2-0.274,0.308-0.629,0.494-0.916
						c0.2-0.273-0.641-1.243-0.453-1.523c0.187-0.287,1.121-0.093,1.295-0.381c0.173-0.28-0.454-1.055-0.28-1.342
						c0.16-0.288,1.389,0.014,1.574-0.274c0.16-0.293,0.214-0.661,0.374-0.955c0.16-0.3-0.641-1.096-0.494-1.396
						c0.146-0.293,0.948-0.28,1.082-0.587c0.16-0.309,0.32-0.607,0.453-0.915c0.134-0.309,0.107-0.695,0.229-1.002
						c0.119-0.309-0.334-0.869-0.215-1.177c0.12-0.308,0.827-0.4,0.947-0.715c0.106-0.319-0.359-0.848-0.239-1.163
						c0.105-0.318,0.881-0.398,1-0.721c0.095-0.32,0.175-0.646,0.28-0.968c0.107-0.321,0.388-0.596,0.481-0.916
						c0.093-0.313-1.016-0.988-0.922-1.309c0.094-0.321,0.174-0.642,0.254-0.956c0.08-0.334,0.054-0.661,0.134-0.995
						c0.08-0.326,0.427-0.581,0.507-0.9c0.054-0.314,0.801-0.509,0.867-0.843c0.067-0.327-0.307-0.741-0.254-1.069
						c0.054-0.334,1.136-0.479,1.188-0.808c0.067-0.334-0.947-0.848-0.895-1.176c0.054-0.334-0.587-0.755-0.534-1.082
						c0.04-0.334,0.054-0.654,0.107-0.996c0.025-0.327,1.682-0.474,1.709-0.809c0.025-0.334-0.16-0.693-0.12-1.034
						c0.04-0.334-0.04-0.689-0.027-1.017c0.027-0.334,0.733-0.627,0.761-0.969c0.015-0.333-0.641-0.721-0.612-1.048
						c0-0.334-0.027-0.675,0-1.017c0-0.333,0.025-0.675,0.025-1.002c0.027-0.348-0.587-0.688-0.587-1.015
						c0-0.335,0.614-0.676,0.614-1.01c0-0.34,0.64-0.694,0.64-1.021c-0.025-0.335,0.188-0.688,0.16-1.028
						c0-0.34-2.162-0.58-2.176-0.921c-0.014-0.342,1.455-0.763,1.429-1.097c-0.013-0.341-0.334-0.661-0.347-0.987
						c-0.027-0.342-0.481-0.643-0.521-0.97c-0.04-0.348,0.842-0.769,0.788-1.108c-0.026-0.326,0.134-0.708,0.08-1.035
						c-0.053-0.334-1.549-0.48-1.603-0.821c-0.041-0.335,0.773-0.789,0.722-1.129c-0.054-0.327-0.683-0.581-0.748-0.915
						c-0.054-0.328-0.08-0.668-0.134-1.003c-0.054-0.327,0.653-0.794,0.588-1.135c-0.055-0.335-1.161-0.468-1.229-0.801
						c-0.054-0.328,1.574-1.017,1.494-1.344c-0.08-0.335-0.895-0.516-0.961-0.85c-0.066-0.327-1.562-0.327-1.642-0.654
						c-0.08-0.333,1.722-1.108,1.628-1.44c-0.094-0.328-0.399-0.604-0.479-0.938c-0.08-0.326-1.295-0.347-1.389-0.682
						c-0.094-0.327,0.721-0.888,0.628-1.215c-0.094-0.334-0.308-0.621-0.401-0.949c-0.08-0.334-0.359-0.595-0.467-0.921
						c-0.094-0.321,0.04-0.722-0.066-1.042c-0.106-0.321,0.308-0.81,0.214-1.129c-0.106-0.313-1.454-0.233-1.549-0.556
						c-0.105-0.307-0.159-0.614-0.293-0.936c-0.106-0.308,0.842-1.048,0.722-1.355c-0.134-0.3-1.122-0.239-1.256-0.549
						c-0.134-0.299-0.399-0.539-0.546-0.834c-0.135-0.293,1-1.216,0.853-1.517c-0.146-0.294-0.334-0.581-0.494-0.875
						c-0.146-0.3-1.535,0.047-1.682-0.254c-0.146-0.294-0.134-0.667-0.294-0.969c-0.133-0.294-0.214-0.628-0.373-0.921
						c-0.16-0.301,0.561-1.05,0.399-1.343c-0.159-0.302-0.188-0.668-0.319-0.949c-0.16-0.294-0.494-0.494-0.654-0.788
						c-0.16-0.295-0.293-0.596-0.453-0.889c-0.146-0.293-0.654-0.406-0.802-0.708c-0.146-0.295,0.026-0.756-0.12-1.049
						c-0.134-0.294-1.603,0.026-1.748-0.273c-0.134-0.308,0.44-0.937,0.307-1.242c-0.146-0.308,0.188-0.81,0.08-1.103
						c-0.133-0.308-1.762-0.04-1.868-0.348c-0.12-0.313,0.975-1.069,0.867-1.376c-0.093-0.32-0.573-0.528-0.667-0.835
						c-0.094-0.328,0.055-0.701-0.025-1.021c-0.067-0.334-0.868-0.549-0.922-0.869c-0.054-0.333,0.907-0.808,0.854-1.148
						c-0.053-0.333,0.563-0.786,0.508-1.121c-0.065-0.328-0.881-0.549-0.935-0.875c-0.066-0.328,0.239-0.742,0.174-1.069
						c-0.067-0.334-1.802-0.334-1.855-0.661c-0.065-0.333,0.534-0.802,0.454-1.128c-0.065-0.335,1.201-0.964,1.12-1.289
						c-0.08-0.334-1.841-0.269-1.922-0.596c-0.08-0.326,1.575-1.096,1.495-1.416c-0.08-0.326-1.828-0.228-1.922-0.541
						c-0.095-0.334-0.015-0.701-0.106-1.015c-0.08-0.335,1.229-1.063,1.147-1.385c-0.093-0.326-0.667-0.514-0.774-0.841
						c-0.093-0.32,0.441-0.854,0.348-1.176c-0.105-0.319-1.389-0.274-1.495-0.595c-0.105-0.32,0.348-0.828,0.24-1.148
						c-0.12-0.32,0.106-0.762,0-1.082c-0.12-0.32-0.158-0.688-0.268-0.995c-0.119-0.313-1.308-0.24-1.428-0.555
						c-0.12-0.321-0.44-0.562-0.548-0.882c-0.134-0.32-0.773-0.422-0.906-0.729c-0.107-0.32,0.08-0.756-0.054-1.063
						c-0.135-0.308,0.894-1.114,0.76-1.422c-0.146-0.309-1.12-0.255-1.254-0.567c-0.146-0.309,0.12-0.803-0.015-1.108
						c-0.133-0.308-0.146-0.676-0.293-0.981c-0.146-0.308-1.495-0.034-1.642-0.341c-0.146-0.308-0.334-0.582-0.48-0.876
						c-0.146-0.307,0.521-1.016,0.36-1.314c-0.134-0.309-0.48-0.501-0.642-0.81c-0.16-0.294,0.693-1.135,0.534-1.437
						c-0.16-0.293-1.389-0.02-1.549-0.319c-0.159-0.295,0.747-1.196,0.589-1.489c-0.188-0.301-0.896-0.274-1.068-0.563
						c-0.174-0.294-0.479-0.501-0.668-0.795c-0.16-0.286-0.573-0.435-0.747-0.722c-0.187-0.28-0.533-0.439-0.721-0.729
						c-0.174-0.288-0.16-0.682-0.348-0.956c-0.188-0.272-0.188-0.688-0.374-0.961c-0.174-0.272-0.612-0.359-0.801-0.636
						c-0.2-0.273,0.334-1.062,0.134-1.335c-0.187-0.272-1.361,0.181-1.549-0.094c-0.214-0.261,0.494-1.216,0.294-1.477
						c-0.214-0.268,0.04-0.9-0.174-1.154c-0.2-0.263-1.788,0.594-1.988,0.334c-0.214-0.268-0.428-0.502-0.642-0.756
						c-0.214-0.255,0-0.875-0.214-1.128c-0.212-0.248,0.201-1.083-0.025-1.337c-0.239-0.248-1.201,0.221-1.441-0.033
						c-0.228-0.24,0.106-1.036-0.12-1.262c-0.24-0.241-0.308-0.663-0.534-0.89c-0.239-0.228-1.214,0.293-1.454,0.066
						s0.174-1.188-0.054-1.402c-0.268-0.228-1.414,0.602-1.683,0.388c-0.253-0.215,0.161-1.229-0.093-1.437
						s-0.975,0.134-1.229-0.065c-0.268-0.207-0.439-0.502-0.722-0.696c-0.253-0.206-0.573-0.319-0.854-0.514
						s-0.534-0.388-0.813-0.582c-0.267-0.192,0.16-1.448-0.105-1.63c-0.269-0.187-1.148,0.534-1.416,0.354
						c-0.293-0.173-0.76-0.026-1.055-0.187c-0.279-0.168-0.841,0.187-1.135,0.025s-0.214-0.968-0.52-1.129
						c-0.294-0.159-0.374-0.728-0.683-0.868c-0.294-0.146-0.587-0.32-0.881-0.454c-0.308-0.14-0.747,0.007-1.054-0.112
						c-0.309-0.142-0.842,0.293-1.162,0.181c-0.32-0.127-0.014-1.938-0.334-2.038c-0.32-0.12-1.054,0.988-1.374,0.891
						c-0.32-0.107-0.548-0.482-0.882-0.575c-0.319-0.088-0.546-0.621-0.866-0.701c-0.334-0.08-0.574-0.608-0.896-0.677
						c-0.334-0.065-0.961,1.356-1.309,1.29c-0.319-0.072-0.453-1.275-0.774-1.335c-0.332-0.054-0.8,0.694-1.134,0.647
						s-0.507-1.39-0.841-1.424c-0.319-0.046-0.882,1.891-1.228,1.857c-0.334-0.033-0.548-1.343-0.882-1.369
						c-0.348-0.021-0.774,1.321-1.12,1.303c-0.334-0.027-0.643-0.389-0.976-0.414c-0.334-0.021-0.628-0.861-0.976-0.889
						c-0.332-0.006-0.653-0.389-0.986-0.396c-0.348-0.014-0.682-0.507-1.016-0.507c-0.348-0.007-0.693,0.78-1.027,0.78
						c-0.347,0-0.681,1.376-1.015,1.376c-0.348,0-0.681-0.901-1.015-0.901s-0.681-1.309-1.027-1.309c-0.348,0-0.667,0.66-1,0.66
						c-0.334,0-0.683-0.486-1.028-0.486c-0.348,0-0.668-0.08-1.015-0.074c-0.348,0-0.667,1.497-0.987,1.511
						c-0.348,0-0.682-0.16-1.015-0.16c-0.348,0-0.682-1.271-1.027-1.257c-0.334,0-0.668,1.55-1.002,1.55
						c-0.346,0-0.693,0.174-1.014,0.174c-0.348,0-0.682-0.301-1.016-0.307c-0.348,0-0.681-0.349-1.014-0.354
						c-0.348-0.014-0.723,0.763-1.057,0.749c-0.332-0.008-0.68-0.193-1.014-0.2c-0.334-0.015-0.627-1.016-0.948-1.043
						c-0.347-0.02-0.761,0.963-1.094,0.937c-0.347-0.021-0.721,0.307-1.055,0.273c-0.334-0.034-0.574-1.138-0.896-1.177
						c-0.347-0.033-0.732,0.335-1.066,0.288c-0.32-0.047-0.469-1.391-0.802-1.437c-0.334-0.054-0.854,1.048-1.2,0.994
						c-0.334-0.061-0.589-0.507-0.923-0.574c-0.333-0.066-0.8,0.421-1.119,0.354c-0.334-0.08-0.549-0.627-0.868-0.715
						c-0.348-0.094-0.534-0.595-0.854-0.688c-0.32-0.086-0.641-0.239-0.962-0.327c-0.32-0.094-0.975,0.977-1.28,0.889
						c-0.319-0.094-0.28-1.575-0.601-1.655c-0.321-0.08-0.574-0.508-0.896-0.602c-0.319-0.08-1.014,1.354-1.334,1.288
						c-0.334-0.079-0.773,0.4-1.095,0.328c-0.334-0.066-0.188-2.278-0.507-2.346c-0.348-0.073-0.761,0.247-1.081,0.182
						c-0.334-0.067-0.854,0.874-1.188,0.821c-0.319-0.061-0.428-1.464-0.748-1.517c-0.319-0.063-0.962,1.775-1.294,1.729
						c-0.334-0.046-0.602-0.507-0.922-0.555c-0.334-0.047-0.734,0.521-1.068,0.475c-0.318-0.04-0.452-1.81-0.8-1.845
						c-0.319-0.033-0.641-0.42-0.975-0.447c-0.334-0.031-0.787,1.396-1.121,1.37c-0.334-0.02-0.654-0.181-1.001-0.207
						c-0.321-0.021-0.587-1.456-0.935-1.47c-0.32-0.006-0.722,1.783-1.067,1.771c-0.321-0.014-0.642-0.334-0.987-0.334
						c-0.319,0-0.668-0.728-1.002-0.716c-0.334,0-0.681,0.068-1.014,0.08c-0.334,0.008-0.654,0.455-0.988,0.477
						c-0.334,0.025-0.681,0.012-1.001,0.039c-0.333,0.021-0.667,0.053-1.015,0.088c-0.32,0.032-0.774-1.002-1.107-0.97
						c-0.334,0.033-0.707-0.079-1.027-0.032c-0.348,0.047-0.48,1.488-0.802,1.535c-0.334,0.061-0.774-0.555-1.107-0.501
						c-0.332,0.06-0.786-0.534-1.135-0.468c-0.319,0.066-0.613,0.4-0.934,0.468c-0.334,0.066-0.48,1.096-0.802,1.162
						c-0.334,0.074-0.733-0.18-1.067-0.113c-0.319,0.073-0.48,0.969-0.801,1.043c-0.32,0.072-1.068-1.638-1.39-1.564
						c-0.333,0.08-0.266,1.838-0.586,1.917c-0.348,0.073-0.854-0.621-1.176-0.541c-0.348,0.08-0.48,0.869-0.8,0.963
						c-0.334,0.08-0.668,0.133-0.988,0.227c-0.32,0.08-0.562,0.521-0.881,0.603c-0.333,0.093-0.653,0.173-0.987,0.26
						c-0.32,0.095-1.095-1.438-1.415-1.343c-0.32,0.094-0.16,1.892-0.494,1.983c-0.333,0.093-1.107-1.423-1.429-1.335
						c-0.319,0.094-0.172,1.816-0.506,1.903c-0.32,0.094-0.628,0.268-0.962,0.354c-0.32,0.095-1.175-1.63-1.494-1.535
						c-0.334,0.093-0.4,1.063-0.723,1.162c-0.333,0.094-0.427,0.922-0.746,1.015c-0.333,0.095-1.067-1.194-1.389-1.108
						c-0.334,0.094-0.28,1.45-0.614,1.544c-0.318,0.101-1.146-1.47-1.468-1.384c-0.321,0.107-0.027,2.259-0.348,2.365
						c-0.334,0.101-0.774-0.207-1.095-0.12c-0.334,0.105-1.095-1.282-1.416-1.184c-0.319,0.101-0.68,0.094-0.999,0.181
						c-0.334,0.106-0.16,1.837-0.494,1.931c-0.32,0.088-0.642,0.182-0.976,0.274c-0.333,0.087-0.547,0.555-0.867,0.661
						c-0.319,0.101-1.175-1.598-1.494-1.51c-0.32,0.094-0.428,0.969-0.747,1.063c-0.309,0.095-0.883-0.682-1.202-0.595
						c-0.32,0.093-0.586,0.414-0.906,0.501c-0.321,0.094-0.481,0.694-0.828,0.802c-0.32,0.094-0.48,0.729-0.787,0.827
						c-0.319,0.106-0.895-0.647-1.215-0.547c-0.32,0.106-0.4,0.949-0.722,1.056c-0.319,0.101-0.773-0.175-1.067-0.06
						c-0.32,0.113-0.614,0.307-0.907,0.42c-0.321,0.113-0.667,0.174-0.961,0.287c-0.32,0.113-0.294,1.082-0.614,1.209
						c-0.294,0.12-0.733-0.094-1.041,0.033c-0.307,0.128-1.015-0.694-1.32-0.562c-0.309,0.141-0.414,0.723-0.722,0.855
						c-0.308,0.14-0.572,0.367-0.867,0.5c-0.293,0.146-0.199,1.082-0.508,1.234c-0.294,0.146-1.2-0.914-1.494-0.768
						c-0.294,0.16-0.228,0.969-0.521,1.129c-0.281,0.161-0.481,0.493-0.762,0.661c-0.294,0.174-1.067-0.475-1.349-0.295
						c-0.279,0.182-0.319,0.742-0.601,0.922c-0.269,0.183-0.188,0.87-0.454,1.063c-0.28,0.193-0.721,0.113-0.987,0.32
						c-0.267,0.193-1.375-0.688-1.653-0.48c-0.255,0.207-0.494,0.48-0.748,0.694c-0.24,0.214,0.293,1.355,0.025,1.583
						c-0.24,0.222-0.134,0.81-0.374,1.042c-0.24,0.228-0.427,0.476-0.667,0.701c-0.241,0.233-1.789-0.828-2.029-0.588
						c-0.214,0.233-0.294,0.661-0.534,0.909c-0.226,0.239-0.426,0.547-0.64,0.801c-0.24,0.273-0.508,0.509-0.748,0.782
						C51.007,41.172,50.767,41.452,50.526,41.726z"/>
				</g>
				<g>
					<g>
						
							<path fill="none" stroke="#000000" stroke-width="3" stroke-linecap="round" stroke-linejoin="round" stroke-miterlimit="10" d="
							M103.688,58.726c0.36,0.033,0.762,0.594,1.056,0.479c0.307-0.112,0.427-0.628,0.694-0.882c0.214-0.213,1.254,0.034,1.44-0.273
							c0.16-0.272-1.068-1.288-0.936-1.616c0.121-0.293,1.79-0.094,1.895-0.435c0.08-0.307-1.281-1.029-1.201-1.369
							c0.067-0.313,0.521-0.555,0.588-0.9c0.055-0.328,0.707-0.581,0.747-0.923c0.04-0.327,0-0.694,0.026-1.034
							c0.04-0.341-0.359-0.723-0.346-1.051c0.025-0.34-1.097-0.728-1.068-1.062c0.026-0.341,0.881-0.635,0.895-0.968
							c0.015-0.343-0.014-0.683-0.014-1.003c0-0.354-0.32-0.683-0.32-1.002c0-0.367,0.854-0.722,0.827-1.042
							c0-0.387-1.348-0.661-1.36-0.955c-0.055-0.628,0.708-0.521,1.147-0.729c0.453-0.22-0.12,0.229,0.359,0.648
							c0.214,0.193,1.429-0.715,1.723-0.469c0.239,0.207-0.4,1.497-0.12,1.725c0.254,0.207,1.214-0.468,1.495-0.254
							c0.253,0.207,0.2,0.821,0.48,1.028c0.254,0.193-0.269,1.517,0.013,1.71s1.415-0.834,1.695-0.647
							c0.279,0.181,0.439,0.548,0.733,0.728c0.269,0.182-0.08,1.471,0.214,1.645c0.293,0.167,1.588-1.477,1.883-1.315
							c0.307,0.159-0.269,2.099,0.025,2.237c0.32,0.146,1.214-1.075,1.535-0.955c0.32,0.12,0.413,0.855,0.734,0.942
							c0.332,0.099,0.894-1.069,1.214-1.016c0.347,0.06,0.508,0.854,0.828,0.854c0.359-0.008,0.454-0.629,0.772-0.709
							c0.32-0.087,1.016,0.836,1.296,0.628c0.254-0.182,0.826-0.273,1.054-0.555"/>
					</g>
					<g>
						
							<path fill="none" stroke="#000000" stroke-width="3" stroke-linecap="round" stroke-linejoin="round" stroke-miterlimit="10" d="
							M107.279,44.144c0.414,0.286,0.747-0.407,1.228,0.06c0.2,0.194,0.28,0.588,0.534,0.876c0.214,0.229-0.374,1.129-0.134,1.415
							c0.2,0.241,1.842-0.614,2.056-0.333c0.188,0.253,0.308,0.614,0.507,0.901c0.188,0.261,0.135,0.722,0.334,1.016
							c0.174,0.273-0.146,0.868,0.04,1.162c0.16,0.287,0.827,0.287,1.001,0.595c0.16,0.28-0.026,0.762,0.134,1.069
							c0.146,0.299,0.414,0.534,0.562,0.854c0.133,0.301-0.24,0.849-0.094,1.155c0.134,0.294,0.988,0.281,1.121,0.602
							c0.133,0.308,0.534,0.515,0.654,0.842c0.119,0.308-0.175,0.788-0.041,1.107c0.106,0.31,0.962,0.376,1.082,0.695
							c0.119,0.308-0.041,0.741,0.054,1.063c0.105,0.314-0.36,0.822-0.28,1.148c0.105,0.32,0.935,0.436,1.014,0.762
							c0.106,0.321-1.28,1.063-1.187,1.397c0.094,0.313,0.868,0.454,0.974,0.779c0.08,0.323-0.453,0.804-0.373,1.13
							c0.08,0.32,1.067,0.447,1.121,0.776c0.08,0.318,0.28,0.627,0.347,0.967c0.08,0.334,0.08,0.676,0.135,1.016
							c0.08,0.334-0.854,0.85-0.788,1.188c0.054,0.327-0.2,0.709-0.146,1.036c0.066,0.333,1.362,0.453,1.39,0.803
							c0.065,0.326-0.801,0.793-0.748,1.135c0.04,0.335,0.04,0.675,0.08,1.002c0.054,0.334,0.374,0.628,0.414,0.975
							c0.039,0.328-0.135,0.695-0.095,1.023c0.027,0.332,0.494,0.613,0.534,0.953c0.027,0.334,1.135,0.575,1.147,0.917
							c0.04,0.326-1.683,0.82-1.668,1.16c0.025,0.334,0.106,0.663,0.146,0.997c0.013,0.326,0.32,0.646,0.347,0.975
							c0.026,0.334,0.428,0.654,0.428,0.981c0.025,0.334-0.693,0.708-0.693,1.049c0.013,0.335,0.906,0.627,0.935,0.97
							c0.013,0.334,0.093,0.674,0.105,1.015c0,0.341,0.04,0.675,0.054,1.016c0.014,0.342-1.134,0.694-1.134,1.035
							c0,0.334,1.975,0.655,1.988,0.995c0,0.328-0.309,0.682-0.309,1.021c0,0.348,0.334,0.689,0.334,1.029
							c0,0.341-0.293,0.681-0.307,1.027c0,0.327-1.44,0.647-1.455,0.988c0,0.342,1.135,0.709,1.121,1.05
							c-0.014,0.34,0.748,0.707,0.748,1.049c-0.027,0.341-0.534,0.641-0.534,0.98c0,0.502-1.628,0.469-1.548,1.104
							c0.013,0.272,0.467,0.588,0.506,0.962c0.04,0.307,0.774,0.556,0.828,0.907c0.026,0.309-0.134,0.662-0.105,1.017
							c0.039,0.32,1.055,0.527,1.095,0.867c0.053,0.322-1.47,0.855-1.442,1.196c0.054,0.319-0.014,0.675,0.026,1.015
							c0.054,0.322,0.773,0.563,0.828,0.89c0.054,0.32-0.668,0.774-0.614,1.115c0.066,0.32,1.895,0.367,1.948,0.701
							c0.054,0.313,0.294,0.614,0.348,0.94c0.054,0.321-1.815,0.997-1.748,1.323c0.053,0.32,1.668,0.367,1.722,0.694
							c0.054,0.319-0.975,0.869-0.906,1.195c0.08,0.32-0.026,0.688,0.054,1.016c0.053,0.32-0.08,0.709,0,1.029
							c0.053,0.319,0.64,0.547,0.72,0.868c0.08,0.313,0.454,0.58,0.534,0.896c0.08,0.32-0.08,0.707,0,1.041
							c0.08,0.321,1.095,0.407,1.174,0.728c0.08,0.322-1.548,1.104-1.454,1.438c0.094,0.322,1.748,0.208,1.828,0.521
							c0.094,0.321-0.494,0.85-0.399,1.169c0.105,0.313,0.454,0.556,0.561,0.876c0.107,0.32,0.454,0.562,0.562,0.874
							c0.106,0.32-1.096,1.109-0.987,1.43c0.105,0.321,1.642,0.114,1.762,0.422c0.134,0.32-0.065,0.741,0.054,1.048
							c0.135,0.309,0.04,0.715,0.174,1.023c0.146,0.313-0.334,0.913-0.199,1.208c0.16,0.313,0.64,0.469,0.787,0.756
							c0.146,0.293-0.269,0.921-0.107,1.222c0.16,0.293,0.334,0.635,0.494,0.922c0.187,0.287,1.842-0.354,2.028-0.08
							c0.188,0.287,0,0.795,0.188,1.063c0.214,0.272,0.628,0.341,0.828,0.589c0.213,0.267-0.054,0.961,0.16,1.201
							c0.239,0.24,0,1.057,0.253,1.275"/>
					</g>
				</g>
				<g>
					<g>
						
							<path fill="none" stroke="#000000" stroke-width="3" stroke-linecap="round" stroke-linejoin="round" stroke-miterlimit="10" d="
							M98.297,163.022c-0.174-0.321-0.308-0.487-0.574-0.669c-0.268-0.188-0.32-1.154-0.668-1.223
							c-0.308-0.06-0.801,0.062-1.16,0.094c-0.32,0.021-0.734,0.021-1.096,0.102c-0.306,0.065-0.413,1.002-0.747,1.115
							c-0.307,0.106-0.414,0.66-0.733,0.802c-0.32,0.127-0.935-0.502-1.254-0.354c-0.295,0.135-0.722,0.055-1.016,0.214
							c-0.294,0.16,0.106,1.577-0.2,1.737c-0.294,0.167-1.135-0.643-1.428-0.469c-0.294,0.168-0.254,0.876-0.534,1.056
							c-0.294,0.188-1.281-0.701-1.548-0.521c-0.294,0.193-0.214,0.936-0.48,1.115c-0.294,0.207-0.908-0.087-1.175,0.095
							c-0.294,0.213-0.428,0.628-0.668,0.809c-0.319,0.228,0.08,1.295-0.159,1.469c-0.508,0.389-0.882,0.436-1.309,0.181
							c-0.427-0.261-0.694-0.602-0.627-1.241c0.04-0.28,0.494-0.567,0.521-0.942c0.025-0.308-0.589-0.688-0.562-1.049
							c0.026-0.32,0.534-0.614,0.562-0.962c0.025-0.327,0.133-0.646,0.158-1.002c0-0.327-0.078-0.661-0.078-1.001
							c0-0.328,0.652-0.676,0.652-1.016c0-0.342,0.026-0.684,0.015-1.021c-0.015-0.349-1.016-0.607-1.041-0.949
							c-0.026-0.341,0.772-0.74,0.732-1.083c-0.04-0.347,0.988-0.866,0.936-1.2c-0.066-0.342-0.427-0.669-0.494-1.004
							c-0.08-0.34-1.628-0.246-1.734-0.566c-0.106-0.327,1.334-1.31,1.175-1.597c-0.146-0.32-1.201-0.207-1.374-0.469
							c-0.2-0.285-0.549-0.399-0.814-0.612c-0.253-0.214-0.641,0-0.961-0.127c-0.307-0.114-0.427-1.564-0.774-1.57"/>
					</g>
					<g>
						
							<path fill="none" stroke="#000000" stroke-width="3" stroke-linecap="round" stroke-linejoin="round" stroke-miterlimit="10" d="
							M84.335,168.426c0-0.501-1.107-0.407-1.001-1.067c0.054-0.273,0.427-0.562,0.507-0.949c0.08-0.293-0.747-0.889-0.653-1.241
							c0.095-0.294,0.707-0.487,0.827-0.829c0.106-0.301,0.467-0.541,0.602-0.881c0.106-0.294,0.188-0.636,0.319-0.969
							c0.134-0.295,1.321-0.127,1.469-0.441c0.134-0.301,0.334-0.548,0.48-0.854c0.16-0.302-0.854-1.189-0.694-1.497
							c0.16-0.287-0.134-0.841,0.054-1.149c0.16-0.287,0.16-0.707,0.319-1.008c0.174-0.28,1.469,0.113,1.655-0.18
							c0.187-0.274,0.479-0.481,0.668-0.763c0.187-0.273,0.16-0.709,0.347-0.995c0.188-0.273,0.774-0.261,0.988-0.534
							c0.187-0.273-0.08-0.875,0.133-1.148c0.2-0.268-0.318-1.096-0.106-1.369c0.214-0.261,1.683,0.48,1.896,0.214
							c0.199-0.261,0.134-0.741,0.359-1.003c0.214-0.254-0.546-1.342-0.319-1.607c0.214-0.248,0.867-0.135,1.095-0.389
							c0.214-0.247,0.895-0.088,1.136-0.342c0.212-0.239-0.441-1.32-0.201-1.568c0.228-0.24,0.867-0.107,1.107-0.354
							c0.239-0.24,0.334-0.627,0.573-0.867c0.24-0.239,0.521-0.441,0.763-0.682c0.239-0.242,0.772-0.188,1.014-0.415
							c0.24-0.227,0.174-0.808,0.427-1.034c0.241-0.228,0.762-0.174,1.015-0.401c0.24-0.228,0.747-0.181,1.002-0.406
							c0.254-0.229,0.922,0.034,1.187-0.194c0.24-0.22,0.16-0.834,0.414-1.062c0.254-0.214,0.414-0.563,0.681-0.775
							c0.254-0.214-0.239-1.342,0.027-1.563c0.267-0.215,0.721-0.181,0.987-0.389c0.267-0.207,0.373-0.628,0.641-0.842
							c0.254-0.207,0.854,0,1.121-0.207c0.268-0.207,0.467-0.514,0.732-0.728c0.269-0.208,0.429-0.563,0.709-0.763
							c0.268-0.207,1.654,1.104,1.936,0.896c0.28-0.2,0.521-0.429,0.788-0.629c0.267-0.188-0.723-2.164-0.454-2.364
							c0.267-0.2,1.388,0.782,1.654,0.589c0.279-0.194,1.002,0.253,1.281,0.061c0.268-0.194-0.641-2.124-0.348-2.318
							c0.268-0.193,0.734-0.12,1.015-0.308c0.28-0.193,1.016,0.273,1.296,0.094c0.279-0.18,0.04-1.162,0.334-1.356
							c0.279-0.179,1.453,1.004,1.748,0.822c0.279-0.187,0.439-0.654,0.721-0.849c0.387-0.293,0.199-0.359,0.692-0.781
							c0.215-0.187,0.229-0.675,0.521-0.935c0.227-0.193,1.067,0.247,1.334,0.007c0.228-0.2,0-0.978,0.267-1.21
							c0.241-0.214,0.774-0.113,1.028-0.341c0.24-0.214,0.12-0.854,0.36-1.082c0.24-0.214,0.813-0.087,1.066-0.326
							c0.24-0.223,0.214-0.742,0.454-0.969c0.24-0.234,0.268-0.676,0.534-0.902c0.228-0.228,0.827-0.094,1.067-0.321
							c0.239-0.227,0.907-0.046,1.147-0.287c0.214-0.227-0.08-1.021,0.146-1.262c0.227-0.228,0.772-0.174,1.001-0.415
							c0.239-0.232,0.468-0.474,0.708-0.728c0.227-0.24-0.349-1.242-0.12-1.483c0.24-0.233,1.388,0.388,1.628,0.141
							c0.214-0.239-0.268-1.142-0.04-1.39c0.227-0.253,0.747-0.22,0.975-0.468c0.214-0.253,0.427-0.514,0.653-0.769
							c0.214-0.246-0.253-1.088-0.039-1.355c0.213-0.247,0.693-0.28,0.907-0.547c0.213-0.261,0.025-0.821,0.24-1.083
							c0.214-0.26,1.787,0.575,1.987,0.295c0.2-0.262,0.309-0.621,0.521-0.889c0.188-0.262-0.24-1.01-0.04-1.282
							c0.201-0.274,1.015-0.106,1.215-0.368c0.187-0.272-0.681-1.289-0.507-1.563c0.198-0.286,0.827-0.246,1.014-0.534
							c0.188-0.286,1.096-0.101,1.281-0.387c0.186-0.287,0-0.81,0.16-1.097c0.174-0.293-0.215-0.889-0.055-1.176
							c0.16-0.294,0.534-0.474,0.694-0.774c0.147-0.307,0-0.729,0.147-1.036c0.134-0.307,0.119-0.66,0.227-0.967
							c0.134-0.32-0.188-0.755-0.093-1.063c0.105-0.32,1.895-0.135,1.975-0.454c0.094-0.334-0.521-0.841-0.467-1.161
							c0.066-0.335-0.094-0.694-0.054-1.028"/>
					</g>
				</g>
				<g>
					
						<path fill="none" stroke="#000000" stroke-width="3" stroke-linecap="round" stroke-linejoin="round" stroke-miterlimit="10" d="
						M103.568,116.284c0.507,0.08,0.399-0.254,1.055-0.146c0.28,0.047,0.814-1.096,1.187-1.029c0.295,0.061,0.508,0.869,0.882,0.922
						c0.294,0.062,0.613,0.207,0.962,0.269c0.318,0.053,0.746-0.32,1.08-0.269c0.319,0.062,0.693-0.133,1.027-0.065
						c0.32,0.061,0.561,0.646,0.907,0.708c0.32,0.06,0.761-0.487,1.095-0.436c0.32,0.062,0.508,1.063,0.827,1.129
						c0.334,0.061,0.467,1.162,0.801,1.224c0.349,0.054,0.828-0.734,1.161-0.676c0.334,0.062,0.814-0.714,1.148-0.646
						c0.334,0.053,0.534,0.773,0.881,0.828c0.333,0.06,0.573,0.561,0.907,0.628c0.334,0.06,0.813-0.708,1.162-0.635
						c0.318,0.065,0.586,0.428,0.92,0.501c0.334,0.065,0.868-0.948,1.202-0.889c0.334,0.066,0.334,1.783,0.652,1.855
						c0.334,0.066,0.896-1.041,1.229-0.968c0.32,0.065,0.561,0.662,0.88,0.715c0.334,0.066,0.774-0.408,1.108-0.355
						c0.334,0.066,0.733-0.261,1.066-0.192c0.334,0.072,0.562,0.661,0.896,0.729c0.319,0.072,0.614,0.32,0.962,0.388
						c0.319,0.073,0.586,0.46,0.934,0.527c0.32,0.066,0.534,0.761,0.854,0.835c0.334,0.067,0.88-0.822,1.201-0.755
						c0.347,0.066,0.641,0.273,0.975,0.354c0.334,0.066,0.76-0.307,1.094-0.227s0.734-0.114,1.056-0.034
						c0.334,0.08,0.601,0.454,0.934,0.534c0.32,0.08,0.454,1.003,0.774,1.083c0.334,0.08,0.935-0.996,1.268-0.922
						c0.334,0.08,0.643,0.261,0.976,0.341c0.321,0.08,0.562,0.562,0.882,0.641c0.333,0.08,0.427,1.09,0.747,1.171
						c0.347,0.079,0.667,0.206,0.975,0.286c0.334,0.095,0.96-0.923,1.269-0.835c0.347,0.094,0.708,0.047,1.041,0.141
						c0.32,0.093,0.134,1.937,0.48,2.038c0.319,0.093,1.2-1.663,1.521-1.558c0.32,0.102,0.534,0.567,0.854,0.654
						c0.347,0.106,0.239,1.523,0.532,1.623c0.348,0.114,1.016-0.822,1.322-0.707c0.333,0.112,0.28,1.222,0.572,1.335
						c0.32,0.127,1.336-1.402,1.604-1.276c0.347,0.147,0.374,0.956,0.64,1.09c0.334,0.174,0.454,0.461,0.694,0.62
						c0.374-0.366-0.267-0.192-0.494-0.813c-0.093-0.268,0.868-1.195,0.654-1.55c-0.173-0.273-0.587-0.567-0.827-0.861
						c-0.229-0.255-0.975-0.073-1.255-0.321c-0.268-0.221-1.068,0.31-1.374,0.088c-0.28-0.188,0.453-2.018,0.145-2.197
						c-0.292-0.167-1.561,1.463-1.895,1.303c-0.32-0.147-0.32-0.936-0.653-1.075c-0.32-0.127-0.014-1.216,0.693-1.249
						c0.28-0.014,0.653,0.12,1.055,0.12c0.294,0,0.642,0.901,0.987,0.914c0.319,0.007,0.614,0.636,0.975,0.662
						c0.32,0.014,0.682-0.547,1.016-0.527c0.318,0.026,0.652-0.128,1.001-0.101c0.319,0.021,0.667-0.182,1.015-0.147
						c0.333,0.021,0.613,0.682,0.947,0.716c0.333,0.033,0.693-0.395,1.027-0.36c0.348,0.034,0.641,0.307,0.975,0.354
						c0.334,0.033,0.601,0.534,0.935,0.567s0.733-0.675,1.08-0.628c0.334,0.047,0.643,0.214,0.977,0.261
						c0.333,0.047,0.813-0.936,1.134-0.876c0.334,0.047,0.641,0.321,0.961,0.375c0.348,0.062,0.428,1.516,0.762,1.576
						c0.333,0.053,0.906-1.316,1.24-1.256c0.321,0.061,0.748-0.294,1.082-0.24c0.333,0.067,0.279,2.018,0.6,2.084
						c0.334,0.073,0.988-1.409,1.322-1.329s0.707-0.027,1.04,0.053c0.334,0.08,0.229,1.871,0.548,1.951
						c0.32,0.08,0.936-0.948,1.254-0.854c0.349,0.093,0.643,0.293,0.963,0.399c0.319,0.101,0.867-0.494,1.187-0.388
						c0.32,0.101,0.174,1.617,0.494,1.723c0.32,0.113,0.654,0.102,0.975,0.229c0.32,0.121,0.787-0.188,1.095-0.047
						c0.308,0.128,0.641,0.215,0.935,0.354c0.308,0.147,0.054,1.377,0.36,1.523c0.293,0.159,1.268-0.97,1.549-0.796
						c0.293,0.174,0.854-0.021,1.12,0.146c0.294,0.193,0.428,0.648,0.682,0.841c0.28,0.208-0.36,1.45-0.121,1.678
						c0.241,0.229,0.977-0.088,1.177,0.16c-0.32-0.407-0.734-0.081-1.056-0.475c-0.321-0.414,0.614-1.155,0.28-1.563
						c-0.321-0.414-0.294-0.422-0.614-0.821c-0.334-0.414-0.268-0.454-0.601-0.868c-0.333-0.408-0.936,0.08-1.27-0.328
						c-0.319-0.413-0.454-0.3-0.801-0.707c-0.319-0.414-0.987-0.221-1.188-0.694c-0.174-0.481,1.242-0.916,1.896-0.81
						c0.28,0.04,0.601,0.229,0.988,0.294c0.307,0.048,0.453,1.223,0.813,1.276c0.32,0.061,0.854-0.981,1.201-0.908
						c0.32,0.054,0.667,0.04,1.027,0.101c0.319,0.055,0.468,1.196,0.813,1.264c0.32,0.06,0.936-1.403,1.281-1.33
						c0.347,0.054,0.439,1.311,0.788,1.362c0.333,0.072,0.467,1.096,0.813,1.169c0.32,0.066,0.854-0.916,1.2-0.85
						c0.32,0.067,0.694-0.1,1.042-0.033c0.334,0.067,0.707-0.08,1.055-0.014c0.334,0.074,0.493,0.869,0.841,0.949
						c0.32,0.066,0.562,0.606,0.881,0.688c0.347,0.066,1.015-1.369,1.335-1.289c0.334,0.08,0.573,0.548,0.906,0.621
						c0.349,0.08,0.668,0.188,1.002,0.268c0.334,0.079,0.468,0.9,0.814,0.975c0.333,0.082,0.786-0.346,1.134-0.266
						c0.334,0.079,0.414,1.135,0.734,1.215c0.334,0.08,0.613,0.308,0.947,0.399c0.334,0.081,1.015-1.208,1.349-1.113
						c0.32,0.087,0.733-0.107,1.067-0.015c0.319,0.094,0.627,0.32,0.961,0.407c0.319,0.094,0.667,0.16,1.001,0.254
						s0.254,1.616,0.587,1.71c0.334,0.094,0.882-0.582,1.216-0.48"/>
				</g>
			</g>
		</g>
	</g>
</g>
<g>
</g>
<g>
</g>
<g>
</g>
<g>
</g>
<g>
</g>
<g>
</g>
<g>
</g>
<g>
</g>
<g>
</g>
<g>
</g>
<g>
</g>
<g>
</g>
<g>
</g>
<g>
</g>
<g>
</g>
</svg>
