<?xml version="1.0" encoding="utf-8"?>
<!-- Generator: Adobe Illustrator 16.0.0, SVG Export Plug-In . SVG Version: 6.00 Build 0)  -->
<!DOCTYPE svg PUBLIC "-//W3C//DTD SVG 1.1//EN" "http://www.w3.org/Graphics/SVG/1.1/DTD/svg11.dtd">
<svg version="1.1" id="圖層_1" xmlns="http://www.w3.org/2000/svg" xmlns:xlink="http://www.w3.org/1999/xlink" x="0px" y="0px"
	 width="96.609px" height="108.37px" viewBox="0 0 96.609 108.37" enable-background="new 0 0 96.609 108.37" xml:space="preserve">
<g>
	<path fill="#D8FF55" d="M47.673,100.804c-0.653,0-1.191-0.434-1.315-1.042c-0.088-0.451,0.026-0.804,0.212-1.086
		c-0.133-0.168-0.248-0.379-0.3-0.653c-0.142-0.678,0.185-1.156,0.512-1.455c-0.389-0.168-0.777-0.478-0.9-1.077
		c-0.088-0.433-0.036-0.732-0.008-0.893c-0.115-0.563,0.105-0.987,0.379-1.286c0-0.01-0.009-0.01-0.009-0.02
		c-0.344-0.167-0.82-0.493-0.953-1.163c-0.044-0.23-0.035-0.433,0.009-0.619c-0.353-0.176-0.635-0.467-0.741-0.97
		c-0.106-0.521,0.035-0.917,0.142-1.147c-0.009-0.169,0-0.327,0.035-0.46c-0.247-0.192-0.468-0.484-0.556-0.917
		c-0.185-0.891,0.441-1.439,0.777-1.686c0.035-0.142,0.088-0.273,0.141-0.389c-0.741-0.027-1.703-0.186-1.915-1.2
		c-0.132-0.663,0.167-1.121,0.521-1.43c-0.441-0.149-0.866-0.459-0.989-1.086c-0.123-0.608,0.114-1.059,0.318-1.332
		c-0.035-0.105-0.071-0.237-0.106-0.449c-0.089-0.45,0.026-0.813,0.212-1.095c-0.08-0.106-0.15-0.222-0.203-0.354
		c-0.15-0.123-0.327-0.3-0.458-0.556c-0.354-0.169-0.847-0.493-0.98-1.173c-0.142-0.689,0.203-1.156,0.583-1.475
		c-0.389-0.169-0.776-0.477-0.901-1.067c-0.202-1.017,0.653-1.58,1.051-1.81c0.036-0.159,0.079-0.282,0.123-0.389
		c-0.026-0.176-0.026-0.3-0.035-0.433c0-0.053,0-0.104-0.018-0.202c-0.027-0.115-0.044-0.168-0.063-0.229c0,0,0-0.01-0.008-0.018
		c-0.318-0.089-0.786-0.283-1.059-0.732c-0.362-0.168-0.874-0.484-1.014-1.183c-0.045-0.229-0.054-0.442-0.027-0.608
		c-0.176-0.124-0.353-0.301-0.485-0.539c-0.133,0.193-0.327,0.371-0.609,0.494l-0.239,0.106l-0.326,0.018
		c-0.318,0-0.583-0.098-0.812-0.247c-0.037,0.423-0.187,0.997-0.768,1.323c-0.142,0.211-0.38,0.494-0.83,0.697
		c-0.274,0.124-0.548,0.177-0.83,0.177h-0.141c-0.212,0.079-0.424,0.123-0.636,0.123c-0.211,0-0.37-0.034-0.494-0.071
		c-0.132,0.036-0.265,0.054-0.406,0.054c-0.318,0-0.583-0.097-0.759-0.186c-0.132,0.027-0.273,0.045-0.415,0.045
		c-0.062,0-0.123,0-0.186-0.009c-0.185,0.079-0.3,0.113-0.406,0.149c-0.062,0.018-0.123,0.044-0.229,0.088
		c-0.141,0.167-0.37,0.416-0.776,0.591c-0.177,0.079-0.354,0.115-0.539,0.134c-0.054,0.282-0.176,0.563-0.415,0.794
		c-0.088,0.388-0.3,0.962-0.953,1.244l-0.239,0.106h-0.309c-0.794,0.008-1.279-0.628-1.694-1.192l0,0
		c-0.212,0.044-0.441,0.08-0.671,0.08c-0.838,0-1.201-0.521-1.324-0.741c-0.009-0.019-0.961-1.89-0.362-2.938
		c0.158-0.274,0.353-0.46,0.564-0.583c-0.035-0.273,0-0.592,0.185-0.927c0.125-0.212,0.495-0.724,1.307-0.724
		c0.026-0.124,0.079-0.248,0.15-0.38c0.071-0.133,0.229-0.353,0.512-0.529c-0.062-0.3-0.045-0.644,0.159-1.006
		c0.124-0.221,0.495-0.724,1.306-0.724c0.194,0,0.379,0.027,0.564,0.07c-0.027-0.272-0.008-0.635,0.221-1.04
		c0.141-0.248,0.221-0.363,0.309-0.478c0.045-0.054,0.079-0.106,0.151-0.221c0.044-0.07,0.079-0.133,0.123-0.194
		c-0.335-0.433-0.67-1.066-0.256-1.791c0.212-0.379,0.45-0.565,0.591-0.671c0.035-0.07,0.053-0.115,0.07-0.15
		c0.053-0.149,0.106-0.29,0.256-0.556c0.07-0.122,0.212-0.326,0.458-0.484c-0.106-0.327-0.106-0.698,0.124-1.095
		c0.026-0.045,0.044-0.079,0.071-0.115c-0.106-0.079-0.186-0.168-0.256-0.256c-0.22,0.335-0.583,0.741-1.147,0.83
		c-0.247,0.22-0.608,0.468-1.139,0.468h-0.114l-0.177-0.027c-0.529-0.096-0.838-0.405-1.032-0.705
		c-0.071,0.008-0.141,0.008-0.211,0.008c-0.105,0-0.22-0.008-0.344-0.035c-0.556-0.105-0.882-0.424-1.06-0.635
		c-0.432-0.169-0.679-0.469-0.82-0.688c-0.123-0.055-0.229-0.114-0.318-0.176c-0.061,0.025-0.132,0.062-0.211,0.079
		c-0.23,0.441-0.653,1.262-1.598,1.262h-0.115l-0.141-0.027c-0.847-0.15-1.103-0.82-1.174-1.535
		c-0.238,0.204-0.538,0.343-0.927,0.343h-0.114l-0.141-0.024c-0.265-0.045-0.477-0.15-0.644-0.283
		c-0.221,0.149-0.486,0.248-0.813,0.248h-0.114l-0.14-0.027c-0.733-0.133-1.06-0.68-1.209-1.032
		c-0.044-0.018-0.08-0.035-0.125-0.044c-0.043-0.018-0.087-0.036-0.185-0.053c-0.441-0.08-0.715-0.266-0.875-0.379
		c-0.034,0-0.061-0.011-0.079-0.011c-0.238,0.398-0.67,0.997-1.474,0.997h-0.115l-0.149-0.024c-0.627-0.116-0.962-0.513-1.13-0.777
		c-0.3-0.15-0.494-0.38-0.627-0.626c-0.265,0.396-0.662,0.767-1.306,0.767h-0.018c-0.185,0.089-0.441,0.187-0.785,0.187
		c-0.106,0-0.22-0.01-0.344-0.036c-0.644-0.115-0.971-0.565-1.138-0.944c-0.142,0.018-0.274,0.035-0.416,0.035
		c-0.538,0-0.874-0.22-1.059-0.406c-0.557-0.564-0.451-1.368-0.362-2.02c0.009-0.08,0.017-0.159,0.026-0.212v-0.08
		c-0.036-0.591-0.071-1.394,0.433-1.932c0.433-0.459,1.024-0.503,1.544-0.538c0.088-0.01,0.168-0.01,0.239-0.018
		c0.141-0.026,0.273-0.035,0.396-0.035h0.062c0.167-0.38,0.485-0.803,1.121-0.936l0.124-0.026h0.203
		c0.441-0.009,0.768,0.168,0.998,0.335c0.053-0.018,0.105-0.035,0.159-0.052c0.185-0.265,0.512-0.619,1.076-0.733l0.123-0.026h0.168
		c0.67,0,1.085,0.423,1.359,0.821c0.176-0.371,0.476-0.706,1.015-0.812c0.142-0.026,0.211-0.053,0.282-0.07
		c0.142-0.044,0.274-0.088,0.556-0.15c0.239-0.044,0.416-0.062,0.557-0.062c0.07,0,0.203,0.008,0.203,0.008h0.123
		c0.124-0.097,0.38-0.256,0.812-0.344l0.124-0.026h0.185c0.088-0.009,0.177,0,0.265,0.018c0.177-0.371,0.477-0.715,1.033-0.821
		l0.124-0.026h0.159c0.97,0,1.394,0.873,1.667,1.447c0,0,0,0.009,0.01,0.009c0.193-0.186,0.477-0.389,0.899-0.468
		c0.079-0.018,0.088-0.018,0.158-0.053c0.036-0.018,0.062-0.026,0.098-0.044c0.106-0.37,0.335-0.961,0.972-1.2
		c0.185-0.221,0.493-0.512,1.032-0.626l0.124-0.027h0.168c0.812,0,1.235,0.591,1.482,0.988c0.08,0.009,0.15,0.018,0.221,0.036
		c0.229-0.115,0.441-0.221,0.794-0.292l0.124-0.026h0.203c0.105-0.009,0.212,0,0.309,0.017c0.185-0.309,0.477-0.59,0.962-0.696
		c0.079-0.053,0.167-0.115,0.291-0.177c0.097-0.327,0.327-0.847,0.864-1.104c-0.212-0.149-0.335-0.326-0.396-0.441
		c-0.309-0.52-0.229-1.015-0.062-1.394c-0.115-0.106-0.229-0.238-0.335-0.406c-0.035-0.062-0.062-0.115-0.089-0.177
		c-0.282,0.08-0.573,0.15-0.855,0.15c-0.556,0-1.024-0.256-1.289-0.697c-0.583-0.988,0.221-1.835,0.608-2.25
		c0.01-0.009,0.027-0.026,0.036-0.036c-0.009-0.071-0.009-0.132-0.009-0.193c-0.194-0.124-0.406-0.309-0.583-0.609
		c-0.07-0.124-0.123-0.238-0.167-0.353h-0.027c-0.855,0-1.253-0.521-1.385-0.741c-0.089-0.142-0.142-0.292-0.176-0.424
		c-0.054,0-0.098,0.009-0.15,0.009c-0.539,0-0.997-0.247-1.252-0.679c-0.566-0.953,0.167-1.792,0.485-2.154
		c-0.009-0.105,0-0.203,0.008-0.291c-0.785-0.265-1.394-0.485-1.659-1.129l-0.212-0.521l0.255-0.557
		c0.265-0.529,1.474-1.623,2.119-1.826l0.185-0.053h0.203c0.759,0,1.113,0.485,1.342,1.121c0.273-0.247,0.608-0.415,1.023-0.415
		h0.247l0.283,0.105c0.574,0.238,0.812,0.697,0.926,1.042c0.133,0.036,0.274,0.079,0.468,0.15c0.477,0.203,0.715,0.547,0.82,0.917
		c0.353-0.45,0.768-0.82,1.386-0.82h0.248l0.282,0.105c0.547,0.23,0.768,0.645,0.848,1.086h0.22l0.309,0.115
		c0.521,0.22,0.75,0.617,0.839,1.032l0,0c0.194,0,0.379,0.036,0.556,0.115c0.176,0.071,0.327,0.168,0.441,0.274
		c0.237-0.159,0.512-0.265,0.847-0.265h0.247l0.291,0.106c0.662,0.274,0.856,0.847,0.909,1.333c0.125,0.026,0.239,0.062,0.362,0.105
		c0.194,0.08,0.353,0.185,0.477,0.309c0.221-0.132,0.477-0.22,0.776-0.22h0.248l0.3,0.106c0.124,0.053,0.229,0.114,0.327,0.185
		c0.018-0.071,0.027-0.132,0.044-0.185c-0.406-0.282-0.988-0.821-0.812-1.677c0.186-0.891,0.97-1.147,1.429-1.245
		c0-0.008,0.009-0.018,0.009-0.026c0.018-0.044,0.035-0.089,0.062-0.186c0.009-0.062,0.026-0.115,0.036-0.167
		c-0.503-0.282-1.307-0.83-1.104-1.809c0.097-0.459,0.292-0.732,0.415-0.882c0.079-0.335,0.229-0.565,0.37-0.732
		c-0.052-0.221-0.087-0.503-0.017-0.865c0.053-0.273,0.097-0.415,0.142-0.547c0.025-0.071,0.044-0.141,0.07-0.282
		c0.088-0.416,0.301-0.688,0.574-0.874c-0.087-0.221-0.115-0.477-0.053-0.777l0.176-0.847c0.088-0.433,0.318-0.724,0.583-0.909
		c-0.062-0.212-0.08-0.459-0.027-0.733c0.088-0.415,0.3-0.706,0.512-0.891c-0.053-0.212-0.071-0.468-0.009-0.76
		c0.168-0.83,0.874-1.103,1.376-1.208c0.009-0.08,0.018-0.168,0.044-0.256l-0.026-0.159c-0.441-0.255-1.28-0.803-1.068-1.827
		c0.124-0.6,0.495-0.918,0.732-1.085c0.141-0.327,0.379-0.539,0.6-0.68c0-0.017,0-0.036-0.008-0.053
		c-0.265-0.265-0.67-0.777-0.521-1.527c0.115-0.556,0.45-0.874,0.724-1.059c-0.362-0.3-0.777-0.803-0.627-1.553
		c0.133-0.644,0.592-0.953,1.016-1.112c-0.009-0.132,0-0.274,0.035-0.433c0.115-0.574,0.485-0.891,0.785-1.077
		c0.045-0.441,0.221-0.776,0.53-1.023c0.018-0.026,0.044-0.062,0.061-0.088c0.239-0.327,0.671-0.927,1.458-0.936
		c0.018,0,1.121,0.009,1.764,0.441l0.478,0.318l0.088,0.609c0.07,0.636-0.29,1.059-0.706,1.483c0.071,0.132,0.132,0.291,0.168,0.485
		l0.026,0.159c0.617,0.044,1.614,0.194,1.835,1.218c0.045,0.211,0.045,0.406,0.026,0.582c0.327,0.186,0.663,0.485,0.768,1.015
		c0.134,0.618-0.097,1.068-0.273,1.324c-0.009,0.327-0.132,0.6-0.29,0.821c0.104,0.159,0.194,0.344,0.246,0.574
		c0.115,0.556-0.052,0.97-0.176,1.218c0.009,0.229-0.036,0.432-0.098,0.6c0.036,0.035,0.071,0.071,0.098,0.115
		c0.485,0.053,1.535,0.194,1.755,1.253c0.186,0.891-0.423,1.438-0.758,1.694c-0.115,0.477-0.468,0.804-0.724,0.998
		c0.009,0.062,0.018,0.132,0.044,0.247c0.071,0.335,0.053,0.591,0.035,0.768c0.054,0.053,0.105,0.115,0.15,0.185h0.01
		c0.502,0.035,1.658,0.124,1.915,1.191c0.122,0.167,0.281,0.423,0.369,0.848c0.134,0.626-0.114,1.085-0.3,1.35
		c0.01,0.238-0.026,0.406-0.045,0.521c0.045,0.22,0.027,0.424-0.017,0.6c0.345,0.177,0.635,0.467,0.741,0.962
		c0.124,0.583-0.096,1.006-0.433,1.315c0.459,0.132,1.015,0.432,1.174,1.156c0.07,0.318,0.07,0.521,0.07,0.697
		c0,0.071,0,0.088,0.019,0.159c0.123,0.194,0.246,0.424,0.326,0.813c0.114,0.538-0.071,0.953-0.31,1.253
		c0.079,0.123,0.142,0.273,0.186,0.441c0.027,0.035,0.053,0.07,0.089,0.115c0.088-0.053,0.193-0.106,0.327-0.168l0.237-0.105
		l0.336-0.018c0.758,0,1.235,0.564,1.579,0.97c0.009,0.018,0.027,0.027,0.035,0.044c0.133,0.009,0.247,0.026,0.354,0.053
		c-0.045-0.529-0.018-1.421,0.865-1.818c0.124-0.106,0.238-0.203,0.389-0.292c0.104-0.335,0.334-0.794,0.907-1.05
		c0.266-0.115,0.397-0.159,0.538-0.203c0.045-0.018,0.099-0.036,0.169-0.062c0.14-0.186,0.37-0.45,0.793-0.636l0.24-0.106
		l0.344-0.018c0.433,0,0.776,0.185,1.041,0.406c0.07-0.424,0.29-0.856,0.829-1.104c0.089-0.036,0.098-0.053,0.169-0.097
		c0.14-0.105,0.299-0.211,0.591-0.344c0.221-0.097,0.45-0.15,0.679-0.15c0.318,0,0.574,0.088,0.749,0.177h0.178
		c0.574-0.009,0.988,0.317,1.288,0.618c0.327-0.724,0.937-0.813,1.218-0.813H70.9l0.203,0.053c0.389,0.115,0.696,0.371,0.864,0.724
		c0.098,0.212,0.133,0.415,0.133,0.6c0.036,0.044,0.08,0.098,0.106,0.159c0.141,0.238,0.325,0.724-0.019,1.341
		c-0.043,0.071-0.079,0.142-0.132,0.203c0.52,0.503,1.023,1.2,0.564,2.03c-0.273,0.503-0.679,0.715-0.943,0.812
		c-0.248,0.317-0.539,0.477-0.742,0.556c-0.344,0.441-0.812,0.564-1.112,0.617c-0.238,0.238-0.511,0.353-0.75,0.415
		c0.203,0.345,0.46,0.971,0.089,1.66c-0.124,0.229-0.274,0.397-0.405,0.521c0.069,0.317,0.079,0.714-0.159,1.147
		c-0.071,0.132-0.15,0.247-0.229,0.335c0.229,0.388,0.396,0.944,0.069,1.554c-0.122,0.229-0.511,0.767-1.376,0.767
		c-0.053,0-0.106,0-0.168-0.008c-0.035,0.097-0.07,0.194-0.132,0.292c-0.106,0.193-0.229,0.335-0.371,0.449
		c0.123,0.292,0.177,0.645,0.053,1.033h0.018c0.229-0.326,0.662-0.847,1.413-0.847h0.115l0.158,0.027
		c0.44,0.079,0.732,0.317,0.926,0.573c0.054-0.018,0.106-0.026,0.168-0.035c0.221-0.238,0.627-0.591,1.245-0.591h0.114l0.141,0.018
		c0.133-0.026,0.283-0.053,0.486-0.053c0.123,0,0.265,0.008,0.432,0.044c0.821,0.159,1.104,0.829,1.219,1.368
		c0.079,0,0.166,0.018,0.265,0.035c0.141,0.027,0.272,0.062,0.379,0.106c0.255-0.265,0.626-0.529,1.165-0.529h0.114l0.158,0.026
		c0.777,0.15,1.068,0.759,1.192,1.289c0.097,0,0.193,0.009,0.3,0.035c0.097,0.018,0.168,0.027,0.221,0.036
		c0.247-0.362,0.67-0.856,1.403-0.856h0.114l0.159,0.026c0.478,0.088,0.777,0.353,0.952,0.671c0.124-0.035,0.257-0.053,0.398-0.053
		h0.114l0.15,0.026c0.255,0.053,0.468,0.15,0.627,0.282c0.22-0.158,0.494-0.265,0.838-0.265h0.114l0.15,0.027
		c0.247,0.043,0.441,0.123,0.601,0.211c0.221-0.132,0.493-0.239,0.838-0.239h0.115l0.193,0.027c0.645,0.123,0.954,0.556,1.104,1.023
		c0.265-0.335,0.635-0.6,1.174-0.6h0.114l0.142,0.026c0.388,0.071,0.653,0.265,0.839,0.494c0.158-0.071,0.344-0.106,0.556-0.106
		h0.114l0.15,0.027c0.759,0.149,1.06,0.741,1.19,1.226l0.266-0.203l0.035,0.926c0.238,0.362,0.246,0.733,0.202,1.024l0.178,0.186
		l-0.248,0.759c0.019,0.212-0.009,0.45-0.123,0.697l-0.266,0.556l-0.07,0.018c-0.104,0.459-0.37,1.218-1.244,1.385l-0.114,0.027
		h-0.177c-0.539,0.009-0.909-0.257-1.157-0.513c-0.184,0.326-0.51,0.715-1.111,0.829c-0.131,0.027-0.247,0.036-0.361,0.036
		c-0.344,0-0.608-0.106-0.785-0.186c-0.098,0.008-0.186,0.018-0.256,0.018c-0.114,0-0.213-0.01-0.31-0.018l-0.114,0.026h-0.222
		c-0.096,0.009-0.193,0-0.272-0.019c-0.168,0.398-0.468,0.732-1.032,0.839l-0.115,0.027h-0.194
		c-0.547,0.008-0.918-0.266-1.138-0.459c-0.38-0.036-0.663-0.203-0.838-0.328c-0.195-0.008-0.362-0.052-0.513-0.113
		c-0.035,0.026-0.062,0.062-0.097,0.089c-0.062,0.44-0.239,1.481-1.271,1.685l-0.114,0.026h-0.195c-0.089,0.009-0.168,0-0.247-0.009
		c-0.187,0.337-0.494,0.662-1.023,0.768l-0.115,0.027h-0.15c-0.503,0-0.856-0.238-1.121-0.529c-0.123,0.062-0.263,0.114-0.424,0.15
		c-0.123,0.026-0.246,0.034-0.352,0.034H73.68c-0.158,0.424-0.468,0.883-1.129,1.015l-0.115,0.026h-0.149
		c-0.671,0-1.077-0.414-1.36-0.873c-0.186,0.335-0.484,0.652-1.005,0.751l-0.115,0.025h-0.159c-0.652,0-1.059-0.396-1.313-0.741
		c-0.037,0.009-0.079,0.026-0.116,0.035c-0.176,0.168-0.468,0.38-0.936,0.477c-0.035,0.005-0.069,0.018-0.105,0.034
		c-0.142,0.071-0.3,0.142-0.538,0.195v0.193c0.159,0.354,0.159,0.681,0.114,0.944c0.229-0.062,0.44-0.097,0.662-0.097
		c0.548,0,0.998,0.256,1.253,0.688c0.274,0.477,0.229,0.918,0.045,1.297c0.141,0.106,0.264,0.248,0.354,0.406
		c0.141,0.239,0.21,0.441,0.246,0.601c0.266,0.113,0.582,0.317,0.812,0.723c0.273,0.478,0.229,0.918,0.08,1.289
		c0.079-0.008,0.168-0.018,0.247-0.018c0.555,0,1.022,0.255,1.279,0.697c0.282,0.493,0.221,0.952,0.019,1.341
		c0.167,0.142,0.273,0.292,0.326,0.389c0.133,0.221,0.185,0.335,0.237,0.45c0.018,0.044,0.044,0.088,0.071,0.142
		c0.221,0.114,0.521,0.316,0.75,0.724c0.238,0.404,0.238,0.785,0.124,1.12c0.237,0.159,0.379,0.362,0.45,0.477l0.299,0.521
		l-0.211,0.635c-0.202,0.513-0.617,0.75-1.068,0.91c0.018,0.193,0,0.414-0.097,0.644c-0.15,0.371-0.468,0.645-0.856,0.769
		c-0.15,0.043-0.301,0.071-0.459,0.071c-0.317,0-0.574-0.098-0.768-0.204c-0.22,0.133-0.512,0.248-0.865,0.248h-0.079
		c-0.221,0.158-0.564,0.352-1.024,0.352c-0.21,0-0.423-0.042-0.616-0.131c-0.46-0.195-0.697-0.539-0.831-0.856
		c-0.22-0.009-0.44-0.054-0.652-0.141c-0.785-0.337-0.927-1.104-0.953-1.511c-0.167-0.15-0.273-0.309-0.344-0.441
		c-0.327,0.381-0.758,0.777-1.403,0.777h-0.256l-0.3-0.115c-0.813-0.353-0.927-1.138-0.953-1.562
		c-0.142-0.133-0.238-0.265-0.309-0.388c-0.186-0.018-0.406-0.062-0.688-0.186c-0.354-0.15-0.574-0.371-0.724-0.556
		c-0.044,0-0.098,0.009-0.143,0.009h-0.079c-0.265,0.255-0.679,0.592-1.278,0.592c-0.203,0-0.397-0.045-0.582-0.125
		c-0.142-0.062-0.266-0.141-0.371-0.22c-0.282,0.379-0.706,0.556-0.979,0.635c-0.08,0.15-0.159,0.256-0.221,0.335
		c-0.089,0.389-0.265,0.636-0.406,0.803c0.785,0.31,1.854,0.796,1.642,1.942c-0.114,0.635-0.521,0.972-0.795,1.138
		c-0.132,0.318-0.334,0.521-0.476,0.653c-0.159,0.433-0.486,0.671-0.83,0.82c0.018,0.098,0.018,0.204,0.018,0.31
		c0.098,0.229,0.212,0.6,0.123,1.094c-0.018,0.088-0.035,0.178-0.062,0.247c0.521,0.301,1.077,0.804,0.927,1.65
		c-0.168,0.937-1.006,1.166-1.615,1.245c0.204,0.282,0.336,0.653,0.257,1.129c-0.036,0.168-0.088,0.318-0.15,0.451
		c0.327,0.3,0.592,0.74,0.478,1.358c-0.124,0.697-0.628,1.016-1.06,1.165c0,0.114-0.009,0.247-0.036,0.379
		c-0.114,0.627-0.538,0.953-0.898,1.13c0.166,0.187,0.334,0.424,0.413,0.724c0.362,0.237,1.06,0.777,0.883,1.711
		c-0.088,0.495-0.37,0.804-0.653,0.998c0.027,0.115,0.035,0.238,0.035,0.371c0.134,0.246,0.283,0.645,0.186,1.173
		c-0.071,0.38-0.247,0.646-0.477,0.821c0.124,0.237,0.177,0.52,0.115,0.856c-0.018,0.097-0.018,0.15-0.018,0.202
		c0,0.169,0,0.361-0.054,0.653c-0.149,0.821-0.819,1.103-1.376,1.218c0.265,0.292,0.441,0.688,0.344,1.209
		c-0.044,0.239-0.132,0.44-0.237,0.601c0.193,0.282,0.335,0.661,0.255,1.139c-0.079,0.45-0.255,0.715-0.354,0.855
		c-0.131,0.617-0.555,0.909-1.022,1.06c0.369,0.309,0.688,0.758,0.564,1.42c-0.114,0.627-0.662,1.068-1.323,1.068
		c-0.389,0-0.776-0.149-1.228-0.318c-0.15,0.062-0.326,0.098-0.537,0.098c-0.213,0-0.381-0.036-0.531-0.088
		C48.459,100.652,48.062,100.803,47.673,100.804L47.673,100.804z"/>
	<path d="M48.6,8.829c0.265,0,0.855,0.089,1.068,0.23c0.211,0.141-1.007,1.059-0.954,1.341c0.089,0.424,0.362,0.371,0.46,0.794
		c0.087,0.424,0.008,0.441,0.096,0.865c0.09,0.424,1.678,0.089,1.765,0.512c0.09,0.424-0.396,0.53-0.308,0.954
		s1.016,0.22,1.103,0.644c0.088,0.423-0.396,0.521-0.308,0.944c0.087,0.423-0.9,0.635-0.813,1.05
		c0.089,0.423,0.707,0.291,0.794,0.714c0.089,0.424-0.308,0.503-0.22,0.927c0.088,0.423-0.423,0.529-0.335,0.953
		c0.087,0.423,0.6,0.318,0.688,0.732c0.088,0.424,1.35,0.15,1.438,0.574c0.089,0.423-0.847,0.618-0.758,1.032
		c0.088,0.424-0.918,0.636-0.83,1.05c0.088,0.424,0.053,0.433,0.142,0.848c0.088,0.423-0.089,0.458,0,0.883
		c0.088,0.423,0.404,0.353,0.494,0.776c0.089,0.424,1.535,0.115,1.633,0.539c0.088,0.423,0.273,0.379,0.361,0.803
		c0.089,0.423-0.441,0.529-0.353,0.953c0.088,0.424-0.098,0.459-0.009,0.883c0.088,0.424-1.14,0.68-1.05,1.103
		c0.087,0.424,1.693,0.08,1.782,0.503c0.088,0.423-1.757,0.812-1.659,1.227c0.088,0.424,1.006,0.229,1.094,0.645
		c0.088,0.424,1.218,0.185,1.307,0.6c0.088,0.415-0.01,0.441,0.088,0.856c0.088,0.424,0.238,0.389,0.326,0.813
		c0.089,0.423-0.891,0.626-0.803,1.05c0.088,0.423,0.617,0.309,0.706,0.733c0.089,0.423,0.3,0.379,0.389,0.794
		c0.088,0.423,0.158,0.406,0.247,0.821c0.088,0.406-1.438,0.741-1.465,1.139c-0.133-0.089-0.221-0.15-0.221-0.15l0.221,0.194v-0.043
		c0.44,0.291,1.385,0.918,1.385,0.918c0.397-0.177-0.097-1.271,0.3-1.457c0.397-0.176,0.08-0.882,0.477-1.068
		c0.397-0.176,0.362-0.247,0.759-0.432c0.027-0.009,0.054-0.018,0.071-0.018c0.371,0,0.899,1.077,1.271,1.077
		c0.026,0,0.053-0.009,0.07-0.017c0.071-0.027,0.133-0.044,0.186-0.044c0.221,0,0.389,0.177,0.618,0.177
		c0.062,0,0.123-0.01,0.186-0.044c0.396-0.177,0.344-0.282,0.74-0.459c0.397-0.177-0.142-1.368,0.247-1.553
		c0.398-0.176,0.344-0.3,0.732-0.477c0.397-0.177,0.168-0.679,0.557-0.856c0.388-0.176,0.415-0.132,0.812-0.309
		c0.397-0.176,0.292-0.415,0.68-0.591c0.026-0.009,0.053-0.018,0.079-0.018c0.354,0,0.813,0.9,1.174,0.9
		c0.026,0,0.054-0.009,0.079-0.018c0.115-0.053,0.203-0.071,0.283-0.071c0.114,0,0.211,0.036,0.325,0.036
		c0.08,0,0.169-0.017,0.284-0.07c0.396-0.177-0.169-1.412,0.229-1.589c0.397-0.176,0.362-0.256,0.75-0.432
		c0.063-0.026,0.114-0.035,0.177-0.035c0.238,0,0.424,0.22,0.67,0.22c0.054,0,0.115-0.009,0.177-0.035
		c0.027-0.01,0.054-0.018,0.079-0.018c0.354,0,0.813,0.891,1.165,0.891c0.027,0,0.054-0.008,0.079-0.017
		c0.398-0.177,0.459-0.027,0.856-0.204c0.301-0.132,0.168-0.847,0.397-0.847c0.008,0,0.027,0,0.035,0.009
		c0.318,0.088-0.186,0.564-0.035,0.821c0.044,0.079,0.114,0.105,0.193,0.105c0.071,0,0.15-0.018,0.195-0.018
		c0.053,0,0.062,0.027,0,0.142c-0.212,0.379-0.795,0.062-0.998,0.449c-0.202,0.389,1.65,1.404,1.439,1.783
		c-0.212,0.379-0.574,0.186-0.786,0.564c-0.212,0.38-0.547,0.194-0.759,0.583c-0.212,0.379-0.759,0.079-0.971,0.459
		c-0.212,0.379-0.769,0.07-0.979,0.458c-0.212,0.379-0.07,0.45-0.283,0.838c-0.211,0.379,0.521,0.776,0.309,1.165
		c-0.21,0.379-0.44,0.255-0.652,0.635c-0.211,0.38,0.291,0.653,0.089,1.033c-0.213,0.379-0.503,0.22-0.716,0.6
		c-0.211,0.379,0.76,0.909,0.547,1.288c-0.052,0.097-0.158,0.124-0.3,0.124c-0.281,0-0.688-0.132-0.97-0.132
		c-0.142,0-0.247,0.036-0.301,0.124c-0.211,0.38,0.106,0.547-0.097,0.927c-0.213,0.379-0.785,0.062-0.997,0.441
		c-0.213,0.379,0.776,0.918,0.564,1.297c-0.212,0.38-1.085,0.194-0.899,0.583c0.185,0.388,0.379,0.759,0.803,0.838
		c0.423,0.08,0.371,0.389,0.794,0.468c0.035,0.009,0.062,0.009,0.089,0.009c0.326,0,0.44-0.371,0.767-0.371
		c0.027,0,0.054,0,0.089,0.009c0.018,0,0.035,0.008,0.053,0.008c0.37,0,0.556-0.821,0.936-0.821c0.018,0,0.036,0,0.053,0.009
		c0.424,0.08,0.266,0.917,0.68,1.006c0.027,0.009,0.054,0.009,0.071,0.009c0.335,0,0.477-0.468,0.812-0.468
		c0.027,0,0.052,0,0.071,0.009c0.017,0,0.043,0.009,0.062,0.009c0.353,0,0.503-0.583,0.855-0.583c0.018,0,0.044,0,0.061,0.009
		c0.081,0.018,0.15,0.018,0.205,0.018c0.186,0,0.281-0.062,0.467-0.062c0.063,0,0.124,0.009,0.203,0.018
		c0.424,0.08,0.158,1.456,0.582,1.536c0.053,0.009,0.097,0.018,0.133,0.018c0.266,0,0.361-0.168,0.626-0.168
		c0.045,0,0.088,0,0.133,0.018c0.425,0.079,0.38,0.3,0.803,0.379c0.018,0,0.035,0.009,0.054,0.009c0.37,0,0.546-0.794,0.917-0.794
		c0.018,0,0.037,0,0.054,0.008c0.424,0.08,0.142,1.545,0.564,1.624c0.035,0.009,0.062,0.009,0.097,0.009
		c0.309,0,0.424-0.317,0.732-0.317c0.027,0,0.063,0,0.097,0.008c0.425,0.08,0.433,0.044,0.849,0.124h0.044
		c0.379,0,0.582-0.927,0.962-0.927h0.043c0.425,0.08,0.124,1.624,0.549,1.703h0.034c0.379,0,0.608-1.067,0.997-1.067h0.035
		c0.424,0.079,0.229,1.085,0.653,1.164h0.035c0.388,0,0.628-1.138,1.016-1.138h0.035c0.424,0.08,0.371,0.354,0.794,0.433
		c0.027,0.008,0.053,0.008,0.079,0.008c0.335,0,0.469-0.441,0.804-0.441c0.026,0,0.053,0,0.079,0.009
		c0.424,0.08,0.098,1.792,0.521,1.871c0.424,0.08,0.433,0.026,0.856,0.105h0.026c0.396,0,0.706-1.535,1.104-1.535h0.025
		c0.425,0.08,0.169,1.421,0.583,1.5h0.035c0.379,0,0.618-1.094,0.997-1.094h0.035c0.424,0.08,0.194,1.28,0.61,1.359
		c0.281,0.053-0.106,0.697,0.043,0.856c0.044,0.044,0.054,0.053,0.054,0.053s-0.089-0.08-0.142-0.08c-0.009,0-0.018,0-0.026,0.008
		c0-0.061-0.018-0.114-0.053-0.114c-0.019,0-0.036,0.009-0.063,0.035c-0.15,0.159,0.415,0.724,0.124,0.776
		c-0.424,0.08-0.212,1.157-0.635,1.236c-0.018,0-0.036,0.008-0.054,0.008c-0.362,0-0.538-0.724-0.909-0.724
		c-0.018,0-0.035,0-0.052,0.009c-0.425,0.079-0.407,0.186-0.821,0.265c-0.424,0.079-0.302,0.706-0.725,0.785
		c-0.044,0.009-0.087,0.009-0.123,0.009c-0.282,0-0.389-0.212-0.661-0.212c-0.035,0-0.08,0-0.124,0.009
		c-0.106,0.018-0.194,0.027-0.265,0.027c-0.134,0-0.213-0.027-0.344-0.027c-0.071,0-0.15,0.009-0.266,0.027h-0.044
		c-0.379,0-0.618-1.051-0.997-1.051h-0.044c-0.424,0.08-0.09,1.809-0.503,1.888c-0.027,0.01-0.054,0.01-0.071,0.01
		c-0.335,0-0.477-0.477-0.812-0.477c-0.027,0-0.045,0-0.07,0.009c-0.036,0.008-0.062,0.008-0.089,0.008
		c-0.318,0-0.44-0.352-0.75-0.352c-0.026,0-0.062,0-0.088,0.008c-0.027,0.009-0.053,0.009-0.079,0.009
		c-0.336,0-0.478-0.476-0.813-0.476c-0.026,0-0.054,0-0.079,0.008c-0.415,0.08-0.301,0.68-0.724,0.759
		c-0.414,0.08-0.177,1.297-0.6,1.377c-0.027,0.008-0.054,0.008-0.079,0.008c-0.337,0-0.469-0.459-0.804-0.459
		c-0.027,0-0.054,0-0.079,0.011c-0.424,0.079-0.213,1.137-0.637,1.216h-0.035c-0.388,0-0.67-1.323-1.058-1.323h-0.036
		c-0.424,0.079-0.266,0.874-0.68,0.961c-0.044,0.009-0.079,0.009-0.115,0.009c-0.29,0-0.396-0.237-0.679-0.237
		c-0.036,0-0.07,0-0.115,0.008c-0.424,0.079-0.203,1.183-0.627,1.263h-0.026c-0.396,0-0.715-1.553-1.111-1.553h-0.026
		c-0.415,0.079-0.424,0.044-0.847,0.132c-0.416,0.079-0.195,1.235-0.609,1.315h-0.044c-0.381,0-0.602-0.979-0.971-0.979h-0.045
		c-0.424,0.079-0.388,0.237-0.813,0.316c-0.414,0.079-0.361,0.354-0.784,0.441c-0.416,0.08-0.397,0.195-0.812,0.274
		c-0.027,0.009-0.045,0.009-0.071,0.009c-0.345,0-0.486-0.529-0.83-0.529c-0.017,0-0.044,0-0.071,0.008
		c-0.413,0.079-0.466,0.547-0.643,0.936c-0.177,0.38,0.494,0.159,0.697,0.521c0.212,0.362-0.035,0.513,0.176,0.874
		c0.212,0.361-0.273,0.644-0.062,1.005c0.212,0.363-0.353,0.689-0.142,1.051c0.027,0.053,0.099,0.07,0.186,0.07
		c0.44,0,1.492-0.521,1.933-0.521c0.089,0,0.158,0.018,0.186,0.07c0.212,0.362-1.518,1.36-1.307,1.722
		c0.044,0.079,0.133,0.105,0.247,0.105c0.327,0,0.874-0.22,1.21-0.22c0.114,0,0.202,0.025,0.247,0.104
		c0.211,0.363,0.069,0.451,0.272,0.813c0.213,0.362,0.574,0.149,0.786,0.513c0.211,0.361-0.794,0.942-0.583,1.305
		c0.212,0.362-0.034,0.504,0.177,0.865c0.035,0.063,0.114,0.089,0.212,0.089c0.397,0,1.2-0.371,1.598-0.371
		c0.097,0,0.176,0.027,0.211,0.087c0.213,0.363-1.446,1.316-1.234,1.678c0.044,0.079,0.141,0.116,0.265,0.116
		c0.3,0,0.749-0.169,1.05-0.169c0.124,0,0.221,0.027,0.266,0.114c0.211,0.362,0.186,0.38,0.388,0.742
		c0.212,0.361,0.459,0.211,0.671,0.574c0.211,0.361-1.14,1.137-0.928,1.499c0.055,0.089,0.15,0.115,0.283,0.115
		c0.273,0,0.67-0.133,0.935-0.133c0.134,0,0.229,0.027,0.282,0.115c0.178,0.309-1.279,0.45-1.41,0.714
		c-0.134,0.266,0.502,0.874,0.185,0.972c-0.035,0.009-0.062,0.019-0.098,0.019c-0.221,0-0.361-0.24-0.635-0.363
		c-0.045-0.017-0.089-0.025-0.133-0.025c-0.3,0-0.564,0.432-0.864,0.432c-0.045,0-0.089-0.009-0.133-0.026
		c-0.044-0.017-0.088-0.026-0.132-0.026c-0.301,0-0.549,0.405-0.838,0.405c-0.045,0-0.089-0.008-0.134-0.025
		c-0.405-0.177-0.105-0.874-0.512-1.041c-0.079-0.037-0.142-0.045-0.203-0.045c-0.203,0-0.352,0.142-0.564,0.142
		c-0.062,0-0.133-0.01-0.202-0.045c-0.398-0.176-0.045-1.006-0.441-1.183c-0.405-0.176-0.256-0.521-0.653-0.696
		c-0.405-0.177-0.336-0.318-0.741-0.494c-0.027-0.009-0.045-0.019-0.071-0.019c-0.379,0-0.899,1.112-1.279,1.112
		c-0.026,0-0.044-0.009-0.07-0.017c-0.406-0.179-0.027-1.042-0.432-1.22c-0.407-0.176-0.239-0.546-0.645-0.724
		c-0.406-0.175-0.468-0.017-0.875-0.192c-0.396-0.178-0.255-0.504-0.661-0.681c-0.088-0.034-0.168-0.053-0.237-0.053
		c-0.169,0-0.292,0.08-0.46,0.08c-0.07,0-0.149-0.019-0.238-0.054c-0.034-0.018-0.062-0.018-0.097-0.018
		c-0.336,0-0.68,0.663-1.024,0.663c-0.035,0-0.061-0.01-0.096-0.019c-0.406-0.177,0.308-1.837-0.089-2.013
		c-0.018-0.008-0.035-0.008-0.062-0.008c-0.389,0-1.042,1.429-1.438,1.429c-0.019,0-0.045,0-0.062-0.009
		c-0.354-0.15,0.043-0.724-0.115-0.724c-0.019,0-0.053,0.01-0.106,0.036c-0.088,0.045-0.203,0.062-0.326,0.062
		c-0.185,0-0.397-0.037-0.564-0.037c-0.186,0-0.327,0.045-0.354,0.213c-0.079,0.424,1.377,0.689,1.306,1.121
		c-0.079,0.423-0.971,0.265-1.05,0.688s-0.309,0.38-0.388,0.804c-0.08,0.423-0.371,0.37-0.45,0.794
		c-0.08,0.423-0.274,0.389-0.354,0.812s2.092,0.821,2.013,1.244s-0.601,0.327-0.68,0.75s-0.45,0.354-0.521,0.776
		c-0.08,0.424-1.491,0.168-1.57,0.591c-0.08,0.424,0.74,0.574,0.661,0.998c-0.079,0.423,0.229,0.477,0.15,0.9
		s-0.557,0.335-0.627,0.759c-0.08,0.423,1.57,0.723,1.491,1.146c-0.08,0.424-1.686,0.134-1.765,0.558
		c-0.08,0.422-0.397,0.36-0.477,0.783c-0.079,0.425,0.944,0.61,0.873,1.033c-0.079,0.424-0.75,0.3-0.829,0.724
		c-0.079,0.425,1.235,0.662,1.155,1.086c-0.079,0.423-1.173,0.221-1.243,0.644c-0.08,0.424,0.238,0.477,0.159,0.9
		c-0.079,0.423-0.91,0.274-0.989,0.688c-0.079,0.425,0.054,0.45-0.017,0.875c-0.08,0.424,0.635,0.556,0.556,0.97
		c-0.08,0.424,0.935,0.609,0.855,1.032c-0.079,0.424-0.891,0.274-0.971,0.698c-0.08,0.423,0.397,0.513,0.317,0.927
		c-0.079,0.424,0.292,0.485,0.212,0.909c-0.079,0.423-2.188,0.034-2.268,0.458c-0.079,0.425,1.977,0.796,1.906,1.219
		c-0.08,0.423,0,0.432-0.07,0.855c-0.079,0.424-1.554,0.149-1.633,0.574c-0.079,0.424-0.688,0.308-0.769,0.732
		c-0.079,0.424,1.447,0.696,1.368,1.12s-0.627,0.318-0.696,0.741c-0.08,0.424,0.794,0.583,0.714,0.997
		c-0.079,0.425-0.265,0.389-0.345,0.804c-0.079,0.424-1.896,0.089-1.967,0.513c-0.079,0.423,0.292,0.484,0.212,0.907
		c-0.08,0.424,1.367,0.689,1.288,1.112c-0.009,0.044-0.045,0.063-0.105,0.063c-0.326,0-1.28-0.485-1.59-0.485
		c-0.035,0-0.062,0.009-0.069,0.019c-0.212,0.149,0.158,0.245-0.106,0.255h-0.008c-0.257,0,0.097-0.089-0.116-0.229
		c-0.017-0.009-0.044-0.018-0.07-0.018c-0.309,0-1.243,0.495-1.562,0.495c-0.062,0-0.098-0.019-0.106-0.063
		c-0.088-0.424,1.112-0.662,1.024-1.086s-1.024-0.229-1.112-0.653c-0.089-0.423,0.9-0.616,0.82-1.041
		c-0.088-0.414,0.123-0.458,0.036-0.882c-0.088-0.415-1.156-0.203-1.245-0.618s0.079-0.45-0.009-0.873
		c-0.088-0.416,0.962-0.627,0.874-1.052c-0.089-0.413-0.591-0.316-0.68-0.731c-0.088-0.414-0.706-0.291-0.785-0.706
		c-0.088-0.415,1.244-0.688,1.155-1.103c-0.088-0.416-1.809-0.07-1.897-0.486c-0.088-0.414,0.256-0.484,0.176-0.9
		c-0.087-0.414,0.327-0.494,0.239-0.917c-0.088-0.415-0.715-0.292-0.795-0.706c-0.088-0.415,0.865-0.608,0.776-1.023
		c-0.088-0.415,0.53-0.539,0.441-0.963c-0.088-0.415,0-0.433-0.079-0.856c-0.088-0.413-2.039-0.017-2.127-0.44
		c-0.088-0.414,1.192-0.68,1.103-1.095c-0.087-0.414,0.151-0.468,0.063-0.882c-0.088-0.415-1.562-0.115-1.641-0.539
		c-0.089-0.414,0.502-0.537,0.423-0.953c-0.088-0.414-0.123-0.404-0.212-0.828c-0.088-0.416,0.961-0.628,0.874-1.041
		c-0.088-0.416-0.865-0.258-0.944-0.681c-0.088-0.415-0.459-0.344-0.548-0.76c-0.088-0.414-0.731-0.282-0.812-0.695
		c-0.088-0.416,1.236-0.69,1.157-1.104c-0.088-0.415-0.036-0.425-0.124-0.849c-0.088-0.413-1.262-0.175-1.35-0.599
		c-0.088-0.415,1.138-0.663,1.058-1.086c-0.087-0.414,0.248-0.484,0.16-0.9c-0.089-0.414-0.008-0.433-0.089-0.847
		c-0.088-0.415-0.15-0.406-0.229-0.821c-0.088-0.414-0.997-0.229-1.085-0.643c-0.088-0.416-0.741-0.283-0.821-0.698
		c-0.088-0.415,0.177-0.468,0.097-0.883c-0.088-0.414-0.688-0.292-0.776-0.706c-0.088-0.415,0.882-0.608,0.794-1.033
		c-0.089-0.413,0.344-0.555-0.036-0.75c-0.088-0.042-0.15-0.062-0.194-0.062c-0.186,0-0.194,0.239-0.512,0.371
		c-0.167,0.071-0.273,0.079-0.379,0.079h-0.132c-0.097,0-0.212,0.01-0.379,0.08c-0.079,0.035-0.15,0.043-0.212,0.043
		c-0.203,0-0.353-0.131-0.556-0.131c-0.062,0-0.133,0.008-0.212,0.043c-0.396,0.177,0.062,1.219-0.344,1.395
		c-0.019,0.009-0.044,0.018-0.062,0.018c-0.379,0-0.971-1.235-1.351-1.235c-0.025,0-0.043,0.009-0.061,0.019
		c-0.397,0.176-0.018,1.032-0.423,1.208c-0.397,0.177,0.008,1.103-0.389,1.28c-0.397,0.176-0.283,0.45-0.68,0.626
		c-0.14,0.063-0.247,0.079-0.335,0.079c-0.08,0-0.141-0.008-0.221-0.008c-0.087,0-0.194,0.017-0.335,0.079
		c-0.079,0.035-0.158,0.053-0.221,0.053c-0.185,0-0.326-0.106-0.512-0.106c-0.071,0-0.141,0.02-0.221,0.054
		c-0.061,0.026-0.115,0.035-0.167,0.035c-0.256,0-0.441-0.247-0.697-0.247c-0.053,0-0.106,0.009-0.168,0.035
		c-0.132,0.054-0.221,0.071-0.309,0.071c-0.097,0-0.176-0.018-0.274-0.018c-0.087,0-0.184,0.018-0.308,0.069
		c-0.397,0.178-0.415,0.141-0.812,0.319c-0.397,0.175-0.308,0.388-0.706,0.554c-0.044,0.02-0.08,0.028-0.124,0.028
		c-0.309,0-0.6-0.495-0.909-0.495c-0.036,0-0.08,0.009-0.124,0.026c-0.397,0.177,0.168,1.465-0.229,1.643
		c-0.397,0.176-0.124,0.793-0.521,0.971c-0.019,0.009-0.036,0.009-0.054,0.009c-0.327,0-0.953-1.174-1.218-1.254
		c-0.035-0.009-0.071-0.017-0.123-0.017c-0.274,0-0.742,0.15-1.033,0.15c-0.115,0-0.203-0.028-0.239-0.089
		c-0.141-0.265-0.556-1.447-0.379-1.757c0.203-0.361,0.795-0.035,0.998-0.397s-0.45-0.741-0.248-1.103
		c0.035-0.071,0.125-0.098,0.239-0.098c0.361,0,1.032,0.284,1.394,0.284c0.114,0,0.194-0.028,0.238-0.1
		c0.203-0.36-0.618-0.828-0.406-1.19c0.062-0.114,0.194-0.141,0.344-0.141c0.176,0,0.396,0.045,0.573,0.045
		c0.15,0,0.273-0.027,0.344-0.143c0.203-0.362-0.794-0.926-0.591-1.288c0.036-0.071,0.124-0.098,0.23-0.098
		c0.361,0,1.023,0.283,1.394,0.283c0.116,0,0.195-0.026,0.23-0.097c0.203-0.362-0.062-0.513,0.142-0.874
		c0.203-0.362-0.115-0.548,0.088-0.91c0.203-0.36,0.248-0.335,0.45-0.696c0.203-0.361,0.485-0.203,0.688-0.565
		c0.204-0.362-1.033-1.058-0.82-1.421c0.203-0.361,0.362-0.273,0.564-0.635c0.203-0.362,0.141-0.397,0.344-0.759
		c0.054-0.088,0.15-0.114,0.283-0.114c0.282,0,0.697,0.141,0.98,0.141c0.132,0,0.229-0.026,0.281-0.114
		c0.204-0.362-1.164-1.131-0.953-1.492c0.203-0.361,0.3-0.309,0.503-0.671c0.053-0.088,0.115-0.114,0.186-0.114
		c0.158,0,0.344,0.142,0.397,0.142c0.026,0,0.026-0.036-0.018-0.124c-0.185-0.379,0.08-0.247-0.344-0.327
		c-0.423-0.079-0.353-0.432-0.776-0.511c-0.415-0.08-0.335-0.548-0.751-0.627c-0.415-0.079-0.423-0.063-0.837-0.134H30.35
		c-0.38,0-0.592,1.017-0.962,1.017h-0.035c0,0-0.053-0.009-0.07-0.009c-0.336,0-0.468,0.459-0.803,0.459
		c-0.027,0-0.045,0-0.071-0.01c-0.415-0.079-0.283-0.812-0.697-0.891c-0.044-0.009-0.088-0.009-0.124-0.009
		c-0.274,0-0.372,0.185-0.645,0.185c-0.035,0-0.079,0-0.123-0.008c-0.416-0.081-0.345-0.477-0.759-0.556s-0.327-0.583-0.741-0.653
		c-0.415-0.079-0.345-0.468-0.759-0.548c-0.026-0.009-0.053-0.009-0.079-0.009c-0.327,0-0.441,0.389-0.768,0.389
		c-0.026,0-0.052,0-0.079-0.009h-0.035c-0.379,0-0.627,1.201-1.006,1.201h-0.035c-0.415-0.08,0.017-2.437-0.397-2.507
		c-0.415-0.081-0.424-0.01-0.847-0.089h-0.027c-0.388,0-0.662,1.385-1.049,1.385h-0.027c-0.414-0.079-0.212-1.191-0.626-1.271
		h-0.036c-0.389,0-0.626,1.219-1.015,1.219h-0.036c-0.414-0.08-0.282-0.831-0.697-0.901c-0.415-0.079-0.396-0.159-0.812-0.229
		c-0.415-0.079-0.379-0.29-0.794-0.361c-0.185-0.035-0.291-0.035-0.389-0.035h-0.071c-0.096,0-0.202,0-0.388-0.036h-0.035
		c-0.38,0-0.591,1.042-0.971,1.042h-0.035c-0.415-0.079-0.326-0.573-0.742-0.652c-0.414-0.08-0.185-1.342-0.6-1.412
		c-0.053-0.009-0.097-0.018-0.141-0.018c-0.256,0-0.353,0.15-0.608,0.15c-0.045,0-0.089,0-0.141-0.018h-0.036
		c-0.389,0-0.645,1.289-1.034,1.289h-0.035c-0.044-0.01-0.079-0.01-0.123-0.01c-0.273,0-0.371,0.194-0.644,0.194
		c-0.035,0-0.08,0-0.124-0.008c-0.415-0.08-0.247-0.989-0.662-1.06c-0.027,0-0.052-0.009-0.08-0.009
		c-0.256,0-0.75,0.141-1.032,0.141c-0.088,0-0.15-0.009-0.186-0.044c-0.186-0.186,0.017-1.094,0.017-1.341s-0.079-1.007,0.105-1.191
		c0.151-0.159,0.839-0.132,1.122-0.194c0.061-0.009,0.114-0.018,0.158-0.018c0.239,0,0.345,0.132,0.583,0.132
		c0.044,0,0.097-0.009,0.159-0.017c0.433-0.088,0.247-0.979,0.68-1.068c0.026-0.009,0.052-0.009,0.079-0.009
		c0.335,0,0.477,0.45,0.812,0.45c0.027,0,0.054,0,0.08-0.009c0.424-0.088,0.406-0.177,0.838-0.265
		c0.424-0.089,0.327-0.565,0.75-0.645h0.045c0.388,0,0.653,1.165,1.042,1.165h0.043c0,0,0.054-0.009,0.081-0.009
		c0.344,0,0.485,0.477,0.82,0.477c0.027,0,0.053,0,0.079-0.009c0.424-0.088,0.133-1.562,0.556-1.65
		c0.424-0.088,0.415-0.132,0.839-0.221c0.132-0.026,0.229-0.035,0.308-0.035c0.089,0,0.168,0.009,0.256,0.009
		c0.079,0,0.177-0.009,0.31-0.036c0.423-0.088,0.388-0.256,0.82-0.335c0.017,0,0.044-0.009,0.062-0.009c0.362,0,0.538,0.68,0.9,0.68
		c0.018,0,0.035,0,0.062-0.009c0.423-0.088,0.158-1.412,0.573-1.5h0.036c0.397,0,0.724,1.5,1.121,1.5h0.036
		c0.088-0.018,0.158-0.026,0.22-0.026c0.177,0,0.273,0.053,0.441,0.053c0.063,0,0.133-0.009,0.221-0.026
		c0.423-0.088,0.353-0.45,0.776-0.539c0.423-0.088,0.406-0.186,0.83-0.265c0.424-0.088,0.238-1.024,0.662-1.103
		c0.423-0.088,0.353-0.459,0.776-0.547c0.017,0,0.026-0.008,0.044-0.008c0.379,0,0.618,1.005,0.997,1.005
		c0.018,0,0.026,0,0.044-0.008c0.088-0.018,0.158-0.027,0.221-0.027c0.168,0,0.264,0.053,0.433,0.053
		c0.062,0,0.133-0.009,0.22-0.026c0.424-0.089,0.397-0.212,0.82-0.292c0.027-0.009,0.054-0.009,0.08-0.009
		c0.336,0,0.477,0.45,0.812,0.45c0.026,0,0.053,0,0.08-0.009c0.423-0.088,0.229-1.059,0.652-1.148
		c0.424-0.088,0.389-0.264,0.812-0.353c0.424-0.088,0.248-0.953,0.671-1.041c0.159-0.035,0.256-0.035,0.344-0.035h0.176
		c0.088,0,0.186-0.009,0.344-0.036h0.035c0.045,0,0.088,0.009,0.141,0.036c-0.087,0.15-0.132,0.282-0.053,0.415
		c0.115,0.185,0.644,0.309,1.121,0.433c0.318,0.273,0.601,0.512,0.742,0.512c0.044,0,0.07-0.019,0.088-0.054
		c0.088-0.203-0.345-0.335-0.83-0.458c-0.379-0.335-0.794-0.724-1.068-0.847c0.168-0.292,0.503-0.6,0.354-0.856
		c-0.221-0.379,0.387-0.741,0.158-1.121c-0.053-0.097-0.167-0.124-0.3-0.124c-0.265,0-0.635,0.124-0.899,0.124
		c-0.133,0-0.248-0.036-0.301-0.124c-0.221-0.379,0.715-0.927,0.486-1.306c-0.221-0.379-0.662-0.115-0.883-0.494
		c-0.221-0.38,0.018-0.521-0.212-0.901c-0.035-0.062-0.124-0.088-0.229-0.088c-0.397,0-1.174,0.361-1.571,0.361
		c-0.106,0-0.185-0.026-0.229-0.088c-0.22-0.379,1.112-1.165,0.892-1.545c-0.221-0.379,0.15-0.6-0.071-0.97
		c-0.221-0.38-0.529-0.194-0.759-0.574c-0.221-0.379-0.009-0.503-0.229-0.882c-0.062-0.106-0.186-0.142-0.335-0.142
		c-0.212,0-0.477,0.071-0.689,0.071c-0.15,0-0.265-0.036-0.335-0.142c-0.221-0.379,0.98-1.085,0.751-1.465
		c-0.036-0.053-0.106-0.08-0.195-0.08c-0.45,0-1.482,0.521-1.941,0.521c-0.097,0-0.167-0.027-0.194-0.08
		c-0.221-0.379,0.927-1.059,0.707-1.438c-0.22-0.379,0.344-0.715,0.124-1.085c-0.186-0.309-2.048-0.671-1.915-0.936
		c0.132-0.265,1.076-1.112,1.385-1.209h0.018c0.265,0,0.521,2.118,0.83,2.25c0.017,0.009,0.034,0.009,0.052,0.009
		c0.397,0,1.085-1.562,1.482-1.562c0.018,0,0.035,0,0.054,0.009c0.406,0.167,0.141,0.785,0.547,0.953
		c0.406,0.167,0.441,0.08,0.838,0.247c0.397,0.167-0.194,1.588,0.212,1.756c0.097,0.044,0.177,0.053,0.256,0.053
		c0.15,0,0.265-0.062,0.415-0.062c0.071,0,0.15,0.018,0.257,0.053c0.017,0.009,0.034,0.009,0.053,0.009
		c0.397,0,1.103-1.624,1.5-1.624c0.017,0,0.035,0,0.052,0.009c0.397,0.167-0.291,1.835,0.106,2.003
		c0.027,0.009,0.054,0.018,0.08,0.018c0.353,0,0.75-0.838,1.112-0.838c0.026,0,0.053,0.009,0.079,0.017
		c0.397,0.168-0.247,1.721,0.15,1.889c0.027,0.009,0.062,0.017,0.088,0.017c0.344,0,0.724-0.776,1.076-0.776
		c0.027,0,0.062,0.009,0.089,0.018c0.396,0.168,0.026,1.077,0.423,1.245c0.018,0.008,0.045,0.018,0.071,0.018
		c0.371,0,0.9-1.156,1.271-1.156c0.026,0,0.044,0,0.07,0.018c0.397,0.168-0.097,1.351,0.301,1.509
		c0.07,0.026,0.132,0.044,0.194,0.044c0.212,0,0.362-0.15,0.574-0.15c0.061,0,0.123,0.009,0.193,0.044
		c0.398,0.168,0.053,1.006,0.45,1.174c0.027,0.009,0.052,0.018,0.07,0.018c0.362,0,0.83-1.007,1.201-1.007
		c0.025,0,0.052,0.009,0.07,0.018c0.397,0.168-0.018,1.165,0.379,1.333c0.018,0.009,0.036,0.009,0.053,0.009
		c0.389,0,1.033-1.457,1.421-1.457c0.017,0,0.035,0,0.053,0.009l-0.715,1.111l0.521,0.053c0.087-0.424,0.662-0.309,0.75-0.732
		c0.088-0.424-0.573-0.565-0.485-0.988s0.15-0.415,0.239-0.839c0.088-0.423-1.086-0.662-0.998-1.085
		c0.088-0.423,1.157-0.203,1.245-0.627c0.088-0.423,0.168-0.406,0.256-0.829c0.088-0.424,0.159-0.406,0.248-0.83
		c0.088-0.423-1.395-0.724-1.306-1.147c0.087-0.423,0.308-0.379,0.396-0.794c0.088-0.415,0.38-0.361,0.468-0.785
		c0.088-0.423-0.186-0.477-0.096-0.9c0.087-0.423,0.131-0.415,0.22-0.829c0.088-0.424,1.747-0.08,1.835-0.503
		s-1.394-0.723-1.314-1.147c0.059-0.283,0.117-0.565,0.176-0.847c0.089-0.424,1.024-0.23,1.112-0.653
		c0.088-0.424-0.645-0.573-0.556-0.997c0.088-0.424,0.608-0.318,0.696-0.742c0.089-0.423-0.282-0.494-0.194-0.917
		c0.089-0.424,1.307-0.168,1.395-0.591c0.089-0.424-0.061-0.45,0.027-0.874c0.087-0.423-0.071-0.45,0.017-0.874
		c0.089-0.423-1.191-0.688-1.112-1.103c0.088-0.423,0.539-0.327,0.626-0.75c0.089-0.423,0.777-0.282,0.865-0.697
		c0.088-0.423-0.212-0.485-0.132-0.899c0.087-0.424-0.636-0.565-0.547-0.989c0.088-0.424,0.626-0.309,0.715-0.732
		c0.088-0.424,0.158-0.406,0.246-0.83c0.089-0.423-0.943-0.636-0.864-1.059c0.088-0.423,1.306-0.168,1.395-0.591
		c0.088-0.423-0.433-0.53-0.345-0.944c0.088-0.424,0.707-0.292,0.794-0.715c0.062-0.282-0.097-0.547,0.106-0.688
		C48.079,9.421,48.335,8.83,48.6,8.829L48.6,8.829 M87.905,51.295c0,0.071-0.008,0.141-0.017,0.141c0,0-0.01-0.017-0.01-0.062
		C87.889,51.33,87.897,51.304,87.905,51.295 M48.6,6.367L48.6,6.367c-1.403,0-2.153,1.015-2.454,1.421
		c-0.273,0.255-0.564,0.635-0.723,1.165c-0.503,0.45-0.741,0.97-0.847,1.412c-0.68,0.459-0.962,1.094-1.078,1.642
		c-0.096,0.493-0.105,1.111,0.221,1.747c-0.15,0.265-0.265,0.557-0.326,0.865c-0.097,0.458-0.106,1.05,0.176,1.677
		c-0.009,0.008-0.009,0.018-0.018,0.026c-0.521,0.441-0.847,0.989-0.98,1.642c-0.123,0.582-0.096,1.332,0.433,2.064
		c-0.45,0.424-0.662,0.936-0.75,1.386c-0.045,0.221-0.062,0.424-0.062,0.609c-0.212,0.309-0.362,0.652-0.441,1.041
		c-0.036,0.16-0.053,0.345-0.062,0.539c-0.282,0.362-0.423,0.759-0.494,1.112l-0.089,0.406l-0.088,0.441
		c-0.036,0.186-0.061,0.38-0.061,0.583c-0.221,0.3-0.38,0.653-0.459,1.059c-0.018,0.08-0.026,0.115-0.044,0.15
		c-0.053,0.168-0.115,0.362-0.176,0.68c-0.062,0.308-0.08,0.582-0.062,0.829c-0.07,0.132-0.14,0.292-0.203,0.459
		c-0.204,0.292-0.397,0.67-0.503,1.191c-0.115,0.565-0.096,1.28,0.389,1.977c-0.441,0.397-0.671,0.865-0.786,1.297
		c-0.291-0.335-0.644-0.547-0.979-0.688c-0.318-0.132-0.662-0.204-1.015-0.204l0,0c-0.282,0-0.529,0.044-0.768,0.106
		c-0.017-0.009-0.036-0.018-0.053-0.018c-0.044-0.017-0.088-0.036-0.133-0.053c-0.273-0.495-0.697-0.856-1.262-1.095
		c-0.026-0.008-0.053-0.026-0.088-0.035c-0.265-0.521-0.697-0.917-1.297-1.165c-0.318-0.132-0.653-0.203-0.997-0.203
		c-0.468,0-0.865,0.115-1.209,0.283c-0.177-0.124-0.354-0.221-0.529-0.292c-0.019-0.009-0.036-0.009-0.045-0.018
		c-0.379-0.653-0.9-0.997-1.341-1.183c-0.318-0.132-0.653-0.203-0.998-0.203l0,0c-0.204,0-0.389,0.018-0.565,0.062
		c-0.406-0.441-0.979-0.759-1.8-0.759h-0.38l-0.379,0.115c-0.988,0.309-2.436,1.642-2.841,2.445
		c-0.327,0.653-0.362,1.412-0.088,2.092c0.247,0.618,0.653,1.006,1.121,1.279c-0.451,1.024-0.212,1.871,0.132,2.453
		c0.362,0.618,0.953,1.042,1.641,1.209c0.379,0.573,0.936,0.97,1.607,1.147c-0.653,1.006-0.707,1.994-0.151,2.939
		c0.469,0.786,1.307,1.271,2.251,1.297c0.017,0.335,0.096,0.635,0.211,0.892c-0.07,0.105-0.132,0.212-0.185,0.335
		c-0.291,0.106-0.582,0.282-0.856,0.538c-0.106,0.009-0.212,0.026-0.309,0.044c-0.114,0.027-0.212,0.044-0.309,0.071
		c-0.432-0.424-1.059-0.83-1.951-0.83c-0.175,0-0.352,0.018-0.529,0.053c-0.732,0.149-1.228,0.512-1.536,0.82
		c-0.379,0.204-0.75,0.521-1.05,1.016c-0.441-0.495-1.086-0.927-2.013-0.927h-0.247l-0.274,0.053
		c-0.468,0.097-0.997,0.318-1.429,0.803c-0.054,0.009-0.106,0.018-0.159,0.026c-0.379,0.08-0.68,0.194-0.918,0.318
		c-0.255,0-0.502,0.026-0.776,0.08c-0.327,0.062-0.521,0.124-0.697,0.185c-0.036,0.009-0.07,0.026-0.141,0.036
		c-0.265,0.053-0.546,0.15-0.83,0.309c-0.353-0.203-0.785-0.335-1.306-0.335h-0.246l-0.283,0.052
		c-0.45,0.088-0.847,0.274-1.191,0.539c-0.238-0.07-0.503-0.115-0.803-0.115c-0.194,0-0.379,0.018-0.574,0.062
		c-0.502,0.105-1.111,0.362-1.588,0.97H8.896c-0.6,0.045-1.597,0.115-2.355,0.918c-0.865,0.918-0.813,2.109-0.777,2.833
		c0,0.026-0.008,0.053-0.008,0.08c-0.098,0.768-0.274,2.057,0.705,3.044c0.265,0.265,0.822,0.698,1.695,0.769
		c0.476,0.563,1.077,0.803,1.571,0.899c0.186,0.035,0.379,0.053,0.565,0.053c0.432,0,0.794-0.097,1.059-0.194
		c0.37-0.035,0.688-0.132,0.961-0.282c0.441,0.486,0.98,0.786,1.615,0.9l0.221,0.045h0.265c0.813,0,1.413-0.337,1.835-0.725
		c0.026,0.009,0.044,0.017,0.071,0.017c0.53,0.795,1.245,1.096,1.809,1.202l0.221,0.043h0.256c0.282,0,0.539-0.034,0.768-0.104
		c0.16,0.052,0.31,0.096,0.459,0.123l0.221,0.043h0.415c0.318,0.558,0.847,1.017,1.721,1.175l0.221,0.045h0.255
		c0.883,0,1.509-0.398,1.941-0.849c0.08,0.054,0.168,0.106,0.257,0.15c0.317,0.326,0.82,0.698,1.579,0.839
		c0.071,0.009,0.133,0.025,0.203,0.025c0.45,0.425,0.962,0.617,1.386,0.688c0.167,0.036,0.344,0.044,0.512,0.044h0.043
		c-0.043,0.063-0.088,0.134-0.124,0.213c-0.327,0.573-0.538,1.385-0.114,2.348c-0.061,0.097-0.132,0.202-0.203,0.334
		c-0.07,0.133-0.132,0.257-0.185,0.38c-0.813,0.132-1.509,0.6-1.906,1.307c-0.168,0.29-0.309,0.661-0.345,1.077
		c-0.088,0.104-0.176,0.21-0.246,0.334c-0.653,0.194-1.192,0.628-1.527,1.227c-0.142,0.257-0.273,0.566-0.327,0.928
		c-0.185,0.185-0.317,0.389-0.423,0.573c-0.926,1.642,0.221,3.873,0.354,4.13c0.467,0.874,1.368,1.394,2.4,1.394h0.141
		c0.485,0.557,1.191,1.121,2.232,1.121c0.362,0,0.715-0.069,1.042-0.22c0.556-0.248,1.235-0.751,1.562-1.774
		c0.079-0.105,0.15-0.22,0.22-0.344c0.035-0.018,0.08-0.035,0.115-0.054c0.441-0.193,0.759-0.433,0.989-0.67
		c0.043-0.018,0.088-0.034,0.141-0.054c0.079,0,0.158-0.009,0.238-0.009c0.257,0.079,0.557,0.149,0.909,0.149
		c0.133,0,0.256-0.008,0.389-0.025c0.15,0.025,0.327,0.044,0.512,0.044c0.282,0,0.556-0.035,0.82-0.115
		c0.441-0.008,0.856-0.097,1.28-0.282c0.6-0.265,0.97-0.626,1.191-0.918c0.256-0.186,0.503-0.432,0.706-0.759h0.019
		c0.194,0,0.397-0.018,0.583-0.062c0.176,0.512,0.547,1.085,1.28,1.509c0.149,0.178,0.326,0.345,0.546,0.495
		c-0.997,0.891-1.067,1.87-0.926,2.595c0.071,0.335,0.203,0.697,0.441,1.041c-0.22,0.538-0.211,1.067-0.124,1.501
		c0.115,0.573,0.441,1.313,1.315,1.853c0.044,0.062,0.088,0.113,0.132,0.167c-0.096,0.424-0.079,0.821-0.009,1.156v0.018
		c-0.318,0.68-0.309,1.298-0.212,1.757c0.08,0.379,0.239,0.786,0.539,1.155c-0.168,0.484-0.149,0.963-0.07,1.351
		c0.167,0.839,0.618,1.358,1.147,1.677c-0.256,0.583-0.248,1.147-0.159,1.597c0.062,0.318,0.194,0.689,0.45,1.051
		c-0.115,0.371-0.186,0.874-0.062,1.475c0.105,0.537,0.344,0.987,0.697,1.332c0.009,0.088,0.027,0.175,0.045,0.264
		c0.079,0.389,0.247,0.849,0.617,1.271c-0.087,0.344-0.096,0.671-0.07,0.963c-0.035,0.299-0.044,0.67,0.044,1.128
		c0.07,0.354,0.212,0.732,0.485,1.096c-0.194,0.527-0.176,1.031-0.097,1.438c0.026,0.15,0.071,0.3,0.133,0.458
		c-0.141,0.467-0.124,0.909-0.044,1.279c0.238,1.201,1.28,2.03,2.515,2.03c0.476,0,0.909-0.124,1.323-0.274
		c0.134,0.019,0.283,0.037,0.434,0.037c0.176,0,0.344-0.019,0.493-0.045c0.407,0.141,0.83,0.256,1.29,0.256
		c1.242,0,2.311-0.873,2.531-2.074c0.071-0.389,0.079-0.847-0.087-1.314c0.211-0.247,0.369-0.548,0.476-0.883
		c0.168-0.281,0.336-0.644,0.423-1.138c0.071-0.397,0.08-0.883-0.104-1.396c0.035-0.114,0.062-0.229,0.088-0.354
		c0.044-0.245,0.062-0.52,0.026-0.803c0.636-0.459,0.9-1.075,0.997-1.623c0.071-0.397,0.079-0.662,0.079-0.874
		c0.044-0.272,0.055-0.53,0.027-0.768c0.149-0.246,0.265-0.547,0.326-0.899c0.097-0.549,0.045-1.007-0.062-1.377
		c0.291-0.388,0.433-0.804,0.503-1.165c0.123-0.688,0.053-1.633-0.839-2.497c0.202-0.292,0.327-0.601,0.397-0.883
		c0.732-0.494,1.024-1.166,1.129-1.739c0.098-0.529,0.071-1.183-0.326-1.825c0.026-0.169,0.044-0.345,0.044-0.53
		c0.724-0.381,1.165-0.997,1.324-1.827c0.167-0.936-0.098-1.738-0.812-2.392c0.009-0.212-0.009-0.396-0.035-0.574
		c0.221-0.201,0.379-0.432,0.494-0.662c0.132-0.141,0.282-0.326,0.414-0.555c0.565-0.46,0.909-1.033,1.042-1.73
		c0.202-1.129-0.256-1.896-0.857-2.427c0.186,0.036,0.372,0.063,0.565,0.063c0.538,0,0.979-0.15,1.342-0.344
		c0.124,0.079,0.256,0.141,0.406,0.21c0.114,0.055,0.229,0.09,0.334,0.125c0.257,1.174,0.989,1.729,1.606,2.003
		c0.336,0.141,0.681,0.211,1.041,0.211c0.327,0,0.628-0.052,0.893-0.149c0.344,0.653,0.864,1.016,1.332,1.219
		c0.123,0.052,0.248,0.097,0.371,0.131c0.336,0.442,0.749,0.707,1.111,0.865c0.354,0.15,0.725,0.229,1.104,0.229
		c0.583,0,1.051-0.177,1.386-0.361c0.22-0.026,0.433-0.07,0.607-0.132c0.222,0.062,0.46,0.097,0.733,0.097
		c0.274,0,0.548-0.045,0.813-0.125c0.741-0.229,1.332-0.757,1.633-1.465c0.043-0.105,0.079-0.202,0.105-0.309
		c0.424-0.265,0.82-0.653,1.059-1.262c0.291-0.732,0.239-1.544-0.159-2.231c-0.062-0.115-0.132-0.212-0.211-0.319
		c0-0.502-0.159-0.935-0.363-1.278c-0.264-0.469-0.591-0.768-0.872-0.971c-0.045-0.089-0.106-0.203-0.193-0.345
		c0-0.009-0.011-0.009-0.011-0.017c0.169-0.84-0.176-1.439-0.334-1.713c-0.301-0.512-0.751-0.9-1.289-1.112
		c-0.062-0.326-0.186-0.617-0.326-0.855c-0.221-0.389-0.513-0.706-0.865-0.944c-0.053-0.124-0.114-0.247-0.193-0.379
		c-0.018-0.028-0.037-0.063-0.054-0.089c0.062-0.46,0-0.953-0.273-1.491h0.097l0.274-0.054c0.237-0.043,0.485-0.123,0.731-0.247
		c0.372,0.239,0.83,0.397,1.395,0.397h0.239l0.265-0.052c0.511-0.099,1.121-0.354,1.579-0.962c0.344,0.185,0.759,0.309,1.263,0.309
		h0.237l0.265-0.055c0.45-0.087,0.972-0.291,1.403-0.749c0.063-0.01,0.124-0.018,0.185-0.026c0.637-0.124,1.387-0.477,1.863-1.412
		c0.034,0.009,0.07,0.019,0.105,0.026c0.379,0.273,0.936,0.546,1.668,0.546c0.186,0,0.361-0.017,0.547-0.052
		c0.609-0.114,1.086-0.389,1.448-0.812c0.088,0.01,0.167,0.01,0.265,0.01h0.044c0.265,0.096,0.6,0.176,0.997,0.176
		c0.194,0,0.397-0.018,0.591-0.063c0.133-0.026,0.265-0.063,0.415-0.113v0.192l0.715-0.52c0.265,0.097,0.574,0.158,0.918,0.158
		c0.177,0,0.353-0.018,0.529-0.053c0.775-0.149,1.756-0.661,2.171-2.171c0.105-0.141,0.203-0.292,0.282-0.459
		c0.167-0.354,0.238-0.688,0.257-0.988l0.512-1.262l-0.45-0.441c-0.026-0.256-0.089-0.529-0.221-0.812l-0.098-2.975l-1.067,0.794
		c-0.415-0.388-0.892-0.573-1.315-0.653l-0.229-0.044h-0.273c-0.07,0-0.141,0-0.212,0.009c-0.317-0.203-0.644-0.318-0.952-0.371
		l-0.229-0.043H85.63c-0.318,0-0.602,0.053-0.856,0.132c-0.327-0.273-0.715-0.45-1.183-0.539c-0.177-0.035-0.353-0.053-0.539-0.053
		c-0.316,0-0.608,0.053-0.864,0.133c-0.105-0.036-0.22-0.062-0.344-0.089L81.614,45.7H81.35c-0.3,0-0.574,0.044-0.821,0.124
		c-0.142-0.053-0.291-0.089-0.424-0.115l-0.229-0.045h-0.142c-0.334-0.299-0.758-0.502-1.261-0.6
		c-0.169-0.035-0.335-0.044-0.503-0.044l0,0c-0.557,0-1.015,0.159-1.377,0.379c-0.441-0.53-1.006-0.768-1.5-0.865
		c-0.169-0.035-0.336-0.044-0.513-0.044c-0.405,0-0.768,0.089-1.068,0.212c-0.468-0.75-1.146-1.059-1.729-1.165
		c-0.229-0.045-0.44-0.062-0.661-0.062s-0.388,0.017-0.529,0.044c-0.07-0.009-0.141-0.009-0.203-0.009
		c-0.371,0-0.697,0.07-0.979,0.176c0-0.009,0.008-0.009,0.008-0.018c0.273-0.494,0.468-1.191,0.229-2.012
		c0.186-0.388,0.282-0.785,0.291-1.201c0.07-0.105,0.142-0.211,0.212-0.335c0.222-0.397,0.396-0.936,0.325-1.588
		c0.487-0.167,0.849-0.415,1.113-0.679c0.221-0.115,0.485-0.292,0.732-0.548c0.406-0.203,0.909-0.564,1.279-1.235
		c0.609-1.112,0.291-2.083-0.203-2.798c0.265-0.882-0.018-1.589-0.212-1.933c-0.035-0.229-0.105-0.476-0.229-0.724
		c-0.318-0.662-0.918-1.165-1.633-1.368l-0.336-0.097h-0.379c-0.123-0.009-0.768,0.009-1.395,0.415
		c-0.31-0.141-0.662-0.23-1.067-0.238c-0.257-0.088-0.583-0.167-0.962-0.167c-0.406,0-0.812,0.088-1.183,0.256
		c-0.362,0.159-0.592,0.309-0.776,0.45c-0.292,0.141-0.6,0.335-0.856,0.618c-0.15-0.026-0.317-0.044-0.485-0.044l0,0
		c-0.379,0-0.75,0.08-1.094,0.239c-0.46,0.211-0.786,0.477-1.007,0.706c-0.133,0.043-0.281,0.105-0.485,0.194
		c-0.635,0.291-1.112,0.75-1.412,1.386l-0.026,0.026c-0.345,0.177-0.696,0.451-0.97,0.856c-0.239-0.124-0.513-0.212-0.813-0.256
		c0-0.203-0.026-0.397-0.062-0.574c-0.079-0.389-0.195-0.68-0.318-0.909c-0.009-0.212-0.026-0.45-0.098-0.759
		c-0.096-0.441-0.3-0.936-0.731-1.359c0.079-0.353,0.079-0.724-0.009-1.121c-0.115-0.53-0.344-0.971-0.688-1.306
		c0.009-0.053,0.018-0.106,0.018-0.168c0.335-0.626,0.433-1.28,0.291-1.968c-0.106-0.494-0.282-0.848-0.45-1.121
		c-0.211-0.644-0.706-1.324-1.773-1.676c0.105-0.159,0.194-0.318,0.265-0.468c1.006-0.945,1.068-1.951,0.91-2.666
		c-0.142-0.67-0.539-1.456-1.59-1.906c0.079-0.353,0.114-0.785,0.009-1.279c-0.018-0.088-0.045-0.186-0.08-0.292
		c0.063-0.159,0.098-0.317,0.125-0.468c0.326-0.626,0.414-1.279,0.273-1.959c-0.098-0.441-0.301-0.953-0.759-1.385
		c-0.01-0.071-0.018-0.142-0.035-0.212c-0.186-0.891-0.697-1.508-1.536-1.862c0.177-0.379,0.282-0.829,0.229-1.359
		c-0.079-0.741-0.477-1.403-1.095-1.818C50.109,6.393,48.751,6.367,48.6,6.367L48.6,6.367L48.6,6.367z M79.937,55.876"/>
</g>
<g>
</g>
<g>
</g>
<g>
</g>
<g>
</g>
<g>
</g>
<g>
</g>
<g>
</g>
<g>
</g>
<g>
</g>
<g>
</g>
<g>
</g>
<g>
</g>
<g>
</g>
<g>
</g>
<g>
</g>
</svg>
