<?xml version="1.0" encoding="utf-8"?>
<!-- Generator: Adobe Illustrator 16.0.0, SVG Export Plug-In . SVG Version: 6.00 Build 0)  -->
<!DOCTYPE svg PUBLIC "-//W3C//DTD SVG 1.1//EN" "http://www.w3.org/Graphics/SVG/1.1/DTD/svg11.dtd">
<svg version="1.1" id="圖層_1" xmlns="http://www.w3.org/2000/svg" xmlns:xlink="http://www.w3.org/1999/xlink" x="0px" y="0px"
	 width="311px" height="202px" viewBox="0 0 311 202" enable-background="new 0 0 311 202" xml:space="preserve">
<rect x="166.642" y="14.077" fill="#FFF3C7" width="28.41" height="28.41"/>
<rect x="196.832" y="14.077" fill="#EFAC00" width="28.41" height="28.41"/>
<rect x="227.026" y="14.077" fill="#ABFBFF" width="28.41" height="28.41"/>
<rect x="257.22" y="14.077" fill="#FFCFAB" width="28.41" height="28.41"/>
<rect x="166.642" y="47.805" fill="#3A9EFF" width="28.41" height="28.41"/>
<rect x="196.832" y="47.805" fill="#A4F4FF" width="28.41" height="28.41"/>
<rect x="227.026" y="47.805" fill="#BEABFF" width="28.41" height="28.41"/>
<rect x="257.22" y="47.805" fill="#F9C2FF" width="28.41" height="28.41"/>
<rect x="166.642" y="81.529" fill="#4E5DFF" width="28.41" height="28.41"/>
<rect x="196.832" y="81.529" fill="#FFEB6F" width="28.41" height="28.41"/>
<rect x="227.026" y="81.529" fill="#FFCF71" width="28.41" height="28.41"/>
<rect x="257.22" y="81.529" fill="#FFEED1" width="28.41" height="28.41"/>
<rect x="166.642" y="115.258" fill="#FFB1A1" width="28.41" height="28.409"/>
<rect x="196.832" y="115.258" fill="#FFEEE5" width="28.41" height="28.409"/>
<rect x="227.026" y="115.258" fill="#D6FFF6" width="28.41" height="28.409"/>
<rect x="257.22" y="115.258" fill="#FF5A63" width="28.41" height="28.409"/>
<rect x="166.642" y="148.982" fill="#BAE7FF" width="28.41" height="28.41"/>
<rect x="196.832" y="148.982" fill="#A1FFE2" width="28.41" height="28.41"/>
<rect x="227.026" y="148.982" fill="#FFD4EA" width="28.41" height="28.41"/>
<rect x="257.22" y="148.982" fill="#FFF332" width="28.41" height="28.41"/>
<g enable-background="new    ">
	<path d="M21.578,27.264l0.991,0.715H27.1v-0.455c0-1.104-0.043-2.009-0.13-2.713c0.53,0.065,0.979,0.163,1.348,0.292
		c0.141,0.022,0.211,0.092,0.211,0.211c0,0.086-0.07,0.173-0.211,0.26c-0.141,0.076-0.282,0.146-0.422,0.211v2.193h4.418l0.52-0.715
		c0.39,0.25,0.671,0.482,0.845,0.699c0.076,0.076,0.114,0.146,0.114,0.211c0,0.108-0.217,0.282-0.65,0.52v2.923
		c0.228,0.163,0.433,0.314,0.617,0.455c0.065,0.043,0.098,0.086,0.098,0.13c0,0.184-0.038,0.276-0.114,0.276h-5.847
		c-0.011,1.104-0.13,1.982-0.357,2.631c-0.152,0.574-0.374,1.083-0.666,1.527c0.151,0.098,0.309,0.189,0.471,0.276
		c0.584,0.346,1.38,0.709,2.388,1.088c0.953,0.368,1.9,0.65,2.842,0.845c0.833,0.206,1.694,0.352,2.583,0.438v0.211
		c-0.65,0-1.04,0.195-1.169,0.584c-1.332-0.292-2.404-0.617-3.216-0.975c-1.169-0.39-2.166-0.834-2.989-1.332
		c-0.433-0.228-0.834-0.466-1.202-0.715c-0.347,0.52-0.812,0.969-1.396,1.348c-0.78,0.52-1.538,0.931-2.274,1.234
		c-0.899,0.335-1.863,0.584-2.892,0.747l-0.178-0.244c1.505-0.368,2.642-0.758,3.411-1.169c0.715-0.368,1.337-0.796,1.868-1.283
		c0.325-0.281,0.623-0.628,0.893-1.04c-0.26-0.195-0.493-0.39-0.698-0.584c-0.726-0.65-1.364-1.37-1.917-2.16l0.406-0.146
		c0.585,0.78,1.143,1.397,1.673,1.852c0.271,0.228,0.536,0.434,0.796,0.617c0.022-0.021,0.033-0.038,0.033-0.048
		c0.271-0.487,0.471-1.078,0.601-1.771c0.119-0.617,0.184-1.261,0.195-1.933h-4.662v0.438c0,0.141-0.114,0.211-0.341,0.211
		c-0.086,0-0.2-0.033-0.341-0.098c-0.119-0.097-0.179-0.216-0.179-0.357c0-0.195,0.016-0.449,0.049-0.763
		c0.065-0.249,0.097-0.774,0.097-1.576v-1.949C21.724,27.963,21.675,27.589,21.578,27.264z M22.438,32.023H27.1V28.45h-4.662V32.023
		z M27.896,28.45v3.573h4.532V28.45H27.896z"/>
	<path d="M49.612,27.605c0.465,0.13,1.093,0.195,1.884,0.195h11.24l0.78-0.91c0.433,0.303,0.839,0.607,1.218,0.91
		c0.097,0.054,0.146,0.114,0.146,0.179c0,0.184-0.087,0.276-0.26,0.276H51.496c-0.769,0.011-1.294,0.032-1.575,0.065L49.612,27.605z
		 M51.155,29.473l0.91,0.585h3.784l0.52-0.715c0.39,0.25,0.671,0.482,0.844,0.699c0.076,0.076,0.114,0.146,0.114,0.211
		c0,0.108-0.217,0.282-0.649,0.52v8.007c0,0.368-0.076,0.644-0.228,0.828c-0.13,0.173-0.319,0.314-0.568,0.422
		c-0.206,0.119-0.396,0.179-0.569,0.179c0-0.26-0.054-0.444-0.162-0.552c-0.13-0.13-0.352-0.249-0.666-0.357
		c-0.347-0.108-0.742-0.179-1.186-0.211v-0.374c0.801,0.173,1.516,0.26,2.144,0.26c0.216,0,0.357-0.032,0.422-0.097
		c0.065-0.055,0.098-0.201,0.098-0.439v-2.972h-3.996c-0.022,0.228-0.043,0.449-0.065,0.666c-0.022,0.477-0.087,0.958-0.195,1.445
		c-0.098,0.39-0.222,0.752-0.374,1.088c-0.13,0.303-0.303,0.595-0.52,0.877c-0.184,0.238-0.433,0.482-0.747,0.731l-0.211-0.13
		c0.195-0.217,0.357-0.449,0.487-0.698c0.13-0.228,0.244-0.466,0.341-0.715c0.119-0.292,0.211-0.623,0.276-0.991
		c0.075-0.433,0.135-0.872,0.178-1.315c0.054-0.596,0.082-1.267,0.082-2.014C51.23,32.364,51.208,30.719,51.155,29.473z
		 M51.983,34.996h3.979v-2.079h-3.963v1.495C51.999,34.628,51.994,34.823,51.983,34.996z M51.999,32.478h3.963v-1.949h-3.963V32.478
		z M53.364,25.25c0.292,0.162,0.552,0.33,0.779,0.503c0.26,0.152,0.466,0.298,0.617,0.438c0.173,0.152,0.287,0.276,0.341,0.374
		c0.065,0.108,0.098,0.217,0.098,0.325c0,0.185-0.027,0.331-0.082,0.438c-0.087,0.13-0.195,0.195-0.325,0.195
		c-0.076,0-0.141-0.022-0.195-0.065c-0.065-0.033-0.114-0.125-0.146-0.276c-0.065-0.206-0.168-0.411-0.309-0.617
		c-0.13-0.184-0.265-0.368-0.406-0.552c-0.152-0.163-0.357-0.352-0.617-0.568L53.364,25.25z M60.121,25.072
		c0.509,0.141,0.975,0.319,1.396,0.536c0.065,0.065,0.098,0.125,0.098,0.179c0,0.087-0.07,0.157-0.211,0.211
		c-0.25,0.065-0.477,0.097-0.682,0.097c-0.108,0.152-0.228,0.287-0.357,0.406c-0.13,0.13-0.271,0.266-0.422,0.406
		c-0.13,0.119-0.276,0.222-0.438,0.309c-0.13,0.097-0.314,0.2-0.552,0.309l-0.26-0.195c0.206-0.162,0.384-0.341,0.536-0.536
		c0.151-0.195,0.303-0.412,0.455-0.65c0.141-0.238,0.26-0.476,0.357-0.715C60.083,25.31,60.109,25.191,60.121,25.072z
		 M59.292,30.123c0.52,0.076,0.953,0.195,1.299,0.357c0.119,0.065,0.179,0.141,0.179,0.227c0,0.098-0.048,0.168-0.146,0.211
		c-0.141,0.108-0.309,0.173-0.503,0.195v5.831c0,0.228-0.152,0.341-0.455,0.341c-0.249,0-0.374-0.13-0.374-0.39
		c0-0.141,0.011-0.319,0.033-0.536c0.021-0.217,0.032-0.412,0.032-0.585v-4.353C59.357,30.849,59.335,30.416,59.292,30.123z
		 M62.735,29.1c0.596,0.076,1.115,0.206,1.56,0.39c0.119,0.054,0.179,0.119,0.179,0.195c0,0.097-0.071,0.173-0.211,0.228
		c-0.217,0.065-0.449,0.113-0.698,0.146v8.722c0,0.368-0.082,0.644-0.244,0.828c-0.152,0.173-0.357,0.314-0.617,0.422
		c-0.238,0.119-0.444,0.179-0.617,0.179l-0.017-0.244c-0.032-0.141-0.092-0.244-0.178-0.309c-0.141-0.13-0.385-0.249-0.731-0.357
		c-0.379-0.108-0.807-0.179-1.283-0.211v-0.374c0.758,0.173,1.451,0.26,2.079,0.26c0.335,0,0.558-0.038,0.666-0.114
		c0.119-0.065,0.179-0.227,0.179-0.487v-7.975C62.8,29.771,62.779,29.338,62.735,29.1z"/>
	<path d="M79.562,25.965l0.991,0.715h2.518l0.52-0.715c0.4,0.25,0.688,0.482,0.861,0.699c0.076,0.076,0.114,0.151,0.114,0.227
		c0,0.098-0.189,0.266-0.568,0.504v7.666c0,0.813,0.011,1.343,0.032,1.592c0.021,0.314,0.033,0.569,0.033,0.764
		c0,0.141-0.06,0.26-0.179,0.357c-0.152,0.054-0.266,0.081-0.341,0.081c-0.227,0-0.341-0.065-0.341-0.195v-0.764h-2.794v0.764
		c0,0.13-0.103,0.195-0.309,0.195c-0.097,0-0.222-0.027-0.374-0.081c-0.108-0.098-0.163-0.217-0.163-0.357
		c0-0.195,0.017-0.449,0.049-0.764c0.054-0.249,0.082-0.779,0.082-1.592v-7.975C79.692,26.664,79.648,26.29,79.562,25.965z
		 M80.406,31.487H83.2v-4.336h-2.794V31.487z M80.406,36.425H83.2v-4.467h-2.794V36.425z M84.564,33.388
		c0.477,0.119,1.104,0.179,1.884,0.179h4.499v-0.828c0-0.628-0.022-1.066-0.065-1.316c0.595,0.076,1.121,0.217,1.576,0.422
		c0.108,0.043,0.162,0.103,0.162,0.179c0,0.097-0.07,0.173-0.211,0.228c-0.228,0.065-0.455,0.119-0.682,0.162v1.153h0.893
		l0.78-0.894c0.411,0.304,0.801,0.601,1.169,0.894c0.086,0.054,0.13,0.119,0.13,0.195c0,0.185-0.081,0.276-0.244,0.276h-2.729v4.938
		c0,0.368-0.092,0.644-0.276,0.829c-0.163,0.184-0.379,0.325-0.649,0.422c-0.239,0.108-0.455,0.163-0.65,0.163l-0.016-0.228
		c-0.033-0.141-0.087-0.244-0.163-0.309c-0.119-0.13-0.347-0.244-0.682-0.341c-0.357-0.119-0.763-0.195-1.218-0.228V38.91
		c0.726,0.163,1.375,0.244,1.949,0.244c0.368,0,0.606-0.033,0.714-0.098c0.141-0.065,0.211-0.227,0.211-0.487v-4.531h-4.499
		c-0.769,0.011-1.283,0.032-1.543,0.065L84.564,33.388z M85.149,27.151c0.477,0.119,1.11,0.178,1.9,0.178h1.819v-0.828
		c0-0.585-0.022-1.023-0.065-1.315c0.617,0.076,1.126,0.195,1.527,0.357c0.141,0.065,0.211,0.146,0.211,0.244
		c0,0.087-0.07,0.152-0.211,0.195c-0.206,0.098-0.433,0.163-0.682,0.195v1.153h2.258l0.779-0.893
		c0.412,0.303,0.801,0.601,1.169,0.893c0.087,0.055,0.13,0.12,0.13,0.195c0,0.184-0.081,0.276-0.244,0.276h-4.093v2.794h1.608
		l0.78-0.91c0.411,0.303,0.801,0.606,1.169,0.91c0.086,0.043,0.13,0.103,0.13,0.179c0,0.184-0.082,0.276-0.244,0.276h-5.084
		c-0.758,0.011-1.278,0.033-1.559,0.065l-0.309-0.715c0.465,0.13,1.088,0.195,1.868,0.195h0.861V27.8h-1.819
		c-0.769,0.011-1.289,0.033-1.559,0.065L85.149,27.151z M86.075,34.931c0.357,0.217,0.682,0.433,0.974,0.65
		c0.314,0.206,0.563,0.406,0.748,0.601c0.216,0.184,0.362,0.352,0.438,0.503c0.076,0.13,0.114,0.26,0.114,0.39
		c0,0.184-0.027,0.325-0.082,0.422c-0.086,0.108-0.195,0.163-0.325,0.163c-0.098,0-0.173-0.027-0.228-0.082
		c-0.076-0.032-0.141-0.151-0.195-0.357c-0.076-0.238-0.201-0.482-0.374-0.731c-0.152-0.228-0.325-0.449-0.52-0.666
		c-0.185-0.217-0.439-0.449-0.764-0.699L86.075,34.931z"/>
	<path d="M113.248,25.007c0.531,0.184,0.991,0.374,1.381,0.568c0.076,0.065,0.114,0.135,0.114,0.211
		c0,0.087-0.108,0.146-0.325,0.179c-0.249,0.043-0.422,0.065-0.52,0.065c-0.39,0.997-0.823,1.965-1.299,2.908
		c-0.12,0.227-0.244,0.444-0.374,0.649c0.455,0.217,0.682,0.374,0.682,0.471c0,0.108-0.168,0.244-0.504,0.406v8.381
		c0,0.346,0.027,0.606,0.082,0.78c0.032,0.141,0.049,0.265,0.049,0.374c0,0.325-0.195,0.498-0.585,0.52
		c-0.228,0-0.341-0.081-0.341-0.244v-9.697c-0.173,0.25-0.341,0.493-0.504,0.731c-0.542,0.682-1.191,1.392-1.949,2.128l-0.26-0.179
		c0.693-0.78,1.278-1.511,1.754-2.193c0.39-0.606,0.774-1.272,1.153-1.998c0.357-0.736,0.666-1.424,0.926-2.063
		C112.945,26.387,113.118,25.721,113.248,25.007z M122.458,29.636l0.65-1.007l1.283,0.812c0.054,0.043,0.081,0.097,0.081,0.162
		c0,0.108-0.06,0.179-0.179,0.211l-5.522,0.78c0.065,0.639,0.135,1.159,0.211,1.559c0.162,1.007,0.384,1.911,0.666,2.712
		c0.271,0.802,0.645,1.5,1.121,2.095c0.476,0.596,0.979,1.126,1.51,1.592c0.379,0.282,0.617,0.422,0.715,0.422
		s0.179-0.049,0.244-0.146c0.13-0.217,0.46-1.234,0.991-3.054l0.244,0.146c-0.39,1.862-0.584,2.896-0.584,3.103
		c0,0.228,0.065,0.4,0.195,0.52c0.184,0.163,0.276,0.314,0.276,0.455c0,0.227-0.157,0.341-0.471,0.341
		c-0.185,0-0.482-0.125-0.894-0.374c-0.466-0.227-0.969-0.623-1.511-1.186c-0.53-0.466-1.001-1.002-1.413-1.608
		c-0.412-0.509-0.774-1.202-1.088-2.079c-0.292-0.78-0.531-1.787-0.715-3.021c-0.076-0.455-0.136-0.915-0.179-1.381l-3.476,0.487
		l-0.844,0.179l-0.455-0.584l1.348-0.146l3.378-0.438c-0.065-0.715-0.097-1.451-0.097-2.209c0-1.267-0.033-2.22-0.098-2.859
		c1.007,0.217,1.511,0.417,1.511,0.601c0,0.108-0.238,0.26-0.715,0.455c0,1.581,0.033,2.891,0.098,3.931L122.458,29.636z
		 M120.378,25.9c0.661,0.271,1.175,0.536,1.543,0.796c0.336,0.217,0.585,0.433,0.748,0.65c0.13,0.152,0.195,0.303,0.195,0.455
		c0,0.347-0.114,0.52-0.341,0.52c-0.097,0-0.184-0.033-0.26-0.098c-0.087-0.033-0.179-0.135-0.276-0.309
		c-0.217-0.39-0.45-0.698-0.699-0.926c-0.271-0.271-0.633-0.542-1.088-0.812L120.378,25.9z"/>
</g>
<g enable-background="new    ">
	<path d="M20.129,60.752c0.477,0.141,1.11,0.211,1.9,0.211h4.759c0.119-0.877,0.179-1.727,0.179-2.551
		c0-0.931-0.043-1.623-0.13-2.078c0.509,0.043,0.991,0.104,1.445,0.178c0.152,0.022,0.228,0.076,0.228,0.163
		c0,0.108-0.076,0.2-0.228,0.276c-0.162,0.076-0.325,0.151-0.487,0.227c-0.043,1.506-0.141,2.768-0.292,3.785h5.36l0.926-1.056
		c0.444,0.347,0.866,0.688,1.267,1.022c0.108,0.065,0.162,0.137,0.162,0.212c0,0.173-0.092,0.26-0.276,0.26h-7
		c0.357,1.169,0.704,2.101,1.04,2.794c0.39,0.813,0.796,1.526,1.218,2.144c0.39,0.563,0.915,1.153,1.576,1.771
		c0.617,0.617,1.24,1.078,1.868,1.381c0.552,0.357,1.115,0.605,1.689,0.747v0.276c-0.726,0-1.159,0.211-1.299,0.633
		c-0.823-0.465-1.494-0.975-2.014-1.526c-0.726-0.606-1.348-1.31-1.868-2.111c-0.617-0.845-1.137-1.755-1.56-2.729
		c-0.433-1.006-0.817-2.133-1.153-3.378h-0.016c-0.184,1.04-0.412,2.009-0.682,2.907c-0.357,0.953-0.774,1.798-1.25,2.534
		c-0.52,0.823-1.159,1.548-1.917,2.177c-0.823,0.779-1.949,1.58-3.379,2.403l-0.178-0.341c1.007-0.596,1.857-1.186,2.55-1.771
		c0.617-0.563,1.191-1.196,1.722-1.9c0.542-0.683,1.012-1.505,1.413-2.469c0.4-0.855,0.709-1.879,0.926-3.069
		c0.043-0.152,0.076-0.309,0.098-0.472h-4.694c-0.769,0.011-1.289,0.038-1.559,0.081L20.129,60.752z"/>
	<path d="M52.695,56.221c0.996,0.205,1.494,0.4,1.494,0.584c0,0.119-0.282,0.201-0.844,0.244c-0.228,0.477-0.515,0.932-0.861,1.363
		h2.355l0.536-0.714c0.39,0.249,0.671,0.481,0.844,0.698c0.076,0.076,0.114,0.146,0.114,0.211c0,0.108-0.217,0.281-0.649,0.52v3.785
		c0.444-0.087,0.877-0.179,1.299-0.276v0.341c-0.433,0.119-0.867,0.228-1.299,0.325v6.562c0,0.357-0.071,0.634-0.211,0.828
		c-0.119,0.174-0.292,0.314-0.52,0.423c-0.185,0.119-0.347,0.179-0.487,0.179c0-0.26-0.054-0.438-0.163-0.536
		c-0.108-0.141-0.298-0.265-0.568-0.374c-0.303-0.107-0.65-0.178-1.04-0.211v-0.373c0.704,0.173,1.337,0.26,1.9,0.26
		c0.151,0,0.249-0.032,0.292-0.098c0.054-0.055,0.081-0.2,0.081-0.438v-6.075c-0.271,0.076-0.547,0.137-0.829,0.18
		c-0.866,0.184-1.624,0.33-2.274,0.438v0.212c0,0.726-0.032,1.413-0.097,2.063c-0.033,0.574-0.108,1.153-0.228,1.738
		c-0.087,0.477-0.206,0.92-0.357,1.331c-0.13,0.369-0.303,0.715-0.52,1.04c-0.173,0.304-0.428,0.606-0.764,0.909l-0.178-0.129
		c0.173-0.26,0.335-0.547,0.487-0.861c0.13-0.26,0.238-0.547,0.325-0.861c0.108-0.346,0.2-0.746,0.276-1.201
		c0.086-0.52,0.146-1.057,0.179-1.608c0.065-0.726,0.098-1.532,0.098-2.42v-0.065c-0.282,0.065-0.52,0.109-0.715,0.131
		c-0.141,0.379-0.254,0.568-0.341,0.568c-0.065,0-0.233-0.428-0.504-1.283c0.26,0,0.764-0.033,1.511-0.098h0.049
		c0-2.35-0.022-4.25-0.065-5.701l0.893,0.584h0.163c0.216-0.335,0.368-0.665,0.455-0.99C52.597,57.098,52.651,56.697,52.695,56.221z
		 M51.866,63.465c0.596-0.055,1.251-0.141,1.965-0.261c0.401-0.043,0.78-0.097,1.137-0.162v-4.158h-3.103V63.465z M52.516,59.842
		c0.477,0.282,0.855,0.563,1.137,0.845c0.238,0.238,0.417,0.472,0.536,0.698c0.087,0.162,0.13,0.32,0.13,0.471
		c0,0.357-0.108,0.537-0.325,0.537c-0.065,0-0.13-0.027-0.195-0.082c-0.054-0.043-0.119-0.156-0.195-0.341
		c-0.163-0.411-0.331-0.741-0.503-0.991c-0.195-0.292-0.455-0.578-0.78-0.86L52.516,59.842z M52.516,64.715
		c0.498,0.314,0.888,0.639,1.169,0.975c0.26,0.249,0.449,0.51,0.568,0.779c0.098,0.174,0.146,0.348,0.146,0.52
		c0,0.348-0.136,0.521-0.406,0.521c-0.065,0-0.13-0.027-0.195-0.081c-0.054-0.055-0.119-0.18-0.195-0.374
		c-0.163-0.454-0.331-0.823-0.503-1.104c-0.195-0.324-0.455-0.645-0.78-0.958L52.516,64.715z M58.152,61.271l0.91,0.584h2.664
		l0.406-0.584c0.368,0.228,0.655,0.444,0.861,0.65c0.065,0.064,0.097,0.129,0.097,0.194c0,0.075-0.038,0.146-0.114,0.211
		c-0.141,0.098-0.298,0.179-0.471,0.243v7.146c0,0.163,0.021,0.293,0.065,0.391c0.032,0.098,0.097,0.168,0.195,0.211
		c0.119,0.033,0.346,0.049,0.682,0.049c0.228,0,0.438-0.021,0.633-0.064c0.076-0.012,0.135-0.07,0.179-0.18
		c0.033-0.075,0.06-0.222,0.082-0.438c0.043-0.293,0.081-0.996,0.113-2.111l0.26,0.064v1.818c0,0.185,0.038,0.33,0.114,0.439
		c0.086,0.141,0.2,0.243,0.341,0.309c0.086,0.043,0.13,0.119,0.13,0.227c0,0.043-0.011,0.104-0.032,0.18
		c-0.043,0.098-0.125,0.178-0.244,0.243c-0.141,0.087-0.347,0.141-0.617,0.163c-0.292,0.043-0.547,0.064-0.764,0.064
		c-0.466,0-0.812-0.021-1.04-0.064c-0.217-0.012-0.384-0.061-0.503-0.146c-0.13-0.055-0.228-0.157-0.292-0.309
		c-0.054-0.152-0.081-0.282-0.081-0.391v-7.845h-2.729v2.583c0,0.693-0.049,1.332-0.146,1.916c-0.032,0.531-0.135,1.072-0.309,1.625
		c-0.152,0.443-0.341,0.854-0.568,1.234c-0.206,0.335-0.471,0.66-0.796,0.975c-0.282,0.27-0.666,0.546-1.153,0.828l-0.195-0.131
		c0.325-0.248,0.612-0.508,0.861-0.779c0.228-0.26,0.428-0.53,0.601-0.813c0.184-0.313,0.335-0.682,0.455-1.104
		c0.151-0.488,0.26-0.98,0.325-1.479c0.098-0.682,0.146-1.439,0.146-2.273C58.228,63.395,58.207,62.182,58.152,61.271z
		 M59.127,56.221c0.314,0.205,0.595,0.422,0.844,0.648c0.271,0.195,0.487,0.391,0.65,0.586c0.184,0.184,0.303,0.346,0.357,0.486
		c0.065,0.141,0.097,0.276,0.097,0.406c0,0.217-0.032,0.391-0.097,0.52c-0.054,0.088-0.103,0.136-0.146,0.146h2.323l0.78-0.91
		c0.412,0.304,0.801,0.607,1.169,0.91c0.086,0.043,0.13,0.104,0.13,0.179c0,0.185-0.081,0.276-0.244,0.276h-6.432
		c-0.769,0.011-1.294,0.032-1.575,0.064l-0.309-0.715c0.465,0.131,1.093,0.195,1.884,0.195h1.9
		c-0.021-0.011-0.038-0.021-0.048-0.032c-0.065-0.032-0.12-0.157-0.163-0.374c-0.054-0.26-0.152-0.52-0.292-0.779
		c-0.141-0.238-0.287-0.471-0.438-0.699c-0.152-0.216-0.368-0.459-0.65-0.73L59.127,56.221z"/>
	<path d="M79.737,60.557c0.715,0.281,1.272,0.563,1.673,0.845c0.357,0.238,0.628,0.472,0.812,0.698
		c0.119,0.162,0.179,0.32,0.179,0.471c0,0.357-0.13,0.537-0.39,0.537c-0.098,0-0.195-0.027-0.292-0.082
		c-0.076-0.043-0.163-0.156-0.26-0.341c-0.239-0.411-0.487-0.741-0.748-0.991c-0.282-0.292-0.666-0.578-1.153-0.86L79.737,60.557z
		 M82.938,64.406l0.13,0.244c-0.325,0.822-0.682,1.684-1.072,2.582c-0.4,0.953-0.823,1.873-1.267,2.762
		c-0.065,0.52-0.136,0.779-0.211,0.779s-0.396-0.396-0.958-1.186c0.574-0.629,1.186-1.462,1.835-2.502
		C82.044,66.058,82.558,65.164,82.938,64.406z M80.923,56.594c0.66,0.281,1.186,0.568,1.575,0.861
		c0.347,0.227,0.601,0.454,0.764,0.682c0.13,0.152,0.195,0.309,0.195,0.471c0,0.348-0.13,0.52-0.39,0.52
		c-0.098,0-0.19-0.021-0.276-0.064c-0.087-0.043-0.179-0.156-0.276-0.342c-0.217-0.41-0.45-0.746-0.699-1.006
		c-0.271-0.281-0.633-0.563-1.088-0.846L80.923,56.594z M85.975,56.221c0.487,0.162,0.91,0.335,1.267,0.52
		c0.065,0.064,0.097,0.129,0.097,0.194c0,0.087-0.086,0.146-0.26,0.179c-0.206,0.043-0.357,0.064-0.455,0.064
		c-0.141,0.401-0.309,0.791-0.504,1.17h6.627l0.764-0.893c0.433,0.303,0.845,0.601,1.234,0.893c0.086,0.055,0.13,0.119,0.13,0.195
		c0,0.184-0.081,0.275-0.244,0.275H85.91c-0.022,0.055-0.049,0.109-0.081,0.163c-0.292,0.552-0.596,1.045-0.91,1.478
		c-0.336,0.434-0.736,0.883-1.202,1.349l-0.26-0.13c0.4-0.52,0.736-1.008,1.007-1.462c0.238-0.39,0.466-0.829,0.683-1.315
		c0.206-0.488,0.384-0.942,0.536-1.365C85.801,57.135,85.899,56.697,85.975,56.221z M85.666,60.427l0.845,0.536h5.701l0.584-0.585
		c0.335,0.173,0.612,0.357,0.829,0.552c0.097,0.088,0.146,0.158,0.146,0.212c0,0.108-0.189,0.309-0.568,0.601
		c-0.033,1.115-0.082,2.106-0.146,2.973h0.211l0.714-0.779c0.368,0.281,0.709,0.547,1.023,0.795c0.086,0.055,0.13,0.114,0.13,0.18
		c0,0.184-0.065,0.275-0.195,0.275h-1.917c-0.043,0.704-0.092,1.326-0.146,1.868c-0.054,0.628-0.113,1.153-0.178,1.575h0.503
		l0.714-0.779c0.379,0.26,0.742,0.525,1.088,0.796c0.086,0.054,0.13,0.108,0.13,0.163c0,0.172-0.065,0.26-0.195,0.26h-2.306
		c-0.055,0.292-0.104,0.524-0.146,0.697c-0.141,0.455-0.287,0.78-0.438,0.975c-0.13,0.174-0.325,0.309-0.585,0.406
		c-0.216,0.162-0.595,0.293-1.137,0.391c-0.054-0.206-0.125-0.363-0.211-0.472c-0.087-0.108-0.233-0.189-0.439-0.243
		c-0.195-0.065-0.601-0.146-1.218-0.244l0.065-0.406c0.953,0.229,1.554,0.342,1.803,0.342c0.216,0,0.406-0.043,0.568-0.131
		c0.184-0.064,0.341-0.189,0.471-0.373c0.163-0.238,0.303-0.553,0.422-0.941h-7.244v-0.017c-0.043,0.011-0.082,0.017-0.114,0.017
		c-0.228,0-0.341-0.044-0.341-0.131c0-0.086,0.033-0.173,0.098-0.26c0.032-0.086,0.119-0.352,0.26-0.795
		c0.228-0.758,0.433-1.646,0.617-2.664v-0.033c-0.617,0.012-1.05,0.033-1.299,0.065l-0.309-0.715
		c0.422,0.108,0.98,0.168,1.673,0.179c0.108-0.682,0.217-1.391,0.325-2.128C85.574,61.764,85.644,61.044,85.666,60.427z
		 M91.887,68.629c0.098-0.498,0.189-1.223,0.276-2.176c0.043-0.434,0.081-0.855,0.114-1.268H85.78
		c-0.184,0.91-0.412,1.852-0.682,2.826c-0.054,0.293-0.103,0.498-0.146,0.617H91.887z M85.861,64.715h6.432
		c0.076-1.115,0.114-2.22,0.114-3.313h-6.091C86.153,62.766,86.001,63.87,85.861,64.715z M87.81,65.705
		c0.574,0.229,1.034,0.461,1.38,0.699c0.292,0.195,0.514,0.39,0.666,0.584c0.098,0.131,0.146,0.26,0.146,0.391
		c0,0.357-0.103,0.535-0.309,0.535c-0.098,0-0.185-0.021-0.26-0.064c-0.065-0.043-0.135-0.146-0.211-0.309
		c-0.206-0.346-0.417-0.633-0.633-0.861c-0.25-0.227-0.574-0.465-0.975-0.715L87.81,65.705z M88.054,61.922
		c0.552,0.238,0.985,0.477,1.299,0.714c0.292,0.194,0.503,0.39,0.633,0.585c0.098,0.13,0.146,0.266,0.146,0.406
		c0,0.336-0.103,0.503-0.309,0.503c-0.087,0-0.168-0.021-0.244-0.065c-0.065-0.031-0.136-0.123-0.211-0.275
		c-0.184-0.357-0.384-0.645-0.601-0.861c-0.217-0.248-0.515-0.492-0.894-0.73L88.054,61.922z"/>
	<path d="M109.509,57.113l0.991,0.715h2.518l0.52-0.715c0.4,0.25,0.688,0.482,0.861,0.699c0.076,0.075,0.114,0.15,0.114,0.227
		c0,0.098-0.189,0.266-0.568,0.504v7.666c0,0.813,0.011,1.343,0.032,1.592c0.021,0.314,0.033,0.568,0.033,0.764
		c0,0.141-0.06,0.26-0.179,0.357c-0.152,0.054-0.266,0.081-0.341,0.081c-0.227,0-0.341-0.065-0.341-0.194v-0.764h-2.794v0.764
		c0,0.129-0.103,0.194-0.309,0.194c-0.097,0-0.222-0.027-0.374-0.081c-0.108-0.098-0.163-0.217-0.163-0.357
		c0-0.195,0.017-0.449,0.049-0.764c0.054-0.249,0.082-0.779,0.082-1.592v-7.975C109.64,57.813,109.596,57.438,109.509,57.113z
		 M110.354,62.636h2.794v-4.337h-2.794V62.636z M110.354,67.574h2.794v-4.467h-2.794V67.574z M114.512,64.536
		c0.477,0.119,1.104,0.179,1.884,0.179h4.499v-0.828c0-0.628-0.022-1.066-0.065-1.316c0.595,0.076,1.121,0.217,1.576,0.423
		c0.108,0.044,0.162,0.103,0.162,0.179c0,0.098-0.07,0.174-0.211,0.228c-0.228,0.065-0.455,0.119-0.682,0.162v1.153h0.893
		l0.78-0.894c0.411,0.304,0.801,0.601,1.169,0.894c0.086,0.055,0.13,0.119,0.13,0.195c0,0.184-0.081,0.275-0.244,0.275h-2.729v4.938
		c0,0.369-0.092,0.645-0.276,0.829c-0.163,0.184-0.379,0.325-0.649,0.422c-0.239,0.108-0.455,0.163-0.65,0.163l-0.016-0.229
		c-0.033-0.141-0.087-0.243-0.163-0.309c-0.119-0.129-0.347-0.243-0.682-0.34c-0.357-0.119-0.763-0.195-1.218-0.229v-0.373
		c0.726,0.162,1.375,0.244,1.949,0.244c0.368,0,0.606-0.033,0.714-0.098c0.141-0.065,0.211-0.228,0.211-0.488v-4.531h-4.499
		c-0.769,0.012-1.283,0.033-1.543,0.065L114.512,64.536z M115.097,58.299c0.477,0.119,1.11,0.179,1.9,0.179h1.819v-0.828
		c0-0.585-0.022-1.023-0.065-1.315c0.617,0.076,1.126,0.195,1.527,0.357c0.141,0.064,0.211,0.146,0.211,0.243
		c0,0.087-0.07,0.151-0.211,0.194c-0.206,0.098-0.433,0.163-0.682,0.195v1.153h2.258l0.779-0.894
		c0.412,0.304,0.801,0.602,1.169,0.894c0.087,0.055,0.13,0.12,0.13,0.195c0,0.185-0.081,0.276-0.244,0.276h-4.093v2.793h1.608
		l0.78-0.909c0.411,0.304,0.801,0.606,1.169,0.909c0.086,0.043,0.13,0.104,0.13,0.18c0,0.184-0.082,0.275-0.244,0.275h-5.084
		c-0.758,0.011-1.278,0.033-1.559,0.064l-0.309-0.715c0.465,0.131,1.088,0.195,1.868,0.195h0.861v-2.793h-1.819
		c-0.769,0.01-1.289,0.032-1.559,0.064L115.097,58.299z M116.023,66.079c0.357,0.217,0.682,0.433,0.974,0.649
		c0.314,0.206,0.563,0.406,0.748,0.602c0.216,0.184,0.362,0.352,0.438,0.504c0.076,0.129,0.114,0.26,0.114,0.389
		c0,0.185-0.027,0.325-0.082,0.423c-0.086,0.108-0.195,0.163-0.325,0.163c-0.098,0-0.173-0.027-0.228-0.082
		c-0.076-0.032-0.141-0.151-0.195-0.357c-0.076-0.238-0.201-0.481-0.374-0.73c-0.152-0.228-0.325-0.449-0.52-0.666
		c-0.185-0.217-0.439-0.449-0.764-0.699L116.023,66.079z"/>
	<path d="M143.195,56.155c0.531,0.185,0.991,0.374,1.381,0.568c0.076,0.065,0.114,0.136,0.114,0.211
		c0,0.087-0.108,0.146-0.325,0.179c-0.249,0.043-0.422,0.064-0.52,0.064c-0.39,0.997-0.823,1.966-1.299,2.908
		c-0.12,0.227-0.244,0.443-0.374,0.649c0.455,0.217,0.682,0.374,0.682,0.472c0,0.107-0.168,0.243-0.504,0.405v8.382
		c0,0.346,0.027,0.605,0.082,0.779c0.032,0.141,0.049,0.266,0.049,0.373c0,0.325-0.195,0.498-0.585,0.52
		c-0.228,0-0.341-0.08-0.341-0.243v-9.696c-0.173,0.249-0.341,0.492-0.504,0.73c-0.542,0.682-1.191,1.392-1.949,2.128l-0.26-0.179
		c0.693-0.779,1.278-1.511,1.754-2.193c0.39-0.605,0.774-1.271,1.153-1.997c0.357-0.736,0.666-1.424,0.926-2.063
		C142.892,57.535,143.065,56.869,143.195,56.155z M152.405,60.784l0.65-1.007l1.283,0.813c0.055,0.043,0.082,0.097,0.082,0.162
		c0,0.107-0.061,0.178-0.18,0.211l-5.522,0.779c0.065,0.639,0.135,1.159,0.211,1.56c0.162,1.007,0.384,1.911,0.666,2.712
		c0.271,0.803,0.645,1.5,1.121,2.096c0.476,0.596,0.979,1.126,1.51,1.592c0.379,0.281,0.617,0.422,0.715,0.422
		c0.098,0,0.178-0.049,0.244-0.146c0.13-0.217,0.46-1.234,0.991-3.054l0.244,0.146c-0.391,1.861-0.586,2.896-0.586,3.102
		c0,0.229,0.064,0.4,0.195,0.52c0.184,0.163,0.275,0.314,0.275,0.455c0,0.228-0.156,0.342-0.471,0.342
		c-0.184,0-0.482-0.125-0.893-0.374c-0.466-0.228-0.969-0.622-1.511-1.186c-0.53-0.466-1.001-1.002-1.413-1.608
		c-0.412-0.508-0.774-1.201-1.088-2.078c-0.292-0.78-0.531-1.787-0.715-3.021c-0.076-0.455-0.136-0.915-0.179-1.381l-3.476,0.487
		l-0.844,0.179l-0.455-0.584l1.348-0.146l3.378-0.439c-0.065-0.715-0.097-1.45-0.097-2.209c0-1.267-0.033-2.219-0.098-2.858
		c1.007,0.217,1.511,0.417,1.511,0.601c0,0.109-0.238,0.26-0.715,0.455c0,1.582,0.033,2.892,0.098,3.932L152.405,60.784z
		 M150.326,57.049c0.661,0.271,1.175,0.535,1.543,0.795c0.336,0.217,0.585,0.434,0.748,0.65c0.13,0.152,0.195,0.303,0.195,0.455
		c0,0.346-0.114,0.52-0.341,0.52c-0.097,0-0.184-0.033-0.26-0.098c-0.087-0.033-0.179-0.135-0.276-0.309
		c-0.217-0.39-0.45-0.698-0.699-0.926c-0.271-0.271-0.633-0.541-1.088-0.813L150.326,57.049z"/>
</g>
<g enable-background="new    ">
	<path d="M22.549,120.717l0.975,0.715h8.186l0.52-0.715c0.379,0.227,0.661,0.455,0.845,0.682c0.086,0.076,0.13,0.146,0.13,0.211
		c0,0.109-0.2,0.287-0.601,0.537v9.68c0,0.801,0.016,1.326,0.048,1.576c0.011,0.313,0.017,0.563,0.017,0.746
		c0,0.162-0.055,0.287-0.163,0.375c-0.141,0.064-0.26,0.096-0.357,0.096c-0.206,0-0.309-0.064-0.309-0.193v-1.057h-8.446v1.057
		c0,0.129-0.114,0.193-0.341,0.193c-0.087,0-0.201-0.031-0.341-0.096c-0.108-0.088-0.162-0.213-0.162-0.375
		c0-0.184,0.011-0.434,0.032-0.746c0.065-0.25,0.098-0.775,0.098-1.576v-10.021C22.679,121.393,22.636,121.031,22.549,120.717z
		 M23.394,127.018h8.446v-5.131h-8.446V127.018z M23.394,132.914h8.446v-5.441h-8.446V132.914z"/>
	<path d="M50.242,124.404c0.693,0.281,1.245,0.563,1.657,0.844c0.368,0.238,0.633,0.471,0.796,0.699
		c0.13,0.162,0.195,0.318,0.195,0.471c0,0.357-0.125,0.535-0.374,0.535c-0.108,0-0.211-0.027-0.309-0.08
		c-0.087-0.043-0.173-0.158-0.26-0.342c-0.238-0.412-0.487-0.742-0.747-0.99c-0.292-0.293-0.683-0.58-1.169-0.861L50.242,124.404z
		 M53.75,128.188l0.13,0.244c-0.368,0.834-0.774,1.705-1.218,2.615c-0.465,0.963-0.947,1.895-1.445,2.793
		c-0.065,0.52-0.13,0.779-0.195,0.779c-0.087,0-0.417-0.395-0.991-1.186c0.639-0.639,1.315-1.482,2.03-2.533
		C52.765,129.861,53.328,128.957,53.75,128.188z M51.396,120.439c0.682,0.283,1.212,0.57,1.592,0.861
		c0.346,0.229,0.606,0.455,0.779,0.682c0.119,0.152,0.179,0.309,0.179,0.473c0,0.346-0.135,0.52-0.406,0.52
		c-0.098,0-0.185-0.021-0.26-0.066c-0.086-0.043-0.173-0.156-0.26-0.34c-0.227-0.412-0.466-0.748-0.714-1.008
		c-0.271-0.281-0.634-0.563-1.088-0.844L51.396,120.439z M58.932,120.115c0.541,0.195,1.007,0.391,1.396,0.584
		c0.065,0.066,0.098,0.131,0.098,0.195c0,0.098-0.103,0.162-0.309,0.195c-0.25,0.055-0.428,0.082-0.536,0.082
		c-0.347,0.715-0.742,1.406-1.186,2.078c-0.433,0.639-0.888,1.207-1.364,1.705c-0.379,0.379-0.823,0.77-1.332,1.17
		c0.78-0.043,1.489-0.092,2.128-0.146c0.823-0.043,1.732-0.119,2.729-0.227c0.877-0.076,1.884-0.18,3.021-0.309
		c-0.119-0.217-0.249-0.412-0.39-0.586c-0.303-0.422-0.726-0.893-1.267-1.412l0.211-0.195c0.487,0.357,0.92,0.727,1.299,1.105
		c0.368,0.357,0.666,0.66,0.893,0.908c0.206,0.238,0.363,0.439,0.471,0.602c0.076,0.174,0.135,0.33,0.179,0.471
		c0.054,0.131,0.081,0.271,0.081,0.422c-0.011,0.293-0.125,0.439-0.341,0.439c-0.076,0-0.146-0.027-0.211-0.082
		c-0.076-0.074-0.238-0.367-0.487-0.877c-0.086-0.184-0.168-0.346-0.244-0.486c-1.04,0.205-1.96,0.363-2.761,0.471
		c-0.931,0.141-1.819,0.266-2.664,0.373c-0.769,0.109-1.586,0.207-2.453,0.293c-0.13,0.391-0.222,0.584-0.276,0.584
		c-0.087,0-0.347-0.432-0.78-1.299c0.097,0,0.2-0.006,0.309-0.016c0.574-0.531,1.056-1.029,1.445-1.494
		c0.336-0.455,0.677-0.959,1.023-1.512c0.335-0.541,0.617-1.055,0.845-1.543C58.667,121.154,58.824,120.656,58.932,120.115z
		 M55.488,128.188l0.991,0.715h6.497l0.52-0.715c0.39,0.229,0.671,0.455,0.845,0.684c0.075,0.086,0.113,0.162,0.113,0.227
		c0,0.098-0.216,0.271-0.649,0.52v3.816c0.163,0.119,0.309,0.232,0.438,0.342c0.065,0.043,0.098,0.086,0.098,0.131
		c0,0.162-0.043,0.242-0.13,0.242h-7.877v0.342c0,0.119-0.103,0.178-0.309,0.178c-0.097,0-0.222-0.027-0.374-0.08
		c-0.108-0.088-0.163-0.211-0.163-0.373c0-0.186,0.017-0.434,0.049-0.748c0.054-0.25,0.082-0.773,0.082-1.576v-2.615
		C55.619,128.854,55.575,128.492,55.488,128.188z M56.333,133.711h6.757v-4.369h-6.757V133.711z"/>
	<path d="M79.737,120.961l0.991,0.713h2.518l0.52-0.713c0.4,0.248,0.688,0.48,0.861,0.697c0.076,0.076,0.114,0.152,0.114,0.229
		c0,0.096-0.189,0.264-0.568,0.502v7.668c0,0.811,0.011,1.342,0.032,1.592c0.021,0.313,0.033,0.568,0.033,0.762
		c0,0.143-0.06,0.26-0.179,0.357c-0.152,0.055-0.266,0.082-0.341,0.082c-0.227,0-0.341-0.064-0.341-0.195v-0.764h-2.794v0.764
		c0,0.131-0.103,0.195-0.309,0.195c-0.097,0-0.222-0.027-0.374-0.082c-0.108-0.098-0.163-0.215-0.163-0.357
		c0-0.193,0.017-0.449,0.049-0.762c0.054-0.25,0.082-0.781,0.082-1.592v-7.977C79.868,121.658,79.824,121.285,79.737,120.961z
		 M80.582,126.482h2.794v-4.336h-2.794V126.482z M80.582,131.42h2.794v-4.467h-2.794V131.42z M84.74,128.383
		c0.477,0.119,1.104,0.18,1.884,0.18h4.499v-0.83c0-0.627-0.022-1.066-0.065-1.314c0.595,0.076,1.121,0.217,1.576,0.422
		c0.108,0.043,0.162,0.104,0.162,0.178c0,0.098-0.07,0.174-0.211,0.229c-0.228,0.064-0.455,0.119-0.682,0.162v1.154h0.893
		l0.78-0.895c0.411,0.303,0.801,0.602,1.169,0.895c0.086,0.053,0.13,0.119,0.13,0.193c0,0.186-0.081,0.277-0.244,0.277h-2.729v4.938
		c0,0.367-0.092,0.645-0.276,0.828c-0.163,0.184-0.379,0.324-0.649,0.422c-0.239,0.107-0.455,0.162-0.65,0.162l-0.016-0.227
		c-0.033-0.141-0.087-0.244-0.163-0.309c-0.119-0.131-0.347-0.244-0.682-0.342c-0.357-0.119-0.763-0.195-1.218-0.227v-0.373
		c0.726,0.162,1.375,0.242,1.949,0.242c0.368,0,0.606-0.031,0.714-0.098c0.141-0.064,0.211-0.227,0.211-0.486v-4.531h-4.499
		c-0.769,0.01-1.283,0.031-1.543,0.064L84.74,128.383z M85.325,122.146c0.477,0.119,1.11,0.178,1.9,0.178h1.819v-0.828
		c0-0.584-0.022-1.023-0.065-1.316c0.617,0.076,1.126,0.195,1.527,0.357c0.141,0.066,0.211,0.146,0.211,0.244
		c0,0.088-0.07,0.152-0.211,0.195c-0.206,0.098-0.433,0.162-0.682,0.195v1.152h2.258l0.779-0.893c0.412,0.303,0.801,0.6,1.169,0.893
		c0.087,0.055,0.13,0.119,0.13,0.195c0,0.184-0.081,0.275-0.244,0.275h-4.093v2.795h1.608l0.78-0.91
		c0.411,0.303,0.801,0.607,1.169,0.91c0.086,0.043,0.13,0.102,0.13,0.178c0,0.184-0.082,0.277-0.244,0.277h-5.084
		c-0.758,0.01-1.278,0.031-1.559,0.064l-0.309-0.715c0.465,0.129,1.088,0.195,1.868,0.195h0.861v-2.795h-1.819
		c-0.769,0.012-1.289,0.033-1.559,0.066L85.325,122.146z M86.251,129.926c0.357,0.217,0.682,0.434,0.974,0.65
		c0.314,0.205,0.563,0.406,0.748,0.6c0.216,0.186,0.362,0.354,0.438,0.504c0.076,0.131,0.114,0.26,0.114,0.391
		c0,0.184-0.027,0.324-0.082,0.422c-0.086,0.107-0.195,0.162-0.325,0.162c-0.098,0-0.173-0.027-0.228-0.08
		c-0.076-0.033-0.141-0.152-0.195-0.357c-0.076-0.238-0.201-0.482-0.374-0.732c-0.152-0.227-0.325-0.449-0.52-0.666
		c-0.185-0.215-0.439-0.449-0.764-0.697L86.251,129.926z"/>
	<path d="M113.424,120.002c0.531,0.184,0.991,0.373,1.381,0.568c0.076,0.064,0.114,0.135,0.114,0.211
		c0,0.088-0.108,0.146-0.325,0.18c-0.249,0.043-0.422,0.064-0.52,0.064c-0.39,0.996-0.823,1.965-1.299,2.906
		c-0.12,0.229-0.244,0.445-0.374,0.65c0.455,0.217,0.682,0.373,0.682,0.471c0,0.109-0.168,0.244-0.504,0.406v8.381
		c0,0.348,0.027,0.607,0.082,0.779c0.032,0.141,0.049,0.266,0.049,0.375c0,0.324-0.195,0.498-0.585,0.52
		c-0.228,0-0.341-0.082-0.341-0.244v-9.697c-0.173,0.25-0.341,0.494-0.504,0.732c-0.542,0.682-1.191,1.391-1.949,2.127l-0.26-0.18
		c0.693-0.779,1.278-1.51,1.754-2.191c0.39-0.607,0.774-1.273,1.153-1.998c0.357-0.736,0.666-1.424,0.926-2.063
		C113.121,121.383,113.294,120.717,113.424,120.002z M122.633,124.631l0.65-1.008l1.283,0.813c0.054,0.043,0.081,0.098,0.081,0.162
		c0,0.109-0.06,0.18-0.179,0.211l-5.522,0.781c0.065,0.639,0.135,1.158,0.211,1.559c0.162,1.008,0.384,1.912,0.666,2.713
		c0.271,0.801,0.645,1.5,1.121,2.096c0.476,0.596,0.979,1.125,1.51,1.592c0.379,0.281,0.617,0.422,0.715,0.422
		s0.179-0.049,0.244-0.146c0.13-0.217,0.46-1.234,0.991-3.055l0.244,0.146c-0.39,1.863-0.584,2.896-0.584,3.104
		c0,0.227,0.065,0.4,0.195,0.52c0.184,0.162,0.276,0.314,0.276,0.455c0,0.227-0.157,0.34-0.471,0.34
		c-0.185,0-0.482-0.123-0.894-0.373c-0.466-0.227-0.969-0.623-1.511-1.186c-0.53-0.465-1.001-1.002-1.413-1.607
		c-0.412-0.51-0.774-1.203-1.088-2.08c-0.292-0.779-0.531-1.787-0.715-3.021c-0.076-0.453-0.136-0.914-0.179-1.379l-3.476,0.486
		l-0.844,0.18l-0.455-0.586l1.348-0.146l3.378-0.438c-0.065-0.715-0.097-1.451-0.097-2.209c0-1.268-0.033-2.221-0.098-2.859
		c1.007,0.217,1.511,0.418,1.511,0.602c0,0.107-0.238,0.26-0.715,0.455c0,1.58,0.033,2.891,0.098,3.93L122.633,124.631z
		 M120.554,120.895c0.661,0.271,1.175,0.537,1.543,0.797c0.336,0.217,0.585,0.434,0.748,0.648c0.13,0.152,0.195,0.305,0.195,0.455
		c0,0.348-0.114,0.52-0.341,0.52c-0.097,0-0.184-0.031-0.26-0.098c-0.087-0.031-0.179-0.135-0.276-0.309
		c-0.217-0.389-0.45-0.697-0.699-0.926c-0.271-0.27-0.633-0.541-1.088-0.811L120.554,120.895z"/>
</g>
<g enable-background="new    ">
	<path d="M21.445,154.33l0.958,0.715h4.743V152.9c0-0.584-0.022-1.018-0.065-1.299c0.617,0.064,1.131,0.178,1.543,0.34
		c0.151,0.066,0.227,0.146,0.227,0.244s-0.076,0.162-0.227,0.195c-0.195,0.098-0.428,0.156-0.699,0.178v2.486h4.873l0.52-0.715
		c0.4,0.227,0.688,0.455,0.861,0.682c0.086,0.076,0.13,0.146,0.13,0.211c0,0.109-0.217,0.287-0.649,0.537v4.4
		c0.151,0.131,0.292,0.244,0.422,0.342c0.054,0.043,0.081,0.086,0.081,0.129c0,0.164-0.043,0.244-0.13,0.244h-6.107v4.5
		c0,0.238,0.011,0.4,0.033,0.486c0.021,0.195,0.032,0.352,0.032,0.471c0,0.357-0.168,0.537-0.503,0.537
		c-0.271,0-0.406-0.088-0.406-0.26c0-0.238,0.01-0.537,0.032-0.895c0.021-0.379,0.033-0.709,0.033-0.99v-3.85h-4.873v0.52
		c0,0.131-0.103,0.195-0.309,0.195c-0.097,0-0.222-0.027-0.374-0.08c-0.097-0.098-0.146-0.217-0.146-0.357
		c0-0.195,0.011-0.449,0.032-0.764c0.054-0.25,0.082-0.779,0.082-1.592v-3.379C21.559,155.006,21.521,154.645,21.445,154.33z
		 M22.273,160.438h4.873V155.5h-4.873V160.438z M27.925,155.5v4.938h5.019V155.5H27.925z"/>
	<path d="M50.161,155.629c0.465,0.119,1.093,0.18,1.884,0.18h10.217l0.714-0.699c0.347,0.25,0.671,0.492,0.975,0.73
		c0.086,0.055,0.13,0.109,0.13,0.162c0,0.186-0.07,0.277-0.211,0.277h-6.302v5.115h5.587l0.715-0.764
		c0.39,0.271,0.758,0.531,1.104,0.781c0.086,0.053,0.13,0.113,0.13,0.178c0,0.184-0.06,0.275-0.179,0.275h-7.358v1.869h4.223
		l0.715-0.779c0.39,0.281,0.758,0.547,1.104,0.795c0.086,0.064,0.13,0.131,0.13,0.195c0,0.162-0.06,0.244-0.179,0.244h-5.994v1.25
		c0,0.238,0.011,0.4,0.033,0.486c0.021,0.186,0.032,0.342,0.032,0.473c0,0.346-0.168,0.52-0.503,0.52c-0.26,0-0.39-0.082-0.39-0.244
		c0-0.238,0.005-0.535,0.016-0.893c0.021-0.379,0.033-0.711,0.033-0.992v-0.6h-3.557c-0.769,0.01-1.289,0.031-1.56,0.064
		l-0.341-0.715c0.476,0.131,1.11,0.195,1.9,0.195h3.557v-1.869h-5.182c-0.769,0.012-1.294,0.033-1.575,0.066l-0.309-0.715
		c0.465,0.119,1.093,0.178,1.884,0.178h5.182v-5.115h-4.743c-0.758,0.01-1.272,0.031-1.543,0.064L50.161,155.629z M49.788,152.965
		c0.465,0.119,1.093,0.18,1.884,0.18h2.307l-0.228-1.674c0.477,0.055,0.894,0.113,1.25,0.18c0.119,0.031,0.179,0.074,0.179,0.129
		c0,0.064-0.07,0.131-0.211,0.195c-0.13,0.098-0.254,0.168-0.374,0.211l0.13,0.959h0.828l0.65-0.65
		c0.335,0.238,0.65,0.471,0.942,0.699c0.076,0.043,0.114,0.092,0.114,0.145c0,0.186-0.07,0.277-0.211,0.277H54.79l0.179,1.363
		c0,0.098-0.054,0.164-0.163,0.195c-0.108,0.076-0.222,0.113-0.341,0.113c-0.12,0-0.189-0.043-0.211-0.129l-0.211-1.543h-2.372
		c-0.769,0.01-1.294,0.033-1.575,0.064L49.788,152.965z M50.372,158.488c0.465,0.119,1.088,0.178,1.868,0.178h0.341v-0.715
		c0-0.52-0.022-0.908-0.065-1.168c0.498,0.096,0.915,0.189,1.25,0.275c0.119,0.055,0.179,0.113,0.179,0.178
		c0,0.066-0.048,0.115-0.146,0.146c-0.141,0.076-0.292,0.141-0.455,0.195v1.088h0.909l0.715-0.715
		c0.346,0.26,0.677,0.51,0.991,0.748c0.076,0.055,0.114,0.107,0.114,0.162c0,0.184-0.06,0.275-0.179,0.275h-2.55v0.18
		c0,0.26,0.01,0.428,0.032,0.504c0.021,0.184,0.033,0.34,0.033,0.471c0,0.346-0.173,0.52-0.52,0.52
		c-0.249,0-0.374-0.082-0.374-0.244c0-0.15,0.011-0.34,0.033-0.568c0.021-0.227,0.032-0.434,0.032-0.617v-0.244H52.24
		c-0.758,0.012-1.278,0.033-1.56,0.066L50.372,158.488z M60.118,151.471c0.455,0.043,0.877,0.141,1.267,0.293
		c0.065,0.031,0.098,0.08,0.098,0.146c0,0.098-0.087,0.172-0.26,0.227c-0.163,0.055-0.314,0.092-0.455,0.113
		c-0.043,0.314-0.092,0.613-0.146,0.895h2.469l0.78-0.828c0.39,0.291,0.758,0.574,1.104,0.844c0.086,0.055,0.13,0.113,0.13,0.178
		c0,0.186-0.06,0.277-0.179,0.277h-4.402c-0.065,0.434-0.162,0.889-0.292,1.363c-0.033,0.164-0.185,0.244-0.455,0.244
		c-0.206,0-0.309-0.059-0.309-0.178l0.016-0.211c0.054-0.109,0.103-0.271,0.146-0.488c0.054-0.26,0.103-0.504,0.146-0.73
		c-0.649,0.01-1.104,0.033-1.364,0.064l-0.309-0.715c0.444,0.109,1.029,0.168,1.754,0.18
		C59.988,152.484,60.074,151.926,60.118,151.471z M58.347,158.488c0.477,0.119,1.104,0.178,1.884,0.178h0.065v-0.715
		c0-0.52-0.022-0.908-0.065-1.168c0.509,0.096,0.931,0.189,1.267,0.275c0.108,0.055,0.163,0.113,0.163,0.178
		c0,0.066-0.043,0.115-0.13,0.146c-0.13,0.076-0.282,0.141-0.455,0.195v1.088h0.991l0.714-0.715c0.335,0.26,0.661,0.51,0.975,0.748
		c0.076,0.055,0.114,0.107,0.114,0.162c0,0.184-0.06,0.275-0.179,0.275h-2.615v0.18c0,0.26,0.011,0.428,0.033,0.504
		c0.021,0.184,0.032,0.34,0.032,0.471c0,0.346-0.168,0.52-0.503,0.52c-0.271,0-0.406-0.082-0.406-0.244
		c0-0.15,0.01-0.34,0.032-0.568c0.021-0.227,0.033-0.434,0.033-0.617v-0.244h-0.065c-0.758,0.012-1.272,0.033-1.543,0.066
		L58.347,158.488z"/>
	<path d="M87.372,156.475c0.119,1.146,0.314,2.115,0.584,2.906h4.386l0.861-0.959c0.433,0.314,0.833,0.629,1.202,0.943
		c0.108,0.064,0.163,0.135,0.163,0.211c0,0.184-0.092,0.275-0.276,0.275h-6.172c0.054,0.131,0.108,0.244,0.163,0.342
		c0.379,0.963,0.844,1.809,1.396,2.533c0.531,0.682,1.094,1.24,1.689,1.674c0.476,0.389,0.953,0.709,1.429,0.957
		c0.26,0.098,0.438,0.146,0.536,0.146c0.097,0,0.179-0.08,0.244-0.242c0.325-0.629,0.655-1.441,0.991-2.438l0.26,0.131
		c-0.4,1.613-0.601,2.463-0.601,2.549c0,0.131,0.06,0.254,0.179,0.375c0.108,0.086,0.163,0.215,0.163,0.389
		c0,0.229-0.195,0.342-0.585,0.342c-0.238,0-0.574-0.088-1.007-0.26c-0.498-0.207-1.034-0.516-1.608-0.926
		c-0.65-0.455-1.25-1.014-1.803-1.674c-0.574-0.65-1.067-1.32-1.479-2.014c-0.314-0.574-0.584-1.201-0.812-1.885h-5.393v5.215
		c0.422-0.088,0.813-0.186,1.169-0.293c0.563-0.152,1.197-0.367,1.9-0.65c0.661-0.26,1.435-0.6,2.323-1.023l0.065,0.375
		c-0.714,0.477-1.348,0.85-1.9,1.121c-0.596,0.313-1.164,0.584-1.705,0.811c-0.499,0.238-1.023,0.445-1.576,0.617
		c-0.152,0.434-0.266,0.65-0.341,0.65c-0.097,0-0.374-0.477-0.828-1.43c0.065-0.01,0.125-0.021,0.179-0.031v-12.184
		c0-0.432-0.043-0.805-0.13-1.119l0.975,0.715h9.957l0.438-0.504c0.574,0.336,0.861,0.574,0.861,0.715
		c0,0.107-0.157,0.254-0.471,0.438v2.518c0.141,0.109,0.265,0.207,0.374,0.293c0.065,0.033,0.098,0.076,0.098,0.129
		c0,0.174-0.043,0.262-0.13,0.262H87.372z M81.881,153.078v2.924h10.152v-2.924H81.881z M81.881,156.475v2.906h5.247
		c-0.011-0.043-0.022-0.076-0.033-0.098c-0.26-0.822-0.433-1.76-0.52-2.809H81.881z"/>
	<path d="M110.045,151.844l0.958,0.715h11.906l0.503-0.715c0.39,0.25,0.671,0.482,0.845,0.699c0.097,0.076,0.146,0.152,0.146,0.227
		c0,0.098-0.195,0.266-0.584,0.504v10.672c0,0.801,0.01,1.326,0.032,1.576c0.021,0.313,0.033,0.563,0.033,0.746
		c0,0.152-0.06,0.277-0.179,0.373c-0.152,0.066-0.271,0.098-0.357,0.098c-0.206,0-0.309-0.07-0.309-0.211v-0.633h-12.166v0.633
		c0,0.141-0.103,0.211-0.309,0.211c-0.108,0-0.233-0.031-0.374-0.098c-0.098-0.096-0.146-0.221-0.146-0.373
		c0-0.184,0.011-0.434,0.033-0.746c0.054-0.25,0.081-0.775,0.081-1.576v-10.98C110.159,152.543,110.121,152.17,110.045,151.844z
		 M110.874,165.439h12.166v-12.41h-12.166V165.439z M111.345,155.418c0.466,0.141,1.094,0.211,1.884,0.211h4.467v-0.049
		c0-0.963-0.016-1.684-0.049-2.16c0.985,0.217,1.478,0.406,1.478,0.568c0,0.131-0.238,0.281-0.715,0.455
		c0,0.443,0.005,0.84,0.017,1.186h2.192l0.715-0.779c0.368,0.26,0.72,0.525,1.056,0.795c0.086,0.055,0.13,0.109,0.13,0.164
		c0,0.172-0.065,0.26-0.195,0.26h-3.898c0.032,1.213,0.097,2.1,0.195,2.662c0.119,0.727,0.26,1.371,0.422,1.934
		c0.032,0.109,0.065,0.205,0.097,0.293c0.098-0.141,0.195-0.287,0.292-0.439c0.249-0.422,0.465-0.844,0.65-1.266
		c0.184-0.455,0.319-0.84,0.406-1.154c0.087-0.303,0.13-0.59,0.13-0.861c0.466,0.119,0.829,0.244,1.088,0.375
		c0.141,0.053,0.211,0.129,0.211,0.227c0,0.076-0.043,0.135-0.13,0.18c-0.173,0.053-0.347,0.096-0.52,0.129
		c-0.173,0.488-0.352,0.941-0.536,1.365c-0.249,0.486-0.536,0.996-0.861,1.525c-0.141,0.229-0.287,0.434-0.438,0.617
		c0.098,0.195,0.195,0.369,0.292,0.52c0.292,0.434,0.595,0.818,0.91,1.154c0.238,0.184,0.39,0.275,0.455,0.275
		c0.098,0,0.173-0.031,0.228-0.098c0.13-0.15,0.444-0.914,0.942-2.289l0.26,0.129c-0.357,1.387-0.536,2.16-0.536,2.324
		c0,0.227,0.065,0.4,0.195,0.52c0.184,0.162,0.276,0.318,0.276,0.471c0,0.205-0.157,0.309-0.471,0.309
		c-0.13,0-0.347-0.088-0.65-0.26c-0.336-0.186-0.693-0.488-1.072-0.91c-0.39-0.357-0.737-0.764-1.04-1.219
		c-0.087-0.119-0.168-0.248-0.244-0.389c-0.022,0.031-0.043,0.059-0.065,0.08c-0.325,0.348-0.682,0.666-1.072,0.959
		c-0.347,0.303-0.747,0.58-1.202,0.828c-0.444,0.281-0.958,0.541-1.543,0.779l-0.243-0.242c0.714-0.348,1.293-0.699,1.738-1.057
		c0.487-0.293,0.91-0.611,1.267-0.959c0.282-0.291,0.552-0.6,0.813-0.926c0.011-0.01,0.016-0.021,0.016-0.031
		c-0.087-0.195-0.168-0.406-0.244-0.635c-0.195-0.594-0.363-1.363-0.503-2.305c-0.141-0.824-0.217-1.695-0.228-2.615h-4.483
		c-0.769,0.01-1.294,0.031-1.576,0.064L111.345,155.418z M117.306,161.736l0.082,0.309c-0.671,0.314-1.267,0.553-1.787,0.715
		c-0.542,0.205-1.062,0.385-1.56,0.535c-0.465,0.141-0.953,0.266-1.462,0.375c-0.119,0.389-0.211,0.584-0.276,0.584
		c-0.087,0-0.347-0.434-0.78-1.299c0.715-0.076,1.348-0.164,1.9-0.26c0.531-0.088,1.11-0.213,1.738-0.375
		C115.779,162.17,116.494,161.975,117.306,161.736z M112.368,157.123l0.991,0.52h2.209l0.455-0.52
		c0.563,0.336,0.844,0.574,0.844,0.715c0,0.109-0.157,0.26-0.471,0.455v1.949c0.076,0.064,0.141,0.119,0.195,0.162
		c0.054,0.021,0.081,0.055,0.081,0.098c0,0.162-0.049,0.244-0.146,0.244h-3.378v0.34c0,0.098-0.065,0.174-0.195,0.229
		c-0.152,0.055-0.276,0.08-0.374,0.08c-0.141,0-0.211-0.059-0.211-0.178V157.123z M113.148,160.291h2.469v-2.209h-2.469V160.291z
		 M119.466,153.42c0.346,0.152,0.628,0.303,0.844,0.455c0.184,0.119,0.319,0.25,0.406,0.391c0.076,0.086,0.114,0.168,0.114,0.242
		c0,0.357-0.114,0.537-0.341,0.537c-0.043,0-0.086-0.018-0.13-0.049c-0.043-0.033-0.092-0.104-0.146-0.211
		c-0.119-0.25-0.244-0.449-0.374-0.602c-0.141-0.174-0.336-0.342-0.585-0.504L119.466,153.42z"/>
</g>
<g enable-background="new    ">
	<path d="M20.194,92.443c0.715,0.281,1.272,0.563,1.673,0.844c0.357,0.238,0.628,0.472,0.812,0.699
		c0.119,0.162,0.179,0.319,0.179,0.471c0,0.357-0.13,0.536-0.39,0.536c-0.098,0-0.195-0.026-0.292-0.081
		c-0.076-0.043-0.163-0.157-0.26-0.342c-0.239-0.411-0.487-0.741-0.748-0.99c-0.282-0.293-0.666-0.579-1.153-0.861L20.194,92.443z
		 M23.703,96.228l0.13,0.243c-0.347,0.834-0.747,1.706-1.202,2.615c-0.455,0.964-0.937,1.896-1.445,2.794
		c-0.065,0.52-0.136,0.779-0.211,0.779s-0.396-0.396-0.958-1.186c0.627-0.639,1.299-1.483,2.014-2.533
		C22.733,97.9,23.291,96.996,23.703,96.228z M21.38,88.48c0.66,0.281,1.186,0.568,1.575,0.86c0.347,0.228,0.601,0.454,0.764,0.683
		c0.13,0.151,0.195,0.309,0.195,0.471c0,0.347-0.13,0.52-0.39,0.52c-0.098,0-0.19-0.021-0.276-0.064
		c-0.087-0.043-0.179-0.157-0.276-0.342c-0.217-0.411-0.45-0.747-0.699-1.007c-0.271-0.281-0.633-0.563-1.088-0.845L21.38,88.48z
		 M24.693,89.779c0.465,0.141,1.088,0.211,1.868,0.211h2.534v-0.455c0-0.584-0.016-1.023-0.048-1.314
		c0.606,0.075,1.115,0.194,1.527,0.356c0.14,0.065,0.211,0.146,0.211,0.243c0,0.088-0.071,0.152-0.211,0.195
		c-0.195,0.098-0.428,0.162-0.699,0.195v0.779h3.07l0.78-0.861c0.39,0.293,0.752,0.58,1.088,0.861
		c0.086,0.055,0.13,0.119,0.13,0.195c0,0.162-0.065,0.244-0.195,0.244h-4.873v1.494h2.55l0.714-0.78
		c0.368,0.282,0.709,0.547,1.023,0.796c0.098,0.064,0.146,0.13,0.146,0.195c0,0.162-0.07,0.243-0.211,0.243h-4.223v1.495h3.72
		l0.779-0.846c0.379,0.304,0.742,0.591,1.088,0.861c0.086,0.055,0.13,0.119,0.13,0.195c0,0.173-0.065,0.26-0.195,0.26h-9.209
		c-0.769,0.011-1.289,0.027-1.559,0.049l-0.341-0.699c0.477,0.119,1.11,0.18,1.9,0.18h2.907v-1.495h-1.884
		c-0.758,0.011-1.278,0.032-1.56,0.065l-0.309-0.715c0.466,0.13,1.088,0.195,1.868,0.195h1.884V90.43h-2.534
		c-0.758,0.01-1.278,0.031-1.559,0.064L24.693,89.779z M25.912,95.172l0.926,0.602h5.522l0.503-0.715
		c0.39,0.227,0.676,0.454,0.861,0.682c0.086,0.076,0.13,0.146,0.13,0.211c0,0.098-0.217,0.271-0.65,0.52v5.409
		c0,0.368-0.081,0.645-0.244,0.828c-0.141,0.173-0.33,0.314-0.568,0.423c-0.217,0.119-0.401,0.179-0.552,0.179
		c0-0.26-0.06-0.444-0.179-0.553c-0.141-0.13-0.368-0.243-0.682-0.341c-0.357-0.119-0.763-0.195-1.218-0.228v-0.374
		c0.813,0.163,1.543,0.244,2.193,0.244c0.216,0,0.357-0.027,0.422-0.081c0.076-0.055,0.114-0.201,0.114-0.438v-1.364h-5.913
		c-0.032,0.271-0.086,0.53-0.162,0.779c-0.098,0.357-0.233,0.688-0.406,0.991c-0.162,0.26-0.357,0.514-0.584,0.763
		c-0.217,0.217-0.509,0.438-0.877,0.666l-0.195-0.13c0.228-0.194,0.422-0.4,0.585-0.617c0.151-0.206,0.287-0.417,0.406-0.634
		c0.13-0.26,0.233-0.552,0.309-0.877c0.108-0.379,0.184-0.769,0.228-1.169c0.076-0.53,0.114-1.126,0.114-1.787
		C25.993,96.926,25.965,95.93,25.912,95.172z M26.659,99.736h5.831v-1.495h-5.717c0,0.521-0.038,1.002-0.114,1.446
		C26.659,99.709,26.659,99.726,26.659,99.736z M26.772,97.787h5.717v-1.56h-5.717V97.787z"/>
	<path d="M56.544,88.041c0.216,0.119,0.417,0.255,0.601,0.406c0.206,0.13,0.363,0.255,0.471,0.373
		c0.141,0.12,0.233,0.223,0.276,0.309c0.054,0.098,0.081,0.19,0.081,0.277c0,0.205-0.033,0.373-0.098,0.503
		c-0.021,0.032-0.043,0.06-0.065,0.081h4.629l0.779-0.861c0.39,0.293,0.758,0.58,1.104,0.861c0.087,0.055,0.13,0.119,0.13,0.195
		c0,0.162-0.06,0.244-0.178,0.244h-3.85c0.281,0.119,0.53,0.232,0.747,0.34c0.076,0.065,0.114,0.125,0.114,0.18
		c0,0.098-0.092,0.162-0.276,0.194c-0.206,0.044-0.357,0.065-0.455,0.065c-0.152,0.357-0.314,0.709-0.487,1.055
		c-0.184,0.314-0.374,0.596-0.568,0.846c-0.141,0.173-0.309,0.346-0.503,0.52h4.158l0.471-0.536c0.357,0.26,0.682,0.53,0.975,0.812
		c0.032,0.033,0.049,0.065,0.049,0.098c0,0.098-0.103,0.168-0.309,0.211c-0.185,0.044-0.363,0.088-0.536,0.131
		c-0.141,0.205-0.32,0.433-0.536,0.682c-0.195,0.25-0.406,0.477-0.633,0.682l-0.26-0.194c0.216-0.271,0.384-0.524,0.503-0.763
		c0.119-0.238,0.211-0.461,0.276-0.666h-5.311v2.273h3.297l0.52-0.715c0.4,0.228,0.688,0.455,0.861,0.683
		c0.076,0.087,0.114,0.157,0.114,0.211c0,0.108-0.211,0.287-0.634,0.536v3.378c0,0.368-0.081,0.645-0.243,0.829
		c-0.13,0.173-0.32,0.313-0.569,0.422c-0.206,0.119-0.39,0.179-0.552,0.179c0-0.26-0.06-0.444-0.179-0.553
		c-0.108-0.13-0.309-0.243-0.601-0.341c-0.304-0.119-0.65-0.194-1.04-0.228v-0.373c0.714,0.162,1.364,0.243,1.949,0.243
		c0.206,0,0.336-0.026,0.39-0.081c0.086-0.054,0.13-0.2,0.13-0.438v-3.313h-3.443v5.327c0,0.261,0.011,0.428,0.032,0.504
		c0.021,0.184,0.033,0.347,0.033,0.487c0,0.336-0.173,0.504-0.52,0.504c-0.271,0-0.406-0.082-0.406-0.244
		c0-0.238,0.011-0.536,0.032-0.894c0.021-0.379,0.033-0.714,0.033-1.007v-4.678H53.75v4.808c0,0.141-0.114,0.211-0.341,0.211
		c-0.087,0-0.201-0.032-0.341-0.097c-0.119-0.098-0.179-0.223-0.179-0.374c0-0.185,0.016-0.433,0.049-0.747
		c0.065-0.249,0.097-0.774,0.097-1.575V96.73c0-0.422-0.048-0.784-0.146-1.088l0.991,0.715h3.167v-2.273h-5.393
		c-0.022,0.194-0.049,0.379-0.081,0.552c-0.065,0.325-0.152,0.596-0.26,0.812c-0.076,0.186-0.184,0.336-0.325,0.455
		c-0.119,0.119-0.233,0.206-0.341,0.26c-0.098,0.044-0.19,0.065-0.276,0.065c-0.271,0-0.406-0.092-0.406-0.276
		c0-0.086,0.076-0.195,0.228-0.324c0.335-0.347,0.579-0.639,0.731-0.877c0.163-0.238,0.287-0.504,0.374-0.797
		c0.086-0.27,0.141-0.639,0.163-1.104h0.211v0.779h3.508c-0.032-0.098-0.065-0.232-0.097-0.406
		c-0.076-0.324-0.179-0.645-0.309-0.959c-0.119-0.324-0.255-0.627-0.406-0.908C54.206,91.073,54,90.765,53.75,90.43h-1.429
		c-0.769,0.01-1.294,0.031-1.576,0.064l-0.309-0.715c0.465,0.141,1.094,0.211,1.884,0.211h4.986
		c-0.022-0.054-0.043-0.124-0.065-0.211c-0.043-0.184-0.114-0.363-0.211-0.536c-0.098-0.185-0.201-0.352-0.309-0.503
		c-0.108-0.152-0.26-0.325-0.455-0.52L56.544,88.041z M55.749,93.629h2.826c0.195-0.281,0.357-0.553,0.487-0.813
		s0.254-0.541,0.374-0.844c0.119-0.314,0.222-0.612,0.309-0.895c0.054-0.205,0.103-0.422,0.146-0.648h-5.717
		c0.238,0.238,0.438,0.471,0.601,0.697c0.26,0.282,0.465,0.547,0.617,0.797c0.173,0.26,0.287,0.486,0.341,0.682
		c0.065,0.195,0.098,0.379,0.098,0.553C55.83,93.353,55.802,93.51,55.749,93.629z"/>
	<path d="M80.273,88.35l0.958,0.715h11.906l0.503-0.715c0.39,0.25,0.671,0.482,0.845,0.699c0.097,0.075,0.146,0.151,0.146,0.227
		c0,0.098-0.195,0.266-0.584,0.504v10.671c0,0.802,0.01,1.326,0.032,1.576c0.021,0.313,0.033,0.563,0.033,0.747
		c0,0.151-0.06,0.276-0.179,0.373c-0.152,0.065-0.271,0.098-0.357,0.098c-0.206,0-0.309-0.07-0.309-0.211v-0.634H81.102v0.634
		c0,0.141-0.103,0.211-0.309,0.211c-0.108,0-0.233-0.032-0.374-0.098c-0.098-0.097-0.146-0.222-0.146-0.373
		c0-0.185,0.011-0.434,0.033-0.747c0.054-0.25,0.081-0.774,0.081-1.576V89.471C80.387,89.049,80.349,88.675,80.273,88.35z
		 M81.102,101.945h12.166v-12.41H81.102V101.945z M81.573,91.924c0.466,0.141,1.094,0.211,1.884,0.211h4.467v-0.049
		c0-0.964-0.016-1.684-0.049-2.16c0.985,0.217,1.478,0.406,1.478,0.568c0,0.13-0.238,0.281-0.715,0.455
		c0,0.443,0.005,0.839,0.017,1.186h2.192l0.715-0.779c0.368,0.26,0.72,0.524,1.056,0.795c0.086,0.055,0.13,0.108,0.13,0.162
		c0,0.174-0.065,0.26-0.195,0.26h-3.898c0.032,1.213,0.097,2.102,0.195,2.664c0.119,0.727,0.26,1.37,0.422,1.934
		c0.032,0.107,0.065,0.205,0.097,0.292c0.098-0.141,0.195-0.286,0.292-0.438c0.249-0.422,0.465-0.845,0.65-1.268
		c0.184-0.454,0.319-0.838,0.406-1.152c0.087-0.303,0.13-0.59,0.13-0.861c0.466,0.119,0.829,0.244,1.088,0.374
		c0.141,0.054,0.211,0.13,0.211,0.228c0,0.076-0.043,0.135-0.13,0.178c-0.173,0.055-0.347,0.098-0.52,0.131
		c-0.173,0.486-0.352,0.941-0.536,1.363c-0.249,0.488-0.536,0.997-0.861,1.527c-0.141,0.228-0.287,0.434-0.438,0.617
		c0.098,0.195,0.195,0.368,0.292,0.52c0.292,0.434,0.595,0.818,0.91,1.153c0.238,0.185,0.39,0.276,0.455,0.276
		c0.098,0,0.173-0.032,0.228-0.098c0.13-0.151,0.444-0.915,0.942-2.29l0.26,0.13c-0.357,1.387-0.536,2.16-0.536,2.323
		c0,0.227,0.065,0.4,0.195,0.52c0.184,0.162,0.276,0.319,0.276,0.471c0,0.206-0.157,0.309-0.471,0.309
		c-0.13,0-0.347-0.087-0.65-0.26c-0.336-0.185-0.693-0.487-1.072-0.909c-0.39-0.357-0.737-0.764-1.04-1.219
		c-0.087-0.119-0.168-0.249-0.244-0.39c-0.022,0.032-0.043,0.06-0.065,0.081c-0.325,0.347-0.682,0.666-1.072,0.959
		c-0.347,0.303-0.747,0.579-1.202,0.828c-0.444,0.281-0.958,0.541-1.543,0.779l-0.243-0.243c0.714-0.347,1.293-0.699,1.738-1.056
		c0.487-0.293,0.91-0.612,1.267-0.959c0.282-0.292,0.552-0.601,0.813-0.926c0.011-0.011,0.016-0.021,0.016-0.032
		c-0.087-0.195-0.168-0.406-0.244-0.634c-0.195-0.596-0.363-1.364-0.503-2.307c-0.141-0.822-0.217-1.693-0.228-2.615h-4.483
		c-0.769,0.012-1.294,0.033-1.576,0.065L81.573,91.924z M87.534,98.241l0.082,0.309c-0.671,0.314-1.267,0.553-1.787,0.715
		c-0.542,0.206-1.062,0.385-1.56,0.536c-0.465,0.141-0.953,0.266-1.462,0.374c-0.119,0.39-0.211,0.584-0.276,0.584
		c-0.087,0-0.347-0.433-0.78-1.299c0.715-0.076,1.348-0.163,1.9-0.26c0.531-0.087,1.11-0.212,1.738-0.374
		C86.007,98.675,86.722,98.479,87.534,98.241z M82.596,93.629l0.991,0.52h2.209l0.455-0.52c0.563,0.336,0.844,0.574,0.844,0.715
		c0,0.107-0.157,0.26-0.471,0.455v1.948c0.076,0.065,0.141,0.12,0.195,0.163c0.054,0.021,0.081,0.054,0.081,0.098
		c0,0.162-0.049,0.243-0.146,0.243h-3.378v0.341c0,0.098-0.065,0.174-0.195,0.228c-0.152,0.055-0.276,0.081-0.374,0.081
		c-0.141,0-0.211-0.06-0.211-0.179V93.629z M83.376,96.796h2.469v-2.209h-2.469V96.796z M89.694,89.926
		c0.346,0.151,0.628,0.303,0.844,0.455c0.184,0.119,0.319,0.248,0.406,0.389c0.076,0.088,0.114,0.168,0.114,0.244
		c0,0.357-0.114,0.536-0.341,0.536c-0.043,0-0.086-0.017-0.13-0.049s-0.092-0.103-0.146-0.211c-0.119-0.249-0.244-0.449-0.374-0.601
		c-0.141-0.174-0.336-0.342-0.585-0.504L89.694,89.926z"/>
	<path d="M109.509,89l0.991,0.715h2.518l0.52-0.715c0.4,0.249,0.688,0.481,0.861,0.698c0.076,0.075,0.114,0.151,0.114,0.228
		c0,0.098-0.189,0.266-0.568,0.504v7.666c0,0.812,0.011,1.343,0.032,1.592c0.021,0.313,0.033,0.568,0.033,0.763
		c0,0.142-0.06,0.26-0.179,0.357c-0.152,0.055-0.266,0.081-0.341,0.081c-0.227,0-0.341-0.064-0.341-0.194v-0.764h-2.794v0.764
		c0,0.13-0.103,0.194-0.309,0.194c-0.097,0-0.222-0.026-0.374-0.081c-0.108-0.098-0.163-0.216-0.163-0.357
		c0-0.194,0.017-0.449,0.049-0.763c0.054-0.249,0.082-0.78,0.082-1.592V90.12C109.64,89.698,109.596,89.324,109.509,89z
		 M110.354,94.521h2.794v-4.336h-2.794V94.521z M110.354,99.46h2.794v-4.467h-2.794V99.46z M114.512,96.422
		c0.477,0.119,1.104,0.18,1.884,0.18h4.499v-0.828c0-0.629-0.022-1.066-0.065-1.316c0.595,0.076,1.121,0.217,1.576,0.422
		c0.108,0.044,0.162,0.104,0.162,0.18c0,0.097-0.07,0.173-0.211,0.227c-0.228,0.065-0.455,0.119-0.682,0.162v1.154h0.893l0.78-0.895
		c0.411,0.305,0.801,0.602,1.169,0.895c0.086,0.054,0.13,0.119,0.13,0.194c0,0.185-0.081,0.276-0.244,0.276h-2.729v4.938
		c0,0.368-0.092,0.645-0.276,0.828c-0.163,0.185-0.379,0.325-0.649,0.423c-0.239,0.107-0.455,0.162-0.65,0.162l-0.016-0.228
		c-0.033-0.141-0.087-0.243-0.163-0.309c-0.119-0.13-0.347-0.243-0.682-0.341c-0.357-0.119-0.763-0.195-1.218-0.228v-0.373
		c0.726,0.162,1.375,0.243,1.949,0.243c0.368,0,0.606-0.032,0.714-0.098c0.141-0.064,0.211-0.228,0.211-0.487v-4.531h-4.499
		c-0.769,0.011-1.283,0.032-1.543,0.064L114.512,96.422z M115.097,90.186c0.477,0.119,1.11,0.178,1.9,0.178h1.819v-0.828
		c0-0.584-0.022-1.023-0.065-1.314c0.617,0.075,1.126,0.194,1.527,0.356c0.141,0.065,0.211,0.146,0.211,0.243
		c0,0.088-0.07,0.152-0.211,0.195c-0.206,0.098-0.433,0.162-0.682,0.195v1.152h2.258l0.779-0.893
		c0.412,0.303,0.801,0.602,1.169,0.893c0.087,0.055,0.13,0.12,0.13,0.195c0,0.185-0.081,0.276-0.244,0.276h-4.093v2.794h1.608
		l0.78-0.91c0.411,0.304,0.801,0.607,1.169,0.91c0.086,0.043,0.13,0.104,0.13,0.179c0,0.185-0.082,0.276-0.244,0.276h-5.084
		c-0.758,0.01-1.278,0.032-1.559,0.064l-0.309-0.715c0.465,0.131,1.088,0.195,1.868,0.195h0.861v-2.794h-1.819
		c-0.769,0.011-1.289,0.032-1.559,0.065L115.097,90.186z M116.023,97.966c0.357,0.217,0.682,0.433,0.974,0.649
		c0.314,0.206,0.563,0.406,0.748,0.601c0.216,0.185,0.362,0.353,0.438,0.504c0.076,0.13,0.114,0.26,0.114,0.39
		c0,0.185-0.027,0.325-0.082,0.423c-0.086,0.107-0.195,0.162-0.325,0.162c-0.098,0-0.173-0.027-0.228-0.081
		c-0.076-0.033-0.141-0.151-0.195-0.357c-0.076-0.238-0.201-0.481-0.374-0.731c-0.152-0.228-0.325-0.449-0.52-0.666
		c-0.185-0.216-0.439-0.449-0.764-0.698L116.023,97.966z"/>
	<path d="M143.195,88.041c0.531,0.185,0.991,0.374,1.381,0.568c0.076,0.065,0.114,0.136,0.114,0.211c0,0.088-0.108,0.146-0.325,0.18
		c-0.249,0.043-0.422,0.064-0.52,0.064c-0.39,0.996-0.823,1.965-1.299,2.908c-0.12,0.227-0.244,0.443-0.374,0.648
		c0.455,0.217,0.682,0.374,0.682,0.472c0,0.108-0.168,0.243-0.504,0.405v8.382c0,0.347,0.027,0.606,0.082,0.779
		c0.032,0.141,0.049,0.266,0.049,0.374c0,0.325-0.195,0.498-0.585,0.52c-0.228,0-0.341-0.081-0.341-0.243v-9.697
		c-0.173,0.249-0.341,0.493-0.504,0.731c-0.542,0.682-1.191,1.391-1.949,2.127l-0.26-0.178c0.693-0.78,1.278-1.512,1.754-2.193
		c0.39-0.605,0.774-1.271,1.153-1.998c0.357-0.736,0.666-1.424,0.926-2.063C142.892,89.422,143.065,88.756,143.195,88.041z
		 M152.405,92.67l0.65-1.006l1.283,0.812c0.055,0.044,0.082,0.097,0.082,0.162c0,0.108-0.061,0.179-0.18,0.212l-5.522,0.779
		c0.065,0.639,0.135,1.158,0.211,1.559c0.162,1.008,0.384,1.912,0.666,2.713c0.271,0.802,0.645,1.5,1.121,2.096
		c0.476,0.596,0.979,1.126,1.51,1.592c0.379,0.281,0.617,0.422,0.715,0.422c0.098,0,0.178-0.049,0.244-0.146
		c0.13-0.217,0.46-1.234,0.991-3.054l0.244,0.146c-0.391,1.862-0.586,2.896-0.586,3.103c0,0.228,0.064,0.4,0.195,0.52
		c0.184,0.163,0.275,0.314,0.275,0.455c0,0.228-0.156,0.341-0.471,0.341c-0.184,0-0.482-0.124-0.893-0.373
		c-0.466-0.228-0.969-0.623-1.511-1.187c-0.53-0.465-1.001-1.001-1.413-1.607c-0.412-0.509-0.774-1.202-1.088-2.079
		c-0.292-0.78-0.531-1.786-0.715-3.021c-0.076-0.455-0.136-0.916-0.179-1.381l-3.476,0.486l-0.844,0.18l-0.455-0.585l1.348-0.146
		l3.378-0.438c-0.065-0.715-0.097-1.451-0.097-2.209c0-1.268-0.033-2.22-0.098-2.859c1.007,0.217,1.511,0.418,1.511,0.602
		c0,0.108-0.238,0.26-0.715,0.455c0,1.581,0.033,2.891,0.098,3.931L152.405,92.67z M150.326,88.935
		c0.661,0.271,1.175,0.536,1.543,0.796c0.336,0.217,0.585,0.434,0.748,0.65c0.13,0.151,0.195,0.303,0.195,0.454
		c0,0.347-0.114,0.521-0.341,0.521c-0.097,0-0.184-0.033-0.26-0.098c-0.087-0.033-0.179-0.136-0.276-0.309
		c-0.217-0.391-0.45-0.699-0.699-0.926c-0.271-0.271-0.633-0.542-1.088-0.813L150.326,88.935z"/>
</g>
<g>
</g>
<g>
</g>
<g>
</g>
<g>
</g>
<g>
</g>
<g>
</g>
<g>
</g>
<g>
</g>
<g>
</g>
<g>
</g>
<g>
</g>
<g>
</g>
<g>
</g>
<g>
</g>
<g>
</g>
</svg>
