<?xml version="1.0" encoding="utf-8"?>
<!-- Generator: Adobe Illustrator 16.0.0, SVG Export Plug-In . SVG Version: 6.00 Build 0)  -->
<!DOCTYPE svg PUBLIC "-//W3C//DTD SVG 1.1//EN" "http://www.w3.org/Graphics/SVG/1.1/DTD/svg11.dtd">
<svg version="1.1" id="圖層_1" xmlns="http://www.w3.org/2000/svg" xmlns:xlink="http://www.w3.org/1999/xlink" x="0px" y="0px"
	 width="267.045px" height="267.678px" viewBox="0 0 267.045 267.678" enable-background="new 0 0 267.045 267.678"
	 xml:space="preserve">
<g id="_x3C_群組_x3E_">
	<g>
		<path fill="none" stroke="#000000" stroke-width="3" stroke-miterlimit="10" d="M133.03,121.927
			c9.59,0,17.371,7.774,17.371,17.382c0,9.605-7.781,17.379-17.371,17.379s-17.371-7.773-17.371-17.379
			C115.659,129.702,123.44,121.927,133.03,121.927z"/>
		<path fill="none" stroke="#000000" stroke-width="3" stroke-miterlimit="10" d="M133.03,111.668
			c15.256,0,27.622,12.37,27.622,27.641c0,15.27-12.366,27.641-27.622,27.641s-27.622-12.371-27.622-27.641
			C105.408,124.038,117.774,111.668,133.03,111.668z"/>
		<path fill="none" stroke="#000000" stroke-width="3" stroke-miterlimit="10" d="M158.29,150.463
			c3.724,1.509,7.681,2.967,11.178,4.931c17.939,10.151,32.788,25.73,40.309,45.221c6.08,15.764,4.085,32.303-8.569,44.219
			c-34.281,32.251-77.287,21.563-82.392,0.989c-5.106-20.574,22.757-34.442,30.765-42.176c7.994-7.735-9.344-35.67-9.344-35.67
			l-1.055-1.709"/>
		<path fill="none" stroke="#000000" stroke-width="3" stroke-miterlimit="10" d="M106.422,131.866c0,0-54.482-24.928-60.762-59.129
			c-3.197-17.475-2.343-35.563,10.523-49.015C67.836,11.552,84.466,0.411,102.178,2.842c18.105,2.483,33.142,12.691,38.233,30.94
			c0,0,2.903,24.233-13.988,35.59c-16.902,11.355-16.456,19.184-13.833,28.775c2.615,9.578,5.898,17.635,5.898,17.635"/>
		<path fill="none" stroke="#000000" stroke-width="3" stroke-miterlimit="10" d="M159.351,130.959c0,0,25.32-11.73,37.612,1.735
			c12.287,13.467,15.683,37.675,47.891,24.93c32.214-12.771,17.298-58.996,7.928-65.516c0,0-34.215-51.7-87.276-11.033
			c0,0-23.638,21.135-25.079,30.112"/>
		<path fill="none" stroke="#000000" stroke-width="3" stroke-miterlimit="10" d="M106.389,146.589
			c-7.514,3.354-14.247,9.165-22.529,10.021c-9.256,0.948-18.085-2.313-24.405-9.193c-12.213-13.277-23.785-25.382-45.113-15.256
			c-21.342,10.153-12.813,54.587,14.701,75.213c10.625,7.964,23.324,10.769,36.198,7.39c12.445-3.273,24.098-9.633,33.996-17.834
			c4.896-4.063,9.67-8.646,13.427-13.801c3.751-5.13,6.062-11.397,9.597-16.82"/>
	</g>
	<g>
		<path fill="#F9B2CF" d="M159.411,150.517c3.276,2.324,7.661,2.967,11.158,4.943c17.926,10.179,32.76,25.782,40.242,45.287
			c6.06,15.766,4.044,32.304-8.636,44.193c-34.33,32.198-77.319,21.456-82.393,0.883c-5.064-20.602,22.817-34.414,30.818-42.136
			c8.009-7.735-9.283-35.696-9.283-35.696l-1.054-1.709C140.271,166.268,152.938,145.921,159.411,150.517z"/>
		<path fill="#F9B2CF" d="M119.669,115.782c0,0-3.269-8.068-5.879-17.661c-2.603-9.593-3.03-17.406,13.89-28.748
			c16.91-11.33,14.04-35.563,14.04-35.563c-5.059-18.249-20.081-28.482-38.186-30.994C85.822,0.357,69.172,11.472,57.506,23.63
			c-12.894,13.439-13.78,31.528-10.604,48.988c6.22,34.214,60.677,59.236,60.677,59.236L119.669,115.782z"/>
		<path fill="#F9B2CF" d="M141.592,111.187c1.462-8.964,25.127-30.06,25.127-30.06c53.135-40.599,87.257,11.154,87.257,11.154
			c9.376,6.533,24.211,52.784-8.015,65.503c-32.233,12.691-35.585-11.518-47.85-24.996c-12.267-13.479-37.612-1.789-37.612-1.789
			L141.592,111.187z"/>
		<path fill="#F9B2CF" d="M107.504,146.562c-7.528,3.34-14.255,9.124-22.537,9.967c-9.263,0.936-18.086-2.324-24.398-9.205
			C48.384,134.018,36.837,121.9,15.483,132c-21.356,10.1-12.895,54.561,14.588,75.227c10.61,7.977,23.303,10.794,36.184,7.441
			c12.46-3.247,24.112-9.592,34.022-17.768c4.904-4.048,9.677-8.631,13.447-13.787c3.757-5.129,6.086-11.383,9.616-16.806
			L107.504,146.562z"/>
	</g>
	<g>
		<g>
			<path fill="#E580C4" d="M157.008,123.638c0,0,28.15-24.476,46.648-7.522c18.486,16.967,21.883,47.385,58.188,27.561
				c0,0-11.352,20.707-27.662,17.38c0,0-13.94,4.235-27.862-15.402c0,0-8.074-24.128-26.521-19.279c0,0-17.198,0.921-19.286,4.636
				L157.008,123.638z"/>
		</g>
		<path fill="#E580C4" d="M150.368,161.712c9.805,10.139,24.132,32.155,12.187,45.101c-6.061,6.572-13.748,10.715-20.575,16.485
			c-4.565,3.849-12.346,10.047-12.186,16.753c0.273,12.13,18.673,24.367,19.74,24.609c0,0-31.639-1.817-30.331-24.529
			c0,0-3.277-15.31,31.425-36.471c0,0,4.999-3.42,0.087-16.191c-4.905-12.785-10.432-21.215-10.432-21.215L150.368,161.712z"/>
		<path fill="#E580C4" d="M19.146,130.45c0,0,14.001,4.943,36.991,27.147c0,0,26.334,25.516,54.169-3.447l-2.81-7.589
			c0,0-20.97,12.291-27.782,10.501c-6.809-1.763-19.895-6.92-27.107-18.089C52.634,138.974,34.621,120.458,19.146,130.45z"/>
		<path fill="#E580C4" d="M112.976,121.58c-3.377-6.252-5.899-13.132-7.635-19.999c-1.416-5.583-2.303-11.449-1.774-17.221
			c0.819-9.057,7.56-12.13,14.066-16.432c3.845-2.552,8.856-6.024,11.492-9.887c4.466-6.546,6.42-15.496,9.098-22.871
			c1.187-3.259,0.721-8.31-0.741-11.447c0,0,9.423,20.197,1.241,31.648c0,0-4.257,10.86-23.598,24.835c0,0-8.369,7.066,4.544,35.604
			L112.976,121.58z"/>
	</g>
</g>
<path fill="#7E31C7" d="M134.158,111.668c15.256,0,27.621,12.383,27.621,27.654c0,15.256-12.365,27.641-27.621,27.641
	s-27.622-12.385-27.622-27.641C106.536,124.051,118.902,111.668,134.158,111.668z"/>
<path fill="#F08E5E" d="M134.158,121.927c9.59,0,17.371,7.788,17.371,17.395c0,9.593-7.781,17.381-17.371,17.381
	s-17.371-7.788-17.371-17.381C116.787,129.716,124.568,121.927,134.158,121.927z"/>
<g id="_x3C_群組w_x5F_L_x3E_">
	<g>
		<g>
			<path fill="none" stroke="#000000" stroke-width="3" stroke-miterlimit="10" d="M143.667,126.537
				c0.262,0.228,1.644-0.814,1.884-0.589c0.246,0.227,0.52,0.494,0.747,0.749c0.239,0.253-0.987,1.789-0.773,2.044
				c0.22,0.267,0.74,0.227,0.947,0.48c0.207,0.278,1.802-0.414,1.98-0.135c0.182,0.28-0.227,0.988-0.06,1.27
				c0.174,0.294-0.16,0.869-0.007,1.163c0.146,0.294,0.04,0.708,0.181,1.015c0.133,0.309,1.722,0.054,1.835,0.375
				c0.113,0.32,0.101,0.748,0.2,1.068c0.106,0.319-0.327,0.828-0.247,1.148c0.08,0.347-1.221,0.937-1.161,1.281
				c0.054,0.321,1.675,0.414,1.715,0.749c0.047,0.32,0,0.694,0.027,1.043c0.02,0.346,0.287,0.706,0.287,1.04
				c0,0.349,0.2,0.723,0.192,1.07c-0.025,0.318-1.381,0.587-1.413,0.921c-0.034,0.334-0.683,0.548-0.741,0.882
				c-0.062,0.334,0.08,0.653,0,0.975c-0.08,0.334,1.273,1.043,1.181,1.363c-0.087,0.32-2.021,0.025-2.136,0.348
				c-0.113,0.32-0.08,0.627-0.221,0.937c-0.134,0.307,0.014,0.693-0.146,0.987c-0.145,0.294,1.222,1.442,1.063,1.724
				c-0.175,0.308-0.447,0.589-0.642,0.868c-0.181,0.294-0.594,0.468-0.794,0.748c-0.207,0.268-1.462-0.295-1.676-0.026
				c-0.219,0.268,0.134,1.003-0.094,1.243c-0.227,0.254-0.714,0.227-0.968,0.467c-0.247,0.24,0.309,1.391,0.062,1.604
				c-0.269,0.213-1.075-0.2-1.35,0c-0.272,0.213-0.859-0.054-1.135,0.134c-0.287,0.174,0.154,1.575-0.127,1.735
				c-0.3,0.175-0.921-0.188-1.221-0.054c-0.294,0.161-0.42,0.802-0.729,0.922c-0.307,0.133-1.222-1.216-1.533-1.096
				c-0.321,0.12-0.142,1.776-0.462,1.856c-0.313,0.106-0.968-0.895-1.288-0.828c-0.326,0.079-0.42,1.443-0.746,1.497
				c-0.334,0.053-0.89-1.23-1.223-1.177c-0.327,0.04-0.627,0.654-0.954,0.682c-0.341,0.014-0.693-0.734-1.034-0.734
				c-0.348,0-0.7,0.882-1.04,0.854c-0.327-0.026-0.636-0.614-0.97-0.642c-0.327-0.04-0.661-0.106-0.986-0.16
				c-0.333-0.054-0.5-0.787-0.834-0.867c-0.327-0.08-0.534-0.389-0.868-0.481c-0.313-0.094-0.613-0.094-0.935-0.213
				c-0.313-0.12-0.681,0.013-0.987-0.12c-0.308-0.135-0.728,0.053-1.034-0.107c-0.3-0.134-0.38-0.642-0.674-0.813
				c-0.295-0.174-0.981,0.358-1.262,0.173c-0.287-0.188-0.207-0.854-0.48-1.068c-0.273-0.188-0.694-0.16-0.947-0.374
				c-0.247-0.214-0.521-0.414-0.761-0.642c-0.254-0.229-0.308-0.613-0.547-0.868c-0.24-0.254-0.581-0.36-0.803-0.614
				c-0.214-0.254-0.427-0.495-0.634-0.762c-0.206-0.28,0.273-0.988,0.093-1.256c-0.187-0.294-0.459-0.454-0.626-0.735
				c-0.174-0.294-2.108,0.361-2.27,0.067c-0.146-0.294,1.502-1.456,1.368-1.764c-0.142-0.309-1.742-0.026-1.868-0.349
				c-0.114-0.32,0.453-0.88,0.367-1.201c-0.107-0.32,0.92-0.909,0.853-1.243c-0.08-0.334-0.768-0.479-0.82-0.813
				c-0.061-0.32,0.134-0.654,0.087-0.989c-0.047-0.348-0.773-0.588-0.795-0.934c-0.025-0.35,0.469-0.669,0.469-1.017
				c0-0.349-0.062-0.643-0.048-0.977c0.021-0.333-1.161-0.787-1.129-1.108c0.034-0.348,1.229-0.521,1.289-0.854
				c0.055-0.346-0.955-0.907-0.882-1.229c0.08-0.334,1.063-0.428,1.155-0.748c0.093-0.319,0.934-0.374,1.061-0.693
				c0.113-0.321-1.366-1.257-1.233-1.55c0.141-0.321,1.836,0.12,1.996-0.188c0.146-0.295-0.182-0.801-0.015-1.107
				c0.175-0.296,0.741-0.281,0.935-0.575c0.181-0.28-0.286-0.976-0.086-1.255c0.199-0.268,0.928-0.08,1.146-0.334
				c0.214-0.255,0.36-0.522,0.602-0.763c0.228-0.239-0.74-1.684-0.487-1.896c0.247-0.24,1.261,0.375,1.528,0.146
				c0.261-0.213,0.387-0.573,0.661-0.786c0.272-0.201,0.761-0.068,1.033-0.241c0.286-0.188,0.707-0.08,1.001-0.253
				c0.295-0.174,0.414-0.574,0.708-0.735c0.294-0.16,0-1.656,0.308-1.776c0.307-0.134,1.114,0.923,1.435,0.802
				c0.321-0.12,0.682-0.015,1.015-0.12c0.319-0.107,0.708,0.161,1.027,0.08c0.327-0.08,0.521-0.642,0.854-0.693
				c0.326-0.054,0.727,0.586,1.066,0.546c0.327-0.04,0.581-0.6,0.915-0.626c0.341-0.026,0.646-0.322,0.975-0.322
				c0.341,0,0.733-1.096,1.062-1.068c0.327,0.014,0.567,1.403,0.914,1.444c0.327,0.039,0.814-0.909,1.148-0.855
				c0.327,0.067,0.453,1.149,0.786,1.229c0.327,0.079,0.701-0.105,1.035-0.014c0.319,0.093,0.715-0.04,1.034,0.066
				c0.319,0.105,0.514,0.535,0.82,0.655c0.308,0.133,0.547,0.373,0.854,0.521c0.3,0.146,0.934-0.32,1.228-0.146
				c0.3,0.173-0.087,1.4,0.193,1.59c0.287,0.187,1.095-0.43,1.369-0.215C143.667,125.468,143.408,126.322,143.667,126.537z"/>
		</g>
		<g>
			<path fill="none" stroke="#000000" stroke-width="3" stroke-miterlimit="10" d="M151.016,117.705
				c0.26,0.229-0.08,1.137,0.16,1.363c0.247,0.24,1.102-0.188,1.341,0.04c0.24,0.228,0.101,0.854,0.341,1.109
				c0.24,0.239,1.208-0.188,1.437,0.054c0.227,0.267,0.479,0.533,0.692,0.772c0.221,0.269-1.048,1.711-0.841,1.978
				c0.207,0.269,1.528-0.292,1.722-0.026c0.193,0.27,0.907,0.229,1.095,0.509c0.181,0.268-1.188,1.55-1,1.844
				c0.167,0.28,1.261,0.026,1.421,0.32s-0.74,1.149-0.594,1.443c0.146,0.306,0.693,0.399,0.834,0.694
				c0.146,0.307,1.628,0.025,1.755,0.319c0.134,0.32,0.348,0.643,0.461,0.937c0.127,0.319-0.602,0.961-0.501,1.281
				c0.106,0.32-0.233,0.788-0.146,1.108c0.095,0.321,0.741,0.494,0.821,0.815c0.08,0.333-0.647,0.854-0.581,1.176
				c0.066,0.334,1.729,0.347,1.788,0.668c0.061,0.347-1.114,0.882-1.067,1.229c0.04,0.32,0.795,0.587,0.828,0.921
				c0.033,0.335-0.272,0.722-0.247,1.057c0.021,0.319,0.566,0.653,0.58,0.987c0.007,0.349-0.353,0.694-0.353,1.043
				c0,0.333,0.553,0.694,0.546,1.028c-0.013,0.333-1.274,0.613-1.301,0.947c-0.021,0.32,0.594,0.723,0.561,1.057
				c-0.033,0.333,0.047,0.707-0.013,1.027c-0.047,0.335-1.416,0.429-1.482,0.763c-0.054,0.334,0.033,0.668-0.047,1.001
				c-0.066,0.32,1.369,1.016,1.289,1.337c-0.081,0.334-1.643,0.241-1.742,0.563c-0.1,0.318,0.58,0.881,0.479,1.201
				c-0.113,0.32,0.033,0.735-0.08,1.042c-0.127,0.319,0.395,0.908,0.261,1.229s-1.969-0.134-2.115,0.16
				c-0.154,0.309-0.461,0.495-0.605,0.789c-0.161,0.293,1.479,1.563,1.308,1.856c-0.161,0.293-1.796-0.269-1.969,0.026
				c-0.167,0.28-0.675,0.32-0.868,0.613c-0.181,0.295,0.594,1.202,0.4,1.483c-0.193,0.28-1.175-0.066-1.389,0.213
				c-0.207,0.255-0.127,0.734-0.341,1.002c-0.22,0.255-0.728,0.215-0.961,0.468c-0.228,0.255-0.28,0.614-0.508,0.868
				c-0.239,0.239-0.239,0.683-0.479,0.923c-0.24,0.239-0.486,0.439-0.728,0.682c-0.254,0.214-0.889-0.04-1.154,0.174
				c-0.261,0.228,0.801,2.098,0.54,2.284c-0.268,0.214-1.815-1.31-2.089-1.109c-0.274,0.201,0.548,1.99,0.272,2.179
				c-0.286,0.187-0.899-0.135-1.181,0.054c-0.287,0.173-0.741,0.08-1.041,0.24c-0.294,0.16-1.055-0.588-1.354-0.429
				c-0.294,0.16,0.3,2.139-0.008,2.299c-0.313,0.134-1.481-1.697-1.802-1.564c-0.308,0.148-0.447,0.602-0.761,0.735
				c-0.321,0.12-0.367,0.935-0.688,1.042c-0.319,0.094-0.626,0.254-0.939,0.347c-0.32,0.095-0.654,0.189-0.981,0.269
				c-0.333,0.08-0.867-0.774-1.192-0.723c-0.334,0.08-0.334,1.791-0.661,1.857c-0.334,0.054-0.849-0.896-1.175-0.841
				c-0.334,0.039-0.74-0.71-1.081-0.67c-0.349,0.026-0.527,1.604-0.854,1.631c-0.334,0.025-0.687,0.374-1.014,0.399
				c-0.341,0-0.708-1.615-1.042-1.615c-0.342,0-0.634-0.214-0.968-0.228c-0.326-0.013-0.682,0.628-1.021,0.602
				c-0.334-0.014-0.773,0.947-1.107,0.922c-0.326-0.04-0.475-1.55-0.808-1.591c-0.327-0.04-0.602-0.308-0.937-0.359
				c-0.325-0.067-1.047,1.764-1.374,1.71c-0.334-0.08-0.387-1.31-0.721-1.391c-0.326-0.079-0.772,0.281-1.101,0.176
				c-0.321-0.095-0.314-1.218-0.628-1.323c-0.32-0.106-1.095,1.068-1.414,0.948c-0.321-0.12-0.182-1.35-0.488-1.482
				c-0.307-0.134-0.734,0.026-1.04-0.106c-0.308-0.146-0.646-0.188-0.941-0.349c-0.301-0.146-1.2,0.789-1.493,0.629
				c-0.295-0.16,0.485-2.178,0.205-2.338c-0.286-0.174-1.429,1.001-1.709,0.801c-0.286-0.173-0.112-1.015-0.387-1.216
				c-0.272-0.2-0.413-0.548-0.674-0.761c-0.26-0.214-0.581-0.335-0.828-0.548c-0.267-0.214-1.087,0.213-1.334-0.014
				c-0.254-0.228-0.221-0.775-0.454-1.017c-0.24-0.24-0.754-0.214-0.98-0.454c-0.239-0.239,0.319-1.201,0.087-1.456
				c-0.228-0.254-0.347-0.561-0.554-0.813c-0.221-0.27-0.922-0.107-1.129-0.39c-0.207-0.253-0.853-0.213-1.047-0.492
				c-0.192-0.268,0.373-1.069,0.193-1.351c-0.181-0.282-0.033-0.761-0.207-1.028c-0.167-0.294-1.742,0.241-1.902-0.065
				c-0.159-0.295,1.355-1.484,1.194-1.777c-0.146-0.293-0.293-0.562-0.435-0.868c-0.134-0.308-2.021,0.174-2.161-0.134
				c-0.135-0.308,0.548-0.963,0.421-1.269c-0.12-0.321,0.787-0.989,0.688-1.311c-0.106-0.32-0.654-0.469-0.741-0.788
				c-0.094-0.319-1.802-0.199-1.882-0.521c-0.08-0.334,0.381-0.801,0.308-1.149c-0.066-0.319-0.487-0.612-0.548-0.935
				c-0.054-0.334,1.643-0.948,1.596-1.283c-0.047-0.319-2.069-0.399-2.104-0.748c-0.04-0.333,0.941-0.773,0.922-1.122
				c-0.026-0.319-0.969-0.641-0.98-0.974c-0.015-0.335,1.288-0.709,1.288-1.043c0-0.335-1.034-0.695-1.028-1.028
				c0.014-0.335,0.708-0.654,0.741-0.988c0.027-0.321-0.821-0.763-0.787-1.097c0.04-0.347,2.055-0.427,2.102-0.746
				c0.04-0.334-1.246-0.884-1.187-1.203c0.061-0.349,0.954-0.494,1.027-0.814c0.065-0.334-1.015-0.936-0.935-1.27
				c0.08-0.32,0.94-0.441,1.047-0.763c0.102-0.319,0.843-0.413,0.941-0.734c0.113-0.32-1.437-1.229-1.321-1.549
				c0.126-0.32,0.574-0.522,0.707-0.828c0.142-0.309,0.24-0.643,0.389-0.963c0.146-0.294,1.301-0.105,1.446-0.399
				c0.16-0.294-0.807-1.216-0.646-1.51c0.161-0.295,1.629,0.173,1.81-0.096c0.174-0.293,0.446-0.479,0.627-0.772
				c0.181-0.281,0.113-0.709,0.308-0.989c0.192-0.267,0.548-0.388,0.755-0.654c0.2-0.254-0.97-1.644-0.755-1.91
				c0.214-0.254,1.981,0.829,2.194,0.588c0.229-0.268-0.394-1.281-0.167-1.522c0.241-0.239,0.182-0.802,0.421-1.027
				c0.24-0.241,1.436,0.561,1.676,0.334c0.247-0.229-0.188-1.229,0.066-1.443c0.26-0.229,1.096,0.295,1.354,0.095
				c0.261-0.202-0.113-1.271,0.161-1.458c0.272-0.187,0.899,0.134,1.187-0.065c0.28-0.188,0.968,0.307,1.248,0.134
				c0.286-0.174-0.32-1.87-0.021-2.045c0.293-0.16,0.646-0.268,0.939-0.427c0.301-0.146,0.508-0.574,0.815-0.708
				c0.307-0.146,1.319,1.322,1.635,1.188c0.307-0.134,0-1.829,0.307-1.949c0.32-0.12,1.015,0.814,1.334,0.694
				c0.321-0.094,0.563-0.428,0.882-0.534c0.313-0.094,0.873,0.721,1.2,0.614c0.334-0.08,0.508-0.708,0.821-0.774
				c0.334-0.08,0.661-0.08,0.994-0.16c0.327-0.055,0.595-0.509,0.922-0.549c0.333-0.04,0.761,0.844,1.107,0.815
				c0.34-0.04,0.587-0.615,0.935-0.642c0.327-0.026,0.614-1.176,0.954-1.176c0.327-0.014,0.693,1.71,1.034,1.71
				s0.688-1.35,1.028-1.337c0.326,0.015,0.601,1.162,0.934,1.177c0.327,0.025,0.728-0.773,1.068-0.722
				c0.334,0.027,0.728-0.308,1.061-0.268c0.327,0.055,0.674,0.161,1.001,0.215c0.334,0.066,0.401,1.401,0.722,1.469
				c0.326,0.066,0.907-0.988,1.24-0.909c0.327,0.08,0.568,0.481,0.89,0.563c0.319,0.106,0.438,0.773,0.76,0.883
				c0.319,0.106,0.755-0.147,1.075-0.027c0.313,0.12,0.934-0.521,1.247-0.4c0.308,0.134,0.66,0.214,0.969,0.375
				c0.307,0.146-0.055,1.616,0.253,1.775c0.294,0.16,1.128-0.693,1.422-0.533c0.3,0.146,0.654,0.253,0.935,0.427
				c0.287,0.174,0.921-0.146,1.207,0.04c0.287,0.188-0.013,1.229,0.262,1.416c0.272,0.201,0.414,0.575,0.688,0.774
				C150.068,117.813,150.755,117.492,151.016,117.705z"/>
		</g>
		<g>
			<path fill="none" stroke="#000000" stroke-width="3" stroke-miterlimit="10" d="M158.33,150.383
				c0.307,0.12,0.92-0.479,1.228-0.359c0.32,0.119,0.681,0.093,1.001,0.227c0.321,0.134,0.294,1.096,0.602,1.23
				c0.319,0.119,0.22,1.269,0.539,1.389c0.314,0.134,1.057-0.801,1.362-0.667c0.319,0.133,0.188,1.336,0.493,1.456
				c0.32,0.145,1.102-0.869,1.415-0.735c0.308,0.146,0.313,0.961,0.62,1.095c0.308,0.147,0.693,0.107,1.009,0.27
				c0.307,0.133,0.34,0.813,0.646,0.962c0.308,0.146,1.095-0.669,1.401-0.508c0.293,0.16,0.774,0.013,1.067,0.187
				c0.3,0.174,0.445,0.589,0.739,0.749c0.295,0.173,0.095,1.175,0.389,1.335c0.3,0.174,0.854-0.105,1.142,0.055
				c0.279,0.173,0.246,0.882,0.533,1.056c0.287,0.173,0.447,0.548,0.729,0.733c0.286,0.175,1.208-0.654,1.494-0.48
				c0.28,0.188,0.206,0.936,0.48,1.122c0.28,0.175,1.168-0.562,1.454-0.36c0.287,0.201,0.272,0.789,0.561,0.989
				c0.281,0.2,0.534,0.413,0.81,0.614c0.272,0.199,0.859-0.04,1.134,0.159c0.274,0.2,0.821,0.04,1.088,0.24
				c0.274,0.2-0.414,1.697-0.14,1.884c0.272,0.2,1.562-0.935,1.82-0.721c0.262,0.214-0.406,1.63-0.133,1.844
				c0.261,0.2,1.328-0.589,1.595-0.374c0.261,0.214,0.62,0.308,0.889,0.507c0.26,0.229-0.581,1.777-0.32,1.991
				c0.26,0.214,1.642-0.896,1.888-0.654c0.262,0.214-0.006,1.042,0.255,1.27c0.261,0.227,0.788,0.146,1.034,0.36
				c0.255,0.239,0.594,0.374,0.841,0.601c0.254,0.229,0.207,0.789,0.446,1.003c0.247,0.24,0.327,0.641,0.568,0.881
				c0.24,0.24,0.187,0.804,0.42,1.029c0.24,0.24,0.141,0.813,0.381,1.055c0.239,0.241,1.327-0.372,1.568-0.133
				c0.24,0.24,0.641,0.333,0.866,0.587c0.24,0.241-0.526,1.418-0.292,1.685c0.226,0.239,0.372,0.549,0.6,0.802
				c0.227,0.241,0.501,0.44,0.728,0.694c0.229,0.241,1.708-0.613,1.937-0.374c0.233,0.268-0.134,1.041,0.08,1.281
				c0.22,0.255,0.627,0.35,0.848,0.615c0.214,0.268-0.494,1.282-0.272,1.549c0.214,0.255,0.439,0.495,0.646,0.749
				c0.207,0.269,0.193,0.695,0.407,0.963c0.221,0.267,1.529-0.321,1.736-0.054c0.205,0.266,0.052,0.801,0.246,1.082
				c0.206,0.28,0.253,0.654,0.46,0.922c0.193,0.28-0.113,0.908,0.08,1.175c0.193,0.269,1.216-0.026,1.408,0.24
				c0.192,0.268,0.381,0.563,0.573,0.843c0.193,0.279,0.134,0.721,0.313,1.001c0.188,0.294,0.835,0.28,1.015,0.563
				c0.188,0.294-0.854,1.336-0.681,1.63c0.181,0.267,1.889-0.389,2.067-0.08c0.175,0.267,0.548,0.467,0.723,0.748
				c0.174,0.294,0.192,0.682,0.366,0.975c0.166,0.294,0.199,0.682,0.359,0.976c0.16,0.295-0.326,0.949-0.167,1.256
				c0.16,0.295,0.795,0.335,0.955,0.629c0.16,0.307,0.093,0.722,0.253,1.016c0.147,0.308-0.547,1.028-0.4,1.335
				c0.147,0.309,0.389,0.549,0.534,0.855c0.147,0.308,1.495,0.039,1.643,0.36c0.134,0.294-0.095,0.774,0.047,1.095
				c0.134,0.295,0.875,0.349,1.008,0.669c0.141,0.308-0.761,1.056-0.634,1.375c0.127,0.309,0.773,0.415,0.899,0.735
				c0.12,0.32-0.467,0.908-0.353,1.229c0.127,0.319,0.467,0.534,0.594,0.854c0.113,0.32,0.167,0.669,0.28,0.988
				s-0.58,0.909-0.474,1.229c0.1,0.32,0.199,0.615,0.307,0.948c0.101,0.334,0.146,0.655,0.233,0.976
				c0.094,0.32,1.669,0.24,1.755,0.574c0.081,0.335-0.486,0.814-0.406,1.149c0.08,0.334-0.126,0.721-0.061,1.055
				c0.073,0.321,0.594,0.561,0.653,0.895c0.066,0.335-0.301,0.735-0.254,1.083c0.061,0.335,0.647,0.575,0.694,0.907
				c0.047,0.35,0,0.695,0.032,1.043c0.048,0.334-0.133,0.695-0.1,1.028c0.033,0.334-0.534,0.709-0.501,1.056
				c0.021,0.334,1.455,0.589,1.482,0.937c0.007,0.333,0.032,0.693,0.047,1.027c0.006,0.334-0.12,0.695-0.12,1.029
				c0,0.346-0.855,0.681-0.861,1.015c-0.014,0.349,0.968,0.724,0.941,1.069c-0.021,0.348-1.402,0.587-1.423,0.921
				c-0.021,0.348,1.188,0.788,1.147,1.137c-0.033,0.334-1.454,0.494-1.501,0.842c-0.047,0.334,0.493,0.733,0.434,1.068
				c-0.061,0.334-0.714,0.548-0.773,0.868c-0.066,0.347,0.194,0.721,0.127,1.055c-0.065,0.35-0.594,0.549-0.674,0.869
				c-0.08,0.334,0.013,0.668-0.08,1.001c-0.094,0.334,0.16,0.735,0.06,1.057c-0.105,0.32,1.241,1.121,1.128,1.456
				c-0.113,0.32-0.935,0.414-1.048,0.734c-0.112,0.321-0.994,0.335-1.121,0.654c-0.119,0.319,0.994,1.148,0.854,1.47
				c-0.134,0.308-0.701,0.441-0.854,0.762c-0.146,0.293-0.325,0.587-0.474,0.908c-0.153,0.294,0.021,0.774-0.153,1.096
				c-0.152,0.293-1.327,0.026-1.502,0.32c-0.167,0.294,0.547,1.109,0.367,1.39c-0.188,0.295-0.841,0.281-1.041,0.562
				c-0.18,0.294-0.954,0.16-1.147,0.428c-0.193,0.281-0.228,0.668-0.435,0.937c-0.2,0.267-0.467,0.48-0.667,0.747
				c-0.207,0.268,0.7,1.442,0.486,1.696c-0.212,0.27-1.107-0.04-1.32,0.229c-0.228,0.253-0.407,0.532-0.642,0.801
				c-0.228,0.255-0.113,0.829-0.34,1.082c-0.239,0.242-0.326,0.653-0.566,0.896c-0.241,0.241-1.028-0.08-1.275,0.16
				c-0.254,0.214-0.106,0.882-0.353,1.109c-0.253,0.228-0.146,0.854-0.4,1.082c-0.247,0.239-0.581,0.374-0.828,0.613
				c-0.253,0.214-1.127-0.267-1.381-0.054c-0.26,0.214-0.487,0.468-0.741,0.695c-0.26,0.214-1.181-0.401-1.447-0.188
				c-0.261,0.229-0.134,0.896-0.395,1.123c-0.267,0.188-0.153,0.881-0.414,1.096c-0.26,0.214-0.774,0.095-1.047,0.294
				c-0.273,0.213-1.063-0.294-1.322-0.106c-0.272,0.214-0.013,1.122-0.28,1.309c-0.272,0.2-0.239,0.843-0.513,1.017
				c-0.274,0.2-0.174,0.962-0.447,1.147c-0.287,0.188-0.613,0.321-0.9,0.508c-0.28,0.176-1.676-1.349-1.955-1.176
				c-0.287,0.188-0.301,0.775-0.581,0.962c-0.287,0.174-0.808-0.053-1.094,0.134c-0.287,0.161,0.561,2.245,0.272,2.434
				c-0.301,0.16-1.015-0.402-1.309-0.242c-0.302,0.175-0.548,0.429-0.834,0.589c-0.294,0.16-1.034-0.508-1.335-0.347
				c-0.294,0.16-0.422,0.641-0.715,0.801c-0.3,0.16-0.093,1.31-0.399,1.456c-0.308,0.146-1.39-1.296-1.689-1.149
				c-0.306,0.147-0.039,1.457-0.346,1.617c-0.309,0.134-0.661,0.188-0.968,0.321c-0.314,0.133-0.574,0.387-0.883,0.533
				c-0.306,0.134-0.967-0.561-1.273-0.428c-0.308,0.12-0.334,0.988-0.642,1.122c-0.313,0.106-0.953-0.614-1.261-0.48
				c-0.32,0.12-0.174,1.496-0.479,1.604c-0.321,0.106-0.954-0.668-1.274-0.562s-0.247,1.362-0.567,1.47s-1.074-1.095-1.388-1.002
				c-0.321,0.094-0.788-0.294-1.108-0.2c-0.319,0.081-0.66,0.081-0.979,0.175c-0.32,0.093-0.534,0.561-0.854,0.641
				c-0.326,0.094-0.247,1.75-0.567,1.83c-0.333,0.08-0.913-0.854-1.229-0.774c-0.333,0.08-0.547,0.642-0.881,0.723
				c-0.327,0.053-0.581,0.547-0.907,0.612c-0.334,0.056-0.993-1.575-1.32-1.521c-0.334,0.053-0.628,0.227-0.961,0.279
				c-0.327,0.066-0.555,0.762-0.889,0.814c-0.327,0.04-0.773-0.748-1.102-0.694c-0.333,0.04-0.5,1.416-0.834,1.471
				c-0.327,0.025-0.741-0.509-1.068-0.47c-0.346,0.04-0.626,0.59-0.96,0.615c-0.341,0.015-0.715-0.521-1.049-0.495
				c-0.34,0.027-0.666,0.042-1,0.056c-0.341,0-0.647,0.802-0.981,0.802c-0.341,0.013-0.7-1.47-1.033-1.47
				c-0.342,0-0.661,1.43-1.002,1.416c-0.341,0-0.693,0.267-1.026,0.254c-0.341-0.015-0.647-0.977-0.988-1.002
				c-0.341-0.014-0.661-0.215-0.995-0.241c-0.339-0.014-0.713,0.602-1.047,0.562c-0.341-0.025-0.588-0.907-0.922-0.962
				c-0.327-0.025-0.84,1.604-1.181,1.564c-0.334-0.04-0.435-2.031-0.769-2.071c-0.327-0.053-0.727,0.44-1.061,0.4
				c-0.327-0.066-0.534-0.854-0.854-0.907c-0.327-0.054-0.895,1.215-1.228,1.147c-0.327-0.066-0.843,0.669-1.162,0.589
				c-0.327-0.055-0.287-1.816-0.602-1.897c-0.333-0.08-0.62-0.268-0.934-0.375c-0.334-0.08-0.607-0.268-0.928-0.348
				c-0.314-0.106-0.827,0.469-1.147,0.374c-0.321-0.106-0.741,0.081-1.049-0.026c-0.32-0.094-0.873,0.428-1.182,0.308
				c-0.319-0.119-0.094-1.695-0.399-1.815c-0.32-0.12-0.995,0.654-1.301,0.521c-0.309-0.135-0.342-0.896-0.647-1.028
				c-0.308-0.147-1.229,1.028-1.535,0.867c-0.313-0.134-0.494-0.573-0.788-0.722c-0.3-0.16-0.454-0.615-0.754-0.774
				c-0.294-0.146,0.127-1.55-0.16-1.71c-0.279-0.175-0.979,0.349-1.248,0.16c-0.286-0.188-1.12,0.454-1.395,0.269
				c-0.273-0.188,0.286-1.577,0.027-1.777c-0.274-0.2-1.656,1.056-1.916,0.842c-0.261-0.2,0.093-1.201-0.161-1.416
				c-0.26-0.215-1.174,0.28-1.414,0.055c-0.247-0.229,0.24-1.257,0-1.497c-0.233-0.24-0.146-0.788-0.374-1.017
				c-0.228-0.267,0.066-0.936-0.146-1.175c-0.214-0.268-1.381,0.279-1.582,0.015c-0.206-0.254-0.033-0.816-0.227-1.069
				c-0.193-0.28-0.428-0.521-0.607-0.789c-0.18-0.293,0.146-0.84-0.014-1.122c-0.166-0.293-0.666-0.373-0.827-0.667
				c-0.146-0.294-1.335-0.134-1.462-0.429c-0.133-0.319-0.007-0.747-0.119-1.068c-0.113-0.319,1.054-1.068,0.954-1.389
				c-0.101-0.32-1.034-0.374-1.114-0.708s-0.915-0.494-0.98-0.828c-0.066-0.335,0.566-0.813,0.514-1.135
				c-0.046-0.322,0.361-0.723,0.327-1.043c-0.033-0.349-0.627-0.629-0.634-0.962c-0.015-0.348,0.474-0.683,0.474-1.017
				c0-0.335-0.12-0.654-0.113-0.987c0.027-0.348,0.414-0.628,0.447-0.962c0.033-0.32-1.241-0.829-1.195-1.177
				c0.048-0.318,1.068-0.493,1.137-0.827c0.072-0.32-0.087-0.695-0.008-1.017c0.08-0.348,0.613-0.52,0.7-0.854
				c0.106-0.321,0.607-0.481,0.722-0.802c0.113-0.322,0.366-0.535,0.486-0.855c0.127-0.294-1.147-1.201-1.015-1.496
				c0.141-0.308,1.516-0.027,1.668-0.321c0.146-0.293-1.461-1.521-1.301-1.815c0.16-0.294,1.082-0.188,1.241-0.48
				c0.173-0.279,0-0.788,0.18-1.067c0.188-0.294,0.821-0.294,1.009-0.563c0.18-0.279,0.213-0.667,0.407-0.947
				c0.192-0.28,1.454,0.254,1.646-0.027c0.207-0.253,0-0.813,0.207-1.081s-0.794-1.522-0.581-1.776
				c0.222-0.254,0.756-0.254,0.97-0.521c0.22-0.254,1.755,0.655,1.98,0.4c0.229-0.24-0.407-1.271-0.18-1.522
				c0.227-0.24,1.221,0.253,1.454,0.014c0.24-0.239-0.86-1.804-0.626-2.045c0.239-0.239,1.479,0.563,1.721,0.321
				c0.241-0.229,0-0.988,0.241-1.202c0.253-0.241,0.253-0.735,0.499-0.948c0.254-0.229,0.341-0.642,0.595-0.854
				c0.247-0.229,1.628,0.854,1.89,0.626c0.253-0.214,0.467-0.479,0.721-0.693c0.261-0.214,0.192-0.814,0.439-1.028
				c0.269-0.228,0.113-0.936,0.367-1.136c0.261-0.227,0.674-0.24,0.935-0.455c0.261-0.199,0.581-0.347,0.842-0.561
				c0.26-0.2,0.127-0.935,0.387-1.148c0.274-0.199,0.261-0.774,0.533-0.976c0.274-0.2,0.929,0.08,1.188-0.12
				c0.274-0.201,0.469-0.509,0.729-0.722c0.273-0.2,0.413-0.588,0.674-0.775c0.273-0.213,0.921,0.107,1.182-0.093
				c0.273-0.201,0.728-0.161,0.994-0.361c0.273-0.199-0.106-1.28,0.16-1.47c0.273-0.214,1.516,0.908,1.774,0.708
				c0.273-0.2-0.307-1.549-0.046-1.75c0.272-0.2,1.302,0.615,1.562,0.428c0.274-0.213,0.566-0.387,0.827-0.588
				c0.273-0.188,0.447-0.534,0.708-0.732c0.273-0.215,0-1.083,0.268-1.284c0.268-0.228,0.181-0.841,0.428-1.042
				c0.267-0.213,0.753-0.133,0.993-0.333c0.261-0.241,0.167-0.776,0.4-0.989c0.247-0.239,0.896,0.026,1.088-0.239
				c0.192-0.281,0.413-0.48,0.573-0.803c0.146-0.294-0.387-0.788-0.272-1.122c0.1-0.32,1.194-0.308,1.274-0.642
				c0.066-0.32,0.273-0.654,0.32-1.001c0.033-0.335,0.513-0.669,0.533-1.016c0.013-0.334-1.062-0.683-1.067-1.028
				c-0.014-0.335,0.748-0.723,0.729-1.069c-0.026-0.319,0.467-0.748,0.42-1.095c-0.047-0.322-0.486-0.643-0.548-0.977
				c-0.06-0.334-0.761-0.562-0.834-0.896c-0.066-0.32,0.16-0.722,0.08-1.056s-1.389-0.334-1.469-0.683
				c-0.08-0.318,0.82-0.907,0.729-1.229c-0.088-0.32,0.38-0.829,0.272-1.148c-0.101-0.319-0.181-0.669-0.28-1.003
				c-0.106-0.319,0.008-0.734-0.094-1.056c-0.113-0.319-0.934-0.399-1.047-0.707c-0.113-0.321-0.341-0.603-0.468-0.922
				c-0.127-0.321-0.841-0.375-0.967-0.694c-0.127-0.319,1.181-1.229,1.047-1.522c-0.127-0.321-1.107-0.295-1.229-0.602
				c-0.14-0.319,0.373-0.923,0.239-1.217c-0.139-0.32-0.119-0.708-0.252-1.015c-0.134-0.32-0.614-0.481-0.755-0.788
				c-0.146-0.309-1.521-0.04-1.675-0.349c-0.146-0.307,1.395-1.429,1.24-1.724c-0.146-0.32-0.939-0.32-1.088-0.614
				c-0.152-0.295-0.768-0.375-0.914-0.682c-0.16-0.307,0.614-1.082,0.453-1.376c-0.16-0.308-1.262-0.106-1.422-0.414
				c-0.159-0.308,0.174-0.867,0.021-1.162c-0.166-0.308-1.049-0.214-1.201-0.508c-0.174-0.294-0.607-0.428-0.769-0.722
				c-0.167-0.308-0.021-0.774-0.181-1.068c-0.179-0.32,0.273-0.976,0.114-1.23c-0.194-0.347,0.287-1.015,0.133-1.269
				c-0.327-0.548-0.68-0.187-0.94-0.615c-0.26-0.427-0.581-0.227-0.854-0.652c-0.273-0.429-0.273-0.429-0.534-0.843"/>
		</g>
		<g>
			<path fill="none" stroke="#000000" stroke-width="3" stroke-miterlimit="10" d="M106.182,132.4
				c-0.466-0.213-0.499,0.2-1.101-0.08c-0.254-0.133-0.32-0.774-0.674-0.948c-0.274-0.146-0.114-1.216-0.441-1.39
				c-0.286-0.146-0.927,0.388-1.24,0.228c-0.286-0.146-0.106-1.229-0.428-1.389c-0.28-0.16-0.793,0.106-1.101-0.054
				c-0.287-0.16-0.674-0.134-0.981-0.321c-0.287-0.16-0.207-1.016-0.514-1.176c-0.28-0.159-0.794,0.065-1.094-0.093
				c-0.281-0.16-0.454-0.549-0.763-0.722c-0.287-0.162-1.221,0.814-1.526,0.654c-0.281-0.161-0.396-0.668-0.701-0.829
				c-0.287-0.16-0.309-0.828-0.607-0.989c-0.286-0.159-0.808,0.055-1.102-0.105c-0.287-0.173-0.896,0.188-1.188,0.025
				c-0.287-0.186-0.534-0.427-0.828-0.587c-0.286-0.173-0.854,0.107-1.142-0.08c-0.286-0.159,0.293-1.764,0-1.937
				c-0.286-0.174-0.48-0.509-0.769-0.683c-0.279-0.174-0.975,0.32-1.273,0.134c-0.281-0.188-1.048,0.4-1.328,0.215
				c-0.287-0.189-0.479-0.509-0.768-0.695c-0.28-0.188-0.193-0.947-0.476-1.122c-0.286-0.187-0.56-0.374-0.847-0.562
				c-0.28-0.188-0.661-0.24-0.936-0.428c-0.279-0.188-0.101-1.068-0.388-1.255c-0.279-0.188-1.127,0.467-1.407,0.293
				c-0.272-0.199-0.221-0.896-0.494-1.068c-0.272-0.2-0.192-0.896-0.473-1.096c-0.273-0.188-0.882,0.08-1.155-0.12
				c-0.272-0.199-0.101-1.016-0.374-1.216c-0.272-0.2-1.527,0.948-1.802,0.763c-0.272-0.201-0.08-1.057-0.354-1.244
				c-0.274-0.214-0.987,0.189-1.262,0c-0.273-0.214,0.113-1.282-0.161-1.481c-0.272-0.2-1.229,0.493-1.486,0.28
				c-0.273-0.201-0.835-0.054-1.096-0.24c-0.268-0.214,0.602-1.87,0.327-2.085c-0.261-0.213-1.114,0.309-1.375,0.107
				c-0.267-0.214-0.573-0.374-0.834-0.588c-0.261-0.228,0.24-1.376-0.014-1.59c-0.261-0.229-0.861-0.015-1.128-0.229
				c-0.26-0.213-0.936,0.04-1.183-0.173c-0.26-0.229-0.721-0.229-0.968-0.441c-0.254-0.214,0.054-1.096-0.207-1.31
				c-0.246-0.24,0-1.016-0.246-1.256c-0.254-0.214-0.788-0.12-1.041-0.347c-0.247-0.229-1.614,0.747-1.869,0.521
				c-0.246-0.228,0.241-1.242-0.006-1.481c-0.254-0.241-1.027,0.08-1.269-0.16c-0.24-0.241,0.367-1.351,0.126-1.59
				c-0.239-0.24-0.446-0.494-0.68-0.762c-0.24-0.241-0.128-0.815-0.367-1.057c-0.24-0.227-1.596,0.603-1.835,0.36
				c-0.24-0.254-0.127-0.827-0.354-1.067c-0.228-0.269-0.889-0.106-1.115-0.362c-0.228-0.253-0.021-0.896-0.246-1.146
				c-0.232-0.254,0.214-1.097-0.014-1.351c-0.227-0.268-1.607,0.493-1.836,0.24c-0.214-0.268,0.261-1.122,0.047-1.376
				c-0.221-0.267,0.102-0.962-0.113-1.216c-0.221-0.268-0.605-0.375-0.819-0.641c-0.207-0.269-1.482,0.292-1.688,0.025
				c-0.2-0.279,0.025-0.883-0.18-1.162c-0.207-0.268-0.147-0.735-0.341-1.002c-0.193-0.279-1.517,0.227-1.723-0.054
				c-0.192-0.294,1.095-1.59,0.9-1.857c-0.193-0.28-1.515,0.201-1.708-0.094c-0.181-0.293,1.141-1.521,0.953-1.815
				c-0.179-0.281-2.049,0.468-2.229,0.188c-0.173-0.295,1.375-1.604,1.216-1.896c-0.167-0.308-1.694,0.187-1.861-0.12
				c-0.174-0.308-0.127-0.722-0.287-1.016c-0.16-0.293-1.028-0.254-1.188-0.548c-0.146-0.308,1.063-1.283,0.914-1.604
				c-0.146-0.293-0.387-0.561-0.533-0.854c-0.141-0.32-0.768-0.4-0.899-0.723c-0.141-0.308,0.26-0.841,0.133-1.162
				c-0.12-0.319-0.394-0.573-0.507-0.896c-0.127-0.32-0.04-0.694-0.154-1.015c-0.112-0.32-0.307-0.602-0.406-0.923
				c-0.101-0.308,0.047-0.708-0.047-1.028c-0.094-0.333-0.326-0.602-0.421-0.936c-0.094-0.319-0.801-0.48-0.874-0.814
				c-0.08-0.334-0.935-0.494-1.008-0.842c-0.066-0.319,0.901-0.868,0.834-1.202c-0.06-0.348,0.134-0.722,0.08-1.056
				c-0.06-0.334-0.854-0.548-0.914-0.896c-0.054-0.334-0.308-0.642-0.359-0.976c-0.062-0.334-0.613-0.602-0.675-0.947
				c-0.047-0.35,0.98-0.829,0.935-1.178c-0.047-0.347-0.753-0.587-0.786-0.934c-0.047-0.349-0.147-0.669-0.181-1.017
				s0.294-0.722,0.261-1.056c-0.034-0.335,0.433-0.734,0.398-1.068c-0.032-0.349-0.026-0.682-0.047-1.028
				c-0.021-0.348-0.867-0.628-0.887-0.962c-0.021-0.349,0.273-0.722,0.26-1.055c-0.02-0.335,0.728-0.724,0.722-1.058
				c-0.015-0.348-1.321-0.654-1.335-0.986c-0.014-0.349,1.574-0.709,1.574-1.043c0-0.349-0.595-0.67-0.595-1.016
				c0-0.348-0.673-0.694-0.66-1.043c0.015-0.347,0.774-0.668,0.787-1.002c0.007-0.333-0.253-0.693-0.239-1.028
				c0.021-0.348,0.693-0.642,0.714-0.988c0.026-0.346-1.367-0.788-1.327-1.121c0.032-0.348,1.228-0.574,1.261-0.923
				c0.033-0.334,0.273-0.653,0.32-0.988c0.047-0.334-0.308-0.721-0.261-1.056c0.04-0.349-0.7-0.8-0.642-1.135
				c0.061-0.334,0.047-0.694,0.101-1.029c0.062-0.348,1.223-0.48,1.275-0.802c0.073-0.333-1.282-0.976-1.202-1.311
				c0.067-0.333,1.309-0.413,1.389-0.746c0.08-0.32-0.105-0.723-0.025-1.057c0.094-0.334,0.207-0.655,0.307-0.976
				c0.094-0.348,0.348-0.614,0.446-0.936c0.101-0.347,0.708-0.479,0.809-0.802c0.113-0.32-0.193-0.788-0.08-1.108
				c0.113-0.319,0.334-0.601,0.46-0.923c0.12-0.319-0.653-0.987-0.514-1.309c0.134-0.32,1.162-0.253,1.295-0.562
				c0.142-0.308,0.98-0.295,1.128-0.589c0.146-0.32-0.181-0.827-0.021-1.135c0.146-0.307-0.914-1.256-0.754-1.55
				s1.607,0.12,1.774-0.174c0.174-0.308,0.642-0.4,0.813-0.694c0.167-0.295,0.181-0.668,0.36-0.962
				c0.188-0.28-0.127-0.882,0.066-1.148c0.193-0.295-0.193-0.976,0.014-1.256c0.193-0.268,0.014-0.854,0.221-1.122
				c0.199-0.268,1.193,0.04,1.407-0.215c0.207-0.267,0-0.881,0.228-1.148c0.221-0.267,1.436,0.32,1.668,0.055
				c0.228-0.24,0.648-0.294,0.875-0.549c0.227-0.252,0.146-0.762,0.388-1.016c0.228-0.239-0.675-1.59-0.447-1.83
				c0.24-0.239,1.414,0.429,1.654,0.2c0.24-0.239,0.135-0.813,0.374-1.055c0.24-0.241-0.08-1.043,0.174-1.283
				c0.24-0.214,1.194,0.28,1.436,0.055c0.24-0.229,0.728-0.2,0.968-0.429c0.247-0.239-0.221-1.256,0.033-1.47
				c0.254-0.24,0.407-0.574,0.661-0.788c0.254-0.227,1.722,0.948,1.98,0.734c0.254-0.213-0.674-1.816-0.42-2.03
				c0.261-0.227,1.614,0.896,1.875,0.695c0.268-0.215,0.515-0.415,0.774-0.643c0.267-0.2,0.254-0.748,0.514-0.947
				c0.268-0.2-0.307-1.511-0.033-1.697c0.261-0.213,0.961,0.146,1.229-0.053c0.272-0.215,1.141,0.427,1.414,0.239
				c0.273-0.199,0.515-0.428,0.788-0.613c0.273-0.189-0.454-1.857-0.181-2.031c0.273-0.2,1.309,0.734,1.589,0.548
				c0.286-0.174,0.347-0.708,0.627-0.896c0.287-0.173,0.014-1.255,0.301-1.429c0.28-0.174,0.795-0.014,1.081-0.174
				c0.287-0.188,0.968,0.294,1.255,0.134c0.294-0.174,0.2-1.015,0.501-1.176c0.294-0.161,0.78,0.026,1.08-0.134
				c0.294-0.16,0.661-0.188,0.969-0.334c0.293-0.146,0.4-0.734,0.693-0.881C77.81,6.682,78.61,7.59,78.918,7.43
				c0.308-0.134,0.065-1.47,0.374-1.617c0.306-0.133,1.207,1.098,1.515,0.978c0.308-0.135,0.515-0.494,0.834-0.614
				c0.308-0.122,0.233-1.23,0.555-1.351c0.319-0.12,0.98,0.708,1.302,0.602c0.313-0.12,0.359-1.043,0.68-1.136
				c0.321-0.107,0.729,0.053,1.049-0.04c0.32-0.107,0.881,0.615,1.194,0.508c0.32-0.08,0.42-0.962,0.754-1.069
				c0.327-0.08,0.788,0.4,1.115,0.321c0.333-0.081,0.42-1.216,0.753-1.282c0.327-0.066,1.016,1.655,1.343,1.604
				c0.332-0.067,0.272-2.365,0.606-2.405c0.327-0.065,0.828,0.949,1.168,0.909c0.334-0.054,0.605-0.655,0.946-0.695
				c0.335-0.025,0.676-0.174,1.016-0.2c0.334-0.014,0.755,1.057,1.081,1.029c0.334-0.025,0.674,0.16,1.001,0.146
				c0.334-0.014,0.654-1.311,0.994-1.311c0.327,0,0.661,1.217,1.001,1.217c0.327,0.014,0.741-1.536,1.082-1.522
				c0.333,0.026,0.605,1.229,0.946,1.256c0.327,0.026,0.694-0.214,1.035-0.174c0.332,0.04,0.721-0.254,1.047-0.201
				c0.335,0.041,0.447,1.604,0.774,1.658c0.334,0.052,0.675-0.027,1.001,0.025c0.333,0.054,0.928-1.336,1.255-1.282
				c0.334,0.054,0.581,0.548,0.913,0.613c0.327,0.081,0.388,1.338,0.715,1.417c0.334,0.066,1.028-1.47,1.354-1.39
				c0.334,0.08,0.721-0.067,1.048,0.026c0.334,0.08,0.628,0.319,0.948,0.428c0.318,0.08,0.6,0.347,0.921,0.454
				c0.32,0.105,0.146,1.764,0.467,1.871c0.32,0.094,0.641,0.133,0.947,0.253c0.32,0.12,1.208-1.416,1.516-1.296
				c0.32,0.106,0.167,1.456,0.475,1.577c0.313,0.134,1.041-0.804,1.348-0.669c0.308,0.135,0.628,0.268,0.936,0.399
				c0.307,0.134,0.808-0.133,1.113,0c0.309,0.147,0.603,0.35,0.901,0.509c0.293,0.134,0.228,1.056,0.533,1.202
				c0.294,0.147,0.802-0.066,1.095,0.08c0.294,0.161,0.341,0.775,0.628,0.962c0.293,0.16,1.054-0.48,1.341-0.294
				c0.287,0.16,0.015,1.27,0.301,1.442c0.28,0.188,0.101,1.043,0.388,1.229c0.28,0.188,0.772,0.026,1.048,0.229
				c0.272,0.2,0.521,0.387,0.794,0.572c0.273,0.202,1.388-0.721,1.647-0.521c0.269,0.2-0.307,1.483-0.039,1.67
				c0.261,0.229,1.501-0.747,1.747-0.535c0.255,0.229,0.516,0.482,0.77,0.695c0.246,0.241-0.468,1.511-0.221,1.737
				c0.239,0.239,0.895,0.054,1.128,0.279c0.238,0.229,0.094,0.842,0.318,1.082c0.229,0.241,0.448,0.508,0.676,0.748
				c0.227,0.241,0.98,0.015,1.194,0.269c0.213,0.239,0.174,0.733,0.387,0.987c0.221,0.269-0.373,1.149-0.174,1.402
				c0.206,0.254,2.144-0.787,2.35-0.521c0.192,0.28-1.027,1.577-0.834,1.845s1.008,0.106,1.187,0.399
				c0.182,0.269,0.581,0.429,0.763,0.708c0.187,0.28-0.088,0.843,0.079,1.123c0.175,0.28,0,0.761,0.16,1.057
				c0.16,0.306,0.642,0.426,0.801,0.721c0.159,0.294,0.729,0.374,0.875,0.668c0.146,0.307,0.888,0.347,1.027,0.641
				c0.134,0.321-1.429,1.391-1.289,1.685c0.134,0.308,0.214,0.602,0.341,0.923c0.128,0.307,2.082-0.094,2.21,0.213
				c0.112,0.308-0.581,0.935-0.469,1.256c0.114,0.321,1.129,0.334,1.229,0.655c0.106,0.319-0.634,0.935-0.534,1.255
				c0.107,0.32,0.287,0.642,0.381,0.962c0.087,0.494-0.754,0.454-0.708,1.082c0.021,0.28,0.08,0.601,0.087,0.976
				c0.015,0.309-0.467,0.643-0.454,1.002c0.015,0.309,1.855,0.614,1.869,0.977c0,0.319-0.979,0.641-0.987,0.987
				c0,0.32,0,0.654-0.014,0.989c-0.013,0.32-0.728,0.627-0.741,0.961c-0.025,0.321,1.103,0.734,1.082,1.068
				c-0.021,0.349-1.469,0.535-1.496,0.882c-0.032,0.334,1.177,0.774,1.144,1.122c-0.034,0.32,0.26,0.709,0.227,1.043
				c-0.047,0.319,0.015,0.681-0.047,1.015c-0.04,0.32,0.207,0.722,0.153,1.042c-0.061,0.32-1.868,0.334-1.941,0.669
				c-0.065,0.319,0.354,0.733,0.286,1.068c-0.066,0.32-0.134,0.641-0.213,0.962c-0.08,0.32-0.24,0.613-0.334,0.947
				c-0.08,0.32,0.646,0.869,0.547,1.189c-0.094,0.32,0.24,0.801,0.146,1.122c-0.101,0.32-0.975,0.373-1.095,0.694
				c-0.101,0.32-1.229,0.253-1.354,0.574c-0.112,0.307-0.307,0.573-0.426,0.882c-0.127,0.308,1.693,1.43,1.555,1.749
				c-0.134,0.295-1.635,0-1.775,0.295c-0.134,0.294-0.239,0.613-0.388,0.907c-0.146,0.309,0.101,0.802-0.053,1.096
				c-0.16,0.309-0.142,0.694-0.314,0.988c-0.166,0.295-0.634,0.401-0.813,0.683c-0.187,0.28,0.388,1.056,0.199,1.349
				c-0.18,0.269-1.421-0.187-1.628,0.08c-0.192,0.282,0.755,1.417,0.549,1.685c-0.207,0.268-1.096,0-1.31,0.254
				c-0.22,0.254-0.772,0.199-1.001,0.454c-0.22,0.255,0.588,1.47,0.354,1.724c-0.234,0.24-0.629,0.36-0.868,0.602
				c-0.24,0.229-0.914,0.04-1.161,0.254c-0.253,0.229-0.4,0.561-0.66,0.788c-0.254,0.214-0.922-0.066-1.188,0.134
				c-0.261,0.2-0.827-0.026-1.103,0.174c-0.273,0.2,0.327,1.63,0.047,1.831c-0.287,0.199-0.354,0.653-0.627,0.841
				c-0.274,0.201-1.268-0.642-1.542-0.454c-0.273,0.188-0.521,0.428-0.794,0.615c-0.273,0.2-0.047,1.067-0.308,1.269
				c-0.272,0.2-1.502-0.881-1.769-0.681c-0.273,0.213,0.562,1.815,0.3,2.017c-0.267,0.214-1.141-0.347-1.395-0.146
				c-0.26,0.227-0.567,0.374-0.814,0.601c-0.267,0.229-0.507,0.454-0.754,0.683c-0.253,0.213,0.193,1.188-0.032,1.415
				c-0.254,0.229-0.661,0.268-0.889,0.48c-0.24,0.24-1.288-0.319-1.515-0.08c-0.24,0.24,0.278,1.176,0.066,1.417
				c-0.228,0.253-0.4,0.535-0.602,0.774c-0.22,0.267-1.095-0.015-1.302,0.239c-0.206,0.28-0.294,0.643-0.486,0.909
				c-0.193,0.268,0.327,1.016,0.153,1.295c-0.181,0.28-0.941,0.2-1.103,0.481c-0.174,0.294,0.661,1.096,0.515,1.376
				c-0.146,0.307-0.882,0.293-1.002,0.587c-0.14,0.309,0.374,0.814,0.262,1.124c-0.113,0.319-1.563,0.159-1.655,0.479
				c-0.087,0.32-0.193,0.669-0.26,0.989c-0.08,0.334,1.001,0.854,0.946,1.188c-0.06,0.334-0.46,0.575-0.492,0.896
				c-0.034,0.334-1.556,0.588-1.568,0.909c-0.014,0.347,0.34,0.72,0.353,1.055c0.008,0.334,0.274,0.681,0.294,1.016
				c0.021,0.334,0.516,0.627,0.549,0.962c0.032,0.334-0.354,0.734-0.309,1.057c0.047,0.334-0.18,0.72-0.127,1.041
				c0.062,0.348,0.708,0.562,0.774,0.882c0.066,0.321,1.241,0.401,1.32,0.722c0.08,0.308-0.032,0.668,0.062,0.988
				c0.08,0.32,0.033,0.682,0.12,0.989c0.093,0.347-0.907,0.975-0.813,1.309c0.086,0.32-0.04,0.749,0.054,1.069
				c0.093,0.334,0.979,0.427,1.081,0.773c0.105,0.32-0.661,0.909-0.556,1.243c0.102,0.333,1.549,0.253,1.649,0.574
				c0.1,0.347-0.901,1.015-0.795,1.336c0.101,0.347,0.508,0.574,0.613,0.895c0.102,0.334,1.147,0.36,1.256,0.682
				c0.112,0.32,0.294,0.614,0.394,0.937c0.113,0.333-0.467,0.896-0.36,1.215c0.113,0.335-0.348,0.855-0.239,1.162
				c0.112,0.35,1.095,0.374,1.194,0.683c0.113,0.334-0.533,0.936-0.421,1.256c0.127,0.334,0.193,0.681,0.308,0.987
				c0.127,0.334,0.641,0.522,0.754,0.815c0.12,0.36,0.621,0.534,0.741,0.829c0.134,0.373-1.016,1.175-0.901,1.455
				c0.24,0.629,0.547,0.348,0.741,0.814"/>
		</g>
		<g>
			<path fill="none" stroke="#000000" stroke-width="3" stroke-miterlimit="10" d="M159.45,131.199
				c0.461-0.214-0.146-1.283,0.448-1.522c0.26-0.107,0.867,0.453,1.222,0.319c0.279-0.12,1.021,0.909,1.36,0.775
				c0.301-0.107,0.174-1.391,0.508-1.51c0.294-0.095,0.94,0.761,1.274,0.653c0.307-0.105,0.167-1.59,0.487-1.71
				c0.307-0.094,0.561-0.468,0.873-0.574c0.313-0.094,1.169,1.591,1.481,1.511c0.32-0.095,0.654-0.055,0.98-0.16
				c0.32-0.08,0.367-1.189,0.693-1.271c0.32-0.08,0.563-0.548,0.883-0.628c0.313-0.08,0.659-0.105,0.986-0.187
				c0.32-0.054,0.947,1.335,1.274,1.281c0.32-0.066,0.268-2.19,0.594-2.257c0.334-0.055,1.001,1.989,1.335,1.949
				c0.327-0.04,0.374-2.044,0.707-2.084c0.327-0.04,0.729,0.308,1.056,0.28c0.334-0.026,0.613-0.749,0.947-0.775
				c0.326-0.025,0.74,0.723,1.081,0.709c0.333-0.014,0.647-0.683,0.981-0.694c0.326-0.015,0.713,1.482,1.047,1.482
				c0.327,0,0.646,0.214,0.98,0.214c0.327,0,0.7-1.455,1.048-1.442c0.326,0,0.682,0.106,1.009,0.134
				c0.333,0.027,0.546,1.337,0.88,1.377c0.327,0.04,0.795-0.989,1.129-0.949c0.327,0.054,0.521,0.977,0.84,1.042
				c0.334,0.055,0.708-0.159,1.028-0.093c0.327,0.066,0.968-1.029,1.287-0.949c0.313,0.08,0.101,2.044,0.421,2.15
				c0.32,0.094,0.761-0.268,1.082-0.146c0.32,0.106,0.613,0.2,0.92,0.348c0.308,0.121,0.955-0.508,1.269-0.348
				c0.294,0.146,0.693,0.188,0.975,0.348c0.301,0.161,0.399,0.669,0.688,0.854c0.281,0.159,0.201,0.896,0.476,1.068
				c0.272,0.2,1.428-0.775,1.701-0.562c0.261,0.2-0.348,1.471-0.08,1.697c0.247,0.212,0.501,0.413,0.74,0.654
				c0.24,0.213,0.681,0.253,0.907,0.493c0.228,0.255-0.134,1.003,0.094,1.257c0.214,0.254,1.568-0.44,1.774-0.2
				c0.221,0.267-0.979,1.656-0.772,1.924c0.207,0.267,1.936-0.668,2.143-0.388c0.207,0.254,0.34,0.601,0.534,0.867
				c0.191,0.268,0.646,0.375,0.84,0.642c0.193,0.28,0.388,0.575,0.574,0.854c0.192,0.269,0.28,0.615,0.474,0.908
				c0.188,0.269-0.54,1.176-0.359,1.457c0.181,0.28,1.407-0.12,1.595,0.16c0.181,0.281-0.913,1.39-0.729,1.67
				c0.182,0.294,1.39-0.106,1.569,0.187c0.18,0.295,0.08,0.749,0.26,1.043c0.188,0.279-0.693,1.229-0.514,1.523
				c0.187,0.293,0.594,0.426,0.781,0.706c0.179,0.281,0.179,0.683,0.358,0.976c0.182,0.281,1.175,0.027,1.355,0.321
				c0.187,0.268-0.487,1.148-0.309,1.416c0.194,0.268,1.288-0.066,1.481,0.214c0.193,0.267,0.628,0.374,0.821,0.642
				c0.192,0.269-0.294,1.041-0.095,1.31c0.207,0.268,1.528-0.321,1.735-0.054c0.2,0.268-1.128,1.735-0.914,1.99
				c0.206,0.268,0.674,0.334,0.888,0.602c0.221,0.254,0.228,0.723,0.461,0.963c0.228,0.252,0.668,0.318,0.894,0.561
				c0.229,0.24,0.849,0.134,1.075,0.36c0.24,0.24,0.327,0.628,0.581,0.854c0.247,0.229,0.501,0.469,0.747,0.682
				c0.253,0.214,0.594,0.348,0.854,0.562c0.268,0.188,0.447,0.534,0.721,0.723c0.273,0.188,0.375,0.668,0.646,0.853
				c0.274,0.188,1.188-0.64,1.482-0.466c0.286,0.174-0.262,1.855,0.032,2.018c0.302,0.16,1.049-0.535,1.354-0.401
				c0.301,0.135,0.788-0.134,1.095,0c0.307,0.106,0.58,0.295,0.9,0.415c0.308,0.119,0.468,0.707,0.795,0.813
				c0.32,0.08,0.787-0.359,1.12-0.28c0.32,0.079,0.708-0.214,1.049-0.146c0.327,0.065,0.566,0.507,0.907,0.561
				c0.333,0.04,0.533,1.256,0.867,1.283c0.326,0.026,0.809-1.737,1.147-1.711c0.333,0.027,0.627,0.08,0.968,0.08
				c0.333,0.013,0.66,1.657,1.009,1.657c0.325,0,0.646-0.937,0.986-0.937c0.334-0.014,0.661-0.094,0.995-0.134
				c0.327-0.014,0.539-1.068,0.873-1.108c0.327-0.039,0.854,1.536,1.195,1.482c0.334-0.04,0.707,0.146,1.047,0.08
				c0.334-0.054,0.693-0.026,1.028-0.094c0.319-0.066,0.66-0.16,1.001-0.24c0.319-0.066,0.5-0.841,0.834-0.908
				c0.313-0.08,0.854,0.588,1.169,0.494c0.318-0.08,0.525-0.641,0.853-0.734c0.32-0.093,0.494-0.682,0.821-0.774
				c0.32-0.106,0.613-0.28,0.934-0.387c0.32-0.095,0.548-0.455,0.868-0.575c0.308-0.093,0.614-0.239,0.936-0.36
				c0.318-0.105,1.101,1.042,1.421,0.908c0.308-0.106,0.207-1.335,0.526-1.47c0.313-0.135,0.308-0.961,0.613-1.097
				c0.308-0.134,1.516,1.738,1.81,1.605c0.307-0.16,0.14-1.31,0.434-1.47c0.308-0.148,0.515-0.454,0.809-0.614
				c0.301-0.16,0.341-0.749,0.642-0.909c0.294-0.174,1.16,0.629,1.435,0.441c0.287-0.175,0.854,0.04,1.128-0.147
				c0.279-0.188,0.101-1.068,0.373-1.257c0.273-0.199,0.821-0.053,1.082-0.266c0.268-0.188,0.833-0.08,1.094-0.294
				c0.262-0.215-0.405-1.524-0.159-1.751c0.254-0.228,0.606-0.319,0.841-0.561c0.24-0.229,0.768-0.175,1.009-0.415
				c0.239-0.24,0.339-0.614,0.566-0.854c0.227-0.254,0.728-0.269,0.947-0.507c0.214-0.268,0.953-0.135,1.16-0.401
				c0.2-0.269-1.301-1.816-1.106-2.083c0.192-0.27,1.882,0.506,2.062,0.227c0.18-0.28-0.955-1.402-0.773-1.696
				c0.18-0.294,0.761-0.294,0.935-0.587c0.174-0.296,0.421-0.535,0.581-0.829s1.494,0,1.642-0.308
				c0.146-0.295-0.66-1.067-0.527-1.377c0.141-0.307,0.773-0.414,0.915-0.721c0.127-0.308-1.143-1.163-1.028-1.47
				c0.113-0.32,2.169,0.054,2.282-0.269c0.101-0.319-0.467-0.868-0.367-1.188c0.101-0.32-0.26-0.775-0.173-1.108
				c0.093-0.321-0.234-0.749-0.16-1.068c0.08-0.334,0.387-0.589,0.46-0.908c0.067-0.334,1.503-0.4,1.569-0.723
				c0.064-0.334-0.941-0.867-0.889-1.201c0.061-0.32,0.341-0.614,0.4-0.964c0.047-0.319,0.467-0.613,0.501-0.946
				c0.033-0.334-0.101-0.694-0.067-1.043c0.033-0.334-0.613-0.734-0.594-1.057c0.021-0.333,1.341-0.587,1.354-0.934
				c0.02-0.335-1.176-0.723-1.161-1.07c0.014-0.333-0.548-0.667-0.534-1.014c0.007-0.349,1.114-0.669,1.114-1.017
				c0-0.321-0.192-0.667-0.206-1.016c-0.007-0.32-0.08-0.668-0.087-0.988c-0.015-0.334-0.788-0.642-0.814-0.961
				c-0.021-0.335,1.428-0.775,1.401-1.123c-0.021-0.321-0.341-0.655-0.373-0.988c-0.033-0.32-1.402-0.522-1.449-0.855
				c-0.033-0.319,1.735-0.907,1.688-1.229c-0.047-0.333-1.461-0.481-1.516-0.802c-0.047-0.348-0.374-0.628-0.434-0.963
				c-0.054-0.32,0.227-0.721,0.173-1.041c-0.061-0.334,0.795-0.844,0.741-1.177c-0.073-0.319-0.254-0.641-0.32-0.987
				c-0.065-0.32-0.174-0.654-0.254-0.989c-0.08-0.32-1.521-0.32-1.603-0.64c-0.079-0.335-0.3-0.615-0.38-0.937
				c-0.087-0.334,0.834-0.937,0.741-1.242c-0.087-0.335,0.046-0.722-0.047-1.043c-0.101-0.308,0.14-0.748,0.04-1.068
				c-0.107-0.32-0.962-0.4-1.075-0.722c-0.101-0.307-0.468-0.549-0.581-0.868c-0.113-0.32,1.175-1.148,1.063-1.455
				c-0.113-0.32-2.336,0.174-2.449-0.134c-0.127-0.321,0-0.71-0.127-1.017s0.728-1.028,0.595-1.35
				c-0.141-0.309-0.694-0.429-0.842-0.722c-0.153-0.32-0.74-0.375-0.895-0.668c-0.146-0.319,0.722-1.123,0.573-1.416
				c-0.16-0.32-1.313-0.066-1.468-0.36c-0.16-0.293,0.407-1.001,0.247-1.296c-0.167-0.294-0.214-0.668-0.389-0.937
				c-0.18-0.293-0.532-0.467-0.714-0.747c-0.191-0.28-0.687-0.348-0.881-0.602c-0.206-0.28-0.954-0.067-1.175-0.32
				c-0.214-0.281,0.188-1.016-0.04-1.242c-0.24-0.24-0.687-0.228-0.927-0.44c-0.261-0.24-0.588-0.44-0.854-0.614
				c-0.341-0.361,0.026-0.562-0.359-1.082c-0.175-0.241-0.58-0.335-0.809-0.642c-0.187-0.24-0.479-0.428-0.707-0.723
				c-0.193-0.24-0.073-0.761-0.301-1.042c-0.2-0.239-0.24-0.641-0.468-0.907c-0.2-0.241,0.354-1.177,0.127-1.443
				c-0.213-0.24-0.399-0.533-0.626-0.802c-0.214-0.24-1.469,0.429-1.696,0.175c-0.214-0.241-0.853-0.107-1.094-0.361
				c-0.229-0.241,0.08-0.987-0.16-1.229c-0.228-0.241-0.854-0.08-1.095-0.321c-0.233-0.24,0.192-1.147-0.04-1.389
				c-0.24-0.229-1.314,0.399-1.555,0.174c-0.234-0.227-0.295-0.655-0.541-0.869c-0.239-0.24-0.675-0.24-0.929-0.48
				c-0.246-0.214-0.293-0.654-0.554-0.88c-0.254-0.216,0.272-1.338,0.007-1.552c-0.247-0.214-0.146-0.896-0.407-1.107
				c-0.261-0.214-1.675,1.001-1.949,0.787c-0.26-0.212-0.093-0.961-0.354-1.161s-0.047-1.043-0.32-1.242
				c-0.26-0.215-1.181,0.467-1.454,0.267c-0.273-0.188,0.08-1.256-0.193-1.455c-0.273-0.201-1.033,0.308-1.32,0.119
				c-0.274-0.2-1.068,0.4-1.343,0.215c-0.272-0.188,0.034-1.271-0.252-1.443c-0.287-0.188-0.194-0.976-0.481-1.149
				c-0.28-0.159-1.081,0.482-1.361,0.31c-0.286-0.175-0.699-0.12-0.993-0.295c-0.287-0.175-0.354-0.734-0.647-0.896
				c-0.301-0.16-0.381-0.722-0.675-0.868c-0.293-0.16-0.84,0.146-1.142,0c-0.294-0.146-0.935,0.389-1.229,0.229
				c-0.293-0.134-0.419-0.644-0.728-0.775c-0.307-0.134-0.82,0.213-1.128,0.08c-0.308-0.134-0.193-1.202-0.514-1.35
				c-0.307-0.12-0.681-0.093-1.001-0.213c-0.308-0.12-0.835,0.307-1.146,0.2c-0.32-0.12-0.287-1.177-0.607-1.298
				c-0.321-0.119-0.875,0.481-1.195,0.374c-0.319-0.093-0.434-0.854-0.754-0.946c-0.32-0.107-0.714,0.025-1.034-0.081
				c-0.32-0.08-0.841,0.534-1.161,0.454c-0.319-0.094-0.207-1.95-0.526-2.03c-0.327-0.08-0.969,1.148-1.295,1.083
				c-0.333-0.067-0.66-0.12-0.994-0.2c-0.327-0.068-0.781,0.587-1.115,0.507c-0.326-0.054-0.627-0.214-0.954-0.267
				c-0.333-0.067-0.447-1.578-0.773-1.617c-0.333-0.04-0.688-0.04-1.027-0.066c-0.327-0.026-0.66-0.214-1.001-0.239
				c-0.334-0.027-0.754,0.801-1.094,0.773c-0.327-0.026-0.603-1.229-0.936-1.256c-0.327-0.026-0.708,0.494-1.048,0.481
				c-0.327-0.015-0.674-0.429-1.015-0.454c-0.327,0-0.694,0-1.021,0c-0.333,0-0.674,0.614-1.014,0.627
				c-0.334,0.014-0.628,1.162-0.97,1.188c-0.331,0-0.767-1.549-1.094-1.534c-0.334,0.025-0.721-0.376-1.062-0.334
				c-0.327,0.025-0.466,2.138-0.808,2.163c-0.334,0.04-0.66-0.04-1.002,0c-0.333,0.055-0.674-0.081-1.014-0.04
				c-0.334,0.04-0.788-0.709-1.115-0.654c-0.333,0.065-0.768-0.4-1.094-0.348c-0.334,0.054-0.561,0.668-0.888,0.722
				c-0.334,0.08-0.414,1.242-0.741,1.309c-0.333,0.067-0.967-1.229-1.301-1.147c-0.327,0.08-0.469,0.923-0.788,1.016
				c-0.313,0.079-0.453,0.854-0.773,0.935c-0.32,0.107-0.668,0.04-1.001,0.135c-0.321,0.08-0.987-0.949-1.308-0.842
				c-0.321,0.094-0.436,0.842-0.756,0.947c-0.319,0.095-0.795-0.267-1.113-0.16c-0.32,0.107-0.228,1.311-0.547,1.432
				c-0.321,0.12-1.39-1.751-1.695-1.617c-0.307,0.134,0.199,2.324-0.113,2.458c-0.308,0.121-1.154-1.017-1.462-0.882
				c-0.308,0.134-0.167,1.282-0.486,1.417c-0.308,0.134-1.368-1.391-1.676-1.23c-0.308,0.134-0.021,1.523-0.334,1.685
				c-0.307,0.146-0.54,0.399-0.853,0.533c-0.294,0.16-0.635,0.213-0.937,0.374c-0.293,0.146-1.261-0.987-1.566-0.827
				c-0.294,0.159,0.287,1.977-0.015,2.123c-0.294,0.161-1.128-0.653-1.421-0.493c-0.294,0.159-0.721,0.119-1.015,0.294
				c-0.294,0.159-0.788,0-1.067,0.187c-0.287,0.161,0.053,1.417-0.232,1.577c-0.281,0.173-1.264-0.749-1.551-0.563
				c-0.279,0.176-0.485,0.51-0.772,0.695c-0.28,0.174-0.34,0.722-0.627,0.896c-0.28,0.173-0.454,0.547-0.729,0.734
				c-0.272,0.188-0.6,0.32-0.887,0.494c-0.273,0.2-0.567,0.373-0.841,0.575c-0.274,0.187-0.147,0.934-0.421,1.135
				c-0.274,0.2-0.24,0.814-0.514,1.016c-0.273,0.2-1.543-0.936-1.815-0.734c-0.268,0.214,0.014,1.147-0.261,1.349
				c-0.387,0.32,0.193,0.735-0.279,1.176c-0.207,0.2-1.608-0.842-1.902-0.573c-0.232,0.214,0.153,1.123-0.105,1.376
				c-0.228,0.213-1.183-0.308-1.437-0.067c-0.24,0.214,0.596,1.604,0.341,1.845c-0.232,0.229-0.761,0.16-1.015,0.399
				c-0.231,0.228-0.566,0.361-0.813,0.603c-0.239,0.228-0.7,0.24-0.947,0.494c-0.24,0.213-0.08,0.882-0.334,1.121
				c-0.232,0.214-1.294-0.373-1.548-0.132c-0.24,0.239,0.479,1.44,0.239,1.683c-0.239,0.241-0.374,0.563-0.613,0.802
				c-0.24,0.24-0.681,0.268-0.921,0.508c-0.239,0.239-0.854,0.094-1.096,0.334c-0.24,0.239,0.207,1.135-0.033,1.376
				c-0.227,0.24-1.468-0.48-1.708-0.241c-0.227,0.241-0.808,0.161-1.048,0.415c-0.227,0.254,0.634,1.537,0.4,1.775
				c-0.233,0.255-0.961,0.026-1.201,0.268c-0.228,0.269-0.228,0.723-0.454,0.963c-0.227,0.255-0.987,0.026-1.221,0.281
				c-0.228,0.254,0.38,1.241,0.152,1.509c-0.227,0.24-0.025,0.869-0.239,1.136c-0.228,0.254-0.447,0.508-0.66,0.762
				c-0.222,0.268-0.821,0.188-1.035,0.454c-0.221,0.254-0.707,0.268-0.927,0.535c-0.215,0.268-0.274,0.654-0.488,0.907
				c-0.22,0.268-1.515-0.32-1.721-0.053c-0.215,0.267,0.692,1.39,0.492,1.67c-0.206,0.279-1.015,0.094-1.208,0.359
				c-0.207,0.269-0.025,0.828-0.221,1.108c-0.193,0.281,0.468,1.137,0.287,1.416c-0.193,0.281-1.094,0.066-1.268,0.361
				c-0.181,0.293,0.127,0.867-0.04,1.148c-0.188,0.293-1.063,0.173-1.208,0.467c-0.175,0.309-0.848,0.36-0.98,0.654
				c-0.146,0.321-0.354,0.642-0.48,0.936c-0.134,0.349-0.354,0.683-0.44,0.988c-0.106,0.348,0.341,0.855,0.281,1.163"/>
		</g>
		<g>
			<path fill="none" stroke="#000000" stroke-width="3" stroke-miterlimit="10" d="M106.789,147.496
				c-0.3,0.134-1.434-1.535-1.734-1.389c-0.294,0.134-0.261,0.988-0.555,1.147c-0.3,0.147-0.307,0.855-0.594,1.018
				c-0.293,0.133-0.561,0.333-0.854,0.479c-0.294,0.161-0.728,0.053-1.015,0.215c-0.28,0.16-0.747,0-1.034,0.188
				c-0.287,0.146-0.374,0.667-0.675,0.828c-0.28,0.159-0.28,0.841-0.567,0.987c-0.287,0.161-1.494-1.27-1.773-1.108
				c-0.287,0.161-0.447,0.548-0.734,0.722c-0.279,0.16-0.067,1.229-0.353,1.389c-0.28,0.161-1.103-0.64-1.396-0.479
				c-0.3,0.159-0.413,0.614-0.706,0.773c-0.301,0.16-0.334,0.802-0.614,0.949c-0.301,0.146-0.515,0.467-0.813,0.613
				c-0.294,0.146-0.234,1.068-0.534,1.202c-0.293,0.134-1.295-1.256-1.595-1.109c-0.309,0.134-0.501,0.469-0.809,0.604
				c-0.307,0.134-0.239,1.241-0.547,1.361c-0.308,0.107-0.868-0.427-1.175-0.319c-0.314,0.106-0.467,0.773-0.78,0.882
				c-0.319,0.08-0.773-0.31-1.107-0.229c-0.32,0.08-0.48,1.029-0.794,1.083c-0.32,0.081-0.936-1.469-1.27-1.416
				c-0.327,0.04-0.454,1.685-0.788,1.711c-0.326,0.04-0.84-1.951-1.167-1.924c-0.334,0.013-0.581,1.441-0.915,1.441
				c-0.326,0.026-0.68-0.413-1.014-0.4c-0.327,0-0.647-0.508-0.988-0.535c-0.333,0-0.687,0.509-1.014,0.481
				c-0.334-0.026-0.607-0.655-0.936-0.667c-0.334-0.041-0.613-0.24-0.96-0.28c-0.327-0.04-0.889,1.441-1.216,1.401
				c-0.334-0.054-0.687-0.134-1.014-0.188c-0.334-0.08-0.4-1.335-0.722-1.415c-0.327-0.08-0.907,0.867-1.228,0.773
				c-0.32-0.08-0.683-0.107-1.002-0.2c-0.32-0.094-0.788,0.133-1.095,0.04c-0.319-0.12-0.595-0.427-0.9-0.562
				c-0.308-0.119-0.214-1.256-0.521-1.39c-0.308-0.135-1.106,0.774-1.4,0.643c-0.301-0.147,0.307-2.085,0.014-2.245
				c-0.301-0.16-0.595-0.228-0.882-0.4c-0.28-0.161-1,0.428-1.287,0.254c-0.28-0.174-0.889,0.146-1.162-0.04
				c-0.272-0.186-0.772-0.094-1.047-0.294c-0.274-0.188-0.294-0.748-0.555-0.961c-0.268-0.188-0.661-0.255-0.929-0.469
				c-0.26-0.228,0.367-1.455,0.113-1.669c-0.247-0.215-0.68-0.215-0.92-0.441c-0.24-0.228-1.148,0.213-1.389-0.026
				c-0.239-0.228,0.18-1.109-0.033-1.35c-0.228-0.24-0.5-0.454-0.729-0.694c-0.232-0.254-0.98-0.014-1.208-0.268
				s-0.146-0.789-0.381-1.029c-0.226-0.253-1.087,0.106-1.327-0.134c-0.228-0.253-0.221-0.721-0.446-0.947
				c-0.229-0.24,0.561-1.47,0.333-1.71c-0.233-0.24-0.54-0.428-0.769-0.668c-0.239-0.24-0.859-0.106-1.101-0.334
				c-0.24-0.24-1.063,0.094-1.302-0.12c-0.239-0.241,0.453-1.43,0.221-1.656c-0.24-0.24-1.675,0.762-1.916,0.534
				c-0.24-0.228,0.407-1.416,0.167-1.645c-0.247-0.226-0.967,0.066-1.214-0.16c-0.254-0.227-0.113-0.867-0.367-1.107
				c-0.247-0.215-0.861-0.026-1.115-0.241c-0.253-0.214-0.092-0.948-0.339-1.147c-0.261-0.228-0.922,0.079-1.188-0.146
				c-0.261-0.2,0.113-1.243-0.159-1.443c-0.274-0.199-0.954,0.146-1.229-0.039c-0.273-0.2-1.143,0.453-1.416,0.267
				c-0.266-0.188-0.02-1.161-0.293-1.349c-0.287-0.174-0.58-0.334-0.867-0.522c-0.28-0.174-1.136,0.642-1.435,0.481
				c-0.294-0.174,0.033-1.431-0.261-1.591c-0.295-0.159-0.407-0.681-0.716-0.828c-0.3-0.146-0.739-0.026-1.047-0.16
				c-0.313-0.146-0.561-0.44-0.868-0.562c-0.307-0.12-0.968,0.682-1.287,0.562s-0.319-1.136-0.641-1.229
				c-0.313-0.105-0.475-0.868-0.795-0.962s-0.741,0.066-1.067-0.014c-0.334-0.08-0.768,0.24-1.095,0.16
				c-0.334-0.054-0.867,1.177-1.208,1.122c-0.333-0.026-0.547-0.882-0.881-0.907c-0.327-0.04-0.701,0.521-1.034,0.494
				c-0.327-0.015-0.641-0.015-0.98-0.04c-0.327,0-0.647-0.869-0.988-0.855c-0.332,0-0.613,1.096-0.96,1.096
				c-0.327,0.026-0.774-1.522-1.103-1.495c-0.333,0.025-0.514,1.441-0.853,1.481c-0.334,0.04-0.708-0.387-1.049-0.32
				c-0.334,0.055-0.801-0.654-1.127-0.602c-0.334,0.08-0.628,0.321-0.955,0.401c-0.32,0.054-0.654,0.2-0.98,0.279
				c-0.32,0.08-0.501,0.708-0.821,0.788c-0.319,0.106-0.66,0.106-0.98,0.215c-0.319,0.105-0.626,0.187-0.953,0.307
				c-0.321,0.12-0.868-0.414-1.188-0.294c-0.307,0.121-0.739,0-1.048,0.121c-0.307,0.133-0.239,1.188-0.547,1.31
				c-0.308,0.132-0.894-0.374-1.215-0.241c-0.307,0.135-0.146,1.282-0.46,1.43c-0.308,0.147-1.136-0.747-1.436-0.602
				c-0.294,0.16-0.475,0.588-0.762,0.763c-0.287,0.174-0.754,0.134-1.026,0.334c-0.269,0.188-0.034,1.096-0.309,1.309
				c-0.26,0.201-1.328-0.533-1.581-0.307c-0.247,0.214-0.374,0.653-0.614,0.896c-0.238,0.241-0.727,0.294-0.954,0.548
				c-0.227,0.253-0.399,0.627-0.613,0.881c-0.222,0.254,0.795,1.483,0.588,1.765c-0.2,0.279-0.16,0.653-0.354,0.948
				c-0.18,0.268-2.021-0.48-2.209-0.215c-0.167,0.295,1.224,1.497,1.063,1.79c-0.16,0.309-0.527,0.468-0.674,0.775
				c-0.146,0.294,0.146,0.773,0.014,1.082c-0.134,0.308-1.822-0.039-1.949,0.279c-0.127,0.309-0.207,0.67-0.319,0.989
				c-0.113,0.32,1.475,1.175,1.367,1.509c-0.101,0.321-0.935,0.415-1.02,0.735c-0.094,0.32-0.995,0.439-1.063,0.774
				c-0.08,0.319-0.146,0.668-0.207,1.003c-0.066,0.334,0.74,0.813,0.688,1.161c-0.062,0.32-0.508,0.588-0.548,0.936
				c-0.047,0.321,0.661,0.748,0.621,1.097c-0.033,0.32-0.509,0.613-0.541,0.936c-0.04,0.347,0.167,0.681,0.146,1.016
				c-0.026,0.348-0.334,0.653-0.341,0.987c-0.014,0.32-1.087,0.642-1.087,0.988c0,0.335,0.606,0.695,0.606,1.028
				c0,0.334,1.142,0.642,1.147,0.976c0.013,0.335-1.742,0.748-1.728,1.096c0.014,0.32,1.809,0.549,1.835,0.896
				c0.021,0.334-0.127,0.669-0.095,1.003c0.033,0.319-0.674,0.747-0.641,1.068c0.033,0.333-0.68,0.774-0.646,1.107
				c0.048,0.334,1.302,0.494,1.342,0.843c0.047,0.334-0.487,0.749-0.429,1.082c0.055,0.334,0.501,0.601,0.556,0.922
				c0.06,0.334-0.08,0.693-0.021,1.028c0.067,0.334,1.102,0.44,1.175,0.774c0.066,0.334-0.994,0.895-0.914,1.229
				c0.08,0.334,0.222,0.642,0.309,0.977c0.08,0.318-0.81,0.907-0.729,1.242c0.095,0.333,1.241,0.359,1.335,0.693
				c0.087,0.309-0.399,0.814-0.307,1.148c0.087,0.32,0.874,0.44,0.974,0.762c0.107,0.32,0.788,0.455,0.89,0.774
				c0.105,0.307-0.407,0.828-0.294,1.148c0.112,0.32,0.613,0.494,0.728,0.815c0.113,0.318-0.921,1.055-0.795,1.375
				c0.127,0.32,0.407,0.575,0.534,0.896c0.127,0.307,1.455,0.132,1.595,0.439c0.127,0.308-0.954,1.122-0.821,1.442
				c0.142,0.321-0.079,0.802,0.062,1.097c0.134,0.319,1.683-0.027,1.828,0.279c0.141,0.308-0.713,1.082-0.566,1.39
				c0.147,0.307-0.214,0.869-0.065,1.176c0.146,0.295,2.049-0.28,2.194,0.014c0.16,0.309-0.486,1.016-0.327,1.311
				c0.16,0.307,0.374,0.588,0.534,0.881c0.16,0.295,0.547,0.455,0.707,0.749c0.167,0.307,0.647,0.398,0.821,0.693
				c0.167,0.294,0.554,0.44,0.728,0.723c0.168,0.294-0.308,0.986-0.127,1.269c0.182,0.281,0.287,0.628,0.468,0.896
				c0.18,0.294,0.34,0.588,0.526,0.882c0.181,0.28-0.153,0.908,0.033,1.188c0.193,0.281,0.854,0.241,1.048,0.522
				c0.193,0.268,0.273,0.641,0.468,0.908c0.192,0.267,1.033,0.065,1.24,0.348c0.201,0.267,0.81,0.213,1.017,0.479
				c0.198,0.269,0.079,0.789,0.278,1.042c0.207,0.269,0.675,0.321,0.889,0.574c0.221,0.269-0.809,1.564-0.588,1.817
				c0.214,0.254,0.58,0.414,0.795,0.653c0.221,0.256,1.301-0.239,1.527,0c0.228,0.256,0.647,0.295,0.874,0.563
				c0.229,0.24-0.247,1.147-0.02,1.389c0.227,0.24,0.474,0.482,0.713,0.724c0.24,0.24,0.301,0.666,0.548,0.881
				c0.24,0.239,0.661,0.294,0.914,0.521c0.241,0.229,0.794,0.147,1.034,0.361c0.254,0.241,0.141,0.854,0.388,1.096
				c0.254,0.215,0.642,0.294,0.901,0.507c0.247,0.214,0.1,0.937,0.354,1.149c0.261,0.214,0.787,0.106,1.047,0.321
				c0.262,0.214,0.327,0.681,0.596,0.881c0.261,0.214,0.521,0.454,0.781,0.654c0.271,0.2,1.461-0.869,1.733-0.669
				c0.274,0.2,0.388,0.589,0.66,0.789c0.273,0.188-0.526,1.99-0.239,2.164c0.286,0.188,0.595,0.374,0.874,0.548
				c0.287,0.174,1.527-1.217,1.821-1.043c0.287,0.175-0.233,1.75,0.061,1.911c0.293,0.173,0.821-0.054,1.114,0.08
				c0.301,0.16,0.401,0.722,0.693,0.882c0.301,0.146,1.274-1.043,1.576-0.909c0.307,0.147,0.239,1.069,0.547,1.203
				c0.307,0.135,0.841-0.24,1.146-0.12c0.309,0.134,0.741-0.066,1.05,0.066c0.306,0.135,0.031,1.816,0.353,1.924
				c0.32,0.12,1.195-1.362,1.516-1.256c0.32,0.12,0.366,1.016,0.693,1.122c0.32,0.106,1.002-1.042,1.322-0.948
				c0.319,0.093,0.214,1.724,0.546,1.805c0.327,0.08,0.936-0.988,1.263-0.909c0.333,0.08,0.46,1.017,0.787,1.097
				c0.333,0.064,0.627,0.293,0.961,0.358c0.327,0.055,0.661,0.147,1.001,0.201c0.327,0.054,0.602,0.668,0.935,0.708
				c0.327,0.04,0.795-0.923,1.129-0.896c0.327,0.025,0.747-0.961,1.08-0.922c0.327,0.015,0.555,1.604,0.889,1.63
				c0.327,0.014,0.674,0.308,1,0.334c0.334,0,0.694-1.361,1.035-1.361c0.334,0,0.674,1.147,1.014,1.147
				c0.334-0.026,0.628-1.441,0.962-1.455c0.327-0.015,0.661,0.214,1.001,0.199c0.326-0.025,0.682,0.279,1.015,0.253
				c0.327-0.039,0.795,1.069,1.129,1.029c0.326-0.025,0.565-0.854,0.907-0.909c0.333-0.04,0.693,0.08,1.026,0.026
				c0.327-0.053,0.516-0.935,0.842-0.987c0.334-0.054,0.935,1.202,1.255,1.137c0.327-0.068,0.247-1.938,0.566-2.019
				c0.333-0.08,0.834,0.628,1.161,0.534c0.334-0.08,0.968,0.976,1.301,0.883c0.327-0.094,0.636-0.268,0.969-0.374
				c0.326-0.08,0.693-0.095,1.016-0.188c0.319-0.106,0.546-0.548,0.873-0.642c0.32-0.105,0.581-0.429,0.901-0.535
				c0.319-0.105,0.841,0.35,1.16,0.241c0.32-0.121-0.047-2.164,0.273-2.271c0.32-0.121,1.048,0.896,1.368,0.774
				c0.32-0.106,0.987,0.695,1.309,0.563c0.32-0.12,0.113-1.551,0.435-1.686c0.32-0.133,0.52-0.493,0.84-0.612
				c0.321-0.136,0.494-0.563,0.809-0.695c0.313-0.134,0.661-0.146,0.975-0.294c0.307-0.135,0.748,0.027,1.055-0.107
				c0.308-0.134,0.414-0.72,0.721-0.867c0.309-0.146,1.263,1.082,1.568,0.923c0.308-0.148,0.08-1.363,0.388-1.512
				c0.308-0.146,1.207,0.868,1.516,0.736c0.3-0.161,0.446-0.643,0.739-0.803c0.302-0.16,0.854,0.16,1.161,0
				c0.309-0.16,0.188-1.097,0.48-1.256c0.294-0.159,0.021-1.31,0.32-1.471c0.294-0.174,0.859,0.161,1.16-0.014
				c0.294-0.174,0.843,0.095,1.143-0.066c0.294-0.174,0.508-0.453,0.794-0.642c0.287-0.186,0.374-0.694,0.661-0.868
				c0.287-0.173,1.415,0.948,1.693,0.763c0.287-0.188,0.494-0.509,0.769-0.694c0.281-0.188,0.568-0.4,0.854-0.588
				c0.281-0.188-0.072-1.311,0.201-1.496c0.272-0.188,1.287,0.641,1.562,0.455c0.273-0.201,0.014-1.178,0.287-1.364
				c0.273-0.214,0.826-0.014,1.101-0.214c0.274-0.214-0.26-1.469,0.014-1.684c0.273-0.2,1.016,0.215,1.275,0
				c0.273-0.2,1.161,0.375,1.428,0.16c0.261-0.214,0.588-0.36,0.854-0.562c0.26-0.214-0.801-2.058-0.541-2.271
				c0.268-0.215,0.688-0.215,0.946-0.441c0.262-0.213,0.447-0.507,0.694-0.734c0.261-0.213,1.481,0.683,1.729,0.454
				c0.254-0.214,0.094-0.908,0.347-1.148c0.247-0.213,1.103,0.214,1.354,0c0.246-0.24,0.58-0.374,0.827-0.614
				c0.254-0.241-0.727-1.776-0.474-2.004c0.247-0.228,0.841-0.08,1.081-0.321c0.24-0.239,1.194,0.241,1.435,0
				c0.241-0.239,0.215-0.76,0.454-1c0.24-0.229,0.48-0.495,0.708-0.734c0.24-0.24,0.146-0.774,0.388-1.028
				c0.227-0.254,0.646-0.334,0.874-0.575c0.227-0.268-0.421-1.282-0.193-1.536c0.227-0.254,0.901-0.093,1.128-0.359
				c0.221-0.269,0.141-0.749,0.354-1.017c0.22-0.269,1.175,0.08,1.388-0.188c0.207-0.268,0.401-0.561,0.607-0.813
				c0.207-0.268,0.921-0.173,1.113-0.44c0.207-0.28-0.514-1.217-0.319-1.495c0.192-0.294,0.268-0.629,0.446-0.909
				c0.182-0.294,0.683-0.374,0.868-0.655c0.181-0.28,1.001-0.2,1.167-0.493c0.174-0.294,0.447-0.549,0.621-0.842
				c0.167-0.294,0.508-0.521,0.668-0.815c0.16-0.293,0.106-0.721,0.266-1.016c0.154-0.294,0.614-0.454,0.774-0.761
				c0.154-0.295,0.247-0.629,0.408-0.949c0.16-0.293-0.603-1.067-0.454-1.375c0.16-0.309,0-0.763,0.16-1.067
				c0.16-0.31,1.454-0.015,1.614-0.31c0.159-0.293,0.446-0.534,0.602-0.828c0.16-0.294,0.026-0.762,0.187-1.056
				c0.16-0.293-0.366-0.975-0.192-1.27c0.16-0.294-0.034-0.801,0.133-1.096c0.174-0.294-0.113-0.854,0.061-1.148
				c0.167-0.308,0.955-0.24,1.135-0.521c0.188-0.28,0.127-0.733,0.308-1.028"/>
		</g>
	</g>
</g>
<g>
</g>
<g>
</g>
<g>
</g>
<g>
</g>
<g>
</g>
<g>
</g>
<g>
</g>
<g>
</g>
<g>
</g>
<g>
</g>
<g>
</g>
<g>
</g>
<g>
</g>
<g>
</g>
<g>
</g>
</svg>
