<?xml version="1.0" encoding="utf-8"?>
<!-- Generator: Adobe Illustrator 16.0.0, SVG Export Plug-In . SVG Version: 6.00 Build 0)  -->
<!DOCTYPE svg PUBLIC "-//W3C//DTD SVG 1.1//EN" "http://www.w3.org/Graphics/SVG/1.1/DTD/svg11.dtd">
<svg version="1.1" id="圖層_1" xmlns="http://www.w3.org/2000/svg" xmlns:xlink="http://www.w3.org/1999/xlink" x="0px" y="0px"
	 width="239.063px" height="257.899px" viewBox="0 0 239.063 257.899" enable-background="new 0 0 239.063 257.899"
	 xml:space="preserve">
<g id="_x3C_群組_x3E__1_">
	<g>
		<path fill="#53A4E4" d="M129.022,162.052c0.32,4.007,2.644,7.775,3.362,11.73c3.686,20.307,1.269,41.707-8.889,59.957
			c-8.195,14.775-22.156,23.833-39.401,21.735c-46.688-5.705-66.069-45.596-53.523-62.696c12.521-17.1,41.004-4.567,52.055-3.365
			c11.053,1.201,21.409-30.033,21.409-30.033l0.614-1.896C104.65,157.469,128.381,154.143,129.022,162.052z"/>
		<path fill="#53A4E4" d="M130.13,109.242c0,0,4.07-7.682,9.757-15.845c5.686-8.148,11.398-13.506,30.952-7.787
			c19.555,5.718,36.277-12.036,36.277-12.036c10.745-15.591,8.956-33.706-0.732-49.204c-9.478-15.176-28.697-20.813-45.489-21.976
			c-18.564-1.27-32.994,9.646-44.352,23.285c-22.224,26.719-6.475,84.592-6.475,84.592L130.13,109.242z"/>
		<path fill="#53A4E4" d="M147.708,123.149c7.821-4.648,39.187,0,39.187,0c65.188,14.723,47.41,74.146,47.41,74.146
			c1.016,11.395-24.906,52.448-55.338,35.869c-30.418-16.605-14.015-34.693-11.546-52.769c2.47-18.075-22.756-30.02-22.756-30.02
			L147.708,123.149z"/>
		<path fill="#53A4E4" d="M98.75,119.649c-7.366-3.634-16.148-5.076-22.102-10.9c-6.674-6.52-9.823-15.392-8.597-24.635
			c2.376-17.901,4.244-34.535-17.19-44.459C29.427,29.742,0.77,64.771,2.57,99.13c0.694,13.253,6.674,24.808,17.513,32.543
			c10.49,7.48,22.824,12.37,35.45,14.722c6.246,1.163,12.813,1.896,19.193,1.482c6.34-0.414,12.613-2.632,19.059-3.394
			L98.75,119.649z"/>
	</g>
	<g>
		<g>
			<path fill="#3599B4" d="M148.068,142.949c0,0,36.824,5.931,35.676,30.993c-1.121,25.088-22.262,47.212,16.204,62.361
				c0,0-23.144,4.568-31.058-10.086c0,0-12.2-7.988-6.074-31.275c0,0,13.307-21.668-2.242-32.729c0,0-11.731-12.625-15.924-11.851
				L148.068,142.949z"/>
		</g>
		<path fill="#3599B4" d="M114.634,162.279c-1.495,14.04-9.17,39.157-26.748,38.289c-8.917-0.429-17.031-3.676-25.828-5.225
			c-5.886-1.041-15.616-3.021-20.661,1.389c-9.115,7.99-6.7,29.966-6.207,30.94c0,0-18.898-25.449-0.652-39.007
			c0,0,9.623-12.346,48.104,0.721c0,0,5.831,1.644,12.466-10.313c6.634-11.972,9.557-21.616,9.557-21.616L114.634,162.279z"/>
		<path fill="#3599B4" d="M54.41,41.483c0,0,5.206,13.906,2.91,45.836c0,0-2.644,36.564,37.412,39.37l4.018-7.04
			c0,0-22.863-8.216-25.866-14.575c-3.017-6.371-7.475-19.703-3.537-32.422C69.348,72.665,71.99,46.947,54.41,41.483z"/>
		<path fill="#3599B4" d="M121.387,107.839c2.63-6.6,6.287-12.972,10.438-18.703c3.391-4.648,7.313-9.098,12.053-12.398
			c7.476-5.184,14.148-1.977,21.637,0.255c4.432,1.321,10.305,2.926,14.935,2.472c7.89-0.774,16.003-4.996,23.371-7.694
			c3.258-1.176,6.834-4.782,8.303-7.909c0,0-9.45,20.199-23.465,21.269c0,0-11.063,3.688-34.182-2.19
			c0,0-10.799-1.896-24.358,26.331L121.387,107.839z"/>
	</g>
</g>
<path fill="#FF8FA6" d="M121.387,107.839c15.27,0,27.63,12.369,27.63,27.626c0,15.283-12.359,27.656-27.63,27.656
	c-15.242,0-27.602-12.372-27.602-27.656C93.785,120.209,106.145,107.839,121.387,107.839z"/>
<path fill="#94E4FF" d="M121.387,118.099c9.61,0,17.378,7.774,17.378,17.366c0,9.619-7.767,17.395-17.378,17.395
	c-9.582,0-17.351-7.774-17.351-17.395C104.036,125.875,111.805,118.099,121.387,118.099z"/>
<g id="_x3C_群組w_x5F_R_x3E_">
	<g>
		<g>
			<path fill="none" stroke="#000000" stroke-width="3" stroke-miterlimit="10" d="M139.166,135.466
				c0,0.349,0.187,0.723,0.187,1.058c-0.025,0.347-1.535,0.546-1.574,0.88c-0.026,0.335,0.761,0.763,0.693,1.097
				c-0.054,0.334,0.961,0.907,0.881,1.242c-0.08,0.32-0.841,0.508-0.935,0.841c-0.107,0.322-0.747,0.482-0.854,0.788
				c-0.12,0.32-1.096,0.24-1.229,0.563c-0.146,0.294,0.693,1.043,0.547,1.337c-0.146,0.293-0.454,0.52-0.627,0.813
				c-0.16,0.294-0.373,0.548-0.562,0.814c-0.173,0.295,0.521,1.216,0.321,1.496c-0.201,0.268-1.603-0.428-1.816-0.16
				c-0.213,0.268-0.652,0.268-0.88,0.508s0.826,1.776,0.587,2.004c-0.254,0.228-0.641,0.36-0.907,0.589
				c-0.268,0.213-1.454-0.774-1.734-0.575c-0.268,0.2-0.374,0.549-0.654,0.735c-0.279,0.188,0.228,1.669-0.066,1.844
				c-0.293,0.16-1.28-0.948-1.602-0.803c-0.294,0.147-0.521,0.4-0.828,0.534s-0.106,1.604-0.428,1.71
				c-0.319,0.106-0.826-0.253-1.146-0.16c-0.32,0.094-0.667,0.268-0.988,0.348c-0.32,0.08-0.773-0.399-1.12-0.334
				c-0.32,0.055-0.774-0.842-1.095-0.801c-0.334,0.04-0.627-0.094-0.975-0.08c-0.334,0.026-0.602,0.507-0.947,0.507
				c-0.334,0-0.722,1.483-1.056,1.483c-0.333-0.026-0.573-1.403-0.895-1.443c-0.348-0.04-0.654-0.065-0.986-0.134
				c-0.321-0.053-0.936,1.122-1.256,1.042s-0.734-0.04-1.067-0.134c-0.319-0.106-0.427-0.961-0.747-1.095
				c-0.308-0.106-0.548-0.428-0.854-0.562c-0.307-0.135-0.906,0.28-1.2,0.134s-0.748-0.106-1.042-0.269
				c-0.293-0.187-0.561-0.479-0.854-0.668c-0.279-0.188-0.399-0.654-0.666-0.854c-0.281-0.215-0.843-0.095-1.097-0.308
				c-0.266-0.228-0.732-0.281-0.974-0.521c-0.24-0.213,0.494-1.495,0.28-1.724c-0.24-0.24-0.48-0.468-0.694-0.722
				s-0.88-0.174-1.08-0.44c-0.2-0.269-1.028-0.16-1.216-0.428c-0.173-0.28,0.241-0.976,0.067-1.256
				c-0.175-0.307-0.48-0.535-0.629-0.841c-0.146-0.294,0.026-0.775-0.105-1.083c-0.147-0.307-0.267-0.628-0.373-0.949
				c-0.12-0.306,0.346-0.813,0.253-1.135c-0.093-0.32-0.173-0.628-0.253-0.949c-0.08-0.333-0.562-0.56-0.628-0.894
				c-0.053-0.321,0.708-0.749,0.682-1.098c-0.04-0.319-1.216-0.547-1.229-0.881c-0.027-0.334,0.961-0.682,0.961-1.029
				c0-0.333-0.721-0.682-0.708-1.015c0.026-0.335-0.654-0.748-0.602-1.082c0.026-0.349-0.105-0.763-0.054-1.096
				c0.054-0.321,1.028-0.508,1.108-0.828c0.08-0.334,0.308-0.615,0.399-0.936c0.095-0.32,0.573-0.508,0.682-0.828
				c0.12-0.32,0.16-0.628,0.294-0.937c0.133-0.32,0.479-0.48,0.641-0.772c0.16-0.295-0.693-1.149-0.534-1.444
				c0.174-0.294,0.642-0.428,0.828-0.694c0.174-0.279-0.188-0.975,0.013-1.257c0.201-0.267,1.136,0.016,1.35-0.239
				c0.213-0.268,0.347-0.614,0.561-0.854c0.24-0.24,1.174,0.254,1.414,0.027c0.254-0.229-0.24-1.243,0.027-1.457
				c0.267-0.228,0.507-0.467,0.773-0.654c0.268-0.214,0.574-0.4,0.854-0.587c0.266-0.174,0.666-0.174,0.96-0.348
				c0.308-0.161,0.349-0.803,0.668-0.962c0.294-0.135,1.04,0.693,1.361,0.561c0.32-0.134,0.4-0.774,0.721-0.883
				c0.32-0.119,0.4-1.027,0.72-1.121c0.321-0.107,0.774,0.106,1.097,0.026c0.333-0.08,0.786,0.429,1.12,0.375
				c0.319-0.055,0.573-0.775,0.907-0.803c0.32-0.04,0.708,0.106,1.042,0.08c0.332-0.026,0.693,0.428,1.04,0.428
				c0.349,0,0.628,0.843,0.962,0.854c0.348,0.027,0.681-0.507,1.015-0.467c0.347,0.04,0.733-0.36,1.067-0.309
				c0.32,0.055,0.602,0.4,0.935,0.469c0.319,0.08,0.961-0.923,1.281-0.843c0.32,0.106,0.32,1.282,0.642,1.39
				c0.306,0.121,0.413,0.693,0.72,0.842c0.309,0.134,1.096-0.788,1.415-0.641c0.293,0.146,0.213,1.042,0.507,1.188
				c0.294,0.188,0.936-0.213,1.229-0.025c0.268,0.174,1.014-0.2,1.268,0c0.28,0.214-0.653,1.924-0.387,2.138
				s1.655-0.855,1.922-0.629c0.24,0.228-0.347,1.322-0.121,1.563c0.229,0.269,1.376-0.294,1.59-0.025
				c0.214,0.267-0.32,1.148-0.119,1.416c0.199,0.279-0.08,0.854,0.093,1.147c0.188,0.294,0.399,0.509,0.562,0.802
				c0.174,0.309,0,0.723,0.16,1.017c0.159,0.293,0.427,0.494,0.561,0.802c0.134,0.32,0,0.668,0.105,0.988
				c0.12,0.32,1.256,0.28,1.336,0.601c0.105,0.32-0.668,0.855-0.588,1.189c0.066,0.319,0.907,0.48,0.961,0.803
				c0.066,0.332,0.774,0.586,0.814,0.935c0.04,0.32-0.229,0.722-0.214,1.042C139.139,134.771,139.166,135.132,139.166,135.466z"/>
		</g>
		<g>
			<path fill="none" stroke="#000000" stroke-width="3" stroke-miterlimit="10" d="M148.829,135.466c0,0.349-0.294,0.668-0.32,1.003
				c0,0.334-0.479,0.628-0.508,0.947c-0.026,0.349-0.013,0.643-0.053,0.989c-0.027,0.321,1.613,0.881,1.574,1.229
				c-0.054,0.32-0.214,0.667-0.279,0.988c-0.054,0.334-0.976,0.508-1.056,0.827c-0.054,0.349,0.642,0.854,0.562,1.203
				c-0.08,0.321,0.268,0.802,0.174,1.121c-0.094,0.321-0.842,0.469-0.948,0.789c-0.12,0.308,0.135,0.789,0,1.108
				c-0.12,0.32-0.04,0.748-0.16,1.056c-0.134,0.308-0.853,0.389-0.986,0.694c-0.16,0.309-1.522-0.013-1.684,0.294
				c-0.16,0.308,0.908,1.242,0.748,1.537c-0.16,0.293-1.521-0.107-1.695,0.173c-0.173,0.28,1.241,1.589,1.056,1.871
				c-0.188,0.28-0.801,0.308-0.987,0.574c-0.188,0.28,0.08,0.935-0.134,1.201c-0.214,0.268-2.002-0.722-2.216-0.48
				c-0.214,0.268-0.428,0.48-0.654,0.722c-0.228,0.255,0.228,1.108,0,1.362c-0.228,0.24-1.107-0.2-1.348,0.04
				c-0.24,0.229-0.08,0.869-0.348,1.096c-0.24,0.229-0.854,0.015-1.095,0.215c-0.268,0.228,0.347,1.494,0.08,1.696
				c-0.269,0.213-0.293,0.774-0.573,0.976c-0.281,0.2-1.696-1.271-1.962-1.098c-0.294,0.175-0.269,0.776-0.563,0.949
				c-0.279,0.188-0.627,0.2-0.935,0.362c-0.294,0.158-0.667,0.119-0.96,0.266c-0.294,0.146-0.015,1.47-0.321,1.604
				c-0.307,0.146-0.961-0.521-1.255-0.374c-0.319,0.134-0.64,0.174-0.96,0.294c-0.321,0.12-0.107,1.67-0.428,1.775
				c-0.32,0.107-0.694,0.08-1.041,0.175c-0.32,0.094-0.653,0.214-0.987,0.294c-0.32,0.079-1.056-1.551-1.389-1.483
				c-0.319,0.08-0.534,0.615-0.854,0.695c-0.349,0.054-0.428,1.603-0.775,1.655c-0.319,0.054-0.746-0.214-1.065-0.174
				c-0.334,0.04-0.803-1.469-1.148-1.441c-0.319,0.014-0.613,0.843-0.934,0.854c-0.334,0.014-0.668,0.841-1.017,0.841
				c-0.333,0-0.653-1.122-0.986-1.122c-0.348-0.025-0.642-0.294-0.987-0.319c-0.349-0.015-0.814,1.469-1.147,1.429
				c-0.319-0.04-0.508-1.362-0.854-1.402c-0.321-0.053-0.723,0.321-1.068,0.269c-0.318-0.055-0.427-1.149-0.773-1.203
				c-0.319-0.08-1.041,1.483-1.361,1.39c-0.348-0.08-0.533-0.693-0.854-0.801c-0.319-0.094-0.439-0.775-0.762-0.896
				c-0.32-0.118-0.934,0.614-1.254,0.494c-0.307-0.134-0.146-1.416-0.454-1.549c-0.307-0.134-1.348,1.361-1.642,1.229
				c-0.32-0.147-0.2-1.177-0.507-1.322c-0.295-0.16-0.854,0.16-1.148,0c-0.293-0.16-0.026-1.31-0.293-1.483
				c-0.294-0.174-0.961,0.255-1.242,0.055c-0.28-0.188-0.854,0.025-1.12-0.16c-0.279-0.2-0.788-0.134-1.055-0.334
				c-0.268-0.2-0.428-0.589-0.694-0.803s0.134-1.216-0.105-1.43c-0.254-0.239-0.055-0.908-0.32-1.136
				c-0.24-0.239-1.309,0.374-1.549,0.12c-0.214-0.24,0.641-1.469,0.4-1.736c-0.214-0.241-1.509,0.455-1.734,0.188
				c-0.214-0.254,0.747-1.415,0.534-1.696c-0.214-0.253-0.534-0.388-0.722-0.668s-0.774-0.24-0.976-0.521
				c-0.186-0.294-0.267-0.613-0.438-0.907c-0.16-0.28-0.534-0.441-0.694-0.735c-0.16-0.308-0.975-0.24-1.122-0.548
				c-0.159-0.295,0.936-1.188,0.802-1.496c-0.16-0.308-0.174-0.614-0.32-0.923c-0.134-0.306-0.293-0.56-0.428-0.88
				c-0.118-0.309-1.48-0.161-1.602-0.469c-0.106-0.32,1.122-1.056,1.015-1.375c-0.08-0.32-1.107-0.36-1.201-0.684
				c-0.08-0.319-0.935-0.479-1.001-0.814c-0.065-0.334,1.643-1.015,1.575-1.35c-0.066-0.319-2.323-0.294-2.39-0.613
				c-0.04-0.335,0.267-0.747,0.214-1.096c-0.027-0.32,0.12-0.694,0.106-1.043c-0.026-0.334-0.454-0.668-0.48-1.015
				c0-0.334,0.066-0.708,0.066-1.042c0-0.349,1.922-0.643,1.936-0.975c0-0.335-0.72-0.695-0.693-1.029
				c0.026-0.349,0.895-0.563,0.935-0.896c0.026-0.333-0.188-0.682-0.134-1.002c0.054-0.334-0.587-0.774-0.521-1.096
				c0.066-0.333-0.279-0.748-0.2-1.067c0.066-0.334,1.296-0.375,1.375-0.695c0.08-0.349-0.013-0.681,0.08-1.002
				c0.095-0.308,0.361-0.547,0.469-0.867c0.106-0.321-1.042-1.096-0.936-1.417c0.134-0.32,0.747-0.427,0.881-0.734
				c0.135-0.308-0.214-0.842-0.08-1.135c0.16-0.321,1.309-0.106,1.469-0.4c0.159-0.295-1.16-1.403-1.016-1.697
				c0.188-0.308,0.761-0.388,0.936-0.667c0.188-0.281,0.16-0.709,0.359-1.003c0.188-0.28,1.241,0.025,1.43-0.24
				c0.199-0.28-0.214-1.015-0.015-1.295c0.2-0.255,0.788-0.242,1.016-0.495c0.214-0.268,1.054,0.053,1.294-0.2
				c0.214-0.254,0.588-0.32,0.828-0.563c0.239-0.24,0.494-0.399,0.732-0.626c0.24-0.229,0.28-0.644,0.521-0.856
				c0.254-0.24-0.561-1.696-0.293-1.91c0.253-0.227,0.801-0.12,1.066-0.319c0.255-0.2,0.614-0.32,0.883-0.522
				c0.266-0.188,0.96,0.214,1.228,0.026c0.294-0.188,0.2-0.96,0.48-1.135c0.294-0.175,0.628-0.28,0.921-0.44
				c0.307-0.16,0.654-0.214,0.947-0.374c0.293-0.161,0.854,0.24,1.16,0.093c0.309-0.146,0.095-1.43,0.414-1.563
				c0.308-0.147,0.722-0.067,1.041-0.188c0.321-0.134,0.707-0.025,1.027-0.134c0.321-0.106,0.962,0.803,1.269,0.709
				c0.32-0.095,0.468-0.815,0.773-0.896c0.348-0.08,0.508-0.828,0.842-0.908c0.334-0.053,0.574-0.643,0.921-0.695
				c0.319-0.065,0.947,1.604,1.281,1.577c0.32-0.054,0.562-0.748,0.908-0.774c0.319-0.026,0.613-0.709,0.96-0.723
				c0.32-0.026,0.748,1.523,1.068,1.51c0.347-0.013,0.64-0.721,0.974-0.721c0.348,0,0.708-1.216,1.056-1.203
				c0.348,0.014,0.601,1.51,0.935,1.522c0.347,0.025,0.641,0.08,0.975,0.119c0.334,0.027,0.654,0,1,0.056
				c0.321,0.054,0.734-0.401,1.068-0.35c0.32,0.055,0.734-0.238,1.067-0.158c0.319,0.079,0.613,0.333,0.935,0.427
				c0.348,0.081,0.774-0.214,1.096-0.106c0.319,0.106,0.146,1.765,0.452,1.871c0.321,0.119,1.082-1.016,1.402-0.896
				c0.308,0.12,0.507,0.548,0.813,0.682c0.309,0.134,1.096-0.749,1.402-0.602c0.307,0.146,0.094,1.361,0.399,1.521
				c0.293,0.161,1.027-0.468,1.336-0.321c0.293,0.161,0.04,1.284,0.333,1.458c0.28,0.16,0.935-0.214,1.201-0.026
				c0.293,0.188,0.399,0.612,0.668,0.802c0.279,0.2,0.681,0.24,0.934,0.454c0.267,0.2,0.667,0.267,0.935,0.479
				c0.255,0.215-0.373,1.456-0.119,1.67c0.254,0.215,1.268-0.399,1.508-0.159c0.24,0.239,0.36,0.601,0.601,0.854
				c0.229,0.24,0.494,0.454,0.734,0.708c0.214,0.254,0.628,0.347,0.827,0.614c0.228,0.267,0.762,0.294,0.962,0.548
				c0.213,0.254,0.16,0.762,0.347,1.028c0.2,0.268-0.881,1.417-0.693,1.696c0.188,0.28,0.479,0.44,0.668,0.734
				c0.174,0.28,0.853,0.24,1.026,0.534c0.16,0.307-0.413,0.962-0.253,1.256c0.159,0.294,2.028-0.254,2.176,0.054
				c0.146,0.308-1.509,1.403-1.376,1.71c0.135,0.32,1.068,0.269,1.177,0.589c0.133,0.319,1,0.373,1.094,0.693
				c0.12,0.32-0.214,0.774-0.12,1.108c0.093,0.321-0.2,0.762-0.12,1.068c0.08,0.321-0.268,0.735-0.214,1.082
				c0.08,0.321-0.08,0.668-0.026,0.988c0.054,0.347,0.106,0.642,0.16,0.962c0.053,0.334,0.774,0.563,0.827,0.896
				c0.027,0.333,1.001,0.587,1.027,0.922c0.014,0.32-0.521,0.722-0.493,1.043C149.123,134.798,148.829,135.132,148.829,135.466z"/>
		</g>
		<g>
			<path fill="none" stroke="#000000" stroke-width="3" stroke-miterlimit="10" d="M129.996,161.732
				c0.094,0.32-0.389,0.827-0.28,1.148c0.105,0.321-0.04,0.721,0.053,1.041c0.107,0.321-0.506,0.883-0.398,1.216
				c0.106,0.322,0.106,0.683,0.213,1.002c0.094,0.321,0.653,0.51,0.748,0.829c0.105,0.32-0.294,0.802-0.2,1.121
				c0.105,0.335,0.721,0.495,0.813,0.803c0.106,0.348,0.961,0.454,1.04,0.775c0.095,0.32-0.506,0.841-0.398,1.175
				c0.08,0.32,1.094,0.428,1.174,0.762s-1.414,1.016-1.334,1.35c0.054,0.32,1.988,0.294,2.042,0.642
				c0.066,0.321,0.08,0.668,0.146,1.016c0.054,0.32-0.4,0.748-0.36,1.081c0.067,0.335-1.255,0.884-1.188,1.217
				c0.055,0.32,1.522,0.454,1.576,0.774c0.053,0.349,0.106,0.683,0.16,1.017c0.053,0.318-1.162,0.827-1.122,1.147
				c0.054,0.348,0.494,0.629,0.534,0.963c0.054,0.347-0.08,0.693-0.054,1.027s1.281,0.563,1.308,0.896
				c0.04,0.349-1.588,0.815-1.574,1.162c0.026,0.334,1.415,0.575,1.441,0.909s-0.401,0.708-0.388,1.055
				c0.027,0.334-0.733,0.723-0.707,1.043c0,0.348,0.401,0.642,0.414,0.987c0.014,0.348,0.467,0.668,0.493,0.989
				c0,0.348,0.653,0.668,0.653,1.016c0.015,0.333,0.294,0.681,0.309,1.016c0,0.334-2.216,0.682-2.216,1.017
				c0,0.333,0.895,0.667,0.895,1.015c0,0.334-0.841,0.642-0.854,0.988c-0.015,0.348,0.453,0.681,0.439,1.015
				c0,0.335-0.36,0.643-0.374,0.989c0,0.349,0.988,0.721,0.961,1.055c-0.027,0.35,0.841,0.735,0.828,1.083
				c-0.027,0.335-2.109,0.508-2.136,0.854c-0.015,0.347,1.095,0.774,1.067,1.096c-0.026,0.349,0.453,0.722,0.399,1.068
				c-0.026,0.319-1.241,0.534-1.281,0.882c-0.04,0.32,1.429,0.855,1.389,1.177c-0.054,0.333-1.175,0.534-1.229,0.867
				c-0.04,0.334,0.935,0.815,0.896,1.148c-0.04,0.333-0.627,0.603-0.682,0.937c-0.054,0.333-1.295,0.467-1.349,0.802
				c-0.066,0.334,0.548,0.773,0.494,1.108c-0.055,0.319,0.841,0.827,0.773,1.176c-0.08,0.319-1.188,0.454-1.255,0.772
				c-0.08,0.335-0.467,0.589-0.533,0.909c-0.08,0.348,0.04,0.695-0.026,1.043c-0.08,0.32-0.213,0.627-0.293,0.961
				c-0.08,0.321-0.16,0.643-0.24,0.989c-0.081,0.32-0.014,0.668-0.107,1.015c-0.079,0.32,0,0.695-0.105,1.003
				c-0.08,0.333-0.828,0.468-0.908,0.787c-0.104,0.321,1.188,1.069,1.095,1.391c-0.105,0.32,0.309,0.813,0.215,1.121
				c-0.106,0.32-2.271-0.014-2.362,0.308c-0.107,0.322,0.173,0.763,0.053,1.083c-0.12,0.319,0.334,0.828,0.229,1.147
				c-0.12,0.321-0.026,0.723-0.135,1.042c-0.105,0.321-0.319,0.603-0.454,0.908c-0.105,0.321,0,0.723-0.105,1.043
				c-0.134,0.321-1.161,0.269-1.281,0.575c-0.134,0.306,0.428,0.921,0.294,1.215c-0.134,0.32-0.948,0.32-1.082,0.642
				c-0.146,0.294,0.494,0.961,0.361,1.27c-0.134,0.308,0.507,1.003,0.374,1.296c-0.161,0.32-1.67-0.039-1.816,0.253
				c-0.159,0.309,0.694,1.109,0.562,1.418c-0.16,0.294-1.188,0.146-1.349,0.454c-0.16,0.293-0.561,0.466-0.721,0.761
				c-0.16,0.294,0.681,1.149,0.521,1.443c-0.187,0.293-1.095,0.159-1.254,0.467c-0.174,0.294,0.213,0.922,0.054,1.217
				c-0.188,0.294-1.481-0.134-1.655,0.16c-0.188,0.294,0.801,1.335,0.614,1.615c-0.188,0.282-0.32,0.615-0.509,0.896
				c-0.187,0.292-0.826,0.267-1.014,0.534c-0.214,0.28-0.214,0.693-0.414,0.977c-0.2,0.279-1.508-0.31-1.722-0.04
				c-0.213,0.267-0.12,0.747-0.333,1.014c-0.229,0.268,0.92,1.671,0.692,1.925c-0.227,0.267-1.081-0.027-1.295,0.227
				c-0.24,0.255-0.374,0.574-0.613,0.843c-0.24,0.239-1.015-0.027-1.255,0.214c-0.239,0.241-0.828,0.081-1.095,0.32
				c-0.24,0.24,0.534,1.55,0.293,1.789c-0.253,0.241-0.946-0.025-1.2,0.216c-0.239,0.213-0.748,0.133-1.015,0.359
				c-0.268,0.214-0.453,0.494-0.722,0.708c-0.267,0.213-0.359,0.642-0.627,0.854c-0.28,0.2-1.096-0.374-1.374-0.188
				c-0.28,0.188,0.333,1.685,0.053,1.871c-0.293,0.188-0.747,0.133-1.027,0.307c-0.28,0.188-0.521,0.47-0.813,0.63
				c-0.294,0.173-0.975-0.32-1.269-0.147c-0.307,0.174,0.054,1.563-0.24,1.723c-0.308,0.161-1.24-0.934-1.548-0.787
				s-0.773-0.093-1.095,0.04c-0.308,0.134-0.521,0.48-0.813,0.613c-0.32,0.134-0.268,1.149-0.588,1.283
				c-0.319,0.135-0.508,0.641-0.828,0.748c-0.319,0.12-0.853-0.334-1.174-0.24c-0.319,0.106-0.813-0.333-1.147-0.239
				c-0.32,0.079-0.294,1.47-0.641,1.55c-0.32,0.079-0.962-1.029-1.281-0.964c-0.349,0.08-0.668,0.135-1.001,0.188
				c-0.334,0.081-0.627,0.308-0.976,0.361c-0.319,0.054-0.733-0.455-1.066-0.401c-0.334,0.04-0.507,1.377-0.854,1.417
				c-0.334,0.04-0.801-1.296-1.147-1.271c-0.347,0.04-0.641,0.389-0.975,0.414c-0.347,0.015-0.654,0.32-1.001,0.334
				c-0.347,0-0.667-0.106-1.015-0.106c-0.347,0-0.694,0.948-1.041,0.935c-0.349-0.013-0.641-0.881-0.987-0.907
				c-0.348,0-0.668-0.134-1.002-0.159c-0.347-0.015-0.707,0.239-1.04,0.213c-0.334-0.026-0.601-0.667-0.948-0.722
				c-0.347-0.04-0.841,1.243-1.174,1.203c-0.319-0.054-0.521-1.123-0.854-1.162c-0.333-0.04-0.614-0.389-0.962-0.441
				c-0.333-0.054-0.587-0.533-0.921-0.587s-0.722,0.239-1.055,0.187c-0.321-0.053-0.733,0.28-1.067,0.213
				c-0.319-0.053-0.748,0.349-1.082,0.269c-0.334-0.067-0.547-0.681-0.866-0.761c-0.32-0.067-0.48-0.828-0.827-0.908
				c-0.321-0.08-0.803,0.521-1.121,0.439c-0.349-0.08-0.814,0.428-1.135,0.348c-0.334-0.08-0.614-0.333-0.936-0.428
				c-0.333-0.079-0.961,0.868-1.269,0.775c-0.348-0.08-0.24-1.578-0.588-1.685c-0.308-0.106-0.532-0.534-0.853-0.627
				c-0.309-0.095-1.042,1.082-1.362,0.975c-0.319-0.107-0.533-0.562-0.853-0.682c-0.32-0.12-0.374-0.976-0.682-1.081
				c-0.319-0.107-0.975,0.722-1.295,0.613c-0.32-0.119-0.721-0.054-1.027-0.159c-0.32-0.135-0.12-1.552-0.413-1.685
				c-0.321-0.133-1.161,1.017-1.469,0.882c-0.308-0.121-0.453-0.669-0.762-0.802c-0.307-0.133-0.414-0.708-0.733-0.842
				c-0.293-0.146-1.107,0.788-1.414,0.655c-0.295-0.161-0.414-0.723-0.708-0.855c-0.308-0.16-0.319-0.882-0.628-1.042
				c-0.293-0.16-0.881,0.24-1.175,0.08s-0.373-0.748-0.667-0.908c-0.293-0.16-0.747-0.025-1.055-0.188
				c-0.294-0.16-0.602-0.32-0.895-0.481c-0.294-0.174-0.693-0.146-0.987-0.319c-0.28-0.16-0.842,0.065-1.12-0.106
				c-0.294-0.188-0.107-1.122-0.389-1.309c-0.279-0.188-0.094-1.083-0.387-1.258c-0.268-0.188-1.282,0.694-1.562,0.521
				c-0.28-0.201,0.333-1.67,0.065-1.871c-0.267-0.2-1.575,1.057-1.843,0.843c-0.267-0.188,0.04-1.203-0.214-1.402
				c-0.279-0.2-0.212-0.814-0.479-1.016c-0.267-0.2-1.563,0.896-1.829,0.681c-0.253-0.227-0.173-0.854-0.438-1.081
				c-0.268-0.214-0.067-0.948-0.334-1.163c-0.254-0.227-1.028,0.161-1.282-0.08c-0.253-0.227,0.388-1.442,0.147-1.669
				c-0.241-0.229-1.603,0.733-1.855,0.507c-0.254-0.227,0.748-1.749,0.509-1.99c-0.241-0.227-1.068,0.146-1.31-0.094
				c-0.24-0.24-0.573-0.374-0.814-0.614c-0.213-0.241-1.147,0.147-1.374-0.093c-0.227-0.269,0.105-1.042-0.119-1.283
				c-0.215-0.254,0.08-0.976-0.135-1.229c-0.214-0.239-0.374-0.561-0.587-0.8c-0.214-0.27-0.628-0.35-0.828-0.615
				c-0.214-0.269-1.066-0.027-1.28-0.294c-0.2-0.255-0.507-0.455-0.722-0.735c-0.199-0.279,0-0.842-0.188-1.107
				c-0.188-0.28-1.107-0.08-1.308-0.349c-0.188-0.281,1.16-1.59,0.975-1.87c-0.173-0.294-1.348,0.08-1.521-0.214
				c-0.188-0.281,0.747-1.229,0.574-1.522c-0.16-0.293-2.069,0.454-2.242,0.146c-0.161-0.294,0.654-1.148,0.493-1.442
				c-0.16-0.307-1.081-0.2-1.228-0.493c-0.161-0.295,0-0.775-0.147-1.069c-0.16-0.308,0.08-0.802-0.054-1.095
				c-0.16-0.309-0.533-0.509-0.68-0.803c-0.135-0.32-0.469-0.563-0.602-0.855c-0.107-0.32,1.04-1.147,0.92-1.455
				c-0.119-0.321-0.626-0.468-0.732-0.789c-0.12-0.32-0.774-0.439-0.881-0.747c-0.107-0.319,0.721-0.937,0.613-1.257
				c-0.094-0.32-0.174-0.627-0.268-0.947c-0.08-0.334-0.975-0.414-1.054-0.749c-0.08-0.334-0.642-0.548-0.709-0.882
				c-0.065-0.333-0.347-0.641-0.399-0.948c-0.08-0.348,0.534-0.802,0.479-1.121c-0.053-0.334-0.826-0.574-0.881-0.908
				c-0.04-0.321,0.32-0.723,0.294-1.057c-0.04-0.335,1.334-0.773,1.309-1.107c-0.014-0.348-1.441-0.589-1.441-0.922
				c-0.026-0.334,0.307-0.684,0.32-1.017c0-0.334-0.828-0.708-0.802-1.027c0-0.349,2.003-0.535,2.028-0.882
				c0.014-0.348-0.186-0.654-0.145-0.989c0.039-0.32-0.334-0.694-0.28-1.016c0.053-0.333,0.146-0.641,0.213-0.962
				c0.067-0.334-0.587-0.827-0.507-1.148c0.08-0.334,0-0.721,0.105-1.028c0.107-0.319,1.401-0.228,1.521-0.534
				c0.105-0.319-0.508-0.922-0.4-1.215c0.146-0.321,0.602-0.455,0.747-0.763c0.147-0.294-0.307-0.922-0.146-1.216
				c0.174-0.293,0.065-0.774,0.254-1.068c0.187-0.28,1.174,0,1.374-0.28c0.199-0.28-0.546-1.297-0.334-1.55
				c0.214-0.254,1.147,0.066,1.361-0.174c0.24-0.269-0.079-1.043,0.16-1.27c0.24-0.239,0.399-0.629,0.641-0.843
				c0.241-0.239,1.416,0.589,1.67,0.374c0.253-0.213-0.361-1.55-0.08-1.75c0.28-0.2,1.229,0.548,1.508,0.36
				c0.28-0.2,0-1.281,0.28-1.442c0.28-0.188,0.654-0.294,0.947-0.454c0.294-0.159,1.041,0.535,1.335,0.401
				c0.319-0.147,0.72-0.027,1.014-0.147c0.32-0.12,0.414-0.762,0.723-0.896c0.319-0.104,0.975,0.802,1.279,0.694
				c0.32-0.106,0.563-0.32,0.896-0.428c0.32-0.079,0.44-0.935,0.762-1.002c0.32-0.08,0.613-0.307,0.935-0.387
				c0.334-0.054,0.561-0.775,0.895-0.829s0.813,0.909,1.147,0.869s0.573-0.815,0.921-0.854c0.32-0.04,0.722,0.613,1.066,0.601
				c0.321-0.026,0.643-0.374,0.977-0.4c0.333,0,0.681,0.08,1.015,0.066c0.333-0.015,0.68-0.24,1-0.24
				c0.334,0,0.694-0.681,1.028-0.681c0.333,0.025,0.6,1.977,0.946,1.977c0.32,0.015,0.694-0.962,1.041-0.936
				c0.334,0.025,0.667,0.188,0.987,0.214c0.334,0.014,0.694-0.106,1.017-0.08c0.332,0.04,0.746-0.668,1.094-0.614
				c0.319,0.026,0.693-0.04,1.015,0c0.334,0.055,0.468,1.63,0.801,1.685c0.32,0.039,0.682-0.055,1.016,0
				c0.319,0.039,0.641,0.214,0.961,0.268c0.333,0.053,0.827-0.855,1.174-0.802c0.32,0.054,0.534,0.802,0.854,0.854
				c0.334,0.066,0.667,0.04,1.015,0.106c0.32,0.08,0.587,0.4,0.935,0.468c0.32,0.066,0.693-0.12,1.027-0.04
				c0.333,0.066,0.734-0.24,1.081-0.16c0.32,0.066,0.774-0.427,1.107-0.348c0.334,0.08,0.748-0.24,1.067-0.16
				c0.334,0.081,0.36,1.417,0.682,1.497c0.333,0.08,0.894-0.803,1.228-0.723c0.32,0.08,0.694-0.026,1.016,0.054
				c0.333,0.08,0.347,1.496,0.667,1.576c0.319,0.08,0.693,0.014,1.015,0.094s0.841-0.614,1.175-0.534
				c0.32,0.08,0.774-0.359,1.095-0.279c0.334,0.079,0.215,2.029,0.534,2.109c0.319,0.081,1.055-1.589,1.374-1.509
				c0.334,0.079,0.44,1.136,0.763,1.188c0.332,0.08,0.532,0.884,0.853,0.938c0.334,0.08,1.016-1.685,1.321-1.632
				c0.347,0.066,0.493,1.097,0.813,1.137c0.349,0.053,0.534,1.215,0.855,1.255c0.347,0.04,0.746-1.775,1.094-1.803
				c0.32-0.026,0.854,1.309,1.201,1.229c0.321-0.08,0.107-1.79,0.454-1.909c0.293-0.121,1.361,1.43,1.669,1.27
				c0.293-0.161,0.573-0.508,0.853-0.694c0.28-0.188,0.041-1.123,0.334-1.31c0.254-0.214,0.268-0.695,0.533-0.923
				c0.241-0.214,0.269-0.654,0.494-0.896c0.24-0.214,0.947,0.026,1.188-0.214c0.228-0.24-0.173-1.042,0.054-1.283
				c0.214-0.253,1.723,0.563,1.948,0.309c0.188-0.254,0.733-0.309,0.947-0.574c0.2-0.267-0.493-1.229-0.293-1.495
				c0.199-0.282-0.28-1.017-0.08-1.283c0.199-0.268,0.693-0.319,0.895-0.613c0.174-0.295,0.254-0.629,0.427-0.909
				c0.188-0.294,1.202-0.054,1.375-0.36c0.174-0.279,0.814-0.308,0.975-0.613c0.188-0.295-0.426-1.029-0.267-1.323
				c0.175-0.309,1.229-0.106,1.389-0.401c0.16-0.306-1.468-1.575-1.309-1.869c0.159-0.295,0.588-0.44,0.747-0.748
				c0.16-0.307,0.014-0.749,0.175-1.042c0.146-0.294,1.813,0.133,1.947-0.161c0.146-0.32-0.692-1.095-0.548-1.389
				c0.147-0.321,1.576-0.027,1.709-0.334c0.147-0.308,0.014-0.763,0.147-1.057c0.146-0.319-1.108-1.255-0.976-1.549
				c0.146-0.321,1.988,0.106,2.136-0.188c0.134-0.321-1.04-1.188-0.906-1.497c0.132-0.319,0.586-0.507,0.706-0.802
				c0.134-0.32-0.627-1.002-0.494-1.31c0.106-0.319,0.508-0.521,0.628-0.828c0.12-0.334,1.668-0.095,1.788-0.4
				c0.12-0.333-1.414-1.282-1.294-1.589c0.12-0.335,0.479-0.575,0.588-0.854c0.133-0.361,0.333-0.654,0.427-0.923
				c0.228-0.602,0.479-0.359,0.613-0.842c0.16-0.479,0.107-0.493,0.268-0.975s0.747-0.269,0.907-0.749"/>
		</g>
		<g>
			<path fill="none" stroke="#000000" stroke-width="3" stroke-miterlimit="10" d="M110.95,110.031
				c-0.146-0.48-1.44,0.015-1.602-0.629c-0.08-0.28,1.359-0.976,1.28-1.349c-0.08-0.294-1.374-0.334-1.454-0.695
				c-0.066-0.319,0.014-0.681-0.066-1.042c-0.067-0.294-0.054-0.652-0.134-0.987c-0.08-0.32-1.229-0.414-1.309-0.748
				c-0.055-0.321,1.908-1.096,1.828-1.443c-0.065-0.32-0.414-0.587-0.494-0.936c-0.065-0.308-1.375-0.4-1.44-0.733
				c-0.081-0.335-0.213-0.655-0.268-0.976c-0.065-0.334-0.267-0.643-0.319-0.989c-0.054-0.319,1.014-0.854,0.934-1.201
				c-0.054-0.334-0.374-0.615-0.428-0.963c-0.053-0.319-0.653-0.562-0.706-0.908c-0.066-0.334,0.813-0.828,0.76-1.162
				c-0.052-0.334,0.027-0.682,0-1.027c-0.065-0.32-0.159-0.644-0.226-0.989c-0.04-0.334-1.296-0.48-1.349-0.828
				c-0.041-0.32-0.12-0.654-0.16-0.989c-0.055-0.347-0.135-0.667-0.174-1.015c-0.041-0.32,0.841-0.801,0.787-1.121
				c-0.04-0.335,0.08-0.695,0.04-1.029s0.066-0.682,0.04-1.027c-0.054-0.321,0.066-0.682,0.026-1.017
				c-0.04-0.319-0.601-0.602-0.641-0.935c-0.027-0.349,0-0.684-0.04-1.018s0.601-0.746,0.573-1.067
				c-0.04-0.347-1.722-0.522-1.762-0.855c-0.027-0.347-0.428-0.667-0.441-0.986c-0.039-0.334,1.937-0.843,1.909-1.178
				c-0.026-0.347-1.868-0.533-1.895-0.881c-0.026-0.349,1.015-0.748,0.987-1.096c-0.025-0.334,0.534-0.694,0.508-1.042
				c-0.027-0.349-1.016-0.614-1.027-0.962c-0.026-0.348-0.947-0.642-0.962-0.976c-0.013-0.348,0.2-0.695,0.188-1.042
				c-0.015-0.334-0.28-0.668-0.28-1.016c-0.027-0.334,1.268-0.709,1.255-1.056c0-0.348-1.082-0.668-1.095-0.988
				c0-0.348,0.053-0.694,0.053-1.029c0-0.348,1.895-0.693,1.895-1.042c0-0.334-0.146-0.668-0.146-1.016
				c0-0.334-2.109-0.694-2.109-1.028c0-0.347,1.456-0.668,1.482-1.016c0-0.334-1.456-0.721-1.442-1.055
				c0-0.334,1.122-0.654,1.136-0.989c0.014-0.348-0.12-0.681-0.094-1.028c0-0.348,0.693-0.641,0.693-0.988
				c0.027-0.334-0.587-0.707-0.561-1.041c0.026-0.349,0.28-0.669,0.32-1.002c0.026-0.335,0.733-0.615,0.746-0.949
				c0.027-0.348-1.439-0.815-1.414-1.161c0.026-0.335,0.562-0.629,0.614-0.976c0.026-0.334,1.066-0.563,1.094-0.897
				c0.026-0.332-0.853-0.787-0.8-1.108c0.039-0.347-0.563-0.773-0.521-1.107c0.04-0.348,0.733-0.603,0.802-0.922
				c0.04-0.347,0.054-0.694,0.119-1.017c0.055-0.348-0.479-0.773-0.427-1.107c0.055-0.334,0.881-0.534,0.935-0.868
				c0.066-0.348,0.534-0.602,0.602-0.936c0.066-0.32-0.439-0.774-0.374-1.121c0.066-0.322-0.548-0.816-0.468-1.149
				c0.08-0.321,0.936-0.48,1.016-0.814c0.08-0.333-0.16-0.735-0.08-1.082c0.08-0.32,1.602-0.269,1.682-0.588
				c0.094-0.335-0.587-0.883-0.507-1.189c0.105-0.333,1.015-0.4,1.121-0.721c0.094-0.334-0.32-0.803-0.228-1.137
				c0.106-0.319-0.468-0.854-0.36-1.176c0.12-0.319-0.428-0.896-0.308-1.202c0.12-0.319,0.12-0.722,0.229-1.015
				c0.133-0.321,0.347-0.615,0.479-0.937c0.134-0.32,0.534-0.533,0.668-0.854c0.132-0.307,1.44-0.105,1.574-0.427
				c0.134-0.295,0.534-0.469,0.693-0.775c0.146-0.308,0.065-0.708,0.214-1.016c0.159-0.293-0.479-0.988-0.308-1.31
				c0.159-0.294,0.213-0.653,0.387-0.947c0.175-0.309,1.522,0.092,1.684-0.188c0.174-0.295-0.428-1.056-0.24-1.321
				c0.173-0.294-0.268-0.988-0.08-1.283c0.2-0.268,0.8-0.268,0.986-0.548c0.201-0.28,0.695-0.348,0.896-0.614
				c0.2-0.281,0.36-0.587,0.562-0.842c0.199-0.269,1.08,0.025,1.294-0.24c0.214-0.268,0.349-0.588,0.588-0.854
				c0.214-0.254,0.294-0.614,0.521-0.882c0.228-0.268-0.039-0.936,0.174-1.201c0.24-0.24-0.348-1.23-0.105-1.471
				c0.212-0.268,0.572-0.414,0.801-0.668c0.227-0.254,0.907-0.106,1.135-0.348c0.227-0.254,1.201,0.2,1.441-0.053
				c0.227-0.241-0.521-1.443-0.28-1.685s0.587-0.374,0.828-0.629c0.239-0.24,1.494,0.549,1.733,0.31
				c0.24-0.242,0.294-0.67,0.534-0.909c0.254-0.24,0.747-0.2,0.987-0.429c0.267-0.227-0.787-1.896-0.533-2.109
				c0.239-0.24,1.094,0.187,1.348-0.026c0.268-0.241,0.389-0.615,0.629-0.828c0.266-0.229,0.745-0.188,0.999-0.4
				c0.269-0.214,0.041-1.042,0.309-1.256c0.267-0.216,1.574,0.895,1.842,0.693c0.28-0.214-0.614-1.95-0.348-2.149
				c0.268-0.2,0.641-0.309,0.907-0.494c0.28-0.214,1.361,0.721,1.643,0.534c0.28-0.188,0.561-0.374,0.841-0.574
				c0.28-0.201,0.094-1.069,0.4-1.243c0.267-0.187,0.813,0.014,1.106-0.16c0.28-0.187,0.414-0.628,0.708-0.801
				c0.294-0.161,0.773-0.014,1.067-0.189c0.294-0.173,0.694-0.159,0.988-0.319s0.573-0.32,0.88-0.48
				c0.308-0.16,0.214-1.095,0.508-1.255c0.32-0.147,0.641-0.269,0.935-0.415c0.32-0.146,0.375-0.854,0.693-1.002
				c0.294-0.134,1.27,1.255,1.575,1.122c0.321-0.146,0.414-0.802,0.733-0.922c0.308-0.12,0.533-0.521,0.854-0.627
				c0.307-0.107,0.601-0.35,0.935-0.455c0.307-0.107,0.493-0.694,0.826-0.802c0.334-0.106,1.162,1.577,1.496,1.47
				c0.333-0.08,0.133-2.11,0.467-2.19c0.32-0.079,0.987,1.202,1.336,1.122c0.319-0.081,0.399-1.321,0.747-1.39
				c0.333-0.066,0.707-0.053,1.041-0.106c0.319-0.054,0.882,1.122,1.2,1.068c0.334-0.054,0.548-0.975,0.882-1.015
				c0.348-0.055,0.802,1.095,1.147,1.067c0.347-0.026,0.533-1.656,0.881-1.684s0.774,1.656,1.121,1.63
				c0.348-0.014,0.613-1.844,0.947-1.844c0.334-0.026,0.708,0.814,1.055,0.814c0.334,0,0.653,0.734,0.987,0.734
				c0.348,0.014,0.694-0.694,1.042-0.681c0.347,0.013,0.693-0.229,1.04-0.201c0.334,0.026,0.588,1.016,0.922,1.042
				c0.333,0.026,0.654,0.214,0.975,0.254c0.334,0.04,0.801-1.296,1.135-1.255c0.334,0.04,0.574,0.947,0.907,0.975
				c0.334,0.04,0.813-1.148,1.16-1.108c0.321,0.04,0.454,1.724,0.774,1.776c0.333,0.053,0.895-1.563,1.229-1.521
				c0.334,0.053,0.573,0.801,0.907,0.854c0.32,0.055,0.642,0.16,0.987,0.228c0.32,0.054,0.668,0.04,0.988,0.094
				c0.334,0.054,0.853-0.829,1.174-0.774c0.334,0.08,0.588,0.562,0.908,0.614c0.347,0.08,0.454,1.122,0.8,1.203
				c0.321,0.066,0.563,0.493,0.896,0.573c0.332,0.081,0.693-0.066,1.026,0.014c0.32,0.08,0.921-0.936,1.255-0.854
				c0.32,0.08,0.667,0.08,0.988,0.188c0.319,0.081,0.6,0.414,0.92,0.508c0.32,0.107,0.548,0.494,0.896,0.588
				c0.319,0.106,0.428,0.842,0.747,0.937c0.319,0.105,0.841-0.401,1.161-0.295c0.308,0.105,0.653,0.146,0.975,0.269
				c0.319,0.106,0.293,1.175,0.614,1.295c0.319,0.12,0.613,0.228,0.935,0.349c0.321,0.118,1.254-1.351,1.563-1.23
				c0.307,0.12,0.733,0.04,1.041,0.174c0.307,0.147,0.427,0.748,0.732,0.882c0.32,0.135,0.48,0.602,0.774,0.735
				c0.32,0.146,0.748,0.026,1.054,0.173c0.309,0.147,0.414,0.683,0.708,0.842c0.309,0.16,0.44,0.629,0.734,0.788
				c0.308,0.16,1.081-0.562,1.375-0.388c0.293,0.175,0.574,0.388,0.854,0.548c0.293,0.188,0.094,1.162,0.374,1.336
				c0.292,0.188,1.055-0.374,1.334-0.2c0.294,0.188-0.119,1.416,0.16,1.59c0.268,0.2,0.975-0.239,1.254-0.039
				c0.269,0.199,0.24,0.787,0.509,1.002c0.279,0.2,0.08,0.987,0.347,1.188c0.254,0.2,0.508,0.4,0.748,0.614
				c0.267,0.227,0.72,0.16,0.974,0.387c0.255,0.215,1.389-0.561,1.643-0.319c0.24,0.214-0.546,1.55-0.293,1.789
				c0.238,0.215,1.001-0.079,1.24,0.16c0.228,0.229,1.068-0.105,1.295,0.147c0.228,0.253,0.428,0.548,0.668,0.788
				c0.214,0.254-0.334,1.176-0.12,1.441c0.214,0.269,1.255-0.16,1.468,0.107c0.2,0.268-0.399,1.162-0.199,1.43
				c0.213,0.28,0.84,0.213,1.04,0.493c0.188,0.268,1.068,0.094,1.255,0.374c0.173,0.281-0.986,1.43-0.801,1.712
				c0.188,0.292,0.32,0.587,0.494,0.881c0.174,0.28,0.653,0.374,0.841,0.668c0.16,0.294,0.707,0.36,0.867,0.643
				c0.161,0.293,1.161,0.158,1.321,0.453c0.16,0.294-1.643,1.616-1.494,1.909c0.16,0.295,1.562-0.039,1.708,0.255
				c0.16,0.309,1.015,0.28,1.175,0.588c0.134,0.294-1.575,1.441-1.441,1.765c0.134,0.293,1.709-0.027,1.842,0.28
				c0.134,0.307-0.586,0.975-0.453,1.296c0.134,0.294,0.961,0.334,1.081,0.653c0.12,0.32-0.04,0.734,0.066,1.056
				c0.106,0.32,0.722,0.469,0.827,0.789c0.107,0.319-1.349,1.161-1.255,1.469c0.106,0.321,0.146,0.643,0.24,0.963
				c0.08,0.32,2.028,0.12,2.108,0.439c0.094,0.321-0.453,0.829-0.373,1.149c0.08,0.334,1.001,0.479,1.066,0.801
				c0.08,0.334-1.828,1.083-1.761,1.417c0.066,0.32,1.2,0.44,1.254,0.774c0.054,0.32,0.854,0.548,0.908,0.881
				c0.053,0.321-1.468,0.896-1.442,1.229c0.055,0.32-0.347,0.695-0.307,1.017c0.04,0.348,2.082,0.48,2.096,0.802
				c0.04,0.334-1.121,0.775-1.107,1.096c0.026,0.334,0.562,0.654,0.573,0.988c0,0.32-0.159,0.681-0.159,1.016
				c0,0.32,0.453,0.668,0.453,1.016c0,0.334-1.643,0.614-1.654,0.949c-0.027,0.334,1.869,0.761,1.869,1.095
				c-0.027,0.334-0.269,0.682-0.295,1.003c-0.025,0.334-1.602,0.507-1.654,0.854c-0.026,0.32,1.389,0.829,1.335,1.161
				c-0.054,0.335-0.668,0.589-0.722,0.923c-0.054,0.32-0.613,0.562-0.681,0.882c-0.054,0.333,0.895,0.868,0.813,1.188
				c-0.08,0.334-1.175,0.414-1.255,0.734c-0.079,0.335,0.24,0.748,0.16,1.068c-0.094,0.32-0.268,0.614-0.374,0.936
				c-0.094,0.321-0.601,0.509-0.693,0.829c-0.106,0.319,0.907,1.015,0.801,1.335c-0.106,0.321,0.374,0.855,0.241,1.177
				c-0.135,0.319-2.029-0.08-2.163,0.24c-0.133,0.294,1.415,1.336,1.281,1.655c-0.135,0.294-1.748-0.065-1.896,0.229
				c-0.161,0.307,0.293,0.881,0.146,1.188c-0.146,0.294-0.642,0.428-0.802,0.722s-0.081,0.722-0.228,1.002
				c-0.16,0.294-0.106,0.708-0.294,1.002c-0.173,0.279-0.053,0.748-0.239,1.043c-0.187,0.278-1.521-0.189-1.709,0.08
				c-0.187,0.293-0.094,0.681-0.294,0.961c-0.306,0.388,0.107,0.533-0.346,0.962c-0.214,0.201-0.762,0.081-1.042,0.347
				c-0.24,0.214-0.813,0.027-1.067,0.269c-0.24,0.2,0.854,2.004,0.6,2.23c-0.239,0.2-1.159-0.36-1.428-0.146
				c-0.239,0.215,0.188,1.31-0.08,1.522c-0.267,0.188-1.228-0.508-1.494-0.294c-0.268,0.187-0.146,0.936-0.413,1.122
				c-0.268,0.201-1.042-0.308-1.321-0.12c-0.267,0.188-0.961-0.253-1.241-0.066c-0.28,0.175,0.574,2.109,0.294,2.298
				c-0.281,0.16-1.429-1.042-1.722-0.854c-0.281,0.161-0.401,0.575-0.708,0.748c-0.28,0.161,0.04,1.442-0.254,1.604
				c-0.28,0.16-1.067-0.562-1.361-0.4c-0.293,0.134-0.267,0.949-0.562,1.096c-0.307,0.16-1.214-0.962-1.521-0.828
				c-0.293,0.134-0.48,0.534-0.787,0.668c-0.308,0.134-0.174,1.27-0.494,1.389c-0.32,0.135-0.961-0.573-1.281-0.453
				c-0.294,0.12-0.827-0.348-1.122-0.24c-0.319,0.12-0.292,1.229-0.612,1.337c-0.32,0.093-0.936-0.803-1.255-0.723
				c-0.32,0.106-0.601,0.295-0.935,0.375c-0.319,0.08-0.641,0.105-0.961,0.188c-0.334,0.08-0.508,0.721-0.854,0.787
				c-0.32,0.067-0.534,0.842-0.854,0.895c-0.334,0.055-0.694,0.107-1.015,0.148c-0.334,0.04-0.721-0.229-1.04-0.201
				c-0.349,0.04-0.748-0.988-1.097-0.962c-0.319,0.027-0.572,1.684-0.92,1.684c-0.334,0.015-0.693-1.47-1.027-1.47
				c-0.349,0-0.682,0.614-1.015,0.614c-0.319-0.026-0.682,0.174-1.015,0.146c-0.321-0.013-0.683,0.067-1.016,0.027
				c-0.319-0.04-0.733,0.415-1.066,0.375c-0.348-0.04-0.748,0.173-1.082,0.12c-0.333-0.054-0.253-2.151-0.587-2.231
				c-0.333-0.065-0.896,0.923-1.215,0.814c-0.319-0.08-0.479-0.747-0.801-0.854c-0.308-0.08-0.534-0.549-0.854-0.643
				c-0.334-0.093-0.694-0.053-1.016-0.134c-0.332-0.08-1.041,1.336-1.36,1.256c-0.321-0.08-0.693,0.067-1.016-0.013
				c-0.319-0.08-0.239-1.979-0.561-2.044c-0.32-0.067-1.015,1.496-1.334,1.416c-0.32-0.055-0.508-0.803-0.828-0.869
				c-0.334-0.053-0.508-1.068-0.828-1.135c-0.347-0.055-0.88,1.147-1.2,1.122c-0.334-0.055-0.693,0.173-1.016,0.133
				c-0.333-0.054-0.573-0.802-0.906-0.827c-0.348-0.027-0.733,1.016-1.067,0.988c-0.349-0.027-0.589-1.711-0.907-1.711
				c-0.334-0.026-0.694,0.295-1.015,0.295c-0.334,0-0.709-0.869-1.028-0.855c-0.333,0-0.573,1.776-0.907,1.79
				c-0.347,0.027-0.654,0.04-0.975,0.08c-0.348,0.04-0.921-1.59-1.254-1.523c-0.321,0.055-0.374,1.564-0.694,1.632
				c-0.334,0.08-0.907-0.775-1.229-0.683c-0.32,0.095-0.562,0.494-0.882,0.614c-0.319,0.12-0.294,1.029-0.587,1.176
				c-0.319,0.134-0.399,0.615-0.692,0.763c-0.294,0.146-0.668,0.054-0.963,0.227c-0.279,0.174-0.521,0.321-0.8,0.521
				c-0.268,0.174-1.107-0.44-1.361-0.239c-0.269,0.213-0.026,1.016-0.28,1.229c-0.254,0.229-0.494,0.401-0.733,0.643
				c-0.24,0.214-1.136-0.2-1.362,0.04c-0.226,0.239,0.722,1.55,0.509,1.804c-0.229,0.24-0.603,0.321-0.814,0.587
				c-0.201,0.24-0.653,0.294-0.854,0.562c-0.2,0.269-0.308,0.588-0.493,0.843c-0.201,0.268-0.855,0.199-1.042,0.469
				c-0.199,0.266,0.267,1,0.08,1.281c-0.2,0.279-0.319,0.613-0.508,0.908c-0.187,0.293-1.44-0.146-1.629,0.134
				c-0.187,0.294-0.772,0.319-0.96,0.613c-0.2,0.281,0.013,0.855-0.188,1.137c-0.188,0.295-0.026,0.813-0.214,1.081
				c-0.2,0.309-0.562,0.481-0.734,0.775c-0.2,0.294,0.094,0.881-0.093,1.175c-0.188,0.294,0.025,0.829-0.16,1.123
				c-0.188,0.293-0.801,0.321-0.961,0.588c-0.188,0.308-0.4,0.587-0.574,0.854c-0.174,0.308-0.987,0.228-1.16,0.508
				c-0.188,0.307,0.346,1.028,0.187,1.309c-0.187,0.321-1.334,0.026-1.509,0.321c-0.174,0.294-0.52,0.508-0.68,0.788
				c-0.188,0.321,0.96,1.376,0.8,1.656c-0.174,0.319-0.494,0.534-0.64,0.814c-0.188,0.349-1.764-0.133-1.896,0.135
				c-0.318,0.572-0.24,0.452-0.479,0.907"/>
		</g>
		<g>
			<path fill="none" stroke="#000000" stroke-width="3" stroke-miterlimit="10" d="M144.998,149.655
				c0.454,0.214-0.014,0.868,0.547,1.161c0.268,0.12,0.882-0.293,1.202-0.12c0.268,0.16-0.24,1.736,0.08,1.896
				c0.268,0.16,0.987-0.414,1.28-0.239c0.28,0.159,0.215,0.907,0.508,1.096c0.268,0.16,1.106-0.563,1.4-0.375
				c0.28,0.174-0.146,1.443,0.147,1.63c0.267,0.188,0.854-0.12,1.146,0.054c0.269,0.188,1.095-0.414,1.375-0.213
				c0.268,0.188,0.388,0.573,0.668,0.773c0.253,0.199,0.88-0.04,1.135,0.159c0.267,0.202-0.4,1.632-0.135,1.831
				c0.269,0.2,0.936-0.106,1.188,0.12c0.254,0.188,0.398,0.535,0.652,0.748c0.255,0.214,0.748,0.161,0.988,0.374
				c0.268,0.229,0.801,0.134,1.041,0.362c0.239,0.226,0.079,0.894,0.32,1.135c0.24,0.24,0.694,0.268,0.907,0.507
				c0.24,0.24,0.882,0.107,1.095,0.349c0.24,0.24,0.12,0.813,0.347,1.068c0.229,0.24-0.374,1.202-0.146,1.455
				c0.213,0.254,0.2,0.684,0.414,0.923c0.199,0.268,1.908-0.669,2.107-0.389c0.214,0.27-0.961,1.551-0.772,1.817
				c0.199,0.279,1.414-0.16,1.602,0.12c0.188,0.267-0.773,1.281-0.613,1.564c0.187,0.28,0.427,0.493,0.601,0.773
				c0.16,0.308,1.936-0.28,2.082,0.025c0.146,0.295-1.215,1.352-1.068,1.646c0.135,0.306,0.389,0.532,0.521,0.841
				c0.105,0.308,1.106,0.28,1.228,0.602c0.107,0.321-0.521,0.868-0.427,1.201c0.105,0.321,1.228,0.361,1.308,0.695
				c0.08,0.319-0.187,0.749-0.134,1.083c0.08,0.333,0.48,0.627,0.534,0.947c0.054,0.333-0.174,0.723-0.146,1.068
				c0.014,0.32-1.187,0.722-1.175,1.056c0.015,0.334-0.12,0.628-0.146,0.962c0,0.334,1.081,0.708,1.041,1.028
				c-0.027,0.349-0.428,0.642-0.454,0.963c-0.054,0.333,0.213,0.707,0.16,1.041c-0.067,0.32,0.347,0.748,0.294,1.083
				c-0.067,0.333,0,0.694-0.067,1.028c-0.065,0.319-1.48,0.347-1.562,0.681c-0.081,0.335,0.733,0.855,0.653,1.189
				c-0.08,0.319-1.349,0.347-1.429,0.653c-0.105,0.32,0.654,0.869,0.563,1.189c-0.095,0.32,0.986,0.988,0.906,1.309
				c-0.105,0.321-2.055,0.094-2.162,0.429c-0.079,0.32,0.747,0.923,0.642,1.229c-0.107,0.32-0.094,0.683-0.188,1.003
				c-0.105,0.32,0.614,0.896,0.509,1.215c-0.095,0.32-1.603,0.188-1.708,0.509c-0.095,0.32,0.399,0.842,0.307,1.162
				c-0.105,0.308-0.895,0.413-1.001,0.733c-0.094,0.322,0.761,0.937,0.667,1.257c-0.105,0.321-1.334,0.308-1.414,0.627
				c-0.107,0.321,1.014,1.003,0.934,1.323c-0.105,0.321-1.254,0.349-1.348,0.669c-0.094,0.319-0.308,0.641-0.388,0.948
				c-0.08,0.333,1.495,1.056,1.415,1.4c-0.08,0.32-1.335,0.349-1.415,0.695c-0.053,0.32,0.508,0.774,0.441,1.109
				c-0.067,0.334-1.749,0.359-1.829,0.681c-0.054,0.334,0.881,0.854,0.827,1.177c-0.055,0.334,0.533,0.747,0.479,1.068
				c-0.04,0.334-0.667,0.587-0.694,0.935c-0.04,0.335,0.188,0.695,0.16,1.016c-0.013,0.335-0.373,0.669-0.373,0.988
				c-0.026,0.335-0.439,0.695-0.427,1.042c0.014,0.321-0.066,0.694-0.054,1.028c0.026,0.335,1.055,0.603,1.095,0.923
				c0.026,0.334,0.133,0.641,0.187,0.961c0.055,0.349-0.159,0.695-0.079,1.043c0.054,0.32,0.588,0.533,0.668,0.854
				c0.079,0.319,0.507,0.507,0.612,0.828c0.106,0.32-0.025,0.668,0.106,0.987c0.105,0.309-0.854,1.042-0.72,1.363
				c0.119,0.32,0.974,0.294,1.12,0.588c0.146,0.308,0.479,0.507,0.642,0.801c0.16,0.28,0.16,0.655,0.347,0.937
				c0.16,0.294-0.16,0.896,0.026,1.176c0.188,0.28,1.107,0.04,1.308,0.32c0.188,0.255-0.507,1.201-0.293,1.471
				c0.213,0.266,0.16,0.772,0.388,1.015c0.214,0.254,0.975,0.055,1.188,0.309c0.24,0.239,1.361-0.389,1.588-0.147
				c0.229,0.24,0.067,0.855,0.308,1.082s0.255,0.709,0.508,0.922c0.238,0.214,0.934-0.08,1.175,0.134
				c0.267,0.228,0.561,0.348,0.827,0.562c0.267,0.201-0.774,2.044-0.507,2.244c0.267,0.215,1.174-0.413,1.454-0.213
				c0.254,0.199,1.147-0.481,1.429-0.281c0.279,0.201-0.507,1.911-0.214,2.098c0.268,0.188,1.106-0.479,1.389-0.294
				c0.28,0.188,0.026,1.203,0.32,1.39c0.294,0.16,1.254-0.748,1.548-0.574c0.267,0.175,0.573,0.321,0.854,0.494
				c0.294,0.16,0.747,0.027,1.04,0.188c0.309,0.16,0.628,0.254,0.922,0.428c0.294,0.161,0.36,0.748,0.654,0.882
				c0.294,0.16,0.479,0.522,0.8,0.655c0.294,0.146,0.854-0.294,1.148-0.16c0.319,0.146-0.08,1.964,0.214,2.099
				c0.319,0.119,0.747,0.053,1.054,0.159c0.32,0.12,1.028-0.854,1.35-0.749c0.319,0.106,0.427,0.909,0.747,0.989
				c0.334,0.092,0.988-1.043,1.309-0.936c0.319,0.08,0.333,1.441,0.667,1.51c0.32,0.065,0.854-0.814,1.175-0.762
				c0.349,0.054,0.494,1.136,0.827,1.176c0.32,0.053,0.747-0.428,1.081-0.374c0.334,0.025,0.762-0.988,1.081-0.962
				c0.348,0.026,0.628,0.188,0.961,0.2c0.349,0.014,0.643,1.791,0.963,1.791c0.346,0,0.667-0.844,1.014-0.844
				c0.348-0.013,0.668-0.294,0.988-0.307c0.334-0.027,0.64-0.429,0.96-0.468c0.334-0.026,0.854,1.336,1.176,1.281
				c0.333-0.039,0.72,0.055,1.04,0c0.348-0.054,0.574-0.693,0.908-0.762c0.319-0.065,0.588-0.521,0.906-0.601
				c0.32-0.066,0.494-0.695,0.814-0.789c0.307-0.094,1.08,1.257,1.401,1.147c0.319-0.093-0.027-2.178,0.293-2.283
				c0.32-0.12,1.281,1.577,1.603,1.457c0.319-0.12-0.08-1.99,0.239-2.125c0.294-0.119,1.322,1.402,1.63,1.27
				c0.32-0.146,0.08-1.416,0.387-1.563c0.308-0.146,1.281,1.041,1.588,0.882c0.294-0.159,0.602-0.347,0.881-0.508
				c0.295-0.159-0.039-1.457,0.255-1.631c0.279-0.16,1.255,0.775,1.534,0.589c0.294-0.159-0.293-1.71,0-1.896
				c0.279-0.188,1.255,0.669,1.521,0.48c0.28-0.188,0.454-0.548,0.721-0.748c0.279-0.188,0.667-0.24,0.935-0.44
				c0.28-0.201,0.319-0.707,0.573-0.937c0.269-0.199,0.603-0.319,0.867-0.533c0.268-0.214-0.213-1.295,0.055-1.51
				c0.254-0.214,1.175,0.334,1.415,0.107c0.254-0.215-0.106-1.123,0.146-1.338c0.253-0.24,1.32,0.429,1.562,0.188
				c0.239-0.215-0.521-1.51-0.293-1.736c0.239-0.24,0.667-0.268,0.906-0.508c0.229-0.24,0.882-0.055,1.121-0.294
				c0.228-0.24-0.294-1.188-0.08-1.442c0.24-0.254,1.068,0.065,1.282-0.188c0.24-0.24,0.946-0.066,1.174-0.321
				c0.214-0.24-0.642-1.415-0.439-1.669c0.213-0.253,1.562,0.414,1.789,0.174c0.214-0.268-0.229-1.043-0.015-1.311
				c0.215-0.254,0.548-0.414,0.747-0.693c0.215-0.268,0.828-0.214,1.028-0.494c0.2-0.281-0.2-0.977,0-1.243s0.92-0.187,1.107-0.453
				c0.187-0.294-0.642-1.243-0.453-1.522c0.186-0.28,1.04-0.12,1.214-0.4c0.174-0.281,0.534-0.454,0.721-0.736
				c0.173-0.279,0.134-0.707,0.307-0.986c0.16-0.309,0.44-0.521,0.614-0.814c0.16-0.294,1.39,0,1.549-0.294
				c0.159-0.295-0.801-1.204-0.641-1.497c0.16-0.307-0.428-0.962-0.28-1.256c0.146-0.32,1.922,0.188,2.068-0.12
				c0.146-0.307-0.08-0.801,0.054-1.095c0.133-0.308,0.414-0.575,0.534-0.869c0.146-0.319-0.908-1.122-0.788-1.415
				c0.12-0.321,1.774-0.066,1.882-0.375c0.12-0.319-1.455-1.229-1.348-1.536c0.093-0.334,0.681-0.48,0.773-0.802
				c0.094-0.334-0.333-0.763-0.253-1.083c0.079-0.346-0.041-0.64,0.025-0.961c0.066-0.348,1.535-0.439,1.575-0.748
				c0.04-0.36-0.641-0.748-0.614-1.067c0-0.349-0.174-0.723-0.2-1.042c0.066-0.495-0.228-0.482-0.066-1.123
				c0.066-0.268,1.869-0.175,1.976-0.549c0.055-0.307,0.135-0.642,0.215-1.001c0.065-0.308-1.589-0.988-1.521-1.336
				c0.054-0.308,0.16-0.629,0.214-0.963c0.054-0.318,1.494-0.428,1.548-0.761c0.055-0.321-1.187-0.854-1.134-1.188
				c0.04-0.32-0.294-0.694-0.254-1.042c0.054-0.334,0.813-0.562,0.853-0.909c0.04-0.32-0.199-0.681-0.16-1.016
				c0.026-0.334-0.133-0.668-0.094-1.016c0.041-0.334,1.669-0.534,1.696-0.868c0.026-0.334,0.146-0.681,0.16-1.015
				c0.026-0.335-1.028-0.735-1.002-1.082c0.014-0.321-0.146-0.668-0.146-1.016c0.026-0.321,1.39-0.615,1.39-0.963
				c0.025-0.319-0.774-0.682-0.774-1.015c0-0.349-1.122-0.669-1.122-1.017c0-0.321,1.042-0.667,1.042-1.016
				c-0.014-0.319,0.668-0.694,0.668-1.016c-0.026-0.334-1.016-0.642-1.042-0.975c0-0.334,1.202-0.735,1.176-1.083
				c-0.026-0.334-1.39-0.588-1.416-0.907c-0.025-0.334,0.36-0.709,0.32-1.043c-0.025-0.32-0.054-0.669-0.08-1.003
				c-0.04-0.332-0.748-0.572-0.773-0.921c-0.055-0.334,0.16-0.694,0.119-1.029c-0.039-0.333,0.682-0.787,0.629-1.107
				c-0.055-0.348-0.135-0.669-0.215-1.017c-0.054-0.32,0.24-0.733,0.16-1.068c-0.054-0.319-0.974-0.479-1.041-0.827
				c-0.065-0.321,0.188-0.722,0.107-1.041c-0.08-0.35-0.813-0.51-0.896-0.829c-0.079-0.334-0.548-0.549-0.628-0.869
				c-0.105-0.319,0.802-0.908,0.708-1.241c-0.094-0.321-0.708-0.481-0.813-0.803c-0.094-0.32,0.439-0.854,0.319-1.175
				c-0.106-0.32-0.894-0.4-1.014-0.723c-0.106-0.32,0.133-0.747,0-1.067c-0.106-0.321,0.253-0.828,0.133-1.149
				c-0.105-0.308,0.24-0.828,0.106-1.136c-0.133-0.307-2.082,0.161-2.229-0.146c-0.133-0.319,1.416-1.39,1.269-1.684
				c-0.133-0.32-0.547-0.507-0.694-0.801c-0.16-0.321-1.628,0.054-1.762-0.255c-0.16-0.294,0.054-0.774-0.105-1.068
				c-0.16-0.307,0.479-1.028,0.307-1.323c-0.173-0.293-1.468,0.081-1.641-0.213c-0.174-0.294,1.174-1.509,0.985-1.791
				c-0.187-0.293-0.239-0.681-0.427-0.962c-0.173-0.293-1.415,0.135-1.602-0.159c-0.188-0.268-0.854-0.214-1.055-0.479
				c-0.2-0.269,0.867-1.471,0.681-1.737c-0.214-0.28-0.586-0.428-0.801-0.693c-0.199-0.269-0.668-0.335-0.867-0.603
				c-0.228-0.254-1.215,0.146-1.441-0.12c-0.214-0.268,0-0.882-0.214-1.147c-0.213-0.24-0.493-0.441-0.734-0.695
				c-0.213-0.24-0.213-0.694-0.453-0.963c-0.227-0.226-0.507-0.426-0.733-0.666c-0.24-0.242-0.947,0-1.188-0.242
				c-0.241-0.24-0.026-0.935-0.268-1.176c-0.254-0.214-0.319-0.653-0.573-0.881c-0.254-0.229,0.014-1.069-0.228-1.283
				c-0.254-0.214-0.882-0.04-1.121-0.254c-0.268-0.226-0.24-0.814-0.508-1.015c-0.253-0.2-1.44,0.749-1.709,0.549
				c-0.267-0.215-0.399-0.575-0.666-0.775c-0.28-0.201,0.094-1.282-0.188-1.481c-0.268-0.201-1.362,0.787-1.643,0.586
				c-0.279-0.199-0.307-0.734-0.601-0.907c-0.28-0.188-0.454-0.521-0.748-0.694c-0.28-0.188-0.961,0.28-1.254,0.094
				c-0.28-0.161-0.601-0.269-0.881-0.455c-0.294-0.16,0.399-2.004,0.105-2.19c-0.294-0.16-1.36,1.043-1.654,0.855
				c-0.293-0.16-0.547-0.374-0.854-0.535c-0.294-0.16-0.868,0.215-1.174,0.055c-0.294-0.135-0.174-1.108-0.48-1.27
				c-0.294-0.147-0.106-1.323-0.428-1.471c-0.294-0.146-1.494,1.591-1.788,1.456c-0.319-0.146-0.254-1.082-0.561-1.216
				c-0.309-0.134-0.694-0.066-1.017-0.2c-0.306-0.12-0.692-0.08-1-0.199s-0.561-0.414-0.867-0.534s-0.613-0.28-0.921-0.4
				c-0.319-0.121-0.762,0.146-1.082,0.026c-0.319-0.12-0.187-1.47-0.507-1.59c-0.32-0.107-0.721,0-1.041-0.107
				c-0.319-0.105-0.439-0.827-0.748-0.948c-0.319-0.106-0.76,0.134-1.094,0.039c-0.32-0.105-0.614-0.267-0.961-0.373
				c-0.321-0.106-1.095,1.362-1.43,1.282c-0.319-0.093-0.159-1.923-0.479-2.03c-0.334-0.08-1.16,1.75-1.508,1.656
				c-0.32-0.08-0.348-1.256-0.694-1.336c-0.319-0.08-0.508-0.748-0.828-0.828c-0.346-0.08-0.986,1.188-1.308,1.108
				c-0.347-0.08-0.534-0.734-0.854-0.814c-0.506-0.08-0.346-0.054-1-0.16c-0.279-0.025-0.602-0.239-0.975-0.294
				c-0.32-0.04-0.613-0.267-0.987-0.294c-0.319-0.04-0.653-0.025-1.016-0.066c-0.32-0.04-0.6-0.534-0.935-0.574
				c-0.319-0.04-0.761,0.695-1.095,0.655s-0.667-0.067-1.014-0.121c-0.32-0.026-0.748,0.762-1.095,0.722
				c-0.32-0.026-0.614-0.587-0.947-0.614c-0.334-0.025-0.694,0.294-1.042,0.254c-0.334-0.039-0.602-0.682-0.946-0.709
				c-0.321-0.025-0.682,0.107-1.016,0.095c-0.334-0.04-0.562-1.375-0.896-1.402c-0.333-0.026-0.787,1.39-1.134,1.362
				c-0.32-0.026-0.628-0.521-0.962-0.534c-0.32-0.026-0.601-1.095-0.935-1.121c-0.319-0.027-0.761,1.281-1.095,1.255
				c-0.347-0.025-0.708,0.48-1.04,0.454c-0.348-0.014-0.614-1.349-0.937-1.362c-0.347-0.025-0.693,0.374-1.04,0.349
				c-0.348-0.015-0.682,0.133-1.027,0.12c-0.334-0.015-0.654-1.178-0.975-1.189c-0.348,0-0.708,0.937-1.042,0.909
				c-0.347,0-0.693,0.24-1.041,0.24c-0.333,0-0.667-1.123-1.014-1.123c-0.334,0-0.694-0.134-1.016-0.134
				c-0.347,0-0.693-0.026-1.027-0.026c-0.333,0-0.681,0.722-1.001,0.735c-0.348,0.014-0.693-0.228-1.041-0.2
				c-0.347,0-0.614,1.067-0.961,1.095c-0.348,0.014-0.773-0.975-1.094-0.935c-0.349,0.014-0.668,0.294-1.016,0.319
				c-0.334,0.027-0.653,0.32-0.961,0.374c-0.348,0.04-0.561,0.814-0.908,0.868c-0.334,0.066-0.573,0.481-0.881,0.549
				c-0.348,0.066-0.681-0.066-1.001,0.014c-0.334,0.094-0.681-0.04-0.987,0.066c-0.333,0.106-0.881-0.441-1.175-0.321
				c-0.334,0.135-0.014,1.362-0.279,1.522"/>
		</g>
		<g>
			<path fill="none" stroke="#000000" stroke-width="3" stroke-miterlimit="10" d="M98.271,120.638
				c-0.294-0.134-0.534-0.375-0.828-0.51c-0.294-0.134-0.48-0.479-0.788-0.613c-0.307-0.134-0.666-0.08-0.974-0.214
				c-0.308-0.12-0.642-0.134-0.948-0.253c-0.307-0.12-0.574-0.321-0.867-0.441c-0.319-0.12-0.641-0.16-0.961-0.267
				c-0.294-0.106-0.08-1.657-0.4-1.765c-0.294-0.105-0.508-0.535-0.813-0.654c-0.309-0.12-0.654-0.12-0.975-0.228
				c-0.295-0.106-0.589-0.294-0.896-0.401c-0.306-0.119-0.666-0.079-0.974-0.199c-0.308-0.121-1.229,1.297-1.521,1.188
				c-0.319-0.133-0.053-1.71-0.347-1.83c-0.309-0.12-0.48-0.549-0.788-0.669s-0.841,0.281-1.134,0.147
				c-0.32-0.134-0.774,0.106-1.068-0.027c-0.294-0.146-0.641-0.24-0.934-0.387c-0.295-0.147-0.041-1.322-0.334-1.482
				c-0.308-0.16-1.402,1.148-1.67,0.988c-0.292-0.175-0.078-1.203-0.358-1.376c-0.28-0.174-0.643-0.214-0.922-0.388
				c-0.268-0.188-0.135-0.936-0.4-1.136c-0.254-0.199-1.268,0.573-1.521,0.359c-0.268-0.199-0.814-0.106-1.068-0.319
				c-0.24-0.228,0.654-1.685,0.414-1.911c-0.24-0.239-1.24,0.294-1.468,0.054c-0.228-0.239-0.722-0.253-0.948-0.506
				c-0.228-0.255,0.48-1.324,0.294-1.578c-0.228-0.254-0.562-0.399-0.761-0.653c-0.199-0.268-0.039-0.802-0.239-1.069
				c-0.201-0.268-0.321-0.562-0.494-0.827c-0.2-0.268-1.815,0.387-1.989,0.105c-0.173-0.293-0.359-0.602-0.534-0.882
				c-0.173-0.294-0.093-0.748-0.253-1.042c-0.161-0.294,0.734-1.122,0.587-1.416c-0.16-0.293-0.399-0.535-0.533-0.842
				c-0.134-0.308-0.454-0.521-0.574-0.828c-0.12-0.307,0.294-0.814,0.174-1.136c-0.106-0.294-1.174-0.269-1.281-0.587
				c-0.105-0.321-0.347-0.589-0.439-0.909c-0.095-0.32,0.134-0.735,0.054-1.068c-0.08-0.321-0.614-0.534-0.682-0.868
				c-0.066-0.334,1.161-0.896,1.096-1.243c-0.055-0.318-1.882-0.347-1.922-0.693c-0.055-0.32-0.32-0.667-0.36-0.989
				c-0.04-0.347,0.467-0.747,0.427-1.081c-0.025-0.334-0.387-0.668-0.414-1.002c-0.013-0.32,1.336-0.708,1.336-1.042
				c0-0.319,0.267-0.642,0.279-0.975c0.014-0.335-1.48-0.735-1.468-1.069c0.026-0.334-0.08-0.708-0.04-1.042
				c0.026-0.335,1.574-0.495,1.628-0.814c0.04-0.334-0.188-0.708-0.134-1.042c0.04-0.32,0.828-0.563,0.868-0.896
				s-0.414-0.733-0.374-1.081c0.04-0.32-0.682-0.749-0.628-1.096c0.054-0.321-0.188-0.695-0.146-1.028
				c0.04-0.334,0.708-0.602,0.734-0.936c0.04-0.334-0.722-0.763-0.668-1.082c0.026-0.335,1.015-0.574,1.042-0.909
				c0.04-0.32-1.016-0.748-0.988-1.095c0.04-0.334-0.214-0.694-0.188-1.017c0.026-0.334,0.228-0.653,0.24-0.987
				c0.026-0.32,1.281-0.589,1.31-0.908c0.025-0.348-1.416-0.749-1.416-1.082c0.014-0.334,1.762-0.602,1.762-0.949
				c0.027-0.348-0.08-0.682-0.08-1.015c0-0.348-0.293-0.682-0.319-1.017c0-0.334,0.88-0.694,0.854-1.041
				c0-0.334-1.334-0.629-1.334-0.964c-0.014-0.319-0.748-0.613-0.774-0.935c-0.014-0.347,0.774-0.748,0.747-1.068
				c-0.025-0.335-0.267-0.642-0.293-0.988c-0.054-0.32-0.268-0.627-0.308-0.961c-0.04-0.321-0.24-0.629-0.294-0.963
				c-0.066-0.32,1.361-0.963,1.296-1.281c-0.067-0.335-1.017-0.481-1.096-0.803c-0.08-0.32,0.748-0.908,0.668-1.229
				c-0.095-0.321-1.108-0.388-1.216-0.708c-0.094-0.32,0.308-0.813,0.188-1.137c-0.12-0.32-1.748-0.04-1.882-0.346
				c-0.135-0.31,1.389-1.323,1.256-1.631c-0.134-0.309-1.229-0.16-1.362-0.469c-0.16-0.294,0.4-0.975,0.24-1.269
				s-0.08-0.748-0.269-1.041c-0.159-0.295-1.653,0.266-1.841-0.016c-0.188-0.279-0.201-0.628-0.4-0.907
				c-0.188-0.28-0.254-0.614-0.48-0.882c-0.186-0.255-0.346-0.549-0.573-0.814c-0.214-0.241-0.975,0.026-1.215-0.241
				c-0.214-0.24-0.106-0.747-0.348-0.988c-0.24-0.239-0.08-0.882-0.319-1.096c-0.24-0.24,0.107-1.147-0.16-1.362
				c-0.239-0.214-1.589,0.854-1.842,0.643c-0.267-0.215,0.467-1.685,0.188-1.885c-0.254-0.199-0.854,0.025-1.121-0.175
				c-0.28-0.186-1.202,0.563-1.481,0.375c-0.267-0.188-0.454-0.479-0.733-0.668c-0.268-0.188,0.399-1.923,0.119-2.109
				c-0.279-0.161-1.682,1.549-1.962,1.389c-0.294-0.16,0-1.375-0.294-1.536c-0.307-0.16-0.427-0.653-0.721-0.813
				s-1.121,0.773-1.428,0.614c-0.309-0.135-0.562-0.349-0.868-0.481c-0.308-0.146-0.347-0.855-0.667-0.989
				c-0.32-0.12-0.614-0.238-0.936-0.347c-0.32-0.107-0.347-1.255-0.667-1.362c-0.348-0.08-0.827,0.32-1.161,0.24
				c-0.334-0.053-0.681-0.213-1-0.28c-0.349-0.053-0.842,1.176-1.176,1.137c-0.347-0.027-0.561-1.765-0.895-1.791
				c-0.348-0.013-0.734,0.774-1.08,0.774c-0.334,0-0.694-0.321-1.042-0.293c-0.32,0.013-0.694,0.08-1.041,0.106
				c-0.32,0.025-0.507,1.309-0.827,1.361c-0.349,0.04-0.828-0.773-1.148-0.722c-0.333,0.08-0.721-0.04-1.041,0.04
				c-0.347,0.08-0.693,0.12-1.015,0.2c-0.319,0.106-0.373,1.082-0.693,1.203c-0.319,0.094-0.773-0.201-1.095-0.081
				c-0.319,0.106-0.214,1.229-0.533,1.362c-0.308,0.134-0.935-0.494-1.229-0.348c-0.32,0.134-0.36,0.775-0.668,0.908
				c-0.293,0.16-1.349-1.108-1.643-0.962c-0.307,0.16-0.721,0.16-1.014,0.32c-0.28,0.188,0.438,2.058,0.146,2.23
				c-0.293,0.174-1.201-0.654-1.495-0.48c-0.28,0.188-1.04-0.294-1.309-0.094c-0.267,0.188,0.214,1.47-0.054,1.67
				c-0.267,0.2-0.827,0.015-1.107,0.214c-0.254,0.2-0.921-0.065-1.187,0.146c-0.269,0.214-0.454,0.534-0.722,0.748
				c-0.24,0.215-0.562,0.4-0.814,0.614c-0.252,0.215,0.548,1.604,0.308,1.845c-0.267,0.228-0.36,0.588-0.601,0.802
				c-0.24,0.24-1.575-0.642-1.803-0.401c-0.239,0.24-0.319,0.643-0.561,0.883c-0.214,0.239-0.025,0.896-0.267,1.148
				c-0.229,0.24-0.988,0.026-1.202,0.268c-0.227,0.254-0.08,0.827-0.307,1.095c-0.214,0.241-0.521,0.429-0.734,0.694
				c-0.213,0.269-0.694,0.321-0.896,0.589c-0.213,0.268-0.04,0.813-0.253,1.095c-0.201,0.269-0.106,0.763-0.293,1.043
				c-0.214,0.267-0.454,0.494-0.668,0.774c-0.187,0.267-0.693,0.307-0.881,0.589c-0.201,0.267,0.213,0.961,0.026,1.255
				c-0.188,0.268-0.026,0.774-0.229,1.042c-0.187,0.294-1.773-0.348-1.947-0.066c-0.188,0.28,0.922,1.376,0.733,1.669
				c-0.187,0.281-0.614,0.401-0.801,0.684c-0.16,0.279-0.987,0.173-1.174,0.467c-0.161,0.294-0.988,0.228-1.148,0.521
				c-0.161,0.295,1.441,1.564,1.281,1.857s-0.854,0.294-1.016,0.589c-0.16,0.293-1.548-0.04-1.708,0.266
				c-0.159,0.295,0.135,0.829-0.026,1.123c-0.133,0.32,0.936,1.202,0.774,1.496c-0.134,0.32-1.909-0.134-2.042,0.16
				c-0.146,0.32-0.106,0.708-0.24,1.017c-0.146,0.32,0.281,0.867,0.146,1.176c-0.134,0.307,0.747,1.042,0.626,1.35
				c-0.12,0.307-0.573,0.467-0.706,0.787c-0.134,0.321-0.642,0.481-0.762,0.802c-0.12,0.322-0.734,0.455-0.841,0.775
				c-0.12,0.319,0.214,0.773,0.105,1.096c-0.12,0.319,0.481,0.868,0.374,1.188c-0.105,0.32-0.601,0.521-0.693,0.844
				c-0.106,0.307-0.293,0.613-0.373,0.935c-0.106,0.307-0.16,0.641-0.268,0.961c-0.079,0.321-0.479,0.563-0.561,0.896
				c-0.094,0.334-0.349,0.602-0.428,0.936c-0.08,0.333-0.414,0.602-0.48,0.922c-0.08,0.334,0.936,0.908,0.881,1.229
				c-0.08,0.334-1.788,0.319-1.868,0.642c-0.065,0.334,0.026,0.708-0.04,1.042c-0.066,0.32,0.215,0.721,0.16,1.069
				c-0.065,0.334,0.547,0.773,0.494,1.107c-0.054,0.334,0.279,0.707,0.239,1.056c-0.054,0.32-1.908,0.414-1.948,0.748
				c-0.054,0.348,0.534,0.775,0.507,1.096c-0.025,0.335-0.667,0.642-0.693,0.962C1.688,90.3,3.502,90.82,3.489,91.142
				c-0.014,0.347,0.12,0.668,0.095,1.016c-0.027,0.348-0.107,0.642-0.135,0.988C3.423,93.493,1.5,93.761,1.5,94.082
				c-0.014,0.348,1.67,0.723,1.655,1.068c0,0.333,0.214,0.654,0.214,0.988c0,0.348-0.588,0.682-0.588,1.016
				c0.015,0.347-0.294,0.694-0.267,1.017c0,0.347-0.748,0.721-0.734,1.056c0.013,0.333-0.254,0.707-0.241,1.055
				c0.027,0.32,0.735,0.614,0.763,0.963c0.04,0.333,1.401,0.533,1.44,0.854c0.026,0.335-1.976,0.936-1.922,1.271
				c0.04,0.334,1.27,0.493,1.31,0.827c0.065,0.335-0.055,0.695,0.025,1.028c0.054,0.321,0.801,0.521,0.867,0.854
				c0.066,0.32,0.106,0.643,0.173,0.988c0.081,0.321-0.945,0.909-0.865,1.229c0.079,0.335,1.026,0.43,1.106,0.749
				c0.106,0.32,0.854,0.44,0.961,0.763c0.107,0.32-0.507,0.854-0.399,1.176c0.106,0.321-0.095,0.733,0.025,1.056
				c0.107,0.32-0.521,0.936-0.399,1.229c0.134,0.319,1.027,0.334,1.147,0.641c0.133,0.309-0.294,0.883-0.174,1.189
				c0.134,0.308,1.882-0.121,2.042,0.174c0.134,0.308-0.08,0.748,0.08,1.056c0.134,0.308,0.106,0.682,0.268,0.975
				c0.159,0.294-0.054,0.774,0.106,1.069c0.159,0.308,1.094,0.134,1.254,0.428c0.188,0.28-0.253,0.936-0.08,1.201
				c0.188,0.294,0.481,0.482,0.682,0.763c0.175,0.28,0.747,0.28,0.947,0.547c0.188,0.269-0.561,1.203-0.348,1.483
				c0.214,0.28,0.668,0.334,0.868,0.602c0.199,0.268,1.214-0.119,1.428,0.134c0.214,0.268-1.107,1.816-0.895,2.07
				c0.214,0.253,1.027-0.014,1.269,0.241c0.227,0.253,0.561,0.386,0.801,0.626c0.214,0.241-0.294,1.257-0.065,1.498
				c0.239,0.239,0.999-0.04,1.24,0.199c0.24,0.227,0.734,0.2,0.987,0.414c0.24,0.24,0.214,0.774,0.48,0.988
				c0.24,0.214,1.309-0.533,1.574-0.334c0.269,0.215-0.319,1.455-0.054,1.67c0.268,0.215,1.001-0.2,1.281,0
				c0.268,0.215,0.348,0.654,0.614,0.854c0.279,0.188,0.293,0.762,0.588,0.962c0.279,0.188,0.772,0.053,1.054,0.253
				c0.28,0.202,0.881-0.093,1.161,0.094c0.268,0.189,0.374,0.643,0.668,0.829c0.279,0.188,0.64,0.254,0.921,0.43
				c0.28,0.187,0.761,0.04,1.055,0.213c0.293,0.158-0.134,1.563,0.159,1.735c0.294,0.161,1.188-0.693,1.47-0.521
				c0.293,0.173,0.866-0.174,1.174,0c0.294,0.16-0.188,1.736,0.106,1.896c0.308,0.16,0.521,0.494,0.827,0.654
				c0.294,0.16,1.441-1.336,1.762-1.176c0.295,0.134-0.359,2.218-0.053,2.364c0.308,0.147,1.001-0.479,1.31-0.334
				c0.292,0.134,0.934-0.427,1.239-0.279c0.309,0.146,0.24,1.107,0.548,1.242c0.308,0.134,0.987-0.549,1.309-0.414
				c0.294,0.146,0,1.723,0.319,1.855c0.295,0.134,0.854-0.267,1.175-0.146c0.308,0.12,0.922-0.493,1.242-0.373
				c0.319,0.12,0.308,1.096,0.613,1.216c0.319,0.133,0.707,0.105,1.015,0.213c0.319,0.12,0.613,0.322,0.935,0.442
				c0.321,0.119,0.761-0.067,1.081,0.04c0.308,0.119,0.854-0.402,1.161-0.295c0.321,0.094,0.681,0.053,1.015,0.16
				c0.32,0.106,0.654,0.188,0.976,0.294c0.319,0.094,0.187,1.684,0.521,1.79c0.333,0.095,1.107-1.351,1.429-1.257
				c0.319,0.08,0.693-0.054,1.04,0.026c0.32,0.094,0.228,1.725,0.562,1.817c0.32,0.094,0.881-0.669,1.202-0.589
				c0.333,0.081,0.853-0.653,1.187-0.573c0.333,0.079,0.32,1.589,0.654,1.67c0.32,0.054,0.587,0.561,0.906,0.613
				c0.334,0.08,0.762-0.319,1.096-0.239c0.32,0.065,0.681,0.039,1.014,0.105c0.32,0.08,0.548,0.749,0.882,0.816
				c0.334,0.053,0.975-1.577,1.308-1.524c0.348,0.066,0.348,2.071,0.668,2.125c0.334,0.053,0.961-1.657,1.309-1.604
				c0.319,0.054,0.667,0,1.015,0.04c0.319,0.039,0.641,0.199,0.962,0.254c0.347,0.04,0.467,1.67,0.8,1.71
				c0.334,0.054,0.694,0.08,1.042,0.12c0.333,0.04,0.773-0.762,1.094-0.734c0.348,0.04,0.588,1.135,0.908,1.175
				c0.348,0.027,0.787-1.121,1.12-1.095c0.348,0.026,0.722-0.708,1.068-0.694c0.334,0.026,0.628,0.521,0.962,0.534
				c0.346,0.026,0.64,1.055,0.974,1.068c0.347,0.014,0.707-0.334,1.041-0.32c0.333,0.013,0.682-0.748,1.027-0.748
				c0.348,0,0.654-0.414,1.002-0.414c0.334,0,0.68,0.854,1.026,0.841c0.333,0,0.642-0.692,0.976-0.721
				c0.334,0,0.706,0.561,1.026,0.534c0.348-0.013,0.642-0.454,0.987-0.48c0.348-0.025,0.841,1.442,1.188,1.415
				c0.334-0.053,0.468-1.629,0.813-1.669c0.321-0.04,0.574-0.602,0.908-0.654c0.319-0.055,0.692,0.199,1.041,0.134
				c0.334-0.055,0.961,1.441,1.309,1.375c0.319-0.065,0.373-1.604,0.693-1.669c0.334-0.08,0.881,0.854,1.215,0.774
				c0.334-0.055,0.467-1.016,0.787-1.097c0.334-0.08,0.733,0.161,1.067,0.081c0.32-0.054,0.827,0.601,1.16,0.521
				c0.334-0.065,0.694,0.015,1.028-0.065c0.32-0.054,0.588-0.428,0.935-0.508c0.32-0.067,0.613-0.348,0.936-0.414
				c0.333-0.066,0.453-1.282,0.774-1.351c0.346-0.065,0.88,0.989,1.228,0.923c0.32-0.054,0.507-1.082,0.841-1.137
				c0.334-0.053,0.92,1.564,1.269,1.523c0.347-0.054,0.428-2.03,0.761-2.058"/>
		</g>
	</g>
</g>
<g>
</g>
<g>
</g>
<g>
</g>
<g>
</g>
<g>
</g>
<g>
</g>
<g>
</g>
<g>
</g>
<g>
</g>
<g>
</g>
<g>
</g>
<g>
</g>
<g>
</g>
<g>
</g>
<g>
</g>
</svg>
