<?xml version="1.0" encoding="utf-8"?>
<!-- Generator: Adobe Illustrator 16.0.0, SVG Export Plug-In . SVG Version: 6.00 Build 0)  -->
<!DOCTYPE svg PUBLIC "-//W3C//DTD SVG 1.1//EN" "http://www.w3.org/Graphics/SVG/1.1/DTD/svg11.dtd">
<svg version="1.1" id="圖層_1" xmlns="http://www.w3.org/2000/svg" xmlns:xlink="http://www.w3.org/1999/xlink" x="0px" y="0px"
	 width="55px" height="55px" viewBox="0 0 55 55" enable-background="new 0 0 55 55" xml:space="preserve">
<g>
	<path fill="#776255" d="M2.544,32.799c0.856-0.136,1.369,0.09,1.683,0.815c0.632,1.464,1.397,2.87,1.936,4.367
		c0.647,1.798,1.792,2.655,3.71,2.693c4.038,0.083,8.07,0.319,12.102,0.376c2.975,0.042,5.951-0.083,8.923-0.173
		c2.095-0.057,3.588-0.967,4.171-3.1c0.237-0.872,1.064-0.985,1.742-1c1.971-0.034,3.945,0.112,5.912,0.102
		c2.791-0.02,5.578-0.117,8.365-0.192c0.406-0.015,0.813-0.105,1.212-0.082c0.256,0.011,0.639,0.098,0.707,0.255
		c0.082,0.203-0.022,0.625-0.188,0.757c-2.062,1.542-2.779,3.976-4.063,6.033c-0.413,0.662-0.677,1.418-1.008,2.133
		c-1.064,2.294-2.399,4.419-4.288,6.115c-0.579,0.52-1.467,0.865-2.257,0.967c-1.579,0.207-3.186,0.215-4.784,0.26
		c-2.22,0.061-4.438,0.083-6.657,0.105c-2.822,0.03-5.635,0.12-8.449,0.037c-3.972-0.116-7.944-0.327-11.914-0.571
		c-2.087-0.124-3.598-1.241-3.876-3.212c-0.412-2.912-0.499-5.868-0.739-8.802c-0.034-0.422-0.094-0.857-0.218-1.264
		c-0.574-1.844-1.174-3.683-1.759-5.526C2.706,33.547,2.642,33.189,2.544,32.799z"/>
	<path fill="#DBC5B6" d="M35.085,16.635c-0.102,0.26-0.124,0.388-0.196,0.481c-0.41,0.583-1.061,1.099-1.222,1.738
		c-0.847,3.419-2.1,6.782-1.866,10.378c0.098,1.497,0.406,2.972,0.644,4.457c0.173,1.08,0.195,1.009-0.91,1.001
		c-1.403-0.012-2.807,0.116-4.209,0.136c-1.723,0.026-3.457,0.094-5.176-0.012c-3.581-0.218-7.167-0.004-10.754-0.15
		c-0.811-0.037-1.121-0.376-1.164-1.125c-0.188-3.344,0.387-6.567,1.576-9.67c0.719-1.874,1.582-3.687,2.457-5.492
		c0.306-0.636,0.816-1.181,1.279-1.727c0.446-0.519,0.972-0.779,1.642-0.297c0.166,0.121,0.534,0.158,0.685,0.053
		c0.835-0.594,1.734-0.319,2.629-0.293c0.876,0.03,1.753-0.135,2.629-0.105c1.467,0.045,2.931,0.177,4.394,0.282
		c0.24,0.019,0.478,0.146,0.722,0.146c1.208,0.007,2.415-0.045,3.626-0.015C32.907,16.443,33.93,16.553,35.085,16.635z"/>
	<path fill="#3A5489" d="M25.631,6.408c0.079-1.223,0.154-2.712,0.294-4.198c0.015-0.226,0.301-0.598,0.481-0.609
		c1.117-0.079,2.272-0.504,3.348,0.203c1.144,0.752,2.362,1.038,3.765,0.892c1.32-0.139,1.592,0.229,1.531,1.583
		c-0.034,0.813-0.057,1.632-0.211,2.43c-0.098,0.512-0.338,1.324-0.662,1.399c-0.699,0.162-1.497-0.022-2.241-0.135
		c-0.459-0.072-0.896-0.286-1.354-0.406c-0.263-0.075-0.541-0.09-0.813-0.158C28.491,7.1,27.211,6.788,25.631,6.408z"/>
	<path fill="#FFFFFF" d="M35.435,35.003c6.056,0,11.908,0,17.769,0c0.049,0.086,0.098,0.177,0.15,0.263
		c-0.271,0.174-0.526,0.463-0.813,0.497c-1.617,0.165-3.238,0.315-4.863,0.376c-1.629,0.061-3.261,0.022-4.894,0.008
		c-0.437-0.008-0.861-0.113-1.298-0.15c-0.474-0.038-0.951-0.068-1.426-0.068c-1.347-0.011-2.696,0.042-4.043-0.019
		C35.239,35.868,35.148,35.566,35.435,35.003z"/>
	<path fill="#FFFFFF" d="M17.104,14.751c5.977-0.045,11.958-0.173,17.924,0.414c0.022,0.117,0.053,0.237,0.079,0.354
		c-0.35,0.098-0.704,0.297-1.058,0.278c-1.835-0.098-3.671-0.286-5.514-0.369c-2.306-0.105-4.62-0.158-6.929-0.188
		c-1.282-0.015-2.565,0.075-3.848,0.075c-0.256,0-0.516-0.195-0.771-0.305C17.029,14.92,17.071,14.833,17.104,14.751z"/>
	<path fill="#FFFFFF" d="M26.23,13.886c-1.471,0.263-1.509,0.241-1.493-1.008c0.007-0.94,0.063-1.881,0.033-2.821
		c-0.026-0.647,0.343-0.805,0.861-0.85c0.617-0.06,0.613,0.331,0.609,0.786C26.211,11.294,26.23,12.607,26.23,13.886z"/>
	<path fill="#FFFFFF" d="M24.556,37.951c0-0.557-0.03-1.128,0.015-1.685c0.022-0.207,0.188-0.447,0.361-0.579
		c0.098-0.071,0.467-0.008,0.496,0.075c0.075,0.203,0.016,0.451,0.023,0.677c0.015,0.857,0.029,1.719,0.067,2.576
		c0.008,0.181,0.15,0.38,0.109,0.538c-0.064,0.252-0.223,0.481-0.343,0.719c-0.244-0.215-0.646-0.396-0.699-0.644
		C24.481,39.091,24.556,38.516,24.556,37.951z"/>
	<g>
		<path d="M23.653,35.657c-0.098-0.012-0.053-0.229-0.147-0.248c-0.098-0.022-0.237,0.181-0.327,0.173
			c-0.105-0.016-0.166-0.045-0.241-0.008c-0.098,0.045-0.21,0.057-0.308,0.091c-0.105,0.033-0.181,0.21-0.286,0.229
			c-0.105,0.019-0.233-0.042-0.338-0.034s-0.222-0.049-0.327-0.053c-0.105-0.004-0.214-0.012-0.32-0.03
			c-0.105-0.015-0.188-0.15-0.293-0.173c-0.102-0.022-0.184-0.12-0.286-0.146s-0.26,0.15-0.361,0.124
			c-0.09-0.03-0.195-0.195-0.274-0.173c-0.098,0.033-0.211-0.034-0.313-0.008c-0.098,0.022-0.158,0.222-0.259,0.237
			c-0.102,0.019-0.207-0.008-0.313,0c-0.098,0.007-0.203,0.157-0.304,0.157c-0.102,0-0.207-0.108-0.313-0.116
			c-0.098,0-0.21,0.128-0.316,0.12c-0.102-0.007-0.166-0.36-0.271-0.372c-0.102-0.012-0.207,0.037-0.308,0.026
			c-0.105-0.012-0.226,0.169-0.331,0.154c-0.102-0.012-0.199-0.057-0.301-0.067c-0.102-0.012-0.181-0.2-0.282-0.211
			c-0.102-0.012-0.229,0.236-0.331,0.226c-0.102-0.008-0.188-0.271-0.29-0.274s-0.211,0.015-0.309,0.022
			c-0.105,0-0.203,0.158-0.303,0.165c-0.1,0.008-0.201-0.075-0.299-0.067c-0.098,0-0.2-0.105-0.297-0.105
			c-0.1,0.008-0.19,0.271-0.288,0.271c-0.098,0.008-0.2-0.112-0.297-0.108c-0.098,0-0.197,0.067-0.295,0.067
			c-0.098,0-0.195,0.041-0.293,0.041c-0.098,0-0.198-0.281-0.295-0.281s-0.196,0.24-0.293,0.24s-0.196-0.034-0.295-0.034
			c-0.098,0-0.195,0.03-0.293,0.026c-0.098,0-0.195-0.094-0.293-0.094c-0.1,0-0.198-0.022-0.295-0.022s-0.196-0.063-0.293-0.063
			c-0.1,0-0.197,0-0.295,0c-0.098,0-0.195,0.188-0.293,0.188c-0.098,0-0.197-0.109-0.295-0.109c-0.109,0-0.199-0.12-0.293-0.131
			c-0.111-0.012-0.245,0.191-0.338,0.169c-0.105-0.022-0.125-0.278-0.211-0.316c-0.098-0.045-0.295,0.105-0.372,0.046
			c-0.083-0.061-0.079-0.215-0.138-0.298c-0.06-0.082-0.067-0.177-0.107-0.274c-0.03-0.09-0.228-0.154-0.243-0.26
			c-0.015-0.094-0.09-0.214-0.09-0.319c0-0.098,0.022-0.215,0.036-0.319c0.008-0.099,0.267-0.17,0.286-0.275
			c0.015-0.102-0.209-0.232-0.192-0.338c0.011-0.102,0.015-0.199,0.022-0.301c0.008-0.102,0.185-0.188,0.194-0.29
			c0.007-0.102-0.134-0.214-0.13-0.313c0.004-0.104,0.034-0.206,0.04-0.308c0.004-0.102-0.04-0.207-0.036-0.309
			c0.004-0.105,0.109-0.203,0.113-0.305s0.122-0.196,0.13-0.298c0.007-0.102,0.043-0.199,0.054-0.301
			c0.013-0.105,0.09-0.195,0.107-0.293c0.015-0.098-0.079-0.215-0.057-0.316c0.021-0.098,0.043-0.191,0.064-0.289
			c0.019-0.099,0.086-0.185,0.105-0.282c0.021-0.098-0.019-0.211,0.004-0.301c0.021-0.099-0.145-0.237-0.126-0.331
			c0.021-0.099,0.103-0.181,0.126-0.278c0.021-0.099-0.008-0.203,0.011-0.302c0.021-0.098,0.357-0.124,0.382-0.222
			c0.022-0.098-0.205-0.252-0.185-0.346c0.022-0.098,0.318-0.128,0.34-0.226c0.024-0.102,0.028-0.199,0.051-0.297
			c0.024-0.098-0.16-0.241-0.137-0.334c0.024-0.094,0.263-0.139,0.288-0.237c0.022-0.098-0.19-0.248-0.166-0.346
			c0.024-0.09,0.148-0.166,0.173-0.263c0.022-0.098,0.102-0.181,0.126-0.271c0.022-0.098-0.201-0.256-0.177-0.35
			c0.022-0.102,0.034-0.2,0.058-0.297c0.023-0.09,0.361-0.113,0.384-0.207c0.024-0.094,0.068-0.188,0.09-0.282
			c0.024-0.094-0.228-0.264-0.199-0.361c0.024-0.094,0.162-0.158,0.188-0.256c0.024-0.098,0.086-0.181,0.115-0.278
			c0.026-0.098,0.145-0.166,0.171-0.263c0.028-0.098-0.043-0.218-0.019-0.312c0.028-0.094-0.015-0.207,0.015-0.305
			c0.028-0.098,0.162-0.158,0.188-0.252c0.028-0.094,0.162-0.158,0.193-0.252c0.03-0.094,0.063-0.184,0.094-0.278
			c0.03-0.094,0.011-0.203,0.043-0.297c0.03-0.094,0.105-0.169,0.141-0.263c0.03-0.094-0.228-0.29-0.198-0.384
			c0.032-0.094,0.169-0.15,0.205-0.241c0.036-0.094,0.022-0.203,0.058-0.293c0.036-0.09,0.09-0.177,0.126-0.271
			c0.036-0.09,0.243-0.117,0.278-0.207c0.04-0.09-0.043-0.233-0.003-0.324s-0.075-0.248-0.036-0.338
			c0.039-0.09,0.118-0.173,0.162-0.271c0.04-0.09,0.257-0.109,0.301-0.207c0.043-0.094-0.055-0.252-0.011-0.342
			c0.043-0.098,0.216-0.131,0.259-0.226c0.043-0.094,0.207-0.128,0.254-0.218c0.047-0.098-0.156-0.312-0.105-0.406
			c0.047-0.09,0.141-0.158,0.192-0.249s0.047-0.218,0.098-0.305c0.053-0.09,0.241-0.098,0.295-0.184
			c0.054-0.087,0.133-0.158,0.191-0.241c0.059-0.09,0.123-0.166,0.185-0.249c0.064-0.079,0.068-0.203,0.133-0.286
			c0.072-0.083,0.032-0.241,0.094-0.327c0.064-0.09,0.152-0.154,0.212-0.245c0.059-0.09,0.156-0.158,0.216-0.249
			c0.059-0.09,0.059-0.226,0.121-0.312c0.064-0.09,0.137-0.184,0.205-0.263c0.07-0.086,0.117-0.218,0.196-0.29
			c0.079-0.072,0.314,0.053,0.404-0.004s0.203-0.034,0.301-0.079c0.102-0.045,0.09-0.369,0.192-0.406
			c0.105-0.03,0.278,0.188,0.384,0.158c0.098-0.026,0.181-0.135,0.286-0.158c0.109-0.022,0.207-0.079,0.313-0.098
			c0.105-0.022,0.229,0.045,0.327,0.026c0.109-0.019,0.199-0.124,0.301-0.146c0.094-0.019,0.203-0.026,0.309-0.023
			c0.098,0,0.173,0.196,0.271,0.211c0.098,0.007,0.218-0.15,0.316-0.132c0.098,0.015,0.173,0.181,0.271,0.192
			c0.098,0.011,0.207-0.169,0.305-0.173c0.109,0,0.214,0.218,0.32,0.218s0.207-0.173,0.312-0.173c0.105,0,0.215,0.083,0.32,0.083
			c0.105,0,0.207-0.18,0.313-0.18c0.105-0.008,0.207-0.03,0.312-0.03c0.105-0.004,0.21,0.053,0.32,0.049
			c0.105-0.003,0.21,0.072,0.32,0.072c0.105-0.008,0.203-0.181,0.308-0.181c0.105-0.008,0.214,0.263,0.324,0.263
			c0.105,0,0.203-0.181,0.308-0.188c0.102,0,0.211,0.053,0.316,0.053c0.105,0,0.211,0.022,0.316,0.019
			c0.109,0,0.165-0.131,0.248-0.154c0.105-0.022,0.139-0.034,0.21-0.083c0.075-0.057,0.339,0.042,0.38-0.045
			c0.034-0.079,0.008-0.215,0.015-0.324c0.008-0.083-0.139-0.181-0.146-0.278c-0.008-0.098,0.21-0.214,0.203-0.312
			c-0.008-0.098-0.196-0.181-0.203-0.278c-0.008-0.098-0.034-0.192-0.042-0.29c-0.007-0.098-0.109-0.188-0.117-0.286
			c-0.007-0.098,0.042-0.203,0.034-0.293c-0.008-0.098-0.019-0.195-0.026-0.293c-0.008-0.098,0.158-0.203,0.15-0.301
			c0-0.098-0.263-0.181-0.271-0.278c0-0.098,0.271-0.21,0.263-0.301c0-0.098-0.255-0.188-0.255-0.286
			c0-0.098-0.008-0.195-0.008-0.297c0-0.098,0.35-0.196,0.35-0.293c0-0.102-0.184-0.256-0.094-0.357
			c0.071-0.083,0.128-0.203,0.218-0.286c0.083-0.083,0.338-0.015,0.402-0.105c0.05-0.071-0.025-0.245,0.034-0.316
			c0.053-0.075,0.278-0.03,0.327-0.105c0.057-0.075-0.139-0.297-0.102-0.376c0.038-0.09,0.233-0.113,0.233-0.203
			c0-0.105-0.173-0.192-0.173-0.293c-0.008-0.105,0.15-0.214,0.143-0.312c-0.007-0.098-0.128-0.188-0.135-0.29
			c-0.008-0.098,0.019-0.203,0.007-0.301c-0.015-0.098-0.03-0.203-0.041-0.301c-0.012-0.098-0.079-0.188-0.091-0.29
			c-0.011-0.098,0.144-0.218,0.132-0.32c-0.015-0.098-0.056-0.196-0.067-0.293s-0.128-0.188-0.136-0.293
			c-0.015-0.105,0.105-0.203,0.132-0.312c0.019-0.102-0.075-0.229-0.057-0.338c0.022-0.098,0.158-0.173,0.177-0.271
			c0.026-0.098,0.144-0.169,0.166-0.267c0.026-0.098,0-0.207,0.019-0.305c0.022-0.098,0.071-0.196,0.087-0.297
			c0.011-0.098-0.219-0.218-0.215-0.316c0.004-0.109,0.309-0.203,0.316-0.301c0-0.113-0.012-0.21-0.008-0.309
			c0.008-0.113-0.233-0.229-0.218-0.327c0.011-0.109,0.232-0.184,0.248-0.282c0.015-0.113-0.237-0.271-0.215-0.365
			c0.034-0.109,0.271-0.131,0.313-0.214c0.053-0.098,0-0.263,0.075-0.331c0.071-0.067,0.173-0.146,0.271-0.188
			c0.083-0.038,0.229,0.075,0.339,0.053c0.094-0.019,0.173-0.173,0.286-0.188c0.098-0.008,0.21,0.113,0.319,0.105
			c0.098,0,0.195,0.026,0.305,0.026c0.098,0,0.203,0.098,0.309,0.102c0.098,0.004,0.203-0.06,0.313-0.056
			c0.104,0.004,0.203,0.045,0.312,0.053c0.106,0.007,0.238-0.297,0.343-0.282c0.105,0.011,0.181,0.241,0.285,0.263
			c0.109,0.015,0.215,0,0.313,0.019c0.105,0.022,0.256-0.124,0.354-0.094c0.105,0.026,0.144,0.267,0.245,0.301
			C29.56,1.014,29.672,1,29.77,1.041c0.098,0.038,0.166,0.139,0.256,0.185c0.091,0.045,0.166,0.128,0.252,0.173
			c0.091,0.042,0.245-0.053,0.335-0.015c0.094,0.042,0.15,0.166,0.241,0.203c0.098,0.034,0.236-0.075,0.33-0.049
			c0.095,0.034,0.188,0.049,0.286,0.075s0.188,0.057,0.286,0.075c0.098,0.023,0.162,0.196,0.264,0.214
			c0.098,0.023,0.218-0.12,0.319-0.109c0.098,0.015,0.169,0.229,0.274,0.237c0.102,0.015,0.199,0.049,0.301,0.053
			c0.098,0.004,0.211-0.166,0.309-0.166s0.195,0.075,0.293,0.072c0.102,0,0.203,0.026,0.305,0.019c0.099,0,0.207,0.079,0.313,0.068
			c0.098-0.008,0.195-0.045,0.294-0.06c0.102-0.008,0.165-0.264,0.263-0.279c0.098-0.019,0.219,0.09,0.316,0.068
			c0.112-0.019,0.226,0.086,0.315,0.083c0.121-0.008,0.248-0.271,0.331-0.249c0.105,0.034,0.105,0.233,0.15,0.335
			c0.034,0.079-0.045,0.162-0.037,0.286c0,0.09,0.082,0.181,0.067,0.297c-0.011,0.105-0.15,0.188-0.158,0.293
			c-0.015,0.102-0.029,0.199-0.037,0.301c-0.012,0.102,0.301,0.233,0.293,0.331c-0.007,0.105-0.135,0.195-0.143,0.293
			c-0.008,0.102-0.113,0.192-0.12,0.293c-0.016,0.102,0.015,0.203,0.007,0.308c-0.007,0.098,0.188,0.218,0.181,0.316
			c-0.011,0.102-0.181,0.188-0.188,0.29c-0.012,0.102,0.128,0.215,0.12,0.313C35.78,5.4,35.457,5.476,35.449,5.573
			c-0.007,0.098,0.181,0.218,0.173,0.32c-0.007,0.102,0.046,0.207,0.034,0.305c-0.008,0.105-0.271,0.188-0.278,0.286
			c-0.008,0.105,0.079,0.21,0.075,0.312c-0.008,0.102,0.109,0.211,0.105,0.313c-0.004,0.098-0.041,0.195-0.049,0.301
			c-0.008,0.102,0.034,0.203,0.026,0.305c-0.008,0.105-0.034,0.214-0.057,0.305c-0.022,0.098-0.03,0.218-0.075,0.301
			c-0.049,0.09-0.09,0.222-0.165,0.29c-0.068,0.064-0.264-0.049-0.361-0.003c-0.083,0.034-0.158,0.067-0.264,0.09
			c-0.105,0.019-0.158,0.248-0.263,0.274c-0.105,0.022-0.227-0.068-0.331-0.045c-0.102,0.026-0.174,0.192-0.278,0.207
			c-0.102,0.022-0.233-0.117-0.339-0.105c-0.105,0.015-0.207-0.09-0.309-0.09c-0.105,0-0.191-0.012-0.293-0.03
			c-0.105-0.019-0.203-0.075-0.301-0.094c-0.105-0.019-0.256,0.249-0.361,0.229c-0.098-0.015-0.188-0.143-0.286-0.158
			c-0.105-0.015-0.195-0.094-0.301-0.113c-0.102-0.015-0.226,0.09-0.331,0.075c-0.098-0.023-0.188-0.117-0.293-0.139
			C30.827,8.688,30.74,8.59,30.643,8.56c-0.102-0.022-0.211-0.011-0.309-0.038c-0.098-0.03-0.181-0.113-0.286-0.146
			c-0.098-0.034-0.278,0.143-0.376,0.102c-0.09-0.038-0.128-0.229-0.222-0.278c-0.094-0.042-0.229-0.019-0.32-0.068
			c-0.09-0.053-0.049-0.312-0.139-0.369c-0.083-0.056-0.207-0.075-0.301-0.117c-0.091-0.038-0.192-0.094-0.29-0.12
			s-0.21-0.011-0.312-0.026c-0.099-0.022-0.223,0.166-0.329,0.15c-0.098-0.011-0.188-0.049-0.285-0.06
			c-0.098-0.008-0.196-0.015-0.301-0.015c-0.102-0.007-0.196-0.117-0.294-0.121c-0.102-0.003-0.211,0.147-0.309,0.136
			c-0.098-0.008-0.139-0.03-0.236,0.045c-0.083,0.061-0.29-0.015-0.373,0.064c-0.082,0.072-0.278,0.214-0.36,0.275
			c0.067,0.052,0.391,0.038,0.466,0.094c0.075,0.049,0.136,0.132,0.199,0.188c0.072,0.057,0.154,0.121,0.207,0.192
			c0.057,0.072,0.083,0.173,0.14,0.249c0.056,0.075,0.177,0.109,0.229,0.184c0.053,0.079-0.049,0.245-0.016,0.327
			c0.042,0.09,0.245,0.147,0.248,0.233c0.004,0.102-0.232,0.214-0.226,0.316c0,0.105,0.249,0.195,0.256,0.301
			c0,0.102-0.12,0.207-0.116,0.309s-0.083,0.203-0.079,0.309c0.008,0.098-0.09,0.203-0.09,0.304s0.278,0.203,0.278,0.305
			s-0.05,0.203-0.05,0.309c0,0.098,0.026,0.203,0.023,0.305c-0.004,0.102,0.098,0.203,0.098,0.305c0,0.105-0.35,0.203-0.354,0.301
			c0,0.105,0,0.207-0.004,0.309s0.226,0.207,0.226,0.309c-0.008,0.128-0.132,0.255-0.113,0.354c0.023,0.128,0.256,0.113,0.327,0.184
			c0.072,0.072,0.091,0.094,0.223,0.124c0.098,0.026,0.173,0.151,0.309,0.154c0.102,0.004,0.206-0.124,0.305-0.12
			c0.102,0.003,0.199,0.173,0.297,0.177s0.203-0.166,0.309-0.162c0.102,0.003,0.195,0.116,0.297,0.116
			c0.102,0.008,0.207-0.015,0.305-0.011c0.098,0.004,0.188,0.263,0.286,0.267c0.105,0.004,0.214-0.184,0.312-0.181
			c0.102,0.004,0.207-0.143,0.313-0.131c0.098,0.007,0.195,0.071,0.293,0.079c0.105,0,0.196,0.188,0.294,0.188
			c0.098,0.007,0.203-0.015,0.301-0.015c0.098,0.007,0.195,0.113,0.293,0.12c0.105,0.008,0.211-0.083,0.309-0.079
			c0.102,0.007,0.196,0.049,0.298,0.056c0.102,0.008,0.199,0.019,0.305,0.022c0.098,0.008,0.195,0.094,0.293,0.102
			c0.098,0.008,0.215-0.214,0.316-0.207c0.102,0.007,0.202-0.03,0.301-0.022c0.104,0.007,0.188,0.162,0.293,0.169
			c0.098,0.011,0.203-0.015,0.301-0.007c0.102,0.007,0.207-0.086,0.309-0.079c0.105,0.007,0.195,0.135,0.293,0.143
			c0.099,0.007,0.188,0.094,0.294,0.102c0.098,0.007,0.222-0.264,0.319-0.256c0.098,0.011,0.223,0.139,0.339,0.181
			c0.098,0.041,0.162,0.18,0.26,0.241c0.098,0.064,0.226,0.09,0.301,0.162c0.09,0.09,0.293,0.166,0.323,0.256
			c0.026,0.098-0.12,0.256-0.098,0.361c0.026,0.105,0.188,0.196,0.203,0.301c0.019,0.105-0.181,0.233-0.177,0.346
			c0.004,0.105,0.019,0.211,0.011,0.316c-0.007,0.109,0.091,0.233,0.068,0.339c-0.022,0.105-0.14,0.188-0.181,0.282
			c-0.041,0.087-0.016,0.211-0.061,0.297s-0.067,0.188-0.112,0.274c-0.049,0.083-0.128,0.154-0.181,0.237
			c-0.053,0.083-0.162,0.127-0.219,0.21c-0.052,0.083-0.199,0.098-0.255,0.181c-0.053,0.083-0.016,0.218-0.072,0.301
			c-0.056,0.083-0.252,0.068-0.305,0.15c-0.056,0.083-0.09,0.181-0.143,0.263c-0.053,0.083,0.061,0.271,0.012,0.354
			c-0.05,0.083-0.105,0.158-0.154,0.245c-0.046,0.086-0.03,0.199-0.075,0.29c-0.042,0.09-0.144,0.143-0.181,0.233
			c-0.034,0.09-0.132,0.162-0.158,0.256c-0.03,0.094,0.113,0.241,0.083,0.338c-0.022,0.098-0.147,0.166-0.173,0.263
			c-0.03,0.098-0.233,0.143-0.26,0.241c-0.026,0.098,0,0.211-0.026,0.309c-0.022,0.098,0.173,0.245,0.15,0.342
			s-0.022,0.199-0.045,0.297c-0.022,0.098-0.016,0.203-0.038,0.301c-0.019,0.098-0.199,0.158-0.218,0.256
			c-0.02,0.098-0.158,0.173-0.177,0.271c-0.02,0.098,0.195,0.245,0.177,0.342c-0.02,0.102-0.075,0.192-0.095,0.29
			c-0.019,0.098,0.034,0.211,0.012,0.309c-0.019,0.098-0.207,0.166-0.226,0.263c-0.022,0.098-0.071,0.192-0.091,0.29
			c-0.022,0.098-0.056,0.192-0.075,0.29c-0.022,0.098-0.157,0.173-0.177,0.271c-0.019,0.098,0.026,0.211,0.008,0.309
			s-0.116,0.181-0.132,0.278c-0.022,0.098,0.022,0.207,0,0.305c-0.015,0.098-0.063,0.188-0.082,0.286
			c-0.023,0.098,0.128,0.229,0.108,0.328c-0.026,0.098-0.173,0.165-0.199,0.263c-0.022,0.098,0.15,0.241,0.128,0.338
			s-0.169,0.173-0.188,0.271c-0.022,0.102-0.202,0.177-0.218,0.278c-0.015,0.102,0.218,0.241,0.207,0.338
			c-0.012,0.102,0.112,0.21,0.105,0.316c-0.008,0.098-0.196,0.188-0.199,0.294c-0.008,0.098-0.068,0.203-0.068,0.305
			s0.136,0.199,0.144,0.301c0,0.102,0.037,0.199,0.045,0.305c0.008,0.098-0.248,0.222-0.241,0.323
			c0.008,0.102,0.046,0.203,0.057,0.309c0.012,0.098,0.185,0.181,0.195,0.286c0.012,0.098-0.015,0.207,0,0.309
			c0.02,0.102,0.087,0.191,0.102,0.293c0.016,0.105,0.091,0.188,0.105,0.294c0.022,0.098,0.117,0.18,0.136,0.285
			c0.019,0.098-0.173,0.237-0.15,0.339c0.015,0.105-0.113,0.233-0.091,0.331c0.016,0.098,0.377,0.136,0.392,0.233
			c0.022,0.098-0.278,0.263-0.256,0.36c0.019,0.099,0.248,0.158,0.271,0.26c0.02,0.102-0.098,0.229-0.078,0.327
			c0.019,0.102-0.034,0.211-0.012,0.309c0.015,0.105,0.105,0.188,0.12,0.286c0.016,0.105,0.196,0.181,0.211,0.278
			c0.015,0.105,0.075,0.203,0.083,0.301c0.015,0.113,0.075,0.222,0.075,0.313c0,0.116-0.365,0.161-0.392,0.244
			c-0.03,0.105,0.143,0.323,0.067,0.38c-0.071,0.049-0.218,0.026-0.33,0.057c-0.087,0.019-0.185,0.09-0.302,0.098
			c-0.09,0.008-0.195,0.034-0.301,0.038c-0.098,0.003-0.199-0.012-0.309-0.012c-0.102,0-0.199-0.026-0.301-0.026
			c-0.105,0-0.203-0.181-0.301-0.181c-0.105,0-0.203,0.045-0.305,0.045s-0.203,0.128-0.301,0.128c-0.102,0-0.199-0.041-0.305-0.041
			c-0.098,0-0.203,0.139-0.301,0.139s-0.199-0.041-0.301-0.041c-0.105,0-0.203-0.102-0.301-0.102c-0.105,0-0.203,0.053-0.305,0.053
			s-0.199,0.053-0.301,0.053s-0.2-0.218-0.305-0.218c-0.099,0-0.196,0.037-0.302,0.037c-0.102,0-0.199-0.008-0.301-0.004
			c-0.102,0-0.2,0.199-0.301,0.199c-0.12,0-0.236-0.338-0.335-0.331c-0.124,0.008-0.229,0.15-0.319,0.166
			c-0.124,0.019-0.136,0.271-0.218,0.309c-0.102,0.053-0.121,0.045-0.181,0.135c-0.053,0.075-0.38,0.053-0.406,0.174
			c-0.022,0.09,0.181,0.24,0.165,0.356c-0.008,0.102-0.226,0.192-0.233,0.313c-0.003,0.098,0.226,0.207,0.219,0.309
			c0,0.102,0.049,0.199,0.049,0.301c0,0.105-0.094,0.203-0.094,0.301s-0.166,0.199-0.166,0.301s-0.03,0.203-0.03,0.309
			c0.008,0.098,0.282,0.188,0.29,0.286c0.004,0.105-0.271,0.222-0.264,0.319c0.008,0.102,0.132,0.192,0.14,0.294
			c0.007,0.102,0.15,0.184,0.165,0.289c0.008,0.072,0.113,0.068,0.17,0.154c0.049,0.071-0.012,0.222,0.056,0.282
			c0.068,0.064,0.026,0.301,0.102,0.346c0.087,0.053,0.271-0.029,0.343-0.029c0.105,0.007,0.211-0.154,0.313-0.15
			c0.101,0.003,0.195,0.086,0.297,0.09c0.105,0.004,0.204,0.113,0.301,0.12c0.098,0,0.203-0.173,0.305-0.173
			s0.203,0.286,0.305,0.286c0.098,0,0.195-0.286,0.293-0.286c0.105-0.008,0.215,0.271,0.313,0.264
			c0.102-0.004,0.203-0.022,0.305-0.03c0.098-0.008,0.195-0.061,0.301-0.071c0.098-0.008,0.203,0.011,0.305,0
			c0.102-0.012,0.185-0.162,0.286-0.17c0.098-0.015,0.185-0.135,0.282-0.15c0.098-0.015,0.218,0.091,0.315,0.075
			c0.098-0.015,0.188-0.082,0.29-0.098c0.098-0.022,0.222,0.068,0.319,0.045c0.098-0.022,0.146-0.248,0.245-0.271
			c0.098-0.022,0.222,0.045,0.319,0.019s0.229,0.064,0.327,0.034c0.094-0.034,0.207-0.03,0.305-0.063
			c0.098-0.034,0.173-0.147,0.248-0.192c0.087-0.057,0.196-0.105,0.26-0.173s0.195-0.12,0.252-0.203
			c0.053-0.079,0.008-0.229,0.053-0.319c0.045-0.083-0.012-0.215,0.03-0.305c0.037-0.087,0.214-0.113,0.256-0.203
			c0.041-0.091-0.121-0.264-0.083-0.354c0.034-0.091,0.323-0.091,0.354-0.188c0.034-0.09,0.045-0.195,0.071-0.293
			c0.026-0.091-0.207-0.264-0.185-0.354c0.023-0.098,0.105-0.173,0.128-0.271c0.02-0.098,0.227-0.158,0.249-0.256
			c0.015-0.098,0.007-0.203,0.022-0.301c0.015-0.098-0.113-0.214-0.098-0.313c0.007-0.098,0.236-0.173,0.244-0.271
			c0.012-0.098-0.162-0.214-0.154-0.313c0.008-0.098,0.09-0.188,0.098-0.285s-0.124-0.211-0.112-0.309
			c0.007-0.098,0.09-0.188,0.098-0.286c0.007-0.098-0.057-0.203-0.049-0.301c0.007-0.113,0.026-0.226,0.063-0.301
			c0.042-0.091,0.12-0.229,0.203-0.271c0.075-0.038,0.219-0.075,0.323-0.075c0.083,0.007,0.14,0.278,0.241,0.305
			c0.09,0.022,0.181,0.071,0.274,0.09c0.091,0.019,0.188,0.03,0.282,0.049c0.09,0.015,0.191,0.008,0.286,0.022
			c0.098,0.016,0.203-0.128,0.301-0.12c0.09,0.008,0.188-0.008,0.278,0c0.09,0,0.181-0.128,0.278-0.128s0.199,0.195,0.301,0.195
			s0.199,0.136,0.301,0.136c0.105,0,0.203-0.294,0.309-0.294c0.098,0,0.203-0.033,0.301-0.033c0.102,0,0.199,0.263,0.301,0.263
			c0.105,0,0.203,0.072,0.301,0.072c0.105,0,0.207,0.037,0.305,0.037c0.102,0,0.203-0.061,0.301-0.061
			c0.102,0,0.207-0.041,0.305-0.041c0.099,0,0.203-0.041,0.302-0.041c0.102,0,0.203-0.091,0.301-0.091
			c0.102,0,0.203-0.124,0.301-0.124s0.203,0.087,0.301,0.087c0.102,0,0.207,0.083,0.305,0.083c0.102,0,0.199,0.184,0.305,0.184
			c0.098,0,0.203-0.033,0.301-0.033s0.203,0.06,0.301,0.06c0.102,0,0.203-0.384,0.301-0.384c0.105,0,0.203,0.331,0.301,0.331
			c0.105,0,0.207-0.128,0.305-0.128c0.102,0,0.203,0.144,0.302,0.144c0.102,0,0.206-0.245,0.305-0.245
			c0.098,0,0.203-0.079,0.301-0.079c0.102,0,0.199,0.237,0.301,0.237s0.203,0.034,0.301,0.034s0.203-0.14,0.301-0.136
			c0.105,0,0.207,0.061,0.305,0.061c0.102,0,0.199,0.105,0.305,0.105c0.098,0,0.203-0.105,0.301-0.105
			c0.102,0,0.203-0.211,0.305-0.211s0.207,0.038,0.305,0.038s0.203,0.056,0.301,0.056c0.102,0,0.199,0.177,0.301,0.177
			s0.2,0.098,0.302,0.098c0.104,0,0.203-0.18,0.308-0.18c0.102,0,0.2,0.188,0.302,0.188s0.203-0.346,0.301-0.346
			s0.195,0.327,0.301,0.331c0.098,0,0.195-0.15,0.301-0.15c0.102,0,0.199-0.016,0.301-0.008c0.105,0,0.203-0.165,0.301-0.158
			c0.105,0,0.195,0.271,0.294,0.271c0.104,0,0.206-0.271,0.308-0.264c0.102,0.004,0.196,0.264,0.294,0.264
			c0.098,0.007,0.203-0.203,0.309-0.196c0.098,0,0.188,0.248,0.293,0.252c0.102,0.004,0.207-0.214,0.305-0.21
			c0.102,0.004,0.207-0.068,0.305-0.064c0.098,0.008,0.188,0.248,0.294,0.252c0.102,0.004,0.206-0.195,0.305-0.191
			c0.102,0.004,0.199,0.019,0.297,0.022c0.105,0.004,0.195,0.083,0.301,0.087c0.102,0.003,0.195,0.098,0.297,0.101
			c0.102,0.004,0.196,0.121,0.294,0.121c0.067,0.007,0.206-0.166,0.289-0.105c0.071,0.053-0.037,0.278,0.016,0.346
			c0.067,0.087,0.075,0.061,0.063,0.121c-0.008,0.104,0.083,0.21,0.075,0.312s0.079,0.211,0.064,0.313
			c-0.008,0.105-0.121,0.195-0.136,0.293c-0.012,0.105-0.105,0.196-0.116,0.298c-0.012,0.102,0.131,0.218,0.124,0.319
			c-0.016,0.105,0.09,0.218,0.071,0.319c-0.016,0.102-0.222,0.177-0.229,0.278c-0.016,0.102,0.041,0.211,0.03,0.313
			c-0.012,0.098-0.177,0.181-0.192,0.278c-0.019,0.105,0.057,0.215,0.049,0.316c-0.015,0.102,0.181,0.232,0.166,0.331
			c-0.012,0.098-0.045,0.195-0.061,0.297c-0.008,0.063-0.173,0.109-0.226,0.177s-0.079,0.165-0.136,0.191
			c-0.09,0.042-0.112,0.203-0.203,0.252c-0.09,0.053-0.203,0.038-0.285,0.091c-0.087,0.057-0.173,0.098-0.248,0.158
			c-0.076,0.063-0.136,0.143-0.211,0.203c-0.075,0.067-0.309-0.03-0.38,0.041s-0.14,0.154-0.207,0.229
			c-0.063,0.075,0.075,0.319,0.019,0.398c-0.06,0.075-0.177,0.113-0.229,0.195c-0.056,0.083-0.263,0.072-0.315,0.158
			c-0.053,0.083,0.03,0.248-0.022,0.339c-0.046,0.083-0.211,0.105-0.26,0.195c-0.049,0.091,0.124,0.29,0.079,0.376
			c-0.042,0.091-0.166,0.14-0.211,0.229c-0.041,0.091-0.218,0.117-0.264,0.207c-0.041,0.091-0.075,0.188-0.116,0.278
			c-0.041,0.091-0.063,0.188-0.105,0.278c-0.041,0.091-0.132,0.158-0.177,0.248c-0.045,0.091,0.094,0.268,0.053,0.357
			c-0.045,0.091-0.008,0.223-0.057,0.313s-0.36,0.037-0.41,0.128c-0.045,0.09,0.03,0.24-0.015,0.331
			c-0.049,0.09,0.061,0.263,0.015,0.354c-0.049,0.09-0.24,0.105-0.285,0.195c-0.049,0.091,0,0.229-0.049,0.316
			c-0.049,0.086-0.132,0.161-0.177,0.248c-0.046,0.09-0.226,0.105-0.274,0.195c-0.05,0.091-0.087,0.185-0.14,0.271
			c-0.049,0.086-0.146,0.15-0.195,0.24c-0.046,0.091,0.165,0.319,0.12,0.41c-0.049,0.09-0.136,0.158-0.181,0.248
			c-0.049,0.091-0.105,0.177-0.15,0.264c-0.045,0.086-0.271,0.079-0.316,0.169c-0.049,0.09,0.083,0.278,0.03,0.361
			c-0.045,0.09-0.267,0.09-0.315,0.181c-0.045,0.09,0.049,0.256,0,0.338c-0.045,0.087-0.121,0.154-0.158,0.245
			c-0.041,0.09-0.256,0.108-0.293,0.203c-0.034,0.09-0.042,0.199-0.075,0.289c-0.038,0.098,0.108,0.252,0.075,0.347
			c-0.034,0.094-0.144,0.157-0.181,0.248c-0.049,0.109-0.271,0.158-0.32,0.271c-0.049,0.12-0.057,0.188-0.146,0.271
			c-0.075,0.068-0.045,0.249-0.116,0.324c-0.075,0.071-0.034,0.256-0.105,0.331s-0.271,0.019-0.343,0.094
			c-0.067,0.075-0.007,0.271-0.075,0.35c-0.067,0.075-0.309-0.004-0.376,0.067c-0.067,0.075-0.037,0.245-0.105,0.32
			c-0.067,0.075-0.15,0.139-0.226,0.214c-0.067,0.072-0.24,0.053-0.309,0.132c-0.067,0.071-0.181,0.109-0.248,0.185
			c-0.075,0.075,0.075,0.361,0.008,0.437c-0.071,0.075-0.343-0.053-0.418,0.019s-0.132,0.154-0.207,0.229
			c-0.071,0.067-0.12,0.162-0.203,0.229c-0.075,0.063-0.188,0.09-0.263,0.154c-0.083,0.06-0.146,0.139-0.229,0.199
			c-0.083,0.057-0.162,0.116-0.244,0.169c-0.091,0.057-0.136,0.166-0.227,0.219c-0.09,0.053-0.165,0.12-0.255,0.169
			c-0.091,0.049-0.144,0.185-0.241,0.222c-0.09,0.042-0.203,0.061-0.297,0.098c-0.095,0.034-0.17,0.166-0.268,0.196
			c-0.102,0.026-0.24-0.091-0.346-0.068c-0.098,0.02-0.181,0.192-0.278,0.207c-0.105,0.016-0.229-0.132-0.331-0.116
			c-0.105,0.011-0.226-0.196-0.331-0.185c-0.102,0.012-0.173,0.268-0.278,0.278c-0.102,0.008-0.203,0.034-0.305,0.041
			c-0.102,0.008-0.222-0.222-0.319-0.218c-0.105,0.008-0.207,0.019-0.309,0.026c-0.102,0.004-0.203-0.019-0.309-0.015
			c-0.098,0.003-0.195,0.278-0.293,0.278c-0.105,0.003-0.211-0.229-0.316-0.229s-0.203,0.033-0.309,0.033
			c-0.098,0-0.203,0.177-0.305,0.177s-0.203-0.06-0.305-0.06c-0.105,0-0.218,0.181-0.315,0.177
			c-0.105-0.004-0.192-0.327-0.294-0.335s-0.207,0.015-0.309,0.008c-0.104-0.008-0.21,0.049-0.315,0.045
			c-0.102-0.004-0.203,0.15-0.309,0.15c-0.102,0-0.191,0.034-0.301,0.041c-0.098,0.008-0.203-0.063-0.305-0.049
			c-0.098,0.022-0.237-0.105-0.335-0.075s-0.165,0.15-0.264,0.196c-0.09,0.045-0.12,0.188-0.21,0.24
			c-0.075,0.049-0.222,0.034-0.323,0.038c-0.091,0.003-0.203,0.116-0.302,0.108c-0.098-0.011-0.165-0.289-0.248-0.301
			c-0.098-0.011-0.226,0.203-0.323,0.188c-0.098-0.012-0.166-0.245-0.256-0.26c-0.098-0.015-0.222,0.136-0.319,0.12
			c-0.098-0.015-0.207,0.045-0.298,0.03c-0.098-0.008-0.188-0.041-0.285-0.049s-0.181-0.177-0.278-0.181
			c-0.105-0.004-0.211,0.064-0.313,0.061s-0.203-0.004-0.305-0.008c-0.105-0.004-0.211,0.057-0.309,0.057
			c-0.105-0.008-0.203-0.181-0.305-0.188c-0.102,0-0.199-0.105-0.305-0.109c-0.098-0.003-0.211,0.2-0.309,0.196
			c-0.105-0.004-0.207-0.079-0.309-0.079c-0.102-0.008-0.21,0.181-0.315,0.181c-0.098-0.008-0.188-0.327-0.297-0.331
			c-0.105-0.008-0.211,0.143-0.313,0.143c-0.105-0.008-0.211,0.162-0.316,0.158c-0.102-0.004-0.199-0.098-0.305-0.102
			c-0.102-0.004-0.206-0.083-0.305-0.083c-0.105-0.004-0.204-0.124-0.308-0.132c-0.102,0-0.203-0.007-0.305-0.007
			c-0.102-0.008-0.215,0.293-0.313,0.285c-0.105,0-0.203-0.229-0.305-0.232c-0.102,0-0.203-0.128-0.305-0.128
			c-0.105,0-0.211,0.075-0.309,0.075c-0.105,0-0.207-0.03-0.309-0.03s-0.207,0.286-0.308,0.286c-0.105,0-0.203-0.211-0.309-0.211
			c-0.102,0-0.207-0.03-0.309-0.022c-0.102,0.004-0.211,0.015-0.309,0.022c-0.105,0.004-0.195,0.173-0.301,0.177
			c-0.102,0.008-0.222-0.215-0.324-0.207c-0.105,0.008-0.203,0.083-0.301,0.091c-0.105,0.011-0.188,0.188-0.293,0.199
			c-0.102,0.011-0.203,0.033-0.305,0.049c-0.102,0.007-0.222-0.14-0.32-0.128c-0.105,0.011-0.21-0.03-0.312-0.016
			c-0.102,0.008-0.192,0.15-0.297,0.158c-0.105,0.008-0.222-0.195-0.323-0.188c-0.102,0.007-0.192,0.248-0.293,0.252
			c-0.105,0.003-0.203,0.06-0.309,0.06c-0.098,0.004-0.207-0.06-0.308-0.06c-0.098-0.004-0.196-0.105-0.293-0.113
			s-0.196-0.041-0.293-0.049c-0.098-0.015-0.188-0.09-0.286-0.105c-0.098-0.015-0.233,0.219-0.331,0.203
			c-0.098-0.015-0.169-0.252-0.267-0.263c-0.098-0.016-0.192-0.105-0.29-0.113c-0.098-0.015-0.218,0.203-0.316,0.195
			c-0.105-0.007-0.215,0.083-0.32,0.083c-0.102-0.008-0.207-0.063-0.305-0.067c-0.105-0.008-0.211-0.008-0.313-0.008
			c-0.102-0.008-0.203-0.071-0.305-0.075c-0.105-0.004-0.203-0.105-0.308-0.105c-0.102,0-0.207-0.015-0.309-0.022
			c-0.102,0-0.21,0.105-0.316,0.105c-0.098-0.008-0.207-0.026-0.309-0.03c-0.102,0-0.207-0.061-0.308-0.061
			c-0.098,0-0.196,0.196-0.301,0.196c-0.098,0-0.203-0.335-0.301-0.335s-0.199,0.049-0.297,0.049
			c-0.098,0.008-0.202-0.022-0.299-0.022c-0.098,0.008-0.195,0.188-0.293,0.188c-0.098,0.008-0.201,0.023-0.299,0.03
			c-0.098,0.004-0.196,0.091-0.293,0.098c-0.098,0.004-0.205-0.252-0.307-0.248c-0.098,0.004-0.195,0.109-0.293,0.113
			c-0.1,0-0.201,0.022-0.299,0.022s-0.199,0.105-0.299,0.105c-0.098,0-0.2-0.128-0.297-0.128s-0.199,0.067-0.299,0.063
			c-0.098-0.004-0.2,0.034-0.301,0.026c-0.098-0.004-0.205,0.064-0.303,0.061c-0.102-0.004-0.195-0.192-0.301-0.199
			c-0.104-0.012-0.228,0.199-0.335,0.191c-0.102-0.011-0.207-0.037-0.31-0.057c-0.102-0.011-0.167-0.285-0.275-0.301
			c-0.102-0.015-0.231,0.124-0.333,0.105s-0.22,0.026-0.322,0.004c-0.102-0.019-0.145-0.305-0.246-0.331
			c-0.104-0.022-0.198-0.053-0.299-0.075s-0.267,0.195-0.365,0.165c-0.102-0.026-0.192-0.09-0.29-0.124
			c-0.098-0.03-0.231,0.034-0.331,0c-0.098-0.03-0.09-0.376-0.188-0.41c-0.098-0.037-0.239,0.053-0.337,0.02
			c-0.098-0.034-0.259,0.09-0.357,0.049c-0.098-0.038-0.165-0.146-0.263-0.188c-0.094-0.041-0.09-0.305-0.184-0.346
			c-0.094-0.045-0.192-0.071-0.286-0.12c-0.086-0.042-0.173-0.061-0.256-0.117c-0.081-0.057-0.282,0.057-0.361-0.011
			c-0.073-0.064,0.024-0.309-0.042-0.384c-0.067-0.068-0.13-0.121-0.193-0.203c-0.059-0.075-0.094-0.158-0.149-0.237
			c-0.054-0.083-0.383,0-0.431-0.09c-0.047-0.087,0.105-0.275,0.066-0.369c-0.04-0.09-0.228-0.124-0.263-0.222
			c-0.034-0.091,0.067-0.229,0.04-0.327c-0.026-0.094-0.141-0.169-0.169-0.264c-0.026-0.098,0.064-0.222,0.04-0.319
			c-0.022-0.098-0.148-0.166-0.171-0.264c-0.021-0.098,0.077-0.222,0.059-0.319c-0.021-0.098-0.059-0.192-0.075-0.29
			c-0.015-0.098-0.271-0.158-0.286-0.26c-0.015-0.098,0.141-0.222,0.126-0.319c-0.017-0.098-0.047-0.199-0.06-0.297
			c-0.011-0.098,0.075-0.207,0.064-0.309c-0.013-0.102-0.036-0.199-0.043-0.297c-0.007-0.098,0.105-0.207,0.098-0.309
			c-0.008-0.098-0.256-0.181-0.263-0.278c-0.008-0.098,0.184-0.211,0.18-0.316c-0.007-0.098-0.207-0.181-0.212-0.285
			c-0.007-0.099,0.13-0.207,0.126-0.305c-0.004-0.099-0.051-0.196-0.055-0.298c-0.003-0.102-0.028-0.203-0.036-0.301
			c-0.003-0.098,0.104-0.203,0.098-0.305c-0.004-0.098-0.25-0.188-0.254-0.286c-0.004-0.098,0.026-0.199,0.022-0.301
			c-0.004-0.102,0.064-0.206,0.056-0.305c-0.005-0.098,0.004-0.195,0-0.297c-0.009-0.098,0.047-0.203,0.038-0.301
			c-0.007-0.098-0.026-0.199-0.034-0.297c-0.009-0.098,0.081-0.211,0.07-0.309c-0.008-0.098-0.228-0.181-0.239-0.278
			s0.102-0.211,0.09-0.309s-0.314-0.162-0.329-0.26c-0.013-0.098,0.258-0.236,0.247-0.338c-0.015-0.099,0.04-0.211,0.024-0.309
			c-0.017-0.098-0.299-0.154-0.314-0.252c-0.017-0.098-0.061-0.196-0.072-0.294s0.064-0.21,0.051-0.309
			c-0.011-0.098-0.081-0.195-0.094-0.293c-0.011-0.098,0.09-0.211,0.079-0.309c-0.011-0.098,0.102-0.211,0.09-0.315
			c-0.011-0.099-0.003-0.2-0.015-0.302c-0.013-0.102-0.04-0.195-0.051-0.297c-0.013-0.098-0.299-0.161-0.314-0.263
			c-0.013-0.099,0.175-0.229,0.16-0.328c-0.015-0.098-0.188-0.173-0.203-0.271c-0.017-0.098-0.028-0.195-0.047-0.293
			c-0.021-0.098-0.137-0.173-0.162-0.271c-0.019-0.098,0.22-0.255,0.196-0.346c-0.022-0.098,0.043-0.222,0.017-0.319
			c-0.028-0.095-0.188-0.158-0.22-0.252c-0.028-0.095,0.047-0.233,0.015-0.324c-0.03-0.098-0.098-0.18-0.134-0.278
			c-0.034-0.09-0.058-0.195-0.098-0.285c-0.04-0.091-0.311-0.083-0.354-0.174c-0.047-0.09,0.053-0.263,0-0.354
			c-0.051-0.098-0.004-0.248-0.059-0.338c-0.054-0.091-0.336-0.045-0.396-0.136c-0.055-0.09,0.056-0.286-0.004-0.376
			c-0.059-0.091-0.278-0.075-0.337-0.166c-0.054-0.09,0.115-0.315,0.059-0.406c-0.055-0.09-0.384-0.019-0.435-0.112
			s-0.06-0.218-0.107-0.309c-0.047-0.098-0.128-0.181-0.167-0.286c-0.04-0.098-0.115-0.195-0.145-0.297
			c-0.036-0.105,0.055-0.244,0.038-0.327c-0.022-0.113,0.047-0.215,0.061-0.297c0.015-0.109,0.022-0.211,0.101-0.268
			c0.066-0.045,0.181-0.019,0.293-0.03c0.087-0.011,0.177-0.067,0.292-0.063c0.094,0.004,0.192,0.026,0.29,0.019
			c0.098,0,0.188-0.173,0.286-0.173c0.1-0.008,0.205,0.293,0.303,0.29c0.098-0.004,0.188-0.049,0.286-0.046
			c0.098,0,0.205-0.177,0.303-0.169c0.098,0.008,0.177,0.158,0.271,0.181c0.094,0.015,0.247-0.132,0.337-0.098
			c0.09,0.037,0.173,0.135,0.256,0.188c0.083,0.046,0.069,0.226,0.145,0.294c0.071,0.06,0.062,0.173,0.126,0.248
			c0.055,0.071,0.164,0.098,0.216,0.188c0.047,0.082,0.235,0.09,0.274,0.18c0.038,0.083,0.138,0.154,0.167,0.241
			c0.032,0.087-0.214,0.278-0.184,0.365c0.032,0.086,0.357,0.071,0.393,0.161c0.03,0.083-0.166,0.264-0.13,0.347
			c0.036,0.09,0.247,0.09,0.293,0.173c0.047,0.082,0.133,0.143,0.19,0.229c0.051,0.086-0.024,0.244,0.03,0.327
			c0.054,0.083,0.007,0.236,0.063,0.319c0.055,0.083,0.171,0.124,0.231,0.207c0.055,0.079,0.149,0.136,0.207,0.218
			c0.06,0.083,0.201,0.105,0.256,0.188c0.054,0.083-0.011,0.248,0.043,0.331c0.051,0.083,0.134,0.173,0.203,0.256
			c0.09,0.112,0.295,0.226,0.271,0.293C6.93,36.86,6.75,36.91,6.734,37c-0.019,0.102,0.126,0.207,0.13,0.305
			c0.004,0.098,0.09,0.154,0.117,0.248c0.028,0.094-0.094,0.233-0.047,0.323c0.043,0.083-0.03,0.256,0.028,0.339
			c0.054,0.083,0.329,0.008,0.393,0.09c0.062,0.075,0.065,0.196,0.124,0.278c0.064,0.076,0.036,0.223,0.094,0.302
			c0.061,0.082,0.047,0.195,0.1,0.278c0.055,0.09,0.348-0.016,0.442,0.06c0.083,0.064,0.032,0.347,0.133,0.402
			c0.102,0.049,0.216,0.132,0.322,0.17c0.115,0.033,0.259,0.053,0.365,0.067c0.104,0.008,0.197,0.041,0.299,0.049
			s0.224-0.271,0.322-0.263c0.102,0.007,0.196,0.086,0.293,0.094c0.104,0.007,0.188,0.191,0.288,0.203
			c0.102,0.007,0.218-0.241,0.322-0.233c0.102,0.008,0.195,0.053,0.297,0.061c0.102,0.007,0.185,0.203,0.288,0.21
			c0.102,0.008,0.218-0.229,0.316-0.226c0.104,0.008,0.19,0.173,0.292,0.181s0.203-0.037,0.307-0.03
			c0.102,0.008,0.199,0.026,0.297,0.038c0.102,0.007,0.196,0.083,0.295,0.09c0.098,0.008,0.199,0.022,0.297,0.03
			c0.098,0.012,0.216-0.226,0.318-0.218c0.102,0.007,0.192,0.146,0.29,0.154c0.104,0.007,0.19,0.195,0.292,0.203
			c0.102,0.011,0.196,0.056,0.297,0.063c0.104,0.008,0.224-0.342,0.322-0.339c0.103,0.008,0.19,0.211,0.292,0.219
			c0.102,0.007,0.203-0.071,0.305-0.068c0.103,0.008,0.19,0.233,0.288,0.241c0.098,0,0.203-0.038,0.301-0.034
			c0.1,0.004,0.216-0.274,0.318-0.267c0.105,0.004,0.188,0.24,0.286,0.248c0.098,0.008,0.21-0.233,0.316-0.226
			c0.102,0,0.195,0.075,0.297,0.083c0.102,0,0.196,0.09,0.297,0.098c0.105,0,0.203-0.083,0.308-0.083
			c0.102,0.008,0.2,0.034,0.297,0.038c0.102,0.003,0.192,0.274,0.293,0.278c0.102,0.003,0.207,0.022,0.305,0.026
			c0.105,0.003,0.21-0.2,0.312-0.2s0.203-0.12,0.305-0.12c0.105,0,0.203,0.188,0.301,0.188c0.105,0,0.207,0.105,0.309,0.105
			s0.203-0.02,0.309-0.02c0.098,0,0.195-0.206,0.301-0.206c0.098,0,0.203,0.029,0.305,0.029s0.203,0.124,0.305,0.124
			c0.105,0,0.203-0.102,0.301-0.104c0.105-0.004,0.207,0.082,0.309,0.082s0.203,0.042,0.309,0.042c0.098,0,0.203,0.098,0.301,0.09
			c0.105,0,0.207-0.309,0.308-0.305c0.102,0,0.203,0.169,0.309,0.169c0.098,0,0.196,0.113,0.301,0.113
			c0.117,0,0.249-0.012,0.346-0.026c0.117-0.019,0.226-0.139,0.312-0.185c0.094-0.056,0.105-0.21,0.162-0.301
			c0.045-0.083,0.083-0.173,0.102-0.286c0.011-0.098-0.094-0.191-0.109-0.308c-0.007-0.102,0.241-0.226,0.233-0.331
			c-0.007-0.102,0.045-0.211,0.038-0.313s-0.075-0.199-0.083-0.305c-0.007-0.105-0.075-0.203-0.083-0.309
			c-0.007-0.102-0.271-0.188-0.278-0.289s0.346-0.229,0.338-0.335c-0.007-0.102-0.188-0.195-0.195-0.297
			c-0.011-0.102,0.113-0.211,0.105-0.32c0-0.105-0.293-0.188-0.297-0.293s0.139-0.226,0.169-0.339
			c0.019-0.098,0.196-0.162,0.226-0.278C23.834,35.853,23.631,35.777,23.653,35.657z M2.652,32.874
			c0.022,0.094-0.198,0.143-0.177,0.232c0.019,0.091,0.267,0.132,0.286,0.223c0.019,0.094,0.011,0.188,0.036,0.278
			c0.022,0.09,0.019,0.188,0.047,0.278c0.03,0.098,0.207,0.146,0.239,0.244c0.032,0.091-0.008,0.215,0.024,0.313
			c0.03,0.098,0.007,0.214,0.038,0.305c0.032,0.098,0.067,0.195,0.1,0.293c0.03,0.098-0.057,0.229-0.024,0.327
			c0.032,0.098-0.011,0.215,0.019,0.313c0.032,0.098,0.263,0.132,0.295,0.229c0.032,0.098-0.068,0.237-0.036,0.335
			c0.032,0.098-0.026,0.222,0.003,0.315c0.032,0.098,0.239,0.14,0.271,0.237C3.805,36.895,3.805,37,3.836,37.098
			c0.03,0.098,0.199,0.15,0.231,0.248c0.03,0.098-0.04,0.229-0.009,0.32c0.032,0.098,0.193,0.154,0.224,0.252
			c0.032,0.098-0.265,0.297-0.235,0.395c0.032,0.098,0.123,0.173,0.154,0.271c0.03,0.099,0.247,0.14,0.278,0.233
			c0.03,0.098,0.034,0.203,0.066,0.298c0.032,0.094-0.105,0.248-0.073,0.346c0.03,0.102,0.309,0.139,0.333,0.244
			C4.828,39.81,4.6,39.96,4.617,40.065c0.015,0.109,0.054,0.207,0.065,0.313s0.181,0.195,0.188,0.305
			c0.008,0.098-0.069,0.203-0.062,0.309c0.008,0.102-0.098,0.21-0.09,0.312c0.007,0.102,0.274,0.185,0.282,0.29
			c0.008,0.098-0.102,0.211-0.098,0.312c0.004,0.102,0.079,0.2,0.083,0.298c0.008,0.102,0.055,0.203,0.063,0.301
			c0.007,0.105-0.267,0.222-0.26,0.323c0.009,0.102,0.252,0.188,0.26,0.286c0.007,0.102-0.019,0.203-0.012,0.309
			c0.008,0.098,0.047,0.195,0.055,0.301c0.008,0.102-0.075,0.207-0.069,0.309c0.007,0.105-0.01,0.203,0,0.309
			c0.007,0.098-0.043,0.206-0.04,0.304c0.007,0.102,0.015,0.203,0.022,0.302c0.007,0.102,0.205,0.188,0.212,0.289
			c0.008,0.105-0.094,0.211-0.086,0.313s-0.102,0.211-0.094,0.313c0.008,0.104,0.235,0.184,0.243,0.285
			c0.008,0.105-0.224,0.226-0.214,0.324c0.008,0.098,0.247,0.184,0.254,0.281c0.008,0.102-0.09,0.215-0.083,0.313
			c0.007,0.105-0.015,0.203-0.004,0.309c0.011,0.102,0.192,0.185,0.205,0.286c0.011,0.102,0.086,0.191,0.098,0.293
			c0.011,0.105,0.004,0.203,0.011,0.301c0.011,0.105-0.22,0.233-0.207,0.331c0.011,0.102,0.261,0.173,0.278,0.271
			c0.011,0.102,0.034,0.2,0.047,0.302c0.011,0.098-0.141,0.222-0.126,0.323s0.177,0.173,0.195,0.271
			c0.024,0.102,0.021,0.195,0.047,0.294c0.032,0.098,0.102,0.169,0.141,0.263c0.039,0.095-0.015,0.219,0.028,0.309
			c0.047,0.098,0,0.233,0.051,0.319c0.055,0.087,0.094,0.192,0.152,0.271c0.064,0.079,0.079,0.21,0.15,0.285
			c0.066,0.076,0.224,0.076,0.297,0.147c0.075,0.067,0.154,0.135,0.231,0.199c0.079,0.063,0.141,0.161,0.228,0.214
			s0.208,0.053,0.299,0.105c0.09,0.049,0.26-0.083,0.354-0.037c0.09,0.037,0.152,0.135,0.25,0.165
			c0.094,0.038,0.199,0.016,0.299,0.042c0.098,0.026,0.113,0.364,0.214,0.387c0.1,0.022,0.249-0.207,0.35-0.188
			c0.098,0.015,0.165,0.309,0.267,0.319c0.102,0.012,0.213,0.004,0.314,0.008c0.102,0.007,0.214-0.199,0.318-0.192
			c0.102,0.008,0.188,0.233,0.29,0.241c0.102,0,0.22-0.233,0.321-0.226c0.102,0.007,0.196,0.112,0.299,0.12
			c0.102,0.008,0.199,0.067,0.301,0.075c0.104,0.008,0.22-0.24,0.322-0.233c0.104,0.008,0.205-0.007,0.307,0
			c0.101,0.008,0.184,0.335,0.286,0.339c0.104,0.008,0.205,0.03,0.307,0.037c0.102,0.008,0.22-0.278,0.321-0.271
			s0.196,0.128,0.299,0.136c0.102,0.004,0.199,0.045,0.301,0.057c0.104,0.003,0.201,0.108,0.299,0.112
			c0.102,0.004,0.207-0.09,0.31-0.083c0.102,0.004,0.207-0.056,0.309-0.056c0.104,0.007,0.197,0.12,0.299,0.128
			c0.102,0.003,0.196,0.116,0.297,0.127c0.104,0,0.205,0.016,0.306,0.016c0.102,0.008,0.209-0.041,0.311-0.034
			c0.102,0.004,0.199,0.057,0.303,0.064c0.102,0.004,0.22-0.301,0.322-0.301c0.102,0.007,0.199,0.12,0.301,0.124
			s0.207-0.042,0.305-0.034c0.105,0,0.203,0.026,0.309,0.03c0.102,0.004,0.195,0.191,0.297,0.195s0.207-0.12,0.313-0.112
			c0.098,0.003,0.21-0.158,0.312-0.151c0.102,0.004,0.199,0.046,0.305,0.053c0.098,0,0.196,0.2,0.293,0.203
			c0.105,0.004,0.214-0.143,0.312-0.143c0.102,0.008,0.199,0.15,0.297,0.154c0.105,0.004,0.203,0.139,0.301,0.146
			c0.105,0,0.218-0.271,0.32-0.271c0.102,0.008,0.199,0.06,0.305,0.06c0.098,0.008,0.203-0.06,0.301-0.052
			c0.105,0.003,0.203,0.157,0.305,0.165c0.102,0,0.203,0.034,0.305,0.038c0.105,0.003,0.203,0.011,0.309,0.015
			c0.102,0.004,0.207-0.067,0.305-0.061c0.102,0,0.207-0.124,0.305-0.12c0.105,0.004,0.203,0.045,0.301,0.045
			c0.105,0.008,0.203,0.053,0.305,0.053s0.199-0.067,0.305-0.067c0.098,0,0.195,0.008,0.301,0.008c0.102,0,0.199-0.053,0.301-0.053
			s0.2,0.24,0.301,0.24c0.105,0,0.203,0.067,0.301,0.067c0.105,0,0.203-0.312,0.305-0.312s0.199,0.256,0.301,0.256
			s0.199-0.091,0.305-0.095c0.098,0,0.195-0.037,0.301-0.037c0.102,0,0.199,0.079,0.301,0.079c0.105,0,0.203-0.094,0.301-0.094
			c0.105,0,0.203-0.004,0.305-0.004s0.203,0.181,0.305,0.181c0.105,0,0.203-0.177,0.301-0.181c0.099,0,0.203,0.15,0.302,0.146
			c0.098-0.008,0.195-0.195,0.297-0.195c0.102-0.008,0.203,0.214,0.305,0.21c0.105,0,0.203-0.173,0.301-0.177
			c0.098,0,0.203,0.083,0.301,0.083c0.102,0,0.2-0.177,0.297-0.181c0.102,0,0.2-0.026,0.305-0.026c0.099,0,0.196,0.049,0.302,0.049
			c0.102,0,0.203,0.075,0.301,0.075c0.102,0,0.203-0.173,0.301-0.177c0.098,0,0.203,0.271,0.305,0.271s0.199-0.181,0.301-0.181
			s0.207,0.053,0.305,0.053s0.203,0.026,0.301,0.026c0.102,0,0.199-0.132,0.301-0.132s0.199,0,0.301,0
			c0.105,0,0.203,0.271,0.309,0.271c0.102,0,0.199-0.067,0.301-0.067s0.199-0.154,0.301-0.154c0.105,0,0.203,0.229,0.309,0.229
			c0.102,0,0.199-0.188,0.301-0.196c0.102,0,0.2-0.019,0.301-0.022c0.105,0,0.203-0.098,0.302-0.098
			c0.104,0,0.206,0.053,0.305,0.045c0.098,0,0.199-0.007,0.301-0.007s0.207,0.165,0.305,0.161c0.105,0,0.195-0.259,0.301-0.259
			c0.102,0,0.207,0.267,0.309,0.267c0.105-0.004,0.195-0.252,0.301-0.252c0.098-0.008,0.195-0.015,0.301-0.015
			c0.102,0,0.211,0.35,0.309,0.346c0.105-0.004,0.195-0.274,0.301-0.274c0.098,0,0.195-0.057,0.301-0.057
			c0.098-0.008,0.203,0.222,0.305,0.222c0.098-0.004,0.199-0.173,0.297-0.177s0.203,0.196,0.301,0.196
			c0.102-0.004,0.196-0.286,0.298-0.29c0.098-0.004,0.203,0.173,0.305,0.173c0.098-0.004,0.195-0.169,0.293-0.169
			c0.098-0.004,0.203,0.161,0.305,0.158c0.098-0.008,0.195-0.113,0.294-0.121c0.098,0,0.199,0.03,0.305,0.022
			c0.098,0,0.195-0.007,0.293-0.015s0.199-0.063,0.297-0.075c0.098-0.008,0.211,0.158,0.313,0.15
			c0.098-0.008,0.195-0.045,0.293-0.053c0.099-0.008,0.188-0.128,0.286-0.136c0.102-0.011,0.215,0.087,0.313,0.075
			c0.098-0.011,0.181-0.15,0.282-0.165c0.104-0.012,0.226,0.087,0.327,0.067c0.102-0.019,0.229,0.053,0.327,0.022
			c0.098-0.026,0.195-0.102,0.293-0.135c0.098-0.038,0.215-0.045,0.309-0.083c0.094-0.037,0.091-0.309,0.181-0.35
			c0.094-0.049,0.331,0.169,0.421,0.116c0.091-0.053,0.181-0.132,0.264-0.195c0.09-0.061,0.015-0.323,0.098-0.388
			c0.075-0.067,0.286,0.02,0.361-0.049c0.075-0.067-0.045-0.338,0.022-0.41c0.075-0.071,0.301,0.016,0.372-0.056
			c0.071-0.068,0.034-0.241,0.105-0.316s0.132-0.154,0.195-0.226c0.068-0.075,0.249-0.049,0.313-0.124
			c0.067-0.075,0.022-0.248,0.091-0.32c0.06-0.082,0.222-0.075,0.285-0.153c0.061-0.079,0.15-0.144,0.207-0.223
			c0.064-0.075,0.199-0.102,0.26-0.181c0.061-0.082,0.067-0.206,0.124-0.285c0.061-0.083,0.146-0.144,0.207-0.226
			c0.057-0.083-0.146-0.343-0.091-0.426c0.053-0.082,0.294-0.049,0.347-0.131c0.057-0.079,0.079-0.188,0.128-0.271
			c0.056-0.09-0.042-0.26,0.007-0.346c0.053-0.087,0.294-0.061,0.347-0.144c0.049-0.09,0.057-0.199,0.105-0.289
			c0.053-0.087,0.157-0.146,0.203-0.229c0.045-0.09,0.135-0.158,0.184-0.244c0.049-0.091-0.033-0.245,0.012-0.335
			c0.045-0.091,0.181-0.132,0.226-0.222c0.041-0.091-0.049-0.249,0-0.339c0.041-0.091,0.075-0.185,0.12-0.274
			c0.042-0.091,0.091-0.181,0.128-0.271c0.045-0.09,0.226-0.112,0.268-0.203c0.041-0.09-0.064-0.244-0.026-0.331
			c0.037-0.09,0.263-0.104,0.305-0.195c0.041-0.09,0.108-0.165,0.146-0.256c0.037-0.09-0.083-0.256-0.038-0.346
			c0.042-0.09,0.147-0.143,0.188-0.233c0.045-0.086,0.12-0.158,0.165-0.24c0.05-0.091,0.174-0.121,0.227-0.207
			c0.052-0.087,0.082-0.192,0.135-0.278c0.053-0.087-0.105-0.297-0.053-0.388c0.049-0.09,0.207-0.12,0.256-0.211
			c0.045-0.09,0.203-0.12,0.252-0.21c0.049-0.091-0.146-0.309-0.102-0.399c0.045-0.09,0.241-0.104,0.294-0.195
			c0.045-0.09,0.177-0.136,0.226-0.226c0.045-0.09,0.015-0.218,0.06-0.309c0.049-0.09,0.211-0.12,0.256-0.211
			c0.049-0.09,0.098-0.18,0.147-0.271c0.049-0.09-0.188-0.331-0.14-0.421c0.045-0.091,0.203-0.12,0.248-0.211
			c0.053-0.09,0.181-0.132,0.233-0.218c0.053-0.087,0.075-0.192,0.132-0.278c0.057-0.087-0.064-0.282-0.008-0.369
			c0.057-0.086,0.252-0.079,0.313-0.158c0.057-0.082-0.008-0.255,0.057-0.338c0.056-0.083,0.376,0.033,0.439-0.049
			c0.061-0.079-0.022-0.278,0.045-0.357c0.064-0.075,0.091-0.192,0.158-0.264c0.071-0.075,0.323,0.03,0.398-0.041
			c0.068-0.071,0.076-0.207,0.151-0.274c0.075-0.068,0.071-0.226,0.15-0.294c0.075-0.06,0.181-0.098,0.263-0.161
			c0.057-0.042,0.068-0.147,0.105-0.241c0.03-0.079,0.067-0.162,0.075-0.252c0.008-0.098-0.022-0.173-0.053-0.237
			c-0.03-0.063-0.086-0.033-0.185-0.071c-0.075-0.03-0.098-0.248-0.188-0.263c-0.091-0.02-0.192-0.02-0.271-0.023
			c-0.102-0.003-0.2,0.211-0.305,0.219c-0.099,0.008-0.203-0.098-0.309-0.083c-0.102,0.008-0.188,0.173-0.29,0.181
			s-0.222-0.139-0.319-0.136c-0.098,0.004-0.203-0.104-0.305-0.102c-0.098,0.004-0.199,0.008-0.297,0.008
			c-0.099,0.004-0.2-0.034-0.302-0.026c-0.098,0-0.188,0.294-0.285,0.294s-0.203-0.113-0.305-0.105
			c-0.098,0-0.199-0.057-0.301-0.053c-0.099,0.004-0.2,0.128-0.298,0.135c-0.098,0-0.195-0.071-0.301-0.067
			c-0.098,0.004-0.199-0.071-0.301-0.067s-0.195,0.045-0.297,0.045c-0.102,0.008-0.199-0.045-0.298-0.041
			c-0.098,0.003-0.195,0.229-0.293,0.236c-0.102,0.004-0.207-0.157-0.305-0.154c-0.098,0.004-0.195,0.091-0.297,0.095
			c-0.098,0.004-0.203-0.241-0.309-0.233c-0.098,0-0.195,0.045-0.297,0.049c-0.098,0.004-0.199-0.012-0.298-0.012
			c-0.098,0.004-0.195,0.046-0.301,0.046c-0.098,0.007-0.195,0.203-0.293,0.21c-0.098,0.004-0.199-0.03-0.297-0.022
			c-0.099,0-0.2,0-0.298,0s-0.203-0.098-0.301-0.098s-0.195,0.158-0.297,0.162c-0.098,0-0.199-0.057-0.297-0.057
			c-0.099,0-0.203-0.195-0.302-0.188c-0.104,0-0.203-0.075-0.301-0.075s-0.195,0.298-0.293,0.298s-0.199-0.034-0.297-0.034
			c-0.102,0-0.207,0.015-0.313,0.015s-0.211-0.053-0.313-0.053s-0.207,0.072-0.312,0.072c-0.105,0-0.203-0.177-0.313-0.181
			c-0.102-0.004-0.211,0.177-0.313,0.177c-0.105,0-0.203-0.249-0.309-0.252c-0.098-0.004-0.214,0.236-0.315,0.236
			c-0.102-0.007-0.203-0.128-0.309-0.135c-0.098-0.004-0.203-0.095-0.309-0.095c-0.102-0.004-0.203-0.102-0.309-0.105
			c-0.105-0.003-0.218,0.271-0.315,0.268c-0.105-0.004-0.211-0.061-0.313-0.061s-0.207,0.022-0.313,0.022
			c-0.105-0.007-0.21,0.091-0.315,0.091c-0.102,0-0.203-0.346-0.309-0.354c-0.098,0-0.203,0-0.313,0
			c-0.102,0-0.207,0.229-0.312,0.229c-0.105,0-0.211-0.132-0.316-0.132c-0.102,0-0.203,0.233-0.309,0.24
			c-0.102,0-0.195-0.007-0.301,0c-0.105,0.008-0.218-0.098-0.319-0.082c-0.102,0.022-0.154,0.173-0.252,0.207
			c-0.102,0.033-0.256-0.075-0.339-0.026c-0.09,0.056-0.049,0.24-0.12,0.319c-0.075,0.071-0.199,0.071-0.248,0.169
			c-0.05,0.087-0.057,0.177-0.091,0.286c-0.022,0.098-0.293,0.116-0.323,0.207c-0.03,0.094,0.12,0.252,0.086,0.342
			c-0.033,0.095,0.057,0.252,0.02,0.339c-0.046,0.09-0.144,0.158-0.192,0.241c-0.049,0.09-0.252,0.082-0.305,0.165
			c-0.056,0.083-0.082,0.181-0.146,0.26c-0.063,0.079-0.195,0.086-0.26,0.161c-0.067,0.075-0.067,0.207-0.139,0.275
			c-0.075,0.063-0.17,0.098-0.248,0.161c-0.079,0.061-0.154,0.113-0.237,0.166c-0.083,0.056-0.195,0.029-0.286,0.075
			c-0.09,0.049-0.075,0.293-0.165,0.334c-0.091,0.042-0.173,0.117-0.264,0.154c-0.09,0.034-0.229-0.075-0.327-0.049
			c-0.094,0.026-0.181,0.079-0.278,0.102c-0.094,0.022-0.177,0.144-0.274,0.158c-0.098,0.016-0.211-0.086-0.316-0.075
			c-0.098,0.012-0.195-0.061-0.301-0.053c-0.098,0.008-0.185,0.294-0.286,0.297c-0.102,0.004-0.206-0.086-0.308-0.082
			c-0.105,0.004-0.211-0.091-0.309-0.087c-0.105,0.004-0.207,0.067-0.309,0.067s-0.203,0.14-0.301,0.14
			c-0.105,0.004-0.211-0.169-0.316-0.169c-0.102,0.007-0.199,0.157-0.301,0.161c-0.105,0.004-0.211-0.203-0.315-0.199
			c-0.099,0.004-0.203,0.022-0.305,0.026s-0.2,0.124-0.302,0.124c-0.102,0.008-0.207-0.083-0.312-0.075
			c-0.102,0.004-0.203,0.083-0.305,0.083c-0.102,0.008-0.203,0.037-0.305,0.041c-0.105,0.004-0.211-0.026-0.313-0.022
			s-0.207-0.063-0.309-0.06c-0.102,0.003-0.207-0.109-0.312-0.105c-0.099,0.004-0.203,0.108-0.305,0.112s-0.207-0.169-0.313-0.161
			c-0.098,0-0.203,0.026-0.301,0.029c-0.105,0-0.203,0.2-0.309,0.2c-0.102,0-0.203-0.008-0.309-0.008
			c-0.098,0-0.203,0.063-0.301,0.063c-0.105,0-0.21-0.067-0.312-0.067s-0.207-0.067-0.313-0.067c-0.105,0-0.203,0.177-0.305,0.177
			s-0.203-0.098-0.312-0.098c-0.105,0-0.203-0.188-0.301-0.188c-0.105,0-0.207,0.049-0.309,0.049s-0.21,0.226-0.309,0.226
			c-0.105,0-0.203,0.019-0.312,0.016c-0.102,0-0.203,0.029-0.301,0.022c-0.098,0-0.2-0.166-0.305-0.166
			c-0.098,0-0.196-0.12-0.301-0.124c-0.102-0.004-0.207,0.241-0.305,0.237c-0.102-0.008-0.199-0.046-0.304-0.046
			c-0.098-0.003-0.203,0.068-0.301,0.064c-0.105-0.004-0.199-0.177-0.301-0.181s-0.199-0.041-0.301-0.041
			c-0.105,0-0.203-0.022-0.301-0.022c-0.105-0.004-0.199-0.124-0.301-0.128s-0.203,0.06-0.308,0.06
			c-0.098-0.007-0.196-0.082-0.293-0.09c-0.105,0-0.207,0.06-0.309,0.057c-0.102-0.004-0.199-0.03-0.301-0.034
			c-0.105-0.004-0.211,0.165-0.309,0.165c-0.105-0.007-0.196-0.139-0.301-0.143c-0.102-0.004-0.207,0.192-0.309,0.188
			c-0.105-0.004-0.195-0.136-0.301-0.136c-0.098-0.008-0.196-0.181-0.293-0.181c-0.102-0.008-0.21,0.241-0.312,0.241
			c-0.102-0.008-0.207,0.12-0.307,0.12c-0.102-0.008-0.196-0.195-0.295-0.195c-0.102-0.008-0.199-0.075-0.301-0.075
			c-0.102-0.008-0.209,0.128-0.307,0.124s-0.203,0.026-0.303,0.019c-0.102-0.004-0.192-0.274-0.293-0.278s-0.203,0.022-0.303,0.015
			c-0.102,0-0.207,0.154-0.309,0.15c-0.104-0.003-0.201-0.053-0.303-0.053c-0.102-0.007-0.203,0.046-0.307,0.042
			c-0.102-0.004-0.203,0.049-0.305,0.049c-0.103-0.008-0.205,0.067-0.306,0.063c-0.102-0.003-0.196-0.222-0.295-0.222
			c-0.098,0-0.196-0.158-0.297-0.162c-0.102-0.003-0.212,0.335-0.314,0.335c-0.102-0.007-0.192-0.331-0.293-0.335
			c-0.104-0.003-0.208,0.211-0.31,0.207c-0.104-0.004-0.201-0.143-0.299-0.143c-0.102-0.008-0.199-0.071-0.301-0.075
			c-0.104-0.004-0.205,0.067-0.307,0.067c-0.105-0.007-0.216,0.158-0.318,0.15c-0.105-0.007-0.216,0.03-0.318,0.016
			c-0.105-0.012-0.224,0.03-0.325,0.007c-0.102-0.019-0.122-0.395-0.22-0.417c-0.102-0.026-0.282,0.214-0.376,0.181
			c-0.098-0.034-0.169-0.15-0.26-0.192c-0.094-0.045-0.216-0.045-0.306-0.098s-0.196-0.098-0.278-0.154
			c-0.083-0.056-0.16-0.146-0.239-0.214c-0.075-0.064-0.137-0.158-0.208-0.233c-0.07-0.075,0-0.268-0.062-0.35
			c-0.062-0.079-0.152-0.132-0.212-0.219c-0.055-0.086-0.214-0.108-0.265-0.199c-0.053-0.09-0.064-0.203-0.111-0.293
			c-0.043-0.091-0.22-0.136-0.259-0.229c-0.038-0.094-0.038-0.215-0.073-0.313c-0.036-0.09,0.026-0.218-0.008-0.313
			c-0.036-0.094-0.122-0.165-0.158-0.259c-0.036-0.095-0.126-0.158-0.16-0.256c-0.04-0.091,0.124-0.264,0.086-0.361
			c-0.04-0.09-0.115-0.165-0.158-0.256c-0.04-0.09-0.075-0.188-0.117-0.278c-0.04-0.09-0.263-0.098-0.307-0.188
			C5.174,36.033,5.441,35.8,5.401,35.71c-0.043-0.091-0.205-0.128-0.249-0.219c-0.041-0.09-0.301-0.075-0.344-0.165
			c-0.043-0.09-0.067-0.188-0.111-0.278c-0.042-0.09,0.209-0.319,0.166-0.41c-0.043-0.09-0.282-0.086-0.325-0.177
			c-0.043-0.09,0.109-0.271,0.069-0.361c-0.038-0.09-0.29-0.082-0.333-0.173c-0.043-0.09-0.13-0.165-0.169-0.256
			c-0.042-0.09,0-0.21-0.047-0.293c-0.055-0.083,0.013-0.271-0.055-0.339c-0.07-0.075-0.152-0.188-0.235-0.236
			c-0.083-0.05-0.286,0.157-0.383,0.131c-0.09-0.03-0.141-0.319-0.245-0.331c-0.094-0.007-0.207,0.105-0.309,0.113
			C2.742,32.712,2.753,32.858,2.652,32.874z M34.976,16.699c-0.098-0.007-0.075-0.218-0.173-0.226s-0.211,0.218-0.309,0.21
			c-0.098-0.011-0.195-0.049-0.294-0.052c-0.098-0.008-0.191-0.049-0.289-0.057s-0.207,0.139-0.305,0.132
			c-0.098-0.008-0.188-0.09-0.286-0.098c-0.098-0.007-0.195-0.067-0.286-0.075c-0.098-0.007-0.195-0.007-0.293-0.015
			c-0.098-0.007-0.188-0.135-0.282-0.139c-0.098-0.003-0.191-0.086-0.286-0.09c-0.098-0.004-0.199,0.203-0.297,0.203
			c-0.105-0.004-0.203-0.14-0.301-0.14s-0.195-0.098-0.301-0.098c-0.102,0-0.203,0.181-0.301,0.181c-0.105,0-0.203-0.03-0.301-0.03
			c-0.105,0-0.203,0.15-0.305,0.15s-0.203-0.105-0.301-0.102c-0.102,0-0.2,0.14-0.298,0.14c-0.105,0-0.21-0.339-0.309-0.339
			c-0.102,0-0.199,0.068-0.301,0.075c-0.102,0-0.199,0.196-0.301,0.196c-0.098,0-0.195-0.022-0.301-0.022
			c-0.098,0-0.199-0.173-0.301-0.173c-0.12,0-0.283,0.218-0.407,0.181c-0.113-0.034-0.188-0.32-0.301-0.327
			c-0.109-0.008-0.215,0.007-0.316,0c-0.105-0.008-0.218,0.139-0.323,0.131c-0.109-0.007-0.207-0.102-0.309-0.113
			s-0.203-0.128-0.309-0.135s-0.226,0.241-0.331,0.233c-0.104-0.008-0.203-0.136-0.308-0.143c-0.105-0.007-0.211,0.049-0.316,0.042
			c-0.105-0.008-0.211,0.026-0.316,0.019c-0.104-0.007-0.195-0.293-0.293-0.301c-0.109-0.007-0.226,0.226-0.331,0.218
			c-0.105-0.008-0.21-0.042-0.316-0.049c-0.105-0.004-0.21,0.022-0.312,0.015c-0.109-0.003-0.207-0.098-0.313-0.102
			c-0.105-0.003-0.207-0.03-0.312-0.03c-0.098-0.008-0.196-0.064-0.293-0.064c-0.102,0-0.199,0.007-0.297,0.011
			c-0.098,0.004-0.181,0.199-0.278,0.203c-0.098,0.007-0.203-0.098-0.301-0.09c-0.098,0.007-0.203-0.102-0.301-0.094
			c-0.098,0.008-0.181,0.229-0.274,0.241c-0.098,0.008-0.207-0.229-0.305-0.222c-0.098,0-0.188,0.233-0.286,0.237
			c-0.098,0-0.199-0.109-0.293-0.109c-0.102-0.008-0.195-0.045-0.297-0.053s-0.214,0.158-0.313,0.15
			c-0.105-0.007-0.203,0.045-0.305,0.045c-0.102-0.012-0.191-0.034-0.29-0.038c-0.102-0.004-0.199-0.249-0.301-0.245
			c-0.105,0.004-0.169,0.256-0.267,0.271c-0.102,0.019-0.173,0.042-0.267,0.076c-0.094,0.034-0.241-0.094-0.331-0.049
			c-0.083,0.045-0.083,0.218-0.173,0.278c-0.075,0.053-0.305,0.068-0.437,0.057c-0.131-0.011-0.342-0.034-0.425-0.09
			c-0.094-0.064-0.117-0.192-0.207-0.237c-0.098-0.045-0.173-0.173-0.263-0.188c-0.113-0.015-0.233-0.034-0.335-0.015
			c-0.102,0.022-0.252,0.015-0.342,0.067c-0.09,0.053-0.12,0.211-0.203,0.286c-0.075,0.068-0.152,0.146-0.224,0.226
			c-0.066,0.083-0.167,0.128-0.235,0.207c-0.066,0.079-0.09,0.195-0.156,0.274c-0.068,0.079,0.015,0.278-0.047,0.357
			c-0.068,0.079-0.173,0.117-0.237,0.199c-0.062,0.083-0.073,0.192-0.131,0.275c-0.061,0.086-0.386,0-0.437,0.086
			c-0.051,0.09,0.122,0.301,0.079,0.391c-0.043,0.09-0.342,0.06-0.386,0.15c-0.043,0.09-0.069,0.188-0.113,0.278
			c-0.043,0.09,0.105,0.274,0.059,0.365c-0.043,0.09-0.286,0.086-0.329,0.177c-0.043,0.09,0.133,0.286,0.09,0.376
			c-0.043,0.09-0.18,0.135-0.224,0.226c-0.043,0.09-0.133,0.158-0.177,0.256c-0.043,0.09,0.145,0.286,0.105,0.376
			c-0.043,0.09-0.07,0.188-0.113,0.278c-0.043,0.09-0.376,0.053-0.416,0.143c-0.043,0.09-0.098,0.177-0.141,0.267
			c-0.043,0.09,0.18,0.297,0.137,0.395c-0.04,0.09-0.188,0.135-0.228,0.226s-0.115,0.166-0.154,0.263
			c-0.04,0.09-0.167,0.143-0.207,0.241c-0.04,0.09,0.015,0.222-0.024,0.316c-0.04,0.094-0.011,0.21-0.047,0.305
			c-0.04,0.094-0.177,0.146-0.211,0.241c-0.039,0.094-0.177,0.147-0.212,0.237c-0.036,0.098-0.075,0.188-0.115,0.278
			c-0.034,0.098-0.022,0.211-0.058,0.305c-0.036,0.094-0.113,0.169-0.145,0.267c-0.036,0.094,0.228,0.29,0.196,0.384
			c-0.03,0.094-0.167,0.15-0.199,0.248c-0.032,0.09-0.015,0.203-0.047,0.297c-0.032,0.094-0.079,0.185-0.107,0.278
			c-0.026,0.094-0.231,0.139-0.258,0.237c-0.028,0.09,0.066,0.226,0.04,0.32c-0.028,0.094,0.105,0.237,0.077,0.327
			c-0.026,0.102-0.09,0.181-0.113,0.278c-0.024,0.102-0.235,0.151-0.26,0.249c-0.022,0.098,0.107,0.226,0.083,0.323
			c-0.023,0.098-0.185,0.166-0.203,0.264c-0.021,0.098-0.173,0.165-0.194,0.267c-0.019,0.098,0.237,0.245,0.216,0.343
			c-0.019,0.098-0.086,0.188-0.102,0.286c-0.017,0.102,0.032,0.21,0.015,0.309c-0.015,0.098-0.185,0.173-0.2,0.271
			c-0.017,0.098-0.054,0.195-0.071,0.293c-0.015,0.098-0.03,0.196-0.043,0.301c-0.011,0.099,0.051,0.208,0.04,0.306
			s0.105,0.21,0.098,0.308c-0.008,0.102-0.055,0.192-0.062,0.298c-0.008,0.098-0.059,0.195-0.068,0.293
			c-0.008,0.098,0.06,0.199,0.056,0.301c-0.003,0.098-0.017,0.196-0.021,0.301c-0.004,0.099,0.047,0.196,0.047,0.294
			c-0.003,0.098-0.239,0.199-0.242,0.297c0,0.098-0.072,0.199-0.072,0.301c0,0.098,0.314,0.196,0.314,0.298
			c0,0.098-0.25,0.203-0.246,0.301c0.004,0.102,0.098,0.199,0.102,0.297s0.047,0.195,0.051,0.297
			c0.007,0.113-0.066,0.226-0.047,0.316c0.024,0.109,0.137,0.173,0.177,0.263c0.047,0.099,0.094,0.158,0.166,0.229
			c0.069,0.068,0.065,0.282,0.167,0.32c0.086,0.037,0.245-0.098,0.354-0.083c0.094,0.019,0.181,0.181,0.295,0.181
			c0.102,0.008,0.211-0.181,0.312-0.173c0.104,0.004,0.198,0.222,0.299,0.226s0.212-0.166,0.314-0.158
			c0.102,0,0.203,0.091,0.307,0.091c0.102,0.007,0.207-0.166,0.309-0.166c0.103,0,0.205-0.022,0.306-0.015
			c0.102,0,0.205,0.053,0.307,0.056c0.102,0,0.203,0.079,0.307,0.079c0.102,0,0.203-0.169,0.305-0.169s0.205,0.274,0.307,0.274
			s0.203-0.181,0.307-0.181c0.102,0,0.203,0.061,0.305,0.061c0.103,0,0.205,0.026,0.306,0.026s0.205-0.124,0.309-0.124
			c0.098,0,0.203,0,0.301,0c0.105,0,0.211,0.271,0.313,0.271s0.207-0.063,0.305-0.063c0.105,0,0.203-0.154,0.308-0.154
			c0.102,0,0.203,0.232,0.309,0.232s0.203-0.188,0.309-0.188c0.098,0,0.203-0.016,0.305-0.016s0.203-0.098,0.305-0.098
			c0.105,0,0.203,0.057,0.308,0.057c0.102,0,0.203-0.008,0.305-0.008s0.207,0.174,0.305,0.174c0.105,0,0.211-0.256,0.313-0.252
			c0.102,0,0.199,0.278,0.301,0.285c0.102,0,0.207-0.248,0.312-0.24c0.105,0.004,0.207,0,0.313,0
			c0.102,0.004,0.195,0.354,0.297,0.361c0.105,0,0.211-0.264,0.316-0.26c0.102,0.004,0.207-0.042,0.309-0.042
			c0.102,0.008,0.196,0.241,0.301,0.245c0.098,0.004,0.211-0.154,0.313-0.154c0.102,0.008,0.191,0.211,0.293,0.222
			c0.102,0.008,0.222-0.271,0.32-0.264c0.098,0.004,0.188,0.188,0.293,0.192c0.102,0.004,0.207-0.15,0.309-0.15
			c0.102,0.008,0.203,0.173,0.301,0.173c0.098,0.008,0.203-0.102,0.301-0.102c0.105,0,0.207,0.041,0.305,0.041
			c0.102,0,0.207,0,0.305,0c0.105,0,0.203-0.053,0.301-0.053c0.105,0,0.207,0.17,0.309,0.166s0.203-0.03,0.309-0.03
			c0.098,0,0.195-0.112,0.301-0.112c0.102,0,0.203,0.104,0.305,0.104s0.199-0.135,0.305-0.135c0.098-0.004,0.203,0.112,0.301,0.112
			c0.105,0,0.207,0.095,0.309,0.095c0.102-0.004,0.203-0.049,0.301-0.049c0.105,0,0.203,0.029,0.309,0.025
			c0.102,0,0.195-0.248,0.293-0.252c0.102-0.003,0.211,0.302,0.309,0.294c0.106,0,0.204-0.022,0.301-0.03
			c0.105-0.004,0.192-0.248,0.294-0.256c0.102-0.004,0.21,0.203,0.309,0.195c0.104,0,0.188-0.289,0.285-0.293
			s0.211,0.211,0.313,0.203c0.102,0,0.191-0.15,0.293-0.158c0.102,0,0.2-0.015,0.305-0.022c0.099,0,0.203,0.146,0.302,0.143
			c0.104-0.003,0.199-0.15,0.297-0.15c0.102-0.007,0.203,0.121,0.301,0.113c0.102,0,0.199,0.026,0.297,0.026
			c0.105,0,0.203,0.098,0.301,0.098c0.117,0,0.223-0.063,0.313-0.063c0.124,0,0.241,0.037,0.327,0.029
			c0.144-0.007,0.124-0.301,0.181-0.35c0.061-0.057,0.248-0.041,0.241-0.185c-0.008-0.082-0.057-0.188-0.075-0.308
			c-0.016-0.091-0.203-0.166-0.227-0.286c-0.015-0.098,0.185-0.233,0.17-0.331c-0.016-0.098-0.083-0.188-0.098-0.286
			c-0.02-0.098,0.026-0.211,0.007-0.309c-0.015-0.098,0.008-0.203-0.007-0.301c-0.02-0.098-0.177-0.173-0.192-0.271
			c-0.015-0.098,0.061-0.211,0.045-0.316c-0.015-0.098-0.18-0.173-0.195-0.271c-0.015-0.098-0.045-0.195-0.053-0.293
			c-0.015-0.099-0.03-0.2-0.045-0.298s0.128-0.222,0.113-0.319c-0.016-0.102-0.181-0.181-0.196-0.278
			c-0.011-0.102,0.177-0.226,0.17-0.323c-0.012-0.098,0.007-0.203-0.004-0.301c-0.012-0.099-0.196-0.182-0.203-0.279
			c-0.008-0.098,0.053-0.207,0.053-0.309c-0.012-0.102,0.015-0.199,0.015-0.301c-0.008-0.105,0.083-0.203,0.083-0.301
			c-0.008-0.105-0.034-0.203-0.034-0.301c0-0.102-0.237-0.203-0.237-0.305s0.128-0.2,0.132-0.297
			c0.004-0.105,0.132-0.195,0.14-0.293c0.007-0.105-0.264-0.222-0.256-0.323c0.008-0.105,0.181-0.188,0.195-0.286
			c0.012-0.105,0.117-0.188,0.128-0.293c0.016-0.098-0.061-0.207-0.045-0.308c0.011-0.102,0.15-0.181,0.165-0.278
			c0.016-0.098,0.038-0.196,0.053-0.293c0.016-0.098-0.285-0.252-0.267-0.354c0.019-0.098,0.154-0.177,0.173-0.278
			c0.019-0.098,0.132-0.181,0.146-0.278c0.022-0.098,0.008-0.203,0.034-0.301c0.019-0.098-0.154-0.244-0.14-0.342
			c0.026-0.102,0.211-0.162,0.229-0.259c0.022-0.098-0.098-0.233-0.075-0.331c0.026-0.098,0.361-0.121,0.388-0.218
			c0.022-0.098-0.143-0.245-0.116-0.342s-0.004-0.207,0.019-0.305c0.022-0.098,0.301-0.128,0.327-0.229
			c0.026-0.098-0.041-0.218-0.012-0.316c0.026-0.098-0.067-0.229-0.037-0.327c0.022-0.098,0.083-0.184,0.105-0.282
			c0.03-0.098,0.007-0.207,0.037-0.305c0.03-0.098,0.068-0.195,0.095-0.293c0.025-0.098,0.022-0.203,0.049-0.301
			c0.029-0.098,0-0.207,0.029-0.305c0.026-0.098,0.249-0.139,0.275-0.237c0.026-0.102,0.041-0.203,0.063-0.297
			c0.03-0.098-0.154-0.252-0.128-0.35c0.022-0.098,0.162-0.166,0.185-0.263c0.026-0.098-0.094-0.229-0.071-0.327
			c0.022-0.102,0.214-0.162,0.256-0.256c0.045-0.09,0.188-0.124,0.244-0.207c0.057-0.083,0.109-0.162,0.177-0.245
			c0.061-0.079,0.15-0.131,0.218-0.207c0.068-0.079-0.082-0.342-0.015-0.421s0.218-0.079,0.282-0.158
			c0.067-0.075,0.177-0.12,0.229-0.203c0.045-0.06-0.049-0.173-0.008-0.282C34.908,16.774,34.938,16.797,34.976,16.699z
			 M25.737,6.329c0.098,0.022,0.061,0.26,0.158,0.286C26,6.638,26.151,6.438,26.249,6.461c0.102,0.022,0.192,0.079,0.29,0.105
			c0.102,0.022,0.191,0.075,0.289,0.098c0.098,0.026,0.237-0.098,0.335-0.075s0.181,0.117,0.278,0.139
			c0.102,0.026,0.185,0.102,0.29,0.124c0.098,0.026,0.195,0.045,0.293,0.068c0.098,0.022,0.173,0.166,0.271,0.188
			c0.099,0.022,0.181,0.12,0.278,0.146c0.099,0.022,0.245-0.162,0.347-0.139c0.098,0.022,0.161,0.181,0.26,0.203
			c0.102,0.026,0.173,0.139,0.271,0.166c0.098,0.022,0.24-0.135,0.335-0.113c0.09,0.022,0.173,0.071,0.263,0.086
			c0.091,0.019,0.211-0.117,0.301-0.102c0.091,0.015,0.166,0.143,0.256,0.166c0.091,0.022,0.226-0.075,0.316-0.045
			c0.09,0.034,0.067,0.383,0.158,0.417c0.09,0.034,0.203,0.003,0.289,0.034c0.091,0.03,0.237-0.132,0.327-0.109
			c0.091,0.026,0.166,0.071,0.264,0.083c0.105,0.015,0.181,0.207,0.289,0.222c0.105,0.015,0.253-0.218,0.361-0.203
			c0.105,0.015,0.177,0.286,0.282,0.301s0.226,0,0.331,0.007c0.105,0.011,0.222-0.143,0.327-0.139c0.109,0,0.215,0.087,0.32,0.075
			c0.108-0.011,0.248,0.087,0.346,0.057c0.09-0.015,0.034-0.293,0.105-0.399c0.053-0.075,0.195-0.105,0.244-0.21
			c0.041-0.094,0.019-0.218,0.053-0.316c0.03-0.105,0.022-0.214,0.049-0.316c0.022-0.113,0.323-0.158,0.343-0.252
			c0.019-0.098-0.2-0.245-0.185-0.342c0.015-0.102,0.06-0.196,0.071-0.293c0.012-0.102-0.012-0.203,0-0.305
			c0.008-0.102,0.105-0.199,0.113-0.297c0.007-0.098,0.033-0.195,0.041-0.301c0-0.102,0.067-0.199,0.075-0.301
			c0-0.102,0.008-0.203,0.008-0.309c0.007-0.098-0.181-0.21-0.173-0.312c0-0.109,0.116-0.207,0.116-0.305
			c0-0.113,0.112-0.226,0.105-0.316c-0.008-0.113-0.237-0.188-0.26-0.278c-0.022-0.109,0.162-0.293,0.12-0.376
			c-0.053-0.094-0.297-0.034-0.376-0.094c-0.075-0.057-0.116-0.188-0.222-0.218c-0.091-0.026-0.192-0.075-0.305-0.079
			c-0.098-0.003-0.195,0.169-0.305,0.173c-0.094,0.003-0.185,0.075-0.29,0.09c-0.102,0.012-0.21,0-0.315,0.008
			c-0.098,0.007-0.211-0.237-0.313-0.233c-0.102,0-0.207,0.245-0.309,0.241c-0.102-0.003-0.214,0-0.312-0.011
			c-0.105-0.011-0.188-0.188-0.29-0.207c-0.102-0.015-0.229,0.113-0.327,0.09c-0.098-0.015-0.203-0.067-0.301-0.098
			c-0.098-0.026-0.215-0.007-0.313-0.042c-0.094-0.034-0.165-0.162-0.26-0.199c-0.094-0.038-0.143-0.177-0.24-0.218
			c-0.091-0.045-0.166-0.113-0.256-0.158c-0.091-0.049-0.143-0.154-0.229-0.203c-0.087-0.053-0.229-0.008-0.313-0.064
			c-0.09-0.06-0.188-0.117-0.278-0.158c-0.098-0.049-0.181-0.131-0.278-0.162s-0.222,0-0.319-0.019
			c-0.102-0.019-0.222,0.158-0.327,0.146c-0.098-0.007-0.188-0.068-0.298-0.068c-0.102,0-0.195,0.061-0.301,0.068
			c-0.102,0.007-0.236-0.301-0.342-0.293c-0.102,0.015-0.173,0.278-0.278,0.293C27.246,1.597,27.106,1.331,27,1.345
			c-0.104,0.015-0.203,0.045-0.305,0.053c-0.102,0.015-0.184,0.233-0.289,0.241c-0.067,0.008-0.278-0.109-0.357-0.026
			c-0.061,0.064,0.063,0.293,0.019,0.373c-0.053,0.09-0.181,0.143-0.188,0.218c-0.008,0.098-0.072,0.195-0.083,0.293
			c-0.008,0.102,0.233,0.218,0.226,0.319s0,0.2-0.008,0.305c-0.007,0.098-0.331,0.173-0.338,0.278
			c-0.008,0.098-0.03,0.2-0.038,0.301s0.271,0.218,0.264,0.323c-0.008,0.098-0.128,0.188-0.136,0.293
			c-0.008,0.102-0.053,0.199-0.057,0.297c-0.007,0.101-0.108,0.195-0.116,0.293c-0.008,0.102,0.086,0.207,0.083,0.305
			c-0.008,0.105,0.06,0.207,0.053,0.305c-0.008,0.102-0.117,0.196-0.125,0.293c-0.007,0.102-0.124,0.192-0.124,0.29
			C25.481,6.205,25.745,6.235,25.737,6.329z M35.502,35.108c-0.049,0.098-0.286,0.037-0.315,0.12
			c-0.038,0.109,0.177,0.229,0.191,0.313c0.019,0.094,0.012,0.131,0.109,0.191c0.063,0.045,0.132,0.098,0.244,0.12
			c0.083,0.016,0.185-0.128,0.294-0.124c0.102,0.004,0.206,0.083,0.305,0.087c0.104,0.004,0.206,0.063,0.312,0.063
			c0.102,0.004,0.207,0,0.313,0c0.098,0,0.203,0.124,0.309,0.124c0.102,0,0.207,0.075,0.309,0.075c0.104,0,0.21-0.21,0.308-0.21
			c0.105,0,0.211,0.135,0.313,0.131c0.102,0,0.207,0.095,0.313,0.091c0.098-0.004,0.203-0.188,0.309-0.188
			c0.102,0,0.206,0.034,0.308,0.034c0.105,0,0.211-0.15,0.309-0.15c0.105,0,0.211,0.105,0.313,0.105s0.207-0.136,0.313-0.136
			c0.09,0,0.181,0.346,0.278,0.35s0.195-0.057,0.285-0.057c0.099,0.008,0.203-0.188,0.298-0.18c0.094,0.007,0.188,0.041,0.285,0.049
			c0.095,0.011,0.177,0.188,0.271,0.199c0.108,0.008,0.244-0.237,0.357-0.222c0.108,0.015,0.181,0.285,0.285,0.301
			c0.109,0.019,0.226,0.011,0.331,0.019c0.109,0.015,0.226-0.136,0.339-0.136c0.098,0,0.203,0.091,0.301,0.091
			c0.105,0,0.207,0.116,0.309,0.116s0.211-0.26,0.309-0.252c0.105,0,0.203,0.12,0.309,0.12c0.102,0,0.203-0.06,0.305-0.06
			s0.206-0.038,0.305-0.034c0.104,0,0.203,0.282,0.305,0.282s0.203-0.241,0.305-0.241c0.104,0,0.202,0.03,0.308,0.03
			c0.098,0,0.203-0.03,0.305-0.033c0.102,0,0.203,0.09,0.305,0.086c0.105-0.004,0.203,0.016,0.309,0.016
			c0.098,0,0.203,0.056,0.305,0.056s0.203-0.007,0.305-0.007c0.105,0,0.203-0.2,0.301-0.2c0.105-0.007,0.211,0.102,0.313,0.099
			c0.102-0.008,0.207,0.108,0.313,0.104c0.098-0.003,0.188-0.226,0.293-0.232c0.102,0,0.215,0.229,0.316,0.226
			s0.188-0.241,0.293-0.248c0.098-0.008,0.203,0.094,0.309,0.09c0.102-0.004,0.203,0.022,0.305,0.012
			c0.102-0.008,0.188-0.188,0.289-0.196c0.105-0.007,0.196-0.082,0.302-0.09c0.098-0.008,0.203,0.004,0.305-0.004
			s0.222,0.226,0.327,0.218c0.098-0.007,0.18-0.256,0.278-0.263c0.104-0.008,0.203-0.03,0.305-0.042
			c0.102-0.007,0.222,0.147,0.319,0.14c0.098-0.016,0.188-0.166,0.286-0.181c0.105-0.008,0.207,0.008,0.309,0
			c0.102-0.015,0.195-0.067,0.297-0.079c0.102-0.011,0.185,0.057,0.278-0.011c0.086-0.053,0.237-0.03,0.319-0.099
			c0.091-0.067,0.215-0.153,0.301-0.21c-0.053-0.083-0.102-0.313-0.15-0.399c-0.105,0-0.271,0.095-0.376,0.095
			c-0.102,0-0.203-0.004-0.305-0.004s-0.207-0.045-0.305-0.045c-0.105,0-0.203,0.056-0.309,0.056c-0.102,0-0.203,0.192-0.305,0.192
			s-0.206-0.061-0.305-0.061c-0.104,0-0.206,0.053-0.308,0.053s-0.203-0.323-0.309-0.323c-0.098,0-0.203,0.256-0.301,0.256
			c-0.105,0-0.207-0.282-0.309-0.282s-0.203,0.019-0.309,0.019c-0.098,0-0.203,0.211-0.301,0.211c-0.105,0-0.207-0.226-0.309-0.226
			s-0.203,0.244-0.309,0.244c-0.098,0-0.203-0.102-0.301-0.102c-0.105,0-0.207-0.057-0.309-0.057s-0.203,0.256-0.309,0.256
			c-0.098,0-0.203,0.016-0.305,0.016s-0.203-0.32-0.305-0.32c-0.104,0-0.203-0.015-0.308-0.015c-0.099,0-0.203,0.286-0.305,0.286
			s-0.203-0.121-0.305-0.121c-0.105,0-0.203-0.033-0.309-0.033c-0.098,0-0.203-0.098-0.305-0.098s-0.203,0.102-0.305,0.102
			c-0.105,0-0.203,0.071-0.309,0.071c-0.102,0-0.203-0.109-0.305-0.109s-0.203-0.105-0.305-0.105c-0.105,0-0.203-0.007-0.309-0.007
			c-0.102,0-0.203,0.052-0.305,0.052s-0.207-0.045-0.305-0.045c-0.105,0-0.203,0.313-0.309,0.313c-0.102,0-0.203-0.109-0.305-0.109
			s-0.207,0.049-0.305,0.049c-0.105,0-0.203-0.019-0.308-0.019c-0.102,0-0.203-0.181-0.305-0.181s-0.207,0.128-0.305,0.128
			c-0.105,0-0.207,0.162-0.309,0.162s-0.203-0.038-0.309-0.038c-0.098,0-0.203-0.191-0.301-0.191c-0.105,0-0.207,0.15-0.309,0.15
			s-0.203-0.14-0.309-0.14c-0.098,0-0.203-0.131-0.301-0.131c-0.105,0-0.207,0.278-0.309,0.278s-0.203-0.053-0.309-0.053
			c-0.098,0-0.203,0.067-0.305,0.067s-0.203-0.158-0.305-0.158s-0.203-0.03-0.309-0.03c-0.098,0-0.203-0.007-0.305-0.007
			s-0.202,0.075-0.304,0.075c-0.105,0-0.203,0.128-0.309,0.128c-0.098,0-0.203-0.042-0.305-0.042s-0.203-0.049-0.305-0.049
			c-0.105,0-0.203,0.075-0.309,0.075c-0.098,0-0.203,0-0.305,0s-0.203,0.053-0.313,0.053c-0.105,0-0.203-0.233-0.309-0.233
			C35.642,34.935,35.607,35.108,35.502,35.108z M17.168,14.856c-0.038,0.086-0.271,0.113-0.312,0.203
			c0.083,0.034,0.342-0.053,0.425-0.008c0.083,0.042,0.15,0.105,0.229,0.143c0.09,0.038,0.158,0.086,0.249,0.086
			c0.098,0,0.195-0.154,0.293-0.154c0.102,0,0.199,0.072,0.297,0.072c0.098,0,0.196,0.049,0.293,0.049
			c0.102,0,0.199-0.008,0.297-0.008c0.098-0.007,0.199,0.113,0.297,0.113c0.098,0,0.203,0.068,0.301,0.068
			c0.098-0.007,0.188-0.222,0.286-0.226s0.203,0.128,0.301,0.128c0.098-0.008,0.2,0.09,0.297,0.083
			c0.098-0.003,0.192-0.188,0.29-0.192c0.098,0,0.196,0.034,0.301,0.026c0.098,0,0.196-0.146,0.293-0.146s0.196,0.109,0.293,0.109
			c0.102,0,0.203-0.135,0.301-0.135c0.105,0,0.196,0.346,0.301,0.354c0.102,0,0.2-0.064,0.301-0.06s0.203-0.196,0.308-0.196
			c0.098,0,0.196,0.034,0.301,0.034c0.102,0,0.195,0.177,0.297,0.18c0.102,0.004,0.207-0.255,0.305-0.255
			c0.105,0.003,0.196,0.259,0.293,0.263c0.105,0.003,0.203-0.019,0.305-0.019c0.102,0.004,0.203-0.154,0.304-0.15
			c0.105,0.008,0.203,0.094,0.302,0.094c0.098,0,0.195,0.124,0.293,0.124c0.105,0,0.211-0.256,0.313-0.252
			c0.102,0.003,0.195,0.124,0.297,0.124c0.105,0,0.203-0.06,0.301-0.053c0.105,0,0.207-0.038,0.305-0.03
			c0.102,0,0.192,0.286,0.29,0.286c0.105,0.007,0.21-0.229,0.309-0.226c0.104,0.003,0.203,0.038,0.301,0.045
			c0.102,0,0.203-0.03,0.301-0.022c0.105,0.004,0.195,0.098,0.301,0.105c0.098,0,0.196,0.022,0.301,0.03
			c0.102,0.004,0.195,0.068,0.297,0.068c0.102,0.007,0.203,0.007,0.305,0.015c0.105,0,0.219-0.181,0.32-0.173
			c0.102,0.004,0.199,0.121,0.301,0.128c0.102,0.008,0.199,0.128,0.297,0.136c0.105,0.011,0.222-0.203,0.323-0.196
			s0.188,0.256,0.29,0.263c0.102,0.008,0.222-0.218,0.319-0.21c0.105,0.007,0.199,0.128,0.301,0.128
			c0.102,0.007,0.2,0.053,0.302,0.06c0.104,0.007,0.218-0.158,0.315-0.15c0.105,0.007,0.211-0.049,0.313-0.042
			c0.102,0.008,0.207,0.034,0.305,0.042c0.105,0.007,0.188,0.263,0.286,0.271c0.104,0.007,0.222-0.229,0.323-0.222
			c0.105,0.007,0.203,0.004,0.309,0.011c0.098,0.008,0.188,0.181,0.293,0.188c0.102,0.008,0.211-0.131,0.313-0.128
			c0.102,0.004,0.207,0.038,0.305,0.042c0.09,0.004,0.143-0.045,0.233-0.064c0.086-0.022,0.188,0.053,0.274,0.022
			c0.086-0.03,0.207,0.038,0.297,0.008c0.083-0.03,0.222-0.075,0.309-0.102c-0.03-0.117-0.022-0.361-0.049-0.478
			c-0.102-0.015-0.298,0.049-0.396,0.041c-0.105-0.007-0.203-0.026-0.301-0.034c-0.105-0.007-0.195-0.06-0.301-0.071
			c-0.102-0.008-0.207,0.041-0.309,0.034c-0.105-0.007-0.218,0.177-0.315,0.169c-0.105-0.008-0.199-0.079-0.301-0.087
			c-0.102-0.007-0.203,0.038-0.305,0.03s-0.181-0.335-0.282-0.338c-0.105-0.008-0.223,0.241-0.324,0.233
			c-0.102-0.007-0.184-0.293-0.285-0.297c-0.102-0.008-0.203,0.003-0.309,0c-0.098-0.004-0.211,0.199-0.313,0.195
			c-0.102-0.003-0.191-0.237-0.289-0.237c-0.102-0.007-0.219,0.229-0.316,0.226c-0.105-0.003-0.195-0.113-0.301-0.117
			c-0.102-0.003-0.199-0.064-0.301-0.067c-0.102-0.004-0.211,0.248-0.316,0.244c-0.098-0.007-0.203,0.008-0.301,0.004
			c-0.102-0.004-0.191-0.331-0.289-0.334c-0.102-0.004-0.203-0.023-0.305-0.026c-0.099-0.004-0.211,0.278-0.309,0.278
			c-0.105-0.004-0.203-0.124-0.305-0.124c-0.102-0.008-0.199-0.045-0.305-0.045c-0.098,0-0.197-0.102-0.301-0.105
			c-0.102-0.003-0.203,0.094-0.305,0.094c-0.102-0.004-0.207,0.064-0.305,0.064c-0.105,0-0.203-0.105-0.301-0.113
			c-0.105,0-0.203-0.113-0.305-0.113s-0.203-0.008-0.305-0.008c-0.105,0-0.203,0.053-0.309,0.045c-0.102,0-0.203-0.045-0.301-0.049
			c-0.102,0-0.203,0.312-0.309,0.312c-0.098,0-0.196-0.113-0.301-0.113c-0.102,0-0.203,0.045-0.305,0.045s-0.207-0.015-0.305-0.015
			c-0.098,0-0.203-0.188-0.301-0.188s-0.203,0.128-0.305,0.128s-0.207,0.166-0.305,0.166s-0.203-0.042-0.301-0.042
			c-0.102,0-0.203-0.191-0.305-0.191s-0.203,0.154-0.305,0.158c-0.098,0-0.203-0.143-0.301-0.143c-0.105,0-0.207-0.131-0.309-0.131
			s-0.199,0.278-0.301,0.278c-0.105,0-0.203-0.049-0.309-0.049c-0.102,0-0.203,0.067-0.301,0.067c-0.102,0-0.203-0.15-0.309-0.15
			c-0.098,0-0.203-0.03-0.301-0.026c-0.105,0-0.207-0.003-0.305-0.003c-0.102,0-0.199,0.075-0.305,0.075
			c-0.098,0-0.196,0.128-0.301,0.128c-0.102,0-0.203-0.034-0.305-0.034s-0.203-0.041-0.305-0.041c-0.105,0-0.203,0.071-0.301,0.071
			c-0.105,0-0.207-0.004-0.304-0.004c-0.102,0-0.203,0.06-0.305,0.06c-0.098,0-0.203-0.237-0.301-0.237
			c-0.105,0-0.207-0.064-0.308-0.064C17.308,14.608,17.274,14.856,17.168,14.856z M26.136,13.795c0-0.098,0.232-0.113,0.232-0.21
			s-0.229-0.199-0.229-0.297c0-0.098,0.026-0.199,0.026-0.297c0-0.098,0.03-0.203,0.03-0.301c0-0.098-0.15-0.195-0.15-0.297
			c0-0.098,0.067-0.199,0.067-0.297c0-0.098,0.057-0.199,0.057-0.297c0-0.102-0.004-0.199-0.004-0.297
			c0-0.098,0.121-0.203,0.121-0.301c0-0.102,0.075-0.199,0.082-0.297c0-0.102-0.214-0.199-0.214-0.305
			c0-0.098,0.139-0.195,0.139-0.293c0.008-0.102,0.098-0.203,0.098-0.301c0-0.105-0.18-0.207-0.188-0.301
			c-0.008-0.113,0.008-0.218-0.038-0.293c-0.045-0.083-0.157-0.007-0.274-0.042c-0.079-0.019-0.139-0.131-0.26-0.12
			c-0.098,0.007-0.157,0.154-0.24,0.169c-0.098,0.026-0.309-0.264-0.384-0.222c-0.083,0.049-0.158,0.199-0.214,0.274
			c-0.05,0.072,0.094,0.233,0.075,0.335c-0.02,0.083-0.05,0.154-0.042,0.263c0,0.105-0.173,0.211-0.173,0.316
			c0,0.109,0.264,0.207,0.264,0.313c0,0.105-0.256,0.207-0.256,0.308c0,0.105,0.022,0.211,0.019,0.316
			c-0.004,0.105,0.154,0.211,0.154,0.316c-0.008,0.105-0.098,0.207-0.098,0.308c0,0.105-0.121,0.211-0.121,0.313
			c-0.003,0.105,0.256,0.214,0.256,0.316c0,0.109-0.12,0.207-0.12,0.312c0,0.113,0.061,0.21,0.061,0.305
			c0,0.117,0.045,0.207,0.053,0.297c0.011,0.127-0.241,0.293-0.211,0.376c0.045,0.105,0.286,0.038,0.392,0.068
			c0.075,0.022,0.15,0.064,0.278,0.056c0.086-0.004,0.18-0.049,0.293-0.064c0.09-0.011,0.203,0.06,0.316,0.038
			C26.023,13.935,26.023,13.818,26.136,13.795z M24.684,37.951c0,0.099-0.271,0.188-0.275,0.278c-0.003,0.099,0.222,0.2,0.222,0.294
			c-0.008,0.094-0.038,0.185-0.041,0.278c0,0.094-0.034,0.185-0.034,0.278c0.008,0.094,0.165,0.173,0.173,0.264
			c0.008,0.094-0.053,0.18-0.037,0.274c0.019,0.094,0.015,0.161,0.108,0.244c0.075,0.064,0.166,0.12,0.256,0.181
			c0.091,0.063,0.154,0.237,0.229,0.305c0.041-0.079,0.203-0.154,0.244-0.233c0.042-0.079-0.102-0.252-0.063-0.335
			c0.041-0.082,0.203-0.112,0.222-0.203c0.019-0.082,0.079-0.24,0.049-0.338c-0.033-0.091-0.248-0.124-0.248-0.215
			c-0.008-0.105,0.022-0.214,0.019-0.319s-0.154-0.211-0.157-0.32c-0.004-0.104,0.102-0.218,0.102-0.327
			c-0.008-0.105-0.144-0.21-0.151-0.315c0-0.105,0.339-0.223,0.339-0.331c0-0.105-0.067-0.211-0.067-0.32
			c-0.008-0.104-0.203-0.21-0.203-0.319c-0.008-0.105,0.022-0.215,0.015-0.319c0-0.113,0.188-0.223,0.188-0.335
			c0.008-0.12-0.248-0.188-0.286-0.29c-0.015-0.041,0.03-0.244-0.083-0.26c-0.098-0.015-0.278,0.03-0.323,0.064
			c-0.086,0.063-0.061,0.264-0.128,0.365c-0.063,0.102-0.188,0.177-0.203,0.278c-0.008,0.094-0.128,0.184-0.131,0.274
			c-0.004,0.094,0.255,0.199,0.251,0.289c0,0.098-0.12,0.188-0.12,0.278c0,0.098,0.067,0.188,0.067,0.278
			c0,0.099,0.046,0.188,0.046,0.286C24.672,37.764,24.684,37.861,24.684,37.951z"/>
	</g>
</g>
</svg>
