<?xml version="1.0" encoding="utf-8"?>
<!-- Generator: Adobe Illustrator 16.0.0, SVG Export Plug-In . SVG Version: 6.00 Build 0)  -->
<!DOCTYPE svg PUBLIC "-//W3C//DTD SVG 1.1//EN" "http://www.w3.org/Graphics/SVG/1.1/DTD/svg11.dtd">
<svg version="1.1" id="圖層_1" xmlns="http://www.w3.org/2000/svg" xmlns:xlink="http://www.w3.org/1999/xlink" x="0px" y="0px"
	 width="55px" height="55px" viewBox="0 0 55 55" enable-background="new 0 0 55 55" xml:space="preserve">
<g>
	<path d="M40.917,46.242v2.59c-0.01,2.273-1.354,3.668-3.569,3.668H11.035c-2.163,0-3.535-1.421-3.535-3.659V12.426
		c0-2.274,1.364-3.667,3.569-3.667h3.013c0-0.477,0.018-0.917,0-1.349c-0.104-2.724,2.075-4.881,4.664-4.89
		c8.033-0.027,16.065-0.027,24.098,0C45.512,2.529,47.5,4.677,47.5,7.418v33.926c0,2.724-1.98,4.818-4.612,4.898
		C42.255,46.26,41.628,46.242,40.917,46.242L40.917,46.242z M37.895,30.629V12.57c0-0.456-0.214-0.683-0.642-0.683H11.174
		c-0.434,0-0.651,0.228-0.651,0.683v36.127c0,0.454,0.217,0.683,0.651,0.683h26.079c0.428,0,0.642-0.229,0.642-0.683V30.629z
		 M17.113,8.75h20.338c1.147,0,2.085,0.405,2.797,1.339c0.53,0.701,0.678,1.51,0.678,2.382c-0.009,10.005-0.009,20.011-0.009,30.015
		v0.639h1.676c1.242-0.01,1.885-0.674,1.885-1.95V15.402c0-2.688-0.009-5.367,0-8.055c0-0.628-0.226-1.141-0.765-1.402
		c-0.382-0.189-0.834-0.297-1.259-0.297C34.672,5.63,26.892,5.639,19.111,5.639c-0.156,0-0.312-0.009-0.469,0.009
		c-0.798,0.09-1.467,0.657-1.52,1.357C17.087,7.554,17.113,8.129,17.113,8.75L17.113,8.75z"/>
	<path fill="#FFFFFF" d="M37.895,30.629v18.059c0,0.454-0.214,0.683-0.642,0.683H11.174c-0.643,0-0.651,0-0.651-0.683V12.561
		c0-0.456,0.217-0.684,0.651-0.684h26.079c0.428,0,0.642,0.228,0.642,0.684V30.629z M24.477,23.59h6.973
		c1.025,0,1.721-0.647,1.712-1.582c-0.009-0.917-0.695-1.537-1.702-1.537H17.513c-0.191,0-0.382,0-0.555,0.053
		c-0.739,0.189-1.225,0.908-1.139,1.681c0.078,0.8,0.729,1.393,1.555,1.393c2.362,0,4.733,0,7.103,0V23.59z M24.46,29.847h7.069
		c0.703,0,1.224-0.297,1.502-0.962c0.451-1.052-0.305-2.165-1.468-2.165c-3.204-0.01-6.408,0-9.613,0h-4.568
		c-0.676,0-1.18,0.314-1.458,0.952c-0.451,1.051,0.304,2.167,1.468,2.167C19.753,29.847,22.107,29.847,24.46,29.847z M24.425,36.095
		h7.017c1.024,0,1.72-0.648,1.711-1.582c-0.009-0.918-0.695-1.547-1.703-1.547H17.504c-0.191,0-0.382,0-0.556,0.046
		c-0.738,0.188-1.225,0.907-1.146,1.68c0.078,0.801,0.729,1.395,1.554,1.395C19.719,36.095,22.072,36.095,24.425,36.095z"/>
	<path fill="#FFFFFF" d="M17.113,8.75c0-0.621-0.034-1.196,0.009-1.753c0.053-0.692,0.721-1.268,1.52-1.357
		c0.157-0.019,0.313-0.009,0.469-0.009c7.781,0,15.561-0.01,23.343,0.009c0.425,0,0.877,0.108,1.259,0.297
		c0.53,0.261,0.765,0.772,0.765,1.402c-0.009,2.688,0,5.366,0,8.054v25.771c0,1.276-0.643,1.942-1.885,1.951h-1.676v-0.638
		c0-10.006,0-20.01,0.009-30.015c0-0.872-0.147-1.681-0.678-2.382c-0.712-0.935-1.649-1.339-2.797-1.339
		c-6.573,0.009-13.139,0-19.713,0C17.556,8.75,17.365,8.75,17.113,8.75L17.113,8.75z"/>
	<path d="M24.477,23.59c-2.37,0-4.74,0.009-7.112,0c-0.825,0-1.477-0.593-1.554-1.393c-0.078-0.773,0.399-1.492,1.137-1.681
		c0.183-0.044,0.374-0.053,0.556-0.053H31.45c1.008,0,1.694,0.62,1.703,1.537c0.009,0.943-0.678,1.582-1.711,1.582
		c-2.318,0.018-4.637,0-6.965,0V23.59z"/>
	<path d="M24.46,29.847c-2.354,0-4.715,0.009-7.069,0c-1.164,0-1.919-1.115-1.468-2.167c0.278-0.647,0.773-0.952,1.458-0.952h14.181
		c1.163,0,1.919,1.124,1.468,2.167c-0.286,0.664-0.808,0.96-1.502,0.96C29.175,29.838,26.822,29.847,24.46,29.847z"/>
	<path d="M24.425,36.095c-2.353,0-4.715,0.009-7.068,0c-0.825,0-1.477-0.594-1.554-1.395c-0.079-0.772,0.399-1.492,1.146-1.68
		c0.182-0.046,0.374-0.046,0.556-0.046H31.45c1.008,0,1.694,0.631,1.703,1.547c0.009,0.942-0.678,1.582-1.711,1.582
		C29.106,36.095,26.771,36.095,24.425,36.095z"/>
</g>
<g>
</g>
<g>
</g>
<g>
</g>
<g>
</g>
<g>
</g>
<g>
</g>
<g>
</g>
<g>
</g>
<g>
</g>
<g>
</g>
<g>
</g>
<g>
</g>
<g>
</g>
<g>
</g>
<g>
</g>
</svg>
