<?xml version="1.0" encoding="utf-8"?>
<!-- Generator: Adobe Illustrator 16.0.0, SVG Export Plug-In . SVG Version: 6.00 Build 0)  -->
<!DOCTYPE svg PUBLIC "-//W3C//DTD SVG 1.1//EN" "http://www.w3.org/Graphics/SVG/1.1/DTD/svg11.dtd">
<svg version="1.1" id="圖層_1" xmlns="http://www.w3.org/2000/svg" xmlns:xlink="http://www.w3.org/1999/xlink" x="0px" y="0px"
	 width="55px" height="55px" viewBox="0 0 55 55" enable-background="new 0 0 55 55" xml:space="preserve">
<g>
	<path fill="#E29267" d="M16.828,10.57c0.484,0.541,0.873,1.022,1.308,1.451c0.273,0.261,0.585,0.557,0.934,0.652
		c0.94,0.261,1.612,0.201,1.964-1.049c0.514-1.847,1.358-3.606,2.065-5.397c0.271-0.686,0.529-1.379,0.832-2.048
		c0.062-0.145,0.354-0.329,0.425-0.289c0.215,0.121,0.477,0.313,0.53,0.521c0.189,0.708,0.297,1.442,0.439,2.16
		c0.064,0.325,0.064,0.693,0.219,0.969c1.012,1.815,1.876,2.284,3.335,0.733c0.717-0.761,1.267-1.699,1.86-2.577
		c0.287-0.429,0.507-0.902,0.752-1.347c0.281,1.119,0.409,2.216,0.851,3.162c0.245,0.521,0.993,1.034,1.569,1.11
		c0.806,0.108,1.756,0.012,2.081-1.086c0.104-0.361,0.355-0.682,0.445-0.833c0.508,0.521,0.9,1.098,1.449,1.431
		c0.55,0.328,1.251,0.412,2.204,0.697c0.481,1.214,0.626,2.833,0.635,4.452c0,0.553,0,0.954,0.358,1.418
		c0.497,0.65,0.868,1.41,1.324,2.192c0.465-0.333,0.869-0.629,1.27-0.917c0.125,0.031,0.236,0.061,0.36,0.088
		c0.06,3.133,0.148,6.263,0.173,9.393c0.009,1.266,0.016,2.565-0.24,3.787c-0.248,1.207-0.807,2.32-1.447,3.443
		c-1.415,2.484-3.987,2.989-6.155,4.106c-2.516,1.29-5.285,0.813-7.966,0.304c-1.366-0.26-2.712-0.667-4.087-0.855
		c-1.369-0.187-2.763-0.157-4.147-0.253c-2.817-0.201-5.45-0.963-7.414-3.09c-2.057-2.229-2.466-5.375-0.988-8.195
		c2.258-4.304,4.26-8.692,4.799-13.601C16.596,10.979,16.688,10.871,16.828,10.57z"/>
	<path fill="#F6D0AF" d="M31.172,42.925c-0.562,0.778-0.71,1.021,0.016,1.483c2.3,1.471,4.952,1.951,7.433,2.904
		c0.485,0.187,1.327,0.137,1.198,1.011c-0.016,0.071-0.925,0.071-1.406,0.007c-4.588-0.632-8.74-2.76-13.199-3.858
		c-2.498-0.614-5.033-0.709-7.548-1.033c-3.198-0.417-6.426-0.59-9.631-0.941c-1.675-0.185-3.326-0.541-4.993-0.81
		c-0.677-0.109-0.965-0.482-0.95-1.17c0.012-0.667-0.226-1.387-0.046-1.988c0.331-1.09,0.64-2.453,1.44-3.037
		c0.646-0.474,1.993-0.873,3.055-0.137c0.205,0.144,0.509,0.312,0.709,0.256c2.035-0.593,4.067-0.128,6.057,0.125
		c6.286,0.801,12.547,1.775,18.828,2.637c4.2,0.576,8.408,1.11,12.619,1.591c2.021,0.236,4.054,0.353,6.079,0.44
		c1.836,0.081,2.429,0.773,1.983,2.553c-0.201,0.806-0.38,1.628-0.733,2.359c-0.137,0.273-0.725,0.378-1.126,0.458
		c-0.48,0.104-0.981,0.112-1.475,0.128c-0.766,0.039-1.538,0.14-2.297,0.064c-2.685-0.265-5.366-0.616-8.054-0.894
		c-0.857-0.089-1.73-0.031-2.598-0.08c-0.428-0.024-0.89-0.06-1.266-0.229c-0.521-0.232-0.929-0.248-1.527-0.173
		c-0.652,0.088-1.417-0.564-2.107-0.942C31.461,43.562,31.38,43.274,31.172,42.925z"/>
	<path fill="#FBEED3" d="M26.437,46.025c-0.435,0.239-0.855,0.506-1.305,0.711c-0.693,0.32-1.397,0.616-2.118,0.889
		c-1.22,0.461-2.454,0.892-3.683,1.327c-0.126,0.044-0.272,0.044-0.376,0.111c-0.782,0.49-1.521,1.071-2.344,1.468
		c-1.382,0.67-2.818,1.245-4.255,1.799c-0.193,0.072-0.682-0.169-0.786-0.38c-0.693-1.452-1.274-2.954-1.993-4.39
		c-0.266-0.537-0.782-0.96-1.236-1.377c-0.265-0.242-0.639-0.361-0.966-0.533c0.104-0.104,0.208-0.209,0.313-0.313
		c1.095-0.493,2.194-0.981,3.293-1.463c0.084-0.039,0.23-0.053,0.293-0.009c1.016,0.779,2.105,0.112,3.155,0.192
		c1.501,0.116,2.98,0.441,4.476,0.598c1.64,0.173,3.294,0.2,4.933,0.389c0.84,0.097,1.659,0.394,2.49,0.598
		C26.367,45.771,26.405,45.896,26.437,46.025z"/>
	<path fill="#FBEED3" d="M36,37.96c1.734-0.913,3.146-1.735,4.628-2.408c1.672-0.762,2.59-2.156,3.39-3.676
		c0.551-1.042,1.487-1.434,2.541-1.481c1.098-0.048,1.723,0.834,1.761,2.145c0.007,0.348,0.2,0.685,0.309,1.028
		c0.055,0.185,0.115,0.369,0.184,0.545c0.16,0.428,0.233,0.923,0.496,1.268c0.547,0.729,0.57,1.117-0.263,1.475
		c-0.927,0.4-1.917,0.64-2.878,0.949c-0.032,0.012-0.072,0-0.096,0.021c-2.173,1.609-4.55,0.741-6.861,0.562
		C38.228,38.313,37.251,38.129,36,37.96z"/>
	<path fill="#FBEED3" d="M6.717,46.175c2.597,1.178,2.706,3.985,4.16,6.088C8.917,51.833,5.889,47.186,6.717,46.175z"/>
	<path fill="#EB6668" d="M19.483,16.91c0.38,0.429,0.681,0.797,1.02,1.134c0.208,0.208,0.455,0.44,0.727,0.512
		c0.731,0.201,1.258,0.161,1.53-0.825c0.401-1.438,1.056-2.813,1.609-4.215c0.208-0.534,0.413-1.074,0.647-1.599
		c0.05-0.109,0.276-0.257,0.33-0.229c0.167,0.097,0.367,0.245,0.413,0.408c0.146,0.553,0.231,1.123,0.343,1.688
		c0.05,0.253,0.05,0.542,0.172,0.757c0.79,1.419,1.462,1.783,2.595,0.57c0.563-0.594,0.99-1.327,1.451-2.012
		c0.226-0.336,0.393-0.701,0.586-1.054c0.22,0.874,0.32,1.731,0.666,2.473c0.183,0.405,0.769,0.806,1.222,0.866
		c0.62,0.08,1.366,0.007,1.613-0.85c0.089-0.281,0.281-0.529,0.354-0.653c0.392,0.405,0.706,0.861,1.126,1.118
		c0.43,0.256,0.978,0.32,1.72,0.544c0.376,0.95,0.488,2.216,0.497,3.479c0,0.433,0,0.745,0.279,1.105
		c0.393,0.505,0.674,1.099,1.031,1.716c0.362-0.265,0.676-0.49,0.989-0.714c0.096,0.02,0.192,0.044,0.28,0.064
		c0.052,2.445,0.12,4.897,0.136,7.341c0.01,0.986,0.013,2.005-0.184,2.958c-0.2,0.944-0.634,1.81-1.127,2.688
		c-1.098,1.943-3.105,2.34-4.796,3.208c-1.964,1.012-4.119,0.635-6.203,0.243c-1.066-0.209-2.116-0.525-3.186-0.675
		c-1.066-0.145-2.151-0.124-3.23-0.2c-2.194-0.152-4.244-0.744-5.776-2.411c-1.601-1.735-1.919-4.192-0.77-6.397
		c1.759-3.362,3.318-6.792,3.736-10.627C19.298,17.226,19.37,17.146,19.483,16.91z"/>
	<path fill="#F28A2C" d="M24.259,25.738c0.208,0.232,0.369,0.432,0.554,0.617c0.111,0.112,0.246,0.236,0.392,0.276
		c0.397,0.109,0.682,0.084,0.828-0.445c0.217-0.786,0.574-1.526,0.875-2.288c0.113-0.292,0.225-0.584,0.349-0.87
		c0.029-0.056,0.149-0.136,0.181-0.12c0.092,0.047,0.2,0.136,0.224,0.22c0.081,0.301,0.128,0.613,0.185,0.918
		c0.031,0.136,0.024,0.288,0.092,0.408c0.427,0.77,0.792,0.97,1.407,0.313c0.304-0.329,0.536-0.721,0.785-1.089
		c0.123-0.181,0.22-0.381,0.324-0.574c0.117,0.477,0.172,0.942,0.356,1.343c0.104,0.22,0.421,0.437,0.665,0.473
		c0.341,0.044,0.744,0,0.882-0.461c0.045-0.148,0.149-0.285,0.185-0.353c0.216,0.22,0.386,0.469,0.613,0.605
		c0.231,0.145,0.527,0.176,0.934,0.296c0.2,0.517,0.261,1.206,0.265,1.888c0,0.236,0,0.405,0.152,0.601
		c0.211,0.276,0.36,0.597,0.561,0.925c0.192-0.141,0.364-0.261,0.537-0.385c0.048,0.012,0.101,0.024,0.152,0.036
		c0.023,1.325,0.061,2.657,0.067,3.979c0.004,0.538,0.013,1.087-0.101,1.604c-0.104,0.512-0.344,0.986-0.609,1.458
		c-0.597,1.058-1.682,1.275-2.6,1.739c-1.063,0.549-2.231,0.344-3.362,0.132c-0.577-0.108-1.146-0.284-1.727-0.364
		c-0.577-0.081-1.172-0.065-1.751-0.107c-1.192-0.084-2.303-0.406-3.132-1.311c-0.869-0.942-1.04-2.276-0.418-3.472
		c0.954-1.824,1.803-3.687,2.028-5.771C24.159,25.91,24.197,25.866,24.259,25.738z"/>
	<g>
		<g>
			<path d="M42.824,15.568c0.04-0.097,0.129-0.208,0.169-0.3c0.04-0.092,0.204-0.137,0.248-0.229c0.04-0.096-0.121-0.285-0.08-0.381
				c0.04-0.096,0.304-0.088,0.353-0.18c0.04-0.093-0.116-0.272-0.073-0.369c0.041-0.096,0.01-0.316,0.055-0.413
				c0.105-0.008,0.282,0.236,0.379,0.256c0.107,0.021,0.137,0.092,0.224,0.145c0.089,0.052,0.089,0.092,0.152,0.177
				c0.057,0.08,0.065,0.112,0.101,0.216c0.028,0.093,0.285,0.132,0.293,0.245c0.005,0.108-0.048,0.22-0.048,0.325
				c0.007,0.107-0.165,0.228-0.161,0.332c0.005,0.112,0.104,0.212,0.109,0.321c0.004,0.108,0.217,0.204,0.22,0.313
				c0.008,0.108-0.12,0.224-0.115,0.328c0.004,0.112,0.019,0.216,0.027,0.324c0.008,0.104,0.232,0.204,0.235,0.313
				c0.006,0.109-0.349,0.229-0.343,0.341c0.004,0.104,0,0.217,0.004,0.324c0.007,0.109,0,0.217,0.007,0.325
				c0,0.112,0.023,0.217,0.033,0.32c0,0.112,0.175,0.208,0.183,0.321c0,0.108-0.139,0.22-0.135,0.329
				c0.003,0.112-0.041,0.216-0.036,0.328c0.004,0.104,0.008,0.216,0.012,0.324c0.003,0.108-0.017,0.217-0.012,0.325
				c0.004,0.112,0.364,0.208,0.372,0.313c0,0.104-0.209,0.224-0.209,0.332c0.008,0.107,0.008,0.216,0.018,0.324
				c0,0.113,0.051,0.217,0.056,0.321c0.007,0.112,0.119,0.216,0.119,0.32c0.009,0.107-0.039,0.216-0.039,0.325
				c0.004,0.107-0.169,0.22-0.16,0.333c0,0.108,0.279,0.205,0.289,0.313c0,0.108-0.017,0.216-0.01,0.324
				c0,0.108,0.049,0.212,0.053,0.325c0.005,0.104-0.228,0.221-0.228,0.329c0.007,0.107,0.095,0.212,0.095,0.32
				c0.009,0.112-0.185,0.224-0.185,0.328c0.01,0.113,0.032,0.217,0.037,0.325c0.005,0.109,0.268,0.208,0.271,0.317
				c0.005,0.112,0.046,0.216,0.054,0.32c0,0.112-0.145,0.221-0.145,0.329c0.003,0.109-0.113,0.217-0.113,0.325
				c0,0.108,0.113,0.212,0.116,0.325c0,0.104-0.044,0.216-0.044,0.324c0,0.104,0.121,0.208,0.121,0.313
				c0,0.104-0.237,0.201-0.241,0.305c-0.004,0.108,0.337,0.228,0.328,0.332c0,0.104-0.036,0.208-0.043,0.313
				c-0.008,0.104-0.285,0.188-0.292,0.289c-0.008,0.1,0.08,0.216,0.066,0.317c-0.012,0.104-0.074,0.2-0.084,0.305
				c-0.007,0.107,0.145,0.222,0.138,0.325c-0.014,0.111-0.073,0.199-0.073,0.288c0,0.12-0.024,0.215-0.016,0.296
				c0.023,0.116,0.041,0.225,0.104,0.281c0.065,0.06,0.17,0.104,0.289,0.104c0.089,0,0.184-0.023,0.297-0.051
				c0.089-0.021,0.178-0.081,0.28-0.114c0.104-0.035,0.252,0.101,0.356,0.069c0.102-0.024,0.201-0.057,0.302-0.084
				c0.099-0.028,0.135-0.302,0.239-0.326c0.104-0.025,0.248,0.134,0.353,0.113c0.104-0.023,0.217,0.053,0.32,0.036
				c0.116-0.016,0.214-0.38,0.318-0.373c0.111,0.009,0.146,0.361,0.243,0.394c0.104,0.039,0.269-0.085,0.353-0.024
				c0.089,0.063,0.033,0.249,0.104,0.337c0.063,0.077,0.305,0.039,0.353,0.14c0.049,0.093-0.145,0.277-0.113,0.385
				c0.037,0.101,0.267,0.14,0.291,0.253c0.015,0.104,0.11,0.208,0.123,0.313c0.007,0.111-0.265,0.248-0.252,0.356
				c0.016,0.108,0.252,0.185,0.271,0.293c0.021,0.112-0.039,0.232-0.017,0.336c0.023,0.104,0.153,0.185,0.187,0.289
				c0.025,0.107,0.175,0.177,0.203,0.28c0.027,0.104-0.269,0.309-0.236,0.413c0.035,0.104,0.217,0.156,0.256,0.261
				c0.042,0.104,0.057,0.208,0.097,0.313c0.039,0.104,0.032,0.224,0.064,0.323c0.04,0.101,0.044,0.217,0.089,0.316
				c0.043,0.113,0.104,0.201,0.144,0.305c0.048,0.104,0.176,0.173,0.217,0.269c0.039,0.108-0.064,0.269-0.028,0.37
				c0.044,0.107,0.332,0.12,0.363,0.221c0.041,0.112,0.081,0.223,0.112,0.327c0.033,0.117-0.119,0.265-0.1,0.369
				c0.017,0.121,0.076,0.226,0.061,0.325c-0.008,0.112-0.08,0.199-0.128,0.301c-0.05,0.091-0.064,0.211-0.145,0.3
				c-0.068,0.067-0.232,0.044-0.329,0.116c-0.08,0.063-0.212,0.056-0.313,0.121c-0.084,0.059-0.056,0.295-0.159,0.358
				c-0.088,0.059-0.192,0.098-0.289,0.157c-0.097,0.052-0.104,0.26-0.201,0.317c-0.095,0.056-0.304-0.089-0.4-0.032
				c-0.097,0.052-0.216,0.071-0.316,0.12c-0.101,0.048-0.177,0.143-0.281,0.192c-0.1,0.048-0.147,0.225-0.252,0.272
				c-0.096,0.04-0.265-0.072-0.369-0.031c-0.104,0.042-0.136,0.265-0.24,0.304c-0.107,0.044-0.327-0.22-0.432-0.178
				c-0.101,0.038-0.146,0.243-0.25,0.282c-0.104,0.044-0.168,0.184-0.272,0.224c-0.104,0.04-0.317,0.013-0.422,0.057
				c0.126,0.008,0.291,0.145,0.396,0.156c0.124,0.011,0.229,0.068,0.331,0.08c0.121,0.012,0.242-0.069,0.345-0.052
				c0.12,0.008,0.232-0.089,0.344-0.089c0.113,0.009,0.214,0.132,0.321,0.136c0.108,0.005,0.217-0.087,0.328-0.084
				c0.104,0.004,0.208,0.148,0.313,0.148c0.114,0.009,0.223-0.008,0.327-0.008c0.106,0,0.211,0.023,0.323,0.023
				c0.104,0.009,0.208,0.057,0.321,0.064c0.104,0,0.224-0.336,0.332-0.333c0.107,0.005,0.208,0.157,0.315,0.165
				c0.113,0.008,0.218-0.008,0.321,0c0.112,0.008,0.217,0.061,0.321,0.071c0.107,0.009,0.209,0.08,0.316,0.089
				c0.108,0.008,0.221-0.097,0.331-0.08c0.104,0.008,0.194,0.172,0.306,0.185c0.109,0.015,0.216-0.028,0.32-0.017
				c0.113,0.013,0.266-0.145,0.377-0.107c0.108,0.035,0.161,0.235,0.265,0.28c0.104,0.043,0.191,0.123,0.296,0.182
				c0.098,0.055,0.193,0.107,0.298,0.166c0.095,0.058,0.323-0.104,0.425-0.042c0.1,0.06,0.031,0.408,0.135,0.467
				c0.08,0.049,0.298-0.055,0.362,0.057c0.063,0.104-0.032,0.245-0.04,0.336c-0.018,0.108,0.216,0.242,0.203,0.354
				c-0.012,0.104-0.365,0.183-0.372,0.287c-0.008,0.112-0.023,0.222-0.04,0.331c-0.009,0.105,0.145,0.23,0.132,0.343
				c-0.012,0.112-0.108,0.209-0.124,0.321c-0.008,0.107,0.104,0.231,0.088,0.34c-0.009,0.107-0.129,0.204-0.144,0.316
				c-0.012,0.104,0.056,0.229,0.039,0.338c-0.008,0.107-0.008,0.219-0.024,0.327c-0.015,0.113-0.107,0.208-0.124,0.313
				c-0.015,0.113,0.062,0.232,0.044,0.342c-0.015,0.106,0.104,0.244,0.09,0.349c-0.024,0.111-0.072,0.216-0.098,0.323
				c-0.02,0.104-0.216,0.185-0.271,0.297c-0.049,0.104-0.009,0.279-0.089,0.377c-0.073,0.095-0.182,0.185-0.269,0.261
				c-0.098,0.08-0.286,0-0.386,0.036c-0.104,0.037-0.205,0.08-0.309,0.116c-0.104,0.04-0.239-0.031-0.348,0
				c-0.104,0.031-0.188,0.129-0.293,0.16c-0.104,0.027-0.168,0.225-0.272,0.247c-0.113,0.025-0.192,0.17-0.304,0.192
				c-0.109,0.017-0.266-0.212-0.369-0.192c-0.112,0.019-0.209,0.077-0.325,0.089c-0.108,0.009-0.221-0.089-0.331-0.08
				c-0.104,0-0.226,0.325-0.338,0.322c-0.109-0.004-0.193-0.37-0.305-0.382c-0.108-0.012-0.232,0.148-0.345,0.132
				c-0.104-0.012-0.229,0.128-0.337,0.111c-0.106-0.007-0.2-0.192-0.309-0.199c-0.108-0.008-0.219,0.045-0.333,0.032
				c-0.104-0.007-0.209-0.076-0.317-0.08c-0.106-0.008-0.228,0.188-0.339,0.177c-0.104-0.01-0.202-0.289-0.305-0.296
				c-0.104-0.01-0.229,0.199-0.333,0.199c-0.107-0.007-0.208-0.172-0.313-0.176c-0.107-0.005-0.207-0.128-0.315-0.137
				c-0.112,0-0.224,0.201-0.338,0.201c-0.108-0.009-0.222,0.111-0.327,0.111c-0.113-0.007-0.209-0.199-0.313-0.199
				c-0.112-0.01-0.217-0.01-0.328-0.017c-0.108,0-0.226,0.184-0.334,0.176c-0.106-0.005-0.204-0.193-0.315-0.196
				c-0.104-0.004-0.224,0.14-0.333,0.132c-0.108-0.007-0.188-0.373-0.296-0.377c-0.108-0.007-0.245,0.317-0.349,0.306
				c-0.113-0.017-0.192-0.281-0.306-0.288c-0.104-0.009-0.212-0.058-0.324-0.069c-0.107-0.013-0.236,0.132-0.34,0.116
				c-0.111-0.012-0.232,0.076-0.341,0.064c-0.108-0.013-0.205-0.145-0.313-0.159c-0.108-0.015-0.222-0.015-0.333-0.025
				c-0.104-0.012-0.221,0.004-0.327-0.009c-0.108-0.016-0.188-0.24-0.298-0.255c-0.108-0.02-0.224,0.039-0.337,0.024
				c-0.112-0.018-0.237,0.08-0.345,0.063c-0.108-0.017-0.24,0.136-0.354,0.12c-0.106-0.009-0.176-0.281-0.287-0.288
				c-0.112-0.017-0.236,0.064-0.344,0.046c-0.113-0.015-0.218-0.063-0.322-0.083c-0.111-0.016-0.199-0.188-0.304-0.204
				c-0.113-0.016-0.273,0.36-0.386,0.346c-0.104-0.018-0.087-0.054-0.2-0.069c-0.023,0.088-0.124-0.028-0.148,0.06
				c0.12,0.049,0.262,0,0.381,0.049c0.125,0.048,0.258,0.056,0.378,0.104c0.104,0.041,0.104,0.345,0.208,0.38
				c0.104,0.038,0.192,0.104,0.3,0.143c0.104,0.039,0.297-0.186,0.401-0.146c0.104,0.041,0.12,0.297,0.229,0.336
				c0.095,0.045,0.232,0.008,0.327,0.053c0.098,0.044,0.146,0.188,0.242,0.235c0.096,0.054,0.232,0.024,0.328,0.081
				c0.08,0.052,0.225,0.048,0.305,0.128c0.072,0.073,0.232,0.097,0.302,0.177c0.059,0.089,0.05,0.244,0.099,0.333
				c0.056,0.095-0.025,0.253,0.004,0.342c0.044,0.119,0.112,0.215,0.075,0.287c-0.039,0.104,0.01,0.275-0.055,0.377
				c-0.064,0.097-0.249,0.111-0.337,0.195c-0.075,0.085-0.049,0.346-0.148,0.406c-0.096,0.063-0.349-0.192-0.461-0.157
				c-0.111,0.032-0.185,0.237-0.305,0.237c-0.108,0.004-0.199-0.178-0.323-0.205c-0.104-0.02-0.201-0.08-0.302-0.099
				c-0.104-0.021-0.269,0.278-0.373,0.259c-0.104-0.02-0.172-0.22-0.276-0.24c-0.104-0.019-0.168-0.226-0.275-0.245
				c-0.104-0.023-0.276,0.353-0.381,0.333c-0.109-0.021-0.145-0.373-0.248-0.397c-0.105-0.019-0.258,0.226-0.362,0.206
				c-0.104-0.02-0.215,0.02-0.319,0s-0.146-0.366-0.25-0.385c-0.104-0.021-0.248,0.176-0.352,0.157
				c-0.104-0.025-0.225,0.046-0.329,0.021c-0.104-0.019-0.195-0.087-0.3-0.106c-0.104-0.02-0.173-0.209-0.269-0.228
				c-0.108-0.025-0.212-0.034-0.313-0.059c-0.101-0.023-0.188-0.107-0.289-0.135c-0.101-0.025-0.264,0.175-0.36,0.147
				c-0.104-0.027-0.229-0.013-0.327-0.044c-0.103-0.033-0.162-0.201-0.258-0.241c-0.096-0.035-0.185-0.096-0.28-0.14
				c-0.097-0.044-0.185-0.116-0.28-0.16s-0.141-0.192-0.232-0.237c-0.096-0.046-0.28,0.109-0.377,0.065
				c-0.097-0.049-0.141-0.2-0.235-0.244c-0.098-0.045-0.254,0.044-0.351-0.006c-0.096-0.039-0.144-0.188-0.24-0.223
				c-0.096-0.045-0.137-0.229-0.241-0.264c-0.104-0.041-0.215-0.063-0.319-0.094c-0.104-0.036-0.264,0.097-0.372,0.06
				c-0.104-0.031-0.242,0.045-0.351,0.009c-0.104-0.033-0.104-0.425-0.206-0.456c-0.104-0.033-0.257,0.079-0.361,0.046
				c-0.113-0.026-0.232,0.025-0.347-0.007c-0.106-0.027-0.199-0.112-0.303-0.139c-0.108-0.028-0.257,0.126-0.368,0.104
				c-0.108-0.027-0.218-0.037-0.325-0.064c-0.092-0.021-0.169-0.325-0.272-0.317c-0.097,0.012-0.236-0.015-0.333,0.012
				c-0.096,0.03-0.185,0.149-0.269,0.185c-0.096,0.045-0.08,0.351-0.176,0.397c-0.097,0.039-0.341-0.249-0.437-0.209
				c-0.096,0.039-0.068,0.385-0.165,0.425c-0.096,0.046-0.2,0.072-0.301,0.111c-0.095,0.046-0.238-0.007-0.333,0.033
				c-0.096,0.04-0.155,0.176-0.25,0.221c-0.097,0.043-0.319-0.204-0.415-0.165c-0.096,0.044-0.185,0.113-0.281,0.153
				c-0.096,0.04-0.128,0.239-0.225,0.283c-0.096,0.045-0.176,0.125-0.276,0.164c-0.096,0.044-0.277-0.104-0.377-0.063
				c-0.096,0.042-0.163,0.161-0.258,0.201c-0.096,0.04-0.201,0.076-0.297,0.115c-0.096,0.045-0.096,0.316-0.192,0.361
				c-0.096,0.044-0.3-0.164-0.396-0.124c-0.096,0.044-0.176,0.128-0.277,0.168c-0.096,0.044-0.162,0.156-0.262,0.199
				c-0.101,0.042-0.143,0.202-0.243,0.243c-0.1,0.039-0.285-0.13-0.384-0.085c-0.1,0.044-0.104,0.288-0.204,0.332
				c-0.096,0.04-0.272-0.088-0.369-0.044c-0.096,0.044-0.226,0.016-0.323,0.061c-0.096,0.044-0.074,0.356-0.17,0.4
				c-0.096,0.04-0.268-0.081-0.365-0.032c-0.096,0.043-0.258-0.056-0.354-0.016c-0.097,0.04-0.071,0.348-0.171,0.392
				c-0.096,0.049-0.238-0.008-0.334,0.041c-0.097,0.043-0.165,0.152-0.261,0.199c-0.097,0.044-0.201,0.072-0.296,0.117
				c-0.096,0.044-0.166,0.148-0.258,0.192c-0.093,0.044-0.301-0.133-0.397-0.084c-0.096,0.047-0.214,0.047-0.31,0.096
				c-0.097,0.048-0.083,0.328-0.179,0.377c-0.101,0.048-0.16,0.18-0.26,0.224c-0.101,0.048-0.216,0.055-0.317,0.098
				c-0.1,0.047-0.327-0.192-0.427-0.153c-0.1,0.049-0.129,0.245-0.23,0.288c-0.1,0.044-0.124,0.265-0.224,0.305
				c-0.1,0.039-0.252-0.031-0.353,0.013c-0.1,0.044-0.282-0.117-0.385-0.078c-0.101,0.042-0.17,0.153-0.274,0.193
				c-0.1,0.04-0.115,0.306-0.214,0.346c-0.101,0.04-0.193,0.104-0.293,0.148c-0.1,0.042-0.301-0.166-0.401-0.128
				c-0.1,0.04-0.112,0.3-0.216,0.34c-0.1,0.045-0.247-0.031-0.353,0.008c-0.1,0.045-0.221,0.037-0.32,0.076
				c-0.1,0.044-0.185,0.132-0.285,0.173c-0.1,0.039-0.23,0.012-0.33,0.056c-0.1,0.04-0.162,0.168-0.263,0.208
				c-0.1,0.044-0.23,0.015-0.331,0.058c-0.1,0.04-0.107,0.295-0.204,0.343c-0.101,0.045-0.277-0.088-0.377-0.039
				c-0.1,0.044-0.222,0.035-0.323,0.08c-0.108,0.053-0.243,0.004-0.346,0.04c-0.117,0.04-0.167,0.309-0.274,0.325
				c-0.123,0.015-0.219-0.236-0.327-0.253c-0.114-0.024-0.204,0.031-0.311-0.032c-0.086-0.056-0.247-0.04-0.328-0.136
				c-0.068-0.08-0.123-0.193-0.185-0.306c-0.055-0.096,0.02-0.324-0.063-0.399c-0.08-0.08-0.256-0.073-0.349-0.138
				c-0.09-0.063-0.146-0.199-0.232-0.255c-0.097-0.062-0.196-0.09-0.289-0.156c-0.092-0.069-0.297,0.023-0.385-0.05
				c-0.088-0.066-0.23-0.085-0.315-0.155c-0.082-0.076-0.154-0.169-0.232-0.249c-0.076-0.079-0.088-0.224-0.16-0.308
				c-0.07-0.085-0.108-0.201-0.174-0.287c-0.069-0.086-0.026-0.254-0.088-0.344c-0.068-0.088-0.25-0.095-0.314-0.184
				c-0.063-0.097-0.108-0.192-0.167-0.287c-0.058-0.097-0.188-0.149-0.241-0.246c-0.054-0.097,0.149-0.333,0.095-0.428
				c-0.054-0.097-0.46-0.009-0.511-0.104c-0.05-0.096-0.054-0.225-0.104-0.324c-0.051-0.102-0.054-0.221-0.104-0.317
				c-0.05-0.1,0.096-0.292,0.046-0.389c-0.046-0.101-0.058-0.216-0.104-0.316c-0.046-0.104-0.126-0.185-0.172-0.285
				c-0.046-0.101-0.339-0.084-0.385-0.181c-0.05-0.099-0.116-0.184-0.166-0.282c-0.051-0.101,0.026-0.263-0.026-0.358
				c-0.04-0.08,0.043-0.192,0.052-0.301c0.008-0.092-0.23-0.252-0.202-0.356c0.029-0.096,0.109-0.191,0.149-0.288
				c0.038-0.087,0.33-0.068,0.377-0.156c0.045-0.094-0.108-0.28-0.062-0.368c0.05-0.093,0.223-0.117,0.267-0.201
				c0.046-0.096,0.046-0.261,0.146-0.328c0.089-0.061,0.193-0.134,0.288-0.185c0.101-0.057,0.127-0.177,0.215-0.244
				c0.078-0.063,0.201-0.072,0.281-0.133c0.078-0.068,0.12-0.172,0.2-0.236c0.078-0.067,0.401,0.156,0.48,0.088
				c0.079-0.063,0.213-0.319,0.292-0.384c-0.106-0.048-0.353-0.141-0.457-0.201c-0.104-0.055-0.25-0.035-0.351-0.089
				c-0.104-0.056-0.255,0-0.362-0.046c-0.111-0.05-0.134-0.37-0.249-0.394c-0.104-0.023-0.283,0.255-0.389,0.24
				c-0.104-0.028-0.166-0.264-0.271-0.289c-0.108-0.016-0.254,0.168-0.364,0.149c-0.108-0.021-0.179-0.222-0.283-0.244
				c-0.11-0.018-0.249,0.131-0.356,0.11c-0.108-0.023-0.213-0.04-0.321-0.06c-0.11-0.021-0.23,0.036-0.339,0.016
				c-0.109-0.02-0.202-0.106-0.31-0.128c-0.108-0.02-0.213-0.061-0.317-0.08c-0.104-0.021-0.18-0.2-0.284-0.225
				c-0.104-0.028-0.205-0.071-0.309-0.099c-0.107-0.024-0.198-0.104-0.303-0.138c-0.104-0.028-0.274,0.165-0.38,0.138
				c-0.094-0.033-0.266-0.065-0.367-0.138c-0.088-0.063-0.123-0.231-0.205-0.315c-0.08-0.08-0.021-0.272-0.089-0.37
				c-0.065-0.091-0.264-0.111-0.308-0.211c-0.052-0.112,0.037-0.258,0.02-0.362c-0.016-0.107-0.084-0.212-0.096-0.32
				c-0.015-0.107-0.084-0.211-0.096-0.323c-0.012-0.109-0.139-0.214-0.15-0.325c-0.012-0.112,0.02-0.228,0.012-0.336
				c-0.007-0.112,0.214-0.242,0.208-0.346c-0.004-0.115-0.325-0.216-0.325-0.328s0.042-0.232,0.042-0.337
				c0.005-0.111,0.197-0.22,0.205-0.328c0.008-0.112-0.076-0.229-0.062-0.345c0.012-0.104-0.076-0.24-0.056-0.35
				c0.018-0.106,0.142-0.203,0.168-0.312c0.024-0.107,0.15-0.192,0.184-0.297c0.028-0.108,0.05-0.212,0.086-0.316
				c0.039-0.104,0.11-0.192,0.153-0.297c0.04-0.104-0.089-0.288-0.038-0.385c0.049-0.104,0.184-0.16,0.234-0.251
				c0.054-0.101-0.006-0.265,0.054-0.358c0.059-0.096,0.229-0.115,0.293-0.204c0.065-0.092,0.254-0.076,0.323-0.156
				c0.076-0.08,0.198-0.087,0.273-0.164c0.081-0.076-0.012-0.348,0.077-0.413c0.086-0.059,0.242-0.024,0.338-0.076
				c0.096-0.052,0.229,0.013,0.329-0.028c0.1-0.039,0.172-0.119,0.281-0.143c0.104-0.024,0.176-0.197,0.284-0.214
				c0.104-0.019,0.223,0.061,0.335,0.053c0.104-0.009,0.208-0.147,0.32-0.147c0.107,0,0.223-0.046,0.335-0.036
				c0.104,0.008,0.207,0.155,0.319,0.167c0.104,0.017,0.204,0.068,0.308,0.081c0.104,0.011,0.219-0.04,0.323-0.023
				c0.104,0.011,0.227-0.13,0.331-0.112c0.104,0.012,0.196,0.143,0.301,0.152c0.104,0.007,0.188,0.232,0.292,0.239
				c0.104,0.008,0.209,0.024,0.313,0.037c0.104,0.012,0.223-0.102,0.327-0.089c0.104,0.008,0.205,0.069,0.309,0.081
				c0.106,0.008,0.234-0.278,0.339-0.269c0.105,0.007,0.191,0.203,0.297,0.215c0.104,0.008,0.201,0.128,0.305,0.137
				c0.104,0.008,0.208,0.017,0.312,0.024c0.104,0.008,0.235-0.292,0.339-0.285c0.104,0.008,0.201,0.142,0.305,0.148
				c0.105,0,0.202,0.137,0.306,0.145c0.104,0.009,0.217-0.085,0.321-0.071c0.106,0.007,0.214-0.054,0.319-0.044
				c0.104,0.008,0.188,0.296,0.293,0.303c0.104,0.01,0.208,0.054,0.312,0.061c0.096,0.008,0.18-0.333,0.276-0.349
				c0.092-0.015,0.151-0.104,0.243-0.128c0.092-0.027,0.242,0.141,0.334,0.113c0.093-0.029,0.121-0.09,0.208-0.113
				c-0.054-0.116-0.138-0.172-0.188-0.284c-0.05-0.113,0.13-0.338,0.076-0.454c-0.055-0.111-0.1-0.243-0.162-0.348
				c-0.057-0.097-0.253-0.104-0.311-0.201c-0.059-0.088-0.263-0.08-0.327-0.168c-0.058-0.088,0.071-0.305,0.009-0.399
				c-0.064-0.084-0.334-0.024-0.398-0.113c-0.063-0.088,0.185-0.393,0.126-0.48c-0.062-0.089-0.435,0.031-0.493-0.056
				c-0.059-0.094-0.054-0.232-0.108-0.317c-0.06-0.093-0.176-0.156-0.227-0.248c-0.054-0.098,0.123-0.313,0.076-0.408
				c-0.05-0.097-0.307-0.101-0.349-0.197c-0.04-0.1-0.132-0.197-0.162-0.296c-0.034-0.104,0.177-0.277,0.15-0.381
				c-0.023-0.108-0.092-0.206-0.112-0.31c-0.016-0.111,0.166-0.239,0.154-0.352c-0.012-0.107-0.285-0.185-0.297-0.293
				c-0.008-0.107,0.189-0.229,0.185-0.34c-0.004-0.104-0.123-0.208-0.123-0.322c0-0.107-0.046-0.216-0.042-0.324
				c0.003-0.107,0.084-0.212,0.092-0.324c0.008-0.104,0.146-0.2,0.161-0.305c0.012-0.111-0.115-0.232-0.096-0.34
				c0.016-0.108,0.1-0.201,0.12-0.305c0.02-0.104,0.088-0.196,0.111-0.305c0.027-0.108-0.162-0.268-0.131-0.372
				c0.027-0.104,0.238-0.152,0.271-0.261c0.034-0.104,0.126-0.18,0.158-0.285c0.038-0.096,0.018-0.22,0.057-0.32
				c0.036-0.1-0.153-0.297-0.111-0.397c0.042-0.1,0.096-0.2,0.142-0.3c0.046-0.1,0.034-0.231,0.081-0.328
				c0.045-0.096,0.455-0.017,0.501-0.104c0.046-0.096-0.021-0.249,0.021-0.345c0.046-0.096,0.012-0.224,0.059-0.32
				c0.042-0.097-0.005-0.236,0.038-0.333c0.042-0.096,0.128-0.172,0.17-0.268c0.042-0.097,0.108-0.185,0.15-0.281
				c0.042-0.096,0.261-0.124,0.3-0.221c0.042-0.096-0.232-0.325-0.196-0.421c0.042-0.096,0.11-0.184,0.153-0.28
				c0.04-0.096,0.24-0.128,0.282-0.232c0.038-0.096,0.219-0.136,0.261-0.236c0.042-0.096,0.074-0.196,0.112-0.296
				c0.042-0.096-0.251-0.333-0.208-0.43c0.042-0.096,0.065-0.208,0.104-0.304c0.038-0.095,0.292-0.104,0.335-0.2
				c0.042-0.096-0.077-0.26-0.034-0.356c0.045-0.104,0.318-0.101,0.376-0.201c0.054-0.1-0.029-0.28,0.028-0.381
				c0.06-0.101,0.068-0.224,0.126-0.329c0.058-0.096,0.066-0.22,0.12-0.32c0.057-0.1,0.403-0.056,0.45-0.16
				c0.045-0.104,0.02-0.249,0.054-0.357c0.027-0.104-0.054-0.245-0.023-0.349c0.035-0.104,0.214-0.16,0.247-0.264
				c0.034-0.104-0.082-0.252-0.05-0.353c0.034-0.104,0.006-0.225,0.038-0.329c0.034-0.105,0.168-0.172,0.205-0.281
				c0.034-0.096-0.037-0.24-0.004-0.34c0.034-0.1,0.389-0.096,0.423-0.201c0.034-0.104-0.071-0.252-0.035-0.356
				c0.038-0.104-0.108-0.265-0.074-0.369c0.032-0.104,0.309-0.12,0.343-0.229c0.034-0.104-0.042-0.241-0.008-0.341
				c0.032-0.104-0.064-0.249-0.034-0.352c0.034-0.104,0.18-0.168,0.208-0.277c0.029-0.104,0.134-0.188,0.164-0.284
				c0.028-0.109-0.138-0.266-0.11-0.37c0.03-0.104,0.188-0.176,0.215-0.28c0.024-0.104-0.05-0.236-0.026-0.341
				c0.026-0.104,0.192-0.18,0.214-0.284c0.02-0.104-0.03-0.225-0.014-0.333c0.022-0.108-0.128-0.236-0.108-0.349
				c0.016-0.104,0.289-0.168,0.305-0.28c0.018-0.109-0.101-0.229-0.086-0.337c0.013-0.112,0.046-0.216,0.054-0.32
				c0.008-0.104-0.084-0.221-0.081-0.324c0.004-0.109,0.139-0.208,0.143-0.317c0.004-0.107,0.188-0.216,0.188-0.329
				c0-0.124-0.13-0.216-0.101-0.288c0.046-0.121,0.143-0.037,0.235-0.06c0.086-0.029,0.192-0.277,0.301-0.229
				c0.084,0.041,0.054,0.281,0.139,0.353c0.073,0.072,0.145,0.152,0.219,0.216c0.076,0.072,0.292-0.008,0.373,0.064
				c0.073,0.072,0.03,0.272,0.101,0.344c0.076,0.073,0.23,0.064,0.305,0.136c0.076,0.076,0.218,0.081,0.292,0.153
				c0.073,0.08,0.192,0.108,0.269,0.184c0.069,0.08,0.124,0.176,0.196,0.252c0.07,0.076,0.05,0.236,0.12,0.316
				c0.076,0.081,0.215,0.085,0.28,0.156c0.084,0.082,0.159,0.113,0.239,0.173c0.096,0.064,0.039,0.424,0.126,0.449
				c0.108,0.035,0.292-0.025,0.392-0.049c0.093-0.024,0.205-0.128,0.293-0.204c0.066-0.065,0-0.257,0.066-0.357
				c0.054-0.08,0.308-0.047,0.364-0.152c0.05-0.097,0.09-0.201,0.14-0.297c0.05-0.096,0.093-0.2,0.139-0.297
				c0.046-0.096,0.05-0.216,0.1-0.312c0.046-0.097-0.07-0.272-0.023-0.369c0.045-0.104,0.284-0.112,0.327-0.212
				c0.045-0.101,0.127-0.181,0.174-0.277c0.042-0.104-0.113-0.288-0.071-0.385c0.042-0.104-0.004-0.237,0.039-0.336
				c0.04-0.101,0.267-0.128,0.304-0.224c0.042-0.104,0.079-0.201,0.117-0.305c0.038-0.104-0.021-0.244,0.018-0.344
				c0.036-0.101,0.216-0.153,0.254-0.249c0.038-0.104,0.17-0.177,0.204-0.272c0.039-0.104,0.039-0.217,0.07-0.325
				c0.034-0.104-0.193-0.292-0.159-0.396c0.035-0.1,0.234-0.152,0.269-0.249c0.032-0.104-0.122-0.268-0.087-0.369
				c0.033-0.101,0.242-0.145,0.276-0.249c0.033-0.101,0.124-0.184,0.162-0.281c0.034-0.104-0.15-0.28-0.112-0.385
				c0.037-0.096,0.339-0.104,0.375-0.208c0.038-0.1-0.108-0.272-0.07-0.368c0.038-0.104-0.05-0.257-0.008-0.353
				c0.042-0.101,0.107-0.192,0.15-0.289c0.042-0.1,0.201-0.144,0.246-0.249c0.047-0.097,0.259-0.112,0.305-0.208
				c0.047-0.097,0.131-0.168,0.181-0.264c0.05-0.097,0.05-0.208,0.104-0.305c0.054-0.089-0.15-0.341-0.092-0.429
				c0.058-0.092,0.196-0.132,0.254-0.229c0.06-0.088,0.161-0.152,0.227-0.237c0.063-0.088,0.034-0.252,0.101-0.332
				c0.067-0.084,0.269-0.064,0.338-0.144c0.059-0.072,0.222-0.005,0.297-0.057c0.076-0.048,0.062-0.236,0.143-0.285
				c0.08-0.048,0.126,0.036,0.2-0.02c0.035,0.096,0.139,0.064,0.177,0.156s-0.022,0.221,0.008,0.317
				c0.034,0.097,0.335,0.14,0.347,0.236c0.012,0.108-0.32,0.253-0.309,0.365c0.012,0.104,0.288,0.184,0.301,0.289
				c0.012,0.112,0.03,0.217,0.042,0.324c0.012,0.108,0.104,0.208,0.116,0.313c0.012,0.108-0.2,0.236-0.192,0.349
				c0.014,0.107-0.097,0.224-0.083,0.332c0.013,0.108,0.309,0.189,0.316,0.293c0.012,0.108-0.129,0.231-0.12,0.336
				c0.012,0.112,0.004,0.221,0.012,0.329c0.013,0.107,0.15,0.2,0.163,0.309c0.012,0.107-0.046,0.22-0.032,0.332
				c0.012,0.104,0.166,0.192,0.178,0.305c0.013,0.107,0.035,0.212,0.05,0.316c0.019,0.109-0.3,0.261-0.288,0.369
				c0.014,0.104,0.226,0.18,0.242,0.292c0.018,0.108,0.192,0.185,0.21,0.293c0.017,0.107,0,0.196,0.032,0.292
				c0.034,0.104-0.07,0.249-0.024,0.332c0.05,0.097,0.058,0.229,0.125,0.302c0.072,0.083,0.146,0.184,0.23,0.244
				c0.087,0.06,0.284-0.164,0.385-0.14c0.099,0.032,0.152,0.356,0.265,0.353c0.096-0.004,0.22-0.077,0.32-0.108
				c0.097-0.037,0.224-0.044,0.319-0.1c0.086-0.049,0.032-0.301,0.111-0.374c0.082-0.068,0.082-0.18,0.153-0.26
				c0.065-0.081,0.181-0.113,0.239-0.193c0.065-0.08,0.273-0.052,0.336-0.136c0.06-0.085,0.154-0.145,0.216-0.224
				c0.059-0.084,0.095-0.185,0.156-0.273c0.056-0.083,0.175-0.136,0.23-0.216c0.058-0.088-0.07-0.289-0.016-0.377
				c0.057-0.088,0.265-0.08,0.321-0.168c0.052-0.088-0.063-0.281-0.014-0.369c0.059-0.088,0.343-0.028,0.398-0.116
				c0.057-0.088,0.088-0.185,0.144-0.272c0.058-0.084-0.127-0.329-0.076-0.417c0.061-0.088,0.109-0.176,0.165-0.264
				c0.063-0.085,0.281-0.068,0.337-0.156c0.056-0.088,0.232-0.096,0.288-0.177c0.056-0.088,0.033-0.232,0.092-0.313
				c0.062-0.087,0.111-0.172,0.181-0.256c0.064-0.084,0.146-0.144,0.208-0.224c0.057-0.064,0.119-0.057,0.213-0.104
				c0.084-0.04,0.132-0.097,0.22-0.113c0.112-0.02,0.177-0.095,0.245-0.063c0.072,0.028,0.092,0.088,0.141,0.192
				c0.03,0.08,0.007,0.176,0.035,0.272c0.025,0.087,0.218,0.148,0.234,0.229c0.019,0.108-0.034,0.229-0.017,0.34
				c0.021,0.104,0.097,0.208,0.115,0.313c0.017,0.112,0.075,0.217,0.092,0.325c0.021,0.108-0.136,0.244-0.121,0.357
				c0.019,0.104,0.318,0.168,0.334,0.281c0.017,0.104-0.305,0.272-0.28,0.384c0.016,0.104,0.229,0.177,0.248,0.288
				c0.025,0.104-0.009,0.225,0.017,0.333c0.023,0.108,0.168,0.18,0.199,0.288c0.024,0.1-0.104,0.284-0.04,0.396
				c0.058,0.1,0.297,0.089,0.37,0.181c0.079,0.1-0.009,0.356,0.07,0.424c0.113,0.088,0.298,0.015,0.393,0.027
				c0.098,0.008,0.243,0.173,0.347,0.141c0.091-0.028,0.1-0.28,0.19-0.332c0.084-0.048,0.117-0.161,0.196-0.221
				c0.08-0.06,0.214-0.045,0.289-0.109c0.08-0.064,0.229-0.056,0.302-0.12c0.08-0.08,0.255-0.1,0.327-0.193
				c0.065-0.092,0.049-0.256,0.104-0.352c0.061-0.096,0.089-0.217,0.146-0.313c0.055-0.096-0.021-0.292,0.048-0.385
				c0.064-0.092,0.224-0.12,0.304-0.2c0.073-0.081,0.128-0.272,0.239-0.321c0.104-0.047,0.286,0.081,0.401,0.057
				c0.12-0.024,0.254,0.152,0.362,0.136c0.039,0,0.063-0.036,0.123,0.149c0.044,0.132,0.196,0.252,0.213,0.36
				c0.016,0.112-0.177,0.269-0.152,0.365c0.028,0.112,0.108,0.217,0.144,0.313c0.044,0.104,0.193,0.16,0.249,0.249
				c0.056,0.096,0.248,0.064,0.321,0.144c0.075,0.08-0.021,0.337,0.066,0.397c0.089,0.06,0.189,0.164,0.29,0.201
				c0.101,0.035,0.235-0.004,0.348,0.008c0.104,0.012,0.225,0.064,0.338,0.052c0.104,0,0.224-0.007,0.335-0.032
				c0.097-0.02,0.166-0.217,0.273-0.245c0.093-0.028,0.232,0.172,0.36,0.188c0.153,0.021,0.272-0.06,0.304,0.008
				c0.041,0.096,0.183,0.137,0.232,0.225c0.059,0.088,0.113,0.173,0.174,0.256c0.06,0.08,0.115,0.176,0.173,0.257
				c0.055,0.084,0.111,0.18,0.159,0.268c0.057,0.088,0.057,0.204,0.096,0.301c0.038,0.096-0.052,0.208-0.039,0.313
				c0.015,0.096,0.063,0.176,0.048,0.288c-0.009,0.096,0.025,0.2-0.017,0.305c-0.027,0.088,0,0.201-0.008,0.296
				c-0.009,0.096,0.104,0.185,0.112,0.289c0.007,0.096-0.023,0.191-0.008,0.296c0.024,0.096-0.185,0.248-0.155,0.344
				c0.021,0.1,0.184,0.164,0.211,0.256c0.032,0.104,0.265,0.161,0.289,0.265c0.023,0.104-0.08,0.245-0.063,0.349
				c0.016,0.104-0.232,0.237-0.226,0.349c0.009,0.108,0.337,0.184,0.345,0.296c0.008,0.109-0.177,0.229-0.168,0.336
				c0.008,0.112,0.225,0.193,0.24,0.305c0.008,0.104-0.2,0.241-0.185,0.348c0.016,0.104,0.073,0.208,0.098,0.313
				c0.022,0.104,0.208,0.161,0.247,0.26c0.032,0.101,0.021,0.212,0.065,0.309c0.046,0.096,0.167,0.14,0.224,0.236
				c0.056,0.087-0.101,0.328-0.032,0.417c0.072,0.08,0.108,0.212,0.185,0.292C42.519,15.516,42.736,15.495,42.824,15.568z
				 M16.82,10.535c-0.054,0.104-0.139,0.2-0.175,0.272c-0.063,0.12-0.242,0.2-0.25,0.271c-0.014,0.113,0.205,0.241,0.191,0.35
				c-0.013,0.107-0.267,0.18-0.283,0.284c-0.013,0.113,0.189,0.245,0.17,0.354c-0.016,0.104,0.113,0.239,0.097,0.343
				c-0.017,0.104-0.3,0.169-0.32,0.273c-0.018,0.104-0.103,0.2-0.123,0.304c-0.021,0.105-0.066,0.205-0.088,0.309
				c-0.02,0.105-0.05,0.209-0.07,0.313c-0.022,0.104,0.196,0.264,0.17,0.369c-0.024,0.104-0.108,0.196-0.132,0.3
				c-0.026,0.104-0.223,0.168-0.253,0.272c-0.024,0.104,0.038,0.228,0.015,0.336c-0.031,0.104,0.146,0.261,0.116,0.361
				c-0.031,0.104-0.186,0.172-0.213,0.276c-0.03,0.104-0.047,0.208-0.081,0.313c-0.029,0.104,0.15,0.272,0.116,0.373
				c-0.031,0.104-0.405,0.096-0.438,0.201c-0.032,0.1-0.074,0.2-0.108,0.3c-0.035,0.1-0.078,0.201-0.112,0.301
				c-0.034,0.101-0.05,0.208-0.088,0.313c-0.038,0.096,0.088,0.256,0.05,0.357c-0.039,0.1-0.208,0.148-0.247,0.253
				c-0.038,0.096-0.123,0.184-0.163,0.28c-0.042,0.104-0.077,0.2-0.118,0.304c-0.038,0.101-0.1,0.185-0.138,0.289
				c-0.042,0.096,0.256,0.333,0.214,0.433s-0.285,0.12-0.327,0.216s-0.084,0.193-0.127,0.297c-0.04,0.096-0.04,0.208-0.085,0.312
				c-0.042,0.096,0.012,0.24-0.03,0.337c-0.042,0.096-0.134,0.176-0.18,0.272c-0.046,0.096-0.247,0.124-0.293,0.22
				c-0.045,0.096,0.164,0.317,0.119,0.413c-0.046,0.097-0.111,0.184-0.154,0.281c-0.046,0.096-0.057,0.216-0.103,0.313
				c-0.044,0.096-0.304,0.088-0.351,0.184c-0.047,0.096-0.016,0.232-0.063,0.329c-0.046,0.096-0.268,0.108-0.318,0.204
				c-0.047,0.097-0.075,0.201-0.12,0.297c-0.046,0.096,0.138,0.309,0.088,0.405c-0.05,0.095-0.059,0.216-0.111,0.313
				c-0.05,0.092-0.228,0.12-0.278,0.217c-0.05,0.096-0.201,0.14-0.25,0.235c-0.05,0.097-0.006,0.236-0.056,0.333
				c-0.051,0.096-0.141,0.168-0.193,0.265c-0.05,0.097,0.006,0.249-0.04,0.345c-0.046,0.096-0.307,0.104-0.349,0.204
				c-0.04,0.1,0.239,0.328,0.202,0.433c-0.037,0.101-0.096,0.193-0.129,0.292c-0.035,0.104-0.323,0.128-0.351,0.232
				c-0.031,0.109,0.032,0.241,0.007,0.345c-0.025,0.104-0.104,0.208-0.122,0.313c-0.021,0.104,0.122,0.24,0.106,0.345
				c-0.018,0.107-0.08,0.208-0.088,0.313c-0.014,0.112-0.054,0.216-0.058,0.32c-0.006,0.112-0.042,0.22-0.042,0.329
				s-0.003,0.215,0,0.324c0.004,0.109,0.025,0.221,0.032,0.325c0.01,0.112,0.054,0.216,0.072,0.325
				c0.017,0.108-0.138,0.243-0.119,0.348c0.022,0.112,0.046,0.224,0.072,0.328c0.024,0.104,0.297,0.145,0.327,0.249
				c0.028,0.104-0.119,0.265-0.08,0.369c0.035,0.104-0.007,0.24,0.03,0.345c0.04,0.1,0.417,0.055,0.458,0.159
				c0.046,0.097-0.213,0.342-0.163,0.438c0.051,0.098,0.263,0.108,0.317,0.201c0.054,0.095-0.038,0.279,0.022,0.372
				c0.058,0.091,0.3,0.064,0.362,0.151c0.062,0.084-0.074,0.321-0.008,0.41c0.065,0.088,0.301,0.04,0.372,0.124
				c0.071,0.084,0.201,0.108,0.276,0.188c0.075,0.079-0.055,0.359,0.021,0.433c0.079,0.08,0.313-0.004,0.393,0.071
				c0.078,0.076,0.104,0.208,0.188,0.28c0.082,0.073,0.238,0.056,0.32,0.125c0.088,0.068,0.242,0.035,0.335,0.1
				c0.087,0.068-0.02,0.409,0.067,0.473c0.09,0.064,0.271-0.007,0.362,0.049c0.092,0.06,0.181,0.133,0.273,0.184
				c0.097,0.058,0.167,0.157,0.263,0.208c0.096,0.05,0.179,0.138,0.28,0.185c0.1,0.044,0.208,0.073,0.308,0.112
				c0.101,0.049,0.239,0,0.343,0.041c0.1,0.039,0.15,0.231,0.25,0.268c0.106,0.036,0.292-0.175,0.399-0.139
				c0.104,0.03,0.208,0.055,0.313,0.088c0.104,0.031,0.158,0.232,0.269,0.26c0.104,0.028,0.224,0.004,0.332,0.028
				c0.11,0.024,0.207,0.091,0.315,0.111c0.107,0.024,0.224-0.011,0.334,0.008c0.108,0.024,0.192,0.169,0.301,0.193
				c0.107,0.016,0.208,0.111,0.316,0.132c0.11,0.017,0.249-0.185,0.356-0.173c0.108,0.013,0.217,0.049,0.325,0.057
				c0.11,0.012,0.234-0.153,0.345-0.145c0.108,0.008,0.2,0.24,0.308,0.254c0.104,0.007,0.208,0.059,0.316,0.059
				c0.106,0.008,0.218-0.035,0.322-0.033c0.105,0.005,0.219-0.135,0.327-0.135c0.104,0.009,0.204,0.176,0.313,0.185
				c0.104,0,0.223-0.192,0.327-0.185c0.104,0,0.2,0.332,0.304,0.337c0.104,0.005,0.223-0.169,0.327-0.161
				c0.104,0,0.216-0.096,0.327-0.096c0.104,0.009,0.204,0.184,0.308,0.192c0.104,0.008,0.205,0.08,0.313,0.088
				c0.107,0.007,0.207,0.062,0.315,0.068c0.104,0.008,0.216-0.068,0.325-0.062c0.105,0.01,0.226-0.087,0.33-0.065
				c0.105,0.011,0.192,0.146,0.301,0.163c0.104,0.016,0.225-0.057,0.329-0.039c0.106,0.02,0.185,0.175,0.289,0.195
				c0.106,0.02,0.214,0.02,0.319,0.044c0.104,0.015,0.204,0.061,0.309,0.088c0.104,0.024,0.196,0.09,0.3,0.111
				c0.106,0.029,0.288-0.279,0.388-0.254c0.106,0.023,0.179,0.195,0.283,0.219c0.104,0.028,0.212,0.035,0.317,0.06
				c0.104,0.024,0.196,0.097,0.3,0.118c0.104,0.024,0.192,0.115,0.297,0.14c0.104,0.023,0.232-0.061,0.336-0.039
				c0.104,0.02,0.184,0.194,0.287,0.215c0.104,0.024,0.217-0.011,0.33,0.008c0.104,0.024,0.247-0.144,0.352-0.123
				c0.113,0.02,0.185,0.202,0.289,0.228c0.104,0.016,0.208,0.068,0.313,0.084c0.113,0.021,0.217,0.036,0.323,0.056
				c0.109,0.017,0.254-0.22,0.357-0.2c0.113,0.017,0.169,0.365,0.281,0.382c0.104,0.012,0.244-0.217,0.354-0.201
				c0.112,0.012,0.199,0.156,0.313,0.168c0.104,0.017,0.236-0.216,0.341-0.209c0.106,0.01,0.191,0.357,0.3,0.366
				c0.107,0.003,0.223,0.012,0.327,0.016c0.113,0.004,0.225-0.163,0.333-0.163c0.107,0,0.222,0.087,0.329,0.079
				c0.108-0.005,0.213-0.134,0.325-0.138c0.104-0.003,0.224,0.094,0.332,0.084c0.108-0.011,0.209-0.105,0.316-0.123
				c0.111-0.007,0.216-0.044,0.32-0.063c0.104-0.018,0.229,0.039,0.332,0.015c0.104-0.021,0.192-0.137,0.297-0.167
				c0.104-0.025,0.165-0.193,0.273-0.223c0.104-0.027,0.209-0.035,0.313-0.066c0.1-0.038,0.252,0.076,0.356,0.039
				c0.104-0.043,0.148-0.201,0.249-0.247c0.095-0.05,0.199-0.073,0.297-0.121c0.096-0.049,0.271,0.056,0.372,0.013
				c0.1-0.045,0.191-0.097,0.293-0.142c0.099-0.048,0.24,0.007,0.345-0.036c0.095-0.043,0.167-0.146,0.271-0.189
				c0.096-0.039,0.133-0.239,0.233-0.288c0.1-0.039,0.151-0.191,0.256-0.234c0.097-0.044,0.296,0.147,0.4,0.099
				c0.097-0.039,0.178-0.136,0.281-0.179c0.097-0.044,0.239,0.002,0.34-0.044s0.061-0.386,0.157-0.435
				c0.095-0.047,0.352,0.217,0.448,0.169c0.097-0.047,0.112-0.256,0.208-0.313c0.098-0.052,0.119-0.231,0.209-0.285
				c0.097-0.059,0.281,0.033,0.368-0.027c0.097-0.056,0.148-0.167,0.24-0.231c0.09-0.064,0.213-0.082,0.301-0.153
				c0.084-0.063,0.036-0.288,0.116-0.361c0.084-0.071,0.344,0.058,0.424-0.023c0.082-0.071,0-0.296,0.082-0.384
				c0.067-0.076,0.259-0.057,0.328-0.141c0.072-0.084,0.232-0.104,0.3-0.192c0.061-0.088-0.052-0.302,0.013-0.393
				c0.056-0.094,0.004-0.244,0.056-0.341c0.053-0.096,0.264-0.096,0.313-0.181c0.056-0.093,0.104-0.184,0.148-0.277
				c0.053-0.091-0.069-0.272-0.023-0.362c0.052-0.094,0.251-0.104,0.3-0.197c0.048-0.094-0.049-0.258-0.004-0.345
				c0.044-0.098,0.413-0.044,0.452-0.137c0.045-0.096-0.217-0.319-0.18-0.417c0.036-0.096,0.321-0.096,0.357-0.196
				c0.04-0.097,0.104-0.188,0.14-0.288c0.036-0.102-0.08-0.245-0.053-0.349c0.033-0.097-0.04-0.225-0.007-0.324
				c0.023-0.1,0.164-0.177,0.183-0.277c0.025-0.104,0.025-0.208,0.05-0.313c0.016-0.104,0-0.216,0.016-0.319
				c0.011-0.105,0.239-0.182,0.256-0.29c0.009-0.104-0.052-0.215-0.043-0.32c0.007-0.109-0.102-0.225-0.094-0.329
				c0.009-0.104-0.152-0.216-0.152-0.328c0.01-0.104,0.266-0.201,0.266-0.305s-0.097-0.212-0.097-0.316
				c0-0.104,0.04-0.212,0.04-0.317c0-0.104,0.161-0.212,0.161-0.321c0-0.104-0.394-0.208-0.402-0.312c0-0.104,0-0.213-0.004-0.32
				c0-0.108,0.178-0.216,0.178-0.325s-0.102-0.212-0.102-0.325c0-0.104-0.047-0.216-0.047-0.32c0-0.108,0.279-0.216,0.279-0.324
				s0.025-0.221,0.025-0.325c0-0.112-0.277-0.217-0.28-0.324c0-0.109,0.231-0.221,0.231-0.325c0-0.112-0.088-0.216-0.088-0.321
				c0-0.112,0.104-0.221,0.104-0.329c0-0.107-0.104-0.212-0.108-0.32c-0.005-0.112-0.104-0.216-0.104-0.32
				c0-0.112-0.117-0.216-0.12-0.325c-0.005-0.107,0.096-0.216,0.091-0.325c-0.004-0.111,0.137-0.216,0.133-0.328
				c-0.005-0.108-0.067-0.212-0.067-0.32c-0.01-0.109-0.13-0.213-0.13-0.321c0-0.112,0.138-0.216,0.138-0.329
				c-0.008-0.107-0.229-0.212-0.229-0.316c0-0.104,0.333-0.221,0.333-0.329c-0.009-0.108-0.202-0.212-0.202-0.316
				c-0.007-0.104,0.169-0.225,0.169-0.329c0-0.104,0.033-0.216,0.033-0.325c-0.009-0.108-0.333-0.212-0.338-0.316
				c-0.004-0.112,0.18-0.225,0.176-0.329c-0.003-0.108,0.188-0.219,0.186-0.324c-0.004-0.109-0.409-0.213-0.409-0.317
				c-0.008-0.104,0.336-0.221,0.332-0.328c-0.004-0.108-0.276-0.208-0.276-0.317c0-0.107-0.021-0.096-0.021-0.204
				c-0.12-0.033-0.124-0.329-0.244-0.357c-0.088,0.064-0.104,0.325-0.192,0.389c-0.08,0.056-0.111,0.196-0.2,0.261
				c-0.08,0.06-0.192,0.083-0.272,0.144c-0.083,0.06-0.264-0.012-0.352,0.052c-0.085,0.056-0.136,0.132-0.225,0.196
				c-0.057-0.092-0.04-0.204-0.093-0.297c-0.057-0.095-0.308-0.076-0.36-0.168c-0.052-0.096-0.148-0.164-0.2-0.252
				c-0.052-0.096,0.017-0.257-0.036-0.349c-0.055-0.092-0.089-0.196-0.145-0.284c-0.056-0.092-0.08-0.201-0.136-0.29
				c-0.062-0.092-0.024-0.239-0.083-0.328c-0.065-0.088-0.302-0.044-0.37-0.129c-0.068-0.08-0.024-0.236-0.068-0.32
				c-0.052-0.092-0.226-0.145-0.251-0.231c-0.029-0.097,0.059-0.233,0.05-0.333c-0.015-0.096,0.142-0.201,0.139-0.305
				c-0.01-0.097-0.025-0.192-0.025-0.297c0-0.107-0.177-0.212-0.184-0.324c0-0.104-0.113-0.208-0.121-0.313
				c0-0.112,0.373-0.232,0.369-0.341c-0.004-0.108-0.152-0.212-0.161-0.316c-0.008-0.112-0.096-0.208-0.104-0.32
				c-0.008-0.109,0.041-0.221,0.032-0.325c-0.016-0.109-0.217-0.193-0.224-0.301c-0.018-0.108-0.045-0.208-0.059-0.313
				c-0.015-0.113,0.273-0.265,0.258-0.369c-0.016-0.108,0.016-0.233,0-0.337c-0.025-0.104-0.12-0.2-0.148-0.304
				c-0.027-0.104-0.332-0.133-0.363-0.236c-0.029-0.104,0.287-0.317,0.254-0.413c-0.03-0.104-0.344-0.048-0.38-0.145
				c-0.107-0.032-0.156-0.048-0.26-0.08c-0.115-0.028-0.193-0.16-0.298-0.184c-0.111-0.028-0.247,0.047-0.352,0.024
				c-0.112-0.033-0.137-0.361-0.24-0.385c-0.108-0.032-0.217-0.032-0.317-0.064c-0.107-0.032-0.263,0.092-0.363,0.048
				c-0.104-0.044-0.225-0.052-0.316-0.104c-0.097-0.06-0.065-0.289-0.149-0.361c-0.088-0.072-0.22-0.08-0.304-0.16
				c-0.08-0.08-0.145-0.16-0.226-0.249c-0.076-0.089-0.336,0-0.416-0.089c-0.072-0.08,0.052-0.344-0.023-0.432
				c-0.073-0.08-0.217-0.152-0.297-0.232C36.377,6.736,36.333,6.892,36.26,7c-0.051,0.083,0.008,0.231-0.04,0.328
				c-0.047,0.096-0.3,0.104-0.327,0.2c-0.032,0.116,0.128,0.297,0.083,0.393c-0.053,0.104-0.271,0.104-0.341,0.184
				c-0.072,0.089-0.185,0.097-0.264,0.157c-0.088,0.069-0.041,0.373-0.141,0.421c-0.1,0.04-0.276-0.096-0.38-0.068
				c-0.104,0.024-0.221-0.124-0.329-0.116c-0.113,0.008-0.218,0.297-0.321,0.289c-0.104,0-0.209-0.121-0.313-0.136
				c-0.107-0.012-0.24,0.024-0.353-0.012c-0.096-0.037-0.2-0.108-0.295-0.156c-0.098-0.052-0.232-0.064-0.322-0.129
				C32.823,8.29,32.89,8.03,32.811,7.958c-0.084-0.076-0.108-0.177-0.174-0.261c-0.071-0.088-0.344-0.036-0.393-0.132
				c-0.043-0.1-0.176-0.172-0.216-0.272c-0.039-0.1-0.036-0.225-0.072-0.329c-0.031-0.108,0.233-0.301,0.201-0.405
				c-0.028-0.104-0.221-0.164-0.245-0.272c-0.026-0.104-0.235-0.172-0.26-0.276c-0.024-0.104,0.076-0.245,0.052-0.35
				c-0.021-0.104,0.164-0.252,0.141-0.36c-0.02-0.104-0.116-0.201-0.141-0.305c-0.021-0.112-0.28-0.164-0.309-0.268
				c-0.024-0.108,0.055-0.077,0.028-0.184c-0.053,0.088-0.14-0.037-0.192,0.06C31.18,4.691,31.344,4.893,31.3,4.989
				c-0.054,0.087-0.208,0.124-0.257,0.208c-0.048,0.088-0.145,0.157-0.199,0.244c-0.058,0.088-0.064,0.205-0.122,0.289
				c-0.06,0.088-0.18,0.132-0.24,0.22c-0.056,0.088-0.035,0.233-0.095,0.321c-0.058,0.088-0.185,0.132-0.237,0.22
				c-0.052,0.088,0.076,0.304,0.016,0.393c-0.06,0.087-0.28,0.067-0.34,0.156c-0.057,0.087-0.164,0.144-0.229,0.228
				c-0.06,0.088-0.196,0.112-0.26,0.2c-0.064,0.085,0.063,0.317,0,0.401c-0.068,0.084-0.328,0-0.401,0.084
				c-0.072,0.08-0.072,0.212-0.145,0.288c-0.074,0.08-0.066,0.233-0.136,0.305c-0.08,0.076-0.177,0.136-0.247,0.196
				c-0.09,0.072-0.289-0.032-0.369,0.02c-0.092,0.065-0.108,0.208-0.196,0.253c-0.1,0.052-0.205,0-0.301,0.024
				c-0.107,0.028-0.168,0.068-0.271,0.068c-0.105-0.004-0.241,0.168-0.337,0.136c-0.096-0.032-0.257-0.017-0.349-0.072
				c-0.082-0.057-0.174-0.149-0.254-0.225c-0.07-0.064-0.088-0.216-0.158-0.3c-0.068-0.076-0.097-0.188-0.161-0.28
				c-0.058-0.077-0.004-0.244-0.062-0.333c-0.055-0.085-0.239-0.092-0.297-0.185c-0.054-0.088-0.093-0.188-0.146-0.281
				c-0.054-0.096-0.17-0.184-0.197-0.297c-0.023-0.104,0.25-0.264,0.239-0.375c-0.016-0.113-0.426-0.161-0.447-0.265
				c-0.022-0.104,0.012-0.216-0.008-0.321c-0.022-0.104,0.008-0.213-0.014-0.317c-0.02-0.108,0.172-0.248,0.15-0.348
				c-0.021-0.101,0-0.213-0.021-0.317c-0.02-0.104-0.076-0.2-0.096-0.305c-0.021-0.108-0.304-0.147-0.331-0.248
				c-0.024-0.101-0.07-0.192-0.1-0.293c-0.028-0.107,0.034-0.232-0.071-0.323c-0.096-0.085-0.16-0.245-0.259-0.297
				c-0.042-0.021-0.059,0.252-0.155,0.317c-0.078,0.056-0.125,0.032-0.154,0.092c-0.042,0.097-0.339,0.084-0.377,0.181
				c-0.042,0.096,0.127,0.281,0.085,0.376c-0.043,0.096-0.212,0.136-0.255,0.237c-0.042,0.1,0.043,0.244,0.004,0.344
				c-0.038,0.096-0.068,0.201-0.104,0.297c-0.038,0.096,0.009,0.228-0.029,0.328c-0.038,0.096-0.143,0.173-0.18,0.269
				c-0.037,0.1-0.029,0.22-0.066,0.32c-0.042,0.104-0.432,0.056-0.473,0.157c-0.042,0.1-0.074,0.2-0.116,0.295
				c-0.042,0.097,0.011,0.236-0.03,0.333c-0.042,0.104,0,0.232-0.042,0.332c-0.041,0.101,0.025,0.241-0.012,0.342
				c-0.042,0.103-0.354,0.083-0.397,0.185c-0.042,0.1,0.208,0.32,0.166,0.416c-0.04,0.104-0.288,0.112-0.324,0.216
				c-0.042,0.096,0.12,0.28,0.078,0.377c-0.042,0.104-0.25,0.132-0.289,0.232c-0.036,0.101,0.084,0.265,0.047,0.361
				c-0.037,0.104-0.075,0.204-0.112,0.304c-0.039,0.101,0,0.225-0.034,0.325c-0.038,0.101-0.132,0.181-0.167,0.281
				c-0.034,0.1-0.08,0.196-0.112,0.3c-0.034,0.101-0.215,0.161-0.248,0.261c-0.029,0.104-0.083,0.201-0.113,0.301
				c-0.034,0.112-0.112,0.193-0.146,0.285c-0.042,0.109,0.123,0.309,0.073,0.397c-0.06,0.104-0.106,0.248-0.177,0.32
				c-0.08,0.083-0.259,0.088-0.35,0.136c-0.097,0.052-0.247-0.072-0.357-0.056c-0.104,0.016-0.2,0.181-0.312,0.173
				c-0.104-0.013-0.193-0.153-0.305-0.173c-0.101-0.02-0.219,0.004-0.327-0.024c-0.092-0.024-0.204-0.016-0.288-0.064
				c-0.084-0.048-0.239-0.013-0.313-0.072c-0.077-0.06-0.135-0.16-0.207-0.228c-0.07-0.069,0.014-0.301-0.054-0.365
				c-0.075-0.073-0.381,0.067-0.452-0.013c-0.076-0.076-0.122-0.188-0.192-0.269s0-0.288-0.076-0.376
				c-0.07-0.081-0.209-0.096-0.279-0.185c-0.072-0.076-0.218-0.096-0.292-0.176C16.85,10.847,16.896,10.614,16.82,10.535z
				 M31.172,42.97c0.051,0.087,0.051,0.16,0.088,0.24c0.052,0.096-0.021,0.248,0.024,0.324c0.056,0.1,0.296,0.044,0.368,0.089
				c0.095,0.05,0.068,0.316,0.164,0.381c0.091,0.055,0.305-0.064,0.396-0.008c0.097,0.055,0.269-0.004,0.36,0.055
				c0.097,0.058,0.057,0.348,0.161,0.401c0.096,0.051,0.184,0.169,0.288,0.208c0.104,0.04,0.239,0.113,0.344,0.132
				c0.113,0.021,0.289,0.037,0.396,0.021c0.109-0.019,0.185-0.272,0.282-0.281c0.109-0.009,0.213,0.055,0.313,0.055
				c0.104,0.005,0.175,0.189,0.275,0.205c0.102,0.021,0.201-0.052,0.301-0.023c0.096,0.026,0.265-0.123,0.364-0.084
				c0.098,0.041,0.152,0.2,0.257,0.224c0.104,0.032,0.217,0.04,0.326,0.053c0.104,0.016,0.23-0.192,0.339-0.185
				c0.113,0.008,0.193,0.373,0.298,0.381c0.112,0.004,0.224,0.02,0.332,0.02c0.108,0.004,0.217,0.016,0.324,0.016
				c0.112,0,0.216-0.016,0.329-0.016c0.104,0,0.216-0.164,0.325-0.164c0.108,0,0.212,0.145,0.32,0.148
				c0.107,0,0.212,0.051,0.325,0.061c0.104,0,0.208,0.009,0.316,0.016c0.108,0.009,0.208,0.035,0.313,0.048
				c0.107,0.017,0.251-0.332,0.355-0.324c0.111,0.008,0.191,0.236,0.305,0.251c0.108,0.01,0.212,0.019,0.319,0.034
				c0.109,0.011,0.227-0.024,0.331-0.009c0.104,0.013,0.224-0.084,0.331-0.071c0.109,0.011,0.209,0.075,0.316,0.087
				c0.113,0.013,0.197,0.196,0.306,0.209c0.104,0.012,0.243-0.25,0.353-0.24c0.107,0.016,0.212,0.049,0.316,0.06
				c0.108,0.011,0.221-0.016,0.324-0.004c0.113,0.012,0.193,0.262,0.298,0.272c0.111,0.013,0.228-0.056,0.332-0.049
				c0.104,0.009,0.193,0.217,0.299,0.229c0.109,0.014,0.218,0,0.33,0.014c0.104,0.011,0.244-0.233,0.349-0.226
				c0.108,0.011,0.22-0.017,0.323-0.008c0.113,0.015,0.202,0.178,0.306,0.185c0.111,0.015,0.199,0.139,0.313,0.153
				c0.107,0.011,0.225-0.085,0.333-0.073c0.107,0.017,0.211,0.073,0.315,0.084c0.113,0.013,0.229-0.091,0.337-0.084
				c0.108,0.017,0.193,0.256,0.298,0.265c0.107,0.012,0.247-0.321,0.359-0.313c0.107,0.012,0.211,0.045,0.315,0.056
				c0.109,0.016,0.188,0.289,0.298,0.305c0.108,0.008,0.229-0.08,0.342-0.08c0.104,0.008,0.215,0.064,0.327,0.064
				c0.109,0,0.214-0.169,0.322-0.169c0.11-0.007,0.215,0.035,0.327,0.032c0.111-0.008,0.225,0.021,0.333,0.012
				c0.109-0.009,0.22,0.021,0.333,0.014c0.104-0.009,0.216-0.009,0.32-0.014c0.104-0.005,0.201-0.02,0.3-0.024
				c0.101-0.004,0.196-0.043,0.294-0.047c0.1-0.004,0.213,0.16,0.308,0.15c0.101-0.007,0.204-0.019,0.302-0.035
				c0.094-0.008,0.15-0.281,0.247-0.296c0.097-0.021,0.239,0.143,0.344,0.119c0.101-0.022,0.24,0.038,0.338,0.009
				c0.104-0.031,0.064-0.409,0.152-0.448c0.104-0.058,0.417,0.104,0.453,0.022c0.044-0.095-0.08-0.271-0.045-0.368
				c0.039-0.095,0.24-0.129,0.28-0.228c0.033-0.097-0.145-0.269-0.111-0.364c0.031-0.097,0.305-0.124,0.328-0.225
				c0.031-0.101-0.149-0.257-0.124-0.354c0.028-0.104-0.029-0.224-0.004-0.323c0.024-0.101,0.328-0.133,0.352-0.232
				c0.024-0.101-0.168-0.256-0.144-0.353c0.032-0.111,0.137-0.201,0.156-0.305c0.021-0.116-0.072-0.236-0.059-0.348
				c0.015-0.117-0.104-0.217-0.104-0.326c0-0.115,0.335-0.252,0.32-0.356c-0.025-0.116-0.209-0.19-0.246-0.287
				c-0.043-0.104-0.084-0.201-0.156-0.289c-0.064-0.089-0.119-0.2-0.211-0.269c-0.085-0.064-0.173-0.157-0.286-0.204
				c-0.095-0.044-0.215-0.06-0.327-0.098c-0.101-0.022-0.233,0.045-0.345,0.028c-0.104-0.015-0.201-0.188-0.316-0.198
				c-0.104-0.01-0.238,0.243-0.349,0.234c-0.112-0.002-0.217-0.002-0.325-0.007c-0.108-0.004-0.204-0.185-0.313-0.192
				c-0.108-0.004-0.22,0.039-0.323,0.039c-0.104-0.008-0.209-0.051-0.313-0.06c-0.114-0.004-0.223,0.044-0.327,0.044
				c-0.104-0.009-0.204-0.144-0.312-0.152c-0.108-0.004-0.213-0.096-0.316-0.1c-0.104-0.008-0.224,0.204-0.332,0.197
				c-0.109-0.009-0.213-0.034-0.317-0.042c-0.108-0.007-0.224,0.161-0.337,0.153c-0.104-0.009-0.192-0.24-0.304-0.25
				c-0.107-0.008-0.208-0.059-0.316-0.066c-0.109-0.014-0.219,0.031-0.325,0.023c-0.112-0.007-0.225,0.133-0.336,0.116
				c-0.109-0.008-0.197-0.186-0.306-0.196c-0.104-0.009-0.231,0.178-0.336,0.164c-0.104-0.011-0.181-0.345-0.289-0.357
				c-0.104-0.011-0.231,0.153-0.34,0.146c-0.104-0.013-0.225,0.076-0.329,0.067c-0.107-0.009-0.196-0.192-0.31-0.209
				c-0.104-0.011-0.208-0.088-0.313-0.108c-0.112-0.015-0.216-0.059-0.32-0.076c-0.108-0.015-0.224,0.065-0.337,0.053
				c-0.104-0.011-0.223,0.084-0.336,0.069c-0.108-0.008-0.2-0.146-0.308-0.156c-0.108-0.014-0.229,0.071-0.333,0.06
				c-0.112-0.015-0.199-0.164-0.304-0.182c-0.113-0.011-0.222-0.003-0.329-0.02c-0.108-0.007-0.213-0.043-0.321-0.057
				c-0.113-0.011-0.208-0.074-0.321-0.088c-0.104-0.011-0.255,0.313-0.358,0.302c-0.113-0.013-0.202-0.181-0.306-0.193
				c-0.111-0.011-0.216-0.007-0.329-0.024c-0.108-0.011-0.208-0.076-0.317-0.087c-0.107-0.013-0.204-0.097-0.315-0.112
				c-0.104-0.016-0.226,0.084-0.337,0.068c-0.108-0.008-0.196-0.182-0.305-0.192c-0.107-0.016-0.221,0.024-0.328,0.011
				c-0.111-0.011-0.24,0.157-0.348,0.145c-0.108-0.012-0.193-0.194-0.302-0.208c-0.107-0.012-0.212-0.06-0.315-0.075
				c-0.108-0.012-0.222-0.029-0.326-0.04c-0.104-0.013-0.243,0.219-0.353,0.207c-0.111-0.011-0.172-0.359-0.279-0.376
				c-0.108-0.011-0.249,0.217-0.353,0.2c-0.112-0.012-0.202-0.16-0.31-0.176s-0.245,0.208-0.356,0.192
				c-0.104-0.012-0.168-0.37-0.28-0.377c-0.104-0.015-0.208-0.032-0.321-0.048c-0.107-0.011-0.235,0.137-0.344,0.12
				c-0.113-0.012-0.209-0.111-0.313-0.124c-0.113-0.012-0.237,0.097-0.342,0.083c-0.104-0.016-0.199-0.136-0.308-0.15
				c-0.111-0.013-0.225,0.056-0.338,0.042c-0.104-0.011-0.215-0.011-0.323-0.027c-0.109-0.008-0.205-0.104-0.313-0.124
				c-0.109-0.015-0.229,0.068-0.333,0.051c-0.113-0.015-0.236,0.114-0.344,0.098c-0.104-0.017-0.208-0.06-0.313-0.076
				c-0.104-0.021-0.193-0.188-0.298-0.2c-0.104-0.021-0.231,0.096-0.342,0.084c-0.104-0.016-0.208-0.053-0.316-0.068
				c-0.111-0.016-0.187-0.204-0.295-0.215c-0.104-0.021-0.217-0.029-0.321-0.046c-0.104-0.017-0.193-0.141-0.305-0.151
				c-0.104-0.016-0.22,0.03-0.324,0.016c-0.104-0.016-0.235,0.144-0.34,0.123c-0.104-0.015-0.232,0.089-0.337,0.073
				c-0.104-0.015-0.177-0.281-0.284-0.297c-0.104-0.02-0.222,0.021-0.325,0.009c-0.104-0.018-0.2-0.133-0.304-0.147
				c-0.113-0.01-0.261,0.295-0.366,0.278c-0.104-0.021-0.164-0.383-0.268-0.399c-0.105-0.018-0.24,0.136-0.344,0.128
				c-0.105-0.017-0.233,0.112-0.337,0.097c-0.104-0.017-0.188-0.208-0.292-0.222c-0.104-0.017-0.22,0.028-0.326,0.014
				c-0.104-0.017-0.205-0.089-0.309-0.109c-0.104-0.016-0.242,0.173-0.346,0.155c-0.104-0.015-0.172-0.304-0.28-0.319
				c-0.104-0.015-0.243,0.185-0.352,0.169c-0.104-0.017-0.188-0.184-0.296-0.204c-0.104-0.018-0.196-0.146-0.301-0.164
				c-0.106-0.018-0.242,0.185-0.353,0.164c-0.108-0.018-0.228,0.095-0.338,0.079c-0.104-0.016-0.187-0.212-0.293-0.229
				c-0.104-0.015-0.212-0.032-0.316-0.043c-0.104-0.016-0.238,0.159-0.347,0.147c-0.104-0.016-0.188-0.209-0.292-0.224
				c-0.104-0.017-0.234,0.119-0.342,0.111c-0.11-0.016-0.164-0.393-0.269-0.401c-0.104-0.02-0.258,0.297-0.367,0.281
				c-0.106-0.016-0.176-0.289-0.28-0.304c-0.104-0.017-0.211-0.065-0.315-0.082c-0.104-0.016-0.232,0.121-0.342,0.104
				c-0.104-0.016-0.224,0.072-0.334,0.058c-0.104-0.017-0.196-0.153-0.3-0.169c-0.104-0.016-0.212-0.016-0.321-0.028
				c-0.106-0.015-0.219,0.004-0.323-0.011c-0.104-0.017-0.184-0.243-0.288-0.262c-0.104-0.017-0.223,0.044-0.331,0.028
				c-0.104-0.017-0.23,0.088-0.334,0.07c-0.104-0.015-0.233,0.138-0.343,0.122c-0.109-0.018-0.178-0.271-0.285-0.289
				c-0.104-0.017-0.224,0.068-0.333,0.052c-0.106-0.011-0.21-0.06-0.314-0.08c-0.104-0.013-0.192-0.188-0.296-0.199
				c-0.104-0.013-0.269,0.36-0.373,0.349c-0.104-0.016-0.212-0.034-0.316-0.041c-0.104-0.017-0.189-0.208-0.297-0.221
				c-0.11-0.012-0.227,0.068-0.334,0.054c-0.104-0.009-0.218,0.02-0.327,0.007c-0.108-0.016-0.176-0.313-0.284-0.329
				c-0.104-0.012-0.208-0.056-0.317-0.07c-0.104-0.01-0.246,0.243-0.357,0.23c-0.107-0.012-0.181-0.265-0.288-0.276
				c-0.104-0.013-0.224,0.053-0.329,0.046c-0.106-0.018-0.195-0.139-0.307-0.149c-0.104-0.013-0.224,0.068-0.328,0.052
				c-0.106-0.007-0.227,0.073-0.331,0.057c-0.104-0.018-0.23,0.08-0.334,0.067c-0.104-0.02-0.196-0.131-0.305-0.14
				c-0.106-0.016-0.193-0.169-0.303-0.185c-0.104-0.015-0.22,0.036-0.324,0.024c-0.104-0.016-0.227,0.096-0.331,0.08
				c-0.108-0.009-0.2-0.161-0.304-0.169c-0.11-0.008-0.227,0.2-0.335,0.197c-0.107-0.009-0.196-0.35-0.306-0.356
				c-0.108-0.004-0.216,0.185-0.325,0.185c-0.107,0-0.218-0.178-0.325-0.168c-0.109,0-0.224-0.033-0.332-0.024
				c-0.107,0.008-0.188,0.345-0.292,0.352c-0.104,0.013-0.234-0.159-0.338-0.144c-0.104,0.016-0.247-0.153-0.355-0.134
				c-0.104,0.021-0.126,0.438-0.231,0.462c-0.104,0.023-0.292-0.28-0.396-0.254c-0.104,0.029-0.247,0.254-0.381,0.193
				c-0.12-0.051-0.296-0.089-0.392-0.155c-0.092-0.06-0.013-0.4-0.109-0.449c-0.099-0.048-0.288,0.112-0.388,0.08
				c-0.104-0.031-0.218,0.032-0.323,0.016c-0.108-0.023-0.193-0.071-0.301-0.076c-0.108-0.004-0.217-0.164-0.323-0.155
				c-0.108,0.007-0.216,0.039-0.321,0.061c-0.107,0.02-0.234-0.014-0.334,0.015c-0.108,0.036-0.13,0.284-0.227,0.325
				c-0.104,0.043-0.162,0.128-0.254,0.176c-0.101,0.056-0.25-0.011-0.334,0.048c-0.084,0.057-0.167,0.109-0.239,0.185
				c-0.07,0.072-0.158,0.128-0.22,0.214c-0.058,0.084-0.214,0.11-0.268,0.203c-0.05,0.089,0.096,0.284,0.049,0.382
				c-0.046,0.091-0.193,0.131-0.235,0.235c-0.036,0.097,0.061,0.236,0.022,0.337c-0.033,0.095-0.177,0.153-0.204,0.257
				c-0.034,0.096-0.214,0.147-0.243,0.248c-0.03,0.1-0.042,0.204-0.072,0.305c-0.028,0.099,0.109,0.252,0.081,0.349
				c-0.031,0.101,0.049,0.232,0.02,0.329c-0.032,0.104-0.421,0.146-0.431,0.26c-0.007,0.108,0.134,0.24,0.143,0.353
				c0.004,0.112,0.096,0.22,0.11,0.328c0.012,0.108-0.034,0.224-0.021,0.336c0.012,0.113,0.218,0.209,0.226,0.313
				c0.007,0.116,0.028,0.241,0.024,0.35c-0.004,0.124-0.305,0.257-0.288,0.356c0.021,0.12,0.014,0.297,0.064,0.389
				c0.05,0.101,0.22,0.192,0.309,0.271c0.08,0.062,0.318-0.135,0.43-0.09c0.097,0.035,0.113,0.417,0.238,0.438
				c0.104,0.02,0.259-0.289,0.363-0.269c0.104,0.015,0.205,0.047,0.311,0.063c0.104,0.017,0.192,0.136,0.292,0.151
				c0.104,0.021,0.224-0.063,0.329-0.047c0.106,0.017,0.156,0.344,0.256,0.364c0.104,0.016,0.212,0.009,0.316,0.024
				c0.104,0.021,0.239-0.133,0.343-0.113c0.104,0.021,0.218-0.007,0.319,0.01c0.104,0.015,0.17,0.243,0.277,0.259
				c0.104,0.018,0.219-0.047,0.324-0.031c0.104,0.016,0.211,0.044,0.312,0.061c0.104,0.015,0.246-0.219,0.35-0.2
				c0.104,0.016,0.167,0.294,0.271,0.313c0.106,0.02,0.218-0.019,0.323-0.004c0.104,0.016,0.218-0.049,0.322-0.033
				c0.104,0.012,0.221-0.101,0.325-0.092c0.11,0.012,0.189,0.253,0.297,0.26c0.11,0.018,0.238-0.191,0.344-0.184
				c0.104,0.016,0.196,0.212,0.3,0.224c0.108,0.013,0.204,0.098,0.313,0.104c0.109,0.012,0.243-0.272,0.351-0.256
				c0.11,0.008,0.196,0.201,0.306,0.209c0.109,0.016,0.201,0.176,0.305,0.191c0.108,0.009,0.239-0.265,0.346-0.256
				c0.108,0.007,0.205,0.123,0.315,0.131c0.108,0.014,0.22-0.047,0.324-0.039c0.108,0.008,0.214,0.039,0.319,0.053
				c0.108,0.007,0.216-0.04,0.327-0.029c0.107,0.008,0.191,0.265,0.3,0.276c0.108,0.013,0.208,0.072,0.317,0.08
				c0.107,0.01,0.239-0.24,0.343-0.231c0.109,0.009,0.221-0.071,0.33-0.061c0.107,0.009,0.208,0.061,0.318,0.069
				c0.108,0.007,0.188,0.332,0.292,0.339c0.109,0.009,0.229-0.146,0.338-0.139c0.109,0.008,0.229-0.17,0.339-0.16
				c0.108,0.008,0.201,0.143,0.309,0.152c0.108,0.008,0.193,0.235,0.3,0.248c0.108,0.011,0.223-0.058,0.327-0.04
				c0.108,0.007,0.238-0.218,0.347-0.208c0.108,0.016,0.216-0.01,0.326,0.008c0.109,0.008,0.185,0.286,0.292,0.295
				c0.109,0.017,0.243-0.208,0.347-0.199c0.108,0.017,0.201,0.147,0.304,0.159c0.109,0.017,0.208,0.081,0.314,0.093
				c0.109,0.012,0.221-0.023,0.325-0.007c0.104,0.011,0.201,0.104,0.307,0.115c0.104,0.015,0.219-0.072,0.324-0.057
				c0.104,0.012,0.201,0.096,0.307,0.113c0.104,0.012,0.233-0.208,0.342-0.196c0.104,0.011,0.188,0.213,0.296,0.224
				c0.104,0.013,0.205,0.08,0.309,0.093c0.104,0.012,0.201,0.111,0.305,0.129c0.105,0.007,0.233-0.229,0.342-0.218
				c0.106,0.016,0.184,0.273,0.288,0.284c0.106,0.014,0.219-0.06,0.326-0.052c0.109,0.007,0.223-0.098,0.327-0.08
				c0.104,0.012,0.208,0.041,0.313,0.052c0.104,0.014,0.188,0.229,0.293,0.244c0.104,0.013,0.222-0.092,0.33-0.081
				c0.104,0.015,0.201,0.11,0.305,0.126c0.106,0.013,0.214-0.007,0.318,0.013c0.104,0.007,0.238-0.169,0.343-0.153
				c0.104,0.015,0.226-0.055,0.33-0.04c0.104,0.016,0.208,0.051,0.313,0.069c0.104,0.016,0.193,0.124,0.297,0.148
				c0.106,0.02,0.2,0.087,0.306,0.104c0.104,0.021,0.179,0.176,0.283,0.2c0.106,0.02,0.238-0.104,0.344-0.081
				c0.104,0.024,0.205,0.065,0.305,0.09c0.104,0.021,0.23-0.033,0.331-0.004c0.104,0.023,0.128,0.335,0.232,0.363
				c0.106,0.033,0.313-0.328,0.414-0.297c0.104,0.028,0.192,0.104,0.297,0.137c0.104,0.028,0.193,0.104,0.297,0.132
				c0.1,0.028,0.145,0.265,0.249,0.301c0.104,0.033,0.191,0.096,0.289,0.129c0.104,0.035,0.215,0.035,0.315,0.063
				c0.102,0.031,0.286-0.192,0.39-0.159c0.1,0.035,0.211,0.042,0.312,0.079c0.101,0.032,0.161,0.2,0.261,0.233
				c0.1,0.031,0.172,0.159,0.268,0.194c0.104,0.034,0.289-0.188,0.393-0.154c0.098,0.031,0.186,0.111,0.289,0.146
				c0.097,0.033,0.112,0.331,0.208,0.365c0.104,0.031,0.281-0.143,0.377-0.104c0.104,0.031,0.156,0.2,0.257,0.239
				c0.1,0.034,0.239-0.046,0.344-0.015c0.101,0.031,0.205,0.057,0.305,0.097c0.101,0.035,0.233-0.017,0.338,0.015
				c0.097,0.032,0.175,0.137,0.274,0.174c0.102,0.035,0.222,0.015,0.326,0.046c0.095,0.037,0.08,0.431,0.175,0.466
				c0.104,0.035,0.209,0.06,0.306,0.097c0.104,0.036,0.235-0.027,0.336,0.004c0.102,0.032,0.233-0.017,0.331,0.015
				c0.104,0.033,0.239-0.043,0.343-0.015c0.1,0.032,0.112,0.344,0.217,0.382c0.101,0.035,0.296-0.238,0.399-0.209
				c0.104,0.026,0.138,0.274,0.242,0.304c0.104,0.028,0.265-0.149,0.368-0.116c0.104,0.028,0.156,0.233,0.261,0.265
				c0.107,0.028,0.251-0.113,0.355-0.089c0.104,0.033,0.206,0.058,0.31,0.08c0.104,0.023,0.229-0.022,0.324,0
				c0.104,0.023,0.193,0.121,0.297,0.145c0.104,0.024,0.199,0.057,0.304,0.084c0.104,0.023,0.178,0.201,0.281,0.221
				c0.104,0.021,0.209,0.064,0.313,0.089c0.104,0.02,0.2,0.092,0.304,0.107c0.104,0.02,0.248-0.191,0.353-0.176
				c0.104,0.021,0.217-0.016,0.321,0c0.106,0.021,0.191,0.141,0.304,0.153c0.1,0.011,0.208,0.187,0.337,0.195
				c0.111,0.008,0.244-0.153,0.36-0.149c0.128,0.004,0.248,0.134,0.359,0.134c0.193-0.009,0.347-0.089,0.354-0.112
				c0.016-0.111-0.041-0.209-0.052-0.298c-0.02-0.111-0.142-0.103-0.197-0.176c-0.063-0.076-0.07-0.132-0.163-0.177
				c-0.089-0.04-0.101-0.289-0.196-0.313c-0.097-0.023-0.272,0.253-0.369,0.232c-0.096-0.024-0.208-0.096-0.287-0.129
				c-0.104-0.04-0.137-0.255-0.233-0.288c-0.101-0.04-0.232,0.014-0.337-0.024c-0.097-0.03-0.231,0.033-0.333-0.007
				c-0.1-0.035-0.164-0.169-0.269-0.2c-0.096-0.032-0.168-0.167-0.272-0.196c-0.095-0.033-0.199-0.052-0.304-0.084
				c-0.104-0.036-0.193-0.104-0.297-0.134c-0.096-0.035-0.265,0.124-0.36,0.09c-0.104-0.035-0.177-0.148-0.281-0.185
				c-0.096-0.031-0.239,0.06-0.344,0.029c-0.101-0.033-0.16-0.186-0.265-0.223c-0.105-0.031-0.156-0.216-0.256-0.252
				c-0.101-0.031-0.178-0.14-0.278-0.176c-0.099-0.039-0.287,0.184-0.387,0.149s-0.162-0.182-0.267-0.218
				c-0.1-0.036-0.16-0.18-0.255-0.221c-0.104-0.032-0.218-0.023-0.313-0.063c-0.104-0.042-0.257,0.063-0.361,0.019
				c-0.096-0.039-0.156-0.164-0.257-0.208c-0.097-0.044-0.249,0.036-0.354-0.009c-0.095-0.045-0.21-0.052-0.307-0.1
				c-0.097-0.049-0.129-0.224-0.221-0.272c-0.093-0.048-0.16-0.145-0.258-0.193c-0.095-0.046-0.215-0.056-0.308-0.106
				c-0.093-0.053-0.26,0.011-0.348-0.044c-0.097-0.065-0.12-0.232-0.185-0.289c-0.097-0.077,0.016-0.256-0.023-0.332
				c-0.05-0.094-0.036-0.069-0.01-0.174c0.017-0.08-0.063-0.185-0.007-0.288c0.048-0.079,0.136-0.129,0.201-0.221
				C31.138,43.161,31.107,43.053,31.172,42.97z M26.475,46.039c-0.038-0.129-0.07-0.306-0.104-0.435
				c-0.104-0.026-0.2-0.199-0.3-0.223c-0.104-0.027-0.269,0.164-0.368,0.136c-0.104-0.032-0.139-0.296-0.243-0.325
				c-0.104-0.026-0.262,0.158-0.367,0.124c-0.106-0.027-0.242,0.089-0.345,0.065c-0.104-0.024-0.146-0.313-0.25-0.333
				c-0.104-0.021-0.204-0.108-0.309-0.124c-0.104-0.017-0.219-0.064-0.323-0.071c-0.108-0.017-0.22-0.033-0.328-0.04
				c-0.111-0.019-0.243,0.225-0.353,0.215c-0.108-0.007-0.213-0.088-0.321-0.095c-0.11-0.009-0.207-0.193-0.318-0.201
				c-0.109-0.007-0.225,0.072-0.338,0.068c-0.109-0.009-0.235,0.192-0.343,0.184c-0.109-0.008-0.208-0.147-0.323-0.147
				c-0.108-0.008-0.22,0-0.329-0.008c-0.111-0.009-0.234,0.199-0.343,0.199c-0.11-0.007-0.196-0.372-0.307-0.383
				c-0.108-0.01-0.217-0.024-0.325-0.033c-0.11-0.008-0.218-0.025-0.327-0.032c-0.108-0.008-0.222,0-0.331-0.008
				c-0.108-0.008-0.234,0.153-0.342,0.144c-0.108-0.012-0.205-0.168-0.313-0.184c-0.109-0.009-0.206-0.071-0.314-0.089
				c-0.107-0.007-0.212-0.023-0.316-0.035c-0.111-0.013-0.21-0.052-0.315-0.068c-0.104-0.017-0.262,0.329-0.37,0.313
				c-0.107-0.017-0.181-0.249-0.29-0.265c-0.106-0.017-0.214-0.031-0.318-0.048c-0.104-0.021-0.223,0.008-0.327-0.008
				c-0.104-0.017-0.229,0.076-0.335,0.06c-0.104-0.015-0.204-0.083-0.308-0.101c-0.104-0.017-0.188-0.205-0.296-0.216
				c-0.108-0.017-0.25,0.244-0.354,0.233c-0.11-0.015-0.21-0.049-0.319-0.057c-0.107-0.017-0.216,0.016-0.323,0.008
				c-0.107-0.008-0.189-0.256-0.3-0.264c-0.108-0.011-0.221,0.07-0.329,0.083c-0.111,0.004-0.238-0.177-0.349-0.163
				c-0.108,0.011-0.217,0.055-0.321,0.069c-0.108,0.019-0.172,0.294-0.281,0.309c-0.107,0.019-0.216,0.077-0.322,0.09
				c-0.108,0.012-0.232-0.124-0.339-0.124c-0.108,0-0.205-0.121-0.309-0.132c-0.104-0.013-0.226,0.072-0.33,0.035
				c-0.1-0.024-0.179-0.112-0.274-0.159c-0.093-0.049-0.249-0.008-0.339-0.077c-0.064-0.045-0.234-0.235-0.318-0.199
				c-0.1,0.043-0.059,0.403-0.158,0.451c-0.101,0.046-0.211,0.064-0.311,0.108c-0.101,0.045-0.309-0.159-0.409-0.112
				c-0.1,0.045-0.159,0.173-0.258,0.221c-0.1,0.048-0.223,0.041-0.323,0.085c-0.1,0.043-0.134,0.235-0.233,0.28
				c-0.101,0.044-0.221,0.04-0.317,0.084c-0.1,0.048-0.214,0.06-0.315,0.104c-0.1,0.04-0.212,0.056-0.313,0.101
				c-0.1,0.044-0.2,0.084-0.301,0.128c-0.1,0.045-0.196,0.101-0.298,0.149c-0.104,0.104-0.183,0.22-0.287,0.324
				c0.109,0.059,0.141,0.252,0.255,0.301c0.112,0.049,0.212,0.096,0.32,0.152c0.111,0.061,0.353-0.078,0.445,0
				c0.074,0.071,0.024,0.28,0.104,0.348c0.074,0.071,0.086,0.205,0.163,0.277c0.075,0.071,0.405-0.112,0.477-0.04
				c0.07,0.071-0.104,0.375-0.037,0.452c0.065,0.08,0.276,0.049,0.33,0.132c0.058,0.088-0.042,0.253,0.003,0.346
				c0.046,0.096,0.292,0.092,0.339,0.193c0.045,0.095-0.134,0.299-0.088,0.396c0.046,0.096,0.285,0.108,0.331,0.205
				c0.045,0.095,0.162,0.155,0.208,0.255c0.046,0.097-0.17,0.313-0.127,0.409c0.04,0.097,0.286,0.104,0.332,0.209
				c0.042,0.091,0.011,0.225,0.056,0.319c0.041,0.098,0.188,0.153,0.229,0.254c0.042,0.1,0.201,0.148,0.243,0.247
				c0.042,0.098-0.229,0.333-0.188,0.433c0.042,0.102,0.23,0.134,0.272,0.229c0.042,0.097,0.07,0.2,0.117,0.305
				c0.042,0.097,0.042,0.217,0.084,0.313c0.045,0.097,0.054,0.213,0.096,0.309c0.046,0.097,0.112,0.185,0.158,0.281
				c0.034,0.072,0.193,0.097,0.293,0.164c0.083,0.052,0.122,0.249,0.218,0.281c0.116,0.043,0.225-0.193,0.297-0.219
				c0.104-0.034,0.2-0.079,0.304-0.123c0.104-0.036,0.269,0.089,0.374,0.044c0.104-0.04,0.184-0.129,0.289-0.168
				c0.104-0.04,0.22-0.04,0.32-0.084c0.103-0.043,0.184-0.132,0.285-0.177c0.1-0.044,0.256,0.036,0.356-0.004
				c0.101-0.04,0.233-0.009,0.339-0.048c0.1-0.044,0.116-0.289,0.221-0.333c0.1-0.04,0.208-0.066,0.311-0.111
				c0.1-0.045,0.128-0.244,0.228-0.292c0.101-0.049,0.293,0.115,0.393,0.076c0.1-0.045,0.219-0.053,0.319-0.097
				c0.101-0.045,0.18-0.14,0.277-0.188c0.1-0.049,0.132-0.224,0.232-0.277c0.092-0.043,0.261,0.062,0.353,0.009
				c0.09-0.052,0.082-0.267,0.17-0.321c0.087-0.05,0.346,0.174,0.431,0.117c0.088-0.056,0.08-0.256,0.166-0.313
				c0.084-0.056,0.114-0.201,0.196-0.261c0.084-0.06,0.269,0.028,0.353-0.028c0.083-0.056,0.208-0.061,0.293-0.111
				c0.082-0.061,0.191-0.08,0.274-0.138c0.087-0.056,0.122-0.185,0.206-0.239c0.108-0.069,0.2-0.16,0.325-0.208
				c0.1-0.036,0.247,0.044,0.347,0.009c0.102-0.041,0.172-0.167,0.277-0.201c0.104-0.042,0.25,0.056,0.354,0.02
				c0.105-0.037,0.198-0.092,0.302-0.131c0.104-0.038,0.212-0.054,0.313-0.09c0.104-0.04,0.223-0.033,0.323-0.063
				c0.101-0.04,0.088-0.397,0.192-0.434c0.1-0.04,0.254,0.068,0.358,0.031c0.104-0.039,0.201-0.091,0.3-0.128
				c0.101-0.035,0.223-0.026,0.322-0.064c0.101-0.04,0.231-0.007,0.332-0.047c0.1-0.037,0.162-0.178,0.266-0.217
				c0.1-0.035,0.261,0.068,0.365,0.032c0.1-0.039,0.183-0.132,0.289-0.177c0.101-0.039,0.132-0.252,0.232-0.297
				c0.102-0.04,0.269,0.073,0.368,0.033c0.101-0.04,0.219-0.058,0.319-0.1c0.1-0.045,0.201-0.089,0.301-0.134
				c0.1-0.047,0.096-0.321,0.196-0.363c0.092-0.044,0.327,0.216,0.413,0.172c0.089-0.048,0.065-0.313,0.15-0.357
				c0.088-0.044,0.238,0.02,0.327-0.026c0.087-0.049,0.054-0.306,0.138-0.354C26.216,45.99,26.39,46.087,26.475,46.039z
				 M35.964,37.969c0.107,0.016,0.249,0.071,0.354,0.092c0.11,0.015,0.2,0.156,0.305,0.172c0.104,0.021,0.243-0.192,0.352-0.176
				c0.107,0.017,0.18,0.271,0.284,0.289c0.108,0.017,0.245-0.186,0.356-0.168c0.108,0.015,0.233-0.113,0.338-0.103
				c0.108,0.018,0.175,0.298,0.282,0.311c0.11,0.016,0.21,0.092,0.319,0.104c0.104,0.015,0.208,0.05,0.32,0.063
				c0.104,0.012,0.215,0.027,0.323,0.041c0.108,0.007,0.236-0.232,0.341-0.222c0.111,0.013,0.209,0.088,0.313,0.101
				c0.107,0.012,0.191,0.205,0.301,0.216c0.104,0.017,0.224-0.064,0.328-0.049c0.104,0.017,0.246-0.175,0.351-0.159
				c0.104,0.016,0.195,0.159,0.299,0.176c0.108,0.018,0.213,0.018,0.321,0.032c0.109,0.009,0.235-0.192,0.349-0.185
				c0.108,0.017,0.177,0.385,0.281,0.394c0.111,0.008,0.22,0.023,0.328,0.03c0.107,0.01,0.224,0.021,0.328,0.024
				c0.104,0.005,0.217-0.011,0.328-0.015c0.108,0,0.213-0.177,0.317-0.18c0.108-0.004,0.229,0.131,0.332,0.115
				c0.104-0.011,0.232,0.024,0.337,0.004c0.104-0.015,0.22-0.04,0.328-0.068c0.104-0.023,0.224-0.031,0.328-0.064
				c0.098-0.031,0.088-0.408,0.185-0.448c0.104-0.035,0.281,0.12,0.386,0.076c0.095-0.045,0.192-0.097,0.288-0.149
				c0.089-0.051,0.16-0.148,0.252-0.208c0.089-0.056,0.116-0.2,0.2-0.271c0.029-0.017,0.108,0.027,0.141,0.019
				c0.104-0.035,0.266,0.103,0.369,0.069c0.111-0.036,0.137-0.334,0.245-0.365c0.108-0.036,0.219-0.043,0.331-0.077
				c0.104-0.03,0.2-0.104,0.305-0.135c0.112-0.035,0.289,0.155,0.393,0.124c0.104-0.035,0.185-0.148,0.289-0.185
				c0.111-0.035,0.28,0.108,0.385,0.069c0.104-0.033,0.208-0.097,0.313-0.141c0.104-0.041,0.108-0.324,0.212-0.373
				c0.108-0.044,0.165-0.124,0.245-0.177c0.104-0.059,0.264,0,0.321-0.066c0.08-0.09,0.232-0.174,0.239-0.274
				c0.009-0.095-0.116-0.204-0.159-0.316c-0.037-0.089-0.049-0.208-0.114-0.305c-0.046-0.084-0.208-0.104-0.278-0.199
				c-0.065-0.089,0.079-0.297,0.035-0.4c-0.044-0.098-0.413-0.08-0.448-0.193c-0.034-0.112-0.045-0.232-0.077-0.341
				c-0.036-0.107,0.185-0.3,0.147-0.409c-0.035-0.092-0.154-0.148-0.184-0.236c-0.028-0.095-0.004-0.204-0.036-0.295
				c-0.031-0.112-0.232-0.169-0.275-0.282c-0.045-0.111-0.045-0.243-0.076-0.355c-0.034-0.117-0.023-0.249-0.034-0.364
				c0-0.108,0.03-0.213,0.018-0.317c-0.018-0.108-0.024-0.213-0.041-0.317c-0.022-0.104-0.06-0.199-0.096-0.304
				c-0.03-0.104-0.096-0.185-0.144-0.281c-0.05-0.096,0.048-0.279-0.012-0.368c-0.062-0.084-0.149-0.188-0.221-0.26
				c-0.075-0.077-0.32,0.052-0.408,0c-0.089-0.053-0.098-0.269-0.201-0.301c-0.097-0.031-0.205-0.152-0.309-0.17
				c-0.101-0.011-0.216,0.347-0.328,0.349c-0.109,0.006-0.237-0.323-0.333-0.314c-0.104,0.016-0.184,0.216-0.289,0.23
				c-0.096,0.021-0.247-0.119-0.345-0.091c-0.1,0.028-0.127,0.272-0.225,0.313c-0.095,0.036-0.303-0.14-0.393-0.093
				c-0.088,0.053-0.068,0.288-0.152,0.354c-0.084,0.056-0.104,0.185-0.179,0.256c-0.076,0.068-0.358-0.051-0.422,0.028
				c-0.067,0.076,0.044,0.296-0.016,0.38c-0.052,0.088-0.176,0.132-0.229,0.226c-0.051,0.095-0.004,0.24-0.051,0.336
				c-0.053,0.089,0,0.248-0.053,0.341c-0.052,0.093-0.404,0.012-0.461,0.104c-0.052,0.093,0.023,0.265-0.031,0.348
				c-0.058,0.098-0.129,0.178-0.188,0.266c-0.061,0.083-0.164,0.145-0.224,0.225c-0.064,0.088-0.162,0.145-0.223,0.228
				c-0.067,0.085-0.11,0.176-0.183,0.261c-0.071,0.08-0.069,0.221-0.141,0.301c-0.068,0.076-0.261,0.039-0.333,0.111
				c-0.077,0.077,0.024,0.341-0.06,0.41c-0.076,0.071-0.163,0.148-0.245,0.212c-0.085,0.063-0.276-0.017-0.364,0.048
				c-0.088,0.057-0.148,0.161-0.237,0.217c-0.096,0.056-0.199,0.071-0.296,0.12c-0.097,0.053-0.167,0.147-0.265,0.192
				c-0.096,0.048-0.253-0.028-0.349,0.016c-0.096,0.048-0.237,0.023-0.332,0.067c-0.097,0.046-0.097,0.293-0.193,0.341
				c-0.096,0.049-0.199,0.08-0.304,0.129c-0.097,0.048-0.113,0.256-0.209,0.306c-0.096,0.046-0.296-0.102-0.393-0.05
				c-0.096,0.05-0.208,0.061-0.306,0.113c-0.094,0.047-0.166,0.145-0.263,0.195c-0.096,0.054-0.12,0.229-0.216,0.284
				c-0.098,0.049-0.272-0.047-0.37,0.009c-0.096,0.049-0.096,0.272-0.191,0.323c-0.097,0.054-0.346-0.183-0.44-0.127
				c-0.098,0.052-0.108,0.252-0.204,0.309c-0.098,0.048-0.142,0.195-0.236,0.249c-0.097,0.047-0.274-0.054-0.369,0
				C36.164,37.792,36.06,37.911,35.964,37.969z M6.709,46.13c-0.062,0.08-0.15,0.208-0.17,0.327
				c-0.018,0.095-0.151,0.231-0.142,0.352c0.008,0.1,0.254,0.184,0.278,0.296c0.022,0.102-0.178,0.275-0.146,0.385
				c0.034,0.101,0.276,0.134,0.318,0.24c0.039,0.097,0.213,0.137,0.258,0.237c0.047,0.095-0.154,0.308-0.104,0.407
				c0.051,0.098,0.042,0.229,0.097,0.326c0.05,0.095,0.083,0.208,0.143,0.304c0.054,0.089,0.108,0.193,0.167,0.288
				c0.059,0.089,0.325,0.049,0.389,0.142c0.063,0.091,0.07,0.216,0.132,0.304c0.064,0.089-0.012,0.284,0.05,0.373
				c0.068,0.089,0.21,0.119,0.281,0.204c0.066,0.089,0.296,0.035,0.369,0.12c0.07,0.084,0.046,0.253,0.116,0.332
				c0.076,0.089,0.159,0.157,0.234,0.232c0.074,0.079,0.309-0.004,0.385,0.072c0.078,0.072-0.081,0.413,0,0.485
				c0.084,0.077,0.17,0.157,0.254,0.22c0.088,0.072,0.18,0.152,0.269,0.209c0.09,0.065,0.208,0.111,0.3,0.165
				c0.101,0.05,0.28-0.045,0.375-0.009c0.106,0.04,0.319,0.156,0.419,0.173c-0.062-0.089-0.08-0.341-0.138-0.434
				c-0.058-0.092-0.107-0.181-0.162-0.275c-0.055-0.096-0.085-0.196-0.135-0.294c-0.05-0.095-0.423-0.031-0.466-0.128
				c-0.047-0.099,0.1-0.292,0.058-0.388c-0.047-0.101-0.092-0.197-0.134-0.298c-0.046-0.099-0.13-0.184-0.173-0.283
				c-0.04-0.101-0.187-0.159-0.228-0.262c-0.042-0.099-0.038-0.221-0.08-0.32s0.072-0.271,0.03-0.372
				c-0.045-0.1-0.342-0.084-0.388-0.185c-0.046-0.101-0.076-0.205-0.123-0.3c-0.05-0.097-0.134-0.174-0.185-0.27
				c-0.05-0.095,0.1-0.303,0.047-0.4c-0.054-0.096-0.189-0.14-0.247-0.233c-0.058-0.091,0.034-0.295-0.032-0.384
				c-0.068-0.088-0.16-0.168-0.23-0.248c-0.071-0.089-0.338,0.007-0.415-0.073c-0.073-0.071-0.174-0.111-0.259-0.184
				c-0.08-0.072-0.065-0.253-0.158-0.319c-0.088-0.061-0.114-0.223-0.204-0.281c-0.092-0.061-0.243-0.028-0.339-0.08
				C6.918,46.265,6.813,46.175,6.709,46.13z"/>
		</g>
		<g>
			<path d="M35.563,25.858c0.089-0.064,0.35-0.16,0.434-0.225c0.089-0.068,0.012-0.345,0.101-0.405
				c0.088-0.068,0.147-0.164,0.236-0.229c0.088-0.064,0.15-0.152,0.239-0.216c0.089-0.064,0.241-0.037,0.328-0.101
				c0.082-0.06,0.177-0.112,0.267-0.172c0.084-0.064,0.239-0.04,0.319-0.104c0.084-0.064,0.182-0.112,0.269-0.176
				c0.084-0.064,0.052-0.008,0.148-0.072c0,0.107-0.007,0.044-0.007,0.152c0,0.104,0.07,0.208,0.07,0.313
				c0,0.112,0.033,0.216,0.033,0.32c0,0.109-0.148,0.213-0.148,0.317s0.264,0.212,0.264,0.316c0,0.104,0.012,0.217,0.012,0.321
				c0,0.108-0.101,0.212-0.101,0.316c0,0.104-0.163,0.213-0.163,0.317c0,0.104,0.144,0.216,0.144,0.32
				c0,0.104-0.155,0.208-0.155,0.313s0.16,0.208,0.155,0.316c0,0.104,0.162,0.208,0.162,0.316c0,0.104-0.31,0.208-0.31,0.313
				s0.037,0.208,0.037,0.313c0,0.108-0.04,0.341-0.04,0.444c0.127,0.021,0.363-0.085,0.468-0.067
				c0.133,0.032,0.164,0.229,0.253,0.271c0.123,0.054,0.228,0,0.279,0.08c0.062,0.089,0.122,0.158,0.113,0.286
				c-0.009,0.096-0.096,0.18-0.145,0.304c-0.035,0.097-0.177,0.148-0.229,0.264c-0.054,0.097,0.26,0.377,0.213,0.474
				c-0.048,0.097-0.201,0.141-0.248,0.235c-0.054,0.098-0.241,0.12-0.289,0.218c-0.053,0.095,0.017,0.258-0.038,0.353
				c-0.05,0.097-0.268,0.101-0.319,0.195c-0.052,0.098-0.156,0.165-0.203,0.261c-0.054,0.096,0.185,0.345,0.131,0.441
				c-0.051,0.097-0.155,0.16-0.212,0.256c-0.057,0.098-0.241,0.117-0.289,0.208c-0.056,0.098,0.024,0.266-0.032,0.358
				c-0.052,0.097-0.313,0.066-0.364,0.163c-0.057,0.088,0.013,0.258-0.045,0.35c-0.051,0.091-0.123,0.176-0.175,0.272
				c-0.056,0.091-0.096,0.195-0.149,0.289c-0.051,0.091,0.061,0.288,0.004,0.379c-0.055,0.09-0.247,0.102-0.305,0.193
				c-0.056,0.088-0.103,0.184-0.164,0.281c-0.06,0.095-0.251,0.08-0.332,0.168c-0.08,0.08-0.128,0.185-0.225,0.26
				c-0.087,0.073-0.191,0.113-0.296,0.177c-0.096,0.061-0.048,0.373-0.148,0.428c-0.104,0.061-0.394-0.2-0.493-0.139
				c-0.096,0.06-0.039,0.377-0.144,0.436c-0.097,0.057-0.34-0.14-0.438-0.08c-0.1,0.052-0.116,0.261-0.212,0.316
				c-0.104,0.053-0.289-0.063-0.393-0.012c-0.104,0.049-0.2,0.088-0.305,0.137c-0.104,0.048-0.096,0.36-0.199,0.4
				c-0.113,0.04-0.232,0.048-0.341,0.085c-0.11,0.035-0.229,0.06-0.343,0.079c-0.115,0.02-0.252-0.155-0.368-0.148
				c-0.111,0.018-0.224-0.052-0.344-0.048c-0.112,0.003-0.221,0.226-0.336,0.229c-0.113,0.003-0.237-0.208-0.349-0.205
				c-0.117,0.004-0.246,0.226-0.356,0.232c-0.024-0.124,0.11-0.209,0.095-0.337c0.089-0.041,0.024-0.195,0.113-0.24
				c0.095-0.044,0.16-0.155,0.256-0.193c0.097-0.039,0.272,0.242,0.371,0.226c0.109-0.024,0.165-0.3,0.27-0.321
				c0.108-0.023,0.221-0.009,0.325-0.035c0.104-0.023,0.212-0.044,0.316-0.078c0.104-0.025,0.273,0.143,0.374,0.104
				c0.107-0.031,0.123-0.313,0.219-0.348c0.104-0.035,0.169-0.148,0.268-0.192c0.101-0.044,0.327,0.188,0.422,0.141
				c0.097-0.043,0.2-0.097,0.288-0.147c0.097-0.054,0.164-0.162,0.261-0.214c0.093-0.056,0.196-0.104,0.289-0.16
				c0.092-0.056,0.196-0.108,0.279-0.171c0.088-0.061,0.157-0.165,0.237-0.225c0.09-0.064,0.14-0.178,0.225-0.245
				c0.08-0.072,0.048-0.264,0.123-0.34c0.08-0.073,0.133-0.162,0.213-0.236c0.076-0.08,0.12-0.177,0.193-0.254
				c0.071-0.08,0.232-0.076,0.304-0.155c0.073-0.08,0.313-0.029,0.377-0.113c0.068-0.084-0.072-0.328-0.011-0.417
				c0.063-0.088,0.14-0.163,0.195-0.252c0.06-0.084,0.365-0.021,0.425-0.111c0.056-0.094-0.073-0.297-0.018-0.393
				c0.054-0.094,0.122-0.182,0.169-0.272c0.049-0.098-0.016-0.253,0.032-0.35c0.052-0.097,0.112-0.177,0.16-0.276
				c0.048-0.107,0.284-0.132,0.329-0.229c0.044-0.117,0.201-0.201,0.228-0.305c0.033-0.111-0.124-0.28-0.106-0.394
				c0.011-0.111-0.192-0.208-0.201-0.319c-0.017-0.108,0.184-0.257,0.14-0.372c-0.036-0.101-0.164-0.164-0.22-0.277
				c-0.049-0.088-0.217-0.116-0.284-0.216c-0.065-0.088-0.053-0.257-0.084-0.361c-0.033-0.104-0.048-0.226-0.065-0.336
				c-0.012-0.104-0.147-0.224-0.152-0.329c-0.007-0.112,0.202-0.224,0.205-0.337c0.004-0.108,0.117-0.212,0.121-0.32
				c0.007-0.112-0.004-0.225,0-0.329c0.007-0.116-0.112-0.228-0.112-0.337c0.004-0.096,0.028-0.196,0.043-0.292
				c0.008-0.096,0.112-0.176,0.132-0.272c0.021-0.096-0.175-0.245-0.156-0.341c0.024-0.095,0.017-0.192,0.041-0.288
				c0.024-0.096,0.412-0.201,0.433-0.296c-0.064-0.037-0.317-0.141-0.384-0.177c-0.104,0.064-0.098,0.396-0.202,0.457
				c-0.104,0.068-0.18,0.156-0.28,0.229c-0.087,0.06-0.264,0.003-0.352,0.04c-0.097,0.044-0.201,0.125-0.298,0.14
				c-0.095,0.012-0.239,0.081-0.341,0.061c-0.091-0.017-0.091-0.373-0.188-0.413c-0.088-0.04-0.128-0.108-0.212-0.168
				c-0.102-0.064-0.212-0.037-0.276-0.104c-0.076-0.081-0.373-0.041-0.406-0.136c-0.034-0.092,0.254-0.252,0.254-0.369
				c0-0.097,0.063-0.176,0.076-0.293c0.012-0.107-0.35-0.252-0.341-0.365c0.008-0.107-0.016-0.212-0.016-0.325
				c0.007-0.107,0.243-0.208,0.243-0.323c0-0.104,0.054-0.217,0.054-0.33c0-0.107-0.208-0.216-0.208-0.324s0.087-0.22,0.087-0.333
				c-0.007-0.112,0.184-0.224,0.184-0.336c-0.003-0.109-0.063-0.216-0.063-0.329c0-0.112-0.104-0.232-0.104-0.344
				c-0.09,0.063-0.124,0.205-0.201,0.264c-0.081,0.064-0.104,0.204-0.185,0.265c-0.08,0.063-0.17,0.121-0.249,0.185
				c-0.084,0.06-0.225,0.044-0.309,0.096c-0.092,0.064-0.265-0.024-0.353,0.023c-0.1,0.049-0.182,0.096-0.268,0.133
				c-0.104,0.036-0.193,0.028-0.288,0.036c-0.104,0.008-0.251,0.225-0.347,0.188c-0.095-0.032-0.039-0.32-0.129-0.397
				c-0.065-0.064-0.362,0.056-0.428-0.04c-0.052-0.08,0.053-0.273,0.004-0.373c-0.039-0.088,0.088-0.244,0.049-0.348
				c-0.032-0.104-0.209-0.152-0.245-0.257c-0.036-0.104-0.244-0.148-0.277-0.252c-0.035-0.104,0.122-0.269,0.081-0.373
				c-0.032-0.104-0.316-0.12-0.352-0.224c-0.032-0.104,0.216-0.3,0.185-0.405c-0.038-0.108,0.022-0.236-0.008-0.344
				c-0.037-0.104-0.17-0.172-0.201-0.277c-0.032-0.107-0.345-0.116-0.386-0.22c-0.03-0.104-0.026-0.221-0.063-0.322
				c-0.031-0.104,0.133-0.276,0.097-0.38c-0.033-0.104-0.182,0.016-0.217-0.088c-0.073,0.081,0,0.041-0.073,0.121
				c-0.07,0.08-0.079,0.216-0.15,0.292c-0.073,0.08-0.451-0.108-0.517-0.028c-0.073,0.08-0.073,0.224-0.143,0.305
				c-0.07,0.08-0.016,0.277-0.086,0.357c-0.073,0.076-0.242,0.068-0.313,0.148c-0.072,0.08-0.117,0.184-0.184,0.264
				c-0.064,0.081-0.213,0.092-0.282,0.172c-0.072,0.076-0.088,0.205-0.154,0.285c-0.085,0.096-0.189,0.12-0.273,0.176
				c-0.104,0.081-0.164,0.089-0.261,0.104c-0.115,0.029-0.193,0.128-0.297,0.088c-0.095-0.037-0.215-0.056-0.312-0.141
				c-0.081-0.068-0.107-0.192-0.185-0.289c-0.056-0.076-0.031-0.216-0.096-0.295c-0.056-0.082-0.265-0.052-0.32-0.129
				c-0.057-0.08-0.032-0.22-0.093-0.301c-0.052-0.076-0.028-0.216-0.087-0.296c-0.052-0.08-0.1-0.168-0.165-0.252
				c-0.052-0.081-0.208,0.112-0.27,0.027c-0.042,0.121-0.166,0.057-0.201,0.156c-0.042,0.121-0.062,0.237-0.1,0.333
				c-0.042,0.112-0.176,0.18-0.218,0.288c-0.037,0.104,0.16,0.297,0.122,0.393c-0.038,0.104-0.218,0.153-0.254,0.253
				c-0.038,0.101,0.108,0.268,0.07,0.372c-0.039,0.101-0.354,0.101-0.393,0.201c-0.038,0.1,0.03,0.24-0.012,0.345
				c-0.039,0.097,0.054,0.252,0.012,0.353c-0.042,0.1-0.242,0.136-0.284,0.232c-0.042,0.104-0.235,0.132-0.28,0.229
				c-0.045,0.092-0.024,0.22-0.074,0.316c-0.05,0.101-0.027,0.241-0.089,0.329c-0.065,0.096-0.204,0.112-0.283,0.18
				c-0.089,0.084-0.101,0.22-0.205,0.249c-0.1,0.024-0.167-0.064-0.285-0.116c-0.088-0.036-0.28,0.063-0.376-0.024
				c-0.071-0.064-0.101-0.012-0.179-0.112c-0.05,0.095-0.226-0.072-0.276,0.023c-0.051,0.096-0.089,0.2-0.143,0.297
				c-0.054,0.096-0.024,0.236-0.074,0.328c-0.056,0.097-0.115,0.189-0.172,0.281c-0.054,0.096-0.07,0.212-0.126,0.309
				c-0.054,0.096-0.254,0.104-0.308,0.2c-0.054,0.096,0.087,0.305,0.038,0.396c-0.055,0.097-0.264,0.101-0.319,0.196
				c-0.054,0.097-0.066,0.213-0.116,0.309s-0.184,0.152-0.235,0.249c-0.049,0.096-0.058,0.216-0.108,0.316
				c-0.05,0.101-0.05,0.221-0.092,0.325c-0.046,0.096,0.003,0.24-0.039,0.341s-0.007,0.228-0.045,0.333
				c-0.037,0.104-0.347,0.113-0.381,0.217c-0.033,0.104,0.06,0.249,0.03,0.353c-0.03,0.104-0.042,0.216-0.063,0.321
				c-0.021,0.111-0.146,0.192-0.176,0.304c-0.023,0.109-0.058,0.209-0.083,0.318c-0.029,0.104,0.045,0.234,0.018,0.348
				c-0.03,0.104-0.03,0.22-0.059,0.328c-0.03,0.108,0.017,0.232-0.01,0.346c-0.023,0.103,0,0.224-0.023,0.332
				c-0.026,0.107-0.038,0.211-0.059,0.319c-0.022,0.109-0.045,0.214-0.064,0.324c-0.016,0.104-0.167,0.202-0.177,0.314
				c-0.015,0.107-0.009,0.22-0.015,0.331c-0.004,0.109,0.202,0.222,0.206,0.326c0.005,0.111-0.284,0.239-0.276,0.348
				c0.012,0.107,0.301,0.177,0.323,0.288c0.021,0.108-0.285,0.289-0.257,0.396c0.03,0.113,0.293,0.152,0.327,0.263
				c0.038,0.106-0.117,0.295-0.07,0.396c0.045,0.104,0.363,0.064,0.42,0.161c0.059,0.104-0.088,0.327-0.02,0.416
				c0.069,0.089,0.308,0.02,0.389,0.1c0.078,0.076,0.065,0.244,0.154,0.317c0.087,0.068,0.2,0.096,0.296,0.16
				c0.093,0.056,0.239,0.016,0.339,0.072c0.084,0.048,0.034,0.289,0.1,0.364c0.062,0.073,0.168,0.109,0.222,0.193
				c0.055,0.079,0.189,0.212,0.251,0.278c-0.097-0.003-0.28-0.075-0.381-0.075c-0.1,0.009-0.188-0.141-0.284-0.148
				c-0.104-0.012-0.205,0.141-0.289,0.098c-0.1-0.053-0.116-0.229-0.209-0.286c-0.095-0.055-0.35,0.145-0.438,0.08
				c-0.092-0.06-0.077-0.263-0.158-0.335c-0.084-0.073-0.064-0.241-0.139-0.317c-0.08-0.077-0.343,0.027-0.414-0.053
				c-0.07-0.086-0.087-0.216-0.151-0.305c-0.062-0.087-0.138-0.167-0.192-0.264c-0.054-0.097-0.016-0.236-0.062-0.332
				c-0.047-0.097-0.092-0.188-0.13-0.293c-0.036-0.102-0.229-0.161-0.254-0.266c-0.03-0.104,0.23-0.273,0.208-0.375
				c-0.02-0.104-0.158-0.186-0.17-0.29s-0.146-0.208-0.154-0.313c-0.004-0.111,0.201-0.221,0.201-0.329
				c0-0.104-0.008-0.208-0.004-0.319c0.008-0.104-0.238-0.24-0.226-0.35c0.012-0.104,0.062-0.21,0.084-0.319
				c0.016-0.108,0.209-0.178,0.23-0.282c0.016-0.104-0.13-0.234-0.11-0.338c0.021-0.104-0.004-0.214,0.018-0.318
				c0.021-0.104,0.266-0.157,0.289-0.261c0.02-0.104,0.012-0.211,0.035-0.315c0.023-0.102-0.112-0.237-0.091-0.341
				c0.022-0.104,0.038-0.209,0.064-0.313c0.024-0.096,0.146-0.176,0.17-0.28c0.026-0.096,0.142-0.176,0.169-0.28
				c0.023-0.096-0.009-0.216,0.015-0.321c0.03-0.096-0.058-0.232-0.03-0.332c0.03-0.101,0.129-0.181,0.164-0.28
				c0.028-0.101,0.067-0.197,0.1-0.297c0.034-0.104-0.05-0.276,0-0.373c0.051-0.096,0.243-0.124,0.305-0.216
				c0.059-0.092,0.069-0.225,0.131-0.313c0.062-0.088,0.162-0.156,0.224-0.245c0.069-0.084,0.077-0.212,0.139-0.301
				c0.064-0.092,0.343-0.035,0.396-0.127c0.061-0.093,0.18-0.172,0.226-0.269c0.046-0.092-0.204-0.313-0.166-0.405
				c0.035-0.092,0.02-0.2,0.054-0.297c0.032-0.096,0.284-0.12,0.313-0.216c0.03-0.097,0.167-0.16,0.196-0.257
				c0.029-0.096-0.305-0.296-0.275-0.393c0.028-0.096,0.258-0.136,0.289-0.232c0.029-0.096,0.179-0.147,0.212-0.244
				c0.035-0.101,0.016-0.213,0.054-0.309c0.038-0.096-0.042-0.241,0-0.345c0.042-0.097,0.127-0.176,0.163-0.272
				c0.1,0.048,0.235,0.044,0.334,0.096c0.1,0.048,0.092,0.313,0.189,0.364c0.1,0.052,0.176,0.132,0.276,0.188
				c0.066,0.041,0.225-0.092,0.334,0.017c0.055,0.056,0.101-0.064,0.193,0.024c0.05-0.104,0.046-0.048,0.101-0.145
				c0.054-0.099,0.12-0.196,0.171-0.296c0.053-0.1,0.017-0.248,0.067-0.344c0.054-0.104,0.146-0.177,0.196-0.281
				c0.05-0.096,0.305-0.104,0.346-0.209c0.046-0.104,0.075-0.224,0.108-0.328c0.035-0.101,0.042-0.208,0.067-0.309
				c0.03-0.1-0.067-0.236-0.04-0.332c0.024-0.104,0.212-0.165,0.236-0.265c0.026-0.104,0.123-0.188,0.143-0.288
				c0.021-0.101-0.032-0.225-0.012-0.321c0.022-0.104-0.17-0.252-0.146-0.353c0.025-0.1,0.208-0.168,0.234-0.269
				c0.024-0.1-0.088-0.236-0.058-0.34c0.027-0.097,0.012-0.253,0.066-0.345c0.05-0.088,0.351-0.016,0.41-0.1
				c0.058-0.084,0.063-0.037,0.112-0.124c0.081,0.063,0.193-0.128,0.281-0.069c0.082,0.061,0.079,0.236,0.154,0.309
				c0.078,0.072,0.323,0.017,0.378,0.096c0.068,0.096,0.177,0.193,0.233,0.297c0.064,0.104,0.015,0.268,0.071,0.376
				c0.053,0.104-0.104,0.321-0.047,0.426c0.056,0.104,0.335,0.087,0.397,0.184c0.06,0.112,0.131,0.169,0.2,0.245
				c0.083,0.096,0.028,0.329,0.115,0.376c0.104,0.052,0.232-0.096,0.346-0.124c0.095-0.02,0.108-0.096,0.208-0.185
				c0.076-0.06,0.136-0.111,0.216-0.208c0.063-0.088,0.152-0.153,0.216-0.236c0.062-0.084,0.289-0.052,0.354-0.141
				c0.063-0.087-0.005-0.26,0.056-0.345c0.064-0.087,0.144-0.16,0.208-0.249c0.064-0.087,0.05-0.229,0.108-0.313
				c0.061-0.08,0.224-0.097,0.293-0.176c0.064-0.088,0.009-0.272,0.073-0.348c0.055-0.068,0.175-0.132,0.255-0.193
				c0.073-0.052,0.297,0.149,0.377,0.113c0.094-0.044,0.113-0.261,0.201-0.269c0.076-0.003,0.344,0.064,0.424,0.208
				c0.065,0.104-0.104,0.356-0.068,0.453c0.037,0.1,0.238,0.14,0.269,0.236c0.041,0.096,0.072,0.201,0.108,0.305
				c0.036,0.096,0.093,0.192,0.124,0.288c0.041,0.104-0.056,0.249-0.023,0.349c0.032,0.101,0.047,0.212,0.081,0.309
				c0.039,0.104-0.025,0.236,0.015,0.336c0.036,0.101,0.064,0.2,0.104,0.3c0.04,0.101,0.397,0.084,0.433,0.185
				c0.039,0.1,0.031,0.216,0.069,0.316c0.035,0.101-0.061,0.249-0.03,0.353c0.034,0.097-0.008,0.229,0.025,0.33
				c0.04,0.1-0.004,0.231,0.031,0.328c0.048,0.132,0.252,0.192,0.321,0.264c0.088,0.096,0.22,0.168,0.344,0.145
				c0.098-0.025,0.241-0.06,0.357-0.156c0.077-0.068,0.196-0.108,0.269-0.181c0.072-0.071,0.028-0.264,0.104-0.335
				c0.072-0.077,0.177-0.121,0.247-0.189c0.077-0.072,0.09-0.228,0.17-0.289c0.072-0.056,0.128-0.188,0.22-0.245
				c0.093-0.047,0.26,0.016,0.35-0.012c0.111-0.036,0.223,0.004,0.3,0.036c0.076,0.032,0.156,0.096,0.22,0.192
				c0.058,0.088,0.24,0.132,0.273,0.228c0.039,0.104-0.208,0.261-0.208,0.35c0.004,0.112,0.1,0.208,0.1,0.32
				c0,0.109-0.009,0.212-0.012,0.321c0,0.108-0.104,0.212-0.104,0.32c-0.008,0.112,0.104,0.217,0.097,0.33
				c0,0.107-0.13,0.212-0.13,0.316c-0.007,0.104-0.026,0.216-0.026,0.325c-0.004,0.104,0.368,0.216,0.368,0.328
				c0,0.108-0.281,0.212-0.277,0.32c0,0.116,0.181,0.232,0.193,0.353c0.011,0.113-0.177,0.256-0.153,0.376
				c0.018,0.116,0,0.236,0.025,0.369C35.458,25.49,35.548,25.73,35.563,25.858z"/>
		</g>
	</g>
</g>
<g>
</g>
<g>
</g>
<g>
</g>
<g>
</g>
<g>
</g>
<g>
</g>
<g>
</g>
<g>
</g>
<g>
</g>
<g>
</g>
<g>
</g>
<g>
</g>
<g>
</g>
<g>
</g>
<g>
</g>
</svg>
