<?xml version="1.0" encoding="utf-8"?>
<!-- Generator: Adobe Illustrator 16.0.0, SVG Export Plug-In . SVG Version: 6.00 Build 0)  -->
<!DOCTYPE svg PUBLIC "-//W3C//DTD SVG 1.1//EN" "http://www.w3.org/Graphics/SVG/1.1/DTD/svg11.dtd">
<svg version="1.1" id="圖層_1" xmlns="http://www.w3.org/2000/svg" xmlns:xlink="http://www.w3.org/1999/xlink" x="0px" y="0px"
	 width="55px" height="55px" viewBox="0 0 55 55" enable-background="new 0 0 55 55" xml:space="preserve">
<g>
	<path d="M27.455,54c-9.48,0-17.556-7.491-18.18-16.66c-0.208-3.134,1.014-5.332,3.745-6.256c3.498-1.183,7.14-2.145,10.793-2.614
		c5.566-0.702,11.132-0.168,16.451,1.796c4.876,1.78,6.047,4.005,5.031,9.103C43.607,47.926,36.207,53.987,27.455,54L27.455,54z"/>
	<path d="M53.008,17.261c-2.353,3.915-4.72,7.829-6.944,11.534c-12.419-5.136-24.631-5.136-37.167-0.013
		c-2.186-3.615-4.552-7.529-6.906-11.43C11.057,11.371,40.16,11.305,53.008,17.261L53.008,17.261z"/>
	<path d="M36.467,11.058H18.52C22.721,5.31,33.164,5.844,36.467,11.058z"/>
	<path d="M27.104,4.972c-0.494-0.715-1.457-1.495-1.379-2.146c0.091-0.715,1.067-1.665,1.794-1.821
		c0.481-0.09,1.652,1.015,1.705,1.652C29.288,3.359,28.442,4.166,28,4.92C27.702,4.946,27.402,4.959,27.104,4.972z"/>
</g>
<g>
</g>
<g>
</g>
<g>
</g>
<g>
</g>
<g>
</g>
<g>
</g>
<g>
</g>
<g>
</g>
<g>
</g>
<g>
</g>
<g>
</g>
<g>
</g>
<g>
</g>
<g>
</g>
<g>
</g>
</svg>
