<?xml version="1.0" encoding="utf-8"?>
<!-- Generator: Adobe Illustrator 16.0.0, SVG Export Plug-In . SVG Version: 6.00 Build 0)  -->
<!DOCTYPE svg PUBLIC "-//W3C//DTD SVG 1.1//EN" "http://www.w3.org/Graphics/SVG/1.1/DTD/svg11.dtd">
<svg version="1.1" id="圖層_1" xmlns="http://www.w3.org/2000/svg" xmlns:xlink="http://www.w3.org/1999/xlink" x="0px" y="0px"
	 width="55px" height="55px" viewBox="0 0 55 55" enable-background="new 0 0 55 55" xml:space="preserve">
<g>
	<path fill="#DBC5B6" d="M49.742,24.304c0.728,0.585,1.396,1.125,2.155,1.734c-1.839,1.634-3.679,3.111-5.848,4.168
		c-0.951,0.462-1.853,1.048-2.736,1.633c-3.715,2.457-7.339,5.07-11.164,7.34c-1.629,0.97-3.239,2.004-4.937,2.855
		c-0.474,0.237-1.251,0.174-1.766-0.046c-1.199-0.504-2.32-1.181-3.471-1.803c-5.964-3.217-11.931-6.438-17.896-9.659
		c-0.235-0.133-0.451-0.293-0.679-0.426c-0.586-0.339-0.673-0.723-0.076-1.116c0.702-0.463,1.393-0.943,2.144-1.313
		c0.252-0.124,0.849-0.06,0.973,0.123c0.997,1.5,2.667,1.862,4.147,2.489c1.929,0.819,4.07,1.218,5.866,2.247
		c1.702,0.975,3.125,1.038,4.738-0.11c0.076,0.289,0.167,0.431,0.144,0.554c-0.229,1.117-0.54,2.224-0.688,3.354
		c-0.062,0.462,0.073,1.249,0.364,1.404c1.608,0.824,3.235,1.785,4.967,2.105c0.936,0.174,2.096-0.814,3.141-1.305
		c0.595-0.279,1.189-0.586,1.739-0.947c0.293-0.192,0.521-0.508,0.718-0.81c0.591-0.901,1.039-1.643,2.467-1.697
		c2.594-0.092,4.603-1.675,6.182-3.651c0.48-0.604,0.554-1.528,0.837-2.38c0.32,0.179,0.632,0.412,0.979,0.531
		c0.92,0.302,1.721,0.467,2.782-0.051c2.123-1.048,3.303-2.822,4.456-4.698C49.363,24.702,49.481,24.601,49.742,24.304z"/>
	<path fill="#E29267" d="M24.295,27.044c-2.219,1.436-4.381,0.778-6.452-0.16c-1.233-0.558-2.306-1.455-3.471-2.173
		c-0.277-0.169-0.634-0.21-0.958-0.297c-0.439-0.114-0.95-0.105-1.318-0.33c-1.261-0.759-2.51-1.318-4.061-1.011
		c-0.364,0.073-1.15-0.412-1.199-0.728c-0.071-0.458,0.215-1.148,0.588-1.464c2.592-2.21,6.367-2.045,8.872,0.297
		c0.181,0.169,0.43,0.338,0.664,0.371c2.707,0.371,4.624,2.022,6.39,3.903C23.742,25.873,23.957,26.459,24.295,27.044z"/>
	<path fill="#FFFFFF" d="M22.243,28.819c-0.08,0.649-0.357,1.281-0.163,1.675c0.277,0.576,0.659,0.229,0.813-0.261
		c0.062-0.206,0.101-0.417,0.181-0.765c0.368,0.192,0.645,0.339,1.063,0.559c-0.887,0.549-1.34,1.583-2.523,1.185
		c-0.082-0.027-0.235,0.051-0.311,0.115c-1.727,1.583-3.555,0.585-5.234,0.045c-2.592-0.837-5.097-1.939-7.627-2.965
		c-1.03-0.42-1.895-2.159-1.67-3.266c0.153-0.769,0.462-1.235,1.446-1.208c1.022,0.018,1.898,0.192,2.807,0.677
		c1.121,0.604,2.558,0.75,3.493,1.528C16.842,28.087,19.566,28.535,22.243,28.819z"/>
	<path fill="#E29267" d="M22.797,15.972c0.625,0.165,1.775,0.338,2.8,0.792c1.515,0.668,2.974,1.473,4.375,2.347
		c0.961,0.595,1.849,1.345,2.645,2.15c0.59,0.609,0.636,1.286-0.247,1.895c-1.162,0.796-2.261,1.135-3.602,0.407
		c-0.899-0.49-1.915-0.755-2.85-1.185c-2.453-1.14-4.892-2.297-7.326-3.478c-1.025-0.494-1.059-0.92-0.22-1.67
		C19.342,16.383,20.658,15.953,22.797,15.972z"/>
	<path fill="#E5BF61" d="M31.381,11.194c0.063,0.019,0.174,0.083,0.201,0.06c1.474-1.304,2.869,0.49,4.365,0.133
		c0.467-0.11,1.387,0.485,1.656,0.998c0.576,1.084,1.825,1.048,2.498,1.793c0.668,0.737,1.313,1.647,1.552,2.59
		c0.196,0.783-1.396,1.592-2.646,1.428c-1.208-0.156-2.466-0.238-3.587-0.659c-2.237-0.842-4.401-1.867-6.566-2.869
		c-0.841-0.389-1.004-1.011-0.265-1.707c0.082-0.078,0.164-0.169,0.21-0.27c0.188-0.439,0.257-1.144,0.563-1.277
		C29.962,11.167,30.694,11.245,31.381,11.194z"/>
	<path fill="#FFFFFF" d="M22.2,36.269c-1.064-1.794,0.343-2.69,1.231-3.651c0.945-1.025,2.311-1.034,3.638-0.842
		c1.649,0.237,2.633,1.103,3.05,2.672c0.274,1.043-0.439,2.617-1.57,3.45c-1.738,1.271-4.218,1.235-5.838-0.169
		c-0.405-0.353-0.62-0.92-0.924-1.392C21.927,36.314,22.067,36.291,22.2,36.269z M25.746,32.946
		c-0.659,0.659-1.318,1.327-1.974,1.995c0.757,0.833,1.43,1.789,2.317,2.457c0.421,0.315,2.302-1.706,2.292-2.393
		C28.377,34.397,26.743,33.157,25.746,32.946z"/>
	<path fill="#FFFFFF" d="M32.351,24.995c-1.391,1.428-2.682,2.745-3.745,3.825c0.112-0.997-0.746-1.995-2.187-2.342
		c-0.634-0.16-1.345-0.54-1.741-1.039c-1.643-2.055-3.752-3.423-6.113-4.466c-0.245-0.105-0.549-0.151-0.711-0.33
		c-0.135-0.151-0.101-0.448-0.145-0.682c0.206-0.027,0.449-0.146,0.606-0.083c1.151,0.494,2.311,0.988,3.418,1.57
		c0.954,0.508,1.775,1.404,2.773,1.656c2.338,0.576,4.459,2.137,7.049,1.661C31.788,24.729,32.049,24.903,32.351,24.995z"/>
	<path fill="#FFFFFF" d="M33.494,34.154c-0.457-0.938-0.842-1.716-1.386-2.818c0.777,0.22,1.258,0.325,1.725,0.494
		c0.879,0.32,1.506,0.155,1.977-0.746c0.485-0.929,0.458-1.643-0.43-2.273c-1.327-0.947-2.59-0.659-3.551,0.869
		c-0.302,0.476-0.513,0.924-1.227,0.636c-0.828-0.339-1.029-0.773-0.513-1.556c0.86-1.308,2.855-1.853,4.393-1.733
		c1.117,0.087,1.804,0.764,2.7,1.134c0.97,0.398,1.358,2.315,0.777,3.482C37.183,33.212,35.138,34.182,33.494,34.154z"/>
	<path fill="#877468" d="M2.863,30.942c2.104,1.199,4.543,1.808,6.223,3.752c0.163,0.183,0.414,0.302,0.643,0.421
		c1.062,0.54,2.077,1.346,3.198,1.533c1.384,0.233,1.885,1.762,3.471,1.779c1.077,0.014,2.137,1.071,3.216,1.639
		c1.869,0.988,3.759,1.949,5.617,2.956c0.22,0.118,0.3,0.498,0.3,0.919c-7.827-3.399-15.017-7.893-22.459-11.9
		c-0.238-0.129-0.338-0.518-0.506-0.778C2.662,31.153,2.762,31.043,2.863,30.942z"/>
	<path fill="#FFFFFF" d="M42.93,22.016c-0.476,0.609-0.855,1.323-1.446,1.798c-1.336,1.089-1.382,1.043-1.808,2.842
		c-1.564-2.21-3.729-2.284-5.943-1.895c-0.421-1.368,0.027-1.899,1.249-1.666c1.085,0.21,2.155,0.49,3.249,0.595
		C40.02,23.869,41.594,23.347,42.93,22.016z"/>
	<path fill="#FFFFFF" d="M42.865,26.02c-0.915-1.588-0.782-2.004,0.993-3.285c0.719-0.513,1.474-1.126,2.265,0.174
		C45.075,23.91,44.005,24.931,42.865,26.02z"/>
	<path fill="#FFFFFF" d="M45.913,26.001c-0.101-0.064-0.48-0.174-0.604-0.412c-0.087-0.169,0.101-0.577,0.274-0.769
		c0.49-0.531,0.998-1.066,1.584-1.474c0.283-0.192,0.818-0.201,1.144-0.064c0.155,0.064,0.192,0.687,0.109,1.007
		C48.155,25.361,47.276,25.983,45.913,26.001z"/>
	<path fill="#FFFFFF" d="M43.763,27.804c-0.266,0.347-0.65,1.024-0.778,0.983c-0.604-0.215-1.153-0.595-1.675-0.983
		c-0.105-0.083,0.01-0.453,0.019-0.687c0.769,0.101,1.537,0.197,2.302,0.297C43.676,27.543,43.717,27.671,43.763,27.804z"/>
	<path fill="#877468" d="M44,32.352c1.414-0.769,2.818-1.537,4.237-2.306c0.05,0.091,0.109,0.178,0.16,0.27
		c-1.368,0.865-2.731,1.726-4.096,2.595C44.197,32.718,44.097,32.535,44,32.352z"/>
	<path fill="#FFFFFF" d="M26.602,27.319c0.238,0.284,0.725,0.641,0.663,0.824c-0.125,0.389-0.535,0.686-0.826,1.024
		c-0.272-0.375-0.654-0.714-0.769-1.126c-0.078-0.288,0.219-0.676,0.348-1.015C26.215,27.122,26.405,27.218,26.602,27.319z"/>
	<path fill="#877468" d="M31.11,40.908c1.556-0.97,3.107-1.944,4.663-2.915c0.055,0.087,0.114,0.17,0.174,0.261
		c-1.547,0.988-3.094,1.968-4.64,2.956C31.243,41.109,31.18,41.009,31.11,40.908z"/>
	<g>
		<g>
			<path d="M26.544,15.944c0-0.119,0.009-0.082,0.009-0.192c0-0.119,0.11-0.238,0.11-0.348c0-0.128-0.039-0.238-0.039-0.357
				c0-0.119,0.21-0.233,0.215-0.348c0-0.119-0.391-0.247-0.387-0.361c0.004-0.128,0.252-0.238,0.277-0.361
				c0.023-0.128-0.014-0.27,0.023-0.389c0.039-0.119,0.224-0.178,0.272-0.297c0.048-0.119-0.176-0.366-0.119-0.48
				c0.057-0.11,0.302-0.128,0.359-0.238c0.058-0.11,0.225-0.16,0.282-0.27s-0.135-0.348-0.078-0.458
				c0.058-0.119,0.43-0.06,0.492-0.165c0.067-0.11-0.119-0.375-0.048-0.476c0.078-0.105,0.382-0.009,0.465-0.101
				c0.084-0.096,0.019-0.33,0.114-0.412c0.094-0.083,0.336,0.045,0.437-0.023c0.105-0.073,0.174-0.16,0.284-0.215
				c0.109-0.055,0.073-0.458,0.183-0.503c0.119-0.041,0.32,0.151,0.439,0.119c0.119-0.037,0.192-0.297,0.32-0.32
				c0.119-0.027,0.288,0.179,0.407,0.16c0.124-0.018,0.238-0.133,0.361-0.142c0.128-0.009,0.266,0.247,0.394,0.238
				c0.124-0.009,0.247,0.023,0.371,0.018c0.123-0.004,0.233-0.352,0.361-0.352c0.119-0.004,0.256,0.357,0.384,0.352
				c0.124-0.004,0.243-0.027,0.366-0.032c0.128,0,0.247-0.05,0.366-0.05c0.128,0,0.247-0.023,0.375-0.019
				c0.124,0.005,0.274-0.343,0.403-0.334c0.118,0.009,0.247,0.096,0.37,0.114c0.124,0.019,0.233,0.146,0.357,0.174
				c0.123,0.018,0.261-0.028,0.389,0c0.119,0.022,0.165,0.375,0.283,0.402c0.119,0.037,0.312-0.192,0.431-0.151
				s0.164,0.27,0.283,0.316c0.119,0.041,0.33-0.156,0.448-0.105c0.11,0.05,0.262,0.041,0.371,0.101s0.151,0.252,0.261,0.316
				c0.109,0.06,0.197,0.155,0.302,0.229c0.105,0.064,0.348-0.06,0.453,0.019c0.101,0.073,0.041,0.352,0.142,0.435
				c0.092,0.078,0.284,0.06,0.376,0.142c0.091,0.091,0.247,0.101,0.348,0.183c0.091,0.083,0.063,0.312,0.164,0.394
				c0.101,0.083,0.271,0.069,0.376,0.146c0.101,0.073,0.201,0.151,0.311,0.22c0.101,0.073,0.238,0.101,0.348,0.165
				c0.11,0.073,0.211,0.156,0.312,0.224c0.109,0.069,0.16,0.233,0.27,0.302c0.11,0.068,0.101,0.316,0.206,0.389
				c0.11,0.069,0.302,0.009,0.402,0.087c0.102,0.083,0.32,0.023,0.417,0.101c0.096,0.087,0.105,0.27,0.196,0.361
				c0.092,0.096,0.046,0.302,0.124,0.398c0.082,0.101,0.077,0.243,0.15,0.348c0.069,0.105,0.439,0.023,0.504,0.138
				c0.063,0.109,0.014,0.288,0.063,0.407c0.046,0.114,0.11,0.233,0.146,0.356c0.037,0.119,0.165,0.225,0.192,0.357
				c0.032,0.119-0.068,0.275-0.05,0.403c0.014,0.124,0,0.251,0.004,0.384c0.01,0.128,0.238,0.256,0.238,0.389
				c0,0.132-0.101,0.251-0.101,0.371c0.009,0.137,0,0.256,0.009,0.375c0.01,0.133,0,0.252,0.019,0.371
				c0.022,0.133,0.014,0.252,0.041,0.371c0.032,0.128,0.142,0.202,0.188,0.311c0.056,0.119-0.192,0.421-0.119,0.522
				s0.439-0.078,0.54,0c0.101,0.073,0.201,0.064,0.32,0.114c0.101,0.05,0.083,0.439,0.211,0.476
				c0.119,0.032,0.297-0.179,0.426-0.151c0.114,0.023,0.219,0.146,0.352,0.165c0.119,0.018,0.257-0.137,0.39-0.124
				c0.118,0.014,0.229,0.224,0.356,0.229c0.124,0.014,0.271-0.06,0.398-0.032c0.119,0.027,0.22,0.165,0.338,0.215
				c0.119,0.05,0.275,0.014,0.39,0.078c0.114,0.06,0.279,0.069,0.38,0.146c0.101,0.073,0.109,0.247,0.21,0.325
				c0.092,0.078,0.146,0.197,0.238,0.27c0.101,0.078,0.288,0.028,0.384,0.101c0.097,0.078,0.192,0.146,0.284,0.219
				c0.101,0.078,0.21,0.128,0.311,0.202c0.092,0.073,0.11,0.242,0.211,0.32c0.092,0.073,0.188,0.146,0.279,0.224
				c0.087,0.078,0.101,0.256,0.196,0.334c0.092,0.073,0.357-0.055,0.448,0.018c0.102,0.078,0.229,0.11,0.32,0.188
				c0.092,0.078-0.027,0.416,0.064,0.489c0.092,0.078,0.225,0.105,0.315,0.188c0.092,0.078,0.252,0.068,0.344,0.146
				c0.091,0.078,0.164,0.183,0.256,0.261c0.087,0.073,0.128,0.21,0.229,0.288c0.092,0.078,0.303,0.009,0.398,0.087
				c0.092,0.073,0.238,0.096,0.329,0.174c0.092,0.073,0.206,0.128,0.298,0.21c0.082,0.069-0.138,0.476-0.055,0.558
				c0.082,0.083,0.484-0.119,0.554-0.027c0.073,0.092-0.114,0.375-0.051,0.476c0.064,0.101,0.073,0.21,0.119,0.311
				c0.055,0.105,0.394,0.101,0.421,0.21c0.041,0.128-0.238,0.316-0.22,0.444c0.022,0.133,0.009,0.233,0.009,0.361
				c0,0.128,0.357,0.293,0.339,0.417c-0.019,0.132-0.366,0.183-0.407,0.306c-0.036,0.124,0.133,0.33,0.073,0.444
				s-0.041,0.297-0.114,0.398c-0.073,0.109-0.412,0.018-0.494,0.118c-0.082,0.092-0.041,0.32-0.138,0.403
				c-0.096,0.087-0.256,0.091-0.365,0.169c-0.105,0.068-0.156,0.252-0.266,0.315c-0.11,0.056-0.371-0.169-0.476-0.109
				c-0.105,0.055-0.073,0.375-0.175,0.43c-0.109,0.06-0.338-0.101-0.438-0.046c-0.11,0.056-0.16,0.22-0.266,0.275
				c-0.105,0.059-0.174,0.178-0.284,0.237c-0.109,0.055-0.311-0.06-0.416,0c-0.105,0.055-0.183,0.17-0.288,0.233
				c-0.101,0.06-0.101,0.307-0.211,0.371c-0.101,0.055-0.293-0.023-0.394,0.036c-0.104,0.06-0.247,0.055-0.356,0.11
				c-0.101,0.063-0.051,0.394-0.155,0.457c-0.105,0.06-0.403-0.22-0.513-0.155c-0.101,0.063-0.16,0.206-0.261,0.266
				c-0.105,0.063-0.037,0.402-0.142,0.467c-0.105,0.063-0.349-0.11-0.453-0.046c-0.105,0.068-0.087,0.338-0.192,0.402
				s-0.197,0.146-0.307,0.211c-0.101,0.063-0.412-0.197-0.521-0.129c-0.101,0.064-0.101,0.303-0.206,0.366
				c-0.105,0.064-0.343-0.073-0.443-0.009c-0.102,0.063-0.102,0.302-0.206,0.375c-0.105,0.064-0.271,0.036-0.371,0.101
				c-0.109,0.068-0.078,0.348-0.179,0.412c-0.104,0.063-0.178,0.174-0.288,0.242c-0.101,0.068-0.21,0.133-0.311,0.201
				c-0.101,0.069-0.289,0.005-0.39,0.069c-0.104,0.068-0.096,0.311-0.196,0.379c-0.11,0.069-0.402-0.169-0.513-0.101
				c-0.101,0.069-0.064,0.348-0.169,0.417c-0.105,0.063-0.261,0.046-0.366,0.114s-0.329-0.051-0.431,0.014
				c-0.104,0.064-0.123,0.256-0.229,0.325c-0.105,0.068-0.279,0.027-0.38,0.096c-0.109,0.064-0.178,0.183-0.283,0.247
				s-0.197,0.146-0.302,0.215c-0.101,0.069-0.073,0.339-0.184,0.407c-0.101,0.064-0.16,0.201-0.266,0.271
				c-0.104,0.068-0.394-0.151-0.494-0.087c-0.104,0.068-0.229,0.109-0.329,0.178c-0.105,0.069-0.046,0.39-0.146,0.458
				c-0.109,0.068-0.21,0.142-0.312,0.206c-0.109,0.063-0.315-0.027-0.416,0.036c-0.105,0.069-0.215,0.128-0.32,0.192
				s-0.169,0.201-0.27,0.266c-0.11,0.063-0.312-0.027-0.412,0.036c-0.105,0.073-0.046,0.394-0.146,0.462
				c-0.109,0.069-0.188,0.17-0.288,0.238c-0.105,0.068-0.302-0.009-0.407,0.06c-0.101,0.064-0.302-0.019-0.412,0.046
				c-0.101,0.064-0.092,0.312-0.192,0.375c-0.101,0.068-0.283,0.027-0.384,0.087c-0.101,0.068-0.151,0.225-0.252,0.288
				c-0.105,0.073-0.242,0.083-0.343,0.151s-0.266,0.05-0.366,0.114c-0.11,0.064-0.138,0.247-0.238,0.315
				c-0.109,0.069-0.192,0.16-0.293,0.229c-0.104,0.068-0.137,0.247-0.237,0.315c-0.105,0.064-0.266,0.036-0.375,0.105
				c-0.102,0.068-0.138,0.242-0.243,0.307c-0.105,0.06-0.261,0.045-0.366,0.109c-0.104,0.068-0.352-0.082-0.453-0.019
				c-0.104,0.069-0.091,0.316-0.196,0.385c-0.105,0.064-0.138,0.247-0.238,0.312c-0.104,0.072-0.352-0.088-0.452-0.019
				c-0.102,0.063-0.197,0.15-0.303,0.22c-0.104,0.063-0.109,0.283-0.215,0.348c-0.105,0.068-0.353-0.092-0.457-0.027
				c-0.105,0.063-0.124,0.265-0.229,0.329c-0.105,0.068-0.338-0.073-0.443-0.009c-0.105,0.068,0.027,0.508-0.073,0.576
				c-0.11,0.064-0.366-0.119-0.472-0.051c-0.105,0.069-0.169,0.197-0.27,0.262c-0.11,0.068-0.138,0.247-0.247,0.311
				c-0.101,0.068-0.38-0.142-0.485-0.073c-0.105,0.064-0.048,0.385-0.153,0.448c-0.105,0.069-0.309-0.027-0.414,0.037
				c-0.105,0.063-0.11,0.293-0.215,0.353c-0.105,0.068-0.4-0.179-0.506-0.11c-0.105,0.068-0.162,0.087-0.291,0.119
				c-0.121,0.032-0.206,0.105-0.341,0.114c-0.124,0.009-0.238,0.014-0.371,0.009c-0.13-0.004-0.277,0.385-0.407,0.376
				c-0.133-0.01-0.243-0.385-0.366-0.394c-0.124-0.005-0.192-0.055-0.315-0.101c-0.114-0.046-0.224-0.073-0.339-0.133
				c-0.114-0.06-0.224-0.142-0.334-0.197c-0.11-0.055-0.334,0.156-0.444,0.105c-0.11-0.05-0.197-0.146-0.299-0.188
				c-0.11-0.051-0.202-0.142-0.312-0.179c-0.114-0.041-0.21-0.16-0.325-0.188c-0.119-0.022-0.258,0.064-0.373,0.064
				c-0.119-0.01-0.213,0.091-0.329,0.119c-0.115,0.018-0.3-0.17-0.41-0.119c-0.101,0.05-0.124,0.256-0.22,0.329
				c-0.084,0.073-0.048,0.256-0.128,0.353c-0.073,0.078-0.469-0.078-0.54,0.027c-0.062,0.092,0.124,0.353,0.062,0.462
				c-0.062,0.119-0.238,0.156-0.373,0.197c-0.11,0.031-0.238-0.087-0.375-0.097c-0.119-0.004-0.229-0.009-0.364-0.036
				c-0.119-0.027-0.247-0.027-0.373-0.073c-0.119-0.046-0.266-0.027-0.38-0.082c-0.117-0.064-0.263-0.083-0.369-0.151
				c-0.109-0.078-0.215-0.169-0.306-0.252c-0.099-0.092-0.146-0.237-0.22-0.334c-0.08-0.114,0.011-0.261-0.009-0.38
				c-0.018-0.109-0.291-0.201-0.291-0.311c-0.004-0.119,0.087-0.229,0.076-0.348c-0.009-0.11-0.085-0.238-0.085-0.357
				c-0.004-0.119,0.053-0.242,0.048-0.361c-0.005-0.124-0.062-0.233-0.078-0.348c-0.014-0.124,0.254-0.312,0.224-0.421
				c-0.032-0.119-0.382-0.101-0.448-0.197c-0.066-0.091-0.158-0.046-0.268-0.109c-0.094-0.046-0.114-0.22-0.247-0.238
				c-0.105-0.014-0.215-0.055-0.348-0.046c-0.11,0-0.215,0.092-0.346,0.11c-0.084,0.019-0.103-0.293-0.208-0.375
				c-0.092-0.073-0.43,0.082-0.492,0c-0.078-0.101,0.062-0.376-0.021-0.467c-0.08-0.097-0.318-0.056-0.405-0.143
				c-0.089-0.091-0.137-0.219-0.229-0.302c-0.096-0.087-0.167-0.188-0.263-0.27c-0.094-0.083-0.119-0.257-0.22-0.339
				c-0.099-0.073-0.33,0.027-0.433-0.046c-0.105-0.073-0.277-0.022-0.387-0.092c-0.105-0.068-0.048-0.402-0.158-0.466
				c-0.11-0.064-0.163-0.229-0.272-0.293c-0.11-0.06-0.259-0.06-0.369-0.119c-0.11-0.064-0.185-0.201-0.295-0.257
				c-0.11-0.055-0.307,0.046-0.421-0.014c-0.115-0.059-0.19-0.188-0.3-0.242c-0.114-0.055-0.302,0.037-0.417-0.019
				c-0.114-0.06-0.124-0.311-0.238-0.365c-0.114-0.06-0.252-0.06-0.361-0.119c-0.11-0.06-0.202-0.16-0.312-0.22
				c-0.11-0.064-0.364,0.128-0.474,0.063c-0.109-0.063-0.022-0.448-0.132-0.517c-0.101-0.06-0.32-0.114-0.458-0.133
				c-0.119-0.014-0.297-0.036-0.43-0.027c-0.124,0.009-0.197,0.43-0.33,0.458c-0.124,0.027-0.268-0.037-0.391,0.004
				s-0.281-0.019-0.4,0.023c-0.13,0.045-0.316-0.037-0.426,0.009c-0.119,0.055-0.128,0.356-0.242,0.398
				c-0.126,0.041-0.316-0.243-0.439-0.22c-0.13,0.022-0.215,0.142-0.338,0.142c-0.13,0.005-0.259,0.146-0.377,0.128
				c-0.128-0.022-0.22-0.155-0.334-0.201c-0.119-0.041-0.233-0.064-0.339-0.128c-0.105-0.073-0.35,0-0.435-0.101
				c-0.083-0.092,0.066-0.361,0.004-0.472c-0.057-0.105-0.048-0.215-0.087-0.339c-0.032-0.114-0.037-0.21-0.05-0.343
				c-0.016-0.119-0.192-0.225-0.188-0.353c0.004-0.133-0.238-0.242-0.243-0.361c-0.004-0.128,0.224-0.256,0.21-0.375
				c-0.021-0.124-0.034-0.247-0.068-0.361c-0.032-0.119-0.229-0.16-0.286-0.261c-0.057-0.11,0.062-0.33-0.018-0.426
				c-0.083-0.087-0.11-0.288-0.215-0.361c-0.096-0.064-0.334,0.073-0.448,0.018c-0.105-0.045-0.243,0.015-0.373-0.027
				c-0.119-0.031-0.21-0.164-0.313-0.21c-0.117-0.046-0.24-0.082-0.341-0.142c-0.103-0.06-0.053-0.325-0.142-0.398
				c-0.096-0.078-0.444,0.109-0.522,0.019c-0.08-0.092-0.023-0.307-0.084-0.407c-0.062-0.101,0.023-0.279-0.025-0.39
				c-0.05-0.101-0.233-0.146-0.27-0.265c-0.039-0.11,0.037-0.257,0.009-0.371c-0.034-0.114-0.101-0.215-0.124-0.334
				c-0.025-0.114,0.019-0.247,0-0.356c-0.021-0.119-0.117-0.22-0.135-0.339c-0.019-0.119,0.096-0.256,0.075-0.375
				c-0.014-0.101-0.071-0.156,0-0.284c0.069-0.119,0.14-0.183,0.231-0.247c0.098-0.077,0.251-0.082,0.357-0.16
				c0.105-0.077,0.091-0.307,0.196-0.38c0.103-0.077,0.172-0.196,0.277-0.274c0.103-0.073,0.247-0.091,0.353-0.164
				s0.247-0.087,0.353-0.165c0.105-0.073,0.276-0.055,0.377-0.128c0.105-0.073,0.062-0.347,0.167-0.425
				c0.105-0.078,0.302-0.019,0.405-0.096c0.105-0.073,0.236-0.11,0.341-0.192c0.099-0.073,0.243-0.101,0.343-0.179
				c0.098-0.078,0.062-0.343,0.163-0.421c0.098-0.078,0.142-0.229,0.233-0.339c0.084-0.109,0.158-0.215,0.215-0.334
				c0.066-0.132,0.215-0.233,0.224-0.357s-0.24-0.265-0.229-0.384c0.009-0.128,0.094-0.247,0.098-0.371
				c0.007-0.124,0.043-0.247,0.043-0.371c0.004-0.128,0.272-0.247,0.272-0.375c0-0.124,0.039-0.252,0.039-0.375
				s-0.158-0.247-0.162-0.375c-0.005-0.119-0.153-0.238-0.158-0.366c-0.009-0.124,0.048-0.251,0.039-0.375s0.094-0.266,0.08-0.384
				c-0.014-0.128-0.3-0.229-0.3-0.339c0-0.128,0.357-0.21,0.377-0.32c0.019-0.119-0.292-0.329-0.254-0.439
				c0.039-0.11,0.458-0.037,0.515-0.137c0.058-0.092-0.233-0.43-0.162-0.531c0.068-0.083,0.167-0.174,0.249-0.266
				c0.08-0.091,0.158-0.201,0.243-0.284c0.087-0.083,0.206-0.155,0.291-0.229c0.092-0.083,0.346,0.018,0.439-0.055
				c0.096-0.073,0.14-0.22,0.235-0.284c0.099-0.073,0.181-0.178,0.282-0.238c0.105-0.073,0.151-0.238,0.256-0.293
				c0.105-0.06,0.286,0.014,0.396-0.037s0.316,0.137,0.426,0.092c0.114-0.042,0.201-0.133,0.315-0.165
				c0.114-0.037,0.194-0.178,0.309-0.206c0.121-0.032,0.192-0.279,0.311-0.302c0.119-0.023,0.286,0.238,0.405,0.224
				c0.119-0.014,0.229-0.128,0.35-0.137c0.119-0.009,0.243,0.192,0.366,0.183c0.119,0,0.24-0.174,0.359-0.169
				c0.119,0.005,0.233,0.101,0.353,0.11s0.254-0.151,0.373-0.133c0.119,0.014,0.224,0.142,0.343,0.156
				c0.119,0.018,0.259-0.091,0.378-0.073c0.119,0.019,0.242,0.009,0.361,0.041c0.119,0.023,0.201,0.21,0.32,0.238
				c0.114,0.032,0.233,0.05,0.352,0.082c0.122,0.028,0.215,0.206,0.339,0.229c0.121,0.018,0.258-0.023,0.377-0.004
				c0.126,0.018,0.281-0.183,0.407-0.156c0.119,0.018,0.204,0.201,0.318,0.238c0.114,0.042,0.293-0.05,0.407,0.009
				c0.105,0.055,0.291,0.046,0.391,0.128c0.089,0.073,0.014,0.353,0.101,0.449c0.094,0.11,0.212,0.215,0.304,0.229
				c0.114,0.019,0.258-0.087,0.343-0.174c0.066-0.083,0.087-0.21,0.124-0.33c0.034-0.101-0.037-0.219-0.028-0.348
				c0.009-0.124,0.087-0.247,0.092-0.38c0.004-0.132-0.073-0.27-0.069-0.398c0.012-0.133,0.121-0.261,0.135-0.384
				c0.018-0.137,0.247-0.201,0.286-0.316c0.048-0.132-0.096-0.338-0.004-0.421c0.084-0.078,0.171-0.169,0.263-0.247
				c0.089-0.082,0.318,0.009,0.409-0.068c0.092-0.073,0.08-0.275,0.176-0.353c0.096-0.068,0.202-0.128,0.302-0.201
				c0.094-0.069,0.071-0.325,0.171-0.389c0.101-0.068,0.19-0.169,0.291-0.229c0.101-0.064,0.33,0.082,0.435,0.023
				c0.105-0.06,0.11-0.325,0.22-0.38c0.11-0.05,0.339,0.155,0.449,0.11c0.109-0.046,0.263,0.041,0.377,0
				c0.119-0.037,0.19-0.21,0.309-0.238c0.119-0.037,0.233-0.091,0.354-0.119c0.124-0.023,0.225-0.183,0.348-0.202
				c0.124-0.022,0.268,0.101,0.391,0.087c0.124-0.009,0.251,0.082,0.377,0.078c0.124-0.005,0.238,0.096,0.361,0.101
				s0.24,0.018,0.364,0.027s0.238,0,0.361,0.019c0.126,0.018,0.25-0.014,0.369,0.009c0.124,0.028,0.325-0.292,0.444-0.261
				c0.119,0.028,0.133,0.444,0.254,0.48c0.119,0.037,0.261-0.023,0.38,0.019c0.114,0.045,0.171,0.229,0.292,0.274
				c0.115,0.046,0.247,0.037,0.357,0.091c0.115,0.05,0.202,0.142,0.312,0.202c0.094,0.045,0.286-0.064,0.4-0.042
				c0.101,0.023,0.219,0.014,0.334,0.042C26.448,16.081,26.428,15.917,26.544,15.944z M49.771,24.51
				c-0.097,0.11-0.11,0.064-0.17,0.132c-0.109,0.115-0.256,0.11-0.307,0.188c-0.068,0.101-0.096,0.229-0.16,0.329
				c-0.068,0.101-0.311,0.092-0.375,0.192c-0.064,0.105,0.206,0.421,0.138,0.526c-0.064,0.101-0.33,0.078-0.394,0.179
				c-0.069,0.101-0.078,0.243-0.146,0.338c-0.073,0.101-0.266,0.119-0.339,0.21c-0.073,0.101,0.109,0.389,0.027,0.485
				c-0.073,0.096-0.311,0.064-0.389,0.155c-0.078,0.096-0.247,0.11-0.329,0.202c-0.078,0.091,0.041,0.366-0.042,0.458
				c-0.082,0.092-0.425-0.073-0.512,0.019c-0.083,0.082,0.036,0.383-0.056,0.466c-0.091,0.082-0.375-0.064-0.467,0.009
				c-0.101,0.082-0.055,0.32-0.15,0.398c-0.097,0.073-0.339-0.056-0.439,0.014c-0.101,0.063-0.169,0.164-0.279,0.229
				c-0.101,0.06-0.019,0.448-0.119,0.513c-0.109,0.055-0.338-0.101-0.448-0.046c-0.109,0.055-0.137,0.32-0.237,0.361
				c-0.119,0.041-0.312-0.133-0.421-0.105c-0.119,0.027-0.229,0.155-0.339,0.165c-0.119,0.019-0.252-0.247-0.371-0.247
				s-0.215-0.041-0.334-0.064c-0.119-0.009-0.293,0.302-0.402,0.274c-0.119-0.022-0.138-0.411-0.256-0.443
				c-0.115-0.032-0.225-0.051-0.339-0.087c-0.114-0.037-0.22-0.032-0.33-0.092c-0.109-0.06-0.219-0.092-0.324-0.16
				s-0.206,0.197-0.316,0.142c-0.036,0.11-0.009,0.064-0.041,0.179c-0.031,0.119-0.178,0.201-0.206,0.32
				C40.87,29.867,40.916,30,40.88,30.119c-0.027,0.118-0.375,0.146-0.412,0.256c-0.032,0.119,0.183,0.312,0.138,0.421
				c-0.042,0.119-0.271,0.138-0.33,0.238c-0.055,0.109,0.101,0.348,0.032,0.439c-0.078,0.096-0.105,0.237-0.188,0.338
				c-0.082,0.092-0.274,0.087-0.357,0.179c-0.082,0.092-0.191,0.16-0.274,0.252c-0.091,0.087,0,0.348-0.082,0.435
				c-0.087,0.092-0.356-0.005-0.448,0.082c-0.087,0.087-0.078,0.279-0.174,0.357c-0.092,0.082-0.128,0.242-0.225,0.32
				c-0.096,0.082-0.32,0.004-0.416,0.077c-0.101,0.073-0.133,0.238-0.233,0.312c-0.096,0.068-0.206,0.137-0.315,0.201
				c-0.101,0.068-0.184,0.188-0.289,0.247c-0.104,0.064-0.233,0.109-0.343,0.165c-0.109,0.055-0.279,0.009-0.389,0.063
				c-0.114,0.051-0.307-0.101-0.417-0.055c-0.118,0.046-0.174,0.238-0.288,0.279c-0.123,0.036-0.188,0.256-0.307,0.288
				c-0.119,0.037-0.274-0.06-0.394-0.032c-0.119,0.023-0.27-0.123-0.394-0.105c-0.118,0.019-0.242-0.055-0.365-0.041
				c-0.129,0.01-0.22,0.38-0.349,0.385c-0.118,0.005-0.237-0.105-0.348-0.087c-0.128,0.009-0.229,0.055-0.338,0.078
				c-0.124,0.031-0.192,0.16-0.293,0.201c-0.105,0.05-0.257-0.01-0.357,0.05c-0.101,0.069-0.21,0.119-0.293,0.192
				c-0.087,0.078,0.005,0.315-0.073,0.402c-0.073,0.083-0.21,0.101-0.283,0.202c-0.068,0.091-0.138,0.178-0.206,0.278
				c-0.063,0.097-0.142,0.184-0.21,0.279c-0.069,0.101-0.16,0.192-0.233,0.284c-0.073,0.096-0.097,0.256-0.179,0.338
				c-0.087,0.087-0.398-0.118-0.499-0.055c-0.109,0.073-0.009,0.472-0.128,0.54c-0.109,0.068-0.201,0.192-0.32,0.261
				c-0.109,0.068-0.407-0.201-0.526-0.142c-0.119,0.063-0.123,0.343-0.242,0.402s-0.288,0.019-0.407,0.078
				c-0.114,0.05-0.151,0.261-0.261,0.324c-0.11,0.064-0.32-0.055-0.431,0.015c-0.109,0.059-0.171,0.21-0.281,0.278
				c-0.109,0.064-0.277,0.037-0.386,0.101c-0.117,0.064-0.183,0.211-0.293,0.266c-0.114,0.064-0.199,0.192-0.313,0.242
				c-0.121,0.051-0.293-0.018-0.412,0.015c-0.128,0.036-0.256,0-0.382,0.018c-0.128,0.01-0.265,0.165-0.391,0.138
				c-0.119-0.019-0.243-0.041-0.357-0.068c-0.119-0.032-0.25-0.023-0.364-0.06c-0.114-0.032-0.199-0.179-0.313-0.22
				c-0.114-0.037-0.229-0.069-0.345-0.11c-0.115-0.046-0.176-0.21-0.286-0.256c-0.11-0.041-0.33,0.165-0.439,0.114
				c-0.11-0.046-0.247-0.041-0.357-0.096c-0.11-0.046-0.075-0.403-0.185-0.458c-0.11-0.05-0.245-0.046-0.35-0.101
				c-0.11-0.055-0.261-0.019-0.371-0.073c-0.11-0.05-0.201-0.137-0.307-0.192c-0.11-0.055-0.176-0.183-0.286-0.237
				c-0.11-0.06-0.302,0.055-0.409,0c-0.105-0.06-0.254-0.037-0.359-0.097c-0.105-0.06-0.229-0.082-0.334-0.133
				c-0.091-0.05,0.14-0.448,0.083-0.585c-0.043-0.101-0.492-0.101-0.517-0.229c-0.023-0.128,0.281-0.302,0.272-0.421
				c-0.004-0.137,0.048-0.237,0.062-0.348c0.014-0.128-0.281-0.297-0.261-0.43c0.018-0.119,0.348-0.192,0.371-0.32
				c0.025-0.119,0.066-0.238,0.091-0.366c0.023-0.124-0.315-0.32-0.286-0.448c0.028-0.124,0.366-0.174,0.396-0.302
				c0.027-0.119-0.171-0.298-0.144-0.422c0.03-0.128-0.043-0.265-0.014-0.393c0.03-0.124,0.368-0.175,0.396-0.303
				c0.03-0.119-0.132-0.283-0.105-0.407c0.016-0.077,0.082-0.142,0.039-0.27c-0.022-0.073-0.096-0.037-0.128-0.146
				c-0.101,0.073-0.272-0.146-0.373-0.082c-0.105,0.063-0.057,0.379-0.162,0.438c-0.11,0.056-0.325-0.118-0.435-0.073
				c-0.114,0.046-0.176,0.202-0.286,0.238c-0.115,0.037-0.215,0.138-0.33,0.16c-0.119,0.032-0.263-0.151-0.382-0.138
				c-0.119,0.015-0.225,0.083-0.343,0.083c-0.119,0-0.254,0.215-0.373,0.206c-0.119-0.019-0.215-0.197-0.334-0.22
				c-0.114-0.027-0.21-0.128-0.325-0.16c-0.115-0.032-0.33,0.224-0.444,0.183c-0.11-0.041-0.071-0.448-0.186-0.499
				c-0.11-0.05-0.254-0.014-0.364-0.072c-0.103-0.051-0.366,0.174-0.476,0.109c-0.105-0.06-0.083-0.356-0.192-0.412
				c-0.11-0.055-0.323,0.105-0.433,0.056c-0.109-0.056-0.224-0.092-0.341-0.143c-0.114-0.046-0.075-0.453-0.19-0.498
				c-0.114-0.051-0.304,0.091-0.421,0.045c-0.114-0.045-0.146-0.32-0.261-0.361s-0.302,0.11-0.421,0.069
				c-0.114-0.042-0.194-0.188-0.313-0.229c-0.117-0.036-0.311,0.16-0.43,0.119c-0.119-0.036-0.249-0.027-0.368-0.064
				c-0.119-0.036-0.233-0.077-0.353-0.114c-0.119-0.041-0.188-0.22-0.306-0.261c-0.119-0.036-0.3,0.119-0.419,0.083
				c-0.114-0.037-0.114-0.421-0.235-0.463c-0.115-0.041-0.318,0.16-0.433,0.115c-0.114-0.042-0.197-0.184-0.311-0.225
				c-0.115-0.041-0.144-0.298-0.259-0.343c-0.114-0.046-0.291,0.045-0.409-0.005c-0.119-0.051-0.19-0.211-0.312-0.252
				c-0.119-0.046-0.256-0.036-0.375-0.082c-0.121-0.046-0.245-0.073-0.359-0.119c-0.119-0.046-0.329,0.133-0.444,0.082
				c-0.114-0.046-0.272-0.018-0.386-0.073c-0.115-0.055-0.08-0.416-0.19-0.476c-0.11-0.055-0.202-0.137-0.312-0.201
				c-0.109-0.068-0.382,0.119-0.487,0.046c-0.098-0.073-0.219-0.151-0.313-0.233C6.986,28.7,7.02,28.463,6.933,28.371
				s-0.163-0.184-0.243-0.284c-0.078-0.095-0.215-0.155-0.288-0.264c-0.046-0.069-0.094-0.284-0.233-0.321
				c-0.105-0.018-0.256,0.27-0.371,0.27c-0.13,0.005-0.163,0.051-0.25,0.092c-0.105,0.05-0.286-0.041-0.391,0.014
				c-0.105,0.055-0.295-0.037-0.4,0.022c-0.105,0.064-0.096,0.306-0.201,0.371c-0.101,0.06-0.272,0.009-0.373,0.082
				c-0.098,0.064-0.142,0.22-0.243,0.284C3.84,28.7,3.708,28.719,3.606,28.782c-0.101,0.069-0.258,0.046-0.357,0.115
				c-0.125,0.082-0.139,0.27-0.206,0.352c-0.096,0.119-0.096,0.22-0.087,0.33c0.016,0.109,0.153,0.082,0.258,0.183
				c0.076,0.078,0.087,0.215,0.21,0.284c0.114,0.068,0.3,0.041,0.414,0.109c0.11,0.073,0.158,0.229,0.277,0.293
				c0.11,0.06,0.096,0.348,0.202,0.407c0.109,0.06,0.32-0.073,0.43-0.014c0.11,0.055,0.282,0,0.392,0.055
				c0.109,0.06,0.089,0.357,0.199,0.412s0.229,0.096,0.339,0.155c0.11,0.055,0.307-0.046,0.412,0.01
				c0.11,0.059,0.084,0.356,0.194,0.416s0.293-0.023,0.403,0.032c0.11,0.06,0.098,0.329,0.208,0.394
				c0.11,0.055,0.43-0.274,0.536-0.216c0.11,0.06,0.08,0.371,0.19,0.431s0.254,0.05,0.364,0.109c0.109,0.06,0.281,0,0.386,0.06
				c0.11,0.055,0.062,0.398,0.172,0.458c0.11,0.055,0.364-0.151,0.467-0.092c0.105,0.055,0.13,0.284,0.235,0.343
				c0.11,0.06,0.304-0.05,0.414,0.01s0.048,0.435,0.153,0.489c0.11,0.06,0.215,0.119,0.325,0.179c0.109,0.06,0.247,0.06,0.357,0.119
				c0.109,0.06,0.219,0.114,0.325,0.169c0.11,0.06,0.405-0.229,0.51-0.169c0.11,0.06,0.039,0.443,0.148,0.508
				c0.11,0.055,0.206,0.137,0.316,0.192c0.11,0.06,0.229,0.096,0.338,0.155c0.11,0.055,0.204,0.133,0.313,0.192
				c0.11,0.063,0.35-0.128,0.46-0.069c0.11,0.06,0.19,0.17,0.3,0.225s0.192,0.165,0.3,0.225c0.109,0.06,0.174,0.201,0.284,0.256
				c0.109,0.06,0.265,0.022,0.375,0.082s0.263,0.032,0.373,0.092s0.105,0.329,0.21,0.389c0.105,0.056,0.295-0.032,0.405,0.027
				c0.11,0.064,0.291-0.018,0.4,0.037s0.025,0.476,0.13,0.53c0.105,0.06,0.357-0.137,0.467-0.082s0.181,0.183,0.291,0.238
				c0.11,0.055,0.153,0.233,0.263,0.293c0.11,0.055,0.224,0.101,0.334,0.16c0.11,0.059,0.238,0.082,0.343,0.142
				c0.11,0.055,0.254,0.046,0.364,0.101c0.11,0.06,0.242,0.063,0.352,0.128c0.11,0.055,0.21,0.128,0.32,0.183
				c0.11,0.056,0.186,0.175,0.295,0.229c0.109,0.055,0.148,0.247,0.254,0.307c0.11,0.06,0.343-0.114,0.448-0.06
				c0.11,0.06,0.171,0.201,0.281,0.261s0.25,0.06,0.359,0.114s0.19,0.165,0.295,0.229c0.11,0.055,0.243,0.073,0.348,0.128
				c0.109,0.056,0.078,0.376,0.188,0.436c0.107,0.059,0.371-0.17,0.48-0.115c0.11,0.056,0.263,0.032,0.373,0.092
				c0.11,0.055,0.145,0.252,0.252,0.312c0.105,0.06,0.192,0.146,0.297,0.201c0.105,0.06,0.243,0.05,0.348,0.109
				c0.105,0.056,0.066,0.366,0.172,0.421c0.105,0.056,0.382-0.191,0.482-0.137c0.105,0.055,0.071,0.361,0.176,0.421
				c0.105,0.055,0.307-0.064,0.41-0.009c0.105,0.055,0.183,0.16,0.288,0.21c0.103,0.055,0.194,0.142,0.3,0.192
				c0.105,0.055,0.158,0.22,0.268,0.266c0.105,0.055,0.304-0.092,0.414-0.046s0.268-0.027,0.377,0.019
				c0.105,0.045,0.11,0.375,0.233,0.407c0.114,0.031,0.236,0.169,0.354,0.178c0.119,0.019,0.268-0.05,0.387-0.05
				c0.124-0.005,0.281,0.068,0.396,0.041c0.124-0.019,0.215-0.238,0.313-0.288c0.117-0.06,0.263-0.041,0.377-0.101
				c0.114-0.06,0.148-0.271,0.258-0.325s0.33,0.073,0.439,0.009c0.11-0.063,0.19-0.174,0.305-0.237
				c0.109-0.064,0.242-0.083,0.353-0.146c0.109-0.064,0.077-0.375,0.188-0.439c0.109-0.064,0.407,0.192,0.517,0.128
				c0.11-0.063,0.211-0.146,0.32-0.21c0.11-0.064,0.229-0.11,0.339-0.174c0.109-0.069,0.009-0.48,0.119-0.55
				c0.109-0.063,0.266-0.05,0.375-0.109c0.109-0.068,0.274-0.046,0.385-0.11c0.109-0.06,0.292,0,0.402-0.063
				c0.109-0.064,0.073-0.375,0.183-0.435c0.11-0.069,0.385,0.15,0.49,0.082c0.104-0.06,0.16-0.22,0.261-0.279
				c0.109-0.063,0.137-0.261,0.242-0.32c0.105-0.063,0.266-0.041,0.371-0.101c0.104-0.068,0.191-0.16,0.297-0.229
				c0.105-0.064,0.097-0.312,0.197-0.375c0.109-0.064,0.361,0.104,0.467,0.046c0.101-0.069,0.237-0.092,0.343-0.156
				c0.105-0.063,0.22-0.119,0.325-0.183c0.101-0.068,0.114-0.279,0.22-0.348c0.101-0.064,0.072-0.33,0.183-0.403
				c0.101-0.068,0.339,0.064,0.439,0c0.109-0.068,0.22-0.128,0.315-0.196c0.105-0.068,0.114-0.279,0.22-0.343
				c0.105-0.069,0.334,0.055,0.435-0.019c0.105-0.064,0.274-0.027,0.385-0.097c0.101-0.073,0.068-0.334,0.174-0.407
				c0.104-0.063,0.146-0.22,0.256-0.292c0.101-0.064,0.256-0.06,0.357-0.129c0.101-0.073,0.191-0.164,0.292-0.233
				c0.097-0.068,0.339,0.064,0.439-0.004c0.101-0.064-0.009-0.453,0.097-0.521c0.101-0.069,0.302,0.009,0.407-0.064
				c0.101-0.073,0.292-0.005,0.402-0.073c0.101-0.073,0.119-0.261,0.22-0.334c0.101-0.068,0.274-0.037,0.375-0.11
				c0.101-0.068,0.183-0.169,0.284-0.242c0.096-0.073,0.237-0.082,0.338-0.155c0.101-0.068,0.165-0.197,0.266-0.271
				c0.101-0.068,0.283-0.027,0.38-0.096c0.101-0.073,0.16-0.211,0.261-0.283c0.101-0.073,0.21-0.129,0.312-0.197
				c0.101-0.068,0.256-0.068,0.356-0.133c0.109-0.068,0.101-0.297,0.201-0.366c0.11-0.068,0.174-0.188,0.279-0.256
				c0.105-0.064,0.247-0.073,0.348-0.142c0.105-0.069,0.242-0.083,0.348-0.151c0.101-0.064,0.261-0.027,0.361-0.092
				c0.101-0.068,0.06-0.338,0.16-0.402s0.289,0.009,0.39-0.055c0.101-0.064,0.219-0.087,0.32-0.146
				c0.101-0.064,0.229-0.073,0.329-0.138c0.101-0.063,0.082-0.324,0.188-0.384c0.105-0.055,0.169-0.184,0.27-0.238
				c0.11-0.06,0.211-0.119,0.316-0.169c0.105-0.051,0.261-0.005,0.37-0.06c0.11-0.055,0.11-0.339,0.22-0.394
				c0.119-0.055,0.261-0.046,0.375-0.105c0.11-0.06,0.233-0.096,0.344-0.16c0.109-0.06,0.353,0.101,0.462,0.041
				c0.109-0.068,0.238-0.104,0.348-0.169c0.101-0.073,0.128-0.27,0.238-0.339c0.101-0.063,0.128-0.256,0.237-0.329
				c0.101-0.073,0.243-0.092,0.348-0.16c0.102-0.073,0.275-0.051,0.376-0.119c0.101-0.078,0.036-0.37,0.137-0.448
				c0.101-0.078,0.412,0.128,0.513,0.046c0.101-0.078-0.019-0.439,0.073-0.517c0.101-0.073,0.458,0.165,0.549,0.083
				c0.101-0.083-0.073-0.49,0.023-0.572c0.096-0.078,0.206-0.146,0.297-0.229c0.101-0.078,0.184-0.178,0.279-0.261
				c0.096-0.078,0.211-0.137,0.307-0.22c0.092-0.082,0.353,0.019,0.448-0.068c0.092-0.087,0.119-0.197,0.211-0.289
				c-0.101-0.082-0.22-0.101-0.316-0.183c-0.104-0.087-0.278-0.073-0.389-0.156c-0.101-0.083-0.109-0.279-0.21-0.361
				c-0.101-0.078-0.051-0.357-0.156-0.439c-0.101-0.078-0.237-0.119-0.338-0.206c-0.102-0.082-0.275-0.068-0.376-0.155
				C49.967,24.45,49.875,24.592,49.771,24.51z M24.094,26.994c-0.062-0.11-0.027-0.114-0.08-0.22
				c-0.057-0.11-0.014-0.279-0.071-0.38c-0.057-0.119-0.148-0.206-0.206-0.311c-0.062-0.11,0.052-0.334-0.014-0.43
				c-0.073-0.105-0.453,0.055-0.535-0.037c-0.08-0.091,0-0.338-0.08-0.425c-0.087-0.087-0.22-0.124-0.307-0.21
				c-0.084-0.087-0.066-0.279-0.153-0.361c-0.084-0.087-0.391,0.055-0.476-0.028c-0.087-0.091-0.035-0.32-0.126-0.398
				c-0.089-0.083-0.098-0.251-0.19-0.334c-0.091-0.083-0.364,0.05-0.458-0.027c-0.096-0.073,0.037-0.43-0.057-0.503
				c-0.096-0.073-0.377,0.091-0.474,0.018c-0.094-0.073-0.023-0.384-0.124-0.453c-0.101-0.069-0.325,0.041-0.426-0.023
				c-0.098-0.069-0.075-0.339-0.181-0.403c-0.105-0.064-0.238-0.082-0.343-0.142c-0.105-0.06-0.386,0.229-0.496,0.169
				c-0.11-0.05-0.11-0.32-0.224-0.375c-0.11-0.046-0.312,0.128-0.421,0.083c-0.114-0.046-0.146-0.297-0.261-0.334
				c-0.114-0.042-0.258,0.022-0.377-0.009c-0.114-0.032-0.167-0.32-0.286-0.353c-0.122-0.027-0.24-0.087-0.359-0.11
				c-0.119-0.018-0.295,0.302-0.414,0.284c-0.119-0.014-0.105-0.402-0.22-0.466c-0.114-0.064-0.192-0.101-0.281-0.188
				c-0.092-0.087-0.224-0.137-0.32-0.215c-0.096-0.083-0.22-0.146-0.316-0.22c-0.101-0.073-0.409,0.146-0.51,0.078
				c-0.105-0.068-0.162-0.196-0.268-0.261c-0.11-0.06-0.153-0.22-0.263-0.279c-0.107-0.06-0.251-0.046-0.361-0.096
				c-0.114-0.055-0.101-0.412-0.22-0.458c-0.114-0.046-0.329,0.155-0.448,0.119s-0.181-0.27-0.307-0.302
				c-0.119-0.037-0.304,0.188-0.428,0.165c-0.126-0.023-0.25,0.019-0.373,0c-0.124-0.018-0.224-0.183-0.348-0.201
				c-0.126-0.014-0.25-0.055-0.373-0.064c-0.124,0-0.249,0.242-0.373,0.242c-0.124,0-0.256-0.251-0.382-0.242
				c-0.124,0.014-0.233,0.169-0.353,0.183c-0.124,0.018-0.224,0.128-0.343,0.155c-0.124,0.023-0.282-0.146-0.4-0.119
				c-0.122,0.032-0.21,0.169-0.33,0.21c-0.121,0.037-0.236,0.068-0.35,0.119c-0.114,0.042-0.199,0.142-0.313,0.192
				c-0.114,0.05-0.229,0.078-0.338,0.137c-0.11,0.055-0.272,0.009-0.377,0.078c-0.105,0.064-0.33-0.045-0.435,0.023
				c-0.105,0.073-0.114,0.279-0.215,0.357c-0.101,0.073-0.071,0.302-0.167,0.38c-0.096,0.083-0.258,0.087-0.338,0.206
				c-0.071,0.109-0.291,0.165-0.343,0.292c-0.053,0.128-0.192,0.27-0.215,0.398c-0.03,0.142,0.325,0.302,0.343,0.425
				c0.014,0.091-0.034,0.206,0.08,0.307c0.087,0.078,0.192,0.133,0.307,0.197c0.11,0.068,0.247,0.027,0.357,0.064
				c0.14,0.046,0.215,0.188,0.315,0.165c0.119-0.027,0.245-0.018,0.359-0.027c0.119-0.018,0.229-0.256,0.348-0.261
				c0.119-0.004,0.252,0.096,0.373,0.101c0.119,0.005,0.247,0.023,0.361,0.042C9.61,22.936,9.729,22.977,9.85,23
				c0.114,0.023,0.229,0.087,0.343,0.119c0.114,0.037,0.256-0.005,0.371,0.037c0.11,0.037,0.087,0.421,0.197,0.467
				c0.11,0.05,0.377-0.256,0.487-0.206c0.105,0.05,0.247,0.05,0.352,0.11c0.105,0.06,0.03,0.444,0.135,0.499
				c0.103,0.06,0.327-0.091,0.432-0.032c0.096,0.06,0.149,0.197,0.259,0.229c0.105,0.032,0.249-0.11,0.364-0.091
				c0.11,0.023,0.19,0.233,0.304,0.251c0.114,0.019,0.25-0.05,0.352-0.018c0.11,0.027,0.197,0.146,0.307,0.178
				c0.11,0.023,0.243-0.041,0.348-0.004c0.11,0.032,0.263,0.014,0.359,0.073c0.105,0.064,0.142,0.238,0.247,0.311
				c0.105,0.064,0.172,0.188,0.277,0.256c0.105,0.064,0.295,0.009,0.396,0.073c0.101,0.073,0.21,0.137,0.311,0.206
				c0.101,0.073,0.224,0.115,0.325,0.183c0.101,0.069,0.137,0.238,0.243,0.307c0.105,0.064,0.21,0.133,0.315,0.201
				c0.105,0.064,0.138,0.247,0.243,0.312c0.105,0.068,0.348-0.11,0.458-0.046s0.24,0.064,0.35,0.119
				c0.11,0.055,0.076,0.412,0.186,0.462c0.114,0.05,0.254,0.05,0.373,0.101c0.115,0.05,0.272,0,0.387,0.05
				c0.114,0.046,0.22,0.119,0.339,0.169c0.119,0.041,0.21,0.16,0.329,0.201c0.119,0.042,0.295-0.101,0.414-0.068
				c0.119,0.037,0.259-0.009,0.377,0.018c0.124,0.037,0.243,0.027,0.364,0.05c0.124,0.023,0.172,0.484,0.291,0.508
				c0.124,0.018,0.3-0.398,0.426-0.389c0.124,0.01,0.229,0.339,0.357,0.339c0.124,0,0.263,0.05,0.387,0.041
				c0.124-0.004,0.219-0.329,0.343-0.351c0.124-0.014,0.302,0.27,0.425,0.237c0.119-0.022,0.256-0.041,0.382-0.077
				c0.119-0.032,0.115-0.431,0.233-0.476c0.115-0.042,0.353,0.206,0.467,0.155c0.11-0.055,0.115-0.32,0.229-0.384
				C24.019,27.077,23.984,27.063,24.094,26.994z M22.085,28.957c-0.124-0.019-0.105-0.046-0.233-0.06
				c-0.124-0.014-0.238-0.138-0.364-0.156c-0.124-0.014-0.252,0.005-0.38-0.014c-0.126-0.009-0.22-0.237-0.346-0.256
				c-0.124-0.023-0.309,0.356-0.432,0.339c-0.126-0.023-0.21-0.275-0.334-0.293c-0.126-0.027-0.263,0.022-0.387,0
				c-0.126-0.027-0.215-0.197-0.341-0.225c-0.124-0.032-0.318,0.247-0.437,0.215c-0.126-0.027-0.197-0.256-0.316-0.292
				c-0.119-0.032-0.21-0.184-0.329-0.219c-0.119-0.037-0.325,0.187-0.444,0.146c-0.119-0.037-0.119-0.412-0.238-0.462
				c-0.121-0.041-0.345,0.192-0.464,0.143c-0.114-0.046-0.114-0.367-0.229-0.417c-0.115-0.05-0.32,0.087-0.43,0.032
				s-0.105-0.334-0.22-0.394c-0.11-0.06-0.233-0.078-0.343-0.146c-0.11-0.064-0.414,0.192-0.524,0.128
				c-0.105-0.073-0.073-0.348-0.176-0.421c-0.101-0.073-0.35,0.042-0.448-0.041c-0.101-0.078-0.06-0.334-0.153-0.417
				c-0.101-0.082-0.258-0.068-0.368-0.137c-0.105-0.064-0.092-0.361-0.206-0.421s-0.224-0.151-0.343-0.201
				c-0.114-0.05-0.361,0.22-0.487,0.174c-0.119-0.041-0.119-0.435-0.238-0.471c-0.119-0.042-0.247-0.06-0.373-0.101
				c-0.119-0.042-0.251-0.042-0.375-0.078c-0.119-0.041-0.25-0.055-0.368-0.101c-0.119-0.046-0.378,0.238-0.492,0.188
				c-0.119-0.05-0.21-0.178-0.325-0.238c-0.11-0.06-0.163-0.215-0.268-0.27c-0.115-0.05-0.247-0.027-0.362-0.068
				c-0.114-0.042-0.128-0.398-0.242-0.43c-0.117-0.032-0.311,0.188-0.426,0.16c-0.119-0.028-0.201-0.252-0.32-0.27
				c-0.119-0.019-0.277,0.224-0.4,0.21C8.805,24.08,8.686,24.134,8.56,24.13c-0.119-0.009-0.229-0.169-0.352-0.169
				c-0.128-0.009-0.247-0.037-0.357-0.018c-0.13,0.009-0.163,0.27-0.263,0.311c-0.119,0.037-0.32-0.128-0.407-0.055
				c-0.089,0.073-0.041,0.252-0.103,0.353c-0.057,0.096,0,0.215-0.039,0.334c-0.035,0.105-0.254,0.156-0.277,0.284
				c-0.025,0.11,0.075,0.229,0.071,0.348c0,0.119,0,0.22,0.021,0.343c0.014,0.114,0.089,0.206,0.119,0.325
				c0.027,0.115,0.032,0.22,0.075,0.33c0.039,0.11-0.027,0.261,0.025,0.366c0.045,0.11-0.087,0.315-0.03,0.421
				c0.057,0.101,0.263,0.128,0.33,0.224c0.066,0.096,0.286,0.069,0.361,0.16c0.078,0.092,0.06,0.256,0.144,0.333
				c0.091,0.082,0.083,0.298,0.176,0.361c0.101,0.064,0.197,0.22,0.302,0.261c0.115,0.046,0.366-0.242,0.48-0.196
				C8.951,28.49,9.024,28.65,9.139,28.7c0.114,0.046,0.233,0.073,0.348,0.119c0.114,0.051,0.268,0.009,0.382,0.055
				c0.115,0.046,0.181,0.211,0.295,0.257c0.114,0.045,0.22,0.128,0.334,0.174c0.114,0.045,0.315-0.119,0.43-0.073
				c0.114,0.046,0.19,0.188,0.307,0.237c0.114,0.046,0.224,0.097,0.338,0.146c0.114,0.046,0.224,0.11,0.338,0.156
				c0.115,0.045,0.22,0.123,0.334,0.164c0.114,0.051,0.263,0.019,0.377,0.064c0.114,0.046,0.094,0.435,0.208,0.476
				c0.114,0.046,0.373-0.274,0.492-0.229c0.115,0.046,0.254,0.027,0.369,0.073c0.114,0.046,0.101,0.439,0.215,0.484
				c0.114,0.037,0.32-0.146,0.435-0.101c0.115,0.042,0.195,0.184,0.309,0.229c0.114,0.041,0.291-0.078,0.405-0.037
				c0.122,0.046,0.167,0.274,0.289,0.312c0.119,0.036,0.261-0.01,0.382,0.027c0.119,0.036,0.199,0.179,0.318,0.215
				c0.115,0.041,0.263-0.014,0.382,0.032c0.114,0.036,0.263,0,0.377,0.041s0.19,0.206,0.304,0.242
				c0.121,0.046,0.215,0.146,0.334,0.184c0.122,0.036,0.284-0.078,0.403-0.046c0.119,0.036,0.238,0.06,0.357,0.087
				c0.119,0.032,0.245,0.019,0.364,0.041c0.124,0.019,0.224,0.151,0.348,0.16c0.124,0.01,0.247,0.01,0.373,0.005
				c0.124-0.005,0.268,0.119,0.386,0.101c0.119-0.019,0.181-0.312,0.3-0.348c0.115-0.027,0.192-0.119,0.307-0.17
				c0.11-0.045,0.366,0.197,0.476,0.133c0.105-0.06,0.181-0.183,0.286-0.261c0.096-0.068,0.126-0.233,0.22-0.32
				c0.078-0.068,0.254-0.119,0.334-0.087c0.13,0.037,0.24,0.146,0.355,0.156c0.132,0.014,0.238-0.184,0.352-0.202
				c0.124-0.027,0.171-0.128,0.281-0.183c0.11-0.051,0.163-0.128,0.263-0.201c0.096-0.073,0.471,0.188,0.567,0.109
				c0.092-0.082-0.11-0.489-0.014-0.567c0.089-0.082,0.396,0.078,0.492,0c0.094-0.073,0.286-0.261,0.392-0.329
				c-0.13-0.064-0.479,0.046-0.588-0.014c-0.124-0.06-0.096-0.398-0.21-0.458c-0.114-0.06-0.375-0.133-0.501-0.196
				c-0.032,0.146,0.22,0.467,0.197,0.576c-0.034,0.142-0.373,0.184-0.405,0.298c-0.043,0.142,0.094,0.38,0.018,0.48
				c-0.101,0.133-0.373,0.348-0.496,0.32c-0.096-0.027-0.048-0.375-0.137-0.55c-0.048-0.101-0.25-0.169-0.25-0.288
				c0-0.104,0.105-0.22,0.128-0.338c0.021-0.105-0.084-0.252-0.062-0.362c0.025-0.109,0.364-0.16,0.387-0.27
				C22.401,29.085,22.071,29.071,22.085,28.957z M22.767,16.173c-0.124,0-0.213-0.083-0.334-0.083c-0.124,0-0.247-0.105-0.362-0.101
				c-0.123,0.004-0.242,0.055-0.359,0.064c-0.124,0.009-0.266-0.192-0.38-0.178c-0.126,0.014-0.188,0.425-0.307,0.444
				c-0.124,0.018-0.277-0.188-0.391-0.165c-0.119,0.028-0.22,0.128-0.334,0.156c-0.119,0.032-0.277-0.078-0.391-0.037
				c-0.115,0.037-0.115,0.371-0.22,0.417c-0.114,0.05-0.3-0.087-0.405-0.037c-0.11,0.06-0.277,0.014-0.377,0.078
				c-0.105,0.06-0.043,0.357-0.14,0.43c-0.094,0.069-0.414-0.133-0.506-0.05c-0.105,0.091,0.016,0.398-0.062,0.48
				c-0.101,0.105-0.414,0.037-0.467,0.137c-0.073,0.128,0.089,0.32,0.105,0.439c0.014,0.109-0.121,0.361-0.021,0.466
				c0.078,0.073,0.233,0.146,0.359,0.22c0.094,0.064,0.387-0.21,0.515-0.146c0.11,0.05,0.114,0.33,0.224,0.38
				s0.325-0.105,0.435-0.05c0.109,0.05,0.124,0.307,0.233,0.366c0.11,0.05,0.268,0.014,0.378,0.064
				c0.109,0.055,0.105,0.348,0.215,0.403c0.11,0.055,0.204,0.137,0.313,0.192c0.11,0.05,0.368-0.201,0.483-0.151
				c0.114,0.05,0.062,0.439,0.176,0.49c0.115,0.055,0.229,0.091,0.343,0.142c0.11,0.05,0.245,0.06,0.354,0.114
				c0.11,0.055,0.233,0.083,0.343,0.133s0.377-0.22,0.487-0.169c0.11,0.055,0.19,0.174,0.3,0.229c0.11,0.05,0.171,0.21,0.281,0.261
				s0.254,0.041,0.364,0.091c0.11,0.051,0.08,0.407,0.19,0.458c0.11,0.05,0.334-0.133,0.444-0.087
				c0.11,0.046,0.135,0.293,0.25,0.348c0.11,0.05,0.334-0.137,0.444-0.083c0.11,0.05,0.251,0.041,0.361,0.091
				c0.11,0.055,0.158,0.247,0.268,0.298c0.11,0.05,0.206,0.142,0.32,0.188c0.115,0.05,0.33-0.119,0.449-0.073
				c0.119,0.046,0.144,0.334,0.263,0.375c0.119,0.05,0.291-0.041,0.41,0c0.119,0.046,0.277,0,0.396,0.046
				c0.119,0.046,0.171,0.274,0.292,0.325c0.119,0.046,0.282-0.004,0.401,0.046s0.237,0.11,0.352,0.16
				c0.115,0.06,0.266,0.073,0.376,0.128c0.118,0.064,0.21,0.133,0.329,0.183s0.192,0.201,0.32,0.229
				c0.128,0.041,0.215,0.274,0.339,0.292c0.128,0.019,0.283-0.132,0.411-0.137c0.129,0,0.229-0.201,0.357-0.219
				c0.128-0.019,0.266,0.073,0.394,0.036c0.119-0.032,0.302,0.083,0.421,0.028c0.119-0.046,0.283-0.028,0.402-0.087
				c0.11-0.06,0.046-0.439,0.156-0.508c0.109-0.064,0.278-0.032,0.389-0.11c0.114-0.073,0.196-0.165,0.279-0.247
				c0.101-0.096,0.091-0.238,0.15-0.334c0.068-0.114,0.22-0.16,0.233-0.279c0.019-0.128,0.037-0.256,0.005-0.38
				c-0.032-0.114-0.279-0.105-0.353-0.22c-0.064-0.101-0.046-0.233-0.146-0.329c-0.087-0.087-0.169-0.179-0.256-0.27
				c-0.092-0.087-0.17-0.188-0.266-0.275c-0.092-0.082-0.165-0.192-0.256-0.274c-0.097-0.087-0.247-0.105-0.339-0.188
				c-0.101-0.078,0.036-0.448-0.064-0.526c-0.101-0.082-0.439,0.156-0.54,0.078c-0.101-0.078-0.233-0.096-0.338-0.169
				c-0.105-0.073,0.004-0.458-0.101-0.531c-0.101-0.069-0.344,0.073-0.453,0c-0.11-0.064-0.16-0.22-0.271-0.288
				c-0.109-0.069-0.302,0.014-0.411-0.051c-0.11-0.068-0.115-0.306-0.225-0.366c-0.109-0.073-0.27-0.05-0.378-0.11
				c-0.109-0.064-0.167-0.22-0.281-0.284s-0.268-0.046-0.382-0.101c-0.11-0.064-0.263-0.046-0.377-0.11s-0.167-0.233-0.277-0.293
				c-0.114-0.055-0.194-0.174-0.309-0.233c-0.115-0.06-0.297,0.032-0.412-0.027c-0.114-0.06-0.229-0.105-0.348-0.16
				c-0.114-0.05-0.243-0.073-0.357-0.128c-0.114-0.05-0.183-0.21-0.302-0.261c-0.11-0.05-0.225-0.091-0.339-0.132
				c-0.114-0.046-0.185-0.215-0.3-0.247c-0.114-0.042-0.315,0.183-0.43,0.151c-0.119-0.032-0.25-0.009-0.364-0.041
				c-0.119-0.028-0.156-0.385-0.277-0.412c-0.124-0.027-0.256,0.005-0.371-0.027c-0.126-0.027-0.268,0.05-0.378,0.027
				C23.012,16.063,22.872,16.205,22.767,16.173z M31.371,11.396c-0.109,0.009-0.21-0.069-0.32-0.069
				c-0.118,0.004-0.229-0.105-0.348-0.105c-0.109,0.004-0.22,0.041-0.338,0.045c-0.115,0.009-0.247-0.192-0.362-0.183
				c-0.114,0.014-0.16,0.421-0.27,0.449c-0.109,0.023-0.27-0.169-0.375-0.128c-0.092,0.042-0.105,0.169-0.165,0.293
				c-0.046,0.096-0.22,0.156-0.256,0.284c-0.032,0.11,0.237,0.311,0.201,0.43c-0.032,0.119-0.274,0.178-0.312,0.279
				c-0.046,0.101-0.217,0.114-0.3,0.192c-0.094,0.087,0.035,0.357-0.031,0.449c-0.083,0.109-0.449,0.05-0.487,0.146
				c-0.044,0.124,0.229,0.289,0.247,0.398c0.021,0.114-0.195,0.343-0.115,0.448c0.069,0.091,0.316,0.027,0.426,0.105
				c0.092,0.068,0.087,0.343,0.206,0.398c0.114,0.055,0.247,0.068,0.357,0.119c0.114,0.055,0.384-0.238,0.503-0.183
				c0.109,0.05,0.119,0.329,0.238,0.379c0.114,0.051,0.329-0.109,0.443-0.059c0.114,0.055,0.133,0.32,0.247,0.371
				s0.271,0.014,0.389,0.068c0.11,0.05,0.119,0.348,0.229,0.398c0.118,0.051,0.22,0.142,0.329,0.192
				c0.119,0.05,0.375-0.21,0.489-0.16c0.114,0.055,0.078,0.439,0.197,0.49c0.109,0.05,0.237,0.078,0.353,0.133
				c0.114,0.055,0.247,0.055,0.365,0.109c0.115,0.046,0.243,0.073,0.362,0.124c0.109,0.051,0.37-0.233,0.484-0.188
				c0.114,0.05,0.201,0.169,0.32,0.22c0.119,0.046,0.184,0.201,0.302,0.251c0.119,0.046,0.261,0.028,0.38,0.069
				c0.119,0.046,0.114,0.403,0.233,0.448c0.119,0.042,0.33-0.16,0.448-0.119c0.115,0.045,0.165,0.279,0.284,0.315
				c0.109,0.042,0.302-0.178,0.421-0.151s0.247-0.009,0.366,0.014c0.123,0.023,0.21,0.201,0.329,0.22
				c0.119,0.018,0.229,0.078,0.353,0.096c0.119,0.018,0.27-0.206,0.398-0.192c0.118,0.014,0.21,0.284,0.329,0.297
				s0.256-0.114,0.38-0.101c0.119,0.014,0.252-0.068,0.375-0.05c0.124,0.009,0.22,0.229,0.339,0.238
				c0.123,0.019,0.242-0.082,0.37-0.082c0.119,0,0.229-0.005,0.357-0.028c0.123-0.009,0.22-0.091,0.338-0.119
				c0.124-0.032,0.233-0.042,0.349-0.083c0.118-0.046,0.274,0.014,0.375-0.037c0.119-0.06,0.348,0.055,0.439-0.018
				c0.109-0.073,0.118-0.293,0.196-0.375c0.092-0.101-0.009-0.284,0.032-0.384c0.05-0.119,0.179-0.174,0.146-0.293
				c-0.027-0.128,0.101-0.297,0.055-0.421c-0.041-0.119-0.014-0.284-0.064-0.402c-0.055-0.11-0.438-0.064-0.498-0.183
				c-0.06-0.11-0.019-0.275-0.087-0.38c-0.073-0.105-0.156-0.197-0.229-0.307c-0.073-0.101-0.224-0.142-0.302-0.238
				c-0.077-0.101-0.063-0.274-0.146-0.375c-0.082-0.101-0.142-0.215-0.229-0.306c-0.092-0.096-0.325,0.004-0.43-0.069
				c-0.102-0.078-0.146-0.22-0.262-0.279c-0.114-0.059-0.224-0.119-0.343-0.169c-0.119-0.055-0.229-0.128-0.348-0.183
				c-0.119-0.055-0.229-0.146-0.339-0.215c-0.109-0.068-0.279-0.082-0.384-0.16c-0.101-0.082,0.073-0.43-0.014-0.531
				c-0.078-0.096-0.472,0.019-0.54-0.105c-0.06-0.105-0.156-0.133-0.261-0.243c-0.092-0.087,0.063-0.458-0.056-0.535
				c-0.109-0.083-0.356,0.046-0.476-0.014c-0.123-0.069-0.201-0.22-0.32-0.256c-0.146-0.041-0.252,0.11-0.361,0.137
				c-0.128,0.027-0.288-0.156-0.416-0.151c-0.129,0.004-0.261,0.087-0.385,0.068c-0.128-0.018-0.229-0.146-0.356-0.183
				c-0.119-0.032-0.271,0.018-0.39-0.023c-0.119-0.042-0.27-0.005-0.389-0.05c-0.119-0.042-0.201-0.21-0.32-0.247
				c-0.128-0.037-0.229-0.138-0.356-0.165c-0.119-0.027-0.274,0.101-0.398,0.092c-0.133-0.019-0.233-0.009-0.361,0
				c-0.128,0.018-0.22,0.068-0.339,0.11c-0.119,0.041-0.27-0.019-0.384,0.055c-0.102,0.064-0.202,0.137-0.303,0.229
				C31.563,11.286,31.436,11.414,31.371,11.396z M22.387,36.36c-0.14,0.027-0.359,0.018-0.492,0.045
				c0.062,0.092,0.023,0.124,0.075,0.22c0.057,0.092,0.145,0.174,0.197,0.274c0.057,0.102-0.073,0.307-0.011,0.403
				c0.064,0.096,0.451-0.046,0.517,0.046c0.071,0.087-0.035,0.311,0.048,0.384c0.094,0.083,0.233,0.101,0.334,0.174
				c0.099,0.069,0.119,0.257,0.224,0.33c0.105,0.06,0.357-0.156,0.467-0.101c0.11,0.05,0.128,0.288,0.243,0.329
				c0.117,0.05,0.197,0.201,0.311,0.238c0.119,0.036,0.307-0.202,0.426-0.179c0.119,0.027,0.181,0.397,0.299,0.416
				c0.124,0.019,0.277-0.274,0.4-0.266c0.126,0.01,0.245,0.307,0.364,0.303c0.124,0,0.238-0.225,0.362-0.233
				c0.125-0.01,0.284,0.215,0.407,0.196c0.119-0.019,0.247-0.092,0.366-0.119c0.122-0.027,0.13-0.43,0.25-0.467
				c0.114-0.041,0.309,0.151,0.426,0.102c0.114-0.046,0.119-0.312,0.229-0.366c0.11-0.056,0.325,0.087,0.428,0.018
				c0.104-0.063,0.148-0.215,0.249-0.292c0.096-0.069,0.359,0.059,0.45-0.019c0.092-0.083,0.22-0.155,0.298-0.243
				c0.082-0.087-0.096-0.407-0.022-0.498c0.073-0.097,0.443,0.019,0.512-0.083c0.064-0.101,0.119-0.233,0.174-0.338
				c0.056-0.105,0.078-0.257,0.129-0.357c0.05-0.109,0.073-0.247,0.109-0.366c0.037-0.109-0.274-0.32-0.247-0.438
				c0.027-0.119,0.114-0.202,0.128-0.32c0.01-0.129,0.138-0.229,0.128-0.348c-0.009-0.119-0.101-0.22-0.128-0.33
				c-0.032-0.119,0.247-0.339,0.211-0.448c-0.037-0.119-0.334-0.146-0.385-0.252c-0.046-0.114,0.083-0.32,0.023-0.416
				c-0.06-0.11-0.353-0.073-0.417-0.169c-0.073-0.102-0.192-0.143-0.274-0.229c-0.078-0.091-0.05-0.279-0.137-0.361
				c-0.092-0.073-0.17-0.179-0.271-0.247c-0.101-0.063-0.32,0.087-0.426,0.027c-0.104-0.05-0.098-0.329-0.215-0.375
				c-0.109-0.041-0.265,0.055-0.387,0.019c-0.114-0.032-0.242,0.036-0.361,0.009c-0.114-0.027-0.192-0.242-0.315-0.261
				c-0.119-0.019-0.247,0.078-0.362,0.06c-0.119-0.009-0.229-0.027-0.35-0.036c-0.119-0.01-0.233,0.045-0.348,0.045
				c-0.119-0.009-0.229-0.027-0.343-0.018c-0.119,0-0.238-0.101-0.356-0.092c-0.122,0.019-0.277-0.174-0.394-0.146
				c-0.115,0.019-0.199,0.211-0.309,0.247c-0.11,0.041-0.144,0.256-0.254,0.312c-0.105,0.045-0.256-0.01-0.357,0.05
				s-0.302-0.005-0.391,0.078c-0.092,0.073-0.254,0.101-0.334,0.192c-0.083,0.087,0.101,0.421,0.014,0.508
				c-0.08,0.077-0.254,0.077-0.339,0.169c-0.087,0.082-0.158,0.179-0.238,0.266c-0.083,0.082-0.091,0.237-0.167,0.32
				c-0.078,0.091-0.245,0.109-0.315,0.201c-0.071,0.101-0.158,0.188-0.215,0.293s0.119,0.288,0.083,0.402
				c-0.035,0.114-0.149,0.174-0.158,0.293c-0.009,0.119-0.021,0.211-0.005,0.339c0.014,0.109,0.014,0.21,0.053,0.338
				c0.032,0.11,0.041,0.22,0.094,0.33C22.133,36.03,22.319,36.25,22.387,36.36z M32.158,25.059
				c-0.142-0.041-0.119-0.055-0.237-0.101c-0.143-0.06-0.233-0.206-0.353-0.183c-0.124,0.023-0.238,0.073-0.357,0.092
				c-0.123,0.014-0.261-0.188-0.379-0.183c-0.119,0.004-0.238,0.407-0.362,0.407c-0.123,0-0.237-0.243-0.361-0.252
				c-0.123-0.009-0.256,0.05-0.375,0.032c-0.119-0.023-0.22-0.183-0.339-0.206s-0.311,0.256-0.43,0.224
				c-0.119-0.027-0.188-0.261-0.302-0.297c-0.119-0.032-0.202-0.183-0.316-0.22c-0.114-0.036-0.319,0.188-0.439,0.146
				c-0.114-0.037-0.11-0.416-0.224-0.458c-0.114-0.045-0.334,0.192-0.448,0.151c-0.115-0.042-0.119-0.362-0.233-0.408
				c-0.115-0.041-0.307,0.11-0.421,0.069c-0.115-0.041-0.138-0.32-0.252-0.361c-0.114-0.046-0.245-0.05-0.359-0.092
				c-0.114-0.045-0.356,0.27-0.471,0.233c-0.114-0.041-0.148-0.315-0.268-0.352c-0.114-0.037-0.302,0.151-0.417,0.119
				c-0.119-0.037-0.171-0.288-0.291-0.315c-0.114-0.032-0.268,0.027-0.382-0.014c-0.11-0.046-0.105-0.334-0.21-0.394
				c-0.103-0.055-0.176-0.142-0.282-0.202c-0.098-0.064-0.386,0.156-0.485,0.083c-0.101-0.064,0.019-0.439-0.083-0.503
				c-0.096-0.073-0.206-0.128-0.304-0.197c-0.096-0.073-0.224-0.105-0.325-0.169c-0.101-0.069-0.22-0.119-0.325-0.179
				c-0.101-0.064-0.382,0.188-0.487,0.133c-0.11-0.055-0.186-0.183-0.295-0.238c-0.11-0.055-0.171-0.22-0.281-0.275
				c-0.114-0.055-0.259-0.041-0.368-0.101c-0.115-0.05-0.085-0.402-0.199-0.458c-0.117-0.05-0.341,0.137-0.455,0.087
				c-0.115-0.05-0.146-0.288-0.261-0.338c-0.114-0.05-0.334,0.142-0.448,0.091c-0.117-0.05-0.258-0.041-0.373-0.087
				c-0.114-0.046-0.167-0.243-0.286-0.293c-0.115-0.045-0.215-0.128-0.33-0.178c-0.087-0.041-0.158,0.215-0.268,0.243
				c-0.101,0.027-0.291-0.165-0.387-0.156c0.018,0.11,0.163,0.251,0.171,0.371c0.014,0.128,0.08,0.128,0.153,0.206
				c0.085,0.091,0.062,0.284,0.19,0.329c0.124,0.042,0.302-0.018,0.417,0.032c0.11,0.05,0.224,0.105,0.334,0.151
				c0.11,0.055,0.247,0.055,0.357,0.11c0.11,0.05,0.21,0.128,0.32,0.179s0.167,0.215,0.272,0.27c0.11,0.055,0.115,0.298,0.22,0.357
				c0.105,0.055,0.291-0.027,0.396,0.032c0.105,0.06,0.304-0.041,0.409,0.018c0.105,0.064,0.145,0.233,0.25,0.302
				c0.105,0.069,0.11,0.27,0.21,0.338c0.099,0.069,0.146,0.206,0.247,0.279c0.101,0.069,0.41-0.16,0.506-0.091
				c0.101,0.073,0.124,0.242,0.224,0.32c0.096,0.068,0.206,0.128,0.297,0.21c0.094,0.073,0.251,0.078,0.343,0.155
				c0.089,0.073,0.105,0.252,0.194,0.334c0.092,0.078,0.158,0.188,0.25,0.266c0.084,0.083,0.338,0.004,0.423,0.091
				c0.087,0.087,0.101,0.243,0.188,0.334c0.08,0.087,0.163,0.183,0.242,0.275c0.083,0.091,0.149,0.201,0.229,0.292
				c0.078,0.092,0.135,0.21,0.21,0.307c0.071,0.087,0.197,0.105,0.286,0.179c0.082,0.078-0.057,0.439,0.039,0.508
				c0.092,0.068,0.405-0.197,0.506-0.142c0.101,0.055,0.215,0.046,0.32,0.092c0.105,0.045,0.066,0.43,0.176,0.471
				c0.11,0.037,0.295-0.16,0.4-0.142c0.13,0.037,0.229,0.174,0.35,0.22c0.124,0.042,0.313-0.064,0.428-0.009
				c0.119,0.06,0.144,0.302,0.254,0.366c0.114,0.073,0.272,0.064,0.373,0.146c0.103,0.087,0.124,0.247,0.208,0.343
				c0.092,0.101,0.245,0.142,0.312,0.251c0.07,0.11,0.21,0.201,0.258,0.32c0.046,0.128-0.043,0.293-0.025,0.421
				c0.019,0.128-0.009,0.315-0.022,0.448c0.085-0.091,0.148-0.302,0.231-0.394c0.087-0.087,0.174-0.183,0.265-0.274
				c0.083-0.091,0.151-0.201,0.243-0.292c0.087-0.091,0.261-0.101,0.353-0.191c0.087-0.092,0.178-0.184,0.265-0.275
				c0.092-0.091,0.274-0.091,0.366-0.183c0.082-0.087-0.019-0.366,0.073-0.458c0.082-0.091,0.128-0.229,0.22-0.32
				c0.092-0.087,0.421,0.055,0.513-0.037c0.087-0.091,0.137-0.22,0.224-0.311c0.092-0.092,0.101-0.261,0.192-0.348
				c0.087-0.092,0.206-0.16,0.298-0.256c0.091-0.092,0.229-0.128,0.32-0.22C32.223,25.237,32.067,25.159,32.158,25.059z
				 M33.604,33.98c0.119,0,0.119,0.055,0.238,0.046c0.118-0.009,0.247,0.092,0.365,0.078c0.114-0.014,0.225-0.078,0.344-0.101
				c0.114-0.023,0.288,0.15,0.397,0.123c0.119-0.036,0.11-0.453,0.22-0.489c0.119-0.041,0.303,0.133,0.412,0.087
				s0.188-0.16,0.293-0.211c0.105-0.055,0.283,0.019,0.384-0.036c0.11-0.064,0.037-0.39,0.138-0.458
				c0.101-0.063,0.312,0.037,0.402-0.036c0.097-0.073,0.266-0.064,0.357-0.143c0.087-0.082-0.027-0.361,0.055-0.443
				c0.082-0.087,0.43,0.051,0.503-0.046c0.069-0.092-0.101-0.366-0.041-0.467s0.38-0.063,0.435-0.174
				c0.056-0.101-0.101-0.297-0.063-0.412c0.027-0.109,0.302-0.174,0.329-0.292c0.019-0.115-0.009-0.257,0-0.376
				c0.009-0.118-0.366-0.237-0.37-0.356c-0.005-0.119,0.233-0.247,0.219-0.366c-0.014-0.119-0.27-0.183-0.288-0.293
				c-0.031-0.119,0.16-0.283,0.119-0.394c-0.036-0.114-0.174-0.174-0.229-0.283c-0.055-0.11,0.109-0.357,0.041-0.448
				c-0.073-0.101-0.16-0.238-0.242-0.312c-0.092-0.078-0.38,0.142-0.49,0.092c-0.114-0.046-0.068-0.43-0.178-0.485
				c-0.11-0.055-0.22-0.092-0.32-0.151c-0.105-0.063-0.238-0.082-0.348-0.142c-0.102-0.064-0.229-0.101-0.339-0.155
				c-0.11-0.055-0.375,0.215-0.49,0.165c-0.109-0.05-0.178-0.16-0.297-0.197c-0.119-0.041-0.201-0.183-0.32-0.206
				c-0.119-0.023-0.238,0.032-0.366,0.018c-0.123-0.009-0.238-0.343-0.366-0.348c-0.123,0-0.256,0.265-0.375,0.274
				c-0.128,0-0.274-0.188-0.402-0.174c-0.124,0.014-0.215,0.293-0.339,0.316c-0.123,0.022-0.225,0.114-0.348,0.142
				c-0.128,0.027-0.284-0.083-0.402-0.046c-0.119,0.037-0.252,0.046-0.371,0.092c-0.123,0.045-0.133,0.32-0.242,0.371
				c-0.119,0.06-0.339-0.114-0.448-0.051c-0.11,0.069-0.138,0.257-0.238,0.33c-0.101,0.073-0.128,0.215-0.22,0.297
				c-0.101,0.087-0.32,0.027-0.402,0.124c-0.083,0.096-0.069,0.256-0.138,0.366c-0.087,0.128-0.146,0.22-0.192,0.329
				c-0.063,0.146-0.027,0.229-0.027,0.348c0,0.142,0,0.183,0.083,0.293c0.068,0.096,0.073,0.247,0.201,0.325
				c0.105,0.06,0.137,0.32,0.274,0.37c0.151,0.06,0.348-0.06,0.457-0.055c0.146,0.005,0.175-0.197,0.275-0.266
				c0.101-0.073,0.247-0.06,0.329-0.174c0.073-0.101,0.283-0.123,0.356-0.238c0.069-0.114,0.211-0.155,0.279-0.256
				c0.078-0.109-0.119-0.439-0.041-0.526c0.092-0.101,0.274-0.109,0.366-0.192c0.101-0.087,0.192-0.178,0.302-0.242
				c0.11-0.073,0.192-0.22,0.312-0.266c0.119-0.05,0.288,0.032,0.411,0.01c0.124-0.027,0.257,0,0.385,0
				c0.119,0.009,0.298-0.197,0.43-0.17c0.119,0.032,0.238,0.17,0.357,0.22c0.109,0.051,0.238,0.114,0.353,0.179
				c0.104,0.064,0.215,0.155,0.315,0.229c0.109,0.083,0.192,0.192,0.279,0.271c0.096,0.091,0.251,0.15,0.315,0.251
				c0.073,0.11-0.206,0.357-0.174,0.477c0.041,0.119,0.439,0.169,0.439,0.293c0,0.118,0.046,0.292,0.019,0.421
				c-0.028,0.114-0.421,0.123-0.477,0.247c-0.041,0.109,0.128,0.324,0.069,0.438c-0.069,0.129-0.229,0.188-0.307,0.289
				c-0.083,0.114-0.064,0.338-0.165,0.416c-0.101,0.082-0.329-0.009-0.458,0.032c-0.118,0.041-0.229,0.16-0.37,0.16
				c-0.124,0.009-0.242-0.11-0.38-0.142c-0.119-0.023-0.274,0.031-0.407-0.019c-0.109-0.041-0.242,0.004-0.361-0.032
				c-0.11-0.036-0.188-0.192-0.307-0.22c-0.11-0.027-0.206-0.128-0.325-0.155c-0.109-0.027-0.261,0.092-0.384,0.06
				c-0.11-0.032-0.138-0.083-0.257-0.114c0.051,0.109,0.146,0.091,0.197,0.191c0.05,0.101,0,0.261,0.05,0.366
				c0.051,0.105,0.101,0.211,0.156,0.312c0.055,0.101-0.019,0.27,0.036,0.375c0.051,0.105,0.348,0.092,0.398,0.192
				c0.05,0.101,0.16,0.183,0.206,0.283c0.05,0.105-0.202,0.357-0.146,0.458c0.05,0.109,0.155,0.183,0.201,0.288
				C33.33,33.976,33.554,33.871,33.604,33.98z M2.904,31.144c-0.099,0.101-0.128,0.037-0.229,0.138
				c0.053,0.091-0.009,0.155,0.035,0.251c0.048,0.097,0.124,0.17,0.176,0.257c0.062,0.096,0.009,0.353,0.101,0.397
				c0.11,0.056,0.405-0.232,0.515-0.178c0.11,0.06,0.105,0.32,0.215,0.38c0.11,0.055,0.25,0.05,0.357,0.109
				c0.11,0.06,0.144,0.252,0.254,0.312c0.11,0.055,0.369-0.16,0.474-0.101c0.11,0.06,0.114,0.302,0.224,0.361
				s0.156,0.224,0.261,0.279c0.11,0.059,0.35-0.124,0.46-0.06c0.11,0.06,0.042,0.425,0.146,0.489
				c0.105,0.06,0.364-0.142,0.469-0.082c0.105,0.06,0.071,0.375,0.176,0.43c0.105,0.064,0.32-0.064,0.426-0.009
				c0.103,0.063,0.094,0.338,0.199,0.397c0.105,0.06,0.233,0.078,0.343,0.143c0.11,0.063,0.403-0.211,0.506-0.151
				c0.105,0.06,0.091,0.334,0.201,0.398c0.105,0.06,0.33-0.092,0.439-0.028c0.105,0.064,0.101,0.32,0.21,0.385
				c0.105,0.06,0.263,0.032,0.371,0.092c0.105,0.06,0.083,0.348,0.192,0.411c0.105,0.064,0.195,0.156,0.305,0.216
				c0.105,0.06,0.382-0.179,0.487-0.119c0.105,0.06,0.034,0.439,0.139,0.499c0.105,0.063,0.225,0.101,0.33,0.164
				c0.105,0.064,0.238,0.083,0.343,0.138c0.105,0.063,0.229,0.096,0.334,0.155c0.105,0.064,0.391-0.188,0.497-0.128
				c0.105,0.06,0.176,0.183,0.286,0.238c0.105,0.063,0.158,0.229,0.263,0.283c0.105,0.064,0.247,0.055,0.357,0.114
				c0.105,0.06,0.053,0.412,0.163,0.472c0.105,0.06,0.343-0.11,0.453-0.055c0.105,0.063,0.114,0.302,0.224,0.356
				s0.343-0.109,0.448-0.055c0.105,0.06,0.25,0.063,0.354,0.119c0.11,0.06,0.137,0.256,0.247,0.32c0.11,0.055,0.197,0.15,0.307,0.21
				c0.11,0.055,0.334-0.101,0.439-0.041c0.105,0.06,0.094,0.339,0.199,0.398c0.11,0.06,0.286-0.01,0.392,0.05
				c0.105,0.06,0.263,0.032,0.368,0.092c0.11,0.06,0.124,0.288,0.229,0.348c0.109,0.06,0.268,0.022,0.377,0.078
				c0.11,0.055,0.215,0.118,0.325,0.174c0.11,0.06,0.243,0.063,0.353,0.118c0.109,0.06,0.206,0.138,0.315,0.192
				s0.163,0.215,0.272,0.274c0.11,0.056,0.119,0.303,0.229,0.357s0.291-0.037,0.4,0.022s0.307-0.06,0.414,0
				c0.11,0.06,0.163,0.225,0.272,0.279c0.11,0.06,0.144,0.266,0.254,0.32c0.11,0.06,0.181,0.192,0.291,0.252
				c0.11,0.055,0.382-0.215,0.492-0.16c0.11,0.06,0.167,0.215,0.277,0.274c0.11,0.05,0.229,0.092,0.339,0.146
				s0.263,0.019,0.373,0.077c0.11,0.051,0.167,0.22,0.277,0.271c0.11,0.055,0.21,0.138,0.32,0.188
				c0.11,0.051,0.318-0.101,0.428-0.05c0.11,0.055,0.179,0.196,0.293,0.251c0.11,0.051,0.22,0.105,0.33,0.16
				s0.213,0.119,0.323,0.174c0.109,0.051,0.21,0.133,0.32,0.184c0.109,0.05,0.258,0.027,0.368,0.073
				c0.11,0.055,0.071,0.435,0.185,0.484c0.115,0.056,0.387-0.256,0.497-0.21c0.114,0.05,0.25,0.046,0.364,0.091
				c0.114,0.051,0.208,0.439,0.325,0.485c0-0.119-0.183-0.348-0.197-0.448c-0.014-0.119,0.066-0.247,0.03-0.339
				c-0.048-0.119-0.201-0.063-0.288-0.119c-0.11-0.055-0.124-0.292-0.233-0.348c-0.11-0.06-0.263-0.036-0.373-0.101
				c-0.11-0.055-0.171-0.21-0.281-0.266c-0.11-0.055-0.261-0.031-0.371-0.091c-0.11-0.055-0.258-0.041-0.368-0.101
				c-0.11-0.056-0.163-0.229-0.272-0.284s-0.19-0.174-0.3-0.229s-0.297,0.022-0.407-0.037c-0.11-0.055-0.224-0.109-0.334-0.164
				s-0.238-0.087-0.348-0.146c-0.11-0.055-0.167-0.215-0.277-0.274c-0.11-0.056-0.224-0.114-0.334-0.174
				c-0.11-0.056-0.158-0.229-0.268-0.289c-0.11-0.059-0.348,0.124-0.458,0.069c-0.11-0.06-0.25-0.064-0.359-0.119
				c-0.107-0.06-0.062-0.416-0.171-0.476c-0.11-0.056-0.247-0.06-0.357-0.119c-0.105-0.055-0.263-0.023-0.369-0.083
				c-0.105-0.063-0.185-0.16-0.291-0.229c-0.101-0.063-0.158-0.201-0.263-0.266c-0.099-0.063-0.309,0.019-0.41-0.045
				c-0.101-0.069-0.243-0.069-0.348-0.129c-0.105-0.068-0.22-0.101-0.32-0.16c-0.105-0.059,0-0.517-0.11-0.567
				c-0.11-0.059-0.396,0.289-0.506,0.247c-0.114-0.041-0.135-0.389-0.254-0.407c-0.119-0.027-0.261-0.101-0.382-0.101
				c-0.128,0-0.277,0.312-0.391,0.289c-0.124-0.019-0.163-0.349-0.277-0.39c-0.115-0.036-0.195-0.096-0.3-0.155
				c-0.11-0.055-0.405,0.201-0.506,0.138c-0.101-0.069-0.004-0.403-0.101-0.48c-0.096-0.078-0.334,0.031-0.43-0.046
				c-0.089-0.078-0.247-0.078-0.338-0.151c-0.096-0.082,0.004-0.407-0.091-0.476c-0.099-0.064-0.3,0.027-0.405-0.027
				c-0.105-0.056-0.171-0.192-0.286-0.233c-0.11-0.041-0.247,0.06-0.373,0.036c-0.114-0.019-0.158-0.356-0.272-0.389
				c-0.114-0.037-0.313,0.21-0.423,0.169c-0.109-0.041-0.125-0.32-0.229-0.37c-0.11-0.046-0.263,0.009-0.368-0.046
				c-0.105-0.055-0.243-0.051-0.348-0.11c-0.105-0.055-0.105-0.288-0.21-0.348c-0.101-0.063-0.233-0.063-0.338-0.123
				c-0.101-0.06-0.316,0.073-0.421,0.009c-0.105-0.06-0.124-0.261-0.224-0.315c-0.105-0.06-0.176-0.183-0.282-0.238
				c-0.114-0.055-0.387,0.156-0.496,0.092c-0.115-0.064,0.034-0.443-0.053-0.535c-0.08-0.097-0.238-0.124-0.325-0.215
				c-0.084-0.092-0.396,0.06-0.485-0.023c-0.091-0.087,0.004-0.366-0.087-0.443c-0.096-0.083-0.338,0.036-0.435-0.046
				c-0.094-0.073-0.194-0.128-0.295-0.197c-0.101-0.073,0.014-0.457-0.087-0.525c-0.098-0.064-0.313,0.036-0.418-0.028
				c-0.105-0.063-0.092-0.338-0.197-0.402c-0.105-0.063-0.313,0.06-0.418,0c-0.11-0.055-0.167-0.21-0.277-0.266
				c-0.11-0.055-0.33,0.115-0.439,0.064c-0.11-0.055-0.24-0.064-0.35-0.119c-0.107-0.05-0.217-0.101-0.327-0.15
				c-0.11-0.051-0.158-0.238-0.268-0.289c-0.11-0.055-0.311,0.083-0.421,0.027c-0.11-0.05-0.066-0.425-0.176-0.476
				c-0.11-0.055-0.33,0.128-0.439,0.068c-0.109-0.05-0.176-0.196-0.281-0.251c-0.11-0.06-0.11-0.307-0.22-0.366
				C3.172,30.869,3.009,31.203,2.904,31.144z M42.77,22.148c-0.092,0.083,0.06,0.128-0.027,0.21
				c-0.092,0.083-0.261,0.083-0.361,0.156c-0.092,0.073-0.174,0.178-0.275,0.251c-0.101,0.069-0.32-0.041-0.421,0.023
				c-0.101,0.069-0.018,0.476-0.128,0.531c-0.109,0.055-0.329-0.096-0.439-0.046c-0.114,0.046-0.201,0.16-0.32,0.202
				c-0.114,0.045-0.274-0.06-0.394-0.027c-0.118,0.037-0.169,0.366-0.292,0.393c-0.119,0.023-0.284-0.16-0.403-0.137
				c-0.119,0.019-0.256-0.091-0.38-0.082c-0.118,0.009-0.233,0.288-0.356,0.288c-0.124,0-0.242-0.353-0.361-0.361
				c-0.128-0.005-0.266,0.284-0.39,0.274c-0.123-0.009-0.21-0.32-0.329-0.338c-0.119-0.014-0.27,0.183-0.389,0.165
				c-0.119-0.019-0.201-0.284-0.32-0.307s-0.247-0.004-0.366-0.027s-0.32,0.325-0.439,0.297c-0.119-0.019-0.192-0.288-0.311-0.32
				c-0.119-0.019-0.289,0.183-0.407,0.156c-0.119-0.023-0.192-0.275-0.312-0.302c-0.119-0.023-0.256,0.055-0.38,0.027
				c-0.128-0.018-0.21-0.302-0.32-0.311c-0.128-0.009-0.288-0.046-0.394-0.027c-0.128,0.009-0.15,0.375-0.242,0.421
				c-0.105,0.06-0.453-0.091-0.518,0.009c-0.05,0.087-0.101,0.292-0.109,0.421c-0.019,0.105,0.027,0.265,0.041,0.394
				c0.01,0.101,0.06,0.238,0.087,0.361c0.023,0.105,0.302,0.004,0.339,0.124c0.128-0.018,0.109,0,0.229-0.014
				c0.128-0.019,0.266,0.078,0.389,0.069c0.124-0.019,0.243-0.101,0.362-0.11c0.128-0.009,0.27,0.311,0.389,0.302
				c0.123,0,0.237-0.27,0.356-0.27c0.124,0,0.243,0.21,0.361,0.215c0.119,0.004,0.266-0.247,0.385-0.229
				c0.124,0.014,0.266-0.037,0.385-0.009c0.118,0.023,0.21,0.202,0.329,0.233c0.119,0.032,0.229,0.096,0.348,0.142
				c0.11,0.037,0.329-0.137,0.439-0.083c0.109,0.046,0.109,0.33,0.22,0.394c0.109,0.055,0.288,0,0.394,0.073
				c0.101,0.064,0.265,0.068,0.361,0.146c0.096,0.073,0.063,0.311,0.15,0.394c0.092,0.082,0.257,0.096,0.339,0.188
				c0.083,0.091,0.165,0.192,0.247,0.288c0.073,0.092,0.019,0.101,0.092,0.202c0.032-0.138-0.027-0.138,0-0.256
				c0.036-0.137,0.183-0.238,0.21-0.353c0.042-0.137,0.279-0.197,0.32-0.307c0.046-0.132-0.063-0.302-0.009-0.402
				c0.06-0.119-0.027-0.339,0.051-0.439c0.077-0.096,0.261-0.119,0.365-0.21c0.087-0.083,0.293-0.037,0.403-0.128
				c0.087-0.073,0.242-0.083,0.353-0.174c0.091-0.073-0.037-0.439,0.073-0.531c0.101-0.083,0.27-0.073,0.356-0.165
				c0.092-0.091,0.155-0.201,0.238-0.302c0.082-0.101,0.073-0.256,0.155-0.362c0.073-0.105,0.247-0.142,0.315-0.242
				c0.073-0.11,0.174-0.197,0.252-0.297C42.788,22.231,42.691,22.245,42.77,22.148z M42.897,25.818
				c0.092-0.092,0.068-0.06,0.16-0.146c0.092-0.083,0.261-0.092,0.353-0.183c0.087-0.083,0.155-0.201,0.247-0.284
				c0.091-0.087,0.329-0.019,0.421-0.105c0.087-0.087-0.097-0.462-0.005-0.549s0.344-0.004,0.431-0.096
				c0.091-0.083,0.137-0.224,0.219-0.311c0.092-0.083,0.284-0.064,0.376-0.151c0.091-0.087-0.037-0.398,0.055-0.49
				c0.092-0.083,0.329-0.018,0.412-0.11c0.087-0.083,0.265-0.083,0.356-0.169c0.087-0.087-0.068-0.247,0.019-0.334
				c-0.078-0.124,0.165-0.325,0.092-0.412c-0.102-0.119-0.398,0.009-0.495-0.06c-0.118-0.087-0.123-0.407-0.242-0.43
				c-0.133-0.032-0.283,0.188-0.412,0.22c-0.123,0.027-0.348-0.142-0.466-0.078c-0.11,0.055-0.22,0.178-0.33,0.256
				c-0.105,0.068,0.005,0.458-0.101,0.54c-0.105,0.073-0.348-0.055-0.443,0.019c-0.105,0.073-0.056,0.338-0.146,0.407
				c-0.11,0.082-0.348-0.014-0.431,0.064c-0.101,0.087-0.114,0.243-0.192,0.33c-0.091,0.096-0.384,0.037-0.443,0.132
				c-0.068,0.11-0.179,0.266-0.206,0.375c-0.027,0.119,0.298,0.279,0.307,0.407c0.009,0.114-0.32,0.315-0.279,0.439
				c0.027,0.105,0.101,0.238,0.16,0.357c0.051,0.105,0.146,0.206,0.211,0.32C42.591,25.877,42.829,25.699,42.897,25.818z
				 M45.949,25.8c0.128,0,0.201,0.078,0.32,0.069c0.119-0.014,0.257,0.078,0.371,0.06c0.123-0.028,0.229-0.101,0.338-0.138
				c0.119-0.041,0.325,0.105,0.431,0.046c0.109-0.055,0-0.458,0.096-0.526c0.101-0.073,0.33,0.027,0.412-0.06
				c0.078-0.092,0.092-0.22,0.16-0.32s0.252-0.146,0.297-0.256c0.051-0.11-0.21-0.311-0.183-0.435
				c0.022-0.096,0.238-0.16,0.242-0.289c0.005-0.119,0.115-0.261,0.101-0.366c-0.022-0.156-0.229-0.101-0.297-0.128
				c-0.11-0.045-0.155-0.412-0.293-0.421c-0.128-0.014-0.256,0.289-0.385,0.311c-0.137,0.028-0.379-0.192-0.479-0.128
				c-0.102,0.064-0.073,0.316-0.17,0.394c-0.092,0.073-0.348-0.037-0.439,0.041c-0.091,0.078-0.15,0.197-0.242,0.279
				c-0.087,0.083,0.096,0.439,0.014,0.526c-0.082,0.087-0.339,0-0.421,0.091c-0.082,0.087,0.009,0.338-0.073,0.425
				c-0.082,0.092-0.339,0.073-0.394,0.21c-0.073,0.156-0.014,0.279,0.037,0.371c0.05,0.105-0.01,0.379,0.101,0.444
				C45.629,26.074,45.895,25.763,45.949,25.8z M43.557,27.772c-0.041-0.128,0.041-0.138,0-0.27
				c-0.128-0.009-0.179-0.119-0.307-0.128c-0.133-0.019-0.266,0-0.389-0.019c-0.133-0.014-0.229-0.242-0.362-0.256
				c-0.128-0.014-0.302,0.361-0.43,0.348s-0.229-0.266-0.357-0.275c-0.128-0.018-0.219,0.028-0.338,0.009
				c-0.01,0.101-0.146,0.156-0.165,0.274c-0.022,0.156,0.184,0.115,0.242,0.156c0.105,0.082,0.087,0.32,0.192,0.398
				c0.105,0.077,0.146,0.251,0.252,0.32c0.109,0.068,0.366-0.097,0.476-0.032c0.11,0.063,0.06,0.439,0.179,0.494
				c0.119,0.06,0.353-0.174,0.48-0.128c0.055,0.018,0.256,0.109,0.38-0.064c0.077-0.109-0.023-0.356,0.06-0.48
				C43.561,27.997,43.487,27.873,43.557,27.772z M44.192,32.425c0.046,0.092,0.009,0.055,0.064,0.146
				c0.045,0.092-0.01,0.238,0.045,0.329c0.105-0.063,0.184-0.16,0.293-0.229c0.101-0.063,0.32,0.046,0.431-0.019
				c0.101-0.063-0.01-0.467,0.096-0.535s0.334,0.064,0.439-0.005c0.105-0.063,0.169-0.191,0.279-0.261
				c0.101-0.068,0.293-0.014,0.394-0.077c0.104-0.064,0.046-0.394,0.146-0.462c0.109-0.069,0.32,0.041,0.43-0.023
				c0.101-0.068,0.271-0.036,0.375-0.096c0.105-0.069,0.064-0.371,0.165-0.435c0.109-0.064,0.402,0.164,0.508,0.101
				c0.105-0.069,0.051-0.385,0.151-0.453c0.104-0.068,0.435,0.027,0.54-0.041c-0.056-0.092-0.275-0.179-0.33-0.266
				c-0.109,0.055-0.302-0.105-0.412-0.046c-0.109,0.055-0.191,0.155-0.302,0.211c-0.109,0.059-0.036,0.457-0.146,0.512
				c-0.109,0.056-0.329-0.101-0.438-0.036c-0.11,0.055-0.11,0.32-0.211,0.384c-0.109,0.06-0.329-0.082-0.439-0.022
				c-0.109,0.06-0.164,0.211-0.274,0.27c-0.109,0.056-0.343-0.118-0.453-0.059c-0.109,0.059-0.233,0.087-0.343,0.142
				c-0.11,0.06-0.055,0.421-0.165,0.476c-0.109,0.06-0.389-0.201-0.499-0.142c-0.109,0.06-0.205,0.142-0.315,0.196
				C44.11,32.041,44.302,32.361,44.192,32.425z M26.471,27.484c-0.094-0.05-0.119-0.156-0.215-0.21
				c-0.094-0.046-0.137-0.197-0.233-0.247c-0.043,0.105-0.062,0.238-0.119,0.348c-0.058,0.11-0.312,0.137-0.348,0.247
				c-0.048,0.133,0.309,0.247,0.339,0.357c0.027,0.109-0.144,0.274-0.087,0.375c0.057,0.096,0.183,0.146,0.254,0.238
				c0.071,0.087,0.027,0.27,0.105,0.356c0.076,0.092,0.225-0.109,0.291-0.019c0.071-0.077,0.115,0.056,0.19-0.022
				c0.083-0.078,0.245-0.068,0.32-0.151c0.078-0.082-0.066-0.334-0.004-0.425c0.066-0.092,0.435-0.032,0.462-0.133
				c0.025-0.083-0.304-0.156-0.414-0.274c-0.075-0.083,0.048-0.375-0.043-0.462C26.872,27.374,26.544,27.562,26.471,27.484z
				 M31.316,40.958c0.064,0.102-0.046,0.037,0.023,0.133c0.104-0.063,0.178-0.018,0.278-0.082c0.11-0.073,0.188-0.165,0.289-0.233
				c0.104-0.068,0.32,0.051,0.425-0.019c0.105-0.068-0.009-0.467,0.097-0.535c0.104-0.064,0.329,0.064,0.435,0
				c0.101-0.064,0.165-0.192,0.27-0.256c0.105-0.064,0.288-0.005,0.39-0.073c0.101-0.064,0.036-0.394,0.137-0.462
				c0.105-0.069,0.312,0.041,0.421-0.023c0.101-0.064,0.271-0.027,0.371-0.096c0.104-0.069,0.06-0.361,0.16-0.431
				c0.109-0.068,0.397,0.17,0.503,0.101c0.105-0.068,0.046-0.389,0.146-0.448c0.109-0.06,0.366,0.114,0.467,0.051
				c0.109-0.06,0.068-0.284,0.174-0.348c-0.055-0.083-0.036-0.348-0.092-0.431c-0.109,0.064-0.32,0.192-0.421,0.257
				c-0.101,0.063,0,0.452-0.109,0.512c-0.101,0.069-0.339-0.082-0.439-0.009c-0.109,0.064-0.082,0.325-0.188,0.394
				c-0.105,0.064-0.33-0.064-0.435,0c-0.105,0.064-0.156,0.215-0.257,0.283c-0.109,0.064-0.348-0.101-0.457-0.036
				c-0.101,0.064-0.22,0.101-0.33,0.165c-0.101,0.063-0.018,0.421-0.128,0.484c-0.101,0.064-0.397-0.183-0.503-0.114
				s-0.197,0.146-0.302,0.211c-0.105,0.068-0.184,0.169-0.284,0.233c-0.109,0.063-0.192,0.155-0.297,0.22
				c-0.105,0.063-0.023,0.435-0.119,0.503C31.436,40.968,31.417,40.89,31.316,40.958z"/>
		</g>
		<g>
			<path d="M25.785,33.057c0.114,0.027,0.133,0.142,0.263,0.191c0.114,0.046,0.251,0.01,0.375,0.069
				c0.11,0.06,0.35-0.101,0.46-0.032c0.11,0.064,0.119,0.293,0.224,0.366c0.105,0.073,0.309,0.019,0.41,0.096
				c0.105,0.078,0.272,0.101,0.368,0.179c0.101,0.092-0.034,0.421,0.048,0.508c0.094,0.105,0.081,0.242,0.142,0.339
				c0.082,0.133,0.421,0.133,0.421,0.242c0,0.096-0.197,0.197-0.264,0.339c-0.048,0.109,0.101,0.348,0.019,0.467
				c-0.066,0.101-0.114,0.247-0.194,0.356c-0.078,0.101-0.268,0.128-0.355,0.225c-0.084,0.096-0.366,0.014-0.458,0.105
				c-0.089,0.091,0.021,0.393-0.071,0.479c-0.101,0.092-0.192,0.211-0.286,0.279c-0.114,0.092-0.364-0.046-0.464,0
				c-0.155,0.083-0.313,0.279-0.391,0.22c-0.098-0.077-0.251-0.101-0.348-0.188c-0.096-0.082-0.186-0.188-0.277-0.27
				c-0.092-0.092-0.158-0.211-0.243-0.298c-0.087-0.092,0.005-0.343-0.082-0.439c-0.08-0.096-0.295-0.073-0.382-0.169
				c-0.08-0.092-0.142-0.211-0.224-0.302c-0.08-0.101-0.243-0.128-0.325-0.22c-0.08-0.101-0.051-0.288-0.133-0.38
				c-0.08-0.096-0.343-0.197-0.43-0.288c0.083-0.078,0.25-0.271,0.33-0.357c0.082-0.082,0.4,0.069,0.482-0.014
				c0.08-0.077-0.009-0.334,0.076-0.416c0.083-0.083,0.048-0.284,0.13-0.371c0.08-0.077,0.375,0.041,0.458-0.036
				c0.08-0.083,0.027-0.302,0.11-0.389c0.08-0.083,0.171-0.16,0.251-0.243C25.503,33.029,25.698,33.139,25.785,33.057z"/>
		</g>
	</g>
</g>
</svg>
