<?xml version="1.0" encoding="utf-8"?>
<!-- Generator: Adobe Illustrator 16.0.0, SVG Export Plug-In . SVG Version: 6.00 Build 0)  -->
<!DOCTYPE svg PUBLIC "-//W3C//DTD SVG 1.1//EN" "http://www.w3.org/Graphics/SVG/1.1/DTD/svg11.dtd">
<svg version="1.1" id="圖層_1" xmlns="http://www.w3.org/2000/svg" xmlns:xlink="http://www.w3.org/1999/xlink" x="0px" y="0px"
	 width="55px" height="55px" viewBox="0 0 55 55" enable-background="new 0 0 55 55" xml:space="preserve">
<path d="M46.357,14.712c-2.194,1.088-4.369,2.194-6.545,3.291c-0.146,0.064-0.292,0.119-0.475,0.201c0-1.371,0-2.679,0-3.994
	c-0.019-2.624-1.773-4.388-4.388-4.397c-9.351,0-18.711,0-28.062,0c-2.642,0-4.388,1.783-4.388,4.425c0,8.839,0,17.669,0,26.508
	c0,2.669,1.755,4.442,4.424,4.442c9.333,0,18.675,0,28.008,0c0.329,0,0.658-0.009,0.969-0.063c2.065-0.394,3.4-2.029,3.437-4.196
	c0.018-1.353,0-2.696,0-4.141c0.219,0.109,0.366,0.165,0.512,0.247c2.157,1.078,4.314,2.157,6.454,3.235
	c2.961,1.49,6.179-0.475,6.197-3.774c0-6.006,0-12.012,0-18.017C52.463,15.233,49.246,13.268,46.357,14.712z M29.246,29.082
	l-12.222,7.047c-1.215,0.704-2.733-0.174-2.733-1.572V20.453c0-1.399,1.518-2.276,2.733-1.572l12.222,7.047
	C30.452,26.623,30.452,28.378,29.246,29.082z"/>
<path fill="#FFFFFF" d="M34.525,25.923l-12.222-7.047c-1.216-0.704-2.733,0.174-2.733,1.572v14.095c0,1.408,1.518,2.285,2.733,1.581
	l12.222-7.057C35.731,28.382,35.731,26.627,34.525,25.923z"/>
<g>
</g>
<g>
</g>
<g>
</g>
<g>
</g>
<g>
</g>
<g>
</g>
<g>
</g>
<g>
</g>
<g>
</g>
<g>
</g>
<g>
</g>
<g>
</g>
<g>
</g>
<g>
</g>
<g>
</g>
</svg>
