<?xml version="1.0" encoding="utf-8"?>
<!-- Generator: Adobe Illustrator 16.0.0, SVG Export Plug-In . SVG Version: 6.00 Build 0)  -->
<!DOCTYPE svg PUBLIC "-//W3C//DTD SVG 1.1//EN" "http://www.w3.org/Graphics/SVG/1.1/DTD/svg11.dtd">
<svg version="1.1" id="圖層_1" xmlns="http://www.w3.org/2000/svg" xmlns:xlink="http://www.w3.org/1999/xlink" x="0px" y="0px"
	 width="55px" height="55px" viewBox="0 0 55 55" enable-background="new 0 0 55 55" xml:space="preserve">
<g>
	<g>
		<g>
			<path fill="#FBEEE5" d="M26.239,48.472c-0.583,0.164-1.226,0.229-1.74,0.518c-1.913,1.059-3.787,1.433-5.695-0.008
				c-0.337-0.259-0.756-0.428-1.167-0.553c-0.561-0.159-0.915-0.111-1.157,0.652c-0.328,1.031-1.002,1.964-1.537,2.928
				c-0.069,0.115-0.199,0.259-0.319,0.28c-1.442,0.259-2.876,0.543-4.327,0.725c-0.769,0.104-1.567-0.039-2.349,0.04
				c-1.347,0.128-1.956-0.247-2.254-1.563c-0.5-2.207-1.07-4.4-1.472-6.628C3.489,40.804,3.01,36.7,4.192,32.655
				c0.794-2.72,1.745-5.415,2.884-8.01c0.63-1.45,1.727-2.729,2.711-4.011c1.542-2,2.634-4.106,2.263-6.749
				c-0.026-0.181,0.38-0.44,0.604-0.639c0.061-0.052,0.216-0.008,0.32,0.009c3.635,0.501,7.185-0.242,10.751-0.751
				c4.338-0.613,8.67-1.308,13.006-1.986c0.948-0.151,1.882-0.372,2.909-0.575c0.268,2.509,2.099,3.39,3.903,4.443
				c2.129,1.235,4.115,2.729,6.124,4.171c0.31,0.224,0.525,0.708,0.611,1.11c0.502,2.344,0.984,4.693,1.391,7.06
				c0.169,1.006-0.232,1.304-1.252,1.122c-1.192-0.21-2.366-0.465-3.304,0.636c-0.275-0.206-0.496-0.333-0.66-0.509
				c-0.496-0.514-0.877-0.342-1.236,0.159c-0.577,0.819-1.099,1.692-1.77,2.43c-0.298,0.329-0.906,0.567-1.347,0.533
				c-0.881-0.069-1.545,0.223-1.884,0.954c-0.62,1.333-1.208,2.693-1.622,4.096c-0.19,0.641,0.13,1.419,0.121,2.126
				c0,0.294-0.199,0.689-0.44,0.837c-0.907,0.579-1.849,1.105-2.808,1.581c-1.411,0.708-2.849,1.356-4.274,2.028
				c-0.683,0.325-1.338,0.7-2.037,0.977c-1.338,0.543-1.857,1.334-1.96,2.793c-0.052,0.773-0.319,1.534-0.496,2.294
				C26.55,48.684,26.395,48.576,26.239,48.472z"/>
			<path fill="#FBEEE5" d="M15.427,12.599c-1.001-0.061-2.008-0.121-3.014-0.19c-1.942-0.143-3.04-1.494-3.342-2.842
				c-0.319-1.459,0.086-2.375,1.564-2.858c2.465-0.794,4.948-1.551,7.46-2.167c2.064-0.501,4.163-0.85,6.261-1.157
				c1.213-0.173,2.47-0.061,3.687-0.22c1.382-0.177,2.729-0.639,4.102-0.734c2.967-0.203,5.941-0.324,8.921-0.332
				c1.338-0.004,1.753,0.704,1.658,2.029c-0.044,0.587,0.221,1.218,0.077,1.762c-0.505,2.003-2.115,2.875-3.921,3.273
				c-2.91,0.647-5.847,1.217-8.799,1.645c-4.344,0.63-8.705,1.109-13.057,1.649c-0.535,0.065-1.067,0.143-1.598,0.221
				C15.427,12.651,15.427,12.625,15.427,12.599z M15.781,6.61c-0.026-0.09-0.052-0.186-0.078-0.271
				c-0.44,0.207-0.854,0.518-1.317,0.613c-1.187,0.263-2.396,0.393-3.588,0.656c-0.406,0.095-0.76,0.415-1.14,0.639
				c0.229,0.333,0.393,0.842,0.708,0.959c0.717,0.268,1.499,0.415,2.271,0.483c1.632,0.142,3.274,0.207,4.914,0.293
				c0.208,0.008,0.423-0.021,0.63-0.06c0.95-0.177,1.9-0.402,2.859-0.536c0.885-0.121,1.796-0.09,2.676-0.233
				c1.365-0.216,2.712-0.604,4.093-0.777c1.037-0.125,2.107,0.061,3.144-0.043c1.195-0.112,2.366-0.432,3.558-0.613
				c1.805-0.281,3.67-0.319,5.272-1.373c0.592-0.389,1.286-0.803,1.049-1.692c-0.232-0.873-0.941-1.2-1.766-1.054
				c-1.43,0.259-2.888-0.868-4.313,0.16c-0.233,0.168-0.76-0.047-1.145-0.095c-0.207-0.021-0.428-0.112-0.621-0.086
				c-1.396,0.203-2.795,0.428-4.185,0.652c-2.413,0.388-4.835,0.742-7.236,1.174C19.62,5.759,17.708,6.204,15.781,6.61z"/>
		</g>
		<g>
			<path fill="#E5C8B5" d="M12.638,52.548c-0.5-2.229-1.07-4.448-1.468-6.698c-0.734-4.101-1.218-8.25-0.035-12.335
				c0.795-2.746,1.749-5.471,2.885-8.091c0.63-1.473,1.728-2.764,2.711-4.055c1.545-2.021,2.824-2.897,2.457-5.566
				c-0.026-0.19,0.151-0.25,0.375-0.449c0.061-0.056,0.441-0.207,0.549-0.194c3.631,0.505,6.991-1.499,10.557-2.008
				c3.178-0.458,6.347-0.959,9.517-1.459c-0.272-0.488-0.466-1.053-0.535-1.753c-1.028,0.208-1.97,0.428-2.918,0.579
				c-4.328,0.682-8.663,1.381-13.006,2.003c-3.558,0.518-7.116,1.26-10.751,0.76c-0.104-0.013-0.251-0.061-0.311-0.009
				c-0.233,0.199-0.639,0.462-0.608,0.652c0.367,2.664-0.722,4.797-2.259,6.818c-0.989,1.296-2.081,2.583-2.72,4.055
				c-1.131,2.62-2.081,5.345-2.88,8.09c-1.187,4.087-0.699,8.233,0.031,12.337c0.401,2.246,0.976,4.465,1.472,6.696
				c0.298,1.327,0.907,1.71,2.258,1.577c0.773-0.078,1.576,0.068,2.344-0.035c0.833-0.111,1.667-0.255,2.496-0.401
				C12.742,52.919,12.686,52.747,12.638,52.548z"/>
			<path fill="#E5C8B5" d="M23.511,49.881c0.311-0.131,0.63-0.282,0.941-0.458C24.024,49.316,23.727,49.379,23.511,49.881z"/>
		</g>
	</g>
	<g>
		<g>
			<path d="M26.282,50.282c-0.082-0.092-0.281-0.023-0.354-0.1c-0.086-0.096-0.138-0.208-0.215-0.294
				c-0.087-0.096-0.104-0.112-0.182-0.199c-0.112,0.048-0.207-0.079-0.311-0.034c-0.112,0.047-0.263,0.008-0.371,0.059
				c-0.108,0.053-0.1,0.373-0.207,0.421c-0.108,0.048-0.372-0.238-0.475-0.187c-0.112,0.052-0.112,0.346-0.225,0.397
				c-0.112,0.043-0.328-0.183-0.431-0.138c-0.117,0.039-0.112,0.424-0.225,0.457c-0.117,0.035-0.302-0.208-0.419-0.181
				c-0.116,0.025-0.22,0.068-0.336,0.085c-0.117,0.019-0.229,0.091-0.35,0.104c-0.113,0.019-0.225,0.07-0.346,0.087
				c-0.117,0.019-0.237-0.024-0.354-0.009c-0.117,0.014-0.22,0.286-0.346,0.286c-0.112,0.008-0.233-0.364-0.354-0.368
				c-0.117-0.004-0.259,0.254-0.38,0.233c-0.112-0.017-0.268,0.048-0.384,0.021c-0.112-0.033-0.246-0.084-0.359-0.137
				c-0.103-0.043-0.064-0.38-0.168-0.444c-0.099-0.06-0.389,0.139-0.48,0.056c-0.094-0.078,0.061-0.458-0.025-0.517
				c-0.1-0.071-0.371,0.127-0.458,0.08c-0.112-0.064-0.216-0.033-0.303-0.072c-0.121-0.048-0.147-0.358-0.25-0.354
				c-0.104,0.004-0.134,0.251-0.238,0.311c-0.082,0.052-0.186,0.052-0.272,0.147c-0.064,0.072-0.28,0.039-0.358,0.138
				c-0.065,0.078-0.195,0.125-0.272,0.22c-0.056,0.088-0.056,0.22-0.121,0.319c-0.07,0.096-0.026,0.273-0.086,0.376
				c-0.057,0.096-0.073,0.224-0.13,0.331c-0.051,0.1-0.302,0.1-0.362,0.206c-0.052,0.104-0.138,0.188-0.195,0.292
				c-0.056,0.104-0.103,0.206-0.168,0.302c-0.061,0.104,0.056,0.329-0.018,0.416c-0.069,0.095-0.039,0.303-0.125,0.387
				c-0.082,0.087-0.367-0.06-0.47,0.005c-0.095,0.07-0.087,0.329-0.199,0.376c-0.104,0.043-0.311-0.241-0.432-0.216
				c-0.112,0.021-0.181,0.376-0.311,0.38c-0.112,0-0.225-0.111-0.337-0.104s-0.233-0.087-0.345-0.076
				c-0.112,0.016-0.182,0.327-0.285,0.349c-0.116,0.018-0.255-0.161-0.363-0.134c-0.108,0.021-0.177,0.228-0.29,0.251
				c-0.108,0.02-0.289-0.278-0.401-0.251c-0.104,0.028-0.233-0.017-0.341,0.008c-0.108,0.031-0.129,0.398-0.237,0.422
				c-0.112,0.031-0.216,0.088-0.319,0.114c-0.112,0.025-0.268-0.165-0.38-0.138c-0.108,0.023-0.225,0-0.337,0.016
				c-0.107,0.027-0.185,0.238-0.298,0.255c-0.117,0.019-0.254-0.037-0.366-0.025c-0.122,0.009-0.243,0.044-0.363,0.049
				c-0.117,0.004-0.237-0.049-0.363-0.053c-0.112,0-0.224-0.13-0.35-0.138c-0.116-0.01-0.263,0.31-0.385,0.302
				c-0.112-0.008-0.233-0.104-0.349-0.111c-0.117-0.014-0.225-0.136-0.341-0.147c-0.117-0.017-0.242,0-0.363-0.017
				c-0.112-0.019-0.246,0.033-0.362,0.017c-0.117-0.017-0.221-0.131-0.337-0.146c-0.121-0.018-0.199-0.19-0.307-0.23
				c-0.116-0.032-0.263,0.048-0.367-0.009c-0.104-0.055-0.069-0.278-0.151-0.358c-0.091-0.076-0.367,0.045-0.445-0.051
				c-0.073-0.087-0.138-0.208-0.199-0.303c-0.061-0.104,0.138-0.327,0.095-0.437c-0.048-0.107-0.121-0.185-0.16-0.298
				c-0.035-0.116-0.358-0.137-0.393-0.251c-0.031-0.115,0.095-0.267,0.06-0.387c-0.034-0.118-0.138-0.211-0.164-0.324
				c-0.03-0.112-0.086-0.224-0.112-0.343c-0.026-0.115-0.151-0.206-0.181-0.322c-0.026-0.116-0.018-0.238-0.043-0.358
				C4.313,50.179,4.572,50,4.546,49.881c-0.026-0.114-0.095-0.218-0.125-0.339c-0.03-0.115-0.086-0.226-0.112-0.341
				c-0.03-0.116-0.03-0.238-0.056-0.35c-0.03-0.121-0.086-0.224-0.112-0.347c-0.03-0.115-0.018-0.239-0.047-0.353
				c-0.031-0.112-0.254-0.181-0.285-0.298c-0.03-0.117,0.013-0.247-0.017-0.367c-0.03-0.111,0.065-0.26,0.039-0.371
				c-0.03-0.114-0.259-0.173-0.285-0.289c-0.026-0.111,0.199-0.29,0.168-0.401c-0.026-0.112-0.112-0.208-0.134-0.329
				c-0.026-0.112-0.083-0.22-0.104-0.336c-0.021-0.118-0.307-0.182-0.328-0.299c-0.025-0.117,0.069-0.249,0.052-0.368
				c-0.025-0.12,0.164-0.267,0.146-0.383c-0.017-0.117-0.138-0.217-0.159-0.329c-0.018-0.115,0.082-0.246,0.065-0.366
				c-0.018-0.115,0.008-0.233-0.009-0.35s-0.379-0.19-0.393-0.307s0.065-0.241,0.048-0.362c-0.009-0.114,0.078-0.242,0.064-0.357
				c-0.013-0.119-0.186-0.218-0.194-0.333c-0.009-0.117,0.19-0.251,0.181-0.371c-0.008-0.114-0.22-0.217-0.233-0.329
				c-0.009-0.12,0.039-0.242,0.03-0.358c-0.009-0.115,0.159-0.246,0.159-0.366c-0.008-0.113-0.142-0.226-0.146-0.341
				c-0.008-0.119,0.1-0.239,0.091-0.354c-0.004-0.118-0.039-0.238-0.048-0.351c-0.008-0.122-0.147-0.233-0.151-0.35
				c-0.004-0.117,0.104-0.238,0.1-0.358c-0.004-0.113,0.051-0.233,0.043-0.345c0-0.123-0.329-0.226-0.336-0.343
				c-0.005-0.115,0.44-0.245,0.431-0.365c0-0.114-0.16-0.227-0.16-0.346c-0.004-0.116-0.177-0.229-0.181-0.346
				c-0.005-0.115,0.289-0.242,0.285-0.362c-0.004-0.111-0.293-0.218-0.297-0.329c-0.005-0.116,0.138-0.243,0.129-0.354
				c-0.009-0.115,0.112-0.237,0.104-0.354c-0.009-0.111-0.069-0.224-0.069-0.338c-0.009-0.12-0.122-0.228-0.129-0.341
				c0-0.116,0.047-0.229,0.052-0.34c0-0.117-0.225-0.242-0.212-0.354c0.008-0.122,0.229-0.216,0.242-0.329
				c0.021-0.111-0.143-0.259-0.116-0.37c0.025-0.112,0.052-0.225,0.086-0.338c0.03-0.111-0.018-0.254,0.017-0.362
				c0.035-0.107,0.32-0.13,0.363-0.237c0.039-0.107,0.242-0.143,0.286-0.246c0.042-0.104-0.117-0.293-0.07-0.397
				c0.043-0.104-0.065-0.275-0.017-0.379c0.043-0.104,0.129-0.19,0.172-0.294c0.044-0.104,0.117-0.19,0.164-0.302
				c0.044-0.104,0.143-0.183,0.191-0.286c0.042-0.104,0.008-0.242,0.047-0.345c0.039-0.104,0.281-0.138,0.32-0.241
				c0.035-0.113-0.22-0.303-0.195-0.42c0.026-0.111,0.389-0.16,0.406-0.271c0.017-0.121,0.013-0.242,0.026-0.357
				c0.017-0.118,0.086-0.227,0.103-0.343c0.017-0.12-0.276-0.294-0.259-0.405c0.026-0.116,0.286-0.178,0.32-0.29
				c0.035-0.115-0.112-0.307-0.061-0.418c0.052-0.107,0.346-0.087,0.406-0.194c0.061-0.104,0.156-0.186,0.22-0.289
				c0.056-0.104,0.03-0.272,0.082-0.38c0.043-0.108-0.129-0.307-0.082-0.415c0.048-0.107,0.367-0.099,0.41-0.207
				c0.043-0.108-0.233-0.346-0.194-0.458c0.047-0.104,0.393-0.094,0.436-0.198c0.043-0.104-0.138-0.298-0.095-0.406
				c0.047-0.107,0.375-0.099,0.423-0.207c0.043-0.108-0.276-0.363-0.233-0.466c0.043-0.113,0.32-0.121,0.363-0.229
				c0.047-0.108,0.069-0.225,0.116-0.329c0.043-0.107-0.047-0.28,0-0.384c0.048-0.104,0.298-0.112,0.35-0.216
				c0.052-0.104-0.155-0.337-0.099-0.44c0.056-0.104,0.22-0.147,0.276-0.25c0.056-0.099,0.104-0.216,0.168-0.307
				c0.061-0.094,0.255-0.103,0.319-0.194c0.069-0.09,0.064-0.233,0.138-0.324c0.069-0.091,0.051-0.255,0.121-0.35
				c0.069-0.086,0.293-0.052,0.363-0.138C8,21.511,8.065,21.417,8.139,21.33c0.073-0.082,0.129-0.186,0.207-0.272
				c0.074-0.086,0.134-0.186,0.208-0.272c0.069-0.085,0.069-0.232,0.139-0.319c0.069-0.095,0.086-0.216,0.155-0.302
				c0.069-0.096,0.122-0.19,0.182-0.285c0.069-0.091,0.285-0.074,0.345-0.164c0.064-0.086,0.13-0.182,0.194-0.276
				c0.065-0.087,0.082-0.216,0.143-0.302c0.065-0.095,0.225-0.129,0.28-0.216c0.061-0.095-0.008-0.272,0.048-0.367
				c0.061-0.095,0.216-0.134,0.268-0.229c0.057-0.1,0.303-0.095,0.354-0.194c0.056-0.1,0.026-0.247,0.078-0.35
				c0.052-0.112,0.009-0.272,0.035-0.397c0.034-0.117-0.035-0.259-0.018-0.385c0.018-0.121,0.272-0.229,0.276-0.354
				c0.009-0.125-0.396-0.268-0.389-0.393c0-0.125,0.432-0.234,0.44-0.354c0-0.121-0.397-0.264-0.393-0.384
				c0.004-0.121,0.242-0.237,0.246-0.359c0-0.12-0.212-0.246-0.212-0.367c0-0.121,0.16-0.246,0.151-0.367
				c0-0.121-0.104-0.241-0.112-0.362c0-0.121,0.181-0.26,0.173-0.38c-0.009-0.112-0.173-0.216-0.233-0.341
				c-0.061-0.13,0.009-0.428-0.086-0.479c-0.095-0.064-0.397,0.173-0.492,0.104c-0.095-0.065-0.112-0.247-0.199-0.32
				c-0.095-0.078-0.078-0.264-0.164-0.337c-0.086-0.086-0.371,0.026-0.449-0.06c-0.078-0.086-0.095-0.242-0.169-0.329
				c-0.073-0.095-0.207-0.151-0.271-0.25c-0.061-0.095,0.047-0.311-0.009-0.406c-0.061-0.103-0.281-0.12-0.328-0.225
				C8.48,10.932,8.622,10.734,8.58,10.63c-0.043-0.112-0.147-0.189-0.19-0.302c-0.043-0.104,0.104-0.276,0.069-0.389
				C8.416,9.827,8.096,9.801,8.065,9.697c-0.03-0.121,0.272-0.294,0.246-0.406C8.29,9.171,7.836,9.115,7.828,8.998
				c-0.009-0.121,0.16-0.25,0.164-0.367c0.004-0.116,0.211-0.208,0.233-0.32c0.017-0.116-0.229-0.289-0.198-0.393
				c0.035-0.112,0.319-0.134,0.367-0.237C8.441,7.578,8.398,7.439,8.458,7.34c0.061-0.099,0.13-0.186,0.199-0.28
				C8.73,6.969,8.916,7.003,8.994,6.921C9.08,6.839,9.11,6.727,9.201,6.658c0.086-0.078,0.121-0.207,0.22-0.272
				c0.091-0.064,0.177-0.143,0.281-0.203C9.806,6.131,9.878,6.01,9.987,5.967c0.104-0.043,0.199-0.147,0.307-0.186
				c0.108-0.039,0.216-0.1,0.324-0.143c0.112-0.034,0.216-0.091,0.328-0.13c0.112-0.043,0.268,0.048,0.38,0.009
				c0.112-0.035,0.211-0.104,0.324-0.138c0.112-0.034,0.19-0.181,0.302-0.215c0.112-0.035,0.238-0.031,0.35-0.069
				c0.112-0.035,0.32,0.224,0.432,0.186c0.112-0.035,0.177-0.203,0.289-0.238c0.113-0.035,0.212-0.104,0.324-0.138
				c0.112-0.026,0.172-0.255,0.285-0.286c0.112-0.034,0.225-0.073,0.337-0.104c0.112-0.034,0.259,0.052,0.371,0.018
				c0.112-0.03,0.207-0.13,0.319-0.164c0.113-0.03,0.285,0.156,0.397,0.121c0.112-0.026,0.181-0.225,0.293-0.251
				c0.112-0.025,0.268,0.086,0.38,0.061c0.112-0.026,0.225-0.074,0.337-0.104c0.112-0.035,0.173-0.29,0.286-0.315
				c0.112-0.031,0.237-0.021,0.354-0.048c0.112-0.029,0.259,0.087,0.375,0.061c0.112-0.026,0.28,0.164,0.393,0.133
				c0.112-0.026,0.221-0.082,0.333-0.107c0.112-0.026,0.203-0.173,0.315-0.199c0.112-0.029,0.22-0.086,0.336-0.116
				c0.112-0.021,0.259,0.108,0.381,0.087c0.116-0.022,0.199-0.178,0.311-0.204c0.121-0.021,0.25,0.052,0.367,0.026
				c0.116-0.021,0.22-0.121,0.333-0.143c0.112-0.021,0.216-0.125,0.328-0.151c0.112-0.017,0.207-0.16,0.319-0.181
				c0.121-0.026,0.259,0.086,0.371,0.06c0.112-0.021,0.25,0.061,0.363,0.039c0.122-0.022,0.182-0.302,0.302-0.324
				c0.112-0.026,0.233,0.004,0.354-0.018c0.117-0.026,0.259,0.086,0.372,0.065s0.207-0.16,0.319-0.177
				c0.121-0.026,0.233-0.06,0.346-0.086C23.04,2.582,23.2,2.797,23.312,2.78c0.121-0.017,0.186-0.293,0.302-0.311
				c0.121-0.021,0.242,0.009,0.358-0.008c0.117-0.022,0.233-0.013,0.35-0.035c0.117-0.021,0.269,0.147,0.381,0.125
				c0.116-0.022,0.237-0.009,0.349-0.031c0.112-0.026,0.229-0.052,0.341-0.073c0.112-0.022,0.225-0.083,0.337-0.108
				c0.112-0.021,0.189-0.242,0.311-0.268c0.112-0.018,0.215-0.091,0.328-0.112c0.117-0.026,0.264,0.112,0.38,0.095
				c0.112-0.026,0.216-0.095,0.329-0.112c0.112-0.026,0.208-0.164,0.32-0.19c0.111-0.026,0.267,0.13,0.38,0.104
				c0.112-0.017,0.188-0.237,0.301-0.259c0.112-0.022,0.302,0.302,0.415,0.281c0.112-0.022,0.163-0.371,0.275-0.393
				c0.112-0.022,0.277,0.203,0.397,0.172c0.112-0.025,0.233,0.013,0.346-0.009c0.116-0.026,0.216-0.121,0.332-0.142
				c0.135-0.026,0.29-0.247,0.42-0.208c0.112,0.04,0.22,0.057,0.328,0.083c0.112,0.026,0.198,0.164,0.311,0.186
				s0.236-0.065,0.354-0.047c0.111,0.008,0.225-0.069,0.336-0.061c0.113,0.004,0.225,0.216,0.337,0.216s0.224-0.108,0.341-0.112
				c0.112-0.009,0.229,0.03,0.342,0.022c0.112-0.009,0.241,0.094,0.354,0.073c0.116-0.009,0.189-0.263,0.303-0.285
				c0.111-0.017,0.284,0.242,0.397,0.22c0.111-0.021,0.154-0.341,0.267-0.367c0.113-0.03,0.286,0.216,0.401,0.19
				c0.113-0.03,0.238-0.008,0.347-0.039c0.111-0.03,0.143-0.367,0.246-0.397c0.112-0.031,0.303-0.082,0.432-0.064
				c0.121,0.025,0.224,0.146,0.342,0.159c0.116,0.013,0.229,0.177,0.354,0.199c0.142,0.025,0.263-0.026,0.358-0.087
				c0.096-0.064,0.215-0.09,0.32-0.138c0.103-0.048,0.181-0.181,0.293-0.216c0.112-0.039,0.279,0.194,0.393,0.177
				c0.116-0.022,0.188-0.376,0.303-0.38c0.111-0.004,0.245,0.121,0.357,0.125c0.112,0.004,0.216,0.09,0.337,0.107
				c0.112,0.013,0.242-0.078,0.358-0.06c0.117,0.026,0.169,0.319,0.281,0.345c0.112,0.021,0.306-0.337,0.418-0.311
				s0.151,0.397,0.264,0.423c0.112,0.021,0.233,0.004,0.346,0.026c0.117,0.017,0.236,0.035,0.35,0.043
				c0.111,0.017,0.237,0.086,0.351,0.086c0.111,0.009,0.232-0.276,0.345-0.285c0.126-0.009,0.277-0.104,0.389-0.095
				c0.129,0.013,0.275,0.069,0.388,0.104C42.02,1.174,42.185,1.2,42.289,1.26c0.099,0.061,0.03,0.411,0.129,0.484
				c0.096,0.069,0.195,0.121,0.28,0.207c0.087,0.078,0.237,0.095,0.324,0.186c0.082,0.087,0.221,0.125,0.306,0.211
				c0.078,0.091,0.155,0.186,0.225,0.277c0.078,0.095,0.096,0.229,0.155,0.323c0.069,0.1,0.29,0.117,0.347,0.216
				c0.051,0.108-0.096,0.311-0.061,0.419c0.042,0.112-0.009,0.233,0.012,0.345c0.022,0.112,0.03,0.216,0.04,0.328
				c0.009,0.112-0.018,0.216-0.025,0.328c-0.015,0.116-0.035,0.207-0.062,0.328c-0.026,0.112,0.255,0.293,0.221,0.406
				c-0.03,0.112-0.125,0.208-0.169,0.324c-0.038,0.099-0.013,0.246-0.06,0.358c-0.048,0.104-0.259,0.139-0.311,0.242
				c-0.058,0.112-0.251,0.146-0.303,0.25c-0.061,0.108,0.009,0.276-0.053,0.38c-0.061,0.104-0.229,0.142-0.293,0.242
				c-0.065,0.104-0.018,0.268-0.096,0.372c-0.069,0.095-0.111,0.216-0.185,0.307c-0.078,0.095-0.064,0.267-0.144,0.362
				c-0.077,0.09-0.328,0.026-0.414,0.113c-0.086,0.082-0.146,0.186-0.237,0.263c-0.092,0.082-0.146,0.194-0.242,0.272
				c-0.09,0.073-0.271,0.029-0.376,0.103c-0.095,0.073-0.012,0.358-0.085,0.437c-0.087,0.086-0.061,0.22-0.122,0.315
				c-0.069,0.1-0.151,0.151-0.189,0.255c-0.047,0.104-0.26,0.151-0.275,0.268c-0.026,0.117-0.147,0.242-0.139,0.362
				c0,0.112-0.019,0.268,0.008,0.385c0.031,0.117,0.397,0.107,0.444,0.216c0.048,0.104,0.082,0.186,0.16,0.285
				c0.064,0.091-0.112,0.402-0.03,0.488c0.078,0.078,0.144,0.16,0.217,0.238c0.077,0.073,0.435-0.143,0.519-0.069
				c0.081,0.078,0.077,0.229,0.159,0.293c0.085,0.07,0,0.389,0.096,0.44c0.094,0.061,0.263,0.013,0.366,0.052
				c0.107,0.039,0.176,0.177,0.285,0.22c0.107,0.043,0.203,0.095,0.307,0.143c0.111,0.047,0.332-0.156,0.435-0.104
				c0.104,0.052,0.226,0.074,0.328,0.125c0.104,0.056,0.17,0.19,0.265,0.246c0.104,0.056,0.276-0.013,0.38,0.047
				c0.104,0.065,0.194,0.138,0.294,0.194c0.1,0.056,0.068,0.332,0.163,0.397c0.096,0.065,0.32-0.069,0.416-0.004
				c0.103,0.061,0.016,0.389,0.111,0.453c0.095,0.065,0.19,0.134,0.284,0.199c0.096,0.065,0.328-0.074,0.424-0.004
				c0.096,0.069,0.121,0.241,0.216,0.302c0.09,0.069,0.285-0.004,0.38,0.061c0.096,0.064,0.104,0.254,0.199,0.319
				c0.095,0.069,0.106,0.259,0.202,0.319c0.092,0.065,0.402-0.185,0.506-0.12c0.095,0.06,0.181,0.142,0.275,0.207
				c0.1,0.061,0.1,0.272,0.199,0.328c0.099,0.065,0.225,0.095,0.319,0.16c0.095,0.069,0.242,0.069,0.337,0.134
				c0.095,0.069,0.104,0.259,0.19,0.328c0.09,0.074,0.173,0.16,0.263,0.238c0.091,0.073,0.232,0.082,0.32,0.168
				c0.082,0.078,0.133,0.195,0.215,0.281c0.083,0.082,0.315,0.021,0.394,0.108c0.087,0.086,0.112,0.229,0.19,0.315
				c0.073,0.091-0.121,0.406-0.048,0.497c0.073,0.086,0.384-0.005,0.453,0.086c0.069,0.095-0.009,0.293,0.061,0.389
				c0.069,0.095,0.1,0.216,0.164,0.311c0.064,0.095,0.146,0.177,0.207,0.276s0.169,0.164,0.217,0.268
				c0.051,0.104,0.236,0.151,0.276,0.263c0.043,0.108-0.069,0.263-0.035,0.375c0.029,0.117,0.276,0.173,0.302,0.285
				c0.03,0.112-0.177,0.276-0.154,0.389c0.025,0.112,0.18,0.203,0.198,0.319c0.017,0.113-0.277,0.268-0.259,0.389
				c0.012,0.112,0.094,0.219,0.111,0.332c0.014,0.116,0.208,0.208,0.221,0.324c0.012,0.117,0.1,0.22,0.112,0.337
				c0.013,0.12,0.009,0.232,0.025,0.345c0.021,0.112-0.138,0.259-0.12,0.372c0.017,0.116,0.189,0.211,0.207,0.328
				c0.017,0.121-0.107,0.25-0.096,0.371c0.014,0.117,0.303,0.199,0.316,0.315c0.012,0.117,0.034,0.233,0.042,0.35
				c0.009,0.121-0.068,0.242-0.056,0.362c0.014,0.117,0.064,0.229,0.082,0.346c0.013,0.117-0.026,0.238-0.018,0.354
				c0.01,0.12-0.12,0.25-0.112,0.367c0.01,0.116,0.161,0.22,0.169,0.336s-0.212,0.255-0.203,0.367s0.164,0.224,0.164,0.341
				c-0.008,0.117-0.082,0.225-0.095,0.337c-0.018,0.117-0.187,0.194-0.207,0.307c-0.026,0.112-0.043,0.212-0.078,0.323
				c-0.03,0.121,0.043,0.238-0.005,0.32c-0.056,0.104-0.047,0.237-0.151,0.284c-0.085,0.044-0.194,0.194-0.328,0.194
				c-0.103-0.008-0.15-0.362-0.275-0.393c-0.113-0.03-0.32,0.323-0.441,0.303c-0.111-0.021-0.177-0.333-0.288-0.351
				c-0.117-0.017-0.272,0.281-0.394,0.269c-0.116-0.014-0.225-0.069-0.341-0.078s-0.229-0.078-0.341-0.087
				c-0.121-0.008-0.225-0.181-0.347-0.189c-0.115-0.009-0.232-0.025-0.35-0.025c-0.115-0.013-0.254,0.207-0.366,0.198
				c-0.096-0.005-0.15-0.052-0.255,0.009c-0.096,0.051-0.229,0.047-0.298,0.12c-0.077,0.086-0.216,0.074-0.294,0.135
				c-0.096,0.065-0.155,0.139-0.259,0.178c-0.104,0.032-0.207,0-0.315,0.016c-0.104,0.017-0.207,0.013-0.318,0.026
				c-0.104,0.01-0.199,0.217-0.313,0.225c-0.115,0.013-0.271-0.096-0.388-0.052c-0.112,0.04-0.238,0.078-0.35,0.143
				c-0.104,0.057-0.286,0.03-0.384,0.104c-0.1,0.064-0.169,0.194-0.265,0.271c-0.095,0.075-0.008,0.377-0.103,0.453
				c-0.092,0.083-0.139,0.222-0.225,0.298c-0.096,0.079-0.32,0.01-0.407,0.104c-0.077,0.094-0.164,0.189-0.232,0.294
				c-0.078,0.104-0.026,0.28-0.095,0.388c-0.065,0.108-0.35,0.073-0.424,0.178c-0.061,0.095-0.073,0.193-0.146,0.264
				c-0.077,0.081-0.138,0.138-0.229,0.185c-0.096,0.057-0.134,0.289-0.247,0.303c-0.094,0.013-0.215-0.121-0.328-0.138
				c-0.094-0.015-0.15-0.186-0.263-0.221c-0.112-0.043-0.307,0.226-0.401,0.198c-0.121-0.024-0.194-0.12-0.294-0.12
				c-0.125-0.009-0.246-0.104-0.336-0.062c-0.096,0.045-0.183,0.135-0.251,0.234c-0.057,0.082-0.073,0.198-0.112,0.311
				c-0.034,0.091-0.112,0.186-0.139,0.302c-0.021,0.1-0.094,0.198-0.116,0.312c-0.021,0.112,0.047,0.241,0.008,0.354
				c-0.034,0.107,0.1,0.293,0.058,0.401c-0.043,0.104-0.139,0.198-0.19,0.303c-0.053,0.103-0.061,0.224-0.112,0.331
				c-0.053,0.104-0.156,0.178-0.204,0.285c-0.046,0.107-0.064,0.212-0.094,0.319c-0.039,0.112-0.208,0.182-0.224,0.294
				c-0.022,0.111-0.092,0.215-0.104,0.325c-0.014,0.111,0.197,0.244,0.186,0.358c-0.008,0.111-0.32,0.194-0.328,0.306
				c-0.008,0.112,0.086,0.237,0.077,0.35c-0.008,0.111,0.078,0.225,0.074,0.342c-0.004,0.112-0.057,0.22-0.057,0.331
				c0,0.112-0.047,0.226-0.047,0.338c0,0.111,0.215,0.224,0.215,0.337c0,0.112-0.418,0.231-0.418,0.344
				c0,0.114,0.303,0.221,0.307,0.334c0.004,0.111-0.121,0.229-0.117,0.341c0.004,0.14-0.052,0.251-0.064,0.354
				c-0.013,0.144,0.246,0.362,0.198,0.462c-0.057,0.108-0.302,0.131-0.423,0.19c-0.096,0.043-0.229-0.047-0.375-0.039
				c-0.113,0.008-0.225,0.078-0.328,0.092c-0.113,0.012-0.199,0.15-0.313,0.171c-0.104,0.023-0.259-0.116-0.366-0.085
				c-0.108,0.029-0.112,0.331-0.217,0.375c-0.103,0.047-0.206,0.047-0.306,0.104c-0.1,0.052-0.194,0.078-0.29,0.143
				c-0.09,0.064-0.374-0.131-0.457-0.056c-0.087,0.064,0.065,0.405-0.022,0.483c-0.077,0.078-0.173,0.121-0.25,0.208
				c-0.078,0.09-0.35-0.13-0.483-0.087c-0.111,0.043-0.168,0.267-0.302,0.29c-0.121,0.024-0.272-0.027-0.389,0
				c-0.103,0.024-0.216,0-0.327,0.017c-0.108,0.021-0.195,0.238-0.303,0.246c-0.113,0.017-0.212,0.072-0.319,0.095
				c-0.113,0.017-0.294-0.215-0.397-0.183c-0.108,0.045-0.026,0.406-0.117,0.469c-0.091,0.072-0.199,0.137-0.293,0.197
				c-0.092,0.069-0.328-0.061-0.424,0c-0.095,0.062-0.134,0.216-0.232,0.276c-0.1,0.068-0.294-0.035-0.394,0.025
				c-0.1,0.062-0.039,0.389-0.143,0.445c-0.099,0.063-0.229,0.078-0.333,0.135c-0.104,0.051-0.177,0.159-0.279,0.214
				c-0.104,0.053-0.226,0.07-0.328,0.123c-0.104,0.048-0.208,0.111-0.313,0.155c-0.104,0.051-0.323-0.155-0.427-0.107
				c-0.104,0.047-0.215,0.076-0.328,0.119c-0.104,0.049-0.168,0.19-0.276,0.238c-0.108,0.044-0.298-0.135-0.406-0.095
				c-0.107,0.043-0.146,0.254-0.259,0.294c-0.104,0.043-0.139,0.287-0.242,0.327c-0.116,0.043-0.275-0.077-0.366-0.025
				c-0.103,0.064-0.229,0.085-0.303,0.164c-0.082,0.078,0.025,0.294-0.03,0.38c-0.056,0.094-0.182,0.134-0.215,0.241
				c-0.04,0.109-0.32,0.155-0.338,0.269c-0.02,0.111,0.319,0.271,0.312,0.379c-0.009,0.111-0.126,0.217-0.126,0.325
				c-0.004,0.115,0.096,0.236,0.092,0.339c-0.005,0.113-0.043,0.234-0.053,0.347c-0.018,0.121-0.293,0.189-0.319,0.302
				c-0.021,0.113-0.104,0.198-0.129,0.312c-0.031,0.113-0.043,0.208-0.078,0.312c-0.044,0.111,0.026,0.251-0.017,0.354
				c-0.048,0.103-0.014,0.245-0.07,0.345c-0.052,0.1-0.207,0.137-0.271,0.231c-0.064,0.092-0.143,0.171-0.211,0.259
				c-0.069,0.092-0.19,0.127-0.268,0.214c-0.078,0.08-0.134,0.176-0.216,0.255c-0.078,0.08-0.017,0.306-0.104,0.387
				C26.49,50.238,26.369,50.208,26.282,50.282z M26.23,48.532c0.078,0.056,0.251-0.074,0.328-0.019
				c0.074,0.054,0.018,0.131,0.095,0.178c0.026-0.107-0.031-0.15,0-0.263c0.026-0.111,0.225-0.174,0.255-0.28
				c0.025-0.108,0.147-0.195,0.177-0.304c0.03-0.107-0.225-0.29-0.199-0.397c0.026-0.106,0.406-0.136,0.422-0.25
				c0.027-0.107-0.224-0.271-0.206-0.379c0.017-0.114,0.319-0.194,0.319-0.307c0.014-0.125-0.337-0.285-0.319-0.397
				c0.017-0.13,0.311-0.198,0.341-0.321c0.026-0.119,0.03-0.231,0.064-0.345c0.043-0.116,0.035-0.239,0.087-0.344
				c0.052-0.113,0.078-0.226,0.147-0.329c0.067-0.096,0.181-0.15,0.266-0.242c0.078-0.085,0-0.366,0.091-0.445
				c0.091-0.072,0.402,0.161,0.51,0.096c0.099-0.064,0.073-0.358,0.187-0.414c0.104-0.048,0.181-0.199,0.302-0.242
				c0.115-0.047,0.225-0.092,0.34-0.143c0.113-0.052,0.359,0.178,0.472,0.121c0.112-0.055,0.085-0.405,0.198-0.461
				c0.111-0.056,0.401,0.246,0.52,0.185c0.111-0.061,0.072-0.405,0.185-0.458c0.112-0.056,0.194-0.181,0.307-0.237
				c0.104-0.046,0.332,0.182,0.437,0.134c0.104-0.052,0.104-0.311,0.206-0.357c0.104-0.049,0.238-0.035,0.333-0.084
				c0.104-0.051,0.284,0.076,0.388,0.027c0.105-0.047,0.243-0.016,0.346-0.06c0.104-0.052,0.169-0.166,0.272-0.213
				c0.104-0.046,0.151-0.212,0.255-0.255c0.104-0.047,0.182-0.141,0.286-0.185c0.103-0.047,0.297,0.104,0.4,0.056
				c0.104-0.047,0.216-0.07,0.319-0.115c0.104-0.048,0.199-0.11,0.302-0.157c0.104-0.052,0.104-0.303,0.209-0.351
				c0.099-0.052,0.13-0.243,0.229-0.292c0.1-0.052,0.332,0.164,0.436,0.111c0.107-0.051,0.107-0.31,0.221-0.365
				c0.104-0.059,0.362,0.185,0.47,0.132c0.104-0.055,0.043-0.422,0.152-0.478c0.104-0.063,0.267-0.011,0.37-0.07
				c0.104-0.056,0.26-0.021,0.363-0.081c0.104-0.056,0.056-0.381,0.159-0.445c0.104-0.056,0.307,0.048,0.41-0.012
				c0.104-0.063,0.104-0.286,0.208-0.347c0.104-0.066,0.38,0.155,0.483,0.096c0.077-0.058,0.25-0.131,0.32-0.226
				c0.055-0.095-0.199-0.354-0.165-0.458c0.04-0.107,0.025-0.163,0.025-0.267c0-0.113,0.213-0.233,0.199-0.354
				c-0.013-0.117,0.021-0.245,0.005-0.364c-0.018-0.119-0.229-0.206-0.247-0.327c-0.017-0.121,0.035-0.249,0.022-0.365
				c-0.014-0.123-0.049-0.246-0.039-0.368c0.009-0.121,0.086-0.232,0.112-0.351c0.035-0.107,0.18-0.176,0.216-0.288
				c0.039-0.105-0.242-0.312-0.207-0.424c0.038-0.104,0.151-0.191,0.189-0.294c0.034-0.111,0.177-0.176,0.217-0.284
				c0.038-0.108,0.047-0.221,0.085-0.328c0.044-0.104,0.019-0.243,0.065-0.346c0.038-0.104,0.178-0.168,0.22-0.271
				c0.043-0.104,0.229-0.151,0.275-0.255c0.045-0.104-0.033-0.26,0.011-0.363c0.043-0.103,0.275-0.121,0.328-0.225
				c0.043-0.104-0.174-0.328-0.13-0.431c0.047-0.1,0.104-0.199,0.155-0.304s0.346-0.085,0.397-0.188
				c0.052-0.122,0.068-0.213,0.146-0.312c0.072-0.104-0.057-0.401,0.034-0.475c0.104-0.088,0.302-0.026,0.414-0.078
				s0.208-0.173,0.342-0.199c0.117-0.025,0.255-0.069,0.384-0.077c0.121-0.004,0.264-0.104,0.397-0.095
				c0.113,0.008,0.194,0.043,0.328,0.017c0.113-0.025,0.32,0.225,0.433,0.174c0.12-0.044,0.233-0.155,0.333-0.221
				c0.111-0.073,0.202-0.189,0.279-0.277c0.074-0.082,0.164-0.15,0.233-0.237c0.078-0.086,0.125-0.195,0.19-0.275
				c0.068-0.095,0.172-0.155,0.241-0.246c0.069-0.092-0.034-0.299,0.03-0.394c0.065-0.088,0.189-0.139,0.255-0.229
				c0.061-0.091,0.233-0.108,0.293-0.203c0.065-0.095-0.047-0.302,0.019-0.397c0.06-0.095,0.341-0.034,0.405-0.129
				c0.061-0.096,0.074-0.216,0.139-0.311c0.077-0.113,0.125-0.222,0.207-0.294c0.104-0.095,0.143-0.406,0.255-0.423
				c0.111-0.022,0.314,0.129,0.444,0.194c0.09,0.048,0.061,0.294,0.159,0.401c0.092,0.095,0.281,0.108,0.401,0.194
				c0.104,0.074,0.225,0.272,0.351,0.367c0.082-0.095,0.28-0.189,0.358-0.264c0.095-0.081-0.017-0.436,0.073-0.496
				c0.104-0.069,0.272-0.053,0.38-0.095c0.112-0.042,0.264,0.018,0.376-0.017c0.112-0.025,0.216-0.208,0.328-0.216
				c0.12-0.008,0.25,0.199,0.371,0.199c0.117,0,0.251-0.194,0.371-0.181c0.112,0.013,0.233,0.086,0.351,0.104
				c0.116,0.017,0.202,0.216,0.324,0.234c0.116,0.025,0.259-0.079,0.37-0.056c0.134,0.02,0.242,0.151,0.354,0.156
				c0.138,0.012,0.277-0.027,0.381-0.04c0.133-0.025,0.189-0.185,0.275-0.25c0.091-0.073,0.242-0.103,0.281-0.237
				c0.03-0.099,0.104-0.233,0.099-0.375c-0.004-0.104-0.337-0.186-0.362-0.319c-0.018-0.113,0.406-0.303,0.385-0.415
				c-0.018-0.112-0.187-0.199-0.209-0.312c-0.016-0.111-0.206-0.193-0.225-0.306c-0.016-0.116,0.256-0.28,0.23-0.393
				c-0.021-0.112-0.324-0.173-0.342-0.285c-0.021-0.113,0.104-0.25,0.081-0.363c-0.016-0.112,0.088-0.25,0.062-0.363
				c-0.021-0.112-0.095-0.216-0.116-0.323c-0.019-0.108-0.151-0.204-0.178-0.316c-0.021-0.112,0.008-0.233-0.017-0.345
				c-0.022-0.113-0.264-0.182-0.285-0.293c-0.026-0.113,0.159-0.269,0.138-0.381c-0.026-0.112-0.224-0.189-0.25-0.293
				c-0.018-0.112-0.043-0.224-0.064-0.336c-0.022-0.112-0.135-0.208-0.159-0.32c-0.022-0.104,0.215-0.272,0.185-0.384
				c-0.021-0.116,0.125-0.263,0.104-0.375c-0.022-0.112-0.265-0.181-0.289-0.285c-0.022-0.112-0.209-0.19-0.234-0.302
				c-0.021-0.112-0.005-0.233-0.029-0.345c-0.022-0.112-0.022-0.229-0.049-0.341c-0.021-0.1,0.01-0.212-0.025-0.32
				c-0.034-0.099-0.146-0.159-0.189-0.254c-0.052-0.104,0.072-0.312,0.009-0.389c-0.065-0.091-0.336,0.052-0.424-0.004
				c-0.095-0.069,0.008-0.415-0.086-0.488c-0.096-0.069-0.208-0.117-0.302-0.181c-0.092-0.07-0.161-0.182-0.256-0.251
				c-0.091-0.069-0.385,0.125-0.479,0.06c-0.095-0.069-0.049-0.328-0.146-0.406c-0.096-0.064-0.316,0.035-0.406-0.035
				c-0.095-0.064-0.044-0.345-0.139-0.414c-0.096-0.065-0.173-0.165-0.268-0.233c-0.096-0.069-0.251-0.052-0.346-0.121
				c-0.094-0.068-0.328,0.061-0.422-0.009c-0.096-0.069-0.022-0.384-0.118-0.448c-0.095-0.069-0.393,0.151-0.487,0.086
				c-0.104-0.069-0.013-0.406-0.112-0.471c-0.095-0.065-0.328,0.064-0.428,0c-0.099-0.065-0.021-0.393-0.121-0.453
				c-0.1-0.065-0.41,0.199-0.51,0.134c-0.099-0.064-0.064-0.341-0.159-0.402c-0.104-0.061-0.216-0.103-0.319-0.164
				c-0.095-0.065-0.28,0.008-0.38-0.052c-0.1-0.061-0.087-0.315-0.187-0.372c-0.1-0.06-0.344,0.13-0.447,0.065
				c-0.1-0.056-0.136-0.22-0.239-0.28c-0.104-0.056-0.206-0.104-0.31-0.16c-0.096-0.056-0.121-0.254-0.217-0.311
				c-0.104-0.056-0.242-0.039-0.345-0.099c-0.095-0.061-0.264-0.017-0.358-0.082c-0.1-0.064-0.092-0.28-0.186-0.35
				c-0.096-0.069-0.199-0.121-0.286-0.19c-0.095-0.069-0.198-0.121-0.284-0.199c-0.091-0.069-0.19-0.134-0.272-0.216
				c-0.081-0.082-0.233-0.099-0.311-0.181c-0.074-0.087-0.203-0.147-0.272-0.238c-0.073-0.091-0.165-0.186-0.225-0.281
				c-0.069-0.095,0.035-0.293-0.025-0.396c-0.052-0.095-0.104-0.199-0.147-0.311c-0.043-0.104-0.138-0.19-0.177-0.303
				c-0.038-0.112,0.039-0.25,0.014-0.362c-0.026-0.108-0.199-0.19-0.221-0.303c-0.018-0.116,0.074-0.25,0.063-0.367
				c-0.111,0.021-0.267-0.173-0.37-0.151c-0.108,0.025-0.198,0.138-0.307,0.159c-0.108,0.022-0.193,0.138-0.307,0.16
				c-0.107,0.026-0.199,0.139-0.303,0.16c-0.111,0.021-0.267-0.195-0.375-0.168c-0.108,0.018-0.134,0.44-0.246,0.462
				c-0.104,0.021-0.293-0.38-0.405-0.358c-0.104,0.017-0.143,0.44-0.251,0.457c-0.107,0.017-0.259-0.198-0.362-0.186
				c-0.113,0.018-0.194,0.247-0.312,0.264c-0.12,0.018-0.249-0.121-0.367-0.104c-0.112,0.017-0.21,0.139-0.323,0.155
				c-0.111,0.018-0.259-0.155-0.372-0.138c-0.112,0.022-0.207,0.182-0.318,0.199c-0.112,0.018-0.268-0.207-0.382-0.19
				c-0.111,0.017-0.171,0.389-0.287,0.406c-0.118,0.021-0.247-0.091-0.358-0.073c-0.113,0.017-0.251-0.108-0.368-0.091
				c-0.111,0.018-0.185,0.315-0.298,0.333c-0.111,0.021-0.237-0.044-0.354-0.026c-0.111,0.017-0.216,0.112-0.328,0.129
				c-0.111,0.022-0.259-0.168-0.375-0.147c-0.112,0.018-0.194,0.217-0.315,0.234c-0.112,0.017-0.26-0.177-0.371-0.16
				c-0.113,0.018-0.225,0.095-0.337,0.112c-0.112,0.018-0.255-0.16-0.371-0.142c-0.112,0.021-0.182,0.332-0.298,0.35
				c-0.112,0.021-0.281-0.29-0.394-0.272c-0.111,0.017-0.159,0.47-0.275,0.488c-0.112,0.022-0.251-0.129-0.368-0.112
				c-0.111,0.017-0.254-0.164-0.374-0.147c-0.114,0.018-0.183,0.307-0.299,0.324c-0.117,0.021-0.272-0.225-0.385-0.208
				c-0.112,0.021-0.212,0.134-0.327,0.156c-0.113,0.017-0.229,0.03-0.345,0.047c-0.112,0.018-0.251-0.117-0.363-0.104
				c-0.112,0.018-0.217,0.099-0.332,0.122c-0.117,0.017-0.216,0.121-0.328,0.138c-0.112,0.021-0.229,0.069-0.342,0.086
				c-0.112,0.017-0.216,0.104-0.328,0.121s-0.225,0.086-0.336,0.104c-0.112,0.017-0.224,0.052-0.336,0.065
				c-0.112,0.021-0.225,0.051-0.341,0.068c-0.117,0.018-0.246-0.103-0.358-0.085c-0.113,0.021-0.229,0.064-0.341,0.078
				c-0.112,0.017-0.212,0.138-0.328,0.159c-0.112,0.018-0.238-0.013-0.35,0c-0.121,0.018-0.276-0.268-0.389-0.25
				c-0.116,0.018-0.212,0.173-0.324,0.19c-0.116,0.017-0.229,0.069-0.341,0.086c-0.112,0.021-0.199,0.233-0.311,0.25
				c-0.121,0.018-0.233,0.043-0.345,0.061c-0.112,0.018-0.246-0.082-0.358-0.065c-0.117,0.017-0.22,0.104-0.332,0.122
				c-0.122,0.021-0.264-0.186-0.38-0.169c-0.117,0.022-0.207,0.208-0.32,0.225c-0.116,0.018-0.25-0.112-0.362-0.099
				c-0.121,0.018-0.233,0.047-0.346,0.064c-0.117,0.018-0.199,0.272-0.311,0.285c-0.121,0.013-0.237-0.004-0.354,0.013
				c-0.117,0.013-0.251-0.116-0.363-0.103c-0.122,0.013-0.259-0.195-0.372-0.177c-0.117,0.009-0.225,0.056-0.345,0.069
				c-0.112,0.018-0.216,0.147-0.328,0.164c-0.121,0.009-0.234,0.061-0.346,0.069c-0.116,0.009-0.241-0.147-0.362-0.138
				c-0.112,0.008-0.216,0.147-0.336,0.155c-0.112,0.009-0.233-0.086-0.35-0.082s-0.229,0.082-0.345,0.091
				c-0.117,0-0.229,0.086-0.35,0.086c-0.112,0-0.233,0.121-0.35,0.121s-0.233-0.129-0.345-0.138
				c-0.117-0.004-0.229-0.112-0.35-0.117c-0.112-0.004-0.246,0.255-0.358,0.247c-0.117-0.009-0.229-0.065-0.346-0.073
				c-0.117-0.009-0.22-0.151-0.341-0.168c-0.112-0.009-0.242,0.095-0.359,0.082c-0.116-0.013-0.233-0.013-0.35-0.025
				c-0.112-0.013-0.319-0.276-0.375-0.221c-0.065,0.057,0.013,0.32-0.073,0.389c-0.078,0.065-0.19,0.082-0.255,0.151
				c-0.091,0.091-0.16,0.108-0.143,0.186c0.018,0.112-0.159,0.25-0.151,0.367c0.013,0.117-0.013,0.229-0.008,0.342
				c0.004,0.12,0.021,0.224,0.021,0.345c0,0.117,0.035,0.229,0.026,0.341c0,0.116,0.189,0.246,0.173,0.367
				c-0.013,0.112,0.026,0.242,0.009,0.354c-0.022,0.117-0.208,0.203-0.229,0.315c-0.022,0.112-0.009,0.237-0.035,0.35
				c-0.031,0.112,0.056,0.259,0.017,0.372c-0.04,0.112-0.246,0.164-0.281,0.276c-0.043,0.103,0.094,0.285,0.056,0.393
				c-0.047,0.108-0.418,0.073-0.462,0.182c-0.052,0.107,0.199,0.345,0.147,0.453c-0.052,0.104-0.328,0.09-0.389,0.194
				c-0.052,0.104-0.155,0.169-0.216,0.272c-0.061,0.095-0.052,0.233-0.112,0.332c-0.061,0.099,0.052,0.307-0.013,0.402
				c-0.065,0.095-0.125,0.199-0.186,0.294c-0.069,0.095-0.225,0.129-0.293,0.225c-0.069,0.094-0.052,0.246-0.125,0.341
				c-0.065,0.094-0.073,0.237-0.143,0.332c-0.073,0.091-0.307,0.051-0.376,0.147c-0.073,0.09-0.056,0.25-0.13,0.337
				c-0.073,0.094-0.181,0.155-0.254,0.246c-0.069,0.091-0.233,0.108-0.303,0.203c-0.073,0.091,0.043,0.328-0.025,0.419
				c-0.07,0.09-0.367,0.013-0.44,0.104c-0.07,0.095,0.108,0.367,0.042,0.462c-0.069,0.091-0.367,0.026-0.431,0.122
				c-0.065,0.094-0.181,0.159-0.242,0.259c-0.061,0.095,0.139,0.362,0.078,0.466c-0.065,0.095-0.065,0.225-0.122,0.32
				c-0.06,0.104-0.193,0.151-0.25,0.254c-0.06,0.104-0.229,0.143-0.276,0.247c-0.051,0.104-0.034,0.242-0.082,0.345
				c-0.048,0.113-0.125,0.208-0.172,0.311c-0.043,0.112-0.005,0.255-0.056,0.367c-0.043,0.108-0.337,0.112-0.384,0.22
				c-0.048,0.108,0.229,0.354,0.186,0.458c-0.044,0.112-0.208,0.173-0.25,0.281c-0.047,0.108-0.16,0.19-0.208,0.302
				c-0.043,0.108,0.018,0.263-0.021,0.375c-0.044,0.104-0.346,0.122-0.394,0.229c-0.043,0.108,0.285,0.358,0.242,0.47
				c-0.043,0.113-0.418,0.104-0.458,0.208c-0.043,0.111-0.043,0.241-0.086,0.346c-0.039,0.111-0.073,0.228-0.112,0.341
				c-0.043,0.112-0.138,0.203-0.177,0.315c-0.039,0.111,0.186,0.314,0.147,0.426c-0.039,0.112,0.022,0.256-0.021,0.368
				c-0.034,0.112-0.095,0.216-0.138,0.327c-0.034,0.113-0.034,0.239-0.074,0.351c-0.039,0.111-0.393,0.121-0.427,0.233
				c-0.034,0.112-0.052,0.236-0.086,0.351c-0.034,0.111,0.013,0.25-0.017,0.361c-0.035,0.111,0.004,0.251-0.035,0.362
				c-0.035,0.113-0.073,0.226-0.112,0.337c-0.034,0.112-0.13,0.208-0.16,0.319c-0.039,0.113,0.107,0.278,0.073,0.39
				c-0.035,0.111-0.281,0.163-0.311,0.28c-0.035,0.112-0.138,0.208-0.172,0.319c-0.026,0.112-0.061,0.229-0.087,0.342
				c-0.026,0.111-0.077,0.224-0.104,0.345c-0.021,0.117-0.061,0.229-0.078,0.346c-0.025,0.117,0.268,0.285,0.246,0.401
				c-0.021,0.117-0.09,0.221-0.107,0.337s0.043,0.238,0.03,0.358c-0.013,0.113-0.207,0.206-0.216,0.329
				c-0.012,0.115-0.176,0.219-0.189,0.337c-0.009,0.116,0.125,0.244,0.116,0.362c-0.013,0.12-0.142,0.231-0.151,0.346
				c-0.004,0.119,0.117,0.246,0.112,0.362c-0.004,0.115,0.026,0.231,0.021,0.354c-0.004,0.111,0.121,0.233,0.121,0.349
				c0,0.116-0.229,0.232-0.229,0.351c0,0.12,0.03,0.231,0.03,0.354c0.009,0.111,0.052,0.232,0.056,0.351
				c0.004,0.115-0.134,0.241-0.134,0.357c0.009,0.12,0.286,0.224,0.294,0.338c0.008,0.119,0.121,0.228,0.129,0.345
				c0.009,0.116-0.025,0.232-0.017,0.349c0.009,0.118-0.168,0.257-0.16,0.372c0.013,0.116-0.09,0.247-0.073,0.358
				c0.009,0.116-0.021,0.242,0,0.354c0.009,0.12,0.367,0.199,0.38,0.312c0.013,0.111,0.022,0.233,0.035,0.345
				c0.018,0.116-0.302,0.278-0.285,0.397c0.022,0.116,0.022,0.234,0.04,0.35c0.017,0.117,0.44,0.168,0.462,0.29
				c0.018,0.116-0.087,0.247-0.061,0.362c0.022,0.12-0.268,0.286-0.242,0.397c0.018,0.116,0.156,0.212,0.173,0.327
				c0.017,0.118-0.061,0.251-0.039,0.364c0.022,0.12,0.03,0.236,0.056,0.35c0.018,0.116,0.311,0.185,0.336,0.302
				c0.018,0.117,0.078,0.225,0.104,0.341c0.017,0.117-0.043,0.249-0.017,0.364c0.017,0.12,0.186,0.206,0.215,0.318
				c0.018,0.12,0.026,0.238,0.056,0.354c0.026,0.115-0.194,0.285-0.168,0.401c0.026,0.115,0.276,0.187,0.302,0.298
				c0.026,0.116-0.254,0.302-0.229,0.414c0.031,0.121,0.048,0.238,0.074,0.354c0.026,0.118,0.293,0.175,0.319,0.294
				c0.026,0.116-0.069,0.259-0.043,0.381c0.026,0.112,0.216,0.188,0.25,0.312c0.03,0.111-0.095,0.263-0.069,0.378
				c0.026,0.118-0.091,0.269-0.06,0.381c0.026,0.121,0.423,0.146,0.454,0.263c0.026,0.116,0.034,0.238,0.064,0.351
				c0.026,0.121-0.121,0.272-0.095,0.39c0.031,0.119,0.095,0.223,0.125,0.337c0.025,0.12,0.134,0.215,0.16,0.327
				c0.026,0.126-0.078,0.267-0.047,0.37c0.035,0.118,0.064,0.233,0.112,0.338c0.047,0.111,0.186,0.163,0.241,0.254
				c0.07,0.099,0.099,0.218,0.186,0.29c0.086,0.072,0.276-0.052,0.38,0c0.095,0.052,0.147,0.147,0.263,0.171
				c0.104,0.027,0.173,0.395,0.294,0.402c0.108,0.011,0.238-0.288,0.358-0.292c0.112-0.004,0.242,0.172,0.362,0.16
				c0.112-0.01,0.216,0.016,0.328,0.016c0.112-0.004,0.216-0.025,0.328-0.025c0.112,0,0.225-0.065,0.337-0.061
				c0.112,0.006,0.225-0.147,0.337-0.147c0.112,0.01,0.215,0.157,0.328,0.157c0.116,0,0.22-0.226,0.328-0.233
				c0.112-0.004,0.237,0.215,0.346,0.202c0.112-0.012,0.203-0.171,0.315-0.187c0.112-0.012,0.264,0.282,0.376,0.259
				c0.116-0.016,0.215-0.104,0.328-0.12c0.112-0.017,0.19-0.207,0.306-0.229c0.112-0.017,0.212-0.107,0.32-0.124
				c0.112-0.017,0.224-0.013,0.336-0.035c0.112-0.024,0.255,0.135,0.367,0.117c0.112-0.022,0.189-0.194,0.302-0.216
				c0.113-0.021,0.251,0.099,0.358,0.082c0.112-0.027,0.168-0.311,0.281-0.337c0.112-0.021,0.225-0.045,0.337-0.061
				c0.112-0.025,0.237,0.051,0.349,0.031c0.113-0.023,0.212-0.087,0.324-0.104c0.122-0.023,0.19-0.066,0.259-0.187
				c0.052-0.096,0.238-0.116,0.293-0.211c0.056-0.091-0.008-0.259,0.048-0.357c0.056-0.096,0.315-0.071,0.375-0.167
				c0.056-0.095-0.018-0.267,0.039-0.362c0.056-0.095,0.168-0.158,0.229-0.25c0.052-0.095,0.25-0.12,0.302-0.22
				c0.052-0.099,0.108-0.202,0.156-0.298c0.052-0.104,0-0.255,0.047-0.354c0.048-0.1,0-0.242,0.035-0.347
				c0.039-0.104-0.047-0.25-0.013-0.353c0.043-0.144,0.405-0.119,0.458-0.208c0.078-0.139-0.121-0.484-0.026-0.544
				c0.108-0.071,0.315,0.176,0.458,0.186c0.112,0.009,0.302-0.272,0.444-0.233c0.104,0.031,0.203,0.107,0.307,0.144
				c0.095,0.033,0.19,0.136,0.284,0.18c0.104,0.043,0.122,0.246,0.217,0.302c0.094,0.052,0.172,0.114,0.259,0.183
				c0.099,0.068,0.324-0.048,0.423,0.016c0.104,0.071,0.156,0.19,0.259,0.247c0.112,0.057,0.173,0.19,0.276,0.237
				c0.108,0.053,0.19,0.191,0.297,0.234c0.112,0.038,0.247,0.038,0.359,0.068c0.121,0.036,0.233,0.116,0.35,0.139
				c0.116,0.024,0.246,0.052,0.367,0.064c0.112,0.008,0.242-0.187,0.367-0.187c0.121,0,0.242,0.139,0.367,0.131
				c0.112-0.009,0.242-0.009,0.363-0.031c0.117-0.017,0.268,0.074,0.38,0.047c0.121-0.024,0.224-0.111,0.346-0.15
				c0.112-0.033,0.134-0.346,0.246-0.383c0.112-0.044,0.185-0.162,0.298-0.209c0.108-0.042,0.298,0.105,0.41,0.051
				c0.108-0.051,0.22-0.088,0.328-0.145c0.104-0.058,0.143-0.233,0.246-0.29c0.104-0.056,0.328,0.125,0.44,0.088
				c0.112-0.04,0.198-0.127,0.32-0.151c0.121-0.035,0.233-0.063,0.354-0.088c0.117-0.03,0.189-0.263,0.306-0.288
				C25.976,48.411,26.114,48.567,26.23,48.532z M15.41,12.664c0,0.021,0.035-0.16,0.035-0.134c0.104-0.017,0.181,0,0.29-0.008
				c0.107-0.018,0.207-0.061,0.315-0.078c0.108-0.017,0.242,0.143,0.345,0.13c0.112-0.013,0.225,0.06,0.337,0.052
				c0.104-0.018,0.173-0.32,0.285-0.337c0.112-0.013,0.271,0.337,0.384,0.319c0.112-0.008,0.194-0.302,0.311-0.311
				c0.113-0.018,0.264,0.259,0.376,0.246c0.112-0.013,0.189-0.388,0.302-0.401c0.112-0.013,0.268,0.25,0.38,0.237
				c0.112-0.013,0.224-0.047,0.346-0.064c0.112-0.009,0.216-0.078,0.336-0.09c0.112-0.013,0.224-0.061,0.336-0.074
				c0.113-0.013,0.233,0.026,0.35,0.013c0.117-0.013,0.199-0.289,0.311-0.298c0.113-0.017,0.272,0.337,0.389,0.32
				c0.112-0.013,0.194-0.303,0.311-0.311c0.113-0.018,0.216-0.129,0.333-0.143c0.112-0.013,0.229-0.026,0.34-0.039
				c0.117-0.018,0.269,0.285,0.385,0.268c0.112-0.013,0.19-0.354,0.307-0.367c0.117-0.012,0.281,0.367,0.393,0.354
				c0.112-0.013,0.189-0.35,0.302-0.367c0.112-0.009,0.224-0.104,0.336-0.112c0.112-0.018,0.263,0.271,0.38,0.259
				c0.112-0.013,0.203-0.259,0.319-0.276c0.112-0.013,0.233,0.039,0.346,0.025c0.116-0.017,0.254,0.16,0.371,0.147
				c0.121-0.013,0.241,0.061,0.354,0.043c0.112-0.009,0.225-0.104,0.337-0.121c0.113-0.013,0.212-0.155,0.328-0.173
				c0.112-0.009,0.225-0.074,0.337-0.086c0.112-0.017,0.259,0.189,0.371,0.172c0.116-0.008,0.238,0,0.35-0.017
				c0.112-0.013,0.229-0.039,0.342-0.056c0.111-0.022,0.197-0.259,0.318-0.272c0.111-0.013,0.207-0.19,0.32-0.208
				c0.111-0.013,0.268,0.268,0.379,0.251c0.112-0.009,0.199-0.259,0.311-0.276s0.277,0.298,0.39,0.276
				c0.111-0.017,0.181-0.376,0.293-0.393c0.112-0.022,0.242,0.082,0.359,0.073c0.111-0.018,0.24,0.069,0.357,0.056
				c0.111-0.018,0.185-0.337,0.299-0.35c0.115-0.017,0.254,0.16,0.366,0.143c0.117-0.017,0.198-0.22,0.312-0.237
				c0.115-0.018,0.284,0.293,0.397,0.276c0.111-0.021,0.232,0.026,0.35,0.009c0.111-0.017,0.168-0.384,0.28-0.406
				c0.112-0.017,0.225-0.061,0.336-0.078c0.113-0.018,0.259,0.173,0.372,0.156c0.111-0.017,0.233,0.017,0.346-0.009
				c0.112-0.017,0.198-0.229,0.311-0.25c0.111-0.026,0.236,0.03,0.351,0.008c0.111-0.021,0.22-0.069,0.332-0.09
				c0.112-0.022,0.232,0.013,0.345-0.009c0.112-0.021,0.251,0.078,0.362,0.057c0.113-0.026,0.164-0.367,0.276-0.389
				c0.112-0.026,0.234,0.03,0.351,0.013c0.112-0.022,0.246,0.065,0.359,0.039c0.111-0.022,0.223-0.069,0.336-0.096
				c0.111-0.025,0.206-0.112,0.32-0.138c0.111-0.021,0.244,0.052,0.357,0.035c0.111-0.026,0.254,0.103,0.367,0.078
				c0.111-0.021,0.198-0.181,0.311-0.203c0.112-0.021,0.272,0.156,0.38,0.134c0.112-0.025,0.164-0.336,0.276-0.358
				c0.112-0.021,0.225-0.039,0.337-0.064c0.112-0.018,0.285,0.224,0.396,0.199c0.113-0.022,0.217-0.087,0.328-0.116
				c0.108-0.026,0.135-0.35,0.242-0.385c0.108-0.026,0.259,0.086,0.372,0.047c0.104-0.035,0.181-0.151,0.284-0.198
				c0.104-0.043,0.19-0.108,0.294-0.16c0.104-0.047,0.147-0.181,0.251-0.233c0.094-0.057,0.206-0.078,0.293-0.138
				c0.095-0.061,0.358,0.116,0.449,0.043c0.087-0.065,0.15-0.181,0.237-0.255c0.083-0.073,0.142-0.186,0.22-0.263
				c0.078-0.083,0.173-0.16,0.242-0.25c0.069-0.086,0.121-0.203,0.178-0.293c0.055-0.095,0.16-0.182,0.211-0.276
				c0.053-0.099-0.078-0.29-0.034-0.393c0.043-0.104,0.151-0.177,0.19-0.285c0.034-0.104,0.189-0.176,0.225-0.289
				c0.026-0.113-0.169-0.255-0.169-0.376c0-0.117,0.254-0.255,0.237-0.375c-0.018-0.117-0.095-0.229-0.117-0.346
				c-0.017-0.117-0.064-0.225-0.072-0.341c-0.009-0.116-0.28-0.246-0.272-0.367c0.008-0.121,0.13-0.22,0.13-0.328
				c0-0.121,0.206-0.246,0.194-0.354c-0.014-0.121-0.14-0.225-0.165-0.329c-0.033-0.121,0.025-0.281-0.017-0.38
				c-0.057-0.104-0.116-0.259-0.198-0.337c-0.078-0.082-0.372,0.129-0.479,0.069c-0.096-0.047-0.143-0.164-0.254-0.199
				c-0.105-0.026-0.191-0.147-0.313-0.16c-0.111-0.013-0.225,0.143-0.345,0.143c-0.112,0-0.229-0.208-0.342-0.208
				c-0.112,0-0.229,0.199-0.341,0.208c-0.12,0-0.233-0.057-0.345-0.057c-0.112,0-0.229-0.181-0.347-0.177
				c-0.112,0-0.224,0.129-0.345,0.129c-0.112,0-0.225-0.112-0.346-0.112c-0.111,0.008-0.229,0.034-0.341,0.034
				c-0.113,0.009-0.225,0.143-0.342,0.143c-0.111,0.004-0.232-0.108-0.345-0.104s-0.233-0.056-0.346-0.047
				c-0.116,0-0.22,0.328-0.337,0.328c-0.111,0.008-0.24-0.432-0.362-0.432c-0.113,0.009-0.225,0.164-0.337,0.169
				c-0.112,0.004-0.216,0.177-0.337,0.181c-0.116,0.005-0.242-0.284-0.354-0.28s-0.216,0.298-0.328,0.302S35.35,2.176,35.229,2.18
				c-0.113,0.005-0.235-0.112-0.351-0.107c-0.113,0.004-0.225,0.069-0.342,0.069c-0.111,0.009-0.224,0.13-0.336,0.134
				c-0.112,0.004-0.233-0.039-0.351-0.031c-0.112,0.009-0.216,0.242-0.328,0.25c-0.112,0.009-0.245-0.198-0.357-0.189
				c-0.112,0.009-0.216,0.199-0.328,0.203c-0.121,0.004-0.234,0.013-0.346,0.022c-0.113,0.009-0.221,0.104-0.338,0.112
				c-0.115,0.009-0.25-0.241-0.362-0.229c-0.111,0.013-0.259-0.151-0.375-0.129c-0.112,0.018-0.198,0.25-0.311,0.272
				c-0.112,0.018-0.195,0.208-0.312,0.225c-0.112,0.025-0.236,0.008-0.35,0.03c-0.111,0.021-0.226,0.021-0.337,0.043
				c-0.117,0.03-0.242-0.008-0.354,0.022c-0.112,0.026-0.207,0.129-0.324,0.151c-0.112,0.021-0.271-0.16-0.384-0.143
				c-0.113,0.026-0.173,0.341-0.285,0.362c-0.112,0.022-0.285-0.298-0.398-0.276c-0.111,0.018-0.223,0.061-0.336,0.074
				c-0.112,0.013-0.224-0.026-0.34-0.017c-0.113,0.008-0.194,0.341-0.306,0.35c-0.118,0.009-0.243-0.224-0.355-0.22
				c-0.112,0.004-0.216,0.216-0.328,0.22c-0.112,0.009-0.232-0.25-0.345-0.25c-0.113,0.004-0.225-0.035-0.337-0.035
				s-0.22,0.112-0.332,0.112c-0.112,0.008-0.211,0.25-0.324,0.254c-0.113,0.004-0.242-0.289-0.354-0.28
				c-0.112,0.008-0.19,0.367-0.302,0.379c-0.112,0.013-0.264-0.302-0.376-0.285c-0.117,0.018-0.198,0.272-0.315,0.289
				c-0.117,0.018-0.276-0.271-0.397-0.254c-0.117,0.017-0.173,0.423-0.293,0.44c-0.112,0.017-0.268-0.212-0.384-0.194
				c-0.117,0.017-0.229,0.065-0.35,0.082c-0.112,0.018-0.207,0.19-0.319,0.212c-0.121,0.017-0.272-0.186-0.389-0.164
				c-0.121,0.021-0.186,0.324-0.298,0.341c-0.117,0.017-0.255-0.078-0.367-0.056c-0.121,0.021-0.233,0.056-0.35,0.073
				c-0.116,0.026-0.263-0.112-0.375-0.086c-0.122,0.021-0.216,0.129-0.328,0.151c-0.122,0.021-0.208,0.168-0.32,0.19
				c-0.12,0.021-0.276-0.134-0.388-0.112c-0.112,0.022-0.224,0.065-0.336,0.09c-0.122,0.026-0.229,0.078-0.341,0.1
				c-0.112,0.022-0.225,0.074-0.337,0.099c-0.112,0.026-0.208,0.146-0.319,0.173c-0.113,0.026-0.212,0.113-0.333,0.146
				C17.672,4.818,17.569,4.87,17.448,4.9c-0.112,0.03-0.272-0.125-0.385-0.091C16.947,4.84,16.835,4.87,16.723,4.9
				c-0.112,0.03-0.216,0.112-0.328,0.142c-0.112,0.035-0.259-0.052-0.371-0.017c-0.112,0.03-0.186,0.207-0.302,0.238
				c-0.112,0.03-0.259-0.043-0.372-0.013c-0.112,0.034-0.285-0.143-0.397-0.112c-0.112,0.034-0.207,0.156-0.319,0.186
				c-0.112,0.03-0.199,0.159-0.311,0.185c-0.112,0.035-0.199,0.156-0.311,0.19c-0.112,0.025-0.297-0.168-0.414-0.134
				c-0.112,0.04-0.104,0.463-0.216,0.492c-0.112,0.035-0.354-0.34-0.466-0.306c-0.113,0.034-0.104,0.458-0.216,0.492
				s-0.298-0.16-0.411-0.121c-0.112,0.035-0.159,0.272-0.271,0.311c-0.112,0.035-0.276-0.086-0.384-0.047
				c-0.112,0.039-0.194,0.168-0.307,0.203s-0.285-0.108-0.397-0.074c-0.112,0.039-0.181,0.208-0.293,0.247
				c-0.113,0.034-0.303-0.156-0.407-0.113c-0.104,0.043-0.051,0.415-0.146,0.466C9.978,7.167,9.823,7.111,9.741,7.176
				C9.646,7.241,9.464,7.21,9.391,7.288C9.305,7.366,9.464,7.625,9.399,7.72C9.339,7.815,9.231,7.845,9.192,7.949
				C9.149,8.048,9.201,8.156,9.175,8.264C9.154,8.368,8.938,8.445,8.933,8.558C8.929,8.666,9.115,8.769,9.119,8.881
				c0.004,0.108-0.199,0.238-0.181,0.35C8.959,9.339,9.033,9.438,9.063,9.55C9.08,9.659,8.925,9.827,8.959,9.935
				c0.035,0.107,0.359,0.112,0.402,0.216c0.047,0.104-0.207,0.35-0.151,0.449c0.052,0.099,0.492-0.026,0.549,0.069
				c0.064,0.095-0.018,0.272,0.047,0.359c0.069,0.086,0,0.306,0.078,0.389c0.077,0.082,0.345-0.044,0.431,0.034
				c0.086,0.069,0.018,0.345,0.104,0.41c0.091,0.065,0.25,0.039,0.346,0.099c0.095,0.056,0.199,0.107,0.302,0.155
				c0.104,0.043,0.164,0.234,0.272,0.268c0.103,0.034,0.246,0.008,0.358,0.034c0.104,0.026,0.241-0.043,0.354-0.03
				c0.108,0.021,0.225,0,0.341,0.004c0.112,0.009,0.229-0.052,0.341-0.042c0.112,0.008,0.225-0.044,0.336-0.035
				c0.112,0.009,0.224,0,0.336,0.009s0.225,0,0.337,0c0.112,0.013,0.215,0.151,0.324,0.16c0.107,0.008,0.229-0.013,0.341-0.009
				c0.112,0.009,0.224-0.095,0.336-0.09c0.112,0.008,0.225,0.06,0.337,0.065C15.211,12.474,15.298,12.655,15.41,12.664z"/>
		</g>
		<g>
			<path d="M15.851,6.472c0.112-0.021,0.155,0.056,0.268,0.035c0.112-0.021,0.216-0.104,0.328-0.13
				c0.112-0.021,0.285,0.225,0.397,0.203c0.121-0.026,0.216-0.129,0.328-0.147c0.112-0.026,0.237,0,0.35-0.026
				c0.112-0.021,0.16-0.333,0.276-0.358c0.112-0.021,0.272,0.16,0.384,0.134c0.112-0.025,0.255,0.086,0.367,0.061
				s0.185-0.225,0.303-0.25c0.112-0.026,0.176-0.294,0.289-0.315c0.112-0.022,0.238,0.013,0.35-0.009
				c0.112-0.022,0.211-0.112,0.328-0.134c0.112-0.026,0.285,0.242,0.401,0.221c0.112-0.021,0.238,0.017,0.35-0.004
				c0.116-0.027,0.203-0.156,0.324-0.182c0.112-0.022,0.207-0.125,0.319-0.143c0.112-0.021,0.233-0.013,0.345-0.039
				c0.117-0.022,0.276,0.181,0.389,0.159c0.112-0.021,0.208-0.151,0.32-0.168c0.121-0.026,0.185-0.293,0.302-0.311
				c0.121-0.021,0.293,0.337,0.415,0.32c0.112-0.018,0.225-0.048,0.337-0.065c0.112-0.022,0.19-0.289,0.302-0.307
				C23.735,5,23.83,4.836,23.942,4.818c0.122-0.017,0.272,0.216,0.389,0.199C24.452,5,24.542,4.87,24.659,4.853
				c0.121-0.017,0.216-0.156,0.328-0.173c0.112-0.017,0.247,0.069,0.359,0.048c0.116-0.017,0.263,0.199,0.384,0.182
				c0.112-0.021,0.207-0.151,0.328-0.168c0.117-0.017,0.25,0.095,0.362,0.078c0.117-0.017,0.173-0.397,0.29-0.415
				c0.117-0.017,0.263,0.156,0.375,0.139c0.112-0.021,0.216-0.117,0.328-0.133c0.121-0.018,0.255,0.099,0.368,0.082
				c0.111-0.018,0.227-0.026,0.348-0.043c0.113-0.018,0.232,0.017,0.354,0c0.116-0.018,0.232,0.008,0.35-0.018
				c0.116-0.017,0.207-0.19,0.324-0.208c0.12-0.017,0.215-0.164,0.328-0.181c0.12-0.017,0.232-0.034,0.354-0.056
				c0.116-0.017,0.268,0.215,0.39,0.198c0.111-0.018,0.167-0.432,0.279-0.453c0.118-0.018,0.247,0.068,0.367,0.051
				c0.117-0.017,0.216-0.129,0.333-0.147c0.116-0.017,0.237,0.018,0.357,0c0.113-0.017,0.243,0.031,0.354,0.013
				c0.121-0.021,0.269,0.195,0.389,0.177c0.112-0.017,0.233,0.008,0.354-0.009c0.116-0.021,0.173-0.423,0.293-0.445
				c0.104-0.013,0.276,0.009,0.39,0.031c0.103,0.026,0.18,0.078,0.284,0.095c0.121,0.008,0.186,0.415,0.319,0.44
				c0.129,0.035,0.307-0.104,0.429-0.095c0.15,0.021,0.245-0.078,0.341-0.147c0.094-0.069,0.224-0.078,0.328-0.129
				c0.104-0.052,0.146-0.285,0.251-0.32c0.107-0.035,0.275,0.083,0.388,0.061c0.111-0.017,0.242,0.233,0.354,0.225
				c0.113-0.009,0.229-0.432,0.346-0.423c0.111,0.008,0.195,0.389,0.312,0.397c0.112,0.017,0.233-0.095,0.345-0.069
				c0.112,0.021,0.263-0.155,0.376-0.138c0.116,0.026,0.211,0.104,0.323,0.121c0.112,0.026,0.174,0.371,0.281,0.389
				c0.111,0.008,0.246-0.087,0.357-0.087c0.113,0.009,0.234-0.042,0.347-0.047c0.116-0.005,0.246,0.039,0.358,0.018
				c0.112-0.018,0.202-0.035,0.311-0.035c0.112-0.005,0.193,0.073,0.298,0.086c0.108,0.017,0.224-0.069,0.323-0.03
				c0.1,0.043,0.333-0.104,0.419-0.034c0.087,0.064,0.173,0.198,0.242,0.29c0.061,0.082,0.178,0.185,0.225,0.289
				c0.048,0.095-0.311,0.341-0.281,0.449c0.035,0.13,0.394,0.194,0.385,0.302c0,0.13-0.177,0.234-0.216,0.342
				c-0.048,0.112-0.078,0.238-0.151,0.328c-0.077,0.091-0.272,0.047-0.366,0.125c-0.096,0.073,0,0.393-0.104,0.466
				c-0.094,0.069-0.328-0.052-0.422,0.013c-0.096,0.065-0.088,0.311-0.183,0.367c-0.1,0.057-0.337-0.138-0.439-0.086
				c-0.104,0.047-0.088,0.358-0.191,0.406c-0.103,0.043-0.24,0.03-0.345,0.069c-0.112,0.043-0.285-0.121-0.397-0.086
				c-0.104,0.039-0.155,0.285-0.264,0.32c-0.111,0.03-0.263-0.112-0.375-0.086c-0.112,0.03-0.225,0.013-0.337,0.034
				c-0.116,0.022-0.207,0.134-0.324,0.156c-0.112,0.017-0.224,0.035-0.336,0.052s-0.238-0.052-0.351-0.035
				c-0.112,0.018-0.224,0.086-0.337,0.095c-0.111,0.017-0.198,0.268-0.31,0.28c-0.113,0.013-0.265-0.272-0.377-0.254
				c-0.112,0.013-0.215,0.125-0.332,0.138c-0.112,0.017-0.25-0.156-0.367-0.138c-0.117,0.017-0.194,0.319-0.311,0.337
				c-0.116,0.021-0.255-0.078-0.375-0.052c-0.122,0.017-0.243,0.017-0.363,0.039c-0.116,0.021-0.229,0.082-0.346,0.108
				c-0.117,0.021-0.233,0.052-0.354,0.078c-0.111,0.021-0.259-0.082-0.375-0.06c-0.117,0.021-0.186,0.345-0.304,0.362
				c-0.115,0.022-0.263-0.104-0.374-0.082c-0.121,0.017-0.233,0.1-0.354,0.112c-0.116,0.013-0.241-0.013-0.362-0.004
				c-0.122,0.013-0.225,0.164-0.347,0.172c-0.115,0-0.24-0.138-0.357-0.138s-0.237-0.052-0.35-0.061
				c-0.121,0-0.237-0.034-0.35-0.039c-0.118-0.004-0.229-0.159-0.347-0.159c-0.115-0.009-0.236-0.026-0.349-0.035
				c-0.121,0-0.242,0.12-0.358,0.12s-0.225,0.199-0.342,0.208c-0.12,0.009-0.232-0.017-0.344,0c-0.121,0.009-0.264-0.208-0.38-0.19
				c-0.112,0.017-0.183,0.346-0.294,0.363c-0.112,0.017-0.25-0.078-0.363-0.061c-0.112,0.026-0.225,0.056-0.336,0.078
				c-0.112,0.025-0.242-0.035-0.354-0.013c-0.112,0.022-0.207,0.143-0.319,0.173c-0.112,0.022-0.276-0.19-0.393-0.168
				c-0.112,0.026-0.16,0.354-0.271,0.38c-0.112,0.021-0.259-0.086-0.372-0.064s-0.22,0.073-0.333,0.095
				c-0.112,0.022-0.254-0.104-0.367-0.086C23.925,8.946,23.8,8.903,23.683,8.92C23.57,8.938,23.48,9.041,23.368,9.05
				c-0.112,0.018-0.22-0.009-0.332,0s-0.208,0.216-0.32,0.224c-0.112,0.009-0.233-0.164-0.345-0.155
				c-0.112,0.008-0.208,0.345-0.32,0.354c-0.112,0.009-0.242-0.281-0.354-0.272c-0.112,0.009-0.225,0.021-0.337,0.035
				c-0.112,0.013-0.207,0.151-0.319,0.168c-0.122,0.018-0.259-0.103-0.385-0.086c-0.121,0.018-0.198,0.276-0.32,0.298
				c-0.121,0.022-0.254-0.03-0.367-0.008c-0.121,0.021-0.246,0.026-0.362,0.052c-0.117,0.021-0.225,0.117-0.341,0.143
				c-0.117,0.025-0.238,0.056-0.358,0.077c-0.113,0.026-0.225,0.091-0.35,0.112c-0.121,0.026-0.272-0.134-0.393-0.112
				c-0.104,0.018-0.19,0.199-0.293,0.208c-0.104,0.017-0.216-0.181-0.32-0.19c-0.121,0-0.238,0-0.354,0
				c-0.117-0.008-0.242,0.168-0.363,0.164c-0.112-0.004-0.233,0.018-0.345,0.013c-0.121-0.005-0.225-0.237-0.341-0.242
				c-0.117-0.004-0.237,0.057-0.358,0.047c-0.112,0-0.225-0.077-0.345-0.086c-0.117,0-0.233-0.017-0.35-0.03
				c-0.117-0.004-0.246,0.134-0.358,0.134c-0.121-0.008-0.242,0.06-0.358,0.056s-0.216-0.324-0.333-0.332
				c-0.116-0.009-0.241,0.094-0.354,0.086C13.57,9.697,13.45,9.84,13.329,9.831c-0.116-0.008-0.22-0.159-0.336-0.168
				c-0.117-0.013-0.242,0.065-0.354,0.052c-0.112-0.008-0.207-0.176-0.311-0.189c-0.113-0.013-0.225,0.025-0.336,0.008
				c-0.104-0.018-0.225,0.017-0.333,0c-0.108-0.021-0.186-0.189-0.29-0.211c-0.112-0.021-0.271,0.177-0.379,0.151
				c-0.108-0.031-0.233-0.017-0.337-0.052c-0.112-0.03-0.112-0.354-0.216-0.397c-0.112-0.043-0.259,0.026-0.346-0.1
				c-0.069-0.099-0.207-0.186-0.276-0.306C9.749,8.497,9.853,8.364,9.78,8.259c0.095-0.056,0.099-0.082,0.194-0.142
				c0.09-0.064,0.039-0.337,0.134-0.397s0.242-0.061,0.336-0.104c0.104-0.052,0.263,0.052,0.372,0.03
				c0.121-0.026,0.216-0.152,0.337-0.177c0.121-0.021,0.242-0.056,0.358-0.078c0.122-0.026,0.263,0.078,0.376,0.052
				c0.121-0.021,0.242-0.052,0.358-0.069c0.121-0.018,0.242-0.009,0.367-0.031c0.121-0.017,0.233-0.082,0.346-0.103
				c0.125-0.017,0.271,0.125,0.388,0.103c0.121-0.021,0.25-0.004,0.371-0.025c0.122-0.021,0.164-0.432,0.286-0.454
				c0.112-0.026,0.302,0.264,0.423,0.242c0.112-0.026,0.242-0.112,0.358-0.155C14.896,6.903,14.892,6.615,15,6.554
				c0.108-0.056,0.35,0.139,0.462,0.079c0.104-0.057,0.19-0.423,0.303-0.471C15.781,6.251,15.825,6.381,15.851,6.472z"/>
		</g>
	</g>
</g>
</svg>
