<?xml version="1.0" encoding="utf-8"?>
<!-- Generator: Adobe Illustrator 16.0.0, SVG Export Plug-In . SVG Version: 6.00 Build 0)  -->
<!DOCTYPE svg PUBLIC "-//W3C//DTD SVG 1.1//EN" "http://www.w3.org/Graphics/SVG/1.1/DTD/svg11.dtd">
<svg version="1.1" id="圖層_1" xmlns="http://www.w3.org/2000/svg" xmlns:xlink="http://www.w3.org/1999/xlink" x="0px" y="0px"
	 width="55px" height="55px" viewBox="0 0 55 55" enable-background="new 0 0 55 55" xml:space="preserve">
<g>
	<path fill="#FFFFFF" d="M45.431,3.439c0.063,0.862,0.154,1.64,0.167,2.423c0.05,2.701,0.104,5.407,0.083,8.108
		c-0.017,1.382-0.195,2.764-0.274,4.146c-0.013,0.25,0.133,0.508,0.166,0.766c0.059,0.433,0.1,0.866,0.112,1.298
		c0.025,0.741-0.179,1.557,0.079,2.202c0.845,2.139,0.337,4.325,0.399,6.489c0.009,0.246-0.416,0.583-0.707,0.75
		c-0.425,0.232-0.916,0.357-1.374,0.516c-1.086,0.375-2.156,0.804-3.271,1.091c-0.5,0.133-1.065,0-1.606-0.017
		c-0.167,0-0.366-0.071-0.5,0c-2.14,1.057-4.245,0.308-6.383-0.033c-3.553-0.566-7.111-1.137-10.685-1.545
		c-3.146-0.361-6.221,0.146-9.155,1.387c-0.179,0.074-0.396,0.066-0.639,0.108c-0.064-0.209-0.165-0.367-0.156-0.525
		c0.125-3.737-0.373-7.458-0.456-11.196c-0.104-4.562-0.326-9.124-0.583-13.678c-0.064-1.12,0.271-1.74,1.343-1.936
		c1.251-0.229,2.514-0.404,3.765-0.645c0.464-0.083,0.901-0.354,1.367-0.408c2.651-0.3,5.301-0.225,7.909,0.354
		c1.446,0.32,2.845,0.903,4.299,1.128c1.871,0.287,3.775,0.333,5.665,0.491c0.679,0.058,1.361,0.158,2.044,0.241
		c0.2,0.025,0.417,0.146,0.596,0.108c2.285-0.491,4.574-0.999,6.855-1.499C44.748,3.51,45.015,3.493,45.431,3.439z M21.849,17.629
		c-0.112,2.139,0.723,3.929,2.342,5.207c1.132,0.899,2.522,2.056,3.807,2.069c5.444,0.054,9.059-3.022,9.092-7.646
		c0.017-2.073-0.694-4.013-2.048-5.411c-0.982-1.016-2.643-1.886-4.022-1.923C25.394,9.787,21.776,12.754,21.849,17.629z"/>
	<path fill="#776255" d="M10.159,51.128c-0.171-5.236-0.362-10.189-0.483-15.143c-0.052-2.144,0.068-4.292,0.052-6.432
		c-0.008-0.982-0.199-1.973-0.234-2.955c-0.146-4.154-0.273-8.308-0.404-12.47c-0.1-3.188-0.212-6.373-0.26-9.557
		C8.824,4.146,9.177,3.709,9.363,3.281c0.136,0.42,0.353,0.837,0.381,1.266c0.115,1.465,0.171,2.93,0.228,4.399
		c0.216,5.549,0.416,11.097,0.639,16.646c0.116,2.959,0.294,5.919,0.385,8.887c0.036,1.095-0.181,2.193-0.147,3.292
		c0.044,1.357,0.279,2.706,0.339,4.066c0.073,1.578,0.053,3.155,0.069,4.733c0,0.166-0.069,0.337-0.053,0.499
		c0.14,1.437,0.314,2.864,0.427,4.296c0.044,0.558,0.017,1.249-0.734,1.257c-0.804,0.017-0.651-0.741-0.732-1.261
		C10.136,51.19,10.159,51.02,10.159,51.128z"/>
	<path fill="#EB6668" d="M29,23.993c-2.443-0.104-4.577-1.195-5.784-3.696c-1.176-2.443-0.749-4.803,0.927-6.81
		c1.787-2.14,4.193-3.134,6.996-2.489c2.695,0.625,4.602,2.277,4.96,5.111C36.564,19.847,34.442,23.735,29,23.993z"/>
	<g>
		<g>
			<path d="M46.608,11.756c0,0.112,0.296,0.133,0.296,0.245c0,0.113-0.258,0.229-0.258,0.337c0,0.117-0.167,0.229-0.167,0.341
				s0.342,0.225,0.337,0.337c-0.004,0.113,0.055,0.229,0.055,0.337c0,0.117-0.337,0.229-0.337,0.341s-0.063,0.225-0.063,0.341
				c0,0.108-0.009,0.225-0.009,0.333c0,0.117,0.246,0.229,0.246,0.341s0.17,0.225,0.17,0.341c0,0.108,0,0.225,0,0.337
				c-0.008,0.113-0.191,0.225-0.191,0.337s0.05,0.225,0.05,0.341c0,0.108,0,0.225,0,0.337c0,0.113-0.058,0.225-0.058,0.337
				c0,0.117-0.142,0.225-0.142,0.341c0,0.108,0.108,0.225,0.108,0.337c0,0.112-0.129,0.225-0.129,0.337
				c0,0.117-0.046,0.225-0.046,0.341c0,0.112,0.383,0.225,0.383,0.337c0,0.112-0.241,0.225-0.241,0.337
				c0,0.117,0.066,0.225,0.066,0.341c0,0.112,0.175,0.225,0.175,0.337c0,0.112-0.25,0.229-0.25,0.345
				c0,0.108-0.096,0.225-0.092,0.337c0,0.112,0.292,0.225,0.292,0.337c0,0.117,0.1,0.225,0.1,0.341c0,0.108-0.208,0.229-0.208,0.341
				s0.129,0.225,0.129,0.341c0,0.108,0.037,0.225,0.046,0.333c0,0.112-0.063,0.221-0.059,0.329c0.004,0.108-0.199,0.229-0.191,0.337
				c0.009,0.108,0.092,0.216,0.104,0.325c0.008,0.108-0.101,0.225-0.092,0.337c0.013,0.108,0.229,0.196,0.237,0.304
				c0.017,0.108-0.046,0.225-0.033,0.333c0.017,0.108-0.083,0.233-0.075,0.341c0.017,0.108,0.125,0.2,0.138,0.308
				c0.012,0.108,0.254,0.191,0.262,0.299c0.009,0.108-0.208,0.246-0.199,0.354c0.008,0.108-0.142,0.229-0.13,0.337
				c0.013,0.108,0.101,0.208,0.113,0.316c0.008,0.108,0.324,0.2,0.333,0.308c0,0.108-0.017,0.216-0.009,0.325
				c0,0.108-0.1,0.216-0.1,0.325c0.008,0.108-0.191,0.216-0.184,0.325c0.004,0.108,0.175,0.208,0.175,0.316
				c0,0.108-0.083,0.216-0.083,0.325c0,0.108,0.083,0.208,0.075,0.316c0,0.112-0.25,0.208-0.254,0.316
				c-0.005,0.108,0.063,0.212,0.054,0.32c0,0.108,0.071,0.217,0.063,0.32c-0.008,0.104,0.204,0.233,0.191,0.342
				c-0.008,0.1-0.245,0.175-0.287,0.282c-0.042,0.101,0.066,0.3,0.009,0.388c-0.059,0.096-0.292,0.07-0.367,0.146
				c-0.083,0.083-0.17,0.1-0.262,0.138c-0.104,0.037-0.104,0.345-0.212,0.387c-0.104,0.042-0.342-0.241-0.441-0.2
				c-0.108,0.042-0.146,0.25-0.25,0.292c-0.104,0.041-0.142,0.241-0.25,0.283c-0.1,0.046-0.267-0.059-0.37-0.017
				c-0.104,0.046-0.154,0.225-0.254,0.266c-0.108,0.042-0.221,0.067-0.325,0.112c-0.104,0.046-0.274-0.078-0.383-0.037
				c-0.1,0.042-0.191,0.125-0.3,0.167c-0.1,0.037-0.22,0.054-0.324,0.091c-0.104,0.042-0.149,0.254-0.258,0.292
				c-0.108,0.041-0.3-0.175-0.408-0.138c-0.108,0.033-0.166,0.208-0.274,0.241c-0.108,0.038-0.233,0.029-0.333,0.063
				c-0.108,0.029-0.225,0.059-0.333,0.083c-0.108,0.029-0.229,0.018-0.338,0.042c-0.112,0.025-0.236-0.029-0.345-0.004
				c-0.108,0.021-0.2,0.175-0.309,0.195c-0.112,0.021-0.208,0.142-0.32,0.15c-0.108,0.017-0.221,0.041-0.329,0.054
				c-0.107,0.013-0.241-0.179-0.35-0.162c-0.107,0.008-0.229-0.075-0.337-0.066c-0.108,0.008-0.217,0.028-0.324,0.033
				c-0.108,0.004-0.221,0.024-0.329,0.033c-0.108,0-0.217-0.075-0.325-0.075c-0.107,0-0.22,0.225-0.328,0.225
				s-0.217-0.199-0.325-0.199s-0.229,0.304-0.337,0.3c-0.108-0.005-0.217-0.18-0.324-0.184c-0.108-0.004-0.217-0.096-0.329-0.1
				c-0.108-0.005-0.229,0.166-0.337,0.158c-0.108-0.009-0.217-0.038-0.333-0.046c-0.108-0.009-0.217-0.038-0.325-0.046
				c-0.108-0.009-0.225,0.05-0.333,0.037c-0.108-0.008-0.216-0.037-0.324-0.054c-0.108-0.009-0.217-0.108-0.325-0.116
				c-0.108-0.018-0.208-0.092-0.316-0.101c-0.108-0.017-0.208-0.146-0.316-0.158c-0.107-0.017-0.225,0.05-0.333,0.033
				c-0.112-0.012-0.221-0.058-0.335-0.074c-0.112-0.009-0.221-0.033-0.333-0.051c-0.114-0.017-0.274,0.305-0.387,0.288
				c-0.112-0.021-0.195-0.237-0.304-0.259c-0.112-0.017-0.217-0.079-0.331-0.096c-0.112-0.017-0.26,0.171-0.373,0.15
				c-0.112-0.025-0.191-0.217-0.304-0.241c-0.112-0.021-0.256,0.124-0.368,0.107c-0.114-0.024-0.212-0.1-0.327-0.12
				c-0.112-0.021-0.177-0.279-0.284-0.304c-0.11-0.021-0.296,0.324-0.408,0.299c-0.114-0.021-0.215-0.096-0.327-0.116
				s-0.208-0.108-0.32-0.133c-0.114-0.025-0.235,0.013-0.348-0.009c-0.112-0.024-0.179-0.274-0.291-0.3
				c-0.112-0.017-0.235,0.025-0.348,0c-0.112-0.017-0.217-0.07-0.329-0.087c-0.114-0.021-0.21-0.129-0.322-0.154
				c-0.112-0.017-0.252,0.133-0.364,0.116c-0.112-0.021-0.217-0.1-0.331-0.12c-0.112-0.017-0.229,0.004-0.341-0.013
				c-0.114-0.013-0.208-0.121-0.323-0.133c-0.112-0.017-0.208-0.125-0.32-0.142c-0.112-0.013-0.269,0.316-0.383,0.3
				c-0.112-0.017-0.2-0.213-0.313-0.226c-0.112-0.012-0.232,0.051-0.348,0.034c-0.112-0.018-0.22-0.059-0.328-0.075
				c-0.112-0.009-0.2-0.225-0.313-0.233c-0.114-0.017-0.256,0.241-0.37,0.225c-0.112-0.008-0.191-0.308-0.304-0.324
				c-0.112-0.013-0.229,0.024-0.344,0.017c-0.112-0.017-0.217-0.083-0.329-0.1c-0.112-0.009-0.247,0.183-0.359,0.175
				c-0.113-0.013-0.213-0.146-0.327-0.154c-0.112-0.013-0.229,0.054-0.342,0.042c-0.114-0.009-0.227-0.025-0.339-0.029
				c-0.112-0.009-0.239,0.199-0.352,0.191c-0.112-0.009-0.212-0.225-0.327-0.233c-0.112-0.008-0.232,0.208-0.345,0.208
				c-0.115-0.008-0.219-0.271-0.331-0.271c-0.112-0.004-0.231,0.195-0.344,0.195s-0.225,0.059-0.333,0.059
				c-0.114,0-0.227-0.041-0.339-0.037s-0.223,0.1-0.335,0.104c-0.113,0.005-0.229-0.183-0.34-0.175
				c-0.108,0.009-0.204,0.175-0.316,0.188c-0.108,0.013-0.26-0.316-0.372-0.304c-0.108,0.017-0.171,0.387-0.279,0.403
				c-0.108,0.021-0.269-0.254-0.377-0.237c-0.107,0.021-0.212,0.075-0.322,0.096c-0.108,0.021-0.156,0.325-0.265,0.351
				c-0.107,0.028-0.225,0.004-0.328,0.028c-0.108,0.029-0.208,0.067-0.318,0.092c-0.108,0.025-0.29-0.233-0.4-0.199
				c-0.107,0.024-0.216,0.054-0.32,0.083c-0.108,0.033-0.173,0.199-0.28,0.232c-0.11,0.029-0.228,0.025-0.331,0.055
				c-0.108,0.029-0.239-0.017-0.344,0.013c-0.108,0.033-0.125,0.362-0.233,0.391c-0.11,0.033-0.282-0.183-0.391-0.149
				s-0.171,0.225-0.275,0.254c-0.107,0.029-0.264-0.125-0.372-0.1c-0.108,0.028-0.212,0.066-0.316,0.096
				c-0.104,0.033-0.075,0.333-0.16,0.379c-0.092,0.054-0.152,0.054-0.223,0.124c-0.068,0.075-0.304,0.013-0.352,0.104
				c-0.044,0.087-0.239,0.158-0.269,0.258c-0.027,0.1,0.181,0.254,0.173,0.362c-0.009,0.1-0.121,0.204-0.117,0.313
				c0.005,0.116,0.04,0.225,0.044,0.333c0.004,0.116,0.021,0.225,0.025,0.337c0.004,0.112,0.266,0.212,0.271,0.32
				c0.004,0.108-0.035,0.225-0.031,0.333c0.004,0.116-0.083,0.225-0.077,0.342c0.004,0.112,0.142,0.216,0.146,0.328
				c0.006,0.112-0.241,0.237-0.237,0.346s-0.07,0.225-0.066,0.337s0.07,0.221,0.075,0.329c0.004,0.112,0.1,0.217,0.104,0.333
				c0.004,0.108-0.147,0.225-0.144,0.337s0.031,0.221,0.035,0.333c0.005,0.112,0.148,0.217,0.152,0.329
				c0.004,0.116-0.191,0.233-0.188,0.346s0.156,0.216,0.16,0.329c0.005,0.112,0.152,0.216,0.156,0.332
				c0.004,0.108-0.289,0.233-0.285,0.342c0.004,0.112,0.217,0.212,0.221,0.324c0.004,0.113-0.191,0.229-0.188,0.342
				c0.005,0.116,0.171,0.217,0.175,0.324c0.005,0.117,0.096,0.217,0.101,0.333c0.004,0.112,0.033,0.221,0.039,0.333
				c0.004,0.112-0.114,0.226-0.114,0.342c0.004,0.108-0.021,0.217-0.017,0.333c0.004,0.112-0.064,0.225-0.061,0.333
				c0.004,0.112,0.125,0.217,0.129,0.333c0.004,0.108,0.044,0.216,0.048,0.333c0.004,0.112,0.127,0.216,0.131,0.329
				c0.005,0.112-0.274,0.237-0.269,0.345c0.005,0.108,0.042,0.217,0.048,0.333c0.005,0.112-0.096,0.225-0.091,0.338
				c0.004,0.112,0.276,0.212,0.28,0.328c0.005,0.108-0.104,0.225-0.1,0.333c0.004,0.117-0.064,0.229-0.061,0.338
				c0.005,0.112,0.191,0.216,0.196,0.324c0.004,0.112-0.069,0.229-0.064,0.337c0.004,0.108,0.104,0.217,0.107,0.329
				c0.005,0.112-0.282,0.233-0.278,0.341c0.004,0.113,0.252,0.213,0.256,0.329c0.004,0.108-0.121,0.225-0.121,0.337
				c0.005,0.113,0.112,0.217,0.117,0.329c0.004,0.112,0.019,0.221,0.022,0.333c0.004,0.116,0.004,0.225,0.009,0.333
				c0.004,0.116,0.173,0.221,0.177,0.329c0.006,0.112-0.397,0.237-0.394,0.346c0.004,0.116,0.281,0.216,0.285,0.324
				c0.004,0.116-0.112,0.229-0.108,0.342s0.061,0.22,0.064,0.328c0.007,0.112-0.089,0.229-0.085,0.338
				c0.004,0.116,0.276,0.216,0.281,0.328c0.004,0.112-0.064,0.225-0.061,0.333s-0.088,0.229-0.083,0.338
				c0.006,0.116-0.169,0.232-0.165,0.341c0.004,0.083-0.024,0.191-0.017,0.274c0.009,0.084,0.212,0.15,0.225,0.237
				c0.015,0.101,0.248,0.171,0.275,0.296c0.021,0.108-0.204,0.274-0.188,0.383c0.021,0.121,0.096,0.225,0.108,0.324
				c0.026,0.176,0.112,0.483,0.07,0.508c-0.11,0.051-0.223,0.084-0.331,0.138c-0.108,0.046-0.339-0.188-0.451-0.138
				c-0.108,0.051-0.248,0.005-0.36,0.051c-0.112,0.041-0.195,0.133-0.308,0.17c-0.117,0.038-0.18,0.263-0.296,0.288
				c-0.116,0.024-0.248,0.024-0.364,0.033c-0.123,0.008-0.248,0.008-0.364,0c-0.114-0.009-0.271,0.054-0.362,0.017
				c-0.096-0.046,0.005-0.362-0.068-0.438c-0.068-0.07-0.144-0.096-0.195-0.191c-0.048-0.087-0.325-0.079-0.356-0.188
				c-0.031-0.092,0.112-0.245,0.092-0.35c-0.017-0.1,0.125-0.216,0.116-0.324c-0.008-0.101-0.156-0.188-0.16-0.292
				c-0.004-0.107-0.252-0.208-0.26-0.316c-0.009-0.107,0.324-0.245,0.316-0.357c-0.009-0.108,0.022-0.225,0.013-0.333
				c-0.009-0.108-0.313-0.191-0.321-0.3c-0.008-0.108,0.021-0.225,0.013-0.333c-0.013-0.108,0.208-0.245,0.195-0.358
				c-0.012-0.107-0.433-0.179-0.447-0.287c-0.013-0.107,0.167-0.237,0.156-0.345c-0.008-0.108-0.1-0.217-0.108-0.325
				c-0.008-0.108,0.213-0.237,0.208-0.346c-0.004-0.107-0.155-0.212-0.155-0.324s-0.044-0.229-0.044-0.337
				c0-0.117,0.183-0.226,0.183-0.338c0.005-0.112-0.203-0.229-0.199-0.345c0.004-0.108,0.12-0.217,0.131-0.325
				c0.004-0.116-0.152-0.237-0.147-0.346c0.004-0.112,0.368-0.203,0.372-0.316c0.004-0.112-0.013-0.229-0.004-0.337
				c0.004-0.116-0.339-0.245-0.335-0.357c0.006-0.112,0.387-0.208,0.391-0.321c0.005-0.112-0.181-0.229-0.181-0.345
				c0.004-0.108-0.022-0.225-0.022-0.338c0-0.112,0-0.225,0-0.333c0-0.112-0.017-0.22-0.025-0.337
				C9.1,43.598,9.089,43.49,9.081,43.373c-0.009-0.112-0.121-0.212-0.134-0.32C8.933,42.94,9.1,42.808,9.081,42.699
				c-0.017-0.108-0.017-0.217-0.029-0.329c-0.015-0.108-0.071-0.212-0.079-0.32c-0.009-0.108-0.16-0.208-0.169-0.316
				c-0.01-0.108,0.241-0.233,0.237-0.342c-0.004-0.107,0.031-0.216,0.027-0.333c-0.004-0.107-0.061-0.216-0.064-0.324
				c0-0.108-0.2-0.217-0.2-0.329s0.173-0.221,0.177-0.329c0-0.107-0.177-0.225-0.173-0.337c0.005-0.108,0.144-0.216,0.148-0.324
				c0.004-0.108,0.072-0.217,0.077-0.329c0.004-0.108-0.3-0.225-0.3-0.333s0.239-0.208,0.239-0.324c0-0.108-0.14-0.221-0.14-0.329
				s0.171-0.217,0.171-0.329c0-0.108-0.271-0.216-0.275-0.324c0-0.108,0.136-0.225,0.132-0.333
				c-0.005-0.108,0.087-0.221,0.081-0.333c-0.004-0.108,0.162-0.233,0.151-0.342c-0.008-0.12-0.285-0.208-0.304-0.324
				c-0.013-0.112,0.104-0.246,0.088-0.358C8.86,35.64,8.66,35.557,8.642,35.439c-0.017-0.116-0.021-0.232-0.037-0.345
				c-0.02-0.113-0.015-0.233-0.031-0.346c-0.017-0.117,0.155-0.254,0.144-0.371c-0.013-0.112-0.048-0.225-0.057-0.337
				c-0.008-0.116,0.112-0.233,0.108-0.35s-0.136-0.221-0.136-0.337c0-0.121-0.06-0.229-0.056-0.346
				c0.004-0.121,0.156-0.225,0.164-0.341c0.011-0.117-0.208-0.242-0.204-0.358c0.011-0.116,0.204-0.217,0.215-0.333
				c0.008-0.112-0.088-0.237-0.079-0.35c0.008-0.116-0.088-0.233-0.083-0.354c0.006-0.117,0.239-0.225,0.243-0.338
				c0.004-0.107-0.096-0.212-0.092-0.324c0.007-0.108-0.168-0.225-0.16-0.333c0.009-0.108,0.271-0.191,0.279-0.3
				c0.008-0.108,0.104-0.217,0.112-0.32c0.008-0.108-0.34-0.233-0.335-0.342c0.004-0.107,0.252-0.208,0.252-0.32
				c0-0.108-0.309-0.208-0.313-0.308c-0.004-0.108,0.408-0.254,0.396-0.358c-0.013-0.108-0.316-0.175-0.34-0.274
				c-0.021-0.108-0.076-0.191-0.112-0.292c-0.035-0.108,0.117-0.271,0.088-0.383c-0.027-0.108-0.165-0.191-0.184-0.3
				c-0.021-0.117,0.148-0.246,0.136-0.358s-0.112-0.212-0.123-0.32c-0.004-0.113-0.241-0.221-0.241-0.337
				c0-0.108,0.26-0.216,0.265-0.333c0.004-0.112-0.217-0.237-0.209-0.345c0.009-0.113,0.36-0.2,0.369-0.313
				c0.008-0.116-0.088-0.233-0.073-0.341c0.009-0.116-0.07-0.237-0.063-0.345c0.011-0.112,0.048-0.221,0.057-0.337
				c0.01-0.108-0.061-0.225-0.057-0.341c0.004-0.112-0.004-0.221,0-0.333c0-0.112-0.077-0.221-0.081-0.333
				c-0.004-0.108,0.061-0.216,0.052-0.333c-0.008-0.112,0.248-0.258,0.229-0.375c-0.017-0.1-0.108-0.191-0.129-0.292
				c-0.02-0.1-0.053-0.2-0.071-0.299c-0.017-0.1-0.181-0.171-0.204-0.271c-0.021-0.1-0.133-0.179-0.156-0.279
				c-0.021-0.1,0.071-0.22,0.048-0.32C8.156,20.796,8.3,20.663,8.277,20.58c-0.025-0.083-0.316-0.158-0.296-0.229
				c0.031-0.108,0.015-0.221,0.04-0.325c0.027-0.112,0.287-0.163,0.308-0.271c0.023-0.108-0.017-0.229,0-0.341
				c0.019-0.108-0.085-0.233-0.072-0.341c0.012-0.108,0.133-0.2,0.147-0.313c0.013-0.108-0.015-0.22-0.009-0.333
				c0.009-0.108-0.01-0.22-0.006-0.329c0.006-0.108,0.231-0.216,0.235-0.325c0-0.108,0.048-0.229,0.048-0.337
				c0-0.108-0.335-0.217-0.339-0.325c-0.005-0.108,0.278-0.229,0.274-0.346c-0.004-0.108-0.239-0.208-0.248-0.316
				c-0.008-0.108,0.229-0.237,0.221-0.345c-0.008-0.108-0.16-0.208-0.168-0.321c-0.009-0.108-0.204-0.208-0.213-0.316
				c-0.015-0.108,0.325-0.254,0.316-0.362c-0.013-0.108-0.296-0.191-0.308-0.304c-0.013-0.108-0.175-0.204-0.188-0.313
				c-0.013-0.108,0.135-0.237,0.123-0.345c-0.015-0.108,0.116-0.237,0.104-0.346c-0.015-0.112-0.204-0.204-0.214-0.316
				c-0.009-0.112-0.09-0.221-0.094-0.329c-0.011-0.117,0.212-0.233,0.204-0.35c-0.007-0.112-0.2-0.217-0.204-0.329
				c-0.007-0.112,0.151-0.229,0.151-0.337c0-0.117-0.066-0.225-0.066-0.337S8.2,11.581,8.2,11.468s-0.171-0.229-0.166-0.337
				c0.006-0.117-0.029-0.225-0.025-0.337s0.112-0.221,0.116-0.329c0.005-0.112-0.039-0.225-0.033-0.333
				c0.005-0.117,0.177-0.216,0.182-0.333c0.004-0.108-0.064-0.225-0.061-0.337C8.217,9.35,7.934,9.233,7.934,9.125
				c0-0.117,0.3-0.216,0.304-0.333c0-0.108-0.052-0.225-0.052-0.333S8.077,8.238,8.077,8.126c0-0.117-0.12-0.216-0.124-0.333
				C7.948,7.685,8.018,7.577,8.013,7.46c-0.004-0.112-0.091-0.216-0.1-0.325C7.905,7.023,8.2,6.886,8.186,6.777
				C8.173,6.661,8.061,6.548,8.044,6.432C8.025,6.315,8.173,6.161,8.152,6.045C8.13,5.928,8.034,5.824,8.013,5.708
				C7.992,5.587,8.001,5.47,7.986,5.354c-0.013-0.121,0-0.225,0-0.341c0-0.121-0.013-0.212,0.006-0.333
				c0.013-0.1-0.291-0.262-0.271-0.371c0.022-0.104,0.231-0.175,0.26-0.283C8.009,3.922,8.097,3.839,8.125,3.73
				c0.036-0.104,0.079-0.191,0.119-0.292C8.286,3.331,8.148,3.148,8.2,3.056c0.052-0.1,0.252-0.108,0.316-0.191
				c0.064-0.092-0.064-0.354,0.009-0.433C8.616,2.34,8.864,2.465,8.964,2.423c0.108-0.042,0.204-0.2,0.32-0.191
				c0.108,0,0.219,0.125,0.331,0.167c0.104,0.033,0.313-0.121,0.417-0.066c0.1,0.054,0.212,0.137,0.308,0.2
				c0.096,0.058,0.112,0.258,0.204,0.325c0.083,0.063,0.151,0.162,0.26,0.2c0.101,0.029,0.204,0.15,0.314,0.163
				c0.108,0.012,0.229-0.138,0.337-0.146c0.112-0.008,0.165-0.187,0.265-0.216c0.11-0.038,0.271,0.1,0.379,0.066
				s0.239,0,0.348-0.033s0.216-0.058,0.328-0.091c0.11-0.034,0.244,0.025,0.353-0.009c0.107-0.033,0.139-0.35,0.247-0.378
				c0.108-0.029,0.208-0.108,0.318-0.138c0.108-0.033,0.313,0.296,0.421,0.267c0.108-0.025,0.199-0.125,0.312-0.15
				c0.108-0.025,0.165-0.287,0.279-0.308c0.108-0.025,0.26,0.125,0.372,0.104c0.113-0.029,0.248,0.083,0.36,0.063
				c0.112-0.025,0.175-0.299,0.287-0.316c0.112-0.025,0.208-0.137,0.32-0.154c0.113-0.017,0.257,0.137,0.364,0.121
				c0.115-0.017,0.196-0.241,0.311-0.258c0.112-0.017,0.241,0.108,0.355,0.091c0.112-0.008,0.252,0.208,0.364,0.2
				c0.112-0.017,0.213-0.141,0.325-0.154c0.112-0.008,0.23,0.046,0.343,0.033c0.113-0.008,0.228-0.004,0.34-0.008
				c0.112-0.004,0.225,0.013,0.337,0.008c0.114-0.004,0.227,0.038,0.339,0.029c0.113,0,0.231-0.346,0.344-0.341
				c0.112,0.004,0.212,0.396,0.325,0.399c0.114,0.004,0.234-0.167,0.347-0.158c0.115,0.008,0.209,0.183,0.327,0.191
				c0.112,0.008,0.252-0.271,0.364-0.262c0.112,0.013,0.195,0.313,0.308,0.325c0.112,0.013,0.248-0.179,0.36-0.162
				c0.112,0.008,0.208,0.162,0.322,0.175c0.112,0.017,0.257-0.204,0.369-0.183c0.112,0.017,0.203,0.162,0.316,0.175
				c0.112,0.017,0.243-0.096,0.355-0.075c0.114,0.017,0.239-0.05,0.348-0.033c0.112,0.017,0.204,0.158,0.316,0.179
				c0.114,0.017,0.235-0.029,0.348-0.013c0.114,0.017,0.204,0.167,0.312,0.183c0.115,0.017,0.215,0.1,0.327,0.117
				c0.112,0.021,0.2,0.175,0.313,0.191c0.112,0.025,0.239-0.05,0.352-0.033c0.112,0.025,0.204,0.142,0.316,0.167
				c0.114,0.021,0.287-0.325,0.399-0.304c0.114,0.021,0.16,0.399,0.274,0.42c0.112,0.017,0.237-0.05,0.352-0.034
				c0.113,0.017,0.269-0.233,0.381-0.216c0.113,0.021,0.209,0.121,0.323,0.137c0.112,0.017,0.216,0.071,0.328,0.092
				c0.113,0.017,0.213,0.087,0.327,0.108c0.112,0.017,0.204,0.17,0.316,0.191c0.112,0.017,0.256-0.158,0.368-0.138
				c0.112,0.017,0.213,0.133,0.327,0.15C29,3.106,29.129,3.015,29.243,3.031c0.112,0.017,0.195,0.233,0.308,0.254
				c0.112,0.017,0.226,0.042,0.34,0.063c0.112,0.017,0.232-0.033,0.352-0.017c0.112,0.017,0.272-0.275,0.385-0.254
				c0.112,0.017,0.175,0.387,0.292,0.404c0.112,0.017,0.234-0.034,0.347-0.017c0.113,0.021,0.24-0.062,0.356-0.045
				c0.116,0.021,0.235-0.013,0.348,0c0.112,0.021,0.208,0.146,0.32,0.167c0.112,0.017,0.204,0.154,0.316,0.179
				c0.114,0.021,0.283-0.266,0.396-0.246c0.112,0.021,0.191,0.229,0.304,0.246c0.112,0.025,0.235,0.008,0.348,0.033
				c0.114,0.021,0.243-0.058,0.355-0.042s0.225,0.067,0.333,0.079c0.117,0.013,0.217,0.267,0.325,0.275
				c0.12,0.008,0.245-0.346,0.357-0.346c0.117,0,0.217-0.029,0.333-0.037c0.108-0.009,0.208-0.009,0.325-0.025
				c0.108-0.017,0.254,0.191,0.366,0.183c0.108-0.012,0.216,0.013,0.324,0.008c0.117-0.004,0.217-0.191,0.329-0.195
				c0.112,0,0.221,0.274,0.333,0.274s0.237-0.378,0.346-0.375c0.108,0.004,0.208,0.267,0.324,0.275c0.112,0,0.233-0.246,0.346-0.242
				c0.112,0.008,0.212,0.3,0.32,0.304c0.117,0.004,0.225-0.233,0.342-0.233c0.112,0,0.225,0.254,0.333,0.246
				c0.112,0,0.208-0.266,0.32-0.274s0.208-0.059,0.32-0.071c0.108-0.013,0.233,0.1,0.346,0.079c0.108-0.025,0.179-0.171,0.287-0.196
				c0.108-0.029,0.191-0.087,0.3-0.129c0.1-0.033,0.199-0.054,0.3-0.1c0.1-0.042,0.291,0.108,0.391,0.05
				c0.092-0.05,0.117-0.288,0.217-0.325c0.1-0.042,0.316,0.258,0.429,0.225c0.104-0.029,0.208-0.021,0.316-0.042
				c0.108-0.025,0.208-0.025,0.316-0.042c0.108-0.017,0.195-0.158,0.304-0.175c0.108-0.008,0.191-0.254,0.3-0.266
				c0.108-0.017,0.225,0.042,0.333,0.029c0.108-0.013,0.254,0.204,0.362,0.187s0.171-0.283,0.278-0.304
				c0.112-0.029,0.229-0.013,0.342-0.046s0.233-0.025,0.35-0.058c0.108-0.033,0.183-0.179,0.3-0.212
				c0.108-0.038,0.291,0.162,0.399,0.125c0.116-0.034,0.191-0.362,0.283-0.354c0.116,0,0.166,0.283,0.232,0.346
				c0.067,0.063,0.292,0.087,0.321,0.2c0.021,0.091,0,0.225,0,0.345c0,0.108,0.029,0.225,0.029,0.333
				c0,0.112-0.167,0.225-0.167,0.333c0,0.112-0.092,0.225-0.092,0.333c0,0.117,0.283,0.225,0.283,0.333
				c0,0.117-0.354,0.229-0.354,0.337c0,0.112,0.262,0.225,0.262,0.333c0,0.112-0.283,0.229-0.283,0.337
				c0,0.108,0.351,0.225,0.351,0.333c0,0.112-0.275,0.225-0.275,0.333c0,0.117,0.025,0.225,0.025,0.333
				c0,0.117,0.05,0.229,0.05,0.337c0,0.108,0.033,0.225,0.033,0.333c0,0.108-0.054,0.229-0.054,0.337s0.254,0.225,0.254,0.333
				s-0.354,0.225-0.354,0.333s0.263,0.225,0.263,0.333s0.1,0.225,0.1,0.337c0,0.113-0.008,0.225-0.008,0.333
				c0,0.113-0.3,0.229-0.3,0.337s0.316,0.225,0.316,0.333c0,0.112-0.383,0.225-0.383,0.333c0,0.112,0.312,0.225,0.312,0.333
				c0,0.108,0.071,0.225,0.071,0.333c0,0.116-0.292,0.229-0.292,0.337c0,0.108,0.225,0.225,0.225,0.333
				c0,0.112-0.087,0.175-0.087,0.287C46.463,11.614,46.472,11.756,46.608,11.756z M45.502,3.348
				c-0.113,0.017-0.271,0.333-0.362,0.345c-0.117,0.013-0.25-0.229-0.346-0.22c-0.108,0.017-0.246-0.125-0.346-0.108
				c-0.108,0.025-0.146,0.383-0.254,0.408c-0.108,0.021-0.208,0.1-0.316,0.121c-0.108,0.021-0.291-0.279-0.399-0.254
				c-0.108,0.017-0.229-0.017-0.337,0.009c-0.108,0.025-0.217,0.042-0.325,0.066c-0.107,0.025-0.166,0.287-0.274,0.312
				c-0.108,0.029-0.179,0.221-0.291,0.246c-0.117,0.025-0.217,0.046-0.325,0.067c-0.108,0.025-0.262-0.138-0.37-0.113
				c-0.108,0.029-0.204,0.1-0.316,0.129c-0.112,0.025-0.221,0.05-0.329,0.071c-0.108,0.029-0.225-0.008-0.337,0.021
				c-0.108,0.025-0.245-0.091-0.354-0.075c-0.108,0.025-0.2,0.15-0.309,0.175s-0.241-0.075-0.35-0.05
				c-0.108,0.021-0.225,0-0.337,0.025s-0.138,0.416-0.245,0.441c-0.108,0.029-0.275-0.183-0.384-0.158
				c-0.107,0.021-0.199,0.113-0.308,0.142c-0.108,0.017-0.184,0.208-0.291,0.233c-0.108,0.029-0.271-0.2-0.379-0.175
				c-0.096,0.021-0.138-0.092-0.237-0.125c-0.101-0.025-0.258,0.225-0.358,0.212c-0.112-0.013-0.241,0.062-0.35,0.05
				c-0.116-0.013-0.199-0.237-0.316-0.254c-0.108-0.017-0.241,0.091-0.354,0.083c-0.112-0.017-0.229,0.008-0.346-0.008
				c-0.108-0.008-0.216-0.091-0.333-0.1c-0.112-0.017-0.208-0.233-0.32-0.246c-0.112-0.008-0.229,0.063-0.337,0.054
				c-0.117-0.008-0.217-0.138-0.325-0.146c-0.116-0.008-0.241,0.191-0.35,0.183C33.88,4.7,33.776,4.625,33.661,4.617
				c-0.112-0.008-0.216-0.125-0.324-0.129c-0.112-0.009-0.231,0.083-0.339,0.075c-0.112-0.008-0.237,0.208-0.348,0.2
				c-0.112-0.008-0.208-0.246-0.316-0.254s-0.213-0.175-0.32-0.183c-0.115-0.008-0.228,0.066-0.34,0.058
				c-0.112-0.012-0.247,0.296-0.36,0.288c-0.112-0.008-0.223-0.05-0.335-0.059s-0.212-0.133-0.324-0.142s-0.2-0.216-0.313-0.233
				c-0.114-0.013-0.243,0.15-0.352,0.133c-0.11-0.008-0.208-0.108-0.322-0.125c-0.108-0.017-0.229,0.05-0.344,0.033
				c-0.112-0.017-0.177-0.283-0.289-0.299c-0.114-0.025-0.235,0.025-0.344,0c-0.112-0.025-0.239,0.029-0.352,0.004
				c-0.108-0.029-0.278,0.154-0.387,0.125c-0.108-0.029-0.164-0.262-0.272-0.292s-0.275,0.121-0.383,0.083
				c-0.108-0.029-0.16-0.254-0.273-0.288c-0.112-0.033-0.208-0.104-0.316-0.137c-0.109-0.038-0.299,0.204-0.407,0.171
				c-0.11-0.029-0.123-0.4-0.231-0.429c-0.108-0.029-0.269,0.112-0.379,0.079c-0.107-0.033-0.26,0.108-0.372,0.079
				c-0.108-0.029-0.184-0.212-0.296-0.237c-0.108-0.025-0.243,0.1-0.352,0.075c-0.108-0.021-0.212-0.058-0.32-0.075
				c-0.108-0.025-0.188-0.217-0.296-0.237c-0.108-0.017-0.225,0.008-0.335-0.008c-0.108-0.017-0.212-0.063-0.324-0.075
				c-0.108-0.017-0.244,0.154-0.352,0.137c-0.108-0.008-0.188-0.283-0.296-0.299c-0.108-0.008-0.235,0.121-0.344,0.112
				c-0.108-0.013-0.216-0.063-0.324-0.071s-0.221-0.025-0.331-0.033c-0.108-0.008-0.217-0.059-0.329-0.067
				c-0.108-0.004-0.216-0.096-0.331-0.1c-0.107-0.004-0.225,0.121-0.333,0.121c-0.11-0.004-0.223,0.096-0.335,0.096
				s-0.216,0.004-0.331,0.004c-0.107,0-0.22-0.204-0.333-0.196c-0.107,0-0.227-0.092-0.335-0.092
				c-0.108,0.008-0.221,0.025-0.333,0.025c-0.11,0.008-0.223,0.029-0.331,0.037c-0.107,0.004-0.225-0.063-0.339-0.054
				c-0.108,0.008-0.204,0.233-0.316,0.242c-0.108,0.008-0.239-0.179-0.348-0.171c-0.108,0.013-0.191,0.329-0.3,0.337
				c-0.107,0.017-0.237-0.146-0.348-0.133c-0.116,0.017-0.264-0.038-0.381-0.004c-0.112,0.037-0.17,0.245-0.282,0.291
				s-0.233,0.063-0.344,0.1c-0.112,0.038-0.233,0.054-0.352,0.075c-0.112,0.021-0.217,0.112-0.329,0.129
				c-0.112,0.025-0.23,0.025-0.348,0.042c-0.112,0.025-0.243-0.046-0.355-0.025c-0.112,0.017-0.239-0.025-0.352-0.004
				s-0.248-0.079-0.36-0.063c-0.112,0.021-0.217,0.108-0.331,0.129c-0.112,0.017-0.233,0.004-0.348,0.025
				c-0.112,0.021-0.229,0.037-0.341,0.054c-0.115,0.017-0.175,0.375-0.287,0.392c-0.113,0.021-0.265-0.163-0.379-0.142
				c-0.112,0.025-0.233,0-0.346,0.025c-0.119,0.017-0.171,0.25-0.271,0.279c-0.112,0.038-0.277-0.091-0.368-0.042
				c-0.104,0.054-0.092,0.25-0.169,0.32c-0.083,0.075-0.179,0.108-0.235,0.204c-0.056,0.092-0.326,0.104-0.359,0.212
				c-0.031,0.1,0.308,0.292,0.291,0.404c-0.015,0.104-0.075,0.191-0.075,0.308c-0.004,0.104-0.068,0.208-0.061,0.329
				c0.005,0.108,0.069,0.216,0.073,0.325c0.004,0.117-0.221,0.237-0.217,0.35c0.005,0.112,0.075,0.216,0.084,0.333
				c0.004,0.108-0.023,0.225-0.015,0.333c0.006,0.112-0.081,0.225-0.073,0.337c0.004,0.113,0.184,0.212,0.188,0.325
				c0.004,0.113-0.052,0.229-0.048,0.337c0.004,0.117,0.048,0.225,0.052,0.333c0.004,0.112-0.083,0.225-0.075,0.337
				C10.7,8.875,10.614,8.992,10.619,9.1c0.004,0.116,0.355,0.208,0.359,0.316c0.004,0.116-0.168,0.233-0.16,0.345
				c0.009,0.112,0.086,0.216,0.096,0.329c0.004,0.116-0.019,0.225-0.01,0.333c0.01,0.112-0.186,0.233-0.182,0.345
				s0.285,0.208,0.291,0.321c0.005,0.116-0.278,0.233-0.274,0.35c0.004,0.112,0.064,0.22,0.071,0.329
				c0.004,0.112-0.048,0.225-0.044,0.337c0.004,0.108,0.216,0.208,0.221,0.324c0.004,0.108-0.117,0.225-0.108,0.337
				c0.004,0.112,0.083,0.216,0.087,0.329c0.005,0.113,0.005,0.225,0.009,0.333c0.004,0.117,0.221,0.217,0.225,0.325
				c0.004,0.117-0.204,0.233-0.199,0.346c0.004,0.112,0.23,0.212,0.234,0.329c0.005,0.108-0.252,0.233-0.247,0.341
				c0.004,0.112,0.208,0.217,0.212,0.325c0.004,0.112,0.066,0.221,0.071,0.329c0.004,0.112-0.036,0.229-0.031,0.337
				c0.004,0.108,0.1,0.216,0.104,0.329c0.004,0.112-0.188,0.229-0.183,0.337c0.006,0.117,0.166,0.216,0.17,0.333
				c0.005,0.108-0.339,0.233-0.335,0.341c0.005,0.112,0.371,0.212,0.371,0.321c0.004,0.112-0.292,0.229-0.292,0.345
				c0.005,0.108,0.04,0.216,0.04,0.333c0.004,0.112,0.293,0.212,0.293,0.325c0.005,0.112-0.037,0.225-0.037,0.333
				s0.017,0.225,0.021,0.333c0.004,0.117-0.295,0.233-0.291,0.345c0.004,0.113,0.004,0.225,0.008,0.337
				c0.007,0.117,0.152,0.225,0.158,0.333c0.005,0.117-0.031,0.233-0.026,0.345c0.004,0.113-0.073,0.229-0.069,0.346
				c0.005,0.108,0.32,0.208,0.325,0.325c0.004,0.112-0.244,0.237-0.235,0.35c0.006,0.117,0.179,0.216,0.188,0.333
				c0.004,0.108-0.182,0.237-0.173,0.35c0.008,0.112,0.021,0.225,0.029,0.341c0.008,0.108,0.304,0.208,0.313,0.316
				c0.009,0.117-0.022,0.233-0.019,0.345c0.005,0.113-0.212,0.246-0.208,0.354c0.009,0.117-0.144,0.241-0.14,0.354
				c0.009,0.112,0.244,0.212,0.252,0.325c0.009,0.112-0.096,0.237-0.085,0.345c0.008,0.117,0.042,0.229,0.052,0.341
				c0.009,0.112,0.025,0.225,0.033,0.341c0.009,0.108,0.271,0.208,0.279,0.316c0.008,0.117-0.031,0.233-0.027,0.346
				c0.009,0.112-0.077,0.229-0.068,0.345c0.008,0.108,0.147,0.216,0.151,0.333c0.005,0.108-0.243,0.237-0.234,0.35
				c0.004,0.112-0.069,0.233-0.064,0.341c0.004,0.117,0.068,0.225,0.072,0.337c0.004,0.112,0.1,0.22,0.104,0.333
				c0.006,0.112-0.152,0.229-0.146,0.346c0.005,0.108,0.029,0.225,0.029,0.337s0.144,0.225,0.148,0.338
				c0,0.116-0.196,0.225-0.196,0.341c0,0.108,0.148,0.225,0.148,0.337s0.139,0.229,0.139,0.346c0,0.108-0.304,0.217-0.308,0.333
				c-0.004,0.112,0.204,0.229,0.2,0.342c-0.005,0.087-0.161,0.232-0.127,0.324c0.031,0.079,0.223,0.108,0.247,0.2
				c0.112-0.017,0.217-0.112,0.316-0.125c0.114-0.013,0.188-0.05,0.283-0.088c0.104-0.041,0.252,0.029,0.355-0.013
				c0.104-0.041,0.217-0.05,0.321-0.091c0.104-0.038,0.234-0.013,0.339-0.05c0.104-0.042,0.171-0.188,0.274-0.226
				c0.104-0.033,0.2-0.107,0.304-0.142c0.104-0.033,0.178-0.183,0.285-0.212c0.108-0.037,0.296,0.208,0.404,0.171
				c0.108-0.025,0.204-0.092,0.312-0.117c0.11-0.033,0.24,0.042,0.348,0.018c0.11-0.025,0.152-0.316,0.261-0.346
				c0.11-0.025,0.243,0.063,0.352,0.037c0.11-0.017,0.231,0.029,0.344,0.009c0.107-0.025,0.187-0.226,0.295-0.246
				c0.108-0.017,0.235,0.038,0.344,0.021c0.108-0.017,0.208-0.129,0.316-0.141c0.108-0.013,0.256,0.258,0.368,0.249
				c0.11-0.017,0.195-0.271,0.306-0.283c0.112-0.008,0.233,0.113,0.342,0.101c0.114-0.009,0.214-0.117,0.326-0.125
				c0.112-0.009,0.221-0.025,0.333-0.029c0.115-0.004,0.223-0.004,0.335-0.008c0.113-0.005,0.221-0.171,0.336-0.171
				c0.112,0,0.216,0.407,0.328,0.407s0.231-0.266,0.34-0.262c0.112,0.004,0.216,0.129,0.328,0.133
				c0.115,0.005,0.228-0.037,0.34-0.028c0.112,0.008,0.212,0.116,0.322,0.129c0.112,0.008,0.252-0.246,0.36-0.233
				c0.112,0.013,0.216,0.096,0.324,0.108c0.112,0.013,0.213,0.12,0.327,0.133c0.112,0.013,0.204,0.2,0.313,0.221
				c0.107,0.017,0.216,0.063,0.328,0.075c0.114,0.013,0.248-0.167,0.36-0.15c0.114,0.017,0.252-0.183,0.366-0.17
				c0.112,0.012,0.189,0.282,0.3,0.295c0.108,0.013,0.229-0.024,0.341-0.008c0.115,0.012,0.252-0.171,0.362-0.158
				c0.108,0.017,0.221,0.041,0.333,0.058s0.184,0.333,0.292,0.35c0.107,0.017,0.208,0.117,0.32,0.134
				c0.114,0.021,0.23-0.033,0.343-0.017c0.113,0.017,0.252-0.167,0.364-0.154c0.115,0.013,0.223,0.054,0.331,0.063
				c0.108,0.017,0.221,0.033,0.335,0.05c0.112,0.017,0.237-0.066,0.346-0.05c0.11,0.017,0.175,0.35,0.287,0.366
				s0.231-0.008,0.34,0.009c0.107,0.017,0.26-0.221,0.372-0.204c0.112,0.021,0.195,0.212,0.309,0.229
				c0.114,0.017,0.195,0.191,0.308,0.208c0.114,0.021,0.243-0.1,0.355-0.083c0.114,0.017,0.263-0.208,0.375-0.191
				s0.168,0.375,0.276,0.392c0.114,0.017,0.219,0.074,0.327,0.091c0.112,0.017,0.269-0.254,0.376-0.232
				c0.108,0.017,0.215,0.079,0.327,0.1c0.112,0.017,0.186,0.263,0.296,0.279c0.112,0.017,0.285-0.371,0.399-0.354
				c0.112,0.017,0.189,0.221,0.304,0.237c0.112,0.017,0.233-0.046,0.346-0.029c0.114,0.017,0.188,0.259,0.3,0.283
				c0.114,0.017,0.252-0.108,0.366-0.083c0.112,0.021,0.232,0,0.341,0.025c0.114,0.021,0.191,0.216,0.304,0.237
				c0.115,0.021,0.265-0.163,0.381-0.142c0.108,0.021,0.2,0.153,0.316,0.17c0.108,0.025,0.25-0.116,0.362-0.1
				s0.175,0.383,0.287,0.399s0.233,0.009,0.35,0.017c0.108,0.017,0.259-0.324,0.371-0.316c0.112,0.009,0.208,0.392,0.328,0.392
				c0.108,0.009,0.233-0.183,0.346-0.191c0.112,0,0.225-0.029,0.342-0.037c0.112-0.009,0.229-0.021,0.337-0.033
				c0.116-0.013,0.225-0.046,0.337-0.071c0.112-0.021,0.221-0.05,0.329-0.075c0.108-0.033,0.183-0.162,0.291-0.199
				c0.108-0.038,0.275,0.092,0.383,0.046c0.104-0.046,0.217-0.079,0.321-0.129c0.07-0.038,0.129-0.071,0.22-0.063
				c0.084,0.008,0.18-0.117,0.263-0.117c0.104,0.004,0.2,0.263,0.308,0.271c0.108,0.009,0.213,0.059,0.316,0.071
				c0.108,0.013,0.226-0.038,0.338-0.033c0.107,0.004,0.208-0.196,0.316-0.2c0.107-0.008,0.245,0.146,0.345,0.121
				c0.112-0.029,0.171-0.233,0.279-0.267c0.112-0.029,0.267,0.07,0.374,0.037c0.108-0.037,0.242-0.004,0.351-0.037
				c0.107-0.037,0.12-0.366,0.229-0.399c0.108-0.042,0.291,0.146,0.399,0.107c0.108-0.041,0.171-0.216,0.279-0.254
				c0.108-0.037,0.274,0.084,0.383,0.046c0.108-0.041,0.125-0.333,0.233-0.37c0.107-0.037,0.266,0.054,0.374,0.013
				c0.108-0.042,0.246,0.013,0.354-0.021c0.121-0.038,0.288,0.087,0.4,0.05c0.12-0.038,0.153-0.329,0.262-0.371
				c0.121-0.037,0.283,0.046,0.392,0c0.116-0.05,0.142-0.266,0.25-0.324c0.091-0.055,0.191-0.1,0.291-0.184
				c0.096-0.07,0.191-0.129,0.267-0.208c0.091-0.108,0.316-0.166,0.316-0.262c-0.009-0.112-0.025-0.229-0.025-0.346
				c0-0.108,0.125-0.225,0.125-0.342c0-0.112-0.125-0.229-0.116-0.35c0-0.108-0.059-0.225-0.055-0.345
				c0.004-0.112,0.154-0.221,0.162-0.337c0.009-0.117-0.208-0.242-0.208-0.358c0.009-0.113,0.2-0.221,0.208-0.333
				c0-0.113-0.1-0.233-0.091-0.35c0-0.108-0.101-0.229-0.092-0.346c0.004-0.112,0.233-0.229,0.233-0.346
				c0-0.108-0.104-0.225-0.104-0.345c-0.004-0.112-0.188-0.221-0.195-0.333c-0.005-0.112,0.241-0.246,0.232-0.362
				c-0.008-0.112,0.063-0.241,0.05-0.358c-0.012-0.117-0.383-0.179-0.399-0.292c-0.017-0.112,0.2-0.274,0.175-0.387
				c-0.024-0.113-0.354-0.146-0.383-0.254c-0.033-0.108,0.342-0.346,0.304-0.454c-0.037-0.108-0.345-0.121-0.391-0.229
				c-0.038-0.1-0.101-0.208-0.121-0.316c-0.017-0.1,0.158-0.225,0.15-0.333c0-0.108-0.121-0.208-0.121-0.316
				c0.004-0.104,0.191-0.2,0.195-0.308c0.004-0.104-0.074-0.216-0.074-0.32c0.008-0.104-0.221-0.221-0.217-0.325
				c0.004-0.112,0.262-0.212,0.262-0.313c-0.004-0.108-0.237-0.208-0.245-0.316c-0.009-0.108,0.333-0.242,0.324-0.35
				c-0.008-0.108-0.124-0.208-0.142-0.316c-0.012-0.108-0.112-0.204-0.129-0.313c-0.021-0.129-0.029-0.266-0.07-0.391
				c-0.037-0.129-0.15-0.254-0.142-0.379c0.004-0.116,0-0.229,0.008-0.345c0.009-0.121-0.066-0.237-0.058-0.354
				c0.008-0.117,0.092-0.225,0.1-0.337c0.009-0.117,0.291-0.208,0.3-0.321c0.009-0.116-0.059-0.241-0.046-0.35
				c0.009-0.121,0.009-0.233,0.017-0.35c0.009-0.117-0.129-0.241-0.116-0.358c0.008-0.117-0.079-0.237-0.071-0.35
				c0.009-0.117,0.125-0.225,0.134-0.341c0.008-0.117,0.199-0.221,0.199-0.337c0.009-0.116-0.274-0.246-0.266-0.354
				c0.004-0.117-0.042-0.233-0.042-0.346s0.241-0.221,0.241-0.333s-0.063-0.229-0.063-0.337c0-0.117-0.125-0.229-0.125-0.341
				s0.108-0.225,0.108-0.337s-0.037-0.229-0.037-0.337c0-0.117-0.017-0.229-0.017-0.341s0.216-0.225,0.216-0.341
				c0-0.108,0.046-0.225,0.046-0.333c0-0.117-0.337-0.225-0.337-0.337s0.283-0.229,0.283-0.337c0-0.117-0.229-0.225-0.233-0.333
				c-0.004-0.117,0.241-0.233,0.241-0.346S45.722,9.716,45.718,9.6c0-0.108-0.188-0.217-0.188-0.333c0-0.112,0.35-0.229,0.35-0.341
				s-0.278-0.221-0.278-0.333c0-0.117-0.154-0.225-0.154-0.333c0-0.117,0.154-0.229,0.154-0.341s0.138-0.225,0.138-0.341
				c0-0.108-0.184-0.216-0.184-0.333c0-0.112-0.075-0.225-0.083-0.333c0-0.112,0.225-0.233,0.221-0.341
				c0-0.117-0.196-0.225-0.2-0.337c0-0.112,0.154-0.229,0.154-0.337c0-0.117-0.075-0.233-0.075-0.35
				c-0.009-0.117,0.158-0.242,0.149-0.354c-0.008-0.112-0.183-0.216-0.195-0.337c-0.008-0.108-0.054-0.225-0.063-0.341
				c-0.008-0.113,0.092-0.237,0.083-0.358c-0.008-0.108-0.066-0.225-0.074-0.341C45.439,3.672,45.51,3.464,45.502,3.348z
				 M10.08,51.22c0-0.112,0.272-0.059,0.299,0.112c0.018,0.104-0.23,0.258-0.225,0.366c0.009,0.116-0.151,0.258-0.135,0.366
				c0.017,0.116,0.368,0.133,0.42,0.225c0.053,0.092,0.088,0.063,0.2,0.108c0.087,0.037,0.127,0.379,0.26,0.375
				c0.132,0,0.323,0.024,0.414-0.018c0.112-0.05,0.29-0.195,0.35-0.287c0.063-0.091-0.107-0.324-0.081-0.437
				c0.021-0.108-0.144-0.217-0.144-0.333s-0.004-0.208-0.013-0.316c-0.008-0.112,0.173-0.237,0.165-0.35
				c-0.009-0.108-0.073-0.217-0.083-0.325c-0.009-0.107-0.021-0.225-0.034-0.333c-0.008-0.107,0.034-0.225,0.021-0.333
				c-0.013-0.107,0.122-0.232,0.108-0.341c-0.013-0.108-0.125-0.208-0.138-0.325c-0.015-0.107,0.104-0.232,0.09-0.341
				c-0.013-0.108,0.026-0.225,0.014-0.333c-0.014-0.108-0.399-0.179-0.414-0.291c-0.012-0.108,0.215-0.242,0.204-0.358
				c-0.008-0.112-0.089-0.212-0.104-0.32c-0.013-0.108-0.189-0.204-0.204-0.313c-0.013-0.108,0.23-0.241,0.223-0.357
				c-0.009-0.079,0.1-0.125,0.116-0.217c0.017-0.083-0.256-0.191-0.256-0.274c0-0.117-0.1-0.225-0.1-0.342
				c0-0.112,0.212-0.225,0.212-0.337s-0.125-0.229-0.125-0.337c0-0.117-0.039-0.225-0.039-0.342c0-0.112,0.064-0.225,0.064-0.337
				s0.208-0.229,0.208-0.337c0-0.117-0.077-0.225-0.081-0.342c0-0.112,0.116-0.225,0.116-0.337s-0.208-0.221-0.212-0.337
				c0-0.108,0.064-0.225,0.064-0.338c0-0.112,0.104-0.229,0.104-0.345c-0.004-0.108-0.104-0.217-0.107-0.333
				c-0.005-0.108-0.235-0.217-0.239-0.329c-0.005-0.112,0.227-0.233,0.223-0.346c-0.005-0.116,0.147-0.241,0.137-0.354
				c-0.008-0.112-0.094-0.221-0.104-0.333c-0.009-0.112-0.329-0.2-0.342-0.313c-0.01-0.116,0.004-0.225-0.006-0.341
				c-0.013-0.108,0.083-0.233,0.074-0.346c-0.012-0.112,0.173-0.246,0.161-0.362c-0.013-0.108-0.196-0.208-0.209-0.32
				c-0.012-0.112,0.061-0.233,0.048-0.346c-0.012-0.116-0.1-0.216-0.107-0.333c-0.009-0.108,0.229-0.241,0.221-0.354
				c-0.009-0.112-0.088-0.217-0.092-0.329c-0.004-0.116-0.096-0.225-0.096-0.333c-0.004-0.108-0.225-0.225-0.221-0.333
				c0-0.108,0.212-0.216,0.217-0.324c0.004-0.108-0.178-0.233-0.169-0.342c0.008-0.108,0.212-0.199,0.221-0.316
				c0.01-0.108,0.058-0.216,0.07-0.324c0.009-0.108-0.264-0.241-0.256-0.35c0.009-0.108,0.364-0.196,0.373-0.309
				c0.008-0.107-0.165-0.225-0.161-0.333c0.005-0.112-0.164-0.225-0.16-0.333c0-0.107,0.16-0.216,0.156-0.324
				c-0.004-0.112-0.151-0.225-0.156-0.342c-0.004-0.107,0.009-0.229,0.005-0.341c-0.005-0.112,0.168-0.233,0.164-0.35
				c-0.004-0.108-0.052-0.225-0.057-0.333c-0.004-0.116,0.018-0.233,0.013-0.346c-0.004-0.112-0.195-0.221-0.199-0.337
				c-0.005-0.108,0.252-0.237,0.247-0.35c-0.004-0.112-0.151-0.221-0.156-0.333c-0.004-0.116,0.031-0.233,0.027-0.342
				c-0.004-0.116,0-0.232-0.011-0.345c-0.004-0.112,0.031-0.229,0.027-0.346c-0.004-0.108,0.073-0.229,0.064-0.346
				c-0.004-0.112-0.144-0.221-0.147-0.333s-0.112-0.221-0.116-0.337c-0.005-0.121-0.017-0.229-0.021-0.346
				c-0.004-0.116,0.189-0.237,0.186-0.354c-0.004-0.108,0.083-0.229,0.075-0.346c-0.005-0.112-0.027-0.225-0.031-0.346
				c-0.005-0.116-0.029-0.225-0.036-0.341c-0.004-0.112,0.067-0.229,0.063-0.346c-0.004-0.121-0.23-0.221-0.234-0.329
				c-0.005-0.116,0.187-0.241,0.183-0.354s-0.318-0.212-0.322-0.329c-0.004-0.116,0.16-0.233,0.156-0.35
				c-0.005-0.112,0.074-0.229,0.07-0.345c-0.004-0.112-0.191-0.221-0.195-0.337c-0.004-0.108,0.017-0.216,0.013-0.333
				c-0.005-0.112,0.012-0.221,0.004-0.333c-0.004-0.112-0.077-0.216-0.081-0.333c-0.005-0.108,0.008-0.216,0.004-0.333
				c-0.004-0.112,0.077-0.225,0.073-0.333c-0.005-0.112,0.056-0.225,0.052-0.333c-0.004-0.108,0.108-0.225,0.104-0.341
				c-0.004-0.108-0.081-0.216-0.085-0.329c-0.006-0.112,0.021-0.221,0.017-0.333s-0.004-0.221-0.008-0.337
				c-0.005-0.108-0.348-0.208-0.353-0.316c-0.004-0.117,0.196-0.233,0.191-0.346c-0.006-0.112,0.034-0.221,0.029-0.337
				c-0.004-0.108-0.221-0.208-0.225-0.325c-0.004-0.112,0.173-0.229,0.169-0.337c-0.005-0.112-0.18-0.216-0.184-0.325
				c-0.004-0.112,0.044-0.229,0.04-0.337c-0.005-0.108,0.235-0.229,0.23-0.341c-0.004-0.112-0.383-0.208-0.387-0.316
				c-0.004-0.112,0.044-0.225,0.039-0.333c-0.004-0.108,0.061-0.225,0.057-0.333c-0.004-0.112-0.064-0.225-0.068-0.333
				c-0.007-0.112,0.225-0.229,0.22-0.341c-0.004-0.117-0.072-0.225-0.079-0.333c-0.004-0.108,0.027-0.221,0.023-0.333
				s0.087-0.225,0.081-0.333c-0.004-0.117-0.177-0.216-0.181-0.325c-0.005-0.117,0.056-0.225,0.052-0.337
				c-0.004-0.113-0.044-0.221-0.048-0.329c-0.004-0.112,0.083-0.225,0.079-0.333c-0.007-0.116,0.085-0.225,0.081-0.341
				c-0.004-0.112-0.352-0.208-0.355-0.32c-0.005-0.112,0.168-0.229,0.164-0.337c-0.004-0.116-0.085-0.216-0.09-0.333
				c-0.006-0.108,0.017-0.22,0.013-0.333c-0.004-0.112,0.191-0.229,0.188-0.337c-0.007-0.112-0.283-0.212-0.287-0.32
				c-0.004-0.108,0.28-0.237,0.276-0.346c-0.004-0.112-0.061-0.221-0.064-0.329c-0.004-0.108,0.052-0.225,0.048-0.333
				c-0.004-0.117-0.216-0.217-0.221-0.325c-0.004-0.117,0.117-0.229,0.112-0.341c-0.004-0.113-0.083-0.217-0.087-0.329
				s0-0.221-0.004-0.337c-0.005-0.108-0.221-0.208-0.226-0.325c-0.006-0.112,0.209-0.229,0.204-0.341
				c-0.004-0.117-0.23-0.217-0.235-0.325c-0.004-0.117,0.252-0.233,0.248-0.346S9.911,9.392,9.907,9.279
				C9.902,9.167,9.84,9.059,9.836,8.95C9.832,8.833,9.871,8.726,9.867,8.609c-0.004-0.112-0.1-0.221-0.104-0.333
				C9.759,8.164,9.95,8.043,9.944,7.926C9.94,7.818,9.775,7.71,9.771,7.602c-0.004-0.117,0.335-0.241,0.331-0.354
				c-0.006-0.112-0.37-0.208-0.379-0.32c-0.008-0.117,0.287-0.241,0.283-0.354c-0.004-0.112-0.044-0.225-0.048-0.337
				c-0.004-0.117-0.3-0.208-0.308-0.325C9.645,5.803,9.685,5.687,9.676,5.574C9.668,5.462,9.651,5.35,9.641,5.237
				c-0.009-0.112,0.283-0.25,0.274-0.358C9.907,4.767,9.896,4.654,9.893,4.542c-0.009-0.108-0.173-0.208-0.2-0.316
				c-0.024-0.104-0.024-0.22-0.064-0.329c-0.039-0.108,0-0.241-0.039-0.341C9.551,3.452,9.407,3.589,9.372,3.481
				C9.328,3.589,9.225,3.473,9.164,3.572C9.107,3.681,9.199,3.859,9.144,3.959C9.085,4.072,8.855,4.097,8.82,4.205
				C8.781,4.317,8.76,4.459,8.76,4.58c0,0.108,0.296,0.216,0.3,0.333c0.005,0.121-0.035,0.233-0.031,0.346
				c0.005,0.112-0.225,0.229-0.221,0.345C8.813,5.72,8.652,5.836,8.656,5.949c0.004,0.112,0.235,0.22,0.235,0.337
				c0.004,0.117-0.11,0.233-0.106,0.341C8.791,6.744,8.82,6.856,8.824,6.973c0.005,0.112,0.02,0.229,0.023,0.345
				c0.004,0.108,0.26,0.217,0.265,0.333c0.004,0.112-0.04,0.229-0.036,0.341c0.005,0.117-0.085,0.233-0.081,0.341
				c0.004,0.117,0.138,0.229,0.142,0.341c0.007,0.112-0.245,0.233-0.241,0.35C8.899,9.133,8.82,9.25,8.824,9.366
				c0.005,0.113,0.071,0.225,0.075,0.337s0.1,0.229,0.1,0.337c0.005,0.117-0.151,0.237-0.147,0.35
				c0.004,0.113,0.029,0.225,0.033,0.341c0.007,0.108,0.148,0.217,0.152,0.333c0.006,0.117-0.189,0.237-0.186,0.35
				c0.004,0.117,0.152,0.225,0.156,0.342c0.004,0.108,0.147,0.216,0.152,0.337c0.004,0.112-0.296,0.237-0.292,0.354
				c0.004,0.108,0.217,0.216,0.221,0.333c0.007,0.112-0.189,0.233-0.186,0.345c0.005,0.112,0.169,0.221,0.169,0.337
				c0.004,0.108,0.096,0.225,0.1,0.337c0.005,0.112,0.036,0.225,0.04,0.337c0.004,0.116-0.116,0.233-0.112,0.341
				c0.004,0.108-0.027,0.225-0.023,0.337c0.005,0.112-0.064,0.225-0.06,0.337c0.004,0.116,0.127,0.225,0.131,0.333
				c0.004,0.116,0.041,0.225,0.048,0.337c0.004,0.112,0.125,0.221,0.129,0.333s-0.276,0.237-0.272,0.346
				c0.004,0.116,0.037,0.229,0.044,0.337c0.004,0.112-0.101,0.225-0.097,0.337c0.005,0.116,0.277,0.216,0.281,0.333
				c0.004,0.108-0.104,0.229-0.1,0.337c0.004,0.112-0.064,0.225-0.064,0.337c0.004,0.116,0.191,0.216,0.195,0.333
				c0.004,0.108-0.07,0.225-0.064,0.337c0.004,0.112,0.104,0.221,0.108,0.333s-0.283,0.237-0.283,0.345
				c0.004,0.117,0.252,0.221,0.256,0.333c0.004,0.113-0.125,0.229-0.12,0.341c0.004,0.117,0.112,0.225,0.116,0.333
				c0.004,0.117,0.017,0.229,0.022,0.341c0.005,0.113,0.005,0.225,0.009,0.341c0.004,0.108,0.173,0.217,0.177,0.325
				c0.004,0.117-0.399,0.242-0.396,0.354c0.007,0.112,0.283,0.221,0.283,0.329c0,0.117-0.112,0.233-0.108,0.346
				s0.061,0.221,0.064,0.333s-0.096,0.229-0.092,0.337c0.005,0.117,0.279,0.217,0.283,0.333c0.005,0.113-0.064,0.225-0.061,0.337
				c0.005,0.112-0.087,0.229-0.087,0.337c0.004,0.117-0.169,0.233-0.164,0.346c0.004,0.112-0.031,0.225-0.027,0.337
				c0.004,0.117,0.2,0.217,0.204,0.333c0.004,0.108,0.227,0.217,0.23,0.329c0.005,0.112-0.247,0.233-0.243,0.345
				c0.004,0.117,0.061,0.225,0.064,0.333c0.004,0.117,0.208,0.217,0.215,0.333c0.004,0.108,0,0.212,0.004,0.325
				c0.008,0.108-0.292,0.242-0.283,0.35c0.009,0.108-0.068,0.233-0.057,0.341c0.013,0.108,0.088,0.212,0.101,0.321
				s0.225,0.195,0.239,0.304c0.013,0.108,0.004,0.221,0.017,0.333c0.008,0.108,0.021,0.217,0.031,0.324
				c0.008,0.108,0.12,0.221,0.125,0.329c0.004,0.108-0.313,0.225-0.313,0.337c0,0.117,0.044,0.226,0.048,0.342
				c0.004,0.108,0.256,0.225,0.256,0.337s-0.179,0.225-0.179,0.337c0,0.117-0.164,0.226-0.164,0.333
				c0,0.117,0.139,0.229,0.135,0.342c0,0.112,0.237,0.229,0.237,0.341c0,0.117-0.346,0.217-0.35,0.333
				c-0.006,0.113-0.044,0.226-0.048,0.338c-0.006,0.112,0.285,0.229,0.281,0.345c-0.005,0.108-0.053,0.226-0.053,0.338
				c-0.004,0.112-0.239,0.221-0.239,0.333s0.408,0.237,0.408,0.345c0,0.117-0.189,0.226-0.189,0.338s0.081,0.225,0.077,0.337
				c0,0.116-0.229,0.225-0.229,0.341c0,0.108,0.147,0.226,0.147,0.338s0.037,0.225,0.041,0.337c0,0.116-0.172,0.233-0.172,0.341
				c0,0.117,0.216,0.226,0.216,0.338c0.004,0.112-0.108,0.225-0.104,0.337c0.004,0.116,0.17,0.225,0.175,0.333
				c0.004,0.108-0.353,0.233-0.348,0.346c0.004,0.112,0.029,0.221,0.035,0.337c0.004,0.108,0.36,0.208,0.36,0.324
				c0.004,0.108-0.371,0.233-0.371,0.346c0.005,0.112,0.196,0.217,0.2,0.329c0.004,0.116,0.031,0.225,0.035,0.333
				c0.004,0.116,0.009,0.229,0.009,0.337c0.004,0.112,0.022,0.221,0.026,0.333c0.005,0.112,0.009,0.229,0.013,0.337
				c0.004,0.108,0.112,0.221,0.117,0.333c0.004,0.112-0.173,0.229-0.169,0.342c0.004,0.116-0.009,0.225-0.004,0.333
				c0.004,0.116,0.052,0.225,0.052,0.337c0.004,0.112,0.151,0.217,0.156,0.329c0.004,0.116-0.248,0.232-0.244,0.341
				c0.005,0.117-0.031,0.229-0.024,0.342c0.004,0.112,0.064,0.221,0.068,0.333c0.004,0.116,0.204,0.216,0.208,0.333
				c0.005,0.108-0.164,0.229-0.164,0.341c0.004,0.112,0.188,0.217,0.191,0.329s-0.136,0.229-0.131,0.337
				c0.004,0.117-0.061,0.229-0.057,0.342s0.313,0.212,0.316,0.324s-0.225,0.233-0.221,0.342c0.004,0.116,0.152,0.225,0.156,0.333
				c0.004,0.112-0.16,0.229-0.156,0.341c0.004,0.117,0.277,0.217,0.281,0.325c0.004,0.116-0.129,0.232-0.125,0.345
				c0.004,0.113-0.092,0.226-0.087,0.338c0.004,0.116-0.169,0.232-0.165,0.341c0.004,0.117,0.277,0.221,0.281,0.333
				c0.006,0.112-0.125,0.229-0.121,0.337c0.005,0.113,0.196,0.221,0.2,0.329c0.004,0.117-0.004,0.225,0,0.342
				c0.004,0.112-0.013,0.225-0.009,0.337c0.005,0.112-0.179,0.229-0.179,0.346c0.004,0.108,0.031,0.225,0.031,0.337
				c0.004,0.112-0.121,0.229-0.116,0.346c0.004,0.108,0.137,0.216,0.142,0.333c0.006,0.112,0.074,0.221,0.079,0.333
				c0.004,0.112-0.14,0.232-0.136,0.341c0.004,0.117,0.235,0.217,0.235,0.333C10.215,50.898,10.075,51.107,10.08,51.22z"/>
		</g>
		<g>
			<path d="M21.668,17.629c0-0.112,0.068-0.221,0.068-0.329c0.004-0.116,0.261-0.216,0.269-0.325c0.004-0.108-0.26-0.241-0.252-0.35
				c0.011-0.112,0.188-0.204,0.204-0.312c0.015-0.108-0.029-0.229-0.008-0.337c0.019-0.108,0.019-0.225,0.039-0.337
				c0.027-0.108,0.088-0.208,0.116-0.316c0.031-0.108,0.115-0.2,0.144-0.304c0.036-0.104-0.1-0.275-0.06-0.375
				c0.039-0.1,0.043-0.229,0.087-0.329c0.044-0.104,0.296-0.112,0.344-0.212c0.046-0.1-0.044-0.274,0.008-0.375
				c0.053-0.091,0.309-0.075,0.364-0.175c0.057-0.091-0.035-0.283,0.025-0.375c0.063-0.092,0.039-0.258,0.106-0.341
				c0.068-0.092,0.168-0.163,0.236-0.246c0.075-0.083,0.196-0.129,0.275-0.208c0.072-0.079,0.164-0.154,0.247-0.229
				c0.077-0.079,0.221-0.087,0.305-0.163c0.081-0.071,0.245-0.045,0.333-0.112c0.087-0.066,0.199-0.091,0.291-0.158
				c0.092-0.063,0.156-0.15,0.247-0.208c0.092-0.066,0.188-0.108,0.281-0.167c0.096-0.054,0.188-0.1,0.287-0.154
				c0.096-0.054,0.048-0.396,0.148-0.441c0.1-0.046,0.33,0.188,0.431,0.137c0.1-0.042,0.221-0.025,0.324-0.066
				c0.101-0.042,0.14-0.246,0.244-0.283c0.104-0.033,0.191-0.125,0.295-0.162c0.104-0.029,0.177-0.191,0.281-0.221
				c0.104-0.033,0.23-0.008,0.339-0.033s0.248,0.091,0.356,0.075c0.108-0.025,0.247,0.146,0.359,0.125
				c0.108-0.017,0.204-0.092,0.313-0.108c0.11-0.017,0.171-0.391,0.283-0.399c0.107-0.017,0.243,0.2,0.355,0.191
				c0.108-0.008,0.217-0.046,0.331-0.054c0.108-0.008,0.217-0.087,0.329-0.091c0.107-0.004,0.223,0.029,0.335,0.029
				c0.108,0,0.221,0.054,0.333,0.054c0.11,0,0.227-0.154,0.339-0.154c0.108,0.008,0.188,0.358,0.296,0.366
				c0.104,0.013,0.235-0.17,0.343-0.15c0.104,0.025,0.244-0.091,0.353-0.063c0.104,0.025,0.225,0.025,0.328,0.063
				c0.104,0.033,0.079,0.417,0.184,0.458c0.1,0.042,0.264-0.096,0.364-0.05c0.1,0.042,0.188,0.1,0.287,0.154
				c0.096,0.046,0.229,0.025,0.324,0.079c0.096,0.05,0.25,0.008,0.342,0.066c0.092,0.054,0.008,0.392,0.1,0.45s0.309-0.058,0.392,0
				c0.087,0.066,0.258,0.038,0.341,0.108c0.084,0.066-0.063,0.399,0.017,0.474c0.084,0.075,0.221,0.075,0.296,0.15
				c0.079,0.079,0.162,0.142,0.233,0.225c0.074,0.083,0.083,0.208,0.153,0.299c0.067,0.083,0.121,0.175,0.184,0.262
				c0.059,0.088,0.162,0.146,0.217,0.237c0.066,0.092,0.133,0.175,0.191,0.271c0.054,0.096,0.091,0.196,0.146,0.292
				c0.054,0.096,0.291,0.1,0.337,0.2c0.05,0.1,0.059,0.221,0.1,0.321c0.042,0.1,0.134,0.191,0.171,0.292
				c0.037,0.104,0.112,0.2,0.146,0.304c0.038,0.104-0.283,0.312-0.254,0.42c0.029,0.104,0.3,0.15,0.325,0.258
				c0.029,0.108,0.037,0.221,0.054,0.325c0.025,0.108-0.1,0.237-0.087,0.35c0.017,0.108,0.179,0.196,0.187,0.308
				c0.017,0.108-0.05,0.225-0.041,0.333c0.008,0.108,0.216,0.212,0.216,0.321c0.009,0.108-0.158,0.225-0.158,0.333
				c0,0.113-0.074,0.221-0.079,0.337c-0.004,0.108,0.184,0.237,0.176,0.346c-0.013,0.112-0.113,0.216-0.13,0.324
				c-0.008,0.113-0.158,0.204-0.175,0.313c-0.017,0.108-0.05,0.216-0.079,0.325c-0.021,0.108,0.163,0.266,0.138,0.375
				c-0.029,0.108-0.208,0.175-0.245,0.283c-0.038,0.108,0.004,0.241-0.029,0.341c-0.042,0.108-0.316,0.116-0.354,0.216
				c-0.045,0.108,0.279,0.371,0.229,0.47c-0.046,0.1-0.475,0.013-0.524,0.108c-0.05,0.1-0.013,0.237-0.066,0.337
				c-0.059,0.092,0.058,0.3,0,0.392c-0.063,0.091-0.292,0.071-0.358,0.162c-0.066,0.092-0.133,0.175-0.204,0.262
				c-0.07,0.083,0.017,0.308-0.054,0.391c-0.075,0.083-0.254,0.067-0.333,0.146c-0.075,0.079-0.05,0.271-0.134,0.345
				c-0.083,0.071-0.278,0.017-0.366,0.092c-0.083,0.071-0.208,0.091-0.291,0.162c-0.092,0.071-0.025,0.354-0.116,0.417
				c-0.092,0.063-0.175,0.146-0.275,0.204c-0.091,0.058-0.266-0.009-0.366,0.05c-0.096,0.054-0.304-0.1-0.403-0.046
				c-0.101,0.054-0.184,0.112-0.283,0.162c-0.1,0.05-0.136,0.233-0.239,0.283c-0.1,0.042-0.129,0.267-0.233,0.308
				c-0.104,0.042-0.278-0.108-0.387-0.071c-0.104,0.033-0.244-0.038-0.348,0c-0.104,0.033-0.144,0.295-0.252,0.325
				s-0.221,0.046-0.329,0.071c-0.11,0.025-0.214,0.075-0.326,0.091c-0.108,0.025-0.261-0.175-0.369-0.154
				c-0.107,0.021-0.183,0.246-0.295,0.267c-0.108,0.017-0.231-0.038-0.344-0.021c-0.108,0.008-0.212,0.133-0.324,0.142
				c-0.108,0.008-0.239-0.188-0.352-0.179c-0.108,0.013-0.215,0.221-0.327,0.229c-0.112,0-0.229-0.2-0.343-0.2
				c-0.112,0-0.226,0.229-0.338,0.229s-0.243-0.067-0.355-0.083c-0.108-0.017-0.175-0.262-0.287-0.291
				c-0.108-0.029-0.213-0.046-0.32-0.083c-0.104-0.038-0.204-0.079-0.309-0.125c-0.1-0.045-0.199-0.096-0.3-0.154
				c-0.1-0.05-0.191-0.108-0.287-0.171c-0.096-0.058-0.339,0.108-0.431,0.042c-0.094-0.063-0.008-0.387-0.1-0.454
				c-0.09-0.066-0.142-0.179-0.233-0.25c-0.092-0.066-0.396,0.15-0.487,0.079c-0.091-0.071-0.081-0.262-0.172-0.337
				c-0.092-0.066-0.288,0-0.375-0.07c-0.09-0.071,0.031-0.404-0.057-0.475c-0.087-0.071-0.291,0.012-0.372-0.063
				c-0.083-0.075-0.243-0.071-0.322-0.146c-0.077-0.079-0.182-0.142-0.257-0.221c-0.072-0.083,0.123-0.404,0.053-0.487
				c-0.069-0.079-0.117-0.17-0.186-0.262c-0.066-0.083-0.188-0.125-0.248-0.216c-0.06-0.092-0.343-0.042-0.399-0.137
				c-0.056-0.096,0.129-0.325,0.077-0.42s-0.221-0.133-0.269-0.233c-0.044-0.1,0.069-0.262,0.031-0.366
				c-0.039-0.104-0.035-0.208-0.066-0.316c-0.033-0.104-0.276-0.142-0.304-0.25c-0.025-0.108-0.061-0.216-0.081-0.325
				c-0.023-0.108-0.231-0.191-0.248-0.3c-0.019-0.108,0.396-0.266,0.381-0.375c-0.008-0.108-0.138-0.208-0.142-0.316
				c-0.006-0.108-0.3-0.216-0.3-0.329C21.633,17.85,21.664,17.737,21.668,17.629z M29,23.814c0.112-0.004,0.216,0.059,0.33,0.046
				c0.113-0.008,0.252,0.237,0.36,0.225c0.112-0.012,0.189-0.299,0.3-0.316c0.112-0.017,0.248,0.129,0.356,0.112
				c0.112-0.021,0.208-0.1,0.315-0.129c0.113-0.017,0.213-0.07,0.321-0.1c0.107-0.025,0.227-0.017,0.335-0.05
				c0.108-0.029,0.235-0.013,0.339-0.05c0.108-0.033,0.147-0.246,0.252-0.287c0.104-0.038,0.186-0.121,0.285-0.167
				c0.104-0.046,0.3,0.112,0.399,0.063c0.1-0.054,0.123-0.25,0.219-0.3c0.1-0.058,0.313,0.083,0.403,0.025
				c0.094-0.058,0.086-0.274,0.178-0.341c0.091-0.063,0.107-0.216,0.195-0.287c0.087-0.071,0.188-0.112,0.271-0.183
				c0.092-0.075,0.208-0.1,0.283-0.179c0.083-0.075,0.166-0.146,0.241-0.229c0.075-0.083,0.212-0.108,0.283-0.196
				c0.074-0.087,0.245-0.1,0.308-0.191c0.066-0.092,0.184-0.158,0.241-0.25c0.059-0.1,0.096-0.216,0.15-0.316
				c0.059-0.091,0.125-0.191,0.175-0.291c0.054-0.1,0.108-0.208,0.154-0.308c0.045-0.108-0.213-0.333-0.175-0.437
				c0.037-0.104,0.361-0.104,0.403-0.212c0.033-0.104,0.133-0.204,0.158-0.312c0.033-0.108-0.116-0.262-0.088-0.371
				c0.025-0.108-0.012-0.233,0.009-0.341s-0.096-0.233-0.083-0.35c0.013-0.108,0.074-0.208,0.083-0.316
				c0.008-0.117,0.162-0.216,0.171-0.325c0-0.112,0.199-0.225,0.199-0.337s-0.058-0.229-0.066-0.346
				c-0.004-0.108-0.37-0.2-0.383-0.308c-0.009-0.116,0.204-0.246,0.191-0.358c-0.013-0.117-0.05-0.216-0.075-0.325
				c-0.017-0.108-0.112-0.208-0.133-0.308c-0.025-0.108-0.013-0.225-0.042-0.333c-0.033-0.108-0.017-0.229-0.05-0.333
				c-0.033-0.104-0.221-0.15-0.258-0.25c-0.046-0.108,0.225-0.35,0.175-0.45c-0.046-0.1-0.274-0.112-0.329-0.208
				c-0.054-0.096-0.229-0.117-0.291-0.208c-0.063-0.092-0.146-0.158-0.213-0.25c-0.066-0.091,0.158-0.408,0.088-0.491
				c-0.07-0.083-0.287-0.05-0.366-0.133c-0.079-0.075-0.142-0.175-0.225-0.246c-0.084-0.075-0.221-0.087-0.304-0.158
				c-0.088-0.071-0.242-0.038-0.333-0.104c-0.084-0.067,0.008-0.4-0.084-0.458c-0.091-0.063-0.308,0.075-0.403,0.017
				s-0.248,0.004-0.348-0.05c-0.096-0.046-0.048-0.408-0.147-0.454c-0.101-0.046-0.244,0-0.348-0.046
				c-0.104-0.038-0.217-0.058-0.32-0.1c-0.104-0.033-0.188-0.142-0.296-0.175c-0.104-0.025-0.212-0.075-0.322-0.108
				c-0.108-0.025-0.229-0.008-0.338-0.034c-0.114-0.025-0.23-0.033-0.343-0.05c-0.112-0.025-0.228-0.054-0.34-0.071
				s-0.251,0.183-0.364,0.175c-0.112-0.012-0.22-0.058-0.335-0.063c-0.112-0.004-0.225,0.042-0.337,0.05
				c-0.114,0-0.219,0.042-0.331,0.05s-0.256-0.346-0.368-0.333s-0.195,0.275-0.308,0.3c-0.114,0.017-0.223,0.029-0.335,0.05
				c-0.112,0.025-0.256-0.083-0.369-0.054c-0.107,0.029-0.175,0.208-0.282,0.246c-0.108,0.033-0.239,0.008-0.344,0.05
				c-0.104,0.042-0.125,0.267-0.229,0.316c-0.104,0.05-0.275-0.05-0.375,0c-0.1,0.05-0.233,0.05-0.333,0.104
				c-0.096,0.054-0.088,0.279-0.184,0.346c-0.096,0.058-0.234,0.046-0.328,0.117c-0.092,0.063-0.263,0.029-0.352,0.1
				c-0.088,0.071-0.188,0.138-0.275,0.208c-0.087,0.075-0.017,0.316-0.1,0.399c-0.081,0.075-0.272,0.042-0.352,0.125
				c-0.077,0.083-0.101,0.216-0.173,0.299c-0.075,0.083-0.344,0.013-0.412,0.1c-0.075,0.083,0.173,0.42,0.104,0.512
				c-0.07,0.087-0.47-0.071-0.534,0.017c-0.064,0.091-0.044,0.246-0.101,0.345c-0.06,0.092,0.065,0.3,0.009,0.391
				c-0.057,0.096-0.281,0.1-0.333,0.196c-0.052,0.1-0.104,0.204-0.147,0.304c-0.048,0.1,0.104,0.288,0.064,0.387
				c-0.04,0.104-0.208,0.163-0.244,0.262c-0.033,0.108,0.084,0.254,0.053,0.362c-0.029,0.108-0.217,0.175-0.237,0.283
				c-0.023,0.108-0.106,0.212-0.119,0.32c-0.017,0.108,0.239,0.25,0.231,0.358c-0.009,0.108,0.004,0.212,0.004,0.321
				c-0.004,0.108-0.151,0.216-0.147,0.324c0.004,0.108-0.221,0.237-0.213,0.354c0.009,0.108,0.044,0.225,0.061,0.337
				c0.017,0.108,0.188,0.195,0.213,0.304c0.022,0.108,0.243,0.167,0.269,0.274c0.03,0.1-0.134,0.267-0.101,0.375
				c0.035,0.1-0.029,0.246,0.011,0.35c0.037,0.104,0.304,0.116,0.348,0.216c0.041,0.1,0.072,0.204,0.12,0.304
				c0.048,0.1,0.117,0.183,0.169,0.279c0.052,0.1-0.085,0.304-0.029,0.392c0.057,0.1,0.3,0.075,0.356,0.167
				c0.06,0.091,0.064,0.216,0.129,0.308c0.066,0.091,0.219,0.108,0.287,0.191c0.068,0.087-0.017,0.299,0.056,0.383
				c0.075,0.083,0.3,0.017,0.379,0.092c0.077,0.075,0.013,0.304,0.094,0.375c0.083,0.075,0.314-0.033,0.396,0.033
				c0.088,0.066,0.136,0.167,0.227,0.233c0.092,0.067,0.057,0.308,0.148,0.371c0.091,0.054,0.204,0.096,0.3,0.154
				c0.096,0.05,0.199,0.1,0.299,0.146c0.101,0.046,0.204,0.091,0.305,0.133c0.1,0.045,0.203,0.091,0.308,0.129
				s0.291-0.183,0.396-0.154c0.104,0.029,0.121,0.371,0.229,0.396c0.104,0.025,0.204,0.112,0.313,0.133
				c0.108,0.025,0.279-0.304,0.387-0.283c0.108,0.017,0.191,0.183,0.3,0.2c0.108,0.008,0.229-0.15,0.344-0.142
				C28.796,23.802,28.892,23.81,29,23.814z"/>
		</g>
	</g>
</g>
</svg>
