<?xml version="1.0" encoding="utf-8"?>
<!-- Generator: Adobe Illustrator 16.0.0, SVG Export Plug-In . SVG Version: 6.00 Build 0)  -->
<!DOCTYPE svg PUBLIC "-//W3C//DTD SVG 1.1//EN" "http://www.w3.org/Graphics/SVG/1.1/DTD/svg11.dtd">
<svg version="1.1" id="圖層_1" xmlns="http://www.w3.org/2000/svg" xmlns:xlink="http://www.w3.org/1999/xlink" x="0px" y="0px"
	 width="55px" height="55px" viewBox="0 0 55 55" enable-background="new 0 0 55 55" xml:space="preserve">
<g>
	<path d="M26.021,2.153c10.771,0.019,19.944,6.206,23.861,15.891c0.43,1.049,0.077,2.04-0.868,2.422
		c-0.944,0.391-1.897-0.057-2.334-1.106c-2.271-5.5-6.084-9.542-11.536-11.917C22.922,2.115,8.87,8.826,5.267,21.657
		c-3.47,12.337,4.595,25.168,17.227,27.399c10.237,1.812,20.106-3.595,24.11-13.213c0.305-0.734,0.715-1.317,1.563-1.402
		c1.344-0.144,2.278,1.115,1.773,2.402c-0.715,1.821-1.611,3.546-2.746,5.138c-4.7,6.569-11.085,10.239-19.142,10.803
		C15.048,53.7,3.532,44.536,1.349,31.647C-0.625,19.989,5.943,8.358,16.964,3.954C19.977,2.772,23.103,2.19,26.021,2.153
		L26.021,2.153z"/>
	<path d="M23.084,29.255c0.219,0.229,0.343,0.373,0.467,0.496l5.71,5.71c0.524,0.525,0.686,1.144,0.447,1.849
		c-0.229,0.668-0.725,1.039-1.41,1.146c-0.649,0.094-1.164-0.202-1.611-0.66c-2.212-2.221-4.443-4.441-6.664-6.662
		c-0.781-0.782-1.573-1.555-2.345-2.336c-0.754-0.762-0.754-1.821,0-2.583c3.012-3.013,6.034-6.016,9.046-9.028
		c0.439-0.438,0.945-0.705,1.574-0.61c0.685,0.105,1.172,0.486,1.4,1.153c0.22,0.658,0.095,1.268-0.391,1.773
		c-0.667,0.696-1.362,1.372-2.05,2.049c-1.362,1.364-2.735,2.727-4.232,4.224h28.867c0.286,0,0.591,0.009,0.866,0.085
		c0.735,0.191,1.24,0.895,1.24,1.659c0,0.763-0.514,1.458-1.259,1.64c-0.276,0.067-0.581,0.077-0.867,0.086H23.875
		c-0.21,0-0.429,0-0.792,0V29.255z"/>
</g>
<g>
</g>
<g>
</g>
<g>
</g>
<g>
</g>
<g>
</g>
<g>
</g>
<g>
</g>
<g>
</g>
<g>
</g>
<g>
</g>
<g>
</g>
<g>
</g>
<g>
</g>
<g>
</g>
<g>
</g>
</svg>
