<?xml version="1.0" encoding="utf-8"?>
<!-- Generator: Adobe Illustrator 16.0.0, SVG Export Plug-In . SVG Version: 6.00 Build 0)  -->
<!DOCTYPE svg PUBLIC "-//W3C//DTD SVG 1.1//EN" "http://www.w3.org/Graphics/SVG/1.1/DTD/svg11.dtd">
<svg version="1.1" id="圖層_1" xmlns="http://www.w3.org/2000/svg" xmlns:xlink="http://www.w3.org/1999/xlink" x="0px" y="0px"
	 width="55px" height="55px" viewBox="0 0 55 55" enable-background="new 0 0 55 55" xml:space="preserve">
<g>
	<path d="M27.473,35.998c-1.07,0-2.149,0.044-3.219-0.008c-1.043-0.053-1.933,0.265-2.679,0.936
		c-0.873,0.787-1.709,1.617-2.536,2.458c-1.188,1.185-2.312,2.432-3.534,3.579c-0.702,0.654-1.512,1.212-2.348,1.705
		c-1.69,1.009-3.471,1.087-5.278,0.311c-2.626-1.133-4.541-2.899-5.224-5.735c-0.126-0.504-0.163-1.043-0.153-1.574
		c0.089-4.437,0.458-8.848,1.133-13.231c0.35-2.245,0.638-4.507,1.196-6.699c1.349-5.33,6.42-8.768,11.969-8.167
		c1.062,0.115,2.131,0.478,3.111,0.911c2.069,0.902,4.19,1.344,6.447,1.255c0.909-0.035,1.826-0.027,2.734,0
		c2.005,0.053,3.912-0.318,5.728-1.157c1.602-0.734,3.256-1.176,5.046-1.061c4.981,0.318,9.001,3.429,10.277,8.167
		c0.549,2.033,0.827,4.136,1.151,6.222c0.702,4.525,1.124,9.077,1.205,13.656c0.081,3.978-3.345,7.618-7.392,7.908
		c-1.582,0.116-2.977-0.422-4.154-1.377c-1.376-1.115-2.645-2.359-3.921-3.589c-0.936-0.91-1.808-1.892-2.725-2.819
		c-0.342-0.345-0.72-0.645-1.106-0.945c-0.674-0.521-1.43-0.778-2.311-0.751C29.757,36.024,28.615,35.998,27.473,35.998
		L27.473,35.998z M14.407,21.326c-0.936,0-1.799-0.009-2.652,0c-1.143,0.019-2.006,0.832-2.042,1.9
		c-0.036,1.149,0.773,2.016,1.97,2.068c0.701,0.035,1.402,0.009,2.095,0.018c0.206,0,0.404,0.017,0.629,0.026
		c0,0.938-0.018,1.821,0.009,2.697c0.026,1.025,0.854,1.82,1.907,1.89c0.998,0.071,1.96-0.635,2.094-1.625
		c0.09-0.706,0.055-1.431,0.063-2.157c0.009-0.265,0-0.53,0-0.839h0.657c0.747-0.009,1.501,0.026,2.248-0.035
		c1.187-0.089,1.996-1.229,1.744-2.37c-0.207-0.937-0.962-1.563-1.942-1.582c-0.89-0.017-1.78,0-2.707,0
		c0-0.901,0.018-1.732,0-2.563c-0.027-1.229-0.908-2.086-2.087-2.06c-1.16,0.026-1.969,0.893-1.978,2.112
		C14.398,19.638,14.407,20.451,14.407,21.326L14.407,21.326z M40.404,27.089c-0.009-1.573-1.295-2.837-2.896-2.828
		c-1.582,0.008-2.887,1.298-2.878,2.855c0.009,1.555,1.321,2.837,2.905,2.827C39.145,29.934,40.413,28.67,40.404,27.089z
		 M42.355,16.712c-1.601-0.009-2.896,1.246-2.913,2.811c-0.019,1.546,1.286,2.846,2.868,2.863c1.573,0.019,2.896-1.264,2.905-2.828
		C45.242,17.994,43.956,16.712,42.355,16.712z"/>
</g>
<g>
</g>
<g>
</g>
<g>
</g>
<g>
</g>
<g>
</g>
<g>
</g>
<g>
</g>
<g>
</g>
<g>
</g>
<g>
</g>
<g>
</g>
<g>
</g>
<g>
</g>
<g>
</g>
<g>
</g>
</svg>
