<?xml version="1.0" encoding="utf-8"?>
<!-- Generator: Adobe Illustrator 16.0.0, SVG Export Plug-In . SVG Version: 6.00 Build 0)  -->
<!DOCTYPE svg PUBLIC "-//W3C//DTD SVG 1.1//EN" "http://www.w3.org/Graphics/SVG/1.1/DTD/svg11.dtd">
<svg version="1.1" id="圖層_1" xmlns="http://www.w3.org/2000/svg" xmlns:xlink="http://www.w3.org/1999/xlink" x="0px" y="0px"
	 width="55px" height="55px" viewBox="0 0 55 55" enable-background="new 0 0 55 55" xml:space="preserve">
<g>
	<path d="M21.563,38.779c-0.088,0.01-0.302-0.039-0.39-0.034c-0.088,0.005-0.17,0.034-0.253,0.044
		c-0.087,0.005-0.175,0.049-0.258,0.059c-0.083,0.01-0.151,0.277-0.239,0.282c-0.088,0.01-0.195-0.272-0.282-0.268
		c-0.088,0.005-0.166,0.093-0.253,0.103c-0.083,0.005-0.078-0.078-0.161-0.068c-0.034-0.083-0.034,0.02-0.068-0.059
		c0.073-0.049,0.122-0.02,0.2-0.073c0.073-0.054,0.068-0.209,0.146-0.258c0.078-0.049,0.142-0.103,0.224-0.127
		c0.088-0.024,0.205,0.049,0.292,0.02c0.088-0.02,0.137-0.189,0.224-0.214c0.088-0.029,0.185-0.01,0.273-0.034
		c0.087-0.024,0.136-0.205,0.224-0.229c0.088-0.02,0.224,0.146,0.312,0.126c0.092-0.024,0.185-0.01,0.277-0.029
		c0.093-0.02,0.126-0.238,0.214-0.263c0.092-0.02,0.209,0.088,0.297,0.063c0.093-0.024,0.185-0.02,0.273-0.044
		c0.087-0.029,0.166-0.088,0.248-0.112c0.088-0.024,0.142-0.18,0.229-0.199c0.083-0.029,0.253,0.214,0.341,0.194
		c0.088-0.029,0.068-0.351,0.151-0.395c0.083-0.043,0.161-0.067,0.244-0.121c0.083-0.049,0.166-0.088,0.249-0.146
		c0.078-0.049,0.068-0.034,0.146-0.083c-0.059-0.082,0.151-0.229,0.087-0.307c-0.058-0.078-0.253-0.059-0.312-0.136
		c-0.059-0.078,0.01-0.264-0.059-0.341c-0.058-0.078-0.185-0.112-0.248-0.195c-0.054-0.059-0.063-0.165-0.122-0.229
		c-0.053-0.063-0.253-0.005-0.307-0.073c-0.054-0.059-0.102-0.137-0.156-0.204c-0.049-0.068-0.005-0.205-0.054-0.273
		c-0.048-0.068-0.146-0.106-0.19-0.185c-0.043-0.068-0.083-0.205-0.131-0.282c-0.078,0.048-0.175,0.155-0.253,0.204
		c-0.078,0.049-0.233-0.02-0.312,0.034c-0.078,0.049-0.102,0.18-0.175,0.238c-0.078,0.049-0.122,0.156-0.2,0.205
		c-0.078,0.049-0.092,0.204-0.17,0.253c-0.078,0.049-0.185,0.049-0.268,0.098c-0.078,0.049-0.117,0.165-0.19,0.214
		c-0.083,0.049-0.156,0.103-0.234,0.156c-0.073,0.049-0.234-0.02-0.307,0.029c-0.073,0.048-0.19,0.029-0.273,0.067
		c-0.097,0.044-0.199,0.303-0.277,0.283c-0.093-0.029-0.156-0.137-0.244-0.161c-0.092-0.024-0.166-0.107-0.253-0.132
		c-0.088-0.024-0.127-0.214-0.214-0.233c-0.088-0.029-0.205,0.044-0.292,0.02c-0.088-0.029-0.205,0.049-0.292,0.02
		c-0.087-0.024-0.141-0.176-0.224-0.204c-0.092-0.024-0.199,0.019-0.287-0.01c-0.083-0.02-0.19,0-0.277-0.024
		c-0.088-0.024-0.18-0.044-0.268-0.068c-0.083-0.024-0.131-0.2-0.219-0.229c-0.092-0.019-0.253,0.205-0.341,0.176
		c-0.087-0.02-0.141-0.166-0.229-0.189c-0.093-0.024-0.161-0.132-0.258-0.151c-0.092-0.02-0.2,0.01-0.292-0.01
		c-0.098-0.02-0.156-0.186-0.253-0.204c-0.092-0.02-0.234,0.175-0.326,0.155c-0.093-0.02-0.18-0.063-0.278-0.088
		c-0.087-0.024-0.156-0.16-0.243-0.185c-0.098-0.024-0.234,0.083-0.321,0.049c-0.083-0.029-0.166-0.078-0.244-0.107
		c-0.088-0.034-0.078-0.282-0.161-0.321c-0.083-0.039-0.278,0.194-0.355,0.156c-0.083-0.034-0.126-0.156-0.205-0.195
		c-0.083-0.039-0.136-0.137-0.214-0.175c-0.078-0.039-0.185-0.02-0.263-0.059c-0.083-0.044-0.098-0.22-0.175-0.259
		c-0.083-0.038-0.185-0.043-0.263-0.082c-0.078-0.039-0.307-0.117-0.39-0.151c0,0.103-0.039,0.302-0.048,0.385
		c-0.01,0.098-0.049,0.146-0.078,0.224c-0.039,0.088-0.068,0.112-0.126,0.176c-0.063,0.068,0.005,0.272-0.073,0.321
		c-0.073,0.044-0.239-0.107-0.321-0.078c-0.083,0.029-0.102,0.272-0.19,0.302c-0.088,0.024-0.175,0.039-0.263,0.068
		c-0.087,0.024-0.166,0.059-0.248,0.093c-0.083,0.034-0.103,0.142-0.175,0.189c-0.073,0.049-0.39-0.01-0.453,0.059
		c0.083,0.078,0.39,0.049,0.468,0.117c0.087,0.083,0.107,0.224,0.175,0.287c0.107-0.005,0.112,0,0.117-0.015
		c0.049-0.088,0.234-0.073,0.278-0.137c0.058-0.087,0-0.243,0.058-0.292c0.078-0.067,0.166-0.116,0.244-0.131
		c0.092-0.015,0.122,0.16,0.205,0.199c0.073,0.034,0.102,0.078,0.17,0.137c0.068,0.059,0.117,0.106,0.18,0.175
		c0.063,0.063,0.238,0.015,0.302,0.073c0.073,0.073,0.175,0.068,0.239,0.103c0.078,0.039,0.136,0.126,0.214,0.175
		c0.078,0.039,0.146,0.107,0.224,0.156c0.078,0.044,0.175,0.054,0.253,0.103c0.078,0.043,0.185,0.043,0.263,0.092
		c0.078,0.049,0.127,0.146,0.205,0.195c0.078,0.044,0.156,0.078,0.239,0.126c0.073,0.049,0.161,0.088,0.239,0.137
		c0.073,0.049,0.043,0.258,0.117,0.312c0.078,0.049,0.244-0.039,0.316,0.01c0.073,0.049,0.122,0.146,0.2,0.195
		c0.073,0.048,0.156,0.097,0.229,0.146c0.073,0.049,0.19,0.039,0.268,0.098c0.078,0.049,0.107,0.17,0.18,0.219
		c0.073,0.054,0.103,0.176,0.175,0.229c0.073,0.048,0.234-0.024,0.307,0.029c0.078,0.048,0.18,0.058,0.253,0.111
		c0.078,0.054,0.166,0.083,0.244,0.132c0.078,0.049-0.039,0.282,0.01,0.375c0.039,0.078,0.087,0.15,0.126,0.238
		c0.034,0.088,0.253,0.21,0.297,0.287c-0.092-0.024-0.282-0.063-0.385-0.072c-0.097-0.01-0.156-0.239-0.243-0.264
		c-0.103-0.02-0.321,0.234-0.399,0.186c-0.078-0.054-0.126-0.146-0.205-0.195c-0.073-0.049-0.078-0.204-0.156-0.263
		c-0.078-0.049-0.117-0.146-0.195-0.204c-0.073-0.049-0.272,0.077-0.351,0.029c-0.078-0.054-0.039-0.264-0.117-0.317
		c-0.073-0.053-0.195-0.033-0.273-0.082c-0.073-0.054-0.136-0.127-0.209-0.186c-0.073-0.049-0.063-0.233-0.137-0.282
		c-0.073-0.059-0.297,0.107-0.375,0.059c-0.078-0.054-0.166-0.093-0.238-0.146c-0.073-0.054,0.005-0.321-0.073-0.38
		c-0.073-0.049-0.234,0.02-0.312-0.029c-0.073-0.053-0.156-0.087-0.234-0.146c-0.078-0.049-0.107-0.171-0.18-0.22
		c-0.073-0.053-0.112-0.16-0.19-0.219c-0.073-0.049-0.229-0.073-0.302-0.127c-0.059,0.083-0.156,0.239-0.214,0.316
		c0.078,0.054,0.224,0.068,0.292,0.122c0.078,0.054,0.034,0.263,0.107,0.321c0.078,0.049,0.166,0.083,0.239,0.137
		c0.073,0.059,0.199,0.039,0.268,0.088c0.078,0.058,0.112,0.155,0.185,0.214c0.078,0.049,0.209,0.02,0.282,0.073
		c0.078,0.054,0.214,0.005,0.292,0.063c0.073,0.048,0.029,0.263,0.102,0.321c0.073,0.049,0.17,0.068,0.249,0.116
		c0.073,0.059,0.195,0.039,0.272,0.088c0.073,0.059,0.166,0.078,0.239,0.137c0.073,0.049,0.015,0.292,0.087,0.346
		c0.073,0.054,0.317-0.132,0.39-0.083c0.073,0.054-0.024,0.346,0.054,0.399c0.073,0.054,0.292-0.103,0.365-0.049
		c0.073,0.059,0.059,0.233,0.131,0.282c0.078,0.059,0.283-0.083,0.36-0.029c0.078,0.054,0.151,0.098,0.224,0.151
		c0.078,0.054,0.078,0.209,0.146,0.258c0.078,0.049,0.049,0.146,0.122,0.2c-0.073,0.106-0.073,0.229-0.141,0.336
		c-0.092-0.029-0.205,0.005-0.297-0.024c-0.083-0.034-0.18-0.054-0.268-0.083c-0.087-0.034-0.073-0.312-0.156-0.351
		c-0.087-0.029-0.272,0.146-0.351,0.107c-0.087-0.039-0.136-0.156-0.219-0.195c-0.083-0.044-0.097-0.209-0.18-0.253
		c-0.078-0.049-0.2-0.02-0.283-0.063c-0.078-0.049-0.166-0.083-0.244-0.132c-0.078-0.048-0.097-0.185-0.18-0.233
		c-0.078-0.049-0.185-0.049-0.258-0.103c-0.078-0.048-0.209-0.024-0.283-0.072c-0.078-0.059-0.175-0.078-0.253-0.132
		c-0.073-0.054-0.063-0.229-0.136-0.277c-0.078-0.059-0.175-0.073-0.253-0.127c-0.073-0.054-0.244,0.024-0.321-0.029
		c-0.073-0.054-0.093-0.18-0.166-0.233c-0.078-0.054-0.17-0.088-0.244-0.137c-0.078-0.059-0.224-0.01-0.302-0.063
		c-0.078-0.053,0.005-0.316-0.068-0.375c-0.078-0.053-0.287,0.078-0.36,0.029c-0.078-0.058-0.107-0.175-0.185-0.224
		c-0.073-0.054-0.107-0.166-0.185-0.219c-0.078-0.054-0.126-0.151-0.205-0.2c-0.078-0.049-0.136-0.131-0.214-0.18
		c-0.078-0.054-0.244,0.034-0.322-0.015c-0.078-0.049-0.194-0.039-0.272-0.088s-0.117-0.171-0.195-0.214
		c-0.078-0.049-0.175-0.059-0.258-0.107c-0.083-0.044-0.063-0.282-0.151-0.326c-0.078-0.044-0.204-0.005-0.292-0.044
		c-0.083-0.044-0.209,0.117-0.297,0.078c-0.083,0.02-0.122,0.029-0.214,0.059c-0.088,0.023-0.166,0.053-0.249,0.087
		c-0.087,0.034-0.195,0.01-0.272,0.049c-0.088,0.039-0.17,0.068-0.253,0.107c-0.083,0.039-0.166,0.088-0.243,0.126
		c-0.083,0.039-0.137,0.146-0.214,0.186c-0.088,0.039-0.283-0.176-0.37-0.137c-0.078,0.039-0.126,0.156-0.209,0.19
		s-0.18,0.029-0.268,0.063c-0.088,0.029-0.19-0.01-0.283,0.024c-0.087,0.028-0.161,0.067-0.248,0.092
		c-0.088,0.024-0.103,0.351-0.19,0.37c-0.088,0.02-0.195,0.039-0.283,0.054c-0.087,0.015-0.205-0.199-0.302-0.194
		c-0.088,0.005-0.175,0.097-0.268,0.097c-0.087,0-0.17-0.17-0.258-0.18c-0.093-0.01-0.068,0.083-0.161,0.068
		c0.058-0.078,0.073-0.01,0.141-0.068c0.068-0.068,0.059-0.224,0.131-0.272c0.078-0.049,0.166-0.088,0.249-0.127
		c0.083-0.039,0.122-0.204,0.205-0.233c0.087-0.029,0.253,0.136,0.341,0.111c0.087-0.029,0.097-0.287,0.185-0.321
		c0.087-0.024,0.185-0.015,0.272-0.044c0.088-0.034,0.195,0,0.283-0.039c0.083-0.038,0.166-0.063,0.243-0.106
		c0.078-0.049,0.117-0.146,0.185-0.205c0.068-0.058,0.321,0.049,0.38-0.029c0.059-0.067-0.02-0.253,0.029-0.336
		c-0.098,0.024-0.219-0.053-0.312-0.029c-0.098,0.024-0.146,0.181-0.244,0.205c-0.088,0.029-0.175,0.073-0.263,0.103
		c-0.087,0.029-0.136,0.194-0.224,0.224c-0.093,0.029-0.19,0.039-0.278,0.068c-0.092,0.034-0.209-0.015-0.297,0.015
		c-0.088,0.034-0.253-0.161-0.346-0.132c-0.093,0.029-0.146,0.156-0.239,0.186c-0.092,0.029-0.214-0.039-0.307-0.02
		c-0.093,0.029-0.107,0.302-0.2,0.331c-0.097,0.02-0.18,0.068-0.272,0.087c-0.098,0.029-0.234-0.136-0.322-0.111
		c-0.097,0.024-0.156,0.209-0.243,0.229c-0.098,0.02-0.214-0.117-0.312-0.103c-0.092,0.015-0.185,0.005-0.282,0.015
		c-0.092,0.015-0.185-0.029-0.282-0.02c-0.098,0.005-0.146,0.137-0.244,0.137c0.088-0.049,0.092-0.146,0.175-0.194
		c0.083-0.039,0.253,0.077,0.331,0.038c0.088-0.043,0.156-0.106,0.239-0.146c0.083-0.049,0.097-0.229,0.18-0.268
		c0.078-0.039,0.136-0.137,0.224-0.176c0.083-0.039,0.282,0.171,0.37,0.132c0.087-0.039,0.185-0.049,0.263-0.088
		c0.088-0.039,0.039-0.375,0.126-0.409c0.083-0.039,0.292,0.22,0.38,0.186c0.088-0.039,0.098-0.244,0.185-0.283
		C5.845,35.42,5.913,35.352,6,35.317c0.087-0.034,0.2,0,0.287-0.034c0.083-0.039,0.117-0.204,0.209-0.238
		c0.083-0.034,0.234,0.097,0.321,0.063c0.088-0.028,0.17-0.067,0.258-0.102c0.083-0.034,0.151-0.112,0.238-0.146
		c0.088-0.034,0.195-0.015,0.283-0.044c0.087-0.034,0.136-0.17,0.224-0.204c0.087-0.029,0.253,0.17,0.341,0.136
		c0.087-0.028,0.068-0.38,0.156-0.408c0.092-0.029,0.224,0.077,0.312,0.048c0.093-0.028,0.146-0.146,0.234-0.18
		c0.087-0.029,0.238,0.122,0.321,0.093c0.092-0.029,0.205,0.024,0.292,0c0.088-0.029,0.137-0.195,0.224-0.225
		c0.088-0.029,0.185-0.029,0.273-0.059c0.087-0.023,0.194,0,0.282-0.023c0.087-0.029,0.117-0.259,0.205-0.288
		c0.087-0.029,0.233,0.146,0.326,0.117c0.092-0.029,0.18-0.039,0.268-0.068c0.088-0.029,0.137-0.214,0.219-0.233
		c0.093-0.029,0.112-0.073,0.205-0.103c0.015-0.093-0.054-0.136-0.039-0.229c0.015-0.088,0.132-0.166,0.142-0.253
		c0.009-0.093-0.005-0.19,0.005-0.278c0.014-0.092,0.058-0.18,0.073-0.268c0.015-0.093,0.244-0.146,0.258-0.233
		c0.015-0.088-0.015-0.186,0.005-0.273c0.02-0.087-0.224-0.238-0.2-0.321c0.024-0.097,0.229-0.136,0.258-0.229
		s-0.048-0.229-0.01-0.312c0.044-0.093,0.302-0.024,0.36-0.093c0.059-0.078,0.034-0.185,0.112-0.233
		c0.073-0.049,0.102-0.229,0.2-0.254c0.087-0.019,0.194,0.137,0.297,0.142c0.083,0.005,0.17-0.01,0.272,0.015
		c0.073,0.01,0.229-0.049,0.336-0.117c0.083-0.058,0.107-0.194,0.18-0.277c0.078-0.083,0.316-0.083,0.355-0.165
		c0.039-0.088-0.244-0.298-0.214-0.395c0.024-0.098,0.238-0.146,0.253-0.244c0.015-0.102-0.112-0.204-0.112-0.307
		c0-0.102,0.054-0.194,0.039-0.292c-0.01-0.078-0.039-0.142-0.083-0.219c-0.039-0.068,0.049-0.234,0-0.302
		c-0.054-0.078-0.175-0.098-0.214-0.166c-0.048-0.083-0.229-0.185-0.214-0.263c0.019-0.088,0.194-0.137,0.219-0.224
		c0.02-0.088,0.083-0.166,0.103-0.249c0.029-0.087-0.049-0.2-0.02-0.287c0.024-0.083-0.01-0.185,0.02-0.273
		c0.029-0.087,0.117-0.151,0.146-0.233c0.029-0.088,0.268-0.098,0.292-0.175c0.029-0.088-0.005-0.195,0.029-0.283
		c0.029-0.078-0.078-0.214-0.049-0.297c0.034-0.083,0.068-0.166,0.103-0.249c0.034-0.083-0.005-0.195,0.029-0.277
		c0.034-0.083,0.248-0.093,0.287-0.18c0.039-0.083-0.097-0.263-0.049-0.341c0.049-0.083,0.059-0.185,0.107-0.268
		c0.048-0.078,0.331-0.015,0.385-0.092c0.053-0.083-0.122-0.297-0.068-0.375c0.044-0.073,0.239-0.063,0.287-0.136
		c0.049-0.073,0.078-0.161,0.122-0.239c0.043-0.078,0.2-0.078,0.248-0.156c0.049-0.073-0.126-0.316-0.068-0.385
		c0.058-0.068,0.126-0.151,0.19-0.209c0.073-0.073,0.136-0.131,0.199-0.2c0.068-0.078,0.253-0.044,0.302-0.122
		c0.058-0.088,0.126-0.175,0.151-0.263c0.024-0.097,0.122-0.233,0.107-0.326c-0.015-0.087-0.346-0.073-0.399-0.17
		c-0.039-0.078,0.122-0.282,0.053-0.36c-0.058-0.073-0.102-0.17-0.175-0.243c-0.068-0.068-0.136-0.137-0.205-0.205
		c-0.068-0.068-0.185-0.088-0.253-0.156c-0.068-0.068-0.195-0.073-0.263-0.142c-0.068-0.068,0.01-0.277-0.058-0.346
		c-0.068-0.068-0.127-0.136-0.195-0.205c-0.068-0.068-0.137-0.136-0.205-0.204c-0.068-0.068-0.234-0.039-0.302-0.107
		c-0.063-0.068-0.156-0.112-0.224-0.18c-0.063-0.068-0.195-0.073-0.263-0.151c-0.058-0.068-0.048-0.214-0.112-0.282
		c-0.063-0.068-0.18-0.088-0.249-0.156c-0.063-0.078-0.136-0.131-0.205-0.204c-0.068-0.078-0.024-0.244-0.068-0.322
		c-0.049-0.087-0.244-0.141-0.263-0.233c-0.02-0.093,0.175-0.214,0.195-0.302c0.015-0.097-0.117-0.263-0.068-0.351
		c0.048-0.078,0.117-0.195,0.195-0.263c0.068-0.063,0.175-0.136,0.263-0.19c0.088-0.044,0.239,0.044,0.341,0.015
		c0.088-0.029,0.229,0.107,0.321,0.078c0.088-0.029,0.107-0.272,0.195-0.302c0.088-0.029,0.17-0.078,0.263-0.107
		c0.087-0.034,0.243,0.112,0.331,0.078c0.087-0.029,0.166-0.087,0.253-0.126c0.087-0.029,0.141-0.146,0.224-0.185
		c0.088-0.039,0.219,0.01,0.302-0.029c0.087-0.039,0.097-0.239,0.185-0.277c0.083-0.044,0.263,0.102,0.346,0.053
		c0.083-0.039,0.131-0.156,0.209-0.195c0.088-0.039,0.098-0.253,0.18-0.292c0.093-0.039,0.258,0.146,0.346,0.117
		c0.088-0.029,0.117-0.282,0.205-0.312c0.093-0.024,0.229,0.156,0.322,0.141c0.092-0.014,0.185,0.034,0.282,0.029
		c0.087-0.005,0.175-0.126,0.263-0.126c0.098,0,0.185,0.024,0.283,0.029c0.087,0.01,0.175,0.054,0.263,0.073
		c0.093,0.02,0.146,0.137,0.239,0.166c0.088,0.029,0.17,0.039,0.258,0.073c0.087,0.034,0.156,0.078,0.243,0.122
		c0.078,0.044,0.141,0.098,0.224,0.151c0.078,0.043,0.19,0.034,0.268,0.083c0.073,0.054,0.199,0.024,0.277,0.078
		c0.068,0.048,0.078,0.205,0.146,0.253c0.078,0.049,0.185,0.039,0.263,0.088c0.078,0.048,0.087,0.195,0.166,0.243
		c0.073,0.044,0.268-0.102,0.346-0.058c0.073,0.048,0.122,0.146,0.195,0.195c0.073,0.048,0.185,0.039,0.258,0.083
		c0.078,0.044,0.151,0.098,0.229,0.141c0.083,0.049,0.151,0.098,0.229,0.146c0.073,0.048,0.195,0.019,0.272,0.063
		c0.073,0.049,0.068,0.224,0.146,0.268c0.088,0.053,0.137,0.131,0.195,0.185c0.078,0.068,0.078,0.156,0.117,0.224
		c0.058,0.088,0.029,0.117,0.039,0.205c0.01,0.088,0.156,0.161,0.117,0.253c-0.039,0.078-0.068,0.161-0.136,0.243
		c-0.054,0.059-0.176,0.059-0.253,0.122c-0.068,0.058-0.029,0.233-0.098,0.297c-0.068,0.054-0.083,0.175-0.146,0.234
		c-0.068,0.053-0.238-0.01-0.307,0.049c-0.068,0.058-0.151,0.097-0.219,0.156c-0.063,0.053-0.122,0.126-0.19,0.185
		c-0.068,0.058-0.068,0.195-0.131,0.248c-0.068,0.059-0.297-0.073-0.36-0.015c-0.068,0.054-0.078,0.18-0.146,0.239
		c-0.068,0.054-0.185,0.054-0.253,0.112c-0.068,0.059-0.117,0.137-0.185,0.195c-0.068,0.054-0.029,0.244-0.097,0.292
		c-0.063,0.058-0.312-0.02-0.37,0.068c-0.049,0.068-0.049,0.209-0.097,0.302c-0.039,0.078,0.058,0.233,0.019,0.331
		c-0.034,0.083-0.282,0.097-0.312,0.19c-0.034,0.092,0.244,0.277,0.214,0.37c-0.02,0.092-0.278,0.131-0.292,0.229
		c-0.02,0.093,0.117,0.214,0.107,0.302c-0.01,0.107-0.185,0.195-0.185,0.287c0,0.102,0.214,0.18,0.234,0.268
		c0.02,0.107-0.103,0.258-0.059,0.331c0.054,0.068,0.195,0.136,0.312,0.185c0.098,0.039,0.249-0.166,0.351-0.156
		c0.122,0.02,0.244,0.239,0.322,0.205c0.087-0.039,0.097-0.253,0.185-0.282c0.088-0.029,0.166-0.098,0.253-0.126
		c0.083-0.029,0.214,0.078,0.302,0.058c0.083-0.029,0.205,0.073,0.288,0.059c0.092-0.024,0.161-0.117,0.248-0.131
		c0.088-0.02,0.195,0.063,0.283,0.043c0.083-0.01,0.166-0.063,0.258-0.078c0.093-0.01,0.18-0.02,0.268-0.024
		c0.087-0.01,0.18-0.015,0.272-0.029c0.088-0.01,0.175-0.01,0.268-0.015c0.087-0.01,0.18-0.039,0.268-0.048
		c0.088-0.005,0.175-0.068,0.263-0.078c0.092-0.005,0.185,0.005,0.272,0c0.093-0.01,0.195,0.088,0.283,0.073
		c0.092-0.01,0.166-0.161,0.253-0.175c0.098-0.015,0.166-0.2,0.253-0.214c0.097-0.015,0.224,0.209,0.321,0.19
		c0.088-0.01,0.175-0.078,0.268-0.088c0.092-0.02,0.161-0.2,0.253-0.214c0.093-0.015,0.205,0.078,0.297,0.068
		c0.092-0.02,0.219,0.146,0.312,0.136c0.092-0.02,0.136-0.312,0.229-0.326c0.093-0.015,0.219,0.146,0.307,0.131
		c0.092-0.01,0.175-0.087,0.272-0.097c0.093-0.02,0.195,0.02,0.283,0c0.097-0.02,0.156-0.205,0.253-0.224
		c0.088-0.015,0.224,0.224,0.321,0.214c0.093-0.02,0.132-0.341,0.225-0.36c0.092-0.01,0.233,0.277,0.331,0.263
		c0.092-0.009,0.141-0.292,0.233-0.302c0.098-0.015,0.194-0.01,0.282-0.02c0.098-0.02,0.215,0.132,0.307,0.117
		c0.093-0.01,0.127-0.205,0.2-0.229c0.093-0.024,0.165-0.005,0.224-0.054c0.073-0.054,0.248-0.02,0.287-0.092
		c0.034-0.068,0.132-0.17,0.142-0.263c0.01-0.073-0.142-0.18-0.146-0.277c0-0.088-0.048-0.175-0.058-0.273
		c-0.005-0.087,0.175-0.195,0.17-0.287c-0.005-0.093-0.297-0.161-0.302-0.258c-0.005-0.087,0.165-0.195,0.16-0.282
		c-0.01-0.098-0.224-0.175-0.229-0.268c-0.005-0.092,0.181-0.19,0.171-0.287c0-0.092-0.049-0.18-0.049-0.272
		c0-0.098,0.175-0.18,0.175-0.273c0.005-0.097-0.209-0.195-0.204-0.282c0.005-0.088-0.063-0.185-0.049-0.273
		c0.01-0.087,0.263-0.136,0.282-0.214c0.015-0.087-0.078-0.195-0.054-0.282c0.024-0.083,0.161-0.122,0.19-0.195
		c0.039-0.087-0.015-0.205,0.029-0.272c0.049-0.078,0.02-0.239,0.078-0.297c0.067-0.063,0.18-0.083,0.253-0.141
		c0.068-0.063,0.165-0.097,0.233-0.156c0.073-0.059,0.078-0.214,0.156-0.263c0.073-0.058,0.341,0.142,0.419,0.088
		c0.072-0.054,0.087-0.19,0.165-0.244c0.078-0.058,0.078-0.224,0.156-0.277c0.077-0.049,0.233,0.024,0.312-0.024
		c0.083-0.049,0.155-0.098,0.238-0.146c0.083-0.049,0.068-0.268,0.151-0.312c0.082-0.039,0.155-0.112,0.243-0.156
		c0.078-0.039,0.292,0.185,0.38,0.146c0.083-0.039,0.127-0.17,0.209-0.205c0.083-0.039,0.229,0.073,0.316,0.039
		c0.088-0.029,0.132-0.17,0.215-0.204c0.093-0.029,0.127-0.214,0.214-0.244c0.088-0.029,0.176-0.073,0.264-0.102
		c0.092-0.024,0.253,0.199,0.341,0.175c0.092-0.024,0.146-0.2,0.233-0.219c0.093-0.024,0.18-0.063,0.272-0.088
		c0.088-0.02,0.21,0.103,0.302,0.088c0.088-0.02,0.137-0.297,0.225-0.316c0.097-0.015,0.238,0.316,0.331,0.302
		c0.097-0.015,0.155-0.268,0.248-0.278s0.195,0.049,0.287,0.039c0.098-0.005,0.176-0.141,0.272-0.146
		c0.088-0.01,0.186,0.039,0.283,0.039c0.097-0.005,0.185-0.117,0.282-0.117c0.093-0.009,0.185,0.02,0.282,0.02
		c0.093,0,0.19,0.029,0.282,0.034c0.093,0,0.19-0.054,0.283-0.054c0.097,0,0.185,0.073,0.282,0.078c0.092,0,0.175,0.175,0.272,0.18
		c0.093,0.005,0.175,0.122,0.268,0.131c0.093,0.005,0.21-0.205,0.297-0.195c0.093,0.01,0.186,0.029,0.283,0.039
		c0.087,0.015,0.165,0.161,0.253,0.175c0.098,0.015,0.194-0.015,0.282,0.005c0.098,0.015,0.195,0.005,0.282,0.02
		c0.093,0.02,0.225-0.136,0.312-0.112c0.088,0.02,0.137,0.248,0.225,0.272c0.093,0.02,0.189,0.024,0.277,0.044
		c0.093,0.024,0.171,0.087,0.258,0.112c0.088,0.024,0.186,0.029,0.273,0.059c0.087,0.029,0.204-0.02,0.292,0.01
		c0.092,0.029,0.121,0.219,0.204,0.253c0.088,0.029,0.161,0.098,0.243,0.132c0.088,0.034,0.234-0.083,0.322-0.044
		c0.087,0.039,0.155,0.097,0.243,0.136c0.088,0.044,0.146,0.127,0.233,0.166c0.078,0.039,0.234-0.058,0.321-0.02
		c0.078,0.044,0.186,0.044,0.273,0.088c0.077,0.049,0.126,0.166,0.204,0.214c0.078,0.048,0.137,0.131,0.214,0.185
		c0.078,0.048,0.19,0.048,0.269,0.102c0.077,0.049,0.131,0.136,0.209,0.19s0.146,0.117,0.224,0.175
		c0.073,0.049,0.244-0.02,0.313,0.039c0.077,0.059-0.039,0.36,0.033,0.419c0.073,0.058,0.259-0.029,0.327,0.034
		c0.077,0.054,0.224,0.024,0.297,0.083c0.073,0.063,0.039,0.243,0.106,0.307c0.068,0.063,0.112,0.151,0.181,0.219
		c0.063,0.054,0.224,0.029,0.282,0.107c0.049,0.068,0.166,0.112,0.205,0.19c0.043,0.073,0.043,0.19,0.077,0.273
		c0.029,0.083-0.077,0.219-0.058,0.297c0.028,0.088,0.009,0.175,0.028,0.263c0.02,0.087,0.205,0.151,0.205,0.233
		c0.01,0.088,0.083,0.175,0.088,0.263c0.01,0.092-0.225,0.2-0.22,0.292c0.005,0.088,0.146,0.166,0.151,0.258
		c0.01,0.092,0.106,0.175,0.111,0.268c0.005,0.088-0.248,0.195-0.238,0.283c0,0.092-0.063,0.185-0.059,0.277
		c0,0.093,0.249,0.17,0.254,0.258c0,0.087-0.044,0.185-0.039,0.272c0,0.088-0.137,0.185-0.127,0.283
		c0,0.087,0.302,0.166,0.312,0.253c0,0.093-0.341,0.2-0.336,0.292c0.005,0.098,0.326,0.166,0.336,0.253
		c0.005,0.093-0.116,0.19-0.107,0.277c0.005,0.093-0.067,0.19-0.063,0.278c0.005,0.087,0.15,0.175,0.155,0.263
		c0.005,0.093-0.175,0.195-0.17,0.283c0.01,0.097,0.17,0.175,0.175,0.263c0,0.093-0.106,0.185-0.098,0.283
		c0.01,0.087,0.249,0.166,0.254,0.253c0,0.088-0.244,0.195-0.239,0.288c0.005,0.092,0.034,0.18,0.044,0.268
		c0.01,0.088,0.029,0.18,0.034,0.273c0.005,0.087,0.059,0.175,0.063,0.263c0.01,0.093,0.195,0.166,0.199,0.258
		c0.005,0.092-0.268,0.219-0.248,0.316c0.015,0.093,0.059,0.185,0.088,0.273c0.02,0.092,0.282,0.117,0.312,0.204
		c0.029,0.093-0.175,0.253-0.142,0.341c0.029,0.092,0.239,0.117,0.269,0.204c0.034,0.093-0.142,0.253-0.107,0.341
		c0.029,0.088,0.059,0.176,0.088,0.263c0.039,0.088,0.175,0.142,0.194,0.229c0.029,0.093-0.039,0.204-0.015,0.297
		c0.02,0.078,0.307,0.156,0.307,0.248c-0.01,0.088-0.365,0.127-0.389,0.22c-0.02,0.087,0.199,0.243,0.165,0.331
		c-0.029,0.083,0.01,0.214-0.029,0.297c-0.039,0.078-0.302,0.044-0.346,0.122c-0.049,0.077,0.029,0.243-0.024,0.316
		c-0.059,0.073-0.253,0.02-0.316,0.082c-0.063,0.068-0.049,0.215-0.117,0.269c-0.072,0.059-0.121,0.189-0.199,0.229
		c-0.098,0.044-0.204,0.107-0.292,0.127c-0.098,0.029-0.244-0.186-0.336-0.176c-0.103,0.005-0.22,0.195-0.307,0.171
		c-0.098-0.024-0.205-0.098-0.293-0.142c-0.077-0.044-0.146-0.146-0.219-0.214c-0.068-0.063-0.088-0.186-0.151-0.264
		c-0.058-0.072-0.214-0.087-0.263-0.175c-0.039-0.068-0.131-0.039-0.214-0.093c-0.093-0.049-0.107-0.073-0.186-0.068
		c-0.097,0.005-0.209-0.209-0.307-0.199s-0.189,0.005-0.287,0.015s-0.195,0.034-0.292,0.044c-0.098,0.01-0.195-0.068-0.292-0.054
		c-0.098,0.01-0.19,0.078-0.283,0.088c-0.097,0.015-0.194,0.034-0.287,0.044c-0.098,0.01-0.199-0.059-0.297-0.049
		s-0.161,0.292-0.258,0.302c-0.098,0.01-0.205-0.098-0.302-0.088c-0.098,0.01-0.151,0.063-0.249,0.078
		c0.068,0.059-0.01,0.233,0.063,0.292c0.073,0.063,0.248,0,0.321,0.059c0.073,0.063,0.073,0.224,0.151,0.277
		s0.214,0.015,0.292,0.068c0.078,0.049,0.165,0.098,0.243,0.142c0.088,0.043,0.107,0.214,0.195,0.253
		c0.082,0.044,0.282-0.176,0.37-0.137c0.087,0.039,0.097,0.282,0.185,0.312c0.093,0.024,0.181,0.088,0.272,0.112
		c0.093,0.02,0.21-0.039,0.303-0.024c0.087,0.01,0.194-0.112,0.292-0.107c0.092,0,0.185,0.117,0.282,0.112
		c0.088-0.005,0.18-0.078,0.272-0.083c0.093-0.01,0.195,0.049,0.292,0.034c0.088-0.015,0.146-0.194,0.239-0.219
		c0.092-0.02,0.199,0.044,0.287,0.02c0.093-0.029,0.155-0.117,0.243-0.156c0.093-0.029,0.186-0.049,0.272-0.078
		c0.088-0.028,0.205,0.034,0.298,0.005c0.092-0.023,0.194-0.005,0.277-0.033c0.093-0.029,0.155-0.137,0.243-0.166
		c0.088-0.024,0.161-0.107,0.253-0.137c0.088-0.024,0.215,0.078,0.303,0.054c0.087-0.024,0.155-0.121,0.248-0.146
		c0.088-0.024,0.137-0.21,0.224-0.234c0.093-0.024,0.229,0.142,0.326,0.112c0.088-0.02,0.176-0.059,0.264-0.083
		c0.087-0.024,0.204,0.054,0.297,0.029s0.189-0.015,0.277-0.044c0.093-0.02,0.176-0.059,0.268-0.083
		c0.093-0.023,0.107-0.336,0.2-0.355c0.087-0.023,0.189,0.01,0.282-0.014c0.093-0.024,0.18-0.054,0.272-0.073
		c0.088-0.024,0.186-0.01,0.277-0.034c0.093-0.024,0.195,0.005,0.283-0.015c0.092-0.024,0.189-0.02,0.277-0.039
		c0.088-0.029,0.136-0.194,0.233-0.219c0.078-0.024,0.195,0.097,0.272,0.082c0.078-0.015,0.146-0.131,0.234-0.146
		c0.078-0.01,0.185,0.214,0.272,0.199c0.078-0.01,0.209-0.268,0.287-0.277c0.059,0.068-0.063,0.37-0.005,0.443
		s0.302,0.068,0.36,0.141c-0.078,0.039-0.194,0.117-0.272,0.156s-0.229-0.083-0.302-0.044c-0.078,0.044-0.176,0.024-0.254,0.063
		c-0.077,0.039-0.121,0.238-0.194,0.277c0.078,0,0.214,0.083,0.292,0.083c0.088,0,0.166,0.039,0.249,0.039
		c0.082,0,0.16-0.176,0.243-0.176c0.078,0,0.214,0.01,0.297,0.01c-0.015,0.103-0.146,0.215-0.166,0.307
		c-0.028,0.098-0.038,0.19-0.077,0.278c-0.039,0.087-0.098,0.16-0.156,0.233c-0.059,0.078-0.039,0.243-0.117,0.307
		c-0.077,0.063-0.282-0.122-0.37-0.083c-0.087,0.034-0.116,0.234-0.214,0.244s-0.165-0.146-0.263-0.166
		c-0.093-0.02-0.22,0.205-0.302,0.19c-0.093-0.01-0.156-0.288-0.244-0.293c-0.092-0.01-0.194,0.112-0.282,0.112
		s-0.165,0.137-0.253,0.146s-0.225-0.176-0.312-0.146c-0.088,0.02-0.078,0.302-0.166,0.336c-0.078,0.034-0.263-0.137-0.341-0.093
		s-0.098,0.186-0.165,0.244c-0.068,0.059-0.088,0.165-0.156,0.229c-0.073,0.073-0.214,0.107-0.331,0.142
		c-0.107,0.034-0.214,0.155-0.321,0.175c-0.088,0.01-0.186,0.01-0.272,0.029c-0.093,0.01-0.181,0.044-0.273,0.059
		c-0.087,0.01-0.204-0.19-0.297-0.181c-0.088,0.015-0.18,0.029-0.268,0.044c-0.088,0.01-0.186-0.015-0.272,0
		c-0.093,0.01-0.176,0.098-0.264,0.117c-0.092,0.01-0.194-0.029-0.282-0.01c-0.087,0.01-0.185,0.015-0.272,0.034
		c-0.088,0.015-0.166,0.112-0.253,0.132c-0.088,0.019-0.186,0.028-0.277,0.053c-0.093,0.024-0.186,0.034-0.278,0.063
		c-0.087,0.024-0.175,0.078-0.263,0.103s-0.219-0.083-0.312-0.063c-0.088,0.029-0.142,0.21-0.229,0.233
		c-0.093,0.029-0.205-0.028-0.298,0c-0.087,0.02-0.18,0.049-0.272,0.073c-0.088,0.024-0.136,0.205-0.224,0.229
		c-0.093,0.029-0.205-0.02-0.297,0.005c-0.093,0.024-0.19,0.033-0.278,0.053c-0.097,0.029-0.155,0.156-0.243,0.186
		c-0.093,0.02-0.194,0.01-0.287,0.034c-0.088,0.024-0.238-0.142-0.326-0.112c-0.088,0.024-0.186,0.054-0.272,0.078
		c-0.088,0.029-0.107,0.302-0.205,0.326c-0.093,0.024-0.194,0.005-0.282,0.034c-0.093,0.024-0.205-0.029-0.297,0
		c-0.093,0.024-0.229-0.103-0.316-0.078c-0.088,0.029-0.137,0.205-0.229,0.233c-0.092,0.02-0.18,0.049-0.272,0.078
		c-0.083,0.029-0.189-0.01-0.277,0.01c-0.093,0.029-0.176,0.054-0.263,0.078c-0.088,0.02-0.195-0.039-0.288-0.015
		c-0.092,0.024-0.18,0.024-0.272,0.049s-0.112,0.277-0.199,0.297c-0.088,0.029-0.176,0.059-0.264,0.088
		c-0.087,0.02-0.194-0.029-0.282-0.005s-0.146,0.16-0.233,0.185c-0.083,0.024-0.166,0.063-0.253,0.093
		c-0.088,0.02-0.239-0.146-0.322-0.122c-0.087,0.029-0.155,0.122-0.243,0.151c-0.083,0.029-0.127,0.142-0.204,0.18
		c-0.083,0.039-0.127,0.127-0.205,0.171c-0.077,0.039-0.282-0.117-0.355-0.078c-0.073,0.049-0.005,0.351-0.083,0.39
		c-0.077,0.039-0.189,0.039-0.272,0.073c-0.078,0.034-0.214-0.083-0.302-0.063c-0.098,0.02-0.137,0.253-0.233,0.272
		c-0.088,0.024-0.249-0.287-0.341-0.272c-0.093,0.02-0.181,0.063-0.273,0.078c-0.092,0.02-0.185,0.015-0.282,0.029
		c-0.087,0.015-0.155,0.194-0.248,0.214c-0.093,0.01-0.199-0.059-0.297-0.049c-0.088,0.02-0.156,0.22-0.249,0.234
		c-0.092,0.01-0.204-0.078-0.297-0.059c-0.092,0.015-0.204-0.059-0.292-0.044c-0.098,0.02-0.146,0.263-0.233,0.277
		c-0.098,0.02-0.248-0.263-0.341-0.243c-0.098,0.024-0.171,0.127-0.263,0.146c-0.088,0.02-0.146,0.176-0.244,0.195
		c-0.088,0.024-0.155,0.137-0.243,0.16c-0.088,0.02-0.205-0.033-0.292-0.014c-0.088,0.023-0.2-0.039-0.293-0.01
		c-0.087,0.023-0.155,0.146-0.243,0.165c-0.088,0.029-0.194,0.015-0.282,0.039c-0.088,0.029-0.166,0.107-0.253,0.137
		c-0.088,0.024-0.215-0.088-0.302-0.063c-0.093,0.024-0.171,0.088-0.264,0.111c-0.088,0.024-0.185,0.01-0.277,0.039
		c-0.093,0.02-0.199-0.024-0.292,0c-0.088,0.024-0.103,0.316-0.19,0.341c-0.092,0.024-0.272-0.258-0.36-0.233
		c-0.087,0.024-0.111,0.287-0.204,0.312c-0.088,0.029-0.204-0.039-0.292-0.015s-0.215-0.073-0.302-0.044
		c-0.093,0.024-0.107,0.293-0.2,0.316c-0.093,0.029-0.185,0.029-0.277,0.054c-0.088,0.029-0.156,0.107-0.248,0.137
		c-0.093,0.02-0.2-0.02-0.288,0.01c-0.087,0.029-0.185,0.039-0.272,0.068c-0.092,0.029-0.156,0.146-0.243,0.175
		c-0.088,0.029-0.214-0.044-0.302-0.015c-0.093,0.034-0.205-0.015-0.297,0.015c-0.092,0.034-0.131,0.205-0.219,0.234
		c-0.087,0.033-0.214-0.029-0.302,0.005c-0.087,0.033-0.175,0.063-0.268,0.097c-0.093,0.034-0.229-0.073-0.317-0.039
		c-0.092,0.034-0.107,0.259-0.2,0.293c-0.092,0.033-0.233-0.083-0.326-0.049c-0.087,0.034-0.161,0.102-0.253,0.131
		c-0.088,0.029-0.185,0.029-0.278,0.059c-0.092,0.029-0.112,0.263-0.205,0.292c-0.092,0.029-0.229-0.087-0.316-0.058
		c-0.097,0.028-0.205-0.059-0.302-0.049c-0.103,0.01-0.175,0.331-0.278,0.336c-0.102,0.005-0.219-0.269-0.316-0.264
		c-0.107,0.005-0.185,0.239-0.282,0.249c-0.103,0.02-0.214-0.068-0.302-0.034c-0.097,0.034-0.136,0.16-0.229,0.199
		c-0.093,0.039-0.18,0.049-0.268,0.098c-0.087,0.049-0.141,0.142-0.224,0.185c-0.088,0.054-0.175,0.098-0.258,0.146
		s-0.166,0.117-0.249,0.161c-0.087,0.044-0.229,0-0.321,0.034c-0.078,0.033-0.185,0.01-0.272,0.028
		c-0.088,0.02-0.185-0.058-0.273-0.048c-0.087,0.01-0.166,0.02-0.258,0.015c-0.093,0-0.18,0.063-0.268,0.053
		c-0.078-0.01-0.219-0.038-0.302-0.126c-0.088-0.093-0.088-0.234-0.098-0.312c0-0.088-0.073-0.293,0.02-0.38
		c0.078-0.088,0.234-0.176,0.317-0.21c0.083-0.034,0.238,0.117,0.326,0.093c0.083-0.029,0.117-0.224,0.205-0.248
		c0.087-0.024,0.17-0.083,0.253-0.103c0.088-0.02,0.2,0.049,0.283,0.029c0.087-0.024,0.166,0,0.253-0.029
		C21.437,39.081,21.573,38.887,21.563,38.779z M21.33,30.136c0.097,0.005,0.321,0.093,0.419,0.098c0.097,0.005,0.195-0.005,0.292,0
		s0.2-0.029,0.292-0.024c0.103,0.01,0.214-0.253,0.312-0.243c0.097,0.01,0.175,0.302,0.272,0.312c0.098,0,0.205-0.068,0.302-0.068
		c0.088,0.01,0.18,0.122,0.273,0.127c0.092,0,0.185-0.039,0.282-0.039c0.088,0,0.185,0.039,0.278,0.039
		c0.092,0,0.185-0.127,0.277-0.127c0.098,0,0.185-0.02,0.278-0.02c0.092,0,0.19,0.098,0.277,0.098c0.097,0,0.185-0.156,0.273-0.156
		c0.097-0.005,0.185,0.029,0.282,0.029c0.092-0.005,0.175-0.175,0.268-0.175c0.093-0.005,0.2,0.185,0.288,0.175
		c0.092-0.005,0.185,0.029,0.282,0.02c0.088-0.005,0.166-0.204,0.253-0.214c0.097-0.01,0.2,0.116,0.292,0.103
		c0.098-0.01,0.185,0.005,0.283-0.005c0.087-0.01,0.175-0.068,0.268-0.078c0.088-0.01,0.161-0.156,0.253-0.171
		c0.092-0.015,0.229,0.249,0.316,0.234c0.093-0.015,0.127-0.331,0.224-0.346c0.088-0.02,0.181-0.02,0.273-0.039
		c0.087-0.02,0.18-0.02,0.272-0.044c0.088-0.024,0.165-0.083,0.253-0.103c0.093-0.02,0.258,0.243,0.346,0.224
		c0.093-0.028,0.132-0.214,0.225-0.238c0.087-0.024,0.219,0.103,0.312,0.073c0.092-0.029,0.16-0.127,0.243-0.156
		s0.199,0,0.282-0.034c0.083-0.023,0.088-0.238,0.166-0.287c0.072-0.049,0.141-0.087,0.214-0.146
		c0.063-0.054,0.209-0.029,0.277-0.098c0.059-0.063,0.083-0.166,0.137-0.233c0.059-0.068,0.165-0.107,0.214-0.181
		s0.059-0.18,0.107-0.258c0.044-0.073,0.214-0.088,0.258-0.166c0.044-0.078-0.005-0.214,0.034-0.292
		c0.034-0.078,0.01-0.195,0.039-0.272c0.029-0.093-0.059-0.205-0.039-0.283c0.02-0.097,0.098-0.161,0.103-0.243
		c0.005-0.098-0.063-0.161-0.078-0.239c-0.015-0.088-0.034-0.185-0.044-0.268c-0.015-0.088,0.122-0.195,0.117-0.278
		c0-0.092,0.078-0.17,0.088-0.258c0.005-0.087-0.225-0.214-0.205-0.302c0.02-0.087,0.122-0.151,0.127-0.233
		c0.01-0.098,0.078-0.176,0.068-0.263c0-0.097,0.155-0.214,0.136-0.302c-0.015-0.088-0.136-0.166-0.165-0.249
		c-0.029-0.087-0.166-0.131-0.205-0.209c-0.048-0.078,0.015-0.229-0.039-0.302c-0.053-0.068-0.175-0.098-0.243-0.156
		c-0.059-0.059-0.165-0.078-0.233-0.127c-0.078-0.048-0.156-0.083-0.234-0.117c-0.087-0.039-0.126-0.214-0.214-0.234
		c-0.083-0.019-0.209,0.224-0.302,0.214c-0.088-0.01-0.161-0.136-0.253-0.126c-0.088,0.005-0.186-0.073-0.278-0.068
		c-0.092,0.01-0.18,0.068-0.268,0.068c-0.088,0.005-0.189-0.141-0.282-0.136c-0.088,0.005-0.166,0.233-0.263,0.233
		c-0.088,0.005-0.181-0.009-0.273-0.009c-0.087,0.009-0.185-0.098-0.272-0.098c-0.093,0.01-0.175,0.156-0.263,0.166
		c-0.093,0.01-0.186,0-0.272,0.01c-0.093,0.005-0.205-0.214-0.302-0.209c-0.087,0.01-0.146,0.307-0.234,0.316
		c-0.087,0.01-0.189-0.068-0.282-0.048c-0.088,0.01-0.185-0.044-0.272-0.024c-0.083,0.015-0.156,0.097-0.244,0.117
		c-0.088,0.024-0.209-0.102-0.292-0.078c-0.083,0.024-0.156,0.083-0.244,0.112c-0.083,0.024-0.185-0.01-0.273,0.02
		c-0.078,0.029-0.151,0.087-0.233,0.117c-0.083,0.024-0.175,0.029-0.253,0.059c-0.083,0.024-0.166,0.039-0.253,0.063
		c-0.132,0.034-0.224,0.258-0.36,0.272c-0.088,0.005-0.205-0.18-0.297-0.175c-0.097,0.005-0.17,0.244-0.268,0.249
		c-0.093,0.01-0.19,0.01-0.283,0.02c-0.092,0.009-0.19,0.024-0.282,0.029c-0.093,0.01-0.185,0.107-0.278,0.117
		c-0.092,0.005-0.214-0.312-0.307-0.302c-0.097,0.005-0.166,0.273-0.263,0.283c-0.093,0.005-0.195-0.078-0.292-0.068
		c-0.087,0.01-0.185,0.049-0.277,0.054c-0.093,0.01-0.205-0.151-0.302-0.141c-0.093,0.01-0.171,0.166-0.268,0.18
		c-0.107,0.01-0.185,0.043-0.258,0.078c-0.092,0.044-0.297,0.029-0.336,0.112c-0.039,0.078-0.078,0.253-0.068,0.355
		c0.01,0.083,0.048,0.219,0.092,0.316c0.034,0.078,0.219,0.102,0.253,0.185c0.034,0.083,0.136,0.136,0.17,0.224
		c0.029,0.087,0.02,0.185,0.054,0.272c0.034,0.088,0.039,0.18,0.073,0.268c0.029,0.083,0.098,0.161,0.117,0.248
		c0.029,0.088,0.107,0.161,0.132,0.244c0.024,0.087-0.01,0.195,0.015,0.282c0.02,0.088,0.048,0.175,0.068,0.263
		c0.01,0.092,0.039,0.18,0.049,0.272c0.01,0.088-0.175,0.195-0.17,0.282c0.005,0.088,0.17,0.176,0.166,0.264
		c-0.005,0.087-0.059,0.175-0.068,0.272c-0.005,0.088-0.014,0.175-0.029,0.263c-0.015,0.093,0.039,0.195,0.015,0.287
		c-0.02,0.083-0.127,0.151-0.156,0.239c-0.029,0.077-0.141,0.126-0.175,0.214c-0.039,0.088,0.059,0.229,0.02,0.312
		C21.583,29.912,21.374,30.059,21.33,30.136z M38.124,24.95c0.029,0,0.059,0.005,0.083,0c0-0.093-0.024-0.234-0.029-0.321
		c0-0.098-0.049-0.19-0.054-0.283c-0.005-0.097-0.277-0.175-0.277-0.272c-0.005-0.088,0.282-0.195,0.282-0.292
		c-0.005-0.097-0.087-0.185-0.087-0.282c-0.005-0.098,0.102-0.195,0.097-0.288c-0.01-0.092-0.058-0.185-0.058-0.277
		c-0.005-0.097,0.024-0.195,0.02-0.282c0-0.098-0.132-0.185-0.137-0.278c-0.01-0.092-0.039-0.19-0.039-0.277
		c-0.005-0.098,0.088-0.195,0.083-0.292c-0.005-0.087-0.166-0.175-0.171-0.272c-0.01-0.098,0.02-0.185,0.015-0.283
		c-0.005-0.092-0.175-0.175-0.18-0.268c-0.01-0.083,0.155-0.214,0.116-0.312c-0.038-0.093-0.058-0.214-0.116-0.288
		c-0.063-0.092-0.244-0.01-0.321-0.039c-0.088-0.039-0.127-0.195-0.215-0.234c-0.083-0.034-0.155-0.093-0.243-0.126
		c-0.088-0.039-0.186-0.034-0.272-0.068c-0.088-0.039-0.22,0.054-0.302,0.02c-0.088-0.039-0.068-0.331-0.156-0.37
		c-0.088-0.029-0.282,0.214-0.37,0.18s-0.166-0.083-0.253-0.117c-0.088-0.034-0.166-0.083-0.254-0.117
		c-0.082-0.034-0.185-0.024-0.268-0.054c-0.088-0.034-0.068-0.351-0.155-0.379c-0.083-0.034-0.234,0.097-0.317,0.058
		c-0.087-0.029-0.126-0.209-0.209-0.243c-0.088-0.029-0.199,0.01-0.287-0.02s-0.156-0.117-0.243-0.146
		c-0.088-0.024-0.234,0.126-0.322,0.097c-0.092-0.029-0.175-0.068-0.263-0.097c-0.088-0.024-0.146-0.161-0.233-0.185
		c-0.088-0.029-0.195,0.005-0.282,0c-0.088-0.01-0.186-0.073-0.273-0.068c-0.087,0-0.18,0.063-0.272,0.073
		c-0.088,0.015-0.204-0.117-0.292-0.103c-0.093,0.01-0.166,0.126-0.253,0.146c-0.088,0.02-0.166,0.098-0.254,0.117
		c-0.092,0.015-0.165,0.146-0.253,0.166c-0.054,0.005-0.078,0.005-0.117,0.117c-0.033,0.098,0.02,0.175,0.02,0.253
		c0.005,0.087,0.01,0.18,0.01,0.263c0.005,0.093-0.136,0.185-0.131,0.273c0.005,0.087-0.068,0.175-0.068,0.268
		c0.005,0.093,0.248,0.17,0.258,0.258c0,0.087-0.088,0.18-0.078,0.268c0,0.093-0.048,0.18-0.043,0.268
		c0.004,0.092-0.151,0.195-0.146,0.282c0.005,0.093,0.122,0.17,0.132,0.263c0.01,0.087,0.121,0.161,0.136,0.248
		c0.01,0.073-0.078,0.2-0.034,0.278c0.039,0.078,0.151,0.107,0.21,0.175c0.049,0.063,0.146,0.087,0.209,0.131
		c0.073,0.059,0.132,0.083,0.205,0.102c0.092,0.029,0.131,0.205,0.214,0.239c0.093,0.034,0.272-0.175,0.36-0.141
		c0.083,0.039,0.122,0.195,0.204,0.234c0.083,0.043,0.122,0.156,0.21,0.204c0.078,0.049,0.185,0.049,0.263,0.103
		c0.078,0.049,0.059,0.229,0.137,0.282c0.077,0.059,0.282-0.053,0.351,0.005c0.072,0.059,0.121,0.146,0.189,0.209
		c0.063,0.063,0.044,0.209,0.107,0.278c0.063,0.068,0.233,0.048,0.292,0.126c0.054,0.068,0.103,0.161,0.151,0.234
		c0.058,0.078-0.098,0.282-0.044,0.36c0.044,0.078,0.346,0.014,0.385,0.097c0.048,0.083,0.005,0.205,0.048,0.292
		c0.039,0.083,0.02,0.195,0.054,0.283c0.034,0.087,0.127,0.146,0.161,0.233c0.029,0.083-0.088,0.219-0.059,0.312
		c0.029,0.087,0.093,0.161,0.122,0.248c0.024,0.093-0.015,0.19,0.015,0.278c0.024,0.092,0.077,0.17,0.097,0.263
		c0.024,0.088,0.024,0.18,0.039,0.273c0.02,0.087,0.034,0.195,0.059,0.272c0.02,0.098,0.248,0.127,0.277,0.209
		c0.029,0.093-0.121,0.258-0.087,0.336c0.043,0.083,0.287,0.059,0.331,0.136c0.054,0.078,0.092,0.146,0.15,0.209
		c0.059,0.068,0.122,0.112,0.195,0.166s0.17,0.005,0.253,0.039c0.088,0.034,0.078,0.365,0.166,0.385
		c0.087,0.02,0.214-0.224,0.307-0.224c0.087,0.005,0.17,0.092,0.268,0.087c0.088,0,0.17-0.039,0.268-0.049
		c0.083-0.009,0.21,0.142,0.302,0.122c0.112-0.02,0.176-0.189,0.259-0.224c0.102-0.044,0.175-0.093,0.253-0.151
		c0.078-0.068,0.282-0.078,0.321-0.175c0.029-0.083,0.078-0.224,0.078-0.341c0.01-0.087,0-0.214-0.015-0.326
		c-0.015-0.097-0.181-0.17-0.195-0.268c-0.01-0.098-0.092-0.185-0.102-0.278c-0.01-0.097,0.034-0.2,0.029-0.297
		c-0.01-0.098,0.01-0.195,0-0.288c-0.005-0.097-0.049-0.19-0.059-0.287c-0.005-0.097-0.059-0.19-0.068-0.287
		c-0.01-0.098,0.049-0.2,0.039-0.297C37.954,25.116,38.129,25.047,38.124,24.95z M45.351,20.528c0,0.093-0.063,0.063-0.063,0.156
		c0,0.092,0.02,0.185,0.02,0.282c0,0.088,0.039,0.185,0.039,0.277c0,0.093,0.268,0.185,0.268,0.278c0,0.097-0.297,0.185-0.297,0.282
		c0,0.093,0.078,0.185,0.073,0.278c0,0.092-0.112,0.19-0.112,0.277c0,0.098,0.044,0.19,0.044,0.283c0,0.092-0.034,0.185-0.034,0.282
		c0,0.088,0.127,0.185,0.127,0.278c0,0.092,0.02,0.189,0.02,0.277c0,0.097-0.098,0.185-0.098,0.282c0,0.093,0.146,0.185,0.146,0.283
		c0,0.087-0.039,0.185-0.039,0.272c0,0.093,0.165,0.185,0.165,0.283c0,0.087-0.194,0.185-0.194,0.277
		c0,0.093-0.039,0.185-0.039,0.278c0,0.092,0.195,0.18,0.195,0.272c0,0.098-0.137,0.185-0.137,0.278c0,0.092-0.02,0.18-0.02,0.277
		c0,0.092,0.039,0.18,0.039,0.272c0,0.098,0.137,0.185,0.137,0.273c0,0.087-0.254,0.234-0.225,0.316
		c0.029,0.083,0.351,0.049,0.39,0.131c0.039,0.078,0,0.107,0.029,0.185c0.073-0.029,0.049-0.048,0.127-0.078
		c0.077-0.029,0.136-0.098,0.214-0.127c0.073-0.039,0.282,0.195,0.351,0.156c0.073-0.039,0.044-0.234,0.098-0.288
		c0.059-0.063,0.253-0.092,0.282-0.185c0.029-0.083-0.02-0.219-0.005-0.312c0.01-0.097,0.073-0.209,0.063-0.297
		c-0.01-0.098-0.205-0.175-0.215-0.273c-0.01-0.097-0.01-0.19-0.02-0.282c-0.009-0.093,0.098-0.205,0.078-0.297
		c-0.01-0.092-0.078-0.185-0.087-0.277c-0.015-0.092,0.038-0.195,0.019-0.292c-0.01-0.088-0.072-0.18-0.087-0.273
		c-0.01-0.097,0.126-0.205,0.116-0.302c-0.005-0.098-0.106-0.175-0.116-0.273c0-0.087-0.078-0.175-0.078-0.263
		c-0.005-0.093-0.127-0.175-0.127-0.268c-0.01-0.092,0.054-0.18,0.049-0.272c0-0.093-0.073-0.175-0.078-0.268
		c0-0.087-0.01-0.175-0.015-0.268c-0.005-0.088,0.137-0.18,0.132-0.273c0-0.087,0.073-0.18,0.068-0.268
		c0-0.088-0.248-0.175-0.248-0.263c0-0.092,0.082-0.185,0.082-0.272c0-0.088,0.059-0.175,0.059-0.268
		c0-0.092,0.171-0.18,0.166-0.272c0-0.093-0.103-0.18-0.103-0.268c0-0.087-0.107-0.18-0.107-0.272c0-0.088,0.132-0.18,0.132-0.272
		c-0.01-0.112-0.093-0.214-0.117-0.292c-0.034-0.107-0.116-0.161-0.185-0.224c-0.078-0.058-0.146-0.073-0.254-0.078
		c-0.087-0.01-0.204-0.146-0.316-0.126c-0.092,0.024-0.121,0.297-0.214,0.316c-0.093,0.015-0.204-0.088-0.297-0.073
		c-0.088,0.015-0.195-0.049-0.287-0.039c-0.093,0.015-0.176,0.078-0.269,0.088c-0.087,0.01-0.199-0.126-0.292-0.117
		c-0.088,0.009-0.155,0.233-0.248,0.248c-0.093,0.01-0.186-0.005-0.277,0.005c-0.098,0.01-0.195-0.097-0.288-0.087
		c-0.092,0.01-0.17,0.161-0.263,0.17c-0.093,0.005-0.185,0-0.277,0.015c-0.093,0.01-0.204-0.219-0.302-0.205
		c-0.088,0.01-0.146,0.307-0.239,0.316c-0.092,0.01-0.189-0.068-0.287-0.059c-0.087,0.015-0.194-0.039-0.282-0.024
		s-0.17,0.088-0.263,0.107c-0.088,0.02-0.21-0.117-0.302-0.098c-0.088,0.02-0.176,0.078-0.269,0.103
		c-0.087,0.024-0.194-0.015-0.287,0.015c-0.088,0.024-0.17,0.087-0.253,0.117c-0.088,0.029-0.19,0.044-0.272,0.078
		c-0.088,0.029-0.186,0.058-0.269,0.097c-0.082,0.034-0.082,0.263-0.165,0.307c-0.093,0.044-0.2-0.131-0.297-0.17
		c-0.088-0.039-0.249,0.146-0.321,0.122c-0.103-0.024-0.161-0.034-0.234-0.024c-0.097,0.01-0.111,0.029-0.165,0.087
		c-0.049,0.063,0.02,0.127,0,0.214c-0.02,0.083-0.351,0.126-0.351,0.219c-0.005,0.083,0.263,0.17,0.263,0.258
		c0,0.093-0.088,0.19-0.088,0.283c0.005,0.092,0.034,0.185,0.039,0.282c0,0.088-0.165,0.19-0.155,0.283
		c0,0.097,0.15,0.185,0.155,0.277c0,0.093,0.015,0.19,0.02,0.278c0,0.097-0.165,0.194-0.165,0.292
		c0.004,0.087-0.01,0.185-0.01,0.282c0.005,0.093,0.01,0.185,0.01,0.278c0.004,0.092,0.17,0.18,0.175,0.277
		c0,0.093,0.078,0.185,0.078,0.278c0.01,0.092-0.039,0.19-0.039,0.287c0.01,0.088-0.015,0.185-0.01,0.283
		c0,0.087,0.044,0.185,0.049,0.277c0,0.092,0.059,0.19,0.063,0.277c0.005,0.098-0.049,0.195-0.044,0.283
		c0,0.097,0.024,0.19,0.029,0.282c0,0.093,0.02,0.185,0.02,0.283c0.01,0.087-0.186,0.19-0.181,0.282
		c0.005,0.098,0.171,0.18,0.176,0.273c0.005,0.097-0.044,0.194-0.039,0.282c0.005,0.097,0.015,0.19,0.02,0.282
		c0.005,0.093,0.082,0.185,0.082,0.273c0.005,0.087-0.067,0.175-0.058,0.253c0.02,0.078-0.049,0.18-0.029,0.253
		c0.02,0.087,0.165,0.107,0.18,0.175c0.098,0,0.166-0.059,0.248-0.059c0.098-0.01,0.186-0.039,0.273-0.039
		c0.097,0,0.185,0.244,0.272,0.244c0.093,0,0.17-0.015,0.263,0c0.083,0.01,0.186-0.2,0.272-0.2c0.088,0.005,0.166,0.063,0.249,0.049
		c0.093-0.015,0.253,0.166,0.326,0.132c0.083-0.039-0.049-0.336,0.01-0.409c0.044-0.059,0.098-0.068,0.121-0.166
		c0.02-0.073,0.151-0.137,0.142-0.234c0-0.098,0.059-0.195,0.054-0.288c-0.005-0.092-0.229-0.18-0.229-0.277
		c-0.005-0.097,0.185-0.2,0.185-0.292c-0.01-0.098-0.098-0.185-0.107-0.283c-0.005-0.097,0.02-0.19,0.015-0.282
		c-0.005-0.098,0.142-0.205,0.137-0.302c-0.005-0.098-0.277-0.171-0.277-0.268c-0.005-0.092-0.034-0.19-0.039-0.282
		c-0.01-0.093,0.248-0.209,0.243-0.307c-0.01-0.097-0.165-0.175-0.175-0.272c-0.01-0.098-0.029-0.19-0.034-0.283
		c-0.005-0.097,0.068-0.195,0.063-0.292c-0.01-0.097,0.053-0.195,0.048-0.292c-0.01-0.098-0.063-0.195-0.067-0.292
		c-0.01-0.092-0.029-0.19-0.034-0.287c-0.005-0.098-0.103-0.19-0.103-0.287c-0.005-0.098,0.185-0.2,0.185-0.297
		c-0.005-0.097-0.028-0.19-0.028-0.287c-0.01-0.098-0.088-0.19-0.088-0.288c0-0.092,0.059-0.19,0.063-0.287
		c0-0.068-0.073-0.146-0.034-0.229c0.039-0.073,0-0.219,0.049-0.277c0.067-0.073,0.233,0.039,0.302,0.029
		c0.092-0.02,0.175-0.078,0.272-0.098c0.093-0.02,0.171-0.117,0.263-0.136c0.093-0.02,0.186-0.068,0.277-0.083
		c0.093-0.019,0.225,0.2,0.317,0.18c0.097-0.009,0.136-0.321,0.233-0.336s0.233,0.258,0.331,0.244
		c0.093-0.015,0.146-0.277,0.243-0.292c0.088-0.015,0.21,0.122,0.302,0.107c0.093-0.015,0.151-0.263,0.244-0.277
		c0.093-0.015,0.185-0.034,0.282-0.049c0.088-0.015,0.204,0.092,0.302,0.078c0.088-0.015,0.205,0.093,0.297,0.078
		c0.093-0.01,0.176-0.107,0.269-0.122c0.097-0.015,0.18-0.093,0.272-0.112C45.248,20.358,45.253,20.538,45.351,20.528z
		 M45.561,18.518c-0.068-0.063-0.181-0.278-0.249-0.336c-0.067-0.063-0.155-0.117-0.229-0.175c-0.068-0.059-0.171-0.088-0.243-0.146
		c-0.068-0.058-0.303,0.107-0.38,0.054c-0.073-0.054,0.02-0.346-0.059-0.404c-0.078-0.048-0.195-0.034-0.282-0.078
		c-0.078-0.049-0.103-0.195-0.186-0.244c-0.078-0.049-0.185-0.053-0.268-0.097c-0.083-0.039-0.151-0.117-0.233-0.156
		c-0.083-0.039-0.22,0.029-0.308-0.01c-0.077-0.039-0.175-0.059-0.263-0.093c-0.083-0.034-0.126-0.161-0.214-0.2
		c-0.088-0.029-0.225,0.078-0.316,0.049c-0.083-0.034-0.161-0.102-0.249-0.131c-0.087-0.029-0.224,0.097-0.312,0.068
		c-0.088-0.029-0.116-0.238-0.204-0.268c-0.093-0.029-0.171-0.088-0.263-0.117c-0.088-0.024-0.225,0.146-0.313,0.122
		c-0.092-0.02-0.146-0.17-0.243-0.19c-0.088-0.024-0.175-0.068-0.263-0.088c-0.088-0.014-0.195,0.005-0.282-0.01
		c-0.088-0.019-0.205,0.098-0.293,0.083c-0.087-0.015-0.146-0.307-0.233-0.316c-0.093-0.015-0.224,0.272-0.316,0.263
		s-0.181-0.039-0.268-0.048c-0.098-0.01-0.186-0.034-0.273-0.039c-0.097-0.01-0.189,0.029-0.282,0.024
		c-0.087-0.005-0.165-0.312-0.258-0.317c-0.093,0-0.189,0.166-0.287,0.166c-0.088,0-0.186-0.166-0.277-0.166
		c-0.093,0-0.186,0.078-0.278,0.078c-0.097,0-0.189-0.059-0.282-0.049c-0.098,0.005-0.175,0.195-0.268,0.205
		s-0.181,0.005-0.277,0.01c-0.088,0.01-0.195-0.097-0.283-0.087c-0.097,0.014-0.185,0.078-0.272,0.092
		c-0.092,0.015-0.194-0.034-0.282-0.015c-0.093,0.01-0.175,0.083-0.263,0.098c-0.093,0.019-0.215-0.098-0.307-0.078
		c-0.093,0.02-0.161,0.136-0.249,0.161c-0.092,0.024-0.165,0.112-0.253,0.136s-0.142,0.161-0.229,0.19
		c-0.093,0.029-0.195,0-0.278,0.034c-0.087,0.034-0.146,0.131-0.233,0.166s-0.165,0.073-0.243,0.112
		c-0.088,0.043-0.229-0.044-0.312,0c-0.083,0.043-0.2,0.024-0.283,0.068c-0.077,0.049-0.023,0.307-0.097,0.36
		c-0.083,0.049-0.205,0.02-0.273,0.078c-0.077,0.058-0.185,0.063-0.258,0.126c-0.073,0.059-0.302,0.146-0.365,0.205
		c0.088,0.029,0.312,0.073,0.404,0.102s0.21-0.043,0.302-0.02c0.093,0.024,0.142,0.18,0.234,0.205
		c0.092,0.024,0.199-0.024,0.287,0.005c0.093,0.024,0.194,0,0.292,0.024c0.088,0.024,0.18,0.044,0.272,0.068
		c0.088,0.024,0.137,0.2,0.234,0.229c0.087,0.029,0.253-0.199,0.341-0.17c0.092,0.024,0.146,0.175,0.233,0.209
		c0.093,0.029,0.156,0.136,0.243,0.17c0.088,0.034,0.195,0.015,0.282,0.049c0.088,0.034,0.117,0.209,0.205,0.249
		c0.083,0.043,0.258-0.117,0.346-0.078c0.083,0.049,0.156,0.107,0.238,0.156c0.083,0.049,0.117,0.19,0.195,0.234
		c0.087,0.039,0.233-0.049,0.321-0.015c0.083,0.039,0.155,0.092,0.243,0.126s0.098,0.288,0.181,0.316
		c0.092,0.034,0.268-0.209,0.355-0.185c0.092,0.029,0.155,0.142,0.243,0.166c0.088,0.019,0.166,0.107,0.258,0.126
		c0.093,0.02,0.195-0.029,0.287-0.015c0.093,0.01,0.171,0.175,0.264,0.18c0.097,0.01,0.194-0.024,0.292-0.024
		c0.088,0,0.194,0.063,0.287,0.059s0.19-0.054,0.282-0.063c0.093-0.01,0.195,0,0.287-0.02c0.088-0.015,0.195-0.024,0.283-0.049
		c0.087-0.019,0.126-0.243,0.219-0.272s0.238,0.136,0.331,0.102c0.083-0.034,0.093-0.277,0.181-0.312
		c0.087-0.034,0.17-0.068,0.253-0.107c0.088-0.039,0.194-0.078,0.292-0.098c0.093-0.015,0.195-0.112,0.292-0.117
		c0.093-0.005,0.19,0.326,0.288,0.326c0.092,0.01,0.199-0.253,0.297-0.248c0.092,0.005,0.185,0.097,0.277,0.092
		c0.088,0,0.18-0.029,0.268-0.029c0.088-0.005,0.186,0.166,0.272,0.156c0.093,0,0.176-0.151,0.264-0.156
		c0.092-0.005,0.18-0.02,0.272-0.029c0.088-0.005,0.194,0.156,0.282,0.146c0.088-0.01,0.186,0,0.272-0.01
		c0.093-0.01,0.186-0.024,0.273-0.039c0.087-0.02,0.146-0.195,0.238-0.214c0.088-0.02,0.155-0.112,0.243-0.136s0.181,0,0.268-0.029
		c0.088-0.029,0.176-0.034,0.264-0.068C45.239,18.571,45.473,18.552,45.561,18.518z M44.897,24.395c0-0.098,0-0.19,0-0.283
		c0-0.097-0.019-0.194-0.019-0.292c0-0.097-0.039-0.185-0.039-0.282c0-0.098-0.264-0.19-0.264-0.273c0-0.097,0.293-0.19,0.293-0.272
		c0-0.098-0.078-0.19-0.078-0.273c-0.01-0.097,0.106-0.195,0.098-0.282c-0.01-0.098-0.059-0.195-0.068-0.273
		c-0.01-0.102,0.005-0.219-0.02-0.297c-0.024-0.102-0.186-0.161-0.234-0.229c-0.048-0.073-0.136-0.126-0.219-0.166
		c-0.073-0.039-0.151-0.161-0.248-0.175c-0.078-0.01-0.186,0.131-0.287,0.131c-0.083,0-0.171-0.034-0.269-0.024
		c-0.083,0-0.155,0.175-0.253,0.18c-0.088,0.005-0.194-0.18-0.292-0.17c-0.083,0.01-0.176-0.02-0.272-0.01
		c-0.088,0.01-0.156,0.214-0.254,0.224c-0.106,0.01-0.214-0.107-0.307-0.083c-0.103,0.024-0.209,0.039-0.287,0.083
		c-0.098,0.049-0.156,0.146-0.209,0.214c-0.063,0.078,0.014,0.205-0.015,0.302c-0.02,0.088-0.317,0.137-0.322,0.239
		c-0.01,0.093,0.293,0.19,0.303,0.297c0.01,0.088-0.01,0.18,0,0.273c0.01,0.087-0.01,0.18,0,0.272
		c0.01,0.088,0.053,0.175,0.058,0.263c0,0.092-0.292,0.2-0.287,0.292c0.005,0.088,0.181,0.17,0.181,0.263
		c0.01,0.087-0.146,0.185-0.146,0.272c0.005,0.093,0.088,0.18,0.088,0.273c0.005,0.087-0.049,0.185-0.044,0.272
		c0.005,0.093,0.199,0.17,0.204,0.263c0.005,0.092,0,0.185,0.005,0.272c0.01,0.093-0.097,0.195-0.092,0.283
		c0.005,0.097,0.068,0.185,0.072,0.272c0.006,0.098-0.048,0.195-0.048,0.283c0.01,0.107,0.067,0.194,0.077,0.282
		c0.005,0.097-0.136,0.195-0.131,0.282c0.005,0.103,0.111,0.195,0.116,0.273c0.015,0.107,0.088,0.195,0.103,0.272
		c0.024,0.107,0.156,0.137,0.195,0.205c0.049,0.083,0.029,0.146,0.126,0.17c0.073,0.02,0.142-0.044,0.254-0.049
		c0.077-0.004,0.16-0.014,0.263-0.024c0.083-0.015,0.194,0.112,0.292,0.097c0.088-0.015,0.189,0.049,0.292,0.029
		c0.083-0.015,0.137-0.273,0.234-0.287c0.082-0.015,0.189,0.063,0.287,0.043c0.092-0.015,0.189,0.029,0.287,0.02
		c0.093-0.02,0.224,0.126,0.297,0.107c0.093-0.029,0.146-0.175,0.21-0.224c0.067-0.049,0.038-0.18,0.077-0.253
		c0.039-0.068,0.19-0.117,0.2-0.205c0.015-0.078-0.054-0.175-0.063-0.268c0-0.093-0.054-0.19-0.054-0.287
		c0-0.098-0.015-0.195-0.015-0.292c0-0.097,0.156-0.19,0.156-0.287c0-0.098-0.264-0.195-0.264-0.288
		c0-0.097,0.127-0.195,0.127-0.292s0.078-0.195,0.078-0.292c0-0.098-0.049-0.195-0.049-0.292
		C44.732,24.59,44.897,24.492,44.897,24.395z M24.027,34.406c0.097,0.176,0.185,0.399,0.243,0.448
		c0.068,0.049,0.161,0.078,0.234,0.127c0.068,0.049,0.166,0.054,0.244,0.098c0.073,0.048,0.282-0.137,0.36-0.088
		c0.068,0.044-0.024,0.331,0.044,0.385c0.068,0.054,0.175,0.039,0.238,0.097c0.068,0.063,0.068,0.21,0.141,0.269
		c0.073,0.054,0.18,0.077,0.249,0.126c0.078,0.054,0.146,0.137,0.224,0.186c0.078,0.044,0.224-0.024,0.307,0.015
		c0.083,0.039,0.175,0.054,0.258,0.083c0.087,0.028,0.156,0.155,0.238,0.175c0.088,0.02,0.209-0.107,0.297-0.098
		c0.087,0.015,0.175,0.063,0.263,0.068c0.088,0,0.175-0.16,0.263-0.16c0.092-0.005,0.19,0.189,0.277,0.18
		c0.093-0.01,0.19,0.02,0.277,0c0.088-0.01,0.137-0.219,0.225-0.243c0.087-0.015,0.204,0.092,0.292,0.068
		c0.088-0.029,0.18-0.029,0.268-0.054c0.088-0.029,0.161-0.093,0.248-0.127c0.083-0.034,0.127-0.189,0.215-0.214
		c0.083-0.029,0.258,0.209,0.346,0.18c0.083-0.029,0.083-0.341,0.17-0.37c0.083-0.029,0.176-0.039,0.264-0.059
		c0.087-0.029,0.185-0.039,0.268-0.063c0.088-0.024,0.165-0.093,0.253-0.117c0.083-0.024,0.253,0.248,0.336,0.219
		c0.088-0.024,0.132-0.214,0.225-0.233c0.087-0.02,0.214,0.107,0.302,0.088c0.083-0.02,0.155-0.117,0.243-0.142
		c0.083-0.02,0.186,0.015,0.277-0.01c0.083-0.024,0.132-0.229,0.215-0.248c0.087-0.024,0.18-0.039,0.268-0.063
		s0.204,0.063,0.292,0.044c0.088-0.029,0.176-0.107,0.263-0.137c-0.067-0.073-0.102-0.194-0.175-0.253
		c-0.078-0.063-0.195-0.078-0.272-0.132c-0.078-0.054-0.088-0.229-0.176-0.277c-0.083-0.049-0.214-0.01-0.302-0.059
		c-0.083-0.049-0.194-0.044-0.272-0.103c-0.078-0.053-0.234-0.033-0.302-0.102c-0.068-0.068-0.093-0.195-0.146-0.282
		c-0.044-0.078-0.156-0.161-0.185-0.254c-0.029-0.087-0.02-0.312-0.029-0.419c0.077,0.039,0.248,0.181,0.331,0.22
		c0.077,0.039,0.126,0.141,0.204,0.18s0.272-0.141,0.351-0.106c0.078,0.039,0.117,0.155,0.205,0.199
		c0.077,0.039,0.126,0.132,0.214,0.171c0.078,0.038,0.088,0.233,0.165,0.272c0.083,0.039,0.205-0.02,0.283,0.02
		c0.077,0.039,0.146,0,0.229,0.039c-0.054-0.073-0.015-0.166-0.073-0.225c-0.068-0.063-0.185-0.068-0.253-0.116
		c-0.073-0.054-0.176-0.068-0.243-0.117c-0.068-0.049-0.146-0.098-0.21-0.156c-0.063-0.058-0.005-0.219-0.054-0.292
		c-0.049-0.078-0.312,0.01-0.36-0.049c-0.063-0.077-0.029-0.214-0.097-0.258c-0.078-0.054-0.117-0.17-0.2-0.194
		s-0.185,0.015-0.277,0.015c-0.083,0-0.204-0.146-0.292-0.122c-0.083,0.02-0.117,0.258-0.195,0.287
		c-0.087,0.029-0.175,0.039-0.253,0.068c-0.088,0.029-0.214-0.039-0.292,0c-0.073,0.029-0.068,0.194-0.132,0.258
		c-0.063,0.059-0.121,0.103-0.18,0.171c-0.049,0.068-0.282-0.02-0.341,0.039c-0.063,0.072,0.087,0.336,0.024,0.398
		c-0.068,0.068-0.2,0.068-0.269,0.132c-0.067,0.063-0.18,0.073-0.248,0.132c-0.073,0.059-0.112,0.16-0.18,0.214
		c-0.083,0.049-0.234-0.034-0.317,0.01c-0.082,0.044-0.136,0.107-0.219,0.142c-0.088,0.034-0.175-0.005-0.263,0.02
		c-0.088,0.02-0.146,0.067-0.244,0.072c-0.087,0.01-0.155-0.01-0.248-0.019c-0.092-0.01-0.156-0.029-0.248-0.054
		c-0.088-0.024-0.229,0.15-0.321,0.121c-0.078-0.034-0.078-0.253-0.166-0.292c-0.078-0.039-0.263,0.117-0.351,0.068
		c-0.073-0.049-0.156-0.098-0.233-0.156c-0.078-0.048-0.156-0.097-0.234-0.155c-0.107-0.078-0.166-0.093-0.263-0.059
		c-0.088,0.034-0.283-0.243-0.37-0.204c-0.088,0.028-0.078,0.312-0.166,0.341c-0.088,0.034-0.205-0.01-0.292,0.02
		c-0.087,0.038-0.161,0.092-0.243,0.126c-0.088,0.039-0.234-0.083-0.322-0.049c-0.087,0.039-0.117,0.21-0.204,0.244
		C24.368,34.349,24.115,34.372,24.027,34.406z M42.473,32.371c-0.097-0.049-0.268-0.233-0.351-0.277
		c-0.097-0.049-0.194-0.083-0.277-0.122c-0.098-0.054-0.199-0.063-0.287-0.106c-0.088-0.054-0.312,0.121-0.399,0.067
		c-0.083-0.059,0.01-0.355-0.068-0.419c-0.078-0.053-0.199-0.048-0.282-0.116c-0.078-0.059-0.083-0.205-0.161-0.272
		c-0.072-0.059-0.131,0.024-0.219-0.039c0.093-0.059,0.127,0.029,0.189-0.01c0.093-0.059,0.093-0.205,0.161-0.244
		c0.098-0.058,0.189-0.146,0.292-0.204c-0.063-0.088-0.107-0.292-0.17-0.37c-0.073,0.049-0.156,0.243-0.239,0.292
		c-0.077,0.049-0.175,0.059-0.253,0.107c-0.078,0.054-0.068,0.233-0.142,0.287c-0.082,0.054-0.268-0.054-0.336,0.01
		c-0.067,0.063-0.17,0.112-0.224,0.19c-0.049,0.082,0.049,0.272-0.005,0.351c-0.063,0.077-0.224,0.067-0.287,0.136
		c-0.068,0.068-0.156,0.117-0.225,0.181c-0.067,0.063-0.116,0.16-0.189,0.209c-0.083,0.059-0.098,0.224-0.181,0.272
		c-0.087,0.049-0.287-0.175-0.374-0.141c-0.093,0.034-0.098,0.351-0.19,0.37c-0.098,0.015-0.214,0.015-0.312,0.015
		c-0.093,0.005-0.204-0.01-0.302-0.02c-0.088-0.015-0.21,0.01-0.302-0.01c-0.088-0.02-0.098-0.341-0.19-0.37
		c-0.088-0.029-0.233,0.087-0.326,0.049c-0.078-0.039-0.088-0.225-0.175-0.273c-0.078-0.044-0.19-0.029-0.273-0.087
		c-0.067-0.044-0.146-0.142-0.233-0.166c-0.078-0.02-0.194,0.156-0.282,0.151c-0.083,0-0.156-0.005-0.225,0.015
		c-0.087,0.024-0.214-0.059-0.297-0.029s-0.15,0.106-0.238,0.141c-0.088,0.024-0.195,0-0.277,0.024
		c-0.083,0.029-0.161,0.107-0.244,0.127c-0.092,0.02-0.194-0.107-0.287-0.098c-0.088,0.015-0.155,0.117-0.248,0.117
		c-0.088,0-0.181,0.054-0.272,0.039c-0.083-0.02-0.21,0.073-0.298,0.039c-0.077-0.024-0.106-0.068-0.214-0.039
		c-0.073,0.029-0.122,0.126-0.214,0.165c-0.078,0.039-0.156,0.078-0.249,0.117c-0.082,0.039-0.219-0.049-0.316-0.02
		c0.078,0.049,0.117,0.166,0.195,0.214c0.077,0.044,0.282-0.116,0.36-0.067c0.072,0.043,0.106,0.165,0.175,0.214
		c0.078,0.044,0.117,0.146,0.195,0.194c0.077,0.044,0.059,0.239,0.136,0.283c0.078,0.044,0.205,0.005,0.282,0.049
		c0.078,0.048,0.21,0.009,0.283,0.053c0.077,0.044,0.087,0.21,0.165,0.249c0.073,0.049,0.186,0.029,0.263,0.077
		c0.078,0.049,0.181,0.049,0.254,0.093c0.078,0.044,0.16,0.083,0.233,0.127c0.078,0.044,0.073,0.219,0.151,0.268
		c0.082,0.044,0.238-0.185,0.346-0.175c0.097,0.01,0.185,0.121,0.272,0.097c0.093-0.024,0.204,0.029,0.297,0.01
		c0.093-0.029,0.171-0.102,0.258-0.126c0.088-0.024,0.22,0.102,0.313,0.077c0.087-0.029,0.126-0.258,0.214-0.282
		c0.088-0.029,0.185-0.024,0.277-0.049s0.21,0.059,0.302,0.039c0.088-0.024,0.142-0.185,0.229-0.214
		c0.092-0.02,0.185-0.029,0.282-0.054c0.088-0.024,0.233,0.18,0.326,0.151c0.093-0.02,0.103-0.322,0.199-0.351
		c0.088-0.024,0.205,0.038,0.293,0.019c0.087-0.023,0.194,0.02,0.287-0.009c0.093-0.02,0.16-0.107,0.253-0.127
		c0.093-0.029,0.224,0.098,0.312,0.073c0.093-0.024,0.171-0.083,0.263-0.107c0.093-0.024,0.2,0.01,0.288-0.015
		c0.087-0.029,0.17-0.083,0.263-0.107c0.088-0.029,0.185-0.029,0.272-0.059c0.093-0.019,0.186-0.038,0.272-0.058
		c0.088-0.029,0.127-0.254,0.22-0.283c0.093-0.02,0.233,0.146,0.326,0.127c0.088-0.029,0.127-0.272,0.214-0.292
		c0.088-0.029,0.181-0.049,0.273-0.078C42.112,32.361,42.386,32.4,42.473,32.371z M14.707,33.16
		c-0.02-0.088,0.107-0.049,0.097-0.142c-0.014-0.092-0.048-0.175-0.063-0.268c-0.015-0.088-0.063-0.175-0.078-0.263
		c-0.015-0.098-0.287-0.142-0.307-0.225c-0.02-0.097,0.234-0.272,0.205-0.351c-0.034-0.087-0.166-0.155-0.234-0.214
		c-0.059-0.059-0.107-0.224-0.205-0.272c-0.083-0.039-0.214-0.049-0.312-0.088c-0.087-0.034-0.195-0.103-0.287-0.122
		c-0.103-0.024-0.239,0.073-0.331,0.068c-0.142-0.015-0.258,0.024-0.297,0.073c-0.059,0.073-0.195,0.098-0.243,0.175
		c-0.044,0.078,0.048,0.234,0.014,0.317c-0.034,0.082-0.102,0.15-0.136,0.238c-0.029,0.088,0.098,0.214,0.073,0.307
		c-0.029,0.083-0.244,0.112-0.268,0.204c-0.024,0.083-0.092,0.161-0.117,0.249c-0.029,0.088,0.122,0.136,0.092,0.224
		c0.088,0.029,0.068,0.132,0.156,0.156c0.092,0.029,0.175,0.087,0.263,0.116c0.088,0.029,0.19,0.015,0.283,0.044
		c0.087,0.029,0.214-0.068,0.307-0.039c0.092,0.029,0.092,0.326,0.18,0.355c0.092,0.029,0.272-0.233,0.36-0.204
		c0.087,0.029,0.175,0.078,0.263,0.103c0.088,0.029,0.17,0.072,0.263,0.102c0.087,0.029,0.185,0.02,0.277,0.049
		c0.093,0.029,0.083,0.341,0.175,0.37c0.093,0.029,0.229-0.107,0.317-0.078c0.092,0.029,0.131,0.21,0.224,0.239
		c0.088,0.029,0.2-0.01,0.288,0.02c0.092,0.024,0.161,0.111,0.253,0.141c0.088,0.029,0.239-0.126,0.321-0.097
		c0.093,0.028,0.175,0.067,0.263,0.097c0.087,0.029,0.141,0.171,0.229,0.2c0.092,0.024,0.195,0.005,0.287,0.034
		c0.088,0.029,0.156,0.116,0.249,0.146c0.087,0.029,0.195,0,0.282,0.029c0.088,0.029,0.131,0.195,0.224,0.225
		c0.087,0.028,0.205-0.039,0.292-0.01c0.088,0.028,0.195-0.01,0.288,0.019c0.087,0.029,0.209-0.058,0.297-0.028
		c0.092,0.028,0.161,0.116,0.253,0.146c0.087,0.029,0.194-0.02,0.282,0.01c0.087,0.029,0.117,0.02,0.209,0
		c0.087-0.01,0.195,0.107,0.277,0.088c0.088-0.024,0.244-0.005,0.326-0.02c-0.015-0.083-0.248-0.214-0.253-0.312
		c-0.005-0.088,0.083-0.181,0.083-0.263c-0.01-0.098,0.044-0.19,0.029-0.273c-0.024-0.097,0.054-0.297-0.01-0.351
		c-0.068-0.059-0.205-0.044-0.272-0.097c-0.068-0.059-0.205-0.039-0.273-0.098c-0.068-0.059-0.053-0.215-0.126-0.272
		c-0.068-0.059-0.19-0.049-0.263-0.103c-0.068-0.054-0.175-0.063-0.248-0.112c-0.073-0.049-0.156-0.088-0.229-0.136
		c-0.078-0.049-0.078-0.225-0.156-0.269s-0.282,0.146-0.36,0.107s-0.107-0.189-0.185-0.224c-0.087-0.034-0.136-0.146-0.219-0.186
		c-0.083-0.034-0.185-0.024-0.272-0.063c-0.083-0.039-0.112-0.214-0.19-0.253c-0.088-0.034-0.253,0.137-0.336,0.107
		c-0.093-0.029-0.166-0.078-0.249-0.098c-0.092-0.02-0.166-0.146-0.258-0.156c-0.093-0.005-0.18,0.146-0.268,0.156
		c-0.087,0.01-0.166,0.01-0.253,0.039c-0.088,0.029-0.283-0.137-0.36-0.078c-0.068,0.044,0.024,0.331-0.049,0.395
		c-0.063,0.059-0.185,0.054-0.249,0.132c-0.054,0.063-0.166,0.097-0.219,0.175C14.746,33.131,14.756,33.072,14.707,33.16z
		 M29.521,30.365c-0.088-0.01-0.254-0.098-0.317-0.107c-0.092-0.02-0.209-0.01-0.268,0c-0.088,0.01-0.175,0.068-0.263,0.078
		c-0.093,0.02-0.146,0.292-0.233,0.307c-0.093,0.015-0.229-0.268-0.322-0.248c-0.087,0.01-0.165,0.102-0.258,0.111
		c-0.092,0.015-0.199-0.082-0.287-0.072c-0.088,0.014-0.175,0.067-0.263,0.082c-0.092,0.015-0.189-0.01-0.277,0
		c-0.092,0.015-0.166,0.151-0.258,0.161c-0.087,0.01-0.18,0.039-0.272,0.049c-0.088,0.015-0.19-0.078-0.282-0.068
		c-0.088,0.015-0.166,0.175-0.253,0.185c-0.092,0.01-0.19-0.024-0.282-0.015c-0.088,0.015-0.166,0.181-0.258,0.19
		c-0.092,0.005-0.2-0.186-0.287-0.176c-0.098,0-0.19-0.029-0.283-0.024c-0.087,0.005-0.17,0.205-0.258,0.21
		c-0.093,0.005-0.19-0.127-0.278-0.117c-0.097,0-0.185-0.02-0.282-0.02c-0.088,0-0.18,0.039-0.273,0.049
		c-0.087,0-0.18,0.127-0.272,0.127c-0.093,0-0.18-0.282-0.273-0.282c-0.092,0-0.19,0.302-0.282,0.297
		c-0.088-0.005-0.18-0.024-0.273-0.029c-0.087-0.005-0.185-0.024-0.277-0.034c-0.087-0.005-0.185,0.029-0.277,0.02
		c-0.088-0.005-0.156-0.312-0.249-0.321c-0.093-0.01-0.2,0.146-0.287,0.136c-0.098-0.01-0.166-0.175-0.253-0.194
		c-0.087-0.01-0.244,0.039-0.307,0.078c-0.063,0.034-0.17,0.029-0.239,0.077c-0.073,0.049,0,0.225-0.01,0.283
		c-0.01,0.092-0.039,0.175-0.049,0.263c-0.02,0.088-0.146,0.165-0.156,0.253c-0.02,0.088,0.029,0.186,0.01,0.272
		c-0.01,0.093-0.078,0.171-0.097,0.264c-0.01,0.087,0.039,0.18,0.02,0.272c-0.01,0.088-0.166,0.156-0.175,0.248
		c-0.01,0.093,0.078,0.19,0.068,0.277c-0.01,0.093,0.039,0.195,0.029,0.283c0.088-0.01,0.166-0.127,0.244-0.137
		c0.087-0.005,0.175,0.054,0.253,0.049c0.088-0.005,0.137-0.088,0.214-0.107c0.088-0.024,0.175-0.054,0.263-0.078
		c0.092-0.023,0.214,0.088,0.307,0.059c0.092-0.02,0.2,0.024,0.287,0c0.088-0.029,0.112-0.287,0.2-0.312
		c0.093-0.029,0.2,0.034,0.292,0.005c0.092-0.024,0.189,0.005,0.282-0.015c0.092-0.029,0.229,0.107,0.316,0.083
		c0.088-0.024,0.151-0.146,0.239-0.171c0.092-0.028,0.151-0.15,0.238-0.175c0.088-0.029,0.214,0.073,0.302,0.049
		c0.092-0.024,0.161-0.122,0.248-0.146c0.093-0.029,0.166-0.103,0.258-0.126c0.088-0.024,0.175-0.059,0.263-0.083
		c0.088-0.024,0.219,0.102,0.312,0.073c0.087-0.02,0.107-0.303,0.195-0.322c0.092-0.023,0.214,0.078,0.302,0.049
		c0.092-0.02,0.205,0.039,0.292,0.015c0.088-0.024,0.166-0.097,0.258-0.121c0.092-0.02,0.209,0.106,0.307,0.092
		c0.088-0.02,0.131-0.258,0.224-0.272c0.087-0.015,0.185-0.01,0.272-0.029c0.088-0.015,0.2,0.073,0.292,0.063
		c0.092-0.02,0.156-0.175,0.243-0.194c0.093-0.02,0.185-0.02,0.278-0.034c0.092-0.015,0.224,0.199,0.316,0.185
		c0.088-0.02,0.132-0.316,0.224-0.336c0.088-0.02,0.195,0.059,0.288,0.044c0.092-0.015,0.194,0.034,0.287,0.02
		c0.088-0.02,0.175-0.093,0.263-0.112c0.093-0.02,0.253,0.107,0.341,0.088c0.01-0.034,0.063-0.233,0.088-0.351
		c0.01-0.078,0.088-0.146,0.107-0.238C29.521,30.657,29.501,30.447,29.521,30.365z M14.678,18.698
		c0.049,0.083,0.088,0.341,0.131,0.418c0.054,0.083,0.122,0.156,0.17,0.239c0.049,0.083,0.137,0.141,0.195,0.214
		c0.049,0.078,0.322-0.005,0.38,0.068c0.059,0.073-0.112,0.336-0.048,0.404c0.058,0.073,0.185,0.098,0.248,0.166
		c0.063,0.068,0.063,0.214,0.131,0.283c0.068,0.063,0.175,0.097,0.249,0.156s0.136,0.151,0.209,0.205
		c0.078,0.053,0.234,0,0.312,0.048c0.088,0.049,0.175,0.078,0.263,0.117c0.087,0.039,0.136,0.17,0.224,0.205
		c0.093,0.029,0.234-0.083,0.322-0.059c0.087,0.024,0.175,0.083,0.263,0.097c0.098,0.02,0.205-0.126,0.297-0.117
		c0.093,0.01,0.17,0.209,0.268,0.209c0.087,0,0.195,0.039,0.282,0.034c0.098-0.005,0.17-0.205,0.263-0.224
		c0.097-0.01,0.205,0.107,0.287,0.087c0.093-0.019,0.19-0.019,0.273-0.048c0.083-0.029,0.161-0.098,0.238-0.136
		c0.088-0.044,0.103-0.195,0.18-0.239c0.083-0.049,0.307,0.146,0.385,0.092c0.078-0.048-0.029-0.351,0.039-0.399
		c0.073-0.059,0.146-0.098,0.214-0.156c0.068-0.063,0.141-0.107,0.205-0.175c0.068-0.063,0.097-0.151,0.156-0.219
		c0.059-0.063,0.351,0.068,0.404,0c0.063-0.068-0.01-0.249,0.053-0.322c0.054-0.068,0.239-0.039,0.292-0.112
		c0.058-0.068,0.058-0.185,0.117-0.253c0.059-0.078,0.17-0.253,0.224-0.321c-0.088,0-0.292,0.137-0.385,0.137
		c-0.093,0.009-0.19,0-0.278,0.009c-0.097,0-0.194-0.112-0.292-0.107c-0.087,0-0.18,0.059-0.277,0.063
		c-0.093,0.005-0.19-0.054-0.283-0.049c-0.092,0.005-0.19,0.063-0.277,0.063c-0.098,0.005-0.195-0.137-0.283-0.137
		c-0.097,0.005-0.185,0.107-0.282,0.107c-0.088,0-0.185,0.068-0.273,0.068c-0.097,0-0.189,0.127-0.282,0.127
		c-0.097,0-0.185-0.063-0.282-0.068c-0.098,0-0.195,0.073-0.283,0.068c-0.097,0-0.195,0.005-0.282,0
		c-0.098,0-0.185-0.146-0.283-0.146c-0.087-0.005-0.18-0.083-0.272-0.088c-0.093,0-0.205,0.239-0.292,0.234
		c-0.098,0-0.185-0.098-0.278-0.107c-0.092-0.01-0.18-0.078-0.277-0.083c-0.093-0.005-0.166-0.19-0.263-0.195
		c-0.092-0.01-0.195,0.083-0.282,0.073c-0.098-0.009-0.2,0.083-0.292,0.068c-0.097-0.01-0.17-0.151-0.263-0.166
		c-0.093-0.015-0.195,0.049-0.288,0.029c-0.092-0.01-0.19,0.024-0.287,0.01C14.989,18.863,14.775,18.717,14.678,18.698z
		 M17.551,30.312c0.098-0.005,0.341,0.068,0.429,0.063c0.102-0.005,0.19-0.029,0.282-0.039c0.098-0.005,0.195-0.049,0.283-0.059
		c0.097-0.01,0.17-0.282,0.263-0.287c0.098-0.005,0.209,0.277,0.302,0.277c0.088-0.01,0.18-0.093,0.273-0.098
		c0.097-0.01,0.205,0.093,0.287,0.078c0.093-0.01,0.19-0.073,0.268-0.093c0.097-0.024,0.205-0.015,0.282-0.044
		c0.093-0.029,0.136-0.185,0.214-0.224c0.083-0.039,0.156-0.107,0.224-0.156c0.073-0.053,0.214-0.048,0.272-0.116
		c0.063-0.068-0.005-0.234,0.039-0.312c0.044-0.073,0.112-0.137,0.141-0.229c0.024-0.082-0.117-0.189-0.107-0.282
		c0.01-0.083,0.209-0.16,0.209-0.248c-0.005-0.088,0.029-0.186,0.02-0.277c-0.015-0.088-0.224-0.142-0.244-0.229
		c-0.02-0.087,0.087-0.204,0.059-0.292c-0.029-0.107-0.005-0.229-0.029-0.336c-0.02-0.088-0.078-0.166-0.098-0.258
		c-0.02-0.087-0.166-0.146-0.185-0.238c-0.015-0.093,0.244-0.234,0.229-0.316c-0.02-0.093-0.336-0.117-0.355-0.205
		c-0.015-0.093-0.015-0.175-0.039-0.268c-0.02-0.083-0.02-0.175-0.044-0.258c-0.024-0.088-0.083-0.161-0.112-0.244
		c-0.029-0.088,0.224-0.268,0.195-0.351c-0.029-0.088-0.234-0.098-0.292-0.166c-0.059-0.068-0.039-0.258-0.112-0.312
		c-0.073-0.049-0.209-0.029-0.297-0.068c-0.088-0.029-0.175-0.112-0.268-0.122c-0.092-0.015-0.19,0.17-0.282,0.175
		c-0.093,0.005-0.17,0.005-0.258,0.034c-0.083,0.029-0.214-0.039-0.292,0.01c-0.097,0.059-0.141,0.166-0.185,0.224
		c-0.078,0.088-0.156,0.19-0.146,0.278c0.01,0.083,0.107,0.17,0.17,0.248c0.054,0.073,0.015,0.244,0.073,0.312
		c0.063,0.078,0.194,0.073,0.233,0.146c0.049,0.087,0.146,0.136,0.19,0.224c0.044,0.093,0.19,0.137,0.224,0.224
		c0.034,0.088,0.015,0.209,0.044,0.297c0.029,0.092,0.126,0.175,0.146,0.268c0.02,0.097,0.044,0.205,0.054,0.302
		c0.014,0.098-0.122,0.205-0.132,0.302c0,0.092-0.083,0.175-0.097,0.272c-0.015,0.087,0.205,0.249,0.175,0.341
		c-0.029,0.087-0.156,0.155-0.195,0.248c-0.039,0.083-0.136,0.146-0.185,0.229c-0.049,0.088-0.234,0.068-0.292,0.151
		c-0.059,0.073-0.029,0.209-0.088,0.287c-0.059,0.063-0.039,0.194-0.097,0.258c-0.059,0.054-0.214,0.015-0.278,0.078
		c-0.063,0.054-0.073,0.166-0.151,0.219c-0.059,0.054-0.097,0.151-0.166,0.205c-0.059,0.059-0.117,0.117-0.185,0.175
		C17.853,30.16,17.619,30.248,17.551,30.312z M14.123,27.424c0.039,0.073,0.093,0.195,0.132,0.277
		c0.039,0.083,0.092,0.151,0.131,0.229c0.034,0.083,0.107,0.146,0.146,0.234c0.039,0.078,0.312,0.039,0.351,0.117
		c0.049,0.087-0.166,0.312-0.117,0.379c0.048,0.078,0.175,0.117,0.233,0.176c0.059,0.068,0.083,0.233,0.156,0.282
		c0.078,0.044,0.194,0.054,0.282,0.093c0.078,0.039,0.161,0.112,0.249,0.142c0.083,0.033,0.219-0.054,0.307-0.029
		c0.087,0.024,0.185,0.024,0.277,0.044c0.093,0.014,0.17,0.131,0.258,0.141c0.097,0.01,0.2-0.132,0.292-0.132
		c0.098,0.005,0.185,0.039,0.278,0.034c0.092-0.01,0.151-0.18,0.243-0.194c0.093-0.02,0.229,0.146,0.317,0.107
		c0.087-0.029,0.194-0.044,0.282-0.098c0.078-0.049,0.029-0.263,0.097-0.326c0.068-0.063,0.224-0.034,0.288-0.107
		c0.063-0.073,0.136-0.141,0.185-0.219c0.053-0.078,0.063-0.186,0.097-0.273c0.039-0.087-0.054-0.214-0.029-0.301
		c0.024-0.088,0.327-0.127,0.336-0.214c0.02-0.098-0.282-0.214-0.282-0.302c0-0.098,0.01-0.166-0.005-0.263
		c-0.02-0.087-0.024-0.166-0.059-0.249c-0.034-0.087-0.107-0.136-0.161-0.219c-0.048-0.083,0.146-0.331,0.088-0.409
		c-0.063-0.078-0.258-0.039-0.326-0.112c-0.068-0.068-0.024-0.253-0.103-0.317c-0.068-0.068-0.195-0.078-0.272-0.136
		c-0.073-0.063-0.117-0.17-0.195-0.224c-0.059-0.048-0.214,0.098-0.307,0.107c-0.073,0-0.151,0-0.239,0.015
		c-0.078,0.015-0.185-0.083-0.263-0.063c-0.087,0.02-0.156,0.083-0.233,0.088c-0.112,0.01-0.219-0.039-0.331-0.059
		c-0.098-0.01-0.195,0.034-0.283,0.029c-0.092,0-0.195-0.146-0.282-0.142c-0.098,0.005-0.185,0.112-0.273,0.132
		c-0.097,0.02-0.166,0.112-0.248,0.146c-0.083,0.034-0.093,0.175-0.161,0.224c-0.068,0.058-0.166,0.058-0.224,0.136
		c-0.054,0.068-0.029,0.166-0.078,0.253c-0.039,0.073-0.068,0.146-0.097,0.233c-0.029,0.078-0.185,0.117-0.214,0.214
		c-0.02,0.078-0.112,0.156-0.126,0.249C14.225,27.2,14.137,27.326,14.123,27.424z M31.799,23.129
		c0.059,0.078,0.078,0.351,0.127,0.429c0.049,0.078,0.107,0.136,0.15,0.219c0.044,0.083,0.117,0.137,0.161,0.219
		c0.039,0.078,0.321,0.063,0.351,0.146c0.039,0.088-0.209,0.273-0.186,0.36c0.029,0.083,0.127,0.146,0.146,0.234
		c0.02,0.087-0.068,0.195-0.054,0.282c0.02,0.088,0.073,0.166,0.083,0.253c0.01,0.092-0.02,0.175-0.01,0.272
		c0,0.088,0.132,0.17,0.132,0.263c0,0.087,0.015,0.185,0.01,0.272c-0.005,0.088-0.112,0.17-0.122,0.263
		c-0.01,0.087,0.127,0.195,0.117,0.292c-0.015,0.088-0.068,0.17-0.088,0.263c-0.02,0.087,0.122,0.214,0.098,0.302
		c-0.02,0.088-0.229,0.126-0.254,0.219c-0.029,0.083-0.087,0.161-0.116,0.249c-0.024,0.087,0.126,0.233,0.102,0.321
		c-0.029,0.087-0.189,0.126-0.219,0.214c-0.034,0.088-0.088,0.165-0.122,0.248s-0.029,0.181-0.063,0.268
		c-0.038,0.088,0.034,0.098,0,0.181c0.088-0.005,0.083,0.219,0.166,0.209c0.088-0.005,0.156-0.312,0.233-0.316
		c0.093-0.005,0.176,0.005,0.259,0c0.092-0.005,0.17,0.005,0.258-0.005c0.098-0.01,0.18-0.068,0.272-0.088
		c0.098-0.015,0.253,0.264,0.341,0.244c0.107-0.024,0.156-0.215,0.244-0.244c0.092-0.039,0.258,0.068,0.331,0.024
		c0.092-0.054,0.146-0.18,0.214-0.243c0.068-0.068,0.189-0.137,0.233-0.229c0.039-0.078-0.106-0.239-0.087-0.341
		c0.015-0.083,0.033-0.17,0.033-0.272c0-0.088,0.112-0.19,0.093-0.292c-0.01-0.092-0.078-0.185-0.093-0.282
		c-0.019-0.088,0.02-0.2,0-0.297c-0.023-0.093-0.097-0.17-0.121-0.263c-0.029-0.087,0.088-0.224,0.059-0.316
		c-0.029-0.088-0.156-0.146-0.19-0.239c-0.034-0.092-0.126-0.151-0.16-0.238c-0.039-0.088-0.186-0.127-0.225-0.209
		c-0.039-0.083-0.029-0.195-0.068-0.278c-0.043-0.078-0.15-0.126-0.204-0.205c-0.049-0.078-0.098-0.146-0.151-0.224
		c-0.053-0.078,0.005-0.234-0.053-0.312c-0.059-0.073-0.068-0.19-0.127-0.263c-0.059-0.068-0.302,0.029-0.37-0.029
		c-0.063-0.068-0.068-0.195-0.137-0.253c-0.077-0.058-0.102-0.166-0.175-0.224c-0.078-0.059-0.059-0.253-0.137-0.307
		c-0.078-0.053-0.214-0.024-0.297-0.073C32.105,23.285,31.882,23.173,31.799,23.129z M39.298,28.992
		c0.01,0.097-0.02,0.312-0.005,0.389c0.02,0.098,0.073,0.215,0.103,0.283c0.039,0.087,0.165,0.185,0.233,0.233
		c0.063,0.049,0.234-0.166,0.331-0.146c0.073,0.01,0.146,0.308,0.244,0.303c0.077-0.01,0.17-0.098,0.268-0.117
		c0.088-0.02,0.199,0.078,0.287,0.059c0.093-0.02,0.176-0.078,0.263-0.098c0.088-0.015,0.186,0.01,0.278-0.01
		c0.092-0.02,0.16-0.156,0.248-0.17c0.088-0.015,0.175-0.054,0.263-0.068s0.195,0.068,0.287,0.054
		c0.093-0.015,0.156-0.181,0.244-0.195c0.092-0.01,0.189,0.01,0.277-0.005s0.155-0.189,0.243-0.204s0.215,0.16,0.302,0.15
		c0.088-0.015,0.186,0.01,0.273-0.005c0.092-0.015,0.155-0.219,0.243-0.238c0.088-0.01,0.199,0.107,0.292,0.093
		c0.088-0.015,0.181-0.005,0.272-0.02c0.098-0.015,0.176-0.068,0.264-0.083c0.092-0.01,0.16-0.156,0.253-0.171
		c0.088-0.014,0.224,0.249,0.316,0.239c0.093-0.02,0.132-0.331,0.219-0.346c0.093-0.015,0.186-0.015,0.273-0.024
		c0.092-0.02,0.185-0.02,0.272-0.029c0.093-0.015,0.175-0.073,0.263-0.088c0.093-0.02,0.233,0.263,0.321,0.248
		c0.093-0.014,0.156-0.199,0.244-0.219c0.067-0.01,0.214,0.107,0.297,0.068c0.072-0.039,0.126-0.151,0.194-0.195
		c0.073-0.053,0.19-0.077,0.238-0.136c0.068-0.078-0.038-0.234-0.038-0.302c0.01-0.127,0.01-0.186-0.02-0.249
		c-0.049-0.093-0.083-0.209-0.186-0.219c-0.088,0-0.185,0.068-0.282,0.087c-0.098,0.015-0.186-0.029-0.263-0.034
		c-0.088-0.005-0.186,0.053-0.269,0.063c-0.082,0.01-0.194-0.117-0.277-0.097c-0.098,0.01-0.17,0.126-0.263,0.141
		c-0.098,0.015-0.176,0.097-0.263,0.112c-0.098,0.015-0.166,0.146-0.264,0.166c-0.092,0.01-0.194-0.034-0.282-0.015
		c-0.098,0.015-0.175,0.102-0.268,0.116s-0.181,0.034-0.277,0.054c-0.093,0.015-0.205-0.106-0.302-0.087
		c-0.093,0.01-0.195-0.044-0.293-0.029c-0.087,0.02-0.141,0.277-0.233,0.292s-0.199-0.059-0.292-0.039
		c-0.098,0.015-0.195-0.029-0.287-0.01c-0.093,0.015-0.22-0.137-0.307-0.117c-0.093,0.01-0.166,0.132-0.264,0.146
		c-0.087,0.01-0.165,0.132-0.253,0.146c-0.098,0.02-0.214-0.092-0.302-0.077c-0.098,0.01-0.176,0.102-0.268,0.121
		c-0.093,0.015-0.176,0.083-0.269,0.093c-0.097,0.02-0.185,0.049-0.277,0.059c-0.093,0.02-0.209-0.117-0.307-0.103
		c-0.088,0.015-0.137,0.292-0.233,0.307c-0.088,0.01-0.205-0.087-0.298-0.077c-0.092,0.015-0.199-0.049-0.297-0.029
		c-0.087,0.02-0.175,0.087-0.272,0.097C39.609,29.074,39.396,28.982,39.298,28.992z M14.775,29.795
		c-0.068,0.083-0.205,0.2-0.263,0.269c-0.068,0.087-0.126,0.185-0.166,0.263c-0.063,0.098-0.078,0.258-0.078,0.341
		c-0.009,0.088,0.244,0.054,0.332,0.127c0.058,0.058-0.029,0.351,0.068,0.398c0.078,0.039,0.205,0.005,0.307,0.044
		c0.083,0.034,0.141,0.171,0.238,0.21c0.088,0.029,0.185,0.02,0.273,0.049c0.087,0.028,0.161,0.087,0.243,0.116
		c0.088,0.029,0.214-0.054,0.302-0.029c0.087,0.029,0.18,0.044,0.268,0.068c0.083,0.029,0.141,0.156,0.224,0.186
		c0.087,0.029,0.224-0.088,0.307-0.059c0.088,0.029,0.166,0.097,0.253,0.126c0.083,0.029,0.224-0.097,0.312-0.067
		c0.083,0.029,0.107,0.243,0.195,0.272c0.087,0.029,0.161,0.098,0.244,0.126c0.087,0.029,0.243-0.126,0.326-0.097
		c0.083,0.029,0.131,0.185,0.214,0.214c0.087,0.029,0.166,0.083,0.253,0.117c0.083,0.029,0.185,0.02,0.268,0.049
		c0.087,0.029,0.219-0.063,0.302-0.029c0.092,0.029,0.117,0.321,0.19,0.331c0.097,0.015,0.122-0.282,0.19-0.321
		c0.068-0.034,0.078-0.02,0.117-0.107c0.029-0.068,0.059-0.112,0.078-0.209c0.02-0.098-0.01-0.181,0-0.269
		c0.01-0.097,0.312-0.185,0.302-0.268c-0.005-0.103-0.195-0.17-0.224-0.248c-0.029-0.088,0.039-0.268-0.02-0.331
		c-0.063-0.059-0.205-0.078-0.292-0.122c-0.073-0.039-0.151-0.132-0.244-0.16c-0.078-0.029-0.219,0.136-0.316,0.111
		c-0.083-0.015-0.17-0.044-0.268-0.054c-0.088-0.02-0.166-0.146-0.263-0.16c-0.087-0.015-0.19,0.024-0.287,0.005
		c-0.093-0.02-0.175-0.098-0.268-0.112c-0.097-0.015-0.195,0.015-0.292-0.005c-0.093-0.02-0.156-0.175-0.244-0.199
		c-0.097-0.024-0.205,0.054-0.302,0.034c-0.093-0.024-0.195,0.02-0.292,0c-0.088-0.024-0.209,0.067-0.302,0.048
		c-0.087-0.019-0.166-0.106-0.258-0.126c-0.093-0.024-0.2,0.02-0.297,0c-0.087-0.024-0.185-0.039-0.277-0.063
		c-0.093-0.024-0.151-0.181-0.244-0.204c-0.092-0.024-0.17-0.112-0.258-0.137C15.038,29.907,14.873,29.819,14.775,29.795z
		 M21.485,18.308c-0.059-0.068-0.131-0.321-0.195-0.39c-0.058-0.068-0.141-0.126-0.205-0.195c-0.068-0.063-0.166-0.102-0.233-0.156
		c-0.068-0.063-0.312,0.088-0.38,0.034c-0.078-0.054,0.02-0.346-0.054-0.399c-0.083-0.054-0.2-0.034-0.277-0.078
		c-0.078-0.044-0.122-0.19-0.205-0.229c-0.078-0.039-0.195-0.034-0.278-0.068c-0.087-0.029-0.17-0.097-0.258-0.117
		c-0.088-0.029-0.214,0.068-0.302,0.049c-0.087-0.02-0.185-0.015-0.272-0.029c-0.088-0.015-0.175-0.122-0.263-0.127
		c-0.092-0.009-0.194,0.137-0.282,0.137s-0.185-0.039-0.272-0.029c-0.088,0.005-0.161,0.175-0.253,0.185
		c-0.088,0.01-0.205-0.17-0.292-0.151c-0.093,0.015-0.195-0.005-0.283,0.02c-0.087,0.024-0.117,0.238-0.209,0.263
		c-0.083,0.029-0.214-0.068-0.297-0.034c-0.087,0.029-0.185,0.044-0.263,0.078c-0.087,0.039-0.146,0.117-0.233,0.161
		c-0.078,0.044-0.088,0.2-0.166,0.249c-0.078,0.048-0.312-0.142-0.385-0.088c-0.073,0.049,0.029,0.351-0.044,0.399
		c-0.068,0.059-0.146,0.097-0.214,0.156c-0.068,0.059-0.146,0.107-0.214,0.17c-0.059,0.063-0.068-0.02-0.127,0.049
		c0.098,0,0.049,0.219,0.146,0.219c0.088,0,0.185-0.175,0.283-0.175c0.092,0,0.185,0.166,0.282,0.166
		c0.093,0,0.185-0.073,0.283-0.073c0.087,0,0.185,0.059,0.282,0.059c0.088,0,0.185-0.19,0.283-0.19c0.092,0,0.185,0.01,0.277,0.01
		c0.092,0,0.19,0.117,0.277,0.117c0.098,0,0.19-0.049,0.283-0.049c0.092,0,0.185,0.059,0.282,0.059c0.088,0,0.185-0.054,0.278-0.054
		c0.092,0,0.185,0.141,0.277,0.141c0.098,0,0.185-0.097,0.283-0.097c0.092,0,0.185-0.063,0.277-0.063s0.19-0.117,0.277-0.117
		c0.098,0,0.19,0.063,0.283,0.063c0.097,0,0.185-0.068,0.282-0.068c0.088,0,0.185-0.01,0.278-0.01c0.092,0,0.19,0.136,0.277,0.136
		c0.098,0,0.185,0.078,0.283,0.078c0.092,0,0.185-0.249,0.282-0.249c0.088,0,0.185,0.093,0.282,0.093
		C21.154,18.162,21.388,18.308,21.485,18.308z M29.472,31.719c0.039,0.127,0.116,0.429,0.155,0.555
		c0.093-0.02,0.316-0.02,0.409-0.029c0.088-0.02,0.176-0.077,0.263-0.092c0.093-0.015,0.137-0.297,0.229-0.312
		c0.087-0.015,0.238,0.258,0.326,0.238s0.165-0.107,0.263-0.127c0.088-0.015,0.205,0.078,0.292,0.063
		c0.088-0.015,0.176-0.073,0.264-0.093c0.092-0.02,0.194,0,0.282-0.015c0.087-0.02,0.16-0.155,0.253-0.17
		c0.088-0.02,0.176-0.059,0.263-0.068c0.093-0.02,0.205,0.063,0.292,0.049c0.088-0.02,0.156-0.186,0.249-0.205
		c0.092-0.014,0.189,0.01,0.277-0.009c0.093-0.02,0.156-0.195,0.243-0.215c0.093-0.02,0.225,0.156,0.312,0.142
		c0.093-0.015,0.195,0.005,0.283-0.01c0.087-0.02,0.146-0.229,0.233-0.249c0.093-0.015,0.214,0.098,0.302,0.083
		c0.088-0.02,0.186-0.015,0.282-0.029c0.088-0.015,0.176-0.072,0.264-0.097c0.087-0.024,0.155-0.166,0.243-0.186
		c0.088-0.024,0.238,0.238,0.331,0.219c0.088-0.019,0.117-0.341,0.204-0.355c0.083-0.019,0.088-0.014,0.166-0.092
		c0.049-0.063,0.107-0.112,0.166-0.2c0.043-0.073,0.048-0.17,0.097-0.253s0.355,0,0.404-0.083c0.054-0.078-0.044-0.224,0.015-0.297
		c-0.093,0.024-0.199-0.103-0.292-0.073c-0.088,0.02-0.156,0.117-0.248,0.137c-0.093,0.029-0.195-0.01-0.288,0.015
		c-0.087,0.024-0.126,0.229-0.219,0.258c-0.093,0.02-0.18,0.029-0.272,0.059c-0.093,0.024-0.21-0.068-0.297-0.044
		c-0.088,0.024-0.166,0.098-0.254,0.122c-0.087,0.024-0.194-0.01-0.282,0.01c-0.093,0.029-0.165,0.102-0.258,0.126
		c-0.088,0.02-0.215-0.097-0.307-0.067c-0.088,0.019-0.151,0.141-0.244,0.16c-0.087,0.024-0.155,0.112-0.248,0.132
		c-0.093,0.029-0.151,0.165-0.238,0.189c-0.088,0.024-0.195-0.015-0.283,0.01c-0.092,0.024-0.165,0.112-0.253,0.142
		c-0.088,0.024-0.175,0.049-0.263,0.073c-0.093,0.024-0.214-0.093-0.307-0.063c-0.093,0.024-0.2-0.029-0.287,0
		c-0.088,0.024-0.117,0.287-0.205,0.307c-0.088,0.024-0.199-0.039-0.292-0.015c-0.088,0.029-0.194-0.01-0.282,0.01
		c-0.088,0.029-0.225-0.117-0.312-0.088c-0.088,0.02-0.151,0.142-0.239,0.166c-0.092,0.024-0.15,0.146-0.238,0.175
		c-0.093,0.02-0.214-0.088-0.302-0.059c-0.088,0.02-0.156,0.117-0.243,0.142C29.793,31.719,29.554,31.699,29.472,31.719z
		 M19.094,24.122c0.015-0.087,0.068-0.238,0.088-0.321c0.015-0.083,0.015-0.166,0.034-0.248c0.02-0.083,0-0.18,0.01-0.258
		c0.02-0.087-0.234-0.205-0.224-0.282c0.005-0.088,0.297-0.175,0.292-0.253c-0.01-0.092-0.117-0.205-0.156-0.316
		c-0.044-0.103,0-0.273-0.053-0.36c-0.073-0.112-0.283-0.229-0.355-0.239c-0.098-0.01-0.219-0.049-0.322-0.049
		c-0.097,0.005-0.19,0.142-0.287,0.156c-0.098,0.014-0.19,0.048-0.287,0.068c-0.098,0.02-0.214-0.059-0.312-0.039
		c-0.092,0.02-0.136,0.166-0.233,0.185c0.029,0.088,0.024,0.166,0.058,0.258c0.029,0.092,0.214,0.136,0.244,0.229
		c0.029,0.097-0.126,0.248-0.098,0.341c0.029,0.097,0.02,0.205,0.049,0.292c0.02,0.054,0.253,0.049,0.268,0.102
		c0.024,0.103-0.083,0.229-0.054,0.307c0.039,0.107,0.068,0.205,0.126,0.272c0.068,0.088,0.175,0.122,0.253,0.156
		c0.087,0.039,0.185-0.078,0.282-0.078c0.093,0,0.234,0.253,0.331,0.224C18.836,24.244,19.007,24.161,19.094,24.122z M20.458,34.641
		c0.054,0.049,0.151,0.214,0.205,0.258c0.053,0.044,0.2,0.112,0.258,0.161c0.083-0.034,0.224-0.122,0.312-0.156
		c0.083-0.039,0.068-0.321,0.156-0.355c0.087-0.034,0.292,0.199,0.379,0.166c0.088-0.034,0.146-0.142,0.234-0.181
		c0.088-0.039,0.214,0.029,0.302-0.005c0.087-0.034,0.156-0.112,0.243-0.151c0.088-0.033,0.195-0.038,0.278-0.072
		c0.083-0.034,0.131-0.19,0.214-0.225c0.088-0.034,0.17-0.087,0.258-0.121c0.083-0.039,0.209,0.02,0.302-0.02
		c0.083-0.034,0.112-0.21,0.205-0.244c0.083-0.039,0.185-0.039,0.273-0.072c0.087-0.034,0.112-0.225,0.204-0.259
		c0.083-0.039,0.249,0.107,0.332,0.068c0.087-0.034,0.194-0.034,0.282-0.068c0.087-0.039,0.097-0.253,0.19-0.292
		c0.083-0.034,0.229,0.059,0.316,0.015c0.088-0.039,0.185-0.049,0.273-0.083c0.087-0.039,0.161-0.116,0.243-0.146
		c0.088-0.039,0.063-0.02,0.156-0.059c-0.166-0.098-0.141-0.37-0.175-0.36c-0.087,0.024-0.097,0.341-0.19,0.36
		c-0.092,0.02-0.18,0.029-0.272,0.049c-0.093,0.024-0.18,0.029-0.272,0.059c-0.088,0.02-0.171,0.087-0.258,0.106
		c-0.088,0.024-0.253-0.243-0.341-0.219c-0.093,0.02-0.136,0.209-0.229,0.229c-0.092,0.024-0.219-0.106-0.307-0.082
		c-0.088,0.023-0.166,0.111-0.253,0.141c-0.087,0.024-0.195-0.01-0.282,0.01c-0.088,0.029-0.126,0.233-0.219,0.258
		c-0.092,0.024-0.18,0.034-0.268,0.063c-0.088,0.02-0.209-0.068-0.297-0.039c-0.092,0.02-0.166,0.098-0.258,0.122
		c-0.088,0.024-0.195-0.01-0.283,0.015c-0.087,0.024-0.166,0.098-0.248,0.127c-0.088,0.023-0.219-0.088-0.307-0.068
		c-0.087,0.029-0.151,0.15-0.238,0.175c-0.093,0.024-0.161,0.117-0.249,0.137c-0.087,0.029-0.054,0.165-0.117,0.272
		c-0.049,0.083-0.146,0.137-0.195,0.233C20.765,34.489,20.512,34.563,20.458,34.641z M38.724,29.703c-0.088,0-0.272-0.02-0.36-0.01
		c-0.088,0.015-0.19,0.058-0.277,0.087c-0.083,0.02-0.171,0.103-0.244,0.137c-0.078,0.039-0.024,0.312-0.092,0.36
		c-0.078,0.049-0.322-0.127-0.39-0.073c-0.068,0.063-0.078,0.195-0.127,0.258c-0.054,0.078-0.214,0.137-0.238,0.215
		C36.971,30.765,37,30.93,37.02,31.018c0.023,0.078,0.043,0.214,0.097,0.302c0.049,0.073,0.215,0.088,0.278,0.156
		c0.063,0.067,0.15,0.116,0.219,0.165c0.083,0.059,0.146,0.2,0.224,0.225c0.078,0.023,0.195-0.122,0.287-0.137
		c0.083-0.02,0.181-0.015,0.264-0.059c0.073-0.039,0.054-0.214,0.121-0.272c0.068-0.059,0.264,0.029,0.321-0.039
		c0.063-0.068,0.156-0.132,0.2-0.204c0.044-0.078-0.098-0.239-0.073-0.322c0.024-0.087,0.166-0.15,0.156-0.233
		c-0.01-0.098-0.02-0.214-0.078-0.302c-0.049-0.088-0.146-0.146-0.205-0.224C38.763,29.985,38.763,29.771,38.724,29.703z
		 M40.311,34.075c-0.02-0.097-0.077-0.409-0.097-0.511c-0.088,0.024-0.313,0.044-0.395,0.063c-0.088,0.024-0.171,0.087-0.259,0.111
		c-0.087,0.024-0.106,0.307-0.194,0.331s-0.253-0.238-0.341-0.209c-0.093,0.02-0.161,0.117-0.253,0.146
		c-0.088,0.023-0.205-0.063-0.293-0.039c-0.092,0.029-0.165,0.092-0.258,0.116s-0.185,0.015-0.277,0.039
		c-0.088,0.024-0.146,0.166-0.233,0.195c-0.088,0.024-0.171,0.067-0.259,0.092c-0.092,0.024-0.204-0.053-0.297-0.024
		c-0.088,0.024-0.136,0.195-0.224,0.215c-0.088,0.029-0.186,0.015-0.272,0.039c-0.093,0.024-0.137,0.204-0.225,0.229
		c-0.093,0.024-0.233-0.141-0.321-0.117c-0.088,0.024-0.189,0.005-0.272,0.034c-0.093,0.02-0.127,0.234-0.22,0.259
		c-0.087,0.024-0.209-0.083-0.297-0.054c-0.092,0.02-0.214,0.044-0.302,0.068c0.029,0.111,0.098,0.238,0.122,0.351
		c0.093-0.029,0.141-0.176,0.233-0.205c0.093-0.024,0.258,0.225,0.341,0.2s0.093-0.341,0.181-0.365
		c0.092-0.029,0.185-0.029,0.272-0.054s0.185-0.034,0.268-0.059c0.088-0.024,0.166-0.093,0.258-0.112
		c0.088-0.029,0.254,0.234,0.346,0.215c0.088-0.029,0.132-0.215,0.22-0.239s0.214,0.103,0.307,0.078s0.161-0.117,0.243-0.141
		c0.093-0.029,0.195,0.004,0.278-0.02c0.092-0.024,0.126-0.229,0.214-0.254c0.093-0.029,0.185-0.039,0.272-0.068
		c0.088-0.02,0.205,0.068,0.297,0.039c0.093-0.02,0.161-0.097,0.249-0.121c0.092-0.024,0.194,0.01,0.282-0.015
		c0.088-0.029,0.16-0.103,0.253-0.127c0.088-0.024,0.215,0.088,0.302,0.068C40.048,34.202,40.224,34.104,40.311,34.075z
		 M33.309,30.015c-0.122-0.068-0.277-0.225-0.351-0.273c-0.137-0.092-0.312-0.155-0.399-0.155c-0.098,0-0.194,0.039-0.292,0.039
		c-0.098,0.01-0.186,0.272-0.282,0.282c-0.098,0.005-0.21-0.282-0.307-0.272c-0.093,0.005-0.19,0.088-0.288,0.097
		c-0.097,0.01-0.204-0.097-0.302-0.087c-0.088,0.01-0.204,0.063-0.302,0.078c-0.103,0.019-0.263,0.048-0.341,0.097
		c-0.078,0.059-0.078,0.254-0.137,0.351c-0.049,0.088-0.077,0.205-0.136,0.292c0.082,0.039,0.121,0.195,0.204,0.254
		c0.098,0.063,0.253-0.02,0.331-0.039c0.088-0.02,0.186,0,0.282-0.024c0.088-0.02,0.137-0.2,0.229-0.224
		c0.093-0.024,0.229,0.141,0.316,0.116c0.093-0.024,0.194-0.005,0.282-0.034c0.088-0.02,0.127-0.233,0.219-0.263
		c0.088-0.024,0.215,0.078,0.308,0.054c0.087-0.024,0.185-0.024,0.277-0.054c0.088-0.02,0.17-0.088,0.258-0.112
		C32.973,30.106,33.211,30.034,33.309,30.015z M27.553,33.555c0.039,0.102,0.17,0.385,0.214,0.486
		c0.078-0.043,0.297-0.111,0.389-0.16c0.083-0.039,0.156-0.117,0.244-0.166c0.082-0.049,0.029-0.321,0.097-0.37
		c0.083-0.058,0.355,0.088,0.409,0.015c0.059-0.067,0.044-0.243,0.068-0.355c0.02-0.106,0.146-0.233,0.137-0.331
		c0-0.136-0.122-0.341-0.181-0.385c-0.078-0.063-0.18-0.16-0.277-0.194c-0.093-0.034-0.238,0.054-0.341,0.029
		c-0.098-0.024-0.2-0.024-0.292-0.044c-0.107-0.024-0.253-0.137-0.341-0.166c-0.019,0.078,0.044,0.244,0.024,0.316
		c0.093,0.044,0.151,0.112,0.219,0.142c0.098,0.054,0.272-0.029,0.331,0.015c0.098,0.068,0.029,0.277,0.049,0.346
		c0.02,0.078-0.029,0.112-0.093,0.214c-0.039,0.063,0.054,0.254-0.024,0.337c-0.049,0.063-0.214,0.033-0.292,0.102
		C27.835,33.442,27.626,33.491,27.553,33.555z M16.548,25.471c0.043-0.093,0.209-0.253,0.248-0.336
		c0.049-0.088,0.073-0.175,0.117-0.253c0.043-0.092,0.053-0.195,0.092-0.272c0.049-0.093-0.156-0.283-0.122-0.365
		c0.034-0.088,0.346-0.083,0.365-0.17c0.02-0.068-0.175-0.234-0.288-0.341c-0.092-0.073-0.229-0.278-0.302-0.351
		c-0.063,0.078-0.214,0.238-0.277,0.312c-0.068,0.078-0.166,0.126-0.224,0.2c-0.068,0.073-0.039,0.238-0.093,0.316
		c-0.058,0.083-0.092,0.175-0.136,0.263c-0.024,0.049-0.058,0.2,0.024,0.302c0.039,0.058,0.214,0.034,0.282,0.107
		c0.049,0.063,0.078,0.156,0.137,0.229C16.411,25.169,16.499,25.398,16.548,25.471z M48.643,31.758
		c-0.024-0.068-0.107-0.385-0.132-0.458c-0.087,0.029-0.282,0.063-0.375,0.088c-0.092,0.029-0.17,0.088-0.268,0.117
		c-0.088,0.023-0.112,0.307-0.204,0.331c-0.088,0.029-0.259-0.234-0.351-0.21c-0.088,0.024-0.156,0.122-0.254,0.151
		c-0.092,0.024-0.209-0.059-0.302-0.034c-0.097,0.024-0.175,0.093-0.263,0.122c-0.093,0.019-0.194,0.009-0.282,0.038
		c-0.098,0.02-0.151,0.166-0.244,0.19c-0.097,0.024-0.18,0.068-0.272,0.093c-0.088,0.029-0.204-0.044-0.302-0.02
		c-0.088,0.024-0.142,0.194-0.233,0.224c-0.093,0.024-0.195,0.01-0.282,0.034c-0.098,0.024-0.049,0.137-0.137,0.16
		c0.024,0.083-0.107,0.117-0.078,0.195c0.088-0.02,0.215-0.005,0.312-0.034c0.088-0.024,0.127-0.238,0.225-0.263
		c0.087-0.024,0.214,0.078,0.312,0.054c0.088-0.029,0.185-0.029,0.277-0.049c0.093-0.029,0.171-0.093,0.258-0.117
		c0.093-0.024,0.151-0.175,0.244-0.204c0.087-0.02,0.258,0.224,0.351,0.199c0.092-0.024,0.097-0.346,0.194-0.365
		c0.093-0.029,0.186-0.039,0.282-0.059c0.088-0.029,0.186-0.039,0.277-0.063c0.088-0.023,0.171-0.092,0.259-0.121
		c0.092-0.02,0.268,0.243,0.36,0.219c0.088-0.024,0.136-0.219,0.224-0.238C48.326,31.699,48.55,31.787,48.643,31.758z
		 M24.432,37.894c0.043,0.131,0.151,0.438,0.199,0.569c0.088-0.034,0.322-0.063,0.419-0.098c0.093-0.034,0.175-0.102,0.268-0.136
		c0.092-0.034,0.102-0.316,0.19-0.351c0.097-0.034,0.292,0.214,0.379,0.18c0.098-0.029,0.166-0.136,0.263-0.17
		c0.097-0.034,0.321-0.054,0.419-0.088c-0.039-0.112-0.17-0.385-0.209-0.497c-0.098,0.029-0.302,0.015-0.395,0.044
		c-0.097,0.029-0.156,0.181-0.253,0.205c-0.097,0.029-0.185,0.082-0.277,0.111c-0.098,0.024-0.219-0.034-0.316-0.005
		c-0.093,0.024-0.146,0.205-0.239,0.229C24.787,37.918,24.529,37.869,24.432,37.894z M27.037,37.235
		c0.039,0.112,0.136,0.414,0.175,0.521c0.088-0.024,0.307-0.059,0.39-0.088c0.087-0.029,0.161-0.097,0.243-0.126
		c0.088-0.029,0.088-0.313,0.176-0.341c0.087-0.029,0.272,0.214,0.355,0.189c0.083-0.029,0.146-0.132,0.233-0.165
		c0.083-0.034,0.209,0.043,0.292,0.014c0.088-0.028,0.234-0.175,0.321-0.204c-0.034-0.098-0.102-0.38-0.141-0.482
		c-0.088,0.029-0.264,0.161-0.351,0.19c-0.088,0.029-0.171,0.078-0.254,0.107c-0.087,0.028-0.204-0.039-0.292-0.01
		c-0.087,0.029-0.126,0.194-0.214,0.224c-0.083,0.029-0.185,0.024-0.273,0.049c-0.083,0.029-0.117,0.214-0.205,0.243
		C27.407,37.387,27.12,37.212,27.037,37.235z M32.091,36.354c-0.029-0.122-0.097-0.429-0.121-0.546
		c-0.083,0.024-0.316,0.039-0.399,0.059c-0.083,0.029-0.161,0.093-0.239,0.117c-0.082,0.029-0.097,0.307-0.175,0.331
		c-0.088,0.024-0.253-0.233-0.341-0.209c-0.078,0.024-0.146,0.126-0.224,0.15c-0.088,0.029-0.205-0.059-0.288-0.029
		c-0.082,0.02-0.229,0.156-0.316,0.181c0.029,0.098,0.078,0.375,0.107,0.472c0.088-0.023,0.268-0.146,0.351-0.165
		c0.083-0.024,0.16-0.068,0.243-0.088c0.088-0.02,0.195,0.054,0.282,0.029c0.078-0.02,0.127-0.185,0.215-0.209
		c0.078-0.02,0.175-0.005,0.263-0.024c0.078-0.024,0.122-0.205,0.21-0.225C31.735,36.179,32.004,36.374,32.091,36.354z
		 M47.377,29.878c-0.034-0.068-0.078-0.272-0.117-0.336c-0.034-0.063-0.21-0.189-0.248-0.258c-0.083,0.059-0.234,0.175-0.322,0.233
		c-0.087,0.059-0.028,0.336-0.116,0.395c-0.088,0.054-0.399-0.024-0.487,0.034c0.088,0.088,0.365,0.326,0.409,0.312
		c0.088-0.039,0.229,0.02,0.312-0.024c0.088-0.044,0.156-0.132,0.233-0.175C47.123,30.015,47.294,29.922,47.377,29.878z"/>
	<path d="M36.05,22.126c-0.073-0.068-0.165,0.039-0.233-0.024c-0.073-0.063-0.219-0.039-0.287-0.103
		c-0.078-0.063,0.01-0.292-0.054-0.351c-0.068-0.068-0.238-0.024-0.302-0.087c-0.068-0.063-0.156-0.185-0.225-0.249
		c0.063-0.044,0.142-0.18,0.2-0.244c0.063-0.058,0.204-0.034,0.268-0.087c0.063-0.063,0.142-0.102,0.204-0.141
		c0.088-0.068,0.103-0.01,0.166,0.01c0.083,0.024,0.122,0.048,0.199,0.097c0.068,0.039,0.313-0.146,0.375-0.087
		c0.063,0.048,0.107,0.141,0.171,0.205c0.059,0.053,0.034,0.204,0.098,0.263c0.058,0.059,0.048,0.117,0.111,0.166
		c-0.063,0.068-0.15,0.024-0.219,0.093c-0.059,0.063-0.029,0.209-0.098,0.282c-0.059,0.063-0.136,0.107-0.204,0.175
		C36.157,22.097,36.118,22.058,36.05,22.126z"/>
	<path d="M33.82,20.84c-0.093,0.063-0.288,0.117-0.36,0.175c-0.083,0.068-0.083,0.233-0.156,0.292
		c-0.093,0.068-0.2,0.112-0.272,0.156c-0.103,0.063-0.249-0.136-0.336-0.136c-0.088,0-0.205,0.117-0.293,0.039
		c-0.067-0.059-0.229-0.059-0.297-0.136c-0.068-0.078,0.044-0.273-0.024-0.332c0.063-0.058-0.005-0.185,0.049-0.243
		c0.059-0.068,0.122-0.136,0.181-0.195c0.063-0.068,0.121-0.156,0.185-0.205c0.068-0.059,0.21-0.005,0.287-0.034
		c0.063-0.024,0.117,0.034,0.225,0.122c0.068,0.043,0.078,0.175,0.165,0.243c0.068,0.054,0.137,0.122,0.215,0.185
		C33.465,20.821,33.737,20.782,33.82,20.84z"/>
	<path d="M15.52,33.345c0.083-0.067,0.312-0.058,0.395-0.126c0.083-0.068,0.078-0.234,0.161-0.302
		c0.083-0.068,0.209-0.122,0.288-0.19c0.083,0.103,0.331,0.38,0.316,0.404c-0.063,0.078-0.219,0.088-0.287,0.166
		c-0.073,0.077-0.049,0.243-0.117,0.321c-0.073,0.072-0.238,0.165-0.312,0.238c-0.049-0.063-0.01-0.331-0.068-0.395
		C15.837,33.403,15.574,33.403,15.52,33.345z"/>
	<path d="M17.604,33.18c-0.015,0.098,0.122,0.165,0.112,0.253c-0.01,0.098,0.029,0.205,0.02,0.297
		c-0.02,0.093-0.054,0.2-0.083,0.287c-0.005,0.024-0.253,0.083-0.38,0.068c-0.093-0.005-0.107-0.155-0.18-0.155
		c0.02-0.098-0.078-0.176-0.054-0.273c0.024-0.097,0.063-0.194,0.087-0.292c0.024-0.092,0-0.272,0.024-0.365
		c0.068,0.01,0.224,0.093,0.292,0.103C17.517,33.111,17.531,33.175,17.604,33.18z"/>
	<path d="M21.281,32.614c-0.034-0.087-0.048-0.282-0.092-0.365c-0.044-0.092,0.112-0.209,0.122-0.297
		c0.01-0.073-0.175-0.204-0.146-0.272s0.054-0.156,0.087-0.224c0.039-0.068,0.17-0.015,0.205-0.083
		c0.059,0.088,0.214,0.044,0.283,0.127c0.078,0.092,0.219,0.219,0.229,0.321c0.015,0.102-0.043,0.287-0.092,0.395
		c-0.044,0.106-0.151,0.233-0.185,0.331C21.612,32.547,21.359,32.609,21.281,32.614z"/>
	<path d="M15.554,27.365c-0.01-0.107-0.253-0.185-0.253-0.272c0.005-0.117,0.141-0.195,0.161-0.283
		c0.029-0.107-0.078-0.292-0.02-0.36c0.063-0.083,0.19-0.205,0.282-0.243c0.093-0.039,0.244,0.039,0.346,0.024
		c0.098-0.01,0.205,0.19,0.302,0.19c0.107,0,0.195-0.224,0.282-0.234c0.103-0.01,0.214-0.034,0.302-0.024
		c0.098,0.015,0.137,0.219,0.214,0.258c0.078,0.043,0.253-0.02,0.307,0.048c0.058,0.063,0.17,0.146,0.209,0.234
		c0.029,0.078,0.059,0.2,0.068,0.292c0.02,0.088,0,0.195,0,0.292c0,0.092-0.19,0.166-0.214,0.248
		c-0.024,0.088,0.068,0.219,0.02,0.297c-0.044,0.073-0.122,0.141-0.185,0.209c-0.059,0.063-0.083,0.195-0.156,0.249
		c-0.068,0.048-0.214,0.009-0.292,0.048c-0.078,0.039-0.137,0.195-0.219,0.225c-0.088,0.02-0.2,0.015-0.292,0.02
		c-0.083,0.01-0.175-0.239-0.268-0.249c-0.112-0.015-0.234,0.146-0.316,0.112c-0.103-0.049-0.297-0.039-0.351-0.107
		c-0.063-0.077,0.078-0.292,0.048-0.379c-0.024-0.098-0.18-0.175-0.19-0.273C15.331,27.58,15.574,27.443,15.554,27.365z"/>
	<path d="M38.148,30.015c0.059,0.059,0.166,0.02,0.215,0.077c0.059,0.063,0.165,0.073,0.214,0.127
		c0.088,0.088-0.049,0.224-0.059,0.248c-0.049,0.073-0.146,0.083-0.199,0.151c-0.059,0.068,0.054,0.297-0.005,0.351
		c-0.068,0.059-0.214,0.01-0.292,0.049c-0.034,0.015-0.21,0.098-0.312,0.015c-0.103-0.083-0.264-0.355-0.254-0.38
		c0.034-0.088,0.186-0.151,0.249-0.238c0.053-0.078,0.277-0.034,0.346-0.117C38.109,30.224,38.081,30.102,38.148,30.015z"/>
</g>
<g>
</g>
<g>
</g>
<g>
</g>
<g>
</g>
<g>
</g>
<g>
</g>
<g>
</g>
<g>
</g>
<g>
</g>
<g>
</g>
<g>
</g>
<g>
</g>
<g>
</g>
<g>
</g>
<g>
</g>
</svg>
