<?xml version="1.0" encoding="utf-8"?>
<!-- Generator: Adobe Illustrator 16.0.0, SVG Export Plug-In . SVG Version: 6.00 Build 0)  -->
<!DOCTYPE svg PUBLIC "-//W3C//DTD SVG 1.1//EN" "http://www.w3.org/Graphics/SVG/1.1/DTD/svg11.dtd">
<svg version="1.1" id="圖層_1" xmlns="http://www.w3.org/2000/svg" xmlns:xlink="http://www.w3.org/1999/xlink" x="0px" y="0px"
	 width="55px" height="55px" viewBox="0 0 55 55" enable-background="new 0 0 55 55" xml:space="preserve">
<path d="M45.235,13.556c0.095,1.716,0.191,3.36,0.298,5.1h2.167c1.693,0,1.883,0.191,1.883,1.906v3.36
	c-0.012,0.941-0.417,1.346-1.358,1.358c-0.703,0.013-1.418,0.013-2.121,0.013c-0.036,0-0.06,0.023-0.155,0.06
	c0.023,0.286,0.035,0.584,0.059,0.894c0.25,4.133,0.5,8.269,0.762,12.404c0.191,3.048,0.394,6.099,0.584,9.138
	c0.011,0.238,0.036,0.487,0.024,0.727c-0.048,0.596-0.43,1.023-1.025,1.036c-1.513,0.025-3.038,0.025-4.552,0
	c-0.631-0.013-0.989-0.452-1.036-1.132c-0.145-2.192-0.274-4.372-0.418-6.564c-0.262-4.17-0.524-8.329-0.785-12.5
	c-0.084-1.322-0.167-2.645-0.251-4.016H15.721c-0.06,0.894-0.131,1.8-0.19,2.706c-0.262,4.133-0.513,8.269-0.763,12.404
	c-0.167,2.655-0.334,5.301-0.513,7.958c-0.047,0.762-0.453,1.169-1.227,1.169c-1.382,0.012-2.765,0.012-4.146,0
	C8,49.563,7.583,49.099,7.631,48.168c0.143-2.357,0.298-4.717,0.441-7.077c0.191-3.085,0.393-6.16,0.584-9.246
	c0.131-2.157,0.274-4.301,0.405-6.554H7.369c-1.763,0-1.954-0.19-1.954-1.965v-3.313c0.012-0.964,0.394-1.346,1.347-1.358
	c0.882-0.013,1.751,0,2.705,0c0.095-1.705,0.19-3.383,0.298-5.1c-1.12-0.084-2.18-0.168-3.241-0.25
	c-0.727-0.059-1.442-0.131-2.169-0.167c-0.596-0.035-0.941-0.346-1.155-0.881C2.52,10.541,1.84,8.826,1.149,7.121
	C0.958,6.657,0.911,6.216,1.244,5.811C1.578,5.394,2.043,5.37,2.52,5.454c1.156,0.202,2.299,0.453,3.467,0.596
	c2.872,0.369,5.744,0.739,8.627,1c4.897,0.441,9.818,0.655,14.739,0.512c4.407-0.13,8.829-0.346,13.225-0.726
	c3.288-0.287,6.553-0.894,9.83-1.371c0.5-0.071,0.965-0.096,1.334,0.333c0.357,0.428,0.298,0.882,0.095,1.358
	c-0.678,1.68-1.358,3.361-2.014,5.041c-0.226,0.596-0.619,0.917-1.262,0.953c-1.585,0.107-3.17,0.239-4.742,0.357
	C45.64,13.52,45.473,13.532,45.235,13.556L45.235,13.556z M30.842,14.21v4.397h8.042c-0.095-1.573-0.191-3.098-0.286-4.659
	C35.989,14.033,33.427,14.128,30.842,14.21z M16.388,13.949c-0.095,1.585-0.179,3.122-0.274,4.67h8.031V14.21
	C21.559,14.128,19.01,14.033,16.388,13.949z"/>
<g>
</g>
<g>
</g>
<g>
</g>
<g>
</g>
<g>
</g>
<g>
</g>
<g>
</g>
<g>
</g>
<g>
</g>
<g>
</g>
<g>
</g>
<g>
</g>
<g>
</g>
<g>
</g>
<g>
</g>
</svg>
