<?xml version="1.0" encoding="utf-8"?>
<!-- Generator: Adobe Illustrator 16.0.0, SVG Export Plug-In . SVG Version: 6.00 Build 0)  -->
<!DOCTYPE svg PUBLIC "-//W3C//DTD SVG 1.1//EN" "http://www.w3.org/Graphics/SVG/1.1/DTD/svg11.dtd">
<svg version="1.1" id="圖層_1" xmlns="http://www.w3.org/2000/svg" xmlns:xlink="http://www.w3.org/1999/xlink" x="0px" y="0px"
	 width="55px" height="55px" viewBox="0 0 55 55" enable-background="new 0 0 55 55" xml:space="preserve">
<g>
	<path d="M25.046,39.919c0.104-0.064,0.104-0.446,0.207-0.504c0.104-0.064,0.246-0.064,0.342-0.116
		c0.097-0.064,0.291,0.032,0.394-0.026c0.104-0.064,0.22-0.084,0.323-0.148c0.104-0.058,0.032-0.407,0.142-0.472
		c0.104-0.052,0.246-0.039,0.349-0.09c0.11-0.065,0.201-0.136,0.304-0.194c0.097-0.064,0.149-0.213,0.252-0.271
		c0.097-0.064,0.368,0.155,0.472,0.097c0.097-0.058,0.246-0.051,0.342-0.116c0.104-0.058,0.162-0.2,0.259-0.265
		s0.245-0.064,0.342-0.129c0.098-0.064,0.084-0.297,0.188-0.362c0.091-0.064,0.284,0,0.382-0.077
		c0.097-0.064,0.045-0.375,0.148-0.439c0.104-0.058,0.336,0.123,0.445,0.078c0.11-0.052,0.148-0.298,0.259-0.337
		c0.109-0.038,0.277,0.078,0.394,0.052c0.116-0.032,0.252,0.065,0.375,0.046c0.116-0.026,0.188-0.336,0.311-0.35
		c0.116-0.013,0.258,0.162,0.374,0.149c0.116-0.007,0.239-0.052,0.362-0.059c0.116-0.007,0.245,0.11,0.368,0.104
		s0.213-0.439,0.329-0.446c0.123-0.013,0.271,0.298,0.388,0.285c0.116-0.014,0.2-0.355,0.323-0.369
		c0.116-0.019,0.271,0.136,0.388,0.123c0.123-0.013,0.259,0.162,0.375,0.155c0.122-0.013,0.238-0.013,0.361-0.013
		c0.123-0.007,0.239-0.214,0.362-0.214c0.122,0,0.245,0.02,0.361,0.032c0.129,0,0.252-0.025,0.375-0.019
		c0.116,0.006,0.22,0.277,0.336,0.284c0.129,0.006,0.284-0.375,0.406-0.355c0.123,0.013,0.194,0.413,0.317,0.426
		c0.116,0.014,0.258-0.084,0.374-0.064s0.284-0.2,0.401-0.181c0.122,0.026,0.174,0.388,0.297,0.42
		c0.116,0.02,0.31-0.291,0.426-0.265c0.117,0.025,0.182,0.297,0.298,0.329c0.122,0.032,0.265-0.038,0.388-0.006
		c0.116,0.038,0.226,0.097,0.336,0.129c0.122,0.039,0.297-0.143,0.413-0.104c0.123,0.032,0.161,0.336,0.271,0.375
		c0.116,0.039,0.316-0.194,0.439-0.155c0.116,0.039,0.122,0.413,0.232,0.452c0.091,0.026,0.22-0.039,0.304-0.006
		c0.097,0.032,0.104,0.122,0.155,0.187c0.07,0.078,0.122,0.155,0.181,0.246c0.058,0.09,0,0.232,0.045,0.329
		c0.052,0.097,0.479,0.175,0.53,0.265c-0.143,0.052-0.504-0.116-0.646-0.052c-0.142,0.065-0.22,0.091-0.375,0.104
		c-0.116,0-0.238,0.046-0.361,0.052c-0.123,0-0.245,0.168-0.368,0.168s-0.246-0.245-0.368-0.245c-0.13,0-0.246,0.439-0.368,0.439
		c-0.123,0-0.246-0.298-0.368-0.298c-0.123,0-0.246,0.13-0.362,0.13c-0.129,0-0.245-0.252-0.375-0.246
		c-0.122,0-0.245,0.136-0.361,0.143c-0.129,0-0.232,0.245-0.361,0.245c-0.123,0.013-0.246-0.064-0.369-0.052
		c-0.122,0.014-0.265-0.142-0.381-0.129c-0.123,0.013-0.271-0.129-0.388-0.116c-0.129,0.02-0.232,0.129-0.361,0.148
		c-0.123,0.02-0.227,0.123-0.35,0.148c-0.116,0.026-0.245,0.052-0.361,0.078c-0.116,0.032-0.168,0.349-0.284,0.374
		c-0.116,0.032-0.362-0.381-0.479-0.349c-0.116,0.039-0.22,0.143-0.336,0.181c-0.116,0.039-0.129,0.407-0.238,0.452
		c-0.11,0.039-0.33-0.2-0.446-0.154c-0.116,0.045-0.207,0.154-0.323,0.206c-0.109,0.046-0.232,0.071-0.349,0.13
		c-0.109,0.052-0.109,0.322-0.22,0.381c-0.109,0.052-0.413-0.271-0.517-0.213c-0.11,0.052-0.194,0.174-0.297,0.232
		c-0.116,0.064-0.116,0.304-0.22,0.361c-0.104,0.064-0.343-0.071-0.446-0.006c-0.104,0.07-0.045,0.394-0.142,0.458
		c-0.098,0.064-0.252,0.071-0.35,0.143c-0.097,0.071-0.116,0.245-0.213,0.323c-0.104,0.07-0.168,0.188-0.258,0.258
		c-0.098,0.078-0.285,0.032-0.388,0.116c-0.091,0.071-0.22,0.11-0.311,0.194c-0.091,0.077-0.311,0.025-0.4,0.104
		c-0.091,0.077,0.02,0.388-0.064,0.472c-0.091,0.084-0.148,0.193-0.232,0.277c-0.091,0.091-0.22,0.129-0.298,0.22
		c-0.09,0.091-0.155,0.193-0.232,0.284c-0.084,0.091-0.342,0.02-0.426,0.116c-0.078,0.091,0,0.316-0.078,0.414
		c-0.084,0.09-0.116,0.219-0.194,0.322c-0.071,0.098-0.09,0.232-0.168,0.336c-0.078,0.091-0.246,0.116-0.323,0.214
		c-0.078,0.097-0.349,0.032-0.427,0.122c-0.077,0.104,0.129,0.427,0.045,0.523s-0.194,0.162-0.278,0.252
		c-0.078,0.091-0.142,0.207-0.22,0.298c-0.084,0.09-0.336,0.025-0.42,0.109c-0.084,0.091-0.103,0.239-0.187,0.329
		c-0.091,0.091-0.375-0.032-0.465,0.052c-0.084,0.091,0.129,0.479,0.039,0.563c-0.078,0.084-0.362-0.02-0.452,0.058
		c-0.09,0.091-0.039,0.317-0.123,0.401c-0.091,0.077-0.42-0.098-0.511-0.014c-0.09,0.078,0.091,0.466,0,0.55
		c-0.09,0.084-0.349-0.032-0.439,0.052c-0.097,0.084-0.207,0.142-0.297,0.219c-0.09,0.071-0.142,0.214-0.232,0.285
		c-0.097,0.077-0.271,0.051-0.368,0.129c-0.097,0.077-0.071,0.304-0.175,0.375c-0.09,0.077-0.2,0.136-0.297,0.213
		c-0.097,0.064-0.284,0.013-0.388,0.091c-0.097,0.064-0.006,0.406-0.104,0.471c-0.103,0.071-0.446-0.206-0.542-0.135
		c-0.104,0.064-0.013,0.413-0.116,0.484c-0.104,0.07-0.194,0.148-0.297,0.213s-0.232,0.104-0.33,0.168
		c-0.11,0.064-0.362-0.123-0.472-0.059c-0.103,0.059-0.129,0.239-0.239,0.304c-0.104,0.065-0.213,0.116-0.316,0.182
		c-0.11,0.058-0.181,0.187-0.291,0.245c-0.11,0.052-0.258,0.045-0.368,0.104c-0.116,0.058-0.2,0.168-0.316,0.22
		c-0.117,0.052-0.207,0.168-0.317,0.213c-0.123,0.045-0.194,0.213-0.316,0.252c-0.123,0.052-0.258,0.052-0.381,0.084
		c-0.116,0.039-0.258-0.007-0.388,0.026c-0.116,0.032-0.284-0.11-0.407-0.078s-0.181,0.355-0.304,0.382
		c-0.129,0.025-0.284-0.155-0.414-0.13c-0.116,0.013-0.239,0.078-0.362,0.104c-0.129,0.013-0.232,0.207-0.349,0.22
		c-0.129,0.013-0.291-0.311-0.414-0.297c-0.123,0.013-0.252-0.064-0.375-0.052c-0.129,0.006-0.246,0.064-0.375,0.071
		c-0.123,0.006-0.245-0.091-0.375-0.084c-0.123,0-0.246,0.245-0.368,0.245c-0.123,0-0.252,0-0.381,0
		c-0.116,0-0.246-0.129-0.368-0.136s-0.246-0.013-0.375-0.02c-0.129,0-0.233,0.052-0.33,0.026c-0.129-0.032-0.271,0.025-0.362-0.039
		c-0.097-0.064-0.039-0.271-0.104-0.362c-0.064-0.09-0.426-0.038-0.472-0.154c-0.039-0.104-0.045-0.246-0.071-0.362
		c-0.032-0.109,0.129-0.271,0.11-0.388c-0.02-0.109-0.11-0.271-0.136-0.388c0.136,0,0.316-0.02,0.426-0.013
		c0.142,0,0.246,0.329,0.362,0.336c0.129,0.013,0.252-0.077,0.375-0.071c0.117,0.007,0.252-0.07,0.369-0.07
		c0.123,0,0.252,0.013,0.368,0c0.116-0.026,0.22-0.136,0.323-0.182c0.116-0.045,0.284-0.025,0.375-0.097
		c0.09-0.077,0.297-0.123,0.355-0.226c0.058-0.091-0.304-0.388-0.271-0.504c0.032-0.104,0.239-0.168,0.252-0.285
		c0.013-0.116,0.077-0.232,0.064-0.361c-0.006-0.104-0.006-0.232-0.032-0.355c-0.02-0.123-0.246-0.193-0.278-0.316
		c-0.026-0.116,0.22-0.323,0.181-0.439c-0.039-0.116-0.09-0.239-0.129-0.349c-0.052-0.116-0.349-0.123-0.407-0.232
		c-0.052-0.116-0.084-0.232-0.136-0.336c-0.058-0.11,0.065-0.33,0-0.427c-0.064-0.104-0.103-0.232-0.181-0.336
		c-0.064-0.104-0.11-0.232-0.188-0.336c-0.071-0.091-0.472,0.064-0.549-0.025c-0.084-0.091-0.129-0.2-0.22-0.291
		c-0.078-0.091-0.129-0.2-0.22-0.291c-0.084-0.084-0.116-0.232-0.207-0.316c-0.09-0.084-0.025-0.343-0.116-0.42
		c-0.09-0.084-0.42,0.104-0.517,0.026c-0.09-0.078-0.181-0.168-0.271-0.239c-0.097-0.078-0.052-0.33-0.155-0.407
		c-0.104-0.077-0.201-0.155-0.297-0.227c-0.097-0.077-0.232-0.097-0.33-0.174c-0.097-0.078-0.278-0.052-0.375-0.13
		c-0.097-0.07,0.032-0.433-0.065-0.51c-0.097-0.084-0.446,0.148-0.542,0.071c-0.097-0.078,0.064-0.452-0.026-0.536
		c-0.097-0.084-0.458,0.148-0.562,0.07c-0.09-0.077,0-0.374-0.09-0.458s-0.071-0.278-0.162-0.368
		c-0.09-0.084-0.407,0.064-0.491-0.02c-0.09-0.084,0.02-0.368-0.071-0.459s-0.349,0-0.433-0.091
		c-0.084-0.09-0.006-0.322-0.084-0.413c-0.084-0.091-0.271-0.077-0.355-0.161c-0.084-0.091-0.175-0.168-0.252-0.252
		c-0.078-0.091-0.233-0.123-0.31-0.22C5.872,40.1,6.072,39.783,6,39.692c-0.077-0.097-0.239-0.116-0.31-0.213
		c-0.071-0.091-0.136-0.194-0.207-0.291c-0.071-0.097-0.064-0.245-0.136-0.342c-0.071-0.098-0.446,0.013-0.51-0.084
		c-0.071-0.098-0.013-0.284-0.071-0.382c-0.058-0.104-0.103-0.22-0.161-0.322c-0.059-0.104-0.078-0.233-0.129-0.336
		c-0.064-0.11,0.032-0.285-0.013-0.401c-0.051-0.116-0.504-0.077-0.542-0.2c-0.039-0.116,0.252-0.342,0.22-0.458
		c-0.039-0.117-0.058-0.239-0.09-0.362c-0.02-0.129-0.097-0.232-0.116-0.361c-0.02-0.116,0.013-0.246-0.013-0.375
		c-0.013-0.123-0.155-0.232-0.168-0.362c-0.013-0.122,0.02-0.258,0.013-0.374c-0.013-0.13,0.045-0.259,0.039-0.388
		c0-0.116-0.006-0.246-0.013-0.375c0-0.123-0.129-0.245-0.129-0.375c0-0.122-0.129-0.252-0.123-0.374
		c0-0.13,0.181-0.252,0.188-0.375c0-0.123-0.097-0.259-0.09-0.381c0-0.123,0.232-0.239,0.232-0.368
		c0.013-0.123-0.129-0.259-0.116-0.388c0.006-0.116,0.097-0.239,0.104-0.368c0.013-0.123-0.09-0.252-0.078-0.382
		c0.013-0.122,0.129-0.245,0.136-0.361c0.006-0.129-0.174-0.265-0.162-0.395c0.013-0.122,0.129-0.238,0.142-0.368
		c0.006-0.116,0.207-0.232,0.22-0.361c0.006-0.078-0.026-0.104,0.052-0.22c0.045-0.071,0.148-0.123,0.22-0.232
		c0.052-0.071-0.058-0.078,0.006-0.182c0.032,0.123,0.2,0.014,0.239,0.117c0.039,0.116-0.168,0.31-0.135,0.413
		c0.045,0.109,0.226,0.168,0.258,0.265c0.032,0.11,0.291,0.2,0.304,0.304c0.013,0.129-0.381,0.284-0.375,0.4
		c0.013,0.123,0.032,0.246,0.045,0.368c0.02,0.123,0.316,0.207,0.33,0.33c0.019,0.116-0.31,0.29-0.291,0.413
		c0.02,0.116,0.381,0.181,0.407,0.297c0.02,0.116,0.078,0.227,0.097,0.35c0.02,0.116-0.226,0.297-0.2,0.413
		c0.026,0.123,0.116,0.227,0.142,0.349c0.026,0.116,0.239,0.181,0.271,0.298c0.039,0.116-0.039,0.265,0,0.374
		c0.039,0.116,0.22,0.182,0.258,0.298c0.039,0.109-0.09,0.284-0.039,0.4c0.039,0.116,0.33,0.129,0.375,0.239
		c0.052,0.109-0.155,0.329-0.103,0.438c0.058,0.11,0.103,0.227,0.155,0.33s0.271,0.129,0.33,0.232s-0.071,0.323-0.013,0.427
		c0.058,0.103,0.213,0.154,0.278,0.258c0.065,0.104-0.077,0.336,0,0.439c0.065,0.104,0.465-0.032,0.543,0.064
		c0.064,0.104,0.013,0.284,0.09,0.375c0.078,0.104,0.045,0.284,0.116,0.375c0.078,0.097,0.058,0.284,0.142,0.374
		c0.078,0.091,0.284,0.064,0.368,0.155s0.097,0.245,0.188,0.336c0.078,0.077,0.368-0.039,0.458,0.039
		c0.091,0.084,0.11,0.245,0.201,0.323c0.09,0.077,0.271,0.051,0.375,0.129c0.09,0.077-0.039,0.452,0.058,0.529
		c0.097,0.078,0.278,0.039,0.381,0.116c0.103,0.065,0.22,0.116,0.323,0.194c0.11,0.064,0.349-0.084,0.452-0.026
		c0.104,0.071,0.136,0.252,0.246,0.311c0.11,0.064,0.233,0.104,0.336,0.161c0.116,0.059,0.168,0.2,0.278,0.266
		c0.11,0.051,0.123,0.284,0.233,0.336c0.109,0.058,0.42-0.271,0.529-0.214c0.11,0.059,0.02,0.491,0.129,0.55
		c0.11,0.051,0.336-0.117,0.439-0.065c0.11,0.059,0.148,0.246,0.258,0.298c0.11,0.064,0.278-0.013,0.394,0.052
		c0.104,0.052,0.181,0.181,0.284,0.232c0.11,0.058,0.168,0.22,0.271,0.284c0.11,0.052,0.31-0.064,0.414-0.007
		c0.116,0.052,0.271,0.014,0.375,0.071c0.116,0.052,0.142,0.271,0.252,0.323c0.11,0.058,0.33-0.11,0.433-0.052
		c0.077,0.039,0.09,0.02,0.213,0.025c0.084,0,0.162,0.194,0.265,0.2c-0.013-0.122,0.039-0.252,0.026-0.381
		c-0.013-0.129-0.026-0.252-0.039-0.375c-0.013-0.129-0.116-0.245-0.123-0.361c-0.02-0.129-0.188-0.232-0.2-0.362
		c-0.013-0.122-0.039-0.252-0.058-0.374c-0.013-0.123,0.381-0.298,0.362-0.42c-0.013-0.123-0.459-0.2-0.472-0.323
		c-0.013-0.123,0.078-0.252,0.064-0.381c-0.013-0.13,0.039-0.259,0.026-0.388c-0.013-0.116-0.032-0.246-0.045-0.368
		c-0.019-0.123,0.065-0.266,0.058-0.382c-0.013-0.129-0.097-0.245-0.103-0.368c-0.02-0.122-0.136-0.238-0.155-0.361
		c-0.013-0.123,0.342-0.278,0.336-0.407c-0.013-0.129-0.123-0.245-0.129-0.361c-0.013-0.13-0.265-0.233-0.271-0.362
		c-0.006-0.123,0.006-0.252,0-0.375c-0.006-0.116,0.148-0.226,0.181-0.349c0.026-0.116-0.142-0.304-0.097-0.42
		s0.33-0.136,0.368-0.252s0.013-0.258,0.026-0.375c0.02-0.129-0.11-0.265-0.09-0.387c0.013-0.123,0.09-0.233,0.116-0.355
		c0.013-0.123-0.039-0.259-0.013-0.382c0.013-0.116,0.117-0.226,0.143-0.349c0.013-0.116-0.143-0.271-0.123-0.394
		c0.026-0.123,0.394-0.175,0.42-0.291c0.026-0.123,0.136-0.22,0.162-0.343c0.02-0.122-0.174-0.29-0.148-0.407
		c0.026-0.116-0.091-0.271-0.065-0.387c0.026-0.123,0.394-0.162,0.427-0.285c0.025-0.116-0.078-0.271-0.052-0.387
		c0.032-0.117-0.032-0.259,0-0.375c0.032-0.123-0.032-0.271,0-0.388s0.064-0.232,0.09-0.355c0.039-0.116,0.155-0.207,0.194-0.329
		c0.039-0.116,0.362-0.143,0.394-0.259c0.039-0.116-0.284-0.349-0.246-0.465c0.039-0.116,0.11-0.227,0.148-0.336
		c0.039-0.116,0.194-0.194,0.233-0.311c0.045-0.116,0.026-0.252,0.064-0.368c0.045-0.116,0.064-0.239,0.11-0.355
		c0.045-0.116,0.11-0.219,0.148-0.336c0.039-0.116,0.129-0.213,0.168-0.329c0.045-0.11,0.136-0.207,0.181-0.323
		c0.045-0.11,0.271-0.148,0.316-0.265c0.045-0.117-0.22-0.362-0.174-0.472c0.052-0.11,0.052-0.246,0.104-0.355
		c0.051-0.116,0.336-0.116,0.387-0.232c0.052-0.116,0.129-0.207,0.181-0.323s-0.142-0.336-0.09-0.452
		c0.052-0.104,0.258-0.148,0.31-0.258s0.232-0.233,0.246-0.375c0.013-0.129,0.039-0.297,0.026-0.433
		c-0.02-0.136-0.311-0.226-0.349-0.349c-0.045-0.135-0.026-0.284-0.104-0.381c-0.077-0.104-0.123-0.22-0.194-0.31
		c-0.077-0.104-0.155-0.207-0.213-0.304c-0.071-0.11-0.162-0.194-0.22-0.291c-0.071-0.116,0.104-0.336,0.058-0.439
		c-0.058-0.116-0.362-0.129-0.388-0.233c-0.039-0.129-0.168-0.271-0.168-0.387c0-0.123,0.123-0.271,0.174-0.381
		c0.045-0.104,0.213-0.148,0.304-0.239c0.078-0.077,0.181-0.135,0.297-0.207c0.097-0.052,0.213-0.078,0.336-0.129
		c0.104-0.039,0.142-0.31,0.271-0.349c0.103-0.032,0.336,0.323,0.452,0.291s0.207-0.181,0.33-0.213
		c0.109-0.02,0.252-0.104,0.375-0.129c0.02-0.116,0.174-0.232,0.194-0.355c0.026-0.116-0.052-0.258-0.032-0.368
		c0.026-0.123-0.22-0.297-0.2-0.414c0.025-0.116,0.148-0.213,0.174-0.323c0.026-0.123-0.013-0.252,0.013-0.375
		c0.026-0.116,0.336-0.168,0.362-0.284c0.026-0.123,0.142-0.213,0.168-0.33c0.026-0.123-0.013-0.252,0.02-0.361
		c0.032-0.117-0.006-0.252,0.026-0.362c0.032-0.117-0.116-0.285-0.078-0.401c0.032-0.11,0.026-0.245,0.058-0.362
		c0.039-0.11,0.336-0.103,0.414-0.2c0.071-0.103,0-0.323,0.09-0.414c0.084-0.077,0.129-0.245,0.22-0.316
		c0.104-0.078,0.414,0.136,0.517,0.058c0.097-0.078,0.162-0.188,0.259-0.258c0.09-0.071,0.052-0.375,0.161-0.426
		c0.104-0.052,0.304,0.077,0.407,0.026c0.11-0.039,0.155-0.188,0.258-0.246c0.104-0.064,0.291-0.013,0.349-0.11
		c0.064-0.11,0.258-0.097,0.336-0.188c0.078-0.104-0.104-0.452-0.02-0.53c0.097-0.078,0.362,0.09,0.472,0.039
		c0.104-0.052,0.129-0.323,0.252-0.355s0.258-0.104,0.381-0.11c0.116,0,0.245,0.148,0.375,0.162c0.116,0.019,0.207,0.187,0.33,0.213
		c0.11,0.026,0.265-0.09,0.381-0.064c0.252,0.071,0.633,0.136,0.569,0.116c0.058-0.103-0.194-0.297-0.129-0.4
		c0.058-0.104,0.491,0,0.549-0.104c0.058-0.103-0.233-0.426-0.174-0.53c0.064-0.103,0.258-0.129,0.323-0.239
		c0.064-0.104,0.052-0.252,0.116-0.355c0.065-0.104,0.039-0.271,0.097-0.375c0.058-0.104,0.355-0.071,0.42-0.175
		c0.064-0.103-0.091-0.342-0.026-0.446c0.064-0.103,0.22-0.148,0.284-0.245c0.065-0.104,0.02-0.285,0.09-0.388
		c0.064-0.104,0.4-0.013,0.472-0.116c0.071-0.097-0.013-0.336,0.064-0.414c0.084-0.104,0.291-0.071,0.381-0.142
		c0.098-0.078,0.104-0.323,0.207-0.375c0.116-0.051,0.304,0.104,0.427,0.091c0.116-0.013,0.297-0.252,0.42-0.22
		c0.109,0.039,0.058,0.42,0.168,0.504c0.09,0.064,0.265,0.09,0.355,0.194c0.077-0.091,0.284-0.136,0.368-0.22
		c0.084-0.09-0.059-0.388,0.02-0.478c0.084-0.078,0.142-0.194,0.226-0.271c0.084-0.09,0.278-0.064,0.362-0.155
		C31.61,7.5,31.778,7.5,31.855,7.41c0.084-0.084-0.052-0.375,0.032-0.465c0.084-0.084,0.278-0.064,0.355-0.155
		c0.084-0.078,0.116-0.207,0.207-0.297c0.084-0.084,0.245-0.09,0.329-0.174s0.291-0.032,0.381-0.11
		c0.098-0.104,0.175-0.155,0.278-0.22c0.109-0.071,0.071-0.42,0.188-0.465c0.116-0.052,0.284-0.033,0.406-0.065
		c0.123-0.026,0.252-0.187,0.382-0.194c0.122-0.013,0.271,0.31,0.4,0.31s0.259-0.071,0.394-0.064
		c0.13,0.013,0.239-0.155,0.369-0.181c0.129-0.026,0.277,0.071,0.406,0.026c0.123-0.039,0.266-0.039,0.395-0.097
		c0.116-0.052,0.258-0.071,0.375-0.123c0.122-0.058,0.103-0.388,0.219-0.452c0.117-0.052,0.388,0.219,0.511,0.168
		c0.123-0.052,0.11-0.427,0.239-0.465c0.116-0.039,0.291,0.09,0.407,0.052c0.116-0.039,0.252-0.026,0.361-0.065
		c0.116-0.039,0.168-0.284,0.278-0.323c0.116-0.039,0.297,0.129,0.413,0.09c0.116-0.039,0.265,0.039,0.388,0
		c0.116-0.039,0.226-0.078,0.349-0.116c0.116-0.039,0.2-0.162,0.311-0.2c0.116-0.032,0.213-0.148,0.329-0.188
		c0.11-0.039,0.284,0.084,0.395,0.045c0.109-0.032,0.142-0.265,0.245-0.304c0.104-0.052,0.143-0.194,0.245-0.252
		c0.091-0.058,0.375,0.2,0.466,0.148c0.116-0.064,0.206-0.129,0.31-0.181c0.123-0.052,0.207-0.129,0.316-0.168
		c0.13-0.052,0.175-0.336,0.291-0.355c0.129-0.026,0.252,0.232,0.375,0.239c0.129,0.013,0.193,0.006,0.297,0.058
		c0.116,0.045,0.155,0.097,0.252,0.187c0.084,0.084,0.355,0,0.427,0.117c0.058,0.103,0.129,0.219,0.181,0.349
		c0.045,0.104-0.2,0.31-0.161,0.439c0.032,0.116,0.284,0.168,0.31,0.297c0.116-0.032,0.2-0.168,0.323-0.207
		c0.116-0.026,0.22-0.09,0.349-0.116c0.116-0.039,0.284,0.129,0.414,0.097c0.116-0.032,0.232-0.071,0.354-0.097
		c0.123-0.026,0.252-0.013,0.369-0.026c0.122-0.02,0.232-0.078,0.361-0.078c0.104-0.006,0.265-0.181,0.395-0.155
		c0.122,0.025,0.174,0.329,0.29,0.368c0.13,0.045,0.271-0.007,0.375,0.052c0.123,0.077,0.297,0.123,0.336,0.213
		c0.052,0.116,0.013,0.278,0.007,0.426c0,0.129,0,0.271-0.033,0.401c-0.025,0.129-0.129,0.245-0.181,0.368
		c-0.052,0.136-0.038,0.291-0.104,0.394c-0.064,0.116-0.013,0.297-0.084,0.4c-0.07,0.116-0.161,0.168-0.2,0.284
		c-0.038,0.117-0.245,0.213-0.22,0.349c0.014,0.11,0,0.278,0.065,0.414c0.051,0.097,0.387,0.194,0.361,0.336
		c-0.02,0.116-0.22,0.22-0.259,0.336c-0.052,0.116-0.213,0.168-0.271,0.271c-0.071,0.117,0.038,0.355-0.026,0.446
		c-0.064,0.084-0.259,0.22-0.4,0.265c-0.11,0.039-0.291,0-0.413,0c-0.136,0.013-0.285-0.09-0.388-0.11
		c-0.13-0.032-0.22-0.2-0.35-0.239c-0.122-0.032-0.265-0.006-0.388-0.051c-0.129-0.039-0.322,0.123-0.445,0.077
		c-0.123-0.039-0.265-0.052-0.388-0.097c-0.123-0.045-0.161-0.316-0.284-0.355c-0.123-0.052-0.213-0.168-0.343-0.22
		c-0.122-0.039-0.206,0.116-0.336,0.071c-0.025,0.136,0.039,0.181,0.007,0.291c-0.039,0.129-0.316,0.168-0.368,0.271
		c-0.064,0.123,0.013,0.323-0.059,0.414c-0.084,0.103-0.213,0.174-0.316,0.252c-0.097,0.071-0.193,0.2-0.31,0.252
		s-0.271,0.026-0.388,0.052c-0.123,0.039-0.233,0.213-0.35,0.232c-0.129,0.02-0.258,0.078-0.388,0.09
		c-0.116,0.013-0.277-0.291-0.4-0.284C40.7,9.658,40.59,9.936,40.467,9.942c-0.129,0.013-0.213,0.051-0.342,0.09
		c-0.129,0.039-0.349-0.226-0.472-0.181c-0.123,0.052-0.2,0.22-0.316,0.271s-0.271,0.026-0.388,0.09
		c-0.116,0.052-0.188,0.181-0.297,0.233c-0.117,0.045-0.298-0.065-0.407-0.026c-0.116,0.045-0.116,0.414-0.227,0.452
		c-0.122,0.039-0.31-0.155-0.426-0.116c-0.123,0.026-0.182,0.278-0.304,0.31c-0.123,0.026-0.266-0.052-0.395-0.032
		c-0.116,0.019-0.271-0.175-0.388-0.162c-0.129,0.02-0.22,0.297-0.349,0.31c-0.123,0.006-0.245,0.136-0.375,0.136
		c-0.122,0-0.245-0.181-0.368-0.188c-0.123-0.013-0.226-0.155-0.355-0.181c-0.116-0.013-0.297,0.245-0.413,0.22
		c-0.123-0.026-0.194-0.323-0.323-0.336c-0.116-0.013-0.245-0.026-0.375-0.033c-0.122-0.006-0.245,0.084-0.374,0.084
		c-0.116-0.013-0.466-0.051-0.595-0.058c0.097,0.213,0.207,0.407,0.245,0.472c0.078,0.104,0.336,0.078,0.414,0.188
		c0.071,0.104,0.258,0.136,0.336,0.239c0.077,0.104-0.052,0.362,0.032,0.465c0.071,0.104,0.355,0.207,0.433,0.31
		c-0.104,0.052-0.439-0.052-0.549,0.006c-0.104,0.058-0.194,0.149-0.304,0.213c-0.104,0.058-0.071,0.349-0.181,0.407
		c-0.104,0.059-0.182,0.201-0.284,0.252c-0.11,0.051-0.336-0.143-0.452-0.104c-0.11,0.045-0.188,0.22-0.311,0.239
		c-0.116,0.033-0.271-0.155-0.4-0.142c-0.129,0.02-0.246,0.045-0.375,0.045s-0.258,0.297-0.388,0.284
		c-0.129,0-0.258,0.026-0.388,0.02c-0.122-0.006-0.232-0.323-0.361-0.33c-0.129,0-0.194,0.155-0.323,0.155
		c-0.025,0.116,0.032,0.097,0,0.213c0.084,0.064-0.007,0.2,0.077,0.278c0.084,0.064,0.059,0.265,0.143,0.336
		c0.084,0.064,0.355-0.09,0.439-0.02c0.084,0.065,0.284,0.188,0.375,0.252c-0.065,0.117-0.246,0.297-0.317,0.401
		c-0.07,0.116-0.29,0.103-0.368,0.207c-0.09,0.104-0.116,0.239-0.213,0.33s-0.097,0.291-0.2,0.368s-0.368-0.104-0.484-0.045
		c-0.11,0.059-0.123,0.33-0.252,0.369c-0.116,0.045-0.298-0.117-0.427-0.091c-0.116,0.026-0.207,0.343-0.336,0.355
		c-0.129,0.006-0.265-0.078-0.388-0.071c-0.123,0-0.258-0.181-0.381-0.168c-0.123,0-0.246,0.09-0.368,0.09
		c-0.129,0-0.246,0.232-0.375,0.232c-0.123,0-0.258-0.349-0.388-0.349c-0.116,0.006-0.239,0.155-0.368,0.161
		c-0.123,0.007-0.265-0.174-0.394-0.161c-0.104,0.006-0.258,0.026-0.362,0.051c-0.11,0.039-0.168,0.246-0.271,0.297
		c-0.09,0.045-0.181,0.142-0.271,0.2c-0.091,0.058,0.006,0.136-0.078,0.207c0.097,0.019,0.039,0.123,0.129,0.11
		c0.117-0.007,0.252,0.129,0.375,0.116c0.123-0.013,0.232-0.168,0.349-0.168c0.123,0,0.285-0.271,0.401-0.259
		c0.123,0.026,0.129,0.401,0.232,0.465c0.097,0.058,0.4-0.039,0.452,0.078c0.052,0.104,0.052,0.284,0.058,0.414
		c0.007,0.123-0.161,0.258-0.232,0.4c-0.058,0.104-0.31,0.078-0.4,0.181c-0.084,0.103-0.162,0.181-0.265,0.271
		c-0.097,0.09-0.097,0.278-0.207,0.362c-0.104,0.09-0.233,0.136-0.336,0.207c-0.097,0.064-0.226,0.032-0.323,0.09
		c-0.104,0.052-0.104,0.304-0.207,0.349c-0.104,0.039-0.194,0.155-0.297,0.194c-0.104,0.032-0.22,0.078-0.323,0.11
		c-0.117,0.039-0.181,0.188-0.285,0.226c-0.116,0.039-0.155-0.078-0.258-0.039c0.052,0.103-0.22,0.278-0.155,0.4
		c0.064,0.104,0.284,0.142,0.349,0.246c0.064,0.129,0.078,0.258,0.123,0.362c0.058,0.155,0.355,0.362,0.303,0.446
		c-0.064,0.103-0.336,0.103-0.426,0.213c-0.078,0.097-0.246,0.104-0.349,0.194c-0.104,0.091-0.207,0.142-0.323,0.213
		c-0.11,0.071-0.155,0.239-0.271,0.291c-0.129,0.052-0.245-0.103-0.375-0.103s-0.246,0.22-0.362,0.232
		c-0.129,0.006-0.258-0.026-0.375-0.006c-0.129,0.019-0.194,0.265-0.31,0.291c-0.117,0.039-0.297-0.116-0.407-0.064
		c-0.11,0.045-0.188,0.188-0.291,0.246c-0.104,0.064-0.22,0.103-0.31,0.181c-0.104,0.071-0.207,0.142-0.297,0.22
		c-0.084,0.084-0.064,0.258-0.148,0.355c-0.084,0.09-0.427-0.033-0.498,0.071c-0.071,0.104,0.207,0.426,0.136,0.53
		c-0.058,0.104-0.465,0.013-0.523,0.129c-0.052,0.103-0.104,0.232-0.155,0.336c-0.051,0.116-0.116,0.226-0.168,0.342
		c-0.045,0.11,0.117,0.304,0.071,0.426c-0.045,0.11-0.252,0.174-0.291,0.284c-0.039,0.123,0.265,0.355,0.219,0.472
		c-0.039,0.116-0.109,0.22-0.142,0.343c-0.051,0.123-0.129,0.219-0.174,0.342c-0.045,0.116-0.265,0.168-0.304,0.284
		c-0.045,0.123-0.078,0.239-0.116,0.362c-0.039,0.116-0.064,0.239-0.104,0.355c-0.039,0.116-0.026,0.252-0.064,0.368
		c-0.045,0.116-0.064,0.245-0.097,0.361c-0.045,0.116-0.123,0.227-0.162,0.343c-0.039,0.123,0.071,0.291,0.026,0.407
		c-0.039,0.116-0.246,0.181-0.284,0.297c-0.039,0.11,0.09,0.291,0.051,0.413c-0.039,0.117-0.271,0.168-0.31,0.285
		c-0.045,0.116,0.155,0.316,0.116,0.438c-0.045,0.116-0.271,0.168-0.31,0.284c-0.032,0.123,0.104,0.298,0.065,0.414
		c-0.039,0.123-0.355,0.142-0.394,0.265c-0.033,0.123,0.155,0.316,0.11,0.433c-0.039,0.116-0.285,0.168-0.323,0.284
		c-0.052,0.116-0.194,0.304-0.232,0.427c0.123,0.045,0.323-0.109,0.439-0.064c0.065-0.11,0.155-0.084,0.207-0.194
		c0.058-0.109,0.31-0.109,0.375-0.22c0.064-0.109-0.097-0.336-0.039-0.438c0.052-0.116-0.032-0.304,0.026-0.407
		c0.058-0.11,0.278-0.129,0.336-0.232c0.064-0.11,0.323-0.098,0.388-0.2c0.058-0.104-0.181-0.395-0.117-0.491
		c0.065-0.11,0.285-0.116,0.349-0.22s0.258-0.116,0.33-0.22c0.064-0.097,0.174-0.168,0.246-0.271c0.071-0.097,0.129-0.207,0.2-0.304
		c0.071-0.097-0.142-0.407-0.071-0.504c0.071-0.097,0.09-0.239,0.168-0.336c0.071-0.097,0.498,0.084,0.568-0.02
		c0.078-0.09-0.174-0.452-0.097-0.542c0.084-0.104,0.349-0.032,0.426-0.13c0.078-0.09,0.052-0.284,0.142-0.375
		c0.078-0.09,0.181-0.155,0.271-0.246c0.078-0.09,0.252-0.097,0.336-0.181c0.09-0.09,0.116-0.232,0.207-0.316
		c0.078-0.084,0.207-0.136,0.297-0.22c0.084-0.084,0.148-0.188,0.239-0.278c0.09-0.084,0.336,0,0.426-0.078s0.084-0.265,0.181-0.349
		c0.091-0.078,0.162-0.181,0.265-0.259c0.09-0.077,0-0.375,0.09-0.452s0.284-0.039,0.388-0.116c0.09-0.078,0.155-0.194,0.258-0.265
		c0.097-0.078,0.136-0.226,0.232-0.304c0.097-0.078,0.259-0.058,0.362-0.136c0.104-0.071,0.343,0.058,0.439-0.006
		c0.104-0.078,0.155-0.213,0.258-0.278c0.097-0.071,0.207-0.129,0.31-0.2c0.097-0.065,0.078-0.323,0.181-0.388
		c0.097-0.065,0.323,0.052,0.426-0.013c0.11-0.064,0.271-0.026,0.375-0.09c0.103-0.071,0.207-0.123,0.31-0.181
		c0.11-0.065,0.064-0.388,0.168-0.446c0.103-0.058,0.375,0.161,0.478,0.097c0.103-0.058-0.013-0.517,0.097-0.568
		c0.11-0.065,0.368,0.148,0.472,0.09c0.116-0.064,0.194-0.194,0.304-0.258c0.11-0.065,0.304,0.006,0.42-0.065
		c0.103-0.071,0.129-0.277,0.233-0.349c0.116-0.071,0.245-0.09,0.354-0.168c0.11-0.064,0.123-0.291,0.239-0.355
		c0.104-0.064,0.22-0.148,0.33-0.213c0.116-0.065,0.206-0.207,0.329-0.252c0.116-0.052,0.311,0.013,0.452-0.007
		c0.123-0.026,0.259-0.123,0.395-0.135c0.136-0.02,0.29,0.174,0.42,0.155c0.142-0.013,0.284,0.026,0.413-0.006
		c0.129-0.039,0.181-0.233,0.291-0.31c0.104-0.065,0.265-0.039,0.368-0.097s0.136-0.304,0.245-0.355
		c0.116-0.039,0.298,0.064,0.407,0.032c0.116-0.032,0.265,0.071,0.388,0.045s0.2-0.284,0.316-0.31
		c0.116-0.013,0.259-0.013,0.375-0.019c0.116-0.007,0.258,0.239,0.374,0.239c0.123-0.006,0.246,0.084,0.362,0.084
		c0.123-0.006,0.232-0.362,0.361-0.362c0.117,0,0.246,0.129,0.362,0.129c0.123-0.006,0.259,0.22,0.375,0.213
		c0.116,0,0.22-0.413,0.336-0.42c0.116-0.006,0.271,0.246,0.388,0.226c0.122-0.013,0.245-0.064,0.361-0.064
		c0.129,0,0.259-0.039,0.375-0.032c0.129,0.006,0.22,0.213,0.349,0.232c0.129,0.02,0.232,0.058,0.361,0.084
		c0.123,0.026,0.317-0.265,0.439-0.232c0.116,0.039,0.207,0.207,0.33,0.232c0.122,0.039,0.284-0.077,0.406-0.039
		c0.123,0.039,0.233,0.116,0.35,0.155c0.116,0.039,0.206,0.168,0.329,0.207c0.123,0.045,0.239,0.084,0.355,0.129
		c0.116,0.039,0.291-0.09,0.413-0.051c0.116,0.039,0.13,0.439,0.246,0.472c0.129,0.032,0.336-0.213,0.452-0.175
		c0.129,0.039,0.271,0.039,0.388,0.078c0.116,0.045,0.109,0.446,0.232,0.491c0.116,0.045,0.343-0.181,0.465-0.136
		c0.123,0.045,0.259,0.045,0.375,0.084c0.123,0.045,0.142,0.381,0.265,0.426c0.123,0.039,0.239,0.129,0.362,0.168
		c0.122,0.039,0.342-0.304,0.472-0.271c0.122,0.026,0.193,0.31,0.322,0.323c0.123,0.026,0.246,0.013,0.362,0.045
		c0.116,0.032,0.213,0.135,0.336,0.168c0.116,0.032,0.258-0.033,0.374,0.006c0.117,0.039,0.233,0.064,0.35,0.103
		c0.109,0.045,0.155,0.259,0.271,0.311c0.109,0.045,0.297-0.097,0.413-0.045c0.104,0.052,0.232,0.078,0.343,0.129
		c0.109,0.051,0.109,0.329,0.213,0.387s0.291-0.045,0.4,0.02c0.104,0.058,0.232,0.097,0.336,0.155
		c0.104,0.064,0.311-0.045,0.413,0.013c0.104,0.064,0.014,0.472,0.117,0.53c0.103,0.064,0.297-0.02,0.406,0.039
		c0.104,0.065,0.355-0.116,0.459-0.045c0.104,0.058,0.143,0.232,0.245,0.291c0.104,0.064,0.116,0.297,0.22,0.362
		s0.194,0.155,0.304,0.22c0.11,0.052,0.188,0.181,0.291,0.232c0.104,0.065,0.297-0.026,0.4,0.026
		c0.11,0.052,0.155,0.246,0.271,0.297c0.104,0.052,0.323-0.142,0.439-0.09c0.116,0.045,0.168,0.232,0.284,0.284
		c0.116,0.039,0.271-0.039,0.388,0c0.116,0.039,0.232,0.058,0.355,0.09c0.109,0.026,0.084,0.232,0.161,0.349
		c0.064,0.09,0.259,0.116,0.323,0.232c0.052,0.116-0.129,0.336-0.084,0.446c0.052,0.123,0.42,0.187,0.484,0.291
		c-0.116,0.052-0.445-0.142-0.556-0.078c-0.104,0.052-0.077,0.355-0.193,0.414c-0.104,0.052-0.317-0.136-0.427-0.09
		c-0.116,0.052-0.123,0.375-0.245,0.407c-0.11,0.033-0.239,0.129-0.362,0.136c-0.116,0.013-0.245-0.207-0.368-0.213
		c-0.116,0-0.232-0.02-0.355-0.032c-0.116-0.007-0.252,0.207-0.374,0.2c-0.13-0.007-0.259,0.032-0.388,0.019
		c-0.13-0.013-0.227-0.433-0.355-0.452c-0.136-0.013-0.316,0.284-0.439,0.246c-0.123-0.026-0.2-0.252-0.316-0.304
		c-0.11-0.045-0.182-0.188-0.284-0.239c-0.116-0.052-0.271,0.013-0.382-0.033c-0.109-0.051-0.174-0.2-0.277-0.245
		c-0.116-0.045-0.349,0.161-0.452,0.11c-0.116-0.052-0.207-0.136-0.323-0.188c-0.104-0.052-0.2-0.136-0.311-0.188
		c-0.109-0.052-0.103-0.342-0.206-0.394c-0.11-0.052-0.336,0.142-0.446,0.084c-0.109-0.052-0.206-0.11-0.316-0.168
		c-0.109-0.052-0.22-0.097-0.329-0.148c-0.11-0.052-0.188-0.162-0.304-0.213c-0.104-0.052-0.271,0.039-0.388-0.013
		c-0.104-0.045-0.064-0.452-0.175-0.498c-0.122-0.052-0.368,0.239-0.51,0.22c-0.13-0.02-0.246-0.174-0.388-0.188
		c-0.13-0.013-0.246-0.232-0.388-0.239c-0.136-0.02-0.311,0.226-0.439,0.193c-0.116-0.025-0.207-0.161-0.323-0.187
		s-0.265,0.071-0.375,0.045c-0.116-0.032-0.206-0.2-0.316-0.226c-0.116-0.032-0.193-0.22-0.31-0.246
		c-0.11-0.025-0.266,0.091-0.382,0.065s-0.29,0.155-0.4,0.136c-0.116-0.026-0.239-0.033-0.361-0.058
		c-0.116-0.026-0.246,0.006-0.362-0.026c-0.116-0.026-0.22-0.104-0.329-0.136c-0.116-0.032-0.175-0.31-0.291-0.33
		c-0.116-0.032-0.206-0.155-0.329-0.181c-0.11-0.026-0.316,0.323-0.433,0.291s-0.207-0.142-0.323-0.162
		c-0.123-0.02-0.232-0.104-0.349-0.116c-0.123-0.013-0.233-0.11-0.35-0.129c-0.116-0.019-0.258,0.052-0.368,0.026
		c-0.122-0.026-0.239-0.064-0.355-0.097c-0.116-0.039-0.29,0.032-0.42-0.006c-0.129-0.052-0.304-0.033-0.42-0.091
		c-0.129-0.058-0.161-0.329-0.265-0.4c-0.123-0.078-0.032-0.297-0.104-0.407c-0.077-0.11-0.181-0.227-0.258-0.311
		c-0.091-0.097-0.252-0.168-0.343-0.232c-0.104-0.078-0.355,0.148-0.472,0.11c-0.123-0.039-0.188-0.155-0.31-0.168
		c-0.117,0-0.207,0.148-0.33,0.168c-0.116,0.02-0.258-0.116-0.375-0.078c-0.116,0.032-0.31-0.155-0.433-0.103
		c-0.109,0.039-0.161,0.284-0.277,0.323c-0.11,0.039-0.207,0.123-0.323,0.168c-0.116,0.045-0.336-0.181-0.452-0.129
		c-0.116,0.045-0.059,0.504-0.175,0.549c-0.109,0.045-0.238,0.045-0.355,0.097c-0.116,0.051-0.232,0.084-0.342,0.142
		c-0.11,0.052-0.395-0.259-0.498-0.207c-0.109,0.052-0.019,0.53-0.129,0.582c-0.109,0.052-0.232,0.078-0.336,0.129
		c-0.116,0.058-0.232,0.09-0.342,0.142c-0.11,0.058-0.317-0.065-0.421,0c-0.103,0.052-0.129,0.271-0.232,0.33
		c-0.104,0.058-0.265,0.032-0.368,0.097c-0.109,0.064-0.29-0.013-0.394,0.052c-0.103,0.071-0.11,0.291-0.219,0.355
		c-0.104,0.071-0.207,0.123-0.304,0.194c-0.097,0.071-0.155,0.213-0.252,0.277c-0.104,0.078-0.375-0.103-0.472-0.025
		c-0.097,0.064,0.02,0.439-0.084,0.51c-0.097,0.071-0.355-0.071-0.452,0.006c-0.097,0.078-0.013,0.375-0.117,0.452
		c-0.09,0.078-0.193,0.142-0.284,0.22c-0.09,0.078-0.375-0.078-0.472,0.006c-0.097,0.084-0.11,0.252-0.2,0.33
		c-0.09,0.084-0.155,0.194-0.246,0.271c-0.09,0.084-0.245,0.09-0.336,0.174c-0.09,0.084,0,0.355-0.09,0.439s-0.452-0.11-0.542-0.02
		c-0.084,0.084-0.174,0.175-0.265,0.259c-0.084,0.09-0.213,0.154-0.291,0.232c-0.09,0.09,0.013,0.361-0.078,0.452
		c-0.084,0.091-0.355,0.006-0.439,0.097c-0.091,0.091-0.013,0.33-0.097,0.427c-0.084,0.09-0.078,0.258-0.162,0.355
		c-0.078,0.09-0.323,0.052-0.4,0.142c-0.084,0.091-0.052,0.284-0.136,0.375c-0.084,0.09-0.148,0.2-0.226,0.297
		c-0.078,0.091-0.213,0.143-0.297,0.232c-0.077,0.104-0.064,0.259-0.142,0.362c-0.078,0.09-0.155,0.193-0.232,0.29
		c-0.078,0.098-0.116,0.22-0.188,0.317c-0.078,0.103-0.394,0.019-0.458,0.116c-0.078,0.104-0.168,0.193-0.246,0.297
		c-0.064,0.097,0.155,0.407,0.09,0.504c-0.071,0.104-0.129,0.207-0.2,0.311c-0.071,0.103-0.123,0.219-0.188,0.322
		c-0.064,0.104-0.342,0.078-0.4,0.182c-0.064,0.103-0.006,0.284-0.064,0.388c-0.064,0.116-0.142,0.213-0.194,0.316
		c-0.064,0.109-0.426,0.058-0.484,0.161c-0.058,0.11,0.265,0.42,0.213,0.53c-0.058,0.109-0.252,0.154-0.304,0.258
		c-0.058,0.116,0.052,0.297,0,0.414c-0.058,0.116-0.342,0.116-0.394,0.232c-0.045,0.116-0.22,0.181-0.265,0.297
		c-0.045,0.109,0.187,0.336,0.142,0.452c-0.045,0.116,0.02,0.271-0.02,0.381c-0.045,0.117-0.375,0.136-0.414,0.252
		c-0.039,0.117-0.064,0.246-0.103,0.362c-0.032,0.116-0.065,0.239-0.104,0.361c-0.026,0.116,0.129,0.291,0.104,0.414
		c-0.032,0.116,0.052,0.258,0.019,0.381c-0.032,0.123-0.22,0.207-0.239,0.323c-0.026,0.123-0.336,0.188-0.355,0.316
		c-0.02,0.116,0.142,0.271,0.123,0.388c-0.013,0.116,0.194,0.259,0.188,0.375c-0.006,0.122-0.02,0.232-0.02,0.349
		c-0.006,0.116-0.219,0.232-0.219,0.349c0,0.123,0.219,0.232,0.219,0.349c0.013,0.123-0.168,0.246-0.155,0.368
		c0.006,0.123-0.104,0.252-0.09,0.369c0.013,0.122-0.007,0.252,0.013,0.368c0.013,0.122,0.213,0.226,0.232,0.342
		c0.052-0.116,0.291-0.161,0.336-0.271c0.051-0.116-0.265-0.388-0.22-0.497c0.052-0.116,0.31-0.136,0.362-0.252
		c0.051-0.116-0.013-0.278,0.026-0.388c0.051-0.116-0.039-0.284,0-0.4c0.051-0.116,0.445-0.097,0.491-0.213
		c0.039-0.11-0.258-0.35-0.22-0.472c0.039-0.116,0.233-0.182,0.284-0.298c0.039-0.109,0.104-0.22,0.155-0.336
		c0.045-0.116,0.271-0.136,0.323-0.245c0.051-0.11-0.091-0.323-0.039-0.433c0.064-0.11,0.375-0.064,0.439-0.175
		c0.058-0.104-0.09-0.336-0.026-0.439c0.071-0.104,0.31-0.084,0.381-0.181c0.071-0.104-0.045-0.336,0.025-0.439
		c0.071-0.097,0.355-0.032,0.433-0.129c0.078-0.091-0.129-0.427-0.052-0.517c0.078-0.098,0.271-0.091,0.349-0.182
		c0.084-0.09,0.142-0.206,0.219-0.297c0.091-0.091,0.304-0.052,0.388-0.136c0.09-0.084,0.09-0.259,0.168-0.343
		c0.09-0.09,0.343,0,0.427-0.09c0.09-0.084-0.143-0.504-0.052-0.595c0.09-0.077,0.284-0.052,0.375-0.136s0.381,0.059,0.472-0.025
		s0.032-0.336,0.123-0.42c0.091-0.078,0.207-0.129,0.297-0.213s0.155-0.201,0.246-0.278c0.09-0.084,0.09-0.277,0.187-0.361
		c0.097-0.078,0.355,0.038,0.453-0.046c0.097-0.084,0.11-0.265,0.2-0.336c0.103-0.084,0.162-0.206,0.258-0.29
		c0.09-0.078,0.232-0.104,0.336-0.182c0.104-0.07,0.271-0.052,0.375-0.129c0.104-0.077,0.129-0.232,0.233-0.316
		c0.097-0.078,0.181-0.175,0.284-0.252c0.097-0.078,0.297-0.026,0.388-0.104c0.103-0.077,0.032-0.361,0.129-0.439
		c0.091-0.064,0.265-0.039,0.375-0.077c0.097-0.052,0.258,0.064,0.362,0.025c0.103-0.038,0.155-0.206,0.258-0.245
		c0.116-0.039,0.22-0.116,0.336-0.155c0.116-0.045,0.258,0,0.375-0.039c0.117-0.038,0.278,0.052,0.388,0.014
		c0.116-0.046,0.154-0.298,0.271-0.336c0.117-0.046,0.214-0.136,0.323-0.182c0.116-0.038,0.22-0.109,0.336-0.154
		c0.116-0.039,0.207-0.13,0.323-0.175s0.311,0.136,0.427,0.091c0.116-0.046,0.154-0.278,0.271-0.317
		c0.116-0.045,0.277,0.052,0.394,0.014c0.11-0.039,0.213-0.116,0.329-0.155c0.117-0.045,0.343,0.22,0.453,0.181
		c0.116-0.045,0.142-0.349,0.258-0.388c0.11-0.038,0.181-0.232,0.291-0.271c0.116-0.038,0.277,0.065,0.394,0.026
		s0.233-0.064,0.35-0.104s0.271,0.045,0.394,0.007c0.116-0.039,0.227-0.098,0.343-0.13s0.232-0.084,0.349-0.122
		c0.116-0.026,0.181-0.239,0.297-0.271s0.227-0.116,0.336-0.148c0.123-0.033,0.246-0.059,0.362-0.098
		c0.116-0.032,0.277,0.064,0.4,0.046c0.129-0.02,0.259,0.084,0.388,0.084c0.116-0.007,0.239-0.032,0.368-0.032
		c0.123,0,0.239,0.058,0.368,0.07c0.116,0.014,0.232,0.116,0.349,0.136c0.13,0.007,0.284-0.271,0.4-0.265
		c0.13,0.013,0.22,0.297,0.35,0.311c0.116,0.013,0.245-0.014,0.374,0c0.123,0.006,0.259-0.091,0.375-0.084
		c0.129,0.006,0.252-0.239,0.375-0.252c0.116,0,0.239,0.271,0.349,0.271c0.123,0.014,0.232,0.033,0.349,0.039
		c0.116,0.013,0.246-0.045,0.362-0.02c0.109,0.02,0.206,0.11,0.316,0.148c0.109,0.039,0.31-0.116,0.413-0.064
		s0.227,0.116,0.323,0.188c0.097,0.059,0.045,0.336,0.136,0.414c0.077,0.064,0.259,0.032,0.323,0.109
		c0.071,0.077,0.181,0.129,0.245,0.22c0.059,0.077-0.104,0.22-0.039,0.297c-0.103,0.032-0.129,0.091-0.232,0.143
		c-0.104,0.038-0.193,0.148-0.297,0.181c-0.104,0.039-0.22,0.155-0.336,0.161c-0.129,0.007-0.259-0.032-0.388-0.032
		c-0.129,0.014-0.259-0.174-0.388-0.174s-0.258,0.322-0.388,0.316c-0.129,0-0.258-0.362-0.381-0.362
		c-0.129,0-0.265-0.032-0.395-0.025c-0.129,0-0.265,0.007-0.394,0.013c-0.123,0.013-0.213,0.323-0.343,0.349
		c-0.129,0.014-0.226,0.116-0.349,0.149c-0.116,0.032-0.316-0.227-0.427-0.188c-0.122,0.032-0.188,0.232-0.31,0.271
		c-0.116,0.032-0.194,0.187-0.311,0.226c-0.109,0.039-0.22,0.091-0.336,0.129c-0.116,0.039-0.258-0.006-0.368,0.032
		c-0.116,0.039-0.265-0.025-0.381,0.014c-0.116,0.045-0.22,0.122-0.33,0.168c-0.109,0.038-0.303-0.116-0.42-0.071
		c-0.116,0.045-0.077,0.459-0.181,0.504c-0.116,0.045-0.316-0.123-0.426-0.071c-0.11,0.052-0.194,0.162-0.304,0.213
		c-0.11,0.059-0.278-0.032-0.395,0.02c-0.109,0.052-0.084,0.388-0.193,0.439c-0.104,0.052-0.311-0.077-0.414-0.025
		c-0.104,0.058-0.271,0.006-0.374,0.064c-0.117,0.052-0.084,0.355-0.194,0.413c-0.104,0.052-0.381-0.193-0.491-0.129
		c-0.104,0.064-0.052,0.381-0.154,0.439c-0.104,0.064-0.362-0.116-0.466-0.059c-0.104,0.059-0.09,0.311-0.193,0.375
		c-0.104,0.071-0.336-0.071-0.439-0.007c-0.104,0.065-0.181,0.175-0.284,0.246s0.02,0.445-0.078,0.517
		c-0.097,0.071-0.336-0.052-0.438,0.013c-0.091,0.078-0.052,0.336-0.143,0.414c-0.097,0.077-0.329-0.039-0.427,0.038
		c-0.09,0.078-0.122,0.232-0.22,0.311c-0.09,0.077-0.354-0.045-0.452,0.025c-0.09,0.084-0.207,0.136-0.297,0.22
		c-0.09,0.078,0.039,0.414-0.052,0.504c-0.09,0.084-0.433-0.104-0.523-0.013c-0.091,0.084-0.175,0.188-0.265,0.271
		c-0.09,0.09-0.142,0.207-0.232,0.297c-0.09,0.091-0.155,0.207-0.246,0.298c-0.09,0.09,0.078,0.426-0.013,0.517
		c-0.078,0.09-0.22,0.129-0.311,0.22c-0.077,0.09-0.252,0.104-0.336,0.193c-0.09,0.091-0.116,0.232-0.2,0.33
		c-0.084,0.097-0.42-0.033-0.498,0.058c-0.077,0.091,0.065,0.362,0.007,0.472c-0.052,0.109-0.291,0.148-0.33,0.265
		s0.168,0.311,0.129,0.427c-0.033,0.116-0.02,0.129-0.065,0.239C24.911,39.57,24.923,39.887,25.046,39.919z M24.097,25.479
		c-0.097,0.078,0.013,0.426-0.084,0.498c-0.091,0.078-0.233,0.104-0.323,0.174c-0.097,0.078-0.304,0.02-0.4,0.097
		c-0.091,0.078-0.207,0.129-0.297,0.207s0.039,0.414-0.052,0.498s-0.246,0.09-0.336,0.174c-0.09,0.078-0.168,0.168-0.258,0.252
		s-0.097,0.252-0.181,0.33c-0.09,0.084-0.4-0.064-0.491,0.02c-0.084,0.084-0.232,0.11-0.316,0.2
		c-0.084,0.083-0.11,0.233-0.188,0.323c-0.09,0.091-0.232,0.123-0.31,0.207c-0.084,0.09-0.026,0.316-0.104,0.407
		c-0.078,0.09-0.284,0.07-0.368,0.161s0.058,0.375-0.02,0.465c-0.078,0.091-0.362,0.014-0.439,0.11
		c-0.071,0.097,0.019,0.323-0.059,0.42c-0.077,0.09-0.277,0.09-0.349,0.188c-0.071,0.097-0.246,0.122-0.316,0.22
		c-0.071,0.097,0.103,0.368,0.032,0.465c-0.071,0.097-0.291,0.097-0.362,0.2c-0.064,0.104-0.104,0.232-0.162,0.329
		c-0.064,0.104-0.239,0.149-0.297,0.252c-0.058,0.116,0.271,0.42,0.22,0.523c-0.064,0.11-0.4,0.084-0.446,0.194
		c-0.045,0.116,0.22,0.349,0.181,0.458c-0.045,0.116-0.232,0.168-0.265,0.284c-0.026,0.123-0.232,0.207-0.245,0.323
		c-0.026,0.13-0.033,0.271-0.026,0.382c0,0.129,0.168,0.161,0.194,0.271c0.103-0.077,0.103-0.122,0.174-0.226
		c0.071-0.104,0.097-0.227,0.162-0.336c0.058-0.11,0.349-0.091,0.407-0.194c0.058-0.109-0.22-0.413-0.162-0.522
		c0.065-0.104,0.465-0.02,0.53-0.123c0.065-0.104,0.026-0.271,0.097-0.375c0.071-0.104-0.071-0.336,0-0.445
		c0.071-0.104,0.433-0.007,0.498-0.11c0.077-0.104-0.142-0.4-0.065-0.504c0.065-0.104,0.343-0.052,0.42-0.155
		c0.071-0.103,0.065-0.258,0.142-0.361c0.071-0.097,0.175-0.168,0.252-0.271c0.078-0.104-0.013-0.329,0.065-0.426
		c0.077-0.098,0.368-0.026,0.446-0.123c0.071-0.097-0.058-0.368,0.019-0.459c0.084-0.097,0.439,0.039,0.517-0.052
		c0.078-0.097,0.09-0.245,0.174-0.336c0.084-0.104,0.226-0.129,0.31-0.22c0.084-0.09,0.162-0.193,0.239-0.284
		c0.09-0.09,0.258-0.104,0.342-0.193c0.084-0.091-0.136-0.465-0.058-0.556c0.09-0.091,0.426,0.064,0.51-0.026
		c0.084-0.091,0.174-0.175,0.265-0.259c0.09-0.09,0.148-0.207,0.232-0.297c0.09-0.078,0.064-0.284,0.148-0.375
		c0.078-0.077,0.349-0.051,0.401-0.155c0.045-0.09-0.311-0.362-0.271-0.478c0.032-0.104,0.342-0.116,0.375-0.22
		c0.032-0.11-0.019-0.284,0.02-0.388c0.116,0.013,0.271,0.271,0.375,0.271c0.116,0,0.246-0.155,0.349-0.168
		c0.116-0.026,0.142-0.284,0.246-0.323c0.103-0.045,0.226-0.013,0.323-0.078c0.097-0.064,0.284,0.013,0.375-0.064
		c0.084-0.078,0.284-0.039,0.368-0.123s0.136-0.323,0.22-0.407c-0.065-0.116-0.265-0.31-0.33-0.42
		c-0.104,0.071-0.258,0.148-0.362,0.226c-0.104,0.064-0.052,0.388-0.155,0.452c-0.103,0.078-0.465-0.232-0.568-0.168
		c-0.104,0.078-0.168,0.207-0.278,0.285c-0.104,0.064-0.02,0.426-0.123,0.491C24.542,25.667,24.206,25.409,24.097,25.479z
		 M17.513,48.021c0.155,0.045,0.439-0.168,0.582-0.116c0.104-0.098,0.188-0.104,0.284-0.194c0.104-0.097,0.323-0.058,0.426-0.155
		c0.104-0.09,0.233-0.168,0.323-0.265c0.097-0.097-0.064-0.433,0.026-0.536c0.084-0.091,0.232-0.123,0.31-0.22
		c0.084-0.091,0.148-0.193,0.232-0.284c0.078-0.091,0.078-0.259,0.155-0.349c0.078-0.091,0.414,0.032,0.491-0.064
		c0.078-0.091,0.22-0.13,0.304-0.227c0.078-0.097,0.09-0.252,0.168-0.343c0.071-0.097,0.213-0.142,0.291-0.238
		c0.077-0.098,0-0.316,0.071-0.414c0.071-0.097,0.278-0.104,0.342-0.2c0.078-0.104-0.097-0.361-0.026-0.472
		c0.065-0.104,0.362-0.058,0.42-0.174c0.059-0.104-0.058-0.311,0-0.42c0.059-0.104,0.252-0.143,0.311-0.252
		c0.051-0.11,0.226-0.175,0.271-0.284c0.045-0.11-0.181-0.336-0.148-0.453c0.052-0.116,0.265-0.168,0.304-0.284
		c0.032-0.116,0.039-0.245,0.071-0.368c0.026-0.122,0.181-0.22,0.201-0.336c0.019-0.122-0.369-0.329-0.343-0.445
		c0.026-0.123,0.362-0.168,0.401-0.278c0.032-0.122-0.246-0.342-0.207-0.452c0.039-0.116,0.239-0.181,0.284-0.297
		c0.045-0.11,0.265-0.148,0.317-0.252c0.052-0.116,0.11-0.213,0.174-0.316c0.058-0.11-0.052-0.323,0.02-0.42
		c0.071-0.104,0.161-0.181,0.239-0.284c0.071-0.104,0.123-0.22,0.194-0.311c0.078-0.104,0.362-0.039,0.433-0.142
		c0.077-0.098-0.162-0.439-0.084-0.53c0.077-0.104,0.452,0.045,0.529-0.052c0.078-0.09,0.065-0.265,0.143-0.361
		c0.084-0.091-0.026-0.349,0.051-0.439c0.084-0.097,0.433,0.039,0.517-0.052c0.078-0.091-0.104-0.413-0.013-0.504
		c0.078-0.091,0.349-0.02,0.439-0.104c0.084-0.091,0.097-0.245,0.181-0.336c0.09-0.091,0.194-0.155,0.284-0.239
		s0.032-0.329,0.123-0.413s0.368,0.032,0.459-0.052c0.09-0.084,0.006-0.368,0.097-0.452c0.097-0.084,0.42,0.109,0.51,0.025
		c0.104-0.084,0.142-0.226,0.233-0.297c0.09-0.077,0.246-0.084,0.342-0.161c0.097-0.078,0.188-0.148,0.291-0.22
		c0.103-0.071,0.265-0.046,0.361-0.116c0.104-0.071-0.025-0.491,0.077-0.556c0.104-0.064,0.395,0.161,0.498,0.104
		c0.104-0.065,0.213-0.123,0.316-0.182c0.104-0.064,0.194-0.154,0.297-0.213c0.116-0.059,0.149-0.252,0.259-0.316
		c0.104-0.052,0.323,0.109,0.439,0.052c0.109-0.052,0.039-0.491,0.148-0.55c0.116-0.051,0.355,0.155,0.465,0.098
		c0.116-0.059,0.168-0.232,0.278-0.284c0.116-0.052,0.349,0.116,0.452,0.064c0.116-0.059,0.168-0.232,0.284-0.291
		c0.109-0.058,0.109-0.329,0.22-0.381c0.116-0.064,0.258-0.046,0.375-0.104c0.103-0.059,0.297,0.025,0.4-0.026
		c0.116-0.058,0.304,0.026,0.413-0.038c0.11-0.052,0.181-0.194,0.291-0.259c0.109-0.058,0.188-0.188,0.291-0.245
		c0.116-0.052,0.226-0.116,0.336-0.181c0.109-0.052,0.09-0.375,0.193-0.439c0.116-0.052,0.439,0.297,0.549,0.232
		c0.11-0.059,0.188-0.181,0.291-0.246c0.116-0.051-0.039-0.206,0.071-0.271c-0.123,0-0.052-0.136-0.175-0.136
		c-0.116,0-0.232,0.07-0.361,0.077c-0.116,0.007-0.239-0.007-0.362-0.007c-0.116,0.007-0.22,0.271-0.336,0.278
		c-0.122,0.007-0.284-0.4-0.4-0.395c-0.116,0.02-0.239,0.091-0.361,0.116c-0.117,0.014-0.207,0.233-0.323,0.252
		c-0.123,0.02-0.278-0.2-0.4-0.181c-0.116,0.02-0.182,0.343-0.298,0.368c-0.116,0.026-0.245-0.025-0.361-0.006
		c-0.123,0.025-0.207,0.181-0.323,0.213c-0.116,0.025-0.22,0.104-0.336,0.129c-0.109,0.039-0.271-0.084-0.381-0.052
		c-0.116,0.039-0.252,0.02-0.362,0.052c-0.109,0.039-0.29-0.104-0.406-0.064c-0.117,0.039-0.123,0.362-0.233,0.407
		c-0.116,0.045-0.213,0.123-0.322,0.161c-0.104,0.046-0.246,0.039-0.355,0.084c-0.11,0.046-0.214,0.11-0.316,0.162
		c-0.117,0.052-0.323-0.104-0.427-0.052c-0.116,0.052-0.129,0.284-0.232,0.342c-0.116,0.059-0.194,0.162-0.304,0.227
		c-0.11,0.058-0.181,0.181-0.291,0.245c-0.109,0.059-0.271,0.014-0.381,0.078c-0.11,0.058-0.336-0.091-0.446-0.032
		c-0.11,0.058-0.026,0.445-0.136,0.504c-0.104,0.07-0.232,0.09-0.336,0.161c-0.104,0.064-0.194,0.148-0.304,0.213
		c-0.104,0.071-0.33-0.058-0.433,0.007c-0.11,0.071-0.162,0.213-0.265,0.284c-0.097,0.064-0.368-0.104-0.465-0.032
		c-0.103,0.071,0.045,0.497-0.051,0.563c-0.104,0.077-0.362-0.065-0.465,0c-0.104,0.077-0.078,0.31-0.181,0.387
		c-0.09,0.078-0.413-0.129-0.51-0.051c-0.097,0.077,0.058,0.478-0.032,0.555c-0.097,0.078-0.349-0.038-0.452,0.046
		c-0.09,0.084-0.2,0.148-0.297,0.226c-0.09,0.084-0.142,0.22-0.232,0.298c-0.097,0.077-0.271,0.07-0.362,0.154
		c-0.09,0.078-0.052,0.311-0.142,0.388c-0.09,0.091-0.194,0.168-0.284,0.252s-0.284,0.059-0.375,0.148
		c-0.09,0.084,0.052,0.401-0.039,0.491c-0.078,0.091-0.472-0.116-0.556-0.025c-0.09,0.084,0.078,0.413-0.006,0.504
		c-0.084,0.084-0.148,0.181-0.226,0.271c-0.084,0.09-0.188,0.161-0.265,0.252c-0.071,0.097-0.381,0-0.458,0.097
		c-0.078,0.091-0.045,0.271-0.116,0.375c-0.071,0.09-0.155,0.193-0.22,0.29c-0.078,0.098-0.078,0.239-0.142,0.343
		c-0.071,0.104-0.2,0.168-0.258,0.265c-0.065,0.097-0.065,0.239-0.129,0.349c-0.052,0.104-0.045,0.246-0.104,0.355
		c-0.052,0.11,0.013,0.271-0.039,0.382c-0.052,0.109-0.136,0.193-0.188,0.31c-0.045,0.11-0.174,0.188-0.213,0.297
		c-0.045,0.116-0.252,0.162-0.291,0.278c-0.039,0.116,0.213,0.329,0.174,0.439c-0.039,0.116-0.265,0.174-0.297,0.284
		c-0.039,0.116-0.02,0.245-0.052,0.361c-0.026,0.116,0.116,0.271,0.09,0.388c-0.032,0.11-0.388,0.148-0.414,0.259
		c-0.032,0.116-0.135,0.22-0.155,0.336c-0.026,0.116,0,0.245-0.026,0.361s-0.142,0.22-0.168,0.336c-0.02,0.123,0.2,0.278,0.181,0.4
		c-0.013,0.123-0.026,0.246-0.045,0.362c-0.013,0.129-0.162,0.232-0.174,0.355c-0.013,0.123-0.039,0.245-0.052,0.368
		c-0.013,0.129,0.039,0.259,0.026,0.375c-0.013,0.129,0.09,0.258,0.077,0.388c-0.013,0.116-0.213,0.219-0.232,0.349
		c-0.013,0.122,0.336,0.284,0.323,0.4c-0.02,0.129-0.065,0.245-0.078,0.368c-0.013,0.123-0.22,0.227-0.232,0.349
		C17.694,47.646,17.526,47.891,17.513,48.021z M37.089,37.684c-0.007-0.078-0.233-0.2-0.239-0.271
		c-0.123-0.013-0.175-0.084-0.291-0.109c-0.116-0.02-0.207-0.214-0.323-0.239c-0.116-0.026-0.226-0.078-0.349-0.104
		c-0.116-0.026-0.291,0.291-0.413,0.271c-0.116-0.026-0.22-0.136-0.336-0.155c-0.116-0.013-0.232-0.013-0.35-0.025
		c-0.122-0.014-0.232,0.09-0.354,0.09c-0.123,0-0.239-0.323-0.362-0.323c-0.123,0.014-0.252-0.064-0.381-0.058
		c-0.123,0.006-0.246,0.109-0.362,0.123c-0.129,0.013-0.265-0.046-0.388-0.033c-0.129,0.02-0.22,0.239-0.336,0.252
		c-0.129,0.02-0.277-0.116-0.4-0.09c-0.129,0.025-0.188,0.329-0.31,0.361c-0.116,0.026-0.298-0.206-0.42-0.174
		c-0.123,0.032-0.188,0.265-0.304,0.304c-0.116,0.032-0.284-0.078-0.4-0.039c-0.123,0.039-0.284-0.045-0.401,0
		c-0.122,0.039-0.135,0.361-0.252,0.407c-0.109,0.045-0.303-0.084-0.42-0.039c-0.116,0.045-0.219,0.129-0.322,0.181
		c-0.116,0.052-0.284-0.006-0.401,0.046c-0.103,0.051-0.025,0.49-0.135,0.549c-0.11,0.058-0.369-0.168-0.472-0.11
		c-0.116,0.065-0.052,0.42-0.155,0.479c-0.104,0.064-0.297-0.013-0.401,0.052c-0.103,0.071-0.31-0.013-0.413,0.052
		c-0.104,0.064-0.207,0.136-0.31,0.206c-0.104,0.078-0.078,0.317-0.175,0.388c-0.097,0.078-0.213,0.13-0.31,0.214
		c-0.097,0.077-0.174,0.174-0.265,0.258c-0.097,0.084-0.362-0.045-0.452,0.046c-0.097,0.077,0.077,0.458-0.013,0.542
		c-0.09,0.078-0.446-0.122-0.536-0.038c-0.09,0.09-0.097,0.258-0.188,0.342c-0.084,0.084,0,0.35-0.084,0.434
		c-0.084,0.09-0.426-0.065-0.51,0.025c-0.09,0.091,0.084,0.413,0,0.504c-0.078,0.091-0.349,0.025-0.426,0.116
		c-0.084,0.091-0.091,0.245-0.168,0.349c-0.084,0.091-0.188,0.162-0.265,0.259c-0.078,0.104,0.013,0.336-0.058,0.427
		c-0.078,0.097-0.368,0.019-0.446,0.116c-0.078,0.09,0.071,0.354-0.006,0.452c-0.078,0.09-0.433-0.039-0.504,0.064
		c-0.078,0.09-0.084,0.239-0.162,0.336c-0.071,0.09-0.213,0.129-0.291,0.226c-0.078,0.098-0.155,0.188-0.226,0.285
		c-0.078,0.097-0.239,0.109-0.317,0.206c-0.077,0.097,0.168,0.459,0.091,0.55c-0.078,0.09-0.427-0.039-0.498,0.051
		c-0.078,0.091-0.162,0.175-0.239,0.271c-0.078,0.091-0.123,0.207-0.207,0.298c-0.078,0.09-0.026,0.284-0.11,0.381
		c-0.084,0.091-0.342,0.02-0.42,0.109c-0.078,0.091,0.168,0.472,0.084,0.563c-0.084,0.084-0.375-0.013-0.458,0.077
		c-0.078,0.091-0.065,0.266-0.143,0.355c-0.084,0.091-0.355,0.007-0.439,0.097c-0.078,0.091-0.065,0.266-0.142,0.355
		c-0.078,0.091,0.013,0.336-0.071,0.427c-0.084,0.09-0.226,0.123-0.31,0.207c-0.084,0.09-0.284,0.064-0.368,0.148
		c-0.09,0.084-0.284,0.064-0.368,0.148c-0.084,0.09-0.11,0.232-0.2,0.323c-0.097,0.077-0.129,0.22-0.233,0.297
		c-0.097,0.084-0.194,0.161-0.291,0.232c-0.097,0.078-0.032,0.395-0.136,0.465c-0.104,0.071-0.465-0.238-0.575-0.168
		c-0.103,0.065-0.161,0.194-0.278,0.266c-0.103,0.064-0.025,0.426-0.135,0.497c-0.11,0.064-0.369-0.123-0.472-0.058
		c-0.116,0.07-0.181,0.187-0.284,0.258c-0.117,0.071-0.233,0.11-0.336,0.181c-0.104,0.071-0.065,0.343-0.168,0.414
		c0.013,0,0.161,0.071,0.375,0.032c0.129-0.02,0.232-0.11,0.349-0.129c0.123-0.026,0.207-0.259,0.323-0.285
		c0.116-0.025,0.297,0.182,0.42,0.143c0.116-0.025,0.155-0.361,0.278-0.395c0.116-0.032,0.258,0.007,0.375-0.032
		c0.116-0.032,0.188-0.193,0.304-0.232c0.11-0.038,0.207-0.129,0.323-0.168c0.11-0.038,0.278,0.059,0.394,0.013
		c0.116-0.045,0.246-0.038,0.362-0.09c0.116-0.045,0.304,0.077,0.414,0.025s0.09-0.374,0.2-0.433c0.11-0.052,0.2-0.142,0.31-0.2
		s0.239-0.059,0.355-0.116c0.103-0.064,0.193-0.143,0.297-0.207c0.104-0.058,0.336,0.078,0.439,0.013
		c0.104-0.064,0.097-0.303,0.194-0.368c0.103-0.07,0.168-0.188,0.271-0.252c0.104-0.077,0.155-0.193,0.259-0.271
		c0.103-0.064,0.271-0.038,0.368-0.116c0.097-0.07,0.342,0.052,0.446-0.025c0.09-0.077-0.039-0.439,0.052-0.517
		c0.097-0.078,0.22-0.116,0.31-0.2s0.168-0.175,0.258-0.252c0.09-0.084,0.336,0.013,0.426-0.078c0.091-0.077,0.123-0.226,0.213-0.31
		c0.09-0.078,0.381,0.045,0.472-0.039c0.078-0.091-0.129-0.479-0.039-0.568c0.078-0.084,0.362,0.013,0.453-0.071
		c0.077-0.084,0.019-0.316,0.103-0.407c0.09-0.09,0.426,0.064,0.51-0.025c0.084-0.091-0.135-0.459-0.058-0.549
		c0.084-0.091,0.355-0.007,0.439-0.098c0.078-0.09,0.181-0.168,0.258-0.258c0.078-0.091,0.117-0.232,0.194-0.323
		c0.078-0.091,0.259-0.091,0.343-0.181c0.084-0.091,0.019-0.311,0.103-0.407c0.084-0.091,0.174-0.175,0.258-0.265
		c0.084-0.091,0.278-0.084,0.362-0.175s-0.077-0.395,0.007-0.484c0.077-0.091,0.478,0.097,0.556,0.006
		c0.084-0.09-0.091-0.406-0.007-0.497s0.149-0.193,0.233-0.284s0.187-0.161,0.271-0.252s0.388,0.013,0.472-0.077
		c0.077-0.091,0.059-0.271,0.143-0.368c0.077-0.091,0.168-0.168,0.245-0.259c0.077-0.084,0.091-0.22,0.155-0.323
		c0.064-0.091,0.193-0.142,0.252-0.232c0.058-0.097,0.071-0.232,0.136-0.316c0.077-0.084,0.09-0.232,0.174-0.304
		c0.084-0.084,0.136-0.284,0.239-0.336s0.232-0.064,0.349-0.11c0.104-0.052,0.252-0.025,0.362-0.07
		c0.109-0.052,0.291,0.064,0.407,0.013c0.109-0.052,0.097-0.375,0.206-0.427c0.11-0.045,0.304,0.097,0.414,0.052
		c0.109-0.052,0.206-0.142,0.316-0.181c0.109-0.052,0.155-0.259,0.265-0.304c0.11-0.045,0.355,0.227,0.459,0.175
		c0.116-0.052,0.258-0.014,0.368-0.065c0.116-0.038,0.207-0.129,0.316-0.181c0.116-0.038,0.265,0.007,0.375-0.038
		c0.116-0.039,0.129-0.311,0.245-0.362c0.116-0.039,0.227-0.091,0.336-0.129c0.116-0.039,0.271,0.032,0.388-0.013
		c0.116-0.039,0.232-0.078,0.336-0.117c0.116-0.045,0.207-0.154,0.316-0.2c0.123-0.045,0.214-0.2,0.343-0.238
		c0.129-0.039,0.304,0.116,0.433,0.09c0.129-0.032,0.188-0.407,0.316-0.439c0.13-0.025,0.265-0.013,0.4-0.045
		C36.655,37.399,36.959,37.709,37.089,37.684z M4.683,34.337c0.013,0.123,0.246,0.42,0.259,0.543
		c0.019,0.129-0.033,0.258-0.007,0.374c0.02,0.13-0.123,0.284-0.097,0.407s0.026,0.259,0.058,0.381
		c0.032,0.117,0.394,0.143,0.433,0.259c0.039,0.116-0.013,0.259,0.026,0.375c0.045,0.123,0.104,0.232,0.149,0.349
		c0.045,0.116,0.2,0.181,0.252,0.297c0.051,0.11-0.201,0.362-0.142,0.472c0.058,0.11,0.039,0.266,0.103,0.375
		c0.058,0.109,0.194,0.181,0.265,0.291c0.058,0.104,0.058,0.258,0.123,0.361c0.071,0.104,0.304,0.104,0.375,0.207
		c0.071,0.104,0.013,0.297,0.09,0.4c0.064,0.097,0.375,0.025,0.452,0.116c0.071,0.104-0.064,0.362,0.02,0.465
		c0.084,0.098,0.323,0.052,0.407,0.149c0.078,0.097,0.045,0.29,0.129,0.381c0.078,0.09,0.078,0.271,0.162,0.361
		c0.084,0.091,0.387-0.025,0.478,0.064c0.084,0.091,0.045,0.317,0.136,0.401c0.09,0.09,0.2,0.148,0.291,0.232
		c0.09,0.09,0.097,0.271,0.188,0.349c0.09,0.077,0.478-0.155,0.568-0.077c0.09,0.077-0.026,0.4,0.078,0.484
		c0.09,0.084,0.4-0.097,0.491-0.02c0.104,0.084,0.091,0.284,0.194,0.368c0.09,0.071,0.078,0.304,0.168,0.375
		c0.104,0.077,0.194,0.148,0.297,0.226c0.09,0.078,0.323-0.006,0.414,0.071c0.097,0.071,0.181,0.175,0.271,0.252
		c0.097,0.077,0.207,0.129,0.31,0.213c0.091,0.084,0.013,0.355,0.104,0.434c0.09,0.084,0.452-0.123,0.543-0.039
		c0.09,0.077-0.091,0.439,0,0.529c0.084,0.084,0.258,0.091,0.336,0.175c0.084,0.091,0.349,0.013,0.433,0.104s-0.11,0.42-0.026,0.511
		c0.084,0.097,0.433-0.026,0.504,0.07c0.078,0.098-0.052,0.35,0.02,0.446c0.064,0.104,0.22,0.148,0.284,0.258
		c0.064,0.104,0.097,0.22,0.155,0.336c0.051,0.104,0.31,0.123,0.361,0.233c0.052,0.103-0.148,0.336-0.103,0.452
		c0.052,0.116,0.349,0.129,0.388,0.245c0.039,0.116-0.259,0.349-0.233,0.465c0.039,0.116,0.155,0.207,0.181,0.33
		c0.026,0.122-0.039,0.252-0.02,0.374c0.02,0.123,0.045,0.233,0.058,0.355c0.013,0.13-0.064,0.316-0.026,0.414
		c0.045,0.122,0.452-0.014,0.53,0.052c0.084,0.077,0.052,0.426,0.174,0.438c0.11,0.007,0.271,0,0.395-0.025
		c0.103-0.025,0.226-0.104,0.336-0.155c0.129-0.064,0.181-0.265,0.277-0.336c0.117-0.077,0.395-0.006,0.472-0.097
		c0.091-0.097-0.2-0.446-0.142-0.563c0.052-0.116,0.362-0.129,0.388-0.258c0.026-0.13-0.09-0.271-0.084-0.407
		c0.006-0.123,0.258-0.265,0.252-0.395c-0.013-0.129-0.155-0.258-0.168-0.387c-0.013-0.13-0.271-0.207-0.291-0.336
		c-0.026-0.123,0.032-0.259,0.006-0.375c-0.026-0.129,0.104-0.291,0.064-0.414c-0.026-0.116,0.084-0.297,0.039-0.413
		c-0.039-0.116-0.168-0.207-0.22-0.323c-0.045-0.116-0.168-0.206-0.226-0.316c-0.052-0.109-0.11-0.226-0.175-0.336
		c-0.064-0.109-0.375-0.058-0.439-0.168c-0.071-0.104,0.239-0.465,0.168-0.562c-0.078-0.104-0.22-0.168-0.297-0.266
		c-0.084-0.097-0.426,0.039-0.504-0.052c-0.09-0.09,0.039-0.381-0.052-0.472c-0.09-0.084-0.232-0.122-0.323-0.206
		c-0.104-0.078-0.181-0.181-0.284-0.259c-0.097-0.071-0.343,0.052-0.439-0.013c-0.104-0.077,0.026-0.497-0.078-0.563
		c-0.104-0.07-0.246-0.084-0.362-0.148c-0.104-0.058-0.316,0.064-0.426,0c-0.11-0.058-0.116-0.329-0.226-0.388
		c-0.11-0.052-0.355,0.175-0.472,0.116c-0.11-0.038-0.188-0.168-0.297-0.213c-0.103-0.045-0.271,0.02-0.375-0.032
		c-0.116-0.052-0.246-0.059-0.349-0.109c-0.116-0.059-0.148-0.246-0.258-0.304c-0.11-0.052-0.194-0.155-0.297-0.207
		c-0.104-0.059-0.123-0.278-0.227-0.336c-0.109-0.052-0.355,0.155-0.458,0.097c-0.11-0.058-0.232-0.084-0.336-0.148
		c-0.104-0.059-0.181-0.175-0.284-0.232c-0.097-0.064-0.22-0.116-0.316-0.175c-0.097-0.071-0.071-0.323-0.175-0.394
		c-0.097-0.065-0.31,0.038-0.407-0.039c-0.097-0.064-0.239-0.097-0.336-0.168c-0.097-0.077-0.239-0.104-0.342-0.181
		c-0.091-0.084-0.104-0.259-0.194-0.343c-0.091-0.084-0.013-0.343-0.097-0.433c-0.084-0.084-0.433,0.077-0.517-0.013
		c-0.084-0.091-0.136-0.207-0.22-0.298c-0.084-0.09-0.188-0.174-0.265-0.271c-0.077-0.09,0.026-0.336-0.045-0.426
		c-0.078-0.104-0.213-0.155-0.284-0.252c-0.071-0.097,0.097-0.368,0.025-0.465c-0.071-0.098-0.497,0.038-0.562-0.071
		c-0.064-0.104,0.097-0.35,0.039-0.452c-0.071-0.104-0.304-0.104-0.362-0.22c-0.065-0.104,0.181-0.388,0.116-0.491
		c-0.058-0.104-0.478-0.013-0.53-0.123C5.058,35.5,5.226,35.28,5.167,35.164c-0.058-0.104-0.097-0.22-0.149-0.33
		C4.954,34.725,4.734,34.44,4.683,34.337z"/>
</g>
<g>
</g>
<g>
</g>
<g>
</g>
<g>
</g>
<g>
</g>
<g>
</g>
<g>
</g>
<g>
</g>
<g>
</g>
<g>
</g>
<g>
</g>
<g>
</g>
<g>
</g>
<g>
</g>
<g>
</g>
</svg>
