<?xml version="1.0" encoding="utf-8"?>
<!-- Generator: Adobe Illustrator 16.0.0, SVG Export Plug-In . SVG Version: 6.00 Build 0)  -->
<!DOCTYPE svg PUBLIC "-//W3C//DTD SVG 1.1//EN" "http://www.w3.org/Graphics/SVG/1.1/DTD/svg11.dtd">
<svg version="1.1" id="圖層_1" xmlns="http://www.w3.org/2000/svg" xmlns:xlink="http://www.w3.org/1999/xlink" x="0px" y="0px"
	 width="55px" height="55px" viewBox="0 0 55 55" enable-background="new 0 0 55 55" xml:space="preserve">
<g>
	<path fill="#657718" d="M16.7,48.629c0.138-1.28,0.242-2.566,0.422-3.837c0.123-0.858,0.332-1.703,0.56-2.533
		c0.541-1.987,1.641-3.676,3.054-5.137c2.172-2.243,4.667-4.088,7.428-5.53c2.452-1.271,5.104-1.788,7.599-1.773
		c-1.727,0.901-3.609,1.954-5.56,2.874c-3.125,1.479-5.359,3.927-7.332,6.641c-0.503,0.692-0.807,1.612-0.963,2.466
		c-0.446,2.396-2.073,4.022-3.534,5.763c-0.37,0.437-0.816,0.807-1.224,1.21C16.999,48.733,16.847,48.681,16.7,48.629z"/>
	<path fill="#72935C" d="M36.734,37.853c-0.678,0.161-1.38,0.252-2.025,0.498c-1.873,0.726-3.746,1.456-5.563,2.301
		c-0.479,0.223-0.744,0.882-1.133,1.318c-1.357,1.518-2.723,3.035-4.098,4.539c-2.656,2.884-5.729,5.056-9.686,5.748
		c-0.228,0.043-0.455,0.033-0.465,0.033c1.101-0.749,2.504-1.428,3.529-2.471c1.917-1.969,3.69-4.098,5.388-6.256
		c2.846-3.629,6.37-6.01,11.066-6.309c0.972-0.066,1.968,0.237,2.959,0.375C36.716,37.701,36.726,37.776,36.734,37.853z"/>
	<path fill="#72935C" d="M3.254,34.741c1.029,2.082,2.239,4.046,4.141,5.407c1.209,0.858,2.561,1.537,3.922,2.153
		c2.571,1.157,4.245,2.979,4.61,5.829c0.123,0.953,0.1,1.931-1.015,2.409c-0.683,0.299-1.205,0.186-1.29-0.631
		c-0.323-2.964-2.329-4.686-4.482-6.384C6.247,41.244,3.728,38.659,3.254,34.741z"/>
	<path fill="#657718" d="M23.511,25.54c-0.175,0.427-0.247,0.958-0.545,1.262c-2.115,2.097-4.041,4.335-5.483,6.963
		c-0.124,0.232-0.247,0.474-0.456,0.626c-0.483-1.813,2.557-5.829,6.465-8.879L23.511,25.54z"/>
	<g>
		<g>
			<path d="M24.36,40.338c0.104-0.062,0.104-0.455,0.208-0.521s0.256-0.057,0.36-0.118c0.104-0.066,0.304,0.033,0.408-0.024
				c0.109-0.066,0.232-0.09,0.336-0.156c0.109-0.062,0.033-0.422,0.143-0.488c0.109-0.058,0.261-0.038,0.375-0.1
				c0.104-0.062,0.199-0.138,0.309-0.194c0.104-0.066,0.156-0.229,0.261-0.29c0.1-0.062,0.379,0.166,0.493,0.104
				c0.104-0.066,0.256-0.052,0.36-0.118c0.104-0.066,0.162-0.209,0.261-0.275c0.104-0.071,0.256-0.066,0.355-0.138
				c0.104-0.071,0.09-0.308,0.194-0.374c0.1-0.066,0.299-0.005,0.403-0.081c0.1-0.071,0.038-0.389,0.151-0.455
				c0.104-0.062,0.352,0.128,0.465,0.075c0.114-0.052,0.147-0.299,0.266-0.346c0.119-0.048,0.285,0.076,0.408,0.047
				c0.123-0.028,0.266,0.076,0.389,0.053c0.124-0.023,0.199-0.347,0.323-0.365c0.123-0.01,0.27,0.171,0.394,0.161
				c0.123-0.01,0.251-0.057,0.374-0.066c0.124-0.01,0.257,0.123,0.38,0.114c0.128-0.01,0.228-0.465,0.351-0.475
				c0.124-0.01,0.275,0.313,0.398,0.304c0.124-0.01,0.209-0.37,0.337-0.39c0.123-0.009,0.28,0.143,0.403,0.133
				c0.123-0.009,0.266,0.166,0.389,0.162c0.128-0.01,0.247-0.01,0.38-0.015c0.123-0.005,0.246-0.223,0.37-0.223
				c0.133,0,0.261,0.023,0.384,0.028c0.128,0.01,0.256-0.023,0.38-0.015c0.128,0.005,0.232,0.29,0.355,0.299
				c0.133,0.01,0.294-0.389,0.422-0.379c0.123,0.019,0.204,0.432,0.327,0.445c0.123,0.02,0.266-0.085,0.389-0.062
				c0.124,0.02,0.295-0.209,0.423-0.189c0.123,0.023,0.175,0.403,0.299,0.437c0.123,0.023,0.332-0.299,0.455-0.271
				s0.185,0.309,0.309,0.342c0.123,0.028,0.27-0.043,0.394-0.01c0.123,0.038,0.237,0.104,0.36,0.133
				c0.123,0.038,0.304-0.143,0.427-0.104c0.123,0.033,0.166,0.342,0.284,0.384c0.119,0.043,0.323-0.194,0.446-0.156
				s0.133,0.427,0.251,0.47c0.091,0.028,0.224-0.033,0.309-0.005c0.104,0.033,0.114,0.123,0.166,0.189
				c0.071,0.086,0.128,0.161,0.185,0.257c0.063,0.095,0,0.246,0.053,0.341c0.052,0.104,0.488,0.181,0.545,0.28
				c-0.142,0.052-0.526-0.119-0.668-0.053c-0.147,0.063-0.232,0.096-0.385,0.104c-0.133,0-0.256,0.048-0.379,0.053
				c-0.133,0.005-0.257,0.175-0.385,0.175s-0.256-0.251-0.384-0.251c-0.133,0-0.256,0.45-0.38,0.45
				c-0.133,0-0.261-0.303-0.384-0.303c-0.128,0-0.256,0.133-0.385,0.133c-0.123,0-0.256-0.266-0.379-0.257
				c-0.133,0-0.256,0.143-0.384,0.147c-0.129,0.005-0.242,0.256-0.37,0.261s-0.261-0.066-0.385-0.057
				c-0.133,0.009-0.274-0.152-0.398-0.133c-0.128,0.009-0.284-0.143-0.407-0.124c-0.124,0.02-0.237,0.133-0.37,0.152
				c-0.128,0.023-0.237,0.133-0.365,0.156c-0.123,0.023-0.252,0.053-0.375,0.081c-0.123,0.033-0.171,0.36-0.299,0.389
				c-0.123,0.038-0.375-0.398-0.493-0.36c-0.123,0.033-0.228,0.146-0.351,0.189c-0.124,0.038-0.128,0.418-0.252,0.465
				c-0.113,0.043-0.341-0.204-0.465-0.151c-0.113,0.038-0.208,0.151-0.327,0.203c-0.118,0.053-0.251,0.081-0.365,0.133
				c-0.113,0.053-0.113,0.342-0.228,0.403c-0.114,0.053-0.427-0.284-0.541-0.223c-0.113,0.062-0.199,0.185-0.313,0.242
				c-0.114,0.066-0.114,0.313-0.228,0.379c-0.104,0.066-0.352-0.075-0.46-0.009c-0.109,0.07-0.043,0.407-0.147,0.474
				c-0.104,0.071-0.256,0.076-0.36,0.152c-0.104,0.071-0.123,0.256-0.228,0.332c-0.104,0.075-0.171,0.194-0.266,0.274
				c-0.104,0.076-0.299,0.028-0.398,0.114c-0.1,0.076-0.232,0.118-0.327,0.199c-0.091,0.085-0.327,0.028-0.423,0.113
				c-0.09,0.086,0.029,0.403-0.062,0.489c-0.095,0.09-0.156,0.204-0.241,0.289c-0.091,0.09-0.223,0.133-0.313,0.228
				c-0.085,0.095-0.156,0.199-0.242,0.294c-0.081,0.095-0.351,0.024-0.432,0.124c-0.085,0.095-0.01,0.331-0.095,0.427
				c-0.081,0.104-0.114,0.236-0.189,0.341c-0.081,0.095-0.1,0.237-0.18,0.342c-0.076,0.104-0.256,0.123-0.332,0.228
				c-0.085,0.095-0.365,0.033-0.446,0.133c-0.076,0.095,0.133,0.437,0.047,0.541c-0.085,0.095-0.204,0.166-0.285,0.256
				c-0.085,0.095-0.152,0.218-0.237,0.313c-0.085,0.09-0.351,0.019-0.436,0.113s-0.104,0.247-0.194,0.342
				c-0.09,0.09-0.394-0.033-0.479,0.057c-0.09,0.086,0.138,0.493,0.043,0.584c-0.09,0.09-0.375-0.024-0.47,0.062
				c-0.095,0.09-0.047,0.332-0.133,0.412c-0.095,0.086-0.436-0.1-0.531-0.014c-0.095,0.085,0.095,0.488,0,0.573
				c-0.095,0.081-0.36-0.033-0.455,0.053c-0.104,0.085-0.209,0.151-0.304,0.228c-0.095,0.08-0.152,0.218-0.247,0.299
				c-0.104,0.08-0.28,0.052-0.384,0.133c-0.1,0.08-0.071,0.317-0.175,0.394c-0.1,0.076-0.213,0.143-0.313,0.218
				c-0.104,0.071-0.294,0.02-0.398,0.091c-0.104,0.075-0.01,0.427-0.114,0.498c-0.104,0.07-0.465-0.219-0.569-0.147
				s-0.009,0.437-0.114,0.508c-0.104,0.066-0.204,0.151-0.313,0.218c-0.104,0.071-0.237,0.104-0.342,0.176
				c-0.109,0.071-0.379-0.128-0.483-0.062c-0.114,0.066-0.143,0.256-0.256,0.322c-0.104,0.062-0.218,0.114-0.332,0.181
				s-0.185,0.199-0.299,0.256s-0.271,0.047-0.384,0.109c-0.123,0.052-0.204,0.175-0.332,0.228c-0.114,0.052-0.208,0.175-0.327,0.223
				c-0.123,0.048-0.204,0.223-0.327,0.266c-0.124,0.047-0.266,0.047-0.389,0.085c-0.123,0.038-0.28-0.009-0.408,0.024
				c-0.124,0.033-0.294-0.109-0.427-0.081c-0.124,0.033-0.185,0.375-0.313,0.398c-0.133,0.023-0.299-0.161-0.427-0.138
				c-0.128,0.02-0.251,0.09-0.379,0.109c-0.133,0.019-0.237,0.218-0.37,0.232c-0.124,0.014-0.294-0.322-0.422-0.313
				c-0.128,0.01-0.261-0.062-0.394-0.052c-0.128,0.01-0.251,0.062-0.384,0.071c-0.128,0.005-0.261-0.091-0.394-0.091
				c-0.124,0.01-0.247,0.257-0.384,0.266c-0.128,0-0.261,0-0.389,0c-0.128,0-0.261-0.142-0.384-0.142
				c-0.133-0.01-0.261-0.02-0.394-0.02c-0.133-0.009-0.242,0.053-0.347,0.02c-0.128-0.033-0.284,0.028-0.375-0.038
				c-0.1-0.066-0.033-0.28-0.104-0.38c-0.062-0.095-0.446-0.038-0.488-0.161c-0.038-0.104-0.052-0.246-0.081-0.374
				c-0.033-0.114,0.142-0.275,0.119-0.398c-0.024-0.114-0.114-0.28-0.138-0.408c0.138,0.005,0.327-0.02,0.441-0.015
				c0.143,0.005,0.251,0.347,0.375,0.356c0.133,0.004,0.261-0.091,0.384-0.081c0.133,0.01,0.266-0.066,0.389-0.066
				c0.123-0.005,0.266,0.015,0.379-0.005c0.128-0.023,0.232-0.138,0.341-0.185c0.119-0.048,0.294-0.028,0.384-0.104
				c0.1-0.076,0.309-0.128,0.375-0.228c0.062-0.104-0.323-0.408-0.285-0.531c0.028-0.109,0.251-0.171,0.266-0.299
				c0.009-0.114,0.076-0.237,0.066-0.37c-0.01-0.114-0.01-0.247-0.038-0.375c-0.019-0.123-0.256-0.199-0.285-0.322
				c-0.033-0.123,0.228-0.337,0.19-0.455c-0.038-0.124-0.095-0.257-0.143-0.37c-0.047-0.123-0.36-0.123-0.417-0.237
				c-0.057-0.123-0.085-0.237-0.143-0.351c-0.062-0.114,0.066-0.342,0-0.446c-0.066-0.109-0.114-0.246-0.185-0.351
				c-0.071-0.1-0.119-0.237-0.194-0.342c-0.085-0.1-0.493,0.066-0.579-0.028s-0.133-0.209-0.218-0.304
				c-0.095-0.095-0.142-0.213-0.237-0.304c-0.085-0.085-0.114-0.241-0.208-0.332c-0.095-0.085-0.028-0.355-0.124-0.437
				c-0.095-0.085-0.436,0.114-0.536,0.033c-0.1-0.08-0.19-0.175-0.29-0.251C9.183,45,9.225,44.73,9.121,44.654
				c-0.104-0.081-0.209-0.152-0.309-0.232c-0.104-0.081-0.247-0.1-0.346-0.186c-0.1-0.075-0.289-0.047-0.389-0.128
				c-0.1-0.08,0.033-0.455-0.062-0.535c-0.104-0.081-0.469,0.161-0.569,0.075c-0.095-0.085,0.066-0.474-0.028-0.56
				c-0.095-0.085-0.479,0.161-0.579,0.076c-0.1-0.086,0-0.389-0.095-0.475c-0.095-0.09-0.076-0.294-0.17-0.379
				c-0.095-0.096-0.422,0.062-0.513-0.029c-0.095-0.085,0.019-0.379-0.076-0.474c-0.085-0.095-0.36-0.005-0.446-0.095
				c-0.085-0.095-0.009-0.332-0.09-0.427c-0.081-0.096-0.28-0.081-0.365-0.171C5,41.021,4.9,40.945,4.819,40.851
				c-0.076-0.095-0.237-0.124-0.317-0.224S4.625,40.2,4.549,40.11c-0.081-0.104-0.247-0.123-0.318-0.218
				c-0.076-0.104-0.142-0.209-0.218-0.309c-0.071-0.1-0.066-0.251-0.142-0.351c-0.066-0.104-0.465,0.014-0.531-0.091
				c-0.071-0.104-0.01-0.294-0.071-0.398c-0.062-0.113-0.109-0.228-0.166-0.341c-0.062-0.104-0.085-0.237-0.142-0.342
				c-0.057-0.114,0.038-0.294-0.01-0.417c-0.047-0.119-0.521-0.086-0.56-0.209c-0.042-0.123,0.256-0.355,0.228-0.479
				c-0.038-0.123-0.062-0.246-0.095-0.374c-0.019-0.133-0.104-0.247-0.123-0.37c-0.019-0.133,0.009-0.266-0.01-0.394
				c-0.009-0.129-0.166-0.242-0.18-0.375c-0.009-0.133,0.024-0.266,0.014-0.398c-0.009-0.133,0.052-0.261,0.043-0.394
				c0-0.128-0.01-0.261-0.015-0.394c0-0.124-0.133-0.257-0.133-0.39c0-0.128-0.133-0.261-0.128-0.397c0-0.124,0.19-0.257,0.19-0.385
				c0.009-0.128-0.095-0.266-0.09-0.394c0.005-0.133,0.242-0.256,0.247-0.38c0.005-0.133-0.133-0.27-0.128-0.402
				s0.104-0.257,0.114-0.385c0.01-0.133-0.095-0.266-0.085-0.398c0.01-0.128,0.133-0.251,0.143-0.379
				c0.009-0.128-0.176-0.275-0.166-0.408c0.009-0.128,0.133-0.251,0.142-0.38c0.01-0.128,0.223-0.246,0.232-0.374
				c0.005-0.091-0.028-0.114,0.047-0.232c0.052-0.076,0.161-0.133,0.237-0.237c0.052-0.081-0.062-0.085,0-0.189
				c0.042,0.123,0.208,0.009,0.251,0.113c0.042,0.124-0.176,0.327-0.138,0.432c0.042,0.119,0.237,0.176,0.266,0.275
				c0.033,0.118,0.304,0.209,0.313,0.322c0.009,0.128-0.394,0.289-0.379,0.413c0.009,0.123,0.028,0.256,0.038,0.384
				c0.019,0.123,0.332,0.214,0.341,0.337c0.024,0.123-0.318,0.304-0.299,0.427s0.403,0.189,0.422,0.313
				c0.023,0.123,0.076,0.236,0.104,0.36c0.024,0.123-0.237,0.313-0.208,0.437c0.028,0.123,0.119,0.232,0.147,0.36
				c0.033,0.123,0.247,0.189,0.28,0.308c0.038,0.119-0.042,0.28,0,0.394c0.038,0.124,0.228,0.186,0.275,0.304
				c0.038,0.119-0.095,0.304-0.048,0.423c0.043,0.118,0.342,0.128,0.394,0.246c0.052,0.114-0.157,0.342-0.104,0.455
				c0.052,0.114,0.104,0.232,0.157,0.342c0.057,0.114,0.284,0.133,0.341,0.247c0.062,0.108-0.076,0.332-0.014,0.44
				c0.066,0.109,0.223,0.157,0.289,0.266c0.066,0.109-0.076,0.352,0,0.46c0.066,0.104,0.489-0.033,0.56,0.071
				c0.076,0.104,0.024,0.294,0.104,0.39c0.071,0.1,0.043,0.284,0.124,0.389c0.076,0.095,0.052,0.289,0.133,0.384
				c0.085,0.09,0.303,0.071,0.389,0.166c0.085,0.09,0.104,0.256,0.195,0.342c0.09,0.09,0.384-0.038,0.479,0.052
				c0.095,0.081,0.114,0.247,0.208,0.327c0.095,0.086,0.28,0.053,0.384,0.138c0.1,0.081-0.038,0.475,0.062,0.546
				c0.104,0.08,0.294,0.047,0.403,0.123c0.104,0.071,0.228,0.123,0.336,0.199c0.109,0.071,0.356-0.085,0.465-0.019
				c0.109,0.07,0.143,0.256,0.256,0.322s0.237,0.104,0.351,0.161c0.114,0.062,0.175,0.214,0.289,0.275
				c0.114,0.057,0.128,0.294,0.242,0.355c0.114,0.062,0.436-0.28,0.55-0.223c0.114,0.057,0.019,0.512,0.133,0.569
				c0.114,0.057,0.351-0.124,0.46-0.066c0.109,0.062,0.156,0.256,0.27,0.313s0.29-0.014,0.403,0.048
				c0.114,0.057,0.185,0.185,0.299,0.246c0.114,0.057,0.171,0.228,0.285,0.289c0.114,0.063,0.313-0.062,0.427-0.004
				c0.114,0.057,0.28,0.014,0.394,0.075c0.114,0.053,0.147,0.28,0.256,0.332c0.114,0.062,0.341-0.113,0.455-0.052
				c0.076,0.043,0.095,0.023,0.218,0.023c0.085,0.01,0.166,0.204,0.28,0.214c-0.019-0.133,0.038-0.266,0.019-0.394
				c-0.009-0.133-0.019-0.266-0.038-0.39c-0.014-0.138-0.114-0.256-0.123-0.384c-0.019-0.133-0.199-0.242-0.209-0.37
				c-0.019-0.128-0.047-0.261-0.062-0.394c-0.014-0.123,0.394-0.304,0.375-0.437c-0.014-0.123-0.474-0.204-0.488-0.342
				c-0.014-0.123,0.081-0.266,0.062-0.397c-0.009-0.129,0.043-0.266,0.033-0.395c-0.014-0.128-0.033-0.261-0.052-0.384
				c-0.014-0.133,0.071-0.275,0.062-0.403c-0.015-0.128-0.1-0.251-0.109-0.384c-0.014-0.124-0.142-0.247-0.152-0.37
				c-0.019-0.133,0.351-0.294,0.342-0.427c-0.01-0.133-0.124-0.247-0.133-0.38c-0.01-0.128-0.275-0.241-0.28-0.37
				c-0.01-0.128,0.004-0.261-0.005-0.389c-0.005-0.123,0.161-0.237,0.19-0.37c0.028-0.113-0.143-0.308-0.104-0.432
				c0.047-0.118,0.351-0.146,0.389-0.261c0.038-0.123,0.014-0.271,0.029-0.394c0.019-0.128-0.114-0.271-0.095-0.403
				c0.01-0.123,0.095-0.237,0.114-0.37c0.019-0.128-0.038-0.266-0.009-0.389c0.019-0.128,0.124-0.237,0.142-0.365
				c0.024-0.128-0.142-0.289-0.123-0.412c0.028-0.124,0.413-0.181,0.437-0.304c0.028-0.123,0.142-0.228,0.17-0.352
				c0.024-0.123-0.185-0.303-0.161-0.427c0.028-0.123-0.095-0.284-0.062-0.407c0.028-0.124,0.413-0.161,0.441-0.285
				c0.028-0.123-0.081-0.284-0.047-0.407c0.038-0.124-0.038-0.271,0-0.395c0.028-0.123-0.038-0.279,0-0.394
				c0.028-0.123,0.062-0.251,0.095-0.374c0.038-0.124,0.161-0.219,0.199-0.342s0.37-0.147,0.408-0.271
				c0.042-0.123-0.294-0.37-0.256-0.483c0.038-0.124,0.114-0.237,0.152-0.352c0.042-0.123,0.208-0.2,0.247-0.318
				c0.047-0.119,0.024-0.261,0.066-0.384c0.047-0.124,0.066-0.247,0.114-0.37c0.047-0.119,0.109-0.232,0.152-0.351
				c0.047-0.118,0.133-0.223,0.18-0.341s0.142-0.218,0.18-0.332c0.052-0.123,0.285-0.161,0.332-0.28
				c0.052-0.119-0.228-0.375-0.175-0.488c0.052-0.124,0.052-0.256,0.104-0.37c0.052-0.124,0.351-0.124,0.403-0.247
				c0.052-0.119,0.133-0.218,0.185-0.332s-0.147-0.351-0.095-0.465c0.052-0.114,0.27-0.161,0.327-0.275
				c0.057-0.114,0.242-0.242,0.256-0.389c0.019-0.133,0.038-0.313,0.019-0.456c-0.009-0.133-0.322-0.228-0.36-0.36
				c-0.042-0.142-0.028-0.294-0.104-0.394c-0.076-0.109-0.123-0.228-0.199-0.327c-0.081-0.109-0.161-0.209-0.223-0.313
				c-0.076-0.114-0.166-0.199-0.228-0.304c-0.071-0.119,0.109-0.341,0.062-0.451c-0.062-0.128-0.379-0.133-0.408-0.247
				c-0.038-0.138-0.175-0.28-0.175-0.394c0-0.138,0.128-0.29,0.185-0.403c0.047-0.109,0.218-0.156,0.313-0.251
				c0.085-0.081,0.19-0.142,0.313-0.208c0.1-0.057,0.218-0.085,0.351-0.133c0.104-0.047,0.142-0.327,0.275-0.37
				c0.114-0.033,0.351,0.332,0.479,0.304c0.119-0.028,0.204-0.19,0.337-0.218c0.119-0.023,0.261-0.114,0.389-0.138
				c0.028-0.118,0.18-0.247,0.204-0.37c0.024-0.119-0.052-0.271-0.033-0.384c0.029-0.124-0.237-0.304-0.208-0.427
				c0.023-0.124,0.156-0.223,0.18-0.342c0.028-0.123-0.009-0.256,0.009-0.379c0.029-0.123,0.351-0.18,0.384-0.303
				c0.024-0.124,0.147-0.218,0.176-0.342c0.028-0.123-0.019-0.256,0.019-0.379c0.029-0.114-0.009-0.256,0.024-0.37
				c0.033-0.123-0.119-0.299-0.081-0.417c0.038-0.124,0.028-0.256,0.066-0.379c0.038-0.114,0.341-0.104,0.427-0.209
				c0.071-0.1-0.009-0.341,0.09-0.427c0.09-0.085,0.137-0.256,0.232-0.332c0.1-0.076,0.427,0.138,0.531,0.066
				c0.104-0.081,0.17-0.199,0.27-0.275c0.095-0.076,0.052-0.389,0.166-0.446c0.114-0.047,0.313,0.085,0.422,0.038
				c0.119-0.052,0.166-0.199,0.27-0.256c0.104-0.071,0.304-0.019,0.365-0.124c0.071-0.114,0.271-0.104,0.351-0.199
				c0.081-0.104-0.109-0.465-0.023-0.541c0.104-0.085,0.379,0.095,0.488,0.038c0.114-0.057,0.143-0.341,0.266-0.37
				c0.124-0.028,0.271-0.109,0.394-0.114c0.124-0.005,0.261,0.152,0.389,0.17c0.123,0.01,0.218,0.195,0.346,0.218
				c0.119,0.028,0.28-0.095,0.403-0.062c0.256,0.071,0.654,0.138,0.579,0.119c0.066-0.109-0.195-0.313-0.133-0.422
				c0.066-0.109,0.517,0.005,0.579-0.1c0.062-0.114-0.247-0.446-0.18-0.55c0.066-0.114,0.266-0.143,0.332-0.256
				c0.066-0.104,0.057-0.261,0.123-0.37c0.066-0.109,0.033-0.275,0.095-0.384c0.066-0.109,0.375-0.076,0.437-0.185
				c0.066-0.109-0.085-0.356-0.024-0.46c0.071-0.109,0.228-0.156,0.299-0.261c0.066-0.104,0.019-0.294,0.085-0.398
				c0.071-0.104,0.422-0.019,0.498-0.123c0.072-0.104-0.014-0.342,0.062-0.437c0.09-0.095,0.304-0.066,0.398-0.142
				c0.104-0.085,0.108-0.332,0.218-0.389c0.119-0.057,0.313,0.109,0.437,0.095c0.123-0.009,0.313-0.266,0.446-0.223
				c0.104,0.033,0.062,0.432,0.17,0.517c0.095,0.066,0.275,0.095,0.365,0.199c0.091-0.09,0.299-0.138,0.385-0.228
				c0.085-0.085-0.058-0.398,0.028-0.488c0.085-0.09,0.146-0.204,0.228-0.29c0.085-0.095,0.294-0.066,0.38-0.161
				c0.085-0.09,0.261-0.095,0.346-0.18c0.081-0.095-0.052-0.398,0.028-0.489c0.086-0.09,0.29-0.071,0.375-0.156
				c0.08-0.09,0.123-0.223,0.209-0.313c0.09-0.09,0.256-0.095,0.341-0.18c0.091-0.085,0.309-0.038,0.398-0.124
				c0.104-0.095,0.181-0.152,0.294-0.218c0.109-0.076,0.066-0.446,0.19-0.493c0.123-0.047,0.294-0.028,0.427-0.057
				C33.832,4.48,33.96,4.31,34.098,4.3c0.128-0.009,0.279,0.323,0.422,0.323c0.133,0,0.261-0.071,0.408-0.066
				c0.133,0.009,0.246-0.162,0.379-0.19c0.133-0.024,0.29,0.076,0.428,0.033c0.123-0.042,0.274-0.042,0.402-0.104
				c0.124-0.052,0.271-0.071,0.394-0.128c0.124-0.062,0.104-0.408,0.229-0.465c0.123-0.062,0.407,0.218,0.531,0.166
				c0.123-0.052,0.118-0.441,0.246-0.484c0.119-0.042,0.304,0.1,0.427,0.062c0.114-0.043,0.256-0.033,0.375-0.071
				c0.118-0.043,0.176-0.29,0.289-0.332c0.123-0.042,0.309,0.128,0.427,0.09c0.119-0.038,0.275,0.042,0.398,0.004
				c0.124-0.042,0.237-0.085,0.365-0.128c0.119-0.038,0.214-0.166,0.327-0.204c0.124-0.042,0.219-0.156,0.342-0.199
				c0.114-0.038,0.294,0.09,0.413,0.052c0.108-0.038,0.146-0.275,0.251-0.322c0.104-0.048,0.151-0.199,0.256-0.256
				c0.095-0.062,0.39,0.208,0.489,0.157c0.118-0.071,0.213-0.133,0.317-0.185c0.128-0.062,0.209-0.143,0.332-0.19
				c0.133-0.047,0.176-0.336,0.294-0.36c0.143-0.028,0.266,0.237,0.389,0.251c0.133,0.009,0.204,0.005,0.318,0.057
				c0.113,0.052,0.156,0.104,0.261,0.199c0.085,0.081,0.37,0,0.445,0.119c0.063,0.104,0.133,0.228,0.186,0.356
				c0.043,0.114-0.209,0.332-0.166,0.465c0.033,0.119,0.289,0.166,0.322,0.303c0.123-0.033,0.204-0.175,0.327-0.208
				c0.128-0.033,0.242-0.1,0.365-0.128c0.123-0.038,0.304,0.137,0.432,0.104c0.123-0.028,0.252-0.076,0.375-0.1
				c0.123-0.023,0.256-0.014,0.379-0.033c0.129-0.019,0.247-0.071,0.375-0.076c0.114-0.005,0.28-0.18,0.413-0.161
				c0.123,0.019,0.18,0.341,0.303,0.384c0.133,0.042,0.285-0.01,0.39,0.052c0.123,0.081,0.308,0.124,0.351,0.223
				c0.048,0.119,0.01,0.289,0,0.441c0,0.133,0,0.285-0.028,0.422c-0.028,0.133-0.138,0.251-0.189,0.379
				c-0.048,0.138-0.038,0.299-0.109,0.413c-0.071,0.124-0.015,0.313-0.085,0.413c-0.071,0.119-0.166,0.175-0.209,0.299
				c-0.038,0.119-0.256,0.218-0.232,0.36c0.019,0.114,0,0.285,0.071,0.427c0.047,0.104,0.403,0.209,0.374,0.356
				c-0.019,0.114-0.223,0.223-0.274,0.346c-0.048,0.119-0.214,0.18-0.28,0.285c-0.071,0.119,0.043,0.37-0.023,0.46
				c-0.066,0.085-0.266,0.228-0.408,0.271c-0.123,0.042-0.308,0-0.437,0.009c-0.142,0.01-0.294-0.095-0.407-0.123
				c-0.133-0.029-0.228-0.199-0.356-0.237c-0.128-0.042-0.279-0.009-0.412-0.057c-0.123-0.047-0.332,0.124-0.455,0.081
				c-0.133-0.043-0.275-0.062-0.403-0.104c-0.123-0.043-0.166-0.327-0.299-0.375c-0.123-0.048-0.219-0.171-0.352-0.218
				s-0.218,0.114-0.351,0.066c-0.023,0.142,0.038,0.189,0.01,0.308c-0.043,0.133-0.332,0.166-0.39,0.28
				C42.99,7.934,43.076,8.152,43,8.242c-0.085,0.104-0.228,0.176-0.332,0.261c-0.104,0.076-0.199,0.204-0.317,0.256
				c-0.119,0.057-0.28,0.028-0.413,0.062c-0.123,0.033-0.232,0.218-0.36,0.237c-0.128,0.023-0.261,0.081-0.398,0.095
				c-0.123,0.014-0.289-0.299-0.417-0.289c-0.128,0.009-0.237,0.294-0.37,0.303c-0.133,0.01-0.223,0.057-0.36,0.095
				c-0.123,0.038-0.36-0.237-0.484-0.19c-0.123,0.052-0.208,0.228-0.332,0.28c-0.123,0.062-0.284,0.033-0.402,0.09
				c-0.119,0.057-0.195,0.194-0.309,0.247c-0.123,0.047-0.304-0.066-0.427-0.019c-0.114,0.042-0.114,0.422-0.237,0.465
				c-0.123,0.038-0.317-0.166-0.441-0.124c-0.128,0.033-0.189,0.29-0.313,0.323c-0.124,0.028-0.28-0.052-0.403-0.033
				c-0.123,0.023-0.285-0.176-0.413-0.166c-0.128,0.019-0.228,0.308-0.355,0.322c-0.128,0.01-0.266,0.143-0.389,0.143
				c-0.133,0-0.256-0.19-0.389-0.199c-0.129-0.01-0.237-0.161-0.365-0.18c-0.124-0.024-0.309,0.256-0.437,0.223
				c-0.124-0.023-0.204-0.336-0.327-0.351c-0.128-0.009-0.261-0.028-0.394-0.033c-0.129-0.004-0.262,0.085-0.395,0.085
				c-0.123-0.009-0.474-0.047-0.611-0.057c0.1,0.218,0.213,0.427,0.251,0.484c0.081,0.114,0.352,0.09,0.427,0.199
				c0.076,0.109,0.275,0.143,0.352,0.256c0.08,0.104-0.048,0.37,0.038,0.484c0.075,0.104,0.369,0.208,0.455,0.322
				c-0.114,0.052-0.465-0.062-0.579,0c-0.104,0.062-0.199,0.152-0.313,0.218c-0.104,0.066-0.076,0.37-0.189,0.427
				c-0.109,0.057-0.19,0.214-0.295,0.266c-0.113,0.057-0.351-0.147-0.465-0.104c-0.123,0.042-0.199,0.218-0.322,0.247
				c-0.133,0.028-0.294-0.166-0.427-0.152c-0.128,0.019-0.256,0.047-0.389,0.047s-0.266,0.304-0.398,0.299s-0.275,0.024-0.398,0.014
				c-0.133,0-0.247-0.332-0.385-0.341c-0.133,0-0.203,0.161-0.336,0.161c-0.028,0.119,0.038,0.104,0.009,0.218
				c0.081,0.076-0.009,0.218,0.076,0.289c0.085,0.071,0.057,0.28,0.151,0.351c0.081,0.071,0.361-0.09,0.456-0.019
				c0.08,0.071,0.294,0.195,0.379,0.271c-0.062,0.114-0.256,0.304-0.322,0.413c-0.076,0.114-0.304,0.109-0.389,0.213
				c-0.086,0.104-0.114,0.247-0.219,0.342c-0.095,0.095-0.104,0.303-0.208,0.384c-0.109,0.081-0.38-0.114-0.503-0.047
				c-0.114,0.057-0.133,0.337-0.261,0.384c-0.124,0.047-0.309-0.128-0.441-0.1c-0.128,0.033-0.218,0.356-0.355,0.375
				c-0.128,0.01-0.271-0.081-0.403-0.076c-0.124,0.005-0.266-0.185-0.394-0.18c-0.128,0.009-0.256,0.095-0.384,0.095
				c-0.128,0.005-0.256,0.242-0.389,0.242s-0.27-0.361-0.398-0.356c-0.128,0.005-0.251,0.161-0.389,0.161
				c-0.124,0.01-0.275-0.175-0.403-0.166c-0.114,0.01-0.28,0.024-0.384,0.062c-0.109,0.033-0.17,0.247-0.275,0.299
				c-0.104,0.052-0.19,0.147-0.285,0.213s0.005,0.137-0.085,0.213c0.104,0.019,0.038,0.128,0.143,0.119
				c0.114-0.01,0.256,0.128,0.389,0.119c0.124-0.01,0.237-0.176,0.36-0.176c0.128,0,0.294-0.285,0.417-0.266
				c0.124,0.019,0.138,0.408,0.237,0.475c0.104,0.066,0.417-0.033,0.479,0.09c0.042,0.1,0.047,0.29,0.052,0.432
				c0.009,0.124-0.166,0.266-0.242,0.408c-0.062,0.114-0.317,0.081-0.413,0.195c-0.09,0.104-0.17,0.185-0.275,0.28
				c-0.104,0.095-0.104,0.289-0.208,0.379c-0.114,0.095-0.251,0.138-0.361,0.208c-0.095,0.071-0.232,0.038-0.332,0.095
				c-0.104,0.052-0.104,0.317-0.218,0.36c-0.104,0.047-0.199,0.161-0.304,0.199c-0.114,0.038-0.228,0.085-0.341,0.123
				c-0.114,0.038-0.19,0.19-0.299,0.228c-0.114,0.038-0.152-0.076-0.261-0.038c0.047,0.109-0.232,0.294-0.161,0.417
				c0.066,0.114,0.294,0.147,0.36,0.261c0.066,0.128,0.085,0.261,0.128,0.375c0.062,0.162,0.365,0.37,0.308,0.46
				c-0.062,0.109-0.341,0.109-0.437,0.218c-0.081,0.104-0.256,0.114-0.36,0.209c-0.104,0.09-0.218,0.142-0.332,0.218
				c-0.123,0.081-0.166,0.251-0.285,0.299c-0.137,0.062-0.261-0.104-0.389-0.104c-0.133,0-0.256,0.228-0.379,0.237
				c-0.133,0.019-0.271-0.019-0.394,0c-0.128,0.019-0.194,0.27-0.317,0.303c-0.128,0.038-0.313-0.123-0.427-0.076
				c-0.114,0.052-0.189,0.199-0.299,0.261c-0.114,0.062-0.228,0.109-0.327,0.185c-0.104,0.076-0.208,0.152-0.303,0.237
				c-0.095,0.081-0.071,0.265-0.157,0.36c-0.081,0.095-0.441-0.029-0.517,0.076c-0.076,0.104,0.209,0.446,0.143,0.555
				c-0.066,0.109-0.484,0.014-0.545,0.128c-0.062,0.114-0.109,0.242-0.162,0.355c-0.052,0.114-0.128,0.232-0.175,0.356
				c-0.047,0.114,0.123,0.318,0.076,0.441c-0.047,0.119-0.266,0.176-0.303,0.299c-0.043,0.124,0.275,0.365,0.228,0.489
				c-0.043,0.123-0.114,0.232-0.152,0.355c-0.038,0.124-0.133,0.228-0.18,0.351c-0.043,0.124-0.275,0.18-0.313,0.304
				c-0.038,0.123-0.076,0.247-0.114,0.37c-0.047,0.123-0.071,0.251-0.114,0.371c-0.038,0.123-0.029,0.266-0.071,0.389
				c-0.043,0.123-0.062,0.251-0.1,0.375c-0.043,0.123-0.124,0.232-0.161,0.355c-0.048,0.123,0.066,0.294,0.023,0.417
				c-0.042,0.123-0.251,0.189-0.299,0.313c-0.042,0.123,0.095,0.304,0.057,0.427c-0.047,0.123-0.285,0.18-0.327,0.294
				c-0.043,0.123,0.166,0.332,0.123,0.455c-0.042,0.124-0.28,0.181-0.318,0.304c-0.042,0.123,0.1,0.309,0.062,0.432
				c-0.043,0.123-0.365,0.147-0.403,0.271c-0.047,0.123,0.152,0.327,0.114,0.45c-0.047,0.128-0.299,0.176-0.341,0.294
				c-0.048,0.119-0.199,0.318-0.237,0.441c0.123,0.053,0.332-0.113,0.455-0.062c0.062-0.114,0.152-0.09,0.214-0.204
				c0.062-0.113,0.327-0.113,0.394-0.228c0.062-0.114-0.104-0.342-0.047-0.455c0.057-0.114-0.029-0.313,0.028-0.427
				c0.062-0.104,0.289-0.133,0.351-0.237c0.066-0.114,0.332-0.104,0.398-0.209c0.066-0.109-0.18-0.412-0.119-0.517
				c0.071-0.109,0.299-0.109,0.365-0.224c0.066-0.104,0.275-0.123,0.341-0.228s0.18-0.175,0.256-0.279
				c0.076-0.104,0.133-0.214,0.208-0.318c0.076-0.104-0.147-0.427-0.076-0.521c0.076-0.104,0.095-0.256,0.175-0.351
				c0.081-0.104,0.517,0.085,0.593-0.02c0.081-0.095-0.18-0.474-0.1-0.569c0.085-0.104,0.356-0.033,0.441-0.133
				c0.085-0.095,0.057-0.29,0.142-0.384s0.194-0.166,0.285-0.261c0.085-0.095,0.266-0.1,0.355-0.19
				c0.09-0.09,0.119-0.237,0.204-0.327c0.095-0.09,0.218-0.138,0.313-0.228c0.09-0.09,0.161-0.195,0.256-0.29
				c0.095-0.085,0.341,0,0.436-0.081c0.095-0.085,0.09-0.28,0.19-0.36c0.095-0.085,0.171-0.19,0.275-0.271
				c0.095-0.081,0-0.394,0.095-0.474c0.1-0.076,0.299-0.038,0.398-0.114c0.104-0.085,0.17-0.199,0.275-0.28
				c0.1-0.081,0.142-0.237,0.242-0.318c0.1-0.076,0.271-0.057,0.375-0.138c0.104-0.071,0.36,0.062,0.465-0.009
				c0.104-0.076,0.156-0.218,0.261-0.29c0.1-0.071,0.213-0.133,0.318-0.208c0.104-0.066,0.081-0.332,0.189-0.403
				c0.104-0.071,0.342,0.062,0.451-0.009c0.109-0.071,0.28-0.033,0.384-0.1c0.114-0.066,0.218-0.124,0.332-0.19
				c0.104-0.062,0.057-0.394,0.166-0.455c0.109-0.066,0.389,0.166,0.498,0.104c0.109-0.066-0.014-0.541,0.1-0.602
				c0.109-0.062,0.384,0.156,0.488,0.095c0.124-0.062,0.204-0.194,0.318-0.261c0.114-0.071,0.323,0.004,0.437-0.071
				c0.114-0.071,0.133-0.29,0.247-0.36c0.114-0.071,0.251-0.1,0.365-0.176c0.113-0.066,0.128-0.303,0.246-0.37
				c0.114-0.066,0.229-0.157,0.352-0.218c0.113-0.066,0.209-0.218,0.332-0.266c0.123-0.057,0.332,0.014,0.475-0.01
				c0.133-0.028,0.274-0.123,0.412-0.142c0.138-0.009,0.299,0.19,0.432,0.166c0.147-0.014,0.304,0.024,0.427-0.009
				c0.143-0.033,0.194-0.242,0.309-0.318c0.109-0.066,0.271-0.047,0.384-0.104c0.114-0.057,0.143-0.322,0.257-0.365
				c0.123-0.042,0.303,0.066,0.427,0.033c0.113-0.038,0.274,0.066,0.398,0.043c0.123-0.024,0.208-0.299,0.332-0.318
				c0.123-0.014,0.261-0.014,0.384-0.024c0.123-0.009,0.271,0.251,0.394,0.247c0.123-0.004,0.256,0.09,0.38,0.09
				c0.123-0.005,0.241-0.379,0.369-0.379c0.124,0,0.252,0.133,0.38,0.133c0.123,0,0.266,0.228,0.389,0.228
				c0.124-0.009,0.228-0.427,0.352-0.437c0.123-0.009,0.274,0.251,0.398,0.237c0.133-0.014,0.256-0.066,0.379-0.066
				c0.133-0.009,0.266-0.047,0.394-0.038c0.128,0.01,0.228,0.223,0.36,0.242c0.129,0.023,0.242,0.052,0.37,0.085
				c0.128,0.028,0.332-0.271,0.46-0.237c0.124,0.033,0.214,0.204,0.342,0.242c0.123,0.038,0.299-0.081,0.427-0.038
				c0.123,0.038,0.237,0.114,0.36,0.156c0.124,0.042,0.219,0.175,0.342,0.218c0.123,0.042,0.247,0.081,0.37,0.128
				c0.123,0.038,0.304-0.095,0.427-0.057c0.123,0.042,0.138,0.465,0.261,0.498c0.128,0.033,0.347-0.223,0.47-0.181
				c0.133,0.043,0.275,0.033,0.403,0.081c0.123,0.047,0.113,0.46,0.241,0.512c0.124,0.042,0.356-0.199,0.484-0.147
				c0.123,0.052,0.266,0.042,0.389,0.09c0.123,0.042,0.147,0.398,0.275,0.437c0.128,0.047,0.246,0.137,0.374,0.175
				c0.129,0.043,0.365-0.308,0.489-0.28c0.133,0.028,0.204,0.323,0.341,0.341c0.124,0.019,0.247,0.015,0.37,0.043
				c0.124,0.033,0.228,0.138,0.352,0.175c0.123,0.033,0.27-0.038,0.389,0c0.123,0.043,0.242,0.071,0.36,0.114
				c0.118,0.047,0.161,0.271,0.284,0.323c0.114,0.047,0.313-0.104,0.428-0.047c0.113,0.057,0.246,0.076,0.36,0.133
				c0.113,0.057,0.113,0.346,0.218,0.408c0.114,0.057,0.309-0.047,0.422,0.019c0.109,0.057,0.237,0.1,0.347,0.161
				c0.109,0.066,0.327-0.047,0.437,0.019c0.108,0.062,0.009,0.484,0.118,0.545c0.109,0.066,0.309-0.023,0.422,0.043
				c0.104,0.062,0.361-0.124,0.475-0.052c0.104,0.062,0.147,0.242,0.261,0.308c0.109,0.066,0.114,0.304,0.228,0.37
				c0.109,0.066,0.204,0.161,0.309,0.228c0.114,0.057,0.199,0.19,0.304,0.247c0.113,0.057,0.309-0.033,0.422,0.019
				c0.114,0.057,0.166,0.256,0.28,0.313c0.113,0.057,0.337-0.142,0.455-0.095c0.123,0.047,0.18,0.247,0.299,0.294
				c0.118,0.042,0.279-0.038,0.403,0.005c0.123,0.038,0.246,0.062,0.37,0.09c0.104,0.033,0.085,0.237,0.166,0.365
				c0.062,0.09,0.27,0.124,0.332,0.247c0.052,0.114-0.133,0.346-0.086,0.46c0.053,0.123,0.441,0.189,0.498,0.294
				c-0.113,0.057-0.455-0.138-0.569-0.076c-0.113,0.057-0.085,0.37-0.199,0.427c-0.113,0.062-0.332-0.133-0.445-0.085
				c-0.119,0.047-0.128,0.389-0.252,0.417c-0.118,0.028-0.251,0.133-0.374,0.143c-0.124,0.015-0.266-0.213-0.39-0.218
				c-0.123,0-0.241-0.019-0.365-0.028c-0.123-0.009-0.27,0.208-0.394,0.199c-0.133-0.009-0.271,0.029-0.407,0.02
				c-0.133-0.01-0.232-0.446-0.365-0.465c-0.138-0.014-0.328,0.289-0.456,0.256c-0.137-0.028-0.208-0.266-0.332-0.317
				c-0.113-0.052-0.185-0.199-0.299-0.251c-0.113-0.052-0.279,0.019-0.394-0.029c-0.113-0.057-0.175-0.208-0.289-0.261
				s-0.36,0.166-0.475,0.114c-0.113-0.052-0.208-0.137-0.322-0.194c-0.113-0.052-0.218-0.138-0.332-0.189
				c-0.113-0.057-0.104-0.361-0.218-0.413c-0.114-0.052-0.352,0.147-0.456,0.09c-0.113-0.057-0.218-0.119-0.332-0.171
				c-0.113-0.057-0.228-0.104-0.341-0.161c-0.114-0.057-0.199-0.171-0.313-0.218c-0.113-0.057-0.294,0.038-0.407-0.014
				c-0.114-0.052-0.066-0.47-0.181-0.517c-0.128-0.057-0.389,0.247-0.531,0.228c-0.138-0.029-0.256-0.181-0.398-0.195
				s-0.266-0.242-0.408-0.261c-0.142-0.009-0.322,0.237-0.455,0.208c-0.123-0.028-0.218-0.166-0.342-0.199
				c-0.113-0.028-0.27,0.076-0.389,0.048c-0.118-0.029-0.209-0.209-0.322-0.237c-0.123-0.028-0.209-0.223-0.322-0.251
				c-0.124-0.033-0.28,0.1-0.403,0.071c-0.119-0.033-0.299,0.161-0.413,0.133c-0.123-0.019-0.251-0.029-0.374-0.057
				c-0.124-0.028-0.257,0.005-0.375-0.023c-0.119-0.033-0.228-0.114-0.347-0.147c-0.118-0.029-0.175-0.318-0.304-0.342
				c-0.118-0.028-0.213-0.152-0.336-0.185c-0.124-0.028-0.332,0.332-0.456,0.299c-0.123-0.028-0.218-0.142-0.341-0.166
				c-0.124-0.019-0.237-0.1-0.36-0.119c-0.124-0.019-0.237-0.118-0.356-0.137c-0.123-0.019-0.266,0.052-0.384,0.023
				c-0.123-0.023-0.247-0.057-0.37-0.095s-0.304,0.038-0.437-0.009c-0.133-0.043-0.313-0.029-0.437-0.085
				c-0.133-0.062-0.17-0.342-0.274-0.417c-0.124-0.085-0.038-0.313-0.114-0.427s-0.185-0.232-0.266-0.323
				c-0.095-0.104-0.256-0.17-0.355-0.237c-0.109-0.085-0.37,0.151-0.488,0.114c-0.124-0.043-0.19-0.166-0.323-0.176
				c-0.123-0.004-0.218,0.152-0.346,0.171c-0.123,0.024-0.261-0.119-0.389-0.081c-0.119,0.038-0.323-0.157-0.446-0.104
				c-0.118,0.043-0.166,0.29-0.289,0.332c-0.114,0.047-0.219,0.133-0.342,0.18c-0.113,0.047-0.351-0.189-0.465-0.138
				c-0.123,0.052-0.062,0.527-0.18,0.574c-0.119,0.047-0.257,0.047-0.37,0.104c-0.124,0.047-0.237,0.085-0.36,0.137
				c-0.114,0.052-0.403-0.261-0.518-0.208c-0.113,0.052-0.019,0.545-0.133,0.602c-0.113,0.052-0.241,0.081-0.351,0.133
				c-0.114,0.062-0.242,0.095-0.355,0.152c-0.114,0.057-0.323-0.066-0.432-0.004c-0.114,0.062-0.138,0.28-0.242,0.346
				c-0.109,0.066-0.275,0.028-0.389,0.095c-0.104,0.066-0.299-0.009-0.408,0.062c-0.109,0.071-0.114,0.299-0.223,0.365
				c-0.109,0.071-0.218,0.133-0.322,0.204c-0.104,0.076-0.157,0.223-0.261,0.289c-0.104,0.076-0.389-0.104-0.494-0.028
				c-0.104,0.071,0.024,0.456-0.081,0.531c-0.104,0.076-0.375-0.076-0.479,0.005c-0.095,0.081-0.009,0.394-0.114,0.469
				c-0.095,0.081-0.199,0.152-0.294,0.232c-0.095,0.081-0.398-0.081-0.493,0.005c-0.1,0.085-0.109,0.266-0.204,0.346
				c-0.09,0.085-0.166,0.199-0.256,0.28c-0.095,0.085-0.261,0.095-0.355,0.18c-0.095,0.09,0,0.37-0.09,0.455
				c-0.095,0.091-0.469-0.108-0.564-0.019c-0.095,0.09-0.18,0.181-0.275,0.276c-0.09,0.09-0.218,0.151-0.308,0.237
				c-0.09,0.095,0.014,0.379-0.071,0.474c-0.095,0.095-0.375,0-0.456,0.095c-0.095,0.096-0.009,0.342-0.104,0.446
				c-0.085,0.09-0.076,0.266-0.166,0.37c-0.081,0.095-0.337,0.047-0.422,0.142c-0.085,0.096-0.052,0.295-0.138,0.39
				c-0.081,0.1-0.147,0.213-0.232,0.313c-0.085,0.095-0.218,0.147-0.303,0.247s-0.076,0.266-0.157,0.37
				c-0.081,0.1-0.156,0.204-0.237,0.303c-0.081,0.104-0.119,0.229-0.195,0.332c-0.085,0.104-0.408,0.02-0.483,0.124
				c-0.076,0.104-0.171,0.189-0.247,0.304c-0.076,0.104,0.162,0.422,0.09,0.526c-0.076,0.108-0.138,0.218-0.208,0.322
				c-0.071,0.109-0.124,0.223-0.195,0.332c-0.066,0.109-0.351,0.081-0.417,0.194c-0.066,0.104-0.009,0.294-0.071,0.403
				c-0.062,0.113-0.138,0.218-0.194,0.327c-0.066,0.114-0.446,0.052-0.508,0.166s0.28,0.437,0.223,0.55
				c-0.057,0.114-0.266,0.157-0.318,0.271c-0.052,0.114,0.052,0.309,0,0.427c-0.052,0.119-0.351,0.124-0.403,0.242
				s-0.228,0.189-0.275,0.309c-0.052,0.118,0.189,0.351,0.142,0.474c-0.042,0.119,0.019,0.275-0.019,0.398
				c-0.047,0.114-0.394,0.133-0.436,0.257c-0.038,0.128-0.062,0.256-0.104,0.379c-0.028,0.123-0.066,0.247-0.1,0.375
				s0.133,0.304,0.1,0.427c-0.028,0.123,0.052,0.271,0.024,0.403c-0.033,0.123-0.228,0.209-0.251,0.332
				c-0.029,0.123-0.351,0.199-0.37,0.327s0.152,0.279,0.133,0.408c-0.019,0.123,0.199,0.266,0.19,0.389
				c-0.01,0.123-0.015,0.237-0.019,0.365c-0.005,0.123-0.223,0.237-0.223,0.36s0.223,0.237,0.228,0.36
				c0.005,0.123-0.175,0.261-0.166,0.385c0.009,0.123-0.114,0.261-0.095,0.384c0.014,0.123-0.004,0.256,0.014,0.379
				c0.019,0.124,0.223,0.237,0.247,0.361c0.052-0.124,0.299-0.171,0.347-0.29c0.047-0.118-0.275-0.394-0.228-0.517
				c0.047-0.114,0.323-0.143,0.379-0.256c0.048-0.124-0.019-0.29,0.029-0.408s-0.047-0.294,0-0.417
				c0.047-0.119,0.455-0.096,0.502-0.219c0.048-0.113-0.266-0.365-0.223-0.488c0.042-0.123,0.242-0.186,0.289-0.309
				c0.043-0.113,0.104-0.228,0.162-0.351c0.047-0.114,0.284-0.143,0.341-0.256c0.057-0.114-0.1-0.337-0.038-0.446
				c0.057-0.114,0.384-0.076,0.446-0.181c0.066-0.108-0.085-0.351-0.019-0.465c0.071-0.104,0.317-0.085,0.394-0.189
				c0.071-0.104-0.052-0.346,0.028-0.45c0.076-0.104,0.375-0.033,0.451-0.133c0.076-0.1-0.138-0.446-0.057-0.546
				c0.081-0.095,0.285-0.085,0.37-0.18s0.142-0.219,0.228-0.309c0.085-0.095,0.313-0.052,0.398-0.147
				c0.09-0.085,0.09-0.266,0.18-0.36c0.085-0.085,0.351,0,0.437-0.085c0.095-0.09-0.143-0.531-0.052-0.616
				c0.095-0.086,0.299-0.063,0.394-0.147c0.095-0.081,0.394,0.062,0.489-0.023c0.09-0.086,0.028-0.352,0.123-0.437
				c0.09-0.086,0.213-0.138,0.309-0.223c0.095-0.081,0.161-0.204,0.256-0.29c0.095-0.085,0.095-0.289,0.199-0.37
				c0.095-0.085,0.36,0.033,0.465-0.052c0.104-0.081,0.114-0.271,0.218-0.351c0.095-0.081,0.161-0.214,0.256-0.299
				c0.104-0.086,0.251-0.104,0.351-0.186c0.104-0.08,0.29-0.062,0.394-0.138c0.104-0.08,0.137-0.246,0.237-0.332
				c0.104-0.08,0.195-0.18,0.299-0.256c0.104-0.08,0.304-0.033,0.408-0.113c0.1-0.076,0.028-0.38,0.133-0.456
				c0.095-0.071,0.275-0.042,0.384-0.085c0.1-0.048,0.271,0.066,0.379,0.033c0.109-0.043,0.166-0.223,0.271-0.261
				c0.124-0.038,0.228-0.119,0.351-0.161c0.114-0.043,0.266,0,0.389-0.038c0.119-0.048,0.285,0.057,0.408,0.01
				c0.114-0.043,0.156-0.304,0.28-0.347s0.218-0.138,0.336-0.185c0.119-0.043,0.228-0.114,0.347-0.162
				c0.118-0.042,0.213-0.137,0.337-0.18c0.118-0.048,0.322,0.138,0.437,0.095c0.123-0.048,0.166-0.289,0.284-0.332
				c0.118-0.048,0.294,0.057,0.408,0.019c0.123-0.047,0.228-0.123,0.351-0.17c0.123-0.043,0.351,0.232,0.465,0.189
				c0.123-0.048,0.147-0.355,0.266-0.398s0.189-0.247,0.304-0.285c0.123-0.037,0.294,0.066,0.412,0.024
				c0.119-0.038,0.242-0.071,0.365-0.109c0.124-0.038,0.285,0.048,0.408,0.01c0.118-0.038,0.232-0.095,0.355-0.133
				c0.119-0.038,0.237-0.086,0.36-0.123c0.124-0.038,0.19-0.252,0.313-0.285c0.123-0.038,0.232-0.123,0.351-0.156
				c0.124-0.033,0.247-0.062,0.37-0.1c0.123-0.033,0.289,0.066,0.422,0.047c0.129-0.019,0.266,0.086,0.398,0.086
				c0.124-0.01,0.247-0.033,0.38-0.033s0.256,0.066,0.384,0.076c0.129,0.009,0.242,0.123,0.37,0.137
				c0.128,0.01,0.289-0.284,0.418-0.274c0.128,0.019,0.228,0.313,0.355,0.322s0.261-0.01,0.389,0
				c0.133,0.01,0.266-0.095,0.398-0.095c0.128,0.01,0.256-0.247,0.385-0.256c0.123,0,0.246,0.279,0.364,0.284
				c0.124,0.005,0.237,0.028,0.361,0.038c0.123,0.019,0.256-0.048,0.369-0.023c0.124,0.023,0.219,0.118,0.332,0.156
				c0.114,0.038,0.323-0.123,0.432-0.066c0.109,0.052,0.242,0.123,0.337,0.189c0.1,0.066,0.048,0.351,0.143,0.432
				c0.08,0.071,0.266,0.033,0.342,0.118c0.066,0.081,0.18,0.133,0.246,0.224c0.062,0.085-0.104,0.228-0.038,0.308
				c-0.108,0.038-0.133,0.096-0.241,0.147c-0.109,0.043-0.195,0.156-0.309,0.194c-0.114,0.038-0.228,0.156-0.351,0.166
				c-0.133,0.015-0.271-0.033-0.403-0.028c-0.138,0.005-0.271-0.185-0.403-0.185s-0.266,0.332-0.398,0.327
				c-0.133,0-0.266-0.38-0.398-0.375c-0.138,0-0.275-0.038-0.408-0.028c-0.133,0-0.274,0.01-0.407,0.023
				c-0.138,0.01-0.229,0.337-0.365,0.355c-0.133,0.02-0.232,0.124-0.361,0.162c-0.123,0.028-0.327-0.237-0.445-0.199
				c-0.123,0.033-0.194,0.241-0.318,0.279c-0.123,0.033-0.198,0.199-0.322,0.237c-0.113,0.043-0.228,0.095-0.351,0.138
				c-0.114,0.038-0.266-0.015-0.385,0.028c-0.118,0.043-0.279-0.028-0.394,0.019c-0.123,0.043-0.223,0.124-0.341,0.166
				c-0.124,0.043-0.318-0.113-0.437-0.071c-0.119,0.048-0.076,0.475-0.189,0.527c-0.124,0.052-0.332-0.124-0.446-0.071
				c-0.114,0.047-0.199,0.166-0.313,0.218c-0.113,0.057-0.294-0.033-0.412,0.02c-0.114,0.057-0.081,0.402-0.194,0.455
				c-0.114,0.057-0.323-0.076-0.437-0.02c-0.114,0.058-0.28,0-0.394,0.063c-0.114,0.062-0.081,0.369-0.194,0.432
				c-0.104,0.057-0.398-0.199-0.508-0.133c-0.109,0.062-0.062,0.394-0.166,0.455c-0.114,0.066-0.38-0.123-0.483-0.062
				c-0.104,0.062-0.096,0.322-0.199,0.394c-0.104,0.066-0.352-0.076-0.465-0.01c-0.1,0.071-0.186,0.181-0.29,0.256
				c-0.104,0.071,0.024,0.465-0.08,0.536c-0.104,0.076-0.352-0.062-0.455,0.015c-0.096,0.075-0.053,0.351-0.152,0.427
				c-0.095,0.076-0.342-0.038-0.437,0.047c-0.104,0.076-0.132,0.237-0.228,0.318c-0.104,0.08-0.375-0.048-0.474,0.033
				c-0.095,0.076-0.218,0.133-0.313,0.218c-0.095,0.086,0.042,0.437-0.052,0.526c-0.09,0.091-0.451-0.104-0.545-0.014
				c-0.095,0.085-0.175,0.199-0.271,0.284c-0.095,0.09-0.156,0.219-0.247,0.313c-0.095,0.095-0.166,0.208-0.261,0.304
				c-0.085,0.095,0.085,0.445,0,0.54c-0.09,0.09-0.237,0.133-0.323,0.228c-0.09,0.091-0.266,0.104-0.36,0.199
				c-0.085,0.095-0.114,0.242-0.204,0.342c-0.09,0.1-0.432-0.033-0.517,0.066c-0.085,0.095,0.066,0.375,0.009,0.488
				c-0.057,0.109-0.299,0.152-0.341,0.271c-0.043,0.119,0.175,0.327,0.133,0.446c-0.038,0.118-0.019,0.133-0.071,0.246
				C24.213,39.987,24.228,40.31,24.36,40.338z M23.369,25.331c-0.1,0.076,0.014,0.437-0.085,0.522
				c-0.1,0.076-0.247,0.095-0.342,0.175c-0.1,0.081-0.308,0.019-0.413,0.1c-0.095,0.085-0.218,0.133-0.308,0.218
				c-0.095,0.085,0.038,0.427-0.052,0.512c-0.095,0.085-0.256,0.095-0.351,0.18s-0.17,0.18-0.266,0.266
				c-0.095,0.09-0.104,0.256-0.189,0.342c-0.095,0.09-0.427-0.066-0.512,0.019c-0.09,0.09-0.242,0.118-0.332,0.208
				c-0.085,0.091-0.114,0.248-0.199,0.337c-0.085,0.091-0.237,0.128-0.323,0.219c-0.081,0.09-0.019,0.327-0.104,0.422
				c-0.081,0.09-0.294,0.076-0.379,0.171c-0.085,0.095,0.062,0.389-0.019,0.479c-0.085,0.1-0.375,0.015-0.456,0.114
				c-0.076,0.1,0.019,0.337-0.066,0.437c-0.076,0.1-0.285,0.1-0.36,0.194c-0.071,0.104-0.256,0.133-0.332,0.228
				c-0.071,0.104,0.104,0.389,0.038,0.488c-0.076,0.1-0.309,0.1-0.38,0.204c-0.066,0.114-0.104,0.237-0.166,0.342
				c-0.062,0.113-0.247,0.161-0.308,0.271c-0.062,0.113,0.28,0.432,0.228,0.535c-0.062,0.114-0.413,0.096-0.465,0.209
				c-0.047,0.114,0.228,0.36,0.19,0.475c-0.047,0.123-0.242,0.176-0.275,0.294c-0.029,0.128-0.247,0.218-0.256,0.337
				c-0.024,0.128-0.033,0.279-0.028,0.394c0.004,0.133,0.17,0.171,0.204,0.284c0.104-0.08,0.109-0.128,0.185-0.237
				c0.066-0.104,0.095-0.232,0.162-0.346c0.066-0.114,0.36-0.095,0.427-0.204c0.062-0.113-0.228-0.427-0.166-0.541
				c0.066-0.113,0.479-0.019,0.545-0.128c0.066-0.108,0.038-0.279,0.104-0.389s-0.076-0.355,0-0.465
				c0.066-0.109,0.45-0.015,0.521-0.114c0.071-0.108-0.152-0.422-0.076-0.526c0.076-0.104,0.36-0.057,0.436-0.161
				c0.076-0.104,0.071-0.266,0.152-0.37c0.076-0.104,0.18-0.185,0.261-0.289s-0.014-0.342,0.062-0.445
				c0.085-0.1,0.389-0.02,0.469-0.124c0.081-0.1-0.052-0.379,0.024-0.479c0.085-0.1,0.451,0.038,0.531-0.058
				c0.085-0.095,0.104-0.256,0.185-0.351c0.085-0.095,0.242-0.133,0.322-0.228s0.166-0.194,0.251-0.289
				c0.09-0.095,0.266-0.104,0.351-0.199c0.09-0.091-0.143-0.49-0.057-0.584s0.437,0.066,0.531-0.028
				c0.085-0.095,0.18-0.18,0.275-0.266c0.085-0.095,0.151-0.218,0.242-0.303c0.09-0.095,0.062-0.304,0.152-0.389
				c0.081-0.081,0.365-0.057,0.417-0.166c0.047-0.1-0.323-0.379-0.28-0.493c0.029-0.109,0.351-0.124,0.389-0.232
				c0.033-0.114-0.028-0.299,0.019-0.398c0.123,0.01,0.275,0.28,0.389,0.28c0.124-0.005,0.256-0.156,0.361-0.18
				c0.123-0.024,0.151-0.289,0.256-0.337c0.114-0.042,0.237-0.014,0.342-0.076c0.095-0.066,0.294,0.009,0.384-0.071
				c0.09-0.071,0.299-0.042,0.384-0.123c0.085-0.085,0.143-0.337,0.228-0.427c-0.066-0.118-0.27-0.317-0.341-0.431
				c-0.104,0.071-0.271,0.156-0.379,0.228c-0.109,0.076-0.047,0.403-0.161,0.474c-0.104,0.076-0.484-0.247-0.588-0.171
				c-0.114,0.076-0.175,0.214-0.289,0.285c-0.109,0.076-0.019,0.446-0.128,0.522C23.843,25.549,23.478,25.255,23.369,25.331z
				 M16.525,48.762c0.152,0.047,0.451-0.171,0.607-0.123c0.104-0.096,0.19-0.104,0.294-0.199c0.104-0.1,0.337-0.058,0.441-0.161
				c0.104-0.096,0.237-0.171,0.336-0.275s-0.066-0.446,0.029-0.555c0.085-0.1,0.247-0.129,0.322-0.229
				c0.085-0.09,0.152-0.203,0.237-0.299c0.085-0.09,0.076-0.266,0.161-0.36s0.427,0.033,0.512-0.066s0.232-0.142,0.313-0.236
				c0.085-0.1,0.095-0.257,0.176-0.356s0.228-0.146,0.308-0.251c0.076-0.095-0.005-0.322,0.066-0.427
				c0.076-0.104,0.29-0.109,0.36-0.214c0.076-0.104-0.104-0.375-0.033-0.483c0.071-0.109,0.375-0.066,0.441-0.181
				c0.066-0.109-0.066-0.327,0-0.44c0.057-0.104,0.266-0.147,0.322-0.262c0.057-0.113,0.232-0.185,0.285-0.299
				c0.047-0.113-0.189-0.351-0.152-0.465c0.047-0.123,0.275-0.18,0.313-0.299c0.033-0.118,0.038-0.261,0.066-0.384
				c0.029-0.123,0.19-0.228,0.213-0.351c0.024-0.124-0.384-0.342-0.355-0.465c0.028-0.124,0.379-0.166,0.417-0.285
				c0.033-0.123-0.256-0.351-0.218-0.47c0.038-0.118,0.251-0.189,0.294-0.308c0.052-0.119,0.28-0.152,0.332-0.266
				c0.057-0.114,0.114-0.219,0.18-0.327c0.066-0.109-0.047-0.337,0.024-0.432c0.071-0.104,0.166-0.199,0.247-0.304
				c0.076-0.1,0.128-0.228,0.204-0.322c0.076-0.104,0.37-0.038,0.45-0.143c0.081-0.1-0.166-0.455-0.09-0.555
				c0.081-0.1,0.474,0.047,0.555-0.053c0.081-0.095,0.071-0.274,0.147-0.374c0.085-0.1-0.028-0.361,0.057-0.461
				s0.446,0.048,0.531-0.047c0.081-0.095-0.104-0.437-0.014-0.531c0.085-0.095,0.365-0.015,0.455-0.104
				c0.09-0.095,0.104-0.256,0.195-0.351c0.085-0.096,0.199-0.157,0.294-0.247c0.09-0.09,0.028-0.342,0.123-0.432
				c0.095-0.09,0.389,0.033,0.484-0.052c0.095-0.086,0-0.39,0.095-0.475c0.104-0.081,0.437,0.114,0.536,0.033
				c0.1-0.085,0.138-0.232,0.237-0.313c0.1-0.08,0.261-0.08,0.355-0.161c0.104-0.08,0.199-0.156,0.304-0.232
				c0.104-0.075,0.275-0.047,0.379-0.118c0.104-0.076-0.033-0.508,0.076-0.583c0.108-0.066,0.407,0.17,0.521,0.104
				c0.104-0.062,0.218-0.123,0.332-0.185c0.104-0.062,0.194-0.156,0.309-0.218c0.113-0.063,0.146-0.266,0.261-0.328
				c0.113-0.057,0.337,0.109,0.455,0.058c0.123-0.058,0.038-0.522,0.161-0.579c0.114-0.052,0.365,0.161,0.484,0.104
				c0.118-0.062,0.17-0.237,0.294-0.294c0.113-0.057,0.351,0.118,0.465,0.066c0.123-0.062,0.175-0.247,0.289-0.304
				c0.118-0.057,0.118-0.342,0.232-0.398c0.118-0.062,0.275-0.048,0.389-0.104c0.114-0.062,0.309,0.028,0.422-0.028
				c0.114-0.062,0.309,0.02,0.423-0.038c0.113-0.057,0.189-0.208,0.304-0.266c0.113-0.066,0.194-0.199,0.308-0.256
				c0.114-0.062,0.232-0.123,0.347-0.185c0.113-0.063,0.09-0.395,0.204-0.456c0.113-0.062,0.455,0.299,0.564,0.237
				c0.113-0.062,0.199-0.194,0.313-0.251c0.114-0.062-0.047-0.224,0.066-0.285c-0.123,0-0.057-0.142-0.18-0.142
				c-0.124,0-0.247,0.075-0.375,0.08c-0.123,0.005-0.252-0.014-0.375-0.005c-0.123,0.005-0.228,0.275-0.355,0.285
				c-0.123,0.009-0.289-0.418-0.417-0.408c-0.124,0.019-0.247,0.095-0.37,0.114c-0.124,0.019-0.219,0.251-0.342,0.27
				c-0.123,0.02-0.289-0.208-0.413-0.185c-0.123,0.019-0.185,0.351-0.313,0.38c-0.123,0.023-0.256-0.029-0.38-0.01
				c-0.123,0.028-0.208,0.189-0.332,0.218c-0.123,0.033-0.228,0.114-0.341,0.143c-0.124,0.033-0.285-0.09-0.403-0.057
				c-0.119,0.038-0.256,0.019-0.375,0.057c-0.118,0.038-0.304-0.109-0.422-0.071c-0.119,0.043-0.128,0.385-0.247,0.427
				c-0.118,0.043-0.218,0.124-0.332,0.166c-0.113,0.048-0.251,0.038-0.369,0.086c-0.114,0.047-0.219,0.118-0.332,0.171
				c-0.114,0.057-0.332-0.114-0.446-0.058c-0.114,0.058-0.128,0.304-0.242,0.355c-0.113,0.063-0.198,0.176-0.313,0.237
				s-0.19,0.19-0.304,0.252c-0.114,0.066-0.285,0.019-0.394,0.08c-0.114,0.062-0.351-0.095-0.465-0.028
				c-0.114,0.062-0.024,0.46-0.138,0.526c-0.109,0.066-0.242,0.091-0.351,0.161c-0.109,0.066-0.204,0.157-0.313,0.229
				c-0.104,0.066-0.346-0.066-0.455,0.009c-0.104,0.066-0.166,0.219-0.271,0.285c-0.109,0.075-0.384-0.104-0.489-0.028
				c-0.104,0.075,0.048,0.512-0.057,0.588c-0.104,0.075-0.375-0.076-0.479,0c-0.104,0.075-0.081,0.322-0.185,0.398
				c-0.104,0.085-0.427-0.133-0.531-0.053c-0.104,0.081,0.066,0.498-0.038,0.579c-0.095,0.08-0.36-0.038-0.465,0.043
				c-0.095,0.085-0.208,0.156-0.313,0.236c-0.095,0.086-0.142,0.229-0.247,0.313c-0.095,0.081-0.28,0.071-0.37,0.151
				c-0.095,0.086-0.057,0.323-0.151,0.418c-0.095,0.085-0.199,0.166-0.294,0.256c-0.095,0.085-0.294,0.062-0.389,0.151
				c-0.095,0.086,0.057,0.418-0.033,0.513c-0.09,0.095-0.498-0.123-0.583-0.028c-0.09,0.09,0.085,0.427-0.009,0.521
				c-0.081,0.095-0.152,0.199-0.237,0.289c-0.081,0.095-0.19,0.166-0.271,0.261c-0.081,0.096-0.403,0-0.479,0.096
				c-0.076,0.1-0.047,0.284-0.119,0.389c-0.071,0.104-0.156,0.199-0.232,0.304c-0.076,0.104-0.076,0.256-0.151,0.36
				c-0.066,0.1-0.199,0.171-0.266,0.275c-0.062,0.104-0.066,0.251-0.128,0.36c-0.062,0.108-0.047,0.256-0.109,0.369
				c-0.057,0.114,0.009,0.285-0.043,0.398c-0.052,0.114-0.137,0.199-0.194,0.323c-0.047,0.113-0.18,0.189-0.218,0.308
				c-0.047,0.119-0.266,0.166-0.303,0.29c-0.038,0.123,0.218,0.341,0.18,0.455c-0.038,0.123-0.275,0.18-0.313,0.299
				c-0.029,0.118-0.019,0.251-0.047,0.375c-0.029,0.113,0.118,0.279,0.09,0.398c-0.033,0.118-0.403,0.156-0.432,0.274
				c-0.028,0.124-0.137,0.228-0.161,0.352c-0.028,0.113,0,0.256-0.028,0.37c-0.019,0.123-0.147,0.228-0.171,0.351
				c-0.019,0.123,0.208,0.289,0.19,0.412c-0.019,0.129-0.029,0.262-0.048,0.385c-0.014,0.123-0.166,0.237-0.18,0.36
				c-0.019,0.133-0.038,0.261-0.057,0.389c-0.014,0.128,0.047,0.266,0.028,0.389c-0.009,0.133,0.09,0.271,0.081,0.398
				c-0.014,0.129-0.223,0.237-0.237,0.365c-0.014,0.129,0.342,0.29,0.328,0.423c-0.014,0.128-0.057,0.251-0.076,0.379
				c-0.014,0.128-0.228,0.237-0.242,0.36C16.724,48.373,16.544,48.639,16.525,48.762z M36.882,38.014
				c-0.015-0.075-0.247-0.199-0.256-0.274c-0.124-0.02-0.181-0.091-0.304-0.114c-0.124-0.019-0.209-0.228-0.332-0.246
				c-0.123-0.029-0.237-0.086-0.36-0.114c-0.124-0.019-0.309,0.304-0.437,0.28c-0.123-0.02-0.228-0.138-0.352-0.157
				c-0.123-0.019-0.236-0.009-0.36-0.028c-0.123-0.01-0.246,0.095-0.37,0.095c-0.123-0.005-0.251-0.341-0.374-0.332
				c-0.128,0.01-0.271-0.071-0.394-0.062c-0.133,0.01-0.257,0.114-0.385,0.128c-0.128,0.015-0.271-0.047-0.398-0.038
				c-0.128,0.024-0.228,0.247-0.355,0.266c-0.123,0.02-0.284-0.118-0.412-0.095c-0.129,0.028-0.195,0.342-0.318,0.37
				c-0.128,0.028-0.313-0.209-0.437-0.176c-0.123,0.033-0.194,0.275-0.322,0.318c-0.123,0.033-0.294-0.086-0.417-0.048
				c-0.124,0.038-0.295-0.042-0.418,0c-0.123,0.048-0.133,0.38-0.256,0.427c-0.118,0.043-0.313-0.09-0.437-0.038
				c-0.113,0.048-0.228,0.133-0.342,0.186c-0.113,0.052-0.294-0.01-0.407,0.043c-0.114,0.057-0.028,0.517-0.143,0.578
				c-0.114,0.057-0.389-0.176-0.493-0.113c-0.114,0.066-0.052,0.436-0.161,0.498c-0.109,0.062-0.304-0.015-0.417,0.052
				c-0.104,0.071-0.323-0.019-0.427,0.052c-0.114,0.071-0.218,0.143-0.323,0.214c-0.104,0.076-0.081,0.332-0.185,0.408
				c-0.1,0.08-0.213,0.133-0.318,0.218c-0.104,0.081-0.18,0.181-0.28,0.266s-0.375-0.043-0.469,0.048
				c-0.1,0.085,0.076,0.479-0.015,0.56c-0.095,0.085-0.46-0.124-0.555-0.028c-0.095,0.085-0.104,0.266-0.19,0.351
				c-0.095,0.095,0,0.36-0.095,0.455c-0.085,0.09-0.446-0.071-0.531,0.02c-0.09,0.095,0.085,0.436,0.005,0.531
				c-0.085,0.095-0.365,0.019-0.451,0.113c-0.085,0.1-0.09,0.266-0.171,0.36c-0.085,0.1-0.194,0.176-0.275,0.28
				c-0.076,0.1,0.019,0.342-0.066,0.441c-0.076,0.095-0.379,0.019-0.455,0.113c-0.081,0.104,0.066,0.375-0.01,0.475
				c-0.081,0.095-0.446-0.038-0.526,0.066c-0.081,0.095-0.085,0.246-0.166,0.351c-0.076,0.095-0.228,0.133-0.304,0.237
				c-0.081,0.095-0.152,0.194-0.232,0.294s-0.251,0.114-0.332,0.214s0.176,0.474,0.1,0.569c-0.081,0.09-0.441-0.043-0.521,0.052
				c-0.076,0.095-0.166,0.185-0.247,0.284c-0.076,0.095-0.128,0.219-0.209,0.313c-0.085,0.09-0.038,0.294-0.123,0.394
				c-0.085,0.09-0.351,0.023-0.437,0.118c-0.081,0.096,0.176,0.484,0.09,0.579c-0.081,0.095-0.389-0.01-0.475,0.085
				c-0.081,0.096-0.071,0.275-0.152,0.37c-0.085,0.095-0.365,0.005-0.45,0.1c-0.085,0.091-0.066,0.275-0.152,0.37
				s0.009,0.351-0.076,0.446c-0.085,0.09-0.232,0.123-0.322,0.213c-0.085,0.086-0.294,0.062-0.389,0.152
				c-0.085,0.09-0.289,0.066-0.379,0.151c-0.085,0.095-0.114,0.247-0.208,0.332c-0.095,0.09-0.133,0.237-0.237,0.317
				c-0.104,0.086-0.199,0.166-0.304,0.242c-0.104,0.081-0.038,0.408-0.142,0.483c-0.114,0.071-0.484-0.251-0.598-0.18
				c-0.104,0.076-0.171,0.209-0.285,0.275c-0.114,0.07-0.038,0.445-0.142,0.512c-0.114,0.071-0.389-0.123-0.493-0.052
				c-0.114,0.071-0.19,0.199-0.299,0.271c-0.114,0.066-0.232,0.113-0.342,0.185c-0.109,0.071-0.071,0.355-0.175,0.432
				c0.009,0,0.166,0.076,0.389,0.033c0.128-0.019,0.242-0.114,0.365-0.138c0.124-0.023,0.204-0.266,0.332-0.294
				c0.124-0.028,0.309,0.185,0.432,0.151c0.124-0.028,0.166-0.379,0.29-0.412c0.123-0.033,0.271,0.005,0.394-0.028
				c0.124-0.043,0.194-0.209,0.313-0.247c0.124-0.043,0.218-0.128,0.337-0.176c0.119-0.042,0.289,0.063,0.413,0.02
				c0.119-0.053,0.256-0.048,0.375-0.095c0.119-0.053,0.318,0.071,0.432,0.023c0.114-0.052,0.095-0.394,0.209-0.45
				c0.114-0.058,0.208-0.152,0.322-0.209s0.247-0.057,0.36-0.123c0.114-0.066,0.209-0.143,0.323-0.209
				c0.104-0.066,0.341,0.081,0.446,0.01c0.109-0.066,0.104-0.313,0.208-0.385c0.109-0.071,0.171-0.194,0.285-0.261
				c0.104-0.076,0.162-0.204,0.266-0.279c0.104-0.071,0.275-0.043,0.379-0.124c0.104-0.071,0.361,0.053,0.46-0.028
				c0.1-0.08-0.038-0.455,0.062-0.536c0.095-0.075,0.218-0.123,0.322-0.208c0.095-0.086,0.171-0.181,0.266-0.266
				c0.095-0.086,0.351,0.014,0.446-0.076c0.095-0.085,0.124-0.237,0.218-0.322c0.095-0.086,0.398,0.047,0.489-0.043
				c0.09-0.09-0.138-0.493-0.043-0.588c0.09-0.091,0.379,0.014,0.475-0.071c0.085-0.095,0.019-0.332,0.114-0.422
				c0.085-0.096,0.446,0.062,0.526-0.033c0.085-0.091-0.142-0.475-0.062-0.569c0.085-0.095,0.37-0.01,0.455-0.104
				c0.081-0.095,0.185-0.176,0.271-0.266c0.081-0.095,0.119-0.237,0.204-0.332c0.085-0.095,0.266-0.104,0.351-0.194
				c0.085-0.095,0.024-0.322,0.114-0.422c0.085-0.096,0.18-0.181,0.266-0.275c0.085-0.095,0.284-0.086,0.375-0.181
				c0.085-0.095-0.081-0.417,0.005-0.507c0.085-0.095,0.502,0.1,0.588,0.009c0.081-0.095-0.095-0.427-0.009-0.517
				c0.081-0.095,0.152-0.209,0.237-0.304c0.085-0.09,0.199-0.161,0.285-0.256s0.398,0.019,0.484-0.076s0.066-0.284,0.152-0.379
				c0.081-0.096,0.175-0.186,0.256-0.28c0.076-0.08,0.095-0.228,0.161-0.327c0.066-0.095,0.199-0.147,0.266-0.247
				c0.062-0.1,0.071-0.236,0.143-0.327c0.071-0.09,0.095-0.241,0.176-0.317c0.09-0.086,0.146-0.294,0.246-0.342
				c0.114-0.057,0.252-0.071,0.365-0.123c0.114-0.053,0.266-0.023,0.38-0.071c0.113-0.052,0.304,0.062,0.417,0.015
				c0.114-0.048,0.104-0.39,0.219-0.441c0.113-0.052,0.317,0.1,0.432,0.052c0.113-0.052,0.213-0.146,0.327-0.189
				c0.113-0.047,0.161-0.266,0.274-0.317c0.114-0.053,0.37,0.232,0.484,0.185c0.113-0.047,0.256-0.019,0.379-0.066
				c0.114-0.047,0.209-0.138,0.332-0.189c0.114-0.043,0.271,0.01,0.385-0.038c0.113-0.043,0.138-0.322,0.256-0.375
				c0.118-0.042,0.232-0.095,0.351-0.138c0.119-0.047,0.28,0.033,0.403-0.009c0.114-0.048,0.237-0.086,0.352-0.133
				c0.118-0.043,0.208-0.157,0.322-0.199c0.133-0.048,0.228-0.209,0.36-0.247c0.133-0.043,0.313,0.114,0.446,0.086
				c0.137-0.029,0.199-0.418,0.332-0.446c0.133-0.033,0.274-0.023,0.412-0.052C36.427,37.72,36.744,38.052,36.882,38.014z
				 M3.178,34.532c0.019,0.129,0.247,0.437,0.266,0.569c0.023,0.128-0.029,0.266-0.01,0.39c0.028,0.133-0.123,0.298-0.095,0.422
				c0.028,0.128,0.023,0.266,0.057,0.394c0.038,0.123,0.408,0.143,0.451,0.266c0.043,0.123-0.014,0.275,0.033,0.398
				c0.038,0.123,0.1,0.232,0.152,0.355c0.047,0.119,0.199,0.189,0.256,0.309c0.057,0.118-0.204,0.379-0.143,0.493
				c0.057,0.113,0.038,0.275,0.104,0.389c0.062,0.114,0.208,0.189,0.275,0.299c0.066,0.114,0.066,0.271,0.133,0.385
				c0.066,0.104,0.313,0.104,0.389,0.208c0.071,0.109,0.009,0.313,0.085,0.418c0.076,0.104,0.389,0.028,0.474,0.128
				c0.076,0.104-0.062,0.374,0.019,0.479c0.085,0.1,0.341,0.058,0.422,0.152c0.085,0.104,0.052,0.308,0.138,0.403
				c0.085,0.095,0.081,0.279,0.171,0.374c0.085,0.095,0.398-0.028,0.493,0.066c0.09,0.086,0.047,0.323,0.142,0.418
				c0.09,0.085,0.209,0.151,0.304,0.236c0.095,0.096,0.104,0.28,0.199,0.361c0.095,0.085,0.488-0.162,0.583-0.076
				c0.1,0.085-0.024,0.417,0.081,0.503c0.095,0.085,0.417-0.104,0.517-0.02c0.1,0.086,0.09,0.299,0.194,0.38
				c0.095,0.08,0.085,0.313,0.18,0.394c0.1,0.081,0.199,0.156,0.304,0.237c0.1,0.08,0.336-0.01,0.436,0.071
				c0.095,0.075,0.18,0.175,0.28,0.261c0.1,0.08,0.218,0.138,0.318,0.223s0.014,0.37,0.109,0.455
				c0.09,0.086,0.469-0.133,0.564-0.047c0.095,0.085-0.09,0.465,0,0.55c0.085,0.09,0.266,0.095,0.351,0.186
				c0.085,0.09,0.365,0.014,0.451,0.108c0.081,0.095-0.109,0.427-0.023,0.531c0.085,0.095,0.446-0.028,0.521,0.071
				c0.081,0.104-0.057,0.36,0.014,0.465c0.076,0.104,0.228,0.156,0.299,0.261c0.066,0.109,0.104,0.237,0.162,0.352
				c0.062,0.113,0.322,0.133,0.379,0.246c0.052,0.114-0.157,0.352-0.104,0.465c0.047,0.123,0.36,0.143,0.398,0.266
				c0.038,0.118-0.275,0.355-0.237,0.479c0.038,0.123,0.152,0.218,0.18,0.341c0.029,0.124-0.038,0.261-0.019,0.394
				c0.019,0.124,0.048,0.237,0.062,0.37s-0.062,0.323-0.033,0.427c0.052,0.124,0.474-0.014,0.56,0.058
				c0.085,0.075,0.057,0.436,0.18,0.445c0.109,0.015,0.285,0.01,0.408-0.019c0.114-0.028,0.237-0.114,0.351-0.166
				c0.138-0.062,0.19-0.271,0.29-0.347c0.119-0.085,0.408-0.005,0.488-0.1c0.095-0.1-0.208-0.465-0.152-0.583
				c0.057-0.123,0.38-0.138,0.408-0.271c0.028-0.128-0.09-0.28-0.085-0.422c0.005-0.133,0.266-0.285,0.261-0.418
				c-0.009-0.133-0.161-0.266-0.175-0.398c-0.019-0.128-0.285-0.218-0.304-0.346c-0.023-0.128,0.038-0.271,0.01-0.394
				c-0.029-0.133,0.104-0.299,0.071-0.423c-0.033-0.128,0.081-0.313,0.038-0.432c-0.042-0.123-0.175-0.223-0.228-0.341
				c-0.052-0.123-0.185-0.209-0.237-0.322c-0.052-0.124-0.119-0.237-0.185-0.352c-0.062-0.113-0.389-0.066-0.455-0.176
				c-0.071-0.108,0.247-0.488,0.17-0.593c-0.076-0.1-0.223-0.166-0.303-0.266c-0.085-0.104-0.446,0.038-0.526-0.057
				c-0.09-0.095,0.038-0.398-0.052-0.493c-0.095-0.085-0.242-0.123-0.342-0.209c-0.095-0.085-0.189-0.189-0.285-0.266
				c-0.104-0.085-0.36,0.053-0.464-0.023c-0.104-0.071,0.033-0.513-0.076-0.583c-0.109-0.066-0.261-0.086-0.375-0.147
				c-0.109-0.062-0.332,0.062-0.446-0.005c-0.114-0.057-0.119-0.342-0.237-0.398c-0.114-0.062-0.375,0.176-0.489,0.123
				c-0.114-0.052-0.194-0.18-0.308-0.228c-0.114-0.052-0.289,0.02-0.394-0.038c-0.114-0.057-0.247-0.057-0.36-0.113
				c-0.114-0.057-0.157-0.251-0.271-0.313c-0.114-0.057-0.194-0.161-0.308-0.218c-0.104-0.057-0.124-0.284-0.237-0.342
				c-0.104-0.062-0.37,0.157-0.479,0.095c-0.109-0.057-0.237-0.085-0.346-0.151c-0.104-0.066-0.18-0.181-0.294-0.247
				c-0.1-0.066-0.228-0.113-0.327-0.18c-0.104-0.066-0.076-0.332-0.175-0.403c-0.104-0.071-0.332,0.033-0.427-0.043
				c-0.104-0.071-0.247-0.104-0.351-0.18c-0.104-0.081-0.256-0.104-0.351-0.189c-0.104-0.086-0.114-0.266-0.208-0.352
				c-0.095-0.085-0.01-0.36-0.1-0.445c-0.09-0.096-0.456,0.08-0.541-0.015c-0.09-0.09-0.142-0.223-0.228-0.317
				C5.493,38.64,5.379,38.56,5.303,38.46c-0.081-0.1,0.024-0.352-0.047-0.451c-0.085-0.1-0.228-0.151-0.304-0.256
				c-0.071-0.104,0.104-0.384,0.033-0.488c-0.071-0.1-0.517,0.043-0.583-0.066s0.1-0.365,0.033-0.475
				c-0.071-0.108-0.309-0.108-0.375-0.223c-0.066-0.109,0.19-0.403,0.128-0.517c-0.062-0.104-0.498-0.01-0.56-0.124
				c-0.062-0.113,0.109-0.351,0.052-0.465c-0.062-0.113-0.1-0.228-0.161-0.341C3.462,34.94,3.24,34.646,3.178,34.532z"/>
		</g>
	</g>
	<g>
		<path fill="#E5BF61" d="M43.75,6.169c-0.119,0.071-0.252,0.152-0.365,0.199c-0.124,0.057-0.252,0.095-0.375,0.133
			s-0.219,0.237-0.342,0.266c-0.133,0.019-0.304-0.322-0.432-0.308c-0.128,0.009-0.241,0.1-0.374,0.09
			c-0.124,0-0.229-0.114-0.361-0.133c-0.123-0.023-0.308,0.256-0.436,0.228c-0.124-0.029-0.19-0.294-0.318-0.332
			c-0.123-0.038-0.251-0.047-0.375-0.085c-0.123-0.038-0.327,0.156-0.45,0.119c-0.128-0.043-0.271-0.014-0.394-0.052
			S39.263,6.008,39.14,5.97c0.095-0.076,0.228-0.28,0.337-0.341c0.104-0.066,0.299,0.019,0.412-0.019
			c0.114-0.047,0.266,0.057,0.385,0.019c0.118-0.033,0.156-0.413,0.279-0.432c0.123-0.024,0.289,0.327,0.413,0.318
			c0.123-0.01,0.232-0.218,0.355-0.218s0.275-0.218,0.398-0.204c0.123,0.01,0.256,0.071,0.379,0.09
			c0.124,0.028,0.209,0.242,0.332,0.27c0.114,0.033,0.161,0.271,0.275,0.318c0.118,0.043,0.313-0.1,0.417-0.047
			c0.114,0.062,0.176,0.194,0.275,0.266C43.493,6.05,43.664,6.083,43.75,6.169z"/>
	</g>
	<g>
		<path fill="#E5BF61" d="M42.729,23.215c-0.118,0.066-0.251,0.147-0.365,0.194c-0.123,0.052-0.251,0.095-0.369,0.138
			c-0.133,0.038-0.224,0.237-0.347,0.256c-0.128,0.028-0.304-0.313-0.432-0.304c-0.128,0.009-0.242,0.1-0.37,0.095
			c-0.133-0.009-0.232-0.119-0.36-0.142c-0.133-0.019-0.313,0.266-0.441,0.237c-0.123-0.028-0.189-0.298-0.317-0.341
			c-0.123-0.028-0.251-0.042-0.375-0.081c-0.128-0.042-0.327,0.156-0.45,0.119c-0.123-0.038-0.266-0.01-0.389-0.047
			c-0.124-0.043-0.271-0.29-0.394-0.323c0.095-0.081,0.228-0.285,0.336-0.351c0.104-0.062,0.294,0.029,0.408-0.019
			c0.114-0.047,0.271,0.062,0.389,0.029c0.119-0.038,0.161-0.417,0.285-0.437c0.113-0.019,0.284,0.327,0.407,0.313
			c0.124-0.009,0.232-0.213,0.356-0.213c0.123,0,0.27-0.218,0.394-0.204c0.123,0.01,0.266,0.066,0.384,0.095
			c0.123,0.023,0.214,0.237,0.327,0.266c0.124,0.038,0.166,0.275,0.28,0.317c0.118,0.043,0.313-0.1,0.422-0.042
			c0.104,0.057,0.171,0.19,0.271,0.261C42.474,23.102,42.64,23.13,42.729,23.215z"/>
	</g>
	<g>
		<path fill="#E5BF61" d="M32.907,11.349c-0.133,0-0.337-0.157-0.475-0.162c-0.123,0-0.256-0.019-0.389-0.019
			c-0.128,0-0.261,0.242-0.389,0.237c-0.128,0-0.257-0.009-0.39-0.009s-0.261-0.019-0.394-0.019c-0.128,0-0.261,0.166-0.394,0.166
			s-0.256-0.36-0.394-0.36c-0.128,0-0.261,0.09-0.394,0.09s-0.408-0.038-0.546-0.038c0.033,0.124,0.328,0.309,0.375,0.413
			c0.057,0.114-0.085,0.346-0.01,0.431c0.081,0.095,0.219,0.166,0.323,0.218c0.1,0.062,0.294-0.133,0.407-0.114
			c0.114,0.028,0.199-0.042,0.323-0.042c0.113,0,0.218,0.137,0.341,0.119c0.114-0.015,0.214-0.057,0.342-0.085
			c0.104-0.033,0.266,0.095,0.38,0.057c0.113-0.038,0.279,0.066,0.394,0.019c0.108-0.038,0.08-0.427,0.194-0.474
			c0.104-0.047,0.417,0.189,0.531,0.142C32.821,11.78,32.831,11.481,32.907,11.349z"/>
	</g>
	<g>
		<path fill="#E5BF61" d="M38.741,21.707c-0.124,0-0.332-0.161-0.465-0.166c-0.133,0-0.261-0.019-0.394-0.019
			c-0.128,0-0.261,0.242-0.394,0.237c-0.124,0-0.257-0.014-0.39-0.014c-0.128,0-0.256-0.01-0.389-0.01s-0.266,0.162-0.398,0.162
			c-0.123,0-0.256-0.361-0.389-0.361c-0.128,0-0.266,0.085-0.398,0.085c-0.123,0-0.403-0.028-0.541-0.028
			c0.028,0.124,0.322,0.304,0.375,0.408c0.052,0.114-0.081,0.347-0.01,0.427c0.081,0.095,0.219,0.17,0.322,0.228
			c0.1,0.057,0.29-0.143,0.413-0.114c0.104,0.023,0.189-0.047,0.317-0.047c0.114,0,0.219,0.133,0.342,0.118
			c0.114-0.014,0.214-0.062,0.337-0.09c0.109-0.028,0.266,0.104,0.389,0.062c0.104-0.033,0.275,0.062,0.389,0.019
			c0.109-0.038,0.076-0.422,0.19-0.474c0.113-0.043,0.422,0.194,0.535,0.142C38.66,22.134,38.675,21.831,38.741,21.707z"/>
	</g>
	<g>
		<path fill="#E5BF61" d="M26.533,13.933c0.123-0.042,0.341-0.185,0.465-0.228c0.132-0.042,0.37,0.237,0.493,0.194
			c0.128-0.047,0.175-0.313,0.303-0.351c0.133-0.043,0.247-0.152,0.38-0.18c0.123-0.029,0.313,0.17,0.445,0.151
			c0.095-0.014,0.071,0.104,0.181,0.181c0.085,0.057,0.143,0.128,0.232,0.199c0.09,0.076,0.342-0.009,0.427,0.048
			c-0.085,0.1-0.181,0.247-0.261,0.365c-0.104,0.147-0.228,0.261-0.342,0.27c-0.113,0.01-0.228,0.18-0.351,0.185
			c-0.114,0.005-0.237-0.355-0.36-0.355c-0.114,0-0.237,0.085-0.352,0.085c-0.123-0.009-0.237-0.109-0.355-0.114
			c-0.119-0.009-0.251,0.304-0.37,0.294c-0.119-0.005-0.133-0.199-0.251-0.209C26.808,14.298,26.542,14.118,26.533,13.933z"/>
	</g>
	<g>
		<path fill="#E5BF61" d="M19.693,21.584c0.043-0.128,0.147-0.304,0.209-0.403c0.076-0.119,0.332-0.052,0.417-0.147
			c0.095-0.095-0.043-0.456,0.062-0.522c0.109-0.066,0.237-0.161,0.355-0.218c0.119-0.057,0.365,0.223,0.484,0.181
			c0.124-0.043,0.171-0.309,0.294-0.342c0.128-0.038,0.228-0.142,0.355-0.18c0.047-0.014,0.119,0.304,0.213,0.441
			c0.076,0.104,0.038,0.109,0.104,0.185c-0.114,0.057-0.152,0.01-0.247,0.081C21.837,20.73,21.884,21,21.79,21.081
			c-0.095,0.076-0.199,0.147-0.294,0.218c-0.104,0.076-0.209,0.133-0.313,0.189c-0.104,0.062-0.171,0.275-0.285,0.309
			s-0.294-0.29-0.417-0.29c-0.114,0.01-0.208,0.095-0.337,0.062C20.035,21.555,19.816,21.641,19.693,21.584z"/>
	</g>
	<g>
		<path fill="#E5BF61" d="M36.829,7.511c0.104-0.076,0.28-0.166,0.38-0.213c0.114-0.057,0.304,0.128,0.417,0.095
			c0.119-0.038,0.152-0.422,0.271-0.436c0.119-0.014,0.266-0.038,0.389-0.033c0.114,0.004,0.209,0.355,0.323,0.375
			c0.123,0.019,0.284-0.189,0.403-0.161c0.113,0.033,0.256,0,0.369,0.038c0.114,0.033,0.157,0.303,0.271,0.336
			c0.114,0.038,0.199,0.176,0.313,0.213c0.066,0.019-0.076,0.019-0.076,0.228c0,0.147,0.237,0.332,0.247,0.455
			c-0.133-0.019-0.285-0.019-0.413-0.019s-0.256-0.009-0.394,0c-0.123,0.01-0.247,0.185-0.38,0.19
			c-0.128,0.004-0.266-0.346-0.394-0.351c-0.128,0-0.251,0.085-0.374,0.057c-0.133-0.019-0.199-0.133-0.323-0.185
			c-0.118-0.043-0.369,0.166-0.483,0.09c-0.104-0.071-0.038-0.336-0.123-0.441C37.166,7.668,36.9,7.63,36.829,7.511z"/>
	</g>
	<g>
		<path fill="#E5BF61" d="M36.815,5.106c-0.076,0.1-0.237,0.162-0.313,0.266c-0.075,0.095-0.274,0.104-0.351,0.204
			s0.218,0.474,0.138,0.574c-0.081,0.1-0.256,0.124-0.327,0.223c-0.076,0.1-0.19,0.175-0.266,0.271
			C35.62,6.743,35.35,6.7,35.278,6.8c-0.075,0.1,0.058,0.479-0.019,0.583c-0.076-0.057-0.313-0.114-0.385-0.171
			c-0.08-0.057,0.109-0.275,0.029-0.332c0.07-0.104-0.081-0.237-0.02-0.341s0.081-0.247,0.147-0.351
			c0.071-0.104,0.337-0.076,0.407-0.18c0.066-0.104,0.229-0.152,0.295-0.256c0.07-0.1,0.151-0.194,0.218-0.299
			c0.066-0.104-0.066-0.341,0.01-0.446c0.066-0.104,0.151-0.213,0.228-0.317c0.095,0.066,0.204,0.142,0.304,0.218
			C36.593,4.974,36.716,5.04,36.815,5.106z"/>
	</g>
	<g>
		<path fill="#E5BF61" d="M25.56,14.507c0.043-0.124,0.081-0.446,0.114-0.555c0.038-0.123,0.071-0.237,0.104-0.346
			c0.038-0.123,0.019-0.256,0.052-0.365c0.038-0.128,0.237-0.185,0.285-0.289c0.047-0.114,0.189-0.166,0.256-0.266
			c0.066-0.104,0.199,0.038,0.375,0.005c0.147-0.033,0.394-0.46,0.526-0.498c0.014,0.137,0.028,0.465,0.066,0.616
			c0.038,0.19,0,0.417-0.076,0.494c-0.081,0.09-0.327-0.019-0.431,0.062c-0.095,0.071,0.009,0.441-0.1,0.517
			c-0.1,0.062-0.199,0.142-0.313,0.208c-0.104,0.057-0.384-0.171-0.498-0.095C25.812,14.066,25.669,14.436,25.56,14.507z"/>
	</g>
	<g>
		<path fill="#E5BF61" d="M23.469,16.879c0.014,0.123,0.161,0.237,0.175,0.351c0.014,0.124,0.076,0.266,0.071,0.38
			c-0.005,0.118-0.029,0.294-0.066,0.403c-0.033,0.109-0.19,0.223-0.271,0.323c-0.071,0.081-0.185,0.185-0.29,0.256
			c-0.095,0.057-0.199,0.176-0.322,0.223c-0.095,0.038-0.299-0.076-0.422-0.043c0.043-0.114,0.176-0.218,0.214-0.327
			c0.038-0.114,0.228-0.171,0.265-0.275c0.038-0.114-0.346-0.384-0.303-0.484c0.038-0.114,0.199-0.18,0.237-0.29
			c0.042-0.114,0.132-0.204,0.166-0.313c0.043-0.109,0.195-0.019,0.237-0.128C23.279,17.002,23.345,16.841,23.469,16.879z"/>
	</g>
	<g>
		<path fill="#E5BF61" d="M34.349,5.424c-0.019,0.133,0.124,0.337,0.095,0.46c-0.033,0.133-0.474,0.128-0.521,0.247
			c-0.047,0.123,0.186,0.36,0.123,0.474c-0.062,0.119-0.194,0.189-0.265,0.294c-0.076,0.114-0.262,0.124-0.352,0.218
			c-0.085,0.095-0.156,0.19-0.251,0.28c-0.091,0.09-0.166,0.194-0.266,0.28c-0.104,0.081-0.157,0.228-0.261,0.299
			c-0.104,0.071-0.181,0.194-0.29,0.271c-0.108,0.071-0.223,0.133-0.337,0.199c-0.108,0.066-0.251,0.085-0.36,0.161
			c-0.108,0.066-0.161,0-0.274,0.071c0-0.124-0.181-0.128-0.161-0.251c0.019-0.119,0.142-0.232,0.17-0.356
			c0.038-0.118,0.015-0.27,0.063-0.384c0.052-0.114,0.156-0.199,0.223-0.309c0.057-0.109,0.085-0.251,0.151-0.355
			c0.071-0.1,0.389-0.01,0.465-0.104c0.081-0.095-0.095-0.417,0-0.503c0.086-0.095,0.123-0.261,0.219-0.341
			c0.09-0.076,0.299-0.038,0.402-0.104c0.104-0.076,0.229-0.114,0.337-0.175c0.109-0.062,0.19-0.194,0.304-0.242
			c0.114-0.047,0.332,0.19,0.446,0.157C34.131,5.676,34.235,5.438,34.349,5.424z"/>
	</g>
	<g>
		<path fill="#E5BF61" d="M26.979,10.993c0.066-0.1,0.019-0.289,0.085-0.384c0.066-0.1,0.408-0.009,0.475-0.109
			s-0.128-0.375-0.066-0.47c0.066-0.1,0.299-0.09,0.36-0.189c0.066-0.095-0.028-0.304,0.043-0.408
			c0.062-0.095,0.44,0.014,0.507-0.09c0.066-0.1,0.133-0.199,0.199-0.299c0.066-0.095,0.076-0.232,0.143-0.332
			c0.066-0.104,0.133-0.199,0.199-0.304c0.066-0.1,0.038-0.526,0.104-0.631c0.038,0.128-0.133,0.498-0.114,0.612
			c0.02,0.124,0.01,0.237,0.015,0.351c0.005,0.124,0.033,0.218,0.023,0.341c-0.009,0.124-0.052,0.209-0.075,0.332
			c-0.029,0.114,0.199,0.323,0.151,0.432c-0.048,0.109-0.171,0.204-0.237,0.304s-0.189,0.157-0.275,0.251
			c-0.08,0.085-0.236,0.095-0.332,0.171c-0.09,0.076-0.123,0.237-0.223,0.303s-0.156,0.218-0.27,0.275
			c-0.104,0.057-0.256-0.124-0.37-0.071C27.211,11.007,27.083,11.068,26.979,10.993z"/>
	</g>
	<g>
		<path fill="#E5BF61" d="M23.241,15.171c0.014-0.133-0.019-0.28-0.009-0.413c0.009-0.133-0.124-0.28-0.114-0.413
			c0.009-0.133,0.133-0.261,0.147-0.394s-0.1-0.289-0.081-0.427c0.019-0.133,0.152-0.256,0.189-0.384
			c0.024-0.095,0.294-0.009,0.408-0.081c0.081-0.052,0.066-0.299,0.17-0.351c0.104-0.052,0.313-0.237,0.398-0.289
			c0.057,0.114,0.01,0.465,0.081,0.593c0.095,0.147,0.176,0.237,0.147,0.346c-0.038,0.114,0.1,0.294,0.057,0.398
			c-0.047,0.109-0.346,0.114-0.398,0.228c-0.042,0.109,0.057,0.285,0.01,0.389c-0.052,0.114-0.332,0.114-0.384,0.218
			c-0.052,0.114,0.313,0.413,0.261,0.521c-0.047,0.109-0.332,0.057-0.375,0.161C23.583,15.214,23.412,15.228,23.241,15.171z"/>
	</g>
	<g>
		<path fill="#E5BF61" d="M36.768,9.318c-0.113,0-0.104-0.09-0.218-0.1c-0.123-0.005-0.261,0.242-0.38,0.232
			c-0.118-0.009-0.246,0.076-0.365,0.066c-0.118,0-0.218-0.365-0.341-0.37c-0.119-0.004-0.237-0.042-0.36-0.047
			c-0.119-0.009-0.262,0.304-0.385,0.294c-0.113-0.005-0.237-0.005-0.36-0.015c-0.114-0.004-0.228-0.213-0.351-0.223
			c-0.114-0.005-0.242-0.024-0.365-0.028c-0.124-0.005-0.29,0.038-0.403,0.028c0.095-0.085,0.313-0.057,0.408-0.128
			c0.1-0.081,0.028-0.413,0.133-0.47c0.113-0.057,0.236-0.171,0.351-0.208c0.113-0.038,0.294,0.095,0.417,0.081
			c0.119-0.014,0.237,0.166,0.36,0.175c0.119,0,0.266-0.194,0.39-0.166c0.113,0.024,0.189,0.194,0.308,0.237
			c0.109,0.042,0.262-0.01,0.385,0.042c0.104,0.052,0.18,0.171,0.289,0.237c0.1,0.057,0.147,0.208,0.251,0.285
			C36.63,9.309,36.663,9.243,36.768,9.318z"/>
	</g>
	<g>
		<path fill="#E5BF61" d="M40.951,4.5c0.052-0.114,0.114-0.389,0.171-0.503c0.057-0.114,0.475-0.033,0.536-0.142
			c0.062-0.114-0.043-0.327,0.028-0.427c0.076-0.104,0.346-0.043,0.432-0.138c0.085-0.09,0.014-0.318,0.113-0.403
			c0.096-0.085,0.257-0.057,0.365-0.123c0.109-0.062,0.109-0.351,0.232-0.394c0.114-0.043,0.332-0.128,0.465-0.157
			c0.119,0.119,0.347,0.365,0.465,0.484c-0.085,0.09-0.332,0.208-0.417,0.294c-0.081,0.085-0.02,0.323-0.104,0.413
			c-0.081,0.09-0.437-0.081-0.521,0.005c-0.086,0.09,0.019,0.36-0.066,0.451c-0.086,0.09-0.247,0.104-0.332,0.194
			c-0.086,0.085-0.342,0.014-0.427,0.104c-0.086,0.085-0.058,0.284-0.152,0.37c-0.08,0.09-0.08,0.029-0.171,0.119
			C41.439,4.514,41.084,4.632,40.951,4.5z"/>
	</g>
	<g>
		<path fill="#E5BF61" d="M42.583,24.021c0.1-0.085,0.246-0.313,0.346-0.403c0.1-0.09,0.456,0.133,0.56,0.052
			c0.1-0.076,0.091-0.323,0.204-0.389c0.114-0.066,0.332,0.104,0.456,0.057c0.113-0.052,0.156-0.29,0.284-0.313
			c0.123-0.029,0.251,0.076,0.389,0.066c0.133,0,0.322-0.228,0.465-0.209c0.062,0.143,0.219,0.408,0.28,0.55
			c-0.114,0.052-0.323,0.208-0.437,0.266c-0.114,0.052-0.299-0.038-0.413,0.014c-0.113,0.052-0.133,0.299-0.256,0.356
			c-0.118,0.057-0.384-0.232-0.498-0.181c-0.113,0.057-0.118,0.351-0.232,0.403c-0.113,0.052-0.275,0.01-0.389,0.062
			c-0.114,0.057-0.133-0.095-0.247-0.042C43.02,24.154,42.649,24.178,42.583,24.021z"/>
	</g>
	<g>
		<path fill="#E5BF61" d="M47.459,4.177c-0.086,0.114-0.428,0.047-0.518,0.128c-0.1,0.09-0.023,0.403-0.138,0.455
			c-0.113,0.052-0.303-0.156-0.427-0.137c-0.123,0.019-0.223,0.147-0.351,0.142c-0.123-0.005-0.256,0.057-0.389,0.038
			c-0.124-0.019-0.209-0.237-0.332-0.266c-0.124-0.024-0.266,0.014-0.39-0.01c-0.123-0.023-0.398,0.057-0.521,0.033
			c0.123-0.042,0.394-0.038,0.517-0.081c0.124-0.047,0.28-0.019,0.403-0.062c0.124-0.043,0.138-0.394,0.261-0.441
			c0.124-0.043,0.385,0.294,0.508,0.247c0.123-0.043,0.219-0.18,0.342-0.228c0.123-0.042,0.143-0.403,0.266-0.446
			c0.123-0.047,0.289,0.166,0.417,0.124C47.179,3.854,47.396,3.997,47.459,4.177z"/>
	</g>
	<g>
		<path fill="#E5BF61" d="M39.148,4.148c-0.075,0.095,0.029,0.261-0.047,0.36C39.025,4.604,39.016,4.76,38.94,4.86
			c-0.076,0.095-0.124,0.223-0.199,0.323c-0.071,0.095-0.522-0.076-0.598,0.023c-0.076,0.1,0.208,0.47,0.133,0.569
			c-0.071,0.1-0.418,0-0.493,0.1c-0.076,0.104-0.109,0.114-0.181,0.218c-0.08-0.057-0.204,0.18-0.284,0.123
			c-0.076-0.052,0.095-0.247,0.019-0.303c0.066-0.104,0.123-0.1,0.194-0.204c0.071-0.1-0.185-0.422-0.118-0.526
			c0.066-0.1,0.417-0.019,0.483-0.124c0.071-0.104-0.066-0.341,0.005-0.441c0.071-0.104,0.053-0.271,0.119-0.375
			c0.07-0.104,0.417-0.019,0.483-0.124c0.071-0.104,0.028-0.36,0.104-0.465c0.095,0.066,0.208,0.228,0.308,0.294
			C39.025,4.006,39.049,4.082,39.148,4.148z"/>
	</g>
	<g>
		<path fill="#E5BF61" d="M38.077,20.332c-0.1,0.09-0.275,0.124-0.38,0.213c-0.095,0.09-0.299,0.057-0.403,0.147
			c-0.1,0.085,0.091,0.517-0.004,0.607c-0.1,0.085-0.337,0.095-0.437,0.18c-0.119-0.052-0.294-0.19-0.418-0.237
			c0.095-0.095,0.37-0.042,0.465-0.133c0.095-0.085-0.071-0.446,0.02-0.531c0.095-0.09,0.175-0.194,0.271-0.285
			c0.095-0.085,0.332,0.109,0.422,0.019C37.759,20.37,37.925,20.27,38.077,20.332z"/>
	</g>
	<g>
		<path fill="#E5BF61" d="M22.501,16.291c-0.095-0.085-0.138-0.218-0.218-0.289c-0.104-0.085-0.299-0.043-0.384-0.114
			c-0.1-0.085-0.194-0.157-0.28-0.232c-0.104-0.085-0.218-0.152-0.294-0.228c-0.085-0.09-0.076-0.266-0.138-0.37
			c-0.071-0.104-0.052-0.271-0.014-0.446c0.033-0.143,0.161-0.19,0.176-0.328c0.137,0.038,0.261-0.199,0.413-0.175
			c0.189,0.038,0.531,0.152,0.579,0.247c0.047,0.114-0.242,0.351-0.209,0.474c0.029,0.114,0.114,0.218,0.133,0.351
			c0.019,0.114,0.152,0.218,0.162,0.351c0.019,0.114,0,0.247,0.023,0.379C22.463,16.039,22.477,16.163,22.501,16.291z"/>
	</g>
	<g>
		<path fill="#E5BF61" d="M18.668,19.459c0.076,0.119-0.1,0.493,0,0.617c0.119,0.151,0.564,0.18,0.541,0.303
			c-0.019,0.095-0.085,0.323-0.176,0.408c-0.071,0.076-0.422-0.143-0.507-0.076c-0.09,0.076-0.1,0.365-0.175,0.437
			c-0.071-0.095-0.124-0.299-0.204-0.394c-0.076-0.095-0.299-0.09-0.37-0.185c-0.066-0.104,0.057-0.313,0.028-0.437
			c-0.019-0.09-0.104-0.204-0.066-0.313c0.029-0.095,0.181-0.152,0.223-0.247c0.042-0.1,0.024-0.256,0.062-0.351
			c0.085,0.047,0.247,0.024,0.342,0.076C18.455,19.35,18.583,19.412,18.668,19.459z"/>
	</g>
	<g>
		<path fill="#E5BF61" d="M44.281,5.847c0.113,0.019,0.364,0.123,0.488,0.142c0.118,0.024,0.213,0.218,0.332,0.242
			c0.118,0.019,0.228,0.133,0.346,0.151c0.119,0.024,0.304-0.332,0.427-0.308c0.114,0.019,0.219,0.161,0.342,0.18
			c0.114,0.019,0.271,0.038,0.389,0.057c-0.019,0.114,0.066,0.27,0.043,0.375c-0.019,0.109-0.171,0.194-0.194,0.308
			c-0.123-0.033-0.247-0.085-0.36-0.114c-0.123-0.033-0.294,0.176-0.413,0.143c-0.118-0.029-0.213-0.152-0.332-0.18
			c-0.118-0.029-0.232-0.066-0.351-0.095c-0.119-0.028-0.232-0.076-0.352-0.104c-0.118-0.029-0.27-0.114-0.384-0.147
			C44.29,6.331,44.252,6.017,44.281,5.847z"/>
	</g>
	<g>
		<path fill="#E5BF61" d="M47.771,25.388c0.119,0.019,0.365,0.124,0.493,0.142c0.114,0.024,0.209,0.218,0.327,0.237
			c0.119,0.024,0.229,0.138,0.347,0.157c0.118,0.019,0.304-0.332,0.427-0.309c0.118,0.019,0.223,0.161,0.342,0.18
			c0.118,0.019,0.271,0.038,0.389,0.057c-0.019,0.114,0.066,0.271,0.048,0.37c-0.02,0.114-0.176,0.199-0.199,0.313
			c-0.119-0.033-0.242-0.085-0.356-0.114c-0.118-0.033-0.289,0.175-0.412,0.142c-0.119-0.028-0.209-0.157-0.332-0.18
			c-0.114-0.028-0.228-0.066-0.352-0.095c-0.113-0.029-0.228-0.076-0.351-0.104c-0.118-0.028-0.266-0.114-0.384-0.147
			C47.781,25.872,47.743,25.559,47.771,25.388z"/>
	</g>
	<g>
		<path fill="#E5BF61" d="M44.765,24.382c0.118,0.019,0.365,0.123,0.488,0.142c0.119,0.019,0.214,0.218,0.332,0.237
			c0.119,0.019,0.228,0.133,0.347,0.152c0.118,0.019,0.304-0.332,0.427-0.313c0.118,0.019,0.218,0.166,0.341,0.185
			c0.114,0.024,0.271,0.043,0.39,0.062c-0.02,0.104,0.066,0.266,0.047,0.37c-0.019,0.109-0.175,0.199-0.199,0.304
			c-0.123-0.028-0.246-0.081-0.36-0.114c-0.113-0.028-0.289,0.18-0.407,0.152c-0.119-0.029-0.214-0.162-0.332-0.185
			c-0.119-0.028-0.232-0.062-0.352-0.09c-0.118-0.033-0.232-0.076-0.351-0.104c-0.119-0.029-0.266-0.124-0.39-0.152
			C44.778,24.866,44.736,24.548,44.765,24.382z"/>
	</g>
	<g>
		<path fill="#E5BF61" d="M21.012,16.651c0.019,0.114,0,0.237,0.009,0.351c0.019,0.124,0.28,0.247,0.275,0.36
			c-0.005,0.114-0.285,0.209-0.323,0.323s0.028,0.294-0.057,0.389c-0.066,0.076-0.124,0.261-0.237,0.332
			c-0.085,0.052-0.299-0.066-0.422-0.019c-0.1,0.042-0.294,0.161-0.417,0.194c0.042-0.114,0.062-0.342,0.095-0.451
			c0.042-0.114,0.023-0.247,0.062-0.351c0.043-0.114,0.104-0.218,0.147-0.322c0.038-0.114,0.195-0.18,0.232-0.29
			c0.038-0.114,0.285-0.147,0.323-0.251c0.042-0.109-0.09-0.266-0.052-0.37C20.774,16.594,20.888,16.608,21.012,16.651z"/>
	</g>
	<g>
		<path fill="#E5BF61" d="M29.829,21.527c0.128-0.028,0.071-0.266,0.194-0.285c0.133-0.028,0.313,0.185,0.437,0.161
			c0.133-0.028,0.256-0.085,0.384-0.109c0.128-0.023,0.204-0.304,0.342-0.327c0.128-0.028,0.242-0.128,0.37-0.152
			c0.128-0.028,0.289,0.085,0.412,0.062c0.133-0.023,0.332-0.062,0.455-0.09c0.024,0.085-0.037,0.256-0.019,0.341
			c-0.123,0.038-0.271-0.085-0.398-0.052s-0.161,0.422-0.284,0.456c-0.133,0.033-0.352-0.28-0.475-0.251
			c-0.133,0.038-0.209,0.271-0.332,0.304c-0.123,0.038-0.194,0.289-0.322,0.322c-0.124,0.038-0.266,0.028-0.39,0.066
			c-0.123,0.033-0.313-0.114-0.436-0.081C29.725,21.745,29.862,21.674,29.829,21.527z"/>
	</g>
	<g>
		<path fill="#E5BF61" d="M33.609,21.043c0.128-0.028,0.066-0.266,0.199-0.289c0.123-0.024,0.303,0.185,0.436,0.166
			c0.124-0.029,0.247-0.085,0.38-0.114c0.128-0.019,0.209-0.299,0.342-0.323c0.128-0.028,0.241-0.133,0.37-0.152
			c0.128-0.028,0.284,0.085,0.417,0.062c0.123-0.023,0.322-0.062,0.455-0.09c0.02,0.085-0.043,0.256-0.019,0.341
			c-0.133,0.038-0.275-0.085-0.403-0.057c-0.128,0.038-0.156,0.427-0.289,0.455c-0.128,0.038-0.352-0.28-0.475-0.247
			c-0.128,0.038-0.199,0.271-0.322,0.304c-0.124,0.038-0.199,0.285-0.323,0.322c-0.123,0.033-0.27,0.029-0.394,0.066
			c-0.123,0.029-0.317-0.114-0.44-0.081C33.5,21.252,33.638,21.186,33.609,21.043z"/>
	</g>
	<g>
		<path fill="#E5BF61" d="M26.76,23.453c0.114-0.052,0-0.271,0.114-0.323c0.124-0.057,0.341,0.104,0.465,0.047
			c0.114-0.057,0.228-0.142,0.341-0.199c0.124-0.052,0.133-0.341,0.247-0.398c0.124-0.057,0.209-0.18,0.332-0.237
			c0.114-0.057,0.299,0.014,0.418-0.038c0.118-0.057,0.294-0.147,0.417-0.199c0.043,0.076,0.028,0.256,0.066,0.337
			c-0.114,0.062-0.284-0.024-0.398,0.042s-0.057,0.446-0.171,0.512c-0.113,0.062-0.408-0.189-0.521-0.123
			c-0.114,0.062-0.133,0.303-0.247,0.37c-0.114,0.062-0.124,0.323-0.237,0.389s-0.247,0.095-0.37,0.161
			c-0.114,0.062-0.332-0.038-0.446,0.028C26.708,23.689,26.827,23.585,26.76,23.453z"/>
	</g>
	<g>
		<path fill="#E5BF61" d="M23.905,25.264c0.104-0.066-0.033-0.313,0.071-0.379s0.341,0.066,0.446,0s0.194-0.161,0.299-0.232
			c0.104-0.071,0.066-0.351,0.171-0.413c0.104-0.071,0.17-0.208,0.275-0.275s0.285-0.014,0.389-0.085
			c0.104-0.066,0.199-0.152,0.303-0.218c0.104-0.076,0.256,0.01,0.36-0.062c0.043,0.109-0.09,0.119-0.052,0.228
			c-0.1,0.081,0.09,0.351-0.015,0.432c-0.1,0.076-0.427-0.133-0.521-0.057c-0.104,0.081-0.076,0.317-0.18,0.398
			c-0.1,0.076-0.066,0.332-0.161,0.408c-0.104,0.081-0.228,0.123-0.332,0.204c-0.095,0.081-0.313,0.009-0.413,0.081
			c-0.1,0.081-0.332-0.01-0.432,0.071c-0.095,0.081-0.085,0.332-0.181,0.403c-0.038-0.09-0.009-0.228-0.038-0.318
			C23.857,25.354,23.943,25.359,23.905,25.264z"/>
	</g>
</g>
</svg>
