<?xml version="1.0" encoding="utf-8"?>
<!-- Generator: Adobe Illustrator 16.0.0, SVG Export Plug-In . SVG Version: 6.00 Build 0)  -->
<!DOCTYPE svg PUBLIC "-//W3C//DTD SVG 1.1//EN" "http://www.w3.org/Graphics/SVG/1.1/DTD/svg11.dtd">
<svg version="1.1" id="圖層_1" xmlns="http://www.w3.org/2000/svg" xmlns:xlink="http://www.w3.org/1999/xlink" x="0px" y="0px"
	 width="55px" height="55px" viewBox="0 0 55 55" enable-background="new 0 0 55 55" xml:space="preserve">
<g>
	<path d="M10.933,36.739c-0.079-0.04-0.332,0.088-0.408,0.044c-0.081-0.044-0.138-0.123-0.214-0.172
		c-0.082-0.04-0.077-0.227-0.158-0.275c-0.074-0.04-0.155-0.084-0.231-0.128c-0.077-0.04-0.111-0.163-0.192-0.207
		c-0.077-0.039-0.182-0.039-0.261-0.084c-0.077-0.044-0.207,0.173-0.286,0.128C9.122,36.1,8.93,35.917,8.849,36.001
		c-0.064,0.069,0.012,0.29-0.069,0.354c-0.079,0.059-0.192,0.083-0.283,0.118c-0.086,0.034-0.148,0.138-0.239,0.177
		c-0.086,0.039-0.271-0.157-0.362-0.123c-0.091,0.034-0.177,0.055-0.268,0.084c-0.093,0.034-0.155,0.128-0.246,0.147
		c-0.101,0.02-0.174,0.157-0.266,0.157c-0.101,0-0.248,0.094-0.337,0.06c-0.086-0.035-0.049-0.354-0.138-0.399
		c-0.086-0.039-0.194-0.015-0.283-0.054c-0.082-0.049-0.212,0.005-0.295-0.039c-0.083-0.04-0.135-0.147-0.219-0.192
		c-0.081-0.044-0.177-0.063-0.261-0.113c-0.084-0.049-0.209-0.02-0.288-0.068c-0.081-0.055-0.064-0.256-0.145-0.305
		c-0.081-0.05-0.317,0.133-0.396,0.078c-0.079-0.049,0.007-0.35-0.071-0.403c-0.081-0.054-0.18-0.079-0.258-0.128
		c-0.079-0.059-0.305,0.104-0.381,0.049c-0.076-0.054-0.002-0.329-0.079-0.384c-0.079-0.059-0.271,0.03-0.337-0.034
		c-0.069-0.068-0.192-0.113-0.246-0.182c-0.054-0.079,0.044-0.256,0.002-0.345c-0.04-0.083-0.278-0.118-0.3-0.206
		c-0.022-0.089,0.185-0.227,0.177-0.325c-0.007-0.094-0.18-0.196-0.177-0.285c0.005-0.099,0.022-0.202,0.037-0.3
		c0.015-0.094,0.278-0.133,0.3-0.231c0.025-0.089,0.03-0.188,0.054-0.285c0.025-0.094-0.172-0.241-0.147-0.335
		c0.022-0.099,0.163-0.157,0.185-0.256c0.017-0.094-0.074-0.207-0.059-0.3c0.015-0.094,0.172-0.173,0.18-0.271
		c0.005-0.094,0-0.192-0.005-0.291c-0.002-0.098-0.13-0.177-0.146-0.271c-0.015-0.098,0.155-0.235,0.128-0.324
		c-0.029-0.094-0.007-0.231-0.051-0.315c-0.044-0.088-0.13-0.172-0.189-0.256c-0.054-0.073-0.13-0.157-0.199-0.23
		c-0.064-0.064-0.219-0.045-0.3-0.104c0.02-0.094,0.162-0.147,0.182-0.236c0.017-0.094-0.032-0.196-0.02-0.285
		c0.015-0.089-0.086-0.197-0.071-0.29c0.015-0.089-0.007-0.183,0.007-0.271c0.015-0.094,0.094-0.168,0.113-0.261
		c0.018-0.094,0.207-0.144,0.224-0.231c0.017-0.089,0.051-0.173,0.071-0.256c0.022-0.089,0.007-0.182,0.029-0.271
		c0.022-0.083-0.147-0.231-0.123-0.32c0.025-0.088,0.244-0.108,0.276-0.191c0.032-0.089,0.01-0.197,0.044-0.281
		c0.032-0.088-0.098-0.226-0.074-0.315c0.027-0.088-0.007-0.172,0.005-0.266c0.01-0.088,0.209-0.167,0.202-0.266
		c-0.007-0.088-0.069-0.172-0.091-0.271c-0.02-0.093-0.163-0.167-0.172-0.251c-0.012-0.093,0.172-0.197,0.177-0.28
		c0.002-0.094-0.093-0.192-0.081-0.281c0.02-0.088-0.032-0.207-0.002-0.295c0.029-0.079,0.185-0.118,0.229-0.207
		c0.04-0.079,0-0.212,0.049-0.286c0.049-0.079,0.211-0.079,0.266-0.147c0.054-0.079,0.177-0.083,0.236-0.152
		c0.057-0.069,0.049-0.192,0.108-0.256c0.062-0.064,0.16-0.094,0.222-0.163c0.071-0.074,0-0.28,0.057-0.384
		c0.066-0.108,0.334-0.187,0.32-0.285c-0.013-0.093-0.192-0.167-0.197-0.261c-0.002-0.093-0.125-0.192-0.123-0.285
		c0.005-0.094,0.342-0.163,0.352-0.251c0.01-0.099-0.192-0.227-0.17-0.315c0.022-0.088,0.111-0.167,0.146-0.246
		c0.034-0.088-0.02-0.226,0.029-0.305c0.047-0.079,0.104-0.172,0.165-0.246c0.059-0.079,0.288,0.015,0.356-0.049
		c0.069-0.059-0.015-0.315,0.064-0.364c0.076-0.054,0.251,0.049,0.337,0.01c0.082-0.039,0.197,0.02,0.286-0.02
		c0.088-0.029,0.103-0.246,0.189-0.275c0.086-0.04,0.174-0.069,0.261-0.108c0.086-0.029,0.192-0.02,0.28-0.054
		c0.086-0.034,0.135-0.152,0.219-0.192c0.084-0.034,0.244,0.099,0.33,0.064c0.089-0.034,0.077-0.3,0.16-0.339
		c0.088-0.029,0.155-0.113,0.244-0.147c0.086-0.035,0.243,0.103,0.33,0.069c0.086-0.03,0.16-0.108,0.246-0.138
		c0.086-0.03,0.184-0.04,0.271-0.069c0.088-0.03,0.197,0.01,0.288-0.01c0.091-0.03,0.172-0.064,0.263-0.089
		c0.091-0.02,0.199,0.049,0.291,0.03c0.091-0.015,0.13-0.305,0.221-0.325c0.091-0.015,0.216,0.226,0.313,0.221
		c0.088-0.01,0.177-0.005,0.271-0.01c0.091-0.005,0.175-0.163,0.268-0.163c0.091,0,0.189-0.083,0.283-0.079
		c0.091,0,0.187,0.01,0.283,0.025c0.091,0.01,0.187,0.024,0.278,0.044c0.091,0.01,0.128,0.286,0.222,0.305
		c0.091,0.02,0.258-0.256,0.347-0.231c0.083,0.025,0.138,0.123,0.229,0.123c0.089,0,0.205,0.187,0.295,0.167
		c0.081-0.015,0.118-0.275,0.204-0.3c0.083-0.024,0.13-0.133,0.219-0.167c0.084-0.035,0.217,0.074,0.3,0.044
		c0.083-0.034,0.128-0.157,0.207-0.197c0.084-0.039,0.16-0.088,0.244-0.123c0.083-0.034,0.202,0.015,0.285-0.015
		c0.086-0.029,0.209,0.069,0.293,0.04c0.083-0.025,0.113-0.256,0.197-0.275c0.083-0.02,0.192,0.039,0.278,0.02
		c0.084-0.02,0.16-0.083,0.246-0.104c0.083-0.02,0.227,0.187,0.313,0.167c0.083-0.024,0.167-0.049,0.253-0.074
		c0.098-0.025,0.197-0.01,0.297-0.03c0.101-0.015,0.125-0.325,0.222-0.359c0.086-0.035,0.249,0.152,0.339,0.123
		c0.091-0.03,0.128-0.222,0.214-0.251c0.091-0.03,0.163-0.118,0.253-0.143c0.091-0.03,0.251,0.207,0.342,0.177
		c0.089-0.02,0.133-0.226,0.224-0.251c0.091-0.024,0.167-0.123,0.256-0.138c0.091-0.024,0.233,0.187,0.325,0.167
		c0.088-0.02,0.162-0.143,0.253-0.163c0.091-0.02,0.165-0.138,0.261-0.157c0.091-0.01,0.224,0.231,0.317,0.216
		c0.096-0.015,0.16-0.197,0.253-0.207c0.096-0.015,0.214,0.192,0.305,0.182c0.094-0.01,0.182-0.04,0.276-0.054
		c0.093-0.01,0.184-0.005,0.278-0.015c0.096-0.01,0.165-0.241,0.258-0.251c0.093-0.01,0.189-0.005,0.283-0.015
		c0.094-0.005,0.194,0.123,0.291,0.113c0.093-0.01,0.177-0.128,0.271-0.138c0.093-0.01,0.185-0.02,0.28-0.029
		c0.094-0.005,0.187,0.01,0.28,0.005c0.096-0.005,0.18-0.143,0.273-0.152c0.093-0.01,0.199,0.182,0.29,0.177
		c0.091,0,0.177-0.167,0.271-0.172c0.096-0.005,0.199,0.211,0.293,0.207c0.096-0.005,0.187-0.064,0.28-0.069
		c0.094-0.005,0.192,0.088,0.285,0.083c0.096,0,0.175-0.241,0.269-0.246c0.096-0.01,0.184-0.034,0.28-0.039
		c0.093-0.005,0.192,0.069,0.285,0.059c0.094-0.01,0.177-0.118,0.271-0.123c0.096-0.005,0.182-0.059,0.276-0.069
		c0.096-0.005,0.197,0.093,0.288,0.083c0.091-0.01,0.18-0.059,0.275-0.069c0.086-0.01,0.192,0.167,0.278,0.157
		c0.086-0.01,0.155-0.162,0.238-0.172c0.089-0.01,0.167-0.069,0.253-0.079c0.089-0.015,0.167-0.094,0.253-0.104
		c0.089-0.01,0.199,0.246,0.288,0.241c0.101-0.005,0.184-0.138,0.271-0.143c0.101-0.01,0.204,0.059,0.29,0.049
		c0.106-0.01,0.207,0.02,0.291,0.005c0.108-0.015,0.202-0.074,0.278-0.103c0.104-0.04,0.196-0.104,0.258-0.167
		c0.062-0.059,0.207-0.138,0.236-0.236c0.02-0.083-0.105-0.207-0.098-0.319c0.002-0.084,0.061-0.177,0.061-0.281
		c0-0.088-0.068-0.182-0.073-0.285c-0.003-0.089-0.01-0.182-0.013-0.28c-0.005-0.089,0.02-0.172,0.013-0.261
		c-0.008-0.088,0.091-0.187,0.084-0.266c-0.008-0.088,0.012-0.167,0.012-0.256c-0.005-0.103-0.044-0.182-0.029-0.275
		c0.018-0.103,0.071-0.167,0.108-0.256c0.037-0.093,0.081-0.143,0.14-0.226c0.06-0.079-0.118-0.374-0.039-0.443
		c0.074-0.064,0.266,0.005,0.354-0.04c0.088-0.044,0.157-0.197,0.251-0.221c0.093-0.024,0.23,0.104,0.329,0.093
		c0.099-0.005,0.173-0.197,0.261-0.207c0.094-0.005,0.212,0.256,0.301,0.246c0.098-0.005,0.177-0.099,0.271-0.108
		c0.093-0.01,0.172-0.147,0.261-0.157c0.098-0.01,0.187-0.054,0.275-0.059c0.099-0.015,0.187-0.01,0.28-0.02
		c0.094-0.005,0.187-0.02,0.28-0.03s0.207,0.187,0.295,0.172c0.099-0.01,0.183-0.074,0.276-0.083
		c0.088-0.01,0.177-0.079,0.271-0.089c0.093-0.005,0.191,0.079,0.285,0.074c0.093-0.005,0.172-0.202,0.261-0.207
		c0.094-0.005,0.206,0.251,0.3,0.241s0.172-0.227,0.261-0.227c0.094-0.01,0.188-0.034,0.28-0.039c0.094-0.01,0.188,0.039,0.28,0.029
		c0.099,0,0.197,0.128,0.286,0.123c0.098-0.005,0.187-0.044,0.275-0.054c0.099,0,0.196,0.069,0.285,0.069
		c0.099,0,0.191,0.03,0.285,0.03s0.188-0.054,0.285-0.049c0.099,0,0.192-0.049,0.286-0.039c0.098,0.005,0.187,0.049,0.285,0.049
		c0.093,0.005,0.196-0.152,0.295-0.147c0.089,0.01,0.187,0.01,0.285,0.02c0.089,0.01,0.188,0.049,0.28,0.054
		c0.094,0.005,0.183,0.099,0.281,0.104c0.093,0.005,0.187,0.02,0.285,0.02c0.098,0.005,0.196-0.098,0.29-0.093
		s0.187-0.015,0.285-0.005c0.094,0.005,0.192,0.074,0.28,0.074c0.099,0.005,0.183,0.167,0.275,0.167
		c0.099,0.005,0.188-0.024,0.286-0.024c0.093,0.005,0.187,0.005,0.275,0.01c0.098,0,0.191-0.049,0.285-0.049
		s0.187-0.162,0.285-0.162c0.089,0,0.183,0.28,0.275,0.28c0.099,0,0.188-0.059,0.285-0.059c0.089,0,0.188-0.01,0.281-0.01
		c0.093,0,0.191-0.074,0.28-0.074c0.088,0,0.182-0.108,0.275-0.108c0.099,0,0.187,0.025,0.28,0.025
		c0.094-0.01,0.192,0.197,0.29,0.192c0.089-0.005,0.183-0.044,0.275-0.044c0.113-0.005,0.197-0.059,0.286-0.04
		c0.107,0.015,0.167,0.049,0.235,0.108c0.069,0.064,0.138,0.098,0.163,0.207c0.02,0.083-0.035,0.177-0.035,0.291
		c-0.005,0.093,0.06,0.187,0.06,0.28c0,0.088,0.104,0.182,0.104,0.275c0,0.094-0.207,0.187-0.202,0.275
		c0,0.094,0.108,0.187,0.108,0.276c0,0.093,0.049,0.187,0.049,0.275c0,0.093,0.099,0.192,0.094,0.285
		c-0.005,0.108-0.256,0.217-0.246,0.3c0.015,0.108,0.172,0.172,0.222,0.251c0.044,0.088,0.147,0.079,0.231,0.128
		c0.073,0.049,0.073,0.339,0.187,0.354c0.084,0.02,0.212,0.035,0.32,0.035c0.098,0,0.187-0.246,0.275-0.246
		c0.098,0,0.187,0.088,0.28,0.088s0.182,0.143,0.275,0.143s0.182-0.246,0.28-0.246c0.094,0,0.182,0.059,0.275,0.059
		s0.183-0.153,0.275-0.153c0.099,0,0.188,0.182,0.275,0.182c0.099,0,0.188-0.128,0.281-0.128c0.093,0,0.182,0.138,0.275,0.138
		c0.093,0,0.182-0.098,0.28-0.098c0.094,0,0.182,0.088,0.275,0.088s0.182,0.167,0.275,0.167s0.183-0.158,0.275-0.158
		c0.099,0,0.188,0.01,0.28,0.01c0.094,0,0.183,0.074,0.281,0.074c0.093,0,0.187,0.005,0.275,0.005c0.098,0,0.187-0.044,0.28-0.049
		c0.094,0,0.182-0.118,0.275-0.118s0.182-0.029,0.275-0.029s0.183,0.049,0.28,0.049c0.094,0,0.188-0.069,0.275-0.074
		c0.099-0.005,0.192,0.015,0.281,0.015c0.098-0.005,0.196,0.04,0.28,0.04c0.103,0,0.196,0.083,0.285,0.083
		c0.099,0,0.196-0.005,0.275,0c0.108,0.005,0.197,0,0.285,0.015c0.104,0.02,0.246-0.069,0.315-0.029
		c0.088,0.04,0.246,0.108,0.295,0.192c0.049,0.069-0.227,0.28-0.207,0.389c0.02,0.079,0.04,0.143,0.05,0.246
		c0.005,0.088-0.005,0.167,0,0.271c0,0.083,0.319,0.177,0.319,0.28c0,0.089-0.005,0.182-0.005,0.281
		c-0.005,0.093-0.073,0.182-0.078,0.28c0,0.093-0.084,0.187-0.089,0.275c0,0.099,0.099,0.197,0.094,0.286
		c-0.005,0.098-0.178,0.187-0.183,0.275c0,0.098,0,0.192,0,0.285c-0.01,0.094-0.083,0.187-0.089,0.28
		c0,0.094,0.021,0.187,0.021,0.281c-0.01,0.098-0.055,0.187-0.06,0.28c0,0.094,0.128,0.192,0.118,0.286
		c0,0.093-0.015,0.191-0.02,0.28c-0.01,0.098,0.118,0.197,0.113,0.29c-0.005,0.094-0.113,0.182-0.113,0.271
		c-0.01,0.099-0.089,0.187-0.099,0.286c0,0.088,0.01,0.187,0.01,0.28c-0.005,0.094,0.147,0.192,0.143,0.291
		c-0.005,0.093-0.191,0.177-0.201,0.271c-0.01,0.093,0.167,0.197,0.167,0.29c-0.005,0.094-0.029,0.187-0.039,0.275
		c0,0.099-0.266,0.177-0.266,0.271c-0.005,0.093-0.02,0.192-0.024,0.28c-0.006,0.098,0.201,0.202,0.191,0.295
		c0,0.098,0.128,0.197,0.123,0.29s-0.099,0.182-0.104,0.275c-0.005,0.094-0.01,0.192-0.02,0.281c0,0.098,0.069,0.197,0.064,0.285
		c-0.006,0.098,0.005,0.192,0,0.285c-0.006,0.094-0.04,0.187-0.045,0.281c0,0.093,0.01,0.187,0.005,0.28
		c-0.005,0.099-0.339,0.177-0.344,0.266c-0.005,0.094,0.285,0.197,0.28,0.295c0,0.093-0.285,0.177-0.285,0.266
		c-0.006,0.088,0.295,0.197,0.29,0.295c-0.005,0.094-0.222,0.177-0.227,0.271c-0.005,0.094,0.015,0.192,0.01,0.281
		c-0.005,0.098,0.152,0.197,0.147,0.285c-0.005,0.099-0.143,0.187-0.143,0.275c-0.005,0.099-0.113,0.187-0.113,0.286
		c-0.005,0.088,0.306,0.187,0.301,0.286c0,0.088-0.05,0.182-0.05,0.275c0,0.088,0.01,0.182,0.01,0.275
		c0,0.089,0.02,0.182,0.02,0.275c0,0.089,0.01,0.182,0.01,0.275c0.011,0.089-0.157,0.188-0.152,0.28
		c0.005,0.094,0.183,0.178,0.183,0.271c0.005,0.094-0.128,0.188-0.118,0.286c0,0.088-0.04,0.187-0.034,0.275
		c0.005,0.098,0.083,0.182,0.083,0.275c0.005,0.093,0.005,0.187,0.01,0.28c0.01,0.094-0.059,0.187-0.054,0.28
		c0.005,0.099,0.167,0.177,0.172,0.275c0,0.089-0.01,0.183-0.01,0.275c0.005,0.099-0.324,0.197-0.319,0.291
		c0.005,0.093,0.054,0.182,0.054,0.275c0.005,0.093,0.069,0.182,0.069,0.275c0.005,0.094,0.226,0.182,0.226,0.275s0,0.191,0,0.28
		s-0.236,0.182-0.236,0.275c0,0.089-0.02,0.178-0.02,0.275c0,0.089,0.147,0.188,0.143,0.28c-0.005,0.094-0.117,0.178-0.123,0.271
		c0,0.088,0.188,0.196,0.178,0.285c-0.01,0.093-0.241,0.167-0.246,0.266c-0.01,0.088,0.029,0.187,0.029,0.275
		c-0.01,0.089-0.039,0.182-0.039,0.275c-0.01,0.089-0.084,0.177-0.089,0.275c-0.01,0.089,0.246,0.197,0.241,0.29
		c-0.005,0.094-0.266,0.168-0.271,0.261c0,0.094-0.02,0.207-0.005,0.286c0.015,0.088,0.275,0.098,0.314,0.167
		c0.04,0.079-0.044,0.261,0.03,0.314c0.063,0.04,0.24-0.167,0.329-0.138c0.074,0.02,0.118,0.113,0.212,0.123
		c0.099,0.015,0.201-0.024,0.29-0.015c0.099,0.015,0.197,0.049,0.28,0.069c0.104,0.029,0.157,0.177,0.231,0.211
		c0.099,0.04,0.191,0.069,0.256,0.133c0.063,0.06,0.059,0.168,0.089,0.256c0.029,0.079,0.147,0.147,0.157,0.256
		c0.01,0.079,0.049,0.178,0.049,0.28c0,0.084-0.246,0.163-0.256,0.261c0,0.089,0.251,0.197,0.246,0.296
		c-0.01,0.098-0.256,0.177-0.256,0.266c0,0.098,0.236,0.191,0.236,0.285s-0.246,0.191-0.236,0.285c0,0.099-0.01,0.188,0,0.285
		c0,0.094,0.192,0.178,0.197,0.266c0.01,0.099,0.02,0.188,0.024,0.28c0.005,0.094-0.113,0.192-0.113,0.286
		c0.005,0.093,0.187,0.182,0.196,0.271c0,0.083-0.122,0.196-0.112,0.295c0.015,0.099-0.045,0.197-0.04,0.29
		c0.005,0.133,0.089,0.241,0.035,0.271c-0.084,0.05-0.188,0.06-0.276,0.108c-0.083,0.04-0.157,0.108-0.245,0.147
		c-0.089,0.035-0.178,0.089-0.271,0.113c-0.093,0.029-0.191,0.02-0.29,0.034c-0.099,0.016-0.191-0.088-0.285-0.088
		c-0.089,0-0.177,0-0.266,0c-0.094-0.01-0.187,0.138-0.28,0.128c-0.094-0.005-0.192,0.088-0.28,0.078
		c-0.089-0.01-0.168-0.167-0.256-0.172c-0.089-0.005-0.192,0.094-0.285,0.084c-0.089-0.01-0.178-0.045-0.267-0.05
		c-0.088-0.015-0.167-0.123-0.261-0.128c-0.093-0.01-0.182-0.029-0.271-0.039c-0.088-0.005-0.172-0.128-0.266-0.128
		c-0.088-0.01-0.187,0.172-0.275,0.167c-0.094,0-0.187-0.128-0.275-0.128c-0.094,0-0.187,0.025-0.275,0.025
		c-0.099,0-0.187,0.063-0.285,0.063c-0.089,0-0.183,0.108-0.275,0.108c-0.094,0-0.188,0.02-0.281,0.02
		c-0.093,0-0.182,0.029-0.28,0.029c-0.088,0-0.187-0.261-0.275-0.261c-0.099,0-0.187,0.231-0.28,0.231s-0.187-0.236-0.28-0.236
		c-0.089,0-0.183-0.039-0.275-0.039c-0.099,0-0.188,0.182-0.28,0.182c-0.094,0-0.183-0.005-0.281-0.005
		c-0.093,0-0.182,0.178-0.275,0.178c-0.098,0-0.187-0.311-0.28-0.311s-0.182,0.138-0.28,0.138c-0.094,0-0.187-0.103-0.275-0.103
		c-0.099,0-0.188-0.04-0.28-0.04c-0.094,0-0.188,0.01-0.28,0.01c-0.094,0-0.188,0.128-0.276,0.128c-0.098,0-0.187-0.039-0.285-0.039
		c-0.088,0-0.182,0.089-0.275,0.089s-0.187,0.039-0.275,0.039c-0.099,0-0.187-0.01-0.285-0.01c-0.089,0-0.188-0.118-0.275-0.118
		c-0.099,0-0.188,0.049-0.28,0.049c-0.094,0-0.183,0.118-0.281,0.118c-0.088,0-0.182-0.01-0.275-0.01
		c-0.098,0-0.187,0.089-0.28,0.089s-0.187-0.246-0.28-0.241c-0.099,0-0.188,0.049-0.28,0.049c-0.094,0-0.183,0.005-0.28,0.005
		c-0.094,0-0.188,0.158-0.275,0.158c-0.099,0-0.192-0.246-0.286-0.246c-0.093,0-0.187,0.143-0.275,0.143
		c-0.099,0-0.187,0.123-0.285,0.123c-0.089,0-0.187-0.246-0.28-0.246s-0.183,0.217-0.271,0.217c-0.099,0-0.188,0.054-0.285,0.059
		c-0.089,0-0.188-0.089-0.276-0.089c-0.088,0-0.187-0.187-0.285-0.177c-0.088,0-0.177,0.246-0.275,0.251
		c-0.089,0-0.182,0.01-0.275,0.01c-0.099,0-0.187-0.3-0.285-0.3c-0.094,0-0.178,0.324-0.275,0.324c-0.094,0-0.173-0.02-0.266-0.005
		c-0.099,0.01-0.173,0.055-0.266,0.074c-0.089,0.02-0.227-0.158-0.315-0.133c-0.094,0.024-0.187,0.054-0.275,0.073
		c-0.089,0.024-0.147,0.246-0.236,0.266c-0.094,0.02-0.231-0.266-0.324-0.261c-0.089,0.015-0.168,0.138-0.256,0.143
		c-0.089,0.01-0.178-0.039-0.271-0.039c-0.089,0.01-0.178,0.108-0.261,0.108c-0.094,0-0.178-0.188-0.271-0.192
		c-0.094,0-0.183,0.202-0.271,0.202c-0.088-0.01-0.187,0.113-0.275,0.108c-0.088,0-0.147-0.354-0.24-0.364
		c-0.084-0.01-0.183,0.069-0.271,0.059c-0.088-0.01-0.167-0.078-0.256-0.093c-0.088-0.015-0.211,0.221-0.305,0.206
		c-0.084-0.01-0.167-0.054-0.256-0.068c-0.089-0.01-0.167-0.143-0.256-0.147s-0.177,0.206-0.266,0.206
		c-0.094,0-0.187-0.01-0.275-0.01c-0.099,0-0.187,0.005-0.28,0.005s-0.188-0.275-0.28-0.275c-0.094,0-0.188,0.147-0.275,0.152
		c-0.099,0-0.188,0.045-0.286,0.045c-0.088,0-0.182,0.073-0.275,0.073c-0.093,0-0.187-0.182-0.28-0.182s-0.182,0.068-0.28,0.068
		c-0.089,0-0.182,0.064-0.275,0.064c-0.099,0-0.188-0.084-0.28-0.084c-0.094,0-0.185-0.029-0.278-0.029s-0.185,0.138-0.28,0.138
		c-0.094,0-0.185-0.182-0.278-0.182c-0.093,0-0.184,0.073-0.278,0.073c-0.096,0-0.185-0.167-0.28-0.167
		c-0.094,0.005-0.185-0.02-0.278-0.02c-0.094,0-0.185,0.029-0.281,0.029c-0.093,0-0.185,0.079-0.278,0.079
		c-0.094,0-0.185-0.03-0.278-0.03c-0.096,0-0.187,0.055-0.281,0.055c-0.093,0-0.185,0.201-0.278,0.201
		c-0.096,0-0.189-0.246-0.28-0.246c-0.089,0-0.185,0.202-0.278,0.202c-0.093,0-0.184-0.133-0.278-0.133
		c-0.096,0-0.187,0.049-0.28,0.049c-0.094,0-0.185,0.133-0.278,0.133c-0.096,0-0.189-0.329-0.283-0.324
		c-0.093,0.005-0.185,0.108-0.28,0.108c-0.094,0-0.185-0.094-0.278-0.094c-0.094,0-0.185,0.246-0.276,0.246
		c-0.093,0-0.184-0.02-0.278-0.02c-0.096,0-0.185-0.005-0.28,0c-0.094,0-0.185,0.063-0.278,0.068c-0.093,0-0.189-0.172-0.28-0.167
		c-0.093,0-0.185,0.147-0.273,0.157c-0.096,0-0.187-0.015-0.28-0.015c-0.094,0-0.185-0.005-0.278-0.005
		c-0.096,0-0.184,0.059-0.28,0.059c-0.093,0-0.185,0.05-0.278,0.05c-0.094,0-0.189-0.064-0.278-0.06
		c-0.096,0-0.187,0.021-0.28,0.021c-0.093,0-0.185-0.04-0.278-0.04c-0.096,0-0.189-0.191-0.283-0.187
		c-0.094,0-0.189-0.05-0.281-0.05c-0.093,0.005-0.192-0.005-0.285,0c-0.094,0-0.185,0.188-0.278,0.188
		c-0.096,0.01-0.189,0.029-0.283,0.039c-0.093,0.01-0.192-0.049-0.29-0.039c-0.094,0.01-0.175,0.217-0.268,0.222
		c-0.094,0.005-0.202-0.153-0.298-0.144c-0.093,0.011-0.177,0.128-0.271,0.144c-0.094,0.005-0.197-0.069-0.291-0.06
		c-0.093,0.01-0.189,0.015-0.283,0.029c-0.093,0.01-0.175,0.168-0.268,0.173c-0.094,0.01-0.207-0.138-0.3-0.133
		c-0.093,0.01-0.192-0.025-0.285-0.015c-0.096,0.005-0.189,0.024-0.283,0.029c-0.096,0.01-0.182,0.128-0.275,0.133
		c-0.096,0.005-0.192-0.01-0.288-0.005c-0.094,0.01-0.202-0.173-0.295-0.168c-0.096,0.011-0.187,0.104-0.28,0.108
		c-0.091,0-0.185-0.088-0.275-0.083c-0.091,0.005-0.172,0.261-0.268,0.261c-0.091,0-0.185-0.138-0.276-0.138
		c-0.088,0-0.179,0.157-0.271,0.157c-0.091,0-0.185-0.147-0.275-0.147s-0.182,0.039-0.275,0.039c-0.091,0-0.185,0.133-0.276,0.133
		c-0.091,0-0.182-0.152-0.271-0.152c-0.091,0-0.182,0.157-0.275,0.157c-0.091,0-0.182-0.227-0.275-0.227
		c-0.091,0-0.185-0.068-0.275-0.068c-0.091,0-0.177,0.305-0.273,0.305c-0.088,0-0.187-0.295-0.278-0.295s-0.185-0.015-0.275-0.01
		c-0.091,0-0.182,0.099-0.271,0.108c-0.091,0-0.189-0.06-0.281-0.05c-0.091,0.005-0.16,0.306-0.248,0.315
		c-0.091,0.01-0.192-0.128-0.283-0.118c-0.091,0.01-0.182,0.02-0.273,0.029c-0.093,0.01-0.207-0.152-0.3-0.138
		c-0.093,0.01-0.177,0.099-0.271,0.104c-0.096,0.005-0.197-0.089-0.29-0.084c-0.096,0.01-0.185,0.02-0.281,0.029
		c-0.093,0.005-0.177,0.207-0.271,0.212c-0.093,0.005-0.197-0.143-0.29-0.138c-0.094,0.005-0.189,0.005-0.283,0.005
		c-0.093,0-0.187-0.05-0.278-0.05c-0.096,0-0.189,0.173-0.283,0.168c-0.094,0-0.189-0.02-0.283-0.024
		c-0.093-0.005-0.192,0.073-0.285,0.063c-0.096-0.005-0.099-0.177-0.192-0.182c-0.022-0.094-0.157-0.074-0.182-0.168
		c-0.024-0.093-0.062-0.177-0.091-0.266c-0.025-0.088-0.086-0.172-0.116-0.261c-0.029-0.088,0.029-0.206,0.002-0.295
		c-0.024-0.089-0.216-0.133-0.241-0.217c-0.027-0.093,0.04-0.206,0.018-0.3c-0.022-0.089-0.007-0.191-0.025-0.28
		c-0.022-0.089-0.005-0.188-0.02-0.285C5,40.803,4.985,40.709,4.972,40.616c-0.01-0.094-0.002-0.183-0.007-0.276
		c-0.002-0.093-0.002-0.182-0.002-0.275c0-0.088-0.047-0.177-0.047-0.271c0.002-0.088,0.141-0.172,0.146-0.261
		c0.002-0.093-0.234-0.201-0.227-0.295c0.007-0.089,0.007-0.182,0.015-0.275c0.008-0.089-0.002-0.183,0.008-0.275
		c0.012-0.089,0.039-0.178,0.051-0.266c0.01-0.089,0-0.188,0.015-0.275c0.015-0.089,0.202-0.158,0.214-0.246
		c0.01-0.089-0.037-0.188-0.027-0.275c0.013-0.094,0.231-0.158,0.246-0.246c0.012-0.089-0.233-0.217-0.224-0.306
		c0.012-0.088,0.079-0.172,0.091-0.261c0.01-0.083,0.253-0.143,0.325-0.113c0.069,0.03,0.099,0.079,0.16,0.139
		c0.069,0.059,0.337,0.029,0.349,0.098c0.015,0.108-0.037,0.197-0.005,0.275c0.04,0.104,0.083,0.158,0.143,0.222
		c0.064,0.074,0.15,0.034,0.239,0.074c0.086,0.034,0.103,0.295,0.207,0.305c0.093,0.01,0.209,0.079,0.308,0.069
		c0.093-0.006,0.194-0.089,0.29-0.099c0.086-0.015,0.192,0.029,0.278,0.01c0.088-0.015,0.145-0.177,0.231-0.197
		c0.088-0.02,0.204,0.079,0.288,0.055c0.086-0.02,0.118-0.251,0.207-0.271c0.086-0.025,0.216,0.157,0.302,0.133
		c0.089-0.015,0.138-0.192,0.227-0.212c0.086-0.02,0.192,0.089,0.283,0.079c0.089-0.02,0.145,0.088,0.239,0.098
		c0.091,0.021,0.229-0.177,0.317-0.147c0.091,0.024,0.152,0.197,0.241,0.207c0.096,0.02,0.202,0.01,0.288,0.02
		c0.103,0.005,0.233,0.099,0.317,0.084c0.101-0.015,0.042-0.33,0.108-0.394c0.057-0.06,0.293-0.015,0.315-0.123
		C10.908,37.024,10.945,36.848,10.933,36.739z M19.877,17.965c-0.002,0.094,0.211,0.281,0.204,0.374
		c-0.005,0.089-0.054,0.177-0.059,0.275c-0.002,0.089-0.172,0.177-0.177,0.266c-0.002,0.094-0.01,0.187-0.015,0.276
		c-0.002,0.098-0.098,0.187-0.101,0.275c-0.002,0.093,0.044,0.187,0.039,0.275c-0.002,0.094,0.268,0.197,0.266,0.295
		c-0.005,0.088-0.313,0.167-0.32,0.256c-0.002,0.093,0.207,0.197,0.199,0.29c-0.002,0.089-0.049,0.182-0.054,0.271
		c-0.002,0.094,0.066,0.192,0.062,0.286c-0.002,0.088-0.263,0.167-0.269,0.261c-0.002,0.093-0.017,0.182-0.022,0.275
		c-0.002,0.093,0.066,0.182,0.059,0.28c-0.005,0.089,0.111,0.187,0.108,0.276c-0.002,0.093,0.108,0.191,0.105,0.28
		c-0.005,0.093-0.32,0.182-0.32,0.271c0,0.093,0.066,0.187,0.066,0.28c0,0.094,0.104,0.187,0.108,0.281
		c0.002,0.093-0.059,0.187-0.054,0.285c0.002,0.088,0.04,0.182,0.047,0.275c0.007,0.094,0.101,0.182,0.108,0.271
		c0.007,0.094-0.17,0.197-0.163,0.291c0.007,0.098,0.295,0.167,0.3,0.261c0.002,0.093-0.286,0.202-0.283,0.295
		c0.005,0.094,0.044,0.182,0.047,0.276c0.005,0.093,0.261,0.182,0.261,0.275s-0.268,0.182-0.271,0.271
		c-0.005,0.099,0.185,0.197,0.177,0.291c-0.007,0.093,0.051,0.192,0.044,0.285c-0.012,0.093-0.192,0.167-0.207,0.261
		c-0.015,0.088,0.192,0.211,0.18,0.305c-0.01,0.093-0.239,0.167-0.246,0.266c-0.002,0.098,0.167,0.197,0.163,0.295
		c-0.002,0.094-0.002,0.187-0.002,0.286c0,0.088-0.246,0.197-0.244,0.285c0.005,0.099,0.027,0.197,0.029,0.285
		c0.005,0.099,0.239,0.178,0.244,0.275c0.007,0.094-0.108,0.197-0.101,0.296c0.005,0.088,0.123,0.177,0.131,0.275
		c0.005,0.099-0.131,0.206-0.125,0.295c0.007,0.099,0.027,0.192,0.034,0.29c0.007,0.094,0.133,0.183,0.14,0.28
		c0.007,0.089-0.187,0.197-0.185,0.296c0.005,0.068-0.054,0.187-0.039,0.271c0.015,0.083,0.071,0.182,0.093,0.251
		c0.037,0.118,0.199,0.295,0.244,0.295c0.108,0.015,0.221-0.089,0.305-0.054c0.103,0.044,0.101,0.187,0.169,0.24
		c0.079,0.069,0.163,0.079,0.209,0.158c0.046,0.088,0.192,0.128,0.219,0.226c0.024,0.099,0.081,0.197,0.096,0.296
		c0.015,0.098-0.032,0.206-0.017,0.305c0.017,0.099-0.135,0.246-0.105,0.335c0.027,0.088,0.034,0.162,0.046,0.246
		c0.02,0.093,0.066,0.162,0.074,0.25c0.007,0.094,0.214,0.173,0.209,0.261c-0.002,0.099-0.209,0.158-0.224,0.246
		c-0.015,0.094,0.022,0.188-0.005,0.266c-0.027,0.089,0.091,0.241,0.052,0.32c-0.04,0.083-0.057,0.201-0.113,0.275
		c-0.054,0.074-0.268,0.02-0.33,0.084c-0.064,0.059-0.101,0.157-0.172,0.206c-0.074,0.05-0.096,0.207-0.174,0.256
		c-0.079,0.039-0.239-0.099-0.327-0.068c-0.082,0.029-0.14,0.167-0.231,0.182c-0.086,0.02-0.172,0.113-0.263,0.123
		c-0.088,0.01-0.192-0.118-0.283-0.118c-0.089,0-0.192,0.099-0.283,0.089c-0.098-0.01-0.177-0.157-0.275-0.173
		c-0.098-0.015-0.182-0.123-0.278-0.133c-0.099-0.02-0.211,0.06-0.31,0.05c-0.096-0.005-0.199-0.06-0.295-0.06
		c-0.098,0-0.174,0.192-0.273,0.212c-0.079,0.015-0.224-0.197-0.307-0.162c-0.079,0.029-0.091,0.216-0.167,0.261
		c-0.076,0.039-0.076,0.177-0.145,0.226c-0.069,0.055-0.345-0.152-0.406-0.093c-0.063,0.054,0.042,0.275-0.01,0.339
		c-0.059,0.074-0.167,0.113-0.224,0.173c-0.069,0.068-0.076,0.216-0.145,0.261c-0.077,0.049-0.177,0.104-0.261,0.138
		c-0.084,0.034-0.227-0.168-0.315-0.157c-0.089,0.015-0.165,0.266-0.258,0.261c-0.086,0-0.163-0.192-0.258-0.202
		c-0.094-0.015-0.199-0.123-0.295-0.123c-0.098,0-0.192,0.192-0.288,0.202c-0.096,0.015-0.192,0.02-0.286,0.044
		c-0.093,0.02-0.202-0.01-0.292,0.02c-0.069,0.02-0.081,0.138-0.138,0.207c-0.047,0.059-0.246,0.029-0.291,0.098
		c-0.044,0.069,0.138,0.188,0.091,0.246c0.069,0.035,0.11-0.029,0.18,0.02c0.069,0.04,0.037,0.246,0.103,0.276
		c0.076,0.039,0.163,0.02,0.234,0.02c0.098,0,0.192,0.02,0.29,0.02c0.099-0.01,0.197,0.059,0.293,0.049
		c0.098-0.005,0.194-0.024,0.29-0.029c0.099-0.01,0.199,0.079,0.298,0.074c0.098-0.005,0.174-0.291,0.268-0.296
		c0.098-0.005,0.209,0.246,0.305,0.241c0.098-0.01,0.192,0,0.285-0.01c0.098,0,0.185-0.157,0.283-0.162
		c0.099-0.005,0.192-0.094,0.291-0.094c0.091,0,0.177,0,0.268,0s0.177,0.005,0.263,0c0.091,0,0.197,0.256,0.283,0.246
		c0.091-0.005,0.138-0.324,0.227-0.345c0.088-0.015,0.185,0.055,0.266,0.025c0.083-0.03,0.258,0.112,0.334,0.063
		c0.076-0.039,0.01-0.295,0.076-0.354c0.062-0.059,0.037-0.162,0.091-0.235c0.046-0.069,0.214-0.06,0.256-0.138
		c0.037-0.079-0.025-0.188,0.005-0.276c0.022-0.063,0.155-0.201,0.241-0.24c0.077-0.035,0.241,0.015,0.303-0.021
		c0.04,0.084-0.015,0.251,0.024,0.335c0.04,0.084,0.261,0.054,0.315,0.123c0.052,0.059,0.037,0.196,0.091,0.271
		c0.054,0.074,0.133,0.123,0.192,0.187c0.071,0.079,0.071,0.34,0.147,0.345c0.091,0.005,0.182,0,0.273,0.005
		c0.091,0,0.18,0.034,0.271,0.034c0.091,0.005,0.189-0.295,0.281-0.295c0.091,0.005,0.177,0.231,0.268,0.231
		c0.088,0,0.185-0.167,0.275-0.167c0.088,0,0.18-0.069,0.271-0.064c0.091,0,0.177,0.271,0.268,0.271
		c0.091,0,0.182-0.187,0.273-0.187c0.089,0,0.18-0.079,0.271-0.079c0.091,0,0.177,0.231,0.268,0.231
		c0.091,0,0.182-0.108,0.271-0.108c0.091,0,0.187-0.104,0.273-0.099c0.091,0,0.175,0.266,0.263,0.271
		c0.111,0,0.199-0.172,0.283-0.187c0.105-0.02,0.297,0.143,0.369,0.094c0.083-0.05,0.194-0.192,0.241-0.28
		c0.042-0.074,0.101-0.207,0.123-0.306c0.017-0.088-0.192-0.222-0.182-0.324c0.007-0.094,0.029-0.183,0.037-0.275
		c0.007-0.094,0.147-0.173,0.16-0.266c0.007-0.089-0.098-0.192-0.088-0.286c0.012-0.088,0.012-0.182,0.022-0.275
		c0.012-0.089,0.044-0.177,0.054-0.266c0.012-0.094-0.111-0.201-0.099-0.295c0.013-0.089,0.219-0.157,0.234-0.246
		s-0.128-0.207-0.113-0.295c0.015-0.089,0.246-0.147,0.266-0.236c0.012-0.089-0.022-0.188-0.005-0.275
		c0.017-0.094,0.135-0.162,0.153-0.251c0.017-0.089-0.189-0.227-0.167-0.32c0.022-0.088,0.022-0.182,0.044-0.275
		c0.022-0.088,0.118-0.157,0.145-0.246c0.024-0.088-0.052-0.206-0.027-0.295c0.027-0.089,0.013-0.196,0.037-0.285
		c0.027-0.084,0.165-0.143,0.192-0.227c0.035-0.089,0.027-0.196,0.059-0.275c0.037-0.089,0.244-0.099,0.283-0.187
		c0.035-0.079-0.052-0.227-0.012-0.306c0.042-0.083,0.042-0.187,0.083-0.266c0.044-0.088,0.025-0.201,0.069-0.28
		c0.044-0.084,0.322-0.034,0.367-0.113c0.047-0.078-0.015-0.222,0.03-0.3c0.046-0.079,0.162-0.113,0.209-0.197
		c0.046-0.078,0.13-0.138,0.177-0.211c0.047-0.079,0.062-0.178,0.108-0.256c0.049-0.079,0.088-0.163,0.13-0.241
		c0.049-0.084,0.18-0.113,0.222-0.192c0.044-0.078-0.032-0.226,0.012-0.314c0.042-0.079,0.138-0.138,0.177-0.217
		c0.044-0.078,0.022-0.196,0.062-0.275c0.04-0.079,0.072-0.167,0.108-0.246c0.037-0.089,0.106-0.158,0.138-0.241
		c0.037-0.094,0.231-0.044,0.327-0.113c0.071-0.054,0.158-0.083,0.234-0.133c0.073-0.054,0.12-0.143,0.196-0.192
		c0.071-0.049,0.17-0.074,0.244-0.123c0.071-0.054,0.155-0.093,0.233-0.143c0.069-0.059-0.059-0.374,0.015-0.433
		c0.074-0.049,0.241,0.025,0.311-0.034c0.073-0.054,0.078-0.211,0.147-0.271c0.078-0.059,0.241,0,0.314-0.054
		c0.079-0.059,0.05-0.261,0.123-0.315c0.074-0.054,0.311,0.113,0.389,0.059c0.079-0.054,0.108-0.177,0.188-0.227
		c0.078-0.054,0.088-0.211,0.167-0.261c0.078-0.049,0.147-0.128,0.227-0.177c0.078-0.049,0.167-0.089,0.251-0.133
		c0.083-0.044,0.167-0.094,0.25-0.133c0.084-0.049,0.256,0.088,0.345,0.044c0.084-0.044,0.147-0.133,0.227-0.172
		c0.089-0.04,0.147-0.138,0.236-0.172c0.083-0.035,0.206,0.015,0.295-0.02c0.089-0.035,0.108-0.241,0.196-0.271
		c0.084-0.029,0.266,0.182,0.354,0.153c0.089-0.03,0.108-0.261,0.202-0.286c0.093-0.029,0.177-0.074,0.271-0.103
		c0.089-0.025,0.191,0,0.285-0.025c0.089-0.024,0.212,0.084,0.305,0.064c0.089-0.024,0.173-0.079,0.261-0.098
		c0.094-0.02,0.197,0.029,0.291,0.02c0.088-0.02,0.187,0,0.275-0.015c0.098-0.015,0.177-0.083,0.266-0.099
		c0.099-0.01,0.187-0.069,0.275-0.079c0.094-0.01,0.187,0.015,0.285,0.01c0.089-0.005,0.177-0.182,0.266-0.182
		c0.099-0.005,0.192-0.01,0.285-0.02c0.099,0,0.197,0.03,0.286,0.04c0.098,0,0.187,0.083,0.275,0.088
		c0.093,0.01,0.187,0.02,0.275,0.03c0.093,0.01,0.196-0.089,0.295-0.069c0.089,0.01,0.187,0.01,0.28,0.029
		c0.094,0.015,0.173,0.099,0.266,0.118c0.094,0.02,0.143,0.197,0.231,0.221c0.089,0.02,0.187,0.02,0.275,0.044
		c0.089,0.029,0.178,0.049,0.266,0.079c0.089,0.025,0.192,0,0.28,0.03c0.089,0.029,0.231-0.094,0.315-0.064
		c0.088,0.029,0.088,0.33,0.172,0.359c0.089,0.025,0.197,0,0.285,0.03c0.089,0.029,0.178,0.054,0.266,0.083
		c0.089,0.029,0.202-0.005,0.286,0.024c0.088,0.025,0.216-0.044,0.3-0.015c0.089,0.03,0.167,0.083,0.261,0.113
		c0.084,0.029,0.118,0.251,0.206,0.275c0.089,0.025,0.192,0.015,0.286,0.04c0.088,0.024,0.196-0.01,0.285,0.015
		s0.177,0.054,0.271,0.074s0.191-0.01,0.28,0c0.074,0.01,0.079,0.108,0.143,0.187c0.055,0.069,0.157,0.108,0.207,0.163
		c0.054,0.063,0.191,0.063,0.241,0.133c0.059,0.064-0.05,0.266,0.005,0.334c0.054,0.059,0.191,0.059,0.246,0.128
		c0.054,0.069,0.152,0.103,0.201,0.167c0.06,0.069,0.188,0.059,0.246,0.128c0.059,0.064-0.069,0.305-0.01,0.364
		c0.068,0.064,0.227,0.034,0.29,0.098c0.064,0.069,0.192,0.074,0.256,0.143c0.064,0.069-0.083,0.325-0.02,0.389
		c0.063,0.069,0.113,0.138,0.172,0.207c0.064,0.069,0.306-0.02,0.364,0.049c0.06,0.069,0.049,0.202,0.108,0.271
		c0.054,0.074,0,0.226,0.054,0.3c0.06,0.068,0.306-0.005,0.359,0.068c0.055,0.069,0.06,0.178,0.118,0.256
		c0.049,0.079,0.231,0.06,0.285,0.138c0.05,0.079-0.049,0.256,0,0.33c0.055,0.073,0.217,0.083,0.266,0.162
		c0.05,0.074-0.02,0.222,0.03,0.305c0.049,0.079,0.177,0.104,0.226,0.183c0.05,0.078,0.01,0.206,0.055,0.285
		c0.044,0.084-0.055,0.236-0.015,0.314c0.044,0.084,0.226,0.094,0.266,0.173c0.039,0.083,0.068,0.167,0.107,0.246
		c0.04,0.088,0.011,0.196,0.05,0.285c0.034,0.078,0.078,0.167,0.118,0.256c0.049,0.078,0.133,0.138,0.177,0.216
		c0.049,0.084,0.197,0.099,0.246,0.178c0.049,0.078,0.123,0.138,0.172,0.216c0.05,0.079,0.055,0.188,0.094,0.266
		c0.049,0.084,0.157,0.139,0.197,0.217c0.039,0.084,0.059,0.188,0.098,0.271c0.03,0.089,0.01,0.197,0.03,0.29
		c0.02,0.084-0.05,0.188-0.03,0.276c0.01,0.088,0.03,0.177,0.04,0.266c0.01,0.088,0.029,0.177,0.044,0.266
		c0.005,0.088,0.138,0.167,0.143,0.256c0.005,0.093,0.064,0.187,0.069,0.275c0,0.088-0.335,0.187-0.335,0.275s0.01,0.177,0.01,0.266
		c0,0.094-0.02,0.177-0.02,0.271c0,0.089,0.319,0.182,0.319,0.275c0,0.089-0.005,0.183-0.005,0.271c0,0.089-0.068,0.178-0.068,0.266
		c-0.005,0.099-0.079,0.188-0.079,0.271c0,0.099,0.099,0.183,0.099,0.271c0,0.099-0.162,0.197-0.157,0.276
		c0.01,0.098,0.029,0.196,0.049,0.275c0.024,0.098,0.02,0.246,0.079,0.305c0.049,0.059,0.187,0.118,0.285,0.147
		c0.074,0.02,0.177,0.084,0.275,0.099c0.079,0.005,0.182-0.123,0.285-0.118c0.084,0,0.168,0.015,0.266,0.015
		c0.089,0,0.173-0.133,0.271-0.133c0.055,0,0.118,0.099,0.178,0.104c0.099,0.01,0.191,0.094,0.275,0.084
		c0.104-0.005,0.201-0.045,0.275-0.074c0.094-0.034,0.063-0.202,0.123-0.271c0.059-0.06,0.261-0.029,0.295-0.118
		c0.029-0.079-0.128-0.207-0.108-0.305c0.01-0.084,0.035-0.158,0.04-0.256c0-0.099,0.256-0.188,0.266-0.286
		c0-0.088,0.015-0.187,0.02-0.285c0-0.088-0.207-0.196-0.197-0.295c0-0.094-0.123-0.197-0.118-0.295
		c0.005-0.099,0.099-0.188,0.108-0.285c0.005-0.094,0.01-0.188,0.02-0.286c0.011-0.093-0.059-0.196-0.054-0.295s0-0.187,0.005-0.285
		c0.01-0.094,0.049-0.188,0.054-0.28c0.006-0.094-0.005-0.192,0.006-0.291c0.005-0.088,0.344-0.167,0.349-0.266
		c0.005-0.093-0.28-0.206-0.28-0.305c0.005-0.094,0.285-0.177,0.295-0.275c0-0.094-0.3-0.202-0.3-0.295
		c0-0.094,0.222-0.188,0.222-0.286c0-0.088-0.015-0.187-0.015-0.285c0-0.098-0.163-0.182-0.173-0.28
		c-0.005-0.094,0.113-0.206,0.099-0.3c-0.015-0.099,0.069-0.212,0.049-0.306c-0.02-0.093-0.344-0.117-0.363-0.211
		c-0.025-0.094-0.01-0.192-0.03-0.29c-0.02-0.094-0.059-0.183-0.078-0.276c-0.02-0.098-0.055-0.187-0.079-0.285
		c-0.015-0.093-0.044-0.196-0.059-0.285s0.138-0.207,0.138-0.295c-0.01-0.089-0.188-0.178-0.192-0.266
		c0-0.089,0.133-0.188,0.138-0.275c0.005-0.089,0.055-0.178,0.055-0.266c0.01-0.089-0.06-0.188-0.05-0.276
		c0.005-0.098,0.025-0.196,0.035-0.295c0.015-0.098,0.098-0.177,0.113-0.275c0.015-0.098-0.123-0.216-0.108-0.315
		c0.02-0.098,0.049-0.187,0.063-0.285c0.015-0.099,0.354-0.147,0.369-0.246c0.01-0.098-0.029-0.207-0.024-0.305
		c0.005-0.088-0.055-0.187-0.055-0.285c0-0.093-0.226-0.187-0.226-0.275c0-0.099,0-0.187,0-0.281
		c-0.005-0.093,0.226-0.197,0.226-0.29c-0.005-0.093,0-0.187,0-0.28c-0.005-0.094-0.157-0.182-0.157-0.276
		c0-0.093,0.108-0.187,0.108-0.28c0-0.098-0.187-0.197-0.187-0.285c0.005-0.089,0.246-0.138,0.266-0.222
		c0.02-0.083-0.005-0.172,0.02-0.251c0.029-0.079,0.078-0.157,0.099-0.236c0.029-0.083,0.117-0.158,0.138-0.236
		c0.02-0.088-0.236-0.197-0.236-0.275c0-0.099,0.246-0.197,0.246-0.285c-0.005-0.099,0.005-0.192,0-0.286
		c0-0.093-0.256-0.177-0.266-0.266c-0.005-0.098,0.187-0.197,0.187-0.29c-0.01-0.094-0.271-0.177-0.275-0.271
		c0-0.093,0.079-0.187,0.079-0.285c0-0.088-0.06-0.187-0.05-0.28c0-0.094,0.015-0.187,0.02-0.281c0-0.098,0.138-0.177,0.147-0.275
		c0.011-0.088-0.01-0.187,0-0.28c0.016-0.094,0.089-0.172,0.108-0.266c0.015-0.089-0.063-0.202-0.044-0.291
		c0.024-0.093,0.015-0.197,0.034-0.285c0.029-0.088,0.285-0.138,0.301-0.231c0.01-0.093-0.241-0.211-0.241-0.305
		c0-0.094,0.241-0.192,0.236-0.291c-0.011-0.093-0.256-0.167-0.267-0.261c-0.01-0.093,0.217-0.216,0.207-0.315
		c-0.02-0.093-0.02-0.187-0.029-0.28c-0.015-0.099-0.212-0.157-0.227-0.256c-0.015-0.093-0.029-0.187-0.049-0.28
		c-0.01-0.094,0.088-0.251,0.078-0.345c-0.088,0-0.23,0.158-0.324,0.158c-0.089,0-0.183-0.133-0.275-0.133
		c-0.089,0-0.183-0.069-0.275-0.059c-0.089,0-0.188,0.088-0.276,0.088c-0.088,0-0.187-0.034-0.275-0.034
		c-0.088,0-0.187,0.034-0.275,0.034c-0.088,0-0.187,0.025-0.275,0.025s-0.187-0.035-0.275-0.035s-0.187-0.108-0.275-0.108
		s-0.188,0-0.275,0c-0.089,0-0.188,0.148-0.275,0.148c-0.089,0-0.188,0.093-0.276,0.093c-0.088,0-0.187-0.152-0.275-0.152
		c-0.088,0-0.187,0.113-0.275,0.113c-0.088,0-0.187-0.025-0.275-0.025s-0.187-0.103-0.275-0.103s-0.187-0.015-0.275-0.015
		s-0.188-0.113-0.275-0.113c-0.089,0-0.183,0.187-0.275,0.187c-0.089,0-0.183-0.123-0.275-0.123c-0.089,0-0.183,0.02-0.276,0.02
		c-0.088,0-0.182,0.069-0.275,0.069c-0.098,0-0.187,0.098-0.28,0.098s-0.182,0.015-0.28,0.015c-0.094,0-0.182,0.034-0.275,0.034
		c-0.099,0-0.188-0.266-0.275-0.271c-0.104,0-0.178,0.236-0.256,0.251c-0.104,0.02-0.285-0.158-0.354-0.118
		c-0.079,0.049-0.227,0.147-0.266,0.231c-0.039,0.074,0.099,0.246,0.084,0.349c-0.01,0.079-0.025,0.172-0.015,0.275
		c0.01,0.089,0.191,0.167,0.196,0.256c0.01,0.089-0.295,0.207-0.285,0.3c0.01,0.088,0.157,0.172,0.162,0.261
		c0.005,0.088-0.094,0.187-0.089,0.275c0.005,0.094-0.034,0.177-0.034,0.271c0,0.094,0,0.172-0.005,0.266
		c-0.005,0.069,0.089,0.153,0.039,0.231c-0.044,0.069-0.123,0.108-0.182,0.162c-0.069,0.064-0.104,0.182-0.172,0.197
		c-0.094,0.02-0.178,0.074-0.271,0.094c-0.089,0.02-0.188,0.024-0.276,0.039c-0.088,0.015-0.206-0.088-0.295-0.079
		c-0.094,0.02-0.177,0.079-0.271,0.089c-0.094,0.01-0.172,0.138-0.266,0.152s-0.187,0.005-0.28,0.015
		c-0.099,0.01-0.183,0.104-0.275,0.108c-0.089,0.01-0.207-0.231-0.295-0.227c-0.099,0.01-0.188,0.064-0.276,0.069
		c-0.098,0.01-0.187,0.015-0.28,0.02s-0.182,0.157-0.271,0.167c-0.099,0-0.196-0.241-0.295-0.236c-0.089,0-0.177,0.143-0.275,0.147
		c-0.089,0-0.183,0.128-0.275,0.128c-0.089,0.005-0.188-0.241-0.286-0.241c-0.088,0.005-0.177,0.211-0.275,0.211
		c-0.088,0.005-0.182,0.064-0.275,0.064c-0.099,0-0.187-0.088-0.285-0.083c-0.089,0-0.187-0.182-0.28-0.182
		c-0.094,0.005-0.183,0.251-0.271,0.261c-0.099,0-0.188,0.01-0.28,0.015c-0.094,0.005-0.202-0.291-0.291-0.291
		c-0.098,0.005-0.177,0.325-0.275,0.33s-0.196-0.02-0.295-0.015c-0.099,0-0.187,0.035-0.285,0.04c-0.099,0-0.202-0.197-0.301-0.197
		c-0.093,0.01-0.191,0.02-0.29,0.024s-0.182,0.216-0.28,0.216c-0.099,0.005-0.207-0.295-0.3-0.29c-0.099,0-0.188,0.128-0.285,0.128
		c-0.099,0.005-0.197-0.049-0.296-0.044c-0.098,0.005-0.187,0.113-0.285,0.118s-0.207-0.187-0.305-0.182
		c-0.094,0.01-0.178,0.222-0.275,0.227c-0.099,0.01-0.188,0.138-0.286,0.147c-0.098,0.005-0.216-0.33-0.314-0.325
		c-0.099,0.01-0.197,0.118-0.29,0.138c-0.094,0.02-0.212,0-0.301,0.029c-0.098,0.025-0.117,0.291-0.216,0.315
		c-0.094,0.03-0.202,0.015-0.301,0.03c-0.093,0.015-0.201-0.099-0.3-0.099c-0.089,0-0.222,0.197-0.324,0.177
		c-0.089-0.02-0.202-0.064-0.296-0.099c-0.107-0.039-0.191-0.069-0.275-0.098c-0.108-0.04-0.108-0.33-0.196-0.359
		c-0.108-0.034-0.246,0.074-0.325,0.044c-0.108-0.044-0.227-0.064-0.295-0.118c-0.069-0.064-0.212-0.147-0.248-0.246
		c-0.03-0.079,0.12-0.226,0.101-0.344c-0.013-0.083-0.089-0.172-0.101-0.285c-0.008-0.089-0.079-0.177-0.087-0.286
		c-0.007-0.098,0.064-0.187,0.055-0.275c-0.015-0.098-0.008-0.187-0.029-0.266c-0.025-0.093-0.18-0.123-0.217-0.197
		c-0.039-0.088,0.068-0.256,0.01-0.325c-0.057-0.064-0.177-0.074-0.253-0.123c-0.071-0.044-0.091-0.246-0.177-0.28
		c-0.079-0.03-0.189-0.079-0.278-0.099c-0.083-0.01-0.197,0-0.29,0c-0.084-0.005-0.185,0.069-0.281,0.069
		c-0.088,0.005-0.185-0.02-0.275-0.02c-0.088,0.01-0.177,0.064-0.268,0.069c-0.088,0.01-0.165,0.216-0.253,0.227
		c-0.088,0.005-0.199-0.236-0.29-0.231c-0.089,0.005-0.163,0.221-0.253,0.227c-0.089,0.005-0.192-0.113-0.281-0.104
		c-0.091,0.005-0.179,0.059-0.266,0.069c-0.091,0.005-0.169,0.147-0.261,0.152c-0.093,0.005-0.209-0.314-0.305-0.3
		c-0.094,0.005-0.177,0.118-0.269,0.128c-0.093,0.01-0.192-0.079-0.285-0.069c-0.093,0.01-0.167,0.261-0.258,0.266
		c-0.093,0.01-0.187-0.01-0.278-0.005c-0.094,0.005-0.185,0.01-0.278,0.015c-0.096,0.01-0.182,0.079-0.273,0.088
		c-0.093,0.01-0.199-0.157-0.292-0.147c-0.094,0.01-0.175,0.167-0.266,0.177c-0.094,0.005-0.187,0-0.278,0.01
		C21.828,18,21.736,18,21.641,18.004c-0.093,0.01-0.18,0.069-0.273,0.074c-0.096,0.005-0.182,0.064-0.273,0.074
		c-0.094,0.01-0.192-0.049-0.283-0.044c-0.091,0.005-0.185,0.034-0.275,0.039s-0.187-0.034-0.278-0.024
		C20.165,18.123,19.973,17.955,19.877,17.965z M13.006,35.253c0.096,0.024,0.143-0.187,0.241-0.167
		c0.098,0.024,0.185,0.089,0.28,0.108c0.096,0.024,0.158,0.206,0.253,0.227c0.096,0.024,0.194,0.044,0.29,0.068
		c0.096,0.02,0.18,0.128,0.273,0.143c0.098,0.015,0.207-0.015,0.305,0c0.099,0.015,0.231-0.241,0.33-0.231
		c0.084,0.011,0.189,0.306,0.288,0.296c0.093-0.02,0.14-0.246,0.224-0.285c0.094-0.04,0.187-0.05,0.244-0.108
		c0.057-0.069,0.071-0.192,0.143-0.256c0.066-0.06,0.295,0.088,0.367,0.034c0.074-0.049,0.143-0.084,0.221-0.133
		c0.076-0.049,0.113-0.147,0.192-0.187c0.079-0.04,0.108-0.188,0.192-0.227c0.084-0.04,0.128-0.183,0.214-0.217
		c0.083-0.029,0.268,0.236,0.354,0.212c0.088-0.024,0.15-0.113,0.236-0.133c0.091-0.02,0.155-0.138,0.243-0.152
		c0.091-0.016,0.185,0.034,0.276,0.029c0.091-0.005,0.177-0.045,0.263-0.045c0.096,0,0.189-0.093,0.275-0.088
		c0.093,0.01,0.152,0.201,0.236,0.216c0.091,0.021,0.261-0.226,0.339-0.191c0.103,0.039,0.121,0.35,0.211,0.359
		c0.104,0.02,0.246-0.02,0.332-0.04c0.104-0.024,0.083-0.295,0.165-0.344c0.079-0.06,0.33,0.068,0.386-0.01
		c0.059-0.079-0.047-0.266-0.007-0.35c0.037-0.074-0.022-0.133-0.022-0.231c0-0.088,0.16-0.187,0.138-0.275
		c-0.022-0.089-0.249-0.099-0.285-0.182c-0.037-0.089,0.123-0.266,0.076-0.335c-0.052-0.073-0.244-0.034-0.3-0.104
		c-0.059-0.068-0.113-0.128-0.179-0.187c-0.064-0.064,0.042-0.305-0.025-0.369c-0.064-0.063-0.145-0.108-0.209-0.172
		c-0.066-0.06-0.29,0.039-0.356-0.02c-0.064-0.069-0.035-0.222-0.094-0.291c-0.057-0.068-0.202-0.083-0.251-0.162
		c-0.046-0.079,0.042-0.227,0.007-0.314c-0.032-0.079-0.064-0.158-0.081-0.246c-0.015-0.084-0.143-0.173-0.143-0.266
		c0-0.089,0.207-0.158,0.224-0.246c0.008-0.055,0.005-0.256-0.054-0.325c-0.047-0.059-0.17-0.118-0.224-0.147
		c-0.076-0.049-0.16-0.089-0.239-0.128c-0.081-0.039-0.219,0.029-0.292-0.01c-0.081-0.039-0.099-0.196-0.18-0.236
		c-0.079-0.039-0.187-0.02-0.263-0.063c-0.081-0.039-0.214,0.024-0.29-0.02c-0.076-0.045-0.177-0.06-0.251-0.104
		c-0.074-0.05-0.116-0.157-0.185-0.207c-0.064-0.049-0.002-0.226-0.064-0.3c-0.059-0.064-0.083-0.123-0.13-0.202
		c-0.047-0.078-0.108-0.112-0.138-0.191c-0.032-0.094-0.246-0.138-0.246-0.222c0.002-0.093,0.199-0.191,0.192-0.275
		c-0.007-0.093-0.088-0.192-0.113-0.275c-0.024-0.083-0.214-0.088-0.261-0.167c-0.046-0.069-0.123-0.083-0.192-0.147
		c-0.062-0.059,0-0.261-0.079-0.315c-0.069-0.049-0.16-0.079-0.219-0.152c-0.049-0.069-0.209-0.094-0.249-0.182
		c-0.042-0.079,0.101-0.236,0.071-0.325s-0.16-0.147-0.177-0.236c-0.017-0.083-0.116-0.162-0.13-0.256
		c-0.015-0.088,0.099-0.196,0.084-0.285c-0.015-0.093-0.128-0.167-0.143-0.256c-0.015-0.088,0.099-0.207,0.084-0.29
		c-0.018-0.094,0.051-0.202,0.029-0.291c-0.022-0.088-0.135-0.157-0.162-0.236c-0.03-0.089-0.02-0.197-0.054-0.276
		c-0.042-0.088-0.244-0.069-0.295-0.143c-0.049-0.074,0.083-0.3,0.022-0.364c-0.062-0.064-0.246-0.005-0.322-0.064
		c-0.069-0.049-0.194,0.01-0.278-0.04c-0.076-0.04-0.02-0.379-0.105-0.413c-0.079-0.035-0.244,0.152-0.337,0.128
		c-0.091-0.03-0.167-0.138-0.253-0.207c-0.079-0.064-0.236-0.069-0.305-0.152s-0.14-0.192-0.185-0.28
		c-0.044-0.089,0.121-0.276,0.076-0.364c-0.044-0.088-0.308-0.074-0.347-0.167c-0.042-0.089,0.081-0.251,0.047-0.345
		c-0.04-0.088,0.015-0.216-0.027-0.31c-0.039-0.088-0.249-0.103-0.288-0.192c-0.042-0.093-0.074-0.187-0.111-0.275
		c-0.04-0.088-0.027-0.202-0.064-0.295c-0.04-0.089-0.155-0.143-0.197-0.231c-0.04-0.093,0.091-0.261,0.049-0.349
		c-0.042-0.083-0.303-0.025-0.374-0.094c-0.074-0.069-0.145-0.064-0.229-0.103c-0.086-0.04-0.106-0.236-0.2-0.266
		c-0.091-0.02-0.192,0.01-0.29-0.01c-0.093-0.01-0.185-0.04-0.283-0.04c-0.094,0-0.194-0.069-0.293-0.064
		c-0.093,0.005-0.192,0.034-0.29,0.044c-0.094,0.02-0.217-0.054-0.308-0.03c-0.094,0.02-0.108,0.315-0.199,0.344
		c-0.091,0.03-0.275-0.177-0.362-0.138c-0.091,0.035-0.192,0.069-0.275,0.118c-0.088,0.04-0.098,0.227-0.177,0.28
		c-0.083,0.054-0.105,0.172-0.177,0.236c-0.077,0.064-0.138,0.118-0.205,0.182c-0.056,0.064-0.147,0.128-0.231,0.177
		c-0.076,0.049-0.266-0.148-0.352-0.113c-0.086,0.034-0.091,0.354-0.177,0.369c-0.099,0.015-0.219-0.074-0.3-0.089
		c-0.098-0.02-0.18-0.231-0.273-0.236c-0.099,0-0.182,0.246-0.275,0.266c-0.094,0.01-0.138,0.118-0.224,0.147
		c-0.091,0.04-0.224-0.064-0.305-0.01c-0.079,0.049-0.084,0.177-0.153,0.241c-0.069,0.063-0.098,0.127-0.152,0.211
		c-0.054,0.074-0.17,0.098-0.207,0.187c-0.035,0.088-0.192,0.133-0.217,0.226c-0.022,0.088,0.175,0.211,0.167,0.305
		c-0.007,0.098-0.091,0.177-0.081,0.275c0.012,0.088,0.049,0.202,0.034,0.3c-0.015,0.093-0.261,0.128-0.295,0.221
		c-0.027,0.088-0.049,0.167-0.089,0.256c-0.042,0.083-0.103,0.143-0.152,0.221c-0.052,0.084,0.14,0.335,0.083,0.409
		c-0.054,0.069-0.29,0-0.344,0.069s0.027,0.246-0.022,0.315c-0.052,0.069-0.04,0.177-0.084,0.256
		c-0.046,0.074-0.322,0.024-0.359,0.108C4.375,24.853,4.52,25,4.493,25.089c-0.027,0.083,0.032,0.167,0.02,0.256
		c-0.01,0.088-0.246,0.157-0.246,0.246c0.005,0.088,0.121,0.167,0.136,0.266c0.015,0.079,0.123,0.167,0.125,0.256
		c0.005,0.083-0.263,0.162-0.271,0.246c-0.007,0.088,0.148,0.197,0.13,0.275c-0.02,0.088-0.246,0.108-0.273,0.192
		c-0.024,0.083-0.032,0.152-0.069,0.231c-0.04,0.084-0.086,0.167-0.123,0.251c-0.034,0.084,0.135,0.261,0.104,0.35
		c-0.037,0.083-0.081,0.167-0.111,0.256c-0.032,0.088-0.187,0.138-0.211,0.227c-0.027,0.088,0.062,0.211,0.042,0.305
		c-0.017,0.089-0.024,0.177-0.037,0.275c-0.01,0.089-0.035,0.177-0.04,0.275c0,0.089,0.138,0.162,0.15,0.256
		c0.01,0.089-0.167,0.212-0.146,0.305c0.022,0.084,0.194,0.128,0.229,0.217c0.027,0.084-0.138,0.256-0.099,0.345
		c0.04,0.078,0.133,0.147,0.185,0.227c0.047,0.083-0.012,0.196,0.03,0.29c0.034,0.083,0.283,0.093,0.31,0.187
		c0.027,0.094,0.069,0.183,0.089,0.28c0.017,0.099-0.044,0.207-0.037,0.301c0.01,0.093,0.121,0.191,0.121,0.285
		c0,0.099,0.042,0.211,0.032,0.305c-0.013,0.099-0.136,0.192-0.153,0.28c-0.022,0.099-0.012,0.212-0.044,0.296
		c-0.035,0.088-0.241,0.112-0.271,0.196c-0.029,0.094,0.086,0.222,0.069,0.311c-0.02,0.093,0.015,0.182,0.008,0.275
		c-0.008,0.093,0.056,0.172,0.061,0.266c0.003,0.093-0.25,0.211-0.236,0.3c0.017,0.094,0.16,0.157,0.192,0.246
		c0.032,0.084-0.002,0.206,0.044,0.285c0.047,0.079,0.069,0.197,0.13,0.266c0.057,0.069,0.16,0.118,0.231,0.183
		c0.069,0.054,0.155,0.107,0.239,0.157c0.076,0.049,0.128,0.182,0.214,0.221c0.083,0.04,0.229-0.059,0.32-0.029
		c0.086,0.02,0.167,0.099,0.261,0.118c0.086,0.02,0.187-0.029,0.275,0c0.083,0.024,0.172,0.05,0.256,0.089
		c0.083,0.034,0.15,0.104,0.229,0.147c0.079,0.039,0.091,0.177,0.16,0.231c0.076,0.054,0.113,0.118,0.175,0.182
		c0.069,0.064,0.18,0.099,0.246,0.138c0.079,0.05,0.172,0.138,0.248,0.162c0.089,0.025,0.227,0.05,0.31,0.045
		c0.081-0.01,0.079-0.35,0.163-0.384c0.071-0.034,0.209,0.073,0.285,0.029c0.086-0.059,0.086-0.217,0.167-0.285
		c0.076-0.074,0.253-0.039,0.325-0.118c0.074-0.074,0.012-0.28,0.083-0.354c0.069-0.068,0.322,0.064,0.389,0.01
		c0.076-0.063,0.098-0.177,0.175-0.211c0.088-0.04,0.165-0.192,0.253-0.197c0.088-0.005,0.246-0.005,0.332,0.034
		c0.074,0.04,0.177,0.128,0.251,0.202c0.056,0.059,0.133,0.152,0.191,0.231c0.062,0.088-0.032,0.29,0.032,0.354
		c0.079,0.074,0.204,0.094,0.285,0.128c0.099,0.04,0.189-0.015,0.283-0.029c0.091-0.02,0.214,0.029,0.305-0.039
		c0.072-0.054,0.008-0.246,0.077-0.33c0.071-0.083,0.327,0.025,0.389-0.024c0.088-0.078,0.081-0.3,0.162-0.314
		c0.099-0.02,0.256-0.005,0.347,0.049c0.077,0.039,0.138,0.157,0.212,0.241c0.062,0.069,0.017,0.231,0.076,0.31
		c0.049,0.069,0.111,0.118,0.143,0.197c0.035,0.084,0.076,0.266,0.113,0.345c0.074-0.06,0.292-0.148,0.366-0.207
		c0.015-0.084-0.007-0.231,0.008-0.325c0.015-0.078-0.02-0.172,0-0.266C12.938,35.332,12.987,35.352,13.006,35.253z M37.231,37.251
		c0,0.005,0.005-0.246,0.005-0.246c0.094,0,0.182,0.049,0.275,0.049c0.089,0,0.178,0.162,0.275,0.162
		c0.089,0,0.178,0.005,0.275,0.005c0.089,0,0.178,0.084,0.276,0.084c0.088,0,0.182-0.054,0.275-0.049
		c0.088,0,0.182-0.275,0.275-0.275c0.089,0,0.177,0.305,0.275,0.305c0.089,0,0.182-0.212,0.275-0.212c0.089,0,0.177,0.04,0.275,0.04
		c0.089,0,0.183-0.074,0.275-0.069c0.089,0,0.178,0.251,0.275,0.251c0.089,0,0.183,0.01,0.276,0.01c0.088,0,0.182-0.073,0.271-0.073
		c0.093,0,0.182-0.118,0.275-0.118c0.093,0,0.182-0.123,0.275-0.123s0.187,0.31,0.275,0.31c0.094,0,0.182-0.063,0.275-0.063
		s0.183-0.104,0.275-0.104c0.094,0,0.183,0.068,0.275,0.068c0.104,0,0.202-0.029,0.291-0.039c0.107,0,0.196-0.099,0.275-0.108
		c0.118-0.01,0.271,0.138,0.344,0.099c0.089-0.039-0.049-0.285-0.01-0.379c0.03-0.074,0.335-0.099,0.345-0.212
		c0.01-0.078-0.029-0.187-0.029-0.3c-0.005-0.084-0.266-0.172-0.271-0.28c-0.005-0.089,0.261-0.197,0.251-0.29
		c-0.01-0.094-0.202-0.173-0.207-0.261c-0.01-0.089-0.089-0.178-0.094-0.266c-0.015-0.094,0.152-0.207,0.138-0.296
		c-0.015-0.093-0.241-0.152-0.251-0.246c-0.02-0.088,0.192-0.211,0.178-0.305c-0.015-0.089-0.202-0.152-0.217-0.246
		c-0.02-0.088-0.039-0.177-0.054-0.266s0.206-0.231,0.182-0.324c-0.02-0.089-0.059-0.178-0.079-0.266
		c-0.024-0.089-0.266-0.118-0.295-0.212c-0.02-0.089,0.069-0.212,0.05-0.295c-0.03-0.089-0.158-0.143-0.188-0.231
		s0.079-0.222,0.05-0.31c-0.03-0.084-0.069-0.173-0.104-0.256c-0.035-0.089-0.178-0.133-0.212-0.212
		c-0.029-0.089,0.118-0.251,0.079-0.335c-0.035-0.088-0.005-0.201-0.045-0.285c-0.034-0.089-0.103-0.162-0.143-0.246
		c-0.039-0.083-0.088-0.167-0.128-0.246c-0.039-0.088-0.196-0.112-0.241-0.191c-0.044-0.079,0.025-0.222-0.024-0.305
		c-0.044-0.079-0.147-0.123-0.196-0.207c-0.05-0.079-0.197-0.094-0.246-0.172c-0.055-0.074-0.133-0.128-0.188-0.207
		c-0.049-0.079-0.049-0.187-0.107-0.266c-0.05-0.079,0.039-0.256-0.021-0.33c-0.059-0.073-0.107-0.162-0.162-0.235
		c-0.059-0.074-0.152-0.123-0.211-0.202c-0.06-0.068-0.276-0.01-0.34-0.079c-0.064-0.073,0.015-0.275-0.044-0.344
		c-0.069-0.069-0.183-0.099-0.246-0.167c-0.069-0.059-0.251-0.005-0.325-0.069c-0.068-0.069-0.167-0.083-0.241-0.147
		c-0.073-0.059-0.024-0.271-0.093-0.325c-0.074-0.059-0.178-0.079-0.256-0.133c-0.079-0.054-0.227,0-0.306-0.054
		c-0.078-0.049-0.059-0.256-0.143-0.3c-0.083-0.049-0.217,0.005-0.3-0.034c-0.084-0.04-0.197,0-0.285-0.04
		c-0.089-0.039-0.123-0.192-0.212-0.226c-0.084-0.03-0.207,0.034-0.3,0.005c-0.089-0.03-0.138-0.177-0.231-0.202
		c-0.094-0.02-0.162-0.138-0.251-0.153c-0.089-0.015-0.202,0.054-0.29,0.035c-0.094-0.02-0.178-0.089-0.271-0.099
		c-0.089-0.01-0.197,0.167-0.291,0.158c-0.093-0.01-0.172-0.256-0.261-0.256c-0.093-0.005-0.187,0.167-0.285,0.167
		c-0.088,0-0.177,0.123-0.266,0.128c-0.094,0.005-0.216-0.315-0.305-0.305c-0.089,0.01-0.157,0.246-0.246,0.256
		c-0.089,0.02-0.192-0.025-0.285-0.01c-0.089,0.02-0.147,0.148-0.236,0.172c-0.094,0.024-0.177,0.054-0.266,0.079
		c-0.089,0.03-0.246-0.152-0.335-0.123c-0.088,0.035-0.078,0.295-0.157,0.335c-0.089,0.039-0.246-0.089-0.329-0.049
		c-0.084,0.039-0.217,0-0.296,0.044c-0.083,0.044-0.063,0.261-0.143,0.305c-0.083,0.044-0.162,0.094-0.236,0.143
		c-0.078,0.054-0.187,0.059-0.261,0.118c-0.073,0.054-0.093,0.177-0.167,0.236c-0.073,0.059-0.261-0.03-0.329,0.029
		c-0.069,0.059,0.02,0.305-0.05,0.374c-0.068,0.059-0.094,0.157-0.162,0.217c-0.064,0.068-0.261,0-0.33,0.068
		c-0.059,0.064-0.088,0.162-0.152,0.231c-0.063,0.069-0.143,0.123-0.201,0.191c-0.064,0.069-0.178,0.094-0.236,0.168
		c-0.06,0.068-0.108,0.152-0.167,0.227c-0.06,0.068-0.192,0.088-0.251,0.157c-0.055,0.078,0.112,0.319,0.059,0.394
		c-0.054,0.078-0.319,0.005-0.374,0.078c-0.054,0.079-0.113,0.158-0.167,0.231c-0.049,0.079,0.029,0.241-0.015,0.32
		c-0.05,0.078-0.024,0.201-0.069,0.28c-0.049,0.083-0.093,0.162-0.138,0.241c-0.039,0.088-0.088,0.162-0.133,0.245
		c-0.044,0.079-0.314,0.05-0.359,0.134c-0.039,0.083,0.207,0.3,0.163,0.383c-0.04,0.084-0.153,0.134-0.192,0.217
		c-0.034,0.089-0.256,0.099-0.29,0.183c-0.034,0.088,0.162,0.261,0.128,0.349c-0.034,0.084,0.024,0.202-0.01,0.29
		c-0.029,0.089-0.202,0.118-0.231,0.212c-0.029,0.089,0.034,0.207,0.01,0.295c-0.024,0.084-0.029,0.183-0.059,0.271
		c-0.024,0.089-0.133,0.153-0.158,0.246c-0.029,0.089-0.177,0.147-0.196,0.236c-0.022,0.089,0.162,0.227,0.138,0.315
		c-0.02,0.093-0.123,0.162-0.143,0.256c-0.018,0.088,0.005,0.187-0.013,0.275c-0.02,0.088-0.266,0.143-0.282,0.235
		c-0.015,0.089-0.022,0.183-0.037,0.276c-0.015,0.088-0.055,0.182-0.069,0.275c-0.015,0.088,0.271,0.221,0.259,0.314
		c-0.013,0.089-0.251,0.157-0.261,0.246c-0.013,0.089,0.147,0.207,0.14,0.295c-0.012,0.108,0.057,0.173,0.064,0.256
		c0.012,0.108-0.199,0.28-0.147,0.345c0.054,0.068,0.238-0.02,0.342,0.01c0.073,0.02,0.143-0.049,0.256-0.049
		c0.094,0,0.191,0.226,0.29,0.226s0.192-0.107,0.285-0.112c0.099-0.006,0.192-0.113,0.291-0.113c0.093,0,0.191,0.261,0.29,0.261
		s0.191-0.173,0.285-0.173c0.099,0,0.191,0.217,0.29,0.217c0.094,0,0.188-0.015,0.285-0.01c0.089,0,0.188,0.02,0.286,0.02
		c0.093,0.005,0.201-0.217,0.295-0.207c0.094,0.006,0.191,0.021,0.29,0.03c0.094,0.01,0.177,0.157,0.271,0.167
		c0.089,0.01,0.197-0.099,0.29-0.084c0.094,0.01,0.183,0.01,0.281,0.015c0.093,0.011,0.187,0.04,0.275,0.04
		c0.093,0.01,0.191-0.118,0.28-0.118c0.094,0.005,0.177,0.201,0.271,0.206c0.099,0,0.187-0.157,0.285-0.157
		c0.094,0,0.188,0.227,0.275,0.227c0.094,0,0.188-0.049,0.275-0.049c0.099,0,0.192,0.098,0.281,0.093c0.093,0,0.182-0.23,0.275-0.23
		c0.093,0,0.182-0.03,0.28-0.03c0.094,0,0.187,0.074,0.275,0.069c0.099,0,0.187-0.108,0.275-0.108
		c0.099-0.01,0.188-0.054,0.28-0.059c0.094,0,0.192,0.107,0.28,0.103c0.099-0.005,0.188-0.044,0.286-0.054
		c0.088,0,0.187,0.187,0.28,0.187c0.093,0,0.182-0.147,0.275-0.147C37.05,37.063,37.138,37.251,37.231,37.251z M45.157,41.438
		c0,0.049,0.118-0.123,0.118-0.074c0.094,0,0.128,0.03,0.227,0.03c0.088,0,0.187,0.167,0.28,0.167s0.187,0,0.28,0
		c0.099,0,0.188,0.089,0.285,0.089c0.094,0,0.188-0.06,0.28-0.06c0.094,0,0.192-0.275,0.281-0.275c0.088,0,0.187,0.305,0.285,0.305
		c0.088,0,0.187-0.211,0.275-0.211c0.094,0,0.187,0.039,0.285,0.039c0.089,0,0.188-0.074,0.28-0.074c0.094,0,0.188,0.251,0.28,0.251
		c0.099,0,0.188,0.01,0.286,0.01c0.093,0,0.187-0.073,0.28-0.073c0.093,0,0.191-0.118,0.28-0.118c0.099,0,0.191-0.123,0.285-0.123
		s0.188,0.31,0.28,0.31c0.094,0,0.188-0.063,0.28-0.063c0.099,0,0.188-0.104,0.286-0.094c0.093,0,0.187,0.06,0.275,0.069
		c0.099,0,0.187-0.029,0.285-0.029c0.094,0.005,0.187-0.089,0.28-0.089c0.099,0,0.202,0.187,0.29,0.172
		c0.099-0.01,0.118-0.3,0.192-0.329c0.094-0.035,0.319,0.167,0.384,0.107c0.063-0.063,0.113-0.206,0.143-0.3
		c0.029-0.073-0.207-0.212-0.197-0.31c0-0.084,0.266-0.178,0.256-0.275c-0.005-0.089-0.206-0.153-0.216-0.241
		c-0.01-0.084-0.089-0.162-0.099-0.251s0.157-0.188,0.143-0.275c-0.01-0.089-0.231-0.152-0.241-0.241
		c-0.01-0.084,0.207-0.188,0.207-0.275c-0.005-0.084-0.183-0.173-0.183-0.256c0-0.104,0.005-0.202,0.005-0.29
		c0-0.108,0.246-0.207,0.241-0.291c-0.005-0.113-0.044-0.241-0.073-0.31c-0.035-0.099-0.236-0.01-0.335-0.049
		c-0.068-0.03-0.113-0.158-0.227-0.168c-0.088-0.005-0.177,0.104-0.29,0.104c-0.084,0-0.182-0.143-0.285-0.143
		c-0.094,0-0.182,0.01-0.275,0.01s-0.183,0.128-0.275,0.128c-0.094,0-0.183-0.202-0.28-0.202c-0.089,0-0.183-0.073-0.276-0.068
		c-0.098,0-0.187,0.034-0.275,0.034c-0.088,0-0.187,0-0.275,0.005c-0.099,0-0.187,0.128-0.275,0.128s-0.187-0.128-0.28-0.128
		s-0.183,0.069-0.275,0.069c-0.094,0-0.183,0.123-0.275,0.123c-0.094,0-0.183,0.039-0.275,0.044c-0.094,0-0.183-0.063-0.281-0.063
		c-0.088,0-0.182-0.173-0.275-0.173c-0.088,0-0.187-0.01-0.28-0.01s-0.182,0.039-0.275,0.039c-0.089,0-0.182,0.207-0.275,0.207
		c-0.089,0-0.183-0.196-0.28-0.196c-0.089,0-0.183,0.063-0.275,0.063c-0.089,0-0.183,0.167-0.276,0.167
		c-0.088,0-0.182,0.05-0.275,0.05c-0.088,0-0.182-0.192-0.275-0.192s-0.187,0.045-0.275,0.045c-0.094,0-0.187,0.128-0.275,0.128
		s-0.188-0.188-0.28-0.188c-0.089,0-0.183,0.108-0.28,0.108c-0.089,0-0.183,0.089-0.275,0.089c-0.099,0-0.188-0.128-0.286-0.128
		c-0.088,0-0.187,0.098-0.28,0.098s-0.191-0.133-0.28-0.133c-0.099,0-0.192-0.088-0.285-0.093c-0.094,0-0.188,0.088-0.285,0.088
		c-0.089,0-0.188-0.059-0.281-0.059c-0.093,0-0.187,0.187-0.285,0.187c-0.093,0-0.187-0.241-0.28-0.241
		c-0.099,0-0.187,0.173-0.285,0.173s-0.192,0.118-0.285,0.118c-0.094,0-0.188-0.335-0.286-0.335c-0.098,0-0.187,0.227-0.285,0.222
		c-0.093,0-0.187-0.064-0.28-0.064s-0.191,0.104-0.28,0.104c-0.099,0-0.192,0-0.285,0c-0.094,0-0.188-0.231-0.285-0.231
		c-0.089-0.005-0.188,0.246-0.286,0.246c-0.088,0-0.187-0.187-0.28-0.187c-0.093,0-0.191-0.104-0.28-0.104
		c-0.099,0-0.196,0.191-0.285,0.182c-0.099,0-0.192-0.005-0.285-0.01c-0.094,0-0.188-0.059-0.286-0.059
		c-0.088,0-0.187,0.089-0.28,0.089c-0.093,0-0.187-0.188-0.28-0.197c-0.099,0-0.196,0.246-0.285,0.246
		c-0.099-0.005-0.192,0.044-0.285,0.044c-0.094,0-0.188-0.191-0.285-0.191c-0.089,0-0.188,0.049-0.281,0.039
		c-0.093,0-0.187-0.02-0.28-0.029c-0.099,0-0.187-0.069-0.285-0.069c-0.094,0-0.187,0.01-0.28,0.01s-0.192-0.098-0.28-0.098
		c-0.099,0-0.197,0.275-0.291,0.275c-0.093,0-0.182-0.266-0.28-0.266c-0.088,0-0.187-0.015-0.28-0.015s-0.187,0.152-0.28,0.152
		c-0.099,0-0.187,0.078-0.28,0.078s-0.183,0-0.28,0c-0.094,0-0.188,0-0.275,0c-0.099,0-0.188-0.261-0.281-0.261
		c-0.093,0-0.187,0.311-0.28,0.311c-0.093,0-0.187-0.089-0.275-0.089c-0.099,0-0.187-0.196-0.285-0.196
		c-0.089,0-0.188,0.235-0.275,0.235c-0.094,0-0.188,0.089-0.285,0.089c-0.089,0-0.183-0.147-0.276-0.157
		c-0.098,0-0.187,0.099-0.285,0.099c-0.088-0.005-0.187,0.015-0.28,0.015c-0.094-0.005-0.182-0.094-0.28-0.099
		c-0.094-0.005-0.177-0.138-0.275-0.143c-0.094-0.01-0.197,0.196-0.285,0.196c-0.094-0.005-0.178-0.093-0.275-0.098
		c-0.094,0-0.188,0.029-0.276,0.029c-0.098-0.005-0.177-0.236-0.275-0.246c-0.093,0-0.185,0.01-0.277,0
		c-0.094,0-0.185-0.029-0.278-0.034c-0.096-0.005-0.192,0.3-0.288,0.295c-0.094-0.005-0.18-0.231-0.276-0.231
		c-0.093,0-0.187,0.167-0.283,0.167c-0.093,0-0.185,0.064-0.278,0.064c-0.094,0-0.182-0.271-0.276-0.271
		c-0.093,0-0.187,0.187-0.278,0.187c-0.091,0-0.185,0.079-0.28,0.079c-0.094,0-0.185-0.231-0.275-0.231
		c-0.089,0-0.185,0.108-0.278,0.108c-0.093,0-0.185,0.104-0.278,0.104c-0.096,0-0.187-0.266-0.28-0.266
		c-0.094,0-0.185,0.177-0.278,0.177c-0.096,0-0.184-0.222-0.28-0.222c-0.093,0-0.185,0.021-0.278,0.021
		c-0.094,0-0.185-0.016-0.278-0.016c-0.096,0-0.187,0.231-0.281,0.231c-0.093,0-0.185-0.01-0.278-0.01
		c-0.096,0-0.185-0.133-0.28-0.133c-0.094,0-0.185,0.113-0.278,0.113c-0.093,0-0.184,0.015-0.278,0.015
		c-0.096,0-0.187-0.024-0.28-0.024c-0.094,0-0.185,0.133-0.278,0.138c-0.096,0.005-0.184-0.191-0.28-0.191
		c-0.093,0-0.185,0.157-0.278,0.157c-0.094,0-0.185-0.217-0.28-0.217c-0.094,0-0.185,0.049-0.278,0.049
		c-0.093,0-0.185-0.098-0.278-0.098c-0.096,0-0.185,0.23-0.28,0.23c-0.108,0-0.187,0.025-0.283,0.045
		c-0.103,0.024-0.207-0.01-0.285,0.049c-0.076,0.055-0.037,0.162-0.076,0.266c-0.032,0.089,0,0.147-0.007,0.266
		c-0.002,0.089-0.118,0.178-0.125,0.271c-0.007,0.094,0.027,0.188,0.024,0.281c-0.007,0.098-0.202,0.172-0.209,0.266
		c-0.007,0.093,0.125,0.196,0.118,0.29c-0.007,0.093,0.032,0.187,0.024,0.28c-0.007,0.099,0.059,0.187,0.057,0.285
		c-0.005,0.094-0.275,0.172-0.28,0.266c-0.002,0.099,0.12,0.188,0.115,0.285c0,0.094-0.079,0.188-0.079,0.275
		c0,0.094-0.005,0.236,0.04,0.345c0.039,0.099,0.138,0.188,0.199,0.275c0.076,0.099,0.197,0.183,0.275,0.207
		c0.086,0.02,0.167,0.133,0.253,0.147c0.086,0.01,0.197-0.118,0.285-0.118c0.089,0.005,0.18,0.06,0.269,0.069
		c0.091,0,0.179-0.069,0.268-0.069c0.091,0,0.179-0.015,0.268-0.02c0.091,0,0.18,0.029,0.268,0.029c0.096,0,0.189,0.108,0.28,0.108
		c0.094,0,0.187,0.029,0.278,0.029c0.093,0,0.184-0.049,0.28-0.049c0.093,0,0.187,0.039,0.278,0.039c0.094,0,0.189,0.01,0.278,0.01
		c0.096,0,0.187-0.334,0.281-0.334c0.093,0,0.187,0.167,0.278,0.167c0.096,0,0.185-0.118,0.28-0.118
		c0.094,0,0.187,0.143,0.278,0.143c0.093,0,0.184-0.182,0.278-0.182c0.096,0,0.189,0.266,0.283,0.266
		c0.096,0,0.185-0.084,0.281-0.084c0.093,0,0.184-0.133,0.278-0.133c0.093,0,0.185-0.034,0.28-0.034c0.094,0,0.187,0.01,0.278,0.01
		c0.094,0,0.189-0.005,0.278-0.005c0.091,0,0.189,0.201,0.283,0.201c0.096,0,0.185-0.059,0.28-0.059
		c0.094,0,0.185-0.064,0.278-0.064c0.093,0,0.189,0.099,0.278,0.099c0.096,0,0.187-0.182,0.28-0.182
		c0.094,0,0.187,0.261,0.283,0.261c0.093,0,0.184-0.207,0.278-0.207c0.093,0,0.185-0.02,0.28-0.024c0.094,0,0.188,0.049,0.278,0.044
		c0.093,0,0.189,0.138,0.282,0.133c0.094,0,0.188-0.039,0.276-0.044c0.098,0,0.191,0.069,0.285,0.069
		c0.088,0,0.187,0.034,0.275,0.034c0.094,0,0.187-0.064,0.275-0.064c0.099,0,0.187-0.049,0.285-0.049
		c0.089,0,0.188,0.039,0.275,0.039c0.089,0,0.188-0.177,0.28-0.177c0.094,0,0.183,0,0.281,0c0.088,0,0.187,0.029,0.275,0.029
		c0.099,0,0.187,0.084,0.285,0.084c0.094,0,0.187,0,0.275,0c0.099,0,0.188-0.113,0.28-0.113c0.094,0,0.183-0.02,0.28-0.024
		c0.094-0.005,0.188,0.063,0.281,0.054c0.093,0,0.196,0.157,0.29,0.152c0.099-0.005,0.187-0.044,0.285-0.054
		c0.089-0.01,0.187-0.029,0.28-0.039c0.094-0.021,0.178-0.089,0.271-0.104c0.089-0.015,0.147-0.192,0.246-0.212
		c0.089-0.02,0.236,0.241,0.325,0.222c0.093-0.015,0.172-0.094,0.266-0.113c0.093-0.02,0.182-0.044,0.275-0.059
		c0.088-0.016,0.167-0.099,0.266-0.118c0.078-0.01,0.167-0.104,0.256-0.089c0.078,0.015,0.157,0.063,0.236,0.079
		c0.098,0.02,0.147,0.235,0.24,0.266c0.094,0.024,0.202,0.01,0.291,0.034c0.098,0.024,0.211-0.005,0.305,0.005
		c0.099,0.015,0.207,0.039,0.305,0.029c0.099,0,0.192-0.054,0.286-0.059c0.098-0.01,0.201,0.039,0.295,0.024
		c0.099-0.01,0.187-0.084,0.285-0.104c0.099-0.01,0.177-0.123,0.275-0.138s0.217,0.177,0.315,0.167
		c0.098-0.01,0.182-0.123,0.28-0.128c0.099-0.01,0.191-0.059,0.29-0.059c0.094,0,0.187-0.108,0.275-0.108
		c0.094,0,0.188,0.256,0.275,0.251c0.099,0,0.188-0.138,0.275-0.138c0.099,0,0.188-0.094,0.281-0.094
		c0.093,0,0.191,0.275,0.28,0.275c0.093,0,0.187,0.01,0.275,0.005c0.099-0.005,0.187-0.24,0.275-0.246
		c0.099,0,0.187,0.094,0.28,0.089c0.094,0,0.188,0.143,0.28,0.143c0.094,0,0.188-0.246,0.275-0.246c0.099,0,0.188,0.06,0.286,0.06
		c0.088,0,0.182-0.152,0.275-0.152c0.093,0,0.187,0.182,0.28,0.182s0.182-0.128,0.28-0.128c0.089,0,0.182,0.128,0.275,0.128
		c0.099,0,0.188-0.094,0.28-0.094c0.094,0,0.183,0.094,0.28,0.094c0.089,0,0.183,0.162,0.276,0.162c0.098,0,0.187-0.152,0.28-0.152
		c0.093,0,0.182,0.005,0.28,0.005c0.094,0,0.182,0.074,0.275,0.074c0.099,0,0.187,0.005,0.28,0.005s0.183-0.045,0.28-0.045
		C45.024,41.373,45.063,41.438,45.157,41.438z M25.058,37.049c0.088,0,0.266-0.211,0.349-0.211c0.086,0,0.17,0.044,0.249,0.044
		c0.088,0,0.167,0.167,0.251,0.162c0.083,0,0.169,0,0.253,0c0.105-0.005,0.211,0.079,0.3,0.074c0.111-0.005,0.211-0.064,0.303-0.074
		c0.111-0.01,0.165-0.295,0.249-0.31c0.113-0.024,0.33,0.201,0.398,0.147c0.074-0.055-0.027-0.275,0.005-0.384
		c0.024-0.079,0.083-0.162,0.093-0.271c0.007-0.089-0.062-0.188-0.059-0.295c0.005-0.089,0.258-0.188,0.264-0.296
		c0-0.088,0.012-0.177,0.017-0.266c0.002-0.094-0.062-0.187-0.052-0.275c0.012-0.089-0.101-0.196-0.086-0.285
		c0.015-0.089-0.086-0.207-0.069-0.295c0.017-0.089,0.339-0.118,0.361-0.207c0.022-0.089-0.022-0.191,0-0.275
		c0.022-0.094-0.049-0.207-0.024-0.295c0.024-0.084,0.113-0.153,0.14-0.236c0.03-0.089,0.027-0.188,0.059-0.275
		c0.029-0.089-0.024-0.202,0.002-0.291c0.03-0.083,0.234-0.112,0.266-0.201c0.032-0.084-0.206-0.266-0.174-0.354
		c0.031-0.083,0.344-0.068,0.376-0.157c0.029-0.089,0.029-0.197,0.06-0.295c0.029-0.089-0.183-0.271-0.148-0.359
		c0.032-0.094,0.315-0.099,0.35-0.192c0.034-0.098-0.113-0.25-0.079-0.344c0.035-0.099,0.005-0.212,0.045-0.306
		c0.034-0.088,0.231-0.117,0.271-0.206c0.039-0.094-0.113-0.275-0.074-0.364c0.045-0.094,0.291-0.079,0.34-0.167
		c0.044-0.084-0.055-0.261,0.005-0.345c0.049-0.078,0.108-0.167,0.167-0.246c0.05-0.078,0.315-0.01,0.374-0.088
		c0.055-0.079,0.099-0.168,0.157-0.246c0.064-0.074-0.049-0.296,0.01-0.364c0.064-0.074,0.227-0.069,0.291-0.138
		c0.063-0.074,0.054-0.217,0.118-0.295c0.068-0.069,0.24-0.04,0.31-0.108c0.068-0.069,0.128-0.143,0.201-0.207
		c0.074-0.069,0.064-0.221,0.134-0.285c0.073-0.069,0.28,0.02,0.354-0.044c0.069-0.064,0.183-0.064,0.251-0.123
		c0.069-0.059,0.123-0.143,0.192-0.197c0.068-0.059,0.138-0.123,0.206-0.177c0.074-0.059,0.069-0.207,0.138-0.266
		c0.074-0.059,0.222-0.01,0.296-0.064c0.073-0.054,0.107-0.162,0.187-0.211c0.074-0.059,0.079-0.207,0.157-0.256
		c0.074-0.049,0.133-0.133,0.212-0.182c0.084-0.044,0.191-0.039,0.271-0.083c0.079-0.04,0.241,0.069,0.324,0.03
		c0.084-0.04,0.163-0.059,0.246-0.099c0.084-0.04,0.147-0.104,0.231-0.138c0.089-0.03,0.104-0.251,0.192-0.28
		c0.088-0.025,0.226,0.138,0.314,0.113c0.089-0.02,0.157-0.098,0.251-0.113c0.094-0.02,0.152-0.202,0.246-0.212
		s0.182-0.069,0.275-0.079c0.094-0.005,0.191,0.192,0.28,0.192c0.094,0,0.188-0.044,0.275-0.04c0.099,0.005,0.197-0.113,0.285-0.103
		c0.099,0.005,0.168,0.202,0.261,0.211c0.094,0.01,0.202-0.083,0.291-0.074c0.088,0.01,0.196-0.054,0.29-0.04
		c0.089,0.02,0.157,0.158,0.251,0.182c0.089,0.025,0.206-0.054,0.295-0.034c0.089,0.024,0.147,0.177,0.236,0.207
		c0.089,0.02,0.147,0.138,0.236,0.167c0.088,0.03,0.201-0.02,0.285,0.01c0.089,0.034,0.157,0.118,0.236,0.157
		c0.088,0.029,0.246-0.099,0.334-0.059c0.079,0.04,0.06,0.295,0.138,0.344c0.079,0.04,0.246-0.064,0.325-0.02
		c0.079,0.049,0.227,0,0.305,0.049c0.079,0.049-0.029,0.374,0.045,0.428c0.073,0.054,0.28-0.074,0.358-0.024
		c0.069,0.059,0.108,0.167,0.178,0.227c0.073,0.059,0.216,0.034,0.285,0.098c0.068,0.059,0.138,0.118,0.207,0.187
		c0.068,0.059-0.025,0.285,0.039,0.354c0.068,0.064,0.31-0.039,0.374,0.03c0.059,0.069-0.01,0.256,0.049,0.33
		c0.06,0.069,0.039,0.202,0.099,0.271c0.059,0.079,0.261,0.029,0.314,0.099c0.06,0.078,0.108,0.157,0.163,0.231
		c0.054,0.073,0.063,0.182,0.112,0.261c0.05,0.073,0.173,0.098,0.227,0.182c0.05,0.074-0.063,0.251-0.015,0.33
		c0.049,0.083,0.31,0.034,0.359,0.117c0.044,0.079,0.128,0.138,0.177,0.217c0.045,0.084-0.078,0.256-0.029,0.345
		c0.039,0.078,0.128,0.147,0.167,0.227c0.045,0.088,0.06,0.187,0.104,0.271c0.039,0.088,0.015,0.201,0.054,0.29
		c0.04,0.083,0.089,0.162,0.123,0.251c0.035,0.083-0.02,0.211,0.015,0.295c0.035,0.089,0.325,0.084,0.354,0.167
		c0.04,0.094-0.177,0.266-0.147,0.359c0.029,0.089,0.049,0.177,0.079,0.266c0.024,0.094,0.196,0.138,0.226,0.227
		c0.03,0.089,0.138,0.157,0.163,0.251c0.024,0.094,0.044,0.182,0.073,0.28c0.02,0.089,0.04,0.187,0.06,0.275
		c0.02,0.099-0.217,0.241-0.192,0.335c0.015,0.098,0.345,0.128,0.359,0.216c0.02,0.099-0.049,0.207-0.039,0.296
		c0.02,0.098-0.168,0.221-0.147,0.314c0.01,0.094,0.266,0.157,0.275,0.251s0.113,0.182,0.118,0.275
		c0.015,0.094-0.128,0.207-0.118,0.3c0.005,0.094,0.107,0.183,0.118,0.276c0.01,0.098,0.029,0.196,0.034,0.29
		c0.005,0.104-0.079,0.201-0.064,0.29c0.01,0.104-0.113,0.217-0.098,0.3c0.02,0.108,0.245,0.143,0.275,0.217
		c0.039,0.104-0.01,0.196,0.049,0.251c0.069,0.068,0.138,0.059,0.236,0.089c0.079,0.02,0.143,0.261,0.246,0.271
		c0.088,0.005,0.187,0,0.295,0c0.089,0,0.188,0.024,0.285,0.024c0.089,0,0.188-0.295,0.291-0.295
		c0.103,0.005,0.206,0.221,0.29,0.206c0.099-0.02,0.133-0.206,0.206-0.246c0.089-0.049,0.064-0.118,0.118-0.196
		c0.04-0.069,0.315-0.069,0.325-0.168c0.01-0.083-0.183-0.177-0.197-0.28c-0.015-0.093-0.099-0.177-0.113-0.271
		c-0.01-0.099,0.207-0.216,0.197-0.31s-0.133-0.172-0.143-0.266s-0.123-0.183-0.133-0.271c-0.01-0.099,0.241-0.217,0.231-0.311
		c-0.011-0.093-0.188-0.172-0.197-0.266c-0.01-0.093,0.197-0.211,0.182-0.31c-0.01-0.089-0.039-0.188-0.049-0.275
		c-0.015-0.094-0.015-0.192-0.024-0.285c-0.015-0.089-0.251-0.153-0.271-0.246c-0.015-0.094-0.015-0.188-0.034-0.275
		c-0.016-0.099,0.098-0.212,0.083-0.306c-0.02-0.099-0.152-0.157-0.172-0.256c-0.024-0.088-0.055-0.177-0.079-0.271
		s-0.029-0.187-0.054-0.275c-0.029-0.094-0.183-0.133-0.212-0.222c-0.029-0.088,0.118-0.241,0.089-0.329
		c-0.029-0.084-0.212-0.113-0.246-0.202c-0.034-0.088,0.138-0.256,0.099-0.344c-0.035-0.084-0.118-0.148-0.158-0.231
		c-0.039-0.084,0.016-0.212-0.02-0.301c-0.039-0.078-0.295-0.068-0.334-0.147c-0.04-0.088-0.099-0.157-0.138-0.235
		c-0.045-0.089-0.02-0.202-0.06-0.281c-0.049-0.078-0.187-0.107-0.231-0.191c-0.044-0.079-0.133-0.128-0.182-0.212
		c-0.049-0.078,0-0.211-0.054-0.29c-0.05-0.079-0.138-0.128-0.188-0.207c-0.054-0.073,0.05-0.256-0.005-0.334
		c-0.054-0.079-0.227-0.069-0.275-0.143c-0.059-0.074-0.152-0.113-0.207-0.188c-0.059-0.073-0.167-0.098-0.23-0.172
		c-0.06-0.069,0.083-0.31,0.024-0.384c-0.064-0.069-0.217-0.059-0.285-0.123c-0.06-0.069-0.064-0.192-0.128-0.256
		c-0.069-0.064-0.104-0.162-0.168-0.231c-0.068-0.064-0.162-0.104-0.23-0.167c-0.069-0.059-0.143-0.118-0.212-0.177
		c-0.069-0.064-0.079-0.197-0.147-0.256c-0.069-0.059-0.236-0.015-0.305-0.069c-0.074-0.059-0.113-0.162-0.188-0.216
		c-0.068-0.059-0.187-0.059-0.266-0.113c-0.074-0.054-0.147-0.103-0.227-0.152c-0.078-0.059-0.133-0.138-0.206-0.187
		c-0.079-0.049-0.099-0.197-0.178-0.246c-0.078-0.049-0.147-0.118-0.226-0.167c-0.079-0.049-0.188-0.054-0.271-0.099
		c-0.079-0.039-0.148-0.123-0.231-0.162c-0.084-0.04-0.163-0.099-0.246-0.138c-0.084-0.04-0.3,0.231-0.389,0.192
		c-0.084-0.04-0.104-0.222-0.192-0.256c-0.088-0.03-0.206,0.049-0.3,0.02c-0.089-0.03-0.128-0.197-0.212-0.227
		c-0.088-0.029-0.23,0.128-0.314,0.099c-0.089-0.024-0.108-0.31-0.197-0.334c-0.093-0.02-0.201,0.044-0.29,0.02
		c-0.093-0.02-0.206,0.094-0.3,0.074c-0.089-0.015-0.182,0.005-0.275-0.01c-0.089-0.015-0.178-0.04-0.266-0.054
		c-0.089-0.01-0.183-0.02-0.275-0.029c-0.089-0.01-0.158-0.217-0.256-0.227c-0.089-0.005-0.188,0.044-0.28,0.04
		c-0.094-0.005-0.183,0.049-0.281,0.049c-0.088-0.005-0.187-0.099-0.275-0.099c-0.088,0-0.177,0.182-0.275,0.182
		c-0.094,0-0.196-0.261-0.285-0.251c-0.089,0.005-0.167,0.221-0.266,0.227c-0.089,0.01-0.177,0.034-0.271,0.049
		c-0.089,0.01-0.188-0.029-0.28-0.02c-0.089,0.01-0.202-0.108-0.291-0.098c-0.093,0.02-0.182,0.069-0.271,0.088
		c-0.088,0.02-0.196-0.035-0.285-0.015c-0.089,0.02-0.191,0.005-0.285,0.029c-0.089,0.024-0.162,0.104-0.256,0.128
		c-0.089,0.024-0.167,0.099-0.251,0.123c-0.089,0.024-0.191,0.02-0.28,0.049c-0.089,0.029-0.118,0.216-0.207,0.246
		c-0.088,0.034-0.167,0.069-0.256,0.098c-0.088,0.035-0.182,0.04-0.266,0.074c-0.088,0.035-0.206,0-0.29,0.04
		c-0.084,0.039-0.172,0.074-0.251,0.123c-0.079,0.039-0.108,0.177-0.187,0.226c-0.084,0.04-0.153,0.104-0.231,0.147
		c-0.079,0.049-0.192,0.04-0.271,0.094c-0.074,0.054-0.246-0.03-0.32,0.024c-0.073,0.049-0.138,0.128-0.211,0.187
		c-0.069,0.054-0.147,0.118-0.217,0.172c-0.063,0.054-0.094,0.167-0.147,0.241c-0.049,0.069,0.039,0.226,0,0.3
		c-0.044,0.074-0.325,0.005-0.369,0.074c-0.049,0.079-0.029,0.167-0.084,0.227c-0.059,0.069-0.083,0.098-0.157,0.128
		c-0.094,0.034-0.157,0.143-0.236,0.182c-0.088,0.044-0.112,0.182-0.196,0.226c-0.079,0.044-0.167,0.074-0.241,0.123
		c-0.074,0.059-0.278-0.04-0.347,0.02c-0.071,0.064-0.121,0.163-0.185,0.227c-0.066,0.069-0.091,0.177-0.153,0.246
		c-0.061,0.074-0.13,0.138-0.187,0.217c-0.059,0.068-0.074,0.177-0.128,0.256c-0.054,0.078-0.155,0.123-0.205,0.201
		c-0.049,0.079-0.042,0.192-0.093,0.271c-0.047,0.078-0.007,0.211-0.054,0.295c-0.047,0.078-0.275,0.059-0.32,0.138
		c-0.046,0.078,0,0.216-0.046,0.295c-0.047,0.079-0.049,0.183-0.094,0.266c-0.044,0.079,0.005,0.207-0.039,0.29
		c-0.044,0.084-0.315,0.045-0.359,0.128c-0.044,0.084,0.04,0.227,0,0.311c-0.04,0.083,0,0.206-0.037,0.285
		c-0.039,0.084-0.33,0.059-0.364,0.143c-0.037,0.084-0.081,0.172-0.118,0.256c-0.035,0.089,0.157,0.261,0.125,0.35
		c-0.035,0.088-0.15,0.138-0.182,0.226c-0.032,0.089-0.197,0.133-0.224,0.217c-0.03,0.089,0.172,0.256,0.143,0.345
		c-0.027,0.088-0.108,0.157-0.133,0.246c-0.025,0.093,0.098,0.216,0.076,0.31s-0.221,0.133-0.244,0.227
		c-0.022,0.088,0.089,0.206,0.066,0.295c-0.02,0.094-0.167,0.152-0.185,0.241c-0.02,0.094,0.062,0.201,0.047,0.295
		c-0.015,0.089-0.123,0.167-0.135,0.256c-0.015,0.089-0.185,0.162-0.199,0.251c-0.01,0.094,0.135,0.202,0.123,0.3
		c-0.01,0.089-0.025,0.183-0.032,0.276c-0.007,0.088-0.091,0.177-0.093,0.271c-0.007,0.088-0.015,0.182-0.02,0.28
		c-0.002,0.088,0.037,0.187,0.037,0.275s0.113,0.187,0.113,0.28s0.032,0.182,0.032,0.275C25.239,36.769,25.055,36.955,25.058,37.049
		z M38.747,16.224c-0.094-0.074-0.359-0.04-0.448-0.118c-0.088,0.01-0.108-0.02-0.196-0.01c-0.079,0.01-0.178-0.138-0.256-0.138
		c-0.089,0.01-0.152,0.005-0.236,0c-0.079-0.01-0.118-0.108-0.197-0.138c-0.073-0.02-0.157,0-0.235-0.029
		c-0.079-0.03-0.335,0.128-0.414,0.098c0.03-0.079,0.34-0.187,0.364-0.271c0.024-0.083-0.157-0.231-0.128-0.31
		c0.03-0.083,0.104-0.152,0.152-0.226c0.055-0.093,0.069-0.227,0.139-0.305c0.068-0.079,0.329,0.01,0.398-0.069
		c0.068-0.079,0.167-0.177,0.216-0.266c0.055-0.079,0.05-0.216,0.089-0.305c0.039-0.093-0.039-0.231,0-0.325
		c0.034-0.088-0.039-0.118,0-0.211c-0.094-0.024,0-0.275-0.089-0.305c-0.083-0.024-0.206,0-0.29-0.02
		c-0.094-0.024-0.212,0.054-0.3,0.054c-0.089,0-0.188-0.069-0.275-0.069c-0.089,0-0.188,0.029-0.276,0.029
		c-0.088,0-0.187,0.089-0.275,0.089c-0.088,0-0.182-0.187-0.275-0.187c-0.088,0-0.187,0.285-0.275,0.285
		c-0.094,0-0.187-0.305-0.275-0.305c-0.094,0-0.187,0.039-0.275,0.039c-0.094,0-0.188,0.256-0.275,0.256
		c-0.094,0-0.188-0.266-0.275-0.266c-0.094,0-0.188,0.187-0.275,0.187c-0.094,0-0.188,0.064-0.276,0.064
		c-0.093,0-0.187-0.172-0.275-0.172c-0.093,0-0.182,0.217-0.275,0.222c-0.094,0-0.187-0.222-0.28-0.222s-0.182,0.177-0.275,0.177
		s-0.183,0-0.275,0c-0.094,0-0.192-0.246-0.28-0.246c-0.089,0-0.188,0.02-0.276,0.03c-0.088,0.005-0.167,0.241-0.256,0.246
		c-0.088,0.01-0.191-0.108-0.285-0.098c-0.088,0.01-0.167,0.128-0.256,0.138c-0.093,0.01-0.196-0.128-0.285-0.113
		c-0.094,0.005-0.177,0.025-0.271,0.035s-0.172,0.138-0.266,0.143s-0.187-0.192-0.28-0.192c-0.099,0.01-0.202-0.059-0.285-0.054
		c-0.104,0.005-0.207,0.049-0.286,0.064c-0.103,0.01-0.216,0.04-0.295,0.069c-0.099,0.03-0.147,0.192-0.217,0.236
		c-0.078,0.059-0.255,0.049-0.305,0.128c-0.049,0.074-0.044,0.216-0.073,0.31c-0.025,0.079,0.073,0.202,0.063,0.3
		c-0.015,0.084,0.02,0.177,0.015,0.276c-0.005,0.088-0.068,0.177-0.063,0.275c0,0.088-0.168,0.197-0.158,0.29
		c0.011,0.094,0.006,0.192,0.021,0.281c0.015,0.093,0.063,0.177,0.083,0.271c0.015,0.093,0.231,0.143,0.251,0.236
		c0.01,0.089-0.167,0.212-0.157,0.3c0.015,0.113,0.089,0.216,0.099,0.325c0.01,0.113,0.177,0.226,0.172,0.344
		c-0.005,0.089,0.034,0.187,0.034,0.276c-0.01,0.088-0.211,0.167-0.216,0.261c-0.01,0.093,0.029,0.192,0.024,0.28
		s0.113,0.192,0.104,0.28c-0.01,0.094-0.202,0.167-0.207,0.261c-0.01,0.089,0.099,0.197,0.089,0.286
		c-0.01,0.093,0.068,0.197,0.059,0.285c-0.005,0.088-0.138,0.172-0.147,0.266c-0.01,0.094,0.054,0.108,0.049,0.202
		c0.104,0.005,0.123,0.113,0.217,0.123c0.108,0.01,0.197,0.113,0.295,0.118c0.104,0.01,0.212-0.069,0.306-0.059
		c0.104,0.01,0.196,0.069,0.295,0.074c0.104,0.005,0.202-0.182,0.3-0.182c0.094-0.005,0.192,0.236,0.291,0.231
		c0.093-0.005,0.177-0.182,0.275-0.182c0.093-0.005,0.187-0.128,0.275-0.128c0.099-0.01,0.201,0.325,0.295,0.32
		c0.099-0.005,0.182-0.231,0.275-0.236c0.099-0.005,0.188,0.054,0.285,0.054c0.089,0,0.183-0.108,0.276-0.118
		c0.098,0,0.187-0.01,0.285-0.01c0.093-0.005,0.196,0.217,0.285,0.217c0.099-0.005,0.177-0.256,0.275-0.256
		c0.094-0.005,0.197,0.172,0.29,0.167c0.094,0,0.192,0.099,0.285,0.089c0.094,0,0.183-0.192,0.276-0.197c0.093,0,0.187,0,0.28,0
		c0.099-0.01,0.187,0.044,0.285,0.039c0.094,0,0.187-0.088,0.275-0.093c0.099-0.005,0.197,0.182,0.295,0.177
		c0.089-0.005,0.178-0.25,0.266-0.255c0.099-0.005,0.188-0.054,0.286-0.059c0.088-0.005,0.191,0.177,0.285,0.172
		c0.099,0,0.187-0.049,0.28-0.049c0.094-0.01,0.187,0.01,0.28,0.01c0.099-0.005,0.197,0.059,0.285,0.059
		c0.094-0.01,0.188-0.025,0.275-0.025c0.089-0.005,0.188,0.094,0.276,0.083c0.088,0,0.172-0.28,0.266-0.285
		c0.088,0,0.187,0.256,0.28,0.251c0.093-0.005,0.182,0.005,0.275,0s0.177-0.163,0.271-0.163c0.089-0.01,0.177-0.098,0.266-0.098
		c0.089-0.01,0.177-0.015,0.271-0.02s0.182-0.005,0.271-0.01c0.094-0.01,0.207,0.246,0.295,0.236
		c0.089-0.01,0.153-0.325,0.246-0.334c0.089-0.01,0.188,0.069,0.275,0.059c0.094-0.01,0.217,0.177,0.301,0.157
		c0.093-0.01,0.143-0.266,0.231-0.285c0.088-0.024,0.147-0.128,0.226-0.158c0.099-0.029,0.227,0.079,0.301,0.04
		c0.088-0.04,0.093-0.167,0.162-0.221c0.073-0.064,0.089-0.113,0.138-0.187s0.152-0.099,0.177-0.192
		c0.02-0.083,0.157-0.158,0.168-0.256c0-0.088-0.217-0.167-0.227-0.266c-0.01-0.079,0.063-0.177,0.049-0.275
		c-0.02-0.084-0.078-0.158-0.099-0.256c-0.024-0.089,0.178-0.236,0.148-0.325c-0.03-0.094-0.06-0.177-0.079-0.261
		c-0.02-0.094-0.01-0.172-0.024-0.266c-0.015-0.089-0.32-0.158-0.32-0.251c0-0.089,0.227-0.172,0.241-0.266
		c0.01-0.089-0.138-0.212-0.113-0.305c0.02-0.083-0.01-0.207,0.03-0.295c0.029-0.083,0.31-0.088,0.334-0.182
		c0.02-0.089-0.157-0.212-0.143-0.305c0.01-0.094-0.064-0.177-0.059-0.271c0.005-0.089,0.235-0.177,0.235-0.266
		c0-0.094-0.113-0.187-0.113-0.276c0-0.093-0.103-0.187-0.103-0.275c0-0.098,0.226-0.275,0.23-0.364
		c-0.088,0-0.275,0.128-0.363,0.128c-0.094,0-0.178-0.216-0.271-0.216c-0.094,0-0.183,0.01-0.276,0.01
		c-0.093,0-0.182-0.02-0.275-0.02c-0.088,0-0.182,0.226-0.275,0.226s-0.182-0.01-0.275-0.01c-0.089,0-0.182-0.128-0.275-0.128
		c-0.089,0.005-0.177,0.128-0.266,0.128c-0.094,0.005-0.182,0.02-0.271,0.025s-0.188,0.02-0.28,0.069
		c-0.089,0.049-0.084,0.202-0.152,0.271c-0.079,0.069-0.286,0.02-0.335,0.098c-0.054,0.084,0.044,0.246,0.005,0.345
		c-0.039,0.088-0.28,0.118-0.31,0.216c-0.03,0.099-0.01,0.216-0.04,0.315c-0.029,0.098-0.162,0.226-0.196,0.325
		c0.039,0.054,0.251,0.024,0.295,0.083c0.069-0.044,0.089-0.093,0.157-0.133c0.074-0.039,0.188-0.01,0.256-0.049
		c0.074-0.039,0.084-0.172,0.147-0.216c0.069-0.049,0.084-0.118,0.143-0.177c0.079-0.079,0.241-0.074,0.311-0.123
		c0.099-0.069,0.222-0.162,0.31-0.162c0.094,0,0.113,0.202,0.202,0.285c0.059,0.059,0.227,0.054,0.285,0.158
		c0.044,0.074,0.128,0.088,0.187,0.152c0.06,0.064,0.178,0.069,0.236,0.128c0.064,0.064-0.078,0.291-0.039,0.369
		c0.044,0.088,0.187,0.128,0.217,0.226c0.029,0.094-0.03,0.207-0.005,0.31c0.024,0.093,0.024,0.113,0.054,0.221
		c-0.099-0.039-0.108-0.049-0.191-0.079c-0.094-0.034-0.188-0.049-0.276-0.079c-0.093-0.035-0.152-0.157-0.24-0.182
		c-0.099-0.029-0.227,0.074-0.315,0.044c-0.089-0.03-0.201-0.108-0.29-0.138c-0.089,0.088-0.143,0.231-0.227,0.32
		c0.094,0.049,0.177,0.083,0.251,0.133c0.089,0.059,0.147,0.147,0.207,0.211c0.078,0.074,0.049,0.207,0.098,0.28
		c0.06,0.089,0.064,0.158,0.094,0.241c0.034,0.093,0.084,0.143,0.094,0.241c0,0.098-0.045,0.147-0.069,0.246
		c-0.029,0.089-0.063,0.138-0.118,0.227c-0.044,0.079,0.158,0.354,0.089,0.433c-0.063,0.069-0.256,0.02-0.334,0.069
		c-0.079,0.059-0.108,0.207-0.197,0.256c-0.079,0.039-0.231-0.059-0.325-0.02c-0.083,0.03-0.112,0.236-0.206,0.271
		c-0.089,0.029-0.266-0.202-0.354-0.172c-0.094,0.029-0.157,0.138-0.246,0.167c-0.093,0.03-0.138,0.182-0.23,0.217
		c-0.094,0.029-0.281,0.088-0.369,0.128c-0.02-0.094-0.099-0.281-0.118-0.374c-0.02-0.088-0.04-0.177-0.064-0.266
		s0.152-0.216,0.133-0.31c-0.02-0.088-0.088-0.162-0.104-0.251c-0.015-0.088-0.083-0.177-0.093-0.266
		c-0.005-0.093,0.099-0.182,0.104-0.266c0.015-0.093-0.144-0.236-0.113-0.315c0.029-0.088,0.3-0.039,0.354-0.118
		c0.055-0.069-0.039-0.275,0.035-0.334c0.063-0.054,0.143-0.128,0.23-0.177c0.069-0.04,0.183-0.04,0.276-0.079
		C38.417,16.233,38.653,16.253,38.747,16.224z M18.61,39.101c0-0.104-0.25-0.197-0.25-0.285c0-0.108,0.046-0.197,0.044-0.285
		c-0.005-0.108,0.153-0.222,0.138-0.301c-0.022-0.113-0.074-0.241-0.128-0.3c-0.057-0.06-0.165-0.217-0.278-0.236
		c-0.076-0.02-0.204,0.02-0.313,0.02c-0.083-0.005-0.172,0.275-0.278,0.275c-0.086,0.005-0.192-0.295-0.293-0.29
		c-0.096,0.005-0.179,0.222-0.273,0.222c-0.093,0.005-0.187-0.029-0.283-0.029c-0.094,0.01-0.185,0.088-0.278,0.088
		c-0.094,0.005-0.199-0.246-0.293-0.241c-0.096,0.005-0.189,0-0.283,0.005c-0.096,0-0.185,0.079-0.281,0.079
		c-0.093,0.01-0.179,0.133-0.275,0.138c-0.093,0-0.18,0.128-0.275,0.128c-0.093,0.005-0.202-0.3-0.295-0.295
		c-0.096,0-0.184,0.078-0.28,0.078c-0.093,0.005-0.18,0.108-0.275,0.118c-0.094,0.005-0.192-0.059-0.286-0.049
		c-0.093,0-0.184,0.039-0.278,0.039c-0.096,0.005-0.187,0.099-0.275,0.108c-0.091,0.005-0.197-0.177-0.291-0.172
		c-0.093,0.005-0.174,0.29-0.268,0.3c-0.093,0-0.204-0.295-0.297-0.285c-0.094,0-0.185,0.049-0.278,0.049
		c-0.096,0.005-0.174,0.266-0.268,0.275c-0.096,0-0.199-0.266-0.295-0.256c-0.094,0.011-0.177,0.197-0.271,0.202
		c-0.094,0.005-0.185,0.074-0.278,0.084c-0.096,0-0.197-0.168-0.29-0.163c-0.096,0.005-0.177,0.231-0.273,0.231
		c-0.094,0.005-0.199-0.216-0.293-0.206c-0.093,0-0.177,0.182-0.273,0.187c-0.094,0-0.187,0.005-0.28,0.01
		c-0.096,0-0.199-0.241-0.295-0.236c-0.093,0-0.187,0.03-0.278,0.03c-0.091,0.01-0.177,0.235-0.273,0.24
		c-0.094,0.005-0.192-0.113-0.286-0.107c-0.093,0.005-0.182,0.122-0.275,0.122c-0.093,0.006-0.194-0.133-0.291-0.128
		c-0.093,0-0.187,0.021-0.28,0.025c-0.096,0.005-0.182,0.133-0.275,0.133c-0.096,0.005-0.197-0.192-0.291-0.188
		c-0.096,0-0.191-0.068-0.288-0.059c-0.093,0-0.185,0.039-0.278,0.044c-0.106,0.005-0.224,0.024-0.305,0.044
		c-0.101,0.03-0.152,0.197-0.216,0.246c-0.074,0.06-0.251,0.089-0.286,0.168c-0.037,0.078,0,0.216-0.012,0.314
		c-0.007,0.089,0.113,0.188,0.116,0.28c0.005,0.094,0.052,0.178,0.059,0.266c0.007,0.094-0.047,0.183-0.037,0.275
		c0.012,0.089-0.155,0.202-0.145,0.291c0.012,0.088,0.007,0.177,0.02,0.271c0.01,0.093,0.057,0.172,0.064,0.261
		c0.01,0.093,0.224,0.162,0.231,0.256c0.007,0.088-0.18,0.196-0.172,0.285s0.069,0.172,0.071,0.266
		c0.005,0.089,0.177,0.157,0.192,0.236c0.015,0.093,0.082,0.128,0.108,0.206c0.037,0.079-0.086,0.246-0.024,0.301
		c0.062,0.059,0.162,0.068,0.246,0.103c0.074,0.03,0.167-0.078,0.261-0.068c0.082,0.005,0.158,0.196,0.251,0.187
		c0.099-0.01,0.187-0.123,0.286-0.128c0.098-0.01,0.192-0.098,0.29-0.103c0.099-0.005,0.202,0.112,0.3,0.107
		c0.098-0.005,0.189-0.112,0.288-0.117c0.096-0.006,0.202,0.117,0.3,0.112c0.098-0.01,0.202,0.079,0.3,0.069
		c0.099-0.005,0.192-0.099,0.291-0.104c0.098-0.005,0.199,0.039,0.297,0.034c0.096,0,0.185-0.196,0.286-0.201
		c0.098-0.005,0.207,0.231,0.305,0.231c0.093-0.01,0.179-0.188,0.271-0.188c0.093-0.005,0.182-0.128,0.275-0.138
		c0.093-0.005,0.204,0.325,0.298,0.325c0.093-0.01,0.177-0.236,0.271-0.241c0.096-0.005,0.192,0.054,0.283,0.049
		s0.182-0.113,0.275-0.118c0.094-0.005,0.189-0.015,0.283-0.015c0.093-0.005,0.199,0.217,0.292,0.217
		c0.096-0.01,0.177-0.261,0.273-0.266c0.094,0,0.194,0.177,0.291,0.172c0.093-0.005,0.192,0.094,0.285,0.094
		c0.094-0.01,0.177-0.197,0.271-0.202c0.096-0.005,0.189-0.005,0.283-0.005c0.096-0.01,0.189,0.045,0.283,0.04
		c0.094,0,0.185-0.094,0.28-0.099c0.094,0,0.194,0.177,0.288,0.177c0.096-0.005,0.18-0.256,0.273-0.266
		c0.093,0,0.185-0.049,0.278-0.054c0.096-0.005,0.197,0.177,0.291,0.172c0.093,0,0.185-0.054,0.278-0.059
		c0.096,0,0.189,0.02,0.283,0.01c0.096,0,0.192,0.063,0.288,0.059c0.093,0,0.187-0.02,0.283-0.02
		c0.094-0.01,0.192,0.084,0.286,0.079c0.093,0,0.177-0.286,0.271-0.286c0.096-0.01,0.199,0.251,0.295,0.246
		c0.094,0,0.187,0.005,0.283,0c0.093,0,0.179-0.162,0.275-0.167c0.111,0,0.187-0.099,0.271-0.123
		c0.108-0.024,0.155-0.049,0.216-0.118c0.066-0.063,0.089-0.108,0.108-0.222c0.02-0.083,0.28-0.177,0.273-0.295
		c-0.007-0.094-0.322-0.172-0.327-0.266c-0.002-0.099,0.084-0.191,0.084-0.285c0-0.099,0.199-0.188,0.199-0.285
		c0-0.094-0.241-0.188-0.239-0.281c0-0.093-0.086-0.191-0.083-0.28c0-0.098,0.152-0.187,0.157-0.285
		C18.45,39.287,18.61,39.194,18.61,39.101z M12.78,19.697c0.034,0.088,0.295,0.187,0.327,0.266c0.037,0.083,0.024,0.182,0.062,0.256
		c0.037,0.088-0.082,0.231-0.044,0.31c0.037,0.083,0.069,0.162,0.106,0.241c0.037,0.088-0.015,0.197,0.017,0.275
		c0.032,0.079,0.108,0.138,0.138,0.216c0.029,0.088,0.32,0.099,0.337,0.187c0.017,0.083-0.268,0.216-0.256,0.305
		c0.01,0.098,0.234,0.167,0.253,0.256c0.02,0.098,0.007,0.197,0.042,0.275c0.037,0.088,0.143,0.123,0.197,0.197
		c0.054,0.079-0.059,0.325,0.015,0.389c0.069,0.054,0.17,0.138,0.253,0.182c0.079,0.044,0.209,0.029,0.305,0.064
		c0.093,0.034,0.231-0.035,0.314,0.01c0.089,0.044,0.246,0.01,0.322,0.069c0.079,0.064-0.062,0.354,0.007,0.428
		c0.064,0.069,0.163,0.088,0.217,0.177c0.052,0.079,0.182,0.108,0.221,0.202c0.037,0.089,0.007,0.202,0.037,0.3
		c0.024,0.088,0.076,0.177,0.088,0.275c0.015,0.094,0.118,0.167,0.13,0.266c0.015,0.089-0.155,0.207-0.14,0.295
		c0.015,0.093,0.308,0.138,0.327,0.226c0.017,0.089-0.258,0.246-0.236,0.335c0.022,0.088,0.086,0.177,0.113,0.266
		c0.027,0.088,0.3,0.074,0.339,0.162c0.04,0.083-0.155,0.291-0.105,0.369c0.046,0.079,0.258,0.039,0.32,0.108
		c0.057,0.069,0.16,0.079,0.231,0.138c0.069,0.059,0.032,0.25,0.113,0.305c0.064,0.04,0.303,0,0.344,0.089
		c0.04,0.079-0.138,0.25-0.138,0.325c0.002,0.098,0.185,0.167,0.199,0.256c0.015,0.098,0.032,0.162,0.062,0.246
		c0.032,0.089-0.15,0.285-0.101,0.354c0.049,0.078,0.135,0.157,0.197,0.222c0.066,0.063,0.283-0.045,0.356,0.005
		c0.071,0.059,0.076,0.206,0.155,0.251c0.081,0.044,0.211-0.016,0.292,0.024c0.081,0.044,0.104,0.216,0.187,0.246
		c0.081,0.044,0.17,0.068,0.253,0.107c0.083,0.04,0.221-0.024,0.3,0.021c0.079,0.039,0.167,0.266,0.244,0.314
		c-0.005-0.099,0.116-0.28,0.111-0.374c-0.002-0.094-0.032-0.187-0.035-0.285c0-0.089-0.005-0.187-0.005-0.28
		s-0.123-0.188-0.123-0.28c0-0.099,0.133-0.188,0.133-0.286c0.005-0.093-0.061-0.191-0.056-0.285
		c0.002-0.094-0.116-0.192-0.113-0.286c0.005-0.098-0.032-0.192-0.032-0.285c0.002-0.099,0.069-0.187,0.071-0.286
		c0.005-0.093,0.182-0.187,0.182-0.275c0.005-0.098,0.017-0.192,0.017-0.285c0-0.099-0.034-0.197-0.032-0.291
		c0-0.093-0.207-0.187-0.207-0.28c0-0.099,0.197-0.197,0.192-0.285c-0.002-0.099-0.064-0.187-0.069-0.286
		c-0.002-0.093-0.177-0.177-0.185-0.275c-0.007-0.094-0.062-0.177-0.069-0.275c-0.007-0.094,0.177-0.207,0.169-0.3
		c-0.01-0.093-0.069-0.182-0.079-0.275c-0.01-0.094-0.152-0.167-0.167-0.261c-0.015-0.094,0.152-0.217,0.135-0.31
		c-0.02-0.093-0.15-0.163-0.17-0.256c-0.022-0.088-0.125-0.157-0.15-0.251c-0.025-0.098,0.081-0.226,0.074-0.334
		c-0.007-0.093-0.111-0.207-0.104-0.305c0.007-0.098,0.153-0.187,0.175-0.285c0.022-0.099,0.138-0.157,0.177-0.246
		c0.039-0.083-0.007-0.207,0.027-0.295c0.032-0.089,0.108-0.167,0.13-0.256c0.02-0.089-0.143-0.217-0.128-0.305
		s0.268-0.152,0.275-0.246c0.008-0.088-0.155-0.197-0.152-0.285c0.005-0.089-0.116-0.182-0.116-0.275
		c0-0.089,0.33-0.192,0.327-0.286c-0.005-0.088-0.233-0.172-0.236-0.266c-0.005-0.088,0.049-0.187,0.046-0.28
		c-0.005-0.089-0.115-0.177-0.123-0.271c-0.005-0.089-0.013-0.182-0.015-0.276c-0.005-0.088,0.222-0.187,0.222-0.285
		c0-0.088-0.204-0.083-0.199-0.177c-0.091,0.025-0.121-0.108-0.212-0.083c-0.088,0.02-0.207-0.054-0.295-0.029
		c-0.091,0.024-0.138,0.231-0.229,0.25c-0.091,0.02-0.184,0.04-0.275,0.059c-0.091,0.02-0.197-0.005-0.285,0.015
		c-0.091,0.025-0.165,0.128-0.256,0.153c-0.089,0.02-0.227-0.133-0.317-0.108c-0.091,0.02-0.123,0.286-0.214,0.305
		c-0.091,0.02-0.17,0.088-0.261,0.108c-0.091,0.024-0.229-0.128-0.32-0.108c-0.089,0.02-0.17,0.088-0.261,0.108
		c-0.091,0.024-0.187,0.024-0.278,0.049c-0.091,0.02-0.199-0.024-0.29,0c-0.091,0.02-0.177,0.059-0.268,0.079
		c-0.091,0.02-0.207-0.049-0.298-0.03c-0.091,0.024-0.111,0.315-0.202,0.339c-0.091,0.025-0.246-0.207-0.334-0.182
		c-0.086,0.02-0.185,0.03-0.275,0.059c-0.089,0.02-0.146,0.192-0.234,0.217c-0.091,0.02-0.16,0.123-0.251,0.147
		c-0.091,0.024-0.182,0.044-0.271,0.069c-0.091,0.024-0.182,0.04-0.273,0.069C13.1,19.795,12.871,19.677,12.78,19.697z
		 M11.422,37.379c0.076,0.068,0.29-0.03,0.366,0.039c0.086-0.059,0.118-0.054,0.207-0.108c0.086-0.049,0.256,0.039,0.345-0.015
		c0.086-0.054,0.211-0.162,0.295-0.212c-0.049-0.088-0.039-0.285-0.093-0.373c-0.052-0.079-0.147-0.139-0.202-0.222
		c-0.057-0.084-0.337-0.024-0.391-0.104c-0.052-0.089,0.081-0.394,0.032-0.478c-0.083,0.025-0.182,0.231-0.261,0.251
		c-0.012,0.104-0.052,0.168-0.062,0.271c-0.012,0.104,0.049,0.212,0.04,0.311c-0.012,0.099-0.275,0.172-0.285,0.271
		C11.405,37.113,11.432,37.28,11.422,37.379z M39.529,17.621c-0.02-0.074-0.261-0.197-0.275-0.275
		c-0.021-0.074,0.049-0.108,0.029-0.182c-0.079,0.015-0.143-0.123-0.222-0.108c-0.083,0.015-0.167,0.025-0.246,0.044
		c-0.083,0.01-0.191-0.049-0.271-0.034c-0.078,0.024-0.162,0.098-0.241,0.127c-0.034,0.01,0.163,0.231,0.173,0.364
		c0.01,0.094-0.207,0.339-0.207,0.418c0.089-0.025,0.246-0.236,0.335-0.266c0.088-0.024,0.187-0.01,0.275-0.029
		c0.088-0.029,0.157-0.123,0.251-0.147C39.214,17.507,39.44,17.645,39.529,17.621z"/>
	<path d="M30.556,18.575c-0.015-0.099-0.147-0.217-0.168-0.31c-0.02-0.098,0-0.202-0.02-0.3c-0.02-0.098,0.152-0.236,0.138-0.334
		c-0.02-0.093-0.054-0.187-0.068-0.285c-0.02-0.099-0.064-0.192-0.079-0.286c-0.02-0.098-0.147-0.177-0.167-0.275
		c-0.02-0.098,0.108-0.216,0.089-0.315c-0.016-0.098,0.034-0.207,0.02-0.305c-0.02-0.089-0.108-0.182-0.128-0.286
		c-0.02-0.098-0.227-0.172-0.241-0.271c-0.015-0.104,0.123-0.221,0.123-0.315c0.005-0.113-0.079-0.261-0.029-0.339
		c0.059-0.083,0.098-0.236,0.177-0.295c0.079-0.059,0.285,0.108,0.384,0.079c0.094-0.025,0.147,0.044,0.246,0.059
		c0.099,0.01,0.246-0.197,0.339-0.148c0.084,0.04,0.104,0.197,0.183,0.266c0.063,0.049,0.216-0.103,0.295-0.088
		c0.099,0.02,0.197-0.005,0.28,0.015c0.104,0.015,0.178,0.138,0.251,0.153c0.118,0.029,0.123,0.246,0.188,0.275
		c0.098,0.059,0.29,0.039,0.266,0.138c-0.01,0.064-0.06,0.192-0.128,0.285c-0.045,0.059-0.251,0.015-0.32,0.094
		c-0.054,0.064,0,0.236-0.063,0.31c-0.069,0.074-0.074,0.167-0.123,0.236c-0.06,0.079-0.104,0.133-0.143,0.207
		c-0.05,0.079-0.099,0.133-0.118,0.217c-0.029,0.088-0.217,0.147-0.217,0.236c0,0.089,0.138,0.163,0.162,0.251
		c0.02,0.084,0.035,0.163,0.074,0.246c0.039,0.074,0.152,0.099,0.207,0.172c0.049,0.069,0.02,0.207,0.088,0.271
		c0.06,0.064,0.256,0.172,0.325,0.236c-0.099,0.024-0.301,0.113-0.394,0.138c-0.089,0.024-0.246-0.202-0.33-0.182
		c-0.094,0.02-0.143,0.226-0.231,0.246c-0.098,0.02-0.157,0.167-0.246,0.187c-0.098,0.02-0.24-0.177-0.324-0.152
		C30.757,18.428,30.639,18.555,30.556,18.575z"/>
	<path d="M34.112,18.236c0.241-0.04,0.31-0.02,0.394-0.03c0.104-0.015,0.202-0.083,0.31-0.104c0.108-0.015,0.246,0.172,0.35,0.158
		c0.104-0.02,0.034-0.093,0.143-0.108c-0.068,0.079,0.024,0.079-0.039,0.167c-0.069,0.088-0.01,0.285-0.079,0.364
		c-0.078,0.079-0.246,0.099-0.339,0.148c-0.084,0.054-0.173,0.088-0.251,0.128c-0.089,0.044-0.143,0.167-0.217,0.197
		c-0.099,0.039-0.231,0.029-0.31,0.039c-0.099,0.01-0.157-0.192-0.231-0.236c-0.069-0.035-0.118-0.069-0.187-0.148
		c-0.055-0.059-0.118-0.113-0.178-0.197c-0.044-0.069-0.187-0.088-0.236-0.172c-0.039-0.074,0.04-0.227-0.01-0.31
		c-0.059-0.088-0.049-0.207-0.093-0.285c-0.055-0.099-0.153-0.148-0.192-0.231c-0.039-0.098-0.246-0.143-0.261-0.241
		c-0.015-0.098,0.123-0.207,0.147-0.31c0.015-0.094-0.063-0.231-0.01-0.33c0.044-0.079,0.044-0.221,0.113-0.305
		c0.059-0.074,0.305,0.02,0.354-0.04c0.068-0.064,0.157-0.049,0.216-0.088c0.079-0.044,0.06-0.295,0.138-0.305
		c0.084-0.01,0.163,0.118,0.256,0.147c0.069,0.02,0.236-0.113,0.315-0.064c0.078,0.044,0.196,0.084,0.256,0.143
		c0.068,0.059,0.078,0.216,0.118,0.29c0.039,0.074-0.128,0.202-0.118,0.295c0,0.079,0.216,0.182,0.187,0.275
		c-0.029,0.074-0.049,0.182-0.098,0.271c-0.05,0.074-0.256,0.069-0.281,0.147c-0.029,0.079,0.094,0.212,0.064,0.295
		c-0.024,0.083,0.01,0.187-0.02,0.271C34.294,18.142,34.142,18.147,34.112,18.236z"/>
	<path d="M35.264,16.322c-0.055-0.083,0.034-0.192-0.015-0.275c-0.05-0.089-0.384-0.02-0.434-0.108
		c-0.044-0.088,0.069-0.266,0.021-0.344c-0.055-0.099-0.025-0.256-0.079-0.325c-0.079-0.088-0.246-0.143-0.324-0.152
		c-0.089-0.015-0.188,0.108-0.286,0.133c-0.088,0.02-0.187,0.02-0.28,0.059c-0.083,0.04-0.143,0.133-0.231,0.182
		c-0.078,0.044-0.266-0.093-0.349-0.044c-0.084,0.044-0.178,0.064-0.261,0.108c-0.089,0.044-0.094,0.251-0.188,0.291
		c0-0.094-0.167-0.192-0.172-0.281c-0.005-0.093,0.094-0.187,0.094-0.275c-0.005-0.098,0-0.192,0-0.28
		c0-0.094-0.089-0.192-0.089-0.28c0-0.099,0.049-0.197,0.059-0.286c0.005-0.088,0.217-0.157,0.231-0.246
		c0.015-0.069,0.045-0.079,0.147-0.128c0.074-0.039,0.153-0.088,0.241-0.123c0.089-0.034,0.188-0.172,0.256-0.211
		c0.05,0.094,0.015,0.281,0.079,0.345c0.059,0.074,0.118,0.202,0.196,0.246c0.084,0.049,0.217,0.035,0.306,0.069
		c0.088,0.03,0.235-0.128,0.324-0.103c0.089,0.024,0.147,0.182,0.236,0.207s0.217-0.064,0.305-0.035
		c0.099,0.04,0.256,0.059,0.325,0.128c0.068,0.069-0.06,0.295-0.02,0.389c0.039,0.084-0.021,0.167-0.005,0.271
		c0.01,0.088,0.256,0.177,0.245,0.275c-0.005,0.093-0.152,0.177-0.172,0.275c-0.02,0.088,0.128,0.246,0.089,0.344
		C35.495,16.243,35.308,16.229,35.264,16.322z"/>
</g>
<g>
</g>
<g>
</g>
<g>
</g>
<g>
</g>
<g>
</g>
<g>
</g>
<g>
</g>
<g>
</g>
<g>
</g>
<g>
</g>
<g>
</g>
<g>
</g>
<g>
</g>
<g>
</g>
<g>
</g>
</svg>
