<?xml version="1.0" encoding="utf-8"?>
<!-- Generator: Adobe Illustrator 16.0.0, SVG Export Plug-In . SVG Version: 6.00 Build 0)  -->
<!DOCTYPE svg PUBLIC "-//W3C//DTD SVG 1.1//EN" "http://www.w3.org/Graphics/SVG/1.1/DTD/svg11.dtd">
<svg version="1.1" id="圖層_1" xmlns="http://www.w3.org/2000/svg" xmlns:xlink="http://www.w3.org/1999/xlink" x="0px" y="0px"
	 width="55px" height="55px" viewBox="0 0 55 55" enable-background="new 0 0 55 55" xml:space="preserve">
<g>
	<path d="M38.63,23.198c0.118,0.052,0.046,0.118,0.157,0.17s0.288-0.013,0.393,0.04c0.118,0.052,0.078,0.392,0.184,0.445
		c0.117,0.059,0.287-0.013,0.393,0.045c0.11,0.059,0.274,0.007,0.379,0.065c0.104,0.059,0.177,0.196,0.281,0.255
		c0.104,0.059,0.164,0.216,0.269,0.275c0.104,0.059,0.274,0.02,0.379,0.078c0.104,0.053,0.235,0.079,0.341,0.138
		c0.104,0.065,0.17,0.189,0.274,0.249c0.111,0.059,0.144,0.242,0.248,0.307c0.105,0.065,0.275,0.026,0.38,0.085
		c0.104,0.065,0.327-0.065,0.432-0.007c0.104,0.065,0.157,0.216,0.262,0.275c0.099,0.065,0.013,0.425,0.118,0.497
		c0.104,0.065,0.242,0.079,0.34,0.144c0.104,0.065,0.223,0.104,0.32,0.177c0.099,0.065,0.32-0.033,0.419,0.039
		c0.098,0.072,0.085,0.301,0.184,0.373c0.098,0.072,0.183,0.157,0.281,0.235c0.098,0.065,0.301,0.006,0.398,0.085
		c0.099,0.072,0.255,0.072,0.347,0.15c0.104,0.079,0.17,0.183,0.262,0.262s0.235,0.111,0.327,0.19
		c0.092,0.072,0.026,0.34,0.118,0.425c0.091,0.078,0.242,0.098,0.333,0.183c0.092,0.079,0.099,0.235,0.177,0.327
		c0.085,0.092,0.039,0.275,0.104,0.366c0.079,0.099,0.504-0.052,0.576,0.053c0.065,0.098-0.249,0.432-0.184,0.536
		s0.184,0.17,0.249,0.275c0.059,0.104,0.34,0.078,0.405,0.183c0.059,0.104,0.118,0.203,0.184,0.301
		c0.065,0.105,0.025,0.275,0.104,0.366c0.078,0.092,0.269,0.079,0.354,0.171c0.091,0.078,0.013,0.353,0.11,0.418
		c0.026,0.014,0.184-0.032,0.177-0.013c-0.046,0.118-0.013,0.235-0.032,0.354c-0.02,0.131-0.177,0.235-0.177,0.359
		s0.092,0.249,0.111,0.373c0.007,0.124,0.124,0.235,0.138,0.359c0.013,0.125,0.085,0.256,0.091,0.373
		c0.007,0.131-0.065,0.275-0.071,0.399c-0.007,0.124-0.242,0.223-0.275,0.34c-0.025,0.124,0.111,0.301,0.06,0.412
		c-0.06,0.111-0.053,0.301-0.131,0.405c-0.079,0.092-0.341,0.065-0.387,0.196c-0.046,0.118-0.268,0.223-0.287,0.354
		c-0.02,0.138,0.386,0.269,0.412,0.386c0.025,0.125-0.216,0.281-0.196,0.399c0.013,0.124,0.183,0.229,0.189,0.354
		c0.007,0.117,0.032,0.242,0.032,0.366c0.007,0.117-0.196,0.242-0.196,0.366c-0.006,0.118-0.104,0.223-0.117,0.347
		c-0.007,0.124,0.17,0.255,0.157,0.373c-0.014,0.124-0.262,0.196-0.288,0.313c-0.026,0.125,0.007,0.242-0.026,0.36
		c-0.026,0.111,0.295,0.333,0.255,0.451c-0.032,0.111-0.347,0.131-0.386,0.249c-0.052,0.117,0.15,0.327,0.104,0.444
		c-0.052,0.104-0.163,0.196-0.222,0.301c-0.053,0.111-0.288,0.125-0.354,0.229c-0.053,0.111-0.092,0.222-0.15,0.327
		c-0.059,0.098-0.111,0.216-0.184,0.313c-0.052,0.085,0.111,0.288,0.072,0.399c-0.053,0.131-0.32,0.235-0.274,0.301
		c0.065,0.118,0.196,0.196,0.241,0.308c0.046,0.124,0.033,0.262,0.06,0.379c0.039,0.125,0.052,0.242,0.065,0.366
		c0.013,0.131-0.118,0.242-0.118,0.373c-0.007,0.131,0.269,0.269,0.249,0.399c-0.014,0.124,0.065,0.281,0.039,0.412
		c-0.026,0.117-0.373,0.157-0.405,0.288c-0.04,0.117,0.065,0.287,0.025,0.412c-0.046,0.124-0.313,0.15-0.353,0.274
		c-0.053,0.124,0.078,0.308,0.032,0.425c-0.046,0.125-0.183,0.21-0.229,0.327c-0.04,0.118,0.189,0.36,0.137,0.472
		c-0.052,0.117-0.308,0.131-0.373,0.242c-0.059,0.11-0.025,0.281-0.098,0.386s-0.281,0.104-0.359,0.209
		c-0.079,0.099-0.065,0.262-0.145,0.366c-0.085,0.092-0.235,0.131-0.32,0.21c-0.085,0.091-0.203,0.156-0.294,0.235
		c-0.092,0.085-0.223,0.124-0.314,0.209c-0.098,0.079-0.138,0.235-0.235,0.301c-0.104,0.079-0.079,0.36-0.184,0.432
		c-0.104,0.065-0.248,0.105-0.353,0.164c-0.105,0.065-0.314-0.059-0.433,0c-0.11,0.059-0.262,0.026-0.379,0.072
		c-0.118,0.052-0.17,0.261-0.288,0.301c-0.117,0.039-0.229,0.131-0.347,0.17c-0.124,0.039-0.281-0.065-0.405-0.039
		c-0.124,0.032-0.21,0.287-0.327,0.301c-0.124,0.02-0.308-0.366-0.438-0.354c-0.118,0.013-0.209,0.451-0.34,0.458
		c-0.125,0-0.262-0.294-0.38-0.301c-0.131,0-0.248,0.007-0.379-0.014c-0.131-0.013-0.256-0.025-0.393-0.052
		c-0.131-0.026-0.288,0.032-0.419-0.007s-0.308,0.085-0.432,0.046c-0.15-0.039-0.196-0.098-0.308-0.085
		c-0.131,0.02-0.262-0.099-0.359,0.007c-0.065,0.085-0.053,0.235-0.125,0.379c-0.059,0.111-0.241,0.157-0.327,0.262
		C37.479,50,37.498,50.189,37.4,50.294c-0.092,0.092-0.301,0.059-0.399,0.15c-0.098,0.085-0.02,0.373-0.111,0.465
		c-0.11,0.092-0.379,0.013-0.51,0.078c-0.131,0.059-0.223,0.164-0.314,0.262c-0.091,0.092-0.209,0.157-0.301,0.223
		c-0.104,0.078-0.131,0.308-0.229,0.359c-0.111,0.06-0.295-0.013-0.412,0.026c-0.111,0.033-0.262-0.032-0.38-0.007
		c-0.117,0.014-0.235-0.032-0.359-0.025c-0.124,0-0.242,0.17-0.36,0.156c-0.117,0-0.235-0.144-0.353-0.156
		c-0.118-0.014-0.249,0.078-0.366,0.052c-0.125-0.013-0.256,0.026-0.367,0.007c-0.124-0.02-0.235,0.046-0.366,0.039
		c-0.124-0.007-0.235-0.347-0.366-0.359c-0.131-0.014-0.301,0.248-0.419,0.209c-0.124-0.033-0.065-0.38-0.17-0.465
		c-0.091-0.071-0.131-0.111-0.196-0.229c-0.025-0.039-0.313,0.131-0.458,0.157c-0.104,0.025-0.156,0.183-0.235,0.222
		c-0.117,0.046-0.313-0.091-0.422-0.039c-0.111,0.053-0.144,0.269-0.255,0.327c-0.111,0.053-0.209,0.145-0.32,0.21
		c-0.108,0.052-0.229,0.117-0.347,0.17c-0.115,0.052-0.36-0.196-0.475-0.15c-0.121,0.046-0.213,0.124-0.334,0.15
		c-0.124,0.025-0.231,0.104-0.356,0.104c-0.121,0-0.226-0.065-0.35-0.079c-0.118-0.025-0.275,0.131-0.396,0.092
		c-0.118-0.032-0.209-0.157-0.324-0.196c-0.111-0.046-0.206-0.131-0.317-0.189c-0.111-0.059-0.131-0.255-0.232-0.313
		c-0.105-0.072-0.37,0.11-0.468,0.039c-0.102-0.079-0.072-0.308-0.157-0.387c-0.098-0.091-0.209-0.15-0.304-0.235
		c-0.091-0.091-0.059-0.313-0.154-0.393c-0.091-0.091-0.366,0.014-0.458-0.078c-0.092-0.085-0.255-0.104-0.347-0.189
		c-0.092-0.092-0.098-0.269-0.19-0.36c-0.091-0.091-0.187-0.17-0.275-0.262c-0.085-0.091-0.056-0.301-0.144-0.393
		c-0.085-0.091-0.111-0.235-0.196-0.34c-0.088-0.092-0.517,0.124-0.602,0.026c-0.088-0.092,0.033-0.366-0.052-0.465
		c-0.082-0.098-0.333-0.052-0.416-0.15c-0.082-0.092-0.098-0.255-0.18-0.354c-0.082-0.098-0.154-0.209-0.229-0.307
		c-0.079-0.099-0.242-0.138-0.317-0.242c-0.079-0.099,0.173-0.426,0.104-0.536c-0.068-0.105-0.461-0.026-0.52-0.145
		c-0.059-0.104-0.02-0.281-0.072-0.393c-0.052-0.117,0.177-0.354,0.131-0.471c-0.049-0.118-0.504-0.078-0.546-0.196
		s0.108-0.314,0.063-0.432c-0.043-0.124-0.298-0.17-0.34-0.288c-0.046-0.117,0.056-0.294,0.013-0.405
		c-0.049-0.125-0.082-0.242-0.131-0.36c-0.046-0.111-0.105-0.216-0.154-0.327c-0.046-0.11,0.183-0.333,0.134-0.451
		c-0.046-0.104-0.419-0.085-0.465-0.196c-0.049-0.104,0.046-0.274,0-0.393c-0.049-0.104,0.036-0.274-0.006-0.386
		c-0.049-0.111-0.059-0.235-0.104-0.347c-0.049-0.111-0.118-0.209-0.161-0.327c-0.049-0.104-0.134-0.203-0.176-0.313
		c-0.049-0.111-0.082-0.223-0.128-0.341c-0.042-0.104,0-0.255-0.042-0.366s-0.48-0.065-0.523-0.17
		c-0.045-0.118,0.082-0.301,0.033-0.405c-0.049-0.118-0.006-0.262-0.049-0.373c-0.052-0.124-0.003-0.269-0.029-0.406
		c-0.023-0.144-0.367-0.294-0.34-0.425c0.023-0.131,0.173-0.242,0.193-0.359c0.023-0.138,0.127-0.256,0.144-0.373
		c0.013-0.145,0.111-0.288,0.111-0.399c0-0.144-0.213-0.255-0.242-0.373c-0.039-0.124-0.114-0.189-0.206-0.287
		c-0.079-0.092-0.026-0.354-0.144-0.433c-0.098-0.065-0.189-0.195-0.314-0.261c-0.108-0.06-0.373,0.183-0.5,0.117
		c-0.108-0.052-0.219-0.327-0.347-0.386c-0.046,0.124-0.222,0.248-0.285,0.347c-0.068,0.117-0.029,0.262-0.118,0.347
		c-0.091,0.085-0.183,0.138-0.288,0.203c-0.105,0.065-0.183,0.156-0.304,0.196c-0.115,0.039-0.183,0.327-0.308,0.347
		c-0.121,0.02-0.275-0.046-0.399-0.046c-0.134,0.013-0.255-0.341-0.393-0.354c-0.134-0.013-0.265,0.059-0.393,0.026
		c-0.127-0.026-0.301,0.117-0.428,0.078c-0.128-0.039-0.18-0.313-0.304-0.354c-0.125-0.039-0.314,0.105-0.438,0.079
		c-0.131-0.039-0.245-0.131-0.376-0.145c-0.134-0.02-0.262,0.125-0.389,0.145c-0.128,0.007-0.262,0.026-0.363,0.013
		c-0.121-0.013-0.235-0.117-0.331-0.17c-0.098-0.046-0.258-0.065-0.34-0.144c-0.072-0.072-0.167-0.164-0.239-0.256
		c-0.079-0.104-0.088-0.255-0.164-0.353c-0.079-0.099,0.003-0.321-0.072-0.426c-0.078-0.091-0.072-0.262-0.153-0.366
		c-0.079-0.092-0.2-0.163-0.282-0.262c-0.075-0.098-0.288-0.092-0.369-0.196c-0.079-0.092-0.255,0.02-0.337-0.078
		c-0.121,0.013-0.17,0.039-0.294,0.026c-0.121-0.014-0.236-0.223-0.356-0.249c-0.118-0.026-0.226-0.104-0.344-0.15
		c-0.111-0.046-0.34,0.111-0.451,0.053c-0.108-0.06-0.232-0.145-0.334-0.223c-0.095-0.072-0.091-0.295-0.183-0.38
		c-0.085-0.085,0.036-0.359-0.052-0.451c-0.088-0.104-0.51,0.053-0.572-0.046c-0.072-0.111-0.121-0.281-0.16-0.393
		c-0.042-0.124,0.199-0.308,0.203-0.425c0.003-0.124-0.042-0.249,0.02-0.366c0.059-0.104,0.075-0.262,0.183-0.354
		c0.085-0.078,0.327,0.053,0.448-0.013c0.104-0.053,0.173-0.164,0.285-0.216c0.111-0.046,0.258,0.02,0.376-0.021
		c0.108-0.052,0.072-0.497,0.187-0.536c0.111-0.039,0.288,0.104,0.406,0.065c0.111-0.039,0.167-0.248,0.284-0.288
		c0.115-0.039,0.331,0.236,0.448,0.196c0.115-0.032,0.062-0.393,0.177-0.432c-0.003-0.026,0.111-0.026,0.01-0.131
		c-0.085-0.085-0.173-0.177-0.245-0.268c-0.072-0.099-0.154-0.19-0.216-0.295c-0.062-0.098-0.294-0.124-0.347-0.235
		c-0.056-0.104,0.209-0.359,0.167-0.471s-0.065-0.223-0.111-0.341c-0.042-0.104-0.32-0.131-0.36-0.248
		c-0.042-0.104,0.239-0.354,0.196-0.458c-0.042-0.118-0.111-0.229-0.157-0.34c-0.049-0.104-0.088-0.242-0.147-0.34
		c-0.056-0.105-0.196-0.184-0.265-0.282c-0.072-0.098-0.098-0.203-0.164-0.314c-0.062-0.104-0.452-0.033-0.504-0.137
		c-0.052-0.111,0.183-0.353,0.138-0.464c-0.043-0.111-0.184-0.19-0.219-0.308c-0.04-0.111-0.069-0.222-0.102-0.34
		c-0.036-0.118-0.304-0.176-0.333-0.294c-0.03-0.118,0.196-0.294,0.173-0.412c-0.023-0.118,0.15-0.275,0.124-0.399
		c-0.022-0.124-0.327-0.196-0.359-0.32c-0.033-0.131,0.078-0.288,0.039-0.419c-0.039-0.124,0.039-0.288,0-0.412
		c-0.039-0.124-0.134-0.229-0.18-0.359c-0.042-0.118-0.075-0.249-0.121-0.367c-0.042-0.118-0.412-0.131-0.455-0.249
		c-0.045-0.118-0.141-0.222-0.183-0.353c-0.045-0.118,0.275-0.367,0.229-0.484c-0.039-0.124-0.307-0.176-0.34-0.301
		c-0.036-0.131-0.154-0.235-0.184-0.366c-0.029-0.118,0.34-0.314,0.317-0.432c-0.02-0.124-0.491-0.176-0.507-0.301
		c-0.013-0.118,0.245-0.274,0.235-0.393C6.818,19.725,6.87,19.6,6.86,19.476c-0.01-0.125-0.026-0.242-0.029-0.367
		c-0.007-0.124,0.02-0.249,0.013-0.366c-0.003-0.124,0.056-0.255,0.046-0.373c-0.006-0.118-0.157-0.236-0.16-0.36
		c-0.01-0.131,0.042-0.269,0.033-0.399s-0.347-0.235-0.356-0.366s0.265-0.288,0.255-0.418s0.088-0.275,0.082-0.406
		c-0.01-0.124-0.01-0.255-0.013-0.386s-0.206-0.255-0.206-0.386s-0.2-0.274-0.19-0.405c0.007-0.131,0.138-0.255,0.141-0.379
		c0.003-0.125-0.053-0.262-0.049-0.386c0.01-0.124-0.023-0.255-0.013-0.386c0.01-0.125,0.01-0.255,0.02-0.379
		c0.01-0.125,0.308-0.229,0.317-0.354c0.01-0.131-0.062-0.262-0.049-0.393c0.01-0.118,0.212-0.235,0.222-0.353
		c0.01-0.131-0.15-0.275-0.141-0.399c0.01-0.125-0.101-0.269-0.085-0.386c0.01-0.131,0.144-0.249,0.154-0.366
		c0.01-0.131,0.02-0.255,0.033-0.386c0.01-0.124-0.092-0.255-0.082-0.386s0.072-0.249,0.082-0.379
		c0.01-0.137-0.059-0.275-0.065-0.412c-0.01-0.137,0.154-0.294,0.157-0.425c0.007-0.104,0.04-0.209,0.04-0.314
		c0-0.111-0.134-0.223-0.121-0.321c0.016-0.111,0.17-0.157,0.212-0.242c0.053-0.118,0.121-0.223,0.173-0.34
		c0.053-0.104,0.085-0.235,0.134-0.34C7.465,7.799,7.462,7.662,7.515,7.55c0.052-0.118-0.085-0.314-0.04-0.432
		C7.531,7.001,7.91,7.04,7.962,6.929C8.015,6.818,7.923,6.635,7.976,6.53c0.056-0.118-0.052-0.314,0.007-0.418
		C8.041,5.994,8.228,5.954,8.29,5.843c0.063-0.111-0.039-0.32,0.026-0.425C8.381,5.313,8.757,5.405,8.83,5.307
		c0.072-0.098-0.141-0.412-0.063-0.51c0.079-0.098,0.226-0.144,0.314-0.235C9.163,4.469,9.359,4.489,9.458,4.41
		c0.091-0.085,0.124-0.249,0.226-0.32s0.222-0.125,0.327-0.183c0.104-0.065,0.235-0.085,0.35-0.15
		c0.111-0.053,0.173-0.209,0.284-0.262c0.111-0.052,0.304,0.079,0.419,0.026c0.118-0.045,0.274,0.04,0.393,0
		c0.121-0.045,0.114-0.445,0.235-0.478c0.121-0.039,0.226-0.144,0.347-0.176c0.121-0.04,0.278,0.052,0.399,0.033
		c0.118-0.033,0.262,0.183,0.383,0.176c0.114-0.013,0.229-0.183,0.35-0.17c0.114,0.006,0.252-0.065,0.373-0.046
		c0.115,0.02,0.206,0.19,0.321,0.216c0.118,0.026,0.275-0.157,0.389-0.124c0.118,0.033,0.193,0.216,0.311,0.242
		c0.115,0.026,0.206,0.17,0.321,0.196c0.118,0.02,0.239,0.085,0.353,0.105c0.121,0.013,0.269-0.301,0.399-0.301
		c0.131,0.007,0.235,0.065,0.356,0.046c0.131-0.02,0.389,0.255,0.491,0.19c0.111-0.065,0.199-0.144,0.304-0.203
		c0.111-0.059,0.189-0.17,0.297-0.222c0.118-0.052,0.183-0.203,0.301-0.242c0.121-0.046,0.265,0.007,0.386-0.026
		c0.118-0.04,0.157-0.399,0.278-0.432c0.125-0.026,0.324,0.354,0.448,0.334s0.226-0.177,0.35-0.183
		c0.127-0.007,0.249-0.111,0.373-0.111c0.125,0,0.249,0.026,0.379,0.039c0.128,0.007,0.255-0.013,0.383,0.007
		c0.125,0.02,0.239,0.085,0.367,0.111c0.118,0.026,0.229,0.105,0.35,0.131c0.121,0.04,0.314-0.17,0.435-0.131
		c0.118,0.04,0.209,0.183,0.331,0.223c0.118,0.046,0.124,0.353,0.245,0.405c0.102,0.04,0.311-0.301,0.435-0.288
		c0.115,0.006,0.216,0.196,0.333,0.183c0.118-0.02,0.239-0.033,0.34-0.079c0.114-0.045,0.193-0.196,0.308-0.235
		c0.118-0.046,0.209-0.203,0.324-0.235c0.121-0.033,0.35,0.366,0.471,0.333c0.121-0.033,0.161-0.425,0.282-0.451
		c0.121-0.02,0.294,0.262,0.412,0.235c0.121-0.013,0.222-0.196,0.347-0.209c0.121-0.013,0.251,0.013,0.373,0.007
		c0.125-0.007,0.246-0.085,0.37-0.092c0.128,0,0.252-0.046,0.376-0.046c0.124,0.007,0.242,0.183,0.363,0.196
		c0.125,0.007,0.246,0.007,0.366,0.026c0.118,0.013,0.271-0.183,0.393-0.17c0.121,0.02,0.2,0.314,0.324,0.34
		c0.121,0.026,0.259-0.052,0.38-0.026c0.121,0.026,0.212,0.17,0.333,0.196c0.121,0.04,0.242,0.04,0.36,0.079
		c0.121,0.04,0.274-0.052,0.393-0.013c0.114,0.04,0.196,0.177,0.311,0.223c0.118,0.046,0.193,0.17,0.311,0.222
		c0.114,0.046,0.337-0.137,0.448-0.085s0.075,0.386,0.187,0.445c0.111,0.059,0.206,0.125,0.311,0.183
		c0.104,0.059,0.366-0.118,0.465-0.045c0.098,0.065,0.274,0.045,0.373,0.118c0.104,0.072,0.065,0.333,0.163,0.405
		c0.098,0.079,0.301,0.033,0.393,0.118c0.092,0.085-0.046,0.405,0.046,0.497c0.085,0.079,0.202,0.131,0.288,0.222
		c0.078,0.092,0.301,0.065,0.379,0.157c0.072,0.098,0.242,0.131,0.314,0.235c0.065,0.092,0.065,0.249,0.124,0.354
		c0.059,0.104,0.098,0.222,0.15,0.327c0.053,0.105,0.223,0.17,0.274,0.282c0.04,0.111-0.242,0.333-0.202,0.451
		c0.039,0.104,0.366,0.131,0.398,0.242c0.039,0.111-0.091,0.274-0.065,0.386c0.026,0.118,0.249,0.183,0.275,0.301
		c0.025,0.118-0.145,0.282-0.118,0.393c0.026,0.131,0.262,0.17,0.295,0.262c0.039,0.118-0.217,0.379-0.125,0.471
		c0.065,0.065,0.347-0.15,0.472-0.092c0.117,0.052,0.195,0.183,0.301,0.236c0.117,0.065,0.163,0.229,0.262,0.294
		c0.104,0.059,0.235,0.098,0.333,0.164c0.099,0.065,0.19,0.164,0.281,0.236c0.092,0.078,0.314,0.013,0.406,0.091
		c0.091,0.085-0.026,0.386,0.059,0.471c0.085,0.091,0.32,0.033,0.405,0.124c0.085,0.092,0.262,0.118,0.334,0.216
		c0.072,0.098,0.078,0.261,0.144,0.366c0.065,0.098-0.131,0.36-0.071,0.471c0.059,0.105,0.065,0.223,0.124,0.34
		c0.052,0.104,0.313,0.118,0.354,0.223c0.052,0.118,0.104,0.229,0.137,0.347c0.039,0.111,0.125,0.216,0.157,0.333
		c0.033,0.118,0.138,0.222,0.163,0.347c0.033,0.111,0.014,0.249,0.04,0.373c0.025,0.118-0.079,0.255-0.06,0.379
		c0.02,0.124,0.295,0.209,0.308,0.333c0.014,0.092-0.393,0.333-0.34,0.445c0.046,0.098,0.269,0.144,0.327,0.229
		c0.092,0.104,0.248,0.013,0.34,0.02c0.131,0.02,0.255,0.111,0.373,0.137c0.124,0.04,0.249,0.118,0.359,0.177
		c0.111,0.059,0.105,0.275,0.196,0.36c0.092,0.085,0.184,0.144,0.249,0.242c0.078,0.111,0.366,0.091,0.419,0.209
		c0.052,0.111,0.177,0.229,0.216,0.347c0.039,0.125,0.065,0.269,0.098,0.393c0.026,0.118-0.288,0.314-0.262,0.438
		s0.341,0.203,0.36,0.32c0.025,0.125-0.295,0.288-0.281,0.412c0.013,0.125,0.32,0.216,0.327,0.334
		c0.006,0.124-0.38,0.249-0.38,0.366c0,0.125,0.189,0.249,0.184,0.366c-0.014,0.118,0.189,0.269,0.176,0.386
		c-0.02,0.118-0.065,0.242-0.085,0.36c-0.025,0.118-0.131,0.222-0.156,0.34c-0.033,0.118-0.065,0.236-0.105,0.354
		c-0.039,0.118-0.006,0.262-0.052,0.379c-0.039,0.104-0.17,0.189-0.223,0.301s-0.163,0.183-0.223,0.294
		c-0.059,0.104-0.156,0.183-0.222,0.288c-0.065,0.098-0.157,0.177-0.223,0.282c-0.072,0.098-0.079,0.235-0.157,0.327
		c-0.065,0.092-0.17,0.17-0.235,0.262c-0.065,0.098-0.039,0.262-0.099,0.354C38.61,23.094,38.695,23.1,38.63,23.198z M26.538,20.882
		c-0.052,0.125-0.134,0.072-0.193,0.183c-0.059,0.125,0.017,0.301-0.039,0.419s-0.399,0.111-0.441,0.229
		c-0.049,0.124,0.049,0.294,0.022,0.418c-0.029,0.137,0.043,0.308,0,0.393c-0.062,0.131-0.249,0.196-0.34,0.235
		c-0.098,0.046-0.219-0.072-0.344-0.104c-0.095-0.033-0.245,0.013-0.356-0.059c-0.104-0.065-0.222-0.072-0.327-0.118
		c-0.114-0.052-0.196-0.157-0.314-0.177c-0.121-0.02-0.235-0.176-0.356-0.176s-0.235,0.137-0.356,0.17
		c-0.115,0.02-0.147,0.275-0.258,0.314c-0.111,0.046-0.236,0-0.347,0.059c-0.108,0.059-0.383-0.19-0.484-0.131
		c-0.101,0.059-0.173,0.183-0.268,0.255c-0.098,0.059-0.183,0.157-0.275,0.229c-0.091,0.072-0.059,0.301-0.144,0.379
		c-0.088,0.072-0.308,0.013-0.396,0.098c-0.082,0.079-0.177,0.157-0.255,0.249c-0.072,0.092-0.01,0.294-0.082,0.393
		c-0.069,0.092-0.042,0.235-0.104,0.34c-0.075,0.118-0.17,0.203-0.229,0.314c-0.065,0.118-0.063,0.249-0.111,0.36
		c-0.052,0.124-0.317,0.157-0.347,0.281c-0.026,0.124,0.046,0.262,0.049,0.393c0.007,0.118-0.082,0.274-0.049,0.399
		c0.029,0.118-0.056,0.308,0,0.438c0.082,0.183,0.458,0.34,0.396,0.432c-0.065,0.098-0.396-0.196-0.569-0.183
		c-0.127,0.013-0.229,0.078-0.383,0.052c-0.111-0.013-0.252,0.249-0.393,0.268c-0.127,0.026-0.239,0.046-0.35,0.098
		c-0.144,0.065-0.337,0.046-0.373,0.137c-0.046,0.125,0.088,0.281,0.091,0.438c0.007,0.138-0.209,0.327-0.173,0.458
		c0.046,0.144,0.275,0.209,0.347,0.327c0.068,0.098,0.189,0.131,0.311,0.209c0.104,0.079,0.154,0.262,0.278,0.314
		c0.131,0.052,0.285-0.007,0.406,0c0.147,0.013,0.32-0.053,0.428-0.007c0.141,0.053,0.357,0.138,0.429,0.229
		c0.075,0.098,0.092,0.326,0.114,0.464c0.02,0.118-0.203,0.269-0.212,0.405c-0.01,0.145,0.17,0.308,0.157,0.452
		c-0.017,0.144,0.072,0.294,0.055,0.438c-0.013,0.145-0.274,0.262-0.288,0.399c-0.017,0.131-0.223,0.235-0.235,0.36
		c-0.017,0.124,0.379,0.301,0.359,0.432c-0.013,0.124-0.288,0.216-0.304,0.347c-0.013,0.131,0.121,0.274,0.101,0.398
		c-0.02,0.125-0.02,0.256-0.036,0.387c-0.02,0.117-0.232,0.222-0.249,0.347c-0.016,0.124-0.127,0.241-0.147,0.366
		c-0.017,0.124,0.157,0.281,0.144,0.405c-0.013,0.124-0.262,0.229-0.275,0.347c-0.013,0.131,0.033,0.262,0.02,0.393
		c-0.016,0.131,0.337,0.288,0.327,0.419c-0.01,0.124-0.308,0.229-0.314,0.359c-0.01,0.124,0.252,0.269,0.242,0.393
		c-0.007,0.124-0.072,0.255-0.079,0.373c0,0.131-0.209,0.255-0.209,0.386c0,0.124,0.026,0.255,0.026,0.386
		c0,0.125,0.02,0.256,0.026,0.38c0.003,0.131,0.255,0.248,0.259,0.379c0.006,0.131-0.265,0.262-0.255,0.393s0.108,0.256,0.118,0.38
		c0.013,0.124-0.036,0.262-0.02,0.393c0.013,0.124,0.029,0.248,0.046,0.379c0.02,0.125-0.092,0.275-0.062,0.406
		c0.026,0.124,0.333,0.189,0.363,0.313c0.029,0.118,0.167,0.209,0.203,0.334c0.033,0.124-0.229,0.347-0.189,0.464
		c0.042,0.118,0.235,0.184,0.281,0.302c0.042,0.117-0.131,0.32-0.088,0.438c0.042,0.118,0.271,0.17,0.317,0.281
		c0.049,0.118,0.01,0.275,0.059,0.393c0.049,0.111,0.386,0.104,0.435,0.223c0.046,0.118-0.098,0.32-0.045,0.432
		c0.052,0.118,0.212,0.184,0.265,0.301c0.052,0.111-0.049,0.301,0.007,0.406c0.052,0.117,0.216,0.176,0.274,0.294
		c0.056,0.111,0.036,0.269,0.095,0.373c0.059,0.111,0.088,0.242,0.144,0.354c0.059,0.11,0.072,0.248,0.138,0.359
		c0.062,0.111,0.209,0.177,0.271,0.281c0.065,0.111,0.343,0.092,0.405,0.203c0.063,0.111,0.098,0.235,0.161,0.34
		c0.065,0.111-0.043,0.32,0.022,0.426c0.069,0.117,0.053,0.268,0.121,0.379c0.069,0.104,0.285,0.118,0.356,0.223
		c0.072,0.104,0.187,0.177,0.265,0.281c0.079,0.098,0.042,0.288,0.125,0.386c0.082,0.104,0.337,0.053,0.418,0.157
		c0.082,0.092-0.147,0.471-0.062,0.563c0.088,0.098,0.491-0.092,0.579,0c0.085,0.092-0.042,0.393,0.043,0.484
		c0.091,0.091,0.193,0.17,0.281,0.262c0.091,0.091,0.186,0.183,0.284,0.268c0.092,0.085,0.255,0.104,0.347,0.189
		c0.092,0.092,0.301,0.053,0.393,0.145c0.098,0.085,0.161,0.203,0.252,0.288c0.095,0.091,0.075,0.301,0.173,0.393
		c0.092,0.078,0.242,0.065,0.347,0.131c0.105,0.064,0.154,0.235,0.275,0.274c0.114,0.052,0.268-0.053,0.396-0.026
		c0.121,0.026,0.216,0.209,0.337,0.223c0.124,0.013,0.249-0.249,0.376-0.249c0.125,0,0.249,0.177,0.37,0.157
		c0.124-0.02,0.232-0.104,0.347-0.138c0.124-0.032,0.242-0.046,0.347-0.098c0.118-0.059,0.098-0.255,0.189-0.327
		c0.099-0.085,0.245-0.039,0.308-0.15c0.065-0.111,0.213-0.157,0.274-0.242c0.082-0.104,0.196-0.138,0.275-0.196
		c0.111-0.078,0.177-0.262,0.287-0.269c0.105-0.006,0.21,0.15,0.327,0.196c0.092,0.04,0.242,0.007,0.354,0.072
		c0.092,0.059,0.223,0.065,0.327,0.138c0.104,0.071,0.235,0.071,0.347,0.124c0.111,0.065,0.085,0.432,0.196,0.478
		c0.124,0.046,0.327-0.184,0.451-0.15c0.125,0.032,0.177,0.399,0.301,0.419c0.125,0.02,0.275,0.025,0.399,0.039
		c0.124,0,0.269-0.249,0.393-0.255c0.124-0.007,0.229-0.15,0.347-0.177c0.131-0.014,0.288,0.17,0.405,0.137
		c0.131-0.032,0.19-0.229,0.314-0.274c0.117-0.046,0.203-0.111,0.32-0.163c0.111-0.06,0.216-0.111,0.32-0.171
		c0.111-0.065,0.393,0.131,0.497,0.06c0.099-0.072,0.184-0.196,0.275-0.281s0.144-0.223,0.223-0.321
		c0.091-0.091,0.216-0.156,0.294-0.255c0.072-0.104-0.007-0.308,0.059-0.419c0.065-0.11,0.196-0.17,0.249-0.294
		c0.059-0.111,0.144-0.223,0.177-0.34c0.059-0.164,0.229-0.157,0.294-0.242c0.099-0.104,0.092-0.38,0.235-0.366
		c0.104,0.013,0.196,0.235,0.334,0.301c0.111,0.052,0.255,0.065,0.366,0.117c0.124,0.04,0.189,0.262,0.308,0.302
		c0.117,0.039,0.313-0.184,0.438-0.151c0.124,0.033,0.268-0.045,0.386-0.025c0.124,0.025,0.223,0.163,0.354,0.177
		c0.124,0.013,0.248,0.013,0.372,0.013c0.125,0.013,0.262,0.17,0.387,0.17c0.131-0.007,0.274,0.065,0.405,0.046
		c0.118-0.013,0.17-0.49,0.294-0.517c0.125-0.026,0.308,0.202,0.426,0.17c0.117-0.039,0.163-0.288,0.274-0.334
		c0.118-0.046,0.262-0.006,0.373-0.065c0.111-0.052,0.223-0.098,0.334-0.163c0.104-0.065,0.156-0.209,0.262-0.288
		c0.098-0.065,0.432,0.177,0.536,0.099c0.098-0.072-0.046-0.452,0.053-0.53c0.091-0.085,0.248-0.085,0.34-0.17
		c0.092-0.092,0.398,0.032,0.484-0.053c0.091-0.091-0.138-0.483-0.053-0.575c0.078-0.099,0.314-0.053,0.393-0.15
		c0.085-0.099-0.02-0.334,0.052-0.432c0.079-0.099,0.275-0.111,0.348-0.216c0.065-0.105,0.144-0.21,0.202-0.314
		c0.065-0.111,0.104-0.229,0.157-0.34c0.053-0.118,0.379-0.125,0.425-0.249c0.046-0.117-0.255-0.347-0.222-0.471
		c0.032-0.118,0.202-0.203,0.229-0.327c0.013-0.131,0.184-0.242,0.189-0.366c0.007-0.131,0.053-0.269,0.046-0.393
		c0-0.131-0.026-0.269-0.046-0.399c-0.013-0.124-0.071-0.255-0.098-0.379c-0.026-0.125-0.039-0.262-0.079-0.387
		c-0.025-0.117,0.026-0.287-0.013-0.405c-0.046-0.117-0.471-0.15-0.484-0.262c0-0.124,0.196-0.248,0.236-0.366
		c0.025-0.104,0.156-0.17,0.216-0.274c0.059-0.099,0.183-0.131,0.268-0.235c0.079-0.092-0.131-0.393-0.052-0.498
		c0.065-0.098,0.241-0.124,0.307-0.229c0.06-0.104,0.203-0.163,0.256-0.274c0.065-0.111,0.196-0.19,0.248-0.295
		c0.039-0.117-0.092-0.308-0.052-0.419c0.052-0.117,0.039-0.235,0.078-0.353c0.033-0.118,0.288-0.184,0.314-0.308
		c0.025-0.118,0.117-0.242,0.131-0.36c0.013-0.117-0.314-0.274-0.308-0.392c0.006-0.125,0.255-0.242,0.242-0.367
		c0-0.117,0.065-0.262,0.052-0.379c-0.013-0.118-0.15-0.229-0.17-0.354c-0.026-0.117-0.032-0.242-0.065-0.366
		c-0.026-0.111-0.104-0.223-0.144-0.34c-0.04-0.125-0.314-0.275-0.314-0.419c0.014-0.163,0.15-0.38,0.223-0.484
		c0.065-0.104,0.432-0.02,0.484-0.131c0.065-0.104,0.039-0.262,0.091-0.372c0.053-0.111-0.078-0.295-0.032-0.399
		c0.046-0.118,0.308-0.17,0.333-0.274c0.026-0.118-0.144-0.288-0.117-0.406c0.013-0.117,0.078-0.229,0.092-0.354
		c0-0.117-0.157-0.222-0.17-0.34c-0.007-0.124-0.053-0.223-0.079-0.34c-0.026-0.111,0.014-0.235-0.032-0.347
		c-0.04-0.111-0.157-0.177-0.21-0.281c-0.052-0.111-0.111-0.19-0.183-0.295c-0.065-0.104-0.065-0.255-0.138-0.353
		c-0.078-0.099,0.013-0.321-0.053-0.426c-0.078-0.104-0.065-0.269-0.144-0.366c-0.078-0.104-0.209-0.17-0.281-0.262
		c-0.078-0.098-0.294-0.092-0.373-0.183c-0.085-0.099-0.347-0.04-0.432-0.131c-0.078-0.092-0.157-0.184-0.248-0.275
		c-0.079-0.092-0.026-0.32-0.105-0.412c-0.091-0.092-0.144-0.216-0.235-0.308c-0.085-0.091-0.347-0.006-0.432-0.098
		c-0.092-0.092-0.17-0.184-0.262-0.269c-0.085-0.085-0.052-0.301-0.144-0.392c-0.079-0.079,0.02-0.367-0.065-0.452
		c-0.092-0.072-0.465,0.177-0.557,0.098c-0.091-0.072-0.163-0.157-0.262-0.235c-0.098-0.065-0.032-0.354-0.137-0.419
		c-0.099-0.065-0.249-0.065-0.347-0.131c-0.099-0.065-0.249-0.052-0.347-0.118c-0.104-0.065-0.085-0.34-0.19-0.393
		c-0.104-0.059-0.241-0.065-0.347-0.118c-0.104-0.059-0.156-0.222-0.262-0.274c-0.104-0.065-0.412,0.261-0.522,0.209
		c-0.105-0.052-0.118-0.274-0.236-0.333c-0.104-0.052-0.294,0.059-0.398,0.006c-0.111-0.052-0.072-0.405-0.177-0.458
		c-0.118-0.053-0.373,0.216-0.484,0.163c-0.111-0.059-0.131-0.281-0.242-0.333c-0.11-0.052-0.222-0.098-0.333-0.144
		c-0.104-0.052-0.223-0.091-0.341-0.137c-0.104-0.046-0.294,0.085-0.405,0.033c-0.111-0.046-0.085-0.412-0.196-0.458
		s-0.216-0.104-0.327-0.15s-0.313,0.15-0.432,0.098c-0.117-0.046-0.124-0.412-0.248-0.458c-0.118-0.039-0.262-0.059-0.38-0.091
		c-0.131-0.04-0.249-0.098-0.373-0.131c-0.124-0.026-0.268,0.02-0.393-0.007c-0.124-0.02-0.248-0.085-0.373-0.104
		c-0.124-0.026-0.327,0.32-0.444,0.294c-0.131-0.02-0.196-0.347-0.327-0.373c-0.124-0.02-0.269,0.059-0.393,0.033
		c-0.118-0.026-0.242-0.046-0.366-0.072c-0.118-0.02-0.288,0.203-0.405,0.177c-0.125-0.02-0.203-0.294-0.327-0.321
		c-0.118-0.02-0.203-0.242-0.327-0.268c-0.118-0.026-0.288,0.229-0.406,0.209c-0.124-0.026-0.222-0.19-0.34-0.216
		c-0.118-0.02-0.223-0.164-0.354-0.189c-0.117-0.013-0.248,0.013-0.366-0.006c-0.124-0.02-0.248-0.053-0.366-0.072
		c-0.124-0.02-0.301,0.301-0.432,0.288c-0.118-0.026-0.249,0.013-0.373,0c-0.124-0.026-0.189-0.412-0.313-0.432
		c-0.118-0.013-0.278,0.209-0.399,0.19c-0.121-0.013-0.255,0.059-0.38,0.033c-0.12-0.013-0.271-0.399-0.396-0.366
		c-0.114,0.026-0.102,0.497-0.223,0.549c-0.114,0.039-0.327-0.17-0.441-0.125c-0.114,0.046-0.245,0.033-0.366,0.059
		c-0.092,0.026-0.196,0.072-0.304,0.098c-0.125,0.033-0.141,0.033-0.203-0.006c-0.082-0.065-0.062-0.157-0.121-0.275
		c-0.056-0.118-0.206-0.157-0.183-0.255c0.036-0.124,0.118-0.249,0.118-0.359c0.003-0.118-0.327-0.17-0.363-0.282
		c-0.033-0.111,0.173-0.327,0.098-0.418c-0.069-0.085-0.098-0.268-0.193-0.347c-0.088-0.065-0.196-0.157-0.304-0.223
		C26.773,20.634,26.649,20.935,26.538,20.882z M17.252,34.542c0.085,0.117,0.271,0.392,0.35,0.51
		c0.082,0.118,0.274,0.138,0.356,0.242c0.088,0.111-0.052,0.425,0.052,0.51c0.079,0.072,0.255,0,0.356,0.04
		c0.098,0.039,0.226-0.046,0.333-0.021c0.102,0.026,0.125,0.157,0.226,0.196c0.02-0.144,0.144-0.248,0.163-0.392
		c0.023-0.145-0.072-0.295-0.072-0.445c0-0.118-0.082-0.209-0.121-0.32c-0.039-0.125-0.003-0.281,0.026-0.399
		c0.026-0.111,0.196-0.189,0.229-0.308c0.029-0.111-0.052-0.255-0.02-0.373c0.036-0.117-0.157-0.294-0.125-0.405
		c0.033-0.117,0.16-0.203,0.193-0.313c0.033-0.118,0.399-0.131,0.435-0.249c0.033-0.111,0-0.242,0.033-0.354
		c0.033-0.117,0.04-0.242,0.072-0.353c0.033-0.118-0.131-0.288-0.098-0.406c0.036-0.111,0.258-0.17,0.291-0.287
		c0.039-0.138,0.091-0.288,0.104-0.412c0.02-0.145-0.154-0.288-0.177-0.413c-0.029-0.137-0.15-0.176-0.235-0.287
		c-0.079-0.092-0.121-0.184-0.255-0.262c-0.108-0.059-0.232-0.046-0.376-0.099c-0.121-0.046-0.154-0.313-0.262-0.366
		c-0.114-0.059-0.265-0.039-0.366-0.104c-0.111-0.072-0.134-0.229-0.222-0.308c-0.092-0.092-0.036-0.248-0.105-0.354
		c-0.068-0.104-0.517-0.013-0.553-0.131c-0.039-0.117,0.356-0.313,0.35-0.444c-0.01-0.118-0.075-0.196-0.056-0.327
		c0.016-0.118-0.2-0.294-0.16-0.412c0.039-0.111,0.095-0.235,0.16-0.353c0.056-0.111,0.255-0.151,0.347-0.255
		c0.085-0.092,0.082-0.301,0.187-0.393c0.095-0.079,0.356,0.04,0.468-0.052c0.101-0.079,0.095-0.308,0.206-0.393
		c0.101-0.079,0.134-0.183,0.242-0.275c0.013-0.124,0.167-0.196,0.183-0.307c0.013-0.138-0.059-0.268-0.04-0.386
		c0.02-0.124-0.052-0.274-0.029-0.386c0.029-0.131,0.016-0.281,0.059-0.399c0.042-0.111,0.176-0.216,0.242-0.327
		c0.063-0.098,0.317-0.065,0.402-0.164c0.072-0.085,0.02-0.308,0.118-0.399c0.082-0.079,0.105-0.236,0.206-0.327
		c0.085-0.079,0.337,0.033,0.442-0.052c0.091-0.079,0.304,0,0.412-0.092c0.095-0.079-0.065-0.484,0.036-0.549
		c0.098-0.079,0.347,0.065,0.448,0c0.102-0.072,0.127-0.269,0.232-0.327c0.104-0.065,0.212-0.138,0.324-0.19
		c0.111-0.059,0.301,0.072,0.412,0.026s0.252,0.006,0.366-0.02c0.118-0.04,0.18-0.255,0.301-0.275
		c0.118-0.026,0.265,0.183,0.382,0.177c0.121-0.02,0.219-0.079,0.344-0.079c0.121,0,0.258-0.36,0.386-0.347
		c0.092,0.013,0.226,0.255,0.34,0.209c0.098-0.045,0.049-0.327,0.131-0.399c0.091-0.072,0.183-0.079,0.226-0.164
		c0.056-0.118,0.291-0.104,0.353-0.196c0.065-0.104,0.105-0.203,0.183-0.288c0.082-0.079,0.147-0.157,0.246-0.223
		c0.095-0.059,0.111-0.333,0.222-0.373c0.105-0.033,0.285,0.216,0.402,0.203c0.111-0.013,0.219-0.098,0.337-0.091
		c0.141,0.013,0.242,0.091,0.354,0.13c0.124,0.046,0.216,0.098,0.314,0.17c0.102,0.079,0.065,0.235,0.144,0.347
		c0.072,0.098,0.376,0.046,0.432,0.164c0.059,0.118,0.213,0.196,0.262,0.314c0.042,0.118-0.121,0.405-0.003,0.497
		c0.114,0.092,0.33,0.039,0.451,0.052c0.124,0.026,0.212,0.275,0.337,0.288c0.124,0.026,0.277-0.144,0.405-0.125
		c0.124,0.02,0.235,0.125,0.359,0.15c0.128,0.013,0.295-0.274,0.419-0.249c0.128,0.013,0.22,0.249,0.344,0.262
		c0.124,0.026,0.262-0.079,0.393-0.059c0.124,0.02,0.223,0.203,0.354,0.229c0.117,0.013,0.261-0.085,0.386-0.065
		c0.124,0.02,0.235,0.118,0.359,0.144c0.131,0.013,0.249,0.065,0.373,0.079c0.124,0.026,0.242,0.092,0.366,0.111
		c0.124,0.013,0.269-0.065,0.386-0.046c0.131,0.013,0.288-0.216,0.419-0.196c0.124,0.02,0.249,0.079,0.366,0.092
		c0.131,0.026,0.223,0.249,0.347,0.261c0.125,0.026,0.235,0.131,0.36,0.157c0.124,0.02,0.274-0.131,0.398-0.104
		c0.125,0.02,0.262-0.013,0.387,0.013c0.117,0.02,0.222,0.184,0.347,0.196c0.124,0.026,0.294-0.176,0.412-0.157
		c0.131,0.026,0.176,0.451,0.301,0.478c0.131,0.02,0.301-0.386,0.405-0.373c0.131,0.007,0.235,0.301,0.34,0.288
		c0.131-0.013,0.249-0.072,0.354-0.131c0.092-0.052,0.196-0.144,0.269-0.249c0.065-0.079,0.039-0.236,0.092-0.354
		c0.059-0.118-0.046-0.307,0.006-0.425c0.053-0.124,0.145-0.222,0.196-0.347c0.053-0.118,0.262-0.17,0.314-0.294
		c0.039-0.124,0.013-0.281,0.059-0.399s0.229-0.189,0.281-0.314c0.053-0.118-0.026-0.301,0.026-0.418
		c0.052-0.118,0.255-0.17,0.313-0.288c0.053-0.124-0.131-0.36-0.065-0.471c0.053-0.118,0.275-0.144,0.314-0.269
		c0.039-0.124,0-0.255,0.02-0.379c0.02-0.124,0.059-0.242,0.059-0.373c0.014-0.125-0.183-0.223-0.196-0.354
		c-0.013-0.131,0.105-0.262,0.079-0.379c-0.033-0.131,0.026-0.275-0.026-0.393c-0.046-0.118-0.046-0.262-0.104-0.379
		c-0.06-0.104-0.269-0.131-0.341-0.229c-0.078-0.098-0.065-0.281-0.156-0.373c-0.092-0.092-0.249-0.092-0.354-0.157
		c-0.104-0.079-0.235-0.079-0.347-0.131s-0.229-0.026-0.347-0.052c-0.144-0.039-0.15-0.406-0.249-0.451
		c-0.131-0.053-0.379,0.118-0.458,0.045c-0.098-0.085,0.131-0.347,0.099-0.464c-0.033-0.111-0.033-0.157-0.033-0.294
		c0.007-0.111-0.235-0.249-0.209-0.386c0.026-0.125-0.104-0.255-0.104-0.373c0.007-0.131,0.209-0.255,0.196-0.379
		c-0.014-0.131-0.21-0.216-0.235-0.347c-0.033-0.125-0.092-0.223-0.138-0.34c-0.046-0.124-0.085-0.222-0.138-0.34
		c-0.052-0.111,0.171-0.373,0.105-0.484c-0.06-0.111-0.171-0.203-0.242-0.307c-0.072-0.105-0.203-0.177-0.281-0.275
		c-0.085-0.105-0.125-0.235-0.21-0.333c-0.092-0.098-0.301-0.059-0.393-0.144c-0.091-0.085-0.131-0.236-0.235-0.314
		c-0.104-0.085-0.183-0.19-0.288-0.262c-0.104-0.072-0.144-0.281-0.248-0.34c-0.118-0.059-0.366,0.144-0.484,0.092
		c-0.131-0.059-0.157-0.294-0.262-0.36c-0.117-0.079-0.235-0.131-0.327-0.223c-0.091-0.091-0.02-0.288-0.091-0.393
		c-0.072-0.118-0.354-0.091-0.406-0.222c-0.046-0.118-0.183-0.222-0.223-0.36c-0.025-0.124,0.072-0.281,0.053-0.425
		c-0.013-0.131-0.039-0.262-0.059-0.393c-0.02-0.124,0.111-0.294,0.078-0.425c-0.032-0.131,0.007-0.294-0.032-0.419
		c-0.046-0.124-0.523-0.079-0.583-0.196c-0.059-0.124,0.125-0.36,0.06-0.464c-0.072-0.111-0.321-0.092-0.393-0.196
		c-0.079-0.098-0.079-0.249-0.157-0.34c-0.078-0.098-0.144-0.196-0.235-0.288c-0.085-0.092-0.242-0.111-0.334-0.196
		s0.085-0.458-0.013-0.537c-0.099-0.085-0.432,0.131-0.53,0.053c-0.104-0.079-0.131-0.236-0.242-0.301
		c-0.104-0.072-0.046-0.393-0.156-0.458c-0.108-0.065-0.436,0.249-0.547,0.196c-0.107-0.065-0.124-0.301-0.238-0.353
		c-0.118-0.052-0.314,0.104-0.429,0.065c-0.118-0.052-0.17-0.242-0.291-0.288c-0.114-0.039-0.229-0.091-0.35-0.13
		c-0.121-0.033-0.242-0.053-0.363-0.079c-0.118-0.04-0.174-0.354-0.298-0.386c-0.121-0.026-0.317,0.294-0.441,0.269
		c-0.128-0.02-0.219-0.19-0.344-0.209c-0.124-0.02-0.232-0.177-0.356-0.196c-0.124-0.013-0.265-0.065-0.389-0.072
		c-0.127-0.007-0.265,0.02-0.396,0.02c-0.124,0-0.262,0.052-0.386,0.065c-0.125,0.006-0.258,0.006-0.386,0.02
		c-0.124,0.013-0.268-0.065-0.392-0.046c-0.128,0.013-0.184,0.452-0.311,0.471c-0.124,0.026-0.278-0.138-0.402-0.111
		c-0.121,0.02-0.262-0.039-0.376-0.006c-0.118,0.039-0.265-0.007-0.376,0.026c-0.118,0.04-0.111,0.406-0.226,0.445
		c-0.111,0.046-0.271-0.039-0.382,0.007c-0.111,0.045-0.255,0-0.37,0.045c-0.115,0.04-0.252,0-0.367,0.033
		c-0.111,0.033-0.261,0.144-0.37,0.072c-0.108-0.065-0.232-0.098-0.34-0.157c-0.108-0.059-0.115-0.327-0.219-0.379
		c-0.118-0.052-0.209-0.17-0.324-0.222c-0.115-0.046-0.356,0.222-0.471,0.183c-0.121-0.04-0.17-0.314-0.291-0.34
		c-0.121-0.026-0.245-0.131-0.366-0.15c-0.125-0.02-0.275,0.085-0.393,0.085c-0.127-0.006-0.255-0.026-0.383-0.02
		c-0.124,0.006-0.249,0.072-0.37,0.092c-0.121,0.02-0.18,0.294-0.304,0.327c-0.121,0.033-0.245-0.02-0.366,0.02
		c-0.115,0.045-0.366-0.223-0.481-0.17c-0.111,0.052-0.189,0.203-0.294,0.262c-0.104,0.065-0.111,0.288-0.216,0.36
		c-0.101,0.072-0.343-0.046-0.445,0.033c-0.095,0.072-0.065,0.301-0.164,0.393c-0.101,0.085-0.212,0.079-0.297,0.111
		c-0.102,0.033-0.213,0.17-0.324,0.15c-0.092-0.026-0.207-0.04-0.324-0.079s-0.216-0.144-0.34-0.183
		c-0.121-0.046-0.265-0.013-0.389-0.052c-0.121-0.04-0.246-0.065-0.373-0.098c-0.125-0.04-0.223-0.15-0.347-0.183
		c-0.125-0.033-0.206-0.262-0.331-0.281c-0.131-0.026-0.252-0.157-0.382-0.17c-0.131-0.013-0.278,0.026-0.409,0.026
		c-0.131-0.013-0.265,0.17-0.389,0.183c-0.131,0.006-0.219,0.262-0.337,0.288c-0.131,0.02-0.232,0.053-0.353,0.085
		c-0.125,0.039-0.298-0.111-0.419-0.059s-0.252,0.072-0.36,0.131c-0.111,0.065-0.078,0.34-0.183,0.406
		c-0.108,0.078-0.189,0.144-0.285,0.229c-0.098,0.085-0.304,0.04-0.392,0.138C9.928,4.986,9.631,4.901,9.549,4.999
		C9.467,5.104,9.735,5.47,9.657,5.575C9.585,5.68,9.493,5.758,9.428,5.863C9.359,5.967,9.065,5.941,9.003,6.059
		C8.94,6.17,8.95,6.32,8.888,6.438C8.826,6.549,8.846,6.7,8.78,6.818C8.725,6.936,8.443,6.936,8.388,7.053S8.339,7.315,8.287,7.419
		C8.231,7.531,8.067,7.603,8.021,7.714C7.973,7.832,8.329,8.106,8.287,8.218C8.241,8.335,8.021,8.381,7.982,8.492
		C7.943,8.61,8.083,8.787,8.044,8.898C8.005,9.016,7.655,9.042,7.619,9.16C7.586,9.277,7.9,9.487,7.871,9.604
		C7.842,9.729,7.619,9.801,7.593,9.918c-0.029,0.118-0.049,0.235-0.075,0.36c-0.022,0.124-0.033,0.242-0.052,0.366
		c-0.02,0.125,0.15,0.268,0.131,0.386c-0.02,0.124-0.376,0.196-0.396,0.32c-0.013,0.125-0.046,0.249-0.063,0.366
		c-0.013,0.125,0.226,0.269,0.216,0.393c-0.01,0.118-0.366,0.216-0.373,0.34c-0.01,0.124,0.003,0.255-0.007,0.373
		c-0.003,0.13-0.039,0.255-0.042,0.373c-0.006,0.125,0.065,0.255,0.065,0.373c-0.003,0.131-0.036,0.249-0.036,0.379
		c0,0.118,0.376,0.242,0.376,0.366c0,0.125-0.314,0.249-0.311,0.373c0,0.124,0.111,0.242,0.111,0.366
		c0.007,0.125,0.007,0.242,0.01,0.373c0.007,0.118,0.262,0.235,0.265,0.353c0.006,0.131-0.245,0.262-0.242,0.386
		c0.007,0.124-0.189,0.255-0.183,0.379c0.01,0.124,0.294,0.229,0.301,0.353c0.003,0.125-0.134,0.255-0.125,0.386
		c0.006,0.124-0.108,0.261-0.098,0.379c0.01,0.131,0.072,0.249,0.088,0.379c0.01,0.118,0.013,0.249,0.026,0.373
		c0.017,0.125,0.376,0.203,0.393,0.334c0.013,0.124,0.085,0.235,0.102,0.359c0.013,0.125-0.337,0.294-0.321,0.425
		c0.02,0.125,0.275,0.209,0.294,0.327c0.02,0.131,0.128,0.235,0.144,0.354c0.02,0.131-0.35,0.32-0.327,0.438
		c0.026,0.125,0.497,0.164,0.52,0.281c0.026,0.118-0.219,0.301-0.193,0.419c0.029,0.131-0.006,0.262,0.02,0.386
		c0.03,0.118,0.063,0.242,0.098,0.366c0.03,0.118,0.03,0.249,0.063,0.373c0.029,0.118,0.003,0.262,0.032,0.379
		c0.036,0.118,0.203,0.209,0.236,0.327c0.036,0.118,0.006,0.262,0.046,0.379c0.033,0.118,0.382,0.144,0.418,0.262
		c0.039,0.118-0.2,0.327-0.16,0.445c0.039,0.118-0.023,0.275,0.02,0.386c0.039,0.124,0.079,0.242,0.121,0.359
		c0.042,0.111,0.275,0.17,0.317,0.281c0.042,0.118,0.274,0.164,0.317,0.282c0.046,0.118-0.023,0.274,0.026,0.392
		c0.046,0.111,0.157,0.196,0.206,0.314c0.052,0.118,0.141,0.209,0.196,0.327c0.059,0.118,0.127,0.216,0.193,0.327
		c0.062,0.111-0.114,0.373-0.046,0.484c0.065,0.111,0.206,0.176,0.278,0.281c0.068,0.111-0.02,0.321,0.049,0.431
		c0.065,0.111,0.285,0.125,0.347,0.242c0.065,0.105,0.236,0.17,0.298,0.281c0.062,0.118,0.013,0.288,0.072,0.412
		c0.059,0.118,0.118,0.236,0.17,0.36c0.052,0.117,0.209,0.196,0.265,0.32c0.052,0.118,0.056,0.262,0.105,0.386
		c0.049,0.125,0.153,0.223,0.206,0.347c0.055,0.125-0.063,0.314-0.013,0.432c0.049,0.125,0.052,0.249,0.082,0.38
		c0.03,0.144,0.17,0.274,0.141,0.399c-0.016,0.059-0.209-0.026-0.376-0.007c-0.121,0.013-0.255,0.013-0.356,0.026
		c-0.115,0.013-0.232,0.046-0.347,0.052c-0.121,0.014-0.232,0.072-0.354,0.079c-0.118,0.006-0.219,0.222-0.34,0.235
		C10,32.095,9.847,31.741,9.729,31.755c-0.118,0.013-0.219,0.183-0.337,0.209c-0.115,0.026-0.177,0.235-0.288,0.275
		c-0.124,0.039-0.274-0.046-0.36,0.013c-0.111,0.078-0.006,0.235-0.049,0.327c-0.042,0.104-0.396,0.196-0.356,0.32
		c0.033,0.099,0.396,0.026,0.48,0.124c0.069,0.072,0.079,0.196,0.184,0.262c0.111,0.085,0.134,0.288,0.245,0.341
		c0.121,0.065,0.285,0.026,0.399,0.065c0.128,0.039,0.239,0.104,0.367,0.117c0.13,0.02,0.255,0.072,0.392,0.065
		c0.125-0.013,0.229-0.144,0.36-0.183c0.121-0.026,0.308,0.117,0.435,0.065c0.115-0.046,0.301,0.013,0.422-0.053
		c0.111-0.065,0.036-0.458,0.15-0.536c0.092-0.053,0.173-0.184,0.275-0.229c0.095-0.046,0.258,0.02,0.356-0.013
		c0.102-0.046,0.206,0.124,0.304,0.085c0.065,0.085,0.2,0.013,0.269,0.104c0.068,0.079,0.232,0.235,0.297,0.32
		c-0.104,0.053-0.356,0.046-0.471,0.099c-0.115,0.046-0.134,0.274-0.242,0.327c-0.115,0.065-0.281-0.014-0.35,0.078
		c-0.059,0.092-0.226,0.125-0.275,0.229c-0.049,0.098-0.134,0.202-0.17,0.308c-0.033,0.104,0.262,0.274,0.252,0.379
		c-0.01,0.118-0.069,0.184-0.042,0.288c0.029,0.117-0.173,0.419-0.072,0.529c0.092,0.099,0.246,0.203,0.36,0.295
		c0.115,0.078,0.291,0.117,0.406,0.183c0.114,0.065,0.304,0.02,0.438,0.065c0.13,0.04,0.245,0.171,0.386,0.196
		c0.134,0.026,0.32-0.294,0.458-0.274c0.114,0.013,0.177,0.438,0.291,0.451c0.118,0.02,0.255-0.098,0.373-0.085
		c0.114,0.02,0.249-0.065,0.366-0.052c0.114,0.02,0.229,0.052,0.347,0.065c0.121,0.013,0.235-0.014,0.35-0.014
		c0.121,0.014,0.239,0.053,0.353,0.039c0.121-0.006,0.246,0.033,0.36,0.007c0.088-0.02-0.023-0.242,0.039-0.373
		c0.043-0.092,0.17-0.144,0.206-0.262c0.036-0.104,0.334-0.131,0.367-0.248c0.036-0.104-0.308-0.327-0.275-0.432
		c0.036-0.118,0.255-0.177,0.294-0.275C17.049,34.96,17.033,34.751,17.252,34.542z"/>
	<path d="M28.771,35.432c0.108-0.014,0.111,0.078,0.213,0.052c0.111-0.02,0.203-0.104,0.295-0.117
		c0.144-0.033,0.18-0.086,0.222-0.033c0.082,0.085,0.147,0.177,0.226,0.269c0.079,0.078,0.337,0.013,0.416,0.098
		c0.075,0.085,0.124,0.203,0.199,0.295c0.078,0.091,0.203,0.144,0.269,0.235c0.078,0.092,0.183,0.163,0.262,0.262
		c0.065,0.092-0.184,0.425-0.118,0.523c0.065,0.091,0.366,0.025,0.432,0.124c0.065,0.098,0.118,0.216,0.17,0.327
		c0.053,0.111-0.039,0.281,0,0.398c0.053,0.105,0.249,0.151,0.301,0.262c0.046,0.111,0.014,0.249,0.065,0.354
		c0.053,0.111,0.302,0.092,0.367,0.196s-0.014,0.308,0.052,0.419c0.072,0.104,0.079,0.248,0.15,0.354
		c0.072,0.104,0.32,0.078,0.393,0.183c0.072,0.099,0.059,0.262,0.138,0.366c0.078,0.099,0.032,0.288,0.104,0.393
		c0.078,0.099,0.144,0.21,0.216,0.308c0.078,0.104,0.347,0.059,0.419,0.164c0.072,0.098,0.007,0.301,0.078,0.405
		c0.072,0.104,0.216,0.157,0.288,0.262c0.059,0.078-0.092,0.34-0.02,0.425c0.065,0.092,0.517-0.032,0.55,0.059
		c0.039,0.105-0.367,0.171-0.433,0.275c-0.039,0.065,0.026,0.157-0.104,0.229c-0.065,0.033-0.196,0.216-0.333,0.138
		c-0.099-0.046-0.092-0.301-0.19-0.38c-0.104-0.078-0.17-0.15-0.222-0.229c-0.072-0.111-0.341-0.085-0.406-0.189
		s0-0.295-0.065-0.393c-0.065-0.104-0.274-0.125-0.34-0.229s0.026-0.308-0.039-0.412s-0.065-0.248-0.131-0.353
		c-0.065-0.105-0.386-0.053-0.445-0.157c-0.065-0.104-0.156-0.21-0.216-0.314c-0.059-0.104,0.02-0.294-0.052-0.405
		c-0.06-0.104,0.091-0.34,0.032-0.445c-0.065-0.11-0.144-0.209-0.216-0.313c-0.059-0.104-0.274-0.124-0.334-0.229
		c-0.065-0.104-0.32-0.098-0.393-0.202c-0.064-0.104,0.065-0.327,0-0.432c-0.064-0.105-0.025-0.275-0.098-0.38
		c-0.065-0.104-0.359-0.072-0.422-0.17c-0.063-0.099-0.111-0.196-0.18-0.294c-0.065-0.099-0.154-0.171-0.226-0.269
		c-0.069-0.092,0.052-0.334-0.02-0.426c-0.072-0.091-0.334-0.032-0.409-0.124c-0.072-0.092-0.089-0.229-0.164-0.32
		c-0.071-0.085-0.241-0.104-0.316-0.196C28.654,35.693,28.844,35.529,28.771,35.432z"/>
	<path d="M24.909,35.667c0.078,0.085,0.072-0.06,0.127-0.007c0.091,0.085,0.118,0.144,0.147,0.216
		c0.04,0.111,0.17,0.189,0.206,0.301c0.04,0.111,0.203,0.17,0.249,0.281c0.036,0.111-0.265,0.347-0.222,0.451
		c0.039,0.118,0.317,0.138,0.356,0.249s0.206,0.184,0.245,0.288c0.04,0.104-0.284,0.34-0.251,0.458
		c0.036,0.104,0.18,0.183,0.212,0.294c0.039,0.111,0.092,0.216,0.125,0.327c0.036,0.111-0.007,0.249,0.026,0.359
		c0.033,0.118,0.049,0.229,0.075,0.341c0.029,0.117,0.111,0.216,0.141,0.333c0.03,0.111,0.079,0.217,0.105,0.334
		c0.029,0.118,0.045,0.235,0.078,0.354c0.03,0.111,0.288,0.157,0.324,0.274c0.033,0.118,0.022,0.235,0.055,0.347
		c0.036,0.111,0.128,0.203,0.161,0.32c0.033,0.105,0.114,0.196,0.154,0.302c0.039,0.104-0.294,0.359-0.249,0.471
		c0.043,0.104,0.347,0.104,0.393,0.209s0.079,0.216,0.128,0.32c0.042,0.111-0.063,0.275-0.02,0.387
		c0.042,0.104,0.239,0.15,0.285,0.255c0.036,0.111,0.003,0.242,0.036,0.359c0.039,0.118,0.203,0.327,0.147,0.472
		c-0.049,0.131-0.311,0.216-0.347,0.34c-0.085-0.092-0.157-0.249-0.249-0.34c-0.092-0.092-0.36-0.092-0.409-0.196
		c-0.052-0.118-0.01-0.275-0.056-0.393c-0.056-0.118,0.026-0.288-0.02-0.406c-0.049-0.117-0.088-0.248-0.138-0.359
		c-0.045-0.118-0.327-0.138-0.373-0.255c-0.049-0.118,0.062-0.301,0.013-0.419c-0.049-0.117-0.176-0.203-0.232-0.32
		c-0.046-0.111,0.16-0.34,0.108-0.458c-0.049-0.111-0.51-0.059-0.56-0.177c-0.049-0.117,0.327-0.419,0.278-0.53
		c-0.046-0.11-0.206-0.189-0.255-0.307c-0.045-0.118-0.314-0.145-0.366-0.262c-0.052-0.118,0.108-0.314,0.059-0.438
		c-0.04-0.099-0.049-0.177-0.063-0.288c-0.016-0.111-0.255-0.17-0.281-0.269c-0.026-0.117,0.098-0.274,0.079-0.392
		c-0.023-0.118-0.206-0.21-0.235-0.327c-0.026-0.118,0.124-0.281,0.085-0.393c-0.042-0.118-0.042-0.275-0.115-0.366
		c-0.078-0.105-0.399-0.065-0.448-0.171c-0.052-0.117-0.121-0.281-0.134-0.393c-0.016-0.124,0.147-0.274,0.167-0.398
		c0.016-0.111,0.294-0.157,0.333-0.281c0.033-0.104,0.052-0.21,0.102-0.327C24.935,35.732,24.856,35.784,24.909,35.667z"/>
	<path d="M33.737,28.209c0.117,0.053,0.222,0.085,0.333,0.138c0.111,0.059,0.262,0.039,0.373,0.092
		c0.118,0.052,0.209,0.144,0.327,0.202c0.118,0.053,0.203,0.157,0.314,0.21c0.117,0.052,0.301-0.053,0.418-0.007
		c0.118,0.053,0.072,0.451,0.184,0.504c0.117,0.052,0.32-0.104,0.438-0.053c0.111,0.053,0.294-0.039,0.412,0.014
		c0.111,0.052,0.242,0.065,0.353,0.117c0.118,0.053,0.065,0.484,0.177,0.536c0.118,0.053,0.314-0.078,0.432-0.025
		c0.111,0.052,0.217,0.117,0.334,0.17c0.118,0.059,0.262,0.026,0.38,0.085c0.117,0.059,0.281-0.007,0.398,0.059
		c0.111,0.053,0.06,0.432,0.164,0.491c0.117,0.059,0.347-0.105,0.451-0.046c0.111,0.065,0.294,0.006,0.399,0.071
		c0.11,0.06,0.025,0.458,0.131,0.518c0.104,0.065,0.274,0.039,0.379,0.104c0.104,0.071,0.223,0.117,0.327,0.196
		c0.104,0.065,0.157,0.202,0.262,0.274c0.098,0.072,0.189,0.157,0.288,0.235c0.098,0.079,0.196,0.065,0.301,0.15
		c-0.033,0.099,0,0.072-0.026,0.177c-0.144-0.039-0.249-0.078-0.399-0.104s-0.372,0.157-0.51,0.085
		c-0.124-0.059-0.216-0.163-0.334-0.229c-0.117-0.06-0.262-0.079-0.379-0.145c-0.118-0.065-0.249-0.098-0.366-0.163
		c-0.118-0.072-0.026-0.484-0.145-0.55c-0.117-0.065-0.366,0.118-0.483,0.059c-0.111-0.052-0.223-0.117-0.327-0.17
		c-0.118-0.052-0.157-0.255-0.269-0.308c-0.111-0.059-0.295,0.046-0.412-0.013c-0.104-0.053-0.189-0.177-0.301-0.229
		c-0.111-0.052-0.314,0.092-0.432,0.04c-0.111-0.053-0.145-0.275-0.262-0.327c-0.111-0.053-0.196-0.184-0.301-0.235
		c-0.111-0.053-0.321,0.091-0.433,0.039c-0.11-0.053-0.183-0.196-0.287-0.255c-0.118-0.053-0.17-0.236-0.275-0.295
		c-0.117-0.052-0.222-0.118-0.333-0.177c-0.111-0.052-0.334,0.111-0.438,0.059c-0.118-0.052-0.144-0.274-0.262-0.326
		c-0.104-0.053-0.249-0.053-0.354-0.131c-0.092-0.072,0.014-0.36-0.078-0.445c-0.085-0.078-0.55,0-0.642-0.078
		C33.331,28.412,33.658,28.313,33.737,28.209z"/>
	<path d="M38.84,37.655c-0.104-0.065-0.065-0.17-0.17-0.242c-0.105-0.071-0.327,0.026-0.433-0.046
		c-0.104-0.078-0.248-0.091-0.353-0.156c-0.105-0.079-0.288-0.026-0.393-0.092c-0.111-0.079-0.184-0.196-0.288-0.269
		s-0.111-0.281-0.209-0.359c-0.105-0.079-0.079-0.314-0.177-0.393c-0.099-0.072-0.229-0.104-0.327-0.17
		c-0.099-0.079-0.438,0.156-0.536,0.085c-0.099-0.079-0.04-0.347-0.125-0.426c-0.092-0.078-0.209-0.131-0.308-0.209
		c-0.098-0.078-0.241-0.092-0.333-0.17c-0.104-0.072-0.17-0.184-0.262-0.262c-0.092-0.079-0.157-0.196-0.249-0.275
		c-0.091-0.078-0.294-0.02-0.393-0.091c-0.091-0.079,0.053-0.458-0.039-0.537c-0.092-0.078-0.327,0.014-0.419-0.059
		c-0.091-0.078-0.287-0.032-0.379-0.111c-0.092-0.078-0.209-0.131-0.301-0.202c-0.092-0.079,0.078-0.478-0.014-0.557
		c-0.098-0.078-0.301-0.026-0.359-0.137c-0.059-0.111-0.099-0.184-0.164-0.295c0.125,0.02,0.236-0.065,0.373-0.065
		c0.157,0,0.399-0.078,0.504,0c0.099,0.065-0.026,0.432,0.065,0.511c0.099,0.071,0.354-0.053,0.445,0.025
		c0.098,0.065,0.274,0.033,0.372,0.111c0.099,0.072-0.045,0.451,0.053,0.53c0.099,0.065,0.255,0.059,0.359,0.131
		c0.092,0.078,0.203,0.131,0.302,0.209c0.091,0.079,0.137,0.216,0.235,0.288c0.092,0.078,0.183,0.17,0.274,0.235
		c0.104,0.078,0.229,0.111,0.32,0.184c0.099,0.078,0.203,0.137,0.302,0.216c0.098,0.078,0.183,0.163,0.281,0.235
		c0.091,0.078,0.333-0.033,0.432,0.039c0.091,0.072,0.163,0.184,0.262,0.262c0.091,0.072,0.222,0.104,0.32,0.177
		c0.098,0.078,0.216,0.117,0.313,0.196c0.099,0.078-0.059,0.471,0.033,0.55c0.092,0.071,0.366-0.072,0.458,0
		c0.104,0.071,0.183,0.156,0.288,0.235c0.091,0.078,0.091,0.281,0.183,0.353c0.131,0.105,0.314,0.242,0.405,0.399
		C39.102,37.604,38.925,37.558,38.84,37.655z"/>
	<path d="M20.729,9.618c-0.017,0.118,0.144,0.235,0.13,0.353c-0.016,0.131-0.274,0.223-0.291,0.354
		c-0.013,0.124,0.173,0.274,0.154,0.393c-0.016,0.124,0.079,0.288,0.049,0.405c-0.03,0.118-0.095,0.229-0.131,0.354
		c-0.026,0.118-0.128,0.222-0.157,0.34c-0.029,0.125-0.079,0.242-0.108,0.36c-0.029,0.125-0.154,0.216-0.187,0.333
		c-0.033,0.125-0.196,0.209-0.232,0.334c-0.033,0.118-0.115,0.229-0.147,0.347c-0.036,0.118-0.026,0.249-0.056,0.366
		c-0.033,0.125-0.072,0.235-0.104,0.366c-0.033,0.125-0.069,0.236-0.095,0.36c-0.03,0.125,0.288,0.333,0.255,0.452
		c-0.036,0.118-0.396,0.157-0.425,0.274c-0.033,0.118-0.131,0.229-0.16,0.347c-0.033,0.125,0.131,0.294,0.098,0.412
		c-0.036,0.125,0,0.262-0.036,0.379c-0.033,0.125,0.085,0.288,0.049,0.406c-0.033,0.118-0.115,0.223-0.147,0.347
		c-0.036,0.118-0.222,0.196-0.255,0.321c-0.036,0.118-0.271,0.183-0.301,0.301c-0.033,0.124-0.003,0.262-0.033,0.379
		c-0.033,0.118,0.324,0.34,0.288,0.458c-0.033,0.124-0.304,0.183-0.337,0.301c-0.033,0.125-0.039,0.249-0.065,0.373
		c-0.036,0.124,0.013,0.262-0.02,0.379c-0.036,0.124-0.108,0.229-0.141,0.353c-0.033,0.125-0.121,0.229-0.154,0.347
		c-0.036,0.118,0.104,0.288,0.072,0.406c-0.033,0.118-0.435,0.144-0.468,0.262c-0.033,0.124,0.15,0.301,0.114,0.418
		c-0.033,0.125,0.088,0.281,0.059,0.406c-0.03,0.104-0.042,0.34-0.115,0.418c-0.082,0.079-0.438-0.17-0.53-0.098
		c-0.092,0.065-0.036,0.294-0.127,0.36c-0.023-0.091-0.023-0.183-0.056-0.288c-0.036-0.105-0.15-0.203-0.127-0.301
		c0.029-0.118-0.065-0.268-0.036-0.379c0.026-0.118,0.412-0.15,0.441-0.261c0.03-0.118-0.183-0.301-0.147-0.419
		c0.033-0.118-0.069-0.268-0.04-0.393c0.03-0.118,0.432-0.131,0.468-0.249c0.033-0.118-0.045-0.262-0.01-0.379
		c0.033-0.118,0.042-0.235,0.072-0.353c0.029-0.118,0.137-0.223,0.167-0.334c0.03-0.118,0.079-0.229,0.108-0.353
		c0.03-0.125,0.003-0.249,0.033-0.373c0.03-0.131,0.04-0.262,0.063-0.399c0.022-0.125,0.062-0.255,0.082-0.393
		c0.02-0.131-0.196-0.301-0.177-0.425c0.02-0.131,0.075-0.262,0.095-0.393c0.02-0.131-0.02-0.274,0.006-0.405
		c0.023-0.131,0.003-0.275,0.026-0.406c0.026-0.118,0.448-0.144,0.484-0.262c0.033-0.124-0.2-0.32-0.16-0.438
		c0.039-0.111,0.091-0.229,0.131-0.347c0.039-0.118,0.232-0.184,0.268-0.301s-0.092-0.288-0.052-0.412
		c0.033-0.118,0.15-0.216,0.183-0.333c0.033-0.125-0.141-0.308-0.104-0.425c0.033-0.124,0.249-0.189,0.284-0.308
		c0.033-0.118,0.144-0.222,0.183-0.34c0.036-0.118-0.137-0.301-0.101-0.419c0.033-0.118,0.167-0.209,0.206-0.333
		c0.033-0.118,0.212-0.196,0.245-0.32c0.033-0.118,0.088-0.236,0.125-0.354c0.036-0.118-0.164-0.308-0.125-0.432
		c0.04-0.118,0.242-0.183,0.281-0.301c0.036-0.125-0.01-0.269,0.026-0.393c0.036-0.105,0.333-0.079,0.396-0.19
		c0.059-0.098-0.144-0.523-0.085-0.622C20.447,9.304,20.614,9.578,20.729,9.618z"/>
	<path d="M12.215,23.689c-0.007-0.125-0.118-0.255-0.125-0.373c-0.003-0.125-0.082-0.235-0.091-0.353
		c-0.01-0.118,0.062-0.242,0.052-0.367c-0.01-0.118,0.265-0.249,0.262-0.373c-0.007-0.118-0.324-0.216-0.327-0.334
		c-0.01-0.118,0.167-0.249,0.157-0.373c-0.01-0.125-0.082-0.229-0.091-0.354c-0.01-0.118-0.042-0.235-0.052-0.353
		c-0.01-0.138,0.026-0.269,0.016-0.406S12.051,20.13,12.042,20c-0.01-0.138-0.219-0.249-0.229-0.386
		c-0.01-0.131-0.069-0.262-0.079-0.399c-0.01-0.138,0.232-0.281,0.223-0.419c-0.01-0.137-0.196-0.255-0.206-0.386
		c-0.01-0.164,0.311-0.301,0.366-0.458c0.026-0.085-0.108-0.255-0.065-0.347c0.059-0.111-0.013-0.079-0.046-0.137
		c-0.059-0.118-0.082-0.275-0.111-0.386c-0.033-0.124,0.01-0.281,0.003-0.399c-0.003-0.118,0.016-0.262,0.029-0.379
		c0.017-0.118,0.134-0.223,0.17-0.34c0.026-0.118,0.203-0.183,0.239-0.301c0.039-0.118,0.131-0.209,0.173-0.314
		c0.045-0.111,0.045-0.249,0.082-0.366c0.039-0.111,0.088-0.236,0.111-0.354c0.026-0.118,0.052-0.262,0.062-0.379
		c0.01-0.137-0.258-0.379-0.183-0.51c0.072-0.131,0.304,0,0.366-0.131c0.049,0.144-0.056,0.223,0,0.366
		c0.065,0.144,0.294,0.216,0.285,0.367c-0.003,0.124,0.052,0.255,0.042,0.379c-0.003,0.124,0.138,0.262,0.127,0.386
		c-0.01,0.125-0.068,0.242-0.078,0.373s-0.177,0.242-0.187,0.366c-0.01,0.131-0.226,0.235-0.236,0.366
		c-0.01,0.118,0.046,0.249,0.036,0.379c-0.01,0.125,0.383,0.275,0.376,0.399c-0.01,0.124-0.265,0.235-0.275,0.36
		c-0.01,0.124,0.01,0.249,0.006,0.379c-0.01,0.118,0.063,0.249,0.052,0.379c-0.01,0.124-0.059,0.242-0.068,0.373
		s-0.075,0.242-0.082,0.373c-0.01,0.125,0.154,0.262,0.15,0.379c-0.006,0.131-0.399,0.235-0.405,0.353
		c-0.01,0.131,0.203,0.269,0.193,0.393c-0.01,0.125,0.141,0.262,0.131,0.386c-0.01,0.124,0.02,0.255,0.013,0.379
		c-0.01,0.124-0.432,0.229-0.438,0.353c-0.01,0.125,0.19,0.269,0.183,0.386c-0.003,0.131-0.036,0.255-0.042,0.379
		c-0.01,0.124,0.088,0.249,0.098,0.379c0.007,0.118,0.147,0.235,0.157,0.366c0.01,0.118-0.35,0.242-0.36,0.366
		c-0.01,0.118,0.203,0.275,0.157,0.386c-0.042,0.111-0.039,0.366-0.072,0.478C12.587,23.853,12.336,23.708,12.215,23.689z"/>
	<path d="M30.892,13.333c-0.065,0.104-0.138,0.033-0.203,0.13c-0.072,0.105-0.104,0.229-0.17,0.34
		c-0.065,0.098-0.092,0.223-0.16,0.333c-0.069,0.098,0.16,0.399,0.102,0.504c-0.072,0.104-0.501-0.033-0.569,0.072
		c-0.068,0.098-0.082,0.242-0.15,0.347c-0.065,0.105,0.026,0.314-0.036,0.419c-0.063,0.098-0.059,0.249-0.128,0.36
		c-0.065,0.098-0.075,0.242-0.144,0.347c-0.065,0.104-0.196,0.164-0.265,0.268c-0.065,0.098-0.37,0.052-0.438,0.15
		c-0.069,0.105,0.121,0.379,0.059,0.484c-0.063,0.098-0.291,0.104-0.356,0.209c-0.068,0.105-0.078,0.249-0.144,0.347
		c-0.069,0.098-0.111,0.223-0.181,0.327c-0.065,0.098-0.176,0.19-0.245,0.294c-0.131-0.052-0.232-0.144-0.359-0.196
		c0.022-0.131-0.161-0.249-0.147-0.379c0.017-0.131-0.016-0.288,0.007-0.405c0.029-0.131,0.307-0.19,0.376-0.294
		c0.065-0.098-0.02-0.308,0.046-0.406c0.068-0.098,0.347-0.059,0.415-0.15c0.069-0.104-0.029-0.321,0.043-0.419
		c0.071-0.091,0.039-0.274,0.111-0.366c0.071-0.104,0.173-0.176,0.245-0.274c0.072-0.092,0.202-0.157,0.274-0.249
		c0.072-0.098,0.16-0.183,0.232-0.281s0.223-0.137,0.298-0.229c0.071-0.098,0.262-0.104,0.333-0.203
		c0.069-0.091,0.184-0.144,0.252-0.235c0.072-0.092,0.105-0.203,0.177-0.294c0.072-0.079,0.154-0.164,0.223-0.249
		c0.072-0.092,0.144-0.177,0.216-0.268c0.072-0.085,0.02-0.478,0.092-0.569C30.819,12.889,30.754,13.235,30.892,13.333z"/>
</g>
<g>
</g>
<g>
</g>
<g>
</g>
<g>
</g>
<g>
</g>
<g>
</g>
<g>
</g>
<g>
</g>
<g>
</g>
<g>
</g>
<g>
</g>
<g>
</g>
<g>
</g>
<g>
</g>
<g>
</g>
</svg>
