<?xml version="1.0" encoding="utf-8"?>
<!-- Generator: Adobe Illustrator 16.0.0, SVG Export Plug-In . SVG Version: 6.00 Build 0)  -->
<!DOCTYPE svg PUBLIC "-//W3C//DTD SVG 1.1//EN" "http://www.w3.org/Graphics/SVG/1.1/DTD/svg11.dtd">
<svg version="1.1" id="圖層_1" xmlns="http://www.w3.org/2000/svg" xmlns:xlink="http://www.w3.org/1999/xlink" x="0px" y="0px"
	 width="55px" height="55px" viewBox="0 0 55 55" enable-background="new 0 0 55 55" xml:space="preserve">
<g>
	<path fill="#FFFFFF" d="M14.45,16.664c-0.438-1.064-0.862-2.016-1.214-2.997c-0.068-0.187,0.086-0.618,0.255-0.704
		c1.114-0.568,2.213-1.11,3.554-1.078c0.888,0.025,1.775-0.438,2.685-0.564c1.315-0.187,2.652-0.298,3.981-0.374
		c0.234-0.018,0.525,0.263,0.719,0.467c0.381,0.399,0.661,0.909,1.089,1.24c0.259,0.194,0.744,0.273,1.074,0.187
		c0.931-0.245,1.775-0.927,2.832-0.51c0.071,0.025,0.187-0.007,0.262-0.047c1.643-0.909,3.331-0.399,5.006-0.126
		c0.306,0.047,0.783,0.291,0.83,0.518c0.319,1.412,1.477,1.499,2.519,1.584c1.365,0.108,2.76,0.133,4.114-0.025
		c1.175-0.14,2.231,0.061,3.316,0.41c0.295,0.093,0.654,0.101,0.964,0.036c1.085-0.215,2.174-0.438,3.241-0.744
		c0.732-0.212,1.034,0.032,1.031,0.737c-0.004,0.805-0.101,1.613-0.062,2.415c0.036,0.833,0.194,1.66,0.28,2.494
		c0.194,1.84,0.366,3.683,0.582,5.52c0.094,0.812,0.252,1.617,0.399,2.422c0.125,0.675,0.287,1.344,0.405,2.019
		c0.13,0.77,0.198,1.545,0.338,2.314c0.108,0.61-0.158,0.978-0.661,1.232c-0.481,0.24-0.984,0.453-1.455,0.715
		c-1.254,0.701-2.497,0.687-3.763,0.021c-0.258-0.133-0.553-0.251-0.841-0.283c-1.516-0.147-3.039-0.234-4.553-0.406
		c-0.448-0.047-0.876-0.299-1.314-0.457c-0.299-0.107-0.597-0.262-0.909-0.313c-1.79-0.28-3.604-0.452-5.368-0.858
		c-0.626-0.144-1.377-0.723-1.643-1.297c-1.448-3.155-2.792-6.357-4.1-9.573c-0.618-1.517-1.078-3.105-1.61-4.657
		c-0.55-1.581-0.55-1.542-2.149-1.344c-1.391,0.172-2.817,0.155-4.19,0.402c-1.214,0.216-2.386,0.683-3.579,1.035
		C15.87,16.272,15.208,16.452,14.45,16.664z M34.651,13.735c-0.809-0.079-1.401,0.453-1.301,1.168
		c0.055,0.402,0.188,0.87,0.453,1.15c0.636,0.672,0.629,1.408,0.353,2.167c-0.259,0.715-0.607,1.376,0.384,1.825
		c0.111,0.054,0.18,0.32,0.18,0.485c-0.007,0.647-0.054,1.293-0.064,1.94c-0.007,0.521-0.043,1.053,0.043,1.563
		c0.147,0.837,0.568,1.66,0.532,2.476c-0.043,1.085,0.557,1.933,0.732,2.915c0.029,0.161,0.237,0.287,0.417,0.499
		c0.122-0.215,0.267-0.352,0.244-0.452c-0.337-1.858-0.711-3.712-1.049-5.577c-0.094-0.51-0.111-1.035-0.158-1.56
		c-0.079-0.87,0.021-1.818-0.295-2.591c-0.27-0.665-0.345-1.189-0.201-1.865c0.104-0.485,0.108-1.107-0.107-1.527
		C34.095,14.979,34.048,15.004,34.651,13.735z M49.563,30.477c0.134,0.007,0.259,0.011,0.393,0.018
		c0.064-0.377,0.204-0.758,0.187-1.132c-0.068-1.211-0.18-2.421-0.299-3.629c-0.024-0.295-0.111-0.582-0.201-0.862
		c-0.359-1.15-1.01-2.225-0.729-3.521c0.058-0.262-0.093-0.729-0.298-0.855c-0.736-0.449-0.535-0.916-0.248-1.52
		c0.154-0.319,0.223-0.83,0.068-1.114c-0.259-0.478-0.564-0.794,0.011-1.29c0.147-0.129-0.104-0.715-0.172-1.092
		c-0.245,0.198-0.558,0.356-0.723,0.611c-0.154,0.23-0.273,0.607-0.197,0.848c0.313,1.028-0.044,2.116,0.111,3.015
		c0.176,1.042,0.337,2.26,0.815,3.188c0.467,0.905-0.173,2.034,0.772,2.72C49.079,25.877,49,26.024,49,26.111
		c0,0.348-0.008,0.701,0.032,1.045c0.047,0.381,0.14,0.755,0.201,1.136C49.345,29.018,49.452,29.751,49.563,30.477z M46.183,30.387
		c0.129-0.011,0.259-0.018,0.388-0.032c0.015-0.464,0.101-0.935,0.033-1.387c-0.119-0.798-0.406-1.574-0.5-2.372
		c-0.201-1.718-0.496-3.399-1.451-4.894c-0.126-0.198-0.158-0.532-0.094-0.762c0.219-0.841,0.431-1.646-0.467-2.25
		c-0.079-0.054-0.104-0.215-0.115-0.327c-0.087-0.941-0.162-1.886-0.248-2.921c-0.794,0.258-1.042,0.611-0.719,1.243
		c0.118,0.237,0.334,0.503,0.306,0.726c-0.111,0.855-0.173,1.631,0.604,2.278c0.173,0.147-0.04,0.726-0.043,1.11
		c-0.008,0.406-0.137,1.039,0.064,1.182c1.258,0.898,0.353,2.573,1.351,3.521c0.044,0.043,0.044,0.19,0.008,0.259
		c-0.359,0.632-0.144,1.179,0.208,1.735c0.101,0.162,0.072,0.406,0.119,0.607C45.806,28.867,45.996,29.625,46.183,30.387z
		 M32.496,27.415c0.398-0.884,0.456-1.743,0.133-2.415c-0.392-0.819-0.475-1.47,0.015-2.228c0.097-0.154,0.057-0.532-0.068-0.675
		c-1.018-1.172-1.01-2.624-1.226-4.032c-0.201-1.315-0.582-2.602-0.881-3.91c-0.754,0.137-0.98,0.546-0.571,1.326
		c0.697,1.308,1.014,2.706,0.813,4.15c-0.086,0.611,0.058,0.985,0.363,1.456c0.302,0.471,0.758,1.2,0.593,1.563
		c-0.719,1.577,0.553,2.867,0.456,4.323C32.111,27.07,32.291,27.178,32.496,27.415z M41.525,28.249
		c0.137-0.008,0.27-0.015,0.402-0.019c0.029-0.352,0.137-0.715,0.072-1.049c-0.715-3.69-1.53-7.363-1.696-11.14
		c-0.014-0.212-0.201-0.42-0.309-0.632c-0.086,0.011-0.173,0.025-0.259,0.04c-0.051,0.266-0.151,0.532-0.137,0.791
		c0.04,0.837,0.13,1.667,0.18,2.501c0.032,0.64,0,1.279,0.051,1.912c0.064,0.776,0.169,1.549,0.287,2.321
		c0.072,0.496,0.15,0.996,0.306,1.466c0.227,0.69,0.563,1.34,0.775,2.034C41.371,27.042,41.418,27.652,41.525,28.249z M38.73,24.842
		c0.079-0.018,0.15-0.04,0.229-0.058c-0.064-0.438-0.079-0.898-0.223-1.308c-0.058-0.165-0.406-0.223-0.625-0.327
		c-0.036,0.197-0.101,0.392-0.108,0.593c-0.011,0.266,0.115,0.582,0.015,0.801c-0.417,0.888-0.323,1.391,0.432,2.102
		c0.204,0.194,0.431,0.467,0.463,0.733c0.122,0.984,0.162,1.987,0.263,2.982c0.018,0.198,0.18,0.381,0.273,0.568
		c0.161-0.177,0.448-0.349,0.456-0.532c0.018-0.37-0.126-0.755-0.194-1.128c-0.064-0.346-0.126-0.69-0.183-1.035
		c-0.102-0.575-0.173-1.157-0.31-1.725C39.093,25.945,38.896,25.396,38.73,24.842z M42.668,31.116
		c-0.086-0.614-0.136-1.074-0.236-1.523c-0.004-0.021-0.356,0.025-0.547,0.043c0.094,0.431,0.184,0.862,0.284,1.294
		C42.176,30.958,42.273,30.965,42.668,31.116z M38.051,16.427c-0.259-0.374-0.449-0.658-0.643-0.938
		c-0.134,0.155-0.417,0.356-0.381,0.457c0.107,0.338,0.326,0.64,0.503,0.956C37.674,16.771,37.813,16.642,38.051,16.427z
		 M37.652,20.71c0.15-0.029,0.302-0.061,0.452-0.09c-0.071-0.377-0.133-0.751-0.229-1.118c-0.004-0.014-0.331,0.058-0.503,0.086
		C37.462,19.962,37.555,20.336,37.652,20.71z"/>
	<path fill="#3A5489" d="M2.596,27.824c0.733-0.283,1.409-0.499,2.048-0.79c1.136-0.518,2.228-1.121,3.367-1.621
		c1.117-0.492,2.264-0.909,3.403-1.348c0.726-0.28,1.552-0.399,2.174-0.823c1.293-0.888,2.311-0.51,3.367,0.374
		c0.992,0.834,2.084,1.549,3.055,2.404c2.616,2.292,5.196,4.628,7.779,6.957c0.787,0.715,1.552,1.459,2.289,2.221
		c0.432,0.452,0.194,0.858-0.313,1.017c-0.715,0.22-1.448,0.392-2.181,0.5c-2.163,0.337-4.161,1.074-5.997,2.264
		c-1.301,0.837-2.602,1.692-3.935,2.476c-0.208,0.126-0.711,0.025-0.906-0.158c-1.833-1.667-3.611-3.392-5.433-5.073
		c-1.625-1.499-3.31-2.937-4.909-4.46C5.162,30.577,4.008,29.291,2.596,27.824z M16.15,35.687c-0.043-0.064-0.101-0.201-0.194-0.305
		c-0.345-0.389-0.662-0.813-1.06-1.144c-0.32-0.266-0.877-0.672-1.089-0.563c-0.625,0.33-1.136,0.877-1.653,1.372
		c-0.054,0.047,0.107,0.367,0.219,0.532c0.298,0.445,0.615,0.869,0.935,1.301c0.086,0.118,0.183,0.251,0.305,0.316
		C14.051,37.44,16.135,36.262,16.15,35.687z M9.319,30.685c-0.046,0.331-0.097,0.77-0.18,1.2c-0.14,0.693,0.119,0.852,0.784,0.719
		c0.284-0.058,0.866,0.087,0.895,0.23c0.208,0.974,0.848,0.812,1.595,0.711c0-0.653,0-1.271,0-2.12
		c-0.438,0.353-0.625,0.503-0.805,0.647c-0.377-0.223-0.697-0.417-1.057-0.633c0.187-0.208,0.359-0.345,0.453-0.518
		c0.061-0.104,0.061-0.309-0.007-0.402c-0.064-0.086-0.259-0.133-0.384-0.111C10.199,30.473,9.797,30.577,9.319,30.685z
		 M8.762,28.396c-0.507-0.313-0.866-0.697-1.064-0.625c-0.453,0.166-0.83,0.55-1.236,0.845c0.359,0.313,0.719,0.862,1.078,0.862
		C7.885,29.471,8.23,28.899,8.762,28.396z M7.972,30.096c0.05,0.079,0.101,0.165,0.151,0.251c0.503-0.313,1.01-0.625,1.527-0.941
		C9.021,28.601,8.528,28.842,7.972,30.096z"/>
	<path fill="#B59152" d="M29.653,33.667c0.036,0.032-0.118-0.061-0.244-0.18c-1.329-1.257-2.681-2.493-3.978-3.787
		c-2.483-2.479-5.286-4.553-8.117-6.597c-0.021-0.021-0.054-0.032-0.075-0.058c-1.031-1.021-2.124-1.739-3.633-0.489
		c-0.46-1.257-0.884-2.335-1.226-3.435c-0.054-0.187,0.184-0.611,0.377-0.697c0.913-0.403,1.865-0.719,2.795-1.078
		c0.582-0.223,1.128-0.561,1.732-0.697c0.755-0.165,1.524-0.151,2.257-0.564c0.388-0.223,1.042,0.068,1.552-0.011
		c0.931-0.144,1.84-0.431,2.763-0.589c1.103-0.194,2.145,0.654,2.311,1.743c0.058,0.367,0.244,0.711,0.381,1.063
		c0.05,0.14,0.151,0.266,0.172,0.41c0.367,2.375,1.704,4.395,2.422,6.633c0.305,0.956,1.235,1.682,1.013,2.835
		c-0.028,0.154,0.248,0.377,0.392,0.561c0.122,0.161,0.399,0.355,0.37,0.467c-0.338,1.236,0.866,1.797,1.179,2.753
		c0.313,0.941,0.212,1.246-0.819,1.365C30.817,33.369,30.365,33.513,29.653,33.667z"/>
	<path fill="#FFFFFF" d="M2.481,29.262c2.652,2.314,5.296,4.557,7.862,6.889c2.03,1.844,3.959,3.798,5.929,5.71
		c0.898,0.877,0.841,0.819,1.93,0.101c1.714-1.136,3.439-2.3,5.286-3.194c1.416-0.683,3.019-0.978,4.55-1.401
		c0.266-0.072,0.596,0.09,0.934,0.305c-3.73,2.178-7.977,3.335-11.222,6.328c-0.054-0.079-0.104-0.162-0.158-0.24
		c-0.241-0.205-0.478-0.417-0.791-0.684c-0.111,0.267-0.187,0.464-0.377,0.924c-1.207-1.283-2.311-2.505-3.46-3.672
		c-2.476-2.516-4.944-5.034-7.474-7.489c-0.787-0.765-1.757-1.34-2.663-1.986C2.222,30.415,2.042,29.916,2.481,29.262z"/>
	<path fill="#FFFFFF" d="M11.802,19.765c0.338,0.956,0.683,1.916,1.096,3.087C11.78,22.198,11.381,21.026,11.802,19.765z"/>
	<path fill="#FFFFFF" d="M32.355,34.034c-0.398,0.315-0.798,0.625-1.333,1.042c-0.068-0.248-0.233-0.654-0.19-0.68
		c0.467-0.262,0.967-0.463,1.459-0.686C32.313,33.818,32.334,33.926,32.355,34.034z"/>
	<path fill="#FFFFFF" d="M31.048,37.06c-0.479,0.172-0.956,0.345-1.434,0.518C29.854,36.815,30.372,36.732,31.048,37.06z"/>
	<g>
		<g>
			<path d="M51.249,16.179c0.015,0.093,0.244,0.183,0.259,0.277c0.007,0.093-0.244,0.223-0.237,0.316
				c0.015,0.094,0.323,0.151,0.338,0.252c0.007,0.093,0.032,0.187,0.043,0.284c0.011,0.093-0.018,0.194-0.007,0.288
				c0.011,0.093-0.062,0.197-0.051,0.298c0.015,0.094,0.101,0.18,0.108,0.273c0.014,0.097-0.188,0.215-0.173,0.313
				c0.008,0.097,0.244,0.165,0.252,0.259c0.014,0.093-0.141,0.212-0.13,0.305c0.011,0.094-0.007,0.194,0.004,0.288
				s0.025,0.19,0.032,0.284c0.015,0.097,0.295,0.158,0.306,0.252c0.011,0.093-0.032,0.197-0.025,0.291
				c0.015,0.093,0.04,0.187,0.051,0.287c0.014,0.094,0.054,0.187,0.067,0.28c0.012,0.094-0.255,0.223-0.24,0.316
				c0.015,0.097,0.015,0.194,0.021,0.288c0.015,0.093,0.273,0.158,0.287,0.251c0.011,0.093,0.036,0.187,0.051,0.28
				c0.015,0.097,0.05,0.187,0.061,0.288c0.012,0.093-0.014,0.194,0,0.287c0.012,0.101,0.068,0.19,0.079,0.284
				c0.011,0.093-0.018,0.197-0.007,0.291c0.011,0.093-0.233,0.226-0.219,0.323c0.014,0.097,0.251,0.162,0.266,0.255
				c0.015,0.093,0.079,0.183,0.094,0.28c0.014,0.093-0.101,0.205-0.087,0.305c0.008,0.093,0.079,0.18,0.094,0.28
				c0.007,0.093-0.107,0.208-0.094,0.302c0.015,0.094,0.158,0.172,0.173,0.273c0.007,0.093,0.039,0.187,0.05,0.28
				c0.011,0.097-0.136,0.215-0.122,0.309c0.011,0.094,0.101,0.18,0.111,0.28c0.011,0.094,0.133,0.173,0.147,0.273
				c0.015,0.093-0.208,0.219-0.193,0.316c0.014,0.101,0.154,0.173,0.165,0.273c0.014,0.093,0.15,0.172,0.165,0.266
				s-0.229,0.227-0.216,0.32c0.011,0.093,0.284,0.158,0.295,0.251c0.011,0.094-0.021,0.198-0.011,0.292
				c0.011,0.093-0.227,0.226-0.212,0.319s0.111,0.18,0.122,0.273c0.011,0.093,0,0.197,0.011,0.291s-0.032,0.194-0.018,0.291
				c0.014,0.094,0.337,0.147,0.349,0.248c0.011,0.093-0.27,0.227-0.256,0.323c0.011,0.101,0.331,0.154,0.345,0.248
				c0.012,0.097-0.129,0.212-0.114,0.306c0.007,0.101,0.104,0.183,0.114,0.28c0.012,0.097,0.102,0.18,0.112,0.276
				s-0.022,0.197-0.011,0.291c0.011,0.101,0.007,0.194,0.021,0.287c0.007,0.101,0.068,0.188,0.079,0.284
				c0.014,0.097-0.13,0.212-0.119,0.306c0.011,0.101-0.111,0.208-0.097,0.306c0.011,0.086,0.229,0.183,0.208,0.283
				c-0.018,0.09-0.011,0.223-0.05,0.313c-0.036,0.094-0.145,0.173-0.194,0.248c-0.064,0.087-0.19,0.126-0.259,0.165
				c-0.086,0.051-0.216,0.019-0.302,0.065c-0.086,0.05-0.097,0.223-0.184,0.272c-0.086,0.047-0.283-0.101-0.362-0.05
				c-0.087,0.05-0.065,0.284-0.151,0.33c-0.086,0.051-0.201,0.04-0.287,0.087c-0.087,0.05-0.165,0.111-0.252,0.158
				c-0.086,0.043-0.154,0.125-0.24,0.172c-0.087,0.043-0.155,0.133-0.241,0.173c-0.086,0.043-0.27-0.108-0.355-0.072
				c-0.09,0.043-0.101,0.259-0.19,0.295s-0.23-0.043-0.316-0.004c-0.094,0.04-0.229-0.064-0.323-0.032
				c-0.094,0.036-0.165,0.094-0.259,0.122c-0.094,0.029-0.18,0.075-0.273,0.098c-0.093,0.024-0.158,0.244-0.259,0.251
				c-0.101,0.008-0.212-0.015-0.315-0.025c-0.098-0.007-0.201-0.061-0.302-0.079c-0.094-0.014-0.216,0.033-0.313,0.011
				c-0.097-0.024-0.15-0.229-0.247-0.255c-0.098-0.028-0.23,0.068-0.327,0.036c-0.098-0.028-0.162-0.158-0.263-0.19
				c-0.097-0.028-0.205-0.025-0.302-0.047c-0.101-0.028-0.223,0.058-0.323,0.032c-0.094-0.018-0.194-0.039-0.284-0.068
				c-0.09-0.028-0.197-0.028-0.284-0.057c-0.093-0.033-0.122-0.267-0.212-0.288c-0.093-0.025-0.193-0.118-0.287-0.129
				c-0.097-0.015-0.205,0.058-0.298,0.043c-0.101-0.008-0.212,0.161-0.31,0.154c-0.101-0.007-0.201,0.072-0.295,0.064
				c-0.101-0.011-0.172-0.291-0.272-0.298c-0.098-0.011-0.19-0.079-0.288-0.086c-0.097-0.011-0.215,0.272-0.309,0.266
				c-0.101-0.008-0.187-0.151-0.284-0.158c-0.097-0.007-0.201,0.104-0.298,0.094c-0.101-0.008-0.18-0.18-0.28-0.188
				c-0.094-0.007-0.194,0.021-0.291,0.008c-0.097-0.008-0.212,0.19-0.313,0.18c-0.094-0.008-0.154-0.338-0.252-0.346
				c-0.101-0.014-0.201,0.051-0.295,0.04c-0.097-0.011-0.229,0.197-0.323,0.18c-0.093-0.015-0.193,0-0.294-0.015
				c-0.094-0.015-0.137-0.319-0.23-0.338c-0.094-0.018-0.187-0.014-0.28-0.036c-0.094-0.024-0.197,0.019-0.291-0.003
				s-0.219,0.079-0.313,0.058c-0.094-0.029-0.158-0.151-0.244-0.18c-0.094-0.025-0.141-0.205-0.23-0.237
				c-0.09-0.021-0.183-0.051-0.272-0.075c-0.09-0.025-0.188-0.04-0.28-0.065c-0.094-0.024-0.224,0.076-0.316,0.047
				c-0.09-0.025-0.137-0.208-0.23-0.233c-0.093-0.025-0.259,0.219-0.352,0.194c-0.094-0.025-0.18-0.047-0.277-0.068
				c-0.093-0.025-0.154-0.158-0.248-0.173c-0.097-0.025-0.157-0.197-0.251-0.216c-0.094-0.021-0.216,0.101-0.31,0.083
				c-0.093-0.018-0.208,0.083-0.302,0.068c-0.093-0.015-0.172-0.151-0.266-0.165c-0.094-0.015-0.173-0.188-0.266-0.201
				c-0.101-0.015-0.209,0.068-0.302,0.057c-0.098-0.011-0.201,0.058-0.295,0.051c-0.101-0.015-0.197,0.021-0.295,0.015
				c-0.097-0.008-0.201,0.097-0.294,0.09c-0.101-0.008-0.188-0.104-0.28-0.111c-0.101-0.008-0.201,0.071-0.299,0.061
				c-0.097-0.007-0.18-0.219-0.272-0.227c-0.098-0.007-0.198,0.029-0.292,0.025c-0.057-0.004-0.165,0.047-0.251,0.141
				c-0.064,0.064-0.18,0.122-0.23,0.197c-0.064,0.107-0.064,0.273-0.05,0.327c0.039,0.094,0.021,0.19,0.039,0.28
				c0.021,0.101,0.098,0.176,0.101,0.27c0,0.101,0.072,0.212,0.047,0.298c-0.021,0.094-0.107,0.18-0.147,0.259
				c-0.039,0.086-0.032,0.216-0.09,0.295c-0.057,0.071-0.144,0.144-0.208,0.212c-0.072,0.068-0.101,0.187-0.173,0.248
				c-0.071,0.064-0.28-0.036-0.359,0.021c-0.071,0.061,0.008,0.319-0.064,0.381c-0.086,0.072-0.345-0.068-0.413,0
				c-0.083,0.079-0.197,0.173-0.24,0.252c-0.051,0.093-0.051,0.266-0.036,0.373c0.011,0.09,0,0.259,0.058,0.363
				c0.05,0.079,0.345-0.008,0.424,0.082c0.05,0.058,0.021,0.237,0.028,0.356c0.008,0.097,0.064,0.219,0.043,0.313
				c-0.021,0.122-0.09,0.298-0.144,0.338c-0.079,0.058-0.251-0.021-0.338,0.032c-0.079,0.054-0.047,0.291-0.129,0.341
				c-0.083,0.047-0.173,0.098-0.259,0.145c-0.086,0.05-0.323-0.188-0.41-0.145c-0.086,0.047-0.133,0.158-0.219,0.201
				c-0.086,0.044-0.064,0.324-0.151,0.363c-0.086,0.04-0.319-0.233-0.405-0.19c-0.087,0.043-0.126,0.201-0.22,0.241
				c-0.093,0.035-0.154,0.161-0.248,0.193c-0.093,0.032-0.272-0.172-0.366-0.14c-0.094,0.028-0.18,0.093-0.273,0.126
				c-0.093,0.032-0.101,0.319-0.193,0.352c-0.094,0.032-0.209,0.015-0.302,0.054c-0.094,0.036-0.277-0.14-0.367-0.101
				c-0.09,0.04-0.082,0.31-0.172,0.353c-0.09,0.039-0.209,0.021-0.302,0.061c-0.086,0.04-0.122,0.213-0.212,0.256
				s-0.27-0.108-0.359-0.068c-0.09,0.039-0.14,0.176-0.227,0.219c-0.093,0.04-0.237-0.028-0.331,0.011
				c-0.086,0.04-0.165,0.122-0.251,0.162c-0.093,0.043-0.208,0.032-0.298,0.071c-0.09,0.044-0.133,0.188-0.226,0.23
				c-0.086,0.043-0.248-0.072-0.345-0.028c-0.086,0.043-0.093,0.276-0.18,0.315c-0.093,0.043-0.237-0.039-0.331,0
				c-0.09,0.04-0.194,0.047-0.287,0.087c-0.094,0.043-0.079,0.338-0.166,0.377c-0.086,0.036-0.223-0.039-0.313-0.004
				c-0.086,0.036-0.241-0.079-0.327-0.035c-0.086,0.035-0.144,0.133-0.23,0.168c-0.086,0.04-0.136,0.162-0.223,0.198
				c-0.086,0.039-0.122,0.18-0.208,0.223c-0.086,0.043-0.251-0.094-0.338-0.051c-0.086,0.04-0.101,0.22-0.187,0.259
				c-0.086,0.044-0.219-0.007-0.302,0.036c-0.079,0.043-0.086,0.237-0.166,0.28c-0.086,0.043-0.215-0.004-0.298,0.043
				c-0.083,0.047-0.219-0.007-0.305,0.04c-0.079,0.047-0.079,0.237-0.158,0.283c-0.086,0.051-0.241-0.032-0.323,0.015
				c-0.079,0.051-0.058,0.259-0.137,0.313c-0.079,0.055-0.291-0.101-0.37-0.047c-0.079,0.051-0.101,0.18-0.18,0.237
				c-0.076,0.058-0.119,0.162-0.19,0.216c-0.076,0.058-0.14,0.13-0.208,0.19c-0.079,0.062-0.079,0.194-0.158,0.255
				c-0.072,0.058-0.359-0.146-0.438-0.09c-0.079,0.055-0.094,0.194-0.173,0.248c-0.079,0.051-0.223-0.007-0.305,0.043
				c-0.083,0.051-0.147,0.123-0.234,0.169c-0.079,0.047-0.093,0.22-0.179,0.267c-0.086,0.046-0.137,0.158-0.223,0.204
				c-0.086,0.044-0.162,0.108-0.248,0.151c-0.086,0.043-0.212,0.004-0.298,0.05c-0.086,0.044-0.212,0.019-0.295,0.065
				c-0.09,0.043-0.194-0.015-0.28,0.007c-0.093,0.032-0.129,0.23-0.223,0.237c-0.097,0.007-0.183-0.04-0.277-0.058
				c-0.09-0.015-0.241,0.111-0.327,0.072c-0.086-0.04-0.015-0.338-0.094-0.399c-0.072-0.054-0.37,0.141-0.438,0.068
				c-0.065-0.068,0.079-0.345,0.007-0.417c-0.064-0.071-0.251-0.028-0.316-0.097c-0.068-0.072-0.162-0.119-0.23-0.184
				c-0.065-0.071-0.036-0.244-0.101-0.313c-0.068-0.068-0.263-0.015-0.331-0.086c-0.065-0.068,0.014-0.288-0.05-0.359
				c-0.068-0.072-0.14-0.141-0.208-0.212c-0.065-0.068-0.316,0.036-0.385-0.032c-0.072-0.068,0.047-0.32-0.025-0.385
				c-0.072-0.068-0.234-0.047-0.302-0.115c-0.068-0.071-0.137-0.144-0.208-0.212c-0.068-0.068-0.054-0.219-0.126-0.291
				c-0.068-0.068-0.198-0.075-0.27-0.144c-0.064-0.072-0.129-0.151-0.197-0.216c-0.072-0.068-0.162-0.115-0.234-0.187
				c-0.064-0.072-0.158-0.119-0.23-0.188c-0.064-0.071-0.215-0.057-0.284-0.129s-0.162-0.115-0.227-0.187
				c-0.068-0.065-0.093-0.188-0.162-0.252c-0.068-0.068-0.183-0.094-0.255-0.162c-0.072-0.067-0.072-0.204-0.144-0.276
				c-0.072-0.064-0.064-0.208-0.136-0.28c-0.065-0.071-0.05-0.223-0.123-0.295c-0.072-0.064-0.118-0.157-0.19-0.223
				c-0.072-0.068-0.176-0.101-0.244-0.172c-0.068-0.065-0.248-0.021-0.32-0.087c-0.068-0.068,0.014-0.294-0.054-0.359
				c-0.068-0.061-0.169-0.101-0.241-0.165c-0.065-0.064-0.115-0.15-0.184-0.219s-0.226-0.04-0.291-0.108
				c-0.068-0.068-0.151-0.118-0.223-0.183c-0.065-0.068-0.079-0.194-0.151-0.259c-0.065-0.068-0.273,0.011-0.345-0.058
				c-0.064-0.064-0.187-0.083-0.251-0.144c-0.068-0.065,0.032-0.313-0.04-0.381c-0.068-0.065-0.115-0.151-0.187-0.223
				c-0.072-0.065-0.292,0.028-0.359-0.036c-0.068-0.064-0.09-0.184-0.158-0.252c-0.068-0.064-0.061-0.208-0.133-0.272
				c-0.072-0.065-0.219-0.051-0.288-0.115c-0.065-0.068-0.205-0.062-0.273-0.13c-0.065-0.064,0.036-0.315-0.036-0.381
				c-0.068-0.068-0.288,0.029-0.359-0.035c-0.068-0.072,0.058-0.338-0.014-0.406c-0.072-0.068-0.302,0.047-0.374-0.025
				c-0.072-0.062-0.003-0.273-0.072-0.338c-0.072-0.068-0.331,0.072-0.402,0c-0.068-0.061-0.158-0.107-0.227-0.173
				c-0.068-0.061-0.133-0.133-0.205-0.193c-0.072-0.064-0.036-0.244-0.108-0.306c-0.072-0.064-0.101-0.176-0.166-0.241
				c-0.072-0.064-0.046-0.229-0.115-0.302c-0.064-0.064-0.302,0.047-0.37-0.021c-0.072-0.064,0.018-0.298-0.047-0.366
				c-0.072-0.064-0.352,0.094-0.424,0.028c-0.068-0.061-0.108-0.165-0.172-0.229c-0.072-0.064-0.054-0.223-0.122-0.287
				c-0.072-0.065-0.101-0.173-0.173-0.237s-0.18-0.087-0.251-0.151s-0.266,0.008-0.338-0.058c-0.072-0.061-0.107-0.165-0.18-0.226
				c-0.072-0.065-0.172-0.04-0.258-0.087c-0.079-0.047-0.112-0.172-0.202-0.212c-0.09-0.043-0.083-0.28-0.168-0.319
				c-0.09-0.047-0.234,0.024-0.313-0.025c-0.079-0.058-0.007-0.233-0.064-0.31c-0.061-0.079-0.201-0.086-0.251-0.169
				c-0.05-0.082-0.018-0.201-0.058-0.287c-0.043-0.09-0.097-0.158-0.129-0.251c-0.036-0.094-0.334-0.104-0.359-0.198
				c-0.021-0.093,0.194-0.244,0.18-0.345c-0.014-0.094,0.058-0.187,0.05-0.287c-0.007-0.098-0.244-0.188-0.244-0.284
				s0.05-0.194,0.064-0.291c0.007-0.101-0.104-0.223-0.079-0.32c0.015-0.097,0.115-0.183,0.14-0.276
				c0.025-0.094,0.298-0.101,0.334-0.194c0.036-0.086-0.194-0.294-0.151-0.381c0.043-0.09,0.075-0.193,0.122-0.28
				C2,27.62,2.05,27.516,2.107,27.437c0.054-0.079,0.28-0.036,0.345-0.104c0.061-0.076,0.172-0.094,0.245-0.162
				c0.072-0.068,0.129-0.129,0.208-0.194c0.072-0.061,0.133-0.133,0.216-0.187c0.083-0.05,0.165-0.086,0.251-0.133
				c0.086-0.046,0.104-0.233,0.194-0.273s0.208-0.018,0.295-0.054c0.093-0.033,0.219,0.021,0.313-0.011
				c0.093-0.032,0.133-0.208,0.227-0.241c0.097-0.032,0.212,0,0.302-0.028c0.093-0.036,0.137-0.205,0.223-0.237
				c0.097-0.036,0.18-0.079,0.27-0.119s0.262,0.119,0.352,0.076c0.086-0.043,0.133-0.173,0.219-0.208
				c0.086-0.04,0.219,0.046,0.309,0.014c0.09-0.036,0.104-0.259,0.194-0.288c0.09-0.036,0.216,0.029,0.302,0
				c0.086-0.036,0.215,0.015,0.302-0.021c0.086-0.036,0.158-0.111,0.244-0.151c0.086-0.043,0.19-0.05,0.273-0.097
				c0.083-0.043,0.162-0.104,0.237-0.154c0.079-0.054,0.029-0.273,0.104-0.338c0.068-0.057,0.258,0.018,0.327-0.05
				c0.072-0.068,0.018-0.316,0.101-0.366c0.079-0.054,0.27,0.057,0.363,0.011c0.086-0.04,0.176-0.09,0.27-0.126
				c0.089-0.032,0.172-0.108,0.269-0.133c0.094-0.025,0.241,0.14,0.338,0.119c0.097-0.025,0.198-0.015,0.298-0.036
				c0.093-0.021,0.172-0.129,0.273-0.154c0.094-0.022,0.201-0.011,0.298-0.04c0.097-0.021,0.162-0.169,0.255-0.201
				c0.097-0.029,0.223,0.054,0.302,0.028c0.101-0.036,0.154-0.162,0.23-0.194c0.097-0.043,0.187-0.079,0.255-0.125
				c0.086-0.062,0.194-0.119,0.227-0.194c0.036-0.079,0.115-0.205,0.104-0.313c-0.011-0.079-0.172-0.151-0.205-0.251
				c-0.029-0.079,0.007-0.194-0.032-0.288c-0.033-0.079,0.011-0.208-0.033-0.294c-0.043-0.094-0.201-0.123-0.237-0.208
				c-0.036-0.09-0.23-0.119-0.266-0.205c-0.036-0.093,0.144-0.251,0.122-0.341c-0.029-0.093-0.212-0.144-0.23-0.241
				c-0.021-0.097-0.101-0.19-0.115-0.284c-0.011-0.097-0.047-0.208-0.05-0.302c-0.007-0.094,0.331-0.18,0.338-0.273
				c0.011-0.101-0.047-0.19-0.029-0.284c0.021-0.093-0.151-0.241-0.123-0.334c0.029-0.09,0.194-0.137,0.237-0.223
				c0.04-0.083,0.151-0.125,0.201-0.208c0.05-0.079-0.003-0.23,0.058-0.305c0.058-0.076,0.251-0.025,0.316-0.097
				c0.064-0.068,0.165-0.086,0.237-0.147c0.072-0.061-0.036-0.334,0.043-0.392c0.079-0.057,0.226-0.014,0.309-0.064
				c0.079-0.054,0.208-0.015,0.295-0.061c0.086-0.047,0.151-0.104,0.241-0.147c0.09-0.047,0.061-0.316,0.133-0.355
				c0.097-0.047,0.237,0.018,0.309-0.025c0.101-0.058,0.194-0.076,0.255-0.129c0.086-0.072,0.291-0.115,0.313-0.194
				c0.018-0.079,0.011-0.251-0.021-0.363c-0.021-0.075-0.298-0.083-0.338-0.183c-0.036-0.075,0.079-0.23,0.036-0.323
				c-0.036-0.079-0.029-0.184-0.072-0.277c-0.036-0.083-0.111-0.147-0.151-0.233c-0.036-0.086-0.021-0.187-0.054-0.273
				c-0.032-0.086-0.147-0.137-0.176-0.223c-0.029-0.086-0.075-0.169-0.107-0.255c-0.029-0.086,0.079-0.219,0.054-0.306
				c-0.025-0.086-0.219-0.125-0.241-0.212c-0.029-0.09-0.158-0.151-0.18-0.241c-0.025-0.09,0.215-0.237,0.194-0.331
				c-0.014-0.086-0.18-0.151-0.194-0.237c-0.015-0.093,0.014-0.187,0.007-0.28c-0.015-0.079-0.173-0.219-0.133-0.323
				c0.033-0.076,0.234-0.093,0.291-0.172c0.054-0.072,0.047-0.208,0.108-0.273c0.072-0.072,0.198-0.079,0.273-0.129
				c0.079-0.064,0.198,0.022,0.277-0.003c0.093-0.032,0.155-0.154,0.248-0.18c0.097-0.032,0.165-0.14,0.259-0.169
				c0.093-0.025,0.223,0.068,0.316,0.043c0.094-0.029,0.129-0.241,0.223-0.266c0.093-0.029,0.223,0.061,0.316,0.036
				c0.094-0.029,0.144-0.194,0.237-0.216c0.093-0.029,0.262,0.208,0.359,0.18c0.093-0.025,0.172-0.086,0.266-0.115
				c0.094-0.025,0.123-0.292,0.216-0.316c0.093-0.029,0.23,0.093,0.323,0.072c0.094-0.029,0.166-0.133,0.259-0.158
				c0.093-0.029,0.216,0.058,0.309,0.033c0.093-0.025,0.187-0.054,0.28-0.076c0.093-0.025,0.194-0.021,0.288-0.043
				c0.093-0.029,0.172-0.129,0.266-0.151c0.094-0.022,0.205,0.018,0.298-0.007c0.093-0.029,0.198-0.015,0.291-0.036
				c0.094-0.025,0.115-0.337,0.216-0.363c0.093-0.021,0.262,0.251,0.355,0.23c0.094-0.025,0.19-0.04,0.284-0.061
				c0.093-0.021,0.14-0.27,0.233-0.291c0.093-0.025,0.18-0.09,0.273-0.111c0.094-0.025,0.205,0.014,0.298-0.007
				c0.093-0.018,0.194-0.036,0.288-0.054c0.093-0.018,0.18-0.112,0.273-0.126s0.23,0.208,0.323,0.194
				c0.094-0.014,0.194,0.033,0.292,0.022c0.093-0.015,0.154-0.327,0.251-0.334c0.097-0.011,0.194-0.014,0.291-0.025
				c0.101-0.015,0.194-0.047,0.287-0.054c0.101-0.007,0.216,0.324,0.309,0.32c0.097-0.007,0.18-0.273,0.277-0.28
				c0.097,0,0.198-0.054,0.291-0.054s0.194,0.298,0.291,0.298s0.194-0.237,0.288-0.237c0.097,0,0.19,0.104,0.284,0.108
				c0.086,0.003,0.208-0.14,0.298-0.122c0.086,0.021,0.154,0.165,0.241,0.194c0.079,0.029,0.172,0.058,0.251,0.097
				c0.086,0.036,0.216-0.004,0.295,0.046c0.079,0.043,0.151,0.122,0.223,0.173c0.072,0.054-0.014,0.294,0.054,0.359
				c0.068,0.062,0.205,0.04,0.263,0.101c0.064,0.079,0.273,0.025,0.331,0.086c0.064,0.079,0.101,0.166,0.158,0.23
				c0.072,0.079-0.075,0.374-0.014,0.431c0.079,0.068,0.266,0.015,0.345,0.043c0.079,0.04,0.18,0.036,0.28,0.043
				c0.086,0.003,0.173-0.021,0.28-0.036c0.083-0.014,0.158-0.101,0.263-0.122c0.083-0.018,0.219,0.194,0.32,0.169
				c0.086-0.018,0.111-0.341,0.212-0.363c0.097-0.022,0.212,0.064,0.313,0.043c0.093-0.021,0.19-0.043,0.288-0.065
				c0.097-0.021,0.176-0.122,0.269-0.14c0.094-0.018,0.19-0.04,0.291-0.061c0.094-0.021,0.234,0.166,0.327,0.147
				c0.098-0.018,0.173-0.129,0.27-0.147c0.101-0.021,0.18-0.111,0.28-0.125c0.094-0.018,0.18-0.119,0.273-0.133
				c0.101-0.014,0.251,0.302,0.345,0.288c0.101-0.014,0.165-0.223,0.266-0.237c0.094-0.011,0.18-0.158,0.273-0.169
				c0.101-0.011,0.229,0.251,0.323,0.244c0.101-0.007,0.194-0.047,0.288-0.054c0.101-0.007,0.19-0.133,0.287-0.137
				s0.201,0.18,0.295,0.176c0.101,0,0.201-0.324,0.298-0.324c0.097,0.004,0.197,0.061,0.295,0.065
				c0.097,0.003,0.19,0.101,0.291,0.108c0.093,0.007,0.193,0.039,0.291,0.054c0.097,0.011,0.18,0.125,0.272,0.144
				c0.098,0.015,0.213-0.079,0.306-0.064c0.101,0.021,0.223-0.076,0.316-0.054c0.086,0.025,0.137,0.219,0.223,0.237
				c0.094,0.015,0.205-0.176,0.295-0.165s0.15,0.305,0.24,0.313s0.18,0.014,0.27,0.021c0.104,0.011,0.198-0.014,0.295,0.007
				c0.101,0.021,0.158,0.119,0.252,0.158c0.101,0.039,0.237-0.043,0.319,0.014c0.086,0.058,0.27-0.007,0.349,0.064
				c0.072,0.072-0.036,0.316,0.025,0.396c0.064,0.079,0.233,0.079,0.291,0.169c0.05,0.086,0.197,0.133,0.244,0.226
				c0.04,0.072,0.015,0.18,0.064,0.259c0.051,0.072,0.184,0.058,0.244,0.126c0.065,0.068,0.058,0.172,0.137,0.219
				c0.079,0.057,0.094,0.212,0.18,0.233c0.094,0.025,0.173,0.097,0.267,0.119c0.093,0.021,0.201-0.032,0.294-0.015
				c0.094,0.022,0.177,0.094,0.27,0.115c0.094,0.018,0.184,0.064,0.277,0.079c0.093,0.014,0.208-0.108,0.302-0.093
				c0.097,0.007,0.193-0.007,0.287,0c0.094,0.014,0.18,0.107,0.276,0.115c0.094,0.007,0.198-0.115,0.291-0.115
				c0.094,0.007,0.188-0.043,0.288-0.043c0.093,0,0.187,0.05,0.28,0.05c0.093,0,0.193,0.205,0.294,0.201
				c0.094-0.003,0.188-0.068,0.28-0.075c0.094-0.007,0.209,0.119,0.303,0.111c0.093-0.014,0.172-0.19,0.266-0.201
				s0.194,0.007,0.287-0.007c0.094-0.014,0.147-0.255,0.241-0.273c0.097-0.021,0.204,0.058,0.298,0.036
				c0.094-0.021,0.205,0.054,0.299,0.029c0.093-0.021,0.212,0.043,0.305,0.018c0.087-0.025,0.166-0.119,0.259-0.147
				c0.087-0.028,0.158,0.065,0.259,0.072c0.101,0.007,0.233-0.18,0.32-0.151c0.09,0.036,0.111,0.288,0.197,0.316
				c0.094,0.029,0.216-0.021,0.309,0.007c0.094,0.029,0.23-0.094,0.324-0.068c0.093,0.025,0.125,0.284,0.219,0.305
				c0.097,0.025,0.205,0.015,0.298,0.036c0.094,0.018,0.237-0.215,0.338-0.201c0.094,0.021,0.188,0.047,0.28,0.064
				c0.098,0.015,0.194-0.032,0.291-0.021c0.098,0.015,0.177,0.14,0.273,0.147s0.19,0.076,0.284,0.079
				c0.101,0.003,0.193,0.054,0.294,0.054c0.098,0,0.19-0.187,0.284-0.19c0.097-0.003,0.198,0.14,0.299,0.133
				c0.093-0.007,0.197,0.025,0.294,0.014c0.098-0.011,0.18-0.122,0.277-0.137c0.093-0.014,0.176-0.104,0.27-0.122
				c0.093-0.021,0.229,0.144,0.323,0.122c0.093-0.021,0.137-0.237,0.229-0.259c0.094-0.028,0.18-0.057,0.273-0.086
				c0.094-0.032,0.219,0.04,0.309,0.007c0.09-0.036,0.201-0.029,0.288-0.065c0.093-0.036,0.204-0.014,0.291-0.047
				c0.093-0.036,0.154-0.133,0.24-0.162c0.094-0.032,0.151-0.165,0.237-0.19c0.101-0.029,0.194-0.083,0.273-0.101
				c0.107-0.025,0.223-0.046,0.305-0.046c0.104,0.007,0.19,0.136,0.267,0.18c0.075,0.046,0.248,0.046,0.298,0.14
				c0.043,0.072,0.101,0.18,0.13,0.284c0.024,0.079-0.18,0.23-0.158,0.331c0.021,0.086,0.193,0.147,0.208,0.248
				c0.015,0.09-0.194,0.212-0.18,0.313c0.015,0.093,0.047,0.18,0.058,0.284c0.011,0.09,0.194,0.162,0.194,0.251
				c0.007,0.09,0.007,0.18,0.007,0.27s0.032,0.18,0.029,0.27c-0.008,0.09,0.114,0.184,0.114,0.273s-0.144,0.176-0.15,0.266
				c0,0.09-0.072,0.172-0.072,0.262C51.382,16.171,51.264,16.175,51.249,16.179z M14.396,16.786c0.101-0.029,0.23-0.262,0.327-0.288
				c0.104-0.032,0.277,0.201,0.37,0.172c0.101-0.029,0.123-0.345,0.219-0.37c0.101-0.025,0.194-0.061,0.291-0.093
				c0.101-0.029,0.208-0.018,0.309-0.047s0.223,0.029,0.316,0c0.101-0.032,0.18-0.133,0.273-0.162
				c0.093-0.025,0.244,0.147,0.338,0.119c0.093-0.029,0.119-0.27,0.208-0.302c0.09-0.029,0.23,0.101,0.323,0.072
				c0.086-0.032,0.187-0.032,0.28-0.061c0.09-0.032,0.18-0.061,0.273-0.09c0.09-0.029,0.097-0.32,0.187-0.352
				c0.09-0.029,0.201,0,0.294-0.029c0.086-0.032,0.18-0.072,0.266-0.101c0.093-0.025,0.18-0.086,0.273-0.111
				c0.094-0.025,0.259,0.219,0.345,0.194c0.093-0.021,0.187-0.032,0.28-0.054c0.093-0.025,0.129-0.291,0.223-0.309
				s0.187-0.05,0.28-0.072c0.093-0.015,0.187-0.058,0.28-0.072c0.093-0.014,0.194,0.015,0.284,0
				c0.094-0.011,0.184-0.064,0.277-0.072c0.093-0.014,0.194,0.025,0.288,0.015c0.093-0.007,0.208,0.237,0.302,0.23
				c0.093-0.007,0.169-0.245,0.262-0.251c0.093-0.007,0.183-0.065,0.277-0.072c0.093-0.007,0.194,0.115,0.287,0.108
				c0.094-0.007,0.187-0.068,0.28-0.075c0.094-0.007,0.194,0.125,0.288,0.118c0.094-0.011,0.176-0.151,0.27-0.158
				c0.093-0.007,0.183-0.029,0.277-0.036c0.093-0.007,0.201,0.147,0.294,0.14c0.094-0.011,0.18-0.097,0.273-0.104
				c0.093-0.015,0.172-0.129,0.266-0.14c0.108-0.015,0.237,0.205,0.331,0.19c0.108-0.015,0.19-0.151,0.284-0.158
				c0.111-0.015,0.205-0.151,0.294-0.151c0.119-0.007,0.198,0.251,0.291,0.266c0.108,0.015,0.288-0.194,0.37-0.14
				c0.076,0.054,0.14,0.184,0.198,0.277c0.05,0.076-0.137,0.273-0.086,0.381c0.036,0.079,0.151,0.133,0.194,0.237
				c0.028,0.086,0.04,0.187,0.072,0.288c0.029,0.093,0.007,0.205,0.043,0.305c0.032,0.09,0.363,0.083,0.392,0.172
				c0.032,0.09-0.219,0.277-0.187,0.37c0.032,0.086,0.352,0.086,0.384,0.173c0.032,0.093-0.086,0.233-0.054,0.323
				c0.028,0.09,0.133,0.158,0.168,0.251c0.029,0.093,0.133,0.162,0.166,0.251c0.029,0.09,0.014,0.198,0.043,0.288
				c0.029,0.093,0.043,0.187,0.072,0.28c0.029,0.093,0.104,0.169,0.137,0.259c0.029,0.093-0.086,0.233-0.058,0.323
				s-0.064,0.223-0.029,0.316c0.029,0.093,0.28,0.111,0.313,0.201c0.032,0.09,0.111,0.165,0.14,0.259
				c0.036,0.09,0.018,0.197,0.05,0.287c0.036,0.09,0.014,0.201,0.046,0.295c0.033,0.086-0.018,0.212,0.018,0.302
				c0.036,0.09,0.209,0.129,0.241,0.215c0.035,0.094-0.137,0.266-0.097,0.353c0.035,0.093,0.272,0.101,0.309,0.19
				s0.014,0.201,0.05,0.291c0.032,0.09,0.09,0.172,0.126,0.262c0.039,0.09,0.111,0.162,0.151,0.251
				c0.039,0.09,0.118,0.158,0.157,0.248c0.036,0.09-0.125,0.262-0.09,0.349c0.036,0.086,0.252,0.104,0.288,0.194
				s-0.043,0.227-0.004,0.313c0.04,0.094-0.054,0.237-0.018,0.324c0.036,0.093,0.104,0.165,0.137,0.258
				c0.035,0.086,0.093,0.166,0.133,0.255c0.039,0.09,0.266,0.097,0.305,0.19c0.036,0.086,0.055,0.18,0.094,0.273
				c0.036,0.086,0.032,0.194,0.072,0.284c0.036,0.09,0.14,0.147,0.18,0.233c0.036,0.093-0.101,0.251-0.058,0.338
				c0.036,0.093,0.194,0.129,0.229,0.219c0.04,0.09-0.024,0.219,0.015,0.305c0.036,0.094,0.101,0.166,0.141,0.259
				c0.039,0.086,0.176,0.133,0.212,0.223c0.039,0.09,0.086,0.173,0.125,0.263c0.04,0.089,0.108,0.165,0.147,0.251
				c0.036,0.09-0.114,0.259-0.075,0.348c0.036,0.09,0.011,0.205,0.047,0.295c0.039,0.09,0.147,0.147,0.187,0.237
				c0.036,0.09,0.237,0.104,0.273,0.194c0.039,0.09,0.158,0.144,0.201,0.229c0.036,0.09-0.176,0.288-0.137,0.378
				c0.036,0.09,0.015,0.205,0.054,0.291c0.04,0.086,0.342,0.061,0.378,0.147c0.043,0.086-0.044,0.233,0,0.319
				c0.039,0.087,0.18,0.13,0.223,0.216c0.043,0.094-0.072,0.244-0.029,0.334c0.04,0.087,0.108,0.162,0.147,0.252
				c0.04,0.086,0.27,0.09,0.313,0.176c0.043,0.09-0.187,0.338-0.122,0.424c0.054,0.083,0.188,0.122,0.259,0.201
				c0.068,0.076,0.299-0.018,0.374,0.054c0.079,0.068,0.165,0.094,0.251,0.155c0.087,0.058,0.019,0.352,0.108,0.402
				c0.09,0.054,0.204,0.082,0.298,0.122c0.097,0.039,0.227,0.011,0.323,0.032c0.094,0.025,0.212-0.09,0.306-0.068
				s0.165,0.144,0.259,0.162c0.094,0.018,0.158,0.197,0.252,0.212c0.093,0.021,0.193,0.036,0.287,0.05
				c0.094,0.021,0.19,0.015,0.284,0.029c0.093,0.014,0.212-0.101,0.305-0.087c0.094,0.015,0.162,0.194,0.259,0.209
				c0.094,0.015,0.23-0.252,0.323-0.237c0.094,0.015,0.188,0.028,0.288,0.036c0.093,0.015,0.172,0.137,0.266,0.15
				c0.094,0.015,0.165,0.18,0.259,0.194s0.212-0.111,0.306-0.101c0.093,0.015,0.205-0.086,0.298-0.079
				c0.094,0.015,0.173,0.147,0.266,0.165c0.094,0.015,0.166,0.188,0.267,0.201c0.093,0.015,0.201-0.068,0.294-0.054
				c0.094,0.015,0.198-0.054,0.295-0.039c0.094,0.018,0.194-0.015,0.288,0c0.093,0.018,0.208-0.087,0.302-0.068
				c0.104,0.015,0.208,0.133,0.309,0.169c0.101,0.032,0.233,0,0.331,0.039c0.101,0.04,0.122,0.277,0.223,0.313
				c0.086,0.029,0.187,0.029,0.272,0.065c0.087,0.035,0.162,0.093,0.248,0.129c0.087,0.036,0.154,0.129,0.241,0.162
				c0.086,0.032,0.193,0.018,0.283,0.046c0.09,0.022,0.184,0.087,0.273,0.101c0.094,0.008,0.197-0.046,0.291-0.039
				c0.094,0.011,0.201-0.062,0.295-0.054c0.094,0.007,0.184,0.071,0.276,0.086c0.094,0.007,0.194-0.061,0.291-0.054
				c0.094,0.007,0.188,0.032,0.28,0.039c0.094,0.008,0.194-0.046,0.291-0.039c0.094,0.007,0.169,0.227,0.267,0.233
				c0.093,0.007,0.208-0.24,0.305-0.233c0.094,0.007,0.166,0.291,0.259,0.298c0.094,0.008,0.188,0.055,0.28,0.062
				c0.094,0.007,0.194-0.025,0.291-0.015c0.094,0.008,0.184,0.086,0.277,0.094c0.093,0.007,0.215-0.273,0.309-0.266
				c0.094,0.007,0.18,0.101,0.273,0.107c0.097,0.007,0.197-0.04,0.291-0.029c0.093,0.008,0.19,0.004,0.283,0.012
				c0.101,0.011,0.173,0.19,0.267,0.215c0.093,0.029,0.272-0.144,0.359-0.104c0.093,0.039,0.193,0.093,0.28,0.14
				c0.086,0.043,0.028,0.37,0.114,0.41c0.087,0.043,0.209,0.007,0.295,0.043c0.094,0.035,0.266-0.184,0.353-0.158
				c0.086,0.028,0.086,0.381,0.18,0.406c0.093,0.021,0.215-0.098,0.305-0.079c0.094,0.014,0.198-0.072,0.292-0.065
				c0.093,0.008,0.18,0.267,0.272,0.267c0.094,0,0.198-0.032,0.291-0.047c0.094-0.007,0.154-0.28,0.248-0.299
				c0.086-0.014,0.187,0.025,0.28,0c0.09-0.021,0.244,0.173,0.338,0.147c0.086-0.028,0.094-0.302,0.18-0.334s0.194-0.011,0.28-0.054
				c0.083-0.04,0.097-0.208,0.18-0.252c0.079-0.046,0.259,0.094,0.342,0.055c0.078-0.04,0.118-0.173,0.197-0.213
				c0.079-0.043,0.216,0.033,0.295-0.007c0.079-0.036,0.144-0.115,0.223-0.15c0.082-0.036,0.187-0.022,0.272-0.065
				c0.079-0.035,0.108-0.18,0.194-0.223c0.094-0.047,0.28,0.04,0.359-0.015c0.086-0.064,0.018-0.294,0.079-0.373
				c0.064-0.079,0.237-0.101,0.266-0.198c0.036-0.09,0.094-0.212,0.098-0.319c0.003-0.094-0.284-0.165-0.299-0.276
				c-0.021-0.098,0.087-0.212,0.072-0.313c-0.015-0.094,0.129-0.216,0.122-0.313c-0.015-0.097-0.094-0.183-0.107-0.283
				c-0.015-0.094-0.115-0.18-0.13-0.273c-0.015-0.101-0.137-0.18-0.15-0.273c-0.015-0.097,0.165-0.219,0.15-0.315
				c-0.015-0.101-0.18-0.169-0.194-0.267c-0.014-0.101,0.079-0.212,0.065-0.305c-0.019-0.098-0.205-0.162-0.224-0.259
				c-0.021-0.098,0.065-0.209,0.044-0.306c-0.019-0.101,0.075-0.216,0.057-0.313c-0.018-0.098-0.201-0.154-0.223-0.255
				c-0.018-0.098,0.108-0.224,0.094-0.316c-0.021-0.101-0.223-0.154-0.244-0.252c-0.021-0.101,0.205-0.241,0.187-0.337
				c-0.021-0.101-0.129-0.187-0.15-0.288c-0.019-0.101-0.098-0.187-0.115-0.291c-0.021-0.101-0.058-0.198-0.075-0.298
				c-0.019-0.101-0.141-0.187-0.155-0.288c-0.018-0.101,0.302-0.259,0.288-0.359c-0.021-0.101-0.137-0.183-0.151-0.284
				s0.094-0.219,0.079-0.32s-0.054-0.194-0.064-0.294c-0.015-0.097-0.169-0.176-0.18-0.273c-0.015-0.097-0.101-0.183-0.107-0.28
				c-0.015-0.101-0.047-0.194-0.058-0.287c-0.011-0.101,0.071-0.205,0.064-0.302c-0.015-0.097,0.058-0.201,0.047-0.302
				c-0.011-0.093,0.079-0.201,0.068-0.298c-0.011-0.097-0.209-0.172-0.216-0.27c-0.015-0.097,0.028-0.201,0.015-0.294
				c-0.008-0.101-0.188-0.18-0.194-0.273c-0.007-0.101,0.28-0.227,0.266-0.324c-0.007-0.101-0.359-0.158-0.366-0.258
				c-0.011-0.094,0.273-0.223,0.266-0.32c-0.011-0.097-0.172-0.176-0.187-0.273c-0.011-0.097-0.051-0.19-0.064-0.291
				c-0.008-0.093,0.129-0.208,0.118-0.305c-0.011-0.097-0.197-0.176-0.205-0.273c-0.014-0.097,0.188-0.219,0.18-0.313
				c-0.007-0.097-0.014-0.194-0.028-0.291c-0.011-0.097-0.27-0.169-0.28-0.262s0.229-0.216,0.223-0.309
				c-0.015-0.093-0.158-0.166-0.173-0.259c-0.007-0.093-0.021-0.18-0.032-0.273c-0.011-0.097,0.087-0.201,0.075-0.295
				c-0.011-0.093-0.111-0.172-0.122-0.266c-0.014-0.093-0.014-0.187-0.021-0.28c-0.014-0.094-0.058-0.18-0.064-0.273
				c-0.007-0.094-0.047-0.18-0.054-0.273c-0.007-0.093-0.126-0.18-0.126-0.276c-0.007-0.101-0.039-0.205-0.043-0.306
				c0-0.101,0.068-0.208,0.072-0.309c0.003-0.101-0.062-0.205-0.058-0.309c0.007-0.101,0.101-0.194,0.107-0.298
				c0.007-0.101,0.115-0.194,0.122-0.295c0.004-0.104,0.137-0.198,0.137-0.298c0.007-0.101,0.039-0.201,0.043-0.302
				s-0.043-0.208-0.043-0.309c0-0.093-0.165-0.18-0.18-0.259c-0.015-0.101,0.165-0.266,0.129-0.337
				c-0.043-0.086-0.183-0.187-0.258-0.237c-0.068-0.043-0.209-0.122-0.31-0.137c-0.079-0.007-0.187,0.122-0.284,0.137
				c-0.079,0.011-0.165,0.05-0.262,0.079c-0.098,0.025-0.216-0.029-0.316,0c-0.094,0.025-0.141,0.244-0.237,0.27
				c-0.101,0.025-0.18,0.115-0.28,0.14c-0.094,0.025-0.251-0.194-0.352-0.166c-0.094,0.025-0.201,0.015-0.299,0.036
				c-0.097,0.021-0.147,0.259-0.248,0.28c-0.097,0.021-0.212-0.025-0.309-0.004c-0.101,0.025-0.22-0.061-0.32-0.039
				c-0.097,0.018-0.172,0.151-0.272,0.172c-0.098,0.018-0.18,0.133-0.277,0.151c-0.101,0.021-0.248-0.208-0.352-0.19
				c-0.101,0.025-0.18,0.251-0.295,0.255c-0.107,0.004-0.201-0.28-0.306-0.291c-0.111-0.011-0.255,0.201-0.355,0.172
				c-0.094-0.032-0.122-0.244-0.208-0.269c-0.094-0.029-0.259,0.212-0.346,0.187c-0.093-0.029-0.187-0.021-0.28-0.036
				c-0.09-0.025-0.176-0.05-0.266-0.072c-0.09-0.014-0.15-0.18-0.244-0.194c-0.094-0.018-0.173-0.097-0.27-0.108
				c-0.094-0.011-0.173-0.165-0.266-0.172c-0.094-0.007-0.205,0.223-0.299,0.216c-0.093,0-0.18-0.241-0.272-0.241
				c-0.094,0-0.188,0.305-0.28,0.313c-0.094,0-0.18-0.043-0.277-0.036c-0.093,0.007-0.197-0.111-0.291-0.101
				c-0.101,0.011-0.201-0.036-0.295-0.021c-0.101,0.011-0.187,0.079-0.287,0.086c-0.097,0.007-0.184,0.201-0.28,0.208
				c-0.097,0.007-0.201-0.036-0.302-0.028c-0.094,0-0.194,0.086-0.291,0.093c-0.097,0.003-0.197-0.093-0.298-0.093
				s-0.201-0.212-0.295-0.212c-0.101,0-0.198,0.133-0.299,0.133c-0.097,0-0.19-0.187-0.291-0.194c-0.093,0-0.193,0.108-0.294,0.104
				c-0.098-0.004-0.19-0.097-0.288-0.097c-0.101-0.007-0.193,0.007-0.294,0c-0.094-0.007-0.212,0.277-0.31,0.266
				c-0.097-0.007-0.176-0.255-0.272-0.266c-0.101-0.007-0.188-0.101-0.288-0.108c-0.093-0.007-0.219,0.223-0.316,0.212
				c-0.101-0.011-0.193-0.068-0.287-0.086c-0.101-0.018-0.229,0.086-0.323,0.061c-0.101-0.029-0.18-0.129-0.273-0.166
				c-0.086-0.04-0.058-0.305-0.144-0.352c-0.083-0.05-0.33,0.129-0.402,0.065c-0.072-0.065-0.173-0.137-0.237-0.216
				c-0.061-0.075-0.144-0.169-0.194-0.259c-0.043-0.083,0.101-0.262,0.072-0.359c-0.032-0.09,0.007-0.194-0.018-0.294
				c-0.015-0.065-0.111-0.194-0.188-0.259c-0.061-0.054-0.161-0.093-0.24-0.14c-0.072-0.04-0.158-0.093-0.237-0.126
				c-0.086-0.028-0.22,0.108-0.295,0.094c-0.094-0.015-0.176-0.094-0.27-0.108s-0.169-0.126-0.262-0.144
				c-0.094-0.015-0.216,0.119-0.31,0.104c-0.094-0.018-0.172-0.104-0.266-0.119c-0.094-0.018-0.209,0.108-0.302,0.094
				c-0.094-0.015-0.188-0.015-0.28-0.033c-0.094-0.014-0.158-0.233-0.252-0.248c-0.093-0.011-0.201,0.083-0.295,0.072
				c-0.093-0.007-0.18-0.144-0.272-0.144c-0.094-0.007-0.194,0.194-0.288,0.194c-0.093,0-0.187-0.108-0.28-0.108
				c-0.093,0.007-0.201-0.079-0.294-0.072c-0.094,0.007-0.188,0.064-0.28,0.079c-0.094,0.014-0.198-0.007-0.291,0.007
				c-0.09,0.025-0.19,0.054-0.277,0.086c-0.093,0.025-0.107,0.251-0.201,0.288c-0.086,0.036-0.237-0.094-0.33-0.058
				c-0.087,0.043-0.062,0.28-0.144,0.327c-0.076,0.04-0.28-0.09-0.349-0.119c-0.098-0.04-0.19-0.058-0.284-0.079
				c-0.101-0.021-0.201,0.014-0.298,0.007c-0.101-0.007-0.205-0.201-0.306-0.194c-0.094,0.007-0.22,0-0.313,0.018
				c-0.098,0.021-0.18,0.14-0.273,0.169c-0.093,0.029-0.205,0.032-0.298,0.072c-0.086,0.032-0.136,0.19-0.226,0.227
				c-0.09,0.04-0.227-0.032-0.32,0.003c-0.086,0.036-0.144,0.166-0.237,0.201c-0.093,0.032-0.194,0.047-0.288,0.072
				c-0.079,0.022-0.172-0.014-0.273-0.011c-0.09,0-0.165-0.068-0.259-0.083c-0.093-0.014-0.212,0.101-0.294,0.068
				c-0.094-0.032-0.137-0.14-0.201-0.194c-0.072-0.057-0.072-0.179-0.137-0.244c-0.064-0.061-0.216-0.04-0.28-0.108
				c-0.058-0.072-0.248-0.032-0.306-0.104c-0.054-0.072,0.062-0.28,0.004-0.352s-0.245-0.043-0.298-0.115
				c-0.061-0.072-0.162-0.09-0.227-0.158c-0.064-0.064-0.144-0.107-0.223-0.172c-0.072-0.072,0.047-0.395-0.029-0.445
				c-0.097-0.058-0.273-0.04-0.359-0.036c-0.093,0.003-0.176,0.216-0.273,0.223c-0.093,0.007-0.198-0.125-0.294-0.122
				c-0.094,0.007-0.194-0.064-0.288-0.058c-0.093,0.007-0.18,0.147-0.28,0.155c-0.093,0.007-0.201-0.162-0.298-0.155
				c-0.097,0.007-0.198-0.04-0.291-0.032s-0.165,0.291-0.266,0.306c-0.093,0.007-0.201-0.108-0.294-0.094
				c-0.093,0.007-0.201-0.086-0.294-0.072c-0.094,0.011-0.187,0.04-0.288,0.047c-0.094,0.011-0.158,0.276-0.251,0.284
				c-0.094,0.015-0.205-0.101-0.302-0.086c-0.097,0.014-0.194-0.007-0.288,0c-0.094,0.014-0.212-0.119-0.306-0.108
				c-0.101,0.014-0.212,0.036-0.313,0.058c-0.101,0.021-0.14,0.294-0.237,0.323c-0.101,0.025-0.241-0.108-0.337-0.079
				c-0.097,0.032-0.208,0.014-0.309,0.04c-0.094,0.032-0.18,0.097-0.28,0.125c-0.097,0.025-0.205,0-0.302,0.025
				c-0.101,0.021-0.18,0.126-0.28,0.14c-0.101,0.021-0.198,0.047-0.295,0.054c-0.101,0.007-0.194-0.125-0.302-0.133
				c-0.093,0-0.194,0.172-0.288,0.172c-0.101,0.007-0.187,0.126-0.28,0.137c-0.097,0.011-0.23-0.244-0.323-0.23
				s-0.166,0.18-0.259,0.194c-0.093,0.022-0.205,0-0.294,0.025c-0.094,0.025-0.129,0.241-0.223,0.27
				c-0.086,0.029-0.233-0.101-0.323-0.065c-0.09,0.029-0.147,0.147-0.237,0.187c-0.09,0.036-0.208-0.007-0.302,0.032
				c-0.086,0.036-0.23-0.04-0.316,0c-0.086,0.04-0.129,0.172-0.216,0.219c-0.086,0.04-0.133,0.162-0.219,0.208
				c-0.086,0.043-0.233-0.029-0.32,0.014c-0.058,0.029,0.007,0.237-0.036,0.324c-0.036,0.079-0.184,0.115-0.202,0.201
				c-0.021,0.097,0.108,0.162,0.133,0.23c0.032,0.093-0.19,0.276-0.155,0.37c0.029,0.09,0.101,0.172,0.137,0.262
				s0.302,0.09,0.338,0.183c0.036,0.09-0.072,0.241-0.036,0.327c0.04,0.093,0.151,0.151,0.187,0.244
				c0.04,0.086-0.032,0.223,0.007,0.313c0.036,0.09,0.072,0.18,0.112,0.27s0.046,0.194,0.086,0.28
				c0.04,0.093,0.147,0.151,0.187,0.241s0.011,0.205,0.047,0.298C14.292,16.513,14.357,16.696,14.396,16.786z M2.467,27.796
				c0.068,0.072,0.327,0.107,0.395,0.173c0.068,0.071-0.058,0.326,0.007,0.395c0.068,0.072,0.352-0.061,0.417,0.008
				c0.065,0.071,0.144,0.137,0.205,0.204c0.068,0.072,0.104,0.169,0.169,0.241c0.068,0.072,0.072,0.197,0.136,0.27
				c0.072,0.072,0.19,0.09,0.259,0.158c0.065,0.068-0.021,0.284,0.04,0.355c0.068,0.072,0.298-0.011,0.363,0.058
				c0.065,0.072,0.015,0.252,0.076,0.319c0.068,0.072,0.111,0.162,0.176,0.234c0.068,0.071,0.136,0.136,0.201,0.208
				c0.064,0.072,0.327-0.047,0.392,0.021c0.068,0.064,0.093,0.173,0.158,0.244c0.068,0.068,0.14,0.13,0.208,0.194
				c0.068,0.072,0.158,0.115,0.227,0.18c0.065,0.072-0.061,0.338,0.007,0.402c0.064,0.068,0.129,0.144,0.194,0.209
				c0.068,0.071,0.309-0.047,0.381,0.021c0.072,0.064,0.147,0.118,0.216,0.187c0.072,0.068,0.151,0.115,0.223,0.18
				c0.072,0.068,0.115,0.162,0.187,0.223c0.072,0.064,0.165,0.104,0.237,0.165c0.072,0.065,0.108,0.166,0.18,0.23
				c0.072,0.064-0.032,0.319,0.04,0.388c0.068,0.064,0.298-0.043,0.367,0.021c0.072,0.065,0.18,0.09,0.251,0.151
				c0.072,0.064,0.054,0.227,0.126,0.291c0.072,0.061,0.18,0.086,0.251,0.147c0.072,0.064,0.054,0.229,0.122,0.294
				c0.072,0.065,0.237,0.029,0.306,0.09c0.072,0.065,0.154,0.119,0.226,0.18c0.072,0.065,0.032,0.248,0.108,0.316
				c0.072,0.062,0.194,0.068,0.266,0.133c0.072,0.065,0.216,0.051,0.288,0.115c0.068,0.064-0.014,0.299,0.058,0.363
				c0.072,0.061,0.23,0.032,0.302,0.097s0.227,0.036,0.298,0.101c0.072,0.068-0.032,0.316,0.04,0.381s0.32-0.064,0.392,0
				c0.068,0.064,0.108,0.165,0.18,0.233c0.072,0.065-0.032,0.32,0.04,0.385c0.068,0.062,0.194,0.062,0.266,0.129
				c0.072,0.065,0.123,0.151,0.194,0.216c0.072,0.062,0.101,0.173,0.165,0.233c0.072,0.065,0.353-0.097,0.424-0.032
				c0.072,0.065-0.061,0.346,0.007,0.41c0.072,0.064,0.352-0.094,0.424-0.029c0.068,0.065,0.032,0.245,0.101,0.31
				c0.072,0.064,0.198,0.071,0.266,0.137c0.072,0.064,0.191,0.075,0.259,0.14c0.072,0.062,0.111,0.165,0.18,0.227
				c0.065,0.064,0.126,0.144,0.194,0.212c0.064,0.062,0.172,0.097,0.237,0.162c0.072,0.064,0.036,0.244,0.104,0.309
				c0.068,0.062,0.046,0.227,0.115,0.287c0.072,0.065,0.298-0.035,0.37,0.029c0.068,0.064,0.173,0.097,0.237,0.161
				c0.072,0.062,0.101,0.169,0.172,0.234c0.072,0.071,0.097,0.172,0.169,0.24c0.072,0.064,0.079,0.197,0.147,0.263
				c0.072,0.064,0.237,0.028,0.305,0.093c0.072,0.062-0.011,0.288,0.058,0.353s0.284-0.028,0.356,0.039
				c0.072,0.062,0.097,0.177,0.165,0.241c0.072,0.064,0.151,0.115,0.223,0.18c0.065,0.064,0.166,0.097,0.237,0.158
				c0.072,0.064,0.172,0.094,0.245,0.158c0.064,0.061,0.064,0.294,0.176,0.334c0.101,0.032,0.251-0.133,0.352-0.126
				c0.126,0.008,0.255,0.108,0.331,0.064c0.083-0.046,0.241,0.021,0.32-0.028c0.086-0.051,0.151-0.129,0.234-0.176
				c0.083-0.047,0.154-0.119,0.237-0.169c0.083-0.051,0.054-0.28,0.14-0.331c0.079-0.05,0.173-0.086,0.259-0.133
				c0.079-0.05,0.187-0.064,0.266-0.118c0.086-0.051,0.125-0.166,0.208-0.216c0.083-0.051,0.262,0.05,0.345,0
				c0.083-0.051,0.093-0.216,0.176-0.263c0.083-0.047,0.219-0.011,0.305-0.064c0.079-0.054,0.144-0.129,0.227-0.184
				c0.083-0.05,0.104-0.193,0.187-0.244c0.083-0.058,0.158-0.115,0.241-0.165c0.083-0.054,0.144-0.137,0.223-0.19
				c0.086-0.054,0.28,0.071,0.359,0.018c0.079-0.05,0.201-0.043,0.284-0.093c0.083-0.055,0.122-0.173,0.205-0.22
				c0.083-0.054,0.075-0.255,0.158-0.306c0.083-0.046,0.129-0.172,0.208-0.223c0.086-0.05,0.309,0.151,0.396,0.101
				c0.086-0.043,0.201-0.035,0.287-0.079c0.086-0.043,0.043-0.345,0.129-0.388c0.086-0.043,0.237,0.039,0.324,0
				c0.093-0.043,0.133-0.187,0.223-0.23c0.09-0.043,0.244,0.076,0.334,0.036c0.09-0.039,0.169-0.107,0.255-0.144
				c0.093-0.036,0.111-0.266,0.201-0.302c0.09-0.032,0.294,0.233,0.388,0.201c0.093-0.032,0.158-0.133,0.251-0.165
				c0.093-0.029,0.115-0.273,0.212-0.302c0.093-0.029,0.18-0.09,0.273-0.115c0.094-0.028,0.266,0.223,0.359,0.197
				c0.094-0.024,0.18-0.068,0.277-0.093c0.093-0.021,0.172-0.108,0.273-0.133c0.093-0.022,0.158-0.173,0.259-0.194
				c0.093-0.019,0.208,0.064,0.305,0.047c0.097-0.019,0.219,0.125,0.313,0.104c0.093-0.018,0.194-0.035,0.287-0.05
				c0.097-0.015,0.187-0.047,0.28-0.062c0.094-0.018,0.163-0.165,0.251-0.183c0.09-0.021,0.216,0.122,0.31,0.104
				c0.086-0.018,0.114-0.319,0.212-0.338c0.09-0.021,0.18-0.046,0.27-0.067s0.205,0.061,0.295,0.035
				c0.093-0.028,0.226,0.101,0.315,0.072c0.09-0.025,0.137-0.187,0.23-0.212c0.093-0.032,0.115-0.165,0.187-0.212
				c0.079-0.051,0.216-0.008,0.266-0.072c0.058-0.075,0.252-0.158,0.252-0.251c0-0.083-0.126-0.209-0.173-0.295
				c-0.035-0.072-0.158-0.107-0.229-0.18c-0.068-0.072-0.165-0.111-0.23-0.18c-0.071-0.072-0.219-0.058-0.287-0.13
				c-0.064-0.071-0.075-0.201-0.144-0.266c-0.064-0.068-0.194-0.079-0.259-0.147c-0.072-0.068,0.007-0.28-0.064-0.349
				c-0.065-0.064-0.162-0.104-0.233-0.172c-0.072-0.064-0.126-0.151-0.194-0.216c-0.072-0.068-0.098-0.18-0.169-0.244
				c-0.072-0.068-0.173-0.098-0.244-0.165c-0.072-0.068-0.111-0.166-0.184-0.23c-0.072-0.064-0.187-0.079-0.259-0.15
				c-0.072-0.062-0.198-0.068-0.27-0.134c-0.072-0.061-0.107-0.169-0.18-0.233c-0.072-0.064-0.194-0.071-0.273-0.133
				c-0.068-0.064-0.129-0.144-0.201-0.205c-0.072-0.064-0.187-0.086-0.259-0.147c-0.072-0.064,0-0.283-0.072-0.348
				c-0.072-0.065-0.316,0.057-0.388-0.004c-0.072-0.064,0.043-0.334-0.029-0.402c-0.072-0.062-0.122-0.154-0.194-0.22
				c-0.068-0.064-0.166-0.101-0.237-0.172c-0.072-0.062-0.101-0.18-0.169-0.244c-0.072-0.065-0.337,0.086-0.413,0.021
				c-0.072-0.065-0.086-0.19-0.158-0.259c-0.072-0.065-0.18-0.087-0.251-0.151s-0.158-0.115-0.227-0.18
				c-0.072-0.064-0.032-0.251-0.104-0.316c-0.072-0.064-0.294,0.032-0.367-0.028c-0.072-0.064-0.14-0.133-0.212-0.201
				c-0.072-0.064,0.072-0.366-0.003-0.432c-0.072-0.064-0.194-0.071-0.266-0.137c-0.072-0.061-0.316,0.072-0.395,0.008
				c-0.072-0.064,0.086-0.385,0.014-0.453c-0.072-0.064-0.237-0.025-0.309-0.086c-0.072-0.064-0.208-0.058-0.28-0.122
				s0.025-0.316-0.043-0.381c-0.072-0.064-0.166-0.108-0.237-0.169c-0.072-0.064-0.323,0.068-0.395,0.007
				c-0.072-0.064-0.108-0.168-0.18-0.237c-0.072-0.061,0.011-0.306-0.065-0.367c-0.072-0.064-0.309,0.061-0.381-0.003
				c-0.072-0.065-0.101-0.176-0.172-0.241c-0.072-0.061-0.241-0.021-0.309-0.086c-0.072-0.061-0.011-0.284-0.079-0.349
				c-0.072-0.064-0.215-0.05-0.287-0.115c-0.072-0.065-0.065-0.223-0.137-0.288c-0.068-0.061-0.172-0.093-0.241-0.158
				c-0.076-0.068-0.111-0.18-0.19-0.241c-0.076-0.064-0.227-0.04-0.306-0.104c-0.079-0.065-0.046-0.259-0.125-0.324
				c-0.079-0.064-0.288,0.043-0.367-0.014c-0.079-0.061-0.079-0.23-0.158-0.288c-0.075-0.061-0.136-0.147-0.215-0.208
				c-0.079-0.057-0.331,0.108-0.41,0.043c-0.079-0.058-0.079-0.219-0.166-0.28c-0.079-0.058-0.057-0.251-0.136-0.309
				c-0.079-0.061-0.198-0.068-0.277-0.129c-0.079-0.065-0.212-0.05-0.291-0.115c-0.079-0.057-0.23-0.036-0.306-0.101
				c-0.079-0.064-0.032-0.273-0.107-0.337c-0.076-0.065-0.245-0.004-0.32-0.058c-0.079-0.065-0.09-0.201-0.166-0.251
				c-0.079-0.058-0.244,0.04-0.323-0.007c-0.086-0.05-0.111-0.18-0.198-0.223c-0.083-0.043-0.125-0.184-0.215-0.216
				c-0.09-0.036-0.223,0.094-0.316,0.076c-0.093-0.021-0.154-0.187-0.248-0.194c-0.097-0.007-0.183,0.176-0.28,0.184
				c-0.093,0.003-0.215-0.23-0.309-0.205c-0.093,0.018-0.165,0.133-0.259,0.162c-0.086,0.033-0.147,0.123-0.233,0.166
				c-0.083,0.036-0.154,0.093-0.241,0.144c-0.079,0.043-0.097,0.18-0.18,0.237c-0.079,0.058-0.341-0.187-0.428-0.137
				c-0.086,0.043-0.118,0.173-0.212,0.212c-0.086,0.036-0.215-0.05-0.309-0.018c-0.09,0.036-0.169,0.093-0.262,0.119
				c-0.093,0.028-0.14,0.194-0.233,0.226c-0.094,0.025-0.166,0.126-0.259,0.158c-0.093,0.021-0.18,0.075-0.273,0.108
				c-0.094,0.029-0.212-0.029-0.302,0.007c-0.086,0.033-0.201-0.007-0.294,0.025c-0.086,0.032-0.208-0.025-0.298,0.007
				c-0.086,0.032-0.108,0.244-0.194,0.273c-0.086,0.032-0.19,0.025-0.284,0.058c-0.086,0.032-0.115,0.226-0.201,0.259
				c-0.086,0.032-0.28-0.212-0.37-0.176c-0.086,0.032-0.046,0.388-0.14,0.424c-0.086,0.033-0.284-0.212-0.37-0.18
				c-0.086,0.036-0.115,0.219-0.201,0.252c-0.086,0.036-0.162,0.101-0.248,0.14c-0.086,0.039-0.23-0.062-0.316-0.025
				s-0.104,0.237-0.19,0.27c-0.086,0.04-0.255-0.119-0.341-0.083c-0.086,0.036-0.18,0.079-0.266,0.122
				c-0.086,0.04-0.064,0.305-0.158,0.345c-0.086,0.043-0.28-0.144-0.366-0.104c-0.086,0.04-0.115,0.205-0.201,0.244
				c-0.086,0.04-0.173,0.083-0.259,0.126c-0.086,0.04-0.223-0.018-0.309,0.021c-0.086,0.043-0.129,0.166-0.216,0.208
				c-0.086,0.043-0.176,0.075-0.262,0.115c-0.086,0.043-0.158,0.115-0.244,0.162c-0.086,0.046-0.155,0.111-0.241,0.154
				c-0.086,0.043-0.126,0.183-0.212,0.223c-0.086,0.043-0.162,0.115-0.248,0.158c-0.086,0.04-0.201,0.014-0.295,0.058
				c-0.079,0.036-0.144,0.136-0.226,0.172c-0.083,0.036-0.205-0.014-0.291,0.018c-0.086,0.032-0.208-0.029-0.295,0.003
				c-0.086,0.036-0.212-0.05-0.298-0.018c-0.086,0.033-0.18,0.033-0.266,0.068c-0.086,0.029-0.155,0.108-0.241,0.137
				c-0.086,0.029-0.115,0.215-0.201,0.245C2.786,27.796,2.56,27.764,2.467,27.796z M29.739,33.771
				c0.094-0.025,0.079-0.227,0.166-0.248c0.093-0.021,0.244,0.216,0.33,0.194c0.094-0.021,0.115-0.338,0.201-0.355
				c0.094-0.021,0.18-0.055,0.267-0.076c0.093-0.021,0.197,0,0.287-0.014c0.094-0.015,0.197,0.05,0.287,0.043
				c0.108-0.015,0.188-0.101,0.28-0.122c0.108-0.021,0.259,0.158,0.346,0.129c0.101-0.039,0.078-0.28,0.14-0.334
				c0.068-0.068,0.252-0.068,0.27-0.169c0.015-0.083,0.051-0.208,0.036-0.319c-0.015-0.087-0.036-0.194-0.064-0.295
				c-0.022-0.087-0.313-0.104-0.346-0.205c-0.028-0.086-0.007-0.18-0.05-0.259c-0.043-0.086-0.098-0.147-0.151-0.227
				c-0.05-0.079-0.126-0.125-0.18-0.204c-0.058-0.079,0.101-0.32,0.043-0.396c-0.061-0.075-0.107-0.154-0.161-0.23
				c-0.054-0.071-0.32-0.007-0.37-0.086c-0.051-0.079-0.115-0.165-0.158-0.244c-0.043-0.086-0.107-0.187-0.137-0.273
				c-0.025-0.093-0.015-0.216-0.021-0.313c-0.007-0.09-0.05-0.212-0.043-0.306c0.007-0.093,0.079-0.197,0.104-0.294
				c0.018-0.065,0.146-0.234,0.054-0.327c-0.079-0.076-0.331,0.003-0.385-0.068c-0.064-0.079-0.19-0.13-0.27-0.22
				c-0.097-0.111-0.079-0.305-0.061-0.392c0.018-0.093-0.025-0.19-0.021-0.28c0.003-0.097,0.133-0.194,0.125-0.284
				c-0.014-0.093-0.165-0.162-0.19-0.251c-0.024-0.09-0.068-0.165-0.101-0.251s0.076-0.233,0.032-0.32
				c-0.043-0.086-0.158-0.133-0.204-0.216c-0.047-0.083-0.188-0.104-0.234-0.187c-0.046-0.079,0.108-0.28,0.058-0.359
				c-0.05-0.079-0.201-0.101-0.248-0.18c-0.046-0.086-0.197-0.115-0.233-0.201c-0.039-0.086,0.166-0.259,0.137-0.345
				c-0.028-0.093-0.309-0.107-0.341-0.201c-0.033-0.093-0.019-0.197-0.055-0.294c-0.032-0.094,0.173-0.273,0.137-0.367
				c-0.036-0.093-0.15-0.151-0.19-0.244c-0.039-0.086-0.047-0.194-0.086-0.28c-0.04-0.094-0.025-0.208-0.064-0.298
				c-0.036-0.09-0.363-0.054-0.406-0.147c-0.036-0.086,0.194-0.298,0.158-0.388c-0.043-0.089-0.366-0.057-0.402-0.147
				c-0.043-0.09,0.058-0.241,0.018-0.334c-0.039-0.086-0.154-0.144-0.198-0.237c-0.04-0.086-0.147-0.147-0.187-0.237
				s-0.04-0.201-0.079-0.288c-0.036-0.093-0.058-0.194-0.094-0.28c-0.04-0.093-0.122-0.165-0.154-0.259
				c-0.04-0.093,0.068-0.244,0.036-0.337c-0.033-0.094,0.057-0.227,0.025-0.32c-0.036-0.094-0.288-0.111-0.316-0.205
				c-0.028-0.093-0.107-0.172-0.136-0.266c-0.029-0.094-0.007-0.208-0.032-0.302c-0.025-0.093,0.003-0.208-0.018-0.302
				c-0.021-0.093,0.04-0.208,0.018-0.305c-0.025-0.097-0.184-0.166-0.198-0.259c-0.021-0.097,0.18-0.227,0.165-0.327
				c-0.007-0.072-0.251-0.086-0.28-0.158c-0.036-0.064-0.014-0.158-0.04-0.226c-0.032-0.086-0.086-0.169-0.125-0.255
				c-0.036-0.086-0.111-0.158-0.144-0.248c-0.036-0.086-0.115-0.166-0.147-0.255s0.158-0.23,0.147-0.323
				c-0.014-0.094-0.226-0.147-0.251-0.245c-0.029-0.093,0.05-0.223,0.011-0.313s0.025-0.255-0.025-0.338
				c-0.054-0.083-0.151-0.162-0.216-0.233c-0.064-0.072-0.158-0.14-0.23-0.205c-0.072-0.062-0.28,0.039-0.359-0.015
				c-0.086-0.054-0.147-0.119-0.237-0.158c-0.086-0.04-0.158-0.115-0.251-0.147c-0.094-0.029-0.194,0.025-0.295,0.007
				c-0.093-0.014-0.18-0.205-0.28-0.205c-0.097,0-0.187,0.14-0.284,0.154c-0.094,0.015-0.205-0.075-0.298-0.057
				c-0.093,0.021-0.18,0.072-0.273,0.093c-0.094,0.014-0.158,0.144-0.251,0.162c-0.086,0.025-0.18,0.054-0.273,0.076
				c-0.093,0.021-0.172,0.079-0.266,0.097c-0.086,0.025-0.23-0.162-0.324-0.14c-0.086,0.025-0.194-0.029-0.287-0.007
				c-0.094,0.021-0.166,0.115-0.259,0.133s-0.151,0.212-0.245,0.226c-0.093,0.022-0.172,0.123-0.266,0.137
				c-0.101,0.015-0.227-0.259-0.338-0.266c-0.101-0.007-0.187-0.083-0.294-0.097c-0.104-0.015-0.245,0.255-0.345,0.244
				c-0.111-0.011-0.208-0.154-0.309-0.147c-0.107,0.007-0.169,0.137-0.255,0.187c-0.086,0.05-0.248-0.058-0.338-0.018
				s-0.165,0.101-0.255,0.133c-0.094,0.029-0.137,0.259-0.23,0.28c-0.094,0.021-0.259-0.27-0.353-0.255
				c-0.097,0.018-0.172,0.108-0.273,0.126c-0.097,0.014-0.158,0.244-0.251,0.259c-0.101,0.014-0.187,0.061-0.284,0.079
				c-0.097,0.014-0.248-0.245-0.342-0.23c-0.101,0.025-0.205,0.079-0.302,0.111c-0.101,0.032-0.18,0.133-0.273,0.172
				c-0.101,0.036-0.137,0.201-0.233,0.248c-0.094,0.04-0.234-0.007-0.327,0.036c-0.093,0.043-0.255-0.057-0.349-0.018
				c-0.093,0.04-0.183,0.083-0.28,0.119c-0.093,0.036-0.18,0.094-0.273,0.123c-0.097,0.036-0.14,0.201-0.233,0.237
				c-0.094,0.029-0.245-0.086-0.338-0.05c-0.094,0.032-0.09,0.338-0.184,0.37c-0.093,0.032-0.187,0.072-0.28,0.104
				c-0.093,0.036-0.226-0.033-0.319,0.007c-0.094,0.029-0.245-0.079-0.338-0.04c-0.094,0.04-0.133,0.201-0.23,0.241
				c-0.094,0.036-0.137,0.18-0.23,0.219c-0.094,0.04-0.23-0.032-0.324,0.007c-0.064,0.032-0.273,0.003-0.337,0.086
				c-0.054,0.075-0.036,0.233-0.072,0.316c-0.04,0.104,0.018,0.227,0.036,0.291c0.029,0.09,0.097,0.166,0.129,0.255
				c0.029,0.09,0.166,0.14,0.198,0.23c0.029,0.086-0.025,0.201,0.007,0.291c0.028,0.086,0.14,0.147,0.168,0.237
				c0.029,0.086-0.129,0.244-0.101,0.331c0.029,0.086,0.101,0.165,0.129,0.251c0.029,0.086,0.043,0.187,0.076,0.273
				s0.007,0.194,0.04,0.284c0.036,0.086,0.108,0.155,0.144,0.248c0.036,0.086,0.021,0.19,0.05,0.277
				c0.036,0.086,0.129,0.154,0.166,0.241c0.032,0.086,0.14,0.144,0.172,0.237c0.032,0.086,0.007,0.187,0.043,0.28
				c0.079-0.065,0.108-0.187,0.184-0.245c0.086-0.061,0.183-0.108,0.262-0.154c0.09-0.054,0.158-0.162,0.244-0.205
				c0.094-0.04,0.262,0.119,0.356,0.094c0.097-0.029,0.151-0.302,0.248-0.316c0.101-0.014,0.223,0.259,0.316,0.262
				c0.101,0.004,0.18,0.047,0.273,0.068c0.097,0.018,0.187,0.007,0.277,0.043c0.09,0.033,0.14,0.133,0.227,0.18
				c0.086,0.043,0.32-0.158,0.402-0.101c0.083,0.05,0.122,0.18,0.201,0.241c0.076,0.061,0.194,0.079,0.266,0.147
				c0.079,0.065,0.165,0.119,0.237,0.19c0.072,0.068,0.029,0.255,0.101,0.327c0.021,0.021,0.187-0.144,0.208-0.122
				c0.079,0.054,0.158,0.115,0.237,0.168c0.079,0.058-0.032,0.377,0.046,0.432c0.079,0.057,0.205,0.054,0.28,0.111
				c0.079,0.054,0.313-0.101,0.392-0.043c0.079,0.058-0.047,0.388,0.032,0.449c0.079,0.058,0.237,0.004,0.313,0.065
				c0.079,0.054,0.216,0.04,0.295,0.093c0.079,0.054,0.003,0.32,0.083,0.377c0.079,0.057,0.172,0.093,0.251,0.151
				c0.075,0.058,0.313-0.097,0.392-0.043c0.079,0.062,0.122,0.166,0.201,0.223c0.079,0.061,0.015,0.302,0.094,0.359
				c0.079,0.061,0.305-0.079,0.381-0.022c0.079,0.058,0.115,0.169,0.194,0.23c0.076,0.058,0.237,0,0.316,0.065
				c0.079,0.058,0.025,0.28,0.101,0.345c0.075,0.058,0.215,0.036,0.294,0.094c0.072,0.061,0.072,0.219,0.147,0.28
				c0.075,0.058,0.176,0.086,0.255,0.151c0.079,0.058,0.115,0.165,0.194,0.226c0.072,0.062,0.219,0.04,0.294,0.097
				c0.072,0.061,0.04,0.255,0.115,0.316c0.075,0.064,0.287-0.04,0.359,0.025c0.075,0.061,0.061,0.227,0.136,0.291
				c0.072,0.065,0.126,0.151,0.198,0.216c0.075,0.064,0.331-0.086,0.406-0.021c0.072,0.061,0.064,0.219,0.136,0.284
				c0.072,0.061,0.036,0.247,0.108,0.313c0.072,0.064,0.187,0.079,0.259,0.147c0.072,0.064,0.208,0.064,0.28,0.125
				c0.072,0.065,0.215,0.051,0.287,0.119c0.072,0.068,0.011,0.272,0.083,0.338c0.068,0.061,0.248,0.021,0.313,0.09
				c0.072,0.064,0.072,0.208,0.137,0.276c0.068,0.068,0.259,0.015,0.331,0.083c0.072,0.064,0.064,0.208,0.136,0.276
				c0.065,0.068,0.054,0.219,0.123,0.284c0.064,0.067,0.251,0.021,0.323,0.086c0.072,0.068,0.029,0.244,0.093,0.313
				c0.072,0.068,0.273,0,0.338,0.068c0.072,0.064-0.032,0.309,0.04,0.377s0.205,0.064,0.273,0.133
				c0.072,0.065,0.18,0.087,0.251,0.151s0.155,0.122,0.219,0.187c0.072,0.068,0.212,0.058,0.28,0.126
				c0.072,0.068-0.093,0.381-0.021,0.445c0.072,0.068,0.212,0.055,0.28,0.126c0.072,0.064,0.058,0.223,0.126,0.287
				c0.072,0.065,0.162,0.108,0.233,0.173c0.072,0.072,0.237,0.029,0.309,0.094c0.072,0.064,0.194,0.071,0.267,0.144
				c0.068,0.064,0.154,0.107,0.227,0.18c0.071,0.064,0.075,0.201,0.146,0.266c0.072,0.064,0.087,0.188,0.158,0.252
				c0.072,0.068,0.072,0.208,0.141,0.272C29.416,33.739,29.775,33.797,29.739,33.771z M2.452,29.133
				c-0.064,0.093-0.003,0.352-0.043,0.438c-0.047,0.101-0.334,0.14-0.345,0.237C2.05,29.916,2.352,30.01,2.38,30.11
				c0.021,0.097,0.058,0.15,0.119,0.236c0.054,0.087,0.075,0.166,0.154,0.245c0.072,0.068,0.094,0.193,0.18,0.259
				c0.079,0.061,0.205,0.054,0.288,0.114c0.083,0.055,0.043,0.288,0.129,0.346c0.079,0.057,0.288-0.068,0.374-0.015
				c0.079,0.058,0.072,0.251,0.158,0.309c0.079,0.058,0.144,0.137,0.227,0.198c0.083,0.058,0.165,0.118,0.248,0.172
				c0.083,0.062,0.324-0.101,0.403-0.039c0.086,0.058,0.129,0.165,0.208,0.229c0.079,0.065,0.169,0.115,0.248,0.18
				c0.076,0.065,0.176,0.108,0.248,0.18c0.079,0.065-0.04,0.338,0.032,0.406s0.133,0.147,0.205,0.212
				c0.068,0.072,0.313-0.039,0.384,0.029c0.068,0.064,0.147,0.129,0.219,0.193c0.072,0.068,0.158,0.122,0.227,0.188
				c0.068,0.068,0.111,0.165,0.183,0.233s0.169,0.107,0.241,0.176c0.068,0.064,0.108,0.169,0.176,0.237
				c0.072,0.072-0.043,0.323,0.025,0.392c0.072,0.068,0.298-0.025,0.37,0.047c0.072,0.064,0.18,0.097,0.248,0.165
				c0.072,0.072,0.05,0.23,0.119,0.302c0.072,0.068,0.172,0.098,0.244,0.169c0.072,0.072,0.047,0.233,0.115,0.306
				c0.064,0.064,0.23,0.039,0.302,0.111c0.068,0.068,0.151,0.126,0.215,0.197c0.072,0.072,0.025,0.256,0.094,0.323
				c0.072,0.065,0.194,0.087,0.266,0.151c0.072,0.072,0.212,0.064,0.284,0.137c0.068,0.071-0.025,0.302,0.04,0.374
				c0.068,0.064,0.229,0.046,0.298,0.114c0.068,0.072,0.227,0.051,0.298,0.122c0.065,0.072-0.047,0.316,0.021,0.389
				c0.072,0.071,0.324-0.043,0.396,0.028c0.072,0.072,0.101,0.173,0.172,0.244c0.072,0.072-0.043,0.316,0.029,0.389
				c0.064,0.071,0.194,0.079,0.266,0.147c0.072,0.068,0.123,0.154,0.187,0.226c0.072,0.072,0.101,0.18,0.166,0.252
				c0.072,0.072,0.359-0.079,0.431-0.011s-0.072,0.349,0,0.417c0.064,0.071,0.352-0.075,0.424-0.008
				c0.068,0.068,0.029,0.248,0.101,0.32c0.065,0.072,0.194,0.079,0.259,0.15c0.068,0.072,0.194,0.087,0.266,0.155
				c0.064,0.071,0.101,0.172,0.172,0.24c0.064,0.064,0.122,0.151,0.187,0.223c0.072,0.068,0.173,0.108,0.245,0.18
				c0.068,0.068,0.029,0.252,0.093,0.32c0.072,0.071,0.043,0.233,0.108,0.306c0.072,0.071,0.306-0.022,0.374,0.05
				c0.068,0.072,0.169,0.115,0.237,0.187c0.065,0.068,0.097,0.18,0.166,0.248c0.064,0.072,0.093,0.184,0.158,0.259
				c0.068,0.072,0.068,0.205,0.14,0.277c0.068,0.071,0.241,0.046,0.306,0.122c0.072,0.071-0.029,0.294,0.04,0.366
				s0.291-0.004,0.359,0.072c0.068,0.071,0.086,0.187,0.154,0.262c0.065,0.068,0.144,0.13,0.216,0.205
				c0.068,0.072,0.165,0.115,0.233,0.194c0.068,0.068,0.172,0.107,0.241,0.18c0.065,0.071-0.021,0.294,0.05,0.366
				c0.068,0.079,0.187-0.007,0.251,0.071c0.05-0.118,0.158-0.125,0.194-0.215c0.05-0.122,0.219-0.166,0.259-0.256
				c0.04-0.104-0.033-0.133,0.014-0.233c0.064,0.058-0.007,0.072,0.058,0.13c0.064,0.058,0.266-0.043,0.331,0.011
				c0.068,0.061,0.122,0.133,0.183,0.183c0.068,0.058,0.104,0.151,0.169,0.209c0.054,0.079,0.101,0.079,0.154,0.158
				c0.068-0.064,0.194,0.028,0.266-0.029c0.072-0.064,0.061-0.223,0.133-0.287c0.072-0.062,0.216-0.04,0.291-0.101
				c0.076-0.058,0.126-0.144,0.201-0.205c0.076-0.061,0.086-0.201,0.162-0.262c0.075-0.058,0.151-0.123,0.223-0.18
				c0.079-0.058,0.137-0.145,0.215-0.198c0.079-0.058,0.277,0.062,0.356,0.008c0.079-0.055,0.198-0.047,0.277-0.098
				c0.079-0.054,0.115-0.169,0.201-0.219c0.079-0.054,0.064-0.255,0.144-0.302c0.083-0.054,0.122-0.177,0.201-0.227
				c0.079-0.051,0.306,0.144,0.388,0.094c0.083-0.051,0.201-0.036,0.28-0.087c0.083-0.05,0.029-0.345,0.108-0.388
				c0.086-0.043,0.233,0.025,0.32-0.021c0.083-0.043,0.111-0.188,0.197-0.237c0.086-0.043,0.252,0.058,0.331,0.011
				c0.086-0.047,0.155-0.118,0.241-0.162c0.086-0.043,0.079-0.272,0.162-0.315c0.086-0.04,0.316,0.204,0.402,0.158
				c0.086-0.044,0.137-0.151,0.223-0.194c0.086-0.043,0.076-0.284,0.162-0.323c0.086-0.043,0.162-0.115,0.248-0.158
				c0.086-0.04,0.295,0.18,0.381,0.14c0.086-0.039,0.166-0.101,0.251-0.14c0.086-0.043,0.144-0.144,0.23-0.18
				c0.086-0.043,0.119-0.205,0.205-0.244c0.086-0.044,0.219,0.011,0.305-0.029c0.086-0.039,0.237,0.064,0.327,0.029
				c0.086-0.044,0.172-0.087,0.259-0.126c0.086-0.04,0.165-0.098,0.251-0.141c0.086-0.039,0.119-0.201,0.205-0.24
				c0.086-0.04,0.241,0.061,0.327,0.021c0.086-0.04,0.05-0.342,0.137-0.385c0.086-0.039,0.169-0.082,0.255-0.126
				c0.086-0.039,0.223,0.019,0.309-0.028c0.086-0.04,0.241,0.054,0.327,0.011c0.086-0.043,0.108-0.208,0.194-0.255
				c0.086-0.047,0.119-0.19,0.205-0.233c0.086-0.047,0.223,0.014,0.309-0.029c0.086-0.043,0.248,0.051,0.33,0.007
				c0.083-0.043,0.122-0.176,0.209-0.223c0.079-0.043,0.122-0.161,0.208-0.208c0.079-0.051,0.119-0.079,0.201-0.13
				c-0.097-0.064-0.223,0.019-0.316-0.028c-0.111-0.058-0.158-0.173-0.259-0.201c-0.122-0.028-0.165,0.043-0.272,0.072
				c-0.094,0.024-0.245-0.147-0.338-0.123c-0.101,0.025-0.18,0.087-0.28,0.112c-0.097,0.024-0.198,0.024-0.291,0.054
				c-0.097,0.021-0.205-0.015-0.306,0.014c-0.097,0.025-0.18,0.094-0.276,0.119c-0.097,0.025-0.205,0.004-0.298,0.032
				c-0.101,0.021-0.18,0.115-0.273,0.14c-0.101,0.025-0.172,0.134-0.266,0.158c-0.101,0.025-0.208,0-0.302,0.029
				c-0.097,0.025-0.169,0.133-0.262,0.161c-0.094,0.029-0.194,0.044-0.288,0.076c-0.097,0.028-0.166,0.122-0.259,0.154
				c-0.097,0.036-0.259-0.13-0.352-0.094c-0.097,0.036-0.09,0.31-0.184,0.345c-0.093,0.04-0.287-0.18-0.381-0.136
				c-0.093,0.043-0.201,0.05-0.291,0.093s-0.162,0.122-0.251,0.166c-0.086,0.043-0.212,0.024-0.298,0.071
				c-0.086,0.043-0.036,0.345-0.125,0.392c-0.086,0.047-0.212,0.019-0.298,0.064c-0.086,0.047-0.144,0.147-0.23,0.19
				c-0.086,0.051-0.158,0.108-0.244,0.158c-0.086,0.051-0.252-0.043-0.338,0.008c-0.086,0.05-0.058,0.287-0.144,0.341
				c-0.083,0.047-0.168,0.098-0.255,0.147c-0.083,0.051-0.334-0.172-0.42-0.122c-0.083,0.054-0.129,0.169-0.208,0.223
				c-0.086,0.051-0.029,0.323-0.108,0.378c-0.086,0.054-0.352-0.184-0.431-0.134c-0.086,0.055-0.093,0.223-0.172,0.277
				c-0.086,0.054-0.115,0.187-0.198,0.24c-0.083,0.051-0.305-0.107-0.384-0.054c-0.083,0.054-0.147,0.133-0.23,0.187
				c-0.083,0.055-0.015,0.331-0.097,0.385c-0.083,0.058-0.194,0.062-0.276,0.118c-0.083,0.055-0.295-0.086-0.374-0.032
				c-0.086,0.055-0.029,0.32-0.108,0.374c-0.086,0.058-0.201,0.058-0.276,0.104c-0.09,0.061-0.094,0.233-0.162,0.28
				c-0.097,0.061-0.288-0.068-0.363-0.032c-0.101,0.05-0.162,0.176-0.248,0.18c-0.086,0.003-0.144-0.137-0.237-0.194
				c-0.068-0.04-0.166-0.058-0.251-0.133c-0.061-0.054-0.086-0.162-0.166-0.233c-0.064-0.062-0.208-0.051-0.287-0.122
				c-0.072-0.065-0.022-0.259-0.086-0.331c-0.072-0.064-0.291,0.015-0.359-0.051c-0.072-0.067-0.047-0.233-0.119-0.305
				c-0.072-0.068-0.119-0.162-0.187-0.227c-0.072-0.068-0.337,0.064-0.409-0.007c-0.068-0.065-0.054-0.224-0.123-0.295
				c-0.072-0.064-0.025-0.255-0.097-0.323c-0.068-0.065-0.18-0.087-0.252-0.158c-0.072-0.072-0.201-0.072-0.273-0.144
				c-0.072-0.068-0.219-0.058-0.288-0.13c-0.072-0.071-0.007-0.273-0.079-0.345c-0.072-0.064-0.245-0.029-0.316-0.094
				c-0.072-0.071-0.068-0.216-0.137-0.283c-0.072-0.068-0.259-0.015-0.331-0.083c-0.072-0.064-0.064-0.209-0.136-0.276
				c-0.072-0.068-0.061-0.22-0.129-0.291c-0.072-0.065-0.259-0.015-0.331-0.083c-0.068-0.068-0.033-0.248-0.101-0.316
				c-0.072-0.068-0.273,0-0.345-0.068c-0.072-0.064,0.032-0.313-0.04-0.381s-0.205-0.068-0.276-0.137
				c-0.072-0.064-0.187-0.086-0.255-0.158c-0.072-0.064-0.154-0.118-0.227-0.187c-0.072-0.064-0.212-0.058-0.284-0.126
				c-0.068-0.068,0.09-0.384,0.018-0.449c-0.072-0.068-0.212-0.057-0.284-0.122c-0.072-0.071-0.062-0.227-0.133-0.294
				c-0.072-0.065-0.165-0.112-0.233-0.177c-0.072-0.061-0.241-0.021-0.316-0.086c-0.068-0.062-0.194-0.075-0.266-0.141
				c-0.068-0.064-0.162-0.111-0.234-0.172c-0.072-0.064-0.079-0.201-0.151-0.266c-0.072-0.065-0.093-0.188-0.165-0.252
				c-0.072-0.062-0.079-0.201-0.151-0.266c-0.072-0.062-0.27,0.014-0.341-0.051c-0.068-0.064-0.112-0.165-0.184-0.229
				c-0.072-0.065-0.255-0.004-0.331-0.065c-0.072-0.064,0.054-0.352-0.021-0.416c-0.072-0.065-0.37,0.129-0.445,0.064
				c-0.076-0.062,0.05-0.353-0.022-0.417c-0.068-0.062-0.248-0.007-0.32-0.068c-0.072-0.064-0.168-0.101-0.241-0.165
				c-0.072-0.062-0.05-0.241-0.122-0.306c-0.072-0.061-0.262,0.007-0.334-0.054c-0.072-0.064-0.004-0.291-0.079-0.353
				c-0.068-0.064-0.147-0.125-0.219-0.19c-0.068-0.064-0.309,0.065-0.381,0c-0.072-0.064,0.021-0.319-0.05-0.384
				c-0.072-0.062-0.233-0.025-0.309-0.09c-0.072-0.065-0.144-0.126-0.216-0.19c-0.079-0.062-0.072-0.213-0.147-0.273
				c-0.076-0.064-0.205-0.062-0.277-0.126c-0.075-0.061-0.14-0.133-0.208-0.197c-0.079-0.062-0.172-0.101-0.244-0.162
				c-0.079-0.064-0.166-0.107-0.241-0.172c-0.076-0.065-0.223-0.04-0.291-0.104c-0.079-0.062-0.173-0.101-0.245-0.162
				c-0.068-0.064-0.101-0.183-0.172-0.244c-0.075-0.061-0.187-0.079-0.266-0.14c-0.072-0.065-0.086-0.198-0.154-0.263
				c-0.075-0.064-0.079-0.208-0.151-0.27c-0.076-0.064-0.061-0.223-0.14-0.284c-0.072-0.064-0.126-0.15-0.201-0.215
				C2.718,29.283,2.528,29.197,2.452,29.133z M11.795,19.632c-0.033,0.101,0.036,0.345,0.014,0.438
				c-0.021,0.101-0.309,0.151-0.32,0.251c-0.014,0.101,0.277,0.227,0.273,0.323c-0.003,0.101,0.007,0.184,0.018,0.288
				c0.007,0.101-0.021,0.187,0,0.288c0.015,0.097-0.04,0.208-0.007,0.302c0.036,0.093,0.14,0.151,0.187,0.241
				c0.043,0.09-0.093,0.284-0.036,0.367c0.057,0.083,0.294,0.025,0.359,0.104c0.064,0.076,0.014,0.259,0.089,0.327
				c0.072,0.068,0.133,0.162,0.219,0.219c0.079,0.057,0.288,0.111,0.374,0.165c-0.036-0.101-0.295-0.215-0.327-0.309
				c-0.032-0.093-0.011-0.208-0.047-0.302c-0.028-0.093-0.075-0.18-0.107-0.273c-0.036-0.097-0.101-0.18-0.129-0.273
				c-0.036-0.094,0.194-0.284,0.162-0.374c-0.032-0.093-0.058-0.19-0.086-0.287c-0.032-0.094-0.305-0.101-0.338-0.194
				c-0.032-0.093-0.083-0.18-0.111-0.276c-0.036-0.094-0.093-0.18-0.122-0.273c-0.032-0.093-0.029-0.197-0.064-0.291
				C11.762,19.999,11.827,19.726,11.795,19.632z M32.481,34.073c-0.025-0.104-0.22-0.18-0.241-0.284
				c-0.082,0.036-0.187-0.165-0.266-0.129c-0.083,0.036-0.043,0.345-0.129,0.381c-0.079,0.036-0.155,0.079-0.237,0.115
				c-0.083,0.036-0.176,0.036-0.259,0.075c-0.083,0.04-0.201,0.004-0.276,0.04c-0.079,0.043-0.119,0.15-0.198,0.197
				c-0.032,0.015-0.147,0.14-0.086,0.313c0.036,0.115,0.237,0.107,0.266,0.208c0.079-0.061,0.165,0.025,0.237-0.028
				c0.072-0.064,0.165-0.094,0.241-0.151c0.075-0.061,0.15-0.114,0.219-0.172c0.079-0.062-0.015-0.331,0.058-0.389
				c0.075-0.057,0.187-0.071,0.259-0.125C32.14,34.063,32.406,34.131,32.481,34.073z M31.181,37.052
				c-0.097-0.043-0.349,0-0.438-0.024c-0.104-0.032-0.162-0.32-0.252-0.327c-0.107-0.007-0.187,0.295-0.28,0.323
				c-0.093,0.028-0.125,0.058-0.204,0.13c-0.072,0.064-0.141,0.086-0.194,0.187c-0.043,0.079-0.158,0.126-0.19,0.229
				c0.097-0.032,0.162-0.14,0.255-0.172c0.094-0.036,0.263,0.129,0.359,0.093c0.101-0.032,0.115-0.272,0.216-0.313
				c0.094-0.032,0.244,0.087,0.345,0.054C30.89,37.196,31.087,37.092,31.181,37.052z"/>
		</g>
		<g>
			<path d="M34.572,13.775c-0.046,0.093-0.14,0.072-0.176,0.151c-0.043,0.093,0.111,0.27,0.079,0.349
				c-0.043,0.097-0.072,0.176-0.101,0.259c-0.036,0.097-0.18,0.158-0.194,0.244c-0.014,0.097-0.071,0.212-0.058,0.306
				c0.012,0.086,0.252,0.122,0.288,0.219c0.028,0.075-0.043,0.205,0,0.298c0.036,0.076-0.064,0.234-0.019,0.324
				c0.04,0.079,0.098,0.151,0.147,0.248c0.04,0.076,0.237,0.083,0.284,0.169c0.047,0.094,0.162,0.173,0.187,0.277
				c0.025,0.097-0.071,0.227-0.061,0.334c0.014,0.101,0.007,0.201,0.007,0.306c0,0.104,0.062,0.212,0.051,0.316
				c-0.011,0.104-0.245,0.169-0.267,0.266c-0.021,0.093,0.27,0.233,0.259,0.32c-0.014,0.093-0.24,0.166-0.244,0.251
				c-0.004,0.093,0.058,0.187,0.068,0.28c0.007,0.086,0.14,0.158,0.154,0.251c0.019,0.086-0.054,0.187-0.032,0.28
				c0.025,0.086,0.141,0.144,0.169,0.23c0.028,0.079-0.129,0.237-0.09,0.324c0.04,0.09,0.237,0.122,0.263,0.215
				c0.028,0.093-0.101,0.219-0.083,0.316c0.018,0.093,0.197,0.169,0.205,0.262c0.014,0.097-0.072,0.205-0.064,0.298
				c0.007,0.101,0.201,0.187,0.204,0.284c0.004,0.097-0.204,0.201-0.201,0.298c0.004,0.101,0.119,0.194,0.126,0.288
				c0,0.101-0.151,0.205-0.144,0.298c0.007,0.097-0.068,0.205-0.058,0.298c0.011,0.108,0.043,0.205,0.05,0.309
				c0.008,0.104,0.252,0.19,0.259,0.295c0.008,0.107,0.055,0.205,0.065,0.309c0.014,0.104,0.05,0.198,0.061,0.302
				c0.015,0.107-0.075,0.219-0.054,0.32c0.015,0.093,0.015,0.187,0.028,0.284c0.021,0.093-0.061,0.201-0.043,0.294
				c0.021,0.094,0.021,0.187,0.036,0.28c0.021,0.094-0.072,0.208-0.058,0.302c0.019,0.093,0.122,0.165,0.144,0.258
				c0.019,0.094,0.094,0.18,0.108,0.266c0.018,0.093,0.064,0.18,0.082,0.273c0.019,0.094-0.09,0.212-0.075,0.306
				c0.019,0.093,0.266,0.14,0.284,0.237c0.018,0.094,0.047,0.184,0.064,0.277s-0.054,0.201-0.032,0.295
				c0.015,0.093-0.107,0.215-0.094,0.309c0.021,0.094,0.158,0.162,0.18,0.255c0.015,0.093-0.101,0.212-0.086,0.306
				c0.021,0.093,0.173,0.158,0.194,0.248c0.018,0.09,0.176,0.158,0.193,0.251c0.019,0.094-0.237,0.237-0.223,0.331
				c0.021,0.093,0.068,0.18,0.086,0.272c0.022,0.094-0.05,0.205-0.032,0.299c0.019,0.093,0.19,0.154,0.205,0.251
				c0.015,0.062-0.165,0.04-0.229,0.137c-0.044,0.064,0.043,0.162,0,0.244c-0.079-0.093-0.151-0.114-0.227-0.187
				c-0.094-0.086-0.104-0.173-0.119-0.259c-0.021-0.101,0.051-0.229,0.025-0.327c-0.025-0.097-0.398-0.093-0.431-0.19
				c-0.029-0.093,0.032-0.219,0-0.313c-0.033-0.094,0.064-0.233,0.032-0.327c-0.036-0.097-0.188-0.15-0.22-0.244
				s0.098-0.244,0.068-0.338c-0.028-0.101-0.004-0.201-0.028-0.298c-0.025-0.097-0.338-0.133-0.353-0.234s0.032-0.215,0.021-0.316
				c-0.007-0.097,0.13-0.201,0.133-0.302c0.004-0.093-0.133-0.187-0.14-0.284c-0.008-0.093,0.197-0.219,0.18-0.313
				c-0.015-0.093-0.154-0.162-0.18-0.259c-0.021-0.086-0.029-0.187-0.051-0.273c-0.028-0.094-0.071-0.18-0.097-0.266
				c-0.025-0.093-0.227-0.129-0.252-0.223c-0.024-0.09,0.087-0.223,0.062-0.316c-0.028-0.09-0.058-0.18-0.079-0.273
				s0.097-0.208,0.083-0.302c-0.019-0.101-0.079-0.194-0.087-0.298c-0.011-0.104,0.008-0.201,0.004-0.306
				c-0.004-0.107-0.266-0.208-0.263-0.313c0-0.104,0.335-0.201,0.335-0.305c0.007-0.108-0.267-0.216-0.267-0.32
				c0-0.094,0.267-0.18,0.267-0.27c0.007-0.093-0.147-0.194-0.145-0.28c0.004-0.093,0.18-0.18,0.184-0.273
				c0.004-0.094,0.018-0.18,0.018-0.273c0.008-0.093-0.251-0.197-0.251-0.291c0.007-0.093,0.036-0.183,0.036-0.276
				c0-0.094,0.007-0.184,0.007-0.28c0-0.076,0.151-0.202,0.13-0.295c-0.033-0.104-0.115-0.316-0.173-0.345
				c-0.107-0.05-0.28,0.075-0.359,0.021c-0.097-0.065-0.025-0.259-0.079-0.327c-0.072-0.086-0.276-0.068-0.298-0.162
				c-0.025-0.097,0.133-0.194,0.14-0.302c0.015-0.094-0.147-0.227-0.118-0.331c0.032-0.101,0-0.223,0.039-0.32
				c0.032-0.094,0.345-0.094,0.377-0.19c0.033-0.094-0.161-0.259-0.133-0.352c0.025-0.094,0.079-0.176,0.094-0.273
				c0.018-0.093,0.036-0.187,0.039-0.28c0.004-0.101,0.188-0.219,0.173-0.313c-0.011-0.093-0.259-0.151-0.291-0.244
				c-0.028-0.09-0.122-0.14-0.165-0.227s0.137-0.309,0.071-0.392c-0.054-0.076-0.125-0.166-0.193-0.237
				c-0.072-0.075-0.158-0.104-0.209-0.198c-0.05-0.09-0.071-0.18-0.107-0.276c-0.036-0.097-0.047-0.19-0.068-0.291
				c-0.025-0.108-0.075-0.198-0.09-0.295c-0.015-0.101-0.058-0.18-0.043-0.273c0.007-0.097-0.108-0.248-0.064-0.334
				c0.039-0.09,0.093-0.212,0.165-0.284c0.061-0.072,0.15-0.187,0.233-0.237c0.079-0.05,0.241,0,0.338-0.028
				c0.09-0.029,0.212,0.144,0.313,0.136C34.469,13.861,34.472,13.768,34.572,13.775z"/>
		</g>
		<g>
			<path d="M49.618,30.397c-0.015-0.09-0.194-0.086-0.209-0.18c-0.014-0.094-0.025-0.184-0.039-0.273
				c-0.019-0.09-0.004-0.187-0.019-0.28c-0.007-0.086,0.104-0.201,0.087-0.287c-0.015-0.094-0.072-0.18-0.087-0.27
				c-0.014-0.09,0.021-0.19,0.008-0.28c-0.015-0.09-0.173-0.162-0.188-0.252c-0.014-0.09,0.216-0.219,0.205-0.313
				c-0.018-0.093-0.176-0.165-0.197-0.259c-0.015-0.093-0.137-0.172-0.154-0.266c-0.019-0.093,0.075-0.208,0.054-0.302
				c-0.015-0.093-0.101-0.18-0.111-0.277c-0.011-0.086,0.169-0.187,0.161-0.273c-0.003-0.086-0.266-0.165-0.27-0.251
				c-0.003-0.086,0.22-0.176,0.22-0.266s-0.18-0.172-0.18-0.258c0-0.086,0.107-0.147,0.086-0.166
				c-0.086-0.061-0.007-0.298-0.064-0.363c-0.068-0.076-0.137-0.115-0.18-0.201c-0.047-0.086-0.015-0.173-0.043-0.266
				c-0.025-0.093-0.252-0.144-0.263-0.244c-0.011-0.094-0.018-0.194-0.018-0.295c-0.004-0.097,0.122-0.197,0.122-0.294
				s0.058-0.201,0.054-0.295c-0.004-0.101-0.237-0.18-0.248-0.273c-0.015-0.101,0.083-0.212,0.058-0.305
				c-0.028-0.094,0.079-0.259,0.032-0.349c-0.047-0.086-0.097-0.162-0.133-0.255c-0.04-0.09-0.237-0.119-0.273-0.212
				c-0.032-0.093-0.14-0.165-0.172-0.259c-0.029-0.093,0.058-0.226,0.032-0.323c-0.025-0.101-0.04-0.194-0.064-0.295
				c-0.022-0.093-0.112-0.18-0.134-0.276c-0.024-0.097,0.173-0.234,0.158-0.334c-0.021-0.101-0.345-0.144-0.359-0.244
				c-0.018-0.101,0.188-0.233,0.169-0.331c-0.014-0.101-0.093-0.187-0.107-0.288c-0.018-0.101-0.158-0.172-0.173-0.273
				c-0.014-0.097,0.062-0.212,0.054-0.313c-0.007-0.104-0.101-0.205-0.093-0.306c0-0.101,0.205-0.194,0.208-0.294
				c0.004-0.097-0.169-0.208-0.161-0.309c0.007-0.104,0.165-0.194,0.169-0.295c0.007-0.101-0.155-0.208-0.151-0.309
				c0.007-0.104,0.101-0.202,0.094-0.306c0-0.104-0.198-0.183-0.209-0.284s0.188-0.227,0.169-0.324
				c-0.018-0.097-0.154-0.165-0.183-0.266c-0.029-0.086,0.118-0.208,0.136-0.309c0.015-0.101,0.108-0.151,0.147-0.245
				c0.04-0.101,0.047-0.179,0.101-0.251c0.058-0.086-0.047-0.32,0.032-0.392c0.079-0.068,0.158-0.165,0.245-0.226
				c0.086-0.062,0.287-0.173,0.373-0.241c0.015,0.083,0.079,0.334,0.104,0.427c0.025,0.086,0.036,0.187,0.062,0.277
				c0.024,0.097-0.047,0.212-0.036,0.294c0.021,0.126,0.021,0.184-0.029,0.223c-0.086,0.075-0.255,0.09-0.302,0.154
				c-0.071,0.093-0.047,0.273-0.064,0.352c-0.015,0.101,0.064,0.212,0.094,0.309c0.032,0.086,0.107,0.162,0.158,0.251
				c0.046,0.083-0.019,0.23,0.032,0.316c0.039,0.079,0.287,0.104,0.298,0.208c0.015,0.09,0.021,0.215,0.015,0.309
				c-0.008,0.093-0.115,0.194-0.137,0.284c-0.028,0.097-0.194,0.133-0.233,0.212c-0.047,0.093,0.025,0.237-0.011,0.323
				c-0.043,0.097-0.209,0.151-0.23,0.241c-0.028,0.101,0.094,0.227,0.101,0.32c0,0.101,0.151,0.108,0.205,0.202
				c0.04,0.072-0.118,0.316-0.032,0.388c0.064,0.061,0.173,0.101,0.273,0.158c0.071,0.043,0.032,0.144,0.086,0.251
				c0.043,0.09,0.219,0.129,0.237,0.23c0.021,0.111-0.13,0.187-0.151,0.273c-0.015,0.097,0.064,0.215,0.051,0.305
				c-0.011,0.093,0.028,0.198,0.028,0.291c-0.007,0.093-0.061,0.194-0.058,0.284c0.008,0.094-0.079,0.205-0.064,0.298
				c0.015,0.094,0.388,0.123,0.406,0.216c0.018,0.086-0.062,0.198-0.04,0.288c0.029,0.09-0.086,0.223-0.058,0.309
				c0.033,0.086,0.173,0.137,0.205,0.227c0.032,0.086-0.097,0.237-0.061,0.323c0.028,0.086,0.014,0.194,0.046,0.28
				c0.033,0.086,0.346,0.072,0.374,0.158c0.032,0.086,0.011,0.198,0.04,0.284c0.032,0.09-0.065,0.223-0.04,0.309
				c0.032,0.094,0.19,0.151,0.212,0.245c0.029,0.093-0.154,0.241-0.137,0.338c0.019,0.101,0.158,0.172,0.169,0.266
				c0.008,0.094,0,0.187,0.011,0.28c0.008,0.097,0.036,0.187,0.044,0.28c0.007,0.094,0.197,0.169,0.204,0.262
				c0.008,0.094-0.125,0.198-0.118,0.291c0.007,0.094,0.021,0.187,0.032,0.28c0.007,0.094-0.126,0.194-0.118,0.292
				c0.007,0.093,0.064,0.18,0.071,0.273c0.008,0.094-0.007,0.187,0,0.28c0.008,0.094,0.273,0.165,0.28,0.259
				c0.008,0.094-0.316,0.212-0.309,0.306c0.007,0.093,0.287,0.165,0.287,0.259c0.007,0.093-0.244,0.204-0.237,0.298
				c0.008,0.094,0.166,0.176,0.173,0.27c0,0.094-0.173,0.173-0.18,0.266c-0.015,0.094-0.036,0.173-0.054,0.266
				c-0.019,0.094,0.212,0.245,0.19,0.338c-0.021,0.094-0.098,0.223-0.115,0.316C49.854,30.541,49.743,30.404,49.618,30.397z"/>
		</g>
		<g>
			<path d="M46.183,30.38c-0.021-0.094,0.115-0.227,0.094-0.32s-0.31-0.122-0.338-0.216c-0.025-0.093,0.093-0.226,0.071-0.319
				s0.029-0.205,0.008-0.306c-0.025-0.094-0.288-0.129-0.31-0.223s0.025-0.208,0.004-0.302c-0.025-0.101,0.101-0.227,0.075-0.32
				c-0.021-0.093-0.122-0.172-0.144-0.266c-0.021-0.097-0.101-0.197-0.115-0.298c-0.007-0.112-0.043-0.18-0.093-0.259
				c-0.058-0.094-0.029-0.23-0.079-0.316c-0.051-0.093-0.273-0.115-0.31-0.216c-0.036-0.097,0.004-0.244-0.014-0.345
				c-0.019-0.101-0.09-0.23-0.087-0.338c0.008-0.093,0.098-0.215,0.13-0.32c0.032-0.097,0.272-0.097,0.323-0.197
				c0.036-0.065-0.158-0.18-0.201-0.223c-0.075-0.072-0.036-0.255-0.09-0.334c-0.062-0.083-0.04-0.194-0.079-0.284
				c-0.04-0.089-0.266-0.115-0.291-0.215c-0.029-0.097-0.051-0.205-0.064-0.302c-0.015-0.097-0.004-0.208-0.015-0.309
				c-0.015-0.097,0.111-0.208,0.101-0.309c-0.007-0.101-0.064-0.194-0.075-0.294c-0.011-0.104,0.024-0.208,0.011-0.306
				c-0.015-0.097-0.173-0.165-0.198-0.262c-0.024-0.097,0.173-0.273,0.133-0.367c-0.035-0.093-0.215-0.122-0.272-0.208
				c-0.051-0.079-0.19-0.086-0.263-0.158c-0.068-0.072-0.061-0.216-0.147-0.273c-0.071-0.05-0.165-0.133-0.172-0.259
				c-0.008-0.093,0.18-0.194,0.18-0.302c0.007-0.101-0.241-0.223-0.233-0.323c0.007-0.108,0.233-0.198,0.233-0.291
				c0-0.086-0.162-0.198-0.147-0.298c0.015-0.093,0.018-0.19,0.032-0.284c0.021-0.101,0.259-0.173,0.266-0.259
				c0.008-0.119-0.079-0.291-0.133-0.341c-0.075-0.065-0.09-0.158-0.15-0.223c-0.062-0.072-0.284-0.007-0.335-0.079
				c-0.05-0.079-0.104-0.169-0.136-0.252c-0.04-0.086,0.046-0.215,0.024-0.302c-0.024-0.093,0.019-0.18,0.008-0.273
				c-0.011-0.086-0.241-0.165-0.241-0.259c0-0.086,0.122-0.18,0.122-0.276c0.008-0.09,0.173-0.162,0.188-0.259
				c0.011-0.09,0.007-0.18,0.018-0.273c0.011-0.083-0.18-0.187-0.219-0.273c-0.036-0.079-0.147-0.119-0.194-0.194
				c-0.043-0.079,0.007-0.212-0.029-0.291c-0.05-0.094-0.071-0.18-0.093-0.266c-0.029-0.104-0.108-0.194-0.094-0.28
				c0.011-0.097,0.23-0.064,0.291-0.144c0.054-0.072-0.09-0.353,0-0.41c0.072-0.05,0.263,0.101,0.363,0.057
				c0.079-0.032,0.107-0.125,0.212-0.158c0.007,0.097,0.122,0.158,0.133,0.251c0.007,0.101-0.079,0.205-0.072,0.302
				c0.008,0.097,0.108,0.187,0.119,0.284c0.007,0.097-0.184,0.212-0.177,0.313c0.008,0.097,0.194,0.18,0.205,0.276
				c0.011,0.097-0.133,0.212-0.126,0.306c0.008,0.101,0.18,0.18,0.188,0.28c0.007,0.097-0.075,0.201-0.068,0.298
				c0.007,0.097,0.212,0.176,0.219,0.276c0.008,0.094-0.193,0.212-0.187,0.306c0.015,0.111,0.118,0.201,0.194,0.255
				c0.086,0.058,0.064,0.23,0.129,0.291c0.075,0.068,0.062,0.176,0.115,0.245c0.058,0.079,0.107,0.115,0.144,0.197
				c0.036,0.086,0.295,0.101,0.31,0.194c0.021,0.086,0.071,0.201,0.071,0.294c0,0.09,0.021,0.205,0.007,0.298
				c-0.007,0.09-0.125,0.176-0.144,0.27c-0.021,0.086-0.058,0.18-0.079,0.266c-0.021,0.093-0.144,0.154-0.165,0.244
				c-0.021,0.079-0.043,0.18-0.043,0.273c0,0.083-0.101,0.212-0.079,0.298c0.021,0.09,0.151,0.176,0.194,0.241
				c0.05,0.086,0.15,0.133,0.201,0.216c0.047,0.083,0.114,0.151,0.161,0.237c0.047,0.086-0.024,0.223,0.019,0.309
				c0.039,0.086,0.294,0.076,0.33,0.162c0.036,0.086,0.09,0.176,0.122,0.263c0.036,0.09-0.014,0.215,0.021,0.302
				c0.032,0.093-0.075,0.226-0.043,0.32c0.029,0.09,0.173,0.144,0.201,0.237c0.029,0.09-0.079,0.219-0.054,0.313
				c0.025,0.093,0.184,0.147,0.205,0.244c0.021,0.093,0.187,0.155,0.208,0.245c0.019,0.093-0.233,0.244-0.216,0.337
				c0.022,0.094,0.068,0.18,0.087,0.273c0.014,0.093-0.058,0.201-0.04,0.294c0.015,0.093,0.188,0.166,0.198,0.259
				c0.014,0.093-0.13,0.212-0.122,0.305c0.014,0.094,0.122,0.176,0.136,0.27c0.015,0.094,0.068,0.184,0.079,0.28
				c0.015,0.101-0.032,0.208-0.014,0.309c0.018,0.101-0.058,0.223-0.036,0.316c0.025,0.101,0.396,0.119,0.424,0.219
				c0.021,0.097-0.054,0.219-0.032,0.32c0.025,0.097-0.09,0.229-0.062,0.323c0.021,0.101,0.162,0.173,0.188,0.266
				c0.021,0.101-0.126,0.233-0.108,0.331c0.021,0.101-0.014,0.201,0,0.302c0.015,0.09,0.316,0.15,0.32,0.244
				c0.003,0.094-0.054,0.194-0.062,0.287c-0.003,0.094-0.144,0.177-0.15,0.27c-0.008,0.094,0.114,0.194,0.107,0.288
				c-0.007,0.097-0.173,0.064-0.18,0.158C46.352,30.254,46.312,30.369,46.183,30.38z"/>
		</g>
		<g>
			<path d="M32.496,27.339c-0.076-0.086-0.27,0.047-0.327-0.007c-0.108-0.104,0.122-0.284,0.126-0.349
				c0.007-0.101-0.111-0.216-0.119-0.313c0-0.097-0.007-0.201-0.021-0.298c-0.015-0.101-0.011-0.208-0.032-0.302
				c-0.025-0.097-0.133-0.173-0.162-0.266c-0.028-0.093-0.136-0.165-0.165-0.259c-0.028-0.093,0.051-0.219,0.021-0.316
				c-0.032-0.094-0.058-0.194-0.086-0.288c-0.032-0.093-0.27-0.126-0.295-0.223c-0.028-0.094,0.277-0.273,0.255-0.374
				c-0.024-0.093-0.337-0.136-0.352-0.233c-0.019-0.097-0.064-0.205-0.068-0.306c-0.004-0.101,0.176-0.208,0.184-0.305
				c0.007-0.097,0.18-0.166,0.197-0.262c0.021-0.094-0.223-0.255-0.194-0.349c0.029-0.09,0.201-0.133,0.244-0.23
				c0.036-0.076,0.123-0.205,0.104-0.313c-0.011-0.086-0.272-0.123-0.306-0.219c-0.028-0.086,0-0.194-0.043-0.284
				c-0.043-0.086,0.043-0.244,0-0.327c-0.05-0.083-0.165-0.126-0.216-0.212c-0.054-0.083-0.168-0.126-0.219-0.202
				c-0.062-0.086-0.14-0.165-0.187-0.251c-0.047-0.093-0.011-0.23-0.047-0.323c-0.032-0.101-0.244-0.162-0.266-0.262
				c-0.015-0.097,0.054-0.23,0.054-0.338c0-0.097-0.054-0.219-0.04-0.331c0.015-0.093,0.094-0.176,0.101-0.27
				c0.008-0.097,0.237-0.176,0.237-0.27c0.008-0.097-0.24-0.198-0.24-0.291c0-0.101,0.147-0.194,0.14-0.291
				c0-0.097,0.062-0.198,0.054-0.291c-0.007-0.093-0.226-0.166-0.233-0.262c-0.015-0.094-0.028-0.184-0.047-0.277
				c-0.018-0.093-0.011-0.187-0.032-0.28c-0.025-0.093,0.079-0.219,0.054-0.309c-0.024-0.093-0.097-0.172-0.125-0.262
				c-0.032-0.09-0.015-0.198-0.047-0.291c-0.032-0.086-0.198-0.126-0.233-0.216c-0.04-0.09,0.15-0.273,0.114-0.359
				c-0.035-0.086-0.208-0.115-0.255-0.201c-0.039-0.086-0.176-0.125-0.223-0.208c-0.054-0.097,0.011-0.237-0.025-0.323
				c-0.036-0.108-0.137-0.194-0.144-0.288c-0.011-0.111,0.18-0.172,0.208-0.258c0.033-0.097-0.107-0.324-0.021-0.388
				c0.068-0.058,0.273,0.083,0.378,0.043c0.082-0.029,0.197-0.216,0.306-0.237c0.021,0.094,0.101,0.237,0.122,0.331
				c0.024,0.094-0.18,0.241-0.155,0.334c0.021,0.097,0.079,0.176,0.101,0.27c0.025,0.093-0.011,0.201,0.011,0.294
				c0.022,0.093,0.256,0.133,0.28,0.223c0.022,0.094,0.044,0.187,0.068,0.28c0.025,0.094-0.075,0.216-0.054,0.306
				c0.021,0.093-0.015,0.198,0.008,0.291c0.021,0.093,0.258,0.137,0.28,0.23c0.021,0.093-0.072,0.216-0.055,0.302
				c0.019,0.094-0.114,0.219-0.097,0.313c0.021,0.094,0.051,0.184,0.068,0.277s0.201,0.158,0.219,0.251
				c0.015,0.094,0.115,0.176,0.126,0.27c0.015,0.097-0.086,0.205-0.075,0.298c0.011,0.097,0.015,0.194,0.028,0.288
				c0.008,0.093,0.094,0.18,0.101,0.273c0.015,0.093-0.193,0.215-0.18,0.309c0.015,0.093,0.331,0.151,0.346,0.244
				c0.014,0.094-0.19,0.223-0.173,0.316c0.015,0.093,0.094,0.18,0.115,0.27c0.018,0.093,0.158,0.158,0.183,0.251
				c0.021,0.093-0.039,0.205-0.018,0.298c0.028,0.086,0.151,0.147,0.18,0.237c0.032,0.09-0.122,0.252-0.079,0.342
				c0.036,0.086,0.244,0.093,0.287,0.179c0.044,0.083-0.043,0.245,0.011,0.324c0.051,0.079,0.241,0.068,0.299,0.14
				c0.054,0.079,0.039,0.208,0.104,0.28c0.061,0.072,0.291,0.172,0.305,0.305c0.015,0.133-0.208,0.27-0.259,0.345
				c-0.058,0.086,0,0.226-0.043,0.313c-0.043,0.093-0.223,0.122-0.251,0.212c-0.029,0.097-0.137,0.19-0.151,0.284
				c-0.015,0.101,0.007,0.223,0.007,0.32c0.008,0.097,0.252,0.168,0.273,0.266c0.015,0.093,0.072,0.166,0.101,0.259
				c0.032,0.09,0.086,0.162,0.122,0.255c0.036,0.086-0.021,0.216,0.021,0.302c0.043,0.086,0.065,0.187,0.094,0.273
				c0.021,0.086-0.047,0.205-0.032,0.294s0.011,0.176,0.018,0.27c0.008,0.09-0.104,0.173-0.107,0.266
				c-0.004,0.09,0.079,0.18,0.064,0.277c-0.007,0.086,0.032,0.187,0.011,0.273c-0.018,0.093-0.018,0.187-0.039,0.273
				c-0.029,0.086-0.18,0.133-0.212,0.219C32.464,27.199,32.535,27.253,32.496,27.339z"/>
		</g>
		<g>
			<path d="M41.504,28.271c-0.014-0.094-0.14-0.205-0.158-0.302c-0.014-0.098-0.05-0.194-0.064-0.295s0.28-0.248,0.266-0.345
				c-0.014-0.101-0.018-0.208-0.035-0.302c-0.015-0.101-0.101-0.194-0.122-0.291c-0.022-0.097-0.27-0.133-0.295-0.233
				c-0.029-0.086,0.172-0.245,0.144-0.331c-0.032-0.086-0.18-0.133-0.212-0.219c-0.032-0.086,0.068-0.219,0.032-0.306
				c-0.032-0.086-0.036-0.187-0.072-0.266c-0.032-0.086-0.244-0.094-0.28-0.18c-0.035-0.079-0.079-0.166-0.111-0.245
				c-0.032-0.086-0.219-0.115-0.255-0.194c-0.028-0.086,0.287-0.294,0.255-0.381c-0.032-0.093-0.161-0.155-0.183-0.251
				c-0.029-0.097-0.295-0.137-0.316-0.237c-0.021-0.097,0.309-0.266,0.287-0.363c-0.014-0.097-0.147-0.176-0.161-0.273
				c-0.019-0.097-0.025-0.198-0.04-0.298c-0.015-0.094,0-0.194-0.018-0.288c-0.015-0.101-0.111-0.183-0.126-0.28
				s-0.107-0.183-0.122-0.277c-0.011-0.097,0.094-0.212,0.075-0.305c-0.011-0.094-0.015-0.194-0.028-0.291
				c-0.011-0.097-0.237-0.169-0.244-0.266c-0.008-0.097,0.319-0.226,0.305-0.327c-0.007-0.097-0.316-0.165-0.323-0.266
				c-0.007-0.09-0.054-0.183-0.058-0.277c-0.003-0.09,0.173-0.19,0.173-0.28c-0.004-0.09,0.161-0.183,0.161-0.276
				c0-0.086-0.276-0.18-0.276-0.266c0-0.093,0.144-0.187,0.144-0.273c0-0.094,0.068-0.187,0.065-0.28
				c-0.004-0.09-0.252-0.173-0.252-0.259c-0.007-0.097,0.064-0.19,0.058-0.284c-0.008-0.093,0.137-0.194,0.129-0.287
				c-0.007-0.097-0.093-0.184-0.101-0.277c-0.007-0.093-0.086-0.18-0.097-0.266c-0.007-0.094-0.047-0.187-0.054-0.273
				c-0.008-0.093,0.079-0.194,0.071-0.287c-0.007-0.094-0.201-0.173-0.208-0.266s0.068-0.19,0.058-0.284
				c0-0.097-0.072-0.184-0.075-0.277c-0.004-0.093,0.075-0.205,0.09-0.295c0.014-0.086,0.251-0.129,0.272-0.215
				s-0.165-0.294-0.144-0.381c0.083-0.015,0.248,0.086,0.334,0.072c0.054,0.101,0.058,0.233,0.119,0.334
				c0.061,0.112,0.309,0.166,0.313,0.277c0.003,0.101,0.007,0.194,0.018,0.288c0,0.101-0.018,0.198-0.011,0.291
				c0.011,0.097-0.115,0.201-0.111,0.294c0.007,0.097,0.064,0.19,0.072,0.284c0.007,0.101-0.036,0.198-0.029,0.294
				c0.008,0.097,0.158,0.18,0.173,0.273c0.007,0.097-0.23,0.216-0.22,0.309c0.011,0.101,0.162,0.18,0.173,0.277
				s0.122,0.18,0.133,0.277c0.015,0.097-0.086,0.208-0.079,0.302c0.015,0.093,0.094,0.18,0.108,0.273
				c0.011,0.101-0.158,0.216-0.147,0.313c0.011,0.097,0.28,0.158,0.298,0.251c0.015,0.094-0.194,0.219-0.18,0.32
				c0.015,0.094,0.201,0.166,0.216,0.259c0.015,0.094,0.043,0.187,0.058,0.284c0.014,0.093-0.201,0.226-0.188,0.32
				c0.015,0.093,0.065,0.187,0.079,0.284c0.015,0.093-0.024,0.198-0.011,0.294c0.019,0.097,0.245,0.155,0.259,0.252
				c0.015,0.097,0.032,0.19,0.047,0.284c0.018,0.093-0.086,0.215-0.072,0.309c0.019,0.093-0.028,0.201-0.007,0.294
				c0.019,0.094,0.252,0.151,0.273,0.245c0.018,0.093-0.079,0.208-0.064,0.309c0.021,0.093-0.123,0.219-0.104,0.313
				c0.018,0.097,0.047,0.19,0.068,0.284c0.018,0.094,0.204,0.155,0.223,0.251c0.021,0.094,0.115,0.173,0.137,0.266
				c0.018,0.093-0.079,0.212-0.062,0.309c0.019,0.093,0.025,0.19,0.047,0.284c0.018,0.097,0.104,0.176,0.122,0.27
				s-0.176,0.233-0.161,0.327c0.018,0.093,0.341,0.125,0.362,0.226c0.015,0.094-0.184,0.23-0.165,0.324
				c0.021,0.093,0.101,0.18,0.118,0.273c0.019,0.093,0.162,0.165,0.18,0.259c0.019,0.093-0.054,0.208-0.032,0.302
				c0.015,0.093,0.126,0.172,0.144,0.266c0.015,0.086-0.176,0.187-0.18,0.276c-0.003,0.086,0.169,0.19,0.158,0.277
				s-0.176,0.151-0.187,0.237c-0.015,0.087,0.101,0.256,0.094,0.346C41.835,28.303,41.641,28.263,41.504,28.271z"/>
		</g>
		<g>
			<path d="M38.866,24.903c0.029,0.093,0.022,0.09,0.051,0.183c0.028,0.094-0.129,0.245-0.101,0.334
				c0.032,0.093,0.079,0.18,0.107,0.27c0.029,0.093,0.058,0.183,0.09,0.273c0.025,0.093,0.055,0.183,0.079,0.28
				c0.025,0.093,0.04,0.187,0.062,0.28c0.025,0.093,0.272,0.14,0.291,0.233c0.018,0.097-0.233,0.245-0.22,0.338
				c0.022,0.097-0.018,0.198,0,0.298c0.015,0.093,0.331,0.14,0.346,0.237c0.014,0.101-0.104,0.216-0.087,0.313
				c0.021,0.097,0.18,0.165,0.194,0.262c0.018,0.087-0.252,0.224-0.237,0.31s0.19,0.14,0.205,0.227
				c0.018,0.086,0.126,0.154,0.144,0.24c0.015,0.087,0.054,0.166,0.068,0.252c0.018,0.097-0.266,0.259-0.244,0.352
				c0.021,0.094,0.028,0.188,0.05,0.28c0.021,0.094,0.094,0.166,0.108,0.259c0.014,0.098,0.251,0.18,0.244,0.273
				c0,0.097-0.287,0.097-0.388,0.19c-0.09,0.083-0.104,0.252-0.18,0.331c-0.044-0.09,0.018-0.252-0.036-0.346
				c-0.054-0.097-0.047-0.14-0.058-0.233c-0.015-0.104-0.216-0.184-0.223-0.28c-0.008-0.101-0.025-0.197-0.032-0.302
				c-0.008-0.101-0.18-0.187-0.188-0.28c-0.011-0.104,0.353-0.227,0.346-0.33c-0.011-0.102-0.119-0.188-0.126-0.288
				c-0.011-0.104-0.27-0.184-0.277-0.284c-0.007-0.101,0.338-0.226,0.331-0.326s-0.133-0.19-0.147-0.288
				c-0.011-0.097-0.011-0.197-0.021-0.302c-0.011-0.093,0.004-0.201-0.011-0.302c-0.011-0.09-0.133-0.172-0.184-0.266
				c-0.047-0.083-0.169-0.111-0.229-0.187c-0.064-0.079-0.051-0.223-0.115-0.288c-0.075-0.072-0.14-0.147-0.201-0.215
				c-0.072-0.079-0.306-0.021-0.359-0.097c-0.064-0.086,0.173-0.345,0.133-0.428c-0.047-0.093-0.359-0.083-0.377-0.176
				c-0.021-0.094-0.072-0.227-0.068-0.327c0.004-0.097,0.197-0.187,0.227-0.288c0.021-0.09,0.201-0.122,0.237-0.223
				c0.035-0.086-0.184-0.28-0.137-0.374c0.036-0.079,0.18-0.126,0.172-0.223c-0.007-0.086,0.051-0.194,0.04-0.28
				c-0.011-0.093-0.266-0.172-0.263-0.258c0.004-0.101,0.098-0.205,0.122-0.302c0.021-0.097,0.134-0.093,0.151-0.19
				c0.097,0.047,0.176,0.015,0.287,0.054c0.137,0.054,0.316,0.072,0.346,0.165c0.028,0.079,0.086,0.166,0.107,0.251
				c0.018,0.086-0.054,0.194-0.043,0.28c0.014,0.086,0.216,0.155,0.223,0.241c0.015,0.086-0.058,0.19-0.047,0.277
				s0.064,0.273,0.075,0.359C39.028,24.889,38.945,24.885,38.866,24.903z"/>
		</g>
		<g>
			<path d="M42.747,31.224c-0.107-0.043-0.255-0.219-0.323-0.24c-0.183-0.064-0.381,0-0.388-0.025
				c-0.015-0.086,0.137-0.212,0.118-0.298c-0.018-0.087-0.233-0.134-0.251-0.22c-0.019-0.086,0.007-0.18-0.011-0.266
				c-0.021-0.086,0.15-0.216,0.136-0.302c-0.021-0.087-0.064-0.122-0.086-0.209c0.079-0.007,0.133,0.008,0.23,0
				c0.144-0.014,0.201-0.079,0.208-0.064c0.021,0.101,0.032,0.198,0.051,0.302c0.021,0.101,0.262,0.165,0.28,0.273
				c0.014,0.094-0.245,0.237-0.23,0.345c0.015,0.094-0.028,0.205-0.015,0.313C42.475,30.93,42.733,31.112,42.747,31.224z"/>
		</g>
		<g>
			<path d="M38.151,16.456c-0.101,0.093-0.345,0.075-0.42,0.144c-0.098,0.093-0.122,0.331-0.201,0.399
				c-0.043-0.076-0.122-0.233-0.166-0.313c-0.043-0.076-0.176-0.108-0.223-0.187c-0.043-0.079,0.068-0.241,0.032-0.32
				c-0.039-0.083-0.244-0.104-0.27-0.19c-0.021-0.058,0.224-0.158,0.324-0.251c0.071-0.072,0.14-0.334,0.201-0.399
				c0.05,0.079,0.18,0.248,0.237,0.327c0.05,0.075-0.058,0.262,0,0.341c0.05,0.075,0.118,0.14,0.172,0.227
				C37.886,16.305,38.098,16.369,38.151,16.456z"/>
		</g>
		<g>
			<path d="M37.667,20.695c-0.025-0.093,0.05-0.201,0.021-0.294c-0.021-0.093-0.248-0.133-0.273-0.23
				c-0.021-0.093-0.032-0.187-0.058-0.28c-0.021-0.093-0.061-0.244-0.086-0.338c0.071-0.014,0.276,0.094,0.366,0.079
				c0.13-0.025,0.323-0.158,0.323-0.147c0.025,0.09-0.007,0.202,0.011,0.292c0.021,0.093,0.133,0.168,0.154,0.262
				c0.019,0.093-0.14,0.219-0.122,0.316c0.021,0.094,0.201,0.241,0.22,0.334c-0.075,0.018-0.276-0.079-0.353-0.061
				C37.796,20.642,37.738,20.681,37.667,20.695z"/>
		</g>
		<g>
			<path d="M16.063,35.708c0,0.076,0.166,0.23,0.094,0.323c-0.047,0.065-0.115,0.173-0.187,0.245
				c-0.065,0.058-0.23,0.032-0.306,0.093c-0.072,0.055-0.266-0.054-0.345,0c-0.076,0.055-0.14,0.115-0.219,0.166
				c-0.079,0.05-0.093,0.212-0.172,0.259c-0.086,0.043-0.094,0.24-0.18,0.28c-0.086,0.043-0.251-0.072-0.331-0.036
				c-0.094,0.036-0.208-0.019-0.295,0.007c-0.101,0.029-0.144,0.259-0.23,0.273c-0.115,0.014-0.266-0.015-0.327-0.047
				c-0.065-0.032-0.155-0.09-0.205-0.147s0.054-0.237,0.007-0.295c-0.05-0.071-0.251-0.035-0.306-0.107
				c-0.054-0.068-0.061-0.173-0.111-0.248c-0.054-0.072-0.187-0.086-0.233-0.161c-0.047-0.076,0.04-0.248-0.011-0.324
				c-0.05-0.071-0.251-0.039-0.302-0.114c-0.047-0.076,0.05-0.248,0-0.324c-0.047-0.064-0.28-0.071-0.324-0.165
				c-0.061-0.126-0.043-0.392-0.014-0.424c0.079-0.072,0.284,0,0.359-0.072c0.072-0.071,0.137-0.157,0.208-0.229
				c0.075-0.072,0.147-0.147,0.223-0.216c0.072-0.071,0.151-0.137,0.23-0.201c0.076-0.064,0.158-0.122,0.237-0.187
				c0.083-0.064,0.036-0.316,0.122-0.367c0.086-0.057,0.313,0.126,0.402,0.079c0.072-0.035,0.065,0.036,0.187,0.09
				c0.086,0.036,0.323-0.183,0.417-0.118c0.086,0.054,0.104,0.229,0.187,0.295c0.09,0.064,0.27,0.018,0.345,0.079
				c0.079,0.064-0.036,0.352,0.043,0.424c0.072,0.071,0.259,0.032,0.331,0.107c0.072,0.072,0.215,0.094,0.28,0.173
				c0.072,0.079,0.158,0.144,0.223,0.223c0.068,0.079-0.101,0.366-0.032,0.445C15.927,35.594,16.028,35.64,16.063,35.708z"/>
		</g>
		<g>
			<path d="M9.445,30.8c0.086-0.021,0.007-0.327,0.093-0.345c0.086-0.021,0.251,0.309,0.338,0.291s0.147-0.126,0.233-0.147
				c0.086-0.018,0.133-0.216,0.219-0.229c0.086-0.022,0.205,0.133,0.291,0.118c0.126-0.018,0.245-0.004,0.313,0.086
				c0.064,0.087,0.215,0.299,0.158,0.399c-0.054,0.093-0.23,0.118-0.316,0.208c-0.072,0.075-0.029,0.165-0.115,0.259
				c0.094,0.051,0.05,0.137,0.137,0.19c0.09,0.054,0.151,0.151,0.237,0.205c0.086,0.05,0.294-0.101,0.384-0.043
				c0.086,0.05,0.104,0.068,0.198,0.122c0.057-0.051,0.093,0.036,0.172-0.025c0.058-0.047,0.251,0.058,0.323-0.004
				c0.061-0.05,0.115-0.111,0.194-0.172c0.057-0.051,0.021-0.205,0.093-0.267c0,0.104,0.166,0.19,0.166,0.288
				c0,0.107-0.173,0.208-0.173,0.306c0,0.104-0.093,0.204-0.093,0.305s0.208,0.201,0.208,0.302c0,0.104-0.007,0.205-0.007,0.302
				c0,0.101,0.018,0.202,0.018,0.306c0,0.101-0.172,0.141-0.172,0.241c-0.097,0.014-0.111,0.18-0.205,0.193
				c-0.101,0.011-0.208-0.035-0.302-0.028c-0.101,0.007-0.216,0.101-0.309,0.094c-0.101-0.008-0.158-0.205-0.244-0.245
				c-0.079-0.043-0.28,0.025-0.345-0.054c-0.054-0.068,0.043-0.251,0-0.352c-0.029-0.079-0.248-0.126-0.273-0.227
				c-0.007-0.062,0-0.051-0.144-0.094c-0.094-0.032-0.162-0.244-0.27-0.259c-0.119-0.014-0.255,0.008-0.345,0.025
				c-0.104,0.021-0.19,0.036-0.276,0.043c-0.108,0.011-0.18,0.004-0.259-0.018c-0.101-0.029-0.129-0.058-0.169-0.144
				c-0.032-0.072-0.277-0.145-0.27-0.259c0-0.079,0.288-0.151,0.305-0.252c0.018-0.101,0.09-0.197,0.112-0.295
				c0.014-0.101-0.273-0.244-0.259-0.349c0.014-0.104,0.165-0.183,0.18-0.28C9.287,30.879,9.43,30.894,9.445,30.8z"/>
		</g>
		<g>
			<path d="M8.69,28.41c-0.068,0.064,0.022,0.198-0.036,0.263c-0.072,0.068-0.23,0.043-0.291,0.107
				c-0.061,0.072-0.076,0.188-0.133,0.252c-0.068,0.071-0.28-0.011-0.345,0.05c-0.072,0.072,0.079,0.402,0.007,0.446
				c-0.083,0.061-0.273-0.237-0.352-0.237c-0.086,0-0.129,0.071-0.219,0.021c-0.076-0.047-0.259,0.036-0.334-0.032
				c-0.064-0.062-0.011-0.248-0.079-0.32c-0.064-0.068-0.125-0.14-0.194-0.208c-0.064-0.072-0.294-0.09-0.363-0.151
				c0.079-0.058,0.273-0.093,0.352-0.158c0.079-0.061,0.075-0.226,0.151-0.291c0.076-0.061,0.248-0.011,0.327-0.068
				c0.086-0.058,0.187-0.064,0.273-0.114c0.086-0.051,0.086-0.31,0.183-0.342c0.076-0.025,0.313,0.011,0.428,0.086
				c0.079,0.05,0.101,0.223,0.194,0.291c0.079,0.062,0.05,0.288,0.137,0.353C8.489,28.414,8.6,28.35,8.69,28.41z"/>
		</g>
		<g>
			<path d="M7.842,30.096c0.043-0.094,0.172-0.216,0.215-0.302c0.05-0.098,0.201-0.137,0.251-0.216
				c0.054-0.101,0.119-0.165,0.173-0.24c0.072-0.09,0.007-0.306,0.079-0.356c0.093-0.071,0.258-0.007,0.352-0.021
				c0.093-0.015,0.212-0.058,0.313-0.007c0.079,0.039,0.025,0.259,0.111,0.345c0.065,0.062,0.424,0.036,0.496,0.126
				c-0.086,0.054-0.446-0.072-0.528-0.019c-0.086,0.051-0.126,0.18-0.205,0.237c-0.086,0.051-0.079,0.259-0.158,0.313
				c-0.086,0.055-0.259-0.039-0.345,0.011c-0.086,0.051-0.169,0.101-0.255,0.155c-0.083,0.054-0.151,0.27-0.234,0.319
				C8.051,30.361,7.893,30.182,7.842,30.096z"/>
		</g>
	</g>
</g>
</svg>
