<?xml version="1.0" encoding="utf-8"?>
<!-- Generator: Adobe Illustrator 16.0.0, SVG Export Plug-In . SVG Version: 6.00 Build 0)  -->
<!DOCTYPE svg PUBLIC "-//W3C//DTD SVG 1.1//EN" "http://www.w3.org/Graphics/SVG/1.1/DTD/svg11.dtd">
<svg version="1.1" id="圖層_1" xmlns="http://www.w3.org/2000/svg" xmlns:xlink="http://www.w3.org/1999/xlink" x="0px" y="0px"
	 width="55px" height="55px" viewBox="0 0 55 55" enable-background="new 0 0 55 55" xml:space="preserve">
<g>
	<path fill="#FFFFFF" d="M8.42,31.925c3.744,2.185,7.722,2.534,11.65,2.688c3.938,0.152,7.956,0.378,11.776-1.34
		c-0.135,4.073-2.068,7.73-5.762,8.792c-1.843,0.53-3.627,1.007-5.605,0.701c-1.829-0.288-3.712-0.162-5.564-0.314
		c-2.567-0.226-4.481-1.547-5.713-3.78c-0.279-0.508-0.198-1.205-0.292-1.812c-0.157-1.052-0.355-2.104-0.481-3.154
		C8.366,33.192,8.42,32.675,8.42,31.925z"/>
	<path fill="#FFFFFF" d="M18.506,28.559c3.533-0.176,7.04,0.277,10.5,1.218c0.643,0.179,1.295,0.386,1.889,0.683
		c0.575,0.297,1.541,0.71,1.068,1.402c-0.377,0.548-1.41,0.688-2.185,0.895c-0.255,0.067-0.615-0.229-0.916-0.382
		c-2.472-1.241-5.08-1.649-7.843-1.659c-3.232-0.013-6.36,0.383-9.453,1.295c-0.688,0.202-2.216-0.427-2.589-1.03
		c-0.324-0.521,0.135-1.168,0.989-1.42C12.735,28.756,15.549,28.274,18.506,28.559z"/>
	<path fill="#E5BF61" d="M28.053,33.224c-5.025,0.696-10.005,0.634-14.922-0.679C18.156,31.646,23.162,31.119,28.053,33.224z"/>
	<path fill="#FFFFFF" d="M22.471,44.218c-0.823,0.107-1.65,0.211-2.562,0.327C20.372,43.529,20.421,43.521,22.471,44.218z"/>
	<path fill="#FFFFFF" d="M17.49,44.465c-0.616-0.161-1.231-0.329-1.852-0.485c0.041-0.162,0.082-0.319,0.117-0.477
		c0.629,0.117,1.259,0.242,1.892,0.359C17.598,44.068,17.544,44.268,17.49,44.465z"/>
	<path fill="#657718" d="M45.759,52.114c-2.604,0.575-5.058,0.266-7.408-0.953c-1.627-0.845-3.043-1.918-3.906-3.577
		c-0.247-0.485-0.463-1.025-0.53-1.555c-0.135-1.106,0.197-1.34,1.461-1.106c-0.409,1.097,0.27,1.556,1.164,1.83
		c0.854,0.265,1.735,0.463,2.589,0.732c1.663,0.512,2.818,1.623,3.641,3.142c0.158,0.283,0.599,0.409,0.912,0.606
		c-0.049-0.354-0.008-0.755-0.166-1.061c-1.195-2.225-3.056-3.528-5.563-3.92c-0.334-0.049-0.656-0.171-0.972-0.287
		c-0.125-0.045-0.233-0.171-0.342-0.261c0.773-1.285,3.191-1.362,4.288-0.175c0.247,0.265,0.513,0.575,0.837,0.715
		c2.014,0.854,2.822,2.472,3.092,4.535C44.899,51.207,45.385,51.584,45.759,52.114z"/>
	<path fill="#72935C" d="M49.03,37.3c0.962-0.392,1.919-0.786,2.881-1.177c0.108,0.089,0.207,0.171,0.306,0.256
		c-0.423,0.688-0.804,1.416-1.294,2.059c-0.49,0.647-0.989,1.38-1.668,1.775c-1.33,0.782-2.733,1.663-4.203,1.924
		c-1.465,0.252-3.02,0.216-4.615-0.297c-1.263-0.404-2.841,0.152-4.275,0.306c-0.584,0.063-1.159,0.171-1.734,0.261
		c-0.081-0.121-0.171-0.238-0.261-0.354c0.656-0.715,1.231-1.521,1.978-2.117c2.832-2.257,6.167-2.607,9.646-2.446
		C46.859,37.533,47.946,37.367,49.03,37.3c-0.086,0.729-0.432,1.007-1.209,0.962c-0.594-0.031-1.2,0.202-1.798,0.342
		c-0.531,0.126-1.052,0.342-1.592,0.418c-2.14,0.306-4.278,0.553-6.418,0.877c-0.378,0.058-0.71,0.373-1.065,0.565
		c0.041,0.126,0.081,0.252,0.121,0.378c1.421-0.216,2.85-0.467,4.279-0.643c1.479-0.176,2.976-0.229,4.449-0.44
		c1.461-0.212,2.94-0.418,4.4-1.461C49.718,37.885,49.372,37.592,49.03,37.3z"/>
	<path fill="#657718" d="M14.011,19.784c-0.126-0.328-0.341-0.611-0.31-0.858c0.126-1.061,0.315-2.113,0.49-3.169
		c0.027-0.175,0.171-0.346,0.167-0.512c-0.14-3.169,1.105-5.83,3.168-8.113c0.562-0.62,1.528-0.863,2.238-1.375
		c0.998-0.71,1.924-1.51,2.881-2.27c0.148-0.117,0.292-0.229,0.422-0.333c0.108,0.04,0.233,0.076,0.229,0.094
		c-0.188,1.771,1.385,3.394,0.351,5.294c-0.368,0.693-0.27,1.686-0.229,2.536c0.058,1.321-0.328,2.4-1.362,3.236
		c-0.166,0.144-0.324,0.323-0.431,0.512c-1.097,1.896-2.949,2.611-4.899,3.281C15.782,18.44,14.973,19.173,14.011,19.784z
		 M15.647,17.37c0.22-0.292,0.485-0.566,0.656-0.89c0.396-0.755,0.679-1.587,1.151-2.292c0.485-0.737,1.245-1.295,1.703-2.041
		c1.021-1.664,1.856-3.438,2.899-5.088c0.489-0.786,0.198-1.024-0.575-1.412C21.221,6.268,20.978,6.83,20.745,7.4
		c-0.234,0.584-0.351,1.241-0.706,1.744c-1.007,1.434-2.063,2.841-3.187,4.189C15.873,14.489,15.481,15.792,15.647,17.37z"/>
	<path fill="#72935C" d="M3.628,6.672c0.782,0.315,1.636,0.504,2.311,0.953c2.067,1.393,3.919,2.994,4.724,5.511
		c0.284,0.894,0.796,1.717,1.138,2.598c0.288,0.737,0.431,1.519,0.728,2.243c0.62,1.501,1.299,2.98,1.856,4.238
		c-1.82-0.787-4.067-1.434-5.946-2.647c-2.059-1.326-3.191-3.573-3.704-5.969C4.231,11.267,3.97,8.889,3.628,6.672z M11.045,19.42
		c0.125-0.09,0.256-0.189,0.386-0.274c-0.153-0.296-0.278-0.598-0.449-0.881c-0.647-1.07-1.394-2.09-1.941-3.205
		c-0.427-0.863-0.553-1.87-0.936-2.755c-0.449-1.016-1.016-1.982-1.578-2.944C6.442,9.212,6.105,9.208,5.885,9.136
		C5.84,9.338,5.696,9.576,5.759,9.738c0.27,0.706,0.584,1.385,0.89,2.068c0.418,0.944,1.07,1.852,1.214,2.832
		c0.193,1.375,0.921,2.374,1.694,3.38C9.966,18.548,10.541,18.953,11.045,19.42z"/>
	<g>
		<g>
			<path d="M18.627,27.362c0.122,0.014,0.225,0.198,0.346,0.211c0.125,0.018,0.288-0.279,0.409-0.265s0.22,0.22,0.342,0.238
				c0.121,0.018,0.256-0.036,0.373-0.022c0.126,0.018,0.247,0.022,0.373,0.04c0.122,0.018,0.265-0.089,0.382-0.071
				c0.126,0.018,0.216,0.27,0.333,0.288c0.126,0.018,0.266-0.108,0.392-0.095c0.13,0.014,0.229,0.14,0.355,0.148
				c0.116,0.022,0.242,0.022,0.368,0.036c0.121,0.018,0.234,0.126,0.354,0.139c0.122,0.023,0.274-0.193,0.401-0.175
				c0.121,0.022,0.229,0.148,0.35,0.162c0.122,0.013,0.248-0.004,0.369,0.008c0.125,0.014,0.242,0.055,0.369,0.067
				c0.121,0.014,0.255-0.089,0.377-0.076c0.125,0.013,0.215,0.279,0.342,0.296c0.116,0.014,0.27-0.211,0.391-0.197
				c0.122,0.013,0.243,0.054,0.364,0.063c0.126,0.01,0.261-0.099,0.377-0.09c0.126,0.009,0.243,0.081,0.365,0.09
				c0.121,0.01,0.233,0.198,0.354,0.207c0.126,0,0.243,0.05,0.368,0.055c0.118,0.008,0.216,0.152,0.333,0.161
				c0.116,0.018,0.278-0.333,0.395-0.314c0.118,0.021,0.224,0.144,0.333,0.166c0.117,0.023,0.233,0.041,0.351,0.067
				c0.117,0.031,0.261-0.026,0.373,0c0.113,0.036,0.131,0.382,0.238,0.423c0.117,0.036,0.342-0.262,0.45-0.226
				c0.116,0.046,0.135,0.334,0.242,0.373c0.108,0.041,0.207,0.117,0.315,0.167c0.106,0.045,0.332-0.175,0.44-0.131
				c0.106,0.05,0.135,0.279,0.242,0.324c0.107,0.049,0.126,0.287,0.234,0.337c0.107,0.05,0.386-0.274,0.493-0.225
				c0.108,0.045,0.135,0.274,0.234,0.319c0.107,0.05,0.153,0.247,0.261,0.292s0.251,0.022,0.354,0.072
				c0.099,0.04,0.202,0.09,0.293,0.197c0.072,0.09,0.359,0.081,0.422,0.198c0.055,0.107-0.279,0.395-0.233,0.517
				c0.04,0.121,0.207,0.193,0.226,0.315c0.017,0.135-0.127,0.22-0.153,0.327c-0.022,0.117,0.153,0.27,0.125,0.387
				c-0.018,0.116-0.008,0.242-0.036,0.359c-0.021,0.117-0.031,0.238-0.054,0.355c-0.026,0.116-0.125,0.215-0.153,0.332
				c-0.021,0.117,0.028,0.248,0,0.364c-0.021,0.117-0.021,0.243-0.049,0.36c-0.021,0.116-0.238,0.188-0.256,0.306
				c-0.027,0.116,0.009,0.242-0.022,0.363c-0.027,0.117-0.095,0.221-0.126,0.337c-0.026,0.117-0.059,0.229-0.086,0.347
				c-0.026,0.117,0.06,0.256,0.027,0.373c-0.027,0.117-0.261,0.18-0.287,0.296c-0.027,0.117,0.026,0.252,0,0.369
				c-0.036,0.117-0.036,0.242-0.063,0.355c-0.035,0.117,0,0.247-0.035,0.359c-0.036,0.112-0.162,0.202-0.198,0.314
				s-0.014,0.242-0.055,0.364c-0.035,0.107-0.08,0.225-0.116,0.333c-0.036,0.116-0.157,0.197-0.198,0.31
				c-0.044,0.112-0.161,0.193-0.202,0.306c-0.04,0.112,0.243,0.364,0.194,0.472c-0.055,0.108-0.207,0.171-0.262,0.279
				c-0.059,0.107,0.009,0.287-0.054,0.396c-0.063,0.099-0.301,0.099-0.368,0.197s0.04,0.333-0.036,0.432
				c-0.072,0.09-0.229,0.135-0.306,0.225c-0.081,0.09-0.278,0.072-0.368,0.162c-0.086,0.081,0.013,0.377-0.077,0.454
				c-0.086,0.081-0.382-0.067-0.472,0.009c-0.095,0.077-0.144,0.207-0.242,0.274c-0.1,0.072-0.226,0.108-0.324,0.171
				c-0.099,0.067-0.054,0.378-0.162,0.436c-0.099,0.063-0.395-0.216-0.503-0.157c-0.108,0.054-0.059,0.422-0.171,0.477
				c-0.108,0.054-0.396-0.288-0.503-0.238c-0.118,0.049-0.091,0.427-0.199,0.472c-0.116,0.045-0.342-0.242-0.458-0.206
				c-0.117,0.04-0.13,0.391-0.248,0.431c-0.112,0.027-0.292-0.148-0.399-0.107c-0.108,0.035-0.108,0.341-0.207,0.391
				c-0.108,0.05-0.301-0.09-0.4-0.031c-0.099,0.059-0.104,0.238-0.194,0.315c-0.08,0.067-0.202,0.099-0.279,0.184
				c-0.071,0.086,0,0.265-0.063,0.363c-0.063,0.091-0.332,0.05-0.386,0.158c-0.063,0.116-0.216,0.157-0.288,0.256
				c-0.081,0.099-0.067,0.27-0.162,0.351c-0.099,0.081-0.252,0.05-0.364,0.117c-0.108,0.059-0.113,0.377-0.239,0.413
				c-0.116,0.041-0.305-0.18-0.436-0.157c-0.121,0.022-0.247-0.04-0.382-0.031c-0.121,0.009-0.238,0.026-0.368,0.026
				c-0.117,0-0.229,0.046-0.35,0.046c-0.117-0.01-0.243,0.26-0.36,0.256c-0.121-0.014-0.243,0.045-0.359,0.036
				c-0.117-0.009-0.199-0.473-0.315-0.481c-0.117-0.009-0.248,0.148-0.364,0.14c-0.122-0.009-0.247,0.126-0.355,0.122
				c-0.117-0.005-0.233-0.1-0.351-0.104c-0.117,0-0.229,0.13-0.346,0.13c-0.117,0-0.251-0.283-0.364-0.274
				c-0.117,0.01-0.193,0.383-0.31,0.392c-0.117,0.018-0.247-0.081-0.355-0.055c-0.117,0.022-0.216,0.063-0.333,0.104
				c-0.108,0.031-0.162,0.193-0.27,0.243c-0.108,0.04-0.315-0.145-0.423-0.086c-0.099,0.05-0.188,0.198-0.314,0.211
				c-0.108,0.015-0.248-0.018-0.368-0.035c-0.113-0.018-0.229-0.076-0.346-0.112c-0.113-0.036-0.284,0.027-0.391-0.027
				c-0.108-0.049-0.14-0.251-0.238-0.323c-0.099-0.063-0.328,0.026-0.422-0.05c-0.095-0.076-0.095-0.274-0.175-0.359
				c-0.081-0.09-0.009-0.293-0.077-0.392c-0.072-0.099-0.256-0.121-0.306-0.229c-0.05-0.116,0.108-0.354,0.049-0.458
				c-0.067-0.113-0.472,0.021-0.548-0.067c-0.09-0.091-0.126-0.189-0.216-0.267c-0.099-0.075-0.225-0.058-0.333-0.116
				s-0.153-0.189-0.274-0.229c-0.113-0.045-0.131-0.409-0.256-0.436c-0.117-0.032-0.351,0.351-0.468,0.319
				c-0.117-0.036-0.135-0.383-0.247-0.419c-0.117-0.04-0.283,0.077-0.391,0.032c-0.117-0.041-0.234-0.072-0.351-0.121
				c-0.112-0.05-0.288,0.031-0.395-0.023c-0.108-0.054-0.153-0.251-0.261-0.31c-0.108-0.059-0.18-0.175-0.279-0.238
				c-0.107-0.067-0.292-0.004-0.391-0.076c-0.099-0.067-0.099-0.283-0.193-0.355c-0.09-0.077-0.121-0.225-0.207-0.306
				c-0.09-0.08-0.297-0.036-0.377-0.121c-0.085-0.086-0.203-0.148-0.288-0.233c-0.081-0.091,0.054-0.355-0.022-0.454
				c-0.077-0.09-0.248-0.108-0.319-0.202c-0.072-0.099-0.355-0.059-0.414-0.158c-0.067-0.107,0.099-0.346,0.041-0.453
				c-0.059-0.104-0.266-0.135-0.319-0.243c-0.054-0.107-0.153-0.202-0.202-0.314c-0.05-0.108-0.13-0.217-0.176-0.328
				c-0.04-0.112,0-0.261-0.04-0.378c-0.041-0.107,0.175-0.301,0.148-0.418c-0.036-0.121-0.216-0.188-0.247-0.311
				c-0.027-0.116-0.14-0.215-0.167-0.337c-0.018-0.116,0.144-0.273,0.126-0.391c-0.018-0.117,0.05-0.247,0.032-0.364
				c-0.014-0.116-0.256-0.212-0.265-0.332c-0.018-0.118-0.059-0.229-0.072-0.347c-0.014-0.116-0.081-0.225-0.095-0.342
				c-0.014-0.116,0.248-0.274,0.234-0.391c-0.013-0.117-0.059-0.229-0.077-0.346c-0.009-0.117-0.233-0.207-0.247-0.324
				c-0.013-0.116,0.014-0.243-0.004-0.359c-0.014-0.117-0.041-0.233-0.054-0.351c-0.009-0.116,0.225-0.248,0.216-0.364
				c-0.009-0.117-0.216-0.225-0.225-0.342c0-0.117-0.167-0.237-0.162-0.355c0-0.116-0.022-0.246-0.013-0.363
				s0.059-0.238,0.067-0.355c0.018-0.116,0.198-0.215,0.216-0.332c0.022-0.117,0.126-0.212,0.153-0.328
				c0.022-0.112-0.018-0.247,0.014-0.355c0.031-0.116-0.005-0.256,0.031-0.359c0.045-0.107,0.099-0.216,0.148-0.324
				c0.049-0.107,0.359-0.058,0.418-0.152c0.063-0.099-0.05-0.301,0.027-0.387c0.072-0.09,0.018-0.306,0.104-0.387
				c0.076-0.08,0.274-0.044,0.368-0.116c0.09-0.072,0.274,0.009,0.373-0.055c0.1-0.054,0.072-0.342,0.18-0.391
				c0.104-0.05,0.296,0.116,0.409,0.077c0.112-0.046,0.265,0.026,0.382-0.019c0.117-0.036,0.108-0.454,0.216-0.489
				c0.117-0.041,0.27,0.026,0.382-0.005c0.117-0.036,0.202-0.189,0.319-0.216c0.117-0.036,0.314,0.242,0.431,0.216
				c0.117-0.027,0.243-0.01,0.364-0.036c0.122-0.027,0.167-0.377,0.283-0.405c0.117-0.027,0.279,0.139,0.396,0.122
				c0.117-0.023,0.225-0.148,0.342-0.171c0.117-0.018,0.225-0.148,0.341-0.167c0.122-0.018,0.238-0.049,0.36-0.063
				s0.27,0.221,0.396,0.207c0.122-0.013,0.234-0.085,0.355-0.099c0.122-0.013,0.247,0.067,0.373,0.054
				c0.117-0.009,0.225-0.171,0.351-0.18c0.117-0.009,0.243,0,0.364-0.009c0.121-0.009,0.243,0.063,0.364,0.054
				c0.125,0,0.242-0.099,0.359-0.099c0.125,0,0.247,0.072,0.369,0.067c0.121-0.004,0.238-0.139,0.359-0.139
				c0.125,0,0.243,0.126,0.369,0.126c0.117,0,0.243,0.153,0.364,0.153c0.121,0,0.243-0.05,0.364-0.05c0.126,0,0.243,0.05,0.369,0.05
				c0.122,0,0.306-0.09,0.422-0.09C18.668,27.627,18.619,27.447,18.627,27.362z M8.411,31.92c0,0.126-0.166,0.247-0.166,0.354
				c0,0.127,0.31,0.252,0.31,0.36c-0.009,0.125-0.198,0.242-0.198,0.354c0,0.122,0.072,0.238,0.072,0.351
				c0.009,0.122,0.027,0.229,0.041,0.347c0.014,0.117,0.148,0.216,0.166,0.332c0.018,0.117-0.197,0.27-0.179,0.387
				s0.179,0.212,0.197,0.328c0.018,0.117-0.067,0.247-0.049,0.364c0.023,0.116,0.059,0.233,0.077,0.351s-0.054,0.247-0.036,0.364
				c0.018,0.116,0.261,0.193,0.278,0.311c0.018,0.121-0.071,0.256-0.053,0.373c0.018,0.116,0.071,0.229,0.089,0.345
				c0.018,0.127,0.009,0.252,0.018,0.378c0.009,0.122,0.135,0.238,0.144,0.36c0.009,0.125-0.234,0.27-0.22,0.395
				c0.014,0.127,0.265,0.198,0.292,0.315c0.035,0.125,0.04,0.225,0.099,0.332c0.054,0.108,0.225,0.14,0.283,0.238
				c0.059,0.104,0.068,0.229,0.13,0.333c0.068,0.1-0.013,0.292,0.059,0.391c0.067,0.099,0.117,0.217,0.193,0.306
				c0.072,0.095,0.05,0.279,0.126,0.369c0.081,0.09,0.432-0.072,0.512,0.014c0.085,0.085,0.099,0.238,0.18,0.318
				c0.089,0.081,0.179,0.148,0.27,0.226c0.099,0.071,0.243,0.071,0.333,0.139c0.099,0.067,0.009,0.4,0.108,0.472
				c0.099,0.063,0.386-0.175,0.485-0.117c0.104,0.064,0.072,0.352,0.18,0.405s0.207,0.139,0.315,0.188
				c0.107,0.046,0.324-0.175,0.44-0.135c0.107,0.046,0.148,0.27,0.26,0.306c0.113,0.036,0.171,0.274,0.288,0.306
				c0.108,0.036,0.324-0.337,0.44-0.311c0.122,0.022,0.189,0.238,0.314,0.257c0.117,0.018,0.207,0.198,0.333,0.207
				c0.117,0.018,0.247-0.045,0.368-0.036c0.122,0.009,0.252-0.009,0.378-0.004c0.117,0.008,0.261-0.234,0.382-0.226
				c0.121,0.005,0.229,0.432,0.351,0.437c0.122,0.004,0.256-0.131,0.382-0.131c0.121,0.005,0.242,0.157,0.368,0.166
				c0.122,0,0.252-0.197,0.378-0.197c0.117,0.009,0.247-0.027,0.368-0.018c0.122,0,0.248-0.015,0.369-0.01
				c0.126,0.01,0.243,0.09,0.369,0.095c0.125,0.004,0.256-0.067,0.378-0.059c0.125,0,0.251-0.018,0.377-0.009
				c0.117,0.009,0.233,0.206,0.355,0.216c0.122,0.009,0.247-0.041,0.373-0.031c0.125,0.013,0.243,0.076,0.359,0.089
				c0.126,0.015,0.247,0.032,0.369,0.05c0.117,0.018,0.251-0.076,0.368-0.063c0.118,0.013,0.225,0.233,0.342,0.242
				c0.116,0.009,0.251-0.08,0.369-0.071c0.116,0,0.243-0.031,0.359-0.036c0.117,0,0.243-0.072,0.36-0.081
				c0.116-0.009,0.247,0.077,0.364,0.067c0.117-0.009,0.233-0.085,0.351-0.099c0.116-0.014,0.238-0.022,0.354-0.041
				c0.117-0.018,0.252,0.041,0.37,0.022c0.116-0.022,0.251,0.041,0.368,0.009c0.116-0.021,0.152-0.399,0.27-0.426
				c0.117-0.027,0.261,0.053,0.373,0.026c0.113-0.026,0.193-0.197,0.306-0.225c0.113-0.032,0.284,0.126,0.392,0.099
				c0.116-0.031,0.17-0.273,0.282-0.305c0.113-0.036,0.257,0.017,0.373-0.01c0.118-0.036,0.279,0.077,0.392,0.036
				c0.116-0.036,0.125-0.342,0.238-0.382c0.112-0.046,0.342,0.188,0.45,0.139c0.116-0.054,0.193-0.171,0.296-0.224
				c0.108-0.06,0.233-0.082,0.337-0.145s0.05-0.364,0.157-0.432c0.098-0.063,0.422,0.18,0.512,0.107
				c0.099-0.072-0.022-0.422,0.072-0.503c0.094-0.072,0.463,0.166,0.553,0.086c0.09-0.077-0.076-0.428,0.014-0.518
				c0.085-0.081,0.422,0.067,0.508-0.019c0.076-0.089-0.09-0.404-0.014-0.493c0.072-0.096,0.324-0.055,0.396-0.153
				c0.07-0.099-0.091-0.359-0.023-0.458s0.311-0.081,0.373-0.189c0.067-0.099,0-0.279,0.063-0.383
				c0.064-0.103,0.163-0.184,0.221-0.291c0.059-0.108-0.05-0.288,0.005-0.396c0.054-0.104,0.328-0.108,0.378-0.226
				c0.044-0.107,0.188-0.184,0.238-0.296c0.04-0.112-0.032-0.27,0.004-0.387c0.036-0.108,0.18-0.198,0.22-0.315
				c0.032-0.116-0.211-0.313-0.184-0.431c0.035-0.116,0.314-0.166,0.342-0.283c0.026-0.117,0.135-0.225,0.152-0.342
				c0.026-0.121,0.036-0.247,0.054-0.364c0.019-0.116-0.009-0.252,0.009-0.373c0.019-0.121-0.238-0.274-0.224-0.391
				c0.018-0.126-0.036-0.242-0.027-0.364c0.009-0.121,0.477-0.207,0.485-0.328c0.009-0.122-0.188-0.31-0.18-0.432
				c-0.117,0.055-0.226,0.221-0.342,0.271c-0.107,0.044-0.252,0.008-0.369,0.049c-0.111,0.04-0.179,0.207-0.296,0.247
				c-0.108,0.046-0.323-0.197-0.432-0.157c-0.117,0.035-0.125,0.418-0.233,0.449c-0.117,0.041-0.27-0.049-0.387-0.013
				c-0.117,0.031-0.229,0.072-0.352,0.107c-0.116,0.027-0.202,0.188-0.322,0.22c-0.118,0.027-0.293-0.202-0.409-0.18
				c-0.117,0.023-0.212,0.176-0.333,0.194c-0.117,0.021-0.247,0.018-0.364,0.044c-0.116,0.019-0.243,0.009-0.359,0.027
				c-0.122,0.018-0.225,0.157-0.341,0.171c-0.122,0.018-0.262-0.131-0.378-0.117c-0.125,0.014-0.225,0.229-0.341,0.243
				c-0.126,0.009-0.257-0.122-0.378-0.108c-0.121,0.01-0.252-0.166-0.377-0.157c-0.117,0.009-0.225,0.167-0.351,0.175
				c-0.121,0-0.251-0.242-0.368-0.233c-0.121,0-0.229,0.414-0.346,0.414c-0.121,0.004-0.247-0.036-0.364-0.032
				c-0.126,0.005-0.248,0.091-0.369,0.091c-0.122,0-0.243-0.1-0.368-0.1c-0.118,0-0.235-0.346-0.36-0.346
				c-0.116-0.009-0.248,0.422-0.368,0.422c-0.121,0-0.234-0.322-0.359-0.322c-0.117-0.01-0.243,0.156-0.36,0.152
				c-0.126-0.005-0.248,0.009-0.369,0.009c-0.122-0.005-0.252,0.135-0.368,0.135c-0.126,0-0.234-0.161-0.36-0.166
				c-0.121-0.005-0.238-0.072-0.359-0.077c-0.122-0.004-0.252,0.145-0.369,0.145c-0.125-0.01-0.233-0.189-0.359-0.189
				c-0.122-0.008-0.238-0.107-0.36-0.116c-0.121,0-0.251,0.157-0.377,0.152c-0.117-0.005-0.243,0.031-0.369,0.023
				c-0.121-0.005-0.229-0.293-0.35-0.293c-0.122-0.009-0.252,0.117-0.369,0.107c-0.125-0.009-0.265,0.243-0.386,0.234
				c-0.122-0.01-0.225-0.283-0.346-0.297c-0.121-0.009-0.256,0.145-0.382,0.135c-0.122-0.009-0.248,0.027-0.369,0.018
				c-0.121-0.013-0.251,0.01-0.368,0c-0.126-0.018-0.233-0.116-0.359-0.13c-0.122-0.013-0.207-0.292-0.324-0.311
				c-0.125-0.013-0.265,0.127-0.387,0.104c-0.126-0.018-0.251,0.05-0.377,0.031c-0.122-0.018-0.207-0.225-0.324-0.246
				c-0.126-0.019-0.225-0.132-0.346-0.148c-0.122-0.027-0.283,0.17-0.4,0.148c-0.117-0.023-0.247-0.019-0.369-0.046
				c-0.117-0.031-0.247-0.004-0.369-0.031c-0.117-0.031-0.17-0.332-0.288-0.363c-0.117-0.031-0.238-0.036-0.355-0.067
				c-0.121-0.036-0.292,0.13-0.409,0.089c-0.117-0.035-0.225-0.107-0.337-0.144c-0.117-0.036-0.238-0.054-0.355-0.099
				c-0.117-0.036-0.152-0.306-0.26-0.347c-0.117-0.04-0.306,0.108-0.414,0.059c-0.117-0.04-0.292,0.063-0.404,0.019
				c-0.113-0.05-0.243-0.072-0.351-0.126c-0.117-0.05-0.215-0.135-0.323-0.185c-0.108-0.049-0.144-0.256-0.252-0.314
				s-0.18-0.185-0.288-0.238c-0.108-0.059-0.251-0.054-0.359-0.108C8.635,32.041,8.519,31.987,8.411,31.92z M18.506,28.559
				c-0.121-0.01-0.225-0.186-0.346-0.194c-0.121-0.009-0.265,0.296-0.382,0.288c-0.121-0.005-0.229-0.202-0.351-0.207
				s-0.242,0.067-0.36,0.067c-0.125,0-0.242,0.01-0.359,0.01c-0.126,0-0.243,0.125-0.36,0.125c-0.121,0.005-0.247-0.229-0.364-0.225
				c-0.121,0.004-0.238,0.157-0.355,0.167c-0.117,0.008-0.243-0.086-0.364-0.077c-0.121,0.01-0.238,0.036-0.355,0.046
				c-0.121,0.013-0.251-0.068-0.368-0.055s-0.216,0.252-0.333,0.265c-0.117,0.019-0.251-0.08-0.368-0.063
				c-0.117,0.019-0.229,0.067-0.351,0.09c-0.117,0.018-0.242,0.018-0.359,0.04c-0.117,0.019-0.207,0.158-0.333,0.185
				c-0.117,0.018-0.283-0.207-0.4-0.18c-0.117,0.022-0.188,0.278-0.306,0.306c-0.117,0.022-0.238,0.022-0.355,0.05
				c-0.117,0.031-0.202,0.18-0.319,0.207c-0.117,0.026-0.248-0.005-0.364,0.021c-0.117,0.027-0.274-0.112-0.391-0.081
				c-0.117,0.036-0.238,0.036-0.355,0.063c-0.117,0.036-0.27-0.063-0.386-0.027c-0.113,0.031-0.09,0.414-0.189,0.459
				c-0.108,0.045-0.234,0.005-0.315,0.063c-0.099,0.067-0.162,0.14-0.233,0.216c-0.081,0.09-0.036,0.198-0.072,0.292
				c-0.045,0.108-0.377,0.148-0.368,0.257c0.009,0.107,0.359,0.09,0.432,0.188c0.053,0.09-0.082,0.332,0.018,0.418
				c0.089,0.077,0.17,0.181,0.278,0.248c0.099,0.067,0.341-0.132,0.454-0.072c0.107,0.054,0.13,0.278,0.238,0.327
				c0.117,0.046,0.171,0.284,0.283,0.32c0.122,0.035,0.337-0.334,0.45-0.311c0.13,0.022,0.207,0.225,0.324,0.229
				c0.139,0.005,0.292,0.145,0.391,0.117c0.122-0.035,0.215-0.144,0.337-0.18c0.117-0.031,0.229-0.099,0.346-0.125
				c0.117-0.032,0.171-0.306,0.296-0.334c0.117-0.031,0.337,0.351,0.458,0.319c0.117-0.026,0.207-0.197,0.324-0.221
				c0.121-0.026,0.27,0.1,0.396,0.072c0.117-0.026,0.198-0.251,0.315-0.274c0.125-0.021,0.233-0.075,0.359-0.104
				c0.122-0.021,0.239-0.058,0.36-0.08c0.122-0.026,0.261,0.036,0.377,0.01c0.117-0.019,0.225-0.117,0.351-0.135
				c0.122-0.019,0.238-0.06,0.359-0.082c0.121-0.019,0.27,0.152,0.387,0.14c0.126-0.014,0.233-0.091,0.359-0.107
				c0.122-0.015,0.247,0.017,0.369,0.004c0.126-0.014,0.243-0.021,0.369-0.036c0.117-0.019,0.234-0.135,0.355-0.153
				c0.122-0.008,0.261,0.189,0.382,0.181c0.126-0.01,0.234-0.113,0.36-0.121c0.117-0.014,0.243-0.05,0.364-0.06
				c0.121-0.003,0.238-0.08,0.364-0.089c0.126,0,0.252,0.089,0.369,0.086c0.125-0.005,0.247-0.068,0.369-0.068
				c0.121-0.009,0.243,0,0.369,0c0.117,0,0.242,0.081,0.369,0.081c0.121,0,0.243,0.081,0.364,0.081c0.121,0,0.247-0.355,0.373-0.355
				c0.117,0,0.243,0.117,0.364,0.122c0.122,0.004,0.257-0.145,0.373-0.131c0.126,0.004,0.234,0.211,0.36,0.221
				c0.121,0.009,0.26-0.207,0.381-0.198c0.122,0.009,0.238,0.112,0.365,0.121c0.116,0.014,0.224,0.185,0.35,0.197
				c0.122,0.015,0.279-0.246,0.406-0.229c0.116,0.014,0.197,0.332,0.323,0.351c0.117,0.018,0.252-0.036,0.373-0.009
				c0.122,0.021,0.234,0.081,0.351,0.107c0.121,0.022,0.301-0.229,0.423-0.202c0.121,0.027,0.157,0.432,0.273,0.458
				c0.117,0.031,0.324-0.282,0.441-0.246c0.117,0.031,0.117,0.477,0.242,0.513c0.117,0.031,0.342-0.279,0.454-0.243
				c0.117,0.041,0.122,0.409,0.234,0.449c0.117,0.045,0.341-0.225,0.463-0.18c0.107,0.041,0.143,0.297,0.251,0.342
				c0.117,0.045,0.342-0.171,0.454-0.122c0.113,0.05,0.135,0.293,0.248,0.347c0.111,0.054,0.287-0.022,0.395,0.026
				c0.09,0.05,0.167,0.162,0.27,0.226c0.1,0.058,0.262-0.046,0.36,0c0.116,0.049,0.152,0.31,0.251,0.283
				c0.108-0.027,0.243,0.049,0.355,0.022c0.108-0.027,0.193-0.171,0.306-0.198c0.113-0.031,0.251,0.049,0.364,0.018
				c0.112-0.031,0.135-0.342,0.242-0.377c0.117-0.036,0.315,0.161,0.414,0.112c0.108-0.05,0.27-0.059,0.359-0.122
				c0.1-0.071,0.207-0.202,0.27-0.296c0.072-0.112,0.095-0.297,0.104-0.396c0.009-0.117-0.273-0.145-0.333-0.243
				c-0.058-0.089-0.139-0.089-0.238-0.161c-0.08-0.072,0.091-0.504-0.009-0.567c-0.099-0.058-0.292,0.027-0.391-0.018
				c-0.108-0.058-0.274,0.018-0.363-0.026c-0.1-0.055-0.163-0.18-0.267-0.229c-0.104-0.045-0.251,0.031-0.354-0.009
				c-0.104-0.041-0.107-0.355-0.216-0.392s-0.323,0.27-0.432,0.238c-0.107-0.031-0.18-0.185-0.288-0.211
				c-0.107-0.036-0.215-0.045-0.322-0.081c-0.118-0.031-0.271,0.063-0.392,0.036c-0.121-0.031-0.167-0.314-0.292-0.342
				c-0.117-0.027-0.27,0.063-0.387,0.036c-0.116-0.027-0.224-0.081-0.351-0.107c-0.116-0.027-0.225-0.082-0.35-0.108
				c-0.117-0.026-0.261,0.067-0.387,0.045c-0.117-0.022-0.202-0.206-0.323-0.234c-0.117-0.026-0.274,0.153-0.396,0.131
				c-0.121-0.022-0.211-0.185-0.333-0.211c-0.122-0.023-0.211-0.226-0.328-0.243c-0.122-0.019-0.266,0.113-0.392,0.095
				c-0.117-0.022-0.207-0.284-0.324-0.302c-0.116-0.017-0.296,0.369-0.413,0.352c-0.126-0.019-0.234-0.072-0.36-0.091
				c-0.121-0.013-0.248,0.06-0.369,0.045c-0.121-0.018-0.229-0.125-0.351-0.135c-0.125-0.018-0.211-0.368-0.333-0.377
				c-0.125-0.01-0.284,0.409-0.404,0.399c-0.122-0.013-0.221-0.337-0.342-0.346c-0.125-0.009-0.252,0.148-0.377,0.139
				c-0.117-0.003-0.243,0.005-0.364,0c-0.122-0.003-0.248,0.135-0.373,0.132c-0.117-0.005-0.234-0.163-0.36-0.171
				c-0.121,0-0.242-0.064-0.364-0.064c-0.121,0-0.248,0.153-0.364,0.153c-0.126,0-0.243-0.18-0.368-0.171
				c-0.122,0.005-0.248-0.094-0.369-0.094c-0.125,0.005-0.242,0.176-0.359,0.176C18.749,28.598,18.627,28.554,18.506,28.559z
				 M28.053,33.224c-0.117-0.05-0.161-0.247-0.274-0.293c-0.113-0.049-0.342,0.202-0.454,0.162c-0.112-0.045-0.162-0.261-0.27-0.306
				c-0.117-0.045-0.256-0.009-0.369-0.045c-0.113-0.04-0.229-0.067-0.346-0.099c-0.116-0.036-0.265,0.045-0.382,0.013
				c-0.116-0.031-0.166-0.291-0.282-0.322c-0.122-0.032-0.265,0.075-0.387,0.049c-0.117-0.027-0.211-0.152-0.328-0.176
				c-0.117-0.031-0.238-0.031-0.355-0.059c-0.116-0.021-0.22-0.139-0.337-0.156c-0.117-0.023-0.279,0.175-0.396,0.156
				c-0.117-0.018-0.22-0.148-0.338-0.17c-0.116-0.018-0.242,0.009-0.359-0.01c-0.121-0.008-0.238-0.049-0.355-0.063
				c-0.125-0.013-0.251,0.099-0.373,0.086c-0.121-0.014-0.22-0.274-0.337-0.284c-0.117-0.009-0.251,0.221-0.378,0.217
				c-0.116-0.005-0.233-0.041-0.35-0.046c-0.126-0.009-0.248,0.121-0.364,0.117c-0.117-0.004-0.238-0.071-0.355-0.071
				c-0.126,0-0.243-0.181-0.36-0.181c-0.126,0-0.248-0.031-0.364-0.026c-0.122,0.005-0.243-0.127-0.364-0.122
				c-0.125,0.005-0.225,0.373-0.35,0.383c-0.117,0-0.243-0.09-0.364-0.085c-0.122,0.004-0.238,0.021-0.355,0.031
				c-0.121,0.008-0.229,0.111-0.35,0.121c-0.126,0.014-0.27-0.302-0.391-0.292c-0.122,0.008-0.203,0.373-0.324,0.386
				c-0.121,0.014-0.265-0.238-0.382-0.225c-0.117,0.014-0.243-0.005-0.359,0.01c-0.117,0.013-0.207,0.318-0.324,0.332
				c-0.117,0.018-0.265-0.161-0.386-0.148c-0.117,0.014-0.27-0.176-0.387-0.157c-0.117,0.018-0.179,0.44-0.305,0.458
				c-0.117,0.023-0.265-0.147-0.382-0.135c-0.117,0.019-0.266-0.116-0.382-0.099c-0.117,0.019-0.225,0.117-0.342,0.135
				c-0.117,0.023-0.233,0.072-0.35,0.091c-0.117,0.017-0.198,0.287-0.315,0.305s-0.467-0.18-0.584-0.161
				c0.117,0.031,0.417,0.111,0.535,0.139c0.117,0.032,0.202,0.211,0.319,0.238c0.117,0.027,0.288-0.139,0.405-0.112
				c0.117,0.032,0.242,0.022,0.364,0.049c0.122,0.028,0.243,0.036,0.36,0.06c0.121,0.022,0.225,0.13,0.346,0.147
				c0.117,0.027,0.251-0.026,0.368-0.009c0.126,0.027,0.248,0.022,0.369,0.04c0.121,0.019,0.211,0.226,0.332,0.243
				c0.126,0.023,0.252-0.022,0.378-0.005c0.117,0.019,0.233,0.086,0.355,0.1c0.122,0.018,0.243,0.032,0.364,0.054
				c0.125,0.01,0.261-0.09,0.377-0.071c0.125,0.014,0.225,0.237,0.346,0.247c0.122,0.013,0.252-0.067,0.373-0.06
				c0.126,0.01,0.252-0.008,0.369,0c0.126,0.01,0.251-0.049,0.373-0.039c0.121,0.008,0.238,0.111,0.364,0.121
				c0.117,0.009,0.242-0.046,0.368-0.036c0.122,0.009,0.243,0.021,0.364,0.026s0.247,0.096,0.364,0.099
				c0.126,0.005,0.248,0.091,0.369,0.096c0.121,0.003,0.251-0.352,0.377-0.352c0.116,0,0.243,0.117,0.359,0.117
				c0.125,0,0.247-0.148,0.368-0.148c0.122,0,0.243,0.198,0.369,0.198c0.126,0,0.242-0.225,0.364-0.229
				c0.121-0.005,0.243,0.085,0.364,0.08c0.122-0.003,0.252,0.149,0.369,0.145c0.126-0.005,0.234-0.292,0.355-0.292
				c0.121-0.009,0.256,0.287,0.382,0.279c0.125-0.01,0.243-0.082,0.359-0.096c0.126-0.008,0.252,0.023,0.373,0.014
				c0.122-0.009,0.221-0.296,0.342-0.314c0.122-0.009,0.274,0.364,0.401,0.355c0.121-0.014,0.206-0.373,0.332-0.387
				c0.121-0.014,0.287,0.399,0.405,0.392c0.125-0.019,0.207-0.392,0.323-0.405c0.126-0.014,0.288,0.319,0.414,0.307
				c0.118-0.015,0.198-0.36,0.32-0.378C27.792,33.146,27.928,33.241,28.053,33.224z M22.479,44.218
				c-0.13-0.041-0.198-0.248-0.314-0.284c-0.126-0.039-0.351,0.217-0.459,0.185c-0.139-0.04-0.207-0.265-0.314-0.291
				c-0.14-0.046-0.278,0-0.387-0.028c-0.153-0.026-0.27-0.031-0.368-0.021c-0.144,0.014-0.14,0.135-0.225,0.229
				c-0.076,0.072-0.323,0.036-0.391,0.162c-0.05,0.1,0.022,0.206-0.032,0.341c0.117-0.008,0.18,0.032,0.297,0.019
				c0.125-0.019,0.243-0.045,0.369-0.067c0.121-0.014,0.256,0.059,0.377,0.049c0.125-0.018,0.216-0.256,0.342-0.272
				c0.116-0.015,0.252,0.08,0.377,0.067c0.121-0.019,0.238-0.072,0.359-0.086C22.223,44.203,22.354,44.236,22.479,44.218z
				 M17.49,44.465c0.027-0.099,0.216-0.158,0.243-0.257c0.027-0.099-0.229-0.147-0.202-0.246c-0.125-0.028-0.125-0.185-0.256-0.207
				c-0.125-0.027-0.265,0.022-0.391,0c-0.125-0.027-0.251-0.036-0.382-0.063c-0.126-0.022-0.274,0.071-0.4,0.045
				c-0.13-0.018-0.265-0.261-0.391-0.287c-0.036,0.161,0.036,0.342,0,0.503c0.126,0.031,0.171,0.116,0.297,0.152
				c0.121,0.031,0.251,0.046,0.377,0.081c0.117,0.032,0.225,0.153,0.342,0.188c0.125,0.028,0.306-0.156,0.431-0.125
				C17.274,44.285,17.374,44.434,17.49,44.465z"/>
		</g>
		<g>
			<path d="M34.903,43.678c0.107,0,0.063-0.014,0.18-0.018c0.112,0,0.229-0.09,0.342-0.09c0.116,0,0.233,0.332,0.35,0.332
				c0.108,0,0.226-0.301,0.342-0.301c0.108,0,0.226,0.171,0.342,0.171c0.108,0.005,0.229-0.036,0.346-0.027
				c0.118,0,0.234-0.125,0.352-0.125c0.116,0.008,0.229,0.225,0.346,0.225c0.116,0,0.233-0.126,0.351-0.126s0.234,0,0.351,0
				c0.122,0,0.238,0.135,0.355,0.135c0.116,0,0.238-0.233,0.354-0.233c0.117,0.008,0.234,0.207,0.351,0.207
				c0.117,0.008,0.233,0.018,0.352,0.026c0.116,0.009,0.224,0.067,0.346,0.08c0.116,0.019,0.229,0.05,0.342,0.072
				c0.116,0.023,0.256-0.044,0.363-0.018c0.117,0.027,0.225,0.09,0.333,0.126c0.117,0.036,0.161,0.238,0.274,0.288
				c0.107,0.054,0.373-0.171,0.476-0.108c0.104,0.059,0.072,0.347,0.176,0.414c0.099,0.071,0.135,0.215,0.229,0.291
				c0.095,0.077,0.166,0.167,0.266,0.248c0.085,0.08,0.431-0.108,0.516-0.022c0.091,0.085-0.075,0.427,0.005,0.517
				c0.086,0.09,0.135,0.206,0.216,0.297c0.085,0.09,0.414-0.041,0.494,0.049c0.081,0.095,0.163,0.189,0.238,0.283
				c0.077,0.09,0.023,0.287,0.095,0.383c0.072,0.099,0.216,0.14,0.288,0.238c0.063,0.099-0.032,0.296,0.026,0.399
				c0.063,0.104,0.351,0.081,0.405,0.185c0.059,0.099-0.122,0.333-0.063,0.44c0.055,0.107,0.314,0.107,0.369,0.207
				c0.054,0.107-0.063,0.306-0.01,0.413s0.162,0.185,0.216,0.288c0.055,0.104-0.004,0.278,0.055,0.377
				c0.063,0.108,0.148,0.198,0.216,0.306c0.058,0.099,0.282,0.095,0.35,0.198c0.063,0.099,0.166,0.171,0.238,0.27
				c0.067,0.099-0.08,0.351-0.008,0.44c0.067,0.099,0.246,0.117,0.318,0.216c0.071,0.09,0.288,0.081,0.364,0.18
				c0.067,0.09,0.049,0.261,0.116,0.351c0.072,0.1,0.117,0.216,0.189,0.306c0.067,0.1,0.274,0.1,0.342,0.198
				c0.067,0.104-0.167,0.391-0.112,0.498c0.053,0.104,0.278,0.131,0.332,0.238c0.054,0.113,0.026,0.207,0.081,0.319
				c-0.104,0.05-0.027,0.319-0.135,0.373c-0.099,0.059-0.306-0.071-0.409-0.014c-0.104,0.059-0.166,0.238-0.274,0.274
				c-0.107,0.045-0.273-0.054-0.387-0.045c-0.117,0.009-0.233-0.049-0.351-0.049c-0.108,0-0.225,0.058-0.342,0.058
				c-0.106-0.009-0.224,0.036-0.346,0.027c-0.112-0.009-0.234,0.063-0.351,0.054c-0.112-0.009-0.225-0.054-0.341-0.063
				c-0.113-0.009-0.229,0.018-0.347,0.009s-0.225,0-0.342-0.009c-0.125-0.009-0.233-0.396-0.359-0.4
				c-0.121-0.005-0.252,0.036-0.374,0.036c-0.12,0-0.246,0.063-0.372,0.063s-0.252,0.148-0.373,0.148s-0.247-0.229-0.373-0.229
				s-0.252,0.22-0.373,0.215c-0.126-0.004-0.238-0.215-0.359-0.225c-0.122-0.005-0.274,0.373-0.396,0.364
				c-0.121-0.009-0.229-0.242-0.35-0.261c-0.122-0.018-0.238-0.072-0.365-0.094c-0.116-0.019-0.251,0.013-0.373-0.015
				c-0.12-0.026-0.255-0.004-0.373-0.035c-0.116-0.036-0.291,0.09-0.399,0.045s-0.176-0.221-0.283-0.27
				c-0.108-0.045-0.08-0.355-0.184-0.404c-0.104-0.06-0.248-0.027-0.355-0.081c-0.099-0.063-0.364,0.144-0.458,0.085
				c-0.1-0.063-0.091-0.31-0.189-0.373c-0.095-0.067-0.145-0.206-0.233-0.273c-0.099-0.067-0.324,0.049-0.423-0.023
				c-0.09-0.072-0.234-0.08-0.323-0.152c-0.095-0.072-0.198-0.13-0.293-0.197c-0.094-0.072-0.126-0.234-0.22-0.307
				c-0.094-0.067-0.225-0.08-0.319-0.152c-0.099-0.072-0.067-0.315-0.166-0.387c-0.09-0.076-0.225-0.104-0.315-0.18
				c-0.099-0.071-0.301-0.022-0.391-0.104c-0.09-0.076-0.05-0.302-0.139-0.382c-0.086-0.086-0.243-0.108-0.324-0.193
				c-0.085-0.09-0.188-0.157-0.27-0.257c-0.081-0.089-0.116-0.216-0.188-0.314c-0.077-0.09-0.189-0.161-0.261-0.261
				c-0.072-0.099-0.045-0.26-0.107-0.363c-0.063-0.104-0.032-0.257-0.091-0.365c-0.054-0.099-0.35-0.089-0.404-0.197
				c-0.049-0.107-0.085-0.233-0.135-0.342c-0.046-0.107,0.233-0.341,0.197-0.458c-0.036-0.107-0.323-0.144-0.354-0.261
				c-0.031-0.113-0.05-0.238-0.076-0.359c-0.027-0.117,0.018-0.233-0.01-0.351c-0.111,0.04-0.22,0.063-0.328,0.107
				c-0.112,0.041-0.192,0.135-0.301,0.181c-0.117,0.044-0.157,0.241-0.27,0.292c-0.107,0.045-0.278-0.067-0.396-0.022
				c-0.108,0.044-0.306-0.145-0.423-0.099c-0.107,0.039-0.126,0.323-0.234,0.363c-0.106,0.041-0.306-0.148-0.422-0.107
				c-0.107,0.04-0.117,0.346-0.224,0.382c-0.108,0.045-0.324-0.189-0.433-0.153s-0.161,0.229-0.274,0.27
				c-0.116,0.036-0.238,0.055-0.346,0.081c-0.116,0.036-0.207,0.185-0.323,0.207c-0.117,0.027-0.252-0.041-0.368-0.026
				c-0.127,0.013-0.238,0.135-0.355,0.139c-0.121,0.014-0.248,0.032-0.364,0.032c-0.126,0-0.233-0.234-0.36-0.248
				c-0.117-0.005-0.247,0.108-0.364,0.095c-0.121-0.014-0.221-0.148-0.337-0.171c-0.117-0.018-0.279,0.216-0.404,0.189
				c-0.117-0.023-0.18-0.288-0.297-0.315c-0.116-0.026-0.256,0.018-0.368-0.014c-0.116-0.031-0.265,0.055-0.386,0.014
				c-0.108-0.036-0.207-0.13-0.324-0.171c-0.094-0.036-0.252-0.18-0.323-0.342c-0.072-0.161,0.107-0.283,0.152-0.358
				c0.054-0.091-0.18-0.374-0.116-0.469c0.063-0.089,0.404,0.046,0.476-0.036c0.071-0.085-0.09-0.44,0-0.503
				c0.099-0.072,0.301-0.018,0.4-0.036c0.116-0.018,0.265,0.189,0.382,0.181c0.116-0.019,0.215-0.262,0.333-0.27
				c0.116-0.01,0.243,0.107,0.359,0.103c0.117-0.004,0.238,0.1,0.355,0.095c0.121-0.005,0.229-0.252,0.346-0.261
				c0.117,0,0.243,0.045,0.359,0.04c0.117-0.004,0.233-0.031,0.355-0.031c0.116-0.009,0.233-0.009,0.354-0.018
				c0.117-0.01,0.27,0.242,0.387,0.225c0.126-0.009,0.238-0.148,0.359-0.167c0.126-0.021,0.252-0.04,0.378-0.067
				c0.117-0.026,0.167-0.314,0.283-0.351c0.122-0.036,0.229-0.054,0.346-0.104c0.118-0.049,0.225-0.075,0.333-0.135
				c0.117-0.058,0.382,0.167,0.485,0.104c0.108-0.067,0.145-0.251,0.243-0.323c0.099-0.076,0.278-0.072,0.368-0.153
				c0.099-0.08,0.193-0.175,0.283-0.265c0.085-0.09,0.148-0.216,0.225-0.315c0.077-0.094,0.122-0.229,0.193-0.332
				c0.063-0.099,0.036-0.265,0.104-0.382c0.059-0.1-0.032-0.287,0.022-0.4c0.054-0.107,0.386-0.094,0.436-0.207
				c0.05-0.107-0.216-0.373-0.156-0.472c0.054-0.107,0.174-0.185,0.241-0.283c0.064-0.099,0.288-0.094,0.355-0.184
				c0.067-0.099,0.059-0.257,0.131-0.351c0.076-0.09,0.076-0.248,0.153-0.337c0.071-0.09,0.188-0.149,0.27-0.234
				c0.08-0.086,0.368,0.027,0.458-0.059c0.076-0.08-0.009-0.323,0.076-0.413c0.086-0.081,0.238-0.09,0.324-0.175
				c0.085-0.086-0.023-0.352,0.059-0.437c0.076-0.086,0.247-0.081,0.323-0.162c0.09-0.09,0.09-0.274,0.175-0.354
				c0.091-0.086,0.301-0.036,0.392-0.117c0.099-0.077,0.09-0.292,0.188-0.359c0.099-0.072,0.36,0.085,0.468,0.022
				c0.099-0.063,0.18-0.171,0.278-0.229c0.104-0.059,0.207-0.122,0.314-0.175c0.108-0.059,0.135-0.284,0.252-0.333
				c0.108-0.045,0.351,0.215,0.458,0.175c0.117-0.04,0.099-0.436,0.217-0.48c0.107-0.036,0.296,0.116,0.404,0.081
				c0.117-0.036,0.233-0.05,0.351-0.081c0.116-0.031,0.233-0.045,0.354-0.071c0.117-0.028,0.185-0.262,0.302-0.284
				c0.116-0.026,0.251,0.005,0.368-0.018s0.287,0.206,0.405,0.188c0.116-0.022,0.224-0.094,0.346-0.112
				c0.116-0.018,0.246,0.019,0.364-0.005c0.117-0.022,0.233-0.085,0.351-0.104c0.116-0.018,0.192-0.292,0.314-0.31
				c0.116-0.018,0.278,0.225,0.4,0.211c0.12-0.013,0.233-0.099,0.354-0.107c0.126-0.014,0.225-0.252,0.351-0.261
				c0.117-0.01,0.257,0.189,0.378,0.185s0.233-0.257,0.355-0.262c0.121-0.003,0.256,0.373,0.381,0.369
				c0.122-0.004,0.23-0.382,0.351-0.382c0.122-0.009,0.253,0.233,0.378,0.229c0.117-0.005,0.243-0.015,0.359-0.022
				c0.126,0,0.243-0.067,0.364-0.077c0.121-0.009,0.234-0.117,0.354-0.13c0.127-0.009,0.235-0.126,0.352-0.135
				c0.125-0.009,0.283,0.404,0.404,0.391c0.126-0.009,0.211-0.35,0.328-0.364c0.121-0.009,0.238-0.026,0.354-0.045
				c0.118-0.013,0.284,0.351,0.4,0.333c0.122-0.014,0.221-0.206,0.338-0.225c0.125-0.013,0.242-0.018,0.359-0.031
				c0.125-0.015,0.206-0.302,0.324-0.32c0.116-0.017,0.246,0.036,0.363,0.015c0.116-0.018,0.238-0.01,0.359-0.031
				c0.117-0.019,0.247,0.009,0.364-0.015c0.116-0.021,0.274,0.117,0.391,0.096c0.122-0.028,0.212-0.189,0.328-0.226
				c0.117-0.041,0.243-0.067,0.36-0.116c0.107-0.05,0.242-0.072,0.351-0.131c0.116-0.054,0.265-0.04,0.373-0.104
				c0.107-0.059,0.094-0.342,0.207-0.404c0.106-0.059,0.273-0.018,0.381-0.072c0.117-0.063,0.158-0.261,0.266-0.31
				c0.14-0.068,0.373,0.229,0.477,0.215c0.157-0.021,0.14,0.005,0.229,0.072c0.107,0.077,0.185,0.041,0.216,0.185
				c0.026,0.116,0.135,0.225,0.107,0.373c-0.018,0.126-0.1,0.243-0.107,0.368c-0.014,0.131,0.179,0.266,0.171,0.396
				c-0.01,0.127-0.019,0.257-0.036,0.383c-0.009,0.125-0.05,0.26-0.072,0.382c-0.026,0.126-0.107,0.243-0.144,0.364
				c-0.041,0.126-0.041,0.27-0.099,0.387c-0.055,0.112-0.1,0.251-0.181,0.354c-0.072,0.1-0.144,0.242-0.238,0.338
				c-0.089,0.08-0.291,0.054-0.404,0.135c-0.104,0.067-0.382-0.063-0.472,0.018c-0.094,0.089,0.09,0.459,0,0.548
				c-0.086,0.09-0.296,0.072-0.378,0.171c-0.081,0.099-0.026,0.301-0.099,0.4c-0.081,0.094-0.144,0.211-0.225,0.31
				c-0.081,0.1-0.405-0.009-0.485,0.091c-0.081,0.099-0.095,0.246-0.18,0.341c-0.09,0.091-0.005,0.369-0.099,0.454
				c-0.09,0.077-0.333-0.013-0.423,0.067c-0.1,0.081-0.05,0.351-0.148,0.423c-0.099,0.077-0.355-0.072-0.454,0
				c-0.104,0.072-0.233,0.085-0.337,0.152c-0.104,0.063-0.158,0.216-0.265,0.274c-0.108,0.063-0.252,0.04-0.36,0.099
				c-0.108,0.06-0.145,0.266-0.251,0.319c-0.117,0.054-0.189,0.202-0.302,0.252c-0.112,0.045-0.292-0.054-0.4-0.014
				c-0.121,0.041-0.207,0.157-0.323,0.197c-0.117,0.041-0.341-0.265-0.459-0.233c-0.117,0.031-0.188,0.212-0.306,0.238
				c-0.117,0.027-0.233,0.081-0.355,0.104c-0.12,0.022-0.229,0.09-0.35,0.108c-0.122,0.018-0.221,0.175-0.342,0.197
				c-0.121,0.019-0.238,0.086-0.364,0.104c-0.116,0.014-0.251,0-0.373,0.009c-0.121,0.01-0.265-0.351-0.391-0.341
				c-0.117,0.004-0.226,0.44-0.351,0.444c-0.121,0.005-0.248-0.463-0.369-0.463c-0.125,0-0.252,0.377-0.377,0.373
				c-0.121-0.004-0.233-0.283-0.355-0.292c-0.121-0.005-0.247,0.117-0.373,0.104c-0.126-0.01-0.233-0.135-0.359-0.145
				c-0.122-0.009-0.265,0.193-0.387,0.176c-0.126-0.01-0.251,0.072-0.378,0.063c-0.125-0.009-0.243,0.01-0.368,0.005
				c-0.126-0.005-0.243-0.059-0.368-0.059c-0.126,0-0.257-0.373-0.378-0.373c-0.126,0-0.243,0.211-0.368,0.216
				c-0.126,0.004-0.261-0.152-0.383-0.148c-0.125,0.005-0.233,0.328-0.358,0.337c-0.132,0.005-0.257-0.18-0.383-0.175
				c-0.13,0.009-0.247,0.085-0.373,0.09c-0.126,0.004-0.247,0.018-0.373,0.027c-0.126,0-0.252,0.125-0.378,0.125
				s-0.247-0.247-0.377-0.265c-0.126-0.014-0.252,0.116-0.378,0.13c-0.117,0.018-0.238-0.071-0.355-0.058
				c-0.111,0.013-0.225,0.044-0.346,0.067c-0.107,0.008-0.242-0.063-0.351-0.045c-0.117,0.018-0.197,0.26-0.314,0.278
				c-0.108,0.018-0.233-0.091-0.351-0.067C34.723,43.512,34.886,43.521,34.903,43.678z M49.039,37.516
				c-0.121,0.009-0.238-0.05-0.359-0.04c-0.122,0.009-0.229,0.104-0.355,0.112c-0.116,0.009-0.265-0.314-0.386-0.306
				c-0.122,0.009-0.216,0.318-0.333,0.333c-0.121,0.009-0.252-0.145-0.378-0.135c-0.116,0.008-0.233,0.053-0.351,0.063
				c-0.126,0.009-0.242,0.148-0.364,0.148c-0.121,0.004-0.246-0.216-0.363-0.216c-0.126,0-0.243,0.125-0.369,0.116
				c-0.122-0.004-0.242-0.004-0.359-0.009c-0.121-0.004-0.242-0.144-0.359-0.148c-0.126-0.009-0.243,0.229-0.368,0.229
				c-0.122,0-0.238-0.198-0.36-0.193c-0.121,0-0.243-0.005-0.368,0c-0.117,0-0.243-0.036-0.364-0.031
				c-0.122,0.005-0.243-0.005-0.363,0c-0.122,0.005-0.235,0.108-0.36,0.117c-0.117,0.009-0.243-0.009-0.364,0.004
				c-0.122,0.009-0.257-0.144-0.377-0.126c-0.122,0.014-0.202,0.347-0.32,0.364c-0.125,0.019-0.278-0.22-0.399-0.202
				c-0.122,0.019-0.257-0.049-0.382-0.027c-0.116,0.022-0.243,0.027-0.359,0.055c-0.122,0.018-0.158,0.409-0.274,0.44
				c-0.117,0.026-0.329-0.293-0.445-0.262c-0.117,0.036-0.252,0.027-0.368,0.063c-0.117,0.036-0.126,0.387-0.243,0.432
				c-0.112,0.036-0.225,0.08-0.337,0.126c-0.112,0.04-0.283-0.063-0.392-0.018c-0.116,0.049-0.185,0.188-0.291,0.242
				c-0.108,0.05-0.302-0.063-0.409-0.004c-0.108,0.054-0.096,0.342-0.202,0.399c-0.108,0.054-0.342-0.117-0.445-0.055
				c-0.104,0.064-0.081,0.324-0.189,0.388c-0.099,0.067-0.306-0.027-0.404,0.045s-0.171,0.188-0.265,0.256
				c-0.095,0.071-0.274,0.04-0.373,0.122c-0.095,0.071-0.176,0.179-0.27,0.26c-0.091,0.081-0.046,0.306-0.131,0.387
				c-0.085,0.085-0.131,0.202-0.216,0.292c-0.076,0.091-0.36,0-0.44,0.095c-0.076,0.09-0.059,0.27-0.135,0.359
				c-0.081,0.095-0.014,0.306-0.09,0.4c-0.076,0.094-0.247,0.107-0.328,0.192c-0.081,0.091-0.18,0.163-0.261,0.252
				c0.081,0.117,0.243,0.082,0.323,0.198c0.117-0.018,0.189,0.297,0.306,0.273c0.117-0.017,0.197-0.229,0.315-0.247
				c0.117-0.018,0.242,0.055,0.358,0.032c0.117-0.019,0.189-0.319,0.306-0.342c0.117-0.014,0.267,0.185,0.378,0.167
				c0.117-0.01,0.216-0.163,0.337-0.181c0.117-0.019,0.257,0.099,0.374,0.081c0.116-0.019,0.251,0.022,0.368,0
				c0.116-0.027,0.225-0.104,0.342-0.126c0.116-0.027,0.229-0.095,0.347-0.116c0.116-0.019,0.229-0.117,0.345-0.127
				c0.127-0.021,0.252-0.008,0.369-0.021c0.121-0.015,0.242-0.059,0.359-0.068c0.121-0.009,0.248-0.035,0.368-0.04
				c0.126,0,0.226,0.392,0.342,0.399c0.126,0.01,0.226-0.026,0.342-0.004c0.117,0.022,0.233-0.014,0.351,0.022
				c0.113,0.036,0.279-0.072,0.387-0.036c0.117,0.031,0.18,0.279,0.297,0.306c0.116,0.031,0.287-0.161,0.404-0.14
				c0.117,0.022,0.197,0.257,0.314,0.274c0.121,0.019,0.297-0.351,0.414-0.342c0.116,0.019,0.207,0.253,0.332,0.261
				c0.117,0.01,0.234,0.055,0.354,0.063c0.122,0,0.243-0.054,0.36-0.054c0.121,0,0.238-0.063,0.354-0.063
				c0.127-0.009,0.226-0.185,0.342-0.197c0.127-0.01,0.243,0.121,0.369,0.108c0.116-0.01,0.27,0.255,0.396,0.242
				c0.117-0.019,0.225-0.136,0.342-0.153c0.117-0.021,0.166-0.355,0.278-0.382c0.116-0.031,0.283,0.148,0.396,0.117
				s0.257,0.013,0.368-0.027c0.113-0.04,0.145-0.292,0.252-0.333c0.108-0.049,0.188-0.157,0.297-0.207
				c0.107-0.049,0.207-0.103,0.314-0.156c0.108-0.05,0.261,0,0.368-0.059c0.108-0.059,0.176-0.166,0.279-0.221
				c0.104-0.054,0.314,0.072,0.418,0.019c0.104-0.063,0.176-0.171,0.284-0.229c0.099-0.059,0.116-0.274,0.215-0.333
				c0.107-0.058,0.301,0.036,0.404-0.021c0.104-0.063,0.153-0.202,0.262-0.266c0.099-0.055,0.166-0.14,0.255-0.211
				c0.086-0.072,0.207-0.099,0.293-0.181c0.08-0.081,0.116-0.192,0.197-0.283c0.081-0.085,0.234-0.099,0.315-0.193
				c0.071-0.089,0.225-0.117,0.296-0.206c0.072-0.099-0.071-0.354-0.004-0.45c0.067-0.089,0.156-0.179,0.224-0.265
				c0.067-0.095,0.419,0.014,0.481-0.081c0.067-0.095-0.08-0.337-0.018-0.437c0.059-0.099,0.135-0.179,0.193-0.287
				c0.058-0.099,0.166-0.166,0.229-0.266c0.063-0.099,0.135-0.188,0.198-0.282c0.063-0.099,0.071-0.233,0.126-0.333
				c0.063-0.1-0.055-0.126,0.009-0.225c-0.099-0.081-0.004-0.171-0.099-0.256c-0.107,0.04-0.288-0.148-0.392-0.104
				c-0.107,0.044-0.121,0.323-0.229,0.368c-0.108,0.041-0.306-0.148-0.414-0.107c-0.107,0.045-0.107,0.351-0.216,0.391
				s-0.323-0.185-0.431-0.135c-0.108,0.04-0.153,0.238-0.261,0.283c-0.108,0.036-0.216,0.067-0.324,0.117
				c-0.108,0.044-0.166,0.202-0.274,0.242c-0.107,0.045-0.256,0.027-0.363,0.067C48.972,37.39,49.039,37.516,49.039,37.516z
				 M45.564,52.024c-0.063-0.089-0.054,0-0.126-0.081c-0.071-0.089-0.206-0.111-0.278-0.192c-0.072-0.085,0.117-0.383,0.054-0.468
				c-0.071-0.09-0.386-0.022-0.436-0.112c-0.059-0.099,0.05-0.292,0.04-0.396c-0.018-0.122-0.081-0.233-0.099-0.351
				c-0.018-0.121-0.166-0.212-0.197-0.328c-0.019-0.117,0.166-0.283,0.139-0.4c-0.031-0.116-0.188-0.197-0.221-0.306
				c-0.035-0.116-0.08-0.225-0.12-0.332c-0.041-0.117,0.04-0.279-0.015-0.387c-0.045-0.112-0.31-0.107-0.368-0.216
				c-0.054-0.107,0.054-0.301-0.014-0.404s-0.126-0.198-0.202-0.297c-0.072-0.099-0.116-0.216-0.197-0.306
				c-0.077-0.09-0.152-0.188-0.243-0.274c-0.08-0.085-0.238-0.085-0.332-0.166c-0.09-0.072-0.171-0.162-0.271-0.233
				c-0.099-0.063-0.117-0.274-0.225-0.333c-0.099-0.063-0.359,0.166-0.468,0.108c-0.107-0.05-0.099-0.334-0.215-0.383
				c-0.117-0.05-0.144-0.18-0.243-0.256c-0.09-0.076-0.153-0.167-0.238-0.256c-0.085-0.086-0.44,0.076-0.517-0.015
				c-0.091-0.089,0.067-0.44-0.031-0.512c-0.099-0.081-0.202-0.198-0.311-0.261c-0.107-0.063-0.368,0.18-0.485,0.135
				s-0.225-0.081-0.342-0.112c-0.126-0.031-0.207-0.212-0.332-0.229c-0.117-0.018-0.257,0.072-0.378,0.063
				c-0.126,0-0.261-0.181-0.378-0.171c-0.125,0.009-0.216,0.288-0.342,0.31c-0.117,0.022-0.305-0.202-0.423-0.166
				c-0.125,0.041-0.152,0.301-0.26,0.359c-0.113,0.055-0.319-0.049-0.414,0.027c-0.107,0.072-0.171,0.207-0.256,0.297
				c-0.086,0.09-0.301,0.252-0.364,0.359c0.117,0.086,0.333,0.297,0.464,0.346c0.103,0.041,0.273-0.099,0.382-0.058
				c0.107,0.035,0.215,0.026,0.323,0.053c0.107,0.036,0.166,0.32,0.278,0.334c0.121,0.018,0.27-0.091,0.388-0.072
				c0.125,0.026,0.287-0.127,0.408-0.099c0.121,0.026,0.216,0.175,0.337,0.207c0.117,0.035,0.225,0.099,0.342,0.143
				c0.116,0.041,0.297-0.075,0.414-0.026c0.116,0.045,0.094,0.413,0.206,0.467c0.112,0.055,0.306-0.072,0.418-0.018
				c0.112,0.059,0.176,0.198,0.283,0.261c0.108,0.063,0.369-0.116,0.472-0.054c0.104,0.072,0.086,0.323,0.186,0.396
				c0.099,0.076,0.287,0.045,0.381,0.126c0.095,0.08,0.104,0.27,0.194,0.35c0.089,0.091,0.135,0.217,0.22,0.306
				c0.085,0.091,0.216,0.135,0.292,0.234c0.081,0.09,0.207,0.153,0.279,0.252c0.075,0.099,0.215,0.153,0.287,0.257
				c0.072,0.099,0.117,0.224,0.189,0.327c0.063,0.104,0.161,0.193,0.224,0.306c0.063,0.108,0.149,0.212,0.207,0.319
				c0.054,0.104-0.278,0.328-0.26,0.449c0.018,0.117,0.07,0.211,0.075,0.333c0.005,0.121,0.13,0.13,0.148,0.247
				c-0.099-0.067-0.161,0.009-0.27-0.05c-0.117-0.058-0.107-0.305-0.202-0.373c-0.112-0.067-0.332,0.027-0.392-0.071
				c-0.054-0.104,0.067-0.315,0.01-0.414c-0.059-0.104-0.454,0.005-0.513-0.094c-0.067-0.099,0.054-0.319-0.018-0.409
				c-0.067-0.099-0.108-0.216-0.18-0.306c-0.077-0.094-0.198-0.148-0.27-0.233c-0.082-0.091-0.207-0.135-0.288-0.216
				c-0.085-0.09-0.283-0.036-0.369-0.108c-0.089-0.081-0.089-0.256-0.18-0.323c-0.09-0.072-0.018-0.373-0.116-0.44
				s-0.257-0.055-0.351-0.117c-0.1-0.059-0.355,0.161-0.459,0.108c-0.104-0.055-0.107-0.298-0.22-0.347
				c-0.108-0.045-0.185-0.176-0.293-0.216c-0.107-0.041-0.292,0.13-0.404,0.099c-0.126-0.036-0.261-0.004-0.386-0.04
				c-0.122-0.036-0.248-0.063-0.369-0.095c-0.126-0.031-0.216-0.176-0.341-0.207c-0.127-0.031-0.262-0.004-0.392-0.04
				c-0.121-0.027-0.193-0.273-0.315-0.306c-0.121-0.035-0.26-0.014-0.382-0.045c-0.126-0.036-0.301,0.09-0.422,0.054
				c-0.117-0.036-0.181-0.251-0.288-0.301c-0.116-0.046-0.27-0.018-0.373-0.077c-0.108-0.058-0.248-0.125-0.337-0.206
				c-0.085-0.081-0.145-0.234-0.198-0.342c-0.053-0.107-0.144-0.247-0.161-0.373c-0.009-0.107,0.108-0.242,0.126-0.373
				c0.018-0.107,0.148-0.261,0.197-0.386c-0.126-0.023-0.332,0.184-0.44,0.17c-0.13-0.018-0.225-0.045-0.323-0.045
				c-0.131-0.005-0.279-0.332-0.378-0.306c-0.126,0.027-0.117,0.306-0.193,0.387c-0.067,0.072-0.112,0.131-0.135,0.261
				c-0.022,0.099-0.085,0.197-0.081,0.332c0.005,0.099-0.009,0.217,0.005,0.342c0.018,0.108,0.09,0.207,0.112,0.315
				c0.022,0.107,0.211,0.161,0.247,0.265s-0.09,0.257-0.05,0.36c0.041,0.104-0.139,0.306-0.099,0.404
				c0.05,0.104,0.324,0.094,0.373,0.184c0.059,0.108-0.099,0.342-0.045,0.44c0.063,0.107,0.369,0.063,0.432,0.162
				s-0.104,0.369-0.031,0.468c0.067,0.094,0.274,0.094,0.351,0.185c0.076,0.094,0.147,0.197,0.225,0.282
				c0.081,0.091,0.257,0.091,0.342,0.18c0.086,0.082,0.112,0.225,0.202,0.306c0.09,0.082,0.252,0.077,0.341,0.153
				c0.095,0.076,0.193,0.139,0.293,0.206c0.095,0.077,0.049,0.334,0.147,0.401c0.1,0.071,0.271,0.04,0.369,0.103
				c0.099,0.063,0.135,0.234,0.238,0.297s0.333-0.095,0.44-0.036c0.103,0.063,0.086,0.332,0.193,0.387
				c0.099,0.054,0.248,0.045,0.354,0.099c0.108,0.054,0.274,0,0.383,0.054c0.107,0.05,0.188,0.158,0.301,0.202
				c0.112,0.05,0.238,0.063,0.346,0.108c0.117,0.05,0.135,0.319,0.253,0.363c0.116,0.041,0.351-0.256,0.462-0.215
				c0.117,0.041,0.127,0.414,0.243,0.44c0.117,0.036,0.332-0.288,0.449-0.261c0.121,0.027,0.202,0.188,0.319,0.211
				c0.117,0.031,0.198,0.266,0.314,0.293c0.117,0.021,0.278-0.194,0.396-0.176c0.126,0.022,0.229,0.157,0.347,0.171
				c0.121,0.013,0.233,0.13,0.354,0.14c0.122,0.009,0.261-0.229,0.378-0.226c0.125,0.005,0.242,0.055,0.363,0.055
				c0.122,0,0.238-0.019,0.36-0.019c0.121-0.009,0.238,0,0.364-0.009c0.117-0.009,0.261,0.242,0.382,0.234
				c0.121-0.015,0.233-0.14,0.355-0.153c0.116-0.014,0.242-0.022,0.359-0.045c0.117-0.019,0.197-0.297,0.314-0.324
				C45.484,52.007,45.448,52.052,45.564,52.024z"/>
		</g>
		<g>
			<path d="M12.946,15.995c0.027-0.122,0.104-0.171,0.131-0.288c0.027-0.122,0.036-0.238,0.063-0.355
				c0.027-0.122,0.063-0.233,0.081-0.351c0.031-0.121,0.049-0.238,0.077-0.355c0.031-0.117,0.148-0.215,0.175-0.323
				c0.027-0.117,0.153-0.216,0.18-0.324c0.027-0.117-0.283-0.319-0.256-0.44c0.031-0.117,0.193-0.193,0.225-0.306
				c0.031-0.117,0.283-0.175,0.314-0.292c0.032-0.117-0.373-0.351-0.337-0.467c0.032-0.117,0.297-0.171,0.329-0.292
				c0.031-0.121-0.032-0.256,0-0.373c0.031-0.121,0.04-0.238,0.076-0.355c0.031-0.117,0.252-0.184,0.288-0.306
				c0.027-0.117,0.09-0.224,0.126-0.341c0.026-0.117-0.072-0.27-0.041-0.387c0.032-0.117,0.032-0.243,0.067-0.359
				c0.036-0.117,0.149-0.207,0.189-0.324c0.036-0.117,0.067-0.233,0.108-0.351c0.036-0.108,0.176-0.188,0.216-0.305
				C15,8.983,15.135,8.911,15.18,8.798c0.05-0.112-0.049-0.283,0-0.391c0.045-0.117,0.243-0.153,0.292-0.265
				c0.049-0.108-0.184-0.364-0.117-0.472c0.067-0.099,0.229-0.126,0.31-0.225c0.072-0.085,0.081-0.256,0.171-0.342
				c0.081-0.081,0.207-0.135,0.296-0.216S16.42,6.866,16.51,6.79c0.099-0.072,0-0.396,0.099-0.467
				c0.099-0.072,0.314,0.018,0.405-0.054c0.099-0.072,0.202-0.135,0.301-0.202c0.099-0.072,0.216-0.117,0.311-0.189
				c0.094-0.077,0.278-0.027,0.377-0.103c0.089-0.072,0.157-0.18,0.251-0.252c0.099-0.077,0.167-0.185,0.261-0.252
				c0.094-0.072,0.054-0.324,0.153-0.4c0.09-0.072,0.396,0.13,0.495,0.058c0.094-0.071,0.144-0.206,0.238-0.283
				c0.094-0.072,0.121-0.247,0.211-0.319c0.095-0.072,0.306,0.005,0.4-0.067c0.094-0.067-0.014-0.418,0.085-0.49
				c0.099-0.077,0.207-0.126,0.306-0.193c0.099-0.067,0.342,0.058,0.431-0.013c0.1-0.072,0.225-0.108,0.314-0.18
				c0.095-0.072,0-0.404,0.1-0.472c0.099-0.072,0.39,0.125,0.484,0.058c0.099-0.072,0.082-0.296,0.18-0.369
				c0.099-0.072,0.198-0.135,0.292-0.211c0.099-0.067,0.167-0.175,0.265-0.242c0.099-0.072,0.265-0.049,0.359-0.117
				c0.099-0.072,0.274-0.041,0.368-0.108c0.099-0.072,0.153-0.194,0.252-0.266c0.118-0.081,0.207-0.081,0.301-0.117
				c0.139-0.045,0.122-0.058,0.216-0.004c0.09,0.058,0.225,0.031,0.274,0.167c0.041,0.099,0.229,0.188,0.251,0.323
				c0.019,0.117,0.126,0.22,0.153,0.342c0.018,0.117-0.333,0.296-0.306,0.414c0.018,0.121,0.391,0.18,0.414,0.296
				c0.018,0.117-0.333,0.306-0.314,0.422c0.018,0.117,0.252,0.202,0.274,0.319c0.022,0.121,0.207,0.207,0.229,0.328
				c0.019,0.117,0.045,0.234,0.072,0.359c0.022,0.117-0.036,0.252-0.018,0.369c0.027,0.117-0.306,0.296-0.288,0.417
				c0.019,0.117,0.288,0.193,0.306,0.311c0.022,0.117-0.184,0.279-0.162,0.399c0.027,0.122,0.287,0.194,0.306,0.315
				c0.018,0.122-0.108,0.265-0.082,0.382c0.019,0.121-0.049,0.256-0.027,0.373c0.019,0.117,0.234,0.202,0.261,0.324
				c0.018,0.148,0.05,0.306,0.018,0.445c-0.026,0.117,0,0.243-0.026,0.359c-0.028,0.117-0.167,0.207-0.199,0.324
				c-0.018,0.117,0.09,0.265,0.059,0.377c-0.023,0.117,0.058,0.252,0.031,0.369c-0.023,0.117-0.314,0.18-0.332,0.296
				c-0.028,0.117,0.125,0.27,0.099,0.387c-0.023,0.117-0.377,0.162-0.404,0.278c-0.019,0.117,0.265,0.301,0.242,0.418
				c-0.027,0.117-0.058,0.234-0.08,0.346c-0.023,0.117-0.279,0.18-0.311,0.296c-0.027,0.117,0.265,0.306,0.238,0.423
				c-0.031,0.117-0.189,0.198-0.216,0.314c-0.032,0.117,0.094,0.27,0.063,0.387c-0.027,0.117-0.431,0.135-0.467,0.243
				c-0.026,0.117,0.315,0.342,0.274,0.449c-0.031,0.117-0.355,0.144-0.391,0.256c-0.041,0.112,0,0.248-0.041,0.359
				c-0.036,0.113,0.076,0.284,0.031,0.396c-0.041,0.112-0.125,0.202-0.171,0.319c-0.045,0.108-0.17,0.18-0.229,0.283
				c-0.06,0.104-0.284,0.09-0.355,0.189c-0.063,0.094,0.031,0.301-0.045,0.391c-0.072,0.089-0.171,0.162-0.251,0.251
				c-0.082,0.081-0.108,0.225-0.194,0.306c-0.085,0.081-0.282,0.041-0.373,0.117c-0.084,0.072-0.008,0.355-0.094,0.432
				c-0.09,0.072-0.301,0-0.396,0.072c-0.095,0.067-0.041,0.341-0.139,0.413c-0.099,0.072-0.202,0.135-0.301,0.198
				c-0.1,0.063-0.207,0.125-0.302,0.188c-0.107,0.063-0.287,0.004-0.391,0.072c-0.104,0.059-0.148,0.234-0.256,0.292
				c-0.099,0.059-0.404-0.233-0.512-0.175c-0.108,0.058-0.117,0.292-0.225,0.351c-0.108,0.054-0.152,0.238-0.261,0.296
				c-0.107,0.054-0.171,0.198-0.278,0.256c-0.108,0.058-0.234,0.085-0.341,0.135c-0.108,0.049-0.324-0.112-0.44-0.059
				c-0.108,0.049-0.118,0.306-0.225,0.36c-0.108,0.049-0.261,0.022-0.369,0.072c-0.108,0.054-0.328-0.13-0.44-0.077
				c-0.108,0.049-0.225,0.095-0.333,0.149c-0.108,0.053-0.18,0.193-0.288,0.251c-0.108,0.049-0.189,0.157-0.297,0.207
				c-0.108,0.054-0.117,0.31-0.225,0.368c-0.108,0.054-0.265,0.018-0.373,0.072c-0.126,0.063-0.319-0.018-0.418,0.049
				c-0.131,0.076-0.135,0.251-0.207,0.346c-0.09,0.104-0.314,0.171-0.305,0.314c0.008,0.108,0.242,0.17,0.323,0.314
				c0.054,0.099-0.027,0.314,0.063,0.436c0.077,0.095,0.045,0.251,0.108,0.351c0.067,0.099,0.171,0.157,0.234,0.265
				c0.063,0.099,0.144,0.18,0.197,0.288c0.054,0.104,0.378,0.081,0.427,0.189s-0.094,0.306-0.049,0.414
				c0.049,0.107,0.108,0.216,0.148,0.324c0.04,0.117,0.009,0.251,0.049,0.364c0.036,0.113,0.342,0.135,0.377,0.248
				c0.036,0.112-0.22,0.319-0.188,0.432c0.036,0.112,0.027,0.153-0.027,0.288c-0.045,0.107,0.054,0.288-0.018,0.404
				c-0.067,0.108,0.036,0.324-0.027,0.432c-0.072,0.117-0.391-0.067-0.44,0.04c-0.099-0.063-0.081-0.071-0.188-0.13
				c-0.108-0.054-0.315,0.081-0.418,0.026c-0.112-0.063-0.139-0.233-0.229-0.305c-0.104-0.081-0.261-0.09-0.306-0.189
				c-0.054-0.117-0.014-0.278-0.077-0.382c-0.058-0.108-0.359-0.067-0.427-0.171c-0.072-0.104-0.072-0.238-0.148-0.333
				c-0.077-0.094-0.216-0.13-0.297-0.22c-0.085-0.089-0.153-0.17-0.242-0.256c-0.09-0.085-0.022-0.333-0.122-0.409
				c-0.095-0.081-0.323,0.027-0.423-0.045c-0.099-0.072-0.036-0.391-0.144-0.458c-0.099-0.063-0.341,0.117-0.45,0.063
				c-0.107-0.054-0.058-0.458-0.17-0.503c-0.112-0.049-0.252-0.059-0.369-0.099c-0.117-0.045-0.251-0.063-0.368-0.099
				c-0.118-0.04-0.252-0.027-0.369-0.058c-0.117-0.032-0.306,0.211-0.427,0.184c-0.117-0.027-0.229-0.067-0.355-0.09
				c-0.117-0.023-0.189-0.27-0.311-0.301c-0.121-0.031-0.238-0.027-0.355-0.067c-0.117-0.041-0.225-0.09-0.342-0.135
				c-0.108-0.049-0.188-0.167-0.296-0.216c-0.108-0.054-0.203-0.126-0.31-0.189c-0.108-0.058-0.292,0.022-0.396-0.045
				c-0.104-0.063-0.292-0.018-0.391-0.09c-0.095-0.067-0.095-0.283-0.189-0.36C7.831,20.4,7.71,20.346,7.62,20.26
				c-0.09-0.085-0.004-0.341-0.081-0.427c-0.09-0.09-0.157-0.189-0.243-0.288c-0.081-0.085-0.458,0.09-0.544,0
				c-0.085-0.09-0.031-0.311-0.113-0.405c-0.081-0.094-0.22-0.135-0.306-0.229c-0.081-0.094-0.031-0.301-0.107-0.396
				c-0.081-0.094-0.374-0.018-0.454-0.117c-0.076-0.099-0.167-0.184-0.243-0.283c-0.077-0.099,0.099-0.391,0.022-0.49
				c-0.072-0.099-0.18-0.175-0.252-0.274c-0.072-0.108-0.17-0.188-0.233-0.292c-0.072-0.104-0.135-0.211-0.198-0.315
				c-0.063-0.108-0.144-0.207-0.207-0.314c-0.063-0.108-0.027-0.266-0.09-0.374S4.24,15.95,4.186,15.833
				c-0.058-0.108,0-0.274-0.049-0.391c-0.049-0.108,0-0.256-0.036-0.364c-0.04-0.117-0.107-0.215-0.139-0.333
				c-0.036-0.108-0.194-0.193-0.225-0.314c-0.027-0.117,0-0.243-0.027-0.36c-0.018-0.117,0.211-0.27,0.194-0.391
				c-0.018-0.122-0.207-0.211-0.22-0.329c-0.014-0.117-0.063-0.233-0.081-0.35c-0.014-0.117-0.081-0.234-0.09-0.351
				c-0.009-0.121-0.176-0.229-0.189-0.346c-0.009-0.117,0.333-0.274,0.324-0.391c-0.009-0.117-0.126-0.225-0.135-0.341
				c-0.018-0.118,0.063-0.256,0.049-0.373c-0.014-0.118-0.229-0.211-0.256-0.329c-0.018-0.117-0.197-0.202-0.225-0.319
				c-0.018-0.117,0.099-0.266,0.081-0.392c-0.018-0.117-0.18-0.215-0.197-0.332c-0.018-0.117,0-0.248-0.023-0.369
				C2.922,9.338,3.287,9.171,3.273,9.055C3.26,8.933,3.215,8.816,3.197,8.695C3.179,8.578,3.053,8.471,3.035,8.354
				C3.017,8.237,2.806,8.151,2.784,8.03C2.756,7.913,3.098,7.715,3.071,7.599C3.044,7.482,2.608,7.464,2.577,7.347
				C2.541,7.23,2.622,7.095,2.581,6.978C2.541,6.866,2.532,6.745,2.487,6.632C2.442,6.52,2.505,6.358,2.451,6.25
				C2.401,6.142,2.46,5.967,2.396,5.859C2.334,5.756,1.961,5.854,1.894,5.756c-0.059-0.081-0.036-0.27-0.045-0.387
				C1.839,5.261,1.925,5.153,1.912,5.054C2.037,5.037,2.145,4.866,2.28,4.839c0.153-0.036,0.378-0.049,0.486,0
				c0.107,0.054,0.247,0.058,0.355,0.107C3.229,5,3.255,5.225,3.363,5.279c0.108,0.049,0.274-0.009,0.382,0.04
				c0.108,0.05,0.117,0.315,0.225,0.374C4.078,5.742,4.213,5.756,4.32,5.81c0.108,0.049,0.14,0.256,0.248,0.306
				c0.108,0.058,0.391-0.229,0.499-0.171c0.107,0.054,0.189,0.171,0.296,0.225C5.471,6.223,5.48,6.457,5.588,6.515
				c0.108,0.059,0.283-0.009,0.391,0.049c0.108,0.054,0.266,0.018,0.373,0.072C6.46,6.69,6.519,6.843,6.626,6.906
				c0.108,0.059,0.215,0.117,0.328,0.175C7.063,7.145,7.107,7.32,7.215,7.382c0.108,0.063,0.369-0.13,0.477-0.063
				C7.799,7.378,7.89,7.477,7.998,7.544C8.105,7.607,8.177,7.738,8.28,7.81c0.104,0.067,0.167,0.207,0.266,0.284
				c0.099,0.072,0.207,0.139,0.306,0.225c0.089,0.081,0.117,0.233,0.207,0.324C9.139,8.731,9.143,8.884,9.22,8.974
				c0.081,0.099,0.432-0.026,0.503,0.072C9.8,9.145,9.678,9.388,9.75,9.496C9.822,9.59,9.858,9.711,9.921,9.819
				c0.067,0.099,0.018,0.27,0.085,0.374c0.058,0.107,0.391,0.058,0.445,0.166c0.063,0.108,0.211,0.171,0.27,0.278
				c0.054,0.108-0.09,0.328-0.036,0.437c0.059,0.108-0.063,0.31-0.009,0.417c0.054,0.108,0.117,0.207,0.175,0.315
				c0.049,0.108,0.351,0.099,0.4,0.207c0.054,0.107,0.234,0.161,0.288,0.27c0.054,0.108-0.13,0.328-0.081,0.44
				c0.054,0.108,0.18,0.18,0.224,0.297c0.05,0.107,0.085,0.225,0.136,0.337c0.049,0.108,0.049,0.243,0.099,0.355
				c0.045,0.108,0.27,0.144,0.314,0.261c0.049,0.107-0.041,0.278,0.009,0.391c0.049,0.112,0.067,0.233,0.117,0.346
				c0.049,0.107,0.288,0.144,0.333,0.251c0.049,0.117-0.144,0.333-0.09,0.44c0.045,0.117,0.072,0.234,0.125,0.342
				C12.78,15.86,12.896,15.878,12.946,15.995z M14.025,19.73c0.104-0.067,0.211-0.036,0.31-0.104
				c0.099-0.063,0.18-0.148,0.278-0.215c0.1-0.072,0.203-0.135,0.297-0.207c0.099-0.067,0.193-0.14,0.288-0.207
				c0.099-0.072,0.252-0.059,0.351-0.126c0.099-0.063,0.247-0.04,0.346-0.099c0.104-0.063,0.022-0.432,0.126-0.485
				s0.274,0.004,0.382-0.045c0.107-0.045,0.288,0.117,0.404,0.081c0.107-0.036,0.072-0.499,0.184-0.54
				c0.112-0.036,0.306,0.153,0.418,0.108c0.113-0.041,0.189-0.171,0.297-0.216c0.117-0.041,0.216-0.099,0.324-0.148
				c0.117-0.04,0.297,0.095,0.404,0.049c0.108-0.049,0.234-0.071,0.342-0.125c0.108-0.049,0.153-0.229,0.256-0.283
				c0.108-0.059,0.185-0.148,0.292-0.203c0.099-0.054,0.243-0.054,0.341-0.112c0.099-0.059,0.198-0.14,0.297-0.202
				c0.094-0.063,0.252-0.054,0.342-0.131c0.099-0.076,0.26-0.076,0.351-0.157c0.09-0.082,0.072-0.274,0.157-0.36
				s0.288-0.063,0.364-0.162c0.076-0.085-0.099-0.391-0.031-0.485c0.072-0.094,0.229-0.126,0.292-0.225
				c0.063-0.099,0.027-0.251,0.09-0.355c0.054-0.095,0.163-0.18,0.238-0.266c0.077-0.09,0.266-0.044,0.351-0.117
				c0.099-0.081-0.022-0.396,0.058-0.472c0.091-0.09,0.315-0.031,0.392-0.122c0.081-0.095,0.166-0.184,0.238-0.283
				c0.067-0.103,0.162-0.185,0.216-0.292c0.058-0.108,0.251-0.167,0.292-0.279c0.05-0.112,0.05-0.261,0.081-0.377
				c0.032-0.117,0.018-0.252,0.041-0.373c0.027-0.117-0.189-0.265-0.17-0.391c0.008-0.117,0.359-0.225,0.364-0.342
				c0.004-0.126-0.082-0.256-0.086-0.377c-0.005-0.122-0.135-0.238-0.143-0.36c-0.005-0.125,0.171-0.251,0.171-0.377
				c-0.009-0.122-0.355-0.238-0.355-0.36c0-0.121,0.031-0.26,0.041-0.377c0.009-0.126,0.27-0.216,0.287-0.342
				c0.019-0.121,0.086-0.216,0.126-0.328c0.036-0.117-0.216-0.355-0.158-0.463c0.059-0.112,0.409-0.081,0.454-0.189
				c0.045-0.117-0.099-0.296-0.063-0.414c0.027-0.117,0.054-0.233,0.067-0.351c0.013-0.121-0.018-0.238-0.018-0.359
				s0.108-0.251,0.095-0.369c-0.019-0.126,0.09-0.27,0.071-0.391c-0.022-0.117-0.107-0.229-0.139-0.346
				c-0.027-0.117-0.019-0.252-0.059-0.369c-0.027-0.117-0.076-0.225-0.108-0.346c-0.035-0.117-0.202-0.193-0.242-0.31
				c-0.033-0.117-0.216-0.189-0.252-0.306c-0.031-0.117-0.153-0.225-0.17-0.342c-0.027-0.117,0.323-0.306,0.305-0.422
				c-0.018-0.126-0.382-0.225-0.387-0.342c0-0.126,0.387-0.233,0.396-0.351c0-0.018-0.274-0.014-0.382-0.054
				c-0.13,0.099-0.148,0.342-0.296,0.454c-0.095,0.077-0.185,0.158-0.283,0.234c-0.089,0.077-0.233,0.095-0.333,0.167
				c-0.09,0.076-0.414-0.117-0.508-0.045c-0.095,0.076-0.031,0.351-0.131,0.422c-0.09,0.077-0.333-0.022-0.422,0.054
				c-0.095,0.072-0.036,0.342-0.135,0.422C20.879,5,20.686,4.956,20.592,5.037c-0.099,0.072-0.248,0.077-0.342,0.148
				c-0.099,0.077-0.072,0.301-0.17,0.377c-0.099,0.077-0.198,0.149-0.297,0.22c-0.108,0.077-0.18,0.194-0.292,0.252
				c-0.107,0.063-0.274,0.018-0.391,0.076c-0.107,0.059-0.162,0.238-0.274,0.292c-0.112,0.054-0.175,0.211-0.283,0.27
				c-0.117,0.059-0.355-0.117-0.463-0.054s-0.108,0.279-0.207,0.359c-0.094,0.081-0.431-0.081-0.517,0.018
				c-0.081,0.085,0.081,0.386,0,0.481c-0.081,0.085-0.157,0.176-0.234,0.265c-0.072,0.095-0.337,0.036-0.404,0.135
				c-0.076,0.09,0.108,0.382,0.036,0.477c-0.072,0.09-0.252,0.112-0.319,0.211c-0.067,0.095,0,0.283-0.067,0.382
				c-0.063,0.099-0.454-0.009-0.512,0.094c-0.067,0.103,0.207,0.404,0.144,0.508c-0.063,0.103-0.378,0.054-0.436,0.162
				c-0.059,0.104-0.049,0.252-0.099,0.351c-0.049,0.108,0.04,0.284-0.009,0.391c-0.049,0.108-0.14,0.193-0.189,0.306
				c-0.044,0.108-0.166,0.185-0.211,0.292c-0.045,0.117-0.274,0.158-0.315,0.27c-0.041,0.113,0.108,0.288,0.072,0.405
				c-0.036,0.112-0.095,0.22-0.126,0.337c-0.036,0.112,0.013,0.247-0.014,0.364c-0.031,0.117-0.211,0.197-0.238,0.314
				c-0.018,0.117,0.215,0.279,0.197,0.4c-0.018,0.117-0.215,0.202-0.233,0.319c-0.014,0.121,0.225,0.265,0.215,0.381
				c-0.009,0.118-0.022,0.229-0.031,0.347c-0.004,0.117-0.018,0.233-0.022,0.351c-0.009,0.117-0.153,0.234-0.153,0.351
				s0.135,0.229,0.135,0.35c0.009,0.171-0.531,0.311-0.558,0.486c-0.018,0.117,0.153,0.27,0.135,0.386
				c-0.018,0.117,0.099,0.261,0.081,0.378s0.058,0.251,0.036,0.364c-0.027,0.112-0.072,0.229-0.09,0.346
				c-0.018,0.117-0.279,0.198-0.296,0.315c-0.018,0.117,0.188,0.27,0.17,0.386c-0.018,0.117-0.125,0.216-0.144,0.333
				c-0.018,0.117-0.288,0.207-0.306,0.323c-0.009,0.117-0.036,0.234-0.049,0.351c-0.009,0.099,0.121,0.243,0.157,0.346
				c0.032,0.085,0.135,0.158,0.18,0.256C13.926,19.595,13.984,19.636,14.025,19.73z M3.665,6.708C3.683,6.83,3.62,6.916,3.638,7.037
				c0.018,0.122,0.058,0.238,0.081,0.36C3.736,7.518,3.745,7.644,3.763,7.76c0.018,0.126,0.036,0.243,0.054,0.369
				C3.835,8.25,3.754,8.381,3.776,8.502c0.018,0.122-0.071,0.256-0.049,0.382c0.018,0.122,0.382,0.189,0.4,0.315
				C4.146,9.32,4.029,9.459,4.051,9.581c0.018,0.121-0.189,0.274-0.171,0.4c0.018,0.121,0.477,0.179,0.495,0.296
				c0.018,0.126-0.198,0.283-0.18,0.405c0.018,0.125,0.13,0.233,0.148,0.35c0.018,0.126,0.059,0.243,0.081,0.364
				c0.018,0.122-0.157,0.274-0.13,0.4c0.018,0.117,0.009,0.248,0.032,0.369c0.022,0.122,0.184,0.22,0.202,0.337
				c0.027,0.121,0.09,0.233,0.108,0.355c0.027,0.126-0.027,0.261,0,0.377c0.022,0.126,0.054,0.243,0.081,0.364
				c0.027,0.117-0.044,0.256-0.018,0.373s-0.041,0.265-0.009,0.382c0.036,0.117,0.215,0.193,0.251,0.31
				c0.031,0.117-0.081,0.279-0.045,0.396c0.036,0.117,0.396,0.117,0.436,0.233c0.041,0.108-0.014,0.261,0.031,0.373
				c0.045,0.113,0.193,0.175,0.243,0.283c0.045,0.108,0.059,0.238,0.108,0.346c0.054,0.108-0.036,0.292,0.022,0.4
				c0.059,0.108,0.391,0.054,0.45,0.158c0.059,0.103-0.049,0.301,0.018,0.409c0.067,0.099,0.117,0.207,0.188,0.306
				c0.067,0.099,0.112,0.216,0.185,0.306c0.077,0.094,0.041,0.288,0.117,0.378c0.081,0.089,0.198,0.153,0.274,0.243
				c0.081,0.089,0.203,0.144,0.283,0.229c0.09,0.085,0.333,0,0.423,0.081c0.089,0.077-0.041,0.418,0.054,0.499
				c0.094,0.072,0.242,0.085,0.341,0.158c0.1,0.067,0.27,0.031,0.369,0.094c0.099,0.072,0.108,0.297,0.215,0.355
				c0.099,0.059,0.378-0.175,0.486-0.112c0.104,0.063,0.198,0.135,0.306,0.189c0.107,0.059,0.099,0.337,0.207,0.391
				c0.108,0.059,0.198,0.148,0.306,0.203c0.108,0.054,0.36-0.189,0.467-0.14c0.113,0.049,0.082,0.4,0.198,0.45
				c0.107,0.049,0.296-0.081,0.404-0.031c0.117,0.044,0.225,0.099,0.333,0.139c0.117,0.049,0.243,0.049,0.351,0.099
				c0.117,0.045,0.189,0.193,0.296,0.238c0.117,0.045,0.18,0.207,0.292,0.252c0.112,0.044,0.248,0.026,0.364,0.072
				c0.108,0.045,0.207,0.125,0.323,0.171c0.108,0.04,0.225,0.076,0.342,0.117c0.108,0.045,0.274-0.041,0.382,0.009
				c0.112,0.045,0.283-0.058,0.391-0.018c0.117,0.05,0.009,0.059,0.117,0.108c-0.045-0.108,0.198-0.108,0.148-0.215
				c-0.049-0.108-0.422-0.067-0.472-0.175c-0.049-0.108,0.251-0.373,0.198-0.481c-0.045-0.107-0.292-0.125-0.342-0.233
				c-0.044-0.108-0.247-0.144-0.296-0.251c-0.05-0.108-0.108-0.211-0.153-0.324c-0.045-0.108-0.022-0.248-0.072-0.355
				c-0.045-0.108,0.233-0.364,0.188-0.472s-0.323-0.117-0.369-0.225c-0.045-0.108,0.117-0.306,0.072-0.414
				c-0.05-0.108-0.324-0.126-0.369-0.234c-0.045-0.108,0.045-0.274,0-0.387c-0.045-0.112-0.009-0.251-0.054-0.368
				c-0.045-0.099-0.27-0.135-0.305-0.234c-0.036-0.108-0.077-0.216-0.108-0.324c-0.036-0.108-0.121-0.198-0.153-0.306
				c-0.036-0.107,0.054-0.242,0.018-0.351c-0.027-0.108-0.188-0.18-0.225-0.283c-0.027-0.108-0.167-0.18-0.207-0.284
				c-0.036-0.107,0.18-0.296,0.144-0.404c-0.044-0.108-0.251-0.148-0.297-0.256c-0.049-0.108,0.207-0.355,0.162-0.463
				c-0.054-0.108-0.391-0.081-0.44-0.184c-0.054-0.108-0.099-0.216-0.153-0.319c-0.049-0.108,0.117-0.314,0.063-0.423
				c-0.054-0.107-0.396-0.089-0.44-0.197c-0.045-0.108,0.031-0.27-0.009-0.382c-0.045-0.113-0.233-0.176-0.27-0.284
				c-0.04-0.117,0.283-0.364,0.243-0.481c-0.045-0.117-0.45-0.085-0.499-0.202c-0.049-0.112,0.175-0.346,0.122-0.458
				c-0.054-0.112-0.18-0.189-0.238-0.296c-0.059-0.108-0.265-0.13-0.324-0.238c-0.067-0.108-0.09-0.229-0.157-0.333
				c-0.067-0.104-0.063-0.252-0.14-0.351c-0.067-0.099,0.014-0.324-0.067-0.418c-0.071-0.099-0.306-0.072-0.386-0.162
				c-0.081-0.099-0.144-0.207-0.225-0.296c-0.085-0.09-0.225-0.126-0.31-0.216c-0.085-0.09-0.058-0.292-0.148-0.377
				c-0.09-0.081-0.359,0.026-0.449-0.054C7.804,9.248,7.835,9.028,7.741,8.947C7.646,8.866,7.391,8.992,7.296,8.911
				C7.202,8.83,7.116,8.758,7.018,8.682C6.918,8.605,6.829,8.524,6.73,8.457C6.631,8.381,6.618,8.192,6.519,8.125
				C6.419,8.052,6.245,8.084,6.146,8.017C6.038,7.944,6.164,7.544,6.064,7.473C5.966,7.405,5.75,7.509,5.647,7.455
				C5.543,7.396,5.373,7.477,5.265,7.428c-0.108-0.045-0.247,0.009-0.36-0.036C4.792,7.347,4.698,7.284,4.586,7.248
				C4.473,7.212,4.442,6.942,4.33,6.897C4.217,6.861,4.029,7.037,3.916,6.996C3.786,6.934,3.776,6.753,3.665,6.708z"/>
		</g>
		<g>
			<path d="M48.892,37.48c0.099,0.08,0.453-0.163,0.552-0.072c0.095,0.076,0.009,0.368,0.112,0.458
				c0.095,0.081,0.233,0.107,0.337,0.198c0.095,0.076,0.365,0.14,0.464,0.225c-0.099,0.067-0.266,0.274-0.364,0.342
				c-0.104,0.063-0.22,0.12-0.323,0.18c-0.108,0.063-0.202,0.161-0.306,0.215c-0.108,0.055-0.383-0.238-0.49-0.188
				c-0.108,0.046-0.135,0.287-0.252,0.333c-0.107,0.04-0.216,0.099-0.333,0.14c-0.116,0.035-0.265-0.059-0.382-0.032
				c-0.121,0.036-0.229,0.063-0.346,0.09c-0.117,0.027-0.207,0.176-0.324,0.198c-0.116,0.027-0.242,0.009-0.359,0.027
				c-0.121,0.018-0.266-0.127-0.382-0.108c-0.122,0.018-0.238,0.041-0.355,0.059c-0.116,0.019-0.193,0.332-0.313,0.351
				c-0.117,0.022-0.252-0.019-0.378-0.005c-0.122,0.019-0.279-0.278-0.404-0.265c-0.127,0.013-0.243,0.067-0.369,0.076
				c-0.121,0.018-0.234,0.135-0.359,0.144c-0.126,0.009-0.243,0.045-0.368,0.055c-0.127,0.009-0.234,0.224-0.36,0.242
				c-0.121,0.009-0.27-0.233-0.396-0.225c-0.117,0.009-0.233,0.188-0.355,0.197c-0.121,0.009-0.265-0.179-0.391-0.166
				c-0.117,0.014-0.233,0.185-0.351,0.193c-0.126,0.009-0.256-0.036-0.378-0.019c-0.121,0.01-0.26-0.04-0.377-0.026
				s-0.243,0.036-0.359,0.054c-0.117,0.014-0.238,0.031-0.355,0.05c-0.116,0.018-0.22,0.166-0.337,0.188
				c-0.117,0.019-0.27-0.157-0.387-0.139c-0.117,0.018-0.238,0.04-0.354,0.059c-0.118,0.018-0.194,0.341-0.311,0.363
				c-0.117,0.019-0.252-0.081-0.378-0.058c-0.117,0.017-0.207,0.192-0.332,0.211c-0.117,0.018-0.252-0.104-0.378-0.086
				c-0.117,0.019-0.265-0.148-0.387-0.13c-0.116,0.018-0.193,0.306-0.311,0.327c-0.121,0.019-0.382,0.06-0.503,0.077
				c-0.036-0.126,0.185-0.368,0.148-0.494c0.116-0.063,0.045-0.261,0.157-0.333c0.112-0.076,0.346,0.063,0.463,0
				c0.126-0.063,0.144-0.4,0.278-0.418c0.117-0.019,0.248,0.05,0.368,0.032c0.117-0.023,0.262,0.135,0.378,0.116
				c0.122-0.018,0.198-0.351,0.314-0.369c0.118-0.018,0.243,0.015,0.36-0.004c0.116-0.018,0.256,0.122,0.378,0.107
				c0.116-0.014,0.215-0.238,0.332-0.256c0.116-0.009,0.243,0.032,0.359,0.018c0.122-0.018,0.265,0.14,0.382,0.126
				c0.121-0.013,0.238-0.063,0.355-0.072c0.117-0.018,0.261,0.145,0.378,0.127c0.116-0.01,0.188-0.365,0.314-0.378
				c0.121-0.014,0.252,0.072,0.368,0.054c0.117-0.009,0.234-0.09,0.351-0.108c0.117-0.008,0.279,0.306,0.4,0.288
				c0.117-0.014,0.229-0.071,0.355-0.089c0.117-0.019,0.202-0.262,0.323-0.274c0.117-0.014,0.261,0.125,0.382,0.107
				c0.122-0.022,0.202-0.307,0.319-0.319c0.108-0.014,0.247,0.152,0.355,0.131c0.107-0.022,0.238,0.021,0.342-0.01
				c0.106-0.026,0.202-0.104,0.306-0.135s0.206-0.076,0.313-0.104c0.108-0.026,0.166-0.242,0.274-0.27
				c0.117-0.026,0.243,0,0.36-0.026c0.116-0.031,0.296,0.153,0.413,0.121c0.116-0.032,0.234-0.04,0.351-0.067
				c0.126-0.018,0.206-0.234,0.324-0.252c0.125-0.014,0.255-0.099,0.377-0.09c0.135,0.009,0.251,0.225,0.359,0.206
				c0.135-0.013,0.161-0.322,0.252-0.368c0.116-0.054,0.386,0.135,0.463,0.046c0.067-0.091-0.041-0.297,0-0.414
				c0.031-0.108,0.126-0.197,0.14-0.332C49.044,37.31,48.882,37.48,48.892,37.48z"/>
		</g>
		<g>
			<path d="M15.674,17.276c-0.013-0.122,0.013-0.148,0.004-0.265c-0.004-0.122-0.202-0.238-0.202-0.359
				c0-0.122,0.198-0.238,0.202-0.355c0.009-0.121,0.148-0.22,0.167-0.337c0.018-0.125-0.049-0.243-0.018-0.359
				c0.018-0.122-0.274-0.324-0.242-0.44c0.035-0.117,0.359-0.14,0.399-0.256c0.041-0.112,0.193-0.166,0.248-0.274
				c0.054-0.108-0.189-0.369-0.13-0.472s0.076-0.247,0.144-0.346c0.067-0.099,0.49,0.045,0.562-0.054
				c0.067-0.09-0.189-0.44-0.108-0.54c0.077-0.09,0.359,0,0.44-0.09c0.072-0.09,0.099-0.225,0.171-0.314
				c0.072-0.09,0.009-0.297,0.081-0.386c0.072-0.09,0.139-0.189,0.207-0.279c0.072-0.09,0.153-0.176,0.225-0.266
				c0.072-0.094,0.108-0.211,0.18-0.301c0.071-0.099,0.449,0.044,0.517-0.05c0.072-0.094-0.031-0.319,0.041-0.414
				c0.067-0.094,0.117-0.202,0.189-0.292c0.072-0.099,0.251-0.108,0.319-0.207c0.072-0.09,0.14-0.185,0.207-0.279
				c0.067-0.095,0.041-0.261,0.108-0.355c0.067-0.095,0.166-0.171,0.233-0.266c0.067-0.089,0.274-0.089,0.346-0.188
				c0.063-0.09,0.135-0.189,0.198-0.283c0.072-0.104-0.122-0.364-0.072-0.481c0.059-0.107,0.153-0.193,0.198-0.31
				c0.036-0.121,0.378-0.139,0.413-0.256c0.036-0.117,0.045-0.251,0.082-0.373c0.04-0.122-0.027-0.265,0.022-0.382
				s0.067-0.243,0.122-0.36c0.045-0.117-0.09-0.305-0.045-0.422c0.045-0.121,0.333-0.135,0.386-0.252
				c0.045-0.117-0.058-0.301-0.014-0.418c0.05-0.117,0.203-0.076,0.257-0.193c0.117,0.059,0.197-0.036,0.296,0.018
				c0.126,0.072,0.194,0.189,0.27,0.266c0.099,0.094,0.081,0.189,0.099,0.31c0.014,0.104,0.009,0.171-0.049,0.315
				c-0.036,0.099-0.086,0.198-0.166,0.315c-0.063,0.107-0.009,0.283-0.072,0.386c-0.063,0.104-0.288,0.112-0.351,0.216
				c-0.063,0.104-0.126,0.216-0.184,0.319c-0.059,0.108,0.148,0.364,0.09,0.472s-0.216,0.162-0.274,0.265
				c-0.063,0.108,0.018,0.284-0.045,0.391c-0.063,0.108-0.237,0.148-0.301,0.256c-0.058,0.108-0.283,0.121-0.342,0.229
				c-0.058,0.108,0.126,0.347,0.067,0.454c-0.063,0.108-0.067,0.248-0.125,0.355c-0.054,0.104-0.432,0.036-0.494,0.144
				c-0.063,0.108,0.081,0.324,0.018,0.432c-0.063,0.107-0.333,0.089-0.396,0.198c-0.059,0.099,0.144,0.359,0.081,0.467
				c-0.058,0.108-0.198,0.167-0.256,0.27c-0.058,0.104-0.274,0.117-0.337,0.225c-0.067,0.107,0.121,0.395,0.045,0.499
				c-0.072,0.099-0.198,0.175-0.288,0.274c-0.081,0.094-0.283,0.085-0.373,0.18c-0.085,0.094-0.023,0.328-0.112,0.418
				c-0.09,0.095-0.216,0.14-0.297,0.233c-0.09,0.095-0.306,0.077-0.382,0.176c-0.081,0.099-0.131,0.215-0.203,0.323
				c-0.063,0.099-0.288,0.117-0.346,0.225c-0.059,0.108,0.175,0.373,0.121,0.481c-0.054,0.107-0.203,0.166-0.252,0.283
				c-0.054,0.108-0.049,0.247-0.094,0.355c-0.049,0.112-0.409,0.085-0.463,0.193c-0.049,0.108-0.059,0.238-0.108,0.346
				c-0.054,0.107,0.09,0.319,0.036,0.427c-0.054,0.108-0.261,0.121-0.333,0.225c-0.072,0.099,0.063,0.36-0.018,0.458
				C15.917,17.276,15.746,17.177,15.674,17.276z"/>
		</g>
		<g>
			<path d="M11.054,19.618c-0.081-0.072-0.09-0.459-0.175-0.53c-0.085-0.082-0.112-0.225-0.202-0.297
				c-0.09-0.076-0.279-0.018-0.364-0.099c-0.085-0.077-0.346,0.031-0.427-0.05c-0.085-0.077,0.117-0.436,0.036-0.517
				c-0.081-0.085-0.135-0.161-0.207-0.251c-0.072-0.09-0.414,0.027-0.486-0.063c-0.071-0.095,0.014-0.302-0.053-0.396
				c-0.072-0.095-0.248-0.108-0.315-0.207c-0.063-0.095-0.233-0.126-0.297-0.225c-0.063-0.099,0.135-0.355,0.081-0.458
				c-0.059-0.099-0.153-0.179-0.207-0.283c-0.049-0.104-0.274-0.126-0.324-0.234c-0.045-0.104,0.09-0.283,0.045-0.391
				c-0.036-0.108,0.045-0.252,0.013-0.364c-0.031-0.108-0.135-0.193-0.166-0.311c-0.018-0.108-0.378-0.166-0.391-0.283
				c-0.013-0.112,0.256-0.274,0.225-0.387c-0.026-0.112,0.05-0.265,0.014-0.373c-0.036-0.108-0.387-0.094-0.432-0.203
				c-0.049-0.103-0.144-0.18-0.188-0.283c-0.054-0.099,0.278-0.396,0.225-0.495c-0.05-0.104-0.467-0.009-0.526-0.112
				c-0.049-0.104,0.135-0.337,0.085-0.432c-0.054-0.104-0.167-0.175-0.216-0.279c-0.054-0.103-0.266-0.13-0.315-0.238
				c-0.044-0.113-0.107-0.225-0.153-0.337c-0.054-0.112-0.099-0.229-0.148-0.346c-0.049-0.112-0.148-0.211-0.198-0.323
				c-0.049-0.113,0.247-0.378,0.198-0.5c-0.049-0.117-0.297-0.144-0.342-0.261C5.795,9.976,5.723,9.869,5.687,9.747
				C5.651,9.666,5.804,9.563,5.844,9.45C5.875,9.352,5.88,9.289,5.903,9.199C6.002,9.23,6.105,9.136,6.217,9.158
				c0.135,0.031,0.251,0.108,0.301,0.188c0.059,0.108-0.018,0.302,0.041,0.4c0.063,0.107,0.126,0.216,0.188,0.324
				c0.063,0.107,0.387,0.063,0.445,0.171c0.063,0.107,0.076,0.242,0.139,0.35c0.059,0.108-0.157,0.369-0.099,0.477
				c0.058,0.108,0.148,0.198,0.207,0.306c0.054,0.108,0.207,0.171,0.261,0.283s0.13,0.211,0.18,0.324
				c0.053,0.112,0.292,0.139,0.341,0.256c0.049,0.107-0.144,0.314-0.099,0.431c0.041,0.117,0.238,0.175,0.274,0.292
				c0.041,0.117-0.126,0.292-0.085,0.409c0.027,0.117,0.216,0.189,0.251,0.306c0.032,0.117,0.009,0.248,0.045,0.364
				c0.036,0.117,0.009,0.256,0.044,0.373c0.041,0.117,0.09,0.225,0.14,0.342c0.049,0.108,0.099,0.225,0.157,0.332
				c0.054,0.118,0.234,0.162,0.292,0.274c0.058,0.113-0.049,0.315,0.013,0.423C9.319,15.891,9.391,16,9.449,16.107
				c0.067,0.107,0.391,0.049,0.458,0.157c0.067,0.108,0.04,0.274,0.104,0.378c0.063,0.103,0.27,0.126,0.333,0.229
				c0.063,0.103,0.018,0.283,0.085,0.391s-0.023,0.314,0.041,0.422c0.067,0.099,0.368,0.063,0.431,0.167
				c0.067,0.104,0.185,0.184,0.252,0.292c0.054,0.09-0.216,0.369-0.162,0.468c0.054,0.099,0.301,0.094,0.346,0.198
				c0.05,0.099-0.126,0.162-0.077,0.261C11.144,19.173,11.188,19.528,11.054,19.618z"/>
		</g>
	</g>
</g>
</svg>
