<?xml version="1.0" encoding="utf-8"?>
<!-- Generator: Adobe Illustrator 16.0.0, SVG Export Plug-In . SVG Version: 6.00 Build 0)  -->
<!DOCTYPE svg PUBLIC "-//W3C//DTD SVG 1.1//EN" "http://www.w3.org/Graphics/SVG/1.1/DTD/svg11.dtd">
<svg version="1.1" id="圖層_1" xmlns="http://www.w3.org/2000/svg" xmlns:xlink="http://www.w3.org/1999/xlink" x="0px" y="0px"
	 width="55px" height="55px" viewBox="0 0 55 55" enable-background="new 0 0 55 55" xml:space="preserve">
<g>
	<path fill="#FBEEE5" d="M31.771,50.373c0.122-0.994,0.27-1.859,0.326-2.736c0.039-0.513-0.092-1.034-0.087-1.556
		c0.004-1.26,0.03-2.527,0.065-3.796c0.039-1.62,0.117-3.236,0.13-4.856c0.009-0.882,0.413-1.316,1.256-1.478
		c1.203-0.238,2.394-0.6,3.605-0.786c4.765-0.721,9.534-1.381,14.291-2.103c0.847-0.126,1.16,0.152,1.047,0.96
		c-0.13,0.943-0.321,1.881-0.412,2.828c-0.04,0.378,0.187,0.769,0.169,1.151c-0.078,1.359-0.226,2.71-0.321,4.074
		c-0.061,0.995-0.152,2.007-0.087,2.997c0.057,0.938-0.139,1.504-1.173,1.686c-3.84,0.695-7.672,1.434-11.503,2.172
		c-2.059,0.4-4.109,0.843-6.164,1.252C32.609,50.256,32.292,50.286,31.771,50.373z M34.881,44.683
		c-0.096,0.026-0.178,0.044-0.27,0.065c-0.013,1.533,0.122,1.594,1.616,1.203c1.329-0.352,2.676-0.673,4.031-0.86
		c1.146-0.156,2.35,0.018,3.492-0.183c1.499-0.269,2.984-0.694,4.423-1.198c0.486-0.165,1.095-0.734,1.155-1.182
		c0.261-1.895,0.348-3.814,0.478-5.726c0.044-0.643-0.304-0.955-0.942-0.852c-2.168,0.356-4.327,0.708-6.485,1.095
		c-1.277,0.23-2.555,0.765-3.814,0.73c-1.333-0.044-2.328,0.764-3.553,0.912c-0.113,0.009-0.274,0.174-0.296,0.286
		c-0.165,0.99-0.43,1.981-0.408,2.972C34.334,42.858,34.682,43.771,34.881,44.683z"/>
	<path fill="#C9BDA1" d="M22.571,27.515c0.799-0.322,1.581-0.721,2.407-0.938c3.796-1.008,7.609-1.972,11.428-2.937
		c0.443-0.113,0.908-0.122,1.551-0.208c-0.99,2.029-1.876,3.91-2.832,5.77c-0.139,0.261-0.66,0.3-0.886,0.547
		c-0.313,0.353-0.608,0.777-0.713,1.217c-0.034,0.13,0.608,0.564,0.965,0.604c0.808,0.074,1.642,0.065,2.454-0.039
		c1.829-0.239,3.653-0.521,5.469-0.843c1.538-0.278,1.377-0.469,1.478-2.007c0.061-0.974,1.008-1.895,1.599-2.815
		c0.043-0.065,0.46-0.009,0.582,0.117c0.799,0.852,1.563,1.733,2.341,2.603c0.144,0.161,0.266,0.387,0.435,0.443
		c1.464,0.486,2.103,1.772,3.105,3.032c-0.69,0.087-1.173,0.135-1.646,0.208c-3.532,0.53-7.072,1.043-10.604,1.611
		c-2.033,0.331-4.066,0.717-6.073,1.173c-1.086,0.248-1.859,0.048-2.754-0.69c-2.58-2.154-5.282-4.166-7.936-6.229
		c-0.113-0.087-0.265-0.126-0.395-0.183C22.553,27.802,22.562,27.654,22.571,27.515z"/>
	<path fill="#E5C8B5" d="M30.997,50.174c-3.188-2.802-6.246-5.456-9.247-8.171c-0.352-0.317-0.586-0.943-0.6-1.438
		c-0.065-2.128-0.313-4.309,0.078-6.377c0.256-1.372-0.091-2.649,0.135-3.948c0.074-0.417,0.308-0.969,0.63-1.125
		c0.295-0.135,0.882,0.087,1.203,0.33c1.542,1.138,3.058,2.319,4.535,3.536c0.577,0.469,1.06,1.068,1.581,1.607
		c0.147,0.156,0.273,0.399,0.451,0.456c1.508,0.43,1.521,1.741,1.512,2.866C31.254,41.92,31.102,45.934,30.997,50.174z"/>
	<path fill="#FFFFFF" d="M41.058,20.382c0.087,0.582,0.079,0.908,0.196,1.182c0.126,0.295,0.369,0.543,0.577,0.791
		c0.188,0.217,0.465,0.374,0.6,0.612c0.296,0.517,0.452,1.09,1.277,0.595c0.195-0.122,0.773,0.27,1.077,0.534
		c0.13,0.113,0.078,0.556-0.035,0.787c-0.434,0.886-0.929,1.746-1.39,2.619c-0.855,1.63-2.172,2.237-4.005,2.086
		c-0.782-0.065-1.595,0.339-2.402,0.499c-0.878,0.174-1.194-0.13-0.813-0.877c1.373-2.711,2.793-5.396,4.214-8.076
		C40.459,20.925,40.676,20.782,41.058,20.382z"/>
	<path fill="#FFFFFF" d="M45.106,22.25c0.53-1.025,1.077-2.028,1.572-3.066c0.113-0.235,0.018-0.565,0.018-0.852
		c-0.261,0.122-0.616,0.178-0.773,0.387c-0.534,0.725-0.99,1.507-1.489,2.263c-0.144,0.217-0.313,0.413-0.474,0.621
		c-0.087-0.039-0.174-0.083-0.266-0.122c0.305-0.908,0.613-1.816,0.917-2.724c-0.13-0.07-0.252-0.135-0.382-0.2
		c-0.408,0.443-0.826,0.878-1.243,1.325c-0.087-0.057-0.165-0.109-0.252-0.161c0.205-0.435,0.392-0.877,0.613-1.294
		c1.221-2.276,3.105-3.893,5.417-4.909c0.442-0.2,1.381,0.408,1.894,0.86c0.321,0.278,0.495,1.073,0.33,1.468
		c-0.273,0.673-0.921,1.186-1.316,1.82c-0.396,0.612-0.655,1.316-1.017,1.959c-0.438,0.777-0.925,1.529-1.498,2.476
		c0.091-0.912,0.156-1.599,0.226-2.285c-0.117-0.026-0.234-0.052-0.352-0.078c-0.552,0.891-1.108,1.781-1.659,2.676
		C45.28,22.354,45.193,22.302,45.106,22.25z"/>
	<path fill="#EB6668" d="M8.218,36.125c-3.249-0.021-4.935-1.603-5.503-4.613C2.098,28.263,5.143,23.31,8.9,23.119
		c1.672-0.083,3.163,0.2,4.305,1.538c1.112,1.294,1.929,2.737,1.99,4.475c0.087,2.137-2.033,5.456-4.048,6.242
		C10.091,35.786,8.935,35.951,8.218,36.125z M9.417,31.164c1.042,0.07,0.938,1.061,1.316,1.651c0.295,0.469,0.53,1.077,1.221,0.552
		c1.468-1.125,2.029-2.672,1.981-4.479c-0.048-1.999-1.095-3.563-2.554-4.71c-1.216-0.947-4.648,0.018-5.621,1.373
		c-1.416,1.963-2.606,4.022-2.293,6.595c0.043,0.321,0.187,0.634,0.287,0.955c0.313-0.147,0.678-0.234,0.934-0.447
		c0.838-0.69,1.559-1.542,2.467-2.111c1.073-0.664,1.116-1.411,0.717-2.445c-0.208-0.53-0.244-1.134-0.348-1.703
		c0.139-0.026,0.278-0.061,0.417-0.096c0.539,1.208,1.112,2.407,1.581,3.641c0.122,0.313-0.113,0.747-0.178,1.125
		c-0.205-0.291-0.409-0.578-0.712-1.021c-1.369,1.038-2.707,2.046-3.645,3.466c-0.095,0.14,0.157,0.669,0.378,0.83
		c1.234,0.855,2.528,0.921,3.893,0.248c0.712-0.356,0.956-0.773,0.647-1.551C9.661,32.441,9.569,31.79,9.417,31.164z"/>
	<path fill="#FFFFFF" d="M35.516,45.222c0-1.781-0.026-3.362,0.03-4.935c0.009-0.227,0.364-0.557,0.63-0.644
		c1.434-0.478,2.88-1.19,4.348-1.26c1.82-0.096,3.437-1.403,5.33-0.756c0.2,0.065,0.504-0.217,0.777-0.286
		c0.504-0.14,1.013-0.243,1.499-0.356c0.218,1.003,0.53,1.833,0.53,2.658c-0.009,1.013-0.248,2.033-0.465,3.032
		c-0.039,0.17-0.456,0.321-0.717,0.369c-2.745,0.465-5.495,0.891-8.236,1.373C38.052,44.622,36.87,44.926,35.516,45.222z
		 M37.34,40.413c-0.122-0.014-0.252-0.031-0.374-0.039c-0.121,0.408-0.417,0.859-0.33,1.216c0.147,0.608,0.509,1.169,0.825,1.72
		c0.126,0.218,0.383,0.365,0.582,0.539c0.179-0.208,0.426-0.391,0.513-0.634c0.188-0.53,0.3-1.086,0.443-1.629
		c0.313,0.859,0.777,1.489,1.686,1.246c1.233-0.33,1.194-1.442,1.155-2.45c0.899-0.378,1.269-0.13,1.212,0.809
		c-0.026,0.435,0.083,0.877,0.135,1.312c0.122,0,0.243-0.009,0.369-0.009c0.291-1.116,0.596-2.232,0.917-3.458
		c-1.382,0.174-2.85,0.174-4.179,0.591c-0.921,0.287-1.655,1.156-2.468,1.756c0.018,0.043-0.039-0.157-0.126-0.348
		C37.601,40.816,37.461,40.617,37.34,40.413z M44.672,42.042c0.747,0.434,1.616,0.412,2.346-0.218
		c0.257-0.222,0.443-0.781,0.348-1.095c-0.139-0.451-0.564-0.816-0.877-1.237c0.087-0.092,0.339-0.361,0.66-0.709
		c-1.659-0.417-1.89-0.243-2.068,1.19C44.994,40.643,44.82,41.295,44.672,42.042z"/>
	<path fill="#EB6668" d="M25.177,12.772c-2.055-1.508-2.398-3.289-1.377-5.465c1.099-2.346,5.303-4.092,7.775-2.485
		c1.099,0.712,1.916,1.581,2.037,2.954c0.113,1.329-0.039,2.619-0.795,3.753c-0.934,1.395-3.796,2.528-5.438,2.103
		C26.52,13.415,25.707,12.98,25.177,12.772z M28.213,10.166c0.635,0.521,0.113,1.103,0.078,1.659
		c-0.03,0.426-0.151,0.921,0.521,0.904c1.446-0.043,2.516-0.765,3.314-1.929c0.886-1.295,0.947-2.771,0.539-4.166
		C32.331,5.47,29.712,4.51,28.47,4.922c-1.798,0.595-3.501,1.359-4.479,3.132c-0.122,0.23-0.169,0.491-0.256,0.738
		c0.261,0.057,0.53,0.165,0.791,0.148c0.847-0.052,1.703-0.261,2.537-0.208c0.981,0.069,1.359-0.382,1.576-1.225
		c0.117-0.438,0.369-0.834,0.561-1.242c0.104,0.043,0.208,0.087,0.304,0.13c-0.208,1.016-0.391,2.037-0.664,3.041
		c-0.065,0.248-0.413,0.417-0.63,0.625c0.004-0.273,0.009-0.556,0.018-0.973c-1.347,0.035-2.654,0.057-3.905,0.53
		c-0.122,0.043-0.208,0.495-0.135,0.699c0.391,1.108,1.182,1.75,2.354,1.942c0.613,0.104,0.964-0.048,1.121-0.687
		C27.784,11.095,28.026,10.634,28.213,10.166z"/>
	<g>
		<g>
			<path d="M46.08,24.626c0.078,0.083-0.009,0.317,0.069,0.404c0.082,0.078,0.295,0.035,0.378,0.122
				c0.082,0.078,0.321,0.009,0.408,0.091c0.082,0.083,0.03,0.291,0.117,0.378c0.082,0.083,0.122,0.208,0.204,0.291
				c0.083,0.083,0.321,0.013,0.404,0.096c0.078,0.083,0.087,0.239,0.174,0.321c0.078,0.083-0.026,0.352,0.056,0.435
				c0.083,0.083,0.422-0.083,0.509-0.004c0.087,0.083,0.078,0.252,0.165,0.33c0.082,0.083,0.234,0.1,0.321,0.183
				c0.078,0.083,0.144,0.191,0.226,0.269c0.078,0.087-0.025,0.361,0.053,0.443c0.082,0.079,0.121,0.213,0.204,0.296
				c0.082,0.087,0.178,0.156,0.256,0.238c0.083,0.083,0.257,0.083,0.339,0.17c0.078,0.082,0.234,0.096,0.313,0.178
				c0.086,0.087,0.086,0.248,0.169,0.335c0.083,0.082,0.152,0.174,0.239,0.261c0.078,0.087,0.112,0.217,0.199,0.295
				c0.078,0.087,0.179,0.152,0.261,0.239c0.078,0.082,0.313,0.021,0.391,0.104c0.087,0.082,0.252,0.082,0.331,0.169
				c0.086,0.087-0.044,0.374,0.039,0.461c0.082,0.087,0.391-0.053,0.473,0.025c0.087,0.083,0.026,0.309,0.104,0.392
				c0.087,0.078,0.039,0.295,0.122,0.382c0.078,0.078,0.355-0.03,0.438,0.057c0.083,0.082-0.021,0.352,0.057,0.435
				c0.082,0.082,0.313,0.039,0.391,0.117c-0.009,0.121,0.013,0.243,0.009,0.364c-0.009,0.118-0.061,0.23-0.069,0.348
				s-0.018,0.234-0.018,0.356c-0.013,0.113-0.096,0.226-0.104,0.348c-0.009,0.117-0.078,0.23-0.087,0.348s-0.069,0.229-0.078,0.348
				c-0.009,0.121,0.144,0.243,0.135,0.364c-0.009,0.117,0.03,0.234,0.021,0.353c-0.008,0.117-0.173,0.226-0.173,0.343
				c-0.009,0.113,0.277,0.252,0.277,0.369c-0.013,0.117-0.256,0.217-0.261,0.335c-0.009,0.117,0.156,0.243,0.156,0.364
				c-0.013,0.113-0.182,0.218-0.19,0.339c-0.009,0.117,0.121,0.243,0.112,0.356c-0.009,0.117-0.199,0.222-0.208,0.339
				c-0.009,0.121,0.135,0.243,0.126,0.365c-0.013,0.117-0.104,0.226-0.108,0.343c-0.009,0.117,0.052,0.239,0.043,0.352
				c-0.009,0.113-0.234,0.227-0.243,0.339c-0.009,0.113,0.165,0.243,0.156,0.36c-0.013,0.117-0.144,0.227-0.147,0.344
				c-0.009,0.121,0.2,0.243,0.191,0.364c-0.009,0.118-0.078,0.23-0.087,0.344c-0.009,0.112,0.208,0.247,0.199,0.36
				c-0.009,0.122-0.309,0.217-0.313,0.33c-0.004,0.122,0.204,0.248,0.2,0.365c-0.009,0.117-0.322,0.213-0.33,0.33
				c-0.009,0.121-0.009,0.243-0.009,0.364c-0.009,0.122-0.009,0.239-0.018,0.361c-0.013,0.121,0.243,0.256,0.234,0.378
				c-0.009,0.121-0.261,0.226-0.27,0.348c-0.009,0.121-0.069,0.238-0.069,0.355c-0.009,0.122,0.065,0.243,0.057,0.369
				c-0.004,0.122,0.282,0.257,0.273,0.378c-0.009,0.122-0.321,0.227-0.33,0.339c0,0.126,0.291,0.261,0.287,0.378
				c-0.005,0.126-0.365,0.222-0.374,0.344c0,0.121,0.152,0.252,0.147,0.373c-0.004,0.122,0.165,0.252,0.165,0.374
				c-0.008,0.13-0.19,0.238-0.217,0.348c-0.035,0.121-0.2,0.165-0.256,0.269c-0.057,0.104-0.009,0.261-0.092,0.348
				c-0.078,0.087-0.165,0.165-0.278,0.227c-0.095,0.061-0.269-0.083-0.391-0.044c-0.108,0.039-0.183,0.147-0.304,0.17
				c-0.117,0.021-0.165,0.369-0.287,0.391c-0.117,0.021-0.23,0.048-0.348,0.074c-0.117,0.025-0.313-0.344-0.426-0.322
				c-0.121,0.026-0.165,0.392-0.282,0.417c-0.117,0.018-0.226,0.074-0.343,0.104c-0.117,0.018-0.291-0.238-0.408-0.217
				c-0.117,0.025-0.234,0.025-0.356,0.052c-0.113,0.021-0.183,0.278-0.3,0.304c-0.117,0.022-0.256-0.069-0.369-0.043
				c-0.122,0.018-0.234,0.061-0.348,0.083c-0.117,0.021-0.243,0.008-0.356,0.039c-0.121,0.025-0.199,0.208-0.321,0.234
				c-0.112,0.021-0.286-0.227-0.399-0.204c-0.122,0.021-0.187,0.282-0.3,0.309c-0.117,0.021-0.247-0.026-0.36,0
				c-0.113,0.021-0.239,0.021-0.356,0.043c-0.117,0.026-0.213,0.147-0.325,0.174c-0.118,0.021-0.3-0.287-0.418-0.261
				c-0.117,0.026-0.212,0.139-0.33,0.161c-0.117,0.021-0.199,0.213-0.313,0.234c-0.117,0.021-0.256-0.083-0.378-0.057
				c-0.112,0.018-0.191,0.234-0.304,0.256c-0.122,0.022-0.227,0.074-0.348,0.096c-0.117,0.022-0.239,0.005-0.356,0.026
				c-0.121,0.021-0.252-0.048-0.364-0.021c-0.118,0.021-0.278-0.14-0.392-0.113c-0.112,0.026-0.165,0.335-0.278,0.36
				c-0.112,0.03-0.217,0.104-0.33,0.135c-0.112,0.026-0.291-0.226-0.403-0.199c-0.113,0.03-0.191,0.226-0.305,0.252
				c-0.112,0.025-0.229,0.052-0.343,0.078c-0.113,0.025-0.243-0.009-0.356,0.021c-0.121,0.026-0.199,0.191-0.313,0.217
				c-0.113,0.03-0.265-0.087-0.378-0.057c-0.113,0.026-0.239,0.009-0.352,0.039c-0.122,0.026-0.188,0.244-0.305,0.274
				c-0.112,0.025-0.234,0.018-0.348,0.043c-0.112,0.026-0.265-0.096-0.378-0.069c-0.117,0.026-0.247-0.043-0.369-0.018
				c-0.112,0.026-0.217,0.104-0.33,0.131c-0.112,0.025-0.217,0.096-0.334,0.121c-0.117,0.026-0.222,0.087-0.335,0.113
				c-0.112,0.03-0.183,0.273-0.295,0.295c-0.113,0.026-0.227,0.065-0.339,0.092c-0.113,0.021-0.252-0.057-0.365-0.026
				c-0.117,0.021-0.208,0.152-0.33,0.17c-0.113,0.025-0.239,0.017-0.352,0.034c-0.113,0.021-0.248-0.018-0.36,0.005
				c-0.113,0.021-0.278-0.239-0.4-0.218c-0.112,0.021-0.156,0.387-0.273,0.413c-0.113,0.021-0.304-0.296-0.417-0.273
				c-0.113,0.03-0.169,0.313-0.282,0.334c-0.113,0.026-0.261-0.096-0.374-0.078c-0.112,0.026-0.217,0.104-0.33,0.126
				c-0.121,0.018-0.208,0.256-0.321,0.265c-0.121,0.018-0.265-0.408-0.378-0.408c-0.117,0.009-0.222,0.131-0.339,0.122
				s-0.247,0.13-0.369,0.104c-0.112-0.017-0.243-0.017-0.356-0.056c-0.108-0.039-0.26-0.026-0.364-0.074
				c-0.104-0.052-0.057-0.365-0.161-0.435c-0.096-0.061-0.273,0-0.369-0.078c-0.069-0.052-0.087-0.178-0.16-0.226
				c-0.074-0.053-0.331,0.087-0.392,0.026c-0.082-0.083-0.009-0.322-0.082-0.409c-0.078-0.082,0.009-0.313-0.065-0.403
				c-0.078-0.092-0.399,0.025-0.474-0.065c-0.078-0.087-0.2-0.135-0.278-0.226c-0.073-0.092-0.13-0.191-0.208-0.278
				c-0.078-0.096,0.117-0.417,0.039-0.504c-0.073-0.091-0.343-0.009-0.425-0.091c-0.083-0.087-0.195-0.135-0.282-0.213
				c-0.087-0.083,0.009-0.378-0.078-0.452c-0.096-0.069-0.295-0.009-0.396-0.069c-0.1-0.065-0.273,0.018-0.378-0.035
				c-0.104-0.057-0.208-0.151-0.304-0.217c-0.104-0.061-0.147-0.218-0.243-0.296c-0.1-0.069-0.23-0.095-0.321-0.174
				c-0.091-0.078-0.043-0.304-0.13-0.391s-0.191-0.139-0.278-0.23c-0.079-0.082-0.208-0.13-0.287-0.221
				c-0.087-0.092-0.122-0.218-0.2-0.309c-0.074-0.092-0.208-0.135-0.287-0.23c-0.078-0.091-0.035-0.296-0.113-0.387
				c-0.083-0.091-0.322-0.039-0.4-0.126c-0.087-0.087-0.217-0.121-0.304-0.204c-0.086-0.083-0.139-0.204-0.23-0.282
				c-0.096-0.078-0.117-0.248-0.217-0.313c-0.1-0.07-0.295-0.009-0.395-0.078c-0.1-0.074-0.196-0.152-0.287-0.227
				c-0.095-0.078-0.256-0.078-0.352-0.16c-0.096-0.078-0.122-0.239-0.213-0.322c-0.091-0.082-0.174-0.169-0.27-0.256
				c-0.087-0.087-0.052-0.291-0.139-0.378s-0.317-0.03-0.404-0.117c-0.083-0.087-0.204-0.139-0.291-0.234
				c-0.087-0.087-0.248-0.104-0.33-0.2c-0.087-0.082,0.074-0.378,0.009-0.469c-0.078-0.096-0.113-0.191-0.169-0.296
				c-0.065-0.096-0.187-0.151-0.23-0.256c-0.047-0.104-0.017-0.226-0.052-0.339c-0.031-0.108-0.326-0.174-0.339-0.291
				c-0.013-0.108,0.269-0.243,0.269-0.365c0-0.112,0.031-0.217,0.043-0.33c0.013-0.113-0.295-0.278-0.269-0.399
				c0.017-0.113,0.399-0.161,0.417-0.278c0.017-0.112,0.052-0.23,0.061-0.348c0.013-0.112-0.213-0.252-0.204-0.369
				c0.009-0.112,0.087-0.226,0.087-0.339c0.004-0.112,0.065-0.229,0.065-0.343s-0.2-0.226-0.2-0.348c0-0.113,0.078-0.23,0.074-0.343
				c-0.004-0.113-0.043-0.227-0.048-0.339c-0.009-0.113-0.139-0.222-0.148-0.335s0.165-0.243,0.156-0.356
				c-0.008-0.112-0.1-0.221-0.104-0.339c-0.009-0.112,0.243-0.243,0.234-0.355c-0.008-0.113-0.052-0.227-0.052-0.339
				c-0.009-0.113-0.217-0.218-0.226-0.339c0-0.117,0.061-0.23,0.061-0.344c-0.004-0.104,0.021-0.226,0-0.33
				c-0.026-0.104,0.061-0.229,0.043-0.334c-0.026-0.113-0.378-0.195-0.37-0.3c0.013-0.117,0.065-0.23,0.074-0.352
				c0.017-0.113,0.265-0.209,0.278-0.322c0.018-0.121-0.287-0.273-0.27-0.391c0.018-0.121,0.122-0.226,0.135-0.339
				c0.013-0.121,0-0.243,0.013-0.36s0.191-0.213,0.208-0.33c0.013-0.117,0.147-0.218,0.165-0.335
				c0.013-0.121-0.13-0.252-0.113-0.373c0.008-0.117,0.182-0.209,0.2-0.33c0.009-0.117-0.235-0.27-0.217-0.383
				c0.009-0.121,0.287-0.208,0.304-0.321c0.009-0.113-0.256-0.265-0.243-0.382c0.013-0.131,0.021-0.27,0.043-0.404
				c0.026-0.135,0.156-0.248,0.156-0.369c0.004-0.144,0.143-0.313,0.104-0.426c-0.043-0.122-0.165-0.2-0.187-0.304
				c-0.026-0.122-0.104-0.235-0.096-0.339c0.004-0.13,0.091-0.234,0.135-0.334c0.052-0.104,0.143-0.169,0.234-0.248
				c0.078-0.074,0.052-0.356,0.161-0.417c0.096-0.052,0.37,0.27,0.482,0.226c0.104-0.035,0.191-0.113,0.304-0.148
				c0.113-0.035,0.143-0.33,0.252-0.365c0.108-0.03,0.287,0.139,0.395,0.104c0.109-0.035,0.243,0.008,0.352-0.026
				c0.108-0.035,0.182-0.195,0.291-0.226c0.108-0.035,0.169-0.226,0.273-0.261c0.113-0.039,0.239-0.022,0.348-0.052
				c0.108-0.035,0.191-0.165,0.295-0.2c0.113-0.035,0.343,0.3,0.452,0.261c0.109-0.035,0.126-0.348,0.235-0.382
				c0.108-0.035,0.252,0.026,0.365-0.009c0.104-0.035,0.174-0.217,0.278-0.256c0.113-0.035,0.309,0.204,0.417,0.169
				c0.113-0.035,0.208-0.1,0.322-0.139c0.104-0.035,0.204-0.104,0.313-0.135c0.113-0.035,0.226-0.056,0.33-0.091
				c0.113-0.039,0.174-0.217,0.283-0.256c0.108-0.031,0.182-0.204,0.291-0.239c0.108-0.026,0.334,0.326,0.443,0.287
				c0.108-0.031,0.148-0.313,0.261-0.343c0.104-0.03,0.269,0.126,0.382,0.091c0.108-0.035,0.217-0.07,0.329-0.1
				c0.113-0.03,0.2-0.144,0.309-0.169c0.117-0.035,0.161-0.321,0.273-0.352c0.113-0.03,0.296,0.222,0.409,0.196
				c0.117-0.026,0.256,0.061,0.369,0.03c0.117-0.026,0.195-0.195,0.309-0.226c0.112-0.026,0.221-0.065,0.339-0.095
				c0.112-0.026,0.217-0.091,0.338-0.118c0.113-0.021,0.257,0.091,0.37,0.061c0.112-0.026,0.19-0.217,0.308-0.243
				c0.113-0.026,0.23-0.035,0.348-0.057c0.113-0.021,0.278,0.187,0.392,0.161c0.112-0.021,0.204-0.173,0.316-0.2
				c0.113-0.021,0.209-0.156,0.321-0.178c0.113-0.021,0.23-0.03,0.353-0.052c0.112-0.018,0.217-0.091,0.33-0.109
				c0.112-0.021,0.282,0.243,0.399,0.226c0.113-0.022,0.217-0.104,0.339-0.122c0.113-0.022,0.191-0.252,0.304-0.278
				c0.113-0.017,0.257,0.096,0.369,0.07c0.113-0.018,0.257,0.113,0.37,0.091c0.112-0.018,0.178-0.339,0.295-0.361
				c0.122-0.017,0.252,0.087,0.369,0.069c0.117-0.026,0.273,0.139,0.387,0.122c0.122-0.026,0.243-0.057,0.36-0.079
				c0.117-0.026,0.135-0.452,0.248-0.482c0.121-0.03,0.339,0.265,0.443,0.23c0.112-0.039,0.182-0.221,0.286-0.265
				c0.108-0.048,0.122-0.283,0.226-0.343c0.101-0.057,0.252-0.009,0.348-0.078c0.096-0.07,0.252-0.065,0.339-0.148
				c0.087-0.078,0.313-0.043,0.392-0.134c0.078-0.091-0.096-0.378-0.031-0.482c0.065-0.096,0.014-0.234,0.065-0.348
				c0.052-0.104,0.209-0.147,0.248-0.26c0.039-0.109,0.117-0.205,0.151-0.322c0.026-0.113-0.078-0.3-0.034-0.395
				c0.052-0.104,0.169-0.235,0.243-0.309c0.078-0.078,0.352,0.113,0.456,0.074c0.096-0.039,0.152-0.1,0.273-0.091
				c0.104,0.009,0.248-0.13,0.365-0.083c0.112,0.048,0.174,0.205,0.27,0.213c0.126,0.013,0.217-0.078,0.313-0.108
				c0.096-0.035,0.208-0.057,0.278-0.135c0.069-0.074,0.243-0.091,0.299-0.191c0.057-0.087-0.095-0.3-0.039-0.396
				c0.057-0.104,0.135-0.195,0.191-0.3c0.053-0.104-0.03-0.278,0.03-0.382c0.057-0.104,0.413-0.052,0.474-0.156
				c0.053-0.104-0.147-0.348-0.087-0.452c0.057-0.104,0.426-0.035,0.482-0.139c0.057-0.104-0.131-0.347-0.065-0.443
				c0.057-0.104,0.278-0.113,0.339-0.208c0.061-0.104,0.021-0.27,0.087-0.365c0.065-0.1,0.291-0.086,0.36-0.187
				c0.065-0.091-0.013-0.3,0.057-0.396c0.074-0.095,0.252-0.095,0.33-0.191c0.078-0.087,0.078-0.243,0.156-0.33
				c0.083-0.083,0.14-0.191,0.222-0.278c0.087-0.083,0.2-0.139,0.291-0.212c0.092-0.079,0.053-0.322,0.147-0.396
				c0.092-0.069,0.413,0.174,0.513,0.104c0.096-0.069,0.174-0.147,0.278-0.208c0.096-0.061,0.018-0.417,0.117-0.478
				c0.1-0.065,0.3,0.035,0.396-0.035c0.104-0.061,0.096-0.278,0.191-0.343c0.096-0.065,0.348,0.087,0.442,0.017
				c0.096-0.065,0.183-0.147,0.278-0.217c0.096-0.065,0.122-0.239,0.217-0.309c0.096-0.069,0.174-0.165,0.27-0.226
				c0.096-0.069,0.23-0.078,0.33-0.139c0.101-0.065,0.213-0.104,0.313-0.165c0.1-0.061,0.182-0.157,0.286-0.213
				c0.104-0.057,0.278,0.03,0.383-0.026c0.078-0.039,0.143-0.239,0.269-0.221c0.096,0.013,0.109,0.321,0.218,0.36
				c0.096,0.039,0.191,0.03,0.286,0.083c0.096,0.052,0.27-0.043,0.353,0.009c0.096,0.061,0.16,0.156,0.229,0.217
				c0.096,0.087,0.131,0.221,0.218,0.317c0.082,0.091,0.208,0.144,0.286,0.248c0.078,0.096,0.204,0.156,0.278,0.261
				c0.078,0.1,0.087,0.252,0.152,0.356c0.073,0.104,0.238,0.139,0.313,0.252c0.074,0.109,0.195,0.174,0.265,0.278
				c0.065,0.091,0.031,0.256,0.078,0.348c0.057,0.104,0.235,0.161,0.266,0.265c0.03,0.109-0.144,0.27-0.135,0.378
				c0.009,0.109,0.087,0.222,0.065,0.334c-0.018,0.104-0.3,0.117-0.339,0.222c-0.039,0.096,0.187,0.321,0.126,0.421
				c-0.053,0.091-0.174,0.152-0.243,0.239c-0.07,0.091-0.322,0.057-0.387,0.148c-0.065,0.087,0.087,0.343,0.021,0.438
				s-0.122,0.195-0.183,0.291c-0.065,0.096-0.273,0.096-0.339,0.191c-0.061,0.095,0.139,0.365,0.074,0.46
				c-0.065,0.095-0.3,0.078-0.36,0.174c-0.065,0.095-0.313,0.069-0.378,0.165c-0.065,0.095,0.204,0.404,0.143,0.504
				c-0.064,0.1-0.46-0.018-0.521,0.078c-0.065,0.095-0.104,0.208-0.165,0.304c-0.062,0.096,0.1,0.331,0.043,0.435
				c-0.065,0.096-0.161,0.169-0.226,0.265c-0.062,0.1-0.183,0.161-0.243,0.256c-0.062,0.095-0.209,0.139-0.27,0.239
				c-0.065,0.1,0.018,0.282-0.044,0.387c-0.061,0.095-0.017,0.261-0.078,0.356c-0.061,0.096-0.295,0.078-0.36,0.183
				c-0.065,0.096,0,0.273-0.065,0.369c-0.061,0.096-0.126,0.191-0.19,0.291c-0.062,0.096-0.209,0.139-0.27,0.235
				c-0.065,0.095-0.139,0.187-0.204,0.282c-0.065,0.091-0.209,0.117-0.273,0.208c-0.07,0.083,0.073,0.343,0.008,0.43
				c-0.069,0.086-0.36-0.018-0.438,0.069c-0.073,0.078-0.178,0.13-0.252,0.208c-0.073,0.087,0.074,0.369-0.004,0.452
				c-0.078,0.078-0.083,0.226-0.156,0.304c-0.078,0.087-0.474-0.13-0.548-0.052C46.045,24.313,46.149,24.544,46.08,24.626z
				 M31.784,50.352c0.143-0.021,0.286,0.191,0.403,0.174c0.14-0.021,0.243-0.217,0.356-0.239c0.139-0.018,0.217-0.256,0.339-0.282
				c0.113-0.021,0.261,0.135,0.378,0.108c0.117-0.025,0.239,0.009,0.352-0.013c0.113-0.021,0.188-0.265,0.305-0.287
				c0.112-0.021,0.243,0.057,0.355,0.031c0.117-0.022,0.287,0.217,0.4,0.187c0.112-0.021,0.151-0.404,0.265-0.426
				s0.248,0.065,0.369,0.039c0.113-0.021,0.209-0.144,0.321-0.165c0.113-0.026,0.234-0.018,0.348-0.044
				c0.113-0.021,0.278,0.218,0.399,0.2c0.117-0.026,0.239,0.009,0.353-0.013c0.112-0.022,0.226-0.057,0.339-0.083
				c0.117-0.021,0.204-0.16,0.316-0.191c0.113-0.017,0.209-0.139,0.321-0.165c0.113-0.021,0.252,0.062,0.365,0.044
				c0.113-0.026,0.23-0.035,0.344-0.057c0.112-0.021,0.238,0.021,0.36,0c0.112-0.021,0.217-0.065,0.339-0.091
				c0.112-0.022,0.19-0.252,0.304-0.27c0.113-0.026,0.209-0.161,0.33-0.183c0.117-0.026,0.287,0.243,0.399,0.226
				c0.122-0.025,0.174-0.355,0.291-0.382c0.117-0.021,0.274,0.152,0.387,0.13c0.117-0.025,0.27,0.135,0.383,0.113
				c0.121-0.026,0.183-0.313,0.295-0.339c0.122-0.021,0.282,0.217,0.399,0.191c0.118-0.021,0.196-0.239,0.313-0.261
				c0.117-0.026,0.226-0.074,0.348-0.096c0.112-0.026,0.234,0,0.355-0.026c0.117-0.017,0.23-0.039,0.348-0.061
				s0.243,0.026,0.365,0.009c0.112-0.018,0.243,0.026,0.36,0c0.117-0.021,0.248,0.009,0.36-0.013c0.113-0.022,0.2-0.204,0.313-0.222
				c0.122-0.026,0.227-0.087,0.339-0.108c0.122-0.022,0.266,0.108,0.378,0.082c0.117-0.018,0.179-0.33,0.296-0.356
				c0.117-0.021,0.273,0.191,0.396,0.17c0.117-0.021,0.199-0.218,0.313-0.239c0.121-0.026,0.265,0.113,0.382,0.096
				c0.122-0.026,0.209-0.174,0.33-0.2c0.113-0.017,0.266,0.14,0.378,0.113c0.118-0.018,0.204-0.183,0.322-0.208
				c0.117-0.018,0.247,0.043,0.369,0.025c0.112-0.025,0.217-0.112,0.334-0.13c0.117-0.026,0.273,0.174,0.387,0.151
				c0.122-0.021,0.2-0.217,0.321-0.234c0.113-0.021,0.252,0.083,0.369,0.057c0.117-0.021,0.196-0.252,0.313-0.27
				c0.117-0.017,0.247,0.018,0.36,0c0.121-0.025,0.195-0.261,0.313-0.282c0.113-0.021,0.287,0.239,0.387,0.204
				c0.117-0.034,0.122-0.277,0.213-0.33c0.104-0.061,0.391,0.104,0.46,0.026c0.07-0.078,0.152-0.23,0.191-0.335
				c0.044-0.1,0.078-0.243,0.096-0.36c0.018-0.104-0.23-0.234-0.23-0.356c0-0.104,0.248-0.226,0.234-0.339
				c-0.008-0.112,0.039-0.217,0.039-0.33c-0.008-0.112-0.086-0.217-0.086-0.325c0-0.113-0.296-0.23-0.291-0.335
				c0-0.112,0.313-0.217,0.316-0.33c0.005-0.112-0.295-0.234-0.291-0.348c0.005-0.112,0.369-0.199,0.369-0.313
				c0.014-0.113-0.139-0.23-0.139-0.343c0.009-0.113-0.165-0.235-0.156-0.344c0.009-0.112,0.183-0.208,0.191-0.321
				c0.008-0.113,0.156-0.217,0.165-0.33c0.008-0.113-0.118-0.234-0.104-0.352c0.009-0.113,0-0.227,0.009-0.339
				c0.009-0.113,0.217-0.209,0.226-0.321c0.009-0.113-0.061-0.23-0.052-0.344c0.009-0.112-0.305-0.256-0.296-0.369
				s0.018-0.226,0.026-0.339c0.009-0.112,0.417-0.195,0.426-0.309c0.009-0.112-0.33-0.252-0.321-0.364
				c0.008-0.113-0.018-0.227-0.009-0.339c0.009-0.117,0.3-0.209,0.313-0.326c0.009-0.113,0.026-0.226,0.035-0.339
				c0.013-0.126-0.244-0.234-0.278-0.369c-0.026-0.121,0.052-0.278,0.021-0.408c-0.026-0.131-0.065-0.261-0.048-0.387
				c0.014-0.117,0.061-0.23,0.078-0.352c0.009-0.122-0.144-0.261-0.121-0.378c0.017-0.117,0.304-0.195,0.321-0.313
				c0.018-0.117-0.2-0.273-0.183-0.386c0.018-0.122,0.104-0.227,0.126-0.344c0.018-0.117,0.065-0.23,0.083-0.348
				c0.017-0.117-0.07-0.247-0.053-0.369c0.018-0.117,0.374-0.183,0.387-0.304c0.018-0.135-0.057-0.287-0.069-0.399
				c-0.005-0.14-0.195-0.227-0.248-0.322c-0.061-0.104-0.078-0.282-0.199-0.33c-0.096-0.034-0.243,0.135-0.383,0.131
				c-0.112,0-0.208,0.03-0.348,0.052c-0.117,0.018-0.243-0.013-0.355,0.005c-0.113,0.021-0.243-0.065-0.361-0.044
				c-0.117,0.018-0.256-0.151-0.377-0.135c-0.113,0.018-0.188,0.321-0.3,0.339c-0.118,0.018-0.222,0.087-0.344,0.108
				c-0.112,0.018-0.27-0.238-0.387-0.221c-0.117,0.017-0.208,0.208-0.321,0.221c-0.117,0.018-0.23,0.031-0.352,0.048
				c-0.113,0.018-0.239-0.021-0.356-0.004c-0.117,0.021-0.213,0.174-0.326,0.191c-0.117,0.017-0.256-0.109-0.369-0.092
				c-0.121,0.018-0.243-0.004-0.355,0.009c-0.118,0.018-0.204,0.226-0.322,0.243c-0.117,0.021-0.234,0-0.355,0.018
				c-0.113,0.018-0.252-0.122-0.369-0.1c-0.118,0.018-0.244-0.065-0.361-0.048c-0.121,0.018-0.226,0.082-0.339,0.104
				c-0.121,0.017-0.226,0.073-0.347,0.091c-0.118,0.021-0.227,0.069-0.344,0.087s-0.199,0.256-0.317,0.273
				c-0.117,0.021-0.234,0.053-0.347,0.065c-0.113,0.021-0.243-0.065-0.361-0.048c-0.117,0.018-0.217,0.135-0.334,0.152
				c-0.117,0.021-0.234,0-0.356,0.013c-0.113,0.018-0.234-0.026-0.356-0.013c-0.117,0.021-0.269-0.248-0.391-0.23
				c-0.113,0.018-0.178,0.382-0.295,0.399c-0.122,0.018-0.287-0.317-0.4-0.3c-0.112,0.018-0.195,0.296-0.308,0.313
				c-0.113,0.018-0.257-0.117-0.37-0.104c-0.121,0.018-0.226,0.091-0.339,0.108c-0.121,0.018-0.199,0.252-0.321,0.27
				c-0.117,0.018-0.295-0.392-0.408-0.374c-0.121,0.018-0.217,0.156-0.334,0.174c-0.117,0.021-0.209,0.191-0.326,0.209
				c-0.117,0.017-0.226,0.064-0.343,0.078c-0.117,0.017-0.222,0.104-0.344,0.121c-0.112,0.018-0.273-0.261-0.391-0.243
				s-0.209,0.191-0.326,0.209c-0.117,0.017-0.247-0.053-0.36-0.039c-0.121,0.017-0.191,0.3-0.313,0.316
				c-0.104,0.018-0.252-0.178-0.36-0.156c-0.109,0.018-0.266-0.174-0.369-0.147c-0.113,0.021-0.157,0.365-0.266,0.382
				c-0.108,0.026-0.204,0.113-0.313,0.144c-0.108,0.021-0.222,0.03-0.33,0.057c-0.108,0.03-0.305-0.295-0.413-0.27
				c-0.108,0.026-0.156,0.3-0.27,0.321c-0.104,0.026-0.208,0.096-0.313,0.122c-0.112,0.026-0.286-0.23-0.391-0.204
				c-0.113,0.021-0.183,0.217-0.291,0.239c-0.108,0.025-0.191,0.199-0.3,0.226c-0.126,0.021-0.234,0.018-0.339,0.052
				c-0.122,0.044-0.27-0.009-0.365,0.053c-0.104,0.061-0.151,0.182-0.226,0.273c-0.078,0.091-0.313,0.1-0.36,0.213
				c-0.048,0.104-0.048,0.261-0.074,0.387c-0.018,0.108,0.035,0.247,0.035,0.378c0,0.112-0.061,0.226-0.061,0.339
				c0,0.121,0.069,0.234,0.061,0.352c0,0.117-0.17,0.226-0.174,0.343c-0.009,0.122,0.199,0.235,0.199,0.356
				c-0.008,0.117,0.062,0.234,0.057,0.348c-0.004,0.117-0.064,0.23-0.064,0.343c-0.009,0.117-0.131,0.23-0.14,0.344
				c-0.004,0.121,0.156,0.238,0.147,0.355c0,0.118-0.008,0.23-0.008,0.348c-0.009,0.122,0.087,0.235,0.087,0.348
				c-0.009,0.122-0.113,0.227-0.113,0.348c-0.009,0.117-0.018,0.23-0.021,0.348c-0.005,0.117-0.188,0.226-0.188,0.348
				c-0.009,0.112,0.191,0.234,0.188,0.348c-0.005,0.117,0.048,0.234,0.048,0.347c0,0.113,0.095,0.23,0.095,0.348
				c0,0.113-0.313,0.227-0.313,0.339c-0.009,0.113-0.039,0.234-0.039,0.348c-0.004,0.113,0.083,0.23,0.078,0.348
				c-0.004,0.113-0.078,0.234-0.078,0.348s0.273,0.234,0.273,0.348c0,0.112-0.295,0.226-0.3,0.339c0,0.112-0.021,0.229-0.03,0.343
				c0,0.113,0.33,0.23,0.33,0.352c0,0.113-0.369,0.227-0.369,0.344c0,0.13-0.009,0.273,0,0.403c0.014,0.135,0.257,0.244,0.274,0.37
				c0.013,0.134-0.044,0.265-0.044,0.395c0.009,0.131-0.043,0.248-0.052,0.383c-0.009,0.112,0.174,0.243,0.165,0.356
				c-0.009,0.112-0.104,0.217-0.122,0.334c-0.013,0.113,0.009,0.23,0,0.343c-0.018,0.113,0.096,0.244,0.083,0.361
				c-0.014,0.112-0.209,0.204-0.222,0.316c-0.014,0.113,0.052,0.235,0.034,0.348c-0.013,0.113-0.286,0.195-0.304,0.309
				C31.623,50.117,31.797,50.234,31.784,50.352z M22.592,27.524c-0.013,0.143-0.221,0.387-0.23,0.53
				c0.135,0.062,0.452,0.018,0.564,0.104c0.091,0.069,0.322-0.039,0.413,0.035c0.091,0.069,0.074,0.286,0.161,0.356
				c0.096,0.073,0.152,0.187,0.243,0.26c0.087,0.07,0.313-0.034,0.408,0.039c0.087,0.074,0.122,0.222,0.208,0.296
				c0.096,0.074,0.026,0.348,0.122,0.421c0.087,0.07,0.4-0.147,0.496-0.078c0.095,0.074,0.113,0.235,0.208,0.305
				c0.095,0.069,0.248,0.061,0.339,0.135c0.086,0.073,0.165,0.169,0.256,0.238c0.091,0.069,0.018,0.356,0.109,0.426
				s0.147,0.191,0.234,0.261c0.091,0.069,0.191,0.131,0.287,0.2c0.091,0.069,0.261,0.043,0.348,0.117
				c0.091,0.073,0.243,0.065,0.339,0.135c0.087,0.073,0.113,0.234,0.2,0.304c0.096,0.074,0.174,0.156,0.27,0.226
				c0.091,0.074,0.139,0.2,0.23,0.27s0.196,0.122,0.291,0.195c0.092,0.074,0.313-0.021,0.404,0.048
				c0.091,0.074,0.252,0.057,0.343,0.131c0.092,0.069-0.004,0.373,0.087,0.442c0.087,0.079,0.383-0.104,0.47-0.025
				c0.091,0.069,0.061,0.295,0.147,0.369c0.087,0.073,0.061,0.291,0.152,0.36c0.091,0.074,0.352-0.069,0.447,0.009
				c0.087,0.074,0.009,0.356,0.096,0.426c0.091,0.073,0.304,0,0.395,0.069c0.092,0.074,0.2,0.13,0.287,0.2
				c0.1,0.082,0.169,0.195,0.265,0.261c0.101,0.073,0.204,0.147,0.305,0.208c0.108,0.061,0.19,0.183,0.304,0.234
				c0.117,0.048,0.226,0.156,0.348,0.183c0.113,0.035,0.252,0.113,0.378,0.122c0.117,0.017,0.265-0.144,0.387-0.144
				c0.121-0.005,0.243-0.057,0.369-0.074c0.117-0.018,0.273,0.113,0.399,0.087c0.113-0.03,0.161-0.343,0.265-0.369
				c0.113-0.03,0.278,0.178,0.387,0.161c0.113-0.026,0.188-0.227,0.3-0.248c0.113-0.021,0.261,0.113,0.374,0.092
				c0.112-0.026,0.191-0.179,0.304-0.2c0.113-0.021,0.266,0.13,0.374,0.108s0.195-0.191,0.309-0.213
				c0.112-0.021,0.238,0.044,0.352,0.018c0.112-0.021,0.213-0.113,0.321-0.13c0.113-0.026,0.27,0.173,0.382,0.156
				c0.113-0.026,0.191-0.218,0.305-0.239c0.112-0.021,0.247,0.083,0.356,0.057c0.112-0.018,0.187-0.243,0.299-0.27
				c0.113-0.018,0.239,0.026,0.353,0c0.112-0.018,0.187-0.261,0.295-0.278c0.113-0.017,0.278,0.252,0.392,0.235
				c0.112-0.018,0.19-0.257,0.304-0.278s0.278,0.27,0.391,0.252c0.113-0.021,0.227-0.053,0.339-0.069
				c0.113-0.018,0.227-0.044,0.339-0.062c0.113-0.017,0.183-0.286,0.3-0.304c0.113-0.021,0.265,0.204,0.378,0.187
				c0.113-0.017,0.234,0.022,0.348,0c0.117-0.017,0.217-0.112,0.335-0.13c0.112-0.021,0.178-0.326,0.291-0.344
				c0.112-0.017,0.277,0.266,0.391,0.248s0.183-0.334,0.295-0.352c0.113-0.018,0.282,0.313,0.396,0.295
				c0.113-0.021,0.204-0.199,0.317-0.217s0.199-0.209,0.313-0.23c0.113-0.018,0.252,0.135,0.365,0.113
				c0.112-0.018,0.252,0.108,0.364,0.091c0.113-0.018,0.209-0.165,0.322-0.183c0.112-0.021,0.226-0.048,0.339-0.064
				c0.112-0.022,0.26,0.16,0.373,0.143c0.113-0.017,0.217-0.117,0.33-0.13c0.113-0.018,0.183-0.356,0.296-0.374
				c0.112-0.017,0.226-0.039,0.339-0.052c0.112-0.018,0.286,0.356,0.399,0.343c0.112-0.013,0.174-0.378,0.286-0.395
				c0.113-0.022,0.227-0.07,0.339-0.087c0.113-0.018,0.27,0.256,0.383,0.238c0.112-0.021,0.234-0.013,0.348-0.03
				c0.112-0.018,0.19-0.273,0.304-0.295c0.113-0.018,0.243,0.087,0.356,0.069c0.117-0.021,0.23-0.053,0.343-0.069
				c0.113-0.018,0.234,0,0.348-0.018c0.117-0.018,0.204-0.2,0.317-0.218c0.112-0.017,0.27,0.244,0.387,0.227
				c0.108-0.018,0.178-0.27,0.291-0.282c0.104-0.014,0.229,0.048,0.343,0.03c0.104-0.014,0.217,0,0.33-0.014
				c0.104-0.013,0.204-0.126,0.317-0.139c0.104-0.013,0.426,0.178,0.543,0.17c-0.074-0.096-0.234-0.344-0.3-0.435
				c-0.069-0.087-0.273-0.078-0.343-0.174c-0.065-0.087-0.026-0.261-0.096-0.352c-0.065-0.092-0.291-0.074-0.353-0.161
				c-0.069-0.091-0.156-0.17-0.221-0.252c-0.07-0.096-0.101-0.209-0.174-0.296c-0.074-0.095-0.065-0.243-0.144-0.321
				c-0.078-0.087-0.018-0.304-0.101-0.382c-0.082-0.083-0.369,0.052-0.456-0.018c-0.087-0.074-0.199-0.091-0.295-0.161
				c-0.087-0.064-0.035-0.36-0.13-0.417c-0.096-0.056-0.287,0.048-0.387,0c-0.101-0.043-0.204-0.082-0.313-0.121
				c-0.091-0.03-0.143-0.152-0.213-0.248c-0.069-0.078-0.234-0.078-0.3-0.151c-0.078-0.083-0.047-0.274-0.126-0.356
				c-0.082-0.087-0.121-0.2-0.204-0.291c-0.078-0.087-0.3-0.044-0.382-0.131c-0.074-0.087-0.126-0.2-0.204-0.287
				s-0.039-0.278-0.117-0.365c-0.074-0.083-0.083-0.234-0.161-0.321c-0.073-0.087-0.19-0.143-0.273-0.226
				c-0.074-0.086-0.191-0.143-0.273-0.234c-0.078-0.087-0.183-0.147-0.261-0.23c-0.078-0.087-0.326-0.018-0.404-0.1
				c-0.057-0.052-0.065-0.022-0.178-0.052c-0.144-0.026-0.144-0.178-0.165-0.143c-0.065,0.1-0.053,0.269-0.122,0.369
				c-0.069,0.096-0.174,0.182-0.243,0.278c-0.078,0.096-0.199,0.156-0.27,0.252c-0.073,0.096-0.378,0.026-0.451,0.126
				c-0.069,0.1,0.151,0.4,0.087,0.5c-0.069,0.104-0.439,0.022-0.495,0.122c-0.065,0.109,0.117,0.339,0.069,0.448
				c-0.053,0.113-0.239,0.174-0.27,0.291c-0.035,0.117,0,0.252-0.009,0.374c-0.009,0.13,0.209,0.27,0.2,0.378
				c-0.009,0.135-0.443,0.23-0.452,0.339c-0.009,0.135,0.113,0.256,0.091,0.369c-0.021,0.139,0.092,0.295,0.04,0.391
				c-0.053,0.104-0.14,0.243-0.252,0.313c-0.087,0.056-0.2,0.173-0.335,0.217c-0.1,0.03-0.295-0.226-0.43-0.2
				c-0.109,0.026-0.195,0.209-0.326,0.23c-0.117,0.018-0.248-0.048-0.36-0.03c-0.113,0.018-0.183,0.304-0.296,0.321
				c-0.112,0.021-0.261-0.169-0.373-0.147c-0.113,0.026-0.261-0.174-0.374-0.156c-0.112,0.018-0.178,0.356-0.295,0.373
				c-0.113,0.018-0.218,0.104-0.33,0.122c-0.113,0.018-0.227,0.018-0.339,0.034c-0.117,0.022-0.287-0.321-0.399-0.299
				c-0.113,0.017-0.191,0.282-0.305,0.299c-0.112,0.014-0.226,0.079-0.339,0.096c-0.112,0.018-0.27-0.252-0.382-0.234
				c-0.113,0.018-0.204,0.2-0.317,0.218c-0.117,0.017-0.208,0.187-0.326,0.199c-0.112,0.018-0.234,0-0.347,0.018
				c-0.113,0.009-0.243-0.078-0.356-0.061c-0.113,0.013-0.222,0.091-0.335,0.108c-0.117,0.013-0.256-0.17-0.369-0.161
				c-0.121,0.009-0.23,0.057-0.348,0.065s-0.226,0.078-0.347,0.078c-0.113,0.004-0.227-0.048-0.348-0.048
				c-0.113,0-0.235,0.065-0.348,0.061c-0.117-0.004-0.222-0.178-0.339-0.187s-0.252,0.191-0.365,0.178
				c-0.104-0.008-0.265,0.005-0.399-0.061c-0.122-0.061-0.217-0.183-0.321-0.252c-0.156-0.112-0.152-0.208-0.14-0.261
				c0.026-0.117-0.086-0.273-0.039-0.382c0.048-0.113,0.109-0.218,0.17-0.321c0.065-0.096,0.057-0.261,0.13-0.348
				c0.07-0.096,0.235-0.131,0.313-0.218c0.069-0.078,0.19-0.143,0.304-0.19c0.104-0.053,0.295,0.064,0.399,0.018
				c0.122-0.062,0.104-0.283,0.156-0.378c0.053-0.104,0.062-0.235,0.117-0.339c0.057-0.104,0.014-0.257,0.065-0.37
				c0.057-0.104,0.392-0.069,0.438-0.173c0.057-0.104,0.131-0.2,0.188-0.305c0.052-0.104,0.03-0.252,0.078-0.356
				c0.057-0.104,0.169-0.183,0.226-0.295c0.052-0.104-0.147-0.33-0.096-0.435c0.057-0.104,0.369-0.087,0.426-0.191
				c0.048-0.113,0.122-0.204,0.174-0.313c0.052-0.113-0.191-0.356-0.139-0.469c0.052-0.109,0.435-0.052,0.486-0.161
				c0.048-0.104,0.113-0.204,0.169-0.313c0.048-0.109-0.108-0.317-0.056-0.421c0.052-0.109,0.169-0.183,0.217-0.291
				c0.052-0.109,0.156-0.191,0.209-0.3c0.047-0.108-0.074-0.295-0.026-0.408c0.052-0.104,0.183-0.174,0.234-0.287
				c0.057-0.104,0.087-0.178,0.135-0.287c-0.135,0.018-0.217,0.174-0.343,0.191c-0.131,0.013-0.283-0.156-0.404-0.139
				c-0.135,0.009-0.248,0.113-0.378,0.13c-0.131,0.018-0.313-0.208-0.438-0.178c-0.113,0.026-0.218,0.091-0.326,0.117
				c-0.113,0.026-0.174,0.252-0.287,0.287c-0.112,0.026-0.238-0.009-0.352,0.017c-0.113,0.026-0.239,0.009-0.352,0.035
				c-0.113,0.026-0.252-0.061-0.365-0.03c-0.113,0.026-0.139,0.396-0.252,0.421s-0.234,0.018-0.348,0.043
				c-0.112,0.026-0.277-0.174-0.391-0.144c-0.113,0.026-0.147,0.37-0.261,0.396s-0.247-0.035-0.356-0.009
				c-0.108,0.031-0.217,0.087-0.33,0.122c-0.112,0.031-0.265-0.1-0.378-0.074c-0.112,0.03-0.256-0.057-0.369-0.03
				c-0.112,0.026-0.183,0.213-0.295,0.239c-0.113,0.03-0.261-0.091-0.378-0.065c-0.113,0.03-0.161,0.313-0.274,0.347
				c-0.112,0.031-0.286-0.2-0.399-0.169c-0.112,0.031-0.156,0.334-0.27,0.361c-0.112,0.035-0.221,0.078-0.33,0.104
				c-0.112,0.031-0.252-0.052-0.364-0.026c-0.113,0.026-0.266-0.096-0.378-0.069c-0.113,0.026-0.2,0.147-0.313,0.173
				c-0.112,0.026-0.208,0.122-0.321,0.152c-0.112,0.026-0.238,0.004-0.352,0.03c-0.112,0.026-0.226,0.035-0.338,0.061
				c-0.113,0.026-0.161,0.304-0.273,0.339c-0.113,0.026-0.326-0.326-0.435-0.3c-0.117,0.026-0.213,0.104-0.326,0.13
				c-0.113,0.03-0.157,0.326-0.27,0.352c-0.113,0.026-0.278-0.152-0.391-0.122c-0.113,0.026-0.243-0.021-0.356,0.009
				s-0.191,0.183-0.304,0.208c-0.113,0.035-0.182,0.217-0.295,0.252c-0.113,0.03-0.239,0.004-0.347,0.03
				c-0.118,0.03-0.205,0.152-0.317,0.196c-0.117,0.035-0.36-0.287-0.482-0.252c-0.113,0.043-0.122,0.365-0.239,0.408
				c-0.113,0.048-0.265,0-0.378,0.048c-0.113,0.048-0.165,0.239-0.278,0.291c-0.113,0.048-0.339-0.169-0.452-0.122
				C22.736,27.272,22.706,27.476,22.592,27.524z M30.989,50.156c0-0.117,0.226-0.209,0.226-0.326
				c0.009-0.117-0.174-0.238-0.174-0.356c0.004-0.117-0.217-0.238-0.213-0.36c0.004-0.112,0.191-0.229,0.195-0.348
				c0.005-0.117,0.061-0.229,0.069-0.347c0-0.122-0.217-0.244-0.208-0.356c0-0.122,0.104-0.234,0.112-0.352
				c0-0.118,0.27-0.227,0.27-0.344c0.005-0.121-0.356-0.243-0.352-0.365c0.004-0.117,0.121-0.229,0.121-0.347
				c0.005-0.118-0.091-0.235-0.086-0.356c0.004-0.113,0.039-0.234,0.039-0.348c0.008-0.117,0.277-0.226,0.282-0.343
				c0.004-0.118,0.069-0.23,0.073-0.348c0.005-0.117-0.009-0.239-0.004-0.353c0.004-0.121-0.113-0.238-0.113-0.355
				c0.005-0.117-0.091-0.235-0.091-0.356c0.004-0.113,0.117-0.226,0.121-0.348c0.005-0.113,0.018-0.234,0.026-0.348
				c0-0.117,0.074-0.23,0.074-0.348c0.004-0.121-0.018-0.234-0.014-0.355c0.005-0.113-0.204-0.239-0.199-0.353
				c0.004-0.117-0.113-0.234-0.109-0.352c0.005-0.122,0.305-0.226,0.305-0.348c0.004-0.113-0.313-0.238-0.309-0.356
				c0.004-0.117,0.204-0.229,0.204-0.343c0.005-0.117,0.187-0.23,0.187-0.343c0-0.122-0.269-0.239-0.265-0.356
				c0-0.117,0.265-0.226,0.273-0.344c0-0.117-0.195-0.238-0.19-0.352c0-0.121-0.026-0.234-0.026-0.352s0.052-0.23,0.052-0.348
				s0.005-0.23,0.005-0.352c0-0.113,0.078-0.227,0.078-0.348c0-0.117,0.064-0.23,0.064-0.348s0.057-0.243,0.057-0.356
				c0-0.121-0.16-0.234-0.169-0.356c-0.009-0.117-0.061-0.234-0.078-0.352s0.117-0.273,0.087-0.387
				c-0.026-0.117-0.339-0.139-0.387-0.247s0.117-0.317,0.057-0.422c-0.065-0.1-0.274-0.082-0.361-0.169
				c-0.082-0.083-0.064-0.282-0.169-0.353c-0.096-0.064-0.261-0.004-0.374-0.052c-0.104-0.048-0.156-0.261-0.277-0.295
				c-0.096-0.031-0.222,0.025-0.296-0.065c-0.069-0.083-0.078-0.239-0.144-0.313c-0.086-0.092-0.221-0.135-0.308-0.227
				c-0.087-0.091-0.005-0.334-0.087-0.426c-0.087-0.091-0.305-0.069-0.392-0.16c-0.082-0.087-0.078-0.27-0.169-0.356
				c-0.087-0.091-0.325-0.026-0.417-0.113s-0.144-0.213-0.239-0.295c-0.091-0.078-0.33,0.018-0.417-0.052
				c-0.091-0.074,0-0.378-0.095-0.457c-0.096-0.073-0.326,0.022-0.417-0.056c-0.096-0.074,0.008-0.392-0.087-0.465
				c-0.096-0.074-0.196-0.14-0.287-0.213c-0.096-0.069-0.191-0.144-0.287-0.222c-0.095-0.074-0.347,0.057-0.443-0.018
				s-0.039-0.343-0.135-0.417c-0.096-0.078-0.161-0.191-0.252-0.265c-0.096-0.069-0.239-0.078-0.334-0.156
				c-0.096-0.074-0.369,0.087-0.465,0.013c-0.091-0.074-0.004-0.387-0.1-0.465c-0.096-0.069-0.374,0.096-0.469,0.026
				c-0.096-0.074,0.021-0.426-0.074-0.5c-0.096-0.073-0.291-0.013-0.387-0.082c-0.096-0.078-0.295,0-0.391-0.07
				c-0.078-0.061-0.078-0.252-0.178-0.304c-0.095-0.052-0.152-0.234-0.256-0.261c-0.104-0.039-0.26,0.061-0.36,0.053
				c-0.122-0.018-0.234,0.008-0.321,0.052c-0.091,0.035-0.334-0.009-0.409,0.087c-0.065,0.082-0.074,0.252-0.122,0.356
				c-0.047,0.096,0.213,0.321,0.178,0.426c-0.035,0.104-0.052,0.19-0.069,0.295c-0.022,0.113-0.43,0.183-0.443,0.3
				c-0.017,0.117,0.33,0.27,0.326,0.387c-0.004,0.117,0.026,0.23,0.026,0.356c0,0.112-0.282,0.243-0.282,0.355
				c0,0.122-0.009,0.243-0.009,0.365c0.009,0.122,0.252,0.234,0.256,0.348c0.004,0.121-0.109,0.247-0.109,0.365
				c0,0.117,0.018,0.238,0.018,0.364c0,0.113-0.043,0.234-0.052,0.356c-0.009,0.117,0.152,0.256,0.139,0.373
				c-0.018,0.122-0.309,0.196-0.33,0.322c-0.026,0.112,0.2,0.269,0.182,0.387c-0.021,0.117-0.104,0.221-0.122,0.343
				c-0.013,0.113-0.048,0.226-0.061,0.348c-0.009,0.112,0.087,0.238,0.078,0.36c-0.009,0.117-0.356,0.217-0.36,0.334
				c-0.004,0.122,0.083,0.244,0.078,0.365c-0.004,0.117,0.161,0.239,0.161,0.356s-0.13,0.234-0.13,0.356
				c0,0.112,0.195,0.234,0.195,0.352c0.004,0.117,0.031,0.234,0.031,0.352c0.008,0.117-0.04,0.234-0.035,0.356
				c0.004,0.113-0.091,0.239-0.087,0.356c0.004,0.117-0.182,0.243-0.173,0.364c0.008,0.113,0.304,0.218,0.313,0.339
				c0,0.113,0.065,0.235,0.069,0.353c0.004,0.117-0.269,0.247-0.26,0.369c0,0.112,0.182,0.226,0.191,0.348
				c0,0.117,0,0.234,0.009,0.352c0,0.1-0.043,0.213-0.026,0.321c0.017,0.104,0.182,0.17,0.217,0.265
				c0.026,0.104-0.069,0.252-0.021,0.348c0.048,0.101,0.065,0.218,0.126,0.305c0.065,0.087,0.273,0.039,0.348,0.108
				c0.087,0.073,0.152,0.187,0.239,0.265c0.083,0.074,0.074,0.266,0.161,0.348c0.083,0.078,0.104,0.23,0.191,0.304
				c0.087,0.078,0.209,0.122,0.3,0.2c0.091,0.074,0.204,0.122,0.295,0.2c0.083,0.073,0.196,0.121,0.283,0.208
				c0.086,0.074,0.33-0.018,0.417,0.061s0.182,0.148,0.269,0.222c0.087,0.078,0.104,0.23,0.196,0.313
				c0.083,0.078,0.243,0.078,0.33,0.151c0.087,0.078,0.152,0.183,0.239,0.261s0.13,0.204,0.226,0.278
				c0.083,0.078-0.018,0.373,0.069,0.451s0.408-0.108,0.5-0.034c0.083,0.078-0.057,0.426,0.026,0.499
				c0.087,0.078,0.352-0.043,0.439,0.031c0.087,0.078,0.074,0.273,0.165,0.352c0.087,0.073,0.213,0.112,0.304,0.187
				c0.087,0.078,0.321-0.009,0.408,0.069s-0.104,0.482-0.018,0.557c0.087,0.078,0.261,0.061,0.352,0.139
				c0.083,0.078,0.273,0.043,0.36,0.117c0.087,0.078,0.2,0.135,0.287,0.209c0.086,0.078,0.216,0.104,0.308,0.182
				c0.082,0.074-0.021,0.378,0.065,0.452c0.087,0.078,0.281,0.039,0.373,0.113c0.087,0.078,0.117,0.226,0.204,0.304
				c0.091,0.078,0.352-0.048,0.443,0.03c0.091,0.078,0.039,0.321,0.126,0.396c0.087,0.078,0.034,0.317,0.121,0.396
				c0.096,0.078,0.392-0.087,0.482-0.009s0.222,0.104,0.313,0.183c0.092,0.073,0.17,0.165,0.257,0.247
				c0.087,0.074-0.062,0.431,0.025,0.509C30.676,50.174,30.902,50.078,30.989,50.156z M41.05,20.4
				c-0.092,0.095-0.313,0.004-0.383,0.069c-0.096,0.096-0.052,0.304-0.126,0.374c-0.091,0.096,0.03,0.287-0.018,0.374
				c-0.056,0.104-0.273,0.122-0.325,0.226c-0.053,0.104-0.156,0.182-0.213,0.278c-0.057,0.104,0.082,0.309,0.03,0.413
				c-0.052,0.104-0.2,0.161-0.252,0.265c-0.052,0.104-0.339,0.078-0.396,0.183c-0.057,0.104,0.213,0.378,0.161,0.482
				c-0.057,0.104-0.209,0.152-0.266,0.256c-0.056,0.104-0.021,0.256-0.073,0.356c-0.057,0.104-0.14,0.191-0.191,0.295
				c-0.057,0.104-0.352,0.078-0.408,0.183c-0.052,0.104-0.161,0.178-0.218,0.282c-0.052,0.104-0.095,0.213-0.147,0.317
				c-0.052,0.104,0,0.26-0.052,0.365c-0.057,0.104-0.026,0.256-0.078,0.36c-0.053,0.104-0.209,0.152-0.261,0.256
				c-0.057,0.104-0.122,0.2-0.178,0.304c-0.057,0.104-0.17,0.178-0.222,0.282c-0.057,0.104-0.087,0.217-0.14,0.322
				c-0.057,0.104,0.074,0.304,0.018,0.408c-0.052,0.104,0,0.265-0.057,0.36c-0.057,0.104-0.369,0.074-0.426,0.178
				c-0.056,0.104,0.179,0.352,0.122,0.457c-0.057,0.104-0.282,0.121-0.335,0.226c-0.052,0.104-0.269,0.121-0.321,0.226
				c-0.052,0.104,0.135,0.335,0.087,0.438c-0.057,0.104-0.339,0.092-0.396,0.196c-0.056,0.121,0.074,0.313,0.048,0.408
				c-0.034,0.144-0.009,0.234,0.026,0.321c0.039,0.104,0.078,0.2,0.209,0.239c0.087,0.025,0.208,0.039,0.343,0.034
				c0.104-0.004,0.234,0.057,0.369,0.03c0.113-0.025,0.248,0.009,0.36-0.017c0.113-0.035,0.243-0.014,0.356-0.048
				c0.117-0.031,0.183-0.222,0.291-0.257c0.113-0.03,0.213-0.104,0.326-0.135c0.112-0.03,0.256,0.096,0.369,0.078
				c0.121-0.021,0.199-0.334,0.313-0.343s0.239,0.23,0.352,0.239c0.117,0.008,0.239-0.161,0.353-0.152
				c0.121,0,0.234,0.165,0.347,0.16c0.113-0.004,0.227-0.143,0.331-0.151c0.121-0.018,0.26,0.151,0.373,0.13
				c0.113-0.025,0.2-0.191,0.309-0.217c0.113-0.035,0.247,0.018,0.36-0.026c0.104-0.039,0.191-0.152,0.287-0.2
				c0.104-0.052,0.321,0.079,0.426,0.018c0.091-0.064,0.095-0.282,0.187-0.355c0.091-0.07,0.265-0.057,0.352-0.14
				c0.078-0.078,0.009-0.313,0.078-0.403c0.074-0.083,0.191-0.135,0.261-0.23c0.069-0.092-0.057-0.305,0.009-0.405
				c0.061-0.091,0.365-0.048,0.422-0.152c0.056-0.113-0.079-0.322-0.022-0.435c0.057-0.104,0.392-0.069,0.447-0.178
				c0.057-0.108,0.109-0.221,0.17-0.33c0.057-0.108,0.113-0.217,0.174-0.326c0.061-0.113-0.108-0.339-0.053-0.452
				c0.062-0.104,0.339-0.104,0.392-0.208c0.061-0.113,0.165-0.2,0.217-0.313c0.057-0.113,0.044-0.256,0.096-0.369
				c0.052-0.104-0.191-0.321-0.174-0.465c0.018-0.169,0.261-0.417,0.191-0.478c-0.069-0.061-0.344,0.108-0.435,0.043
				c-0.078-0.056,0.026-0.408-0.061-0.464c-0.096-0.057-0.278,0.03-0.365-0.004c-0.126-0.052-0.165,0.091-0.226,0.13
				c-0.117,0.069-0.305-0.022-0.392,0.008c-0.134,0.043-0.208-0.095-0.304-0.117c-0.113-0.026-0.217,0.048-0.295-0.043
				c-0.07-0.083-0.14-0.174-0.196-0.278c-0.056-0.096,0.065-0.3,0.009-0.396c-0.064-0.126-0.273-0.217-0.387-0.313
				c-0.108-0.096-0.451,0.039-0.547-0.07c-0.069-0.083-0.147-0.165-0.217-0.252c-0.07-0.087,0.174-0.408,0.112-0.504
				c-0.061-0.087-0.421-0.008-0.469-0.104c-0.048-0.113-0.122-0.278-0.14-0.426c-0.017-0.113,0.261-0.282,0.244-0.435
				C41.197,20.647,41.066,20.547,41.05,20.4z M45.124,22.242c0.087,0.056,0.222,0.321,0.313,0.378
				c0.061-0.1,0.087-0.391,0.147-0.491c0.062-0.095-0.069-0.317-0.004-0.417c0.065-0.095,0.282-0.095,0.343-0.2
				c0.062-0.096,0.17-0.165,0.235-0.265c0.061-0.1-0.065-0.313,0-0.413c0.061-0.1,0.208-0.147,0.269-0.243
				c0.062-0.104,0.348-0.061,0.409-0.161c0.061-0.1-0.188-0.387-0.122-0.491c0.061-0.096,0.243-0.157,0.304-0.256
				c0.122,0.026,0.383,0.013,0.495,0.039c-0.008,0.113-0.017,0.321-0.03,0.434c-0.009,0.104-0.291,0.191-0.304,0.295
				c-0.009,0.113-0.083,0.208-0.091,0.322c-0.014,0.104-0.014,0.217-0.022,0.33c-0.009,0.104,0.101,0.226,0.087,0.339
				c-0.009,0.104,0.074,0.226,0.065,0.334c-0.009,0.104-0.057,0.304-0.069,0.417c0.061-0.104,0.23-0.248,0.286-0.343
				c0.07-0.104,0.191-0.174,0.252-0.274c0.062-0.104,0.109-0.221,0.174-0.321c0.062-0.104-0.052-0.317,0.014-0.417
				c0.064-0.104,0.025-0.265,0.091-0.369c0.061-0.104,0.383-0.052,0.443-0.156c0.061-0.104-0.147-0.374-0.092-0.469
				c0.057-0.104,0.291-0.113,0.353-0.217c0.057-0.104,0.277-0.13,0.33-0.239c0.057-0.109-0.135-0.339-0.078-0.452
				c0.052-0.113,0.343-0.108,0.399-0.217c0.052-0.109-0.074-0.309-0.018-0.417c0.052-0.109,0.083-0.23,0.139-0.343
				c0.062-0.104,0.165-0.187,0.23-0.291c0.065-0.104,0.14-0.204,0.218-0.304c0.073-0.1,0.213-0.144,0.291-0.239
				c0.087-0.096,0.217-0.152,0.295-0.244c0.087-0.095,0.209-0.169,0.287-0.265c0.078-0.1,0.025-0.304,0.087-0.408
				c0.069-0.109,0.087-0.239,0.13-0.352c0.044-0.104,0.218-0.243,0.218-0.387c0-0.126-0.313-0.226-0.339-0.36
				c-0.026-0.13,0.156-0.33,0.1-0.443c-0.065-0.13-0.273-0.143-0.36-0.217c-0.078-0.07-0.069-0.278-0.17-0.352
				c-0.091-0.074-0.265-0.03-0.369-0.1c-0.104-0.069-0.113-0.287-0.217-0.347c-0.104-0.057-0.282,0.017-0.392-0.026
				c-0.121-0.048-0.217-0.169-0.321-0.191c-0.139-0.018-0.27,0.052-0.364,0.095c-0.109,0.048-0.313-0.104-0.417-0.056
				c-0.104,0.048-0.14,0.265-0.244,0.317c-0.104,0.052-0.269,0-0.373,0.052c-0.104,0.057-0.104,0.304-0.209,0.36
				c-0.104,0.057-0.238,0.065-0.339,0.126c-0.095,0.061-0.078,0.313-0.174,0.374c-0.104,0.069-0.36-0.104-0.46-0.035
				c-0.096,0.065-0.061,0.313-0.152,0.387c-0.096,0.074-0.382-0.1-0.474-0.021c-0.087,0.069-0.182,0.165-0.265,0.239
				c-0.091,0.078-0.183,0.161-0.27,0.248c-0.082,0.078,0.005,0.348-0.073,0.435c-0.087,0.078-0.348-0.009-0.426,0.078
				c-0.087,0.087-0.209,0.139-0.282,0.234c-0.078,0.087-0.096,0.235-0.174,0.322c-0.074,0.095,0.082,0.369,0.009,0.46
				c-0.074,0.095-0.387,0.004-0.456,0.1c-0.07,0.096,0.112,0.369,0.052,0.465c-0.065,0.1-0.426,0.009-0.495,0.113
				c-0.061,0.096,0.018,0.287-0.044,0.387c-0.061,0.104,0.044,0.291-0.013,0.4c-0.057,0.104-0.256,0.13-0.309,0.239
				c-0.052,0.108-0.234,0.156-0.286,0.261c-0.048,0.113,0.025,0.273-0.026,0.382c-0.048,0.108-0.087,0.226-0.139,0.339
				c0.087,0.052,0.217,0.313,0.304,0.365c0.078-0.091,0.217-0.295,0.295-0.387c0.087-0.091-0.069-0.396,0.009-0.491
				c0.087-0.087,0.165-0.178,0.248-0.265c0.082-0.091,0.456,0.096,0.538,0.004c0.083-0.091,0.014-0.469,0.092-0.552
				c0.126,0.065,0.438,0.208,0.564,0.274c-0.034,0.113-0.339,0.282-0.378,0.395c-0.039,0.117-0.096,0.222-0.135,0.334
				c-0.034,0.113,0.152,0.304,0.113,0.417c-0.035,0.113-0.183,0.191-0.226,0.304c-0.035,0.113-0.057,0.234-0.096,0.348
				c-0.039,0.113-0.113,0.217-0.152,0.33c-0.035,0.113,0.087,0.278,0.048,0.391c-0.044,0.113-0.339,0.217-0.382,0.331
				c0.091,0.043,0.252-0.065,0.343-0.026c0.078-0.104,0.169-0.122,0.247-0.226c0.079-0.104,0.174-0.191,0.248-0.3
				c0.065-0.091,0.035-0.243,0.096-0.339c0.057-0.096,0.404-0.009,0.465-0.104c0.061-0.095,0.043-0.239,0.112-0.334
				c0.057-0.095-0.025-0.282,0.035-0.374c0.061-0.095,0.234-0.122,0.296-0.217c0.064-0.095-0.035-0.295,0.025-0.391
				c0.069-0.096,0.113-0.2,0.174-0.291c0.065-0.091,0.174-0.161,0.234-0.248c0.087-0.113,0.287-0.113,0.435-0.165
				c0.14-0.052,0.165,0.061,0.296,0.004c0,0.135,0.208,0.104,0.217,0.244c0.009,0.152,0.052,0.369-0.009,0.486
				c-0.048,0.104-0.348,0.083-0.399,0.187c-0.048,0.104,0.057,0.287,0.009,0.391c-0.053,0.104-0.104,0.2-0.161,0.304
				c-0.048,0.104-0.151,0.178-0.204,0.282c-0.061,0.1,0.018,0.265-0.039,0.369c-0.057,0.104-0.239,0.139-0.291,0.244
				c-0.052,0.095-0.144,0.182-0.191,0.287c-0.056,0.096,0.065,0.291,0.009,0.391c-0.052,0.1-0.139,0.187-0.19,0.287
				C45.285,22.085,45.176,22.137,45.124,22.242z"/>
		</g>
		<g>
			<path d="M16.055,29.813c0.009,0.117-0.008,0.23-0.008,0.352c-0.009,0.113-0.13,0.2-0.152,0.321
				c-0.021,0.113,0.065,0.244,0.031,0.356c-0.04,0.113-0.2,0.165-0.248,0.278c-0.047,0.104-0.104,0.191-0.161,0.304
				c-0.052,0.104,0.252,0.396,0.191,0.5c-0.057,0.1-0.374,0.048-0.435,0.151c-0.069,0.096,0.026,0.296-0.039,0.392
				c-0.065,0.104-0.313,0.073-0.378,0.174c-0.069,0.096-0.161,0.174-0.23,0.27c-0.065,0.095-0.152,0.182-0.221,0.277
				c-0.07,0.096,0.147,0.387,0.083,0.486c-0.065,0.101-0.413,0.018-0.474,0.118c-0.069,0.104-0.078,0.226-0.147,0.321
				c-0.074,0.1-0.104,0.217-0.174,0.309c-0.078,0.095-0.144,0.19-0.222,0.277c-0.083,0.087-0.021,0.313-0.108,0.392
				c-0.087,0.086-0.352-0.031-0.443,0.043c-0.091,0.078,0,0.382-0.095,0.456c-0.096,0.074-0.3-0.004-0.4,0.057
				c-0.096,0.069-0.239,0.057-0.343,0.121c-0.104,0.057-0.152,0.209-0.256,0.261c-0.104,0.053-0.248,0.035-0.356,0.083
				c-0.109,0.048-0.144,0.273-0.256,0.313c-0.108,0.039-0.3-0.121-0.413-0.087c-0.113,0.039-0.139,0.344-0.261,0.378
				c-0.113,0.03-0.278-0.113-0.391-0.078c-0.113,0.03-0.234,0.03-0.356,0.061c-0.113,0.026-0.23,0.039-0.348,0.065
				c-0.117,0.021-0.226,0.078-0.348,0.1c-0.113,0.026-0.217,0.113-0.338,0.14c-0.113,0.018-0.217,0.104-0.339,0.13
				c-0.118,0.018-0.27-0.165-0.391-0.139c-0.113,0.018-0.208,0.252-0.321,0.261c-0.122,0.009-0.252-0.009-0.37-0.009
				c-0.122,0-0.239-0.131-0.352-0.147c-0.113-0.014-0.235-0.009-0.348-0.031c-0.122-0.021-0.2-0.169-0.313-0.199
				c-0.113-0.035-0.313,0.174-0.417,0.126c-0.113-0.044-0.234-0.087-0.343-0.135C5.46,36.812,5.43,36.603,5.33,36.547
				c-0.1-0.057-0.169-0.17-0.265-0.235c-0.104-0.064-0.2-0.126-0.295-0.195c-0.096-0.069-0.183-0.139-0.278-0.208
				c-0.095-0.069-0.295,0.004-0.391-0.061c-0.096-0.07-0.126-0.227-0.222-0.296s-0.291-0.018-0.378-0.091
				c-0.087-0.078-0.043-0.305-0.122-0.387c-0.078-0.087-0.156-0.165-0.23-0.252c-0.074-0.092-0.273-0.092-0.334-0.188
				c-0.069-0.095-0.069-0.238-0.13-0.343c-0.061-0.096-0.104-0.208-0.156-0.313c-0.048-0.104-0.069-0.227-0.113-0.33
				c-0.043-0.104,0.043-0.266,0.009-0.374c-0.043-0.108-0.057-0.217-0.096-0.33c-0.035-0.108-0.061-0.217-0.096-0.325
				c-0.03-0.109-0.182-0.188-0.217-0.3c-0.026-0.109,0.104-0.261,0.074-0.374c-0.026-0.113-0.283-0.169-0.313-0.287
				c-0.021-0.104-0.035-0.226-0.057-0.33c-0.017-0.112-0.122-0.217-0.13-0.33c-0.017-0.112-0.078-0.226-0.086-0.339
				c-0.009-0.112,0.008-0.234,0.008-0.347c0-0.113,0.13-0.235,0.13-0.348c0.004-0.113-0.147-0.235-0.139-0.348
				c0.008-0.117,0.269-0.209,0.287-0.313c0.009-0.118,0.122-0.209,0.147-0.313c0.022-0.112-0.191-0.273-0.169-0.382
				c0.031-0.113,0.1-0.218,0.135-0.317c0.026-0.108-0.104-0.282-0.069-0.387c0.035-0.108,0.304-0.13,0.347-0.23
				c0.043-0.104-0.021-0.265,0.026-0.36c0.052-0.104,0.308-0.096,0.365-0.2c0.052-0.104,0.191-0.152,0.248-0.252
				c0.057-0.1,0.078-0.217,0.144-0.313c0.061-0.096,0.087-0.213,0.152-0.304c0.065-0.096,0.13-0.191,0.204-0.278
				c0.07-0.091-0.108-0.382-0.035-0.474s0.465,0.091,0.539,0.004c0.078-0.087-0.156-0.452-0.078-0.539s0.348,0.009,0.43-0.07
				c0.083-0.087,0.191-0.134,0.273-0.217c0.087-0.079,0.009-0.331,0.096-0.409c0.083-0.078,0.348,0.039,0.435-0.039
				c0.087-0.074,0.113-0.217,0.2-0.291c0.087-0.078,0.278-0.026,0.369-0.096c0.091-0.074,0.1-0.248,0.191-0.313
				c0.091-0.074,0.043-0.321,0.139-0.391c0.096-0.069,0.361,0.096,0.456,0.031c0.096-0.065,0.052-0.334,0.152-0.396
				c0.1-0.061,0.273,0.009,0.378-0.043c0.104-0.052,0.2-0.139,0.304-0.183c0.104-0.043,0.217-0.061,0.331-0.1
				c0.113-0.035,0.178-0.235,0.295-0.261c0.113-0.03,0.287,0.248,0.399,0.226c0.113-0.022,0.222-0.031,0.339-0.048
				c0.113-0.009,0.217,0,0.339-0.009c0.113,0,0.217,0.039,0.339,0.039c0.117,0,0.234-0.248,0.347-0.248
				c0.118,0.009,0.235,0.048,0.348,0.061c0.113,0.013,0.243-0.052,0.356-0.035c0.113,0.022,0.252-0.056,0.365-0.035
				c0.113,0.026,0.204,0.178,0.317,0.208c0.118,0.026,0.161,0.287,0.274,0.321c0.108,0.026,0.295-0.173,0.399-0.134
				c0.104,0.039,0.208,0.108,0.313,0.161c0.104,0.048,0.139,0.23,0.239,0.287c0.1,0.057,0.361-0.147,0.456-0.087
				c0.096,0.065-0.039,0.465,0.052,0.53c0.096,0.07,0.391-0.13,0.478-0.052c0.087,0.074,0.213,0.117,0.299,0.195
				c0.087,0.074,0.057,0.282,0.135,0.369c0.083,0.078,0.157,0.165,0.235,0.252s0.252,0.087,0.321,0.183
				c0.078,0.087,0.039,0.269,0.104,0.36c0.069,0.091,0.217,0.126,0.287,0.222c0.065,0.096,0.122,0.2,0.182,0.295
				c0.061,0.096-0.108,0.334-0.052,0.435c0.061,0.1,0.399,0.035,0.456,0.139c0.056,0.096-0.022,0.27,0.03,0.374
				c0.052,0.104,0.043,0.23,0.091,0.334c0.048,0.104,0.287,0.126,0.33,0.239c0.048,0.104-0.083,0.278-0.048,0.386
				c0.039,0.109,0.183,0.178,0.217,0.291c0.035,0.109,0.061,0.222,0.087,0.334c0.03,0.113-0.113,0.266-0.083,0.378
				c0.026,0.113,0.169,0.191,0.187,0.305c0.026,0.112,0.022,0.234,0.039,0.347c0.018,0.113,0.205,0.209,0.213,0.326
				c0.009,0.113-0.004,0.234,0.004,0.352C16.229,29.579,16.055,29.7,16.055,29.813z M8.227,36.186
				c0.096-0.025,0.217-0.034,0.33-0.064c0.104-0.021,0.239,0.057,0.352,0.039c0.104-0.026,0.187-0.161,0.3-0.183
				c0.113-0.026,0.248,0.087,0.36,0.057c0.109-0.021,0.23-0.03,0.334-0.057c0.113-0.026,0.122-0.443,0.226-0.478
				c0.113-0.026,0.295,0.234,0.408,0.199c0.104-0.03,0.156-0.243,0.265-0.277c0.104-0.039,0.291,0.13,0.395,0.087
				c0.104-0.039,0.243-0.07,0.348-0.126c0.104-0.057,0.23-0.101,0.33-0.161c0.1-0.065,0.004-0.417,0.1-0.482
				c0.095-0.069,0.395,0.122,0.482,0.048c0.096-0.078,0.148-0.208,0.235-0.286c0.087-0.083,0.139-0.2,0.226-0.287
				c0.078-0.083,0.156-0.183,0.23-0.27c0.078-0.087,0.004-0.304,0.078-0.399s0.356-0.018,0.426-0.113
				c0.074-0.096-0.1-0.364-0.031-0.46c0.065-0.096,0.278-0.092,0.343-0.191c0.065-0.096,0.2-0.156,0.256-0.256
				c0.061-0.101,0.026-0.257,0.083-0.361c0.057-0.104,0.183-0.173,0.239-0.282c0.052-0.104-0.069-0.295-0.026-0.403
				c0.052-0.109,0.295-0.131,0.339-0.243c0.048-0.104-0.174-0.313-0.139-0.426c0.043-0.113,0.252-0.165,0.278-0.278
				c0.035-0.113,0.095-0.222,0.113-0.335c0.03-0.117,0.061-0.238,0.078-0.352c0.018-0.113,0-0.239,0.009-0.356
				c0.009-0.121-0.057-0.234-0.061-0.355c-0.004-0.122-0.083-0.227-0.091-0.339c-0.013-0.122,0.178-0.266,0.161-0.383
				c-0.018-0.121-0.261-0.191-0.287-0.309c-0.026-0.118-0.035-0.23-0.061-0.343c-0.035-0.113,0.048-0.265,0.009-0.378
				c-0.043-0.113-0.104-0.213-0.152-0.326c-0.047-0.109,0.013-0.27-0.039-0.374c-0.048-0.113-0.33-0.096-0.391-0.2
				c-0.052-0.104-0.122-0.2-0.183-0.304c-0.061-0.096,0.018-0.283-0.043-0.382c-0.065-0.1-0.083-0.23-0.147-0.33
				c-0.07-0.096-0.144-0.196-0.217-0.291c-0.07-0.096-0.139-0.196-0.208-0.291c-0.078-0.087-0.287-0.07-0.365-0.157
				c-0.078-0.087-0.078-0.234-0.156-0.317S12.697,24.37,12.61,24.3c-0.087-0.078-0.048-0.295-0.144-0.356
				c-0.087-0.069-0.187-0.135-0.282-0.191c-0.1-0.057-0.265,0.03-0.369-0.026c-0.096-0.048-0.166-0.156-0.27-0.2
				c-0.104-0.043-0.204-0.096-0.313-0.13c-0.108-0.03-0.204-0.096-0.317-0.126c-0.108-0.026-0.195-0.187-0.309-0.204
				c-0.108-0.018-0.226-0.061-0.339-0.069c-0.113-0.018-0.234-0.026-0.347-0.035c-0.113-0.008-0.235,0.122-0.348,0.118
				c-0.113,0-0.23-0.161-0.343-0.161c-0.113,0-0.217,0.248-0.334,0.252c-0.122,0.004-0.226,0.004-0.348,0.026
				c-0.113,0.009-0.208,0.113-0.321,0.139c-0.113,0.022-0.2,0.096-0.313,0.13c-0.113,0.031-0.217,0.043-0.322,0.079
				c-0.113,0.043-0.26-0.035-0.369,0.008c-0.104,0.043-0.143,0.23-0.248,0.287c-0.104,0.052-0.321-0.113-0.417-0.052
				c-0.104,0.061-0.256,0.043-0.356,0.104c-0.095,0.061-0.052,0.326-0.147,0.4c-0.096,0.069-0.208,0.104-0.3,0.174
				c-0.091,0.074-0.057,0.282-0.143,0.365c-0.083,0.078-0.331-0.026-0.417,0.061c-0.078,0.079-0.069,0.248-0.147,0.331
				c-0.078,0.086-0.326,0.021-0.399,0.113c-0.079,0.087-0.226,0.126-0.295,0.217c-0.074,0.087-0.113,0.221-0.178,0.313
				c-0.069,0.096-0.1,0.222-0.161,0.313c-0.07,0.095-0.13,0.2-0.191,0.304c-0.065,0.096,0.152,0.361,0.096,0.46
				c-0.061,0.1-0.478,0.004-0.53,0.104c-0.057,0.104,0.265,0.391,0.217,0.495c-0.052,0.104-0.339,0.104-0.382,0.208
				c-0.043,0.104-0.13,0.2-0.174,0.304c-0.039,0.113,0.139,0.305,0.104,0.409c-0.035,0.112-0.326,0.139-0.356,0.256
				c-0.035,0.113,0.017,0.248-0.009,0.36c-0.026,0.113-0.208,0.2-0.234,0.313c-0.018,0.112,0.086,0.26,0.069,0.373
				c-0.018,0.117,0.195,0.252,0.187,0.369c-0.008,0.117-0.308,0.222-0.313,0.335c-0.004,0.112,0.248,0.226,0.248,0.348
				c0.009,0.117-0.135,0.238-0.122,0.352c0.017,0.117,0.069,0.226,0.091,0.339c0.021,0.117,0.03,0.23,0.048,0.343
				c0.03,0.113,0.226,0.183,0.252,0.296c0.03,0.112-0.235,0.304-0.2,0.412c0.035,0.117,0.07,0.23,0.109,0.335
				c0.039,0.112,0.065,0.234,0.113,0.339c0.048,0.112,0.057,0.243,0.108,0.348c0.052,0.104,0.331,0.091,0.391,0.19
				c0.061,0.096,0.096,0.213,0.156,0.305c0.065,0.096,0.196,0.143,0.27,0.229c0.069,0.092,0.217,0.104,0.295,0.188
				c0.078,0.087,0.061,0.252,0.143,0.33c0.087,0.078,0.022,0.339,0.113,0.408c0.091,0.065,0.334-0.065,0.43,0
				c0.096,0.061,0.178,0.139,0.283,0.191c0.1,0.056,0.139,0.243,0.243,0.291c0.104,0.048,0.326-0.196,0.438-0.161
				c0.104,0.044,0.083,0.461,0.196,0.495c0.108,0.035,0.308-0.261,0.421-0.234c0.108,0.026,0.226,0,0.339,0.026
				c0.113,0.017,0.2,0.208,0.313,0.217c0.113,0.018,0.226,0.035,0.348,0.048c0.113,0.009,0.234-0.104,0.348-0.1
				C7.988,35.999,8.105,36.186,8.227,36.186z"/>
		</g>
		<g>
			<path d="M35.046,44.766c-0.026-0.113,0-0.361-0.034-0.474c-0.026-0.113-0.435-0.131-0.47-0.243
				c-0.03-0.113,0.252-0.305,0.226-0.417c-0.034-0.117-0.104-0.218-0.13-0.33c-0.026-0.113-0.309-0.165-0.334-0.278
				c-0.031-0.113,0.238-0.287,0.217-0.399c-0.018-0.122-0.369-0.188-0.378-0.305s0.009-0.252,0-0.364
				c0-0.113,0.365-0.218,0.369-0.335c0.004-0.108-0.191-0.23-0.183-0.339c0.014-0.108,0.039-0.217,0.048-0.33
				c0.018-0.108-0.139-0.247-0.121-0.36c0.017-0.104,0.208-0.191,0.226-0.296c0.021-0.112-0.147-0.256-0.122-0.364
				c0.018-0.108,0.348-0.156,0.365-0.27c0.021-0.104,0.122-0.2,0.139-0.313c0.018-0.104,0.035-0.218,0.057-0.33
				c0.018-0.113-0.039-0.417,0.074-0.435c0.112-0.009,0.282,0.286,0.391,0.265c0.113-0.021,0.195-0.191,0.3-0.222
				c0.108-0.034,0.2-0.121,0.304-0.156c0.104-0.034,0.213-0.069,0.317-0.104c0.104-0.039,0.139-0.26,0.243-0.304
				c0.104-0.039,0.321,0.209,0.426,0.174s0.161-0.2,0.27-0.234c0.104-0.035,0.174-0.226,0.278-0.252
				c0.112-0.03,0.238-0.026,0.347-0.044c0.109-0.017,0.235,0.009,0.348,0c0.109-0.009,0.227,0.109,0.339,0.113
				c0.122,0.004,0.243,0.104,0.365,0.1c0.117-0.004,0.226-0.169,0.343-0.187c0.117-0.013,0.239-0.026,0.353-0.043
				c0.112-0.018,0.199-0.179,0.313-0.205c0.113-0.021,0.234-0.004,0.356-0.03c0.112-0.025,0.243,0.009,0.355-0.017
				c0.113-0.031,0.261,0.052,0.374,0.017c0.113-0.025,0.183-0.217,0.295-0.243c0.113-0.034,0.218-0.112,0.331-0.144
				c0.117-0.025,0.286,0.191,0.408,0.17c0.112-0.026,0.238,0.013,0.352-0.009c0.113-0.018,0.161-0.417,0.273-0.435
				c0.113-0.021,0.226-0.009,0.348-0.034c0.113-0.018,0.278,0.252,0.391,0.234c0.113-0.018,0.179-0.339,0.296-0.36
				c0.113-0.022,0.286,0.334,0.404,0.316c0.112-0.017,0.151-0.451,0.273-0.478c0.112-0.018,0.295,0.36,0.408,0.339
				c0.113-0.018,0.23,0,0.343-0.026c0.113-0.017,0.222-0.069,0.335-0.087c0.112-0.017,0.222-0.087,0.334-0.104
				c0.117-0.018,0.174-0.374,0.287-0.392s0.291,0.365,0.408,0.348c0.113-0.018,0.217-0.096,0.33-0.117
				c0.113-0.018,0.2-0.213,0.313-0.234c0.113-0.021,0.213-0.126,0.326-0.144s0.217-0.096,0.33-0.113
				c0.113-0.021,0.243,0.035,0.356,0.009c0.112-0.018,0.27,0.227,0.382,0.209c0.113-0.018,0.183-0.321,0.296-0.339
				c0.139-0.021,0.286,0.147,0.399,0.165c0.139,0.021,0.278,0.018,0.373,0.096c0.087,0.078,0.183,0.19,0.218,0.334
				c0.026,0.108,0,0.252-0.009,0.396c-0.009,0.113-0.069,0.234-0.078,0.352s0.169,0.248,0.165,0.369
				c-0.009,0.122,0.026,0.244,0.026,0.365c-0.009,0.122-0.252,0.222-0.261,0.343c-0.009,0.126,0.156,0.248,0.144,0.37
				c-0.009,0.117-0.252,0.221-0.261,0.343c-0.014,0.117,0.178,0.256,0.169,0.369c-0.009,0.122,0.104,0.252,0.092,0.369
				c-0.009,0.117-0.048,0.234-0.057,0.36c-0.009,0.113-0.083,0.235-0.096,0.348c-0.009,0.122-0.035,0.243-0.044,0.36
				c-0.009,0.118-0.112,0.23-0.126,0.353c-0.013,0.112-0.151,0.217-0.169,0.339c-0.009,0.121-0.074,0.234-0.087,0.352
				c-0.018,0.117,0.009,0.239-0.009,0.36c-0.009,0.113-0.035,0.234-0.057,0.352c-0.013,0.101-0.039,0.148-0.104,0.257
				c-0.056,0.096,0.152,0.391,0.074,0.478c-0.074,0.087-0.387-0.065-0.469,0.014c-0.096,0.073-0.2,0.073-0.296,0.134
				c-0.104,0.065-0.112,0.27-0.208,0.309c-0.113,0.039-0.209,0.135-0.313,0.17c-0.112,0.039-0.182,0.208-0.291,0.247
				c-0.112,0.039-0.238,0.022-0.352,0.057c-0.113,0.039-0.273-0.073-0.387-0.039c-0.112,0.039-0.282-0.121-0.396-0.091
				c-0.112,0.034-0.208,0.121-0.321,0.156c-0.112,0.03-0.126,0.426-0.238,0.451c-0.118,0.035-0.291-0.165-0.404-0.139
				s-0.222,0.078-0.335,0.108c-0.117,0.026-0.213,0.126-0.325,0.152c-0.113,0.026-0.243,0.009-0.356,0.035
				c-0.113,0.025-0.239-0.009-0.356,0.017c-0.112,0.022-0.204,0.2-0.316,0.227c-0.113,0.021-0.283-0.321-0.4-0.309
				s-0.208,0.226-0.325,0.234c-0.117,0.013-0.227,0.161-0.344,0.165c-0.117,0.005-0.238,0.039-0.352,0.039
				c-0.122,0-0.239-0.391-0.356-0.391s-0.229,0.199-0.348,0.199c-0.121,0-0.234-0.021-0.347-0.021
				c-0.122,0.005-0.235,0.092-0.353,0.1c-0.117,0.005-0.222,0.14-0.334,0.148c-0.117,0.009-0.27-0.321-0.383-0.305
				c-0.117,0.009-0.199,0.266-0.313,0.282c-0.113,0.022-0.2,0.165-0.313,0.183c-0.113,0.018-0.296-0.316-0.399-0.295
				c-0.113,0.021-0.209,0.144-0.322,0.16c-0.112,0.026-0.226,0.07-0.339,0.096c-0.112,0.026-0.238-0.025-0.352,0
				c-0.113,0.021-0.226,0.035-0.343,0.062c-0.113,0.025-0.209,0.1-0.321,0.13c-0.113,0.026-0.218,0.069-0.331,0.096
				c-0.112,0.026-0.226,0.043-0.338,0.073c-0.104,0.031-0.166,0.274-0.278,0.305c-0.104,0.026-0.226,0.018-0.339,0.048
				c-0.122,0.034-0.218,0.112-0.321,0.139c-0.131,0.035-0.243,0.104-0.348,0.122c-0.135,0.025-0.287-0.339-0.383-0.339
				c-0.143,0.009-0.295,0.234-0.373,0.183c-0.087-0.062-0.165-0.2-0.204-0.339c-0.03-0.096,0.104-0.23,0.096-0.365
				c-0.009-0.104-0.17-0.209-0.17-0.339c0-0.113,0.069-0.226,0.069-0.352C34.707,44.73,34.959,44.787,35.046,44.766z M35.402,45.364
				c0.113-0.03,0.396,0.026,0.504,0c0.113-0.03,0.139-0.438,0.252-0.464c0.113-0.026,0.304,0.265,0.417,0.243
				c0.113-0.026,0.217-0.096,0.33-0.122s0.165-0.304,0.278-0.33c0.112-0.026,0.291,0.234,0.403,0.209
				c0.113-0.026,0.152-0.374,0.266-0.4c0.117-0.025,0.234-0.017,0.348-0.048c0.112-0.021,0.299,0.309,0.412,0.287
				s0.187-0.248,0.3-0.265c0.113-0.022,0.226-0.031,0.339-0.048c0.113-0.018,0.2-0.209,0.313-0.23
				c0.113-0.018,0.261,0.13,0.374,0.113c0.112-0.018,0.191-0.227,0.313-0.252c0.113-0.022,0.278,0.269,0.391,0.252
				c0.113-0.018,0.244,0.039,0.356,0.021c0.113-0.018,0.226-0.039,0.348-0.057c0.113-0.018,0.174-0.36,0.287-0.378
				c0.112-0.021,0.282,0.282,0.399,0.265c0.112-0.021,0.199-0.182,0.321-0.199c0.113-0.018,0.217-0.087,0.33-0.104
				s0.234-0.03,0.348-0.048s0.2-0.23,0.313-0.248c0.113-0.017,0.278,0.266,0.392,0.248c0.121-0.018,0.208-0.169,0.321-0.191
				c0.112-0.021,0.208-0.204,0.321-0.222c0.113-0.017,0.234-0.008,0.348-0.025c0.112-0.018,0.234,0.004,0.348-0.014
				c0.112-0.021,0.252,0.083,0.364,0.065c0.113-0.021,0.243,0.061,0.356,0.039s0.204-0.195,0.317-0.213
				c0.112-0.018,0.229-0.034,0.343-0.057c0.113-0.017,0.209-0.178,0.321-0.195c0.122-0.018,0.234,0.009,0.348-0.013
				c0.117-0.018,0.243,0.03,0.356,0.013c0.117-0.021,0.304,0.048,0.435-0.009c0.165-0.069,0.183-0.238,0.199-0.334
				c0.026-0.108-0.004-0.23,0.026-0.344c0.018-0.108,0.291-0.169,0.321-0.282c0.018-0.112,0.104-0.213,0.131-0.321
				c0.021-0.113-0.33-0.291-0.313-0.408c0.022-0.113,0.07-0.213,0.087-0.326c0.018-0.112,0.33-0.182,0.348-0.295
				c0.014-0.113-0.278-0.257-0.27-0.369c0.009-0.117,0.4-0.2,0.404-0.313c0.004-0.113-0.413-0.239-0.413-0.353
				c0-0.112,0.4-0.243,0.392-0.356c-0.009-0.112,0.004-0.238-0.018-0.352c-0.018-0.108-0.074-0.222-0.096-0.334
				c-0.026-0.113-0.096-0.218-0.121-0.33c-0.026-0.104-0.383-0.135-0.409-0.243c-0.025-0.109,0.344-0.317,0.313-0.431
				c-0.026-0.108-0.113-0.204-0.14-0.313c-0.03-0.108-0.208-0.152-0.234-0.265c-0.121,0.025-0.204,0.143-0.33,0.169
				c-0.126,0.03-0.234,0.117-0.364,0.144c-0.122,0.03-0.266-0.009-0.387,0.021c-0.126,0.03-0.317-0.195-0.439-0.161
				c-0.121,0.035-0.147,0.378-0.277,0.443c-0.148,0.078-0.339-0.009-0.448-0.048c-0.108-0.039-0.238-0.009-0.352-0.03
				c-0.112-0.026-0.226-0.018-0.33-0.034c-0.117-0.009-0.226-0.062-0.339-0.062c-0.112-0.004-0.23-0.052-0.343-0.052
				c-0.113,0.009-0.204,0.208-0.317,0.226s-0.208,0.078-0.317,0.104c-0.112,0.026-0.273-0.178-0.387-0.147
				c-0.108,0.025-0.173,0.222-0.277,0.261c-0.113,0.03-0.287-0.165-0.396-0.131c-0.108,0.035-0.161,0.252-0.27,0.291
				s-0.178,0.187-0.291,0.218c-0.104,0.039-0.226,0.039-0.339,0.069c-0.108,0.03-0.238,0-0.352,0.025
				c-0.108,0.031-0.23,0.039-0.344,0.065c-0.112,0.021-0.234-0.052-0.347-0.034c-0.117,0.008-0.235-0.113-0.353-0.104
				s-0.247-0.035-0.36-0.021c-0.121,0.013-0.234,0.069-0.352,0.091c-0.113,0.018-0.239,0.035-0.352,0.061
				c-0.113,0.026-0.235,0.048-0.348,0.078c-0.113,0.035-0.131,0.392-0.243,0.426c-0.113,0.035-0.313-0.234-0.431-0.199
				c-0.108,0.039-0.243,0.017-0.352,0.056s-0.156,0.257-0.27,0.296c-0.104,0.039-0.199,0.139-0.304,0.178
				c-0.113,0.044-0.17,0.218-0.287,0.257c-0.104,0.039-0.234,0.034-0.348,0.073c-0.104,0.039-0.269-0.064-0.382-0.025
				s-0.282-0.113-0.396-0.078c-0.087,0.025-0.208,0.16-0.3,0.229c-0.087,0.065,0.1,0.404,0.035,0.482
				c-0.074,0.096-0.313,0.057-0.321,0.144c0,0.117,0.017,0.234,0.017,0.352c-0.009,0.117,0.065,0.234,0.065,0.356
				c-0.004,0.113-0.043,0.226-0.043,0.348c0,0.117-0.062,0.23-0.062,0.348s0.161,0.234,0.161,0.355c0,0.113-0.365,0.227-0.365,0.348
				c0,0.117,0.204,0.234,0.204,0.353c0,0.117,0.144,0.238,0.152,0.352c0,0.121,0.035,0.234,0.035,0.356
				c0,0.117-0.392,0.234-0.392,0.352s0.195,0.23,0.195,0.352c0,0.113-0.017,0.234-0.017,0.353c0,0.117,0.087,0.234,0.087,0.352
				C35.555,44.995,35.402,45.247,35.402,45.364z"/>
		</g>
		<g>
			<path d="M9.4,31.064c0.018-0.117,0.087-0.222,0.122-0.352c0.039-0.122-0.065-0.287-0.043-0.404
				c0.026-0.135,0.295-0.334,0.252-0.447s-0.356-0.122-0.395-0.234c-0.039-0.113,0.152-0.321,0.108-0.435s-0.426-0.078-0.469-0.191
				c-0.048-0.112,0.217-0.36,0.174-0.474c-0.052-0.108-0.078-0.226-0.13-0.343c-0.052-0.104-0.43-0.069-0.478-0.178
				c-0.052-0.11-0.161-0.192-0.208-0.305c-0.052-0.108-0.057-0.239-0.104-0.347c-0.052-0.109,0.2-0.361,0.152-0.465
				c-0.048-0.113-0.057-0.239-0.109-0.348s-0.291-0.122-0.339-0.23c-0.139,0.03-0.178,0.122-0.313,0.161
				c0.021,0.113-0.244,0.182-0.226,0.295c0.018,0.113,0.104,0.217,0.122,0.33c0.018,0.113,0.009,0.243,0.026,0.356
				c0.021,0.113,0.052,0.239,0.078,0.348c0.03,0.113,0.191,0.191,0.234,0.3c0.043,0.117,0.243,0.179,0.278,0.283
				c0.035,0.121-0.273,0.313-0.256,0.425c0.021,0.122,0.395,0.209,0.391,0.322c0,0.121-0.004,0.277-0.03,0.399
				c-0.03,0.113-0.226,0.187-0.287,0.295c-0.057,0.101-0.309,0.035-0.396,0.131c-0.074,0.078,0.022,0.339-0.074,0.417
				c-0.087,0.069-0.2,0.135-0.304,0.199c-0.104,0.062-0.217,0.113-0.313,0.183c-0.096,0.074-0.244,0.083-0.33,0.156
				c-0.096,0.078-0.174,0.183-0.261,0.261c-0.091,0.078-0.2,0.14-0.287,0.222c-0.087,0.083-0.087,0.257-0.174,0.344
				c-0.087,0.078-0.361-0.031-0.448,0.052c-0.083,0.078,0.048,0.408-0.035,0.486c-0.091,0.087-0.295,0.039-0.387,0.122
				c-0.086,0.078-0.061,0.304-0.152,0.382c-0.087,0.069-0.273,0.035-0.382,0.087c-0.104,0.052-0.187,0.147-0.3,0.187
				c-0.104,0.039-0.173-0.182-0.278-0.135c-0.026-0.104-0.035-0.069-0.074-0.173c-0.039-0.104-0.022-0.218-0.057-0.322
				c-0.03-0.108-0.343-0.156-0.356-0.261c-0.013-0.121,0.191-0.265,0.182-0.382c-0.009-0.122,0.122-0.234,0.122-0.356
				c0-0.121-0.173-0.238-0.173-0.355c0.008-0.122-0.235-0.261-0.226-0.374c0.009-0.122,0.087-0.243,0.104-0.36
				c0.018-0.117-0.026-0.257-0.004-0.369c0.021-0.122,0.343-0.174,0.369-0.287c0.026-0.117,0.122-0.208,0.156-0.321
				s-0.043-0.261,0-0.374c0.043-0.112,0.004-0.252,0.052-0.36c0.043-0.108,0.113-0.213,0.161-0.321s0.304-0.117,0.352-0.23
				c0.056-0.104,0.008-0.256,0.061-0.365c0.052-0.104-0.113-0.334-0.052-0.438c0.057-0.104,0.452-0.009,0.513-0.113
				c0.065-0.104,0.113-0.204,0.178-0.304c0.065-0.1-0.083-0.334-0.018-0.435c0.065-0.1,0.013-0.282,0.083-0.378
				c0.07-0.104,0.348-0.052,0.417-0.152c0.07-0.1,0.048-0.256,0.122-0.352c0.061-0.096,0.052-0.27,0.135-0.356
				C5.955,25.1,6.125,25.1,6.211,25.021c0.087-0.069,0.322,0.057,0.413-0.009c0.091-0.065,0.126-0.217,0.222-0.278
				c0.096-0.052,0.252,0.013,0.356-0.043c0.104-0.048,0.047-0.426,0.156-0.478c0.104-0.043,0.287,0.086,0.395,0.043
				c0.109-0.04,0.187-0.152,0.3-0.191c0.109-0.035,0.256,0.065,0.365,0.039c0.113-0.03,0.226-0.048,0.33-0.065
				c0.113-0.026,0.234,0.008,0.339-0.013c0.113-0.018,0.226,0.004,0.339-0.004c0.117-0.013,0.208-0.174,0.321-0.174
				c0.117-0.009,0.23-0.139,0.343-0.139c0.117,0.004,0.239,0.017,0.352,0.035c0.113,0.009,0.174,0.282,0.278,0.313
				c0.113,0.035,0.365-0.313,0.46-0.265c0.113,0.047,0.191,0.217,0.273,0.282c0.091,0.078,0.248,0.078,0.334,0.152
				c0.087,0.078,0.148,0.196,0.235,0.274s0.122,0.217,0.208,0.295c0.078,0.087-0.018,0.33,0.061,0.417
				c0.078,0.083,0.117,0.191,0.191,0.282c0.069,0.091,0.456-0.057,0.525,0.039c0.065,0.096,0.13,0.2,0.195,0.295
				c0.061,0.096,0.096,0.226,0.157,0.321c0.061,0.104-0.226,0.382-0.174,0.487c0.048,0.104,0.252,0.13,0.295,0.234
				c0.048,0.104,0.187,0.178,0.226,0.287c0.039,0.109,0.018,0.239,0.043,0.356c0.031,0.104,0.252,0.178,0.27,0.295
				c0.026,0.113-0.113,0.261-0.096,0.374c0.022,0.117-0.226,0.256-0.217,0.373c0.009,0.113,0.443,0.205,0.443,0.322
				c0.009,0.112-0.365,0.234-0.369,0.347c0,0.113,0.126,0.227,0.117,0.339c-0.013,0.113,0.182,0.248,0.169,0.361
				c-0.013,0.117-0.091,0.229-0.109,0.334c-0.017,0.113-0.374,0.156-0.399,0.265c-0.026,0.109,0.061,0.239,0.026,0.348
				c-0.03,0.109-0.017,0.23-0.052,0.335c-0.043,0.104-0.139,0.187-0.183,0.286c-0.052,0.104-0.087,0.2-0.144,0.3
				c-0.056,0.101-0.169,0.152-0.23,0.248c-0.065,0.096-0.026,0.252-0.096,0.339c-0.069,0.096,0.043,0.339-0.035,0.426
				c-0.069,0.087-0.183,0.147-0.265,0.226s-0.143,0.2-0.23,0.278c-0.083,0.069-0.435-0.191-0.53-0.122
				c-0.104,0.083-0.017,0.431-0.104,0.461c-0.122,0.048-0.265-0.096-0.361-0.122c-0.1-0.034-0.204-0.065-0.282-0.156
				c-0.065-0.078,0.018-0.261-0.039-0.356s-0.378-0.017-0.435-0.112c-0.056-0.087,0.091-0.296,0.057-0.4
				c-0.043-0.104-0.282-0.13-0.313-0.234c-0.039-0.104,0.2-0.304,0.156-0.408s-0.339-0.069-0.4-0.16
				c-0.061-0.092-0.052-0.188-0.139-0.257c-0.078-0.061-0.078-0.295-0.191-0.33c-0.095-0.035-0.261,0.165-0.382,0.161
				C9.356,31.242,9.417,31.104,9.4,31.064z M8.301,25.004c0.048,0.104,0.065,0.278,0.113,0.386c0.048,0.109,0.23,0.161,0.282,0.274
				c0.052,0.108-0.165,0.33-0.113,0.438c0.043,0.109,0.352,0.109,0.399,0.217c0.048,0.109-0.147,0.326-0.096,0.435
				c0.043,0.108,0.426,0.078,0.474,0.187c0.048,0.109-0.222,0.356-0.178,0.469c0.048,0.104,0.087,0.226,0.13,0.33
				c0.043,0.113,0.426,0.079,0.474,0.191c0.048,0.105,0.152,0.192,0.204,0.3c0.043,0.108,0.052,0.238,0.096,0.352
				c0.043,0.104-0.213,0.352-0.165,0.461c0.048,0.108,0.056,0.234,0.104,0.343s0.295,0.135,0.339,0.239
				c0.048,0.112,0.191,0.178,0.239,0.286c0.048,0.108-0.195,0.348-0.152,0.452c0.048,0.113,0.161,0.191,0.208,0.304
				c0.048,0.104,0.069,0.227,0.113,0.339c0.048,0.104,0.096,0.218,0.144,0.321c0.048,0.113,0.217,0.165,0.265,0.274
				c0.043,0.108,0.243,0.151,0.291,0.256c0.048,0.113-0.126,0.461-0.074,0.569c0.113-0.039,0.226-0.404,0.322-0.456
				c0.104-0.057,0.161-0.122,0.252-0.191c0.091-0.074,0.261-0.035,0.339-0.122c0.074-0.087,0.347-0.047,0.408-0.139
				c0.061-0.096-0.104-0.334-0.052-0.438c0.048-0.104,0.104-0.195,0.139-0.313c0.035-0.109,0.087-0.204,0.117-0.322
				c0.026-0.108,0.13-0.208,0.152-0.321c0.018-0.112,0-0.234,0.009-0.348c0.018-0.112,0.048-0.229,0.052-0.343
				c0.004-0.122-0.122-0.234-0.126-0.348c-0.004-0.117,0.252-0.247,0.243-0.365c-0.009-0.121-0.352-0.19-0.369-0.304
				c-0.018-0.117,0.126-0.261,0.096-0.373c-0.026-0.114-0.235-0.166-0.274-0.27c-0.039-0.113,0.031-0.252-0.013-0.356
				c-0.052-0.104-0.157-0.183-0.208-0.278c-0.052-0.104,0.134-0.348,0.078-0.443c-0.061-0.104-0.191-0.165-0.256-0.26
				c-0.065-0.1-0.091-0.23-0.161-0.322c-0.065-0.096-0.37-0.004-0.443-0.091c-0.078-0.091,0-0.321-0.078-0.395
				c-0.083-0.087-0.091-0.274-0.178-0.348c-0.091-0.069-0.299-0.004-0.395-0.069c-0.096-0.061-0.304,0.104-0.408,0.056
				c-0.104-0.047-0.174-0.143-0.278-0.178c-0.113-0.035-0.217,0.008-0.33-0.013c-0.113-0.018-0.183-0.326-0.304-0.334
				c-0.113-0.004-0.234-0.069-0.356-0.061c-0.113,0-0.222,0.13-0.339,0.148c-0.109,0.017-0.208,0.122-0.326,0.147
				C8.592,25.004,8.414,24.965,8.301,25.004z M7.081,29.531c-0.018-0.131,0-0.282-0.009-0.408c-0.018-0.131-0.183-0.234-0.191-0.356
				c-0.017-0.126,0.252-0.287,0.239-0.408c-0.013-0.126-0.313-0.218-0.334-0.339c-0.018-0.126,0.226-0.296,0.2-0.417
				c-0.018-0.122-0.4-0.165-0.435-0.287c-0.017-0.061,0.148-0.339,0.039-0.4c-0.083-0.048-0.2-0.113-0.291-0.152
				c-0.147-0.057-0.208,0.195-0.217,0.208c-0.061,0.095-0.069,0.221-0.139,0.317c-0.061,0.096-0.161,0.156-0.226,0.252
				c-0.061,0.096-0.399,0.018-0.46,0.113C5.195,27.75,5.1,27.836,5.043,27.932c-0.057,0.1,0.083,0.304,0.03,0.409
				c-0.056,0.1-0.008,0.243-0.056,0.348s-0.378,0.087-0.426,0.191c-0.039,0.104-0.022,0.243-0.057,0.355
				C4.5,29.34,4.439,29.453,4.409,29.562c-0.026,0.108-0.056,0.23-0.074,0.339c-0.026,0.108,0.096,0.248,0.078,0.36
				c-0.013,0.113,0.148,0.234,0.139,0.352c-0.009,0.113-0.356,0.222-0.352,0.335s0.369,0.208,0.382,0.321
				c0.009,0.113-0.087,0.061-0.069,0.183c0.095-0.083,0.117-0.009,0.213-0.087c0.095-0.083,0.347,0.03,0.443-0.043
				c0.091-0.087,0.026-0.361,0.122-0.435c0.096-0.087,0.2-0.152,0.295-0.23c0.091-0.083,0.2-0.144,0.295-0.222
				s0.243-0.096,0.339-0.174C6.312,30.183,6.39,30.078,6.485,30c0.091-0.078,0.204-0.139,0.3-0.213
				C6.872,29.705,6.985,29.604,7.081,29.531z"/>
		</g>
		<g>
			<path d="M9.539,31.112c0.026,0.104,0.069,0.226,0.1,0.33c0.022,0.104,0.065,0.209,0.091,0.313
				c0.022,0.104-0.104,0.243-0.083,0.348c0.022,0.104,0.104,0.195,0.13,0.296c0.03,0.104-0.009,0.226,0.03,0.33
				c0.026,0.104-0.143,0.286-0.104,0.391c0.057,0.131,0.295,0.17,0.321,0.282c0.026,0.144-0.03,0.257-0.048,0.374
				c-0.021,0.126-0.161,0.147-0.239,0.252c-0.074,0.096,0.061,0.412-0.052,0.49c-0.095,0.07-0.33-0.069-0.456-0.004
				c-0.104,0.048-0.135,0.265-0.239,0.309c-0.104,0.048-0.183,0.199-0.291,0.234c-0.109,0.035-0.239,0.069-0.352,0.1
				c-0.113,0.026-0.248,0.018-0.36,0.03C7.875,35.204,7.741,35.1,7.627,35.1c-0.113,0.009-0.234,0-0.347,0
				c-0.113-0.008-0.248,0.044-0.361,0.026c-0.113-0.018-0.182-0.247-0.295-0.278c-0.108-0.025-0.308,0.204-0.417,0.165
				c-0.104-0.043-0.195-0.16-0.3-0.208c-0.095-0.052-0.182-0.156-0.278-0.217c-0.096-0.062-0.052-0.331-0.147-0.4
				c-0.07-0.052-0.278,0.035-0.343-0.064c-0.057-0.092,0.048-0.257,0.017-0.353c-0.047-0.13-0.243-0.234-0.208-0.291
				c0.07-0.1,0.361-0.039,0.439-0.135c0.069-0.104-0.122-0.391-0.048-0.486s0.265-0.091,0.348-0.183
				c0.078-0.087,0.048-0.277,0.135-0.369c0.078-0.091,0.178-0.165,0.265-0.247c0.087-0.087,0.387,0.052,0.474-0.03
				c0.087-0.083,0-0.356,0.087-0.439c0.091-0.082,0.152-0.195,0.243-0.269c0.096-0.079,0.261-0.065,0.356-0.144
				c0.091-0.074,0.287-0.026,0.374-0.104c0.095-0.074,0.035-0.343,0.13-0.422c0.095-0.069,0.226-0.1,0.321-0.173
				c0.096-0.07,0.156-0.183,0.261-0.261c0.095-0.078,0.2,0.104,0.295,0.034c0.065,0.087,0.208-0.078,0.26,0
				c0.07,0.092,0.018,0.252,0.079,0.33c0.061,0.096,0.091,0.191,0.147,0.274c0.061,0.087,0.243,0.087,0.304,0.169
				C9.409,31.064,9.504,31.082,9.539,31.112z M6.064,33.519c0.087,0.062,0.126,0,0.226,0.053c0.1,0.052,0.196,0.078,0.3,0.126
				c0.104,0.048,0.144,0.226,0.248,0.265c0.109,0.035,0.235,0.009,0.339,0.039c0.113,0.026,0.208,0.117,0.313,0.13
				c0.113,0.022,0.217,0.257,0.321,0.266c0.122,0,0.243-0.226,0.348-0.234c0.122-0.022,0.256,0,0.348-0.048
				c0.108-0.057,0.326-0.126,0.365-0.23c0.035-0.104-0.261-0.291-0.248-0.399c0.013-0.109,0.256-0.204,0.248-0.317
				c0-0.108-0.191-0.209-0.208-0.317c-0.009-0.108-0.139-0.195-0.152-0.309c-0.017-0.108-0.039-0.217-0.056-0.325
				c-0.018-0.108,0-0.23-0.018-0.339c-0.017-0.113,0.113-0.204,0.104-0.313c-0.152-0.035-0.248-0.053-0.391-0.083
				c-0.083,0.078-0.091,0.191-0.174,0.265c-0.083,0.078-0.308,0.009-0.391,0.087c-0.078,0.074,0.035,0.356-0.047,0.435
				c-0.083,0.074-0.213,0.096-0.295,0.174s-0.2,0.113-0.283,0.191c-0.078,0.078-0.339-0.035-0.417,0.043
				c-0.087,0.078-0.008,0.322-0.095,0.396c-0.079,0.078-0.278,0.03-0.361,0.104C6.003,33.263,6.142,33.432,6.064,33.519z"/>
		</g>
		<g>
			<path d="M33.021,12.346c-0.064,0.104-0.121,0.195-0.204,0.282c-0.082,0.091-0.048,0.304-0.144,0.378
				c-0.087,0.078-0.234,0.104-0.33,0.169c-0.104,0.065-0.313-0.065-0.417-0.013c-0.104,0.052-0.217,0.087-0.321,0.13
				c-0.112,0.048-0.147,0.27-0.261,0.313c-0.112,0.043-0.199,0.161-0.313,0.2c-0.113,0.043-0.295-0.113-0.408-0.069
				c-0.113,0.039-0.126,0.352-0.239,0.399c-0.117,0.035-0.334-0.208-0.447-0.161c-0.113,0.043-0.156,0.256-0.265,0.291
				c-0.113,0.039-0.248,0-0.36,0.03c-0.113,0.026-0.218,0.083-0.331,0.104c-0.121,0.017-0.251-0.152-0.364-0.144
				c-0.117,0.009-0.222,0.113-0.334,0.113c-0.118,0-0.248,0.178-0.361,0.169c-0.113-0.008-0.191-0.352-0.304-0.369
				c-0.113-0.017-0.256,0.148-0.374,0.126c-0.113-0.021-0.2-0.143-0.313-0.178c-0.113-0.03-0.243,0.026-0.356-0.013
				c-0.113-0.039-0.217-0.074-0.33-0.118c-0.104-0.043-0.243-0.008-0.352-0.052c-0.109-0.048-0.126-0.295-0.23-0.343
				c-0.104-0.043-0.269,0.03-0.374-0.018c-0.104-0.048-0.161-0.195-0.265-0.248c-0.104-0.048-0.317,0.122-0.425,0.065
				c-0.113-0.052-0.278-0.039-0.378-0.1c-0.104-0.069,0.026-0.443-0.07-0.521c-0.095-0.079-0.156-0.148-0.234-0.23
				c-0.087-0.091-0.135-0.169-0.2-0.265c-0.074-0.095-0.122-0.178-0.191-0.282c-0.056-0.104-0.122-0.187-0.174-0.295
				c-0.052-0.108-0.108-0.195-0.156-0.313c-0.043-0.109-0.304-0.139-0.348-0.252c-0.035-0.118,0.113-0.287,0.078-0.404
				c-0.035-0.113-0.269-0.165-0.304-0.278c-0.035-0.122,0.174-0.295,0.147-0.408c-0.017-0.113,0-0.217-0.009-0.331
				c-0.017-0.122-0.399-0.221-0.399-0.338c0-0.118,0.287-0.222,0.295-0.339c0.017-0.118-0.239-0.283-0.217-0.396
				c0.026-0.113,0.287-0.178,0.321-0.291c0.026-0.117,0.13-0.2,0.165-0.313c0.035-0.113-0.117-0.295-0.069-0.399
				c0.035-0.113,0.365-0.104,0.408-0.217s0.026-0.243,0.07-0.356c0.043-0.104-0.187-0.343-0.139-0.443
				c0.057-0.104,0.348-0.078,0.408-0.174c0.057-0.095,0.191-0.134,0.256-0.23c0.065-0.096-0.021-0.291,0.057-0.378
				c0.069-0.096,0.026-0.278,0.104-0.365s0.356,0.017,0.435-0.061c0.087-0.078,0.161-0.152,0.248-0.226
				c0.091-0.078,0.039-0.313,0.13-0.382c0.096-0.07,0.313,0.047,0.408-0.009c0.1-0.065,0.109-0.274,0.204-0.322
				c0.104-0.056,0.139-0.273,0.248-0.321c0.109-0.052,0.295,0.069,0.404,0.026c0.108-0.043,0.222-0.091,0.334-0.13
				c0.117-0.035,0.23-0.057,0.343-0.087c0.113-0.035,0.256,0.039,0.374,0.013c0.113-0.03,0.2-0.191,0.317-0.213
				c0.117-0.026,0.248,0.009,0.361-0.008c0.122-0.018,0.226-0.113,0.338-0.13c0.122-0.018,0.243,0,0.36-0.018
				c0.118-0.013,0.23-0.139,0.353-0.147c0.112-0.009,0.247,0.108,0.364,0.104s0.235-0.182,0.356-0.187
				c0.113-0.004,0.243,0.134,0.356,0.134c0.117,0,0.247-0.065,0.356-0.052c0.112,0.013,0.217,0.147,0.325,0.174
				c0.117,0.021,0.23,0.047,0.335,0.078c0.112,0.035,0.243,0,0.356,0.048c0.104,0.039,0.165,0.195,0.269,0.243
				c0.096,0.048,0.104,0.256,0.204,0.317c0.096,0.061,0.183,0.113,0.278,0.178c0.091,0.065,0.204,0.091,0.291,0.161
				c0.087,0.074,0.383-0.096,0.465-0.017c0.083,0.078,0.091,0.243,0.17,0.321c0.078,0.083,0.134,0.195,0.208,0.282
				c0.069,0.083,0.296,0.057,0.369,0.152c0.074,0.087-0.096,0.348-0.03,0.452c0.061,0.095,0.226,0.139,0.278,0.243
				c0.048,0.104-0.122,0.3-0.074,0.408c0.039,0.104,0.273,0.139,0.309,0.252c0.039,0.109,0.139,0.204,0.165,0.321
				c0.026,0.113,0.078,0.226,0.1,0.339c0.021,0.113-0.16,0.261-0.144,0.378c0.014,0.113,0.104,0.222,0.109,0.334
				c0.009,0.113-0.2,0.235-0.2,0.348s0.108,0.226,0.104,0.348c-0.005,0.113,0.135,0.239,0.126,0.356
				c-0.009,0.113-0.113,0.226-0.126,0.339c-0.018,0.113,0.117,0.256,0.1,0.369c-0.026,0.113-0.226,0.191-0.252,0.304
				c-0.03,0.113,0.2,0.3,0.165,0.404c-0.03,0.117-0.391,0.122-0.43,0.23s0.16,0.309,0.112,0.417c-0.048,0.109-0.073,0.226-0.13,0.33
				c-0.048,0.104-0.091,0.226-0.144,0.326c-0.057,0.1-0.252,0.126-0.313,0.226C33.234,12.203,33.091,12.25,33.021,12.346z
				 M25.138,12.833c0.095,0.035,0.208,0.078,0.321,0.126c0.096,0.048,0.274-0.074,0.378-0.026c0.104,0.048,0.183,0.143,0.287,0.187
				c0.104,0.048,0.122,0.295,0.235,0.334c0.104,0.039,0.208,0.1,0.313,0.139c0.104,0.039,0.278-0.104,0.387-0.065
				c0.108,0.035,0.239-0.008,0.343,0.018c0.113,0.026,0.2,0.252,0.321,0.265c0.113,0.013,0.252-0.265,0.373-0.265
				c0.117,0,0.243,0.304,0.365,0.295c0.112-0.009,0.217-0.208,0.339-0.217c0.117-0.017,0.243,0.035,0.36,0.009
				c0.117-0.018,0.23-0.078,0.343-0.113c0.113-0.026,0.282,0.122,0.396,0.087c0.113-0.039,0.2-0.174,0.313-0.217
				c0.113-0.039,0.161-0.248,0.266-0.295c0.112-0.043,0.36,0.217,0.469,0.161c0.108-0.048,0.139-0.273,0.243-0.334
				s0.261-0.035,0.36-0.096c0.104-0.061,0.161-0.204,0.257-0.269c0.1-0.07,0.199-0.144,0.295-0.217
				c0.096-0.078,0.14-0.217,0.222-0.295c0.092-0.087,0.335-0.022,0.413-0.104c0.082-0.095,0.052-0.287,0.117-0.382
				c0.069-0.1,0.222-0.157,0.282-0.252c0.061-0.104-0.104-0.322-0.052-0.435c0.048-0.104,0-0.243,0.043-0.352
				c0.039-0.113,0.435-0.104,0.465-0.217c0.03-0.113,0.069-0.239,0.096-0.36c0.03-0.113,0.065-0.239,0.082-0.356
				c0.018-0.118,0.031-0.244,0.044-0.365c0.009-0.122,0-0.252,0-0.369c0.009-0.117-0.013-0.243-0.013-0.36
				c0-0.122-0.244-0.235-0.248-0.348c-0.004-0.122,0.183-0.252,0.174-0.369S33.5,7.568,33.478,7.459
				c-0.017-0.113,0.191-0.282,0.161-0.391c-0.026-0.109-0.035-0.248-0.078-0.348c-0.044-0.104-0.435-0.048-0.491-0.144
				c-0.057-0.104,0.126-0.339,0.065-0.426c-0.065-0.095-0.348-0.017-0.422-0.104c-0.073-0.087,0.035-0.33-0.039-0.408
				c-0.078-0.083-0.121-0.217-0.208-0.291c-0.078-0.074-0.304,0.008-0.387-0.065c-0.087-0.069,0-0.382-0.096-0.447
				c-0.091-0.065-0.23-0.074-0.325-0.135c-0.096-0.065-0.356,0.148-0.461,0.096c-0.104-0.057-0.096-0.348-0.2-0.387
				c-0.104-0.048-0.199-0.178-0.304-0.208c-0.113-0.03-0.278,0.113-0.391,0.087c-0.113-0.022-0.252,0.104-0.365,0.091
				c-0.113-0.018-0.2-0.3-0.313-0.304c-0.113-0.009-0.243-0.009-0.36-0.009c-0.113,0-0.227,0.222-0.339,0.23
				c-0.113,0.008-0.257-0.2-0.369-0.187c-0.113,0.013-0.2,0.208-0.313,0.226c-0.113,0.026-0.183,0.226-0.295,0.252
				c-0.113,0.026-0.265-0.122-0.378-0.091c-0.109,0.03-0.217,0.074-0.326,0.113c-0.108,0.035-0.221,0.065-0.33,0.104
				c-0.108,0.039-0.26-0.009-0.365,0.035c-0.104,0.048-0.147,0.222-0.252,0.278c-0.104,0.057-0.23,0.057-0.33,0.113
				c-0.1,0.056-0.156,0.178-0.252,0.243c-0.104,0.065-0.208,0.1-0.304,0.169c-0.096,0.069-0.113,0.226-0.2,0.295
				c-0.091,0.078-0.261,0.048-0.348,0.126c-0.087,0.074-0.043,0.273-0.126,0.356s-0.256,0.07-0.33,0.152
				c-0.074,0.095-0.087,0.221-0.152,0.313C24.191,6.89,24.03,6.92,23.974,7.012c-0.056,0.104-0.108,0.2-0.161,0.304
				c-0.048,0.113-0.026,0.243-0.069,0.347c-0.043,0.109-0.187,0.174-0.226,0.278c-0.043,0.113-0.248,0.174-0.278,0.282
				c-0.035,0.113-0.061,0.239-0.087,0.352c-0.026,0.113,0,0.248-0.018,0.36c-0.017,0.117,0.287,0.256,0.287,0.369
				c-0.009,0.122-0.122,0.226-0.113,0.339c0,0.117-0.026,0.23-0.008,0.343c0.017,0.113,0.226,0.178,0.256,0.291
				c0.026,0.113-0.212,0.295-0.178,0.408c0.043,0.104,0.2,0.161,0.252,0.27c0.048,0.104-0.104,0.321-0.035,0.421
				c0.056,0.096,0.295,0.083,0.365,0.178c0.069,0.086,0.191,0.13,0.269,0.221c0.07,0.087,0.165,0.144,0.244,0.23
				c0.078,0.083,0.026,0.304,0.117,0.382c0.083,0.078,0.226,0.087,0.317,0.165C24.995,12.615,25.042,12.763,25.138,12.833z"/>
		</g>
		<g>
			<path d="M28.188,10.052c0.064-0.069,0.265,0.009,0.343-0.056c0.082-0.065,0.208-0.1,0.282-0.169
				c0.074-0.078,0.057-0.287,0.083-0.374c0.03-0.113-0.183-0.287-0.157-0.396c0.026-0.113,0.374-0.143,0.4-0.256
				c0.025-0.113,0.139-0.208,0.165-0.321c0.017-0.113-0.113-0.256-0.087-0.369c0.03-0.113-0.188-0.274-0.165-0.387
				c0.025-0.113,0.421-0.152,0.442-0.265c0.026-0.113,0.053-0.226,0.074-0.343c0.021-0.113-0.282-0.291-0.256-0.404
				c0.021-0.113,0.226-0.23,0.247-0.343c-0.104-0.043-0.23,0.009-0.33-0.026c-0.048,0.104,0.044,0.217-0.004,0.321
				c-0.053,0.104-0.374,0.07-0.422,0.169c-0.048,0.104-0.065,0.226-0.108,0.33c-0.044,0.104,0.096,0.265,0.069,0.378
				c-0.034,0.126-0.247,0.191-0.295,0.304c-0.044,0.122-0.2,0.156-0.261,0.256c-0.069,0.108-0.061,0.222-0.156,0.3
				c-0.091,0.078-0.056,0.426-0.178,0.469c-0.108,0.035-0.308-0.208-0.447-0.2C27.314,8.68,27.21,8.567,27.08,8.558
				c-0.126-0.009-0.256,0.304-0.378,0.304c-0.126,0-0.23,0.061-0.352,0.069s-0.282-0.395-0.408-0.382
				c-0.122,0.018-0.187,0.426-0.313,0.443c-0.122,0.017-0.273-0.235-0.391-0.217c-0.122,0.017-0.234,0.096-0.356,0.104
				c-0.122,0.018-0.226,0.2-0.348,0.208c-0.13,0.009-0.313-0.017-0.447-0.047c-0.135-0.031-0.352-0.152-0.482-0.169
				c0.043-0.126,0.018-0.382,0.057-0.513c0.039-0.122,0.417-0.104,0.482-0.217c0.057-0.104-0.065-0.313-0.008-0.408
				c0.065-0.096,0.113-0.208,0.182-0.304c0.07-0.091,0.243-0.104,0.322-0.191c0.078-0.091,0.147-0.174,0.234-0.252
				c0.078-0.087,0.078-0.252,0.165-0.331c0.087-0.078,0.2-0.13,0.291-0.2c0.091-0.078,0.282-0.017,0.378-0.078
				c0.091-0.065,0.183-0.13,0.282-0.191c0.1-0.065,0.048-0.374,0.152-0.43c0.095-0.061,0.234-0.069,0.339-0.126
				c0.104-0.052,0.339,0.169,0.443,0.122c0.104-0.052,0.191-0.13,0.3-0.174s0.169-0.183,0.282-0.226
				c0.104-0.043,0.208-0.104,0.313-0.148c0.113-0.039,0.156-0.265,0.265-0.304c0.108-0.035,0.304,0.157,0.412,0.122
				c0.104-0.035,0.174-0.217,0.296-0.234c0.104-0.018,0.23,0.174,0.352,0.174c0.113,0,0.226-0.148,0.343-0.139
				c0.113,0.009,0.218,0.078,0.339,0.1c0.113,0.017,0.209,0.104,0.322,0.13c0.112,0.03,0.217,0.048,0.33,0.083
				c0.104,0.035,0.217,0.069,0.321,0.108s0.261-0.039,0.369,0.009s0.126,0.265,0.23,0.317c0.104,0.052,0.19,0.104,0.286,0.165
				c0.101,0.065,0.374-0.104,0.461-0.039c0.096,0.074,0.112,0.239,0.19,0.322c0.087,0.087,0.292,0.104,0.348,0.195
				c0.065,0.1,0.009,0.3,0.044,0.404c0.034,0.118-0.113,0.274-0.087,0.396c0.026,0.117,0.313,0.183,0.33,0.304
				c0.018,0.113,0.096,0.239,0.113,0.36c0.008,0.122-0.335,0.265-0.33,0.387c0.008,0.126,0.226,0.243,0.217,0.36
				c0,0.126-0.248,0.222-0.261,0.343c-0.018,0.113,0.261,0.278,0.234,0.396c-0.021,0.117-0.13,0.221-0.165,0.343
				c-0.03,0.113-0.226,0.174-0.27,0.287c-0.043,0.113,0.196,0.347,0.148,0.46c-0.053,0.104-0.156,0.208-0.218,0.313
				c-0.061,0.104-0.252,0.13-0.325,0.226c-0.065,0.104,0.021,0.321-0.057,0.417c-0.074,0.096-0.2,0.161-0.282,0.252
				c-0.083,0.091-0.291,0.061-0.378,0.147c-0.087,0.083-0.156,0.183-0.252,0.261s-0.291,0.004-0.392,0.069
				c-0.095,0.07-0.034,0.409-0.139,0.469c-0.104,0.061-0.27,0.022-0.382,0.07c-0.104,0.043-0.209,0.143-0.322,0.182
				c-0.117,0.035-0.313-0.256-0.43-0.23c-0.117,0.021-0.213,0.083-0.334,0.095c-0.118,0.013-0.218,0.239-0.339,0.239
				c-0.14,0.009-0.196-0.157-0.274-0.191c-0.112-0.043-0.36,0.026-0.386-0.074c-0.026-0.091,0.147-0.248,0.151-0.36
				c0.005-0.104,0.096-0.208,0.1-0.313c0.009-0.113-0.008-0.217,0.026-0.334c0.035-0.113,0.065-0.23,0.096-0.343
				c0.035-0.117-0.122-0.252-0.122-0.374c0-0.113,0.044-0.2-0.013-0.313c-0.048-0.096,0.044-0.322-0.064-0.409
				C28.326,10.026,28.188,10.083,28.188,10.052z M30.372,5.804c-0.026,0.113-0.209,0.169-0.234,0.282
				c-0.022,0.113-0.096,0.213-0.122,0.326c-0.021,0.113,0.092,0.252,0.069,0.365C30.06,6.89,30.281,7.055,30.25,7.168
				c-0.017,0.113-0.364,0.156-0.391,0.261c-0.026,0.117-0.139,0.208-0.165,0.321c-0.021,0.113,0.108,0.256,0.083,0.37
				c-0.022,0.113,0.187,0.278,0.16,0.391c-0.018,0.113-0.417,0.139-0.443,0.256c-0.025,0.113-0.056,0.217-0.087,0.33
				c-0.017,0.113,0.283,0.295,0.257,0.408c-0.021,0.113-0.23,0.183-0.257,0.295c-0.025,0.113,0.078,0.252,0.053,0.365
				c-0.021,0.113,0.069,0.248,0.043,0.356c-0.025,0.113-0.343,0.156-0.364,0.27c-0.026,0.104-0.009,0.23-0.035,0.339
				c-0.018,0.108,0.135,0.26,0.113,0.374c-0.026,0.104-0.227,0.226-0.243,0.33c0.112,0.043,0.269,0.217,0.386,0.226
				c0.118,0.008,0.274-0.083,0.387-0.104c0.122-0.018,0.135-0.36,0.248-0.404c0.108-0.048,0.33,0.161,0.438,0.1
				c0.101-0.061,0.282-0.043,0.378-0.113c0.092-0.074-0.021-0.396,0.065-0.482c0.082-0.083,0.113-0.195,0.2-0.291
				c0.073-0.087,0.478,0.07,0.547-0.03s-0.2-0.421-0.144-0.521c0.065-0.104,0.353-0.087,0.404-0.191
				c0.052-0.113,0.043-0.252,0.078-0.36c0.039-0.122-0.1-0.27-0.078-0.382c0.021-0.122,0.034-0.235,0.043-0.352
				c0.018-0.126,0.035-0.23,0.048-0.352c0.009-0.122-0.03-0.235-0.039-0.352c0-0.122,0.36-0.265,0.348-0.378
				c-0.018-0.122-0.243-0.217-0.27-0.33c-0.025-0.122-0.078-0.226-0.126-0.33c-0.048-0.117,0.018-0.287-0.039-0.391
				c-0.064-0.104-0.139-0.208-0.226-0.3c-0.074-0.087-0.248-0.087-0.339-0.169c-0.096-0.069-0.165-0.165-0.278-0.23
				c-0.096-0.057-0.139-0.265-0.252-0.313C30.65,5.726,30.485,5.848,30.372,5.804z M27.44,7.994
				c0.056-0.109,0.265-0.113,0.317-0.213c0.061-0.109,0.165-0.187,0.217-0.287c0.061-0.108-0.004-0.282,0.052-0.378
				c0.057-0.113-0.113-0.321-0.069-0.425c0.052-0.113,0.399-0.087,0.442-0.196c0.026-0.069,0.044-0.352-0.025-0.478
				c-0.083-0.144-0.399-0.226-0.417-0.222c-0.113,0.043-0.147,0.309-0.26,0.356c-0.113,0.043-0.365-0.269-0.478-0.226
				c-0.113,0.048-0.234,0.091-0.348,0.147c-0.104,0.048-0.069,0.409-0.182,0.46c-0.104,0.061-0.3-0.043-0.404,0.018
				c-0.104,0.065-0.126,0.243-0.23,0.313c-0.091,0.074-0.104,0.235-0.195,0.313c-0.091,0.083-0.382-0.048-0.465,0.035
				c-0.079,0.087-0.13,0.217-0.208,0.313c-0.07,0.095,0.017,0.295-0.052,0.399c-0.061,0.104-0.278,0.174-0.339,0.282
				c0.13-0.008,0.313,0.13,0.435,0.126c0.126-0.008,0.243-0.095,0.365-0.104c0.13-0.009,0.234-0.339,0.356-0.348
				c0.126-0.009,0.265,0.27,0.391,0.261c0.122-0.009,0.256,0.104,0.378,0.096c0.126-0.009,0.23-0.334,0.348-0.343
				C27.202,7.894,27.314,8.002,27.44,7.994z"/>
		</g>
		<g>
			<path d="M28.309,10.191c-0.048,0.117-0.048,0.27-0.1,0.382c-0.052,0.122-0.434,0.087-0.486,0.208
				c-0.048,0.113,0.169,0.339,0.13,0.46c-0.043,0.117,0.021,0.261-0.009,0.382c-0.035,0.139-0.417,0.122-0.465,0.217
				c-0.065,0.122-0.065,0.182-0.169,0.243c-0.095,0.061-0.147,0.309-0.287,0.317c-0.113,0.004-0.234-0.152-0.374-0.174
				c-0.122-0.017-0.278,0.126-0.391,0.096c-0.122-0.03-0.234-0.1-0.347-0.139c-0.113-0.048-0.148-0.265-0.252-0.317
				c-0.109-0.057-0.187-0.13-0.287-0.2c-0.096-0.069-0.135-0.183-0.226-0.261c-0.087-0.087-0.222-0.096-0.3-0.191
				c-0.074-0.096-0.156-0.169-0.222-0.27c-0.061-0.1-0.317-0.104-0.374-0.217c-0.048-0.104-0.139-0.217-0.178-0.334
				c-0.03-0.091-0.039-0.343-0.013-0.473c0.026-0.161,0.243-0.409,0.304-0.435c0.117-0.039,0.338,0.243,0.452,0.208
				c0.113-0.035,0.139-0.374,0.261-0.4c0.113-0.035,0.291,0.2,0.408,0.178c0.122-0.021,0.191-0.295,0.308-0.317
				c0.118-0.018,0.248-0.004,0.361-0.018c0.122-0.013,0.248,0.018,0.365,0.004c0.122-0.009,0.235-0.048,0.356-0.057
				c0.122-0.008,0.239-0.078,0.36-0.078c0.117-0.009,0.248,0.061,0.36,0.057c0.122-0.004,0.244,0.126,0.365,0.126
				c0.122-0.009,0.104,0.039,0.225,0.039c0,0.117-0.052,0.083-0.061,0.187c0,0.113,0.408,0.226,0.399,0.33
				c0,0.113-0.295,0.208-0.304,0.313C28.131,10.096,28.305,10.157,28.309,10.191z M25.003,10.113
				c0.035,0.104,0.139,0.087,0.191,0.191c0.048,0.104-0.208,0.382-0.147,0.478c0.061,0.096,0.365,0.026,0.435,0.113
				c0.074,0.096,0.217,0.096,0.295,0.174c0.087,0.087-0.052,0.435,0.035,0.495c0.104,0.07,0.273,0.104,0.369,0.13
				c0.126,0.035,0.213-0.182,0.3-0.248c0.095-0.069,0.278-0.039,0.352-0.143c0.074-0.087-0.004-0.283,0.057-0.391
				c0.061-0.104,0.139-0.191,0.191-0.304c0.057-0.108,0.278-0.139,0.331-0.243c0.056-0.113,0.147-0.265,0.208-0.369
				c-0.087-0.087-0.208-0.317-0.283-0.404c-0.113,0.018-0.291,0.109-0.404,0.122c-0.113,0.018-0.222,0.057-0.33,0.074
				c-0.113,0.013-0.196,0.248-0.309,0.265c-0.108,0.018-0.217,0.074-0.33,0.087c-0.117,0.018-0.222,0.026-0.334,0.043
				c-0.113,0.013-0.234-0.043-0.348-0.026C25.164,10.174,25.116,10.1,25.003,10.113z"/>
		</g>
		<g>
			<path d="M37.287,40.495c0.062,0.104,0.057,0.2,0.122,0.304c0.061,0.104,0.152,0.174,0.209,0.283
				c0.086,0.187,0.282,0.386,0.269,0.343c0.092-0.069,0.14-0.152,0.23-0.226c0.087-0.069,0.03-0.313,0.117-0.392
				c0.083-0.073,0.261-0.039,0.348-0.112c0.087-0.069,0.139-0.183,0.226-0.257c0.087-0.073,0.261-0.039,0.348-0.108
				c0.092-0.069,0.261-0.013,0.356-0.082c0.096-0.065,0.174-0.126,0.27-0.188c0.1-0.057,0.069-0.33,0.174-0.378
				c0.104-0.048,0.273,0.096,0.382,0.057c0.113-0.034,0.165-0.278,0.278-0.313c0.112-0.03,0.226-0.074,0.343-0.096
				c0.113-0.026,0.265,0.13,0.383,0.104c0.117-0.018,0.229-0.044,0.343-0.062c0.117-0.017,0.234-0.013,0.348-0.025
				c0.121-0.018,0.226-0.101,0.339-0.113c0.121-0.009,0.226-0.16,0.343-0.174c0.117-0.009,0.266,0.339,0.387,0.33
				c0.113-0.009,0.218-0.147,0.339-0.156c0.117-0.009,0.248,0.104,0.36,0.096c0.117-0.009,0.239-0.057,0.353-0.065
				c0.112-0.013,0.087-0.108,0.208-0.121c-0.035,0.117-0.096,0.091-0.13,0.204c-0.031,0.117,0.269,0.313,0.234,0.435
				c-0.03,0.117-0.183,0.199-0.209,0.316c-0.034,0.117-0.078,0.227-0.104,0.344c-0.035,0.117-0.313,0.165-0.348,0.282
				c-0.03,0.117,0.121,0.282,0.091,0.396c-0.03,0.112,0.1,0.269,0.065,0.387c-0.026,0.112-0.287,0.169-0.321,0.286
				c-0.026,0.113,0.199,0.3,0.169,0.413c-0.03,0.112-0.291,0.1-0.317,0.213c-0.121,0.004-0.061-0.065-0.182-0.057
				c-0.009-0.113-0.179-0.057-0.191-0.165c-0.018-0.113-0.17-0.2-0.187-0.309c-0.014-0.108,0.121-0.239,0.112-0.352
				c-0.009-0.104-0.151-0.227-0.144-0.339c0.009-0.122,0.287-0.23,0.274-0.326c-0.009-0.126-0.227-0.195-0.266-0.282
				c-0.043-0.113-0.121-0.078-0.208-0.131c-0.087-0.047-0.092-0.126-0.218-0.121c-0.095,0.004-0.165,0.078-0.282,0.113
				c-0.096,0.025-0.412-0.204-0.525-0.157c0.005,0.113,0.261,0.339,0.261,0.452s0.104,0.226,0.104,0.339
				c-0.009,0.113-0.369,0.2-0.383,0.309c-0.017,0.113,0.018,0.213-0.009,0.317c-0.025,0.108,0.174,0.291,0.126,0.391
				s-0.229,0.13-0.295,0.222c-0.065,0.087-0.026,0.291-0.117,0.369c-0.083,0.061-0.213,0.113-0.321,0.16
				c-0.096,0.048-0.261-0.095-0.383-0.064c-0.117,0.034-0.208,0.025-0.313,0.025c-0.122,0.009-0.183-0.061-0.287-0.095
				c-0.112-0.026-0.217,0.017-0.304-0.048c-0.091-0.065-0.178-0.109-0.252-0.196c-0.069-0.087-0.326-0.056-0.382-0.156
				c-0.057-0.096-0.157-0.195-0.2-0.3c-0.044-0.1,0.113-0.082,0.069-0.19c-0.026,0.108,0.078,0.039,0.052,0.151
				c-0.025,0.104-0.382,0.135-0.412,0.243c-0.026,0.109,0.256,0.3,0.226,0.409c-0.025,0.108-0.316,0.143-0.348,0.247
				c-0.03,0.108,0.179,0.296,0.135,0.399c-0.043,0.122-0.174,0.248-0.27,0.353c-0.095,0.096-0.243,0.169-0.33,0.273
				c-0.104-0.087-0.252-0.152-0.355-0.239c-0.109-0.082-0.27-0.16-0.339-0.27c-0.062-0.108-0.062-0.26-0.131-0.364
				c-0.064-0.113-0.018-0.287-0.073-0.399c-0.065-0.113-0.03-0.27-0.083-0.383c-0.052-0.117-0.104-0.213-0.147-0.334
				c-0.044-0.122-0.47-0.126-0.504-0.248c-0.026-0.1,0.27-0.243,0.295-0.356c0.018-0.096-0.043-0.226-0.009-0.33
				c0.035-0.1,0.244-0.13,0.287-0.229c0.039-0.101,0.035-0.087,0.065-0.188C37.192,40.552,37.161,40.486,37.287,40.495z"/>
		</g>
		<g>
			<path d="M44.872,41.955c0.018-0.122-0.287-0.17-0.261-0.282c0.021-0.118,0.117-0.222,0.139-0.335
				c0.026-0.113,0.07-0.226,0.092-0.339c0.021-0.117-0.048-0.247-0.03-0.36c0.021-0.113,0.13-0.213,0.147-0.326
				c0.018-0.112,0.2-0.208,0.213-0.321c0.013-0.121,0.073-0.226,0.091-0.33c0.018-0.122-0.004-0.226,0.022-0.33
				c0.03-0.122,0.03-0.226,0.073-0.313c0.053-0.113,0.078-0.209,0.165-0.274c0.078-0.064,0.135-0.325,0.261-0.343
				c0.096-0.018,0.243,0.126,0.374,0.135c0.095,0.009,0.226-0.026,0.347-0.005c0.104,0.018,0.183,0.174,0.305,0.205
				c0.104,0.021,0.052,0.073,0.174,0.108c-0.078,0.078-0.113-0.018-0.183,0.061c-0.078,0.087,0.035,0.339-0.026,0.408
				c-0.104,0.113-0.355,0.165-0.391,0.209c0.078,0.096,0.352,0.096,0.435,0.19c0.078,0.101,0.183,0.188,0.261,0.283
				c0.082,0.1,0.017,0.313,0.082,0.417c0.065,0.108,0.126,0.208,0.161,0.33c0.034,0.108,0.009,0.221-0.018,0.369
				c-0.021,0.121,0.009,0.27-0.052,0.391c-0.062,0.13-0.053,0.356-0.14,0.43c-0.096,0.083-0.408-0.139-0.499-0.082
				c-0.104,0.065-0.135,0.226-0.239,0.265c-0.113,0.048-0.234-0.057-0.356-0.03c-0.117,0.021-0.19,0.061-0.316,0.061
				c-0.118,0-0.209,0.018-0.33-0.009c-0.118-0.021-0.205-0.052-0.317-0.095C44.941,42.007,44.977,42.011,44.872,41.955z"/>
		</g>
	</g>
</g>
</svg>
