<?xml version="1.0" encoding="utf-8"?>
<!-- Generator: Adobe Illustrator 16.0.0, SVG Export Plug-In . SVG Version: 6.00 Build 0)  -->
<!DOCTYPE svg PUBLIC "-//W3C//DTD SVG 1.1//EN" "http://www.w3.org/Graphics/SVG/1.1/DTD/svg11.dtd">
<svg version="1.1" id="圖層_1" xmlns="http://www.w3.org/2000/svg" xmlns:xlink="http://www.w3.org/1999/xlink" x="0px" y="0px"
	 width="55px" height="55px" viewBox="0 0 55 55" enable-background="new 0 0 55 55" xml:space="preserve">
<g>
	<path fill="#FFFFFF" d="M18.294,22.691c1.036-0.397,1.851-0.835,2.71-0.994c0.473-0.08,1.188,0.189,1.499,0.546
		c0.258,0.303,0.229,1.029,0.067,1.471c-0.445,1.237-1.543,1.908-2.783,1.858c-1.188-0.044-1.478,0.442-1.135,1.566
		c0.509,1.679,0.586,3.329-0.772,4.754c-0.746,0.781-1.414,0.706-2.134,0.021c-0.969-0.925-1.332-2.873-0.815-4.169
		c0.114-0.288,0.067-0.641,0.094-0.969c-0.382,0.03-0.825-0.06-1.141,0.104c-0.948,0.472-1.846,1.048-2.768,1.57
		c-0.939,0.532-2.295-0.233-2.385-1.331c-0.144-1.734,1.536-3.479,3.521-3.647c1.59-0.144,1.59-0.144,1.088-1.565
		c-0.746-2.107-0.229-4.427,1.27-5.704c1.312-1.113,2.902-0.706,3.229,0.974c0.289,1.476,0.258,3.011,0.373,4.521
		C18.242,22.016,18.264,22.324,18.294,22.691z M17.283,24.629c-0.015-0.875-0.144-1.62-1.217-1.679
		c-1.113-0.055-1.918,0.651-1.809,1.927c0.084,0.964,1.001,1.263,1.918,1.342C17.534,26.339,17.04,25.226,17.283,24.629z"/>
	<path fill="#FFFFFF" d="M25.591,8.749c0.084-0.338,0.244-0.855,0.333-1.381c0.248-1.476,0.419-3.031,1.793-3.925
		c0.584-0.378,1.481-0.617,2.109-0.453c0.378,0.104,0.808,1.178,0.698,1.709c-0.291,1.386-0.85,2.728-1.341,4.069
		c-0.13,0.348-0.4,0.656-0.726,1.183c0.563,0.03,0.874,0.049,1.183,0.055c0.325,0.01,0.678-0.064,0.979,0.02
		c1.108,0.318,2.139,0.8,2.383,2.082c0.204,1.083-0.549,1.69-1.353,2.157c-0.983,0.566-2.771,0.357-3.507-0.328
		c-0.426-0.397-0.851-0.8-1.278-1.202c-0.117,0.059-0.236,0.119-0.351,0.179c0.025,0.417,0.12,0.845,0.067,1.252
		c-0.1,0.81-0.157,1.66-0.462,2.395c-0.186,0.453-0.84,1.039-1.222,0.994c-0.492-0.049-1.265-0.626-1.317-1.053
		c-0.125-1.013-0.025-2.107,0.211-3.105c0.301-1.247-0.425-2.281-1.657-1.918c-0.949,0.273-1.545,0.025-1.985-0.725
		c-0.606-1.039-0.663-2.123,0.033-3.161c0.549-0.82,1.451-1.158,2.278-0.81C23.481,7.218,24.378,7.974,25.591,8.749z M27.899,10.915
		c-0.012-0.204-0.027-0.412-0.037-0.616c-0.457-0.263-0.893-0.696-1.369-0.75c-0.989-0.104-1.595,0.571-1.523,1.485
		c0.032,0.417,0.844,1.168,1.083,1.093C26.727,11.914,27.293,11.342,27.899,10.915z"/>
	<path fill="#657718" d="M40.238,35.85c-0.595-0.855-1.467-1.63-1.74-2.584c-0.758-2.634-0.715-5.218,1.156-7.533
		c0.901-1.113,1.604-2.395,2.512-3.771c1.192,2.23,2.479,4.462,3.592,6.782c0.788,1.63,0.917,3.464,0.197,5.119
		c-0.383,0.884-1.395,1.5-2.167,2.275c-0.259-0.313-0.407-0.417-0.397-0.487c0.353-2.216-0.186-4.383-0.333-6.574
		c-0.005-0.084,0.017-0.184-0.024-0.243c-0.4-0.586-0.783-1.183-1.245-1.714c-0.067-0.075-0.674,0.129-0.803,0.343
		c-0.39,0.631-0.711,1.192-0.523,2.136c0.327,1.641,0.166,3.38,0.19,5.068c0.005,0.319-0.072,0.637-0.106,0.955
		C40.446,35.695,40.342,35.775,40.238,35.85z"/>
	<path fill="#72935C" d="M33.221,33.206c-0.275-0.606-0.596-1.183-0.807-1.81c-1.136-3.284-2.4-6.528-3.292-9.888
		c-0.478-1.789-1.041-3.567-1.457-5.381c-0.067-0.283,0.149-0.631,0.233-0.954c0.187,0.258,0.435,0.492,0.544,0.78
		c0.478,1.252,0.975,2.504,1.342,3.791c0.224,0.765,0.224,1.6,0.326,2.405c0.021,0.159,0.031,0.323,0.089,0.477
		c0.502,1.297,1.073,2.574,1.514,3.896c0.615,1.844,1.149,3.707,1.704,5.565c0.095,0.317,0.119,0.661,0.172,0.989
		C33.475,33.116,33.346,33.156,33.221,33.206z"/>
	<path fill="#72935C" d="M37.259,42.046c0.44,0.67,0.73,1.192,1.099,1.645c0.266,0.317,0.668,0.795,0.958,0.761
		c0.334-0.045,0.726-0.522,0.878-0.9c0.477-1.202,0.859-2.439,1.373-3.637c-0.156,1.838-0.342,3.657-1.593,5.178
		c-0.186,0.224-0.19,0.8-0.036,1.068c1.096,1.883,2.251,3.727,3.386,5.58c0.077,0.129,0.14,0.268,0.233,0.452
		C42.074,51.964,36.995,43.959,37.259,42.046z"/>
	<path fill="#72935C" d="M34.052,33.941c1.05,2.623,1.975,4.938,2.974,7.443C35.818,40.982,33.585,35.456,34.052,33.941z"/>
	<path fill="#72935C" d="M41.854,28.584c0.582,2.615,0.611,5.248,0.357,7.892c-0.118,0.01-0.237,0.01-0.357,0.015
		C41.854,33.852,41.854,31.218,41.854,28.584z"/>
	<path fill="#72935C" d="M28.692,32.207c-1.208-0.442-2.416-0.884-3.623-1.332c0.049-0.149,0.096-0.293,0.148-0.442
		c1.208,0.423,2.416,0.846,3.618,1.268C28.789,31.874,28.744,32.043,28.692,32.207z"/>
	<g>
		<path d="M32.101,33.39c-0.134-0.01-0.357,0.304-0.486,0.294c-0.134-0.011-0.227-0.443-0.358-0.452
			c-0.134-0.016-0.301,0.332-0.435,0.322c-0.134-0.02-0.238-0.264-0.367-0.283c-0.135-0.015-0.264-0.01-0.396-0.03
			c-0.13-0.024-0.283,0.12-0.417,0.095c-0.132-0.02-0.214-0.318-0.343-0.337c-0.13-0.031-0.328,0.292-0.458,0.268
			c-0.129-0.025-0.248-0.12-0.377-0.149c-0.13-0.029-0.229-0.193-0.358-0.224c-0.129-0.034-0.253-0.075-0.382-0.109
			c-0.13-0.034-0.229-0.153-0.358-0.194c-0.129-0.034-0.368,0.31-0.499,0.27c-0.125-0.045-0.097-0.552-0.221-0.592
			c-0.124-0.045-0.395,0.322-0.519,0.278c-0.125-0.045-0.229-0.164-0.348-0.214c-0.124-0.044-0.159-0.308-0.278-0.362
			c-0.124-0.05-0.186-0.214-0.311-0.273c-0.119-0.06-0.323,0.069-0.442,0.015c-0.119-0.054-0.341,0.09-0.46,0.035
			c-0.119-0.064-0.146-0.293-0.266-0.358c-0.114-0.059-0.206-0.163-0.32-0.229c-0.114-0.069-0.281-0.05-0.395-0.119
			c-0.112-0.064-0.176-0.214-0.284-0.288c-0.109-0.069-0.281-0.06-0.39-0.134c-0.109-0.075-0.149-0.244-0.253-0.323
			s-0.343,0.01-0.45-0.069c-0.104-0.085-0.156-0.229-0.26-0.318c-0.102-0.08-0.092-0.298-0.197-0.383
			c-0.099-0.09-0.368,0.01-0.467-0.074c-0.096-0.089,0.11-0.502,0.016-0.597c-0.092-0.089-0.269-0.089-0.363-0.188
			c-0.092-0.095-0.465,0.079-0.559-0.02c-0.087-0.095,0.027-0.328-0.063-0.433c-0.01,0.154-0.291,0.233-0.295,0.357
			c-0.01,0.154,0.452,0.313,0.442,0.433c-0.012,0.153-0.358,0.264-0.365,0.388c-0.01,0.139,0.137,0.283,0.126,0.417
			c-0.018,0.14,0.015,0.278-0.018,0.412c-0.025,0.13,0.022,0.294-0.015,0.418c-0.038,0.135-0.125,0.254-0.171,0.383
			c-0.047,0.119-0.335,0.139-0.393,0.269c-0.057,0.119-0.171,0.198-0.239,0.313c-0.067,0.118,0.196,0.441,0.125,0.551
			c-0.079,0.114-0.353,0.079-0.435,0.189c-0.084,0.104-0.176,0.197-0.271,0.292c-0.094,0.095-0.129,0.259-0.233,0.344
			c-0.104,0.089-0.331,0-0.44,0.069c-0.114,0.08-0.224,0.109-0.343,0.159c-0.125,0.06-0.177,0.263-0.301,0.293
			c-0.134,0.029-0.263-0.005-0.392-0.01c-0.132-0.005-0.249-0.021-0.386-0.055c-0.124-0.035-0.278,0.01-0.402-0.05
			c-0.12-0.05-0.194-0.189-0.309-0.269c-0.106-0.074-0.087-0.299-0.191-0.388c-0.097-0.079-0.325-0.009-0.424-0.108
			c-0.092-0.095-0.154-0.215-0.244-0.318c-0.082-0.104-0.02-0.299-0.092-0.417c-0.079-0.11-0.4-0.05-0.467-0.17
			c-0.067-0.113-0.305-0.153-0.362-0.273c-0.058-0.118,0.243-0.402,0.191-0.531c-0.047-0.119-0.067-0.249-0.104-0.378
			c-0.035-0.129-0.459-0.159-0.487-0.293c-0.025-0.129,0.052-0.293,0.038-0.433c-0.015-0.145,0.154-0.308,0.139-0.457
			c-0.01-0.139,0.099-0.298,0.089-0.452c-0.013-0.144-0.281-0.184-0.291-0.338c-0.114,0.055-0.071,0.164-0.181,0.219
			c-0.114,0.055-0.377-0.194-0.487-0.134c-0.114,0.054-0.261,0.039-0.368,0.099c-0.114,0.055-0.132,0.294-0.243,0.348
			c-0.114,0.05-0.152,0.284-0.266,0.334c-0.114,0.044-0.278-0.025-0.398,0.015c-0.124,0.039-0.266,0.039-0.385,0.069
			c-0.129,0.03-0.239,0.219-0.363,0.229c-0.129,0.01-0.269-0.243-0.397-0.248c-0.131-0.011-0.313,0.337-0.437,0.308
			c-0.129-0.024-0.211-0.293-0.331-0.338c-0.124-0.04-0.176-0.229-0.291-0.288s-0.388,0.134-0.492,0.06
			c-0.104-0.069-0.114-0.283-0.214-0.368c-0.092-0.089-0.295-0.084-0.382-0.184c-0.082-0.095-0.015-0.328-0.089-0.432
			c-0.072-0.1-0.306-0.11-0.368-0.229c-0.063-0.11-0.015-0.289-0.072-0.408c-0.057-0.114-0.191-0.199-0.238-0.328
			c-0.053-0.129,0.057-0.303,0.027-0.422c-0.037-0.135,0.106-0.274,0.097-0.403c-0.01-0.139,0.018-0.229,0.032-0.348
			c0.015-0.129-0.095-0.259-0.052-0.378c0.047-0.119,0.144-0.188,0.218-0.298c0.072-0.109-0.069-0.382,0.02-0.482
			c0.086-0.094,0.124-0.278,0.224-0.368c0.097-0.089,0.487,0.174,0.589,0.095c0.104-0.084,0.161-0.224,0.266-0.298
			c0.102-0.089,0.139-0.253,0.238-0.337c0.097-0.085,0.273-0.11,0.358-0.199c0.092-0.104,0.062-0.338,0.169-0.427
			c0.109-0.089,0.276-0.099,0.395-0.179c0.114-0.074,0.162-0.278,0.291-0.353c0.119-0.065,0.353,0.074,0.482,0.01
			c0.125-0.064,0.104-0.422,0.233-0.487c0.125-0.054,0.259-0.099,0.388-0.164c0.125-0.06,0.244-0.129,0.373-0.188
			c0.125-0.06,0.281,0.084,0.405,0.015c-0.119-0.084-0.037-0.268-0.119-0.362c-0.1-0.11-0.43-0.035-0.492-0.149
			c-0.067-0.125-0.114-0.298-0.145-0.427c-0.032-0.134-0.109-0.298-0.114-0.433c0-0.134,0.067-0.293,0.087-0.432
			c0.02-0.129-0.02-0.293,0.01-0.428c0.033-0.129,0.191-0.238,0.229-0.367s0.082-0.258,0.114-0.388c0.03-0.139-0.02-0.278,0-0.412
			c0.02-0.134,0.343-0.239,0.348-0.373c0.005-0.134-0.104-0.288-0.125-0.417c-0.022-0.119,0.196-0.154,0.249-0.288
			c0.04-0.11-0.186-0.343-0.114-0.462c0.062-0.104,0.052-0.283,0.139-0.393c0.08-0.1,0.249-0.134,0.338-0.233
			c0.087-0.095,0.097-0.274,0.191-0.368c0.094-0.09,0.166-0.219,0.263-0.303c0.1-0.089,0.275-0.089,0.38-0.169
			c0.102-0.08,0.295-0.05,0.397-0.125c0.109-0.074,0.176-0.213,0.285-0.283c0.114-0.075,0.182-0.224,0.296-0.289
			c0.119-0.07,0.211-0.199,0.325-0.253c0.125-0.055,0.306-0.02,0.42-0.064c0.137-0.045,0.286-0.12,0.4-0.139
			c0.134-0.01,0.286,0.04,0.415,0.035c0.139-0.005,0.295-0.114,0.42-0.104c0.134,0.01,0.253,0.229,0.378,0.259
			c0.129,0.029,0.243,0.119,0.362,0.168c0.119,0.055,0.333-0.025,0.44,0.05c0.109,0.069,0.131,0.273,0.229,0.368
			c0.094,0.089,0.027,0.308,0.109,0.417c0.077,0.094,0.333,0.075,0.405,0.194c0.062,0.109,0.092,0.243,0.149,0.368
			c0.052,0.114,0.266,0.174,0.316,0.303c0.047,0.119,0.057,0.258,0.104,0.393c0.042,0.125,0.104,0.243,0.139,0.362
			c0.037,0.125,0.137,0.229,0.176,0.348c0.038,0.129-0.159,0.318-0.124,0.447c0.037,0.119-0.005,0.268,0.032,0.388
			c0.035,0.129,0.233,0.208,0.269,0.328c0.037,0.129-0.234,0.333-0.197,0.462c0.038,0.124,0.316,0.184,0.353,0.303
			c0.037,0.129,0.062,0.253,0.1,0.377c0.035,0.125,0.206,0.209,0.243,0.338c0.035,0.119-0.094,0.318-0.057,0.447
			c0.114-0.024,0.238-0.218,0.382-0.253c0.125-0.029,0.286,0.065,0.425,0.025c0.124-0.029,0.234-0.168,0.368-0.198
			c0.129-0.03,0.315,0.159,0.452,0.129c0.129-0.03,0.226-0.114,0.363-0.149c0.124,0.075,0.258,0.07,0.373,0.144
			c0.119,0.074,0.229,0.164,0.331,0.249c0.114,0.084,0.244,0.149,0.337,0.243c0.105,0.1,0.207,0.199,0.291,0.298
			c0.087,0.109,0.087,0.278,0.154,0.397c0.075,0.119,0.005,0.283,0.053,0.412c0.052,0.13,0.42,0.164,0.447,0.303
			c0.025,0.13-0.39,0.309-0.386,0.448c0.005,0.139,0,0.233-0.02,0.368c-0.015,0.139,0.301,0.328,0.264,0.462
			c-0.035,0.129-0.398,0.144-0.455,0.273c-0.052,0.12-0.079,0.239-0.146,0.358c-0.063,0.119,0.162,0.402,0.084,0.521
			c-0.072,0.114-0.119,0.253-0.209,0.368c-0.077,0.104-0.439-0.005-0.534,0.094c-0.086,0.109,0.028,0.388-0.072,0.487
			c-0.092,0.099-0.159,0.229-0.263,0.328c-0.1,0.089-0.167,0.229-0.271,0.323c-0.102,0.089-0.067,0.055-0.176,0.139
			c0.109,0.084-0.102,0.263,0.005,0.343c0.109,0.084,0.385-0.06,0.495,0.02c0.107,0.085,0.124,0.289,0.233,0.378
			c0.107,0.075,0.306,0.03,0.417,0.12c0.11,0.074,0.07,0.377,0.177,0.452c0.114,0.08,0.271,0.089,0.385,0.164
			c0.114,0.08,0.167,0.249,0.278,0.318c0.114,0.069,0.432-0.159,0.543-0.09c0.115,0.075,0.105,0.343,0.219,0.418
			c0.114,0.069,0.343-0.05,0.462,0.02s0.139,0.298,0.258,0.363c0.12,0.064,0.219,0.163,0.338,0.229
			c0.119,0.064,0.249,0.114,0.368,0.174c0.119,0.064,0.229,0.149,0.353,0.208c0.125,0.061,0.258,0.095,0.383,0.145
			c0.124,0.055,0.196,0.238,0.325,0.293c0.124,0.045,0.328-0.095,0.452-0.05c0.129,0.05,0.306-0.069,0.435-0.029
			c0.129,0.04,0.172,0.383,0.301,0.417c0.129,0.04,0.264,0.09,0.396,0.119c0.129,0.035,0.311-0.164,0.444-0.139
			c0.135,0.029,0.286-0.09,0.42-0.064c0.135,0.02,0.229,0.283,0.368,0.298c0.134,0.015,0.271,0.005,0.404,0.024
			c0.135,0.011,0.259,0.21,0.398,0.214c0.136,0.005,0.271-0.179,0.404-0.179c-0.029-0.134-0.097-0.233-0.124-0.353
			c-0.024-0.129-0.024-0.259-0.052-0.378c-0.025-0.129,0.166-0.304,0.142-0.427c-0.033-0.125-0.043-0.259-0.08-0.384
			c-0.029-0.123-0.233-0.203-0.273-0.327c-0.042-0.124-0.005-0.278-0.047-0.402c-0.042-0.125-0.209-0.214-0.254-0.338
			c-0.047-0.124-0.266-0.189-0.306-0.318c-0.042-0.129,0.234-0.368,0.187-0.487c-0.042-0.129-0.099-0.249-0.142-0.377
			c-0.039-0.125-0.258-0.189-0.301-0.318c-0.039-0.129-0.062-0.258-0.106-0.387c-0.047-0.129,0.164-0.348,0.124-0.467
			c-0.042-0.129-0.142-0.238-0.186-0.357c-0.043-0.129-0.468-0.12-0.515-0.249c-0.042-0.129,0.139-0.333,0.095-0.458
			c-0.048-0.129,0.081-0.313,0.039-0.437c-0.039-0.124-0.253-0.199-0.296-0.318c-0.039-0.129-0.148-0.238-0.191-0.357
			c-0.039-0.129-0.096-0.249-0.139-0.377c-0.042-0.12-0.09-0.253-0.129-0.378c-0.042-0.124-0.011-0.273-0.053-0.402
			c-0.042-0.125-0.201-0.219-0.238-0.343c-0.042-0.129,0.233-0.408,0.172-0.527c-0.063-0.129-0.582,0-0.649-0.12
			c-0.067-0.119-0.1-0.268-0.162-0.387c-0.067-0.12,0.224-0.417,0.172-0.542c-0.053-0.125-0.145-0.208-0.177-0.348
			c-0.025-0.13-0.283-0.244-0.278-0.388c0.005-0.129,0.191-0.249,0.227-0.393c0.027-0.099-0.274-0.159-0.321-0.293
			c-0.042-0.109,0.321-0.462,0.239-0.562c-0.077-0.089-0.301-0.119-0.41-0.184c-0.102-0.054-0.253-0.164-0.383-0.184
			c-0.114-0.02-0.271,0.094-0.405,0.119c-0.109,0.02-0.239,0.064-0.363,0.12c-0.129,0.064-0.244,0.139-0.373,0.179
			c-0.134,0.04-0.281-0.01-0.415,0.01c-0.139,0.02-0.281,0.328-0.415,0.318c-0.139-0.01-0.278-0.184-0.415-0.224
			c-0.135-0.035-0.274-0.1-0.393-0.164c-0.12-0.069-0.125-0.293-0.229-0.387c-0.099-0.09-0.368-0.035-0.452-0.149
			c-0.077-0.109,0.07-0.353,0.013-0.482c-0.057-0.12-0.129-0.224-0.167-0.363c-0.038-0.125-0.063-0.244-0.089-0.373
			c-0.03-0.125-0.206-0.219-0.227-0.348c-0.022-0.124,0.087-0.273,0.067-0.402c-0.015-0.129,0.078-0.268,0.063-0.398
			c-0.015-0.129-0.457-0.208-0.467-0.337c-0.01-0.129,0.3-0.288,0.29-0.417c-0.009-0.125-0.186-0.243-0.196-0.373
			c-0.013-0.129,0.005-0.259,0-0.388c-0.013-0.134-0.084-0.253-0.094-0.382c-0.01-0.129,0.005-0.258-0.005-0.388
			c-0.01-0.134,0.167-0.337,0.156-0.466c-0.074-0.01-0.295-0.13-0.466-0.139c-0.114-0.016-0.266,0.204-0.4,0.188
			c-0.119-0.009-0.248,0.025-0.378,0.01c-0.146-0.015-0.31,0.035-0.445,0.005c-0.141-0.03-0.29-0.1-0.419-0.149
			c-0.136-0.054-0.104-0.432-0.224-0.502c-0.124-0.074-0.328,0-0.43-0.089c-0.104-0.094-0.067-0.298-0.152-0.408
			c-0.087-0.109-0.511-0.01-0.579-0.139c-0.063-0.119,0.293-0.412,0.253-0.551c-0.038-0.134-0.385-0.204-0.395-0.343
			c-0.015-0.134,0.249-0.278,0.253-0.427c0.007-0.129-0.025-0.258-0.015-0.388c0.01-0.129,0.147-0.249,0.157-0.377
			c0.01-0.129-0.42-0.298-0.405-0.428c0.01-0.129,0.095-0.248,0.109-0.377c0.015-0.134,0.202-0.238,0.216-0.373
			c0.017-0.129-0.01-0.264,0.008-0.393c0.02-0.129,0.278-0.219,0.3-0.343c0.02-0.129-0.395-0.333-0.37-0.462
			C19.062,7.02,19.273,6.93,19.3,6.8c0.025-0.129-0.139-0.298-0.109-0.427c0.025-0.105,0.253-0.243,0.368-0.353
			c0.089-0.084,0.348,0.03,0.462-0.045c0.114-0.064,0.229-0.075,0.348-0.119c0.139-0.045,0.216-0.213,0.326-0.204
			c0.139,0.01,0.281-0.01,0.42,0.005s0.249,0.268,0.382,0.288c0.142,0.021,0.295-0.129,0.438-0.109
			c0.139,0.02,0.273,0.03,0.412,0.055c0.137,0.02,0.296-0.085,0.438-0.055c0.134,0.02,0.263,0.089,0.402,0.12
			c0.137,0.02,0.271,0.08,0.405,0.104c0.134,0.025,0.224,0.313,0.363,0.338c0.134,0.025,0.362-0.413,0.497-0.388
			c0.142,0.025,0.194,0.164,0.333,0.184c0.062-0.11,0.191-0.11,0.253-0.229c0.062-0.11,0.147-0.219,0.208-0.328
			c0.062-0.114,0.226-0.169,0.289-0.289c0.062-0.109,0.027-0.278,0.089-0.393c0.062-0.114-0.027-0.313,0.035-0.422
			c0.062-0.119,0.343-0.109,0.41-0.224c0.063-0.114,0-0.303,0.068-0.412c0.067-0.12,0.318-0.12,0.385-0.229
			c0.067-0.109-0.08-0.358-0.005-0.467c0.072-0.109,0.145-0.218,0.222-0.323c0.079-0.109,0.171-0.219,0.266-0.313
			c0.092-0.1,0.196-0.189,0.3-0.274c0.103-0.084,0.273-0.074,0.388-0.134c0.114-0.07,0.197-0.204,0.316-0.253
			c0.124-0.055,0.295,0.075,0.424,0.035c0.133-0.03,0.251,0.009,0.381-0.005c0.129-0.015,0.243-0.362,0.377-0.358
			c0.135,0.005,0.301-0.099,0.436-0.074c0.129,0.02,0.176,0.452,0.301,0.487c0.124,0.04,0.29-0.045,0.409,0.01
			c0.135,0.06,0.354-0.01,0.463,0.06c0.124,0.084,0.062,0.372,0.153,0.472c0.1,0.104,0.137,0.219,0.209,0.338
			c0.072,0.119,0.259,0.168,0.306,0.303c0.047,0.129,0.029,0.278,0.052,0.417c0.021,0.135,0.011,0.269,0.016,0.413
			c0.005,0.144,0.149,0.283,0.144,0.422c-0.005,0.139-0.092,0.273-0.106,0.413c-0.017,0.125,0.035,0.253,0.015,0.377
			c-0.022,0.125-0.162,0.224-0.186,0.348c-0.022,0.125-0.048,0.243-0.075,0.362c-0.024,0.12,0.137,0.289,0.104,0.408
			c-0.029,0.119-0.072,0.248-0.104,0.368c-0.03,0.119-0.346,0.154-0.383,0.273c-0.035,0.119-0.042,0.243-0.077,0.363
			c-0.047,0.139,0.149,0.328,0.135,0.457c-0.021,0.144-0.14,0.263-0.124,0.393c0.01,0.144-0.083,0.333-0.025,0.452
			c0.057,0.129,0.196,0.239,0.293,0.338c0.09,0.094,0.313,0.04,0.438,0.119c0.108,0.064,0.176,0.209,0.31,0.273
			c0.114,0.05,0.206,0.144,0.315,0.204c0.11,0.054,0.291-0.021,0.4,0.044c0.119,0.064,0.278,0.084,0.383,0.164
			c0.108,0.079-0.068,0.492,0.026,0.581c0.098,0.094,0.378-0.015,0.46,0.089c0.085,0.104,0.323,0.115,0.391,0.224
			c0.066,0.119-0.177,0.397-0.124,0.516c0.05,0.125,0.086,0.229,0.124,0.353c0.029,0.129,0.201,0.224,0.211,0.353
			c0.016,0.129,0.022,0.264,0.016,0.397c-0.006,0.129,0.089,0.288,0.062,0.417c-0.025,0.129-0.227,0.218-0.273,0.338
			c-0.042,0.129-0.048,0.258-0.109,0.378c-0.057,0.119-0.124,0.238-0.196,0.348c-0.072,0.104-0.129,0.224-0.224,0.328
			c-0.082,0.1-0.206,0.169-0.306,0.254c-0.1,0.089-0.148,0.233-0.259,0.313c-0.036,0.025-0.208-0.159-0.242-0.129
			c-0.104,0.07-0.239,0.089-0.354,0.154s-0.229,0.12-0.343,0.184c-0.114,0.06-0.01,0.521-0.129,0.586
			c-0.12,0.064-0.225,0.129-0.338,0.199c-0.112,0.069-0.47-0.253-0.579-0.179c-0.114,0.074-0.167,0.258-0.261,0.337
			c-0.103,0.089-0.021,0.358-0.098,0.457c-0.084,0.104-0.218,0.149-0.271,0.269c-0.045,0.109-0.005,0.224-0.01,0.353
			c-0.006,0.12-0.254,0.274-0.234,0.403c0.022,0.119,0.225,0.208,0.262,0.337c0.029,0.12,0.226,0.189,0.268,0.313
			c0.043,0.12-0.057,0.283-0.01,0.413c0.048,0.119,0.053,0.248,0.093,0.368c0.047,0.119-0.063,0.298-0.021,0.412
			c0.042,0.125,0.301,0.174,0.333,0.293c0.035,0.139,0.149,0.249,0.182,0.377c0.034,0.139,0.057,0.273,0.087,0.408
			c0.037,0.134-0.047,0.298-0.016,0.427c0.03,0.139,0.297,0.214,0.331,0.348c0.032,0.139,0,0.289,0.032,0.422
			c0.03,0.134,0.006,0.284,0.035,0.413c0.032,0.139,0.182,0.239,0.218,0.378c0.038,0.129,0.048,0.268,0.083,0.397
			c0.037,0.139-0.191,0.338-0.155,0.467c0.036,0.139,0.036,0.283,0.072,0.412c0.038,0.135,0.373,0.174,0.416,0.303
			c0.042,0.139-0.038,0.298,0.005,0.433c0.042,0.129,0.181,0.229,0.224,0.357c0.047,0.13,0.057,0.269,0.102,0.403
			c0.048,0.129-0.015,0.298,0.037,0.422c0.052,0.125,0.038,0.278,0.082,0.403c0.047,0.129,0.266,0.199,0.313,0.323
			c0.044,0.129-0.224,0.363-0.182,0.487c0.039,0.129,0.243,0.204,0.283,0.337c0.042,0.13,0.079,0.259,0.114,0.393
			c0.037,0.13,0.109,0.253,0.146,0.383c0.034,0.129,0.258,0.213,0.296,0.343c0.034,0.129-0.079,0.298-0.042,0.437
			c0.034,0.13,0.072,0.264,0.104,0.393c0.03,0.13-0.057,0.293-0.027,0.423c0.032,0.129,0.152,0.248,0.182,0.378
			c0.032,0.129-0.01,0.282,0.027,0.412c0.035,0.129-0.146,0.323-0.109,0.452c0.035,0.129,0.296,0.199,0.331,0.328
			c0.036,0.129,0.104,0.258,0.146,0.388c0.039,0.129,0.268,0.198,0.311,0.327c0.042,0.13-0.151,0.333-0.109,0.462
			c0.048,0.136,0.025,0.283,0.071,0.414c0.048,0.118-0.02,0.302,0.033,0.426c0.052,0.125,0.243,0.199,0.295,0.323
			c0.058,0.125,0.201,0.204,0.259,0.333c0.058,0.12,0.114,0.239,0.171,0.357c0.058,0.12,0.058,0.273,0.11,0.394
			c0.05,0.118,0.392,0.113,0.449,0.238c0.052,0.124-0.264,0.407-0.211,0.531c0.05,0.129,0.145,0.229,0.196,0.354
			c0.052,0.124,0.353,0.144,0.405,0.263c0.05,0.129-0.172,0.368-0.12,0.487c0.05,0.13,0.106,0.248,0.159,0.367
			c0.052,0.13,0.072,0.259,0.119,0.388c0.053,0.119,0.037,0.273,0.084,0.397c0.05,0.125,0.478,0.1,0.527,0.225
			c0.052,0.124-0.124,0.332-0.077,0.462c0.048,0.119,0.328,0.158,0.373,0.282c0.048,0.125-0.129,0.338-0.083,0.463
			c0.048,0.124,0.332,0.153,0.384,0.277c0.047,0.125-0.201,0.369-0.155,0.498c0.045,0.119,0.202,0.203,0.249,0.328
			c0.048,0.124-0.037,0.298,0.016,0.427c0.052,0.119,0.378,0.13,0.43,0.259c0.052,0.124,0.079,0.253,0.129,0.378
			c0.052,0.124,0,0.287,0.048,0.417c0.052,0.119,0.041,0.269,0.094,0.387c0.053,0.12,0.363,0.11,0.436,0.229
			c0.062,0.11,0.071,0.249,0.147,0.368c0.07,0.109-0.2,0.433-0.123,0.557c0.066,0.109,0.352-0.108,0.424,0.015
			c0.059-0.123-0.057-0.114,0-0.238c0.059-0.124,0.143-0.233,0.189-0.353c0.05-0.12,0.144-0.229,0.191-0.349
			c0.052-0.129,0.368-0.153,0.415-0.278c0.044-0.129-0.105-0.327-0.063-0.446c0.04-0.129,0-0.283,0.035-0.412
			c0.037-0.13,0.02-0.269,0.053-0.402c0.031-0.13,0.071-0.249,0.1-0.378c0.023-0.14,0.143-0.249,0.163-0.378
			c0.022-0.134-0.106-0.278-0.097-0.412c0.015-0.135,0.087-0.254,0.092-0.394c0.005-0.129-0.092-0.258-0.092-0.396
			c0-0.135,0.087-0.259,0.081-0.394c-0.005-0.134,0-0.258-0.014-0.392c-0.016-0.135,0.28-0.308,0.258-0.443
			c-0.021-0.129-0.134-0.332-0.229-0.452c-0.087-0.118-0.269-0.229-0.378-0.297c-0.113-0.07-0.268-0.085-0.373-0.17
			c-0.108-0.079-0.328-0.029-0.424-0.119c-0.104-0.084-0.234-0.159-0.328-0.248c-0.097-0.095-0.04-0.348-0.129-0.442
			c-0.088-0.104-0.145-0.229-0.222-0.333c-0.084-0.109-0.313-0.113-0.385-0.229c-0.072-0.113-0.11-0.258-0.172-0.373
			c-0.062-0.118,0.137-0.362,0.079-0.481c-0.057-0.125-0.29-0.159-0.337-0.288c-0.048-0.129,0.139-0.323,0.1-0.452
			c-0.043-0.13-0.11-0.233-0.147-0.363c-0.029-0.129-0.407-0.179-0.435-0.318c-0.024-0.129,0.139-0.297,0.124-0.426
			c-0.02-0.14,0.166-0.289,0.152-0.423c-0.018-0.134-0.204-0.244-0.215-0.378c-0.009-0.134-0.129-0.259-0.134-0.393
			c-0.005-0.135,0.244-0.278,0.238-0.408c-0.005-0.139-0.435-0.258-0.435-0.397c0-0.134,0.346-0.268,0.346-0.402
			c0-0.134-0.14-0.272-0.14-0.402c0-0.129-0.171-0.283-0.156-0.407c0.013-0.13,0.313-0.224,0.333-0.354
			c0.02-0.129-0.214-0.313-0.182-0.441c0.029-0.12,0.005-0.283,0.048-0.407c0.04-0.125,0.529-0.08,0.579-0.199
			c0.052-0.119-0.197-0.368-0.14-0.477c0.058-0.119,0.052-0.273,0.114-0.387c0.062-0.109,0.145-0.219,0.211-0.338
			c0.07-0.109,0.047-0.278,0.115-0.388c0.066-0.109,0.332-0.099,0.404-0.209c0.066-0.109,0.072-0.258,0.139-0.368
			c0.067-0.109,0.368-0.075,0.443-0.184c0.071-0.109-0.177-0.423-0.105-0.532c0.067-0.109,0.177-0.189,0.244-0.298
			c0.067-0.109,0.145-0.208,0.206-0.328c0.063-0.109,0.239-0.164,0.296-0.278s0.193-0.199,0.248-0.318
			c0.058-0.12,0.018-0.278,0.069-0.398c0.05-0.119,0.107-0.238,0.16-0.357c0.052-0.119,0.322-0.149,0.367-0.269
			c0.047-0.119-0.082-0.318-0.035-0.438c0.048-0.119,0.005-0.278,0.058-0.397c0.045-0.119,0.278-0.168,0.33-0.288
			c0.052-0.119-0.057-0.303-0.005-0.422c0.052-0.119,0.306-0.149,0.357-0.263c0.053-0.114,0.104-0.208,0.177-0.308
			c0.072-0.109,0.201-0.159,0.28-0.264c0.077-0.104-0.067-0.551,0.005-0.661c0.082,0.08,0.145,0.432,0.233,0.507
			c0.088,0.07,0.177,0.134,0.254,0.209c0.081,0.089,0.181,0.129,0.233,0.229c0.063,0.109,0.114,0.238,0.182,0.348
			c0.066,0.119,0.177,0.204,0.243,0.318c0.067,0.114,0.217,0.179,0.283,0.289c0.069,0.119,0.239,0.168,0.309,0.283
			c0.066,0.114,0.03,0.288,0.097,0.402c0.067,0.114,0.09,0.253,0.157,0.368c0.066,0.114,0.113,0.244,0.181,0.358
			c0.066,0.114,0.063,0.268,0.125,0.388c0.066,0.109,0.066,0.268,0.134,0.377c0.066,0.119,0.425,0.064,0.486,0.179
			c0.067,0.114-0.196,0.417-0.129,0.527c0.067,0.119,0.249,0.159,0.315,0.278c0.063,0.119,0.373,0.1,0.435,0.219
			c0.064,0.119-0.055,0.333,0.008,0.452c0.062,0.119,0.139,0.229,0.195,0.348c0.063,0.119-0.066,0.328-0.009,0.447
			c0.057,0.119,0.097,0.243,0.153,0.363c0.058,0.119,0.41,0.1,0.462,0.218c0.053,0.119-0.208,0.383-0.156,0.507
			c0.053,0.119,0.276,0.168,0.328,0.288c0.052,0.129,0.077,0.258,0.119,0.387c0.046,0.12,0.288,0.184,0.328,0.309
			c0.044,0.124-0.01,0.288,0.03,0.417c0.034,0.129-0.084,0.298-0.05,0.427c0.04,0.13,0.292,0.204,0.323,0.339
			c0.034,0.129-0.016,0.278,0.01,0.407c0.024,0.129-0.085,0.288-0.064,0.422c0.029,0.129,0.144,0.249,0.163,0.378
			c0.021,0.129,0.274,0.229,0.294,0.363c0.02,0.134-0.368,0.318-0.348,0.457c0.009,0.134,0.422,0.219,0.437,0.348
			c0.021,0.139-0.089,0.283-0.069,0.417c0.01,0.135-0.278,0.299-0.269,0.428c0.01,0.14,0.109,0.264,0.119,0.397
			c0.011,0.134,0.194,0.254,0.204,0.388s0.119,0.278,0.109,0.397c-0.005,0.139-0.174,0.259-0.194,0.378
			c-0.029,0.129,0.104,0.322,0.06,0.441c-0.049,0.125-0.407,0.104-0.472,0.214c-0.064,0.114-0.045,0.264-0.124,0.363
			c-0.079,0.104-0.01,0.338-0.104,0.433c-0.084,0.089-0.313,0.045-0.414,0.129c-0.098,0.079-0.11,0.278-0.212,0.357
			c-0.104,0.075-0.266,0.075-0.372,0.149c-0.11,0.069-0.276,0.045-0.386,0.113c-0.109,0.065-0.077,0.378-0.187,0.443
			c-0.108,0.06-0.367-0.129-0.481-0.065c-0.114,0.065-0.301-0.005-0.41,0.055c-0.097,0.061-0.196,0.185-0.301,0.259
			c-0.097,0.069-0.129,0.248-0.222,0.327c-0.094,0.086-0.108,0.244-0.188,0.339c-0.081,0.1-0.235,0.139-0.301,0.243
			c-0.067,0.114-0.287,0.209-0.314,0.323c-0.025,0.129,0.1,0.293,0.071,0.428c-0.025,0.129,0.114,0.298,0.09,0.427
			c-0.027,0.13-0.109,0.254-0.134,0.383c-0.027,0.129-0.12,0.249-0.147,0.383c-0.02,0.129-0.057,0.268-0.077,0.397
			c-0.02,0.129-0.081,0.259-0.104,0.393c-0.021,0.134,0.176,0.298,0.156,0.432c-0.022,0.13-0.323,0.22-0.344,0.349
			c-0.019,0.139-0.123,0.258-0.144,0.387c-0.022,0.13,0.072,0.278,0.053,0.413c-0.022,0.135-0.138,0.248-0.156,0.382
			c-0.021,0.135,0.176,0.299,0.156,0.428c-0.022,0.14-0.233,0.239-0.256,0.368c-0.021,0.139,0.347,0.328,0.328,0.467
			c-0.022,0.129-0.086,0.258-0.11,0.388c-0.024,0.144-0.156,0.327-0.248,0.467c-0.095,0.149-0.377,0.075-0.504,0.149
			c-0.112,0.069-0.174,0.238-0.259,0.309c-0.104,0.094,0.005,0.327-0.058,0.421c-0.066,0.11-0.419,0.11-0.439,0.229
			c-0.02,0.12-0.09,0.314-0.062,0.443c0.02,0.118,0.166,0.249,0.223,0.367c0.045,0.11,0.394,0.061,0.466,0.174
			c0.074,0.109-0.031,0.333,0.036,0.443c0.072,0.108,0,0.308,0.067,0.417c0.066,0.108,0.444,0.029,0.52,0.134
			c0.072,0.109-0.13,0.393-0.058,0.502c0.072,0.108,0.093,0.248,0.164,0.357c0.074,0.109,0.114,0.238,0.185,0.349
			c0.071,0.108,0.201,0.184,0.268,0.287c0.072,0.109,0.357,0.08,0.43,0.189s-0.057,0.353,0.016,0.462
			c0.074,0.109,0.266,0.134,0.338,0.243c0.071,0.11-0.043,0.348,0.031,0.457c0.072,0.11,0.212,0.169,0.283,0.278
			c0.072,0.11,0.271,0.129,0.344,0.239c0.072,0.104,0.067,0.253,0.129,0.357c0.067,0.109,0.435,0.07,0.482,0.179
			c0.052,0.12-0.354,0.367-0.338,0.487c0.022,0.119,0.104,0.169,0.068,0.288c-0.031,0.109,0.17,0.358,0.083,0.463
			c-0.072,0.084-0.368-0.065-0.481,0.009c-0.115,0.075-0.197,0.13-0.311,0.175c-0.125,0.054-0.167,0.417-0.291,0.432
			c-0.13,0.015-0.321,0-0.444-0.034c-0.12-0.021-0.095-0.428-0.215-0.497c-0.104-0.065-0.242-0.035-0.342-0.129
			c-0.088-0.08-0.212-0.13-0.301-0.239c-0.082-0.109-0.04-0.304-0.125-0.412c-0.081-0.109-0.459,0.015-0.544-0.095
			c-0.082-0.109,0.137-0.438,0.052-0.542c-0.077-0.108-0.32-0.099-0.396-0.208c-0.08-0.109-0.333-0.095-0.41-0.204
			c-0.079-0.108,0.062-0.382-0.018-0.486c-0.077-0.11-0.106-0.259-0.182-0.368c-0.077-0.109-0.264-0.144-0.335-0.254
			c-0.077-0.108,0.071-0.372,0-0.481c-0.072-0.114-0.275-0.139-0.353-0.249c-0.072-0.113-0.201-0.188-0.281-0.297
			c-0.072-0.12-0.129-0.239-0.201-0.358c-0.072-0.109-0.316-0.119-0.389-0.229c-0.073-0.114,0.155-0.418,0.083-0.526
			c-0.072-0.12-0.119-0.238-0.191-0.358c-0.072-0.119-0.261-0.158-0.328-0.278c-0.066-0.114-0.106-0.248-0.177-0.362
			c-0.066-0.114-0.216-0.185-0.283-0.303c-0.066-0.12-0.052-0.278-0.119-0.398c-0.066-0.119-0.271-0.153-0.338-0.273
			c-0.066-0.118,0.016-0.313-0.052-0.432c-0.067-0.12-0.062-0.278-0.124-0.393c-0.066-0.119-0.159-0.214-0.229-0.333
			c-0.063-0.119-0.03-0.288-0.092-0.407c-0.063-0.119-0.204-0.199-0.267-0.318c-0.062-0.119-0.238-0.174-0.301-0.294
			c-0.062-0.118-0.367-0.113-0.43-0.233c-0.062-0.118,0.027-0.317-0.034-0.437c-0.062-0.12-0.156-0.219-0.219-0.338
			s0.151-0.378,0.09-0.497c-0.063-0.12-0.267-0.168-0.323-0.288c-0.058-0.119-0.134-0.233-0.191-0.353
			c-0.058-0.12-0.015-0.288-0.072-0.407c-0.057-0.12-0.156-0.225-0.214-0.344c-0.057-0.118,0.022-0.308-0.034-0.427
			c-0.058-0.13-0.12-0.239-0.177-0.368c-0.057-0.119-0.452-0.089-0.505-0.208c-0.05-0.129,0.12-0.358,0.063-0.478
			c-0.056-0.119-0.188-0.208-0.244-0.328c-0.057-0.124-0.05-0.268-0.106-0.397c-0.053-0.119-0.022-0.268-0.075-0.388
			c-0.045-0.129-0.368-0.149-0.407-0.278c-0.043-0.124,0.01-0.288-0.027-0.407c-0.035-0.129,0.032-0.288-0.005-0.412
			c-0.035-0.129-0.404-0.165-0.44-0.294c-0.032-0.129,0-0.278-0.032-0.407c-0.029-0.129-0.114-0.238-0.144-0.367
			c-0.037-0.134,0.191-0.328,0.153-0.457c-0.034-0.129-0.186-0.215-0.226-0.344c-0.042-0.124,0.024-0.292-0.021-0.417
			c-0.045-0.124-0.373-0.124-0.431-0.243s0.177-0.372,0.114-0.492c-0.062-0.114-0.196-0.194-0.268-0.303
			C32.181,33.747,32.186,33.494,32.101,33.39z M18.398,22.572c-0.015-0.174-0.31-0.209-0.32-0.363
			c-0.018-0.169,0.387-0.362,0.378-0.526c-0.01-0.135-0.383-0.249-0.396-0.393c-0.01-0.129,0.219-0.278,0.209-0.422
			c-0.005-0.139-0.038-0.273-0.042-0.408c-0.005-0.144-0.172-0.273-0.177-0.402c-0.005-0.145,0.271-0.293,0.258-0.428
			c-0.005-0.139-0.363-0.253-0.373-0.397c-0.01-0.139,0.052-0.278,0.042-0.413c-0.01-0.139,0.114-0.283,0.1-0.422
			c-0.018-0.139-0.018-0.278-0.037-0.417c-0.015-0.134,0.052-0.289,0.032-0.428c-0.022-0.129-0.437-0.198-0.462-0.333
			c-0.027-0.134,0.415-0.393,0.378-0.502c-0.047-0.129-0.497-0.074-0.559-0.179c-0.067-0.114-0.062-0.239-0.147-0.328
			c-0.087-0.099-0.024-0.357-0.129-0.432c-0.102-0.08-0.196-0.273-0.315-0.318c-0.119-0.045-0.326,0.104-0.458,0.089
			c-0.124-0.015-0.243,0.214-0.372,0.223c-0.125,0.01-0.264-0.159-0.393-0.119c-0.12,0.03-0.261,0.035-0.38,0.09
			c-0.112,0.054-0.169,0.208-0.283,0.283c-0.104,0.064-0.261,0.075-0.363,0.154c-0.104,0.089-0.129,0.258-0.229,0.358
			c-0.094,0.099-0.271,0.129-0.353,0.238c-0.082,0.109,0.015,0.343-0.057,0.457c-0.072,0.114-0.207,0.179-0.274,0.309
			c-0.062,0.119-0.271,0.173-0.328,0.298c-0.052,0.124,0.139,0.343,0.095,0.472c-0.043,0.13-0.505,0.145-0.54,0.278
			c-0.032,0.135,0.057,0.309,0.035,0.447c-0.02,0.134,0.353,0.313,0.343,0.457c-0.01,0.134-0.233,0.253-0.239,0.388
			c0,0.135-0.291,0.293-0.281,0.422c0.012,0.139,0.487,0.239,0.509,0.368c0.015,0.139-0.295,0.323-0.266,0.467
			c0.027,0.129,0.214,0.229,0.256,0.368c0.035,0.129,0.125,0.239,0.169,0.368c0.047,0.139,0.176,0.239,0.214,0.348
			c0.047,0.139,0.052,0.284,0.082,0.388c0.042,0.164-0.191,0.308-0.201,0.408c-0.015,0.134-0.042,0.06-0.186,0.119
			c-0.095,0.04-0.12,0.447-0.276,0.467c-0.107,0.015-0.268-0.208-0.415-0.193c-0.117,0.015-0.248,0.015-0.387,0.025
			c-0.135,0.01-0.253,0.119-0.383,0.149c-0.129,0.025-0.318-0.149-0.442-0.104c-0.129,0.035-0.278,0.065-0.397,0.114
			c-0.124,0.05-0.182,0.264-0.296,0.328c-0.119,0.06-0.266,0.084-0.373,0.159c-0.109,0.069-0.224,0.154-0.328,0.239
			c-0.104,0.079-0.145,0.243-0.239,0.337c-0.092,0.089-0.249,0.134-0.331,0.239c-0.089,0.099-0.333,0.099-0.405,0.218
			c-0.072,0.109,0.025,0.348-0.038,0.457c-0.062,0.12-0.144,0.234-0.191,0.358c-0.047,0.125-0.253,0.229-0.283,0.353
			c-0.033,0.129,0.248,0.323,0.236,0.452c-0.01,0.134,0.182,0.244,0.194,0.373c0.01,0.134-0.338,0.338-0.291,0.462
			c0.047,0.124,0.109,0.288,0.181,0.397c0.077,0.109,0.455-0.06,0.554,0.029c0.1,0.09,0.114,0.238,0.229,0.299
			c0.114,0.069,0.159,0.282,0.286,0.327c0.129,0.04,0.263,0.184,0.398,0.194c0.134,0.01,0.248-0.304,0.377-0.333
			c0.132-0.025,0.199-0.1,0.313-0.164s0.397,0.164,0.512,0.1c0.114-0.065,0.271-0.065,0.385-0.135
			c0.111-0.069,0.124-0.317,0.236-0.387c0.114-0.064,0.132-0.303,0.246-0.368c0.111-0.069,0.293-0.024,0.407-0.089
			c0.115-0.069,0.249-0.094,0.368-0.159c0.114-0.064,0.156-0.278,0.271-0.338c0.119-0.064,0.353,0.109,0.472,0.045
			c0.115-0.055,0.172-0.432,0.306-0.442c0.125-0.01,0.278,0.229,0.41,0.233c0.13,0,0.155,0.105,0.278,0.095
			c-0.015,0.159,0.276,0.253,0.271,0.417c-0.005,0.169-0.182,0.333-0.239,0.477c-0.047,0.129,0.052,0.288,0.02,0.423
			c-0.03,0.129-0.249,0.219-0.269,0.353c-0.017,0.134,0.159,0.273,0.154,0.417c-0.005,0.129-0.129,0.259-0.124,0.398
			c0.004,0.134,0.109,0.253,0.129,0.387c0.022,0.135-0.109,0.288-0.077,0.428c0.03,0.129-0.087,0.313-0.047,0.442
			c0.042,0.129,0.072,0.283,0.125,0.412c0.057,0.12,0.243,0.199,0.311,0.313c0.069,0.12,0.104,0.273,0.188,0.383
			c0.083,0.11,0.383,0.021,0.482,0.115c0.107,0.104,0.259,0.084,0.363,0.163c0.119,0.079,0.025,0.536,0.144,0.586
			c0.134,0.05,0.338,0.011,0.472,0.011c0.134,0,0.269-0.129,0.403-0.184c0.114-0.045,0.301-0.03,0.42-0.124
			c0.099-0.079,0.079-0.308,0.181-0.418c0.095-0.1,0.238-0.139,0.318-0.238c0.082-0.109,0.03-0.299,0.102-0.407
			c0.074-0.115,0.338-0.1,0.395-0.219c0.063-0.119-0.196-0.368-0.151-0.487c0.047-0.119,0.104-0.209,0.136-0.338
			c0.035-0.119,0.047-0.229,0.067-0.358c0.02-0.129,0.196-0.218,0.201-0.348c0.01-0.129,0.233-0.258,0.229-0.388
			c0-0.129-0.316-0.248-0.333-0.377c-0.01-0.13-0.005-0.249-0.025-0.378c-0.02-0.129-0.099-0.233-0.124-0.362
			c-0.024-0.124,0-0.258-0.037-0.383c-0.03-0.125-0.134-0.223-0.176-0.348c-0.04-0.145,0.042-0.328,0.022-0.447
			c-0.028-0.159-0.028-0.318-0.016-0.438c0.01-0.159-0.007-0.377,0.067-0.482c0.072-0.109,0.373,0.03,0.512-0.025
			c0.114-0.05,0.196-0.168,0.353-0.184c0.125-0.01,0.248,0.194,0.405,0.204c0.134,0.005,0.273-0.308,0.402-0.323
			c0.137-0.01,0.234-0.144,0.363-0.173c0.132-0.03,0.276,0.04,0.395-0.01c0.125-0.045,0.177-0.204,0.291-0.273
			c0.114-0.064,0.171-0.159,0.278-0.243c0.104-0.08,0.256-0.069,0.348-0.164c0.089-0.094,0.276-0.104,0.353-0.214
			c0.077-0.109,0.077-0.258,0.139-0.377c0.058-0.114,0.022-0.263,0.069-0.388c0.041-0.109-0.017-0.218,0.005-0.353
			c0.02-0.124,0.129-0.218,0.129-0.343c0-0.134-0.052-0.223-0.08-0.343c-0.03-0.139,0.007-0.223-0.067-0.303
			c-0.082-0.094-0.226-0.064-0.353-0.139c-0.112-0.074-0.129-0.298-0.259-0.348c-0.129-0.045-0.253-0.129-0.382-0.149
			c-0.146-0.02-0.258,0.139-0.385,0.169c-0.135,0.025-0.293-0.089-0.425-0.049c-0.129,0.04-0.325-0.1-0.454-0.06
			c-0.13,0.044-0.182,0.308-0.311,0.358c-0.125,0.05-0.266,0.07-0.395,0.124c-0.124,0.05-0.187,0.264-0.315,0.313
			c-0.125,0.054-0.271,0.074-0.4,0.129C18.604,22.722,18.533,22.522,18.398,22.572z M25.566,8.595
			c-0.12-0.075-0.306,0.154-0.42,0.079c-0.12-0.079,0.005-0.502-0.109-0.576s-0.435,0.144-0.549,0.069
			c-0.114-0.084-0.1-0.353-0.214-0.432c-0.112-0.079-0.243-0.139-0.355-0.208c-0.114-0.08-0.318-0.025-0.432-0.1
			c-0.12-0.07-0.092-0.388-0.206-0.452c-0.12-0.069-0.41,0.174-0.529,0.114C22.627,7.024,22.54,6.91,22.416,6.86
			c-0.119-0.05-0.198-0.214-0.318-0.239c-0.124-0.02-0.263-0.04-0.387-0.04c-0.125,0.01-0.286-0.06-0.41-0.03
			c-0.12,0.03-0.087,0.442-0.202,0.497c-0.109,0.06-0.482-0.289-0.581-0.209c-0.1,0.07,0.104,0.487,0.015,0.577
			c-0.082,0.089-0.201,0.129-0.273,0.239c-0.085,0.119-0.353,0.119-0.411,0.248c-0.062,0.129-0.243,0.229-0.291,0.357
			c-0.047,0.139,0.114,0.348,0.095,0.478c-0.022,0.139,0.196,0.288,0.201,0.427c0,0.139-0.176,0.278-0.154,0.417
			c0.02,0.139,0.009,0.288,0.05,0.422c0.042,0.129,0.186,0.223,0.25,0.353c0.055,0.124,0.04,0.288,0.107,0.417
			c0.067,0.12,0.229,0.16,0.306,0.249c0.089,0.109,0.1,0.278,0.204,0.348c0.102,0.08,0.3-0.06,0.42-0.02
			c0.119,0.04,0.191,0.139,0.326,0.139c0.119,0.01,0.253,0.159,0.39,0.139c0.12-0.021,0.182-0.289,0.315-0.328
			c0.135-0.04,0.336,0.368,0.455,0.363c0.142-0.015,0.229-0.12,0.348-0.095c0.134,0.03,0.43-0.258,0.539-0.189
			c0.109,0.075,0.094,0.358,0.177,0.462c0.077,0.104-0.13,0.333-0.083,0.462c0.04,0.119,0.527,0.134,0.544,0.278
			c0.015,0.119-0.318,0.269-0.328,0.412c-0.01,0.13,0.129,0.274,0.1,0.408c-0.032,0.124-0.005,0.263-0.032,0.393
			c-0.025,0.129,0.037,0.258,0.017,0.387c-0.022,0.134-0.079,0.249-0.095,0.378c-0.015,0.129-0.285,0.233-0.295,0.362
			c-0.01,0.129-0.082,0.264-0.087,0.393c-0.005,0.129,0.388,0.264,0.393,0.398c0,0.129-0.233,0.258-0.221,0.387
			c0.01,0.129,0.015,0.268,0.029,0.397c0.015,0.125,0.167,0.219,0.276,0.348c0.087,0.1,0.067,0.368,0.187,0.457
			c0.119,0.089,0.263,0.219,0.387,0.278c0.147,0.069,0.368-0.03,0.497-0.02c0.114,0.01,0.281,0.015,0.42-0.064
			c0.114-0.065,0.239-0.149,0.348-0.244c0.104-0.089,0.134-0.258,0.218-0.363c0.092-0.119,0.244-0.194,0.291-0.313
			c0.05-0.119,0.283-0.199,0.326-0.333c0.037-0.129-0.125-0.328-0.092-0.457c0.03-0.134,0.082-0.263,0.102-0.402
			c0.022-0.129,0.214-0.249,0.229-0.378c0.015-0.139-0.268-0.313-0.253-0.447c0.016-0.139-0.161-0.298-0.146-0.433
			c0.017-0.139,0.405-0.253,0.399-0.397c-0.004-0.139,0-0.293-0.015-0.433c-0.017-0.139-0.4-0.373-0.41-0.507
			c0.119-0.059,0.462-0.129,0.582-0.188c0.106,0.099,0.148,0.368,0.253,0.467c0.109,0.095,0.129,0.284,0.238,0.388
			c0.11,0.1,0.425-0.029,0.529,0.08c0.108,0.095,0.244,0.159,0.351,0.259c0.094,0.089,0.005,0.442,0.132,0.516
			c0.111,0.07,0.23,0.209,0.367,0.259c0.124,0.049,0.335-0.104,0.47-0.07c0.132,0.03,0.301-0.144,0.437-0.119
			c0.135,0.02,0.254,0.159,0.389,0.159c0.142,0.01,0.275,0.049,0.415,0.04c0.139-0.01,0.248-0.189,0.382-0.219
			c0.142-0.025,0.333,0.194,0.463,0.149c0.134-0.05,0.1-0.422,0.213-0.487c0.112-0.07,0.341,0.069,0.45,0
			c0.109-0.075,0.311-0.035,0.41-0.12c0.104-0.079-0.016-0.393,0.072-0.487c0.089-0.1,0.28-0.089,0.347-0.199
			c0.067-0.114-0.019-0.269,0.016-0.397c0.037-0.12,0.249-0.199,0.249-0.338c0.004-0.119-0.192-0.219-0.217-0.358
			c-0.027-0.149,0.063-0.303,0.015-0.427c-0.052-0.134-0.186-0.208-0.258-0.328c-0.074-0.119-0.033-0.313-0.133-0.417
			c-0.091-0.105-0.102-0.333-0.215-0.417c-0.109-0.08-0.238-0.194-0.363-0.269c-0.119-0.07-0.323-0.01-0.452-0.07
			c-0.129-0.049-0.249-0.159-0.378-0.199c-0.129-0.049-0.353,0.189-0.486,0.145c-0.157-0.045-0.276,0.069-0.445,0.079
			c-0.161,0.005-0.333-0.422-0.494-0.432c-0.124-0.005-0.249,0.069-0.393,0.064c-0.114-0.005-0.249,0.095-0.4,0.085
			c-0.119-0.01-0.139-0.045-0.285-0.05c0.089-0.145,0.007-0.269,0.084-0.388c0.097-0.139,0.253-0.219,0.325-0.338
			c0.09-0.139,0.018-0.328,0.063-0.462C29.07,8.58,29.328,8.54,29.375,8.42c0.047-0.119-0.229-0.363-0.182-0.482
			c0.048-0.119,0.114-0.233,0.162-0.357c0.047-0.125,0.082-0.244,0.129-0.368c0.048-0.125,0.244-0.184,0.286-0.313
			c0.04-0.124,0.295-0.169,0.335-0.293c0.043-0.125-0.211-0.343-0.171-0.467c0.042-0.125,0.1-0.239,0.137-0.362
			c0.034-0.125,0.015-0.259,0.052-0.388c0.034-0.129,0.119-0.233,0.149-0.358c0.032-0.125-0.016-0.268,0.015-0.388
			c0.022-0.109,0.146-0.188,0.129-0.328c-0.015-0.125-0.024-0.239-0.067-0.368c-0.034-0.125-0.153-0.204-0.206-0.323
			c-0.057-0.125,0.14-0.393,0.072-0.492c-0.092-0.129-0.301-0.179-0.393-0.198C29.708,2.9,29.584,2.671,29.46,2.667
			c-0.119-0.005-0.251,0.313-0.375,0.328c-0.12,0.015-0.206,0.144-0.331,0.179c-0.119,0.03-0.253-0.04-0.373,0
			c-0.118,0.04-0.171,0.199-0.28,0.249c-0.115,0.06-0.177,0.149-0.276,0.209C27.706,3.71,27.551,3.69,27.452,3.77
			c-0.102,0.089-0.296,0.079-0.383,0.179c-0.094,0.1-0.114,0.253-0.191,0.362c-0.079,0.114-0.062,0.264-0.124,0.383
			c-0.063,0.119-0.042,0.258-0.094,0.383c-0.052,0.124-0.187,0.204-0.229,0.333c-0.04,0.129-0.03,0.258-0.063,0.393
			c-0.029,0.129-0.119,0.243-0.144,0.382c-0.028,0.129,0.062,0.278,0.042,0.412c-0.027,0.134-0.239,0.234-0.261,0.368
			c-0.02,0.135-0.087,0.259-0.114,0.393c-0.02,0.12,0.12,0.269,0.1,0.383c-0.025,0.12-0.191,0.209-0.224,0.318
			c-0.03,0.12-0.249,0.184-0.278,0.293C25.472,8.49,25.586,8.5,25.566,8.595z M40.213,36.008c0.104-0.079,0.072-0.397,0.177-0.471
			c0.02-0.155,0.439-0.199,0.467-0.359c0.02-0.163-0.323-0.347-0.328-0.512c0-0.129,0.229-0.258,0.229-0.387
			s-0.021-0.263-0.021-0.393s-0.156-0.264-0.156-0.393s0.286-0.259,0.286-0.388s-0.348-0.269-0.348-0.397s0.072-0.259,0.072-0.388
			s0.137-0.263,0.137-0.393c0-0.129,0.005-0.264,0.005-0.393c-0.005-0.129,0.081-0.269,0.076-0.397
			c-0.005-0.134-0.409-0.238-0.419-0.367c-0.011-0.13,0.472-0.304,0.457-0.433c-0.018-0.135-0.468-0.204-0.49-0.333
			c-0.019-0.13,0.033-0.264,0.008-0.393c-0.026-0.135,0.187-0.283,0.177-0.402c-0.013-0.14,0.116-0.229,0.129-0.349
			c0.01-0.129-0.167-0.268-0.137-0.387c0.038-0.125-0.134-0.328-0.082-0.438c0.052-0.119,0.281-0.149,0.344-0.258
			c0.062-0.109,0.163-0.194,0.233-0.303c0.057-0.094,0.148-0.268,0.306-0.337c0.196-0.085,0.397-0.05,0.435-0.01
			c0.092,0.109,0.263,0.154,0.353,0.258c0.087,0.109,0.082,0.293,0.166,0.413c0.083,0.109,0.341,0.109,0.425,0.219
			c0.077,0.118,0.093,0.282,0.17,0.402c0.079,0.119,0.022,0.322,0.104,0.441c0.043,0.06,0.259,0.109,0.266,0.194
			c0.011,0.134-0.419,0.304-0.41,0.447c0.011,0.134,0.145,0.264,0.16,0.402c0.017,0.14,0.419,0.233,0.438,0.368
			c0.014,0.139-0.182,0.298-0.167,0.437c0.015,0.135-0.259,0.309-0.238,0.447c0.014,0.13,0.496,0.22,0.519,0.349
			c0.016,0.139-0.308,0.313-0.29,0.452c0.015,0.134,0.186,0.254,0.201,0.393c0.015,0.14,0.077,0.273,0.089,0.412
			c0.011,0.135,0.106,0.269,0.112,0.407c0.012,0.135-0.024,0.284-0.02,0.423c0.004,0.14-0.249,0.278-0.249,0.417
			c0,0.14-0.067,0.269-0.072,0.408c-0.005,0.134,0.383,0.293,0.373,0.427c-0.01,0.14-0.258,0.259-0.276,0.397
			c-0.014,0.129-0.039,0.269-0.062,0.402c-0.011,0.05,0.137,0.084,0.261,0.214c0.057,0.064,0.087,0.338,0.169,0.432
			c0.094-0.094,0.318-0.203,0.415-0.292c0.1-0.09,0.084-0.304,0.182-0.389c0.099-0.089,0.237-0.129,0.337-0.218
			c0.1-0.09,0.201-0.17,0.301-0.259c0.1-0.09,0.134-0.248,0.224-0.338c0.093-0.094,0.249-0.139,0.331-0.233
			c0.09-0.104,0.333-0.104,0.404-0.214c0.072-0.109-0.031-0.348,0.021-0.468c0.057-0.124,0.134-0.242,0.182-0.371
			c0.047-0.13,0.253-0.22,0.287-0.349c0.041-0.129-0.226-0.344-0.192-0.473c0.024-0.134-0.147-0.283-0.125-0.417
			c0.015-0.14,0.417-0.233,0.428-0.368c0-0.139,0.029-0.278,0.029-0.417c0-0.134-0.413-0.248-0.422-0.382
			c-0.01-0.135,0.079-0.269,0.063-0.403c-0.021-0.139,0.141-0.303,0.111-0.433c-0.03-0.134,0.05-0.303,0.01-0.432
			c-0.03-0.129-0.365-0.169-0.41-0.293c-0.048-0.13-0.132-0.225-0.188-0.358c-0.05-0.124,0.208-0.388,0.146-0.512
			c-0.058-0.119-0.047-0.278-0.104-0.397s-0.306-0.149-0.367-0.269c-0.063-0.119-0.301-0.153-0.358-0.272
			c-0.063-0.12-0.005-0.303-0.067-0.423c-0.062-0.119-0.086-0.258-0.151-0.378c-0.062-0.119-0.273-0.159-0.335-0.278
			s0.104-0.358,0.042-0.477c-0.063-0.119-0.447-0.069-0.509-0.189c-0.063-0.114,0.084-0.348,0.019-0.462
			c-0.062-0.12,0.009-0.313-0.062-0.422c-0.062-0.119-0.397-0.09-0.464-0.208c-0.063-0.119,0.01-0.313-0.058-0.433
			c-0.066-0.119-0.261-0.164-0.322-0.283c-0.063-0.12,0.047-0.333-0.021-0.453c-0.063-0.119-0.296-0.144-0.357-0.263
			c-0.063-0.119-0.016-0.298-0.082-0.417c-0.063-0.119-0.21-0.188-0.276-0.308c-0.063-0.119,0.005-0.313-0.058-0.428
			c-0.062-0.119-0.148-0.417-0.216-0.531c-0.079,0.114-0.343,0.303-0.42,0.417c-0.079,0.12-0.037,0.309-0.109,0.428
			c-0.072,0.12-0.196,0.204-0.271,0.323c-0.071,0.119,0.095,0.387,0.022,0.497c-0.072,0.119-0.053,0.298-0.125,0.413
			c-0.074,0.119-0.523-0.005-0.596,0.109s-0.084,0.268-0.161,0.382s-0.063,0.289-0.14,0.397c-0.079,0.12-0.238,0.169-0.323,0.278
			c-0.077,0.109-0.005,0.338-0.086,0.447c-0.082,0.104-0.233,0.164-0.315,0.269c-0.085,0.109-0.043,0.303-0.119,0.412
			c-0.08,0.109-0.344,0.089-0.416,0.194c-0.071,0.12,0.149,0.402,0.083,0.517c-0.067,0.115-0.145,0.208-0.201,0.328
			c-0.063,0.119-0.104,0.229-0.157,0.348c-0.052,0.129-0.248,0.179-0.296,0.303c-0.045,0.125-0.293,0.184-0.335,0.313
			c-0.038,0.129,0.229,0.338,0.195,0.467c-0.029,0.13-0.076,0.238-0.104,0.368c-0.025,0.129,0.018,0.263,0,0.397
			c-0.015,0.134-0.082,0.248-0.092,0.378c-0.011,0.129,0.057,0.258,0.057,0.387c-0.005,0.13-0.129,0.259-0.129,0.388
			c0.005,0.13-0.005,0.259,0.005,0.397c0.011,0.13,0.102,0.249,0.119,0.384c0.015,0.129-0.275,0.302-0.255,0.432
			c0.022,0.13,0.141,0.248,0.165,0.377c0.027,0.135-0.153,0.31-0.124,0.438c0.033,0.129,0.363,0.188,0.396,0.317
			c0.029,0.129,0.177,0.224,0.216,0.353c0.038,0.125-0.02,0.265,0.038,0.388c0.052,0.119,0.219,0.164,0.285,0.273
			c0.067,0.109,0.169,0.184,0.249,0.294c0.071,0.104,0.062,0.268,0.139,0.372c0.076,0.104,0.053,0.288,0.135,0.388
			c0.084,0.104,0.224,0.159,0.306,0.254c0.084,0.104,0.237,0.153,0.323,0.247C40.213,35.546,40.141,35.904,40.213,36.008z
			 M33.159,33.35c0.125-0.044,0.166-0.338,0.291-0.383c-0.022-0.108,0.348-0.149,0.33-0.258c-0.015-0.109-0.393-0.164-0.415-0.273
			c-0.02-0.109,0.182-0.268,0.152-0.377c-0.037-0.124-0.1-0.244-0.135-0.363c-0.037-0.119-0.229-0.199-0.266-0.328
			c-0.035-0.124,0.198-0.328,0.162-0.446c-0.038-0.13-0.411-0.149-0.445-0.279c-0.037-0.124-0.012-0.269-0.048-0.393
			s0.058-0.283,0.021-0.412c-0.037-0.119-0.062-0.248-0.1-0.368c-0.034-0.129,0.018-0.278-0.024-0.402
			c-0.043-0.124-0.457-0.134-0.492-0.254c-0.037-0.123,0.397-0.392,0.358-0.516c-0.038-0.125-0.493-0.12-0.534-0.239
			c-0.038-0.124-0.005-0.268-0.048-0.397c-0.042-0.12,0.139-0.313,0.104-0.438c-0.043-0.125,0.042-0.289,0-0.407
			c-0.043-0.129-0.276-0.184-0.315-0.308c-0.047-0.134-0.313-0.189-0.357-0.318c-0.048-0.129,0.082-0.328,0.034-0.458
			c-0.045-0.129-0.057-0.273-0.109-0.407c-0.05-0.129-0.196-0.224-0.248-0.353c-0.053-0.129-0.021-0.288-0.072-0.417
			c-0.053-0.134-0.201-0.218-0.254-0.348c-0.052-0.129,0-0.303-0.052-0.432c-0.053-0.129-0.306-0.174-0.357-0.303
			c-0.053-0.134-0.025-0.293-0.077-0.422c-0.053-0.129,0.052-0.318,0-0.447c-0.058-0.149-0.315-0.269-0.338-0.428
			c-0.016-0.134,0.404-0.318,0.395-0.452c-0.015-0.134-0.146-0.253-0.156-0.388c-0.01-0.134-0.415-0.233-0.43-0.363
			c-0.015-0.134,0.187-0.288,0.171-0.417c-0.02-0.139,0.249-0.323,0.224-0.452c-0.027-0.134-0.514-0.154-0.551-0.283
			c-0.035-0.129,0.25-0.357,0.208-0.487s-0.233-0.209-0.275-0.338c-0.04-0.129-0.135-0.239-0.177-0.358
			c-0.04-0.129-0.169-0.224-0.211-0.357c-0.048-0.12-0.052-0.259-0.1-0.388c-0.047-0.119,0.151-0.338,0.104-0.467
			c-0.048-0.119-0.032-0.273-0.077-0.397c-0.048-0.125-0.467-0.109-0.514-0.229c-0.048-0.129,0.129-0.338,0.076-0.467
			c-0.045-0.119-0.087-0.248-0.139-0.377c-0.058-0.144-0.224-0.229-0.326-0.358c-0.099-0.129-0.191-0.432-0.285-0.557
			c-0.042,0.149-0.249,0.403-0.306,0.557c-0.062,0.174,0.062,0.398,0.092,0.552c0.032,0.129,0.007,0.269,0.037,0.397
			c0.032,0.134,0.063,0.264,0.094,0.393c0.03,0.129,0.154,0.229,0.187,0.357c0.03,0.129-0.018,0.283,0.02,0.413
			c0.038,0.129-0.119,0.303-0.082,0.432c0.035,0.129,0.269,0.204,0.306,0.333c0.035,0.134,0.04,0.263,0.077,0.393
			c0.037,0.129-0.092,0.303-0.057,0.432c0.036,0.129,0.362,0.174,0.399,0.303c0.035,0.129,0.258,0.198,0.296,0.328
			c0.034,0.129-0.301,0.368-0.267,0.486c0.038,0.129,0.048,0.258,0.085,0.388c0.035,0.129,0.455,0.154,0.492,0.283
			c0.035,0.129-0.032,0.283,0,0.413c0.035,0.129-0.109,0.308-0.072,0.438c0.035,0.129-0.042,0.288-0.005,0.417
			c0.034,0.129,0.368,0.173,0.402,0.303c0.037,0.129,0.119,0.244,0.157,0.368c0.034,0.124-0.249,0.353-0.214,0.482
			c0.042,0.129,0.005,0.278,0.042,0.407c0.042,0.13,0.28,0.194,0.32,0.323c0.042,0.129,0.271,0.194,0.311,0.323
			c0.042,0.13-0.04,0.293,0,0.417c0.042,0.125,0.048,0.269,0.09,0.398c0.042,0.129,0.243,0.194,0.29,0.323
			c0.04,0.125-0.161,0.338-0.114,0.462c0.042,0.125,0.425,0.134,0.473,0.259c0.039,0.124-0.142,0.333-0.095,0.457
			s-0.052,0.298-0.01,0.427c0.047,0.129,0.378,0.154,0.425,0.278c0.048,0.124-0.058,0.308-0.015,0.427
			c0.04,0.129,0.229,0.204,0.268,0.328c0.043,0.124-0.097,0.318-0.052,0.447c0.048,0.124,0.267,0.188,0.313,0.318
			c0.045,0.129-0.031,0.293,0.016,0.417s0.177,0.224,0.222,0.348c0.047,0.124-0.055,0.299-0.011,0.428
			c0.047,0.129-0.066,0.308-0.02,0.438c0.047,0.124,0.063,0.258,0.104,0.388c0.039,0.129,0.216,0.209,0.259,0.333
			c0.041,0.124,0.041,0.272,0.086,0.401c0.052,0.115,0.363,0.131,0.421,0.249c0.057,0.119,0.213,0.185,0.27,0.303
			c0.058,0.12-0.285,0.433-0.229,0.552C32.936,33.047,33.107,33.231,33.159,33.35z M37.259,41.881
			c-0.015,0.12,0.162,0.394,0.182,0.548c0.015,0.119-0.368,0.337-0.33,0.477c0.029,0.125,0.417,0.159,0.464,0.288
			c0.042,0.129-0.134,0.328-0.081,0.457c0.046,0.129,0.118,0.249,0.17,0.378c0.053,0.119,0.249,0.179,0.306,0.308
			c0.053,0.12-0.146,0.362-0.084,0.487c0.057,0.119,0.433,0.09,0.495,0.214c0.057,0.119,0.057,0.268,0.123,0.388
			c0.063,0.119,0.006,0.303,0.067,0.423c0.062,0.118,0.12,0.238,0.187,0.357c0.067,0.118,0.052,0.283,0.119,0.402
			s0.478,0.034,0.55,0.154c0.066,0.118-0.287,0.486-0.219,0.601c0.074,0.114,0.514,0.006,0.586,0.119
			c0.072,0.115,0.082,0.273,0.156,0.383c0.072,0.115-0.048,0.353,0.024,0.468c0.072,0.113,0.048,0.297,0.12,0.417
			c0.077,0.109,0.32,0.109,0.4,0.229c0.077,0.109,0.345,0.089,0.425,0.199c0.077,0.113,0.005,0.332,0.082,0.441
			c0.084,0.115,0.124,0.249,0.208,0.357c0.082,0.104,0.249,0.154,0.331,0.259c0.09,0.109,0.099,0.273,0.181,0.378
			c0.09,0.109,0.254,0.144,0.344,0.243c0.091,0.109,0.096,0.288,0.186,0.383c0.098,0.104,0.349,0.055,0.435,0.145
			c0.104,0.109,0.14,0.248,0.233,0.333c0.115,0.1,0.125,0.313,0.224,0.382c0.14,0.085,0.115,0.07,0.222,0.09
			c-0.092-0.18,0.249-0.438,0.172-0.566c-0.072-0.12-0.244-0.174-0.316-0.288c-0.072-0.115-0.477-0.024-0.548-0.14
			c-0.072-0.114,0.041-0.347-0.033-0.462c-0.072-0.114,0.109-0.383,0.038-0.502c-0.072-0.114-0.545,0.016-0.611-0.104
			c-0.067-0.119,0.144-0.412,0.071-0.521c-0.071-0.119-0.281-0.148-0.348-0.269c-0.072-0.108-0.187-0.203-0.258-0.317
			c-0.072-0.114-0.219-0.189-0.287-0.309c-0.07-0.109-0.108-0.254-0.176-0.367c-0.071-0.115,0.08-0.368,0.011-0.482
			c-0.072-0.114-0.082-0.263-0.154-0.383c-0.067-0.119-0.482-0.029-0.55-0.144s0.067-0.358-0.005-0.472
			c-0.074-0.115-0.136-0.239-0.203-0.354c-0.067-0.119-0.211-0.193-0.278-0.303c-0.053-0.1,0.113-0.264,0.097-0.402
			c-0.015-0.125,0.017-0.204,0.032-0.323c0.021-0.144-0.109-0.288-0.043-0.367c0.083-0.1,0.21-0.175,0.287-0.278
			c0.077-0.11,0.153-0.22,0.223-0.328c0.067-0.12,0.05-0.278,0.112-0.394c0.062-0.118,0.199-0.193,0.251-0.322
			c0.05-0.119,0.283-0.174,0.33-0.298c0.048-0.125-0.104-0.323-0.067-0.448c0.038-0.124,0.104-0.242,0.14-0.372
			c0.032-0.124,0.233-0.224,0.261-0.353c0.025-0.129-0.244-0.318-0.224-0.447c0.021-0.13-0.151-0.283-0.129-0.412
			c0.02-0.13,0.419-0.204,0.435-0.338c0.016-0.13,0.052-0.26,0.067-0.389c0.015-0.129-0.373-0.303-0.363-0.432
			c0.011-0.13,0.219-0.119,0.229-0.249c-0.052,0.119-0.123,0.095-0.171,0.214c-0.047,0.12-0.206,0.199-0.253,0.323
			c-0.048,0.119,0.19,0.353,0.148,0.472c-0.047,0.12-0.047,0.259-0.092,0.378c-0.048,0.119-0.41,0.129-0.452,0.249
			c-0.04,0.124-0.159,0.218-0.206,0.337c-0.048,0.12,0.108,0.314,0.062,0.433c-0.042,0.129,0.097,0.313,0.052,0.437
			c-0.046,0.125-0.213,0.199-0.261,0.319c-0.045,0.119-0.134,0.229-0.181,0.348c-0.045,0.119,0.018,0.348-0.072,0.477
			c-0.082,0.119-0.378,0.064-0.482,0.153c-0.124,0.105-0.154,0.518-0.278,0.527c-0.113,0.016-0.29-0.293-0.428-0.392
			c-0.102-0.08-0.096-0.289-0.195-0.398c-0.097-0.109-0.425-0.02-0.507-0.119c-0.085-0.099-0.042-0.304-0.119-0.412
			c-0.072-0.104-0.271-0.134-0.343-0.249c-0.067-0.109,0.027-0.322-0.047-0.441c-0.067-0.109-0.296-0.12-0.368-0.229
			C37.273,42.358,37.335,42.001,37.259,41.881z M34.086,33.782c-0.034,0.104,0.095,0.397,0.09,0.552
			c-0.005,0.119-0.421,0.258-0.41,0.397c0.01,0.124,0.388,0.218,0.41,0.357c0.016,0.125-0.187,0.293-0.161,0.423
			c0.027,0.129,0.077,0.254,0.108,0.388c0.03,0.124,0.219,0.208,0.254,0.342c0.037,0.125-0.196,0.333-0.159,0.453
			c0.035,0.129,0.408,0.148,0.454,0.273c0.043,0.124,0.021,0.268,0.063,0.392c0.043,0.125-0.034,0.299,0.01,0.418
			c0.048,0.12,0.085,0.249,0.138,0.367c0.05,0.129,0.014,0.283,0.066,0.407c0.05,0.125,0.465,0.08,0.521,0.199
			c0.058,0.12-0.335,0.457-0.278,0.577c0.058,0.119,0.507,0.039,0.569,0.148c0.063,0.119,0.058,0.269,0.119,0.383
			c0.067,0.12-0.062,0.343,0,0.452c0.072,0.119,0.047,0.309,0.115,0.412c0.076,0.114,0.324,0.109,0.404,0.204
			c0.092,0.109,0.34,0.034,0.429,0.109c0.115,0.108,0.105,0.313,0.207,0.348c-0.052-0.119-0.058-0.269-0.107-0.393
			c-0.052-0.124-0.197-0.214-0.251-0.333c-0.049-0.129-0.014-0.288-0.062-0.407c-0.052-0.125-0.196-0.214-0.249-0.338
			c-0.052-0.124,0.005-0.288-0.047-0.412c-0.05-0.124-0.3-0.165-0.35-0.294c-0.052-0.119-0.022-0.278-0.074-0.402
			c-0.05-0.124,0.052-0.303,0.005-0.433c-0.05-0.118-0.331-0.153-0.383-0.272c-0.053-0.124,0.311-0.408,0.258-0.531
			c-0.05-0.129-0.211-0.204-0.258-0.328c-0.053-0.125-0.462-0.1-0.512-0.224c-0.052-0.125,0.102-0.323,0.05-0.453
			c-0.05-0.119,0.171-0.357,0.127-0.477c-0.048-0.129-0.534-0.075-0.588-0.199c-0.046-0.123,0.217-0.377,0.167-0.496
			c-0.052-0.129-0.251-0.189-0.296-0.313c-0.052-0.125-0.146-0.229-0.198-0.354c-0.05-0.124-0.182-0.219-0.226-0.338
			C33.989,34.254,34.133,33.912,34.086,33.782z M41.841,28.426c0,0.129,0.19,0.427,0.19,0.557c0,0.129-0.415,0.258-0.415,0.393
			c0,0.129,0.367,0.263,0.367,0.393c0,0.129-0.23,0.263-0.23,0.393c0,0.134,0.021,0.263,0.021,0.392c0,0.13,0.162,0.269,0.162,0.398
			c0,0.129-0.282,0.263-0.282,0.392c0,0.13,0.353,0.265,0.353,0.394s-0.066,0.268-0.066,0.396c0,0.131-0.137,0.265-0.137,0.394
			s-0.01,0.263-0.01,0.392c0,0.13-0.092,0.27-0.092,0.398s0.393,0.258,0.393,0.387c0,0.135-0.497,0.27-0.497,0.398
			s0.44,0.263,0.44,0.392c0,0.135-0.072,0.265-0.072,0.394s-0.229,0.268-0.229,0.397c0,0.129-0.129,0.263-0.129,0.393
			c0,0.129,0.203,0.263,0.203,0.392c0,0.13,0.182,0.14,0.182,0.269c0.118,0,0.106,0.13,0.226,0.12
			c0.013-0.129,0.066-0.259,0.08-0.394c0.009-0.129-0.086-0.268-0.075-0.402c0.013-0.129,0.109-0.258,0.12-0.388
			c0.012-0.129-0.088-0.268-0.083-0.407c0.006-0.129,0.124-0.258,0.129-0.392c0.006-0.135-0.206-0.27-0.206-0.403
			c0.006-0.14,0.088-0.258,0.088-0.397c0-0.129,0.166-0.263,0.166-0.393c0-0.135-0.254-0.259-0.259-0.393
			c-0.005-0.129,0.435-0.278,0.43-0.407c-0.004-0.129-0.134-0.268-0.142-0.398c-0.005-0.129-0.407-0.237-0.412-0.367
			c-0.012-0.129,0.196-0.278,0.187-0.407c-0.013-0.129,0.264-0.288,0.254-0.428c-0.016-0.129-0.497-0.208-0.515-0.338
			c-0.015-0.129,0.301-0.308,0.286-0.438c-0.021-0.129-0.196-0.238-0.219-0.367c-0.021-0.129-0.093-0.248-0.117-0.377
			c-0.027-0.13-0.137-0.249-0.161-0.378C41.736,28.883,41.872,28.555,41.841,28.426z M28.784,32.342
			c0.052-0.174-0.164-0.413-0.114-0.587c-0.119-0.04,0.008-0.368-0.112-0.407c-0.119-0.04-0.362,0.268-0.481,0.219
			c-0.12-0.04-0.167-0.309-0.286-0.349c-0.12-0.039-0.249-0.06-0.368-0.104c-0.12-0.039-0.295,0.07-0.415,0.025
			c-0.119-0.044-0.152-0.348-0.271-0.397c-0.12-0.04-0.358,0.248-0.478,0.204c-0.119-0.045-0.216-0.154-0.335-0.194
			c-0.12-0.04-0.197-0.209-0.316-0.254c-0.119-0.039-0.295-0.084-0.415-0.129c-0.052,0.149-0.214,0.403-0.266,0.553
			c0.12,0.049,0.472-0.189,0.591-0.14c0.119,0.044,0.072,0.552,0.191,0.597c0.119,0.044,0.395-0.328,0.515-0.283
			c0.119,0.044,0.216,0.153,0.335,0.203c0.119,0.044,0.162,0.304,0.286,0.348c0.12,0.045,0.196,0.208,0.315,0.248
			c0.12,0.05,0.313-0.094,0.432-0.054c0.12,0.045,0.321-0.13,0.44-0.085c0.119,0.05,0.177,0.269,0.296,0.313
			C28.448,32.123,28.665,32.297,28.784,32.342z"/>
	</g>
	<g>
		<path d="M17.278,24.629c-0.045,0.109,0.171,0.258,0.161,0.387c-0.01,0.13-0.213,0.249-0.219,0.368
			c-0.01,0.139-0.106,0.253-0.144,0.368c-0.042,0.119,0.052,0.393-0.057,0.477c-0.086,0.064-0.3,0.035-0.457,0.055
			c-0.107,0.015-0.236-0.139-0.388-0.149c-0.144-0.01-0.276-0.044-0.415-0.074c-0.144-0.025-0.353,0.199-0.482,0.159
			c-0.139-0.044-0.211-0.283-0.331-0.348c-0.131-0.07-0.305-0.08-0.405-0.184c-0.1-0.094,0.082-0.357,0.025-0.492
			c-0.052-0.124-0.544-0.144-0.559-0.298c-0.01-0.139,0.487-0.269,0.492-0.388c0.01-0.139-0.097-0.248-0.072-0.368
			c0.037-0.129-0.156-0.337-0.1-0.447c0.063-0.119,0.328-0.09,0.415-0.179c0.089-0.089,0.167-0.154,0.276-0.223
			c0.104-0.065,0.119-0.343,0.244-0.388c0.119-0.035,0.291,0.094,0.42,0.075c0.124-0.01,0.253-0.199,0.388-0.189
			c0.146,0.01,0.253,0.229,0.368,0.268c0.142,0.04,0.198,0.149,0.295,0.219c0.11,0.084,0.442-0.015,0.509,0.099
			c0.063,0.11,0.149,0.278,0.181,0.417c0.03,0.119-0.124,0.298-0.114,0.438C17.325,24.351,17.278,24.49,17.278,24.629z"/>
	</g>
	<g>
		<path d="M27.706,10.806c-0.097,0.075,0.047,0.318-0.05,0.397c-0.1,0.08-0.204,0.139-0.3,0.219c-0.1,0.08-0.301,0.015-0.4,0.089
			c-0.1,0.07-0.1,0.293-0.196,0.358c-0.105,0.069-0.261,0.06-0.368,0.119c-0.109,0.055-0.151,0.328-0.271,0.368
			c-0.077,0.02-0.306-0.229-0.454-0.338c-0.1-0.075-0.152-0.229-0.251-0.328c-0.097-0.1-0.373-0.07-0.445-0.179
			c-0.087-0.129-0.067-0.358-0.077-0.458c-0.01-0.148,0.149-0.278,0.171-0.407c0.02-0.139,0.072-0.238,0.129-0.357
			c0.063-0.129-0.062-0.403,0.035-0.502c0.099-0.095,0.338-0.03,0.467-0.095c0.119-0.054,0.233-0.179,0.377-0.198
			c0.129-0.02,0.256,0.278,0.4,0.293c0.129,0.015,0.382-0.398,0.502-0.343c0.114,0.055-0.02,0.556,0.094,0.636
			c0.109,0.069,0.286,0.04,0.388,0.119c0.109,0.075,0.395-0.029,0.509,0.035c0.005,0.104-0.204,0.283-0.199,0.382
			C27.78,10.716,27.701,10.707,27.706,10.806z"/>
	</g>
</g>
</svg>
