<?xml version="1.0" encoding="utf-8"?>
<!-- Generator: Adobe Illustrator 16.0.0, SVG Export Plug-In . SVG Version: 6.00 Build 0)  -->
<!DOCTYPE svg PUBLIC "-//W3C//DTD SVG 1.1//EN" "http://www.w3.org/Graphics/SVG/1.1/DTD/svg11.dtd">
<svg version="1.1" id="圖層_1" xmlns="http://www.w3.org/2000/svg" xmlns:xlink="http://www.w3.org/1999/xlink" x="0px" y="0px"
	 width="55px" height="55px" viewBox="0 0 55 55" enable-background="new 0 0 55 55" xml:space="preserve">
<g>
	<path d="M21.604,12.817c-0.092-0.01-0.276-0.082-0.363-0.092c-0.089-0.01-0.182-0.036-0.271-0.041c-0.09,0-0.174-0.103-0.264-0.103
		c-0.095-0.01-0.174-0.021-0.256-0.031c-0.089-0.01-0.248,0.271-0.333,0.246c-0.087-0.031-0.187-0.118-0.263-0.164
		c-0.082-0.051-0.072-0.225-0.113-0.317c-0.038-0.077,0.018-0.174,0.01-0.276c-0.002-0.082,0.077-0.143,0.095-0.245
		c0.021-0.082-0.089-0.195-0.051-0.287c0.028-0.087,0.09-0.159,0.136-0.246c0.041-0.082,0.112-0.138,0.164-0.225
		c0.051-0.072,0.136-0.118,0.194-0.194c0.051-0.072-0.005-0.235,0.059-0.307c0.061-0.071,0.151-0.118,0.22-0.189
		c0.064-0.067,0.156-0.22,0.225-0.292c0.008,0.103,0.138,0.282,0.144,0.384c0.002,0.103-0.118,0.21-0.11,0.312
		c0.008,0.103-0.038,0.205-0.025,0.307c0.015,0.102,0.039,0.205,0.064,0.307c0.025,0.092,0.182,0.144,0.223,0.241
		c0.038,0.092-0.151,0.287-0.103,0.384c0.041,0.087,0.161,0.143,0.212,0.246c0.041,0.082,0.077,0.184,0.128,0.276
		C21.361,12.603,21.558,12.715,21.604,12.817z"/>
	<path d="M19.52,13.984c0.097,0,0.278-0.041,0.376-0.041c0.1,0,0.197-0.01,0.294-0.01c0.1,0,0.197,0.123,0.292,0.123
		c0.092,0,0.192,0.026,0.289,0.026s0.192,0.087,0.289,0.087c0.1,0,0.194,0.01,0.292,0.01s0.192-0.317,0.289-0.317
		c0.1,0,0.192,0.041,0.292,0.041c0.095,0,0.192,0.133,0.289,0.133s0.125,0.036,0.223,0.036c-0.062,0.087-0.161,0.036-0.225,0.107
		c-0.069,0.082-0.036,0.235-0.11,0.302c-0.08,0.072-0.169,0.107-0.253,0.169c-0.087,0.051-0.179,0.071-0.271,0.112
		c-0.095,0.041-0.187,0.031-0.281,0.051c-0.1,0.025-0.171,0.179-0.269,0.184c-0.103,0-0.2-0.041-0.302-0.056
		c-0.097-0.021-0.232,0.046-0.322,0.01c-0.092-0.036-0.238-0.036-0.325-0.097c-0.079-0.051-0.095-0.225-0.166-0.297
		c-0.067-0.072-0.09-0.184-0.151-0.266C19.717,14.204,19.566,14.081,19.52,13.984z"/>
	<path d="M35.496,16.48c0-0.092-0.046-0.276-0.046-0.368s-0.016-0.184-0.016-0.276c0-0.097,0.133-0.194,0.133-0.287
		c0-0.092-0.01-0.143-0.01-0.245c0.087,0.061,0.03,0.164,0.087,0.235c0.066,0.082,0.076,0.117,0.097,0.205
		c0.031,0.092,0.338,0.184,0.317,0.276c-0.021,0.087-0.133,0.22-0.194,0.297C35.808,16.378,35.588,16.434,35.496,16.48z"/>
	<path d="M18.696,10.607c0,0.087,0.263,0.209,0.235,0.287c-0.026,0.087-0.171,0.133-0.225,0.205
		c-0.054,0.071-0.223-0.005-0.289,0.051c-0.072,0.051-0.087,0.113-0.174,0.133c-0.084,0.031-0.133,0.179-0.223,0.179
		c-0.09,0-0.207,0.056-0.289,0.03c-0.084-0.025-0.107-0.194-0.179-0.25c-0.071-0.051-0.153-0.082-0.207-0.153
		c-0.051-0.072-0.194-0.113-0.223-0.194c-0.025-0.082-0.048-0.2-0.048-0.287c0-0.092,0.286-0.128,0.312-0.205
		c0.028-0.082-0.033-0.174,0.015-0.246c0.054-0.072,0.046-0.184,0.115-0.24c0.072-0.051,0.151-0.092,0.235-0.123
		c0.084-0.025,0.174,0.113,0.263,0.113c0.092,0,0.215-0.241,0.299-0.215c0.082,0.025,0.072,0.255,0.144,0.312
		c0.071,0.051,0.033,0.148,0.087,0.22c0.051,0.072,0.12,0.077,0.146,0.159C18.722,10.469,18.696,10.515,18.696,10.607z"/>
	<path d="M24.525,10.607c0,0.087-0.1,0.159-0.128,0.24c-0.025,0.087,0.1,0.271,0.049,0.333c-0.051,0.072-0.225,0.062-0.297,0.113
		s-0.207-0.082-0.294-0.051c-0.082,0.031-0.115,0.317-0.208,0.317c-0.089,0-0.179-0.123-0.258-0.148
		c-0.084-0.026-0.062-0.21-0.133-0.261c-0.072-0.056-0.136-0.051-0.189-0.123c-0.051-0.072-0.207-0.072-0.235-0.159
		c-0.028-0.087-0.118-0.179-0.118-0.261c0-0.092,0.154-0.164,0.182-0.246c0.026-0.087,0.031-0.174,0.082-0.246
		c0.054-0.071,0.048-0.22,0.12-0.266c0.072-0.056,0.176-0.112,0.261-0.138c0.082-0.026,0.2,0.23,0.289,0.23
		c0.092,0,0.156-0.082,0.235-0.062c0.082,0.031,0.194-0.01,0.264,0.036c0.071,0.056,0.138,0.118,0.187,0.189
		c0.054,0.072-0.051,0.194-0.025,0.287C24.339,10.475,24.525,10.515,24.525,10.607z"/>
	<path d="M34.396,17.739c0.098,0,0.107-0.113,0.205-0.113s0.194,0.015,0.292,0.015c0.102,0,0.194,0.087,0.291,0.087
		c0.098,0,0.189-0.195,0.292-0.195c0.097,0,0.189,0.133,0.286,0.133c0.103,0,0.194,0.184,0.292,0.184
		c0.097,0,0.189-0.287,0.291-0.287c0.098,0,0.194,0.113,0.287,0.113c0.097,0,0.194,0.174,0.291,0.174
		c0.098,0,0.087-0.118,0.189-0.118c-0.062,0.087,0,0.133-0.062,0.21c-0.066,0.077-0.092,0.209-0.163,0.276
		c-0.077,0.072-0.246,0.021-0.328,0.072c-0.087,0.062-0.153,0.143-0.245,0.184s-0.159,0.179-0.256,0.205
		c-0.092,0.026-0.215,0.046-0.317,0.051c-0.103,0-0.174-0.281-0.276-0.297c-0.097-0.021-0.194,0.051-0.286,0.01
		c-0.092-0.036-0.22,0-0.307-0.061c-0.077-0.051-0.159-0.118-0.23-0.195c-0.066-0.066-0.005-0.235-0.066-0.322
		C34.514,17.79,34.442,17.831,34.396,17.739z"/>
	<path d="M33.623,15.907c0,0.092,0,0.133-0.025,0.215s0.169,0.276,0.113,0.348c-0.057,0.072-0.297-0.056-0.369-0.01
		c-0.071,0.051-0.092,0.113-0.179,0.144c-0.082,0.025-0.133,0.194-0.225,0.194c-0.093,0-0.195-0.031-0.271-0.056
		c-0.082-0.026-0.118-0.148-0.189-0.2s-0.286,0.01-0.338-0.056c-0.051-0.072,0.016-0.235-0.01-0.317
		c-0.031-0.087,0.138-0.174,0.138-0.261c0-0.092-0.261-0.215-0.24-0.297c0.031-0.082,0.174-0.133,0.23-0.205
		c0.051-0.072,0.22,0.01,0.291-0.041c0.072-0.056,0.082-0.118,0.175-0.143c0.081-0.025,0.127-0.174,0.22-0.174
		c0.087,0,0.21-0.062,0.291-0.031c0.082,0.025,0.103,0.194,0.174,0.246c0.072,0.051,0.154,0.082,0.205,0.153
		c0.057,0.072,0.199,0.113,0.225,0.194C33.858,15.703,33.623,15.82,33.623,15.907z"/>
	<path d="M39.169,15.744c0,0.092-0.123,0.174-0.153,0.255c-0.021,0.082,0.01,0.215-0.046,0.287
		c-0.057,0.072-0.271-0.031-0.343,0.021c-0.072,0.051-0.113,0.062-0.194,0.087c-0.082,0.026-0.123,0.041-0.215,0.041
		c-0.088,0-0.215,0.24-0.292,0.215c-0.082-0.025-0.036-0.302-0.107-0.353s-0.139-0.051-0.189-0.123
		c-0.057-0.072-0.235-0.072-0.261-0.154c-0.025-0.082-0.025-0.184-0.025-0.276c0-0.092,0.103-0.164,0.128-0.246
		c0.025-0.082-0.098-0.266-0.052-0.338c0.052-0.071,0.226-0.056,0.297-0.107c0.071-0.056,0.21,0.077,0.297,0.046
		c0.082-0.021,0.117-0.317,0.205-0.317c0.092,0,0.184,0.128,0.266,0.153c0.082,0.031,0.057,0.215,0.128,0.266
		s0.138,0.046,0.189,0.118c0.051,0.072,0.204,0.072,0.235,0.159C39.057,15.559,39.169,15.651,39.169,15.744z"/>
	<path d="M41.85,49.675c-0.107-0.04-0.164-0.153-0.246-0.199c-0.102-0.062-0.112-0.163-0.184-0.235
		c-0.077-0.082-0.235-0.071-0.276-0.169c-0.041-0.087-0.041-0.188-0.062-0.302c-0.016-0.102,0.01-0.194,0.01-0.317
		c0.006-0.092,0.052-0.194,0.052-0.291c0.01-0.098-0.144-0.199-0.133-0.297c0-0.097,0.041-0.199,0.041-0.292
		c0.005-0.102-0.098-0.199-0.098-0.296c0-0.098-0.066-0.194-0.066-0.297c0-0.092,0.128-0.189,0.128-0.287
		c0-0.102,0.057-0.194,0.057-0.296c0-0.098-0.006-0.194-0.006-0.292c0-0.097-0.128-0.199-0.128-0.292
		c0-0.102,0.256-0.199,0.256-0.296c0-0.098-0.082-0.194-0.082-0.297c0-0.092,0.011-0.194,0.011-0.292
		c0-0.097,0.082-0.194,0.082-0.291c0-0.103-0.103-0.194-0.103-0.297c0-0.098,0.112-0.194,0.107-0.297
		c-0.005-0.098,0.016-0.194,0.005-0.297c0-0.087-0.343-0.153-0.357-0.24c-0.011-0.092,0.215-0.22,0.199-0.313
		c-0.016-0.092-0.189-0.143-0.22-0.229c-0.021-0.087,0.133-0.2,0.107-0.287c0.015-0.097,0.046-0.199,0.046-0.316
		c0-0.148-0.006-0.21-0.031-0.328c0.098-0.03,0-0.24,0.098-0.271c0.097-0.031,0.271,0.204,0.363,0.174
		c0.097-0.031,0.174-0.112,0.266-0.144c0.103-0.03,0.194-0.103,0.281-0.133c0.103-0.041,0.2-0.092,0.287-0.128
		c0.102-0.041,0.128-0.23,0.215-0.281c0.097-0.046,0.302,0.092,0.383,0.036c0.088-0.057,0.016-0.313,0.082-0.384
		c0.077-0.072,0.251-0.057,0.297-0.144c0.052-0.087,0.164-0.169,0.185-0.276c0.03-0.092-0.041-0.215-0.031-0.327
		c0.006-0.092,0.072-0.205,0.062-0.313c0-0.097-0.174-0.184-0.184-0.291c-0.011-0.098,0.153-0.226,0.138-0.333
		c-0.016-0.097-0.261-0.158-0.286-0.261c-0.016-0.103,0.107-0.225,0.087-0.327c-0.016-0.092-0.016-0.194-0.041-0.287
		c-0.021-0.102-0.031-0.199-0.052-0.296c-0.025-0.093-0.071-0.185-0.097-0.276c-0.025-0.098-0.098-0.18-0.123-0.276
		c-0.025-0.098-0.103-0.179-0.128-0.276c-0.021-0.092,0.123-0.23,0.103-0.327c-0.021-0.103-0.226-0.153-0.245-0.251
		c-0.021-0.097-0.021-0.199-0.041-0.292c-0.021-0.102,0.061-0.215,0.041-0.307c-0.016-0.103-0.052-0.194-0.062-0.286
		c-0.021-0.103,0.056-0.226,0.041-0.322c-0.021-0.098-0.256-0.159-0.276-0.261c-0.025-0.093-0.052-0.194-0.077-0.297
		c-0.025-0.092,0.087-0.226,0.066-0.327c-0.021-0.103,0.011-0.21-0.01-0.308c-0.016-0.103-0.031-0.199-0.041-0.302
		c-0.016-0.097-0.016-0.199-0.021-0.302c-0.011-0.103-0.164-0.199-0.164-0.297c0-0.102,0.093-0.204,0.103-0.307
		s-0.107-0.23-0.092-0.327c0.021-0.103,0.204-0.164,0.235-0.267c0.03-0.092,0.066-0.184,0.107-0.286
		c0.046-0.103-0.077-0.245-0.077-0.368c0-0.092,0.062-0.194,0.066-0.286c0-0.103,0.016-0.2,0.016-0.297
		c0-0.103,0.03-0.194,0.03-0.297c0-0.098,0.118-0.189,0.123-0.287c0-0.102,0.021-0.194,0.021-0.296c0-0.098,0.005-0.194,0.005-0.292
		c0-0.097-0.107-0.199-0.107-0.291c0-0.103,0.139-0.195,0.144-0.297c0-0.093-0.205-0.194-0.194-0.292c0-0.097,0.01-0.194,0.01-0.292
		c0-0.102-0.071-0.194-0.071-0.296c0-0.098-0.041-0.194-0.041-0.292c0-0.097,0.016-0.199,0.016-0.292c0-0.103,0.107-0.2,0.107-0.297
		s-0.128-0.194-0.133-0.286c0-0.103,0.204-0.205,0.199-0.302c-0.005-0.098,0.077-0.195,0.077-0.292
		c-0.006-0.102-0.205-0.189-0.205-0.286c-0.01-0.103,0.025-0.194,0.021-0.297c0-0.097-0.158-0.184-0.164-0.281
		c0-0.097,0.189-0.21,0.185-0.302c-0.011-0.103-0.123-0.194-0.128-0.287c-0.005-0.103,0.169-0.215,0.158-0.317
		c-0.01-0.097,0.052-0.209,0.031-0.307c-0.011-0.092-0.072-0.189-0.087-0.287c-0.016-0.097-0.077-0.189-0.098-0.287
		s-0.046-0.194-0.071-0.286c-0.031-0.097-0.307-0.123-0.338-0.21c-0.03-0.097,0.266-0.302,0.235-0.389
		c-0.03-0.097-0.389-0.056-0.43-0.143c-0.041-0.087,0.112-0.266,0.071-0.353c-0.051-0.087-0.066-0.194-0.117-0.276
		c-0.046-0.087-0.266-0.062-0.322-0.143c-0.057-0.082,0.062-0.287-0.005-0.369c-0.066-0.071-0.185-0.102-0.251-0.169
		c-0.071-0.066-0.051-0.24-0.128-0.302c-0.071-0.061-0.22-0.051-0.302-0.112c-0.082-0.051-0.266,0.051-0.348-0.005
		c-0.082-0.056-0.041-0.312-0.133-0.358c-0.082-0.046-0.262,0.097-0.354,0.056c-0.087-0.041-0.128-0.194-0.22-0.23
		c-0.092-0.036-0.194-0.036-0.292-0.066c-0.087-0.031-0.179-0.072-0.281-0.097c-0.021-0.005-0.158-0.057-0.23-0.164
		c0.087-0.031,0.343,0.077,0.436,0.046c0.087-0.026,0.174-0.051,0.266-0.077c0.092-0.025,0.185-0.036,0.276-0.066
		c0.087-0.025,0.189-0.021,0.276-0.051c0.092-0.031,0.112-0.256,0.199-0.287c0.092-0.031,0.185-0.041,0.271-0.077
		c0.087-0.036,0.148-0.128,0.235-0.169c0.082-0.036,0.128-0.148,0.209-0.189c0.082-0.041,0.221,0.005,0.303-0.041
		c0.087-0.046,0.275,0.072,0.357,0.016c0.082-0.051,0.052-0.276,0.123-0.338c0.082-0.061,0.164-0.102,0.235-0.168
		c0.071-0.072,0.235-0.067,0.286-0.138c0.062-0.082-0.122-0.271-0.103-0.363c0.031-0.087,0.384-0.082,0.41-0.179
		c0.03-0.087-0.21-0.266-0.185-0.358c0.025-0.092,0.021-0.194,0.041-0.292c0.03-0.092,0.189-0.148,0.215-0.241
		c0.021-0.092,0.051-0.184,0.076-0.281c0.026-0.097-0.056-0.209-0.035-0.307c0.016-0.092,0.153-0.169,0.174-0.261
		c0.01-0.102-0.051-0.205-0.041-0.296c0.01-0.103,0.03-0.195,0.041-0.287c0.005-0.103,0.235-0.189,0.235-0.287
		c0.005-0.097-0.267-0.189-0.271-0.287c-0.005-0.102,0.107-0.205,0.098-0.296c-0.011-0.103,0.03-0.205,0.015-0.297
		c-0.015-0.102-0.199-0.174-0.215-0.266c-0.015-0.102,0.118-0.22,0.107-0.317c-0.02-0.092-0.127-0.174-0.143-0.266
		c-0.021-0.103-0.031-0.194-0.052-0.292s0.103-0.22,0.082-0.317s-0.143-0.168-0.163-0.261c-0.021-0.097-0.031-0.2-0.052-0.292
		c-0.021-0.097-0.184-0.159-0.21-0.251c-0.025-0.097-0.03-0.194-0.056-0.286c-0.021-0.097,0.158-0.246,0.133-0.338
		c-0.025-0.092-0.286-0.128-0.307-0.225c-0.031-0.092-0.021-0.194-0.046-0.292c-0.026-0.097,0.158-0.246,0.128-0.337
		c-0.026-0.097-0.2-0.148-0.226-0.241c-0.025-0.097,0.021-0.215,0-0.307c-0.03-0.092,0.077-0.225,0.051-0.317
		c-0.025-0.097-0.194-0.153-0.22-0.246c-0.025-0.097-0.21-0.148-0.24-0.246c-0.021-0.102-0.103-0.164-0.138-0.256
		c-0.036-0.102,0.245-0.327,0.199-0.419c-0.041-0.092-0.287-0.082-0.338-0.168s0.016-0.261-0.046-0.343
		c-0.057-0.082-0.148-0.154-0.22-0.225c-0.066-0.077-0.235-0.057-0.308-0.128c-0.081-0.072-0.03-0.276-0.112-0.343
		c-0.076-0.062-0.307,0.072-0.389,0.01c-0.087-0.062-0.062-0.276-0.144-0.328c-0.081-0.061-0.174-0.112-0.256-0.168
		c-0.092-0.051-0.194-0.077-0.286-0.123s-0.276,0.077-0.368,0.036c-0.087-0.051-0.03-0.378-0.123-0.424
		c-0.092-0.046-0.235,0.015-0.327-0.036c-0.092-0.041-0.256,0.051-0.338,0c-0.092-0.046-0.051-0.348-0.133-0.394
		s-0.235,0.021-0.327-0.01c-0.093-0.031-0.21,0.072-0.308,0.056c-0.092-0.015-0.163-0.235-0.266-0.235
		c-0.097-0.005-0.204,0.062-0.297,0.062c-0.097,0-0.184,0.174-0.281,0.184c-0.097,0.01-0.189,0.01-0.286,0.021
		c-0.098,0.01-0.21-0.133-0.302-0.123c-0.098,0.01-0.194,0.005-0.287,0.015c-0.102,0.015-0.184,0.118-0.281,0.128
		c-0.097,0.005-0.209-0.174-0.302-0.169c-0.097,0.005-0.199,0.062-0.297,0.072c-0.102,0.005-0.204,0.031-0.296,0.041
		c-0.103,0.015-0.185,0.143-0.282,0.158c-0.097,0.016-0.199,0.016-0.291,0.036c-0.103,0.015-0.185,0.077-0.286,0.097
		c-0.098,0.025-0.235-0.113-0.328-0.082c-0.097,0.026-0.103,0.328-0.194,0.358c-0.097,0.036-0.23-0.051-0.317-0.016
		c-0.092,0.036-0.215,0-0.307,0.036c-0.092,0.041-0.164,0.123-0.256,0.164c-0.082,0.051-0.071,0.276-0.153,0.322
		c-0.092,0.046-0.24-0.026-0.322,0.036c-0.082,0.051-0.271-0.041-0.353,0.021c-0.077,0.051-0.113,0.184-0.185,0.246
		c-0.077,0.062-0.082,0.205-0.164,0.271c-0.071,0.066-0.046,0.225-0.117,0.292c-0.066,0.072-0.189,0.082-0.261,0.154
		c-0.066,0.071-0.297,0-0.363,0.071c-0.066,0.082,0.005,0.261-0.057,0.338c-0.062,0.082-0.23,0.077-0.291,0.159
		c-0.057,0.077-0.011,0.23-0.067,0.317c-0.051,0.082-0.122,0.153-0.174,0.241c-0.051,0.082-0.092,0.174-0.138,0.261
		s0.057,0.25,0.01,0.337c-0.046,0.087-0.296,0.077-0.343,0.169c-0.04,0.082-0.153,0.133-0.194,0.215
		c-0.041,0.087-0.015,0.205-0.061,0.292c-0.047,0.087,0.081,0.256,0.04,0.343c-0.051,0.087-0.194,0.123-0.235,0.205
		c-0.04,0.092-0.051,0.184-0.092,0.276c-0.03,0.087,0.011,0.194-0.016,0.287c-0.025,0.092-0.143,0.158-0.153,0.256
		c-0.015,0.097,0.087,0.189,0.087,0.286c0,0.092-0.22,0.21-0.204,0.307c0.016,0.092,0.021,0.205,0.051,0.302
		c0.031,0.097,0.011,0.128-0.041,0.256c-0.051,0.112-0.153,0.246-0.174,0.358c-0.021,0.097,0.174,0.23,0.174,0.333
		c0,0.103-0.102,0.194-0.107,0.297c-0.005,0.102-0.005,0.209,0,0.312c0.006,0.102-0.071,0.209-0.071,0.312
		c0.005,0.097,0.22,0.2,0.215,0.302c-0.005,0.103,0.071,0.22,0.057,0.322c-0.011,0.103-0.333,0.138-0.363,0.23
		c-0.026,0.097-0.006,0.209-0.021,0.292c-0.025,0.097,0.117,0.225,0.112,0.307c-0.005,0.097-0.215,0.21-0.199,0.297
		c0.01,0.092,0.225,0.153,0.266,0.24c0.031,0.077,0.189,0.072,0.246,0.154c0.051,0.066-0.082,0.302-0.011,0.374
		c0.071,0.071,0.092,0.158,0.148,0.235c0.062,0.082,0.117,0.144,0.158,0.235c0.046,0.087,0.052,0.169,0.082,0.266
		c0.031,0.092,0.194,0.144,0.215,0.246c0.016,0.092,0.021,0.194,0.036,0.297c0.01,0.097,0.066,0.189,0.076,0.292
		c0.006,0.097-0.061,0.205-0.061,0.302c0.01,0.097,0.092,0.194,0.092,0.297c0.01,0.092-0.052,0.164-0.036,0.266
		c-0.087-0.051-0.138-0.092-0.215-0.143c-0.082-0.051-0.158-0.112-0.24-0.164c-0.082-0.056-0.164-0.113-0.251-0.164
		c-0.082-0.051-0.117-0.174-0.199-0.225c-0.087-0.051-0.123-0.174-0.205-0.225c-0.081-0.057-0.316,0.128-0.398,0.077
		c-0.082-0.056-0.107-0.2-0.189-0.251c-0.087-0.051-0.066-0.255-0.148-0.307c-0.082-0.051-0.358,0.194-0.44,0.143
		c-0.082-0.051-0.056-0.276-0.143-0.327c-0.082-0.051-0.205-0.041-0.284-0.092c-0.082-0.051-0.171-0.092-0.25-0.143
		c-0.084-0.057-0.077-0.241-0.159-0.297c-0.082-0.051-0.151-0.128-0.23-0.184c-0.082-0.051-0.225-0.01-0.305-0.062
		c-0.079-0.051-0.181-0.082-0.261-0.133c-0.082-0.051-0.128-0.154-0.207-0.21c-0.082-0.056-0.167-0.102-0.246-0.153
		c-0.079-0.056-0.115-0.174-0.2-0.23c-0.082-0.051-0.115-0.174-0.194-0.225c-0.084-0.051-0.207,0.046-0.286-0.01
		c0.089-0.041,0.215,0.071,0.302,0.021c0.089-0.041,0.043-0.328,0.128-0.379c0.087-0.051,0.215-0.031,0.294-0.092
		c0.082-0.051,0.1-0.185,0.179-0.246c0.079-0.062,0.171-0.097,0.246-0.164c0.071-0.072,0.238-0.041,0.304-0.113
		c0.069-0.072-0.056-0.317,0.013-0.389c0.064-0.077,0.248-0.051,0.31-0.133c0.059-0.077,0.128-0.148,0.184-0.23
		s0.13-0.148,0.184-0.23c0.054-0.087,0.208-0.118,0.253-0.205c0.051-0.082,0.062-0.194,0.107-0.286
		c0.046-0.082,0.056-0.194,0.097-0.287s-0.082-0.25-0.051-0.337c0.041-0.092,0.338-0.087,0.374-0.185
		c0.036-0.092,0.01-0.205,0.041-0.302c0.036-0.102-0.005-0.23,0.062-0.322c0.066-0.087,0.24-0.071,0.322-0.153
		c0.071-0.082-0.062-0.348,0.01-0.43c0.071-0.072,0.138-0.123,0.184-0.194c0.062-0.082,0.281-0.051,0.322-0.128
		c0.046-0.087,0.123-0.179,0.148-0.261c0.03-0.098-0.21-0.22-0.21-0.317c0-0.092,0.251-0.215,0.23-0.307
		c-0.025-0.087-0.205-0.128-0.251-0.22c-0.036-0.077-0.087-0.159-0.138-0.241c-0.052-0.071-0.128-0.127-0.195-0.205
		c-0.051-0.071-0.031-0.205-0.082-0.286c-0.046-0.077,0.01-0.194-0.031-0.287c-0.036-0.082-0.107-0.143-0.133-0.225
		c-0.025-0.097,0-0.174-0.01-0.266c0-0.092-0.01-0.194-0.015-0.286c-0.005-0.098-0.118-0.189-0.128-0.287
		c0-0.097-0.133-0.184-0.143-0.281c-0.005-0.097-0.082-0.189-0.092-0.282c-0.005-0.102,0.276-0.22,0.271-0.317
		c-0.01-0.103-0.307-0.159-0.322-0.256c-0.01-0.097,0.276-0.235,0.266-0.328c-0.021-0.097-0.205-0.164-0.225-0.255
		c-0.021-0.097-0.174-0.154-0.194-0.251s-0.051-0.179-0.077-0.271c-0.026-0.092,0.005-0.194-0.026-0.292
		c-0.03-0.087,0.205-0.281,0.169-0.374s-0.256-0.103-0.297-0.194C26.74,5.696,26.866,5.522,26.82,5.44
		c-0.049-0.092-0.271-0.092-0.322-0.184c-0.054-0.097,0-0.246-0.054-0.333c-0.056-0.092-0.056-0.22-0.113-0.307
		c-0.061-0.087-0.253-0.077-0.317-0.159s-0.136-0.164-0.202-0.235c-0.072-0.077-0.174-0.113-0.253-0.184
		c-0.074-0.072-0.095-0.215-0.176-0.271c-0.084-0.062-0.23-0.026-0.32-0.077c-0.087-0.056-0.212-0.021-0.31-0.066
		c-0.095-0.046-0.102-0.281-0.205-0.317c-0.089-0.036-0.23,0.071-0.322,0.041c-0.095-0.03-0.102-0.322-0.197-0.353
		c-0.095-0.031-0.261,0.194-0.353,0.168c-0.095-0.025-0.187-0.056-0.279-0.077c-0.095-0.021-0.148-0.225-0.243-0.25
		c-0.092-0.021-0.24,0.215-0.335,0.194c-0.095-0.016-0.169-0.138-0.266-0.153c-0.095-0.016-0.207,0.102-0.302,0.087
		c-0.097-0.01-0.161-0.328-0.256-0.338c-0.1-0.005-0.215,0.297-0.312,0.292c-0.1-0.005-0.187-0.25-0.279-0.25
		c-0.1-0.005-0.197,0.062-0.294,0.062c-0.1,0-0.189,0.133-0.287,0.138c-0.1,0.005-0.192-0.026-0.292-0.021
		c-0.097,0.005-0.2-0.046-0.294-0.036c-0.092,0.01-0.215-0.138-0.312-0.123c-0.094,0.015-0.166,0.184-0.263,0.205
		c-0.095,0.021-0.194,0.015-0.289,0.041c-0.095,0.021-0.174,0.102-0.269,0.123s-0.223-0.071-0.317-0.046
		c-0.092,0.025-0.12,0.261-0.215,0.292c-0.092,0.031-0.228-0.087-0.319-0.056c-0.09,0.031-0.113,0.256-0.202,0.292
		c-0.092,0.031-0.177,0.062-0.264,0.097c-0.092,0.036-0.174,0.066-0.258,0.107s-0.217-0.025-0.299,0.026
		c-0.084,0.046-0.102,0.179-0.182,0.23c-0.079,0.062-0.353-0.143-0.424-0.077c-0.072,0.066-0.039,0.25-0.103,0.322
		s-0.025,0.215-0.079,0.292s-0.018,0.184-0.062,0.271c-0.036,0.082-0.087,0.144-0.115,0.235c-0.031,0.097-0.246,0.133-0.276,0.225
		c-0.031,0.092,0.118,0.241,0.087,0.338c-0.031,0.092-0.125,0.164-0.151,0.261C15.9,5.962,15.67,5.993,15.645,6.09
		c-0.028,0.097-0.061,0.189-0.087,0.287c-0.028,0.097,0.026,0.209,0,0.312c-0.028,0.092-0.005,0.199-0.028,0.296
		c-0.021,0.092,0.133,0.235,0.11,0.328s-0.123,0.174-0.143,0.266c-0.023,0.097-0.167,0.164-0.185,0.266
		c-0.018,0.092,0.072,0.215,0.054,0.307c-0.021,0.103-0.205,0.164-0.22,0.266c-0.016,0.092,0.128,0.22,0.112,0.317
		c-0.013,0.092-0.184,0.169-0.194,0.266c-0.015,0.103-0.125,0.184-0.135,0.287c-0.013,0.092,0.023,0.205,0.01,0.297
		c-0.01,0.102,0.005,0.205-0.003,0.296c-0.007,0.103,0.223,0.215,0.218,0.312c-0.003,0.097-0.182,0.189-0.185,0.287
		c-0.002,0.097,0.008,0.2,0.008,0.297s-0.064,0.199-0.064,0.302c0,0.092,0.23,0.184,0.233,0.286c0.005,0.092-0.238,0.205-0.23,0.307
		c0.008,0.097,0.023,0.194,0.031,0.297c0.008,0.097,0.151,0.179,0.164,0.276c0.01,0.103,0.179,0.174,0.194,0.266
		c0.015,0.103-0.302,0.251-0.282,0.348c0.018,0.097,0.067,0.189,0.087,0.286c0.018,0.092,0.202,0.154,0.225,0.251
		c0.023,0.097-0.062,0.22-0.039,0.312c0.025,0.092,0.133,0.164,0.161,0.261s-0.025,0.215,0.005,0.307
		c0.031,0.097,0.274,0.118,0.305,0.209c0.033,0.092,0.013,0.205,0.046,0.297s0.136,0.159,0.169,0.256
		c0.038,0.092,0.069,0.174,0.11,0.266c0.041,0.092-0.082,0.255-0.041,0.348c0.043,0.087,0.243,0.082,0.294,0.169
		c0.048,0.087-0.103,0.302-0.046,0.384c0.057,0.077,0.289,0.015,0.353,0.087c0.064,0.071-0.079,0.363-0.002,0.43
		c0.072,0.066,0.189,0.107,0.271,0.164c0.08,0.051,0.189,0.092,0.279,0.143c0.087,0.046,0.202,0.046,0.297,0.087
		c0.079,0.031,0.271-0.112,0.335-0.061c0.069,0.051,0.184,0.24,0.251,0.286c-0.072,0.072-0.31,0.118-0.381,0.184
		c-0.072,0.072-0.12,0.164-0.192,0.235c-0.072,0.072-0.148,0.144-0.22,0.21c-0.072,0.072-0.185,0.103-0.256,0.169
		c-0.072,0.071-0.151,0.133-0.223,0.205c-0.072,0.071-0.048,0.235-0.12,0.307c-0.072,0.072-0.056,0.22-0.128,0.292
		c-0.072,0.071-0.238,0.046-0.31,0.118c-0.066,0.071-0.115,0.168-0.184,0.24c-0.066,0.072-0.281,0.015-0.351,0.087
		c-0.066,0.072-0.151,0.138-0.215,0.215c-0.064,0.072,0.11,0.358,0.046,0.43c-0.064,0.077-0.241,0.062-0.302,0.133
		c-0.064,0.077-0.079,0.189-0.143,0.266c-0.064,0.072-0.23,0.062-0.294,0.138s0.046,0.292-0.018,0.363
		c-0.064,0.077-0.118,0.164-0.176,0.235c-0.062,0.077-0.323-0.01-0.381,0.072c-0.062,0.077-0.095,0.174-0.159,0.255
		c-0.061,0.072-0.102,0.164-0.161,0.246c-0.062,0.077-0.125,0.154-0.187,0.23c-0.059,0.077-0.113,0.159-0.171,0.24
		c-0.062,0.082-0.189,0.103-0.248,0.184c-0.062,0.077,0.036,0.271-0.023,0.348c-0.062,0.082-0.197,0.102-0.256,0.179
		c-0.062,0.077-0.182,0.107-0.238,0.189c-0.062,0.082-0.095,0.174-0.151,0.256c-0.057,0.082-0.026,0.225-0.084,0.302
		c-0.057,0.077-0.144,0.138-0.2,0.22c-0.056,0.077-0.279,0.041-0.335,0.123s0.005,0.246-0.043,0.337
		c-0.051,0.082-0.069,0.189-0.11,0.282c-0.041,0.087-0.031,0.199-0.057,0.292c-0.031,0.102,0.074,0.205,0.064,0.297
		c-0.013,0.102-0.292,0.199-0.279,0.296c0.01,0.097,0.118,0.194,0.151,0.287c0.033,0.092,0.018,0.225,0.08,0.312
		c0.051,0.077,0.243,0.056,0.314,0.133c0.064,0.067,0.215,0.021,0.302,0.087c0.069,0.051,0.064,0.246,0.107,0.333
		c0.041,0.087,0.171,0.107,0.217,0.179c0.054,0.092,0.082,0.184,0.136,0.276c0.054,0.082-0.159,0.327-0.105,0.419
		c0.051,0.082,0.128,0.159,0.179,0.24c0.054,0.087,0.182,0.128,0.238,0.21c0.056,0.092,0.241,0.082,0.299,0.169
		c0.056,0.082-0.133,0.332-0.072,0.414c0.057,0.087,0.392-0.03,0.45,0.052c0.062,0.081,0.046,0.215,0.11,0.296
		c0.061,0.077,0.102,0.174,0.168,0.251c0.064,0.077,0.057,0.22,0.125,0.292c0.066,0.076,0.059,0.225,0.128,0.296
		c0.072,0.072,0.351-0.061,0.424,0.011c0.072,0.062,0.107,0.174,0.182,0.24c0.077,0.066,0.105,0.185,0.185,0.251
		c0.079,0.062,0.222,0.03,0.307,0.092c0.082,0.051,0.164,0.103,0.251,0.153c0.084,0.052,0.189,0.066,0.276,0.112
		c0.087,0.052,0.1,0.235,0.192,0.276c0.089,0.047,0.223-0.01,0.317,0.031c0.089,0.041,0.112,0.245,0.209,0.286
		c0.074,0.025,0.146,0.041,0.215,0.112c0.057,0.062-0.005,0.2,0.046,0.276c0.048,0.082,0.358,0.016,0.394,0.103
		c0.039,0.082,0.028,0.205,0.046,0.286c0.023,0.103-0.125,0.205-0.128,0.287c-0.008,0.097,0.102,0.204,0.094,0.307
		c-0.007,0.092,0.074,0.199,0.067,0.302c-0.008,0.098-0.095,0.189-0.103,0.292c-0.008,0.097-0.013,0.194-0.021,0.297
		c-0.007,0.097-0.123,0.184-0.133,0.286s0.217,0.225,0.209,0.317c-0.005,0.102-0.041,0.194-0.051,0.296
		c-0.013,0.098-0.072,0.195-0.082,0.297c-0.008,0.093-0.077,0.189-0.087,0.287c-0.008,0.097,0,0.199-0.008,0.296
		c-0.008,0.103-0.087,0.195-0.1,0.292c-0.008,0.098-0.097,0.189-0.107,0.292c-0.008,0.092,0.263,0.22,0.25,0.322
		c-0.008,0.097-0.209,0.179-0.223,0.281c-0.007,0.092-0.043,0.194-0.056,0.291c-0.007,0.098-0.12,0.189-0.128,0.287
		c-0.007,0.097,0.228,0.22,0.215,0.322c-0.01,0.092,0.064,0.204,0.054,0.302c-0.007,0.097-0.207,0.179-0.215,0.281
		c-0.007,0.092-0.176,0.179-0.184,0.281c-0.008,0.098-0.008,0.199-0.021,0.297c-0.007,0.097,0.2,0.22,0.194,0.317
		c-0.007,0.097,0.097,0.209,0.09,0.307c-0.008,0.103-0.223,0.179-0.233,0.281c-0.013,0.103,0.049,0.205,0.041,0.297
		c-0.013,0.112,0.036,0.23,0.036,0.348c-0.002,0.098-0.048,0.194-0.051,0.292c-0.005,0.097,0.146,0.204,0.146,0.302
		c-0.002,0.097-0.123,0.194-0.128,0.297c-0.002,0.092-0.031,0.194-0.033,0.296c-0.005,0.093,0.159,0.205,0.153,0.302
		c-0.002,0.098-0.217,0.189-0.225,0.287c-0.005,0.097-0.031,0.199-0.033,0.291c-0.005,0.087,0.064,0.194,0.026,0.276
		c-0.041,0.082-0.057,0.144-0.054,0.22c0.007,0.103-0.113,0.21-0.105,0.313s0.199,0.189,0.207,0.292
		c0.008,0.102-0.289,0.225-0.281,0.327s0.105,0.194,0.112,0.297c0.008,0.102,0.223,0.189,0.23,0.291
		c0.008,0.103,0.043,0.2,0.051,0.302c0.007,0.098-0.115,0.21-0.107,0.313c0.007,0.103-0.144,0.215-0.136,0.317
		c0.008,0.102,0.048,0.204,0.056,0.307c0.008,0.098,0.09,0.194,0.097,0.297c0.008,0.103,0.033,0.204,0.041,0.302
		c0.008,0.103,0.174,0.194,0.182,0.291c0.008,0.103-0.069,0.215-0.062,0.313c0.008,0.103-0.235,0.22-0.23,0.322
		c0.008,0.103,0.358,0.179,0.363,0.281c0.007,0.092-0.205,0.199-0.205,0.297c0,0.097,0.102,0.199,0.102,0.292
		c0,0.097,0.089,0.184,0.095,0.281c0.002,0.097,0.041,0.174,0.059,0.261c0.021,0.103-0.284,0.297-0.248,0.384
		c0.039,0.087,0.276,0.076,0.343,0.148c0.062,0.071,0.069,0.22,0.156,0.275c0.074,0.047,0.199,0.041,0.296,0.072
		c0.082,0.03,0.21-0.103,0.313-0.082c0.087,0.021,0.164,0.174,0.263,0.179c-0.089,0.062-0.143,0.159-0.217,0.21
		c-0.09,0.062-0.148,0.144-0.22,0.199c-0.084,0.057-0.184,0.087-0.258,0.139c-0.087,0.056-0.279-0.087-0.358-0.041
		c-0.089,0.051-0.105,0.23-0.197,0.276c-0.09,0.051-0.235,0-0.328,0.046c-0.089,0.051-0.166,0.128-0.25,0.179
		c-0.092,0.052-0.205,0.057-0.294,0.103c-0.092,0.051-0.143,0.164-0.235,0.215c-0.089,0.046-0.179,0.103-0.266,0.148
		c-0.087,0.046-0.197,0.077-0.284,0.128c-0.089,0.046-0.138,0.174-0.225,0.225c-0.089,0.047-0.097,0.241-0.189,0.292
		c-0.089,0.057-0.25-0.036-0.343,0.021c-0.089,0.051-0.158,0.133-0.248,0.189c-0.089,0.051-0.176,0.103-0.263,0.153
		c-0.087,0.057-0.174,0.112-0.233,0.22c-0.054,0.098-0.033,0.2-0.092,0.287c0.069,0.035,0.013,0.204,0.079,0.25
		c0.079,0.052,0.238,0.107,0.314,0.103c0.097-0.01,0.169-0.276,0.266-0.281s0.197-0.016,0.294-0.025
		c0.098-0.006,0.218,0.256,0.317,0.245c0.097-0.01,0.166-0.332,0.264-0.338c0.097-0.01,0.207,0.118,0.304,0.113
		c0.097-0.011,0.182-0.144,0.279-0.153c0.097-0.011,0.225,0.286,0.325,0.275c0.097-0.01,0.192-0.051,0.289-0.061
		c0.097-0.011,0.182-0.154,0.276-0.169c0.097-0.011,0.215,0.158,0.312,0.148c0.097-0.011,0.151-0.369,0.248-0.39
		c0.097-0.01,0.2,0.021,0.294,0.011c0.098-0.016,0.192-0.031,0.289-0.041c0.1-0.021,0.205,0.041,0.299,0.021
		c0.1-0.011,0.218,0.062,0.322,0.041c0.103-0.021,0.22,0.021,0.322-0.005c0.1-0.026,0.187-0.118,0.287-0.144s0.148-0.226,0.25-0.256
		c0.103-0.03,0.223,0.03,0.325,0c0.097-0.03,0.199-0.057,0.296-0.087s0.238,0.057,0.34,0.021c0.097-0.031,0.128-0.261,0.225-0.297
		c0.072-0.03,0.097-0.062,0.174-0.138c0.066-0.072,0.123-0.128,0.174-0.2c0.08-0.122,0.187-0.128,0.164-0.163
		c-0.059-0.082,0.064-0.261,0.023-0.348c-0.043-0.093-0.202-0.123-0.23-0.221c-0.025-0.097-0.089-0.189-0.1-0.286
		c-0.013-0.098,0.153-0.199,0.153-0.297c0-0.097-0.12-0.199-0.11-0.297c0.013-0.097,0.103-0.179,0.12-0.281
		c0.021-0.097-0.033-0.204-0.01-0.302c0.023-0.097,0.074-0.189,0.097-0.281c0.023-0.103-0.146-0.235-0.127-0.327
		c0.02-0.103,0.371-0.144,0.381-0.246c0.01-0.097,0.01-0.194,0.023-0.297c0.01-0.102-0.248-0.234-0.238-0.337
		s0.113-0.185,0.125-0.287c0.01-0.102,0.084-0.194,0.097-0.296c0.01-0.103-0.174-0.221-0.161-0.322
		c0.01-0.103,0.107-0.189,0.12-0.292c0.01-0.103,0.187-0.179,0.2-0.276c0.01-0.103-0.177-0.225-0.167-0.327
		c0.01-0.098,0.328-0.164,0.34-0.261c0.01-0.103-0.243-0.23-0.228-0.333c0.013-0.103,0.212-0.174,0.222-0.276
		c0.013-0.102-0.263-0.235-0.253-0.332c0.013-0.103,0.038-0.199,0.051-0.297c0.01-0.098,0.292-0.169,0.305-0.271
		c0.01-0.102-0.246-0.225-0.233-0.327c0.01-0.103,0.274-0.174,0.284-0.276c0.013-0.097-0.049-0.204-0.036-0.307
		c0.01-0.103-0.031-0.205-0.021-0.307c0.013-0.098-0.051-0.205-0.041-0.308c0.013-0.102,0.061-0.194,0.071-0.291
		c0.013-0.103,0.128-0.189,0.141-0.287c0.01-0.102-0.164-0.22-0.151-0.322c0.01-0.102,0.097-0.188,0.107-0.286
		c0.013-0.103,0.136-0.189,0.148-0.286c0.01-0.103,0.087-0.194,0.097-0.297c0.013-0.103-0.064-0.21-0.051-0.307
		c0.01-0.103,0.072-0.195,0.082-0.297c0.01-0.103-0.103-0.215-0.089-0.313c0.01-0.097,0.01-0.199,0.021-0.302
		c0.013-0.103,0.141-0.184,0.151-0.286c0.013-0.103-0.138-0.215-0.128-0.317c0.013-0.103,0.279-0.174,0.292-0.271
		c0.01-0.097-0.177-0.22-0.159-0.322c0.016-0.097,0.225-0.163,0.246-0.256c0.018-0.102-0.22-0.245-0.202-0.348
		c0.021-0.097,0.164-0.174,0.182-0.266c0.028,0.092,0.164,0.163,0.184,0.256c0.023,0.092,0.013,0.199,0.036,0.297
		c0.021,0.092-0.062,0.215-0.039,0.307c0.018,0.097-0.048,0.204-0.031,0.307c0.021,0.098,0.184,0.164,0.2,0.256
		c0.015,0.103,0.025,0.194,0.041,0.292c0.015,0.097,0.182,0.174,0.197,0.271c0.01,0.103-0.289,0.23-0.279,0.328
		c0.01,0.102-0.023,0.194-0.015,0.296c0.007,0.098,0.013,0.194,0.023,0.292c0.007,0.098,0.12,0.189,0.13,0.286
		c0.008,0.098,0.166,0.185,0.179,0.281c0.01,0.103-0.128,0.215-0.121,0.308c0.008,0.102,0.105,0.194,0.115,0.286
		c0.008,0.103,0.092,0.194,0.097,0.297c0.008,0.092-0.205,0.215-0.194,0.312c0.008,0.098,0.136,0.185,0.143,0.287
		c0.008,0.097,0.072,0.189,0.08,0.291c0.007,0.098-0.031,0.2-0.021,0.297c0.008,0.098-0.056,0.205-0.043,0.302
		c0.007,0.098,0.194,0.18,0.202,0.281c0.007,0.093-0.202,0.215-0.195,0.317c0.008,0.092,0.003,0.194,0.01,0.297
		c0.008,0.092,0.197,0.179,0.205,0.276c0.008,0.097,0.034,0.194,0.041,0.297c0.008,0.092,0.016,0.194,0.023,0.291
		c0.008,0.098-0.143,0.21-0.135,0.308c0.008,0.097,0.296,0.174,0.304,0.271c0.008,0.103-0.031,0.2-0.023,0.297
		c0.008,0.103,0.087,0.194,0.095,0.292c0.008,0.097-0.253,0.22-0.246,0.322c0.008,0.097,0.261,0.174,0.269,0.276
		c0.008,0.092-0.118,0.204-0.11,0.302c0.007,0.097,0.048,0.188,0.061,0.291c0.008,0.103,0.123,0.194,0.131,0.287
		c0.007,0.102-0.159,0.215-0.151,0.316c0.007,0.103,0.12,0.185,0.127,0.287c0.008,0.092,0.016,0.204,0.023,0.307
		c0.013,0.133-0.067,0.271,0,0.312c0.087,0.057,0.292-0.03,0.363,0.031c0.08,0.066,0.049,0.261,0.105,0.332
		c0.064,0.077,0.118,0.164,0.161,0.251c0.049,0.087,0.057,0.189,0.087,0.286c0.031,0.098,0.046,0.189,0.064,0.287
		c0.018,0.097,0.11,0.184,0.121,0.281c0.013,0.103,0,0.204,0.005,0.297c0.008,0.103-0.125,0.204-0.118,0.307
		c0.002,0.098,0.269,0.185,0.276,0.276c0.005,0.103-0.189,0.215-0.179,0.317c0.013,0.097-0.036,0.215-0.015,0.296
		c0.031,0.093,0.069,0.216,0.118,0.287c0.054,0.071,0.319-0.071,0.396-0.016c0.071,0.046,0.033,0.343,0.123,0.368
		c0.079,0.026,0.2,0.077,0.294,0.077c0.1,0.005,0.212-0.256,0.31-0.256c0.097,0.005,0.2,0.01,0.297,0.01
		c0.1,0.011,0.197,0.139,0.294,0.144c0.1,0,0.2-0.071,0.302-0.071c0.098,0,0.197,0.153,0.294,0.153
		c0.097,0.005,0.205-0.205,0.302-0.205c0.097,0.006,0.194,0.215,0.292,0.221c0.103,0.005,0.205-0.185,0.302-0.185
		s0.2,0.153,0.302,0.153c0.076,0,0.174-0.051,0.271-0.066c0.098-0.01,0.221,0.071,0.302,0.052c0.123-0.031,0.287-0.185,0.302-0.235
		c0.026-0.093-0.127-0.226-0.138-0.333c-0.01-0.103-0.066-0.185-0.103-0.286c-0.03-0.103,0.123-0.292,0.072-0.374
		c-0.041-0.082-0.205-0.102-0.276-0.163c-0.072-0.052-0.235,0.021-0.308-0.031c-0.076-0.051-0.102-0.184-0.174-0.235
		c-0.071-0.062-0.133-0.143-0.204-0.204c-0.072-0.066-0.241-0.031-0.307-0.093c-0.072-0.071,0.062-0.337,0-0.409
		c-0.062-0.071-0.235-0.051-0.287-0.133c-0.051-0.082-0.021-0.194-0.051-0.286c-0.031-0.092-0.276-0.174-0.276-0.271
		c0.005-0.087,0.189-0.184,0.22-0.281c0.026-0.087-0.036-0.225,0.016-0.322c0.041-0.077,0.194-0.107,0.256-0.194
		c0.041-0.057,0.102-0.128,0.112-0.21c0-0.071-0.051-0.153-0.051-0.225c0-0.103-0.041-0.205-0.041-0.308
		c0-0.102-0.061-0.194-0.061-0.296c0-0.103,0.031-0.205,0.031-0.302c0-0.103-0.031-0.2-0.031-0.303c0-0.102-0.016-0.199-0.016-0.302
		c0-0.102,0.312-0.204,0.312-0.302c0-0.097-0.041-0.199-0.041-0.302c0-0.102-0.051-0.199-0.051-0.302s-0.123-0.199-0.123-0.297
		c0-0.102,0.185-0.204,0.185-0.307s-0.185-0.194-0.185-0.297s0.174-0.204,0.174-0.307s-0.317-0.194-0.317-0.297
		s0.184-0.204,0.184-0.307c0-0.098,0.031-0.199,0.031-0.297c0-0.103-0.051-0.199-0.051-0.302s-0.051-0.199-0.051-0.302
		s-0.138-0.199-0.144-0.302c0-0.103,0.113-0.199,0.113-0.302s0.225-0.205,0.225-0.308c0-0.102-0.082-0.194-0.082-0.296
		c0-0.103-0.256-0.205-0.256-0.308c0-0.097,0.174-0.199,0.174-0.302s0.062-0.199,0.062-0.302s-0.174-0.199-0.174-0.302
		c0-0.097-0.062-0.199-0.062-0.302s-0.01-0.194-0.01-0.297s0.082-0.204,0.082-0.307c-0.005-0.103-0.062-0.199-0.062-0.302
		s0.174-0.21,0.169-0.313c-0.005-0.102-0.056-0.194-0.056-0.296c-0.005-0.103-0.148-0.195-0.154-0.297
		c0-0.103,0.144-0.21,0.144-0.313c-0.005-0.103-0.082-0.199-0.092-0.302c0-0.103-0.025-0.199-0.031-0.302
		c0-0.098,0.031-0.199,0.031-0.302c-0.005-0.103-0.051-0.205-0.051-0.307c-0.005-0.098,0.077-0.205,0.072-0.302
		c0-0.103,0.077-0.205,0.072-0.302c0-0.103-0.225-0.195-0.225-0.297c-0.005-0.093,0.005-0.189,0-0.287
		c-0.005-0.092,0.261-0.204,0.256-0.296c-0.005-0.093-0.22-0.18-0.225-0.276c-0.01-0.093,0-0.189-0.01-0.281
		c-0.005-0.098,0.041-0.195,0.03-0.292c-0.01-0.092,0.01-0.194,0-0.286c-0.005-0.093-0.056-0.185-0.061-0.282
		c0-0.097-0.144-0.188-0.144-0.286c0-0.097,0.133-0.189,0.133-0.291c0-0.093,0.205-0.185,0.209-0.276
		c0.005-0.103-0.194-0.215-0.189-0.317c0.01-0.103,0.22-0.185,0.23-0.286c0.016-0.098-0.199-0.226-0.184-0.328
		c0.015-0.102,0.261-0.153,0.287-0.256c0.025-0.102-0.077-0.225-0.046-0.316c0.031-0.098,0.072-0.185,0.113-0.276
		c0.041-0.098-0.01-0.235,0.041-0.322c0.051-0.093,0.174-0.139,0.25-0.21c0.072-0.071,0.097-0.21,0.184-0.276
		c0.082-0.057,0.169-0.133,0.261-0.189c0.087-0.056,0.276,0.057,0.368,0c0.087-0.056,0.128-0.189,0.221-0.245
		c0.087-0.057,0.235-0.036,0.322-0.098c0.082-0.056,0.056-0.276,0.128-0.312c0.097-0.046,0.229,0.117,0.312,0.117
		c0.092,0,0.159-0.041,0.226,0.021c0.062,0.057,0.189,0.092,0.22,0.194c0.025,0.077-0.005,0.185,0,0.292
		c0.005,0.097,0.046,0.199,0.057,0.302c0.005,0.092-0.185,0.21-0.18,0.307c0.005,0.103,0.297,0.18,0.302,0.281
		c0.011,0.098-0.261,0.221-0.256,0.322c0.011,0.103,0.317,0.174,0.322,0.271c0.006,0.097-0.087,0.21-0.081,0.307
		c0.005,0.098-0.169,0.21-0.159,0.313c0.011,0.097,0.205,0.184,0.21,0.286s-0.082,0.205-0.077,0.307
		c0.011,0.098-0.071,0.205-0.061,0.303c0.01,0.097,0.209,0.188,0.215,0.286c0.01,0.097-0.021,0.204-0.016,0.302
		c0.005,0.103,0.025,0.199,0.035,0.297c0.006,0.102,0,0.204,0.011,0.297c0.005,0.102-0.205,0.215-0.194,0.316
		c0.01,0.098,0.107,0.189,0.112,0.292c0.011,0.097,0.005,0.199,0.011,0.297c0.01,0.097,0.225,0.189,0.235,0.286
		c0.005,0.098-0.011,0.199,0,0.302c0.01,0.098,0.005,0.199,0.01,0.302c0,0.098-0.251,0.215-0.245,0.313
		c0,0.103,0.112,0.194,0.122,0.297c0,0.102-0.087,0.204-0.081,0.302c0,0.102,0.01,0.204,0.01,0.307
		c0.005,0.103,0.03,0.199,0.041,0.302c0,0.103,0.036,0.205,0.041,0.307c0,0.103,0.092,0.205,0.092,0.308
		c0,0.102,0.139,0.209,0.139,0.312s-0.251,0.199-0.251,0.313c0,0.097,0.281,0.204,0.281,0.307s-0.057,0.21-0.057,0.313
		c0,0.097-0.153,0.199-0.158,0.302c0,0.102,0.087,0.209,0.087,0.312c0,0.098,0.077,0.21,0.077,0.307
		c0,0.103-0.036,0.205-0.036,0.313c0,0.112-0.226,0.245-0.205,0.348c0.021,0.112,0.235,0.169,0.276,0.267
		c0.046,0.102,0.031,0.235,0.103,0.312c0.071,0.077,0.271-0.036,0.368,0.016c0.092,0.051,0.123,0.164,0.246,0.189
		c0.092,0.025,0.184-0.072,0.286-0.072s0.199,0.134,0.307,0.123c0.103-0.016,0.235-0.158,0.338-0.169
		c0.057,0.036,0.103,0.292,0.194,0.313c0.077,0.015,0.174-0.016,0.266-0.016c0.154,0,0.297-0.03,0.399-0.071
		c0.082,0.051,0.286,0.01,0.389,0.035c0,0.107-0.256,0.287-0.266,0.395c-0.011,0.107,0.286,0.235,0.271,0.343
		c-0.01,0.107-0.179,0.194-0.188,0.297c-0.011,0.107-0.036,0.209-0.041,0.312c0,0.107-0.021,0.215-0.011,0.317
		c0,0.103,0.169,0.189,0.185,0.297c0.016,0.102-0.021,0.204,0,0.307c0.01,0.103-0.185,0.235-0.164,0.327
		c0.011,0.103,0.072,0.2,0.082,0.302c0.021,0.098-0.01,0.21,0.01,0.308c0.011,0.102,0.072,0.199,0.082,0.302
		c0.021,0.097,0.235,0.163,0.256,0.266s-0.174,0.235-0.153,0.338c0.016,0.103,0.087,0.194,0.103,0.286
		c0.016,0.103,0.22,0.174,0.235,0.271c0.021,0.103-0.133,0.229-0.112,0.332c0.02,0.103,0.234,0.169,0.245,0.267
		c0.016,0.102-0.271,0.256-0.256,0.348c0.016,0.103,0.327,0.153,0.343,0.256s-0.164,0.235-0.148,0.338
		c0.011,0.097,0.025,0.199,0.041,0.296c0.016,0.103,0.071,0.194,0.082,0.287c0.01,0.102,0.103,0.194,0.103,0.286
		c0.01,0.103,0.097,0.215,0.092,0.297c0,0.107-0.358,0.163-0.379,0.251c-0.021,0.097,0.194,0.271,0.144,0.357
		c-0.046,0.077-0.118,0.18-0.194,0.251c-0.062,0.062-0.322-0.112-0.409-0.057c-0.072,0.057-0.062,0.23-0.153,0.281
		c-0.077,0.041-0.164,0.082-0.256,0.139c-0.077,0.046-0.052,0.281-0.144,0.332c-0.082,0.052-0.153,0.041-0.225,0.134
		c-0.062,0.076-0.123,0.138-0.164,0.229c-0.046,0.098-0.112,0.174-0.128,0.271c-0.016,0.051-0.087,0.184-0.025,0.266
		c0.051,0.066,0.194,0.062,0.256,0.113c0.071,0.061,0.143,0.122,0.209,0.127c0.103,0.006,0.205,0.047,0.308,0.047
		c0.097,0.005,0.199,0.071,0.307,0.071c0.103,0,0.205-0.205,0.307-0.205c0.098-0.005,0.21,0.087,0.308,0.082
		c0.102-0.01,0.189-0.143,0.291-0.153c0.103-0.01,0.246,0.267,0.348,0.246c0.093-0.011,0.226-0.021,0.317-0.062
		c0.087-0.031,0.153-0.164,0.235-0.215c0.082-0.052,0.112-0.185,0.194-0.246c0.072-0.062,0.185-0.087,0.251-0.158
		c0.066-0.066,0.005-0.251,0.066-0.322c0.062-0.077,0.112-0.148,0.164-0.226c0.051-0.081,0.112-0.148,0.153-0.235
		c0.051-0.087,0.123-0.153,0.158-0.24c0.036-0.097,0.016-0.189,0.025-0.281c0.021-0.092,0-0.174-0.01-0.266
		c-0.005-0.103-0.051-0.194-0.062-0.297c-0.01-0.103,0.098-0.205,0.092-0.307c-0.005-0.103,0.205-0.215,0.194-0.317
		c-0.005-0.103-0.327-0.18-0.337-0.276c-0.006-0.103,0.122-0.21,0.117-0.307c-0.005-0.103-0.148-0.189-0.153-0.292
		s-0.03-0.199-0.036-0.297c-0.01-0.103,0.241-0.22,0.235-0.322c-0.01-0.103-0.092-0.194-0.097-0.297
		c-0.005-0.097-0.22-0.184-0.23-0.276c-0.01-0.102,0.164-0.215,0.153-0.316c-0.01-0.098-0.21-0.185-0.215-0.281
		c-0.01-0.098,0.194-0.215,0.185-0.313c-0.005-0.103,0.03-0.205,0.021-0.307c-0.005-0.103-0.098-0.194-0.103-0.297
		c-0.01-0.098,0.051-0.205,0.041-0.307c-0.011-0.093-0.153-0.185-0.164-0.287c-0.01-0.092-0.103-0.189-0.112-0.291
		c-0.005-0.098,0.107-0.21,0.103-0.308c-0.011-0.097-0.082-0.194-0.093-0.291c-0.01-0.103,0.267-0.23,0.256-0.327
		c-0.005-0.082-0.153-0.144-0.194-0.226c0.026-0.082,0.021-0.158,0.031-0.261c0.01-0.087-0.021-0.179-0.021-0.281
		c0-0.113-0.118-0.2-0.128-0.297c-0.016-0.112-0.062-0.322-0.092-0.404c0.097-0.005,0.302-0.066,0.389-0.076
		c0.097-0.011,0.24,0.266,0.332,0.245s0.174-0.384,0.267-0.409c0.071,0.041,0.092,0.439,0.199,0.466
		c0.087,0.025,0.24-0.256,0.343-0.246c0.092,0.016,0.174,0.24,0.276,0.24c0.082,0,0.163-0.107,0.235-0.112
		c0.01,0.103-0.077,0.215-0.072,0.317c0.006,0.103,0.185,0.194,0.194,0.297c0.011,0.102,0.093,0.194,0.098,0.302
		s0.036,0.204,0.046,0.312c0.011,0.103-0.021,0.205-0.016,0.308c0.011,0.102-0.276,0.24-0.261,0.348
		c0.011,0.103,0.185,0.184,0.194,0.291c0.011,0.103-0.102,0.221-0.092,0.328c0.016,0.102,0.276,0.174,0.297,0.276
		c0.01,0.102-0.128,0.225-0.107,0.332c0.016,0.092,0.087,0.179,0.097,0.276c0.021,0.092,0.046,0.189,0.062,0.286
		c0.011,0.093,0.133,0.174,0.144,0.267c0.021,0.092-0.148,0.225-0.133,0.316c0.021,0.093,0.153,0.175,0.174,0.267
		s-0.041,0.204-0.031,0.302c0.021,0.092,0.052,0.189,0.072,0.281s-0.041,0.205-0.021,0.297s0.215,0.153,0.235,0.256
		c0.021,0.092-0.052,0.204-0.041,0.297c0.021,0.097,0.066,0.184,0.082,0.281c0.015,0.097,0.015,0.189,0.03,0.291
		c0.016,0.093,0.128,0.174,0.144,0.267c0.015,0.097-0.174,0.225-0.159,0.316c0.016,0.098,0.215,0.169,0.226,0.267
		c0.016,0.092,0,0.194,0.016,0.297c0.01,0.092,0.122,0.184,0.127,0.276c0.016,0.112-0.035,0.225-0.025,0.327
		c0.016,0.117-0.112,0.24-0.082,0.338c0.026,0.112,0.041,0.234,0.103,0.316c0.062,0.087,0.112,0.267,0.215,0.317
		c0.093,0.041,0.256-0.225,0.389-0.215c0.103,0.005,0.194,0.092,0.297,0.098c0.103,0.005,0.205,0,0.313,0.005
		c0.097,0,0.204-0.072,0.307-0.072c0.103,0.011,0.199,0.267,0.302,0.271s0.205-0.281,0.307-0.281c0.103,0,0.205,0.215,0.308,0.215
		c0.102,0,0.204,0.025,0.307,0.025s0.205-0.235,0.307-0.24c0.103,0,0.205,0.164,0.308,0.153c0.102,0,0.209,0.169,0.312,0.164
		c0.103,0,0.199-0.327,0.302-0.333c0.103,0,0.205,0.148,0.308,0.148c0.102,0,0.204,0.123,0.307,0.118
		c0.103-0.006,0.204-0.066,0.307-0.066c0.082,0,0.164-0.077,0.256-0.154c0.066-0.046,0.005-0.266,0.087-0.332
		c0.066-0.057,0.414,0.01,0.496-0.051c-0.092-0.041-0.322-0.098-0.409-0.144c-0.092-0.041-0.133-0.189-0.225-0.23
		c-0.093-0.041-0.246,0.066-0.338,0.031c-0.087-0.041-0.189-0.062-0.276-0.098c-0.092-0.041-0.189-0.066-0.276-0.107
		c-0.092-0.041-0.158-0.144-0.245-0.179c-0.093-0.041-0.205-0.025-0.297-0.057c-0.092-0.041-0.185-0.062-0.276-0.103
		c-0.092-0.035-0.123-0.215-0.215-0.25c-0.092-0.036-0.205-0.031-0.292-0.066C42.013,49.711,41.941,49.711,41.85,49.675z
		 M41.757,28.144c0,0.036-0.112-0.016-0.225,0.011c-0.082,0.021-0.041,0.015-0.107,0.03c-0.005-0.097-0.107-0.103-0.118-0.205
		c-0.005-0.103,0.011-0.205,0.006-0.307c-0.006-0.102,0.015-0.205,0.005-0.307c-0.005-0.103,0.01-0.133,0.005-0.235
		c0.087-0.01,0.066-0.113,0.148-0.118c0.082-0.005,0.159,0.015,0.24,0.01c0.006,0.097,0.107,0.174,0.118,0.271
		c0.01,0.092,0.087,0.184,0.092,0.276c0,0.092-0.112,0.194-0.112,0.287C41.804,27.959,41.768,28.052,41.757,28.144z M29.152,16.715
		c0.082-0.066,0.215-0.066,0.297-0.123c0.082-0.066,0.204-0.072,0.297-0.133c0.082-0.061,0.092-0.225,0.179-0.286
		c0.087-0.051,0.246-0.021,0.343-0.031c0.031-0.092,0.112-0.194,0.139-0.287c0.03-0.092,0.107-0.174,0.138-0.261
		s-0.077-0.23-0.046-0.322c0.03-0.092,0.097-0.174,0.128-0.261c0.03-0.092-0.031-0.22-0.005-0.312
		c0.03-0.087-0.006-0.205,0.025-0.296c0.03-0.092,0.179-0.144,0.209-0.235c0.026-0.087,0.113-0.164,0.144-0.256
		c0.025-0.087,0.057-0.184,0.087-0.271c0.031-0.092-0.062-0.23-0.03-0.317c0.03-0.087,0.302-0.102,0.327-0.189
		c0.03-0.092-0.016-0.215,0.021-0.307c0.03-0.087,0.071-0.179,0.103-0.266c0.03-0.092,0.143-0.153,0.174-0.246
		c0.03-0.092-0.031-0.215,0-0.307c0.03-0.092,0.163-0.148,0.199-0.235c0.031-0.092-0.051-0.062-0.025-0.154
		c0.082,0.072,0.215-0.164,0.286-0.102c0.082,0.066,0,0.322,0.082,0.378c0.082,0.062,0.256-0.005,0.333,0.051
		c0.081,0.056,0.066,0.266,0.148,0.322c0.081,0.051,0.153,0.128,0.245,0.179c0.082,0.051,0.164,0.123,0.251,0.164
		c0.087,0.051,0.302-0.153,0.394-0.113c0.087,0.041,0.062,0.338,0.148,0.379c0.087,0.041,0.21,0.03,0.297,0.071
		c0.092,0.031,0.199,0.031,0.291,0.072c0.098,0.031,0.194,0.051,0.287,0.082c0.097,0.03,0.24-0.097,0.337-0.072
		c0.093,0.031,0.128,0.266,0.226,0.297c0.092,0.025,0.245-0.189,0.343-0.164c0.097,0.021,0.158,0.184,0.261,0.205
		c0.092,0.021,0.174,0.107,0.276,0.128c0.097,0.016,0.21-0.056,0.307-0.036c0.103,0.01,0.185,0.092,0.287,0.107
		c0.092,0.015,0.215-0.133,0.312-0.118c0.098,0.01,0.174,0.205,0.271,0.215c0.103,0.01,0.22-0.215,0.322-0.2
		c0.097,0.01,0.179,0.169,0.281,0.179c0.092,0.005,0.194,0.041,0.291,0.046c0.098,0.005,0.195,0.026,0.292,0.031
		c0.107,0.005,0.205-0.01,0.302,0c0.107,0.01,0.21-0.036,0.307-0.025c0.107,0.01,0.215-0.031,0.308-0.016
		c0.102,0.016,0.169,0.2,0.261,0.22c0.103,0.025,0.256-0.123,0.348-0.097c0.103,0.031,0.199,0.092,0.286,0.128
		c0.098,0.041,0.139,0.184,0.215,0.235c0.093,0.061,0.175,0.112,0.246,0.184c0.066,0.072,0.041,0.205,0.087,0.287
		c0.046,0.087,0.286,0.097,0.317,0.199c0.025,0.087,0.066,0.21,0.076,0.312c0.021,0.092-0.112,0.215-0.107,0.317
		c0.006,0.092-0.046,0.194-0.051,0.296c-0.005,0.092-0.016,0.195-0.025,0.297c-0.011,0.092-0.031,0.194-0.041,0.297
		c-0.021,0.097,0.112,0.22,0.097,0.322c-0.021,0.097-0.117,0.184-0.138,0.281c-0.021,0.092,0.082,0.225,0.062,0.322
		c-0.025,0.097-0.205,0.148-0.235,0.246c-0.031,0.097-0.062,0.189-0.098,0.281c-0.035,0.092,0.052,0.235,0.006,0.328
		c-0.041,0.092-0.144,0.158-0.185,0.246c-0.046,0.087-0.112,0.168-0.164,0.25c-0.051,0.087-0.133,0.148-0.199,0.23
		c-0.057,0.077-0.21,0.072-0.281,0.144c-0.062,0.071-0.144,0.118-0.215,0.184c-0.077,0.066-0.144,0.118-0.226,0.174
		c-0.076,0.056-0.092,0.2-0.184,0.246c-0.082,0.051-0.226-0.021-0.317,0.021c-0.082,0.041-0.092,0.261-0.189,0.297
		c-0.087,0.03-0.189,0.061-0.286,0.087c-0.098,0.025-0.174,0.118-0.271,0.143c-0.092,0.021-0.189,0.087-0.286,0.107
		c-0.098,0.01-0.205,0.01-0.307,0.021c-0.103,0.015-0.21-0.082-0.308-0.072c-0.097,0.016-0.174,0.154-0.276,0.164
		c-0.097,0.01-0.215-0.179-0.316-0.169c-0.093,0.015-0.205-0.056-0.297-0.046c-0.098,0.01-0.174,0.215-0.271,0.225
		c-0.097,0.005-0.199-0.021-0.291-0.01c-0.103,0.005-0.185,0.164-0.287,0.164c-0.092,0.01-0.204-0.189-0.297-0.184
		c-0.102,0-0.194,0.112-0.291,0.112c-0.098,0-0.199-0.189-0.292-0.189c-0.097,0-0.184-0.077-0.286-0.082
		c-0.098-0.005-0.189,0.031-0.286,0.025c-0.103-0.01-0.195,0.021-0.292,0.01c-0.098-0.01-0.189-0.025-0.286-0.041
		c-0.098-0.015-0.241,0.23-0.333,0.215c-0.097-0.02-0.123-0.378-0.215-0.399c-0.092-0.025-0.276,0.287-0.368,0.261
		c-0.092-0.026-0.123-0.261-0.215-0.292c-0.103-0.036-0.185-0.102-0.266-0.143c-0.093-0.051-0.287,0.072-0.369,0.021
		c-0.081-0.056-0.035-0.297-0.112-0.358c-0.076-0.072-0.194-0.082-0.256-0.159c-0.071-0.077-0.021-0.225-0.071-0.312
		c-0.062-0.082-0.194-0.107-0.246-0.2c-0.041-0.092-0.256-0.102-0.296-0.199c-0.041-0.092,0.147-0.271,0.112-0.369
		c-0.036-0.097-0.267-0.123-0.292-0.225c-0.03-0.097,0.057-0.23,0.025-0.327c-0.025-0.103-0.117-0.185-0.194-0.276
		c-0.071-0.082-0.143-0.174-0.235-0.246c-0.087-0.072-0.266-0.031-0.353-0.092c-0.066-0.051-0.025-0.307-0.103-0.337
		c-0.076-0.031-0.169-0.062-0.25-0.082C29.347,16.639,29.234,16.741,29.152,16.715z M37.153,23.1
		c-0.062,0.082-0.194,0.026-0.338,0.041c-0.112,0.021-0.143-0.015-0.25,0.01c-0.006-0.113-0.098-0.113-0.118-0.225
		c-0.01-0.123,0.005-0.225,0.051-0.312c0.052-0.092,0.128-0.164,0.185-0.25c0.051-0.092,0.144-0.148,0.199-0.235
		c0.057-0.082-0.01-0.246,0.046-0.338c0.062-0.082,0.154-0.148,0.21-0.235c0.057-0.082,0.031-0.225,0.093-0.317
		c0.056-0.082,0.215-0.276,0.271-0.369c0.036,0.103,0.082,0.358,0.098,0.456c0.025,0.107-0.011,0.22-0.006,0.322
		c0.011,0.107,0.021,0.209,0.016,0.312c-0.005,0.107,0.107,0.235,0.087,0.337c-0.025,0.103-0.297,0.128-0.338,0.22
		c-0.04,0.097-0.01,0.215-0.061,0.307C37.245,22.905,37.225,23.018,37.153,23.1z M36.294,21.197
		c-0.057,0.092-0.179,0.138-0.235,0.225c-0.051,0.082-0.174,0.133-0.226,0.22c-0.051,0.087,0.006,0.246-0.051,0.333
		c-0.051,0.082-0.103,0.144-0.164,0.235c-0.051-0.071-0.04-0.143-0.102-0.215c-0.052-0.066-0.072-0.164-0.134-0.235
		c-0.051-0.071-0.22-0.046-0.275-0.118c-0.057-0.066-0.082-0.164-0.144-0.235c-0.051-0.066-0.194-0.179-0.256-0.25
		c0.107,0,0.286-0.112,0.379-0.112c0.107,0,0.204,0.123,0.307,0.123s0.199,0.051,0.302,0.051s0.199-0.005,0.302-0.005
		C36.089,21.212,36.191,21.197,36.294,21.197z M33.961,23.345c-0.021-0.092,0.041-0.205,0.021-0.297
		c-0.021-0.097,0.031-0.205,0.011-0.296c-0.021-0.097-0.169-0.164-0.194-0.256c-0.016-0.092-0.011-0.194-0.031-0.297
		c-0.021-0.087-0.01-0.189-0.03-0.286c-0.021-0.092,0.01-0.195-0.016-0.297c-0.016-0.087-0.169-0.184-0.189-0.281
		c0.092,0.056,0.18,0.138,0.256,0.189c0.092,0.051,0.235,0.021,0.307,0.072c0.093,0.062,0.226,0.072,0.292,0.128
		c0.087,0.077,0.077,0.25,0.123,0.322c0.056,0.092,0.035,0.194,0.03,0.297c-0.005,0.087-0.025,0.174-0.076,0.276
		c-0.036,0.077,0.021,0.23-0.041,0.322c-0.057,0.072-0.317,0-0.384,0.087C33.992,23.1,34.033,23.263,33.961,23.345z M32.938,20.992
		c-0.067,0.071-0.189,0.087-0.256,0.153c-0.062,0.077-0.185,0.092-0.246,0.153c-0.071,0.072-0.041,0.235-0.107,0.297
		c-0.076,0.072-0.163,0.112-0.23,0.174c-0.081,0.066-0.174,0.092-0.245,0.144c-0.087,0.061-0.174,0.051-0.256,0.087
		c-0.097,0.041-0.144,0.194-0.235,0.199c-0.092,0-0.184-0.051-0.276-0.092c-0.076-0.036-0.22-0.01-0.297-0.082
		c-0.066-0.056-0.194-0.092-0.266-0.169c-0.057-0.066-0.021-0.23-0.082-0.312c-0.051-0.071-0.062-0.184-0.112-0.266
		c-0.051-0.071-0.107-0.153-0.153-0.24c-0.052-0.077-0.22-0.194-0.267-0.281c0.093-0.051,0.338,0.071,0.43,0.041
		c0.103-0.031,0.164-0.144,0.262-0.159c0.097-0.016,0.188-0.026,0.291-0.026c0.103-0.01,0.189,0.082,0.292,0.092
		c0.103,0.005,0.199-0.082,0.302-0.066c0.097,0.015,0.169,0.143,0.266,0.169c0.098,0.02,0.185,0.061,0.276,0.092
		c0.103,0.026,0.286-0.266,0.389-0.235c0.092,0.031,0.112,0.297,0.215,0.328C32.724,21.023,32.841,20.961,32.938,20.992z
		 M16.069,13.482c-0.015-0.097,0.046-0.215,0.025-0.312c-0.015-0.103,0.043-0.21,0.028-0.312c-0.015-0.103-0.164-0.179-0.179-0.281
		c-0.013-0.103,0-0.2-0.01-0.302c-0.01-0.102,0.008-0.205,0-0.307c-0.01-0.103,0.031-0.205,0.023-0.307
		c-0.007-0.102-0.158-0.194-0.161-0.292c-0.005-0.103,0.028-0.205,0.028-0.307c0-0.102-0.1-0.199-0.1-0.302
		c0.002-0.102-0.064-0.215-0.062-0.317c0.008-0.103,0.138-0.194,0.151-0.297c0.01-0.102,0.074-0.194,0.095-0.292
		c0.015-0.103,0.025-0.2,0.043-0.302c0.021-0.103-0.082-0.23-0.059-0.328c0.026-0.102,0.294-0.133,0.323-0.225
		c0.03-0.102-0.018-0.215,0.015-0.312c0.036-0.087,0.036-0.22,0.015-0.333c-0.018-0.102,0.041-0.209,0.031-0.307
		c-0.01-0.098-0.112-0.174-0.112-0.266c0-0.103,0.112-0.174,0.123-0.261c0.016-0.097,0.043-0.148,0.072-0.235
		c0.036-0.092-0.21-0.333-0.153-0.404c0.056-0.072,0.296,0.041,0.381-0.005c0.074-0.046,0.097-0.22,0.194-0.245
		c0.084-0.026,0.202,0.143,0.302,0.138c0.087-0.01,0.167,0.021,0.269,0.021c0.103,0.005,0.202,0.031,0.305,0.031
		c0.102,0.01,0.22-0.266,0.32-0.266c0.102,0.005,0.189,0.292,0.292,0.297c0.1,0,0.207-0.041,0.307-0.036
		c0.103,0.005,0.205-0.026,0.307-0.016c0.102,0.005,0.202,0,0.304,0c0.103,0.01,0.215-0.148,0.317-0.143
		c0.102,0,0.187,0.23,0.289,0.235c0.102,0.01,0.22-0.23,0.32-0.225c0.102,0.01,0.191,0.164,0.294,0.174
		c0.103,0.005,0.2,0.077,0.302,0.082c0.103,0.01,0.207-0.077,0.31-0.072c0.102,0.01,0.2,0.082,0.302,0.087
		c0.1,0.005,0.215-0.148,0.314-0.138c0.103,0.005,0.192,0.189,0.294,0.194c0.102,0.01,0.22-0.215,0.32-0.215
		c0.102,0.01,0.197,0.164,0.299,0.174c0.102,0.005,0.202,0.03,0.304,0.041c0.102,0.01,0.205,0.021,0.304,0.026
		c0.103,0.005,0.205-0.016,0.307-0.01c0.097,0.005,0.194-0.051,0.289-0.051c0.095,0.005,0.192-0.051,0.286-0.051
		c0.095,0,0.189,0.174,0.287,0.174c0.095,0,0.192-0.189,0.287-0.189s0.192,0.021,0.289,0.021c0.095,0,0.192,0.102,0.292,0.097
		c0.095,0,0.192-0.026,0.289-0.026c0.095,0,0.192,0.097,0.289,0.097c0.095,0,0.292-0.179,0.389-0.179
		c0,0.107,0.049,0.296,0.049,0.404c0.005,0.107-0.131,0.215-0.128,0.322c0.005,0.103-0.043,0.21-0.041,0.317
		c0.005,0.103,0.005,0.205,0.008,0.307c0,0.107-0.008,0.209-0.01,0.317c-0.005,0.103,0.138,0.215,0.13,0.322s-0.105,0.2-0.12,0.302
		c-0.016,0.097,0.118,0.185,0.12,0.287c0.008,0.092-0.138,0.205-0.118,0.307c0.023,0.092,0.054,0.189,0.092,0.276
		c0.039,0.092,0.192,0.123,0.241,0.205c0.048,0.092,0.046,0.195,0.105,0.271c0.061,0.077,0.118,0.148,0.189,0.215
		c0.074,0.061,0.13,0.138,0.218,0.189c0.087,0.051,0.148,0.195,0.245,0.22c0.113,0.025,0.148,0.062,0.205,0.102
		c0.098,0.057,0.082,0.046,0.092,0.128c0.01,0.082,0.103,0.154,0.062,0.241c-0.031,0.077-0.194,0.097-0.235,0.179
		c-0.051,0.092,0.077,0.276,0.031,0.369c-0.051,0.092-0.107,0.174-0.164,0.266c-0.046,0.092-0.041,0.215-0.087,0.307
		c-0.046,0.092-0.061,0.205-0.107,0.287c-0.051,0.092-0.12,0.174-0.171,0.266c-0.048,0.087-0.197,0.123-0.246,0.215
		c-0.048,0.092,0.016,0.24-0.033,0.333c-0.048,0.087-0.279,0.087-0.327,0.179c-0.046,0.087-0.167,0.128-0.215,0.215
		c-0.054,0.087,0.066,0.276,0.01,0.358c-0.056,0.082-0.144,0.148-0.202,0.225c-0.062,0.082-0.005,0.256-0.069,0.337
		c-0.064,0.077-0.287,0.021-0.351,0.097c-0.066,0.077-0.064,0.22-0.136,0.292c-0.071,0.067-0.271-0.005-0.345,0.062
		c-0.077,0.062-0.197,0.062-0.276,0.123c-0.079,0.061-0.128,0.143-0.209,0.205c-0.084,0.051-0.141,0.133-0.228,0.184
		c-0.087,0.051-0.169,0.092-0.256,0.143c-0.09,0.041-0.072,0.328-0.161,0.368c-0.09,0.036-0.31-0.245-0.404-0.215
		c-0.095,0.036-0.082,0.399-0.176,0.425c-0.095,0.025-0.253-0.159-0.351-0.138c-0.097,0.026-0.2,0.01-0.297,0.026
		c-0.095,0.015-0.156,0.225-0.248,0.24c-0.095,0.021-0.23-0.174-0.325-0.164c-0.095,0.021-0.177,0.107-0.271,0.123
		c-0.095,0.016-0.212-0.097-0.305-0.082c-0.095,0.01-0.174,0.133-0.271,0.143c-0.095,0.01-0.174,0.209-0.274,0.215
		c-0.097,0.01-0.209-0.225-0.304-0.22c-0.097,0.005-0.187,0.21-0.287,0.21c-0.097,0-0.187-0.133-0.286-0.138
		c-0.092-0.005-0.194,0.016-0.289,0c-0.095-0.015-0.189-0.046-0.284-0.072c-0.092-0.025-0.228,0.087-0.322,0.057
		c-0.092-0.026-0.095-0.297-0.184-0.338c-0.087-0.036-0.166-0.072-0.253-0.118c-0.089-0.046-0.166-0.107-0.253-0.159
		c-0.089-0.051-0.146-0.127-0.23-0.184c-0.084-0.051-0.284,0.062-0.363,0c-0.084-0.056-0.148-0.143-0.223-0.205
		c-0.08-0.066-0.2-0.087-0.271-0.159c-0.072-0.071-0.208-0.087-0.276-0.164c-0.066-0.077-0.051-0.23-0.113-0.312
		c-0.061-0.077,0.046-0.276-0.01-0.358c-0.059-0.082-0.284-0.062-0.333-0.148c-0.048-0.087-0.079-0.189-0.12-0.281
		c-0.041-0.092,0.033-0.23-0.005-0.328c-0.033-0.092-0.312-0.107-0.343-0.205c-0.028-0.092,0.271-0.276,0.246-0.378
		C16.269,13.646,16.087,13.584,16.069,13.482z M22.932,20.358c-0.077-0.072-0.097-0.194-0.164-0.256
		c-0.077-0.072-0.092-0.189-0.151-0.256c-0.077-0.082-0.235-0.062-0.287-0.138c-0.063-0.087-0.087-0.179-0.117-0.261
		c-0.039-0.103-0.016-0.174-0.008-0.266s0.069-0.138,0.118-0.235c0.038-0.082-0.039-0.235,0.031-0.317
		c0.056-0.072,0.146-0.123,0.22-0.2c0.066-0.066,0.062-0.21,0.138-0.281c0.066-0.062,0.092-0.184,0.171-0.256
		c0.072-0.062,0.261-0.041,0.34-0.107c0.064,0.092,0.102,0.225,0.151,0.307c0.059,0.097,0.112,0.189,0.151,0.271
		c0.043,0.102,0.202,0.174,0.223,0.271c0.018,0.103-0.228,0.21-0.243,0.317c-0.01,0.097,0.048,0.199,0.008,0.302
		c-0.033,0.092-0.082,0.174-0.136,0.276c-0.043,0.082-0.169,0.123-0.225,0.215c-0.049,0.082-0.023,0.225-0.084,0.317
		C23.016,20.153,22.996,20.266,22.932,20.358z M22.098,17.979c-0.077,0.056-0.202,0.056-0.276,0.118
		c-0.077,0.066-0.184,0.062-0.261,0.112c-0.082,0.057-0.09,0.205-0.179,0.225c-0.084,0.01-0.151-0.092-0.256-0.199
		c-0.084-0.087-0.133-0.179-0.212-0.251c0.023-0.082,0.054-0.041,0.074-0.118c0.092-0.005,0.11-0.133,0.202-0.138
		c0.09,0,0.184,0.03,0.274,0.025c0.089-0.005,0.176-0.107,0.269-0.118c0.089,0,0.273-0.051,0.366-0.056
		C22.124,17.672,22.062,17.892,22.098,17.979z M20.556,19.222c0.005,0.082-0.097,0.123-0.159,0.215
		c-0.048,0.072-0.159,0.082-0.225,0.153c-0.064,0.062-0.038,0.225-0.104,0.287c-0.072,0.071-0.128,0.107-0.185,0.174
		c-0.13-0.062-0.194-0.112-0.322-0.174c0.008-0.103,0.077-0.153,0.084-0.256s-0.133-0.22-0.125-0.322
		c0.007-0.103,0.054-0.205,0.061-0.312c0.008-0.103-0.087-0.215-0.079-0.317c0.008-0.102-0.056-0.205-0.049-0.312
		c0.008-0.107,0.146-0.22,0.154-0.322c0.112-0.031,0.248-0.021,0.36-0.051c0.043,0.082,0.084,0.154,0.133,0.235
		c0.048,0.077,0.207,0.092,0.255,0.174c0.049,0.082-0.125,0.276-0.082,0.363c0.041,0.082,0.151,0.123,0.179,0.21
		C20.484,19.059,20.548,19.13,20.556,19.222z M26.027,49.937c-0.079,0.021-0.159-0.093-0.279-0.164
		c-0.095-0.057-0.125-0.169-0.205-0.245c-0.095-0.098-0.256-0.098-0.271-0.185c-0.023-0.133,0.002-0.226,0.023-0.307
		c0.025-0.123,0.087-0.144,0.176-0.194c0.087-0.041,0.174-0.011,0.289-0.026c0.103-0.01,0.194-0.163,0.302-0.179
		c0.107-0.01,0.208,0.011,0.31-0.03c0.016,0.112,0.133,0.194,0.153,0.296c0.023,0.113,0.123,0.215,0.136,0.317
		c0.021,0.118-0.1,0.261-0.12,0.354c-0.023,0.107-0.12,0.174-0.217,0.24C26.244,49.859,26.157,49.916,26.027,49.937z M26.728,47.875
		c-0.095,0.015-0.202-0.047-0.292-0.036c-0.095,0.021-0.194-0.041-0.289-0.031c-0.095,0.021-0.166,0.164-0.261,0.175
		c-0.095,0.01-0.189-0.006-0.281,0.005c-0.095,0.005-0.189-0.016-0.284-0.005c-0.095,0-0.184-0.041-0.279-0.036
		c-0.095,0-0.187,0.148-0.281,0.144c-0.064-0.006-0.136-0.113-0.212-0.221c-0.051-0.071-0.194-0.122-0.233-0.22
		c-0.041-0.103-0.151-0.22-0.161-0.307c-0.013-0.098,0.1-0.21,0.092-0.308c-0.01-0.097,0.036-0.199,0.023-0.302
		c-0.01-0.097-0.025-0.194-0.033-0.296c-0.01-0.093-0.146-0.185-0.159-0.276c-0.007-0.103,0.233-0.226,0.223-0.317
		c-0.008-0.103-0.103-0.194-0.11-0.286c-0.008-0.103-0.008-0.2-0.016-0.297c-0.005-0.098,0.072-0.205,0.067-0.302
		c-0.008-0.098-0.115-0.189-0.125-0.287c-0.008-0.097,0.095-0.209,0.087-0.302c-0.008-0.103,0-0.199-0.013-0.297
		c-0.01-0.097-0.351-0.168-0.358-0.266c-0.007-0.103,0.235-0.22,0.228-0.317c-0.008-0.097-0.171-0.184-0.177-0.286
		c-0.008-0.092,0.164-0.205,0.156-0.307c-0.008-0.098,0.013-0.194,0.005-0.297c-0.008-0.098,0.002-0.2-0.005-0.297
		c-0.008-0.098-0.297-0.174-0.305-0.271c-0.007-0.102,0.261-0.22,0.253-0.322c-0.008-0.102-0.064-0.194-0.077-0.297
		c-0.01-0.097-0.051-0.194-0.064-0.296c-0.008-0.103-0.028-0.2-0.036-0.297c-0.007-0.103-0.181-0.185-0.189-0.287
		c-0.008-0.102,0.202-0.22,0.197-0.316c-0.008-0.103-0.261-0.185-0.269-0.276c-0.008-0.103,0.133-0.215,0.125-0.317
		s0.051-0.205,0.041-0.302c-0.013-0.103-0.105-0.194-0.118-0.292c-0.008-0.102,0.048-0.204,0.041-0.307
		c-0.008-0.103-0.171-0.189-0.185-0.286c-0.007-0.103,0.167-0.215,0.156-0.317c-0.008-0.103-0.25-0.179-0.258-0.276
		c-0.008-0.103,0.135-0.21,0.128-0.312c-0.008-0.103,0.007-0.205,0-0.303c-0.008-0.102-0.008-0.199-0.013-0.302
		c-0.008-0.102-0.043-0.194-0.051-0.296c-0.008-0.103-0.074-0.2-0.082-0.292c-0.008-0.103-0.074-0.199-0.082-0.297
		c-0.008-0.097,0.153-0.215,0.143-0.312c-0.008-0.103-0.2-0.185-0.207-0.281c-0.008-0.103,0.002-0.205-0.005-0.303
		c-0.008-0.102,0.087-0.209,0.079-0.312c-0.007-0.103-0.033-0.194-0.046-0.297c-0.01-0.097,0.08-0.204,0.072-0.307
		s-0.233-0.185-0.241-0.287c-0.007-0.097-0.025-0.194-0.033-0.296c-0.007-0.103,0.121-0.21,0.113-0.308
		c-0.008-0.102,0.033-0.204,0.025-0.307c-0.01-0.117-0.018-0.245-0.033-0.363c-0.018-0.117-0.041-0.256-0.089-0.363
		c-0.046-0.097-0.235-0.092-0.32-0.169c-0.079-0.076-0.103-0.209-0.179-0.281c-0.074,0.087-0.079,0.267-0.168,0.348
		c-0.103,0.093-0.302,0.082-0.317,0.189s-0.025,0.21-0.036,0.313c-0.013,0.107,0.107,0.225,0.097,0.327
		c-0.008,0.107-0.08,0.205-0.087,0.313c-0.008,0.107-0.026,0.209-0.033,0.312c-0.008,0.103-0.046,0.205-0.054,0.313
		c-0.008,0.107-0.128,0.199-0.138,0.302c-0.008,0.112-0.036,0.209-0.046,0.316c-0.01,0.103-0.023,0.205-0.033,0.313
		c-0.013,0.098,0.087,0.21,0.074,0.313c-0.01,0.097-0.153,0.184-0.166,0.286c-0.01,0.092,0.179,0.22,0.166,0.317
		c-0.01,0.097-0.031,0.199-0.041,0.297c-0.01,0.097,0.049,0.204,0.039,0.307c-0.013,0.097,0.023,0.204,0.015,0.307
		c-0.007,0.098-0.043,0.194-0.054,0.297c-0.01,0.092-0.128,0.185-0.138,0.286c-0.013,0.093,0.105,0.21,0.092,0.308
		c-0.01,0.102-0.225,0.179-0.235,0.281c-0.013,0.097-0.102,0.189-0.115,0.291c-0.01,0.098,0.179,0.221,0.167,0.317
		c-0.01,0.103-0.056,0.194-0.066,0.297c-0.013,0.097,0.128,0.215,0.115,0.317c-0.01,0.097-0.222,0.174-0.232,0.276
		c-0.01,0.092,0.082,0.204,0.071,0.307s-0.209,0.179-0.222,0.276c-0.01,0.103-0.097,0.189-0.11,0.291
		c-0.01,0.098,0.021,0.205,0.005,0.302c-0.013,0.098,0.015,0.205,0.002,0.302c-0.01,0.098-0.023,0.2-0.036,0.297
		c-0.016,0.098,0.235,0.23,0.223,0.333c-0.016,0.103-0.371,0.153-0.386,0.25c-0.016,0.098,0.317,0.251,0.302,0.349
		c-0.016,0.097-0.246,0.169-0.261,0.261c-0.013,0.103-0.066,0.194-0.082,0.291c-0.016,0.098,0.161,0.23,0.143,0.328
		c-0.015,0.097-0.253,0.163-0.269,0.261c-0.018,0.097,0.036,0.215,0.021,0.307c-0.021,0.103-0.167,0.174-0.184,0.276
		c-0.021,0.103,0.066,0.22,0.056,0.322c-0.015,0.098,0.161,0.22,0.153,0.322c-0.007,0.098-0.255,0.185-0.263,0.286
		c-0.002,0.098,0.197,0.205,0.192,0.308c-0.003,0.102-0.128,0.204-0.128,0.307c0,0.098,0.031,0.199,0.031,0.302
		s-0.016,0.205-0.016,0.302c0,0.103,0.144,0.205,0.144,0.307c0,0.103-0.261,0.194-0.264,0.292c-0.005,0.103-0.013,0.199-0.021,0.297
		c-0.005,0.103-0.033,0.194-0.043,0.291c-0.013,0.103-0.062,0.175-0.077,0.256c-0.018,0.103,0.164,0.235,0.128,0.317
		c-0.033,0.092-0.1,0.169-0.156,0.24c-0.059,0.072-0.095,0.189-0.182,0.241c-0.077,0.04-0.166,0.158-0.263,0.174
		c-0.084,0.021-0.205-0.082-0.31-0.082c-0.11,0-0.246-0.185-0.353-0.164c-0.11,0.011-0.187,0.24-0.294,0.261
		c-0.11,0.016-0.228,0.016-0.335,0.026c-0.115,0.01-0.22-0.113-0.307-0.103c-0.123,0-0.256,0.256-0.335,0.235
		c-0.113-0.031,0.015-0.308-0.026-0.409c-0.025-0.072-0.31-0.103-0.312-0.226c-0.005-0.092-0.043-0.194-0.038-0.312
		c0.002-0.087,0.151-0.185,0.153-0.297c0-0.107,0.008-0.21,0.005-0.317c-0.005-0.107-0.102-0.21-0.104-0.313
		c0-0.107,0.12-0.215,0.12-0.316c0-0.103-0.08-0.21-0.08-0.317c0-0.103,0.01-0.21,0.01-0.317c0-0.103,0.23-0.204,0.233-0.312
		c0-0.098-0.266-0.2-0.264-0.302c0.005-0.098,0.125-0.195,0.125-0.292c0-0.098,0.056-0.199,0.056-0.302
		c0-0.092-0.168-0.194-0.168-0.297s0.158-0.194,0.158-0.297c0-0.097-0.092-0.199-0.087-0.297c0.003-0.097,0.008-0.199,0.01-0.296
		c0-0.098,0.148-0.194,0.151-0.297c0.005-0.093-0.102-0.194-0.097-0.297c0-0.098,0.018-0.194,0.023-0.297
		c0.003-0.097-0.141-0.199-0.141-0.302c0-0.097,0.023-0.199,0.023-0.297c0-0.097,0.215-0.194,0.215-0.291
		c0-0.103-0.24-0.205-0.24-0.308c0-0.092,0.041-0.194,0.041-0.297c0-0.092,0.217-0.194,0.217-0.291c0-0.098-0.151-0.199-0.151-0.302
		c0-0.098,0.079-0.194,0.084-0.297c0.002-0.103,0.143-0.194,0.143-0.297c0-0.092-0.143-0.194-0.143-0.297
		c0.002-0.102-0.161-0.204-0.159-0.302c0.002-0.097-0.048-0.199-0.046-0.302c0.005-0.092,0.351-0.189,0.355-0.286
		c0.002-0.103-0.212-0.205-0.212-0.302c0.005-0.098,0.159-0.199,0.164-0.292c0.003-0.103-0.023-0.204-0.02-0.297
		c0.005-0.102-0.136-0.204-0.131-0.307c0.003-0.092,0.192-0.189,0.195-0.291c0.005-0.098-0.243-0.205-0.243-0.303
		c0-0.102,0.194-0.194,0.199-0.296c0.003-0.098,0.008-0.2,0.01-0.297c0.003-0.103-0.03-0.205-0.025-0.297
		c0.002-0.103-0.2-0.205-0.197-0.307c0.005-0.098,0.325-0.185,0.327-0.287c0.005-0.092-0.112-0.194-0.107-0.296
		c0.002-0.103-0.151-0.205-0.143-0.303c0.002-0.097,0.296-0.179,0.299-0.281c0.005-0.097-0.105-0.204-0.097-0.297
		c0.007-0.102-0.113-0.204-0.105-0.307c0.008-0.092,0.223-0.179,0.23-0.276c0.008-0.097-0.054-0.199-0.046-0.296
		c0.008-0.098-0.153-0.216-0.146-0.308c0.008-0.103,0.021-0.199,0.028-0.297c0.008-0.097,0.171-0.184,0.179-0.281
		c0.007-0.097,0.028-0.199,0.036-0.291c0.008-0.103-0.074-0.205-0.066-0.308c0.008-0.092,0.207-0.174,0.217-0.271
		c0.013-0.098-0.031-0.2-0.018-0.302c0.01-0.093,0.01-0.194,0.023-0.292c0.01-0.097-0.095-0.21-0.087-0.302
		c0.007-0.082,0.051-0.174,0.089-0.266c0.033-0.082,0.046-0.185,0.097-0.256c0.051-0.082,0.235-0.036,0.299-0.103
		c0.072-0.071-0.005-0.353,0.072-0.384c0.089-0.036,0.23,0.046,0.319,0.011c0.09-0.036,0.21,0.015,0.302-0.016
		c0.09-0.031,0.174-0.103,0.264-0.128c0.095-0.025,0.136-0.251,0.23-0.281c0.095-0.021,0.225,0.092,0.32,0.071
		c0.095-0.016,0.223,0.144,0.317,0.133c0.097-0.021,0.176-0.107,0.273-0.112c0.097-0.01,0.189-0.123,0.287-0.123
		c0.097-0.005,0.205-0.133,0.302-0.128c0.097,0.006,0.197,0.098,0.294,0.107c0.094,0.011,0.151,0.251,0.248,0.276
		c0.094,0.016,0.225-0.122,0.319-0.092c0.095,0.03,0.159,0.189,0.253,0.21c0.097,0.015,0.215-0.087,0.31-0.077
		c0.097,0.011,0.192,0.041,0.287,0.041c0.097,0.005,0.194-0.005,0.289-0.01c0.097,0,0.181-0.175,0.279-0.185
		c0.097-0.01,0.209,0.215,0.309,0.205c0.097-0.006,0.2,0.066,0.297,0.056c0.097-0.005,0.184-0.097,0.279-0.097
		c0.097-0.011,0.184-0.205,0.281-0.205c0.1-0.005,0.197,0.112,0.294,0.123c0.107,0,0.205-0.011,0.294,0.005
		c0.103,0.016,0.228-0.025,0.31,0.011c0.095,0.035,0.141,0.179,0.212,0.24c0.074,0.062,0.228,0.076,0.276,0.158
		c0.046,0.077-0.127,0.251-0.1,0.354c0.023,0.092,0.016,0.163,0.026,0.266c0.007,0.092,0.038,0.174,0.033,0.276
		c0,0.092-0.041,0.194-0.033,0.291c0.002,0.098,0.205,0.18,0.215,0.271c0.01,0.092-0.087,0.205-0.072,0.297
		c0.015,0.092,0.025,0.189,0.046,0.286c0.016,0.093-0.046,0.194-0.031,0.292c0.016,0.097,0.246,0.148,0.256,0.245
		c0.016,0.093,0.105,0.18,0.12,0.271c0.013,0.092-0.286,0.215-0.279,0.312c0.008,0.098,0.062,0.18,0.064,0.271
		c0,0.098,0.164,0.194,0.167,0.297c0,0.092-0.207,0.194-0.207,0.297c0,0.097,0.191,0.194,0.191,0.297
		c0,0.097,0.141,0.199,0.136,0.296c0,0.098-0.256,0.194-0.261,0.287c0,0.102-0.043,0.199-0.043,0.297
		c-0.005,0.097,0.015,0.194,0.01,0.296c-0.003,0.103-0.031,0.194-0.031,0.297c-0.002,0.098,0.141,0.199,0.135,0.297
		c-0.002,0.103-0.01,0.199-0.013,0.297c-0.005,0.097,0.041,0.199,0.041,0.297c-0.005,0.102-0.079,0.194-0.084,0.297
		c-0.002,0.097,0.072,0.194,0.069,0.296c0,0.098-0.084,0.194-0.084,0.297c0,0.092,0.015,0.194,0.015,0.297
		c0,0.092-0.008,0.194-0.008,0.297c0,0.082,0.028,0.174,0.054,0.261c0.026,0.077-0.007,0.199,0.031,0.276
		c0.039,0.076-0.013,0.179,0.018,0.261s0.325,0.112,0.325,0.194c0,0.098-0.102,0.194-0.112,0.297c0,0.092-0.179,0.189-0.179,0.286
		c-0.002,0.103,0.358,0.205,0.353,0.302c0,0.098-0.197,0.189-0.202,0.287c-0.002,0.097,0.069,0.199,0.069,0.296
		c-0.005,0.098,0.01,0.2,0,0.292c0,0.103-0.161,0.194-0.169,0.286c-0.005,0.103-0.036,0.2-0.039,0.297
		c-0.005,0.093,0.105,0.194,0.103,0.297c-0.005,0.092,0.023,0.194,0.018,0.292c-0.002,0.097-0.074,0.188-0.079,0.291
		c-0.002,0.112-0.13,0.276-0.089,0.338c0.051,0.092,0.023,0.21,0.064,0.297c0.041,0.092-0.013,0.194,0.018,0.286
		c0.026,0.092,0.164,0.153,0.185,0.246c0.01,0.102-0.108,0.199-0.105,0.296c0.005,0.098,0.279,0.189,0.269,0.292
		c0,0.098-0.092,0.189-0.103,0.292c-0.005,0.102,0.082,0.204,0.066,0.302c-0.005,0.097-0.051,0.188-0.056,0.291
		c-0.01,0.098-0.151,0.185-0.159,0.287c-0.002,0.097,0.246,0.199,0.246,0.296c0,0.098-0.158,0.2-0.153,0.297
		c0.005,0.103-0.005,0.194,0.005,0.297c0.005,0.103-0.02,0.205-0.01,0.297c0.01,0.103-0.1,0.21-0.098,0.307
		c0.008,0.103,0.057,0.194,0.062,0.297c0.005,0.098,0.046,0.189,0.051,0.292c0.005,0.097,0.189,0.188,0.189,0.291
		c0,0.066-0.284,0.082-0.328,0.164C26.707,47.716,26.784,47.869,26.728,47.875z M29.393,27.622
		c-0.025,0.082-0.143,0.133-0.184,0.209c-0.046,0.087-0.169,0.225-0.159,0.302c0.011,0.112,0.148,0.194,0.144,0.286
		c-0.01,0.112-0.046,0.205-0.071,0.292c-0.026,0.102-0.093,0.168-0.134,0.255c-0.051,0.093-0.138,0.128-0.204,0.2
		c-0.071,0.071-0.041,0.235-0.123,0.297c-0.082,0.061-0.184,0.081-0.276,0.133c-0.087,0.051-0.133,0.189-0.22,0.235
		c-0.087,0.051-0.144,0.163-0.23,0.204c-0.092,0.052-0.235-0.01-0.322,0.041c-0.087,0.052-0.189,0.062-0.261,0.123
		c-0.056-0.092-0.102-0.169-0.143-0.256c-0.051-0.092-0.215-0.133-0.256-0.225c-0.041-0.093,0.164-0.276,0.133-0.369
		c-0.036-0.102-0.138-0.168-0.154-0.266c-0.021-0.103-0.021-0.194-0.025-0.297c-0.005-0.103,0.087-0.179,0.102-0.276
		c0.01-0.102-0.066-0.204-0.036-0.307c0.026-0.092,0.164-0.138,0.205-0.23c0.036-0.092,0.087-0.159,0.133-0.251
		c0.051-0.082-0.185-0.343-0.123-0.43c0.051-0.087,0.317-0.025,0.378-0.107c0.062-0.077,0-0.25,0.062-0.333
		c0.072-0.087,0.276-0.062,0.328-0.133c0.061-0.092,0.143-0.179,0.184-0.266c0.046-0.092,0.112-0.205,0.133-0.297
		c0.031-0.102-0.235-0.235-0.245-0.333c0-0.097,0.245-0.261,0.209-0.353c-0.035-0.087-0.138-0.184-0.199-0.266
		c-0.056-0.077-0.164-0.144-0.235-0.215c-0.071-0.067-0.153-0.133-0.24-0.195c-0.077-0.061-0.25,0.016-0.333-0.041
		c-0.082-0.057,0-0.287-0.062-0.379c-0.056-0.092-0.317-0.071-0.363-0.174c-0.041-0.102,0.067-0.256,0.036-0.358
		c-0.028-0.107,0.021-0.225,0-0.328c-0.016-0.102-0.12-0.184-0.133-0.286c-0.015-0.103,0.039-0.215,0.026-0.317
		c-0.01-0.103-0.179-0.184-0.192-0.287c-0.01-0.102,0.164-0.225,0.156-0.327c-0.007-0.103-0.248-0.184-0.255-0.287
		c-0.008-0.102,0.135-0.215,0.127-0.317c-0.007-0.103,0.008-0.205,0-0.307c-0.007-0.103-0.023-0.235-0.03-0.338
		c-0.118-0.01-0.271,0-0.389-0.01c-0.038,0.112-0.038,0.255-0.082,0.368c-0.046,0.118-0.021,0.215-0.021,0.337
		c0,0.092-0.169,0.194-0.169,0.292c0,0.097,0.184,0.194,0.184,0.292c0,0.102-0.018,0.194-0.018,0.296
		c0,0.097-0.103,0.194-0.103,0.292c0,0.097,0.021,0.199,0.023,0.292c0,0.102-0.095,0.199-0.095,0.296c0,0.103,0.22,0.194,0.22,0.297
		c0,0.092,0.01,0.194,0.013,0.292c0,0.097-0.133,0.2-0.133,0.297s-0.051,0.199-0.051,0.292c0,0.103,0,0.2,0.005,0.297
		c0,0.097-0.007,0.194-0.005,0.296c0.005,0.092,0.151,0.194,0.151,0.292c0,0.098-0.082,0.195-0.082,0.292
		c0,0.102,0.136,0.194,0.136,0.296c0,0.097-0.161,0.194-0.159,0.297c0,0.097,0.005,0.194,0.005,0.297c0,0.092,0.13,0.194,0.13,0.292
		s-0.059,0.194-0.059,0.292c0,0.112-0.021,0.215-0.03,0.317c-0.013,0.107-0.064,0.205-0.092,0.297
		c-0.028,0.103-0.169,0.144-0.215,0.226c-0.051,0.097-0.105,0.133-0.179,0.199c-0.077,0.066-0.125,0.092-0.223,0.128
		c-0.092,0.03-0.151,0.153-0.255,0.153c-0.095,0-0.167-0.138-0.271-0.164c-0.094-0.021-0.243,0.144-0.343,0.107
		c-0.092-0.035-0.187-0.087-0.279-0.138c-0.077-0.036-0.187-0.021-0.263-0.066c-0.087-0.046-0.11-0.016-0.189-0.011
		c-0.095,0.006-0.189-0.005-0.284,0.006c-0.092,0.005-0.194-0.093-0.289-0.082c-0.095,0.01-0.174,0.148-0.269,0.158
		c-0.092,0.016-0.21-0.184-0.305-0.169c-0.094,0.011-0.194-0.062-0.289-0.051c-0.095,0.01-0.167,0.215-0.261,0.225
		c-0.095,0.016-0.192-0.015-0.286-0.005c-0.095,0.005-0.177,0.169-0.271,0.174s-0.202-0.189-0.296-0.184
		c-0.095,0.005-0.189,0.112-0.284,0.117c-0.092,0-0.194-0.184-0.289-0.184s-0.189-0.072-0.287-0.072
		c-0.094,0-0.189,0.041-0.286,0.041c-0.095,0-0.192,0.041-0.287,0.041s-0.187,0-0.287,0c-0.094,0-0.194,0.266-0.289,0.266
		c-0.094,0-0.189-0.348-0.286-0.348c-0.095,0-0.312,0.297-0.412,0.297c-0.007-0.092,0.148-0.327,0.141-0.419
		c-0.007-0.103,0.018-0.205,0.01-0.297c-0.007-0.102-0.209-0.184-0.217-0.281s0.202-0.215,0.194-0.312
		c-0.005-0.102-0.084-0.194-0.092-0.292c-0.008-0.097,0.115-0.21,0.107-0.302c-0.008-0.103-0.12-0.194-0.128-0.287
		c-0.008-0.102-0.202-0.184-0.21-0.281c-0.007-0.097,0.225-0.215,0.218-0.312c-0.008-0.103-0.218-0.184-0.225-0.281
		c-0.008-0.098,0.11-0.2,0.102-0.302c-0.008-0.097-0.051-0.189-0.059-0.286c-0.005-0.103,0-0.194-0.005-0.297
		c-0.008-0.097-0.159-0.184-0.166-0.276c-0.008-0.087,0.248-0.189,0.248-0.281c0-0.087,0.002-0.189-0.005-0.281
		c-0.005-0.092-0.013-0.225-0.048-0.307c-0.036-0.092-0.151-0.261-0.243-0.327c-0.087-0.066-0.292,0.051-0.371-0.021
		c-0.044,0.082-0.095,0.138-0.138,0.215c-0.046,0.082-0.031,0.194-0.064,0.276c-0.039,0.087,0.01,0.205-0.021,0.296
		c-0.028,0.092-0.161,0.154-0.192,0.246c-0.028,0.097-0.248,0.123-0.279,0.215c-0.033,0.097,0.12,0.266,0.077,0.348
		c-0.046,0.087-0.12,0.168-0.182,0.245c-0.072,0.087-0.233,0.103-0.287,0.185c-0.059,0.092,0.128,0.296,0.09,0.389
		c-0.041,0.102-0.386,0.123-0.402,0.215c-0.013,0.102,0.266,0.215,0.282,0.317c0.015,0.103,0.071,0.164,0.115,0.261
		c0.036,0.092-0.051,0.24,0.005,0.333c0.051,0.082,0.095,0.164,0.143,0.246c0.051,0.087,0.189,0.112,0.238,0.194
		c0.049,0.082,0,0.225,0.054,0.307c0.051,0.082,0.169,0.123,0.225,0.194c0.057,0.082,0.103,0.159,0.164,0.235
		c0.059,0.082-0.087,0.276-0.046,0.354c0.046,0.087,0.328,0.071,0.351,0.158c0.025,0.092-0.079,0.21-0.077,0.307
		c0.005,0.093-0.051,0.174-0.066,0.267c-0.016,0.097,0.13,0.225,0.104,0.317c-0.025,0.092-0.202,0.133-0.24,0.215
		c-0.039,0.092,0.008,0.215-0.033,0.296c-0.046,0.093-0.115,0.174-0.174,0.235c-0.072,0.072-0.212-0.01-0.299,0.021
		c-0.084,0.031-0.141,0.139-0.241,0.133c-0.089-0.01-0.174-0.04-0.266-0.076c-0.084-0.031-0.238,0.057-0.325,0.005
		c-0.079-0.046-0.158-0.123-0.238-0.184c-0.079-0.062-0.018-0.287-0.095-0.354c-0.074-0.066-0.312,0.057-0.383-0.01
		c-0.074-0.066-0.123-0.159-0.195-0.23c-0.071-0.066,0.008-0.286-0.061-0.358c-0.067-0.071-0.248-0.041-0.317-0.107
		c-0.066-0.071-0.074-0.199-0.143-0.271c-0.064-0.077-0.023-0.235-0.084-0.317c-0.066-0.072-0.238-0.052-0.302-0.128
		c-0.062-0.077-0.253-0.057-0.315-0.133c-0.059-0.077-0.161-0.128-0.22-0.21c-0.059-0.077,0.164-0.358,0.107-0.44
		c-0.056-0.082-0.289-0.041-0.345-0.123c-0.056-0.082,0.018-0.246-0.036-0.327c-0.051-0.087-0.127-0.154-0.179-0.235
		c-0.054-0.082-0.223-0.097-0.276-0.184c-0.051-0.082,0.062-0.266,0.008-0.348c-0.051-0.092-0.322-0.061-0.366-0.153
		s0.094-0.261,0.064-0.353c-0.033-0.097-0.051-0.189-0.067-0.287c-0.018-0.097-0.061-0.189-0.061-0.292
		c0-0.102-0.192-0.225-0.177-0.327c0.021-0.103,0.348-0.118,0.381-0.215c0.033-0.092-0.041-0.225,0.002-0.317
		c0.046-0.082-0.036-0.256,0.021-0.343s0.351-0.005,0.401-0.087c0.057-0.082,0.016-0.23,0.072-0.312
		c0.056-0.087,0.013-0.24,0.072-0.317c0.056-0.077,0.286-0.036,0.348-0.118c0.059-0.082,0.064-0.199,0.123-0.276
		c0.061-0.082-0.016-0.266,0.046-0.348c0.062-0.077,0.128-0.153,0.189-0.23c0.059-0.077,0.243-0.062,0.307-0.138
		c0.064-0.072,0.136-0.143,0.202-0.22c0.064-0.077,0.056-0.215,0.12-0.292c0.064-0.071,0.274-0.021,0.338-0.097
		c0.069-0.077,0.097-0.179,0.166-0.25c0.066-0.072,0.128-0.153,0.197-0.225c0.067-0.072,0.057-0.22,0.123-0.292
		c0.072-0.072,0.156-0.128,0.228-0.2c0.072-0.062,0.115-0.164,0.192-0.23c0.072-0.067,0.258-0.01,0.335-0.077
		c0.074-0.067-0.041-0.348,0.033-0.41c0.074-0.061,0.233-0.03,0.31-0.097c0.074-0.066,0.207-0.066,0.281-0.128
		c0.077-0.061,0.133-0.153,0.208-0.215c0.079-0.056,0.033-0.286,0.112-0.343c0.08-0.061,0.246-0.005,0.325-0.066
		c0.08-0.056,0.269,0.036,0.348-0.021c0.082-0.056,0.115-0.179,0.199-0.235c0.082-0.056,0.107-0.194,0.195-0.246
		c0.069-0.046,0.263-0.174,0.396-0.209c0.007,0.102,0.03,0.363,0.033,0.465c0.005,0.103-0.223,0.215-0.218,0.317
		c0,0.102,0.169,0.205,0.171,0.302c0.005,0.107-0.13,0.22-0.12,0.322c0.013,0.103,0.148,0.194,0.167,0.287
		c0.023,0.102,0.025,0.209,0.064,0.307c0.038,0.092,0.089,0.185,0.148,0.266c0.057,0.082,0.233,0.036,0.312,0.113
		c0.072,0.066,0.003,0.307,0.098,0.358c0.084,0.051,0.153,0.179,0.255,0.22c0.103,0.041,0.243,0,0.328,0.015
		c0.11,0.01,0.179-0.184,0.263-0.21c0.095-0.03,0.212,0.036,0.284-0.036c0.072-0.062,0.112-0.143,0.174-0.225
		c0.056-0.082,0.043-0.199,0.095-0.281c0.048-0.087,0.184-0.118,0.235-0.2c0.054-0.082,0.1-0.266,0.156-0.343
		c0.064,0.072,0.028,0.328,0.09,0.394c0.061,0.072,0.105,0.153,0.166,0.22c0.059,0.071,0.144,0.123,0.202,0.189
		c0.062,0.072,0.095,0.174,0.159,0.235c0.064,0.072,0.263,0,0.333,0.062c0.074,0.072,0.082,0.215,0.159,0.266
		c0.087,0.061,0.187,0.112,0.271,0.143c0.097,0.031,0.235,0.128,0.327,0.123c0.09-0.01,0.131-0.25,0.215-0.312
		c0.067-0.046,0.057-0.148,0.115-0.24c0.051-0.072,0.366-0.01,0.407-0.103c0.043-0.092,0.036-0.205,0.072-0.296
		c0.038-0.092-0.072-0.246-0.033-0.338c0.038-0.087,0.269-0.102,0.304-0.194c0.039-0.092-0.105-0.256-0.066-0.348
		c0.038-0.087-0.056-0.23-0.023-0.322c0.038-0.087,0.309-0.087,0.348-0.179c0.036-0.092,0.107-0.174,0.146-0.261
		c0.038-0.087,0.054-0.189,0.089-0.281c0.039-0.092,0.095-0.174,0.133-0.266c0.039-0.092-0.056-0.246-0.018-0.338
		c0.079,0.056,0.156,0.113,0.24,0.164c0.08,0.051,0.184,0.067,0.266,0.113c0.079,0.056,0.123,0.169,0.205,0.22
		c0.079,0.057,0.205,0.036,0.281,0.092c0.08,0.051,0.123,0.169,0.205,0.22c0.08,0.051,0.169,0.087,0.253,0.143
		c0.079,0.051,0.156,0.102,0.24,0.153c0.08,0.056,0.167,0.103,0.246,0.153c0.08,0.051,0.12,0.169,0.2,0.226
		c0.079,0.051,0.115,0.168,0.197,0.225c0.077,0.051,0.317-0.133,0.399-0.082c0.077,0.051,0.103,0.194,0.179,0.246
		c0.077,0.056,0.056,0.261,0.138,0.312c0.082,0.056,0.368-0.184,0.445-0.128c0.076,0.056,0.046,0.271,0.128,0.327
		c0.076,0.057,0.199,0.051,0.276,0.113c0.081,0.056,0.174,0.118,0.24,0.184c0.066,0.072,0.015,0.25,0.076,0.328
		c0.062,0.077,0.093,0.164,0.153,0.25c0.052,0.082,0.2,0.102,0.256,0.184c0.052,0.082,0.128,0.148,0.185,0.23
		c0.051,0.087,0.046,0.205,0.103,0.286c0.051,0.087,0.112,0.164,0.163,0.246c0.036,0.051,0.026,0.225,0.066,0.241
		c0.103,0.036,0.139,0.138,0.215,0.184c0.098,0.056,0.221-0.005,0.287,0.061c0.076,0.077-0.005,0.189,0.035,0.276
		c0.036,0.092,0.308,0.107,0.317,0.21c0.011,0.092-0.087,0.199-0.097,0.296c-0.011,0.103,0.056,0.215,0.035,0.312
		c-0.025,0.098-0.081,0.185-0.107,0.282c-0.025,0.092-0.179,0.164-0.199,0.255c-0.016,0.103,0.21,0.251,0.189,0.353
		c-0.025,0.097-0.205,0.164-0.23,0.261c-0.021,0.102-0.062,0.194-0.087,0.296c-0.025,0.097-0.087,0.185-0.112,0.287
		c-0.031,0.097-0.174,0.164-0.205,0.256c-0.03,0.102-0.025,0.209-0.056,0.307c-0.031,0.092-0.031,0.205-0.062,0.297
		c-0.031,0.103,0.112,0.256,0.076,0.353c-0.035,0.097-0.327,0.107-0.357,0.21c-0.031,0.092-0.005,0.215-0.036,0.307
		C29.362,27.397,29.424,27.525,29.393,27.622z M30.493,27.371c0.03-0.097,0.128-0.164,0.153-0.256
		c0.03-0.097,0.122-0.168,0.148-0.261c0.025-0.092-0.077-0.225-0.057-0.312c0.03-0.092,0.082-0.179,0.103-0.271
		c0.025-0.092,0.082-0.174,0.103-0.271c0.03-0.097,0.097-0.174,0.122-0.271c0.025-0.092-0.092-0.22-0.062-0.312
		c0.021-0.097,0.082-0.179,0.113-0.271c0.025-0.092-0.046-0.215-0.026-0.302c0.026-0.097-0.015-0.21,0.016-0.302
		c0.021-0.092,0.174-0.148,0.194-0.235c0.031-0.092,0.112-0.174,0.139-0.266c0.03-0.087,0.056-0.184,0.081-0.276
		c0.031-0.092-0.066-0.225-0.025-0.317c0.031-0.097,0.302-0.082,0.358-0.174c0.051-0.087,0.041-0.215,0.112-0.296
		c0.062-0.082,0.133-0.154,0.205-0.235c0.071-0.082,0.21-0.097,0.276-0.184c0.071-0.077,0.03-0.205,0.092-0.287
		c0.062,0.082-0.021,0.205,0.03,0.287c0.057,0.087,0.093,0.174,0.144,0.255c0.051,0.092,0.389,0,0.44,0.082
		c0.051,0.087-0.103,0.307-0.052,0.384c0.057,0.087,0.24,0.077,0.297,0.159c0.062,0.082-0.011,0.276,0.057,0.348
		c0.071,0.072,0.148,0.174,0.229,0.235c0.087,0.062,0.2,0.143,0.287,0.174c0.102,0.031,0.25-0.225,0.348-0.225
		c0.103,0,0.245,0.256,0.338,0.225c0.092-0.031,0.194-0.133,0.275-0.184c0.082-0.056,0.148-0.159,0.221-0.23
		c0.066-0.067,0.133-0.154,0.189-0.235c0.061-0.077,0.061-0.302,0.112-0.384c0.062,0.082,0.041,0.337,0.103,0.409
		c0.066,0.082,0.312-0.021,0.378,0.041c0.082,0.072,0.062,0.246,0.133,0.302c0.087,0.056,0.144,0.174,0.23,0.215
		c0.098,0.046,0.226-0.015,0.322,0.005c0.092,0.01,0.205,0.077,0.302,0.062c0.098-0.015,0.139-0.194,0.23-0.24
		c0.082-0.041,0.261,0.056,0.338-0.016c0.071-0.061-0.026-0.286,0.041-0.373c0.061-0.072,0.24-0.051,0.296-0.138
		c0.052-0.082,0.123-0.154,0.175-0.241c0.051-0.092,0.107-0.168,0.153-0.25c0.051-0.092,0.071-0.184,0.122-0.266
		c0.052-0.092,0.047-0.205,0.093-0.276c0.062-0.092,0.062-0.209,0.112-0.281c0.062-0.092,0.256-0.066,0.307-0.133
		c0.072-0.087,0.031-0.292,0.103-0.338c0.087-0.056,0.245-0.077,0.338-0.077c0.092,0.005,0.174,0.128,0.276,0.174
		c0.076,0.031,0.163,0.062,0.261,0.123c0.076,0.041,0.097,0.179,0.184,0.235c0.072,0.056,0.281-0.062,0.363,0
		c0.072,0.056,0.159,0.102,0.24,0.168c0.072,0.057,0.067,0.23,0.148,0.287c0.062,0.046,0.082,0.159,0.148,0.251
		c0.052,0.077,0.098,0.153,0.139,0.255c0.041,0.082,0.071,0.174,0.112,0.271c0.03,0.087,0.204,0.128,0.235,0.23
		c0.03,0.092-0.021,0.21,0.005,0.307c0.025,0.092,0.18,0.164,0.199,0.256c0.026,0.102-0.112,0.23-0.092,0.327
		c0.016,0.092,0.031,0.194,0.041,0.287c0.011,0.102,0.153,0.189,0.164,0.286c0.005,0.103-0.052,0.215-0.052,0.307
		c0,0.103-0.021,0.205-0.03,0.297c-0.011,0.102-0.071,0.205-0.103,0.286c-0.021-0.092,0.062-0.22,0.041-0.307
		c-0.025-0.097-0.03-0.194-0.051-0.287s-0.046-0.184-0.072-0.276c-0.021-0.092-0.148-0.158-0.174-0.255
		c-0.021-0.087-0.03-0.328-0.056-0.42c-0.087,0.077-0.159,0.328-0.23,0.374c-0.112,0.087-0.174,0.113-0.185,0.179
		c-0.01,0.092,0.052,0.194,0.041,0.292c-0.01,0.097,0.025,0.2,0.016,0.292c-0.016,0.092-0.041,0.184-0.046,0.287
		c-0.016,0.092-0.133,0.179-0.139,0.276c-0.005,0.092,0.107,0.205,0.098,0.302c-0.005,0.097-0.22,0.174-0.226,0.271
		c-0.01,0.092-0.102,0.184-0.112,0.276c-0.005,0.102,0.185,0.215,0.174,0.307c-0.005,0.103-0.051,0.189-0.062,0.287
		c-0.01,0.092,0.134,0.205,0.123,0.302c-0.01,0.097-0.215,0.179-0.225,0.277c-0.011,0.097,0.092,0.199,0.087,0.302
		c-0.006,0.097-0.205,0.184-0.21,0.281c-0.005,0.097-0.092,0.184-0.103,0.281c-0.01,0.103,0.025,0.194,0.011,0.291
		c-0.016,0.098,0.01,0.194-0.011,0.292s-0.041,0.185-0.071,0.276c-0.021,0.082,0.143,0.307,0.071,0.389
		c-0.062,0.071-0.368-0.103-0.45-0.041s0.016,0.409-0.071,0.45c-0.098,0.046-0.276-0.123-0.358-0.112
		c-0.103,0.005-0.199-0.021-0.297-0.016c-0.097,0.005-0.174,0.21-0.276,0.22c-0.097,0.011-0.209-0.204-0.307-0.194
		c-0.103,0.005-0.189,0.082-0.286,0.093c-0.103,0.01-0.205-0.118-0.302-0.113c-0.098,0.011-0.185,0.123-0.281,0.128
		c-0.103,0.005-0.185,0.2-0.282,0.21c-0.097,0-0.209-0.235-0.302-0.225c-0.102,0.01-0.184,0.215-0.281,0.225
		c-0.097,0.005-0.199-0.112-0.297-0.107c-0.097,0.005-0.188,0.046-0.291,0.046c-0.098,0.005-0.194,0-0.292,0
		c-0.097,0.005-0.189,0.153-0.281,0.164c-0.103,0.005-0.21-0.246-0.307-0.24c-0.103,0.005-0.194,0.005-0.292,0.01
		c-0.092,0.005-0.194-0.005-0.291-0.005c-0.103,0.005-0.194-0.025-0.297-0.021c-0.098,0.005-0.185,0.215-0.281,0.225
		c-0.098,0.011-0.194-0.015-0.292-0.01c-0.103,0-0.194,0.071-0.291,0.082c-0.098,0-0.189,0.092-0.287,0.092
		c-0.117,0.01-0.24-0.107-0.343-0.128c-0.112-0.025-0.122-0.24-0.215-0.292c-0.092-0.056-0.297,0.026-0.357-0.066
		c-0.057-0.087-0.082-0.209-0.103-0.322c-0.021-0.102,0.092-0.215,0.092-0.337c0.011-0.093-0.251-0.2-0.245-0.297
		c0-0.103,0.343-0.185,0.348-0.276c0-0.103-0.276-0.21-0.267-0.307c0-0.103-0.03-0.194-0.025-0.297
		c0.006-0.098,0.148-0.185,0.159-0.287c0.01-0.097,0.015-0.194,0.021-0.286c0.01-0.097-0.093-0.205-0.082-0.297
		c0-0.102,0.128-0.194,0.133-0.286c0-0.103-0.071-0.194-0.077-0.287c-0.005-0.102,0-0.194-0.015-0.281
		c-0.011-0.097,0.174-0.261,0.143-0.353c-0.035-0.082-0.322-0.051-0.378-0.133c-0.052-0.072-0.021-0.215-0.103-0.282
		c-0.062-0.061-0.118-0.168-0.205-0.22c-0.071-0.051-0.153,0.056-0.245,0.015c0,0.097-0.107,0.107-0.107,0.2
		c0,0.092,0.087,0.189,0.087,0.281c0,0.097-0.005,0.194-0.005,0.287c0,0.097-0.148,0.189-0.148,0.281
		c0,0.097,0.107,0.189,0.107,0.287c0,0.092-0.016,0.184-0.016,0.281s0.144,0.189,0.144,0.281c0,0.092-0.021,0.189-0.021,0.287
		c0,0.092-0.21,0.185-0.21,0.276c0,0.097,0.169,0.312,0.169,0.409c-0.098-0.057-0.286-0.144-0.368-0.194
		c-0.098-0.057-0.062-0.292-0.133-0.348c-0.093-0.072-0.267-0.031-0.328-0.103c-0.066-0.087-0.046-0.21-0.076-0.307
		c-0.031-0.092,0.097-0.174,0.103-0.287C30.626,27.591,30.462,27.479,30.493,27.371z M35.645,43.158
		c-0.047,0.087-0.164,0.143-0.2,0.229c-0.035,0.093-0.133,0.226-0.133,0.313c0.011,0.098,0.153,0.185,0.159,0.281
		c0.005,0.103-0.016,0.194-0.006,0.297c0.011,0.097-0.015,0.194-0.01,0.292c0.01,0.097-0.025,0.199-0.021,0.302
		c0.01,0.092,0.163,0.179,0.174,0.275c0.005,0.098-0.021,0.2-0.016,0.297c0.005,0.093,0.123,0.185,0.128,0.276
		c0.011,0.103,0.092,0.194,0.103,0.287c0.005,0.102-0.107,0.209-0.103,0.307c0.011,0.092-0.035,0.194-0.025,0.297
		c0.016,0.097,0.025,0.188,0.036,0.286c0.005,0.103,0.143,0.185,0.153,0.286c0.01,0.093-0.235,0.215-0.226,0.308
		c0.006,0.102,0.098,0.194,0.103,0.286c0.011,0.103,0.005,0.199,0.011,0.297c0.01,0.097-0.072,0.199-0.062,0.297
		c0.005,0.112,0.087,0.194,0.056,0.307c-0.025,0.103-0.169,0.164-0.209,0.271c-0.036,0.107-0.021,0.117-0.052,0.22
		c-0.103-0.021-0.21,0.225-0.312,0.21c-0.016-0.087,0.148-0.313,0.133-0.395c-0.025-0.092-0.189-0.133-0.21-0.22
		s0.138-0.21,0.118-0.292c-0.016-0.092-0.006-0.174-0.016-0.255c-0.021-0.103-0.011-0.205-0.025-0.303
		c-0.016-0.097-0.308-0.153-0.322-0.25c-0.016-0.103,0.245-0.235,0.225-0.338c-0.01-0.097-0.071-0.185-0.092-0.286
		c-0.011-0.098-0.066-0.189-0.082-0.287c-0.016-0.102-0.041-0.194-0.057-0.296c-0.015-0.098-0.188-0.175-0.209-0.271
		c-0.011-0.098,0.194-0.23,0.179-0.327c-0.016-0.098-0.271-0.159-0.286-0.262c-0.016-0.097,0.117-0.215,0.107-0.316
		c-0.011-0.093,0.035-0.205,0.021-0.302c-0.011-0.098-0.123-0.18-0.134-0.281c-0.015-0.098,0.031-0.205,0.021-0.308
		c-0.021-0.092-0.194-0.169-0.204-0.266c-0.021-0.103,0.148-0.226,0.133-0.322c-0.016-0.098-0.256-0.159-0.276-0.261
		c-0.01-0.098,0.123-0.215,0.107-0.317c-0.016-0.107-0.005-0.21,0-0.297c0-0.112,0.025-0.205,0.057-0.286
		c0.041-0.098,0.071-0.174,0.153-0.235c0.076-0.052,0.148-0.144,0.261-0.174c0.087-0.016,0.199-0.082,0.313-0.087
		c0.092,0,0.199,0.168,0.296,0.158c0.103,0,0.287-0.153,0.384-0.158c-0.025,0.076-0.035,0.271-0.056,0.383
		c-0.011,0.093-0.118,0.185-0.118,0.292C35.618,42.948,35.629,43.056,35.645,43.158z M37.542,41.521
		c0.03-0.061,0.133-0.117,0.128-0.168c0-0.103,0.066-0.194,0.066-0.297c0-0.098-0.138-0.194-0.138-0.287
		c-0.006-0.102,0.015-0.199,0.015-0.296c0-0.098,0.031-0.194,0.026-0.297c-0.006-0.092,0.04-0.194,0.035-0.292
		c0-0.097-0.148-0.189-0.153-0.286c0-0.098,0.031-0.194,0.031-0.292c-0.011-0.103-0.113-0.189-0.113-0.286
		c-0.01-0.103-0.082-0.194-0.092-0.292c0-0.097,0.117-0.199,0.112-0.296c-0.005-0.098,0.041-0.2,0.041-0.292
		c-0.005-0.103-0.016-0.199-0.021-0.292c-0.01-0.097-0.143-0.189-0.143-0.286c-0.011-0.098,0.234-0.21,0.234-0.307
		c-0.005-0.098-0.092-0.189-0.102-0.287c0-0.097,0-0.194-0.006-0.291c-0.005-0.103,0.077-0.2,0.072-0.297
		c-0.005-0.103-0.107-0.189-0.118-0.286c-0.005-0.103,0.103-0.205,0.098-0.297c-0.005-0.103,0.005-0.2-0.005-0.297
		c-0.011-0.098-0.349-0.174-0.354-0.271c-0.005-0.082,0.185-0.225,0.128-0.302c-0.051-0.071-0.235-0.041-0.297-0.107
		s-0.133-0.286-0.179-0.353c-0.036,0.112-0.174,0.276-0.22,0.389c-0.046,0.117-0.113,0.297-0.113,0.414
		c0.006,0.103,0.292,0.189,0.297,0.292c0.006,0.103-0.266,0.215-0.256,0.317c0.006,0.102,0.062,0.204,0.072,0.307
		c0.005,0.097,0.051,0.194,0.062,0.297c0.005,0.102,0.021,0.204,0.03,0.302c0.01,0.103,0.174,0.189,0.185,0.291
		c0.01,0.103-0.205,0.226-0.2,0.317c0.006,0.103,0.256,0.189,0.261,0.292c0.011,0.102-0.133,0.209-0.133,0.312
		c0.005,0.103-0.062,0.205-0.062,0.308c0.006,0.102,0.093,0.199,0.093,0.302c0,0.092-0.062,0.188-0.066,0.281
		c-0.006,0.092,0.147,0.199,0.147,0.297c-0.01,0.092-0.194,0.174-0.204,0.266c-0.005,0.097,0.215,0.215,0.21,0.307
		c-0.006,0.093-0.169,0.174-0.18,0.271c-0.01,0.097-0.046,0.184-0.051,0.281c-0.016,0.092-0.03,0.185-0.046,0.281
		c-0.011,0.098,0.005,0.189-0.005,0.286c-0.011,0.098,0.035,0.194,0.025,0.292c-0.016,0.092,0.005,0.261-0.005,0.358
		c-0.103,0-0.267-0.144-0.369-0.144c-0.102,0-0.199,0.185-0.296,0.185c-0.103,0-0.205-0.011-0.302-0.011
		c-0.103,0-0.205-0.103-0.308-0.103c-0.097,0-0.199,0.016-0.302,0.016s-0.194-0.097-0.297-0.107c-0.102,0-0.209,0.215-0.312,0.205
		c-0.098-0.006-0.22-0.011-0.302-0.041c-0.093-0.025-0.133-0.2-0.205-0.246c-0.076-0.051-0.103-0.148-0.143-0.225
		c-0.047-0.072-0.072-0.144-0.093-0.24c-0.015-0.082-0.01-0.159-0.01-0.262c0.01-0.102-0.133-0.209-0.123-0.312
		c0-0.098,0.092-0.194,0.103-0.297c0.01-0.103-0.123-0.21-0.112-0.312c0.01-0.103,0.174-0.195,0.184-0.297
		c0.005-0.103,0.011-0.205,0.016-0.302c0.005-0.103-0.118-0.21-0.107-0.313c0.005-0.103,0.071-0.204,0.082-0.302
		c0.01-0.103,0.025-0.205,0.03-0.307c0.011-0.103,0.051-0.2,0.057-0.302c0.005-0.103,0.128-0.194,0.138-0.297
		c0.005-0.103,0.031-0.205,0.041-0.302c0.005-0.103,0.011-0.2,0.021-0.302c0.01-0.103-0.092-0.215-0.087-0.317
		s0.148-0.194,0.153-0.292c0.005-0.097-0.184-0.215-0.179-0.316c0.005-0.088,0.021-0.189,0.005-0.282
		c-0.005-0.107-0.082-0.143-0.128-0.215c-0.036-0.051-0.071,0-0.169-0.021c-0.107-0.025-0.076-0.102-0.097-0.071
		c-0.052,0.071-0.194,0.082-0.241,0.164c-0.051,0.087,0.026,0.21-0.005,0.297c-0.041,0.092-0.256,0.122-0.266,0.215
		c0,0.097-0.087,0.188-0.092,0.286c0,0.097,0.194,0.199,0.184,0.297c0,0.097-0.041,0.194-0.051,0.286
		c0,0.098,0.143,0.199,0.143,0.297c-0.005,0.092-0.215,0.185-0.215,0.281c-0.005,0.098,0.098,0.194,0.093,0.292
		c0,0.102-0.194,0.188-0.2,0.286c-0.005,0.092-0.076,0.189-0.081,0.286c-0.006,0.093,0.035,0.194,0.035,0.287
		c-0.005,0.097,0.036,0.194,0.031,0.291c0,0.098,0,0.189,0,0.292c0,0.092,0.261,0.194,0.261,0.286c0,0.103-0.343,0.194-0.343,0.292
		c0,0.097,0.348,0.189,0.348,0.286c0,0.098-0.215,0.194-0.215,0.292c0,0.087-0.036,0.184-0.036,0.276c0,0.092,0.2,0.174,0.205,0.271
		c0.005,0.098-0.205,0.21-0.189,0.302c0.011,0.093,0.103,0.169,0.133,0.256c-0.03-0.01-0.021-0.174-0.051-0.174
		c-0.144,0-0.246,0.133-0.338,0.164c-0.056-0.103-0.133,0.03-0.184,0.03c-0.103-0.005-0.175-0.256-0.262-0.266
		c-0.097-0.021-0.25,0.143-0.327,0.107c-0.087-0.046-0.107-0.199-0.169-0.267c-0.071-0.066-0.143-0.117-0.184-0.204
		c-0.031-0.087-0.046-0.174-0.062-0.271c-0.021-0.087-0.174-0.179-0.174-0.276c0-0.092,0.256-0.174,0.266-0.275
		c0.011-0.108,0.011-0.235,0.011-0.349c-0.011-0.107,0-0.215,0-0.327c-0.011-0.107,0.03-0.194,0.041-0.297
		c0.01-0.103-0.185-0.235-0.175-0.338c0.011-0.097,0.052-0.199,0.067-0.302c0.015-0.102-0.036-0.215-0.026-0.316
		c0.011-0.098-0.062-0.221-0.041-0.322c0.011-0.103,0.134-0.189,0.148-0.292c0.016-0.098,0.226-0.179,0.241-0.281
		c0.01-0.103-0.185-0.235-0.169-0.338c0.015-0.103,0.046-0.204,0.056-0.302c0.016-0.103,0.153-0.189,0.164-0.291
		c0.021-0.103-0.226-0.235-0.215-0.338c0.01-0.103,0.358-0.164,0.368-0.261c0.016-0.103-0.251-0.241-0.235-0.343
		c0.011-0.098-0.016-0.205,0-0.308c0.011-0.102,0.164-0.184,0.179-0.286c0.011-0.103,0.026-0.205,0.036-0.297
		c0.011-0.103-0.082-0.215-0.071-0.317c0.01-0.102,0.143-0.188,0.148-0.291c0.005-0.103-0.066-0.21-0.062-0.313
		c0.005-0.092,0.03-0.204,0.041-0.302c0.015-0.097,0.261-0.174,0.271-0.271c0.011-0.103-0.245-0.23-0.245-0.328
		c0-0.107,0.112-0.215,0.097-0.307c-0.02-0.103-0.02-0.235-0.076-0.317c-0.051-0.071-0.24-0.021-0.338-0.076
		c-0.071-0.046-0.103-0.221-0.204-0.261c-0.093-0.021-0.21,0.051-0.328,0.03c-0.087-0.011-0.235-0.256-0.24-0.379
		c-0.005-0.097,0.139-0.199,0.139-0.291c-0.011-0.098-0.113-0.189-0.113-0.281c0-0.098,0.016-0.194,0.016-0.287
		c0-0.097-0.144-0.194-0.144-0.286c0-0.098,0.016-0.194,0.016-0.286c0-0.098,0.123-0.082,0.123-0.175
		c0.117,0.072,0.286-0.035,0.348,0.052c0.082,0.103,0.103,0.271,0.133,0.389c0.021,0.097-0.163,0.235-0.148,0.327
		c0.026,0.098,0.2,0.153,0.221,0.235c0.03,0.103-0.011,0.215,0.021,0.292c0.04,0.097-0.021,0.271,0.03,0.343
		c0.062,0.076,0.256,0.056,0.338,0.103c0.076,0.04,0.204-0.088,0.307-0.067c0.082,0.016,0.158-0.025,0.266-0.025
		c0.082,0.005,0.164,0.358,0.267,0.358c0.092,0,0.184-0.22,0.286-0.226c0.098,0,0.199,0.154,0.297,0.148
		c0.097-0.005,0.194-0.03,0.297-0.035c0.092,0,0.189-0.144,0.286-0.144c0.098-0.005,0.205,0.179,0.302,0.174
		c0.098,0,0.189-0.256,0.287-0.266c0.097,0,0.199,0.184,0.302,0.184c0.097-0.005,0.194-0.01,0.291-0.01
		c0.098-0.005,0.2-0.041,0.292-0.052c0.103-0.01,0.194-0.209,0.286-0.215c0.103-0.01,0.215,0.302,0.313,0.297
		c0.097,0,0.189-0.122,0.291-0.133c0.098,0,0.185-0.164,0.287-0.174c0.097,0,0.209,0.281,0.307,0.276
		c0.097-0.005,0.194-0.133,0.292-0.133c0.097-0.006,0.188-0.134,0.291-0.144c0.103,0,0.205,0.204,0.302,0.199
		c0.098-0.005,0.189-0.076,0.292-0.082c0.097-0.005,0.184-0.179,0.286-0.188c0.098,0,0.194,0,0.292-0.006
		c0.102-0.005,0.209,0.144,0.302,0.139c0.103-0.011,0.204-0.005,0.297-0.016c0.102-0.016,0.184-0.123,0.275-0.138
		c0.103-0.021,0.246,0.148,0.333,0.122c0.103-0.021,0.189-0.107,0.281-0.143c0.092-0.041,0.189-0.103,0.266-0.153
		c0.082-0.052,0.093-0.21,0.154-0.282c0.061-0.071,0.133-0.138,0.184-0.22c0.046-0.082,0.052-0.184,0.092-0.281
		c0.031-0.087,0.226-0.128,0.251-0.23c0.025-0.092-0.23-0.245-0.215-0.348c0.016-0.092,0.159-0.164,0.174-0.266
		c0.016-0.093,0.087-0.144,0.103-0.246c0.098,0.006,0.148,0.006,0.23,0.052s0.317-0.026,0.378,0.051
		c0.057,0.071,0.006,0.256,0.047,0.354c0.035,0.087-0.107,0.225-0.088,0.327c0.021,0.087,0.113,0.158,0.123,0.261
		c0.005,0.097,0.112,0.189,0.112,0.291c-0.005,0.098,0.123,0.21,0.113,0.313c-0.011,0.092-0.113,0.194-0.134,0.292
		c-0.015,0.097-0.255,0.138-0.286,0.229c-0.021,0.098,0.112,0.235,0.082,0.328c-0.03,0.092-0.199,0.133-0.235,0.225
		c-0.041,0.092,0.01,0.235-0.03,0.327c-0.062-0.102-0.113-0.235-0.164-0.337c-0.062-0.107-0.133-0.205-0.21-0.292
		c-0.076-0.087-0.22,0.025-0.322,0.066c-0.103,0.052-0.353,0.123-0.322,0.22c0.025,0.093-0.025,0.205-0.005,0.292
		c0.03,0.092,0.123,0.164,0.153,0.251c0.025,0.092,0.235,0.128,0.256,0.215c0.03,0.087-0.051,0.215-0.03,0.302
		c0.03,0.092,0.081,0.174,0.112,0.266c0.021,0.087,0.122,0.153,0.153,0.246c0.021,0.092-0.041,0.215-0.011,0.296
		c0.026,0.093,0.154,0.148,0.185,0.235c0.03,0.093-0.164,0.246-0.133,0.338c0.03,0.087,0.051,0.189,0.087,0.276
		c0.036,0.082,0.103,0.153,0.138,0.23c0.041,0.076,0.036,0.169,0.072,0.25c0.03,0.082,0.24,0.103,0.266,0.185
		c0.021,0.103-0.062,0.225-0.041,0.327c0.025,0.103,0.052,0.205,0.071,0.307c0.026,0.098-0.025,0.216,0,0.317
		c0.021,0.103,0.256,0.153,0.276,0.256c0.026,0.098,0.123,0.185,0.148,0.276c0.025,0.103-0.256,0.276-0.229,0.368
		c0.02,0.103,0.092,0.194,0.112,0.297s0.204,0.164,0.225,0.266c0.021,0.103-0.158,0.246-0.138,0.349
		c0.025,0.102,0.235,0.158,0.261,0.256c0.021,0.102,0.174,0.174,0.194,0.275c0.025,0.103-0.204,0.256-0.185,0.354
		c0.021,0.103,0,0.21,0.016,0.312c0.016,0.103,0.046,0.194,0.057,0.297c0.01,0.107-0.011,0.205-0.011,0.308
		c0,0.107,0.144,0.215,0.134,0.316c-0.006,0.113-0.036,0.205-0.062,0.297c-0.046,0.103-0.062,0.22-0.134,0.287
		c-0.071,0.071-0.204,0.056-0.296,0.092c-0.093,0.03-0.174,0.128-0.276,0.143c-0.103,0.016-0.215-0.056-0.313-0.051
		c-0.107,0.011-0.21,0.031-0.302,0.046c-0.076,0.016-0.163-0.056-0.266-0.158c-0.082-0.082-0.159-0.164-0.226-0.267
		c-0.062-0.102-0.046-0.225-0.071-0.322c-0.03-0.092,0.025-0.204,0-0.302c-0.021-0.097-0.327-0.122-0.348-0.215
		c-0.021-0.097,0.062-0.22,0.041-0.316c-0.021-0.093,0.143-0.221,0.122-0.317c-0.01-0.092-0.378-0.148-0.394-0.246
		c-0.005-0.097,0.179-0.215,0.179-0.312c0-0.098-0.076-0.205-0.071-0.302c0.01-0.112-0.01-0.2-0.021-0.287
		c-0.021-0.112,0.103-0.256,0.051-0.337c-0.046-0.087-0.122-0.2-0.204-0.267c-0.071-0.062-0.226-0.01-0.327-0.062
		c-0.082-0.04-0.189-0.051-0.287-0.102c-0.082-0.041-0.163-0.134-0.256-0.189c0.021,0.097,0.041,0.21,0.062,0.302
		c0.025,0.103-0.035,0.215-0.01,0.307c0.021,0.103-0.041,0.215-0.021,0.308c0.025,0.097,0.169,0.163,0.194,0.261
		c0.021,0.097-0.087,0.22-0.062,0.312c0.021,0.103,0.302,0.133,0.327,0.235c0.021,0.092-0.041,0.21-0.021,0.302
		c0.021,0.098,0.134,0.174,0.153,0.271c0.021,0.103,0.006,0.199,0.021,0.297c0.021,0.092-0.087,0.215-0.071,0.312
		c0.021,0.093,0.286,0.144,0.307,0.235c0.021,0.098-0.122,0.22-0.102,0.317c0.015,0.103,0.015,0.199,0.03,0.286
		c0.011,0.107-0.021,0.2-0.021,0.281c-0.01,0.113-0.133,0.134-0.174,0.205c-0.041,0.092-0.021,0.112-0.123,0.144
		c-0.071,0.025-0.133,0.066-0.245,0.062c-0.082-0.006-0.205,0.163-0.302,0.138c-0.087-0.016-0.118-0.313-0.21-0.333
		c-0.107-0.03-0.24,0.011-0.327,0.006c-0.113-0.006-0.215,0.102-0.297,0.128c-0.103,0.041-0.246-0.041-0.297,0.051
		c-0.103-0.01-0.133,0.235-0.245,0.235C37.654,41.644,37.599,41.516,37.542,41.521z M40.325,49.23
		c-0.113,0.015-0.185-0.036-0.302-0.021c-0.036-0.103,0.021-0.189-0.026-0.292c-0.046-0.103-0.209-0.148-0.245-0.245
		c-0.041-0.098-0.051-0.21-0.071-0.313c-0.025-0.103-0.021-0.204-0.041-0.307s0-0.215-0.021-0.317s-0.185-0.164-0.205-0.266
		c-0.021-0.103-0.01-0.21-0.025-0.313c-0.021-0.103-0.144-0.179-0.169-0.281c-0.021-0.103-0.112-0.185-0.133-0.286
		c-0.021-0.103,0.082-0.226,0.057-0.328c-0.026-0.102,0.01-0.215-0.016-0.312c-0.021-0.103-0.046-0.199-0.071-0.302
		c-0.021-0.103-0.164-0.174-0.189-0.276s0.204-0.251,0.179-0.353c-0.021-0.103-0.123-0.185-0.144-0.282
		c-0.02-0.102-0.035-0.204-0.061-0.307c-0.021-0.103,0.046-0.225,0.021-0.317c-0.026-0.112-0.144-0.194-0.164-0.286
		c-0.021-0.107,0.066-0.23,0.051-0.322c-0.021-0.118-0.021-0.205-0.025-0.292c-0.01-0.122-0.338-0.245-0.322-0.327
		c0.025-0.112,0.292-0.097,0.368-0.174c0.062-0.062,0.057-0.235,0.164-0.286c0.082-0.041,0.245,0.092,0.358,0.051
		c0.081-0.03,0.184-0.041,0.296-0.071c0.093-0.031,0.194-0.041,0.297-0.072c0.087-0.03,0.103-0.316,0.185-0.337
		c0.087-0.011,0.071,0.194,0.158,0.184c-0.016,0.093-0.016,0.077-0.016,0.185c0,0.082,0.041,0.174,0.052,0.256
		c0.005,0.092,0.03,0.153,0.051,0.235c-0.03,0.092,0.107,0.215,0.082,0.307c-0.021,0.092-0.256,0.138-0.276,0.235
		c-0.021,0.092,0.205,0.235,0.189,0.327c-0.016,0.093-0.169,0.174-0.179,0.276c-0.006,0.092-0.077,0.194-0.077,0.292
		c0,0.092,0.098,0.188,0.103,0.291c0.005,0.093-0.046,0.2-0.036,0.297c0.021,0.098,0.189,0.164,0.215,0.256
		c0.021,0.098-0.143,0.226-0.123,0.322c0.011,0.098,0.256,0.158,0.267,0.256c0.01,0.097-0.133,0.21-0.123,0.312
		c0.011,0.093-0.01,0.195-0.01,0.287c0.005,0.103,0,0.194,0,0.291c0,0.098,0.03,0.189,0.03,0.292c0,0.098,0.051,0.194,0.051,0.292
		c-0.005,0.097,0.052,0.199,0.047,0.291c-0.006,0.103-0.18,0.194-0.189,0.287c0,0.097,0.174,0.204,0.174,0.296
		c-0.005,0.103-0.031,0.194-0.036,0.297c-0.005,0.092-0.112,0.185-0.112,0.287c-0.005,0.092,0.016,0.194,0.016,0.286
		C40.335,49.03,40.325,49.128,40.325,49.23z"/>
</g>
<g>
</g>
<g>
</g>
<g>
</g>
<g>
</g>
<g>
</g>
<g>
</g>
<g>
</g>
<g>
</g>
<g>
</g>
<g>
</g>
<g>
</g>
<g>
</g>
<g>
</g>
<g>
</g>
<g>
</g>
</svg>
