<?xml version="1.0" encoding="utf-8"?>
<!-- Generator: Adobe Illustrator 16.0.0, SVG Export Plug-In . SVG Version: 6.00 Build 0)  -->
<!DOCTYPE svg PUBLIC "-//W3C//DTD SVG 1.1//EN" "http://www.w3.org/Graphics/SVG/1.1/DTD/svg11.dtd">
<svg version="1.1" id="圖層_1" xmlns="http://www.w3.org/2000/svg" xmlns:xlink="http://www.w3.org/1999/xlink" x="0px" y="0px"
	 width="55px" height="55px" viewBox="0 0 55 55" enable-background="new 0 0 55 55" xml:space="preserve">
<g>
	<path d="M28.98,52.847C18.208,52.828,9.036,46.642,5.119,36.956c-0.43-1.049-0.077-2.04,0.867-2.422
		c0.944-0.391,1.897,0.057,2.334,1.106c2.27,5.5,6.083,9.542,11.536,11.917c12.222,5.329,26.273-1.383,29.877-14.214
		c3.47-12.337-4.595-25.168-17.227-27.399C22.27,4.132,12.401,9.538,8.397,19.157c-0.306,0.734-0.715,1.317-1.563,1.402
		c-1.343,0.144-2.278-1.115-1.773-2.402c0.715-1.821,1.612-3.546,2.746-5.138c4.7-6.569,11.085-10.239,19.142-10.802
		C39.953,1.3,51.468,10.463,53.651,23.353c1.974,11.658-4.595,23.289-15.615,27.693C35.023,52.228,31.897,52.809,28.98,52.847
		L28.98,52.847z"/>
	<path d="M31.916,25.745c-0.219-0.229-0.343-0.373-0.467-0.496l-5.71-5.71c-0.524-0.524-0.686-1.144-0.447-1.849
		c0.229-0.668,0.725-1.039,1.41-1.146c0.649-0.094,1.164,0.202,1.611,0.66c2.212,2.221,4.443,4.441,6.664,6.662
		c0.781,0.782,1.573,1.555,2.345,2.336c0.753,0.762,0.753,1.821,0,2.583c-3.013,3.013-6.035,6.016-9.046,9.029
		c-0.439,0.438-0.945,0.705-1.574,0.61c-0.685-0.105-1.171-0.486-1.4-1.153c-0.219-0.658-0.095-1.268,0.391-1.774
		c0.667-0.695,1.362-1.372,2.05-2.049c1.362-1.364,2.735-2.727,4.232-4.224H3.106c-0.286,0-0.591-0.009-0.866-0.085
		C1.505,28.947,1,28.243,1,27.479c0-0.763,0.515-1.458,1.259-1.64c0.276-0.067,0.581-0.077,0.867-0.086h27.999
		c0.21,0,0.429,0,0.792,0V25.745z"/>
</g>
<g>
</g>
<g>
</g>
<g>
</g>
<g>
</g>
<g>
</g>
<g>
</g>
<g>
</g>
<g>
</g>
<g>
</g>
<g>
</g>
<g>
</g>
<g>
</g>
<g>
</g>
<g>
</g>
<g>
</g>
</svg>
