<?xml version="1.0" encoding="utf-8"?>
<!-- Generator: Adobe Illustrator 16.0.0, SVG Export Plug-In . SVG Version: 6.00 Build 0)  -->
<!DOCTYPE svg PUBLIC "-//W3C//DTD SVG 1.1//EN" "http://www.w3.org/Graphics/SVG/1.1/DTD/svg11.dtd">
<svg version="1.1" id="圖層_1" xmlns="http://www.w3.org/2000/svg" xmlns:xlink="http://www.w3.org/1999/xlink" x="0px" y="0px"
	 width="55px" height="55px" viewBox="0 0 55 55" enable-background="new 0 0 55 55" xml:space="preserve">
<g>
	<path d="M17.345,21.333c0.307-0.919,0.483-1.861,0.907-2.663c1.367-2.544,4.359-3.511,7.304-2.438
		c2.58,0.942,4.265,3.311,4.336,6.15c0.153,5.255-3.146,8.895-8.494,9.355c-6.221,0.541-11.734-3.099-13.619-9.014
		c-0.907-2.862-0.766-5.749,0-8.611c0.848-3.205,2.509-5.95,4.913-8.235c0.059-0.059,0.129-0.106,0.235-0.189
		c1.708,2.875,3.417,5.726,5.125,8.625c-1.119,0.836-2.015,1.838-2.651,3.075c-0.636,1.225-0.966,2.533-0.978,3.958
		c1.037,0,2.038,0,2.922,0V21.333z M24.92,23.819v-3.04h-3.016v3.04H24.92z"/>
	<path d="M27.159,33.209c2.64-1.544,4.43-3.734,5.337-6.705c4.889,1.309,9.767,2.604,14.668,3.911
		c-0.449,2.086-1.12,4.054-1.979,5.951c-0.708,1.567-0.719,1.567-2.427,1.85c-0.46,0.082-0.907,0.163-1.437,0.258
		c0.2,0.966,0.376,1.91,0.612,2.839c0.083,0.319,0.024,0.543-0.176,0.789c-1.921,2.356-4.065,4.501-6.528,6.304
		c-0.093,0.07-0.2,0.142-0.352,0.236C32.308,43.505,29.74,38.379,27.159,33.209L27.159,33.209z"/>
	<path d="M16.368,34.434c2.662,0.589,5.266,0.648,7.905-0.046c2.651,5.313,5.302,10.603,7.94,15.88
		c-3.145,2.273-11.05,4.111-15.845,3.665V34.434z"/>
	<path d="M40.224,6.842c5.938,5.596,8.307,12.417,7.458,20.5c-0.483-0.13-0.931-0.236-1.367-0.354
		c-4.276-1.143-8.542-2.286-12.818-3.404c-0.388-0.106-0.519-0.248-0.519-0.648c-0.046-2.038-0.423-4.005-1.519-5.772
		c-0.071-0.118-0.047-0.377,0.035-0.471C34.369,13.416,37.267,10.165,40.224,6.842L40.224,6.842z"/>
	<path d="M37.739,4.969c-2.887,3.24-5.738,6.456-8.613,9.685c-1.319-0.943-2.757-1.556-4.324-1.803
		c-1.189-0.188-2.368-0.2-3.546,0.06c-0.248,0.059-0.4,0.035-0.542-0.201c-1.72-2.922-3.463-5.832-5.196-8.753
		c-0.035-0.059-0.059-0.118-0.082-0.176C22.035-0.757,31.766,0.704,37.739,4.969z"/>
</g>
<g>
</g>
<g>
</g>
<g>
</g>
<g>
</g>
<g>
</g>
<g>
</g>
<g>
</g>
<g>
</g>
<g>
</g>
<g>
</g>
<g>
</g>
<g>
</g>
<g>
</g>
<g>
</g>
<g>
</g>
</svg>
