<?xml version="1.0" encoding="utf-8"?>
<!-- Generator: Adobe Illustrator 16.0.0, SVG Export Plug-In . SVG Version: 6.00 Build 0)  -->
<!DOCTYPE svg PUBLIC "-//W3C//DTD SVG 1.1//EN" "http://www.w3.org/Graphics/SVG/1.1/DTD/svg11.dtd">
<svg version="1.1" id="圖層_1" xmlns="http://www.w3.org/2000/svg" xmlns:xlink="http://www.w3.org/1999/xlink" x="0px" y="0px"
	 width="55px" height="55px" viewBox="0 0 55 55" enable-background="new 0 0 55 55" xml:space="preserve">
<path fill="#FFFFFF" d="M34.525,25.923l-12.222-7.047c-1.216-0.704-2.733,0.174-2.733,1.572v14.095c0,1.408,1.518,2.285,2.733,1.581
	l12.222-7.057C35.731,28.382,35.731,26.627,34.525,25.923z"/>
<g>
	<path fill="none" d="M16.434,30.682c-0.189-0.017-0.379-0.043-0.551-0.051c0.448,3.315,1.653,6.596,3.565,9.809
		c3.669,0.336,7.354,0.129,10.886-0.405c1.36-2.479,2.566-5.442,3.117-8.758h-4.84c-0.396,0-0.792-0.086-1.154-0.224
		c-0.775,0.017-1.55,0.025-2.273,0.025C21.911,31.078,18.949,30.906,16.434,30.682z"/>
	<path fill="none" d="M16.916,20.142c-0.689,2.049-1.137,4.279-1.24,6.665c0,0.586,0,1.163,0.017,1.748
		c2.928,0.302,6.287,0.5,9.903,0.482c-0.086-0.293-0.138-0.594-0.138-0.921v-7.562c-2.842,0-5.443-0.146-7.647-0.327
		C17.501,20.193,17.209,20.167,16.916,20.142z"/>
	<path fill="none" d="M17.64,18.16c2.376,0.216,5.029,0.354,7.819,0.371v-2.756c0-1.74,1.413-3.152,3.169-3.152h0.207
		c-1.154-1.688-2.498-3.358-4.048-5.012C23.323,9.066,19.861,12.873,17.64,18.16z"/>
	<path fill="none" d="M31.246,12.623h7.372c-3.048-2.851-6.993-4.754-11.333-5.287C28.8,9.084,30.144,10.841,31.246,12.623z"/>
	<path fill="none" d="M22.204,7.361c-6.131,0.792-11.419,4.341-14.588,9.353c1.55,0.318,4.323,0.835,7.923,1.24
		C17.398,13.131,20.292,9.454,22.204,7.361z"/>
	<path fill="none" d="M42.872,36.788c0.878-1.714,1.533-3.565,1.912-5.521h-9.266c-0.482,3.101-1.447,5.899-2.652,8.319
		C36.568,38.854,39.996,37.83,42.872,36.788z"/>
	<path fill="none" d="M27.422,47.639c5.632-0.724,10.558-3.764,13.779-8.138c-2.876,0.921-6.114,1.791-9.559,2.368
		C30.178,44.357,28.594,46.321,27.422,47.639z"/>
	<path fill="none" d="M13.678,26.712c0.069-2.429,0.517-4.702,1.171-6.795c-3.996-0.465-6.924-1.059-8.25-1.352
		c-1.223,2.472-1.946,5.235-2.049,8.155c1.377,0.336,4.633,1.06,9.128,1.61C13.644,27.788,13.644,27.255,13.678,26.712z"/>
	<path fill="none" d="M23.065,42.627c-0.741,0-1.499-0.018-2.222-0.061c1.137,1.628,2.48,3.238,3.996,4.822
		c0.896-0.896,2.515-2.678,4.134-5.133C27.043,42.489,25.063,42.627,23.065,42.627z"/>
	<path fill="none" d="M16.933,40.12c-1.705-3.178-2.738-6.424-3.117-9.723c-4.34-0.517-7.561-1.188-9.266-1.593
		c0.172,2.592,0.827,5.063,1.895,7.303c0.689,0.525,3.565,2.541,8.75,3.678C15.779,39.914,16.365,40.025,16.933,40.12z"/>
	<path fill="none" d="M14.608,41.731c-2.497-0.568-4.478-1.31-5.994-2.016c3.238,4.28,8.129,7.242,13.71,7.932
		c-1.584-1.74-2.928-3.514-4.082-5.305C17.02,42.205,15.814,41.998,14.608,41.731z"/>
	<path d="M49.348,12.623h-7.871c-4.1-4.572-10.042-7.458-16.638-7.458C12.507,5.165,2.5,15.189,2.5,27.496
		c0,12.314,10.007,22.339,22.339,22.339l0,0l0,0l0,0c11.023,0,20.203-8.044,21.995-18.567h2.515c1.739,0,3.152-1.412,3.152-3.151
		V15.775C52.5,14.035,51.087,12.623,49.348,12.623z M25.597,29.037c-3.617,0.018-6.976-0.189-9.886-0.482
		c-0.034-0.577-0.034-1.162-0.017-1.748c0.086-2.386,0.534-4.616,1.223-6.665c0.293,0.025,0.585,0.052,0.896,0.077
		c2.222,0.189,4.822,0.327,7.647,0.336v7.553C25.459,28.435,25.511,28.744,25.597,29.037z M16.434,30.682
		c2.497,0.225,5.477,0.396,8.75,0.396c0.741,0,1.499-0.009,2.273-0.034c0.362,0.146,0.758,0.224,1.171,0.224h4.823
		c-0.551,3.324-1.757,6.287-3.117,8.758c-3.497,0.534-7.217,0.75-10.886,0.405c-1.912-3.212-3.117-6.493-3.565-9.809
		C16.055,30.639,16.245,30.656,16.434,30.682z M35.018,25.799v-4.572v-1.206v-1.929c0-0.034,0-0.069,0-0.112
		c0.086-0.878,1.051-1.403,1.843-0.947l0.947,0.552l2.704,1.559l2.997,1.739c0.827,0.465,0.827,1.653,0,2.118l-6.648,3.85
		c-0.361,0.207-0.74,0.207-1.068,0.078C35.345,26.764,35.018,26.342,35.018,25.799z M38.618,12.623h-7.372
		c-1.12-1.782-2.446-3.548-3.961-5.287C31.625,7.869,35.569,9.781,38.618,12.623z M28.835,12.623h-0.207
		c-1.756,0-3.169,1.404-3.169,3.152v2.747c-2.79-0.009-5.443-0.155-7.819-0.362c2.222-5.287,5.684-9.094,7.147-10.558
		C26.337,9.265,27.681,10.936,28.835,12.623z M22.204,7.361c-1.912,2.093-4.805,5.77-6.666,10.593
		c-3.6-0.405-6.373-0.922-7.923-1.24C10.785,11.693,16.072,8.153,22.204,7.361z M6.582,18.565c1.343,0.293,4.271,0.887,8.25,1.352
		c-0.637,2.093-1.085,4.366-1.171,6.795c-0.017,0.543-0.017,1.076,0,1.619c-4.495-0.551-7.733-1.274-9.128-1.61
		C4.653,23.801,5.376,21.037,6.582,18.565z M4.55,28.805c1.705,0.404,4.926,1.076,9.266,1.593c0.379,3.299,1.412,6.537,3.117,9.723
		c-0.568-0.095-1.154-0.206-1.739-0.335c-5.185-1.137-8.061-3.152-8.75-3.678C5.376,33.868,4.722,31.396,4.55,28.805z M8.614,39.716
		c1.516,0.706,3.514,1.447,5.994,2.016c1.206,0.267,2.412,0.474,3.634,0.611c1.154,1.791,2.498,3.564,4.082,5.305
		C16.744,46.958,11.853,43.996,8.614,39.716z M20.843,42.566c0.723,0.043,1.481,0.061,2.222,0.061c1.998,0,3.979-0.138,5.908-0.371
		c-1.619,2.464-3.238,4.237-4.134,5.142C23.323,45.805,21.98,44.194,20.843,42.566z M27.422,47.639
		c1.171-1.326,2.756-3.281,4.237-5.778c3.427-0.577,6.666-1.438,9.542-2.368C37.963,43.875,33.038,46.924,27.422,47.639z
		 M42.872,36.788c-2.894,1.042-6.304,2.066-10.007,2.799c1.188-2.42,2.17-5.219,2.635-8.319h9.266
		C44.405,33.223,43.768,35.074,42.872,36.788z"/>
	<path fill="#FFFFFF" d="M35.018,21.227c0.465,1.886,0.741,3.789,0.775,5.709c0.328,0.139,0.724,0.121,1.068-0.068l6.666-3.85
		c0.81-0.474,0.81-1.653,0-2.127l-3.014-1.739c-1.86,0.379-3.686,0.663-5.494,0.878V21.227z"/>
	<path fill="#FFFFFF" d="M35.035,17.979c0.913-0.111,1.843-0.25,2.791-0.396l-0.965-0.552C36.069,16.576,35.104,17.11,35.035,17.979
		z"/>
	<path fill="#FFFFFF" d="M35.018,25.799c0,0.543,0.327,0.965,0.775,1.137c-0.034-1.92-0.31-3.823-0.775-5.709V25.799z"/>
	<path fill="#FFFFFF" d="M35.018,18.092v1.929c1.809-0.215,3.634-0.499,5.494-0.878l-2.687-1.559
		c-0.947,0.146-1.877,0.284-2.791,0.396C35.018,18.022,35.018,18.058,35.018,18.092z"/>
</g>
<g>
</g>
<g>
</g>
<g>
</g>
<g>
</g>
<g>
</g>
<g>
</g>
<g>
</g>
<g>
</g>
<g>
</g>
<g>
</g>
<g>
</g>
<g>
</g>
<g>
</g>
<g>
</g>
<g>
</g>
</svg>
