<?xml version="1.0" encoding="utf-8"?>
<!-- Generator: Adobe Illustrator 16.0.0, SVG Export Plug-In . SVG Version: 6.00 Build 0)  -->
<!DOCTYPE svg PUBLIC "-//W3C//DTD SVG 1.1//EN" "http://www.w3.org/Graphics/SVG/1.1/DTD/svg11.dtd">
<svg version="1.1" id="圖層_1" xmlns="http://www.w3.org/2000/svg" xmlns:xlink="http://www.w3.org/1999/xlink" x="0px" y="0px"
	 width="55px" height="55px" viewBox="0 0 55 55" enable-background="new 0 0 55 55" xml:space="preserve">
<g>
	<path fill="#C9BDA1" d="M5.048,9.289c0.514,0.307,1.027,0.614,1.54,0.918c0.132,0.074,0.28,0.187,0.42,0.194
		c1.688,0.031,2.932,0.988,4.231,1.905c2.435,1.719,4.923,3.356,7.358,5.079c1.026,0.723,1.96,1.583,2.956,2.349
		c1.723,1.307,3.5,2.543,5.188,3.896c3.616,2.894,7.17,5.865,10.802,8.742c2.715,2.144,5.375,4.355,8.322,6.199
		c1.093,0.685,2.107,1.524,3.239,2.139c0.797,0.436,1.738,0.599,2.602,0.918c1.116,0.408,1.346,1.166,0.626,2.119
		c-0.346,0.463-0.789,0.859-1.209,1.264c-0.973,0.934-1.563,0.763-2.341-0.314c-0.84-1.159-1.891-2.178-2.847-3.255
		c-0.312-0.354-0.622-0.712-0.941-1.058c-0.124-0.137-0.265-0.28-0.42-0.358c-2.329-1.178-4.736-2.229-6.984-3.543
		c-3.353-1.96-6.604-4.103-9.889-6.171c-3.698-2.325-7.361-4.706-11.095-6.977c-3.15-1.914-6.37-3.726-9.582-5.538
		c-1.882-1.065-3.562-2.318-4.254-4.449c-0.226-0.7-0.147-1.509-0.147-2.264c0-0.136,0.288-0.288,0.458-0.404
		c0.207-0.144,0.603-0.256,0.607-0.393C3.71,9.351,4.352,9.502,5.048,9.289z M52.219,42.468c-1.33-0.059-2.077,0.863-1.75,2.068
		C51.06,43.837,51.569,43.229,52.219,42.468z"/>
	<path fill="#FFFFFF" d="M9.264,31.898c0.327,0.603,0.606,1.115,0.886,1.625c-0.042,0.031-0.085,0.063-0.132,0.094
		c0.187,0.357,0.412,0.703,0.552,1.085c0.132,0.377,0.175,0.781,0.292,1.356c0.439,0.241,0.727,0.704,0.222,1.424
		c-0.085,0.128,0.046,0.4,0.062,0.606c0.023,0.265,0.047,0.529,0.047,0.793c0,0.443,0.008,0.887-0.039,1.322
		c-0.054,0.521-0.113,1.051-0.256,1.548c-0.203,0.716-0.475,1.404-0.77,2.248c-1.571,0.229-4.247-2.513-4.682-5.148
		C4.986,36.021,7.078,32.26,9.264,31.898z"/>
	<path fill="#FFFFFF" d="M18.146,42.141c-0.023-0.442-0.051-0.886-0.078-1.384c-0.327,0.043-0.626,0.085-1.015,0.14
		c0.058-0.505,0.105-0.94,0.167-1.513c-0.436,0.121-0.711,0.202-1.143,0.319c0.101-0.475,0.167-0.821,0.261-1.279
		c-0.961,0.202-1.179-0.272-1.093-1.051c0.015-0.136-0.066-0.322-0.164-0.432c-0.606-0.688-0.56-1.33,0.19-1.979
		c-0.237-0.163-0.408-0.279-0.575-0.404c-0.541-0.381-0.696-0.913-0.265-1.407c0.583-0.677,0.362-0.922-0.385-1.012
		c-0.148-1.399-0.012-1.521,1.322-1.158c4.97,1.361,6.759,6.514,3.691,10.679c-0.16,0.222-0.397,0.389-0.603,0.579
		C18.355,42.203,18.247,42.172,18.146,42.141z"/>
	<path fill="#FFFFFF" d="M13.755,37.537c1.108,0.852,1.147,1.011,0.482,2.854c0.471-0.125,0.844-0.222,1.127-0.296
		c0.611,0.999,1.202,1.972,1.871,3.08c-0.933,0.855-2.236,1.073-3.507,1.307c-0.533,0.097-1.104,0.077-1.645,0.008
		c-0.237-0.031-0.447-0.312-0.673-0.475c0.226-0.141,0.443-0.292,0.681-0.412c0.105-0.055,0.237-0.055,0.369-0.078
		c-0.708-1.579-0.801-3.002,0.922-4.216c-0.416-0.124-0.72-0.218-1.054-0.318c-0.058-0.712-0.175-1.431-0.147-2.15
		c0.008-0.214,0.396-0.518,0.657-0.587c0.307-0.078,0.824-0.055,0.976,0.136C13.961,36.596,13.79,37.051,13.755,37.537z"/>
	<path fill="#FFFFFF" d="M11.869,33.321c-0.311-0.346-1.229-0.451-0.471-1.19c-0.463-0.21-0.805-0.361-1.155-0.513
		c0-0.125,0-0.249,0-0.373c0.925-0.195,1.847-0.397,2.975-0.639c-0.066,1.198-0.117,2.14-0.179,3.205
		c0.84,0.233,0.447,0.871,0.05,1.338c-0.183,0.214-0.77,0.299-1.05,0.171C11.379,35.024,11.336,34.153,11.869,33.321z"/>
	<g>
		<g>
			<path d="M1.91,13.621c-0.023-0.101-0.144-0.171-0.167-0.272c-0.027-0.101,0.136-0.253,0.109-0.358
				c-0.023-0.101-0.008-0.218-0.023-0.319c-0.027-0.101-0.187-0.179-0.202-0.28c-0.016-0.109-0.117-0.21-0.125-0.315
				c-0.008-0.109,0.02-0.222,0.023-0.323c0-0.109-0.02-0.226-0.012-0.331c0.012-0.105,0.151-0.198,0.175-0.299
				c0.02-0.105,0.121-0.183,0.156-0.28c0.031-0.101-0.008-0.226,0.035-0.319c0.043-0.101,0-0.245,0.059-0.334
				c0.05-0.089,0.05-0.241,0.109-0.327c0.07-0.082,0.241-0.086,0.315-0.164s0.121-0.187,0.202-0.256
				c0.082-0.07,0.164-0.148,0.249-0.21c0.082-0.062,0.159-0.163,0.253-0.218c0.085-0.05,0.218-0.05,0.315-0.093
				c0.093-0.046,0.252,0.055,0.354,0.02c0.094-0.035,0.171-0.128,0.28-0.163c0.101-0.027,0.233,0.085,0.338,0.066
				c0.101-0.023,0.179-0.156,0.284-0.171c0.109-0.016,0.21-0.148,0.311-0.156c0.109,0,0.237-0.07,0.342-0.062
				c0.109,0.008,0.194,0.241,0.299,0.256c0.105,0.023,0.237-0.054,0.338-0.027C6.032,8.713,6.09,8.873,6.191,8.907
				c0.101,0.039,0.245-0.031,0.342,0.016C6.635,8.966,6.681,9.118,6.778,9.16c0.098,0.051,0.237,0.012,0.331,0.063
				c0.101,0.05,0.28-0.07,0.374-0.02c0.101,0.046,0.039,0.4,0.14,0.443C7.72,9.693,7.914,9.522,8.011,9.568
				c0.097,0.039,0.218,0,0.319,0.035c0.101,0.031,0.125,0.338,0.226,0.366C8.661,9.992,8.82,9.821,8.914,9.856
				c0.101,0.031,0.218,0.039,0.315,0.078C9.326,9.969,9.446,9.977,9.54,10.02c0.097,0.047,0.051,0.381,0.144,0.432
				c0.093,0.051,0.256-0.035,0.342,0.016c0.089,0.051,0.226,0.035,0.319,0.089c0.085,0.055,0.093,0.233,0.179,0.292
				c0.085,0.062,0.272-0.008,0.358,0.05c0.082,0.063,0.21,0.078,0.288,0.14c0.085,0.066-0.008,0.358,0.07,0.42
				c0.082,0.07,0.156,0.14,0.233,0.21c0.086,0.063,0.272,0,0.358,0.07c0.078,0.066,0.125,0.179,0.202,0.245
				c0.085,0.066,0.171,0.128,0.249,0.194c0.082,0.066,0.233,0.043,0.319,0.113c0.085,0.063,0.027,0.315,0.109,0.374
				c0.085,0.062,0.136,0.171,0.222,0.233c0.085,0.062,0.338-0.117,0.424-0.055c0.085,0.063,0.21,0.07,0.295,0.125
				c0.085,0.059,0.07,0.265,0.156,0.327c0.085,0.063,0.14,0.171,0.229,0.226c0.082,0.059,0.202,0.078,0.292,0.136
				c0.089,0.058,0.132,0.187,0.214,0.245c0.089,0.054,0.237,0.023,0.323,0.078c0.093,0.058,0.132,0.187,0.222,0.245
				c0.089,0.058,0.144,0.159,0.237,0.218c0.085,0.058,0.245,0,0.334,0.058c0.089,0.055,0.256-0.016,0.342,0.047
				c0.093,0.054,0.155,0.144,0.245,0.202c0.09,0.054,0.035,0.331,0.128,0.389c0.085,0.055,0.171,0.117,0.265,0.171
				c0.085,0.058,0.35-0.164,0.439-0.101c0.089,0.054,0.066,0.288,0.151,0.342c0.086,0.055,0.226,0.039,0.312,0.098
				c0.089,0.058,0.225,0.042,0.307,0.105c0.089,0.058,0.19,0.093,0.28,0.147c0.085,0.063,0.035,0.327,0.121,0.385
				c0.093,0.058,0.125,0.194,0.21,0.252c0.085,0.063,0.187,0.093,0.272,0.152c0.085,0.058,0.381-0.16,0.458-0.101
				c0.086,0.058-0.031,0.396,0.055,0.463c0.085,0.062,0.334-0.105,0.42-0.039c0.085,0.058,0.109,0.202,0.194,0.272
				c0.085,0.059,0.218,0.055,0.295,0.117c0.086,0.063,0.063,0.272,0.144,0.338c0.085,0.066,0.113,0.194,0.198,0.261
				c0.086,0.062,0.334-0.093,0.42-0.031C21,18.039,21,18.198,21.085,18.264c0.085,0.063,0.288-0.023,0.366,0.035
				c0.085,0.063,0.015,0.323,0.101,0.385c0.085,0.066,0.109,0.202,0.194,0.264c0.085,0.063,0.358-0.113,0.436-0.054
				c0.082,0.066,0.179,0.117,0.26,0.179c0.082,0.066,0.113,0.202,0.195,0.265c0.082,0.066,0.198,0.085,0.28,0.151
				c0.082,0.066,0.152,0.144,0.237,0.21c0.078,0.066,0.125,0.179,0.21,0.245c0.078,0.062,0.163,0.132,0.241,0.194
				c0.082,0.07,0.218,0.07,0.295,0.132c0.085,0.062,0.152,0.148,0.233,0.218c0.082,0.062,0.163,0.125,0.249,0.194
				c0.078,0.063-0.035,0.374,0.05,0.439c0.082,0.066,0.299-0.042,0.385,0.02c0.085,0.066,0.218,0.062,0.303,0.125
				c0.078,0.07-0.027,0.365,0.058,0.432c0.085,0.066,0.323-0.066,0.401-0.004c0.082,0.066,0.078,0.241,0.163,0.303
				c0.085,0.066,0.272,0,0.35,0.063c0.085,0.062,0.062,0.268,0.14,0.334c0.082,0.063,0.225,0.047,0.311,0.113
				c0.078,0.066,0.202,0.082,0.28,0.152c0.085,0.062,0.156,0.14,0.237,0.202c0.082,0.066,0.043,0.288,0.128,0.35
				c0.082,0.066,0.218,0.058,0.303,0.125c0.078,0.062,0.085,0.226,0.171,0.288c0.078,0.07,0.179,0.109,0.265,0.171
				c0.081,0.066,0.147,0.151,0.233,0.218c0.077,0.062,0.365-0.132,0.45-0.07c0.086,0.063-0.031,0.381,0.051,0.443
				c0.082,0.07,0.167,0.132,0.245,0.198c0.086,0.066,0.194,0.097,0.272,0.16c0.085,0.066,0.271,0,0.354,0.066
				c0.082,0.066,0.02,0.307,0.098,0.377c0.081,0.066,0.21,0.07,0.295,0.14c0.078,0.062,0.137,0.155,0.218,0.225
				c0.078,0.07,0.233,0.047,0.312,0.117c0.082,0.066,0.031,0.288,0.112,0.354c0.082,0.07,0.3-0.027,0.378,0.035
				c0.081,0.066,0.268,0.008,0.35,0.07c0.078,0.066,0.116,0.187,0.198,0.257c0.082,0.062,0.098,0.21,0.179,0.276
				c0.082,0.066,0.218,0.059,0.304,0.121c0.082,0.066,0.159,0.14,0.237,0.202c0.085,0.066,0.043,0.296,0.128,0.354
				c0.086,0.066,0.21,0.07,0.296,0.128c0.085,0.062,0.299-0.059,0.385,0c0.086,0.062,0.082,0.249,0.167,0.312
				c0.086,0.062,0.16,0.14,0.245,0.202c0.086,0.062,0.155,0.14,0.241,0.202c0.086,0.062,0.175,0.12,0.257,0.183
				c0.086,0.065,0.108,0.202,0.194,0.269c0.086,0.062,0.28-0.016,0.357,0.046c0.086,0.066,0.226,0.063,0.308,0.125
				c0.082,0.069,0.151,0.151,0.229,0.218c0.082,0.062,0.132,0.171,0.21,0.241c0.086,0.065,0.039,0.279,0.12,0.35
				c0.082,0.07,0.137,0.167,0.214,0.233c0.082,0.07,0.296-0.023,0.378,0.043c0.081,0.069,0.214,0.073,0.299,0.144
				c0.078,0.07-0.008,0.327,0.07,0.396c0.082,0.07,0.257,0.027,0.334,0.098c0.078,0.066,0.117,0.187,0.195,0.253
				c0.085,0.069,0.222,0.065,0.303,0.136c0.082,0.066,0.004,0.315,0.086,0.385c0.077,0.07,0.365-0.108,0.451-0.039
				c0.077,0.07,0.187,0.102,0.264,0.172c0.078,0.069,0.156,0.136,0.237,0.202c0.082,0.069-0.008,0.342,0.074,0.408
				c0.078,0.066,0.28-0.02,0.365,0.051c0.078,0.062,0.086,0.226,0.172,0.287c0.077,0.066,0.116,0.187,0.202,0.253
				c0.085,0.066,0.155,0.145,0.241,0.214c0.085,0.063,0.225,0.055,0.311,0.117c0.086,0.062,0.202,0.077,0.288,0.136
				c0.085,0.066,0.093,0.229,0.179,0.292c0.082,0.065,0.253,0.016,0.338,0.077c0.086,0.063,0.059,0.272,0.145,0.335
				c0.085,0.069,0.346-0.102,0.428-0.039c0.085,0.066,0.101,0.218,0.187,0.28c0.085,0.065,0.101,0.218,0.183,0.279
				c0.086,0.066,0.144,0.164,0.222,0.226c0.086,0.066,0.288-0.023,0.369,0.043c0.086,0.066,0.222,0.066,0.3,0.129
				c0.086,0.065,0.175,0.124,0.257,0.187c0.085,0.065-0.063,0.424,0.023,0.489c0.085,0.063,0.151,0.148,0.237,0.211
				c0.081,0.069,0.229,0.046,0.314,0.112c0.086,0.066,0.187,0.102,0.272,0.167c0.085,0.063,0.116,0.187,0.202,0.257
				c0.086,0.063,0.14,0.159,0.226,0.226c0.086,0.063,0.396-0.171,0.482-0.109c0.085,0.059,0.062,0.265,0.147,0.327
				c0.086,0.066,0.167,0.132,0.253,0.194c0.085,0.066,0.059,0.276,0.144,0.343c0.086,0.062,0.343-0.109,0.428-0.051
				c0.086,0.062,0.133,0.163,0.226,0.222c0.086,0.051,0.155,0.14,0.253,0.187c0.094,0.051,0.102,0.272,0.198,0.318
				c0.094,0.047,0.226,0.016,0.319,0.063c0.101,0.043,0.287-0.116,0.389-0.074c0.097,0.043,0.198,0.086,0.292,0.133
				c0.093,0.051,0.194,0.104,0.283,0.155c0.09,0.051,0.129,0.187,0.214,0.245c0.086,0.055,0.129,0.179,0.214,0.237
				c0.086,0.059,0.226,0.035,0.312,0.094c0.077,0.058,0.051,0.275,0.136,0.33c0.082,0.063,0.261-0.008,0.347,0.047
				c0.085,0.055,0.147,0.147,0.226,0.206c0.085,0.059,0.116,0.198,0.21,0.253c0.085,0.054,0.271-0.078,0.365-0.031
				s0.218,0.039,0.311,0.085c0.102,0.051,0.086,0.312,0.188,0.354c0.093,0.051,0.147,0.183,0.245,0.229
				c0.097,0.047,0.256-0.035,0.354,0.008c0.097,0.046,0.276-0.086,0.373-0.043c0.098,0.043,0.113,0.269,0.21,0.314
				c0.098,0.043,0.183,0.121,0.28,0.164c0.097,0.046,0.187,0.116,0.284,0.155c0.097,0.047,0.206,0.063,0.307,0.108
				c0.094,0.047,0.249-0.034,0.347,0.008c0.097,0.047,0.237,0,0.33,0.047c0.109,0.047,0.117,0.304,0.21,0.351
				c0.105,0.054,0.202,0.093,0.292,0.151c0.101,0.066,0.303,0,0.377,0.07c0.086,0.081-0.055,0.326,0.004,0.416
				c0.059,0.093,0.206,0.132,0.229,0.241c0.023,0.101-0.035,0.206-0.039,0.322c-0.004,0.102,0.039,0.206,0.02,0.323
				c-0.016,0.101,0.027,0.226-0.004,0.342c-0.023,0.102-0.28,0.144-0.311,0.253c-0.031,0.097,0.24,0.299,0.202,0.393
				c-0.039,0.094-0.296,0.09-0.343,0.179c-0.047,0.09,0.074,0.276,0.023,0.362c-0.055,0.081-0.147,0.151-0.21,0.236
				c-0.063,0.078-0.323-0.011-0.389,0.066c-0.063,0.078,0.089,0.354,0.023,0.424c-0.07,0.078-0.187,0.109-0.257,0.179
				c-0.074,0.07-0.151,0.141-0.226,0.202c-0.078,0.066-0.226,0.051-0.304,0.109c-0.077,0.07-0.147,0.144-0.226,0.206
				c-0.077,0.059-0.108,0.183-0.194,0.245c-0.077,0.063-0.265-0.016-0.346,0.051c-0.082,0.058-0.202,0.073-0.28,0.136
				c-0.085,0.07-0.078,0.218-0.175,0.257c-0.098,0.039-0.179,0.116-0.284,0.132c-0.104,0.008-0.206,0.016-0.314,0
				c-0.109-0.008-0.152-0.194-0.257-0.229c-0.102-0.031-0.233,0.051-0.327,0c-0.085-0.05-0.218-0.05-0.303-0.12
				c-0.078-0.07-0.094-0.198-0.163-0.284c-0.066-0.081-0.137-0.155-0.188-0.253c-0.05-0.093-0.287-0.077-0.338-0.163
				c-0.051-0.093,0.112-0.311,0.059-0.4c-0.059-0.09-0.194-0.125-0.249-0.21c-0.055-0.086-0.07-0.206-0.125-0.292
				c-0.062-0.085-0.069-0.21-0.132-0.291c-0.063-0.082-0.144-0.156-0.21-0.229c-0.063-0.086-0.214-0.094-0.284-0.172
				c-0.065-0.085-0.179-0.12-0.245-0.194c-0.069-0.077,0.023-0.307-0.05-0.381c-0.074-0.078-0.261-0.039-0.331-0.112
				c-0.078-0.074-0.051-0.245-0.124-0.319c-0.07-0.074-0.28-0.004-0.358-0.074c-0.077-0.069-0.226-0.054-0.303-0.12
				c-0.078-0.07-0.047-0.265-0.125-0.331c-0.081-0.062-0.085-0.225-0.167-0.291s-0.171-0.121-0.253-0.183
				c-0.077-0.063-0.163-0.133-0.241-0.194c-0.085-0.063-0.271,0.022-0.357-0.031c-0.086-0.063-0.198-0.074-0.284-0.133
				c-0.085-0.058-0.101-0.218-0.19-0.271c-0.085-0.059-0.093-0.241-0.179-0.296c-0.086-0.059-0.319,0.116-0.408,0.063
				c-0.09-0.055-0.051-0.312-0.137-0.366c-0.093-0.054-0.187-0.093-0.279-0.147c-0.086-0.051-0.3,0.108-0.389,0.055
				c-0.086-0.055-0.172-0.105-0.265-0.156c-0.094-0.054-0.125-0.202-0.214-0.256c-0.09-0.047-0.145-0.168-0.237-0.218
				c-0.086-0.047-0.137-0.18-0.226-0.229c-0.086-0.051-0.351,0.206-0.436,0.155c-0.094-0.051-0.051-0.346-0.144-0.393
				c-0.094-0.051-0.245,0.023-0.339-0.023c-0.093-0.051-0.147-0.171-0.237-0.218c-0.089-0.047-0.144-0.167-0.237-0.214
				c-0.085-0.051-0.237,0-0.326-0.051c-0.09-0.047-0.194-0.078-0.284-0.128c-0.089-0.051-0.086-0.269-0.179-0.323
				C39.708,38.458,39.6,38.45,39.51,38.4c-0.089-0.051-0.249,0.031-0.342-0.023c-0.094-0.055-0.117-0.218-0.206-0.272
				c-0.09-0.055-0.167-0.116-0.261-0.171c-0.086-0.051-0.124-0.194-0.214-0.249c-0.09-0.051-0.354,0.206-0.447,0.155
				c-0.086-0.055-0.016-0.381-0.108-0.432c-0.086-0.055-0.249,0.016-0.335-0.035c-0.09-0.054-0.257,0.023-0.346-0.026
				c-0.09-0.051-0.09-0.253-0.18-0.308c-0.089-0.055-0.097-0.245-0.187-0.296c-0.089-0.054-0.299,0.102-0.389,0.047
				c-0.089-0.055-0.124-0.194-0.214-0.249c-0.089-0.051-0.249,0.008-0.334-0.043c-0.094-0.05-0.113-0.218-0.202-0.271
				c-0.09-0.051-0.249,0.012-0.335-0.039c-0.093-0.055-0.051-0.315-0.14-0.369c-0.09-0.055-0.276,0.054-0.358,0
				c-0.093-0.055-0.069-0.292-0.155-0.347c-0.093-0.051-0.249,0.004-0.334-0.051c-0.09-0.05-0.113-0.21-0.202-0.26
				c-0.09-0.051-0.304,0.101-0.394,0.05c-0.089-0.054-0.167-0.128-0.252-0.187c-0.086-0.055-0.172-0.108-0.257-0.163
				c-0.094-0.055-0.214-0.055-0.304-0.109c-0.086-0.05-0.19-0.085-0.28-0.136c-0.085-0.051-0.069-0.28-0.155-0.33
				c-0.093-0.055-0.226-0.031-0.311-0.086c-0.094-0.059-0.07-0.28-0.156-0.338c-0.085-0.059-0.271,0.042-0.361-0.012
				c-0.086-0.055-0.113-0.202-0.206-0.257c-0.082-0.063-0.202-0.063-0.288-0.121c-0.085-0.058-0.151-0.151-0.237-0.206
				c-0.085-0.058-0.271,0.035-0.354-0.023c-0.086-0.054-0.121-0.194-0.206-0.252c-0.086-0.059-0.09-0.237-0.175-0.296
				c-0.086-0.059-0.343,0.132-0.424,0.074c-0.086-0.055-0.105-0.218-0.188-0.272c-0.085-0.059-0.054-0.288-0.136-0.351
				c-0.086-0.054-0.338,0.125-0.424,0.063c-0.086-0.055-0.027-0.326-0.112-0.389c-0.082-0.055-0.304,0.086-0.39,0.027
				c-0.085-0.059-0.008-0.347-0.093-0.408c-0.086-0.055-0.296,0.062-0.381,0.008c-0.086-0.059-0.144-0.152-0.229-0.21
				c-0.085-0.063-0.144-0.156-0.229-0.21c-0.085-0.055-0.264,0.022-0.35-0.039c-0.085-0.059-0.116-0.202-0.198-0.261
				c-0.085-0.059-0.151-0.151-0.237-0.206c-0.085-0.059-0.171-0.117-0.256-0.175c-0.085-0.059-0.202-0.066-0.288-0.121
				c-0.086-0.058-0.272,0.023-0.354-0.035c-0.085-0.058-0.167-0.12-0.253-0.175c-0.085-0.063-0.105-0.218-0.19-0.272
				c-0.074-0.054-0.167-0.101-0.253-0.151c-0.078-0.059-0.155-0.093-0.241-0.136c-0.089-0.043-0.14-0.156-0.233-0.171
				c-0.109-0.016-0.179-0.203-0.28-0.226c-0.113-0.027-0.257,0.097-0.358,0.062c-0.109-0.039-0.151-0.202-0.249-0.253
				c-0.101-0.042-0.334,0.176-0.436,0.121c-0.093-0.051-0.078-0.296-0.171-0.357c-0.093-0.059-0.252-0.016-0.342-0.082
				c-0.089-0.066-0.226-0.07-0.319-0.136c-0.085-0.07,0.055-0.417-0.031-0.486c-0.086-0.066-0.222-0.066-0.308-0.137
				c-0.085-0.069-0.206-0.097-0.292-0.167c-0.082-0.07-0.253-0.023-0.334-0.085c-0.085-0.066-0.016-0.346-0.101-0.404
				c-0.085-0.063-0.299,0.058-0.389,0.004c-0.089-0.059-0.183-0.101-0.276-0.16c-0.089-0.058-0.058-0.319-0.144-0.377
				c-0.094-0.055-0.261,0.023-0.354-0.027c-0.093-0.05-0.128-0.214-0.222-0.265c-0.093-0.05-0.323,0.16-0.416,0.109
				c-0.093-0.05-0.121-0.225-0.214-0.268c-0.094-0.051-0.265,0.054-0.362,0.008c-0.097-0.051-0.19-0.093-0.288-0.14
				c-0.098-0.046-0.195-0.085-0.288-0.132c-0.093-0.05-0.058-0.35-0.151-0.396c-0.094-0.051-0.218-0.047-0.311-0.093
				c-0.094-0.051-0.218-0.039-0.312-0.093c-0.093-0.047-0.093-0.265-0.187-0.319c-0.093-0.055-0.319,0.14-0.412,0.085
				c-0.093-0.055-0.179-0.132-0.272-0.187c-0.085-0.055-0.155-0.148-0.245-0.21c-0.09-0.063-0.078-0.257-0.167-0.319
				c-0.085-0.062-0.121-0.194-0.206-0.256c-0.085-0.059-0.346,0.113-0.432,0.05c-0.085-0.058-0.222-0.05-0.311-0.113
				c-0.085-0.062-0.008-0.354-0.097-0.412c-0.089-0.062-0.152-0.163-0.237-0.222c-0.093-0.058-0.241-0.023-0.334-0.074
				c-0.089-0.055-0.171-0.128-0.261-0.179c-0.089-0.047-0.292,0.124-0.385,0.078c-0.093-0.047-0.02-0.432-0.117-0.475
				c-0.093-0.046-0.35,0.257-0.447,0.21c-0.093-0.042-0.066-0.342-0.167-0.389c-0.093-0.043-0.179-0.101-0.272-0.148
				c-0.093-0.046-0.151-0.151-0.245-0.198c-0.093-0.051-0.338,0.183-0.424,0.136c-0.093-0.047-0.14-0.187-0.229-0.241
				c-0.089-0.055-0.187-0.101-0.272-0.16c-0.085-0.058-0.222-0.066-0.303-0.128c-0.082-0.07-0.051-0.261-0.121-0.334
				c-0.078-0.078-0.066-0.249-0.148-0.319c-0.082-0.074-0.369,0.093-0.451,0.027c-0.085-0.07-0.07-0.245-0.155-0.315
				c-0.085-0.062-0.222-0.058-0.303-0.117c-0.094-0.062-0.117-0.218-0.21-0.272c-0.094-0.059-0.191-0.101-0.284-0.156
				c-0.093-0.054-0.245,0.004-0.338-0.046c-0.093-0.051-0.085-0.315-0.179-0.366C9.567,19.89,9.466,19.851,9.373,19.8
				c-0.094-0.042-0.257,0.051-0.358,0.004c-0.093-0.046-0.16-0.163-0.257-0.21c-0.097-0.046-0.206-0.062-0.303-0.109
				c-0.101-0.042-0.187-0.101-0.288-0.147c-0.093-0.047-0.265,0.066-0.362,0.023c-0.097-0.046-0.214-0.07-0.307-0.117
				c-0.093-0.046-0.066-0.311-0.156-0.357c-0.089-0.051-0.226-0.016-0.319-0.07c-0.085-0.05-0.147-0.151-0.233-0.202
				c-0.089-0.054-0.292,0.074-0.381,0.023c-0.085-0.058,0.023-0.412-0.063-0.467c-0.085-0.058-0.249,0-0.334-0.058
				c-0.085-0.059-0.124-0.183-0.202-0.245c-0.085-0.058-0.167-0.117-0.252-0.179c-0.082-0.059-0.121-0.171-0.202-0.237
				c-0.082-0.059-0.195-0.082-0.276-0.144c-0.082-0.062-0.327,0.085-0.404,0.023c-0.082-0.066-0.093-0.218-0.171-0.284
				c-0.082-0.066-0.109-0.195-0.187-0.261c-0.082-0.062-0.303,0.055-0.385-0.012c-0.082-0.066-0.167-0.121-0.245-0.187
				c-0.078-0.066-0.128-0.164-0.21-0.229c-0.082-0.062-0.074-0.233-0.156-0.295c-0.078-0.07-0.233-0.07-0.307-0.144
				s-0.097-0.206-0.159-0.288c-0.07-0.082-0.164-0.152-0.222-0.237c-0.059-0.085,0.058-0.288,0.004-0.374
				c-0.055-0.093-0.07-0.198-0.125-0.292c-0.055-0.089-0.21-0.121-0.265-0.214c-0.054-0.093-0.089-0.19-0.14-0.284
				c-0.05-0.094-0.241-0.105-0.295-0.195c-0.05-0.093,0.109-0.237,0.051-0.323C1.929,13.683,1.852,13.648,1.91,13.621z M5.048,9.32
				c-0.101,0.031-0.179,0.147-0.28,0.163C4.659,9.506,4.515,9.335,4.414,9.358C4.301,9.382,4.169,9.366,4.08,9.409
				c-0.101,0.042-0.121,0.222-0.19,0.303c-0.062,0.074-0.012,0.175-0.043,0.292c-0.027,0.09-0.066,0.164-0.07,0.288
				c0,0.078-0.167,0.252-0.315,0.319c-0.117,0.058-0.295,0-0.381,0.058c-0.078,0.055-0.225,0.055-0.311,0.113
				c-0.109,0.078-0.155,0.229-0.155,0.303c0,0.109,0.109,0.222,0.105,0.327c-0.004,0.109,0.082,0.218,0.074,0.327
				c0,0.109-0.132,0.214-0.132,0.319c0,0.109,0.047,0.214,0.055,0.319c0.004,0.109,0.027,0.21,0.035,0.319
				c0.012,0.109,0.074,0.194,0.094,0.299c0.019,0.105-0.012,0.21,0.027,0.311c0.031,0.105-0.078,0.253-0.042,0.35
				c0.035,0.097,0.136,0.175,0.183,0.268c0.047,0.097-0.039,0.257,0.004,0.35c0.051,0.093,0.198,0.136,0.253,0.226
				c0.05,0.093,0.206,0.117,0.264,0.206c0.055,0.089,0.164,0.136,0.226,0.222c0.063,0.085-0.054,0.295,0.012,0.381
				c0.066,0.085,0.21,0.101,0.28,0.179c0.066,0.074,0.042,0.245,0.116,0.319c0.074,0.078,0.229,0.07,0.308,0.14
				C4.55,16.02,4.546,16.18,4.628,16.25c0.078,0.066,0.218,0.066,0.299,0.132c0.082,0.07,0.276-0.016,0.362,0.046
				c0.082,0.066-0.039,0.397,0.047,0.463c0.085,0.062,0.307-0.066,0.389-0.008c0.085,0.063,0.218,0.051,0.307,0.113
				c0.089,0.055,0.02,0.35,0.109,0.404c0.089,0.063,0.288-0.062,0.377-0.008c0.089,0.051,0.194,0.078,0.284,0.132
				C6.891,17.58,7,17.595,7.094,17.646c0.093,0.055,0.023,0.385,0.116,0.439c0.094,0.055,0.261-0.031,0.354,0.02
				c0.093,0.05,0.229,0.027,0.323,0.078C7.98,18.233,8,18.412,8.093,18.458c0.093,0.054,0.261-0.039,0.354,0.016
				c0.093,0.054,0.218,0.046,0.311,0.097c0.093,0.05,0.039,0.357,0.132,0.408c0.093,0.05,0.179,0.109,0.269,0.163
				c0.093,0.055,0.268-0.046,0.361,0.008c0.093,0.055,0.156,0.156,0.249,0.21c0.093,0.051,0.187,0.094,0.272,0.148
				c0.094,0.055,0.241,0.008,0.331,0.062c0.09,0.051,0.066,0.308,0.16,0.358c0.093,0.055,0.156,0.152,0.249,0.202
				c0.093,0.055,0.327-0.144,0.412-0.093c0.093,0.055,0.218,0.051,0.307,0.105c0.093,0.051,0.093,0.261,0.187,0.311
				c0.093,0.051,0.152,0.16,0.245,0.214c0.093,0.051,0.202,0.059,0.295,0.109c0.093,0.055,0.144,0.179,0.233,0.233
				c0.089,0.055,0.233,0.012,0.327,0.063c0.093,0.054,0.14,0.179,0.233,0.233c0.089,0.055,0.156,0.16,0.241,0.21
				c0.093,0.054,0.249-0.008,0.342,0.046c0.089,0.055,0.256-0.023,0.35,0.031c0.09,0.054,0.164,0.14,0.249,0.194
				c0.093,0.055,0.051,0.334,0.144,0.389c0.089,0.051,0.179,0.109,0.272,0.16c0.09,0.051,0.346-0.175,0.439-0.121
				c0.086,0.051,0.078,0.288,0.164,0.342c0.093,0.051,0.229,0.023,0.323,0.082c0.089,0.055,0.222,0.035,0.315,0.089
				c0.089,0.055,0.194,0.082,0.288,0.14c0.089,0.051,0.055,0.319,0.14,0.374c0.093,0.054,0.136,0.187,0.226,0.245
				c0.089,0.055,0.198,0.078,0.284,0.128c0.09,0.055,0.362-0.187,0.451-0.136c0.089,0.051,0,0.401,0.089,0.455
				c0.09,0.055,0.327-0.132,0.413-0.082c0.089,0.051,0.124,0.198,0.21,0.253c0.093,0.054,0.226,0.035,0.311,0.093
				c0.085,0.054,0.078,0.264,0.171,0.319c0.085,0.058,0.128,0.183,0.218,0.241c0.089,0.054,0.319-0.125,0.408-0.07
				c0.09,0.055,0.113,0.218,0.199,0.272c0.093,0.054,0.28-0.055,0.365,0.004c0.089,0.058,0.047,0.315,0.132,0.373
				c0.093,0.059,0.132,0.187,0.218,0.245c0.089,0.055,0.342-0.151,0.428-0.093c0.085,0.055,0.187,0.093,0.272,0.148
				c0.085,0.054,0.124,0.187,0.218,0.241c0.085,0.055,0.206,0.063,0.288,0.121c0.085,0.059,0.171,0.128,0.257,0.183
				c0.085,0.054,0.14,0.163,0.229,0.218c0.089,0.054,0.175,0.117,0.26,0.171c0.085,0.055,0.218,0.039,0.307,0.097
				c0.089,0.059,0.16,0.136,0.245,0.19c0.085,0.055,0.179,0.109,0.265,0.164c0.089,0.062,0.008,0.381,0.093,0.436
				c0.089,0.058,0.295-0.078,0.381-0.02c0.089,0.059,0.226,0.035,0.311,0.093c0.094,0.059,0.016,0.366,0.101,0.424
				c0.094,0.054,0.315-0.102,0.401-0.047c0.089,0.055,0.101,0.226,0.19,0.284c0.089,0.058,0.269-0.031,0.358,0.026
				c0.085,0.055,0.078,0.257,0.171,0.312c0.085,0.063,0.229,0.027,0.319,0.086c0.089,0.054,0.206,0.058,0.296,0.116
				c0.089,0.055,0.167,0.125,0.256,0.179c0.085,0.055,0.07,0.272,0.156,0.331c0.093,0.058,0.229,0.035,0.315,0.089
				c0.089,0.059,0.109,0.218,0.198,0.272s0.194,0.086,0.28,0.14c0.09,0.055,0.164,0.133,0.249,0.188
				c0.093,0.058,0.354-0.168,0.443-0.109c0.089,0.055,0.004,0.381,0.093,0.436s0.179,0.109,0.265,0.167
				c0.089,0.059,0.198,0.074,0.288,0.133c0.089,0.058,0.269-0.031,0.357,0.027c0.09,0.054,0.055,0.303,0.141,0.357
				c0.093,0.059,0.217,0.047,0.311,0.101c0.085,0.059,0.155,0.145,0.245,0.203c0.089,0.054,0.241,0.015,0.33,0.069
				c0.086,0.059,0.07,0.284,0.155,0.343c0.094,0.054,0.296-0.07,0.382-0.016c0.093,0.062,0.271-0.023,0.357,0.031
				c0.09,0.054,0.14,0.175,0.226,0.233c0.094,0.054,0.124,0.194,0.214,0.252c0.09,0.059,0.229,0.035,0.315,0.094
				c0.089,0.059,0.171,0.12,0.26,0.179c0.09,0.059,0.066,0.288,0.152,0.347c0.093,0.054,0.218,0.05,0.307,0.108
				c0.09,0.055,0.3-0.078,0.39-0.023c0.089,0.059,0.093,0.249,0.183,0.304c0.089,0.054,0.163,0.132,0.249,0.19
				c0.093,0.059,0.163,0.132,0.252,0.19c0.09,0.055,0.18,0.108,0.269,0.163c0.09,0.055,0.125,0.187,0.218,0.245
				c0.086,0.059,0.272-0.039,0.361,0.012c0.09,0.059,0.229,0.039,0.315,0.094c0.086,0.058,0.163,0.132,0.253,0.187
				c0.089,0.058,0.151,0.155,0.241,0.21c0.089,0.059,0.073,0.28,0.167,0.334c0.086,0.055,0.155,0.148,0.245,0.198
				c0.089,0.059,0.288-0.065,0.381-0.016c0.094,0.051,0.222,0.043,0.315,0.094c0.085,0.051,0.046,0.322,0.136,0.381
				c0.09,0.051,0.253-0.016,0.346,0.043c0.086,0.051,0.145,0.163,0.233,0.218c0.09,0.055,0.226,0.027,0.319,0.078
				c0.086,0.054,0.055,0.314,0.147,0.365c0.09,0.055,0.343-0.171,0.436-0.116c0.086,0.054,0.198,0.073,0.292,0.124
				c0.089,0.055,0.175,0.108,0.269,0.159c0.093,0.055,0.046,0.339,0.14,0.393c0.09,0.051,0.276-0.069,0.369-0.016
				c0.094,0.055,0.121,0.211,0.214,0.261c0.094,0.051,0.152,0.16,0.241,0.214c0.094,0.051,0.171,0.125,0.265,0.172
				c0.094,0.046,0.226,0.022,0.319,0.069c0.093,0.047,0.218,0.039,0.311,0.086c0.094,0.047,0.125,0.206,0.218,0.257
				c0.094,0.046,0.249-0.039,0.343,0.008c0.093,0.05,0.108,0.256,0.202,0.303c0.093,0.043,0.314-0.171,0.412-0.124
				c0.093,0.043,0.14,0.187,0.229,0.233c0.093,0.046,0.136,0.19,0.229,0.241c0.093,0.046,0.171,0.128,0.264,0.171
				c0.094,0.047,0.272-0.086,0.374-0.039c0.093,0.047,0.222,0.016,0.314,0.063c0.094,0.043,0.19,0.077,0.288,0.128
				c0.093,0.043,0.027,0.424,0.12,0.471c0.094,0.047,0.176,0.112,0.272,0.163c0.094,0.043,0.233-0.008,0.327,0.039
				c0.093,0.047,0.202,0.063,0.295,0.105c0.094,0.042,0.156,0.163,0.249,0.214c0.094,0.042,0.167,0.128,0.261,0.175
				c0.093,0.047,0.354-0.245,0.447-0.198c0.093,0.046,0.108,0.249,0.202,0.291c0.078,0.043,0.155,0.105,0.226,0.168
				c0.07,0.062,0,0.26,0.063,0.326c0.062,0.066,0.342-0.063,0.412,0.008c0.062,0.07,0.081,0.179,0.144,0.249
				c0.059,0.074,0.094,0.171,0.159,0.241c0.063,0.069-0.023,0.272,0.039,0.342c0.063,0.066,0.187,0.086,0.249,0.155
				c0.07,0.078,0.308,0,0.373,0.078c0.07,0.078,0.148,0.147,0.218,0.218c0.07,0.078,0.141,0.151,0.21,0.226
				c0.07,0.078,0.074,0.21,0.141,0.288c0.069,0.077,0.085,0.206,0.151,0.279c0.07,0.078,0.222,0.078,0.288,0.152
				c0.069,0.077,0,0.279,0.069,0.357c0.066,0.078,0.261,0.043,0.331,0.121c0.065,0.077,0.101,0.183,0.171,0.26
				c0.07,0.078,0.059,0.222,0.124,0.3c0.07,0.078,0.296,0.023,0.358,0.102c0.065,0.081,0.187,0.116,0.249,0.202
				c0.065,0.077-0.055,0.303,0.004,0.389c0.062,0.077,0.042,0.222,0.101,0.303c0.066,0.094,0.249,0.094,0.315,0.172
				c0.069,0.085,0.279,0.03,0.35,0.101c0.082,0.078,0.023,0.292,0.102,0.351c0.093,0.065,0.175,0.155,0.268,0.194
				c0.102,0.038,0.222,0.085,0.331,0.085c0.101,0,0.218-0.047,0.326-0.085c0.094-0.031,0.125-0.194,0.226-0.257
				c0.086-0.055,0.102-0.183,0.187-0.253c0.078-0.066,0.312,0.043,0.39-0.035c0.069-0.07,0.132-0.147,0.206-0.21
				c0.065-0.07,0.016-0.265,0.089-0.33c0.07-0.066,0.323,0.05,0.394-0.016c0.065-0.07,0.042-0.229,0.108-0.3
				c0.066-0.074,0.183-0.101,0.245-0.179c0.07-0.07,0.086-0.179,0.147-0.257c0.066-0.086,0.066-0.206,0.117-0.288
				c0.054-0.093,0.311-0.089,0.346-0.179c0.043-0.101-0.237-0.291-0.222-0.385c0.02-0.105,0.249-0.19,0.241-0.288
				c-0.012-0.101-0.226-0.136-0.272-0.229c-0.043-0.085-0.054-0.171-0.124-0.248c-0.063-0.07,0.016-0.343-0.07-0.405
				c-0.077-0.05-0.326,0.156-0.424,0.109c-0.085-0.043-0.151-0.125-0.253-0.163c-0.097-0.039-0.19-0.066-0.287-0.098
				c-0.098-0.035-0.164-0.167-0.257-0.194c-0.102-0.027-0.202-0.043-0.304-0.07c-0.097-0.027-0.218,0.012-0.314-0.016
				c-0.098-0.026-0.145-0.229-0.237-0.26c-0.102-0.031-0.172-0.125-0.272-0.156c-0.094-0.035-0.229,0.051-0.327,0.016
				c-0.097-0.039-0.206-0.031-0.299-0.073c-0.094-0.043-0.187-0.086-0.276-0.137c-0.093-0.051-0.101-0.253-0.194-0.307
				c-0.094-0.051-0.253,0.012-0.346-0.051c-0.094-0.055-0.222-0.047-0.315-0.109c-0.09-0.054-0.14-0.179-0.226-0.241
				c-0.093-0.062-0.187-0.108-0.28-0.171c-0.085-0.062-0.295,0.055-0.381-0.012c-0.086-0.065-0.035-0.33-0.124-0.393
				c-0.09-0.063-0.233-0.047-0.319-0.108c-0.089-0.063-0.144-0.176-0.233-0.237c-0.085-0.059-0.14-0.176-0.229-0.237
				c-0.089-0.063-0.198-0.102-0.283-0.159c-0.09-0.059-0.241-0.027-0.335-0.082c-0.085-0.055-0.21-0.063-0.296-0.117
				c-0.089-0.058-0.054-0.303-0.147-0.357c-0.085-0.055-0.261,0.023-0.346-0.039c-0.09-0.059-0.098-0.237-0.183-0.295
				c-0.09-0.055-0.28,0.042-0.366-0.016c-0.085-0.063-0.233-0.031-0.326-0.086c-0.086-0.063-0.074-0.265-0.159-0.322
				c-0.086-0.059-0.102-0.222-0.188-0.28c-0.085-0.059-0.179-0.113-0.264-0.175c-0.086-0.063-0.168-0.129-0.253-0.19
				c-0.086-0.059-0.272,0.026-0.358-0.035c-0.085-0.063-0.202-0.082-0.287-0.141c-0.078-0.062-0.094-0.226-0.179-0.287
				c-0.086-0.063-0.078-0.241-0.164-0.308c-0.085-0.066-0.334,0.094-0.412,0.027c-0.085-0.063-0.023-0.315-0.108-0.381
				c-0.086-0.063-0.18-0.113-0.257-0.18c-0.082-0.062-0.319,0.066-0.396,0c-0.086-0.062-0.164-0.128-0.249-0.194
				c-0.082-0.062-0.094-0.222-0.175-0.279c-0.082-0.063-0.121-0.187-0.202-0.257c-0.082-0.063-0.105-0.202-0.191-0.265
				c-0.085-0.066-0.377,0.14-0.462,0.078c-0.082-0.066,0.008-0.351-0.074-0.416c-0.078-0.066-0.249-0.02-0.335-0.082
				c-0.077-0.07-0.116-0.194-0.194-0.257c-0.085-0.066-0.116-0.187-0.202-0.257c-0.077-0.065-0.233-0.038-0.318-0.104
				c-0.082-0.066-0.179-0.113-0.265-0.175c-0.086-0.063-0.043-0.28-0.124-0.343c-0.082-0.069-0.195-0.093-0.276-0.163
				c-0.082-0.063-0.253-0.008-0.339-0.074c-0.085-0.065-0.085-0.237-0.163-0.299c-0.082-0.066-0.155-0.145-0.237-0.21
				c-0.081-0.07-0.097-0.218-0.175-0.28c-0.086-0.066-0.389,0.144-0.467,0.078c-0.085-0.063,0.031-0.374-0.051-0.443
				c-0.081-0.063-0.252-0.023-0.33-0.086c-0.086-0.066-0.265-0.016-0.351-0.078c-0.077-0.065-0.054-0.268-0.136-0.334
				c-0.082-0.063-0.066-0.257-0.144-0.319c-0.082-0.065-0.312,0.055-0.396-0.012c-0.086-0.065-0.102-0.214-0.18-0.279
				c-0.085-0.066-0.248-0.027-0.33-0.094s-0.082-0.237-0.159-0.299c-0.086-0.066-0.257-0.023-0.335-0.094
				c-0.081-0.063-0.008-0.319-0.089-0.389c-0.082-0.063-0.28,0.016-0.366-0.051c-0.085-0.066-0.027-0.3-0.108-0.365
				c-0.082-0.066-0.249-0.027-0.331-0.098c-0.077-0.063-0.085-0.226-0.171-0.292c-0.078-0.065-0.318,0.059-0.4-0.008
				c-0.082-0.065-0.151-0.151-0.229-0.222c-0.082-0.065-0.159-0.136-0.245-0.202c-0.081-0.062-0.206-0.077-0.288-0.144
				c-0.081-0.066-0.183-0.108-0.26-0.179c-0.086-0.066-0.039-0.288-0.121-0.358c-0.081-0.066-0.222-0.058-0.303-0.128
				c-0.082-0.066-0.035-0.288-0.121-0.357c-0.077-0.07-0.28,0.011-0.357-0.055c-0.082-0.066-0.094-0.218-0.179-0.288
				c-0.082-0.063-0.198-0.085-0.284-0.152c-0.082-0.066-0.136-0.167-0.222-0.237c-0.078-0.062-0.272,0.008-0.357-0.062
				c-0.086-0.066-0.102-0.21-0.184-0.272c-0.081-0.066-0.069-0.249-0.151-0.319c-0.078-0.07-0.35,0.101-0.436,0.039
				c-0.078-0.066-0.085-0.233-0.163-0.295c-0.082-0.066-0.031-0.296-0.117-0.362c-0.077-0.066-0.346,0.093-0.427,0.027
				c-0.082-0.063,0-0.334-0.086-0.397c-0.078-0.066-0.315,0.055-0.396-0.011c-0.082-0.066,0.012-0.35-0.074-0.417
				c-0.082-0.062-0.299,0.039-0.381-0.027c-0.082-0.066-0.136-0.16-0.218-0.229c-0.082-0.07-0.136-0.164-0.222-0.229
				c-0.085-0.066-0.272-0.004-0.35-0.066c-0.082-0.066-0.101-0.21-0.179-0.272c-0.082-0.066-0.14-0.16-0.218-0.218
				c-0.085-0.07-0.163-0.128-0.245-0.194c-0.082-0.063-0.203-0.078-0.284-0.136c-0.082-0.062-0.268,0.012-0.35-0.055
				c-0.078-0.066-0.163-0.128-0.241-0.19c-0.082-0.062-0.094-0.218-0.175-0.28c-0.082-0.063-0.175-0.109-0.26-0.171
				c-0.086-0.058-0.171-0.113-0.257-0.171c-0.078-0.063-0.113-0.194-0.194-0.257c-0.078-0.062-0.063-0.256-0.148-0.319
				c-0.082-0.058-0.264,0.008-0.346-0.05c-0.082-0.059-0.085-0.229-0.167-0.292c-0.078-0.062-0.35,0.125-0.428,0.063
				c-0.082-0.059-0.039-0.296-0.125-0.354c-0.078-0.062-0.237-0.02-0.323-0.082c-0.085-0.063-0.214-0.055-0.295-0.117
				c-0.082-0.063,0.042-0.404-0.035-0.475c-0.085-0.058-0.222-0.046-0.303-0.109c-0.078-0.062-0.199-0.078-0.28-0.14
				c-0.078-0.063-0.249-0.012-0.327-0.078c-0.085-0.062,0-0.342-0.082-0.404c-0.082-0.066-0.303,0.047-0.385-0.023
				c-0.082-0.062-0.175-0.117-0.257-0.187c-0.078-0.063-0.004-0.323-0.085-0.389c-0.078-0.062-0.257-0.015-0.334-0.085
				c-0.082-0.066-0.082-0.229-0.164-0.295c-0.082-0.062-0.35,0.093-0.428,0.027c-0.085-0.066-0.078-0.245-0.155-0.307
				c-0.082-0.066-0.269,0-0.354-0.063c-0.082-0.066-0.167-0.125-0.253-0.187c-0.085-0.066-0.171-0.117-0.256-0.179
				c-0.082-0.062,0-0.35-0.086-0.412c-0.085-0.062-0.21-0.078-0.295-0.14c-0.085-0.063-0.218-0.063-0.303-0.125
				c-0.085-0.063-0.063-0.28-0.148-0.342c-0.085-0.063-0.334,0.109-0.42,0.046c-0.093-0.062-0.163-0.14-0.257-0.202
				c-0.085-0.058-0.151-0.151-0.237-0.21c-0.09-0.062-0.082-0.264-0.167-0.323c-0.093-0.062-0.132-0.19-0.218-0.245
				c-0.085-0.062-0.342,0.117-0.428,0.059c-0.093-0.059-0.229-0.043-0.319-0.105c-0.089-0.063-0.016-0.354-0.105-0.412
				c-0.089-0.063-0.152-0.16-0.237-0.222c-0.085-0.059-0.237-0.027-0.323-0.09c-0.089-0.062-0.159-0.14-0.253-0.198
				c-0.085-0.058-0.311,0.082-0.4,0.02c-0.089-0.062,0.035-0.428-0.05-0.49c-0.094-0.063-0.389,0.194-0.482,0.132
				c-0.085-0.058-0.016-0.35-0.101-0.412c-0.093-0.062-0.164-0.14-0.257-0.198c-0.085-0.058-0.132-0.179-0.218-0.237
				c-0.093-0.058-0.357,0.148-0.451,0.085c-0.085-0.058-0.116-0.194-0.21-0.256c-0.085-0.059-0.179-0.109-0.272-0.167
				c-0.085-0.062-0.222-0.05-0.307-0.113c-0.082-0.062-0.082-0.256-0.167-0.319c-0.093-0.062-0.101-0.226-0.187-0.288
				c-0.093-0.062-0.358,0.14-0.443,0.078c-0.085-0.062-0.089-0.241-0.179-0.303c-0.085-0.062-0.218-0.058-0.303-0.117
				c-0.086-0.062-0.109-0.222-0.195-0.28c-0.085-0.059-0.179-0.109-0.264-0.167c-0.085-0.062-0.241-0.02-0.327-0.074
				c-0.093-0.055-0.047-0.319-0.136-0.374C9.894,11.264,9.8,11.209,9.71,11.155c-0.089-0.051-0.26,0.031-0.354-0.02
				s-0.148-0.167-0.241-0.218c-0.093-0.043-0.202-0.066-0.295-0.105c-0.101-0.039-0.187-0.101-0.288-0.132
				c-0.093-0.039-0.245,0.093-0.346,0.063c-0.105-0.031-0.198-0.02-0.299-0.047c-0.101-0.023-0.155-0.28-0.256-0.295
				c-0.101-0.02-0.218,0.066-0.327,0.058c-0.101-0.008-0.203-0.07-0.312-0.074c-0.07,0-0.249,0.163-0.319,0.125
				c-0.07-0.039,0.039-0.397-0.023-0.432c-0.086-0.051-0.245,0.02-0.331-0.027C6.234,10,6.191,9.88,6.106,9.825
				C6.02,9.771,5.931,9.728,5.845,9.681C5.76,9.627,5.709,9.522,5.624,9.467c-0.085-0.05-0.202-0.05-0.288-0.101
				C5.277,9.304,5.134,9.366,5.048,9.32z"/>
		</g>
		<g>
			<path d="M13.533,45.377c-0.109-0.012-0.214,0.054-0.319,0.046s-0.21-0.03-0.311-0.038c-0.109-0.016-0.202-0.07-0.311-0.086
				c-0.101-0.008-0.229,0.14-0.331,0.128c-0.105-0.012-0.19-0.155-0.295-0.171s-0.206-0.059-0.307-0.074
				c-0.101-0.015-0.237,0.141-0.338,0.125c-0.105-0.023-0.16-0.265-0.265-0.288c-0.101-0.016-0.198-0.059-0.299-0.085
				c-0.101-0.023-0.233,0.077-0.334,0.046c-0.101-0.026-0.214-0.034-0.311-0.062c-0.101-0.031-0.156-0.194-0.257-0.226
				s-0.264,0.124-0.365,0.089c-0.094-0.035-0.074-0.377-0.171-0.416c-0.101-0.043-0.226,0.016-0.319-0.031
				c-0.093-0.038-0.288,0.117-0.381,0.07c-0.094-0.047-0.207-0.063-0.296-0.112c-0.093-0.051-0.117-0.229-0.206-0.276
				c-0.089-0.055-0.089-0.253-0.179-0.312c-0.089-0.054-0.19-0.073-0.276-0.136c-0.085-0.059-0.214-0.051-0.299-0.113
				c-0.085-0.062-0.179-0.104-0.261-0.171c-0.085-0.063-0.272-0.004-0.35-0.069c-0.086-0.07-0.109-0.207-0.179-0.28
				c-0.078-0.07,0.043-0.335-0.031-0.408c-0.07-0.074-0.417,0.093-0.486,0.012c-0.066-0.078,0.043-0.308-0.02-0.39
				c-0.062-0.085-0.218-0.104-0.272-0.19c-0.063-0.089-0.198-0.128-0.257-0.218c-0.05-0.089-0.136-0.175-0.187-0.264
				c-0.047-0.094,0.241-0.354,0.194-0.451c-0.043-0.094-0.288-0.098-0.331-0.195c-0.043-0.097,0.035-0.236,0-0.338
				c-0.035-0.094-0.128-0.171-0.163-0.272c-0.031-0.101-0.226-0.155-0.253-0.257c-0.031-0.101,0.085-0.24,0.062-0.346
				c-0.023-0.101-0.097-0.194-0.117-0.296c-0.023-0.101-0.078-0.198-0.097-0.303c-0.019-0.102,0-0.214-0.019-0.315
				c-0.016-0.108,0.214-0.241,0.202-0.346c-0.016-0.105-0.179-0.194-0.183-0.308c-0.008-0.101,0.121-0.21,0.117-0.318
				c0-0.109-0.031-0.206-0.031-0.315c0.003-0.104,0.058-0.202,0.066-0.314c0.008-0.102-0.055-0.21-0.043-0.319
				c0.012-0.104,0.027-0.206,0.051-0.311c0.02-0.105,0.07-0.199,0.093-0.304c0.027-0.109-0.035-0.229-0.008-0.331
				c0.031-0.101-0.101-0.26-0.062-0.361c0.035-0.101,0.226-0.144,0.272-0.241c0.039-0.101,0.043-0.218,0.093-0.311
				c0.043-0.102,0.093-0.194,0.14-0.288c0.054-0.094,0.14-0.171,0.202-0.257c0.055-0.093,0.051-0.226,0.109-0.311
				c0.063-0.094,0.288-0.055,0.358-0.141c0.062-0.085,0.125-0.163,0.194-0.249c0.066-0.077-0.078-0.334-0.008-0.412
				c0.07-0.077,0.14-0.155,0.21-0.233c0.066-0.077,0.35,0.031,0.42-0.046c0.07-0.078-0.117-0.382-0.046-0.459
				c0.066-0.078,0.249-0.055,0.323-0.133c0.066-0.077,0.042-0.249,0.113-0.322c0.074-0.074,0.385,0.081,0.459,0.012
				c0.074-0.078,0.124-0.172,0.194-0.245c0.074-0.074,0.046-0.253,0.125-0.323c0.078-0.069,0.288,0.008,0.361-0.062
				c0.078-0.066-0.082-0.424,0-0.49c0.082-0.063,0.198-0.094,0.28-0.155c0.085-0.063,0.175-0.125,0.26-0.188
				c0.086-0.058,0.218-0.058,0.307-0.108c0.09-0.055,0.229-0.016,0.323-0.066c0.093-0.051,0.21-0.035,0.307-0.077
				c0.093-0.043,0.159-0.152,0.252-0.191c0.101-0.034,0.136-0.256,0.237-0.287c0.097-0.031,0.229,0.031,0.331,0.004
				s0.21-0.043,0.311-0.066c0.101-0.02,0.226,0.102,0.334,0.086c0.101-0.02,0.179-0.257,0.28-0.265
				c0.101-0.016,0.218-0.023,0.319-0.027c0.105-0.008,0.214,0.004,0.319,0c0.109,0,0.21,0.078,0.319,0.082
				c0.101,0.004,0.194,0.218,0.295,0.226c0.109,0.008,0.218-0.137,0.323-0.125c0.101,0.016,0.214-0.02,0.315-0.008
				s0.179,0.21,0.28,0.226s0.229-0.101,0.334-0.077c0.101,0.019,0.194,0.116,0.295,0.132s0.218-0.055,0.327-0.039
				c0.101,0.012,0.202,0.055,0.307,0.07c0.105,0.008,0.229-0.187,0.331-0.179c0.109,0.008,0.167,0.381,0.269,0.396
				c0.105,0.012,0.206,0.012,0.307,0.031s0.264-0.249,0.365-0.226c0.101,0.027,0.183,0.151,0.28,0.187
				c0.101,0.035,0.167,0.14,0.26,0.187c0.09,0.051,0.3-0.066,0.385-0.008c0.085,0.063,0.125,0.202,0.202,0.272
				c0.082,0.062,0.058,0.268,0.14,0.334c0.078,0.063,0.295-0.047,0.381,0.016s-0.008,0.396,0.085,0.451
				c0.086,0.055,0.315-0.147,0.413-0.116c0.097,0.042,0.109,0.271,0.198,0.314c0.093,0.051,0.342-0.171,0.432-0.112
				c0.085,0.054,0.179,0.14,0.256,0.202c0.086,0.062-0.023,0.357,0.051,0.428c0.078,0.069,0.358-0.059,0.424,0.016
				c0.07,0.077-0.066,0.338,0,0.42c0.063,0.081,0.187,0.116,0.245,0.202c0.058,0.085,0.163,0.144,0.222,0.233
				c0.054,0.085,0.179,0.136,0.229,0.226c0.05,0.089,0.066,0.202,0.113,0.295c0.046,0.094-0.004,0.241,0.046,0.331
				c0.047,0.093,0.272,0.097,0.319,0.19c0.047,0.094,0.02,0.222,0.063,0.312c0.05,0.093-0.016,0.24,0.023,0.334
				c0.039,0.102,0.011,0.218,0.046,0.315c0.039,0.097,0.156,0.167,0.187,0.268c0.023,0.102,0,0.21,0.023,0.312
				c0.02,0.101,0.171,0.179,0.187,0.284c0.016,0.101,0.039,0.214,0.047,0.314c0.008,0.102-0.109,0.218-0.105,0.319
				c0.004,0.104,0.183,0.206,0.183,0.311c0,0.109-0.28,0.202-0.284,0.304c-0.004,0.108,0.202,0.226,0.194,0.33
				c-0.012,0.105-0.229,0.183-0.245,0.284c-0.015,0.102,0.249,0.249,0.229,0.35c-0.02,0.102-0.175,0.188-0.198,0.288
				c-0.016,0.102,0.07,0.229,0.047,0.331c-0.023,0.101-0.093,0.194-0.121,0.299c-0.027,0.102-0.167,0.163-0.198,0.265
				c-0.031,0.102-0.16,0.175-0.195,0.28c-0.039,0.101,0.078,0.26,0.043,0.361s-0.082,0.202-0.117,0.304
				c-0.043,0.101,0.074,0.268,0.031,0.369c-0.039,0.101-0.397,0.07-0.439,0.171c-0.047,0.102-0.132,0.175-0.179,0.276
				c-0.046,0.097-0.101,0.19-0.147,0.288c-0.047,0.097,0.004,0.244-0.047,0.338c-0.054,0.102,0.035,0.272-0.016,0.365
				c-0.054,0.094-0.245,0.109-0.303,0.202c-0.054,0.094-0.031,0.237-0.093,0.331c-0.062,0.093-0.054,0.229-0.117,0.314
				c-0.054,0.082-0.299-0.008-0.373,0.063c-0.07,0.063-0.055,0.218-0.14,0.276s-0.136,0.159-0.226,0.206
				c-0.085,0.047-0.198,0.047-0.288,0.09c-0.09,0.042-0.21,0.007-0.3,0.042c-0.093,0.039-0.113,0.253-0.206,0.288
				c-0.093,0.039-0.272-0.151-0.361-0.116c-0.094,0.03-0.195,0.054-0.284,0.085c-0.097,0.039-0.125,0.257-0.218,0.288
				c-0.101,0.039-0.187,0.089-0.288,0.124c-0.093,0.035-0.194,0.07-0.288,0.102c-0.101,0.035-0.252-0.094-0.35-0.063
				s-0.093,0.354-0.191,0.385c-0.097,0.035-0.214,0.02-0.307,0.051c-0.101,0.031-0.171,0.132-0.272,0.163
				c-0.093,0.031-0.288-0.21-0.381-0.179c-0.101,0.035-0.117,0.315-0.21,0.347c-0.101,0.034-0.245-0.074-0.338-0.043
				c-0.105,0.035-0.187,0.101-0.28,0.132c-0.105,0.031-0.164,0.175-0.257,0.21C13.778,45.509,13.626,45.346,13.533,45.377z
				 M9.279,31.871c-0.101,0.016-0.206,0.108-0.311,0.144c-0.097,0.031-0.198,0.055-0.295,0.094c-0.093,0.042-0.21,0.046-0.303,0.101
				C8.28,32.26,8.284,32.45,8.194,32.513c-0.085,0.062-0.245,0.016-0.323,0.085c-0.085,0.063-0.179,0.113-0.256,0.187
				c-0.078,0.07-0.023,0.265-0.101,0.343c-0.07,0.078-0.304,0-0.374,0.082c-0.07,0.081-0.151,0.151-0.218,0.236
				c-0.062,0.078-0.023,0.241-0.085,0.327c-0.059,0.086-0.101,0.183-0.156,0.272c-0.058,0.089-0.226,0.104-0.284,0.198
				c-0.055,0.089,0.074,0.279,0.023,0.373c-0.051,0.094-0.389,0.043-0.432,0.136c-0.047,0.094,0,0.241-0.047,0.335
				c-0.039,0.097,0.125,0.28,0.085,0.377c-0.039,0.098-0.046,0.206-0.078,0.308c-0.039,0.101-0.202,0.151-0.233,0.253
				c-0.031,0.101-0.226,0.159-0.249,0.264c-0.031,0.102-0.015,0.218-0.039,0.323c-0.023,0.101,0.035,0.226,0.016,0.326
				c-0.016,0.105-0.016,0.214-0.023,0.315c-0.016,0.104,0.144,0.222,0.136,0.33c-0.008,0.105-0.101,0.202-0.101,0.308
				c-0.004,0.105-0.272,0.218-0.269,0.323c0.004,0.108,0.381,0.187,0.389,0.295c0.012,0.102-0.202,0.233-0.187,0.339
				c0.016,0.101,0.148,0.183,0.171,0.283c0.023,0.102,0.14,0.172,0.171,0.269c0.027,0.098,0.085,0.179,0.121,0.276
				c0.035,0.097-0.284,0.326-0.245,0.42c0.039,0.101,0.288,0.108,0.334,0.202c0.039,0.094-0.023,0.237,0.023,0.33
				c0.046,0.094,0.155,0.152,0.202,0.245c0.051,0.086,0.253,0.086,0.303,0.179c0.055,0.086-0.016,0.249,0.039,0.339
				c0.054,0.086,0.155,0.144,0.218,0.222c0.062,0.086,0.152,0.144,0.218,0.226c0.062,0.077,0.101,0.179,0.163,0.257
				c0.066,0.085-0.042,0.318,0.023,0.396c0.07,0.078,0.257,0.047,0.327,0.12c0.074,0.074,0.055,0.245,0.132,0.315
				s0.179,0.116,0.253,0.187c0.082,0.066,0.128,0.175,0.214,0.241c0.078,0.063,0.218,0.07,0.295,0.124
				c0.085,0.063,0.179,0.117,0.265,0.172c0.093,0.054,0.179,0.14,0.264,0.183c0.093,0.05,0.233,0.008,0.327,0.042
				c0.101,0.039,0.241-0.093,0.342-0.069s0.167,0.202,0.265,0.21c0.105,0.008,0.194-0.031,0.292-0.047
				c0.035-0.094,0.054-0.179,0.089-0.272c0.031-0.093,0.109-0.171,0.14-0.26c0.039-0.098,0-0.215,0.035-0.308
				c0.035-0.094,0.261-0.121,0.292-0.214c0.031-0.094,0.066-0.19,0.097-0.284c0.035-0.093-0.194-0.272-0.16-0.365
				c0.031-0.094,0.063-0.187,0.093-0.28c0.023-0.093,0.331-0.104,0.358-0.198c0.031-0.101-0.272-0.284-0.249-0.385
				c0.023-0.102,0.187-0.171,0.203-0.276c0.019-0.101-0.101-0.222-0.082-0.326c0.016-0.105,0.362-0.168,0.374-0.269
				c0.012-0.105-0.012-0.218,0-0.319c0.012-0.108-0.128-0.233-0.121-0.342c0-0.109,0.202-0.218,0.202-0.327
				c0-0.112-0.373-0.226-0.373-0.334c0-0.109,0.042-0.226,0.042-0.335c0-0.085-0.004-0.171-0.008-0.256
				c-0.004-0.094,0.066-0.18,0.059-0.269c-0.008-0.09,0.085-0.183,0.078-0.272c-0.008-0.093,0.023-0.222-0.008-0.322
				c-0.027-0.121-0.125-0.202-0.078-0.272c0.078-0.102-0.047-0.28-0.008-0.373c0.054-0.109,0.163-0.156,0.179-0.253
				c0.016-0.121,0.008-0.198-0.023-0.296c-0.035-0.104,0.016-0.272-0.062-0.35c-0.078-0.074-0.346-0.008-0.447-0.059
				c-0.027-0.124-0.074-0.304-0.093-0.408c-0.02-0.121-0.027-0.237-0.051-0.347c-0.019-0.12,0.031-0.24,0.008-0.346
				c-0.027-0.112,0.144-0.288,0.101-0.393c-0.031-0.102-0.214-0.141-0.256-0.233c-0.043-0.094-0.125-0.155-0.175-0.249
				c-0.05-0.086,0.059-0.265,0.012-0.354c-0.046-0.09-0.226-0.113-0.268-0.206c0.042-0.023,0.175-0.059,0.222-0.094
				c-0.051-0.086-0.179-0.171-0.229-0.261c-0.051-0.089-0.066-0.194-0.117-0.287c-0.051-0.09-0.284-0.078-0.334-0.172
				c-0.051-0.089,0.222-0.354,0.171-0.439c-0.05-0.093-0.109-0.171-0.159-0.264C9.512,31.999,9.33,31.964,9.279,31.871z
				 M18.122,42.156c0.101,0.031,0.218,0,0.327,0.031c0.07-0.062,0.125-0.101,0.194-0.163c0.07-0.063,0.171-0.086,0.237-0.151
				c0.07-0.066,0-0.237,0.055-0.308c0.058-0.086,0.226-0.093,0.284-0.179c0.062-0.09,0.136-0.155,0.194-0.249
				c0.055-0.086-0.046-0.265,0.008-0.357c0.055-0.094,0.299-0.07,0.35-0.16c0.047-0.093,0.113-0.183,0.156-0.275
				c0.046-0.094-0.023-0.241,0.015-0.343c0.043-0.093,0.063-0.198,0.101-0.295c0.035-0.098,0.203-0.148,0.233-0.249
				c0.031-0.102-0.132-0.261-0.101-0.358c0.027-0.101,0.374-0.124,0.397-0.226c0.023-0.101-0.047-0.229-0.031-0.33
				c0.02-0.105-0.183-0.245-0.171-0.346c0.016-0.105-0.003-0.206,0.004-0.308c0.008-0.105,0.16-0.194,0.164-0.3
				c0.004-0.108,0.175-0.21,0.175-0.311c0-0.109-0.039-0.218-0.042-0.323c-0.004-0.104-0.093-0.206-0.105-0.314
				c-0.012-0.102-0.047-0.202-0.063-0.304c-0.016-0.108-0.202-0.179-0.222-0.28c-0.02-0.101,0.043-0.218,0.016-0.318
				c-0.027-0.102,0.206-0.28,0.171-0.381c-0.035-0.102-0.417-0.078-0.455-0.18c-0.035-0.101,0.14-0.275,0.093-0.373
				c-0.039-0.097-0.187-0.147-0.233-0.241c-0.047-0.093-0.179-0.136-0.233-0.226c-0.054-0.085-0.128-0.155-0.179-0.249
				c-0.063-0.085,0.194-0.381,0.136-0.466c-0.063-0.086-0.308-0.039-0.374-0.125c-0.066-0.077-0.035-0.241-0.105-0.318
				c-0.07-0.082-0.187-0.113-0.261-0.19c-0.074-0.078-0.268-0.027-0.338-0.098c-0.078-0.074-0.051-0.253-0.128-0.319
				c-0.078-0.069-0.191-0.093-0.272-0.163c-0.082-0.066-0.187-0.097-0.272-0.159c-0.082-0.059-0.152-0.144-0.237-0.202
				c-0.082-0.059-0.047-0.315-0.132-0.373c-0.093-0.051-0.264,0.026-0.358-0.02c-0.093-0.051-0.128-0.218-0.226-0.261
				c-0.093-0.043-0.206-0.059-0.303-0.105c-0.093-0.038-0.179-0.132-0.276-0.171s-0.229-0.004-0.323-0.039
				c-0.101-0.039-0.202-0.069-0.303-0.101c-0.105-0.031-0.199-0.094-0.3-0.117c-0.109-0.031-0.237,0.031-0.331,0.008
				c-0.117-0.031-0.252,0.117-0.346,0.102c-0.12-0.016-0.202-0.194-0.292-0.187c-0.132,0-0.21,0.069-0.276,0.136
				c-0.066,0.059-0.093,0.144-0.113,0.269c-0.016,0.089-0.063,0.187-0.059,0.307c0,0.094,0.082,0.195,0.093,0.308
				c0.008,0.102-0.144,0.312-0.128,0.424c0.117,0.016,0.288,0.066,0.381,0.09c0.125,0.03,0.342-0.164,0.408-0.109
				c0.09,0.07,0.171,0.288,0.152,0.412c-0.016,0.082-0.319,0.07-0.389,0.179c-0.051,0.078,0.151,0.366,0.07,0.459
				c-0.078,0.094-0.245,0.078-0.288,0.172c-0.047,0.108,0.07,0.202,0.07,0.307c0,0.109-0.292,0.292-0.241,0.393
				c0.043,0.094,0.156,0.206,0.237,0.292c0.07,0.078,0.261,0.051,0.358,0.12c0.093,0.063,0.074,0.288,0.175,0.362
				c0.085,0.062,0.475-0.051,0.583,0.027c-0.09,0.077-0.249,0.271-0.319,0.35c-0.078,0.086-0.125,0.155-0.179,0.241
				c-0.062,0.097-0.163,0.14-0.194,0.241c-0.031,0.101-0.14,0.194-0.136,0.303c0.004,0.102-0.035,0.241,0.008,0.347
				c0.035,0.097,0.16,0.171,0.222,0.269c0.059,0.085,0.272,0.046,0.346,0.132c0.051,0.055,0.035,0.218,0.066,0.296
				c0.031,0.077,0.047,0.194,0.039,0.271c-0.016,0.109-0.156,0.214-0.156,0.315c0,0.116,0.233,0.175,0.257,0.269
				c0.031,0.112,0.043,0.14,0.117,0.214c0.07,0.065,0.085,0.093,0.194,0.12c0.093,0.023,0.164,0.109,0.28,0.098
				c0.101-0.004,0.113,0.151,0.229,0.128c-0.023,0.113,0.058,0.113,0.035,0.218c-0.02,0.109,0,0.226-0.02,0.327
				c-0.019,0.108-0.222,0.179-0.245,0.287c-0.016,0.102,0.093,0.226,0.07,0.339c0.101-0.027,0.21,0.02,0.303-0.004
				c0.093-0.031,0.171-0.133,0.265-0.156c0.093-0.026,0.194-0.022,0.295-0.046c0.085-0.023,0.288-0.218,0.389-0.249
				c-0.008,0.108-0.319,0.326-0.331,0.42c-0.012,0.108-0.008,0.21-0.02,0.307c-0.012,0.102,0.272,0.237,0.264,0.339
				c-0.016,0.101-0.117,0.187-0.125,0.288c-0.015,0.101-0.078,0.222-0.093,0.322c0.125-0.016,0.229-0.237,0.334-0.253
				c0.117-0.02,0.241,0.055,0.35,0.043c0.113-0.02,0.179,0.124,0.295,0.109c0.008,0.116,0.198,0.159,0.206,0.275
				c0.008,0.117-0.315,0.249-0.307,0.366c0.008,0.116,0.296,0.214,0.303,0.326C18.223,41.908,18.118,42.04,18.122,42.156z
				 M13.778,37.525c0.008-0.098-0.05-0.19-0.031-0.284c0.016-0.102,0.043-0.194,0.059-0.288c0.016-0.104,0.078-0.198,0.082-0.283
				c0.004-0.113-0.144-0.117-0.198-0.184c-0.055-0.069-0.047-0.194-0.183-0.218c-0.105-0.022-0.218-0.058-0.331-0.058
				c-0.125,0.004-0.203,0.19-0.296,0.214c-0.085,0.023-0.256-0.145-0.35-0.086c-0.086,0.059-0.195,0.121-0.261,0.194
				c-0.085,0.086-0.035,0.233-0.035,0.315c-0.008,0.101,0.016,0.202,0.016,0.303c0,0.102-0.132,0.214-0.125,0.315
				c0,0.101,0.214,0.187,0.222,0.288c0.008,0.101-0.307,0.237-0.295,0.338c0.012,0.102,0.121,0.194,0.128,0.296
				c0.016,0.104,0.241,0.183,0.252,0.283c0.012,0.102,0.02,0.117,0.027,0.226c0.089,0.027,0.055,0.133,0.14,0.156
				s0.121,0.218,0.21,0.245c0.085,0.022,0.183,0.015,0.276,0.042c0.082,0.023,0.167-0.054,0.261-0.027
				c-0.085,0.066-0.148,0.113-0.226,0.18c-0.085,0.065-0.046,0.264-0.125,0.338c-0.082,0.078-0.21,0.086-0.28,0.159
				c-0.074,0.082-0.354,0.004-0.412,0.086c-0.066,0.09,0.187,0.381,0.136,0.471c-0.05,0.093-0.299,0.089-0.338,0.187
				c-0.042,0.101,0.031,0.233,0.008,0.334c-0.027,0.109,0.051,0.214,0.039,0.319c-0.016,0.104,0.016,0.194,0.016,0.3
				c0,0.104-0.366,0.236-0.354,0.342s0.257,0.183,0.276,0.288c0.023,0.101-0.07,0.237-0.047,0.338
				c0.031,0.102,0.128,0.187,0.164,0.288c0.031,0.101,0.233,0.136,0.272,0.237c0.039,0.097-0.054,0.253-0.016,0.357
				c-0.128,0.023-0.241,0.066-0.35,0.124c-0.078,0.043-0.132,0.121-0.206,0.164c-0.074,0.043-0.167,0.065-0.237,0.108
				c-0.074,0.051-0.361,0.035-0.436,0.082c0.074,0.055,0.312,0.14,0.377,0.202c0.07,0.063,0.066,0.233,0.136,0.288
				c0.085,0.054,0.237,0.097,0.327,0.104c0.109,0.012,0.218,0.078,0.327,0.086s0.233-0.059,0.342-0.059
				c0.109,0.008,0.226,0.008,0.334,0c0.113,0,0.233,0.023,0.342,0.016c0.109-0.016,0.21-0.117,0.319-0.14
				c0.105-0.02,0.171-0.21,0.28-0.226c0.101-0.023,0.237,0.12,0.338,0.104c0.105-0.02,0.198-0.082,0.299-0.104
				c0.109-0.023,0.21-0.051,0.311-0.074c0.101-0.027,0.214-0.008,0.315-0.035c0.101-0.031,0.183-0.132,0.284-0.159
				c0.101-0.035,0.268,0.124,0.365,0.089c0.101-0.038,0.202-0.081,0.3-0.124c0.097-0.043,0.074-0.334,0.167-0.381
				c0.093-0.051,0.179-0.094,0.265-0.152c0.093-0.058,0.342,0.121,0.428,0.059c0.085-0.066-0.109-0.28-0.031-0.35
				c-0.055-0.094,0.039-0.152-0.016-0.245c-0.058-0.094-0.233-0.117-0.288-0.21c-0.055-0.094,0.171-0.365,0.117-0.459
				c-0.055-0.094-0.14-0.167-0.199-0.261c-0.058-0.093-0.237-0.112-0.299-0.206c-0.054-0.093,0.055-0.292,0-0.385
				c-0.058-0.094-0.436,0.008-0.49-0.086c-0.059-0.093-0.078-0.21-0.136-0.299c-0.058-0.094-0.113-0.183-0.171-0.276
				c-0.059-0.094-0.051-0.226-0.105-0.319c-0.055-0.093-0.039-0.244-0.094-0.338c-0.085,0.02-0.21-0.02-0.319,0.008
				c-0.085,0.027-0.159,0.12-0.256,0.147c-0.09,0.023-0.132,0.233-0.233,0.261c-0.093,0.027-0.295-0.078-0.397-0.051
				c0.039-0.108,0.07-0.283,0.109-0.381c0.039-0.108,0.203-0.171,0.237-0.269c0.035-0.112-0.144-0.283-0.113-0.381
				c0.031-0.116,0.055-0.21,0.078-0.308c0.023-0.12,0.046-0.198,0.05-0.299c0.004-0.117,0.074-0.202,0.043-0.304
				c-0.035-0.101,0.093-0.299,0.027-0.393c-0.063-0.082-0.253-0.066-0.338-0.151c-0.078-0.066-0.187-0.102-0.28-0.175
				C13.899,37.716,13.872,37.599,13.778,37.525z M11.838,33.321c-0.059,0.094-0.043,0.21-0.085,0.304
				c-0.051,0.101-0.101,0.194-0.132,0.295c-0.031,0.109-0.105,0.202-0.117,0.308c-0.016,0.112,0.148,0.214,0.156,0.314
				c0.015,0.109-0.094,0.226-0.047,0.319c0.047,0.101,0.082,0.202,0.16,0.28c0.074,0.069,0.237-0.023,0.346,0.02
				c0.07,0.034,0.094,0.264,0.195,0.268c0.085,0.004,0.194,0.02,0.288,0.004c0.093-0.02,0.163-0.159,0.241-0.19
				c0.097-0.039,0.147-0.085,0.194-0.147c0.062-0.07,0.233-0.063,0.288-0.141c0.059-0.081-0.062-0.264-0.02-0.346
				c0.051-0.09,0.393-0.082,0.409-0.167c0.023-0.102-0.086-0.272-0.128-0.358c-0.035-0.073-0.245,0.008-0.346-0.054
				c-0.07-0.047-0.218-0.094-0.327-0.125c0.004-0.108,0.121-0.311,0.128-0.42c0.004-0.108,0.183-0.206,0.19-0.311
				c0.008-0.105-0.023-0.218-0.02-0.319c0.004-0.108-0.066-0.222-0.058-0.326c0-0.105-0.008-0.214-0.008-0.319
				c0.008-0.108-0.156-0.226-0.156-0.33c0.008-0.105,0.101-0.206,0.109-0.315c0.004-0.108,0.28-0.194,0.288-0.304
				c0.004-0.108-0.358-0.232-0.354-0.342c0.004-0.104,0.222-0.249,0.229-0.357c-0.101,0.023-0.229,0.14-0.331,0.159
				s-0.179,0.136-0.276,0.159c-0.101,0.02-0.194,0.078-0.292,0.094c-0.101,0.023-0.28-0.323-0.377-0.304
				c-0.102,0.023-0.156,0.265-0.249,0.288c-0.101,0.023-0.226-0.078-0.327-0.055c-0.101,0.02-0.187,0.109-0.284,0.129
				c-0.101,0.019-0.163,0.214-0.26,0.236c-0.097,0.02-0.233-0.108-0.327-0.081c-0.101,0.02-0.152,0.066-0.249,0.089
				c0,0.121,0.039,0.164,0.031,0.288c0.093,0.043,0.136,0.078,0.233,0.121c0.093,0.042,0.089,0.307,0.19,0.35
				c0.093,0.039,0.253-0.063,0.354-0.02c0.093,0.043,0.046,0.078,0.147,0.12c-0.097,0.094-0.113,0.113-0.163,0.188
				c-0.078,0.124-0.152,0.33-0.128,0.424c0.027,0.093,0.222,0.202,0.315,0.268c0.085,0.063,0.194,0.121,0.288,0.176
				C11.659,33.255,11.772,33.243,11.838,33.321z"/>
		</g>
		<g>
			<path d="M52.109,42.526c-0.062,0.077,0.008,0.128-0.05,0.206c-0.066,0.077-0.18,0.116-0.245,0.187
				c-0.063,0.078-0.109,0.175-0.172,0.253c-0.062,0.077-0.252,0.043-0.318,0.12c-0.063,0.078-0.063,0.21-0.124,0.288
				c-0.063,0.077-0.008,0.257-0.074,0.334c-0.066,0.078-0.354-0.046-0.424,0.031c-0.063,0.074,0,0.261-0.059,0.335
				c-0.066,0.077-0.074,0.062-0.136,0.14c-0.031-0.109-0.051-0.109-0.063-0.21c-0.012-0.117-0.016-0.218-0.008-0.319
				c0.008-0.108-0.047-0.226-0.023-0.326c0.031-0.105,0.245-0.121,0.296-0.214c0.047-0.098-0.008-0.237,0.069-0.315
				c0.066-0.085,0.195-0.069,0.288-0.136c0.086-0.059,0.066-0.3,0.171-0.346c0.094-0.039,0.194-0.164,0.296-0.188
				c0.102-0.026,0.265,0.288,0.373,0.28C52.009,42.627,52.001,42.519,52.109,42.526z"/>
		</g>
	</g>
</g>
</svg>
