<?xml version="1.0" encoding="utf-8"?>
<!-- Generator: Adobe Illustrator 16.0.0, SVG Export Plug-In . SVG Version: 6.00 Build 0)  -->
<!DOCTYPE svg PUBLIC "-//W3C//DTD SVG 1.1//EN" "http://www.w3.org/Graphics/SVG/1.1/DTD/svg11.dtd">
<svg version="1.1" id="圖層_1" xmlns="http://www.w3.org/2000/svg" xmlns:xlink="http://www.w3.org/1999/xlink" x="0px" y="0px"
	 width="55px" height="55px" viewBox="0 0 55 55" enable-background="new 0 0 55 55" xml:space="preserve">
<g>
	<path d="M38.087,9.15c0.011,0.093,0.104,0.186,0.113,0.278c0.006,0.098,0.063,0.191,0.072,0.279
		c0.011,0.103-0.093,0.206-0.082,0.299c0.01,0.093,0.113,0.186,0.118,0.279c0.006,0.093-0.072,0.196-0.062,0.289
		c0.005,0.098-0.036,0.196-0.026,0.289c0.011,0.098,0.104,0.186,0.114,0.279c0.01,0.093-0.083,0.201-0.078,0.299
		c0.006,0.093,0.135,0.181,0.145,0.279c0.006,0.093-0.159,0.207-0.149,0.299c0.005,0.093,0.083,0.186,0.093,0.278
		c0.006,0.098-0.098,0.207-0.093,0.299c0.011,0.093,0.021,0.191,0.031,0.289c0.005,0.093,0.108,0.175,0.113,0.273
		c0.011,0.098,0.098,0.186,0.104,0.284c0.005,0.093,0.113,0.186,0.123,0.278c0.011,0.093,0.016,0.196,0.021,0.289
		c0,0.093-0.269,0.201-0.269,0.299c0.005,0.093,0.201,0.18,0.201,0.278c0.005,0.093-0.005,0.186-0.005,0.279
		c0,0.103,0.103,0.196,0.103,0.289c0,0.104-0.175,0.201-0.175,0.294c0,0.098-0.135,0.191-0.135,0.294
		c0,0.098,0.237,0.196,0.237,0.289c0,0.104-0.165,0.196-0.165,0.294c0,0.098,0.273,0.196,0.273,0.294s-0.052,0.196-0.052,0.289
		c0,0.104,0.006,0.196,0.006,0.299c0,0.093-0.057,0.191-0.063,0.289c0,0.098,0.006,0.196,0.006,0.294s-0.145,0.191-0.145,0.289
		c0,0.098-0.016,0.191-0.016,0.294c0,0.093,0.057,0.191,0.057,0.289c0,0.103,0.031,0.196,0.025,0.294
		c0,0.098,0.129,0.196,0.124,0.294c0,0.093-0.093,0.191-0.093,0.289c0,0.093-0.062,0.191-0.062,0.289
		c0,0.093,0.165,0.196,0.165,0.289c0,0.103-0.3,0.191-0.305,0.289c0,0.103,0.212,0.196,0.212,0.294c0,0.098-0.264,0.191-0.264,0.289
		c0,0.098,0.346,0.196,0.346,0.294c0,0.103-0.031,0.196-0.031,0.294s-0.236,0.191-0.236,0.289c0,0.098,0.144,0.191,0.144,0.294
		c0,0.098,0.052,0.191,0.052,0.289c0,0.104-0.299,0.196-0.299,0.294c0,0.098,0.186,0.19,0.186,0.289s0.093,0.191,0.093,0.294
		c0,0.098-0.025,0.191-0.021,0.289c0,0.103,0.005,0.196,0.011,0.294c0,0.098,0.051,0.191,0.051,0.294
		c0,0.098-0.165,0.196-0.165,0.289c0,0.098,0.222,0.196,0.222,0.289c0,0.103-0.242,0.201-0.242,0.299
		c0,0.098,0.171,0.196,0.176,0.289c0,0.093-0.289,0.196-0.278,0.299c0,0.093,0.186,0.191,0.186,0.284
		c0,0.098,0.154,0.196,0.159,0.289c0.006,0.098-0.154,0.201-0.154,0.294s-0.077,0.196-0.077,0.289c0,0.098,0.278,0.196,0.278,0.289
		c0,0.103-0.341,0.207-0.341,0.299c0,0.098,0.243,0.191,0.248,0.289c0,0.098,0.005,0.196,0.005,0.289
		c0,0.104-0.175,0.201-0.17,0.299c0,0.104-0.093,0.196-0.093,0.295c0,0.093,0.186,0.19,0.186,0.288c0,0.099-0.154,0.196-0.154,0.294
		c0,0.104,0.227,0.191,0.227,0.289c0,0.104-0.072,0.196-0.067,0.294c0,0.099,0.145,0.191,0.149,0.289
		c0,0.099,0.031,0.191,0.031,0.294c0,0.093-0.01,0.191-0.01,0.289c0,0.104-0.165,0.196-0.165,0.3c0,0.098,0,0.19,0,0.288
		c0,0.104,0.015,0.196,0.015,0.294c0,0.099,0.165,0.191,0.171,0.289c0,0.099-0.176,0.201-0.176,0.294
		c0,0.104,0.062,0.196,0.062,0.294c0,0.099,0.011,0.196,0.016,0.295c0,0.098-0.17,0.195-0.17,0.299c0,0.093,0.263,0.186,0.269,0.289
		c0,0.093-0.165,0.196-0.165,0.294s0.227,0.19,0.227,0.283c0,0.104-0.206,0.201-0.196,0.3c0,0.103,0.057,0.196,0.057,0.299
		c0,0.099,0.058,0.196,0.058,0.294c0,0.099,0.015,0.201,0.015,0.294c0,0.104-0.211,0.207-0.211,0.3c0,0.103,0.118,0.201,0.124,0.299
		c0,0.099,0.036,0.196,0.036,0.3c0,0.093-0.187,0.195-0.187,0.299c0,0.098,0.361,0.19,0.361,0.289c0,0.103-0.283,0.206-0.283,0.31
		c0,0.093,0.103,0.195,0.103,0.294c0,0.098,0.016,0.196,0.021,0.294c0,0.104-0.005,0.196,0,0.299c0,0.099,0.155,0.191,0.155,0.294
		c0,0.099-0.031,0.201-0.031,0.3c0,0.098-0.17,0.201-0.17,0.304c0.005,0.094-0.026,0.196-0.026,0.295
		c0,0.098,0.094,0.195,0.094,0.294c0,0.103-0.104,0.206-0.104,0.299c0,0.104,0.124,0.201,0.124,0.299c0,0.099,0.093,0.196,0.093,0.3
		c0.005,0.093-0.093,0.196-0.093,0.299c0.01,0.093-0.026,0.196-0.026,0.3c0,0.103,0.181,0.19,0.181,0.288
		c0.005,0.104-0.217,0.207-0.211,0.3c0.005,0.103,0.036,0.201,0.036,0.299c0.005,0.099,0.046,0.196,0.051,0.3
		c0,0.093-0.154,0.195-0.154,0.299c0.005,0.098,0.31,0.19,0.31,0.289c0,0.103-0.228,0.206-0.228,0.305
		c0.011,0.098,0.176,0.195,0.176,0.294c0,0.098-0.041,0.195-0.041,0.299c0.005,0.104,0.01,0.196,0.021,0.299
		c0,0.093-0.124,0.196-0.124,0.3c0,0.098-0.041,0.195-0.041,0.299c0.005,0.099,0.242,0.196,0.247,0.289
		c0,0.104-0.268,0.206-0.268,0.31c0.01,0.093,0.268,0.19,0.268,0.289c0.006,0.103-0.154,0.201-0.154,0.299
		c0.005,0.104,0.206,0.196,0.217,0.294c0,0.099,0.041,0.201,0.046,0.294c0.006,0.104-0.216,0.207-0.216,0.31
		c0.005,0.093,0.149,0.196,0.149,0.294c0.005,0.099-0.222,0.201-0.222,0.305c0.005,0.098,0.118,0.196,0.118,0.294
		c0.005,0.099-0.134,0.206-0.124,0.305c0,0.098,0.341,0.19,0.346,0.289c0.005,0.098-0.273,0.206-0.273,0.31
		c0,0.098,0.201,0.195,0.207,0.288c0,0.104-0.187,0.207-0.187,0.31c0.011,0.093,0.201,0.191,0.207,0.289
		c0,0.099-0.135,0.206-0.135,0.305c0,0.098-0.103,0.201-0.103,0.299c0,0.099,0.03,0.201,0.03,0.305c0,0.098,0.31,0.19,0.31,0.289
		c0.006,0.098-0.299,0.206-0.294,0.304c0,0.099,0.284,0.191,0.284,0.295c0,0.107-0.124,0.211-0.124,0.299
		c-0.005,0.113-0.145,0.201-0.154,0.289c-0.011,0.113-0.036,0.181-0.063,0.268c-0.036,0.099,0.134,0.341,0.063,0.402
		c-0.067,0.063-0.217,0.13-0.325,0.16c-0.088,0.026-0.232-0.201-0.346-0.19c-0.088,0.01-0.186-0.036-0.289-0.031
		c-0.093,0-0.186,0.191-0.294,0.196c-0.093,0-0.191-0.207-0.294-0.207c-0.093,0-0.191,0.104-0.289,0.104
		c-0.093,0-0.191,0.201-0.289,0.201c-0.104,0-0.196-0.294-0.289-0.294s-0.195,0.206-0.294,0.206c-0.093,0-0.19-0.227-0.289-0.227
		c-0.093,0-0.19,0.113-0.294,0.113c-0.093,0-0.19,0.026-0.289,0.026c-0.103,0-0.195-0.058-0.288-0.058s-0.196-0.01-0.295-0.01
		c-0.093,0-0.19,0.021-0.294,0.021c-0.093,0-0.19-0.104-0.288-0.104c-0.094,0-0.191,0.264-0.289,0.264
		c-0.093,0-0.196-0.119-0.294-0.119c-0.099,0.006-0.191,0.031-0.289,0.036c-0.099,0.006-0.196-0.077-0.294-0.072
		c-0.104,0.006-0.186,0.248-0.289,0.258c-0.104,0.016-0.191,0.036-0.294,0.058c-0.104,0.015-0.242-0.145-0.341-0.124
		c-0.098,0.021-0.222-0.047-0.325-0.021c-0.103,0.03-0.206,0.03-0.31,0.051c-0.103,0.026-0.134,0.341-0.231,0.361
		c-0.088,0.021-0.201-0.088-0.284-0.093c-0.098-0.01-0.206,0.124-0.294,0.113c-0.098-0.01-0.186-0.025-0.284-0.03
		c-0.093-0.011-0.159-0.258-0.258-0.269c-0.093-0.005-0.186,0.041-0.283,0.025c-0.099-0.01-0.181-0.098-0.273-0.103
		c-0.093-0.011-0.186-0.011-0.278-0.016c-0.099-0.011-0.196,0.041-0.289,0.031c-0.093-0.011-0.176-0.083-0.269-0.093
		c-0.098-0.011-0.206,0.175-0.305,0.165c-0.093-0.016-0.18-0.072-0.273-0.083c-0.113-0.011-0.216-0.041-0.289,0
		c-0.093,0.052-0.17,0.165-0.258,0.201c-0.098,0.036-0.237-0.005-0.33,0.016c-0.103,0.021-0.227-0.052-0.32-0.041
		c-0.104,0.015-0.207,0.165-0.31,0.159c-0.103,0-0.217,0.011-0.32,0c-0.093-0.015-0.207-0.03-0.31-0.046
		c-0.098-0.021-0.175-0.165-0.279-0.186c-0.093-0.021-0.227,0.082-0.325,0.057c-0.098-0.026-0.191-0.072-0.284-0.099
		c-0.104-0.021-0.191-0.082-0.289-0.103s-0.17-0.176-0.268-0.191c-0.104-0.016-0.196-0.072-0.299-0.082
		c-0.103-0.006-0.211,0.077-0.31,0.082c-0.098,0.006-0.227-0.17-0.33-0.154c-0.093,0.016-0.175,0.181-0.273,0.211
		c-0.098,0.026-0.201,0.021-0.304,0.052c-0.093,0.031-0.16,0.165-0.258,0.186c-0.093,0.031-0.191,0.072-0.289,0.093
		c-0.093,0.021-0.217-0.071-0.31-0.057c-0.103,0.016-0.196,0.135-0.289,0.135c-0.103,0.005-0.196-0.099-0.289-0.108
		c-0.098-0.011-0.176-0.124-0.269-0.135c-0.098-0.015-0.227,0.171-0.32,0.15c-0.098-0.016-0.217,0.077-0.31,0.062
		s-0.181-0.072-0.278-0.088c-0.093-0.016-0.175-0.103-0.273-0.113c-0.098-0.005-0.186,0.031-0.284,0.031
		c-0.093,0-0.165,0.093-0.269,0.103c-0.093,0.011-0.165,0.026-0.258,0.052c-0.093,0.026-0.289,0.063-0.382,0.104
		c-0.036-0.083,0.093-0.402,0.052-0.485c-0.042-0.082-0.186-0.113-0.227-0.195c-0.041-0.083-0.041-0.187-0.072-0.269
		c-0.031-0.088-0.005-0.186-0.021-0.273c-0.026-0.098-0.083-0.191-0.103-0.284c-0.026-0.103-0.279-0.149-0.299-0.247
		c-0.026-0.104-0.021-0.207-0.042-0.305c-0.021-0.098,0.155-0.237,0.134-0.335c-0.016-0.104,0.031-0.212,0.021-0.314
		c-0.021-0.099-0.103-0.191-0.113-0.289c-0.021-0.099,0.057-0.212,0.041-0.315c-0.01-0.093-0.314-0.154-0.32-0.252
		c-0.01-0.093,0.196-0.201,0.196-0.3c-0.01-0.098-0.191-0.19-0.191-0.283s0.046-0.196,0.046-0.289s0.052-0.191,0.057-0.289
		c0.005-0.104,0.181-0.196,0.191-0.299c0-0.104-0.072-0.207-0.062-0.305c0-0.104-0.062-0.206-0.051-0.31
		c0-0.104,0.134-0.196,0.139-0.294c0.005-0.104-0.181-0.217-0.175-0.32c0.005-0.103-0.046-0.201-0.036-0.304
		c0.01-0.104,0.072-0.201,0.083-0.3c0.005-0.103,0.165-0.195,0.17-0.294c0.005-0.103-0.284-0.227-0.273-0.319
		c0.005-0.104,0.083-0.201,0.088-0.3c0.005-0.098,0.026-0.19,0.036-0.283c0.005-0.099,0.042-0.191,0.046-0.284
		c0.005-0.093,0.16-0.175,0.17-0.268c0.005-0.093-0.067-0.196-0.062-0.289c0.01-0.093-0.124-0.196-0.119-0.289
		s0.253-0.176,0.258-0.269c0.005-0.093-0.201-0.195-0.201-0.289c0-0.093-0.01-0.186-0.01-0.273c0-0.107,0.083-0.216,0.067-0.324
		c-0.01-0.104,0.093-0.228,0.072-0.341c-0.015-0.104-0.098-0.196-0.119-0.305c-0.021-0.108,0.083-0.231,0.062-0.335
		c-0.021-0.108-0.031-0.206-0.052-0.314c-0.01-0.083-0.18-0.145-0.175-0.228c0.01-0.087-0.057-0.17-0.062-0.253
		c0-0.093,0.166-0.195,0.16-0.288c-0.005-0.099-0.077-0.187-0.083-0.284s0.077-0.19,0.072-0.289
		c-0.005-0.093-0.005-0.19-0.016-0.283c-0.005-0.093-0.33-0.16-0.34-0.258c-0.01-0.093-0.021-0.155-0.052-0.258
		c-0.031-0.094,0.155-0.253,0.134-0.346c-0.021-0.108-0.248-0.269-0.207-0.352c0.042-0.087,0.305-0.087,0.341-0.181
		c0.031-0.093-0.052-0.222-0.026-0.319c0.026-0.093,0-0.196,0.021-0.289c0.016-0.093,0.253-0.154,0.263-0.253
		c0.021-0.093-0.191-0.222-0.181-0.314c0.01-0.104,0.088-0.186,0.098-0.289c0-0.098-0.01-0.196-0.01-0.289
		c0.01-0.103,0.015-0.195,0.015-0.294c0-0.098,0.129-0.201,0.129-0.294c-0.005-0.103,0.042-0.201,0.042-0.299
		c-0.01-0.099-0.284-0.186-0.289-0.278c-0.01-0.099,0.052-0.196,0.042-0.3c0-0.093-0.062-0.19-0.067-0.283
		c-0.005-0.099,0.025-0.201,0.025-0.294c-0.01-0.104-0.124-0.196-0.124-0.3c0-0.093,0.01-0.196,0.01-0.294s0.191-0.19,0.196-0.294
		c0-0.093,0.046-0.186,0.046-0.284c0.005-0.093,0.026-0.19,0.026-0.283c0.005-0.098-0.155-0.196-0.155-0.289
		c0-0.098,0.232-0.196,0.232-0.289s-0.031-0.196-0.031-0.289s-0.103-0.195-0.103-0.288c0-0.094-0.196-0.187-0.196-0.289
		c0-0.093,0.046-0.186,0.046-0.289c0-0.098,0.108-0.196,0.108-0.289s0.149-0.196,0.149-0.289c-0.005-0.093,0.026-0.195,0.026-0.289
		c0-0.093-0.263-0.186-0.263-0.283s0.222-0.191,0.217-0.289c0-0.098-0.01-0.19-0.01-0.289c0-0.098-0.031-0.19-0.042-0.289
		c0-0.098-0.031-0.19-0.031-0.288c0-0.093,0.134-0.191,0.134-0.289c0-0.093-0.083-0.191-0.083-0.284s-0.165-0.19-0.165-0.283
		c0-0.031-0.041-0.016-0.051-0.036c-0.042-0.093,0.103-0.258,0.072-0.351c-0.036-0.087-0.294-0.113-0.32-0.207
		c-0.021-0.093,0.207-0.248,0.186-0.34c-0.021-0.098-0.01-0.186-0.021-0.284c-0.016-0.093-0.062-0.181-0.062-0.273
		c-0.01-0.098-0.052-0.186-0.062-0.289c0-0.093,0.031-0.186,0.036-0.284c0.005-0.098-0.16-0.201-0.149-0.294
		c0.005-0.098,0.242-0.175,0.248-0.273c0.01-0.093,0.051-0.186,0.067-0.284c0.01-0.093-0.098-0.201-0.088-0.299
		c0.011-0.093-0.083-0.201-0.072-0.299c0.01-0.093-0.031-0.196-0.021-0.289s0.134-0.181,0.145-0.278
		c0.01-0.093-0.103-0.196-0.098-0.294c0.005-0.093-0.01-0.191-0.01-0.284c0.005-0.093-0.005-0.186-0.005-0.278
		c-0.01-0.098,0.144-0.196,0.134-0.294c-0.01-0.098-0.165-0.181-0.175-0.279c0-0.098-0.01-0.191-0.01-0.289
		c-0.005-0.098,0.103-0.196,0.103-0.294c-0.005-0.093,0.222-0.196,0.217-0.289c0-0.098-0.34-0.186-0.34-0.284
		c0-0.093,0.31-0.19,0.31-0.294c0-0.093-0.341-0.186-0.341-0.289c0-0.093,0.372-0.186,0.372-0.289c0-0.093-0.103-0.191-0.103-0.289
		c0-0.093-0.217-0.191-0.217-0.289c0-0.093-0.01-0.196-0.01-0.289s0.31-0.186,0.31-0.289c0-0.093-0.098-0.191-0.098-0.289
		c0-0.093,0.057-0.186,0.067-0.284c0-0.098-0.227-0.196-0.227-0.289c0-0.098,0.299-0.191,0.299-0.289c0-0.098-0.32-0.191-0.32-0.289
		c0-0.098,0.299-0.191,0.299-0.294c0-0.098-0.356-0.186-0.361-0.289c0-0.098,0.217-0.196,0.212-0.294
		c0-0.098,0.036-0.201,0.036-0.294c0-0.098,0.015-0.196,0.015-0.289c0-0.103-0.201-0.196-0.206-0.289
		c0-0.103,0.108-0.201,0.108-0.299c0-0.098-0.155-0.196-0.155-0.289c0-0.098,0.32-0.201,0.314-0.299
		c0-0.093-0.139-0.191-0.139-0.289c0-0.103-0.108-0.196-0.114-0.294c0-0.098-0.021-0.191-0.031-0.294
		c0-0.093,0.253-0.196,0.248-0.294c0-0.098-0.165-0.191-0.165-0.289s0.175-0.196,0.175-0.294c0-0.103-0.124-0.196-0.124-0.294
		c0-0.098-0.042-0.191-0.046-0.294c0-0.098-0.17-0.196-0.17-0.289c0-0.098,0.124-0.196,0.124-0.294c0-0.098-0.134-0.196-0.145-0.289
		c0-0.098,0.103-0.201,0.103-0.294c0-0.104-0.031-0.196-0.031-0.299c0-0.093-0.026-0.191-0.031-0.289
		c0-0.098,0.227-0.201,0.227-0.299c0-0.093-0.155-0.191-0.155-0.289c0-0.093-0.083-0.191-0.083-0.289
		c0-0.098,0.139-0.196,0.139-0.299c0-0.093,0.119-0.196,0.119-0.294c0-0.098,0.01-0.191,0.01-0.294c0-0.098-0.268-0.186-0.268-0.289
		c0-0.098-0.036-0.19-0.041-0.289c0-0.103,0.196-0.196,0.186-0.299c0-0.098-0.114-0.196-0.114-0.289c0-0.103,0.15-0.201,0.15-0.299
		c-0.005-0.098-0.139-0.196-0.139-0.289s0.124-0.196,0.124-0.299c-0.005-0.093,0.072-0.196,0.072-0.294
		c-0.005-0.098-0.33-0.191-0.34-0.284c0-0.103,0.186-0.227,0.17-0.34c-0.01-0.108,0.036-0.248,0.005-0.351
		c-0.036-0.113-0.217-0.16-0.279-0.242c-0.062-0.088-0.17-0.15-0.206-0.232c-0.052-0.093,0.093-0.237,0.083-0.32
		c-0.01-0.103,0.072-0.134,0.103-0.227c0.031-0.093-0.021-0.17,0.042-0.258c0.051-0.072,0.145-0.083,0.222-0.145
		c0.067-0.062,0.026-0.268,0.108-0.32c0.083-0.051,0.227,0.026,0.32-0.01c0.083-0.041,0.083-0.34,0.175-0.372
		c0.093-0.025,0.248,0.32,0.34,0.31c0.098,0,0.196-0.093,0.289-0.098c0.098-0.005,0.186-0.258,0.284-0.263
		c0.098,0,0.207,0.278,0.304,0.273c0.098-0.005,0.186-0.16,0.289-0.17c0.098,0,0.196-0.083,0.289-0.083
		c0.103-0.005,0.206,0.181,0.304,0.175c0.098,0,0.191-0.165,0.284-0.17c0.104-0.005,0.201,0.087,0.299,0.087
		c0.103-0.01,0.191-0.181,0.289-0.186c0.103,0,0.206,0.299,0.304,0.294s0.191-0.088,0.294-0.093
		c0.098-0.005,0.196-0.103,0.289-0.103c0.103-0.005,0.201,0.046,0.299,0.046c0.098-0.01,0.196-0.021,0.289-0.026
		c0.104-0.005,0.196-0.181,0.289-0.186c0.103-0.005,0.206,0.314,0.31,0.314c0.093-0.005,0.196,0.026,0.294,0.021
		c0.098,0,0.196-0.021,0.294-0.021c0.098-0.005,0.186-0.217,0.289-0.217c0.093,0,0.196,0.067,0.294,0.062
		c0.098,0,0.201,0.165,0.294,0.155c0.104,0,0.196-0.042,0.294-0.042c0.098-0.005,0.191-0.206,0.289-0.206
		c0.098-0.01,0.201-0.042,0.294-0.042c0.093-0.005,0.196,0.165,0.289,0.165c0.103,0,0.196-0.18,0.289-0.18
		c0.098,0,0.196-0.046,0.289-0.046c0.098,0,0.196,0.134,0.289,0.134c0.098,0.01,0.196-0.124,0.289-0.124
		c0.098,0,0.191,0.165,0.289,0.165s0.196,0.046,0.289,0.046c0.098,0,0.19-0.201,0.289-0.201c0.093,0,0.195,0.227,0.289,0.227
		c0.093-0.01,0.195-0.01,0.288-0.016s0.196,0,0.289-0.005c0.093-0.01,0.186-0.124,0.278-0.134c0.104-0.01,0.207,0.041,0.305,0.036
		c0.098-0.005,0.181-0.232,0.273-0.237c0.104-0.005,0.201,0.005,0.299-0.005c0.099-0.01,0.228,0.299,0.32,0.294
		c0.104-0.005,0.196-0.036,0.299-0.046c0.093-0.01,0.187-0.124,0.279-0.134c0.103-0.011,0.206,0.103,0.31,0.087
		c0.093-0.01,0.175-0.253,0.268-0.258c0.104-0.005,0.217,0.149,0.31,0.139c0.104-0.01,0.191-0.083,0.289-0.093
		c0.104-0.005,0.186-0.155,0.278-0.165c0.104-0.01,0.217,0.16,0.315,0.155c0.098-0.01,0.175-0.237,0.272-0.248
		c0.099-0.005,0.207,0.124,0.31,0.108c0.099-0.011,0.187-0.078,0.289-0.083c0.099-0.005,0.207,0.098,0.31,0.087
		c0.093-0.01,0.176-0.206,0.273-0.217c0.099-0.01,0.212,0.114,0.305,0.104c0.104-0.01,0.217,0.139,0.314,0.129
		c0.098-0.016,0.176-0.232,0.273-0.243s0.201,0.021,0.299,0.01c0.104-0.01,0.196-0.025,0.295-0.041
		c0.098-0.01,0.206,0.062,0.304,0.052c0.099-0.016,0.186-0.072,0.289-0.083c0.098-0.011,0.186-0.114,0.284-0.124
		c0.098-0.01,0.186-0.119,0.283-0.134c0.093-0.01,0.206,0.052,0.3,0.042c0.113-0.016,0.227,0.072,0.314,0.083
		c0.118,0.005,0.17,0.113,0.253,0.155c0.093,0.046,0.288,0,0.33,0.093c0.036,0.083-0.114,0.232-0.104,0.34
		c0.011,0.093-0.005,0.186-0.005,0.294c0,0.104,0.294,0.201,0.294,0.299c0,0.104-0.222,0.201-0.222,0.305
		c0,0.103-0.145,0.201-0.145,0.304s0.299,0.201,0.299,0.304c0,0.104,0.047,0.201,0.047,0.305c0,0.098-0.294,0.201-0.294,0.304
		s-0.052,0.196-0.052,0.299c0,0.103-0.005,0.206-0.005,0.31c0,0.103,0.216,0.196,0.216,0.299c0,0.104,0.155,0.207,0.155,0.299
		c0,0.103,0,0.207,0,0.304c0,0.098-0.17,0.202-0.17,0.299c0,0.104,0.046,0.201,0.046,0.299c0,0.103,0.005,0.207,0.005,0.304
		c0,0.104-0.051,0.201-0.051,0.299c0,0.103-0.124,0.201-0.124,0.299c0,0.103,0.088,0.207,0.088,0.299
		C38.062,8.949,38.087,9.046,38.087,9.15z M18.432,5.265c0.011,0.098,0.104,0.181,0.104,0.273c0.01,0.098,0.067,0.191,0.072,0.284
		c0,0.098-0.093,0.191-0.093,0.289c0.005,0.098,0.104,0.181,0.108,0.278c0.005,0.098-0.077,0.191-0.072,0.289
		c0.005,0.093-0.046,0.191-0.036,0.284c0.005,0.093,0.093,0.186,0.093,0.279c0.01,0.098-0.093,0.196-0.088,0.289
		c0.005,0.098,0.124,0.186,0.124,0.289c0.005,0.093-0.17,0.196-0.17,0.289c0,0.104,0.072,0.201,0.072,0.299
		s-0.114,0.196-0.108,0.299C18.443,8.799,18.443,8.902,18.443,9s0.103,0.196,0.103,0.294c0.005,0.104,0.083,0.196,0.083,0.299
		c0,0.098,0.113,0.196,0.113,0.294c0,0.098,0,0.201,0.005,0.294c0,0.103-0.273,0.206-0.273,0.299c0,0.104,0.196,0.196,0.196,0.299
		c0,0.093-0.005,0.196-0.005,0.294c0,0.098,0.098,0.196,0.103,0.294c0.005,0.103-0.181,0.206-0.175,0.299
		c0,0.104-0.129,0.201-0.129,0.299s0.232,0.196,0.237,0.289c0,0.103-0.155,0.201-0.155,0.304c0,0.098,0.268,0.191,0.268,0.294
		c0,0.093-0.041,0.196-0.041,0.294c0,0.098,0.005,0.196,0.005,0.294c0,0.103-0.057,0.196-0.057,0.299
		c0,0.098,0.01,0.196,0.016,0.294c0,0.098-0.14,0.201-0.14,0.294c0,0.103-0.005,0.201-0.005,0.299c0,0.098,0.057,0.196,0.067,0.299
		c0,0.093,0.031,0.196,0.031,0.294c0,0.098,0.134,0.201,0.134,0.294c0,0.103-0.093,0.196-0.093,0.299
		c0,0.098-0.051,0.196-0.051,0.299c0,0.093,0.175,0.196,0.175,0.289c0,0.103-0.299,0.207-0.299,0.304
		c0,0.098,0.217,0.191,0.217,0.294c0,0.098-0.258,0.196-0.258,0.299c0,0.098,0.351,0.196,0.351,0.289
		c0,0.103-0.026,0.201-0.021,0.299c0,0.098-0.237,0.201-0.237,0.299c0,0.098,0.155,0.196,0.155,0.299
		c0,0.093,0.051,0.196,0.051,0.294c0,0.098-0.299,0.201-0.299,0.299c0,0.098,0.186,0.191,0.186,0.294
		c0,0.098,0.093,0.196,0.093,0.299c0,0.093-0.021,0.196-0.021,0.289c0,0.103,0.01,0.201,0.01,0.299c0,0.093,0.051,0.196,0.051,0.289
		c0,0.093-0.165,0.196-0.165,0.294c0,0.093,0.222,0.19,0.227,0.289c0,0.093-0.248,0.196-0.248,0.294
		c0,0.093,0.175,0.186,0.175,0.289c0,0.093-0.278,0.196-0.278,0.294s0.191,0.191,0.196,0.289c0,0.098,0.155,0.191,0.155,0.289
		c0.01,0.098-0.155,0.196-0.155,0.294c0,0.093-0.077,0.191-0.077,0.289c0,0.093,0.273,0.191,0.273,0.289
		c0,0.093-0.335,0.196-0.335,0.294c0,0.098,0.243,0.191,0.248,0.284c0.005,0.093,0.005,0.196,0.005,0.289s-0.175,0.196-0.165,0.294
		c0,0.093-0.093,0.191-0.093,0.294c0,0.093,0.186,0.186,0.186,0.289c0,0.093-0.16,0.196-0.16,0.289c0,0.093,0.222,0.191,0.227,0.289
		c0.005,0.093-0.067,0.191-0.067,0.289c0,0.093,0.145,0.191,0.149,0.289c0,0.093,0.036,0.196,0.036,0.289s-0.016,0.196-0.016,0.289
		s-0.165,0.196-0.165,0.289c0,0.098,0.005,0.196,0.005,0.289c0,0.098,0.01,0.196,0.01,0.289c0,0.098,0.165,0.196,0.175,0.289
		c0,0.098-0.186,0.201-0.186,0.299c0,0.093,0.062,0.191,0.062,0.284c0,0.098,0.01,0.195,0.021,0.288
		c0,0.099-0.175,0.201-0.175,0.295c0,0.093,0.263,0.19,0.263,0.283c0,0.098-0.17,0.201-0.17,0.294c0,0.104,0.232,0.196,0.237,0.289
		c0,0.098-0.207,0.201-0.207,0.299c0.01,0.099,0.062,0.196,0.062,0.289c0,0.104,0.052,0.196,0.052,0.3
		c0,0.093,0.021,0.19,0.021,0.288c0,0.099-0.211,0.196-0.211,0.3c0,0.093,0.119,0.19,0.119,0.289c0,0.103,0.041,0.195,0.041,0.294
		c0,0.098-0.191,0.195-0.191,0.294c0,0.104,0.356,0.19,0.361,0.289c0,0.103-0.284,0.206-0.284,0.299
		c0,0.098,0.098,0.196,0.098,0.289c0,0.104,0.021,0.196,0.025,0.294c0,0.098-0.005,0.201-0.005,0.294
		c0,0.098,0.155,0.196,0.155,0.289c0,0.104-0.036,0.201-0.031,0.299c0,0.093-0.176,0.196-0.17,0.289c0,0.104-0.021,0.201-0.021,0.3
		c0,0.093,0.083,0.19,0.083,0.288c0.005,0.099-0.104,0.196-0.104,0.3c0,0.093,0.129,0.19,0.129,0.289
		c0,0.103,0.088,0.195,0.088,0.294c0,0.098-0.088,0.195-0.088,0.294c0,0.103-0.036,0.195-0.031,0.294
		c0.005,0.098,0.181,0.19,0.181,0.294c0,0.098-0.217,0.196-0.217,0.294s0.036,0.196,0.036,0.294c0,0.099,0.046,0.196,0.046,0.289
		c0,0.104-0.155,0.201-0.155,0.299c0,0.099,0.299,0.191,0.299,0.289c0,0.099-0.222,0.196-0.217,0.3c0,0.093,0.17,0.19,0.17,0.288
		c0,0.104-0.042,0.196-0.036,0.295c0,0.098,0.01,0.195,0.01,0.294c0,0.093-0.124,0.195-0.119,0.294
		c0.005,0.098-0.046,0.201-0.046,0.294c0,0.103,0.237,0.196,0.237,0.289c0,0.098-0.263,0.206-0.263,0.299
		c0,0.098,0.263,0.196,0.263,0.289s-0.16,0.196-0.16,0.294s0.212,0.196,0.212,0.294s0.041,0.196,0.041,0.289
		c0,0.104-0.217,0.201-0.217,0.299c0,0.099,0.15,0.196,0.15,0.294c0,0.099-0.227,0.196-0.227,0.294c0,0.104,0.113,0.196,0.119,0.295
		c0,0.098-0.134,0.195-0.134,0.294c0,0.103,0.341,0.19,0.341,0.289c0,0.103-0.279,0.206-0.279,0.299
		c0,0.098,0.196,0.196,0.207,0.289c0,0.103-0.186,0.201-0.186,0.299s0.191,0.196,0.196,0.289c0,0.104-0.139,0.201-0.139,0.299
		c0,0.099-0.108,0.196-0.104,0.3c0,0.093,0.026,0.19,0.031,0.289c0,0.103,0.31,0.19,0.314,0.288c0,0.104-0.299,0.201-0.299,0.3
		c0,0.093,0.279,0.186,0.279,0.283c0,0.093-0.124,0.191-0.124,0.289c0,0.093-0.134,0.191-0.134,0.289
		c0,0.093-0.011,0.19-0.011,0.283c0,0.099,0.279,0.196,0.279,0.289c0,0.104-0.01,0.196-0.01,0.289c0,0.098-0.253,0.196-0.258,0.289
		c0,0.098-0.052,0.196-0.052,0.289c0,0.098,0.191,0.195,0.191,0.289c0,0.098-0.211,0.195-0.211,0.288s0.103,0.196,0.103,0.289
		s0.207,0.196,0.207,0.289s-0.299,0.186-0.299,0.289c0,0.113,0.216,0.211,0.227,0.31c0.01,0.113-0.176,0.278-0.145,0.371
		c0.041,0.104,0.206,0.176,0.278,0.248s0.186,0.123,0.289,0.165c0.093,0.03,0.196,0.113,0.31,0.124
		c0.093,0.01,0.217,0.021,0.33,0.01c0.093-0.005,0.191-0.031,0.289-0.036c0.093-0.005,0.191,0.098,0.289,0.098
		c0.093-0.01,0.186-0.268,0.279-0.268s0.196,0.124,0.289,0.124c0.093,0,0.191-0.031,0.289-0.031c0.093,0,0.191,0.082,0.284,0.082
		c0.098,0,0.201-0.227,0.294-0.227c0.093,0.005,0.196,0,0.289,0c0.093,0.005,0.186,0.196,0.284,0.196
		c0.098,0.005,0.191,0.103,0.284,0.103s0.196,0.026,0.289,0.031c0.093,0,0.196-0.299,0.289-0.299c0.104,0,0.196,0.165,0.299,0.165
		c0.098,0,0.196-0.145,0.294-0.145c0.098,0,0.201,0.01,0.294,0.01c0.103,0,0.201,0.237,0.299,0.237c0.098,0,0.196-0.051,0.299-0.051
		c0.093,0,0.196,0.071,0.294,0.071c0.098,0,0.196-0.01,0.294-0.01c0.103,0,0.196-0.062,0.299-0.062c0.098,0,0.196,0.062,0.294,0.062
		c0.098,0,0.201-0.191,0.294-0.191c0.103,0,0.201,0.047,0.299,0.047c0.098,0,0.196-0.113,0.299-0.113
		c0.093,0,0.196-0.077,0.294-0.077c0.098,0,0.196,0.077,0.294,0.077c0.103,0,0.196,0.093,0.299,0.093
		c0.099,0,0.196-0.155,0.289-0.155c0.104,0,0.201-0.021,0.299-0.021c0.099,0,0.196,0,0.3,0c0.093-0.005,0.196,0.124,0.294,0.124
		s0.19-0.134,0.294-0.134c0.093-0.011,0.196,0.021,0.294,0.016c0.104-0.006,0.201,0.036,0.3,0.03
		c0.103-0.005,0.211,0.124,0.314,0.113c0.103-0.01,0.206,0.026,0.304,0.016c0.099-0.01,0.191-0.118,0.295-0.129
		c0.103-0.016,0.227,0.155,0.319,0.145c0.104-0.016,0.186-0.175,0.284-0.186c0.098-0.016,0.206,0.011,0.304,0.005
		c0.104-0.01,0.196-0.124,0.289-0.134c0.104-0.005,0.206-0.021,0.31-0.031c0.104,0,0.206,0.113,0.299,0.113
		c0.104,0,0.207-0.103,0.31-0.098c0.099,0.005,0.196,0.098,0.3,0.108c0.093,0,0.196,0.104,0.294,0.108s0.211-0.196,0.314-0.191
		c0.098,0.006,0.206-0.103,0.305-0.098c0.098,0.005,0.201,0.047,0.299,0.052c0.104,0.005,0.201,0.088,0.294,0.098
		c0.104,0.006,0.207-0.03,0.31-0.021c0.093,0.011,0.207-0.072,0.305-0.062c0.098,0.005,0.201,0.016,0.305,0.021
		c0.093,0.01,0.195,0.021,0.299,0.025c0.093,0.006,0.176,0.325,0.278,0.33c0.093,0.006,0.207-0.103,0.305-0.098
		c0.098,0.011,0.196,0.062,0.294,0.067c0.104,0.005,0.196,0.077,0.299,0.077c0.099,0.011,0.212-0.031,0.289-0.041
		c0.104-0.016,0.093-0.264,0.155-0.305c0.082-0.052,0.113-0.047,0.154-0.129c0.041-0.072,0.253-0.083,0.269-0.181
		c0.01-0.082,0.093-0.186,0.093-0.283c0-0.094-0.072-0.191-0.072-0.289c0-0.093,0.093-0.196,0.093-0.289s-0.299-0.191-0.299-0.289
		c0-0.093,0.211-0.19,0.211-0.289c0-0.093-0.181-0.196-0.181-0.289s0.047-0.195,0.047-0.288s0.046-0.187,0.046-0.289
		c0-0.093,0.187-0.186,0.187-0.289c0-0.093-0.083-0.196-0.083-0.289s-0.062-0.196-0.062-0.289s0.124-0.19,0.124-0.289
		c0-0.093-0.191-0.186-0.191-0.288c0-0.093-0.057-0.187-0.057-0.289c0-0.093,0.062-0.191,0.062-0.289
		c0-0.093,0.155-0.19,0.155-0.289c0-0.093-0.3-0.186-0.3-0.283c0-0.093,0.072-0.191,0.067-0.284
		c-0.005-0.098,0.011-0.196,0.011-0.289c-0.006-0.098,0.025-0.195,0.015-0.289c0-0.098,0.14-0.201,0.13-0.299
		c-0.011-0.088-0.104-0.17-0.119-0.269c-0.016-0.093-0.17-0.149-0.196-0.247c-0.016-0.088,0.201-0.232,0.181-0.325
		c-0.021-0.088-0.242-0.14-0.263-0.227c-0.021-0.088-0.041-0.187-0.063-0.279c-0.01-0.087,0.063-0.201,0.052-0.294
		c-0.01-0.093,0.108-0.186,0.108-0.278c0-0.098-0.057-0.196-0.057-0.299c0-0.093,0.129-0.196,0.129-0.294
		c0-0.099,0.005-0.196,0.005-0.295c0-0.103-0.175-0.206-0.175-0.299c0-0.104-0.072-0.206-0.072-0.299c0-0.104,0.181-0.201,0.181-0.3
		c0-0.098-0.067-0.201-0.067-0.299c0-0.104,0.093-0.196,0.098-0.3c0-0.098,0.016-0.195,0.016-0.294c0-0.098-0.31-0.206-0.31-0.304
		c0-0.099,0.011-0.196,0.011-0.3c0-0.103,0.227-0.195,0.227-0.294c0.011-0.098-0.227-0.201-0.227-0.304
		c0.005-0.099,0.258-0.196,0.258-0.289c0.005-0.104-0.108-0.207-0.108-0.3c0.005-0.103-0.046-0.206-0.041-0.304
		c0.005-0.099,0.222-0.191,0.222-0.294c0-0.094-0.217-0.196-0.217-0.3c0-0.103,0.072-0.201,0.077-0.299
		c0.006-0.099-0.015-0.196-0.01-0.3c0-0.098,0.01-0.195,0.016-0.299c0-0.104,0.134-0.196,0.134-0.299c0-0.099,0.052-0.196,0.052-0.3
		c0-0.098-0.273-0.201-0.273-0.299c0-0.099,0.062-0.196,0.062-0.289c-0.005-0.093-0.057-0.19-0.066-0.284
		c0-0.098,0.03-0.195,0.021-0.288c-0.011-0.099-0.124-0.181-0.135-0.279c-0.005-0.098,0-0.19-0.01-0.288
		c-0.011-0.099,0.165-0.212,0.154-0.305c-0.016-0.098,0.021-0.201,0.011-0.299c-0.005-0.094,0-0.191-0.005-0.284
		c-0.006-0.098-0.181-0.181-0.187-0.278c-0.005-0.099,0.223-0.207,0.217-0.305c-0.005-0.093-0.046-0.186-0.046-0.283
		c0-0.099-0.104-0.191-0.104-0.295c0-0.098-0.201-0.195-0.201-0.288c0-0.104,0.047-0.201,0.041-0.3c0-0.098,0.108-0.196,0.108-0.299
		c0-0.093,0.155-0.196,0.155-0.294c0-0.099,0.025-0.196,0.025-0.294c0-0.104-0.263-0.196-0.263-0.3c0-0.098,0.222-0.195,0.222-0.294
		c0-0.098-0.005-0.201-0.005-0.294c0-0.104-0.036-0.201-0.036-0.299c0-0.099-0.031-0.196-0.031-0.3c0-0.093,0.14-0.195,0.14-0.294
		c0-0.098-0.094-0.196-0.094-0.294c0-0.104-0.154-0.196-0.154-0.299c0-0.099-0.062-0.196-0.062-0.294
		c0-0.099,0.201-0.202,0.201-0.294c0-0.103-0.243-0.201-0.232-0.299c0-0.098,0.258-0.196,0.258-0.299
		c0-0.093,0.021-0.196,0.021-0.294s-0.036-0.201-0.036-0.294c0-0.103-0.046-0.196-0.046-0.299c0-0.098,0.03-0.227,0.03-0.32
		c-0.072-0.072-0.278-0.062-0.33-0.139c-0.057-0.083,0.104-0.268,0.072-0.356s-0.016-0.155-0.025-0.248
		c-0.011-0.093-0.14-0.165-0.129-0.258c0-0.093-0.093-0.201-0.072-0.299c0.016-0.088-0.021-0.196,0-0.294
		c0.025-0.088,0.165-0.155,0.19-0.248c0.021-0.087-0.072-0.211-0.052-0.299c0.026-0.098,0.016-0.181,0.026-0.273
		c0.01-0.093,0.01-0.16,0.01-0.258c-0.005-0.093,0.145-0.196,0.145-0.299c0-0.093-0.154-0.196-0.154-0.299c0-0.098,0-0.201,0-0.299
		s0.118-0.196,0.118-0.299c0.006-0.093,0.237-0.191,0.237-0.289c0.006-0.098-0.335-0.207-0.33-0.31
		c0.005-0.098,0.325-0.186,0.33-0.284c0.006-0.098-0.335-0.211-0.33-0.315c0.005-0.093,0.377-0.186,0.382-0.278
		c0.005-0.104-0.098-0.207-0.093-0.299c0.005-0.103-0.217-0.207-0.217-0.31c0.005-0.098-0.005-0.196-0.005-0.294
		s0.31-0.201,0.31-0.294c0-0.104-0.104-0.201-0.104-0.299c0-0.103,0.057-0.207,0.052-0.304c0-0.098-0.227-0.191-0.232-0.289
		c-0.005-0.098,0.284-0.217,0.279-0.315c-0.006-0.098-0.336-0.175-0.346-0.273c-0.011-0.098,0.283-0.227,0.273-0.325
		c-0.011-0.103-0.377-0.155-0.393-0.253s0.181-0.227,0.17-0.325c-0.021-0.093,0-0.201-0.021-0.299
		c-0.016-0.098-0.016-0.196-0.041-0.294c-0.021-0.098-0.237-0.145-0.269-0.243C37.23,16.181,37.354,16.073,37.37,16
		s-0.119-0.134-0.129-0.207c-0.005-0.113,0.304-0.248,0.289-0.356c-0.011-0.108-0.155-0.201-0.165-0.314
		c-0.011-0.103-0.129-0.207-0.135-0.31c-0.01-0.113-0.041-0.237-0.036-0.351c0-0.114,0.258-0.212,0.273-0.325
		c0.011-0.088-0.129-0.196-0.108-0.284c0.016-0.083,0.217-0.129,0.237-0.217c0.026-0.083-0.077-0.201-0.057-0.289
		c0.011-0.083-0.021-0.176-0.016-0.269c0-0.098-0.159-0.196-0.159-0.299c0-0.103,0.134-0.206,0.134-0.299
		c0-0.104-0.14-0.207-0.145-0.305c0-0.098,0.104-0.201,0.104-0.299c0-0.098-0.026-0.202-0.026-0.299
		c0-0.098-0.025-0.201-0.025-0.305c0-0.093,0.227-0.201,0.227-0.299c0-0.104-0.154-0.207-0.154-0.299
		c0-0.103-0.077-0.207-0.077-0.299c0-0.103,0.144-0.207,0.149-0.304c0-0.098,0.124-0.196,0.124-0.299
		c0-0.098,0.021-0.201,0.021-0.299c0.005-0.103-0.253-0.211-0.248-0.314c0-0.093-0.031-0.186-0.031-0.284
		c0-0.098,0.187-0.201,0.176-0.294c-0.005-0.093-0.124-0.186-0.134-0.284c-0.011-0.093,0.134-0.211,0.123-0.304
		c-0.01-0.098-0.154-0.175-0.175-0.268c-0.011-0.098,0.098-0.212,0.082-0.31c-0.016-0.093,0.052-0.196,0.036-0.294
		c-0.01-0.098-0.346-0.155-0.36-0.253c-0.011-0.093,0.17-0.207,0.159-0.304c-0.01-0.098,0.063-0.196,0.057-0.289
		c0-0.098-0.144-0.196-0.139-0.289c0-0.098-0.041-0.201-0.031-0.304c0.011-0.093,0.206-0.16,0.228-0.258
		c0.015-0.083,0.113-0.176,0.123-0.263c0.016-0.088-0.062-0.201-0.062-0.294c0.005-0.093,0.062-0.196,0.052-0.289
		c-0.006-0.093-0.207-0.155-0.228-0.248c-0.021-0.072,0.063-0.217,0.011-0.299c-0.052-0.072-0.32,0.046-0.382-0.01
		c-0.083-0.072-0.062-0.444-0.124-0.434c-0.093,0.011-0.19,0.114-0.289,0.134c-0.103,0.016-0.154,0.279-0.252,0.299
		c-0.099,0.021-0.253-0.237-0.356-0.217c-0.093,0.021-0.16,0.196-0.258,0.217c-0.104,0.021-0.181,0.119-0.278,0.145
		c-0.099,0.021-0.237-0.145-0.33-0.124c-0.104,0.026-0.165,0.207-0.269,0.222c-0.093,0.021-0.212-0.057-0.31-0.057
		s-0.217,0.165-0.314,0.155c-0.099-0.01-0.14-0.325-0.232-0.351c-0.098-0.021-0.206,0.036-0.305,0.021
		c-0.093-0.021-0.195,0.067-0.294,0.072c-0.093,0-0.19-0.052-0.289-0.042c-0.103,0-0.195,0.016-0.288,0.021
		c-0.094,0-0.191,0.18-0.289,0.186c-0.093,0-0.196-0.32-0.3-0.314c-0.098,0.005-0.19-0.026-0.288-0.026
		c-0.104,0.005-0.196,0.021-0.289,0.026c-0.093,0.005-0.191,0.216-0.289,0.216c-0.093,0-0.196-0.067-0.289-0.067
		S30.823,3.95,30.721,3.95c-0.099,0.005-0.191,0.046-0.289,0.046c-0.099,0.005-0.186,0.211-0.284,0.211
		c-0.098,0-0.19,0.031-0.289,0.036c-0.098,0.005-0.195-0.17-0.294-0.165c-0.103,0.005-0.19,0.186-0.288,0.186
		c-0.094,0.005-0.191,0.052-0.289,0.057c-0.093,0-0.196-0.134-0.294-0.129c-0.099,0.005-0.191,0.134-0.289,0.139
		c-0.099,0-0.196-0.155-0.294-0.155c-0.104,0.005-0.196-0.042-0.294-0.036c-0.098,0.005-0.191,0.201-0.284,0.201
		s-0.201-0.222-0.299-0.217c-0.098,0-0.191,0.01-0.289,0.01c-0.104,0-0.196-0.01-0.294,0c-0.098,0-0.191,0.114-0.289,0.114
		c-0.098,0.005-0.201-0.057-0.294-0.052c-0.098,0-0.186,0.217-0.284,0.227c-0.098,0-0.191-0.021-0.294-0.021
		c-0.098,0.005-0.206-0.31-0.299-0.305c-0.098,0.005-0.196,0.026-0.289,0.026c-0.098,0.01-0.186,0.119-0.289,0.124
		c-0.098,0-0.196-0.114-0.289-0.108c-0.104,0.005-0.186,0.242-0.289,0.242c-0.098,0.005-0.196-0.16-0.294-0.154
		c-0.098,0-0.191,0.067-0.289,0.067s-0.191,0.149-0.284,0.149c-0.103,0.01-0.206-0.175-0.299-0.165
		c-0.098,0-0.186,0.222-0.284,0.227c-0.098,0-0.201-0.134-0.294-0.134c-0.103,0.01-0.196,0.062-0.289,0.067
		c-0.098,0.005-0.196-0.108-0.289-0.104c-0.098,0.005-0.175,0.201-0.269,0.212c-0.098,0.005-0.206-0.114-0.299-0.104
		c-0.093,0.01-0.217-0.134-0.31-0.119c-0.093,0.016-0.155,0.243-0.248,0.253C20.491,4.6,20.393,4.574,20.3,4.589
		c-0.093,0.021-0.186,0.052-0.279,0.067c-0.093,0.026-0.206-0.025-0.299,0c-0.083,0.026-0.16,0.108-0.253,0.14
		c-0.088,0.036-0.139,0.155-0.227,0.191c-0.083,0.036-0.134,0.165-0.222,0.201c-0.083,0.041-0.201,0.01-0.289,0.041
		C18.649,5.281,18.525,5.229,18.432,5.265z"/>
	<path d="M32.046,21.871c0.006,0.108-0.258,0.217-0.258,0.31c0,0.113,0.093,0.206,0.088,0.294c-0.011,0.129,0.093,0.258,0.062,0.33
		c-0.046,0.088-0.195,0.057-0.31,0.088c-0.082,0.026-0.165,0.103-0.283,0.113c-0.088,0.01-0.191-0.119-0.305-0.113
		c-0.093,0.005-0.196,0.057-0.304,0.062c-0.099,0.01-0.196,0.062-0.3,0.072c-0.098,0.005-0.211-0.114-0.314-0.104
		s-0.186,0.217-0.278,0.227c-0.104,0.016-0.196,0.067-0.3,0.083c-0.098,0.01-0.231-0.232-0.335-0.217
		c-0.098,0.016-0.181,0.166-0.284,0.186c-0.093,0.01-0.186,0.093-0.288,0.113c-0.094,0.01-0.223-0.113-0.32-0.098
		c-0.098,0.016-0.19,0.088-0.289,0.104c-0.098,0.015-0.16,0.248-0.258,0.263c-0.098,0.021-0.206-0.031-0.31-0.011
		c-0.098,0.021-0.222-0.093-0.32-0.072c-0.103,0.021-0.186,0.124-0.278,0.144c-0.104,0.021-0.201,0.052-0.299,0.072
		c-0.103,0.016-0.217-0.072-0.32-0.077c-0.098-0.005-0.196-0.016-0.289-0.036c-0.103-0.021-0.186-0.083-0.278-0.124
		c-0.093-0.041-0.196-0.057-0.273-0.119c-0.083-0.062-0.046-0.222-0.114-0.294c-0.067-0.083-0.067-0.145-0.108-0.237
		c-0.041-0.087-0.381-0.093-0.397-0.196c-0.01-0.093,0.248-0.217,0.237-0.31c-0.016-0.098-0.062-0.186-0.072-0.279
		c-0.016-0.098-0.243-0.155-0.253-0.252c-0.021-0.098,0.217-0.222,0.196-0.315c-0.01-0.093-0.299-0.149-0.31-0.248
		c-0.016-0.093-0.01-0.186-0.021-0.279c-0.01-0.098,0.284-0.222,0.273-0.32c-0.016-0.093-0.191-0.17-0.196-0.258
		c-0.005-0.098-0.005-0.196-0.01-0.284c-0.005-0.098-0.155-0.181-0.155-0.273c-0.005-0.093,0.145-0.191,0.139-0.284
		c0-0.093-0.16-0.191-0.155-0.284c0-0.093,0.269-0.17,0.273-0.258c0.005-0.093,0.078-0.175,0.088-0.269
		c0.016-0.087,0.021-0.17,0.036-0.258c0.016-0.093-0.232-0.232-0.211-0.325c0.021-0.087,0.31-0.098,0.33-0.19
		c0.031-0.083-0.052-0.207-0.016-0.289s0.057-0.186,0.139-0.268c0.067-0.072,0.155-0.134,0.237-0.201
		c0.088-0.057,0.104-0.258,0.196-0.305c0.093-0.052,0.299,0.145,0.397,0.114c0.108-0.036,0.17-0.17,0.269-0.181
		s0.181-0.16,0.273-0.175c0.093-0.011,0.196,0.005,0.294-0.005c0.093-0.005,0.196,0.021,0.294,0.01
		c0.093-0.005,0.196,0.093,0.294,0.083c0.098-0.01,0.201,0.072,0.294,0.072c0.103-0.01,0.186-0.145,0.289-0.155
		c0.093,0,0.191,0,0.289-0.005c0.098-0.005,0.19-0.124,0.289-0.129c0.093,0,0.19,0.031,0.289,0.026
		c0.093-0.005,0.195,0.052,0.294,0.046c0.098,0,0.201,0.093,0.294,0.088c0.098-0.005,0.186-0.145,0.283-0.149
		c0.099,0,0.191-0.052,0.289-0.057c0.099-0.005,0.201,0.207,0.3,0.201c0.098-0.005,0.18,0.047,0.263,0.052
		c0.104,0.01,0.253-0.289,0.341-0.263c0.093,0.026,0.216,0.108,0.294,0.155c0.077,0.052-0.016,0.305,0.046,0.376
		c0.052,0.072,0.33,0.036,0.361,0.124c0.031,0.083-0.248,0.258-0.227,0.361c0.015,0.083,0.376,0.134,0.381,0.237
		c0.011,0.098-0.324,0.222-0.319,0.32c0.011,0.098-0.011,0.201,0,0.299c0.011,0.098,0.046,0.196,0.052,0.299
		c0.01,0.093,0.052,0.191,0.066,0.289c0.006,0.103,0.3,0.175,0.305,0.268c0.011,0.103-0.319,0.237-0.31,0.33
		c0.011,0.104,0.063,0.196,0.077,0.294c0.011,0.098,0.171,0.18,0.181,0.284c0.011,0.098,0.093,0.186,0.104,0.289
		c0.005,0.098,0.072,0.196,0.082,0.289c0.011,0.103-0.041,0.207-0.03,0.31c0.01,0.093-0.207,0.217-0.191,0.314
		c0.011,0.098,0.264,0.175,0.269,0.273C32.025,21.665,32.041,21.768,32.046,21.871z M29.591,18.229
		c0.005-0.124,0.222-0.134,0.211-0.227c-0.01-0.124-0.123-0.237-0.154-0.32c-0.041-0.113-0.196-0.113-0.278-0.175
		c-0.083-0.057-0.129-0.196-0.248-0.211c-0.093-0.01-0.201,0.067-0.319,0.077c-0.099,0.01-0.217-0.103-0.315-0.093
		c-0.098,0.01-0.19,0.072-0.294,0.078c-0.103,0.01-0.196,0.067-0.299,0.077c-0.098,0.01-0.211-0.103-0.315-0.098
		c-0.098,0.005-0.181,0.217-0.284,0.222c-0.103,0.01-0.196,0.062-0.299,0.067c-0.108,0.005-0.248-0.232-0.345-0.211
		c-0.108,0.021-0.181,0.186-0.273,0.227c-0.104,0.031-0.16,0.144-0.248,0.196c-0.083,0.052-0.263,0.021-0.33,0.098
		c-0.062,0.077-0.087,0.206-0.129,0.304c-0.036,0.093,0.139,0.237,0.119,0.351c-0.01,0.093-0.093,0.165-0.093,0.278
		c0,0.093-0.129,0.196-0.124,0.289c0,0.093,0.093,0.186,0.093,0.289c0,0.093,0.01,0.186,0.01,0.289
		c0.005,0.093-0.093,0.196-0.093,0.289c0,0.098,0.01,0.196,0.015,0.289c0.005,0.098-0.021,0.196-0.015,0.289
		c0,0.098,0.041,0.191,0.041,0.289c0.01,0.098-0.134,0.196-0.129,0.294s-0.026,0.191-0.026,0.289c0.005,0.098,0.34,0.181,0.34,0.279
		c0.005,0.093-0.268,0.196-0.268,0.294c0.005,0.103,0.052,0.217,0.072,0.289c0.021,0.103,0.248,0.083,0.299,0.145
		c0.057,0.062,0,0.31,0.093,0.335c0.077,0.026,0.207-0.242,0.299-0.242c0.083,0,0.155,0.016,0.252,0
		c0.098-0.016,0.243,0.273,0.335,0.258c0.103-0.016,0.175-0.196,0.273-0.207c0.098-0.021,0.196-0.021,0.294-0.031
		c0.104-0.021,0.181-0.175,0.279-0.186c0.103-0.01,0.216,0.119,0.315,0.108c0.098-0.016,0.181-0.181,0.278-0.191
		c0.098-0.016,0.222,0.237,0.325,0.227c0.098-0.011,0.195,0.046,0.299,0.041c0.098-0.01,0.196-0.021,0.289-0.021
		c0.104-0.005,0.186-0.279,0.289-0.279c0.098-0.01,0.201,0.269,0.299,0.269c0.104,0,0.206-0.119,0.299-0.119
		c0.104,0,0.201-0.046,0.289-0.057c0.114-0.005,0.217-0.01,0.3-0.021c0.113-0.026,0.108-0.196,0.175-0.248
		c0.072-0.062,0.32-0.01,0.341-0.113c0.021-0.083-0.083-0.207-0.083-0.32c0-0.083-0.145-0.17-0.154-0.279
		c-0.011-0.087,0.01-0.186,0-0.289c-0.011-0.093,0.016-0.191,0-0.299c-0.011-0.093,0.031-0.217-0.041-0.31
		c-0.063-0.083-0.083-0.217-0.165-0.299c-0.078-0.072-0.248-0.052-0.32-0.124c-0.031-0.031-0.319,0.134-0.319,0.145
		c0.03,0.083,0.175,0.114,0.216,0.196c0.036,0.083,0.042,0.175,0.083,0.258s0.021,0.186,0.052,0.273
		c0.021,0.077-0.052,0.186-0.031,0.268c0.021,0.088,0.17,0.15,0.176,0.232c0.01,0.083,0.052,0.191,0.041,0.268
		c-0.005,0.042-0.269-0.021-0.402,0.01c-0.124,0.031-0.129,0.021-0.17-0.015c-0.078-0.067-0.346,0.119-0.418,0.072
		c-0.093-0.057-0.135-0.108-0.217-0.145c-0.093-0.036-0.113-0.299-0.206-0.315c-0.104-0.01-0.187,0.248-0.279,0.258
		c-0.093,0.021-0.263-0.268-0.36-0.232c-0.083,0.031-0.031,0.397-0.119,0.438c-0.082,0.042-0.33-0.207-0.413-0.155
		c-0.077,0.052-0.18,0.083-0.263,0.129c-0.083,0.052-0.145,0.129-0.227,0.175c-0.083,0.047-0.129,0.114-0.206,0.145
		c-0.093,0.036-0.145,0.33-0.237,0.33c-0.093,0-0.072-0.335-0.145-0.387c-0.062-0.052-0.108-0.031-0.145-0.134
		c-0.031-0.072-0.191-0.124-0.207-0.227c-0.01-0.098-0.087-0.196-0.093-0.289c-0.01-0.103-0.067-0.201-0.072-0.299
		c-0.005-0.098,0.046-0.201,0.042-0.299c-0.005-0.103,0.211-0.216,0.206-0.32c-0.01-0.093-0.258-0.17-0.273-0.268
		c-0.01-0.103,0.119-0.222,0.098-0.32c-0.021-0.093-0.098-0.181-0.124-0.273c-0.042-0.124-0.083-0.222-0.088-0.315
		c-0.005-0.134,0.057-0.237,0.113-0.304c0.062-0.077,0.17-0.077,0.284-0.119c0.093-0.021,0.17-0.196,0.284-0.217
		c0.098-0.01,0.186-0.057,0.284-0.072c0.093-0.011,0.216,0.175,0.31,0.16c0.093-0.016,0.155-0.17,0.248-0.201
		c0.093-0.021,0.253,0.134,0.335,0.093c0.088-0.041,0.077-0.227,0.149-0.294c0.067-0.062,0.031-0.17,0.083-0.258
		c0.046-0.078,0.093-0.119,0.129-0.217c0.025-0.088,0.149-0.211,0.17-0.315c0.083,0.062,0.232,0.145,0.3,0.196
		c0.072,0.067,0.098,0.186,0.165,0.237c0.072,0.062,0.072,0.207,0.145,0.263C29.441,18.291,29.514,18.167,29.591,18.229z"/>
	<path d="M34.697,8.984c0.006,0.104-0.227,0.17-0.216,0.269c0.005,0.103-0.036,0.201-0.026,0.299
		c0.011,0.103,0.113,0.186,0.124,0.289c0.011,0.093,0.093,0.186,0.104,0.284c0.01,0.098-0.006,0.196,0.005,0.294
		c0.01,0.103-0.17,0.216-0.16,0.31c0.011,0.103,0.113,0.186,0.124,0.289c0.005,0.098,0.227,0.175,0.237,0.273
		s-0.31,0.222-0.305,0.315c0.006,0.098,0.021,0.196,0.026,0.289c0.005,0.098,0.222,0.186,0.227,0.279
		c0,0.098,0.124,0.196,0.124,0.294c0.01,0.103-0.206,0.211-0.212,0.32c-0.005,0.103,0.083,0.211,0.078,0.32
		c-0.011,0.108,0.082,0.227,0.062,0.33c-0.011,0.108-0.124,0.201-0.155,0.299c-0.021,0.108-0.247,0.129-0.288,0.222
		c-0.047,0.098-0.006,0.217-0.072,0.289c-0.063,0.077-0.186,0.036-0.273,0.093c-0.088,0.052-0.036,0.372-0.14,0.413
		c-0.093,0.036-0.247-0.083-0.351-0.051c-0.093,0.021-0.181,0.113-0.278,0.144c-0.099,0.021-0.232-0.062-0.33-0.041
		c-0.104,0.031-0.207,0.052-0.305,0.083c-0.088,0.031-0.186,0.01-0.284,0.031c-0.093,0.021-0.181,0.005-0.273,0.021
		c-0.098,0.01-0.17,0.149-0.263,0.155c-0.093,0.01-0.19,0.124-0.284,0.124c-0.098,0-0.195-0.01-0.294-0.01
		c-0.093-0.01-0.17-0.232-0.268-0.237c-0.093-0.01-0.228,0.314-0.325,0.299c-0.093-0.01-0.181-0.114-0.273-0.124
		c-0.093-0.021-0.201,0.052-0.294,0.036c-0.099-0.016-0.181-0.072-0.279-0.087c-0.098-0.016-0.18-0.083-0.278-0.093
		c-0.093-0.01-0.17-0.222-0.263-0.227c-0.093-0.01-0.196-0.051-0.294-0.057c-0.099-0.005-0.191,0.325-0.294,0.325
		c-0.093,0-0.176,0-0.279,0.01c-0.093,0.01-0.195-0.01-0.288-0.005c-0.094,0.005-0.217-0.304-0.31-0.299
		c-0.093,0.005-0.186,0.155-0.278,0.16c-0.093,0-0.191,0.093-0.289,0.098c-0.093,0.005-0.196-0.046-0.294-0.046
		s-0.191,0.165-0.289,0.16c-0.098,0-0.191-0.139-0.289-0.139c-0.098,0-0.191-0.222-0.284-0.222
		c-0.093-0.005-0.201,0.356-0.299,0.356c-0.093-0.005-0.186-0.32-0.284-0.32c-0.093-0.005-0.196,0.103-0.294,0.098
		c-0.093-0.005-0.196,0.16-0.294,0.16c-0.098-0.005-0.191-0.057-0.289-0.062c-0.098,0-0.181-0.289-0.284-0.289
		c-0.093-0.011-0.196,0.087-0.289,0.083c-0.093,0-0.196,0.041-0.294,0.041c-0.093-0.005-0.191-0.052-0.289-0.062
		c-0.093,0-0.191,0-0.284,0c-0.098,0-0.196-0.057-0.289-0.057c-0.098,0-0.196,0.093-0.299,0.093c-0.093,0-0.186,0.207-0.289,0.207
		c-0.093,0-0.201-0.036-0.289-0.036c-0.103-0.01-0.227,0.01-0.31-0.01c-0.098-0.026-0.031-0.376-0.098-0.428
		c-0.072-0.057-0.335,0.072-0.377-0.016c-0.036-0.083,0.052-0.217,0.042-0.32c-0.021-0.083-0.062-0.17-0.062-0.278
		c0-0.098,0.145-0.196,0.145-0.299c0-0.098-0.263-0.196-0.263-0.294c0-0.098,0.186-0.201,0.186-0.305
		c-0.005-0.093-0.186-0.186-0.191-0.289c0-0.093,0.227-0.207,0.222-0.31c-0.005-0.098-0.258-0.17-0.273-0.269
		c-0.01-0.098,0.026-0.196,0.01-0.299c-0.021-0.093,0.129-0.227,0.103-0.331c-0.021-0.093-0.237-0.134-0.268-0.227
		c-0.031-0.093,0.067-0.237,0.031-0.331c-0.041-0.083-0.026-0.17-0.041-0.268c-0.021-0.088-0.104-0.165-0.104-0.263
		c0-0.087,0.005-0.186,0.021-0.284c0.005-0.087,0.087-0.17,0.103-0.268c0.016-0.093-0.01-0.186,0.01-0.284
		c0.016-0.088-0.165-0.222-0.145-0.315c0.021-0.093,0.289-0.134,0.305-0.232c0.015-0.098-0.046-0.201-0.036-0.294
		c0.01-0.093,0.18-0.186,0.186-0.279c0-0.087-0.237-0.175-0.248-0.268s0.083-0.196,0.072-0.289s-0.01-0.186-0.021-0.278
		c-0.021-0.088-0.062-0.17-0.078-0.263C20.97,7.292,20.95,7.2,20.939,7.112c-0.005-0.093,0.098-0.18,0.093-0.273
		c0-0.113-0.237-0.248-0.206-0.33c0.031-0.093,0.196-0.145,0.258-0.216c0.062-0.072,0.124-0.176,0.217-0.217
		c0.083-0.042,0.196-0.036,0.299-0.062c0.088-0.016,0.176-0.155,0.279-0.16c0.103-0.005,0.206,0.108,0.304,0.103
		c0.093-0.005,0.196,0.031,0.294,0.026c0.104-0.01,0.196,0.01,0.299,0c0.098-0.01,0.207,0.113,0.299,0.103
		c0.098-0.005,0.196,0.01,0.289,0c0.098-0.01,0.186-0.113,0.289-0.124c0.098-0.005,0.181-0.175,0.279-0.18
		c0.103-0.005,0.196,0.015,0.299,0.005c0.098-0.005,0.207,0.186,0.31,0.181c0.093-0.005,0.17-0.284,0.269-0.289
		c0.103-0.005,0.206,0.088,0.299,0.078c0.103-0.005,0.196-0.021,0.294-0.026s0.201,0.057,0.294,0.046
		c0.103-0.005,0.196-0.098,0.289-0.103c0.098-0.01,0.206,0.186,0.31,0.181c0.093-0.005,0.175-0.273,0.268-0.284
		c0.103-0.01,0.206,0.104,0.304,0.093c0.098-0.005,0.191-0.031,0.294-0.042c0.093-0.01,0.202,0.114,0.299,0.108
		c0.093-0.005,0.196,0.041,0.294,0.036c0.098-0.01,0.191-0.088,0.289-0.093c0.098-0.01,0.201,0.021,0.294,0.01
		c0.104-0.01,0.186-0.186,0.284-0.196c0.098-0.005,0.206,0.14,0.304,0.134c0.099-0.01,0.176-0.299,0.273-0.304
		c0.099-0.005,0.212,0.242,0.305,0.232c0.098-0.01,0.196-0.016,0.294-0.021c0.098-0.01,0.191-0.124,0.284-0.134
		c0.103-0.005,0.206,0.114,0.299,0.104c0.104,0,0.186-0.207,0.284-0.217c0.098-0.005,0.201,0.057,0.294,0.051
		c0.093,0,0.195,0.011,0.288,0.005c0.094-0.005,0.187-0.067,0.289-0.067c0.099,0,0.196-0.01,0.289-0.01s0.196-0.036,0.289-0.031
		c0.104,0,0.196,0.155,0.289,0.155c0.098,0,0.196-0.134,0.294-0.134c0.098,0.011,0.186,0.186,0.283,0.186
		c0.093,0.005,0.191,0,0.289,0.005c0.093,0.005,0.207-0.145,0.3-0.139c0.093,0.01,0.195-0.01,0.288,0
		c0.078,0.01,0.124,0.227,0.207,0.289c0.072,0.051,0.175,0.072,0.237,0.145c0.066,0.072,0.072,0.175,0.124,0.248
		c0.051,0.093,0.071,0.155,0.077,0.237c0.01,0.098,0.145,0.186,0.149,0.289c0.011,0.104,0.077,0.207,0.082,0.31
		c0.011,0.098-0.252,0.207-0.252,0.31s0.098,0.201,0.098,0.299c0,0.103,0.124,0.201,0.124,0.304c0,0.098-0.124,0.201-0.129,0.299
		c-0.006,0.098,0.066,0.207,0.066,0.304c0,0.104-0.134,0.201-0.134,0.305c0,0.098,0.041,0.186,0.041,0.289
		C34.518,8.933,34.724,8.984,34.697,8.984z M33.568,6.601c-0.108-0.015-0.072-0.216-0.176-0.232
		c-0.108-0.01-0.201-0.077-0.305-0.088c-0.108-0.01-0.222,0.072-0.324,0.062c-0.104-0.01-0.217,0.046-0.32,0.031
		c-0.104-0.011-0.196-0.046-0.299-0.057c-0.104-0.015-0.171-0.222-0.279-0.242c-0.103-0.021-0.227,0.041-0.33,0.021
		c-0.103-0.021-0.237,0.165-0.34,0.155c-0.108-0.01-0.207-0.34-0.315-0.335c-0.098,0.005-0.195,0.016-0.294,0.026
		c-0.103,0.01-0.186,0.227-0.283,0.232c-0.099,0.005-0.191,0.129-0.289,0.139s-0.212-0.207-0.305-0.196
		c-0.103,0.01-0.19,0.104-0.289,0.108c-0.103,0.005-0.19,0.119-0.288,0.129c-0.104,0.005-0.207-0.077-0.3-0.072
		c-0.103,0.005-0.217-0.186-0.31-0.18c-0.103,0.005-0.19,0.108-0.288,0.119c-0.104,0.005-0.207-0.104-0.305-0.093
		c-0.098,0.011-0.176,0.32-0.273,0.331c-0.098,0.01-0.207-0.145-0.31-0.14c-0.098,0.005-0.196,0.078-0.289,0.088
		c-0.098,0.01-0.206-0.103-0.299-0.093c-0.103,0.005-0.201,0-0.299,0.01c-0.098,0.005-0.201-0.036-0.299-0.031
		c-0.103,0.01-0.207-0.016-0.299-0.011c-0.098,0.011-0.186,0.145-0.284,0.15c-0.098,0.005-0.191,0.129-0.289,0.134
		c-0.098,0.005-0.196,0.01-0.294,0.015c-0.103,0.01-0.217-0.196-0.31-0.191c-0.103,0.005-0.175,0.356-0.273,0.361
		c-0.098,0.005-0.206-0.078-0.304-0.067c-0.093,0.005-0.175,0.093-0.268,0.104c-0.093,0.005-0.186-0.031-0.279-0.026
		s-0.186-0.042-0.278-0.036c-0.093,0.01-0.196-0.175-0.289-0.165s-0.191-0.016-0.284,0c-0.088,0.01-0.124,0.351-0.217,0.372
		c-0.088,0.01-0.17,0.021-0.263,0.046c-0.072,0.015-0.083,0.01-0.155,0.098c-0.062,0.072-0.387-0.01-0.423,0.078
		c-0.046,0.098,0.052,0.273,0.062,0.356c0,0.093,0.093,0.191,0.103,0.289c0,0.098-0.052,0.196-0.046,0.299
		c0.005,0.093,0.17,0.186,0.181,0.289c0,0.093-0.124,0.196-0.124,0.299c0.005,0.098-0.206,0.206-0.206,0.299
		c0.01,0.104,0.371,0.181,0.381,0.279c0,0.103-0.304,0.217-0.299,0.31c0,0.103,0.119,0.196,0.124,0.289
		c0,0.103,0.181,0.19,0.186,0.289c0,0.098-0.042,0.196-0.036,0.299c0.005,0.093-0.273,0.207-0.263,0.31
		c0,0.098,0.108,0.186,0.113,0.289c0,0.098,0.052,0.19,0.062,0.289c0.005,0.103-0.042,0.196-0.031,0.299
		c0.005,0.098,0.015,0.196,0.021,0.299c0,0.093-0.046,0.196-0.042,0.289c0,0.104,0.104,0.196,0.114,0.289
		c0,0.103,0.211,0.191,0.216,0.289c0.011,0.098-0.021,0.196-0.015,0.299c0.005,0.093,0.046,0.191,0.046,0.289
		c0.005,0.129-0.33,0.294-0.299,0.382c0.036,0.124,0.33,0.062,0.413,0.113c0.083,0.057,0.114,0.196,0.243,0.207
		c0.098,0.01,0.201-0.021,0.325-0.026c0.093,0,0.196,0.145,0.289,0.145s0.191-0.263,0.289-0.263c0.093,0,0.186,0.186,0.289,0.186
		c0.093,0,0.191-0.18,0.289-0.18c0.093,0,0.186,0.242,0.279,0.242c0.098,0,0.196-0.242,0.289-0.237c0.098,0,0.196,0.052,0.289,0.057
		c0.093,0.005,0.186,0.181,0.278,0.181c0.093,0.005,0.196-0.186,0.294-0.186c0.098,0.005,0.186,0.149,0.284,0.155
		c0.093,0,0.191,0.036,0.289,0.041c0.093,0,0.191-0.077,0.289-0.072c0.093,0,0.186,0.005,0.278,0.011
		c0.098,0,0.196,0.072,0.289,0.072c0.093,0.011,0.196-0.036,0.289-0.031c0.093,0,0.196-0.196,0.289-0.196
		c0.104,0,0.186,0.258,0.284,0.263c0.098,0,0.191-0.077,0.289-0.077c0.098,0,0.191,0.17,0.284,0.17c0.103,0,0.206-0.237,0.299-0.237
		c0.104,0,0.196,0.108,0.299,0.108c0.099,0,0.196,0.021,0.3,0.021c0.093,0,0.195-0.031,0.294-0.031c0.098,0,0.196-0.005,0.294,0
		c0.104,0,0.196,0.108,0.299,0.108c0.099,0,0.196-0.253,0.294-0.253c0.099,0,0.201,0.114,0.295,0.114
		c0.103,0,0.201-0.052,0.299-0.052s0.196,0.042,0.299,0.042c0.093,0,0.196-0.129,0.294-0.129c0.099,0,0.196,0.124,0.295,0.124
		c0.103,0,0.195,0.046,0.299,0.042c0.098,0,0.196,0.026,0.294,0.026s0.201,0.124,0.305,0.124c0.093,0,0.195,0.021,0.294,0.021
		c0.098,0,0.201-0.103,0.299-0.103c0.099,0,0.145-0.145,0.248-0.145c0-0.098,0.005-0.145,0.005-0.242
		c0-0.098,0.206-0.196,0.206-0.294c0-0.104-0.268-0.196-0.268-0.299c0-0.098,0.103-0.196,0.103-0.299c0-0.093-0.01-0.196-0.01-0.289
		c0-0.103,0.072-0.201,0.072-0.299c0-0.104-0.088-0.196-0.088-0.299c0-0.098,0.206-0.196,0.206-0.294
		c0-0.098-0.263-0.201-0.263-0.294c0-0.103,0.113-0.201,0.113-0.299c0-0.098-0.021-0.196-0.021-0.299
		c0-0.093,0.129-0.196,0.129-0.294c0-0.098,0.052-0.196,0.052-0.294c0-0.103-0.072-0.196-0.072-0.299
		c0-0.098,0.036-0.196,0.036-0.294c0-0.098-0.176-0.201-0.176-0.294c0-0.103,0.155-0.201,0.155-0.299
		c0-0.098-0.284-0.196-0.284-0.299c0-0.093,0.253-0.196,0.253-0.294c0-0.098-0.005-0.196-0.005-0.294
		c0-0.103-0.108-0.196-0.108-0.299c0-0.098,0.118-0.196,0.118-0.294c0-0.098-0.201-0.201-0.201-0.294
		c0-0.098,0.063-0.196,0.063-0.299c0-0.093,0.021-0.196,0.021-0.289C33.661,6.684,33.568,6.694,33.568,6.601z"/>
	<path d="M28.766,41.051c0.077,0.067,0.324-0.021,0.396,0.036c0.083,0.067,0.114,0.171,0.187,0.212
		c0.098,0.062,0.134,0.124,0.216,0.134c0.093,0.011,0.269,0.16,0.356,0.088c0.057-0.046-0.005-0.258,0.052-0.355
		c0.046-0.067,0.222-0.083,0.273-0.176c0.041-0.077-0.067-0.237-0.021-0.33c0.036-0.083,0.165,0.031,0.206-0.062
		c0.057,0.072,0.134-0.104,0.196-0.042c0.066,0.067,0.041,0.217,0.103,0.279c0.067,0.072,0.228,0.062,0.278,0.123
		c0.063,0.093,0.104,0.237,0.094,0.31c-0.021,0.104-0.289,0.176-0.295,0.264c-0.005,0.103,0.223,0.201,0.243,0.283
		c0.021,0.104,0.082,0.155,0.124,0.237c0.051,0.083,0.025,0.207,0.103,0.278c0.063,0.063,0.083,0.232,0.176,0.279
		c0.077,0.041,0.258-0.104,0.351-0.067c0.057,0.025,0.072,0.149,0.154,0.33c0.036,0.077,0.124,0.201,0.191,0.32
		c-0.104-0.016-0.212-0.222-0.299-0.243c-0.104-0.021-0.243,0.196-0.336,0.181c-0.098-0.016-0.175-0.145-0.269-0.159
		c-0.103-0.021-0.19-0.063-0.288-0.078c-0.093-0.021-0.217,0.088-0.31,0.072c-0.093-0.021-0.258-0.253-0.352-0.273
		c-0.03,0.072,0.063,0.341,0.031,0.423c-0.031,0.072-0.263,0.072-0.299,0.15c-0.031,0.077,0.222,0.268,0.186,0.346
		c-0.036,0.093-0.341,0.051-0.382,0.129c-0.046,0.087-0.093,0.139-0.149,0.211c-0.057,0.083,0.108,0.351,0.041,0.413
		c-0.072,0.066-0.139,0.186-0.222,0.237c-0.083,0.046-0.222,0.062-0.31,0.082c-0.093,0.026-0.227-0.237-0.319-0.237
		c-0.094,0.011-0.155-0.03-0.248-0.051c-0.088-0.011-0.217,0.144-0.305,0.113c-0.087-0.031-0.211,0.01-0.304-0.031
		c-0.088-0.041-0.042-0.314-0.114-0.361c-0.088-0.052-0.181-0.041-0.237-0.093c-0.083-0.072-0.093-0.124-0.134-0.196
		c-0.041-0.082-0.046-0.093-0.041-0.19c0.005-0.077-0.083-0.17-0.042-0.263c0.036-0.072-0.036-0.228,0.021-0.31
		c0.052-0.072,0.331,0.03,0.392-0.042c0.067-0.077-0.113-0.346-0.051-0.423c0.057-0.082,0.093-0.165,0.144-0.253
		c0.052-0.087,0.201-0.108,0.243-0.206c0.036-0.088,0.201-0.325,0.231-0.428c-0.088,0.066-0.247,0.31-0.33,0.366
		c-0.082,0.066-0.17,0.118-0.248,0.181c-0.083,0.066-0.175,0.113-0.258,0.18c-0.083,0.067-0.207,0.078-0.284,0.14
		c-0.088,0.062-0.129,0.145-0.211,0.206c-0.098-0.072-0.15-0.139-0.248-0.217c0.057-0.093,0.01-0.201,0.072-0.288
		c0.052-0.093,0.299-0.063,0.351-0.155c0.052-0.088-0.124-0.319-0.072-0.412c0.052-0.088,0.232-0.104,0.289-0.196
		c0.051-0.093-0.042-0.176,0.01-0.258c-0.078-0.057-0.042-0.104-0.124-0.155c-0.072-0.052-0.175-0.062-0.258-0.118
		c-0.072-0.047-0.016-0.3-0.103-0.356c-0.072-0.052-0.145,0.042-0.237-0.016c0.103-0.03,0.144,0.058,0.237,0.026
		c0.093-0.031,0.113-0.3,0.196-0.325c0.103-0.031,0.248,0.108,0.34,0.077c0.093-0.03,0.217,0.052,0.31,0.021
		c0.093-0.03,0.145-0.195,0.237-0.222c0.093-0.025,0.145-0.253,0.237-0.268c0.113-0.021,0.258,0.025,0.371,0.03
		c0.114,0.006,0.243-0.036,0.352-0.025c0.113,0.01,0.149,0.247,0.263,0.253c-0.046,0.072-0.14,0.036-0.186,0.113
		c-0.041,0.072-0.005,0.201-0.052,0.273c-0.046,0.072-0.025,0.186-0.077,0.258C28.961,40.901,28.812,40.974,28.766,41.051z"/>
	<path d="M30.834,24.884c-0.083,0.052-0.258-0.062-0.33-0.021c-0.083,0.051-0.067,0.252-0.14,0.289
		c-0.082,0.052-0.181,0.052-0.253,0.093c-0.077,0.046-0.237,0.227-0.31,0.268c0.114,0,0.341-0.227,0.429-0.207
		c0.108,0.016,0.149,0.237,0.232,0.279c0.093,0.051,0.268-0.005,0.33,0.067c0.062,0.078,0.216,0.134,0.263,0.222
		c0.047,0.093,0.088,0.201,0.129,0.294c0.031,0.093,0.041,0.201,0.072,0.294c0.041,0.093-0.021,0.217,0.025,0.31
		c0.047,0.087,0.088,0.165,0.15,0.248c0.062,0.083,0.195,0.196,0.278,0.258c-0.104,0.042-0.335,0.01-0.423,0.062
		c-0.093,0.057-0.021,0.299-0.093,0.361c-0.078,0.083-0.165,0.093-0.207,0.186c-0.041,0.093-0.108,0.155-0.123,0.263
		c-0.011,0.098-0.228,0.211-0.217,0.319c0.005,0.099,0.206,0.187,0.227,0.294c0.021,0.094-0.098,0.232-0.067,0.341
		c0.021,0.077,0.187,0.145,0.181,0.242c-0.01,0.088-0.252,0.124-0.278,0.217c-0.021,0.088,0.212,0.253,0.176,0.336
		c-0.036,0.093-0.191,0.113-0.237,0.186c-0.063,0.077-0.036,0.242-0.104,0.289c-0.067,0.046-0.165,0.093-0.248,0.139
		c-0.077,0.047-0.258-0.16-0.351-0.129c-0.082,0.031-0.103,0.269-0.195,0.278c-0.094,0.006-0.207,0.036-0.3,0.006
		c-0.082-0.026-0.124-0.155-0.201-0.222c-0.067-0.052-0.01-0.187-0.072-0.269c-0.052-0.083-0.273-0.083-0.299-0.186
		c-0.026-0.093,0.016-0.207,0.016-0.32c0-0.098-0.031-0.211-0.021-0.314c0.015-0.104,0.258-0.145,0.288-0.242
		c0.031-0.104-0.154-0.279-0.113-0.372c0.052-0.093,0.196-0.123,0.258-0.201c0.067-0.088,0.145-0.123,0.228-0.17
		c0.082-0.047,0.113-0.186,0.222-0.269c0.072-0.052,0.366-0.103,0.448-0.216c-0.093-0.01-0.376,0.041-0.464,0.021
		c-0.093-0.01-0.154-0.248-0.242-0.258s-0.212,0.278-0.3,0.278c-0.098-0.01-0.186-0.289-0.283-0.294
		c-0.099-0.005-0.155-0.021-0.258-0.046c-0.083-0.021-0.341,0.145-0.444,0.088c0.063-0.067,0.119-0.294,0.187-0.366
		c0.062-0.067,0.154-0.104,0.216-0.17c0.063-0.067,0.366-0.057,0.434-0.129c-0.088-0.031-0.237-0.196-0.325-0.237
		c-0.077-0.036-0.231,0.093-0.33,0.051c-0.077-0.031-0.263-0.072-0.355-0.113c0.082-0.062,0.366-0.01,0.438-0.072
		c0.088-0.072,0.129-0.181,0.201-0.237c0.103-0.083,0.237-0.181,0.299-0.232c-0.016-0.088-0.036-0.253-0.062-0.351
		c-0.021-0.098-0.155-0.165-0.181-0.252c-0.026-0.104-0.186-0.17-0.201-0.253c-0.026-0.139,0.19-0.129,0.237-0.16
		c0.082-0.057-0.005-0.366,0.077-0.413c0.088-0.052,0.176-0.113,0.264-0.155c0.087-0.041,0.231,0.042,0.324,0.01
		c0.093-0.025,0.212,0.165,0.305,0.155s0.181-0.227,0.278-0.216c0.093,0.015,0.191,0.041,0.284,0.072
		c0.088,0.026,0.175,0.072,0.263,0.114C30.658,24.781,30.751,24.832,30.834,24.884z"/>
	<path d="M28.832,33.612c-0.021,0.098-0.283,0.083-0.299,0.186c-0.016,0.108,0.186,0.242,0.17,0.346
		c-0.016,0.108-0.025,0.232-0.057,0.325c-0.031,0.104-0.088,0.253-0.154,0.33c-0.057,0.072-0.228,0.062-0.305,0.119
		c-0.072,0.057-0.134,0.149-0.217,0.201c-0.077,0.041-0.191,0.041-0.273,0.082c-0.087,0.041-0.258-0.093-0.34-0.041
		c-0.088,0.041-0.093,0.253-0.175,0.299c-0.042-0.088-0.057-0.206-0.114-0.294c-0.062-0.088-0.031-0.222-0.083-0.314
		c-0.051-0.088-0.351-0.052-0.387-0.149c-0.042-0.099,0.124-0.253,0.124-0.346c0-0.104-0.144-0.217-0.129-0.315
		c0.021-0.098-0.041-0.242-0.005-0.335s0.087-0.206,0.145-0.294c0.046-0.088,0.149-0.17,0.216-0.242
		c0.067-0.078,0.217-0.083,0.294-0.149c0.072-0.067,0.166-0.13,0.248-0.176c0.083-0.052,0.155-0.149,0.248-0.191
		c0.087-0.035,0.237,0.094,0.335,0.072c0.098-0.025,0.16-0.278,0.263-0.288c0.099-0.006,0.217,0.051,0.32,0.062
		c0.093,0.011,0.195,0.072,0.294,0.098c0.098,0.026,0.077,0.253,0.16,0.31c0.082,0.057,0.263-0.025,0.319,0.057
		c0.057,0.072-0.031,0.217,0.011,0.315c0.03,0.087,0.211,0.134,0.227,0.231c0.016,0.093-0.206,0.196-0.212,0.3
		c0,0.093,0.264,0.206,0.248,0.304c-0.016,0.099-0.165,0.16-0.19,0.259c-0.031,0.093,0.051,0.231,0.005,0.319
		c-0.047,0.088-0.108,0.17-0.165,0.253c-0.052,0.082-0.124-0.062-0.191,0.01c-0.01-0.093-0.108,0-0.123-0.087
		c-0.011-0.099-0.063-0.181-0.078-0.273s0.072-0.201,0.057-0.294c-0.01-0.099,0.104-0.212,0.088-0.3
		c-0.016-0.098-0.231-0.16-0.253-0.253c-0.01-0.093,0.026-0.186,0.011-0.278C28.807,33.483,28.895,33.602,28.832,33.612z"/>
	<path d="M26.872,38.678c0.093-0.01,0.201,0.145,0.304,0.135c0.098-0.011,0.181-0.093,0.284-0.104
		c0.093-0.01,0.211,0.155,0.31,0.145c0.093-0.016,0.175-0.118,0.278-0.129c0.093-0.011,0.176-0.149,0.279-0.154
		c0.093-0.016,0.195,0.051,0.294,0.046c0.098-0.011,0.186-0.149,0.283-0.154c0.104-0.011,0.207,0.134,0.305,0.134
		c0.098-0.005,0.19-0.232,0.289-0.237c0.098,0,0.175,0.294,0.278,0.319c0.093,0.021,0.263-0.144,0.355-0.103
		c0.088,0.041,0.196,0.082,0.279,0.139c0.093,0.052,0.195,0.108,0.273,0.165c0.046,0.036-0.026,0.253-0.047,0.377
		c-0.01,0.083,0.021,0.191,0,0.278c-0.021,0.099-0.098,0.187-0.113,0.269c-0.093-0.052-0.113-0.273-0.206-0.325
		c-0.099-0.057-0.284,0.052-0.382-0.005c-0.072-0.047-0.104-0.176-0.181-0.206c-0.077-0.031-0.17-0.155-0.273-0.165
		c-0.093-0.011-0.196,0.258-0.3,0.258c-0.093,0-0.19-0.191-0.288-0.176c-0.093,0.005-0.165,0.165-0.264,0.186
		c-0.088,0.011-0.16,0.119-0.258,0.135c-0.088,0.016-0.181,0.03-0.269,0.057c-0.093,0.016-0.19,0.01-0.278,0.036
		c-0.087,0.025-0.211-0.047-0.294-0.021c-0.093,0.03-0.186,0.057-0.268,0.087c-0.093,0.031-0.165,0.119-0.248,0.15
		c-0.093,0.036-0.248-0.083-0.331-0.047c-0.093,0.041-0.062,0.294-0.144,0.335c-0.088,0.052-0.186,0.042-0.258,0.088
		c-0.093,0.063-0.18,0.077-0.237,0.135c-0.046,0.046-0.237-0.078-0.309-0.042c-0.093,0.047-0.129,0.232-0.17,0.212
		c-0.062-0.036,0.005-0.186-0.036-0.269c-0.031-0.082-0.211-0.118-0.217-0.196c0-0.098,0.232-0.175,0.248-0.258
		c0.01-0.103-0.237-0.247-0.206-0.33c0.036-0.093,0.196-0.123,0.258-0.195c0.057-0.072,0.052-0.228,0.134-0.289
		c0.072-0.047,0.18-0.083,0.278-0.113c0.083-0.031,0.227,0.195,0.33,0.175c0.083-0.01,0.145-0.247,0.243-0.253
		C26.676,38.756,26.769,38.678,26.872,38.678z"/>
	<path d="M36.56,49.047c-0.098,0.011-0.288-0.021-0.381-0.005s-0.191,0-0.284,0.016c-0.098,0.021-0.16,0.196-0.258,0.206
		c-0.098,0.021-0.222-0.211-0.314-0.206c-0.093,0.01-0.176,0.124-0.269,0.134c-0.098,0.006-0.206-0.181-0.299-0.175
		c-0.099,0.01-0.176,0.195-0.273,0.201c-0.093,0.005-0.187,0.077-0.284,0.077c-0.093,0.01-0.186,0.036-0.278,0.041
		c-0.099,0.005-0.201-0.154-0.294-0.149c-0.099,0.005-0.191,0.077-0.284,0.077c-0.093,0.005-0.196-0.165-0.289-0.165
		c-0.093,0.005-0.186,0.093-0.278,0.099c-0.093,0.005-0.19,0.129-0.289,0.129c-0.093,0-0.186-0.072-0.278-0.072
		c-0.098,0-0.196,0.123-0.289,0.123c-0.098-0.005-0.186-0.165-0.283-0.165c-0.099-0.01-0.201,0.217-0.294,0.207
		c-0.099-0.006-0.176-0.3-0.269-0.305c-0.098-0.005-0.269,0.118-0.366,0.047c-0.088-0.072-0.228-0.217-0.31-0.269
		c0.067-0.063,0.16-0.258,0.227-0.325c0.078-0.077,0.258-0.057,0.336-0.062c0.103-0.006,0.195-0.057,0.288-0.067
		c0.104,0,0.201,0.052,0.295,0.041c0.098-0.01,0.206,0.176,0.304,0.176c0.093-0.005,0.186-0.196,0.279-0.201
		c0.098-0.005,0.195,0.036,0.288,0.036c0.099-0.005,0.201,0.088,0.3,0.082c0.098,0,0.186-0.278,0.278-0.288
		c0.104,0,0.206,0.195,0.299,0.186c0.104,0,0.196-0.16,0.289-0.165c0.093,0,0.191-0.104,0.289-0.104
		c0.098-0.005,0.196-0.011,0.289-0.011c0.103-0.01,0.201,0.021,0.299,0.021c0.093-0.006,0.196,0.093,0.294,0.093
		c0.099-0.011,0.191-0.011,0.294-0.011c0.094,0,0.191-0.057,0.289-0.062c0.104,0,0.196,0.175,0.3,0.175
		c0.103,0,0.252-0.206,0.355-0.175c0.093,0.036,0.181,0.145,0.273,0.186s0.196,0.154,0.289,0.186
		C36.534,48.717,36.57,48.944,36.56,49.047z"/>
	<path d="M24.767,29.935c0-0.108,0.15-0.176,0.165-0.264c0.021-0.103,0.031-0.145,0.072-0.222c0.052-0.088,0.052-0.14,0.124-0.201
		c0.072-0.052,0.046-0.33,0.145-0.361c0.083-0.03,0.222,0.041,0.325,0.036c0.088-0.005,0.191,0.026,0.294,0.031
		c0.104,0.005,0.253-0.129,0.346-0.104c0.098,0.026,0.119,0.294,0.201,0.336c0.093,0.051,0.237,0.021,0.31,0.082
		c0.083,0.072-0.005,0.264,0.052,0.341c0.062,0.093,0.248,0.098,0.258,0.19c0.021,0.099,0.052,0.243,0.01,0.336
		c-0.041,0.087-0.083,0.201-0.145,0.288c-0.051,0.094-0.248,0.083-0.32,0.165c-0.062,0.083-0.077,0.207-0.149,0.279
		c-0.077,0.077-0.263,0.01-0.34,0.077c-0.088,0.067-0.104,0.19-0.191,0.232c-0.103,0.051-0.165,0.206-0.258,0.217
		c-0.098,0.01-0.191-0.067-0.273-0.088c-0.088-0.026-0.248,0.036-0.315-0.026c-0.062-0.062-0.01-0.237-0.062-0.319
		c-0.041-0.072-0.289-0.072-0.32-0.16c-0.031-0.088,0.217-0.253,0.196-0.346c-0.01-0.082-0.237-0.149-0.248-0.237
		C24.644,30.125,24.767,30.021,24.767,29.935z"/>
	<path d="M21.332,46.963c0.103-0.025,0.299,0.005,0.392-0.021c0.103-0.031,0.17-0.196,0.268-0.217
		c0.098-0.021,0.232,0.072,0.335,0.072c0.098,0,0.196-0.062,0.294-0.062c0.104-0.011,0.201,0.093,0.299,0.093
		c0.103,0,0.196-0.005,0.299-0.011c0.103,0,0.201-0.066,0.304-0.066c0.098,0,0.201,0.087,0.299,0.087s0.201,0.145,0.299,0.145
		c0.098,0,0.201,0,0.304,0c0.093,0,0.196-0.041,0.299-0.041c0.093,0,0.196-0.269,0.299-0.269c0.103-0.005,0.196,0.093,0.299,0.093
		c0.098,0,0.196,0.031,0.299,0.031c0.098,0,0.201-0.16,0.299-0.16c0.103,0,0.196,0.243,0.299,0.243c0.072,0,0.175-0.057,0.248-0.011
		c0.072,0.052-0.031,0.17,0.031,0.206c-0.041,0.072,0.088,0.145,0.046,0.228c-0.046,0.103-0.087,0.253-0.17,0.283
		c-0.083,0.031-0.186,0.078-0.273,0.088c-0.088,0.016-0.196-0.145-0.284-0.145c-0.093,0.011-0.181,0.072-0.269,0.072
		c-0.103,0-0.206-0.175-0.31-0.175c-0.103,0-0.206,0.093-0.31,0.093c-0.103,0-0.206,0.134-0.31,0.134
		c-0.103,0-0.206-0.072-0.309-0.072c-0.098,0-0.201,0.134-0.305,0.134c-0.103,0-0.206-0.159-0.304-0.159
		c-0.103,0-0.207,0.222-0.315,0.222c-0.108,0-0.201-0.278-0.304-0.289c-0.103,0-0.207,0.217-0.31,0.212
		c-0.103-0.006-0.206,0.015-0.31,0.005c-0.087,0-0.196,0.01-0.284-0.011c-0.087-0.01-0.149-0.165-0.237-0.186
		c-0.083-0.021-0.181,0-0.268-0.021c-0.088-0.021-0.16-0.104-0.248-0.124C21.424,47.263,21.332,47.066,21.332,46.963z"/>
	<path d="M33.088,47.562c-0.087,0.011-0.242-0.124-0.335-0.113c-0.093,0.005-0.181,0.021-0.269,0.03
		c-0.093,0.006-0.186,0-0.273,0.006c-0.093,0.005-0.186-0.078-0.278-0.078c-0.088,0.006-0.181,0.119-0.269,0.119
		c-0.072,0-0.145-0.093-0.222-0.149c-0.062-0.052-0.196-0.104-0.258-0.145c0.052-0.062,0.124-0.176,0.165-0.237
		c0.052-0.083,0.104-0.258,0.176-0.278c0.082-0.026,0.206,0.051,0.294,0.03s0.154-0.181,0.247-0.195
		c0.088-0.016,0.201,0.087,0.295,0.082c0.093-0.01,0.19-0.072,0.283-0.072s0.191,0.104,0.289,0.104
		c0.093,0.005,0.19,0.005,0.283,0.01c0.099,0,0.201-0.062,0.3-0.057c0.093,0.006,0.186,0.104,0.278,0.108
		c0.098,0,0.191,0.155,0.284,0.165c0.098,0,0.19,0.011,0.288,0.011c0.099,0.01,0.191-0.026,0.295-0.021
		c0.098,0.01,0.211-0.248,0.309-0.237c0.094,0.005,0.187,0.108,0.279,0.118c0.098,0.005,0.195,0.052,0.289,0.063
		c0.082,0.005,0.273-0.058,0.345,0.01c0.058,0.057-0.046,0.294,0.006,0.361c0.062,0.067,0.206,0.108,0.268,0.165
		c-0.082,0.046-0.299-0.031-0.381,0.025c-0.083,0.063-0.072,0.269-0.155,0.31c-0.098,0.052-0.217,0.155-0.305,0.145
		c-0.093-0.01-0.195-0.005-0.294-0.021c-0.093-0.01-0.159-0.19-0.258-0.206c-0.093-0.021-0.196,0.03-0.294,0.01
		s-0.149-0.217-0.248-0.237c-0.098-0.015-0.211,0.052-0.304,0.031s-0.217,0.083-0.31,0.057c-0.093-0.025-0.176-0.118-0.269-0.139
		c-0.093-0.021-0.181,0.093-0.269,0.071C33.052,47.442,33.094,47.53,33.088,47.562z"/>
	<path d="M24.741,27.339c-0.108-0.052-0.139-0.31-0.211-0.361c-0.103-0.072-0.051-0.103-0.062-0.196
		c-0.01-0.088-0.134-0.149-0.051-0.258c0.051-0.072,0.036-0.237,0.134-0.32c0.072-0.072,0.309-0.036,0.356-0.145
		c0.036-0.093,0.072-0.217,0.098-0.32c0.026-0.114-0.134-0.258-0.113-0.361c0.026-0.093,0.217-0.175,0.227-0.278
		c0-0.098-0.145-0.207-0.134-0.31c0.01-0.098-0.113-0.263-0.072-0.351c0.016-0.051,0.33-0.036,0.48-0.041
		c0.139,0,0.314,0.021,0.351,0.077c0.052,0.072,0.078,0.17,0.098,0.269c0.021,0.087-0.057,0.191-0.046,0.284
		c0.015,0.093,0.134,0.165,0.149,0.258c0.021,0.093-0.021,0.186,0,0.33c0.088,0.021,0.186-0.031,0.279-0.01
		c0.083,0.016,0.165,0.062,0.258,0.078c0.093,0.015,0.196-0.062,0.289-0.042c0.093,0.016,0.176,0.149,0.263,0.17
		c0.026,0.077,0.176,0.258,0.201,0.335c-0.087,0.047-0.299,0.057-0.387,0.108c-0.083,0.042-0.139,0.145-0.222,0.186
		c-0.083,0.046-0.217,0.005-0.299,0.051c-0.088,0.042-0.175,0.093-0.258,0.134c-0.088,0.042-0.145,0.139-0.237,0.181
		c-0.083,0.041-0.212-0.005-0.299,0.036c-0.083,0.036-0.237-0.052-0.32-0.021c-0.093,0.042-0.175,0.083-0.263,0.124
		S24.829,27.298,24.741,27.339z"/>
	<path d="M29.255,49.254c-0.093,0-0.278-0.176-0.381-0.176c-0.099,0-0.196-0.052-0.295-0.052c-0.098,0-0.201,0.165-0.294,0.165
		c-0.103,0-0.201-0.253-0.299-0.253c-0.098,0-0.196,0.063-0.299,0.063c-0.093,0-0.196,0.263-0.294,0.263s-0.196-0.227-0.294-0.227
		c-0.098,0-0.196-0.077-0.294-0.077c-0.098,0-0.201,0.149-0.294,0.149c-0.103,0-0.201,0.123-0.299,0.123
		c-0.098,0-0.196-0.227-0.299-0.227c-0.093,0-0.196,0.005-0.294,0.005c-0.098,0-0.196,0.181-0.294,0.181
		c-0.103,0-0.103-0.134-0.196-0.134c0.031-0.093-0.057-0.129-0.016-0.217c0.046-0.093-0.026-0.273,0.031-0.346
		c0.062-0.077,0.263-0.062,0.345-0.113c0.078-0.047,0.176-0.093,0.279-0.108c0.093-0.011,0.196,0,0.299,0.016
		c0.087,0.016,0.16,0.118,0.268,0.149c0.098,0.031,0.227-0.062,0.33-0.047c0.103,0.016,0.207,0.072,0.31,0.078
		c0.103,0,0.207-0.057,0.315-0.057c0.108,0,0.211,0.025,0.314,0.025c0.108,0,0.217-0.098,0.32-0.093c0.108,0,0.207,0.113,0.32,0.118
		c0.104,0.006,0.242-0.113,0.351-0.098c0.104,0.021,0.196,0.165,0.294,0.19c0.108,0.026,0.279,0.016,0.388,0.042
		c-0.006,0.072-0.072,0.231-0.078,0.304C29.193,48.985,29.266,49.182,29.255,49.254z"/>
	<path d="M27.326,47.154c0.087-0.067,0.361-0.067,0.449-0.114c0.093-0.057,0.098-0.304,0.191-0.335
		c0.103-0.036,0.258,0.134,0.355,0.113c0.099-0.021,0.196,0.031,0.3,0.031c0.103-0.011,0.201-0.176,0.304-0.17
		c0.104,0.005,0.181,0.263,0.284,0.273c0.104,0.01,0.211-0.042,0.314-0.031c0.104,0.005,0.212-0.248,0.31-0.248
		c0.104,0,0.217,0.217,0.32,0.201c0.098-0.01,0.072,0.006,0.17-0.025c-0.016,0.104,0.057,0.072,0.036,0.154
		c-0.031,0.104,0.036,0.259-0.011,0.336c-0.062,0.088-0.288,0.005-0.371,0.066c-0.072,0.052-0.124,0.083-0.227,0.114
		c-0.083,0.025-0.15,0.217-0.259,0.222c-0.093,0.005-0.175-0.186-0.283-0.196c-0.088-0.016-0.212,0.119-0.314,0.098
		c-0.088-0.021-0.228,0.104-0.33,0.078c-0.094-0.026-0.15-0.201-0.248-0.237c-0.093-0.031-0.186-0.057-0.284-0.099
		c-0.092-0.03-0.18-0.082-0.278-0.118C27.667,47.241,27.424,47.195,27.326,47.154z"/>
	<path d="M21.455,48.779c0.104-0.031,0.315,0.082,0.413,0.041c0.103-0.041,0.216-0.057,0.31-0.104
		c0.098-0.041,0.077-0.376,0.17-0.412c0.104-0.042,0.279,0.145,0.377,0.123c0.103-0.021,0.216-0.258,0.32-0.247
		c0.103,0.021,0.165,0.247,0.268,0.289c0.093,0.041,0.145,0.145,0.237,0.206c0.093,0.052,0.273-0.021,0.361,0.041
		c0.083,0.067,0.021,0.336,0.104,0.397c0.093,0.067,0.165-0.016,0.248,0.041c-0.078,0.047,0.01,0.201-0.072,0.237
		c-0.093,0.036-0.248-0.149-0.34-0.129c-0.093,0.026-0.191-0.036-0.284-0.021c-0.093,0.016-0.165,0.176-0.258,0.176
		c-0.098,0.01-0.191,0.134-0.284,0.134c-0.098-0.005-0.175-0.237-0.268-0.248c-0.093-0.01-0.175-0.021-0.268-0.041
		c-0.093-0.021-0.232,0.135-0.32,0.104c-0.093-0.031-0.108-0.237-0.186-0.278c-0.093-0.047-0.248,0.025-0.31-0.031
		C21.589,48.996,21.491,48.861,21.455,48.779z"/>
	<path d="M24.881,27.236c0.083-0.042,0.01-0.176,0.103-0.212c0.083-0.036,0.237,0.072,0.33,0.036
		c0.083-0.041,0.103-0.237,0.186-0.278c0.093-0.042,0.258,0.103,0.351,0.067c0.083-0.036,0.113-0.036,0.196-0.077
		c0.108,0.046,0.279-0.217,0.392-0.17c0.104,0.046,0.083,0.258,0.196,0.304c-0.072,0.078,0.036,0.232-0.031,0.299
		c-0.077,0.072-0.289-0.01-0.361,0.042c-0.083,0.067-0.186,0.072-0.268,0.113c-0.088,0.057-0.104,0.248-0.191,0.279
		c-0.098,0.036-0.222-0.196-0.315-0.196c-0.103,0-0.145,0.052-0.232,0.021c-0.088-0.036-0.305,0.134-0.387,0.062
		C24.783,27.468,24.942,27.319,24.881,27.236z"/>
	<path d="M26.671,27.535c0.026,0.356,0.119,0.196,0.108,0.207c-0.088,0.042-0.176,0.078-0.269,0.119
		c-0.083,0.042-0.165,0.098-0.258,0.139c-0.083,0.037-0.17,0.093-0.258,0.129c-0.088,0.036-0.098,0.263-0.186,0.304
		c-0.093,0.036-0.242-0.082-0.335-0.041c-0.088,0.031-0.114,0.232-0.201,0.269c-0.021,0-0.021-0.278-0.083-0.402
		c0.083-0.036,0.098,0.066,0.186,0.03c0.083-0.041,0.041-0.371,0.124-0.402c0.083-0.042,0.258,0.134,0.34,0.098
		c0.087-0.036,0.083-0.284,0.165-0.325c0.083-0.031,0.248,0.113,0.33,0.083c0.083-0.036,0.186-0.021,0.279-0.062
		C26.691,27.654,26.583,27.571,26.671,27.535z"/>
	<path d="M27.976,38.038c0.026-0.093-0.134-0.149-0.114-0.247c0.031-0.093-0.021-0.206,0-0.3c0.031-0.098,0.361-0.103,0.387-0.19
		c0.026-0.098,0.057-0.181,0.093-0.273c0.006-0.011-0.072,0.124,0.047,0.145c0.077,0.016,0.041-0.072,0.104-0.062
		c-0.021,0.098-0.031,0.103-0.052,0.201c-0.026,0.098-0.031,0.201-0.052,0.299s0.154,0.242,0.129,0.341
		c-0.025,0.098-0.17,0.098-0.19,0.195c-0.093-0.025-0.135,0.108-0.223,0.088C28.018,38.214,28.059,38.064,27.976,38.038z"/>
</g>
<g>
</g>
<g>
</g>
<g>
</g>
<g>
</g>
<g>
</g>
<g>
</g>
<g>
</g>
<g>
</g>
<g>
</g>
<g>
</g>
<g>
</g>
<g>
</g>
<g>
</g>
<g>
</g>
<g>
</g>
</svg>
