<?xml version="1.0" encoding="utf-8"?>
<!-- Generator: Adobe Illustrator 16.0.0, SVG Export Plug-In . SVG Version: 6.00 Build 0)  -->
<!DOCTYPE svg PUBLIC "-//W3C//DTD SVG 1.1//EN" "http://www.w3.org/Graphics/SVG/1.1/DTD/svg11.dtd">
<svg version="1.1" id="圖層_1" xmlns="http://www.w3.org/2000/svg" xmlns:xlink="http://www.w3.org/1999/xlink" x="0px" y="0px"
	 width="55px" height="55px" viewBox="0 0 55 55" enable-background="new 0 0 55 55" xml:space="preserve">
<g>
	<path fill="#3A5489" d="M38.691,26.561c-0.91-1.728-2.293-2.959-3.755-4.126c-0.51-0.414-0.933-0.432-1.222-0.138
		c-1.342-1.323-3.44-2.178-5.813-2.178c-4.04,0-7.314,2.477-7.314,5.542c0,1.167,0.48,2.251,1.301,3.143
		c-0.106,1.135-0.035,2.275,0.344,3.438c0.177,0.552-0.057,0.873-0.724,0.8c-1.151-0.138-1.553-0.713-1.346-1.894
		c0.138-0.818,0.186-1.649,0.271-2.473c-0.129-0.032-0.257-0.06-0.388-0.092c-0.125,0.873-0.278,1.742-0.368,2.62
		c-0.136,1.296-0.283,2.592-0.283,3.888c0,0.345,0.521,0.689,0.804,1.038c0.234-0.275,0.489-0.542,0.706-0.832
		c0.138-0.188,0.22-0.418,0.326-0.634c0.119,0,0.234,0,0.354,0.005c0.071,0.441,0.244,0.9,0.193,1.323
		c-0.092,0.717,0.195,1.021,0.843,1.066c0.604,0.046,1.211,0.027,1.815,0.06c2.431,0.133,4.861,0.289,7.293,0.409
		c0.313,0.014,0.625-0.147,1.176-0.294c-0.45-0.533-0.734-0.92-1.065-1.255c-0.582-0.579-0.228-3.056,0.561-3.276
		c1.517-0.414,3.069-0.699,4.365-0.983c1.094-1.875-0.698-3.125-0.606-4.766c0.409,0.198,0.749,0.428,0.901,0.75
		c1.604,3.336,2.054,6.723,0.266,10.165c2.133,0.354,2.583,0.097,2.877-1.489C40.819,32.922,40.337,29.677,38.691,26.561z"/>
	<path fill="#3A5489" d="M36.679,41.759c-0.234,0.997-0.469,1.989-0.703,2.982c-0.037,0.146-0.083,0.303-0.078,0.441
		c0.069,1.953-0.11,2.215-1.902,2.394c-1.182,0.12-2.369,0.217-3.553,0.212c-2.559-0.005-5.119-0.069-7.683-0.143
		c-1.73-0.046-3.047-1.31-2.939-3.033c0.101-1.571,0.48-3.115,0.715-4.678c0.039-0.249-0.032-0.511-0.067-0.764
		c-0.062-0.519-0.363-1.172-0.158-1.53c0.446-0.767,0.965,0.078,1.473,0.161c1.395,0.221,2.79,0.542,4.193,0.62
		c1.639,0.093,3.288-0.014,4.93-0.082c1.145-0.042,2.367-0.501,3.029,1.011c0.146,0.326,0.73,0.584,1.14,0.639
		C36.334,40.164,36.568,40.385,36.679,41.759z"/>
	<path fill="#FFFFFF" d="M27.199,23.133c-1.298-0.487-2.794-0.721-3.84-1.53c-0.864-0.671-1.275-1.994-1.735-3.093
		c-0.321-0.772-0.255-1.765-1.587-1.103c-0.2,0.101-1.073-0.57-1.039-0.662c0.209-0.561,0.551-1.466,0.919-1.498
		c1.28-0.115,1.285-0.781,1.13-1.728c-0.124-0.772,0.356-1.103,1.041-1.25c1.103-0.234,2.19-0.533,3.302-0.712
		c1.627-0.262,3.265-0.492,4.903-0.625c0.528-0.042,1.08,0.399,1.629,0.409c0.772,0.014,1.549-0.248,2.326-0.248
		c1.512,0,2.169,0.892,1.852,2.385c-0.262,1.204-0.151,1.282,1.089,1.107c0.193-0.028,0.606,0.257,0.621,0.427
		c0.082,0.813,0.073,1.77-0.859,2.031c-1.425,0.4-1.545,1.687-2.114,2.679c-0.248,0.418-0.492,0.947-0.883,1.14
		c-2.086,1.052-4.187,2.114-6.644,1.921C27.27,22.903,27.231,23.014,27.199,23.133z M28.448,17.609
		c-0.441-0.193-0.755-0.396-0.818-0.34c-0.523,0.497-1.013,1.039-1.477,1.59c-0.023,0.027,0.225,0.289,0.349,0.441
		C27.036,18.836,27.578,18.368,28.448,17.609z M29.512,21.924c0.212-0.014,0.418-0.032,0.63-0.05
		c-0.048-0.506-0.087-1.021-0.168-1.521c-0.005-0.023-0.365,0.005-0.556,0.009C29.45,20.881,29.479,21.4,29.512,21.924z
		 M28.783,15.266c-0.158,0.083-0.314,0.166-0.468,0.248c0.172,0.395,0.344,0.791,0.517,1.181c0.182-0.143,0.542-0.345,0.517-0.409
		C29.206,15.927,28.981,15.605,28.783,15.266z"/>
	<path fill="#EB6668" d="M39.473,10.932c-8.258-1.77-16.229-0.75-23.97,2.514c-0.014-0.097-0.034-0.193-0.048-0.29
		c0.71-0.731,1.351-1.549,2.144-2.183c2.654-2.123,5.29-4.283,8.07-6.231c1.227-0.859,2.789-1.429,4.342-0.579
		c2.196,1.2,4.402,2.385,6.507,3.736c1.121,0.721,2.027,1.792,3.033,2.702C39.523,10.711,39.496,10.822,39.473,10.932z"/>
	<path fill="#3A5489" d="M20.163,28.611c-1.112-0.221-1.156,0.556-1.227,1.107c-0.237,1.782-0.375,3.575-0.563,5.362
		c-0.085,0.818-0.186,1.637-0.301,2.67c-1.721-1.103-2.635-2.596-3.584-4.039c-0.126-0.188,0-0.598,0.09-0.873
		c0.565-1.71,1.107-3.429,1.751-5.105c0.671-1.756,2.084-2.827,3.835-3.893C20.163,25.56,20.163,27.071,20.163,28.611z"/>
	<path fill="#FFFFFF" d="M34.44,38.216c0.441-0.818,0.708-1.839,1.36-2.408c0.887-0.772,0.717-1.443,0.368-2.275
		c-0.102-0.238-0.185-0.478-0.28-0.721c1.079-0.451,1.548-0.23,1.741,0.781c0.239,1.213-1.089,4.099-2.183,4.696
		c-0.216,0.115-0.492,0.124-0.73,0.175C34.624,38.39,34.532,38.303,34.44,38.216z"/>
	<path fill="#3A5489" d="M19.246,38.602c-0.124,1.962,0.035,4.007-0.469,5.864c-0.397,1.461,0.12,2.279,1.002,3.29
		c-0.954,0.193-1.804,0.051-1.76-0.9c0.129-2.763,0.446-5.52,0.691-8.272C18.888,38.593,19.069,38.602,19.246,38.602z"/>
	<path fill="#FFFFFF" d="M34.376,33.404c0.23,0.234,0.759,0.547,0.92,0.992c0.192,0.57-1.021,1.54-1.802,1.355
		c-0.404-0.096-0.938-0.707-0.951-1.107C32.501,33.734,33.282,33.519,34.376,33.404z"/>
	<path fill="#FFFFFF" d="M27.909,25.33c-0.556,0.239-0.898,0.524-1.19,0.487c-0.646-0.087-1.408-1.241-1.563-2.298
		C26.038,24.098,26.829,24.622,27.909,25.33z"/>
	<path fill="#FFFFFF" d="M29.953,24.811c0.609-0.331,1.112-0.602,1.813-0.983C31.378,25.16,30.945,25.38,29.953,24.811z"/>
	<polygon fill="#E5BF61" points="27.909,27.485 33.926,26.8 36.141,26.938 37.657,32.131 35.889,32.82 33.926,32.82 31.599,34.135 
		32.373,35.771 33.484,37.324 31.711,37.517 28.311,37.995 24.37,37.747 20.928,37.324 19.382,36.52 18.897,33.078 18.936,29.719 
		20.163,28.611 23.426,27.002 	"/>
	<g>
		<g>
			<path d="M34.965,21.492c0.101,0.06,0.372,0.028,0.473,0.097c0.106,0.064,0.069,0.331,0.171,0.404
				c0.101,0.069,0.271,0.042,0.367,0.12c0.092,0.069,0.267,0.055,0.358,0.133c0.097,0.078,0.193,0.156,0.285,0.239
				c0.092,0.078,0.175,0.17,0.262,0.253s0.17,0.179,0.258,0.267c0.087,0.083,0.133,0.211,0.216,0.299
				c0.087,0.087,0.073,0.262,0.156,0.354c0.078,0.092,0.202,0.138,0.28,0.239c0.078,0.092,0.207,0.142,0.28,0.239
				c0.078,0.092,0.192,0.156,0.271,0.253c0.069,0.096,0.253,0.119,0.327,0.216c0.073,0.097,0.092,0.234,0.165,0.335
				s-0.083,0.349-0.014,0.45c0.068,0.102,0.262,0.12,0.326,0.221c0.069,0.101,0.335,0.078,0.396,0.179
				c0.064,0.11,0.014,0.285,0.073,0.391c0.064,0.106-0.134,0.358-0.073,0.464c0.064,0.105,0.44,0.027,0.505,0.138
				c0.06,0.101-0.073,0.322-0.019,0.423c0.056,0.106,0.331,0.101,0.387,0.207c0.06,0.105-0.11,0.34-0.056,0.446
				c0.056,0.105,0.147,0.197,0.207,0.308s0.28,0.129,0.336,0.239c0.055,0.11,0.055,0.262,0.105,0.372s0.188,0.202,0.229,0.317
				c0.041,0.124-0.211,0.33-0.179,0.45c0.036,0.124,0,0.253,0.027,0.372s0.441,0.165,0.469,0.285
				c0.019,0.124-0.377,0.308-0.368,0.432c0.019,0.124,0.46,0.207,0.469,0.331c0.01,0.124-0.119,0.267-0.119,0.386
				c0.009,0.129-0.073,0.258-0.073,0.382s0.055,0.248,0.055,0.372c0,0.129,0.151,0.257,0.147,0.377
				c-0.01,0.129-0.078,0.253-0.088,0.377c-0.004,0.124-0.192,0.238-0.197,0.362s-0.193,0.244-0.202,0.363
				c-0.009,0.129,0.019,0.258,0.019,0.377c-0.01,0.119,0.257,0.262,0.253,0.386c-0.005,0.129-0.244,0.23-0.253,0.358
				c-0.019,0.12-0.078,0.23-0.102,0.354c-0.019,0.124-0.055,0.234-0.078,0.358c-0.022,0.119,0.17,0.289,0.152,0.409
				c-0.028,0.119,0.036,0.262,0.009,0.381c-0.023,0.12-0.092,0.234-0.11,0.354c-0.027,0.119-0.129,0.229-0.147,0.349
				c-0.018,0.129,0.11,0.271,0.097,0.391c-0.019,0.129-0.372,0.188-0.399,0.299c-0.037,0.134-0.064,0.221-0.11,0.321
				c-0.056,0.12,0.019,0.276-0.056,0.373c-0.078,0.105-0.073,0.28-0.165,0.358s-0.248,0.082-0.363,0.133
				c-0.11,0.046-0.234,0.046-0.363,0.069c-0.114,0.022-0.229,0.014-0.358,0.014c-0.119,0-0.22-0.156-0.349-0.166
				c-0.129-0.018-0.267,0.391-0.372,0.396c-0.134,0.005-0.28-0.239-0.382-0.207c-0.119,0.042-0.367,0.015-0.445,0.102
				c-0.078,0.083-0.078,0.308-0.124,0.428c-0.037,0.101,0.248,0.294,0.229,0.413c-0.019,0.11-0.46,0.184-0.469,0.313
				c-0.01,0.119,0.009,0.248,0,0.372c-0.01,0.124,0.119,0.258,0.11,0.382c-0.01,0.129,0.009,0.257,0,0.377
				c-0.01,0.128,0.092,0.262,0.082,0.386c-0.009,0.124-0.174,0.234-0.184,0.358c-0.009,0.129,0.042,0.258,0.032,0.377
				c-0.009,0.129-0.022,0.253-0.032,0.377c-0.009,0.124-0.119,0.239-0.138,0.367c-0.009,0.12,0.138,0.258,0.129,0.387
				c-0.01,0.124-0.202,0.234-0.212,0.358C37.069,44.011,37.01,44.13,37,44.254c-0.009,0.129,0.161,0.267,0.147,0.391
				c-0.009,0.124-0.18,0.239-0.188,0.363s0.073,0.257,0.064,0.386c-0.01,0.119,0.055,0.253,0.046,0.377
				c0,0.124-0.147,0.243-0.151,0.367c-0.005,0.129,0.34,0.309,0.316,0.423c-0.022,0.129-0.165,0.248-0.216,0.368
				c-0.051,0.119-0.068,0.275-0.133,0.381c-0.069,0.106-0.46-0.032-0.543,0.061c-0.082,0.087,0.064,0.408-0.027,0.486
				c-0.097,0.083-0.349-0.063-0.459,0.01c-0.102,0.064-0.019,0.478-0.129,0.533c-0.11,0.06-0.377-0.212-0.492-0.156
				c-0.114,0.046-0.243,0.036-0.362,0.082c-0.12,0.046-0.193,0.193-0.313,0.234c-0.12,0.042-0.193,0.23-0.317,0.263
				c-0.119,0.036-0.226,0.156-0.345,0.188s-0.487-0.271-0.616-0.244c0.037,0.12,0.322,0.331,0.368,0.433
				c0.055,0.114,0.138,0.184,0.202,0.275c0.073,0.101,0.161,0.146,0.248,0.225c0.083,0.083,0.151,0.152,0.253,0.212
				c0.097,0.06,0.133,0.243,0.243,0.289c0.102,0.046,0.188,0.185,0.304,0.221c0.11,0.032,0.211,0.175,0.331,0.202
				c0.119,0.032,0.257-0.064,0.377-0.036c0.119,0.036,0.266-0.037,0.381,0c0.115,0.036,0.138,0.316,0.253,0.358
				c0.115,0.046,0.275-0.056,0.386,0c0.11,0.051,0.18,0.16,0.285,0.221c0.083,0.05,0.055,0.119,0.119,0.22
				c0.056,0.088,0.185,0.11,0.216,0.207c0.042,0.115-0.05,0.161-0.068,0.253c-0.019,0.083,0.129,0.212,0.037,0.299
				c-0.074,0.073-0.249-0.009-0.341,0.041c-0.101,0.06-0.146,0.129-0.238,0.143c-0.12,0.023-0.212,0.18-0.331,0.207
				c-0.12,0.022-0.239,0.064-0.358,0.092c-0.12,0.019-0.23,0.119-0.35,0.147c-0.124,0.022-0.285-0.147-0.404-0.12
				c-0.119,0.023-0.229,0.138-0.35,0.156c-0.119,0.028-0.211,0.258-0.33,0.276c-0.129,0.018-0.313-0.368-0.433-0.35
				c-0.129,0.019-0.188,0.45-0.308,0.46c-0.124,0.022-0.28-0.188-0.4-0.175c-0.124,0.014-0.22,0.285-0.34,0.294
				c-0.129,0.009-0.267-0.11-0.386-0.097c-0.119,0.01-0.267,0.119-0.386,0.105c-0.12-0.018-0.253-0.082-0.372-0.11
				c-0.115-0.027-0.139-0.408-0.256-0.445c-0.114-0.032-0.345,0.308-0.459,0.271c-0.115-0.037-0.134-0.354-0.248-0.396
				c-0.115-0.027-0.309,0.243-0.423,0.211c-0.134-0.027-0.085-0.491-0.177-0.542c-0.115-0.069-0.129-0.101-0.203-0.193
				c-0.075-0.096-0.277-0.073-0.319-0.188c-0.039-0.105-0.179-0.197-0.197-0.326c-0.022-0.119-0.027-0.243-0.048-0.362
				c-0.019-0.12,0.004-0.244-0.028-0.358c-0.034-0.124-0.216-0.207-0.25-0.331c-0.032-0.124,0.207-0.322,0.172-0.441
				c-0.032-0.124,0.044-0.28,0.012-0.399c-0.034-0.124-0.338-0.175-0.365-0.304c-0.034-0.119,0.145-0.432,0.11-0.561
				c-0.124-0.01-0.411,0.285-0.538,0.271c-0.124-0.015-0.225-0.317-0.349-0.331s-0.273,0.202-0.397,0.192
				c-0.124-0.014-0.264,0.11-0.388,0.097c-0.124-0.009-0.225-0.321-0.349-0.331c-0.126-0.009-0.273,0.202-0.4,0.193
				c-0.124-0.009-0.253,0.041-0.377,0.027c-0.126-0.009-0.211-0.432-0.335-0.441c-0.126-0.009-0.167,0.331-0.294,0.322
				c-0.037,0.129-0.085,0.119-0.104,0.243c-0.025,0.129-0.122,0.239-0.131,0.354c-0.009,0.133,0.039,0.252,0.048,0.367
				c0.014,0.129,0.076,0.229,0.11,0.35c0.039,0.119-0.154,0.34-0.097,0.45s0.184,0.211,0.264,0.304
				c0.076,0.096,0.296,0.073,0.388,0.155c0.092,0.093,0.297,0.019,0.393,0.102c0.097,0.073,0.106,0.258,0.207,0.331
				c0.101,0.068,0.269,0.036,0.372,0.11c0.106,0.064,0.14,0.238,0.246,0.308c0.105,0.073,0.158,0.216,0.259,0.29
				c0.099,0.073,0.062,0.313,0.156,0.395c0.097,0.078,0.312,0.01,0.4,0.097c0.085,0.087,0.252,0.197,0.328,0.299
				c-0.124,0.032-0.367-0.092-0.482-0.056c-0.124,0.047-0.158,0.35-0.273,0.387c-0.124,0.041-0.331-0.239-0.45-0.212
				c-0.131,0.028-0.211,0.387-0.336,0.377c-0.119-0.009-0.234-0.192-0.356-0.192c-0.12-0.01-0.244,0-0.363-0.01
				c-0.12-0.009-0.265,0.202-0.384,0.188c-0.12-0.009-0.207-0.428-0.327-0.437c-0.119-0.014-0.252,0.11-0.379,0.097
				c-0.12-0.014-0.269,0.197-0.388,0.184c-0.12-0.014-0.225-0.193-0.345-0.207s-0.234-0.11-0.354-0.124s-0.255,0.051-0.375,0.042
				c-0.12-0.01-0.234-0.115-0.354-0.129c-0.11-0.014-0.207-0.216-0.317-0.226c-0.124-0.014-0.292,0.428-0.397,0.418
				c-0.129-0.018-0.193-0.45-0.296-0.469c-0.131-0.018-0.232-0.027-0.331-0.046c-0.135-0.032-0.269,0.093-0.356,0.037
				c-0.106-0.06-0.005-0.202-0.058-0.313c-0.043-0.092-0.388-0.097-0.407-0.229c-0.014-0.102-0.053-0.23-0.057-0.358
				c-0.005-0.11,0.115-0.23,0.115-0.358c0-0.11,0.269-0.226,0.269-0.354c0-0.119-0.388-0.243-0.388-0.362
				c0-0.129,0.067-0.249,0.067-0.368s0.22-0.243,0.22-0.358c0-0.124-0.11-0.243-0.11-0.358c0-0.124,0.048-0.248,0.048-0.358
				c0-0.129-0.225-0.097-0.225-0.202c-0.124-0.019-0.105-0.097-0.225-0.11c-0.124-0.014-0.264,0.11-0.384,0.097
				c-0.124-0.014-0.239-0.06-0.361-0.078c-0.124-0.014-0.22-0.202-0.34-0.216c-0.124-0.015-0.244-0.046-0.363-0.069
				c-0.124-0.009-0.22-0.193-0.34-0.211c-0.12-0.019-0.237-0.064-0.356-0.078c-0.119-0.019-0.282,0.229-0.402,0.211
				c-0.12-0.023-0.207-0.243-0.326-0.271c-0.12-0.022-0.248,0.028-0.368,0.01c-0.122-0.027-0.207-0.175-0.326-0.202
				c-0.087-0.019-0.283,0.128-0.375,0.032c-0.071-0.078,0.023-0.29-0.039-0.391c-0.062-0.102-0.43-0.061-0.464-0.161
				c-0.043-0.119,0.287-0.299,0.296-0.391c0.016-0.119-0.257-0.28-0.244-0.409c0.014-0.124,0.345-0.216,0.358-0.34
				c0.016-0.124-0.027-0.262-0.014-0.382c0.014-0.128-0.225-0.289-0.211-0.413c0.016-0.129-0.014-0.258,0.005-0.391
				c0.021-0.129,0.105-0.244,0.126-0.368c0.019-0.124,0.306-0.211,0.327-0.335c0.018-0.129-0.211-0.29-0.193-0.418
				c0.019-0.124,0.202-0.226,0.221-0.354c0.019-0.124-0.167-0.284-0.149-0.409c0.021-0.124,0.039-0.248,0.058-0.376
				c0.021-0.134,0.163-0.23,0.184-0.363c0.019-0.12,0.042-0.248,0.062-0.377c0.019-0.124,0.168-0.234,0.182-0.358
				c0.019-0.129,0.154-0.244,0.168-0.377c0.014-0.129-0.278-0.294-0.26-0.423c0.021-0.129-0.081-0.275-0.067-0.404
				c0.014-0.129-0.004-0.262,0.009-0.396c0.016-0.129,0.136-0.248,0.149-0.377c0.019-0.143-0.023-0.252-0.023-0.372
				c0-0.143,0.115-0.262,0.076-0.381c-0.039-0.12,0.005-0.295-0.08-0.404c-0.074-0.097-0.188-0.188-0.304-0.276
				c-0.096-0.083-0.124-0.303-0.248-0.377c-0.101-0.055-0.172-0.092-0.264-0.165c-0.087-0.073-0.278-0.027-0.361-0.11
				c-0.076-0.087-0.108-0.202-0.181-0.299c-0.071-0.092-0.081-0.221-0.154-0.317c-0.066-0.096-0.234-0.119-0.296-0.216
				s-0.092-0.221-0.154-0.316c-0.062-0.093-0.067-0.239-0.133-0.336c-0.067-0.097-0.308-0.069-0.379-0.156
				c-0.071-0.092-0.248-0.097-0.321-0.188c-0.071-0.092-0.053-0.248-0.124-0.34c-0.071-0.092-0.009-0.285-0.081-0.372
				c-0.074-0.092-0.126-0.193-0.193-0.285c-0.067-0.088-0.138-0.18-0.2-0.271c-0.069-0.097-0.115-0.197-0.179-0.294
				c-0.071-0.115-0.278-0.147-0.335-0.257c-0.062-0.12-0.133-0.239-0.182-0.368c-0.043-0.119,0.193-0.308,0.172-0.441
				c-0.018-0.128-0.163-0.221-0.154-0.349c0.007-0.134-0.209-0.304-0.177-0.441c0.034-0.119,0.043-0.285,0.101-0.414
				c0.053-0.119,0.432-0.068,0.503-0.188c0.067-0.105,0.019-0.28,0.078-0.399c0.058-0.11,0.051-0.253,0.099-0.367
				c0.048-0.115,0.025-0.258,0.069-0.377c0.041-0.12,0.393-0.129,0.434-0.248c0.039-0.12-0.324-0.377-0.287-0.497
				c0.039-0.119,0.273-0.174,0.313-0.294c0.037-0.119,0.037-0.257,0.076-0.377c0.039-0.119,0-0.267,0.039-0.386
				s0.11-0.239,0.154-0.35c0.041-0.119,0.252-0.174,0.301-0.294c0.048-0.114-0.106-0.308-0.058-0.423
				c0.048-0.114,0.058-0.238,0.106-0.354c0.048-0.11,0.26-0.161,0.306-0.271c0.048-0.11,0.207-0.175,0.255-0.285
				s0.191-0.179,0.244-0.285c0.053-0.11-0.023-0.285,0.03-0.391c0.053-0.11,0.186-0.18,0.239-0.29
				c0.058-0.11,0.149-0.193,0.207-0.304c0.058-0.101,0.066-0.239,0.124-0.34c0.062-0.11,0.039-0.262,0.101-0.368
				c0.067-0.11,0.085-0.257,0.182-0.358c0.087-0.097,0.078-0.326,0.182-0.414c0.101-0.083,0.342,0,0.453-0.074
				c0.11-0.069,0.324,0.051,0.438-0.009c0.122-0.06,0.102-0.396,0.216-0.451c0.12-0.05,0.216-0.128,0.331-0.184
				c0.115-0.064,0.184-0.179,0.288-0.249c0.11-0.069,0.384,0.102,0.485,0.028c0.101-0.083,0.282-0.11,0.37-0.202
				c0.09-0.097,0.076-0.294,0.147-0.404c0.074-0.11,0.048-0.267,0.092-0.386c0.043-0.12,0.229-0.211,0.25-0.345
				c0.018-0.124,0.057-0.28,0.046-0.414c-0.009-0.12-0.053-0.271-0.081-0.4c-0.03-0.119-0.035-0.275-0.083-0.399
				c-0.042-0.12-0.373-0.152-0.402-0.271c-0.032-0.119-0.066-0.252-0.089-0.381c-0.025-0.124,0.229-0.299,0.209-0.423
				c-0.019-0.124-0.143-0.234-0.156-0.363c-0.016-0.124-0.14-0.239-0.159-0.368c-0.021-0.12-0.087-0.156-0.11-0.28
				c-0.11-0.037-0.207-0.009-0.313-0.078c-0.101-0.06-0.039-0.363-0.128-0.441c-0.087-0.083-0.23-0.11-0.313-0.202
				c-0.076-0.092,0.021-0.299-0.048-0.404c-0.062-0.101-0.11-0.193-0.168-0.303c-0.053-0.101-0.089-0.202-0.138-0.313
				c-0.043-0.11-0.12-0.202-0.154-0.322c-0.035-0.11-0.428-0.147-0.451-0.267s0.172-0.285,0.159-0.404
				c-0.009-0.12,0.019-0.239,0.023-0.358c0.005-0.129,0.216-0.211,0.234-0.331c0.021-0.12,0.012-0.211,0.048-0.322
				c0.035-0.11,0.053-0.271,0.058-0.391c0.004-0.11,0.021-0.244,0.016-0.363c-0.005-0.11-0.216-0.216-0.226-0.335
				c-0.011-0.115-0.064-0.133-0.064-0.253c-0.12,0.046-0.12,0.17-0.239,0.211c-0.12,0.046-0.225,0.138-0.34,0.179
				c-0.12,0.042-0.326-0.161-0.446-0.115s-0.269,0.014-0.388,0.055c-0.12,0.046-0.159,0.321-0.278,0.358
				c-0.12,0.046-0.283-0.037-0.402,0c-0.12,0.046-0.216,0.161-0.335,0.202c-0.12,0.046-0.255,0.042-0.375,0.078
				c-0.119,0.042-0.234,0.096-0.354,0.133c-0.12,0.041-0.273-0.028-0.393,0.009c-0.105,0.037-0.221-0.037-0.335-0.023
				c-0.11,0.014-0.207,0.344-0.317,0.344s-0.23,0-0.34,0c-0.115,0-0.128-0.252-0.239-0.248c0.042-0.124,0.071-0.174,0.099-0.313
				c0.03-0.133-0.172-0.322-0.138-0.45c0.034-0.133,0.096-0.28,0.149-0.396c0.057-0.128,0.138-0.294,0.234-0.386
				c0.085-0.083,0.273-0.074,0.358-0.152c0.087-0.087,0.241-0.096,0.326-0.179c0.087-0.083,0.26-0.073,0.349-0.151
				c0.087-0.083,0.062-0.29,0.154-0.373c0.092-0.078,0.186-0.151,0.278-0.229s-0.027-0.396,0.062-0.469
				c0.092-0.083,0.418,0.11,0.508,0.027c0.092-0.073,0.216-0.119,0.308-0.193c0.089-0.078,0.043-0.322,0.133-0.4
				c0.092-0.078,0.062-0.299,0.154-0.377c0.092-0.083,0.437,0.133,0.528,0.051c0.09-0.083,0.147-0.193,0.239-0.276
				c0.096-0.087,0.133-0.229,0.229-0.313c0.097-0.087,0.067-0.303,0.159-0.386c0.089-0.087,0.143-0.221,0.239-0.304
				c0.092-0.087,0.331-0.018,0.428-0.101c0.089-0.087,0.032-0.335,0.128-0.422c0.092-0.083,0.287-0.064,0.384-0.147
				C18.5,8.8,18.5,8.62,18.589,8.528c0.092-0.083,0.273-0.078,0.365-0.161c0.09-0.087,0.345,0.004,0.441-0.078
				c0.094-0.092-0.048-0.432,0.043-0.52c0.094-0.087,0.329-0.004,0.425-0.092c0.096-0.083,0.202-0.151,0.299-0.234
				c0.094-0.083,0.076-0.303,0.172-0.386c0.094-0.083,0.354,0.037,0.455-0.046c0.097-0.083,0.234-0.11,0.331-0.184
				c0.094-0.083,0.019-0.377,0.115-0.45c0.097-0.074,0.315,0.018,0.412-0.051c0.096-0.073,0.119-0.253,0.22-0.317
				c0.101-0.074,0.303,0.014,0.402-0.055c0.101-0.069,0.184-0.166,0.278-0.23c0.101-0.069,0.241-0.078,0.34-0.147
				c0.101-0.064,0.154-0.202,0.255-0.276c0.101-0.064,0.202-0.128,0.308-0.193c0.099-0.064,0.172-0.184,0.271-0.244
				c0.101-0.069,0.159-0.202,0.26-0.271c0.101-0.064,0.287-0.004,0.388-0.074c0.101-0.064,0.101-0.285,0.202-0.349
				c0.099-0.069,0.349,0.083,0.45,0.009c0.101-0.064-0.014-0.45,0.085-0.515c0.102-0.064,0.361,0.096,0.462,0.023
				c0.099-0.069,0.09-0.29,0.182-0.381c0.085-0.092,0.043-0.276,0.12-0.377c0.076-0.101,0.45,0,0.517-0.11
				c0.069-0.11,0.048-0.276,0.101-0.391c0.057-0.12,0.009-0.299,0.076-0.391c0.078-0.11,0.338-0.042,0.423-0.12
				c0.101-0.092,0.149-0.151,0.26-0.202c0.115-0.05,0.186-0.037,0.31-0.041c0.12,0,0.269-0.216,0.393-0.17
				c0.109,0.037,0.148,0.239,0.259,0.313c0.097,0.06,0.297,0.009,0.393,0.101c0.088,0.078-0.022,0.391,0.067,0.469
				c0.092,0.074,0.44-0.184,0.537-0.11c0.092,0.069-0.066,0.492,0.028,0.561c0.096,0.064,0.383-0.152,0.484-0.083
				c0.102,0.064,0.039,0.377,0.141,0.441c0.099,0.064,0.305-0.055,0.411,0.004c0.101,0.06,0.313-0.083,0.416-0.023
				c0.105,0.055,0.149,0.221,0.255,0.285c0.105,0.055,0.043,0.423,0.149,0.478c0.105,0.06,0.287-0.018,0.393,0.042
				c0.105,0.06,0.158,0.221,0.265,0.28c0.101,0.055,0.386-0.211,0.491-0.151c0.105,0.06,0.229,0.078,0.336,0.138
				c0.105,0.06,0.138,0.262,0.248,0.317c0.101,0.055,0.192,0.147,0.299,0.203c0.11,0.055,0.17,0.202,0.28,0.252
				c0.11,0.051,0.313-0.101,0.423-0.046c0.11,0.051,0.257,0.014,0.367,0.069c0.11,0.046,0.102,0.368,0.212,0.414
				c0.119,0.046,0.313-0.083,0.423-0.032c0.109,0.051,0.179,0.198,0.289,0.257c0.11,0.06,0.188,0.17,0.299,0.23
				c0.101,0.064,0.303-0.019,0.404,0.051c0.101,0.064,0.188,0.161,0.294,0.229c0.102,0.074,0.253,0.074,0.354,0.147
				c0.102,0.074,0.152,0.211,0.253,0.285c0.102,0.078,0.294,0.037,0.391,0.11c0.097,0.078,0.129,0.239,0.226,0.322
				c0.097,0.073,0.073,0.289,0.175,0.372c0.092,0.078,0.192,0.147,0.284,0.234c0.093,0.083,0.285,0.055,0.377,0.138
				c0.088,0.083,0.248,0.097,0.341,0.175c0.092,0.092-0.129,0.496-0.042,0.583c0.092,0.087,0.244,0.106,0.331,0.188
				c0.087,0.092,0.216,0.138,0.304,0.221c0.087,0.092,0.197,0.151,0.289,0.239c0.083,0.083,0.083,0.262,0.175,0.349
				c0.083,0.083,0.165,0.184,0.253,0.276c0.092,0.083,0.151,0.202,0.234,0.29c0.092,0.087,0.271,0.078,0.358,0.161
				c0.092,0.087,0.395-0.06,0.487,0.018c0.092,0.083-0.064,0.441,0.027,0.52c0.092,0.083,0.413-0.023,0.487,0.087
				c0.064,0.106-0.12,0.354-0.061,0.474c0.051,0.115,0.171,0.198,0.217,0.317c0.046,0.12,0.294,0.156,0.345,0.276
				c0.05,0.12-0.028,0.322,0.032,0.432c-0.093,0.041-0.244,0.018-0.331,0.06c-0.12-0.042-0.212-0.069-0.331-0.11
				c-0.11-0.042-0.193-0.179-0.304-0.221c-0.119-0.041-0.202-0.151-0.316-0.197c-0.115-0.042-0.244-0.055-0.354-0.101
				c-0.119-0.042-0.316,0.17-0.432,0.128c-0.119-0.037-0.229-0.092-0.34-0.128c-0.12-0.032-0.258,0.055-0.377,0.027
				c-0.124-0.027-0.184-0.322-0.304-0.34c-0.101-0.019-0.238,0.009-0.367,0.009c-0.124-0.009-0.253-0.069-0.377-0.06
				s-0.275-0.078-0.396-0.06c-0.129,0.027-0.275,0.101-0.377,0.143c-0.138,0.05-0.275,0.243-0.321,0.331
				c-0.064,0.124,0.146,0.317,0.138,0.427c-0.022,0.133-0.083,0.221-0.051,0.34c0.028,0.12-0.133,0.331-0.06,0.441
				c0.06,0.101,0.34,0.051,0.432,0.147c0.083,0.087,0.037,0.331,0.139,0.404c0.101,0.083,0.321-0.009,0.432,0.055
				c0.11,0.073,0.092,0.294,0.18,0.386c0.087,0.101,0.262,0.12,0.326,0.23s-0.056,0.29-0.014,0.414
				c0.036,0.12,0.133,0.216,0.146,0.349c0.014,0.12-0.087,0.239-0.087,0.373c-0.01,0.124-0.051,0.225-0.074,0.354
				c-0.018,0.124,0.134,0.276,0.102,0.404c-0.041,0.12-0.202,0.184-0.258,0.304c-0.05,0.119,0.175,0.381,0.106,0.492
				c-0.069,0.105-0.336,0.087-0.419,0.188c-0.073,0.101-0.133,0.22-0.22,0.308c-0.093,0.092-0.221,0.152-0.313,0.244
				c-0.088,0.092-0.193,0.179-0.285,0.271c-0.092,0.097,0.055,0.409-0.032,0.501c-0.088,0.097-0.474-0.073-0.561,0.028
				c-0.088,0.101-0.023,0.321-0.102,0.422c-0.083,0.101-0.06,0.281-0.133,0.386c-0.064,0.092-0.074,0.216-0.138,0.313
				c-0.061,0.101-0.23,0.129-0.29,0.234c-0.06,0.097-0.317,0.097-0.372,0.198c-0.056,0.101-0.184,0.174-0.239,0.28
				c-0.055,0.101-0.027,0.252-0.082,0.354c-0.051,0.105,0.041,0.285-0.01,0.395C35.218,21.258,35.02,21.387,34.965,21.492z
				 M20.292,28.597c0-0.124-0.202-0.234-0.202-0.354s0.241-0.248,0.241-0.367c0-0.12-0.122-0.244-0.122-0.363
				c0-0.12-0.115-0.244-0.115-0.363s0-0.248,0-0.368s0.016-0.239,0.016-0.363c0-0.12,0.009-0.244,0.009-0.363
				s0.058-0.244,0.058-0.368c0-0.119,0.128-0.248,0.128-0.368c0-0.124-0.057-0.248-0.057-0.368c0-0.119-0.062-0.243-0.062-0.368
				c0-0.119-0.053-0.248-0.053-0.367c0-0.12-0.048-0.11-0.048-0.23c-0.106,0.064-0.081,0.074-0.187,0.138
				c-0.105,0.069-0.356-0.087-0.459-0.027c-0.105,0.069-0.126,0.267-0.232,0.331c-0.104,0.074-0.067,0.34-0.168,0.414
				c-0.099,0.073-0.282,0.037-0.376,0.105c-0.101,0.078-0.384-0.083-0.48-0.004c-0.096,0.073,0.048,0.441-0.043,0.523
				c-0.09,0.083-0.335,0-0.42,0.083c-0.092,0.087,0,0.34-0.087,0.432c-0.085,0.092-0.358,0.009-0.441,0.105
				c-0.076,0.097-0.124,0.221-0.2,0.322c-0.074,0.101,0.014,0.308-0.053,0.409c-0.069,0.102-0.177,0.175-0.241,0.285
				c-0.058,0.101-0.028,0.248-0.081,0.358s-0.384,0.11-0.427,0.221c-0.042,0.11-0.147,0.202-0.191,0.313s0.296,0.367,0.253,0.478
				c-0.042,0.11-0.478,0.083-0.522,0.193c-0.043,0.11,0.327,0.367,0.283,0.487c-0.039,0.114-0.207,0.184-0.244,0.294
				c-0.039,0.11-0.158,0.193-0.197,0.308c-0.039,0.115-0.023,0.244-0.062,0.363c-0.039,0.11,0.076,0.275,0.039,0.391
				c-0.039,0.115-0.14,0.207-0.177,0.321c-0.039,0.115-0.246,0.171-0.285,0.29c-0.037,0.11-0.248,0.17-0.287,0.28
				c-0.037,0.115-0.037,0.239-0.071,0.354c-0.039,0.115,0.186,0.313,0.149,0.428c-0.039,0.115-0.288,0.161-0.327,0.271
				c-0.039,0.119-0.119,0.211-0.158,0.326c-0.044,0.133-0.12,0.308-0.149,0.464c-0.032,0.17,0.184,0.367,0.25,0.469
				c0.066,0.101,0.211,0.156,0.278,0.257c0.067,0.102,0.101,0.226,0.163,0.327c0.067,0.101,0.071,0.243,0.138,0.345
				c0.067,0.101,0.265,0.109,0.331,0.211c0.067,0.102-0.133,0.396-0.066,0.496c0.071,0.092,0.145,0.193,0.22,0.294
				c0.071,0.097,0.26,0.11,0.335,0.202c0.076,0.093,0.249,0.102,0.331,0.193c0.076,0.092,0.101,0.239,0.182,0.322
				c0.083,0.087,0.136,0.206,0.221,0.294c0.087,0.087,0.158,0.184,0.25,0.267c0.085,0.082,0.085,0.28,0.177,0.358
				c0.089,0.073,0.45-0.175,0.547-0.097c0.094,0.068,0.027,0.363,0.128,0.427c0.097,0.069,0.354,0.285,0.46,0.354
				c0.014-0.134,0.034-0.45,0.048-0.574c0.014-0.129-0.287-0.295-0.273-0.419c0.014-0.133,0.455-0.206,0.471-0.33
				c0.014-0.129,0-0.263,0.014-0.382c0.014-0.129-0.105-0.275-0.092-0.399c0.014-0.129-0.009-0.263,0.005-0.391
				c0.016-0.12-0.085-0.263-0.071-0.387c0.014-0.119,0.177-0.221,0.19-0.34c0.012-0.119-0.041-0.248-0.027-0.367
				c0.009-0.12,0.023-0.239,0.039-0.358c0.014-0.12,0.119-0.23,0.133-0.35c0.009-0.119-0.133-0.253-0.124-0.372
				c0.009-0.12,0.195-0.221,0.204-0.341c0.012-0.119,0.074-0.234,0.087-0.354c0.009-0.119-0.154-0.257-0.145-0.377
				c0.011-0.119,0.184-0.221,0.197-0.34c0.014-0.119-0.062-0.248-0.048-0.363c0.014-0.119-0.044-0.243-0.028-0.362
				c0.014-0.12,0.156-0.23,0.172-0.341c0.014-0.119-0.335-0.28-0.322-0.399s0.133-0.226,0.149-0.345
				c0.014-0.119-0.021-0.243,0-0.368c0.014-0.109,0.425-0.17,0.45-0.289c0.023-0.119-0.259-0.335-0.202-0.441
				c0.058-0.105,0.313-0.009,0.423-0.078c0.09-0.055,0.081-0.473,0.221-0.491c0.104-0.014,0.248,0.331,0.388,0.345
				c0.11,0.009,0.292,0.073,0.425,0.101c-0.129-0.027-0.34-0.257-0.469-0.285c-0.021,0.12,0.11,0.304,0.089,0.433
				c-0.018,0.119,0.053,0.257,0.035,0.386c-0.019,0.124-0.473,0.184-0.494,0.304c-0.018,0.128,0.246,0.294,0.225,0.423
				c-0.018,0.119,0.005,0.248-0.014,0.376c-0.018,0.125,0.005,0.253-0.009,0.377c-0.014,0.124-0.039,0.248-0.053,0.377
				c-0.014,0.11-0.163,0.221-0.177,0.34c-0.016,0.11-0.12,0.221-0.136,0.341c-0.014,0.119-0.133,0.221-0.147,0.34
				c-0.016,0.11,0.104,0.248,0.089,0.363c-0.009,0.119,0.087,0.243,0.078,0.362c-0.011,0.12-0.273,0.217-0.285,0.331
				c-0.009,0.12,0.14,0.248,0.131,0.368c-0.009,0.119-0.087,0.238-0.092,0.349c-0.004,0.12-0.076,0.239-0.081,0.358
				c-0.004,0.12,0.094,0.244,0.094,0.358c0,0.115-0.11,0.239-0.11,0.354c0,0.101,0.26,0.207,0.331,0.308
				c0.058,0.083,0.016,0.285,0.097,0.372c0.078,0.078,0.193,0.134,0.273,0.207c0.083,0.083,0.255,0.064,0.317,0.147
				c0.076-0.092,0.143-0.188,0.225-0.28c0.081-0.093,0.101-0.23,0.177-0.327c0.076-0.092,0.305-0.063,0.379-0.165
				c0.071-0.101,0.048-0.257,0.101-0.367c0.046-0.102-0.016-0.396,0.037-0.506c0.12,0,0.216,0.34,0.335,0.34
				c0.021,0.11,0.375,0.014,0.397,0.124c0.025,0.11-0.167,0.267-0.147,0.377c0.023,0.11,0.296,0.197,0.306,0.308
				c0.009,0.115-0.12,0.258-0.133,0.368c-0.021,0.146,0.09,0.239,0.106,0.358c0.018,0.151-0.016,0.188,0.062,0.289
				c0.076,0.102-0.021,0.455,0.115,0.501c0.11,0.042,0.317-0.316,0.469-0.308c0.12,0.009,0.225,0.308,0.347,0.317
				c0.119,0,0.248-0.313,0.368-0.309c0.119,0,0.234,0.455,0.356,0.455c0.12,0,0.239,0.019,0.358,0.023s0.244-0.188,0.37-0.18
				c0.119,0,0.248-0.101,0.368-0.092c0.119,0.005,0.246,0.023,0.365,0.027c0.12,0.005,0.239,0.056,0.363,0.064
				c0.126,0.01,0.255-0.138,0.375-0.128c0.12,0.009,0.226,0.289,0.35,0.294c0.119,0.004,0.236,0.124,0.36,0.138
				c0.125,0.009,0.258-0.267,0.379-0.258c0.12,0.005,0.225,0.309,0.349,0.317c0.12,0.005,0.264-0.345,0.384-0.34
				s0.225,0.308,0.349,0.317c0.124,0.009,0.255-0.221,0.379-0.207c0.124,0.009,0.248-0.124,0.372-0.115
				c0.122,0.005,0.228,0.313,0.352,0.322c0.119,0,0.253-0.221,0.379-0.212c0.12,0.005,0.244-0.046,0.368-0.046
				c0.124,0.009,0.221,0.428,0.34,0.432c0.119,0.01,0.265-0.372,0.384-0.367s0.239,0.101,0.36,0.105
				c0.12,0.005,0.239,0.088,0.358,0.102c0.12,0.004,0.244-0.032,0.373-0.023c0.119,0,0.229-0.06,0.367-0.101
				c0.119-0.037,0.321,0.174,0.464,0.128c0.115-0.036,0.309-0.202,0.455-0.238c-0.097-0.11-0.34-0.23-0.427-0.326
				c-0.088-0.115-0.322-0.102-0.4-0.203c-0.092-0.109-0.068-0.303-0.156-0.399c-0.092-0.11-0.267-0.119-0.358-0.211
				c-0.078-0.078-0.073-0.304-0.115-0.433c-0.039-0.11,0.019-0.257,0-0.386c-0.016-0.115,0.188-0.239,0.188-0.363
				c-0.009-0.114-0.192-0.234-0.184-0.354c0.01-0.119-0.066-0.258-0.048-0.377s0.264-0.193,0.287-0.313
				c0.027-0.119-0.195-0.313-0.158-0.423c0.043-0.119,0.388-0.092,0.443-0.193c0.055-0.114-0.161-0.404-0.088-0.486
				c0.088-0.102,0.299-0.042,0.4-0.069c0.119-0.032,0.238-0.087,0.358-0.119c0.119-0.032,0.184-0.271,0.303-0.304
				c0.12-0.027,0.34,0.336,0.46,0.308c0.119-0.027,0.211-0.188,0.331-0.216c0.119-0.027,0.197-0.271,0.321-0.299
				c0.119-0.027,0.275,0.11,0.399,0.083c0.125-0.027,0.258,0.027,0.382,0c0.129-0.022,0.229-0.133,0.35-0.156
				c0.119-0.027,0.262,0.037,0.381,0.014c0.124-0.022,0.271,0.078,0.391,0.06c0.129-0.027,0.152-0.496,0.271-0.523
				c0.124-0.027,0.409,0.321,0.528,0.303c0.069-0.119,0.184-0.321,0.229-0.432c0.056-0.129-0.05-0.313-0.018-0.432
				c0.031-0.129,0.22-0.248,0.229-0.377c0.009-0.129-0.331-0.258-0.34-0.382c-0.019-0.133-0.064-0.234-0.093-0.354
				c-0.027-0.129,0.047-0.275,0.01-0.396c-0.046-0.119,0.161-0.34,0.115-0.459c-0.051-0.12-0.455-0.088-0.511-0.202
				c-0.055-0.12-0.041-0.263-0.092-0.377c-0.046-0.12,0.11-0.317,0.069-0.437c-0.042-0.12-0.18-0.207-0.212-0.331
				c-0.027-0.124-0.009-0.253-0.019-0.381c-0.014-0.12-0.197-0.432-0.188-0.561c0.129,0.055,0.396,0.23,0.506,0.299
				c0.119,0.069,0.34,0.06,0.432,0.152c0.102,0.092,0.202,0.28,0.258,0.395c0.055,0.11-0.046,0.294,0,0.404
				c0.055,0.11,0.083,0.229,0.129,0.35c0.046,0.11-0.064,0.285-0.014,0.404c0.05,0.11,0.06,0.229,0.105,0.34
				c0.046,0.12,0.34,0.138,0.377,0.248c0.036,0.12-0.11,0.304-0.083,0.414c0.041,0.119,0.147,0.207,0.18,0.331
				c0.031,0.11-0.051,0.257-0.023,0.381c0.037,0.12,0.304,0.17,0.331,0.29c0.027,0.119-0.156,0.284-0.129,0.404
				c0.023,0.119,0.386,0.175,0.414,0.294c0.018,0.119-0.331,0.304-0.313,0.423c0.014,0.119,0.313,0.202,0.321,0.321
				c0.019,0.12-0.294,0.271-0.285,0.391c0.01,0.12,0.074,0.234,0.083,0.354c0.005,0.119,0.267,0.238,0.267,0.358
				c0,0.119,0.046,0.248,0.037,0.377c0,0.119-0.083,0.243-0.093,0.362c-0.009,0.12-0.294,0.216-0.308,0.336
				c-0.014,0.119,0.216,0.275,0.197,0.396c-0.018,0.119-0.202,0.206-0.229,0.33c-0.019,0.12,0.156,0.28,0.129,0.4
				c-0.027,0.119-0.06,0.238-0.092,0.358c-0.037,0.114-0.193,0.202-0.226,0.317c-0.041,0.114-0.082,0.229-0.119,0.344
				c-0.041,0.115-0.207,0.185-0.253,0.295c-0.041,0.105-0.193,0.17-0.239,0.289c-0.05,0.11,0.185,0.35,0.129,0.46
				c-0.055,0.11-0.019,0.087-0.073,0.197c0.133,0.023,0.133-0.087,0.253-0.069c0.133,0.023,0.243,0.139,0.362,0.147
				c0.139,0.014,0.267-0.027,0.387-0.027c0.138,0.009,0.257,0.143,0.377,0.133c0.146-0.009,0.294,0.088,0.408,0.051
				c0.134-0.037,0.263-0.119,0.358-0.193c0.102-0.078,0.345-0.096,0.414-0.211c0.06-0.102,0.119-0.267,0.17-0.4
				c0.037-0.109-0.083-0.298-0.051-0.432c0.028-0.114,0.106-0.234,0.129-0.372c0.023-0.124,0.11-0.239,0.134-0.367
				c0.018-0.12-0.093-0.267-0.074-0.391c0.023-0.125,0.083-0.244,0.092-0.368c0.019-0.124,0.11-0.243,0.12-0.372
				c0.009-0.119-0.193-0.267-0.185-0.391c0.01-0.124-0.119-0.253-0.114-0.382c0.005-0.119,0.124-0.238,0.124-0.367
				c0-0.124,0.165-0.248,0.165-0.372s0.019-0.253,0.01-0.382c0-0.119-0.01-0.253-0.019-0.377c-0.01-0.124-0.01-0.253-0.019-0.377
				c-0.009-0.128-0.184-0.238-0.202-0.358c-0.009-0.128-0.046-0.248-0.064-0.372s0.239-0.289,0.221-0.409
				c-0.019-0.128-0.175-0.229-0.197-0.349c-0.023-0.129-0.29-0.193-0.317-0.322c-0.027-0.119-0.092-0.229-0.129-0.349
				c-0.027-0.12,0.285-0.331,0.258-0.451c-0.037-0.119-0.193-0.202-0.23-0.321c-0.036-0.119-0.133-0.221-0.174-0.34
				c-0.037-0.12-0.156-0.202-0.198-0.322c-0.041-0.119,0.221-0.349,0.17-0.469c-0.041-0.114-0.482-0.073-0.532-0.184
				c-0.047-0.119,0.101-0.308,0.046-0.423c-0.056-0.115-0.134-0.211-0.185-0.326c-0.055-0.11-0.179-0.188-0.238-0.303
				c-0.056-0.11-0.083-0.234-0.143-0.345s0.032-0.303-0.027-0.414c-0.064-0.11-0.313-0.101-0.382-0.202
				c-0.064-0.11-0.165-0.184-0.239-0.285c-0.073-0.102,0-0.308-0.073-0.405c-0.078-0.101-0.064-0.271-0.138-0.368
				c-0.083-0.096-0.092-0.266-0.17-0.358c-0.083-0.096-0.271-0.096-0.363-0.188c-0.083-0.087-0.11-0.243-0.193-0.335
				c-0.087-0.092-0.146-0.211-0.238-0.294c-0.093-0.092-0.23-0.138-0.317-0.221c-0.092-0.083-0.253-0.092-0.345-0.174
				c-0.092-0.083-0.239-0.106-0.34-0.188c-0.092-0.078-0.304-0.023-0.4-0.097c-0.097-0.083-0.06-0.322-0.16-0.395
				c-0.093-0.078-0.061-0.327-0.156-0.405c-0.115-0.092-0.396,0.092-0.501,0.037c-0.134-0.064-0.221-0.064-0.336-0.074
				c-0.138-0.009-0.146,0.055-0.267,0.124c-0.101,0.06-0.377-0.078-0.45,0.051c-0.064,0.101-0.229,0.211-0.271,0.34
				c-0.041,0.12,0.061,0.294,0.032,0.441c-0.019,0.11,0.046,0.248,0.019,0.368c-0.027,0.115-0.211,0.174-0.253,0.294
				c-0.041,0.11-0.114,0.193-0.17,0.299c-0.051,0.11-0.078,0.207-0.146,0.303c-0.064,0.097-0.152,0.147-0.239,0.23
				c-0.092,0.087,0.019,0.399-0.073,0.487c-0.102,0.087-0.202,0.179-0.304,0.262c-0.101,0.083-0.377-0.06-0.48,0.018
				c-0.101,0.074-0.14,0.239-0.25,0.313c-0.105,0.083-0.147,0.244-0.253,0.322c-0.105,0.069-0.158,0.221-0.269,0.294
				c-0.106,0.078-0.182,0.193-0.287,0.267c-0.106,0.078-0.394,0-0.499,0.078c0.129-0.014,0.306-0.069,0.437-0.087
				c0.129-0.009,0.273,0.175,0.402,0.161s0.253-0.023,0.384-0.032c0.129-0.019,0.257-0.019,0.384-0.037
				c0.128-0.014,0.253-0.074,0.377-0.083c0.128-0.018,0.206-0.404,0.33-0.423c0.147-0.018,0.304,0.175,0.419,0.156
				c0.151-0.018,0.28,0,0.391-0.009c0.16-0.014,0.275,0.184,0.386,0.184c0.165,0.009,0.165-0.027,0.253,0.046
				c0.087,0.074,0.105,0.101,0.17,0.257c0.046,0.097,0.073,0.074,0.129,0.221c-0.12,0.009-0.069,0.11-0.188,0.12
				c-0.12,0.018-0.23,0.128-0.35,0.138c-0.119,0.019-0.229,0.11-0.35,0.124c-0.119,0.014-0.229,0.078-0.354,0.097
				c-0.119,0.014-0.267-0.23-0.391-0.211s-0.258-0.037-0.382-0.019c-0.128,0.019-0.206,0.28-0.33,0.304
				c-0.127,0.019-0.27-0.092-0.394-0.074c-0.126,0.023-0.236,0.124-0.36,0.147c-0.124,0.019-0.253-0.005-0.379,0.019
				c-0.124,0.019-0.244,0.064-0.368,0.083c-0.126,0.018-0.264-0.064-0.388-0.047c-0.127,0.019-0.26-0.046-0.384-0.027
				s-0.202,0.358-0.327,0.377c-0.124,0.019-0.248,0.037-0.374,0.056c-0.124,0.014-0.287-0.276-0.411-0.263s-0.246,0.042-0.37,0.056
				c-0.124,0.014-0.23,0.262-0.354,0.271c-0.124,0.01-0.255,0-0.379,0.01c-0.124,0.005-0.253,0.022-0.379,0.022
				c-0.124,0.005-0.252-0.142-0.376-0.142c-0.126,0-0.25-0.097-0.375-0.097c-0.125,0-0.246-0.134-0.37-0.134
				c-0.124-0.009-0.253,0.161-0.379,0.156c-0.124-0.004-0.248-0.022-0.372-0.027c-0.126-0.009-0.264,0.304-0.388,0.294
				c-0.126,0-0.23-0.367-0.356-0.372c-0.124-0.005-0.243-0.06-0.367-0.069c-0.126-0.009-0.26,0.198-0.384,0.193
				c-0.11-0.005-0.345,0.083-0.451,0.009c-0.096-0.063,0.09-0.354-0.009-0.404c0.081-0.083,0.085-0.096,0.168-0.188
				c0.09-0.106,0.11-0.234,0.214-0.253c0.115-0.018,0.207-0.211,0.321-0.229c0.115-0.019,0.226-0.092,0.34-0.11
				c0.115-0.009,0.26,0.193,0.375,0.174c0.115-0.014,0.207-0.243,0.326-0.257c0.12-0.014,0.248,0.124,0.363,0.115
				c0.115-0.014,0.22-0.152,0.335-0.17c0.115-0.009,0.246,0.101,0.361,0.092c0.115-0.014,0.406,0,0.521-0.014
				c-0.124-0.032-0.478,0.143-0.588,0.092c-0.12-0.051-0.14-0.304-0.241-0.373c-0.105-0.064-0.186-0.151-0.273-0.229
				c-0.09-0.092-0.31-0.064-0.381-0.166c-0.074-0.101,0.071-0.34,0.014-0.446c-0.058-0.106-0.048-0.23-0.097-0.345
				c-0.048-0.115-0.354-0.124-0.393-0.248c-0.039-0.11,0.115-0.294,0.076-0.409c-0.037-0.119-0.195-0.197-0.234-0.313
				c-0.037-0.119,0.097-0.299,0.053-0.409c-0.043-0.129-0.128-0.239-0.186-0.35s-0.071-0.275-0.14-0.376
				c-0.071-0.106-0.234-0.166-0.315-0.258c-0.087-0.092-0.193-0.193-0.294-0.266c-0.099-0.074-0.244-0.101-0.358-0.156
				c-0.11-0.055-0.26-0.028-0.379-0.074c-0.115-0.037-0.296-0.193-0.425-0.225c0.009,0.124,0.167,0.322,0.182,0.441
				c0.014,0.124-0.226,0.28-0.207,0.396c0.019,0.119,0.411,0.17,0.437,0.29c0.019,0.119-0.239,0.285-0.221,0.404
				c0.019,0.12,0.207,0.211,0.221,0.331c0.014,0.119,0.186,0.229,0.191,0.344c0.011,0.12-0.354,0.253-0.354,0.373
				s0.092,0.239,0.076,0.349c-0.014,0.12,0.092,0.267,0.058,0.381c-0.032,0.12-0.301,0.179-0.335,0.299
				c-0.032,0.128-0.042,0.257-0.076,0.377c-0.035,0.124-0.087,0.239-0.12,0.363c-0.03,0.124,0.177,0.303,0.149,0.428
				c-0.03,0.124-0.211,0.211-0.241,0.335c-0.023,0.124,0.11,0.28,0.087,0.4c-0.025,0.128-0.345,0.202-0.366,0.331
				c-0.018,0.124,0.379,0.303,0.366,0.432c-0.014,0.119-0.467,0.202-0.476,0.331c-0.009,0.119,0.317,0.275,0.313,0.399
				c-0.004,0.124-0.308,0.244-0.313,0.372c0,0.12,0.207,0.248,0.211,0.377c0.005,0.124,0.234,0.234,0.25,0.358
				c0.009,0.124-0.101,0.258-0.087,0.377c0.014,0.129-0.308,0.304-0.288,0.428c0.019,0.124,0.195,0.225,0.225,0.354
				c0.028,0.119-0.057,0.275-0.025,0.399c0.034,0.12,0.423,0.139,0.462,0.263c0.041,0.119,0.105,0.294,0.099,0.395
				c-0.005,0.129-0.225,0.258-0.301,0.336c-0.071,0.068-0.207,0.087-0.34,0.11c-0.101,0.014-0.202-0.088-0.335-0.105
				c-0.14-0.015-0.308,0.184-0.427,0.156c-0.138-0.037-0.327,0-0.43-0.056c-0.126-0.064-0.078-0.386-0.163-0.478
				c-0.092-0.088-0.335-0.088-0.389-0.212c-0.048-0.11,0.014-0.28-0.004-0.418c-0.016-0.119,0.042-0.253,0.05-0.391
				c0.007-0.119-0.142-0.271-0.119-0.409c0.021-0.124,0.078-0.234,0.092-0.354s-0.053-0.239-0.043-0.358
				c0.009-0.124,0.101-0.234,0.105-0.354c0.004-0.119-0.145-0.234-0.149-0.358c0-0.119,0.097-0.234,0.092-0.358
				c-0.009-0.124,0.149-0.252,0.133-0.381C20.243,28.846,20.314,28.721,20.292,28.597z M36.803,41.764
				c-0.009-0.147-0.226-0.276-0.239-0.387c-0.019-0.146,0.193-0.321,0.166-0.432c-0.032-0.147-0.193-0.248-0.248-0.35
				c-0.064-0.119-0.226-0.143-0.331-0.221c-0.092-0.068-0.184-0.11-0.322-0.16c-0.11-0.042-0.229-0.078-0.367-0.106
				c-0.115-0.022-0.239-0.055-0.386-0.073c-0.102-0.009-0.202-0.092-0.317-0.129c-0.105-0.032-0.151-0.192-0.253-0.243
				c-0.11-0.051-0.221-0.051-0.299-0.115c-0.097-0.073-0.207-0.105-0.243-0.202c-0.06-0.128-0.166-0.221-0.229-0.321
				c-0.078-0.119-0.249-0.124-0.331-0.212c-0.102-0.101-0.138-0.202-0.248-0.262c-0.11-0.068-0.139-0.363-0.263-0.399
				c-0.124-0.032-0.299,0.092-0.427,0.082c-0.129-0.009-0.248,0.239-0.382,0.239c-0.133,0.01-0.262-0.119-0.391-0.11
				c-0.129,0.019-0.287-0.271-0.416-0.257c-0.128,0.014-0.234,0.386-0.362,0.395c-0.127,0-0.265-0.22-0.389-0.211
				c-0.127,0.005-0.246,0.253-0.37,0.257c-0.124,0.005-0.265-0.248-0.389-0.243s-0.25,0.051-0.379,0.06
				c-0.129,0-0.243,0.193-0.374,0.198c-0.124,0.004-0.253-0.051-0.382-0.046c-0.126,0.004-0.25,0.096-0.379,0.105
				c-0.124,0.004-0.259-0.304-0.388-0.304c-0.124,0-0.255-0.064-0.379-0.064s-0.255,0.404-0.379,0.404
				c-0.125,0-0.244-0.427-0.373-0.427c-0.126-0.005-0.264,0.423-0.395,0.418c-0.124-0.005-0.248-0.147-0.373-0.156
				c-0.131,0-0.25-0.102-0.379-0.11c-0.129-0.009-0.264,0.032-0.388,0.019c-0.129-0.019-0.278,0.129-0.402,0.11
				c-0.131-0.019-0.25-0.105-0.375-0.129c-0.124-0.019-0.225-0.211-0.354-0.229c-0.126-0.019-0.22-0.23-0.352-0.248
				c-0.124-0.023-0.257-0.005-0.383-0.028c-0.125-0.022-0.301,0.226-0.425,0.202c-0.124-0.027-0.216-0.266-0.34-0.289
				c-0.126-0.023-0.246-0.087-0.375-0.115c-0.124-0.022-0.255-0.064-0.379-0.082c-0.105-0.023-0.248,0.151-0.354,0.087
				c-0.096-0.055-0.246-0.046-0.34-0.105c-0.106-0.064-0.168-0.147-0.273-0.175c-0.11-0.027-0.211-0.097-0.322-0.027
				c-0.076,0.046-0.023,0.211-0.097,0.34c-0.062,0.102-0.397,0.17-0.388,0.313c0.005,0.119,0.035,0.285,0.062,0.423
				c0.03,0.124,0.198,0.226,0.232,0.35c0.032,0.128,0.181,0.238,0.2,0.367c0.014,0.119-0.037,0.262-0.019,0.391
				c0.019,0.129-0.018,0.253-0.034,0.372c-0.019,0.12-0.058,0.239-0.076,0.358c-0.018,0.12-0.186,0.212-0.207,0.331
				c-0.019,0.119,0.37,0.313,0.349,0.432c-0.018,0.12-0.31,0.193-0.329,0.313c-0.021,0.12-0.202,0.212-0.225,0.331
				c-0.025,0.12,0.071,0.258,0.051,0.377c-0.019,0.119,0.273,0.294,0.255,0.414c-0.019,0.119-0.464,0.17-0.485,0.289
				c-0.019,0.119-0.009,0.248-0.027,0.368c-0.021,0.124,0.101,0.262,0.08,0.381c-0.014,0.124,0.005,0.248-0.009,0.372
				c-0.014,0.12,0.087,0.253,0.076,0.372c-0.009,0.12-0.177,0.23-0.182,0.35c-0.009,0.129,0.058,0.253,0.062,0.372
				c0.004,0.124,0.021,0.244,0.043,0.363c0.025,0.119-0.043,0.275-0.004,0.386c0.039,0.12,0.23,0.175,0.283,0.285
				s-0.035,0.308,0.034,0.409c0.067,0.097,0.115,0.243,0.195,0.335c0.083,0.093,0.304,0.056,0.393,0.139
				c0.092,0.082,0.097,0.284,0.202,0.354c0.101,0.069,0.26,0.064,0.37,0.115c0.104,0.055,0.248,0.046,0.363,0.087
				c0.115,0.041,0.198,0.207,0.317,0.234c0.115,0.027,0.296-0.313,0.42-0.294c0.12,0.019,0.216,0.129,0.335,0.138
				c0.12,0.005,0.246-0.046,0.37-0.037c0.119,0,0.234,0.404,0.354,0.409c0.12,0.005,0.255-0.331,0.375-0.326
				c0.12,0.005,0.234,0.275,0.358,0.275c0.122,0.01,0.255-0.395,0.375-0.391c0.12,0.005,0.234,0.363,0.361,0.363
				c0.12,0.01,0.244,0.064,0.363,0.064c0.12,0.005,0.246-0.119,0.37-0.115c0.12,0.005,0.249-0.16,0.368-0.16
				c0.122,0.009,0.246-0.083,0.37-0.083c0.12,0.005,0.234,0.45,0.361,0.45c0.12,0,0.248-0.285,0.368-0.28
				c0.119,0.005,0.246-0.032,0.365-0.032s0.244-0.036,0.363-0.036s0.246,0.018,0.365,0.018s0.239,0.143,0.363,0.143
				c0.126,0,0.245,0.102,0.365,0.102c0.119,0,0.243,0.114,0.362,0.114c0.122,0,0.246-0.124,0.37-0.124c0.12,0,0.244-0.11,0.365-0.11
				c0.12,0,0.244,0.253,0.363,0.253c0.12,0,0.239-0.156,0.361-0.156c0.119,0,0.238,0.064,0.358,0.064
				c0.119-0.009,0.238,0.056,0.358,0.051c0.121-0.005,0.236-0.115,0.352-0.124c0.119-0.01,0.243,0.092,0.362,0.083
				c0.12-0.01,0.221-0.23,0.341-0.239c0.119,0,0.248,0.146,0.367,0.138s0.239-0.06,0.35-0.073c0.119-0.01,0.229-0.156,0.34-0.166
				c0.119-0.009,0.239-0.036,0.354-0.05c0.129-0.015,0.244-0.106,0.354-0.12c0.133-0.022,0.284,0.151,0.395,0.134
				c0.139-0.023,0.239-0.143,0.341-0.175c0.133-0.046,0.133-0.271,0.229-0.331c0.11-0.064,0.474,0.138,0.542,0.037
				c0.06-0.097-0.267-0.368-0.229-0.497c0.032-0.11,0.271-0.174,0.28-0.313c0.009-0.109-0.239-0.238-0.234-0.372
				c0-0.114,0.129-0.229,0.129-0.362c0-0.115-0.12-0.234-0.124-0.368c-0.005-0.147,0.092-0.34,0.124-0.487
				c0.027-0.129,0.413-0.17,0.44-0.294c0.028-0.129-0.33-0.34-0.303-0.469c0.027-0.119,0.35-0.179,0.377-0.303
				c0.032-0.129-0.248-0.322-0.221-0.446c0.032-0.124,0.501-0.143,0.533-0.271c0.027-0.124,0.073-0.243,0.101-0.367
				c0.028-0.124-0.128-0.294-0.101-0.418C36.651,42.012,36.775,41.888,36.803,41.764z M27.251,23.248
				c0.037-0.115-0.021-0.409,0.019-0.524c0.124,0.009,0.282,0.239,0.407,0.244c0.126,0.009,0.255-0.115,0.374-0.115
				c0.124-0.004,0.239-0.124,0.365-0.133c0.124-0.009,0.243-0.018,0.363-0.037c0.124-0.009,0.245-0.009,0.365-0.027
				c0.119-0.023,0.243-0.032,0.363-0.06c0.119-0.023,0.255,0,0.374-0.032c0.119-0.027,0.273,0.069,0.393,0.032
				c0.12-0.032,0.221-0.128,0.341-0.161c0.114-0.042,0.216-0.143,0.33-0.179c0.115-0.042,0.212-0.133,0.327-0.179
				c0.114-0.042,0.177-0.211,0.291-0.253c0.115-0.05,0.249-0.042,0.358-0.092c0.11-0.046,0.341,0.143,0.451,0.096
				c0.11-0.055,0.16-0.239,0.271-0.294c0.11-0.05,0.115-0.322,0.226-0.377s0.285,0.014,0.396-0.037
				c0.109-0.055,0.349,0.156,0.459,0.101c0.11-0.06,0.056-0.441,0.166-0.496c0.105-0.055,0.321,0.055,0.404-0.037
				c0.082-0.087-0.042-0.326,0.032-0.432c0.068-0.101,0.349-0.064,0.408-0.175c0.064-0.11,0.093-0.234,0.147-0.331
				c0.055-0.101-0.055-0.294,0-0.399c0.055-0.106,0.156-0.188,0.202-0.294c0.046-0.11,0.009-0.252,0.051-0.363
				c0.051-0.11,0.372-0.092,0.427-0.198c0.056-0.105,0.156-0.17,0.221-0.271c0.056-0.097-0.211-0.423-0.138-0.515
				c0.073-0.097,0.46,0.101,0.552,0.014c0.083-0.078-0.097-0.487,0-0.556c0.101-0.064,0.285-0.014,0.396-0.064
				c0.101-0.046,0.248-0.009,0.367-0.041s0.202-0.129,0.294-0.188c0.105-0.06,0.056-0.23,0.129-0.322
				c0.078-0.087,0.17-0.11,0.211-0.221c0.046-0.101,0.249-0.156,0.267-0.271c0.019-0.106,0.212-0.225,0.221-0.345
				c0-0.115-0.041-0.248-0.046-0.368c-0.005-0.115-0.285-0.216-0.294-0.331c-0.009-0.087,0.037-0.335-0.102-0.422
				c-0.128-0.083-0.381-0.216-0.478-0.203c-0.138,0.019-0.257,0.019-0.367,0.028c-0.147,0.019-0.249,0.253-0.35,0.248
				c-0.165-0.009-0.35,0.032-0.423-0.037s-0.102-0.257-0.102-0.423c0-0.097,0.093-0.221,0.12-0.358
				c0.019-0.11-0.102-0.267-0.073-0.404c0.027-0.129,0.376-0.193,0.391-0.308c0.014-0.124,0.022-0.271,0.022-0.391
				s-0.156-0.253-0.175-0.368c-0.027-0.124-0.179-0.202-0.221-0.313c-0.046-0.11-0.036-0.248-0.105-0.34
				c-0.073-0.101-0.133-0.221-0.225-0.294c-0.093-0.073-0.198-0.156-0.313-0.211c-0.106-0.046-0.193-0.234-0.317-0.266
				c-0.11-0.032-0.308,0.358-0.428,0.349c-0.119-0.019-0.221-0.29-0.34-0.29c-0.133,0-0.285-0.152-0.414-0.138
				c-0.128,0.014-0.257,0.147-0.386,0.165c-0.129,0.023-0.202,0.363-0.335,0.382c-0.129,0.018-0.322-0.386-0.451-0.368
				c-0.128,0.018-0.243,0.06-0.372,0.073c-0.128,0.009-0.248,0.147-0.377,0.147c-0.109,0-0.211,0.019-0.323-0.014
				c-0.106-0.027-0.251,0.042-0.356,0c-0.104-0.037-0.156-0.229-0.258-0.267c-0.109-0.041-0.238-0.014-0.344-0.041
				c-0.11-0.023-0.226-0.037-0.336-0.028c-0.126,0.009-0.265-0.073-0.389-0.064c-0.126,0.009-0.241,0.179-0.365,0.193
				c-0.124,0.009-0.269-0.152-0.397-0.138c-0.124,0.014-0.26-0.023-0.384-0.009c-0.124,0.014-0.229,0.207-0.358,0.221
				c-0.126,0.014-0.273-0.128-0.399-0.115c-0.124,0.014-0.239,0.12-0.367,0.133c-0.129,0.019-0.246,0.101-0.37,0.12
				c-0.124,0.018-0.269-0.092-0.397-0.074c-0.124,0.019-0.195,0.395-0.322,0.414c-0.124,0.019-0.262-0.064-0.393-0.046
				c-0.124,0.019-0.243,0.083-0.368,0.105c-0.126,0.019-0.312-0.363-0.441-0.335c-0.126,0.019-0.193,0.373-0.317,0.396
				c-0.125,0.027-0.296-0.211-0.423-0.193c-0.124,0.028-0.161,0.451-0.283,0.474c-0.12,0.027-0.319-0.294-0.441-0.262
				c-0.119,0.028-0.257,0-0.376,0.028c-0.12,0.027-0.216,0.174-0.335,0.202c-0.12,0.032-0.207,0.221-0.327,0.253
				c-0.119,0.027-0.225,0.147-0.345,0.17c-0.122,0.027-0.34-0.377-0.461-0.354c-0.124,0.032-0.177,0.335-0.288,0.381
				c-0.119,0.046-0.195,0.124-0.292,0.193c-0.106,0.069-0.129,0.147-0.191,0.257c-0.064,0.101-0.092,0.156-0.105,0.294
				c-0.016,0.11-0.149,0.216-0.131,0.349c0.021,0.12-0.057,0.249-0.048,0.358c0.016,0.129-0.09,0.23-0.094,0.345
				c-0.005,0.124,0.115,0.221,0.08,0.326c-0.032,0.11,0.014,0.253-0.066,0.345c-0.071,0.078-0.278-0.078-0.397-0.023
				c-0.097,0.042-0.124,0.211-0.255,0.244c-0.106,0.023-0.221-0.032-0.35-0.023c-0.101,0.009-0.349,0.101-0.446,0.211
				c-0.066,0.083-0.066,0.276-0.128,0.391c-0.058,0.101-0.211,0.179-0.26,0.29s0.097,0.313,0.053,0.423
				c-0.048,0.119-0.25,0.179-0.287,0.28c-0.014,0.037,0.195,0.326,0.375,0.459c0.108,0.087,0.315,0.069,0.434,0.133
				c0.168,0.097,0.313,0.147,0.384,0.105c0.12-0.06,0.202-0.179,0.304-0.216c0.128-0.046,0.282,0.115,0.383,0.11
				c0.138-0.009,0.239-0.074,0.329-0.019c0.097,0.055,0.356,0.046,0.414,0.156c0.053,0.101-0.282,0.373-0.246,0.487
				c0.034,0.101,0.462,0.092,0.494,0.211c0.034,0.11-0.143,0.294-0.099,0.395c0.042,0.11,0.324,0.129,0.373,0.239
				c0.043,0.11-0.032,0.267,0.009,0.376c0.044,0.11,0.198,0.175,0.241,0.285c0.044,0.11,0.053,0.239,0.094,0.349
				c0.048,0.11-0.229,0.368-0.181,0.478c0.053,0.11,0.459,0.032,0.517,0.138c0.06,0.106-0.138,0.354-0.076,0.455
				s0.388,0.014,0.459,0.11c0.074,0.097-0.19,0.482-0.11,0.565c0.083,0.087,0.184,0.202,0.278,0.275
				c0.101,0.074,0.326-0.009,0.432,0.06c0.105,0.069,0.269,0.032,0.379,0.092s0.216,0.12,0.331,0.17
				c0.115,0.055,0.211,0.143,0.331,0.184c0.115,0.046,0.288-0.064,0.407-0.019c0.12,0.037,0.149,0.345,0.269,0.386
				c0.12,0.037,0.211,0.179,0.331,0.22c0.12,0.037,0.322-0.193,0.441-0.156c0.12,0.037,0.154,0.354,0.273,0.396
				c0.12,0.037,0.349-0.271,0.469-0.23C27.001,22.921,27.132,23.207,27.251,23.248z M39.532,11.042
				c0.027-0.11-0.078-0.308-0.055-0.418c-0.092-0.078,0-0.303-0.083-0.391c-0.092-0.087-0.262-0.087-0.354-0.17
				c-0.088-0.092-0.258-0.092-0.345-0.179c-0.083-0.087-0.175-0.175-0.262-0.262c-0.088-0.083-0.161-0.179-0.253-0.267
				c-0.092-0.083-0.17-0.174-0.262-0.267c-0.088-0.083-0.143-0.207-0.234-0.289c-0.093-0.078-0.102-0.262-0.193-0.345
				C37.4,8.372,37.263,8.34,37.17,8.262c-0.101-0.073-0.238-0.101-0.34-0.174c-0.101-0.069-0.229-0.097-0.331-0.166
				c-0.11-0.064-0.28-0.023-0.386-0.092c-0.105-0.064-0.175-0.179-0.285-0.249c-0.11-0.064-0.073-0.358-0.179-0.422
				c-0.105-0.074-0.294,0-0.4-0.074c-0.101-0.06-0.34,0.083-0.445,0.019c-0.105-0.064-0.143-0.249-0.248-0.313
				c-0.105-0.064-0.069-0.386-0.17-0.446c-0.11-0.06-0.404,0.193-0.511,0.128c-0.11-0.06-0.105-0.317-0.216-0.376
				c-0.11-0.064-0.335,0.087-0.445,0.023c-0.11-0.064-0.092-0.35-0.198-0.414c-0.11-0.06-0.238-0.083-0.345-0.147
				c-0.109-0.064-0.308,0.046-0.418-0.018c-0.11-0.064-0.184-0.179-0.294-0.239c-0.11-0.055-0.267-0.037-0.374-0.096
				c-0.11-0.064-0.074-0.391-0.185-0.451c-0.11-0.064-0.186-0.179-0.296-0.243c-0.11-0.055-0.411,0.239-0.521,0.174
				c-0.11-0.055-0.017-0.492-0.127-0.551c-0.11-0.055-0.425,0.257-0.535,0.197c-0.105-0.06-0.145-0.225-0.25-0.271
				c-0.11-0.05-0.191-0.17-0.306-0.202c-0.115-0.037-0.246-0.009-0.361-0.037c-0.119-0.023-0.243,0.128-0.358,0.119
				c-0.119-0.009-0.221-0.083-0.335-0.078c-0.119,0.005-0.251-0.161-0.365-0.151c-0.12,0.019-0.283-0.138-0.397-0.11
				s-0.234,0.101-0.349,0.138c-0.115,0.037-0.136,0.331-0.246,0.377s-0.31-0.11-0.416-0.055c-0.105,0.051-0.243,0.069-0.344,0.129
				c-0.106,0.055-0.226,0.101-0.327,0.17c-0.101,0.064-0.083,0.322-0.177,0.391c-0.105,0.073-0.154,0.221-0.255,0.294
				c-0.101,0.069-0.23,0.11-0.331,0.184c-0.101,0.073-0.248,0.087-0.349,0.156c-0.101,0.073-0.115,0.275-0.216,0.349
				s-0.402-0.129-0.503-0.051s-0.202,0.152-0.301,0.226c-0.101,0.078-0.119,0.267-0.22,0.34c-0.101,0.078-0.126,0.257-0.226,0.331
				c-0.101,0.078-0.25,0.092-0.352,0.166c-0.099,0.083-0.225,0.124-0.324,0.202c-0.101,0.073-0.211,0.138-0.313,0.211
				c-0.101,0.078-0.292,0.037-0.388,0.119c-0.101,0.074,0.057,0.483-0.044,0.561c-0.101,0.073-0.363-0.06-0.464,0.018
				c-0.101,0.074-0.296,0.028-0.397,0.101c-0.101,0.078-0.126,0.253-0.226,0.331c-0.101,0.073,0.005,0.404-0.096,0.487
				c-0.101,0.074-0.464-0.179-0.565-0.101c-0.101,0.074-0.182,0.175-0.278,0.257c-0.101,0.078-0.115,0.267-0.211,0.34
				c-0.101,0.078-0.172,0.188-0.273,0.267c-0.101,0.073-0.124,0.244-0.225,0.322c-0.097,0.083-0.292,0.041-0.393,0.119
				c-0.097,0.074-0.154,0.211-0.255,0.285c-0.094,0.078-0.195,0.156-0.296,0.239c-0.097,0.074-0.26,0.078-0.354,0.156
				c-0.097,0.074-0.097,0.285-0.198,0.358c-0.101,0.083-0.31,0.028-0.407,0.115c-0.096,0.087-0.225,0.142-0.317,0.229
				c-0.09,0.087-0.058,0.308-0.143,0.4c-0.087,0.092-0.294,0.074-0.379,0.166c-0.087,0.092-0.11,0.248-0.198,0.34
				c-0.085,0.097-0.12,0.239-0.205,0.331c-0.087,0.097-0.269,0.097-0.356,0.193c-0.085,0.092,0.14,0.358,0.053,0.455
				c0.016,0.097-0.138-0.009-0.124,0.087c0.115-0.046,0.12-0.138,0.234-0.188c0.115-0.051,0.384,0.28,0.494,0.23
				c0.115-0.051,0.105-0.4,0.22-0.451c0.115-0.05,0.327,0.161,0.441,0.115c0.115-0.041,0.087-0.464,0.207-0.505
				c0.115-0.046,0.354,0.244,0.474,0.202c0.115-0.046,0.25-0.037,0.37-0.073c0.115-0.046,0.191-0.202,0.306-0.239
				c0.115-0.046,0.184-0.239,0.299-0.28c0.115-0.037,0.205-0.17,0.324-0.207c0.122-0.037,0.375,0.349,0.489,0.308
				c0.12-0.041,0.149-0.345,0.269-0.381c0.12-0.042,0.226-0.11,0.345-0.151c0.12-0.032,0.226-0.11,0.345-0.143
				c0.122-0.037,0.241-0.064,0.361-0.097s0.278,0.069,0.397,0.032c0.12-0.032,0.264,0.027,0.384,0
				c0.12-0.037,0.269,0.046,0.388,0.009c0.12-0.028,0.207-0.179,0.326-0.211c0.12-0.032,0.216-0.17,0.336-0.198
				c0.119-0.032,0.296,0.188,0.416,0.161c0.12-0.028,0.207-0.203,0.327-0.234c0.119-0.023,0.255,0.014,0.379-0.009
				c0.12-0.023,0.253,0.014,0.375-0.009c0.12-0.023,0.221-0.152,0.345-0.17c0.12-0.028,0.257,0.055,0.384,0.037
				c0.119-0.027,0.205-0.257,0.331-0.276c0.12-0.018,0.267,0.129,0.393,0.106c0.12-0.019,0.234-0.078,0.358-0.097
				c0.124-0.023,0.225-0.17,0.349-0.184c0.126-0.019,0.246-0.055,0.366-0.069c0.124-0.014,0.234-0.11,0.358-0.125
				c0.126-0.014,0.269,0.166,0.393,0.147c0.126-0.014,0.236-0.12,0.36-0.129c0.124-0.014,0.225-0.234,0.349-0.244
				s0.282,0.391,0.402,0.381c0.126-0.014,0.216-0.432,0.342-0.441c0.124-0.009,0.262,0.211,0.389,0.202
				c0.124-0.009,0.234-0.267,0.358-0.276s0.255,0.12,0.379,0.11s0.243-0.128,0.368-0.128c0.126-0.009,0.25,0.037,0.374,0.032
				c0.124-0.005,0.255,0.358,0.379,0.354c0.124,0,0.244-0.404,0.37-0.404c0.124,0,0.244,0.299,0.368,0.299s0.252-0.317,0.372-0.308
				c0.128,0,0.238,0.451,0.358,0.459c0.129,0,0.248,0.019,0.372,0.028c0.124,0.004,0.253-0.188,0.382-0.179
				c0.119,0.004,0.248-0.097,0.367-0.087c0.129,0,0.248,0.019,0.372,0.027c0.124,0.009,0.244,0.064,0.372,0.074
				c0.12,0.009,0.258-0.138,0.382-0.124c0.124,0.009,0.221,0.299,0.345,0.313s0.234,0.133,0.354,0.147
				c0.124,0.014,0.271-0.248,0.4-0.234c0.124,0.014,0.211,0.322,0.33,0.335c0.12,0.014,0.29-0.326,0.414-0.308
				c0.119,0.009,0.197,0.321,0.321,0.34c0.129,0.019,0.276-0.193,0.404-0.17c0.12,0.018,0.267-0.097,0.387-0.074
				c0.119,0.023,0.192,0.345,0.316,0.363c0.12,0.018,0.281-0.188,0.409-0.166c0.12,0.023,0.258-0.014,0.377,0.009
				c0.12,0.027,0.166,0.455,0.285,0.478C39.184,11.093,39.413,11.019,39.532,11.042z M34.316,38.243
				c0.088,0.087,0.326,0.073,0.418,0.156c0.12-0.027,0.258,0.184,0.382,0.165c0.129-0.022,0.243-0.175,0.35-0.234
				c0.101-0.06,0.143-0.225,0.243-0.316c0.087-0.074,0.17-0.161,0.258-0.263c0.082-0.092,0.17-0.179,0.252-0.28
				c0.069-0.101,0.152-0.202,0.226-0.313c0.064-0.101,0.184-0.179,0.243-0.294c0.061-0.11,0.239-0.165,0.304-0.275
				c0.06-0.11,0.06-0.258,0.119-0.372c0.06-0.115,0.051-0.258,0.097-0.382c0.046-0.119,0.046-0.257,0.092-0.377
				c0.042-0.124-0.041-0.28-0.009-0.404c0.041-0.119,0.129-0.221,0.156-0.34c0.027-0.129,0.321-0.207,0.335-0.331
				c0.019-0.129-0.114-0.285-0.11-0.404c0.005-0.138-0.243-0.226-0.262-0.336c-0.027-0.143,0.073-0.289,0.037-0.399
				c-0.046-0.138,0.138-0.414,0.064-0.506c-0.083-0.11-0.409,0.092-0.533,0.046c-0.11-0.041-0.193-0.271-0.34-0.257
				c-0.12,0.009-0.188,0.275-0.331,0.317c-0.11,0.031-0.368-0.125-0.501-0.069c0.051,0.119,0.124,0.299,0.17,0.418
				c0.051,0.12,0.271,0.17,0.321,0.29c0.046,0.11,0.037,0.252,0.074,0.362c0.046,0.12,0.174,0.221,0.197,0.336
				c0.032,0.119-0.262,0.275-0.262,0.396c0.009,0.119-0.069,0.184-0.097,0.303c-0.032,0.11,0.299,0.377,0.234,0.487
				c-0.056,0.092-0.469-0.055-0.552,0.041c-0.073,0.078,0.143,0.469,0.046,0.557c-0.082,0.073-0.248,0.046-0.321,0.138
				c-0.069,0.087-0.202,0.129-0.271,0.229c-0.06,0.097-0.068,0.226-0.128,0.326c-0.051,0.102,0.036,0.271-0.01,0.382
				c-0.051,0.101-0.161,0.175-0.207,0.28s-0.257,0.138-0.308,0.248c-0.046,0.105-0.257,0.134-0.308,0.244
				C34.33,37.912,34.367,38.142,34.316,38.243z M19.322,38.5c-0.177-0.009-0.393,0.152-0.574,0.143
				c-0.009,0.124-0.225,0.17-0.234,0.299c-0.009,0.12,0.096,0.258,0.08,0.386c-0.009,0.124,0.092,0.267,0.083,0.387
				c-0.009,0.128-0.025,0.253-0.039,0.377c-0.009,0.124-0.037,0.248-0.053,0.372c-0.014,0.124-0.032,0.253-0.048,0.372
				c-0.014,0.129-0.081,0.248-0.09,0.372c-0.016,0.124-0.154,0.239-0.167,0.363c-0.014,0.129,0.032,0.257,0.023,0.386
				c-0.009,0.124,0.039,0.253,0.03,0.382c-0.009,0.124,0.028,0.253,0.014,0.381c-0.009,0.12,0.106,0.263,0.097,0.387
				c-0.012,0.124-0.083,0.243-0.092,0.367c-0.009,0.129-0.288,0.229-0.301,0.358c-0.011,0.119,0.129,0.262,0.12,0.386
				s0.221,0.267,0.211,0.396c-0.012,0.119-0.159,0.239-0.168,0.363c-0.011,0.124-0.317,0.229-0.326,0.354s0.349,0.276,0.345,0.404
				c-0.009,0.12-0.239,0.23-0.246,0.363c-0.004,0.129,0.228,0.262,0.221,0.391c-0.004,0.119-0.271,0.239-0.278,0.358
				c-0.005,0.151,0.048,0.299,0.087,0.414c0.043,0.138,0.255,0.128,0.345,0.216c0.092,0.087,0.14,0.179,0.269,0.216
				c0.115,0.037,0.234-0.037,0.375-0.032c0.124,0.005,0.262,0.308,0.397,0.29c0.124-0.01,0.437-0.093,0.565-0.12
				c-0.081-0.092-0.503-0.138-0.579-0.229c-0.083-0.092,0.177-0.45,0.105-0.542c-0.078-0.102-0.494,0.046-0.563-0.056
				c-0.067-0.105-0.019-0.285-0.071-0.396c-0.053-0.11-0.028-0.252-0.067-0.367s-0.124-0.216-0.149-0.336
				c-0.023-0.114-0.195-0.229-0.204-0.354c-0.007-0.115,0.062-0.257,0.071-0.377c0.009-0.119,0.2-0.221,0.226-0.34
				c0.018-0.119,0.225-0.184,0.259-0.304c0.032-0.119,0.023-0.257,0.051-0.376c0.03-0.12-0.214-0.295-0.191-0.414
				s0.264-0.207,0.283-0.326c0.019-0.124,0.083-0.243,0.097-0.363c0.014-0.119,0.048-0.253,0.057-0.372
				c0.009-0.119-0.202-0.262-0.193-0.391c0.012-0.119-0.076-0.248-0.071-0.367c0.005-0.129,0.053-0.244,0.058-0.368
				c0.004-0.124,0.087-0.243,0.092-0.363c0.004-0.124-0.149-0.253-0.145-0.372c0.004-0.129,0.34-0.243,0.344-0.363
				c0.007-0.124,0.007-0.243,0.012-0.367s-0.136-0.253-0.131-0.372c0.004-0.12-0.12-0.248-0.115-0.372
				c0.005-0.124,0.087-0.244,0.097-0.363C19.242,38.85,19.313,38.629,19.322,38.5z M34.404,33.28
				c-0.12,0.014-0.258,0.225-0.377,0.238c-0.124,0.019-0.285-0.197-0.396-0.175c-0.119,0.028-0.221,0.175-0.321,0.212
				c-0.12,0.037-0.18,0.193-0.276,0.248c-0.101,0.064-0.175,0.119-0.248,0.212c-0.073,0.092-0.124,0.165-0.156,0.284
				c-0.027,0.106-0.051,0.207-0.046,0.336c0.009,0.11-0.005,0.239,0.064,0.367c0.055,0.106,0.037,0.304,0.119,0.404
				c0.083,0.102,0.239,0.161,0.336,0.234c0.114,0.088,0.271,0.102,0.381,0.129s0.239-0.019,0.358-0.036
				c0.12-0.019,0.185-0.166,0.304-0.212c0.105-0.046,0.221-0.037,0.326-0.097s0.363,0.083,0.455,0.01
				c0.097-0.078,0.092-0.28,0.165-0.373c0.083-0.101-0.073-0.303-0.036-0.404c0.051-0.124,0.192-0.133,0.156-0.238
				c-0.037-0.106,0.151-0.363,0.083-0.455c-0.069-0.092-0.428,0.068-0.511-0.005c-0.087-0.083-0.027-0.321-0.11-0.386
				C34.574,33.491,34.473,33.344,34.404,33.28z M28.032,25.33c-0.105-0.064-0.374-0.073-0.475-0.138
				c-0.106-0.064-0.076-0.335-0.177-0.396c-0.106-0.069-0.273-0.037-0.37-0.101c-0.104-0.069-0.271-0.037-0.372-0.105
				c-0.106-0.069-0.207-0.133-0.308-0.202c-0.106-0.069-0.195-0.152-0.296-0.216c-0.101-0.064-0.198-0.142-0.296-0.211
				c-0.101-0.064-0.172-0.174-0.273-0.243c-0.101-0.069-0.283-0.253-0.384-0.317c0.019,0.12,0.032,0.386,0.062,0.506
				c0.028,0.11,0.129,0.22,0.172,0.331c0.043,0.12,0.14,0.211,0.191,0.322c0.053,0.11,0.22,0.147,0.285,0.253
				c0.062,0.105,0.076,0.229,0.147,0.326c0.078,0.101-0.037,0.372,0.044,0.455c0.092,0.087,0.296,0.06,0.393,0.124
				c0.115,0.073,0.265-0.12,0.375-0.106c0.097,0.014,0.138,0.133,0.253,0.087c0.092-0.037,0.317,0.184,0.423,0.129
				c0.092-0.046,0.014-0.428,0.12-0.478C27.635,25.288,27.927,25.38,28.032,25.33z M29.824,24.829
				c0.12,0.069,0.384,0.037,0.489,0.087c0.129,0.055,0.191,0.322,0.302,0.34c0.14,0.023,0.303-0.106,0.413-0.147
				c0.11-0.037,0.134-0.202,0.226-0.303c0.071-0.083,0.129-0.174,0.19-0.303c0.048-0.101,0.11-0.202,0.154-0.331
				c0.039-0.11,0.094-0.174,0.131-0.313c-0.104,0.06-0.175,0.074-0.276,0.129c-0.105,0.055-0.269-0.009-0.362,0.046
				c-0.102,0.055-0.177,0.161-0.273,0.211c-0.102,0.06-0.173,0.166-0.273,0.221c-0.102,0.055-0.173,0.156-0.278,0.211
				C30.169,24.723,29.93,24.769,29.824,24.829z"/>
		</g>
		<g>
			<path d="M28.602,17.545c-0.096,0.092-0.464,0.092-0.551,0.17c-0.096,0.087-0.19,0.17-0.278,0.244
				c-0.096,0.087-0.143,0.216-0.234,0.294c-0.096,0.083-0.202,0.147-0.292,0.23c-0.097,0.083-0.203,0.147-0.294,0.225
				c-0.094,0.078-0.156,0.198-0.248,0.271c-0.092,0.083-0.124,0.193-0.216,0.276c-0.048-0.064-0.23,0.004-0.292-0.074
				c-0.097-0.11-0.198-0.414-0.182-0.432c0.076-0.092,0.129-0.211,0.205-0.303c0.078-0.092,0.269-0.092,0.352-0.18
				c0.081-0.087,0.349-0.009,0.43-0.101c0.083-0.087-0.053-0.381,0.03-0.469c0.081-0.087,0.182-0.161,0.269-0.243
				c0.085-0.087,0.402,0.073,0.494-0.009c0.037-0.042,0.032-0.147,0.252-0.037C28.161,17.462,28.448,17.485,28.602,17.545z"/>
		</g>
		<g>
			<path d="M30.442,17.246c0.097,0.101,0.173,0.161,0.26,0.253c0.095,0.101,0.019,0.368,0.105,0.455
				c0.095,0.102,0.402-0.014,0.487,0.078c0.097,0.102,0.255,0.129,0.343,0.221c0.092,0.097-0.06,0.432,0.027,0.524
				c0.097,0.092,0.367,0.23,0.455,0.322c0.105-0.152,0.354-0.644,0.335-0.671c-0.082-0.11-0.143-0.23-0.225-0.34
				c-0.078-0.11-0.147-0.239-0.23-0.34c-0.078-0.11-0.206-0.193-0.289-0.294c-0.085-0.106-0.214-0.179-0.299-0.28
				c-0.087-0.106-0.326-0.069-0.418-0.17c-0.034-0.037,0.039,0.092-0.154,0.202C30.739,17.26,30.571,17.187,30.442,17.246z"/>
		</g>
		<g>
			<path d="M29.459,21.975c-0.009-0.133-0.119-0.304-0.129-0.432c-0.009-0.133,0.354-0.285,0.345-0.414
				c-0.009-0.129-0.314-0.248-0.326-0.377c-0.009-0.128,0.039-0.285,0.03-0.414c0.08,0,0.221-0.019,0.321-0.027
				c0.143,0,0.058,0.055,0.063,0.069c0.019,0.124,0.331,0.211,0.345,0.335s0.119,0.248,0.128,0.377
				c0.017,0.128-0.319,0.285-0.306,0.414c0.01,0.128,0.054,0.138,0.067,0.267c-0.106,0.009-0.071,0.009-0.177,0.018
				C29.714,21.8,29.564,21.961,29.459,21.975z"/>
		</g>
		<g>
			<path d="M29.135,14.59c0.063,0.106-0.073,0.345-0.011,0.446c0.063,0.101,0.347,0.074,0.408,0.175
				c0.063,0.101-0.053,0.303,0.01,0.414c0.062,0.101,0.326,0.087,0.384,0.193c0.058,0.106,0.19,0.184,0.238,0.285
				c0.054,0.11-0.238,0.368-0.195,0.478c0.019,0.055,0.143,0.152-0.029,0.276c-0.102,0.074-0.255,0.12-0.37,0.198
				c-0.124,0.083-0.271,0.161-0.367,0.229c-0.054-0.119,0.101-0.354,0.048-0.478c-0.053-0.125-0.379-0.125-0.432-0.244
				c-0.053-0.12-0.187-0.207-0.239-0.326c-0.053-0.125,0.209-0.382,0.156-0.506c-0.051-0.119-0.104-0.239-0.156-0.363
				s-0.163-0.147-0.216-0.267c0.094-0.051,0.146-0.019,0.243-0.064s0.207-0.087,0.304-0.133C29,14.852,29.034,14.641,29.135,14.59z"
				/>
		</g>
		<g>
			<path d="M26.987,15.266c0,0.119,0.115,0.275,0.083,0.376c-0.039,0.11-0.105,0.257-0.174,0.35
				c-0.067,0.092-0.389-0.083-0.483-0.019c-0.092,0.069-0.096,0.211-0.207,0.248c-0.106,0.032-0.191,0.161-0.313,0.161
				c-0.12,0-0.239-0.014-0.345-0.051c-0.11-0.037-0.105-0.248-0.195-0.317c-0.092-0.069-0.409,0.087-0.476-0.014
				c-0.067-0.087,0.115-0.317,0.083-0.432c-0.034-0.106,0.076-0.188,0.076-0.308c0-0.119-0.067-0.179-0.028-0.29
				c0.037-0.11,0.124-0.128,0.191-0.22c0.066-0.092-0.124-0.423-0.03-0.492c0.092-0.069,0.259-0.069,0.37-0.106
				c0.106-0.032,0.244-0.037,0.361-0.037c0.12,0,0.283-0.083,0.388-0.046c0.108,0.037,0.205,0.184,0.296,0.248
				c0.09,0.069,0.048,0.271,0.115,0.363c0.066,0.087,0.062,0.179,0.101,0.29C26.829,15.082,26.987,15.15,26.987,15.266z"/>
		</g>
		<g>
			<path d="M32.671,14.208c0,0.147,0.152,0.294,0.097,0.423c-0.055,0.128-0.073,0.317-0.165,0.418
				c-0.102,0.101-0.331,0.032-0.46,0.087c-0.124,0.055-0.238,0.124-0.381,0.124c-0.145,0-0.331,0.101-0.455,0.051
				c-0.131-0.055-0.29-0.161-0.389-0.257c-0.097-0.092,0.124-0.396,0.071-0.524c-0.053-0.12-0.186-0.175-0.186-0.322
				c0-0.138-0.088-0.285-0.035-0.409c0.053-0.128,0.134-0.252,0.23-0.349c0.096-0.097,0.296,0,0.423-0.05
				c0.124-0.055,0.19-0.4,0.335-0.4c0.143,0,0.234,0.29,0.358,0.345c0.129,0.055,0.119,0.193,0.216,0.294
				c0.097,0.092,0.188,0.101,0.248,0.23C32.64,13.997,32.671,14.071,32.671,14.208z"/>
		</g>
	</g>
</g>
</svg>
