<?xml version="1.0" encoding="utf-8"?>
<!-- Generator: Adobe Illustrator 16.0.0, SVG Export Plug-In . SVG Version: 6.00 Build 0)  -->
<!DOCTYPE svg PUBLIC "-//W3C//DTD SVG 1.1//EN" "http://www.w3.org/Graphics/SVG/1.1/DTD/svg11.dtd">
<svg version="1.1" id="圖層_1" xmlns="http://www.w3.org/2000/svg" xmlns:xlink="http://www.w3.org/1999/xlink" x="0px" y="0px"
	 width="55px" height="55px" viewBox="0 0 55 55" enable-background="new 0 0 55 55" xml:space="preserve">
<path d="M50.253,7.672c0,0.099,0.02,0.196,0.01,0.292c-0.006,0.094-0.198,0.161-0.213,0.25c-0.02,0.097-0.015,0.179-0.035,0.27
	c-0.029,0.091,0.198,0.262,0.169,0.352c-0.03,0.091-0.094,0.173-0.134,0.262c-0.045,0.087-0.124,0.156-0.174,0.24
	c-0.039,0.084-0.307,0.032-0.355,0.114c-0.05,0.079,0.183,0.349,0.129,0.426c-0.06,0.077-0.288,0.025-0.348,0.099
	c-0.054,0.072,0.021,0.257-0.044,0.327c-0.064,0.074-0.347-0.057-0.411,0.015c-0.064,0.069,0.021,0.277-0.045,0.342
	c-0.063,0.069-0.128,0.143-0.192,0.208c-0.069,0.069-0.054,0.213-0.119,0.277c-0.069,0.069-0.207,0.067-0.272,0.131
	c-0.063,0.069-0.252,0.028-0.312,0.097c-0.06,0.069-0.113,0.156-0.179,0.225c-0.059,0.072,0.109,0.324,0.06,0.394
	c-0.06,0.074-0.147,0.109-0.197,0.186c-0.049,0.077-0.287,0.04-0.337,0.116c-0.039,0.084-0.158,0.139-0.192,0.223
	c-0.04,0.079-0.016,0.198-0.045,0.287c-0.03,0.084,0.158,0.238,0.139,0.327c-0.024,0.089-0.1,0.158-0.119,0.248
	c-0.01,0.089-0.118,0.168-0.124,0.262c-0.004,0.094,0.05,0.183,0.05,0.277c0.005,0.089,0.1,0.173,0.109,0.262
	c0.015,0.089,0.054,0.168,0.073,0.257c0.016,0.089,0.036,0.168,0.06,0.257c0.021,0.094-0.01,0.198,0.011,0.288
	c0.029,0.088,0.059,0.173,0.089,0.267c0.029,0.089,0.104,0.163,0.133,0.247c0.035,0.089-0.054,0.218-0.02,0.307
	c0.035,0.089-0.004,0.208,0.025,0.292c0.034,0.089-0.05,0.213-0.01,0.302c0.024,0.094,0.376,0.079,0.405,0.168
	c0.025,0.089-0.05,0.237-0.05,0.336c0,0.109-0.049,0.218-0.079,0.307c-0.039,0.089-0.237,0.109-0.272,0.198
	c-0.034,0.089,0.185,0.277,0.154,0.361c-0.035,0.089-0.049,0.183-0.084,0.272s-0.303,0.094-0.332,0.178
	c-0.03,0.089,0.104,0.238,0.075,0.327c-0.025,0.089-0.006,0.193-0.035,0.287c-0.03,0.089-0.223,0.124-0.253,0.218
	c-0.029,0.089-0.133,0.159-0.153,0.248c-0.029,0.094-0.064,0.178-0.089,0.272c-0.029,0.094,0.123,0.232,0.1,0.322
	c-0.03,0.089-0.05,0.178-0.08,0.272c-0.02,0.094-0.055,0.183-0.079,0.272c-0.02,0.089,0.079,0.208,0.06,0.307
	c-0.016,0.089-0.298,0.128-0.317,0.218s0.03,0.203,0.02,0.292c-0.02,0.094-0.108,0.173-0.123,0.267
	c-0.016,0.094,0.198,0.223,0.183,0.312c-0.01,0.099-0.198,0.159-0.212,0.258c-0.011,0.093,0,0.188-0.011,0.282
	c-0.015,0.094,0.169,0.208,0.153,0.302c-0.004,0.094,0.04,0.188,0.035,0.282c-0.005,0.094-0.118,0.178-0.124,0.272
	c-0.01,0.099,0.01,0.188,0,0.282c0,0.094-0.128,0.183-0.128,0.277c-0.006,0.094-0.114,0.193-0.114,0.282
	c0,0.094,0.271,0.184,0.271,0.277c0,0.1-0.267,0.199-0.267,0.288c0.005,0.099,0.158,0.188,0.168,0.277
	c0,0.099,0.174,0.178,0.179,0.272c0.01,0.094-0.011,0.183-0.005,0.282c0.005,0.094-0.124,0.198-0.114,0.287
	c0.016,0.099-0.128,0.208-0.118,0.303c0.01,0.093,0.183,0.168,0.197,0.262c0.016,0.089-0.034,0.192-0.024,0.287
	c0.005,0.099,0.183,0.184,0.193,0.282c0,0.094-0.1,0.193-0.1,0.292c0,0.094,0.06,0.193,0.06,0.292c0,0.094,0.029,0.193,0.029,0.292
	c-0.004,0.094-0.039,0.188-0.039,0.287c-0.005,0.094-0.104,0.188-0.104,0.282s-0.075,0.192-0.075,0.292s0.218,0.183,0.229,0.282
	c0.005,0.095-0.188,0.208-0.179,0.302c0.01,0.085,0.124,0.158,0.134,0.248c0.015,0.083,0.055,0.163,0.074,0.252
	c0.02,0.085-0.188,0.223-0.169,0.312c0.021,0.085,0.08,0.174,0.109,0.253c0.03,0.084,0.198,0.124,0.238,0.193
	c0.039,0.084-0.05,0.252,0.004,0.321c0.056,0.074,0.327-0.084,0.392-0.029c0.079,0.06,0.039,0.307,0.129,0.352
	c0.084,0.04,0.262-0.145,0.356-0.109c0.089,0.03,0.138,0.208,0.228,0.223c0.099,0.02,0.202-0.109,0.302-0.104
	c0.099,0,0.184,0.1,0.282,0.094c0.095-0.005,0.228,0.179,0.327,0.153c0.089-0.015,0.099-0.352,0.198-0.376
	c0.089-0.029,0.177-0.029,0.267-0.079c0.089-0.04,0.223,0.024,0.312-0.024c0.085-0.055,0.114-0.204,0.204-0.253
	c0.083-0.04,0.167-0.114,0.256-0.148c0.095-0.035,0.238,0.064,0.327,0.04c0.1-0.02,0.208,0.088,0.307,0.078
	c0.095-0.02,0.179-0.167,0.272-0.167c0.095,0,0.168,0.217,0.263,0.227c0.094,0.02,0.218-0.153,0.307-0.123
	c0.095,0.024,0.148,0.143,0.238,0.183c0.089,0.04,0.247-0.074,0.336-0.024c0.089,0.054,0.174,0.124,0.247,0.179
	c0.08,0.063,0.144,0.153,0.209,0.223c0.079,0.069,0.129,0.168,0.178,0.247c0.049,0.084,0.079,0.188,0.099,0.282
	c0.01,0.094,0.01,0.203-0.02,0.302c-0.021,0.084,0.01,0.228-0.05,0.316c-0.049,0.075-0.197,0.09-0.272,0.169
	c-0.063,0.063-0.044,0.237-0.128,0.307c-0.074,0.059-0.203,0.049-0.272,0.104c-0.079,0.063-0.208,0.054-0.277,0.113
	c-0.079,0.06-0.158,0.099-0.232,0.158s-0.114,0.159-0.193,0.213c-0.074,0.055-0.213,0-0.297,0.05
	c-0.079,0.045-0.104,0.188-0.192,0.223c-0.085,0.039-0.164,0.099-0.253,0.129c-0.089,0.02-0.178,0.084-0.272,0.099
	c-0.09,0.015-0.188,0.06-0.282,0.069c-0.089,0-0.183-0.06-0.272-0.05c-0.083,0.021-0.152,0.134-0.242,0.149
	c-0.084,0.024-0.192-0.05-0.282-0.025c-0.084,0.025-0.134,0.148-0.218,0.184c-0.084,0.029-0.272-0.198-0.355-0.164
	c-0.085,0.035-0.085,0.263-0.169,0.302c-0.085,0.035-0.183,0.03-0.268,0.069c-0.084,0.04-0.144,0.129-0.223,0.169
	c-0.079,0.034-0.119,0.168-0.203,0.198c-0.084,0.039-0.202-0.02-0.271,0.024c-0.079,0.055-0.075,0.163-0.129,0.228
	c-0.065,0.064-0.203,0.055-0.238,0.134c-0.039,0.079-0.247,0.129-0.262,0.218c-0.015,0.084,0.252,0.188,0.262,0.287
	c0.006,0.079-0.05,0.168-0.024,0.257c0.024,0.08,0.174,0.163,0.178,0.248c0.006,0.1-0.203,0.168-0.242,0.237
	c-0.05,0.085-0.005,0.218-0.04,0.297c-0.039,0.09-0.157,0.144-0.188,0.229c-0.029,0.094,0.03,0.207,0.011,0.302
	c-0.025,0.094,0.039,0.192,0.029,0.282c-0.01,0.099-0.06,0.178-0.064,0.271s-0.263,0.193-0.263,0.288
	c0.01,0.094,0.317,0.173,0.327,0.267c0.005,0.095-0.04,0.188-0.029,0.282c0.01,0.099,0.078,0.178,0.093,0.271
	c0.015,0.095-0.093,0.208-0.073,0.298c0.01,0.094,0.054,0.183,0.068,0.277c0.016,0.094-0.039,0.197-0.024,0.292
	c0.015,0.094,0.229,0.168,0.232,0.262c0.016,0.094-0.089,0.203-0.084,0.303c0.005,0.099,0.094,0.192,0.094,0.292
	c0,0.099,0,0.202-0.01,0.297c-0.004,0.094-0.099,0.188-0.113,0.282c-0.01,0.099,0.109,0.217,0.094,0.316
	c-0.021,0.085-0.257,0.139-0.356,0.223c-0.079,0.069-0.228,0.015-0.327,0.064c-0.099,0.06-0.129,0.268-0.223,0.287
	c-0.099,0.02-0.212-0.074-0.321-0.089c-0.109-0.016-0.223,0.005-0.317-0.029c-0.107-0.04-0.107-0.233-0.188-0.288
	c-0.079-0.06-0.277,0.055-0.347,0c-0.069-0.063-0.237-0.049-0.296-0.119c-0.065-0.069,0.098-0.312,0.044-0.385
	c-0.055-0.08-0.034-0.179-0.084-0.258c-0.045-0.08-0.169-0.119-0.204-0.198c-0.034-0.084-0.143-0.138-0.177-0.223
	c-0.035-0.084-0.006-0.193-0.035-0.282c-0.03-0.089-0.021-0.179-0.05-0.268c-0.03-0.088-0.193-0.134-0.217-0.217
	c-0.03-0.09,0.068-0.219,0.039-0.308c-0.029-0.09-0.079-0.179-0.114-0.267c-0.034-0.09,0.045-0.229,0.01-0.317
	c-0.034-0.084-0.401-0.034-0.44-0.119c-0.04-0.089,0.129-0.267,0.089-0.355c-0.034-0.09,0-0.208-0.034-0.298
	c-0.035-0.089-0.242-0.104-0.277-0.188c-0.034-0.089-0.04-0.192-0.074-0.286c-0.029-0.089-0.005-0.198-0.039-0.277
	c-0.04-0.084-0.03-0.208-0.08-0.277c-0.055-0.079-0.268-0.015-0.331-0.074c-0.069-0.06-0.124-0.09-0.208-0.129
	c-0.074-0.044-0.113-0.183-0.203-0.203c-0.079-0.02-0.179,0.1-0.277,0.09c-0.079,0-0.183-0.223-0.276-0.213
	c-0.085,0.015-0.179,0.074-0.268,0.094c-0.1,0.02-0.209-0.06-0.313-0.044c-0.104,0.014-0.192,0.024-0.297,0.034
	c-0.104,0.01-0.183,0.198-0.287,0.208s-0.202,0-0.307,0c-0.104,0.004-0.203,0.01-0.302,0.02c-0.109,0-0.198,0.134-0.297,0.139
	c-0.104,0.01-0.214-0.218-0.317-0.218c-0.099-0.006-0.228,0-0.321,0.015c-0.094,0.02-0.163,0.184-0.258,0.193
	c-0.094,0.015-0.183,0.064-0.272,0.079c-0.099,0.01-0.198,0-0.292,0.01s-0.188,0.01-0.281,0.024c-0.1,0.015-0.209-0.104-0.298-0.083
	c-0.099,0.01-0.163,0.256-0.257,0.267c-0.099,0.01-0.198-0.011-0.287-0.005c-0.1,0.015-0.203-0.085-0.297-0.075
	c-0.095,0.011-0.208-0.118-0.297-0.108c-0.1,0.01-0.198-0.029-0.288-0.02c-0.098,0.01-0.188,0.055-0.286,0.064
	c-0.089,0.005-0.159,0.326-0.258,0.332c-0.094,0.01-0.208-0.188-0.302-0.174c-0.094,0.005-0.193-0.055-0.292-0.045
	c-0.094,0.006-0.188-0.02-0.287-0.015c-0.094,0.005-0.178,0.144-0.272,0.153c-0.094,0.01-0.193,0.01-0.282,0.016
	c-0.099,0.005-0.198-0.085-0.296-0.079c-0.09,0.004-0.179,0.084-0.278,0.094c-0.089,0.01-0.168,0.228-0.262,0.237
	c-0.095,0.005-0.203-0.114-0.298-0.108c-0.094,0.01-0.202-0.09-0.292-0.079c-0.099,0.01-0.202-0.074-0.296-0.064
	c-0.095,0.01-0.185,0.099-0.277,0.108c-0.094,0.015-0.169,0.178-0.263,0.193c-0.095,0.01-0.179,0.079-0.272,0.089
	c-0.099,0.02-0.213-0.144-0.307-0.128c-0.1,0.014-0.179,0.099-0.268,0.118c-0.099,0.01-0.178,0.079-0.277,0.099
	c-0.094,0.01-0.188,0.029-0.277,0.045c-0.099,0.015-0.168,0.123-0.267,0.144c-0.089,0.02-0.218-0.149-0.317-0.129
	c-0.094,0.02-0.158,0.164-0.248,0.188c-0.088,0.02-0.177,0.049-0.271,0.073c-0.094,0.025-0.223-0.094-0.312-0.063
	c-0.09,0.024-0.149,0.178-0.243,0.198c-0.094,0.029-0.237-0.164-0.326-0.139c-0.095,0.02-0.178,0.049-0.272,0.069
	c-0.099,0.014-0.163,0.188-0.257,0.198c-0.095,0.01-0.198-0.164-0.297-0.159c-0.099,0.005-0.178,0.021-0.277,0.021
	c-0.089,0-0.173-0.03-0.267-0.046c-0.094-0.01-0.208,0.164-0.307,0.188c-0.089,0.016-0.149,0.134-0.243,0.173
	c-0.089,0.03-0.232-0.059-0.322-0.02c-0.088,0.04-0.163,0.109-0.257,0.148c-0.089,0.035-0.218-0.049-0.307-0.029
	c-0.109,0.029-0.178,0.218-0.287,0.228c-0.109,0.011-0.228-0.059-0.327-0.059c-0.089,0-0.139-0.169-0.223-0.188
	c-0.084-0.021-0.193,0.223-0.277,0.237c-0.089,0.015-0.173,0.1-0.262,0.114c-0.094,0.015-0.213-0.114-0.307-0.094
	c-0.089,0.02-0.159,0.163-0.248,0.178c-0.094,0.021-0.237-0.224-0.327-0.198c-0.094,0.015-0.133,0.292-0.228,0.313
	c-0.089,0.014-0.218-0.14-0.312-0.119c-0.094,0.025-0.168,0.113-0.263,0.133c-0.089,0.021-0.198-0.029-0.287-0.01
	c-0.089,0.02-0.143,0.198-0.237,0.224c-0.089,0.024-0.179,0.04-0.267,0.064c-0.094,0.029-0.164,0.113-0.258,0.139
	c-0.089,0.029-0.188,0-0.282,0.029c-0.089,0.03-0.242-0.139-0.327-0.119c-0.094,0.03-0.114,0.258-0.203,0.288
	c-0.089,0.029-0.208-0.035-0.297,0c-0.089,0.029-0.168,0.068-0.258,0.104c-0.089,0.034-0.193,0.014-0.282,0.049
	c-0.084,0.035-0.154,0.124-0.243,0.153c-0.084,0.03-0.173,0.065-0.258,0.1c-0.088,0.039-0.198,0.02-0.282,0.06
	c-0.089,0.034-0.193,0.029-0.277,0.069C18.98,40.383,18.99,40.62,18.9,40.66c-0.079,0.039-0.252-0.099-0.336-0.06
	c-0.084,0.049-0.168,0.089-0.248,0.134c-0.084,0.044-0.198,0.034-0.277,0.084c-0.079,0.04-0.089,0.223-0.168,0.268
	c-0.079,0.05-0.223-0.01-0.302,0.04c-0.084,0.049-0.035,0.306-0.109,0.355c-0.083,0.05-0.341-0.178-0.415-0.129
	c-0.075,0.05-0.084,0.219-0.159,0.277c-0.075,0.05-0.144,0.114-0.223,0.174c-0.074,0.055-0.05,0.247-0.119,0.307
	c-0.074,0.055-0.217,0.015-0.292,0.079c-0.074,0.06-0.173,0.084-0.242,0.149c-0.069,0.059-0.06,0.223-0.129,0.282
	c-0.069,0.059-0.262-0.016-0.327,0.049c-0.069,0.06-0.089,0.184-0.148,0.247c-0.07,0.069-0.04,0.223-0.109,0.287
	c-0.064,0.07-0.342-0.069-0.406,0c-0.064,0.07,0.079,0.326,0.02,0.396c-0.064,0.07-0.203,0.07-0.268,0.14
	c-0.059,0.069-0.198,0.089-0.242,0.168s-0.144,0.148-0.183,0.228s0.04,0.218,0,0.297c-0.04,0.09-0.035,0.198-0.079,0.272
	c-0.05,0.085-0.149,0.124-0.208,0.192c-0.055,0.075-0.178,0.1-0.233,0.169c-0.059,0.074-0.173,0.095-0.237,0.168
	c-0.064,0.069,0.084,0.327,0.025,0.396c-0.06,0.07-0.139,0.129-0.208,0.198c-0.064,0.07-0.268,0-0.332,0.065
	c-0.07,0.063-0.173,0.084-0.243,0.138c-0.069,0.06,0.05,0.367-0.03,0.421c-0.079,0.055-0.267-0.06-0.352-0.015
	c-0.079,0.044-0.089,0.232-0.178,0.272c-0.084,0.04-0.252-0.129-0.347-0.1c-0.083,0.03-0.158,0.069-0.252,0.09
	c-0.074,0.02-0.08-0.1-0.198-0.184c-0.109-0.084-0.283-0.049-0.288-0.124c-0.01-0.089-0.114-0.167-0.119-0.262
	c-0.01-0.094,0-0.184-0.01-0.272c0-0.089-0.049-0.183-0.049-0.277c0-0.089,0.158-0.178,0.163-0.263
	c0.005-0.094-0.064-0.192-0.054-0.276c0.02-0.095,0.118-0.158,0.138-0.242c0.03-0.09-0.044-0.204-0.02-0.288
	c0.03-0.089,0.218-0.123,0.248-0.208c0.024-0.084-0.055-0.207-0.025-0.292c0.03-0.084,0.005-0.188,0.035-0.271
	c0.029-0.084,0.139-0.144,0.168-0.229c0.035-0.078,0.015-0.183,0.05-0.267c0.03-0.085-0.04-0.208,0-0.292
	c0.03-0.085,0.069-0.168,0.109-0.248c0.035-0.083,0.089-0.163,0.124-0.242s0.119-0.144,0.154-0.228
	c0.04-0.08-0.005-0.198,0.03-0.282c0.04-0.084,0.128-0.134,0.158-0.218c0.024-0.084,0.302-0.104,0.321-0.193
	c0.025-0.084-0.198-0.223-0.183-0.307c0.01-0.095,0.079-0.174,0.079-0.268c0.005-0.089-0.074-0.173-0.079-0.268
	c-0.01-0.089-0.089-0.157-0.109-0.247c-0.01-0.084,0.223-0.223,0.198-0.312c-0.02-0.085-0.243-0.114-0.272-0.203
	c-0.024-0.089,0.173-0.253,0.139-0.337c-0.024-0.079-0.114-0.198-0.183-0.262c-0.064-0.055-0.317,0.119-0.396,0.063
	c-0.069-0.044-0.069-0.208-0.159-0.247c-0.08-0.039-0.208,0.029-0.287-0.01c-0.089-0.039-0.148-0.128-0.218-0.168
	c-0.089-0.05-0.188-0.06-0.277-0.1c-0.089-0.045-0.055-0.356-0.148-0.396c-0.089-0.039-0.268,0.159-0.361,0.129
	c-0.094-0.023-0.173-0.089-0.263-0.108c-0.099-0.021-0.188-0.184-0.277-0.188c-0.099,0-0.218,0.034-0.307,0.044
	c-0.099,0.016-0.198,0.064-0.297,0.094c-0.084,0.029-0.208,0.02-0.297,0.069c-0.084,0.045-0.04,0.298-0.124,0.356
	c-0.084,0.064-0.471,0.109-0.5,0.07c-0.069-0.09-0.094-0.169-0.168-0.219c-0.089-0.06-0.139-0.108-0.228-0.139
	c-0.094-0.029-0.168-0.079-0.272-0.079c-0.099-0.01-0.212-0.147-0.312-0.128c-0.099,0.01-0.198,0.049-0.297,0.068
	c-0.1,0.016-0.159,0.253-0.257,0.268c-0.099,0.016-0.218-0.015-0.317-0.015c-0.099,0-0.164-0.213-0.263-0.243
	c-0.084-0.029-0.213,0.229-0.302,0.277c-0.089,0.045-0.257-0.118-0.342-0.083c-0.094,0.034-0.119,0.271-0.208,0.292
	c-0.094,0.02-0.208-0.184-0.302-0.179c-0.099,0-0.179,0.084-0.273,0.073c-0.093-0.01-0.153-0.123-0.247-0.143
	c-0.089-0.021-0.178,0-0.262-0.04c-0.089-0.034-0.248,0.079-0.332,0.035C3.7,38.65,3.596,38.61,3.517,38.557
	c-0.069-0.06-0.193-0.095-0.257-0.163c-0.069-0.069,0.049-0.293-0.005-0.377c-0.055-0.073-0.133-0.123-0.173-0.208
	c-0.04-0.084-0.03-0.178-0.06-0.267S2.829,37.394,2.813,37.3c-0.015-0.085,0.208-0.184,0.218-0.277s-0.134-0.203-0.099-0.292
	c0.03-0.1,0.139-0.124,0.198-0.188c0.059-0.064,0.168-0.079,0.232-0.144s0.044-0.213,0.104-0.277
	c0.069-0.064-0.01-0.272,0.059-0.336c0.064-0.065,0.366,0.133,0.436,0.073c0.07-0.06,0.099-0.148,0.169-0.208
	C4.2,35.592,4.2,35.448,4.269,35.394c0.079-0.06,0.079-0.212,0.159-0.268c0.074-0.044,0.237,0.045,0.312,0
	c0.08-0.044,0.104-0.208,0.183-0.237c0.079-0.039,0.159-0.128,0.243-0.158c0.084-0.029,0.252,0.207,0.342,0.188
	c0.089-0.02,0.128-0.257,0.217-0.272c0.099-0.014,0.179-0.049,0.272-0.073c0.094-0.021,0.228,0.108,0.322,0.079
	c0.089-0.035,0.163-0.124,0.248-0.158c0.089-0.04,0.158-0.109,0.242-0.153c0.084-0.045,0.154-0.115,0.233-0.164
	c0.079-0.059,0.168-0.089,0.243-0.148c0.074-0.059,0.084-0.178,0.153-0.247c0.069-0.064,0.198-0.064,0.268-0.134
	c0.059-0.074,0.208-0.079,0.262-0.154c0.059-0.078-0.04-0.262,0.015-0.346c0.05-0.079,0.277-0.06,0.322-0.139
	c0.044-0.089-0.153-0.297-0.109-0.381c0.04-0.09,0.049-0.174,0.084-0.268c0.04-0.084,0.159-0.139,0.188-0.233
	c0.029-0.089,0.183-0.138,0.208-0.227c0.025-0.095,0.119-0.164,0.144-0.258c0.024-0.089-0.089-0.218-0.064-0.308
	c0.029-0.088,0.128-0.157,0.153-0.246c0.025-0.09-0.138-0.229-0.113-0.322c0.02-0.089,0.203-0.145,0.228-0.232
	c0.02-0.089-0.149-0.224-0.124-0.313c0.015-0.094,0.064-0.173,0.074-0.267c0.02-0.095,0.208-0.153,0.228-0.242
	c0.01-0.095,0.02-0.188,0.029-0.282c0.01-0.095,0.04-0.184,0.05-0.277c0.005-0.094,0-0.193,0-0.282
	c0.005-0.095-0.089-0.184-0.094-0.277c0-0.1,0.242-0.198,0.237-0.297c-0.005-0.089-0.361-0.154-0.371-0.248
	c-0.01-0.089,0.139-0.198,0.124-0.297c-0.015-0.094-0.094-0.188-0.104-0.277c0-0.099-0.079-0.203-0.074-0.297
	c0.005-0.094,0.03-0.198,0.04-0.297c0.01-0.094,0.277-0.158,0.292-0.248c0.015-0.099,0.01-0.193,0.025-0.287
	c0.015-0.094-0.099-0.213-0.074-0.307c0.015-0.094,0.208-0.148,0.228-0.243c0.02-0.094-0.169-0.232-0.154-0.327
	c0.015-0.094,0.267-0.144,0.282-0.232c0.02-0.099-0.138-0.228-0.128-0.317c0.02-0.099,0.158-0.168,0.178-0.268
	c0.015-0.099,0.079-0.183,0.099-0.277c0.02-0.099-0.193-0.247-0.168-0.346c0.02-0.094,0.099-0.178,0.124-0.272
	c0.02-0.1,0.252-0.154,0.272-0.252c0.01-0.099-0.158-0.228-0.148-0.322c0.01-0.099-0.119-0.198-0.119-0.297
	c0-0.094,0.307-0.183,0.307-0.282c0.005-0.089-0.084-0.188-0.079-0.287c0-0.094,0.109-0.188,0.109-0.282s-0.094-0.193-0.094-0.292
	c0-0.089-0.094-0.188-0.094-0.288c0-0.099,0.03-0.188,0.03-0.282s-0.144-0.188-0.144-0.282c0-0.099,0.302-0.188,0.302-0.287
	c0-0.094-0.079-0.188-0.079-0.282c0-0.094-0.198-0.193-0.198-0.288c0-0.094-0.06-0.188-0.06-0.282c0-0.099,0.287-0.193,0.287-0.287
	c0-0.099-0.03-0.188-0.03-0.287c0-0.094,0-0.188-0.01-0.282c0-0.094-0.198-0.188-0.208-0.282c0-0.094,0.069-0.193,0.064-0.287
	s-0.109-0.188-0.114-0.282c0-0.094,0.208-0.193,0.208-0.292c-0.005-0.094-0.173-0.183-0.178-0.277c0-0.099-0.069-0.188-0.069-0.283
	C9.689,17.099,9.669,17,9.664,16.911c-0.005-0.099,0.204-0.203,0.198-0.297c-0.01-0.099-0.228-0.149-0.248-0.243
	c-0.02-0.089,0.218-0.258,0.183-0.341c-0.035-0.089-0.139-0.159-0.183-0.233c-0.049-0.084-0.262-0.035-0.327-0.104
	c-0.06-0.069,0-0.243-0.069-0.307c-0.069-0.059-0.099-0.183-0.178-0.237c-0.079-0.05-0.282,0.129-0.366,0.089
	c-0.089-0.04-0.044-0.381-0.129-0.416c-0.088-0.03-0.203-0.035-0.297-0.06C8.16,14.743,8.016,15.01,7.922,15
	c-0.079-0.01-0.178-0.119-0.277-0.168c-0.075-0.035-0.099-0.178-0.184-0.237C7.388,14.55,7.229,14.609,7.15,14.55
	c-0.069-0.055-0.099-0.164-0.168-0.233c-0.07-0.059-0.144-0.119-0.208-0.183C6.705,14.07,6.561,14.07,6.497,14.01
	c-0.06-0.069-0.02-0.232-0.08-0.307c-0.059-0.069-0.173-0.099-0.228-0.168c-0.059-0.075-0.04-0.208-0.089-0.283
	c-0.06-0.074,0.04-0.248-0.015-0.322c-0.049-0.084-0.386,0.005-0.426-0.079c-0.044-0.084-0.083-0.183-0.118-0.262
	c-0.045-0.094,0.044-0.237,0.024-0.317c-0.024-0.104-0.094-0.22-0.079-0.297c0.01-0.099,0.218-0.141,0.247-0.223
	c0.04-0.089,0.134-0.109,0.188-0.181c0.05-0.077,0.05-0.156,0.124-0.215c0.074-0.054,0.144-0.052,0.233-0.089
	c0.084-0.032,0.138-0.128,0.228-0.141c0.089-0.01,0.168,0.047,0.267,0.059c0.089,0.01,0.208-0.213,0.302-0.198
	c0.089,0.013,0.173,0.116,0.262,0.131c0.089,0.015,0.163,0.129,0.257,0.146c0.089,0.018,0.228-0.193,0.317-0.176
	c0.089,0.022,0.119,0.292,0.213,0.317c0.094,0.022,0.243-0.179,0.332-0.151c0.088,0.024,0.138,0.166,0.227,0.195
	c0.089,0.033,0.139,0.154,0.223,0.19c0.084,0.038,0.273-0.146,0.352-0.106c0.089,0.04,0.089,0.247,0.168,0.294
	c0.08,0.044,0.099,0.181,0.178,0.23c0.079,0.047,0.119,0.138,0.198,0.193c0.069,0.054,0.247-0.03,0.316,0.029
	c0.069,0.06,0.119,0.144,0.188,0.208c0.064,0.064,0.139,0.114,0.203,0.183s0.069,0.178,0.134,0.257
	c0.059,0.069,0.059,0.179,0.109,0.253c0.054,0.069,0.248,0.064,0.341,0.133c0.084,0.06,0.233,0.01,0.322,0.055
	c0.124,0.064,0.198,0.242,0.258,0.208c0.079-0.044,0.079-0.272,0.168-0.307c0.084-0.035,0.198-0.035,0.277-0.06
	c0.094-0.024,0.228,0.154,0.322,0.139c0.089-0.015,0.183,0.069,0.272,0.06c0.089-0.005,0.168-0.292,0.262-0.292
	c0.094,0,0.178,0.188,0.272,0.198c0.089,0.01,0.208-0.208,0.297-0.198c0.089,0.01,0.139,0.302,0.233,0.317
	c0.094,0.01,0.178,0.02,0.272,0.04c0.089,0.02,0.188-0.05,0.282-0.03s0.164,0.128,0.252,0.148c0.089,0.01,0.233-0.287,0.317-0.267
	c0.094,0.01,0.158,0.179,0.248,0.188c0.094,0.01,0.178,0.059,0.272,0.069c0.104,0.01,0.203,0.124,0.312,0.129
	c0.104,0,0.213-0.277,0.316-0.277c0.109,0,0.228,0.257,0.332,0.247c0.089-0.01,0.158-0.252,0.252-0.262
	c0.089-0.015,0.208,0.213,0.297,0.203c0.094-0.01,0.193,0.01,0.287,0c0.089-0.01,0.148-0.327,0.242-0.336
	c0.089-0.01,0.213,0.228,0.302,0.218c0.089-0.01,0.158-0.238,0.257-0.248c0.089-0.01,0.188,0.05,0.282,0.04
	c0.094-0.01,0.193,0.06,0.282,0.05s0.168-0.168,0.268-0.178c0.088-0.01,0.198,0.114,0.287,0.099c0.089-0.01,0.178-0.074,0.268-0.083
	c0.094-0.015,0.208,0.163,0.302,0.153c0.094-0.01,0.173-0.119,0.267-0.129c0.094-0.01,0.173-0.099,0.272-0.109
	c0.089-0.01,0.198,0.119,0.287,0.109s0.168-0.208,0.257-0.218s0.178-0.035,0.277-0.04c0.089-0.01,0.198,0.079,0.288,0.069
	c0.089-0.01,0.183-0.03,0.277-0.04c0.089-0.01,0.188-0.025,0.277-0.035c0.089-0.01,0.168-0.153,0.262-0.163
	c0.094-0.01,0.184-0.025,0.277-0.04c0.094-0.01,0.203,0.128,0.292,0.119c0.094-0.015,0.193,0.005,0.282-0.01
	c0.094-0.01,0.203,0.129,0.297,0.119c0.094-0.015,0.144-0.346,0.232-0.361c0.094-0.01,0.218,0.213,0.308,0.204
	c0.099-0.01,0.178-0.08,0.272-0.089c0.094-0.015,0.203,0.124,0.292,0.114c0.094-0.015,0.188-0.054,0.277-0.064
	c0.094-0.01,0.184-0.099,0.277-0.114c0.089-0.02,0.159-0.173,0.252-0.193c0.089-0.02,0.218,0.104,0.312,0.084
	c0.089-0.025,0.139-0.213,0.228-0.235c0.094-0.022,0.188-0.057,0.277-0.079c0.089-0.022,0.174-0.128,0.268-0.144
	c0.089-0.012,0.208,0.082,0.297,0.074c0.104-0.012,0.208,0.077,0.316,0.077c0.099,0,0.208-0.104,0.307-0.091
	c0.104,0.007,0.213-0.072,0.316-0.062c0.099,0.01,0.168,0.361,0.272,0.366c0.104,0.01,0.213-0.01,0.316-0.01
	c0.095,0,0.193-0.069,0.282-0.069c0.095,0,0.188,0.08,0.282,0.08c0.095-0.005,0.188-0.127,0.283-0.129
	c0.093-0.005,0.192,0.094,0.286,0.089c0.089,0,0.183-0.055,0.277-0.06c0.094,0,0.183-0.126,0.276-0.129
	c0.09-0.005,0.194,0.124,0.288,0.119c0.089-0.01,0.168-0.24,0.262-0.247c0.095-0.008,0.193,0.074,0.292,0.066
	c0.09-0.007,0.188,0.055,0.288,0.047c0.093-0.007,0.158-0.23,0.257-0.237c0.094-0.008,0.198,0.106,0.292,0.097
	c0.094-0.012,0.193,0.079,0.292,0.069c0.094-0.013,0.197,0.049,0.287,0.04c0.089-0.013,0.158-0.245,0.248-0.255
	c0.093-0.012,0.208,0.131,0.302,0.116c0.094-0.015,0.192,0.032,0.287,0.018c0.094-0.015,0.157-0.23,0.252-0.243
	c0.09-0.015,0.184-0.02,0.277-0.035c0.089-0.015,0.158-0.141,0.258-0.156c0.089-0.015,0.188,0.025,0.281,0.01
	c0.095-0.012,0.198,0.052,0.292,0.035c0.09-0.02,0.193,0.01,0.288-0.007c0.089-0.02,0.192,0.02,0.286,0.002
	c0.089-0.017,0.169-0.111,0.258-0.131c0.094-0.017,0.203,0.047,0.298,0.03c0.089-0.02,0.177-0.06,0.267-0.077
	c0.095-0.018,0.178-0.072,0.268-0.094c0.094-0.02,0.158-0.168,0.247-0.186c0.094-0.02,0.247,0.228,0.337,0.208
	c0.089-0.022,0.173-0.099,0.268-0.122c0.089-0.022,0.167-0.094,0.257-0.116c0.089-0.022,0.139-0.248,0.228-0.262
	c0.089-0.015,0.218,0.225,0.308,0.21c0.094-0.01,0.163-0.176,0.257-0.186c0.089-0.008,0.168-0.109,0.262-0.117
	c0.095-0.007,0.204,0.272,0.298,0.265c0.089-0.005,0.163-0.218,0.252-0.225c0.089-0.008,0.188,0.044,0.277,0.037
	c0.09-0.012,0.188,0.022,0.277,0.01c0.089-0.01,0.178-0.109,0.268-0.124c0.089-0.015,0.218,0.159,0.307,0.144
	c0.089-0.015,0.168-0.139,0.257-0.159c0.09-0.015,0.159-0.178,0.253-0.193c0.094-0.015,0.193,0.035,0.287,0.02
	c0.094-0.015,0.213,0.163,0.312,0.148c0.094-0.015,0.169-0.106,0.268-0.116c0.089-0.015,0.158-0.193,0.253-0.206
	c0.083-0.01,0.173-0.086,0.262-0.089c0.084-0.005,0.179,0.057,0.268,0.057c0.089-0.002,0.173,0.156,0.263,0.153
	c0.083-0.002,0.183,0.094,0.271,0.084c0.08-0.012,0.188-0.027,0.267-0.047c0.1-0.023,0.159-0.215,0.258-0.238
	c0.094-0.022,0.163-0.168,0.263-0.19c0.099-0.022,0.272,0.254,0.361,0.235c0.099-0.027,0.109-0.369,0.202-0.398
	c0.1-0.03,0.293,0.225,0.382,0.193c0.099-0.037,0.158-0.168,0.248-0.21c0.089-0.044,0.093-0.23,0.178-0.285
	c0.079-0.055,0.292,0.069,0.366,0.007c0.079-0.062,0.158-0.128,0.228-0.193c0.08-0.067,0.069-0.223,0.139-0.292
	c0.07-0.069,0.268-0.008,0.337-0.077c0.069-0.069,0.024-0.254,0.095-0.324c0.068-0.07,0.262-0.023,0.326-0.094
	c0.064-0.075-0.055-0.33,0.015-0.398c0.069-0.069,0.118-0.161,0.188-0.23c0.069-0.07,0.298,0.029,0.371-0.035
	c0.069-0.066-0.029-0.329,0.045-0.386c0.074-0.06,0.347,0.144,0.421,0.089c0.08-0.054,0.124-0.139,0.208-0.186
	c0.084-0.047,0.144-0.124,0.233-0.164c0.083-0.04,0.128-0.163,0.222-0.198c0.094-0.032,0.179-0.082,0.272-0.104
	c0.089-0.022,0.188-0.042,0.282-0.052c0.094-0.015,0.192,0.168,0.292,0.168c0.094,0,0.198-0.215,0.292-0.206
	c0.095,0.013,0.173,0.129,0.262,0.154c0.095,0.027,0.198,0.005,0.288,0.044c0.089,0.037,0.119,0.186,0.198,0.232
	c0.079,0.047,0.118,0.136,0.192,0.198C50.005,7.66,50.184,7.603,50.253,7.672z M45.788,41.353c0.129-0.01,0.232-0.044,0.366-0.059
	c0.021-0.099,0.208-0.129,0.237-0.228c0.029-0.1,0.045-0.208,0.069-0.308c0.03-0.099-0.208-0.252-0.198-0.352
	c0.01-0.104,0.04-0.163,0.02-0.262c-0.029-0.09-0.01-0.193-0.024-0.287c-0.024-0.089,0.203-0.228,0.188-0.322
	c-0.015-0.094-0.371-0.128-0.387-0.223c-0.014-0.089,0.184-0.207,0.174-0.307c-0.01-0.095-0.188-0.168-0.197-0.262
	c-0.011-0.095,0.286-0.208,0.276-0.303c0-0.089-0.207-0.178-0.207-0.267c0-0.095-0.011-0.188-0.011-0.277
	c0-0.1-0.104-0.193-0.099-0.287c0-0.095,0.109-0.188,0.113-0.277c0.006-0.094,0.173-0.173,0.184-0.268
	c0.005-0.099-0.011-0.188,0-0.282c0.01-0.094-0.272-0.213-0.257-0.312c0.01-0.1,0.069-0.188,0.083-0.282
	c0.016-0.1,0.248-0.163,0.263-0.252c0.02-0.1,0.109-0.169,0.129-0.263c0.02-0.099-0.02-0.192,0.005-0.287
	c0.024-0.094-0.158-0.263-0.124-0.347c0.029-0.095,0.129-0.163,0.174-0.247c0.044-0.09,0.173-0.124,0.223-0.203
	c0.06-0.079,0.064-0.188,0.129-0.258c0.059-0.079,0.068-0.207,0.144-0.276c0.069-0.06,0.133-0.159,0.212-0.208
	c0.08-0.055,0.169-0.119,0.253-0.163c0.085-0.045,0.202-0.04,0.292-0.079c0.085-0.035,0.178-0.085,0.268-0.119
	c0.089-0.035,0.168-0.109,0.262-0.139c0.084-0.024,0.219,0.06,0.313,0.029c0.089-0.024,0.198,0.025,0.297-0.005
	c0.089-0.02,0.207,0.064,0.297,0.04c0.089-0.029,0.079-0.377,0.168-0.401c0.084-0.024,0.198,0.04,0.282,0.011
	c0.085-0.03,0.183-0.025,0.263-0.056c0.089-0.029,0.237,0.109,0.316,0.08c0.09-0.035,0.069-0.317,0.159-0.356
	c0.079-0.029,0.157-0.079,0.236-0.119c0.085-0.035,0.268,0.158,0.352,0.124c0.085-0.034,0.085-0.238,0.169-0.278
	c0.079-0.044,0.084-0.117,0.144-0.192c0.055-0.069,0.247-0.05,0.292-0.134c0.045-0.079,0.158-0.123,0.203-0.208
	c0.04-0.084,0.1-0.296,0.148-0.371c-0.089-0.015-0.332,0.055-0.431,0.035c-0.095-0.025-0.193-0.055-0.282-0.075
	c-0.099-0.023-0.198-0.054-0.287-0.059c-0.109,0-0.148,0.114-0.228,0.153c-0.09,0.04-0.277-0.164-0.366-0.134
	c-0.085,0.039-0.139,0.129-0.228,0.158c-0.09,0.03-0.188-0.01-0.278,0.01c-0.094,0.025-0.128,0.269-0.217,0.288
	s-0.208-0.145-0.302-0.129c-0.095,0.015-0.174,0.05-0.263,0.054c-0.095,0.01-0.178,0.203-0.268,0.203
	c-0.094,0.005-0.198,0.06-0.287,0.06s-0.188-0.108-0.276-0.118c-0.09-0.01-0.188,0-0.278-0.01c-0.093-0.01-0.168-0.149-0.262-0.159
	c-0.089-0.02-0.153-0.139-0.248-0.158c-0.099-0.024-0.257,0.213-0.352,0.188c-0.099-0.03-0.099-0.317-0.188-0.348
	c-0.094-0.044-0.237,0.056-0.316,0.011c-0.09-0.055-0.278,0.02-0.348-0.04c-0.078-0.06-0.147-0.168-0.217-0.242
	c-0.06-0.074-0.016-0.242-0.06-0.332c-0.05-0.079,0.05-0.223,0.015-0.316c-0.034-0.089-0.213-0.129-0.232-0.223
	c-0.021-0.094,0.02-0.197,0.01-0.297c-0.015-0.095-0.192-0.179-0.198-0.282c-0.005-0.089,0.099-0.198,0.099-0.297
	c0.006-0.09-0.059-0.188-0.059-0.278c0-0.088-0.034-0.187-0.03-0.276c0-0.089,0.03-0.188,0.03-0.277s0.099-0.188,0.099-0.276
	c0-0.09,0.069-0.188,0.069-0.277c0-0.09-0.213-0.179-0.213-0.277c0-0.094,0.193-0.188,0.193-0.277c0-0.094-0.1-0.183-0.1-0.277
	c0-0.099-0.029-0.188-0.029-0.277c0-0.094,0.228-0.188,0.228-0.277c0-0.094-0.02-0.184-0.02-0.277c0-0.099-0.148-0.198-0.148-0.287
	c0-0.099,0.163-0.193,0.168-0.287c0-0.094-0.307-0.193-0.307-0.287s0.237-0.188,0.237-0.287s-0.237-0.188-0.237-0.287
	c0-0.094,0.158-0.188,0.158-0.283c0-0.094-0.139-0.193-0.139-0.292c0-0.089,0.104-0.188,0.104-0.282
	c0-0.094,0.203-0.183,0.207-0.282c0-0.089-0.316-0.193-0.312-0.287c0-0.099,0.035-0.188,0.035-0.288
	c0-0.094,0.123-0.188,0.123-0.282s-0.118-0.193-0.118-0.292c0-0.089-0.03-0.188-0.021-0.287c0-0.094,0.139-0.188,0.139-0.282
	s0.139-0.193,0.139-0.282c0-0.099-0.139-0.198-0.139-0.287s0.213-0.188,0.209-0.272c0-0.094-0.199-0.174-0.199-0.267
	c0-0.094,0.1-0.179,0.1-0.263c0-0.094-0.173-0.193-0.163-0.287c0.005-0.084,0.04-0.183,0.06-0.267
	c0.02-0.099,0.074-0.188,0.094-0.282s0.063-0.188,0.089-0.282c0.021-0.094,0.05-0.188,0.074-0.277
	c0.025-0.099,0.045-0.193,0.069-0.287c0.025-0.094-0.034-0.212-0.005-0.307c0.024-0.094,0.148-0.164,0.173-0.257
	c0.024-0.089-0.083-0.223-0.063-0.317c0.029-0.094,0.144-0.164,0.168-0.258c0.029-0.093,0.144-0.163,0.168-0.257
	c0.03-0.099,0.069-0.183,0.1-0.277c0.02-0.094-0.011-0.208,0.014-0.297c0.025-0.099,0.169-0.164,0.194-0.258
	c0.02-0.099-0.139-0.262-0.164-0.376c-0.02-0.099-0.06-0.188-0.074-0.277c-0.02-0.099-0.079-0.188-0.089-0.277
	c-0.015-0.099-0.069-0.188-0.084-0.277c-0.016-0.099,0.034-0.203,0.02-0.297c-0.015-0.099-0.134-0.173-0.148-0.263
	c-0.016-0.094,0.069-0.208,0.054-0.302c-0.02-0.099-0.138-0.168-0.157-0.267c-0.016-0.089,0.247-0.228,0.237-0.327
	c-0.011-0.094-0.228-0.168-0.237-0.257c-0.006-0.099,0.039-0.198,0.039-0.292c0-0.094-0.049-0.193-0.039-0.292
	c0.01-0.094-0.075-0.212-0.06-0.307c0.02-0.094,0.153-0.168,0.178-0.257c0.029-0.094-0.02-0.223,0.016-0.312
	c0.034-0.089,0.183-0.132,0.232-0.221c0.039-0.084,0.237-0.072,0.292-0.153c0.055-0.08-0.124-0.31-0.06-0.386
	c0.06-0.077,0.173-0.108,0.228-0.186c0.054-0.077,0.005-0.23,0.064-0.307c0.049-0.074,0.277-0.032,0.327-0.109
	c0.059-0.077,0.034-0.21,0.089-0.287c0.054-0.077,0.188-0.099,0.237-0.178c0.059-0.077,0.039-0.208,0.094-0.285
	c0.055-0.077,0.045-0.198,0.104-0.275c0.059-0.074,0.143-0.128,0.198-0.208c0.054-0.074,0.321-0.002,0.375-0.079
	c0.056-0.077-0.138-0.332-0.083-0.408c0.054-0.077,0.158-0.121,0.212-0.195c0.06-0.077,0.069-0.188,0.129-0.263
	c0.05-0.077,0.208-0.082,0.268-0.158c0.055-0.077,0.089-0.168,0.148-0.243c0.064-0.092,0.178-0.144,0.203-0.22
	c0.04-0.109-0.154-0.171-0.174-0.248c-0.029-0.087,0.02-0.168-0.069-0.215c-0.078-0.035-0.163,0.029-0.267,0.022
	c-0.1-0.008-0.179-0.008-0.277,0c-0.1,0.012-0.203-0.062-0.297-0.037c-0.099,0.027-0.134,0.183-0.228,0.223
	s-0.258-0.077-0.337-0.022c-0.079,0.059-0.237,0.015-0.316,0.077c-0.079,0.062-0.04,0.274-0.114,0.338
	c-0.074,0.067-0.213,0.06-0.287,0.124c-0.074,0.067-0.113,0.171-0.183,0.24c-0.079,0.069-0.268,0.02-0.337,0.089
	c-0.074,0.069,0.01,0.294-0.064,0.363s-0.045,0.238-0.124,0.307c-0.06,0.064-0.322-0.069-0.392-0.005
	c-0.068,0.067-0.177,0.077-0.246,0.139C45.605,9.749,45.6,9.88,45.531,9.942c-0.075,0.064-0.089,0.183-0.169,0.237
	c-0.069,0.06-0.183,0.062-0.258,0.116c-0.079,0.055-0.173,0.077-0.247,0.124c-0.084,0.052-0.089,0.223-0.168,0.267
	c-0.079,0.047-0.228-0.03-0.308,0.01c-0.083,0.042-0.158,0.099-0.242,0.131c-0.084,0.038-0.208-0.055-0.302-0.025
	c-0.084,0.03-0.079,0.396-0.169,0.419c-0.089,0.022-0.228-0.179-0.326-0.161c-0.089,0.015-0.188-0.057-0.277-0.047
	c-0.089,0.013-0.168,0.198-0.262,0.201c-0.095,0.005-0.184-0.025-0.277-0.02c-0.094,0.003-0.193-0.054-0.282-0.049
	c-0.09,0.007-0.188-0.062-0.277-0.055c-0.094,0.008-0.168,0.22-0.263,0.23c-0.089,0.007-0.183,0.029-0.272,0.037
	c-0.089,0.01-0.197-0.102-0.286-0.092c-0.089,0.013-0.169,0.148-0.258,0.161c-0.094,0.01-0.208-0.205-0.302-0.193
	c-0.094,0.01-0.179,0.07-0.272,0.077c-0.089,0.01-0.188-0.077-0.282-0.066c-0.089,0.012-0.184,0.022-0.271,0.03
	c-0.09,0.01-0.164,0.2-0.258,0.208c-0.089,0.008-0.183,0-0.277,0.008c-0.09,0.007-0.178,0.015-0.277,0.022
	c-0.089,0.008-0.178,0.134-0.268,0.139c-0.089,0.002-0.188-0.213-0.287-0.213c-0.088,0.005-0.188,0.012-0.276,0.02
	c-0.09,0.005-0.169,0.164-0.258,0.173c-0.094,0.012-0.179,0.06-0.267,0.075c-0.09,0.017-0.179,0.002-0.268,0.025
	c-0.094,0.022-0.188,0.024-0.272,0.052c-0.089,0.022-0.213-0.075-0.302-0.052c-0.085,0.024-0.109,0.282-0.198,0.307
	c-0.084,0.025-0.183,0.022-0.268,0.047c-0.089,0.03-0.207-0.045-0.297-0.015c-0.089,0.03-0.218-0.076-0.307-0.047
	c-0.09,0.03-0.188,0.007-0.277,0.032c-0.089,0.027-0.158,0.091-0.252,0.116c-0.085,0.027-0.095,0.352-0.184,0.371
	c-0.09,0.025-0.228-0.148-0.316-0.123c-0.089,0.02-0.188-0.035-0.277-0.02c-0.094,0.02-0.184,0-0.277,0.015
	c-0.089,0.01-0.164,0.153-0.253,0.158c-0.094,0.005-0.183,0.005-0.272,0.005c-0.094,0.01-0.178-0.099-0.271-0.104
	s-0.213,0.128-0.312,0.188c-0.084,0.055-0.08,0.312-0.174,0.346c-0.074,0.035-0.208-0.059-0.287-0.035
	c-0.084,0.03-0.173-0.069-0.252-0.079c-0.094,0-0.174-0.099-0.268-0.108c-0.089-0.005-0.188,0.064-0.287,0.059
	c-0.089-0.01-0.198,0.139-0.297,0.128c-0.09-0.015-0.188,0.04-0.282,0.03c-0.09-0.015-0.163-0.193-0.263-0.198
	c-0.094-0.01-0.192,0.059-0.287,0.049c-0.089-0.005-0.183,0.049-0.276,0.04c-0.095,0-0.184-0.005-0.277,0
	c-0.094,0-0.179,0.099-0.268,0.109c-0.095,0.005-0.203-0.178-0.297-0.168c-0.094,0.005-0.179,0.138-0.277,0.148
	c-0.09,0.005-0.188,0.02-0.282,0.03c-0.094,0.005-0.203-0.134-0.292-0.129c-0.1,0.01-0.179,0.148-0.277,0.159
	c-0.094,0.005-0.207-0.203-0.302-0.198c-0.094,0.01-0.188,0.029-0.282,0.035c-0.099,0.005-0.179,0.173-0.268,0.183
	c-0.099,0.01-0.208-0.168-0.302-0.159c-0.094,0.005-0.193,0.03-0.282,0.035c-0.099,0.005-0.198-0.005-0.287,0.005
	c-0.099,0.005-0.179,0.183-0.272,0.193c-0.094,0.01-0.184,0.114-0.278,0.124c-0.094,0.005-0.203-0.124-0.297-0.108
	c-0.094,0.005-0.183,0.049-0.282,0.059c-0.089,0.01-0.198-0.109-0.292-0.099c-0.094,0.005-0.173,0.183-0.272,0.188
	c-0.094,0.01-0.198-0.049-0.288-0.04c-0.099,0.005-0.208-0.138-0.302-0.128c-0.094,0.015-0.163,0.277-0.257,0.287
	s-0.183,0.084-0.277,0.094c-0.094,0.005-0.203-0.134-0.302-0.119c-0.089,0.005-0.179,0.149-0.273,0.154
	c-0.094,0.01-0.212-0.248-0.312-0.238c-0.089,0.01-0.158,0.277-0.257,0.292c-0.094,0.005-0.208-0.163-0.302-0.153
	c-0.094,0.01-0.184,0.089-0.277,0.099c-0.094,0.005-0.193-0.06-0.292-0.05c-0.093,0.01-0.173,0.178-0.267,0.188
	c-0.099,0.005-0.188,0.01-0.287,0.02c-0.094,0.01-0.178,0.084-0.277,0.089c-0.089,0.01-0.188-0.029-0.287-0.02
	c-0.094,0.005-0.208-0.188-0.302-0.179c-0.094,0.005-0.173,0.223-0.272,0.233c-0.089,0.015-0.198-0.08-0.297-0.07
	c-0.094,0.015-0.188,0.035-0.287,0.045c-0.094,0.01-0.198-0.025-0.292-0.02c-0.094,0.01-0.184,0.08-0.283,0.089
	c-0.088,0.01-0.188,0.015-0.287,0.02c-0.094,0.01-0.198-0.04-0.297-0.03c-0.094,0.01-0.193-0.035-0.287-0.02
	c-0.099,0.005-0.179,0.232-0.272,0.242c-0.094,0.005-0.198-0.188-0.292-0.183c-0.099,0-0.188,0.02-0.282,0.02
	c-0.094,0.01-0.193-0.044-0.282-0.04c-0.099,0.005-0.178,0.168-0.272,0.168c-0.094,0.01-0.193-0.109-0.287-0.104
	c-0.094,0.005-0.173,0.253-0.268,0.253c-0.094,0.005-0.208-0.317-0.302-0.317c-0.089,0.005-0.178,0.148-0.267,0.148
	c-0.099,0.005-0.188,0.025-0.287,0.03c-0.089,0-0.178,0.178-0.268,0.183c-0.099,0.005-0.198-0.114-0.287-0.104
	c-0.099,0.005-0.193-0.035-0.287-0.03c-0.094,0-0.188,0.129-0.282,0.129c-0.089-0.005-0.174-0.198-0.272-0.208
	c-0.089-0.005-0.188,0.064-0.282,0.054c-0.089-0.015-0.193,0.114-0.292,0.104c-0.089-0.01-0.163-0.312-0.257-0.317
	c-0.094,0-0.198,0.272-0.287,0.272s-0.188-0.094-0.277-0.089c-0.089,0.005-0.198-0.084-0.297-0.06
	c-0.089,0.02-0.208-0.005-0.297,0.024c-0.089,0.03-0.129,0.188-0.218,0.228c-0.089,0.049-0.159,0.128-0.238,0.148
	c-0.089,0.015-0.183-0.04-0.262-0.06c-0.084-0.02-0.124-0.108-0.198-0.158c-0.069-0.044-0.069-0.139-0.134-0.208
	c-0.055-0.059-0.327,0.049-0.376-0.025c-0.049-0.069-0.079-0.163-0.124-0.242c-0.044-0.089,0.064-0.267,0.005-0.347
	c-0.059-0.074-0.079-0.198-0.148-0.267c-0.06-0.069-0.346,0.079-0.421,0.01c-0.069-0.069-0.005-0.277-0.084-0.336
	c-0.075-0.06-0.248,0.01-0.327-0.049c-0.08-0.05-0.035-0.292-0.119-0.347c-0.083-0.047-0.183-0.077-0.267-0.124
	c-0.079-0.044-0.138-0.176-0.228-0.215c-0.084-0.04-0.238,0.057-0.327,0.022c-0.089-0.037-0.208,0.025-0.302-0.005
	c-0.089-0.03-0.179-0.069-0.272-0.092c-0.089-0.022-0.188,0.005-0.287-0.012c-0.089-0.02-0.168-0.188-0.257-0.193
	c-0.099-0.013-0.203,0.064-0.297,0.064c-0.099,0-0.198-0.079-0.292-0.074c-0.099,0.01-0.144,0.096-0.233,0.113
	c0.049,0.089-0.06,0.215-0.02,0.302c0.05,0.092,0.198,0.124,0.268,0.188c0.069,0.055,0.178,0.075,0.248,0.134
	s0.089,0.178,0.158,0.238c0.069,0.059,0.168,0.079,0.238,0.133c0.069,0.059,0.208,0.035,0.277,0.094
	C7.705,13,7.774,13.06,7.843,13.12c0.069,0.06,0.124,0.128,0.193,0.188s0.104,0.159,0.173,0.218
	c0.069,0.054,0.198,0.044,0.268,0.109c0.069,0.054,0.099,0.158,0.168,0.218s-0.03,0.317,0.035,0.376c0.069,0.059,0.292-0.06,0.361,0
	c0.064,0.064,0.089,0.173,0.159,0.237c0.059,0.06,0.183,0.06,0.248,0.124c0.069,0.064,0.188,0.074,0.257,0.143
	c0.064,0.069-0.05,0.312,0.01,0.386c0.064,0.069,0.287,0.01,0.341,0.079c0.06,0.08-0.084,0.292-0.035,0.367
	c0.055,0.079,0.089,0.148,0.129,0.232c0.035,0.084,0.347,0.104,0.356,0.193c0.02,0.093-0.104,0.208-0.089,0.307
	c0.01,0.094,0.144,0.173,0.159,0.267c0.01,0.099-0.03,0.203-0.01,0.297c0.01,0.094,0.06,0.188,0.069,0.287
	c0.01,0.089-0.277,0.228-0.263,0.322c0.015,0.094,0.272,0.163,0.282,0.257c0.015,0.094-0.02,0.198-0.01,0.297
	c0.01,0.094-0.134,0.203-0.129,0.302c0.01,0.094,0.05,0.188,0.06,0.287c0.005,0.089,0.035,0.188,0.04,0.287
	c0.01,0.089-0.04,0.188-0.035,0.287s0.243,0.188,0.252,0.287c0,0.099,0.015,0.198,0.015,0.292s-0.044,0.193-0.054,0.292
	c0,0.094-0.02,0.193-0.03,0.287c0,0.099-0.05,0.188-0.055,0.277c-0.005,0.099-0.153,0.178-0.163,0.277
	c-0.005,0.094,0.01,0.188,0.01,0.277c-0.01,0.099,0.208,0.203,0.208,0.297c-0.01,0.089-0.05,0.183-0.06,0.277
	c0,0.089-0.218,0.173-0.218,0.268c-0.01,0.094,0.168,0.198,0.164,0.292c-0.005,0.094-0.228,0.174-0.233,0.262
	c-0.01,0.099,0.218,0.204,0.218,0.297c-0.005,0.099-0.233,0.178-0.238,0.268c-0.005,0.094,0.074,0.193,0.069,0.287
	c-0.01,0.089-0.109,0.178-0.119,0.268c-0.01,0.099,0.03,0.193,0.025,0.287c-0.005,0.094,0.164,0.198,0.154,0.292
	c-0.01,0.094,0.02,0.188,0.01,0.282c-0.005,0.099,0.04,0.188,0.035,0.287c-0.005,0.094-0.248,0.168-0.253,0.262
	c-0.01,0.089,0.03,0.188,0.02,0.282c-0.01,0.099-0.059,0.184-0.069,0.278c-0.01,0.099,0.128,0.198,0.124,0.292
	c-0.005,0.094-0.243,0.168-0.248,0.262c-0.005,0.099,0.144,0.198,0.139,0.297c-0.005,0.094-0.099,0.178-0.104,0.272
	c-0.01,0.094-0.089,0.178-0.094,0.272c-0.005,0.099,0.104,0.198,0.094,0.292s0.183,0.208,0.173,0.302
	c-0.015,0.094-0.371,0.149-0.381,0.243c-0.01,0.094,0.03,0.188,0.02,0.282c-0.01,0.1,0.099,0.198,0.089,0.292
	s0.104,0.203,0.094,0.292c-0.015,0.1-0.173,0.169-0.188,0.263c-0.01,0.094,0.114,0.202,0.099,0.297
	c-0.01,0.089,0.035,0.193,0.025,0.287s-0.297,0.148-0.307,0.242c-0.01,0.095,0.198,0.218,0.178,0.307
	c-0.01,0.09-0.01,0.188-0.02,0.282c-0.02,0.095-0.192,0.163-0.208,0.253c-0.015,0.089,0.02,0.193,0.005,0.281
	c-0.02,0.095-0.005,0.194-0.03,0.283c-0.024,0.089-0.024,0.188-0.044,0.276c-0.03,0.09-0.079,0.174-0.109,0.263
	c-0.02,0.089,0.03,0.208,0,0.292c-0.029,0.089-0.153,0.148-0.188,0.237c-0.03,0.09-0.168,0.129-0.203,0.213
	c-0.035,0.09,0.094,0.248,0.054,0.332c-0.039,0.085-0.267,0.074-0.312,0.154c-0.044,0.078,0.144,0.302,0.094,0.381
	c-0.05,0.078-0.08,0.178-0.134,0.252s-0.188,0.104-0.243,0.173c-0.06,0.074-0.217,0.064-0.277,0.14
	c-0.064,0.069-0.173,0.089-0.237,0.148c-0.07,0.068-0.035,0.236-0.104,0.296c-0.069,0.065-0.193,0.06-0.262,0.119
	c-0.079,0.06-0.04,0.268-0.119,0.327c-0.075,0.049-0.243-0.035-0.322,0.01c-0.084,0.049-0.074,0.257-0.159,0.307
	c-0.079,0.04-0.183,0.064-0.272,0.099c-0.08,0.04-0.237-0.089-0.327-0.054c-0.084,0.034-0.173,0.068-0.257,0.099
	c-0.089,0.029-0.188,0.035-0.277,0.064c-0.089,0.02-0.173,0.054-0.268,0.079c-0.084,0.021-0.148,0.139-0.237,0.168
	c-0.084,0.029-0.262-0.163-0.352-0.128c-0.084,0.04-0.015,0.391-0.094,0.436c-0.084,0.044-0.238-0.055-0.322-0.011
	c-0.08,0.05-0.114,0.159-0.193,0.209c-0.079,0.054-0.104,0.167-0.178,0.223c-0.079,0.054-0.129,0.083-0.188,0.163
	c-0.059,0.079-0.322,0.02-0.376,0.099C3.779,36.71,3.75,36.81,3.705,36.894c-0.05,0.084,0.024,0.212-0.03,0.292
	c0.079,0.049,0.054,0.228,0.134,0.271c0.079,0.056,0.277-0.083,0.356-0.034c0.083,0.055,0.044,0.302,0.123,0.347
	c0.08,0.049,0.258-0.06,0.337-0.011c0.089,0.05,0.119,0.204,0.198,0.244c0.069,0.034,0.237,0.063,0.336,0.039
	c0.079-0.025,0.128-0.287,0.212-0.293c0.094-0.01,0.193,0.05,0.287,0.045c0.094-0.005,0.203,0.203,0.302,0.193
	c0.089-0.005,0.173-0.198,0.268-0.208c0.094-0.005,0.178-0.148,0.272-0.153s0.213,0.287,0.307,0.282
	c0.094-0.01,0.184-0.104,0.277-0.109c0.094-0.005,0.193,0.1,0.287,0.1c0.094-0.005,0.183-0.109,0.277-0.109
	c0.094-0.01,0.183-0.108,0.282-0.108c0.094,0,0.188,0.029,0.287,0.029c0.089,0,0.188-0.138,0.287-0.138
	c0.089,0.004,0.178,0.302,0.268,0.306c0.099,0,0.193-0.069,0.287-0.069c0.099,0.01,0.208-0.178,0.297-0.167
	c0.099,0.01,0.203-0.03,0.297-0.021c0.089,0.01,0.144,0.313,0.238,0.326c0.089,0.021,0.183,0.01,0.277,0.03
	c0.089,0.02,0.183,0.035,0.272,0.06c0.094,0.02,0.237-0.149,0.332-0.124c0.089,0.024,0.159,0.124,0.248,0.153
	c0.089,0.03,0.218-0.029,0.307,0c0.089,0.034,0.099,0.268,0.183,0.308c0.079,0.039,0.237-0.069,0.322-0.025
	c0.079,0.045,0.198,0.039,0.277,0.084c0.074,0.049,0.168,0.095,0.248,0.148c0.079,0.055,0.02,0.277,0.094,0.337
	s0.287-0.029,0.352,0.03c0.069,0.069-0.074,0.325-0.02,0.396c0.059,0.079,0.153,0.104,0.192,0.178
	c0.045,0.09,0.268,0.134,0.277,0.223c0.01,0.095-0.144,0.208-0.138,0.302c0.005,0.095-0.075,0.188-0.08,0.278
	c-0.005,0.099,0.248,0.202,0.243,0.296c-0.01,0.1-0.347,0.158-0.367,0.248c-0.01,0.099,0,0.183-0.01,0.277
	c-0.02,0.094,0.252,0.242,0.228,0.336c-0.015,0.09-0.109,0.174-0.129,0.263c-0.02,0.095-0.148,0.158-0.178,0.247
	c-0.024,0.094,0.089,0.223,0.06,0.313c-0.02,0.094-0.109,0.168-0.139,0.258c-0.03,0.089-0.049,0.183-0.079,0.276
	c-0.03,0.089,0.04,0.218,0.005,0.308c-0.035,0.089-0.203,0.129-0.232,0.222c-0.04,0.085-0.015,0.203-0.055,0.292
	c-0.04,0.09-0.164,0.14-0.203,0.229c-0.04,0.084-0.228,0.109-0.267,0.198c-0.04,0.088,0.237,0.296,0.203,0.386
	c-0.034,0.089-0.069,0.168-0.094,0.262c-0.03,0.095-0.168,0.144-0.193,0.242c-0.024,0.09,0.025,0.188,0.015,0.288
	c-0.01,0.094-0.198,0.173-0.203,0.272c-0.005,0.093,0.005,0.331,0.01,0.425c0.084-0.044,0.302-0.144,0.376-0.188
	c0.079-0.055,0.183-0.085,0.257-0.134c0.075-0.06,0.094-0.188,0.164-0.253c0.064-0.063,0.178-0.099,0.238-0.173
	c0.059-0.069-0.06-0.297,0-0.366c0.059-0.074,0.192-0.089,0.257-0.168c0.06-0.069,0.198-0.085,0.257-0.158
	c0.06-0.074-0.059-0.298-0.005-0.372c0.06-0.073,0.322,0.015,0.381-0.063c0.06-0.079-0.069-0.298-0.01-0.371
	c0.06-0.075,0.208-0.085,0.273-0.154c0.054-0.079,0.193-0.089,0.252-0.163c0.064-0.074-0.069-0.302-0.005-0.376
	s0.262-0.035,0.327-0.104c0.06-0.074,0.203-0.074,0.262-0.144s0.159-0.104,0.218-0.168c0.064-0.069,0.005-0.253,0.069-0.316
	c0.069-0.064,0.159-0.109,0.228-0.174s0.124-0.134,0.193-0.197c0.069-0.06,0.183-0.069,0.253-0.129
	c0.079-0.06,0.188-0.065,0.257-0.124c0.075-0.059,0.055-0.233,0.129-0.282c0.079-0.06,0.079-0.218,0.158-0.267
	c0.074-0.06,0.248,0.029,0.322-0.03c0.074-0.05,0.044-0.277,0.124-0.327c0.074-0.05,0.178-0.069,0.257-0.119
	c0.079-0.049,0.267,0.08,0.346,0.03c0.08-0.044,0.208-0.005,0.287-0.05c0.079-0.039,0.025-0.336,0.109-0.381
	c0.08-0.044,0.248,0.079,0.332,0.035c0.084-0.04,0.064-0.282,0.149-0.322c0.083-0.039,0.292,0.173,0.371,0.134
	c0.084-0.044,0.168-0.089,0.248-0.129c0.084-0.04,0.139-0.147,0.217-0.188c0.089-0.04,0.208,0.015,0.297-0.02
	c0.079-0.04,0.044-0.367,0.128-0.396c0.089-0.04,0.238,0.069,0.317,0.029c0.089-0.029,0.188-0.024,0.272-0.06
	c0.084-0.039,0.213,0.021,0.297-0.02s0.045-0.332,0.124-0.376c0.089-0.039,0.288,0.163,0.366,0.129
	c0.08-0.039,0.064-0.292,0.149-0.327c0.079-0.039,0.257,0.139,0.346,0.1c0.08-0.04,0.173-0.045,0.257-0.08
	c0.084-0.034,0.06-0.355,0.149-0.385c0.084-0.03,0.247,0.173,0.336,0.147c0.089-0.024,0.119-0.257,0.208-0.276
	c0.089-0.025,0.199,0.02,0.287,0.01c0.089-0.021,0.193,0.05,0.288,0.039c0.089-0.01,0.173-0.164,0.267-0.168
	c0.089,0,0.183,0.139,0.277,0.144c0.089,0.005,0.188-0.04,0.277-0.024c0.089,0.01,0.193,0.188,0.278,0.178
	c0.088-0.02,0.158-0.134,0.242-0.158c0.084-0.02,0.153-0.119,0.237-0.139c0.094-0.01,0.213,0.108,0.302,0.094
	c0.099-0.015,0.154-0.223,0.248-0.237c0.099-0.016,0.188-0.045,0.277-0.06c0.099-0.015,0.208,0.069,0.297,0.055
	c0.099-0.021,0.188-0.04,0.277-0.06c0.094-0.021,0.188-0.04,0.277-0.06c0.099-0.015,0.163-0.158,0.257-0.178s0.188-0.04,0.277-0.055
	c0.094-0.021,0.212,0.108,0.307,0.089c0.094-0.015,0.193-0.005,0.287-0.02c0.089-0.021,0.208,0.108,0.302,0.089
	c0.094-0.016,0.128-0.356,0.223-0.371c0.089-0.02,0.223,0.198,0.316,0.179c0.1-0.021,0.179-0.09,0.268-0.109
	c0.099-0.02,0.218,0.119,0.307,0.1c0.1-0.016,0.188-0.06,0.277-0.075c0.094-0.015,0.173-0.104,0.267-0.119
	c0.09-0.015,0.159-0.167,0.254-0.183c0.094-0.015,0.212,0.119,0.306,0.108c0.095-0.02,0.163-0.198,0.253-0.212
	c0.095-0.016,0.188-0.045,0.277-0.065c0.089-0.02,0.173-0.118,0.268-0.128c0.088-0.015,0.197,0.079,0.297,0.069
	c0.094-0.015,0.198,0.059,0.297,0.049c0.089-0.015,0.168-0.133,0.263-0.147c0.094-0.01,0.173-0.114,0.271-0.125
	c0.094-0.014,0.232,0.313,0.327,0.303c0.089-0.011,0.178-0.05,0.272-0.06c0.094-0.015,0.183-0.089,0.272-0.099
	c0.099-0.01,0.197,0.06,0.296,0.044c0.089-0.01,0.169-0.143,0.268-0.148c0.094-0.01,0.198,0.085,0.292,0.075
	c0.094-0.011,0.183-0.065,0.277-0.075c0.094-0.005,0.178-0.134,0.272-0.144c0.094-0.005,0.198,0.119,0.296,0.109
	c0.095-0.006,0.169-0.242,0.258-0.248c0.1-0.01,0.198,0.069,0.298,0.06c0.089-0.01,0.197,0.055,0.286,0.045
	c0.1-0.005,0.169-0.233,0.268-0.243c0.09-0.004,0.198,0.109,0.292,0.1c0.094-0.015,0.203,0.079,0.298,0.069
	c0.094-0.01,0.192,0.055,0.292,0.049c0.094-0.01,0.167-0.242,0.257-0.252c0.099-0.016,0.208,0.139,0.302,0.123
	c0.095-0.01,0.198,0.046,0.292,0.03c0.095-0.01,0.168-0.218,0.263-0.228c0.094-0.015,0.193-0.015,0.282-0.024
	c0.099-0.011,0.178-0.134,0.276-0.144c0.095-0.01,0.198,0.039,0.288,0.029c0.099-0.015,0.198,0.06,0.296,0.05
	c0.09-0.01,0.188,0.02,0.288,0.01c0.094-0.01,0.198,0.04,0.287,0.024c0.099-0.01,0.188-0.099,0.276-0.109
	c0.095-0.01,0.198,0.065,0.298,0.056c0.089-0.01,0.183-0.04,0.276-0.05c0.1-0.01,0.188-0.06,0.283-0.069
	c0.094-0.01,0.173-0.153,0.271-0.169c0.09-0.01,0.218,0.258,0.316,0.243c0.09-0.011,0.179-0.08,0.278-0.094
	c0.089-0.01,0.178-0.08,0.276-0.09c0.089-0.01,0.158-0.237,0.253-0.247c0.094-0.021,0.223,0.228,0.316,0.218
	c0.099-0.01,0.173-0.179,0.262-0.179c0.1-0.004,0.209-0.099,0.298-0.089c0.1,0.01,0.148,0.307,0.238,0.327
	c0.088,0.02,0.242-0.144,0.326-0.104c0.079,0.039,0.139,0.143,0.212,0.202c0.075,0.05,0.115,0.149,0.174,0.218
	c0.06,0.069,0.188,0.099,0.237,0.178c0.05,0.08-0.079,0.243-0.039,0.337c0.039,0.084,0.178,0.119,0.218,0.208
	c0.039,0.089,0.218,0.114,0.258,0.198c0.029,0.089,0.01,0.202,0.05,0.292c0.034,0.084-0.109,0.252-0.07,0.341
	c0.034,0.085,0.139,0.145,0.178,0.229c0.035,0.089,0.229,0.108,0.264,0.198c0.034,0.084,0.133,0.148,0.173,0.236
	c0.029,0.085,0.01,0.198,0.044,0.288c0.035,0.084-0.074,0.237-0.034,0.321c0.034,0.084-0.025,0.213,0.01,0.302
	c0.04,0.09,0.079,0.179,0.119,0.263c0.029,0.089,0.232,0.104,0.267,0.193c0.04,0.084,0.193,0.113,0.238,0.197
	c0.039,0.085-0.198,0.308-0.153,0.392c0.044,0.085,0.381,0.015,0.421,0.095c0.044,0.088-0.179,0.312-0.139,0.396
	c0.044,0.079,0.178,0.119,0.217,0.198C45.664,41.215,45.744,41.274,45.788,41.353z"/>
<g>
</g>
<g>
</g>
<g>
</g>
<g>
</g>
<g>
</g>
<g>
</g>
<g>
</g>
<g>
</g>
<g>
</g>
<g>
</g>
<g>
</g>
<g>
</g>
<g>
</g>
<g>
</g>
<g>
</g>
</svg>
