<?xml version="1.0" encoding="utf-8"?>
<!-- Generator: Adobe Illustrator 16.0.0, SVG Export Plug-In . SVG Version: 6.00 Build 0)  -->
<!DOCTYPE svg PUBLIC "-//W3C//DTD SVG 1.1//EN" "http://www.w3.org/Graphics/SVG/1.1/DTD/svg11.dtd">
<svg version="1.1" id="圖層_1" xmlns="http://www.w3.org/2000/svg" xmlns:xlink="http://www.w3.org/1999/xlink" x="0px" y="0px"
	 width="55px" height="55px" viewBox="0 0 55 55" enable-background="new 0 0 55 55" xml:space="preserve">
<g>
	<path fill="#4C382B" d="M28.42,35.923c-0.008-0.111,0-0.358-0.058-0.59c-0.103-0.399-0.247-0.791-0.379-1.183
		c-0.239,0.494-0.758,1.043-0.676,1.479c0.42,2.388-0.685,4.28-1.831,6.16c-0.598,0.973-1.505,1.459-2.705,1.344
		c-0.651-0.065-1.307,0.017-1.962-0.028c-1.115-0.079-1.756-0.899-1.722-2.017c0.013-0.412-0.237-0.824-0.276-1.249
		c-0.258-2.742,0.491-5.142,2.467-7.112c0.049-0.049,0.124-0.082,0.148-0.14c0.907-2.14,2.527-1.262,4.012-0.965
		c0.161,0.028,0.33,0.012,0.49-0.017c1.233-0.206,2.482-0.672,3.686-0.561c1.27,0.115,2.407,0.062,3.578-0.38
		c0.165-0.062,0.565,0.124,0.66,0.306c0.626,1.171,1.207,2.316,1.03,3.78c-0.091,0.813,0.437,1.678,0.61,2.535
		c0.321,1.612,0.223,3.221-0.313,4.774c-0.12,0.33-0.47,0.726-0.792,0.825c-0.882,0.256-1.806,0.453-2.725,0.523
		c-1.225,0.095-1.958-0.404-2.288-1.62c-0.396-1.447-0.668-2.928-0.957-4.412C28.351,36.958,28.42,36.5,28.42,35.923z"/>
	<path fill="#DBC5B6" d="M30.391,17.588c0.809,1.361,0.809,1.361,2.606,1.447c0,1.662,0.041,3.327-0.029,4.976
		c-0.021,0.54-0.227,1.134-0.52,1.596c-0.713,1.117-0.738,1.443,0.136,2.429c0.231,0.256,0.462,0.511,0.718,0.742
		c0.536,0.47,0.371,0.837-0.235,0.891c-3.376,0.313-6.757,0.594-10.137,0.837c-0.248,0.017-0.52-0.297-0.784-0.458
		c0.227-0.214,0.454-0.618,0.676-0.618c1.241,0.012,1.13-1.011,1.394-1.72c0.28-0.758-0.145-1.352-0.734-1.637
		c-1.294-0.635-1.332-1.769-1.41-2.939c-0.049-0.685-0.103-1.373-0.247-2.041c-0.058-0.297-0.297-0.692-0.536-0.767
		c-0.235-0.074-0.585,0.202-0.882,0.326c-0.025,0.012-0.041,0.054-0.062,0.078c-2.039,2.342-1.742,1.377,0.338,4.164
		c0.161,0.214,0.388,0.379,0.573,0.553c-0.788,1.253-1.039,1.356-2.06,0.478c-1.188-1.022-2.309-2.127-3.381-3.273
		c-0.214-0.231-0.257-0.944-0.068-1.188c0.942-1.163,1.934-2.309,3.03-3.331c0.546-0.511,0.921,0.157,0.942,0.598
		c0.056,1.2,0.67,1.266,1.651,1.105c1.22-0.206,2.457-0.26,3.842-0.396c-0.045-0.565,0.099-1.241-0.165-1.67
		c-0.544-0.891-0.248-1.542,0.272-2.247c0.891,0.21,1.097,0.59,0.626,1.456c-0.255,0.482-0.148,1.167-0.194,1.76
		c-0.029,0.4-0.074,0.804-0.045,1.2c0.107,1.427,0.07,2.895,0.425,4.255c0.326,1.262,0.977,1.484,2.09,1.253
		c1.179-0.243,1.542-0.726,1.62-1.979c0.028-0.47,0.301-0.924,0.321-1.385c0.054-1.105,0.004-2.222,0.037-3.332
		C30.21,18.364,30.325,17.976,30.391,17.588z"/>
	<path fill="#FFFFFF" d="M22.022,12.287c-0.256,1.019,0.503,1.476,1.249,1.666c0.788,0.202,0.961,0.635,0.87,1.287
		c-0.169,1.204-0.383,2.403-0.589,3.677c-0.944,0.157-2.066,0.346-3.084,0.52c-0.359-0.66-0.656-1.2-0.95-1.74
		c-0.524-0.957-0.048-1.645,0.5-2.424c0.536-0.75,1.097-1.641,1.196-2.519c0.28-2.424,0.173-2.506,2.482-3.026
		c1.105-0.251,2.28-0.153,3.422-0.26c0.94-0.083,1.872-0.317,2.816-0.326c1.002-0.013,2.008,0.152,3.03,0.243
		c1.183,2.292,0.123,4.865-2.334,5.661c-0.618,0.198-1.195,0.655-1.813,0.701c-1.563,0.111-2.812-0.548-3.694-1.884
		c-0.321-0.487-0.156-0.569-0.944-0.289c-0.107,0.042-0.878-0.618-0.895-0.717c-0.021-0.181,0.053-0.433,0.181-0.561"/>
	<path fill="#3A5489" d="M33.112,8.502c-3.694-0.066-7.388,0.317-11.057,0.899c0.429-0.248,1.039-0.396,1.237-0.767
		c0.206-0.392,0.058-0.998,0-1.5c-0.091-0.75-0.248-1.493-0.363-2.235c-0.116-0.75,0.099-1.319,0.919-1.447
		c2.021-0.31,4.045-0.61,6.073-0.862c0.948-0.115,1.27,0.486,1.245,1.344c-0.021,0.957,0.066,1.938-0.065,2.882
		c-0.157,1.158,0.379,1.554,1.393,1.62C32.708,8.448,32.914,8.477,33.112,8.502z"/>
	<path fill="#DBC5B6" d="M35.297,16.27c1.438,1.22,2.878,2.437,4.387,3.71c-0.182,0.354-0.28,0.701-0.495,0.936
		c-1.27,1.356-2.56,2.705-3.884,4.02c-0.115,0.12-0.544,0.111-0.676-0.004c-0.132-0.115-0.156-0.495-0.062-0.676
		c0.227-0.454,0.49-0.924,0.845-1.282c0.952-0.936,0.742-1.769-0.062-2.651c-0.466-0.507-0.705-1.067-0.26-1.769
		c0.124-0.198-0.021-0.569-0.05-0.866c-0.041-0.383-0.091-0.767-0.14-1.154C35.033,16.447,35.165,16.356,35.297,16.27z"/>
	<path fill="#FFFFFF" d="M27.39,19.081c-0.387-0.565-0.89-0.981-0.841-1.319c0.066-0.412,0.528-0.957,0.928-1.072
		c0.577-0.165,1.249,0.008,1.88,0.041c-0.046,0.354,0.021,0.94-0.152,1.014c-0.99,0.47-0.504,0.911-0.083,1.414
		c0.173,0.198,0.416,0.458,0.388,0.66c-0.136,1.068-0.347,2.132-0.544,3.195c-0.033,0.198-0.104,0.396-0.186,0.577
		c-0.141,0.317-0.31,0.882-0.466,0.882c-0.454-0.008-1.179-0.12-1.303-0.404c-0.231-0.524-0.099-1.204-0.116-1.818
		c-0.008-0.322,0.116-0.841-0.024-0.932c-0.882-0.557-0.47-1.072-0.042-1.612C27.035,19.456,27.271,19.217,27.39,19.081z"/>
	<path fill="#FFFFFF" d="M20.488,48.057c0.054-1.158,0.025-2.26,0.177-3.336c0.145-1.001,1.113-0.771,1.777-0.89
		c0.614-0.111,1.253,0.28,1.093,0.882c-0.375,1.423-0.911,2.815-1.497,4.168c-0.132,0.297-0.75,0.388-1.146,0.577
		c-0.136-0.388-0.28-0.774-0.404-1.162C20.459,48.201,20.488,48.09,20.488,48.057z"/>
	<path fill="#FFFFFF" d="M33.805,45.971c-0.091,0.684-0.189,1.876-0.433,3.042c-0.063,0.293-0.549,0.598-0.895,0.685
		c-0.165,0.041-0.619-0.383-0.668-0.643c-0.252-1.345-0.454-2.696-0.577-4.058c-0.025-0.247,0.399-0.561,0.659-0.787
		c0.107-0.091,0.33-0.029,0.503-0.054C33.862,43.95,33.862,43.95,33.805,45.971z"/>
	<path fill="#E5BF61" d="M33.318,13.581c1.27,1.278,0.989,2.726,0.61,4.098c-0.079,0.289-0.887,0.441-1.377,0.52
		c-0.256,0.037-0.677-0.14-0.813-0.354c-0.503-0.788-0.499-1.637,0.045-2.408C32.233,14.81,32.77,14.241,33.318,13.581z"/>
	<path fill="#FFFFFF" d="M21.519,28.671c-0.132-0.198-0.54-0.544-0.573-0.919c-0.083-0.919,0.631-1.274,1.39-1.216
		c0.379,0.033,0.94,0.454,1.055,0.808C23.576,27.949,22.69,28.646,21.519,28.671z"/>
	<path fill="#FFFFFF" d="M35.215,26.7c-0.64,0.424-1.015,0.866-1.386,0.866c-0.329-0.008-0.655-0.503-0.98-0.784
		c0.346-0.363,0.635-0.878,1.047-1.022C34.126,25.678,34.571,26.218,35.215,26.7z"/>
	<path fill="#E5BF61" d="M24.681,11.668c0,0,0.095-1.525-0.309-2.268l-2.824,0.713l-0.292,2.503l-0.61,1.855l-0.808,1.212
		l-0.312,0.94l-0.239,0.795l0.752,0.779v0.837l0.61,0.396h1.019l1.896-0.396l0.643-0.655l0.206-1.938l-0.107-1.282l0.379-1.06
		l-0.519-0.528h-0.928l-0.165-1.204L24.681,11.668z"/>
	<g>
		<g>
			<path d="M27.856,39.654c-0.062,0.091-0.07,0.239-0.136,0.33c-0.07,0.091-0.313,0.045-0.379,0.132
				c-0.07,0.086,0.037,0.313-0.033,0.404c-0.07,0.086-0.141,0.177-0.207,0.264c-0.074,0.091-0.239,0.099-0.313,0.189
				c-0.066,0.082-0.182,0.14-0.248,0.23c-0.07,0.083-0.198,0.128-0.268,0.219c-0.07,0.091-0.078,0.223-0.144,0.313
				c-0.07,0.091-0.042,0.251-0.107,0.342s-0.107,0.198-0.169,0.297c-0.062,0.091-0.115,0.19-0.177,0.28
				c-0.066,0.1-0.227,0.124-0.289,0.215c-0.058,0.099,0.008,0.268-0.049,0.362c-0.058,0.1-0.099,0.198-0.157,0.297
				c-0.05,0.1-0.342,0.079-0.396,0.182c-0.045,0.104,0.07,0.284,0.025,0.388c-0.05,0.104-0.33,0.107-0.371,0.21
				c-0.042,0.104-0.066,0.223-0.107,0.326c-0.041,0.103,0.103,0.284,0.058,0.392c-0.037,0.107-0.083,0.21-0.12,0.317
				s-0.037,0.223-0.07,0.338c-0.037,0.107,0.062,0.256,0.025,0.363c-0.033,0.106-0.223,0.169-0.251,0.276
				c-0.029,0.106-0.136,0.197-0.169,0.305c-0.029,0.107,0.053,0.243,0.024,0.358c-0.024,0.111-0.099,0.211-0.124,0.317
				c-0.025,0.111,0.115,0.26,0.099,0.367c-0.025,0.107-0.132,0.198-0.153,0.313c-0.021,0.111-0.008,0.227-0.029,0.338
				c-0.017,0.111-0.322,0.178-0.338,0.289c-0.017,0.111,0.313,0.271,0.305,0.387c-0.017,0.111-0.153,0.211-0.173,0.313
				c-0.017,0.111-0.037,0.223-0.062,0.326c-0.029,0.111-0.202,0.182-0.235,0.28c-0.033,0.107,0.173,0.301,0.14,0.399
				c-0.041,0.107-0.396,0.079-0.445,0.174c-0.049,0.103,0.037,0.264-0.017,0.354c-0.062,0.095-0.305,0.041-0.371,0.132
				c-0.07,0.082,0.116,0.388,0.037,0.462c-0.078,0.078-0.136,0.202-0.218,0.271c-0.086,0.066-0.28,0-0.371,0.066
				c-0.091,0.058-0.111,0.247-0.206,0.305c-0.095,0.05-0.354-0.223-0.454-0.177c-0.099,0.045-0.152,0.169-0.255,0.21
				c-0.099,0.041-0.202,0.074-0.305,0.107c-0.099,0.033-0.186,0.119-0.293,0.156c-0.103,0.033-0.227-0.008-0.334,0.025
				c-0.107,0.028-0.206,0.074-0.311,0.106c-0.111,0.033-0.15,0.317-0.262,0.354c-0.111,0.033-0.233,0.046-0.344,0.079
				c-0.111,0.037-0.322-0.248-0.435-0.215c-0.111,0.037-0.116,0.425-0.227,0.458c-0.111,0.032-0.28-0.107-0.392-0.074
				s-0.189,0.193-0.305,0.223c-0.111,0.032-0.21,0.132-0.328,0.165c-0.09,0.021-0.231-0.178-0.33-0.19
				c-0.095-0.008-0.229,0.157-0.324,0.132c-0.095-0.021-0.124-0.223-0.219-0.234c0.021-0.099,0.004-0.182,0.017-0.289
				c0.013-0.106-0.012-0.223,0.013-0.321c0.026-0.119-0.017-0.326,0.058-0.396c0.08-0.074,0.243-0.063,0.33-0.137
				c0.083-0.069,0.198-0.106,0.285-0.173c0.086-0.07,0.124-0.198,0.21-0.268c0.086-0.07,0.125-0.198,0.21-0.269
				c0.086-0.065,0.371,0.115,0.456,0.046c0.086-0.07,0.194-0.111,0.28-0.182c0.087-0.07-0.072-0.433,0.013-0.507
				c0.086-0.074,0.297,0.008,0.379-0.066c0.081-0.074,0.052-0.264,0.128-0.338c0.07-0.07,0.367,0.05,0.427-0.033
				c0.06-0.082,0.083-0.206,0.134-0.297c0.048-0.091,0.124-0.189,0.159-0.276c0.039-0.095-0.262-0.292-0.237-0.392
				c0.027-0.103,0.06-0.169,0.068-0.264c0.01-0.115,0.4-0.198,0.408-0.313s-0.309-0.247-0.299-0.362
				c0.008-0.115,0.15-0.223,0.155-0.338c0.004-0.116,0.053-0.228,0.062-0.339c0-0.115-0.165-0.238-0.161-0.35
				c0.004-0.116,0.21-0.223,0.21-0.334s-0.008-0.231-0.008-0.347s-0.025-0.227-0.017-0.342c0-0.116-0.26-0.228-0.26-0.343
				s0.334-0.235,0.334-0.347c0-0.115-0.066-0.227-0.066-0.346c0-0.115,0.074-0.231,0.074-0.343
				c-0.008-0.103-0.091-0.218-0.107-0.321c-0.024-0.103-0.008-0.227-0.045-0.325c-0.035-0.1-0.281-0.116-0.322-0.215
				c-0.043-0.091-0.105-0.173-0.15-0.268c-0.047-0.095-0.109-0.182-0.157-0.272c-0.056-0.099-0.099-0.198-0.15-0.293
				c-0.056-0.091,0.146-0.329,0.09-0.425c-0.051-0.095-0.352-0.053-0.404-0.152c-0.052-0.099-0.064-0.214-0.111-0.313
				c-0.052-0.099-0.012-0.238-0.06-0.338c-0.048-0.099-0.207-0.148-0.25-0.247c-0.043-0.099-0.182-0.173-0.221-0.28
				c-0.037-0.099,0.312-0.33,0.276-0.441c-0.035-0.103-0.206-0.161-0.233-0.268c-0.025-0.1-0.31-0.152-0.33-0.264
				c-0.022-0.107-0.047-0.223-0.066-0.339c-0.017-0.106,0.134-0.239,0.126-0.35c-0.008-0.112-0.087-0.219-0.091-0.326
				C17.703,39.391,18,39.274,18,39.168c0-0.107-0.301-0.219-0.297-0.33c0.004-0.111-0.047-0.227-0.039-0.334
				c0.008-0.111-0.017-0.227-0.004-0.334c0.012-0.107,0.365-0.173,0.383-0.28c0.017-0.107-0.113-0.243-0.091-0.347
				c0.021-0.107-0.064-0.239-0.039-0.346c0.027-0.107,0.091-0.207,0.115-0.306c0.031-0.107-0.016-0.239,0.019-0.342
				c0.033-0.104,0.12-0.194,0.155-0.297c0.035-0.104,0.21-0.152,0.25-0.26c0.039-0.1,0.15-0.169,0.194-0.272
				c0.043-0.099,0.167-0.156,0.21-0.256c0.043-0.099-0.056-0.264-0.008-0.362c0.048-0.099,0.227-0.132,0.278-0.223
				c0.048-0.099,0.023-0.235,0.074-0.33c0.052-0.095-0.159-0.334-0.107-0.429c0.051-0.095,0.194-0.14,0.25-0.239
				c0.056-0.091,0.188-0.14,0.245-0.234c0.056-0.095,0.045-0.223,0.103-0.317c0.056-0.096,0.253-0.1,0.312-0.194
				c0.053-0.095,0.09-0.197,0.148-0.288c0.058-0.091,0.103-0.194,0.157-0.289c0.058-0.095,0.037-0.235,0.09-0.33
				c0.062-0.099,0.305-0.095,0.359-0.189c0.054-0.103-0.136-0.325-0.091-0.425c0.045-0.106,0.251-0.148,0.285-0.255
				c0.033-0.107-0.05-0.248-0.025-0.363c0.021-0.107-0.025-0.214-0.025-0.33c0.008-0.115,0.008-0.214,0-0.329
				c-0.008-0.107-0.045-0.202-0.074-0.317c-0.024-0.107,0.132-0.269,0.091-0.38c-0.033-0.103-0.313-0.111-0.363-0.223
				c-0.041-0.103,0.256-0.358,0.21-0.449c-0.045-0.099-0.441-0.024-0.487-0.119c-0.053-0.096-0.021-0.231-0.078-0.322
				c-0.054-0.095-0.14-0.165-0.198-0.251c-0.062-0.091,0.124-0.363,0.062-0.45c-0.062-0.087-0.202-0.128-0.268-0.21
				c-0.068-0.086-0.097-0.214-0.167-0.289c-0.072-0.083-0.192-0.124-0.27-0.202c-0.079-0.083-0.143-0.169-0.219-0.243
				c-0.078-0.083-0.268-0.041-0.344-0.115c-0.078-0.074-0.019-0.297-0.099-0.371c-0.083-0.074-0.194-0.107-0.276-0.182
				c-0.081-0.074-0.184-0.124-0.266-0.189c-0.083-0.07-0.115-0.202-0.198-0.272c-0.083-0.066-0.258-0.033-0.34-0.104
				c-0.091-0.07-0.115-0.214-0.202-0.289c-0.086-0.078-0.214-0.103-0.297-0.186c-0.08-0.074-0.289-0.033-0.369-0.115
				c-0.083-0.083,0.017-0.338-0.066-0.42c-0.081-0.083-0.12-0.198-0.202-0.285c-0.076-0.086-0.278-0.054-0.356-0.14
				c-0.077-0.086-0.033-0.28-0.111-0.367c-0.079-0.087-0.254-0.087-0.332-0.173c-0.076-0.083-0.025-0.28-0.103-0.371
				c-0.076-0.083-0.344-0.008-0.417-0.091c-0.078-0.086-0.241-0.095-0.317-0.181c-0.074-0.083,0.167-0.383,0.12-0.47
				c-0.056-0.09-0.365-0.058-0.392-0.157c-0.029-0.099,0.138-0.23,0.134-0.338c-0.004-0.103-0.258-0.243-0.233-0.346
				c0.022-0.099,0.169-0.19,0.21-0.285c0.043-0.095,0.319-0.054,0.375-0.136c0.056-0.087,0.012-0.231,0.083-0.313
				c0.068-0.083,0.184-0.124,0.258-0.206c0.072-0.083,0.127-0.173,0.198-0.256c0.072-0.083-0.035-0.321,0.033-0.404
				c0.07-0.083,0.404,0.066,0.479-0.017c0.072-0.078-0.068-0.351,0.004-0.429c0.072-0.083,0.186-0.128,0.258-0.21
				c0.074-0.078,0.292-0.024,0.367-0.107c0.072-0.079,0.145-0.161,0.214-0.243c0.072-0.083,0.167-0.141,0.241-0.223
				c0.072-0.083-0.13-0.413-0.056-0.495c0.072-0.078,0.196-0.115,0.271-0.198c0.072-0.078,0.305-0.017,0.377-0.099
				c0.074-0.082,0.035-0.264,0.105-0.346c0.072-0.083,0.274-0.049,0.342-0.132c0.074-0.083,0.015-0.276,0.083-0.359
				c0.068-0.078,0.317-0.016,0.388-0.099c0.072-0.087-0.159-0.383-0.107-0.491c0.052-0.099,0.25-0.132,0.293-0.239
				c0.037-0.107-0.062-0.272-0.019-0.379c0.043-0.107,0.34-0.09,0.396-0.181c0.06-0.107-0.064-0.338,0.017-0.412
				c0.086-0.074,0.099-0.21,0.177-0.289c0.083-0.074,0.42,0.086,0.495,0.008c0.074-0.09,0.165-0.181,0.223-0.268
				c0.066-0.091-0.132-0.363-0.074-0.458c0.054-0.095,0.037-0.214,0.091-0.313c0.045-0.099,0.099-0.186,0.132-0.289
				c0.042-0.103,0.251-0.14,0.28-0.248c0.037-0.107-0.144-0.26-0.115-0.367c0.025-0.107,0.14-0.186,0.161-0.297
				c0.021-0.107-0.037-0.223-0.021-0.334c0.012-0.107,0.173-0.194,0.189-0.305c0.008-0.107-0.161-0.231-0.156-0.342
				c0.008-0.111,0.255-0.206,0.255-0.317c0.008-0.111,0.107-0.219,0.116-0.33c0.004-0.115,0.024-0.222,0.024-0.33
				c0-0.115-0.066-0.351-0.066-0.458c-0.099,0.037-0.21,0.383-0.305,0.429c-0.099,0.045-0.223,0.029-0.321,0.078
				c-0.099,0.05-0.198,0.107-0.297,0.148c-0.103,0.045-0.28-0.157-0.388-0.136c-0.107,0.029-0.192,0.358-0.295,0.35
				c-0.099,0-0.198-0.214-0.297-0.247c-0.095-0.029-0.113-0.219-0.208-0.272c-0.084-0.045-0.348,0.198-0.433,0.145
				c-0.086-0.054-0.107-0.21-0.193-0.264c-0.087-0.054-0.19-0.161-0.281-0.207c0.074-0.099,0.027-0.313,0.091-0.424
				s0.206-0.194,0.28-0.293c0.077-0.107,0.21-0.206,0.318-0.272c0.099-0.062,0.177-0.14,0.27-0.202
				c0.095-0.058,0.193-0.115,0.289-0.173c0.095-0.062,0.272,0.008,0.367-0.05c0.099-0.058,0.099-0.297,0.2-0.346
				c0.095-0.054,0.284,0.07,0.387,0.029c0.103-0.045,0.206-0.083,0.313-0.111c0.107-0.033,0.177-0.264,0.289-0.284
				c0.107-0.021,0.239-0.021,0.359-0.029c0.12-0.008,0.251,0.182,0.358,0.157C21.61,8.522,21.7,8.424,21.791,8.37
				c0.107-0.054,0.305-0.017,0.379-0.099c0.078-0.083,0.157-0.21,0.21-0.313c0.045-0.099-0.045-0.264-0.021-0.379
				c0.021-0.107,0.033-0.214,0.033-0.334c0.008-0.107,0.099-0.227,0.083-0.351c-0.013-0.107,0.017-0.235-0.013-0.351
				c-0.021-0.107-0.35-0.144-0.383-0.251c-0.029-0.107,0.017-0.231-0.029-0.342c-0.037-0.103,0.132-0.276,0.103-0.379
				c-0.033-0.107-0.017-0.214-0.041-0.313c-0.025-0.107-0.214-0.177-0.231-0.285c-0.012-0.111,0.206-0.227,0.206-0.33
				c0-0.111-0.33-0.239-0.317-0.338c0.012-0.107,0.26-0.169,0.297-0.272s0.161-0.14,0.21-0.231c0.05-0.099-0.165-0.363-0.095-0.449
				c0.07-0.083,0.272-0.045,0.359-0.111c0.083-0.07,0.21-0.041,0.309-0.103c0.086-0.054,0.029-0.404,0.128-0.449
				c0.095-0.045,0.247,0.008,0.354-0.029c0.099-0.033,0.202-0.099,0.309-0.124c0.107-0.029,0.21-0.095,0.317-0.12
				c0.107-0.024,0.223-0.045,0.33-0.066c0.107-0.024,0.248,0.066,0.358,0.042c0.111-0.021,0.26,0.161,0.367,0.14
				c0.115-0.025,0.218-0.066,0.33-0.086c0.111-0.021,0.21-0.095,0.322-0.116s0.202-0.161,0.309-0.177
				c0.111-0.017,0.227-0.008,0.342-0.025c0.107-0.016,0.251,0.173,0.363,0.157c0.116-0.021,0.177-0.338,0.289-0.35
				c0.111-0.021,0.239,0.053,0.346,0.037c0.116-0.017,0.231-0.004,0.342-0.021c0.111-0.016,0.206-0.136,0.317-0.152
				c0.116-0.017,0.214-0.099,0.322-0.116c0.106-0.012,0.23,0.132,0.338,0.116c0.103-0.025,0.202-0.07,0.305-0.091
				c0.104-0.025,0.228,0.058,0.33,0.042c0.104-0.021,0.189-0.165,0.293-0.177c0.103-0.013,0.219,0.243,0.325,0.235
				c0.107,0,0.19-0.058,0.297-0.045c0.107,0.012,0.276-0.289,0.38-0.26c0.099,0.033,0.14,0.264,0.239,0.305
				c0.106,0.049,0.223,0.066,0.313,0.12c0.107,0.062,0.165,0.169,0.248,0.23c0.091,0.074,0.058,0.235,0.123,0.313
				c0.074,0.087,0.413,0,0.454,0.107c0.041,0.099-0.058,0.264-0.041,0.379c0.016,0.103,0.062,0.214,0.062,0.333
				c0,0.107,0.099,0.215,0.099,0.322c0.004,0.111,0.063,0.219,0.07,0.326c0.004,0.107-0.363,0.227-0.358,0.338
				c0.004,0.111,0.065,0.219,0.069,0.326c0.005,0.107,0.029,0.215,0.033,0.33c0.004,0.111-0.033,0.218-0.028,0.326
				c0,0.107,0.169,0.214,0.169,0.326c0,0.107-0.124,0.214-0.124,0.322c0,0.107,0.087,0.223,0.083,0.33
				C31.97,6.346,31.99,6.449,31.99,6.548c0.009,0.111-0.065,0.231-0.049,0.326c0.021,0.111,0.182,0.169,0.223,0.26
				c0.049,0.095,0.132,0.111,0.214,0.181c0.074,0.066,0.1,0.153,0.206,0.198c0.087,0.037,0.124,0.296,0.239,0.317
				c0.1,0.016,0.227-0.021,0.343-0.013c0.119,0.008,0.26-0.239,0.375-0.223c0.115,0.017,0.219,0.124,0.334,0.145
				c0.111,0.021,0.227,0.054,0.342,0.078c0.107,0.029,0.252-0.045,0.363-0.016c0.115,0.033,0.186,0.198,0.297,0.235
				c0.115,0.033,0.255-0.037,0.366-0.004c0.111,0.033,0.178,0.198,0.293,0.231c0.111,0.033,0.219,0.083,0.325,0.116
				c0.087,0.024,0.28-0.021,0.351,0.058c0.058,0.066-0.136,0.346-0.078,0.425c0.054,0.082,0.124,0.053,0.186,0.127
				c-0.082,0.058-0.017,0.169-0.099,0.248c-0.074,0.074-0.054,0.289-0.132,0.346c-0.091,0.07-0.281,0.091-0.38,0.107
				c-0.115,0.016-0.251-0.239-0.371-0.243c-0.123-0.004-0.247,0.161-0.371,0.144c-0.119-0.008-0.23-0.074-0.354-0.074
				c-0.115-0.008-0.234,0.025-0.35,0.045c-0.087,0.012-0.124,0.144-0.223,0.206c-0.091,0.058-0.334-0.07-0.404,0
				c-0.091,0.095-0.099,0.28-0.099,0.359c0,0.111,0.238,0.214,0.243,0.326c0.008,0.111-0.354,0.243-0.343,0.35
				c0.009,0.116,0.285,0.198,0.301,0.313c0.013,0.111-0.132,0.239-0.115,0.346c0.021,0.111,0.189,0.194,0.215,0.301
				c0.021,0.111,0.004,0.227,0.028,0.334c0.029,0.107-0.032,0.235-0.004,0.342c0.033,0.107-0.107,0.268-0.074,0.375
				c0.033,0.107,0.124,0.198,0.165,0.305c0.041,0.103,0.23,0.148,0.272,0.251c0.041,0.103,0.037,0.227,0.082,0.326
				c0.05,0.099-0.037,0.28,0.017,0.375c0.054,0.099,0.21,0.145,0.272,0.235c0.058,0.099,0.152,0.169,0.214,0.264
				c0.062,0.091,0.189,0.132,0.26,0.223s0.045,0.247,0.119,0.334c0.074,0.086,0.223,0.103,0.297,0.186
				c0.078,0.082,0.174,0.136,0.256,0.214c0.074,0.074,0.103,0.21,0.189,0.289c0.083,0.074,0.202,0.099,0.289,0.173
				c0.091,0.07,0.082,0.264,0.173,0.33s0.182,0.136,0.272,0.202c0.095,0.062,0.387-0.161,0.482-0.091
				c0.09,0.062-0.054,0.458,0.037,0.523c0.09,0.07,0.197,0.111,0.288,0.182c0.091,0.066,0.289,0,0.375,0.066
				c0.091,0.07,0.083,0.26,0.169,0.33c0.091,0.066,0.174,0.148,0.256,0.223c0.087,0.074,0.33-0.029,0.412,0.042
				c0.087,0.074,0.231,0.09,0.313,0.165c0.091,0.074-0.058,0.408,0.029,0.482c0.086,0.079,0.251,0.062,0.334,0.136
				c0.082,0.078,0.309,0.008,0.392,0.083c0.082,0.078,0.045,0.289,0.128,0.367c0.078,0.079,0.032,0.293,0.115,0.367
				c0.065,0.07,0.23,0.041,0.276,0.165c0.037,0.104,0.074,0.21,0.091,0.33c0.021,0.124,0.169,0.243,0.164,0.354
				c-0.012,0.14-0.275,0.157-0.334,0.231c-0.062,0.091-0.148,0.165-0.214,0.255c-0.066,0.091,0.062,0.318,0,0.408
				c-0.066,0.091-0.066,0.231-0.132,0.322c-0.066,0.091-0.264,0.078-0.338,0.169c-0.066,0.091-0.07,0.227-0.141,0.313
				c-0.065,0.086-0.321,0.029-0.388,0.12c-0.074,0.086-0.054,0.243-0.123,0.334c-0.066,0.082,0.074,0.342,0.004,0.429
				c-0.07,0.083-0.351,0.008-0.417,0.095c-0.065,0.086-0.23,0.103-0.301,0.186c-0.07,0.091-0.045,0.251-0.115,0.338
				s-0.013,0.272-0.082,0.363c-0.07,0.091-0.228,0.107-0.297,0.19c-0.07,0.09,0.037,0.313-0.029,0.404
				c-0.062,0.091-0.23,0.099-0.297,0.189c-0.065,0.091-0.223,0.116-0.288,0.207c-0.066,0.09,0.037,0.297-0.025,0.387
				c-0.058,0.099-0.329,0.054-0.383,0.148c-0.063,0.095,0.086,0.317,0.028,0.413c-0.058,0.095-0.202,0.132-0.264,0.23
				c-0.054,0.095-0.082,0.207-0.145,0.305c-0.062,0.091-0.334,0.054-0.392,0.148s0.066,0.301,0.009,0.396
				c-0.059,0.095-0.231,0.111-0.293,0.206s0.037,0.292-0.024,0.379c-0.063,0.099-0.074,0.214-0.128,0.305
				c-0.063,0.09-0.265,0.099-0.313,0.198c-0.05,0.1-0.239,0.141-0.276,0.239c-0.045,0.104,0.26,0.338,0.23,0.438
				c-0.032,0.106-0.144,0.177-0.168,0.28c-0.029,0.106,0.024,0.223,0.008,0.329c-0.017,0.107-0.045,0.198-0.05,0.306
				c-0.004,0.107-0.156,0.214-0.156,0.325c0.008,0.107,0.024,0.215,0.041,0.326c0.009,0.107,0.017,0.214,0.037,0.33
				c0.021,0.106-0.054,0.234-0.033,0.342c0.021,0.104,0.284,0.152,0.313,0.26c0.028,0.099,0.119,0.182,0.152,0.288
				c0.033,0.107-0.268,0.313-0.23,0.421c0.032,0.107,0.14,0.189,0.181,0.289c0.042,0.106,0.248,0.144,0.285,0.247
				c0.037,0.103,0.128,0.193,0.169,0.297c0.037,0.103-0.161,0.293-0.124,0.399c0.033,0.107,0.174,0.178,0.206,0.285
				c0.037,0.106,0.189,0.173,0.223,0.28c0.037,0.107-0.086,0.264-0.058,0.371c0.033,0.106-0.128,0.264-0.099,0.371
				c0.033,0.106,0.223,0.173,0.247,0.28c0.029,0.107-0.065,0.239-0.041,0.351s0.362,0.152,0.384,0.264
				c0.021,0.107,0.078,0.214,0.095,0.325c0.021,0.111-0.165,0.256-0.148,0.367s0.099,0.21,0.106,0.321
				c0.017,0.111,0.182,0.206,0.198,0.313c0.009,0.111-0.379,0.264-0.371,0.375c0.009,0.111,0.408,0.19,0.417,0.302
				c0.008,0.111-0.343,0.243-0.334,0.358c0,0.107,0.371,0.206,0.371,0.313c0.008,0.115-0.198,0.23-0.198,0.342
				s-0.033,0.227-0.033,0.334c0,0.115-0.05,0.223-0.058,0.334c0,0.111,0.156,0.227,0.152,0.338s-0.045,0.219-0.054,0.334
				c-0.008,0.107,0.1,0.231,0.091,0.343c-0.017,0.111-0.197,0.202-0.214,0.313c-0.013,0.111,0.14,0.243,0.123,0.351
				c-0.021,0.115,0.017,0.234,0,0.346c-0.021,0.111-0.223,0.189-0.239,0.301c-0.021,0.107,0.124,0.252,0.1,0.359
				c-0.021,0.106-0.05,0.227-0.074,0.334c-0.021,0.095-0.074,0.193-0.104,0.297c-0.024,0.099-0.346,0.111-0.375,0.206
				c-0.037,0.099-0.05,0.189-0.091,0.28c-0.041,0.095,0.161,0.329,0.107,0.408c-0.062,0.082-0.156,0.202-0.23,0.264
				c-0.091,0.074-0.182,0.107-0.256,0.182c-0.078,0.086-0.38,0-0.437,0.091c-0.059,0.095,0.106,0.313,0.069,0.42
				c-0.045,0.099,0,0.215-0.024,0.321c-0.029,0.107-0.021,0.198-0.037,0.313c-0.008,0.107-0.28,0.189-0.289,0.301
				c-0.008,0.107-0.106,0.215-0.115,0.33c0,0.115,0.215,0.243,0.206,0.358c-0.008,0.111-0.173,0.215-0.181,0.326
				c-0.017,0.111,0.189,0.252,0.173,0.358c-0.009,0.115-0.037,0.231-0.05,0.343c-0.012,0.111,0.021,0.234,0.009,0.351
				c-0.017,0.106-0.124,0.214-0.141,0.321c-0.017,0.115,0.115,0.247,0.099,0.362c-0.016,0.116-0.132,0.215-0.148,0.33
				c-0.016,0.107-0.028,0.227-0.041,0.338c-0.017,0.12-0.33,0.194-0.338,0.297c-0.017,0.124,0.239,0.256,0.239,0.363
				c-0.009,0.128-0.289,0.256-0.28,0.351c0.012,0.127,0.227,0.214,0.28,0.305s0.14,0.169,0.243,0.235
				c0.082,0.058,0.178,0.115,0.293,0.169c0.09,0.045,0.23-0.017,0.346,0.028c0.099,0.037,0.107,0.33,0.223,0.367
				c0.111,0.037,0.243,0.021,0.354,0.062c0.107,0.037,0.321-0.206,0.429-0.165c0.115,0.042,0.152,0.276,0.26,0.322
				c0.111,0.041,0.219,0.095,0.326,0.14c0.106,0.042,0.276-0.058,0.388-0.008c0.106,0.045,0.186,0.161,0.297,0.206
				c0.106,0.05,0.115,0.288,0.222,0.342c0.107,0.054,0.128,0.12,0.215,0.211c0.082,0.091,0.379-0.005,0.453,0.099
				c0.074,0.099,0.025,0.247,0.104,0.338c-0.087,0.046-0.178,0.009-0.268,0.054c-0.091,0.045-0.059,0.326-0.148,0.375
				c-0.091,0.05-0.239-0.008-0.33,0.025c-0.095,0.041-0.247-0.19-0.347-0.174c-0.115,0.025-0.219,0.091-0.334,0.107
				s-0.177,0.404-0.293,0.421c-0.115,0.021-0.247-0.107-0.362-0.091c-0.119,0.012-0.239-0.041-0.354-0.041
				c-0.115,0.008-0.231-0.1-0.347-0.1c-0.119,0-0.234,0.141-0.351,0.132c-0.119,0-0.234,0.037-0.35,0.033s-0.235,0.083-0.351,0.078
				c-0.119-0.004-0.235-0.004-0.351-0.012c-0.115-0.009-0.198-0.38-0.317-0.388c-0.115-0.009-0.251,0.219-0.367,0.206
				c-0.115-0.017-0.206-0.182-0.321-0.194c-0.115-0.016-0.23,0.005-0.342-0.016c-0.111-0.021-0.219-0.083-0.326-0.111
				c-0.115-0.025-0.297,0.218-0.412,0.189c-0.091-0.029-0.07-0.313-0.148-0.412c-0.066-0.074-0.186-0.116-0.239-0.215
				c-0.05-0.091-0.054-0.206-0.099-0.31c-0.041-0.099-0.28-0.132-0.313-0.23c-0.033-0.107-0.017-0.235-0.041-0.334
				c-0.025-0.107-0.1-0.206-0.124-0.313s-0.095-0.214-0.115-0.321c-0.024-0.107,0.111-0.256,0.091-0.363
				c-0.025-0.115,0.074-0.247,0.054-0.354c-0.021-0.106-0.322-0.156-0.343-0.271c-0.024-0.107,0.211-0.272,0.189-0.38
				c-0.024-0.106,0.025-0.23,0.009-0.338c-0.024-0.107-0.284-0.173-0.306-0.284c-0.024-0.107-0.008-0.227-0.024-0.334
				c-0.021-0.111-0.161-0.198-0.182-0.306c-0.024-0.111,0.198-0.264,0.182-0.375c-0.024-0.111-0.041-0.218-0.062-0.329
				s-0.137-0.194-0.157-0.302c-0.017-0.106,0.198-0.247,0.186-0.354c-0.012-0.106-0.058-0.21-0.065-0.313
				c-0.017-0.106-0.152-0.197-0.165-0.305c-0.017-0.107-0.017-0.215-0.033-0.321c-0.008-0.107,0.107-0.239,0.091-0.347
				c-0.021-0.107-0.272-0.173-0.289-0.28c-0.024-0.107,0.198-0.264,0.174-0.367c-0.021-0.095-0.272-0.136-0.321-0.227
				c-0.042-0.091-0.219-0.087-0.281-0.169c-0.058-0.082,0.1-0.334,0.033-0.408c-0.062-0.078-0.091-0.202-0.156-0.276
				c-0.074-0.078-0.124-0.177-0.198-0.251c-0.074-0.079-0.14-0.161-0.21-0.243c-0.074-0.079-0.334,0.012-0.404-0.07
				c-0.07-0.083-0.091-0.206-0.156-0.289c-0.07-0.078,0.021-0.271-0.042-0.358c-0.065-0.087-0.197-0.111-0.251-0.202
				c-0.058-0.091-0.297-0.078-0.347-0.173c-0.049-0.091,0.025-0.247-0.017-0.347c-0.041-0.099-0.09-0.193-0.123-0.293
				c-0.029-0.103-0.28-0.164-0.297-0.268s0.334-0.256,0.321-0.362c-0.008-0.107,0-0.198,0.009-0.306
				c0.004-0.107,0.021-0.198,0.032-0.305C28.065,39.811,27.848,39.608,27.856,39.654z M28.457,35.923
				c0,0.128,0.083,0.26,0.079,0.375c-0.005,0.128-0.231,0.239-0.231,0.363c-0.008,0.123,0.215,0.243,0.215,0.362
				c0.008,0.124,0.021,0.223,0.041,0.347c0.024,0.107-0.083,0.235-0.066,0.338c0.025,0.107-0.008,0.219,0.009,0.326
				c0.024,0.106-0.033,0.227-0.009,0.334c0.017,0.106,0.116,0.197,0.132,0.297c0.017,0.106,0.157,0.189,0.182,0.296
				c0.017,0.107,0.066,0.207,0.091,0.306c0.017,0.107,0.054,0.206,0.074,0.313c0.024,0.106-0.074,0.239-0.058,0.342
				c0.024,0.104,0.189,0.182,0.215,0.285c0.021,0.103,0.058,0.206,0.082,0.309c0.024,0.104-0.215,0.269-0.189,0.375
				c0.024,0.1,0.227,0.165,0.251,0.272c0.029,0.099-0.193,0.269-0.169,0.371c0.029,0.104,0.083,0.202,0.107,0.305
				c0.033,0.116,0.26,0.174,0.297,0.276c0.045,0.111,0.091,0.215,0.14,0.313c0.059,0.107,0.148,0.178,0.215,0.26
				c0.074,0.099,0.23,0.066,0.321,0.141c0.083,0.078,0.063,0.255,0.161,0.313c0.099,0.058,0.169,0.173,0.284,0.214
				c0.104,0.033,0.239-0.054,0.354-0.033c0.107,0.017,0.215,0.066,0.338,0.074c0.111,0.005,0.211-0.173,0.33-0.181
				c0.115-0.009,0.231,0.065,0.347,0.058c0.115-0.017,0.223-0.063,0.338-0.074c0.115-0.017,0.272,0.247,0.388,0.227
				s0.165-0.388,0.272-0.408c0.115-0.021,0.251,0.065,0.362,0.05c0.111-0.029,0.223-0.054,0.338-0.083
				c0.107-0.024,0.26,0.091,0.371,0.058c0.115-0.028,0.148-0.309,0.264-0.338c0.083-0.024,0.31,0.23,0.396,0.165
				c0.074-0.054,0.058-0.243,0.123-0.313c0.066-0.074,0.317-0.028,0.371-0.111c0.058-0.087-0.198-0.33-0.169-0.416
				c0.037-0.104,0.017-0.215,0.045-0.317c0.033-0.104,0.223-0.153,0.252-0.26c0.028-0.1-0.095-0.243-0.07-0.347
				s0.396-0.141,0.412-0.239c0.025-0.107-0.045-0.234-0.032-0.342c0.016-0.107,0.041-0.215,0.049-0.322
				c0.017-0.111-0.024-0.227-0.017-0.333c0.009-0.108,0.091-0.215,0.091-0.322c0.009-0.107,0-0.219,0-0.326
				c0-0.106-0.264-0.21-0.264-0.321c-0.008-0.111,0.017-0.21,0.008-0.317c-0.008-0.107,0.317-0.243,0.31-0.351
				s-0.388-0.169-0.404-0.28c-0.012-0.107,0.153-0.234,0.132-0.342c-0.016-0.107-0.169-0.186-0.189-0.293s-0.115-0.186-0.145-0.289
				c-0.032-0.103,0.133-0.268,0.1-0.366c-0.033-0.107-0.248-0.148-0.285-0.252c-0.037-0.103,0.12-0.276,0.087-0.379
				c-0.033-0.104-0.103-0.198-0.132-0.301c-0.033-0.107-0.099-0.206-0.115-0.31c-0.024-0.107-0.173-0.21-0.182-0.317
				c-0.008-0.115,0.116-0.239,0.128-0.347c0.013-0.111,0.07-0.218,0.07-0.325c0.008-0.111-0.07-0.223-0.07-0.33
				c-0.004-0.111-0.091-0.21-0.103-0.317c-0.017-0.115,0.279-0.268,0.264-0.375c-0.025-0.111-0.021-0.235-0.046-0.343
				c-0.028-0.111-0.424-0.111-0.457-0.218c-0.037-0.107,0.115-0.269,0.074-0.376c-0.041-0.099-0.227-0.144-0.272-0.243
				c-0.041-0.103,0.186-0.325,0.141-0.424c-0.05-0.1-0.141-0.182-0.19-0.281c-0.049-0.099-0.078-0.21-0.132-0.309
				c-0.049-0.1-0.403-0.037-0.457-0.136c-0.046-0.083-0.063-0.107-0.189-0.165c-0.137-0.066-0.276-0.454-0.359-0.421
				c-0.106,0.041-0.099,0.388-0.206,0.421c-0.107,0.032-0.251-0.066-0.354-0.042c-0.107,0.033-0.223,0.017-0.33,0.037
				c-0.106,0.021-0.189,0.215-0.297,0.231c-0.106,0.021-0.243-0.169-0.354-0.152c-0.106,0.008-0.214,0.032-0.321,0.041
				c-0.107,0.008-0.214,0.033-0.33,0.041c-0.106,0-0.214,0.26-0.329,0.26c-0.107,0-0.211-0.334-0.322-0.342
				c-0.106,0-0.218,0.049-0.329,0.045c-0.107-0.008-0.215-0.099-0.322-0.107c-0.107-0.008-0.234,0.054-0.351,0.046
				c-0.111,0-0.234-0.046-0.35-0.037c-0.107,0.008-0.207,0.234-0.322,0.251c-0.111,0.009-0.219,0.046-0.329,0.063
				c-0.111,0.021-0.219,0.045-0.33,0.069c-0.115,0.021-0.223,0.033-0.33,0.058c-0.116,0.025-0.289-0.234-0.396-0.206
				c-0.115,0.025-0.161,0.322-0.272,0.351c-0.116,0.025-0.231,0.009-0.347,0.029c-0.111,0.024-0.239-0.041-0.354-0.021
				c-0.107,0.021-0.198,0.16-0.313,0.181c-0.157,0.025-0.388,0.145-0.544,0.116c-0.107-0.021-0.128-0.441-0.239-0.471
				c-0.107-0.024-0.251,0.095-0.358,0.066c-0.107-0.029-0.285,0.202-0.392,0.169c-0.107-0.024-0.214-0.045-0.322-0.066
				c-0.111-0.024-0.186-0.201-0.292-0.223c-0.111-0.016-0.223,0.033-0.334,0.025c-0.116-0.009-0.223-0.313-0.338-0.31
				c-0.111,0.004-0.189,0.313-0.297,0.338c-0.107,0.029-0.165,0.104-0.272,0.153c-0.099,0.041-0.14,0.111-0.231,0.181
				c-0.09,0.063-0.396-0.123-0.47-0.037c-0.074,0.079-0.033,0.265-0.099,0.363c-0.062,0.086-0.017,0.23-0.074,0.338
				c-0.049,0.095-0.132,0.173-0.173,0.28c-0.024,0.054-0.066,0.173-0.111,0.227c-0.082,0.079-0.198,0.116-0.276,0.198
				c-0.074,0.082-0.264,0.07-0.334,0.152c-0.074,0.087-0.206,0.124-0.28,0.215c-0.07,0.091-0.214,0.128-0.285,0.218
				c-0.066,0.091-0.008,0.281-0.066,0.376c-0.066,0.095-0.256,0.111-0.313,0.206c-0.062,0.095-0.049,0.243-0.105,0.342
				s0.155,0.338,0.105,0.438c-0.053,0.099-0.191,0.148-0.239,0.255c-0.048,0.1-0.175,0.165-0.219,0.269
				c-0.043,0.103-0.012,0.234-0.051,0.342c-0.04,0.107-0.233,0.157-0.266,0.264c-0.035,0.107-0.043,0.231-0.074,0.339
				c-0.031,0.106-0.043,0.223-0.068,0.333c-0.027,0.111,0.047,0.239,0.024,0.351c-0.021,0.116-0.245,0.19-0.262,0.306
				c-0.017,0.107,0.241,0.256,0.229,0.366c-0.015,0.111-0.194,0.211-0.204,0.322c-0.008,0.111,0.099,0.234,0.099,0.342
				c-0.004,0.115,0.052,0.227,0.052,0.343c0,0.111-0.008,0.227-0.004,0.334c0.004,0.115,0.031,0.223,0.039,0.338
				c0.008,0.111-0.175,0.239-0.167,0.354c0.008,0.107,0.289,0.156,0.317,0.26c0.031,0.104-0.301,0.313-0.27,0.416
				c0.033,0.104,0.429,0.107,0.451,0.211c0.021,0.111-0.051,0.251-0.056,0.358c-0.004,0.111,0.033,0.21,0.043,0.317
				c0.012,0.111-0.276,0.28-0.25,0.384c0.025,0.106,0.145,0.21,0.188,0.309c0.043,0.104,0.062,0.252,0.122,0.343
				c0.06,0.086,0.198,0.152,0.274,0.23c0.078,0.074,0.173,0.173,0.266,0.231c0.09,0.058,0.268-0.025,0.371,0.016
				c0.099,0.042,0.156,0.272,0.264,0.297c0.099,0.025,0.239-0.004,0.351,0c0.107,0.009,0.227-0.016,0.334-0.016
				c0.107,0,0.222,0.082,0.333,0.074c0.107,0,0.215-0.141,0.326-0.145c0.107,0,0.223,0.082,0.33,0.082s0.214-0.062,0.322-0.062
				c0.107,0.008,0.23-0.161,0.338-0.152c0.107,0.008,0.202,0.268,0.309,0.268c0.107,0,0.235,0.041,0.342,0.033
				c0.107-0.009,0.198-0.194,0.297-0.215c0.107-0.024,0.264,0.104,0.363,0.066c0.103-0.033,0.157-0.206,0.255-0.252
				c0.091-0.045,0.281,0.033,0.371-0.028c0.087-0.058,0.025-0.33,0.107-0.396c0.078-0.07,0.066-0.223,0.14-0.297
				c0.066-0.079,0.425,0.074,0.486-0.017c0.066-0.083-0.124-0.343-0.062-0.438c0.053-0.095,0.276-0.091,0.334-0.182
				c0.053-0.099-0.124-0.329-0.066-0.424c0.058-0.096,0.207-0.133,0.264-0.228c0.054-0.095,0.33-0.062,0.388-0.16
				c0.058-0.095,0-0.252,0.053-0.347c0.054-0.099,0.153-0.169,0.206-0.268c0.054-0.1,0.079-0.206,0.128-0.306
				c0.05-0.099-0.124-0.297-0.074-0.399c0.042-0.1,0.404-0.07,0.45-0.17c0.045-0.099-0.186-0.309-0.153-0.412
				c0.042-0.103,0.124-0.189,0.157-0.292c0.033-0.104,0.256-0.161,0.285-0.26c0.029-0.107,0.053-0.223,0.078-0.33
				c0.021-0.111,0.074-0.223,0.091-0.33s-0.334-0.264-0.322-0.371c0.017-0.111,0.091-0.21,0.095-0.317
				c0.004-0.107,0.227-0.214,0.219-0.325c0-0.107-0.152-0.215-0.157-0.33c-0.008-0.107,0.157-0.235,0.14-0.347
				c-0.012-0.107-0.198-0.193-0.214-0.305c-0.017-0.104,0.223-0.148,0.256-0.264c0.029-0.1-0.248-0.33-0.19-0.434
				c0.05-0.095,0.264-0.103,0.322-0.197s-0.008-0.269,0.049-0.359c0.062-0.099,0.206,0.037,0.251-0.058
				c0.029,0.1,0.144,0.004,0.181,0.104c0.033,0.099,0.152,0.169,0.186,0.268c0.037,0.1-0.28,0.306-0.251,0.404
				c0.028,0.099,0.045,0.189,0.069,0.288c0.025,0.1,0.347,0.145,0.354,0.239C28.527,35.746,28.449,35.861,28.457,35.923z
				 M30.391,17.625c-0.017,0.095,0.083,0.182,0.063,0.281c-0.021,0.095-0.252,0.148-0.276,0.243
				c-0.021,0.095,0.186,0.231,0.173,0.33c-0.013,0.099-0.017,0.177-0.024,0.276c0,0.111-0.124,0.218-0.132,0.334
				c0,0.107-0.054,0.223-0.054,0.33c0,0.111-0.078,0.223-0.074,0.33c0.004,0.107,0.078,0.223,0.078,0.33
				c0,0.116,0.119,0.223,0.124,0.334c0,0.111,0.032,0.223,0.032,0.33c0,0.107,0.009,0.227,0.009,0.334
				c0,0.115-0.124,0.223-0.124,0.334s0.141,0.227,0.132,0.333c0,0.111,0.009,0.223,0,0.338c-0.008,0.12-0.297,0.198-0.321,0.313
				c-0.033,0.119,0.107,0.28,0.07,0.396c-0.037,0.116-0.317,0.157-0.351,0.272c-0.024,0.116-0.033,0.272-0.037,0.388
				c-0.008,0.115,0.186,0.231,0.173,0.33c-0.012,0.115-0.037,0.218-0.054,0.313c-0.024,0.111-0.021,0.231-0.049,0.326
				c-0.041,0.103,0.033,0.285-0.017,0.367c-0.058,0.091-0.269,0.099-0.338,0.173c-0.074,0.074-0.206,0.074-0.297,0.132
				c-0.091,0.053-0.132,0.206-0.235,0.243c-0.091,0.037-0.21,0.029-0.317,0.062c-0.095,0.025-0.165,0.219-0.276,0.239
				c-0.119,0.025-0.26-0.037-0.375-0.025c-0.124,0.017-0.256,0.058-0.363,0.058c-0.124,0-0.206-0.297-0.321-0.326
				c-0.116-0.025-0.363,0.251-0.462,0.193c-0.099-0.058-0.148-0.247-0.231-0.346c-0.074-0.078-0.156-0.189-0.214-0.305
				c-0.053-0.09,0.037-0.264-0.008-0.383c-0.041-0.103-0.321-0.144-0.354-0.268c-0.024-0.107,0.272-0.292,0.256-0.4
				c-0.025-0.107-0.198-0.186-0.214-0.292c-0.017-0.107,0.194-0.248,0.177-0.354c-0.017-0.107-0.359-0.173-0.375-0.285
				c-0.012-0.111-0.074-0.218-0.082-0.326c-0.008-0.107,0.148-0.235,0.14-0.346c-0.008-0.107-0.173-0.21-0.177-0.317
				c-0.008-0.107,0.342-0.244,0.342-0.351c-0.008-0.111-0.107-0.214-0.107-0.322c-0.008-0.111-0.008-0.218-0.017-0.33
				c-0.004-0.116-0.066-0.223-0.066-0.33c-0.008-0.107,0.062-0.223,0.054-0.334s-0.029-0.218-0.037-0.33
				c-0.008-0.099-0.272-0.189-0.272-0.292c0-0.099,0.025-0.207,0.033-0.305c0.008-0.099,0.346-0.177,0.354-0.28
				c0.008-0.099-0.354-0.227-0.346-0.326c0.008-0.12,0.198-0.227,0.198-0.342c0-0.124-0.136-0.243-0.136-0.359
				c0-0.12-0.07-0.255-0.062-0.371c0.008-0.12,0.223-0.223,0.251-0.334c0.025-0.124-0.103-0.313-0.045-0.42
				c0.058-0.107,0.289-0.115,0.326-0.206c0.045-0.124,0.042-0.243,0.054-0.342c0.017-0.124-0.025-0.223-0.066-0.317
				c-0.033-0.099-0.177-0.062-0.276-0.132c-0.083-0.054-0.099-0.198-0.218-0.243c-0.091-0.033-0.186-0.111-0.305-0.141
				c-0.07,0.099-0.074,0.235-0.132,0.33c-0.066,0.103-0.05,0.235-0.099,0.334c-0.054,0.107-0.396,0.099-0.425,0.206
				c-0.033,0.115-0.091,0.264-0.099,0.379c-0.004,0.115,0.383,0.202,0.404,0.321c0.021,0.107-0.144,0.26-0.095,0.371
				c0.041,0.099,0.231,0.124,0.297,0.231c0.058,0.091-0.182,0.305-0.157,0.425c0.021,0.107,0.074,0.194,0.083,0.309
				c0,0.111-0.029,0.214-0.029,0.33c-0.004,0.111,0.342,0.23,0.342,0.346c0,0.115-0.07,0.342-0.062,0.454
				c-0.107,0.008-0.375-0.297-0.482-0.289c-0.107,0.008-0.182,0.346-0.293,0.354c-0.107,0.008-0.227-0.116-0.33-0.107
				c-0.107,0.008-0.218-0.024-0.326-0.017c-0.107,0.008-0.206,0.19-0.313,0.198c-0.107,0.008-0.231-0.177-0.338-0.169
				c-0.107,0.008-0.214,0.033-0.317,0.041c-0.107,0.012-0.21,0.045-0.317,0.058c-0.107,0.013-0.186,0.276-0.289,0.285
				c-0.107,0.017-0.256-0.305-0.355-0.289c-0.111,0.012-0.206,0.083-0.313,0.103c-0.103,0.017-0.223-0.045-0.33-0.029
				c-0.124,0.021-0.223,0.099-0.33,0.107c-0.124,0.017-0.223-0.024-0.33-0.024c-0.127-0.008-0.272,0.198-0.371,0.165
				c-0.115-0.033-0.264-0.095-0.35-0.177c-0.079-0.07-0.177-0.198-0.227-0.313c-0.039-0.095-0.07-0.231-0.09-0.359
				c-0.019-0.099,0.255-0.243,0.247-0.371c0-0.115-0.307-0.194-0.354-0.313c-0.047-0.124-0.062-0.223-0.146-0.305
				c-0.095-0.083-0.173-0.207-0.305-0.182c-0.099,0.017-0.138,0.173-0.253,0.28c-0.078,0.074-0.086,0.219-0.165,0.289
				c-0.076,0.074-0.439-0.14-0.515-0.062c-0.078,0.078-0.047,0.26-0.12,0.333c-0.074,0.079,0.037,0.338-0.035,0.421
				c-0.074,0.074-0.142,0.157-0.214,0.235c-0.074,0.078-0.264,0.045-0.336,0.124c-0.074,0.079-0.095,0.202-0.163,0.285
				c-0.074,0.083-0.371-0.042-0.439,0.037c-0.074,0.083,0.081,0.358,0.013,0.441c-0.068,0.083-0.099,0.198-0.167,0.281
				c-0.07,0.078-0.113,0.181-0.182,0.264c-0.068,0.083-0.4-0.049-0.468,0.033c-0.07,0.079-0.023,0.256-0.091,0.342
				c-0.07,0.079-0.047,0.235-0.115,0.317c-0.052,0.066-0.099,0.103-0.122,0.223c-0.013,0.099,0.06,0.182,0.068,0.289
				c0.01,0.107-0.033,0.194-0.008,0.289c0.031,0.116-0.056,0.272,0.004,0.33c0.078,0.083,0.099,0.214,0.177,0.297
				c0.076,0.083,0.09,0.231,0.167,0.305c0.078,0.083,0.272,0.053,0.348,0.132c0.078,0.083,0.047,0.272,0.13,0.351
				c0.076,0.082,0.219,0.099,0.297,0.181c0.076,0.083,0.369-0.054,0.452,0.025c0.08,0.078,0.09,0.227,0.167,0.309
				c0.079,0.074,0.095,0.223,0.178,0.297c0.08,0.078,0.214,0.099,0.296,0.177c0.081,0.078,0.052,0.276,0.132,0.351
				c0.083,0.083,0.181,0.136,0.264,0.214c0.081,0.074,0.175,0.136,0.262,0.214c0.081,0.074,0.231,0.074,0.317,0.148
				c0.087,0.074,0.031,0.305,0.116,0.379c0.095,0.082,0.358-0.058,0.439,0.008c0.099,0.079,0.091,0.285,0.177,0.338
				c0.113,0.074,0.262,0.017,0.356,0.041c0.12,0.033,0.182-0.024,0.289-0.066c0.087-0.037,0.161-0.074,0.252-0.165
				c0.066-0.07,0.115-0.161,0.189-0.264c0.062-0.083,0.285-0.058,0.354-0.165c0.058-0.083-0.124-0.206-0.062-0.305
				c-0.095-0.09,0.111-0.354,0.013-0.445c-0.099-0.091-0.479,0.074-0.553-0.025c-0.07-0.091-0.062-0.231-0.124-0.322
				c-0.07-0.09-0.165-0.152-0.231-0.235c-0.074-0.091,0.107-0.375,0.033-0.449c-0.07-0.091-0.206-0.124-0.272-0.206
				c-0.078-0.091-0.103-0.207-0.169-0.289c-0.076-0.086-0.198-0.132-0.262-0.206c-0.083-0.09-0.138-0.181-0.198-0.26
				c-0.076-0.099-0.266-0.099-0.313-0.181c-0.06-0.111,0.116-0.214,0.12-0.317c0.004-0.095-0.021-0.14,0.043-0.248
				c0.047-0.078,0.078-0.173,0.159-0.272c0.06-0.074,0.189-0.103,0.268-0.194c0.063-0.074,0.033-0.251,0.111-0.334
				c0.068-0.074,0.208-0.099,0.282-0.189c0.07-0.074,0.095-0.198,0.173-0.285c0.066-0.078,0.008-0.276,0.086-0.363
				c0.021-0.025,0.177,0.128,0.206,0.12c0.091-0.042,0.223-0.058,0.317-0.111c0.099-0.049,0.111-0.251,0.206-0.285
				c0.116-0.049,0.169,0.083,0.256,0.116c0.091,0.024,0.206-0.042,0.28,0.049c0.066,0.079-0.025,0.239,0.025,0.338
				c0.049,0.107,0.321,0.107,0.338,0.207c0.025,0.107,0.165,0.206,0.182,0.313c0.016,0.116-0.33,0.289-0.318,0.396
				c0.017,0.115,0.326,0.189,0.338,0.305c0.012,0.111-0.161,0.243-0.153,0.358c0.013,0.12,0.289,0.206,0.297,0.326
				c0.008,0.116-0.09,0.235-0.083,0.351c0.008,0.115-0.247,0.251-0.239,0.367c0.008,0.116,0.144,0.223,0.152,0.338
				c0.012,0.115-0.037,0.247-0.021,0.354c0.021,0.12,0.066,0.235,0.091,0.346c0.024,0.111,0.289,0.148,0.326,0.256
				c0.037,0.107-0.227,0.367-0.173,0.466s0.363,0.049,0.433,0.136c0.07,0.09,0.107,0.206,0.198,0.28
				c0.078,0.074,0.058,0.313,0.161,0.375c0.091,0.062,0.21,0.128,0.326,0.182c0.099,0.045,0.145,0.115,0.231,0.181
				c0.091,0.07,0.42-0.128,0.495-0.045s0.091,0.239,0.14,0.338c0.05,0.099-0.124,0.264-0.103,0.371
				c0.017,0.107,0.169,0.198,0.153,0.313c-0.017,0.107-0.206,0.157-0.248,0.268c-0.041,0.111,0.091,0.28,0.058,0.396
				c-0.024,0.119-0.276,0.177-0.305,0.288c-0.029,0.115,0.281,0.334,0.239,0.441c-0.041,0.107-0.255,0.145-0.321,0.239
				c-0.07,0.091-0.066,0.292-0.173,0.354c-0.091,0.054-0.293-0.169-0.42-0.145c-0.107,0.021-0.19,0.272-0.322,0.272
				c-0.083,0-0.054,0.103-0.144,0.193c-0.07,0.066-0.408-0.091-0.474-0.008c-0.074,0.082-0.198,0.313-0.264,0.379
				c0.083,0.054,0.437,0.008,0.524,0.07c0.082,0.065,0.193,0.062,0.28,0.111c0.095,0.062,0.086,0.082,0.177,0.078
				c0.107-0.009,0.235,0.169,0.342,0.161c0.107-0.009,0.202-0.231,0.309-0.239c0.107-0.009,0.223,0.082,0.338,0.078
				c0.107-0.009,0.206-0.091,0.322-0.095c0.107-0.009,0.227,0.14,0.338,0.132c0.107-0.013,0.206-0.198,0.313-0.206
				c0.107-0.009,0.239,0.223,0.346,0.214c0.107-0.008,0.227,0.083,0.334,0.074c0.107-0.008,0.219,0.005,0.326-0.004
				c0.107-0.008,0.223-0.024,0.33-0.033c0.107-0.008,0.189-0.366,0.296-0.375c0.107-0.008,0.227,0.05,0.334,0.041
				c0.107-0.008,0.214-0.028,0.326-0.037c0.111-0.008,0.239,0.235,0.347,0.228c0.115-0.009,0.198-0.339,0.305-0.347
				c0.107-0.008,0.23,0.173,0.341,0.165c0.107-0.009,0.235,0.145,0.343,0.136c0.107-0.008,0.189-0.358,0.297-0.367
				c0.107-0.008,0.223,0.107,0.334,0.091c0.107-0.012,0.218,0.005,0.325-0.004c0.107-0.008,0.206-0.161,0.313-0.169
				s0.223,0.058,0.338,0.05c0.107-0.009,0.215,0.008,0.33-0.005c0.107-0.008,0.215-0.045,0.321-0.053
				c0.107-0.013,0.223-0.017,0.33-0.025c0.107-0.008,0.23,0.132,0.338,0.124c0.107-0.013,0.198-0.231,0.31-0.239
				c0.107-0.008,0.235,0.165,0.342,0.156c0.107-0.008,0.223-0.016,0.33-0.028c0.107-0.009,0.198-0.227,0.305-0.239
				c0.107-0.013,0.219-0.008,0.326-0.021c0.132-0.009,0.276,0.173,0.358,0.132c0.124-0.058,0.161-0.178,0.182-0.28
				c0.017-0.091,0.124-0.264,0.05-0.388c-0.054-0.082-0.157-0.182-0.256-0.272c-0.083-0.078-0.264-0.049-0.342-0.132
				c-0.083-0.082-0.17-0.156-0.244-0.243c-0.082-0.086-0.082-0.234-0.164-0.317c-0.079-0.099-0.124-0.206-0.186-0.289
				c-0.079-0.099-0.4-0.008-0.462-0.095c-0.07-0.111-0.07-0.272-0.107-0.371c-0.045-0.111,0.145-0.268,0.145-0.384
				c-0.009-0.107,0.049-0.173,0.082-0.289c0.033-0.099-0.091-0.264-0.037-0.379c0.046-0.099,0.301-0.079,0.367-0.19
				c0.058-0.086-0.173-0.363-0.107-0.466c0.066-0.095,0.317-0.074,0.371-0.177c0.05-0.099,0.198-0.173,0.239-0.28
				c0.037-0.107-0.239-0.317-0.206-0.429c0.028-0.111,0.223-0.173,0.239-0.289c0.017-0.111,0.132-0.227,0.132-0.334
				c0.008-0.111-0.33-0.235-0.326-0.342c0.005-0.115,0.111-0.218,0.111-0.33c0.009-0.111-0.024-0.219-0.024-0.33
				s-0.041-0.223-0.033-0.33c0-0.116,0.013-0.223,0.013-0.334s0.119-0.219,0.119-0.33s0.206-0.218,0.206-0.334
				c0-0.107-0.021-0.214-0.021-0.33c0-0.111-0.054-0.219-0.054-0.33s-0.127-0.218-0.127-0.33c0-0.116,0.028-0.223,0.028-0.33
				c0-0.115,0.206-0.227,0.206-0.334c0-0.111-0.305-0.218-0.305-0.334c0-0.107,0.086-0.222,0.086-0.33s0.029-0.223,0.029-0.334
				c-0.115-0.004-0.235,0.095-0.334,0.091c-0.115-0.004-0.23,0.054-0.33,0.054c-0.119-0.008-0.218-0.19-0.317-0.198
				c-0.115-0.016-0.23-0.008-0.321-0.029c-0.115-0.024-0.182-0.152-0.269-0.198c-0.099-0.045-0.251,0.004-0.333-0.07
				c-0.074-0.062,0.058-0.305-0.017-0.404c-0.058-0.074-0.165-0.115-0.228-0.214c-0.053-0.083-0.387,0-0.449-0.107
				C30.354,17.877,30.453,17.725,30.391,17.625z M24.718,11.66c-0.091,0.07-0.14,0.239-0.223,0.297
				c-0.091,0.07-0.305-0.042-0.388,0.016c-0.09,0.07-0.033,0.305-0.107,0.371c-0.091,0.07-0.153,0.132-0.227,0.206
				c-0.062,0.062-0.193,0.058-0.222,0.148c-0.029,0.099-0.095,0.198-0.083,0.281c0.012,0.09,0.383,0.358,0.482,0.321
				c0.119-0.041,0.189-0.132,0.284-0.132c0.12-0.008,0.26-0.099,0.351-0.058c0.099,0.041,0.231,0.107,0.313,0.189
				c0.07,0.074,0.165,0.173,0.23,0.26c0.066,0.091,0.017,0.26,0.074,0.351c0.066,0.091,0.244,0.099,0.313,0.189
				c0.066,0.091,0.14,0.165,0.214,0.243c0.074,0.087-0.041,0.351,0.037,0.433c0.083,0.074,0.289,0.017,0.375,0.083
				c0.083,0.07,0.033,0.346,0.128,0.404c0.095,0.062,0.219,0.107,0.317,0.157c0.099,0.049,0.289-0.083,0.396-0.041
				c0.107,0.045,0.206,0.083,0.313,0.115c0.107,0.029,0.223,0.017,0.33,0.037c0.111,0.021,0.227-0.107,0.342-0.095
				c0.111,0.008,0.202,0.177,0.317,0.177s0.223,0.078,0.338,0.07c0.124-0.008,0.215-0.145,0.33-0.182
				c0.111-0.033,0.239-0.033,0.347-0.083s0.14-0.255,0.251-0.309c0.107-0.054,0.26-0.029,0.367-0.083s0.223-0.128,0.334-0.169
				c0.111-0.033,0.313,0.194,0.416,0.152c0.107-0.045,0.063-0.408,0.157-0.461c0.107-0.054,0.251,0,0.347-0.062
				c0.099-0.058,0.181-0.124,0.271-0.189c0.091-0.07,0.272-0.025,0.354-0.107c0.091-0.074-0.024-0.334,0.054-0.412
				c0.078-0.091,0.408,0.041,0.475-0.05c0.065-0.09,0.008-0.276,0.065-0.375s0.313-0.099,0.363-0.202
				c0.049-0.103-0.219-0.338-0.182-0.445c0.041-0.107,0.017-0.214,0.041-0.33c0.029-0.107,0.219-0.182,0.231-0.289
				c0.016-0.116-0.124-0.235-0.124-0.346c0.008-0.111,0.371-0.227,0.362-0.338c0-0.115-0.106-0.231-0.119-0.346
				c-0.017-0.111-0.029-0.231-0.054-0.342c-0.024-0.107-0.107-0.21-0.145-0.326c-0.032-0.107-0.004-0.243-0.054-0.351
				c-0.041-0.103-0.144-0.251-0.197-0.358c-0.115-0.008-0.313,0.223-0.429,0.206c-0.12-0.008-0.235-0.045-0.351-0.058
				c-0.12-0.013-0.198-0.354-0.317-0.371c-0.115-0.012-0.269,0.338-0.384,0.33c-0.119-0.008-0.219-0.198-0.334-0.214
				c-0.115-0.008-0.239,0.116-0.354,0.107s-0.23,0.062-0.346,0.062c-0.116-0.004-0.231-0.21-0.347-0.21
				c-0.107,0-0.206,0.194-0.317,0.198c-0.111,0.008-0.235-0.189-0.343-0.177c-0.106,0.012-0.206,0.062-0.321,0.079
				c-0.107,0.012-0.21,0.066-0.317,0.082c-0.107,0.017-0.193,0.165-0.301,0.182c-0.107,0.021-0.231-0.083-0.346-0.07
				c-0.107,0.017-0.223-0.016-0.33-0.004c-0.107,0.012-0.21,0.103-0.318,0.111c-0.103,0.008-0.206,0.099-0.313,0.103
				c-0.107,0.004-0.227-0.305-0.334-0.301c-0.107,0.004-0.206-0.025-0.313-0.021c-0.107,0.004-0.206,0.388-0.305,0.388
				c-0.107,0.008-0.218-0.189-0.326-0.186c-0.107,0.004-0.202,0.161-0.309,0.169c-0.107,0.008-0.231-0.289-0.338-0.276
				c-0.107,0.008-0.207,0.062-0.313,0.078c-0.099,0.008-0.214,0-0.322,0.017c-0.099,0.017-0.136,0.371-0.239,0.396
				c-0.124,0.029-0.239,0.033-0.338,0.054c-0.124,0.029-0.321-0.317-0.429-0.292c-0.12,0.033-0.144,0.375-0.243,0.412
				c-0.12,0.037-0.272-0.054-0.367-0.017c-0.115,0.054-0.247,0.074-0.33,0.132c-0.099,0.07-0.041,0.264-0.107,0.359
				c-0.062,0.091-0.284,0.099-0.321,0.214c-0.037,0.099-0.05,0.219-0.074,0.346c-0.025,0.103-0.017,0.223-0.033,0.342
				c-0.016,0.103,0.223,0.248,0.206,0.371c-0.008,0.107-0.354,0.186-0.367,0.305c-0.012,0.107,0.033,0.231,0.021,0.354
				c-0.012,0.107-0.111,0.181-0.14,0.289c-0.025,0.107,0.012,0.214-0.025,0.322c-0.033,0.099-0.115,0.173-0.161,0.272
				s0.107,0.289,0.054,0.388c-0.049,0.095-0.091,0.202-0.145,0.296c-0.053,0.095-0.107,0.194-0.161,0.289
				c-0.066,0.09-0.132,0.181-0.189,0.264c-0.062,0.091-0.363,0.017-0.425,0.107c-0.07,0.099,0.095,0.351,0.029,0.445
				c-0.066,0.099-0.161,0.169-0.223,0.268c-0.058,0.103-0.198,0.161-0.239,0.268c-0.049,0.107,0.037,0.248,0.017,0.359
				s0.074,0.198,0.083,0.317c0.008,0.115-0.367,0.305-0.328,0.42c0.035,0.107,0.229,0.173,0.287,0.289
				c0.062,0.107,0.35,0.083,0.412,0.189c0.054,0.107,0.124,0.214,0.182,0.322c0.053,0.099-0.029,0.289,0.033,0.396
				c0.054,0.107,0.173,0.181,0.235,0.289c0.054,0.107-0.078,0.429-0.016,0.544c0.103-0.017,0.284-0.309,0.383-0.33
				c0.107-0.017,0.206-0.091,0.309-0.107s0.206-0.07,0.309-0.091c0.103-0.016,0.264,0.305,0.371,0.289
				c0.107-0.021,0.19-0.181,0.297-0.198c0.107-0.021,0.19-0.148,0.297-0.165c0.107-0.016,0.223,0,0.326-0.016
				c0.107-0.017,0.198-0.116,0.301-0.136c0.107-0.017,0.156,0.054,0.264,0.037c0.017-0.115,0.152-0.148,0.169-0.264
				c0.021-0.116,0.111-0.214,0.136-0.326c0.017-0.111,0.127-0.21,0.144-0.326c0.017-0.116-0.12-0.256-0.103-0.367
				s0.186-0.202,0.206-0.317c0.017-0.107-0.049-0.239-0.033-0.351c0.021-0.111-0.256-0.268-0.239-0.387
				c0.017-0.111,0.132-0.21,0.152-0.322c0.017-0.111,0.128-0.21,0.141-0.322c0.021-0.111-0.042-0.235-0.025-0.35
				c0.017-0.116,0.189-0.219,0.186-0.317c-0.008-0.116-0.049-0.244-0.091-0.338c-0.041-0.099-0.132-0.202-0.21-0.28
				c-0.074-0.07-0.218-0.045-0.326-0.099c-0.09-0.045-0.136-0.28-0.251-0.309c-0.099-0.025-0.28,0.202-0.375,0.165
				c-0.099-0.037-0.12-0.235-0.21-0.289c-0.09-0.05-0.243-0.017-0.317-0.079c-0.078-0.07-0.202-0.127-0.255-0.21
				c-0.058-0.087-0.099-0.214-0.128-0.313c-0.025-0.099-0.062-0.223-0.054-0.33c0-0.099,0.206-0.173,0.235-0.289
				c0.024-0.099-0.136-0.33-0.054-0.421c0.066-0.074,0.396,0.14,0.495,0.079c0.083-0.054,0-0.441,0.107-0.487
				c0.099-0.041,0.247,0.004,0.354-0.024c0.103-0.029,0.218-0.091,0.326-0.103c0.111-0.017,0.243,0.28,0.354,0.28
				s0.202-0.079,0.313-0.066C24.455,11.73,24.611,11.631,24.718,11.66z M33.087,8.477c-0.099-0.008-0.189,0.124-0.297,0.107
				c-0.099-0.008-0.181-0.239-0.28-0.248c-0.115-0.008-0.243,0.202-0.342,0.19c-0.111-0.017-0.23-0.042-0.326-0.07
				c-0.106-0.033-0.169-0.194-0.255-0.243c-0.091-0.058-0.137-0.157-0.206-0.231c-0.066-0.083-0.046-0.181-0.091-0.28
				c-0.037-0.091-0.128-0.152-0.145-0.264c-0.013-0.095-0.145-0.198-0.136-0.31c0-0.099-0.017-0.214,0-0.326
				c0.008-0.107,0.008-0.206,0.017-0.313c0.012-0.107,0.144-0.207,0.148-0.313c0.004-0.107-0.137-0.214-0.133-0.322
				c0.005-0.107-0.008-0.21-0.008-0.317c0-0.107,0.272-0.214,0.264-0.321c0-0.107-0.182-0.21-0.189-0.318
				c0-0.107,0.251-0.214,0.251-0.321c0-0.107-0.024-0.214-0.024-0.322c0-0.107-0.197-0.214-0.197-0.321
				c0.004-0.107,0.004-0.207-0.005-0.305c-0.008-0.107-0.062-0.198-0.086-0.293c-0.029-0.107-0.182-0.12-0.228-0.206
				c-0.053-0.095,0.037-0.243-0.041-0.305c-0.074-0.066-0.123-0.186-0.227-0.218c-0.091-0.033-0.206,0.058-0.317,0.049
				c-0.095-0.004-0.189-0.045-0.301-0.033c-0.111,0.012-0.202,0.198-0.317,0.21c-0.116,0.013-0.239-0.062-0.351-0.045
				c-0.111,0.017-0.219,0.062-0.334,0.083c-0.115,0.008-0.264-0.255-0.375-0.243c-0.111,0.017-0.178,0.375-0.293,0.396
				c-0.115,0.016-0.239-0.087-0.354-0.074c-0.107,0.021-0.223,0.037-0.334,0.045c-0.111,0.021-0.243-0.116-0.358-0.099
				c-0.107,0.017-0.19,0.289-0.297,0.297c-0.116,0.021-0.276-0.297-0.388-0.28c-0.115,0.016-0.206,0.181-0.313,0.202
				c-0.115,0.017-0.259-0.193-0.371-0.177c-0.111,0.017-0.178,0.363-0.289,0.384c-0.111,0.016-0.214,0.086-0.33,0.103
				c-0.115,0.016-0.251-0.132-0.363-0.116s-0.202,0.182-0.313,0.202c-0.111,0.017-0.28-0.326-0.392-0.309
				c-0.111,0.021-0.21,0.127-0.321,0.144c-0.12,0.017-0.244,0.045-0.342,0.083c-0.107,0.045-0.198,0.152-0.28,0.219
				c-0.083,0.07-0.235,0.132-0.289,0.23c-0.05,0.087-0.087,0.235-0.107,0.347c-0.025,0.103,0.231,0.231,0.231,0.346
				c0,0.107-0.012,0.198,0.004,0.313c0.017,0.107-0.297,0.264-0.276,0.371c0.024,0.107,0.4,0.148,0.42,0.259
				c0.017,0.107-0.145,0.244-0.128,0.347c0.021,0.103,0.169,0.189,0.186,0.297c0.017,0.111,0.107,0.202,0.124,0.309
				c0.017,0.107-0.173,0.248-0.157,0.354c0.021,0.107,0.219,0.189,0.231,0.297c0.013,0.099-0.177,0.223-0.165,0.326
				c0.016,0.099,0.07,0.198,0.078,0.297c0.012,0.103,0.054,0.202,0.062,0.301c0.004,0.107,0.132,0.231,0.12,0.33
				c-0.017,0.107-0.169,0.198-0.215,0.284c-0.058,0.103-0.185,0.169-0.292,0.244c-0.095,0.074-0.173,0.198-0.289,0.255
				c-0.107,0.049-0.194,0.177-0.305,0.231c-0.115,0.049-0.454,0-0.552,0.054c0.107-0.017,0.412,0.124,0.52,0.107
				c0.107-0.017,0.161-0.412,0.272-0.429c0.115-0.021,0.255,0.161,0.363,0.145c0.111-0.017,0.198-0.19,0.309-0.207
				c0.111-0.016,0.268,0.268,0.379,0.256c0.111-0.017,0.214-0.078,0.326-0.091c0.111-0.017,0.223-0.004,0.338-0.017
				c0.107-0.016,0.173-0.371,0.289-0.387c0.107-0.017,0.223-0.004,0.338-0.017c0.111-0.017,0.272,0.351,0.379,0.338
				c0.115-0.012,0.189-0.346,0.296-0.363c0.116-0.012,0.239,0.107,0.351,0.099c0.111-0.012,0.227,0.017,0.342,0.008
				c0.107-0.017,0.206-0.198,0.313-0.206c0.115-0.017,0.247,0.177,0.358,0.165c0.111-0.008,0.227-0.033,0.334-0.041
				c0.116-0.008,0.223-0.045,0.334-0.054s0.202-0.276,0.313-0.284c0.111-0.008,0.251,0.313,0.358,0.305
				c0.115-0.008,0.223-0.074,0.334-0.082c0.111-0.008,0.227,0.07,0.342,0.062c0.107-0.008,0.215-0.083,0.33-0.086
				c0.107-0.004,0.227,0.033,0.338,0.033c0.111-0.008,0.215-0.23,0.33-0.235c0.107-0.004,0.223-0.025,0.33-0.029
				c0.115-0.004,0.227-0.017,0.338-0.025c0.111,0,0.223,0.008,0.338,0.008s0.23,0.28,0.347,0.28c0.111,0,0.218-0.289,0.329-0.289
				c0.116-0.008,0.223,0.042,0.339,0.042c0.106,0,0.223,0.095,0.334,0.095s0.223-0.12,0.342-0.12
				C32.89,8.411,32.976,8.477,33.087,8.477z M35.297,16.307c-0.132,0.086-0.165,0.202-0.297,0.292
				c0.017,0.091-0.169,0.136-0.156,0.235c0.013,0.095,0.247,0.161,0.255,0.26c0.017,0.099,0.033,0.198,0.042,0.289
				c0.012,0.099-0.104,0.206-0.091,0.305c0.008,0.091-0.021,0.206,0,0.305s-0.033,0.198-0.025,0.289
				c0.009,0.115,0.083,0.181,0.033,0.251c-0.065,0.099-0.004,0.251-0.041,0.342c-0.041,0.107-0.033,0.198-0.046,0.297
				c-0.012,0.115,0.005,0.186,0.029,0.289c0.017,0.107-0.069,0.231-0.024,0.33c0.049,0.099,0.223,0.107,0.284,0.198
				c0.062,0.082,0.128,0.148,0.202,0.23c0.078,0.087-0.05,0.347,0.013,0.433c0.074,0.095,0.284,0.078,0.342,0.169
				c0.065,0.099-0.115,0.305-0.07,0.408c0.046,0.107,0.091,0.173,0.111,0.28c0.024,0.111,0.223,0.194,0.219,0.305
				c-0.009,0.107-0.033,0.227-0.07,0.334c-0.037,0.103-0.054,0.231-0.115,0.33c-0.05,0.091-0.009,0.281-0.091,0.375
				c-0.066,0.083-0.268,0.07-0.354,0.152c-0.074,0.074-0.202,0.091-0.264,0.173c-0.066,0.083-0.037,0.231-0.1,0.313
				c-0.053,0.091-0.144,0.148-0.197,0.235c-0.054,0.091,0.046,0.26,0,0.35c-0.05,0.091-0.173,0.136-0.223,0.227
				c-0.041,0.086-0.017,0.161-0.008,0.284c0.008,0.141-0.194,0.388-0.124,0.445c0.066,0.058,0.297-0.227,0.433-0.223
				c0.136,0,0.206,0.12,0.272,0.058c0.078-0.074,0.152-0.153,0.23-0.231c0.078-0.074,0.264-0.05,0.342-0.124
				c0.074-0.078-0.032-0.338,0.046-0.412c0.078-0.078,0.396,0.083,0.466,0.004c0.074-0.079,0.045-0.264,0.124-0.342
				c0.074-0.074,0.317,0.008,0.396-0.074c0.074-0.074-0.091-0.388-0.017-0.466c0.082-0.079,0.119-0.194,0.189-0.272
				c0.083-0.078,0.28-0.037,0.351-0.119c0.078-0.079,0.037-0.264,0.12-0.347c0.074-0.074,0.412,0.091,0.481,0.017
				c0.079-0.078,0.087-0.223,0.165-0.301c0.079-0.083,0.153-0.157,0.231-0.235c0.078-0.082,0.111-0.198,0.189-0.28
				c0.078-0.078,0.206-0.107,0.28-0.186c0.07-0.083,0.141-0.169,0.215-0.251c0.069-0.083-0.046-0.338,0.037-0.417
				c0.074-0.086,0.14-0.144,0.197-0.251c0.05-0.099,0.396-0.07,0.449-0.181c0.046-0.107-0.26-0.272-0.202-0.379
				c-0.086-0.074-0.008-0.194-0.09-0.268c-0.087-0.07-0.256-0.041-0.347-0.115c-0.082-0.07-0.219-0.091-0.305-0.161
				c-0.083-0.074-0.037-0.305-0.124-0.375c-0.087-0.074-0.293-0.004-0.379-0.078c-0.083-0.074-0.037-0.305-0.124-0.379
				s-0.198-0.115-0.284-0.189c-0.087-0.074-0.194-0.116-0.285-0.19c-0.082-0.074-0.255-0.041-0.342-0.115s-0.095-0.235-0.182-0.31
				c-0.087-0.07-0.145-0.177-0.227-0.251c-0.087-0.074-0.223-0.086-0.305-0.161c-0.087-0.074-0.223-0.086-0.313-0.152
				c-0.083-0.074,0.032-0.388-0.05-0.458c-0.082-0.074-0.148-0.169-0.235-0.244c-0.086-0.07-0.416,0.153-0.503,0.079
				C35.347,16.558,35.388,16.376,35.297,16.307z M27.431,19.073c-0.049,0.058-0.066,0.214-0.14,0.297
				c-0.058,0.062-0.28-0.012-0.351,0.062c-0.062,0.07,0.054,0.284-0.008,0.358c-0.07,0.091-0.128,0.173-0.194,0.26
				c-0.07,0.091-0.231,0.107-0.276,0.202c-0.054,0.103-0.145,0.198-0.153,0.301s-0.054,0.268,0,0.375
				c0.042,0.086,0.182,0.148,0.28,0.239c0.066,0.062,0.223,0.025,0.33,0.099c0.066,0.033,0.14,0.214,0.136,0.363
				c-0.004,0.099,0,0.214-0.012,0.326c-0.017,0.111-0.148,0.21-0.14,0.309c0,0.095,0.145,0.207,0.14,0.305
				c-0.004,0.107,0.004,0.206,0,0.305c-0.004,0.107-0.28,0.198-0.28,0.297c0,0.107,0.186,0.206,0.189,0.305
				c0.008,0.099-0.23,0.247-0.21,0.342c0.021,0.099,0.086,0.222,0.124,0.317c0.037,0.09,0.305,0.066,0.433,0.124
				c0.099,0.045,0.206,0.083,0.334,0.107c0.111,0.024,0.235,0.008,0.35,0.016c0.124,0.017,0.239-0.115,0.351-0.115
				c0.062,0,0.086,0.083,0.16-0.062c0.042-0.095,0.161-0.173,0.206-0.28c0.042-0.111-0.016-0.268,0.025-0.359
				c0.041-0.09,0.115-0.161,0.148-0.259c0.033-0.099-0.111-0.227-0.095-0.326c0.021-0.107,0.128-0.198,0.144-0.297
				c0.025-0.107,0.013-0.223,0.029-0.326c0.021-0.107,0.321-0.161,0.342-0.268c0.017-0.107-0.305-0.272-0.288-0.379
				c0.017-0.107,0.152-0.189,0.173-0.297c0.017-0.107,0.033-0.21,0.054-0.322c0.017-0.107,0.186-0.186,0.202-0.289
				c0.017-0.107-0.223-0.255-0.202-0.363c0.017-0.107,0.367-0.165,0.384-0.272c0.017-0.107-0.124-0.235-0.107-0.342
				c0.008-0.107,0.136-0.358,0.05-0.478c-0.074-0.107-0.438-0.008-0.516-0.099c-0.07-0.078-0.182-0.124-0.243-0.202
				c-0.074-0.082-0.009-0.272-0.058-0.354c-0.063-0.099-0.256-0.177-0.269-0.272c-0.008-0.095,0.334-0.095,0.404-0.189
				c0.054-0.066,0.029-0.165,0.128-0.231c0.074-0.054,0.156-0.087,0.26-0.14c0.074-0.033,0.111-0.251,0.128-0.408
				c0.008-0.107,0.082-0.231,0.086-0.351c0.005-0.124-0.032-0.33-0.021-0.429c-0.103-0.008-0.313,0.206-0.416,0.189
				c-0.104-0.008-0.206-0.045-0.317-0.058c-0.1-0.017-0.174-0.358-0.276-0.367c-0.107-0.008-0.235,0.35-0.334,0.35
				c-0.107-0.008-0.214-0.181-0.313-0.173c-0.107,0.008-0.182,0.157-0.28,0.181c-0.107,0.033-0.132,0.136-0.244,0.219
				c-0.095,0.07-0.313,0-0.392,0.095c-0.083,0.095,0.008,0.292-0.053,0.396c-0.066,0.115-0.297,0.148-0.318,0.255
				c-0.008,0.095,0.054,0.206,0.116,0.313c0.041,0.083,0.136,0.148,0.206,0.243c0.058,0.078,0.231,0.07,0.305,0.161
				c0.066,0.074,0.041,0.239,0.107,0.326C27.299,18.875,27.365,18.99,27.431,19.073z M20.521,48.064c0,0.025,0.053,0.1,0.082,0.198
				c0.033,0.099-0.14,0.26-0.107,0.358c0.033,0.1,0.276,0.12,0.305,0.219c0.037,0.099,0.074,0.193,0.107,0.289
				c0.037,0.099-0.049,0.23-0.017,0.329c0.087-0.041,0.207-0.033,0.313-0.065c0.107-0.033,0.239,0,0.338-0.041
				c0.107-0.037,0.193-0.153,0.28-0.207c0.111-0.058,0.099-0.201,0.14-0.288c0.049-0.107,0.066-0.223,0.107-0.326
				c0.042-0.103,0.074-0.214,0.124-0.317c0.045-0.103,0.198-0.165,0.243-0.268c0.041-0.104-0.045-0.26-0.013-0.367
				c0.045-0.107,0.074-0.214,0.12-0.321s0.334-0.115,0.375-0.223c0.037-0.107-0.099-0.272-0.058-0.38
				c0.042-0.111,0.313-0.132,0.355-0.238c0.037-0.107,0.049-0.223,0.082-0.339c0.037-0.106-0.119-0.275-0.082-0.387
				c0.033-0.107,0.074-0.215,0.099-0.322c0.037-0.106,0.029-0.227,0.058-0.334c0.033-0.106-0.074-0.251-0.049-0.358
				c0.033-0.124,0.19-0.169,0.165-0.272c-0.025-0.115-0.017-0.247-0.091-0.329c-0.074-0.074-0.227-0.046-0.334-0.091
				c-0.099-0.046-0.177-0.115-0.297-0.124c-0.107-0.017-0.177,0.157-0.297,0.178c-0.099,0.021-0.231-0.054-0.338-0.046
				c-0.103,0.009-0.21,0.041-0.317,0.05c-0.107,0.008-0.243-0.264-0.346-0.247c-0.107,0.016-0.111,0.379-0.207,0.412
				c-0.099,0.037-0.202-0.041-0.28,0.033c-0.074,0.069-0.107,0.123-0.157,0.23c-0.033,0.082-0.206,0.136-0.223,0.256
				c-0.016,0.111,0.223,0.247,0.214,0.362c-0.016,0.111-0.358,0.189-0.367,0.297c-0.008,0.115,0.136,0.235,0.128,0.347
				s-0.239,0.21-0.243,0.321c-0.004,0.115,0.326,0.239,0.321,0.347c-0.004,0.111,0.045,0.223,0.045,0.334
				c-0.008,0.111-0.181,0.218-0.181,0.334c0,0.106,0.152,0.223,0.148,0.338c-0.004,0.111-0.363,0.21-0.371,0.321
				C20.299,47.825,20.529,47.945,20.521,48.064z M33.768,45.971c0.004-0.116-0.078-0.235-0.07-0.343
				c0-0.123,0.223-0.234,0.223-0.342c0-0.124-0.223-0.239-0.223-0.343c-0.008-0.132-0.017-0.23-0.028-0.329
				c-0.017-0.145,0.078-0.26,0.028-0.343c-0.062-0.099-0.14-0.206-0.264-0.234c-0.091-0.017-0.223-0.095-0.358-0.087
				c-0.1,0.008-0.211,0.095-0.338,0.107c-0.104,0.017-0.202,0.152-0.326,0.169c-0.078,0.013-0.182,0.037-0.268,0.037
				c-0.1,0-0.107-0.009-0.161,0.037c-0.082,0.07-0.264,0.05-0.354,0.132s-0.074,0.26-0.141,0.342
				c-0.091,0.107-0.115,0.107-0.106,0.206c0.008,0.107-0.248,0.252-0.235,0.363c0.013,0.115,0.206,0.206,0.219,0.321
				c0.012,0.115-0.227,0.256-0.215,0.371c0.013,0.115,0.05,0.223,0.066,0.338c0.017,0.107,0.23,0.198,0.243,0.313
				c0.017,0.111,0.028,0.227,0.045,0.338s0.066,0.219,0.083,0.33c0.017,0.115,0.173,0.206,0.197,0.313
				c0.017,0.115-0.128,0.252-0.111,0.363c0.021,0.111-0.041,0.238-0.021,0.346c0.021,0.115,0.148,0.206,0.174,0.321
				c0.021,0.111-0.009,0.231,0.016,0.343c0.017,0.087,0.202,0.07,0.281,0.165c0.065,0.086,0.058,0.202,0.14,0.268
				c0.111,0.091,0.115,0.091,0.182,0.074c0.086-0.021,0.271,0.215,0.371,0.169c0.082-0.045-0.009-0.392,0.074-0.449
				c0.082-0.054,0.206-0.008,0.271-0.074c0.074-0.082,0.104-0.124,0.124-0.206c0.017-0.115,0.189-0.198,0.215-0.305
				c0.016-0.116-0.215-0.269-0.198-0.38c0.017-0.115,0.371-0.173,0.388-0.284c0.017-0.115-0.115-0.252-0.1-0.358
				c0.017-0.12,0.256-0.198,0.269-0.313s-0.306-0.272-0.293-0.38c0.017-0.115-0.024-0.234-0.013-0.342
				c0.013-0.12,0.194-0.215,0.207-0.317C33.768,46.185,33.755,46.069,33.768,45.971z M33.326,13.618
				c-0.074,0.091-0.062,0.219-0.132,0.305c-0.082,0.091-0.317,0.033-0.396,0.12c-0.074,0.086,0.017,0.322-0.054,0.408
				c-0.078,0.086-0.145,0.177-0.219,0.264c-0.074,0.087-0.247,0.095-0.321,0.186c-0.07,0.091-0.182,0.145-0.252,0.235
				c-0.069,0.09-0.197,0.144-0.268,0.235c-0.066,0.091-0.058,0.231-0.111,0.321c-0.054,0.099,0.021,0.244-0.017,0.342
				c-0.037,0.103-0.037,0.198-0.054,0.305c-0.017,0.107-0.008,0.194-0.017,0.301c0,0.107-0.119,0.21-0.099,0.318
				c0.017,0.103,0.178,0.169,0.206,0.272c0.033,0.099,0.074,0.177,0.124,0.276c0.045,0.09-0.141,0.317-0.078,0.408
				c0.045,0.07,0.26,0.025,0.358,0.079c0.091,0.054,0.099,0.334,0.197,0.363c0.107,0.033,0.297,0.025,0.388,0.008
				c0.087-0.013,0.157-0.227,0.265-0.248c0.099-0.017,0.197-0.033,0.296-0.058c0.104-0.025,0.186-0.083,0.281-0.115
				c0.106-0.033,0.123-0.19,0.197-0.231c0.115-0.062,0.248,0.041,0.272-0.042c0.024-0.107,0.136-0.198,0.16-0.305
				c0.029-0.107-0.053-0.243-0.028-0.35c0.024-0.111,0.091-0.21,0.111-0.317c0.021-0.116-0.136-0.244-0.119-0.355
				c0.012-0.111,0.11-0.206,0.115-0.317c0.004-0.111-0.025-0.214-0.033-0.326c0-0.115,0.272-0.247,0.26-0.358
				s-0.375-0.153-0.408-0.26c-0.024-0.107,0.058-0.235,0.017-0.342c-0.037-0.103-0.083-0.194-0.132-0.297
				c-0.05-0.099,0.024-0.268-0.041-0.367c-0.059-0.091-0.33-0.021-0.404-0.107C33.326,13.878,33.409,13.697,33.326,13.618z
				 M21.54,28.638c0.111,0,0.186-0.095,0.293-0.111c0.107-0.012,0.255,0.182,0.354,0.152c0.107-0.024,0.14-0.268,0.239-0.305
				c0.107-0.041,0.19-0.082,0.281-0.136c0.099-0.054,0.247-0.004,0.321-0.07c0.091-0.074,0.21-0.115,0.272-0.198
				c0.066-0.091,0.198-0.181,0.223-0.28c0.025-0.107-0.049-0.26-0.082-0.363c-0.033-0.095-0.194-0.132-0.276-0.231
				c-0.07-0.083-0.161-0.132-0.26-0.206c-0.091-0.07-0.182-0.107-0.28-0.152c-0.116-0.054-0.177-0.202-0.28-0.21
				c-0.124-0.008-0.231,0.14-0.347,0.148c-0.124,0.017-0.206,0.045-0.313,0.083c-0.116,0.045-0.347-0.136-0.437-0.066
				c-0.095,0.074-0.05,0.289-0.107,0.396c-0.058,0.099-0.338,0.148-0.363,0.28c-0.017,0.107,0,0.272,0.017,0.404
				c0.008,0.115,0.251,0.198,0.313,0.305c0.066,0.107,0.14,0.206,0.214,0.297C21.403,28.481,21.486,28.563,21.54,28.638z
				 M35.182,26.692c-0.091-0.066-0.219-0.042-0.305-0.107c-0.091-0.074-0.029-0.313-0.111-0.379
				c-0.091-0.078-0.317,0.017-0.396-0.049c-0.095-0.083-0.169-0.14-0.251-0.189c-0.124-0.091-0.145-0.235-0.223-0.207
				c-0.107,0.033-0.247,0.062-0.347,0.148c-0.091,0.074-0.239,0.124-0.321,0.223c-0.078,0.095-0.099,0.239-0.182,0.338
				c-0.078,0.099-0.049,0.223-0.132,0.313c0.083,0.062,0.157,0.066,0.23,0.148c0.074,0.079,0.157,0.148,0.228,0.219
				c0.082,0.083,0.069,0.243,0.152,0.301c0.099,0.07,0.198-0.029,0.297-0.029s0.132-0.029,0.243-0.083
				c0.087-0.045,0.317,0.12,0.416,0.045c0.083-0.058,0.058-0.272,0.153-0.346c0.078-0.066,0.321,0.07,0.416,0
				C35.141,26.98,35.082,26.758,35.182,26.692z M33.912,23.55c0.082-0.091,0.049-0.214,0.123-0.301
				c0.074-0.086,0.313-0.041,0.38-0.127c0.074-0.095-0.041-0.318,0.021-0.404c0.07-0.099,0.119-0.189,0.177-0.28
				c0.059-0.103,0.223-0.14,0.265-0.239c0.054-0.107,0.14-0.194,0.173-0.297c0.032-0.115,0.132-0.231,0.14-0.338
				c0.009-0.12-0.082-0.251-0.107-0.354c-0.024-0.107-0.173-0.165-0.234-0.268c-0.054-0.095-0.136-0.152-0.21-0.235
				c-0.074-0.079-0.148-0.132-0.248-0.206c-0.082-0.07-0.09-0.231-0.197-0.297c-0.091-0.062-0.128,0.012-0.231-0.045
				c0,0.111,0.091,0.09,0.091,0.198c0,0.111-0.271,0.219-0.271,0.326c0,0.107,0.186,0.214,0.186,0.322
				c0,0.107-0.252,0.214-0.252,0.321c0,0.107,0.024,0.214,0.024,0.322c0,0.107,0.198,0.214,0.198,0.321
				c0,0.107-0.004,0.214-0.004,0.322s0.037,0.219,0.037,0.326c0,0.107,0.14,0.214,0.14,0.322c0,0.107-0.16,0.214-0.16,0.326
				C33.949,23.369,33.912,23.439,33.912,23.55z M21.243,24.003c-0.004-0.115-0.12-0.189-0.12-0.296
				c-0.008-0.116,0.206-0.239,0.198-0.351c-0.008-0.116-0.239-0.214-0.244-0.322c-0.004-0.111-0.016-0.223-0.021-0.334
				c-0.004-0.115,0.111-0.23,0.107-0.346c-0.004-0.111,0.041-0.223,0.033-0.334c0-0.111,0.066-0.227,0.058-0.342
				c-0.004-0.107-0.111-0.255-0.12-0.367c-0.099,0.062-0.165,0.231-0.251,0.292c-0.091,0.066-0.165,0.153-0.239,0.219
				c-0.095,0.078-0.157,0.152-0.231,0.223c-0.083,0.091-0.243,0.091-0.289,0.177c-0.062,0.103,0.054,0.21,0.054,0.317
				c0,0.103,0.021,0.145,0.074,0.251c0.045,0.083-0.128,0.317-0.054,0.417c0.062,0.078,0.276,0.037,0.359,0.124
				c0.07,0.074-0.021,0.334,0.062,0.413c0.083,0.07,0.182,0.127,0.272,0.206C20.975,24.016,21.152,23.93,21.243,24.003z"/>
		</g>
		<g>
			<path d="M30.012,12.831c-0.024,0.12-0.215,0.239-0.239,0.354c-0.021,0.124,0.141,0.28,0.124,0.396
				c-0.025,0.124-0.148,0.214-0.174,0.334c-0.09-0.045-0.271,0.103-0.362,0.054c-0.099-0.049-0.091-0.313-0.173-0.354
				c-0.111-0.058-0.243,0.021-0.313-0.017c-0.107,0-0.189-0.169-0.289-0.169c-0.107,0-0.206-0.095-0.305-0.095
				c-0.104,0-0.206,0.033-0.301,0.033c-0.103,0-0.309,0.214-0.408,0.214c0.041-0.09,0.033-0.326,0.07-0.42
				c0.037-0.091,0.054-0.189,0.091-0.289c0.037-0.091,0.186-0.132,0.227-0.227c0.041-0.091,0.095-0.169,0.14-0.268
				c0.037-0.091,0.182-0.165,0.223-0.264c-0.074-0.053-0.189-0.161-0.313-0.239c-0.09-0.062-0.123-0.239-0.23-0.313
				c-0.099-0.066-0.218,0.008-0.326-0.066c0.062-0.115,0.054-0.189,0.111-0.285c0.078-0.119,0.132-0.235,0.214-0.297
				c0.107-0.082,0.206,0.025,0.321,0.054c0.099,0.017,0.321-0.157,0.433-0.058c0.079,0.066,0.186,0.165,0.276,0.28
				c0.063,0.083,0.046,0.227,0.107,0.313c0.066,0.083,0,0.272,0.066,0.351c0.065,0.082,0.247,0.074,0.313,0.161
				c0.063,0.083,0.009,0.264,0.074,0.346c0.07,0.083,0.256,0.066,0.33,0.148c0.062,0.083,0.198,0.008,0.264,0.091
				C30.032,12.637,30.004,12.79,30.012,12.831z"/>
		</g>
		<g>
			<path d="M29.913,12.79c0.058-0.107-0.009-0.289,0.049-0.396c0.058-0.107,0.211-0.165,0.269-0.272
				c0.078,0.058,0.223,0.025,0.305,0.083c0.078,0.054,0.033,0.305,0.115,0.363c0.083,0.054,0.285-0.066,0.367,0
				c0.083,0.058,0.066,0.256,0.148,0.313c0.082,0.054,0.313,0.029,0.396,0.083c-0.074,0.14-0.247,0.28-0.317,0.42
				c-0.111-0.045-0.292,0.115-0.403,0.066s-0.128-0.313-0.235-0.363c-0.115-0.045-0.272,0.033-0.379-0.017
				c-0.116-0.045-0.157-0.251-0.265-0.297L29.913,12.79z"/>
		</g>
		<g>
			<path d="M26.841,11.421c0,0.107-0.26,0.157-0.305,0.235c-0.054,0.087-0.145,0.029-0.235,0.079
				c-0.083,0.049-0.074,0.115-0.181,0.115c-0.107,0-0.099-0.066-0.182-0.111c-0.086-0.054-0.379,0.12-0.429,0.037
				c-0.045-0.091-0.024-0.251-0.024-0.354c0-0.107,0.049-0.231,0.095-0.313c0.053-0.086,0.09-0.264,0.181-0.313
				c0.087-0.05,0.251-0.017,0.359-0.017c0.107,0,0.157,0.173,0.243,0.223c0.086,0.049,0.091,0.107,0.144,0.198
				C26.553,11.289,26.841,11.318,26.841,11.421z"/>
		</g>
		<g>
			<path d="M31.162,11c0,0.107,0.074,0.21,0.028,0.297c-0.053,0.083-0.132,0.165-0.218,0.218c-0.087,0.045-0.194-0.095-0.297-0.095
				c-0.107,0-0.276,0.255-0.359,0.202c-0.09-0.054,0-0.297-0.054-0.388c-0.045-0.086,0.046-0.136,0.046-0.235
				c0-0.107-0.058-0.132-0.009-0.214c0.054-0.091,0.107-0.054,0.19-0.107c0.086-0.045,0.078-0.388,0.186-0.388
				c0.111,0,0.234,0.107,0.325,0.153c0.083,0.054,0.165,0.152,0.215,0.243C31.261,10.77,31.162,10.893,31.162,11z"/>
		</g>
	</g>
</g>
</svg>
