<?xml version="1.0" encoding="utf-8"?>
<!-- Generator: Adobe Illustrator 16.0.0, SVG Export Plug-In . SVG Version: 6.00 Build 0)  -->
<!DOCTYPE svg PUBLIC "-//W3C//DTD SVG 1.1//EN" "http://www.w3.org/Graphics/SVG/1.1/DTD/svg11.dtd">
<svg version="1.1" id="圖層_1" xmlns="http://www.w3.org/2000/svg" xmlns:xlink="http://www.w3.org/1999/xlink" x="0px" y="0px"
	 width="55px" height="55px" viewBox="0 0 55 55" enable-background="new 0 0 55 55" xml:space="preserve">
<g>
	<path fill="#7E9ABC" d="M9.364,6.782c1.678,0,3.283-0.319,4.684,0.084c1.577,0.451,2.814-0.826,4.518-0.277
		c-0.313,0.77-0.622,1.525-0.93,2.286c-0.112,0.272-0.356,0.559-0.329,0.817c0.24,2.361,0.456,4.722,0.808,7.068
		c0.563,3.755,2.077,7.196,3.762,10.561c0.592,1.188,1.174,2.384,1.66,3.615c0.073,0.188-0.338,0.793-0.613,0.863
		c-2.727,0.686-4.206,2.755-5.468,4.976c-2.051,3.604-0.117,8.026,3.114,9.744c1.413,0.751,1.498,1.239,0.331,2.422
		c-1.683,1.718-3.868,1.877-6.079,1.887c-1.131,0.005-2.262-0.107-3.394-0.141c-0.779-0.028-1.586,0.104-2.051-0.77
		c-0.073-0.142-0.324-0.23-0.505-0.244c-2.521-0.244-3.877-1.901-4.881-3.999c-2.159-4.511-1.758-8.946,0.235-13.41
		c0.877-1.958,1.274-4.145,2.276-6.022c2.527-4.736,3.3-9.819,3.379-15.058C9.901,9.805,9.563,8.411,9.364,6.782z"/>
	<path fill="#C9BDA1" d="M29.29,25.06c0.559,0.202,0.896,0.282,1.194,0.441c1.126,0.601,1.765-0.572,2.651-0.699
		c0.779-0.113,1.475,1.211,2.446,0.207c0.248-0.258,0.849-0.408,1.188-0.305c1.014,0.329,1.882,0.559,2.905-0.16
		c0.563-0.394,0.948,0.31,0.779,0.864c-0.779,2.516,0.704,3.755,2.6,4.83c0.826,0.465,1.647,0.774,2.587,1.033
		c2.67,0.736,5.083,2.201,6.068,4.933c0.545,1.512,0.774,3.131,0.104,4.994c-0.686,1.883-1.821,3.146-3.183,4.263
		c-1.229,1.004-2.76,1.567-4.478,1.281c-0.441-0.07-0.938,0.39-1.427,0.408c-2.887,0.094-5.773,0.141-8.665,0.192
		c-1.437,0.023-2.887,0.112-4.32,0.033c-3.002-0.16-6.018-0.235-8.78-1.709c-3.241-1.741-4.36-6.158-2.305-9.219
		c1.331-1.985,3.222-3.21,5.424-3.971c1.181-0.403,2.41-0.652,3.605-1.005c1.287-0.385,2.369-2.506,2.098-4.111
		C29.682,26.674,29.498,26.008,29.29,25.06z"/>
	<path fill="#FFFFFF" d="M26.405,48.49c0.734-0.084,1.469-0.225,2.208-0.258c0.93-0.042,1.866-0.042,2.796,0.005
		c1.929,0.089,3.854,0.291,5.782,0.291c1.587,0.01,3.178-0.197,4.765-0.319c0.972-0.08,1.942-0.229,2.91-0.244
		c0.286-0.009,0.572,0.338,0.858,0.525c-0.239,0.142-0.474,0.39-0.709,0.395c-6.055,0.057-12.101,0.094-18.151,0.127
		c-0.136,0-0.279-0.085-0.416-0.127C26.436,48.754,26.419,48.622,26.405,48.49z"/>
	<path fill="#FFFFFF" d="M8.458,5.148c3.525-0.967,7.078-1.408,10.927-0.53C17.745,5.843,9.838,6.294,8.458,5.148z"/>
	<g>
		<path fill="#6B839B" d="M12.237,49.918c-0.073-0.142-0.324-0.23-0.505-0.244c-2.521-0.244-3.877-1.901-4.881-3.999
			c-2.157-4.511-1.755-8.946,0.237-13.41c0.875-1.958,1.272-4.145,2.276-6.022c2.525-4.736,3.3-9.819,3.377-15.058
			c0.019-1.38-0.319-2.774-0.519-4.402c0.411,0,0.821-0.019,1.223-0.047c-1.253-0.188-2.643,0.047-4.086,0.047
			c0.204,1.628,0.542,3.022,0.519,4.402c-0.08,5.248-0.852,10.322-3.379,15.058C5.501,28.12,5.1,30.307,4.222,32.265
			c-1.993,4.464-2.394,8.899-0.235,13.41c1.004,2.098,2.361,3.745,4.882,3.999c0.176,0.019,0.432,0.112,0.504,0.244
			c0.465,0.873,1.277,0.751,2.051,0.77c1.131,0.033,2.262,0.146,3.391,0.141c0.486,0,0.964-0.01,1.441-0.047
			c-0.657-0.033-1.312-0.075-1.974-0.094C13.516,50.659,12.706,50.791,12.237,49.918z"/>
	</g>
	<g>
		<path fill="#A09378" d="M22.112,36.438c1.331-1.981,3.22-3.206,5.424-3.962c1.181-0.408,2.408-0.657,3.603-1.014
			c1.289-0.376,2.368-2.507,2.101-4.103c-0.117-0.685-0.296-1.361-0.502-2.3c0.554,0.202,0.892,0.282,1.192,0.441
			c1.126,0.601,1.765-0.572,2.656-0.699c0.779-0.113,1.474,1.211,2.44,0.207c0.249-0.258,0.854-0.408,1.192-0.305
			c0.066,0.028,0.132,0.047,0.202,0.066c-0.122-0.291-0.399-0.469-0.746-0.226c-1.023,0.718-1.892,0.493-2.905,0.16
			c-0.339-0.103-0.939,0.047-1.188,0.305c-0.972,1.004-1.667-0.319-2.446-0.207c-0.887,0.127-1.525,1.3-2.651,0.699
			c-0.298-0.155-0.636-0.234-1.194-0.441c0.208,0.938,0.387,1.615,0.504,2.3c0.268,1.596-0.814,3.727-2.101,4.103
			c-1.195,0.356-2.429,0.605-3.605,1.014c-2.201,0.756-4.09,1.98-5.423,3.962c-2.061,3.069-0.934,7.481,2.307,9.218
			c2.76,1.483,5.776,1.554,8.778,1.719c1.091,0.056,2.183,0.019,3.278-0.01c-2.945-0.159-5.898-0.258-8.611-1.709
			C21.176,43.919,20.049,39.507,22.112,36.438z"/>
	</g>
	<g>
		<g>
			<path d="M15.224,3.248c0.127-0.014,0.218-0.164,0.348-0.178c0.126-0.014,0.284,0.192,0.411,0.174
				c0.126-0.019,0.23-0.197,0.356-0.216c0.127-0.019,0.261-0.028,0.387-0.047c0.127-0.009,0.266,0.084,0.392,0.08
				c0.127-0.005,0.253,0.014,0.383,0.023c0.126,0.009,0.23,0.141,0.352,0.164c0.122,0.028,0.328-0.221,0.45-0.178
				c0.118,0.042,0.122,0.38,0.24,0.432c0.117,0.052,0.195,0.155,0.307,0.216c0.113,0.061,0.387-0.155,0.495-0.084
				c0.108,0.07,0.279,0.061,0.387,0.136c0.104,0.07-0.08,0.531,0.019,0.61c0.103,0.075,0.333-0.009,0.427,0.075
				c0.063,0.051,0.15,0.178,0.112,0.347c-0.026,0.113-0.049,0.244-0.089,0.375c-0.04,0.117,0.026,0.268-0.009,0.385
				c-0.04,0.127-0.266,0.197-0.284,0.305c-0.023,0.127-0.167,0.244-0.186,0.375c-0.021,0.131,0.042,0.277,0.028,0.409
				c-0.014,0.131-0.005,0.267-0.019,0.394c-0.014,0.131-0.049,0.263-0.068,0.394c-0.021,0.132-0.026,0.263-0.049,0.395
				c-0.026,0.131-0.162,0.235-0.192,0.366c-0.028,0.131-0.16,0.211-0.2,0.338c-0.04,0.131,0.099,0.305,0.045,0.427
				c-0.049,0.117-0.261,0.173-0.31,0.286s-0.004,0.272-0.044,0.39c-0.042,0.117-0.195,0.207-0.23,0.329
				c-0.038,0.122,0.162,0.314,0.134,0.437c-0.035,0.122-0.054,0.244-0.084,0.366c-0.028,0.122,0.139,0.281,0.113,0.403
				c-0.023,0.122-0.308,0.197-0.322,0.319c-0.021,0.122-0.03,0.253-0.04,0.375c-0.014,0.131,0.068,0.263,0.063,0.385
				c-0.009,0.127,0.014,0.249,0.009,0.375c-0.004,0.131-0.117,0.253-0.117,0.375s-0.199,0.258-0.195,0.38
				c0.005,0.126,0.028,0.253,0.038,0.38c0.012,0.131,0.373,0.225,0.383,0.347c0.009,0.131,0.059,0.244,0.073,0.366
				c0.016,0.122-0.322,0.295-0.303,0.422c0.019,0.122,0.019,0.253,0.04,0.375c0.019,0.122,0.253,0.216,0.279,0.338
				c0.023,0.122,0.186,0.216,0.209,0.338c0.026,0.122-0.326,0.329-0.298,0.451c0.03,0.122,0.396,0.164,0.432,0.282
				c0.028,0.122,0.078,0.234,0.108,0.356c0.028,0.122-0.178,0.31-0.143,0.427c0.035,0.122,0.378,0.155,0.411,0.272
				c0.035,0.122-0.104,0.286-0.068,0.413c0.035,0.122,0.009,0.258,0.049,0.375c0.04,0.118,0.23,0.193,0.27,0.315
				c0.038,0.122,0.136,0.22,0.171,0.342c0.038,0.118-0.134,0.305-0.094,0.427c0.04,0.113-0.028,0.272,0.009,0.39
				c0.04,0.117,0.378,0.146,0.411,0.268c0.035,0.122-0.176,0.314-0.141,0.432c0.04,0.118,0.063,0.244,0.103,0.366
				c0.038,0.113,0.209,0.192,0.249,0.31c0.04,0.118-0.092,0.301-0.049,0.418c0.044,0.117,0,0.268,0.044,0.385
				c0.044,0.118,0.387,0.127,0.432,0.24c0.042,0.122,0.014,0.263,0.063,0.385c0.045,0.112,0.113,0.225,0.162,0.338
				c0.047,0.122,0.263,0.164,0.312,0.277c0.049,0.117-0.265,0.39-0.216,0.502c0.049,0.112,0.084,0.234,0.134,0.347
				c0.047,0.113,0.439,0.08,0.488,0.197c0.049,0.112-0.023,0.286,0.03,0.403c0.054,0.113,0.033,0.258,0.082,0.375
				c0.054,0.113,0.216,0.179,0.27,0.291c0.054,0.113,0.054,0.253,0.104,0.366c0.054,0.113-0.068,0.31-0.017,0.422
				c0.054,0.113,0.08,0.235,0.134,0.348c0.054,0.112,0.113,0.225,0.167,0.338c0.054,0.113,0.155,0.207,0.216,0.319
				c0.052,0.113,0.195,0.183,0.249,0.296c0.054,0.112,0.284,0.146,0.338,0.254c0.054,0.112-0.131,0.342-0.08,0.455
				c0.054,0.112,0.338,0.122,0.392,0.234c0.054,0.112-0.122,0.329-0.068,0.441c0.054,0.112,0.392,0.094,0.446,0.211
				c0.054,0.113-0.171,0.357-0.122,0.47c0.054,0.112,0.15,0.206,0.2,0.324c0.054,0.112,0.035,0.263,0.089,0.375
				c0.054,0.122,0.2,0.202,0.258,0.296c0.075,0.117,0.178,0.221,0.265,0.286c0.104,0.075,0.256,0.314,0.383,0.31
				c0.108-0.005,0.185-0.319,0.316-0.395c0.094-0.047,0.338,0.075,0.451-0.009c0.094-0.08,0.104-0.254,0.226-0.301
				c0.112-0.047,0.234-0.065,0.364-0.094c0.122-0.028,0.213-0.229,0.338-0.249c0.126-0.019,0.321,0.268,0.434,0.23
				c0.122-0.038,0.284-0.038,0.396-0.085c0.118-0.047,0.113-0.361,0.216-0.422c0.108-0.07,0.094-0.263,0.186-0.338
				c0.094-0.085,0.192-0.122,0.265-0.216c0.078-0.099,0.406-0.038,0.465-0.142c0.055-0.112,0.085-0.263,0.118-0.385
				c0.035-0.117,0.103-0.253,0.117-0.385c0.014-0.112-0.19-0.253-0.195-0.385c-0.004-0.122-0.054-0.229-0.079-0.356
				c-0.02-0.118,0.112-0.282,0.075-0.404c-0.036-0.113-0.118-0.225-0.162-0.338c-0.045-0.113-0.217-0.169-0.266-0.277
				c-0.05-0.113-0.023-0.253-0.077-0.366c-0.05-0.113,0.039-0.277-0.005-0.39c-0.045-0.113-0.063-0.225-0.099-0.338
				c-0.035-0.122-0.094-0.216-0.063-0.375c0.028-0.16,0.072-0.226,0.167-0.3c0.087-0.08,0.019-0.366,0.122-0.441
				c0.099-0.08,0.279-0.061,0.383-0.122c0.107-0.075,0.303,0.066,0.415,0.019c0.122-0.047,0.147-0.46,0.265-0.47
				c0.127-0.009,0.268,0.291,0.397,0.291c0.126-0.009,0.244-0.329,0.37-0.338c0.127,0,0.261,0.296,0.388,0.296
				s0.253,0.051,0.383,0.051c0.126,0,0.253-0.136,0.38-0.136c0.129,0,0.256,0.033,0.383,0.033c0.126,0,0.256-0.07,0.382-0.07
				c0.127,0,0.254,0.183,0.381,0.183c0.126,0,0.258-0.319,0.38-0.319c0.132,0,0.258,0.15,0.385,0.15s0.254-0.075,0.385-0.075
				c0.122,0,0.254,0.164,0.376,0.164c0.131,0,0.258,0.019,0.385,0.014c0.127-0.004,0.244-0.263,0.375-0.263
				c0.132-0.009,0.277,0.329,0.408,0.319c0.132-0.014,0.235-0.422,0.362-0.432c0.131-0.009,0.281,0.272,0.417,0.258
				c0.132-0.009,0.23-0.348,0.361-0.361c0.132-0.019,0.291,0.249,0.423,0.234c0.132-0.019,0.258-0.038,0.39-0.047
				c0.132-0.019,0.277,0.131,0.408,0.113c0.132-0.014,0.216-0.399,0.348-0.413c0.136-0.019,0.263-0.038,0.395-0.052
				c0.131-0.009,0.271,0.136,0.403,0.127c0.136-0.014,0.276,0.188,0.413,0.183c0.112-0.005,0.234,0.023,0.356,0.019
				c0.112-0.005,0.234-0.061,0.356-0.07c0.122,0,0.235,0.009,0.357,0.009s0.234-0.056,0.356-0.056s0.234,0.028,0.356,0.028
				c0.122,0.01,0.254-0.244,0.376-0.239c0.122,0.014,0.253-0.061,0.366-0.052c0.122,0.014,0.216,0.244,0.338,0.263
				c0.154,0.028,0.258,0.099,0.356,0.16c0.136,0.084,0.174,0.155,0.197,0.286c0.028,0.117,0.263,0.329,0.183,0.474
				c-0.052,0.103-0.328,0.108-0.44,0.221c-0.09,0.089-0.005,0.329-0.08,0.422c-0.085,0.099-0.493-0.075-0.563,0.019
				c-0.084,0.104,0.028,0.333-0.037,0.437c-0.066,0.108-0.146,0.207-0.197,0.31c-0.052,0.122-0.038,0.253-0.066,0.371
				c-0.037,0.122-0.314,0.211-0.328,0.333c-0.01,0.122,0.028,0.286,0.037,0.413c0.02,0.122,0.272,0.202,0.311,0.319
				c0.037,0.112,0.244,0.132,0.31,0.234c0.057,0.104,0,0.254,0.084,0.357c0.071,0.089,0.08,0.234,0.179,0.323
				c0.089,0.08,0.136,0.216,0.239,0.296c0.094,0.065,0.277,0.019,0.381,0.085c0.103,0.061,0.183,0.174,0.295,0.225
				c0.108,0.057,0.165,0.226,0.286,0.282c0.113,0.047,0.329-0.16,0.441-0.108c0.113,0.042,0.155,0.268,0.268,0.306
				c0.113,0.042,0.16,0.253,0.272,0.3c0.112,0.043,0.268-0.028,0.38,0.019c0.113,0.038,0.338-0.225,0.451-0.188
				c0.112,0.038,0.131,0.366,0.244,0.404c0.112,0.042,0.216,0.103,0.328,0.141c0.112,0.037,0.226,0.094,0.338,0.136
				c0.113,0.042,0.263-0.023,0.376,0.019c0.112,0.043,0.141,0.287,0.253,0.334c0.113,0.047,0.235,0.056,0.348,0.103
				c0.117,0.047,0.301-0.056,0.413,0c0.112,0.057,0.31-0.065,0.422-0.014c0.113,0.052,0.226,0.136,0.339,0.192
				c0.112,0.057,0.253,0.061,0.365,0.122c0.113,0.061,0.028,0.47,0.137,0.525c0.107,0.066,0.408-0.197,0.521-0.126
				c0.104,0.07-0.032,0.511,0.07,0.582c0.104,0.07,0.226,0.107,0.324,0.183c0.104,0.075,0.45-0.188,0.554-0.108
				c0.094,0.08,0.023,0.371,0.122,0.456c0.094,0.084,0.16,0.188,0.254,0.276c0.094,0.085,0.221,0.137,0.31,0.221
				c0.084,0.089,0.164,0.188,0.253,0.272c0.085,0.094,0.085,0.253,0.17,0.348c0.084,0.094,0.267,0.103,0.347,0.206
				c0.075,0.094,0.104,0.226,0.179,0.328c0.075,0.104,0.385,0.048,0.455,0.15c0.07,0.104,0.085,0.249,0.146,0.361
				c0.065,0.108,0.132,0.226,0.188,0.338c0.057,0.113,0.179,0.193,0.235,0.314c0.056,0.113,0.004,0.277,0.056,0.395
				c0.047,0.113,0.226,0.188,0.268,0.301c0.043,0.122-0.174,0.328-0.136,0.45c0.042,0.113,0.033,0.249,0.065,0.371
				c0.038,0.117,0.065,0.239,0.094,0.361s0.192,0.216,0.216,0.343c0.023,0.122-0.178,0.286-0.159,0.408
				c0.01,0.112,0.366,0.15,0.399,0.263c0.032,0.108-0.306,0.338-0.264,0.446c0.038,0.107,0.184,0.174,0.212,0.286
				c0.037,0.112-0.028,0.211-0.02,0.319c0.01,0.117,0.062,0.169,0.028,0.272c-0.037,0.112-0.056,0.244-0.094,0.361
				c-0.037,0.117-0.057,0.244-0.099,0.361s-0.146,0.216-0.183,0.333c-0.047,0.117,0.112,0.305,0.065,0.427
				c-0.047,0.113-0.202,0.188-0.244,0.311c-0.047,0.112,0.188,0.347,0.137,0.46c-0.052,0.122-0.306,0.149-0.353,0.263
				c-0.057,0.112-0.117,0.216-0.169,0.328c-0.057,0.113-0.188,0.188-0.244,0.296c-0.061,0.112-0.075,0.249-0.136,0.353
				c-0.062,0.107-0.052,0.263-0.113,0.365c-0.061,0.113-0.042,0.277-0.112,0.381s-0.122,0.229-0.192,0.323
				c-0.075,0.104-0.184,0.188-0.263,0.287c-0.075,0.099-0.371,0.014-0.455,0.107c-0.08,0.094-0.212,0.141-0.296,0.226
				c-0.09,0.089-0.043,0.314-0.132,0.395c-0.094,0.084-0.104,0.276-0.197,0.361c-0.094,0.079-0.234,0.112-0.338,0.192
				c-0.089,0.065-0.183,0.131-0.272,0.206c-0.094,0.075-0.318-0.028-0.413,0.038c-0.094,0.07-0.112,0.248-0.206,0.319
				c-0.099,0.065-0.206,0.112-0.31,0.169c-0.104,0.056-0.197,0.122-0.301,0.169c-0.112,0.051-0.131,0.276-0.244,0.328
				c-0.104,0.057-0.174,0.15-0.276,0.211c-0.108,0.062-0.357-0.112-0.451-0.042c-0.099,0.075,0.005,0.356-0.084,0.441
				c-0.09,0.084-0.226,0.075-0.296,0.174c-0.065,0.099-0.169,0.154-0.226,0.268c-0.047,0.103-0.122,0.192-0.15,0.31
				c-0.027,0.112-0.094,0.226-0.103,0.356c0,0.113-0.028,0.235-0.02,0.366c0.01,0.085-0.014,0.174-0.074,0.286
				c-0.057,0.094-0.226,0.08-0.301,0.155c-0.094,0.094-0.057,0.525-0.141,0.53c-0.132,0.005-0.291-0.418-0.423-0.408
				c-0.127,0.023-0.253,0.131-0.385,0.159c-0.122,0.028-0.188,0.291-0.314,0.329c-0.127,0.032-0.226,0.159-0.348,0.197
				c-0.126,0.032-0.352-0.306-0.483-0.277c-0.122,0.033-0.206,0.221-0.338,0.249c-0.122,0.019-0.253,0-0.385,0.009
				c-0.127,0.01-0.258,0.197-0.385,0.188c-0.132-0.005-0.263-0.066-0.395-0.095c-0.127-0.023-0.319,0.085-0.441,0.038
				c-0.122-0.042-0.258-0.122-0.38-0.188c-0.099-0.057-0.089-0.479-0.216-0.488c-0.108-0.01-0.254,0.122-0.375,0.136
				c-0.113,0.015-0.207,0.184-0.324,0.202c-0.112,0.023-0.239-0.01-0.353,0.019c-0.112,0.023-0.258-0.169-0.38-0.15
				c-0.112,0.02-0.202,0.216-0.314,0.216c-0.122,0-0.249,0.122-0.371,0.122s-0.244-0.146-0.366-0.146s-0.243,0.268-0.365,0.268
				s-0.244-0.154-0.366-0.154s-0.244,0.084-0.366,0.084s-0.244-0.014-0.366-0.014s-0.244-0.282-0.366-0.282
				c-0.127,0-0.249,0.366-0.371,0.366s-0.244-0.39-0.366-0.39s-0.248-0.07-0.37-0.07s-0.244,0.052-0.366,0.052
				s-0.244,0.254-0.366,0.249c-0.122,0-0.244,0.117-0.366,0.112c-0.122,0-0.239-0.323-0.361-0.323c-0.127,0-0.249,0.333-0.371,0.333
				s-0.253-0.028-0.375-0.028s-0.249-0.08-0.371-0.08s-0.244-0.295-0.371-0.295c-0.122-0.01-0.253,0.225-0.375,0.225
				s-0.244-0.141-0.371-0.15c-0.122-0.004-0.244-0.084-0.371-0.084c-0.122,0-0.251-0.01-0.373-0.019
				c-0.122,0-0.253,0.211-0.375,0.211c-0.125,0-0.251-0.028-0.373-0.028c-0.122-0.005-0.244-0.146-0.371-0.146
				c-0.125-0.009-0.246-0.094-0.373-0.099c-0.122-0.005-0.256,0.254-0.383,0.249c-0.122-0.005-0.249,0.057-0.375,0.047
				c-0.125,0-0.242-0.234-0.369-0.244c-0.122-0.005-0.244-0.075-0.37-0.075c-0.125-0.009-0.256,0.16-0.383,0.155
				c-0.122-0.005-0.261,0.192-0.383,0.183c-0.123,0-0.235-0.338-0.357-0.338c-0.122-0.009-0.249,0.052-0.378,0.047
				c-0.127-0.005-0.258,0.169-0.38,0.169c-0.125-0.009-0.251,0.01-0.378,0c-0.122-0.009-0.298-0.112-0.437-0.183
				c-0.117-0.062-0.249-0.164-0.356-0.259c-0.108-0.089,0.04-0.413-0.045-0.516c-0.091-0.117-0.577-0.005-0.622-0.122
				c-0.054-0.137,0.026-0.291-0.038-0.404c-0.075-0.122,0.014-0.347-0.075-0.44c-0.091-0.104-0.146-0.306-0.258-0.385
				c-0.112-0.075-0.298-0.095-0.427-0.146c-0.122-0.052-0.275-0.118-0.411-0.146c-0.131-0.02-0.303,0.248-0.446,0.234
				c-0.091,0-0.23-0.141-0.352-0.085c-0.108,0.047-0.244,0.085-0.338,0.146c-0.126,0.09-0.009,0.259-0.014,0.338
				c-0.009,0.137-0.176,0.249-0.202,0.361c-0.023,0.122-0.078,0.235-0.117,0.348c-0.042,0.113-0.132,0.202-0.195,0.306
				c-0.063,0.107-0.226,0.117-0.303,0.206c-0.084,0.089-0.12,0.202-0.211,0.277c-0.094,0.079-0.251,0.047-0.352,0.112
				c-0.103,0.07-0.059,0.356-0.167,0.418c-0.108,0.061-0.143,0.253-0.251,0.314c-0.108,0.056-0.244,0.056-0.352,0.117
				c-0.108,0.057-0.392-0.192-0.496-0.127c-0.105,0.062,0,0.46-0.096,0.525c-0.103,0.075-0.255,0.099-0.364,0.16
				c-0.112,0.061-0.326-0.089-0.438-0.038c-0.118,0.057-0.183,0.217-0.301,0.254c-0.117,0.047-0.272-0.052-0.396-0.019
				c-0.122,0.028-0.23,0.079-0.352,0.104c-0.122,0.027-0.204,0.323-0.329,0.338c-0.122,0.019-0.263-0.033-0.385-0.023
				c-0.129,0.009-0.265-0.23-0.387-0.226c-0.127,0.005-0.244,0.061-0.373,0.061c-0.127,0-0.249,0.075-0.375,0.07
				c-0.129,0-0.251-0.136-0.373-0.141c-0.127,0-0.254,0.108-0.378,0.108c-0.127,0-0.249,0.131-0.375,0.131
				c-0.127,0-0.251-0.056-0.378-0.056c-0.127,0.009-0.239,0.131-0.366,0.136c-0.127,0.01-0.239,0.042-0.364,0.052
				c-0.131,0.019-0.277-0.075-0.411-0.065c-0.131,0.009-0.263,0.047-0.396,0.051c-0.132,0.005-0.27-0.079-0.401-0.07
				c-0.131,0-0.27-0.225-0.401-0.225c-0.131,0.009-0.265,0.131-0.396,0.131c-0.132,0-0.258,0.301-0.392,0.301
				c-0.131,0-0.279-0.423-0.411-0.423c-0.113,0.01-0.226,0.179-0.338,0.179c-0.118,0.005-0.284,0.263-0.392,0.234
				c-0.127-0.028-0.249-0.084-0.371-0.122c-0.122-0.032-0.251-0.084-0.374-0.122c-0.122-0.037-0.234-0.131-0.352-0.169
				c-0.122-0.042-0.181-0.263-0.303-0.305c-0.124-0.042-0.211-0.164-0.329-0.211c-0.117-0.047-0.225-0.118-0.338-0.169
				C8.355,50.861,8.247,50.8,8.13,50.748c-0.118-0.052-0.383,0.202-0.5,0.146c-0.113-0.061-0.099-0.366-0.211-0.422
				c-0.112-0.066-0.356,0.094-0.464,0.032c-0.108-0.07-0.275-0.061-0.38-0.126c-0.108-0.07-0.017-0.437-0.125-0.507
				c-0.101-0.075-0.268-0.062-0.371-0.142c-0.104-0.075-0.104-0.276-0.202-0.356c-0.096-0.075-0.171-0.179-0.267-0.272
				c-0.099-0.079-0.179-0.174-0.266-0.263c-0.094-0.084-0.181-0.169-0.27-0.258c-0.087-0.094-0.352-0.015-0.441-0.108
				c-0.082-0.094-0.235-0.141-0.312-0.239c-0.084-0.099-0.19-0.183-0.27-0.286c-0.078-0.104,0.075-0.376,0-0.479
				c-0.073-0.104-0.284-0.113-0.352-0.216c-0.068-0.104-0.303-0.113-0.373-0.226c-0.068-0.104-0.042-0.277-0.105-0.39
				c-0.066-0.108,0.181-0.39,0.117-0.502c-0.059-0.113-0.392-0.085-0.446-0.202C2.833,45.82,2.739,45.717,2.685,45.6
				c-0.054-0.117,0.009-0.291-0.038-0.404c-0.049-0.122-0.207-0.196-0.251-0.318c-0.045-0.122-0.019-0.272-0.063-0.39
				c-0.04-0.122-0.202-0.212-0.239-0.334c-0.04-0.122-0.122-0.239-0.153-0.361c-0.033-0.122-0.044-0.258-0.073-0.39
				c-0.03-0.122,0.366-0.338,0.343-0.46c-0.026-0.131-0.068-0.244-0.089-0.366C2.103,42.445,1.819,42.36,1.8,42.238
				c-0.021-0.131-0.188-0.244-0.202-0.37C1.584,41.741,1.81,41.591,1.8,41.459c-0.012-0.121-0.134-0.243-0.139-0.375
				c-0.009-0.127,0.122-0.263,0.118-0.39c-0.005-0.127-0.049-0.258-0.054-0.38c0-0.132,0.084-0.259,0.084-0.385
				c0-0.127-0.314-0.259-0.31-0.395c0.004-0.122,0.373-0.244,0.377-0.366c0.005-0.132-0.054-0.263-0.049-0.39
				c0.005-0.127,0.073-0.249,0.084-0.38c0.01-0.122-0.059-0.254-0.049-0.385c0.009-0.127,0.014-0.254,0.023-0.381
				c0.014-0.126,0.025-0.258,0.04-0.38c0.014-0.132,0.087-0.258,0.104-0.385c0.014-0.132-0.104-0.282-0.089-0.404
				c0.019-0.131,0.176-0.243,0.202-0.375c0.019-0.132-0.305-0.319-0.279-0.441c0.019-0.136,0.425-0.197,0.45-0.328
				c0.023-0.122-0.021-0.268,0.01-0.395c0.028-0.127-0.099-0.291-0.068-0.423c0.028-0.126,0.214-0.216,0.249-0.338
				c0.035-0.131,0.117-0.234,0.157-0.366c0.038-0.126,0.146-0.22,0.19-0.347c0.044-0.122-0.312-0.395-0.27-0.517
				c0.045-0.112,0.251-0.174,0.301-0.296c0.042-0.117-0.08-0.31-0.031-0.427s0.122-0.226,0.171-0.343s0.265-0.164,0.314-0.286
				s0.317-0.141,0.366-0.263c0.049-0.113-0.186-0.357-0.131-0.47c0.049-0.117,0.117-0.229,0.167-0.338
				c0.049-0.122,0.375-0.112,0.425-0.234c0.049-0.118-0.249-0.385-0.195-0.503c0.049-0.117,0.411-0.099,0.465-0.216
				c0.054-0.117,0.117-0.225,0.171-0.343c0.054-0.117,0.113-0.229,0.162-0.347c0.054-0.117-0.247-0.385-0.197-0.507
				c0.054-0.113,0.045-0.259,0.094-0.376c0.054-0.117,0.22-0.179,0.27-0.3c0.049-0.113,0.275-0.155,0.326-0.272
				c0.054-0.118-0.014-0.282,0.035-0.404c0.049-0.113,0.153-0.207,0.202-0.329c0.047-0.113,0.181-0.197,0.234-0.314
				c0.049-0.117,0.01-0.277,0.059-0.39c0.049-0.122-0.104-0.319-0.054-0.441c0.049-0.112,0.338-0.141,0.383-0.253
				c0.047-0.122,0.105-0.239,0.15-0.356c0.044-0.118,0.014-0.263,0.059-0.385c0.045-0.117,0.005-0.272,0.049-0.385
				c0.045-0.122,0.383-0.131,0.427-0.253c0.042-0.117,0-0.272,0.042-0.39c0.044-0.117,0.004-0.268,0.049-0.39
				c0.045-0.112-0.136-0.319-0.096-0.441c0.042-0.113,0.155-0.207,0.2-0.329c0.04-0.122,0.122-0.225,0.162-0.347
				c0.04-0.122,0.098-0.235,0.136-0.357c0.04-0.122,0.221-0.197,0.261-0.319s-0.073-0.291-0.035-0.413
				c0.04-0.122,0.333-0.169,0.368-0.291c0.033-0.122-0.289-0.347-0.256-0.469c0.036-0.122,0.139-0.225,0.171-0.347
				c0.035-0.122,0.401-0.155,0.437-0.277c0.033-0.122-0.167-0.31-0.138-0.432c0.03-0.122,0.157-0.225,0.183-0.347
				c0.028-0.122-0.226-0.305-0.202-0.437c0.026-0.122,0.026-0.249,0.049-0.375c0.023-0.122,0.279-0.202,0.303-0.324
				c0.026-0.122,0.063-0.244,0.089-0.366c0.023-0.127,0.171-0.226,0.19-0.348c0.026-0.126,0.118-0.239,0.139-0.361
				c0.019-0.122,0.028-0.244,0.054-0.366c0.019-0.126-0.134-0.281-0.112-0.403c0.019-0.122-0.167-0.282-0.148-0.404
				c0.019-0.122,0.27-0.216,0.289-0.338c0.014-0.122-0.176-0.272-0.162-0.394c0.017-0.122,0.134-0.235,0.148-0.357
				s0.284-0.225,0.293-0.347s-0.099-0.263-0.089-0.39c0.012-0.122-0.225-0.263-0.218-0.39c0.01-0.131,0.118-0.244,0.122-0.366
				c0.005-0.131-0.059-0.253-0.054-0.38c0.004-0.126,0.141-0.249,0.141-0.371c0-0.127-0.141-0.249-0.146-0.375
				c-0.004-0.122,0.239-0.253,0.23-0.375c-0.004-0.127,0.049-0.258,0.038-0.385c-0.009-0.122-0.028-0.253-0.038-0.375
				s-0.162-0.235-0.176-0.366C9.01,10.04,9.134,9.894,9.113,9.772C9.094,9.65,9.005,9.533,8.981,9.411
				C8.963,9.289,8.608,9.228,8.585,9.105C8.559,8.983,8.644,8.843,8.613,8.721c-0.028-0.118,0.183-0.3,0.148-0.418
				C8.726,8.186,8.639,8.082,8.599,7.965c-0.04-0.113-0.204-0.188-0.249-0.3c-0.044-0.113-0.23-0.16-0.279-0.268
				C8.022,7.284,8.052,7.144,7.998,7.036C7.944,6.928,7.9,6.815,7.841,6.712C7.782,6.604,7.787,6.463,7.724,6.36
				c-0.08-0.122-0.171-0.235-0.225-0.348C7.44,5.876,7.63,5.693,7.611,5.571C7.585,5.43,7.557,5.365,7.581,5.233
				c0.026-0.131-0.253-0.389-0.176-0.507c0.068-0.108,0.216-0.221,0.324-0.319C7.822,4.323,7.986,4.28,8.111,4.201
				C8.212,4.135,8.486,4.36,8.599,4.304s0.026-0.535,0.143-0.582S9.085,3.9,9.202,3.863c0.122-0.033,0.204-0.291,0.329-0.31
				C9.658,3.543,9.833,3.919,9.96,3.9c0.126-0.009,0.22-0.3,0.342-0.319c0.127-0.009,0.251-0.038,0.378-0.052
				c0.127-0.014,0.235-0.174,0.361-0.183c0.127-0.019,0.27,0.104,0.397,0.094c0.126-0.019,0.279,0.193,0.401,0.179
				c0.126-0.014,0.251-0.057,0.377-0.066c0.127-0.019,0.209-0.422,0.338-0.432c0.126-0.019,0.258,0.042,0.385,0.028
				c0.129-0.019,0.284,0.268,0.413,0.258c0.126-0.014,0.263,0.08,0.392,0.061c0.127-0.009,0.244-0.113,0.371-0.122
				c0.126-0.009,0.221-0.329,0.347-0.338c0.127-0.019,0.261,0.056,0.387,0.042c0.127-0.014,0.244,0.103,0.373,0.089
				C15.185,3.206,15.22,3.187,15.224,3.248z M9.383,6.801c0.014,0.122,0.176,0.202,0.19,0.324c0.021,0.122-0.186,0.277-0.171,0.399
				c0.021,0.122,0.197,0.226,0.216,0.348c0.019,0.122,0.035,0.244,0.054,0.366C9.69,8.359,9.608,8.5,9.627,8.622
				c0.021,0.122,0.026,0.249,0.04,0.366C9.686,9.11,9.594,9.251,9.608,9.373S9.932,9.58,9.946,9.702s-0.279,0.277-0.27,0.399
				s-0.028,0.244-0.019,0.366c0.009,0.126,0.338,0.23,0.342,0.352c0.005,0.122,0.113,0.253,0.108,0.375
				c0,0.131-0.481,0.249-0.485,0.375c-0.005,0.126,0.206,0.258,0.202,0.385c-0.005,0.131,0.096,0.263,0.091,0.385
				c-0.004,0.127,0.005,0.253,0,0.38c-0.004,0.126,0.094,0.258,0.089,0.39C10,13.231,9.789,13.354,9.784,13.476
				c-0.009,0.131-0.136,0.249-0.141,0.375c-0.012,0.126,0.063,0.258,0.051,0.385c-0.009,0.131,0.012,0.253,0,0.385
				c-0.009,0.127-0.037,0.249-0.051,0.375c-0.012,0.127-0.012,0.253-0.026,0.385c-0.014,0.122-0.141,0.235-0.157,0.366
				c-0.014,0.127-0.131,0.239-0.146,0.361c-0.014,0.127,0.157,0.272,0.141,0.399c-0.014,0.132-0.204,0.226-0.225,0.357
				c-0.019,0.122,0.059,0.263,0.04,0.385c-0.019,0.127-0.157,0.23-0.176,0.352c-0.019,0.122,0.2,0.287,0.181,0.418
				c-0.023,0.122-0.04,0.249-0.063,0.375c-0.023,0.126,0.141,0.291,0.118,0.413S9.017,19,8.991,19.126
				c-0.023,0.122-0.049,0.244-0.073,0.366c-0.026,0.122,0.033,0.272,0.004,0.395c-0.03,0.122-0.03,0.253-0.059,0.375
				c-0.03,0.122-0.171,0.216-0.207,0.338c-0.033,0.122-0.258,0.192-0.293,0.314s-0.049,0.244-0.082,0.366
				c-0.035,0.126,0.268,0.352,0.23,0.464c-0.04,0.122-0.044,0.253-0.084,0.375c-0.038,0.127-0.416,0.131-0.46,0.253
				c-0.04,0.118-0.099,0.23-0.141,0.348c-0.045,0.117,0.117,0.31,0.073,0.432c-0.045,0.117,0.04,0.286-0.005,0.404
				c-0.044,0.122-0.455,0.094-0.5,0.211c-0.049,0.118,0.23,0.371,0.181,0.483c-0.049,0.122-0.082,0.244-0.136,0.357
				c-0.049,0.122-0.329,0.131-0.383,0.244c-0.054,0.113,0.186,0.371,0.131,0.483c-0.054,0.113-0.272,0.15-0.326,0.263
				c-0.054,0.113-0.171,0.197-0.23,0.31s0.028,0.305-0.03,0.417c-0.059,0.113-0.059,0.249-0.113,0.362
				c-0.054,0.112-0.303,0.131-0.357,0.249c-0.054,0.117-0.202,0.188-0.251,0.31c-0.047,0.113,0.197,0.352,0.153,0.469
				c-0.045,0.118-0.338,0.142-0.383,0.259c-0.042,0.117-0.101,0.234-0.141,0.352C5.466,28.443,5.56,28.608,5.52,28.73
				c-0.04,0.112-0.258,0.178-0.298,0.3c-0.04,0.113-0.167,0.207-0.207,0.329c-0.038,0.122,0.225,0.338,0.185,0.46
				c-0.038,0.122-0.155,0.216-0.195,0.333c-0.04,0.127-0.059,0.249-0.099,0.371c-0.037,0.112,0.089,0.295,0.049,0.417
				c-0.044,0.118-0.455,0.104-0.5,0.226c-0.042,0.117-0.106,0.226-0.15,0.343s0.249,0.375,0.2,0.488
				c-0.049,0.122-0.23,0.183-0.279,0.296c-0.049,0.112-0.171,0.201-0.221,0.314c-0.047,0.117,0.016,0.276-0.033,0.39
				c-0.049,0.117-0.152,0.211-0.197,0.328c-0.042,0.117-0.272,0.164-0.317,0.286c-0.044,0.113-0.117,0.226-0.162,0.348
				c-0.04,0.112-0.077,0.234-0.117,0.361c-0.04,0.117-0.023,0.258-0.063,0.375c-0.04,0.122,0.019,0.268-0.014,0.39
				c-0.035,0.122,0.122,0.296,0.087,0.418c-0.033,0.127-0.317,0.179-0.347,0.301c-0.031,0.122,0.19,0.305,0.167,0.427
				c-0.03,0.122-0.298,0.197-0.324,0.319c-0.023,0.122,0.265,0.301,0.239,0.423c-0.019,0.122-0.343,0.196-0.361,0.323
				c-0.019,0.122,0.014,0.259,0,0.381S2.459,37.92,2.45,38.042c-0.014,0.122,0.068,0.264,0.059,0.39
				c-0.009,0.122,0,0.249-0.009,0.376c-0.005,0.127-0.202,0.249-0.202,0.371c-0.005,0.131,0.291,0.258,0.291,0.385
				c0,0.126-0.237,0.253-0.232,0.38c0.007,0.127,0.162,0.249,0.171,0.371c0.007,0.122,0,0.253,0.012,0.38
				c0.009,0.122,0.204,0.23,0.221,0.353c0.014,0.121-0.291,0.291-0.27,0.412c0.019,0.122-0.014,0.259,0.004,0.381
				c0.019,0.122,0.317,0.192,0.343,0.323c0.023,0.122,0.211,0.207,0.239,0.329c0.031,0.122,0.01,0.249,0.045,0.371
				c0.028,0.122-0.239,0.323-0.207,0.445c0.035,0.117,0.099,0.235,0.138,0.353c0.038,0.117,0.038,0.253,0.078,0.37
				c0.04,0.118,0.279,0.169,0.324,0.282c0.045,0.122,0.122,0.225,0.167,0.338c0.042,0.122-0.063,0.296-0.017,0.413
				c0.049,0.112,0.134,0.216,0.188,0.333c0.049,0.112,0.226,0.174,0.279,0.286c0.054,0.113,0.033,0.259,0.087,0.366
				c0.054,0.113-0.019,0.291,0.04,0.395c0.059,0.112,0.103,0.234,0.167,0.338s0.181,0.183,0.244,0.286
				c0.068,0.104,0.113,0.23,0.181,0.329c0.075,0.099,0.352,0.042,0.432,0.141c0.077,0.099,0.054,0.268,0.136,0.361
				c0.084,0.094,0.01,0.338,0.094,0.427c0.086,0.09,0.45-0.112,0.542-0.032c0.094,0.084-0.009,0.394,0.089,0.474
				c0.099,0.07,0.383-0.112,0.484-0.042c0.103,0.065,0.044,0.385,0.152,0.441c0.108,0.061,0.202,0.173,0.31,0.225
				c0.106,0.057,0.284-0.019,0.397,0.028c0.112,0.042,0.218,0.112,0.342,0.15c0.118,0.033,0.254-0.005,0.375,0.019
				c0.118,0.023,0.211,0.23,0.333,0.249c0.117,0.023,0.284-0.286,0.411-0.272c0.084,0.01,0.167,0.184,0.261,0.226
				c0.098,0.042,0.244,0.061,0.279,0.131c0.068,0.127,0.009,0.334,0.091,0.418c0.094,0.104,0.211,0.226,0.319,0.286
				c0.112,0.062,0.329-0.122,0.455-0.089c0.122,0.028,0.211,0.376,0.343,0.39c0.126,0.01,0.274-0.39,0.406-0.39
				c0.127,0,0.256,0.291,0.387,0.296c0.127,0.005,0.266-0.314,0.392-0.31c0.127,0.004,0.239,0.291,0.361,0.295
				c0.122,0.005,0.251,0.005,0.378,0.015c0.127,0.005,0.239,0.174,0.366,0.183c0.126,0,0.274-0.366,0.396-0.356
				c0.127,0,0.251,0,0.378,0c0.127,0.01,0.244,0.164,0.371,0.169c0.129,0.005,0.251,0.221,0.374,0.221
				c0.126,0,0.253,0.042,0.382,0.042c0.127,0,0.258-0.052,0.385-0.052c0.129,0,0.261,0.01,0.392,0.005
				c0.129-0.005,0.261-0.065,0.387-0.07c0.127-0.005,0.261,0.005,0.392-0.005c0.126-0.009,0.234-0.272,0.361-0.291
				c0.129-0.009,0.242-0.112,0.369-0.122c0.126-0.019,0.284,0.179,0.411,0.155c0.126-0.023,0.265-0.015,0.387-0.042
				c0.126-0.028,0.258-0.043,0.382-0.075c0.122-0.038,0.16-0.338,0.284-0.385c0.122-0.038,0.312,0.122,0.429,0.075
				c0.118-0.048,0.136-0.301,0.256-0.362c0.113-0.051,0.425,0.259,0.538,0.192c0.113-0.061,0.113-0.314,0.221-0.389
				c0.108-0.071,0.225-0.127,0.329-0.202c0.096-0.085,0.159-0.207,0.258-0.296c0.094-0.084,0.373,0.01,0.465-0.084
				c0.089-0.095,0.152-0.212,0.225-0.296c0.089-0.094-0.009-0.338,0.059-0.432c0.08-0.104-0.019-0.287,0.031-0.376
				c0.063-0.122,0.211-0.141,0.23-0.249c0.019-0.122,0.103-0.225,0.054-0.338c-0.04-0.099-0.059-0.248-0.153-0.343
				c-0.073-0.075-0.258-0.047-0.366-0.126c-0.089-0.062-0.157-0.174-0.27-0.24c-0.099-0.056-0.136-0.234-0.253-0.291
				c-0.113-0.061-0.354,0.113-0.467,0.048c-0.108-0.066-0.117-0.291-0.218-0.366c-0.103-0.07-0.099-0.282-0.197-0.357
				c-0.099-0.079-0.265-0.061-0.361-0.146c-0.099-0.079-0.413,0.075-0.5-0.009c-0.094-0.09,0.028-0.39-0.059-0.483
				c-0.089-0.094-0.157-0.192-0.239-0.291c-0.084-0.094-0.152-0.197-0.23-0.291c-0.08-0.099-0.247-0.132-0.319-0.23
				c-0.073-0.104,0.04-0.323-0.028-0.432c-0.071-0.108-0.162-0.183-0.226-0.296c-0.065-0.104-0.27-0.136-0.329-0.249
				c-0.059-0.112-0.289-0.146-0.342-0.258c-0.054-0.112-0.085-0.253-0.127-0.366c-0.049-0.122-0.152-0.225-0.192-0.347
				c-0.038-0.113,0.293-0.357,0.26-0.479c-0.035-0.122-0.437-0.15-0.46-0.271c-0.03-0.122,0.385-0.334,0.361-0.461
				c-0.019-0.121-0.073-0.229-0.089-0.356c-0.014-0.127-0.439-0.211-0.448-0.338c-0.012-0.127,0.263-0.263,0.263-0.395
				c0-0.122,0.044-0.244,0.049-0.37c0.005-0.127-0.035-0.249-0.023-0.376c0.014-0.127,0.038-0.244,0.063-0.371
				c0.019-0.121,0.146-0.225,0.171-0.347c0.028-0.122-0.075-0.272-0.04-0.395s0.126-0.221,0.171-0.338
				c0.044-0.117-0.181-0.343-0.131-0.46s0.162-0.211,0.22-0.328c0.054-0.113,0.122-0.23,0.186-0.339
				c0.063-0.112,0.063-0.258,0.127-0.365c0.063-0.108,0.225-0.16,0.293-0.272c0.063-0.113,0.017-0.296,0.085-0.404
				c0.068-0.107,0.361-0.065,0.429-0.178c0.07-0.104,0.183-0.184,0.251-0.286c0.073-0.104,0.146-0.207,0.221-0.306
				c0.073-0.104,0.038-0.291,0.118-0.39c0.077-0.099,0.333-0.052,0.415-0.154c0.082-0.094-0.082-0.408,0.005-0.503
				c0.089-0.089,0.455,0.09,0.544-0.004c0.087-0.085,0.091-0.259,0.186-0.348c0.094-0.089,0.244-0.099,0.342-0.179
				c0.099-0.079,0.157-0.192,0.258-0.272c0.104-0.074,0.183-0.169,0.291-0.239c0.101-0.07,0.195-0.154,0.303-0.221
				c0.108-0.065,0.244-0.065,0.357-0.121c0.112-0.057,0.134-0.301,0.251-0.357c0.113-0.047,0.272,0.01,0.396-0.037
				c0.118-0.042,0.141-0.376,0.268-0.413c0.117-0.038,0.31,0.136,0.437,0.107c0.094-0.023,0.2-0.094,0.298-0.197
				c0.084-0.089,0.234-0.149,0.293-0.253c0.08-0.146,0.08-0.329,0.054-0.399c-0.049-0.126-0.181-0.216-0.23-0.338
				s-0.2-0.206-0.253-0.328c-0.054-0.122-0.134-0.226-0.188-0.348c-0.051-0.122-0.077-0.258-0.131-0.38
				c-0.054-0.122,0.143-0.356,0.084-0.475c-0.054-0.122-0.054-0.271-0.113-0.385c-0.059-0.122-0.289-0.159-0.347-0.276
				s-0.247-0.174-0.305-0.296c-0.059-0.112-0.063-0.263-0.122-0.38c-0.059-0.118-0.117-0.24-0.176-0.357
				c-0.054-0.113,0.082-0.324,0.03-0.437c-0.054-0.113-0.232-0.165-0.284-0.277c-0.054-0.113-0.094-0.24-0.148-0.348
				c-0.054-0.113-0.117-0.221-0.171-0.333c-0.054-0.113-0.279-0.141-0.333-0.263c-0.054-0.112-0.153-0.207-0.207-0.314
				c-0.052-0.112,0.152-0.352,0.103-0.464c-0.054-0.113-0.366-0.113-0.416-0.226c-0.049-0.108-0.004-0.272-0.054-0.385
				s-0.045-0.253-0.094-0.371c-0.049-0.113-0.054-0.249-0.101-0.362c-0.049-0.117-0.054-0.253-0.104-0.366
				c-0.049-0.113-0.075-0.235-0.117-0.357c-0.044-0.113-0.108-0.225-0.152-0.338c-0.045-0.122,0.049-0.286,0.004-0.404
				c-0.044-0.117-0.479-0.089-0.523-0.207c-0.044-0.117,0.333-0.38,0.289-0.502c-0.04-0.118-0.162-0.207-0.202-0.329
				c-0.038-0.118-0.303-0.165-0.342-0.277c-0.038-0.122-0.165-0.216-0.205-0.338c-0.04-0.112,0.298-0.347,0.263-0.469
				c-0.033-0.112-0.223-0.197-0.258-0.31c-0.035-0.122-0.026-0.253-0.059-0.375c-0.035-0.122-0.235-0.197-0.265-0.319
				c-0.028-0.122-0.014-0.253-0.038-0.375c-0.031-0.122-0.207-0.207-0.237-0.329c-0.023-0.126-0.033-0.253-0.059-0.375
				c-0.023-0.122,0.369-0.324,0.343-0.451c-0.023-0.122-0.167-0.22-0.19-0.342s-0.19-0.226-0.211-0.348
				c-0.019-0.122,0.021-0.253,0-0.38c-0.019-0.122,0.176-0.277,0.162-0.399c-0.019-0.122-0.221-0.22-0.235-0.342
				s-0.152-0.23-0.167-0.357c-0.014-0.126,0.113-0.263,0.099-0.394c-0.014-0.122-0.289-0.216-0.303-0.338
				c-0.017-0.122,0.122-0.263,0.105-0.39c-0.014-0.122-0.113-0.24-0.127-0.361c-0.014-0.122-0.009-0.249-0.023-0.371
				c-0.016-0.126,0.249-0.277,0.235-0.404c-0.014-0.122-0.392-0.211-0.401-0.333c-0.014-0.122,0.357-0.286,0.347-0.413
				c-0.014-0.122,0.045-0.253,0.036-0.375c-0.017-0.122-0.08-0.244-0.094-0.366s-0.279-0.221-0.289-0.347
				c-0.014-0.122-0.143-0.235-0.157-0.361c-0.014-0.122,0.293-0.277,0.279-0.409c-0.014-0.122-0.361-0.216-0.378-0.338
				c-0.014-0.122-0.004-0.249-0.014-0.371c-0.014-0.136,0.132-0.348,0.207-0.493c0.068-0.131,0.416-0.141,0.47-0.272
				c0.044-0.113-0.132-0.31-0.084-0.422c0.044-0.104,0.22-0.16,0.265-0.272c0.044-0.103,0.162-0.188,0.207-0.3
				c0.044-0.103,0.096-0.211,0.141-0.319s-0.113-0.3-0.068-0.408c0.044-0.108,0.108-0.211,0.152-0.314
				c0.042-0.113,0.209-0.268,0.253-0.375c-0.126-0.038-0.312-0.216-0.434-0.239c-0.129-0.023-0.296,0.221-0.422,0.216
				c-0.131-0.005-0.244,0.061-0.371,0.07c-0.129,0.009-0.284-0.207-0.408-0.183c-0.126,0.019-0.272-0.014-0.396,0.014
				c-0.122,0.028-0.209,0.23-0.331,0.263c-0.125,0.038-0.197,0.268-0.319,0.301c-0.122,0.037-0.324-0.254-0.45-0.226
				c-0.122,0.028-0.23,0.117-0.357,0.131c-0.126,0.019-0.244,0.211-0.373,0.216c-0.127,0-0.275,0.014-0.401,0
				c-0.122-0.014-0.258-0.084-0.387-0.126c-0.127-0.033-0.239-0.07-0.371-0.099c-0.126-0.023-0.211-0.375-0.338-0.394
				c-0.126-0.01-0.303,0.45-0.437,0.441c-0.126-0.009-0.244-0.146-0.375-0.146c-0.129,0-0.26-0.202-0.392-0.202
				c-0.127,0-0.265-0.113-0.397-0.104c-0.126,0-0.26,0.075-0.392,0.084c-0.127,0.01-0.261-0.009-0.392,0
				c-0.126,0.01-0.244,0.301-0.371,0.305c-0.134,0.009-0.27-0.155-0.404-0.146c-0.131,0.005-0.263-0.019-0.395-0.019
				C9.623,6.698,9.514,6.801,9.383,6.801z M29.309,25.088c0.03,0.136,0.206,0.197,0.234,0.319c0.03,0.131-0.162,0.31-0.131,0.441
				c0.027,0.131,0.22,0.216,0.243,0.338c0.031,0.131,0.06,0.263,0.085,0.39c0.028,0.131-0.05,0.277-0.021,0.408
				c0.026,0.122,0.035,0.253,0.055,0.385c0.021,0.122-0.078,0.249-0.073,0.38c0.005,0.122,0.298,0.258,0.289,0.39
				c-0.01,0.122-0.329,0.216-0.353,0.338c-0.019,0.122-0.094,0.226-0.122,0.348c-0.03,0.122,0.244,0.338,0.204,0.46
				c-0.037,0.122,0.012,0.286-0.042,0.403c-0.049,0.117-0.535,0.028-0.594,0.141c-0.059,0.113,0.063,0.314-0.005,0.423
				c-0.067,0.107-0.059,0.272-0.131,0.375c-0.08,0.099-0.157,0.212-0.247,0.301c-0.087,0.094-0.126,0.272-0.223,0.348
				c-0.104,0.084-0.333-0.005-0.441,0.056c-0.113,0.062-0.266-0.009-0.383,0.028c-0.117,0.033-0.216,0.146-0.338,0.179
				c-0.122,0.037-0.235,0.094-0.352,0.131c-0.122,0.033-0.244,0.043-0.369,0.075c-0.122,0.028-0.239,0.08-0.356,0.108
				c-0.122,0.032-0.27-0.052-0.392-0.019c-0.122,0.027-0.268-0.043-0.392-0.005c-0.122,0.032-0.19,0.249-0.312,0.281
				c-0.122,0.038-0.289-0.094-0.411-0.061c-0.117,0.032-0.216,0.164-0.333,0.201c-0.118,0.038-0.279-0.037-0.397,0.01
				c-0.122,0.037-0.162,0.319-0.279,0.361c-0.117,0.042-0.234,0.099-0.352,0.141c-0.117,0.052-0.157,0.277-0.274,0.324
				s-0.343-0.137-0.455-0.085c-0.113,0.057-0.226,0.118-0.338,0.179c-0.112,0.057-0.181,0.197-0.289,0.263
				c-0.112,0.065-0.202,0.15-0.314,0.216c-0.105,0.066-0.272,0.038-0.38,0.108c-0.108,0.07-0.329-0.019-0.432,0.052
				c-0.103,0.075-0.199,0.174-0.298,0.253c-0.099,0.075,0.023,0.432-0.073,0.517c-0.099,0.084-0.167,0.188-0.261,0.272
				c-0.094,0.084-0.432-0.09-0.519,0c-0.089,0.084-0.195,0.169-0.284,0.263c-0.089,0.094-0.014,0.333-0.098,0.432
				c-0.083,0.094-0.054,0.277-0.132,0.376c-0.077,0.098-0.464-0.038-0.54,0.065c-0.073,0.104,0.139,0.413,0.07,0.517
				c-0.075,0.107-0.117,0.216-0.183,0.323c-0.063,0.108-0.342,0.104-0.394,0.216c-0.061,0.113,0.181,0.361,0.131,0.479
				c-0.049,0.117-0.261,0.164-0.305,0.286c-0.042,0.112-0.141,0.216-0.176,0.338c-0.033,0.122,0.094,0.286,0.07,0.408
				c-0.031,0.122,0.014,0.249-0.005,0.38c-0.021,0.122-0.251,0.216-0.265,0.338c-0.014,0.132-0.131,0.254-0.138,0.381
				c-0.005,0.126,0.31,0.253,0.31,0.38c0.005,0.127-0.256,0.263-0.244,0.395c0.009,0.122,0.009,0.258,0.023,0.385
				s0.176,0.229,0.195,0.352c0.026,0.122-0.131,0.296-0.096,0.418c0.028,0.122-0.026,0.277,0.014,0.399
				c0.04,0.126,0.382,0.146,0.425,0.258c0.044,0.122,0.016,0.268,0.07,0.385c0.049,0.117,0.122,0.221,0.181,0.333
				c0.059,0.113,0.274,0.132,0.338,0.239c0.063,0.108-0.207,0.423-0.134,0.535c0.07,0.104,0.134,0.226,0.211,0.329
				c0.08,0.104,0.446-0.028,0.528,0.07c0.084,0.099,0.059,0.277,0.148,0.371s0.127,0.234,0.221,0.323
				c0.094,0.085,0.27,0.08,0.366,0.155c0.099,0.084,0.162,0.206,0.265,0.281c0.103,0.075,0.108,0.311,0.216,0.376
				c0.108,0.07,0.209,0.169,0.321,0.226c0.113,0.061,0.232,0.121,0.345,0.173c0.11,0.052,0.258,0.062,0.371,0.113
				c0.113,0.052,0.275,0.014,0.388,0.061c0.117,0.052,0.303-0.084,0.42-0.042s0.148,0.338,0.265,0.38
				c0.117,0.038,0.317-0.169,0.437-0.131c0.122,0.037,0.171,0.314,0.293,0.347c0.122,0.038,0.321-0.239,0.439-0.206
				c0.124,0.028,0.178,0.356,0.3,0.38s0.258,0.005,0.38,0.023c0.125,0.023,0.237,0.117,0.359,0.141
				c0.122,0.02,0.263-0.047,0.385-0.027c0.125,0.019,0.251,0.019,0.378,0.037c0.122,0.019,0.225,0.221,0.352,0.234
				c0.122,0.02,0.284-0.258,0.406-0.248c0.125,0.014,0.226,0.258,0.354,0.276c0.122,0.01,0.263-0.131,0.385-0.122
				c0.129,0.01,0.251,0.038,0.374,0.042c0.126,0.01,0.26-0.164,0.387-0.154c0.126,0.009,0.23,0.338,0.357,0.338
				c0.127,0.01,0.249,0.065,0.373,0.075c0.122,0.009,0.263-0.263,0.39-0.259c0.129,0.005,0.261-0.154,0.383-0.146
				c0.127,0,0.251,0.057,0.373,0.062c0.132,0.005,0.249,0.328,0.375,0.333c0.134,0.005,0.266-0.023,0.397-0.019
				c0.134,0,0.265,0.047,0.396,0.047c0.134,0,0.265-0.216,0.392-0.216c0.132,0,0.261-0.038,0.392-0.042
				c0.132,0,0.266,0.164,0.397,0.154c0.131,0,0.263-0.042,0.394-0.047c0.132-0.005,0.254-0.136,0.39-0.141
				c0.132-0.01,0.263,0.075,0.399,0.075c0.131-0.01,0.263,0.141,0.395,0.141c0.131-0.009,0.258,0.015,0.394,0.01
				c0.122,0,0.244-0.066,0.376-0.066c0.122,0,0.248,0.028,0.375,0.028s0.244-0.268,0.371-0.268s0.258,0.122,0.38,0.117
				c0.122,0,0.254,0.217,0.381,0.212c0.126-0.005,0.244-0.399,0.366-0.399c0.126,0,0.258,0.296,0.38,0.296
				c0.131,0,0.244-0.324,0.375-0.328c0.127-0.005,0.254,0.295,0.381,0.295c0.126-0.009,0.258,0.047,0.38,0.047
				c0.122-0.004,0.244-0.136,0.366-0.141s0.253,0.028,0.38,0.028c0.127-0.005,0.249-0.084,0.381-0.084
				c0.121,0,0.253,0.178,0.375,0.178c0.132-0.005,0.249-0.328,0.371-0.333c0.127-0.005,0.253,0.146,0.38,0.146
				c0.132-0.01,0.254-0.085,0.376-0.085c0.131,0,0.258,0.165,0.385,0.16c0.126-0.005,0.248,0.014,0.375,0.009
				c0.132-0.004,0.244-0.258,0.366-0.263c0.122-0.009,0.263,0.329,0.39,0.329c0.127-0.01,0.239-0.413,0.361-0.418
				s0.263,0.286,0.385,0.277c0.122,0,0.169-0.348,0.286-0.39c0.118-0.043,0.329,0.164,0.446,0.112s0.226-0.108,0.338-0.146
				c0.127-0.037,0.197,0.104,0.319,0.122s0.291-0.338,0.413-0.324c0.122,0.01,0.234,0.005,0.356,0.01s0.244,0.155,0.366,0.155
				c0.122-0.01,0.268,0.192,0.39,0.178c0.122-0.014,0.268,0.005,0.39-0.019c0.122-0.028,0.244-0.104,0.356-0.132
				c0.122-0.027,0.259-0.061,0.371-0.099c0.117-0.042,0.226-0.136,0.338-0.183s0.244-0.085,0.352-0.136
				c0.113-0.052,0.104-0.338,0.207-0.399c0.112-0.061,0.164-0.192,0.268-0.263c0.104-0.065,0.324,0.047,0.427-0.023
				c0.094-0.075,0.216-0.122,0.319-0.202c0.094-0.084,0.207-0.15,0.31-0.234c0.094-0.085,0-0.376,0.099-0.465
				c0.094-0.089,0.338-0.014,0.432-0.104c0.095-0.089,0.02-0.338,0.108-0.427c0.085-0.094,0.483,0.099,0.572,0.01
				c0.085-0.095,0.01-0.339,0.095-0.441c0.084-0.094,0.178-0.179,0.258-0.282c0.08-0.103,0.104-0.239,0.183-0.347
				c0.075-0.104,0.361-0.066,0.433-0.179c0.065-0.104,0.103-0.244,0.169-0.356c0.065-0.113-0.08-0.338-0.015-0.451
				c0.062-0.112-0.052-0.3,0-0.422c0.052-0.113,0.226-0.169,0.272-0.291c0.052-0.117,0.188-0.197,0.229-0.324
				c0.047-0.127,0.16-0.229,0.197-0.352c0.038-0.127-0.056-0.291-0.028-0.413c0.028-0.132,0.113-0.244,0.137-0.376
				c0.023-0.131,0.174-0.244,0.192-0.371c0.01-0.131-0.244-0.286-0.234-0.417c0.009-0.132,0.192-0.254,0.192-0.385
				c0-0.132,0.178-0.282,0.164-0.404c-0.01-0.136-0.132-0.263-0.15-0.394c-0.014-0.132-0.356-0.212-0.375-0.339
				c-0.023-0.126,0.243-0.314,0.22-0.44c-0.032-0.127-0.042-0.264-0.079-0.395c-0.033-0.122-0.066-0.254-0.104-0.38
				c-0.037-0.122-0.188-0.212-0.234-0.334c-0.043-0.126,0.112-0.328,0.061-0.45s-0.146-0.234-0.202-0.348
				c-0.056-0.112-0.271-0.154-0.333-0.268c-0.061-0.112-0.296-0.117-0.361-0.225c-0.065-0.108-0.117-0.221-0.197-0.329
				c-0.075-0.104-0.197-0.164-0.276-0.258c-0.085-0.099,0.126-0.451,0.037-0.55c-0.089-0.094-0.45,0.08-0.54-0.014
				c-0.094-0.089,0.113-0.507,0.02-0.592c-0.104-0.084-0.235-0.149-0.329-0.225c-0.104-0.08-0.46,0.174-0.559,0.094
				c-0.104-0.07-0.052-0.376-0.164-0.441c-0.104-0.07-0.197-0.179-0.31-0.244c-0.113-0.061-0.244-0.084-0.366-0.146
				c-0.112-0.061-0.226-0.131-0.338-0.183c-0.122-0.062-0.197-0.207-0.31-0.264c-0.122-0.051-0.296,0.02-0.413-0.027
				c-0.118-0.047-0.221-0.146-0.343-0.197c-0.122-0.042-0.338,0.188-0.46,0.15c-0.122-0.038-0.221-0.142-0.348-0.179
				c-0.122-0.038-0.244-0.075-0.371-0.108c-0.131-0.032-0.281-0.004-0.403-0.042c-0.127-0.037-0.226-0.188-0.352-0.234
				c-0.127-0.038-0.306,0.047-0.428,0c-0.122-0.038-0.15-0.348-0.272-0.395s-0.225-0.146-0.342-0.197
				c-0.118-0.056-0.235-0.112-0.353-0.174c-0.117-0.061-0.301,0-0.418-0.061c-0.112-0.065-0.107-0.329-0.211-0.39
				c-0.112-0.062-0.395,0.146-0.497,0.084c-0.108-0.07,0.004-0.464-0.099-0.539c-0.108-0.075-0.277-0.047-0.371-0.122
				c-0.104-0.08-0.141-0.221-0.23-0.306c-0.099-0.079-0.216-0.122-0.305-0.211c-0.085-0.094-0.188-0.155-0.272-0.253
				c-0.08-0.095-0.159-0.179-0.234-0.282c-0.065-0.107-0.065-0.234-0.122-0.348c-0.052-0.112-0.296-0.141-0.338-0.263
				c-0.038-0.122,0.047-0.272,0.023-0.398c-0.023-0.122-0.343-0.216-0.353-0.348c-0.009-0.126,0.207-0.268,0.216-0.399
				c0-0.122,0.033-0.244,0.048-0.375c0.019-0.122,0.121-0.225,0.159-0.357c0.028-0.117,0.01-0.253,0.047-0.375
				c0.037-0.131-0.037-0.267-0.057-0.394c-0.014-0.136-0.141-0.178-0.206-0.282c-0.08-0.122-0.075-0.103-0.207-0.112
				c-0.103-0.019-0.112-0.047-0.244,0.047c-0.112,0.075-0.365-0.089-0.469-0.038c-0.122,0.065-0.244,0.047-0.356,0.084
				c-0.122,0.047-0.188,0.253-0.311,0.277c-0.122,0.019-0.253,0.174-0.38,0.174s-0.263-0.075-0.39-0.094
				c-0.122-0.019-0.254-0.042-0.385-0.07c-0.122-0.033-0.184-0.277-0.31-0.31c-0.122-0.033-0.282,0.051-0.404,0.014
				c-0.117-0.042-0.263-0.066-0.422-0.052c-0.132,0.014-0.282,0.061-0.408,0.113c-0.146,0.061-0.137,0.267-0.226,0.356
				c-0.104,0.104-0.211,0.258-0.31,0.314c-0.122,0.075-0.371-0.141-0.483-0.122c-0.132,0.014-0.319,0.272-0.441,0.239
				c-0.117-0.033-0.23-0.202-0.348-0.258c-0.112-0.061-0.197-0.183-0.31-0.244c-0.117-0.061-0.207-0.16-0.319-0.197
				c-0.122-0.047-0.244-0.113-0.371-0.089c-0.117,0.019-0.248,0.033-0.361,0.08c-0.107,0.042-0.211,0.122-0.319,0.183
				c-0.103,0.061-0.281,0.004-0.385,0.07c-0.103,0.066,0.005,0.488-0.099,0.544c-0.107,0.061-0.396-0.286-0.509-0.253
				c-0.112,0.038-0.172,0.141-0.293,0.15c-0.113,0-0.256,0.225-0.383,0.197c-0.108-0.028-0.289,0.01-0.406-0.056
				s-0.089-0.469-0.229-0.516c-0.118-0.047-0.303,0.065-0.456,0.019C29.578,25.149,29.456,25.144,29.309,25.088z M26.431,48.51
				c0.014,0.131,0.131,0.141,0.146,0.271c0.138,0.048,0.152,0.291,0.289,0.291c0.127,0,0.251-0.159,0.378-0.159
				c0.126,0,0.249,0,0.375,0c0.129,0,0.256,0.104,0.378,0.104c0.127,0,0.256,0.014,0.378,0.014c0.127,0,0.254,0.113,0.376,0.113
				c0.129,0,0.251-0.296,0.378-0.296c0.126-0.01,0.253,0.305,0.382,0.305c0.127,0,0.254,0.052,0.376,0.052s0.251-0.328,0.378-0.328
				s0.249-0.108,0.378-0.108c0.127,0,0.253,0.474,0.38,0.474s0.251-0.216,0.378-0.216s0.249-0.107,0.376-0.107
				c0.129,0,0.251-0.015,0.38-0.015c0.122,0,0.244-0.107,0.375-0.107c0.127,0,0.254,0.202,0.376,0.197
				c0.131,0,0.253,0.117,0.375,0.117s0.254-0.085,0.381-0.085c0.126,0,0.248-0.027,0.375-0.027s0.259,0.014,0.381,0.014
				s0.243-0.014,0.375-0.014c0.127,0,0.254,0.112,0.376,0.112s0.253,0.104,0.375,0.104s0.254-0.192,0.376-0.192
				c0.131,0,0.258,0.173,0.38,0.173c0.127,0,0.249-0.103,0.38-0.103c0.122,0,0.254,0.122,0.376,0.112
				c0.122,0,0.248-0.244,0.375-0.244s0.249-0.009,0.376-0.009c0.131,0,0.253-0.197,0.375-0.197c0.132,0,0.259,0.263,0.385,0.263
				c0.127,0,0.249-0.01,0.376-0.01c0.131,0,0.253-0.099,0.375-0.099c0.132,0,0.254-0.032,0.381-0.032s0.253,0.103,0.375,0.103
				s0.259,0.197,0.381,0.197c0.131,0,0.253-0.023,0.38-0.023s0.249-0.356,0.375-0.361c0.127-0.005,0.249-0.037,0.381-0.037
				c0.122,0,0.253,0.347,0.38,0.347s0.254,0.023,0.376,0.02c0.126,0,0.248-0.217,0.38-0.217c0.122,0,0.244-0.141,0.375-0.141
				c0.127,0,0.254,0.385,0.381,0.385c0.126,0,0.248-0.352,0.38-0.352c0.122,0,0.244-0.019,0.376-0.019
				c0.126,0,0.253,0.244,0.38,0.244s0.249-0.324,0.38-0.329c0.122,0,0.234,0.113,0.356,0.033c0.113-0.085,0.272-0.141,0.386-0.207
				c-0.09-0.056-0.301-0.037-0.386-0.112c-0.094-0.07-0.206-0.085-0.295-0.141c-0.108-0.075-0.104-0.31-0.212-0.301
				c-0.122,0-0.248-0.104-0.37-0.099c-0.127,0.005-0.226,0.329-0.343,0.338c-0.122,0.01-0.263-0.248-0.385-0.234
				c-0.122,0.01-0.249,0.005-0.371,0.019c-0.122,0.015-0.23,0.164-0.348,0.174c-0.122,0.019-0.258-0.159-0.38-0.146
				s-0.254-0.07-0.376-0.061c-0.122,0.014-0.216,0.338-0.328,0.347c-0.122,0.015-0.254-0.061-0.376-0.052
				c-0.121,0.015-0.239,0.043-0.361,0.052c-0.122,0.015-0.225,0.207-0.347,0.216c-0.122,0.01-0.277-0.366-0.399-0.356
				s-0.244,0-0.366,0.01c-0.126,0.009-0.216,0.39-0.338,0.398c-0.122,0.01-0.253-0.117-0.375-0.107
				c-0.122,0.009-0.249-0.057-0.371-0.047c-0.127,0.009-0.239,0.136-0.361,0.146c-0.122,0.009-0.244-0.043-0.366-0.043
				c-0.122,0.01-0.254-0.183-0.376-0.178c-0.121,0.004-0.239-0.023-0.361-0.023s-0.239,0.004-0.361,0.004
				c-0.131,0-0.253,0.057-0.385,0.057c-0.122,0-0.258,0.089-0.385,0.085c-0.127-0.005-0.263,0.188-0.395,0.178
				c-0.122,0-0.244-0.271-0.366-0.276c-0.131-0.005-0.271,0.248-0.398,0.239c-0.127-0.01-0.249-0.268-0.371-0.277
				c-0.131-0.009-0.276,0.296-0.408,0.286c-0.127-0.009-0.234-0.318-0.371-0.328c-0.122-0.01-0.253,0.037-0.385,0.028
				c-0.127-0.01-0.249-0.089-0.38-0.099c-0.127-0.01-0.268,0.08-0.39,0.07c-0.132-0.01-0.263,0-0.39-0.01
				c-0.127-0.009-0.244-0.206-0.376-0.216c-0.133,0-0.274,0.277-0.4,0.272c-0.13-0.005-0.247-0.249-0.374-0.253
				c-0.131-0.01-0.274,0.141-0.405,0.136c-0.132-0.005-0.266-0.023-0.401-0.033c-0.132,0-0.271,0.179-0.401,0.179
				c-0.134,0-0.266-0.319-0.401-0.319c-0.134,0-0.271-0.052-0.401-0.052c-0.134,0-0.261,0.286-0.392,0.286
				c-0.134,0.01-0.261,0.179-0.393,0.184c-0.122,0.005-0.244-0.028-0.368-0.019c-0.122,0.009-0.277-0.287-0.402-0.277
				c-0.122,0.019-0.244,0.062-0.366,0.08c-0.122,0.014-0.249-0.005-0.373,0.009c-0.122,0.023-0.213,0.239-0.338,0.259
				C26.654,48.51,26.553,48.5,26.431,48.51z M8.486,5.158c0.084,0.065,0.23-0.038,0.359,0.023C8.946,5.224,8.977,5.477,9.104,5.52
				C9.216,5.552,9.374,5.426,9.5,5.454c0.117,0.023,0.23,0.052,0.356,0.075c0.117,0.019,0.226,0.141,0.354,0.155
				c0.117,0.019,0.239,0.047,0.366,0.057c0.122,0.014,0.234,0.141,0.361,0.146c0.122,0.009,0.265-0.277,0.392-0.268
				c0.122,0,0.23,0.319,0.356,0.319c0.125,0.01,0.251,0.061,0.373,0.061s0.249-0.324,0.378-0.324c0.122,0,0.244-0.108,0.371-0.108
				c0.122,0,0.26,0.474,0.382,0.465c0.122-0.005,0.244-0.216,0.366-0.226c0.125-0.004,0.246-0.117,0.368-0.122
				c0.122-0.004,0.249-0.028,0.371-0.038c0.129-0.009,0.242-0.122,0.364-0.131c0.126-0.009,0.268,0.174,0.392,0.165
				c0.126-0.01,0.263,0.094,0.385,0.084c0.129-0.014,0.242-0.113,0.368-0.127c0.127-0.019,0.244-0.065,0.366-0.08
				c0.129-0.019,0.256-0.019,0.373-0.038c0.127-0.023,0.244-0.057,0.366-0.08c0.129-0.023,0.27,0.066,0.392,0.047
				c0.122-0.028,0.274,0.047,0.392,0.019c0.126-0.028,0.206-0.244,0.324-0.282c0.126-0.033,0.298,0.094,0.411,0.057
				c0.122-0.038,0.221-0.174,0.329-0.211c0.122-0.052,0.303,0,0.401-0.052c0.122-0.061,0.112-0.329,0.199-0.399
				c-0.122-0.033-0.244-0.042-0.366-0.07c-0.126-0.023-0.284,0.141-0.411,0.117c-0.129-0.023-0.207-0.305-0.329-0.324
				c-0.126-0.023-0.255-0.038-0.382-0.056c-0.127-0.019-0.263,0.056-0.392,0.047c-0.126-0.019-0.253,0-0.38-0.014
				c-0.129-0.014-0.247-0.136-0.369-0.146c-0.126-0.009-0.239-0.221-0.366-0.225c-0.129-0.01-0.26,0.004-0.387,0
				c-0.126-0.005-0.265,0.347-0.392,0.342c-0.127-0.004-0.249,0.028-0.378,0.028c-0.127,0-0.253-0.357-0.38-0.352
				c-0.129,0-0.26-0.014-0.387-0.009c-0.127,0.004-0.244,0.225-0.373,0.23c-0.127,0.004-0.244,0.155-0.371,0.164
				C13.57,4.36,13.413,3.98,13.286,3.994c-0.129,0.009-0.221,0.366-0.35,0.385c-0.126,0.014-0.249,0.042-0.371,0.061
				c-0.127,0.014-0.284-0.211-0.411-0.192c-0.129,0.019-0.207,0.347-0.329,0.371c-0.127,0.019-0.279-0.136-0.401-0.117
				c-0.127,0.019-0.261-0.019-0.387,0.004c-0.122,0.024-0.216,0.211-0.343,0.235c-0.122,0.023-0.235,0.113-0.357,0.136
				c-0.122,0.028-0.293-0.16-0.417-0.131C9.798,4.773,9.648,4.698,9.524,4.726C9.402,4.754,9.353,5.092,9.23,5.121
				c-0.122,0.028-0.312-0.197-0.434-0.16C8.684,4.999,8.608,5.121,8.486,5.158z"/>
		</g>
	</g>
</g>
</svg>
