<?xml version="1.0" encoding="utf-8"?>
<!-- Generator: Adobe Illustrator 16.0.0, SVG Export Plug-In . SVG Version: 6.00 Build 0)  -->
<!DOCTYPE svg PUBLIC "-//W3C//DTD SVG 1.1//EN" "http://www.w3.org/Graphics/SVG/1.1/DTD/svg11.dtd">
<svg version="1.1" id="圖層_1" xmlns="http://www.w3.org/2000/svg" xmlns:xlink="http://www.w3.org/1999/xlink" x="0px" y="0px"
	 width="55px" height="55px" viewBox="0 0 55 55" enable-background="new 0 0 55 55" xml:space="preserve">
<g>
	<path fill="#9FBFC1" d="M20.046,30.316c1.001-1.741,0.443-3.303-0.225-4.862c-0.197-0.458-0.068-0.79,0.436-0.847
		c1.076-0.118,2.16-0.189,3.243-0.283c0.14-0.011,0.279-0.036,0.418-0.071c0.697-0.197,1.384-0.479,2.099-0.586
		c1.026-0.15,2.07-0.179,3.11-0.243c1.223-0.086,2.074,1.03,1.792,2.267c-0.079,0.343-0.064,0.737,0.003,1.087
		c0.15,0.78-0.794,2.414-1.655,2.717c-2.396,0.844-4.88,1.016-7.39,0.93C21.315,30.402,20.754,30.359,20.046,30.316z"/>
	<path fill="#9FBFC1" d="M37.222,24.982c0.064,0.801,0.093,1.602,0.2,2.399c0.09,0.658-0.107,0.983-0.79,1.116
		c-1.473,0.289-2.105-0.204-2.402-1.663c-0.422-2.074-1.362-3.804-3.594-4.498c-0.271-0.086-0.601-0.472-0.644-0.762
		c-0.129-0.818-0.129-1.659-0.149-2.492c-0.008-0.179,0.114-0.5,0.214-0.515c0.651-0.1,1.366-0.325,1.952-0.157
		c1.566,0.461,3.089,1.076,4.605,1.691c0.222,0.089,0.429,0.497,0.454,0.769c0.11,1.366,0.16,2.731,0.232,4.097
		C37.275,24.975,37.247,24.975,37.222,24.982z M35.22,22.215c0.357-0.365,0.575-0.583,0.794-0.808
		c-0.336-0.279-0.637-0.679-1.03-0.793c-0.192-0.057-0.543,0.393-0.822,0.611C34.479,21.521,34.798,21.814,35.22,22.215z
		 M32.781,20.728c-0.479-0.343-0.801-0.722-0.958-0.662c-0.314,0.111-0.529,0.472-0.787,0.729c0.232,0.211,0.458,0.586,0.69,0.59
		C32.002,21.385,32.273,21.063,32.781,20.728z"/>
	<path fill="#E29267" d="M45.002,20.284c-1.491,0.24-2.946,0.451-4.391,0.722c-0.179,0.036-0.422,0.386-0.429,0.594
		c-0.021,0.808,0.043,1.612,0.089,2.417c0.068,1.19,0.179,2.377,0.204,3.568c0.014,0.747-0.529,0.812-1.13,0.744
		c-0.329-0.036-0.658-0.008-1.13-0.008c-0.036-0.182-0.129-0.458-0.136-0.736c-0.093-2.138-0.172-4.28-0.243-6.421
		c-0.021-0.601,0.032-1.147,0.887-0.772c0.097,0.039,0.25,0.036,0.343-0.015c1.952-0.958,4.134-0.711,6.182-1.18
		c0.533-0.122,0.791,0.104,0.798,0.647c0.021,1.305,0.021,2.614,0.086,3.915c0.039,0.794,0.2,1.581,0.257,2.374
		c0.021,0.279-0.035,0.644-0.207,0.83c-0.215,0.232-0.586,0.318-0.894,0.465c-0.093-0.265-0.271-0.522-0.279-0.787
		C44.987,24.625,45.002,22.608,45.002,20.284z"/>
	<path fill="#6D635C" d="M44.944,18.296c-1.122,0.504-2.206,0.529-3.282,0.554c-0.493,0.011-1.051-0.097-1.469,0.097
		c-1.749,0.804-3.322,0.636-5.01-0.286c-1.201-0.658-2.624-0.912-3.89-1.323C34.222,14.557,41.806,15.146,44.944,18.296z"/>
	<path fill="#9FBFC1" d="M44.251,24.435c0,0.805-0.015,1.605,0.007,2.406c0.011,0.533-0.186,0.805-0.747,0.883
		c-2.62,0.375-2.249,0.693-2.452-1.963c-0.079-1.037-0.111-2.074-0.183-3.111c-0.054-0.744,0.183-1.129,1.008-1.223
		c2.367-0.257,2.367-0.293,2.367,2.117C44.251,23.838,44.251,24.139,44.251,24.435z"/>
	<path fill="#3A5489" d="M13.009,33.713c0.966-1.716,2.131-0.922,3.168-0.486c0.758,0.322,1.459,0.858,2.088,1.409
		c0.215,0.186,0.136,0.704,0.197,1.072c-0.271,0.043-0.576,0.187-0.815,0.107c-2.332-0.715-4.652-1.466-7.219-2.292
		c0.222-0.625,0.336-1.341,0.726-1.83c0.14-0.172,1.098,0.071,1.441,0.383C12.892,32.348,12.845,32.994,13.009,33.713z
		 M13.975,33.764c0.114,0.128,0.229,0.261,0.343,0.393c0.222-0.235,0.458-0.461,0.658-0.715c0.018-0.021-0.157-0.196-0.24-0.308
		C14.482,33.345,14.232,33.556,13.975,33.764z M16.099,33.534c-0.15-0.018-0.3-0.043-0.451-0.057
		c-0.071,0.3-0.139,0.601-0.207,0.908c0.179,0.007,0.504,0.057,0.522,0.018C16.042,34.124,16.063,33.828,16.099,33.534z"/>
	<path fill="#FFFFFF" d="M28.298,30.738c-0.071,0.368-0.133,0.697-0.146,0.769c-1.341,0.258-2.528,0.433-3.687,0.719
		c-1.587,0.394-3.15,0.88-4.727,1.316c-0.222,0.061-0.465,0.05-0.776,0.075c0.1-0.783,0.179-1.513,0.304-2.228
		c0.021-0.122,0.218-0.226,0.357-0.308c0.064-0.036,0.171-0.004,0.257,0.007c2.682,0.357,5.324-0.011,7.966-0.415
		C27.947,30.66,28.069,30.703,28.298,30.738z M19.967,32.834c0.085,0,0.165-0.004,0.243-0.004c0.079-0.218,0.243-0.45,0.218-0.654
		c-0.025-0.2-0.243-0.372-0.375-0.558c-0.107,0.222-0.264,0.433-0.293,0.658C19.746,32.455,19.896,32.647,19.967,32.834z"/>
	<path fill="#FFFFFF" d="M13.131,18.604c2.453,0.472,4.841,0.386,7.272,0.247c-0.847,1.076-1.698,2.177-3.067,2.353
		C15.548,21.436,14.175,20.506,13.131,18.604z"/>
	<path fill="#E29267" d="M16.124,30.506c0.547-0.482,0.926-0.732,1.194-1.068c0.873-1.087,0.887-2.056,0.186-3.34
		c-0.189-0.343-0.873-0.719-0.172-1.169c0.562-0.357,1.477-0.125,1.698,0.461c0.261,0.694,0.358,1.452,0.522,2.181
		c0.025,0.114,0.025,0.232,0.058,0.343c0.45,1.487-0.15,2.338-1.731,2.467C17.386,30.417,16.889,30.452,16.124,30.506z"/>
	<path fill="#FFFFFF" d="M12.581,27.557c0.214-1.445,0.729-1.913,2.017-1.752c0.114,0.014,0.236,0.007,0.35-0.004
		c0.343-0.025,0.801-0.218,1.008-0.064c0.476,0.35,0.979,0.804,1.19,1.326c0.39,0.965-0.296,2.345-1.355,2.545
		c-0.693,0.136-1.595-0.05-2.206-0.414C13.095,28.904,12.902,28.121,12.581,27.557z M13.739,27.546
		c0.079,0.318-0.061,1.055,0.772,1.122c0.851,0.072,1.58-0.528,1.577-1.226c-0.003-0.668-0.329-1.119-1.026-1.047
		C14.49,26.455,13.61,26.212,13.739,27.546z"/>
	<path fill="#3A5489" d="M30.919,23.23c1.505,0.793,2.284,2.102,2.656,3.679c0.357,1.517,0,2.01-1.559,2.199
		c-0.294,0.035-0.587,0.043-1.073,0.082C31.809,27.163,32.28,25.175,30.919,23.23z"/>
	<path fill="#3A5489" d="M38.73,29.315c2.374-0.404,4.655-0.794,6.939-1.184c0.176-0.032,0.354-0.071,0.529-0.057
		c0.329,0.024,0.897-0.304,0.852,0.36c-0.015,0.226-0.483,0.551-0.783,0.608c-2.152,0.394-4.322,0.683-6.464,1.098
		C39.01,30.292,38.773,30.034,38.73,29.315z"/>
	<path fill="#E29267" d="M13.152,30.206c1.405,0.318,2.717,0.697,4.047,0.89c1.055,0.154,1.402,0.465,1.208,1.474
		c-0.086,0.479-0.314,0.572-0.754,0.422c-1.348-0.472-2.707-0.915-4.051-1.384C12.47,31.211,12.43,31,13.152,30.206z"/>
	<path fill="#4C382B" d="M19.928,18.032c-2.281,0-4.426,0-6.718,0C15.019,16.08,18.137,15.747,19.928,18.032z"/>
	<path fill="#3A5489" d="M28.534,32.104c2.405-0.63,4.815-1.27,7.519-1.98c-0.357,0.485-0.555,1.058-0.861,1.126
		c-2.167,0.476-4.358,0.848-6.543,1.248C28.608,32.369,28.573,32.236,28.534,32.104z"/>
	<path fill="#6D635C" d="M17.457,24.045c-0.554,0.243-1.129,0.308-1.33-0.629c-0.011-0.057-0.058-0.107-0.079-0.164
		c-0.125-0.386-0.25-0.772-0.372-1.162c0.504-0.079,1.022-0.24,1.509-0.186c0.193,0.021,0.436,0.533,0.468,0.84
		C17.693,23.134,17.543,23.542,17.457,24.045z"/>
	<path fill="#3A5489" d="M19.173,35.086c0.172-0.268,0.293-0.708,0.522-0.779c1.652-0.493,3.333-0.915,5.002-1.352
		c0.04-0.007,0.089,0.054,0.257,0.165c-1.87,0.771-3.668,1.516-5.463,2.259C19.388,35.279,19.281,35.183,19.173,35.086z"/>
	<path fill="#FFFFFF" d="M37.923,30.103c0.11,0.179,0.436,0.468,0.472,0.786c0.058,0.594-0.751,1.358-1.28,1.201
		c-0.314-0.093-0.672-0.482-0.758-0.805C36.225,30.789,37.097,30.063,37.923,30.103z M37.394,30.241
		c-0.25,0.333-0.443,0.533-0.544,0.772c-0.021,0.054,0.372,0.39,0.443,0.351c0.232-0.125,0.437-0.34,0.572-0.568
		C37.901,30.742,37.622,30.503,37.394,30.241z"/>
	<path fill="#FFFFFF" d="M32.209,30.32c-0.973,0.269-1.744,0.508-2.538,0.683c-0.157,0.036-0.365-0.172-0.551-0.268
		c0.114-0.179,0.2-0.411,0.364-0.526c0.15-0.114,0.387-0.128,0.587-0.146c0.504-0.046,1.012-0.086,1.516-0.082
		C31.73,29.977,31.873,30.127,32.209,30.32z"/>
	<path fill="#FFFFFF" d="M26.546,33.992c0.894-0.818,0.887-0.958-0.036-1.388c0.018-0.078,0.036-0.164,0.05-0.243
		c0.408,0.118,0.873,0.144,1.18,0.383c0.15,0.118,0.114,0.719-0.05,0.934c-0.232,0.293-0.665,0.433-1.016,0.636
		C26.632,34.207,26.589,34.1,26.546,33.992z"/>
	<path fill="#FFFFFF" d="M14.912,25.39c-0.329-0.458-0.665-0.758-0.611-0.872c0.175-0.361,0.493-0.651,0.758-0.969
		c0.168,0.172,0.508,0.39,0.476,0.511C15.441,24.446,15.205,24.796,14.912,25.39z"/>
	<path fill="#FFFFFF" d="M46.847,30.07c-0.265,0.143-0.515,0.297-0.786,0.411c-0.047,0.018-0.179-0.176-0.265-0.269
		c0.271-0.179,0.543-0.361,0.818-0.54C46.693,29.802,46.771,29.938,46.847,30.07z"/>
	<g>
		<g>
			<path d="M20.153,39.395c-0.086,0.007-0.312-0.039-0.401-0.032s-0.179,0.032-0.268,0.039c-0.089,0.008-0.175,0.054-0.265,0.062
				c-0.089,0.007-0.157,0.293-0.247,0.3s-0.208-0.293-0.293-0.282c-0.093,0.007-0.172,0.097-0.265,0.104
				c-0.086,0.007-0.079-0.075-0.172-0.068c-0.028-0.085-0.036,0.019-0.068-0.061c0.079-0.054,0.132-0.021,0.211-0.078
				c0.072-0.054,0.068-0.215,0.146-0.265c0.083-0.051,0.147-0.107,0.24-0.133c0.089-0.024,0.208,0.047,0.3,0.021
				c0.093-0.024,0.14-0.2,0.232-0.225c0.089-0.029,0.193-0.015,0.283-0.036c0.093-0.025,0.143-0.211,0.232-0.236
				c0.089-0.021,0.232,0.15,0.325,0.129c0.093-0.021,0.197-0.007,0.29-0.028s0.132-0.247,0.225-0.271
				c0.093-0.021,0.218,0.085,0.308,0.064c0.089-0.021,0.193-0.021,0.279-0.047c0.093-0.025,0.172-0.09,0.265-0.118
				c0.086-0.025,0.143-0.179,0.232-0.207c0.089-0.029,0.265,0.229,0.357,0.2c0.097-0.029,0.068-0.357,0.157-0.408
				c0.086-0.043,0.168-0.067,0.254-0.125c0.083-0.054,0.172-0.093,0.254-0.146c0.083-0.057,0.068-0.039,0.154-0.093
				c-0.061-0.079,0.157-0.236,0.093-0.314c-0.061-0.082-0.264-0.064-0.325-0.146c-0.064-0.083,0.007-0.269-0.061-0.351
				c-0.064-0.082-0.19-0.118-0.258-0.204c-0.057-0.064-0.064-0.172-0.125-0.239c-0.057-0.064-0.265-0.004-0.322-0.075
				c-0.054-0.064-0.104-0.143-0.161-0.215c-0.05-0.067-0.007-0.211-0.058-0.286c-0.05-0.063-0.146-0.106-0.193-0.189
				c-0.046-0.067-0.086-0.211-0.136-0.296c-0.083,0.057-0.186,0.164-0.272,0.218c-0.079,0.054-0.239-0.018-0.322,0.032
				c-0.082,0.054-0.104,0.193-0.182,0.25c-0.079,0.054-0.125,0.165-0.204,0.215c-0.085,0.05-0.093,0.207-0.179,0.261
				c-0.079,0.054-0.196,0.054-0.279,0.104c-0.079,0.054-0.122,0.168-0.2,0.222c-0.079,0.05-0.161,0.107-0.239,0.157
				c-0.083,0.054-0.24-0.014-0.318,0.036s-0.197,0.028-0.286,0.071c-0.1,0.043-0.208,0.314-0.29,0.29
				c-0.093-0.025-0.161-0.14-0.254-0.165c-0.093-0.024-0.168-0.11-0.257-0.14c-0.093-0.021-0.136-0.218-0.229-0.242
				c-0.093-0.029-0.211,0.05-0.3,0.021c-0.093-0.028-0.214,0.051-0.308,0.021c-0.093-0.024-0.143-0.186-0.236-0.211
				c-0.086-0.024-0.204,0.019-0.293-0.007s-0.197-0.004-0.29-0.032c-0.093-0.024-0.189-0.043-0.275-0.071
				c-0.093-0.021-0.14-0.207-0.232-0.232c-0.093-0.025-0.257,0.211-0.351,0.183c-0.093-0.029-0.15-0.176-0.239-0.2
				c-0.097-0.029-0.172-0.136-0.269-0.157c-0.096-0.021-0.211,0.011-0.304-0.015c-0.1-0.015-0.165-0.193-0.265-0.215
				c-0.093-0.018-0.239,0.187-0.336,0.165c-0.1-0.021-0.193-0.064-0.286-0.094c-0.1-0.021-0.165-0.164-0.257-0.189
				c-0.1-0.024-0.243,0.086-0.336,0.054c-0.086-0.032-0.172-0.086-0.258-0.117c-0.085-0.032-0.079-0.297-0.164-0.333
				c-0.086-0.036-0.286,0.2-0.372,0.164c-0.079-0.035-0.129-0.164-0.211-0.203c-0.082-0.04-0.14-0.144-0.218-0.183
				c-0.085-0.043-0.196-0.021-0.279-0.064c-0.079-0.043-0.096-0.222-0.182-0.265c-0.083-0.043-0.186-0.043-0.272-0.086
				c-0.082-0.043-0.318-0.121-0.404-0.157c0,0.107-0.036,0.314-0.046,0.4c-0.018,0.104-0.054,0.15-0.086,0.229
				c-0.04,0.093-0.071,0.121-0.132,0.186c-0.064,0.071,0.007,0.286-0.071,0.336c-0.079,0.043-0.25-0.114-0.336-0.078
				c-0.085,0.028-0.107,0.278-0.2,0.307c-0.089,0.029-0.182,0.043-0.271,0.072c-0.089,0.024-0.172,0.064-0.257,0.097
				c-0.09,0.039-0.104,0.146-0.183,0.196c-0.079,0.054-0.404-0.011-0.468,0.064c0.086,0.078,0.4,0.05,0.482,0.121
				c0.089,0.086,0.111,0.229,0.183,0.297c0.107-0.011,0.114,0,0.122-0.018c0.05-0.093,0.243-0.071,0.29-0.14
				c0.061-0.089,0-0.25,0.061-0.304c0.079-0.071,0.172-0.122,0.25-0.136c0.093-0.015,0.129,0.164,0.214,0.203
				c0.079,0.04,0.107,0.086,0.179,0.147c0.072,0.057,0.122,0.11,0.186,0.179c0.068,0.067,0.25,0.018,0.315,0.078
				c0.075,0.075,0.182,0.071,0.247,0.104c0.082,0.047,0.139,0.133,0.225,0.183c0.079,0.047,0.15,0.114,0.232,0.161
				c0.082,0.046,0.182,0.061,0.265,0.11c0.082,0.047,0.189,0.047,0.275,0.093c0.079,0.051,0.128,0.15,0.207,0.204
				c0.079,0.047,0.165,0.086,0.25,0.133c0.079,0.054,0.165,0.093,0.243,0.143s0.05,0.269,0.128,0.322
				c0.079,0.05,0.25-0.04,0.329,0.014c0.079,0.05,0.125,0.15,0.204,0.2c0.079,0.054,0.161,0.101,0.24,0.154s0.2,0.039,0.279,0.097
				c0.079,0.05,0.107,0.179,0.186,0.229c0.079,0.057,0.107,0.186,0.182,0.235c0.079,0.054,0.243-0.021,0.322,0.036
				c0.079,0.05,0.186,0.064,0.265,0.114c0.079,0.054,0.172,0.086,0.25,0.14s-0.04,0.293,0.007,0.386
				c0.046,0.083,0.093,0.158,0.132,0.251c0.04,0.093,0.265,0.218,0.311,0.297c-0.096-0.021-0.296-0.062-0.396-0.072
				c-0.107-0.014-0.165-0.25-0.258-0.271c-0.107-0.028-0.329,0.243-0.415,0.187c-0.079-0.054-0.132-0.15-0.208-0.201
				c-0.079-0.053-0.085-0.214-0.164-0.271c-0.079-0.057-0.125-0.157-0.204-0.211s-0.286,0.079-0.365,0.025
				c-0.079-0.058-0.039-0.275-0.118-0.329c-0.079-0.058-0.208-0.036-0.286-0.086c-0.079-0.057-0.143-0.132-0.222-0.189
				c-0.075-0.054-0.061-0.239-0.14-0.297c-0.079-0.057-0.311,0.111-0.39,0.058s-0.171-0.093-0.25-0.15
				c-0.075-0.054,0.007-0.332-0.072-0.39c-0.079-0.054-0.247,0.018-0.325-0.032c-0.079-0.058-0.168-0.093-0.247-0.15
				c-0.079-0.057-0.107-0.179-0.186-0.229c-0.079-0.054-0.114-0.172-0.193-0.226c-0.079-0.057-0.243-0.078-0.322-0.136
				c-0.057,0.086-0.157,0.247-0.222,0.329c0.079,0.054,0.236,0.071,0.308,0.125c0.079,0.058,0.036,0.279,0.114,0.336
				c0.079,0.054,0.165,0.086,0.243,0.144c0.079,0.057,0.208,0.035,0.279,0.093c0.079,0.058,0.118,0.161,0.196,0.215
				c0.075,0.057,0.218,0.024,0.29,0.078c0.079,0.058,0.222,0.007,0.3,0.064c0.079,0.058,0.036,0.279,0.111,0.336
				c0.079,0.058,0.179,0.071,0.258,0.129c0.075,0.054,0.204,0.036,0.282,0.086c0.079,0.057,0.172,0.086,0.25,0.14
				c0.079,0.057,0.011,0.304,0.089,0.36c0.079,0.058,0.333-0.136,0.404-0.085c0.079,0.057-0.021,0.357,0.057,0.414
				c0.075,0.058,0.304-0.104,0.379-0.05c0.079,0.058,0.064,0.243,0.143,0.297c0.075,0.054,0.293-0.09,0.372-0.032
				c0.079,0.054,0.157,0.104,0.236,0.157s0.079,0.215,0.15,0.265c0.079,0.058,0.043,0.157,0.122,0.211
				c-0.072,0.11-0.072,0.232-0.147,0.347c-0.096-0.028-0.211,0.007-0.304-0.021c-0.093-0.035-0.193-0.057-0.282-0.093
				c-0.089-0.032-0.075-0.318-0.165-0.357c-0.089-0.036-0.279,0.15-0.365,0.11c-0.086-0.043-0.14-0.164-0.225-0.203
				c-0.086-0.047-0.1-0.219-0.186-0.265c-0.086-0.047-0.208-0.019-0.293-0.064c-0.082-0.05-0.171-0.086-0.253-0.14
				c-0.083-0.047-0.104-0.189-0.19-0.243c-0.079-0.054-0.193-0.054-0.271-0.104s-0.214-0.021-0.293-0.079
				c-0.079-0.057-0.179-0.082-0.258-0.136s-0.064-0.232-0.143-0.289c-0.079-0.054-0.186-0.075-0.264-0.133
				c-0.079-0.054-0.258,0.028-0.329-0.028c-0.079-0.058-0.1-0.186-0.179-0.243c-0.079-0.054-0.179-0.086-0.257-0.143
				c-0.075-0.058-0.229-0.008-0.308-0.064c-0.079-0.058,0.003-0.329-0.072-0.387c-0.079-0.057-0.296,0.079-0.375,0.025
				c-0.079-0.054-0.107-0.179-0.189-0.232c-0.079-0.058-0.115-0.172-0.193-0.229c-0.079-0.054-0.132-0.15-0.214-0.2
				c-0.083-0.058-0.143-0.144-0.222-0.193c-0.086-0.05-0.257,0.035-0.336-0.011c-0.085-0.054-0.2-0.047-0.279-0.093
				c-0.085-0.047-0.122-0.179-0.204-0.229c-0.086-0.046-0.186-0.061-0.272-0.107c-0.085-0.046-0.068-0.296-0.153-0.339
				c-0.086-0.043-0.215-0.004-0.308-0.051c-0.086-0.039-0.218,0.126-0.308,0.086c-0.089,0.021-0.128,0.029-0.222,0.058
				c-0.093,0.028-0.171,0.061-0.265,0.1c-0.085,0.029-0.196,0.008-0.282,0.047c-0.083,0.039-0.175,0.068-0.261,0.11
				c-0.085,0.043-0.165,0.09-0.25,0.129c-0.086,0.043-0.143,0.15-0.229,0.193c-0.082,0.043-0.293-0.183-0.379-0.143
				c-0.086,0.042-0.129,0.164-0.218,0.2c-0.085,0.039-0.189,0.031-0.282,0.063c-0.086,0.036-0.193-0.007-0.29,0.029
				c-0.089,0.028-0.168,0.071-0.261,0.093c-0.089,0.028-0.104,0.364-0.197,0.386c-0.093,0.021-0.196,0.043-0.29,0.058
				c-0.093,0.015-0.218-0.207-0.314-0.2c-0.093,0.007-0.182,0.1-0.279,0.1c-0.093,0-0.179-0.179-0.272-0.192
				c-0.093-0.008-0.071,0.093-0.164,0.071c0.057-0.079,0.071-0.007,0.143-0.071c0.072-0.064,0.061-0.226,0.14-0.279
				c0.082-0.05,0.171-0.093,0.257-0.136c0.086-0.039,0.125-0.207,0.218-0.239c0.086-0.032,0.257,0.146,0.35,0.114
				c0.093-0.028,0.1-0.297,0.193-0.333c0.093-0.028,0.193-0.014,0.282-0.046s0.204,0,0.29-0.039c0.093-0.04,0.179-0.064,0.258-0.115
				c0.082-0.05,0.122-0.143,0.193-0.207c0.071-0.061,0.329,0.047,0.393-0.032c0.061-0.068-0.018-0.265,0.029-0.351
				c-0.093,0.025-0.225-0.054-0.322-0.028c-0.1,0.025-0.154,0.183-0.25,0.211c-0.093,0.028-0.186,0.079-0.279,0.107
				c-0.093,0.032-0.139,0.203-0.232,0.232c-0.093,0.032-0.196,0.039-0.29,0.071c-0.093,0.032-0.214-0.015-0.307,0.015
				c-0.093,0.032-0.265-0.161-0.358-0.133c-0.093,0.028-0.154,0.157-0.25,0.189c-0.093,0.029-0.222-0.046-0.315-0.018
				c-0.093,0.028-0.114,0.308-0.211,0.336c-0.096,0.028-0.186,0.071-0.282,0.101c-0.1,0.024-0.24-0.144-0.336-0.122
				c-0.1,0.021-0.158,0.222-0.254,0.239c-0.097,0.019-0.226-0.125-0.322-0.106c-0.097,0.014-0.193,0.007-0.293,0.018
				c-0.096,0.011-0.196-0.028-0.296-0.025c-0.097,0.008-0.15,0.14-0.25,0.14c0.086-0.043,0.093-0.15,0.179-0.196
				c0.086-0.047,0.265,0.082,0.351,0.039c0.085-0.047,0.157-0.114,0.243-0.153c0.085-0.047,0.1-0.236,0.186-0.275
				c0.086-0.043,0.147-0.144,0.236-0.187c0.085-0.039,0.293,0.179,0.386,0.136c0.086-0.043,0.19-0.05,0.275-0.089
				c0.089-0.039,0.04-0.39,0.125-0.426c0.093-0.035,0.311,0.229,0.4,0.193c0.089-0.039,0.1-0.258,0.189-0.293
				c0.089-0.036,0.165-0.107,0.254-0.146c0.089-0.036,0.207,0,0.3-0.036c0.085-0.039,0.122-0.211,0.214-0.247
				c0.089-0.035,0.247,0.101,0.336,0.068S5,35.501,5.09,35.465c0.089-0.032,0.161-0.117,0.25-0.149
				c0.089-0.036,0.2-0.015,0.29-0.051c0.089-0.032,0.143-0.175,0.236-0.207c0.09-0.036,0.265,0.175,0.358,0.143
				c0.089-0.032,0.068-0.4,0.161-0.429c0.093-0.032,0.232,0.086,0.326,0.054c0.093-0.028,0.15-0.153,0.243-0.189
				c0.093-0.028,0.243,0.129,0.336,0.097c0.093-0.032,0.211,0.024,0.3-0.004c0.093-0.028,0.136-0.2,0.229-0.229
				c0.093-0.028,0.193-0.028,0.286-0.058c0.093-0.028,0.2,0,0.293-0.028c0.093-0.032,0.122-0.271,0.214-0.297
				c0.093-0.032,0.243,0.146,0.336,0.118c0.093-0.028,0.186-0.043,0.279-0.071c0.097-0.029,0.143-0.219,0.229-0.243
				c0.093-0.029,0.122-0.075,0.214-0.107c0.015-0.093-0.057-0.14-0.042-0.236c0.014-0.093,0.136-0.171,0.146-0.265
				c0.011-0.093-0.004-0.192,0.007-0.286c0.011-0.096,0.061-0.189,0.075-0.282s0.254-0.146,0.268-0.239
				c0.015-0.097-0.014-0.193,0.004-0.286c0.021-0.093-0.229-0.247-0.208-0.336c0.029-0.097,0.236-0.144,0.268-0.236
				s-0.05-0.235-0.011-0.321c0.046-0.093,0.315-0.021,0.375-0.101c0.061-0.078,0.04-0.186,0.118-0.239
				c0.079-0.05,0.107-0.239,0.211-0.269c0.085-0.014,0.2,0.15,0.304,0.15c0.093,0.007,0.179-0.007,0.286,0.015
				c0.079,0.014,0.236-0.047,0.35-0.122c0.086-0.057,0.111-0.203,0.186-0.286c0.079-0.089,0.329-0.089,0.368-0.171
				c0.04-0.094-0.253-0.308-0.225-0.415c0.029-0.101,0.25-0.15,0.265-0.254s-0.114-0.211-0.114-0.318c0-0.1,0.057-0.2,0.043-0.3
				c-0.015-0.083-0.043-0.144-0.093-0.229c-0.039-0.071,0.054-0.243,0-0.314c-0.05-0.078-0.179-0.1-0.218-0.168
				c-0.046-0.089-0.239-0.196-0.225-0.275c0.025-0.093,0.208-0.143,0.229-0.236c0.021-0.089,0.086-0.168,0.107-0.257
				c0.029-0.089-0.046-0.208-0.021-0.293c0.028-0.093-0.011-0.2,0.021-0.286c0.029-0.093,0.125-0.158,0.154-0.243
				c0.032-0.093,0.275-0.1,0.304-0.186c0.032-0.093-0.007-0.2,0.028-0.29c0.036-0.089-0.079-0.226-0.05-0.311
				c0.036-0.086,0.071-0.172,0.107-0.257c0.032-0.086-0.007-0.204,0.029-0.29c0.036-0.089,0.257-0.1,0.3-0.189
				c0.04-0.085-0.1-0.268-0.05-0.354c0.05-0.085,0.064-0.196,0.111-0.275c0.046-0.083,0.347-0.021,0.396-0.1
				c0.058-0.086-0.122-0.308-0.068-0.39c0.046-0.079,0.25-0.061,0.297-0.139c0.05-0.079,0.079-0.172,0.129-0.25
				c0.05-0.079,0.204-0.079,0.257-0.157c0.05-0.079-0.129-0.333-0.072-0.404c0.058-0.072,0.129-0.157,0.197-0.218
				c0.079-0.079,0.143-0.136,0.204-0.208c0.079-0.082,0.272-0.05,0.322-0.128c0.061-0.093,0.136-0.179,0.157-0.272
				c0.028-0.1,0.128-0.239,0.114-0.336c-0.018-0.093-0.365-0.079-0.415-0.179c-0.043-0.079,0.122-0.293,0.057-0.379
				c-0.064-0.072-0.111-0.175-0.189-0.25c-0.068-0.071-0.14-0.143-0.211-0.211c-0.072-0.071-0.186-0.093-0.258-0.165
				c-0.071-0.071-0.207-0.075-0.279-0.146c-0.071-0.071,0.007-0.286-0.057-0.357c-0.068-0.072-0.136-0.143-0.208-0.215
				c-0.064-0.071-0.136-0.143-0.207-0.214c-0.064-0.071-0.25-0.036-0.315-0.107c-0.071-0.071-0.164-0.122-0.236-0.189
				c-0.064-0.071-0.2-0.079-0.271-0.153c-0.064-0.072-0.05-0.222-0.118-0.293c-0.068-0.071-0.189-0.093-0.254-0.171
				c-0.071-0.068-0.15-0.132-0.214-0.208c-0.075-0.079-0.029-0.25-0.072-0.336c-0.05-0.093-0.257-0.143-0.275-0.236
				c-0.025-0.1,0.186-0.225,0.204-0.322c0.014-0.096-0.122-0.268-0.072-0.357c0.05-0.086,0.125-0.208,0.2-0.279
				c0.072-0.064,0.186-0.143,0.279-0.193c0.085-0.047,0.243,0.042,0.35,0.007c0.093-0.028,0.236,0.114,0.329,0.086
				c0.097-0.032,0.118-0.286,0.208-0.314c0.093-0.029,0.179-0.079,0.271-0.115c0.093-0.032,0.254,0.122,0.343,0.086
				c0.093-0.032,0.175-0.093,0.265-0.129c0.093-0.036,0.15-0.157,0.239-0.196c0.089-0.04,0.226,0.014,0.311-0.025
				c0.093-0.042,0.104-0.25,0.19-0.293c0.089-0.043,0.275,0.107,0.361,0.057c0.086-0.05,0.136-0.161,0.222-0.2
				c0.086-0.043,0.093-0.271,0.186-0.308c0.093-0.036,0.265,0.15,0.357,0.118c0.093-0.029,0.118-0.293,0.211-0.318
				c0.097-0.028,0.24,0.165,0.336,0.143c0.097-0.018,0.197,0.036,0.29,0.029c0.1-0.007,0.186-0.129,0.279-0.129
				c0.1,0,0.193,0.021,0.29,0.029c0.096,0.014,0.182,0.057,0.279,0.079c0.097,0.014,0.15,0.143,0.247,0.171
				c0.089,0.029,0.175,0.04,0.268,0.075c0.089,0.04,0.161,0.082,0.25,0.125c0.086,0.047,0.15,0.107,0.232,0.158
				c0.086,0.05,0.2,0.036,0.282,0.093c0.075,0.05,0.211,0.021,0.29,0.071c0.072,0.054,0.075,0.218,0.15,0.272
				c0.079,0.05,0.193,0.039,0.271,0.086c0.079,0.05,0.093,0.204,0.172,0.25c0.079,0.05,0.279-0.104,0.365-0.057
				c0.075,0.05,0.122,0.157,0.2,0.204c0.079,0.047,0.193,0.04,0.271,0.086s0.15,0.1,0.236,0.146c0.079,0.05,0.157,0.104,0.232,0.15
				c0.079,0.05,0.204,0.021,0.282,0.068c0.079,0.05,0.079,0.232,0.154,0.282c0.089,0.05,0.143,0.132,0.204,0.186
				c0.079,0.072,0.079,0.165,0.125,0.236c0.053,0.086,0.025,0.125,0.039,0.215c0.007,0.089,0.157,0.165,0.118,0.261
				c-0.032,0.075-0.072,0.168-0.14,0.247c-0.057,0.071-0.186,0.064-0.265,0.132c-0.071,0.061-0.028,0.243-0.1,0.304
				c-0.071,0.064-0.085,0.186-0.15,0.243c-0.072,0.061-0.25,0-0.322,0.057c-0.068,0.061-0.157,0.1-0.226,0.157
				c-0.068,0.057-0.125,0.136-0.196,0.193c-0.072,0.061-0.072,0.2-0.14,0.261c-0.068,0.061-0.311-0.075-0.375-0.018
				c-0.071,0.057-0.079,0.189-0.15,0.25c-0.072,0.057-0.189,0.057-0.261,0.118c-0.071,0.061-0.125,0.139-0.193,0.196
				c-0.072,0.061-0.032,0.258-0.104,0.311c-0.064,0.058-0.322-0.021-0.386,0.068c-0.05,0.075-0.05,0.222-0.097,0.314
				c-0.046,0.086,0.061,0.243,0.018,0.343c-0.036,0.086-0.297,0.1-0.329,0.2c-0.032,0.093,0.257,0.286,0.229,0.382
				c-0.025,0.097-0.293,0.14-0.308,0.236c-0.021,0.1,0.125,0.225,0.114,0.318c-0.014,0.107-0.193,0.2-0.193,0.297
				c0,0.111,0.222,0.186,0.243,0.279c0.021,0.111-0.107,0.268-0.057,0.343c0.05,0.075,0.2,0.143,0.322,0.189
				c0.1,0.043,0.257-0.164,0.364-0.157c0.125,0.018,0.25,0.25,0.336,0.211c0.085-0.039,0.1-0.261,0.186-0.29
				c0.093-0.036,0.172-0.107,0.265-0.132c0.089-0.028,0.222,0.083,0.315,0.057c0.085-0.025,0.211,0.075,0.3,0.061
				c0.093-0.025,0.165-0.122,0.257-0.136c0.093-0.021,0.2,0.064,0.29,0.05c0.093-0.014,0.179-0.071,0.275-0.086
				c0.093-0.007,0.186-0.014,0.279-0.025s0.186-0.018,0.279-0.029c0.093-0.011,0.186-0.011,0.279-0.018
				c0.093-0.007,0.186-0.036,0.279-0.046c0.093-0.007,0.186-0.075,0.279-0.083c0.093-0.007,0.186,0.007,0.279-0.003
				c0.096-0.011,0.204,0.089,0.296,0.079c0.093-0.011,0.168-0.168,0.261-0.182c0.097-0.015,0.168-0.208,0.265-0.222
				c0.1-0.018,0.232,0.214,0.329,0.2c0.096-0.015,0.186-0.083,0.282-0.1c0.097-0.015,0.165-0.204,0.261-0.218
				c0.1-0.014,0.214,0.082,0.311,0.068c0.096-0.014,0.225,0.157,0.318,0.143c0.093-0.014,0.146-0.322,0.24-0.336
				c0.097-0.021,0.229,0.15,0.322,0.136c0.097-0.018,0.182-0.089,0.279-0.104c0.097-0.018,0.204,0.025,0.297,0.003
				c0.1-0.018,0.165-0.214,0.257-0.229c0.1-0.021,0.243,0.229,0.336,0.215c0.1-0.015,0.14-0.354,0.236-0.372
				c0.1-0.014,0.247,0.29,0.343,0.275c0.097-0.018,0.15-0.304,0.247-0.318c0.096-0.014,0.196-0.007,0.297-0.021
				c0.093-0.014,0.218,0.143,0.314,0.129c0.097-0.018,0.129-0.214,0.207-0.243c0.093-0.029,0.172-0.007,0.232-0.054
				c0.075-0.057,0.258-0.018,0.297-0.097c0.039-0.071,0.14-0.179,0.15-0.271c0.015-0.079-0.15-0.193-0.15-0.286
				c-0.007-0.1-0.057-0.189-0.061-0.286c-0.011-0.096,0.183-0.207,0.175-0.3c-0.007-0.1-0.308-0.171-0.314-0.265
				c-0.007-0.1,0.172-0.207,0.165-0.304c-0.008-0.097-0.229-0.179-0.236-0.275c0-0.1,0.186-0.2,0.179-0.3
				c0-0.093-0.054-0.189-0.054-0.286c0-0.096,0.183-0.186,0.186-0.282c0.004-0.097-0.218-0.204-0.211-0.297
				c0-0.086-0.071-0.189-0.054-0.282c0.011-0.086,0.272-0.14,0.29-0.226c0.021-0.085-0.079-0.2-0.05-0.286
				c0.024-0.089,0.164-0.129,0.196-0.208c0.039-0.086-0.015-0.208,0.032-0.279c0.05-0.079,0.015-0.25,0.079-0.311
				c0.071-0.068,0.186-0.086,0.261-0.147c0.075-0.064,0.172-0.104,0.247-0.164c0.074-0.061,0.078-0.218,0.157-0.272
				c0.078-0.064,0.357,0.146,0.436,0.093c0.079-0.058,0.093-0.2,0.176-0.258c0.082-0.054,0.078-0.229,0.16-0.286
				c0.079-0.05,0.243,0.028,0.329-0.025c0.079-0.05,0.157-0.104,0.243-0.154c0.086-0.05,0.071-0.275,0.157-0.322
				c0.086-0.042,0.165-0.118,0.251-0.164c0.085-0.04,0.307,0.193,0.393,0.153c0.093-0.039,0.133-0.179,0.222-0.214
				c0.09-0.039,0.24,0.075,0.329,0.043c0.09-0.032,0.136-0.179,0.229-0.211c0.094-0.036,0.129-0.225,0.219-0.257
				c0.093-0.029,0.182-0.075,0.275-0.107c0.093-0.021,0.265,0.208,0.357,0.186c0.093-0.029,0.143-0.208,0.239-0.232
				c0.097-0.021,0.189-0.061,0.282-0.086c0.094-0.018,0.219,0.104,0.312,0.086c0.097-0.018,0.146-0.304,0.239-0.325
				c0.097-0.015,0.243,0.329,0.344,0.314c0.096-0.014,0.157-0.279,0.257-0.293c0.097-0.007,0.2,0.057,0.297,0.046
				c0.097-0.007,0.183-0.147,0.282-0.154c0.094-0.011,0.193,0.043,0.297,0.039c0.097-0.003,0.193-0.118,0.29-0.118
				c0.1-0.007,0.2,0.021,0.293,0.021c0.1,0,0.2,0.032,0.297,0.036c0.097,0,0.196-0.057,0.297-0.057c0.093,0,0.192,0.079,0.286,0.079
				c0.1,0.007,0.189,0.186,0.286,0.193c0.096,0.007,0.182,0.125,0.278,0.132c0.101,0.007,0.215-0.211,0.312-0.2
				c0.096,0.011,0.192,0.032,0.289,0.043c0.101,0.011,0.172,0.165,0.269,0.182c0.097,0.015,0.196-0.018,0.297,0
				c0.096,0.015,0.196,0.007,0.289,0.021c0.097,0.021,0.232-0.139,0.325-0.118c0.094,0.025,0.136,0.261,0.236,0.282
				c0.093,0.025,0.193,0.029,0.286,0.05c0.093,0.028,0.175,0.089,0.268,0.114c0.094,0.029,0.19,0.036,0.283,0.064
				c0.093,0.028,0.214-0.025,0.308,0.003c0.093,0.032,0.121,0.232,0.211,0.265c0.089,0.032,0.164,0.104,0.254,0.14
				c0.089,0.036,0.242-0.083,0.332-0.043c0.09,0.036,0.164,0.1,0.254,0.143c0.089,0.042,0.15,0.128,0.236,0.171
				c0.085,0.043,0.25-0.068,0.336-0.021c0.086,0.043,0.2,0.043,0.286,0.093c0.085,0.043,0.128,0.168,0.211,0.222
				c0.082,0.047,0.146,0.136,0.229,0.186c0.082,0.054,0.193,0.057,0.275,0.111s0.136,0.14,0.222,0.197
				c0.078,0.057,0.146,0.122,0.225,0.179c0.079,0.057,0.254-0.014,0.329,0.043c0.079,0.064-0.046,0.379,0.032,0.436
				c0.075,0.064,0.272-0.028,0.344,0.036c0.075,0.061,0.232,0.028,0.308,0.089c0.071,0.064,0.039,0.25,0.11,0.318
				c0.071,0.064,0.118,0.157,0.189,0.222c0.064,0.061,0.232,0.036,0.286,0.115c0.054,0.071,0.179,0.118,0.222,0.2
				c0.043,0.079,0.043,0.196,0.075,0.282s-0.079,0.225-0.054,0.311c0.021,0.089,0.007,0.179,0.028,0.268
				c0.019,0.093,0.208,0.161,0.211,0.247c0.008,0.093,0.086,0.182,0.093,0.275c0.011,0.093-0.239,0.204-0.231,0.304
				c0.007,0.093,0.157,0.179,0.164,0.271c0.007,0.093,0.107,0.179,0.107,0.272c0.011,0.096-0.251,0.207-0.247,0.3
				c0.004,0.093-0.064,0.193-0.061,0.286c0.004,0.093,0.261,0.179,0.265,0.271c0.003,0.093-0.043,0.189-0.043,0.283
				c0.007,0.093-0.136,0.193-0.133,0.29c0.004,0.1,0.322,0.171,0.326,0.271c0.003,0.093-0.354,0.2-0.348,0.3
				c0.008,0.097,0.344,0.172,0.351,0.265c0.004,0.093-0.118,0.193-0.11,0.286c0.007,0.093-0.071,0.193-0.068,0.286
				c0.004,0.093,0.154,0.179,0.165,0.279c0.003,0.093-0.183,0.197-0.176,0.293c0.004,0.093,0.176,0.179,0.179,0.272
				c0.004,0.093-0.107,0.193-0.1,0.293c0.007,0.093,0.257,0.172,0.257,0.265c0.008,0.093-0.25,0.204-0.243,0.297
				c0.008,0.093,0.036,0.186,0.043,0.282c0.008,0.093,0.029,0.186,0.04,0.279c0.007,0.093,0.061,0.179,0.067,0.279
				c0.007,0.093,0.197,0.171,0.204,0.264c0.007,0.097-0.275,0.229-0.261,0.329c0.018,0.093,0.063,0.193,0.093,0.286
				c0.021,0.093,0.293,0.118,0.321,0.214c0.032,0.093-0.179,0.257-0.143,0.351c0.028,0.093,0.246,0.122,0.278,0.214
				c0.036,0.093-0.149,0.261-0.114,0.351c0.036,0.093,0.064,0.183,0.097,0.275s0.176,0.146,0.204,0.239s-0.047,0.215-0.021,0.308
				c0.021,0.086,0.321,0.157,0.318,0.258c-0.004,0.093-0.376,0.132-0.4,0.229c-0.021,0.089,0.203,0.25,0.171,0.343
				c-0.032,0.086,0.011,0.222-0.032,0.308s-0.311,0.05-0.357,0.129c-0.054,0.079,0.029,0.254-0.028,0.329
				c-0.058,0.071-0.265,0.021-0.329,0.086c-0.064,0.071-0.05,0.222-0.121,0.278c-0.079,0.058-0.129,0.2-0.208,0.236
				c-0.1,0.046-0.207,0.11-0.304,0.136c-0.104,0.028-0.254-0.193-0.351-0.186c-0.104,0.007-0.225,0.2-0.317,0.179
				c-0.101-0.021-0.212-0.101-0.301-0.15c-0.086-0.043-0.15-0.15-0.229-0.222c-0.072-0.064-0.094-0.186-0.157-0.269
				c-0.062-0.078-0.226-0.097-0.279-0.189c-0.039-0.067-0.132-0.039-0.222-0.093c-0.093-0.05-0.107-0.071-0.186-0.067
				c-0.101,0.007-0.222-0.222-0.322-0.211c-0.1,0.007-0.2,0.007-0.3,0.014c-0.101,0.015-0.2,0.036-0.301,0.047
				c-0.1,0.011-0.207-0.068-0.308-0.054c-0.1,0.007-0.196,0.078-0.297,0.093c-0.097,0.007-0.196,0.032-0.297,0.043
				c-0.1,0.011-0.207-0.064-0.307-0.05c-0.101,0.007-0.169,0.304-0.269,0.314c-0.101,0.011-0.211-0.104-0.312-0.093
				c-0.104,0.011-0.157,0.064-0.264,0.078c0.071,0.064-0.008,0.243,0.067,0.308s0.261,0,0.336,0.061
				c0.079,0.064,0.079,0.232,0.154,0.29c0.082,0.057,0.229,0.015,0.308,0.067c0.085,0.054,0.171,0.104,0.257,0.147
				c0.086,0.05,0.107,0.229,0.193,0.268c0.093,0.039,0.297-0.183,0.386-0.146c0.093,0.039,0.104,0.293,0.2,0.322
				c0.093,0.028,0.187,0.096,0.279,0.121c0.093,0.021,0.218-0.043,0.311-0.028c0.097,0.011,0.204-0.114,0.305-0.111
				c0.1,0.004,0.192,0.122,0.293,0.118c0.097-0.004,0.189-0.082,0.286-0.089c0.1-0.011,0.207,0.057,0.304,0.039
				c0.093-0.015,0.153-0.204,0.246-0.226c0.097-0.024,0.211,0.039,0.305,0.015c0.097-0.025,0.16-0.122,0.254-0.154
				c0.093-0.035,0.186-0.054,0.278-0.086c0.093-0.028,0.219,0.036,0.312,0.008c0.093-0.032,0.2-0.008,0.289-0.039
				c0.093-0.032,0.161-0.14,0.251-0.169c0.093-0.028,0.168-0.114,0.261-0.143s0.225,0.079,0.318,0.054
				c0.093-0.025,0.164-0.125,0.257-0.153c0.093-0.025,0.144-0.219,0.236-0.243c0.093-0.025,0.236,0.146,0.336,0.121
				c0.093-0.028,0.179-0.064,0.271-0.09c0.093-0.024,0.215,0.054,0.312,0.029c0.097-0.025,0.196-0.015,0.289-0.039
				c0.094-0.021,0.187-0.068,0.279-0.094c0.093-0.021,0.11-0.35,0.204-0.371c0.093-0.021,0.203,0.014,0.297-0.011
				c0.093-0.021,0.186-0.054,0.278-0.075c0.097-0.025,0.2-0.015,0.293-0.036s0.2,0.007,0.294-0.015
				c0.093-0.028,0.192-0.021,0.289-0.046c0.093-0.025,0.146-0.197,0.239-0.226c0.086-0.021,0.208,0.104,0.29,0.086
				c0.082-0.015,0.153-0.136,0.239-0.146s0.197,0.218,0.282,0.204c0.086-0.011,0.219-0.279,0.305-0.29
				c0.057,0.075-0.072,0.39-0.008,0.461c0.058,0.075,0.315,0.072,0.372,0.146c-0.078,0.04-0.2,0.126-0.278,0.165
				c-0.079,0.039-0.243-0.086-0.322-0.047c-0.075,0.043-0.179,0.029-0.258,0.068c-0.078,0.039-0.128,0.246-0.207,0.289
				c0.086,0,0.226,0.079,0.312,0.079c0.085,0,0.171,0.047,0.254,0.047c0.085,0,0.171-0.183,0.253-0.183
				c0.083,0,0.226,0.011,0.312,0.011c-0.018,0.104-0.15,0.225-0.179,0.318c-0.028,0.1-0.032,0.2-0.071,0.286
				c-0.047,0.093-0.107,0.168-0.165,0.246c-0.064,0.082-0.043,0.254-0.121,0.318c-0.082,0.061-0.297-0.129-0.387-0.086
				c-0.093,0.036-0.121,0.239-0.225,0.25c-0.097,0.008-0.172-0.149-0.275-0.171c-0.093-0.019-0.222,0.211-0.314,0.2
				c-0.094-0.015-0.157-0.304-0.251-0.308c-0.093-0.007-0.2,0.114-0.293,0.114c-0.093,0.007-0.175,0.143-0.265,0.157
				c-0.093,0.015-0.229-0.183-0.321-0.157c-0.086,0.021-0.086,0.314-0.172,0.351c-0.079,0.039-0.275-0.14-0.357-0.093
				c-0.079,0.046-0.097,0.192-0.172,0.257c-0.071,0.054-0.089,0.165-0.157,0.232c-0.078,0.079-0.226,0.111-0.343,0.15
				c-0.115,0.032-0.226,0.161-0.337,0.179c-0.093,0.015-0.192,0.015-0.289,0.028c-0.093,0.019-0.186,0.051-0.279,0.062
				c-0.093,0.011-0.218-0.193-0.311-0.183s-0.187,0.028-0.279,0.046c-0.093,0.008-0.192-0.018-0.286-0.007
				c-0.093,0.015-0.179,0.107-0.271,0.122c-0.093,0.018-0.2-0.021-0.293-0.008c-0.093,0.015-0.193,0.019-0.282,0.036
				c-0.094,0.018-0.172,0.114-0.262,0.136c-0.096,0.025-0.192,0.032-0.293,0.058c-0.093,0.028-0.193,0.035-0.286,0.063
				c-0.093,0.025-0.179,0.083-0.275,0.107c-0.093,0.029-0.225-0.089-0.325-0.064c-0.093,0.029-0.143,0.219-0.235,0.243
				c-0.094,0.029-0.215-0.028-0.308-0.003c-0.094,0.024-0.189,0.054-0.283,0.078c-0.093,0.025-0.146,0.211-0.239,0.24
				c-0.093,0.024-0.207-0.021-0.308,0.003c-0.093,0.025-0.192,0.032-0.286,0.061c-0.096,0.025-0.164,0.158-0.257,0.187
				c-0.093,0.024-0.2,0.011-0.293,0.035c-0.094,0.029-0.247-0.143-0.34-0.114c-0.093,0.025-0.189,0.058-0.282,0.083
				c-0.094,0.024-0.115,0.311-0.215,0.339c-0.093,0.025-0.2,0.008-0.297,0.032c-0.093,0.025-0.211-0.024-0.304,0
				c-0.093,0.025-0.236-0.104-0.329-0.078c-0.093,0.024-0.146,0.211-0.239,0.239c-0.094,0.025-0.189,0.058-0.283,0.086
				c-0.093,0.025-0.203-0.011-0.293,0.011c-0.093,0.024-0.183,0.054-0.271,0.075c-0.093,0.024-0.207-0.036-0.301-0.011
				c-0.093,0.024-0.186,0.021-0.278,0.046c-0.093,0.029-0.122,0.286-0.211,0.315c-0.093,0.024-0.179,0.057-0.271,0.085
				c-0.097,0.025-0.204-0.028-0.297-0.003c-0.086,0.024-0.15,0.168-0.236,0.192c-0.093,0.025-0.179,0.064-0.271,0.094
				c-0.086,0.024-0.243-0.154-0.336-0.122c-0.086,0.028-0.157,0.122-0.247,0.154c-0.086,0.028-0.132,0.149-0.218,0.189
				c-0.079,0.039-0.129,0.128-0.211,0.175c-0.079,0.043-0.29-0.121-0.368-0.078c-0.075,0.05-0.008,0.36-0.086,0.4
				c-0.079,0.046-0.193,0.046-0.279,0.085c-0.086,0.036-0.229-0.085-0.321-0.071c-0.094,0.025-0.14,0.265-0.236,0.29
				c-0.097,0.021-0.261-0.304-0.357-0.282c-0.101,0.018-0.186,0.063-0.286,0.078c-0.093,0.018-0.193,0.015-0.29,0.028
				c-0.096,0.015-0.16,0.2-0.261,0.222c-0.097,0.015-0.207-0.061-0.308-0.046c-0.093,0.014-0.16,0.225-0.257,0.239
				c-0.101,0.015-0.215-0.078-0.312-0.061c-0.097,0.014-0.211-0.061-0.304-0.047c-0.1,0.021-0.15,0.271-0.243,0.293
				c-0.1,0.019-0.258-0.278-0.357-0.254c-0.093,0.021-0.172,0.126-0.271,0.147c-0.093,0.024-0.15,0.186-0.251,0.207
				c-0.093,0.021-0.16,0.143-0.257,0.164c-0.093,0.021-0.208-0.035-0.301-0.011c-0.093,0.021-0.207-0.039-0.308-0.018
				c-0.093,0.028-0.157,0.157-0.25,0.179c-0.093,0.025-0.2,0.015-0.293,0.039c-0.093,0.025-0.172,0.111-0.265,0.14
				c-0.093,0.025-0.222-0.093-0.314-0.064c-0.093,0.025-0.179,0.09-0.271,0.114c-0.094,0.029-0.193,0.015-0.29,0.04
				c-0.093,0.024-0.207-0.025-0.301,0.003c-0.096,0.025-0.11,0.329-0.203,0.354c-0.093,0.024-0.279-0.269-0.372-0.243
				c-0.093,0.024-0.114,0.297-0.207,0.325c-0.094,0.025-0.215-0.043-0.308-0.015c-0.093,0.025-0.222-0.074-0.314-0.05
				c-0.093,0.028-0.115,0.301-0.208,0.333c-0.093,0.028-0.193,0.028-0.286,0.054c-0.093,0.028-0.168,0.114-0.261,0.139
				c-0.093,0.025-0.211-0.018-0.296,0.011c-0.093,0.029-0.197,0.043-0.29,0.072c-0.093,0.028-0.153,0.157-0.25,0.186
				c-0.093,0.028-0.225-0.05-0.318-0.018c-0.093,0.032-0.211-0.011-0.304,0.018c-0.093,0.036-0.132,0.207-0.226,0.243
				c-0.093,0.035-0.222-0.028-0.314,0.004c-0.093,0.031-0.186,0.063-0.279,0.1c-0.093,0.039-0.24-0.075-0.336-0.039
				c-0.093,0.032-0.107,0.271-0.2,0.308c-0.093,0.028-0.243-0.086-0.336-0.058c-0.093,0.036-0.171,0.107-0.265,0.136
				c-0.093,0.036-0.2,0.036-0.293,0.064s-0.122,0.271-0.214,0.301c-0.093,0.032-0.232-0.086-0.326-0.054
				c-0.104,0.028-0.211-0.068-0.318-0.058c-0.104,0.018-0.183,0.347-0.286,0.351c-0.107,0.004-0.222-0.275-0.333-0.271
				c-0.104,0.003-0.186,0.246-0.29,0.261c-0.107,0.015-0.222-0.071-0.318-0.036c-0.097,0.032-0.139,0.165-0.232,0.204
				c-0.097,0.039-0.193,0.054-0.282,0.104s-0.147,0.146-0.232,0.193c-0.086,0.054-0.179,0.1-0.265,0.15
				c-0.093,0.05-0.172,0.121-0.265,0.168c-0.086,0.046-0.236,0-0.329,0.039c-0.085,0.032-0.193,0-0.286,0.025
				c-0.089,0.018-0.19-0.058-0.283-0.051c-0.093,0.011-0.175,0.019-0.268,0.019s-0.186,0.064-0.279,0.054
				c-0.086-0.011-0.229-0.04-0.315-0.133c-0.089-0.093-0.093-0.239-0.096-0.325c-0.004-0.086-0.079-0.297,0.014-0.396
				c0.082-0.086,0.243-0.183,0.333-0.215c0.086-0.036,0.243,0.121,0.336,0.097c0.089-0.032,0.125-0.232,0.215-0.258
				c0.093-0.024,0.179-0.086,0.264-0.11c0.093-0.021,0.208,0.054,0.293,0.032c0.093-0.021,0.171,0,0.257-0.025
				C20.021,39.705,20.16,39.502,20.153,39.395z M19.91,30.406c0.104,0.007,0.336,0.093,0.433,0.1c0.104,0.011,0.204-0.007,0.304,0
				c0.107,0.011,0.211-0.028,0.308-0.021c0.104,0.008,0.222-0.265,0.322-0.257c0.1,0.007,0.186,0.318,0.286,0.325
				c0.1,0.004,0.207-0.071,0.307-0.068c0.1,0.004,0.193,0.125,0.29,0.125c0.097,0.008,0.193-0.039,0.29-0.039
				c0.1,0,0.193,0.039,0.293,0.039c0.093,0,0.193-0.125,0.29-0.125s0.193-0.024,0.286-0.024c0.096,0,0.196,0.104,0.29,0.104
				c0.1-0.004,0.193-0.165,0.286-0.165c0.096-0.003,0.193,0.032,0.29,0.032c0.096-0.007,0.182-0.179,0.282-0.186
				c0.093-0.004,0.204,0.193,0.297,0.186c0.097-0.007,0.193,0.029,0.29,0.021c0.1-0.007,0.172-0.218,0.272-0.225
				c0.093-0.008,0.2,0.118,0.3,0.11c0.096-0.014,0.193,0,0.29-0.011c0.096-0.011,0.189-0.067,0.282-0.075
				c0.093-0.018,0.165-0.164,0.265-0.182c0.093-0.015,0.236,0.261,0.329,0.243c0.093-0.015,0.132-0.344,0.229-0.361
				c0.093-0.021,0.189-0.015,0.283-0.036c0.093-0.021,0.189-0.024,0.282-0.046c0.093-0.025,0.179-0.086,0.272-0.111
				c0.093-0.021,0.265,0.258,0.357,0.236c0.093-0.029,0.136-0.222,0.229-0.251c0.094-0.024,0.232,0.107,0.326,0.079
				c0.093-0.028,0.164-0.129,0.253-0.157c0.09-0.032,0.208-0.007,0.294-0.039c0.086-0.029,0.093-0.251,0.171-0.305
				c0.075-0.046,0.15-0.085,0.226-0.146c0.068-0.057,0.218-0.032,0.29-0.104c0.061-0.064,0.085-0.172,0.143-0.243
				s0.168-0.107,0.222-0.186c0.05-0.075,0.058-0.187,0.107-0.265c0.05-0.079,0.229-0.093,0.271-0.179
				c0.043-0.079-0.004-0.218,0.036-0.3c0.035-0.086,0.007-0.2,0.035-0.286c0.032-0.093-0.061-0.208-0.035-0.293
				c0.021-0.1,0.1-0.164,0.107-0.257c0.007-0.1-0.072-0.165-0.086-0.243c-0.015-0.093-0.036-0.193-0.047-0.279
				c-0.011-0.093,0.133-0.2,0.125-0.29c0-0.093,0.079-0.175,0.086-0.265c0.007-0.093-0.226-0.225-0.207-0.318
				c0.021-0.093,0.129-0.158,0.136-0.243c0.007-0.1,0.071-0.186,0.071-0.272c-0.007-0.1,0.157-0.222,0.14-0.311
				c-0.018-0.093-0.146-0.171-0.179-0.261c-0.032-0.09-0.168-0.136-0.211-0.215c-0.047-0.086,0.018-0.243-0.039-0.314
				c-0.054-0.075-0.183-0.1-0.251-0.165c-0.067-0.064-0.171-0.079-0.246-0.129c-0.079-0.053-0.157-0.085-0.243-0.125
				c-0.086-0.039-0.129-0.218-0.219-0.243c-0.089-0.021-0.218,0.232-0.317,0.218c-0.086-0.007-0.165-0.136-0.265-0.129
				c-0.094,0.007-0.193-0.071-0.286-0.064c-0.093,0.007-0.187,0.064-0.279,0.068c-0.093,0.003-0.2-0.147-0.293-0.14
				s-0.172,0.236-0.271,0.243c-0.093,0-0.19-0.018-0.283-0.014c-0.093,0.007-0.197-0.104-0.29-0.1
				c-0.093,0.007-0.179,0.164-0.272,0.171c-0.093,0.007-0.193,0-0.286,0.007c-0.093,0.007-0.211-0.222-0.308-0.215
				c-0.093,0.011-0.154,0.322-0.247,0.329c-0.093,0.014-0.197-0.071-0.297-0.057c-0.086,0.014-0.193-0.043-0.279-0.021
				c-0.089,0.018-0.165,0.1-0.25,0.122c-0.093,0.021-0.222-0.107-0.308-0.082c-0.085,0.025-0.164,0.089-0.254,0.118
				c-0.085,0.021-0.196-0.007-0.282,0.021s-0.157,0.093-0.243,0.118c-0.086,0.025-0.179,0.032-0.265,0.061
				c-0.085,0.025-0.171,0.04-0.265,0.064c-0.136,0.04-0.229,0.271-0.372,0.286c-0.093,0.007-0.211-0.193-0.311-0.186
				c-0.104,0.007-0.175,0.257-0.275,0.265s-0.2,0.011-0.297,0.018c-0.096,0.007-0.193,0.025-0.293,0.032
				c-0.104,0.007-0.189,0.107-0.29,0.115c-0.093,0.007-0.222-0.318-0.318-0.311c-0.097,0.007-0.175,0.29-0.275,0.296
				c-0.093,0.007-0.2-0.079-0.3-0.071c-0.097,0.014-0.193,0.046-0.29,0.054c-0.097,0.011-0.211-0.154-0.314-0.146
				c-0.097,0.014-0.179,0.179-0.279,0.186c-0.11,0.015-0.193,0.047-0.268,0.086c-0.096,0.046-0.307,0.029-0.35,0.114
				c-0.036,0.083-0.083,0.261-0.068,0.369c0.011,0.085,0.046,0.229,0.093,0.329c0.04,0.086,0.229,0.107,0.265,0.193
				c0.039,0.085,0.143,0.146,0.175,0.236c0.036,0.086,0.021,0.193,0.057,0.282s0.043,0.186,0.075,0.279
				c0.028,0.085,0.1,0.164,0.125,0.257c0.028,0.085,0.107,0.165,0.136,0.257c0.025,0.086-0.014,0.2,0.011,0.286
				c0.021,0.096,0.054,0.186,0.068,0.279c0.018,0.093,0.046,0.186,0.057,0.279c0.015,0.093-0.182,0.2-0.179,0.293
				c0.007,0.093,0.179,0.187,0.172,0.279c-0.004,0.093-0.057,0.183-0.072,0.278c-0.007,0.094-0.014,0.187-0.028,0.279
				c-0.015,0.093,0.043,0.2,0.014,0.293c-0.021,0.093-0.136,0.157-0.165,0.25c-0.028,0.086-0.143,0.137-0.179,0.226
				c-0.04,0.086,0.064,0.232,0.021,0.318C20.178,30.167,19.96,30.32,19.91,30.406z M37.379,25.011c0.032-0.003,0.061,0.004,0.086,0
				c0-0.1-0.025-0.243-0.028-0.339c-0.004-0.097-0.05-0.197-0.058-0.29c0-0.1-0.286-0.186-0.289-0.279
				c-0.004-0.1,0.297-0.211,0.297-0.311c-0.008-0.096-0.094-0.189-0.094-0.29c-0.007-0.104,0.107-0.204,0.101-0.3
				s-0.058-0.193-0.061-0.293c-0.004-0.093,0.024-0.193,0.021-0.293c-0.004-0.096-0.14-0.189-0.146-0.286
				c0-0.096-0.032-0.193-0.036-0.293c-0.004-0.093,0.093-0.2,0.086-0.297c-0.008-0.096-0.172-0.182-0.179-0.282
				c-0.008-0.1,0.024-0.2,0.018-0.293c-0.007-0.1-0.183-0.186-0.189-0.282c-0.007-0.089,0.164-0.225,0.121-0.325
				c-0.035-0.093-0.057-0.222-0.117-0.3c-0.072-0.093-0.258-0.007-0.34-0.043c-0.09-0.036-0.129-0.2-0.215-0.236
				c-0.093-0.036-0.172-0.1-0.257-0.136c-0.094-0.036-0.193-0.032-0.286-0.071c-0.086-0.036-0.229,0.057-0.315,0.021
				c-0.093-0.04-0.071-0.343-0.16-0.383c-0.09-0.032-0.297,0.225-0.383,0.189c-0.093-0.036-0.172-0.093-0.265-0.125
				c-0.086-0.032-0.172-0.086-0.258-0.118c-0.093-0.036-0.196-0.028-0.285-0.061c-0.09-0.032-0.072-0.361-0.158-0.397
				c-0.093-0.032-0.242,0.1-0.336,0.068c-0.086-0.032-0.125-0.218-0.214-0.254c-0.09-0.028-0.208,0.007-0.301-0.021
				c-0.086-0.028-0.164-0.122-0.25-0.15c-0.093-0.029-0.243,0.128-0.336,0.1c-0.094-0.032-0.179-0.072-0.272-0.1
				c-0.093-0.029-0.149-0.172-0.243-0.197c-0.093-0.025-0.2,0.007-0.293,0c-0.093-0.011-0.192-0.075-0.286-0.071
				c-0.093,0.003-0.186,0.068-0.282,0.079c-0.093,0.011-0.211-0.125-0.304-0.111c-0.097,0.018-0.172,0.136-0.265,0.157
				c-0.093,0.014-0.172,0.1-0.265,0.118c-0.093,0.018-0.164,0.153-0.261,0.171c-0.054,0.007-0.082,0.007-0.122,0.125
				c-0.032,0.1,0.019,0.186,0.021,0.265c0.004,0.093,0.011,0.186,0.011,0.272c0.004,0.093-0.143,0.186-0.136,0.279
				c0,0.096-0.071,0.189-0.071,0.282c0.004,0.093,0.261,0.175,0.265,0.268c0.004,0.093-0.086,0.186-0.079,0.279
				c0.004,0.093-0.05,0.186-0.043,0.279c0.008,0.093-0.164,0.204-0.157,0.296c0.008,0.093,0.125,0.175,0.136,0.269
				c0.015,0.093,0.129,0.168,0.147,0.261c0.011,0.075-0.083,0.211-0.04,0.29c0.043,0.075,0.165,0.115,0.219,0.179
				c0.053,0.068,0.153,0.093,0.218,0.14c0.078,0.061,0.14,0.086,0.215,0.107c0.093,0.032,0.136,0.211,0.222,0.247
				c0.093,0.036,0.285-0.183,0.375-0.143c0.09,0.036,0.132,0.193,0.211,0.24c0.093,0.046,0.132,0.164,0.218,0.211
				c0.086,0.05,0.193,0.053,0.275,0.107c0.082,0.05,0.064,0.236,0.144,0.293c0.078,0.061,0.293-0.057,0.364,0.007
				c0.071,0.061,0.129,0.15,0.196,0.218c0.068,0.068,0.047,0.218,0.111,0.29c0.064,0.072,0.243,0.05,0.304,0.129
				c0.061,0.071,0.104,0.165,0.161,0.243s-0.101,0.293-0.05,0.375c0.05,0.083,0.357,0.015,0.403,0.101
				c0.047,0.085,0.004,0.218,0.047,0.304s0.021,0.204,0.058,0.293c0.035,0.089,0.128,0.15,0.164,0.243
				c0.036,0.086-0.086,0.229-0.058,0.322c0.029,0.093,0.094,0.172,0.122,0.265s-0.007,0.193,0.018,0.29
				c0.025,0.093,0.082,0.175,0.104,0.268c0.021,0.093,0.021,0.189,0.043,0.283c0.015,0.097,0.032,0.204,0.054,0.29
				c0.025,0.093,0.261,0.129,0.29,0.214c0.032,0.093-0.125,0.265-0.086,0.347c0.039,0.089,0.293,0.068,0.343,0.146
				c0.051,0.079,0.094,0.15,0.157,0.214c0.062,0.071,0.122,0.114,0.2,0.168c0.079,0.054,0.18,0.004,0.265,0.039
				c0.086,0.036,0.079,0.387,0.172,0.404s0.222-0.239,0.322-0.232c0.086,0,0.171,0.093,0.271,0.093
				c0.093-0.007,0.179-0.043,0.278-0.054c0.094-0.011,0.219,0.147,0.315,0.126c0.114-0.021,0.186-0.2,0.271-0.236
				c0.107-0.039,0.186-0.093,0.258-0.154c0.085-0.071,0.3-0.078,0.336-0.179c0.035-0.089,0.086-0.239,0.086-0.354
				c0.007-0.1,0-0.229-0.019-0.343c-0.014-0.1-0.189-0.179-0.2-0.279s-0.097-0.193-0.104-0.29c-0.015-0.1,0.032-0.204,0.025-0.304
				c-0.008-0.1,0.011-0.2,0.003-0.304c-0.007-0.1-0.05-0.197-0.061-0.297c-0.007-0.1-0.067-0.2-0.075-0.3
				c-0.007-0.1,0.05-0.204,0.043-0.304C37.208,25.183,37.387,25.111,37.379,25.011z M44.891,20.413c0,0.096-0.061,0.064-0.061,0.165
				c0,0.096,0.015,0.193,0.015,0.29c0,0.096,0.043,0.196,0.043,0.29c0,0.1,0.275,0.193,0.275,0.293c0,0.097-0.312,0.193-0.312,0.29
				c0,0.097,0.086,0.197,0.079,0.29c0,0.1-0.115,0.193-0.115,0.293c0,0.097,0.043,0.193,0.043,0.29s-0.035,0.197-0.035,0.29
				c0,0.1,0.132,0.197,0.132,0.293c0,0.097,0.021,0.193,0.021,0.29c0,0.096-0.104,0.196-0.104,0.29c0,0.1,0.157,0.196,0.157,0.293
				s-0.043,0.193-0.043,0.286c0,0.1,0.172,0.193,0.172,0.293c0,0.097-0.204,0.193-0.204,0.29c0,0.097-0.039,0.193-0.039,0.29
				c0,0.093,0.2,0.186,0.2,0.286c0,0.097-0.136,0.193-0.136,0.286c0,0.097-0.025,0.189-0.025,0.286c0,0.1,0.047,0.193,0.047,0.286
				c0,0.1,0.136,0.193,0.136,0.286c0,0.09-0.261,0.236-0.229,0.329c0.028,0.086,0.364,0.046,0.403,0.132
				c0.04,0.086-0.003,0.118,0.032,0.197c0.072-0.036,0.051-0.054,0.133-0.086c0.075-0.029,0.14-0.1,0.218-0.132
				c0.075-0.032,0.297,0.211,0.365,0.168c0.078-0.043,0.046-0.243,0.1-0.3c0.064-0.071,0.265-0.093,0.297-0.193
				c0.032-0.089-0.018-0.229-0.007-0.322c0.011-0.1,0.075-0.218,0.067-0.311c-0.007-0.104-0.214-0.183-0.222-0.283
				c-0.011-0.1-0.011-0.2-0.021-0.296c-0.011-0.097,0.097-0.211,0.082-0.312c-0.014-0.093-0.082-0.186-0.093-0.286
				c-0.018-0.097,0.04-0.204,0.021-0.3c-0.011-0.1-0.078-0.193-0.089-0.286c-0.011-0.1,0.128-0.211,0.121-0.311
				s-0.118-0.186-0.125-0.29c-0.004-0.093-0.079-0.179-0.082-0.272c-0.004-0.093-0.129-0.186-0.136-0.279
				c0-0.093,0.064-0.189,0.057-0.282c-0.003-0.093-0.078-0.183-0.078-0.275c-0.008-0.093-0.015-0.186-0.019-0.279
				c-0.003-0.093,0.144-0.193,0.14-0.286c-0.007-0.093,0.071-0.186,0.071-0.279c0-0.093-0.264-0.183-0.264-0.275
				c0-0.093,0.093-0.186,0.093-0.283c0-0.093,0.057-0.186,0.057-0.279c0-0.093,0.176-0.189,0.172-0.282
				c0-0.093-0.107-0.186-0.107-0.279c0-0.093-0.114-0.186-0.114-0.279c0-0.097,0.136-0.19,0.136-0.283
				c-0.004-0.122-0.093-0.225-0.118-0.311c-0.032-0.111-0.125-0.165-0.196-0.225c-0.071-0.064-0.143-0.079-0.258-0.086
				c-0.093-0.011-0.214-0.157-0.328-0.129c-0.094,0.021-0.129,0.308-0.226,0.322c-0.093,0.021-0.211-0.085-0.312-0.071
				c-0.093,0.014-0.2-0.054-0.297-0.043c-0.093,0.014-0.182,0.082-0.274,0.093c-0.094,0.015-0.208-0.132-0.301-0.122
				c-0.1,0.011-0.164,0.247-0.265,0.258c-0.093,0.011-0.193-0.007-0.289,0.003c-0.097,0.011-0.2-0.1-0.297-0.089
				c-0.101,0.007-0.179,0.168-0.272,0.179c-0.1,0.007-0.192,0-0.285,0.011c-0.101,0.011-0.219-0.225-0.315-0.211
				c-0.1,0.011-0.157,0.322-0.25,0.329c-0.1,0.014-0.2-0.072-0.3-0.057c-0.094,0.014-0.2-0.043-0.294-0.029
				c-0.093,0.014-0.179,0.093-0.271,0.114c-0.093,0.018-0.222-0.122-0.318-0.1c-0.093,0.018-0.182,0.079-0.275,0.104
				c-0.093,0.021-0.207-0.011-0.3,0.014s-0.179,0.093-0.265,0.125c-0.093,0.029-0.197,0.043-0.286,0.079
				c-0.09,0.029-0.189,0.061-0.275,0.1c-0.086,0.036-0.086,0.272-0.172,0.318c-0.097,0.046-0.211-0.14-0.304-0.179
				c-0.093-0.04-0.265,0.154-0.343,0.132c-0.101-0.029-0.165-0.04-0.236-0.032c-0.107,0.011-0.121,0.032-0.175,0.097
				c-0.054,0.064,0.021,0.128,0,0.225c-0.019,0.082-0.361,0.125-0.369,0.225c0,0.086,0.272,0.179,0.272,0.265
				c0.007,0.1-0.086,0.2-0.086,0.297c0.007,0.096,0.035,0.197,0.039,0.29c0.004,0.1-0.168,0.2-0.161,0.3
				c0,0.097,0.157,0.189,0.161,0.286c0.004,0.1,0.018,0.193,0.018,0.293c0.008,0.093-0.164,0.2-0.164,0.297
				s-0.015,0.193-0.015,0.297c0.008,0.093,0.008,0.193,0.015,0.286c0,0.1,0.172,0.193,0.179,0.29c0,0.096,0.079,0.189,0.086,0.29
				c0,0.1-0.047,0.2-0.043,0.296c0.004,0.097-0.018,0.193-0.015,0.293c0.004,0.104,0.051,0.197,0.051,0.29
				c0.007,0.1,0.064,0.197,0.067,0.293c0.004,0.097-0.054,0.197-0.046,0.293c0,0.1,0.024,0.193,0.028,0.293
				c0.004,0.097,0.021,0.193,0.028,0.29c0,0.097-0.196,0.204-0.193,0.297c0.004,0.1,0.176,0.186,0.183,0.286
				c0.011,0.097-0.046,0.197-0.039,0.293c0.004,0.1,0.015,0.193,0.018,0.293c0.004,0.093,0.086,0.186,0.09,0.286
				c0.003,0.085-0.071,0.175-0.058,0.257c0.015,0.086-0.057,0.189-0.039,0.268c0.021,0.09,0.175,0.11,0.189,0.179
				c0.1,0,0.172-0.061,0.261-0.064c0.101-0.004,0.197-0.032,0.282-0.032c0.101-0.003,0.193,0.243,0.279,0.243
				c0.101,0.007,0.179-0.007,0.271,0c0.093,0.015,0.2-0.2,0.286-0.2c0.093,0,0.176,0.061,0.261,0.05
				c0.094-0.014,0.265,0.172,0.344,0.136c0.082-0.042-0.054-0.35,0.004-0.422c0.05-0.064,0.106-0.075,0.128-0.171
				c0.021-0.079,0.157-0.147,0.15-0.247c-0.004-0.104,0.058-0.204,0.054-0.297c-0.004-0.104-0.236-0.193-0.239-0.29
				c-0.004-0.1,0.192-0.211,0.192-0.304c-0.007-0.1-0.1-0.197-0.106-0.293c-0.008-0.1,0.014-0.2,0.011-0.301
				c-0.004-0.093,0.149-0.207,0.143-0.307s-0.289-0.179-0.289-0.279c-0.008-0.1-0.036-0.2-0.043-0.293
				c-0.008-0.1,0.261-0.218,0.254-0.318c-0.008-0.104-0.172-0.19-0.18-0.29c-0.007-0.1-0.031-0.196-0.039-0.293
				c-0.007-0.1,0.071-0.2,0.064-0.3s0.061-0.208,0.054-0.308c-0.011-0.1-0.064-0.197-0.071-0.3c-0.008-0.1-0.032-0.2-0.032-0.3
				c-0.007-0.1-0.107-0.197-0.107-0.3c-0.007-0.1,0.193-0.208,0.193-0.308c-0.008-0.1-0.032-0.197-0.036-0.3
				c-0.004-0.1-0.089-0.193-0.089-0.297c0-0.1,0.063-0.196,0.067-0.296c0-0.072-0.078-0.154-0.035-0.24
				c0.039-0.075,0-0.232,0.053-0.29c0.068-0.075,0.243,0.039,0.312,0.029c0.097-0.018,0.186-0.083,0.282-0.101
				c0.097-0.021,0.179-0.121,0.275-0.143c0.101-0.018,0.193-0.064,0.286-0.086c0.1-0.018,0.236,0.208,0.336,0.193
				c0.093-0.014,0.14-0.336,0.239-0.35c0.097-0.018,0.243,0.265,0.344,0.25c0.097-0.014,0.153-0.29,0.25-0.304
				c0.097-0.018,0.219,0.125,0.318,0.111c0.093-0.014,0.157-0.272,0.25-0.286c0.101-0.014,0.197-0.036,0.294-0.054
				c0.096-0.014,0.214,0.097,0.314,0.083c0.093-0.015,0.214,0.096,0.311,0.082s0.183-0.111,0.282-0.125
				c0.094-0.015,0.187-0.1,0.279-0.115C44.787,20.238,44.795,20.427,44.891,20.413z M45.109,18.325
				c-0.068-0.068-0.187-0.286-0.258-0.357c-0.071-0.061-0.164-0.114-0.236-0.179c-0.074-0.057-0.179-0.086-0.253-0.146
				c-0.075-0.061-0.318,0.107-0.397,0.054c-0.078-0.057,0.015-0.365-0.064-0.422c-0.075-0.05-0.2-0.036-0.286-0.086
				c-0.086-0.046-0.11-0.2-0.196-0.247c-0.082-0.05-0.193-0.057-0.279-0.104c-0.085-0.042-0.157-0.122-0.243-0.164
				c-0.085-0.04-0.232,0.036-0.317-0.007c-0.086-0.04-0.179-0.057-0.272-0.093c-0.089-0.04-0.136-0.172-0.229-0.208
				c-0.086-0.032-0.232,0.079-0.325,0.043c-0.09-0.032-0.168-0.1-0.258-0.132c-0.089-0.029-0.232,0.1-0.325,0.071
				c-0.093-0.032-0.121-0.25-0.215-0.282c-0.093-0.021-0.179-0.093-0.271-0.115c-0.093-0.028-0.232,0.147-0.325,0.125
				c-0.097-0.025-0.153-0.183-0.25-0.204c-0.093-0.021-0.183-0.064-0.275-0.085c-0.093-0.018-0.2,0.007-0.293-0.007
				c-0.094-0.021-0.211,0.1-0.305,0.086c-0.096-0.018-0.149-0.322-0.243-0.336c-0.096-0.014-0.232,0.29-0.328,0.279
				c-0.097-0.015-0.187-0.043-0.283-0.054c-0.096-0.011-0.186-0.032-0.286-0.04c-0.093-0.007-0.192,0.029-0.285,0.025
				c-0.097-0.003-0.179-0.325-0.272-0.329c-0.097-0.004-0.196,0.171-0.293,0.168c-0.1,0-0.193-0.168-0.293-0.168
				c-0.093,0-0.193,0.079-0.29,0.079c-0.096,0.003-0.196-0.054-0.297-0.046c-0.093,0-0.179,0.204-0.271,0.211
				c-0.1,0.007-0.192,0.003-0.289,0.011c-0.097,0.007-0.204-0.1-0.297-0.089c-0.101,0.011-0.187,0.079-0.279,0.093
				c-0.1,0.014-0.203-0.032-0.297-0.018c-0.096,0.015-0.182,0.089-0.275,0.107c-0.093,0.021-0.222-0.107-0.314-0.086
				c-0.097,0.021-0.171,0.146-0.265,0.168c-0.093,0.025-0.171,0.118-0.257,0.14c-0.097,0.029-0.15,0.171-0.243,0.204
				s-0.2,0-0.29,0.032c-0.089,0.036-0.146,0.14-0.239,0.172c-0.086,0.039-0.172,0.079-0.258,0.122
				c-0.086,0.039-0.232-0.05-0.318-0.007c-0.085,0.046-0.211,0.029-0.289,0.079c-0.086,0.046-0.032,0.315-0.111,0.368
				c-0.082,0.054-0.207,0.025-0.282,0.086c-0.078,0.054-0.193,0.061-0.265,0.125c-0.075,0.064-0.314,0.154-0.379,0.215
				c0.093,0.032,0.322,0.079,0.422,0.107c0.093,0.029,0.215-0.05,0.312-0.021c0.093,0.029,0.146,0.19,0.239,0.215
				c0.097,0.028,0.211-0.021,0.304,0.003c0.097,0.025,0.204,0,0.297,0.025c0.093,0.029,0.193,0.047,0.29,0.072
				c0.093,0.028,0.139,0.207,0.239,0.236c0.097,0.029,0.269-0.208,0.361-0.175s0.146,0.183,0.239,0.218
				c0.097,0.029,0.157,0.143,0.25,0.179c0.093,0.032,0.208,0.014,0.297,0.05c0.09,0.036,0.118,0.222,0.211,0.261
				c0.086,0.04,0.271-0.125,0.357-0.082c0.093,0.046,0.165,0.114,0.251,0.161c0.085,0.046,0.121,0.197,0.207,0.24
				c0.089,0.043,0.236-0.05,0.329-0.014c0.086,0.042,0.164,0.096,0.257,0.132c0.086,0.04,0.094,0.304,0.187,0.333
				c0.093,0.036,0.278-0.222,0.372-0.193c0.093,0.029,0.157,0.143,0.25,0.171c0.093,0.021,0.175,0.111,0.268,0.129
				c0.097,0.021,0.204-0.025,0.297-0.014c0.101,0.011,0.179,0.182,0.279,0.193c0.093,0.007,0.2-0.028,0.297-0.028
				s0.203,0.064,0.304,0.057c0.093,0,0.196-0.05,0.293-0.061s0.2-0.003,0.301-0.025c0.093-0.014,0.2-0.021,0.293-0.046
				c0.093-0.021,0.136-0.257,0.229-0.286c0.093-0.025,0.247,0.14,0.344,0.107c0.086-0.032,0.093-0.286,0.186-0.326
				c0.093-0.036,0.179-0.071,0.265-0.111c0.093-0.039,0.204-0.082,0.301-0.1c0.096-0.018,0.207-0.118,0.307-0.125
				c0.094,0,0.197,0.343,0.297,0.343c0.097,0.007,0.211-0.265,0.304-0.257c0.101,0,0.197,0.1,0.294,0.093
				c0.093,0,0.186-0.028,0.278-0.032c0.093-0.003,0.193,0.172,0.286,0.168c0.093-0.003,0.179-0.161,0.271-0.168
				c0.094-0.003,0.187-0.018,0.283-0.025c0.093-0.007,0.2,0.157,0.293,0.15c0.093-0.007,0.196,0,0.289-0.007
				c0.094-0.014,0.187-0.029,0.283-0.046c0.089-0.015,0.153-0.204,0.246-0.218c0.086-0.021,0.157-0.118,0.25-0.143
				c0.094-0.028,0.193,0,0.279-0.028c0.093-0.032,0.186-0.04,0.275-0.072C44.773,18.375,45.023,18.361,45.109,18.325z
				 M44.415,24.435c0-0.1,0.008-0.196,0.008-0.296s-0.021-0.2-0.021-0.301c0-0.1-0.039-0.196-0.039-0.296
				c0-0.097-0.275-0.197-0.275-0.283c0-0.1,0.307-0.193,0.307-0.286c0-0.1-0.085-0.193-0.085-0.282c-0.008-0.1,0.106-0.2,0.1-0.29
				c-0.007-0.107-0.057-0.2-0.071-0.286c-0.007-0.107,0.007-0.225-0.015-0.308c-0.028-0.107-0.192-0.164-0.243-0.236
				c-0.054-0.079-0.146-0.136-0.232-0.175c-0.075-0.039-0.153-0.168-0.257-0.182c-0.083-0.011-0.193,0.136-0.297,0.136
				c-0.086,0-0.179-0.036-0.279-0.028c-0.086,0.007-0.164,0.186-0.265,0.193c-0.093,0.007-0.2-0.186-0.3-0.179
				c-0.09,0.007-0.187-0.021-0.286-0.007c-0.093,0.007-0.165,0.222-0.265,0.229c-0.107,0.011-0.226-0.107-0.318-0.086
				c-0.11,0.029-0.218,0.043-0.304,0.086c-0.093,0.05-0.157,0.154-0.215,0.229c-0.064,0.079,0.019,0.208-0.011,0.308
				c-0.024,0.089-0.332,0.143-0.34,0.25c-0.007,0.093,0.308,0.193,0.315,0.307c0.007,0.093-0.008,0.19,0,0.283
				c0.007,0.093-0.008,0.189,0,0.282c0.007,0.093,0.057,0.186,0.061,0.279c0.004,0.093-0.304,0.207-0.297,0.3
				c0.004,0.093,0.186,0.179,0.189,0.271c0.004,0.093-0.157,0.197-0.153,0.293c0.003,0.093,0.085,0.179,0.089,0.279
				c0.004,0.093-0.054,0.186-0.046,0.286c0.007,0.093,0.207,0.175,0.214,0.272c0.008,0.097,0,0.189,0.008,0.282
				c0.007,0.097-0.107,0.197-0.101,0.29c0.007,0.104,0.071,0.196,0.075,0.29c0.007,0.1-0.047,0.2-0.047,0.296
				c0.008,0.1,0.068,0.193,0.079,0.286c0.007,0.104-0.144,0.208-0.136,0.297c0.007,0.104,0.114,0.197,0.121,0.282
				c0.015,0.107,0.09,0.2,0.107,0.279c0.021,0.118,0.157,0.143,0.2,0.214c0.05,0.089,0.032,0.154,0.129,0.179
				c0.078,0.021,0.15-0.043,0.265-0.05c0.082,0,0.168-0.015,0.278-0.029c0.086-0.011,0.2,0.122,0.305,0.107
				c0.089-0.018,0.192,0.046,0.296,0.028c0.094-0.014,0.144-0.286,0.243-0.3c0.09-0.014,0.2,0.064,0.301,0.046
				c0.097-0.018,0.2,0.032,0.3,0.018c0.097-0.014,0.236,0.136,0.308,0.114c0.097-0.032,0.157-0.182,0.219-0.229
				c0.071-0.058,0.046-0.193,0.086-0.272c0.039-0.068,0.196-0.118,0.203-0.211c0.015-0.079-0.057-0.179-0.061-0.275
				c-0.004-0.1-0.061-0.2-0.061-0.3s-0.011-0.2-0.015-0.3s0.161-0.2,0.161-0.3s-0.275-0.204-0.275-0.304s0.132-0.2,0.132-0.304
				c0-0.1,0.086-0.2,0.086-0.3s-0.054-0.2-0.054-0.3C44.244,24.632,44.415,24.532,44.415,24.435z M22.72,34.851
				c0.093,0.179,0.186,0.414,0.25,0.457c0.075,0.054,0.168,0.086,0.243,0.136c0.075,0.051,0.175,0.058,0.254,0.107
				c0.079,0.043,0.297-0.146,0.372-0.1c0.075,0.05-0.021,0.351,0.05,0.403c0.068,0.054,0.183,0.04,0.247,0.101
				c0.071,0.064,0.071,0.218,0.15,0.275c0.072,0.061,0.186,0.086,0.257,0.14c0.079,0.054,0.15,0.139,0.232,0.186
				c0.083,0.047,0.232-0.021,0.318,0.018c0.086,0.043,0.182,0.058,0.271,0.086c0.09,0.028,0.158,0.161,0.243,0.187
				c0.093,0.021,0.218-0.118,0.311-0.104c0.097,0.019,0.183,0.064,0.275,0.068c0.093,0.004,0.179-0.164,0.272-0.164
				c0.093-0.004,0.196,0.192,0.29,0.186c0.093-0.007,0.193,0.021,0.286,0.004c0.089-0.015,0.143-0.232,0.236-0.254
				c0.089-0.019,0.211,0.093,0.304,0.067c0.086-0.024,0.186-0.024,0.279-0.054c0.086-0.032,0.165-0.1,0.251-0.132
				c0.093-0.032,0.136-0.197,0.225-0.226c0.09-0.028,0.271,0.222,0.361,0.193c0.093-0.032,0.086-0.357,0.179-0.39
				c0.086-0.025,0.186-0.039,0.279-0.061c0.085-0.029,0.186-0.04,0.271-0.064c0.093-0.029,0.172-0.094,0.265-0.122
				c0.086-0.024,0.265,0.254,0.354,0.229c0.09-0.029,0.133-0.222,0.226-0.243s0.226,0.114,0.314,0.089
				c0.09-0.021,0.164-0.118,0.254-0.146c0.09-0.021,0.196,0.015,0.29-0.007c0.093-0.025,0.136-0.243,0.225-0.265
				c0.09-0.021,0.183-0.036,0.275-0.064c0.093-0.025,0.215,0.071,0.308,0.046c0.093-0.024,0.179-0.11,0.271-0.139
				c-0.067-0.079-0.107-0.204-0.186-0.265c-0.079-0.064-0.193-0.086-0.279-0.136c-0.086-0.058-0.093-0.24-0.179-0.286
				c-0.093-0.054-0.229-0.015-0.314-0.064c-0.093-0.054-0.207-0.043-0.286-0.107c-0.086-0.058-0.25-0.036-0.321-0.107
				c-0.068-0.071-0.094-0.204-0.144-0.293c-0.05-0.082-0.164-0.165-0.196-0.265c-0.025-0.09-0.019-0.325-0.025-0.433
				c0.079,0.039,0.258,0.186,0.336,0.226c0.086,0.043,0.136,0.149,0.219,0.192c0.082,0.04,0.278-0.149,0.36-0.114
				c0.083,0.043,0.129,0.165,0.215,0.208c0.079,0.039,0.136,0.136,0.222,0.179c0.082,0.042,0.09,0.235,0.175,0.278
				c0.083,0.043,0.212-0.015,0.297,0.028c0.079,0.04,0.15-0.007,0.232,0.036c-0.054-0.075-0.014-0.172-0.075-0.236
				c-0.071-0.064-0.192-0.064-0.264-0.121c-0.072-0.054-0.18-0.064-0.251-0.114c-0.071-0.058-0.157-0.107-0.218-0.165
				c-0.068-0.064-0.004-0.229-0.054-0.304c-0.05-0.086-0.322,0.007-0.375-0.054c-0.068-0.078-0.032-0.218-0.104-0.268
				c-0.078-0.054-0.121-0.176-0.207-0.2C30.7,32.877,30.593,32.92,30.5,32.92c-0.089,0-0.215-0.144-0.308-0.122
				c-0.086,0.018-0.118,0.265-0.203,0.297c-0.086,0.032-0.179,0.039-0.265,0.071s-0.219-0.039-0.297-0.003
				c-0.079,0.032-0.071,0.207-0.14,0.271c-0.061,0.057-0.132,0.107-0.186,0.179c-0.058,0.071-0.297-0.021-0.354,0.043
				c-0.067,0.071,0.09,0.343,0.021,0.414c-0.071,0.068-0.207,0.068-0.275,0.133c-0.071,0.068-0.189,0.079-0.261,0.132
				c-0.079,0.064-0.114,0.172-0.193,0.226c-0.079,0.054-0.239-0.032-0.321,0.011c-0.086,0.05-0.143,0.114-0.229,0.15
				c-0.086,0.035-0.182-0.004-0.272,0.018c-0.093,0.025-0.157,0.071-0.253,0.079c-0.093,0.007-0.168-0.015-0.261-0.025
				c-0.093-0.007-0.157-0.028-0.257-0.054c-0.089-0.021-0.236,0.161-0.329,0.125c-0.086-0.032-0.086-0.257-0.179-0.304
				c-0.079-0.039-0.275,0.125-0.361,0.075c-0.075-0.05-0.161-0.107-0.247-0.161c-0.079-0.054-0.165-0.104-0.243-0.164
				c-0.107-0.082-0.171-0.097-0.271-0.061c-0.086,0.035-0.297-0.251-0.386-0.215c-0.089,0.035-0.082,0.321-0.171,0.357
				c-0.09,0.036-0.215-0.015-0.301,0.018c-0.093,0.04-0.171,0.097-0.257,0.133c-0.085,0.035-0.239-0.09-0.336-0.054
				c-0.086,0.039-0.114,0.218-0.208,0.254C23.071,34.786,22.806,34.811,22.72,34.851z M41.905,32.733
				c-0.1-0.057-0.278-0.246-0.364-0.293c-0.104-0.05-0.207-0.086-0.293-0.129c-0.101-0.05-0.208-0.064-0.294-0.11
				c-0.093-0.054-0.328,0.132-0.418,0.067c-0.086-0.054,0.007-0.364-0.075-0.429c-0.078-0.058-0.207-0.054-0.293-0.122
				c-0.079-0.057-0.086-0.214-0.164-0.282c-0.079-0.061-0.14,0.021-0.226-0.046c0.097-0.054,0.125,0.032,0.196-0.008
				c0.093-0.057,0.093-0.211,0.165-0.25c0.1-0.064,0.2-0.157,0.304-0.218c-0.064-0.09-0.111-0.297-0.176-0.383
				c-0.074,0.054-0.164,0.258-0.246,0.304c-0.082,0.047-0.189,0.064-0.269,0.118c-0.082,0.05-0.067,0.239-0.146,0.293
				c-0.082,0.058-0.275-0.054-0.347,0.011c-0.071,0.068-0.179,0.118-0.229,0.197c-0.058,0.085,0.046,0.285-0.008,0.364
				c-0.064,0.079-0.235,0.068-0.304,0.14c-0.067,0.075-0.157,0.125-0.225,0.189c-0.079,0.067-0.126,0.164-0.204,0.222
				c-0.082,0.057-0.101,0.229-0.187,0.278c-0.089,0.051-0.296-0.179-0.39-0.146c-0.096,0.032-0.104,0.368-0.2,0.383
				c-0.096,0.021-0.222,0.018-0.321,0.021c-0.097,0.004-0.211-0.015-0.314-0.028c-0.094-0.008-0.219,0.018-0.314-0.008
				c-0.094-0.021-0.101-0.35-0.201-0.382c-0.085-0.032-0.239,0.093-0.332,0.054c-0.086-0.043-0.093-0.232-0.183-0.286
				c-0.082-0.047-0.2-0.032-0.286-0.094c-0.071-0.042-0.157-0.143-0.243-0.171c-0.085-0.021-0.207,0.16-0.293,0.157
				c-0.089,0-0.164-0.004-0.235,0.014c-0.094,0.029-0.219-0.057-0.308-0.028c-0.09,0.028-0.161,0.114-0.251,0.144
				c-0.089,0.032-0.196,0-0.285,0.032c-0.09,0.031-0.165,0.11-0.254,0.125c-0.094,0.024-0.204-0.111-0.297-0.094
				c-0.093,0.008-0.165,0.118-0.258,0.115c-0.093,0-0.186,0.057-0.286,0.039c-0.089-0.015-0.222,0.078-0.314,0.047
				c-0.079-0.029-0.107-0.075-0.215-0.043c-0.078,0.028-0.128,0.132-0.229,0.171c-0.078,0.036-0.164,0.083-0.258,0.122
				c-0.078,0.039-0.229-0.054-0.328-0.021c0.085,0.05,0.125,0.172,0.203,0.222c0.083,0.05,0.297-0.122,0.376-0.071
				c0.075,0.05,0.107,0.175,0.186,0.222c0.079,0.05,0.122,0.157,0.2,0.203c0.079,0.047,0.064,0.251,0.144,0.297
				c0.078,0.047,0.211,0.007,0.293,0.054c0.078,0.047,0.214,0.004,0.293,0.054c0.079,0.047,0.093,0.215,0.168,0.258
				c0.079,0.05,0.196,0.032,0.275,0.078c0.079,0.05,0.186,0.05,0.265,0.101c0.078,0.046,0.164,0.086,0.243,0.128
				c0.078,0.043,0.075,0.232,0.157,0.279s0.247-0.189,0.357-0.179c0.107,0.007,0.193,0.125,0.286,0.1
				c0.093-0.028,0.211,0.032,0.308,0.008c0.093-0.028,0.175-0.107,0.268-0.129c0.094-0.025,0.226,0.107,0.326,0.079
				c0.093-0.029,0.128-0.269,0.222-0.294c0.093-0.028,0.192-0.021,0.285-0.05c0.097-0.028,0.222,0.064,0.315,0.043
				c0.093-0.028,0.149-0.196,0.243-0.222c0.093-0.028,0.192-0.036,0.286-0.061c0.093-0.025,0.25,0.189,0.343,0.161
				c0.093-0.025,0.107-0.34,0.207-0.365c0.094-0.028,0.211,0.043,0.308,0.018c0.093-0.024,0.2,0.019,0.293-0.007
				c0.097-0.025,0.172-0.11,0.269-0.14c0.093-0.024,0.232,0.107,0.325,0.079c0.093-0.025,0.179-0.086,0.271-0.111
				c0.094-0.024,0.204,0.011,0.297-0.014c0.093-0.025,0.179-0.086,0.272-0.111c0.096-0.028,0.196-0.032,0.289-0.057
				c0.093-0.029,0.189-0.043,0.282-0.068c0.094-0.025,0.133-0.261,0.226-0.286c0.093-0.024,0.243,0.146,0.343,0.125
				c0.094-0.024,0.126-0.278,0.219-0.304s0.189-0.05,0.286-0.075C41.526,32.72,41.806,32.759,41.905,32.733z M13.024,33.549
				c-0.021-0.093,0.114-0.05,0.1-0.143c-0.014-0.101-0.05-0.187-0.064-0.279s-0.068-0.186-0.082-0.279
				c-0.015-0.1-0.304-0.143-0.322-0.229c-0.021-0.1,0.247-0.279,0.218-0.364c-0.036-0.094-0.179-0.165-0.243-0.222
				c-0.068-0.062-0.114-0.232-0.214-0.286c-0.086-0.043-0.222-0.051-0.322-0.086c-0.1-0.039-0.208-0.107-0.304-0.133
				c-0.107-0.024-0.247,0.079-0.34,0.072c-0.15-0.011-0.272,0.028-0.314,0.078c-0.058,0.075-0.2,0.101-0.247,0.183
				c-0.046,0.082,0.047,0.243,0.011,0.329c-0.036,0.086-0.107,0.157-0.143,0.243c-0.028,0.093,0.1,0.229,0.075,0.321
				c-0.025,0.09-0.247,0.122-0.275,0.215c-0.028,0.093-0.093,0.164-0.122,0.257c-0.032,0.086,0.125,0.144,0.093,0.236
				c0.097,0.028,0.071,0.133,0.165,0.161c0.093,0.032,0.179,0.086,0.271,0.118c0.097,0.028,0.2,0.018,0.293,0.046
				c0.093,0.032,0.229-0.067,0.322-0.039c0.093,0.028,0.096,0.336,0.189,0.368c0.093,0.028,0.282-0.243,0.375-0.211
				c0.093,0.028,0.179,0.079,0.272,0.107s0.179,0.071,0.271,0.104c0.093,0.028,0.197,0.018,0.29,0.047
				c0.093,0.032,0.089,0.357,0.182,0.39c0.093,0.028,0.24-0.111,0.333-0.079s0.132,0.219,0.225,0.247
				c0.093,0.028,0.211-0.011,0.304,0.018c0.093,0.032,0.168,0.118,0.261,0.146c0.093,0.029,0.247-0.129,0.336-0.1
				c0.093,0.032,0.182,0.071,0.271,0.104c0.093,0.028,0.15,0.175,0.243,0.204c0.093,0.028,0.2,0.007,0.293,0.035
				c0.093,0.032,0.165,0.122,0.258,0.15c0.093,0.028,0.2,0.007,0.293,0.036c0.093,0.028,0.14,0.2,0.232,0.229
				c0.097,0.028,0.218-0.039,0.308-0.011c0.093,0.032,0.204-0.007,0.296,0.025c0.093,0.028,0.222-0.062,0.315-0.032
				c0.093,0.032,0.165,0.117,0.257,0.149c0.093,0.029,0.204-0.018,0.297,0.015c0.086,0.025,0.118,0.015,0.218,0
				c0.09-0.011,0.2,0.111,0.29,0.086c0.089-0.021,0.25-0.004,0.336-0.018c-0.014-0.086-0.257-0.226-0.261-0.322
				c-0.003-0.093,0.086-0.189,0.083-0.278c-0.007-0.097,0.046-0.193,0.028-0.275c-0.021-0.104,0.061-0.312-0.003-0.369
				c-0.071-0.057-0.214-0.042-0.282-0.1c-0.072-0.064-0.211-0.039-0.283-0.101c-0.071-0.057-0.061-0.222-0.136-0.282
				c-0.075-0.054-0.197-0.054-0.272-0.11c-0.075-0.054-0.182-0.062-0.261-0.114c-0.079-0.051-0.161-0.094-0.24-0.144
				c-0.079-0.046-0.082-0.232-0.157-0.278c-0.086-0.043-0.293,0.153-0.375,0.114c-0.086-0.043-0.111-0.2-0.197-0.232
				c-0.085-0.04-0.139-0.154-0.225-0.193s-0.193-0.025-0.282-0.068c-0.086-0.035-0.115-0.222-0.2-0.261
				c-0.093-0.039-0.265,0.14-0.351,0.111c-0.093-0.029-0.165-0.079-0.257-0.101c-0.093-0.021-0.172-0.15-0.265-0.157
				c-0.1-0.011-0.186,0.144-0.279,0.154c-0.097,0.011-0.179,0.011-0.268,0.046c-0.086,0.028-0.286-0.143-0.372-0.086
				c-0.075,0.047,0.025,0.344-0.046,0.415c-0.072,0.058-0.197,0.054-0.265,0.132c-0.057,0.068-0.171,0.104-0.229,0.187
				C13.07,33.517,13.074,33.463,13.024,33.549z M28.427,30.642c-0.09-0.011-0.265-0.096-0.329-0.11
				c-0.093-0.015-0.215-0.007-0.279,0c-0.093,0.015-0.183,0.071-0.275,0.086c-0.093,0.014-0.146,0.3-0.243,0.314
				c-0.093,0.015-0.232-0.275-0.325-0.261c-0.093,0.018-0.179,0.11-0.275,0.118c-0.093,0.014-0.204-0.086-0.297-0.072
				c-0.093,0.015-0.186,0.072-0.279,0.086c-0.093,0.011-0.193-0.014-0.286,0c-0.093,0.011-0.171,0.15-0.268,0.165
				c-0.093,0.007-0.186,0.043-0.279,0.054c-0.093,0.011-0.204-0.083-0.297-0.068c-0.093,0.007-0.172,0.179-0.265,0.186
				c-0.093,0.008-0.197-0.024-0.29-0.014c-0.093,0.007-0.175,0.186-0.272,0.192c-0.096,0.008-0.204-0.186-0.304-0.179
				c-0.093,0.008-0.193-0.032-0.286-0.024c-0.093,0.011-0.179,0.211-0.271,0.222c-0.093,0.007-0.197-0.133-0.293-0.125
				c-0.093,0-0.186-0.021-0.286-0.021c-0.093,0.003-0.189,0.043-0.283,0.05c-0.097,0-0.189,0.136-0.286,0.136
				c-0.096,0-0.189-0.293-0.282-0.297c-0.1,0-0.2,0.312-0.293,0.312c-0.093-0.008-0.189-0.029-0.286-0.032
				c-0.093-0.004-0.193-0.025-0.286-0.032c-0.093-0.008-0.193,0.028-0.293,0.021c-0.093-0.008-0.157-0.329-0.257-0.34
				c-0.093-0.007-0.204,0.157-0.3,0.146c-0.093-0.015-0.168-0.186-0.261-0.2c-0.089-0.015-0.254,0.036-0.318,0.071
				c-0.064,0.036-0.179,0.036-0.243,0.082c-0.079,0.058,0,0.236-0.014,0.297c-0.015,0.093-0.043,0.187-0.057,0.275
				c-0.015,0.093-0.147,0.168-0.158,0.261c-0.014,0.094,0.029,0.193,0.015,0.286c-0.015,0.094-0.086,0.176-0.1,0.269
				c-0.015,0.093,0.032,0.189,0.018,0.282c-0.011,0.093-0.171,0.172-0.182,0.265c-0.014,0.093,0.079,0.193,0.064,0.29
				c-0.007,0.093,0.046,0.196,0.032,0.289c0.093-0.007,0.175-0.136,0.257-0.143c0.093,0,0.179,0.057,0.261,0.054
				c0.089-0.008,0.143-0.09,0.222-0.111c0.093-0.028,0.186-0.057,0.279-0.082c0.093-0.025,0.222,0.089,0.315,0.061
				c0.093-0.021,0.207,0.025,0.3,0c0.093-0.028,0.114-0.3,0.208-0.325c0.093-0.025,0.207,0.036,0.3,0.007
				c0.093-0.024,0.204,0.008,0.296-0.018c0.093-0.028,0.232,0.114,0.329,0.086c0.093-0.021,0.154-0.15,0.247-0.179
				c0.093-0.021,0.157-0.154,0.25-0.179c0.093-0.028,0.222,0.078,0.314,0.05c0.093-0.025,0.165-0.129,0.257-0.15
				c0.093-0.028,0.172-0.107,0.265-0.132c0.093-0.025,0.186-0.061,0.279-0.086c0.093-0.025,0.226,0.104,0.318,0.079
				c0.093-0.025,0.118-0.315,0.211-0.337c0.093-0.024,0.218,0.079,0.311,0.054c0.093-0.028,0.211,0.036,0.304,0.008
				c0.093-0.021,0.171-0.101,0.264-0.122c0.093-0.021,0.222,0.114,0.322,0.093c0.093-0.018,0.136-0.265,0.229-0.282
				s0.193-0.011,0.286-0.032c0.093-0.015,0.208,0.079,0.308,0.064c0.093-0.018,0.157-0.179,0.25-0.2
				c0.097-0.018,0.193-0.018,0.29-0.032c0.093-0.018,0.232,0.204,0.329,0.189c0.093-0.021,0.139-0.329,0.232-0.347
				c0.093-0.018,0.204,0.061,0.3,0.047c0.093-0.021,0.2,0.031,0.3,0.014c0.093-0.014,0.179-0.093,0.271-0.114
				c0.093-0.018,0.258,0.107,0.357,0.093c0.008-0.035,0.064-0.243,0.086-0.368c0.015-0.075,0.093-0.146,0.111-0.246
				C28.43,30.946,28.412,30.731,28.427,30.642z M12.995,18.511c0.05,0.086,0.086,0.354,0.136,0.437
				c0.05,0.085,0.122,0.164,0.172,0.247c0.057,0.082,0.15,0.146,0.204,0.225s0.34-0.007,0.397,0.068
				c0.057,0.079-0.118,0.347-0.054,0.422c0.061,0.075,0.193,0.097,0.261,0.168c0.068,0.072,0.064,0.229,0.136,0.293
				c0.071,0.068,0.186,0.107,0.257,0.165c0.079,0.064,0.143,0.157,0.222,0.214c0.083,0.057,0.24,0,0.326,0.05
				c0.085,0.05,0.182,0.079,0.271,0.122c0.089,0.04,0.14,0.179,0.232,0.211c0.097,0.032,0.243-0.085,0.336-0.061
				c0.093,0.029,0.179,0.086,0.272,0.107c0.1,0.018,0.211-0.14,0.308-0.129c0.1,0.011,0.175,0.222,0.279,0.222
				c0.093,0,0.2,0.04,0.296,0.036c0.097-0.007,0.175-0.214,0.272-0.229c0.097-0.015,0.211,0.107,0.297,0.085
				c0.093-0.021,0.193-0.021,0.286-0.05c0.086-0.029,0.165-0.107,0.25-0.146c0.086-0.04,0.104-0.2,0.186-0.247
				c0.079-0.046,0.322,0.154,0.4,0.1c0.075-0.05-0.036-0.364,0.039-0.422c0.075-0.057,0.154-0.093,0.226-0.157
				c0.068-0.064,0.143-0.114,0.211-0.179c0.068-0.068,0.096-0.161,0.161-0.232c0.064-0.068,0.361,0.072,0.422,0
				c0.064-0.071-0.014-0.257,0.05-0.333c0.061-0.071,0.25-0.039,0.308-0.114c0.064-0.075,0.064-0.193,0.121-0.268
				c0.061-0.075,0.175-0.258,0.236-0.333c-0.1,0.003-0.308,0.143-0.404,0.143c-0.096,0.007-0.193,0-0.29,0.007
				c-0.1,0-0.2-0.114-0.3-0.107c-0.097,0-0.189,0.061-0.29,0.064c-0.097,0.004-0.197-0.057-0.297-0.05
				c-0.093,0-0.193,0.064-0.29,0.064c-0.097,0.007-0.197-0.143-0.293-0.14c-0.097,0.003-0.189,0.107-0.29,0.107
				c-0.093,0.003-0.193,0.071-0.29,0.075c-0.097,0-0.193,0.128-0.29,0.128c-0.1,0-0.193-0.064-0.293-0.071
				c-0.1,0-0.2,0.079-0.297,0.071c-0.096,0-0.196,0.007-0.297,0c-0.093,0-0.186-0.15-0.286-0.15
				c-0.097-0.007-0.189-0.086-0.286-0.093c-0.097,0-0.208,0.25-0.308,0.243c-0.093,0-0.186-0.104-0.286-0.111
				c-0.096-0.007-0.189-0.079-0.286-0.086c-0.1-0.007-0.175-0.193-0.272-0.2c-0.1-0.011-0.2,0.083-0.3,0.075
				c-0.097-0.014-0.204,0.086-0.3,0.072c-0.1-0.007-0.175-0.158-0.272-0.172c-0.1-0.018-0.2,0.046-0.3,0.032
				c-0.096-0.018-0.2,0.021-0.296,0.003C13.317,18.686,13.095,18.529,12.995,18.511z M15.984,30.589
				c0.1-0.008,0.35,0.071,0.447,0.067c0.104-0.007,0.197-0.032,0.293-0.039c0.104-0.008,0.197-0.058,0.29-0.064
				c0.101-0.007,0.179-0.293,0.272-0.301c0.104-0.007,0.222,0.294,0.314,0.286c0.1-0.007,0.193-0.093,0.286-0.1
				c0.1-0.008,0.211,0.1,0.3,0.086c0.097-0.015,0.193-0.079,0.279-0.101c0.1-0.021,0.208-0.015,0.293-0.043
				c0.093-0.035,0.143-0.193,0.222-0.232c0.086-0.046,0.161-0.11,0.232-0.164c0.079-0.054,0.225-0.054,0.286-0.118
				c0.064-0.071-0.007-0.243,0.039-0.325c0.046-0.079,0.118-0.146,0.15-0.239c0.021-0.086-0.125-0.197-0.115-0.294
				c0.011-0.089,0.222-0.164,0.215-0.261c0-0.09,0.036-0.189,0.021-0.29c-0.015-0.085-0.229-0.143-0.25-0.235
				c-0.021-0.09,0.093-0.215,0.064-0.3c-0.036-0.115-0.007-0.243-0.036-0.351c-0.021-0.093-0.083-0.171-0.1-0.265
				c-0.018-0.097-0.172-0.157-0.19-0.25c-0.018-0.093,0.254-0.243,0.232-0.336c-0.014-0.093-0.343-0.118-0.364-0.211
				c-0.018-0.093-0.018-0.182-0.04-0.275c-0.025-0.089-0.025-0.182-0.046-0.271c-0.025-0.089-0.093-0.165-0.122-0.25
				c-0.029-0.089,0.236-0.279,0.208-0.364c-0.036-0.093-0.243-0.101-0.308-0.172c-0.061-0.071-0.036-0.271-0.114-0.322
				c-0.079-0.05-0.218-0.036-0.308-0.071c-0.086-0.032-0.186-0.118-0.279-0.129c-0.093-0.014-0.2,0.179-0.293,0.182
				c-0.096,0.007-0.179,0.007-0.268,0.036c-0.089,0.025-0.225-0.04-0.311,0.011c-0.1,0.061-0.143,0.171-0.193,0.232
				c-0.072,0.093-0.158,0.196-0.15,0.29c0.014,0.085,0.118,0.179,0.183,0.257c0.053,0.075,0.01,0.25,0.075,0.325
				c0.064,0.079,0.2,0.075,0.243,0.15c0.046,0.089,0.154,0.146,0.193,0.232c0.046,0.093,0.204,0.139,0.236,0.229
				c0.039,0.1,0.014,0.222,0.046,0.315c0.032,0.096,0.132,0.182,0.154,0.279c0.021,0.1,0.043,0.214,0.057,0.308
				c0.007,0.104-0.132,0.214-0.136,0.314c-0.007,0.1-0.089,0.186-0.107,0.286c-0.014,0.094,0.211,0.258,0.179,0.351
				c-0.028,0.093-0.154,0.172-0.193,0.265c-0.043,0.086-0.143,0.15-0.197,0.243c-0.046,0.086-0.247,0.064-0.304,0.15
				c-0.057,0.078-0.029,0.214-0.093,0.3c-0.057,0.064-0.036,0.204-0.1,0.265c-0.064,0.064-0.222,0.021-0.29,0.086
				c-0.061,0.054-0.079,0.172-0.154,0.229c-0.064,0.054-0.1,0.154-0.171,0.215c-0.064,0.058-0.125,0.118-0.197,0.179
				C16.299,30.431,16.056,30.524,15.984,30.589z M12.416,27.585c0.043,0.079,0.093,0.204,0.136,0.29
				c0.043,0.083,0.093,0.154,0.136,0.24c0.036,0.086,0.115,0.15,0.15,0.236c0.043,0.085,0.329,0.046,0.372,0.128
				c0.042,0.086-0.179,0.322-0.129,0.394c0.05,0.086,0.182,0.122,0.243,0.187c0.064,0.071,0.089,0.235,0.168,0.285
				c0.079,0.051,0.2,0.058,0.286,0.101s0.171,0.114,0.261,0.15c0.089,0.032,0.229-0.062,0.322-0.036
				c0.093,0.028,0.189,0.028,0.286,0.047c0.093,0.018,0.179,0.139,0.272,0.146c0.1,0.014,0.207-0.14,0.304-0.136
				c0.097,0.003,0.189,0.043,0.286,0.035c0.097-0.007,0.161-0.189,0.254-0.203c0.096-0.019,0.236,0.153,0.329,0.117
				c0.089-0.039,0.204-0.05,0.29-0.106c0.083-0.051,0.032-0.272,0.104-0.34c0.071-0.068,0.236-0.032,0.3-0.111
				c0.064-0.075,0.143-0.143,0.193-0.229c0.05-0.079,0.064-0.193,0.1-0.282c0.043-0.09-0.057-0.219-0.028-0.312
				c0.025-0.093,0.336-0.132,0.35-0.229c0.015-0.1-0.293-0.215-0.293-0.315s0.007-0.171-0.007-0.268
				c-0.021-0.096-0.025-0.171-0.061-0.261c-0.04-0.089-0.111-0.143-0.165-0.229s0.146-0.343,0.086-0.422
				c-0.064-0.079-0.265-0.043-0.336-0.118c-0.071-0.068-0.032-0.264-0.104-0.333c-0.075-0.064-0.208-0.079-0.286-0.139
				c-0.079-0.064-0.125-0.175-0.204-0.236c-0.061-0.047-0.225,0.111-0.318,0.111c-0.079,0-0.157,0.007-0.25,0.021
				c-0.079,0.014-0.186-0.086-0.272-0.068c-0.093,0.018-0.165,0.086-0.243,0.093c-0.114,0.011-0.229-0.046-0.343-0.061
				c-0.1-0.011-0.2,0.036-0.293,0.029c-0.1,0-0.204-0.157-0.293-0.15c-0.1,0.004-0.2,0.118-0.286,0.136
				c-0.1,0.021-0.172,0.114-0.258,0.15c-0.093,0.036-0.093,0.183-0.171,0.24c-0.068,0.054-0.165,0.061-0.229,0.139
				c-0.057,0.068-0.036,0.172-0.082,0.258c-0.04,0.079-0.068,0.153-0.1,0.25c-0.032,0.079-0.197,0.122-0.218,0.218
				c-0.025,0.085-0.122,0.161-0.139,0.261C12.523,27.349,12.43,27.485,12.416,27.585z M30.801,23.116
				c0.054,0.079,0.078,0.361,0.129,0.443c0.05,0.083,0.114,0.147,0.157,0.229c0.043,0.086,0.121,0.143,0.164,0.229
				c0.039,0.085,0.336,0.064,0.368,0.15c0.039,0.089-0.218,0.286-0.196,0.372c0.032,0.093,0.132,0.154,0.157,0.247
				c0.021,0.097-0.071,0.204-0.058,0.297c0.019,0.093,0.071,0.171,0.086,0.265c0.011,0.093-0.021,0.182-0.015,0.275
				c0.008,0.093,0.144,0.179,0.144,0.275c0,0.093,0.015,0.189,0.007,0.286c0,0.093-0.118,0.171-0.125,0.271
				c-0.011,0.093,0.133,0.204,0.118,0.301c-0.015,0.093-0.071,0.179-0.086,0.271c-0.021,0.093,0.125,0.222,0.101,0.318
				c-0.021,0.093-0.243,0.132-0.265,0.225c-0.029,0.093-0.094,0.171-0.122,0.257c-0.028,0.093,0.136,0.243,0.104,0.336
				c-0.028,0.09-0.192,0.136-0.225,0.226c-0.036,0.089-0.094,0.168-0.129,0.258c-0.032,0.089-0.028,0.189-0.064,0.278
				c-0.039,0.09,0.036,0.097,0,0.186c0.093-0.007,0.086,0.229,0.172,0.219c0.093-0.008,0.16-0.325,0.243-0.329
				c0.1-0.007,0.186,0.007,0.271,0c0.093-0.007,0.172,0.004,0.265-0.007c0.1-0.015,0.186-0.068,0.286-0.086
				c0.104-0.021,0.265,0.271,0.357,0.25c0.104-0.028,0.157-0.226,0.243-0.258c0.104-0.035,0.275,0.072,0.351,0.029
				c0.093-0.051,0.157-0.187,0.222-0.254c0.071-0.068,0.2-0.14,0.243-0.232c0.043-0.086-0.107-0.25-0.09-0.357
				c0.015-0.09,0.032-0.179,0.032-0.286c0-0.093,0.114-0.2,0.101-0.308c-0.008-0.093-0.079-0.186-0.101-0.29
				c-0.018-0.093,0.021-0.211,0-0.311c-0.021-0.093-0.101-0.179-0.125-0.272c-0.025-0.093,0.089-0.236,0.061-0.329
				c-0.032-0.093-0.164-0.154-0.193-0.25c-0.035-0.093-0.136-0.157-0.171-0.247c-0.04-0.089-0.193-0.125-0.236-0.218
				c-0.039-0.086-0.021-0.2-0.068-0.286c-0.046-0.085-0.157-0.128-0.211-0.214c-0.05-0.079-0.1-0.154-0.157-0.232
				c-0.057-0.079,0-0.243-0.057-0.322c-0.058-0.075-0.068-0.2-0.129-0.275c-0.064-0.071-0.318,0.036-0.386-0.036
				c-0.064-0.064-0.072-0.193-0.144-0.257c-0.078-0.064-0.107-0.172-0.186-0.236c-0.079-0.061-0.058-0.261-0.136-0.318
				c-0.079-0.054-0.226-0.021-0.312-0.075C31.119,23.277,30.887,23.166,30.801,23.116z M38.602,29.216
				c0.008,0.1-0.024,0.321-0.007,0.407c0.015,0.101,0.071,0.222,0.107,0.293c0.039,0.093,0.164,0.187,0.236,0.24
				c0.067,0.053,0.242-0.172,0.343-0.154c0.079,0.015,0.153,0.322,0.258,0.314c0.085-0.007,0.179-0.1,0.278-0.121
				c0.093-0.015,0.208,0.078,0.301,0.064c0.093-0.021,0.179-0.086,0.271-0.101c0.093-0.018,0.193,0.008,0.286-0.014
				c0.093-0.019,0.164-0.161,0.257-0.176c0.094-0.015,0.187-0.054,0.279-0.071c0.093-0.015,0.204,0.071,0.297,0.057
				c0.093-0.018,0.161-0.186,0.254-0.203c0.093-0.015,0.193,0.007,0.286-0.008c0.093-0.014,0.16-0.196,0.254-0.211
				c0.097-0.014,0.218,0.172,0.314,0.158c0.093-0.019,0.193,0.011,0.286-0.004s0.157-0.232,0.25-0.247
				c0.093-0.014,0.211,0.107,0.304,0.093c0.093-0.014,0.187-0.003,0.286-0.018c0.097-0.014,0.183-0.071,0.275-0.086
				c0.093-0.014,0.164-0.164,0.261-0.179c0.097-0.014,0.236,0.262,0.329,0.243c0.093-0.014,0.136-0.343,0.229-0.357
				c0.094-0.015,0.193-0.007,0.286-0.025c0.094-0.014,0.189-0.014,0.283-0.028c0.093-0.018,0.179-0.075,0.271-0.093
				s0.243,0.275,0.336,0.261c0.093-0.014,0.157-0.207,0.25-0.225c0.075-0.015,0.226,0.11,0.312,0.067
				c0.071-0.035,0.129-0.157,0.2-0.207s0.196-0.079,0.25-0.136c0.071-0.079-0.047-0.247-0.043-0.315
				c0.007-0.132,0.015-0.196-0.021-0.257c-0.05-0.101-0.086-0.222-0.193-0.226c-0.085-0.003-0.192,0.068-0.293,0.086
				c-0.1,0.018-0.192-0.032-0.275-0.032c-0.089-0.007-0.186,0.054-0.275,0.064c-0.089,0.015-0.2-0.118-0.293-0.104
				c-0.093,0.014-0.172,0.132-0.271,0.146c-0.093,0.018-0.179,0.104-0.271,0.118c-0.101,0.014-0.172,0.153-0.272,0.172
				c-0.096,0.014-0.203-0.032-0.296-0.015c-0.097,0.015-0.183,0.104-0.275,0.121c-0.101,0.019-0.193,0.04-0.286,0.058
				c-0.101,0.015-0.219-0.111-0.314-0.093c-0.101,0.014-0.208-0.047-0.305-0.025c-0.096,0.015-0.146,0.286-0.246,0.301
				c-0.097,0.014-0.208-0.058-0.304-0.043c-0.097,0.018-0.204-0.029-0.297-0.015c-0.101,0.015-0.226-0.14-0.322-0.121
				c-0.093,0.014-0.172,0.136-0.271,0.153c-0.093,0.015-0.172,0.14-0.265,0.153c-0.1,0.015-0.218-0.1-0.314-0.085
				c-0.101,0.018-0.179,0.11-0.279,0.128c-0.093,0.015-0.179,0.086-0.278,0.101c-0.093,0.015-0.187,0.043-0.286,0.061
				c-0.097,0.015-0.222-0.125-0.314-0.11c-0.101,0.018-0.146,0.304-0.243,0.321c-0.101,0.015-0.219-0.097-0.314-0.078
				c-0.097,0.014-0.208-0.054-0.308-0.036c-0.094,0.015-0.179,0.09-0.279,0.104C38.924,29.291,38.695,29.197,38.602,29.216z
				 M13.103,30.052c-0.079,0.083-0.218,0.208-0.279,0.275c-0.072,0.09-0.129,0.197-0.175,0.275
				c-0.061,0.101-0.082,0.271-0.082,0.351c-0.004,0.1,0.257,0.061,0.347,0.14c0.061,0.054-0.029,0.357,0.075,0.411
				c0.079,0.039,0.214,0.007,0.314,0.05c0.086,0.028,0.15,0.179,0.25,0.215c0.086,0.028,0.193,0.018,0.283,0.05
				c0.089,0.028,0.168,0.093,0.257,0.125c0.089,0.028,0.225-0.061,0.311-0.032c0.093,0.032,0.186,0.043,0.279,0.071
				c0.086,0.029,0.143,0.161,0.236,0.193c0.085,0.028,0.229-0.093,0.318-0.061c0.089,0.028,0.168,0.1,0.258,0.129
				c0.089,0.032,0.232-0.101,0.325-0.068c0.086,0.028,0.114,0.25,0.204,0.279c0.089,0.032,0.168,0.104,0.257,0.132
				c0.089,0.032,0.247-0.132,0.336-0.1s0.132,0.196,0.225,0.225c0.086,0.029,0.171,0.086,0.257,0.118
				c0.093,0.032,0.193,0.025,0.286,0.054c0.089,0.028,0.222-0.068,0.314-0.036c0.093,0.036,0.118,0.34,0.193,0.351
				c0.1,0.015,0.128-0.297,0.2-0.336c0.071-0.036,0.079-0.021,0.122-0.114c0.028-0.064,0.061-0.114,0.079-0.215
				c0.021-0.1-0.011-0.193-0.003-0.278c0.011-0.104,0.325-0.193,0.318-0.279c-0.007-0.104-0.2-0.175-0.232-0.258
				c-0.032-0.093,0.04-0.278-0.025-0.347c-0.064-0.061-0.208-0.075-0.3-0.125c-0.079-0.043-0.157-0.14-0.257-0.168
				c-0.079-0.025-0.226,0.14-0.329,0.118c-0.086-0.018-0.171-0.043-0.271-0.058c-0.1-0.014-0.179-0.149-0.272-0.164
				c-0.1-0.015-0.204,0.021-0.304,0c-0.097-0.015-0.183-0.093-0.283-0.114c-0.093-0.019-0.2,0.014-0.3-0.004
				c-0.097-0.018-0.157-0.186-0.257-0.207c-0.097-0.025-0.211,0.054-0.308,0.032c-0.1-0.021-0.207,0.021-0.304,0
				s-0.218,0.075-0.311,0.054c-0.1-0.025-0.179-0.111-0.272-0.133c-0.1-0.024-0.211,0.021-0.307,0
				c-0.097-0.024-0.193-0.043-0.293-0.064c-0.093-0.021-0.157-0.186-0.25-0.214c-0.1-0.021-0.179-0.122-0.272-0.144
				C13.36,30.159,13.195,30.07,13.103,30.052z M20.074,18.107c-0.061-0.075-0.139-0.333-0.2-0.404
				c-0.064-0.071-0.15-0.136-0.218-0.204s-0.172-0.107-0.243-0.168c-0.068-0.064-0.318,0.093-0.397,0.036
				c-0.079-0.054,0.025-0.357-0.054-0.411c-0.082-0.054-0.211-0.032-0.29-0.082c-0.086-0.043-0.125-0.2-0.211-0.236
				c-0.086-0.039-0.2-0.036-0.29-0.071c-0.089-0.032-0.179-0.1-0.272-0.125c-0.085-0.025-0.218,0.075-0.311,0.053
				c-0.093-0.021-0.189-0.014-0.282-0.032c-0.093-0.015-0.186-0.125-0.279-0.132c-0.093-0.007-0.193,0.15-0.286,0.143
				c-0.097,0-0.193-0.036-0.286-0.032c-0.093,0.007-0.168,0.182-0.261,0.193c-0.093,0.011-0.218-0.175-0.311-0.154
				c-0.093,0.014-0.197-0.007-0.29,0.021c-0.093,0.021-0.125,0.243-0.218,0.272c-0.086,0.028-0.222-0.072-0.311-0.036
				c-0.089,0.032-0.186,0.047-0.272,0.086c-0.085,0.04-0.154,0.118-0.239,0.165c-0.083,0.043-0.097,0.208-0.175,0.254
				c-0.082,0.05-0.318-0.146-0.397-0.093c-0.079,0.054,0.029,0.369-0.046,0.422c-0.075,0.054-0.154,0.097-0.225,0.161
				c-0.072,0.064-0.15,0.107-0.218,0.175s-0.071-0.018-0.132,0.054c0.093,0,0.05,0.222,0.146,0.222c0.097,0,0.193-0.175,0.297-0.175
				c0.093,0,0.193,0.168,0.293,0.168c0.097,0,0.193-0.075,0.29-0.075c0.096,0,0.196,0.061,0.296,0.061c0.093,0,0.193-0.2,0.293-0.2
				c0.096,0,0.193,0.014,0.293,0.014c0.093,0,0.193,0.122,0.286,0.122c0.1,0,0.197-0.057,0.293-0.057
				c0.097,0,0.193,0.064,0.293,0.064c0.093,0,0.193-0.057,0.286-0.057c0.1,0,0.196,0.15,0.293,0.15s0.193-0.1,0.293-0.1
				c0.093,0,0.193-0.064,0.29-0.064c0.096,0,0.193-0.125,0.29-0.125c0.1,0,0.193,0.068,0.293,0.068c0.093,0,0.193-0.075,0.29-0.075
				c0.097,0,0.193-0.007,0.29-0.007c0.1,0,0.193,0.147,0.293,0.147c0.093,0,0.193,0.079,0.29,0.079s0.193-0.257,0.29-0.257
				c0.1,0,0.193,0.093,0.293,0.093C19.735,17.953,19.974,18.107,20.074,18.107z M28.376,32.055c0.04,0.128,0.126,0.443,0.165,0.575
				c0.093-0.018,0.325-0.018,0.422-0.032c0.093-0.021,0.186-0.078,0.278-0.093c0.094-0.021,0.14-0.314,0.232-0.329
				c0.097-0.015,0.247,0.271,0.34,0.25c0.093-0.018,0.176-0.11,0.271-0.128c0.101-0.021,0.215,0.082,0.308,0.063
				c0.094-0.021,0.183-0.078,0.275-0.1c0.093-0.015,0.197,0.007,0.29-0.015c0.093-0.018,0.172-0.157,0.265-0.179
				c0.093-0.018,0.186-0.057,0.278-0.071c0.093-0.018,0.208,0.068,0.301,0.054c0.093-0.018,0.161-0.189,0.257-0.211
				c0.094-0.015,0.2,0.007,0.294-0.015c0.093-0.014,0.153-0.2,0.25-0.218c0.093-0.018,0.229,0.164,0.325,0.146
				c0.097-0.021,0.196,0.007,0.29-0.015c0.093-0.014,0.149-0.232,0.25-0.25c0.093-0.021,0.215,0.101,0.308,0.079
				c0.093-0.015,0.193-0.008,0.289-0.029c0.097-0.018,0.183-0.078,0.275-0.1c0.093-0.018,0.161-0.172,0.258-0.193
				c0.093-0.021,0.246,0.25,0.34,0.229c0.097-0.021,0.125-0.35,0.218-0.371c0.086-0.019,0.093-0.015,0.164-0.097
				c0.058-0.061,0.118-0.118,0.172-0.204c0.05-0.075,0.058-0.179,0.111-0.265c0.046-0.086,0.364,0,0.418-0.086
				c0.05-0.085-0.047-0.232,0.011-0.311c-0.093,0.025-0.204-0.104-0.297-0.079c-0.093,0.025-0.172,0.125-0.265,0.146
				c-0.093,0.025-0.2-0.014-0.293,0.015s-0.136,0.239-0.229,0.265c-0.094,0.028-0.193,0.036-0.286,0.064
				c-0.093,0.025-0.215-0.068-0.308-0.043c-0.093,0.021-0.172,0.1-0.265,0.125s-0.204-0.011-0.297,0.011
				c-0.093,0.025-0.172,0.104-0.265,0.129c-0.093,0.021-0.225-0.101-0.318-0.071c-0.093,0.024-0.157,0.146-0.25,0.171
				c-0.093,0.025-0.172,0.115-0.265,0.137c-0.093,0.028-0.157,0.168-0.25,0.192c-0.093,0.029-0.2-0.014-0.293,0.015
				c-0.094,0.025-0.168,0.118-0.262,0.143c-0.093,0.029-0.182,0.058-0.275,0.079c-0.093,0.028-0.222-0.093-0.314-0.068
				c-0.097,0.025-0.207-0.024-0.3,0c-0.093,0.025-0.122,0.297-0.215,0.322c-0.093,0.024-0.207-0.039-0.3-0.015
				c-0.094,0.025-0.201-0.011-0.294,0.011c-0.093,0.025-0.232-0.121-0.325-0.097c-0.097,0.025-0.157,0.146-0.25,0.176
				c-0.093,0.024-0.157,0.149-0.25,0.179c-0.094,0.024-0.219-0.082-0.312-0.061c-0.093,0.024-0.164,0.125-0.258,0.149
				C28.713,32.051,28.47,32.029,28.376,32.055z M17.586,24.149c0.014-0.09,0.072-0.247,0.089-0.329
				c0.018-0.089,0.018-0.179,0.04-0.261c0.018-0.089-0.007-0.186,0.007-0.271c0.018-0.089-0.243-0.208-0.236-0.293
				c0.007-0.085,0.314-0.179,0.308-0.264c-0.015-0.093-0.125-0.211-0.165-0.326c-0.043-0.111,0-0.282-0.054-0.375
				c-0.075-0.118-0.297-0.243-0.375-0.25c-0.1-0.007-0.222-0.05-0.325-0.046c-0.104,0.003-0.204,0.146-0.304,0.161
				s-0.197,0.05-0.297,0.075c-0.1,0.018-0.218-0.064-0.322-0.046c-0.1,0.021-0.146,0.175-0.247,0.193
				c0.032,0.093,0.028,0.172,0.061,0.272c0.032,0.093,0.225,0.139,0.254,0.236c0.028,0.1-0.136,0.257-0.1,0.357
				c0.028,0.093,0.021,0.208,0.05,0.3c0.021,0.057,0.265,0.05,0.279,0.107c0.021,0.107-0.086,0.239-0.054,0.322
				c0.039,0.107,0.071,0.214,0.125,0.282c0.071,0.086,0.186,0.125,0.271,0.161c0.086,0.043,0.186-0.083,0.29-0.083
				c0.096-0.003,0.243,0.265,0.343,0.232C17.318,24.274,17.493,24.188,17.586,24.149z M19.009,35.086
				c0.05,0.051,0.158,0.222,0.211,0.269c0.054,0.046,0.211,0.118,0.265,0.168c0.089-0.036,0.232-0.129,0.326-0.164
				c0.089-0.036,0.071-0.329,0.164-0.369c0.093-0.039,0.3,0.211,0.394,0.172c0.089-0.039,0.15-0.15,0.243-0.186
				c0.089-0.04,0.229,0.032,0.314-0.004c0.093-0.036,0.165-0.121,0.257-0.157c0.086-0.036,0.197-0.043,0.286-0.079
				c0.089-0.035,0.136-0.192,0.222-0.229c0.093-0.039,0.179-0.093,0.265-0.132c0.093-0.04,0.222,0.021,0.314-0.019
				c0.089-0.035,0.122-0.218,0.215-0.257c0.085-0.036,0.196-0.036,0.286-0.071c0.09-0.036,0.115-0.232,0.208-0.269
				c0.093-0.039,0.265,0.11,0.351,0.075c0.093-0.039,0.2-0.039,0.293-0.075c0.086-0.039,0.104-0.269,0.197-0.304
				c0.089-0.036,0.232,0.057,0.329,0.014c0.089-0.035,0.193-0.05,0.282-0.085c0.093-0.04,0.168-0.118,0.257-0.158
				c0.093-0.035,0.064-0.014,0.157-0.053c-0.168-0.104-0.146-0.383-0.179-0.376c-0.093,0.025-0.107,0.354-0.2,0.376
				c-0.093,0.021-0.186,0.031-0.282,0.053c-0.093,0.021-0.189,0.029-0.283,0.054c-0.093,0.025-0.175,0.09-0.268,0.118
				c-0.093,0.025-0.265-0.257-0.361-0.232c-0.093,0.021-0.14,0.219-0.232,0.24c-0.093,0.024-0.226-0.107-0.318-0.086
				c-0.097,0.024-0.172,0.117-0.265,0.143c-0.093,0.028-0.2-0.011-0.293,0.015c-0.093,0.028-0.136,0.243-0.229,0.265
				c-0.093,0.028-0.186,0.039-0.279,0.064c-0.093,0.028-0.214-0.064-0.308-0.04c-0.093,0.025-0.171,0.104-0.265,0.133
				c-0.093,0.021-0.204-0.015-0.296,0.014c-0.093,0.025-0.168,0.104-0.261,0.129c-0.093,0.028-0.229-0.093-0.314-0.067
				c-0.093,0.024-0.158,0.153-0.25,0.182c-0.093,0.021-0.165,0.115-0.257,0.144s-0.057,0.172-0.125,0.278
				c-0.054,0.086-0.154,0.146-0.2,0.243C19.324,34.929,19.059,35.004,19.009,35.086z M38.001,29.955
				c-0.093-0.003-0.286-0.024-0.371-0.007c-0.094,0.011-0.2,0.061-0.29,0.086c-0.086,0.025-0.175,0.107-0.254,0.146
				c-0.082,0.039-0.021,0.322-0.097,0.372c-0.078,0.05-0.336-0.136-0.404-0.075c-0.071,0.061-0.085,0.2-0.136,0.269
				c-0.054,0.078-0.218,0.136-0.243,0.222c-0.028,0.093,0.004,0.265,0.025,0.35c0.025,0.086,0.047,0.229,0.104,0.315
				c0.047,0.078,0.222,0.093,0.286,0.164s0.157,0.121,0.229,0.175c0.086,0.062,0.147,0.204,0.229,0.232
				c0.086,0.025,0.207-0.128,0.3-0.146c0.086-0.018,0.187-0.011,0.271-0.054c0.079-0.043,0.054-0.229,0.129-0.289
				c0.072-0.061,0.272,0.032,0.336-0.039c0.064-0.072,0.161-0.137,0.208-0.215c0.046-0.079-0.104-0.243-0.079-0.329
				c0.029-0.093,0.179-0.157,0.165-0.25c-0.011-0.101-0.025-0.219-0.079-0.308c-0.054-0.09-0.157-0.157-0.218-0.236
				C38.037,30.245,38.041,30.023,38.001,29.955z M39.653,34.507c-0.021-0.107-0.079-0.429-0.101-0.536
				c-0.093,0.028-0.321,0.043-0.414,0.068c-0.086,0.021-0.172,0.089-0.265,0.117c-0.094,0.021-0.107,0.315-0.2,0.344
				c-0.097,0.021-0.269-0.25-0.361-0.222c-0.093,0.024-0.161,0.125-0.258,0.15c-0.093,0.028-0.218-0.062-0.311-0.036
				c-0.094,0.028-0.172,0.093-0.265,0.121c-0.093,0.025-0.193,0.015-0.286,0.04c-0.093,0.024-0.15,0.175-0.243,0.2
				c-0.086,0.024-0.179,0.071-0.271,0.097c-0.094,0.028-0.211-0.051-0.305-0.025c-0.096,0.025-0.143,0.204-0.235,0.226
				c-0.093,0.028-0.193,0.014-0.286,0.039c-0.097,0.025-0.144,0.211-0.232,0.239c-0.093,0.025-0.236-0.146-0.329-0.121
				c-0.097,0.021-0.2,0.007-0.289,0.032c-0.09,0.024-0.133,0.246-0.226,0.271s-0.218-0.086-0.312-0.061
				c-0.096,0.028-0.222,0.05-0.314,0.075c0.032,0.117,0.104,0.246,0.133,0.36c0.093-0.024,0.149-0.182,0.243-0.207
				c0.093-0.028,0.265,0.229,0.35,0.207c0.094-0.028,0.101-0.357,0.193-0.382c0.093-0.025,0.189-0.032,0.279-0.058
				c0.093-0.025,0.189-0.032,0.278-0.061c0.093-0.025,0.172-0.093,0.265-0.118s0.271,0.25,0.365,0.226
				c0.093-0.029,0.136-0.222,0.225-0.247c0.093-0.025,0.226,0.107,0.318,0.082c0.097-0.028,0.165-0.121,0.258-0.15
				c0.093-0.024,0.2,0.008,0.289-0.018c0.093-0.024,0.133-0.239,0.226-0.265c0.093-0.024,0.186-0.039,0.279-0.067
				c0.093-0.025,0.214,0.067,0.307,0.043c0.094-0.029,0.172-0.107,0.265-0.133c0.094-0.024,0.2,0.011,0.29-0.015
				c0.093-0.024,0.168-0.104,0.261-0.132c0.093-0.025,0.222,0.093,0.314,0.068C39.367,34.64,39.561,34.528,39.653,34.507z
				 M32.366,30.273c-0.121-0.067-0.286-0.229-0.364-0.278c-0.136-0.097-0.322-0.165-0.408-0.165c-0.1,0-0.207,0.047-0.307,0.047
				c-0.101,0.004-0.189,0.282-0.29,0.29c-0.104,0.007-0.222-0.294-0.321-0.286c-0.101,0.007-0.197,0.096-0.297,0.104
				c-0.101,0.011-0.215-0.101-0.314-0.09c-0.097,0.008-0.215,0.064-0.315,0.082c-0.107,0.019-0.278,0.047-0.357,0.104
				c-0.078,0.057-0.078,0.265-0.136,0.357c-0.054,0.093-0.086,0.214-0.146,0.304c0.086,0.047,0.125,0.211,0.211,0.265
				c0.107,0.067,0.265-0.018,0.343-0.039c0.094-0.021,0.2,0,0.297-0.021c0.094-0.025,0.146-0.211,0.24-0.236
				c0.093-0.021,0.235,0.15,0.328,0.121c0.094-0.028,0.2-0.007,0.294-0.035c0.093-0.021,0.128-0.243,0.229-0.271
				c0.093-0.029,0.222,0.078,0.318,0.054c0.093-0.025,0.189-0.025,0.289-0.054c0.094-0.025,0.172-0.094,0.272-0.118
				C32.017,30.378,32.273,30.303,32.366,30.273z M26.381,33.96c0.046,0.11,0.179,0.396,0.225,0.508
				c0.086-0.047,0.311-0.118,0.404-0.165c0.089-0.046,0.165-0.125,0.25-0.175c0.093-0.05,0.032-0.332,0.111-0.386
				c0.083-0.062,0.365,0.093,0.426,0.018c0.057-0.071,0.043-0.254,0.064-0.375c0.025-0.107,0.15-0.243,0.15-0.344
				c-0.007-0.14-0.132-0.351-0.193-0.396c-0.083-0.064-0.19-0.165-0.29-0.204c-0.096-0.036-0.247,0.054-0.354,0.032
				c-0.1-0.025-0.208-0.025-0.308-0.047c-0.104-0.024-0.257-0.139-0.354-0.171c-0.018,0.078,0.046,0.25,0.032,0.328
				c0.093,0.047,0.15,0.115,0.225,0.15c0.1,0.05,0.283-0.035,0.347,0.011c0.1,0.071,0.029,0.29,0.05,0.361
				c0.021,0.079-0.032,0.114-0.1,0.222c-0.04,0.064,0.057,0.265-0.021,0.351c-0.057,0.064-0.229,0.032-0.308,0.107
				C26.678,33.846,26.46,33.889,26.381,33.96z M14.94,25.551c0.042-0.093,0.214-0.265,0.257-0.347
				c0.046-0.093,0.079-0.186,0.118-0.269c0.047-0.093,0.061-0.204,0.1-0.282c0.047-0.093-0.164-0.293-0.132-0.379
				c0.04-0.093,0.365-0.086,0.386-0.179c0.018-0.072-0.182-0.243-0.3-0.351c-0.093-0.079-0.239-0.29-0.314-0.365
				c-0.064,0.079-0.222,0.247-0.293,0.322c-0.064,0.079-0.164,0.129-0.232,0.208c-0.068,0.079-0.039,0.247-0.096,0.329
				c-0.057,0.085-0.093,0.186-0.14,0.275c-0.021,0.047-0.061,0.204,0.025,0.315c0.043,0.061,0.226,0.032,0.293,0.111
				c0.05,0.064,0.079,0.161,0.143,0.236C14.801,25.24,14.887,25.476,14.94,25.551z M48.319,32.098
				c-0.021-0.079-0.114-0.404-0.136-0.479c-0.097,0.028-0.293,0.064-0.393,0.089c-0.094,0.025-0.179,0.094-0.272,0.118
				c-0.1,0.029-0.121,0.322-0.214,0.351c-0.097,0.025-0.272-0.25-0.365-0.222c-0.093,0.025-0.168,0.129-0.265,0.157
				c-0.1,0.025-0.222-0.061-0.318-0.035c-0.096,0.028-0.179,0.1-0.271,0.125c-0.093,0.024-0.203,0.014-0.297,0.039
				c-0.093,0.028-0.157,0.179-0.25,0.2c-0.1,0.028-0.186,0.071-0.279,0.101c-0.1,0.024-0.218-0.051-0.314-0.021
				c-0.1,0.024-0.149,0.203-0.246,0.229c-0.097,0.028-0.204,0.011-0.297,0.035c-0.093,0.029-0.047,0.144-0.14,0.172
				c0.025,0.086-0.111,0.118-0.082,0.204c0.093-0.025,0.229-0.007,0.321-0.039c0.093-0.025,0.136-0.251,0.236-0.275
				c0.093-0.025,0.226,0.082,0.321,0.057c0.094-0.024,0.2-0.024,0.294-0.054c0.093-0.024,0.179-0.093,0.271-0.117
				c0.093-0.025,0.15-0.183,0.25-0.211c0.093-0.025,0.265,0.232,0.365,0.207c0.093-0.028,0.104-0.357,0.2-0.387
				c0.093-0.024,0.192-0.031,0.293-0.057c0.093-0.028,0.193-0.036,0.286-0.064s0.179-0.093,0.275-0.121
				c0.093-0.029,0.275,0.25,0.368,0.222c0.093-0.025,0.143-0.222,0.239-0.251C47.987,32.033,48.22,32.122,48.319,32.098z
				 M23.139,38.476c0.046,0.136,0.161,0.458,0.204,0.59c0.1-0.032,0.343-0.067,0.436-0.1c0.1-0.032,0.186-0.111,0.283-0.144
				s0.104-0.332,0.2-0.364s0.297,0.225,0.397,0.189c0.096-0.032,0.164-0.144,0.265-0.179c0.1-0.036,0.343-0.058,0.439-0.093
				c-0.039-0.115-0.175-0.401-0.218-0.516c-0.1,0.029-0.314,0.015-0.407,0.043c-0.1,0.032-0.165,0.189-0.265,0.219
				c-0.1,0.032-0.193,0.082-0.29,0.11c-0.1,0.028-0.232-0.036-0.326-0.007c-0.1,0.028-0.157,0.214-0.25,0.243
				C23.507,38.497,23.235,38.443,23.139,38.476z M25.845,37.789c0.039,0.114,0.139,0.429,0.179,0.544
				c0.093-0.029,0.322-0.062,0.411-0.094c0.089-0.028,0.165-0.104,0.254-0.132c0.089-0.032,0.089-0.325,0.179-0.354
				c0.089-0.029,0.279,0.229,0.372,0.196c0.086-0.028,0.15-0.14,0.24-0.172c0.089-0.028,0.218,0.047,0.304,0.018
				c0.093-0.035,0.244-0.182,0.336-0.214c-0.039-0.107-0.107-0.394-0.147-0.501c-0.089,0.028-0.275,0.168-0.368,0.2
				c-0.085,0.029-0.171,0.079-0.265,0.107c-0.085,0.028-0.211-0.043-0.3-0.015c-0.089,0.032-0.128,0.211-0.222,0.24
				c-0.085,0.032-0.193,0.024-0.279,0.05c-0.093,0.025-0.128,0.218-0.218,0.247C26.231,37.943,25.931,37.761,25.845,37.789z
				 M31.101,36.867c-0.028-0.122-0.097-0.437-0.129-0.562c-0.085,0.024-0.328,0.039-0.414,0.064
				c-0.082,0.024-0.161,0.093-0.247,0.117c-0.086,0.029-0.097,0.318-0.183,0.344c-0.085,0.028-0.265-0.243-0.35-0.215
				c-0.086,0.025-0.154,0.129-0.24,0.157c-0.086,0.025-0.211-0.061-0.297-0.035c-0.085,0.028-0.235,0.164-0.325,0.192
				c0.029,0.101,0.082,0.39,0.111,0.486c0.086-0.021,0.275-0.149,0.361-0.171c0.085-0.021,0.168-0.068,0.257-0.09
				c0.086-0.025,0.204,0.054,0.29,0.032s0.132-0.196,0.222-0.218c0.086-0.025,0.186-0.008,0.271-0.032
				c0.086-0.021,0.129-0.208,0.222-0.229C30.729,36.688,31.015,36.892,31.101,36.867z M46.997,30.135
				c-0.036-0.068-0.079-0.283-0.122-0.348c-0.035-0.067-0.214-0.2-0.254-0.264c-0.089,0.057-0.25,0.179-0.339,0.235
				c-0.09,0.064-0.029,0.351-0.122,0.415c-0.086,0.057-0.411-0.025-0.5,0.035c0.089,0.094,0.379,0.337,0.422,0.322
				c0.089-0.039,0.235,0.021,0.328-0.025c0.086-0.046,0.157-0.132,0.243-0.182C46.739,30.273,46.911,30.181,46.997,30.135z"/>
		</g>
		<g>
			<path d="M35.22,22.072c-0.079-0.071-0.172,0.043-0.243-0.021c-0.075-0.068-0.232-0.043-0.304-0.107
				c-0.075-0.064,0.018-0.304-0.054-0.369c-0.068-0.068-0.243-0.021-0.312-0.085c-0.071-0.068-0.164-0.193-0.232-0.261
				c0.062-0.05,0.144-0.189,0.208-0.25c0.064-0.064,0.214-0.036,0.278-0.093c0.064-0.064,0.15-0.104,0.215-0.15
				c0.086-0.064,0.107-0.007,0.172,0.014c0.078,0.025,0.125,0.05,0.2,0.1c0.078,0.043,0.329-0.154,0.393-0.093
				c0.068,0.057,0.115,0.15,0.176,0.211c0.064,0.061,0.039,0.218,0.104,0.275c0.061,0.061,0.05,0.122,0.118,0.179
				c-0.064,0.064-0.157,0.021-0.229,0.093c-0.061,0.061-0.031,0.218-0.1,0.293c-0.064,0.064-0.146,0.111-0.218,0.183
				C35.33,22.043,35.291,21.997,35.22,22.072z"/>
		</g>
		<g>
			<path d="M32.902,20.735c-0.093,0.064-0.293,0.125-0.371,0.186c-0.093,0.064-0.086,0.243-0.165,0.301
				c-0.093,0.071-0.207,0.114-0.286,0.164c-0.104,0.064-0.257-0.143-0.35-0.143c-0.09,0-0.211,0.122-0.297,0.04
				c-0.071-0.064-0.243-0.064-0.314-0.143c-0.068-0.075,0.05-0.279-0.021-0.343c0.061-0.061-0.008-0.189,0.053-0.257
				c0.058-0.068,0.122-0.14,0.18-0.2c0.063-0.068,0.128-0.157,0.196-0.211c0.067-0.057,0.218-0.007,0.304-0.036
				c0.061-0.021,0.118,0.036,0.229,0.122c0.068,0.05,0.083,0.186,0.169,0.257c0.071,0.057,0.146,0.128,0.225,0.193
				C32.531,20.713,32.82,20.678,32.902,20.735z"/>
		</g>
		<g>
			<path d="M13.871,33.742c0.086-0.072,0.325-0.058,0.411-0.129s0.083-0.247,0.168-0.314c0.086-0.072,0.218-0.129,0.297-0.2
				c0.086,0.106,0.343,0.393,0.329,0.418c-0.064,0.086-0.229,0.097-0.3,0.175c-0.072,0.079-0.046,0.254-0.122,0.333
				c-0.072,0.075-0.243,0.172-0.322,0.247c-0.054-0.064-0.015-0.34-0.068-0.404C14.2,33.799,13.928,33.807,13.871,33.742z"/>
		</g>
		<g>
			<path d="M16.034,33.57c-0.011,0.1,0.129,0.172,0.114,0.265c-0.007,0.1,0.036,0.211,0.021,0.308c-0.014,0.1-0.053,0.207-0.082,0.3
				c-0.011,0.025-0.268,0.086-0.397,0.071c-0.093-0.007-0.111-0.164-0.186-0.164c0.021-0.1-0.082-0.186-0.057-0.286
				c0.029-0.1,0.068-0.196,0.093-0.297c0.021-0.104,0-0.282,0.021-0.382c0.071,0.007,0.236,0.1,0.307,0.106
				C15.948,33.506,15.963,33.563,16.034,33.57z"/>
		</g>
		<g>
			<path d="M19.86,32.98c-0.036-0.09-0.05-0.29-0.097-0.383c-0.046-0.097,0.118-0.215,0.125-0.304
				c0.011-0.079-0.186-0.211-0.15-0.29c0.029-0.067,0.057-0.164,0.093-0.232c0.043-0.071,0.175-0.011,0.208-0.082
				c0.064,0.09,0.229,0.043,0.3,0.129c0.079,0.1,0.222,0.232,0.236,0.336c0.014,0.107-0.047,0.293-0.1,0.411
				c-0.043,0.107-0.158,0.243-0.193,0.347C20.21,32.912,19.946,32.98,19.86,32.98z"/>
		</g>
		<g>
			<path d="M13.903,27.521c-0.007-0.114-0.257-0.193-0.257-0.286c0-0.118,0.143-0.204,0.165-0.29
				c0.032-0.115-0.079-0.311-0.021-0.379c0.068-0.082,0.2-0.211,0.293-0.25c0.097-0.04,0.257,0.039,0.361,0.025
				c0.1-0.011,0.218,0.2,0.318,0.193c0.107,0,0.197-0.229,0.293-0.243c0.104-0.007,0.222-0.032,0.308-0.021
				c0.1,0.014,0.143,0.229,0.225,0.271c0.086,0.043,0.261-0.025,0.318,0.046c0.064,0.068,0.182,0.154,0.218,0.243
				c0.032,0.083,0.061,0.208,0.075,0.304c0.014,0.093-0.003,0.207-0.003,0.307c0,0.093-0.197,0.168-0.218,0.258
				c-0.029,0.089,0.064,0.222,0.014,0.307c-0.043,0.075-0.125,0.146-0.186,0.218c-0.064,0.068-0.093,0.201-0.165,0.258
				c-0.075,0.054-0.226,0.011-0.308,0.054c-0.082,0.036-0.136,0.204-0.229,0.229c-0.085,0.021-0.207,0.015-0.3,0.021
				c-0.089,0.008-0.182-0.25-0.275-0.257c-0.118-0.015-0.247,0.149-0.333,0.114c-0.107-0.047-0.307-0.036-0.364-0.107
				c-0.068-0.086,0.079-0.304,0.05-0.4c-0.028-0.101-0.189-0.179-0.2-0.279C13.671,27.742,13.925,27.603,13.903,27.521z"/>
		</g>
		<g>
			<path d="M37.4,30.281c0.058,0.064,0.172,0.021,0.222,0.078c0.064,0.064,0.176,0.079,0.226,0.129
				c0.089,0.097-0.05,0.236-0.064,0.261c-0.047,0.075-0.146,0.09-0.204,0.161c-0.061,0.071,0.058,0.308-0.007,0.361
				c-0.071,0.061-0.222,0.007-0.301,0.046c-0.035,0.021-0.222,0.107-0.321,0.021c-0.111-0.085-0.282-0.371-0.271-0.393
				c0.039-0.097,0.2-0.165,0.265-0.251c0.054-0.078,0.285-0.035,0.357-0.125C37.361,30.495,37.336,30.374,37.4,30.281z"/>
		</g>
	</g>
</g>
</svg>
