<?xml version="1.0" encoding="utf-8"?>
<!-- Generator: Adobe Illustrator 16.0.0, SVG Export Plug-In . SVG Version: 6.00 Build 0)  -->
<!DOCTYPE svg PUBLIC "-//W3C//DTD SVG 1.1//EN" "http://www.w3.org/Graphics/SVG/1.1/DTD/svg11.dtd">
<svg version="1.1" id="圖層_1" xmlns="http://www.w3.org/2000/svg" xmlns:xlink="http://www.w3.org/1999/xlink" x="0px" y="0px"
	 width="55px" height="55px" viewBox="0 0 55 55" enable-background="new 0 0 55 55" xml:space="preserve">
<g>
	<path fill="#8E8E8E" d="M17.569,46.406c-4.091,0-8.183,0-12.274,0c-1.741,0-1.672-0.004-1.757-1.698
		c-0.206-4.048-0.489-8.096-0.731-12.141c-0.09-1.501-0.175-3.006-0.234-4.508c-0.035-0.99,0.479-1.662,1.444-1.642
		c0.865,0.016,1.68,0.047,2.537-0.216c0.692-0.212,1.468-0.169,2.205-0.22c3-0.208,6.001-0.413,9.006-0.601
		c1.162-0.071,1.344-0.212,1.325-1.431c-0.049-3.341-0.102-6.674-0.205-10.015c-0.025-0.817,0.257-1.112,1.057-1.096
		c2.809,0.059,5.621,0.129,8.429,0.102c1.283-0.012,2.566-0.287,3.854-0.334c1.671-0.063,1.584-0.016,1.557,1.698
		c-0.027,1.722,0.192,3.443,0.231,5.172c0.016,0.77-0.181,1.541-0.231,2.315c-0.043,0.562-0.153,1.191,0.035,1.678
		c0.275,0.715,0.833,1.147,1.753,1.132c5.204-0.102,10.403-0.146,15.604-0.205c1.423-0.016,1.733,0.503,1.254,1.883
		c-0.146,0.42-0.114,0.9-0.138,1.356c-0.071,1.206-0.071,2.421-0.209,3.619c-0.177,1.58-0.495,3.145-0.684,4.725
		c-0.059,0.522,0.275,1.163,0.087,1.6c-0.343,0.79-0.197,1.509-0.193,2.303c0.017,1.863-0.212,3.729-0.385,5.589
		c-0.016,0.177-0.299,0.409-0.495,0.464c-0.307,0.091-0.648,0.074-0.975,0.074c-5.393,0.028-10.785,0.122-16.169,0.036
		c-1.735-0.023-3.434,0.307-5.17,0.196c-1.73-0.122-3.473-0.027-5.21-0.027c-1.772,0-3.543,0-5.31,0
		C17.569,46.276,17.569,46.344,17.569,46.406z M21.898,19.767c0.34,0.7,0.648,2.083,1.503,2.877
		c0.961,0.885,2.415,1.152,3.842,1.136c1.551-0.02,3.956-2.999,3.661-5.168c-0.151-1.112-1.083-2.236-1.932-3.085
		c-0.479-0.479-1.492-0.503-2.278-0.585C23.566,14.611,22.144,16.788,21.898,19.767z M45.254,34.741c0,0.295-0.032,0.594,0,0.884
		c0.129,1.12,0.684,1.38,1.697,0.947c0.452-0.196,1.015-0.125,1.518-0.228c0.334-0.063,0.75-0.126,0.951-0.346
		c0.519-0.582,0.432-2.444-0.114-3.09c-0.66-0.785-1.431-0.589-2.205-0.181c-0.086,0.048-0.188,0.063-0.283,0.087
		C45.324,33.146,45.238,33.252,45.254,34.741z M36.678,31.762c1.815-0.146,1.815-0.146,1.823-1.98c0-0.134,0.021-0.26,0.04-0.386
		c0.117-0.802-0.59-1.461-1.384-1.367c-0.44,0.056-0.928,0.023-1.352-0.094c-0.842-0.248-1.518,0.231-1.455,1.104
		c0.032,0.421,0.083,0.854,0.056,1.27c-0.052,0.759,0.267,1.18,1.021,1.273C35.849,31.632,36.261,31.699,36.678,31.762z
		 M49.585,28.304c-0.613-0.487-1.223-0.711-1.974-0.314c-0.239,0.125-0.573,0.099-0.864,0.118c-1.462,0.098-1.58,0.212-1.749,1.658
		c-0.012,0.094-0.059,0.188-0.07,0.283c-0.138,0.903,0.507,1.682,1.41,1.662c0.716-0.016,1.431-0.138,2.139-0.103
		c0.763,0.044,1.108-0.247,1.108-0.994C49.585,29.844,49.585,29.065,49.585,28.304z M43.98,29.065
		c0.22-0.762,0.094-1.143-0.817-0.884c-0.653,0.185-1.403,0.043-2.115,0.043c-0.216,0-0.503-0.11-0.645-0.008
		c-0.778,0.574-0.699,1.376-0.554,2.217c0.122,0.719,0.35,1.219,1.198,1.254c0.574,0.023,1.184,0.381,1.69,0.255
		c0.59-0.141,1.352-0.542,1.557-1.037C44.507,30.426,44.114,29.69,43.98,29.065z M35.688,33.185c-0.008-0.035-0.012-0.07-0.02-0.109
		c-0.248,0.055-0.539,0.043-0.735,0.173c-0.884,0.577-0.774,2.295,0.023,2.971c0.747,0.637,1.423,0.236,2.166,0.221
		c0.951-0.024,1.544-0.378,1.588-1.302c0.027-0.641-0.044-1.387-0.374-1.897c-0.185-0.283-0.975-0.217-1.493-0.229
		C36.458,33.004,36.072,33.126,35.688,33.185z M39.932,34.462c-0.008,1.706,0.095,1.816,1.537,1.945
		c0.256,0.024,0.522,0.075,0.759,0.169c1.179,0.468,1.332,0.405,1.753-0.781c0.074-0.213,0.169-0.417,0.267-0.621
		c0.417-0.869,0.02-1.895-0.919-2.091c-0.708-0.149-1.494,0.023-2.186-0.146c-0.699-0.177-0.912,0.153-1.065,0.648
		C39.964,33.963,39.947,34.36,39.932,34.462z M8.698,33.326c-0.977,0.2-1.956,0.385-2.922,0.621
		c-0.177,0.047-0.426,0.326-0.415,0.479c0.057,0.833,0.037,1.737,0.377,2.452c0.125,0.271,1.155,0.118,1.771,0.157
		c0.098,0.004,0.192-0.023,0.291-0.031c1.648-0.161,2.374-1.206,1.943-2.794C9.6,33.691,9.506,33.099,8.698,33.326z M4.923,30.484
		c-0.083,0.027-0.161,0.06-0.242,0.091c0.322,0.621,0.574,1.718,0.982,1.784c0.98,0.149,2.128,0.02,3.019-0.4
		c0.461-0.213,0.684-1.277,0.729-1.974c0.041-0.641-0.049-1.528-1.166-1.313c-0.692,0.134-1.381,0.354-2.077,0.389
		C5.21,29.105,4.762,29.498,4.923,30.484z M14.662,30.331c-0.229-0.546-0.306-1.313-0.717-1.596
		c-0.88-0.604-1.963-0.322-2.887,0.032c-0.281,0.109-0.326,0.849-0.479,1.305c-0.027,0.09-0.039,0.188-0.064,0.282
		c-0.201,0.869,0.32,1.525,1.212,1.475c0.55-0.027,1.1-0.122,1.648-0.169C14.149,31.597,14.59,31.235,14.662,30.331z M15.065,34.973
		c-0.255-0.53-0.418-1.442-0.776-1.524c-0.902-0.204-1.906-0.138-2.824,0.043c-0.25,0.051-0.34,0.896-0.505,1.372
		c-0.02,0.063-0.031,0.13-0.045,0.188c-0.212,0.928,0.324,1.568,1.271,1.501c0.517-0.035,1.034-0.121,1.551-0.165
		C14.576,36.329,15.002,35.924,15.065,34.973z M19.878,29.766c0-1.396-0.128-1.518-1.611-1.51c-2.399,0.012-2.427,0.04-2.207,2.304
		c0.083,0.817,0.591,1.21,1.385,1.053c0.354-0.07,0.69-0.22,1.042-0.271C19.844,31.133,19.878,31.102,19.878,29.766z M18.365,32.996
		c0-0.008,0-0.016,0-0.023c-0.197,0.016-0.407-0.012-0.588,0.055c-0.479,0.181-1.311,0.354-1.344,0.609
		c-0.095,0.774-0.042,1.662,0.271,2.366c0.283,0.645,3.136,0.216,3.46-0.444c0.057-0.118,0.084-0.252,0.088-0.377
		c0.01-0.464,0.108-0.951-0.027-1.368c-0.106-0.322-0.468-0.645-0.796-0.786C19.127,32.894,18.72,32.996,18.365,32.996z"/>
	<path fill="#DBC5B6" d="M52.049,23.533c-0.346,0.016-0.688,0.039-1.029,0.047c-2.158,0.043-4.352,0.314-6.466,0.032
		c-1.485-0.197-2.829,0.346-4.268,0.2c-1.463-0.153-2.948-0.059-4.426-0.02c-0.708,0.02-1.006-0.173-0.955-0.939
		c0.051-0.747-0.067-1.505-0.071-2.26c-0.004-1.124,0.842-1.631,1.836-1.045c0.598,0.354,1.062,0.357,1.619-0.012
		c0.256-0.169,0.617-0.248,0.928-0.24c1.619,0.031,3.238,0.157,4.857,0.137c0.99-0.012,1.989-0.181,2.972-0.369
		c1.489-0.287,2.303,0.601,3.042,1.646C50.729,21.619,51.354,22.534,52.049,23.533z"/>
	<path fill="#DBC5B6" d="M18.282,21.968c0.016,2.492,0.016,2.507-2.401,2.735c-1.92,0.173-3.842,0.307-5.764,0.448
		c-1.698,0.125-3.4,0.236-5.1,0.357c-0.264,0.016-0.525,0.043-0.784,0.036c-0.898-0.028-1.212-0.535-0.717-1.27
		c0.456-0.672,0.996-1.293,1.558-1.887c0.513-0.538,1.038-1.104,1.672-1.454c0.562-0.311,1.279-0.42,1.936-0.452
		c1.906-0.09,3.82-0.07,5.73-0.149c0.939-0.036,1.881-0.126,2.8-0.307c0.869-0.165,1.144,0.149,1.073,0.959
		C18.258,21.312,18.278,21.638,18.282,21.968z"/>
	<path fill="#DBC5B6" d="M19.213,12.143c0.843-3.416,1.942-3.781,5.037-3.388c0.268,0.031,0.546-0.016,0.822-0.016
		c0.393,0.004,0.786,0.012,1.179,0.024c0.185,0.008,0.37,0.071,0.546,0.059c1.283-0.114,2.563-0.318,3.844-0.31
		c0.354,0,0.731,0.582,1.05,0.935c0.575,0.648,1.112,1.329,1.67,1.997c-0.039,0.086-0.078,0.177-0.118,0.264
		C28.605,11.852,23.967,11.997,19.213,12.143z"/>
	<path fill="#FFFFFF" d="M26.447,22.793c-2.152-0.008-3.734-1.588-3.714-3.718c0.018-1.851,1.694-3.427,3.616-3.404
		c2.158,0.032,3.74,1.611,3.703,3.71C30.018,21.284,28.425,22.793,26.447,22.793z M26.662,16.332
		c-0.936,0.377-1.352,0.928-1.177,1.596c0.14,0.527,0.566,1.101,1.03,1.38c0.294,0.177,0.894-0.138,1.352-0.232
		c0.041-0.13,0.083-0.259,0.124-0.385C26.39,18.584,26.563,17.496,26.662,16.332z"/>
	<path fill="#FFFFFF" d="M48.61,34.607c-0.539,1.081-1.518,0.691-2.618,0.893c0.229-0.641,0.268-1.325,0.605-1.537
		C47.337,33.503,48.005,33.979,48.61,34.607z"/>
	<path fill="#FFFFFF" d="M37.361,30.512c-0.605-0.188-1.446,0.496-1.918-0.762c0.527-0.134,1.038-0.386,1.51-0.334
		c0.243,0.023,0.432,0.585,0.645,0.907C37.519,30.387,37.44,30.449,37.361,30.512z"/>
	<path fill="#FFFFFF" d="M47.313,30.897c-0.621-0.252-1.227,0.094-1.273-0.829c-0.06-1.124,0.81-1.058,1.391-0.986
		c0.409,0.047,0.755,0.616,1.12,0.959C48.139,30.323,47.722,30.614,47.313,30.897z"/>
	<path fill="#FFFFFF" d="M42.129,31.161c-0.569-0.523-1.223-0.838-1.301-1.262c-0.134-0.7,0.605-0.555,1.058-0.578
		c0.637-0.035,1.018,0.287,0.938,0.924C42.793,30.496,42.486,30.709,42.129,31.161z"/>
	<path fill="#FFFFFF" d="M37.707,35.248c-0.833-0.126-1.305-0.138-1.721-0.291c-0.173-0.059-0.229-0.436-0.334-0.664
		c0.499-0.07,1.018-0.235,1.489-0.157C37.346,34.175,37.464,34.737,37.707,35.248z"/>
	<path fill="#FFFFFF" d="M42.109,33.916c0.299,0.279,0.778,0.519,0.849,0.845c0.11,0.499-0.255,0.908-0.841,0.751
		c-0.464-0.126-1.258,0.13-1.234-0.751c0.016-0.668,0.483-0.778,1.054-0.645C41.991,34.05,42.051,33.986,42.109,33.916z"/>
	<path fill="#FFFFFF" d="M8.833,34.898c-0.004,1.183-0.513,1.474-2.026,1.524C6.098,36.447,6.136,35.943,6.12,35.5
		c-0.038-0.939,0.422-1.211,2.11-1.116C8.494,34.396,8.735,34.812,8.833,34.898z"/>
	<path fill="#FFFFFF" d="M7.438,29.687c0.403-0.059,0.996-0.291,1.01,0.652c0.012,0.995-0.316,1.227-1.981,1.353
		c-0.623,0.047-0.698-0.322-0.741-0.771C5.636,29.978,5.864,29.805,7.438,29.687z"/>
	<path fill="#FFFFFF" d="M13.556,30.937c-0.747-0.464-1.62,0.759-2.062-0.456c-0.112-0.299,0.088-1.006,0.307-1.093
		C12.921,28.979,13.236,29.809,13.556,30.937z"/>
	<path fill="#FFFFFF" d="M14.002,35.688c-0.8-0.491-1.668,0.719-2.114-0.476c-0.112-0.299,0.069-0.975,0.307-1.097
		C12.925,33.743,13.346,34.112,14.002,35.688z"/>
	<path fill="#FFFFFF" d="M16.893,29.211c0.427-0.027,0.755-0.066,1.083-0.059c0.261,0.004,0.654-0.02,0.758,0.126
		c0.183,0.267,0.281,0.668,0.232,0.982c-0.023,0.157-0.426,0.346-0.676,0.381C17.052,30.795,16.688,30.398,16.893,29.211z"/>
	<path fill="#FFFFFF" d="M17.293,33.975c0.419-0.059,0.826-0.208,1.177-0.13c0.336,0.071,0.788,0.334,0.869,0.613
		c0.071,0.236-0.253,0.817-0.499,0.877C17.565,35.669,17.036,35.126,17.293,33.975z"/>
	<g>
		<g>
			<path d="M2.72,44.559c-0.008-0.109,0.079-0.212,0.075-0.322c-0.004-0.102-0.163-0.196-0.173-0.307
				c-0.004-0.105-0.057-0.208-0.065-0.311c-0.004-0.105,0.238-0.224,0.234-0.326c-0.004-0.109-0.324-0.196-0.328-0.298
				c-0.004-0.11,0.348-0.232,0.344-0.335c-0.004-0.105-0.11-0.204-0.118-0.31c-0.008-0.103,0-0.205-0.008-0.314
				c-0.004-0.106-0.066-0.209-0.07-0.311c-0.004-0.106-0.14-0.205-0.144-0.307c-0.004-0.103,0.083-0.217,0.079-0.318
				c-0.004-0.11-0.14-0.205-0.147-0.307c-0.004-0.11,0.057-0.217,0.053-0.322c-0.004-0.106,0.122-0.221,0.114-0.322
				c-0.004-0.103-0.114-0.204-0.122-0.307c-0.004-0.11-0.004-0.212-0.014-0.318c-0.004-0.106,0.207-0.225,0.203-0.326
				c-0.006-0.11-0.12-0.204-0.128-0.314c-0.004-0.106,0.045-0.212,0.042-0.318s-0.268-0.196-0.271-0.303
				c-0.004-0.11,0.197-0.22,0.193-0.33c-0.004-0.106,0.12-0.216,0.11-0.322c-0.004-0.106-0.2-0.2-0.208-0.307
				c-0.004-0.11,0.139-0.22,0.131-0.326c-0.004-0.106-0.373-0.192-0.377-0.295c-0.004-0.106,0.155-0.216,0.147-0.322
				c-0.004-0.11,0.169-0.22,0.159-0.322c-0.004-0.11-0.257-0.196-0.261-0.307c-0.004-0.106,0.188-0.22,0.185-0.33
				c-0.004-0.103,0.042-0.212,0.036-0.314c-0.008-0.11-0.36-0.188-0.368-0.299c-0.008-0.105,0.09-0.216,0.081-0.318
				c-0.008-0.105,0.1-0.216,0.094-0.326c-0.008-0.102,0.091-0.216,0.083-0.322c-0.008-0.105-0.171-0.2-0.181-0.303
				c-0.008-0.102,0.014-0.216,0.01-0.318c-0.01-0.102-0.108-0.204-0.116-0.307c-0.008-0.105,0.21-0.224,0.2-0.33
				c-0.008-0.105-0.077-0.204-0.084-0.314c-0.01-0.102-0.173-0.196-0.181-0.299c-0.008-0.109-0.045-0.212-0.053-0.313
				c-0.01-0.106,0.197-0.225,0.185-0.331c-0.01-0.109,0.016-0.212,0.008-0.322c-0.008-0.105-0.32-0.181-0.328-0.29
				c-0.008-0.106,0.125-0.221,0.118-0.326c-0.008-0.106-0.069-0.209-0.077-0.311c-0.01-0.11,0.25-0.236,0.242-0.343
				c-0.008-0.105-0.267-0.188-0.275-0.29c-0.008-0.106,0.181-0.232,0.169-0.334c-0.014-0.103-0.222-0.189-0.23-0.291
				c-0.014-0.11-0.033-0.213-0.045-0.314c-0.014-0.106-0.07-0.204-0.083-0.307c-0.012-0.11-0.037-0.22-0.041-0.322
				c-0.008-0.11,0.238-0.228,0.238-0.334c0-0.11-0.257-0.224-0.253-0.327c0.004-0.11,0.094-0.22,0.102-0.322
				c0.012-0.106,0.205-0.188,0.222-0.294c0.016-0.106-0.203-0.255-0.177-0.362c0.023-0.106,0.192-0.177,0.222-0.279
				c0.028-0.103-0.018-0.228,0.016-0.33c0.033-0.103,0.037-0.22,0.079-0.322c0.039-0.095,0.246-0.126,0.291-0.224
				C2.3,24.963,2.36,24.88,2.406,24.782c0.049-0.094-0.079-0.283-0.029-0.377c0.053-0.095,0.304-0.071,0.357-0.166
				c0.053-0.086-0.033-0.267,0.023-0.361c0.057-0.086,0.14-0.161,0.201-0.251c0.063-0.086,0.226-0.102,0.287-0.189
				c0.063-0.086-0.036-0.287,0.029-0.373c0.061-0.086,0.086-0.201,0.151-0.287c0.063-0.086,0.147-0.157,0.214-0.236
				c0.065-0.086,0.266-0.067,0.329-0.153c0.064-0.086-0.059-0.307,0.008-0.393c0.065-0.086,0.275-0.059,0.34-0.145
				c0.065-0.087,0.098-0.197,0.167-0.283c0.071-0.086,0.165-0.142,0.238-0.22c0.075-0.079,0.157-0.149,0.23-0.224
				c0.079-0.074,0.242-0.043,0.324-0.114s0.071-0.255,0.151-0.322c0.086-0.063,0.131-0.196,0.222-0.251
				c0.09-0.059,0.34,0.149,0.43,0.102c0.094-0.055,0.136-0.188,0.234-0.232c0.098-0.043,0.106-0.299,0.204-0.334
				c0.099-0.043,0.287,0.157,0.389,0.126c0.103-0.032,0.189-0.103,0.291-0.134c0.104-0.023,0.169-0.205,0.275-0.228
				c0.103-0.02,0.197-0.149,0.299-0.165c0.108-0.016,0.218-0.023,0.324-0.039c0.106-0.012,0.25,0.306,0.358,0.294
				c0.106-0.008,0.192-0.24,0.298-0.24c0.106-0.008,0.222,0.11,0.329,0.106c0.106-0.004,0.212,0.074,0.324,0.074
				c0.106,0,0.212-0.07,0.318-0.074c0.108-0.004,0.218,0.043,0.324,0.043c0.106-0.004,0.214-0.086,0.32-0.086
				c0.106-0.008,0.216,0.055,0.324,0.051c0.106-0.004,0.212-0.114,0.318-0.114c0.108-0.008,0.214,0.008,0.324,0
				c0.106,0,0.214-0.067,0.32-0.071c0.106-0.004,0.222,0.142,0.328,0.134c0.106-0.004,0.216,0.016,0.324,0.008
				c0.106,0,0.2-0.267,0.307-0.267c0.106-0.008,0.226,0.204,0.332,0.196s0.208-0.153,0.316-0.157
				c0.106-0.004,0.216,0.04,0.322,0.032c0.108,0,0.222,0.102,0.328,0.102c0.108-0.008,0.207-0.188,0.313-0.197
				c0.106-0.008,0.208-0.086,0.314-0.094c0.108-0.008,0.222,0.094,0.328,0.086c0.108-0.008,0.218,0.008,0.324,0
				s0.201-0.2,0.309-0.208c0.106-0.008,0.228,0.24,0.336,0.232c0.106-0.008,0.216,0.016,0.322,0.008
				c0.108-0.008,0.207-0.146,0.313-0.153s0.208-0.122,0.316-0.13c0.106-0.008,0.212-0.051,0.318-0.059
				c0.108-0.008,0.214-0.027,0.32-0.035c0.094-0.008,0.246,0.196,0.362,0.13c0.098-0.059,0.306-0.036,0.385-0.114
				c0.103-0.102-0.021-0.346-0.018-0.432c0.004-0.106,0.014-0.216,0.018-0.326c0.004-0.114,0.081-0.216,0.081-0.326
				c0-0.114-0.118-0.22-0.118-0.33c0-0.11,0.242-0.228,0.234-0.338c-0.004-0.114-0.238-0.208-0.246-0.314
				c-0.014-0.11,0.129-0.236,0.114-0.346s-0.086-0.216-0.114-0.318c-0.026-0.106-0.103-0.2-0.14-0.303
				c-0.037-0.102-0.192-0.173-0.218-0.271c-0.023-0.102,0.201-0.255,0.185-0.358c-0.016-0.11-0.144-0.196-0.151-0.298
				c-0.008-0.106-0.057-0.208-0.057-0.314c0-0.106,0.049-0.212,0.057-0.314c0.008-0.11,0.064-0.205,0.083-0.307
				c0.016-0.102-0.177-0.248-0.161-0.354c0.021-0.103,0.124-0.189,0.143-0.291c0.026-0.102-0.02-0.228,0.008-0.33
				c0.025-0.103,0.229-0.157,0.259-0.26c0.027-0.102,0.102-0.188,0.131-0.291c0.028-0.102-0.029-0.224-0.004-0.326
				c0.028-0.102,0.187-0.169,0.212-0.271c0.029-0.106,0.075-0.2,0.102-0.302c0.034-0.103-0.155-0.279-0.118-0.381
				c0.035-0.102,0.016-0.228,0.053-0.33c0.037-0.103,0.216-0.153,0.257-0.255c0.041-0.106,0.12-0.185,0.165-0.287
				c0.045-0.102,0.144-0.177,0.188-0.275c0.045-0.098-0.006-0.244,0.04-0.346c0.049-0.098,0.079-0.204,0.127-0.303
				c0.049-0.098,0.287-0.098,0.336-0.196c0.049-0.098,0.095-0.177,0.147-0.263c0.057-0.095-0.069-0.295-0.008-0.377
				c0.065-0.086,0.128-0.173,0.197-0.251c0.075-0.075,0.102-0.212,0.181-0.275c0.083-0.071,0.218-0.079,0.303-0.133
				c0.09-0.063,0.291,0.118,0.391,0.075c0.094-0.043,0.053-0.437,0.155-0.468c0.098-0.032,0.22-0.047,0.324-0.071
				c0.098-0.016,0.257,0.326,0.363,0.314c0.102-0.016,0.177-0.417,0.283-0.417c0.102-0.008,0.218,0.118,0.324,0.118
				c0.102,0.008,0.212,0.008,0.32,0.016c0.106,0.008,0.192,0.228,0.299,0.232c0.106,0.012,0.208,0.079,0.312,0.083
				c0.106,0.004,0.216-0.196,0.322-0.192c0.108,0.004,0.21-0.067,0.316-0.059c0.106,0,0.208,0.13,0.313,0.13
				c0.106,0,0.208-0.197,0.314-0.197c0.106,0,0.21,0.22,0.316,0.22c0.106,0,0.208-0.004,0.314-0.004c0.108,0,0.21-0.134,0.313-0.134
				c0.106,0,0.208-0.043,0.316-0.043c0.106,0,0.212,0.248,0.318,0.24c0.106,0,0.21-0.016,0.316-0.016s0.205-0.22,0.311-0.22
				c0.108,0,0.21,0.055,0.316,0.055s0.208-0.169,0.316-0.173c0.106,0,0.212,0.189,0.318,0.189c0.108,0,0.214,0.027,0.32,0.027
				c0.106,0,0.208-0.134,0.317-0.138c0.105-0.004,0.208-0.11,0.314-0.11c0.107-0.008,0.222,0.354,0.323,0.354
				c0.106-0.008,0.211-0.157,0.316-0.165c0.106,0,0.213,0.02,0.314,0.02c0.104,0,0.211-0.122,0.316-0.122
				c0.106,0,0.213,0.079,0.32,0.079c0.106,0,0.213,0.161,0.314,0.161c0.108,0,0.215-0.205,0.316-0.205
				c0.106,0,0.213,0.051,0.316,0.051c0.095,0,0.273-0.149,0.376-0.102c0.094,0.039,0.094,0.291,0.177,0.35
				c0.086,0.067,0.316,0.027,0.369,0.102c0.061,0.083-0.106,0.334-0.045,0.413c0.061,0.086,0.32,0.031,0.377,0.11
				c0.061,0.086,0.037,0.228,0.101,0.314c0.059,0.086,0.086,0.188,0.149,0.275c0.055,0.086,0.055,0.216,0.109,0.299
				c0.06,0.083,0.165,0.142,0.221,0.228c0.059,0.083,0.282,0.055,0.342,0.142c0.059,0.086-0.13,0.338-0.075,0.42
				c0.06,0.086,0.334,0.027,0.394,0.114c0.055,0.086-0.095,0.307-0.039,0.393c0.055,0.086,0.278,0.071,0.33,0.157
				c0.055,0.086,0.196,0.126,0.247,0.212c0.052,0.094-0.094,0.299-0.043,0.385c0.055,0.094,0.095,0.188,0.138,0.275
				c0.051,0.094,0.114,0.173,0.153,0.267c0.039,0.095,0.173,0.157,0.208,0.252c0.031,0.098,0.103,0.188,0.126,0.287
				c0.027,0.098,0.094,0.197,0.114,0.299c0.023,0.098-0.008,0.216,0.008,0.318c0.008,0.102,0.035,0.212,0.039,0.314
				s-0.149,0.208-0.149,0.311c0,0.102,0.059,0.208,0.051,0.311c-0.008,0.102-0.146,0.185-0.161,0.291
				c-0.016,0.103,0.153,0.228,0.142,0.33c-0.008,0.103-0.188,0.197-0.196,0.299c0,0.102,0.055,0.208,0.055,0.314
				c0,0.102-0.078,0.208-0.078,0.314c0.008,0.102-0.04,0.212-0.035,0.314c0.004,0.102,0.357,0.181,0.365,0.283
				c0.008,0.103-0.354,0.24-0.346,0.342c0.008,0.106,0.157,0.192,0.169,0.294c0.012,0.103,0.027,0.205,0.043,0.307
				c0.008,0.103,0.016,0.212,0.031,0.314c0.012,0.103,0.122,0.193,0.134,0.295c0.016,0.102,0.031,0.204,0.039,0.307
				c0.008,0.071,0.008,0.161,0.11,0.232c0.07,0.047,0.106,0.204,0.2,0.248c0.083,0.043,0.287-0.232,0.378-0.208
				c0.102,0.028,0.145,0.33,0.228,0.322c0.106,0,0.208-0.188,0.318-0.188c0.103,0,0.212,0.204,0.318,0.204s0.208-0.181,0.314-0.188
				c0.106,0,0.216,0.008,0.318,0.008c0.103-0.008,0.216,0.208,0.322,0.208c0.106-0.004,0.208-0.071,0.314-0.075
				c0.11-0.004,0.212,0.055,0.322,0.055c0.103-0.008,0.196-0.322,0.307-0.326c0.106-0.004,0.216,0.232,0.322,0.232
				c0.11,0,0.204-0.177,0.314-0.181c0.102-0.008,0.212,0.02,0.314,0.02c0.105-0.004,0.208-0.051,0.314-0.051
				c0.105-0.008,0.22,0.161,0.322,0.157c0.109-0.004,0.212-0.016,0.318-0.02c0.105-0.004,0.212,0.075,0.318,0.067
				c0.105,0,0.2-0.33,0.307-0.334c0.109-0.004,0.212,0.004,0.314,0c0.109-0.004,0.22,0.146,0.326,0.138
				c0.105,0,0.208-0.063,0.318-0.063c0.102-0.004,0.212,0.212,0.322,0.208c0.105-0.004,0.208-0.016,0.314-0.02
				c0.105-0.004,0.212-0.067,0.314-0.071c0.102-0.004,0.204-0.055,0.314-0.055c0.105-0.008,0.212,0.094,0.314,0.094
				c0.102,0,0.2-0.188,0.306-0.188c0.103-0.008,0.221,0.244,0.323,0.24c0.102-0.004,0.196-0.173,0.306-0.177
				c0.103-0.004,0.209-0.004,0.311-0.004c0.103,0,0.201-0.161,0.311-0.169c0.103,0,0.205-0.012,0.307-0.016
				c0.103-0.004,0.217,0.173,0.318,0.169c0.103-0.004,0.204-0.153,0.307-0.153s0.216,0.126,0.318,0.126s0.212,0.142,0.314,0.137
				c0.103-0.004,0.204-0.078,0.311-0.083c0.106-0.004,0.204-0.118,0.307-0.118c0.106-0.004,0.208-0.004,0.311-0.004
				c0.103-0.004,0.212,0.067,0.314,0.059c0.103,0,0.204-0.075,0.311-0.075c0.105,0,0.239-0.043,0.361-0.028
				c0.118,0.008,0.232,0.086,0.342,0.122c0.118,0.039,0.236,0.094,0.307,0.177c0.071,0.079,0.035,0.244,0.103,0.322
				c0.07,0.079,0.369-0.047,0.44,0.032c0.07,0.074-0.024,0.291,0.047,0.377c0.07,0.075,0.181,0.118,0.251,0.197
				c0.063,0.075,0.024,0.251,0.087,0.33c0.066,0.079,0.239,0.071,0.307,0.149c0.07,0.079,0.094,0.196,0.165,0.275
				c0.063,0.083,0.142,0.153,0.204,0.236c0.067,0.079,0.138,0.157,0.204,0.236c0.071,0.083,0.291,0.031,0.362,0.11
				c0.063,0.083,0.07,0.212,0.138,0.291c0.066,0.086,0.125,0.165,0.192,0.248c0.063,0.083,0.204,0.102,0.267,0.181
				c0.071,0.083,0.013,0.264,0.079,0.342c0.066,0.086,0.103,0.188,0.165,0.275c0.066,0.079,0.153,0.142,0.22,0.224
				c0.063,0.075,0.122,0.169,0.189,0.248c0.066,0.075,0.243,0.063,0.313,0.146c0.071,0.083,0.087,0.212,0.142,0.299
				c0.06,0.09-0.109,0.298-0.063,0.393c0.043,0.094,0.165,0.137,0.196,0.24c0.031,0.094-0.031,0.208-0.008,0.306
				c0.02,0.103,0,0.189,0.016,0.291c0.012,0.102,0.275,0.185,0.283,0.287c0.004,0.102,0.035,0.212,0.031,0.314
				c-0.004,0.106-0.109,0.2-0.118,0.31c-0.008,0.103,0.13,0.22,0.118,0.322c-0.012,0.103-0.188,0.189-0.2,0.291
				s-0.091,0.201-0.099,0.303s0.157,0.224,0.149,0.326s-0.228,0.196-0.235,0.299c-0.008,0.106,0.142,0.216,0.134,0.322
				c-0.008,0.106,0.133,0.22,0.125,0.322c-0.008,0.11-0.031,0.212-0.039,0.314c-0.012,0.106-0.157,0.2-0.165,0.302
				c-0.008,0.106-0.165,0.2-0.173,0.303c-0.008,0.105,0.252,0.228,0.244,0.33c-0.012,0.109-0.063,0.204-0.063,0.314
				c-0.008,0.105-0.086,0.204-0.094,0.307c-0.008,0.105,0.078,0.212,0.07,0.322c-0.008,0.102-0.252,0.188-0.26,0.298
				c-0.008,0.103,0.275,0.229,0.268,0.331c-0.008,0.105-0.212,0.196-0.224,0.298c-0.008,0.11,0.157,0.221,0.146,0.322
				c-0.008,0.11-0.221,0.197-0.229,0.299c-0.012,0.11,0.268,0.232,0.264,0.334c-0.004,0.106-0.043,0.209-0.051,0.311
				c-0.009,0.11-0.244,0.197-0.252,0.299c-0.008,0.11,0.047,0.217,0.039,0.322c0,0.106-0.181,0.196-0.188,0.299
				s0.307,0.236,0.299,0.338c-0.008,0.103-0.283,0.188-0.291,0.295c-0.008,0.103-0.059,0.204-0.07,0.311
				c-0.008,0.103,0.224,0.228,0.216,0.33s-0.173,0.196-0.181,0.299s-0.067,0.208-0.079,0.311c-0.008,0.103-0.023,0.208-0.031,0.311
				c-0.008,0.102,0.24,0.228,0.232,0.338c-0.012,0.103-0.217,0.188-0.225,0.295c-0.008,0.102,0.161,0.22,0.146,0.326
				c-0.008,0.102,0.008,0.212,0,0.314c-0.008,0.102-0.039,0.204-0.047,0.307c-0.008,0.102-0.252,0.181-0.26,0.291
				c-0.008,0.105-0.078,0.2-0.086,0.302c-0.008,0.103,0.153,0.225,0.142,0.326c-0.009,0.103-0.182,0.197-0.193,0.299
				c-0.012,0.103,0.126,0.221,0.118,0.322c-0.012,0.103-0.051,0.205-0.059,0.307c-0.008,0.103,0.035,0.213,0.023,0.314
				c-0.016,0.103-0.06,0.205-0.071,0.307c-0.012,0.103-0.047,0.208-0.055,0.311c-0.016,0.103,0.196,0.229,0.188,0.334
				c-0.012,0.103-0.291,0.177-0.303,0.283c-0.012,0.103,0.295,0.243,0.283,0.346s-0.146,0.192-0.153,0.299
				c-0.008,0.103-0.275,0.181-0.283,0.283c-0.016,0.102,0.103,0.22,0.095,0.322c-0.008,0.102-0.153,0.196-0.161,0.299
				c-0.012,0.102,0.177,0.228,0.161,0.33c-0.008,0.102-0.087,0.2-0.103,0.303c-0.008,0.105,0.205,0.231,0.197,0.338
				c-0.017,0.102-0.386,0.169-0.394,0.271c-0.016,0.103,0.055,0.221,0.043,0.322c-0.012,0.103,0.103,0.221,0.095,0.322
				c-0.012,0.11,0.035,0.229,0.027,0.339c-0.008,0.109-0.165,0.204-0.181,0.314c-0.008,0.109,0.196,0.235,0.185,0.35
				c-0.008,0.109-0.177,0.208-0.188,0.318c-0.008,0.109,0.004,0.22-0.004,0.33c-0.008,0.113-0.008,0.224-0.016,0.334
				c-0.008,0.114-0.106,0.216-0.114,0.326c-0.012,0.11,0.075,0.228,0.067,0.334s-0.236,0.138-0.26,0.224
				c-0.031,0.103,0.204,0.314,0.149,0.386c-0.063,0.07-0.275-0.071-0.369-0.031c-0.079,0.031-0.095,0.33-0.205,0.35
				c-0.086,0.012-0.196-0.122-0.307-0.122c-0.105,0-0.208-0.181-0.314-0.181c-0.109,0-0.212,0.122-0.314,0.122
				c-0.109,0-0.212,0.161-0.318,0.161c-0.105,0-0.208-0.063-0.314-0.063c-0.105,0-0.208-0.125-0.318-0.125
				c-0.102,0-0.204,0.267-0.313,0.274c-0.106,0-0.213-0.318-0.314-0.318c-0.106,0-0.209,0.083-0.314,0.083
				c-0.11,0-0.213,0.098-0.314,0.098c-0.11,0-0.217-0.231-0.318-0.224c-0.103,0.004-0.209,0.295-0.318,0.295
				c-0.103,0-0.213-0.185-0.314-0.185c-0.103,0-0.209,0.027-0.314,0.027c-0.106,0-0.209-0.06-0.314-0.06
				c-0.11,0-0.213,0.174-0.314,0.174c-0.11,0-0.213,0.063-0.318,0.063c-0.106,0-0.213-0.33-0.314-0.33
				c-0.106,0-0.208,0.165-0.318,0.165c-0.103,0.008-0.204,0.239-0.314,0.239c-0.106,0-0.208-0.063-0.314-0.063
				s-0.212-0.13-0.314-0.13c-0.11,0-0.212-0.094-0.314-0.09c-0.11,0-0.212-0.004-0.318-0.004s-0.208-0.048-0.318-0.048
				c-0.103,0-0.204-0.035-0.314-0.035c-0.106,0-0.208,0.342-0.311,0.342c-0.106,0-0.208-0.086-0.314-0.086s-0.208,0.02-0.318,0.023
				c-0.103,0.004-0.204-0.067-0.314-0.067c-0.106,0-0.208,0.138-0.314,0.138c-0.11,0-0.212,0.02-0.314,0.02
				c-0.11,0-0.212-0.318-0.322-0.318c-0.105,0-0.208,0.221-0.311,0.221c-0.102,0-0.216-0.221-0.318-0.221
				c-0.102,0-0.204,0.103-0.314,0.103c-0.105,0-0.208-0.051-0.314-0.051c-0.105,0-0.208,0.169-0.314,0.173
				c-0.109,0-0.212-0.071-0.314-0.071c-0.109,0-0.212,0.138-0.318,0.138c-0.105,0-0.212-0.102-0.318-0.102
				c-0.102,0-0.212-0.197-0.314-0.197c-0.102,0-0.208,0.036-0.314,0.036c-0.105,0-0.208,0.051-0.314,0.051
				c-0.109,0-0.212,0.142-0.313,0.142c-0.11,0-0.213,0.114-0.318,0.118c-0.106,0-0.213-0.122-0.314-0.118
				c-0.106,0-0.209,0.098-0.318,0.102c-0.103,0.004-0.213-0.274-0.318-0.274c-0.106,0-0.209-0.023-0.314-0.023
				c-0.106,0-0.209,0.055-0.318,0.055c-0.103,0-0.205,0.126-0.314,0.126c-0.106,0-0.209,0.121-0.314,0.121
				c-0.11,0-0.236-0.259-0.346-0.239c-0.11,0.008-0.236-0.008-0.347,0.008c-0.102,0.023-0.212,0.066-0.314,0.087
				c-0.109,0.023-0.181,0.212-0.282,0.235c-0.11,0.02-0.209,0.099-0.318,0.114c-0.103,0.012-0.213-0.091-0.32-0.103
				c-0.106-0.012-0.184-0.169-0.291-0.185c-0.091-0.016-0.179,0.031-0.273,0.004c-0.095-0.031-0.198-0.066-0.287-0.087
				c-0.104-0.023-0.173,0.209-0.255,0.24c-0.099,0.039-0.234,0.012-0.332,0.043c-0.103,0.027-0.238-0.074-0.345-0.051
				c-0.102,0.02-0.2,0.063-0.306,0.078c-0.108,0.008-0.203,0.138-0.309,0.146c-0.106,0.008-0.217-0.153-0.324-0.153
				c-0.106,0-0.217,0.264-0.322,0.26c-0.108-0.004-0.195-0.361-0.301-0.369c-0.106-0.008-0.23,0.243-0.336,0.235
				c-0.106-0.008-0.204-0.095-0.311-0.103c-0.108-0.008-0.214,0.021-0.321,0.008c-0.106-0.008-0.208-0.059-0.313-0.066
				c-0.106-0.008-0.216,0.146-0.322,0.138c-0.108,0-0.206-0.361-0.313-0.361c-0.106,0-0.208,0.113-0.316,0.113
				c-0.106,0-0.208,0.24-0.314,0.24c-0.106,0-0.21,0.039-0.316,0.039c-0.106,0-0.212-0.314-0.32-0.314
				c-0.106,0-0.208,0.318-0.314,0.318c-0.106,0-0.214-0.255-0.32-0.255c-0.106,0-0.208,0.204-0.314,0.204
				c-0.108,0-0.214-0.192-0.316-0.192c-0.106,0-0.208,0.043-0.316,0.051c-0.106,0-0.208,0.055-0.314,0.055
				c-0.108,0-0.214-0.086-0.316-0.086c-0.106,0-0.212-0.13-0.316-0.13c-0.106,0-0.212-0.008-0.314-0.008
				c-0.106,0-0.21,0.192-0.316,0.192s-0.212-0.012-0.314-0.012c-0.108,0-0.21,0.169-0.316,0.169s-0.214-0.149-0.316-0.149
				c-0.106,0-0.212,0-0.314,0c-0.102,0-0.214-0.012-0.316-0.012c-0.106,0-0.212-0.008-0.316-0.008c-0.106,0-0.212-0.043-0.314-0.043
				c-0.106,0-0.214-0.146-0.316-0.146c-0.106,0-0.208,0.224-0.314,0.224c-0.108,0-0.214-0.231-0.316-0.231
				c-0.106,0-0.214,0.012-0.316,0.012c-0.106,0-0.208,0.338-0.314,0.338c-0.108,0-0.214-0.138-0.316-0.138
				c-0.106,0-0.212-0.188-0.316-0.188c-0.106,0-0.208,0.318-0.314,0.318c-0.106,0-0.214-0.173-0.316-0.173
				c-0.106,0-0.208,0.196-0.314,0.196c-0.108,0-0.214-0.322-0.32-0.322s-0.21,0.103-0.316,0.103s-0.208,0.066-0.314,0.066
				c-0.108,0-0.21,0.181-0.316,0.181s-0.212-0.318-0.32-0.318c-0.106,0-0.208,0.248-0.314,0.248c-0.108,0-0.214-0.236-0.32-0.236
				s-0.214-0.02-0.316-0.02S14.507,46.996,14.401,47c-0.108,0-0.21,0.149-0.316,0.149c-0.106,0-0.212-0.24-0.32-0.24
				c-0.106,0-0.208,0.291-0.311,0.291c-0.102,0-0.21-0.138-0.313-0.134c-0.102,0.004-0.2,0.11-0.302,0.118
				c-0.103,0.004-0.218-0.196-0.32-0.192c-0.103,0.004-0.197,0.129-0.299,0.137s-0.193,0.189-0.295,0.197s-0.222-0.197-0.324-0.189
				c-0.102,0.009-0.192,0.182-0.295,0.189c-0.102,0.008-0.222-0.189-0.324-0.177c-0.102,0.008-0.196,0.102-0.298,0.105
				c-0.103,0.008-0.197,0.103-0.301,0.11c-0.102,0.008-0.216-0.157-0.318-0.149s-0.193,0.181-0.297,0.181
				c-0.102,0.008-0.212-0.165-0.314-0.153c-0.102,0.004-0.2,0.103-0.303,0.106c-0.104,0.004-0.202,0.118-0.304,0.122
				c-0.103,0.004-0.208-0.044-0.311-0.044c-0.108,0-0.214,0.079-0.32,0.079c-0.106,0-0.214-0.13-0.32-0.13
				c-0.106,0-0.208-0.177-0.314-0.177c-0.108,0-0.218,0.338-0.324,0.334c-0.106,0-0.21-0.13-0.316-0.13
				c-0.106-0.008-0.205-0.173-0.311-0.181c-0.108,0-0.214,0-0.316-0.008c-0.106,0-0.222,0.216-0.328,0.212
				c-0.106-0.008-0.208-0.074-0.316-0.078c-0.106-0.004-0.216,0.118-0.322,0.11c-0.108-0.005-0.21-0.095-0.313-0.103
				s-0.192-0.283-0.299-0.287c-0.106-0.008-0.21-0.016-0.316-0.023c-0.106-0.012-0.22,0.153-0.328,0.146
				c-0.106-0.008-0.224,0.165-0.332,0.157c-0.106-0.008-0.188-0.307-0.295-0.314c-0.077-0.008-0.25,0.173-0.336,0.094
				c-0.065-0.059,0.079-0.306,0.021-0.393c-0.055-0.078-0.35-0.016-0.391-0.095c-0.045-0.094-0.061-0.224-0.077-0.307
				c-0.021-0.094-0.004-0.204-0.014-0.302c-0.008-0.095-0.114-0.197-0.114-0.295c0-0.095,0.127-0.196,0.132-0.295
				c0.004-0.095,0.118-0.188,0.122-0.283c0.004-0.094-0.045-0.196-0.039-0.295C2.761,44.756,2.72,44.657,2.72,44.559z
				 M17.557,46.387c0-0.067,0.049-0.052,0.049-0.118c0.103,0,0.171-0.146,0.279-0.146c0.102,0,0.208-0.043,0.311-0.043
				c0.102,0,0.21,0.247,0.313,0.247c0.102,0,0.208-0.31,0.31-0.31c0.103,0,0.21,0.361,0.313,0.361c0.103,0,0.208-0.103,0.311-0.103
				c0.104,0,0.21,0.008,0.313,0.008s0.208-0.051,0.311-0.051c0.104,0,0.21-0.13,0.313-0.13s0.208,0.095,0.313,0.095
				c0.102,0,0.208-0.13,0.311-0.13c0.102,0,0.208,0.07,0.313,0.07c0.102,0,0.208,0.13,0.311,0.13c0.102,0,0.21-0.106,0.312-0.106
				c0.103,0,0.208,0,0.311,0c0.103,0,0.21,0.217,0.313,0.217c0.103,0,0.208-0.11,0.311-0.11c0.108,0,0.218,0.051,0.328,0.051
				c0.106,0,0.214-0.259,0.324-0.259c0.106,0,0.222,0.212,0.328,0.208c0.106,0,0.216,0.126,0.329,0.122
				c0.106,0,0.212-0.196,0.324-0.196c0.106,0,0.22,0.141,0.326,0.141c0.108,0,0.214-0.361,0.32-0.361
				c0.106,0,0.222,0.165,0.328,0.165c0.106,0,0.218,0.173,0.328,0.173c0.106,0,0.216-0.243,0.324-0.243c0.106,0,0.216,0.2,0.324,0.2
				c0.106,0,0.216,0.059,0.322,0.059c0.108,0,0.226-0.346,0.332-0.346c0.108,0.004,0.218,0.106,0.324,0.114
				c0.106,0.004,0.214,0.122,0.32,0.13c0.106,0,0.208,0.109,0.32,0.118c0.106,0.008,0.225-0.146,0.33-0.142
				c0.108,0.004,0.215,0.031,0.324,0.039c0.108,0,0.215-0.095,0.324-0.095c0.106,0,0.223,0.217,0.328,0.213
				c0.106-0.008,0.213-0.071,0.324-0.075c0.106-0.004,0.205-0.169,0.314-0.177c0.108-0.008,0.215-0.039,0.32-0.047
				c0.106-0.008,0.23,0.196,0.336,0.188c0.106-0.008,0.219,0.016,0.324,0.008c0.106-0.008,0.193-0.322,0.299-0.33
				c0.106-0.008,0.227,0.134,0.332,0.126c0.106-0.008,0.215-0.067,0.32-0.079c0.106-0.008,0.23,0.26,0.336,0.26
				c0.106-0.008,0.203-0.26,0.313-0.26c0.106-0.008,0.217,0.188,0.326,0.188c0.106,0,0.217-0.196,0.327-0.196
				c0.102,0,0.212-0.008,0.313-0.008c0.106,0,0.213-0.043,0.314-0.043c0.11,0,0.213-0.012,0.314-0.012
				c0.11,0,0.213,0.251,0.318,0.251c0.106,0,0.213-0.259,0.318-0.259c0.11,0,0.213,0.078,0.314,0.078
				c0.11,0,0.213,0.188,0.318,0.188c0.106,0,0.213-0.243,0.318-0.239c0.11,0.004,0.213,0.146,0.314,0.146
				c0.11,0,0.213-0.079,0.318-0.079c0.103,0,0.213-0.039,0.314-0.039c0.106,0,0.209,0.181,0.318,0.181
				c0.103,0,0.213,0.023,0.314,0.023c0.106,0,0.213-0.204,0.314-0.204c0.106,0,0.213,0.228,0.314,0.228
				c0.11,0,0.213-0.169,0.314-0.169c0.11,0,0.217,0.028,0.318,0.028c0.106,0,0.212,0.125,0.318,0.125
				c0.103,0,0.204-0.196,0.314-0.196c0.103,0,0.212-0.051,0.314-0.051s0.212,0.027,0.314,0.027s0.212,0.169,0.314,0.165
				c0.11,0,0.212-0.228,0.318-0.235c0.106,0,0.212,0.181,0.318,0.181c0.11,0,0.212-0.04,0.314-0.04c0.11,0,0.212,0.032,0.318,0.032
				s0.212,0,0.314,0c0.106,0,0.216,0.133,0.318,0.133c0.11,0,0.212-0.156,0.318-0.156s0.208-0.079,0.314-0.087
				c0.106,0,0.216,0.307,0.318,0.307c0.11,0,0.212-0.103,0.318-0.103s0.208-0.228,0.314-0.228c0.105,0,0.216,0.251,0.318,0.251
				c0.11,0,0.212-0.047,0.318-0.047c0.105,0,0.208-0.165,0.314-0.165c0.105,0,0.208-0.103,0.318-0.103
				c0.102,0,0.212,0.008,0.314,0.008c0.105,0,0.212,0.331,0.318,0.331c0.105,0,0.208-0.221,0.318-0.221
				c0.102,0,0.212,0.118,0.314,0.118c0.109,0,0.216,0.078,0.318,0.078c0.105,0,0.208-0.066,0.318-0.066
				c0.102,0,0.212,0.051,0.314,0.051c0.102,0,0.208-0.086,0.314-0.086c0.105,0,0.212,0.059,0.314,0.059
				c0.109,0,0.212-0.106,0.314-0.106c0.109,0,0.216,0.017,0.318,0.013c0.105,0,0.208-0.06,0.313-0.06
				c0.106,0,0.217,0.146,0.318,0.146c0.11,0,0.217,0.027,0.318,0.027c0.106,0,0.217-0.259,0.327-0.259
				c0.109,0,0.228,0.208,0.338,0.2c0.109-0.012,0.196-0.169,0.299-0.196c0.094-0.028,0.228-0.052,0.322-0.13
				c0.102-0.095,0.298-0.188,0.306-0.283c0.008-0.103-0.157-0.22-0.145-0.326c0.008-0.103-0.06-0.212-0.044-0.318
				c0.008-0.103,0.126-0.196,0.134-0.299c0.008-0.102,0.039-0.204,0.047-0.307c0.016-0.102-0.165-0.224-0.157-0.326
				c0.008-0.102,0.268-0.185,0.279-0.287c0.008-0.102,0.051-0.204,0.06-0.307c0.008-0.102-0.114-0.22-0.103-0.326
				c0.008-0.102-0.095-0.216-0.087-0.318c0.008-0.102-0.02-0.212-0.008-0.314c0.008-0.102,0-0.204,0.008-0.306
				c0.008-0.106,0.264-0.189,0.275-0.299c0.008-0.103,0.153-0.201,0.157-0.303c0.004-0.103-0.235-0.225-0.235-0.326
				c0.008-0.103,0.016-0.204,0.023-0.307c0-0.11,0.078-0.208,0.078-0.311s-0.109-0.208-0.109-0.311s0.243-0.212,0.243-0.314
				c0-0.11-0.228-0.22-0.235-0.326c0-0.11,0.149-0.228,0.145-0.342c-0.004-0.11-0.059-0.212-0.059-0.326
				c0-0.11-0.043-0.221-0.039-0.334c0.008-0.11-0.11-0.24-0.095-0.351c0.016-0.105,0.291-0.161,0.322-0.271
				c0.031-0.103-0.043-0.236,0.008-0.346c0.04-0.095,0.008-0.205,0.008-0.318c0-0.103,0.036-0.213,0.016-0.322
				c-0.016-0.106,0-0.225-0.016-0.326c-0.023-0.11-0.251-0.189-0.267-0.295c-0.008-0.11,0.07-0.248,0.078-0.35
				c0.016-0.103-0.043-0.221-0.031-0.322c0.016-0.106,0.212-0.182,0.228-0.291c0.017-0.106,0.079-0.201,0.095-0.307
				c0.016-0.106-0.059-0.221-0.043-0.33c0.02-0.103,0.169-0.188,0.185-0.291c0.016-0.11,0.055-0.208,0.07-0.314
				s-0.196-0.244-0.177-0.346c0.016-0.11-0.027-0.221-0.012-0.326c0.016-0.106,0.181-0.185,0.196-0.291
				c0.017-0.106,0.071-0.204,0.087-0.307c0.016-0.106,0.086-0.2,0.106-0.311c0.016-0.103-0.079-0.224-0.06-0.33
				c0.016-0.106,0.008-0.212,0.023-0.314c0.008-0.103,0.24-0.185,0.252-0.287c0.016-0.105,0.023-0.216,0.039-0.318
				c0.008-0.113-0.196-0.243-0.181-0.354c0.012-0.11,0.008-0.22,0.016-0.33s-0.063-0.224-0.055-0.33
				c0.008-0.11,0.086-0.212,0.09-0.322c0.004-0.114,0.264-0.212,0.271-0.318c0.004-0.11-0.369-0.24-0.361-0.342
				c0-0.114,0.023-0.221,0.023-0.33c0.008-0.11,0.377-0.205,0.377-0.314c0.008-0.11-0.385-0.24-0.385-0.346
				c0.008-0.11,0.138-0.213,0.142-0.322c0.004-0.11,0.008-0.22,0.012-0.33c0.008-0.114,0.224-0.22,0.224-0.338
				c0.008-0.11,0.071-0.22,0.079-0.334c0.008-0.114-0.188-0.24-0.173-0.35c0.016-0.118-0.023-0.251,0.016-0.361
				c0.039-0.11,0.188-0.173,0.22-0.275c0.031-0.118-0.134-0.263-0.118-0.365c0.021-0.122,0.252-0.201,0.252-0.299
				c0-0.122-0.02-0.251-0.047-0.35c-0.031-0.11-0.205-0.134-0.279-0.212c-0.074-0.071-0.157-0.083-0.271-0.126
				c-0.09-0.039-0.134-0.307-0.251-0.33c-0.103-0.016-0.229-0.016-0.346-0.02c-0.103-0.008-0.221,0.204-0.339,0.204
				c-0.105,0-0.212-0.051-0.318-0.051c-0.105,0-0.208,0.165-0.318,0.173c-0.102,0-0.212-0.188-0.318-0.188
				c-0.105,0-0.212-0.036-0.318-0.036c-0.109,0-0.212,0.138-0.314,0.138c-0.109,0-0.212,0.102-0.318,0.102
				c-0.105,0-0.216-0.354-0.322-0.354c-0.105,0-0.208,0.157-0.318,0.157c-0.102,0-0.212-0.024-0.318-0.024
				c-0.105,0-0.212,0.118-0.313,0.118c-0.106,0-0.217-0.079-0.318-0.079c-0.11,0-0.213-0.157-0.322-0.153
				c-0.106,0.004-0.209,0.208-0.314,0.208c-0.11,0-0.213-0.047-0.322-0.043c-0.103,0.004-0.205,0.197-0.314,0.201
				c-0.106,0-0.213-0.22-0.318-0.212c-0.106,0-0.209,0.188-0.318,0.188c-0.103,0-0.217-0.275-0.318-0.271
				c-0.106,0-0.209,0.248-0.314,0.248c-0.106,0-0.217-0.102-0.318-0.094c-0.11,0-0.217-0.036-0.322-0.032
				c-0.106,0-0.213-0.079-0.318-0.079c-0.106,0-0.217,0.059-0.318,0.059c-0.11,0-0.213,0.205-0.318,0.205
				c-0.106,0-0.217-0.291-0.326-0.291c-0.103,0-0.205,0.267-0.314,0.267c-0.103,0-0.217-0.244-0.318-0.244
				c-0.106,0-0.209,0.201-0.318,0.201c-0.103,0-0.205,0.102-0.314,0.102c-0.103,0.008-0.217-0.228-0.318-0.228
				c-0.106,0-0.213-0.012-0.318-0.008c-0.11,0-0.213,0.028-0.322,0.028c-0.106,0-0.209,0.102-0.314,0.106
				c-0.106,0-0.213,0.039-0.322,0.039c-0.103,0-0.213,0.047-0.314,0.051c-0.11,0-0.217-0.039-0.322-0.039
				c-0.106,0-0.213,0.02-0.322,0.02c-0.103,0-0.213-0.149-0.314-0.149c-0.11,0-0.217,0.071-0.318,0.071
				c-0.103,0-0.217-0.118-0.318-0.118c-0.11,0-0.213,0.185-0.314,0.185c-0.11,0-0.217-0.169-0.322-0.169
				c-0.106,0-0.213,0.066-0.314,0.07c-0.103,0.004-0.213-0.079-0.322-0.075c-0.106,0-0.213-0.043-0.318-0.043
				c-0.106,0-0.205,0.346-0.311,0.354c-0.11,0-0.221-0.369-0.326-0.369c-0.106,0-0.209,0.146-0.314,0.146
				c-0.106,0.004-0.217,0.012-0.318,0.012c-0.11,0.004-0.212-0.008-0.314-0.016c-0.114-0.012-0.24,0.063-0.338,0.04
				c-0.11-0.031-0.221-0.071-0.314-0.118c-0.095-0.047-0.149-0.173-0.236-0.236c-0.082-0.067-0.07-0.212-0.142-0.299
				c-0.063-0.079-0.393,0.016-0.455-0.079c-0.052-0.09,0.165-0.322,0.121-0.424c-0.043-0.103-0.247-0.166-0.267-0.283
				c-0.016-0.11,0.188-0.236,0.185-0.354c0-0.11-0.173-0.228-0.165-0.342c0.008-0.11,0.031-0.224,0.043-0.334
				c0.012-0.118,0.24-0.212,0.24-0.322c0.008-0.11-0.044-0.22-0.032-0.33s0.087-0.212,0.103-0.322s-0.279-0.259-0.268-0.37
				c0.016-0.114,0.268-0.188,0.279-0.298c0.012-0.11-0.146-0.236-0.13-0.346c0.012-0.11,0.048-0.212,0.056-0.326
				c0-0.11-0.04-0.216-0.04-0.326c-0.004-0.11,0.165-0.22,0.165-0.33c-0.008-0.106-0.016-0.216-0.023-0.322
				c0-0.106,0.071-0.22,0.067-0.33c-0.004-0.103-0.334-0.197-0.342-0.303c-0.009-0.106,0-0.216-0.009-0.322
				c-0.008-0.106,0.138-0.224,0.134-0.334c-0.004-0.106-0.07-0.212-0.078-0.318c-0.008-0.106,0.204-0.232,0.2-0.334
				c-0.008-0.11-0.023-0.216-0.031-0.327c-0.008-0.11-0.075-0.212-0.079-0.318c-0.004-0.11-0.059-0.212-0.066-0.322
				c0-0.106,0.095-0.22,0.095-0.326c-0.008-0.106-0.189-0.208-0.189-0.318c-0.008-0.102,0.244-0.22,0.244-0.326
				c0-0.106-0.169-0.212-0.173-0.318c-0.004-0.11,0.004-0.212,0.008-0.322c0-0.122-0.157-0.236-0.149-0.338
				c0-0.126-0.008-0.228-0.008-0.33c0-0.13,0.181-0.24,0.173-0.338c-0.012-0.134-0.165-0.212-0.188-0.299
				c-0.039-0.126,0.016-0.267-0.079-0.322c-0.078-0.051-0.181-0.228-0.318-0.244c-0.094-0.016-0.224,0.055-0.35,0.055
				c-0.103,0-0.212,0.11-0.334,0.118c-0.103,0-0.212,0-0.336,0.008c-0.106,0-0.218-0.059-0.328-0.051
				c-0.106,0.008-0.208,0.09-0.314,0.098c-0.108,0.008-0.21,0.067-0.316,0.075c-0.106,0.012-0.218-0.028-0.324-0.016
				c-0.106,0.012-0.212,0.028-0.32,0.043c-0.106,0.016-0.229-0.11-0.336-0.098c-0.106,0.012-0.175,0.338-0.283,0.35
				c-0.106,0.012-0.237-0.188-0.344-0.177s-0.208,0.086-0.314,0.094c-0.108,0.008-0.227-0.129-0.332-0.122
				c-0.108,0.008-0.206,0.149-0.313,0.157c-0.106,0-0.218-0.051-0.324-0.051c-0.103,0-0.208,0.012-0.311,0.012
				s-0.21,0.004-0.313,0.004s-0.208,0.205-0.311,0.205c-0.104,0-0.21-0.075-0.313-0.075s-0.208-0.008-0.311-0.008
				c-0.104,0-0.21,0.086-0.313,0.086c-0.102,0-0.208-0.157-0.313-0.157c-0.102,0-0.208-0.047-0.311-0.051
				c-0.102,0-0.208,0.02-0.312,0.02c-0.103,0-0.208-0.012-0.311-0.016c-0.103,0-0.21,0.142-0.316,0.142
				c-0.103,0-0.208-0.067-0.311-0.071c-0.102,0-0.207-0.259-0.309-0.259s-0.208,0.086-0.311,0.086s-0.206-0.094-0.313-0.094
				c-0.102,0-0.208-0.032-0.311-0.04c-0.104,0-0.214,0.259-0.316,0.259c-0.102,0-0.208,0.032-0.313,0.032
				c-0.102,0-0.204-0.11-0.31-0.11c-0.103,0-0.214,0.146-0.316,0.146c-0.103-0.004-0.205-0.173-0.307-0.177
				c-0.103-0.004-0.205-0.071-0.313-0.071c-0.106,0-0.212,0.169-0.314,0.169c-0.102-0.004-0.207-0.22-0.309-0.224
				c-0.102-0.004-0.212,0.149-0.314,0.141c-0.104-0.004-0.214,0.146-0.316,0.142c-0.102-0.008-0.208-0.023-0.313-0.031
				c-0.11,0-0.208-0.142-0.299-0.13c-0.11,0.012-0.261-0.106-0.348-0.075c-0.102,0.04-0.045,0.314-0.116,0.385
				c-0.065,0.067-0.13,0.102-0.163,0.204c-0.03,0.087-0.114,0.157-0.124,0.268c-0.008,0.09,0.083,0.188,0.086,0.299
				c0.004,0.102-0.238,0.22-0.234,0.322c0.004,0.102,0.301,0.2,0.305,0.302c0.004,0.103-0.202,0.212-0.196,0.318
				c0.004,0.103,0.171,0.205,0.175,0.307s-0.205,0.216-0.205,0.322c0.004,0.103,0.291,0.201,0.295,0.307
				c0.004,0.102-0.023,0.212-0.02,0.314s-0.226,0.212-0.222,0.322c0.004,0.102,0.065,0.208,0.071,0.311
				c0.004,0.102-0.165,0.216-0.161,0.318s0.328,0.196,0.332,0.307c0.004,0.102-0.265,0.212-0.265,0.318
				c0.004,0.102-0.038,0.208-0.034,0.318c0.004,0.102,0.242,0.204,0.246,0.307c0.004,0.102-0.151,0.212-0.151,0.314
				c0,0.103-0.049,0.208-0.049,0.314c0,0.103-0.004,0.212-0.004,0.314c0,0.103,0.261,0.205,0.261,0.307s-0.192,0.212-0.188,0.314
				c0,0.102,0.181,0.205,0.181,0.311s0.025,0.208,0.029,0.311c0,0.102-0.018,0.212-0.014,0.314c0,0.102-0.224,0.212-0.224,0.314
				s-0.059,0.212-0.059,0.314c0,0.11,0.181,0.204,0.181,0.314c0,0.102-0.159,0.212-0.155,0.314c0,0.102,0.151,0.204,0.155,0.314
				c0.004,0.102-0.028,0.204-0.024,0.306c0.004,0.103,0.061,0.212,0.061,0.314c0,0.103-0.033,0.208-0.033,0.314
				c0,0.106-0.02,0.212-0.02,0.314s0.229,0.205,0.229,0.307c0,0.126-0.267,0.236-0.271,0.338c-0.004,0.126,0.307,0.271,0.291,0.37
				c-0.02,0.134-0.177,0.244-0.216,0.33c-0.055,0.102-0.287,0-0.387,0.059c-0.084,0.051-0.106,0.196-0.232,0.224
				c-0.098,0.016-0.218-0.095-0.342-0.087c-0.102,0.016-0.196,0.22-0.318,0.228c-0.106,0.008-0.218-0.055-0.328-0.047
				c-0.106,0.008-0.201,0.24-0.309,0.244c-0.106,0.008-0.238-0.346-0.344-0.338c-0.106,0.008-0.208,0.094-0.314,0.094
				c-0.108,0.008-0.207,0.141-0.316,0.149c-0.106,0.008-0.208,0.075-0.32,0.079c-0.106,0.008-0.224-0.134-0.332-0.134
				c-0.106,0.008-0.201,0.228-0.307,0.236s-0.226-0.149-0.332-0.142c-0.106,0-0.214,0.036-0.32,0.04
				c-0.106,0.008-0.212,0.02-0.32,0.027c-0.106,0.012-0.22-0.075-0.326-0.067c-0.108,0.008-0.21,0.118-0.316,0.122
				c-0.106,0.008-0.23-0.208-0.336-0.201c-0.106,0.008-0.192,0.326-0.298,0.334c-0.108,0.008-0.23-0.232-0.342-0.224
				c-0.11,0.008-0.196,0.299-0.302,0.307c-0.106,0.008-0.226-0.122-0.333-0.118c-0.106,0.008-0.226-0.165-0.332-0.157
				c-0.106,0.008-0.204,0.134-0.311,0.142c-0.108,0.012-0.206,0.173-0.312,0.181c-0.106,0.008-0.216-0.043-0.325-0.036
				c-0.106,0.008-0.22-0.114-0.332-0.106c-0.106,0.008-0.196,0.287-0.302,0.295c-0.106,0.008-0.238-0.303-0.344-0.295
				c-0.108,0.008-0.21,0.094-0.316,0.102c-0.106,0.008-0.208,0.118-0.316,0.118C8.952,26.04,8.83,25.82,8.722,25.828
				c-0.106,0.008-0.192,0.307-0.299,0.314c-0.106,0-0.216-0.181-0.324-0.181C7.993,25.969,7.887,26,7.784,26.005
				c-0.108,0.004-0.218-0.051-0.324-0.043c-0.106,0.008-0.196,0.188-0.298,0.196c-0.108,0.016-0.193,0.095-0.297,0.118
				C6.763,26.295,6.574,26,6.472,26.032c-0.102,0.031-0.155,0.212-0.257,0.236c-0.106,0.023-0.173,0.275-0.275,0.291
				c-0.106,0.016-0.23-0.031-0.336-0.023c-0.106,0.016-0.226-0.11-0.332-0.102c-0.106,0-0.214-0.086-0.32-0.086s-0.208,0-0.314,0
				c-0.108,0-0.21-0.051-0.316-0.055S4.107,26.245,4,26.245c-0.11,0-0.192,0.346-0.291,0.361C3.603,26.622,3.5,26.559,3.406,26.59
				c-0.099,0.039-0.166,0.098-0.246,0.157c-0.086,0.063-0.192,0.071-0.263,0.157c-0.065,0.075,0.008,0.22-0.037,0.318
				c-0.045,0.09-0.057,0.161-0.081,0.263c-0.026,0.102-0.354,0.146-0.366,0.251c-0.008,0.098,0.201,0.212,0.205,0.322
				c0.004,0.11-0.212,0.225-0.208,0.334c0.004,0.114,0.11,0.209,0.114,0.318c0.004,0.11-0.045,0.221-0.042,0.326
				c0.006,0.106,0.177,0.209,0.181,0.314c0.004,0.106-0.061,0.217-0.057,0.326c0.004,0.106,0.143,0.209,0.151,0.314
				c0.004,0.106-0.098,0.221-0.09,0.33c0.004,0.103-0.188,0.225-0.179,0.33c0.004,0.106,0.043,0.213,0.053,0.318
				c0.004,0.106,0.057,0.217,0.061,0.318c0.004,0.11,0.151,0.209,0.159,0.318c0.008,0.11,0.128,0.209,0.132,0.314
				c0.004,0.106-0.11,0.225-0.102,0.326c0.008,0.11,0.11,0.213,0.118,0.318c0.01,0.106-0.265,0.232-0.257,0.334
				c0.008,0.11-0.016,0.217-0.008,0.322c0.008,0.106,0.069,0.209,0.073,0.314c0.01,0.11,0.136,0.205,0.144,0.314
				c0.01,0.103,0.131,0.205,0.135,0.307c0.008,0.11-0.253,0.232-0.246,0.338c0.008,0.11-0.029,0.221-0.023,0.322
				c0.008,0.11,0.031,0.217,0.04,0.322c0.01,0.106,0.185,0.201,0.188,0.307c0.01,0.11,0.075,0.213,0.079,0.314
				c0.008,0.11-0.09,0.225-0.083,0.33c0.008,0.106-0.122,0.221-0.114,0.33c0.008,0.103,0.091,0.205,0.099,0.314
				c0.008,0.106,0.016,0.213,0.023,0.318c0.01,0.106,0.263,0.197,0.271,0.303c0.008,0.11-0.053,0.221-0.045,0.322
				c0.008,0.11-0.122,0.225-0.114,0.33c0.008,0.106,0.042,0.213,0.045,0.322c0.008,0.103,0.13,0.205,0.136,0.311
				c0.008,0.106-0.153,0.221-0.144,0.326c0.008,0.11,0.273,0.197,0.281,0.307c0.01,0.103-0.336,0.232-0.332,0.338
				c0.01,0.106,0.271,0.197,0.279,0.303c0.01,0.106-0.061,0.217-0.053,0.326c0.008,0.103,0.053,0.205,0.057,0.314
				c0.006,0.106-0.028,0.217-0.02,0.322c0.008,0.11,0.169,0.205,0.177,0.314c0.008,0.103-0.346,0.232-0.336,0.338
				c0.008,0.106,0.118,0.205,0.126,0.314c0.008,0.103,0.255,0.197,0.259,0.307c0.004,0.103,0.049,0.213,0.053,0.318
				c0.004,0.106-0.299,0.232-0.295,0.334c0.004,0.11,0.322,0.197,0.332,0.307c0.004,0.106-0.242,0.225-0.238,0.33
				c0.004,0.106,0.212,0.201,0.22,0.307c0.004,0.11-0.185,0.229-0.175,0.334c0.004,0.106,0.057,0.209,0.061,0.314
				c0.004,0.106,0.065,0.209,0.069,0.318c0.004,0.11-0.081,0.217-0.073,0.311c0.004,0.11-0.12,0.221-0.112,0.314
				c0.01,0.114,0.01,0.225,0.018,0.318c0.012,0.118,0.22,0.196,0.25,0.283c0.033,0.11,0.065,0.196,0.135,0.264
				c0.065,0.066,0.197-0.06,0.311-0.028c0.086,0.021,0.14,0.186,0.26,0.193c0.09,0.008,0.192,0.012,0.302,0.016
				c0.094,0.004,0.197,0.016,0.309,0.016c0.094,0,0.197,0.012,0.307,0.012c0.106,0,0.21,0.039,0.316,0.039s0.208,0.149,0.314,0.149
				c0.108,0,0.21-0.228,0.316-0.228s0.208,0.235,0.316,0.235c0.106,0,0.208-0.008,0.314-0.008c0.106,0,0.21-0.346,0.316-0.346
				c0.106,0,0.208,0.142,0.314,0.142c0.108,0,0.21,0.188,0.316,0.188c0.106,0,0.208-0.318,0.316-0.318
				c0.106,0,0.208,0.177,0.314,0.177c0.108,0,0.21-0.188,0.316-0.188c0.106,0,0.208,0.318,0.316,0.318
				c0.106,0,0.208-0.099,0.314-0.099c0.106,0,0.21-0.063,0.316-0.063c0.106,0,0.208-0.181,0.314-0.181
				c0.108,0,0.21,0.326,0.316,0.326c0.106,0,0.208-0.248,0.316-0.248c0.106,0,0.208,0.244,0.314,0.244c0.108,0,0.21,0.02,0.316,0.02
				s0.208-0.066,0.316-0.066c0.106,0,0.208-0.142,0.314-0.142s0.21,0.235,0.316,0.235s0.208-0.283,0.314-0.283
				c0.108,0,0.21,0.142,0.316,0.142c0.106,0,0.208-0.109,0.316-0.109c0.106,0,0.208,0.212,0.314,0.212
				c0.108,0,0.21-0.118,0.316-0.118c0.106,0,0.208-0.173,0.316-0.173c0.106,0,0.208,0.212,0.314,0.212
				c0.106,0,0.21-0.165,0.316-0.165c0.106,0,0.208,0.205,0.314,0.205c0.108,0,0.21-0.087,0.316-0.087
				c0.106,0,0.208-0.086,0.316-0.086c0.106,0,0.208,0.173,0.314,0.173c0.108,0,0.21-0.165,0.316-0.165
				c0.106,0,0.208,0.173,0.316,0.173c0.106,0,0.208-0.095,0.314-0.095s0.21-0.11,0.316-0.11S17.451,46.387,17.557,46.387z
				 M52.021,23.521c-0.059-0.086-0.043-0.196-0.103-0.283c-0.059-0.086-0.243-0.086-0.299-0.169
				c-0.063-0.086-0.157-0.149-0.22-0.236s0.087-0.314,0.031-0.401c-0.059-0.086-0.377,0.008-0.436-0.079
				c-0.063-0.086,0.177-0.377,0.117-0.464c-0.059-0.086-0.2-0.114-0.263-0.196c-0.056-0.086-0.11-0.177-0.165-0.264
				c-0.06-0.086-0.161-0.137-0.225-0.224c-0.059-0.086-0.22-0.094-0.283-0.181c-0.059-0.086-0.039-0.22-0.102-0.307
				c-0.06-0.083-0.225-0.086-0.287-0.169s-0.063-0.208-0.13-0.283c-0.066-0.083-0.035-0.248-0.098-0.318
				c-0.071-0.079-0.221-0.079-0.291-0.153c-0.075-0.075-0.146-0.146-0.229-0.205c-0.078-0.067-0.043-0.303-0.129-0.361
				c-0.087-0.059-0.24-0.016-0.335-0.059c-0.094-0.047-0.181-0.142-0.282-0.173c-0.095-0.023-0.252,0.196-0.354,0.181
				c-0.102-0.016-0.177-0.232-0.282-0.236c-0.099-0.004-0.221-0.125-0.33-0.118c-0.095,0.008-0.182,0.212-0.291,0.232
				c-0.106,0.02-0.244-0.106-0.354-0.083c-0.11,0.016-0.153,0.393-0.26,0.409c-0.11,0.023-0.244-0.126-0.357-0.103
				c-0.11,0.02-0.248-0.145-0.358-0.129c-0.109,0.02-0.181,0.275-0.29,0.291c-0.114,0.012-0.244-0.169-0.354-0.161
				c-0.109,0.016-0.224-0.031-0.334-0.023c-0.109,0.008-0.2,0.366-0.311,0.37c-0.109,0.004-0.228-0.094-0.342-0.09
				c-0.105,0-0.216-0.11-0.322-0.11c-0.105,0-0.216-0.102-0.326-0.102c-0.102,0-0.216,0.153-0.326,0.153
				c-0.105,0-0.216-0.032-0.326-0.032c-0.103-0.004-0.212,0.087-0.326,0.083c-0.106-0.004-0.208-0.231-0.314-0.231
				c-0.106-0.008-0.216,0.051-0.326,0.047c-0.103-0.004-0.22,0.149-0.33,0.142c-0.106,0-0.22,0.023-0.322,0.02
				c-0.11-0.004-0.204-0.224-0.318-0.224c-0.106-0.008-0.212-0.043-0.322-0.047c-0.106-0.004-0.231,0.294-0.334,0.291
				c-0.11-0.004-0.212-0.157-0.322-0.157c-0.106-0.008-0.22,0.043-0.322,0.04c-0.11-0.004-0.212-0.275-0.322-0.279
				c-0.103,0-0.204,0.256-0.314,0.271c-0.106,0.016-0.268-0.149-0.365-0.118c-0.106,0.04-0.122,0.268-0.209,0.322
				c-0.102,0.071-0.212,0.142-0.314,0.185c-0.109,0.051-0.235,0.133-0.346,0.153c-0.118,0.016-0.271,0.031-0.389,0.008
				c-0.106-0.016-0.157-0.283-0.271-0.33c-0.099-0.04-0.322,0.133-0.433,0.075c-0.086-0.051-0.129-0.161-0.216-0.197
				c-0.099-0.043-0.146-0.244-0.24-0.263c-0.102-0.02-0.212,0.212-0.306,0.22c-0.103,0-0.217-0.122-0.307-0.087
				c-0.095,0.036-0.13,0.146-0.209,0.212c-0.074,0.063-0.094,0.138-0.153,0.224c-0.051,0.079-0.251,0.086-0.29,0.185
				c-0.032,0.09-0.079,0.197-0.087,0.299c-0.016,0.094,0.181,0.205,0.181,0.314c0,0.102-0.228,0.22-0.224,0.326
				s0.181,0.208,0.185,0.314c0.008,0.106-0.012,0.216-0.004,0.326c0.008,0.102-0.11,0.22-0.106,0.326s0.209,0.208,0.209,0.318
				c0.004,0.102,0.051,0.22,0.051,0.326s-0.031,0.22-0.039,0.326c-0.008,0.126-0.182,0.228-0.165,0.322
				c0.008,0.122,0.247,0.13,0.29,0.216c0.056,0.098-0.031,0.255,0.071,0.303c0.086,0.039,0.192,0.023,0.314,0.039
				c0.102,0.016,0.204,0.047,0.322,0.043c0.105-0.004,0.208,0,0.314-0.004c0.109-0.004,0.212,0.125,0.322,0.122
				c0.102-0.004,0.204-0.161,0.311-0.161c0.105-0.008,0.208-0.094,0.314-0.094c0.105-0.008,0.224,0.299,0.326,0.299
				c0.102-0.008,0.204-0.11,0.311-0.11c0.105,0,0.208-0.231,0.311-0.231c0.105,0,0.212,0.248,0.322,0.248
				c0.102,0,0.204-0.04,0.314-0.04c0.105,0,0.212-0.157,0.318-0.157c0.105,0.008,0.216-0.094,0.318-0.094
				c0.109,0.008,0.212,0.023,0.322,0.027c0.105,0.008,0.188,0.35,0.29,0.358c0.106,0.008,0.229-0.205,0.331-0.189
				c0.102,0.008,0.196,0.138,0.298,0.142c0.103,0.004,0.205,0.09,0.307,0.086c0.106,0,0.213-0.075,0.311-0.079
				c0.103-0.004,0.213,0.04,0.311,0.032c0.099-0.008,0.196-0.103,0.299-0.118c0.103-0.012,0.212,0.04,0.314,0.024
				c0.103-0.008,0.188-0.13,0.291-0.142c0.102-0.012,0.204-0.012,0.307-0.024c0.102-0.016,0.196-0.083,0.299-0.094
				c0.102-0.016,0.212,0.126,0.314,0.122c0.102-0.008,0.204,0.012,0.306,0.008c0.103-0.004,0.197-0.263,0.299-0.263
				c0.106,0,0.201,0.22,0.303,0.228c0.103,0.008,0.213-0.125,0.314-0.11c0.106,0.016,0.209,0.079,0.318,0.086
				c0.103,0.016,0.205,0.138,0.311,0.149c0.106,0.008,0.229-0.157,0.334-0.149c0.11,0.008,0.221-0.067,0.322-0.059
				c0.11,0.004,0.213,0.114,0.322,0.118c0.106,0.004,0.213,0.027,0.322,0.027c0.11,0,0.213-0.188,0.326-0.188
				c0.106,0,0.217,0.248,0.322,0.244c0.106,0,0.217,0.031,0.326,0.023c0.106-0.004,0.213-0.137,0.318-0.142
				c0.106-0.004,0.209-0.118,0.318-0.118c0.11-0.008,0.213-0.047,0.322-0.051c0.106-0.004,0.213-0.02,0.322-0.027
				c0.106-0.008,0.229,0.236,0.339,0.232c0.105-0.004,0.22,0.13,0.33,0.13c0.105-0.008,0.204-0.26,0.314-0.268
				c0.102-0.008,0.212,0,0.322-0.008c0.105,0,0.216,0.071,0.326,0.063c0.105-0.004,0.216-0.126,0.318-0.13
				c0.109-0.004,0.224,0.24,0.33,0.24c0.113-0.008,0.22-0.232,0.338-0.236c0.114-0.004,0.231,0.149,0.346,0.142
				C51.825,23.635,51.911,23.525,52.021,23.521z M18.252,21.968c0-0.11,0.086-0.22,0.086-0.33c0-0.106-0.155-0.216-0.155-0.326
				c0-0.114-0.041-0.232-0.033-0.334c0.008-0.114,0.263-0.208,0.259-0.303c-0.004-0.114-0.324-0.153-0.354-0.24
				c-0.032-0.102,0.21-0.374,0.14-0.437c-0.069-0.059-0.258-0.043-0.37-0.066c-0.084-0.016-0.205-0.032-0.318-0.024
				c-0.09,0.004-0.192,0.075-0.305,0.094c-0.102,0.024-0.183,0.165-0.287,0.181c-0.103,0.016-0.22-0.055-0.322-0.04
				c-0.104,0.016-0.189,0.157-0.293,0.173c-0.102,0.008-0.216-0.043-0.318-0.031s-0.222-0.106-0.324-0.098s-0.197,0.122-0.303,0.137
				c-0.104,0.008-0.21,0.008-0.316,0.016c-0.102,0.008-0.222-0.205-0.324-0.197c-0.102,0-0.2,0.118-0.307,0.122
				c-0.106,0.004-0.214-0.051-0.32-0.043c-0.106,0-0.204,0.259-0.313,0.263c-0.106,0.004-0.216-0.204-0.322-0.2
				c-0.108,0.004-0.214-0.122-0.32-0.118c-0.106,0.004-0.208,0.197-0.316,0.201c-0.106,0.004-0.212-0.146-0.318-0.146
				c-0.108,0-0.206,0.37-0.313,0.37c-0.106,0-0.212-0.165-0.32-0.165c-0.106,0.008-0.216-0.173-0.318-0.169
				c-0.108,0-0.21,0.248-0.316,0.248c-0.106,0-0.218-0.197-0.324-0.197c-0.106,0.008-0.212-0.047-0.318-0.047
				c-0.108,0-0.206,0.354-0.312,0.354c-0.106,0-0.212-0.094-0.32-0.094C9.85,20.53,9.74,20.42,9.638,20.42
				c-0.104,0.008-0.218-0.095-0.325-0.086c-0.106,0-0.206,0.165-0.312,0.173c-0.106,0-0.212-0.02-0.318-0.016
				c-0.112,0.008-0.214,0.11-0.324,0.118C8.246,20.616,8.112,20.412,8,20.428c-0.11,0.016-0.212,0.094-0.324,0.118
				c-0.11,0.024-0.175,0.201-0.281,0.236c-0.108,0.032-0.194,0.086-0.296,0.126c-0.103,0.043-0.291-0.103-0.389-0.051
				c-0.094,0.051-0.208,0.083-0.295,0.138c-0.086,0.059,0.008,0.369-0.079,0.432c-0.081,0.067-0.253,0.016-0.332,0.086
				c-0.077,0.071-0.118,0.177-0.196,0.251c-0.077,0.071-0.344-0.047-0.419,0.032c-0.073,0.079,0.03,0.322-0.043,0.401
				c-0.075,0.079-0.293,0.016-0.366,0.09c-0.071,0.075,0.004,0.287-0.067,0.362c-0.068,0.074-0.125,0.153-0.196,0.231
				c-0.069,0.075-0.098,0.181-0.167,0.26c-0.067,0.079-0.12,0.165-0.185,0.244c-0.065,0.079-0.324,0-0.385,0.079
				c-0.067,0.075,0.077,0.318,0.016,0.401c-0.061,0.079-0.185,0.114-0.246,0.196c-0.061,0.079-0.267,0.063-0.324,0.146
				c-0.065,0.098,0.094,0.311,0.053,0.397c-0.049,0.118-0.208,0.165-0.212,0.263c-0.004,0.122,0.094,0.185,0.147,0.271
				c0.053,0.086,0.124,0.098,0.23,0.157c0.086,0.043,0.122,0.244,0.242,0.267c0.098,0.023,0.216,0.055,0.336,0.055
				c0.131,0.004,0.257-0.201,0.389-0.208c0.131-0.008,0.275,0.208,0.407,0.197c0.106-0.008,0.2-0.185,0.307-0.193
				c0.106-0.008,0.214,0.012,0.32,0.004c0.106-0.008,0.22,0.11,0.328,0.106c0.106-0.008,0.2-0.212,0.302-0.216
				c0.106-0.012,0.208-0.063,0.316-0.071c0.106-0.008,0.212,0.012,0.318,0.004c0.108-0.008,0.226,0.157,0.333,0.149
				c0.108-0.008,0.196-0.248,0.304-0.251c0.106-0.008,0.224,0.169,0.333,0.157c0.106-0.008,0.208-0.055,0.314-0.059
				c0.108-0.008,0.214,0.016,0.32,0.008c0.106-0.008,0.212-0.008,0.32-0.016c0.106-0.008,0.22,0.118,0.329,0.11
				c0.106-0.008,0.2-0.169,0.306-0.177c0.106-0.008,0.205-0.098,0.313-0.106c0.106-0.008,0.232,0.291,0.34,0.283
				c0.106-0.008,0.204-0.114,0.31-0.122c0.106-0.008,0.197-0.244,0.305-0.251c0.106-0.008,0.234,0.235,0.34,0.228
				c0.106-0.008,0.208-0.055,0.314-0.063c0.108-0.008,0.203-0.177,0.309-0.185c0.106-0.008,0.205-0.122,0.311-0.129
				c0.108-0.008,0.214-0.008,0.32-0.016c0.106-0.008,0.238,0.318,0.344,0.307c0.108-0.008,0.196-0.232,0.304-0.24
				c0.106-0.008,0.22,0.106,0.328,0.099c0.106-0.008,0.22,0.066,0.327,0.059c0.108-0.012,0.21-0.086,0.316-0.094
				c0.106-0.012,0.218,0.031,0.324,0.023c0.106-0.008,0.204-0.098,0.31-0.106c0.108-0.008,0.218,0.047,0.325,0.04
				c0.106-0.012,0.204-0.126,0.312-0.134c0.106-0.008,0.212-0.004,0.318-0.012c0.108-0.012,0.21-0.079,0.316-0.09
				c0.11-0.016,0.234,0.125,0.336,0.118c0.116-0.012,0.222,0.004,0.324-0.008c0.114-0.012,0.188-0.279,0.287-0.291
				c0.114-0.016,0.253,0.181,0.348,0.165c0.116-0.023,0.188-0.181,0.283-0.212c0.116-0.032,0.23-0.024,0.313-0.071
				c0.098-0.055,0.269-0.051,0.336-0.134c0.061-0.079-0.033-0.259,0.004-0.369c0.034-0.095-0.025-0.197-0.004-0.314
				c0.012-0.095,0.132-0.185,0.14-0.299c0.008-0.098,0.027-0.205,0.031-0.322c0.004-0.094-0.183-0.205-0.183-0.314
				c0-0.106,0.25-0.212,0.25-0.322C18.339,22.185,18.258,22.078,18.252,21.968z M19.233,12.127c0.106,0,0.196,0.079,0.302,0.071
				c0.108-0.004,0.21-0.157,0.316-0.165c0.106,0,0.212-0.051,0.32-0.055c0.106-0.004,0.22,0.244,0.328,0.244
				c0.106-0.008,0.205-0.322,0.311-0.326c0.106-0.004,0.226,0.357,0.333,0.354c0.106-0.004,0.208-0.106,0.316-0.114
				c0.106,0,0.212,0.008,0.318,0c0.108,0,0.214-0.059,0.32-0.059c0.106-0.004,0.21-0.138,0.316-0.138
				c0.106-0.008,0.216,0.087,0.325,0.079c0.106,0,0.208-0.133,0.314-0.137c0.106-0.004,0.214,0.059,0.32,0.059
				c0.106,0,0.216,0.126,0.325,0.126c0.106-0.004,0.208-0.11,0.314-0.118c0.108,0,0.214,0,0.32,0
				c0.106-0.008,0.222,0.208,0.325,0.204c0.106-0.008,0.208-0.118,0.314-0.118c0.108-0.008,0.214,0.047,0.32,0.043
				c0.106-0.004,0.205-0.263,0.313-0.267c0.106-0.004,0.22,0.2,0.322,0.2c0.108-0.004,0.218,0.126,0.324,0.118
				c0.108,0,0.207-0.197,0.313-0.197c0.106-0.008,0.216,0.142,0.324,0.138c0.106-0.004,0.201-0.369,0.307-0.369
				c0.106-0.004,0.218,0.161,0.324,0.153c0.106,0,0.216,0.173,0.324,0.173c0.106-0.008,0.205-0.26,0.311-0.26
				c0.106-0.008,0.218,0.189,0.324,0.189s0.212,0.051,0.32,0.047c0.105-0.004,0.2-0.354,0.307-0.361c0.105,0,0.218,0.094,0.32,0.094
				c0.102-0.008,0.216,0.102,0.324,0.102c0.105-0.008,0.216,0.094,0.318,0.086c0.107,0,0.21-0.165,0.313-0.165
				c0.102,0,0.212,0.02,0.32,0.016c0.105-0.008,0.208-0.102,0.314-0.102c0.107-0.008,0.218,0.216,0.324,0.212
				c0.105-0.004,0.208-0.071,0.316-0.071c0.105,0,0.208-0.165,0.31-0.165c0.106-0.008,0.211-0.04,0.316-0.04
				c0.106-0.004,0.215,0.205,0.324,0.201c0.106-0.004,0.213,0.027,0.318,0.027c0.106-0.008,0.106-0.283,0.217-0.283
				c0.039-0.086,0.138-0.008,0.173-0.095c-0.071-0.086-0.165-0.118-0.236-0.196c-0.07-0.086,0.071-0.342,0.004-0.424
				c-0.07-0.083-0.326-0.012-0.396-0.094s0.016-0.295-0.055-0.377c-0.071-0.083-0.291-0.04-0.36-0.126
				c-0.07-0.079-0.147-0.153-0.218-0.24c-0.068-0.083-0.177-0.133-0.246-0.216c-0.07-0.083-0.15-0.149-0.226-0.236
				c-0.061-0.063,0.066-0.303,0.004-0.377c-0.061-0.079-0.318,0.016-0.381-0.059c-0.065-0.075-0.065-0.196-0.132-0.263
				c-0.073-0.071-0.031-0.279-0.106-0.33c-0.09-0.059-0.237,0.129-0.324,0.129c-0.105,0-0.212-0.145-0.318-0.145
				c-0.107,0.008-0.21,0.086-0.32,0.094c-0.105,0.008-0.208,0.051-0.316,0.059c-0.105,0.008-0.224-0.161-0.332-0.153
				c-0.106,0.008-0.216,0-0.322,0.008c-0.108,0.008-0.192,0.22-0.301,0.232c-0.105,0.012-0.237-0.205-0.344-0.193
				c-0.105,0.012-0.196,0.193-0.303,0.205c-0.106,0.012-0.218-0.004-0.324,0.008c-0.106,0.016-0.226-0.103-0.332-0.09
				c-0.106,0.012-0.192,0.216-0.299,0.232c-0.108,0.012-0.21,0.07-0.316,0.079c-0.09,0.008-0.216-0.036-0.306-0.051
				s-0.161-0.201-0.251-0.205c-0.099-0.004-0.205,0.22-0.303,0.22c-0.099-0.004-0.193-0.188-0.291-0.192s-0.196,0.039-0.295,0.039
				c-0.098,0-0.196-0.035-0.294-0.039c-0.09,0-0.181-0.004-0.275,0.004c-0.09,0.004-0.185-0.118-0.275-0.118
				c-0.09,0.004-0.181,0.153-0.271,0.146c-0.11-0.016-0.224,0.051-0.328,0.043c-0.11-0.012-0.183-0.334-0.291-0.342
				c-0.11-0.012-0.228,0.079-0.332,0.071c-0.11-0.008-0.228,0.212-0.336,0.208c-0.11-0.004-0.212-0.255-0.314-0.255
				c-0.112,0-0.222,0.043-0.328,0.047c-0.112,0.004-0.206,0.173-0.309,0.185c-0.11,0.012-0.188,0.129-0.291,0.153
				c-0.106,0.024-0.193,0.036-0.295,0.071c-0.102,0.032-0.328-0.236-0.422-0.188c-0.098,0.043-0.086,0.291-0.177,0.35
				C20.743,9.187,20.581,9.156,20.5,9.23c-0.079,0.071-0.222,0.098-0.292,0.185c-0.065,0.079-0.084,0.212-0.147,0.307
				c-0.057,0.086-0.159,0.157-0.216,0.255c-0.049,0.09-0.029,0.224-0.075,0.326c-0.045,0.094-0.147,0.169-0.188,0.271
				c-0.042,0.095,0.018,0.232-0.02,0.342c-0.038,0.098-0.086,0.192-0.12,0.298c-0.031,0.099-0.008,0.216-0.035,0.322
				c-0.03,0.103-0.203,0.166-0.23,0.271C19.155,11.903,19.259,12.025,19.233,12.127z"/>
		</g>
		<g>
			<path d="M22.03,19.744c0.008-0.102-0.12-0.188-0.108-0.299c0.014-0.106,0.108-0.204,0.124-0.31
				c0.016-0.106-0.049-0.224-0.03-0.334c0.022-0.102,0.079-0.204,0.099-0.311c0.025-0.106-0.155-0.263-0.126-0.365
				c0.027-0.11,0.409-0.11,0.442-0.208c0.033-0.102,0.053-0.2,0.09-0.302c0.041-0.103-0.197-0.314-0.155-0.417
				c0.045-0.094,0.181-0.157,0.23-0.251c0.049-0.098,0.163-0.157,0.216-0.251c0.057-0.094-0.061-0.307,0.004-0.393
				c0.067-0.086,0.21-0.122,0.279-0.204c0.071-0.079,0.275-0.036,0.352-0.114c0.079-0.075,0.014-0.311,0.099-0.381
				C23.627,15.53,23.91,15.735,24,15.68c0.09-0.059,0.03-0.361,0.128-0.409c0.094-0.051,0.279,0.086,0.377,0.043
				c0.098-0.043,0.094-0.374,0.196-0.413c0.102-0.032,0.224-0.047,0.332-0.071c0.103-0.024,0.266,0.244,0.374,0.228
				c0.106-0.016,0.179-0.318,0.291-0.327c0.106-0.012,0.224,0.264,0.336,0.264c0.106,0,0.212-0.079,0.324-0.071
				c0.106,0.004,0.216-0.04,0.326-0.032c0.098,0.008,0.206-0.059,0.305-0.051c0.098,0.008,0.192,0.059,0.291,0.067
				c0.099,0.012,0.189,0.137,0.287,0.149c0.098,0.016,0.234-0.173,0.328-0.157c0.098,0.02,0.188,0.122,0.287,0.145
				c0.099,0.028,0.159,0.173,0.254,0.208c0.098,0.039,0.144,0.134,0.229,0.185c0.09,0.055,0.212,0.028,0.283,0.095
				c0.068,0.07,0.102,0.181,0.177,0.255c0.068,0.071,0.237,0.055,0.307,0.129c0.068,0.075,0.147,0.149,0.214,0.224
				c0.064,0.079,0.031,0.24,0.099,0.322c0.064,0.079,0.269,0.047,0.332,0.134c0.061,0.083-0.104,0.33-0.046,0.417
				c0.058,0.086,0.299,0.047,0.353,0.134c0.053,0.086-0.079,0.283-0.03,0.369c0.05,0.09,0.351,0.055,0.392,0.149
				c0.045,0.094-0.041,0.244-0.01,0.342c0.037,0.099,0.185,0.166,0.21,0.264c0.023,0.102,0.008,0.22,0.02,0.322
				s-0.09,0.212-0.09,0.314c0.004,0.106-0.095,0.2-0.103,0.303c-0.008,0.102,0.144,0.22,0.128,0.322
				c-0.018,0.106-0.041,0.208-0.067,0.31c-0.023,0.095,0.112,0.248,0.079,0.35c-0.029,0.098-0.39,0.086-0.427,0.185
				c-0.037,0.094-0.118,0.165-0.159,0.263c-0.041,0.095-0.086,0.177-0.136,0.271c-0.045,0.094,0.008,0.228-0.045,0.318
				c-0.049,0.09,0.037,0.263-0.02,0.35c-0.055,0.086-0.248,0.086-0.305,0.173s-0.041,0.224-0.103,0.307
				c-0.061,0.079-0.064,0.216-0.135,0.295c-0.065,0.083-0.318-0.004-0.39,0.075c-0.068,0.079-0.045,0.236-0.118,0.311
				c-0.074,0.075-0.111,0.188-0.188,0.255c-0.078,0.067-0.192,0.094-0.271,0.157c-0.083,0.067-0.215,0.063-0.295,0.118
				c-0.091,0.055-0.079,0.275-0.169,0.326c-0.095,0.051-0.291-0.122-0.382-0.086c-0.098,0.043-0.181,0.051-0.279,0.075
				c-0.106,0.024-0.171,0.228-0.269,0.228c-0.108,0-0.214,0.016-0.316,0.016c-0.106,0-0.212-0.008-0.316-0.012
				c-0.106-0.004-0.197-0.188-0.303-0.196s-0.246,0.283-0.348,0.271c-0.106-0.012-0.21-0.083-0.313-0.102
				c-0.103-0.016-0.23,0.031-0.332,0.008c-0.103-0.023-0.136-0.338-0.238-0.366c-0.103-0.027-0.283,0.189-0.381,0.157
				c-0.098-0.035-0.151-0.216-0.246-0.255c-0.099-0.039-0.208-0.055-0.303-0.102c-0.094-0.047-0.251-0.004-0.34-0.063
				c-0.09-0.055-0.071-0.275-0.157-0.342c-0.081-0.067-0.238-0.051-0.314-0.122c-0.083-0.071-0.169-0.157-0.238-0.24
				c-0.071-0.083-0.045-0.248-0.108-0.334c-0.061-0.094-0.298-0.079-0.352-0.173s0.037-0.279-0.012-0.374
				c-0.049-0.098-0.09-0.2-0.136-0.303c-0.045-0.102-0.053-0.212-0.094-0.314c-0.042-0.103-0.069-0.208-0.106-0.311
				c-0.042-0.106-0.157-0.181-0.193-0.279c-0.041-0.106-0.057-0.216-0.094-0.311C21.959,19.968,22.071,19.83,22.03,19.744z
				 M26.447,22.927c0.112,0,0.218-0.149,0.324-0.157s0.23,0.059,0.332,0.04c0.106-0.016,0.197-0.118,0.305-0.146
				c0.106-0.028,0.22-0.024,0.318-0.059c0.102-0.039,0.116-0.275,0.214-0.318c0.098-0.043,0.36,0.232,0.454,0.177
				c0.095-0.055,0.189-0.133,0.279-0.196s-0.008-0.37,0.074-0.433c0.081-0.071,0.221-0.071,0.295-0.145
				c0.073-0.079,0.196-0.114,0.266-0.197c0.07-0.083-0.043-0.295,0.014-0.381c0.061-0.09,0.188-0.125,0.237-0.22
				c0.05-0.095,0.258-0.114,0.299-0.212c0.042-0.098-0.127-0.275-0.094-0.377s0.381-0.125,0.4-0.228
				c0.021-0.106-0.241-0.263-0.228-0.369c0.012-0.106,0.224-0.201,0.224-0.314c0-0.11-0.314-0.205-0.322-0.314
				c-0.01-0.11,0-0.205-0.018-0.311c-0.016-0.106,0.256-0.263,0.23-0.374c-0.024-0.106-0.337-0.125-0.374-0.228
				c-0.037-0.102,0.185-0.306,0.14-0.401c-0.045-0.102-0.163-0.169-0.216-0.263c-0.056-0.094-0.157-0.157-0.219-0.248
				c-0.061-0.086-0.188-0.118-0.257-0.205c-0.071-0.083-0.108-0.185-0.185-0.259c-0.079-0.079-0.083-0.236-0.165-0.303
				c-0.081-0.066-0.287,0.036-0.378-0.027c-0.09-0.063-0.125-0.185-0.224-0.236c-0.095-0.051-0.136-0.212-0.234-0.251
				c-0.099-0.047-0.181-0.153-0.283-0.185c-0.102-0.036-0.238,0.023-0.344-0.004c-0.104-0.024-0.203-0.103-0.313-0.118
				c-0.106-0.016-0.23,0.102-0.34,0.094c-0.106-0.008-0.21-0.008-0.32-0.008c-0.106,0-0.22-0.125-0.329-0.118
				c-0.106,0.008-0.188,0.204-0.294,0.22c-0.106,0.02-0.275-0.231-0.377-0.204c-0.102,0.031-0.144,0.275-0.246,0.307
				c-0.102,0.039-0.287-0.11-0.381-0.067c-0.098,0.043-0.061,0.35-0.155,0.401s-0.255-0.004-0.34,0.059
				c-0.086,0.063-0.094,0.22-0.177,0.291s-0.185,0.106-0.259,0.181c-0.077,0.079-0.228,0.079-0.299,0.165
				c-0.069,0.079-0.212,0.11-0.275,0.204c-0.061,0.086,0.022,0.268-0.031,0.362s-0.102,0.188-0.147,0.283
				c-0.045,0.103,0.077,0.251,0.045,0.354c-0.034,0.102-0.395,0.11-0.415,0.22c-0.026,0.103-0.091,0.22-0.103,0.327
				c-0.014,0.106-0.029,0.231-0.029,0.342c0,0.102,0.116,0.212,0.124,0.314c0.008,0.102,0.181,0.188,0.193,0.291
				c0.016,0.103-0.124,0.232-0.098,0.331c0.023,0.102,0.143,0.181,0.175,0.275c0.033,0.098,0.14,0.165,0.177,0.259
				c0.042,0.094-0.14,0.295-0.09,0.385c0.049,0.09,0.214,0.122,0.271,0.208c0.057,0.086,0.163,0.137,0.226,0.216
				c0.061,0.083,0.09,0.197,0.159,0.268c0.069,0.079,0.09,0.212,0.169,0.279c0.077,0.071,0.277-0.012,0.36,0.051
				c0.083,0.059,0.029,0.318,0.12,0.377c0.084,0.051,0.179,0.125,0.27,0.173c0.09,0.043,0.271-0.086,0.369-0.047
				c0.094,0.036,0.193,0.055,0.291,0.09c0.098,0.032,0.192,0.059,0.295,0.083c0.098,0.024,0.173,0.212,0.275,0.228
				s0.234-0.279,0.34-0.271C26.255,22.605,26.345,22.927,26.447,22.927z"/>
		</g>
		<g>
			<path d="M45.435,34.741c0-0.118-0.165-0.228-0.165-0.322c0-0.122,0.134-0.224,0.138-0.322c0.012-0.122-0.021-0.216,0-0.311
				c0.02-0.122,0.086-0.165,0.137-0.252c0.048-0.094,0.024-0.181,0.114-0.247c0.075-0.06,0.146-0.103,0.264-0.146
				c0.086-0.035,0.188-0.035,0.307-0.071c0.094-0.027,0.173-0.141,0.287-0.169c0.098-0.027,0.161-0.224,0.278-0.247
				c0.095-0.02,0.236,0.126,0.322,0.082c0.091-0.051,0.165-0.133,0.256-0.177c0.094-0.043,0.188-0.086,0.279-0.121
				c0.102-0.032,0.212-0.017,0.311-0.04c0.102-0.02,0.2-0.105,0.302-0.105c0.103,0,0.17,0.216,0.271,0.239
				c0.095,0.023,0.161,0.043,0.256,0.095c0.086,0.043,0.322-0.126,0.404-0.056c0.075,0.063,0.153,0.149,0.225,0.236
				c0.066,0.078-0.122,0.326-0.071,0.433c0.044,0.09,0.401,0.07,0.433,0.177c0.031,0.098-0.087,0.255-0.063,0.365
				c0.023,0.103,0.181,0.196,0.188,0.307c0.016,0.106-0.314,0.243-0.307,0.354c0.004,0.11,0.039,0.204,0.039,0.314
				c-0.008,0.11,0.138,0.228,0.126,0.33c-0.012,0.11-0.229,0.181-0.252,0.283c-0.023,0.11,0.299,0.334,0.264,0.429
				c-0.043,0.105-0.169,0.224-0.232,0.298c-0.07,0.083-0.228,0.182-0.342,0.225c-0.102,0.043-0.255,0.008-0.369,0.031
				c-0.114,0.031-0.248-0.051-0.357-0.031c-0.095,0.023-0.204-0.031-0.311-0.023c-0.103,0.008-0.196,0.094-0.303,0.098
				c-0.103,0.008-0.188,0.209-0.291,0.225c-0.103,0.008-0.204-0.079-0.307-0.056c-0.102,0.02-0.188,0.04-0.283,0.079
				c-0.102,0.039-0.247-0.056-0.338-0.023c-0.102,0.035-0.157,0.282-0.251,0.299c-0.11,0.016-0.248,0.023-0.342,0.012
				c-0.106-0.012-0.26-0.071-0.343-0.114c-0.086-0.047-0.148-0.204-0.216-0.283c-0.059-0.074,0.079-0.259,0.035-0.361
				c-0.035-0.087-0.204-0.126-0.228-0.236c-0.02-0.094-0.083-0.188-0.095-0.302c-0.012-0.099,0.169-0.201,0.169-0.303
				c0-0.099-0.137-0.197-0.137-0.295C45.238,34.938,45.435,34.836,45.435,34.741z M48.791,34.588
				c-0.079-0.083-0.322-0.146-0.401-0.22c-0.086-0.079-0.086-0.256-0.173-0.318c-0.094-0.071-0.22-0.118-0.307-0.169
				c-0.102-0.06-0.204-0.165-0.311-0.201c-0.105-0.031-0.263,0.02-0.373,0.016c-0.106-0.004-0.244,0.016-0.354,0.048
				c-0.095,0.031-0.236,0.059-0.334,0.125c-0.087,0.052-0.114,0.232-0.173,0.343c-0.044,0.09,0.082,0.251,0.051,0.369
				c-0.031,0.103-0.22,0.165-0.248,0.275c-0.027,0.105-0.012,0.224-0.043,0.334c-0.031,0.109-0.066,0.188-0.103,0.299
				c0.11-0.024,0.197-0.008,0.303-0.016c0.11-0.009,0.213-0.095,0.322-0.095c0.114-0.008,0.232,0.196,0.334,0.188
				c0.11,0,0.225-0.008,0.331-0.02c0.109-0.008,0.185-0.295,0.286-0.311c0.114-0.02,0.188-0.039,0.287-0.078
				c0.099-0.04,0.342,0.157,0.433,0.09c0.078-0.059-0.087-0.377-0.016-0.468C48.354,34.694,48.735,34.694,48.791,34.588z"/>
		</g>
		<g>
			<path d="M36.686,31.589c-0.103-0.016-0.22,0.209-0.33,0.192c-0.103-0.02-0.224,0.091-0.33,0.075
				c-0.103-0.016-0.177-0.252-0.279-0.264c-0.106-0.02-0.216,0.044-0.326,0.031c-0.11-0.012-0.216-0.051-0.307-0.074
				c-0.105-0.031-0.181-0.118-0.259-0.165c-0.095-0.059-0.299-0.016-0.362-0.103c-0.059-0.078-0.008-0.255-0.043-0.354
				c-0.031-0.09-0.023-0.204-0.035-0.307c-0.008-0.094-0.188-0.212-0.181-0.322c0.008-0.106,0.235-0.2,0.235-0.307
				c0-0.105,0.016-0.22,0.008-0.322c-0.008-0.109-0.142-0.204-0.149-0.307c-0.008-0.105-0.039-0.212-0.047-0.318
				c-0.008-0.109,0.138-0.212,0.149-0.307c0.016-0.113-0.142-0.278-0.103-0.369c0.048-0.099,0.37,0.008,0.44-0.07
				c0.07-0.075,0.059-0.188,0.153-0.24c0.091-0.043,0.13-0.29,0.231-0.306c0.103-0.016,0.24-0.051,0.351-0.043
				c0.098,0.008,0.2,0.173,0.303,0.2c0.102,0.032,0.188,0.228,0.298,0.244c0.11,0.023,0.244,0,0.362,0.008
				c0.109,0.008,0.235-0.07,0.35-0.074s0.231-0.036,0.342-0.044c0.114-0.016,0.235-0.18,0.342-0.172
				c0.106,0.02,0.216,0.137,0.318,0.172c0.095,0.044,0.043,0.322,0.13,0.385c0.086,0.067,0.421-0.129,0.483-0.047
				c0.063,0.083-0.063,0.303-0.023,0.409c0.039,0.094,0.173,0.169,0.188,0.274c0.016,0.103,0.114,0.236,0.095,0.351
				c-0.017,0.125,0,0.239,0,0.365c0,0.118-0.378,0.224-0.378,0.33c0,0.118,0.225,0.235,0.225,0.338
				c-0.004,0.122-0.13,0.224-0.138,0.322c-0.016,0.126,0.035,0.236,0.008,0.33c-0.031,0.126,0.055,0.33-0.016,0.405
				c-0.067,0.074-0.275,0.031-0.394,0.074c-0.086,0.031-0.188,0.11-0.311,0.13c-0.098,0.016-0.204,0.066-0.326,0.082
				c-0.102,0.013-0.22-0.016-0.338-0.004C36.913,31.806,36.804,31.581,36.686,31.589z M37.389,30.682
				c0.079-0.06,0.06-0.311,0.138-0.374c-0.047-0.07-0.196-0.047-0.247-0.138c-0.044-0.082,0.109-0.274,0.066-0.357
				c-0.051-0.09-0.161-0.134-0.212-0.2c-0.071-0.095-0.114-0.153-0.188-0.161c-0.103-0.012-0.209-0.056-0.311-0.043
				c-0.103,0.012-0.161,0.196-0.264,0.22c-0.103,0.027-0.231-0.066-0.33-0.035s-0.204,0.035-0.307,0.07
				c-0.095,0.031-0.031,0.13-0.134,0.153c0.048,0.114-0.118,0.177-0.07,0.26c0.063,0.105,0.13,0.22,0.196,0.287
				c0.095,0.078,0.252,0.031,0.354,0.07c0.103,0.035,0.196,0.027,0.307,0.027s0.225,0.126,0.334,0.114
				c0.11-0.012,0.209-0.229,0.318-0.236C37.149,30.331,37.291,30.649,37.389,30.682z"/>
		</g>
		<g>
			<path d="M49.734,28.232c0,0.11-0.318,0.291-0.318,0.405c0,0.109,0.027,0.22,0.027,0.326c0,0.109,0.094,0.22,0.094,0.33
				s0.165,0.22,0.165,0.33s-0.322,0.22-0.322,0.33c0,0.114,0.37,0.224,0.37,0.334s-0.103,0.224-0.103,0.334
				c0,0.13-0.039,0.252-0.059,0.354c-0.023,0.126-0.161,0.189-0.225,0.275c-0.066,0.099-0.181,0.039-0.29,0.095
				c-0.095,0.047-0.103,0.377-0.236,0.393c-0.106,0.016-0.243-0.047-0.369-0.055c-0.103-0.008-0.201-0.091-0.303-0.087
				c-0.103,0-0.2,0.122-0.299,0.126c-0.103,0.004-0.2,0.023-0.303,0.031s-0.196,0.06-0.299,0.067
				c-0.102,0.012-0.22-0.153-0.322-0.146c-0.102,0.012-0.196,0.13-0.299,0.138c-0.102,0.004-0.212-0.193-0.314-0.189
				c-0.109,0.004-0.204,0.036-0.298,0.021c-0.103-0.024-0.134-0.182-0.229-0.225s-0.354,0.192-0.433,0.13
				c-0.082-0.063-0.142-0.188-0.204-0.268c-0.066-0.078,0.02-0.263-0.023-0.357c-0.047-0.091-0.196-0.138-0.224-0.243
				c-0.024-0.099-0.138-0.205-0.146-0.311c0-0.103,0.094-0.221,0.109-0.322c0.016-0.095,0.056-0.189,0.071-0.283
				c0.008-0.11,0.142-0.204,0.153-0.299c0.016-0.118-0.225-0.268-0.205-0.361c0.021-0.11,0.075-0.229,0.106-0.314
				c0.039-0.118,0.149-0.217,0.2-0.291c0.063-0.095,0.197-0.134,0.291-0.188c0.083-0.044,0.181-0.106,0.295-0.134
				c0.091-0.023,0.212,0.031,0.322,0.016c0.095-0.012,0.208,0.066,0.322,0.055c0.099-0.008,0.181-0.321,0.291-0.33
				c0.094-0.008,0.212,0.205,0.307,0.205c0.102-0.009,0.204,0.016,0.299,0.008c0.102-0.017,0.263,0.047,0.346,0.008
				c0.094-0.051,0.078-0.334,0.173-0.369c0.103-0.032,0.208-0.149,0.307-0.161c0.102-0.012,0.228,0.188,0.33,0.196
				s0.146,0.192,0.243,0.224c0.095,0.031,0.165,0.051,0.26,0.095c0.091,0.047,0.291-0.114,0.377-0.052
				C49.459,28.123,49.655,28.17,49.734,28.232z M47.301,30.732c0.083-0.06,0.271,0.188,0.351,0.13
				c0.086-0.06,0.157-0.138,0.235-0.193c0.083-0.055,0.11-0.192,0.192-0.251c0.083-0.055,0.071-0.252,0.153-0.311
				c0.079-0.059,0.433,0.004,0.515-0.051c-0.066-0.067-0.459-0.048-0.53-0.118c-0.066-0.079-0.063-0.22-0.126-0.291
				c-0.07-0.078-0.117-0.173-0.181-0.239c-0.078-0.075-0.086-0.225-0.165-0.279c-0.094-0.056-0.196-0.229-0.291-0.236
				c-0.094-0.016-0.22,0.299-0.326,0.291c-0.098,0-0.185-0.07-0.278-0.063c-0.106,0.008-0.213-0.06-0.303-0.023
				c-0.095,0.031-0.106,0.165-0.181,0.231c-0.067,0.059-0.091,0.103-0.134,0.204c-0.035,0.083-0.004,0.146-0.02,0.256
				c-0.008,0.091-0.177,0.165-0.173,0.275c0.008,0.142,0.133,0.216,0.165,0.303c0.051,0.129-0.032,0.326,0.059,0.377
				c0.095,0.051,0.239,0.043,0.369,0.059c0.106,0.016,0.196,0.169,0.318,0.188C47.054,31.016,47.191,30.682,47.301,30.732z"/>
		</g>
		<g>
			<path d="M44.149,29.073c0.02,0.103,0.035,0.146,0.059,0.252c0.031,0.099-0.118,0.26-0.086,0.354
				c0.031,0.106,0.094,0.196,0.125,0.295c0.032,0.106,0.048,0.208,0.071,0.307c0.02,0.11-0.031,0.212-0.031,0.311
				c0,0.11-0.024,0.181-0.063,0.275c-0.039,0.094,0.02,0.255-0.055,0.338c-0.063,0.078-0.071,0.259-0.165,0.326
				c-0.079,0.066-0.268,0.012-0.361,0.066c-0.087,0.056-0.174,0.138-0.268,0.185c-0.099,0.044-0.275-0.113-0.377-0.078
				c-0.106,0.035-0.197,0.043-0.295,0.066c-0.114,0.032-0.201,0.378-0.318,0.37c-0.11-0.008-0.213-0.197-0.326-0.221
				c-0.11-0.023-0.24,0.004-0.351-0.023c-0.113-0.031-0.188-0.204-0.302-0.228c-0.114-0.027-0.248,0.196-0.358,0.188
				c-0.121-0.008-0.259-0.016-0.354-0.039c-0.118-0.028-0.126-0.322-0.212-0.374c-0.103-0.059-0.188-0.074-0.252-0.161
				c-0.066-0.078-0.142-0.146-0.185-0.247c-0.043-0.095-0.07-0.192-0.099-0.299c-0.023-0.099-0.063-0.2-0.078-0.311
				c-0.016-0.103,0.055-0.216,0.047-0.314c-0.016-0.103-0.239-0.181-0.247-0.275c-0.008-0.105,0.094-0.216,0.094-0.314
				c0-0.102,0.095-0.192,0.11-0.291c0.02-0.102,0.004-0.196,0.043-0.29c0.031-0.095-0.031-0.236,0.027-0.33
				c0.052-0.079,0.153-0.146,0.225-0.221c0.066-0.07,0.279,0.039,0.365-0.023c0.075-0.055,0.071-0.165,0.196-0.149
				c0.106,0.016,0.232,0.008,0.334,0.008c0.095,0,0.205-0.051,0.303-0.047c0.103,0.004,0.209-0.126,0.311-0.118
				c0.103,0.008,0.185,0.322,0.287,0.326s0.208-0.074,0.311-0.074s0.204,0.078,0.307,0.074s0.188-0.188,0.291-0.204
				c0.102-0.016,0.149-0.173,0.247-0.2c0.13-0.039,0.287,0.063,0.386,0.047c0.146-0.016,0.334-0.122,0.42-0.086
				c0.118,0.043,0.283,0.274,0.311,0.393c0.02,0.094-0.311,0.224-0.326,0.361C43.878,28.799,44.185,28.952,44.149,29.073z
				 M42.117,30.991c0.063-0.078,0.02-0.094,0.079-0.157c0.07-0.078,0.282-0.023,0.342-0.086c0.074-0.083,0.113-0.177,0.165-0.244
				c0.066-0.086,0.117-0.173,0.125-0.259c0.013-0.11,0.079-0.229,0.063-0.322c-0.02-0.11-0.055-0.244-0.106-0.322
				c-0.059-0.087-0.231-0.063-0.326-0.118c-0.082-0.047-0.185,0.051-0.295,0.035c-0.094-0.016-0.165-0.169-0.278-0.165
				c-0.091,0.004-0.193,0.035-0.295,0.035c-0.099,0-0.209-0.212-0.303-0.204c-0.106,0.008-0.264,0.027-0.342,0.063
				c-0.095,0.039,0.086,0.314,0.055,0.416c-0.023,0.071-0.181,0.118-0.157,0.236c0.016,0.094,0.118,0.142,0.181,0.228
				c0.06,0.071,0.023,0.244,0.11,0.314c0.07,0.063,0.299-0.055,0.385,0.012c0.075,0.059,0.161,0.11,0.248,0.177
				c0.078,0.063-0.008,0.338,0.074,0.405C41.913,31.094,42.039,30.925,42.117,30.991z"/>
		</g>
		<g>
			<path d="M35.711,33.099c0.095-0.016,0.196,0.188,0.291,0.173c0.094-0.023,0.188-0.035,0.283-0.056
				c0.094-0.016,0.173-0.117,0.267-0.133c0.103-0.008,0.188-0.071,0.283-0.063c0.095,0.004,0.204-0.196,0.307-0.196
				s0.212,0.086,0.314,0.086c0.105,0,0.208,0.146,0.307,0.153c0.109,0.013,0.243-0.09,0.33-0.066
				c0.118,0.035,0.11,0.224,0.153,0.299c0.059,0.086,0.263,0.103,0.307,0.204c0.043,0.099-0.083,0.26-0.052,0.361
				c0.028,0.103-0.059,0.225-0.039,0.33c0.016,0.106,0.079,0.197,0.087,0.307c0.008,0.11,0.039,0.213,0.039,0.314
				c0,0.114,0.26,0.229,0.26,0.334c-0.009,0.122-0.209,0.209-0.232,0.311c-0.027,0.118-0.051,0.213-0.099,0.307
				c-0.055,0.103-0.161,0.13-0.235,0.205c-0.078,0.07-0.031,0.338-0.13,0.393c-0.094,0.047-0.295-0.161-0.412-0.134
				c-0.103,0.031-0.186,0.056-0.307,0.067c-0.103,0.012-0.197,0.165-0.314,0.169c-0.11,0.004-0.188,0.185-0.295,0.196
				c-0.106,0.016-0.264-0.33-0.373-0.314c-0.106,0.02-0.201,0.07-0.307,0.087c-0.106,0.008-0.205,0.196-0.314,0.188
				c-0.103,0-0.189-0.134-0.299-0.165c-0.095-0.032-0.225,0.02-0.326-0.04c-0.087-0.047-0.118-0.181-0.205-0.259
				c-0.074-0.067-0.326,0.02-0.389-0.063c-0.063-0.078-0.078-0.22-0.126-0.307c-0.043-0.086-0.165-0.169-0.196-0.267
				c-0.035-0.095-0.066-0.221-0.095-0.314c-0.016-0.103,0.153-0.244,0.146-0.342c-0.008-0.103-0.208-0.205-0.204-0.307
				c0.004-0.103,0.275-0.188,0.291-0.287c0.016-0.103-0.192-0.264-0.161-0.357c0.031-0.099,0.381-0.06,0.425-0.146
				c0.051-0.087,0.055-0.165,0.121-0.24c0.067-0.074,0.103-0.138,0.188-0.192c0.103-0.063,0.174-0.122,0.303-0.142
				c0.126-0.016,0.26-0.274,0.378-0.299C35.688,32.945,35.703,33.063,35.711,33.099z M37.637,35.197
				c-0.047-0.095,0.11-0.196,0.07-0.291c-0.039-0.103-0.07-0.204-0.102-0.299c-0.044-0.11-0.165-0.181-0.209-0.268
				c-0.059-0.129-0.177-0.196-0.255-0.204c-0.095-0.02-0.196,0.169-0.299,0.173c-0.095,0-0.188-0.078-0.291-0.063
				c-0.098,0.008-0.216-0.11-0.314-0.087c-0.098,0.016-0.177,0.157-0.275,0.173c-0.098,0.024-0.302-0.086-0.4-0.07
				c0.047,0.103,0.252,0.243,0.295,0.361c0.051,0.149,0.004,0.386,0.098,0.421c0.091,0.035,0.165,0.169,0.268,0.188
				c0.087,0.02,0.204-0.008,0.307,0.008c0.091,0.012,0.192,0.004,0.295,0.016c0.09,0.012,0.216-0.231,0.318-0.22
				c0.094,0.012,0.165,0.208,0.268,0.22C37.503,35.268,37.534,35.189,37.637,35.197z"/>
		</g>
		<g>
			<path d="M40.089,34.47c0.008-0.043-0.157-0.165-0.138-0.299c0.013-0.086,0.021-0.188,0.044-0.294
				c0.016-0.095-0.008-0.213,0.016-0.307c0.031-0.095,0.161-0.153,0.204-0.236c0.039-0.094-0.008-0.243,0.063-0.311
				c0.063-0.07,0.145-0.231,0.239-0.267c0.083-0.028,0.224,0.188,0.334,0.196c0.083,0.004,0.204-0.138,0.307-0.106
				c0.103,0.023,0.157,0.338,0.268,0.346c0.102,0.016,0.231-0.255,0.338-0.251c0.102,0.004,0.204,0.008,0.311,0.008
				c0.105,0,0.208,0.204,0.318,0.204c0.102,0,0.212-0.283,0.314-0.283c0.105,0.004,0.208,0.126,0.311,0.134
				c0.105,0.008,0.239-0.11,0.342-0.095c0.113,0.028,0.113,0.378,0.212,0.425c0.103,0.047,0.377-0.177,0.456-0.106
				c0.087,0.067-0.016,0.343,0.043,0.429c0.067,0.087,0.169,0.142,0.217,0.244c0.039,0.102,0.212,0.181,0.228,0.29
				c0.016,0.106-0.016,0.244-0.023,0.354c0,0.105-0.095,0.216-0.118,0.322c-0.031,0.102-0.224,0.134-0.275,0.235
				c-0.047,0.103,0.06,0.275,0.017,0.378c-0.048,0.102-0.11,0.204-0.149,0.311c-0.04,0.102-0.008,0.22-0.04,0.306
				c-0.043,0.103-0.212,0.138-0.247,0.225c-0.052,0.102,0.098,0.314,0.043,0.385c-0.066,0.087-0.26,0.048-0.346,0.087
				c-0.083,0.031-0.192,0.263-0.307,0.251c-0.087-0.008-0.22-0.039-0.33-0.074c-0.087-0.023-0.188-0.067-0.295-0.106
				c-0.086-0.031-0.138-0.188-0.239-0.228c-0.118-0.052-0.256,0.027-0.386,0c-0.13-0.031-0.204-0.394-0.334-0.409
				c-0.118-0.012-0.247,0.153-0.35,0.142c-0.122-0.016-0.252,0.095-0.354,0.071c-0.118-0.024-0.283,0.031-0.37-0.008
				c-0.117-0.044-0.263-0.166-0.338-0.24c-0.07-0.074,0.031-0.303-0.004-0.421c-0.027-0.094-0.247-0.169-0.263-0.298
				c-0.009-0.095,0.059-0.225,0.051-0.347c-0.004-0.102,0.216-0.22,0.216-0.338C40.065,34.694,40.089,34.588,40.089,34.47z
				 M42.109,33.759c-0.059,0.063-0.118,0.307-0.173,0.369c-0.103-0.023-0.204-0.035-0.299-0.043
				c-0.11-0.008-0.196,0.043-0.283,0.066c-0.102,0.023-0.235-0.031-0.307,0.035c-0.07,0.06-0.016,0.197-0.051,0.303
				c-0.027,0.083,0.059,0.161,0.051,0.275c0,0.134-0.216,0.264-0.188,0.346c0.047,0.126,0.225,0.095,0.314,0.149
				c0.087,0.056,0.126,0.361,0.244,0.378c0.109,0.016,0.255-0.26,0.365-0.252c0.122,0.008,0.247,0.023,0.35,0.047
				c0.126,0.04,0.236,0.244,0.346,0.236c0.126-0.016,0.11-0.314,0.196-0.386c0.087-0.078,0.213-0.066,0.24-0.188
				c0.027-0.102-0.11-0.173-0.138-0.299c-0.016-0.094,0.221-0.322,0.146-0.404c-0.059-0.067-0.373,0.105-0.452,0.043
				c-0.078-0.063,0-0.334-0.078-0.393C42.313,33.982,42.18,33.821,42.109,33.759z"/>
		</g>
		<g>
			<path d="M8.718,33.405c0.124-0.032,0.21-0.322,0.305-0.322c0.125,0,0.238,0.204,0.318,0.255c0.09,0.06,0.157,0.153,0.21,0.256
				c0.049,0.086,0.057,0.204,0.091,0.311c0.027,0.102-0.067,0.239-0.042,0.342c0.027,0.102,0.09,0.188,0.106,0.283
				c0.02,0.109,0.071,0.196,0.083,0.29c0.008,0.11,0.208,0.213,0.208,0.311c-0.004,0.106-0.311,0.177-0.328,0.275
				c-0.016,0.103,0.029,0.2-0.004,0.295c-0.031,0.099,0.029,0.228-0.023,0.318c-0.049,0.09-0.234,0.07-0.301,0.149
				c-0.065,0.074,0.071,0.357-0.012,0.425c-0.077,0.063-0.193,0.113-0.283,0.169c-0.086,0.047-0.275-0.103-0.374-0.063
				c-0.09,0.039-0.188,0.031-0.291,0.06c-0.094,0.027-0.136,0.326-0.238,0.342c-0.098,0.016-0.242-0.252-0.344-0.244
				c-0.099,0.008-0.185,0.204-0.279,0.196c-0.094-0.004-0.192-0.008-0.299-0.008c-0.098,0-0.2,0.04-0.302,0.048
				c-0.104,0-0.21-0.095-0.309-0.095c-0.106,0-0.201-0.11-0.295-0.118c-0.11-0.004-0.201,0.048-0.287,0.032
				c-0.131-0.028-0.116-0.028-0.147-0.095c-0.045-0.095-0.083-0.173-0.116-0.275c-0.031-0.094-0.175-0.157-0.196-0.259
				c-0.024-0.103-0.181-0.182-0.197-0.283c-0.016-0.103-0.106-0.204-0.118-0.307c-0.014-0.103,0.302-0.24,0.294-0.342
				c-0.008-0.103-0.328-0.188-0.332-0.291c-0.004-0.106,0.324-0.224,0.314-0.334c-0.004-0.103-0.2-0.196-0.208-0.299
				c-0.004-0.079-0.042-0.326,0.045-0.425c0.083-0.09,0.283-0.235,0.366-0.251c0.106-0.027,0.234,0.008,0.34-0.016
				c0.106-0.024,0.287,0.255,0.393,0.235c0.106-0.023,0.169-0.26,0.279-0.283c0.106-0.023,0.258,0.146,0.366,0.126
				c0.106-0.023,0.171-0.251,0.283-0.279c0.106-0.02,0.242,0.087,0.352,0.067c0.11-0.023,0.234,0.031,0.34,0.012
				s0.185-0.216,0.291-0.232C8.476,33.357,8.608,33.429,8.718,33.405z M8.91,34.879c-0.035-0.031-0.328,0.027-0.401-0.067
				c-0.057-0.066,0.016-0.243-0.053-0.298c-0.075-0.063-0.144-0.118-0.23-0.126c-0.11-0.004-0.212-0.04-0.313-0.048
				c-0.11,0-0.216-0.133-0.314-0.129c-0.11,0-0.226,0.043-0.32,0.055c-0.114,0.008-0.222,0.059-0.314,0.074
				c-0.116,0.021-0.161,0.232-0.251,0.268c-0.11,0.039-0.352-0.165-0.426-0.11c-0.081,0.071-0.13,0.244-0.171,0.339
				c-0.041,0.086,0.032,0.231,0.02,0.346c-0.012,0.094-0.177,0.204-0.173,0.318c0.006,0.109,0.304,0.208,0.316,0.318
				c0.012,0.117,0,0.188,0.049,0.282c0.049,0.095-0.012,0.322,0.116,0.366c0.084,0.031,0.231,0.09,0.371,0.086
				c0.116-0.004,0.214-0.291,0.316-0.295c0.114-0.008,0.253,0.268,0.356,0.26c0.116-0.016,0.202-0.196,0.304-0.22
				c0.114-0.023,0.216-0.048,0.311-0.087c0.112-0.039,0.181-0.118,0.264-0.181c0.09-0.063,0.238-0.07,0.294-0.165
				c0.057-0.087,0.218-0.161,0.25-0.275c0.03-0.094,0-0.239,0.014-0.354C8.932,35.138,8.91,35.001,8.91,34.879z"/>
		</g>
		<g>
			<path d="M5.098,30.563c-0.016-0.114-0.065-0.303-0.069-0.401c-0.004-0.121-0.169-0.231-0.147-0.326
				c0.023-0.113,0.257-0.105,0.311-0.188c0.059-0.095-0.045-0.283,0.041-0.354c0.083-0.055,0.132-0.252,0.242-0.291
				c0.095-0.031,0.271,0.212,0.385,0.188c0.099-0.016,0.197,0.02,0.313,0.016c0.102-0.008,0.208-0.039,0.307-0.051
				s0.21-0.004,0.313-0.02c0.098-0.016,0.173-0.188,0.271-0.208c0.099-0.021,0.197-0.036,0.295-0.06
				c0.098-0.02,0.185-0.094,0.283-0.118c0.098-0.023,0.212,0.032,0.31,0.013c0.099-0.021,0.181-0.122,0.279-0.146
				c0.114-0.016,0.226,0.055,0.316,0.055c0.114,0,0.208-0.004,0.299,0.023c0.106,0.031,0.181,0.083,0.253,0.149
				c0.075,0.07,0.131,0.142,0.173,0.236c0.041,0.094-0.016,0.204,0.004,0.306c0.016,0.095-0.065,0.189-0.061,0.291
				c0.004,0.106,0.311,0.209,0.303,0.307c-0.008,0.099-0.132,0.192-0.144,0.299c-0.012,0.099-0.216,0.169-0.238,0.275
				c-0.016,0.102,0.344,0.287,0.32,0.385c-0.025,0.103-0.259,0.149-0.291,0.252c-0.034,0.102,0.004,0.231-0.038,0.322
				C9.08,31.62,9.034,31.734,8.977,31.81c-0.071,0.09-0.255,0.031-0.34,0.07c-0.09,0.043-0.188,0.055-0.287,0.095
				c-0.094,0.035-0.149,0.188-0.248,0.216c-0.098,0.027-0.188,0.095-0.291,0.122c-0.099,0.023-0.216-0.023-0.314-0.008
				c-0.103,0.016-0.203,0.039-0.305,0.055c-0.102,0.012-0.208-0.066-0.311-0.059c-0.102,0.012-0.2-0.075-0.305-0.075
				c-0.102,0-0.2,0.134-0.303,0.13c-0.102-0.004-0.188-0.153-0.291-0.161s-0.238,0.268-0.34,0.252
				c-0.087-0.017-0.151-0.165-0.226-0.256c-0.057-0.066-0.197-0.106-0.246-0.204c-0.045-0.083-0.053-0.197-0.095-0.291
				c-0.037-0.091,0.057-0.24,0.02-0.334c-0.036-0.095-0.328-0.087-0.364-0.173c-0.037-0.095,0.086-0.252,0.049-0.342
				c-0.042-0.095-0.071-0.197-0.116-0.279C4.754,30.544,5.021,30.591,5.098,30.563z M7.419,29.494
				c-0.11,0.008-0.208,0.067-0.307,0.075c-0.116,0.016-0.203,0.196-0.301,0.212c-0.114,0.016-0.261-0.196-0.355-0.173
				c-0.12,0.023-0.177,0.251-0.264,0.287c-0.114,0.043-0.098,0.2-0.167,0.263c-0.083,0.071-0.35,0-0.377,0.106
				c-0.026,0.09-0.086,0.22-0.086,0.342c0,0.095,0.029,0.212,0.041,0.326c0.012,0.11,0,0.24,0.02,0.334
				c0.026,0.11,0.214,0.169,0.275,0.244c0.061,0.07,0.139,0.142,0.259,0.165c0.084,0.023,0.183-0.023,0.307-0.031
				c0.106-0.008,0.218,0.066,0.316,0.055c0.11-0.012,0.204-0.103,0.299-0.118c0.11-0.008,0.226,0.06,0.32,0.039
				c0.11-0.02,0.208-0.063,0.298-0.09c0.11-0.031,0.212-0.067,0.295-0.106c0.098-0.055,0.185-0.126,0.25-0.192
				c0.067-0.079,0.203-0.146,0.234-0.248c0.029-0.094,0.144-0.208,0.157-0.318c0.008-0.094-0.301-0.212-0.301-0.326
				c0-0.117,0.102-0.22,0.086-0.307c-0.023-0.121,0.079-0.334,0.026-0.396c-0.071-0.083-0.342,0.2-0.44,0.181
				c-0.094-0.016-0.171-0.216-0.273-0.2C7.627,29.636,7.509,29.482,7.419,29.494z"/>
		</g>
		<g>
			<path d="M14.827,30.308c-0.01,0.11-0.161,0.236-0.177,0.322c-0.021,0.106-0.135,0.173-0.169,0.26
				c-0.035,0.094-0.045,0.188-0.098,0.268c-0.057,0.082,0.018,0.322-0.061,0.385c-0.075,0.059-0.267-0.004-0.357,0.031
				c-0.084,0.039-0.228-0.118-0.332-0.103c-0.089,0.024-0.159,0.122-0.266,0.13c-0.11,0.008-0.208,0.13-0.32,0.146
				c-0.11,0.016-0.2,0.169-0.311,0.181c-0.112,0.016-0.23-0.063-0.34-0.047c-0.112,0.012-0.248-0.22-0.354-0.212
				c-0.11,0.008-0.205,0.196-0.316,0.204c-0.114,0.008-0.208-0.149-0.307-0.165c-0.11-0.016-0.242,0.082-0.336,0.039
				c-0.103-0.047-0.181-0.13-0.258-0.2c-0.083-0.075-0.157-0.153-0.21-0.248c-0.053-0.086-0.266-0.153-0.291-0.259
				c-0.023-0.103,0.218-0.244,0.222-0.361c0.004-0.103,0.102-0.174,0.125-0.287c0.022-0.095-0.049-0.205-0.016-0.295
				c0.034-0.103-0.135-0.275-0.11-0.394c0.023-0.117,0.175-0.204,0.2-0.322c0.03-0.121,0.038-0.247,0.079-0.346
				c0.053-0.134,0.106-0.322,0.197-0.361c0.102-0.039,0.246,0.023,0.352-0.012c0.106-0.035,0.177-0.185,0.287-0.212
				c0.106-0.036,0.279,0.185,0.385,0.161c0.112-0.028,0.21-0.024,0.32-0.04c0.11-0.016,0.204-0.047,0.316-0.055
				c0.11,0,0.2,0.047,0.311,0.059c0.11,0.012,0.246-0.169,0.357-0.146c0.106,0.032,0.163,0.182,0.265,0.229
				c0.099,0.047,0.181,0.094,0.275,0.157c0.079,0.055,0.053,0.153,0.11,0.239c0.053,0.079,0.295,0.044,0.336,0.138
				c0.038,0.087,0.157,0.165,0.185,0.26c0.029,0.094-0.262,0.291-0.234,0.385c0.029,0.095,0.112,0.177,0.14,0.268
				C14.458,30.193,14.79,30.222,14.827,30.308z M13.458,30.803c-0.029-0.102,0.012-0.059-0.018-0.153
				c-0.031-0.102,0.025-0.231-0.008-0.318c-0.037-0.102-0.11-0.188-0.151-0.274c-0.045-0.103-0.283-0.079-0.332-0.161
				c-0.057-0.095,0.021-0.248-0.045-0.318c-0.072-0.075-0.053-0.299-0.143-0.347c-0.091-0.039-0.246,0.004-0.356-0.004
				c-0.094-0.008-0.188,0.11-0.301,0.13c-0.09,0.016-0.129,0.181-0.238,0.221c-0.064,0.023-0.106-0.032-0.163,0.086
				c-0.041,0.079-0.302,0.095-0.332,0.196c-0.025,0.095,0.136,0.236,0.128,0.33c-0.01,0.11-0.144,0.252-0.12,0.331
				c0.042,0.102,0.205,0.145,0.25,0.22c0.063,0.099,0.112,0.185,0.185,0.228c0.09,0.056,0.188,0.067,0.287,0.067
				c0.095,0,0.147-0.192,0.246-0.225c0.095-0.023,0.256,0.197,0.354,0.165c0.094-0.027,0.196,0.04,0.295,0.024
				c0.098-0.017,0.165-0.103,0.263-0.087C13.359,30.929,13.367,30.744,13.458,30.803z"/>
		</g>
		<g>
			<path d="M15.167,34.957c-0.01,0.11-0.251,0.205-0.268,0.303c-0.02,0.11,0.12,0.248,0.086,0.338
				c-0.037,0.103-0.155,0.157-0.21,0.236c-0.057,0.09-0.212,0.039-0.291,0.102c-0.077,0.067-0.053,0.24-0.151,0.283
				c-0.09,0.039-0.143,0.24-0.25,0.264c-0.094,0.02-0.214,0.094-0.324,0.102c-0.102,0.009-0.242-0.357-0.344-0.35
				c-0.102,0.016-0.181,0.26-0.283,0.275c-0.102,0.008-0.226-0.146-0.328-0.134s-0.2,0.056-0.303,0.063
				c-0.102,0.012-0.192,0.173-0.294,0.181c-0.12,0.008-0.222-0.197-0.324-0.213c-0.12-0.016-0.295,0.221-0.395,0.181
				c-0.11-0.047-0.11-0.282-0.193-0.354c-0.084-0.07-0.137-0.138-0.196-0.235c-0.053-0.095-0.122-0.169-0.147-0.283
				c-0.023-0.103-0.253-0.212-0.25-0.33c0.004-0.11,0.355-0.181,0.385-0.291c0.016-0.063-0.103-0.157-0.083-0.22
				c0.029-0.087-0.11-0.229-0.084-0.33c0.023-0.095,0.348-0.118,0.371-0.221c0.026-0.094-0.077-0.224-0.053-0.318
				c0.029-0.105-0.065-0.247-0.032-0.334c0.053-0.117,0.224-0.039,0.299-0.051c0.102-0.02,0.188-0.11,0.295-0.13
				c0.102-0.016,0.181-0.212,0.287-0.228c0.102-0.012,0.214-0.02,0.32-0.027c0.106-0.009,0.224,0.145,0.328,0.145
				c0.106-0.008,0.208,0,0.314,0c0.108,0,0.214-0.102,0.316-0.094c0.106,0,0.193,0.216,0.299,0.228
				c0.106,0.008,0.21-0.031,0.313-0.012c0.102,0.016,0.2,0.023,0.303,0.052c0.083,0.016,0.2-0.032,0.267,0.063
				c0.049,0.07,0.077,0.173,0.118,0.271c0.038,0.086,0.11,0.161,0.144,0.255c0.034,0.095-0.11,0.248-0.077,0.338
				c0.032,0.095,0.356,0.083,0.389,0.169C15.146,34.745,15.13,34.875,15.167,34.957z M13.941,35.605
				c-0.041-0.098,0.103-0.169,0.061-0.255c-0.045-0.099-0.242-0.122-0.283-0.213c-0.049-0.098-0.02-0.231-0.065-0.318
				c-0.053-0.094,0.02-0.267-0.03-0.346c-0.061-0.094-0.257-0.094-0.318-0.169c-0.074-0.082-0.259-0.02-0.332-0.074
				c-0.09-0.063-0.135-0.023-0.23-0.044c-0.098-0.02-0.2-0.385-0.308-0.361c-0.091,0.02-0.118,0.283-0.216,0.334
				c-0.071,0.04-0.263,0.02-0.316,0.126c-0.042,0.083-0.057,0.208-0.086,0.307c-0.023,0.099,0.108,0.228,0.098,0.322
				c-0.008,0.11-0.192,0.26-0.163,0.338c0.042,0.11,0.328,0.079,0.377,0.153c0.065,0.099-0.012,0.307,0.065,0.35
				c0.09,0.052,0.226,0.079,0.332,0.075c0.094-0.004,0.2-0.06,0.309-0.083c0.094-0.027,0.139-0.267,0.238-0.299
				c0.098-0.023,0.261,0.287,0.363,0.279c0.098-0.012,0.181-0.146,0.279-0.122C13.81,35.621,13.847,35.551,13.941,35.605z"/>
		</g>
		<g>
			<path d="M19.742,29.766c0,0.118-0.004,0.22-0.004,0.318c0,0.118-0.025,0.212-0.029,0.307c-0.008,0.121-0.057,0.188-0.079,0.274
				c-0.028,0.114,0.139,0.275,0.075,0.343c-0.065,0.07-0.173,0.102-0.287,0.145c-0.086,0.036-0.169,0.13-0.287,0.157
				c-0.09,0.021-0.181,0.126-0.294,0.146c-0.095,0.016-0.222-0.086-0.333-0.063c-0.12,0.02-0.287-0.165-0.407-0.134
				c-0.114,0.031-0.167,0.287-0.283,0.322c-0.114,0.031-0.242,0.043-0.356,0.071c-0.12,0.023-0.238-0.103-0.34-0.103
				c-0.12,0-0.283,0.26-0.385,0.228c-0.112-0.031-0.045-0.408-0.135-0.472c-0.086-0.066-0.377,0.056-0.44-0.039
				c-0.057-0.094-0.155-0.212-0.187-0.326c-0.03-0.102,0.098-0.259,0.084-0.377c-0.012-0.114-0.016-0.225-0.023-0.326
				c-0.012-0.11-0.132-0.213-0.14-0.307c-0.008-0.118,0.114-0.236,0.11-0.334c-0.004-0.122-0.094-0.225-0.09-0.326
				c0.004-0.122,0.025-0.236,0.042-0.33c0.021-0.118,0.275-0.103,0.328-0.186c0.057-0.09-0.073-0.35,0.033-0.404
				c0.086-0.047,0.238,0.039,0.356,0.016c0.094-0.023,0.2,0.023,0.32,0.012c0.098-0.008,0.192-0.204,0.306-0.208
				c0.099-0.004,0.214,0.157,0.329,0.157c0.102,0,0.21-0.103,0.324-0.103c0.102,0,0.214,0,0.324,0c0.11,0,0.208,0.157,0.302,0.161
				c0.112,0,0.214-0.11,0.309-0.102c0.114,0.008,0.208,0.035,0.299,0.051c0.114,0.02,0.271-0.103,0.352-0.063
				c0.099,0.048,0.21,0.165,0.268,0.244c0.049,0.074-0.124,0.256-0.098,0.369c0.02,0.083,0.298,0.146,0.306,0.26
				c0.01,0.09-0.027,0.2-0.023,0.314C19.98,29.553,19.742,29.655,19.742,29.766z M16.806,29.105c-0.02,0.113-0.09,0.314-0.098,0.412
				c-0.012,0.114-0.033,0.248-0.029,0.342c0.01,0.118-0.004,0.275,0.025,0.37c0.037,0.109,0.299,0.117,0.374,0.188
				c0.073,0.07,0.143,0.146,0.253,0.181c0.09,0.031,0.2-0.02,0.32-0.008c0.098,0.008,0.188-0.079,0.307-0.087
				c0.098,0,0.21,0.103,0.324,0.095c0.079-0.012,0.234,0.169,0.324,0.134c0.086-0.031,0.083-0.279,0.151-0.322
				c0.098-0.063,0.159-0.087,0.173-0.157c0.016-0.103,0.147-0.229,0.134-0.346c-0.016-0.11-0.311-0.149-0.352-0.26
				c-0.041-0.11,0.23-0.377,0.169-0.472c-0.059-0.078-0.357,0.118-0.521,0.11c-0.132-0.008-0.275,0.035-0.391,0.035
				c-0.118-0.004-0.232-0.157-0.356-0.146c-0.114,0.008-0.234,0.008-0.361,0.016C17.142,29.199,16.934,29.098,16.806,29.105z"/>
		</g>
		<g>
			<path d="M18.351,33.161c0.116,0,0.248-0.228,0.365-0.235c0.124-0.017,0.25-0.017,0.366-0.008c0.122,0,0.291-0.048,0.397,0
				c0.083,0.035,0.214,0.051,0.294,0.109c0.079,0.056,0.161,0.149,0.23,0.213c0.071,0.066,0.057,0.228,0.112,0.306
				c0.057,0.083,0.242,0.134,0.269,0.221c0.037,0.102-0.159,0.275-0.151,0.393c0.008,0.11-0.079,0.217-0.083,0.33
				c-0.004,0.118,0.207,0.236,0.197,0.354c-0.008,0.113-0.057,0.224-0.057,0.338c-0.004,0.125,0.112,0.346,0.053,0.46
				c-0.036,0.078-0.303,0.051-0.401,0.121c-0.078,0.052-0.12,0.205-0.222,0.252c-0.09,0.039-0.262-0.114-0.364-0.079
				c-0.094,0.032-0.21-0.02-0.313,0.008c-0.098,0.024-0.181,0.095-0.283,0.118c-0.103,0.02-0.189,0.079-0.295,0.095
				c-0.102,0.02-0.2,0.031-0.303,0.043c-0.108,0.008-0.198,0.311-0.296,0.311c-0.106,0.008-0.212-0.369-0.311-0.377
				c-0.112,0-0.256,0.361-0.354,0.346c-0.114-0.02-0.163-0.279-0.25-0.314c-0.11-0.051-0.132-0.11-0.167-0.188
				c-0.042-0.091-0.275-0.11-0.309-0.205c-0.033-0.094,0.173-0.259,0.147-0.357c-0.023-0.098-0.118-0.177-0.136-0.275
				c-0.016-0.098,0.116-0.208,0.104-0.311c-0.01-0.102-0.132-0.185-0.136-0.29c-0.004-0.103-0.21-0.197-0.21-0.299
				c0-0.103,0.271-0.188,0.275-0.291c0.008-0.103-0.205-0.22-0.193-0.318c0.008-0.074,0.201-0.103,0.32-0.161
				c0.077-0.043,0.155-0.118,0.262-0.153c0.09-0.035,0.192-0.051,0.291-0.083c0.098-0.031,0.149-0.212,0.242-0.243
				c0.104-0.031,0.293,0.196,0.377,0.165c0.09-0.031,0.144-0.027,0.248-0.031c0.098-0.004,0.192,0.016,0.287,0.012
				C18.361,33.142,18.351,33.149,18.351,33.161z M17.184,33.853c-0.025,0.11,0.128,0.33,0.114,0.429
				c-0.012,0.106-0.023,0.2-0.02,0.295c0.004,0.11,0.094,0.177,0.118,0.264c0.033,0.102,0.094,0.117,0.157,0.192
				c0.061,0.078,0.077,0.113,0.167,0.157c0.083,0.043,0.12,0.181,0.226,0.196c0.09,0.016,0.181-0.118,0.291-0.126
				c0.094-0.004,0.208,0.213,0.316,0.188c0.094-0.016,0.22,0.048,0.324,0.024c0.084-0.028,0.088-0.299,0.175-0.409
				c0.071-0.095,0.161-0.173,0.207-0.279c0.053-0.134-0.079-0.192-0.104-0.271c-0.032-0.103,0.09-0.275-0.016-0.37
				c-0.09-0.07-0.253-0.043-0.365-0.094c-0.114-0.06-0.171-0.299-0.277-0.322c-0.094-0.021-0.229-0.11-0.332-0.103
				c-0.094,0.004-0.21,0.07-0.313,0.086c-0.094,0.017-0.188,0.083-0.287,0.103C17.471,33.837,17.282,33.845,17.184,33.853z"/>
		</g>
		<g>
			<path d="M26.636,16.368c-0.008,0.106-0.053,0.177-0.061,0.283c-0.008,0.11,0.045,0.224,0.041,0.327
				c-0.004,0.11,0.118,0.212,0.118,0.322c0,0.11-0.318,0.244-0.307,0.346c0.016,0.11,0.155,0.212,0.192,0.314
				c0.038,0.102,0,0.291,0.065,0.369c0.063,0.087,0.202,0.181,0.297,0.24c0.081,0.059,0.22,0.099,0.332,0.138
				c0.088,0.036,0.216,0.067,0.332,0.086c0.098,0.016,0.372-0.188,0.488-0.181c-0.042,0.13-0.189,0.37-0.23,0.499
				c-0.106,0.02-0.246,0.059-0.361,0.094c-0.11,0.036-0.291-0.153-0.401-0.122c-0.12,0.039-0.181,0.232-0.287,0.244
				c-0.132,0.016-0.313,0.142-0.403,0.086c-0.081-0.047-0.035-0.283-0.114-0.346c-0.073-0.063-0.311,0.043-0.381-0.032
				c-0.065-0.071,0.061-0.307,0.004-0.389c-0.057-0.079-0.032-0.196-0.083-0.279c-0.049-0.086-0.273-0.071-0.314-0.157
				c-0.042-0.094-0.193-0.157-0.218-0.251c-0.027-0.11,0.09-0.251,0.09-0.35c0-0.106-0.098-0.255-0.061-0.35
				c0.034-0.094,0.299-0.079,0.366-0.173c0.057-0.079-0.014-0.275,0.069-0.346c0.075-0.067,0.12-0.205,0.212-0.268
				c0.083-0.055,0.222-0.047,0.32-0.098C26.424,16.332,26.534,16.411,26.636,16.368z"/>
		</g>
	</g>
</g>
</svg>
