<?xml version="1.0" encoding="utf-8"?>
<!-- Generator: Adobe Illustrator 16.0.0, SVG Export Plug-In . SVG Version: 6.00 Build 0)  -->
<!DOCTYPE svg PUBLIC "-//W3C//DTD SVG 1.1//EN" "http://www.w3.org/Graphics/SVG/1.1/DTD/svg11.dtd">
<svg version="1.1" id="圖層_1" xmlns="http://www.w3.org/2000/svg" xmlns:xlink="http://www.w3.org/1999/xlink" x="0px" y="0px"
	 width="55px" height="55px" viewBox="0 0 55 55" enable-background="new 0 0 55 55" xml:space="preserve">
<g>
	<path d="M50.277,40.961c0.08-0.14,0.169-0.281,0.25-0.409c-3.263-3.114-6.517-6.236-9.939-9.498
		c4.69-1.148,9.051-2.216,13.413-3.274c0-0.16-0.011-0.31-0.011-0.469c-4.38-1.078-8.772-2.155-13.402-3.293
		c3.443-3.292,6.696-6.395,9.939-9.508c-0.08-0.141-0.16-0.27-0.24-0.409c-4.321,1.257-8.642,2.514-13.213,3.851
		c1.348-4.609,2.595-8.91,3.843-13.2c-0.14-0.08-0.28-0.15-0.42-0.23c-3.123,3.253-6.237,6.506-9.51,9.908
		C29.839,9.73,28.771,5.37,27.704,1c-0.149,0-0.299,0.01-0.439,0.01c-1.067,4.38-2.146,8.771-3.283,13.42
		c-3.333-3.482-6.427-6.725-9.53-9.978c-0.13,0.08-0.26,0.16-0.4,0.24c1.258,4.319,2.515,8.64,3.853,13.25
		c-4.67-1.367-8.961-2.614-13.243-3.871c-0.08,0.129-0.15,0.27-0.229,0.399c3.253,3.113,6.497,6.215,9.969,9.538
		C9.762,25.156,5.38,26.233,1,27.311v0.429c4.391,1.079,8.772,2.156,13.402,3.292c-3.453,3.303-6.686,6.405-9.929,9.52
		c0.08,0.138,0.16,0.269,0.239,0.409c4.312-1.247,8.622-2.504,13.193-3.831c-1.357,4.659-2.595,8.919-3.833,13.188
		c0.15,0.07,0.29,0.141,0.439,0.221c3.104-3.243,6.208-6.495,9.471-9.917c1.147,4.647,2.215,9.019,3.293,13.378
		c0.16-0.01,0.31-0.02,0.469-0.029c1.068-4.359,2.125-8.721,3.253-13.349c3.313,3.461,6.407,6.684,9.5,9.917
		c0.14-0.09,0.27-0.189,0.409-0.28c-1.257-4.29-2.504-8.581-3.842-13.141C41.675,38.455,45.976,39.714,50.277,40.961L50.277,40.961z
		 M27.604,40.053c-6.906,0-12.444-5.567-12.454-12.543c-0.01-6.954,5.539-12.552,12.434-12.562S40.039,20.535,40.039,27.5
		C40.058,34.466,34.52,40.053,27.604,40.053z"/>
	<path d="M37.554,27.361c-0.189-5.777-4.74-10.008-10.528-9.808c-5.149,0.179-9.59,4.928-9.45,10.107
		c0.16,5.707,4.89,10.027,10.729,9.809C33.373,37.268,37.723,32.529,37.554,27.361L37.554,27.361z"/>
</g>
<g>
</g>
<g>
</g>
<g>
</g>
<g>
</g>
<g>
</g>
<g>
</g>
<g>
</g>
<g>
</g>
<g>
</g>
<g>
</g>
<g>
</g>
<g>
</g>
<g>
</g>
<g>
</g>
<g>
</g>
</svg>
