<?xml version="1.0" encoding="utf-8"?>
<!-- Generator: Adobe Illustrator 16.0.0, SVG Export Plug-In . SVG Version: 6.00 Build 0)  -->
<!DOCTYPE svg PUBLIC "-//W3C//DTD SVG 1.1//EN" "http://www.w3.org/Graphics/SVG/1.1/DTD/svg11.dtd">
<svg version="1.1" id="圖層_1" xmlns="http://www.w3.org/2000/svg" xmlns:xlink="http://www.w3.org/1999/xlink" x="0px" y="0px"
	 width="55px" height="55px" viewBox="0 0 55 55" enable-background="new 0 0 55 55" xml:space="preserve">
<g>
	<path fill="#9EB6B7" d="M24.504,45.185c1.245-0.094,2.134,0.428,2.721,1.52c0.087,0.152,0.369,0.362,0.474,0.318
		c0.742-0.293,1.465-0.64,2.182-0.987c0.102-0.043,0.138-0.21,0.238-0.271c0.475-0.293,0.955-0.571,1.44-0.854
		c0.174,0.434,0.397,0.847,0.507,1.288c0.325,1.378,0.614,2.764,0.911,4.153c0.181,0.857-0.195,1.396-1.106,1.483
		c-2.334,0.21-4.679,0.384-7.02,0.568c-0.782,0.062-1.563,0.119-2.345,0.17c-0.535,0.032-0.771-0.17-0.666-0.757
		c0.354-1.953,0.666-3.918,1.013-5.875C22.98,45.218,23.082,45.185,24.504,45.185z"/>
	<path fill="#4F5F60" d="M31.957,39.845c-0.3,1.396-0.625,2.685-1.157,4.023c-1.509-1.411-2.635-1.585-3.749-0.738
		c-0.116,0.091-0.286,0.177-0.326,0.304c-0.449,1.31-1.566,0.963-2.507,1.014c-0.17,0.007-0.452-0.196-0.517-0.366
		c-0.387-1.042-0.724-2.102-1.082-3.151c-0.17-0.499-0.062-0.716,0.528-0.698c1.48,0.047,2.956,0.105,4.432,0.04
		c1.115-0.047,2.215-0.282,3.329-0.416C31.22,39.815,31.538,39.845,31.957,39.845z"/>
	<path fill="#4F5F60" d="M31.972,36.184c-0.282,0.94-0.492,1.776-0.803,2.575c-0.08,0.203-0.481,0.392-0.738,0.398
		c-1.954,0.051-3.901,0.058-5.847,0.072c-0.033,0-0.065-0.021-0.087-0.015c-0.405,0.021-1.122,0.159-1.169,0.047
		c-0.3-0.811-0.488-1.671-0.655-2.528c-0.014-0.098,0.318-0.369,0.5-0.38c2.279-0.105,4.559-0.192,6.842-0.254
		C30.608,36.078,31.205,36.146,31.972,36.184z"/>
	<path fill="#4F5F60" d="M31.328,33.094c-0.102,2.185-0.102,2.123-2.203,2.127c-1.647,0.004-3.304,0.138-4.947,0.289
		c-0.746,0.069-1.144-0.072-1.205-0.89c-0.04-0.535-0.191-1.063-0.308-1.592c-0.134-0.572,0.148-0.865,0.659-0.731
		c0.626,0.167,1.147,0.065,1.773-0.072c1.071-0.231,2.247-0.311,3.315-0.115c0.745,0.141,1.324,0.261,2.055-0.08
		C31.122,31.722,31.371,32.095,31.328,33.094z"/>
	<path fill="#9EB6B7" d="M22.344,13.19c1.241-0.003,2.348-0.318,3.452,0.228c0.235,0.12,0.561,0.094,0.836,0.069
		c0.521-0.054,1.035-0.221,1.548-0.228c0.905,0,1.81,0.087,2.888,0.141c-0.358,1.035-0.658,2.001-1.035,2.935
		c-0.064,0.159-0.448,0.246-0.687,0.253c-1.625,0.058-3.25,0.054-4.867,0.13c-0.771,0.036-1.255-0.123-1.415-0.984
		C22.908,14.916,22.615,14.127,22.344,13.19z"/>
	<path fill="#9EB6B7" d="M27.073,17.29c0.962,0,1.925-0.029,2.88,0.021c0.268,0.015,0.753,0.279,0.749,0.42
		c-0.025,0.803-0.134,1.606-0.301,2.395c-0.028,0.152-0.408,0.333-0.629,0.34c-1.853,0.04-3.706,0.058-5.555,0.05
		c-0.423-0.007-1.15-0.054-1.223-0.26c-0.271-0.774-0.348-1.617-0.438-2.446c-0.011-0.087,0.362-0.293,0.564-0.315
		c1.31-0.126,2.627-0.221,3.944-0.322C27.073,17.21,27.073,17.253,27.073,17.29z"/>
	<path fill="#9EB6B7" d="M23.751,28.585c1.824-0.126,3.64-0.271,5.468-0.38c0.535-0.032,1.082-0.021,1.61,0.072
		c0.173,0.029,0.434,0.384,0.416,0.575c-0.055,0.594-0.148,1.205-0.366,1.759c-0.098,0.261-0.491,0.55-0.767,0.571
		c-2.099,0.152-4.205,0.239-6.311,0.337c-0.572,0.025-1.104-1.154-1.114-2.377c0-0.724,0.536-0.586,0.962-0.623
		c0.033,0,0.065,0,0.094,0C23.748,28.542,23.748,28.563,23.751,28.585z"/>
	<path fill="#9EB6B7" d="M27.546,21.052c0.68,0.054,1.668,0.152,2.66,0.213c0.55,0.033,0.757,0.293,0.647,0.829
		c-0.011,0.029-0.011,0.058-0.011,0.087c-0.188,2.084-0.228,2.026-2.308,1.853c-1.462-0.12-2.946-0.007-4.415,0.094
		c-0.752,0.055-1.078-0.166-1.23-0.915c-0.366-1.845-0.398-1.838,1.455-1.95C25.307,21.204,26.27,21.139,27.546,21.052z"/>
	<path fill="#9EB6B7" d="M31.05,24.728c-0.156,0.811-0.229,1.52-0.449,2.167c-0.098,0.286-0.514,0.64-0.789,0.647
		c-0.828,0.007-1.66-0.145-2.493-0.224c-0.167-0.015-0.34-0.015-0.507,0.018c-0.615,0.126-1.216,0.326-1.834,0.401
		c-1.718,0.214-2.514-0.557-2.366-2.301c0.015-0.195,0.423-0.507,0.655-0.507c2.121-0.021,4.248,0.022,6.369,0.015
		C30.094,24.942,30.554,24.804,31.05,24.728z"/>
	<path fill="#9EB6B7" d="M24.731,12.362c0.395-0.709,0.481-1.542,1.513-1.6c2.298-0.123,2.399-0.09,3.007,1.6
		C27.785,12.362,26.342,12.362,24.731,12.362z"/>
	<path fill="#9EB6B7" d="M25.582,8.034c0.781-0.112,1.491-0.231,2.203-0.311c0.156-0.014,0.46,0.087,0.467,0.167
		c0.069,0.583,0.152,1.183,0.069,1.751c-0.025,0.167-0.568,0.348-0.887,0.362C25.716,10.082,25.473,9.814,25.582,8.034z"/>
	<path fill="#9EB6B7" d="M27.912,43.521c0.738-0.242,1.585-0.325,1.806,0.535c0.123,0.481-0.253,1.277-0.654,1.672
		c-0.54,0.521-1.484,0.231-1.879-0.369c-0.419-0.641-0.134-1.396,0.669-1.787c0,0.264-0.065,0.55,0.007,0.792
		c0.087,0.271,0.275,0.539,0.481,0.734c0.055,0.048,0.528-0.188,0.528-0.289c-0.007-0.308-0.09-0.666-0.264-0.912
		C28.47,43.701,28.151,43.64,27.912,43.521z"/>
	<path fill="#9EB6B7" d="M27.774,6.558c-0.496,0.257-0.749,0.47-1.013,0.489c-0.137,0.007-0.304-0.322-0.452-0.5
		c0.213-0.156,0.402-0.402,0.633-0.441C27.116,6.077,27.333,6.305,27.774,6.558z"/>
	<polygon fill="#4F5F60" points="23.122,17.492 23.794,19.468 30.883,19.468 30.401,20.126 29.772,20.466 23.122,21.052 
		22.995,20.256 21.964,17.492 	"/>
	<polygon fill="#4F5F60" points="23.006,20.817 23.679,22.789 30.768,22.789 31.05,24.135 29.96,24.374 23.006,24.374 
		22.879,23.574 21.848,20.817 	"/>
	<polygon fill="#4F5F60" points="22.926,24.634 23.596,26.603 30.684,26.603 30.966,27.952 29.873,28.188 22.926,28.188 
		22.796,27.391 21.765,24.634 	"/>
	<polygon fill="#4F5F60" points="22.629,52.971 23.534,47.255 27.699,47.022 27.974,46.527 26.559,45.098 22.861,44.845 
		22.738,46.061 21.458,52.725 	"/>
	<polygon fill="#4F5F60" points="23.006,28.455 23.679,30.431 30.768,30.431 31.05,31.78 29.96,32.015 23.006,32.015 22.879,31.219 
		21.848,28.455 	"/>
	<g>
		<g>
			<path d="M26.848,1.5c0.022,0.08,0.13,0.054,0.163,0.138c0.032,0.083-0.094,0.217-0.069,0.296c0.029,0.087,0.13,0.141,0.148,0.225
				c0.018,0.087,0.126,0.17,0.126,0.257c0,0.098-0.051,0.195-0.051,0.293c0,0.094,0.072,0.188,0.08,0.282
				c0,0.102-0.108,0.206-0.094,0.3c0.018,0.094-0.116,0.235-0.087,0.333c0.025,0.09,0.354,0.069,0.398,0.155
				c0.043,0.087-0.015,0.217,0.043,0.3c0.051,0.076,0,0.253,0.065,0.33c0.069,0.072,0.108,0.13,0.159,0.224
				c0.043,0.094,0.275,0.102,0.304,0.203c0.032,0.102,0.007,0.221,0.032,0.326c0.025,0.094,0.163,0.174,0.182,0.275
				c0.025,0.102-0.033,0.221-0.011,0.322c0.021,0.104-0.192,0.271-0.163,0.373c0.032,0.094,0.04,0.195,0.058,0.318
				c0.021,0.159,0.221,0.296,0.29,0.318c0.101,0.029,0.257-0.094,0.336-0.054c0.098,0.047,0.044,0.322,0.116,0.373
				c0.087,0.062,0.318-0.043,0.369,0.029c0.062,0.08-0.112,0.268-0.087,0.362c0.032,0.091,0.3,0.138,0.304,0.239
				c0.004,0.094-0.036,0.207-0.051,0.3c-0.015,0.094-0.064,0.188-0.087,0.286c-0.021,0.094,0.044,0.217,0.015,0.304
				c-0.025,0.094-0.166,0.159-0.181,0.246c-0.025,0.102-0.142,0.181-0.152,0.268c-0.007,0.102,0.036,0.196,0.036,0.293
				s0.108,0.184,0.116,0.275c0.007,0.094,0.051,0.177,0.065,0.268c0.021,0.094-0.182,0.235-0.159,0.329
				c0.028,0.091,0.329,0.091,0.361,0.181c0.036,0.09,0.007,0.192,0.047,0.278c0.04,0.087,0.127,0.141,0.174,0.228
				c0.04,0.08-0.047,0.231-0.004,0.315c0.044,0.083,0.21,0.094,0.257,0.177c0.048,0.083,0.112,0.152,0.163,0.235
				c0.051,0.083,0.036,0.199,0.087,0.278c0.051,0.083-0.108,0.282-0.062,0.366c0.04,0.072,0.293-0.091,0.401-0.055
				c0.087,0.033,0.159,0.047,0.254,0.065c0.101,0.014,0.195,0.007,0.282,0.007c0.098,0.007,0.181,0.173,0.26,0.195
				c0.098,0.018,0.134,0.159,0.203,0.191c0.087,0.047,0.354-0.08,0.397-0.011c0.048,0.072-0.21,0.268-0.206,0.366
				c0.004,0.08-0.036,0.126-0.054,0.228c-0.015,0.08,0.213,0.228,0.181,0.322c-0.036,0.094-0.044,0.199-0.076,0.293
				s-0.3,0.108-0.333,0.206c-0.032,0.094,0.148,0.257,0.119,0.351c-0.032,0.094-0.018,0.203-0.047,0.3
				c-0.032,0.098-0.177,0.156-0.206,0.25c-0.032,0.094,0.094,0.239,0.072,0.336c-0.032,0.094-0.261,0.134-0.293,0.228
				c-0.032,0.094-0.032,0.196-0.065,0.293c-0.028,0.098-0.134,0.17-0.162,0.268c-0.029,0.098,0.015,0.235-0.019,0.329
				c0.112,0.029,0.268-0.116,0.365-0.094c0.109,0.029,0.138,0.333,0.239,0.354c0.102,0.021,0.166-0.029,0.271-0.007
				c-0.015,0.094,0.032,0.148,0.011,0.246c-0.015,0.094,0.123,0.221,0.108,0.314c-0.015,0.098-0.181,0.17-0.199,0.264
				c-0.015,0.098-0.101,0.181-0.119,0.279c-0.015,0.098-0.015,0.199-0.029,0.293c-0.014,0.102,0.167,0.228,0.152,0.326
				c-0.015,0.102-0.21,0.163-0.231,0.261c-0.015,0.098-0.195,0.166-0.214,0.264c-0.015,0.098,0.011,0.199-0.007,0.3
				c-0.015,0.094,0.094,0.214,0.079,0.308c-0.014,0.098,0.148,0.235,0.142,0.355c0,0.159-0.159,0.325-0.102,0.351
				c0.108,0.054,0.206,0.083,0.275,0.145c0.087,0.08,0.188,0.137,0.228,0.224c0.047,0.102,0.127,0.217,0.127,0.322
				c0,0.101,0.028,0.235,0.007,0.343c-0.021,0.102-0.028,0.21-0.054,0.312c-0.022,0.101-0.337,0.159-0.344,0.26
				c-0.008,0.094,0.274,0.231,0.26,0.326c-0.014,0.094-0.238,0.156-0.257,0.25c-0.018,0.094-0.003,0.196-0.018,0.293
				c-0.015,0.094-0.051,0.188-0.058,0.282c-0.008,0.094,0.188,0.181,0.188,0.275c0.008,0.098-0.325,0.239-0.304,0.333
				c0.021,0.094,0.043,0.225,0.091,0.315c0.039,0.083,0.336,0.025,0.394,0.105c0.055,0.072,0.065,0.181,0.142,0.25
				c0.058,0.058,0.221,0.199,0.214,0.333c-0.008,0.09-0.355,0.148-0.377,0.253c-0.021,0.098-0.04,0.195-0.064,0.296
				c-0.029,0.105-0.095,0.207-0.109,0.3c-0.021,0.087,0.029,0.181,0,0.268c-0.032,0.086-0.087,0.166-0.123,0.253
				s0.203,0.275,0.174,0.362c-0.036,0.087-0.217,0.123-0.235,0.21c-0.021,0.094,0.156,0.185,0.156,0.275s-0.21,0.203-0.178,0.29
				c0.033,0.08,0.021,0.224,0.091,0.304c0.051,0.065,0.138,0.152,0.217,0.217c0.072,0.051,0.195,0.058,0.282,0.108
				c0.058,0.029,0.072,0.108,0.065,0.268c-0.008,0.12,0.094,0.261,0.087,0.362c-0.019,0.098-0.112,0.185-0.131,0.282
				c-0.014,0.098-0.202,0.17-0.217,0.264c-0.015,0.098,0.235,0.242,0.221,0.337c-0.015,0.098-0.011,0.199-0.032,0.297
				c-0.015,0.101-0.188,0.17-0.203,0.268c-0.021,0.094-0.007,0.195-0.025,0.297c-0.015,0.098-0.094,0.185-0.108,0.282
				c-0.011,0.064,0.069,0.162,0.055,0.238c-0.019,0.098-0.108,0.225-0.072,0.253c0.087,0.062,0.188,0.095,0.253,0.159
				c0.072,0.08,0,0.235,0.043,0.318c0.051,0.091,0.138,0.123,0.163,0.218c0.025,0.102,0.076,0.174,0.076,0.274
				c0,0.102-0.102,0.182-0.116,0.279c-0.018,0.098,0.095,0.21,0.069,0.314c-0.021,0.094,0.025,0.214,0.003,0.312
				c-0.021,0.098,0.004,0.206-0.014,0.304c-0.019,0.094-0.188,0.174-0.195,0.268c-0.015,0.102,0.213,0.195,0.224,0.293
				c0.008,0.102-0.011,0.228-0.015,0.329c-0.003,0.102-0.245,0.188-0.257,0.293c-0.011,0.098,0.08,0.21,0.065,0.315
				c-0.011,0.101,0.004,0.206-0.011,0.311c-0.015,0.098-0.007,0.138-0.015,0.246c0.112-0.004,0.159-0.028,0.246-0.021
				c0.119,0.007,0.188,0.174,0.268,0.199c0.116,0.036,0.312-0.04,0.362,0.028c0.064,0.08,0.036,0.246,0.043,0.352
				c0.004,0.09-0.018,0.202-0.043,0.304c-0.015,0.094,0.058,0.225,0.028,0.325c-0.028,0.095-0.278,0.123-0.311,0.221
				c-0.025,0.087,0.094,0.221,0.064,0.308c-0.024,0.087-0.231,0.123-0.257,0.21s-0.068,0.167-0.098,0.254
				c-0.025,0.086,0.138,0.231,0.109,0.325c-0.025,0.087-0.159,0.141-0.182,0.231c-0.028,0.087-0.011,0.188-0.036,0.278
				c-0.028,0.087,0.152,0.235,0.123,0.326c-0.025,0.09-0.138,0.087-0.166,0.177c0.087,0.059,0.007,0.254,0.087,0.312
				c0.087,0.058,0.333-0.104,0.408-0.043c0.084,0.064,0.159,0.166,0.221,0.238c0.072,0.08,0,0.261,0.044,0.348
				c0.043,0.087,0.217,0.166,0.217,0.268c0.008,0.094,0,0.231-0.032,0.34c-0.025,0.087-0.322,0.08-0.373,0.174
				c-0.043,0.087,0.102,0.282,0.044,0.373c-0.055,0.075-0.282,0.062-0.326,0.147c-0.04,0.08,0.167,0.282,0.134,0.369
				c-0.032,0.087-0.257,0.112-0.285,0.203c-0.029,0.09,0.162,0.238,0.145,0.333c-0.021,0.094-0.326,0.13-0.34,0.224
				c-0.015,0.095,0.253,0.229,0.245,0.322c-0.014,0.094-0.206,0.178-0.209,0.271c-0.004,0.098,0.123,0.195,0.123,0.289
				c0,0.102-0.188,0.214-0.182,0.315c0.015,0.101,0.087,0.199,0.102,0.3c0.021,0.095,0.13,0.182,0.152,0.275
				c0.021,0.102-0.123,0.246-0.095,0.348c0.029,0.094,0.195,0.151,0.225,0.253c0.029,0.094-0.102,0.238-0.068,0.336
				c0.032,0.098,0.3,0.127,0.325,0.225s-0.191,0.257-0.166,0.354c0.021,0.098,0.369,0.116,0.394,0.214
				c0.022,0.102-0.198,0.249-0.173,0.344c0.021,0.098,0,0.206,0.021,0.3c0.021,0.095,0,0.203,0.021,0.297s0.318,0.13,0.34,0.225
				c0.022,0.102-0.021,0.21,0.004,0.308c0.021,0.098,0.019,0.198,0.04,0.293c0.021,0.094,0.051,0.195,0.068,0.289
				c0.025,0.098,0.167,0.167,0.188,0.261c0.025,0.098,0.051,0.191,0.072,0.286c0.025,0.098-0.235,0.257-0.214,0.354
				c0.022,0.098,0.293,0.134,0.312,0.235c0.021,0.098,0.102,0.181,0.123,0.274c0.025,0.098-0.214,0.253-0.188,0.348
				c0.022,0.098,0.243,0.145,0.268,0.246c0.022,0.094-0.115,0.228-0.094,0.321c0.021,0.098,0.268,0.146,0.282,0.239
				c0.025,0.098-0.242,0.257-0.225,0.354c0.022,0.098,0.167,0.166,0.188,0.261c0.021,0.098,0.007,0.199,0.029,0.3
				c0.025,0.095,0.141,0.167,0.166,0.268c0.021,0.109,0.047,0.229,0.044,0.326c-0.004,0.116-0.225,0.166-0.261,0.253
				c-0.044,0.098,0.004,0.225-0.076,0.29c-0.076,0.064-0.134,0.195-0.235,0.235c-0.094,0.032-0.21,0.086-0.325,0.098
				c-0.095,0.007-0.203-0.044-0.297-0.037c-0.102,0.012-0.214-0.145-0.318-0.134c-0.094,0.008-0.166,0.308-0.268,0.315
				c-0.102,0.007-0.21-0.08-0.308-0.072c-0.098,0.007-0.214-0.185-0.314-0.178c-0.095,0.008-0.188,0.119-0.282,0.127
				c-0.102,0.007-0.185,0.224-0.282,0.231c-0.098,0.007-0.203-0.029-0.305-0.021c-0.094,0.007-0.195-0.022-0.3-0.015
				c-0.098,0.007-0.195,0.051-0.293,0.058c-0.102,0.008-0.225-0.278-0.326-0.271c-0.098,0.008-0.177,0.261-0.274,0.268
				c-0.098,0.012-0.203-0.007-0.297,0c-0.102,0.012-0.214-0.147-0.312-0.141s-0.191,0.079-0.289,0.087
				c-0.102,0.007-0.178,0.238-0.282,0.246c-0.102,0.007-0.21-0.127-0.308-0.119c-0.098,0.007-0.185,0.162-0.283,0.17
				c-0.098,0.007-0.221-0.243-0.318-0.231c-0.098,0.007-0.203-0.051-0.3-0.044c-0.102,0.007-0.203,0.004-0.297,0.011
				c-0.101,0.008-0.199,0.015-0.296,0.021c-0.098,0.012-0.195,0.04-0.297,0.051c-0.094,0.008-0.188,0.062-0.29,0.069
				c-0.101,0.007-0.203,0-0.3,0.007c-0.098,0.011-0.188,0.127-0.293,0.13c-0.094,0.008-0.203-0.072-0.3-0.064
				c-0.098,0.007-0.195,0.043-0.293,0.051c-0.102,0.007-0.195,0.021-0.297,0.028c-0.101,0.008-0.188,0.17-0.289,0.182
				c-0.098,0.007-0.217-0.279-0.319-0.269c-0.094,0.008-0.173,0.312-0.275,0.318c-0.098,0.008-0.217-0.268-0.314-0.257
				s-0.185,0.221-0.279,0.229c-0.101,0.007-0.217-0.167-0.315-0.156c-0.098,0.008-0.188,0.135-0.286,0.142
				c-0.101,0.007-0.195,0.079-0.29,0.094c-0.101,0.008-0.188,0.148-0.286,0.159c-0.102,0.015-0.213-0.166-0.297-0.166
				c-0.105-0.008-0.257,0.166-0.336,0.138c-0.098-0.036-0.231-0.146-0.296-0.21c-0.058-0.069,0.119-0.282,0.094-0.377
				c-0.021-0.086-0.228-0.151-0.224-0.253c0-0.087,0.25-0.159,0.264-0.261c0.018-0.094-0.213-0.224-0.199-0.318
				c0.015-0.094,0.286-0.145,0.304-0.238c0.021-0.095-0.094-0.21-0.073-0.304c0.015-0.095-0.112-0.218-0.094-0.312
				c0.021-0.094,0-0.195,0.014-0.289c0.022-0.095,0.376-0.123,0.395-0.218c0.018-0.094-0.021-0.199-0.007-0.293
				c0.015-0.094-0.105-0.213-0.09-0.308c0.015-0.094-0.043-0.195-0.029-0.289c0.011-0.094,0.213-0.17,0.221-0.265
				c0.007-0.094-0.235-0.206-0.235-0.308c0.007-0.094,0.072-0.181,0.08-0.274c0-0.102,0.195-0.188,0.203-0.286
				c0.011-0.098-0.101-0.202-0.094-0.297c0.015-0.098,0.073-0.185,0.087-0.285c0.018-0.095,0.167-0.163,0.188-0.261
				c0.018-0.094-0.156-0.225-0.134-0.318c0.018-0.094,0.04-0.188,0.065-0.282c0.021-0.094,0.191-0.155,0.213-0.25
				c0.021-0.094,0-0.198,0.021-0.293c0.022-0.094-0.213-0.246-0.195-0.34c0.022-0.094,0.312-0.134,0.33-0.228
				c0.018-0.095-0.188-0.229-0.174-0.322c0.018-0.095,0.033-0.188,0.04-0.286c0.011-0.068,0.145-0.134,0.152-0.21
				c0.014-0.083,0.141-0.064,0.188-0.112c0.08-0.072,0.072-0.228,0.13-0.3c0.068-0.083,0.253-0.094,0.296-0.174
				c0.054-0.091,0-0.242,0.029-0.337c0.029-0.098-0.148-0.221-0.141-0.318c0.007-0.101,0.184-0.188,0.177-0.289
				c-0.011-0.098,0.094-0.225,0.072-0.325c-0.022-0.095-0.264-0.135-0.297-0.232c-0.029-0.094-0.072-0.181-0.108-0.274
				c-0.033-0.094,0.015-0.217-0.018-0.312c-0.033-0.094-0.141-0.159-0.174-0.253c-0.029-0.094-0.116-0.181-0.141-0.278
				c-0.021-0.095-0.054-0.182-0.087-0.275c-0.029-0.094,0.181-0.268,0.148-0.361c-0.032-0.091-0.275-0.102-0.314-0.192
				c-0.04-0.09,0.159-0.297,0.116-0.384c-0.043-0.094-0.271-0.094-0.304-0.181c-0.043-0.101,0.065-0.228,0.047-0.325
				c-0.022-0.102-0.253-0.188-0.243-0.282c0.015-0.095,0.261-0.116,0.315-0.206c0.047-0.076-0.04-0.261,0.047-0.33
				c0.065-0.064,0.145-0.145,0.239-0.198c0.058-0.033,0.304-0.047,0.311-0.159c0.011-0.076-0.217-0.182-0.224-0.275
				c-0.003-0.087-0.116-0.163-0.123-0.25c-0.015-0.094,0.033-0.188,0.025-0.268c-0.011-0.101,0.033-0.206,0.007-0.311
				c-0.025-0.095,0.025-0.225-0.004-0.322c-0.029-0.098-0.224-0.155-0.246-0.257c-0.021-0.094,0.196-0.239,0.174-0.337
				c-0.018-0.098-0.177-0.162-0.192-0.257c-0.011-0.098-0.112-0.191-0.119-0.285c0-0.098-0.007-0.207,0.007-0.301
				c0.011-0.094,0.108-0.181,0.137-0.274c0.029-0.095-0.05-0.239-0.007-0.333c0.043-0.08,0.203-0.108,0.261-0.195
				c0.054-0.08,0.203-0.08,0.264-0.159c0.058-0.062-0.025-0.214-0.022-0.322c0.004-0.083-0.047-0.163-0.062-0.261
				c-0.014-0.087,0.123-0.213,0.102-0.308c-0.025-0.087-0.188-0.141-0.213-0.231s0.09-0.225,0.062-0.312
				c-0.022-0.094-0.297-0.115-0.318-0.202c-0.029-0.094,0.145-0.231,0.13-0.318c-0.021-0.104-0.159-0.174-0.188-0.268
				c-0.025-0.102,0.007-0.214-0.018-0.312c-0.025-0.102-0.054-0.202-0.069-0.297c-0.014-0.101,0.076-0.202,0.08-0.304
				c0.007-0.098-0.159-0.231-0.123-0.333c0.025-0.09,0.257-0.101,0.312-0.195c0.043-0.083-0.073-0.282,0-0.369
				c0.058-0.068,0.253-0.075,0.275-0.181c0.018-0.087-0.015-0.202-0.015-0.304c-0.007-0.091-0.072-0.185-0.087-0.282
				c-0.007-0.091,0.109-0.21,0.094-0.312c-0.022-0.094-0.152-0.166-0.174-0.26c-0.014-0.095-0.148-0.167-0.167-0.261
				c-0.014-0.095-0.007-0.199-0.021-0.29c-0.011-0.09,0.174-0.213,0.159-0.3c-0.015-0.091-0.181-0.159-0.192-0.25
				c-0.014-0.09,0.127-0.195,0.12-0.289c-0.011-0.087-0.188-0.174-0.188-0.268c0.004-0.087,0.037-0.182,0.055-0.275
				c0.014-0.087,0.209-0.123,0.242-0.214c0.025-0.083-0.062-0.206-0.021-0.292c0.043-0.087-0.007-0.203,0-0.311
				c0.007-0.098,0.094-0.199,0.086-0.304c-0.014-0.101-0.072-0.195-0.094-0.3c-0.018-0.098,0.108-0.235,0.083-0.336
				c-0.025-0.102-0.25-0.145-0.282-0.246c-0.032-0.094-0.101-0.181-0.126-0.282c-0.029-0.101-0.007-0.213-0.025-0.311
				c-0.018-0.09,0.025-0.195,0.003-0.275c-0.018-0.094-0.213-0.17-0.217-0.257c-0.004-0.091,0.246-0.156,0.275-0.243
				c0.025-0.08-0.021-0.192,0.051-0.264c0.054-0.054,0.134-0.101,0.221-0.152c0.065-0.036,0.09-0.141,0.119-0.257
				c0.029-0.098,0.033-0.195,0.022-0.279c-0.015-0.094-0.152-0.17-0.167-0.264c-0.015-0.094,0.13-0.217,0.112-0.311
				c-0.018-0.094-0.08-0.181-0.094-0.282c-0.018-0.094,0.072-0.21,0.054-0.304c-0.015-0.094-0.08-0.181-0.094-0.282
				c-0.014-0.094-0.181-0.17-0.188-0.268c-0.015-0.094,0.188-0.21,0.181-0.308c-0.007-0.094,0.021-0.188,0.021-0.286
				c0-0.094-0.021-0.185-0.021-0.282c0.007-0.094,0-0.188,0.014-0.282c0.007-0.094-0.014-0.195,0-0.289
				c0.022-0.094-0.148-0.239-0.123-0.333c0.029-0.102,0.043-0.159,0.043-0.268c0-0.098,0.293-0.221,0.275-0.326
				c-0.014-0.102-0.05-0.214-0.076-0.315c-0.025-0.098-0.04-0.206-0.069-0.308c-0.025-0.094-0.231-0.152-0.253-0.253
				c-0.021-0.101-0.126-0.188-0.145-0.289C21.71,18.396,22,18.266,22,18.165c-0.007-0.094-0.315-0.206-0.297-0.3
				c0.022-0.09,0.029-0.206,0.058-0.3c0.029-0.087,0.13-0.159,0.163-0.246c0.033-0.087,0.047-0.185,0.08-0.271
				c0.033-0.09,0.062-0.17,0.087-0.26c0.022-0.083,0.047-0.185,0.076-0.268c0.029-0.086,0.126-0.148,0.145-0.235
				c0.015-0.094,0.25-0.217,0.232-0.304c-0.022-0.094-0.29-0.134-0.312-0.228c-0.021-0.094-0.065-0.185-0.087-0.279
				c-0.029-0.094,0-0.203-0.025-0.297c-0.025-0.094,0.011-0.209-0.018-0.304c-0.029-0.094-0.015-0.203-0.043-0.297
				c-0.033-0.094-0.159-0.155-0.188-0.246c-0.025-0.094-0.014-0.203-0.04-0.297s-0.025-0.195-0.054-0.29
				c-0.029-0.108-0.025-0.21-0.043-0.304c-0.022-0.109,0.025-0.203,0.025-0.29c0-0.12-0.167-0.239-0.134-0.326
				c0.04-0.101,0.232-0.058,0.312-0.126c0.072-0.062,0.058-0.243,0.17-0.275c0.087-0.033,0.213,0.076,0.322,0.062
				c0.094-0.015,0.181-0.138,0.297-0.141c0.098-0.004,0.192-0.029,0.29-0.055c0.094-0.021,0.137-0.181,0.228-0.213
				c0.09-0.032,0.307,0.213,0.394,0.17c0.087-0.043,0.065-0.278,0.148-0.336c0.08-0.054,0.275,0.033,0.351-0.029
				c0.076-0.065-0.043-0.326,0.029-0.395c0.065-0.072,0.253-0.036,0.311-0.116c0.058-0.08,0.043-0.209,0.091-0.289
				c0.054-0.083,0.177-0.123,0.221-0.217c0.04-0.09-0.073-0.231-0.036-0.326c0.036-0.094,0.304-0.119,0.329-0.213
				c0.021-0.098,0.047-0.207,0.054-0.308c0.007-0.094-0.054-0.21-0.058-0.308c-0.003-0.098,0.007-0.213-0.014-0.308
				C25.046,9.308,25,9.221,24.981,9.127c-0.022-0.101-0.235-0.159-0.253-0.253C24.713,8.78,24.84,8.66,24.826,8.566
				c-0.015-0.094,0.022-0.199,0.007-0.293c-0.015-0.094,0.087-0.202,0.076-0.304c-0.011-0.098-0.297-0.159-0.304-0.26
				c-0.015-0.105-0.087-0.261-0.058-0.355c0.025-0.086,0.206-0.188,0.311-0.239c0.069-0.04,0.181-0.137,0.296-0.152
				c0.073-0.007,0.221,0.087,0.286-0.015c0.054-0.094-0.112-0.239-0.112-0.318c0.011-0.101,0.018-0.203,0.025-0.304
				c0.007-0.102,0.134-0.199,0.141-0.3c0.007-0.102-0.094-0.221-0.08-0.322c0.011-0.101,0.271-0.166,0.286-0.268
				c0.015-0.105-0.076-0.221-0.054-0.326c0.022-0.094-0.04-0.224-0.011-0.322c0.033-0.098,0.134-0.177,0.174-0.271
				c0.04-0.094,0.163-0.148,0.206-0.242c0.047-0.091,0.025-0.221,0.08-0.308c0.058-0.087,0.094-0.195,0.156-0.275
				c0.054-0.065,0.126-0.102,0.148-0.199c0.015-0.083,0.13-0.17,0.13-0.264c0-0.087-0.094-0.177-0.105-0.268
				c-0.007-0.09-0.191-0.17-0.195-0.261c-0.003-0.094,0.069-0.195,0.072-0.282c0.004-0.105,0.282-0.195,0.286-0.304
				c0.003-0.102-0.043-0.213-0.036-0.318c0-0.108-0.043-0.156-0.04-0.261C26.66,1.536,26.711,1.533,26.848,1.5z M27.803,43.484
				c-0.098,0.051-0.104,0.231-0.184,0.289c-0.091,0.062-0.275,0.008-0.348,0.08c-0.076,0.079-0.08,0.225-0.134,0.312
				c-0.054,0.09,0,0.217-0.029,0.318c-0.029,0.101-0.087,0.181-0.083,0.285c0.004,0.102,0.087,0.174,0.12,0.271
				c0.033,0.094-0.033,0.231,0.025,0.318c0.054,0.087,0.014,0.286,0.087,0.354c0.076,0.072,0.351-0.108,0.438-0.058
				s0.116,0.195,0.21,0.231c0.101,0.032,0.174,0.21,0.275,0.221c0.102,0.015,0.243,0.011,0.341-0.004
				c0.102-0.014,0.151-0.238,0.246-0.282c0.09-0.043,0.195-0.047,0.271-0.115c0.068-0.072,0.039-0.217,0.104-0.304
				c0.062-0.08,0.174-0.116,0.228-0.21c0.055-0.087,0.322-0.072,0.362-0.167c0.04-0.101,0.087-0.221,0.112-0.314
				c0.028-0.104-0.098-0.257-0.087-0.351c0.007-0.109-0.159-0.185-0.185-0.275c-0.029-0.108,0.185-0.304,0.134-0.391
				c-0.058-0.094-0.304-0.015-0.384-0.08c-0.079-0.062-0.072-0.325-0.166-0.354c-0.094-0.028-0.246,0.214-0.348,0.21
				c-0.102-0.003-0.188-0.021-0.293-0.007c-0.098,0.015-0.199,0.004-0.297,0.028c-0.098,0.029-0.235,0.148-0.333,0.178
				C27.833,43.673,27.84,43.467,27.803,43.484z M24.504,45.091c-0.109,0-0.207,0.152-0.297,0.152c-0.108,0-0.217-0.159-0.304-0.152
				c-0.116,0-0.21,0.094-0.3,0.102c-0.116,0.011-0.192,0.123-0.271,0.141c-0.116,0.033-0.192,0.019-0.253,0.083
				c-0.058,0.065-0.025,0.156-0.058,0.269c-0.022,0.083-0.159,0.145-0.174,0.257c-0.022,0.098-0.199,0.166-0.213,0.264
				c-0.015,0.102,0.275,0.25,0.26,0.348c-0.018,0.102-0.148,0.177-0.167,0.274c-0.014,0.102-0.184,0.171-0.199,0.269
				c-0.015,0.101-0.029,0.195-0.043,0.296c-0.018,0.098,0.167,0.231,0.148,0.326c-0.018,0.102-0.09,0.188-0.109,0.282
				c-0.018,0.102,0.083,0.217,0.069,0.314c-0.014,0.098-0.108,0.185-0.126,0.286c-0.015,0.094-0.279,0.151-0.293,0.253
				c-0.015,0.094-0.036,0.195-0.054,0.29c-0.015,0.101,0.119,0.224,0.104,0.325c-0.018,0.094,0.13,0.221,0.109,0.318
				c-0.015,0.098-0.297,0.152-0.315,0.25s0.206,0.234,0.185,0.336c-0.015,0.098-0.279,0.152-0.293,0.254
				c-0.018,0.094,0.228,0.238,0.206,0.34c-0.018,0.094-0.058,0.188-0.08,0.289c-0.018,0.098-0.065,0.192-0.08,0.29
				s0.058,0.21,0.04,0.311c-0.025,0.12-0.148,0.192-0.141,0.282c0.007,0.123-0.043,0.265,0.021,0.333
				c0.062,0.072,0.195,0.087,0.315,0.112c0.09,0.018,0.191-0.083,0.308-0.091c0.101-0.007,0.195-0.036,0.293-0.043
				c0.098-0.008,0.213,0.213,0.308,0.206c0.101-0.011,0.173-0.3,0.275-0.312c0.094-0.007,0.199,0.051,0.296,0.04
				c0.098-0.007,0.188-0.072,0.286-0.079c0.098-0.008,0.206,0.137,0.308,0.126c0.098-0.007,0.185-0.148,0.282-0.155
				s0.191-0.04,0.289-0.047c0.102-0.008,0.203,0.054,0.297,0.047c0.101-0.007,0.217,0.217,0.311,0.21
				c0.098-0.008,0.174-0.297,0.271-0.304c0.098-0.011,0.199-0.015,0.293-0.022c0.102-0.007,0.195-0.036,0.293-0.043
				s0.207,0.138,0.308,0.13c0.094-0.007,0.203,0.102,0.3,0.095c0.098-0.008,0.174-0.293,0.271-0.305
				c0.098-0.007,0.217,0.297,0.318,0.29c0.094-0.008,0.195,0.021,0.293,0.015c0.098-0.008,0.174-0.275,0.272-0.286
				c0.098-0.007,0.191-0.04,0.289-0.047c0.102-0.008,0.218,0.235,0.315,0.228c0.098-0.007,0.177-0.228,0.274-0.238
				c0.098-0.008,0.192-0.062,0.293-0.069c0.095-0.007,0.203,0.108,0.301,0.102s0.181-0.181,0.278-0.188
				c0.098-0.007,0.21,0.195,0.312,0.188c0.094-0.007,0.188-0.04,0.289-0.051c0.098-0.007,0.199,0.058,0.297,0.051
				c0.102-0.007,0.188-0.087,0.289-0.094c0.095-0.008,0.174-0.199,0.275-0.206c0.094-0.008,0.217,0.268,0.314,0.26
				c0.098-0.007,0.192-0.068,0.286-0.075c0.108-0.012,0.206-0.102,0.3-0.123c0.105-0.029,0.135-0.203,0.221-0.246
				c0.102-0.051,0.246,0.028,0.318-0.036c0.076-0.073,0.203-0.116,0.246-0.214c0.044-0.091,0.059-0.206,0.08-0.314
				c0.015-0.095-0.188-0.195-0.188-0.305c-0.007-0.098,0.159-0.209,0.138-0.318c-0.018-0.094,0.13-0.221,0.108-0.314
				c-0.018-0.091-0.079-0.177-0.094-0.268c-0.021-0.091-0.167-0.159-0.185-0.253c-0.019-0.091-0.21-0.148-0.228-0.243
				c-0.022-0.09,0.141-0.224,0.122-0.318c-0.018-0.087-0.068-0.174-0.086-0.268c-0.019-0.094-0.084-0.174-0.102-0.268
				c-0.021-0.094-0.098-0.174-0.123-0.268c-0.015-0.087-0.087-0.174-0.108-0.261c-0.019-0.094-0.059-0.181-0.08-0.275
				c-0.021-0.086,0.242-0.245,0.225-0.34c-0.021-0.087-0.337-0.115-0.354-0.21c-0.021-0.094,0.159-0.231,0.138-0.318
				c-0.022-0.094-0.072-0.181-0.095-0.268c-0.025-0.094-0.025-0.191-0.047-0.282c-0.025-0.09-0.235-0.115-0.264-0.202
				c-0.029-0.087,0.264-0.297,0.231-0.384c-0.036-0.087-0.058-0.181-0.095-0.268c-0.039-0.08-0.34-0.051-0.376-0.138
				c-0.036-0.083,0.004-0.174-0.028-0.261c-0.08,0.044-0.062,0.21-0.146,0.257c-0.079,0.047-0.325-0.191-0.405-0.145
				c-0.079,0.047-0.159,0.098-0.238,0.148c-0.08,0.043-0.181,0.065-0.257,0.112c-0.08,0.051-0.119,0.163-0.199,0.206
				c-0.079,0.051-0.174,0.08-0.253,0.127c-0.102,0.062,0,0.48-0.095,0.528c-0.094,0.039-0.253-0.062-0.34-0.019
				c-0.094,0.044-0.102,0.257-0.188,0.297c-0.094,0.043-0.282-0.119-0.368-0.08c-0.095,0.044-0.218,0.015-0.308,0.059
				c-0.091,0.043-0.185,0.075-0.279,0.115c-0.087,0.044-0.155,0.138-0.246,0.174c-0.09,0.036-0.166,0.123-0.257,0.159
				s-0.134,0.195-0.228,0.231c-0.058,0.021-0.217-0.108-0.318-0.188c-0.087-0.062-0.022-0.232-0.062-0.301
				c-0.047-0.091-0.333-0.04-0.387-0.123c-0.058-0.087-0.126-0.148-0.188-0.228c-0.065-0.084,0-0.257-0.073-0.326
				c-0.068-0.079-0.159-0.123-0.235-0.188c-0.08-0.065-0.127-0.174-0.207-0.232c-0.086-0.054-0.224-0.014-0.314-0.058
				c-0.09-0.043-0.141-0.181-0.235-0.217c-0.098-0.029-0.21-0.015-0.308-0.036c-0.098-0.019-0.181-0.188-0.286-0.199
				c-0.094-0.011-0.213,0.055-0.315,0.047C24.707,45.069,24.605,45.084,24.504,45.091z M32.033,39.79
				c-0.09,0-0.257,0.112-0.344,0.112c-0.087-0.007-0.174-0.166-0.26-0.174c-0.087,0-0.182,0.087-0.261,0.087
				c-0.087,0-0.167,0.108-0.254,0.116c-0.101,0.011-0.206-0.021-0.304-0.008c-0.102,0.015-0.188,0.095-0.289,0.112
				c-0.102,0.015-0.221-0.09-0.318-0.076c-0.098,0.015-0.225-0.13-0.326-0.115c-0.101,0.018-0.151,0.348-0.253,0.361
				c-0.094,0.015-0.217-0.083-0.314-0.072c-0.105,0.015-0.221-0.123-0.322-0.108s-0.199,0.029-0.297,0.04
				c-0.102,0.011-0.181,0.228-0.282,0.235c-0.102,0.011-0.203-0.044-0.308-0.036c-0.101,0.007-0.199,0.134-0.3,0.137
				c-0.094,0.004-0.195-0.068-0.296-0.064c-0.098,0.007-0.203-0.239-0.3-0.239s-0.199,0-0.293,0c-0.102,0-0.195,0.159-0.297,0.159
				c-0.098,0-0.195,0.167-0.293,0.167s-0.199-0.268-0.293-0.271c-0.102,0-0.203,0.238-0.3,0.238s-0.192-0.253-0.293-0.253
				c-0.094,0-0.203,0.261-0.296,0.257c-0.102-0.004-0.199-0.029-0.297-0.036c-0.098,0-0.195-0.032-0.296-0.036
				c-0.094-0.004-0.196,0.087-0.297,0.083c-0.098-0.004-0.192-0.127-0.29-0.127c-0.101-0.007-0.195-0.108-0.29-0.115
				c-0.101,0-0.203,0.043-0.3,0.04c-0.112-0.004-0.191,0.104-0.271,0.115c-0.123,0.025-0.13,0.047-0.177,0.112
				c-0.055,0.065-0.271,0.094-0.261,0.214c0.007,0.083,0.308,0.104,0.347,0.21c0.033,0.098,0.004,0.213,0.04,0.311
				c0.033,0.095,0.119,0.17,0.152,0.268c0.036,0.095-0.08,0.235-0.043,0.337c0.029,0.094,0.192,0.145,0.225,0.246
				c0.029,0.094,0.086,0.181,0.116,0.274c0.036,0.095,0,0.214,0.032,0.312c0.033,0.098-0.159,0.268-0.126,0.362
				c0.036,0.094,0.34,0.101,0.373,0.195c0.033,0.094,0.062,0.188,0.098,0.282c0.036,0.098,0.087,0.185,0.12,0.278
				s-0.076,0.242-0.04,0.336c0.029,0.08,0.037,0.261,0.138,0.333s0.26-0.141,0.347-0.145c0.102-0.004,0.203,0.304,0.308,0.304
				c0.098,0,0.195,0.044,0.293,0.047c0.102,0.004,0.203-0.257,0.304-0.257c0.101,0,0.188-0.028,0.286-0.036
				c0.102-0.007,0.235,0.231,0.329,0.21c0.098-0.021,0.13-0.257,0.221-0.297c0.091-0.036,0.127-0.111,0.207-0.173
				c0.08-0.055,0.221-0.025,0.286-0.109c0.054-0.072-0.04-0.231,0.011-0.325c0.043-0.08,0.271-0.08,0.304-0.181
				c0.021-0.062,0.051-0.12,0.116-0.167s0.174-0.028,0.231-0.072c0.076-0.062,0.108-0.17,0.188-0.217
				c0.08-0.058,0.08-0.261,0.159-0.304c0.086-0.044,0.282,0.185,0.376,0.151c0.087-0.028,0.152-0.094,0.247-0.115
				c0.094-0.019,0.174-0.102,0.268-0.105c0.095-0.003,0.203-0.155,0.297-0.148c0.091,0.015,0.17,0.182,0.261,0.203
				c0.087,0.021,0.151,0.115,0.246,0.152c0.087,0.028,0.174,0.047,0.26,0.086c0.08,0.04,0.261-0.094,0.348-0.047
				c0.08,0.047,0.065,0.254,0.148,0.308c0.076,0.047,0.051,0.239,0.127,0.297c0.072,0.051,0.166,0.072,0.246,0.138
				c0.072,0.054,0.221,0.021,0.293,0.087c0.068,0.058,0.112-0.044,0.185,0.021c0.036-0.094,0.145-0.021,0.177-0.119
				c0.033-0.095,0.047-0.195,0.08-0.29c0.032-0.094,0.025-0.206,0.054-0.3c0.036-0.095,0.008-0.206,0.04-0.301
				c0.029-0.094,0.011-0.202,0.04-0.3c0.028-0.095,0.04-0.195,0.064-0.29c0.029-0.094,0.341-0.108,0.369-0.206
				c0.022-0.094-0.238-0.271-0.213-0.365s0.249-0.142,0.274-0.239c0.025-0.094,0.015-0.198,0.04-0.296
				c0.021-0.102,0.062-0.188,0.087-0.29c0.021-0.094-0.148-0.238-0.127-0.333c0.025-0.101,0.388-0.119,0.409-0.217
				C32.08,40.083,32.012,39.888,32.033,39.79z M32.052,36.133c-0.095-0.008-0.275,0.094-0.362,0.094
				c-0.098-0.007-0.181-0.174-0.271-0.181c-0.094-0.008-0.191,0.072-0.285,0.068c-0.095-0.007-0.192,0.091-0.282,0.083
				c-0.095-0.003-0.188-0.058-0.282-0.058c-0.095-0.007-0.181,0.065-0.275,0.062c-0.094,0-0.188-0.119-0.278-0.116
				c-0.098,0.004-0.203-0.155-0.301-0.155c-0.101,0.004-0.188,0.318-0.289,0.326c-0.094,0.003-0.199-0.109-0.3-0.109
				c-0.099,0.008-0.207-0.145-0.301-0.141c-0.102,0.004-0.202,0.011-0.301,0.015c-0.098,0.003-0.191,0.213-0.289,0.213
				c-0.098,0.008-0.199-0.05-0.301-0.047c-0.094,0.004-0.188,0.127-0.293,0.127c-0.098,0.007-0.199-0.065-0.3-0.065
				c-0.102,0.008-0.21-0.238-0.308-0.235c-0.098,0.004-0.199,0.008-0.296,0.008c-0.098,0.003-0.192,0.163-0.293,0.166
				c-0.094,0.004-0.188,0.174-0.289,0.178c-0.098,0.003-0.207-0.261-0.312-0.257c-0.094,0.003-0.188,0.246-0.282,0.249
				c-0.101,0.004-0.209-0.242-0.308-0.238c-0.098,0.004-0.191,0.274-0.286,0.274c-0.101,0.008-0.203-0.018-0.3-0.014
				c-0.098,0.003-0.199-0.019-0.297-0.015c-0.098,0.003-0.191,0.101-0.293,0.104c-0.101,0.004-0.206-0.108-0.304-0.104
				c-0.098,0.003-0.203-0.095-0.304-0.091c-0.094,0.004-0.195,0.055-0.293,0.062c-0.083,0.008-0.141,0.152-0.242,0.225
				c-0.116,0.087-0.152,0.102-0.141,0.151c0.018,0.095-0.192,0.232-0.17,0.326c0.018,0.098,0.318,0.134,0.34,0.228
				c0.018,0.098-0.021,0.199,0,0.293c0.022,0.095,0.102,0.174,0.123,0.269c0.021,0.098-0.101,0.224-0.072,0.318
				c0.021,0.094,0.181,0.151,0.203,0.242c0.029,0.094,0.072,0.177,0.105,0.268c0.029,0.094-0.007,0.206,0.021,0.293
				c0.033,0.094-0.156,0.261-0.126,0.354c0.018,0.04,0.239-0.159,0.391-0.166c0.087,0,0.181-0.008,0.29-0.022
				c0.094-0.011,0.195-0.043,0.293-0.058c0.105-0.007,0.228,0.134,0.315,0.131c0.029,0,0.058,0.137,0.086,0.137
				c0.102,0,0.196-0.282,0.29-0.282c0.102,0,0.199,0.312,0.297,0.312s0.195,0.036,0.296,0.036c0.094,0,0.188-0.268,0.29-0.268
				c0.098,0,0.195-0.021,0.29-0.025c0.098,0,0.195,0.25,0.297,0.25c0.094,0,0.188-0.218,0.289-0.218c0.098,0,0.196-0.051,0.29-0.051
				c0.098,0,0.195,0.12,0.297,0.12c0.094,0,0.188-0.163,0.29-0.163c0.098,0,0.195,0.21,0.293,0.21s0.199-0.029,0.293-0.029
				c0.094,0,0.195,0.08,0.289,0.08c0.102,0,0.195-0.08,0.294-0.08c0.098,0,0.191-0.181,0.293-0.181c0.094,0,0.195,0.282,0.296,0.275
				c0.098,0,0.192-0.051,0.29-0.055s0.191-0.08,0.289-0.083c0.102-0.004,0.195-0.163,0.29-0.167
				c0.098-0.003,0.198,0.146,0.293,0.146c0.083-0.008,0.206,0.043,0.308,0.007c0.087-0.036,0.181-0.102,0.26-0.152
				c0.095-0.058-0.007-0.224,0.022-0.304c0.036-0.094,0.238-0.115,0.274-0.213c0.033-0.095,0.225-0.135,0.261-0.229
				c0.029-0.094,0.021-0.206,0.051-0.304c0.032-0.094-0.058-0.225-0.033-0.326c0.033-0.094-0.111-0.238-0.086-0.332
				c0.024-0.095,0.238-0.142,0.264-0.239c0.029-0.094,0.029-0.202,0.058-0.297c0.025-0.094,0.015-0.202,0.04-0.3
				C31.871,36.364,32.019,36.227,32.052,36.133z M31.422,33.097c0.008-0.112-0.145-0.213-0.145-0.308
				c-0.007-0.108,0.152-0.224,0.134-0.318c-0.015-0.108-0.127-0.202-0.163-0.282c-0.043-0.104-0.166-0.101-0.246-0.145
				c-0.079-0.047-0.126-0.094-0.246-0.076c-0.086,0.015-0.137,0.108-0.242,0.156c-0.094,0.043-0.238-0.029-0.329,0
				c-0.098,0.032-0.225-0.102-0.318-0.087c-0.102,0.018-0.159,0.34-0.261,0.347c-0.101,0-0.206-0.115-0.308-0.115
				c-0.098-0.011-0.177-0.174-0.278-0.185c-0.098-0.015-0.195-0.025-0.289-0.04c-0.095-0.015-0.231,0.167-0.333,0.145
				c-0.102-0.018-0.188-0.087-0.29-0.104c-0.094-0.015-0.21,0.098-0.308,0.083c-0.101-0.007-0.192-0.091-0.293-0.098
				c-0.102-0.004-0.195-0.257-0.3-0.257c-0.102,0-0.207,0-0.308,0c-0.102,0.004-0.203,0.163-0.304,0.17
				c-0.102,0.008-0.188,0.181-0.286,0.188c-0.101,0.011-0.228-0.242-0.333-0.235c-0.101,0.015-0.17,0.268-0.268,0.282
				c-0.101,0.015-0.242-0.21-0.336-0.195c-0.101,0.021-0.152,0.297-0.246,0.318c-0.101,0.021-0.206,0.015-0.304,0.036
				c-0.098,0.018-0.21,0.007-0.304,0.021c-0.094,0.015-0.195,0.119-0.293,0.127c-0.098,0.011-0.21-0.108-0.308-0.108
				c-0.101-0.004-0.188-0.112-0.29-0.127c-0.094-0.015-0.199,0.015-0.296-0.015c-0.116-0.028-0.217,0.065-0.304,0.076
				c-0.119,0.019-0.134,0.051-0.195,0.134c-0.065,0.072-0.3,0.094-0.308,0.214c-0.011,0.098,0.286,0.166,0.315,0.285
				c0.015,0.087-0.025,0.188,0,0.275c0.022,0.087,0.102,0.166,0.116,0.253c0.025,0.087-0.101,0.21-0.083,0.297
				s0.17,0.152,0.188,0.239c0.015,0.094,0.054,0.181,0.069,0.274c0.011,0.091-0.047,0.195-0.04,0.286
				c0.011,0.108-0.209,0.242-0.188,0.329c0.025,0.108,0.322,0.091,0.362,0.166c0.054,0.087,0.069,0.109,0.148,0.159
				c0.08,0.048,0.116,0.04,0.224,0.059c0.087,0.021,0.148,0.177,0.253,0.177c0.094,0,0.203,0.112,0.304,0.105
				c0.098-0.008,0.167-0.297,0.264-0.304c0.098-0.008,0.221,0.293,0.315,0.281c0.101-0.007,0.195,0.022,0.297,0.012
				c0.098-0.008,0.166-0.279,0.268-0.286c0.098-0.007,0.192-0.036,0.29-0.044c0.101-0.007,0.217,0.232,0.311,0.225
				c0.098-0.007,0.174-0.231,0.275-0.238c0.098-0.008,0.192-0.059,0.286-0.065c0.098-0.007,0.207,0.112,0.3,0.108
				c0.094-0.007,0.181-0.177,0.282-0.181c0.098-0.008,0.203,0.202,0.3,0.195c0.098-0.007,0.192-0.036,0.293-0.036
				c0.094-0.008,0.195,0.065,0.293,0.065c0.098-0.004,0.192-0.08,0.286-0.08c0.095,0,0.188-0.188,0.29-0.188
				c0.094-0.003,0.195,0.282,0.289,0.282c0.102,0,0.195-0.05,0.294-0.05c0.104,0,0.206-0.076,0.3-0.076
				c0.102,0,0.202-0.159,0.293-0.159c0.105,0,0.206,0.148,0.297,0.145c0.112-0.004,0.214,0.062,0.3,0.054
				c0.112-0.014,0.214-0.047,0.301-0.064c0.112-0.029,0.102-0.239,0.181-0.29c0.087-0.05,0.254,0.033,0.308-0.058
				c0.044-0.076,0.246-0.13,0.275-0.238c0.021-0.087,0.003-0.21,0.018-0.318c0.011-0.087-0.102-0.203-0.094-0.312
				c0.007-0.091-0.163-0.203-0.155-0.304c0.003-0.095,0.202-0.182,0.202-0.29C31.35,33.296,31.418,33.202,31.422,33.097z
				 M22.268,13.132c0.025,0.098,0.188,0.231,0.217,0.326c0.029,0.094-0.102,0.235-0.072,0.329c0.032,0.094,0.141,0.159,0.173,0.253
				c0.029,0.094,0.152,0.159,0.181,0.253c0.033,0.094,0.015,0.207,0.043,0.297c0.029,0.094,0.123,0.17,0.152,0.264
				c0.025,0.094-0.065,0.221-0.036,0.315c0.021,0.094-0.112,0.228-0.094,0.322c0.022,0.094,0.354,0.126,0.369,0.221
				c0.015,0.102-0.08,0.21-0.047,0.29c0.032,0.098-0.062,0.253-0.018,0.326c0.05,0.087,0.137,0.188,0.203,0.246
				c0.068,0.058,0.26-0.058,0.347-0.022c0.083,0.036,0.145,0.116,0.239,0.13c0.087,0.015,0.181-0.094,0.275-0.094
				c0.087,0.007,0.174,0.08,0.271,0.072c0.094,0,0.199,0.239,0.3,0.235c0.094-0.003,0.188-0.007,0.282-0.011
				c0.101-0.004,0.188-0.163,0.282-0.167s0.185-0.174,0.282-0.174s0.195,0.264,0.296,0.261c0.094-0.004,0.181-0.246,0.275-0.246
				c0.094-0.003,0.199,0.246,0.293,0.242c0.094-0.003,0.185-0.268,0.278-0.268c0.094,0,0.196,0.022,0.29,0.022
				c0.094,0,0.188,0.025,0.282,0.025c0.098-0.007,0.192-0.101,0.286-0.101c0.094,0,0.191,0.116,0.286,0.116
				c0.094-0.007,0.196,0.098,0.29,0.098c0.094-0.003,0.188-0.054,0.282-0.058c0.098-0.004,0.192-0.109,0.286-0.112
				c0.094-0.004,0.188-0.029,0.286-0.036c0.094,0,0.202,0.224,0.297,0.221c0.072-0.004,0.122-0.3,0.209-0.315
				c0.087-0.021,0.163,0.022,0.232-0.007c0.094-0.04,0.054-0.05,0.079-0.112c0.036-0.087,0.214-0.12,0.246-0.207
				c0.036-0.087-0.058-0.224-0.025-0.314c0.032-0.087,0.047-0.181,0.076-0.271c0.028-0.087,0.13-0.152,0.159-0.243
				c0.028-0.086,0.286-0.098,0.318-0.188c0.029-0.09-0.21-0.271-0.181-0.358c0.028-0.087,0.064-0.178,0.094-0.264
				c0.029-0.091,0.043-0.185,0.072-0.275c0.029-0.09,0.21-0.126,0.239-0.221c0.028-0.086,0.173-0.137,0.202-0.231
				c0.029-0.087-0.181-0.101-0.152-0.195c-0.094,0-0.032-0.239-0.13-0.246s-0.191-0.051-0.289-0.058
				c-0.095-0.007-0.21,0.25-0.305,0.246c-0.098-0.007-0.195,0.011-0.289,0.003c-0.098-0.007-0.177-0.264-0.271-0.268
				c-0.098-0.011-0.206,0.203-0.3,0.199c-0.102-0.003-0.199,0.036-0.293,0.029c-0.098,0-0.185-0.13-0.282-0.134
				c-0.095-0.003-0.192,0.156-0.293,0.156c-0.095,0-0.188-0.213-0.283-0.213c-0.104,0-0.21,0.032-0.311,0.04
				c-0.102,0.015-0.225-0.047-0.326-0.029c-0.102,0.021-0.192,0.108-0.297,0.13c-0.101,0.018-0.173,0.217-0.275,0.239
				c-0.101,0.018-0.242-0.253-0.347-0.239c-0.094,0.007-0.181,0.065-0.275,0.072c-0.094,0-0.188,0.08-0.282,0.065
				c-0.098-0.014-0.261,0.102-0.34,0.062c-0.094-0.047-0.112-0.213-0.203-0.25c-0.094-0.033-0.167-0.13-0.26-0.159
				c-0.094-0.025-0.199-0.025-0.297-0.04c-0.094-0.014-0.213,0.178-0.308,0.167c-0.098-0.007-0.177-0.199-0.275-0.199
				c-0.098-0.007-0.199-0.174-0.3-0.174c-0.094,0.007-0.195,0.051-0.29,0.054c-0.101,0.004-0.191,0.138-0.286,0.145
				c-0.094,0.007-0.181,0.188-0.275,0.195c-0.098,0.007-0.207-0.174-0.308-0.167c-0.094,0.011-0.192,0.04-0.29,0.04
				C22.539,13.183,22.365,13.132,22.268,13.132z M27.109,17.203c0-0.04-0.058,0.065-0.058,0.025
				c-0.094,0.007-0.181-0.145-0.275-0.134c-0.094,0.007-0.181,0.094-0.275,0.101s-0.181,0.12-0.275,0.126
				c-0.094,0.007-0.192-0.032-0.286-0.025c-0.098,0.007-0.185,0.086-0.278,0.094c-0.094,0.007-0.195-0.108-0.29-0.101
				s-0.199-0.145-0.293-0.138c-0.094,0.007-0.163,0.33-0.257,0.336c-0.094,0.007-0.195-0.105-0.29-0.094
				c-0.094,0.007-0.203-0.138-0.297-0.127c-0.094,0.007-0.188,0.015-0.282,0.022c-0.094,0.007-0.17,0.221-0.264,0.231
				c-0.094,0.007-0.191-0.04-0.286-0.033c-0.094,0.007-0.177,0.134-0.271,0.141c-0.09,0.007-0.191-0.029-0.3,0.025
				c-0.137,0.069-0.463,0.12-0.459,0.17c0.011,0.094,0.018,0.185,0.033,0.279c0.007,0.09,0.174,0.167,0.181,0.257
				c0.015,0.09,0.188,0.159,0.199,0.253c0.011,0.087-0.242,0.217-0.231,0.308c0.011,0.09,0.264,0.148,0.278,0.239
				c0.015,0.09-0.209,0.228-0.191,0.314c0.018,0.094,0.293,0.127,0.318,0.217c0.021,0.09,0.018,0.181,0.047,0.268
				c0.021,0.087,0.021,0.181,0.054,0.268c0.025,0.072,0.105-0.007,0.243,0.029c0.094,0.029,0.166,0.159,0.278,0.174
				c0.105,0.014,0.207,0.126,0.315,0.134c0.116,0.007,0.228-0.04,0.322-0.04c0.098,0,0.199-0.101,0.293-0.101
				c0.102,0,0.196-0.025,0.293-0.025s0.191,0.228,0.289,0.228c0.098,0,0.199-0.282,0.293-0.282c0.094,0,0.195,0.062,0.289,0.062
				c0.098,0,0.196-0.062,0.29-0.062c0.098,0,0.195,0.152,0.297,0.152c0.094,0,0.188-0.138,0.29-0.138
				c0.098,0,0.195-0.025,0.289-0.025c0.094,0,0.196,0.069,0.297,0.069c0.094,0,0.195,0.232,0.293,0.232s0.192-0.282,0.29-0.282
				s0.199,0,0.293,0c0.094,0,0.188-0.025,0.289-0.029c0.099,0,0.196,0.156,0.294,0.152c0.098-0.003,0.198,0.116,0.293,0.112
				c0.101-0.003,0.188-0.282,0.289-0.286c0.098-0.004,0.199,0.311,0.297,0.304c0.098,0,0.195,0.036,0.297,0.029
				c0.072,0,0.119-0.275,0.206-0.308c0.076-0.025,0.127-0.076,0.191-0.116c0.087-0.058,0.348,0.007,0.358-0.055
				c0.019-0.098-0.174-0.239-0.155-0.34c0.021-0.098-0.008-0.203,0.007-0.3s0.155-0.177,0.174-0.279
				c0.015-0.101-0.138-0.221-0.123-0.322c0.015-0.102,0.231-0.174,0.246-0.275c0.011-0.102-0.007-0.207,0.004-0.3
				c0.007-0.102,0.094-0.195,0.098-0.3c0.007-0.102-0.062-0.207-0.059-0.308c0-0.054-0.188,0-0.304-0.072
				c-0.079-0.051-0.036-0.351-0.13-0.384c-0.105-0.043-0.254-0.029-0.333-0.033c-0.094-0.003-0.195,0.069-0.289,0.065
				c-0.095-0.004-0.196,0.148-0.29,0.148s-0.188-0.152-0.282-0.152s-0.195-0.072-0.289-0.072c-0.095,0-0.192,0.018-0.286,0.018
				s-0.191,0.207-0.286,0.207c-0.094,0-0.195-0.181-0.29-0.181s-0.195-0.167-0.29-0.167c-0.098,0-0.195,0.04-0.29,0.043
				C27.268,17.156,27.207,17.203,27.109,17.203z M23.766,28.491c0-0.021-0.051,0.094-0.051,0.072c-0.032,0-0.036-0.152-0.065-0.152
				c-0.087,0.008-0.174,0.095-0.268,0.095c-0.094,0-0.167,0.108-0.253,0.123c-0.094,0.014-0.17-0.008-0.239,0.043
				c-0.065,0.051-0.029,0.127-0.058,0.229c-0.025,0.068-0.152,0.134-0.152,0.234c0,0.095-0.156,0.203-0.148,0.297
				s0.33,0.159,0.344,0.25c0.011,0.094-0.087,0.199-0.069,0.289c0.018,0.094-0.108,0.221-0.083,0.314
				c0.029,0.095,0.062,0.188,0.09,0.275c0.033,0.091,0.257,0.105,0.293,0.188c0.043,0.09,0.033,0.195,0.08,0.271
				c0.051,0.087,0.188,0.079,0.25,0.147c0.069,0.073,0.069,0.178,0.141,0.218c0.087,0.054,0.152,0.318,0.239,0.314
				c0.094-0.004,0.195-0.011,0.29-0.011c0.094-0.007,0.184-0.163,0.278-0.166c0.094-0.004,0.185-0.174,0.279-0.178
				c0.094-0.004,0.203,0.261,0.296,0.257c0.094-0.007,0.181-0.25,0.279-0.253c0.094-0.004,0.203,0.238,0.296,0.231
				c0.094,0,0.178-0.268,0.279-0.275c0.094,0,0.188,0.022,0.282,0.015c0.094-0.007,0.195,0.015,0.29,0.015
				c0.094-0.007,0.185-0.102,0.282-0.108c0.094,0,0.195,0.108,0.296,0.108c0.094-0.007,0.195,0.094,0.29,0.087
				c0.094-0.008,0.188-0.062,0.282-0.065s0.185-0.115,0.279-0.123c0.094,0,0.191-0.036,0.286-0.04
				c0.094-0.003,0.202,0.221,0.301,0.214c0.094-0.007,0.173-0.3,0.268-0.308c0.094-0.007,0.195,0.055,0.289,0.047
				c0.094-0.007,0.191-0.072,0.286-0.079c0.094-0.008,0.195,0.134,0.293,0.13c0.094-0.007,0.181-0.151,0.274-0.151
				c0.095-0.012,0.188-0.037,0.282-0.044c0.095-0.007,0.163,0.036,0.271-0.021c0.095-0.055,0.329,0.065,0.409-0.015
				c0.087-0.087-0.08-0.322-0.047-0.412c0.04-0.095,0.068-0.182,0.102-0.275c0.028-0.094,0.032-0.188,0.054-0.282
				c0.025-0.102,0.199-0.159,0.214-0.261c0.021-0.094,0.159-0.173,0.174-0.274c0.014-0.098-0.254-0.231-0.239-0.333
				c0.011-0.094,0.333-0.167,0.34-0.268c0.008-0.062-0.007-0.239-0.051-0.322c-0.036-0.072-0.304,0.004-0.361-0.058
				c-0.068-0.069-0.091-0.069-0.155-0.083c-0.087-0.015-0.142-0.279-0.229-0.286c-0.094-0.011-0.202,0.195-0.289,0.188
				c-0.095-0.007-0.181,0.033-0.271,0.033c-0.091-0.008-0.174-0.131-0.265-0.131c-0.09,0-0.173,0.167-0.264,0.171
				c-0.091,0.003-0.188-0.207-0.275-0.199c-0.094,0.007-0.191,0.032-0.285,0.04c-0.095,0.007-0.195-0.062-0.297-0.062
				c-0.094,0.007-0.188,0.086-0.282,0.094c-0.095,0.007-0.182,0.195-0.275,0.195c-0.094,0.011-0.21-0.268-0.304-0.261
				c-0.094,0.008-0.188,0.065-0.282,0.072c-0.094,0.008-0.188,0.087-0.286,0.095c-0.098,0.007-0.181,0.173-0.275,0.181
				c-0.094,0.007-0.207-0.138-0.3-0.13c-0.094,0.007-0.195-0.059-0.293-0.051c-0.094,0.007-0.188,0.036-0.286,0.043
				c-0.094,0.008-0.177,0.217-0.271,0.225c-0.094,0.011-0.207-0.167-0.301-0.159c-0.094,0.007-0.206-0.156-0.304-0.152
				c-0.094,0.008-0.188,0.058-0.282,0.062c-0.094,0.008-0.181,0.142-0.282,0.148c-0.094,0.007-0.174,0.188-0.275,0.195
				c-0.094,0.008-0.203-0.174-0.3-0.166C23.932,28.549,23.86,28.483,23.766,28.491z M27.546,20.958
				c-0.098,0.007-0.191,0.163-0.286,0.174c-0.102,0.007-0.21-0.152-0.304-0.145c-0.102,0.007-0.192,0.098-0.29,0.105
				c-0.098,0.007-0.188,0.116-0.282,0.119c-0.102,0.007-0.203-0.033-0.297-0.025c-0.094,0.007-0.188,0.087-0.286,0.09
				c-0.098,0.007-0.203-0.104-0.297-0.101c-0.098,0.007-0.206-0.148-0.3-0.145c-0.101,0.007-0.174,0.329-0.275,0.333
				c-0.098,0.007-0.199-0.101-0.297-0.098c-0.094,0.007-0.203-0.141-0.296-0.134c-0.108,0.007-0.207,0.015-0.3,0.022
				c-0.105,0.007-0.192,0.217-0.282,0.224c-0.112,0.007-0.213-0.043-0.3-0.029c-0.116,0.014-0.181,0.145-0.268,0.167
				c-0.116,0.025-0.202-0.022-0.268,0.029c-0.087,0.062-0.354,0.036-0.38,0.145c-0.025,0.08-0.033,0.231-0.033,0.348
				c0.007,0.086,0.174,0.184,0.188,0.293c0.011,0.09,0.191,0.159,0.213,0.268c0.018,0.09-0.228,0.239-0.206,0.344
				c0.018,0.094,0.271,0.145,0.293,0.25c0.018,0.105-0.192,0.264-0.163,0.348c0.029,0.101,0.308,0.076,0.354,0.155
				c0.055,0.087,0.073,0.145,0.148,0.199c0.076,0.054,0.127,0.105,0.221,0.134c0.087,0.021,0.174-0.058,0.275-0.051
				c0.094,0.004,0.181,0.12,0.286,0.112c0.098-0.007,0.206,0.09,0.3,0.083c0.101-0.007,0.195-0.065,0.29-0.068
				c0.101-0.007,0.191-0.116,0.289-0.123c0.098-0.007,0.196-0.04,0.297-0.047c0.094-0.007,0.21,0.217,0.308,0.213
				c0.098-0.003,0.181-0.3,0.278-0.3c0.098-0.007,0.203,0.051,0.297,0.047c0.101-0.004,0.195-0.069,0.297-0.072
				c0.098-0.004,0.199,0.141,0.296,0.141c0.102,0,0.195-0.138,0.297-0.138c0.094,0,0.199-0.021,0.296-0.021s0.196,0.072,0.297,0.072
				c0.094,0.007,0.188,0.246,0.282,0.246c0.101,0.007,0.213-0.275,0.311-0.268c0.099,0.007,0.203,0.015,0.297,0.022
				c0.102,0.011,0.203,0,0.294,0.007c0.101,0.007,0.184,0.173,0.274,0.177c0.102,0.007,0.191,0.13,0.282,0.141
				c0.105,0.007,0.206-0.275,0.293-0.275c0.112,0,0.221,0.308,0.304,0.297c0.109-0.007,0.25-0.007,0.333-0.04
				c0.095-0.037,0.025-0.308,0.087-0.384c0.051-0.069,0.058-0.126,0.098-0.235c0.029-0.08,0.293-0.104,0.315-0.209
				c0.021-0.087-0.182-0.221-0.167-0.322c0.015-0.087-0.021-0.185-0.007-0.286c0.007-0.09,0.141-0.174,0.148-0.275
				c0.011-0.094-0.148-0.203-0.134-0.308c0-0.029,0.217-0.036,0.224-0.062c0.021-0.12,0.015-0.231,0.008-0.322
				c-0.011-0.119,0.007-0.271-0.051-0.347c-0.062-0.076-0.21-0.094-0.326-0.126c-0.087-0.033-0.21,0.13-0.325,0.123
				c-0.102-0.007-0.185-0.297-0.282-0.304c-0.098-0.011-0.199,0.036-0.297,0.029c-0.102-0.007-0.202,0.058-0.304,0.05
				c-0.098-0.007-0.21,0.145-0.312,0.138c-0.101-0.007-0.188-0.167-0.282-0.174c-0.101-0.007-0.188-0.087-0.289-0.101
				c-0.102-0.007-0.199,0.007-0.297-0.007c-0.102-0.007-0.217,0.192-0.315,0.181C27.724,21.233,27.641,20.965,27.546,20.958z
				 M31.111,24.663c-0.095,0.015-0.243,0.152-0.337,0.174c-0.094,0.018-0.221-0.123-0.314-0.102
				c-0.095,0.015-0.167,0.12-0.261,0.134c-0.098,0.015-0.181,0.134-0.275,0.141c-0.094,0.007-0.198-0.032-0.293-0.032
				c-0.098,0-0.191,0.072-0.293,0.072c-0.094,0-0.188-0.12-0.289-0.12c-0.098,0-0.192-0.163-0.29-0.163s-0.195,0.315-0.289,0.315
				c-0.102,0-0.195-0.12-0.29-0.12c-0.101,0-0.195-0.156-0.293-0.156s-0.192,0.007-0.293,0.007c-0.094,0-0.195,0.203-0.29,0.203
				c-0.098,0-0.192-0.062-0.29-0.062s-0.192,0.12-0.29,0.12c-0.101,0-0.195-0.08-0.289-0.08c-0.102,0-0.196-0.253-0.29-0.253
				c-0.098,0-0.192,0-0.29,0c-0.102,0-0.195,0.152-0.29,0.152c-0.101,0-0.195,0.167-0.293,0.167s-0.192-0.268-0.29-0.271
				c-0.098,0-0.192,0.239-0.293,0.239c-0.094,0-0.188-0.25-0.29-0.25c-0.098,0-0.192,0.264-0.29,0.264s-0.195-0.025-0.289-0.025
				c-0.102,0-0.196-0.029-0.29-0.029c-0.102,0-0.195,0.094-0.29,0.094c-0.076,0-0.159-0.087-0.253-0.033
				c-0.083,0.047-0.231,0.033-0.293,0.094c-0.083,0.083-0.112,0.213-0.119,0.286c-0.007,0.101,0.086,0.195,0.086,0.29
				c-0.007,0.101,0.022,0.188,0.029,0.282c0.003,0.098-0.217,0.217-0.203,0.304c0.014,0.102,0.314,0.134,0.34,0.225
				c0.022,0.094-0.014,0.188,0.022,0.271c0.04,0.091,0.126,0.127,0.173,0.199c0.055,0.08-0.014,0.235,0.055,0.304
				c0.068,0.065,0.213,0.007,0.293,0.058s0.145,0.062,0.235,0.094c0.087,0.037,0.134,0.123,0.232,0.145
				c0.09,0.021,0.141,0.268,0.242,0.282c0.087,0.008,0.199-0.271,0.297-0.271c0.09,0,0.173,0,0.275-0.003
				c0.09-0.007,0.174-0.033,0.275-0.051c0.101-0.007,0.228,0.126,0.329,0.108c0.102-0.021,0.228,0.072,0.333,0.051
				c0.101-0.021,0.141-0.318,0.242-0.34c0.102-0.029,0.275,0.253,0.376,0.225c0.102-0.025,0.21-0.015,0.311-0.036
				c0.102-0.022,0.148-0.304,0.25-0.326c0.083-0.018,0.185-0.051,0.271-0.051c0.087-0.007,0.163,0.253,0.246,0.261
				c0.09,0.007,0.21-0.199,0.297-0.188c0.094,0.015,0.195-0.021,0.282-0.011c0.094,0.011,0.173,0.148,0.26,0.159
				c0.095,0.011,0.207-0.141,0.297-0.126c0.091,0.007,0.159,0.231,0.254,0.239c0.09,0.014,0.188-0.004,0.278,0.003
				c0.094,0.011,0.181,0.098,0.271,0.098c0.094,0.007,0.188-0.058,0.282-0.054c0.094,0.004,0.188-0.177,0.275-0.185
				c0.079,0,0.224,0.246,0.314,0.199c0.076-0.04,0.141-0.141,0.206-0.207c0.072-0.054,0.087-0.181,0.138-0.246
				c0.062-0.076-0.044-0.21-0.019-0.282c0.029-0.087,0.199-0.123,0.221-0.214c0.029-0.086,0.116-0.163,0.138-0.253
				c0.019-0.091,0.019-0.185,0.036-0.275c0.021-0.091-0.166-0.214-0.151-0.308c0.018-0.094,0.213-0.148,0.228-0.243
				c0.018-0.09,0.199-0.152,0.214-0.242c0.018-0.09-0.008-0.188,0.011-0.279C31.158,24.938,31.097,24.75,31.111,24.663z
				 M24.652,12.412c0.102,0,0.286-0.108,0.387-0.108c0.102,0,0.203,0.159,0.3,0.159c0.102,0,0.203-0.087,0.3-0.087
				c0.102,0,0.203-0.101,0.304-0.101c0.101,0,0.203,0.047,0.304,0.047c0.102,0,0.203-0.072,0.297-0.072
				c0.105,0,0.203,0.119,0.304,0.119c0.102,0,0.203,0.167,0.304,0.167c0.101,0,0.199-0.318,0.3-0.318c0.101,0,0.199,0.116,0.3,0.116
				c0.101,0,0.203,0.156,0.304,0.156c0.102,0,0.199-0.003,0.297-0.003c0.102,0,0.203-0.203,0.301-0.203s0.199,0.058,0.297,0.058
				s0.083-0.051,0.181-0.051c-0.036-0.101-0.011-0.101-0.047-0.188c-0.036-0.101,0.159-0.286,0.123-0.373
				c-0.044-0.102-0.083-0.203-0.123-0.286c-0.051-0.098-0.239-0.123-0.29-0.202c-0.058-0.087-0.238-0.051-0.308-0.116
				c-0.075-0.065-0.007-0.34-0.104-0.387c-0.08-0.04-0.254,0.155-0.362,0.134c-0.087-0.018-0.156-0.275-0.268-0.282
				c-0.087-0.007-0.203,0.253-0.312,0.253c-0.094,0-0.188-0.025-0.296-0.021c-0.094,0.003-0.195-0.021-0.3-0.021
				c-0.094,0.007-0.192,0.104-0.297,0.108c-0.098,0.003-0.206-0.108-0.311-0.102c-0.108,0.007-0.221-0.086-0.308-0.062
				c-0.101,0.025-0.188,0.109-0.268,0.148c-0.094,0.051-0.102,0.188-0.174,0.253c-0.069,0.065-0.094,0.141-0.148,0.224
				c-0.054,0.08-0.3,0.051-0.344,0.145c-0.043,0.087,0.177,0.296,0.138,0.387c-0.036,0.09-0.134,0.155-0.174,0.246
				C24.923,12.231,24.699,12.325,24.652,12.412z M25.513,7.969c-0.007,0.102,0.116,0.261,0.112,0.354
				c-0.004,0.102-0.167,0.188-0.167,0.282c0,0.102,0.083,0.199,0.087,0.286c0.007,0.101,0.116,0.184,0.13,0.271
				c0.015,0.102-0.007,0.195,0.022,0.275c0.036,0.094,0.13,0.116,0.188,0.188c0.062,0.072,0.051,0.21,0.138,0.253
				c0.08,0.037,0.137,0.225,0.231,0.25c0.087,0.018,0.228-0.279,0.333-0.268c0.087,0.007,0.17,0.127,0.275,0.127
				c0.087,0,0.188,0.155,0.282,0.152c0.094-0.003,0.188-0.011,0.293-0.015c0.094-0.003,0.185-0.224,0.297-0.257
				c0.112-0.025,0.231-0.007,0.326-0.047c0.134-0.062,0.108-0.134,0.119-0.203c0.015-0.098,0.095-0.177,0.102-0.275
				s0.261-0.195,0.254-0.297c0-0.094,0-0.203-0.012-0.3c-0.007-0.098-0.17-0.185-0.181-0.282s-0.185-0.177-0.195-0.275
				s0.246-0.228,0.235-0.322c-0.007-0.043-0.268,0.021-0.377-0.007c-0.086-0.025-0.173-0.286-0.239-0.279
				c-0.094,0.011-0.155,0.282-0.246,0.293c-0.09,0.015-0.188-0.003-0.275,0.007c-0.094,0.015-0.188,0-0.282,0.015
				c-0.086,0.007-0.167,0.116-0.26,0.13c-0.087,0.014-0.199-0.091-0.29-0.076c-0.09,0.018-0.195-0.076-0.29-0.062
				c-0.09,0.015-0.173,0.08-0.268,0.094C25.77,7.991,25.607,7.955,25.513,7.969z M27.872,6.551
				c-0.105-0.058-0.322-0.058-0.401-0.112c-0.102-0.069-0.102-0.264-0.177-0.315c-0.12-0.072-0.271-0.051-0.355-0.036
				c-0.083,0.015-0.108,0.137-0.184,0.192c-0.065,0.047-0.159,0.065-0.225,0.126c-0.065,0.054-0.047,0.087-0.116,0.138
				c0.069,0.08,0.022,0.195,0.087,0.289c0.087,0.116,0.195,0.391,0.275,0.384c0.083-0.007,0.102-0.336,0.195-0.376
				c0.08-0.036,0.207,0.025,0.297-0.029c0.076-0.043,0.231,0.043,0.318-0.007C27.666,6.761,27.782,6.594,27.872,6.551z"/>
		</g>
		<g>
			<path d="M27.897,43.347c0.076,0.036,0.225,0.105,0.312,0.138c0.087,0.036,0.072,0.297,0.145,0.333
				c0.084,0.043,0.33-0.083,0.377-0.011c0.064,0.083-0.167,0.329-0.131,0.431c0.036,0.098,0.405,0.112,0.424,0.217
				c0.018,0.108-0.301,0.253-0.301,0.361c0,0.048-0.047-0.032-0.174,0.029c-0.126,0.072-0.079,0.167-0.108,0.145
				c-0.072-0.064-0.152-0.101-0.214-0.181c-0.062-0.072-0.351-0.007-0.401-0.094s0.229-0.312,0.195-0.405
				c-0.025-0.08-0.08-0.12-0.08-0.21c0-0.087-0.141-0.178-0.134-0.268c0.007-0.091-0.054-0.178-0.054-0.265
				C27.753,43.567,27.861,43.347,27.897,43.347z"/>
		</g>
	</g>
</g>
</svg>
