<?xml version="1.0" encoding="utf-8"?>
<!-- Generator: Adobe Illustrator 16.0.0, SVG Export Plug-In . SVG Version: 6.00 Build 0)  -->
<!DOCTYPE svg PUBLIC "-//W3C//DTD SVG 1.1//EN" "http://www.w3.org/Graphics/SVG/1.1/DTD/svg11.dtd">
<svg version="1.1" id="圖層_1" xmlns="http://www.w3.org/2000/svg" xmlns:xlink="http://www.w3.org/1999/xlink" x="0px" y="0px"
	 width="55px" height="55px" viewBox="0 0 55 55" enable-background="new 0 0 55 55" xml:space="preserve">
<g>
	<path d="M6.853,10.91c-0.112,0-0.071-0.281-0.194-0.281c-0.111-0.012-0.24,0.381-0.357,0.375c-0.117,0-0.223-0.369-0.34-0.369
		s-0.234,0.117-0.352,0.123c-0.117,0.012-0.199,0.211-0.317,0.229c-0.117,0.029-0.305-0.188-0.41-0.141
		c-0.105,0.053-0.199,0.088-0.293,0.117c-0.123,0.035-0.199,0.194-0.299,0.194c-0.123,0.012-0.158-0.217-0.252-0.258
		c-0.106-0.047-0.27,0.059-0.352-0.035c-0.07-0.082,0.064-0.27,0.012-0.375c-0.047-0.094-0.375-0.082-0.41-0.199
		c-0.047-0.111-0.105-0.234-0.129-0.352s0.234-0.27,0.234-0.375c0-0.129-0.293-0.287-0.264-0.398
		c0.023-0.117,0.422-0.094,0.475-0.188c0.059-0.105,0.059-0.193,0.146-0.27c0.088-0.082,0.129-0.164,0.24-0.211
		c0.106-0.047,0.176-0.188,0.299-0.211c0.111-0.012,0.217-0.059,0.334-0.077C4.731,8.19,4.848,8.178,4.959,8.167
		s0.246,0.2,0.357,0.188c0.118-0.012,0.2-0.282,0.311-0.293s0.24,0.094,0.352,0.082c0.111-0.006,0.217-0.082,0.334-0.094
		c0.105-0.012,0.234,0.123,0.346,0.117C6.771,8.155,6.894,8.202,7.005,8.19s0.217-0.117,0.328-0.135
		c0.111-0.012,0.199-0.229,0.305-0.252c0.117-0.012,0.264,0.24,0.375,0.223s0.188-0.211,0.293-0.24
		c0.111-0.029,0.199-0.117,0.305-0.146c0.1-0.035,0.211-0.041,0.316-0.07C9.033,7.534,9.139,7.51,9.244,7.475
		c0.1-0.035,0.199-0.1,0.305-0.129c0.106-0.035,0.258,0.129,0.364,0.105c0.111-0.023,0.188-0.223,0.293-0.234
		c0.105-0.023,0.223-0.105,0.328-0.111c0.111-0.006,0.223,0.135,0.334,0.141c0.111,0,0.206,0.17,0.317,0.17
		c0.111,0.006,0.229-0.258,0.34-0.252s0.182,0.357,0.287,0.369c0.111,0.012,0.258-0.328,0.363-0.316s0.205,0.111,0.317,0.123
		c0.105,0.012,0.223-0.111,0.328-0.094c0.111,0.012,0.193,0.252,0.305,0.264c0.105,0.006,0.217-0.041,0.328-0.035
		c0.105,0,0.211-0.141,0.316-0.141c0.112,0,0.217,0.07,0.323,0.059c0.111,0,0.234,0.234,0.346,0.223
		c0.105-0.012,0.199-0.111,0.311-0.123c0.111-0.018,0.229,0.076,0.334,0.059c0.111-0.012,0.223-0.029,0.329-0.041
		s0.176-0.316,0.281-0.334c0.111-0.012,0.234,0.064,0.334,0.053c0.111-0.012,0.217,0.035,0.328,0.023
		c0.111-0.006,0.217-0.059,0.329-0.07c0.111-0.012,0.229,0.012,0.334,0c0.117-0.012,0.199-0.223,0.316-0.234
		c0.105-0.012,0.258,0.316,0.363,0.305c0.111-0.012,0.193-0.316,0.305-0.328c0.112-0.012,0.223-0.023,0.334-0.035
		c0.111-0.006,0.246,0.258,0.357,0.252c0.105-0.006,0.223,0.047,0.334,0.041s0.211-0.299,0.322-0.305
		c0.117,0,0.223,0.141,0.34,0.141c0.105,0,0.223-0.018,0.328-0.012c0.105,0,0.234-0.206,0.34-0.2
		c0.105,0.012,0.199,0.206,0.305,0.217c0.105,0.018,0.211,0.088,0.311,0.1c0.111,0.012,0.229-0.07,0.328-0.064
		c0.111,0.018,0.193,0.281,0.293,0.293c0.111,0.006,0.217,0.029,0.322,0.035S22.139,7.1,22.25,7.1c0.112,0,0.217,0.246,0.329,0.246
		c0.1-0.006,0.193-0.281,0.299-0.293s0.205-0.012,0.311-0.035c0.1-0.018,0.229,0.07,0.334,0.035
		c0.105-0.029,0.217-0.059,0.329-0.088c0.105-0.029,0.234,0.053,0.346,0.029s0.188-0.211,0.299-0.229s0.234,0.124,0.352,0.118
		c0.105-0.006,0.211-0.147,0.323-0.147c0.111,0,0.217,0.129,0.328,0.141c0.111,0.006,0.205,0.047,0.311,0.07
		c0.111,0.012,0.287-0.27,0.398-0.241c0.105,0.023,0.141,0.288,0.246,0.329s0.141,0.188,0.247,0.24
		c0.1,0.047,0.328-0.141,0.422-0.082s0.176,0.146,0.27,0.217c0.082,0.059,0.188-0.053,0.305-0.023
		c0.094,0.023,0.152,0.398,0.258,0.398c0.105,0.006,0.223-0.117,0.328-0.123c0.105-0.012,0.193-0.17,0.293-0.188
		c0.105-0.023,0.211-0.023,0.316-0.047c0.1-0.023,0.287,0.193,0.387,0.164c0.105-0.035,0.117-0.328,0.205-0.363
		c0.105-0.047,0.275,0.082,0.381,0.041s0.141-0.258,0.247-0.293c0.111-0.041,0.211-0.105,0.316-0.135
		c0.111-0.029,0.287,0.235,0.398,0.206c0.105-0.018,0.205-0.018,0.316-0.035C31.254,7,31.342,6.748,31.447,6.748
		c0.117-0.012,0.211,0.235,0.328,0.247c0.105,0.012,0.252-0.317,0.363-0.293c0.105,0.012,0.246-0.012,0.352,0.023
		c0.105,0.023,0.141,0.293,0.252,0.329C32.848,7.088,33.019,6.959,33.124,7s0.199,0.123,0.305,0.17
		c0.094,0.047,0.152,0.164,0.258,0.199s0.252-0.123,0.363-0.1c0.1,0.029,0.188,0.064,0.293,0.082s0.205,0.018,0.316,0.029
		c0.105,0.012,0.193,0.24,0.305,0.24c0.105,0.006,0.211-0.129,0.322-0.135c0.111,0,0.229,0.193,0.334,0.188
		c0.106-0.012,0.218-0.059,0.329-0.07c0.105-0.012,0.188-0.188,0.293-0.199c0.111-0.023,0.223,0.006,0.328-0.023
		c0.105-0.023,0.246,0.07,0.352,0.041c0.117-0.029,0.223-0.047,0.34-0.076c0.105-0.023,0.199-0.105,0.311-0.129
		c0.111-0.029,0.229-0.047,0.334-0.059c0.111-0.023,0.223-0.059,0.328-0.076c0.117-0.018,0.229-0.041,0.341-0.047
		c0.111-0.006,0.234-0.076,0.346-0.07s0.217,0.135,0.328,0.158c0.111,0.018,0.217,0.035,0.328,0.07
		c0.1,0.035,0.193,0.094,0.299,0.141s0.117,0.217,0.217,0.281c0.088,0.053,0.311-0.07,0.404,0c0.082,0.064,0.129,0.252,0.246,0.293
		c0.105,0.035,0.24,0.082,0.363,0.094c0.105,0.012,0.241-0.141,0.364-0.141c0.105,0,0.246,0.246,0.363,0.234
		s0.188-0.398,0.305-0.422c0.117-0.012,0.299,0.305,0.41,0.27c0.117-0.029,0.246-0.07,0.352-0.111
		c0.117-0.041,0.094-0.416,0.188-0.463c0.117-0.047,0.188-0.094,0.27-0.152c0.1-0.07,0.258-0.129,0.369-0.176
		s0.287,0.035,0.41,0.012c0.124-0.018,0.235,0.217,0.353,0.234c0.105,0.012,0.264-0.375,0.375-0.363s0.205,0.094,0.311,0.105
		c0.111,0.012,0.229-0.047,0.34-0.023c0.105,0.012,0.211,0.035,0.316,0.047c0.111,0.012,0.176,0.34,0.281,0.357
		c0.111,0.012,0.258-0.287,0.369-0.27s0.199,0.17,0.311,0.188c0.105,0.012,0.229-0.105,0.341-0.088
		c0.105,0.012,0.199,0.141,0.305,0.152c0.111,0.012,0.234-0.07,0.34-0.059s0.182,0.346,0.293,0.363
		c0.105,0.012,0.211,0.082,0.316,0.094s0.229-0.105,0.334-0.094c0.111,0.012,0.205,0.141,0.316,0.152s0.24-0.275,0.346-0.27
		c0.111,0.006,0.223-0.035,0.328-0.029c0.111,0.006,0.212,0.252,0.317,0.264c0.111,0,0.217,0.111,0.328,0.111
		c0.105,0.006,0.217-0.129,0.328-0.129c0.105,0,0.217-0.182,0.328-0.182c0.105,0,0.217,0.023,0.328,0.018
		c0.105-0.006,0.223,0.146,0.328,0.135c0.129-0.006,0.258-0.182,0.369-0.17c0.129,0.018,0.164,0.287,0.264,0.334
		c0.111,0.059,0.234,0.023,0.316,0.111c0.071,0.088,0.224,0.135,0.271,0.247c0.047,0.1-0.182,0.275-0.164,0.404
		c0.023,0.105,0.246,0.188,0.258,0.316c0,0.105,0.152,0.234,0.146,0.357c-0.006,0.135-0.164,0.252-0.182,0.358
		c-0.035,0.129-0.164,0.199-0.223,0.293c-0.064,0.105-0.177,0.088-0.271,0.158c-0.094,0.064-0.129,0.111-0.258,0.141
		c-0.105,0.029-0.193,0.404-0.322,0.404c-0.111,0-0.217-0.352-0.346-0.369c-0.117-0.018-0.246-0.076-0.34-0.082
		c-0.129-0.006-0.252,0.158-0.346,0.176c-0.123,0.029-0.246,0.064-0.322,0.141c-0.076,0.064-0.094,0.193-0.129,0.322
		c-0.023,0.094-0.141,0.2-0.129,0.329c0,0.105-0.018,0.234,0,0.357c0.018,0.111,0.17,0.205,0.182,0.311
		c0.018,0.111,0.211,0.211,0.217,0.316c0.012,0.117-0.305,0.258-0.299,0.364c0.006,0.117,0.275,0.211,0.275,0.328
		c0,0.111-0.064,0.223-0.064,0.34c0,0.111-0.24,0.223-0.24,0.328c-0.006,0.117,0.152,0.234,0.141,0.346
		c0,0.111-0.141,0.217-0.146,0.322c-0.006,0.117-0.047,0.223-0.053,0.328c-0.012,0.117,0.076,0.234,0.059,0.346
		c-0.012,0.111,0.059,0.229,0.047,0.34c-0.018,0.112-0.029,0.229-0.047,0.334c-0.012,0.111,0.146,0.246,0.129,0.363
		c-0.018,0.105-0.152,0.199-0.176,0.316c-0.012,0.105-0.012,0.223-0.035,0.334c-0.023,0.112-0.281,0.17-0.305,0.288
		c-0.023,0.105,0.305,0.281,0.287,0.393s-0.252,0.182-0.275,0.287c-0.023,0.111,0.012,0.234-0.012,0.34
		c-0.023,0.111-0.076,0.211-0.094,0.329c-0.024,0.105-0.229,0.182-0.247,0.293c-0.023,0.105,0.259,0.281,0.234,0.393
		c-0.023,0.111-0.375,0.158-0.398,0.264s-0.012,0.229-0.029,0.34c-0.018,0.105-0.076,0.217-0.088,0.316
		c-0.012,0.111,0.199,0.246,0.199,0.352c-0.012,0.105-0.246,0.211-0.246,0.316c0,0.111,0.246,0.223,0.246,0.328
		c0.006,0.105-0.094,0.223-0.082,0.329c0.006,0.111,0.234,0.193,0.252,0.305c0.012,0.105-0.322,0.264-0.299,0.375
		c0.012,0.105,0.422,0.135,0.445,0.246c0.024,0.1-0.34,0.293-0.316,0.393c0.023,0.105,0.129,0.193,0.152,0.299
		s0.177,0.182,0.2,0.293c0.029,0.105,0.117,0.199,0.141,0.305c0.023,0.111,0.006,0.234,0.035,0.34
		c0.018,0.106,0.211,0.188,0.229,0.293s-0.111,0.246-0.088,0.357s0.141,0.205,0.164,0.311c0.012,0.105-0.27,0.27-0.246,0.375
		c0.012,0.106,0.258,0.188,0.27,0.293c0.023,0.105-0.105,0.234-0.094,0.352c0.018,0.111,0.188,0.199,0.199,0.311
		s0.105,0.217,0.117,0.322c0.006,0.105-0.281,0.252-0.27,0.364c0.012,0.111,0.322,0.193,0.328,0.305
		c0.012,0.117-0.105,0.234-0.1,0.346s-0.1,0.229-0.1,0.346c0.012,0.105,0.059,0.217,0.064,0.329c0.006,0.111,0.17,0.217,0.176,0.322
		c0.006,0.111-0.188,0.229-0.182,0.346c0,0.105,0.035,0.217,0.041,0.328s-0.123,0.223-0.123,0.334s0.152,0.217,0.152,0.334
		c0,0.105,0.035,0.223,0.029,0.328c-0.006,0.118-0.111,0.224-0.111,0.329c0,0.117,0.182,0.229,0.176,0.34
		c0,0.117,0.018,0.223,0.012,0.334c0,0.111,0.006,0.229,0,0.334c0,0.111-0.035,0.223-0.041,0.328
		c-0.006,0.117,0.029,0.223,0.029,0.34c-0.006,0.111-0.281,0.205-0.281,0.316c-0.006,0.117,0.258,0.234,0.258,0.352
		c-0.006,0.105-0.328,0.199-0.334,0.317c-0.006,0.111,0.158,0.229,0.158,0.34c-0.006,0.111,0.029,0.223,0.029,0.328
		c0,0.117-0.27,0.223-0.27,0.34c0,0.105,0.07,0.223,0.07,0.334s-0.076,0.223-0.076,0.334c0.006,0.117,0.006,0.246,0.023,0.363
		c0.012,0.111,0.381,0.182,0.398,0.299c0.018,0.111-0.164,0.258-0.141,0.369c0.018,0.118-0.082,0.259-0.059,0.37
		s0.328,0.164,0.357,0.275s-0.012,0.24,0.006,0.352c0.029,0.117-0.059,0.252-0.041,0.363c0.023,0.117,0.281,0.188,0.299,0.299
		s-0.117,0.252-0.105,0.369s-0.111,0.234-0.105,0.352c0.012,0.117,0.264,0.229,0.258,0.34c0,0.105-0.34,0.212-0.34,0.317
		c-0.006,0.111,0.293,0.234,0.281,0.346c0,0.105-0.27,0.205-0.27,0.311c-0.012,0.111,0.164,0.234,0.152,0.34
		c-0.012,0.111,0.094,0.234,0.082,0.34s-0.176,0.211-0.188,0.316c-0.006,0.105,0.223,0.24,0.217,0.352
		c-0.006,0.105-0.445,0.176-0.451,0.287c-0.012,0.111,0.229,0.24,0.211,0.357c-0.012,0.106-0.082,0.212-0.094,0.317
		c-0.012,0.111,0.117,0.234,0.105,0.352c-0.018,0.105-0.34,0.176-0.352,0.293c-0.012,0.105,0.176,0.24,0.164,0.346
		c-0.012,0.111,0,0.217-0.012,0.334c-0.018,0.105,0.152,0.234,0.141,0.352c-0.012,0.105-0.281,0.188-0.287,0.293
		c-0.012,0.105,0.111,0.234,0.1,0.34c-0.012,0.111-0.229,0.2-0.24,0.312c-0.018,0.105,0.076,0.229,0.064,0.34
		c-0.006,0.088-0.094,0.135-0.129,0.217s0.094,0.223,0.07,0.305c-0.029,0.1-0.357,0.141-0.375,0.258
		c-0.023,0.117,0.24,0.281,0.217,0.398c-0.018,0.117,0.041,0.246,0.018,0.357c-0.029,0.117-0.229,0.193-0.258,0.299
		c-0.035,0.123-0.153,0.188-0.2,0.281c-0.059,0.117,0.047,0.417-0.047,0.47c-0.1,0.059-0.27,0.012-0.375,0.059
		s-0.188,0.199-0.299,0.234s-0.24,0.047-0.357,0.07c-0.105,0.029-0.27-0.182-0.387-0.164c-0.111,0.018-0.223-0.012-0.34,0
		c-0.117,0.018-0.223,0.182-0.34,0.188c-0.111,0.006-0.234-0.234-0.352-0.223c-0.117,0-0.223,0.023-0.341,0.023
		c-0.111,0-0.229,0.316-0.34,0.316s-0.229,0.07-0.34,0.07c-0.117,0-0.223-0.258-0.34-0.258s-0.234,0.164-0.352,0.164
		c-0.111,0-0.223,0.07-0.34,0.07c-0.105,0-0.223,0-0.34,0c-0.111,0-0.223-0.023-0.34-0.023c-0.111,0-0.223-0.299-0.328-0.305
		c-0.118,0-0.235,0.135-0.353,0.135c-0.105-0.006-0.217-0.188-0.334-0.193c-0.111,0-0.24,0.322-0.352,0.316
		c-0.111,0-0.229-0.012-0.346-0.012c-0.105-0.006-0.223-0.006-0.34-0.012c-0.105,0-0.217-0.182-0.334-0.188
		c-0.111,0-0.234,0.164-0.346,0.164c-0.111-0.006-0.223-0.035-0.34-0.041c-0.111-0.006-0.229,0-0.341-0.006
		c-0.117,0-0.217-0.334-0.334-0.34c-0.117,0-0.234,0.141-0.346,0.141c-0.111-0.006-0.229,0.123-0.346,0.117
		c-0.111,0-0.217-0.135-0.334-0.141c-0.105,0-0.223,0.176-0.34,0.176c-0.111-0.006-0.217-0.188-0.328-0.188
		c-0.117-0.006-0.234,0.182-0.34,0.176c-0.117,0-0.224-0.129-0.335-0.129s-0.223-0.176-0.334-0.176
		c-0.111-0.006-0.229,0.275-0.34,0.27c-0.117,0-0.223-0.287-0.334-0.293c-0.111,0-0.223,0.035-0.334,0.035
		c-0.117-0.006-0.234,0.117-0.34,0.117c-0.117-0.006-0.223-0.064-0.34-0.064c-0.111-0.006-0.229,0.188-0.34,0.182
		c-0.111,0-0.223-0.006-0.34-0.006c-0.106,0-0.218-0.117-0.329-0.123c-0.117,0-0.223-0.047-0.34-0.047
		c-0.111-0.006-0.223-0.094-0.334-0.094s-0.229,0.252-0.34,0.252c-0.111-0.006-0.217-0.381-0.328-0.381s-0.229,0.117-0.346,0.117
		c-0.105,0-0.223,0.141-0.34,0.141c-0.105,0-0.217-0.176-0.328-0.182c-0.118-0.006-0.224-0.111-0.341-0.111
		c-0.111,0-0.234,0.398-0.34,0.398c-0.117-0.006-0.223-0.264-0.34-0.264c-0.105-0.006-0.223,0.158-0.34,0.158
		c-0.105-0.012-0.223,0.094-0.34,0.094c-0.111-0.006-0.217-0.27-0.328-0.275c-0.117-0.006-0.223,0.041-0.34,0.041
		c-0.111,0-0.223-0.164-0.328-0.164c-0.117-0.006-0.234,0.305-0.353,0.305c-0.105-0.012-0.223-0.1-0.334-0.1
		c-0.111-0.006-0.217-0.158-0.334-0.158c-0.105-0.006-0.223,0.141-0.34,0.141c-0.111,0-0.223-0.088-0.334-0.094
		c-0.111,0-0.229,0.176-0.346,0.176c-0.105-0.006-0.217,0.035-0.328,0.035c-0.106-0.012-0.211-0.394-0.317-0.394
		s-0.223,0.023-0.328,0.023c-0.105-0.006-0.223,0.265-0.328,0.259c-0.111-0.006-0.223,0.053-0.328,0.053
		c-0.112,0-0.211-0.246-0.329-0.246c-0.105-0.006-0.217,0.094-0.328,0.094s-0.223,0.023-0.328,0.018
		c-0.111-0.006-0.217-0.047-0.328-0.047c-0.105-0.006-0.223,0.053-0.329,0.053c-0.105-0.006-0.217-0.188-0.328-0.188
		c-0.105,0-0.217,0.071-0.328,0.071c-0.105-0.006-0.223,0.176-0.328,0.164c-0.105,0-0.217-0.212-0.329-0.212
		c-0.105,0-0.211-0.1-0.328-0.1c-0.105,0-0.223,0.288-0.328,0.288s-0.223,0-0.328,0s-0.217-0.259-0.322-0.259
		c-0.112,0-0.229,0.317-0.334,0.317s-0.217-0.053-0.328-0.053c-0.105,0-0.223,0.053-0.328,0.053s-0.211-0.117-0.328-0.117
		c-0.105,0-0.223-0.165-0.329-0.165c-0.105-0.006-0.223,0.018-0.328,0.018s-0.223-0.1-0.328-0.1s-0.211,0.212-0.328,0.212
		c-0.105,0.012-0.223-0.142-0.329-0.13c-0.111,0-0.217,0.083-0.328,0.095c-0.105,0.012-0.211,0.018-0.328,0.029
		c-0.105,0.006-0.199,0.164-0.305,0.17c-0.111,0.018-0.234-0.094-0.34-0.088c-0.106,0.018-0.235-0.165-0.346-0.146
		c-0.111,0.012-0.217,0.035-0.322,0.047s-0.211,0.105-0.316,0.117s-0.188,0.27-0.305,0.281c-0.105,0.012-0.235-0.152-0.34-0.141
		c-0.094,0.006-0.205,0.023-0.305,0.023c-0.111,0-0.223,0.018-0.311-0.018c-0.1-0.041-0.17-0.176-0.275-0.211
		s-0.217-0.059-0.328-0.094c-0.106-0.03-0.223-0.019-0.329-0.042c-0.105-0.029-0.211-0.094-0.316-0.123
		c-0.105-0.023-0.27,0.247-0.375,0.229s-0.176-0.353-0.281-0.364s-0.229,0.059-0.34,0.047c-0.105-0.012-0.223,0.018-0.328,0.012
		c-0.111-0.006-0.223,0.012-0.34,0.006c-0.105-0.006-0.217-0.076-0.328-0.076c-0.105,0-0.217,0.164-0.323,0.164
		c-0.111,0-0.223,0.023-0.328,0.023c-0.111,0-0.229-0.176-0.334-0.176c-0.117,0.006-0.229-0.076-0.34-0.07
		c-0.105,0-0.217,0.006-0.329,0.012c-0.111,0-0.217,0.076-0.328,0.082c-0.111,0-0.211,0.234-0.322,0.24s-0.229-0.088-0.334-0.088
		c-0.111,0.006-0.223,0.13-0.328,0.13c-0.112,0-0.223-0.3-0.329-0.3c-0.117,0-0.223,0.1-0.34,0.1
		c-0.105-0.006-0.211-0.053-0.328-0.059c-0.105-0.012-0.217,0.006-0.328,0c-0.105-0.012-0.2-0.152-0.311-0.164
		s-0.252,0.199-0.369,0.188c-0.111-0.012-0.234,0.047-0.34,0.035c-0.117-0.006-0.234-0.041-0.34-0.047
		c-0.117-0.012-0.241,0.029-0.352,0.023c-0.117-0.018-0.199-0.293-0.305-0.311c-0.117-0.018-0.24,0.053-0.352,0.029
		c-0.094-0.023-0.305,0.053-0.398-0.035c-0.082-0.07-0.188-0.193-0.247-0.287c-0.07-0.111-0.064-0.293-0.07-0.393
		c-0.012-0.105,0.141-0.234,0.129-0.346s-0.077-0.217-0.088-0.328c-0.018-0.111,0.018-0.229,0.006-0.334
		c-0.012-0.117-0.193-0.205-0.205-0.316s0-0.223-0.012-0.34c-0.018-0.106,0.182-0.241,0.17-0.353s-0.129-0.211-0.141-0.322
		s-0.252-0.199-0.264-0.311c-0.012-0.117,0.252-0.252,0.24-0.363s0.047-0.229,0.035-0.34c-0.012-0.117-0.258-0.199-0.264-0.311
		s0.076-0.234,0.064-0.346c-0.006-0.105,0.094-0.229,0.082-0.34C5.03,41.4,4.924,41.301,4.918,41.189
		c-0.012-0.105,0.141-0.234,0.135-0.34C5.047,40.738,5,40.627,4.995,40.516s0.029-0.229,0.018-0.334
		c-0.006-0.117-0.188-0.211-0.199-0.322c-0.006-0.111,0.152-0.234,0.141-0.346c-0.006-0.111-0.035-0.223-0.041-0.328
		c-0.006-0.117-0.111-0.223-0.123-0.328c-0.006-0.117,0.059-0.234,0.053-0.341c-0.006-0.111-0.176-0.211-0.182-0.328
		c-0.012-0.105,0.018-0.223,0.012-0.334c0-0.111-0.094-0.217-0.094-0.322c-0.012-0.117,0.018-0.229,0.012-0.34
		c0-0.117,0.023-0.223,0.012-0.34c0-0.111-0.082-0.217-0.082-0.328c-0.006-0.117,0-0.223,0-0.34c0-0.111-0.146-0.223-0.152-0.328
		c0-0.118,0.34-0.235,0.34-0.353c-0.006-0.105-0.328-0.211-0.328-0.328c-0.006-0.105,0.188-0.223,0.188-0.34
		c0-0.105-0.164-0.217-0.164-0.328c0-0.117,0.141-0.223,0.141-0.34c0-0.111,0.217-0.223,0.217-0.334S4.344,33.605,4.344,33.5
		c0-0.111,0.375-0.223,0.381-0.328c0-0.117-0.381-0.229-0.381-0.341c0-0.111,0.363-0.223,0.369-0.328
		c0-0.111-0.287-0.229-0.281-0.34s0.346-0.217,0.352-0.328s-0.381-0.234-0.381-0.346c0.006-0.111,0.375-0.211,0.375-0.322
		c0.006-0.117-0.27-0.234-0.27-0.346c0.006-0.111,0.287-0.205,0.293-0.322c0.012-0.105,0.047-0.211,0.064-0.328
		c0.012-0.106-0.316-0.259-0.305-0.37c0.018-0.111,0.229-0.193,0.24-0.305s-0.088-0.24-0.07-0.352s0.07-0.217,0.094-0.322
		c0.012-0.111,0.041-0.223,0.059-0.328c0.023-0.105-0.1-0.24-0.082-0.352c0.012-0.117,0.123-0.211,0.141-0.317
		c0.018-0.111-0.047-0.234-0.029-0.34c0.018-0.117,0.012-0.223,0.029-0.334c0.012-0.111,0.193-0.199,0.211-0.311
		c0.012-0.105-0.182-0.223-0.176-0.329c0-0.111,0.199-0.211,0.199-0.316c0-0.111,0.023-0.223,0.018-0.328s-0.105-0.211-0.111-0.316
		c0-0.105,0.012-0.217,0.012-0.328c0-0.106-0.152-0.211-0.152-0.317c0-0.1,0.34-0.188,0.34-0.287
		c0.012-0.111-0.152-0.246-0.094-0.316c0.07-0.088,0.235-0.1,0.299-0.182c0.064-0.094-0.07-0.316-0.018-0.405
		c0.059-0.1,0.076-0.199,0.123-0.293c0.053-0.1,0.123-0.17,0.17-0.27s0.047-0.211,0.082-0.311c0.035-0.105,0.164-0.164,0.199-0.27
		c0.035-0.1-0.012-0.223,0.023-0.329c0.023-0.1,0.428-0.117,0.457-0.223c0.023-0.105-0.217-0.27-0.199-0.375
		c0.023-0.111,0.059-0.211,0.076-0.322s0.064-0.205,0.088-0.316c0.023-0.106-0.1-0.241-0.082-0.346
		c0.023-0.105,0.299-0.164,0.316-0.275s0.118-0.199,0.135-0.305c0.018-0.111-0.194-0.264-0.17-0.369
		c0.023-0.111,0.129-0.206,0.153-0.317c0.012-0.105-0.129-0.246-0.112-0.352c0.018-0.117,0.258-0.199,0.276-0.311
		c0.012-0.111-0.135-0.24-0.117-0.357c0.012-0.105-0.083-0.229-0.077-0.34c0.006-0.105,0.147-0.211,0.147-0.328
		c0.012-0.105,0.111-0.217,0.117-0.328c0-0.117-0.152-0.229-0.152-0.34c0.006-0.117-0.047-0.223-0.047-0.34
		c0-0.112,0.27-0.223,0.27-0.334s-0.329-0.229-0.329-0.334c0-0.117,0.375-0.234,0.375-0.346s-0.105-0.223-0.105-0.334
		c0-0.118,0.006-0.223,0-0.34c0-0.111-0.059-0.223-0.059-0.334s-0.141-0.229-0.141-0.334c0-0.117,0.094-0.229,0.094-0.34
		s-0.135-0.223-0.135-0.34c0-0.105,0.076-0.223,0.076-0.334s0.141-0.217,0.146-0.334c0.006-0.105-0.1-0.223-0.1-0.34
		c0.006-0.111,0.018-0.223,0.023-0.334C7.005,12.211,7.234,12.117,7.24,12c0.012-0.111-0.094-0.234-0.082-0.34
		c0.012-0.117,0.082-0.223,0.094-0.328C7.251,11.215,6.923,11.191,6.853,10.91z M28.739,9.949V9.573
		c-0.105,0-0.223,0.399-0.34,0.399s-0.234-0.364-0.34-0.364c-0.117,0-0.235,0.118-0.346,0.118s-0.229,0.182-0.34,0.182
		s-0.229-0.264-0.34-0.264s-0.229,0.006-0.346,0.006c-0.105,0-0.223,0.147-0.34,0.147c-0.105,0-0.223-0.217-0.34-0.217
		c-0.111,0-0.223,0.194-0.34,0.194c-0.111,0-0.229-0.211-0.34-0.211s-0.229,0.317-0.34,0.317c-0.117,0-0.229,0.035-0.34,0.035
		c-0.117,0-0.234-0.27-0.34-0.27c-0.117,0-0.229,0.305-0.34,0.305s-0.223-0.381-0.34-0.381c-0.105,0-0.223,0.053-0.334,0.053
		s-0.223,0.047-0.334,0.047c-0.117,0-0.223,0.118-0.34,0.118c-0.111,0-0.223,0.029-0.334,0.029c-0.111,0-0.229-0.006-0.334-0.006
		c-0.117,0-0.229-0.223-0.34-0.223s-0.223,0.258-0.34,0.258c-0.105,0-0.223-0.117-0.334-0.117c-0.112,0-0.223,0.059-0.334,0.059
		c-0.117,0-0.223-0.141-0.34-0.141c-0.111,0-0.223-0.059-0.334-0.059s-0.229,0.094-0.334,0.094c-0.117,0-0.229,0.211-0.34,0.211
		s-0.223-0.276-0.34-0.276c-0.105,0-0.223,0.182-0.334,0.182s-0.229,0.07-0.334,0.07c-0.117,0-0.223-0.023-0.34-0.023
		c-0.111,0-0.223-0.012-0.34-0.012c-0.105,0-0.223,0.047-0.328,0.047c-0.117,0-0.229-0.2-0.34-0.2c-0.117,0-0.223,0.176-0.34,0.176
		c-0.111,0-0.223,0.076-0.334,0.076s-0.229-0.146-0.334-0.146c-0.117,0-0.229-0.165-0.34-0.165s-0.223,0.282-0.329,0.282
		c-0.117,0-0.229-0.34-0.34-0.34s-0.223,0.352-0.334,0.352c-0.105,0-0.223-0.082-0.334-0.082c-0.117,0-0.223,0.135-0.334,0.135
		c-0.112,0-0.223-0.234-0.334-0.234c-0.117,0-0.223,0.053-0.34,0.053c-0.111,0-0.223,0.152-0.328,0.152
		c-0.117,0-0.229-0.07-0.34-0.07c-0.112,0-0.223-0.235-0.34-0.235c-0.105,0-0.223,0.094-0.328,0.094
		c-0.111,0-0.223-0.106-0.34-0.106c-0.105,0-0.223,0-0.334,0.012c-0.111,0-0.217,0.293-0.334,0.293
		c-0.111,0-0.223-0.094-0.334-0.094s-0.229-0.059-0.334-0.059c-0.117,0-0.229,0.047-0.334,0.047c-0.111,0-0.229-0.023-0.358,0
		c-0.117,0.023-0.164,0.246-0.281,0.287S8.857,9.89,8.764,9.937c-0.129,0.076,0,0.328-0.023,0.422
		c-0.047,0.105-0.082,0.211-0.117,0.322s-0.34,0.135-0.369,0.246c-0.035,0.111-0.124,0.206-0.159,0.323
		c-0.035,0.105,0.211,0.293,0.188,0.41c-0.023,0.105-0.194,0.188-0.217,0.305c-0.029,0.111-0.029,0.234-0.041,0.34
		c-0.023,0.117,0.176,0.264,0.158,0.375c-0.012,0.117-0.211,0.211-0.217,0.322c-0.012,0.117-0.082,0.229-0.082,0.346
		c-0.006,0.111,0.094,0.229,0.088,0.34c-0.006,0.117-0.264,0.223-0.264,0.334s-0.018,0.223-0.018,0.334
		c0,0.117,0.299,0.234,0.299,0.34c0,0.117-0.252,0.229-0.252,0.34s0.264,0.223,0.264,0.34c0,0.117-0.012,0.223-0.012,0.34
		c0,0.111-0.111,0.223-0.111,0.334s0.006,0.229,0,0.334c0,0.117-0.111,0.229-0.111,0.34c0,0.111,0.164,0.229,0.164,0.34
		c-0.006,0.111-0.164,0.223-0.164,0.334c-0.006,0.111,0.117,0.229,0.111,0.34s-0.135,0.217-0.146,0.334
		c0,0.112-0.047,0.217-0.053,0.329c-0.006,0.117,0.299,0.246,0.293,0.363c-0.006,0.105-0.252,0.205-0.264,0.316
		s-0.141,0.211-0.152,0.322c-0.012,0.112,0.252,0.252,0.24,0.364c-0.018,0.111-0.053,0.217-0.064,0.334
		c-0.012,0.111,0.111,0.246,0.094,0.357s-0.398,0.164-0.416,0.275c-0.018,0.105,0.076,0.235,0.053,0.346s0.094,0.252,0.07,0.357
		s-0.07,0.217-0.1,0.328c-0.029,0.105-0.316,0.141-0.346,0.258c-0.029,0.105,0.193,0.287,0.158,0.393
		c-0.029,0.111-0.24,0.158-0.275,0.264s0.105,0.275,0.07,0.381C7,23.16,6.994,23.283,6.953,23.395
		c-0.041,0.094-0.346,0.094-0.387,0.193s-0.088,0.193-0.123,0.299c-0.035,0.094,0.158,0.281,0.129,0.375
		c-0.035,0.105-0.299,0.129-0.334,0.234c-0.029,0.105,0.264,0.299,0.229,0.398C6.442,25,6.46,25.118,6.431,25.218
		c-0.023,0.105-0.293,0.146-0.316,0.252s0.141,0.246,0.117,0.352s-0.07,0.199-0.094,0.305s-0.117,0.199-0.135,0.305
		c-0.018,0.1,0.158,0.235,0.146,0.34c-0.023,0.117-0.059,0.223-0.07,0.34c-0.023,0.111-0.023,0.223-0.041,0.34
		c-0.018,0.111-0.252,0.193-0.264,0.305c-0.023,0.111,0.094,0.247,0.082,0.358c-0.018,0.111-0.234,0.199-0.246,0.311
		c-0.023,0.117,0,0.234-0.018,0.346s0.123,0.246,0.111,0.357c-0.012,0.117-0.082,0.223-0.094,0.334s-0.146,0.211-0.158,0.322
		c-0.018,0.117-0.035,0.229-0.041,0.34c-0.012,0.118,0.035,0.235,0.018,0.353c-0.012,0.105-0.029,0.223-0.041,0.34
		c-0.012,0.105,0,0.223-0.006,0.34c-0.006,0.111,0,0.223-0.006,0.34c-0.012,0.111,0.047,0.234,0.047,0.34
		c-0.012,0.117-0.129,0.223-0.141,0.34c-0.012,0.105,0,0.223-0.012,0.34c-0.006,0.111-0.029,0.223-0.035,0.34
		c0,0.112-0.152,0.224-0.152,0.341c-0.006,0.111,0.217,0.223,0.217,0.34c0,0.105-0.146,0.223-0.141,0.334s-0.006,0.223,0,0.334
		c0.006,0.117,0.182,0.211,0.188,0.328c0.006,0.105-0.229,0.234-0.223,0.352c0.006,0.111,0.393,0.188,0.405,0.293
		c0.012,0.117-0.317,0.264-0.305,0.375s0.035,0.223,0.047,0.329c0.012,0.117,0.387,0.182,0.399,0.293
		c0.012,0.105,0.023,0.217,0.041,0.328c0.012,0.111,0.006,0.223,0.018,0.328c0.018,0.117-0.094,0.24-0.082,0.352
		c0.012,0.117-0.223,0.252-0.211,0.363c0.018,0.105,0.434,0.176,0.445,0.287s-0.047,0.229-0.035,0.34s0.094,0.217,0.1,0.328
		c0.006,0.112,0.006,0.218,0.018,0.335c0.006,0.111-0.293,0.24-0.293,0.352c0.012,0.105,0.328,0.193,0.34,0.305
		c0.012,0.117-0.129,0.234-0.129,0.34c0.012,0.117,0.152,0.211,0.152,0.328c0.012,0.111-0.105,0.229-0.094,0.334
		c0.012,0.111,0.111,0.217,0.117,0.322c0,0.117-0.305,0.24-0.305,0.352c0.006,0.111-0.047,0.223-0.041,0.335
		c0.006,0.111,0.135,0.217,0.135,0.322c0.012,0.111-0.105,0.223-0.105,0.34c0.006,0.105,0.305,0.205,0.311,0.316
		s0.059,0.223,0.064,0.328c0,0.105-0.234,0.229-0.234,0.34c0.006,0.111-0.094,0.223-0.094,0.334
		c0.006,0.111,0.141,0.217,0.141,0.322c0.012,0.117,0.193,0.223,0.199,0.328c0,0.106-0.023,0.224-0.023,0.329
		c0.006,0.117-0.146,0.229-0.146,0.34c0,0.117,0.193,0.211,0.205,0.311c0.023,0.123-0.199,0.293-0.164,0.381
		c0.047,0.117,0.211,0.188,0.281,0.258c0.076,0.07,0.223,0.035,0.328,0.082c0.094,0.029,0.152,0.316,0.282,0.328
		c0.094,0.012,0.229-0.199,0.352-0.199c0.111,0,0.223-0.152,0.334-0.152c0.111-0.006,0.229,0.141,0.346,0.135
		c0.105,0,0.223,0.105,0.34,0.105c0.105,0,0.223,0.094,0.334,0.088c0.111,0,0.223-0.029,0.334-0.029c0.117,0,0.223-0.369,0.34-0.369
		c0.111,0,0.223,0.346,0.34,0.346c0.112,0,0.223,0.047,0.34,0.047c0.105,0,0.223-0.158,0.334-0.158s0.223,0.023,0.334,0.023
		c0.117,0,0.223-0.047,0.34-0.047c0.112,0,0.223,0.105,0.334,0.105s0.229,0.035,0.334,0.035c0.117,0,0.229-0.141,0.34-0.141
		s0.229-0.182,0.34-0.182c0.117,0,0.223,0.334,0.34,0.334c0.111,0,0.223-0.258,0.34-0.258c0.111,0,0.223,0.07,0.34,0.07
		c0.105,0,0.223,0.246,0.334,0.246s0.229-0.152,0.34-0.146s0.211,0.146,0.322,0.158c0.117,0.012,0.223,0.053,0.34,0.059
		c0.111,0.018,0.234-0.07,0.352-0.059c0.111,0.006,0.234-0.07,0.346-0.064c0.111,0.006,0.229-0.006,0.34-0.012
		s0.193-0.199,0.299-0.217c0.117-0.023,0.234,0.07,0.346,0.035c0.1-0.035,0.188-0.094,0.293-0.152c0.1-0.047,0.329,0.1,0.422,0.035
		c0.064-0.047,0.123-0.375,0.24-0.352c0.1,0.023,0.17,0.258,0.258,0.281c0.117,0.023,0.24-0.023,0.352,0s0.223,0.082,0.334,0.105
		c0.111,0.018,0.188,0.217,0.305,0.246c0.111,0.018,0.287-0.264,0.404-0.24c0.105,0.018,0.164,0.375,0.27,0.393
		c0.117,0.023,0.234,0.012,0.352,0.035c0.117,0.023,0.223,0.082,0.34,0.094c0.105,0.023,0.252-0.188,0.363-0.176
		c0.117,0.012,0.205,0.246,0.316,0.252c0.117,0.006,0.234-0.229,0.346-0.229c0.111,0,0.217,0.117,0.334,0.105
		c0.111,0,0.211-0.223,0.322-0.223c0.111-0.006,0.24,0.34,0.357,0.328c0.105-0.006,0.188-0.41,0.293-0.422
		c0.118-0.012,0.258,0.363,0.37,0.357c0.111-0.012,0.211-0.1,0.322-0.111s0.211-0.152,0.316-0.164
		c0.111-0.012,0.211-0.082,0.322-0.094s0.223,0.029,0.334,0.023c0.117-0.012,0.211-0.188,0.322-0.199
		c0.111-0.006,0.229,0.141,0.34,0.141c0.111-0.006,0.229-0.111,0.334-0.111c0.111,0,0.211,0.299,0.329,0.305
		c0.111,0.006,0.234-0.217,0.34-0.211c0.117,0.006,0.211,0.158,0.316,0.17c0.111,0.012,0.246-0.123,0.357-0.1
		c0.105,0.018,0.24-0.029,0.346-0.006c0.111,0.023,0.129,0.352,0.24,0.387c0.1,0.035,0.311-0.217,0.416-0.176
		c0.035,0.012,0,0.123,0.035,0.123c0.117,0,0.223,0.123,0.334,0.123s0.223-0.041,0.334-0.035c0.111,0,0.223-0.164,0.334-0.158
		c0.111,0,0.217,0.205,0.328,0.205s0.229-0.035,0.334-0.029c0.111,0,0.223,0.123,0.328,0.129c0.117,0.006,0.229-0.146,0.34-0.141
		c0.111,0,0.223-0.029,0.328-0.029c0.118,0,0.224,0.105,0.341,0.111c0.105,0,0.223-0.182,0.334-0.182s0.223-0.023,0.334-0.023
		c0.105,0,0.223-0.006,0.328-0.006c0.117,0,0.223,0.029,0.334,0.029s0.223-0.035,0.334-0.035c0.105,0,0.211,0.264,0.328,0.27
		c0.105,0,0.223-0.27,0.334-0.27s0.217,0.316,0.329,0.328c0.111,0,0.223-0.164,0.334-0.164c0.117,0,0.223-0.035,0.334-0.035
		s0.217,0.27,0.328,0.27s0.229-0.064,0.334-0.064c0.111,0,0.223,0.082,0.328,0.082c0.117,0,0.223,0.012,0.334,0.012
		s0.229-0.357,0.346-0.357c0.105,0,0.217,0.205,0.328,0.211c0.106,0.006,0.218,0.129,0.329,0.135c0.111,0,0.229-0.287,0.34-0.287
		c0.105,0,0.217,0.07,0.328,0.076c0.117,0,0.223,0.111,0.334,0.123c0.111,0,0.223-0.24,0.334-0.234c0.117,0,0.223,0.164,0.334,0.164
		s0.217,0.129,0.334,0.129c0.111,0,0.223-0.246,0.334-0.246s0.217,0.34,0.329,0.34c0.111,0,0.229-0.293,0.334-0.293
		c0.117,0,0.223,0.258,0.328,0.27c0.111,0,0.229-0.176,0.34-0.176s0.223-0.1,0.34-0.1c0.105,0,0.217,0.164,0.328,0.164
		s0.223-0.24,0.34-0.24c0.105,0,0.211,0.422,0.328,0.434c0.105,0,0.223-0.252,0.334-0.246c0.112,0,0.218,0.059,0.335,0.059
		c0.111,0,0.223-0.129,0.334-0.129s0.217,0.316,0.328,0.316s0.229-0.211,0.34-0.234c0.111-0.012,0.217-0.07,0.328-0.094
		s0.193-0.234,0.299-0.252c0.117-0.023,0.27,0.205,0.381,0.205c0.111-0.012,0.258-0.123,0.369-0.094
		c0.1,0.035,0.141,0.27,0.247,0.305c0.1,0.023,0.234-0.047,0.34-0.023c0.105,0.029,0.199,0.117,0.305,0.129
		c0.105,0.023,0.24-0.141,0.34-0.129c0.111,0.012,0.188,0.328,0.299,0.34c0.105,0.012,0.229-0.275,0.34-0.27
		c0.111,0,0.211-0.082,0.322-0.082c0.105,0,0.211,0.176,0.316,0.17c0.111-0.006,0.223,0.076,0.328,0.064
		c0.111-0.012,0.194-0.305,0.306-0.316c0.105-0.006,0.223,0.094,0.328,0.082s0.199-0.141,0.305-0.164
		c0.105-0.012,0.211-0.006,0.316-0.023c0.105-0.012,0.252,0.205,0.363,0.188c0.141-0.023,0.293-0.023,0.387-0.064
		c0.129-0.053,0.141-0.252,0.217-0.346s0.352-0.123,0.381-0.258c0.035-0.105,0.035-0.264,0.053-0.398
		c0.012-0.105-0.281-0.246-0.27-0.352c0.018-0.105-0.041-0.229-0.029-0.328c0.023-0.105,0.293-0.176,0.311-0.281
		s-0.135-0.234-0.111-0.34c0.018-0.106-0.035-0.229-0.012-0.329c0.023-0.105,0.035-0.217,0.047-0.316
		c0.023-0.105,0.064-0.211,0.082-0.316c0.023-0.1,0.328-0.152,0.34-0.258c0.024-0.105-0.094-0.234-0.082-0.34
		c0.023-0.105,0.224-0.176,0.241-0.281c0.018-0.117-0.288-0.281-0.271-0.387c0.018-0.111,0.041-0.223,0.059-0.328
		c0.018-0.111,0.029-0.223,0.047-0.329c0.019-0.117,0.206-0.199,0.229-0.305c0.012-0.117-0.141-0.246-0.123-0.352
		c0.012-0.117,0.053-0.223,0.064-0.328c0.018-0.117,0.023-0.223,0.029-0.334s0.346-0.199,0.357-0.311
		c0.006-0.117-0.141-0.234-0.129-0.346c0-0.111-0.129-0.229-0.135-0.334c0-0.117,0.135-0.229,0.123-0.34
		c-0.006-0.111-0.199-0.212-0.211-0.317c-0.012-0.111,0.152-0.24,0.141-0.352c-0.023-0.105-0.223-0.182-0.246-0.293
		c-0.023-0.105,0.07-0.246,0.041-0.352s0.1-0.27,0.064-0.375c-0.035-0.094-0.335-0.094-0.376-0.188
		c-0.035-0.094,0.176-0.299,0.141-0.387c-0.047-0.1-0.117-0.176-0.152-0.264c-0.041-0.1-0.188-0.158-0.211-0.252
		s0.023-0.206,0.023-0.306c0.012-0.105-0.188-0.223-0.182-0.334s0.006-0.223,0.012-0.328c0.006-0.111,0.123-0.217,0.123-0.322
		c0.006-0.111,0.059-0.217,0.064-0.328s0.094-0.217,0.1-0.328c0-0.105-0.246-0.234-0.24-0.34s0.381-0.199,0.393-0.305
		c0-0.105-0.111-0.223-0.105-0.34c0-0.106-0.129-0.224-0.129-0.335c0.006-0.111,0.188-0.205,0.199-0.322
		c0-0.105,0.117-0.211,0.123-0.316c0.006-0.111-0.393-0.246-0.381-0.352c0-0.105,0.264-0.211,0.27-0.316
		c0.012-0.105-0.146-0.229-0.141-0.34c0-0.105-0.094-0.223-0.088-0.328s0.27-0.211,0.275-0.316c0-0.111-0.047-0.223-0.035-0.341
		c0-0.105,0.165-0.211,0.165-0.316c0.006-0.111-0.306-0.229-0.306-0.34c0-0.105,0.094-0.211,0.094-0.328
		c0-0.105,0.152-0.217,0.152-0.322c-0.006-0.111-0.152-0.217-0.152-0.328s0.082-0.229,0.076-0.346
		c-0.006-0.118-0.188-0.223-0.193-0.334c0-0.111-0.053-0.223-0.059-0.334c-0.012-0.117,0.364-0.258,0.358-0.369
		s-0.048-0.229-0.054-0.34c-0.012-0.112-0.293-0.206-0.305-0.317s-0.088-0.217-0.105-0.334c-0.012-0.105,0.211-0.258,0.193-0.369
		s-0.135-0.211-0.158-0.322c-0.012-0.111-0.059-0.223-0.082-0.334s0-0.229-0.023-0.346c-0.023-0.111-0.105-0.211-0.129-0.322
		c-0.029-0.111,0.129-0.264,0.094-0.375c-0.023-0.111-0.129-0.206-0.164-0.311c-0.023-0.111-0.223-0.176-0.258-0.281
		c-0.035-0.111,0.135-0.275,0.105-0.387c-0.029-0.117,0.035-0.246,0.018-0.352c-0.029-0.117-0.334-0.164-0.357-0.281
		c-0.023-0.112-0.047-0.223-0.059-0.34c-0.023-0.111,0.211-0.258,0.199-0.369c-0.018-0.111-0.34-0.205-0.346-0.316
		s0.035-0.24,0.035-0.357c-0.006-0.106-0.064-0.235-0.053-0.346c0-0.111,0.123-0.229,0.129-0.346
		c0.006-0.111,0.176-0.211,0.188-0.328c0.012-0.111,0.012-0.223,0.023-0.34c0.023-0.105,0.135-0.2,0.152-0.305
		s-0.164-0.252-0.152-0.363c0.023-0.105,0.188-0.188,0.211-0.293s-0.035-0.229-0.012-0.34c0.018-0.105,0.041-0.211,0.059-0.323
		c0.023-0.111-0.094-0.246-0.07-0.346c0.023-0.105,0.164-0.193,0.188-0.305c0.023-0.105,0.234-0.176,0.252-0.281
		c0.023-0.105,0.029-0.223,0.053-0.328c0.023-0.106-0.035-0.235-0.018-0.34s-0.205-0.258-0.182-0.363
		c0.018-0.111,0.211-0.188,0.223-0.305c0.023-0.105,0.035-0.211,0.047-0.328c0.023-0.106,0-0.223,0.012-0.329
		c0.018-0.105,0.129-0.211,0.141-0.316s0.012-0.223,0.023-0.328c0.012-0.111-0.029-0.229-0.023-0.34
		c0.006-0.105,0.059-0.217,0.059-0.323c0.012-0.111-0.281-0.223-0.281-0.334c0-0.105,0.316-0.223,0.311-0.328
		c-0.006-0.111-0.088-0.223-0.1-0.328c-0.012-0.111-0.053-0.223-0.064-0.329c-0.012-0.111-0.053-0.223-0.064-0.328
		c-0.018-0.105,0.029-0.229,0.012-0.334c-0.023-0.111-0.199-0.182-0.223-0.287c-0.023-0.117-0.07-0.211-0.094-0.311
		c-0.035-0.111,0.105-0.264,0.07-0.358c-0.035-0.111-0.012-0.258-0.059-0.352c-0.047-0.105-0.117-0.211-0.188-0.293
		c-0.07-0.088-0.211-0.129-0.293-0.199c-0.094-0.059-0.281,0.094-0.387,0.047c-0.094-0.035-0.152-0.152-0.264-0.176
		c-0.1-0.023-0.205,0.082-0.322,0.076c-0.105-0.006-0.199-0.317-0.316-0.317c-0.105,0-0.223,0.112-0.328,0.106
		c-0.117,0-0.229-0.053-0.341-0.053c-0.117,0-0.223,0.024-0.34,0.024c-0.111,0-0.223-0.129-0.334-0.129s-0.229,0.223-0.334,0.223
		c-0.117,0-0.229,0.059-0.34,0.059S45.21,9.82,45.093,9.82c-0.105,0-0.223,0.047-0.334,0.047s-0.223-0.258-0.334-0.258
		c-0.117,0-0.223,0.088-0.341,0.088c-0.111,0-0.223,0.188-0.334,0.188s-0.229,0.012-0.334,0.012c-0.117,0-0.229-0.076-0.34-0.076
		s-0.223-0.17-0.34-0.17c-0.105,0-0.223,0.053-0.334,0.053s-0.223-0.047-0.334-0.047c-0.117,0-0.223,0.17-0.34,0.17
		c-0.111,0-0.223-0.018-0.334-0.018c-0.112,0-0.229-0.211-0.335-0.211c-0.117,0-0.229,0.106-0.34,0.106s-0.223,0.234-0.34,0.234
		c-0.105,0-0.223-0.282-0.334-0.282s-0.229-0.059-0.334-0.059c-0.117,0-0.223,0.229-0.34,0.229c-0.111,0-0.223-0.1-0.34-0.1
		c-0.105,0-0.223-0.112-0.328-0.112c-0.117,0-0.229,0.088-0.341,0.088c-0.117,0-0.223-0.165-0.34-0.165
		c-0.111,0-0.223,0.035-0.334,0.035s-0.229-0.047-0.334-0.047c-0.117,0-0.229,0.176-0.34,0.176s-0.223-0.165-0.34-0.165
		c-0.105,0-0.223,0.018-0.334,0.018s-0.223,0.1-0.334,0.1c-0.117,0-0.223-0.07-0.341-0.07c-0.111,0-0.223,0.165-0.334,0.165
		s-0.229-0.035-0.334-0.035c-0.117,0-0.229,0.082-0.34,0.082s-0.223-0.035-0.34-0.035c-0.105,0-0.223-0.029-0.334-0.029
		s-0.223,0.076-0.334,0.076c-0.117,0-0.223-0.012-0.34-0.012c-0.111,0-0.223,0.141-0.334,0.141c-0.112,0-0.229-0.352-0.335-0.352
		c-0.117,0-0.229,0.317-0.34,0.317s-0.223-0.199-0.34-0.199c-0.105,0-0.223,0.176-0.334,0.176S31.4,9.726,31.295,9.726
		c-0.117,0-0.223-0.223-0.34-0.223c-0.111,0-0.223,0.422-0.34,0.422c-0.105,0-0.223-0.375-0.328-0.375
		c-0.117,0-0.229,0.387-0.341,0.387c-0.117,0-0.223-0.37-0.34-0.37c-0.111,0-0.223,0.288-0.334,0.288s-0.229-0.34-0.334-0.34
		C28.821,9.515,28.845,9.949,28.739,9.949z M47.484,8.718c-0.006,0.07-0.223,0.129-0.229,0.193c0.1,0.023,0.352-0.299,0.463-0.287
		c0.105,0.012,0.164,0.381,0.27,0.387c0.1,0.018,0.217-0.082,0.316-0.07c0.105,0.012,0.246-0.152,0.34-0.129
		c0.105,0.018,0.129,0.299,0.223,0.34c0.1,0.041,0.164,0.07,0.24,0.135c0.094,0.082,0.275,0.035,0.375,0.1
		c0.1,0.059,0.123,0.311,0.223,0.352c0.111,0.047,0.294-0.094,0.405-0.071c0.117,0.024,0.211,0.247,0.328,0.258
		S50.69,9.62,50.808,9.62s0.223-0.035,0.34-0.041s0.252,0.264,0.369,0.252s0.105-0.358,0.223-0.469c0.105-0.094,0.516,0,0.615-0.082
		c-0.053-0.059-0.176-0.287-0.229-0.369c-0.047-0.082-0.152-0.146-0.199-0.211c-0.076-0.088-0.223-0.076-0.293-0.082
		c-0.111-0.006-0.223,0.018-0.328,0.018c-0.111-0.006-0.217-0.012-0.328-0.012c-0.105-0.006-0.211-0.234-0.322-0.234
		s-0.217,0.264-0.328,0.264S50.11,8.53,50.005,8.53s-0.218,0.059-0.329,0.059c-0.105,0-0.217-0.141-0.328-0.141
		S49.131,8.39,49.02,8.39c-0.105,0-0.217,0.1-0.328,0.1c-0.105,0-0.217,0.205-0.322,0.211c-0.111,0-0.217-0.275-0.328-0.275
		s-0.217,0.188-0.322,0.188C47.607,8.606,47.596,8.718,47.484,8.718z M4.25,9.515c0.094,0.053-0.07,0.27,0.023,0.317
		c0.1,0.059,0.352-0.264,0.451-0.223c0.105,0.035,0.1,0.411,0.193,0.434C5.03,10.072,5.165,9.984,5.27,9.996
		c0.106,0.018,0.223-0.164,0.329-0.164s0.229,0.264,0.34,0.246c0.105-0.012,0.223-0.035,0.328-0.059s0.176-0.193,0.281-0.223
		c0.1-0.035,0.282,0.129,0.381,0.088S7.052,9.62,7.152,9.573s0.287,0.094,0.381,0.041c0.1-0.047,0.053-0.381,0.146-0.428
		c0.094-0.059,0.17-0.129,0.264-0.188c0.1-0.047,0.317,0.146,0.422,0.094c0.094-0.047,0.059-0.375,0.152-0.41
		c0.1-0.047,0.434-0.047,0.527-0.082C8.939,8.63,8.646,8.636,8.541,8.659S8.342,8.741,8.23,8.753
		C8.125,8.771,8.025,8.894,7.919,8.905C7.814,8.911,7.708,8.946,7.591,8.952c-0.105,0-0.223,0-0.328,0.006S7.041,8.741,6.935,8.741
		c-0.111,0.006-0.211,0.27-0.323,0.27c-0.111,0.012-0.223-0.105-0.334-0.1C6.173,8.917,6.067,8.987,5.956,8.999
		C5.845,9.005,5.716,8.876,5.61,8.894s-0.234-0.023-0.34,0c-0.105,0.018-0.199,0.141-0.305,0.17S4.825,9.321,4.719,9.362
		c-0.105,0.035-0.305-0.176-0.41-0.129C4.209,9.28,4.344,9.456,4.25,9.515z M24.835,9.046c0.1-0.082,0.329,0.164,0.417,0.094
		c0.1-0.082-0.053-0.469,0.029-0.539c0.105-0.082,0.428,0.111,0.516,0.035c0.094-0.082,0.135-0.27,0.223-0.352
		c-0.082-0.065-0.305-0.047-0.387-0.129c-0.082-0.082,0.006-0.357-0.076-0.422c-0.1-0.082-0.287-0.158-0.387-0.152
		c-0.1,0.012-0.194,0.152-0.299,0.141c-0.1-0.012-0.188-0.234-0.293-0.246s-0.223,0.182-0.316,0.193
		c-0.111,0.012-0.328-0.123-0.41-0.064c-0.076,0.059,0.094,0.34,0.059,0.451c-0.023,0.082-0.006,0.152-0.012,0.276
		c0,0.088-0.146,0.275-0.023,0.375c0.082,0.07,0.363-0.117,0.48-0.047c0.094,0.059-0.023,0.445,0.082,0.516
		S24.742,8.976,24.835,9.046z M30.521,8.084c0.023,0.076-0.281,0.076-0.27,0.176c0.012,0.1,0.41,0.146,0.422,0.234
		c0.023,0.129-0.176,0.422-0.129,0.439c0.1,0.018,0.223-0.076,0.328-0.064c0.1,0.012,0.211-0.164,0.316-0.158
		c0.1,0.006,0.199,0.27,0.299,0.27c0.1-0.006,0.211-0.018,0.311-0.023s0.188-0.17,0.281-0.182c0.076-0.012,0.352-0.006,0.422-0.141
		c0.076-0.141-0.047-0.375-0.07-0.44c-0.047-0.076,0.047-0.299-0.023-0.381c-0.07-0.07-0.352,0.094-0.434,0.047
		c-0.094-0.064-0.141-0.047-0.223-0.059c-0.117,0-0.246-0.258-0.363-0.234c-0.105,0.018-0.146,0.346-0.264,0.381
		c-0.111,0.029-0.322-0.311-0.439-0.275C30.58,7.709,30.645,8.055,30.521,8.084z M38.599,7.803c-0.106,0.07-0.323-0.188-0.417-0.123
		c-0.1,0.076,0.029,0.463-0.064,0.533c-0.1,0.071-0.41-0.152-0.504-0.082c-0.1,0.07-0.152,0.27-0.246,0.34
		c0.105,0.035,0.305-0.053,0.404-0.012c0.1,0.047,0.094,0.334,0.193,0.375c0.105,0.041,0.223,0.082,0.316,0.105
		c0.111,0.035,0.246-0.094,0.353-0.094c0.105,0,0.322,0.141,0.428,0.07c0.1-0.059,0.088-0.299,0.182-0.375
		c0.094-0.07,0.387-0.117,0.48-0.176c-0.07-0.064-0.422-0.059-0.498-0.117c-0.076-0.059-0.17-0.088-0.252-0.153
		c-0.076-0.059,0.012-0.334-0.07-0.398C38.833,7.651,38.681,7.868,38.599,7.803z M10.276,8.729c0.123,0,0.082,0.27,0.188,0.27
		c0.129,0,0.24-0.393,0.352-0.393c0.123,0,0.241,0.357,0.352,0.357c0.117,0,0.234-0.111,0.352-0.111s0.234-0.188,0.346-0.188
		c0.117,0,0.234,0.264,0.352,0.264s0.305-0.029,0.422-0.029c0-0.1-0.088-0.311-0.082-0.416c0.018-0.141,0.164-0.399,0.1-0.452
		c-0.082-0.07-0.305,0.023-0.411-0.006s-0.217-0.246-0.34-0.246c-0.105,0-0.199,0.316-0.311,0.34
		c-0.111,0.018-0.193,0.076-0.299,0.118c-0.105,0.035-0.311-0.182-0.411-0.129c-0.105,0.047-0.047,0.375-0.141,0.434
		s-0.41-0.182-0.498-0.105C10.153,8.495,10.358,8.647,10.276,8.729z M46.089,8.753c-0.047-0.117,0.217-0.229,0.152-0.328
		c-0.064-0.105-0.445,0.047-0.527-0.035c-0.094-0.088,0.035-0.446-0.064-0.504c-0.111-0.059-0.287-0.006-0.404-0.035
		c-0.123-0.023-0.234,0.158-0.352,0.176c-0.117,0.012-0.311-0.199-0.422-0.129c-0.129,0.07-0.347,0.375-0.329,0.487
		c0.012,0.076,0.188,0.152,0.235,0.24c0.059,0.105,0.088,0.387,0.152,0.393c0.117,0.006,0.246-0.17,0.352-0.17
		c0.117,0.006,0.229,0.211,0.34,0.211s0.223-0.316,0.34-0.316c0.105,0,0.223-0.035,0.34-0.035S45.978,8.753,46.089,8.753z
		 M17.562,8.964c0.105-0.023,0.076,0.182,0.17,0.152c0.105-0.023,0.111-0.428,0.211-0.457c0.105-0.023,0.293,0.299,0.387,0.275
		c0.105-0.029,0.176-0.164,0.27-0.193c0.105-0.023,0.152-0.234,0.246-0.258c0.105-0.035,0.275,0.188,0.375,0.152
		c0.012,0,0.047-0.305,0-0.493c-0.035-0.117-0.193-0.188-0.223-0.293c-0.105,0.053-0.281-0.105-0.387-0.059s-0.141,0.27-0.246,0.316
		c-0.111,0.047-0.305-0.094-0.411-0.053s-0.088,0.387-0.199,0.428c-0.105,0.047-0.199,0.129-0.305,0.176
		C17.438,8.671,17.562,8.548,17.562,8.964z M22.468,8.671c0.012-0.094,0.27-0.188,0.281-0.281c-0.117,0-0.363,0.34-0.481,0.34
		c-0.111,0-0.223-0.363-0.34-0.363s-0.234,0.117-0.346,0.117c-0.117,0-0.229,0.188-0.346,0.188s-0.229-0.264-0.346-0.264
		c-0.117,0-0.229,0.006-0.346,0.006s-0.211,0.135-0.322,0.135c0,0.1-0.135,0.311-0.135,0.404c0.111,0,0.346-0.141,0.457-0.141
		s0.223,0.205,0.34,0.205c0.106,0,0.223-0.316,0.334-0.316s0.229-0.035,0.334-0.035c0.117,0,0.223,0.275,0.34,0.275
		c0.111,0,0.223-0.316,0.34-0.316C22.351,8.63,22.362,8.671,22.468,8.671z M33.552,8.771c0,0.064-0.182,0.135-0.182,0.193
		c0.111,0,0.316-0.363,0.434-0.363c0.105,0,0.223,0.363,0.334,0.363s0.229-0.117,0.334-0.117c0.117,0,0.223-0.188,0.34-0.188
		c0.111,0,0.223,0.27,0.34,0.27c0.105,0,0.223-0.012,0.328-0.012c0.117,0,0.229-0.141,0.341-0.141c0.117,0,0.316,0.188,0.428,0.188
		c0-0.059-0.088-0.281-0.088-0.346c-0.117,0-0.223-0.205-0.34-0.205c-0.111,0-0.224,0.316-0.341,0.316
		c-0.105,0-0.223,0.035-0.328,0.035c-0.117,0-0.229-0.275-0.34-0.275c-0.117,0-0.223,0.311-0.34,0.311
		c-0.105,0-0.223-0.387-0.334-0.387s-0.229,0.059-0.334,0.059C33.687,8.472,33.663,8.771,33.552,8.771z M13.992,8.647
		c0,0.07-0.2,0.152-0.2,0.234c0.118,0,0.334-0.363,0.452-0.363s0.24,0.363,0.357,0.363c0.111,0,0.234-0.117,0.352-0.117
		s0.234-0.188,0.352-0.188c0.117,0,0.234,0.27,0.352,0.27s0.305-0.023,0.422-0.023c0-0.082-0.082-0.223-0.082-0.305
		c-0.117,0-0.223-0.211-0.34-0.211s-0.234,0.188-0.352,0.188c-0.118,0-0.235-0.205-0.352-0.205s-0.24,0.316-0.352,0.316
		c-0.117,0-0.24,0.029-0.357,0.029S14.109,8.647,13.992,8.647z M29.278,8.636c0-0.07,0.199-0.164,0.199-0.234
		c-0.105,0-0.328,0.363-0.445,0.363c-0.105,0-0.223-0.363-0.34-0.363c-0.111,0-0.223,0.117-0.34,0.117
		c-0.111,0-0.229,0.188-0.34,0.188c-0.112,0-0.229-0.264-0.34-0.264c-0.117,0-0.229,0.006-0.34,0.006
		c-0.117,0-0.211,0.141-0.328,0.141c0.006,0.076-0.117,0.281-0.105,0.363c0.105,0,0.328-0.164,0.439-0.164
		c0.117,0,0.229,0.211,0.346,0.211c0.105,0,0.223-0.316,0.34-0.316c0.105,0,0.223-0.035,0.34-0.035c0.111,0,0.223,0.27,0.34,0.27
		c0.111,0,0.229-0.305,0.34-0.305C29.149,8.601,29.173,8.636,29.278,8.636z"/>
	<path d="M39.196,32.819c0.094-0.035,0.094-0.059,0.188-0.105c0.117-0.047,0.164-0.023,0.246,0.006
		c0.111,0.035,0.211,0.088,0.322,0.123s0.252-0.047,0.357-0.012c0.105,0.023,0.229,0.012,0.34,0.035
		c0.105,0.023,0.205,0.118,0.311,0.147c0.111,0.029,0.193,0.158,0.299,0.193c0.106,0.023,0.271-0.123,0.376-0.094
		s0.188,0.164,0.293,0.199s0.164,0.176,0.27,0.211c0.105,0.047,0.188,0.105,0.287,0.152s0.375-0.223,0.475-0.164
		c0.094,0.059,0.082,0.293,0.176,0.363c0.088,0.059,0.182,0.117,0.27,0.199c0.053,0.047,0.082,0.205,0.146,0.223
		c0.1,0.023,0.252-0.223,0.357-0.205c0.1,0.018,0.182,0.182,0.281,0.199c0.106,0.018,0.271-0.146,0.364-0.111
		c0.105,0.035,0.047,0.352,0.129,0.422c0.076,0.059,0.217,0.053,0.264,0.152c0.041,0.082,0.217,0.152,0.229,0.27
		c0.023,0.117-0.141,0.252-0.129,0.363c0.018,0.105-0.141,0.229-0.135,0.34c0.006,0.106,0.082,0.212,0.082,0.317
		c0,0.117,0.088,0.229,0.088,0.34c-0.012,0.105-0.129,0.205-0.141,0.316s0.082,0.234,0.059,0.346
		c-0.018,0.105-0.135,0.193-0.164,0.299c-0.023,0.111,0.129,0.275,0.094,0.375c-0.029,0.105,0.035,0.27-0.006,0.369
		s-0.416,0.053-0.463,0.158c-0.053,0.094-0.088,0.188-0.141,0.293c-0.059,0.083-0.047,0.188-0.153,0.241
		c-0.088,0.047-0.188,0.076-0.299,0.105c-0.105,0.029-0.199,0.105-0.311,0.135c-0.105,0.029-0.27-0.105-0.375-0.07
		c-0.105,0.041-0.129,0.299-0.223,0.334c-0.105,0.041-0.275-0.1-0.375-0.064c-0.105,0.035-0.188,0.117-0.293,0.152
		s-0.234-0.012-0.34,0.023c-0.105,0.041-0.188,0.123-0.293,0.152c-0.105,0.035-0.188,0.129-0.293,0.164
		c-0.106,0.041-0.177,0.176-0.282,0.211c-0.1,0.035-0.176,0.152-0.281,0.188c-0.105,0.041-0.305-0.205-0.41-0.164
		c-0.105,0.035-0.164,0.199-0.27,0.234s-0.199,0.088-0.305,0.123c-0.105,0.029-0.24-0.029-0.346,0.006
		c-0.1,0.035-0.211,0.059-0.311,0.094c-0.105,0.035-0.176,0.176-0.281,0.211s-0.199,0.094-0.305,0.129
		c-0.095,0.035-0.177,0.141-0.276,0.176c-0.1,0.029-0.188,0.111-0.287,0.146c-0.105,0.029-0.205,0.07-0.305,0.105
		c-0.1,0.029-0.211,0.053-0.311,0.082c-0.105,0.029-0.246-0.076-0.346-0.053c-0.105,0.029-0.199,0.07-0.305,0.094
		s-0.158,0.259-0.258,0.288c-0.105,0.023-0.281-0.253-0.381-0.229c-0.105,0.023-0.158,0.323-0.264,0.341
		c-0.1,0.023-0.259-0.306-0.37-0.294c-0.111,0.024-0.205,0.282-0.316,0.288c-0.117,0.006-0.246-0.205-0.369-0.193
		c-0.117,0.006-0.223,0.316-0.34,0.322s-0.234-0.252-0.352-0.252S33.862,41.8,33.745,41.8s-0.234-0.146-0.352-0.146
		s-0.234,0.041-0.352,0.041c-0.111,0-0.224,0.117-0.341,0.123s-0.246-0.211-0.363-0.205c-0.111,0.012-0.223,0.094-0.34,0.105
		c-0.105,0.012-0.211,0.105-0.328,0.129c-0.105,0.012-0.24-0.105-0.352-0.088c-0.111,0.012-0.246-0.123-0.357-0.111
		s-0.205,0.199-0.316,0.211c-0.111,0.018-0.246-0.129-0.357-0.105c-0.111,0.012-0.188,0.34-0.294,0.352
		c-0.117,0.012-0.246-0.152-0.363-0.141s-0.24-0.123-0.357-0.117c-0.111,0.012-0.205,0.293-0.322,0.305
		c-0.105,0.012-0.229-0.059-0.34-0.053c-0.117,0.006-0.24,0.029-0.352,0.023c-0.117-0.006-0.234-0.111-0.352-0.117
		c-0.117-0.006-0.234-0.006-0.352-0.023c-0.111-0.012-0.252,0.146-0.363,0.135c-0.117-0.018-0.199-0.328-0.316-0.346
		s-0.246,0.1-0.364,0.082c-0.117-0.018-0.252,0.1-0.369,0.082c-0.111-0.018-0.205-0.24-0.322-0.252
		c-0.135-0.012-0.305-0.1-0.428-0.082c-0.117,0.012-0.199,0.293-0.311,0.305c-0.117,0.012-0.24-0.023-0.352-0.018
		c-0.117,0-0.234-0.182-0.352-0.193c-0.111,0-0.234,0.164-0.352,0.152c-0.117-0.006-0.24,0.023-0.358,0.006
		c-0.111-0.018-0.193-0.264-0.305-0.287c-0.111-0.018-0.229-0.012-0.346-0.035c-0.111-0.018-0.258,0.123-0.375,0.105
		c-0.105-0.023-0.223-0.041-0.34-0.064c-0.106-0.018-0.2-0.146-0.311-0.171c-0.111-0.023-0.205-0.141-0.322-0.164
		c-0.111-0.018-0.234,0.029-0.352,0.012c-0.111-0.023-0.246,0.082-0.357,0.07c-0.112-0.018-0.217-0.105-0.329-0.117
		s-0.229-0.023-0.346-0.029c-0.105-0.006-0.234,0.135-0.346,0.129s-0.217-0.182-0.328-0.193s-0.241,0.047-0.346,0.035
		c-0.111-0.023-0.223-0.076-0.328-0.094c-0.117-0.018-0.24,0.023-0.352,0.006c-0.117-0.023-0.17-0.311-0.281-0.334
		c-0.105-0.023-0.193-0.117-0.305-0.146c-0.111-0.023-0.305,0.264-0.41,0.229c-0.105-0.029-0.24-0.012-0.346-0.041
		c-0.111-0.035-0.146-0.293-0.252-0.334c-0.105-0.035-0.176-0.182-0.281-0.223c-0.106-0.035-0.352,0.287-0.452,0.246
		c-0.105-0.035-0.129-0.287-0.234-0.328c-0.1-0.047-0.158-0.211-0.258-0.258c-0.105-0.041-0.229-0.035-0.334-0.082
		s-0.258,0.023-0.364-0.023s-0.176-0.141-0.281-0.188c-0.1-0.053-0.234-0.047-0.334-0.105c-0.1-0.047-0.076-0.316-0.176-0.375
		s-0.182-0.141-0.275-0.199c-0.1-0.053-0.305,0.082-0.405,0.023c-0.094-0.059-0.299,0.047-0.393-0.012s-0.129-0.223-0.223-0.281
		c-0.094-0.071-0.182-0.153-0.27-0.212c-0.088-0.076-0.246-0.07-0.329-0.146c-0.088-0.076-0.141-0.205-0.211-0.275
		c-0.082-0.094,0.023-0.322-0.035-0.41c-0.07-0.094-0.135-0.176-0.193-0.27c-0.053-0.094-0.123-0.176-0.164-0.281
		s-0.193-0.176-0.217-0.281s0.129-0.234,0.129-0.346s0.082-0.193,0.094-0.299c0.023-0.111-0.035-0.211-0.006-0.322
		c0.035-0.101-0.129-0.294-0.076-0.394c0.047-0.1,0.258-0.111,0.316-0.211c0.064-0.088,0.012-0.27,0.094-0.352
		c0.07-0.082,0.094-0.234,0.182-0.316c0.076-0.07,0.358,0.076,0.452,0c0.082-0.064,0.217-0.059,0.311-0.123
		c0.088-0.064,0.023-0.357,0.117-0.428c0.1-0.059,0.264,0.012,0.369-0.041c0.094-0.053,0.088-0.311,0.193-0.357
		c0.1-0.053,0.182-0.141,0.288-0.188c0.1-0.047,0.258,0.012,0.363-0.029c0.1-0.041,0.293,0.135,0.398,0.094S14.9,33.107,15,33.066
		c0.105-0.041,0.205-0.105,0.311-0.141c0.1-0.042,0.287,0.135,0.393,0.094c0.105-0.035,0.152-0.247,0.258-0.288
		c0.1-0.041,0.188-0.135,0.293-0.17c0.1-0.041,0.211-0.059,0.316-0.1c0.106-0.041,0.223-0.041,0.323-0.082
		c0.088-0.035,0.211,0.182,0.322,0.217c0.094,0.023,0.246-0.082,0.34-0.047c0.105,0.041,0.211,0.129,0.311,0.158
		c-0.053,0.1-0.006,0.276-0.053,0.382s-0.211,0.164-0.264,0.258c-0.053,0.105,0.018,0.305-0.041,0.393
		c-0.059,0.076-0.234,0.152-0.334,0.205c-0.094,0.035-0.34-0.188-0.422-0.135c-0.1,0.064-0.064,0.311-0.147,0.381
		c-0.094,0.07-0.047,0.246-0.123,0.316c-0.076,0.094-0.346,0.018-0.404,0.105c-0.053,0.1,0.064,0.264,0.035,0.369
		c-0.023,0.105-0.047,0.182-0.041,0.299c0,0.111,0.035,0.176,0.07,0.287c0.035,0.1-0.053,0.253,0.012,0.347
		c0.064,0.082,0.117,0.193,0.205,0.27c0.076,0.07,0.117,0.234,0.211,0.293c0.094,0.059,0.206,0.129,0.317,0.176
		c0.094,0.041,0.352-0.234,0.445-0.188s0.176,0.141,0.27,0.188c0.105,0.047,0.129,0.229,0.234,0.275
		c0.094,0.047,0.158,0.176,0.258,0.217c0.1,0.047,0.165,0.17,0.27,0.211c0.094,0.047,0.258-0.059,0.363-0.018
		c0.1,0.035,0.193,0.1,0.299,0.129c0.1,0.029,0.205,0.088,0.311,0.111s0.211,0.094,0.329,0.105c0.105,0.012,0.234-0.146,0.34-0.141
		c0.105,0,0.217,0.041,0.328,0.035c0.111-0.012,0.234-0.123,0.346-0.117c0.111,0.012,0.252-0.047,0.37-0.023
		c0.105,0.023,0.188,0.193,0.293,0.229s0.199,0.129,0.305,0.17c0.105,0.035,0.211,0.07,0.316,0.105
		c0.105,0.047,0.27-0.059,0.37-0.018c0.111,0.041,0.123,0.346,0.223,0.381c0.111,0.035,0.252-0.018,0.357,0.012
		c0.117,0.023,0.223,0.059,0.34,0.07c0.111,0.023,0.205,0.141,0.316,0.152c0.117,0.012,0.241-0.082,0.346-0.07
		c0.111,0.018,0.205,0.159,0.316,0.177c0.111,0.012,0.217,0.035,0.334,0.053c0.111,0.012,0.258-0.358,0.375-0.347
		c0.111,0.012,0.194,0.306,0.305,0.317c0.105,0.012,0.234-0.153,0.346-0.142s0.205,0.229,0.311,0.235
		c0.117,0.012,0.223,0.047,0.34,0.059c0.105,0.012,0.223,0.041,0.329,0.047c0.111,0.012,0.246-0.305,0.352-0.299
		c0.117,0.006,0.211,0.334,0.316,0.334c0.117,0.006,0.229-0.047,0.34-0.041s0.223-0.035,0.334-0.029
		c0.112,0,0.229-0.012,0.334-0.006c0.117,0.006,0.229-0.182,0.34-0.182s0.223,0.258,0.328,0.258c0.117,0,0.229-0.281,0.34-0.281
		c0.117,0,0.223,0.164,0.34,0.164c0.105,0,0.223,0.076,0.334,0.076c0.111-0.006,0.218-0.111,0.335-0.111
		c0.111-0.006,0.223,0.059,0.334,0.059c0.111-0.006,0.217-0.188,0.322-0.199c0.117,0,0.234,0.193,0.352,0.188
		c0.105-0.006,0.199-0.282,0.311-0.288s0.234,0.159,0.346,0.147c0.111-0.006,0.223,0.012,0.34,0
		c0.105-0.012,0.223-0.012,0.328-0.023c0.111-0.012,0.223-0.053,0.329-0.064c0.111-0.019,0.211-0.089,0.328-0.112
		c0.105-0.012,0.211-0.094,0.316-0.105c0.117-0.012,0.246,0.164,0.363,0.146c0.111-0.018,0.188-0.24,0.293-0.258
		c0.117-0.018,0.223-0.018,0.334-0.029c0.111-0.023,0.24,0.076,0.352,0.059c0.105-0.023,0.217-0.059,0.322-0.082
		s0.246,0.07,0.352,0.047s0.165-0.293,0.276-0.311c0.105-0.018,0.211-0.064,0.322-0.082c0.105-0.029,0.252,0.1,0.363,0.076
		c0.105-0.023,0.229,0.006,0.34-0.023c0.105-0.023,0.217-0.047,0.328-0.082c0.1-0.023,0.211-0.047,0.311-0.07
		c0.1-0.035,0.158-0.229,0.258-0.264c0.105-0.029,0.234,0.023,0.334-0.012c0.105-0.041,0.152-0.217,0.246-0.258
		c0.105-0.041,0.271,0.088,0.37,0.047s0.199-0.088,0.299-0.135s0.129-0.223,0.229-0.27s0.229-0.035,0.322-0.082
		c0.094-0.053,0.199-0.088,0.293-0.141c0.094-0.059,0.205-0.076,0.293-0.129c0.094-0.059,0.258,0,0.352-0.059
		c0.094-0.053,0.199-0.094,0.293-0.152s0.199-0.141,0.27-0.199c0.082-0.082,0.07-0.258,0.129-0.341
		c0.064-0.088,0.259-0.152,0.282-0.246c0.029-0.105-0.188-0.246-0.206-0.346c-0.012-0.1-0.029-0.182-0.076-0.287
		c-0.047-0.088-0.152-0.117-0.223-0.205c-0.059-0.076-0.158-0.1-0.24-0.176c-0.076-0.07-0.123-0.146-0.211-0.205
		c-0.082-0.064-0.088-0.229-0.17-0.287c-0.082-0.064-0.252-0.006-0.34-0.064c-0.082-0.059-0.029-0.311-0.111-0.375
		c-0.082-0.059-0.111-0.199-0.193-0.258s-0.305,0.07-0.387,0c-0.082-0.059-0.141-0.152-0.223-0.217
		C39.079,33.078,39.231,32.984,39.196,32.819z M15.61,33.588c-0.094,0.053-0.305,0.158-0.399,0.205
		c-0.094,0.053-0.217,0.059-0.305,0.105c-0.094,0.053-0.199,0.082-0.293,0.135s-0.129,0.205-0.223,0.252s-0.164,0.141-0.258,0.199
		c-0.094,0.047-0.217,0.047-0.305,0.1c-0.088,0.053-0.24,0.023-0.328,0.076c-0.088,0.059-0.07,0.27-0.152,0.34
		c-0.094,0.064-0.234,0.059-0.316,0.123c-0.082,0.076-0.246,0.088-0.316,0.164c-0.07,0.088-0.164,0.182-0.223,0.27
		c-0.059,0.094,0.223,0.358,0.182,0.452c-0.041,0.105-0.264,0.135-0.282,0.234c-0.018,0.111,0,0.223,0.018,0.328
		c0.012,0.105-0.064,0.246-0.023,0.352c0.035,0.094,0.317,0.07,0.375,0.164c0.059,0.082,0,0.252,0.076,0.334
		c0.064,0.076,0.275-0.018,0.363,0.053c0.082,0.07-0.006,0.375,0.088,0.434c0.088,0.059,0.246,0.018,0.34,0.07
		c0.088,0.059,0.258-0.012,0.352,0.041c0.094,0.059,0.1,0.264,0.193,0.316c0.1,0.053,0.111,0.253,0.205,0.3
		c0.1,0.059,0.234,0.041,0.328,0.088c0.094,0.053,0.24,0.018,0.34,0.064s0.152,0.188,0.247,0.234
		c0.105,0.047,0.246-0.018,0.352,0.023c0.094,0.047,0.164,0.176,0.264,0.211c0.105,0.041,0.275-0.105,0.381-0.07
		c0.1,0.035,0.234-0.047,0.34-0.018c0.1,0.029,0.106,0.404,0.211,0.434s0.223,0.041,0.334,0.064c0.111,0.029,0.24-0.041,0.346-0.012
		c0.111,0.023,0.223,0.053,0.328,0.082c0.111,0.018,0.234,0,0.346,0.018c0.105,0.023,0.182,0.217,0.299,0.24
		c0.105,0.023,0.258-0.188,0.375-0.176c0.111,0.023,0.188,0.223,0.293,0.246c0.117,0.018,0.234-0.012,0.34,0.006
		c0.117,0.018,0.211,0.129,0.316,0.152c0.117,0.018,0.234-0.006,0.34,0.006c0.117,0.018,0.234-0.012,0.34,0
		c0.117,0.018,0.24-0.064,0.352-0.047c0.118,0.018,0.241-0.041,0.352-0.023c0.105,0.012,0.164,0.328,0.275,0.352
		c0.111,0.018,0.24-0.094,0.357-0.076c0.105,0.018,0.223,0.029,0.328,0.047c0.117,0.018,0.2,0.146,0.311,0.17
		s0.217,0.047,0.328,0.07s0.24-0.059,0.352-0.035s0.223,0.018,0.334,0.041c0.105,0.018,0.223-0.041,0.334-0.029
		c0.111,0.012,0.217-0.023,0.334-0.012c0.105,0.006,0.211,0.012,0.328,0.012c0.111,0.012,0.211,0.023,0.328,0.029
		c0.111,0.006,0.211,0.146,0.329,0.146c0.111,0,0.217-0.006,0.328-0.006c0.117,0,0.217-0.217,0.328-0.217
		c0.117,0,0.234,0.305,0.34,0.299c0.111-0.006,0.211-0.293,0.322-0.299c0.112,0,0.229,0.34,0.34,0.34
		c0.111-0.006,0.217-0.258,0.322-0.258c0.117,0,0.223,0.217,0.334,0.217s0.217-0.311,0.334-0.311c0.111,0,0.211,0.258,0.329,0.264
		c0.111,0.006,0.234-0.223,0.34-0.217c0.105,0,0.211,0.152,0.322,0.164c0.111,0.006,0.229-0.023,0.334-0.012
		s0.234-0.082,0.352-0.059c0.105,0.012,0.176,0.252,0.287,0.258c0.105,0.012,0.217-0.047,0.329-0.047
		c0.105,0.012,0.211-0.082,0.322-0.088c0.105-0.006,0.217,0.123,0.322,0.117c0.111-0.006,0.229,0.146,0.334,0.129
		c0.111-0.006,0.199-0.193,0.311-0.205s0.229,0.129,0.34,0.117s0.17-0.34,0.281-0.352s0.24,0.152,0.346,0.141
		s0.229,0.117,0.34,0.105c0.105-0.012,0.182-0.299,0.294-0.305c0.105-0.012,0.217,0.047,0.328,0.041
		c0.105-0.006,0.211-0.029,0.316-0.035c0.117,0,0.229,0.1,0.34,0.088c0.111-0.006,0.223-0.023,0.334-0.035
		c0.111-0.006,0.205-0.188,0.311-0.199c0.117-0.012,0.258,0.27,0.363,0.258c0.117-0.012,0.211-0.158,0.316-0.176
		s0.199-0.164,0.311-0.182c0.112-0.018,0.253,0.17,0.364,0.158c0.111-0.018,0.217-0.059,0.328-0.082
		c0.111-0.018,0.17-0.305,0.275-0.328c0.105-0.018,0.223-0.006,0.334-0.023c0.105-0.023,0.252,0.129,0.357,0.105
		c0.111-0.023,0.188-0.217,0.293-0.246c0.105-0.023,0.211-0.094,0.316-0.117s0.27,0.188,0.375,0.164
		c0.111-0.023,0.211-0.082,0.322-0.105c0.112-0.023,0.183-0.211,0.288-0.234c0.111-0.029,0.217-0.059,0.328-0.082
		c0.105-0.023,0.223,0.047,0.322,0.012s0.24,0.012,0.334-0.035c0.094-0.053,0.158-0.158,0.252-0.211s0.123-0.211,0.217-0.264
		c0.1-0.053,0.229-0.035,0.322-0.088c0.094-0.047,0.193-0.088,0.293-0.129c0.105-0.047,0.158-0.234,0.264-0.27
		c0.1-0.041,0.265,0.07,0.376,0.029c0.105-0.041,0.188-0.147,0.293-0.183s0.223-0.035,0.328-0.076s0.188-0.146,0.293-0.182
		c0.1-0.047,0.311,0.164,0.416,0.117c0.1-0.047,0.246-0.041,0.346-0.094c0.1-0.047,0.035-0.393,0.129-0.451
		c0.105-0.064,0.152-0.17,0.234-0.24c0.094-0.082,0.34,0.012,0.41-0.07c0.082-0.094,0.259-0.146,0.317-0.246
		c0.053-0.105-0.265-0.346-0.235-0.457c0.023-0.117,0.253-0.182,0.247-0.299c0-0.111,0.1-0.275,0.07-0.387
		c-0.035-0.111-0.146-0.217-0.206-0.323c-0.059-0.094-0.24-0.117-0.311-0.211c-0.07-0.088-0.117-0.199-0.205-0.287
		c-0.082-0.076-0.211-0.1-0.305-0.17c-0.111-0.094-0.111-0.369-0.199-0.41c-0.135-0.059-0.398-0.088-0.498-0.047
		c-0.094,0.035-0.088,0.316-0.158,0.439c-0.053,0.088,0.088,0.264,0.041,0.393c-0.035,0.094-0.188,0.164-0.223,0.258
		c-0.047,0.095-0.105,0.188-0.152,0.276c-0.053,0.088-0.029,0.252-0.088,0.334c-0.064,0.082-0.188,0.152-0.264,0.217
		c-0.082,0.076-0.328-0.018-0.404,0.053c-0.088,0.076-0.165,0.158-0.253,0.229c-0.094,0.064-0.164,0.158-0.264,0.223
		c-0.094,0.064-0.117,0.24-0.211,0.299s-0.287-0.029-0.381,0.023c-0.105,0.059-0.234,0.041-0.334,0.094
		c-0.1,0.059-0.158,0.182-0.264,0.229s-0.117,0.299-0.223,0.346c-0.105,0.041-0.275-0.07-0.381-0.035
		c-0.111,0.047-0.164,0.223-0.275,0.264c-0.105,0.041-0.193,0.158-0.3,0.193c-0.111,0.029-0.299-0.223-0.416-0.188
		c-0.105,0.035-0.24-0.023-0.352,0.006c-0.105,0.029-0.141,0.335-0.258,0.37c-0.111,0.023-0.252-0.094-0.363-0.07
		c-0.117,0.023-0.176,0.27-0.293,0.293c-0.111,0.023-0.211,0.082-0.322,0.105s-0.246-0.07-0.352-0.047
		c-0.111,0.018-0.27-0.199-0.381-0.176c-0.105,0.018-0.177,0.299-0.282,0.316c-0.111,0.018-0.223,0.064-0.328,0.082
		c-0.111,0.018-0.258-0.188-0.369-0.17s-0.193,0.217-0.311,0.24c-0.105,0.012-0.211,0.094-0.328,0.117
		c-0.105,0.012-0.223,0.012-0.334,0.035c-0.111,0.012-0.229-0.012-0.34,0.012c-0.111,0.012-0.252-0.188-0.363-0.176
		s-0.205,0.182-0.323,0.199c-0.105,0.012-0.223,0-0.34,0.006c-0.105,0.012-0.211,0.111-0.328,0.129
		c-0.105,0.012-0.234-0.111-0.346-0.1s-0.217,0.176-0.322,0.188c-0.117,0.006-0.234-0.023-0.34-0.012
		c-0.117,0.006-0.246-0.293-0.357-0.281c-0.111,0.006-0.211,0.223-0.322,0.234c-0.117,0.006-0.223,0.158-0.334,0.164
		c-0.112,0-0.229-0.258-0.347-0.258c-0.111,0-0.223,0.176-0.328,0.188c-0.117,0-0.229-0.012-0.34,0c-0.111,0-0.223,0.018-0.34,0.018
		c-0.105,0-0.223-0.146-0.334-0.146s-0.223-0.029-0.334-0.029c-0.117,0-0.223-0.111-0.34-0.111
		c-0.111-0.006-0.223-0.012-0.334-0.012c-0.111-0.006-0.24,0.346-0.352,0.34c-0.111,0-0.223-0.053-0.334-0.059
		c-0.117,0-0.223-0.158-0.334-0.164c-0.111,0-0.217-0.105-0.334-0.105c-0.111-0.012-0.217-0.1-0.328-0.105
		c-0.117-0.012-0.24,0.141-0.352,0.129c-0.111-0.006-0.223-0.047-0.329-0.059c-0.117-0.006-0.223-0.053-0.34-0.059
		c-0.105-0.012-0.217-0.076-0.328-0.088c-0.111-0.018-0.234,0.146-0.352,0.146c-0.111,0-0.223-0.035-0.34-0.023
		c-0.111,0.006-0.217,0.129-0.328,0.141c-0.111,0.006-0.223,0.094-0.34,0.105c-0.105,0.006-0.234-0.129-0.34-0.141
		c-0.117,0-0.223-0.07-0.334-0.088c-0.112-0.018-0.217-0.029-0.334-0.064c-0.105-0.029-0.258,0.082-0.369,0.047
		s-0.111-0.352-0.217-0.393s-0.24,0.006-0.34-0.041c-0.105-0.041-0.211-0.094-0.311-0.141c-0.1-0.041-0.176-0.176-0.281-0.217
		c-0.111-0.042-0.252,0.023-0.357-0.019c-0.111-0.035-0.176-0.199-0.281-0.234c-0.111-0.035-0.211-0.094-0.322-0.129
		c-0.112-0.035-0.34,0.293-0.452,0.246c-0.105-0.035-0.117-0.34-0.223-0.381c-0.111-0.041-0.281,0.088-0.387,0.053
		s-0.141-0.275-0.252-0.316c-0.111-0.035-0.206-0.105-0.305-0.152c-0.111-0.041-0.199-0.105-0.311-0.152
		c-0.1-0.035-0.34,0.211-0.445,0.164c-0.1-0.047-0.07-0.387-0.17-0.434c-0.1-0.059-0.223-0.047-0.328-0.105
		c-0.1-0.053-0.211-0.064-0.299-0.123c-0.094-0.059-0.188-0.1-0.27-0.164c-0.094-0.064-0.305,0.006-0.381-0.059
		c-0.082-0.076,0.029-0.328-0.041-0.404c-0.064-0.088-0.363-0.018-0.41-0.117c-0.053-0.094,0.059-0.27,0.023-0.375
		c-0.029-0.095,0.023-0.212,0.012-0.317s-0.118-0.199-0.118-0.311c0-0.1,0.083-0.205,0.1-0.316c0.012-0.1-0.147-0.24-0.124-0.346
		c0.018-0.105,0.247-0.164,0.27-0.27c0.029-0.1-0.2-0.281-0.164-0.387C15.293,33.846,15.569,33.699,15.61,33.588z"/>
	<path d="M25.305,29.678C25.293,29.795,24.982,29.9,24.97,30c-0.018,0.111,0.141,0.247,0.117,0.358
		c-0.029,0.105-0.24,0.152-0.275,0.258c-0.035,0.111-0.07,0.199-0.111,0.293c-0.041,0.105,0.188,0.328,0.141,0.422
		c-0.053,0.105-0.141,0.188-0.193,0.281c-0.059,0.094-0.129,0.188-0.199,0.281c-0.07,0.082-0.293,0.041-0.363,0.123
		s-0.193,0.1-0.275,0.17c-0.083,0.076-0.018,0.316-0.1,0.387c-0.088,0.07-0.305-0.047-0.393,0.023
		c-0.088,0.059-0.053,0.316-0.146,0.37c-0.094,0.053-0.281-0.047-0.375,0.006c-0.105,0.059-0.164,0.287-0.293,0.293
		c-0.135,0-0.329,0.059-0.434,0.012c-0.059-0.023,0.164-0.299,0.164-0.458c-0.012-0.111-0.27-0.234-0.264-0.34
		c0.006-0.094,0.076-0.205,0.111-0.305c0.023-0.1,0.082-0.193,0.117-0.287c0.047-0.111,0.293-0.141,0.329-0.246
		c0.035-0.111-0.188-0.299-0.152-0.404c0.023-0.117-0.035-0.234-0.012-0.34c0.012-0.117,0.34-0.193,0.34-0.305
		c0.012-0.111,0.012-0.246,0.006-0.352c-0.006-0.118-0.076-0.235-0.088-0.353c-0.023-0.105-0.023-0.234-0.047-0.346
		c-0.029-0.111-0.047-0.24-0.082-0.346c-0.041-0.105-0.123-0.211-0.176-0.311c-0.047-0.1-0.147-0.182-0.211-0.281
		c-0.053-0.094-0.264-0.088-0.328-0.182c-0.064-0.088-0.146-0.152-0.223-0.24c-0.07-0.088-0.164-0.135-0.246-0.217
		c-0.082-0.076-0.07-0.246-0.158-0.316c-0.088-0.076-0.018-0.316-0.1-0.398c-0.082-0.07-0.352,0.047-0.422-0.035
		c-0.082-0.082-0.152-0.188-0.223-0.27s0.082-0.364,0.012-0.446c-0.064-0.094-0.311-0.041-0.375-0.129
		c-0.059-0.094-0.105-0.199-0.17-0.293c-0.059-0.094-0.24-0.129-0.287-0.223c-0.053-0.105-0.088-0.223-0.129-0.322
		c-0.047-0.105,0.106-0.287,0.071-0.393c-0.041-0.1,0.047-0.234,0.012-0.34c-0.023-0.105-0.235-0.164-0.258-0.27
		c-0.023-0.111-0.246-0.193-0.258-0.305c-0.018-0.117,0.205-0.252,0.199-0.363c0-0.106-0.1-0.217-0.1-0.329
		s-0.123-0.234-0.117-0.352c0.006-0.111,0.111-0.223,0.123-0.328c0.023-0.111,0.047-0.223,0.07-0.334s-0.082-0.252-0.047-0.37
		c0.023-0.105,0.258-0.158,0.293-0.27c0.036-0.1,0.176-0.17,0.217-0.27c0.041-0.105,0.064-0.211,0.111-0.316
		c0.041-0.1-0.035-0.258,0.018-0.364c0.053-0.1,0.111-0.193,0.158-0.305c0.047-0.105,0.164-0.176,0.211-0.287
		c0.041-0.111-0.141-0.299-0.094-0.404c0.035-0.105,0.047-0.234,0.088-0.34c0.041-0.112,0.451-0.059,0.498-0.165
		c0.047-0.111,0.047-0.223,0.105-0.322s-0.141-0.357-0.07-0.451s0.129-0.229,0.211-0.311c0.077-0.082,0.27-0.064,0.352-0.135
		c0.088-0.071,0.141-0.188,0.234-0.258s0.141-0.199,0.234-0.264s0.387,0.17,0.48,0.111c0.094-0.064,0.211-0.082,0.305-0.141
		s0.141-0.199,0.246-0.258c0.094-0.059,0.047-0.363,0.152-0.416c0.094-0.059,0.352,0.164,0.445,0.105
		c0.105-0.053,0.234-0.053,0.328-0.111c0.1-0.059,0-0.446,0.1-0.504c0.064-0.047,0.703,0.317,0.697,0.381
		c-0.012,0.111-0.281,0.193-0.316,0.299c-0.041,0.105-0.129,0.182-0.182,0.281s0.088,0.293,0.029,0.387
		c-0.047,0.105-0.188,0.152-0.234,0.246c-0.059,0.106-0.282,0.106-0.34,0.2c-0.047,0.094-0.047,0.223-0.094,0.322
		c-0.053,0.094-0.018,0.24-0.07,0.334s-0.018,0.246-0.07,0.34c-0.047,0.094-0.012,0.234-0.07,0.334
		c-0.047,0.1-0.105,0.193-0.158,0.287c-0.053,0.105-0.182,0.152-0.24,0.246c-0.047,0.105-0.246,0.123-0.293,0.223
		s-0.082,0.199-0.129,0.305c-0.047,0.094-0.118,0.188-0.153,0.287c-0.047,0.1,0.129,0.299,0.088,0.405
		c-0.041,0.1-0.357,0.088-0.393,0.188c-0.041,0.094,0.24,0.27,0.234,0.375c-0.012,0.094-0.199,0.193-0.188,0.305
		c0.012,0.1-0.152,0.235-0.135,0.34s0.193,0.182,0.211,0.287c0.023,0.1,0.229,0.17,0.246,0.275s-0.17,0.24-0.158,0.346
		c0.012,0.111,0.293,0.17,0.311,0.275c0.018,0.106-0.252,0.282-0.229,0.387c0.035,0.1-0.023,0.252,0.012,0.352
		c0.035,0.105,0.176,0.176,0.223,0.27c0.047,0.105,0.369,0.059,0.422,0.152C22.843,25,22.86,25.106,22.913,25.2
		c0.059,0.094-0.07,0.305-0.006,0.393c0.059,0.088,0.357,0.018,0.416,0.105c0.07,0.088,0.059,0.217,0.129,0.305
		c0.059,0.088,0.199,0.123,0.258,0.205c0.071,0.088-0.199,0.434-0.135,0.516c0.064,0.088,0.211,0.117,0.276,0.199
		c0.059,0.082,0.27,0.07,0.328,0.158s0.012,0.252,0.064,0.352c0.064,0.088,0.146,0.164,0.199,0.258
		c0.064,0.105,0.018,0.246,0.064,0.358c0.047,0.105,0.152,0.188,0.193,0.299s0.023,0.24,0.059,0.357
		c0.029,0.105,0.047,0.229,0.076,0.34c0.035,0.117,0.176,0.199,0.211,0.316S25.264,29.572,25.305,29.678z M23.804,30.921
		c0.094,0.012,0.229,0.234,0.328,0.234c0.012-0.105-0.1-0.34-0.082-0.445c0.018-0.1,0.229-0.176,0.246-0.281
		s0.035-0.223,0.053-0.329c0.012-0.105-0.281-0.234-0.275-0.34c0-0.105,0.029-0.205,0.012-0.305
		c-0.018-0.117-0.029-0.223-0.053-0.328c-0.018-0.105,0.146-0.27,0.111-0.375c-0.029-0.105,0-0.246-0.035-0.352
		c-0.041-0.1-0.293-0.129-0.34-0.223c-0.047-0.105,0.1-0.305,0.047-0.405c-0.047-0.1-0.311-0.088-0.364-0.182
		c-0.059-0.094,0.035-0.287-0.035-0.375c-0.059-0.094-0.299-0.059-0.369-0.152c-0.064-0.082-0.193-0.123-0.264-0.211
		c-0.07-0.082,0.105-0.387,0.035-0.469s-0.352,0.018-0.422-0.064c-0.082-0.082-0.129-0.193-0.2-0.275
		c-0.082-0.076-0.152-0.164-0.234-0.234c-0.07-0.076,0.012-0.305-0.059-0.381c-0.076-0.076-0.352,0.006-0.404-0.076
		c-0.064-0.094-0.193-0.193-0.217-0.293c-0.029-0.105,0.246-0.293,0.217-0.398s-0.053-0.211-0.082-0.316
		c-0.029-0.111-0.117-0.199-0.146-0.305c-0.023-0.105-0.035-0.211-0.059-0.323c-0.023-0.111-0.029-0.217-0.047-0.322
		c-0.023-0.111-0.082-0.205-0.105-0.316c-0.012-0.105-0.082-0.211-0.094-0.316c-0.012-0.111-0.2-0.211-0.2-0.322
		c-0.006-0.112-0.035-0.235-0.029-0.346c0.006-0.105-0.018-0.234-0.006-0.34s0.158-0.211,0.176-0.316
		c0.024-0.105,0.27-0.152,0.305-0.258s-0.188-0.299-0.141-0.399c0.023-0.047,0.018-0.018-0.035-0.111
		c-0.07,0.1-0.317-0.006-0.375,0.082c-0.059,0.1,0.07,0.311,0.018,0.411c-0.064,0.1-0.129,0.193-0.182,0.287
		c-0.059,0.105,0.018,0.264-0.029,0.363c-0.053,0.105-0.117,0.193-0.158,0.293c-0.047,0.105-0.281,0.141-0.322,0.235
		c-0.041,0.117-0.193,0.199-0.217,0.305c-0.035,0.105,0.129,0.27,0.105,0.381c-0.018,0.117,0.176,0.24,0.176,0.346
		c-0.012,0.117-0.246,0.223-0.234,0.34c0.006,0.106,0.111,0.211,0.135,0.317c0.023,0.117,0.17,0.176,0.217,0.281
		c0.029,0.105-0.012,0.234,0.035,0.334s0.082,0.199,0.141,0.299c0.047,0.094,0.217,0.117,0.281,0.217
		c0.059,0.088-0.059,0.299,0.012,0.393s0.047,0.246,0.117,0.34c0.059,0.082,0.146,0.164,0.223,0.258
		c0.07,0.082,0.24,0.088,0.316,0.176c0.07,0.088,0.129,0.188,0.199,0.275c0.07,0.088,0.082,0.223,0.152,0.305
		c0.07,0.088,0.322,0.018,0.393,0.111c0.064,0.082,0.17,0.146,0.24,0.234c0.071,0.082-0.176,0.41-0.111,0.504
		s0.17,0.141,0.235,0.235c0.064,0.094,0.375,0.012,0.434,0.105c0.064,0.088,0.152,0.176,0.205,0.27
		c0.059,0.094-0.012,0.27,0.035,0.363c0.053,0.105,0.152,0.176,0.199,0.281c0.041,0.105,0.158,0.188,0.199,0.287
		c0.035,0.1-0.264,0.322-0.229,0.428c0.029,0.105,0.018,0.205,0.041,0.316c0.029,0.106,0.141,0.188,0.164,0.294
		c0.012,0.105,0.317,0.176,0.329,0.287C23.781,30.757,23.757,30.804,23.804,30.921z"/>
	<path d="M29.677,16.173c-0.035,0.111,0.023,0.363,0,0.469c-0.035,0.118-0.152,0.211-0.188,0.317
		c-0.035,0.111-0.305,0.152-0.34,0.258c-0.035,0.111,0.199,0.311,0.164,0.422s-0.234,0.176-0.264,0.281
		c-0.035,0.117-0.146,0.205-0.182,0.317c-0.035,0.117,0.158,0.293,0.123,0.404c-0.029,0.111-0.064,0.223-0.1,0.334
		c-0.035,0.105-0.088,0.211-0.123,0.322c-0.029,0.105-0.205,0.17-0.229,0.276c-0.023,0.105,0.012,0.223-0.012,0.328
		c-0.023,0.111-0.094,0.211-0.105,0.316c-0.018,0.111,0.135,0.234,0.129,0.34c-0.012,0.111-0.305,0.205-0.305,0.316
		c-0.006,0.106,0.164,0.223,0.164,0.329c0.012,0.105,0.129,0.211,0.141,0.316s-0.105,0.229-0.094,0.34
		c0.023,0.105,0.117,0.199,0.141,0.305s-0.158,0.258-0.129,0.364c0.023,0.105,0.346,0.129,0.381,0.234
		c0.035,0.1-0.17,0.281-0.129,0.387s0.27,0.123,0.311,0.223c0.047,0.1,0.105,0.188,0.152,0.281s-0.129,0.317-0.076,0.411
		s0.146,0.176,0.205,0.27s0.059,0.223,0.123,0.316s0.322,0.035,0.393,0.129c0.064,0.088,0.135,0.176,0.193,0.27
		c0.065,0.088,0,0.258,0.06,0.358c0.059,0.094,0.053,0.217,0.105,0.311c0.059,0.105,0.334,0.076,0.381,0.176
		c0.059,0.1-0.023,0.258,0.023,0.357c0.047,0.105-0.082,0.27-0.047,0.37c0.041,0.105,0.094,0.199,0.123,0.299
		c0.035,0.105,0.252,0.152,0.281,0.264c0.029,0.105,0.141,0.199,0.17,0.305c0.018,0.105-0.094,0.24-0.076,0.352
		c0.018,0.105,0.018,0.223,0.029,0.329c0.006,0.105,0.094,0.217,0.1,0.328c0.006,0.105-0.246,0.211-0.252,0.322
		c0,0.111,0.352,0.234,0.34,0.346c-0.006,0.105-0.27,0.199-0.281,0.305c-0.012,0.111,0.035,0.229,0.023,0.34
		c-0.023,0.105,0.105,0.246,0.076,0.353c-0.029,0.105-0.158,0.188-0.182,0.299c-0.029,0.105,0.047,0.246,0.012,0.352
		c-0.035,0.1-0.287,0.135-0.316,0.24c-0.035,0.105,0.129,0.27,0.094,0.375c-0.035,0.1-0.229,0.141-0.27,0.246
		c-0.035,0.1,0.094,0.27,0.047,0.363c-0.047,0.105-0.199,0.146-0.258,0.234c-0.059,0.094,0.041,0.328-0.035,0.404
		c-0.07,0.076-0.323-0.023-0.411,0.041c-0.082,0.059-0.117,0.235-0.223,0.282c-0.088,0.047-0.258-0.076-0.363-0.047
		c-0.082,0.023-0.164-0.06-0.258-0.06c-0.094,0.006-0.176,0.03-0.27,0.023c-0.094,0-0.287,0.224-0.381,0.229
		c0.012-0.088-0.064-0.282-0.059-0.376s-0.018-0.205-0.006-0.299s0.164-0.193,0.205-0.275c0.053-0.1,0.111-0.193,0.158-0.299
		s0.199-0.164,0.234-0.27c0.047-0.105,0.094-0.211,0.129-0.311c0.035-0.111,0.188-0.193,0.217-0.299
		c0.029-0.117-0.053-0.258-0.041-0.363c0.012-0.117-0.041-0.234-0.035-0.352c0-0.105-0.035-0.224-0.047-0.335
		c-0.006-0.111,0.129-0.246,0.111-0.357c-0.018-0.105-0.311-0.158-0.334-0.27c-0.029-0.111-0.07-0.199-0.111-0.316
		c-0.035-0.1,0.018-0.234-0.023-0.34c-0.041-0.1,0.07-0.27,0.023-0.363c-0.041-0.1-0.229-0.135-0.275-0.229
		c-0.047-0.1,0.047-0.27-0.006-0.364s-0.246-0.111-0.299-0.205c-0.059-0.094-0.247-0.094-0.305-0.188s0.153-0.352,0.1-0.439
		c-0.064-0.088-0.152-0.158-0.211-0.252c-0.064-0.094-0.041-0.235-0.1-0.323s-0.27-0.07-0.34-0.158
		c-0.059-0.082,0.023-0.281-0.041-0.363c-0.064-0.088-0.217-0.105-0.287-0.188c-0.059-0.094-0.17-0.141-0.234-0.229
		s-0.07-0.211-0.129-0.299c-0.059-0.094-0.018-0.234-0.07-0.328s-0.469-0.006-0.516-0.105s0.012-0.258-0.023-0.352
		c-0.035-0.105,0.082-0.258,0.053-0.363s-0.193-0.176-0.217-0.282s0.152-0.246,0.135-0.352c-0.018-0.111,0.029-0.211,0.018-0.322
		c-0.006-0.111-0.352-0.199-0.352-0.311c0-0.105,0.059-0.223,0.064-0.328c0.006-0.106,0.17-0.2,0.182-0.311s-0.123-0.24-0.105-0.346
		c0.023-0.105,0.287-0.152,0.316-0.258c0.023-0.105-0.082-0.246-0.047-0.346c0.035-0.105,0.088-0.2,0.129-0.299
		c0.035-0.105,0.059-0.211,0.105-0.316c0.047-0.094-0.094-0.293-0.035-0.387c0.047-0.1,0.246-0.117,0.305-0.211
		c0.047-0.1,0.1-0.199,0.159-0.293c0.053-0.094,0.252-0.1,0.311-0.194c0.059-0.088,0.07-0.217,0.129-0.311
		c0.064-0.088,0.146-0.164,0.211-0.252s-0.117-0.357-0.053-0.445s0.439,0.053,0.51-0.041c0.059-0.094-0.129-0.364-0.059-0.458
		c0.064-0.082,0.37,0.012,0.434-0.082c0.064-0.088-0.012-0.287,0.059-0.375c0.059-0.082,0.287-0.059,0.352-0.152
		c0.064-0.088,0.141-0.176,0.199-0.258c0.07-0.094-0.111-0.352-0.053-0.446c0.064-0.094,0.152-0.164,0.211-0.252
		c0.035-0.047,0.188-0.082,0.357-0.1C29.349,16.214,29.548,16.185,29.677,16.173z M27.315,20.628
		c-0.053,0.094,0.094,0.158,0.047,0.258c-0.047,0.094-0.164,0.153-0.205,0.252c-0.047,0.1-0.322,0.111-0.357,0.217
		c-0.041,0.1,0.199,0.293,0.17,0.393c-0.035,0.105-0.223,0.164-0.246,0.264c-0.023,0.111-0.129,0.211-0.141,0.316
		c-0.012,0.106,0.211,0.235,0.211,0.34c-0.006,0.105-0.006,0.199,0,0.311s-0.012,0.205,0.006,0.311
		c0.018,0.111-0.111,0.246-0.076,0.352c0.023,0.105,0.117,0.188,0.152,0.293c0.035,0.094,0.029,0.223,0.076,0.322
		c0.047,0.094,0.24,0.111,0.299,0.205s-0.129,0.34-0.07,0.434c0.064,0.1,0.27,0.105,0.328,0.199
		c0.059,0.094,0.223,0.129,0.281,0.223c0.07,0.094,0.023,0.258,0.082,0.352c0.071,0.094,0.2,0.146,0.258,0.24
		c0.07,0.094-0.047,0.305,0.023,0.404c0.059,0.094,0.375,0.012,0.434,0.105c0.07,0.094-0.07,0.329-0.012,0.422
		c0.07,0.094,0.305,0.064,0.369,0.158c0.07,0.1,0.146,0.182,0.211,0.27s-0.082,0.34-0.018,0.428c0.07,0.094,0.164,0.164,0.234,0.258
		c0.059,0.094,0.07,0.223,0.135,0.317s0.299,0.023,0.357,0.117c0.094-0.035,0.082-0.023,0.176-0.053
		c-0.035-0.111,0.083-0.205,0.06-0.311c-0.023-0.106,0.012-0.235-0.006-0.34c-0.029-0.111-0.3-0.164-0.323-0.27
		s0.076-0.252,0.047-0.352c-0.035-0.111,0.105-0.281,0.07-0.387c-0.041-0.106-0.111-0.223-0.164-0.317
		c-0.047-0.105-0.287-0.117-0.352-0.211c-0.059-0.105-0.199-0.146-0.264-0.24s-0.029-0.264-0.094-0.363
		c-0.07-0.094-0.129-0.193-0.199-0.287s-0.205-0.141-0.275-0.241c-0.064-0.094,0.082-0.322,0.023-0.428
		c-0.059-0.094-0.422-0.023-0.48-0.123c-0.047-0.1,0.141-0.311,0.1-0.422c-0.041-0.105-0.141-0.188-0.17-0.288
		c-0.035-0.111-0.211-0.176-0.235-0.281c-0.035-0.111,0.047-0.246,0.018-0.352c-0.023-0.105-0.146-0.193-0.176-0.305
		c-0.018-0.105,0.182-0.258,0.164-0.369s-0.24-0.182-0.264-0.288c-0.018-0.105,0.135-0.246,0.117-0.352
		c-0.018-0.111-0.223-0.188-0.246-0.305c-0.012-0.105,0.07-0.234,0.059-0.34c-0.023-0.111-0.258-0.188-0.281-0.293
		C27.151,20.769,27.333,20.733,27.315,20.628z"/>
	<path d="M35.679,17.809c-0.012,0.105-0.164,0.223-0.182,0.334c-0.018,0.106,0.123,0.229,0.1,0.34
		c-0.012,0.105-0.094,0.199-0.117,0.305c-0.012,0.111,0.176,0.246,0.152,0.352c-0.012,0.105-0.188,0.188-0.205,0.293
		c-0.012,0.112-0.094,0.211-0.105,0.317c-0.018,0.111,0.17,0.246,0.158,0.352c-0.012,0.111-0.105,0.211-0.111,0.322
		s-0.135,0.217-0.135,0.334c0,0.111-0.018,0.223-0.012,0.334c0,0.111,0.229,0.211,0.234,0.322c0.012,0.117-0.141,0.234-0.129,0.352
		c0.012,0.105,0.105,0.211,0.117,0.316c0.018,0.117-0.211,0.27-0.193,0.375s0.428,0.141,0.458,0.246
		c0.018,0.111-0.358,0.316-0.329,0.422s0.158,0.193,0.193,0.305c0.023,0.105,0.259,0.152,0.294,0.258
		c0.035,0.106-0.117,0.276-0.082,0.375c0.041,0.105,0.076,0.211,0.117,0.316s0.281,0.129,0.316,0.234
		c0.047,0.105-0.035,0.258,0.012,0.363c0.047,0.1,0.229,0.141,0.281,0.235c0.047,0.105-0.053,0.281,0,0.375
		c0.053,0.105,0.053,0.234,0.105,0.328c0.047,0.094,0.34,0.059,0.398,0.158c0.053,0.094,0.123,0.182,0.182,0.275
		c0.053,0.094-0.012,0.27,0.047,0.364c0.053,0.094-0.1,0.287-0.053,0.387c0.047,0.094,0.094,0.176,0.129,0.281
		c0.035,0.1,0.211,0.152,0.234,0.264c0.023,0.1,0.246,0.182,0.258,0.287c0.023,0.106-0.164,0.247-0.152,0.364
		c0.012,0.105-0.094,0.217-0.094,0.328c0.006,0.105,0.246,0.217,0.246,0.328c-0.006,0.105-0.029,0.223-0.035,0.328
		c-0.012,0.105,0,0.229-0.018,0.34c-0.018,0.105-0.252,0.176-0.275,0.281s0.158,0.265,0.129,0.376
		c-0.023,0.105-0.123,0.199-0.158,0.299c-0.029,0.1,0.029,0.252-0.018,0.357c-0.041,0.1-0.275,0.117-0.322,0.211
		c-0.053,0.1,0.076,0.299,0.018,0.393c-0.059,0.1-0.293,0.076-0.357,0.158c-0.064,0.088,0.047,0.316-0.023,0.398
		c-0.064,0.082-0.182,0.129-0.252,0.205c-0.076,0.076-0.305-0.006-0.381,0.064s-0.135,0.158-0.217,0.229
		c-0.076,0.064-0.152,0.141-0.235,0.211c-0.082,0.064-0.158,0.136-0.24,0.206c-0.082,0.059-0.17,0.123-0.252,0.188
		s0,0.34-0.082,0.404c-0.059,0.053-0.264-0.217-0.381-0.229c-0.088-0.012-0.164-0.094-0.264-0.117s-0.375,0.234-0.463,0.223
		c0.023-0.088,0.164-0.281,0.17-0.375c0.018-0.1-0.141-0.241-0.117-0.329c0.023-0.105,0.346-0.047,0.41-0.105
		c0.082-0.082,0.023-0.293,0.094-0.387c0.07-0.088,0.047-0.234,0.105-0.328c0.064-0.094,0.094-0.188,0.141-0.281
		c0.053-0.1,0.428-0.053,0.469-0.152c0.035-0.105,0.094-0.234,0.123-0.34s-0.018-0.246-0.006-0.363
		c0.012-0.111-0.24-0.24-0.234-0.352c0-0.117,0.27-0.234,0.258-0.347c-0.012-0.111-0.164-0.205-0.188-0.322
		c-0.023-0.105,0.117-0.258,0.088-0.363s-0.029-0.234-0.064-0.346c-0.029-0.105-0.281-0.135-0.322-0.24s-0.1-0.205-0.141-0.305
		c-0.047-0.1-0.264-0.105-0.311-0.199c-0.059-0.105,0.258-0.405,0.199-0.499c-0.059-0.1-0.229-0.123-0.293-0.217
		c-0.059-0.1-0.363-0.029-0.422-0.129c-0.059-0.094,0.223-0.398,0.164-0.492s-0.229-0.111-0.287-0.211
		c-0.053-0.094-0.1-0.194-0.146-0.293s-0.064-0.205-0.105-0.305c-0.035-0.105-0.164-0.164-0.199-0.27
		c-0.035-0.094-0.152-0.176-0.182-0.275c-0.029-0.105,0.076-0.24,0.064-0.346c-0.023-0.1-0.035-0.206-0.047-0.311
		c-0.012-0.111-0.27-0.193-0.275-0.299s0.381-0.223,0.381-0.328s-0.34-0.229-0.334-0.34c0.006-0.105-0.023-0.223-0.018-0.329
		c0.012-0.105,0.234-0.199,0.246-0.305c0.012-0.111,0.211-0.199,0.223-0.305c0.012-0.111-0.287-0.258-0.275-0.363
		c0.018-0.111,0.193-0.199,0.205-0.311c0.012-0.106,0.111-0.206,0.123-0.311c0.012-0.111-0.252-0.258-0.229-0.363
		c0.012-0.111,0.117-0.211,0.129-0.316c0.018-0.105,0.211-0.188,0.223-0.299c0.023-0.111-0.047-0.235-0.035-0.34
		c0.023-0.111-0.047-0.234-0.023-0.346c0.023-0.105,0.006-0.223,0.029-0.328s0.152-0.193,0.17-0.305
		c0.029-0.105-0.164-0.258-0.135-0.37c0.029-0.111,0.146-0.193,0.17-0.299s0.012-0.27,0.07-0.363
		c0.047-0.082,0.193-0.141,0.258-0.234c0.07-0.07,0.328,0.023,0.398-0.059c0.076-0.07-0.047-0.352,0.035-0.422
		s0.27-0.012,0.352-0.082c0.076-0.07,0.211-0.082,0.287-0.152s0.1-0.352,0.164-0.428C35.444,17.504,35.585,17.709,35.679,17.809z
		 M35.163,26.196c0.023-0.111,0.188-0.229,0.211-0.328c0.012-0.111-0.123-0.234-0.117-0.34c0.006-0.111,0.082-0.211,0.07-0.322
		c0-0.112-0.211-0.188-0.229-0.288c-0.018-0.111,0.123-0.234,0.1-0.34s0.012-0.234-0.018-0.34c-0.029-0.1-0.246-0.141-0.287-0.246
		c-0.035-0.094,0.018-0.223-0.018-0.329c-0.041-0.1,0.047-0.246,0.006-0.346c-0.035-0.1-0.059-0.205-0.094-0.305
		s-0.281-0.135-0.316-0.234s0.082-0.252,0.053-0.357c-0.029-0.106-0.129-0.188-0.158-0.299c-0.018-0.1,0.211-0.252,0.193-0.357
		s-0.24,0.023-0.246-0.094c-0.041,0.105-0.258-0.059-0.293,0.041c-0.035,0.111,0.029,0.252,0,0.357s0.146,0.27,0.123,0.375
		c-0.023,0.111-0.246,0.176-0.258,0.287c-0.023,0.111-0.041,0.223-0.059,0.334c-0.012,0.111,0.188,0.24,0.188,0.352
		c-0.006,0.105-0.152,0.217-0.152,0.328c0,0.106,0.164,0.211,0.176,0.317c0.006,0.117-0.152,0.246-0.135,0.352
		s-0.018,0.234,0.006,0.34c0.035,0.117,0.322,0.129,0.357,0.234c0.041,0.105,0.1,0.176,0.146,0.27
		c0.059,0.094-0.018,0.258,0.053,0.34c0.076,0.082,0.006,0.346,0.094,0.41c0.088,0.07,0.17,0.082,0.275,0.117
		c0.023,0.111,0.164,0.111,0.188,0.223c0.035,0.111,0.258,0.176,0.281,0.282c0.029,0.117-0.141,0.275-0.105,0.387
		c0.023,0.117-0.047,0.252-0.023,0.363c0.035,0.111,0.293,0.164,0.322,0.275s0.041,0.229,0.076,0.334
		c0.023,0.117,0.07,0.223,0.105,0.328c0.03,0.117-0.164,0.281-0.129,0.393c0.029,0.111,0.259,0.17,0.294,0.275
		c0.029,0.117-0.012,0.24,0.018,0.352c0.023,0.117,0.164,0.199,0.188,0.305c0.029,0.105-0.141,0.27-0.111,0.375
		c0.029,0.111,0.258,0.177,0.281,0.282c0.029,0.117-0.141,0.275-0.111,0.387s0.135,0.035,0.158,0.146
		c0.059-0.1-0.035-0.076,0.012-0.176s0.299-0.111,0.34-0.211c0.041-0.105,0.059-0.217,0.094-0.323
		c0.035-0.111,0.07-0.223,0.094-0.328s0.053-0.223,0.07-0.334c0.023-0.111,0.041-0.229,0.047-0.334
		c0.018-0.117-0.246-0.234-0.246-0.34c0-0.117,0.316-0.234,0.311-0.346s0.035-0.246,0.018-0.352
		c-0.023-0.111-0.387-0.141-0.422-0.241c-0.023-0.111,0.082-0.258,0.035-0.363c-0.041-0.1-0.24-0.105-0.293-0.205
		c-0.059-0.094,0.152-0.375,0.082-0.463c-0.07-0.082-0.293-0.047-0.375-0.117c-0.082-0.076-0.223-0.053-0.316-0.118
		c-0.095-0.059-0.177-0.082-0.282-0.129C35.351,26.401,35.269,26.231,35.163,26.196z"/>
</g>
<g>
</g>
<g>
</g>
<g>
</g>
<g>
</g>
<g>
</g>
<g>
</g>
<g>
</g>
<g>
</g>
<g>
</g>
<g>
</g>
<g>
</g>
<g>
</g>
<g>
</g>
<g>
</g>
<g>
</g>
</svg>
