<?xml version="1.0" encoding="utf-8"?>
<!-- Generator: Adobe Illustrator 16.0.0, SVG Export Plug-In . SVG Version: 6.00 Build 0)  -->
<!DOCTYPE svg PUBLIC "-//W3C//DTD SVG 1.1//EN" "http://www.w3.org/Graphics/SVG/1.1/DTD/svg11.dtd">
<svg version="1.1" id="圖層_1" xmlns="http://www.w3.org/2000/svg" xmlns:xlink="http://www.w3.org/1999/xlink" x="0px" y="0px"
	 width="55px" height="55px" viewBox="0 0 55 55" enable-background="new 0 0 55 55" xml:space="preserve">
<g>
	<path fill="#FFFFFF" d="M31.282,14.567c0.781,3.354,1.46,6.459,2.252,9.545c0.278,1.054,0.932,2.006,1.245,3.055
		c1.08,3.528,2.088,7.066,3.086,10.62c0.18,0.633,0.092,1.343,0.267,1.976c0.134,0.498,0.566,0.915,0.721,1.414
		c0.534,1.677,1.09,3.353,1.43,5.07c0.103,0.51-0.345,1.286-0.771,1.708c-2.829,2.777-6.47,3.754-10.227,4.341
		c-2.097,0.323-4.239,0.432-6.368,0.534c-1.728,0.093-3.127-0.858-4.071-2.098c-0.532-0.705-0.409-1.965-0.435-2.973
		c-0.134-4.536-0.157-9.063-0.344-13.593c-0.17-4.058-0.525-8.115-0.761-12.173c-0.064-1.157,0.039-2.314,0.005-3.477
		c-0.021-0.931,0.455-1.327,1.309-1.388c1.911-0.154,3.818-0.283,5.729-0.442c0.286-0.031,0.558-0.211,0.844-0.268
		c1.195-0.226,2.412-0.365,3.582-0.684C29.521,15.534,30.196,15.087,31.282,14.567z"/>
	<path fill="#6D635C" d="M18.594,24.524L18.594,24.524c-0.193,0.257-0.285,0.571-0.27,0.895l1.46,23.95
		c0.026,0.483,0.312,0.91,0.741,1.132l1.833,0.94c0.311,0.154,0.666,0.19,0.998,0.093l14.349-4.166
		c0.258-0.077,0.489-0.226,0.664-0.432l0.303-0.36c0.304-0.359,0.401-0.854,0.252-1.296l-7.508-23.132
		c-0.021-0.057-0.042-0.113-0.067-0.165l-0.272-0.576c-0.277-0.591-0.946-0.895-1.581-0.73l-8.584,2.278
		C19.988,23.197,19.167,23.753,18.594,24.524z"/>
	<path fill="#877468" d="M31.194,10.093c0,0.216,0.005,0.432,0,0.643c-0.077,2.829-0.767,3.533-3.611,3.955
		c-3.132,0.463-6.253,1.008-9.388,1.486c-1.937,0.293-2.047,0.231-2.8-1.563c-0.627-1.486-0.959-2.998-0.245-4.593
		c0.229-0.514,0.085-1.188,0.293-1.718c0.938-2.458,2.934-3.641,5.333-4.371c1.157-0.36,2.243-0.371,3.358,0.051
		c0.149,0.062,0.337,0.062,0.504,0.041C28.513,3.562,31.179,6.03,31.194,10.093z"/>
	<path fill="#FFFFFF" d="M20.304,2.296c0.633-0.267,1.268-0.54,1.896-0.807c0.064,0.133,0.133,0.272,0.198,0.406
		c-0.591,0.35-1.186,0.694-1.777,1.039C20.52,2.729,20.412,2.513,20.304,2.296z"/>
	<path fill="#4C382B" d="M27.406,47.472c-0.283,1.404-1.137,2.736-1.937,2.674c-1.062-0.092-1.201-0.92-1.196-1.795
		c0.005-1.146,1.047-2.515,1.921-2.278C26.689,46.196,27.01,46.983,27.406,47.472z"/>
	<path fill="#4C382B" d="M31.396,47.404c-0.864,0.777-1.479,1.322-2.089,1.872c-0.388-0.694-0.967-1.353-1.105-2.104
		c-0.183-0.967,0.854-2.222,1.384-1.897C30.243,45.672,30.654,46.489,31.396,47.404z"/>
	<path fill="#4C382B" d="M25.208,44.499c-0.766,1.121-1.535,2.242-2.317,3.395c-0.725-0.813-0.82-2.731-0.018-3.358
		c0.517-0.401,1.427-0.299,2.163-0.427C25.094,44.236,25.148,44.365,25.208,44.499z"/>
	<path fill="#4C382B" d="M30.027,27.404c-0.152,1.394-0.234,2.488-1.401,2.592c-0.934,0.087-1.22-0.782-1.235-1.615
		c-0.028-1.285,0.741-2.396,1.598-2.128C29.495,26.412,29.816,27.163,30.027,27.404z"/>
	<path fill="#4C382B" d="M33.077,30.099c-0.406,0.391-0.859,0.817-1.312,1.244c-0.181-0.385-0.381-0.761-0.551-1.151
		c-0.118-0.268-0.313-0.576-0.262-0.813c0.103-0.458,0.359-0.874,0.555-1.312c0.36,0.242,0.792,0.427,1.065,0.74
		C32.805,29.07,32.851,29.492,33.077,30.099z"/>
	<path fill="#4C382B" d="M26.64,24.493c0.347,0.186,0.594,0.237,0.687,0.381c0.08,0.134,0.043,0.401-0.034,0.565
		c-0.229,0.515-0.476,1.023-0.761,1.507c-0.113,0.19-0.321,0.396-0.519,0.452c-0.129,0.031-0.463-0.19-0.479-0.313
		c-0.043-0.473-0.128-1.029,0.054-1.44C25.796,25.203,26.275,24.874,26.64,24.493z"/>
	<path fill="#4C382B" d="M22.214,39.706c0-1.513,0.707-2.793,1.561-2.705c1.314,0.128,1.201,1.301,1.33,2.149
		c0.162,1.069-0.875,2.324-1.738,2.324C22.574,41.485,22.214,40.925,22.214,39.706z"/>
	<path fill="#4C382B" d="M25.845,37.937c0.044-1.79,0.826-2.803,1.803-2.705c0.95,0.103,1.224,0.808,1.207,1.656
		c-0.021,1.167-0.993,2.458-1.813,2.201C26.468,38.919,26.072,38.173,25.845,37.937z"/>
	<path fill="#4C382B" d="M33.216,40.122c-0.309,0.674-0.474,1.275-0.833,1.702c-0.237,0.294-0.987,0.576-1.132,0.448
		c-0.35-0.314-0.74-0.941-0.643-1.322c0.18-0.704,0.663-1.357,1.101-1.975c0.103-0.145,0.653-0.181,0.761-0.057
		C32.783,39.258,32.974,39.706,33.216,40.122z"/>
	<path fill="#4C382B" d="M34.589,37.093c-0.438,0.293-0.9,0.844-1.322,0.813c-0.55-0.041-1.594-0.03-1.388-1.038
		c0.103-0.474,0.74-1.143,1.162-1.163c0.509-0.021,1.039,0.561,1.558,0.875C34.599,36.743,34.594,36.918,34.589,37.093z"/>
	<path fill="#4C382B" d="M31.396,22.056c-0.664,0.622-1.055,1.291-1.415,1.275c-0.948-0.046-1.383-0.875-1.271-1.728
		c0.064-0.509,0.597-0.967,0.919-1.44C30.15,20.724,30.675,21.29,31.396,22.056z"/>
	<path fill="#4C382B" d="M37.047,44.479c-0.025,1.409-0.962,2.726-1.661,2.546c-0.411-0.098-0.926-0.746-0.962-1.188
		c-0.098-1.121,0.9-2.499,1.569-2.288C36.486,43.707,36.836,44.288,37.047,44.479z"/>
	<path fill="#4C382B" d="M21.489,32.393c0.311-0.849,0.44-1.491,0.774-1.995c0.188-0.288,0.712-0.484,1.083-0.474
		c0.553,0.016,1.122,1.63,0.712,2.401c-0.234,0.442-0.905,0.798-1.432,0.88C22.304,33.246,21.898,32.701,21.489,32.393z"/>
	<g>
		<path d="M32.084,10.463c0.031,0.139-0.016,0.283,0.021,0.422c0.041,0.144,0.165,0.257,0.206,0.391
			c0.036,0.144-0.011,0.304,0.021,0.442c0.031,0.139,0.221,0.247,0.252,0.386c0.036,0.139-0.087,0.314-0.066,0.447
			c0.021,0.149-0.134,0.298-0.124,0.442c0.011,0.134,0.062,0.242,0.052,0.381c-0.011,0.134-0.082,0.247-0.103,0.391
			c-0.021,0.134,0.041,0.278,0.021,0.412c-0.026,0.134,0.195,0.303,0.185,0.437c-0.021,0.139,0.011,0.257,0.011,0.396
			c0.005,0.134-0.35,0.329-0.319,0.458c0.031,0.133,0.463,0.169,0.494,0.303c0.03,0.134-0.263,0.35-0.227,0.483
			c0.031,0.134,0.077,0.268,0.113,0.401c0.041,0.133,0.483,0.159,0.515,0.288c0.041,0.134-0.201,0.34-0.165,0.473
			c0.041,0.134,0.268,0.216,0.298,0.35c0.042,0.133-0.077,0.309-0.041,0.437c0.041,0.134-0.169,0.334-0.139,0.468
			c0.036,0.134,0.17,0.237,0.211,0.371c0.036,0.139,0.376,0.185,0.411,0.319c0.042,0.134,0.072,0.268,0.113,0.401
			c0.041,0.124-0.309,0.371-0.268,0.504c0.036,0.133,0.53,0.133,0.566,0.267c0.041,0.139-0.083,0.314-0.041,0.448
			c0.041,0.139-0.217,0.354-0.186,0.488c0.041,0.134,0.227,0.221,0.268,0.355s0.164,0.242,0.205,0.375
			c0.031,0.134-0.164,0.339-0.123,0.468c0.031,0.129,0.154,0.242,0.195,0.375c0.036,0.134,0.433,0.16,0.474,0.293
			c0.036,0.133,0.051,0.272,0.093,0.406c0.035,0.134,0.112,0.257,0.144,0.391c0.041,0.134-0.175,0.339-0.134,0.473
			c0.036,0.134,0.36,0.185,0.401,0.319s-0.231,0.35-0.186,0.489c0.031,0.134,0.104,0.257,0.145,0.391s-0.124,0.324-0.093,0.458
			c0.041,0.134,0.227,0.226,0.268,0.36c0.036,0.134-0.052,0.303-0.011,0.437c0.036,0.134,0.062,0.273,0.104,0.401
			c0.035,0.134,0.267,0.211,0.303,0.344c0.036,0.134-0.113,0.319-0.077,0.453c0.041,0.134,0.098,0.268,0.145,0.401
			c0.036,0.134,0.257,0.216,0.293,0.35c0.036,0.133-0.159,0.329-0.118,0.463c0.041,0.133,0.375,0.185,0.411,0.318
			c0.041,0.134-0.149,0.329-0.113,0.463c0.041,0.134,0.124,0.257,0.165,0.391s0.359,0.186,0.401,0.319
			c0.035,0.134-0.145,0.334-0.108,0.468s0.066,0.272,0.103,0.406s0.113,0.257,0.149,0.391c0.041,0.134,0.175,0.247,0.216,0.371
			c0.036,0.133-0.164,0.339-0.128,0.473c0.035,0.134,0.524,0.144,0.561,0.268c0.041,0.134-0.299,0.381-0.263,0.514
			c0.036,0.134,0.149,0.247,0.19,0.381c0.036,0.134,0.01,0.283,0.046,0.417s0.447,0.154,0.489,0.288
			c0.041,0.134-0.396,0.406-0.36,0.54c0.041,0.123,0.493,0.144,0.535,0.277c0.041,0.134,0.098,0.263,0.133,0.396
			c0.042,0.133,0.124,0.257,0.154,0.386c0.042,0.128,0.036,0.277,0.072,0.411c0.041,0.134-0.016,0.298,0.031,0.432
			c0.036,0.134-0.011,0.288,0.036,0.422c0.036,0.134-0.016,0.298,0.025,0.432s0.375,0.175,0.422,0.309
			c0.03,0.134-0.124,0.329-0.093,0.463c0.041,0.134,0.093,0.263,0.134,0.396c0.036,0.134-0.154,0.334-0.113,0.473
			c0.036,0.134,0.036,0.278,0.072,0.412c0.041,0.134,0.257,0.216,0.298,0.35s0.272,0.211,0.309,0.345
			c0.041,0.134-0.103,0.318-0.057,0.452c0.041,0.134-0.025,0.299,0.011,0.438c0.041,0.134,0.01,0.288,0.057,0.422
			c0.041,0.134,0.545,0.123,0.586,0.252c0.041,0.128-0.298,0.386-0.257,0.514c0.041,0.134,0.139,0.247,0.185,0.381
			c0.042,0.134,0.329,0.19,0.371,0.324c0.046,0.134-0.309,0.386-0.268,0.514c0.041,0.14,0.473,0.149,0.514,0.283
			c0.031,0.134,0.124,0.257,0.165,0.381c0.036,0.144-0.077,0.313-0.041,0.442c0.03,0.139-0.072,0.309-0.052,0.432
			c0.025,0.145-0.021,0.288-0.005,0.411c0.021,0.149,0.118,0.272,0.123,0.401c0.006,0.145,0.304,0.299,0.293,0.432
			c-0.01,0.145-0.112,0.309-0.144,0.433c-0.036,0.134-0.159,0.262-0.216,0.386c-0.062,0.123-0.236,0.19-0.313,0.304
			c-0.083,0.103-0.011,0.359-0.113,0.463c-0.093,0.092-0.304,0.082-0.417,0.175c-0.093,0.082-0.082,0.323-0.195,0.416
			c-0.103,0.077-0.227,0.154-0.34,0.242c-0.112,0.071-0.411-0.104-0.524-0.021c-0.103,0.077-0.318,0.021-0.432,0.103
			c-0.108,0.077-0.222,0.164-0.34,0.247c-0.107,0.077-0.164,0.226-0.288,0.313c-0.107,0.077-0.221,0.149-0.334,0.231
			c-0.113,0.072-0.18,0.227-0.293,0.293c-0.124,0.077-0.195,0.216-0.313,0.283c-0.118,0.072-0.324-0.026-0.448,0.041
			c-0.123,0.062-0.051,0.515-0.175,0.576c-0.123,0.057-0.277,0.062-0.406,0.118c-0.123,0.062-0.35-0.098-0.478-0.047
			c-0.129,0.052-0.206,0.217-0.34,0.268c-0.129,0.052-0.35-0.139-0.473-0.092c-0.134,0.051-0.227,0.195-0.36,0.236
			c-0.124,0.041-0.313-0.082-0.442-0.041s-0.123,0.534-0.252,0.575c-0.134,0.042-0.324-0.133-0.458-0.092
			c-0.139,0.036-0.309-0.072-0.442-0.041c-0.134,0.041-0.195,0.359-0.329,0.391c-0.134,0.036-0.288-0.021-0.422,0.01
			c-0.134,0.036-0.277,0.011-0.421,0.041c-0.134,0.031-0.304-0.107-0.438-0.071c-0.134,0.03-0.216,0.298-0.35,0.324
			c-0.134,0.025-0.278,0.015-0.411,0.046c-0.14,0.031-0.273,0.062-0.407,0.087c-0.144,0.026-0.236,0.227-0.372,0.253
			c-0.134,0.025-0.322-0.196-0.455-0.176c-0.124,0.031-0.178,0.278-0.296,0.319s-0.227,0.082-0.337,0.129
			c-0.113,0.046-0.271,0.005-0.381,0.057c-0.113,0.056-0.26,0.041-0.37,0.092c-0.119,0.047-0.248,0.052-0.366,0.088
			c-0.113,0.036-0.257-0.057-0.375-0.025c-0.118,0.03-0.216,0.03-0.339,0.051c-0.124,0.011-0.242,0.468-0.357,0.458
			c-0.142-0.011-0.226-0.483-0.365-0.509c-0.142-0.031-0.329,0.195-0.468,0.175c-0.139-0.036-0.288,0.021-0.43,0
			c-0.139-0.026-0.268,0-0.406-0.011c-0.139-0.01-0.252-0.057-0.394-0.041c-0.144,0.01-0.298-0.252-0.439-0.247
			c-0.144,0.005-0.278-0.052-0.417-0.052c-0.147,0-0.296,0.351-0.44,0.335c-0.146-0.011-0.27-0.258-0.409-0.272
			c-0.139-0.016-0.278-0.041-0.419-0.063c-0.139-0.021-0.298,0.067-0.439,0.036c-0.139-0.036-0.242-0.2-0.381-0.236
			c-0.139-0.036-0.311,0.057-0.445,0.011c-0.134-0.047-0.226-0.201-0.36-0.258s-0.17-0.293-0.298-0.354
			c-0.131-0.062-0.28-0.052-0.404-0.113c-0.123-0.062-0.445,0.211-0.568,0.145c-0.123-0.083-0.208-0.217-0.326-0.299
			c-0.119-0.082-0.064-0.401-0.178-0.483s-0.247-0.134-0.36-0.227c-0.108-0.092-0.386,0.021-0.494-0.071
			c-0.101-0.093-0.036-0.355-0.124-0.483c-0.08-0.119,0.023-0.309-0.036-0.442s-0.344-0.17-0.383-0.304
			c-0.036-0.149-0.095-0.293-0.105-0.427c-0.018-0.134,0.272-0.309,0.257-0.447c-0.015-0.14-0.463-0.231-0.478-0.371
			c-0.016-0.139,0.236-0.303,0.221-0.447c-0.018-0.139,0.09-0.288,0.074-0.427c-0.015-0.139-0.162-0.262-0.177-0.406
			c-0.016-0.134-0.01-0.277-0.021-0.416c-0.016-0.14-0.087-0.273-0.103-0.412c-0.015-0.139-0.149-0.268-0.167-0.406
			c-0.016-0.144,0.136-0.298,0.118-0.437c-0.015-0.14,0.059-0.283,0.049-0.422c-0.015-0.139-0.411-0.242-0.424-0.386
			c-0.01-0.134,0.054-0.278,0.039-0.422c-0.01-0.139-0.021-0.277-0.033-0.417c-0.01-0.139,0.226-0.303,0.216-0.437
			c-0.01-0.145-0.37-0.258-0.38-0.392c-0.01-0.144,0.46-0.318,0.45-0.462c-0.01-0.134-0.332-0.258-0.344-0.392
			c-0.01-0.144-0.101-0.277-0.111-0.416c-0.005-0.14,0.327-0.294,0.322-0.438c-0.005-0.144-0.252-0.268-0.257-0.411
			c-0.005-0.139,0.046-0.283,0.041-0.422c-0.005-0.139,0.059-0.277,0.059-0.422c-0.005-0.134-0.139-0.277-0.144-0.417
			c0-0.139,0.134-0.277,0.134-0.416s0.167-0.277,0.167-0.422c0-0.134-0.301-0.283-0.301-0.422c0.005-0.139-0.021-0.277-0.015-0.416
			c0.005-0.14-0.083-0.283-0.075-0.427c0.005-0.14,0.353-0.268,0.357-0.406c0.005-0.14-0.37-0.294-0.365-0.438
			c0.008-0.134,0.319-0.268,0.324-0.401c0.005-0.144-0.083-0.288-0.077-0.427c0.008-0.139-0.257-0.293-0.252-0.427
			c0.005-0.145,0.247-0.268,0.252-0.411c0.008-0.14-0.01-0.278-0.005-0.417c0.005-0.139,0.044-0.283,0.049-0.417
			c0.005-0.144-0.064-0.282-0.059-0.421c0.005-0.14-0.159-0.283-0.154-0.422c0.005-0.145,0.293-0.278,0.293-0.412
			c0-0.144-0.252-0.282-0.252-0.421c0-0.134,0.463-0.299,0.453-0.422c-0.018-0.134-0.231-0.247-0.252-0.381
			c-0.023-0.134-0.221-0.227-0.252-0.354c-0.033-0.129-0.033-0.263-0.067-0.396c-0.031-0.123,0.054-0.288,0.023-0.416
			c-0.034-0.129-0.211-0.222-0.237-0.355c-0.031-0.123-0.162-0.236-0.188-0.37c-0.026-0.134,0.226-0.319,0.221-0.458
			c-0.008-0.139-0.291-0.246-0.306-0.386c-0.018-0.134,0.219-0.298,0.208-0.432c-0.015-0.134-0.154-0.252-0.172-0.386
			c-0.016-0.134-0.049-0.263-0.064-0.396c-0.016-0.134,0.188-0.288,0.177-0.422c-0.015-0.134,0.059-0.288,0.044-0.421
			c-0.018-0.134-0.286-0.237-0.296-0.371s-0.059-0.278-0.049-0.411c0.01-0.129-0.128-0.288-0.113-0.412
			c0.018-0.134,0.083-0.257,0.103-0.391c0.016-0.133,0.268-0.226,0.291-0.36c0.021-0.134,0.234-0.236,0.252-0.37
			c0.016-0.124-0.082-0.278-0.064-0.401c0.015-0.134-0.296-0.298-0.286-0.432c0.01-0.129,0.059-0.252,0.064-0.381
			c0.005-0.128,0.211-0.252,0.216-0.38c0-0.144,0.09-0.288,0.09-0.422c0-0.144-0.154-0.283-0.154-0.422
			c-0.005-0.139-0.092-0.272-0.098-0.421c-0.005-0.134-0.108-0.268-0.118-0.412c-0.005-0.139,0.231-0.293,0.227-0.432
			c-0.011-0.139-0.039-0.277-0.044-0.421c-0.01-0.134-0.237-0.268-0.242-0.407c-0.01-0.139,0.35-0.298,0.339-0.437
			c-0.005-0.144-0.064-0.278-0.069-0.421c-0.008-0.139-0.188-0.273-0.188-0.412c-0.007-0.139-0.018-0.278-0.018-0.422
			c0-0.154-0.031-0.298-0.036-0.442c-0.005-0.149-0.098-0.283-0.113-0.432c-0.015-0.144-0.023-0.268-0.054-0.412
			c-0.034-0.149,0.054-0.309,0-0.447c-0.054-0.139-0.034-0.304-0.113-0.442c-0.075-0.118-0.113-0.288-0.213-0.406
			c-0.093-0.108-0.291-0.129-0.409-0.231c-0.1-0.098-0.193-0.201-0.283-0.304c-0.093-0.103-0.172-0.221-0.252-0.334
			c-0.083-0.113-0.36-0.108-0.43-0.227c-0.069-0.118,0.257-0.447,0.198-0.571s-0.231-0.19-0.28-0.319
			c-0.046-0.128-0.298-0.195-0.342-0.319c-0.039-0.134,0.203-0.339,0.172-0.473c-0.033-0.134-0.439-0.195-0.463-0.329
			c-0.025-0.134,0.119-0.309,0.098-0.442c-0.023-0.134-0.005-0.283-0.023-0.421c-0.015-0.139,0-0.278-0.015-0.417
			c-0.01-0.139,0.01-0.283,0.005-0.417c-0.01-0.144-0.229-0.277-0.229-0.411c0-0.139,0.183-0.278,0.188-0.412
			c0.005-0.139,0.051-0.278,0.064-0.412c0.015-0.133-0.265-0.313-0.242-0.447c0.021-0.134,0.375-0.216,0.407-0.35
			c0.028-0.134,0.236-0.221,0.275-0.345c0.036-0.134-0.162-0.329-0.118-0.458c0.041-0.129,0.321-0.17,0.37-0.304
			c0.049-0.128-0.087-0.319-0.033-0.442c0.054-0.134-0.198-0.391-0.144-0.515c0.054-0.124,0.177-0.221,0.236-0.344
			c0.059-0.124,0.288-0.17,0.347-0.293s0.211-0.195,0.275-0.319c0.064-0.128-0.054-0.375,0.031-0.494
			c0.087-0.118,0.429-0.021,0.527-0.134c0.095-0.108,0.224-0.165,0.326-0.262c0.103-0.103-0.059-0.479,0.044-0.576
			c0.105-0.098,0.406,0.016,0.509-0.087c0.105-0.092-0.005-0.421,0.095-0.524c0.103-0.103,0.365-0.041,0.463-0.149
			c0.095-0.103,0.178-0.221,0.273-0.324c0.098-0.103,0.337-0.062,0.439-0.165c0.098-0.103-0.149-0.53-0.049-0.633
			c0.098-0.103,0.201-0.2,0.296-0.303c0.098-0.103,0.221-0.18,0.316-0.288c0.098-0.103,0.301-0.103,0.391-0.206
			c0.098-0.108,0.242-0.165,0.334-0.278c0.09-0.103,0.332-0.087,0.424-0.201c0.09-0.108,0.015-0.35,0.1-0.463
			c0.087-0.113,0.355-0.051,0.44-0.149c0.092-0.108,0.098-0.262,0.193-0.355c0.103-0.098,0.013-0.427,0.118-0.504
			c0.113-0.077,0.216-0.242,0.334-0.304c0.124-0.062,0.312-0.062,0.44-0.098c0.134-0.046,0.342,0.345,0.471,0.334
			c0.134-0.01,0.242-0.206,0.375-0.19c0.133,0.016,0.28-0.015,0.409,0.026c0.124,0.041,0.224,0.144,0.347,0.216
			c0.113,0.062,0.142,0.242,0.247,0.329c0.103,0.077,0.399-0.051,0.499,0.052c0.093,0.098,0.01,0.35,0.098,0.463
			c0.08,0.103,0.396,0.051,0.479,0.169c0.075,0.118,0.01,0.375,0.159,0.468c0.134,0.082,0.237,0.329,0.386,0.38
			c0.162,0.051,0.399-0.226,0.542-0.226c0.144,0,0.278,0.165,0.419,0.175c0.144,0.01,0.316-0.278,0.455-0.257
			c0.144,0.01,0.262,0.231,0.396,0.257c0.142,0.031,0.324-0.103,0.458-0.067c0.139,0.031,0.165,0.468,0.301,0.509
			c0.133,0.041,0.352-0.165,0.48-0.113c0.134,0.051,0.316,0.005,0.44,0.062c0.129,0.062,0.211,0.237,0.335,0.298
			c0.123,0.072,0.154,0.283,0.277,0.36c0.118,0.072,0.307,0.046,0.419,0.134c0.113,0.083,0.145,0.268,0.252,0.36
			c0.108,0.092,0.479-0.103,0.579-0.005c0.103,0.098-0.016,0.422,0.08,0.524c0.098,0.103,0.216,0.18,0.309,0.293
			c0.092,0.103,0.035,0.324,0.123,0.437c0.082,0.113,0.36,0.077,0.438,0.19c0.082,0.113,0.272,0.165,0.35,0.288
			c0.077,0.113-0.067,0.37,0.01,0.494s0.093,0.272,0.17,0.396c0.066,0.124,0.304,0.154,0.37,0.278
			c0.062,0.123,0.236,0.21,0.278,0.339c0.051,0.128,0.056,0.283,0.092,0.417c0.041,0.134,0.113,0.268,0.134,0.401
			c0.031,0.134-0.113,0.304-0.093,0.442c0.021,0.134-0.062,0.283-0.041,0.422c0.021,0.134,0.134,0.257,0.154,0.401
			c0.026,0.134,0.181,0.247,0.201,0.381c0.025,0.134,0.128,0.422,0.159,0.555C32.517,10.525,32.208,10.433,32.084,10.463z
			 M31.262,14.593c-0.124,0.057-0.258,0.036-0.371,0.098c-0.123,0.057-0.189,0.206-0.303,0.268
			c-0.124,0.062-0.278,0.051-0.392,0.108c-0.123,0.067-0.169,0.262-0.28,0.324c-0.123,0.062-0.306-0.011-0.416,0.041
			c-0.124,0.057-0.301-0.062-0.425-0.021c-0.123,0.051-0.211,0.144-0.339,0.175c-0.129,0.036-0.268,0.015-0.401,0.041
			c-0.134,0.031-0.241,0.144-0.376,0.175c-0.134,0.026-0.213,0.293-0.35,0.319c-0.134,0.031-0.262,0.083-0.396,0.108
			c-0.134,0.026-0.327-0.324-0.46-0.303c-0.136,0.026-0.201,0.447-0.334,0.473c-0.134,0.021-0.322-0.298-0.456-0.278
			c-0.133,0.021-0.267,0.062-0.396,0.083c-0.137,0.021-0.188,0.463-0.324,0.494c-0.144,0.025-0.342-0.195-0.481-0.134
			c-0.142,0.051-0.257,0.303-0.398,0.319c-0.134,0.01-0.283-0.139-0.422-0.124c-0.136,0.01-0.295-0.236-0.429-0.226
			c-0.136,0.01-0.265,0.113-0.404,0.124c-0.139,0.01-0.247,0.334-0.386,0.35c-0.139,0.01-0.272,0.01-0.409,0.021
			c-0.134,0.01-0.298-0.37-0.44-0.36c-0.134,0.01-0.234,0.494-0.375,0.504c-0.134,0.01-0.283-0.144-0.422-0.134
			c-0.136,0.01-0.295-0.293-0.435-0.278c-0.136,0.01-0.265,0.175-0.398,0.185s-0.268,0.103-0.401,0.119
			c-0.134,0.01-0.291-0.231-0.43-0.221c-0.134,0.01-0.268,0.108-0.404,0.118c-0.134,0.01-0.244,0.391-0.38,0.401
			c-0.154,0.01-0.262,0-0.396,0.036c-0.149,0.046-0.203,0.103-0.321,0.18c-0.124,0.077-0.381-0.026-0.456,0.098
			c-0.072,0.113,0.165,0.319,0.134,0.473c-0.028,0.134-0.35,0.227-0.344,0.391c0.005,0.144,0.039,0.288,0.039,0.432
			s-0.221,0.288-0.221,0.432s0.146,0.288,0.146,0.432c-0.008,0.144-0.136,0.283-0.142,0.432c-0.005,0.144-0.021,0.288-0.021,0.432
			s0.198,0.298,0.198,0.432c0,0.144-0.193,0.298-0.193,0.442c0.005,0.144,0.033,0.298,0.043,0.442
			c0.01,0.134,0.203,0.267,0.208,0.406c0.01,0.139-0.227,0.293-0.213,0.432c0.01,0.139,0.326,0.262,0.332,0.406
			c0.005,0.133-0.221,0.293-0.208,0.432c0.01,0.139,0.07,0.278,0.08,0.422c0.01,0.134,0.311,0.257,0.321,0.401
			c0.01,0.133-0.213,0.293-0.203,0.432c0.01,0.139,0.005,0.278,0.01,0.422c0.01,0.134,0.054,0.278,0.064,0.417
			c0.01,0.139,0.118,0.272,0.128,0.412c0.01,0.139-0.237,0.293-0.227,0.437c0.013,0.144,0.484,0.247,0.494,0.391
			c0.013,0.139-0.371,0.303-0.363,0.442c0.005,0.144,0.09,0.278,0.1,0.412c0.011,0.144-0.054,0.288-0.043,0.426
			c0.013,0.14,0.409,0.252,0.419,0.392c0.01,0.139-0.47,0.313-0.465,0.446c0.01,0.145,0.45,0.258,0.46,0.396
			s0.039,0.277,0.049,0.417c0.01,0.144,0.059,0.277,0.064,0.421c0.01,0.134-0.034,0.283-0.021,0.422
			c0.01,0.139-0.082,0.283-0.072,0.422c0.013,0.145-0.069,0.288-0.057,0.427c0.01,0.139-0.082,0.283-0.072,0.422
			c0.005,0.139,0.329,0.263,0.334,0.406c0.005,0.134-0.198,0.288-0.193,0.427c0.005,0.139,0.021,0.278,0.026,0.417
			c0.005,0.144-0.231,0.288-0.227,0.432c0.008,0.139-0.031,0.278-0.025,0.422c0.005,0.139,0.193,0.268,0.198,0.401
			c0.005,0.144,0.211,0.268,0.216,0.401c0.005,0.133-0.178,0.282-0.178,0.421c0,0.14-0.108,0.278-0.103,0.412
			c0.005,0.144-0.064,0.277-0.064,0.411c0.005,0.144,0.494,0.257,0.499,0.401c0.005,0.139-0.391,0.282-0.386,0.422
			c0.005,0.139,0.069,0.272,0.074,0.411c0.005,0.134,0.268,0.268,0.275,0.401c0.005,0.134-0.409,0.282-0.404,0.422
			c0.005,0.139,0.424,0.262,0.424,0.4c0.005,0.145,0.064,0.278,0.064,0.412c0.005,0.144-0.144,0.282-0.139,0.416
			c0.005,0.134-0.128,0.278-0.128,0.412c0,0.133-0.064,0.272-0.059,0.416c0.005,0.134,0.09,0.268,0.095,0.406
			c0.005,0.139,0.311,0.268,0.311,0.406s-0.069,0.272-0.064,0.411c0.005,0.145-0.064,0.278-0.064,0.412
			c0.005,0.144-0.103,0.282-0.103,0.416c0.008,0.14,0.231,0.268,0.231,0.406c0.005,0.145-0.149,0.278-0.144,0.412
			c0.005,0.144,0.203,0.268,0.203,0.411c0.005,0.139-0.01,0.272-0.005,0.411c0.005,0.14-0.316,0.278-0.312,0.422
			c0.005,0.134-0.167,0.278-0.162,0.417c0.007,0.139,0.007,0.272,0.013,0.411c0.005,0.139,0.095,0.272,0.1,0.406
			c0.005,0.134,0,0.278,0.005,0.417c0.005,0.139,0.098,0.272,0.098,0.406c0.005,0.139,0.09,0.272,0.09,0.406
			c0.005,0.139-0.183,0.282-0.175,0.416c0.005,0.145,0.44,0.268,0.445,0.401c0.005,0.139-0.059,0.293-0.059,0.442
			c0,0.144-0.236,0.288-0.236,0.438c0,0.144,0.118,0.288,0.123,0.437c0.005,0.145-0.242,0.309-0.231,0.453
			c0.018,0.148,0.139,0.288,0.167,0.432c0.031,0.145-0.098,0.36-0.044,0.494c0.054,0.144,0.538,0.041,0.623,0.154
			c0.087,0.113,0.005,0.359,0.098,0.473c0.095,0.104,0.085,0.319,0.188,0.422c0.101,0.103,0.412-0.021,0.52,0.082
			c0.108,0.093,0.162,0.247,0.275,0.335c0.116,0.087,0.203,0.216,0.326,0.293c0.124,0.072,0.178,0.298,0.306,0.359
			c0.128,0.067,0.365-0.103,0.499-0.051c0.134,0.051,0.257,0.134,0.396,0.175c0.139,0.03,0.278,0.062,0.424,0.082
			c0.139,0.021,0.288-0.134,0.439-0.129c0.144,0.006,0.278,0.268,0.43,0.258c0.139-0.006,0.272-0.242,0.411-0.247
			c0.142-0.005,0.286-0.016,0.424-0.021c0.139-0.005,0.291,0.087,0.43,0.077c0.139-0.011,0.291,0.052,0.429,0.041
			c0.139-0.011,0.283,0.025,0.43,0.016c0.139-0.011,0.295,0.113,0.435,0.103c0.139-0.01,0.283,0,0.429-0.01
			c0.139-0.016,0.247-0.474,0.391-0.483c0.139-0.011,0.321,0.427,0.46,0.416c0.142-0.01,0.257-0.283,0.404-0.293
			c0.139-0.016,0.272-0.118,0.412-0.129c0.142-0.015,0.275-0.077,0.419-0.092c0.139-0.016,0.286,0.005,0.425-0.011
			c0.139-0.016,0.315,0.231,0.455,0.206c0.139-0.021,0.29,0.021,0.429-0.011c0.14-0.021,0.222-0.381,0.36-0.401
			c0.139-0.025,0.316,0.186,0.45,0.165c0.139-0.021,0.277-0.041,0.411-0.072c0.145-0.025,0.257-0.17,0.391-0.195
			c0.134-0.031,0.299,0.077,0.438,0.046c0.134-0.025,0.242-0.2,0.381-0.226c0.134-0.031,0.303,0.046,0.437,0.015
			c0.134-0.03,0.319,0.134,0.458,0.099c0.139-0.036,0.252-0.145,0.386-0.181c0.134-0.041,0.154-0.463,0.288-0.504
			c0.134-0.03,0.288-0.01,0.422-0.052c0.134-0.041,0.36,0.196,0.488,0.145c0.134-0.041,0.252-0.134,0.381-0.18
			c0.129-0.047,0.17-0.345,0.293-0.396c0.134-0.052,0.345,0.103,0.474,0.052c0.128-0.052,0.334,0.051,0.457-0.011
			c0.129-0.062,0.145-0.354,0.268-0.411c0.123-0.062,0.236-0.154,0.36-0.216c0.123-0.062,0.391,0.128,0.514,0.062
			c0.124-0.067,0.021-0.515,0.14-0.586c0.118-0.077,0.38,0.082,0.493,0.005c0.118-0.077,0.309-0.057,0.422-0.139
			c0.113-0.077,0.144-0.268,0.257-0.351c0.113-0.087,0.237-0.153,0.35-0.241c0.108-0.088,0.175-0.227,0.288-0.313
			c0.104-0.093,0.124-0.278,0.227-0.37c0.103-0.104,0.319-0.077,0.411-0.175c0.093-0.083,0.247-0.14,0.34-0.247
			c0.072-0.104-0.175-0.422-0.113-0.535c0.067-0.113,0.186-0.175,0.236-0.288c0.057-0.123,0.093-0.227,0.113-0.345
			c0.031-0.139,0.278-0.262,0.258-0.386c-0.026-0.134-0.396-0.19-0.428-0.318c-0.025-0.134,0.417-0.37,0.381-0.504
			c-0.03-0.134-0.37-0.186-0.401-0.319c-0.036-0.134-0.148-0.247-0.18-0.37c-0.036-0.134,0.257-0.35,0.221-0.483
			c-0.035-0.134-0.303-0.195-0.344-0.329c-0.036-0.129-0.021-0.272-0.057-0.406c-0.036-0.129-0.011-0.283-0.057-0.406
			c-0.036-0.134-0.206-0.227-0.247-0.35c-0.041-0.134,0.046-0.304,0.011-0.433c-0.047-0.128,0.071-0.303,0.03-0.432
			c-0.041-0.134-0.375-0.165-0.411-0.299c-0.047-0.123-0.113-0.246-0.145-0.38c-0.041-0.124-0.169-0.186-0.236-0.304
			c-0.062-0.118,0.165-0.406,0.093-0.515c-0.072-0.112-0.474-0.035-0.53-0.148c-0.066-0.124,0.16-0.37,0.124-0.494
			c-0.036-0.123-0.145-0.231-0.17-0.36c-0.01-0.133-0.293-0.246-0.304-0.38c-0.01-0.134,0.222-0.288,0.211-0.412
			c-0.01-0.139-0.041-0.267-0.062-0.396c-0.016-0.134,0-0.268-0.041-0.391c-0.041-0.129-0.145-0.242-0.186-0.376
			c-0.036-0.134-0.236-0.216-0.268-0.35c-0.041-0.129,0.201-0.339,0.165-0.473c-0.041-0.124-0.318-0.19-0.354-0.324
			c-0.036-0.129,0.38-0.396,0.344-0.53c-0.041-0.123-0.267-0.205-0.303-0.334s-0.242-0.216-0.278-0.35
			c-0.035-0.129-0.046-0.272-0.077-0.401c-0.041-0.128,0.042-0.293,0.011-0.427c-0.041-0.134-0.216-0.227-0.257-0.36
			c-0.036-0.123-0.175-0.236-0.217-0.359c-0.03-0.134,0.181-0.34,0.145-0.468c-0.041-0.129-0.35-0.181-0.391-0.314
			c-0.031-0.134,0.169-0.334,0.134-0.463c-0.042-0.134-0.201-0.226-0.237-0.359c-0.041-0.129-0.092-0.258-0.128-0.392
			c-0.036-0.123,0.134-0.318,0.098-0.452c-0.041-0.129,0.01-0.288-0.021-0.422c-0.041-0.123-0.324-0.19-0.36-0.318
			c-0.041-0.129-0.123-0.247-0.165-0.381c-0.035-0.129-0.226-0.216-0.267-0.35c-0.036-0.129-0.031-0.272-0.072-0.406
			c-0.036-0.129,0.144-0.324,0.113-0.458c-0.041-0.139,0.113-0.318,0.071-0.452c-0.041-0.134-0.195-0.227-0.23-0.36
			c-0.036-0.128-0.396-0.165-0.438-0.298c-0.031-0.124-0.041-0.272-0.082-0.401c-0.042-0.134,0.107-0.319,0.051-0.453
			c-0.046-0.124-0.016-0.293-0.071-0.417c-0.052-0.124-0.247-0.19-0.309-0.314c-0.057-0.124-0.186-0.216-0.247-0.339
			c-0.057-0.124-0.206-0.206-0.263-0.329s0.113-0.36,0.067-0.483c-0.052-0.124-0.118-0.247-0.165-0.371
			c-0.041-0.133-0.293-0.206-0.329-0.339c-0.031-0.134,0.283-0.354,0.252-0.488c-0.036-0.134-0.118-0.252-0.149-0.381
			c-0.03-0.134-0.236-0.221-0.267-0.354c-0.036-0.134-0.077-0.263-0.113-0.391c-0.031-0.134-0.088-0.257-0.124-0.391
			c-0.03-0.134-0.144-0.242-0.175-0.381c-0.03-0.134-0.051-0.268-0.082-0.391c-0.036-0.134,0.062-0.298,0.031-0.432
			c-0.031-0.134,0.025-0.283,0-0.422c-0.031-0.134,0.005-0.278-0.031-0.411c-0.031-0.134-0.186-0.237-0.216-0.371
			c-0.031-0.134-0.041-0.267-0.077-0.401c-0.031-0.134-0.047-0.268-0.077-0.401c-0.031-0.134-0.293-0.206-0.324-0.345
			c-0.036-0.133,0.375-0.365,0.345-0.499c-0.031-0.134-0.195-0.237-0.227-0.371c-0.03-0.133-0.277-0.216-0.309-0.35
			c-0.03-0.134,0.222-0.324,0.19-0.458c-0.036-0.139-0.438-0.18-0.468-0.314c-0.031-0.134,0.103-0.303,0.072-0.432
			c-0.031-0.134-0.031-0.278-0.067-0.412c-0.031-0.134-0.036-0.268-0.066-0.406c-0.021-0.134-0.021-0.272-0.052-0.406
			C31.374,14.83,31.292,14.727,31.262,14.593z M31.169,10.093c0-0.139,0.082-0.278,0.072-0.412c0-0.144-0.113-0.267-0.124-0.401
			c-0.021-0.144,0.057-0.288,0.031-0.422c-0.021-0.139-0.195-0.247-0.222-0.375c-0.025-0.134,0.077-0.303,0.047-0.437
			c-0.036-0.134,0.092-0.324,0.051-0.453c-0.046-0.134-0.154-0.252-0.205-0.375c-0.052-0.128-0.063-0.293-0.124-0.406
			c-0.062-0.124-0.205-0.216-0.277-0.334c-0.067-0.118-0.35-0.103-0.425-0.216c-0.082-0.108-0.183-0.19-0.27-0.298
			c-0.085-0.108,0.098-0.463,0.005-0.561c-0.095-0.093-0.476,0.103-0.578,0.01c-0.104-0.093,0.005-0.442-0.104-0.524
			c-0.11-0.083-0.238-0.154-0.357-0.227c-0.118-0.072-0.439,0.227-0.563,0.17c-0.124-0.067-0.118-0.375-0.248-0.432
			c-0.124-0.051-0.316,0.087-0.453,0.046c-0.128-0.046-0.208-0.231-0.342-0.268c-0.134-0.031-0.221-0.313-0.355-0.334
			c-0.134-0.026-0.293,0.051-0.435,0.036c-0.134-0.015-0.293,0.288-0.435,0.278c-0.134-0.005-0.262-0.01-0.401-0.01
			c-0.134,0-0.291-0.386-0.429-0.38c-0.134,0.01-0.227,0.494-0.365,0.509c-0.165,0.026-0.406-0.154-0.563-0.21
			c-0.134-0.052-0.183-0.391-0.316-0.432c-0.139-0.036-0.327,0.072-0.465,0.051c-0.142-0.031-0.296,0.036-0.44,0.021
			c-0.146-0.01-0.285-0.268-0.424-0.268c-0.141,0-0.301,0.088-0.439,0.103c-0.142,0.01-0.237,0.391-0.375,0.422
			c-0.142,0.021-0.27,0.021-0.409,0.051c-0.139,0.031-0.252,0.103-0.391,0.144c-0.134,0.041-0.35-0.169-0.483-0.124
			c-0.134,0.042-0.167,0.371-0.296,0.422c-0.134,0.046-0.375-0.201-0.504-0.144c-0.128,0.051-0.247,0.134-0.375,0.195
			c-0.128,0.062-0.352-0.072-0.476-0.01c-0.128,0.062-0.188,0.268-0.306,0.329c-0.124,0.072-0.316,0.036-0.435,0.113
			c-0.118,0.072-0.252,0.149-0.37,0.227c-0.113,0.082-0.113,0.334-0.221,0.421C17.27,5.67,17.028,5.624,16.92,5.716
			c-0.103,0.098-0.198,0.221-0.296,0.324c-0.095,0.098-0.054,0.334-0.144,0.442c-0.092,0.108-0.37,0.082-0.455,0.195
			c-0.082,0.113,0.09,0.406,0.016,0.524c-0.075,0.113-0.35,0.124-0.419,0.252c-0.064,0.118-0.085,0.277-0.144,0.406
			c-0.059,0.123,0.16,0.37,0.108,0.504c-0.054,0.134-0.306,0.216-0.324,0.36c-0.016,0.144-0.041,0.293-0.054,0.442
			c-0.01,0.144,0.018,0.293-0.005,0.432c-0.021,0.149,0.039,0.319-0.021,0.442c-0.059,0.134-0.355,0.186-0.396,0.319
			c-0.049,0.139,0.357,0.411,0.326,0.545c-0.033,0.134-0.445,0.201-0.468,0.339c-0.021,0.144,0.039,0.298,0.033,0.442
			c-0.005,0.149-0.074,0.298-0.069,0.442c0.005,0.144,0.406,0.247,0.424,0.391c0.021,0.144-0.445,0.365-0.414,0.515
			c0.026,0.133,0.489,0.175,0.525,0.313c0.039,0.139,0.098,0.257,0.141,0.396c0.042,0.134,0.129,0.247,0.178,0.381
			c0.046,0.133,0.051,0.277,0.11,0.411c0.059,0.144,0.023,0.304,0.077,0.422c0.057,0.139,0.036,0.298,0.095,0.411
			c0.069,0.144,0.054,0.309,0.118,0.412c0.085,0.134,0.386,0.021,0.483,0.103c0.105,0.092,0.07,0.313,0.208,0.35
			c0.118,0.031,0.247,0.041,0.404,0.041c0.123,0,0.277,0.237,0.432,0.216c0.124-0.011,0.275,0.021,0.424-0.005
			c0.129-0.016,0.242-0.221,0.389-0.242c0.133-0.021,0.239-0.242,0.375-0.262c0.133-0.021,0.298,0.144,0.439,0.124
			c0.134-0.021,0.288,0.067,0.422,0.046c0.136-0.021,0.285,0.036,0.419,0.01c0.134-0.021,0.193-0.524,0.332-0.545
			c0.136-0.021,0.334,0.35,0.473,0.329c0.133-0.021,0.262-0.103,0.396-0.128c0.136-0.026,0.231-0.304,0.365-0.324
			c0.134-0.021,0.34,0.365,0.473,0.345c0.134-0.021,0.203-0.458,0.342-0.479c0.134-0.021,0.262-0.103,0.398-0.123
			c0.134-0.021,0.293,0.103,0.43,0.082c0.133-0.021,0.293,0.093,0.427,0.072c0.136-0.026,0.285,0.021,0.419,0
			c0.134-0.021,0.257-0.124,0.391-0.149c0.136-0.021,0.226-0.345,0.36-0.365s0.286,0.031,0.419,0.01
			c0.134-0.021,0.283,0.031,0.419,0.01c0.134-0.025,0.288,0.062,0.422,0.042c0.136-0.021,0.236-0.268,0.375-0.288
			c0.142-0.021,0.296,0.113,0.435,0.092c0.137-0.021,0.242-0.236,0.381-0.257c0.136-0.021,0.275-0.026,0.414-0.052
			c0.139-0.021,0.321,0.278,0.455,0.257c0.142-0.021,0.312,0.113,0.44,0.093c0.142-0.031,0.285-0.067,0.409-0.103
			c0.139-0.031,0.257-0.165,0.381-0.201c0.139-0.046,0.28-0.087,0.403-0.144c0.129-0.057,0.224-0.206,0.337-0.272
			c0.118-0.077,0.186-0.221,0.288-0.313c0.098-0.087,0.339-0.067,0.422-0.18c0.082-0.108-0.211-0.447-0.154-0.571
			c0.062-0.118,0.154-0.19,0.205-0.324c0.041-0.124,0.299-0.18,0.335-0.319c0.025-0.128-0.067-0.278-0.047-0.421
			c0.021-0.134,0.293-0.237,0.309-0.381c0.011-0.124-0.082-0.278-0.071-0.422c0-0.133,0.189-0.262,0.195-0.406
			c0.005-0.108-0.474-0.221-0.474-0.324C30.968,10.309,31.169,10.201,31.169,10.093z M20.327,2.307
			c0.051,0.113,0.025,0.237,0.08,0.339C20.46,2.754,20.579,2.8,20.63,2.903c0.118-0.067,0.252-0.057,0.375-0.128
			c0.118-0.067,0.157-0.272,0.275-0.345c0.119-0.067,0.312-0.01,0.43-0.077s0.327,0.016,0.445-0.057
			c0.118-0.067,0.283-0.288,0.401-0.36c-0.064-0.134-0.208-0.514-0.273-0.648c-0.128,0.057-0.391,0.19-0.514,0.242
			c-0.128,0.057-0.157,0.334-0.286,0.386c-0.128,0.057-0.242,0.144-0.365,0.195c-0.129,0.051-0.401-0.236-0.525-0.185
			C20.466,1.983,20.456,2.255,20.327,2.307z"/>
	</g>
	<g>
		<path d="M27.802,49.807c-0.11,0.077-0.175,0.247-0.278,0.324c-0.108,0.087-0.342,0.005-0.445,0.087
			c-0.108,0.082-0.172,0.216-0.28,0.298c-0.105,0.083-0.046,0.412-0.159,0.484c-0.113,0.071-0.291,0.071-0.409,0.133
			c-0.134,0.072-0.342-0.041-0.476-0.005c-0.146,0.047-0.27,0.19-0.409,0.19c-0.144,0.011-0.312,0-0.45-0.031
			c-0.134-0.03-0.226-0.216-0.355-0.282c-0.124-0.067-0.242-0.129-0.36-0.222c-0.105-0.082-0.188-0.195-0.288-0.303
			c-0.098-0.104-0.236-0.17-0.334-0.272c-0.095-0.099-0.051-0.34-0.149-0.442c-0.098-0.104-0.167-0.237-0.268-0.34
			c-0.103-0.103-0.532,0.134-0.632,0.031c-0.103-0.093,0.064-0.469-0.039-0.571c-0.103-0.098-0.242-0.159-0.35-0.252
			c-0.105-0.098-0.412,0.041-0.52-0.052c-0.108-0.087,0.021-0.432-0.069-0.524c-0.103-0.093-0.494,0.057-0.563-0.051
			c-0.074-0.113-0.139-0.309-0.172-0.442c-0.025-0.124,0.386-0.258,0.409-0.406c0.015-0.119-0.183-0.283-0.124-0.417
			c0.059-0.144,0.105-0.298,0.128-0.458c0.021-0.154-0.177-0.323-0.162-0.488c0.011-0.154,0.237-0.293,0.268-0.442
			c0.034-0.134-0.154-0.324-0.116-0.452c0.036-0.129,0.427-0.149,0.471-0.272c0.049-0.129,0.177-0.19,0.236-0.314
			c0.064-0.123,0.108-0.2,0.188-0.309c0.08-0.107-0.118-0.452-0.016-0.545c0.095-0.087,0.412,0.159,0.535,0.093
			c0.113-0.057,0.146-0.247,0.28-0.288c0.124-0.031,0.236-0.118,0.375-0.129c0.139-0.01,0.277-0.01,0.411-0.021
			c0.142-0.016,0.275-0.247,0.409-0.252c0.139,0,0.267,0.36,0.406,0.376c0.141,0.01,0.291-0.129,0.419-0.104
			c0.134,0.026,0.345-0.118,0.473-0.066c0.124,0.057,0.262,0.17,0.381,0.247c0.108,0.077,0.203,0.221,0.301,0.329
			c0.09,0.098,0.069,0.298,0.149,0.421c0.069,0.104,0.028,0.268,0.093,0.401c0.064,0.145,0.311,0.181,0.396,0.283
			c0.103,0.118,0.203,0.211,0.327,0.268c0.128,0.057,0.236-0.077,0.391-0.104c0.131-0.015,0.226,0.006,0.365-0.077
			c0.113-0.062,0.266-0.066,0.381-0.18c0.103-0.087,0.296-0.066,0.398-0.134c0.113-0.077,0.134-0.313,0.252-0.37
			c0.124-0.057,0.247-0.175,0.371-0.211c0.133-0.041,0.321,0.227,0.449,0.216c0.134-0.01,0.231,0.062,0.36,0.083
			c0.137,0.015,0.383-0.386,0.507-0.34c0.123,0.052,0.268,0.164,0.38,0.241c0.104,0.077-0.021,0.438,0.077,0.53
			c0.093,0.093,0.463-0.021,0.54,0.098c0.067,0.108-0.267,0.438-0.211,0.561c0.052,0.123,0.562,0.082,0.603,0.216
			c0.03,0.124-0.412,0.36-0.392,0.494c0.021,0.144,0.011,0.298,0.031,0.447s0.082,0.283,0.093,0.427
			c0.01,0.154,0.077,0.288,0.077,0.432c0.005,0.149,0.406,0.304,0.391,0.453c-0.011,0.154-0.504,0.257-0.52,0.391
			c-0.016,0.145,0.031,0.283,0.011,0.417c-0.026,0.148,0.144,0.334,0.107,0.457c-0.046,0.149,0,0.329-0.057,0.453
			c-0.062,0.144-0.082,0.334-0.154,0.442c-0.092,0.123-0.282,0.205-0.386,0.288c-0.107,0.098-0.391-0.104-0.52-0.041
			c-0.128,0.051-0.175,0.416-0.318,0.437c-0.134,0.025-0.299-0.175-0.442-0.19c-0.134,0-0.285,0.052-0.435,0.026
			c-0.134-0.026-0.285-0.036-0.43-0.083c-0.128-0.041-0.252-0.134-0.386-0.185c-0.128-0.057-0.231-0.17-0.365-0.236
			C28.083,49.92,27.934,49.873,27.802,49.807z M27.435,47.461c-0.077-0.087-0.231-0.144-0.306-0.257
			c-0.069-0.103,0.036-0.324-0.033-0.432c-0.069-0.108-0.203-0.175-0.278-0.273c-0.083-0.107-0.375,0.016-0.463-0.066
			c-0.1-0.093-0.08-0.19-0.198-0.227c-0.133-0.036-0.242-0.211-0.38-0.18c-0.128,0.036-0.198,0.2-0.321,0.272
			c-0.113,0.072-0.193,0.154-0.301,0.257c-0.098,0.098-0.291,0.104-0.375,0.222c-0.08,0.113-0.149,0.236-0.213,0.359
			c-0.067,0.124-0.157,0.242-0.206,0.371c-0.049,0.128-0.036,0.282-0.064,0.416c-0.026,0.145-0.242,0.278-0.247,0.412
			c0,0.144-0.041,0.298-0.031,0.432c0.01,0.139,0.488,0.216,0.52,0.345c0.033,0.139-0.283,0.396-0.227,0.509
			c0.067,0.124,0.221,0.247,0.324,0.34c0.095,0.082,0.357-0.113,0.494-0.067c0.116,0.047,0.175,0.406,0.327,0.417
			c0.139,0.01,0.203-0.391,0.342-0.458c0.124-0.057,0.211-0.087,0.329-0.195c0.101-0.088,0.52,0.082,0.609-0.041
			c0.087-0.113-0.021-0.381,0.054-0.51c0.069-0.123,0.157-0.246,0.221-0.38c0.059-0.129-0.075-0.34-0.023-0.479
			c0.049-0.134,0.291-0.2,0.334-0.35C27.357,47.76,27.401,47.605,27.435,47.461z M31.416,47.41c-0.083-0.104-0.247-0.17-0.324-0.278
			c-0.088-0.113,0.005-0.345-0.067-0.442c-0.082-0.113-0.216-0.18-0.298-0.288c-0.082-0.112-0.401-0.035-0.483-0.139
			c-0.082-0.113-0.082-0.262-0.17-0.365c-0.093-0.103-0.046-0.329-0.139-0.411c-0.103-0.093-0.275-0.072-0.389-0.144
			c-0.123-0.072-0.188-0.047-0.342,0.025c-0.118,0.052-0.316,0.025-0.435,0.144c-0.103,0.104-0.192,0.231-0.28,0.365
			c-0.08,0.124-0.18,0.252-0.239,0.391c-0.054,0.14-0.049,0.309-0.069,0.453c-0.023,0.154-0.222,0.35-0.196,0.493
			c0.024,0.124,0.029,0.309,0.078,0.433c0.046,0.123,0.529,0.052,0.589,0.175c0.059,0.123-0.208,0.422-0.134,0.54
			c0.069,0.107,0.183,0.2,0.257,0.313c0.069,0.108,0.404,0.057,0.474,0.165c0.069,0.113-0.033,0.493,0.025,0.606
			c0.098-0.082,0.08-0.504,0.178-0.597c0.095-0.087,0.213-0.154,0.316-0.241c0.098-0.088,0.485,0.144,0.583,0.051
			c0.099-0.087,0.036-0.354,0.14-0.447c0.098-0.082,0.205-0.164,0.309-0.257c0.092-0.082,0.057-0.324,0.159-0.417
			C31.065,47.451,31.318,47.502,31.416,47.41z M25.233,44.499c-0.059-0.129-0.178-0.206-0.237-0.334
			c-0.144,0.025-0.267-0.16-0.421-0.145c-0.147,0.011-0.291,0.093-0.44,0.103c-0.152,0.011-0.265,0.324-0.409,0.345
			c-0.154,0.026-0.291-0.046-0.424,0c-0.144,0.047-0.347-0.062-0.465,0.031c-0.103,0.082-0.098,0.257-0.172,0.375
			c-0.069,0.108-0.103,0.222-0.149,0.355c-0.043,0.123-0.211,0.216-0.231,0.35s-0.021,0.277-0.025,0.411
			c-0.008,0.134-0.034,0.277-0.018,0.411c0.01,0.134,0.087,0.268,0.113,0.401c0.025,0.134-0.124,0.334-0.08,0.458
			c0.049,0.129,0.075,0.313,0.139,0.427c0.069,0.123,0.36-0.093,0.445,0c0.074-0.113,0.327,0.077,0.409-0.036
			c0.08-0.113,0.111-0.257,0.193-0.37c0.075-0.108-0.098-0.401-0.023-0.515c0.077-0.113,0.439-0.03,0.517-0.144
			c0.075-0.113-0.172-0.447-0.092-0.561c0.074-0.113,0.177-0.216,0.257-0.324c0.077-0.113,0.512,0.016,0.586-0.098
			s-0.044-0.36,0.031-0.474c0.075-0.112,0.167-0.216,0.242-0.329C25.069,44.726,25.159,44.612,25.233,44.499z"/>
	</g>
	<g>
		<path d="M29.853,30.881c-0.14,0.035-0.316-0.083-0.445-0.057c-0.144,0.035-0.219,0.406-0.347,0.427
			c-0.146,0.016-0.307-0.145-0.435-0.145c-0.146,0-0.296,0.062-0.425,0.041c-0.139-0.03-0.263-0.118-0.386-0.175
			c-0.123-0.057-0.35,0.011-0.463-0.071c-0.1-0.077-0.105-0.309-0.203-0.412c-0.09-0.092-0.128-0.236-0.213-0.359
			c-0.082-0.098-0.131-0.227-0.211-0.35c-0.069-0.108,0.01-0.319-0.064-0.442c-0.075-0.129-0.16-0.294-0.252-0.417
			c-0.09-0.123-0.322-0.159-0.43-0.268c-0.113-0.107-0.375-0.035-0.499-0.118c-0.113-0.082-0.203-0.2-0.306-0.288
			c-0.105-0.092,0-0.39-0.09-0.483c-0.098-0.103-0.473,0.031-0.547-0.077c-0.08-0.113-0.039-0.313-0.095-0.437
			c-0.064-0.124-0.131-0.247-0.172-0.37c-0.044-0.134,0.021-0.278,0-0.422c-0.023-0.134-0.146-0.262-0.139-0.396
			c0.005-0.134,0.303-0.221,0.332-0.355c0.026-0.128-0.296-0.35-0.247-0.488c0.049-0.124,0.257-0.18,0.322-0.309
			c0.064-0.119,0.128-0.242,0.236-0.34c0.103-0.087,0.306-0.01,0.435-0.087c0.118-0.067,0.257-0.046,0.391-0.103
			c0.123-0.057,0.208-0.201,0.344-0.247c0.129-0.051,0.273-0.057,0.406-0.103c0.134-0.052,0.183-0.324,0.316-0.371
			c0.134-0.051,0.35,0.093,0.473,0.041c0.113-0.051,0.272-0.401,0.435-0.354c0.149,0.046,0.139,0.442,0.242,0.519
			c0.105,0.093,0.214,0.18,0.322,0.268c0.108,0.093,0.312,0.067,0.412,0.165c0.103,0.093,0.098,0.309,0.2,0.401
			c0.101,0.092,0.396-0.026,0.499,0.072c0.101,0.093,0.144,0.247,0.247,0.35c0.1,0.093,0.192,0.201,0.293,0.293
			c0.103,0.087,0.265,0.124,0.362,0.221c0.103,0.092,0.216,0.175,0.324,0.267c0.103,0.093,0.241,0.144,0.35,0.237
			c0.103,0.093,0.077,0.339,0.19,0.422c0.113,0.072,0.329-0.021,0.452,0.041c0.124,0.067,0.145,0.345,0.268,0.401
			c0.134,0.052,0.257,0.087,0.37,0.154c0.124,0.062,0.355-0.051,0.469,0.021c0.112,0.072,0.257,0.139,0.364,0.226
			c0.108,0.082,0.026,0.38,0.119,0.473c0.098,0.103,0.231,0.154,0.313,0.257c0.082,0.112,0.087,0.267,0.154,0.38
			c0.062,0.124,0.103,0.237,0.154,0.36c0.046,0.123,0.257,0.2,0.288,0.334c0.03,0.129,0.154,0.263,0.164,0.406
			c0.011,0.134-0.359,0.277-0.359,0.417c-0.011,0.134,0.112,0.262,0.092,0.4c-0.025,0.129,0.124,0.304,0.083,0.438
			c-0.031,0.123-0.247,0.175-0.319,0.298c-0.062,0.108-0.052,0.273-0.134,0.376c-0.093,0.103-0.309,0.057-0.406,0.144
			c-0.098,0.093-0.149,0.206-0.257,0.272c-0.118,0.072-0.201,0.186-0.313,0.211c-0.134,0.036-0.258-0.134-0.401-0.139
			c-0.134-0.005-0.293,0.258-0.433,0.227c-0.133-0.031-0.287-0.011-0.421-0.052c-0.134-0.046-0.145-0.432-0.278-0.483
			c-0.134-0.046-0.329,0.088-0.452,0.041c-0.113-0.041-0.268-0.066-0.35-0.175c-0.072-0.093,0.036-0.313-0.031-0.427
			C30.099,31.04,29.922,30.973,29.853,30.881z M30.053,27.399c-0.06-0.077-0.016-0.283-0.093-0.417
			c-0.064-0.103-0.435-0.021-0.514-0.124c-0.083-0.113-0.034-0.313-0.129-0.401c-0.103-0.093-0.231-0.093-0.354-0.128
			c-0.149-0.042-0.263-0.098-0.401-0.067c-0.142,0.031-0.152,0.226-0.275,0.319c-0.105,0.082-0.306,0.041-0.396,0.165
			c-0.08,0.113-0.208,0.206-0.275,0.344c-0.057,0.129-0.144,0.263-0.18,0.407c-0.039,0.144-0.242,0.267-0.265,0.421
			c-0.015,0.144-0.054,0.319-0.046,0.473c0.005,0.123,0.154,0.268,0.175,0.396c0.018,0.129,0.27,0.211,0.306,0.334
			c0.039,0.124,0.044,0.247,0.103,0.351c0.064,0.112-0.049,0.421,0.054,0.504c0.095,0.077,0.386-0.19,0.52-0.16
			c0.113,0.026,0.203,0.181,0.345,0.17c0.148-0.01,0.272-0.057,0.386-0.103c0.134-0.052,0.306-0.041,0.4-0.134
			c0.098-0.088,0.093-0.268,0.162-0.391c0.064-0.113,0.386-0.149,0.43-0.283c0.033-0.123-0.291-0.354-0.263-0.493
			c0.026-0.129,0.209-0.231,0.224-0.37c0.016-0.129,0.006-0.268,0.016-0.407C29.999,27.677,30.037,27.538,30.053,27.399z
			 M33.103,30.109c-0.057-0.165,0.041-0.371,0-0.505c-0.052-0.169-0.432-0.205-0.483-0.334c-0.057-0.159,0.041-0.354-0.052-0.463
			c-0.093-0.107-0.247-0.139-0.37-0.226c-0.118-0.077-0.206-0.201-0.339-0.272c-0.124-0.072-0.165,0.021-0.283-0.052
			c-0.067,0.144-0.17,0.103-0.242,0.247c-0.071,0.148-0.195,0.257-0.257,0.406c-0.062,0.144-0.144,0.293-0.186,0.447
			c-0.021,0.123-0.144,0.38-0.077,0.524c0.057,0.134,0.108,0.277,0.16,0.406c0.062,0.129,0.252,0.2,0.309,0.334
			c0.062,0.124,0.339,0.154,0.396,0.283c0.067,0.129,0.036,0.236,0.098,0.365c0.113-0.104,0.36,0.016,0.474-0.088
			c0.107-0.107-0.041-0.483,0.066-0.581c0.113-0.113,0.324-0.103,0.427-0.205C32.851,30.294,33,30.207,33.103,30.109z
			 M26.635,24.468c-0.093,0.092-0.306,0.082-0.404,0.169c-0.095,0.093,0.049,0.438-0.041,0.53c-0.098,0.087-0.306,0.067-0.388,0.16
			c-0.085,0.103-0.085,0.242-0.139,0.36c-0.049,0.108-0.123,0.195-0.139,0.319c-0.016,0.113,0.154,0.227,0.159,0.35
			c0,0.124-0.159,0.247-0.149,0.371c0.01,0.123-0.039,0.247-0.026,0.365c0.01,0.129,0.386,0.407,0.515,0.371
			c0.103-0.026,0.354,0.025,0.445-0.057c0.084-0.083,0.231-0.221,0.291-0.319c0.069-0.124,0.015-0.319,0.085-0.442
			c0.069-0.124-0.07-0.355-0.01-0.483c0.064-0.124,0.159-0.231,0.218-0.36c0.059-0.129,0.383-0.139,0.435-0.268
			c0.077-0.165-0.218-0.437-0.303-0.571c-0.054-0.087-0.039-0.211-0.195-0.283C26.892,24.637,26.773,24.545,26.635,24.468z"/>
	</g>
	<g>
		<path d="M26.033,40.22c-0.026,0.149,0.074,0.35,0.043,0.483c-0.039,0.134-0.082,0.278-0.124,0.401
			c-0.049,0.145-0.375,0.154-0.429,0.272c-0.059,0.134,0.291,0.488,0.213,0.602c-0.08,0.124-0.288,0.181-0.386,0.272
			c-0.1,0.099-0.183,0.299-0.301,0.371c-0.118,0.066-0.316,0.077-0.455,0.123c-0.128,0.036-0.306-0.016-0.445,0
			c-0.129,0.011-0.275-0.263-0.419-0.272c-0.128,0-0.247-0.062-0.391-0.077c-0.128-0.016-0.345,0.427-0.483,0.396
			c-0.134-0.025-0.306-0.082-0.424-0.134c-0.124-0.051-0.262-0.164-0.375-0.241c-0.105-0.077,0.077-0.499-0.016-0.592
			c-0.09-0.092-0.316-0.046-0.391-0.159c-0.069-0.108-0.252-0.164-0.306-0.288c-0.054-0.118-0.033-0.272-0.069-0.406
			c-0.039-0.123-0.296-0.221-0.316-0.36c-0.023-0.123,0.149-0.287,0.144-0.427c-0.005-0.128,0.306-0.252,0.311-0.391
			c0.005-0.129-0.488-0.313-0.473-0.447c0.023-0.134,0.473-0.211,0.494-0.34c0.023-0.144-0.1-0.298-0.08-0.421
			c0.026-0.149-0.177-0.34-0.144-0.463c0.036-0.145,0.149-0.268,0.193-0.392c0.049-0.134,0.46-0.087,0.525-0.2
			c0.064-0.123,0.005-0.283,0.092-0.386c0.085-0.108,0.124-0.236,0.229-0.319c0.103-0.082,0.242-0.092,0.365-0.159
			c0.113-0.057,0.221-0.118,0.354-0.17c0.119-0.041,0.263-0.01,0.401-0.041c0.124-0.041,0.216-0.205,0.355-0.236
			c0.128-0.036,0.203-0.35,0.344-0.37c0.129-0.031,0.273-0.011,0.417-0.036c0.141-0.025,0.167-0.098,0.301-0.2
			c0.118-0.083,0.558,0.2,0.666,0.092c0.108-0.103-0.075-0.514,0.021-0.617c0.098-0.103,0.327-0.062,0.435-0.148
			c0.108-0.088,0.193-0.211,0.311-0.278c0.118-0.077,0.332,0.047,0.455-0.01c0.129-0.057,0.129-0.458,0.26-0.499
			c0.134-0.041,0.332,0.186,0.471,0.17s0.28-0.278,0.419-0.268c0.139,0.01,0.219,0.365,0.348,0.406
			c0.137,0.041,0.404-0.216,0.522-0.139s0.208,0.231,0.311,0.324c0.105,0.092,0.021,0.364,0.113,0.473
			c0.09,0.103,0.391,0.062,0.46,0.186c0.07,0.118-0.043,0.344,0.011,0.473s0.049,0.263,0.088,0.396
			c0.035,0.134,0.169,0.241,0.188,0.38c0.016,0.14,0.016,0.283,0.01,0.417c-0.005,0.144-0.118,0.257-0.142,0.401
			c-0.025,0.139-0.005,0.272-0.051,0.406c-0.049,0.128,0.159,0.365,0.105,0.483c-0.055,0.123-0.439,0.087-0.504,0.211
			c-0.064,0.123-0.031,0.288-0.105,0.391c-0.077,0.113-0.335,0.077-0.414,0.18c-0.085,0.108,0.074,0.427-0.021,0.52
			c-0.098,0.093-0.296,0.072-0.404,0.154c-0.107,0.077-0.231,0.113-0.35,0.18c-0.116,0.057-0.213,0.154-0.342,0.201
			c-0.124,0.041-0.247,0.082-0.38,0.113c-0.129,0.03-0.268-0.104-0.409-0.093c-0.128,0.01-0.252,0.37-0.391,0.37
			C26.339,40.467,26.172,40.23,26.033,40.22z M22.15,39.706c0,0.144,0.16,0.267,0.172,0.391c0.01,0.149,0.021,0.272,0.046,0.391
			c0.034,0.145-0.208,0.37-0.159,0.483c0.059,0.134,0.514-0.03,0.604,0.052c0.098,0.093,0.072,0.221,0.201,0.262
			c0.118,0.036,0.203-0.066,0.347-0.066c0.128,0,0.193,0.052,0.321,0c0.119-0.046,0.242-0.021,0.355-0.098
			c0.108-0.077,0.391,0.046,0.489-0.047c0.09-0.092,0.236-0.189,0.316-0.298c0.08-0.108-0.252-0.463-0.188-0.586
			c0.059-0.113,0.108-0.206,0.144-0.329c0.043-0.124,0.098-0.206,0.108-0.335c0.016-0.134,0.455-0.282,0.44-0.416
			c-0.021-0.124-0.242-0.227-0.252-0.36c-0.015-0.134-0.154-0.257-0.172-0.391c-0.021-0.134,0.033-0.278-0.005-0.401
			c-0.036-0.134-0.283-0.134-0.347-0.247s0.026-0.298-0.082-0.391c-0.095-0.082-0.09-0.422-0.229-0.473
			c-0.113-0.036-0.355,0.432-0.504,0.416c-0.146-0.016-0.334-0.416-0.468-0.354c-0.124,0.051-0.188,0.282-0.301,0.391
			c-0.095,0.098,0.016,0.345-0.069,0.473c-0.075,0.113-0.188,0.186-0.252,0.319c-0.054,0.134-0.479,0.134-0.52,0.277
			c-0.039,0.134,0.059,0.319,0.031,0.463c-0.026,0.145,0.023,0.304,0.005,0.447C22.166,39.418,22.15,39.562,22.15,39.706z
			 M25.786,37.957c0.069,0.072,0.291,0.113,0.391,0.247c0.077,0.107,0.157,0.216,0.252,0.329c0.092,0.107-0.005,0.432,0.103,0.52
			c0.113,0.093,0.445-0.263,0.579-0.222c0.129,0.041,0.152,0.165,0.286,0.134c0.124-0.03,0.139-0.164,0.257-0.236
			c0.108-0.072,0.208-0.077,0.306-0.18c0.091-0.088,0.222-0.129,0.296-0.242c0.075-0.103,0.386-0.082,0.445-0.206
			c0.06-0.112,0.167-0.246,0.208-0.37c0.044-0.134-0.375-0.37-0.347-0.504c0.025-0.134,0.041-0.226,0.046-0.359
			c0-0.134,0.039-0.231,0.023-0.355c-0.019-0.134,0.401-0.35,0.365-0.468c-0.039-0.129-0.296-0.195-0.36-0.298
			c-0.069-0.108-0.241-0.113-0.345-0.196c-0.095-0.071-0.154-0.195-0.282-0.236c-0.114-0.036-0.258,0.165-0.399,0.154
			c-0.139-0.021-0.234-0.2-0.363-0.17c-0.131,0.036-0.403-0.19-0.517-0.118s0.108,0.545,0.01,0.648
			c-0.085,0.093-0.509-0.067-0.584,0.057c-0.064,0.107,0,0.309-0.054,0.447c-0.049,0.113,0.139,0.313,0.103,0.447
			c-0.034,0.123-0.129,0.227-0.157,0.36c-0.021,0.128-0.435,0.211-0.445,0.354C25.599,37.639,25.792,37.813,25.786,37.957z"/>
	</g>
	<g>
		<path d="M31.519,43.316c-0.145,0-0.329,0.175-0.463,0.144c-0.145-0.036-0.129-0.463-0.257-0.524
			c-0.134-0.067-0.474,0.221-0.587,0.134c-0.113-0.082-0.257-0.195-0.354-0.304c-0.09-0.108-0.047-0.35-0.116-0.473
			c-0.071-0.124,0.14-0.345,0.096-0.489c-0.044-0.134-0.37-0.195-0.381-0.329c-0.01-0.144,0.005-0.298,0.025-0.437
			c0.023-0.14,0.083-0.278,0.137-0.412c0.052-0.139,0.192-0.226,0.252-0.354c0.052-0.129,0.074-0.277,0.129-0.411
			c0.054-0.124,0.131-0.247,0.188-0.381c0.057-0.124-0.036-0.313,0.016-0.447c0.051-0.134,0.396-0.154,0.442-0.283
			c0.051-0.134-0.268-0.401-0.227-0.535s0.277-0.2,0.318-0.339c0.042-0.134-0.139-0.329-0.103-0.468
			c0.031-0.134,0.201-0.237,0.227-0.376c0.03-0.139-0.016-0.288,0.01-0.422c0.021-0.144,0.371-0.247,0.381-0.391
			c0.011-0.134-0.066-0.257-0.031-0.381c0.042-0.134,0.134-0.2,0.196-0.318c0.062-0.124-0.154-0.422-0.072-0.524
			c0.087-0.108,0.365-0.031,0.473-0.113c0.104-0.088,0.283-0.021,0.396-0.088c0.118-0.066,0.123-0.303,0.252-0.354
			c0.123-0.047,0.186-0.376,0.318-0.401c0.134-0.025,0.304,0.021,0.442,0.011c0.154-0.011,0.345-0.083,0.479-0.052
			c0.145,0.025,0.19,0.406,0.313,0.463c0.124,0.062,0.17,0.186,0.283,0.277c0.108,0.083,0.283,0.072,0.375,0.186
			c0.083,0.107,0.253,0.164,0.33,0.288c0.071,0.113,0.112,0.257,0.18,0.381c0.066,0.123-0.118,0.359-0.057,0.493
			c0.057,0.134,0.236,0.206,0.277,0.329c0.047,0.139,0.381,0.206,0.406,0.34c0.026,0.144-0.427,0.293-0.437,0.437
			c-0.011,0.14-0.011,0.206-0.067,0.345c-0.046,0.124,0.159,0.365,0.067,0.494c-0.072,0.107-0.041,0.339-0.145,0.452
			c-0.082,0.104-0.401,0-0.473,0.113c-0.072,0.113-0.036,0.293-0.093,0.411c-0.062,0.113,0.021,0.288-0.031,0.412
			c-0.046,0.123-0.211,0.195-0.246,0.318c-0.047,0.124-0.36,0.17-0.392,0.293c-0.036,0.129,0.063,0.294,0.031,0.417
			c-0.031,0.134-0.222,0.221-0.247,0.35c-0.03,0.145,0.35,0.401,0.304,0.524c-0.047,0.145-0.313,0.195-0.365,0.324
			c-0.062,0.134-0.036,0.304-0.103,0.427c-0.083,0.124-0.288,0.145-0.371,0.257c-0.092,0.113-0.185,0.196-0.288,0.294
			c-0.103,0.098-0.236,0.118-0.35,0.189c-0.123,0.083-0.236,0.088-0.359,0.145c-0.134,0.052-0.186,0.257-0.324,0.288
			C31.786,43.26,31.662,43.316,31.519,43.316z M33.246,40.122c-0.082-0.139-0.329-0.195-0.406-0.334s0.206-0.488,0.118-0.617
			c-0.082-0.134-0.519-0.005-0.622-0.118c-0.057-0.067-0.066,0-0.231,0.016c-0.159,0.01-0.309-0.134-0.359-0.063
			c-0.093,0.124-0.417,0.083-0.504,0.206c-0.083,0.123,0.082,0.422,0,0.551c-0.083,0.128-0.176,0.246-0.247,0.38
			c-0.083,0.134-0.165,0.258-0.227,0.396c-0.057,0.139-0.195,0.257-0.236,0.401c-0.021,0.107,0.03,0.267,0.066,0.4
			c0.036,0.113,0.067,0.258,0.129,0.37c0.062,0.113,0.257,0.134,0.339,0.237c0.083,0.103-0.051,0.422,0.036,0.504
			c0.057,0.051,0.324-0.293,0.51-0.35c0.134-0.041,0.334,0.093,0.457,0.021c0.14-0.077,0.104-0.319,0.17-0.412
			c0.082-0.092,0.258-0.103,0.324-0.21c0.057-0.108,0.057-0.247,0.108-0.365c0.046-0.113,0.406-0.098,0.452-0.222
			c0.052-0.113,0.011-0.268,0.062-0.386C33.236,40.41,33.185,40.24,33.246,40.122z M34.614,37.104c0-0.175-0.17-0.278-0.164-0.447
			c-0.124-0.077,0.051-0.427-0.072-0.525c-0.123-0.092-0.504,0.16-0.627,0.077c-0.124-0.092-0.237-0.144-0.371-0.2
			c-0.144-0.072-0.195-0.272-0.339-0.262c-0.118,0-0.401-0.186-0.535-0.093c-0.113,0.071-0.046,0.422-0.144,0.524
			c-0.104,0.107-0.206,0.206-0.278,0.318c-0.082,0.14-0.159,0.258-0.185,0.381c-0.031,0.159-0.134,0.309-0.104,0.422
			c0.031,0.154,0.16,0.277,0.263,0.354c0.098,0.077,0.231,0.17,0.375,0.211c0.129,0.036,0.294-0.093,0.433-0.082
			c0.154,0.016,0.268,0.329,0.391,0.345c0.123,0.01,0.18-0.406,0.309-0.474c0.108-0.057,0.318,0.036,0.432-0.046
			c0.098-0.082,0.063-0.34,0.165-0.427C34.265,37.104,34.512,37.17,34.614,37.104z"/>
	</g>
	<g>
		<path d="M26.062,21.464c0.105-0.057,0.311,0.118,0.432,0.067c0.119-0.052,0.19-0.221,0.306-0.268
			c0.124-0.051,0.172-0.268,0.286-0.324c0.123-0.057,0.285-0.036,0.386-0.108c0.108-0.082,0.043-0.272,0.103-0.38
			c0.069-0.129,0.332-0.139,0.401-0.252c0.083-0.124-0.09-0.427-0.005-0.54c0.093-0.108,0.484,0.057,0.586-0.031
			c0.105-0.103,0.052-0.427,0.17-0.494c0.124-0.062,0.296-0.144,0.435-0.169c0.129-0.021,0.321-0.057,0.469-0.042
			c0.128,0.011,0.252,0.221,0.398,0.268c0.123,0.036,0.288,0.026,0.406,0.077c0.123,0.057,0.211,0.195,0.323,0.268
			c0.113,0.072,0.047,0.35,0.145,0.442c0.103,0.092,0.37-0.01,0.463,0.092c0.082,0.103,0.103,0.247,0.164,0.365
			c0.067,0.113-0.01,0.278,0.042,0.401c0.051,0.123,0.452,0.139,0.488,0.267c0.025,0.129-0.227,0.314-0.216,0.448
			c0.01,0.128,0.236,0.247,0.236,0.375c0,0.128,0.134,0.267,0.129,0.396c-0.006,0.128-0.016,0.267-0.026,0.396
			c-0.016,0.128-0.066,0.257-0.093,0.386c-0.015,0.133-0.18,0.236-0.2,0.36c-0.021,0.128-0.057,0.252-0.077,0.375
			c-0.025,0.128-0.093,0.35-0.227,0.453c-0.103,0.077-0.354-0.072-0.504-0.016c-0.128,0.041-0.2,0.406-0.35,0.427
			c-0.139,0.026-0.324-0.046-0.468-0.046c-0.145,0-0.304-0.077-0.442-0.098c-0.146-0.021-0.203-0.344-0.334-0.391
			c-0.139-0.046-0.368,0.124-0.481,0.041c-0.118-0.087-0.069-0.334-0.167-0.447c-0.095-0.113-0.365-0.083-0.45-0.201
			c-0.087-0.118,0.08-0.447-0.01-0.561c-0.098-0.113-0.479,0.051-0.592-0.041c-0.09-0.072-0.09-0.283-0.198-0.35
			c-0.108-0.056-0.291,0.052-0.401,0.011c-0.113-0.052-0.211-0.103-0.324-0.124c-0.124-0.031-0.239-0.406-0.357-0.401
			c-0.146,0.01-0.27,0.339-0.419,0.365c-0.144,0.026-0.272,0.108-0.419,0.139c-0.144,0.031-0.321-0.062-0.46-0.021
			c-0.146,0.042-0.345-0.092-0.483-0.046c-0.139,0.042-0.193,0.365-0.332,0.417c-0.124,0.041-0.27,0.01-0.399,0.051
			c-0.123,0.046-0.229,0.144-0.352,0.185s-0.355-0.211-0.479-0.165c-0.123,0.041-0.133,0.406-0.257,0.447
			c-0.124,0.046-0.301-0.051-0.424-0.01c-0.124,0.046-0.257,0.057-0.381,0.098c-0.123,0.042-0.188,0.257-0.311,0.298
			c-0.134,0.052-0.396-0.185-0.532-0.133c-0.149,0.066-0.208,0.421-0.337,0.401c-0.118-0.031-0.183-0.36-0.316-0.391
			c-0.128-0.031-0.365,0.35-0.494,0.313c-0.139-0.036-0.123-0.468-0.231-0.514c-0.159-0.077-0.128,0-0.144-0.093
			c-0.039-0.18-0.435-0.35-0.391-0.463c0.059-0.139,0.252-0.396,0.396-0.458c0.124-0.046,0.332-0.031,0.489-0.057
			c0.139-0.021,0.36,0.35,0.499,0.324c0.134-0.031,0.278-0.01,0.414-0.042c0.134-0.025,0.208-0.309,0.342-0.339
			c0.134-0.031,0.237-0.185,0.365-0.216c0.134-0.031,0.36,0.298,0.489,0.257c0.134-0.031,0.242-0.149,0.375-0.185
			c0.134-0.041,0.272-0.041,0.401-0.077c0.129-0.036,0.263-0.077,0.399-0.113c0.128-0.036,0.218-0.227,0.347-0.263
			c0.128-0.041,0.21-0.262,0.339-0.298c0.128-0.041,0.37,0.319,0.504,0.283c0.139-0.036,0.149-0.494,0.288-0.54
			c0.141-0.052,0.265-0.124,0.404-0.175c0.139-0.052,0.365,0.062,0.499,0.015C25.958,21.207,26.007,21.346,26.062,21.464z
			 M31.374,22.056c-0.103-0.108-0.01-0.375-0.103-0.479c-0.103-0.108-0.298-0.123-0.391-0.226c-0.103-0.108-0.34-0.087-0.427-0.19
			c-0.104-0.108-0.124-0.288-0.222-0.391c-0.103-0.103-0.331-0.083-0.427-0.185c-0.098-0.108-0.087-0.381-0.183-0.484
			c-0.082,0.119,0.031,0.453-0.059,0.571c-0.093,0.108-0.499-0.026-0.587,0.087c-0.09,0.113,0.077,0.401,0.011,0.514
			c-0.069,0.134-0.085,0.216-0.101,0.36c-0.016,0.134,0.005,0.237,0.016,0.36c0.011,0.144-0.144,0.277-0.108,0.411
			c0.044,0.124,0.157,0.206,0.231,0.319c0.075,0.113,0.104,0.252,0.209,0.339c0.103,0.083,0.136,0.396,0.27,0.442
			c0.124,0.041,0.337-0.185,0.483-0.18c0.105,0.005,0.265,0,0.378-0.103c0.088-0.067,0.288-0.077,0.391-0.18
			c0.078-0.087-0.123-0.447-0.035-0.545c0.082-0.093,0.375,0,0.468-0.103C31.271,22.308,31.282,22.148,31.374,22.056z"/>
	</g>
	<g>
		<path d="M33.267,45.929c0.011-0.139,0.134-0.216,0.165-0.35c0.025-0.134-0.154-0.299-0.118-0.433
			c0.036-0.128-0.088-0.318-0.036-0.452c0.052-0.123,0.406-0.113,0.463-0.236c0.066-0.124,0.123-0.227,0.195-0.34
			c0.072-0.118-0.062-0.375,0.021-0.479c0.088-0.107,0.37-0.035,0.463-0.139c0.093-0.103,0.041-0.345,0.145-0.432
			c0.103-0.093,0.092-0.35,0.205-0.433c0.113-0.082,0.36,0.026,0.474-0.03c0.123-0.067,0.257-0.134,0.38-0.175
			c0.134-0.041,0.278-0.062,0.412-0.082c0.134-0.021,0.272,0.103,0.406,0.103c0.149,0.01,0.313-0.134,0.437-0.103
			c0.145,0.041,0.247,0.159,0.36,0.226c0.123,0.077,0.299,0.104,0.381,0.206c0.093,0.103,0.144,0.247,0.216,0.37
			c0.072,0.118,0.257,0.195,0.309,0.319c0.057,0.123-0.031,0.318,0.025,0.441c0.057,0.129,0.288,0.154,0.345,0.278
			c0.067,0.123-0.021,0.309,0.062,0.411c0.098,0.124,0.252,0.268,0.278,0.391c0.021,0.134-0.134,0.309-0.175,0.442
			c-0.041,0.124-0.108,0.258-0.195,0.371c-0.083,0.107-0.113,0.277-0.217,0.38c-0.092,0.088-0.288,0.077-0.4,0.165
			c-0.124,0.082-0.381,0.036-0.494,0.144c-0.103,0.104-0.216,0.227-0.313,0.34s-0.149,0.277-0.242,0.391
			c-0.093,0.123,0.124,0.474,0.041,0.586c-0.092,0.124-0.309,0.17-0.406,0.258c-0.113,0.103-0.268,0.164-0.386,0.226
			c-0.134,0.072-0.226,0.345-0.365,0.381c-0.144,0.031-0.334-0.293-0.483-0.298c-0.144-0.006-0.303,0.118-0.447,0.082
			c-0.134-0.041-0.17-0.345-0.298-0.401c-0.134-0.062-0.36,0.088-0.483,0.011c-0.104-0.067-0.278-0.124-0.35-0.237
			c-0.063-0.103-0.154-0.226-0.206-0.359c-0.041-0.108,0.139-0.313,0.103-0.438c-0.03-0.118-0.154-0.221-0.19-0.345
			c-0.03-0.123,0.181-0.313,0.14-0.432C33.447,46.113,33.313,46.036,33.267,45.929z M37.171,44.438
			c-0.083-0.072-0.124-0.324-0.247-0.474c-0.098-0.113-0.376-0.093-0.499-0.195s-0.318-0.021-0.473-0.072
			c-0.134-0.041-0.309-0.318-0.453-0.246c-0.113,0.051-0.283,0.175-0.401,0.287c-0.103,0.093-0.005,0.381-0.092,0.51
			c-0.077,0.118-0.381,0.107-0.448,0.247c-0.066,0.128,0.067,0.354,0.021,0.493c-0.046,0.139,0.14,0.304,0.119,0.447
			c-0.021,0.154-0.242,0.258-0.227,0.401c0.01,0.124,0.062,0.227,0.123,0.36c0.062,0.113,0.113,0.236,0.201,0.339
			c0.087,0.108,0.098,0.299,0.189,0.376c0.113,0.093,0.314,0.025,0.422,0.046c0.124,0.036,0.247,0.082,0.392,0.026
			c0.118-0.047,0.164-0.201,0.277-0.304c0.098-0.082,0.206-0.154,0.298-0.272c0.077-0.108,0.021-0.283,0.093-0.406
			c0.062-0.119,0.252-0.175,0.309-0.299c0.047-0.134-0.103-0.309-0.072-0.447c0.042-0.134,0.222-0.221,0.242-0.36
			C36.954,44.751,37.165,44.581,37.171,44.438z"/>
	</g>
	<g>
		<path d="M22.862,28.474c0.152-0.01,0.316,0.355,0.445,0.37c0.152,0.021,0.324-0.169,0.453-0.123
			c0.139,0.041,0.229,0.185,0.347,0.257c0.118,0.077,0.252,0.134,0.355,0.231c0.095,0.098,0.01,0.34,0.09,0.452
			c0.083,0.113,0.247,0.154,0.311,0.278c0.064,0.123,0.316,0.159,0.375,0.282c0.06,0.134-0.267,0.392-0.224,0.525
			c0.041,0.134,0.283,0.2,0.306,0.339c0.021,0.145-0.083,0.278-0.083,0.411c0,0.145,0.103,0.273,0.083,0.412
			c-0.023,0.139-0.049,0.268-0.093,0.396c-0.036,0.134,0,0.294-0.059,0.427c-0.059,0.124-0.347,0.104-0.424,0.227
			c-0.074,0.108-0.015,0.309-0.11,0.411c-0.093,0.104-0.27,0.113-0.371,0.201c-0.103,0.093-0.039,0.406-0.162,0.488
			c-0.119,0.077-0.203,0.257-0.337,0.324c-0.129,0.062-0.435-0.293-0.568-0.242c-0.136,0.047-0.252,0.083-0.394,0.104
			c-0.144,0.036-0.257,0.036-0.391,0.046c-0.149,0.011-0.242,0.011-0.381-0.005c-0.151-0.021-0.236-0.016-0.36-0.072
			c-0.134-0.057-0.213-0.082-0.316-0.175c-0.108-0.098-0.401-0.021-0.478-0.144c-0.07-0.124,0.087-0.345,0.043-0.483
			c-0.043-0.134-0.311-0.222-0.327-0.36c-0.023-0.139,0.263-0.299,0.263-0.442s0.054-0.257,0.074-0.391
			c0.018-0.134-0.401-0.34-0.375-0.474c0.028-0.123,0.375-0.185,0.414-0.313c0.031-0.129-0.242-0.35-0.198-0.479
			c0.041-0.123,0.352-0.159,0.401-0.282c0.049-0.124,0.172-0.217,0.221-0.34c0.046-0.123-0.118-0.334-0.064-0.458
			c0.051-0.123,0.435-0.092,0.494-0.216c0.051-0.118,0.031-0.277,0.09-0.391c0.054-0.113-0.054-0.442,0.108-0.504
			c0.124-0.052,0.371,0.216,0.514,0.17C22.675,28.896,22.739,28.525,22.862,28.474z M21.692,32.331
			c0.118,0.092-0.069,0.38,0.049,0.483c0.124,0.113,0.386,0.062,0.499,0.154c0.152,0.113,0.257,0.268,0.386,0.246
			c0.136-0.025,0.265-0.103,0.409-0.154c0.134-0.046,0.37,0.083,0.499,0.011c0.128-0.072,0.203-0.272,0.306-0.36
			c0.113-0.103,0.039-0.339,0.103-0.463c0.057-0.103,0.476-0.123,0.499-0.267c0.021-0.124-0.195-0.299-0.206-0.433
			c-0.005-0.128,0.092-0.288,0.064-0.422c-0.026-0.123-0.165-0.236-0.203-0.359c-0.043-0.134-0.098-0.258-0.149-0.37
			c-0.064-0.134-0.221-0.186-0.301-0.268c-0.108-0.113-0.183-0.433-0.296-0.438c-0.124-0.005-0.283,0.18-0.424,0.221
			c-0.128,0.036-0.337-0.015-0.45,0.047c-0.128,0.077-0.054,0.386-0.123,0.479c-0.075,0.118-0.031,0.277-0.09,0.411
			c-0.059,0.123-0.522,0.087-0.571,0.227c-0.041,0.128-0.095,0.267-0.139,0.411c-0.042,0.123-0.101,0.257-0.149,0.401
			C21.361,32.037,21.741,32.191,21.692,32.331z"/>
	</g>
</g>
</svg>
