<?xml version="1.0" encoding="utf-8"?>
<!-- Generator: Adobe Illustrator 16.0.0, SVG Export Plug-In . SVG Version: 6.00 Build 0)  -->
<!DOCTYPE svg PUBLIC "-//W3C//DTD SVG 1.1//EN" "http://www.w3.org/Graphics/SVG/1.1/DTD/svg11.dtd">
<svg version="1.1" id="圖層_1" xmlns="http://www.w3.org/2000/svg" xmlns:xlink="http://www.w3.org/1999/xlink" x="0px" y="0px"
	 width="55px" height="55px" viewBox="0 0 55 55" enable-background="new 0 0 55 55" xml:space="preserve">
<g>
	<path d="M45.766,24.216c0.083,0.071-0.012,0.302,0.071,0.385c0.077,0.077,0.284,0.036,0.36,0.118
		c0.077,0.077,0.313,0.006,0.396,0.089c0.071,0.077,0.023,0.284,0.106,0.367c0.083,0.071,0.118,0.201,0.201,0.272
		c0.077,0.083,0.308,0.018,0.385,0.095c0.077,0.077,0.089,0.23,0.166,0.308c0.076,0.083-0.018,0.343,0.053,0.42
		c0.083,0.077,0.408-0.083,0.491-0.006c0.077,0.083,0.077,0.243,0.16,0.319c0.082,0.077,0.225,0.095,0.308,0.178
		c0.076,0.071,0.142,0.177,0.219,0.26c0.077,0.077-0.029,0.343,0.053,0.42c0.077,0.077,0.119,0.207,0.195,0.284
		c0.077,0.083,0.172,0.148,0.249,0.23c0.076,0.083,0.242,0.077,0.319,0.16c0.077,0.082,0.23,0.101,0.308,0.171
		c0.077,0.083,0.083,0.243,0.159,0.32c0.083,0.082,0.148,0.171,0.226,0.254c0.082,0.083,0.118,0.207,0.189,0.29
		c0.082,0.077,0.177,0.142,0.26,0.225c0.071,0.077,0.296,0.023,0.379,0.101c0.077,0.077,0.236,0.083,0.319,0.16
		c0.071,0.082-0.047,0.366,0.029,0.449c0.077,0.083,0.373-0.059,0.456,0.023c0.083,0.077,0.023,0.296,0.106,0.373
		c0.071,0.077,0.035,0.284,0.106,0.367c0.083,0.076,0.343-0.03,0.426,0.053c0.077,0.083-0.023,0.344,0.06,0.42
		c0.076,0.077,0.296,0.036,0.372,0.112c-0.006,0.119,0.012,0.237,0.006,0.35s-0.059,0.225-0.059,0.337
		c-0.012,0.112-0.023,0.225-0.023,0.344c-0.013,0.106-0.089,0.219-0.095,0.331c-0.012,0.112-0.083,0.225-0.095,0.337
		c-0.006,0.112-0.06,0.219-0.071,0.337c-0.012,0.107,0.142,0.231,0.13,0.344c-0.006,0.118,0.024,0.225,0.024,0.343
		c-0.013,0.112-0.166,0.213-0.172,0.325c-0.006,0.113,0.272,0.243,0.266,0.361c-0.012,0.106-0.242,0.207-0.248,0.319
		c-0.012,0.112,0.154,0.236,0.147,0.35c-0.006,0.112-0.171,0.213-0.177,0.325s0.112,0.236,0.101,0.343
		c-0.006,0.118-0.189,0.213-0.189,0.331c-0.012,0.106,0.124,0.231,0.118,0.344c-0.012,0.118-0.106,0.219-0.106,0.331
		c-0.012,0.118,0.047,0.236,0.041,0.343c-0.006,0.113-0.225,0.214-0.23,0.32c-0.012,0.118,0.154,0.236,0.143,0.349
		c-0.007,0.112-0.131,0.219-0.137,0.331s0.189,0.237,0.184,0.35c-0.012,0.112-0.071,0.225-0.083,0.331
		c-0.012,0.112,0.201,0.236,0.189,0.349c-0.012,0.113-0.296,0.208-0.296,0.314c-0.012,0.118,0.189,0.236,0.189,0.354
		c-0.006,0.112-0.308,0.201-0.319,0.319c-0.012,0.112,0,0.225-0.012,0.344c-0.006,0.118-0.006,0.236-0.012,0.349
		c-0.013,0.118,0.236,0.242,0.225,0.361c-0.012,0.118-0.249,0.219-0.261,0.337c-0.006,0.118-0.059,0.23-0.07,0.343
		c0,0.118,0.07,0.237,0.059,0.355c0,0.112,0.272,0.248,0.261,0.36c-0.006,0.112-0.308,0.22-0.308,0.332
		c-0.012,0.118,0.271,0.248,0.271,0.36c-0.006,0.118-0.354,0.213-0.354,0.331c-0.012,0.119,0.142,0.243,0.136,0.361
		c-0.006,0.112,0.16,0.236,0.16,0.355c-0.006,0.124-0.189,0.23-0.213,0.331c-0.03,0.118-0.189,0.165-0.243,0.26
		c-0.053,0.106-0.006,0.249-0.089,0.332c-0.076,0.082-0.159,0.159-0.26,0.225c-0.101,0.053-0.267-0.083-0.385-0.042
		c-0.101,0.03-0.172,0.137-0.29,0.16s-0.165,0.354-0.272,0.379c-0.118,0.018-0.225,0.047-0.337,0.07
		c-0.112,0.024-0.302-0.331-0.408-0.308c-0.118,0.024-0.159,0.373-0.272,0.391c-0.112,0.023-0.219,0.077-0.331,0.106
		c-0.112,0.018-0.278-0.225-0.391-0.207c-0.118,0.018-0.225,0.03-0.343,0.048c-0.112,0.023-0.178,0.266-0.29,0.29
		c-0.112,0.023-0.242-0.06-0.36-0.042c-0.107,0.018-0.22,0.065-0.332,0.083c-0.106,0.018-0.225,0.006-0.343,0.035
		c-0.112,0.018-0.189,0.207-0.302,0.226c-0.112,0.023-0.278-0.22-0.385-0.195c-0.118,0.023-0.184,0.271-0.296,0.296
		c-0.106,0.023-0.236-0.024-0.343,0c-0.106,0.023-0.225,0.023-0.344,0.047c-0.112,0.018-0.201,0.142-0.308,0.166
		c-0.118,0.018-0.296-0.278-0.402-0.249c-0.118,0.018-0.207,0.13-0.319,0.154c-0.118,0.018-0.189,0.201-0.302,0.225
		c-0.112,0.018-0.248-0.083-0.36-0.06c-0.118,0.024-0.189,0.226-0.296,0.249s-0.219,0.07-0.331,0.095
		c-0.119,0.018-0.231,0-0.344,0.023c-0.118,0.023-0.248-0.048-0.354-0.023c-0.106,0.023-0.261-0.131-0.367-0.106
		c-0.112,0.023-0.166,0.319-0.272,0.343c-0.106,0.029-0.213,0.106-0.319,0.13c-0.106,0.024-0.277-0.213-0.391-0.189
		c-0.106,0.03-0.177,0.214-0.289,0.243c-0.113,0.029-0.22,0.047-0.332,0.077c-0.106,0.023-0.23-0.013-0.343,0.018
		c-0.112,0.029-0.184,0.184-0.302,0.207c-0.106,0.029-0.249-0.083-0.361-0.054c-0.112,0.024-0.225,0.012-0.337,0.042
		c-0.112,0.023-0.178,0.23-0.29,0.26c-0.112,0.024-0.23,0.012-0.337,0.042c-0.112,0.029-0.255-0.089-0.367-0.065
		c-0.106,0.023-0.236-0.047-0.349-0.018s-0.207,0.101-0.319,0.124c-0.112,0.029-0.207,0.095-0.326,0.118
		c-0.106,0.024-0.213,0.083-0.319,0.106c-0.106,0.03-0.177,0.267-0.284,0.284c-0.106,0.023-0.213,0.065-0.325,0.095
		c-0.112,0.023-0.242-0.06-0.349-0.029c-0.112,0.029-0.201,0.142-0.319,0.165c-0.106,0.019-0.226,0.013-0.338,0.03
		c-0.112,0.023-0.236-0.018-0.349,0c-0.106,0.023-0.267-0.226-0.379-0.201c-0.106,0.018-0.153,0.366-0.266,0.391
		c-0.113,0.023-0.29-0.284-0.402-0.261c-0.106,0.023-0.16,0.302-0.267,0.319c-0.112,0.029-0.255-0.095-0.367-0.071
		c-0.106,0.024-0.207,0.095-0.319,0.119c-0.106,0.018-0.195,0.248-0.308,0.26c-0.106,0.012-0.248-0.396-0.354-0.396
		c-0.118,0.006-0.219,0.124-0.332,0.118c-0.112-0.006-0.236,0.125-0.354,0.101c-0.106-0.023-0.236-0.023-0.343-0.059
		c-0.107-0.036-0.249-0.023-0.344-0.071c-0.106-0.047-0.059-0.349-0.159-0.414c-0.089-0.06-0.267,0-0.361-0.071
		c-0.06-0.059-0.083-0.177-0.153-0.225c-0.065-0.047-0.314,0.083-0.367,0.023c-0.083-0.076-0.012-0.302-0.083-0.384
		c-0.077-0.083,0.012-0.302-0.065-0.396c-0.076-0.083-0.384,0.029-0.455-0.06c-0.071-0.083-0.189-0.13-0.261-0.213
		c-0.076-0.095-0.13-0.189-0.207-0.272c-0.076-0.089,0.112-0.402,0.042-0.484c-0.077-0.083-0.332,0-0.414-0.083
		c-0.077-0.083-0.189-0.137-0.272-0.213c-0.083-0.071,0.012-0.355-0.071-0.427c-0.095-0.07-0.284-0.012-0.379-0.07
		c-0.101-0.06-0.266,0.018-0.367-0.036c-0.106-0.047-0.201-0.142-0.296-0.201c-0.101-0.064-0.142-0.213-0.23-0.283
		c-0.095-0.071-0.219-0.095-0.308-0.172c-0.088-0.077-0.041-0.29-0.124-0.373s-0.189-0.136-0.272-0.225
		c-0.071-0.083-0.201-0.13-0.272-0.213c-0.083-0.089-0.118-0.213-0.189-0.296c-0.071-0.089-0.208-0.13-0.284-0.219
		c-0.071-0.089-0.024-0.284-0.106-0.373c-0.077-0.083-0.308-0.035-0.379-0.118c-0.083-0.083-0.213-0.118-0.295-0.201
		c-0.083-0.071-0.13-0.189-0.225-0.267C24.118,43.527,24.1,43.361,24,43.302c-0.095-0.07-0.278-0.006-0.378-0.076
		c-0.095-0.071-0.184-0.148-0.278-0.22c-0.095-0.07-0.243-0.07-0.331-0.153c-0.095-0.071-0.119-0.225-0.213-0.308
		c-0.083-0.077-0.166-0.16-0.249-0.242c-0.094-0.083-0.059-0.284-0.142-0.367c-0.083-0.083-0.302-0.029-0.385-0.112
		s-0.201-0.137-0.284-0.225c-0.083-0.083-0.23-0.106-0.313-0.189c-0.083-0.083,0.071-0.367,0.006-0.45
		c-0.071-0.095-0.106-0.189-0.16-0.283c-0.065-0.102-0.177-0.154-0.225-0.249C21,40.32,21.029,40.202,21,40.096
		c-0.036-0.106-0.313-0.166-0.332-0.278c-0.012-0.101,0.267-0.23,0.267-0.349c0-0.113,0.023-0.207,0.041-0.326
		c0.012-0.101-0.284-0.266-0.266-0.378c0.024-0.112,0.391-0.16,0.408-0.267c0.012-0.112,0.047-0.225,0.059-0.343
		c0.012-0.106-0.213-0.237-0.201-0.35c0.012-0.112,0.083-0.219,0.083-0.325c0.006-0.106,0.059-0.225,0.059-0.331
		s-0.183-0.219-0.189-0.332c0-0.106,0.083-0.225,0.071-0.331c0-0.106-0.042-0.219-0.047-0.331c0-0.106-0.13-0.213-0.142-0.319
		c0-0.106,0.166-0.23,0.154-0.344c-0.012-0.106-0.095-0.213-0.101-0.319c-0.006-0.112,0.237-0.236,0.231-0.349
		c-0.012-0.106-0.053-0.219-0.059-0.325c0-0.106-0.208-0.213-0.213-0.32c0-0.112,0.06-0.225,0.06-0.331
		c-0.006-0.106,0.023-0.225,0-0.319c-0.024-0.101,0.059-0.225,0.035-0.319c-0.018-0.106-0.355-0.189-0.349-0.296
		c0.012-0.106,0.065-0.219,0.077-0.331s0.249-0.201,0.26-0.313s-0.272-0.261-0.26-0.373c0.012-0.118,0.118-0.213,0.13-0.331
		c0.012-0.106,0-0.226,0.012-0.344c0.012-0.112,0.189-0.201,0.201-0.319c0.012-0.106,0.142-0.207,0.16-0.319
		c0.012-0.112-0.125-0.242-0.112-0.355c0.012-0.118,0.177-0.207,0.195-0.319c0.012-0.118-0.219-0.26-0.207-0.372
		c0.012-0.112,0.272-0.195,0.29-0.302c0.012-0.118-0.243-0.261-0.23-0.373c0.012-0.124,0.023-0.254,0.041-0.385
		c0.024-0.13,0.148-0.236,0.148-0.36c0.006-0.136,0.142-0.296,0.101-0.409c-0.042-0.118-0.16-0.189-0.177-0.284
		c-0.03-0.125-0.101-0.237-0.089-0.332c0-0.124,0.083-0.225,0.13-0.319c0.047-0.106,0.13-0.166,0.219-0.243
		c0.077-0.065,0.053-0.343,0.16-0.396c0.089-0.047,0.355,0.26,0.461,0.213c0.095-0.035,0.178-0.106,0.296-0.142
		c0.106-0.03,0.13-0.313,0.237-0.343c0.106-0.036,0.272,0.13,0.378,0.095c0.106-0.03,0.237,0.012,0.343-0.024
		c0.106-0.035,0.177-0.189,0.278-0.213c0.101-0.036,0.16-0.225,0.267-0.254c0.106-0.036,0.225-0.018,0.331-0.053
		c0.106-0.029,0.184-0.154,0.284-0.189c0.106-0.035,0.331,0.29,0.438,0.254c0.101-0.035,0.119-0.337,0.225-0.373
		s0.236,0.03,0.343-0.006c0.106-0.036,0.166-0.207,0.272-0.243s0.296,0.195,0.402,0.16c0.106-0.035,0.201-0.101,0.308-0.13
		c0.101-0.036,0.201-0.101,0.302-0.136c0.101-0.03,0.213-0.053,0.319-0.089c0.101-0.029,0.166-0.207,0.266-0.243
		c0.106-0.029,0.178-0.195,0.284-0.225c0.101-0.036,0.319,0.308,0.426,0.272c0.106-0.035,0.142-0.295,0.248-0.331
		c0.106-0.03,0.261,0.118,0.367,0.089c0.106-0.03,0.213-0.071,0.319-0.101c0.106-0.024,0.189-0.136,0.296-0.166
		c0.106-0.023,0.153-0.302,0.26-0.331c0.106-0.024,0.29,0.213,0.402,0.189c0.106-0.03,0.237,0.053,0.35,0.029
		c0.112-0.029,0.184-0.195,0.296-0.219c0.112-0.024,0.213-0.065,0.325-0.095c0.106-0.024,0.213-0.089,0.325-0.106
		c0.106-0.03,0.243,0.083,0.355,0.059s0.183-0.213,0.296-0.243c0.112-0.018,0.225-0.029,0.337-0.053
		c0.106-0.023,0.266,0.178,0.373,0.16c0.112-0.023,0.194-0.171,0.308-0.195c0.106-0.018,0.195-0.154,0.308-0.172
		s0.219-0.029,0.337-0.047c0.106-0.023,0.213-0.089,0.319-0.106s0.272,0.237,0.385,0.219c0.112-0.023,0.207-0.101,0.325-0.118
		c0.106-0.023,0.178-0.243,0.296-0.266c0.106-0.018,0.242,0.089,0.354,0.065c0.107-0.012,0.249,0.106,0.355,0.089
		c0.106-0.018,0.166-0.326,0.284-0.343c0.106-0.018,0.242,0.083,0.349,0.059c0.112-0.018,0.267,0.136,0.373,0.119
		c0.118-0.018,0.236-0.053,0.343-0.077c0.118-0.023,0.137-0.426,0.243-0.461c0.112-0.023,0.325,0.26,0.432,0.225
		c0.106-0.035,0.172-0.213,0.272-0.26c0.106-0.047,0.112-0.266,0.213-0.319c0.101-0.059,0.242-0.018,0.343-0.083
		c0.083-0.065,0.236-0.059,0.319-0.142c0.083-0.071,0.296-0.042,0.379-0.13c0.071-0.083-0.095-0.355-0.035-0.461
		c0.064-0.089,0.012-0.225,0.064-0.332c0.048-0.101,0.201-0.142,0.243-0.254c0.035-0.101,0.106-0.195,0.142-0.313
		c0.023-0.101-0.071-0.284-0.035-0.378c0.047-0.095,0.165-0.225,0.236-0.296c0.071-0.071,0.337,0.112,0.438,0.071
		c0.095-0.035,0.148-0.095,0.267-0.083c0.095,0.006,0.23-0.125,0.349-0.083c0.106,0.047,0.166,0.201,0.261,0.207
		c0.118,0.012,0.213-0.077,0.296-0.101c0.095-0.036,0.201-0.059,0.272-0.136c0.064-0.065,0.23-0.088,0.283-0.183
		c0.054-0.083-0.088-0.284-0.035-0.379c0.06-0.101,0.13-0.189,0.178-0.284c0.059-0.106-0.023-0.272,0.035-0.373
		c0.048-0.101,0.396-0.047,0.45-0.148c0.053-0.1-0.137-0.337-0.083-0.438c0.059-0.095,0.414-0.036,0.467-0.13
		c0.06-0.095-0.124-0.331-0.064-0.426c0.059-0.106,0.271-0.106,0.331-0.201c0.06-0.101,0.018-0.26,0.083-0.355
		c0.059-0.095,0.278-0.083,0.343-0.178c0.071-0.088-0.012-0.284,0.06-0.378c0.07-0.089,0.236-0.095,0.313-0.178
		c0.077-0.094,0.077-0.236,0.147-0.319c0.083-0.083,0.143-0.189,0.213-0.272c0.083-0.083,0.195-0.13,0.284-0.201
		c0.083-0.077,0.048-0.313,0.143-0.379c0.089-0.071,0.396,0.16,0.497,0.095c0.088-0.065,0.165-0.142,0.26-0.201
		c0.095-0.053,0.018-0.402,0.118-0.461c0.095-0.059,0.284,0.036,0.379-0.029c0.095-0.06,0.095-0.267,0.184-0.332
		s0.331,0.083,0.432,0.018c0.089-0.065,0.172-0.142,0.261-0.207c0.095-0.065,0.118-0.23,0.207-0.302
		c0.089-0.059,0.171-0.154,0.26-0.213c0.089-0.065,0.219-0.071,0.319-0.136c0.095-0.065,0.207-0.101,0.302-0.16
		s0.172-0.142,0.272-0.201c0.101-0.059,0.272,0.024,0.367-0.023c0.076-0.042,0.142-0.237,0.26-0.213
		c0.095,0.012,0.106,0.308,0.213,0.343c0.089,0.036,0.178,0.036,0.272,0.083c0.089,0.047,0.254-0.047,0.337,0.006
		c0.089,0.065,0.154,0.148,0.226,0.207c0.088,0.083,0.124,0.213,0.207,0.308c0.082,0.083,0.195,0.142,0.271,0.237
		c0.077,0.095,0.201,0.154,0.272,0.249s0.083,0.249,0.142,0.343c0.071,0.106,0.237,0.142,0.308,0.242
		c0.065,0.101,0.184,0.166,0.249,0.267c0.064,0.095,0.029,0.249,0.077,0.331c0.053,0.106,0.23,0.16,0.254,0.26
		c0.029,0.106-0.142,0.26-0.13,0.367c0.012,0.101,0.083,0.213,0.064,0.319c-0.018,0.095-0.289,0.112-0.325,0.213
		c-0.041,0.095,0.178,0.308,0.118,0.402c-0.047,0.089-0.165,0.142-0.236,0.237c-0.06,0.083-0.308,0.047-0.367,0.136
		c-0.064,0.089,0.083,0.332,0.024,0.42c-0.071,0.095-0.118,0.189-0.178,0.284c-0.065,0.089-0.267,0.089-0.325,0.178
		c-0.065,0.095,0.13,0.355,0.064,0.45c-0.059,0.088-0.283,0.071-0.343,0.166c-0.06,0.089-0.302,0.071-0.367,0.16
		c-0.059,0.089,0.201,0.385,0.143,0.479c-0.065,0.095-0.444-0.012-0.503,0.077c-0.065,0.089-0.101,0.201-0.16,0.29
		c-0.059,0.095,0.095,0.325,0.042,0.42c-0.054,0.095-0.154,0.166-0.213,0.254c-0.065,0.095-0.172,0.154-0.237,0.249
		c-0.059,0.095-0.201,0.13-0.26,0.23c-0.065,0.095,0.018,0.272-0.042,0.373c-0.059,0.089-0.012,0.249-0.07,0.343
		c-0.06,0.088-0.29,0.077-0.35,0.171c-0.065,0.089,0,0.266-0.065,0.361c-0.059,0.089-0.118,0.178-0.177,0.272
		c-0.06,0.095-0.201,0.142-0.261,0.231c-0.064,0.089-0.142,0.171-0.201,0.266c-0.059,0.089-0.201,0.119-0.26,0.201
		c-0.071,0.083,0.07,0.332,0.006,0.414c-0.065,0.083-0.35-0.012-0.42,0.071c-0.071,0.071-0.178,0.118-0.243,0.201
		c-0.071,0.077,0.065,0.355-0.006,0.432c-0.071,0.077-0.077,0.219-0.147,0.296c-0.077,0.077-0.456-0.13-0.527-0.053
		C45.73,23.92,45.837,24.133,45.766,24.216z M32.022,48.946c0.136-0.018,0.277,0.189,0.384,0.166
		c0.137-0.012,0.237-0.207,0.344-0.226c0.13-0.012,0.207-0.248,0.325-0.271c0.112-0.023,0.254,0.13,0.367,0.106
		c0.112-0.023,0.23,0.006,0.337-0.012c0.112-0.024,0.178-0.261,0.29-0.278s0.242,0.053,0.349,0.029s0.272,0.201,0.379,0.178
		s0.147-0.385,0.26-0.408c0.107-0.018,0.237,0.065,0.35,0.041c0.112-0.023,0.201-0.142,0.313-0.165
		c0.106-0.018,0.225-0.012,0.331-0.036c0.106-0.023,0.272,0.207,0.385,0.189c0.112-0.023,0.23,0.012,0.337-0.012
		s0.22-0.059,0.332-0.077c0.106-0.023,0.189-0.159,0.302-0.183c0.112-0.024,0.201-0.137,0.313-0.166
		c0.106-0.018,0.236,0.065,0.343,0.041c0.106-0.018,0.225-0.029,0.331-0.053s0.231,0.023,0.344,0s0.213-0.06,0.331-0.083
		c0.112-0.023,0.189-0.242,0.296-0.261c0.112-0.023,0.201-0.153,0.308-0.177c0.118-0.024,0.284,0.236,0.391,0.219
		c0.118-0.023,0.165-0.35,0.284-0.367c0.106-0.018,0.26,0.148,0.366,0.124c0.112-0.023,0.261,0.131,0.367,0.107
		c0.118-0.024,0.178-0.302,0.284-0.32c0.118-0.023,0.271,0.201,0.384,0.178c0.113-0.018,0.189-0.225,0.302-0.248
		c0.113-0.024,0.22-0.071,0.332-0.095c0.112-0.024,0.23,0,0.343-0.024c0.118-0.018,0.225-0.035,0.337-0.059
		c0.113-0.023,0.231,0.023,0.35,0.012c0.112-0.018,0.236,0.023,0.343,0c0.118-0.023,0.237,0.006,0.35-0.012
		c0.112-0.023,0.195-0.201,0.302-0.213c0.118-0.023,0.213-0.083,0.331-0.106c0.112-0.023,0.248,0.106,0.36,0.083
		c0.113-0.024,0.172-0.32,0.278-0.344c0.118-0.023,0.272,0.178,0.379,0.16c0.118-0.023,0.195-0.207,0.308-0.23
		c0.118-0.024,0.254,0.112,0.367,0.094c0.112-0.023,0.201-0.165,0.313-0.188c0.112-0.024,0.254,0.13,0.366,0.106
		c0.112-0.024,0.195-0.178,0.313-0.201c0.106-0.024,0.237,0.041,0.35,0.023c0.112-0.023,0.213-0.106,0.325-0.13
		c0.106-0.019,0.261,0.171,0.367,0.153c0.118-0.023,0.195-0.213,0.308-0.23c0.118-0.018,0.248,0.077,0.354,0.059
		c0.118-0.023,0.189-0.242,0.308-0.266c0.106-0.018,0.23,0.023,0.344,0c0.118-0.012,0.188-0.249,0.296-0.267
		c0.118-0.018,0.283,0.225,0.378,0.195c0.112-0.035,0.118-0.272,0.201-0.319c0.106-0.054,0.379,0.106,0.444,0.029
		c0.064-0.077,0.147-0.225,0.183-0.325c0.042-0.095,0.077-0.236,0.095-0.343c0.019-0.101-0.225-0.231-0.225-0.344
		c0-0.101,0.236-0.219,0.225-0.331c-0.006-0.106,0.048-0.201,0.036-0.313c0-0.112-0.083-0.207-0.083-0.313s-0.284-0.219-0.272-0.319
		c0-0.112,0.296-0.207,0.302-0.319c0.006-0.107-0.284-0.226-0.278-0.332c0-0.106,0.355-0.201,0.355-0.302
		c0.012-0.112-0.142-0.219-0.13-0.331c0.006-0.112-0.166-0.23-0.154-0.331c0.006-0.101,0.172-0.201,0.178-0.313
		c0.012-0.106,0.153-0.201,0.166-0.313c0.006-0.113-0.119-0.231-0.107-0.338c0.013-0.106,0.007-0.213,0.013-0.325
		c0.012-0.112,0.213-0.201,0.219-0.313c0.006-0.106-0.06-0.219-0.054-0.325c0.012-0.112-0.29-0.243-0.284-0.355
		c0.013-0.112,0.013-0.219,0.024-0.325s0.402-0.189,0.414-0.296c0.006-0.106-0.319-0.248-0.313-0.354s-0.012-0.213-0.006-0.326
		c0.006-0.112,0.289-0.201,0.295-0.313c0.013-0.106,0.036-0.213,0.042-0.319c0.006-0.124-0.242-0.23-0.267-0.354
		c-0.029-0.125,0.048-0.272,0.018-0.391c-0.029-0.13-0.064-0.255-0.047-0.379c0.012-0.112,0.054-0.225,0.077-0.343
		c0.012-0.106-0.143-0.243-0.118-0.355c0.012-0.118,0.295-0.189,0.308-0.302c0.023-0.112-0.189-0.266-0.178-0.372
		c0.023-0.119,0.106-0.214,0.124-0.332c0.018-0.112,0.065-0.225,0.077-0.331c0.018-0.118-0.065-0.242-0.048-0.354
		c0.019-0.113,0.355-0.178,0.373-0.296c0.018-0.131-0.06-0.272-0.065-0.379c-0.006-0.136-0.188-0.219-0.242-0.308
		c-0.054-0.106-0.077-0.278-0.189-0.319c-0.089-0.036-0.236,0.124-0.373,0.118c-0.106,0-0.2,0.035-0.331,0.053
		c-0.112,0.019-0.23-0.012-0.337,0.006c-0.112,0.019-0.243-0.059-0.35-0.047c-0.106,0.023-0.248-0.142-0.36-0.13
		c-0.112,0.023-0.184,0.319-0.29,0.331c-0.112,0.012-0.213,0.083-0.331,0.106c-0.112,0.012-0.261-0.236-0.373-0.219
		s-0.201,0.201-0.313,0.219c-0.106,0.012-0.219,0.023-0.331,0.047c-0.112,0.013-0.231-0.023-0.344-0.012
		c-0.118,0.024-0.207,0.166-0.319,0.189c-0.106,0.012-0.236-0.106-0.354-0.089c-0.112,0.019-0.225-0.006-0.338,0.006
		c-0.112,0.024-0.195,0.22-0.313,0.237c-0.106,0.018-0.225,0-0.337,0.012c-0.112,0.023-0.242-0.112-0.355-0.095
		c-0.112,0.018-0.236-0.06-0.349-0.048c-0.118,0.019-0.219,0.083-0.331,0.101c-0.106,0.019-0.213,0.077-0.332,0.089
		c-0.106,0.024-0.213,0.071-0.331,0.083c-0.106,0.023-0.189,0.249-0.302,0.272c-0.112,0.012-0.219,0.047-0.331,0.059
		c-0.112,0.013-0.242-0.07-0.349-0.047c-0.113,0.012-0.207,0.13-0.32,0.142c-0.118,0.024-0.225,0-0.343,0.018
		c-0.112,0.019-0.225-0.029-0.343-0.018c-0.112,0.018-0.261-0.236-0.373-0.219s-0.172,0.367-0.29,0.385
		c-0.112,0.018-0.272-0.308-0.379-0.29c-0.118,0.018-0.188,0.284-0.296,0.302c-0.118,0.018-0.248-0.112-0.36-0.101
		c-0.112,0.018-0.213,0.089-0.325,0.106c-0.118,0.018-0.189,0.243-0.308,0.261c-0.112,0.018-0.284-0.379-0.396-0.361
		s-0.207,0.154-0.313,0.166c-0.119,0.023-0.201,0.184-0.319,0.201c-0.107,0.012-0.214,0.064-0.332,0.077
		c-0.106,0.018-0.213,0.094-0.325,0.112c-0.112,0.018-0.267-0.249-0.379-0.231c-0.112,0.019-0.195,0.184-0.313,0.201
		c-0.112,0.019-0.236-0.053-0.343-0.041c-0.118,0.023-0.189,0.296-0.302,0.308c-0.101,0.018-0.243-0.172-0.35-0.147
		c-0.106,0.018-0.248-0.166-0.354-0.148c-0.106,0.023-0.148,0.355-0.255,0.373c-0.101,0.023-0.195,0.112-0.302,0.136
		s-0.213,0.029-0.319,0.06c-0.101,0.023-0.284-0.29-0.391-0.261c-0.106,0.023-0.153,0.284-0.26,0.308s-0.201,0.089-0.308,0.118
		c-0.101,0.024-0.267-0.225-0.367-0.201c-0.106,0.024-0.178,0.213-0.284,0.237c-0.106,0.018-0.183,0.189-0.283,0.213
		c-0.125,0.018-0.226,0.012-0.332,0.047c-0.118,0.042-0.254-0.006-0.343,0.048c-0.106,0.064-0.154,0.177-0.225,0.271
		c-0.071,0.083-0.296,0.095-0.344,0.201c-0.047,0.101-0.047,0.249-0.07,0.367c-0.018,0.106,0.029,0.242,0.029,0.367
		c0,0.112-0.054,0.219-0.054,0.331s0.06,0.219,0.06,0.331c-0.006,0.118-0.166,0.219-0.172,0.331
		c-0.006,0.119,0.195,0.226,0.195,0.344c-0.006,0.112,0.06,0.225,0.054,0.331c-0.006,0.118-0.06,0.225-0.065,0.331
		c0,0.112-0.13,0.219-0.13,0.332c-0.006,0.118,0.147,0.225,0.142,0.343c0,0.112-0.012,0.225-0.012,0.331
		c0,0.118,0.083,0.23,0.083,0.338c0,0.112-0.106,0.219-0.106,0.331c-0.006,0.112-0.012,0.225-0.023,0.337
		c0,0.112-0.178,0.213-0.178,0.331c-0.006,0.112,0.189,0.226,0.178,0.344c0,0.106,0.047,0.219,0.047,0.325
		c0,0.112,0.095,0.225,0.095,0.337s-0.308,0.213-0.308,0.325c0,0.113-0.029,0.226-0.029,0.332c0,0.112,0.077,0.219,0.077,0.337
		c-0.013,0.106-0.077,0.225-0.077,0.331s0.26,0.226,0.26,0.332c0,0.112-0.283,0.225-0.29,0.331c0,0.106-0.023,0.225-0.023,0.331
		s0.313,0.225,0.313,0.331c0,0.113-0.349,0.22-0.349,0.332c0,0.13-0.012,0.271,0,0.391c0.006,0.13,0.248,0.236,0.26,0.354
		c0.013,0.13-0.047,0.255-0.041,0.379c0.006,0.13-0.041,0.242-0.053,0.366c-0.013,0.106,0.165,0.237,0.165,0.344
		c-0.012,0.112-0.106,0.213-0.118,0.325c-0.018,0.112,0.006,0.219-0.012,0.331c-0.012,0.106,0.101,0.231,0.083,0.344
		c-0.012,0.112-0.195,0.195-0.213,0.302c-0.013,0.112,0.059,0.23,0.035,0.343c-0.012,0.106-0.272,0.184-0.29,0.296
		C31.862,48.722,32.034,48.84,32.022,48.946z M23.183,26.997c-0.006,0.142-0.207,0.379-0.219,0.515
		c0.13,0.054,0.432,0.012,0.538,0.095c0.089,0.071,0.313-0.035,0.396,0.036c0.089,0.065,0.071,0.278,0.16,0.343
		c0.089,0.071,0.142,0.183,0.231,0.249c0.083,0.071,0.308-0.029,0.39,0.041c0.089,0.071,0.119,0.213,0.201,0.284
		c0.095,0.071,0.024,0.331,0.119,0.402s0.39-0.142,0.479-0.071c0.089,0.071,0.106,0.219,0.195,0.29
		c0.095,0.065,0.237,0.06,0.325,0.13c0.089,0.071,0.16,0.16,0.249,0.226c0.089,0.07,0.018,0.349,0.106,0.408
		c0.089,0.07,0.136,0.189,0.225,0.254c0.089,0.071,0.184,0.124,0.278,0.195c0.089,0.06,0.249,0.042,0.332,0.106
		c0.089,0.071,0.237,0.065,0.319,0.137c0.095,0.064,0.112,0.219,0.201,0.289c0.083,0.071,0.166,0.148,0.26,0.22
		c0.083,0.07,0.13,0.194,0.219,0.254c0.089,0.071,0.184,0.118,0.278,0.189c0.082,0.071,0.302-0.023,0.39,0.047
		c0.083,0.071,0.243,0.054,0.332,0.125c0.082,0.064-0.006,0.36,0.082,0.432c0.083,0.071,0.367-0.101,0.45-0.035
		c0.089,0.07,0.059,0.289,0.142,0.36c0.083,0.065,0.06,0.278,0.143,0.35c0.095,0.07,0.343-0.065,0.432,0.012
		c0.089,0.064,0.012,0.337,0.095,0.402c0.089,0.07,0.29,0,0.379,0.07c0.088,0.071,0.195,0.118,0.277,0.189
		c0.095,0.077,0.16,0.189,0.249,0.249c0.101,0.07,0.201,0.142,0.296,0.201c0.106,0.059,0.184,0.177,0.296,0.225
		c0.112,0.047,0.213,0.153,0.331,0.178c0.106,0.035,0.242,0.106,0.367,0.118c0.106,0.012,0.248-0.131,0.372-0.143
		c0.112,0,0.23-0.053,0.35-0.07c0.118-0.019,0.26,0.106,0.384,0.082c0.113-0.023,0.154-0.325,0.255-0.354
		c0.106-0.023,0.272,0.178,0.373,0.153c0.112-0.023,0.183-0.213,0.289-0.236c0.107-0.018,0.249,0.112,0.355,0.089
		c0.106-0.018,0.189-0.172,0.296-0.189c0.106-0.023,0.254,0.124,0.354,0.101c0.112-0.018,0.189-0.178,0.302-0.201
		c0.106-0.023,0.231,0.036,0.338,0.018c0.106-0.023,0.207-0.112,0.313-0.124c0.112-0.023,0.254,0.166,0.366,0.143
		c0.113-0.019,0.184-0.208,0.29-0.226c0.112-0.023,0.243,0.083,0.344,0.06c0.112-0.023,0.183-0.236,0.289-0.261
		c0.113-0.023,0.231,0.024,0.338,0c0.106-0.023,0.184-0.248,0.284-0.271c0.112-0.013,0.271,0.242,0.378,0.225
		c0.106-0.012,0.184-0.243,0.29-0.261c0.112-0.023,0.267,0.255,0.373,0.237c0.112-0.019,0.225-0.048,0.331-0.065
		s0.213-0.041,0.325-0.06c0.112-0.018,0.178-0.277,0.29-0.296c0.106-0.018,0.255,0.201,0.367,0.184c0.106-0.018,0.225,0.018,0.331,0
		s0.201-0.106,0.319-0.13c0.106-0.012,0.178-0.308,0.284-0.331c0.106-0.012,0.261,0.26,0.373,0.242s0.171-0.319,0.284-0.337
		c0.112-0.018,0.266,0.296,0.378,0.284c0.112-0.024,0.195-0.189,0.302-0.207c0.112-0.019,0.195-0.207,0.308-0.22
		c0.106-0.023,0.237,0.125,0.35,0.106c0.112-0.018,0.242,0.106,0.349,0.083c0.106-0.012,0.201-0.153,0.308-0.177
		c0.106-0.013,0.219-0.042,0.331-0.06c0.106-0.018,0.249,0.153,0.355,0.142c0.106-0.018,0.207-0.118,0.319-0.13
		c0.106-0.012,0.172-0.343,0.284-0.354c0.106-0.019,0.213-0.036,0.319-0.054c0.112-0.018,0.278,0.349,0.391,0.331
		c0.106-0.018,0.166-0.366,0.272-0.385c0.112-0.012,0.213-0.064,0.325-0.076s0.26,0.242,0.372,0.23
		c0.106-0.023,0.22-0.018,0.332-0.035c0.106-0.019,0.189-0.261,0.296-0.278s0.236,0.077,0.343,0.065
		c0.106-0.024,0.213-0.054,0.325-0.071c0.112-0.012,0.23,0,0.338-0.012c0.106-0.018,0.194-0.195,0.308-0.207
		c0.106-0.018,0.254,0.23,0.366,0.219c0.106-0.023,0.178-0.261,0.284-0.278c0.101-0.012,0.213,0.042,0.325,0.029
		c0.101-0.012,0.207,0,0.319-0.012c0.101-0.012,0.195-0.118,0.302-0.13c0.106-0.018,0.414,0.172,0.521,0.154
		c-0.064-0.083-0.225-0.32-0.283-0.415c-0.071-0.082-0.267-0.07-0.332-0.165c-0.064-0.083-0.023-0.249-0.095-0.338
		c-0.059-0.088-0.271-0.064-0.337-0.159c-0.065-0.083-0.147-0.154-0.213-0.236c-0.065-0.095-0.095-0.201-0.166-0.284
		c-0.064-0.089-0.064-0.237-0.136-0.313c-0.077-0.077-0.023-0.29-0.095-0.361c-0.083-0.083-0.354,0.048-0.438-0.023
		s-0.189-0.083-0.284-0.154c-0.089-0.059-0.035-0.343-0.13-0.396c-0.095-0.053-0.272,0.042-0.373,0
		c-0.095-0.041-0.195-0.082-0.302-0.118c-0.083-0.029-0.13-0.147-0.201-0.23c-0.065-0.083-0.225-0.083-0.29-0.153
		c-0.077-0.083-0.041-0.261-0.124-0.344c-0.071-0.083-0.118-0.195-0.189-0.278c-0.077-0.083-0.29-0.042-0.366-0.125
		c-0.083-0.083-0.125-0.195-0.201-0.278c-0.071-0.083-0.036-0.266-0.106-0.349c-0.077-0.083-0.083-0.231-0.154-0.308
		c-0.077-0.083-0.189-0.142-0.272-0.225c-0.07-0.083-0.177-0.13-0.26-0.219c-0.071-0.083-0.178-0.148-0.249-0.219
		c-0.076-0.083-0.319-0.024-0.391-0.101c-0.047-0.053-0.064-0.018-0.177-0.047c-0.131-0.03-0.131-0.171-0.154-0.136
		c-0.059,0.095-0.047,0.254-0.118,0.349c-0.06,0.101-0.166,0.172-0.236,0.266c-0.065,0.095-0.184,0.154-0.255,0.249
		c-0.064,0.095-0.36,0.024-0.432,0.119c-0.071,0.094,0.142,0.378,0.083,0.479c-0.071,0.101-0.42,0.018-0.479,0.118
		s0.112,0.326,0.065,0.432c-0.048,0.106-0.226,0.166-0.255,0.278c-0.029,0.113,0,0.243-0.006,0.361
		c-0.012,0.13,0.201,0.26,0.189,0.36c-0.006,0.131-0.426,0.219-0.432,0.326c-0.006,0.13,0.101,0.248,0.089,0.354
		c-0.024,0.136,0.082,0.284,0.035,0.379c-0.048,0.101-0.13,0.23-0.242,0.302c-0.083,0.053-0.195,0.165-0.326,0.207
		c-0.095,0.023-0.283-0.213-0.414-0.189c-0.101,0.023-0.184,0.195-0.308,0.213c-0.112,0.023-0.236-0.047-0.343-0.023
		c-0.112,0.012-0.178,0.29-0.284,0.308c-0.112,0.023-0.261-0.166-0.367-0.143c-0.106,0.019-0.248-0.165-0.36-0.153
		c-0.106,0.023-0.172,0.343-0.278,0.366c-0.106,0.013-0.213,0.095-0.319,0.119c-0.106,0.012-0.219,0.012-0.331,0.029
		c-0.106,0.018-0.272-0.308-0.379-0.29c-0.112,0.018-0.189,0.272-0.296,0.284c-0.106,0.023-0.213,0.077-0.319,0.095
		s-0.261-0.237-0.373-0.225c-0.112,0.012-0.195,0.195-0.302,0.207c-0.112,0.018-0.201,0.183-0.308,0.195
		c-0.112,0.012-0.23,0-0.343,0.012c-0.106,0.012-0.23-0.071-0.344-0.054c-0.106,0.012-0.213,0.089-0.319,0.101
		c-0.112,0.012-0.248-0.159-0.354-0.153c-0.118,0.012-0.225,0.059-0.331,0.064c-0.119,0.006-0.22,0.077-0.332,0.077
		c-0.118,0-0.225-0.047-0.337-0.047s-0.23,0.059-0.337,0.059c-0.112-0.006-0.214-0.172-0.326-0.178
		c-0.112-0.012-0.242,0.178-0.349,0.166c-0.106-0.006-0.261,0.006-0.391-0.06c-0.106-0.053-0.201-0.171-0.302-0.236
		c-0.153-0.112-0.147-0.201-0.136-0.254c0.023-0.113-0.083-0.267-0.036-0.367c0.048-0.106,0.101-0.207,0.166-0.302
		c0.06-0.101,0.048-0.261,0.118-0.343c0.071-0.095,0.225-0.119,0.302-0.201c0.065-0.083,0.184-0.143,0.29-0.189
		c0.106-0.048,0.29,0.059,0.391,0.012c0.112-0.054,0.101-0.267,0.147-0.355c0.054-0.106,0.06-0.23,0.112-0.331
		c0.054-0.095,0.013-0.248,0.065-0.355c0.054-0.095,0.373-0.065,0.42-0.166c0.048-0.101,0.124-0.189,0.178-0.296
		c0.054-0.095,0.029-0.236,0.077-0.343c0.053-0.094,0.159-0.171,0.219-0.278c0.047-0.101-0.142-0.319-0.095-0.42
		c0.06-0.101,0.354-0.083,0.408-0.184c0.048-0.106,0.118-0.195,0.172-0.302c0.047-0.106-0.184-0.343-0.137-0.444
		c0.048-0.101,0.421-0.053,0.468-0.16c0.047-0.095,0.112-0.189,0.166-0.296c0.047-0.106-0.106-0.308-0.054-0.408
		c0.048-0.101,0.16-0.171,0.207-0.278c0.048-0.106,0.148-0.184,0.201-0.284c0.048-0.106-0.071-0.29-0.023-0.396
		c0.047-0.101,0.172-0.171,0.225-0.272c0.054-0.106,0.077-0.171,0.13-0.278c-0.136,0.012-0.213,0.166-0.331,0.177
		c-0.13,0.018-0.272-0.142-0.391-0.13c-0.13,0.012-0.236,0.106-0.366,0.124c-0.119,0.018-0.296-0.201-0.42-0.171
		c-0.107,0.029-0.208,0.088-0.314,0.118c-0.106,0.023-0.165,0.243-0.271,0.272c-0.106,0.024-0.231-0.012-0.344,0.018
		c-0.106,0.023-0.225,0.006-0.331,0.029c-0.106,0.03-0.248-0.053-0.354-0.023c-0.106,0.023-0.137,0.378-0.243,0.402
		c-0.112,0.023-0.23,0.018-0.331,0.047c-0.112,0.023-0.272-0.166-0.379-0.142c-0.112,0.023-0.142,0.355-0.248,0.378
		c-0.112,0.024-0.243-0.029-0.35-0.006c-0.106,0.03-0.201,0.083-0.313,0.112c-0.112,0.03-0.254-0.095-0.36-0.071
		c-0.106,0.03-0.249-0.053-0.355-0.024c-0.106,0.024-0.178,0.201-0.284,0.225c-0.112,0.03-0.254-0.083-0.366-0.059
		c-0.106,0.023-0.154,0.302-0.261,0.331c-0.106,0.024-0.278-0.189-0.391-0.16c-0.106,0.024-0.142,0.313-0.254,0.349
		c-0.106,0.03-0.213,0.071-0.313,0.095c-0.112,0.029-0.249-0.047-0.355-0.024c-0.106,0.024-0.254-0.094-0.366-0.071
		c-0.106,0.03-0.189,0.148-0.296,0.171c-0.106,0.03-0.201,0.119-0.308,0.148c-0.106,0.024-0.226,0-0.332,0.024
		c-0.112,0.029-0.225,0.036-0.331,0.059s-0.153,0.296-0.26,0.331c-0.113,0.024-0.32-0.319-0.42-0.29
		c-0.106,0.029-0.207,0.101-0.313,0.124c-0.106,0.024-0.148,0.308-0.26,0.337c-0.107,0.029-0.272-0.148-0.373-0.118
		c-0.112,0.029-0.236-0.018-0.343,0.006c-0.112,0.035-0.183,0.177-0.29,0.207c-0.112,0.029-0.178,0.207-0.284,0.243
		c-0.112,0.029-0.237,0-0.337,0.029c-0.112,0.03-0.195,0.148-0.301,0.184c-0.119,0.035-0.355-0.272-0.462-0.237
		c-0.112,0.036-0.118,0.349-0.236,0.391c-0.106,0.047-0.254,0-0.367,0.047c-0.107,0.047-0.154,0.225-0.261,0.272
		c-0.112,0.053-0.331-0.154-0.438-0.112C23.319,26.76,23.29,26.961,23.183,26.997z M31.259,48.763
		c0.006-0.112,0.219-0.201,0.225-0.313c0-0.112-0.171-0.23-0.171-0.343c0.006-0.118-0.207-0.237-0.207-0.344
		c0.006-0.118,0.183-0.225,0.188-0.337c0-0.112,0.06-0.219,0.065-0.337c0.006-0.112-0.207-0.231-0.201-0.344
		s0.106-0.225,0.112-0.331c0-0.118,0.261-0.225,0.261-0.331c0-0.118-0.344-0.237-0.344-0.355c0.006-0.112,0.119-0.219,0.119-0.331
		c0.006-0.118-0.083-0.225-0.083-0.343c0.006-0.112,0.035-0.226,0.041-0.332c0.006-0.118,0.267-0.225,0.267-0.331
		c0.006-0.118,0.07-0.225,0.07-0.337c0.006-0.112-0.012-0.23,0-0.338c0-0.118-0.112-0.23-0.112-0.343
		c0.006-0.112-0.089-0.225-0.089-0.343c0.007-0.106,0.119-0.219,0.119-0.332c0.006-0.118,0.018-0.225,0.023-0.337
		c0-0.112,0.071-0.219,0.071-0.337c0.006-0.106-0.013-0.225-0.013-0.338c0.006-0.112-0.194-0.23-0.188-0.337
		c0-0.118-0.106-0.225-0.106-0.343c0.006-0.112,0.295-0.213,0.295-0.331c0-0.113-0.308-0.231-0.295-0.344
		c0-0.112,0.188-0.225,0.188-0.331c0.006-0.112,0.178-0.225,0.189-0.331c0-0.113-0.266-0.226-0.26-0.344
		c0-0.106,0.26-0.213,0.26-0.331c0-0.106-0.189-0.225-0.184-0.337c0-0.113-0.023-0.22-0.018-0.338c0-0.106,0.048-0.219,0.048-0.331
		c0-0.118,0-0.225,0-0.337s0.076-0.219,0.076-0.338c0-0.106,0.065-0.219,0.065-0.331c0-0.118,0.054-0.236,0.054-0.343
		c0-0.118-0.16-0.225-0.166-0.344c-0.006-0.112-0.06-0.225-0.077-0.343c-0.012-0.106,0.118-0.261,0.089-0.367
		c-0.029-0.112-0.331-0.136-0.373-0.236c-0.047-0.106,0.113-0.308,0.048-0.408c-0.06-0.095-0.261-0.077-0.343-0.16
		c-0.077-0.082-0.06-0.271-0.16-0.343c-0.089-0.06-0.255,0-0.361-0.047c-0.101-0.048-0.153-0.249-0.266-0.284
		c-0.089-0.023-0.213,0.023-0.29-0.06c-0.06-0.083-0.071-0.23-0.13-0.308c-0.083-0.083-0.213-0.124-0.296-0.213
		s-0.006-0.319-0.089-0.414c-0.083-0.083-0.29-0.06-0.373-0.147c-0.083-0.089-0.077-0.267-0.165-0.35
		c-0.083-0.083-0.314-0.023-0.402-0.106c-0.083-0.083-0.137-0.201-0.226-0.284c-0.088-0.07-0.319,0.023-0.402-0.047
		c-0.095-0.077,0-0.367-0.095-0.438c-0.089-0.07-0.308,0.024-0.402-0.053c-0.089-0.077,0.012-0.379-0.083-0.45
		c-0.088-0.076-0.183-0.136-0.272-0.207c-0.095-0.07-0.189-0.142-0.278-0.213c-0.089-0.076-0.337,0.048-0.426-0.018
		c-0.089-0.071-0.036-0.325-0.124-0.402c-0.095-0.064-0.154-0.184-0.249-0.254c-0.089-0.071-0.231-0.077-0.319-0.154
		c-0.095-0.071-0.355,0.083-0.45,0.018c-0.089-0.07,0-0.372-0.095-0.443c-0.089-0.071-0.355,0.089-0.45,0.023
		c-0.095-0.07,0.023-0.414-0.071-0.485c-0.095-0.07-0.278-0.012-0.367-0.082c-0.095-0.071-0.29,0-0.378-0.06
		c-0.077-0.06-0.077-0.242-0.178-0.296c-0.088-0.047-0.142-0.225-0.236-0.248c-0.106-0.036-0.254,0.059-0.355,0.047
		c-0.119-0.012-0.225,0.012-0.308,0.048c-0.083,0.041-0.32,0-0.391,0.088c-0.059,0.077-0.071,0.243-0.118,0.338
		c-0.047,0.095,0.207,0.308,0.171,0.414s-0.047,0.184-0.065,0.284c-0.024,0.106-0.414,0.177-0.426,0.29
		c-0.012,0.112,0.32,0.254,0.308,0.372c0,0.106,0.03,0.219,0.03,0.338c0,0.112-0.278,0.23-0.278,0.349
		c0.012,0.112-0.006,0.23,0,0.343c0,0.119,0.237,0.226,0.243,0.344c0.006,0.106-0.101,0.23-0.101,0.343
		c0,0.118,0.012,0.236,0.012,0.35c0,0.112-0.035,0.23-0.047,0.349c-0.006,0.106,0.142,0.248,0.13,0.354
		c-0.012,0.119-0.296,0.189-0.319,0.309c-0.018,0.112,0.195,0.26,0.177,0.378c-0.018,0.106-0.101,0.213-0.112,0.319
		c-0.012,0.119-0.047,0.226-0.065,0.344c-0.006,0.106,0.083,0.225,0.077,0.343s-0.337,0.213-0.343,0.319
		c-0.006,0.119,0.077,0.237,0.077,0.355c-0.006,0.106,0.154,0.225,0.154,0.343c0,0.112-0.13,0.225-0.13,0.338
		c0,0.112,0.189,0.23,0.189,0.337c0.006,0.118,0.036,0.23,0.036,0.343s-0.042,0.225-0.036,0.344c0,0.106-0.088,0.225-0.083,0.343
		c0,0.112-0.178,0.236-0.166,0.343c0,0.119,0.29,0.213,0.296,0.332c0,0.112,0.065,0.225,0.071,0.337
		c0,0.112-0.261,0.242-0.254,0.354c0.006,0.113,0.177,0.22,0.183,0.338c0,0.112,0,0.225,0.006,0.337
		c0.006,0.095-0.041,0.207-0.018,0.313c0.012,0.095,0.171,0.154,0.201,0.255c0.036,0.095-0.059,0.242-0.018,0.331
		c0.041,0.095,0.065,0.207,0.124,0.29c0.059,0.089,0.26,0.035,0.332,0.106c0.083,0.071,0.148,0.178,0.23,0.248
		c0.083,0.077,0.065,0.261,0.148,0.338c0.083,0.076,0.106,0.219,0.189,0.296c0.083,0.076,0.201,0.112,0.29,0.188
		c0.083,0.077,0.195,0.119,0.278,0.195c0.083,0.071,0.195,0.119,0.278,0.195c0.083,0.077,0.314-0.012,0.396,0.065
		c0.083,0.071,0.178,0.136,0.26,0.213c0.083,0.071,0.101,0.219,0.189,0.296c0.083,0.077,0.237,0.077,0.319,0.153
		c0.083,0.071,0.148,0.172,0.225,0.249c0.083,0.071,0.13,0.189,0.219,0.267c0.083,0.076-0.018,0.36,0.065,0.432
		c0.083,0.07,0.396-0.106,0.485-0.029c0.083,0.076-0.059,0.408,0.024,0.479c0.083,0.071,0.343-0.047,0.426,0.03
		c0.083,0.076,0.065,0.26,0.154,0.337c0.083,0.071,0.201,0.106,0.296,0.178c0.083,0.076,0.308-0.013,0.39,0.07
		c0.083,0.071-0.106,0.462-0.012,0.533c0.083,0.07,0.249,0.059,0.332,0.13c0.083,0.077,0.266,0.041,0.349,0.118
		c0.083,0.071,0.195,0.124,0.278,0.201c0.082,0.071,0.201,0.095,0.295,0.172c0.083,0.076-0.023,0.36,0.06,0.432
		c0.083,0.077,0.272,0.035,0.361,0.112c0.082,0.077,0.112,0.219,0.195,0.29c0.082,0.071,0.343-0.042,0.426,0.035
		c0.089,0.071,0.035,0.302,0.124,0.379c0.083,0.071,0.029,0.302,0.112,0.379c0.095,0.07,0.379-0.083,0.462-0.012
		c0.095,0.07,0.219,0.101,0.308,0.177c0.082,0.071,0.159,0.154,0.242,0.237c0.083,0.076-0.06,0.414,0.023,0.484
		C30.957,48.78,31.176,48.686,31.259,48.763z M40.932,20.146c-0.088,0.095-0.302,0.006-0.372,0.071
		c-0.095,0.095-0.048,0.296-0.118,0.355c-0.089,0.095,0.023,0.278-0.013,0.367c-0.059,0.095-0.266,0.118-0.319,0.213
		c-0.047,0.095-0.153,0.171-0.201,0.272c-0.053,0.095,0.083,0.296,0.03,0.391c-0.054,0.106-0.195,0.154-0.243,0.254
		c-0.053,0.101-0.331,0.077-0.379,0.184c-0.053,0.095,0.201,0.355,0.154,0.461c-0.06,0.095-0.201,0.142-0.261,0.249
		c-0.047,0.095-0.018,0.236-0.07,0.337c-0.048,0.101-0.131,0.184-0.184,0.278c-0.054,0.106-0.337,0.083-0.385,0.184
		c-0.053,0.101-0.159,0.171-0.213,0.266c-0.047,0.106-0.089,0.207-0.142,0.308c-0.054,0.101,0,0.249-0.054,0.355
		c-0.053,0.095-0.018,0.243-0.077,0.343c-0.047,0.101-0.195,0.148-0.248,0.249c-0.054,0.101-0.118,0.189-0.172,0.29
		c-0.053,0.101-0.159,0.172-0.213,0.272c-0.053,0.101-0.083,0.207-0.136,0.308c-0.048,0.101,0.077,0.29,0.023,0.396
		c-0.054,0.095,0,0.249-0.06,0.343c-0.047,0.101-0.354,0.071-0.408,0.172c-0.053,0.101,0.172,0.337,0.119,0.443
		c-0.054,0.095-0.267,0.106-0.326,0.213c-0.047,0.094-0.254,0.118-0.308,0.219c-0.047,0.101,0.131,0.319,0.083,0.42
		c-0.047,0.095-0.325,0.083-0.379,0.189c-0.059,0.112,0.071,0.296,0.048,0.391c-0.035,0.136-0.006,0.225,0.023,0.308
		c0.035,0.106,0.071,0.189,0.201,0.23c0.083,0.029,0.201,0.042,0.331,0.035c0.101-0.006,0.226,0.054,0.355,0.024
		c0.106-0.018,0.236,0.018,0.343-0.018c0.112-0.03,0.237-0.007,0.344-0.042c0.112-0.029,0.177-0.213,0.283-0.242
		c0.106-0.036,0.201-0.106,0.314-0.131c0.106-0.035,0.242,0.089,0.354,0.071c0.112-0.023,0.189-0.319,0.296-0.325
		c0.112-0.006,0.23,0.219,0.337,0.225c0.118,0.006,0.237-0.147,0.344-0.147c0.112,0.006,0.225,0.165,0.331,0.153
		c0.112,0,0.219-0.136,0.319-0.142c0.118-0.012,0.249,0.142,0.361,0.124s0.195-0.184,0.296-0.207
		c0.112-0.035,0.242,0.012,0.343-0.023c0.106-0.036,0.184-0.148,0.278-0.195c0.101-0.054,0.308,0.077,0.408,0.018
		c0.089-0.06,0.095-0.272,0.183-0.343c0.083-0.071,0.255-0.054,0.332-0.131c0.083-0.076,0.012-0.307,0.083-0.39
		c0.07-0.083,0.177-0.13,0.248-0.225c0.06-0.083-0.054-0.29,0.006-0.385c0.054-0.089,0.355-0.047,0.408-0.148
		c0.054-0.106-0.077-0.308-0.023-0.414c0.059-0.106,0.373-0.071,0.432-0.178c0.054-0.101,0.101-0.213,0.16-0.319
		c0.059-0.101,0.112-0.201,0.171-0.308c0.054-0.106-0.106-0.332-0.053-0.432c0.059-0.107,0.325-0.101,0.379-0.208
		c0.059-0.106,0.153-0.189,0.213-0.295c0.047-0.107,0.035-0.249,0.089-0.355c0.047-0.101-0.184-0.308-0.172-0.45
		c0.018-0.166,0.254-0.402,0.184-0.461c-0.065-0.053-0.326,0.106-0.414,0.047c-0.077-0.06,0.023-0.396-0.06-0.45
		c-0.089-0.059-0.267,0.029-0.349,0c-0.125-0.053-0.154,0.083-0.22,0.118c-0.112,0.071-0.289-0.023-0.378,0.012
		c-0.125,0.042-0.195-0.095-0.29-0.112c-0.106-0.03-0.213,0.042-0.284-0.042c-0.071-0.083-0.13-0.166-0.189-0.272
		c-0.047-0.089,0.065-0.284,0.012-0.379c-0.07-0.118-0.271-0.201-0.372-0.302c-0.101-0.088-0.433,0.042-0.527-0.065
		c-0.07-0.077-0.142-0.154-0.213-0.237c-0.064-0.083,0.178-0.402,0.112-0.485c-0.064-0.089-0.408-0.012-0.449-0.106
		c-0.047-0.106-0.118-0.266-0.136-0.408c-0.012-0.112,0.248-0.272,0.236-0.42C41.068,20.388,40.95,20.288,40.932,20.146z
		 M44.849,21.92c0.089,0.053,0.213,0.308,0.302,0.361c0.06-0.095,0.083-0.373,0.142-0.467c0.06-0.095-0.064-0.308-0.006-0.402
		c0.065-0.095,0.272-0.095,0.326-0.189c0.059-0.095,0.165-0.166,0.225-0.261c0.064-0.095-0.06-0.302,0-0.396
		c0.064-0.095,0.213-0.136,0.266-0.231c0.06-0.101,0.332-0.059,0.391-0.154c0.065-0.095-0.178-0.378-0.118-0.473
		c0.065-0.095,0.236-0.154,0.302-0.249c0.106,0.023,0.355,0.012,0.474,0.035c-0.012,0.107-0.024,0.314-0.036,0.415
		c-0.006,0.106-0.271,0.189-0.29,0.29c-0.006,0.106-0.076,0.201-0.088,0.314c-0.012,0.094-0.012,0.207-0.024,0.308
		c-0.006,0.106,0.101,0.225,0.083,0.331c-0.006,0.095,0.077,0.213,0.065,0.319c-0.006,0.101-0.054,0.296-0.065,0.402
		c0.06-0.101,0.225-0.236,0.278-0.331c0.065-0.101,0.184-0.166,0.242-0.26c0.06-0.101,0.101-0.213,0.166-0.308
		c0.06-0.107-0.047-0.308,0.012-0.402c0.06-0.101,0.023-0.26,0.083-0.355c0.065-0.101,0.367-0.047,0.426-0.154
		c0.065-0.095-0.142-0.355-0.083-0.45c0.06-0.101,0.278-0.106,0.332-0.207c0.059-0.101,0.271-0.125,0.325-0.231
		c0.053-0.106-0.131-0.325-0.077-0.438c0.047-0.1,0.331-0.1,0.379-0.207c0.059-0.101-0.065-0.295-0.012-0.396
		c0.047-0.107,0.082-0.225,0.142-0.332c0.054-0.106,0.154-0.184,0.213-0.284c0.065-0.094,0.136-0.195,0.213-0.29
		c0.071-0.095,0.201-0.136,0.284-0.231c0.071-0.095,0.201-0.142,0.278-0.236c0.077-0.095,0.201-0.16,0.277-0.249
		c0.071-0.095,0.024-0.296,0.083-0.396c0.06-0.101,0.083-0.231,0.125-0.337c0.041-0.101,0.207-0.236,0.207-0.373
		c0-0.125-0.296-0.219-0.326-0.343c-0.029-0.124,0.148-0.319,0.095-0.426c-0.059-0.125-0.266-0.142-0.343-0.207
		c-0.077-0.071-0.065-0.272-0.166-0.343c-0.089-0.071-0.254-0.03-0.36-0.095c-0.095-0.065-0.106-0.272-0.201-0.332
		c-0.106-0.059-0.272,0.012-0.379-0.023c-0.112-0.047-0.213-0.166-0.308-0.189c-0.13-0.018-0.261,0.047-0.349,0.089
		c-0.107,0.053-0.302-0.101-0.402-0.053s-0.137,0.254-0.231,0.308c-0.106,0.053-0.266,0-0.366,0.053
		c-0.095,0.053-0.095,0.29-0.201,0.343c-0.095,0.053-0.225,0.065-0.319,0.124s-0.071,0.296-0.172,0.355
		c-0.095,0.065-0.344-0.101-0.438-0.035c-0.089,0.065-0.06,0.308-0.148,0.378c-0.095,0.065-0.367-0.101-0.455-0.023
		c-0.089,0.071-0.172,0.154-0.255,0.23c-0.089,0.077-0.178,0.16-0.26,0.231c-0.083,0.083,0.006,0.337-0.071,0.42
		c-0.083,0.077-0.331-0.006-0.414,0.077c-0.077,0.083-0.189,0.142-0.267,0.225c-0.077,0.089-0.089,0.225-0.166,0.313
		c-0.076,0.089,0.077,0.349,0.007,0.444c-0.071,0.089-0.373,0-0.438,0.095c-0.064,0.088,0.106,0.355,0.048,0.45
		c-0.06,0.094-0.408,0-0.474,0.101c-0.06,0.101,0.012,0.278-0.041,0.373c-0.054,0.106,0.041,0.284-0.012,0.391
		c-0.054,0.094-0.249,0.118-0.296,0.225c-0.054,0.106-0.231,0.154-0.278,0.254c-0.048,0.101,0.023,0.26-0.023,0.367
		c-0.048,0.101-0.083,0.219-0.137,0.326c0.083,0.047,0.207,0.296,0.29,0.349c0.083-0.089,0.213-0.284,0.29-0.373
		c0.077-0.083-0.065-0.378,0.006-0.467c0.083-0.089,0.16-0.171,0.236-0.254c0.083-0.083,0.444,0.089,0.521,0
		c0.082-0.083,0.012-0.45,0.088-0.533c0.125,0.071,0.421,0.201,0.545,0.267c-0.036,0.112-0.325,0.272-0.367,0.384
		c-0.035,0.106-0.089,0.213-0.124,0.32s0.142,0.29,0.106,0.402c-0.035,0.106-0.178,0.177-0.219,0.29
		c-0.029,0.112-0.054,0.219-0.095,0.332c-0.035,0.112-0.101,0.207-0.148,0.313c-0.029,0.112,0.083,0.272,0.048,0.378
		c-0.035,0.113-0.325,0.213-0.367,0.32c0.089,0.042,0.249-0.059,0.332-0.024c0.07-0.101,0.165-0.118,0.236-0.219
		c0.077-0.101,0.166-0.184,0.236-0.29c0.065-0.089,0.036-0.23,0.095-0.319c0.06-0.095,0.391-0.012,0.45-0.106
		c0.059-0.089,0.041-0.225,0.106-0.319c0.053-0.095-0.024-0.272,0.035-0.361c0.06-0.088,0.225-0.112,0.284-0.207
		c0.059-0.088-0.036-0.284,0.023-0.373s0.106-0.195,0.166-0.284c0.059-0.088,0.165-0.154,0.225-0.242
		c0.077-0.101,0.278-0.101,0.426-0.154c0.13-0.047,0.154,0.059,0.272,0.006c0,0.13,0.207,0.101,0.213,0.23
		c0.012,0.154,0.047,0.355-0.006,0.474c-0.048,0.094-0.338,0.083-0.385,0.177c-0.047,0.101,0.054,0.272,0.006,0.373
		c-0.047,0.101-0.101,0.195-0.153,0.296c-0.048,0.101-0.148,0.172-0.195,0.266c-0.06,0.107,0.012,0.261-0.036,0.361
		c-0.059,0.101-0.23,0.13-0.284,0.23c-0.047,0.095-0.136,0.178-0.188,0.272c-0.048,0.094,0.07,0.284,0.018,0.378
		c-0.054,0.095-0.137,0.177-0.184,0.278C45.009,21.767,44.902,21.82,44.849,21.92z"/>
	<path d="M16.894,29.197c0.012,0.119,0,0.226-0.012,0.338c-0.006,0.112-0.119,0.195-0.142,0.313
		c-0.024,0.106,0.059,0.236,0.029,0.343c-0.035,0.106-0.195,0.154-0.236,0.261s-0.101,0.189-0.148,0.296
		c-0.059,0.101,0.237,0.384,0.177,0.484c-0.059,0.095-0.361,0.048-0.42,0.143c-0.065,0.095,0.03,0.284-0.036,0.379
		c-0.065,0.094-0.302,0.07-0.367,0.165s-0.154,0.172-0.219,0.261c-0.065,0.095-0.148,0.178-0.213,0.266
		c-0.065,0.089,0.142,0.373,0.083,0.468c-0.071,0.095-0.402,0.018-0.461,0.112c-0.059,0.101-0.071,0.219-0.142,0.313
		c-0.071,0.095-0.094,0.201-0.166,0.296c-0.077,0.089-0.136,0.178-0.213,0.261c-0.077,0.089-0.024,0.302-0.101,0.378
		c-0.083,0.083-0.337-0.023-0.432,0.048c-0.083,0.071,0,0.366-0.088,0.438c-0.089,0.065-0.29-0.012-0.385,0.054
		c-0.095,0.064-0.225,0.053-0.331,0.112c-0.095,0.059-0.142,0.201-0.249,0.254c-0.095,0.054-0.237,0.03-0.337,0.077
		c-0.106,0.048-0.136,0.261-0.249,0.302c-0.101,0.041-0.29-0.118-0.396-0.083c-0.106,0.036-0.136,0.325-0.249,0.361
		c-0.106,0.029-0.272-0.106-0.378-0.071c-0.106,0.023-0.225,0.023-0.343,0.054c-0.106,0.029-0.219,0.041-0.331,0.064
		c-0.119,0.023-0.219,0.071-0.332,0.095c-0.118,0.023-0.213,0.112-0.331,0.13c-0.107,0.024-0.213,0.107-0.32,0.131
		c-0.118,0.018-0.266-0.154-0.378-0.137c-0.112,0.019-0.201,0.243-0.313,0.255c-0.119,0.006-0.243-0.012-0.349-0.012
		c-0.119,0-0.231-0.124-0.343-0.143c-0.106-0.012-0.225-0.006-0.337-0.023c-0.112-0.023-0.183-0.165-0.295-0.195
		c-0.113-0.035-0.302,0.166-0.409,0.124c-0.101-0.047-0.219-0.082-0.319-0.13c-0.106-0.047-0.13-0.248-0.23-0.302
		c-0.095-0.059-0.16-0.165-0.254-0.23c-0.095-0.06-0.189-0.118-0.284-0.184c-0.089-0.064-0.177-0.136-0.266-0.201
		c-0.089-0.064-0.284,0.006-0.373-0.064c-0.094-0.06-0.124-0.214-0.213-0.272c-0.095-0.071-0.284-0.023-0.367-0.095
		s-0.042-0.29-0.118-0.367c-0.077-0.083-0.154-0.165-0.219-0.248c-0.071-0.083-0.26-0.083-0.325-0.178
		c-0.059-0.095-0.071-0.23-0.125-0.325c-0.053-0.101-0.1-0.207-0.147-0.302c-0.047-0.106-0.065-0.225-0.107-0.319
		c-0.047-0.106,0.036-0.255,0-0.361c-0.035-0.101-0.047-0.207-0.083-0.313s-0.059-0.213-0.095-0.319
		c-0.03-0.106-0.178-0.178-0.207-0.284c-0.03-0.106,0.095-0.248,0.065-0.354c-0.023-0.112-0.272-0.166-0.296-0.278
		c-0.023-0.101-0.035-0.219-0.059-0.325c-0.012-0.106-0.112-0.207-0.124-0.308c-0.018-0.112-0.077-0.226-0.083-0.332
		s0.012-0.225,0.006-0.331c0-0.112,0.13-0.225,0.13-0.331c0-0.112-0.142-0.236-0.13-0.344c0.006-0.106,0.254-0.194,0.272-0.295
		c0.012-0.113,0.118-0.201,0.142-0.308c0.018-0.106-0.189-0.261-0.166-0.367c0.03-0.101,0.095-0.201,0.13-0.302
		c0.029-0.101-0.101-0.266-0.071-0.373c0.036-0.101,0.296-0.125,0.343-0.219c0.036-0.101-0.023-0.254,0.023-0.349
		c0.047-0.101,0.296-0.094,0.343-0.189c0.059-0.095,0.189-0.142,0.243-0.243c0.053-0.095,0.077-0.207,0.136-0.302
		c0.059-0.089,0.083-0.201,0.148-0.296c0.065-0.089,0.124-0.177,0.195-0.26c0.071-0.095-0.107-0.367-0.03-0.456
		c0.071-0.089,0.444,0.089,0.515,0.006c0.077-0.083-0.148-0.438-0.071-0.521c0.071-0.083,0.331,0.012,0.414-0.071
		c0.071-0.077,0.177-0.124,0.26-0.201c0.083-0.083,0.006-0.319,0.089-0.402c0.083-0.071,0.337,0.041,0.42-0.036
		c0.083-0.071,0.112-0.207,0.195-0.272c0.083-0.077,0.266-0.029,0.349-0.101c0.088-0.065,0.095-0.23,0.189-0.301
		c0.083-0.071,0.042-0.308,0.13-0.373c0.095-0.065,0.343,0.089,0.438,0.03c0.094-0.065,0.047-0.32,0.148-0.379
		c0.094-0.059,0.266,0.012,0.367-0.042c0.101-0.053,0.183-0.13,0.29-0.171c0.101-0.047,0.213-0.065,0.32-0.101
		c0.106-0.029,0.166-0.225,0.278-0.254c0.112-0.023,0.278,0.243,0.385,0.225c0.112-0.024,0.213-0.036,0.325-0.047
		c0.112-0.012,0.213,0,0.326-0.012c0.118,0,0.213,0.036,0.331,0.036c0.106,0,0.225-0.237,0.332-0.237
		c0.118,0.012,0.225,0.047,0.331,0.06c0.106,0.012,0.237-0.047,0.343-0.03s0.249-0.053,0.355-0.036
		c0.106,0.024,0.195,0.172,0.308,0.195c0.106,0.024,0.154,0.284,0.26,0.308c0.106,0.036,0.284-0.166,0.385-0.124
		s0.201,0.106,0.302,0.154s0.13,0.219,0.225,0.278c0.095,0.053,0.349-0.142,0.438-0.083c0.095,0.059-0.036,0.443,0.059,0.509
		c0.083,0.071,0.367-0.125,0.456-0.047c0.083,0.065,0.207,0.106,0.29,0.183c0.083,0.077,0.047,0.278,0.13,0.349
		c0.077,0.083,0.142,0.166,0.225,0.249c0.071,0.083,0.236,0.083,0.308,0.178c0.071,0.083,0.035,0.26,0.101,0.343
		c0.065,0.089,0.207,0.125,0.266,0.213c0.071,0.094,0.118,0.195,0.184,0.284c0.059,0.095-0.106,0.326-0.047,0.42
		c0.053,0.095,0.384,0.036,0.432,0.13c0.059,0.095-0.012,0.26,0.036,0.361s0.036,0.225,0.083,0.319
		c0.047,0.107,0.272,0.13,0.319,0.231s-0.083,0.266-0.047,0.373s0.177,0.178,0.213,0.284c0.03,0.101,0.059,0.213,0.083,0.319
		c0.029,0.106-0.106,0.249-0.083,0.361c0.024,0.113,0.166,0.184,0.184,0.296c0.018,0.113,0.018,0.219,0.035,0.332
		c0.018,0.112,0.195,0.207,0.208,0.313c0.006,0.106-0.006,0.225,0,0.343C17.06,28.973,16.894,29.091,16.894,29.197z M9.369,35.327
		c0.094-0.023,0.207-0.036,0.319-0.06c0.101-0.023,0.225,0.054,0.337,0.036c0.101-0.024,0.183-0.154,0.29-0.178
		s0.237,0.083,0.343,0.059c0.106-0.023,0.219-0.035,0.325-0.059c0.101-0.023,0.113-0.426,0.219-0.462
		c0.106-0.023,0.284,0.225,0.384,0.195c0.106-0.029,0.154-0.23,0.254-0.266c0.106-0.036,0.284,0.124,0.385,0.082
		c0.101-0.035,0.23-0.064,0.337-0.118c0.094-0.053,0.219-0.095,0.313-0.159c0.101-0.06,0.006-0.396,0.101-0.462
		c0.088-0.065,0.378,0.118,0.461,0.041c0.089-0.07,0.142-0.194,0.225-0.271c0.083-0.083,0.13-0.189,0.213-0.272
		c0.083-0.083,0.154-0.178,0.225-0.26c0.071-0.083,0.006-0.296,0.071-0.391c0.071-0.083,0.349-0.012,0.414-0.106
		c0.071-0.095-0.094-0.344-0.035-0.438c0.071-0.095,0.272-0.089,0.331-0.183c0.065-0.101,0.195-0.154,0.249-0.249
		c0.059-0.101,0.03-0.248,0.083-0.349c0.059-0.101,0.177-0.166,0.225-0.272c0.053-0.095-0.065-0.284-0.023-0.385
		c0.047-0.106,0.284-0.124,0.331-0.23c0.042-0.106-0.171-0.308-0.136-0.414c0.041-0.106,0.242-0.154,0.266-0.267
		c0.036-0.112,0.095-0.213,0.112-0.325c0.03-0.112,0.053-0.225,0.077-0.331c0.012-0.118,0-0.237,0.006-0.344
		c0.006-0.118-0.053-0.23-0.065-0.343c0-0.112-0.071-0.213-0.083-0.331c-0.012-0.112,0.166-0.249,0.154-0.367
		c-0.018-0.112-0.249-0.177-0.272-0.296c-0.029-0.112-0.035-0.225-0.065-0.331c-0.029-0.106,0.047-0.249,0.006-0.361
		c-0.035-0.113-0.095-0.207-0.142-0.314c-0.042-0.106,0.012-0.26-0.036-0.361s-0.32-0.088-0.379-0.195
		c-0.047-0.095-0.118-0.184-0.171-0.284c-0.059-0.095,0.018-0.272-0.042-0.367c-0.065-0.101-0.083-0.225-0.148-0.32
		c-0.065-0.095-0.136-0.189-0.207-0.284c-0.071-0.089-0.13-0.184-0.201-0.272c-0.071-0.094-0.272-0.071-0.349-0.154
		c-0.077-0.083-0.077-0.225-0.148-0.308c-0.083-0.077-0.26-0.035-0.343-0.106c-0.083-0.071-0.047-0.284-0.13-0.343
		c-0.089-0.065-0.184-0.124-0.272-0.177c-0.101-0.059-0.26,0.023-0.355-0.024c-0.095-0.047-0.166-0.154-0.26-0.201
		c-0.107-0.036-0.201-0.083-0.308-0.119c-0.101-0.036-0.189-0.095-0.302-0.124c-0.101-0.024-0.184-0.178-0.296-0.195
		c-0.101-0.018-0.219-0.059-0.326-0.071c-0.106-0.012-0.225-0.023-0.331-0.029s-0.225,0.118-0.337,0.112
		c-0.112,0-0.219-0.154-0.331-0.154c-0.107,0-0.207,0.237-0.326,0.243c-0.106,0.006-0.213,0.006-0.331,0.018
		c-0.106,0.018-0.195,0.112-0.308,0.142c-0.107,0.023-0.189,0.095-0.296,0.124c-0.112,0.03-0.213,0.042-0.32,0.077
		c-0.101,0.042-0.248-0.036-0.349,0.006s-0.136,0.219-0.237,0.272s-0.308-0.101-0.408-0.047c-0.095,0.059-0.237,0.041-0.337,0.1
		c-0.089,0.06-0.053,0.314-0.142,0.385c-0.088,0.065-0.201,0.101-0.29,0.171c-0.083,0.071-0.047,0.272-0.13,0.343
		c-0.083,0.077-0.325-0.018-0.402,0.059c-0.083,0.083-0.071,0.237-0.142,0.32c-0.077,0.083-0.319,0.023-0.39,0.106
		c-0.071,0.083-0.213,0.124-0.284,0.213c-0.071,0.083-0.106,0.213-0.166,0.296c-0.071,0.095-0.101,0.213-0.16,0.308
		c-0.065,0.095-0.125,0.189-0.184,0.284c-0.059,0.1,0.148,0.354,0.095,0.449c-0.059,0.095-0.461,0-0.515,0.095
		c-0.053,0.106,0.254,0.379,0.207,0.485c-0.047,0.095-0.319,0.095-0.367,0.195c-0.036,0.101-0.119,0.189-0.166,0.295
		c-0.035,0.101,0.142,0.29,0.106,0.391c-0.035,0.107-0.319,0.136-0.343,0.243c-0.036,0.112,0.012,0.242-0.012,0.349
		c-0.023,0.113-0.201,0.195-0.225,0.302c-0.018,0.106,0.083,0.249,0.071,0.355c-0.023,0.118,0.184,0.248,0.178,0.36
		c-0.012,0.113-0.296,0.207-0.302,0.314c-0.006,0.118,0.231,0.225,0.243,0.343c0,0.106-0.13,0.225-0.119,0.337
		c0.012,0.112,0.06,0.219,0.083,0.325c0.024,0.107,0.024,0.226,0.047,0.332c0.03,0.106,0.213,0.177,0.243,0.277
		c0.029,0.113-0.219,0.296-0.195,0.402c0.036,0.106,0.071,0.22,0.106,0.326c0.036,0.101,0.065,0.219,0.106,0.319
		c0.047,0.106,0.059,0.236,0.106,0.331c0.053,0.106,0.32,0.089,0.379,0.189c0.053,0.095,0.088,0.201,0.154,0.296
		c0.059,0.089,0.183,0.13,0.249,0.213c0.071,0.089,0.213,0.101,0.284,0.178c0.077,0.083,0.065,0.248,0.142,0.319
		c0.083,0.077,0.023,0.331,0.106,0.391c0.095,0.07,0.326-0.06,0.414,0c0.095,0.064,0.172,0.142,0.272,0.189
		c0.095,0.053,0.136,0.23,0.236,0.271c0.101,0.048,0.313-0.189,0.414-0.147c0.107,0.041,0.083,0.438,0.195,0.473
		c0.101,0.03,0.296-0.254,0.408-0.225c0.101,0.023,0.213,0,0.326,0.018c0.106,0.024,0.183,0.201,0.302,0.214
		c0.106,0.018,0.213,0.035,0.331,0.047c0.106,0.012,0.225-0.101,0.332-0.095C9.144,35.149,9.25,35.327,9.369,35.327z"/>
	<path d="M35.164,43.574c-0.024-0.106,0-0.343-0.036-0.449c-0.023-0.112-0.42-0.131-0.449-0.237
		c-0.03-0.106,0.248-0.296,0.213-0.402c-0.029-0.106-0.095-0.207-0.118-0.313c-0.03-0.112-0.296-0.159-0.326-0.271
		c-0.029-0.113,0.231-0.278,0.208-0.385c-0.013-0.112-0.355-0.178-0.355-0.29c-0.018-0.112,0-0.242,0-0.35
		c-0.012-0.112,0.343-0.213,0.349-0.319c0.007-0.106-0.183-0.225-0.171-0.331c0.006-0.106,0.035-0.207,0.047-0.319
		c0.012-0.101-0.142-0.23-0.118-0.343c0.012-0.101,0.201-0.178,0.213-0.284c0.023-0.106-0.142-0.249-0.118-0.35
		c0.023-0.106,0.331-0.153,0.355-0.254c0.018-0.106,0.118-0.201,0.13-0.308c0.023-0.101,0.035-0.213,0.053-0.313
		c0.018-0.112-0.029-0.408,0.077-0.42c0.106-0.013,0.272,0.271,0.373,0.254c0.101-0.023,0.184-0.184,0.29-0.213
		s0.188-0.112,0.289-0.148c0.101-0.035,0.208-0.064,0.302-0.101c0.106-0.041,0.143-0.254,0.237-0.289
		c0.101-0.042,0.308,0.201,0.408,0.165c0.101-0.035,0.159-0.195,0.26-0.23c0.101-0.029,0.166-0.219,0.267-0.242
		c0.106-0.024,0.23-0.024,0.331-0.036c0.106-0.023,0.231,0.006,0.344,0c0.101-0.012,0.213,0.101,0.319,0.106
		c0.118,0,0.236,0.095,0.354,0.095c0.106-0.006,0.213-0.165,0.332-0.178c0.106-0.012,0.225-0.023,0.331-0.047
		c0.112-0.012,0.195-0.166,0.308-0.195c0.106-0.018,0.225-0.006,0.337-0.029s0.237,0.012,0.344-0.018
		c0.112-0.024,0.248,0.053,0.36,0.023c0.106-0.029,0.178-0.207,0.284-0.243c0.106-0.029,0.213-0.106,0.319-0.13
		c0.106-0.029,0.272,0.178,0.391,0.16c0.106-0.03,0.225,0.012,0.337-0.006c0.112-0.024,0.148-0.402,0.261-0.427
		c0.112-0.012,0.219-0.006,0.337-0.023c0.106-0.023,0.272,0.237,0.379,0.225c0.106-0.018,0.165-0.331,0.278-0.349
		c0.112-0.018,0.277,0.325,0.396,0.302c0.106-0.012,0.142-0.438,0.26-0.455c0.106-0.019,0.284,0.343,0.391,0.325
		c0.106-0.012,0.225,0,0.331-0.024c0.106-0.023,0.213-0.07,0.319-0.088c0.106-0.019,0.213-0.077,0.32-0.101
		c0.112-0.019,0.165-0.355,0.277-0.373s0.284,0.349,0.396,0.337c0.106-0.023,0.201-0.095,0.313-0.118
		c0.112-0.012,0.195-0.201,0.302-0.225c0.106-0.018,0.201-0.118,0.313-0.13c0.112-0.024,0.207-0.101,0.313-0.119
		c0.113-0.018,0.237,0.036,0.344,0.013c0.106-0.024,0.26,0.219,0.372,0.201c0.106-0.013,0.172-0.308,0.278-0.326
		c0.143-0.018,0.278,0.137,0.391,0.16c0.13,0.018,0.267,0.012,0.355,0.089c0.082,0.077,0.177,0.184,0.213,0.325
		c0.023,0.101,0,0.236-0.012,0.379c-0.007,0.106-0.071,0.225-0.077,0.337s0.165,0.242,0.159,0.361
		c-0.006,0.106,0.03,0.225,0.024,0.343c-0.013,0.118-0.237,0.213-0.249,0.331s0.148,0.237,0.143,0.355
		c-0.013,0.112-0.249,0.213-0.255,0.331c-0.006,0.112,0.172,0.242,0.16,0.355c-0.013,0.118,0.101,0.236,0.095,0.354
		c-0.013,0.112-0.048,0.225-0.06,0.343c-0.012,0.113-0.077,0.226-0.095,0.344c-0.006,0.106-0.023,0.225-0.035,0.343
		c-0.012,0.112-0.112,0.219-0.119,0.331c-0.018,0.119-0.153,0.214-0.165,0.332s-0.071,0.225-0.083,0.337
		c-0.018,0.112,0.006,0.23-0.012,0.343c-0.012,0.113-0.035,0.231-0.054,0.338c-0.012,0.106-0.041,0.147-0.101,0.248
		c-0.047,0.095,0.143,0.379,0.071,0.462s-0.366-0.06-0.449,0.012c-0.095,0.071-0.195,0.071-0.284,0.13
		c-0.106,0.06-0.106,0.261-0.201,0.296c-0.106,0.041-0.201,0.13-0.302,0.166c-0.112,0.035-0.172,0.201-0.278,0.236
		s-0.236,0.023-0.343,0.06c-0.106,0.035-0.261-0.077-0.367-0.042c-0.112,0.036-0.272-0.118-0.379-0.089
		c-0.112,0.036-0.201,0.118-0.308,0.154c-0.112,0.023-0.13,0.402-0.236,0.432s-0.278-0.159-0.391-0.136
		c-0.106,0.023-0.213,0.083-0.319,0.106s-0.201,0.118-0.313,0.147c-0.106,0.023-0.23,0.006-0.337,0.03
		c-0.106,0.023-0.231-0.007-0.344,0.018c-0.112,0.018-0.201,0.195-0.308,0.219s-0.271-0.308-0.385-0.296
		c-0.112,0.012-0.194,0.213-0.313,0.225c-0.112,0.012-0.213,0.154-0.331,0.154c-0.112,0.006-0.225,0.041-0.337,0.041
		s-0.231-0.373-0.338-0.373c-0.118,0-0.225,0.189-0.343,0.189c-0.106,0-0.225-0.023-0.331-0.023c-0.112,0-0.225,0.089-0.331,0.095
		c-0.119,0.012-0.22,0.136-0.326,0.142c-0.112,0.012-0.266-0.308-0.372-0.289c-0.106,0.012-0.189,0.254-0.296,0.277
		c-0.106,0.012-0.195,0.154-0.308,0.172c-0.106,0.018-0.272-0.308-0.379-0.284c-0.106,0.018-0.201,0.136-0.308,0.16
		c-0.112,0.018-0.213,0.059-0.325,0.083c-0.112,0.023-0.231-0.024-0.338,0c-0.112,0.023-0.219,0.035-0.331,0.059
		c-0.106,0.029-0.201,0.095-0.308,0.124c-0.112,0.03-0.213,0.071-0.319,0.101c-0.112,0.024-0.219,0.036-0.325,0.065
		c-0.112,0.029-0.16,0.261-0.267,0.29c-0.106,0.035-0.225,0.023-0.325,0.047c-0.118,0.036-0.213,0.112-0.313,0.143
		c-0.118,0.023-0.23,0.095-0.331,0.106c-0.131,0.029-0.278-0.319-0.367-0.319c-0.142,0-0.284,0.225-0.361,0.165
		c-0.082-0.053-0.159-0.189-0.195-0.319c-0.023-0.089,0.101-0.225,0.095-0.354c-0.012-0.095-0.165-0.201-0.165-0.32
		c0-0.106,0.064-0.219,0.064-0.343C34.832,43.539,35.075,43.598,35.164,43.574z M35.495,44.154c0.112-0.023,0.391,0.023,0.491,0
		c0.112-0.023,0.136-0.42,0.242-0.45c0.106-0.023,0.29,0.261,0.396,0.237c0.112-0.024,0.207-0.095,0.319-0.118
		c0.112-0.024,0.16-0.29,0.267-0.314c0.112-0.029,0.284,0.22,0.391,0.195c0.106-0.023,0.147-0.354,0.26-0.378
		c0.106-0.024,0.219-0.024,0.331-0.048c0.106-0.023,0.284,0.296,0.391,0.272c0.112-0.023,0.184-0.23,0.29-0.249
		c0.112-0.023,0.219-0.035,0.325-0.047c0.112-0.023,0.195-0.201,0.302-0.225c0.112-0.018,0.249,0.124,0.361,0.106
		c0.106-0.012,0.189-0.213,0.296-0.237c0.112-0.018,0.271,0.255,0.379,0.237c0.112-0.012,0.236,0.041,0.343,0.023
		c0.112-0.018,0.225-0.035,0.331-0.06c0.112-0.012,0.178-0.343,0.284-0.36s0.272,0.272,0.379,0.254
		c0.106-0.018,0.195-0.171,0.308-0.189c0.106-0.012,0.213-0.082,0.319-0.106c0.112-0.012,0.225-0.023,0.331-0.041
		c0.112-0.018,0.195-0.219,0.308-0.236c0.106-0.018,0.261,0.254,0.379,0.236c0.106-0.018,0.201-0.16,0.308-0.184
		c0.106-0.012,0.195-0.195,0.308-0.213c0.106-0.012,0.225-0.006,0.331-0.023s0.225,0,0.331-0.012
		c0.113-0.023,0.243,0.077,0.355,0.059c0.106-0.018,0.236,0.06,0.343,0.036c0.106-0.012,0.195-0.184,0.308-0.201
		c0.106-0.018,0.22-0.03,0.332-0.054c0.106-0.018,0.189-0.171,0.308-0.184c0.106-0.023,0.225,0,0.331-0.018s0.236,0.03,0.343,0.006
		c0.112-0.012,0.29,0.054,0.414,0c0.16-0.064,0.178-0.23,0.195-0.319c0.019-0.106-0.006-0.225,0.019-0.331
		c0.023-0.106,0.283-0.166,0.313-0.272c0.018-0.106,0.101-0.207,0.124-0.308c0.023-0.112-0.319-0.284-0.296-0.391
		c0.018-0.112,0.06-0.213,0.083-0.319c0.018-0.106,0.319-0.172,0.331-0.284c0.012-0.106-0.267-0.248-0.261-0.354
		c0.013-0.106,0.391-0.189,0.391-0.302c0.006-0.106-0.396-0.23-0.396-0.337c0-0.107,0.385-0.231,0.373-0.344
		c-0.006-0.106,0.006-0.225-0.012-0.337c-0.012-0.106-0.071-0.213-0.095-0.325c-0.023-0.106-0.095-0.201-0.118-0.308
		s-0.367-0.131-0.391-0.237s0.331-0.308,0.296-0.414c-0.023-0.106-0.106-0.201-0.13-0.302c-0.024-0.106-0.201-0.147-0.226-0.254
		c-0.118,0.023-0.194,0.136-0.319,0.165c-0.118,0.024-0.225,0.106-0.343,0.137c-0.124,0.029-0.261-0.012-0.379,0.018
		s-0.308-0.189-0.42-0.154c-0.118,0.036-0.147,0.361-0.267,0.427c-0.142,0.076-0.331-0.007-0.432-0.048
		c-0.101-0.035-0.23-0.012-0.337-0.029c-0.106-0.03-0.213-0.018-0.319-0.03c-0.106-0.012-0.213-0.059-0.319-0.059
		c-0.113-0.006-0.226-0.06-0.332-0.048c-0.112,0.006-0.201,0.201-0.308,0.214c-0.106,0.018-0.201,0.076-0.308,0.101
		c-0.106,0.023-0.26-0.172-0.366-0.143s-0.166,0.213-0.272,0.249c-0.106,0.029-0.272-0.16-0.379-0.125
		c-0.106,0.036-0.153,0.249-0.26,0.284c-0.101,0.035-0.172,0.178-0.272,0.207c-0.106,0.029-0.225,0.029-0.331,0.065
		c-0.106,0.029-0.231,0-0.344,0.023c-0.101,0.023-0.219,0.041-0.319,0.06c-0.112,0.023-0.236-0.048-0.343-0.036
		c-0.106,0.018-0.225-0.101-0.332-0.095c-0.118,0.006-0.242-0.035-0.354-0.018c-0.106,0.012-0.225,0.065-0.331,0.089
		c-0.106,0.012-0.237,0.023-0.344,0.054c-0.106,0.029-0.225,0.047-0.331,0.076c-0.112,0.036-0.13,0.379-0.236,0.414
		c-0.106,0.024-0.302-0.23-0.414-0.194c-0.101,0.035-0.231,0.018-0.338,0.053c-0.101,0.035-0.147,0.242-0.254,0.284
		c-0.106,0.035-0.189,0.13-0.296,0.178c-0.106,0.035-0.166,0.201-0.272,0.236c-0.106,0.041-0.225,0.035-0.331,0.071
		c-0.106,0.041-0.267-0.06-0.379-0.024c-0.101,0.036-0.266-0.106-0.379-0.07c-0.082,0.023-0.194,0.153-0.283,0.219
		c-0.083,0.059,0.095,0.385,0.035,0.461c-0.071,0.089-0.308,0.054-0.308,0.137c-0.006,0.118,0.012,0.23,0.012,0.343
		c-0.006,0.112,0.065,0.225,0.065,0.343c-0.006,0.107-0.042,0.22-0.042,0.332c0,0.118-0.059,0.225-0.059,0.337
		s0.153,0.225,0.153,0.337c0,0.119-0.349,0.226-0.349,0.338s0.195,0.225,0.195,0.337c0,0.118,0.142,0.225,0.142,0.343
		c0,0.113,0.036,0.226,0.036,0.344c0,0.106-0.373,0.225-0.373,0.331c0,0.118,0.184,0.225,0.184,0.343
		c0,0.107-0.012,0.226-0.012,0.338s0.082,0.225,0.082,0.337C35.648,43.787,35.495,44.036,35.495,44.154z"/>
	<path d="M10.493,30.404c0.023-0.118,0.088-0.213,0.124-0.337s-0.065-0.278-0.042-0.391c0.024-0.136,0.284-0.325,0.237-0.432
		c-0.036-0.106-0.343-0.112-0.378-0.225c-0.047-0.106,0.147-0.308,0.106-0.414c-0.047-0.113-0.414-0.083-0.456-0.189
		s0.219-0.344,0.171-0.45s-0.083-0.225-0.13-0.331c-0.047-0.106-0.415-0.071-0.462-0.171c-0.047-0.107-0.154-0.184-0.201-0.29
		c-0.047-0.106-0.047-0.231-0.094-0.332c-0.047-0.106,0.195-0.349,0.142-0.45c-0.047-0.106-0.053-0.225-0.101-0.331
		s-0.278-0.118-0.325-0.225c-0.13,0.03-0.171,0.119-0.302,0.154c0.018,0.106-0.237,0.177-0.219,0.284
		c0.018,0.112,0.101,0.213,0.118,0.319c0.018,0.107,0.012,0.231,0.024,0.343c0.023,0.106,0.047,0.225,0.077,0.332
		c0.03,0.112,0.184,0.183,0.231,0.29c0.035,0.113,0.23,0.172,0.26,0.278c0.035,0.106-0.26,0.296-0.243,0.402
		c0.018,0.118,0.378,0.201,0.373,0.308c0,0.118,0,0.272-0.029,0.385c-0.03,0.112-0.213,0.184-0.272,0.29
		C9.049,29.316,8.8,29.245,8.718,29.34c-0.071,0.083,0.023,0.331-0.071,0.402c-0.083,0.07-0.189,0.13-0.29,0.189
		c-0.101,0.059-0.207,0.106-0.296,0.177c-0.101,0.071-0.237,0.083-0.326,0.154c-0.088,0.077-0.16,0.178-0.249,0.248
		c-0.083,0.071-0.189,0.137-0.272,0.213c-0.089,0.083-0.089,0.249-0.171,0.332c-0.083,0.076-0.343-0.03-0.426,0.047
		c-0.083,0.083,0.047,0.391-0.035,0.474c-0.089,0.077-0.278,0.035-0.373,0.112c-0.083,0.077-0.053,0.29-0.142,0.367
		c-0.083,0.064-0.26,0.041-0.367,0.088c-0.106,0.048-0.189,0.137-0.29,0.178c-0.101,0.036-0.166-0.178-0.267-0.13
		c-0.029-0.095-0.035-0.071-0.071-0.166c-0.036-0.101-0.024-0.213-0.053-0.308c-0.03-0.106-0.332-0.153-0.349-0.254
		c-0.012-0.112,0.189-0.255,0.177-0.367c-0.012-0.118,0.119-0.23,0.119-0.349c0-0.112-0.172-0.226-0.166-0.332
		c0-0.118-0.225-0.248-0.219-0.366c0.006-0.112,0.083-0.231,0.101-0.344c0.018-0.112-0.023-0.248,0-0.354
		c0.018-0.118,0.319-0.166,0.349-0.278s0.118-0.195,0.154-0.308c0.03-0.112-0.042-0.248,0-0.36c0.042-0.106,0.006-0.237,0.047-0.344
		s0.112-0.207,0.16-0.308c0.047-0.106,0.284-0.118,0.337-0.225c0.053-0.101,0.006-0.249,0.053-0.349
		c0.053-0.101-0.106-0.325-0.047-0.42c0.053-0.106,0.432-0.012,0.497-0.113c0.059-0.101,0.106-0.195,0.166-0.29
		s-0.083-0.326-0.012-0.42c0.059-0.094,0.012-0.266,0.071-0.367c0.071-0.095,0.337-0.047,0.402-0.142
		c0.071-0.101,0.047-0.248,0.118-0.337c0.06-0.095,0.053-0.26,0.13-0.343c0.077-0.071,0.237-0.083,0.325-0.154
		c0.077-0.065,0.302,0.059,0.396-0.012c0.083-0.059,0.119-0.201,0.213-0.26c0.095-0.053,0.243,0.012,0.343-0.042
		c0.095-0.047,0.047-0.414,0.148-0.461c0.101-0.042,0.278,0.083,0.379,0.042c0.106-0.036,0.183-0.142,0.29-0.178
		s0.249,0.059,0.355,0.036c0.101-0.036,0.213-0.047,0.313-0.071c0.113-0.023,0.219,0.012,0.326-0.006
		c0.112-0.018,0.213,0.006,0.325-0.006c0.113-0.012,0.195-0.166,0.308-0.166c0.113-0.006,0.219-0.13,0.332-0.13
		s0.23,0.012,0.337,0.024c0.112,0.018,0.166,0.278,0.272,0.308c0.106,0.029,0.343-0.296,0.438-0.26
		c0.106,0.053,0.183,0.213,0.26,0.278c0.095,0.071,0.242,0.071,0.325,0.148c0.083,0.071,0.142,0.184,0.225,0.26
		c0.083,0.077,0.124,0.207,0.195,0.284c0.083,0.083-0.012,0.313,0.065,0.396c0.077,0.083,0.112,0.189,0.183,0.278
		c0.071,0.083,0.438-0.059,0.509,0.036c0.059,0.089,0.119,0.189,0.184,0.284c0.065,0.095,0.095,0.213,0.154,0.308
		c0.053,0.095-0.219,0.367-0.171,0.468s0.248,0.124,0.284,0.23c0.047,0.095,0.184,0.166,0.225,0.272
		c0.035,0.106,0.012,0.23,0.035,0.337c0.03,0.106,0.237,0.172,0.26,0.29c0.024,0.106-0.106,0.249-0.088,0.361
		c0.018,0.112-0.225,0.243-0.219,0.361c0.012,0.106,0.438,0.188,0.438,0.308c0,0.106-0.355,0.219-0.361,0.331
		c0,0.106,0.118,0.219,0.112,0.325c-0.012,0.106,0.178,0.242,0.166,0.35c-0.012,0.106-0.088,0.213-0.106,0.319
		c-0.018,0.106-0.355,0.147-0.384,0.254c-0.03,0.101,0.053,0.23,0.029,0.337c-0.035,0.107-0.023,0.22-0.059,0.32
		s-0.13,0.177-0.166,0.271c-0.053,0.106-0.095,0.195-0.142,0.29c-0.053,0.101-0.166,0.148-0.225,0.243
		c-0.06,0.088-0.024,0.236-0.095,0.325c-0.059,0.089,0.047,0.325-0.024,0.408c-0.071,0.083-0.177,0.142-0.26,0.219
		c-0.077,0.077-0.136,0.184-0.213,0.261c-0.083,0.07-0.426-0.178-0.521-0.113c-0.095,0.083-0.012,0.415-0.095,0.45
		c-0.119,0.041-0.26-0.095-0.343-0.124c-0.101-0.03-0.201-0.06-0.272-0.148c-0.071-0.071,0.012-0.248-0.042-0.343
		c-0.053-0.089-0.367-0.018-0.42-0.106c-0.06-0.083,0.094-0.284,0.053-0.391c-0.042-0.095-0.267-0.118-0.302-0.225
		c-0.036-0.095,0.189-0.29,0.154-0.385c-0.036-0.101-0.326-0.071-0.379-0.16c-0.059-0.082-0.059-0.177-0.142-0.242
		c-0.071-0.06-0.071-0.29-0.177-0.325c-0.095-0.024-0.254,0.165-0.373,0.159C10.457,30.57,10.516,30.44,10.493,30.404z
		 M9.439,24.571c0.047,0.106,0.059,0.272,0.106,0.378s0.225,0.154,0.272,0.26s-0.154,0.319-0.106,0.426
		c0.042,0.101,0.343,0.101,0.391,0.208c0.042,0.101-0.148,0.313-0.101,0.42c0.042,0.101,0.408,0.071,0.456,0.177
		s-0.213,0.343-0.166,0.45c0.042,0.101,0.077,0.213,0.118,0.32c0.047,0.106,0.414,0.071,0.461,0.177
		c0.042,0.106,0.148,0.189,0.195,0.296c0.042,0.101,0.047,0.225,0.089,0.332c0.047,0.106-0.201,0.343-0.154,0.449
		c0.042,0.101,0.047,0.225,0.101,0.331c0.042,0.101,0.278,0.119,0.325,0.226s0.184,0.171,0.225,0.277
		c0.047,0.101-0.189,0.326-0.142,0.433s0.154,0.188,0.201,0.289c0.042,0.101,0.065,0.22,0.106,0.326
		c0.047,0.106,0.095,0.213,0.136,0.313c0.041,0.106,0.207,0.159,0.254,0.266c0.041,0.101,0.236,0.143,0.284,0.249
		c0.042,0.101-0.124,0.438-0.077,0.544c0.112-0.035,0.219-0.391,0.313-0.443c0.101-0.054,0.154-0.112,0.236-0.184
		c0.095-0.071,0.261-0.029,0.332-0.118c0.071-0.083,0.332-0.042,0.391-0.13c0.059-0.095-0.101-0.32-0.047-0.421
		c0.047-0.101,0.095-0.195,0.13-0.302c0.036-0.106,0.083-0.201,0.119-0.308c0.023-0.106,0.118-0.201,0.142-0.308
		c0.012-0.112,0-0.23,0.012-0.343c0.012-0.106,0.042-0.219,0.047-0.331c0-0.106-0.119-0.219-0.119-0.325
		c-0.012-0.113,0.237-0.243,0.231-0.355s-0.337-0.184-0.361-0.29c-0.012-0.118,0.13-0.249,0.101-0.355
		c-0.03-0.112-0.231-0.166-0.267-0.266c-0.035-0.106,0.03-0.243-0.012-0.337c-0.047-0.101-0.154-0.177-0.201-0.272
		c-0.053-0.101,0.13-0.331,0.071-0.426c-0.053-0.095-0.178-0.154-0.243-0.249c-0.059-0.095-0.089-0.225-0.148-0.308
		c-0.071-0.095-0.361-0.006-0.438-0.089c-0.071-0.089,0.006-0.313-0.071-0.385c-0.083-0.077-0.089-0.26-0.171-0.331
		c-0.089-0.071-0.29,0-0.379-0.065c-0.095-0.06-0.296,0.101-0.396,0.053s-0.16-0.136-0.26-0.172
		c-0.106-0.029-0.213,0.006-0.319-0.012c-0.112-0.018-0.178-0.313-0.29-0.325c-0.112,0-0.23-0.065-0.349-0.06
		c-0.106,0.006-0.213,0.13-0.319,0.142c-0.106,0.024-0.201,0.119-0.319,0.148C9.724,24.571,9.546,24.536,9.439,24.571z
		 M8.268,28.932c-0.024-0.124,0-0.278-0.012-0.396c-0.012-0.118-0.172-0.225-0.184-0.344c-0.012-0.118,0.243-0.271,0.231-0.39
		c-0.012-0.118-0.302-0.207-0.32-0.325c-0.012-0.125,0.213-0.29,0.189-0.402c-0.018-0.112-0.385-0.16-0.414-0.272
		c-0.018-0.065,0.142-0.325,0.036-0.384c-0.083-0.047-0.189-0.112-0.284-0.148c-0.136-0.053-0.195,0.184-0.201,0.201
		c-0.065,0.089-0.071,0.213-0.13,0.302c-0.065,0.095-0.16,0.154-0.225,0.249c-0.059,0.089-0.385,0.012-0.438,0.106
		c-0.059,0.095-0.154,0.171-0.207,0.266s0.077,0.29,0.024,0.391s-0.006,0.237-0.053,0.337c-0.042,0.101-0.367,0.083-0.408,0.184
		c-0.042,0.101-0.018,0.23-0.053,0.337c-0.036,0.106-0.095,0.213-0.119,0.319c-0.029,0.101-0.053,0.219-0.077,0.319
		c-0.018,0.106,0.088,0.243,0.077,0.355c-0.012,0.106,0.142,0.225,0.13,0.331c0,0.106-0.337,0.213-0.332,0.319
		c0,0.112,0.355,0.201,0.367,0.313c0.006,0.112-0.083,0.06-0.071,0.172c0.095-0.077,0.118-0.006,0.207-0.083s0.337,0.035,0.42-0.041
		c0.095-0.077,0.03-0.344,0.119-0.421c0.095-0.076,0.195-0.142,0.284-0.213c0.095-0.082,0.201-0.142,0.29-0.213
		c0.089-0.083,0.231-0.095,0.326-0.165c0.088-0.083,0.166-0.184,0.254-0.255c0.088-0.077,0.195-0.136,0.29-0.207
		C8.067,29.097,8.173,28.996,8.268,28.932z"/>
	<path d="M10.628,30.446c0.03,0.101,0.071,0.219,0.101,0.319c0.018,0.101,0.06,0.201,0.083,0.302
		c0.024,0.095-0.101,0.236-0.077,0.331c0.018,0.106,0.101,0.189,0.124,0.29s-0.006,0.213,0.023,0.313
		c0.036,0.101-0.13,0.278-0.094,0.379c0.059,0.118,0.284,0.165,0.308,0.271c0.023,0.131-0.024,0.249-0.047,0.355
		c-0.018,0.124-0.154,0.142-0.225,0.248c-0.071,0.089,0.059,0.391-0.047,0.468c-0.095,0.065-0.319-0.065-0.443-0.006
		c-0.101,0.047-0.125,0.26-0.225,0.302c-0.106,0.041-0.183,0.184-0.284,0.219s-0.231,0.071-0.337,0.101
		c-0.106,0.023-0.237,0.018-0.343,0.029c-0.112,0.019-0.243-0.089-0.355-0.082c-0.106,0-0.225,0-0.331-0.007
		c-0.107-0.006-0.237,0.042-0.343,0.03c-0.112-0.023-0.178-0.237-0.284-0.272c-0.106-0.023-0.296,0.201-0.402,0.16
		c-0.101-0.042-0.189-0.148-0.284-0.195c-0.101-0.054-0.178-0.154-0.272-0.213c-0.095-0.06-0.047-0.32-0.142-0.385
		c-0.071-0.048-0.272,0.035-0.332-0.06c-0.059-0.089,0.047-0.248,0.018-0.337c-0.047-0.13-0.23-0.23-0.195-0.284
		c0.06-0.095,0.343-0.035,0.415-0.13c0.071-0.095-0.113-0.373-0.047-0.462c0.077-0.095,0.26-0.095,0.343-0.177
		c0.071-0.089,0.047-0.272,0.119-0.355c0.083-0.083,0.177-0.16,0.26-0.242c0.083-0.083,0.367,0.053,0.461-0.03
		c0.083-0.07-0.012-0.343,0.083-0.42c0.083-0.077,0.142-0.184,0.23-0.26c0.089-0.077,0.249-0.065,0.337-0.137
		c0.095-0.07,0.278-0.023,0.367-0.095c0.089-0.076,0.03-0.331,0.118-0.408c0.095-0.07,0.219-0.101,0.308-0.165
		c0.094-0.071,0.154-0.184,0.248-0.255c0.101-0.07,0.201,0.101,0.29,0.029c0.065,0.089,0.201-0.076,0.254,0.007
		c0.059,0.082,0.012,0.236,0.071,0.319c0.059,0.083,0.088,0.177,0.142,0.26c0.06,0.083,0.237,0.083,0.296,0.16
		C10.504,30.404,10.599,30.422,10.628,30.446z M7.286,32.759c0.088,0.06,0.124,0,0.219,0.054c0.101,0.054,0.189,0.077,0.29,0.124
		c0.101,0.042,0.142,0.213,0.236,0.255c0.106,0.035,0.225,0.018,0.326,0.041c0.106,0.023,0.195,0.112,0.302,0.124
		c0.112,0.019,0.213,0.249,0.308,0.255c0.118,0,0.236-0.213,0.331-0.225c0.119-0.024,0.249,0,0.343-0.048
		c0.101-0.059,0.308-0.118,0.343-0.225c0.035-0.095-0.249-0.272-0.237-0.379s0.249-0.201,0.243-0.302s-0.184-0.201-0.201-0.302
		c-0.012-0.106-0.136-0.189-0.148-0.296c-0.018-0.106-0.036-0.213-0.053-0.319s0-0.219-0.018-0.325
		c-0.012-0.112,0.106-0.195,0.094-0.302c-0.142-0.029-0.236-0.047-0.373-0.077c-0.077,0.077-0.089,0.184-0.166,0.255
		c-0.077,0.077-0.296,0.006-0.373,0.083c-0.083,0.07,0.03,0.343-0.047,0.414c-0.083,0.076-0.208,0.095-0.284,0.171
		c-0.083,0.077-0.189,0.112-0.272,0.184c-0.077,0.071-0.326-0.029-0.402,0.048c-0.083,0.07-0.012,0.302-0.089,0.378
		c-0.077,0.071-0.266,0.024-0.349,0.095C7.232,32.517,7.369,32.683,7.286,32.759z"/>
	<path d="M33.211,12.401c-0.059,0.101-0.118,0.195-0.195,0.278c-0.076,0.083-0.041,0.29-0.136,0.367
		c-0.089,0.071-0.225,0.095-0.319,0.154c-0.101,0.065-0.296-0.059-0.402-0.012c-0.101,0.053-0.207,0.083-0.308,0.13
		c-0.106,0.041-0.142,0.254-0.249,0.296c-0.112,0.035-0.194,0.154-0.308,0.189c-0.106,0.042-0.277-0.106-0.39-0.071
		c-0.106,0.042-0.119,0.343-0.226,0.384c-0.112,0.042-0.325-0.195-0.438-0.148c-0.106,0.042-0.142,0.249-0.248,0.284
		c-0.106,0.03-0.237,0-0.344,0.024c-0.118,0.023-0.213,0.083-0.325,0.094c-0.112,0.024-0.242-0.142-0.349-0.13
		c-0.113,0.012-0.214,0.106-0.32,0.106c-0.118,0-0.236,0.171-0.343,0.166c-0.118-0.012-0.189-0.343-0.296-0.361
		c-0.112-0.018-0.249,0.148-0.361,0.125c-0.112-0.024-0.195-0.142-0.302-0.172c-0.106-0.029-0.237,0.018-0.343-0.012
		c-0.106-0.036-0.213-0.077-0.313-0.112c-0.101-0.042-0.236-0.012-0.337-0.053c-0.107-0.042-0.125-0.278-0.225-0.326
		s-0.26,0.024-0.355-0.023c-0.106-0.047-0.16-0.184-0.26-0.231s-0.308,0.112-0.408,0.059c-0.112-0.053-0.266-0.041-0.361-0.101
		c-0.101-0.065,0.023-0.42-0.065-0.497c-0.089-0.071-0.154-0.142-0.231-0.225c-0.083-0.083-0.13-0.16-0.189-0.249
		c-0.071-0.095-0.118-0.177-0.183-0.272c-0.053-0.106-0.125-0.178-0.172-0.284s-0.101-0.189-0.142-0.302
		c-0.047-0.101-0.295-0.136-0.343-0.242c-0.03-0.107,0.112-0.272,0.077-0.391c-0.029-0.106-0.254-0.16-0.29-0.272
		c-0.036-0.107,0.166-0.272,0.142-0.385c-0.023-0.112,0-0.213-0.012-0.325c-0.012-0.107-0.378-0.208-0.378-0.32
		s0.272-0.213,0.284-0.325s-0.23-0.272-0.213-0.385c0.023-0.106,0.278-0.166,0.308-0.278c0.03-0.112,0.118-0.195,0.16-0.302
		c0.036-0.106-0.112-0.278-0.065-0.385c0.036-0.101,0.349-0.101,0.391-0.207c0.047-0.106,0.023-0.23,0.071-0.343
		c0.042-0.094-0.177-0.331-0.13-0.426c0.047-0.095,0.332-0.071,0.385-0.166s0.184-0.13,0.249-0.225
		c0.059-0.088-0.018-0.272,0.053-0.361s0.03-0.266,0.106-0.349c0.071-0.083,0.337,0.018,0.414-0.059
		c0.083-0.077,0.154-0.142,0.237-0.213c0.083-0.077,0.036-0.308,0.124-0.373c0.089-0.065,0.302,0.047,0.396-0.006
		c0.095-0.065,0.101-0.26,0.189-0.313c0.106-0.053,0.142-0.26,0.243-0.308c0.106-0.047,0.284,0.065,0.384,0.03
		c0.106-0.047,0.219-0.095,0.326-0.125c0.112-0.035,0.225-0.059,0.331-0.088c0.112-0.03,0.243,0.035,0.361,0.012
		c0.106-0.024,0.189-0.178,0.302-0.201c0.113-0.024,0.237,0.006,0.349-0.012c0.112-0.018,0.213-0.106,0.325-0.125
		c0.112-0.018,0.231,0,0.35-0.018c0.106-0.012,0.213-0.13,0.331-0.142c0.118-0.006,0.236,0.106,0.354,0.101
		c0.113-0.006,0.226-0.171,0.338-0.177c0.112-0.006,0.236,0.13,0.349,0.13c0.106,0,0.237-0.065,0.344-0.053s0.207,0.142,0.308,0.166
		c0.112,0.024,0.225,0.047,0.325,0.083c0.101,0.023,0.236,0,0.337,0.042c0.106,0.042,0.166,0.183,0.261,0.23
		c0.095,0.053,0.106,0.249,0.201,0.308c0.095,0.06,0.178,0.106,0.266,0.172c0.089,0.059,0.195,0.088,0.278,0.16
		c0.083,0.065,0.367-0.095,0.45-0.024c0.076,0.077,0.082,0.237,0.165,0.314c0.071,0.077,0.124,0.183,0.195,0.266
		c0.065,0.083,0.29,0.059,0.355,0.142c0.07,0.095-0.089,0.343-0.03,0.443c0.06,0.089,0.219,0.13,0.267,0.231
		c0.047,0.101-0.112,0.284-0.071,0.391c0.042,0.106,0.267,0.136,0.302,0.249c0.036,0.106,0.131,0.195,0.154,0.308
		c0.029,0.106,0.076,0.213,0.095,0.325c0.023,0.112-0.148,0.249-0.137,0.361c0.019,0.106,0.101,0.213,0.106,0.332
		c0.006,0.106-0.195,0.219-0.195,0.331c0,0.106,0.107,0.219,0.107,0.332c-0.013,0.106,0.13,0.23,0.118,0.343
		c-0.012,0.106-0.106,0.213-0.118,0.325c-0.024,0.106,0.106,0.249,0.094,0.355c-0.023,0.112-0.219,0.184-0.248,0.29
		c-0.023,0.112,0.189,0.29,0.166,0.396c-0.036,0.107-0.379,0.113-0.414,0.219c-0.042,0.106,0.153,0.296,0.106,0.402
		c-0.048,0.101-0.071,0.213-0.131,0.313c-0.047,0.101-0.083,0.219-0.136,0.313c-0.054,0.095-0.242,0.125-0.302,0.219
		C33.412,12.265,33.276,12.313,33.211,12.401z M25.626,12.869c0.095,0.036,0.201,0.077,0.313,0.124
		c0.089,0.042,0.267-0.077,0.367-0.023c0.095,0.042,0.172,0.136,0.272,0.183c0.101,0.042,0.118,0.278,0.219,0.32
		c0.106,0.035,0.201,0.095,0.308,0.13c0.101,0.042,0.267-0.095,0.373-0.065c0.101,0.036,0.225-0.006,0.331,0.018
		c0.106,0.024,0.184,0.249,0.302,0.26c0.112,0.012,0.248-0.26,0.367-0.26c0.106,0,0.225,0.296,0.343,0.29s0.213-0.201,0.331-0.219
		c0.112-0.012,0.237,0.035,0.344,0.018c0.118-0.023,0.225-0.077,0.331-0.112c0.106-0.024,0.272,0.118,0.379,0.083
		c0.112-0.036,0.195-0.166,0.308-0.208c0.106-0.041,0.147-0.242,0.254-0.278c0.101-0.047,0.344,0.201,0.444,0.148
		c0.106-0.047,0.136-0.266,0.236-0.326c0.106-0.053,0.248-0.023,0.343-0.088c0.106-0.059,0.154-0.195,0.249-0.26
		c0.101-0.065,0.195-0.136,0.284-0.208c0.094-0.071,0.13-0.207,0.213-0.284c0.089-0.083,0.325-0.018,0.402-0.101
		c0.076-0.089,0.047-0.278,0.106-0.367c0.07-0.095,0.219-0.148,0.271-0.243c0.06-0.101-0.095-0.308-0.047-0.414
		c0.047-0.106,0-0.237,0.041-0.343c0.042-0.106,0.42-0.095,0.444-0.207c0.035-0.112,0.07-0.231,0.095-0.343
		c0.023-0.112,0.059-0.23,0.082-0.349c0.013-0.106,0.024-0.23,0.042-0.349c0.006-0.112-0.006-0.242,0-0.349
		c0.006-0.118-0.018-0.236-0.018-0.355c0-0.112-0.231-0.219-0.237-0.331c0-0.118,0.178-0.243,0.172-0.355s-0.219-0.195-0.242-0.302
		c-0.012-0.106,0.183-0.266,0.159-0.373c-0.029-0.106-0.035-0.237-0.077-0.337c-0.041-0.101-0.42-0.047-0.473-0.136
		c-0.054-0.095,0.118-0.325,0.059-0.414c-0.059-0.083-0.331-0.012-0.402-0.095c-0.07-0.083,0.036-0.319-0.041-0.396
		c-0.077-0.077-0.112-0.207-0.195-0.278c-0.077-0.071-0.29,0.012-0.373-0.059c-0.082-0.065,0-0.367-0.088-0.432
		c-0.095-0.065-0.226-0.071-0.32-0.13c-0.089-0.065-0.337,0.142-0.438,0.088c-0.101-0.047-0.095-0.331-0.189-0.367
		c-0.106-0.047-0.195-0.171-0.296-0.201c-0.106-0.035-0.271,0.106-0.378,0.083c-0.107-0.024-0.237,0.095-0.35,0.083
		c-0.106-0.012-0.195-0.284-0.302-0.29c-0.112-0.006-0.236-0.006-0.343-0.006s-0.213,0.213-0.325,0.225
		c-0.113,0.012-0.243-0.189-0.35-0.177c-0.112,0.012-0.201,0.201-0.308,0.213c-0.106,0.023-0.178,0.213-0.284,0.243
		c-0.106,0.029-0.254-0.119-0.361-0.089c-0.106,0.036-0.207,0.071-0.313,0.112C27.555,5,27.449,5.029,27.342,5.071
		c-0.106,0.036-0.249-0.012-0.349,0.036s-0.142,0.213-0.243,0.26c-0.101,0.059-0.225,0.059-0.319,0.112S26.277,5.65,26.188,5.71
		c-0.101,0.065-0.201,0.101-0.29,0.166c-0.094,0.065-0.112,0.219-0.195,0.284c-0.089,0.071-0.249,0.047-0.332,0.118
		c-0.083,0.077-0.042,0.272-0.124,0.343C25.177,6.704,25,6.692,24.934,6.775c-0.077,0.083-0.083,0.207-0.147,0.295
		c-0.06,0.095-0.213,0.119-0.272,0.213s-0.106,0.189-0.154,0.29c-0.047,0.106-0.023,0.231-0.059,0.332
		c-0.047,0.106-0.189,0.166-0.225,0.272c-0.042,0.101-0.237,0.166-0.267,0.267c-0.029,0.112-0.065,0.225-0.083,0.337
		c-0.03,0.112,0,0.243-0.018,0.349c-0.018,0.112,0.278,0.249,0.272,0.355c0,0.118-0.113,0.213-0.106,0.325
		c0,0.113-0.024,0.219-0.006,0.332c0.018,0.112,0.213,0.171,0.243,0.278c0.03,0.107-0.201,0.284-0.166,0.391s0.189,0.16,0.237,0.26
		c0.047,0.106-0.095,0.314-0.036,0.408c0.059,0.089,0.29,0.077,0.355,0.172c0.065,0.083,0.189,0.124,0.26,0.213
		c0.065,0.083,0.154,0.142,0.237,0.225c0.071,0.071,0.023,0.284,0.106,0.361c0.083,0.077,0.213,0.089,0.302,0.16
		C25.49,12.662,25.538,12.81,25.626,12.869z"/>
	<path d="M28.567,10.194c0.064-0.059,0.254,0.012,0.331-0.047s0.201-0.095,0.266-0.166c0.077-0.071,0.06-0.272,0.083-0.361
		c0.03-0.106-0.178-0.272-0.147-0.379c0.023-0.106,0.354-0.136,0.385-0.249c0.023-0.106,0.13-0.195,0.153-0.302
		c0.023-0.112-0.106-0.248-0.077-0.355c0.018-0.112-0.183-0.272-0.159-0.378c0.018-0.106,0.402-0.142,0.426-0.254
		c0.023-0.106,0.047-0.219,0.071-0.325c0.018-0.107-0.278-0.284-0.249-0.391c0.018-0.106,0.213-0.219,0.237-0.332
		c-0.101-0.041-0.226,0.012-0.32-0.023c-0.047,0.095,0.042,0.213-0.006,0.308c-0.053,0.095-0.36,0.071-0.408,0.166
		c-0.047,0.095-0.059,0.213-0.106,0.32C29.011,7.52,29.141,7.68,29.117,7.78c-0.035,0.125-0.236,0.189-0.272,0.296
		c-0.047,0.119-0.195,0.154-0.26,0.249c-0.06,0.106-0.06,0.213-0.143,0.284c-0.095,0.077-0.059,0.414-0.177,0.456
		c-0.107,0.035-0.296-0.201-0.426-0.195c-0.106,0.012-0.213-0.101-0.343-0.106c-0.118-0.012-0.237,0.296-0.355,0.296
		s-0.225,0.053-0.343,0.059c-0.118,0.012-0.272-0.379-0.391-0.367c-0.118,0.018-0.177,0.414-0.295,0.432
		c-0.119,0.012-0.272-0.23-0.379-0.207c-0.118,0.012-0.225,0.089-0.343,0.095c-0.118,0.012-0.225,0.189-0.331,0.201
		c-0.13,0.006-0.308-0.012-0.438-0.047c-0.124-0.03-0.331-0.142-0.461-0.166c0.042-0.119,0.024-0.367,0.053-0.485
		c0.036-0.124,0.402-0.106,0.467-0.213c0.053-0.101-0.065-0.296-0.012-0.391c0.065-0.095,0.112-0.201,0.178-0.29
		c0.065-0.088,0.236-0.1,0.308-0.189c0.077-0.089,0.142-0.166,0.225-0.243c0.077-0.083,0.077-0.237,0.16-0.319
		c0.083-0.071,0.195-0.119,0.278-0.189c0.089-0.071,0.272-0.012,0.367-0.077c0.089-0.059,0.178-0.124,0.272-0.183
		c0.095-0.059,0.047-0.355,0.142-0.414c0.095-0.053,0.225-0.059,0.332-0.119c0.095-0.047,0.319,0.166,0.426,0.119
		c0.095-0.047,0.178-0.125,0.284-0.166c0.106-0.047,0.166-0.177,0.272-0.219s0.201-0.101,0.308-0.142
		c0.101-0.042,0.142-0.254,0.249-0.296c0.106-0.029,0.295,0.154,0.396,0.119c0.101-0.036,0.172-0.207,0.284-0.225
		c0.101-0.018,0.219,0.172,0.338,0.172c0.106,0,0.219-0.148,0.331-0.142c0.106,0.012,0.213,0.083,0.325,0.101
		c0.106,0.018,0.195,0.101,0.308,0.124c0.112,0.024,0.207,0.047,0.319,0.083c0.101,0.036,0.207,0.059,0.308,0.101
		c0.106,0.042,0.255-0.036,0.361,0.006c0.101,0.047,0.118,0.26,0.213,0.308c0.101,0.053,0.189,0.101,0.284,0.166
		c0.095,0.06,0.354-0.106,0.438-0.041c0.089,0.065,0.112,0.23,0.189,0.308c0.083,0.083,0.272,0.101,0.331,0.183
		c0.06,0.101,0.012,0.296,0.042,0.391c0.029,0.118-0.113,0.266-0.083,0.378c0.023,0.119,0.302,0.178,0.313,0.296
		c0.023,0.112,0.095,0.225,0.106,0.343s-0.319,0.26-0.313,0.378c0.006,0.119,0.219,0.231,0.207,0.343
		c0,0.119-0.236,0.213-0.249,0.332c-0.012,0.106,0.249,0.266,0.226,0.378c-0.024,0.113-0.125,0.213-0.154,0.332
		c-0.035,0.106-0.225,0.166-0.26,0.272c-0.042,0.112,0.183,0.332,0.136,0.444c-0.048,0.101-0.148,0.195-0.207,0.302
		c-0.054,0.095-0.243,0.124-0.308,0.219c-0.071,0.101,0.012,0.313-0.06,0.402c-0.07,0.089-0.189,0.154-0.271,0.243
		c-0.077,0.083-0.278,0.059-0.361,0.136c-0.083,0.083-0.154,0.177-0.242,0.254c-0.095,0.071-0.284,0-0.379,0.071
		c-0.095,0.059-0.036,0.391-0.13,0.45c-0.106,0.053-0.261,0.018-0.367,0.059c-0.106,0.047-0.207,0.142-0.313,0.178
		c-0.112,0.035-0.302-0.249-0.408-0.219c-0.118,0.024-0.207,0.077-0.325,0.089c-0.112,0.012-0.207,0.237-0.326,0.237
		c-0.13,0-0.188-0.154-0.26-0.189c-0.112-0.042-0.355,0.023-0.379-0.071c-0.023-0.094,0.143-0.236,0.154-0.349
		c0-0.101,0.089-0.195,0.095-0.302c0.006-0.113-0.013-0.207,0.023-0.32c0.029-0.106,0.059-0.225,0.095-0.331
		c0.023-0.112-0.118-0.249-0.118-0.355c0-0.118,0.041-0.201-0.013-0.308c-0.053-0.089,0.036-0.308-0.064-0.391
		C28.697,10.171,28.561,10.23,28.567,10.194z M30.661,6.112c-0.018,0.112-0.201,0.166-0.219,0.272
		c-0.023,0.106-0.095,0.201-0.118,0.313s0.083,0.243,0.059,0.355c-0.018,0.106,0.189,0.266,0.166,0.373
		c-0.023,0.106-0.354,0.147-0.379,0.254c-0.023,0.107-0.13,0.195-0.153,0.302c-0.023,0.113,0.101,0.249,0.071,0.361
		c-0.019,0.106,0.183,0.266,0.159,0.373c-0.018,0.106-0.408,0.136-0.432,0.249c-0.023,0.106-0.048,0.213-0.077,0.319
		c-0.018,0.106,0.267,0.284,0.242,0.391c-0.023,0.106-0.225,0.177-0.248,0.284c-0.023,0.107,0.083,0.237,0.054,0.349
		c-0.019,0.106,0.064,0.243,0.041,0.343c-0.023,0.112-0.331,0.154-0.349,0.254c-0.024,0.106-0.007,0.225-0.03,0.332
		c-0.023,0.106,0.124,0.249,0.106,0.355c-0.023,0.106-0.213,0.219-0.236,0.319c0.106,0.042,0.26,0.207,0.373,0.213
		c0.112,0.012,0.26-0.071,0.372-0.095c0.118-0.018,0.131-0.343,0.237-0.39c0.106-0.042,0.319,0.154,0.426,0.094
		c0.095-0.053,0.266-0.035,0.354-0.106c0.095-0.071-0.018-0.378,0.065-0.461c0.083-0.083,0.112-0.189,0.195-0.278
		c0.071-0.089,0.461,0.065,0.521-0.03c0.071-0.095-0.189-0.408-0.13-0.503c0.059-0.101,0.337-0.083,0.385-0.183
		c0.053-0.106,0.041-0.243,0.076-0.349c0.036-0.113-0.095-0.254-0.076-0.367c0.023-0.113,0.029-0.225,0.041-0.337
		c0.012-0.119,0.035-0.225,0.047-0.343c0.013-0.118-0.035-0.219-0.035-0.331c0-0.119,0.343-0.254,0.331-0.367
		c-0.012-0.118-0.23-0.213-0.26-0.319c-0.023-0.112-0.077-0.213-0.118-0.319c-0.048-0.106,0.018-0.272-0.042-0.367
		c-0.059-0.101-0.136-0.201-0.213-0.295c-0.077-0.083-0.242-0.083-0.331-0.16c-0.089-0.065-0.16-0.16-0.261-0.219
		c-0.095-0.059-0.136-0.254-0.242-0.302C30.934,6.035,30.773,6.153,30.661,6.112z M27.839,8.218c0.059-0.106,0.26-0.106,0.307-0.201
		c0.06-0.106,0.154-0.177,0.213-0.278c0.054-0.101-0.006-0.267,0.048-0.361c0.053-0.107-0.106-0.314-0.06-0.415
		c0.048-0.106,0.379-0.083,0.421-0.189c0.023-0.059,0.041-0.337-0.03-0.456c-0.077-0.136-0.379-0.219-0.402-0.213
		c-0.106,0.042-0.136,0.296-0.248,0.337c-0.106,0.047-0.349-0.254-0.462-0.213c-0.106,0.047-0.225,0.089-0.331,0.142
		c-0.101,0.047-0.065,0.39-0.171,0.443c-0.101,0.054-0.29-0.041-0.391,0.018s-0.125,0.23-0.219,0.302
		c-0.095,0.065-0.107,0.219-0.189,0.302c-0.089,0.077-0.367-0.047-0.45,0.035c-0.071,0.083-0.124,0.201-0.201,0.296
		c-0.065,0.089,0.018,0.284-0.047,0.385c-0.059,0.101-0.266,0.166-0.319,0.272c0.118-0.006,0.296,0.125,0.414,0.112
		c0.118-0.006,0.231-0.088,0.349-0.094c0.124-0.012,0.219-0.332,0.337-0.337c0.125-0.006,0.261,0.26,0.379,0.254
		c0.118-0.012,0.249,0.095,0.367,0.089c0.119-0.006,0.219-0.326,0.332-0.332C27.614,8.124,27.727,8.23,27.839,8.218z"/>
	<path d="M28.68,10.336c-0.048,0.106-0.048,0.26-0.095,0.367c-0.048,0.112-0.42,0.083-0.468,0.195
		c-0.047,0.112,0.16,0.325,0.124,0.444c-0.047,0.112,0.024,0.249-0.012,0.367c-0.035,0.136-0.396,0.118-0.443,0.213
		c-0.065,0.118-0.06,0.178-0.16,0.231c-0.094,0.053-0.142,0.295-0.284,0.302c-0.106,0.012-0.225-0.142-0.355-0.166
		c-0.118-0.012-0.272,0.13-0.379,0.095c-0.112-0.029-0.225-0.095-0.331-0.13c-0.106-0.047-0.142-0.26-0.243-0.308
		c-0.101-0.053-0.177-0.13-0.278-0.189c-0.095-0.071-0.13-0.178-0.213-0.26c-0.083-0.071-0.213-0.089-0.284-0.178
		c-0.071-0.089-0.154-0.166-0.219-0.26c-0.06-0.095-0.302-0.095-0.355-0.207c-0.053-0.101-0.136-0.207-0.172-0.325
		c-0.036-0.083-0.036-0.332-0.018-0.456c0.029-0.148,0.236-0.385,0.296-0.415c0.112-0.041,0.325,0.237,0.432,0.201
		c0.106-0.035,0.136-0.361,0.249-0.384c0.112-0.036,0.284,0.189,0.396,0.171c0.112-0.023,0.184-0.284,0.296-0.302
		c0.112-0.023,0.236-0.012,0.349-0.023c0.112-0.012,0.236,0.023,0.349,0.006c0.113-0.006,0.231-0.047,0.343-0.053
		s0.231-0.071,0.349-0.077c0.106-0.006,0.231,0.065,0.343,0.053c0.118,0,0.236,0.13,0.349,0.119c0.119,0,0.101,0.042,0.22,0.042
		c0,0.112-0.054,0.083-0.06,0.183c0,0.106,0.391,0.219,0.385,0.313c0,0.113-0.29,0.207-0.29,0.302
		C28.514,10.242,28.68,10.301,28.68,10.336z M25.497,10.259c0.035,0.101,0.142,0.083,0.189,0.184
		c0.047,0.095-0.201,0.367-0.142,0.456c0.06,0.095,0.355,0.03,0.415,0.112c0.071,0.089,0.213,0.095,0.284,0.166
		c0.083,0.083-0.047,0.42,0.036,0.474c0.106,0.071,0.26,0.106,0.355,0.13c0.118,0.036,0.201-0.177,0.284-0.242
		c0.1-0.065,0.272-0.042,0.343-0.136c0.071-0.083,0-0.272,0.059-0.379c0.054-0.094,0.13-0.177,0.178-0.29
		c0.059-0.101,0.272-0.13,0.319-0.237c0.053-0.101,0.142-0.254,0.201-0.349c-0.083-0.083-0.201-0.308-0.272-0.391
		c-0.106,0.012-0.284,0.107-0.391,0.119s-0.213,0.053-0.319,0.071c-0.106,0.012-0.184,0.237-0.296,0.254
		c-0.106,0.018-0.207,0.071-0.319,0.083c-0.106,0.018-0.213,0.029-0.32,0.042c-0.106,0.012-0.225-0.042-0.331-0.024
		C25.656,10.313,25.609,10.242,25.497,10.259z"/>
	<path d="M37.312,39.475c0.059,0.101,0.053,0.183,0.112,0.29c0.064,0.094,0.153,0.165,0.201,0.271
		c0.095,0.178,0.278,0.367,0.266,0.325c0.089-0.064,0.137-0.142,0.22-0.213c0.082-0.064,0.029-0.302,0.112-0.378
		c0.083-0.071,0.254-0.036,0.337-0.101c0.083-0.071,0.13-0.184,0.213-0.249c0.083-0.071,0.255-0.041,0.337-0.106
		c0.089-0.071,0.255-0.012,0.344-0.083c0.089-0.059,0.165-0.118,0.254-0.177c0.101-0.06,0.071-0.32,0.166-0.367
		c0.106-0.048,0.272,0.095,0.373,0.059c0.112-0.035,0.159-0.271,0.266-0.301c0.106-0.03,0.219-0.077,0.332-0.095
		c0.106-0.019,0.26,0.124,0.366,0.101c0.112-0.019,0.225-0.036,0.331-0.06c0.113-0.012,0.226-0.012,0.332-0.023
		c0.118-0.012,0.225-0.095,0.331-0.106c0.112-0.012,0.213-0.154,0.325-0.166s0.255,0.325,0.373,0.319
		c0.112-0.012,0.213-0.147,0.325-0.153c0.112-0.012,0.242,0.101,0.349,0.095c0.113-0.012,0.226-0.06,0.332-0.071
		c0.112-0.006,0.089-0.101,0.201-0.112c-0.03,0.112-0.089,0.089-0.118,0.195c-0.036,0.112,0.254,0.308,0.225,0.414
		c-0.03,0.118-0.178,0.195-0.201,0.308c-0.036,0.118-0.077,0.219-0.106,0.331c-0.023,0.112-0.296,0.154-0.332,0.272
		c-0.023,0.112,0.119,0.271,0.089,0.379c-0.029,0.106,0.101,0.26,0.065,0.372c-0.029,0.112-0.278,0.16-0.308,0.278
		c-0.029,0.106,0.189,0.284,0.16,0.391c-0.03,0.112-0.278,0.101-0.302,0.207c-0.119,0.006-0.06-0.06-0.178-0.054
		c-0.012-0.106-0.172-0.053-0.189-0.159c-0.012-0.101-0.154-0.195-0.178-0.296c-0.012-0.101,0.118-0.23,0.112-0.337
		c-0.006-0.107-0.142-0.22-0.136-0.326c0.012-0.118,0.272-0.219,0.261-0.313c-0.013-0.118-0.214-0.189-0.249-0.271
		c-0.047-0.113-0.118-0.077-0.207-0.125c-0.083-0.047-0.089-0.124-0.207-0.118c-0.095,0.006-0.16,0.077-0.272,0.112
		c-0.095,0.023-0.396-0.201-0.509-0.153c0.006,0.106,0.249,0.325,0.249,0.438c0.006,0.106,0.106,0.213,0.106,0.319
		c-0.012,0.112-0.355,0.195-0.367,0.302c-0.018,0.106,0.012,0.207-0.012,0.302c-0.023,0.106,0.166,0.284,0.118,0.379
		c-0.041,0.095-0.213,0.124-0.278,0.213c-0.064,0.083-0.029,0.284-0.112,0.354c-0.082,0.06-0.207,0.107-0.308,0.154
		c-0.095,0.041-0.26-0.095-0.366-0.06c-0.118,0.024-0.207,0.019-0.308,0.024c-0.112,0-0.178-0.06-0.272-0.095
		c-0.106-0.024-0.207,0.012-0.296-0.048c-0.083-0.059-0.166-0.101-0.242-0.189c-0.065-0.076-0.313-0.053-0.367-0.147
		c-0.053-0.089-0.147-0.184-0.195-0.29c-0.035-0.095,0.112-0.077,0.071-0.178c-0.023,0.101,0.077,0.036,0.047,0.143
		c-0.023,0.106-0.366,0.13-0.39,0.236c-0.03,0.101,0.242,0.284,0.213,0.391c-0.024,0.106-0.302,0.142-0.332,0.236
		c-0.035,0.106,0.166,0.284,0.131,0.385c-0.048,0.118-0.172,0.236-0.261,0.337c-0.089,0.095-0.236,0.166-0.319,0.261
		c-0.095-0.083-0.236-0.142-0.343-0.225c-0.107-0.083-0.261-0.154-0.326-0.261c-0.059-0.106-0.059-0.248-0.124-0.354
		c-0.059-0.101-0.012-0.272-0.071-0.379c-0.059-0.106-0.023-0.261-0.076-0.367c-0.054-0.112-0.101-0.201-0.148-0.319
		c-0.041-0.118-0.449-0.124-0.485-0.242c-0.018-0.101,0.267-0.231,0.284-0.338c0.023-0.095-0.041-0.225-0.006-0.319
		s0.236-0.13,0.278-0.225c0.035-0.095,0.035-0.083,0.059-0.178C37.223,39.527,37.193,39.463,37.312,39.475z"/>
	<path d="M44.606,40.876c0.018-0.118-0.278-0.165-0.249-0.271c0.018-0.118,0.106-0.213,0.13-0.319
		c0.03-0.112,0.071-0.22,0.089-0.332c0.024-0.106-0.047-0.236-0.029-0.343c0.023-0.106,0.13-0.207,0.142-0.313
		c0.019-0.112,0.189-0.201,0.208-0.313c0.012-0.118,0.064-0.213,0.088-0.308c0.012-0.118-0.006-0.225,0.024-0.319
		c0.023-0.119,0.023-0.22,0.064-0.308c0.054-0.106,0.077-0.201,0.16-0.261c0.077-0.06,0.13-0.313,0.248-0.331
		c0.095-0.012,0.237,0.118,0.355,0.13c0.101,0.012,0.225-0.023,0.343,0c0.095,0.012,0.178,0.166,0.296,0.189
		c0.095,0.023,0.048,0.077,0.154,0.106c-0.071,0.083-0.101-0.012-0.166,0.06c-0.083,0.082,0.029,0.325-0.029,0.39
		c-0.101,0.106-0.338,0.16-0.373,0.201c0.071,0.095,0.337,0.095,0.414,0.189c0.083,0.095,0.178,0.178,0.255,0.267
		c0.076,0.101,0.012,0.302,0.076,0.402c0.065,0.101,0.125,0.201,0.154,0.313c0.035,0.106,0.012,0.219-0.012,0.354
		c-0.023,0.125,0,0.261-0.054,0.379c-0.064,0.13-0.053,0.344-0.136,0.414c-0.095,0.083-0.391-0.13-0.479-0.077
		c-0.101,0.065-0.124,0.214-0.23,0.255s-0.225-0.054-0.344-0.035c-0.106,0.023-0.183,0.064-0.302,0.064
		c-0.112,0-0.2,0.018-0.313-0.006c-0.118-0.023-0.201-0.047-0.308-0.095C44.677,40.924,44.707,40.93,44.606,40.876z"/>
</g>
<g>
</g>
<g>
</g>
<g>
</g>
<g>
</g>
<g>
</g>
<g>
</g>
<g>
</g>
<g>
</g>
<g>
</g>
<g>
</g>
<g>
</g>
<g>
</g>
<g>
</g>
<g>
</g>
<g>
</g>
</svg>
