<?xml version="1.0" encoding="utf-8"?>
<!-- Generator: Adobe Illustrator 16.0.0, SVG Export Plug-In . SVG Version: 6.00 Build 0)  -->
<!DOCTYPE svg PUBLIC "-//W3C//DTD SVG 1.1//EN" "http://www.w3.org/Graphics/SVG/1.1/DTD/svg11.dtd">
<svg version="1.1" id="圖層_1" xmlns="http://www.w3.org/2000/svg" xmlns:xlink="http://www.w3.org/1999/xlink" x="0px" y="0px"
	 width="55px" height="55px" viewBox="0 0 55 55" enable-background="new 0 0 55 55" xml:space="preserve">
<g>
	<path d="M28.729,39.198c-0.063,0.09-0.068,0.23-0.136,0.314c-0.062,0.09-0.292,0.044-0.359,0.135
		c-0.067,0.078,0.034,0.298-0.033,0.382c-0.067,0.09-0.136,0.169-0.202,0.259c-0.062,0.084-0.225,0.09-0.292,0.179
		c-0.067,0.079-0.174,0.136-0.241,0.225c-0.067,0.079-0.191,0.124-0.252,0.208c-0.068,0.084-0.079,0.22-0.146,0.304
		c-0.067,0.084-0.034,0.241-0.101,0.331c-0.056,0.09-0.101,0.191-0.163,0.28c-0.062,0.09-0.112,0.181-0.168,0.271
		c-0.062,0.09-0.219,0.118-0.275,0.213c-0.056,0.09,0.006,0.253-0.05,0.343c-0.056,0.096-0.096,0.19-0.151,0.287
		c-0.048,0.095-0.329,0.078-0.379,0.174c-0.045,0.095,0.067,0.275,0.02,0.37c-0.045,0.102-0.314,0.106-0.354,0.208
		c-0.042,0.096-0.062,0.213-0.104,0.313c-0.042,0.097,0.099,0.271,0.059,0.371c-0.039,0.102-0.079,0.203-0.118,0.303
		c-0.037,0.107-0.037,0.22-0.07,0.326c-0.03,0.102,0.063,0.248,0.031,0.354c-0.034,0.102-0.216,0.162-0.244,0.264
		c-0.031,0.102-0.132,0.19-0.163,0.292c-0.028,0.102,0.051,0.236,0.022,0.348c-0.025,0.102-0.092,0.203-0.118,0.304
		c-0.023,0.106,0.112,0.247,0.092,0.349c-0.022,0.111-0.124,0.196-0.146,0.303c-0.02,0.112-0.009,0.219-0.028,0.325
		c-0.017,0.113-0.306,0.169-0.323,0.281c-0.017,0.107,0.303,0.265,0.289,0.371c-0.011,0.106-0.143,0.202-0.16,0.303
		c-0.022,0.107-0.04,0.214-0.062,0.314c-0.025,0.107-0.197,0.168-0.225,0.27c-0.034,0.102,0.166,0.287,0.132,0.382
		c-0.037,0.101-0.379,0.079-0.427,0.169c-0.048,0.096,0.033,0.253-0.02,0.337c-0.059,0.095-0.292,0.044-0.356,0.123
		c-0.064,0.09,0.112,0.377,0.04,0.449c-0.076,0.078-0.129,0.196-0.211,0.259c-0.084,0.067-0.27,0-0.356,0.067
		c-0.087,0.056-0.106,0.235-0.199,0.292c-0.09,0.05-0.34-0.214-0.433-0.169c-0.095,0.039-0.149,0.157-0.25,0.203
		c-0.096,0.032-0.194,0.066-0.292,0.1c-0.095,0.034-0.18,0.118-0.281,0.146c-0.101,0.034-0.219,0-0.323,0.028
		c-0.101,0.028-0.197,0.073-0.297,0.107c-0.11,0.033-0.146,0.303-0.253,0.336c-0.109,0.034-0.225,0.046-0.332,0.079
		c-0.106,0.034-0.309-0.236-0.418-0.208c-0.107,0.034-0.113,0.41-0.219,0.438c-0.106,0.033-0.27-0.097-0.376-0.073
		c-0.107,0.034-0.183,0.191-0.292,0.219c-0.11,0.028-0.205,0.129-0.315,0.158c-0.087,0.017-0.225-0.176-0.32-0.186
		c-0.09-0.006-0.219,0.151-0.309,0.135c-0.093-0.023-0.121-0.22-0.211-0.231c0.02-0.095,0.002-0.174,0.017-0.274
		c0.011-0.107-0.014-0.214,0.011-0.314c0.025-0.112-0.017-0.314,0.054-0.382c0.079-0.067,0.236-0.057,0.32-0.124
		c0.079-0.072,0.188-0.101,0.272-0.168c0.082-0.067,0.118-0.191,0.203-0.259c0.081-0.067,0.121-0.19,0.202-0.258
		c0.084-0.068,0.356,0.112,0.438,0.045c0.083-0.067,0.185-0.113,0.269-0.181c0.082-0.061-0.07-0.415,0.011-0.482
		c0.084-0.066,0.286,0.012,0.365-0.066c0.079-0.068,0.05-0.248,0.124-0.326c0.067-0.063,0.351,0.056,0.41-0.034
		c0.059-0.079,0.079-0.19,0.129-0.28c0.045-0.091,0.118-0.18,0.152-0.27c0.036-0.09-0.253-0.281-0.228-0.371
		c0.025-0.101,0.059-0.163,0.067-0.253c0.009-0.106,0.385-0.19,0.394-0.303c0.005-0.112-0.298-0.242-0.292-0.354
		c0.008-0.113,0.146-0.208,0.148-0.32c0.006-0.112,0.057-0.219,0.059-0.326c0.006-0.112-0.157-0.23-0.152-0.337
		c0.003-0.106,0.203-0.213,0.203-0.32c0.002-0.111-0.008-0.225-0.008-0.331c0-0.112-0.023-0.22-0.017-0.331
		c0-0.113-0.247-0.22-0.247-0.331c0-0.113,0.317-0.22,0.317-0.331c0-0.113-0.062-0.22-0.062-0.332c0-0.106,0.073-0.219,0.07-0.331
		c-0.006-0.102-0.084-0.214-0.104-0.31c-0.02-0.095-0.008-0.218-0.042-0.314c-0.031-0.095-0.267-0.111-0.309-0.202
		c-0.042-0.09-0.098-0.168-0.146-0.264c-0.045-0.09-0.101-0.169-0.149-0.259c-0.053-0.089-0.095-0.19-0.143-0.28
		c-0.054-0.09,0.14-0.314,0.087-0.403c-0.051-0.097-0.34-0.058-0.39-0.158c-0.048-0.09-0.063-0.202-0.107-0.298
		c-0.051-0.095-0.011-0.229-0.059-0.319c-0.045-0.102-0.196-0.146-0.238-0.241c-0.042-0.097-0.174-0.164-0.211-0.265
		s0.298-0.325,0.264-0.427c-0.034-0.101-0.2-0.157-0.222-0.258c-0.025-0.102-0.297-0.146-0.32-0.259
		c-0.02-0.101-0.045-0.214-0.062-0.32c-0.017-0.106,0.129-0.23,0.121-0.343c-0.008-0.101-0.084-0.208-0.087-0.314
		c-0.006-0.101,0.284-0.213,0.281-0.314c0-0.111-0.289-0.213-0.287-0.325c0.006-0.102-0.044-0.213-0.036-0.32
		s-0.017-0.219-0.003-0.32c0.011-0.101,0.351-0.169,0.368-0.27c0.017-0.101-0.109-0.235-0.087-0.331
		c0.02-0.106-0.062-0.23-0.036-0.331c0.022-0.102,0.084-0.203,0.109-0.298c0.031-0.106-0.017-0.229,0.017-0.326
		c0.034-0.101,0.115-0.186,0.148-0.286s0.202-0.146,0.242-0.247c0.036-0.102,0.143-0.169,0.185-0.269
		c0.042-0.091,0.16-0.146,0.202-0.248c0.042-0.09-0.053-0.247-0.008-0.348c0.045-0.09,0.219-0.124,0.27-0.214
		c0.045-0.089,0.02-0.225,0.07-0.314c0.05-0.09-0.155-0.32-0.104-0.41c0.051-0.096,0.185-0.14,0.239-0.23
		c0.056-0.09,0.183-0.134,0.236-0.225c0.056-0.09,0.047-0.213,0.101-0.303c0.053-0.096,0.244-0.102,0.297-0.19
		c0.053-0.09,0.09-0.191,0.144-0.275c0.053-0.096,0.101-0.186,0.154-0.275c0.053-0.09,0.033-0.23,0.087-0.32
		c0.056-0.096,0.292-0.096,0.342-0.185c0.054-0.102-0.129-0.315-0.087-0.405c0.045-0.106,0.242-0.146,0.272-0.247
		c0.034-0.101-0.044-0.235-0.025-0.348c0.022-0.106-0.023-0.214-0.02-0.326c0.005-0.101,0.014-0.202,0-0.309
		c-0.012-0.106-0.045-0.196-0.073-0.309c-0.025-0.102,0.126-0.259,0.09-0.36c-0.034-0.1-0.306-0.111-0.351-0.218
		c-0.042-0.096,0.247-0.343,0.202-0.433c-0.045-0.096-0.421-0.023-0.466-0.113c-0.051-0.089-0.022-0.225-0.076-0.313
		c-0.054-0.09-0.137-0.152-0.194-0.236c-0.059-0.09,0.124-0.348,0.062-0.438c-0.062-0.079-0.194-0.124-0.255-0.202
		c-0.067-0.079-0.096-0.203-0.163-0.27c-0.07-0.079-0.186-0.124-0.261-0.202c-0.071-0.067-0.135-0.157-0.211-0.236
		c-0.073-0.067-0.255-0.034-0.331-0.101c-0.074-0.073-0.015-0.292-0.093-0.359c-0.078-0.073-0.188-0.106-0.267-0.18
		c-0.079-0.067-0.177-0.112-0.255-0.18s-0.112-0.191-0.191-0.258s-0.247-0.034-0.326-0.101c-0.087-0.067-0.112-0.202-0.194-0.275
		c-0.084-0.073-0.208-0.101-0.287-0.18c-0.078-0.073-0.278-0.028-0.356-0.106s0.017-0.331-0.062-0.41
		c-0.079-0.079-0.115-0.191-0.194-0.275c-0.073-0.079-0.27-0.051-0.342-0.135c-0.076-0.079-0.034-0.27-0.104-0.348
		c-0.073-0.084-0.245-0.084-0.317-0.169c-0.076-0.079-0.025-0.269-0.101-0.354c-0.073-0.084-0.329-0.005-0.401-0.096
		c-0.073-0.079-0.23-0.089-0.306-0.168c-0.07-0.079,0.163-0.371,0.118-0.449c-0.053-0.096-0.351-0.062-0.376-0.152
		c-0.03-0.102,0.132-0.23,0.127-0.331c-0.003-0.096-0.248-0.236-0.222-0.332c0.02-0.095,0.16-0.185,0.203-0.274
		c0.042-0.09,0.306-0.045,0.359-0.129c0.054-0.084,0.014-0.219,0.079-0.298c0.067-0.079,0.177-0.124,0.247-0.202
		c0.07-0.078,0.126-0.168,0.191-0.247c0.07-0.079-0.034-0.309,0.034-0.388c0.068-0.079,0.388,0.068,0.458-0.011
		c0.073-0.079-0.064-0.343,0.006-0.421c0.07-0.079,0.176-0.118,0.247-0.197s0.281-0.022,0.354-0.101
		c0.07-0.079,0.141-0.157,0.205-0.236c0.07-0.079,0.163-0.14,0.233-0.219s-0.126-0.393-0.057-0.472
		c0.073-0.078,0.191-0.112,0.262-0.19c0.07-0.079,0.295-0.017,0.365-0.096c0.07-0.079,0.034-0.252,0.098-0.331
		c0.07-0.079,0.264-0.045,0.332-0.124c0.07-0.079,0.011-0.27,0.079-0.349c0.067-0.078,0.306-0.011,0.374-0.089
		c0.07-0.09-0.155-0.371-0.104-0.472c0.048-0.101,0.239-0.134,0.281-0.235c0.036-0.102-0.059-0.258-0.017-0.36
		c0.042-0.106,0.325-0.089,0.379-0.179c0.059-0.101-0.062-0.326,0.017-0.394c0.084-0.073,0.095-0.202,0.171-0.281
		c0.079-0.073,0.404,0.084,0.475,0.006c0.07-0.084,0.157-0.168,0.216-0.253c0.062-0.09-0.129-0.348-0.076-0.438
		c0.054-0.095,0.037-0.213,0.087-0.303c0.045-0.101,0.096-0.18,0.132-0.281c0.037-0.101,0.242-0.135,0.27-0.236
		c0.034-0.101-0.14-0.247-0.115-0.354c0.025-0.106,0.14-0.174,0.157-0.286c0.02-0.101-0.039-0.213-0.022-0.314
		c0.014-0.107,0.171-0.191,0.183-0.303c0.008-0.101-0.151-0.213-0.149-0.326c0.008-0.107,0.245-0.197,0.248-0.303
		c0.005-0.112,0.104-0.213,0.109-0.32c0.003-0.107,0.025-0.208,0.025-0.32c0-0.107-0.067-0.337-0.067-0.438
		c-0.096,0.039-0.199,0.371-0.29,0.416c-0.095,0.045-0.216,0.028-0.312,0.073c-0.093,0.051-0.188,0.107-0.284,0.146
		c-0.098,0.04-0.272-0.151-0.374-0.129c-0.101,0.023-0.185,0.337-0.284,0.337c-0.095-0.005-0.191-0.208-0.286-0.241
		c-0.09-0.028-0.106-0.208-0.199-0.264c-0.082-0.045-0.334,0.191-0.416,0.14c-0.084-0.05-0.104-0.202-0.188-0.252
		c-0.081-0.051-0.18-0.157-0.267-0.203c0.07-0.089,0.022-0.297,0.087-0.404c0.062-0.112,0.197-0.191,0.267-0.281
		c0.076-0.102,0.202-0.202,0.307-0.259c0.095-0.062,0.171-0.14,0.261-0.202c0.09-0.057,0.185-0.107,0.278-0.169
		c0.09-0.056,0.261,0.012,0.352-0.045c0.095-0.05,0.095-0.28,0.191-0.331c0.095-0.05,0.275,0.073,0.376,0.028
		c0.098-0.045,0.196-0.079,0.3-0.107s0.171-0.253,0.278-0.275c0.104-0.012,0.23-0.023,0.343-0.029
		c0.115-0.005,0.244,0.175,0.348,0.152c0.112-0.028,0.194-0.123,0.284-0.168c0.101-0.057,0.292-0.023,0.365-0.101
		c0.076-0.079,0.154-0.203,0.203-0.303c0.044-0.09-0.045-0.253-0.02-0.36c0.02-0.101,0.028-0.208,0.034-0.326
		c0.003-0.101,0.09-0.213,0.079-0.331c-0.014-0.107,0.011-0.23-0.014-0.343c-0.02-0.101-0.334-0.135-0.368-0.242
		c-0.028-0.106,0.014-0.219-0.028-0.325c-0.037-0.101,0.126-0.264,0.098-0.365c-0.033-0.101-0.017-0.208-0.036-0.303
		c-0.025-0.101-0.21-0.168-0.225-0.27c-0.011-0.112,0.199-0.225,0.199-0.32c0-0.106-0.317-0.23-0.306-0.331
		c0.011-0.101,0.252-0.158,0.286-0.258c0.034-0.101,0.152-0.129,0.202-0.225c0.05-0.09-0.157-0.349-0.092-0.427
		c0.067-0.078,0.261-0.044,0.345-0.106c0.079-0.067,0.202-0.04,0.297-0.101c0.082-0.051,0.028-0.388,0.124-0.433
		c0.09-0.044,0.239,0.011,0.34-0.022c0.096-0.034,0.194-0.101,0.297-0.124c0.104-0.022,0.203-0.089,0.307-0.112
		c0.104-0.028,0.213-0.044,0.317-0.067c0.104-0.022,0.236,0.067,0.343,0.045c0.109-0.022,0.252,0.151,0.356,0.134
		c0.107-0.022,0.208-0.067,0.314-0.089c0.106-0.017,0.202-0.09,0.309-0.112c0.112-0.017,0.196-0.146,0.297-0.169
		c0.106-0.011,0.219,0,0.331-0.022c0.102-0.017,0.242,0.168,0.349,0.146c0.106-0.012,0.168-0.32,0.281-0.332
		c0.101-0.017,0.225,0.05,0.331,0.04c0.106-0.023,0.219-0.006,0.326-0.023c0.106-0.017,0.196-0.129,0.309-0.146
		c0.106-0.011,0.202-0.089,0.309-0.112c0.096-0.011,0.22,0.129,0.32,0.112c0.101-0.022,0.196-0.067,0.292-0.089
		c0.101-0.023,0.225,0.056,0.325,0.044c0.097-0.022,0.181-0.157,0.281-0.174c0.096-0.011,0.207,0.23,0.314,0.23
		c0.096,0,0.18-0.057,0.281-0.045c0.101,0.012,0.27-0.28,0.364-0.247c0.097,0.022,0.13,0.247,0.23,0.292
		c0.101,0.045,0.214,0.056,0.304,0.112c0.101,0.056,0.157,0.157,0.236,0.225c0.089,0.067,0.056,0.219,0.123,0.297
		c0.067,0.084,0.387,0,0.426,0.107c0.046,0.09-0.05,0.247-0.033,0.359c0.017,0.101,0.057,0.208,0.057,0.326
		c0,0.101,0.095,0.202,0.095,0.309c0.007,0.106,0.063,0.208,0.067,0.308c0.007,0.102-0.348,0.22-0.343,0.326
		c0,0.101,0.063,0.208,0.067,0.314c0,0.102,0.029,0.208,0.034,0.315c0,0.101-0.034,0.213-0.034,0.314s0.169,0.208,0.169,0.314
		c0,0.101-0.123,0.202-0.123,0.314c0,0.101,0.084,0.208,0.078,0.315c0,0.101,0.012,0.202,0.023,0.297
		c0,0.106-0.068,0.225-0.058,0.314c0.023,0.107,0.181,0.163,0.22,0.253c0.045,0.089,0.13,0.101,0.208,0.168
		c0.067,0.067,0.089,0.146,0.196,0.191c0.084,0.034,0.117,0.286,0.23,0.303c0.09,0.022,0.213-0.017,0.326-0.011
		c0.111,0.011,0.258-0.225,0.359-0.213c0.111,0.017,0.213,0.124,0.325,0.141c0.107,0.022,0.219,0.051,0.325,0.079
		c0.113,0.028,0.248-0.045,0.349-0.017c0.112,0.034,0.18,0.19,0.292,0.225c0.101,0.034,0.241-0.034,0.348-0.006
		c0.112,0.034,0.175,0.191,0.281,0.225c0.112,0.034,0.213,0.079,0.314,0.112c0.084,0.028,0.27-0.022,0.337,0.05
		c0.057,0.068-0.129,0.337-0.078,0.416c0.056,0.079,0.123,0.045,0.179,0.112c-0.078,0.062-0.011,0.169-0.09,0.248
		c-0.072,0.067-0.056,0.27-0.128,0.331c-0.085,0.067-0.265,0.084-0.366,0.107c-0.112,0.011-0.24-0.236-0.358-0.236
		c-0.113-0.011-0.236,0.146-0.354,0.135c-0.118-0.012-0.225-0.067-0.343-0.067c-0.111-0.011-0.225,0.022-0.336,0.044
		c-0.079,0.011-0.118,0.135-0.214,0.191c-0.09,0.057-0.325-0.067-0.393,0c-0.085,0.096-0.09,0.27-0.09,0.349
		c0,0.106,0.229,0.202,0.235,0.314c0,0.106-0.337,0.235-0.331,0.337c0.005,0.112,0.274,0.191,0.286,0.298
		c0.011,0.106-0.124,0.23-0.107,0.337c0.017,0.106,0.186,0.185,0.208,0.286c0.017,0.112,0,0.213,0.023,0.32
		c0.027,0.106-0.034,0.23,0,0.331c0.027,0.101-0.102,0.258-0.073,0.359c0.033,0.101,0.117,0.191,0.157,0.292
		c0.039,0.101,0.219,0.146,0.264,0.247c0.039,0.101,0.034,0.219,0.078,0.315c0.045,0.089-0.034,0.269,0.012,0.359
		c0.056,0.09,0.202,0.135,0.264,0.225c0.057,0.09,0.151,0.163,0.208,0.258c0.062,0.079,0.186,0.124,0.247,0.213
		c0.067,0.079,0.051,0.236,0.124,0.314c0.067,0.084,0.207,0.101,0.28,0.18c0.079,0.079,0.169,0.135,0.247,0.202
		c0.073,0.079,0.096,0.213,0.18,0.281c0.078,0.068,0.191,0.102,0.28,0.168c0.085,0.067,0.079,0.253,0.169,0.315
		c0.085,0.067,0.169,0.134,0.259,0.196s0.37-0.152,0.46-0.084c0.09,0.056-0.045,0.438,0.04,0.5c0.084,0.068,0.19,0.107,0.274,0.174
		c0.09,0.067,0.281,0,0.359,0.067c0.09,0.067,0.079,0.247,0.168,0.314c0.079,0.067,0.157,0.146,0.248,0.213
		c0.078,0.067,0.309-0.028,0.393,0.045c0.079,0.067,0.219,0.079,0.304,0.157c0.078,0.067-0.056,0.393,0.022,0.46
		c0.084,0.073,0.246,0.056,0.325,0.135c0.079,0.073,0.292,0,0.37,0.079c0.079,0.073,0.046,0.275,0.125,0.348
		c0.078,0.079,0.033,0.281,0.111,0.359c0.067,0.062,0.225,0.034,0.271,0.157c0.033,0.096,0.067,0.202,0.084,0.314
		s0.162,0.236,0.157,0.337c-0.007,0.135-0.265,0.151-0.32,0.225c-0.057,0.09-0.146,0.157-0.203,0.247
		c-0.066,0.084,0.058,0.304-0.005,0.393c-0.062,0.084-0.062,0.225-0.123,0.309c-0.068,0.084-0.259,0.073-0.321,0.163
		c-0.066,0.083-0.072,0.213-0.14,0.303c-0.062,0.084-0.31,0.022-0.376,0.112c-0.067,0.078-0.051,0.235-0.112,0.314
		c-0.067,0.09,0.067,0.337,0,0.416c-0.067,0.084-0.337,0.012-0.399,0.09c-0.067,0.089-0.225,0.101-0.292,0.185
		c-0.062,0.084-0.045,0.241-0.106,0.32c-0.067,0.084-0.017,0.264-0.079,0.349c-0.067,0.09-0.225,0.101-0.292,0.191
		c-0.066,0.084,0.04,0.292-0.021,0.382c-0.068,0.089-0.226,0.101-0.293,0.185c-0.056,0.084-0.213,0.107-0.274,0.197
		s0.039,0.281-0.018,0.371c-0.061,0.095-0.319,0.056-0.375,0.146c-0.057,0.09,0.083,0.303,0.027,0.393
		c-0.056,0.09-0.191,0.129-0.247,0.225c-0.056,0.09-0.084,0.203-0.146,0.292c-0.051,0.09-0.319,0.056-0.37,0.146
		c-0.063,0.09,0.063,0.286,0.006,0.376c-0.062,0.095-0.225,0.106-0.281,0.197c-0.062,0.089,0.028,0.28-0.028,0.37
		c-0.056,0.09-0.067,0.202-0.123,0.292c-0.057,0.09-0.247,0.101-0.292,0.191c-0.057,0.089-0.235,0.135-0.27,0.224
		c-0.045,0.102,0.252,0.326,0.219,0.428c-0.027,0.101-0.141,0.168-0.163,0.269c-0.021,0.102,0.029,0.214,0.012,0.315
		c-0.017,0.102-0.045,0.19-0.051,0.292c-0.006,0.106-0.151,0.208-0.151,0.314c0.012,0.102,0.028,0.202,0.039,0.314
		c0.017,0.101,0.017,0.202,0.039,0.314c0.017,0.101-0.056,0.225-0.033,0.331c0.022,0.096,0.27,0.151,0.303,0.247
		c0.028,0.096,0.113,0.175,0.146,0.281c0.033,0.096-0.258,0.304-0.225,0.403c0.033,0.102,0.141,0.181,0.18,0.275
		c0.034,0.102,0.236,0.141,0.27,0.236c0.033,0.102,0.124,0.19,0.157,0.292c0.045,0.095-0.146,0.28-0.112,0.382
		c0.033,0.102,0.169,0.169,0.202,0.27c0.034,0.106,0.18,0.168,0.213,0.275c0.034,0.106-0.089,0.252-0.056,0.354
		c0.022,0.102-0.123,0.259-0.102,0.359c0.034,0.102,0.22,0.163,0.242,0.27c0.028,0.101-0.062,0.225-0.039,0.337
		c0.021,0.102,0.348,0.146,0.37,0.253c0.017,0.106,0.067,0.208,0.09,0.314s-0.157,0.241-0.146,0.354
		c0.021,0.102,0.096,0.202,0.106,0.304c0.017,0.111,0.174,0.202,0.186,0.303c0.011,0.112-0.36,0.258-0.354,0.359
		c0.006,0.113,0.388,0.186,0.399,0.292c0.011,0.106-0.326,0.236-0.32,0.343c0.005,0.106,0.354,0.196,0.359,0.309
		c0.005,0.102-0.197,0.214-0.197,0.326c0,0.106-0.027,0.213-0.027,0.319c0,0.107-0.051,0.208-0.051,0.321
		c-0.005,0.106,0.146,0.218,0.141,0.325c-0.006,0.106-0.046,0.213-0.051,0.32c-0.012,0.106,0.102,0.219,0.084,0.331
		c-0.011,0.106-0.186,0.19-0.202,0.304c-0.011,0.101,0.13,0.235,0.118,0.336c-0.017,0.107,0.012,0.225,0,0.326
		c-0.017,0.112-0.213,0.186-0.229,0.292c-0.018,0.102,0.117,0.247,0.095,0.348c-0.022,0.102-0.045,0.214-0.067,0.321
		c-0.022,0.089-0.078,0.186-0.102,0.285c-0.022,0.091-0.336,0.107-0.365,0.197c-0.033,0.095-0.044,0.185-0.084,0.27
		c-0.039,0.09,0.158,0.32,0.102,0.393c-0.057,0.085-0.146,0.197-0.219,0.253c-0.084,0.073-0.174,0.102-0.248,0.18
		c-0.072,0.079-0.364,0-0.421,0.084c-0.056,0.09,0.107,0.298,0.068,0.399c-0.039,0.101,0,0.207-0.022,0.313
		c-0.023,0.102-0.017,0.191-0.034,0.304c-0.012,0.102-0.27,0.18-0.281,0.286c-0.011,0.107-0.101,0.209-0.111,0.32
		c0,0.113,0.207,0.225,0.202,0.338c-0.012,0.111-0.169,0.213-0.181,0.314c-0.011,0.111,0.186,0.246,0.169,0.348
		c-0.012,0.112-0.034,0.225-0.045,0.326c-0.011,0.111,0.022,0.229,0.006,0.336c-0.012,0.113-0.118,0.208-0.135,0.314
		c-0.017,0.112,0.111,0.236,0.095,0.349s-0.123,0.202-0.141,0.314c-0.017,0.106-0.027,0.22-0.039,0.326
		c-0.021,0.117-0.313,0.19-0.325,0.286c-0.017,0.117,0.236,0.253,0.225,0.348c-0.006,0.124-0.275,0.248-0.27,0.343
		c0.017,0.112,0.224,0.202,0.281,0.292c0.044,0.084,0.128,0.157,0.225,0.225c0.078,0.056,0.168,0.112,0.28,0.163
		c0.09,0.039,0.225-0.017,0.337,0.027c0.09,0.034,0.101,0.314,0.214,0.349c0.106,0.04,0.235,0.022,0.336,0.062
		c0.113,0.039,0.315-0.195,0.416-0.156c0.112,0.039,0.146,0.264,0.247,0.309c0.112,0.033,0.213,0.09,0.314,0.135
		c0.102,0.039,0.27-0.057,0.37-0.012c0.102,0.045,0.181,0.157,0.287,0.203c0.106,0.044,0.118,0.28,0.219,0.324
		c0.102,0.058,0.124,0.113,0.202,0.203c0.079,0.089,0.371,0,0.438,0.101c0.067,0.09,0.022,0.236,0.102,0.326
		c-0.091,0.039-0.169,0-0.259,0.044c-0.084,0.046-0.057,0.315-0.146,0.36c-0.084,0.045-0.225-0.006-0.314,0.028
		c-0.09,0.039-0.241-0.186-0.337-0.164c-0.106,0.018-0.202,0.085-0.314,0.102s-0.174,0.388-0.28,0.405
		c-0.112,0.017-0.247-0.102-0.354-0.09c-0.113,0.011-0.231-0.046-0.343-0.034c-0.113,0-0.225-0.101-0.338-0.101
		c-0.106,0-0.218,0.135-0.331,0.128c-0.111-0.005-0.219,0.034-0.331,0.028c-0.112,0-0.229,0.079-0.343,0.079
		c-0.112-0.006-0.219-0.006-0.331-0.011c-0.112-0.012-0.197-0.371-0.309-0.377c-0.113-0.005-0.242,0.208-0.354,0.196
		c-0.112-0.011-0.201-0.168-0.309-0.18c-0.112-0.021-0.219,0-0.332-0.021c-0.106-0.023-0.201-0.079-0.313-0.102
		c-0.106-0.023-0.281,0.201-0.394,0.18c-0.084-0.028-0.066-0.303-0.146-0.394c-0.056-0.073-0.174-0.112-0.225-0.208
		c-0.051-0.083-0.057-0.196-0.096-0.297c-0.039-0.096-0.275-0.129-0.298-0.225c-0.034-0.102-0.022-0.225-0.044-0.326
		c-0.023-0.102-0.097-0.191-0.125-0.298c-0.021-0.106-0.09-0.207-0.111-0.309c-0.022-0.102,0.111-0.241,0.09-0.348
		c-0.022-0.102,0.078-0.236,0.056-0.337c-0.022-0.107-0.314-0.158-0.331-0.265c-0.022-0.106,0.202-0.264,0.174-0.365
		c-0.017-0.101,0.028-0.225,0.012-0.325c-0.022-0.102-0.271-0.169-0.292-0.27c-0.022-0.107-0.006-0.225-0.022-0.325
		c-0.023-0.106-0.157-0.191-0.181-0.292c-0.021-0.113,0.191-0.253,0.175-0.36c-0.018-0.111-0.039-0.213-0.057-0.319
		c-0.021-0.107-0.129-0.186-0.151-0.287c-0.011-0.106,0.19-0.235,0.18-0.342c-0.011-0.107-0.056-0.203-0.067-0.298
		c-0.012-0.106-0.146-0.19-0.157-0.298s-0.011-0.207-0.028-0.309c-0.011-0.102,0.102-0.23,0.085-0.331
		c-0.018-0.107-0.259-0.163-0.281-0.27c-0.017-0.107,0.196-0.254,0.175-0.354c-0.022-0.09-0.264-0.129-0.31-0.225
		c-0.045-0.084-0.213-0.078-0.27-0.157c-0.057-0.078,0.09-0.319,0.033-0.393c-0.067-0.079-0.09-0.19-0.157-0.265
		c-0.067-0.072-0.118-0.174-0.19-0.241c-0.067-0.078-0.129-0.157-0.202-0.235c-0.067-0.074-0.314,0.011-0.388-0.067
		c-0.062-0.079-0.084-0.197-0.151-0.275c-0.062-0.079,0.022-0.264-0.039-0.348c-0.063-0.085-0.186-0.106-0.241-0.197
		c-0.057-0.085-0.287-0.067-0.332-0.163c-0.05-0.089,0.028-0.241-0.017-0.331c-0.033-0.101-0.084-0.19-0.112-0.281
		c-0.034-0.101-0.27-0.157-0.292-0.258c-0.011-0.101,0.32-0.247,0.314-0.354c-0.012-0.096,0-0.186,0-0.292
		c0.006-0.102,0.022-0.186,0.034-0.286C28.932,39.35,28.724,39.153,28.729,39.198z M29.302,35.604c0,0.123,0.079,0.252,0.079,0.358
		c-0.006,0.125-0.22,0.236-0.225,0.35c0,0.123,0.213,0.235,0.213,0.353c0,0.118,0.012,0.22,0.034,0.332
		c0.021,0.101-0.079,0.225-0.057,0.325c0.018,0.102-0.017,0.213,0.006,0.314c0.017,0.102-0.034,0.214-0.017,0.32
		c0.021,0.106,0.111,0.186,0.135,0.286c0.017,0.107,0.146,0.186,0.168,0.281c0.022,0.102,0.067,0.202,0.09,0.303
		c0.022,0.102,0.057,0.197,0.073,0.304c0.017,0.095-0.073,0.225-0.051,0.326c0.017,0.095,0.174,0.168,0.202,0.269
		c0.018,0.102,0.051,0.203,0.078,0.298c0.023,0.096-0.213,0.265-0.185,0.359c0.027,0.102,0.219,0.163,0.241,0.265
		c0.028,0.095-0.18,0.258-0.157,0.358c0.022,0.102,0.079,0.191,0.101,0.292c0.034,0.113,0.248,0.169,0.287,0.265
		c0.039,0.106,0.084,0.208,0.129,0.298c0.057,0.106,0.146,0.174,0.214,0.258c0.067,0.09,0.218,0.057,0.303,0.129
		c0.079,0.073,0.063,0.253,0.157,0.304c0.096,0.051,0.169,0.162,0.27,0.201c0.102,0.034,0.236-0.049,0.349-0.027
		c0.101,0.018,0.202,0.067,0.32,0.067c0.106,0.006,0.201-0.163,0.319-0.168c0.112-0.012,0.225,0.067,0.338,0.05
		c0.111-0.011,0.213-0.062,0.319-0.072c0.112-0.012,0.265,0.247,0.371,0.225c0.111-0.023,0.157-0.371,0.264-0.394
		c0.111-0.022,0.241,0.067,0.348,0.046c0.113-0.023,0.213-0.051,0.326-0.079c0.101-0.022,0.247,0.084,0.359,0.056
		c0.106-0.027,0.146-0.298,0.247-0.326c0.09-0.021,0.304,0.225,0.382,0.158c0.079-0.051,0.056-0.236,0.123-0.304
		s0.304-0.022,0.354-0.101c0.051-0.085-0.191-0.32-0.163-0.404c0.033-0.102,0.017-0.202,0.045-0.304
		c0.033-0.102,0.213-0.146,0.241-0.247c0.028-0.101-0.09-0.236-0.072-0.337c0.027-0.102,0.387-0.135,0.403-0.235
		c0.022-0.102-0.044-0.22-0.033-0.326c0.017-0.101,0.033-0.202,0.051-0.304c0.011-0.106-0.028-0.218-0.022-0.325
		c0.005-0.101,0.084-0.202,0.095-0.303c0-0.107-0.011-0.215-0.011-0.314c0-0.107-0.247-0.203-0.247-0.315
		c-0.006-0.101,0.017-0.201,0.011-0.303c-0.011-0.102,0.304-0.236,0.293-0.338c-0.006-0.1-0.371-0.167-0.388-0.269
		c-0.012-0.102,0.146-0.225,0.129-0.326c-0.017-0.106-0.162-0.18-0.18-0.286c-0.022-0.102-0.112-0.174-0.146-0.275
		c-0.021-0.101,0.135-0.259,0.102-0.358c-0.034-0.097-0.247-0.136-0.275-0.236c-0.039-0.102,0.118-0.271,0.084-0.365
		c-0.033-0.096-0.101-0.19-0.135-0.287c-0.021-0.106-0.09-0.202-0.106-0.303c-0.022-0.101-0.162-0.202-0.174-0.303
		c-0.012-0.107,0.112-0.225,0.123-0.332c0.012-0.106,0.067-0.207,0.067-0.313c0.006-0.107-0.067-0.215-0.067-0.321
		c-0.005-0.101-0.089-0.202-0.101-0.303c-0.011-0.112,0.275-0.258,0.253-0.359c-0.017-0.112-0.017-0.225-0.039-0.331
		c-0.023-0.107-0.41-0.107-0.444-0.208c-0.033-0.101,0.118-0.258,0.073-0.359c-0.034-0.102-0.213-0.141-0.259-0.236
		c-0.044-0.101,0.181-0.314,0.135-0.41c-0.045-0.095-0.135-0.174-0.186-0.264c-0.05-0.101-0.072-0.207-0.123-0.303
		c-0.051-0.09-0.394-0.033-0.444-0.124c-0.044-0.09-0.056-0.106-0.179-0.168c-0.135-0.057-0.271-0.427-0.349-0.394
		c-0.101,0.034-0.096,0.365-0.19,0.394c-0.106,0.034-0.248-0.057-0.348-0.033c-0.102,0.033-0.214,0.01-0.315,0.033
		c-0.106,0.022-0.18,0.208-0.28,0.225c-0.107,0.011-0.235-0.163-0.349-0.146c-0.101,0.012-0.202,0.028-0.309,0.034
		c-0.106,0.012-0.208,0.033-0.314,0.045c-0.106,0-0.208,0.247-0.32,0.247c-0.101,0-0.202-0.326-0.31-0.326
		c-0.1,0-0.207,0.046-0.319,0.046c-0.102-0.012-0.202-0.102-0.304-0.107c-0.106-0.006-0.225,0.051-0.336,0.045
		c-0.113,0-0.23-0.045-0.338-0.039c-0.106,0.012-0.201,0.229-0.308,0.241c-0.107,0.017-0.214,0.046-0.321,0.062
		c-0.106,0.017-0.213,0.045-0.313,0.067c-0.113,0.023-0.22,0.034-0.326,0.057c-0.102,0.022-0.27-0.225-0.376-0.202
		c-0.107,0.022-0.152,0.314-0.264,0.336c-0.101,0.029-0.225,0.012-0.326,0.034c-0.112,0.023-0.236-0.044-0.343-0.022
		c-0.106,0.022-0.196,0.157-0.297,0.174c-0.157,0.029-0.376,0.141-0.528,0.113c-0.101-0.023-0.124-0.427-0.233-0.455
		c-0.101-0.022-0.239,0.096-0.342,0.067c-0.104-0.034-0.272,0.19-0.376,0.163c-0.104-0.028-0.208-0.045-0.309-0.063
		c-0.11-0.028-0.18-0.202-0.284-0.219c-0.106-0.018-0.213,0.033-0.32,0.028c-0.109-0.012-0.216-0.304-0.323-0.304
		c-0.109,0.006-0.183,0.304-0.287,0.326c-0.104,0.028-0.16,0.101-0.261,0.146c-0.096,0.044-0.135,0.111-0.228,0.179
		c-0.082,0.056-0.376-0.123-0.449-0.033c-0.07,0.067-0.031,0.247-0.095,0.348c-0.059,0.079-0.017,0.22-0.071,0.326
		c-0.05,0.089-0.124,0.163-0.166,0.27c-0.025,0.051-0.062,0.157-0.106,0.213c-0.079,0.079-0.191,0.113-0.267,0.191
		c-0.073,0.079-0.25,0.067-0.32,0.146c-0.073,0.078-0.199,0.123-0.27,0.207c-0.07,0.085-0.208,0.124-0.272,0.208
		c-0.067,0.09-0.008,0.27-0.067,0.359c-0.062,0.09-0.244,0.112-0.3,0.202c-0.059,0.09-0.048,0.23-0.101,0.325
		c-0.053,0.097,0.148,0.326,0.101,0.422c-0.051,0.096-0.183,0.151-0.228,0.242c-0.048,0.1-0.171,0.162-0.213,0.264
		c-0.04,0.095-0.011,0.229-0.048,0.325c-0.039,0.106-0.225,0.151-0.258,0.252c-0.031,0.106-0.039,0.225-0.07,0.326
		c-0.028,0.102-0.04,0.214-0.064,0.326c-0.025,0.101,0.044,0.229,0.024,0.337c-0.022,0.106-0.235,0.18-0.252,0.291
		c-0.017,0.102,0.23,0.248,0.219,0.354c-0.014,0.106-0.186,0.202-0.194,0.309c-0.008,0.107,0.095,0.226,0.095,0.332
		c-0.005,0.106,0.048,0.219,0.048,0.325s-0.009,0.22-0.003,0.32c0.003,0.112,0.028,0.219,0.037,0.325
		c0.008,0.106-0.169,0.236-0.161,0.338c0.009,0.106,0.275,0.157,0.307,0.258c0.028,0.095-0.29,0.298-0.262,0.393
		c0.034,0.102,0.413,0.107,0.433,0.208c0.022,0.107-0.047,0.241-0.053,0.343c-0.003,0.106,0.034,0.202,0.042,0.304
		c0.011,0.111-0.264,0.269-0.239,0.37c0.022,0.101,0.141,0.202,0.18,0.298c0.042,0.096,0.059,0.242,0.118,0.325
		c0.056,0.084,0.188,0.151,0.264,0.225c0.073,0.073,0.166,0.163,0.256,0.22c0.087,0.062,0.258-0.022,0.356,0.021
		c0.095,0.034,0.149,0.259,0.253,0.281c0.098,0.022,0.23,0,0.337,0c0.104,0.011,0.216-0.011,0.323-0.011
		c0.104,0,0.21,0.079,0.32,0.067c0.104,0,0.205-0.135,0.315-0.135c0.101,0,0.21,0.078,0.314,0.078c0.101,0,0.205-0.067,0.309-0.057
		c0.104,0,0.225-0.157,0.326-0.15c0.104,0.005,0.197,0.252,0.298,0.252c0.104,0,0.225,0.045,0.329,0.033
		c0.104-0.005,0.191-0.179,0.289-0.201c0.104-0.023,0.253,0.101,0.349,0.066c0.098-0.033,0.151-0.201,0.242-0.246
		c0.092-0.045,0.275,0.033,0.362-0.022c0.081-0.063,0.022-0.32,0.101-0.388c0.076-0.062,0.065-0.208,0.135-0.286
		c0.064-0.073,0.407,0.078,0.469-0.012c0.068-0.078-0.118-0.331-0.062-0.421c0.056-0.096,0.264-0.084,0.32-0.174
		c0.057-0.096-0.112-0.315-0.062-0.41c0.051-0.09,0.197-0.13,0.252-0.22c0.057-0.09,0.32-0.056,0.376-0.151
		c0.051-0.095,0-0.241,0.051-0.337c0.045-0.096,0.146-0.162,0.196-0.253c0.05-0.102,0.079-0.201,0.124-0.292
		c0.045-0.101-0.118-0.291-0.073-0.393c0.04-0.091,0.394-0.057,0.433-0.157c0.04-0.101-0.174-0.298-0.14-0.393
		c0.034-0.102,0.112-0.186,0.146-0.281c0.034-0.101,0.247-0.158,0.27-0.258c0.027-0.102,0.057-0.214,0.078-0.315
		c0.022-0.106,0.073-0.213,0.09-0.314s-0.326-0.258-0.314-0.359c0.018-0.106,0.09-0.201,0.096-0.303s0.214-0.208,0.208-0.314
		c0-0.102-0.146-0.208-0.151-0.315c-0.006-0.1,0.151-0.225,0.14-0.336c-0.011-0.102-0.19-0.186-0.213-0.292
		c-0.017-0.102,0.213-0.146,0.247-0.253c0.022-0.096-0.236-0.32-0.186-0.421c0.051-0.09,0.253-0.097,0.309-0.186
		c0.057-0.096-0.012-0.259,0.051-0.343c0.063-0.101,0.196,0.033,0.241-0.057c0.028,0.09,0.141,0,0.169,0.097
		c0.034,0.095,0.152,0.162,0.186,0.252c0.033,0.101-0.275,0.298-0.241,0.394c0.027,0.096,0.039,0.186,0.066,0.28
		c0.023,0.096,0.332,0.135,0.338,0.225C29.375,35.436,29.302,35.548,29.302,35.604z M31.166,18.016
		c-0.017,0.09,0.079,0.168,0.056,0.264c-0.021,0.096-0.241,0.146-0.264,0.236c-0.017,0.096,0.18,0.219,0.163,0.314
		c-0.011,0.096-0.011,0.174-0.017,0.27c-0.006,0.107-0.124,0.208-0.129,0.32c0,0.107-0.057,0.213-0.057,0.314
		c0,0.112-0.067,0.213-0.067,0.32c0,0.106,0.078,0.219,0.078,0.32s0.113,0.213,0.113,0.314c0,0.112,0.033,0.219,0.033,0.32
		c0,0.107,0.011,0.219,0.011,0.32c0,0.112-0.123,0.213-0.123,0.326c0,0.102,0.135,0.214,0.135,0.32c-0.005,0.106,0,0.213-0.005,0.32
		c-0.007,0.118-0.287,0.191-0.31,0.303c-0.033,0.112,0.102,0.27,0.067,0.382c-0.033,0.107-0.304,0.152-0.337,0.264
		c-0.022,0.106-0.034,0.264-0.034,0.371c-0.011,0.106,0.181,0.225,0.164,0.32c-0.012,0.106-0.029,0.202-0.051,0.303
		c-0.022,0.101-0.022,0.213-0.046,0.309c-0.039,0.096,0.034,0.275-0.021,0.354c-0.051,0.09-0.253,0.095-0.326,0.168
		c-0.067,0.068-0.19,0.068-0.28,0.124c-0.085,0.056-0.124,0.196-0.225,0.236c-0.09,0.034-0.203,0.028-0.304,0.056
		c-0.095,0.023-0.157,0.214-0.27,0.23c-0.112,0.028-0.247-0.039-0.359-0.022c-0.118,0.017-0.248,0.051-0.348,0.051
		c-0.124,0-0.203-0.281-0.31-0.309c-0.112-0.028-0.354,0.241-0.443,0.185c-0.102-0.056-0.146-0.236-0.225-0.326
		c-0.068-0.079-0.146-0.191-0.208-0.298c-0.051-0.09,0.04-0.252-0.006-0.371c-0.039-0.101-0.309-0.14-0.342-0.258
		c-0.028-0.106,0.264-0.28,0.242-0.388c-0.017-0.101-0.18-0.174-0.203-0.28c-0.011-0.101,0.191-0.236,0.169-0.337
		c-0.011-0.107-0.343-0.169-0.36-0.275c-0.011-0.107-0.067-0.208-0.079-0.314c-0.011-0.107,0.146-0.225,0.135-0.332
		c-0.012-0.101-0.163-0.202-0.169-0.303c-0.011-0.106,0.332-0.235,0.326-0.337c0-0.112-0.102-0.208-0.102-0.314
		c-0.005-0.101-0.005-0.208-0.011-0.314c-0.006-0.106-0.068-0.213-0.068-0.314c-0.005-0.107,0.062-0.214,0.057-0.326
		c-0.012-0.101-0.034-0.208-0.045-0.314c0-0.096-0.258-0.18-0.258-0.281c0-0.095,0.028-0.202,0.033-0.292
		c0.006-0.101,0.332-0.168,0.337-0.27c0.012-0.09-0.337-0.213-0.325-0.314c0.005-0.113,0.185-0.213,0.185-0.326
		c0-0.118-0.129-0.236-0.129-0.349s-0.067-0.241-0.062-0.353c0.006-0.118,0.219-0.219,0.242-0.321
		c0.028-0.118-0.096-0.303-0.045-0.404c0.056-0.101,0.28-0.112,0.314-0.203c0.045-0.112,0.045-0.23,0.057-0.325
		c0.017-0.124-0.022-0.213-0.062-0.304c-0.04-0.101-0.175-0.062-0.27-0.124c-0.079-0.056-0.096-0.202-0.208-0.235
		c-0.089-0.034-0.18-0.112-0.297-0.141c-0.062,0.096-0.073,0.23-0.129,0.32c-0.062,0.101-0.045,0.225-0.093,0.314
		c-0.051,0.106-0.376,0.101-0.407,0.202c-0.031,0.112-0.087,0.258-0.096,0.371c-0.002,0.102,0.371,0.191,0.391,0.303
		c0.02,0.107-0.138,0.248-0.09,0.36c0.039,0.095,0.219,0.118,0.284,0.219c0.056,0.09-0.174,0.298-0.152,0.41
		c0.02,0.101,0.073,0.185,0.079,0.297c0.002,0.107-0.025,0.208-0.025,0.32c-0.005,0.101,0.323,0.225,0.323,0.326
		c0,0.112-0.062,0.337-0.057,0.438c-0.101,0.011-0.359-0.281-0.46-0.275c-0.104,0.006-0.18,0.332-0.284,0.343
		c-0.102,0.005-0.219-0.112-0.317-0.107c-0.104,0.006-0.21-0.028-0.314-0.017s-0.194,0.191-0.298,0.196
		c-0.104,0.006-0.222-0.174-0.325-0.163c-0.104,0.006-0.208,0.028-0.307,0.034c-0.104,0.011-0.202,0.045-0.306,0.056
		s-0.18,0.27-0.278,0.281c-0.104,0.011-0.245-0.292-0.343-0.281c-0.104,0.011-0.199,0.079-0.298,0.096
		c-0.101,0.017-0.216-0.045-0.32-0.028c-0.115,0.022-0.21,0.101-0.314,0.107c-0.118,0.017-0.219-0.028-0.32-0.028
		c-0.121,0-0.258,0.191-0.356,0.157c-0.107-0.028-0.253-0.09-0.334-0.168c-0.076-0.067-0.171-0.191-0.219-0.297
		c-0.039-0.096-0.067-0.225-0.087-0.343c-0.016-0.101,0.245-0.236,0.239-0.359c-0.002-0.113-0.297-0.191-0.342-0.304
		s-0.059-0.213-0.141-0.292c-0.093-0.079-0.166-0.202-0.294-0.18c-0.096,0.022-0.132,0.168-0.244,0.27
		c-0.073,0.073-0.082,0.213-0.157,0.281c-0.073,0.073-0.421-0.135-0.495-0.056c-0.076,0.073-0.047,0.247-0.118,0.32
		c-0.07,0.073,0.039,0.326-0.031,0.399c-0.07,0.079-0.137,0.157-0.208,0.23c-0.07,0.073-0.252,0.044-0.323,0.118
		c-0.071,0.079-0.09,0.196-0.158,0.275c-0.07,0.079-0.356-0.039-0.421,0.04c-0.07,0.079,0.079,0.337,0.011,0.416
		c-0.065,0.079-0.095,0.191-0.16,0.27c-0.067,0.079-0.106,0.18-0.174,0.258c-0.068,0.079-0.385-0.045-0.452,0.034
		c-0.065,0.079-0.02,0.247-0.087,0.326c-0.065,0.079-0.045,0.225-0.11,0.303c-0.05,0.068-0.095,0.102-0.115,0.219
		c-0.017,0.095,0.056,0.174,0.064,0.275c0.008,0.101-0.034,0.191-0.009,0.281c0.029,0.112-0.053,0.258,0.006,0.314
		c0.073,0.079,0.093,0.208,0.168,0.287c0.073,0.079,0.087,0.219,0.16,0.298c0.076,0.079,0.261,0.045,0.337,0.124
		c0.073,0.078,0.045,0.258,0.124,0.337c0.073,0.078,0.211,0.095,0.284,0.174c0.076,0.079,0.356-0.051,0.436,0.028
		c0.078,0.079,0.087,0.213,0.162,0.292c0.073,0.073,0.09,0.214,0.169,0.287c0.079,0.073,0.208,0.096,0.286,0.174
		c0.079,0.067,0.048,0.258,0.126,0.337c0.079,0.073,0.174,0.124,0.253,0.202c0.078,0.073,0.168,0.135,0.252,0.202
		c0.079,0.073,0.222,0.079,0.306,0.146c0.082,0.073,0.028,0.292,0.112,0.365c0.09,0.079,0.342-0.051,0.421,0.005
		c0.096,0.079,0.087,0.275,0.169,0.332c0.109,0.062,0.252,0.011,0.345,0.039c0.115,0.022,0.171-0.028,0.275-0.067
		c0.087-0.034,0.155-0.073,0.242-0.157c0.064-0.067,0.115-0.157,0.185-0.258c0.057-0.079,0.272-0.056,0.34-0.151
		c0.056-0.084-0.121-0.197-0.059-0.298c-0.09-0.09,0.104-0.337,0.008-0.427c-0.096-0.09-0.455,0.073-0.531-0.022
		c-0.064-0.09-0.056-0.225-0.118-0.309c-0.068-0.084-0.158-0.151-0.219-0.23c-0.07-0.084,0.098-0.36,0.031-0.433
		c-0.07-0.084-0.197-0.118-0.264-0.196c-0.073-0.084-0.098-0.202-0.16-0.275c-0.076-0.084-0.191-0.129-0.253-0.197
		c-0.079-0.089-0.132-0.18-0.191-0.252c-0.073-0.096-0.255-0.096-0.3-0.174c-0.059-0.107,0.109-0.208,0.115-0.303
		c0.002-0.09-0.02-0.135,0.042-0.242c0.045-0.073,0.073-0.163,0.151-0.264c0.059-0.067,0.183-0.095,0.256-0.18
		c0.064-0.073,0.034-0.247,0.109-0.325c0.064-0.068,0.196-0.096,0.272-0.18c0.067-0.073,0.09-0.191,0.166-0.275
		c0.064-0.073,0.008-0.264,0.082-0.348c0.022-0.028,0.174,0.124,0.199,0.112c0.087-0.04,0.216-0.051,0.306-0.107
		c0.095-0.045,0.107-0.242,0.199-0.275c0.107-0.045,0.16,0.084,0.247,0.112c0.087,0.028,0.194-0.04,0.27,0.05
		c0.062,0.073-0.025,0.23,0.02,0.326c0.05,0.101,0.312,0.101,0.325,0.191c0.023,0.112,0.157,0.203,0.174,0.309
		c0.017,0.106-0.317,0.275-0.306,0.382c0.017,0.107,0.314,0.186,0.329,0.286c0.011,0.112-0.157,0.236-0.146,0.349
		c0.008,0.112,0.278,0.202,0.286,0.314c0.009,0.112-0.092,0.225-0.084,0.337s-0.236,0.236-0.228,0.348s0.138,0.219,0.146,0.326
		c0.011,0.112-0.034,0.236-0.017,0.348c0.017,0.112,0.059,0.225,0.081,0.326c0.025,0.112,0.278,0.146,0.315,0.252
		c0.039,0.107-0.219,0.354-0.166,0.444c0.056,0.101,0.348,0.045,0.418,0.134c0.067,0.079,0.101,0.191,0.186,0.27
		c0.079,0.067,0.059,0.297,0.157,0.359c0.087,0.056,0.205,0.124,0.312,0.174c0.096,0.045,0.14,0.107,0.228,0.174
		c0.087,0.067,0.401-0.124,0.472-0.045s0.087,0.23,0.134,0.326c0.048,0.09-0.118,0.247-0.098,0.359
		c0.017,0.101,0.161,0.191,0.146,0.303c-0.014,0.102-0.197,0.146-0.236,0.258c-0.04,0.101,0.087,0.264,0.056,0.376
		c-0.028,0.112-0.267,0.174-0.292,0.275c-0.031,0.112,0.264,0.319,0.228,0.426c-0.042,0.102-0.245,0.136-0.312,0.225
		c-0.064,0.091-0.062,0.287-0.166,0.343c-0.087,0.051-0.28-0.162-0.404-0.135c-0.099,0.017-0.183,0.259-0.306,0.259
		c-0.082,0-0.053,0.101-0.141,0.186c-0.067,0.067-0.393-0.085-0.46-0.006c-0.065,0.085-0.186,0.298-0.25,0.365
		c0.079,0.056,0.421,0.005,0.502,0.067c0.079,0.067,0.188,0.056,0.27,0.112c0.095,0.056,0.082,0.078,0.174,0.067
		c0.104-0.006,0.222,0.168,0.326,0.157c0.104-0.011,0.194-0.219,0.298-0.225c0.104-0.011,0.216,0.078,0.323,0.067
		c0.104-0.006,0.202-0.085,0.312-0.09c0.106-0.012,0.219,0.129,0.326,0.123c0.104-0.012,0.199-0.19,0.3-0.196
		c0.104-0.006,0.228,0.219,0.332,0.208c0.101-0.012,0.219,0.078,0.326,0.067c0.101-0.006,0.208,0.006,0.314,0
		c0.101-0.012,0.208-0.023,0.314-0.033c0.102-0.012,0.18-0.349,0.287-0.36c0.106-0.011,0.219,0.045,0.32,0.039
		c0.101-0.005,0.202-0.027,0.313-0.039c0.102-0.005,0.226,0.225,0.338,0.22c0.102-0.006,0.18-0.32,0.287-0.332
		c0.106-0.011,0.218,0.169,0.331,0.157c0.101-0.011,0.225,0.141,0.325,0.135c0.101-0.011,0.18-0.348,0.286-0.354
		c0.102-0.006,0.22,0.095,0.32,0.085c0.102-0.012,0.213,0.005,0.314,0c0.102-0.012,0.202-0.157,0.304-0.164
		c0.101-0.005,0.213,0.051,0.325,0.046c0.101-0.006,0.208,0.005,0.315-0.006c0.1-0.012,0.207-0.045,0.313-0.057
		c0.102-0.005,0.208-0.011,0.314-0.017c0.102-0.006,0.22,0.123,0.326,0.118c0.101-0.012,0.19-0.225,0.292-0.23
		c0.106-0.006,0.229,0.163,0.337,0.152c0.101-0.007,0.207-0.023,0.313-0.028c0.102-0.006,0.186-0.22,0.292-0.23
		c0.102-0.012,0.208-0.012,0.315-0.017c0.124-0.012,0.264,0.162,0.349,0.123c0.117-0.051,0.146-0.169,0.167-0.27
		c0.023-0.085,0.125-0.252,0.046-0.37c-0.046-0.079-0.146-0.175-0.242-0.265c-0.084-0.078-0.253-0.045-0.331-0.124
		c-0.079-0.078-0.157-0.157-0.235-0.235c-0.073-0.084-0.078-0.225-0.152-0.303c-0.078-0.095-0.117-0.202-0.185-0.281
		c-0.067-0.095-0.382-0.011-0.438-0.09c-0.067-0.101-0.067-0.258-0.101-0.359c-0.045-0.101,0.134-0.258,0.134-0.365
		c0-0.106,0.051-0.174,0.085-0.28c0.028-0.096-0.09-0.253-0.039-0.365c0.045-0.09,0.292-0.079,0.354-0.18
		c0.05-0.084-0.163-0.349-0.096-0.449c0.057-0.09,0.298-0.067,0.349-0.168c0.051-0.096,0.19-0.168,0.229-0.27
		c0.04-0.102-0.229-0.303-0.196-0.416c0.028-0.106,0.213-0.169,0.23-0.275c0.017-0.106,0.123-0.219,0.129-0.32
		c0-0.112-0.32-0.225-0.313-0.337c0-0.102,0.106-0.202,0.106-0.314c0.005-0.101-0.028-0.208-0.028-0.315
		c0-0.106-0.034-0.213-0.028-0.314c0-0.112,0.011-0.214,0.011-0.326c0-0.101,0.118-0.208,0.118-0.314
		c0-0.112,0.196-0.214,0.196-0.321c0-0.106-0.017-0.208-0.017-0.32c0-0.101-0.056-0.208-0.056-0.314c0-0.112-0.124-0.213-0.124-0.32
		s0.034-0.208,0.034-0.32c0-0.101,0.196-0.213,0.196-0.314c0-0.112-0.298-0.213-0.298-0.32c0-0.106,0.09-0.219,0.09-0.32
		c0-0.107,0.023-0.213,0.023-0.32c-0.113-0.005-0.225,0.09-0.321,0.084c-0.111,0-0.219,0.056-0.319,0.051
		c-0.112-0.006-0.202-0.174-0.304-0.186c-0.112-0.017-0.219-0.011-0.314-0.028c-0.112-0.028-0.168-0.151-0.253-0.191
		c-0.095-0.045-0.241,0.006-0.319-0.067c-0.073-0.062,0.056-0.297-0.012-0.388c-0.062-0.078-0.157-0.112-0.225-0.213
		c-0.045-0.079-0.37,0-0.433-0.101C31.133,18.252,31.222,18.106,31.166,18.016z M25.71,12.277c-0.084,0.067-0.132,0.225-0.21,0.28
		c-0.087,0.068-0.292-0.033-0.371,0.023c-0.087,0.067-0.034,0.292-0.106,0.354c-0.084,0.068-0.146,0.129-0.216,0.197
		c-0.059,0.056-0.186,0.056-0.217,0.146c-0.028,0.09-0.089,0.191-0.079,0.27c0.015,0.09,0.368,0.343,0.464,0.309
		c0.118-0.04,0.182-0.129,0.272-0.129c0.118-0.006,0.25-0.101,0.339-0.056c0.096,0.045,0.225,0.101,0.297,0.18
		c0.07,0.079,0.163,0.169,0.225,0.258c0.059,0.084,0.017,0.248,0.07,0.331c0.067,0.096,0.236,0.096,0.304,0.186
		c0.067,0.084,0.134,0.157,0.202,0.236c0.078,0.079-0.04,0.337,0.039,0.41c0.079,0.073,0.275,0.017,0.359,0.084
		c0.084,0.067,0.034,0.326,0.129,0.388c0.09,0.062,0.208,0.095,0.303,0.152c0.09,0.044,0.275-0.079,0.382-0.04
		c0.096,0.04,0.197,0.079,0.304,0.107c0.101,0.028,0.207,0.017,0.313,0.033c0.102,0.022,0.215-0.101,0.326-0.09
		c0.113,0.011,0.197,0.169,0.304,0.169c0.112,0,0.22,0.079,0.331,0.067c0.118-0.005,0.202-0.134,0.314-0.168
		c0.106-0.034,0.23-0.034,0.332-0.079c0.106-0.045,0.134-0.248,0.24-0.303c0.107-0.045,0.253-0.023,0.354-0.079
		c0.106-0.045,0.213-0.124,0.319-0.158c0.107-0.034,0.304,0.186,0.4,0.146c0.106-0.045,0.061-0.393,0.156-0.443
		c0.102-0.051,0.235,0,0.332-0.062c0.095-0.057,0.174-0.118,0.258-0.18c0.084-0.067,0.264-0.028,0.343-0.101
		c0.084-0.079-0.023-0.326,0.051-0.404c0.072-0.079,0.393,0.045,0.454-0.045c0.067-0.09,0.012-0.264,0.062-0.359
		c0.063-0.096,0.309-0.096,0.354-0.191c0.045-0.101-0.213-0.326-0.174-0.433c0.039-0.106,0.017-0.208,0.039-0.314
		c0.021-0.107,0.207-0.174,0.219-0.281c0.017-0.106-0.118-0.225-0.118-0.331c0.012-0.106,0.354-0.219,0.349-0.326
		c0-0.112-0.102-0.225-0.112-0.331c-0.017-0.106-0.033-0.225-0.057-0.331c-0.022-0.101-0.101-0.202-0.134-0.315
		c-0.034-0.101-0.007-0.235-0.051-0.337c-0.04-0.101-0.141-0.241-0.197-0.342c-0.112-0.006-0.298,0.208-0.409,0.196
		c-0.113-0.011-0.225-0.044-0.338-0.056c-0.106-0.012-0.186-0.343-0.297-0.354c-0.113-0.017-0.264,0.326-0.377,0.32
		c-0.106-0.011-0.207-0.197-0.319-0.208c-0.112-0.006-0.225,0.106-0.337,0.102c-0.112-0.006-0.225,0.062-0.337,0.062
		c-0.112-0.006-0.225-0.203-0.332-0.203c-0.106,0-0.196,0.18-0.309,0.191c-0.101,0.006-0.225-0.185-0.325-0.174
		c-0.102,0.017-0.202,0.062-0.309,0.073c-0.107,0.011-0.203,0.067-0.31,0.079c-0.102,0.022-0.18,0.163-0.287,0.18
		c-0.106,0.017-0.225-0.079-0.331-0.067c-0.101,0.011-0.213-0.023-0.313-0.006c-0.107,0.011-0.208,0.095-0.31,0.107
		c-0.101,0.011-0.196,0.096-0.303,0.101c-0.107,0-0.219-0.292-0.32-0.292c-0.101,0.006-0.203-0.022-0.303-0.022
		c-0.101,0.005-0.197,0.382-0.292,0.382c-0.107,0-0.214-0.191-0.315-0.185c-0.101,0.005-0.191,0.157-0.292,0.162
		c-0.107,0.006-0.228-0.274-0.326-0.27c-0.104,0.011-0.203,0.068-0.303,0.079c-0.099,0.012-0.211,0-0.309,0.012
		c-0.101,0.022-0.132,0.365-0.233,0.393c-0.115,0.022-0.228,0.022-0.326,0.044c-0.115,0.029-0.312-0.303-0.41-0.28
		c-0.115,0.028-0.14,0.359-0.236,0.393c-0.115,0.034-0.261-0.05-0.351-0.011c-0.112,0.045-0.236,0.067-0.317,0.123
		c-0.095,0.068-0.042,0.259-0.104,0.349c-0.059,0.084-0.272,0.09-0.312,0.202c-0.031,0.101-0.045,0.213-0.07,0.337
		c-0.02,0.095-0.017,0.213-0.034,0.326c-0.011,0.101,0.222,0.242,0.205,0.359c-0.015,0.101-0.346,0.18-0.357,0.292
		c-0.011,0.101,0.034,0.225,0.02,0.337c-0.012,0.101-0.107,0.18-0.132,0.281s0.008,0.208-0.025,0.309
		c-0.031,0.096-0.11,0.168-0.158,0.264c-0.039,0.096,0.104,0.281,0.056,0.371c-0.05,0.09-0.087,0.197-0.143,0.287
		c-0.053,0.095-0.101,0.186-0.155,0.275c-0.059,0.09-0.126,0.18-0.182,0.258c-0.059,0.09-0.348,0.011-0.407,0.102
		c-0.064,0.089,0.093,0.337,0.031,0.426c-0.068,0.102-0.158,0.163-0.216,0.258c-0.059,0.102-0.191,0.157-0.23,0.259
		c-0.048,0.101,0.037,0.235,0.017,0.348c-0.023,0.102,0.07,0.191,0.079,0.303c0.008,0.107-0.354,0.292-0.314,0.405
		c0.031,0.101,0.219,0.168,0.275,0.275c0.059,0.101,0.337,0.084,0.393,0.185c0.053,0.102,0.121,0.203,0.174,0.304
		c0.053,0.101-0.025,0.281,0.034,0.387c0.053,0.096,0.168,0.174,0.227,0.275c0.054,0.101-0.075,0.416-0.017,0.522
		c0.098-0.017,0.272-0.298,0.371-0.315c0.101-0.017,0.196-0.084,0.294-0.106c0.099-0.011,0.2-0.067,0.298-0.084
		c0.104-0.017,0.255,0.287,0.36,0.275c0.104-0.017,0.179-0.174,0.28-0.191c0.104-0.017,0.188-0.14,0.29-0.157
		c0.104-0.017,0.213,0,0.312-0.017c0.104-0.017,0.191-0.112,0.289-0.129c0.104-0.017,0.152,0.051,0.252,0.034
		c0.017-0.112,0.149-0.14,0.166-0.252c0.017-0.107,0.107-0.208,0.126-0.315c0.017-0.106,0.126-0.202,0.14-0.309
		c0.017-0.106-0.115-0.247-0.098-0.348c0.017-0.112,0.177-0.202,0.199-0.303c0.017-0.112-0.045-0.236-0.028-0.343
		c0.014-0.106-0.25-0.258-0.233-0.371c0.017-0.106,0.129-0.202,0.146-0.309c0.014-0.112,0.124-0.203,0.134-0.315
		c0.014-0.101-0.042-0.225-0.025-0.331c0.017-0.112,0.183-0.208,0.18-0.309c-0.005-0.112-0.051-0.235-0.087-0.326
		c-0.036-0.095-0.123-0.191-0.202-0.27c-0.07-0.067-0.208-0.045-0.315-0.089c-0.087-0.045-0.129-0.27-0.241-0.303
		c-0.096-0.023-0.267,0.196-0.359,0.162c-0.095-0.039-0.115-0.23-0.202-0.274c-0.087-0.051-0.233-0.017-0.306-0.079
		c-0.076-0.067-0.193-0.124-0.247-0.202c-0.056-0.084-0.096-0.202-0.121-0.303c-0.025-0.09-0.059-0.213-0.053-0.32
		c0.003-0.09,0.203-0.163,0.228-0.275c0.025-0.09-0.129-0.314-0.054-0.404c0.065-0.073,0.379,0.135,0.475,0.079
		c0.082-0.056,0-0.427,0.104-0.472c0.096-0.04,0.239,0.005,0.343-0.022c0.098-0.028,0.21-0.09,0.314-0.101s0.23,0.275,0.34,0.275
		c0.106-0.005,0.194-0.079,0.301-0.067C25.469,12.367,25.609,12.254,25.71,12.277z M33.761,9.216
		c-0.096-0.011-0.18,0.118-0.281,0.106c-0.101-0.017-0.179-0.235-0.274-0.247c-0.107,0-0.23,0.203-0.326,0.186
		c-0.106-0.017-0.225-0.04-0.314-0.062c-0.106-0.034-0.162-0.191-0.241-0.236c-0.09-0.056-0.135-0.151-0.203-0.225
		c-0.067-0.079-0.044-0.179-0.089-0.27c-0.034-0.089-0.124-0.146-0.136-0.252c-0.01-0.096-0.135-0.191-0.135-0.298
		c0.007-0.096-0.017-0.208,0-0.314c0.012-0.101,0.012-0.202,0.023-0.303c0.005-0.101,0.135-0.191,0.141-0.298
		c0.005-0.106-0.136-0.208-0.13-0.309c0-0.101-0.011-0.202-0.011-0.303c0-0.107,0.264-0.213,0.258-0.314
		c0-0.101-0.18-0.202-0.18-0.303c0-0.106,0.236-0.208,0.236-0.314c0-0.101-0.022-0.202-0.022-0.304c0-0.101-0.19-0.208-0.19-0.314
		c0.005-0.102,0.005-0.191,0-0.292c-0.012-0.101-0.063-0.191-0.091-0.281c-0.022-0.101-0.168-0.112-0.213-0.197
		c-0.051-0.095,0.033-0.23-0.039-0.297c-0.073-0.056-0.118-0.174-0.22-0.208c-0.09-0.028-0.202,0.062-0.303,0.05
		c-0.091-0.005-0.186-0.044-0.292-0.034c-0.107,0.012-0.191,0.191-0.304,0.203s-0.229-0.057-0.337-0.04
		c-0.112,0.012-0.214,0.056-0.325,0.073c-0.106,0.011-0.248-0.247-0.359-0.23c-0.106,0.011-0.169,0.365-0.281,0.376
		c-0.112,0.022-0.23-0.079-0.337-0.067c-0.112,0.017-0.213,0.034-0.326,0.045c-0.101,0.017-0.235-0.112-0.336-0.102
		c-0.113,0.023-0.186,0.281-0.292,0.292c-0.112,0.017-0.27-0.292-0.371-0.27c-0.112,0.011-0.197,0.174-0.303,0.191
		c-0.112,0.017-0.247-0.185-0.359-0.169c-0.107,0.017-0.168,0.349-0.275,0.371c-0.106,0.012-0.208,0.079-0.32,0.096
		c-0.106,0.017-0.239-0.129-0.345-0.112s-0.193,0.18-0.303,0.197c-0.106,0.011-0.267-0.314-0.376-0.292
		c-0.106,0.012-0.202,0.118-0.309,0.135c-0.112,0.011-0.236,0.045-0.326,0.079c-0.109,0.04-0.197,0.146-0.27,0.213
		c-0.084,0.062-0.228,0.124-0.278,0.213c-0.048,0.09-0.087,0.23-0.107,0.337c-0.02,0.101,0.222,0.225,0.222,0.337
		c0,0.101-0.011,0.191,0.005,0.292c0.017,0.107-0.287,0.258-0.264,0.359c0.017,0.106,0.385,0.146,0.401,0.252
		c0.014,0.107-0.137,0.236-0.121,0.332c0.017,0.101,0.16,0.186,0.177,0.292c0.017,0.101,0.104,0.191,0.121,0.292
		c0.017,0.107-0.166,0.236-0.149,0.337c0.017,0.107,0.208,0.186,0.219,0.292c0.011,0.09-0.168,0.213-0.157,0.314
		c0.011,0.09,0.067,0.191,0.073,0.281c0.014,0.102,0.056,0.197,0.059,0.292c0.006,0.101,0.129,0.225,0.115,0.314
		C24.574,9.21,24.43,9.3,24.385,9.385c-0.053,0.101-0.18,0.163-0.281,0.236c-0.092,0.067-0.166,0.191-0.278,0.241
		c-0.104,0.057-0.185,0.174-0.295,0.225c-0.11,0.045-0.433,0-0.534,0.051c0.11-0.017,0.399,0.118,0.502,0.107
		c0.102-0.022,0.158-0.399,0.264-0.416c0.106-0.017,0.244,0.158,0.348,0.141c0.107-0.017,0.188-0.186,0.298-0.196
		c0.106-0.023,0.255,0.258,0.362,0.241c0.106-0.011,0.208-0.073,0.314-0.084c0.106-0.022,0.216-0.005,0.323-0.022
		c0.107-0.012,0.168-0.349,0.278-0.371c0.106-0.012,0.219,0,0.325-0.012c0.107-0.011,0.261,0.337,0.368,0.326
		c0.106-0.011,0.18-0.337,0.286-0.348c0.106-0.012,0.23,0.101,0.331,0.089c0.112,0,0.225,0.023,0.326,0.011
		c0.112-0.011,0.202-0.191,0.309-0.202c0.106-0.011,0.236,0.169,0.343,0.163c0.112-0.006,0.214-0.034,0.325-0.04
		c0.106-0.011,0.213-0.045,0.314-0.056c0.113-0.006,0.197-0.259,0.304-0.27c0.112-0.012,0.241,0.303,0.348,0.292
		c0.107-0.005,0.214-0.067,0.314-0.079c0.113-0.005,0.225,0.067,0.331,0.057c0.107-0.006,0.209-0.079,0.321-0.079
		c0.106-0.006,0.213,0.034,0.325,0.028C30.666,9.413,30.762,9.2,30.874,9.2c0.106-0.012,0.213-0.028,0.32-0.034
		c0.106,0,0.219-0.012,0.32-0.023c0.112,0,0.219,0.011,0.331,0.011c0.106,0,0.219,0.27,0.331,0.264c0.107,0,0.208-0.275,0.314-0.275
		c0.112,0,0.214,0.04,0.326,0.04c0.106,0,0.213,0.096,0.325,0.096c0.102,0,0.214-0.124,0.326-0.124S33.659,9.216,33.761,9.216z
		 M35.883,16.747c-0.123,0.079-0.157,0.202-0.28,0.28c0.011,0.09-0.169,0.135-0.157,0.225c0.011,0.09,0.235,0.157,0.247,0.259
		c0.012,0.089,0.033,0.18,0.039,0.275c0.012,0.09-0.095,0.197-0.084,0.292c0.006,0.084-0.022,0.196,0,0.287
		c0.017,0.101-0.034,0.191-0.028,0.28c0.006,0.112,0.078,0.175,0.034,0.248c-0.063,0.089-0.006,0.236-0.04,0.326
		c-0.039,0.101-0.033,0.191-0.044,0.287c-0.012,0.106,0.005,0.18,0.021,0.275c0.022,0.106-0.061,0.225-0.017,0.32
		c0.045,0.095,0.208,0.101,0.275,0.185c0.056,0.084,0.123,0.146,0.19,0.225c0.079,0.084-0.044,0.337,0.012,0.416
		c0.073,0.09,0.275,0.079,0.337,0.163c0.057,0.096-0.112,0.298-0.073,0.394c0.046,0.106,0.085,0.163,0.106,0.27
		c0.023,0.106,0.214,0.185,0.214,0.297c-0.011,0.101-0.033,0.213-0.073,0.314c-0.034,0.102-0.05,0.225-0.106,0.326
		c-0.051,0.084-0.011,0.27-0.09,0.359c-0.067,0.079-0.259,0.067-0.337,0.146c-0.073,0.068-0.202,0.09-0.258,0.169
		c-0.067,0.067-0.034,0.213-0.091,0.297c-0.056,0.084-0.146,0.14-0.196,0.225s0.046,0.247,0,0.331
		c-0.051,0.09-0.162,0.135-0.213,0.225c-0.04,0.079-0.017,0.152-0.006,0.275c0.006,0.129-0.191,0.365-0.124,0.427
		c0.067,0.056,0.287-0.219,0.422-0.219c0.129,0,0.196,0.118,0.259,0.063c0.072-0.073,0.15-0.152,0.225-0.225
		c0.072-0.073,0.252-0.045,0.324-0.118c0.074-0.079-0.027-0.326,0.046-0.399c0.072-0.073,0.382,0.079,0.454,0.005
		c0.074-0.079,0.04-0.252,0.113-0.325c0.078-0.079,0.303,0,0.382-0.073c0.072-0.073-0.09-0.376-0.012-0.449
		c0.072-0.073,0.112-0.185,0.18-0.264c0.067-0.073,0.264-0.034,0.337-0.112c0.067-0.079,0.033-0.258,0.112-0.332
		c0.073-0.073,0.393,0.084,0.467,0.011c0.072-0.073,0.084-0.208,0.157-0.287c0.072-0.079,0.151-0.151,0.218-0.23
		c0.079-0.073,0.113-0.191,0.186-0.264c0.073-0.079,0.197-0.101,0.271-0.18c0.072-0.079,0.135-0.163,0.207-0.242
		c0.067-0.079-0.045-0.331,0.034-0.398c0.072-0.09,0.135-0.14,0.19-0.247c0.045-0.096,0.382-0.068,0.428-0.175
		c0.05-0.095-0.248-0.264-0.192-0.365c-0.078-0.067,0-0.185-0.089-0.258c-0.078-0.067-0.247-0.039-0.326-0.112
		c-0.084-0.067-0.213-0.084-0.291-0.157c-0.091-0.067-0.04-0.292-0.125-0.359c-0.078-0.067-0.28,0-0.358-0.067
		c-0.091-0.073-0.045-0.298-0.124-0.359c-0.084-0.073-0.191-0.112-0.27-0.185c-0.089-0.073-0.19-0.112-0.274-0.186
		c-0.085-0.067-0.254-0.039-0.332-0.112c-0.084-0.067-0.09-0.225-0.174-0.292c-0.084-0.073-0.141-0.18-0.219-0.247
		c-0.085-0.067-0.214-0.079-0.292-0.152c-0.085-0.073-0.214-0.084-0.304-0.151c-0.078-0.067,0.033-0.371-0.045-0.438
		c-0.084-0.067-0.146-0.157-0.229-0.23c-0.085-0.073-0.399,0.146-0.483,0.073C35.929,17.017,35.968,16.814,35.883,16.747z
		 M28.313,19.409c-0.045,0.056-0.056,0.202-0.13,0.281c-0.056,0.067-0.274-0.005-0.342,0.067c-0.057,0.062,0.056,0.27-0.006,0.343
		c-0.062,0.084-0.124,0.163-0.185,0.252c-0.067,0.084-0.219,0.101-0.264,0.191c-0.051,0.101-0.14,0.191-0.146,0.292
		c-0.011,0.096-0.05,0.258-0.005,0.36c0.045,0.078,0.18,0.146,0.27,0.225c0.067,0.062,0.225,0.034,0.326,0.095
		c0.056,0.039,0.135,0.208,0.124,0.354c0,0.089,0,0.202-0.011,0.314c-0.012,0.102-0.135,0.202-0.135,0.292
		c0.005,0.096,0.14,0.197,0.135,0.298c0,0.095,0.005,0.196,0,0.292c0,0.101-0.27,0.191-0.27,0.286c0,0.102,0.18,0.191,0.186,0.292
		c0.006,0.096-0.225,0.236-0.202,0.326c0.016,0.101,0.083,0.213,0.118,0.309c0.039,0.084,0.291,0.062,0.416,0.118
		c0.101,0.045,0.201,0.079,0.324,0.102c0.102,0.028,0.226,0.011,0.338,0.022c0.118,0.011,0.229-0.118,0.337-0.112
		c0.057,0,0.084,0.079,0.146-0.067c0.045-0.09,0.156-0.157,0.202-0.264c0.039-0.106-0.017-0.258,0.022-0.342
		c0.045-0.09,0.111-0.163,0.146-0.253c0.028-0.096-0.106-0.219-0.09-0.309c0.022-0.107,0.118-0.191,0.14-0.292
		c0.018-0.102,0.007-0.214,0.029-0.309c0.017-0.106,0.303-0.152,0.325-0.258c0.017-0.106-0.297-0.264-0.28-0.365
		c0.017-0.107,0.146-0.186,0.168-0.287c0.022-0.107,0.033-0.208,0.051-0.309c0.017-0.101,0.18-0.18,0.196-0.281
		c0.018-0.101-0.214-0.247-0.196-0.348c0.017-0.101,0.354-0.157,0.364-0.258c0.023-0.101-0.111-0.225-0.101-0.331
		c0.011-0.107,0.135-0.343,0.05-0.455c-0.072-0.106-0.421-0.011-0.493-0.101c-0.067-0.079-0.174-0.118-0.236-0.191
		c-0.067-0.079-0.005-0.27-0.056-0.348c-0.056-0.09-0.247-0.169-0.253-0.258c-0.011-0.09,0.314-0.09,0.388-0.18
		c0.051-0.068,0.022-0.157,0.123-0.225c0.073-0.045,0.152-0.079,0.247-0.135c0.073-0.034,0.106-0.241,0.118-0.393
		c0.012-0.102,0.084-0.219,0.09-0.337c0-0.118-0.034-0.314-0.022-0.416c-0.102,0-0.304,0.202-0.398,0.191
		c-0.102-0.011-0.197-0.045-0.304-0.056c-0.095-0.017-0.168-0.349-0.269-0.354c-0.102-0.005-0.22,0.337-0.321,0.332
		c-0.101,0-0.202-0.169-0.303-0.163s-0.168,0.152-0.265,0.174c-0.106,0.034-0.128,0.135-0.235,0.214
		c-0.096,0.067-0.303,0-0.382,0.089c-0.079,0.09,0.006,0.281-0.051,0.382c-0.062,0.112-0.28,0.14-0.303,0.247
		c-0.011,0.09,0.056,0.191,0.112,0.303c0.039,0.078,0.129,0.135,0.196,0.225c0.062,0.078,0.225,0.073,0.298,0.157
		c0.056,0.073,0.033,0.23,0.101,0.314C28.201,19.218,28.258,19.319,28.313,19.409z M21.676,47.285c0,0.021,0.051,0.095,0.079,0.19
		c0.028,0.09-0.138,0.247-0.106,0.343c0.034,0.095,0.267,0.118,0.297,0.208c0.034,0.101,0.07,0.19,0.104,0.28
		c0.031,0.09-0.05,0.225-0.022,0.314c0.087-0.034,0.202-0.027,0.306-0.062c0.102-0.033,0.228,0,0.323-0.04
		c0.104-0.033,0.186-0.146,0.273-0.196c0.104-0.062,0.095-0.196,0.132-0.28c0.048-0.096,0.064-0.208,0.104-0.309
		c0.042-0.102,0.07-0.208,0.118-0.31c0.04-0.096,0.194-0.157,0.233-0.253c0.042-0.101-0.044-0.258-0.008-0.358
		c0.042-0.102,0.073-0.202,0.112-0.304s0.323-0.112,0.36-0.213c0.039-0.107-0.09-0.271-0.054-0.371
		c0.037-0.102,0.303-0.124,0.34-0.225c0.036-0.106,0.051-0.22,0.081-0.326c0.034-0.102-0.115-0.269-0.081-0.37
		s0.07-0.208,0.098-0.314c0.034-0.102,0.025-0.214,0.053-0.32c0.031-0.106-0.073-0.241-0.045-0.354
		c0.031-0.112,0.183-0.157,0.157-0.258c-0.025-0.107-0.017-0.236-0.09-0.315c-0.07-0.073-0.216-0.045-0.32-0.09
		c-0.093-0.044-0.171-0.112-0.284-0.123c-0.104-0.012-0.174,0.157-0.286,0.18c-0.096,0.011-0.222-0.057-0.326-0.045
		c-0.098,0.005-0.199,0.033-0.303,0.045c-0.101,0.011-0.235-0.258-0.334-0.236c-0.104,0.012-0.107,0.36-0.2,0.394
		c-0.092,0.039-0.193-0.033-0.267,0.034c-0.07,0.066-0.104,0.111-0.148,0.218c-0.039,0.085-0.205,0.13-0.219,0.253
		c-0.017,0.102,0.213,0.236,0.205,0.343c-0.011,0.106-0.343,0.185-0.351,0.286c-0.008,0.112,0.129,0.225,0.124,0.338
		c-0.008,0.101-0.23,0.202-0.236,0.309c-0.002,0.106,0.314,0.229,0.312,0.331c-0.005,0.106,0.045,0.213,0.039,0.319
		c-0.002,0.107-0.168,0.208-0.168,0.32c-0.003,0.107,0.146,0.22,0.14,0.326c-0.002,0.106-0.351,0.202-0.354,0.314
		C21.459,47.061,21.682,47.172,21.676,47.285z M34.412,45.273c0.005-0.117-0.073-0.229-0.067-0.336c0-0.113,0.213-0.225,0.213-0.326
		c0-0.118-0.213-0.229-0.213-0.325c-0.006-0.136-0.012-0.225-0.028-0.32c-0.018-0.14,0.073-0.253,0.028-0.331
		c-0.063-0.096-0.135-0.202-0.259-0.225c-0.084-0.017-0.207-0.091-0.336-0.079c-0.102,0-0.203,0.09-0.326,0.102
		c-0.102,0.011-0.197,0.146-0.315,0.157c-0.078,0.017-0.179,0.033-0.257,0.033c-0.096,0-0.102-0.005-0.158,0.039
		c-0.078,0.067-0.247,0.051-0.337,0.13c-0.09,0.078-0.072,0.247-0.14,0.326c-0.085,0.1-0.106,0.111-0.097,0.201
		c0.007,0.102-0.246,0.241-0.229,0.348c0.012,0.107,0.196,0.203,0.208,0.315c0.012,0.101-0.213,0.235-0.203,0.349
		c0.012,0.111,0.046,0.218,0.068,0.325c0.011,0.106,0.213,0.191,0.225,0.303c0.021,0.106,0.028,0.22,0.045,0.326
		s0.067,0.213,0.084,0.314c0.018,0.112,0.163,0.202,0.185,0.304c0.018,0.111-0.123,0.241-0.1,0.348
		c0.011,0.112-0.046,0.23-0.023,0.337c0.023,0.107,0.146,0.202,0.163,0.304c0.022,0.111-0.006,0.225,0.018,0.337
		c0.017,0.078,0.196,0.062,0.269,0.157c0.067,0.078,0.056,0.19,0.135,0.252c0.113,0.085,0.113,0.085,0.18,0.073
		c0.079-0.022,0.258,0.207,0.349,0.163c0.09-0.039-0.006-0.376,0.073-0.433c0.084-0.051,0.201-0.005,0.264-0.072
		c0.072-0.079,0.101-0.118,0.118-0.197c0.017-0.112,0.186-0.191,0.207-0.292c0.022-0.112-0.202-0.259-0.19-0.37
		c0.022-0.102,0.359-0.164,0.376-0.271c0.018-0.111-0.112-0.235-0.101-0.348c0.017-0.112,0.252-0.191,0.264-0.298
		s-0.292-0.258-0.281-0.364c0.011-0.113-0.028-0.225-0.011-0.326c0.011-0.118,0.18-0.213,0.19-0.309
		C34.417,45.477,34.4,45.364,34.412,45.273z M33.985,14.158c-0.067,0.084-0.057,0.208-0.124,0.297
		c-0.079,0.079-0.304,0.028-0.382,0.112c-0.072,0.079,0.022,0.309-0.05,0.393c-0.073,0.079-0.141,0.168-0.208,0.253
		c-0.073,0.084-0.236,0.089-0.31,0.174c-0.072,0.09-0.179,0.146-0.241,0.23c-0.067,0.084-0.19,0.14-0.258,0.23
		c-0.068,0.084-0.057,0.213-0.112,0.303c-0.045,0.101,0.022,0.236-0.012,0.331c-0.039,0.095-0.033,0.185-0.051,0.292
		c-0.021,0.106-0.017,0.185-0.017,0.287c0,0.106-0.118,0.202-0.102,0.309c0.018,0.102,0.169,0.163,0.203,0.264
		c0.033,0.09,0.067,0.169,0.118,0.258c0.044,0.096-0.13,0.309-0.073,0.394c0.045,0.073,0.247,0.028,0.349,0.09
		c0.078,0.044,0.089,0.314,0.19,0.342c0.102,0.028,0.28,0.022,0.365,0.005c0.084-0.011,0.151-0.213,0.253-0.235
		c0.1-0.017,0.19-0.034,0.291-0.056c0.096-0.022,0.175-0.079,0.265-0.112c0.106-0.034,0.118-0.18,0.196-0.219
		c0.106-0.062,0.236,0.04,0.258-0.039c0.022-0.101,0.13-0.191,0.157-0.292c0.022-0.102-0.056-0.236-0.033-0.337
		c0.022-0.112,0.09-0.202,0.112-0.309c0.017-0.106-0.135-0.23-0.118-0.342c0.012-0.101,0.106-0.191,0.106-0.304
		c0.012-0.106-0.021-0.202-0.021-0.314c-0.007-0.106,0.258-0.235,0.246-0.342c-0.011-0.107-0.364-0.141-0.393-0.253
		c-0.022-0.101,0.057-0.225,0.011-0.326c-0.033-0.101-0.078-0.185-0.123-0.286c-0.051-0.096,0.022-0.264-0.039-0.354
		c-0.057-0.084-0.32-0.017-0.388-0.101C33.985,14.411,34.064,14.243,33.985,14.158z M22.653,28.602c0.106,0,0.18-0.09,0.281-0.106
		c0.104-0.012,0.244,0.174,0.342,0.146c0.104-0.022,0.138-0.259,0.23-0.291c0.101-0.04,0.18-0.079,0.267-0.136
		c0.095-0.05,0.239,0,0.314-0.062c0.087-0.073,0.197-0.112,0.256-0.191c0.067-0.084,0.191-0.174,0.216-0.275
		c0.022-0.101-0.048-0.247-0.079-0.348c-0.031-0.09-0.188-0.124-0.267-0.219c-0.07-0.079-0.157-0.129-0.247-0.197
		s-0.174-0.101-0.272-0.146c-0.112-0.056-0.171-0.197-0.27-0.202c-0.116-0.011-0.219,0.129-0.332,0.146
		c-0.121,0.011-0.197,0.034-0.301,0.079c-0.112,0.034-0.337-0.135-0.421-0.067c-0.093,0.073-0.048,0.281-0.104,0.382
		c-0.054,0.096-0.329,0.14-0.349,0.264c-0.017,0.106,0,0.264,0.012,0.387c0.008,0.118,0.244,0.197,0.306,0.303
		c0.062,0.102,0.135,0.191,0.208,0.282C22.523,28.449,22.605,28.528,22.653,28.602z M35.771,26.737
		c-0.091-0.062-0.208-0.039-0.292-0.106c-0.091-0.067-0.028-0.297-0.106-0.365c-0.085-0.073-0.31,0.017-0.383-0.045
		c-0.09-0.079-0.163-0.141-0.241-0.186c-0.117-0.084-0.135-0.225-0.214-0.202c-0.106,0.039-0.236,0.067-0.336,0.146
		c-0.085,0.079-0.225,0.124-0.304,0.213c-0.079,0.095-0.102,0.236-0.18,0.326c-0.073,0.095-0.045,0.219-0.124,0.303
		c0.079,0.062,0.151,0.067,0.225,0.146c0.067,0.073,0.146,0.135,0.214,0.208c0.078,0.079,0.067,0.236,0.146,0.287
		c0.096,0.067,0.191-0.022,0.287-0.022c0.095,0,0.129-0.028,0.235-0.079c0.084-0.045,0.309,0.112,0.399,0.045
		c0.078-0.056,0.056-0.27,0.146-0.337c0.079-0.062,0.314,0.067,0.404,0C35.737,27.012,35.681,26.799,35.771,26.737z M34.553,23.71
		c0.072-0.09,0.045-0.208,0.118-0.292c0.067-0.084,0.303-0.039,0.37-0.123c0.067-0.09-0.045-0.303,0.011-0.388
		c0.068-0.095,0.118-0.18,0.169-0.264c0.056-0.101,0.213-0.134,0.259-0.23c0.051-0.107,0.134-0.191,0.168-0.286
		c0.033-0.112,0.124-0.225,0.129-0.332c0.006-0.112-0.072-0.242-0.096-0.342c-0.027-0.102-0.174-0.158-0.229-0.258
		c-0.051-0.09-0.129-0.146-0.203-0.225c-0.072-0.079-0.146-0.129-0.235-0.203c-0.078-0.056-0.096-0.225-0.19-0.281
		c-0.084-0.056-0.124,0.011-0.225-0.045c0,0.101,0.084,0.09,0.084,0.191s-0.258,0.208-0.258,0.314c0,0.101,0.179,0.202,0.179,0.303
		c0,0.106-0.246,0.213-0.246,0.315c0,0.101,0.027,0.202,0.027,0.309s0.19,0.208,0.19,0.309c0,0.102-0.005,0.208-0.005,0.314
		c0,0.101,0.033,0.203,0.033,0.309c0,0.101,0.141,0.208,0.141,0.309c0,0.102-0.157,0.208-0.157,0.314
		C34.586,23.53,34.553,23.604,34.553,23.71z M22.369,24.148c-0.003-0.112-0.109-0.186-0.115-0.292
		c-0.002-0.112,0.2-0.225,0.191-0.332c-0.005-0.112-0.227-0.208-0.23-0.309c-0.005-0.112-0.017-0.214-0.022-0.326
		c-0.003-0.106,0.106-0.225,0.104-0.326c-0.003-0.112,0.036-0.219,0.034-0.325c-0.006-0.112,0.062-0.219,0.053-0.326
		c-0.006-0.112-0.106-0.247-0.115-0.359c-0.096,0.067-0.158,0.225-0.242,0.281c-0.09,0.067-0.158,0.151-0.23,0.213
		c-0.093,0.079-0.148,0.146-0.219,0.213c-0.084,0.09-0.236,0.09-0.281,0.169c-0.059,0.101,0.054,0.202,0.054,0.309
		c0,0.095,0.02,0.141,0.07,0.241c0.04,0.079-0.121,0.303-0.05,0.399c0.059,0.073,0.264,0.039,0.342,0.118
		c0.07,0.073-0.02,0.32,0.062,0.399c0.076,0.067,0.174,0.129,0.261,0.196C22.114,24.16,22.285,24.075,22.369,24.148z"/>
	<path d="M30.796,13.406c-0.017,0.118-0.202,0.23-0.225,0.342c-0.023,0.112,0.134,0.264,0.112,0.382
		c-0.018,0.112-0.136,0.202-0.157,0.314c-0.09-0.045-0.264,0.101-0.349,0.057c-0.101-0.045-0.09-0.304-0.168-0.343
		c-0.113-0.051-0.236,0.017-0.304-0.011c-0.101,0-0.18-0.163-0.274-0.163c-0.107,0-0.197-0.095-0.299-0.095
		c-0.095,0-0.196,0.028-0.286,0.028c-0.101,0-0.298,0.208-0.393,0.208c0.039-0.084,0.028-0.309,0.067-0.399s0.051-0.191,0.084-0.281
		c0.039-0.084,0.18-0.124,0.219-0.213c0.04-0.09,0.096-0.168,0.135-0.264c0.039-0.084,0.174-0.157,0.22-0.253
		c-0.079-0.05-0.191-0.158-0.304-0.236c-0.09-0.056-0.124-0.225-0.225-0.292c-0.09-0.067-0.208,0-0.314-0.067
		c0.056-0.112,0.051-0.18,0.112-0.27c0.073-0.112,0.124-0.225,0.202-0.292c0.101-0.079,0.196,0.028,0.314,0.056
		c0.09,0.017,0.303-0.151,0.41-0.056c0.072,0.067,0.186,0.157,0.264,0.27c0.067,0.079,0.045,0.213,0.112,0.303
		c0.056,0.079,0,0.258,0.056,0.337c0.067,0.079,0.236,0.067,0.304,0.152c0.056,0.084,0.006,0.252,0.073,0.331
		c0.062,0.079,0.246,0.067,0.314,0.146c0.062,0.079,0.186,0.006,0.253,0.084C30.818,13.215,30.79,13.361,30.796,13.406z"/>
	<path d="M30.705,13.366c0.057-0.101-0.005-0.275,0.051-0.382c0.063-0.101,0.202-0.157,0.259-0.258
		c0.079,0.051,0.214,0.022,0.292,0.079c0.079,0.05,0.033,0.292,0.112,0.348c0.078,0.05,0.275-0.056,0.354,0
		c0.079,0.05,0.067,0.247,0.146,0.298c0.078,0.05,0.298,0.028,0.376,0.084c-0.073,0.135-0.235,0.27-0.31,0.404
		c-0.1-0.045-0.28,0.107-0.382,0.062c-0.111-0.045-0.128-0.298-0.229-0.349c-0.106-0.045-0.264,0.028-0.365-0.017
		c-0.106-0.045-0.146-0.247-0.253-0.281C30.751,13.344,30.705,13.366,30.705,13.366z"/>
	<path d="M27.752,12.052c0,0.101-0.247,0.146-0.292,0.225s-0.135,0.022-0.225,0.073c-0.079,0.051-0.073,0.112-0.169,0.112
		c-0.106,0-0.101-0.062-0.18-0.106c-0.084-0.051-0.365,0.112-0.41,0.034c-0.045-0.084-0.028-0.242-0.028-0.337
		c0-0.106,0.045-0.225,0.095-0.303c0.051-0.084,0.084-0.258,0.174-0.303c0.079-0.045,0.241-0.012,0.348-0.012
		c0.102,0,0.146,0.163,0.23,0.214c0.084,0.044,0.084,0.101,0.135,0.186C27.477,11.917,27.752,11.946,27.752,12.052z"/>
	<path d="M31.907,11.637c0,0.106,0.067,0.202,0.022,0.292c-0.044,0.079-0.123,0.157-0.202,0.208
		c-0.09,0.044-0.191-0.096-0.291-0.096c-0.102,0-0.259,0.247-0.343,0.202c-0.085-0.056,0-0.292-0.051-0.376
		c-0.046-0.084,0.044-0.129,0.044-0.23s-0.056-0.124-0.011-0.203c0.057-0.083,0.102-0.05,0.186-0.101
		c0.084-0.045,0.073-0.371,0.175-0.371c0.106,0,0.229,0.101,0.313,0.146c0.078,0.045,0.157,0.146,0.214,0.236
		C32.003,11.423,31.907,11.541,31.907,11.637z"/>
</g>
<g>
</g>
<g>
</g>
<g>
</g>
<g>
</g>
<g>
</g>
<g>
</g>
<g>
</g>
<g>
</g>
<g>
</g>
<g>
</g>
<g>
</g>
<g>
</g>
<g>
</g>
<g>
</g>
<g>
</g>
</svg>
