<?xml version="1.0" encoding="utf-8"?>
<!-- Generator: Adobe Illustrator 16.0.0, SVG Export Plug-In . SVG Version: 6.00 Build 0)  -->
<!DOCTYPE svg PUBLIC "-//W3C//DTD SVG 1.1//EN" "http://www.w3.org/Graphics/SVG/1.1/DTD/svg11.dtd">
<svg version="1.1" id="圖層_1" xmlns="http://www.w3.org/2000/svg" xmlns:xlink="http://www.w3.org/1999/xlink" x="0px" y="0px"
	 width="55px" height="55px" viewBox="0 0 55 55" enable-background="new 0 0 55 55" xml:space="preserve">
<g>
	<path d="M27.609,2.741c0.024,0.079,0.128,0.054,0.158,0.138c0.029,0.079-0.089,0.207-0.064,0.286
		c0.024,0.079,0.128,0.133,0.143,0.212c0.02,0.083,0.123,0.163,0.123,0.246c-0.005,0.094-0.054,0.192-0.054,0.281
		c0,0.094,0.079,0.178,0.079,0.276c0.005,0.093-0.099,0.197-0.089,0.286c0.02,0.088-0.108,0.227-0.088,0.315
		C27.846,4.87,28.161,4.85,28.2,4.938c0.045,0.079-0.01,0.207,0.045,0.286c0.049,0.069,0,0.241,0.063,0.315
		c0.069,0.069,0.108,0.128,0.153,0.217c0.044,0.088,0.261,0.098,0.29,0.197c0.03,0.094,0.01,0.207,0.03,0.306
		c0.024,0.099,0.157,0.172,0.177,0.271s-0.034,0.212-0.01,0.31c0.02,0.099-0.188,0.256-0.157,0.355
		c0.029,0.094,0.039,0.187,0.054,0.306c0.024,0.152,0.212,0.286,0.281,0.305c0.099,0.03,0.246-0.088,0.325-0.049
		c0.089,0.04,0.039,0.311,0.108,0.355c0.084,0.059,0.306-0.04,0.354,0.029c0.06,0.079-0.108,0.261-0.079,0.345
		c0.025,0.088,0.286,0.138,0.286,0.231c0.005,0.094-0.029,0.202-0.049,0.291c-0.011,0.089-0.06,0.178-0.079,0.276
		c-0.02,0.089,0.039,0.207,0.01,0.296c-0.02,0.088-0.158,0.148-0.178,0.236c-0.02,0.089-0.128,0.167-0.143,0.256
		c-0.005,0.094,0.034,0.187,0.034,0.276c0,0.099,0.108,0.177,0.118,0.266c0.005,0.088,0.045,0.167,0.06,0.256
		c0.02,0.093-0.178,0.227-0.153,0.315c0.025,0.089,0.315,0.089,0.351,0.178c0.029,0.088,0.005,0.187,0.039,0.266
		c0.039,0.084,0.128,0.138,0.168,0.217c0.039,0.079-0.045,0.227,0,0.306c0.039,0.079,0.201,0.089,0.246,0.172
		c0.044,0.079,0.108,0.143,0.157,0.222c0.045,0.084,0.03,0.197,0.079,0.271c0.05,0.079-0.104,0.271-0.059,0.35
		c0.039,0.069,0.28-0.084,0.384-0.049c0.089,0.029,0.158,0.044,0.246,0.059c0.099,0.02,0.188,0.01,0.271,0.01
		c0.094,0.01,0.172,0.167,0.251,0.188c0.094,0.02,0.128,0.147,0.197,0.182c0.079,0.044,0.34-0.074,0.384-0.005
		c0.04,0.069-0.206,0.256-0.201,0.345c0.005,0.079-0.035,0.128-0.055,0.217c-0.01,0.079,0.207,0.227,0.178,0.315
		c-0.035,0.089-0.04,0.187-0.074,0.276c-0.029,0.094-0.291,0.113-0.32,0.202c-0.029,0.093,0.143,0.246,0.113,0.34
		c-0.029,0.089-0.015,0.197-0.044,0.286c-0.03,0.094-0.168,0.153-0.197,0.242c-0.029,0.093,0.089,0.231,0.069,0.32
		c-0.03,0.093-0.257,0.128-0.281,0.222c-0.029,0.093-0.034,0.187-0.064,0.281c-0.029,0.094-0.128,0.167-0.157,0.256
		c-0.029,0.099,0.015,0.227-0.015,0.325c0.108,0.02,0.256-0.118,0.35-0.093c0.104,0.024,0.133,0.315,0.231,0.34
		c0.094,0.02,0.158-0.03,0.262-0.01c-0.016,0.094,0.029,0.148,0.01,0.236c-0.015,0.094,0.118,0.217,0.099,0.306
		c-0.011,0.094-0.168,0.163-0.188,0.256c-0.01,0.089-0.099,0.168-0.113,0.266c-0.015,0.094-0.015,0.188-0.029,0.281
		c-0.016,0.093,0.162,0.222,0.147,0.31c-0.015,0.099-0.202,0.158-0.222,0.256c-0.015,0.089-0.192,0.158-0.207,0.251
		c-0.015,0.093,0.01,0.192-0.01,0.286c-0.015,0.094,0.094,0.207,0.079,0.3c-0.016,0.089,0.143,0.222,0.138,0.335
		c0,0.157-0.158,0.315-0.099,0.34c0.104,0.054,0.197,0.083,0.266,0.138c0.084,0.074,0.178,0.133,0.217,0.222
		c0.045,0.089,0.118,0.207,0.118,0.306s0.03,0.227,0.011,0.33c-0.021,0.099-0.03,0.202-0.05,0.301
		c-0.024,0.098-0.325,0.152-0.335,0.251c-0.005,0.094,0.266,0.222,0.256,0.311c-0.02,0.089-0.231,0.148-0.246,0.241
		c-0.02,0.089-0.01,0.188-0.02,0.281c-0.015,0.088-0.05,0.177-0.06,0.266c-0.005,0.094,0.178,0.183,0.188,0.271
		c0,0.094-0.315,0.232-0.296,0.32c0.021,0.089,0.04,0.217,0.089,0.301c0.035,0.083,0.32,0.024,0.38,0.104
		c0.049,0.069,0.063,0.167,0.133,0.236c0.054,0.059,0.217,0.197,0.207,0.32c-0.01,0.089-0.34,0.143-0.365,0.241
		c-0.02,0.099-0.039,0.192-0.063,0.286c-0.024,0.108-0.084,0.202-0.104,0.291c-0.02,0.084,0.029,0.172,0,0.261
		c-0.029,0.083-0.084,0.158-0.118,0.236c-0.029,0.089,0.197,0.266,0.167,0.35c-0.029,0.088-0.207,0.123-0.227,0.202
		c-0.02,0.094,0.148,0.178,0.148,0.266c0,0.089-0.197,0.192-0.168,0.281c0.029,0.074,0.02,0.212,0.089,0.291
		c0.049,0.059,0.128,0.143,0.207,0.207c0.068,0.049,0.188,0.059,0.275,0.104c0.05,0.029,0.069,0.104,0.06,0.261
		c-0.01,0.113,0.089,0.251,0.079,0.345s-0.104,0.178-0.118,0.276c-0.021,0.089-0.197,0.157-0.207,0.251
		c-0.021,0.094,0.222,0.231,0.207,0.32c-0.016,0.099-0.011,0.197-0.03,0.286c-0.015,0.099-0.177,0.167-0.197,0.256
		c-0.02,0.094-0.005,0.192-0.024,0.286c-0.015,0.099-0.089,0.177-0.104,0.275c-0.01,0.06,0.069,0.153,0.055,0.227
		c-0.02,0.094-0.104,0.217-0.074,0.241c0.084,0.064,0.183,0.094,0.246,0.158c0.069,0.074,0,0.222,0.04,0.306
		c0.049,0.084,0.138,0.118,0.157,0.212c0.024,0.089,0.074,0.167,0.074,0.261c0.005,0.094-0.099,0.173-0.113,0.267
		c-0.015,0.093,0.089,0.201,0.068,0.3c-0.02,0.094,0.025,0.207,0,0.301c-0.02,0.094,0.011,0.202-0.01,0.291
		c-0.02,0.099-0.182,0.167-0.187,0.261c-0.015,0.099,0.207,0.183,0.217,0.281c0.005,0.099-0.01,0.217-0.021,0.315
		c0,0.099-0.231,0.182-0.246,0.285c-0.01,0.089,0.079,0.197,0.064,0.301c-0.01,0.094,0.005,0.197-0.01,0.301
		c-0.015,0.094-0.005,0.133-0.015,0.236c0.108-0.01,0.157-0.029,0.236-0.024c0.118,0.01,0.177,0.167,0.261,0.191
		c0.108,0.04,0.296-0.039,0.35,0.03c0.06,0.078,0.03,0.236,0.04,0.335c0,0.089-0.02,0.197-0.04,0.296
		c-0.02,0.088,0.05,0.217,0.021,0.305c-0.021,0.094-0.267,0.123-0.296,0.217c-0.024,0.084,0.089,0.212,0.063,0.296
		c-0.024,0.079-0.222,0.118-0.246,0.202s-0.069,0.162-0.094,0.246c-0.029,0.084,0.128,0.222,0.104,0.311
		c-0.024,0.079-0.152,0.138-0.177,0.227c-0.025,0.079-0.005,0.178-0.035,0.267c-0.024,0.083,0.148,0.227,0.118,0.31
		c-0.02,0.089-0.128,0.084-0.157,0.173c0.084,0.055,0.01,0.241,0.084,0.296c0.083,0.059,0.32-0.099,0.389-0.04
		c0.084,0.069,0.158,0.158,0.217,0.227c0.069,0.079,0,0.252,0.04,0.336c0.039,0.088,0.207,0.167,0.212,0.261
		c0.005,0.089-0.005,0.222-0.035,0.33c-0.024,0.079-0.311,0.069-0.354,0.168c-0.044,0.078,0.094,0.266,0.039,0.354
		c-0.054,0.073-0.271,0.059-0.311,0.138c-0.039,0.079,0.158,0.276,0.124,0.359c-0.03,0.084-0.247,0.104-0.276,0.192
		c-0.02,0.089,0.158,0.227,0.138,0.32c-0.02,0.094-0.305,0.128-0.325,0.217c-0.01,0.094,0.247,0.222,0.237,0.311
		c-0.011,0.089-0.197,0.167-0.197,0.261c-0.005,0.094,0.118,0.183,0.118,0.276s-0.188,0.202-0.178,0.301
		c0.015,0.099,0.084,0.196,0.099,0.29c0.02,0.094,0.128,0.173,0.147,0.271c0.021,0.089-0.118,0.231-0.088,0.325
		c0.024,0.099,0.187,0.147,0.212,0.246c0.029,0.094-0.094,0.231-0.064,0.325s0.286,0.118,0.311,0.217
		c0.024,0.089-0.183,0.246-0.158,0.335c0.021,0.099,0.355,0.118,0.38,0.207c0.02,0.099-0.192,0.241-0.168,0.335
		c0.021,0.089,0,0.197,0.021,0.286c0.02,0.088,0,0.196,0.02,0.285c0.02,0.094,0.306,0.123,0.325,0.217
		c0.024,0.094-0.015,0.197,0.01,0.296c0.02,0.094,0.015,0.192,0.039,0.281c0.02,0.093,0.045,0.182,0.06,0.275
		c0.024,0.094,0.162,0.163,0.187,0.251c0.021,0.089,0.045,0.188,0.069,0.276c0.02,0.089-0.231,0.246-0.207,0.34
		c0.02,0.094,0.281,0.133,0.296,0.227c0.024,0.094,0.099,0.173,0.123,0.262c0.024,0.098-0.207,0.246-0.183,0.335
		c0.02,0.099,0.231,0.143,0.257,0.236c0.02,0.099-0.108,0.222-0.094,0.315c0.024,0.089,0.261,0.138,0.275,0.227
		c0.021,0.089-0.231,0.246-0.217,0.34c0.025,0.094,0.163,0.162,0.183,0.251c0.02,0.094,0.01,0.192,0.029,0.286
		s0.134,0.162,0.158,0.256c0.02,0.108,0.044,0.227,0.039,0.315c0,0.108-0.207,0.163-0.246,0.246c-0.04,0.094,0,0.212-0.079,0.276
		c-0.069,0.064-0.123,0.192-0.227,0.227c-0.089,0.029-0.197,0.084-0.306,0.094c-0.099,0.005-0.197-0.039-0.29-0.034
		c-0.094,0.01-0.202-0.139-0.301-0.129s-0.168,0.296-0.267,0.301c-0.094,0.005-0.196-0.074-0.29-0.068
		c-0.094,0.005-0.207-0.178-0.306-0.173c-0.094,0.01-0.183,0.118-0.276,0.128c-0.094,0.005-0.172,0.212-0.271,0.217
		c-0.089,0.01-0.192-0.029-0.286-0.02c-0.099,0.01-0.192-0.02-0.29-0.015c-0.099,0.005-0.192,0.054-0.281,0.059
		c-0.099,0.005-0.217-0.271-0.315-0.261c-0.094,0.01-0.167,0.246-0.266,0.256c-0.094,0.01-0.188-0.005-0.286,0
		c-0.094,0.01-0.202-0.138-0.296-0.133c-0.099,0.005-0.187,0.074-0.28,0.079s-0.173,0.231-0.271,0.241s-0.197-0.123-0.296-0.118
		c-0.093,0.01-0.177,0.157-0.271,0.167c-0.094,0.006-0.212-0.236-0.306-0.227s-0.192-0.049-0.29-0.039
		c-0.094,0.005-0.192,0-0.286,0.01s-0.188,0.015-0.286,0.02c-0.089,0.01-0.188,0.04-0.281,0.05c-0.093,0.01-0.182,0.059-0.281,0.063
		s-0.197,0.005-0.286,0.015c-0.099,0.006-0.187,0.119-0.281,0.119c-0.094,0.01-0.197-0.069-0.291-0.06
		c-0.093,0.01-0.187,0.039-0.286,0.049c-0.088,0.006-0.187,0.021-0.286,0.03c-0.094,0.005-0.177,0.157-0.276,0.167
		c-0.094,0.01-0.207-0.266-0.306-0.256c-0.088,0.005-0.167,0.301-0.261,0.306c-0.093,0.01-0.211-0.257-0.305-0.247
		c-0.094,0.011-0.172,0.212-0.271,0.217c-0.094,0.011-0.207-0.157-0.296-0.147c-0.098,0.01-0.187,0.128-0.276,0.138
		c-0.098,0.01-0.187,0.079-0.286,0.089c-0.089,0.01-0.177,0.143-0.266,0.158c-0.099,0.01-0.207-0.163-0.291-0.168
		c-0.104,0-0.247,0.158-0.32,0.138c-0.094-0.034-0.222-0.143-0.281-0.207c-0.059-0.063,0.113-0.266,0.094-0.364
		c-0.025-0.079-0.227-0.138-0.222-0.236c0-0.089,0.242-0.158,0.256-0.246c0.015-0.094-0.207-0.222-0.192-0.315
		c0.01-0.089,0.276-0.139,0.295-0.227c0.015-0.089-0.094-0.202-0.079-0.296c0.02-0.089-0.099-0.207-0.084-0.296
		s-0.005-0.187,0.015-0.275c0.02-0.094,0.36-0.118,0.375-0.207c0.02-0.094-0.02-0.197-0.005-0.286s-0.104-0.202-0.083-0.296
		c0.01-0.088-0.044-0.187-0.03-0.275c0.01-0.089,0.207-0.168,0.212-0.256c0.005-0.089-0.231-0.197-0.227-0.296
		c0.005-0.089,0.069-0.173,0.074-0.267c0-0.093,0.192-0.177,0.197-0.271c0.01-0.094-0.099-0.197-0.089-0.291
		c0.01-0.089,0.069-0.177,0.084-0.266c0.015-0.094,0.163-0.163,0.177-0.257c0.02-0.088-0.148-0.217-0.123-0.305
		c0.015-0.094,0.039-0.188,0.059-0.276c0.02-0.089,0.187-0.147,0.207-0.236c0.02-0.094-0.005-0.197,0.02-0.286
		c0.02-0.089-0.207-0.236-0.188-0.325c0.02-0.089,0.296-0.128,0.315-0.217c0.02-0.094-0.182-0.227-0.167-0.315
		c0.015-0.088,0.03-0.177,0.04-0.271c0.01-0.069,0.138-0.133,0.148-0.202c0.01-0.079,0.133-0.059,0.177-0.108
		c0.079-0.069,0.069-0.217,0.128-0.286c0.064-0.078,0.242-0.093,0.286-0.167c0.049-0.089-0.005-0.236,0.024-0.325
		c0.029-0.094-0.143-0.217-0.133-0.306c0.005-0.099,0.177-0.188,0.167-0.275c-0.01-0.099,0.088-0.217,0.069-0.315
		c-0.02-0.089-0.256-0.128-0.281-0.227c-0.03-0.089-0.074-0.173-0.104-0.262c-0.035-0.094,0.01-0.212-0.02-0.301
		c-0.034-0.088-0.138-0.152-0.167-0.246c-0.029-0.089-0.113-0.172-0.138-0.266c-0.02-0.089-0.049-0.168-0.079-0.262
		c-0.029-0.094,0.173-0.261,0.138-0.35c-0.03-0.089-0.266-0.099-0.306-0.188c-0.034-0.083,0.158-0.28,0.118-0.364
		c-0.049-0.089-0.266-0.089-0.295-0.178c-0.04-0.093,0.064-0.217,0.049-0.305c-0.025-0.099-0.247-0.183-0.236-0.276
		c0.01-0.094,0.251-0.108,0.305-0.197c0.04-0.073-0.04-0.251,0.04-0.32c0.069-0.059,0.143-0.133,0.231-0.187
		c0.054-0.035,0.291-0.045,0.301-0.153c0.01-0.079-0.207-0.177-0.217-0.266c0-0.084-0.108-0.158-0.118-0.236
		c-0.01-0.094,0.029-0.188,0.024-0.262c-0.01-0.094,0.035-0.202,0.005-0.296c-0.02-0.093,0.03-0.222,0-0.31
		c-0.029-0.099-0.217-0.148-0.236-0.247c-0.02-0.094,0.187-0.236,0.167-0.325c-0.02-0.099-0.172-0.157-0.188-0.246
		c-0.01-0.099-0.108-0.188-0.108-0.275c-0.01-0.099-0.01-0.197,0-0.291c0.01-0.094,0.108-0.173,0.138-0.267
		c0.02-0.083-0.054-0.227-0.01-0.314c0.039-0.079,0.192-0.108,0.246-0.188c0.054-0.074,0.197-0.074,0.256-0.153
		c0.059-0.059-0.024-0.207-0.02-0.305c0-0.084-0.044-0.158-0.059-0.257c-0.015-0.078,0.118-0.202,0.093-0.29
		c-0.02-0.084-0.177-0.139-0.202-0.228c-0.025-0.083,0.088-0.211,0.059-0.3c-0.02-0.089-0.286-0.108-0.306-0.192
		c-0.024-0.094,0.138-0.222,0.123-0.311c-0.015-0.099-0.153-0.157-0.177-0.256c-0.024-0.094,0.005-0.202-0.02-0.296
		c-0.025-0.099-0.049-0.197-0.064-0.286c-0.015-0.099,0.069-0.196,0.079-0.295c0-0.089-0.158-0.217-0.123-0.315
		c0.024-0.089,0.246-0.099,0.3-0.188c0.04-0.079-0.069-0.275,0-0.354c0.059-0.069,0.247-0.079,0.266-0.178
		c0.015-0.084-0.015-0.192-0.02-0.291c0-0.083-0.069-0.177-0.079-0.271c-0.01-0.089,0.108-0.207,0.089-0.296
		c-0.02-0.094-0.148-0.162-0.167-0.256c-0.015-0.089-0.143-0.158-0.158-0.246c-0.02-0.094-0.01-0.192-0.02-0.281
		c-0.01-0.084,0.167-0.207,0.147-0.291c-0.01-0.088-0.167-0.147-0.182-0.236s0.123-0.187,0.113-0.275s-0.177-0.168-0.177-0.257
		c0-0.088,0.039-0.177,0.049-0.266c0.015-0.084,0.207-0.118,0.236-0.207c0.02-0.079-0.059-0.197-0.02-0.281
		c0.039-0.084-0.01-0.202,0-0.301c0.005-0.093,0.088-0.192,0.079-0.295c-0.01-0.094-0.069-0.188-0.089-0.286
		c-0.02-0.094,0.108-0.227,0.079-0.325c-0.025-0.099-0.242-0.138-0.271-0.237c-0.025-0.088-0.094-0.177-0.123-0.266
		c-0.025-0.098,0-0.207-0.02-0.305c-0.02-0.089,0.02-0.183,0-0.266c-0.015-0.084-0.207-0.158-0.207-0.247
		c-0.005-0.083,0.237-0.147,0.266-0.227c0.02-0.079-0.02-0.187,0.044-0.256c0.054-0.054,0.133-0.099,0.212-0.148
		c0.064-0.035,0.089-0.138,0.118-0.247c0.025-0.093,0.03-0.187,0.02-0.266c-0.015-0.088-0.148-0.167-0.158-0.256
		c-0.02-0.089,0.123-0.207,0.108-0.301c-0.02-0.094-0.079-0.172-0.094-0.271c-0.015-0.088,0.069-0.197,0.054-0.291
		s-0.079-0.172-0.089-0.271c-0.015-0.089-0.177-0.167-0.187-0.256s0.187-0.202,0.177-0.295c-0.01-0.089,0.02-0.183,0.02-0.276
		c0-0.089-0.02-0.178-0.02-0.276c0.005-0.089,0-0.178,0.01-0.266c0.01-0.094-0.01-0.188,0.005-0.276
		c0.02-0.094-0.143-0.232-0.118-0.325c0.025-0.094,0.044-0.153,0.044-0.256c0-0.094,0.276-0.212,0.256-0.315
		c-0.01-0.094-0.044-0.202-0.069-0.3c-0.02-0.094-0.04-0.192-0.069-0.291c-0.02-0.099-0.217-0.147-0.236-0.246
		c-0.025-0.099-0.128-0.188-0.138-0.276c-0.02-0.099,0.256-0.227,0.256-0.325c0-0.089-0.295-0.197-0.281-0.286
		c0.015-0.088,0.024-0.197,0.054-0.286c0.029-0.088,0.123-0.158,0.158-0.241c0.029-0.084,0.049-0.178,0.074-0.261
		c0.035-0.089,0.059-0.163,0.084-0.251c0.02-0.079,0.044-0.172,0.074-0.256c0.025-0.084,0.123-0.143,0.138-0.227
		c0.015-0.088,0.241-0.211,0.222-0.291c-0.02-0.089-0.276-0.128-0.296-0.217c-0.02-0.094-0.059-0.177-0.088-0.271
		c-0.025-0.094,0.005-0.197-0.02-0.286c-0.024-0.094,0.01-0.202-0.02-0.291c-0.025-0.088-0.01-0.192-0.04-0.286
		c-0.029-0.088-0.158-0.147-0.177-0.236c-0.03-0.089-0.02-0.192-0.04-0.286c-0.029-0.089-0.029-0.188-0.054-0.276
		c-0.029-0.108-0.024-0.202-0.044-0.291c-0.02-0.113,0.03-0.197,0.03-0.281c0-0.118-0.163-0.227-0.128-0.315
		c0.034-0.093,0.217-0.054,0.295-0.118c0.069-0.059,0.059-0.236,0.163-0.266c0.084-0.029,0.202,0.069,0.311,0.059
		c0.093-0.015,0.177-0.133,0.286-0.138c0.094,0,0.187-0.03,0.276-0.049c0.089-0.02,0.133-0.172,0.217-0.207
		c0.089-0.03,0.295,0.207,0.384,0.167c0.079-0.049,0.059-0.271,0.143-0.325c0.074-0.059,0.261,0.03,0.335-0.029
		c0.074-0.06-0.04-0.315,0.024-0.384c0.069-0.069,0.247-0.03,0.306-0.108c0.059-0.074,0.04-0.197,0.083-0.276
		c0.054-0.079,0.173-0.118,0.212-0.207c0.04-0.089-0.069-0.227-0.034-0.315c0.034-0.089,0.295-0.113,0.32-0.207
		c0.02-0.089,0.044-0.197,0.049-0.291c0.01-0.094-0.049-0.202-0.06-0.301c0-0.088,0.01-0.202-0.01-0.291
		c-0.02-0.094-0.059-0.172-0.079-0.271c-0.02-0.089-0.227-0.148-0.242-0.236c-0.02-0.089,0.108-0.207,0.094-0.296
		c-0.015-0.094,0.02-0.197,0.01-0.286c-0.02-0.089,0.079-0.197,0.069-0.291c-0.01-0.093-0.286-0.152-0.296-0.251
		s-0.079-0.256-0.049-0.34c0.02-0.084,0.197-0.183,0.296-0.232c0.069-0.039,0.177-0.128,0.291-0.147
		c0.064-0.005,0.212,0.088,0.271-0.01c0.054-0.088-0.108-0.231-0.108-0.305c0.01-0.099,0.02-0.197,0.024-0.296
		c0.005-0.098,0.133-0.187,0.138-0.286s-0.094-0.212-0.079-0.311c0.01-0.093,0.261-0.163,0.276-0.261
		c0.015-0.099-0.074-0.207-0.054-0.306c0.024-0.099-0.04-0.217-0.01-0.315c0.03-0.093,0.128-0.167,0.168-0.261
		c0.039-0.088,0.157-0.143,0.197-0.231c0.049-0.088,0.025-0.217,0.079-0.295c0.054-0.079,0.088-0.188,0.147-0.266
		c0.049-0.059,0.128-0.099,0.143-0.188c0.015-0.079,0.128-0.167,0.128-0.256c0-0.084-0.093-0.167-0.104-0.256
		c-0.005-0.089-0.187-0.167-0.187-0.251c-0.005-0.093,0.064-0.192,0.069-0.271c0-0.104,0.271-0.187,0.276-0.291
		c0-0.104-0.039-0.207-0.039-0.311c0.005-0.098-0.04-0.147-0.035-0.246C27.432,2.781,27.481,2.771,27.609,2.741z M28.53,43.108
		c-0.093,0.044-0.104,0.222-0.177,0.276c-0.089,0.063-0.267,0.015-0.335,0.078c-0.074,0.074-0.074,0.212-0.124,0.301
		c-0.059,0.089,0,0.207-0.03,0.306c-0.029,0.099-0.088,0.173-0.079,0.275c0,0.099,0.079,0.168,0.113,0.257
		c0.03,0.094-0.035,0.227,0.025,0.311c0.049,0.083,0.01,0.271,0.079,0.34c0.073,0.068,0.335-0.108,0.423-0.06
		c0.079,0.055,0.108,0.192,0.202,0.227c0.094,0.03,0.168,0.197,0.262,0.212c0.099,0.015,0.236,0.01,0.33-0.005
		c0.099-0.015,0.143-0.227,0.236-0.271c0.084-0.04,0.188-0.045,0.261-0.113c0.064-0.064,0.04-0.207,0.099-0.291
		c0.06-0.074,0.168-0.113,0.217-0.202c0.055-0.084,0.315-0.068,0.354-0.157c0.04-0.099,0.079-0.212,0.108-0.306
		c0.03-0.099-0.098-0.246-0.088-0.335c0.01-0.108-0.153-0.178-0.178-0.267c-0.029-0.104,0.178-0.295,0.128-0.374
		c-0.054-0.089-0.29-0.02-0.364-0.074c-0.079-0.063-0.069-0.315-0.168-0.345c-0.089-0.024-0.227,0.207-0.33,0.202
		c-0.094,0-0.182-0.02-0.28-0.01c-0.094,0.02-0.192,0.01-0.286,0.029c-0.094,0.029-0.227,0.147-0.32,0.173
		C28.561,43.286,28.565,43.094,28.53,43.108z M25.353,44.65c-0.099,0-0.192,0.148-0.281,0.148c-0.104,0-0.207-0.148-0.291-0.148
		c-0.108,0.005-0.202,0.089-0.286,0.099c-0.119,0.01-0.188,0.118-0.266,0.138c-0.108,0.03-0.183,0.021-0.242,0.079
		c-0.059,0.06-0.024,0.148-0.054,0.257c-0.02,0.078-0.153,0.138-0.167,0.246c-0.02,0.099-0.192,0.162-0.207,0.256
		c-0.02,0.094,0.266,0.236,0.251,0.335c-0.015,0.094-0.143,0.168-0.163,0.267c-0.015,0.088-0.177,0.157-0.187,0.256
		c-0.02,0.094-0.03,0.188-0.049,0.281c-0.01,0.093,0.167,0.222,0.147,0.32c-0.015,0.088-0.088,0.177-0.104,0.266
		c-0.02,0.099,0.079,0.207,0.064,0.306c-0.015,0.094-0.108,0.177-0.119,0.271c-0.015,0.094-0.271,0.148-0.286,0.242
		c-0.01,0.098-0.029,0.187-0.049,0.285c-0.015,0.094,0.118,0.212,0.099,0.306c-0.02,0.099,0.128,0.217,0.108,0.311
		c-0.015,0.094-0.286,0.143-0.306,0.241c-0.02,0.089,0.197,0.227,0.178,0.32c-0.02,0.094-0.266,0.147-0.281,0.241
		c-0.02,0.099,0.217,0.236,0.197,0.325c-0.015,0.099-0.054,0.188-0.074,0.286c-0.02,0.089-0.059,0.182-0.079,0.275
		c-0.02,0.094,0.059,0.202,0.04,0.296c-0.02,0.118-0.143,0.188-0.138,0.276c0.01,0.118-0.04,0.251,0.02,0.314
		c0.059,0.069,0.192,0.089,0.306,0.108c0.088,0.021,0.187-0.078,0.295-0.083c0.099-0.005,0.187-0.035,0.281-0.045
		s0.202,0.207,0.301,0.197c0.088-0.005,0.167-0.286,0.256-0.296c0.099-0.01,0.197,0.05,0.286,0.04
		c0.098-0.005,0.187-0.069,0.276-0.079c0.098-0.01,0.202,0.128,0.295,0.123c0.099-0.005,0.177-0.143,0.276-0.152
		c0.089-0.01,0.183-0.035,0.276-0.04c0.099-0.01,0.192,0.05,0.286,0.04c0.098-0.01,0.207,0.212,0.3,0.207
		c0.094-0.01,0.163-0.291,0.261-0.296c0.094-0.01,0.187-0.01,0.281-0.02s0.187-0.04,0.281-0.045s0.197,0.134,0.296,0.129
		c0.088-0.006,0.197,0.098,0.286,0.093c0.099-0.01,0.167-0.285,0.266-0.295c0.089-0.005,0.207,0.285,0.306,0.275
		c0.088-0.005,0.187,0.024,0.28,0.02c0.094-0.01,0.163-0.266,0.262-0.275c0.094-0.015,0.187-0.04,0.275-0.05
		c0.099-0.005,0.207,0.227,0.306,0.222c0.094-0.005,0.168-0.222,0.266-0.231c0.089-0.005,0.183-0.059,0.276-0.063
		s0.197,0.104,0.291,0.094c0.094-0.005,0.172-0.173,0.271-0.178c0.089-0.01,0.197,0.188,0.296,0.178
		c0.094-0.005,0.188-0.035,0.275-0.05c0.099-0.01,0.197,0.06,0.286,0.055c0.099-0.005,0.188-0.084,0.276-0.094
		c0.098-0.005,0.177-0.188,0.266-0.197c0.099-0.01,0.212,0.256,0.306,0.251c0.099-0.005,0.182-0.063,0.275-0.073
		c0.108-0.011,0.197-0.099,0.286-0.118c0.104-0.03,0.133-0.197,0.217-0.237c0.094-0.049,0.236,0.03,0.306-0.039
		c0.068-0.069,0.192-0.108,0.236-0.197c0.039-0.089,0.06-0.202,0.074-0.306c0.015-0.088-0.178-0.187-0.183-0.295
		c0-0.089,0.157-0.197,0.138-0.306c-0.02-0.089,0.118-0.207,0.104-0.301c-0.02-0.094-0.073-0.173-0.094-0.261
		c-0.02-0.084-0.157-0.148-0.177-0.237c-0.02-0.088-0.202-0.147-0.217-0.236c-0.02-0.089,0.138-0.212,0.118-0.305
		c-0.02-0.089-0.069-0.168-0.084-0.257c-0.02-0.089-0.084-0.167-0.099-0.261c-0.02-0.084-0.094-0.163-0.113-0.252
		c-0.02-0.088-0.089-0.167-0.108-0.256s-0.059-0.178-0.079-0.261c-0.02-0.089,0.237-0.242,0.217-0.33
		c-0.02-0.084-0.325-0.108-0.34-0.197c-0.02-0.094,0.153-0.227,0.133-0.311c-0.02-0.089-0.068-0.173-0.093-0.261
		c-0.025-0.084-0.025-0.178-0.045-0.267s-0.227-0.113-0.256-0.197c-0.029-0.078,0.256-0.28,0.227-0.364
		c-0.034-0.084-0.06-0.178-0.094-0.256c-0.034-0.079-0.32-0.05-0.359-0.139c-0.035-0.078,0.005-0.167-0.03-0.246
		c-0.073,0.039-0.059,0.202-0.138,0.246c-0.073,0.04-0.311-0.182-0.394-0.138c-0.074,0.039-0.148,0.094-0.228,0.138
		c-0.073,0.045-0.167,0.064-0.246,0.108c-0.073,0.05-0.118,0.158-0.192,0.202c-0.073,0.045-0.162,0.074-0.241,0.118
		c-0.099,0.06,0,0.464-0.089,0.508c-0.088,0.039-0.241-0.06-0.33-0.02c-0.083,0.044-0.093,0.251-0.182,0.29
		c-0.089,0.04-0.267-0.113-0.355-0.073c-0.088,0.039-0.206,0.01-0.295,0.049c-0.084,0.04-0.178,0.069-0.262,0.108
		c-0.088,0.04-0.152,0.133-0.241,0.168c-0.089,0.039-0.157,0.118-0.246,0.157c-0.089,0.029-0.128,0.188-0.222,0.217
		c-0.055,0.02-0.207-0.104-0.301-0.177c-0.089-0.06-0.024-0.228-0.059-0.291c-0.05-0.084-0.321-0.039-0.375-0.118
		c-0.059-0.084-0.118-0.144-0.177-0.217c-0.064-0.084-0.005-0.251-0.069-0.32c-0.069-0.069-0.158-0.113-0.232-0.178
		c-0.074-0.059-0.118-0.167-0.197-0.217c-0.084-0.059-0.212-0.015-0.301-0.059c-0.088-0.045-0.138-0.178-0.231-0.207
		c-0.089-0.029-0.197-0.02-0.291-0.04c-0.099-0.015-0.178-0.177-0.276-0.187c-0.094-0.01-0.207,0.049-0.306,0.044
		C25.555,44.631,25.451,44.641,25.353,44.65z M32.596,39.556c-0.084,0-0.247,0.108-0.325,0.108
		c-0.089-0.005-0.168-0.162-0.257-0.167c-0.083,0-0.167,0.079-0.251,0.079c-0.084,0.01-0.162,0.108-0.241,0.118
		c-0.099,0.01-0.197-0.025-0.291-0.01c-0.099,0.015-0.182,0.093-0.28,0.108c-0.099,0.015-0.207-0.089-0.306-0.069
		c-0.099,0.01-0.217-0.128-0.311-0.113c-0.099,0.015-0.147,0.33-0.241,0.345c-0.099,0.015-0.212-0.079-0.311-0.069
		c-0.099,0.016-0.212-0.118-0.311-0.103c-0.099,0.015-0.188,0.029-0.286,0.039s-0.172,0.217-0.266,0.227
		c-0.099,0.01-0.197-0.039-0.296-0.034s-0.197,0.123-0.29,0.133c-0.094,0-0.192-0.069-0.286-0.064s-0.192-0.231-0.291-0.231
		c-0.093,0-0.187,0-0.286,0c-0.088,0-0.187,0.158-0.276,0.158c-0.099,0-0.192,0.157-0.286,0.157c-0.099,0-0.188-0.256-0.286-0.261
		c-0.094,0-0.188,0.227-0.286,0.227c-0.093,0-0.187-0.241-0.276-0.241c-0.098,0-0.197,0.246-0.295,0.246
		c-0.089-0.005-0.188-0.029-0.281-0.029c-0.094-0.011-0.188-0.035-0.281-0.04c-0.099,0-0.197,0.084-0.286,0.079
		c-0.098,0-0.187-0.118-0.281-0.123s-0.182-0.104-0.281-0.108c-0.094-0.005-0.192,0.039-0.286,0.034
		c-0.108,0-0.188,0.104-0.261,0.118c-0.113,0.02-0.123,0.04-0.172,0.099c-0.049,0.069-0.256,0.099-0.247,0.207
		c0.005,0.084,0.296,0.104,0.335,0.207c0.03,0.089,0,0.202,0.03,0.296c0.04,0.098,0.118,0.167,0.153,0.256
		c0.034,0.094-0.074,0.231-0.044,0.325c0.03,0.089,0.187,0.143,0.217,0.236c0.035,0.089,0.083,0.178,0.113,0.267
		c0.035,0.093,0,0.206,0.03,0.3c0.034,0.089-0.153,0.257-0.124,0.351c0.035,0.088,0.325,0.088,0.36,0.182s0.064,0.183,0.094,0.276
		c0.029,0.094,0.083,0.172,0.118,0.266c0.029,0.089-0.079,0.231-0.04,0.32c0.03,0.079,0.035,0.251,0.128,0.32
		c0.099,0.069,0.256-0.133,0.335-0.138c0.098-0.005,0.197,0.296,0.295,0.296c0.094,0,0.187,0.039,0.286,0.044
		c0.089,0,0.192-0.246,0.286-0.246c0.098,0,0.182-0.03,0.276-0.035c0.098-0.005,0.227,0.222,0.315,0.202
		c0.099-0.02,0.128-0.246,0.217-0.285c0.089-0.04,0.124-0.108,0.197-0.168c0.074-0.054,0.212-0.024,0.276-0.108
		c0.049-0.069-0.04-0.217,0.01-0.306c0.04-0.084,0.261-0.084,0.296-0.177c0.02-0.06,0.044-0.118,0.108-0.163
		c0.059-0.044,0.167-0.024,0.222-0.069c0.074-0.059,0.104-0.162,0.177-0.211c0.084-0.05,0.084-0.247,0.157-0.286
		c0.084-0.045,0.271,0.178,0.36,0.147c0.089-0.029,0.147-0.099,0.236-0.118c0.089-0.015,0.167-0.094,0.256-0.099
		c0.089,0,0.197-0.152,0.286-0.138c0.089,0.01,0.167,0.168,0.251,0.188c0.084,0.024,0.148,0.113,0.236,0.147
		c0.084,0.029,0.163,0.05,0.252,0.089c0.078,0.034,0.251-0.099,0.335-0.05c0.079,0.045,0.059,0.242,0.143,0.296
		c0.074,0.045,0.045,0.227,0.123,0.286c0.069,0.049,0.158,0.068,0.231,0.128c0.069,0.059,0.212,0.02,0.281,0.084
		c0.069,0.059,0.108-0.04,0.178,0.024c0.039-0.094,0.138-0.024,0.172-0.113c0.034-0.094,0.045-0.192,0.074-0.281
		c0.034-0.088,0.029-0.196,0.059-0.285c0.03-0.089,0.005-0.197,0.035-0.291c0.029-0.094,0.01-0.197,0.039-0.286
		c0.029-0.093,0.034-0.191,0.064-0.28c0.024-0.089,0.325-0.104,0.35-0.197s-0.231-0.266-0.202-0.354
		c0.024-0.089,0.236-0.133,0.266-0.227c0.021-0.089,0.011-0.192,0.035-0.286c0.024-0.099,0.063-0.183,0.084-0.276
		c0.02-0.098-0.144-0.231-0.119-0.324c0.021-0.094,0.365-0.108,0.39-0.207C32.645,39.837,32.576,39.654,32.596,39.556z
		 M32.615,36.038c-0.094-0.005-0.267,0.094-0.354,0.089c-0.089,0-0.168-0.168-0.257-0.168c-0.089-0.01-0.182,0.069-0.271,0.064
		s-0.183,0.084-0.271,0.079s-0.177-0.055-0.266-0.055c-0.094-0.01-0.178,0.06-0.271,0.06c-0.093,0-0.177-0.118-0.266-0.113
		c-0.094,0.005-0.192-0.148-0.291-0.148c-0.094,0.005-0.177,0.311-0.275,0.311c-0.094,0.005-0.188-0.104-0.286-0.099
		c-0.099,0-0.197-0.143-0.296-0.138c-0.088,0-0.187,0.01-0.285,0.01c-0.094,0.005-0.183,0.207-0.276,0.207
		c-0.099,0.005-0.197-0.049-0.285-0.044c-0.099,0.005-0.188,0.118-0.286,0.123c-0.099,0-0.192-0.069-0.291-0.06
		c-0.093,0-0.202-0.236-0.291-0.231c-0.099,0.005-0.197,0.005-0.286,0.005c-0.099,0.005-0.187,0.158-0.286,0.163
		c-0.089,0.005-0.183,0.167-0.276,0.172c-0.094,0-0.197-0.256-0.296-0.246c-0.099,0-0.187,0.236-0.276,0.236
		c-0.099,0.005-0.202-0.231-0.295-0.227c-0.094,0-0.183,0.256-0.276,0.266c-0.094,0-0.192-0.02-0.286-0.02
		c-0.098,0.005-0.192-0.015-0.286-0.01c-0.099,0-0.187,0.099-0.286,0.099c-0.099,0.005-0.197-0.104-0.286-0.099
		c-0.099,0-0.197-0.094-0.296-0.089c-0.094,0-0.187,0.055-0.281,0.06c-0.083,0.005-0.138,0.147-0.231,0.217
		c-0.113,0.084-0.148,0.094-0.138,0.147c0.02,0.089-0.182,0.222-0.167,0.315c0.02,0.089,0.311,0.123,0.33,0.217
		c0.015,0.089-0.024,0.188,0,0.281c0.025,0.094,0.099,0.167,0.118,0.256c0.025,0.094-0.093,0.212-0.074,0.306
		c0.024,0.094,0.177,0.143,0.202,0.231c0.024,0.089,0.069,0.173,0.099,0.256c0.029,0.094-0.005,0.197,0.024,0.286
		c0.024,0.089-0.158,0.251-0.123,0.335c0.015,0.039,0.222-0.147,0.375-0.152c0.083-0.005,0.172-0.015,0.276-0.025
		c0.093-0.01,0.187-0.039,0.281-0.049c0.104-0.015,0.217,0.123,0.305,0.118c0.03,0,0.054,0.138,0.084,0.138
		c0.094,0,0.182-0.275,0.281-0.275c0.094,0,0.188,0.301,0.281,0.301c0.094,0,0.192,0.034,0.281,0.034
		c0.098,0,0.187-0.256,0.286-0.256c0.088,0,0.187-0.021,0.276-0.03c0.094,0,0.187,0.247,0.286,0.247
		c0.089,0,0.182-0.217,0.276-0.217c0.099,0,0.188-0.045,0.281-0.045c0.094,0,0.188,0.113,0.281,0.113
		c0.099,0,0.188-0.157,0.281-0.157s0.192,0.207,0.28,0.207c0.099,0,0.192-0.03,0.281-0.03c0.094,0,0.192,0.074,0.281,0.074
		c0.098,0,0.187-0.074,0.285-0.074c0.089,0,0.183-0.177,0.276-0.177s0.192,0.275,0.285,0.266c0.099,0,0.188-0.049,0.281-0.049
		c0.094-0.005,0.183-0.079,0.281-0.079c0.093-0.01,0.182-0.157,0.275-0.162c0.089-0.006,0.188,0.138,0.281,0.138
		c0.078-0.005,0.196,0.044,0.29,0.005c0.089-0.029,0.183-0.099,0.257-0.143c0.088-0.06-0.01-0.217,0.02-0.291
		c0.034-0.089,0.231-0.118,0.266-0.207c0.03-0.089,0.217-0.128,0.247-0.222c0.029-0.089,0.024-0.192,0.054-0.291
		c0.024-0.089-0.059-0.217-0.034-0.311c0.029-0.093-0.108-0.231-0.084-0.32c0.024-0.093,0.231-0.138,0.256-0.231
		c0.025-0.094,0.025-0.191,0.055-0.28c0.024-0.094,0.015-0.197,0.039-0.296C32.442,36.265,32.586,36.132,32.615,36.038z
		 M32.009,33.121c0.005-0.108-0.143-0.207-0.143-0.295c0-0.104,0.147-0.217,0.133-0.306c-0.015-0.108-0.123-0.197-0.152-0.271
		c-0.05-0.104-0.163-0.099-0.236-0.143c-0.079-0.039-0.129-0.089-0.237-0.069c-0.088,0.01-0.138,0.104-0.236,0.148
		c-0.088,0.039-0.227-0.03-0.315,0c-0.098,0.029-0.217-0.099-0.305-0.084c-0.099,0.015-0.158,0.33-0.252,0.33
		c-0.099,0.01-0.202-0.108-0.3-0.108c-0.089-0.01-0.168-0.168-0.267-0.178c-0.094-0.01-0.188-0.02-0.275-0.039
		c-0.094-0.01-0.228,0.162-0.325,0.143c-0.089-0.015-0.178-0.083-0.276-0.104c-0.089-0.01-0.197,0.094-0.296,0.079
		c-0.099-0.005-0.187-0.084-0.28-0.089c-0.099-0.005-0.192-0.246-0.291-0.246c-0.094,0-0.197,0-0.295,0
		c-0.099,0-0.192,0.152-0.286,0.157c-0.098,0.011-0.187,0.178-0.276,0.188c-0.098,0.005-0.227-0.236-0.325-0.227
		c-0.098,0.01-0.157,0.256-0.256,0.266c-0.099,0.016-0.232-0.201-0.325-0.187c-0.094,0.02-0.138,0.285-0.237,0.306
		c-0.098,0.024-0.197,0.02-0.291,0.034c-0.094,0.02-0.202,0.015-0.291,0.024c-0.094,0.01-0.188,0.113-0.281,0.118
		c-0.094,0.01-0.202-0.099-0.301-0.099c-0.089-0.01-0.177-0.113-0.276-0.128c-0.089-0.01-0.188,0.015-0.286-0.01
		c-0.108-0.029-0.207,0.06-0.296,0.074c-0.108,0.015-0.123,0.044-0.187,0.123c-0.059,0.079-0.286,0.094-0.291,0.207
		c-0.005,0.094,0.271,0.162,0.301,0.275c0.02,0.089-0.02,0.188,0,0.267c0.02,0.084,0.099,0.157,0.118,0.241
		c0.02,0.084-0.104,0.202-0.088,0.286c0.02,0.083,0.167,0.143,0.187,0.231c0.01,0.089,0.049,0.177,0.059,0.261
		c0.015,0.089-0.04,0.192-0.035,0.276c0.005,0.104-0.202,0.231-0.182,0.315c0.03,0.103,0.311,0.088,0.35,0.162
		c0.054,0.084,0.064,0.104,0.143,0.147c0.079,0.05,0.108,0.04,0.217,0.06c0.079,0.02,0.138,0.173,0.247,0.173
		c0.083,0,0.187,0.108,0.286,0.103c0.099-0.01,0.158-0.285,0.256-0.295c0.093-0.01,0.211,0.285,0.305,0.271
		c0.094-0.005,0.188,0.02,0.281,0.015c0.094-0.01,0.163-0.271,0.261-0.275c0.089-0.01,0.182-0.04,0.276-0.05
		c0.094-0.005,0.207,0.227,0.296,0.217c0.093-0.005,0.172-0.217,0.266-0.227c0.098-0.005,0.187-0.059,0.276-0.059
		c0.098-0.01,0.197,0.104,0.286,0.099c0.099-0.005,0.177-0.168,0.276-0.173c0.094-0.005,0.197,0.197,0.286,0.192
		c0.099-0.01,0.187-0.04,0.28-0.04c0.094-0.005,0.192,0.064,0.281,0.064c0.099-0.005,0.187-0.074,0.275-0.074
		c0.099-0.005,0.188-0.182,0.276-0.182c0.099,0,0.197,0.271,0.285,0.271c0.094,0,0.188-0.049,0.276-0.049
		c0.108,0,0.197-0.074,0.291-0.074c0.104,0,0.191-0.152,0.28-0.152c0.104,0,0.202,0.143,0.286,0.138
		c0.108,0,0.207,0.059,0.296,0.049c0.104-0.01,0.196-0.039,0.285-0.059c0.104-0.024,0.099-0.227,0.173-0.276
		c0.084-0.049,0.241,0.03,0.29-0.059c0.05-0.069,0.242-0.123,0.267-0.227c0.024-0.084,0.005-0.197,0.02-0.306
		c0.01-0.089-0.099-0.197-0.089-0.301c0.005-0.089-0.157-0.192-0.147-0.296c0-0.088,0.188-0.172,0.192-0.271
		C31.94,33.313,32.004,33.22,32.009,33.121z M23.205,13.926c0.029,0.093,0.187,0.227,0.207,0.315
		c0.029,0.089-0.089,0.227-0.059,0.315c0.029,0.089,0.128,0.158,0.157,0.247c0.03,0.088,0.153,0.153,0.178,0.241
		c0.029,0.094,0.015,0.197,0.044,0.281c0.025,0.094,0.119,0.167,0.143,0.256c0.03,0.089-0.059,0.217-0.035,0.306
		c0.025,0.088-0.103,0.217-0.088,0.305c0.024,0.094,0.34,0.128,0.35,0.217c0.02,0.094-0.069,0.197-0.039,0.276
		c0.029,0.094-0.064,0.247-0.02,0.315c0.049,0.084,0.128,0.177,0.197,0.231c0.064,0.06,0.246-0.054,0.335-0.015
		c0.079,0.03,0.138,0.108,0.227,0.118c0.084,0.02,0.177-0.088,0.266-0.083c0.079,0.005,0.167,0.074,0.261,0.069
		c0.088-0.005,0.192,0.231,0.286,0.222c0.094,0,0.182-0.005,0.276-0.01c0.094,0,0.177-0.158,0.271-0.158
		c0.089-0.005,0.177-0.167,0.266-0.167c0.099,0,0.192,0.256,0.286,0.251c0.089-0.005,0.178-0.237,0.266-0.237
		c0.094,0,0.192,0.237,0.281,0.232c0.094,0,0.183-0.256,0.271-0.256c0.089-0.005,0.188,0.02,0.276,0.02
		c0.089,0,0.188,0.03,0.276,0.02c0.089,0,0.178-0.089,0.271-0.089s0.182,0.108,0.275,0.108c0.094-0.005,0.183,0.094,0.276,0.094
		c0.089-0.005,0.182-0.054,0.275-0.054c0.089-0.005,0.183-0.108,0.271-0.108c0.089-0.005,0.183-0.03,0.275-0.035
		c0.089-0.005,0.192,0.212,0.286,0.212c0.069-0.005,0.118-0.286,0.197-0.306c0.089-0.02,0.157,0.025,0.227-0.005
		c0.094-0.04,0.049-0.049,0.079-0.108c0.029-0.083,0.196-0.113,0.236-0.202c0.029-0.079-0.06-0.212-0.029-0.296
		c0.034-0.089,0.049-0.177,0.073-0.266c0.035-0.079,0.123-0.143,0.153-0.231c0.029-0.084,0.275-0.094,0.305-0.182
		c0.03-0.084-0.196-0.256-0.167-0.345c0.029-0.079,0.059-0.167,0.089-0.251c0.029-0.089,0.039-0.178,0.068-0.266
		c0.03-0.084,0.197-0.124,0.227-0.212c0.03-0.084,0.168-0.133,0.197-0.217c0.029-0.089-0.177-0.104-0.147-0.192
		c-0.089-0.005-0.029-0.231-0.123-0.241c-0.094-0.005-0.188-0.044-0.276-0.049c-0.094-0.01-0.202,0.236-0.296,0.236
		c-0.093-0.01-0.187,0.01-0.28,0c-0.089-0.005-0.168-0.256-0.256-0.256c-0.099-0.01-0.197,0.197-0.296,0.192
		c-0.089-0.005-0.188,0.035-0.276,0.03c-0.099-0.005-0.177-0.128-0.275-0.133c-0.089,0-0.183,0.158-0.276,0.158
		c-0.089,0-0.182-0.207-0.275-0.207c-0.099,0-0.197,0.025-0.296,0.04c-0.099,0.01-0.217-0.049-0.315-0.029
		c-0.099,0.015-0.188,0.103-0.281,0.118c-0.099,0.02-0.167,0.212-0.266,0.231c-0.099,0.015-0.236-0.241-0.34-0.231
		c-0.084,0.01-0.167,0.069-0.256,0.069c-0.094,0.01-0.187,0.079-0.276,0.064c-0.094-0.01-0.246,0.104-0.33,0.064
		c-0.084-0.044-0.104-0.207-0.192-0.241c-0.088-0.035-0.157-0.128-0.246-0.153c-0.094-0.024-0.197-0.024-0.286-0.04
		c-0.089-0.015-0.207,0.167-0.296,0.158c-0.099-0.005-0.172-0.187-0.266-0.187c-0.099-0.01-0.192-0.167-0.286-0.167
		c-0.099,0.005-0.187,0.049-0.286,0.049c-0.094,0.005-0.177,0.133-0.271,0.138c-0.094,0.01-0.172,0.188-0.266,0.192
		s-0.202-0.167-0.291-0.163c-0.099,0.01-0.188,0.039-0.281,0.039C23.471,13.975,23.303,13.926,23.205,13.926z M27.865,17.843
		c0-0.04-0.059,0.064-0.059,0.024c-0.088,0.005-0.172-0.138-0.266-0.133c-0.089,0.005-0.168,0.093-0.261,0.104
		c-0.094,0.005-0.172,0.108-0.266,0.118c-0.089,0.005-0.183-0.035-0.276-0.03c-0.089,0.01-0.172,0.089-0.261,0.094
		c-0.094,0.005-0.192-0.104-0.281-0.094c-0.094,0.01-0.192-0.143-0.281-0.138c-0.094,0.01-0.158,0.315-0.251,0.325
		c-0.089,0.01-0.187-0.099-0.281-0.089c-0.089,0.005-0.188-0.133-0.281-0.128c-0.094,0.01-0.183,0.02-0.271,0.029
		c-0.089,0.01-0.163,0.207-0.256,0.222c-0.089,0.005-0.182-0.044-0.276-0.034c-0.089,0.01-0.167,0.128-0.256,0.138
		c-0.088,0.01-0.187-0.029-0.291,0.02c-0.133,0.069-0.448,0.118-0.438,0.167c0.01,0.088,0.015,0.177,0.024,0.266
		c0.015,0.088,0.167,0.157,0.183,0.246c0.01,0.089,0.177,0.158,0.187,0.247c0.01,0.083-0.236,0.207-0.227,0.295
		c0.015,0.089,0.256,0.138,0.271,0.227c0.015,0.089-0.202,0.217-0.182,0.306c0.02,0.088,0.281,0.118,0.305,0.207
		c0.02,0.088,0.015,0.177,0.04,0.256c0.029,0.089,0.029,0.178,0.059,0.261c0.02,0.069,0.099-0.005,0.231,0.025
		c0.089,0.029,0.158,0.157,0.266,0.167c0.104,0.015,0.202,0.123,0.301,0.128c0.113,0.01,0.222-0.035,0.315-0.035
		c0.089,0,0.188-0.098,0.281-0.098c0.093,0,0.187-0.025,0.281-0.025c0.088,0,0.182,0.222,0.276,0.222
		c0.099,0,0.187-0.276,0.281-0.276s0.192,0.064,0.281,0.064c0.094,0,0.188-0.059,0.276-0.059c0.094,0,0.188,0.143,0.286,0.143
		c0.094,0,0.188-0.133,0.276-0.133c0.098,0,0.192-0.02,0.281-0.02c0.093,0,0.192,0.059,0.281,0.059c0.099,0,0.192,0.227,0.286,0.227
		s0.188-0.276,0.281-0.276c0.093,0,0.187,0,0.28,0c0.089,0,0.183-0.02,0.276-0.024c0.099,0,0.187,0.153,0.285,0.143
		c0.094,0,0.188,0.119,0.281,0.108c0.094,0,0.183-0.266,0.276-0.271c0.093-0.005,0.191,0.296,0.285,0.291
		c0.094,0,0.192,0.034,0.281,0.029c0.068,0,0.118-0.266,0.202-0.295c0.073-0.025,0.123-0.074,0.187-0.113
		c0.084-0.054,0.33,0.005,0.34-0.049c0.021-0.094-0.162-0.231-0.147-0.33c0.02-0.089-0.005-0.192,0.01-0.286
		c0.015-0.099,0.147-0.173,0.163-0.271c0.015-0.094-0.134-0.212-0.113-0.311c0.01-0.089,0.222-0.167,0.236-0.261
		c0.01-0.099-0.01-0.197,0-0.291c0.01-0.099,0.089-0.188,0.099-0.286c0.005-0.098-0.06-0.202-0.06-0.295
		c0-0.054-0.178,0-0.296-0.069c-0.073-0.049-0.034-0.34-0.123-0.375c-0.099-0.04-0.241-0.025-0.315-0.03
		c-0.093,0-0.191,0.069-0.28,0.064c-0.089-0.005-0.188,0.143-0.276,0.143c-0.094,0-0.187-0.148-0.275-0.148
		s-0.188-0.069-0.276-0.069s-0.188,0.02-0.275,0.02c-0.089,0-0.188,0.197-0.276,0.197s-0.188-0.172-0.275-0.172
		c-0.094,0-0.188-0.163-0.281-0.163s-0.183,0.04-0.276,0.04C28.014,17.798,27.954,17.843,27.865,17.843z M24.648,28.697
		c0-0.025-0.049,0.088-0.049,0.068c-0.029,0-0.034-0.147-0.064-0.147c-0.079,0.01-0.167,0.089-0.256,0.089
		c-0.089,0-0.158,0.104-0.247,0.118s-0.158-0.01-0.227,0.044c-0.059,0.045-0.03,0.118-0.059,0.217
		c-0.02,0.069-0.138,0.128-0.138,0.231c0,0.089-0.153,0.188-0.147,0.281c0.01,0.089,0.315,0.152,0.335,0.241
		c0.01,0.089-0.089,0.188-0.069,0.276c0.02,0.088-0.108,0.217-0.079,0.3c0.024,0.094,0.059,0.183,0.089,0.267
		c0.029,0.084,0.246,0.104,0.281,0.183c0.039,0.088,0.029,0.187,0.074,0.261c0.049,0.084,0.182,0.074,0.242,0.143
		c0.064,0.069,0.064,0.168,0.133,0.207c0.084,0.05,0.148,0.306,0.236,0.306c0.089-0.01,0.183-0.01,0.276-0.015
		c0.089-0.005,0.178-0.153,0.266-0.158c0.089-0.005,0.178-0.167,0.266-0.172c0.089,0,0.197,0.251,0.286,0.246
		c0.094,0,0.178-0.236,0.266-0.241c0.089-0.005,0.197,0.231,0.286,0.222c0.093,0,0.172-0.256,0.266-0.262
		c0.088-0.005,0.187,0.016,0.276,0.011c0.088-0.005,0.187,0.015,0.276,0.015c0.088-0.005,0.177-0.099,0.276-0.099
		c0.088-0.01,0.187,0.099,0.281,0.099c0.089-0.005,0.187,0.089,0.281,0.083c0.088-0.005,0.177-0.059,0.266-0.063
		c0.094,0,0.183-0.108,0.271-0.113c0.094-0.005,0.183-0.034,0.276-0.045c0.094,0,0.197,0.217,0.291,0.207
		c0.088-0.005,0.162-0.285,0.256-0.295c0.089-0.005,0.188,0.049,0.276,0.044c0.088-0.005,0.182-0.069,0.275-0.074
		c0.089-0.01,0.188,0.129,0.281,0.129c0.094-0.011,0.172-0.148,0.266-0.153c0.089-0.005,0.183-0.034,0.271-0.039
		c0.088-0.005,0.157,0.034,0.261-0.024c0.094-0.05,0.315,0.063,0.39-0.011c0.088-0.078-0.074-0.31-0.04-0.394
		c0.029-0.094,0.064-0.173,0.094-0.267c0.024-0.088,0.034-0.177,0.055-0.275c0.02-0.089,0.187-0.148,0.206-0.246
		c0.021-0.089,0.148-0.168,0.163-0.267c0.015-0.089-0.241-0.222-0.231-0.315c0.015-0.094,0.325-0.157,0.33-0.256
		c0.005-0.064-0.005-0.236-0.045-0.315c-0.039-0.069-0.295,0.005-0.354-0.055c-0.059-0.068-0.084-0.068-0.147-0.078
		c-0.079-0.015-0.133-0.271-0.217-0.276c-0.089-0.01-0.197,0.192-0.281,0.183c-0.089-0.01-0.172,0.029-0.261,0.029
		c-0.084-0.005-0.168-0.123-0.251-0.123c-0.084,0-0.168,0.157-0.252,0.163c-0.089,0-0.187-0.197-0.266-0.192
		c-0.094,0.005-0.183,0.034-0.276,0.039c-0.089,0.005-0.187-0.063-0.285-0.059c-0.089,0.005-0.178,0.083-0.271,0.088
		s-0.172,0.188-0.261,0.192c-0.094,0.01-0.207-0.261-0.296-0.256c-0.094,0.01-0.183,0.063-0.275,0.068
		c-0.089,0.011-0.178,0.089-0.271,0.099c-0.089,0.005-0.172,0.168-0.261,0.168c-0.093,0.01-0.197-0.128-0.291-0.123
		c-0.089,0.005-0.188-0.055-0.281-0.045c-0.089,0.005-0.183,0.03-0.276,0.04c-0.099,0.005-0.173,0.207-0.261,0.217
		c-0.094,0.005-0.197-0.168-0.291-0.158c-0.094,0.01-0.197-0.147-0.291-0.147c-0.094,0.01-0.182,0.059-0.271,0.059
		c-0.088,0.011-0.177,0.139-0.266,0.144c-0.093,0.005-0.177,0.182-0.266,0.192c-0.098,0.005-0.197-0.168-0.295-0.163
		C24.815,28.741,24.742,28.688,24.648,28.697z M28.284,21.449c-0.094,0.005-0.183,0.163-0.275,0.167
		c-0.094,0.005-0.203-0.143-0.291-0.138c-0.094,0.005-0.183,0.093-0.276,0.103c-0.094,0.005-0.183,0.108-0.271,0.114
		c-0.094,0.005-0.192-0.035-0.281-0.025c-0.099,0.01-0.188,0.084-0.276,0.089c-0.099,0.005-0.197-0.104-0.286-0.099
		c-0.099,0.005-0.197-0.143-0.295-0.138c-0.094,0.005-0.167,0.315-0.256,0.315c-0.099,0.01-0.197-0.099-0.291-0.088
		c-0.094,0-0.192-0.138-0.286-0.133c-0.104,0.005-0.197,0.015-0.286,0.02c-0.104,0.005-0.182,0.212-0.271,0.222
		c-0.108,0.005-0.207-0.044-0.295-0.03c-0.108,0.01-0.167,0.138-0.251,0.158c-0.113,0.024-0.192-0.02-0.261,0.029
		c-0.079,0.06-0.335,0.035-0.364,0.138c-0.02,0.074-0.03,0.227-0.03,0.335c0.01,0.084,0.167,0.177,0.177,0.281
		c0.015,0.084,0.188,0.153,0.207,0.256c0.02,0.089-0.217,0.231-0.197,0.33c0.02,0.089,0.261,0.138,0.286,0.241
		c0.02,0.104-0.188,0.251-0.163,0.331c0.035,0.098,0.3,0.079,0.345,0.152c0.054,0.084,0.069,0.143,0.143,0.192
		c0.069,0.054,0.118,0.099,0.217,0.128c0.079,0.02,0.158-0.059,0.261-0.049c0.083,0,0.172,0.119,0.271,0.108
		c0.098-0.01,0.197,0.089,0.291,0.079c0.094-0.005,0.187-0.059,0.281-0.064s0.177-0.113,0.276-0.124
		c0.094-0.005,0.188-0.029,0.286-0.039c0.089-0.01,0.197,0.207,0.296,0.202c0.094-0.005,0.172-0.286,0.266-0.291
		c0.099,0,0.192,0.049,0.286,0.049c0.099-0.005,0.187-0.069,0.286-0.069c0.094-0.005,0.192,0.138,0.286,0.138
		c0.093,0,0.187-0.138,0.286-0.138c0.088,0,0.188-0.02,0.286-0.02c0.088,0,0.187,0.069,0.28,0.074s0.183,0.231,0.276,0.231
		c0.093,0.01,0.201-0.261,0.3-0.256c0.089,0.01,0.188,0.02,0.286,0.025s0.188-0.005,0.276,0.005
		c0.098,0.005,0.177,0.167,0.266,0.167c0.099,0.01,0.188,0.128,0.271,0.138c0.103,0.005,0.201-0.266,0.28-0.266
		c0.108,0,0.217,0.296,0.296,0.286c0.104-0.01,0.236-0.005,0.315-0.04c0.094-0.035,0.029-0.295,0.089-0.365
		c0.049-0.069,0.054-0.128,0.088-0.227c0.03-0.079,0.286-0.104,0.306-0.207c0.02-0.079-0.172-0.207-0.157-0.305
		c0.01-0.084-0.02-0.178-0.01-0.276c0.01-0.089,0.138-0.167,0.143-0.266c0.005-0.089-0.143-0.197-0.133-0.296
		c0.01-0.029,0.217-0.034,0.222-0.059c0.02-0.113,0.01-0.222,0.005-0.305c-0.01-0.119,0.01-0.266-0.05-0.335
		c-0.059-0.074-0.202-0.093-0.315-0.128c-0.078-0.024-0.196,0.128-0.305,0.123c-0.099-0.005-0.178-0.286-0.271-0.291
		c-0.094-0.01-0.192,0.03-0.291,0.024c-0.088-0.005-0.191,0.06-0.285,0.054c-0.099-0.01-0.207,0.138-0.296,0.128
		c-0.099-0.01-0.188-0.158-0.275-0.167c-0.099-0.01-0.188-0.084-0.276-0.094c-0.099-0.005-0.197,0.005-0.286-0.005
		c-0.099-0.01-0.217,0.177-0.305,0.172C28.457,21.71,28.378,21.454,28.284,21.449z M31.714,25.011
		c-0.094,0.015-0.237,0.148-0.33,0.168c-0.089,0.02-0.207-0.119-0.296-0.099c-0.094,0.02-0.168,0.118-0.256,0.128
		c-0.089,0.02-0.173,0.128-0.262,0.138c-0.094,0.01-0.192-0.03-0.28-0.03c-0.099,0-0.188,0.069-0.286,0.069
		c-0.089,0-0.183-0.118-0.276-0.118c-0.093,0-0.187-0.158-0.275-0.158c-0.099,0-0.188,0.306-0.286,0.306
		c-0.089,0-0.182-0.113-0.275-0.113c-0.099,0-0.188-0.153-0.281-0.153s-0.183,0.01-0.281,0.01c-0.088,0-0.187,0.192-0.275,0.192
		c-0.099,0-0.188-0.054-0.281-0.054c-0.094,0-0.183,0.108-0.281,0.108c-0.094,0-0.183-0.074-0.276-0.074
		c-0.099,0-0.188-0.241-0.276-0.241c-0.098,0-0.187,0-0.281,0c-0.093,0-0.182,0.148-0.281,0.148c-0.094,0-0.187,0.158-0.276,0.158
		c-0.099,0-0.187-0.256-0.281-0.261c-0.094,0-0.182,0.231-0.281,0.231c-0.094,0-0.188-0.241-0.276-0.241
		c-0.099,0-0.188,0.251-0.281,0.251c-0.094,0-0.188-0.024-0.281-0.024c-0.093,0-0.187-0.025-0.276-0.025
		c-0.099,0-0.187,0.089-0.276,0.089c-0.079,0-0.158-0.079-0.246-0.03c-0.079,0.049-0.222,0.03-0.286,0.089
		c-0.079,0.079-0.108,0.207-0.113,0.276c-0.005,0.099,0.084,0.188,0.084,0.281c-0.005,0.094,0.02,0.177,0.029,0.271
		c0,0.089-0.207,0.207-0.192,0.291c0.015,0.093,0.3,0.128,0.32,0.211c0.029,0.094-0.01,0.188,0.029,0.266
		c0.035,0.084,0.119,0.119,0.167,0.188c0.049,0.079-0.02,0.227,0.049,0.295c0.064,0.064,0.202,0.005,0.281,0.054
		c0.074,0.049,0.138,0.059,0.227,0.094c0.083,0.029,0.133,0.113,0.222,0.138c0.088,0.02,0.138,0.256,0.231,0.266
		c0.083,0.01,0.192-0.256,0.286-0.256c0.084,0,0.167,0,0.266-0.005c0.084-0.005,0.163-0.035,0.261-0.044s0.222,0.118,0.315,0.099
		c0.099-0.02,0.227,0.074,0.325,0.049c0.099-0.02,0.128-0.305,0.227-0.325c0.099-0.029,0.266,0.242,0.365,0.217
		c0.098-0.029,0.207-0.02,0.305-0.039c0.094-0.02,0.138-0.286,0.237-0.311c0.079-0.015,0.177-0.044,0.261-0.054
		c0.084,0,0.153,0.247,0.237,0.256c0.084,0.005,0.202-0.192,0.285-0.177c0.084,0.01,0.183-0.025,0.271-0.015
		c0.089,0.015,0.167,0.143,0.251,0.153s0.197-0.133,0.281-0.123c0.089,0.015,0.157,0.222,0.246,0.231s0.178,0,0.267,0.005
		c0.088,0.005,0.177,0.094,0.266,0.094c0.089,0.01,0.178-0.059,0.266-0.054c0.094,0.005,0.178-0.172,0.267-0.172
		c0.074,0,0.217,0.231,0.306,0.187c0.068-0.04,0.128-0.138,0.197-0.197c0.063-0.054,0.078-0.172,0.128-0.236
		c0.059-0.074-0.04-0.202-0.02-0.271c0.029-0.083,0.191-0.118,0.217-0.207c0.029-0.083,0.113-0.152,0.128-0.241
		c0.02-0.089,0.02-0.177,0.039-0.266s-0.162-0.207-0.147-0.295c0.02-0.089,0.207-0.143,0.222-0.237
		c0.015-0.083,0.191-0.143,0.207-0.227c0.015-0.089-0.016-0.187,0.005-0.271C31.758,25.277,31.698,25.1,31.714,25.011z M25.5,13.236
		c0.099,0,0.276-0.108,0.37-0.108c0.099,0,0.197,0.158,0.291,0.158c0.099,0,0.197-0.084,0.291-0.084
		c0.099,0,0.192-0.098,0.291-0.098s0.197,0.044,0.291,0.044c0.099,0,0.192-0.069,0.291-0.069c0.098,0,0.192,0.118,0.286,0.118
		c0.099,0,0.197,0.158,0.295,0.158c0.099,0,0.187-0.305,0.286-0.305s0.197,0.108,0.296,0.108s0.188,0.147,0.286,0.147
		c0.098,0,0.196,0,0.285,0c0.099,0,0.197-0.197,0.286-0.197c0.099,0,0.197,0.059,0.291,0.059c0.093,0,0.078-0.049,0.172-0.049
		c-0.034-0.099-0.01-0.099-0.039-0.177c-0.04-0.099,0.147-0.276,0.113-0.365c-0.04-0.099-0.084-0.197-0.123-0.276
		c-0.045-0.089-0.227-0.118-0.276-0.188c-0.054-0.088-0.227-0.054-0.296-0.118c-0.068-0.059-0.005-0.325-0.099-0.37
		c-0.078-0.034-0.246,0.153-0.345,0.128c-0.088-0.015-0.152-0.261-0.256-0.271c-0.089-0.01-0.197,0.246-0.306,0.246
		c-0.089,0-0.177-0.029-0.286-0.024c-0.089,0.005-0.187-0.025-0.286-0.015c-0.089,0-0.188,0.093-0.286,0.098
		c-0.099,0-0.197-0.108-0.296-0.098c-0.108,0.01-0.217-0.079-0.3-0.06c-0.099,0.03-0.178,0.108-0.261,0.148
		c-0.084,0.044-0.089,0.177-0.158,0.237c-0.069,0.069-0.099,0.138-0.148,0.217c-0.049,0.079-0.286,0.054-0.33,0.138
		c-0.04,0.089,0.172,0.286,0.133,0.375c-0.035,0.089-0.128,0.148-0.168,0.236C25.762,13.063,25.545,13.152,25.5,13.236z
		 M26.328,8.964c-0.01,0.094,0.113,0.251,0.108,0.34c0,0.099-0.163,0.182-0.163,0.266c0,0.098,0.084,0.197,0.084,0.276
		c0.01,0.099,0.118,0.182,0.128,0.266c0.01,0.098-0.01,0.187,0.02,0.266c0.039,0.089,0.128,0.108,0.182,0.178
		c0.054,0.069,0.044,0.202,0.133,0.246c0.074,0.035,0.128,0.217,0.222,0.237c0.084,0.02,0.217-0.266,0.32-0.256
		c0.084,0.01,0.163,0.123,0.261,0.123c0.084,0,0.182,0.148,0.276,0.143c0.084,0,0.182-0.01,0.281-0.01
		c0.089-0.01,0.178-0.217,0.286-0.247c0.104-0.029,0.217-0.01,0.311-0.049c0.133-0.059,0.104-0.128,0.113-0.192
		c0.015-0.094,0.094-0.173,0.099-0.266c0.005-0.094,0.246-0.188,0.246-0.281c0-0.099-0.005-0.197-0.01-0.296
		c-0.01-0.088-0.168-0.177-0.178-0.266c-0.01-0.099-0.178-0.172-0.188-0.266c-0.01-0.098,0.237-0.217,0.227-0.31
		c-0.005-0.04-0.256,0.024-0.364-0.005c-0.084-0.03-0.162-0.276-0.227-0.271c-0.089,0.015-0.147,0.271-0.236,0.281
		c-0.089,0.015-0.178,0-0.266,0.01c-0.089,0.01-0.177,0-0.266,0.01s-0.163,0.113-0.256,0.128c-0.083,0.015-0.187-0.088-0.276-0.069
		c-0.088,0.01-0.187-0.079-0.276-0.059c-0.089,0.01-0.167,0.069-0.261,0.084C26.565,8.989,26.417,8.949,26.328,8.964z M28.595,7.599
		C28.496,7.54,28.289,7.54,28.21,7.491c-0.098-0.064-0.098-0.256-0.167-0.3c-0.118-0.074-0.266-0.054-0.345-0.035
		c-0.079,0.01-0.103,0.133-0.177,0.183c-0.064,0.044-0.148,0.064-0.217,0.123c-0.059,0.049-0.044,0.083-0.108,0.128
		c0.064,0.079,0.02,0.188,0.084,0.276c0.083,0.118,0.182,0.379,0.261,0.375c0.083-0.01,0.098-0.325,0.192-0.365
		c0.074-0.029,0.197,0.025,0.281-0.024c0.073-0.04,0.227,0.044,0.31-0.005C28.397,7.806,28.506,7.644,28.595,7.599z"/>
	<path d="M28.624,42.976c0.069,0.034,0.217,0.099,0.296,0.133s0.069,0.281,0.138,0.32c0.079,0.039,0.315-0.079,0.365-0.01
		c0.059,0.079-0.163,0.315-0.129,0.414c0.04,0.094,0.39,0.108,0.409,0.207c0.015,0.104-0.291,0.246-0.291,0.345
		c0,0.049-0.044-0.029-0.162,0.034c-0.123,0.064-0.084,0.163-0.104,0.133c-0.069-0.059-0.147-0.094-0.207-0.167
		c-0.059-0.074-0.34-0.01-0.384-0.094c-0.05-0.084,0.217-0.301,0.187-0.39c-0.029-0.078-0.078-0.113-0.078-0.201
		c0-0.084-0.139-0.173-0.129-0.257c0.005-0.089-0.059-0.172-0.059-0.251C28.477,43.192,28.585,42.976,28.624,42.976z"/>
</g>
<g>
</g>
<g>
</g>
<g>
</g>
<g>
</g>
<g>
</g>
<g>
</g>
<g>
</g>
<g>
</g>
<g>
</g>
<g>
</g>
<g>
</g>
<g>
</g>
<g>
</g>
<g>
</g>
<g>
</g>
</svg>
