<?xml version="1.0" encoding="utf-8"?>
<!-- Generator: Adobe Illustrator 16.0.0, SVG Export Plug-In . SVG Version: 6.00 Build 0)  -->
<!DOCTYPE svg PUBLIC "-//W3C//DTD SVG 1.1//EN" "http://www.w3.org/Graphics/SVG/1.1/DTD/svg11.dtd">
<svg version="1.1" id="圖層_1" xmlns="http://www.w3.org/2000/svg" xmlns:xlink="http://www.w3.org/1999/xlink" x="0px" y="0px"
	 width="55px" height="55px" viewBox="0 0 55 55" enable-background="new 0 0 55 55" xml:space="preserve">
<g>
	<path fill="#F3B3A3" d="M17.283,4.157c0.637-0.25,1.129-0.504,1.652-0.629c0.674-0.155,1.368-0.254,2.053-0.277
		c3.932-0.128,7.868-0.235,11.801-0.333c0.292-0.008,0.583,0.113,0.875,0.147c0.204,0.027,0.421,0.019,0.617-0.019
		c0.72-0.147,1.429-0.352,2.156-0.436c0.155-0.019,0.47,0.349,0.522,0.58c0.083,0.356,0.061,0.765-0.016,1.129
		c-0.269,1.326,0.25,2.603,0.193,3.917c-0.057,1.356,0.012,2.72-0.011,4.076c-0.004,0.364-0.152,0.72-0.213,1.076
		c-0.03,0.235-0.022,0.477-0.007,0.716c0.019,0.341,0.075,0.678,0.091,1.012c0.007,0.151-0.068,0.318-0.03,0.455
		c0.659,2.451,0.23,4.932,0.295,7.395c0.022,0.924-0.788,1.917,0.091,2.803c0,2.258-0.026,4.516,0.016,6.766
		c0.019,1.106,0.23,2.209,0.23,3.311c0,2.485-0.109,4.967-0.102,7.452c0.004,0.769,0.345,1.526,0.367,2.299
		c0.057,1.895,0.015,3.796,0.026,5.69c0.008,0.599-0.242,0.895-0.845,0.856c-1.564-0.091-3.125-0.258-4.689-0.273
		c-1.05-0.011-2.096,0.247-3.145,0.273c-2.148,0.057-4.3,0.041-6.444,0.049c-1.197,0.004-2.402-0.079-3.591,0
		c-0.939,0.064-1.171-0.39-1.171-1.17c0-1.296,0.012-2.592-0.003-3.884c-0.083-5.905-0.174-11.812-0.266-17.718
		c-0.053-3.22-0.113-6.436-0.159-9.656c-0.053-4.216-0.091-8.429-0.152-12.645C17.405,6.085,17.329,5.055,17.283,4.157z
		 M34.021,7.995c0.03,0,0.061,0,0.091-0.008c0-0.947,0.064-1.898-0.034-2.841c-0.034-0.303-0.474-0.784-0.754-0.807
		c-1.099-0.099-2.213-0.11-3.312-0.042c-3.045,0.182-6.091,0.424-9.137,0.636c-0.568,0.042-1.026,0.239-1.026,0.872
		c0.004,0.568,0.205,1.14,0.186,1.705c-0.03,0.883-0.485,1.894-0.182,2.61c0.432,1.038,0.363,2.027,0.386,3.042
		c0.015,0.818,0.368,0.97,1.129,0.962c2.106-0.026,4.235,0.22,6.327,0.042c1.511-0.125,2.962,0.603,4.451,0.095
		c0.61-0.212,1.413-0.276,1.77-0.708c0.367-0.443,0.417-1.254,0.401-1.897C34.293,10.431,34.126,9.214,34.021,7.995z"/>
	<path fill="#FFFFFF" d="M33.156,5.418c0,2.512,0,5.183,0,8.008c-1.955,0-3.766,0.016-5.576-0.003
		c-1.887-0.019-3.781-0.118-5.667-0.091c-0.606,0.008-0.864-0.064-0.894-0.712c-0.083-2.046-0.231-4.087-0.303-6.133
		c-0.008-0.243,0.261-0.667,0.477-0.72c0.637-0.159,1.314-0.189,1.978-0.235c2.356-0.178,4.713-0.364,7.069-0.5
		c0.425-0.026,0.864,0.144,1.3,0.205C32.065,5.305,32.588,5.354,33.156,5.418z"/>
	<g>
		<g>
			<path d="M37.725,8.195c0.008,0.103,0.106,0.193,0.118,0.292c0.007,0.103,0.071,0.197,0.079,0.292
				c0.008,0.102-0.099,0.208-0.083,0.307c0.008,0.099,0.109,0.197,0.117,0.288c0.008,0.102-0.072,0.212-0.064,0.307
				c0.008,0.099-0.034,0.205-0.022,0.299c0.008,0.099,0.103,0.189,0.113,0.288c0.008,0.099-0.083,0.212-0.075,0.311
				c0.007,0.103,0.136,0.189,0.147,0.288c0.008,0.098-0.163,0.22-0.155,0.318c0.008,0.099,0.083,0.189,0.091,0.288
				s-0.099,0.212-0.091,0.311c0.008,0.099,0.022,0.197,0.03,0.295c0.008,0.099,0.113,0.189,0.121,0.288s0.099,0.197,0.103,0.295
				c0.011,0.099,0.125,0.189,0.133,0.288c0.007,0.099,0.015,0.205,0.019,0.303c0.004,0.098-0.28,0.208-0.276,0.307
				c0.004,0.102,0.208,0.193,0.208,0.292c0.004,0.099-0.004,0.197-0.004,0.296c0,0.102,0.106,0.201,0.106,0.299
				c0,0.103-0.186,0.205-0.186,0.303c0,0.103-0.141,0.201-0.133,0.307c0.004,0.098,0.242,0.197,0.242,0.303
				c0,0.103-0.166,0.201-0.166,0.303c0,0.106,0.28,0.205,0.28,0.303c0,0.106-0.054,0.205-0.054,0.307
				c0,0.103,0.004,0.201,0.004,0.303c0,0.102-0.057,0.201-0.064,0.307c0,0.099,0.008,0.197,0.008,0.303
				c0,0.102-0.151,0.201-0.151,0.299c0,0.102-0.016,0.201-0.016,0.307c0,0.099,0.061,0.197,0.061,0.303
				c0,0.102,0.03,0.201,0.023,0.303c0,0.102,0.136,0.204,0.132,0.303c0,0.106-0.102,0.205-0.102,0.303s-0.064,0.197-0.064,0.299
				c0,0.098,0.178,0.205,0.174,0.303c-0.004,0.099-0.314,0.197-0.314,0.299c0,0.106,0.216,0.205,0.216,0.303
				c0,0.106-0.272,0.201-0.272,0.303c0,0.102,0.36,0.205,0.36,0.311c0,0.099-0.03,0.197-0.03,0.303c0,0.102-0.25,0.201-0.25,0.299
				c0,0.099,0.151,0.201,0.151,0.303c0,0.103,0.053,0.201,0.053,0.307c0,0.098-0.311,0.205-0.311,0.303
				c0,0.103,0.197,0.201,0.197,0.299s0.091,0.201,0.095,0.307c0,0.098-0.027,0.197-0.027,0.303c0,0.103,0.012,0.201,0.016,0.303
				c0.004,0.102,0.053,0.201,0.053,0.303c0,0.106-0.166,0.205-0.166,0.303c0,0.106,0.227,0.205,0.227,0.303
				c0,0.102-0.25,0.205-0.25,0.311c0,0.099,0.175,0.197,0.183,0.295c0,0.099-0.3,0.208-0.296,0.311
				c0.004,0.102,0.197,0.201,0.197,0.299c0,0.103,0.162,0.201,0.166,0.299c0.004,0.099-0.159,0.208-0.159,0.307
				c0,0.098-0.083,0.205-0.083,0.303c0,0.099,0.288,0.201,0.288,0.299c0,0.106-0.356,0.212-0.356,0.311
				c0,0.102,0.258,0.197,0.258,0.299c0,0.103,0.008,0.201,0.008,0.307c0,0.099-0.182,0.204-0.175,0.303
				c0,0.106-0.098,0.209-0.098,0.308c0,0.102,0.196,0.196,0.196,0.299c0,0.106-0.166,0.204-0.166,0.311
				c0,0.103,0.234,0.197,0.234,0.3c0.008,0.102-0.068,0.204-0.064,0.303c0.004,0.103,0.147,0.2,0.155,0.299
				c0,0.106,0.034,0.205,0.034,0.308c0,0.102-0.019,0.2-0.019,0.303s-0.167,0.208-0.167,0.307c0,0.106,0.004,0.205,0.004,0.307
				c0,0.103,0.012,0.201,0.012,0.304c0,0.102,0.174,0.196,0.178,0.299c0.004,0.106-0.186,0.205-0.182,0.311
				c0.004,0.103,0.064,0.201,0.064,0.304c0,0.102,0.011,0.2,0.015,0.303c0,0.105-0.178,0.204-0.174,0.311
				c0,0.103,0.272,0.197,0.276,0.299c0,0.103-0.175,0.205-0.175,0.308c0,0.105,0.239,0.196,0.239,0.303
				c0,0.103-0.212,0.204-0.205,0.307c0,0.103,0.061,0.205,0.061,0.307c0,0.106,0.054,0.205,0.054,0.311
				c0,0.103,0.022,0.205,0.022,0.308c0,0.102-0.22,0.208-0.22,0.314c0,0.099,0.121,0.204,0.125,0.307
				c0,0.103,0.042,0.204,0.042,0.307c0,0.106-0.197,0.212-0.197,0.311c0,0.106,0.375,0.205,0.375,0.307
				c0,0.103-0.296,0.213-0.292,0.314c0,0.106,0.103,0.205,0.103,0.311c0,0.103,0.019,0.205,0.026,0.308c0,0.102-0.008,0.208,0,0.307
				c0,0.106,0.159,0.204,0.159,0.311c0,0.103-0.034,0.205-0.03,0.311c0.004,0.106-0.178,0.212-0.178,0.311
				c0,0.106-0.026,0.209-0.026,0.311c0,0.103,0.091,0.205,0.091,0.311c0.007,0.099-0.106,0.205-0.099,0.311
				c0,0.103,0.129,0.205,0.129,0.308c0,0.102,0.095,0.208,0.095,0.307c0.004,0.106-0.095,0.212-0.095,0.314s-0.03,0.204-0.03,0.311
				c0,0.11,0.189,0.201,0.189,0.307c0,0.099-0.228,0.209-0.22,0.311c0,0.103,0.03,0.205,0.037,0.311c0,0.099,0.046,0.205,0.05,0.304
				c0.004,0.105-0.163,0.212-0.155,0.314c0,0.102,0.314,0.2,0.318,0.307c0.004,0.099-0.228,0.204-0.228,0.314
				c0,0.103,0.174,0.201,0.174,0.303c0,0.103-0.041,0.209-0.037,0.314c0.003,0.099,0.011,0.205,0.015,0.307
				c0.004,0.103-0.121,0.209-0.121,0.314c0,0.099-0.046,0.205-0.046,0.312c0.008,0.102,0.25,0.2,0.254,0.303
				s-0.276,0.212-0.272,0.318c0.004,0.099,0.272,0.196,0.276,0.303c0.004,0.103-0.167,0.208-0.159,0.311
				c0,0.106,0.216,0.205,0.22,0.303c0.004,0.106,0.046,0.209,0.054,0.312c0,0.102-0.228,0.212-0.228,0.317
				c0.004,0.099,0.151,0.205,0.159,0.304c0,0.105-0.235,0.216-0.235,0.318c0.004,0.102,0.121,0.204,0.129,0.311
				c0,0.099-0.14,0.212-0.137,0.314c0.004,0.102,0.36,0.196,0.364,0.299c0.004,0.106-0.288,0.22-0.288,0.318
				c0.004,0.106,0.212,0.204,0.216,0.307s-0.189,0.216-0.189,0.314c0.004,0.106,0.209,0.205,0.209,0.307
				c0.007,0.103-0.137,0.213-0.137,0.314c0.004,0.106-0.106,0.213-0.106,0.318c0.004,0.103,0.03,0.205,0.03,0.311
				c0,0.106,0.326,0.201,0.326,0.304c0,0.105-0.311,0.212-0.311,0.317c0,0.103,0.295,0.201,0.295,0.308
				c0,0.109-0.125,0.216-0.128,0.314c-0.004,0.113-0.145,0.204-0.159,0.295c-0.008,0.118-0.038,0.189-0.068,0.276
				c-0.03,0.106,0.14,0.353,0.068,0.421c-0.068,0.064-0.224,0.137-0.342,0.167c-0.083,0.03-0.238-0.209-0.355-0.197
				c-0.091,0.012-0.189-0.038-0.304-0.038c-0.091,0.008-0.188,0.205-0.303,0.209c-0.099,0-0.2-0.217-0.303-0.217
				s-0.205,0.11-0.304,0.11c-0.098,0-0.196,0.208-0.303,0.208c-0.099,0-0.2-0.303-0.299-0.303s-0.201,0.212-0.308,0.212
				c-0.098,0-0.196-0.234-0.295-0.234c-0.106,0-0.205,0.121-0.307,0.121c-0.103,0-0.201,0.022-0.304,0.022
				c-0.102,0-0.2-0.061-0.299-0.061c-0.106,0-0.205-0.008-0.307-0.008c-0.103,0-0.201,0.023-0.304,0.023
				c-0.099,0-0.2-0.106-0.307-0.106c-0.099,0-0.197,0.272-0.295,0.272c-0.103,0-0.205-0.125-0.308-0.125
				c-0.099,0.004-0.2,0.034-0.299,0.034c-0.099,0.008-0.205-0.075-0.303-0.075c-0.106,0.007-0.197,0.257-0.304,0.272
				c-0.105,0.008-0.2,0.034-0.307,0.053c-0.11,0.022-0.25-0.151-0.356-0.125c-0.102,0.022-0.23-0.049-0.341-0.019
				c-0.103,0.026-0.212,0.03-0.314,0.053c-0.105,0.022-0.144,0.353-0.246,0.371c-0.091,0.023-0.208-0.091-0.296-0.099
				c-0.098-0.007-0.208,0.129-0.307,0.122c-0.099-0.008-0.189-0.027-0.288-0.034c-0.098-0.008-0.174-0.266-0.272-0.273
				c-0.099-0.007-0.197,0.034-0.295,0.026c-0.099-0.011-0.187-0.098-0.284-0.109c-0.099-0.012-0.193-0.012-0.292-0.019
				c-0.099-0.012-0.201,0.045-0.296,0.037c-0.099-0.015-0.188-0.083-0.288-0.099c-0.099-0.011-0.212,0.179-0.311,0.167
				c-0.099-0.011-0.189-0.068-0.284-0.083c-0.121-0.012-0.224-0.038-0.299,0c-0.095,0.053-0.178,0.174-0.273,0.212
				c-0.098,0.038-0.246-0.008-0.345,0.016c-0.102,0.022-0.231-0.054-0.33-0.042c-0.106,0.012-0.216,0.167-0.318,0.163
				c-0.106,0-0.228,0.011-0.333,0c-0.099-0.012-0.216-0.03-0.322-0.046c-0.103-0.022-0.186-0.174-0.288-0.197
				c-0.103-0.022-0.239,0.092-0.341,0.062c-0.103-0.023-0.197-0.076-0.299-0.099c-0.103-0.023-0.193-0.091-0.295-0.11
				c-0.106-0.019-0.182-0.182-0.281-0.2c-0.106-0.016-0.204-0.072-0.314-0.084c-0.103-0.008-0.216,0.084-0.322,0.084
				c-0.099,0.007-0.231-0.175-0.337-0.159c-0.103,0.015-0.186,0.189-0.288,0.22c-0.099,0.03-0.208,0.022-0.314,0.057
				c-0.099,0.03-0.167,0.163-0.265,0.193s-0.205,0.071-0.303,0.095c-0.102,0.026-0.224-0.076-0.326-0.058
				c-0.106,0.016-0.197,0.137-0.303,0.137c-0.098,0.004-0.197-0.103-0.299-0.113c-0.098-0.008-0.182-0.121-0.28-0.141
				c-0.098-0.015-0.231,0.179-0.33,0.159c-0.098-0.019-0.223,0.08-0.322,0.064c-0.099-0.022-0.186-0.076-0.288-0.091
				c-0.099-0.016-0.186-0.106-0.284-0.113c-0.098-0.012-0.197,0.022-0.295,0.022s-0.174,0.099-0.28,0.113
				c-0.099,0.012-0.167,0.023-0.265,0.054c-0.099,0.022-0.303,0.061-0.394,0.105c-0.042-0.091,0.091-0.417,0.049-0.504
				s-0.201-0.117-0.239-0.204c-0.042-0.087-0.038-0.193-0.076-0.28c-0.034-0.091,0-0.193-0.023-0.284
				c-0.022-0.106-0.083-0.197-0.106-0.296c-0.022-0.105-0.288-0.155-0.311-0.258c-0.023-0.105-0.023-0.212-0.042-0.317
				c-0.019-0.103,0.163-0.243,0.144-0.349c-0.019-0.106,0.031-0.22,0.015-0.326c-0.015-0.106-0.102-0.197-0.117-0.303
				c-0.015-0.099,0.061-0.22,0.045-0.322c-0.011-0.099-0.326-0.167-0.333-0.266c-0.007-0.098,0.205-0.212,0.197-0.311
				c0-0.102-0.189-0.2-0.189-0.299s0.045-0.197,0.045-0.3c0-0.098,0.053-0.196,0.061-0.299c0.004-0.106,0.189-0.201,0.197-0.311
				c0.003-0.106-0.076-0.212-0.068-0.318c0.004-0.106-0.061-0.212-0.053-0.318c0.008-0.105,0.14-0.204,0.148-0.311
				c0.011-0.103-0.186-0.22-0.182-0.326c0.004-0.105-0.049-0.212-0.038-0.321c0.007-0.106,0.072-0.205,0.08-0.311
				c0.011-0.11,0.182-0.201,0.182-0.308c0.008-0.105-0.288-0.23-0.28-0.333c0-0.106,0.083-0.204,0.091-0.311
				c0-0.099,0.027-0.197,0.034-0.296c0.008-0.098,0.042-0.192,0.049-0.291c0.007-0.099,0.167-0.186,0.174-0.28
				c0.007-0.099-0.068-0.201-0.057-0.3c0.008-0.099-0.132-0.204-0.125-0.303c0-0.099,0.266-0.182,0.266-0.28
				c0.007-0.099-0.208-0.201-0.208-0.296c0-0.099-0.008-0.193-0.008-0.288c-0.003-0.109,0.08-0.227,0.064-0.333
				c-0.007-0.113,0.099-0.242,0.076-0.356c-0.015-0.105-0.098-0.204-0.121-0.318c-0.022-0.109,0.087-0.242,0.064-0.348
				c-0.019-0.114-0.034-0.217-0.049-0.326c-0.015-0.087-0.193-0.151-0.182-0.238c0.007-0.088-0.068-0.171-0.068-0.262
				c-0.007-0.099,0.167-0.205,0.167-0.303c-0.007-0.099-0.083-0.193-0.091-0.292c0-0.099,0.083-0.201,0.076-0.3
				c-0.003-0.098-0.003-0.204-0.011-0.295c-0.007-0.099-0.345-0.167-0.356-0.266c-0.008-0.099-0.023-0.166-0.057-0.272
				c-0.03-0.099,0.167-0.266,0.144-0.363c-0.022-0.106-0.257-0.273-0.216-0.364c0.038-0.091,0.314-0.091,0.353-0.189
				c0.03-0.091-0.053-0.228-0.023-0.325c0.023-0.099,0-0.205,0.015-0.304c0.023-0.099,0.265-0.163,0.28-0.261
				c0.015-0.099-0.205-0.231-0.189-0.334c0.008-0.102,0.091-0.193,0.099-0.295c0-0.103-0.008-0.201-0.008-0.308
				c0.008-0.098,0.016-0.196,0.016-0.303c0-0.103,0.132-0.204,0.132-0.307c-0.004-0.103,0.042-0.205,0.042-0.307
				c-0.007-0.106-0.295-0.189-0.303-0.288c0-0.106,0.057-0.208,0.049-0.311c-0.008-0.103-0.064-0.201-0.072-0.3
				c-0.004-0.102,0.03-0.208,0.023-0.307c0-0.106-0.122-0.204-0.122-0.307c-0.003-0.103,0.012-0.205,0.012-0.307
				c0-0.106,0.193-0.205,0.201-0.304c0-0.099,0.049-0.196,0.049-0.295c0-0.103,0.022-0.201,0.026-0.304
				c0.004-0.098-0.167-0.2-0.167-0.299c0-0.103,0.246-0.201,0.246-0.3c0-0.098-0.034-0.196-0.034-0.299
				c0-0.099-0.106-0.201-0.106-0.299c0-0.099-0.205-0.197-0.205-0.304c0-0.099,0.049-0.196,0.049-0.295s0.114-0.205,0.114-0.304
				s0.155-0.2,0.155-0.299s0.026-0.201,0.026-0.3c0-0.098-0.276-0.196-0.276-0.295s0.235-0.205,0.227-0.304
				c0-0.098-0.007-0.196-0.007-0.299s-0.038-0.201-0.042-0.299c0-0.099-0.034-0.197-0.034-0.304c0-0.099,0.141-0.2,0.141-0.299
				s-0.091-0.197-0.091-0.296s-0.163-0.2-0.163-0.299c0-0.031-0.045-0.016-0.061-0.038c-0.042-0.091,0.106-0.265,0.076-0.36
				c-0.038-0.095-0.307-0.118-0.33-0.212c-0.027-0.098,0.208-0.261,0.189-0.36c-0.019-0.098-0.012-0.193-0.027-0.292
				c-0.007-0.099-0.057-0.189-0.061-0.292c-0.007-0.099-0.053-0.189-0.061-0.296c0-0.098,0.03-0.197,0.038-0.295
				c0.003-0.098-0.167-0.208-0.159-0.307c0.007-0.099,0.254-0.178,0.261-0.28c0.008-0.099,0.057-0.193,0.064-0.292
				c0.015-0.098-0.099-0.212-0.091-0.314c0.015-0.098-0.083-0.212-0.072-0.311c0.012-0.099-0.034-0.208-0.026-0.307
				c0.015-0.099,0.148-0.182,0.155-0.28c0.012-0.099-0.11-0.212-0.102-0.311c0.007-0.098-0.012-0.197-0.012-0.295
				c0.004-0.098-0.003-0.193-0.007-0.295c-0.004-0.099,0.148-0.197,0.14-0.303c-0.007-0.098-0.174-0.189-0.174-0.288
				c-0.007-0.099-0.015-0.201-0.015-0.299c-0.007-0.099,0.106-0.208,0.106-0.307c-0.007-0.098,0.231-0.205,0.228-0.303
				c-0.004-0.099-0.36-0.193-0.36-0.292c0-0.098,0.33-0.201,0.33-0.303c0-0.099-0.356-0.201-0.356-0.299
				c0-0.099,0.387-0.197,0.387-0.303c0-0.099-0.114-0.201-0.106-0.299c0-0.099-0.228-0.201-0.228-0.307
				c0-0.099-0.011-0.197-0.011-0.295c0-0.099,0.322-0.197,0.322-0.299c0-0.099-0.098-0.201-0.098-0.299
				c0-0.099,0.061-0.197,0.068-0.303c0-0.099-0.231-0.197-0.231-0.295s0.307-0.201,0.307-0.303c0-0.102-0.333-0.201-0.333-0.299
				c0-0.098,0.314-0.201,0.314-0.307c0-0.099-0.372-0.197-0.375-0.299c0-0.102,0.22-0.205,0.22-0.307
				c0-0.103,0.038-0.205,0.03-0.303c0-0.106,0.022-0.205,0.022-0.303c0-0.106-0.212-0.205-0.22-0.303
				c0-0.103,0.118-0.205,0.118-0.311c0-0.098-0.159-0.197-0.159-0.295c0-0.106,0.33-0.212,0.322-0.311
				c0-0.102-0.14-0.201-0.14-0.303c0-0.106-0.114-0.205-0.117-0.303c0-0.106-0.03-0.205-0.03-0.307c0-0.102,0.257-0.205,0.253-0.307
				c0-0.106-0.17-0.205-0.17-0.303s0.182-0.205,0.182-0.307c0-0.103-0.129-0.201-0.133-0.303s-0.042-0.201-0.049-0.307
				c0-0.099-0.174-0.201-0.174-0.299c0-0.103,0.133-0.205,0.129-0.307c-0.004-0.106-0.147-0.205-0.151-0.303
				c0-0.099,0.106-0.205,0.106-0.307c0-0.102-0.034-0.201-0.034-0.303c0-0.102-0.026-0.201-0.034-0.307
				c0-0.099,0.239-0.205,0.235-0.307c-0.003-0.099-0.159-0.201-0.159-0.299c0-0.103-0.083-0.201-0.083-0.303
				c0-0.106,0.144-0.205,0.144-0.311c0-0.103,0.121-0.205,0.121-0.307c0-0.102,0.015-0.201,0.015-0.307
				c-0.007-0.099-0.28-0.197-0.28-0.295c0-0.106-0.038-0.205-0.042-0.307c-0.004-0.102,0.197-0.205,0.193-0.307
				c-0.003-0.106-0.117-0.205-0.117-0.303c-0.004-0.106,0.155-0.208,0.155-0.311c-0.008-0.102-0.144-0.201-0.144-0.303
				c0-0.098,0.121-0.205,0.121-0.303c0-0.106,0.076-0.208,0.076-0.311c-0.003-0.103-0.341-0.197-0.348-0.296
				c0-0.113,0.189-0.235,0.174-0.352c-0.012-0.118,0.038-0.262,0.007-0.368c-0.038-0.113-0.224-0.167-0.292-0.254
				c-0.064-0.087-0.178-0.155-0.216-0.238c-0.045-0.099,0.103-0.247,0.091-0.337c-0.015-0.102,0.076-0.14,0.106-0.231
				c0.03-0.099-0.023-0.182,0.038-0.265c0.057-0.076,0.156-0.091,0.235-0.155c0.068-0.064,0.026-0.277,0.113-0.333
				c0.083-0.049,0.239,0.026,0.33-0.011c0.087-0.045,0.087-0.356,0.186-0.383c0.099-0.026,0.258,0.33,0.349,0.322
				c0.106,0,0.205-0.099,0.303-0.106c0.102-0.003,0.193-0.265,0.295-0.272c0.102-0.004,0.212,0.288,0.318,0.288
				c0.098-0.007,0.197-0.174,0.299-0.174c0.102-0.007,0.201-0.091,0.303-0.091c0.103-0.007,0.208,0.189,0.314,0.182
				c0.099,0,0.197-0.174,0.299-0.174c0.103-0.008,0.205,0.091,0.307,0.083c0.106,0,0.197-0.182,0.303-0.189
				c0.099,0,0.212,0.311,0.314,0.307c0.103-0.004,0.201-0.091,0.303-0.095c0.102-0.007,0.201-0.106,0.307-0.106
				c0.099-0.008,0.205,0.045,0.307,0.042c0.102-0.004,0.205-0.019,0.303-0.022c0.103-0.004,0.201-0.189,0.299-0.193
				c0.106-0.008,0.216,0.333,0.318,0.326c0.103-0.004,0.205,0.03,0.307,0.023c0.102,0,0.208-0.015,0.307-0.023
				c0.099-0.004,0.197-0.224,0.299-0.224c0.102-0.003,0.205,0.072,0.307,0.064c0.106,0,0.212,0.167,0.311,0.167
				c0.099-0.008,0.197-0.049,0.303-0.049c0.103,0,0.197-0.216,0.299-0.216c0.103-0.008,0.208-0.038,0.307-0.042
				c0.098-0.004,0.197,0.174,0.303,0.174c0.099,0,0.197-0.189,0.299-0.189c0.103,0,0.201-0.049,0.299-0.049s0.205,0.14,0.303,0.144
				c0.098,0,0.201-0.129,0.299-0.129c0.098,0,0.197,0.167,0.299,0.167c0.103,0,0.205,0.049,0.303,0.049s0.197-0.208,0.295-0.208
				c0.099,0,0.205,0.235,0.303,0.231s0.201-0.007,0.299-0.011c0.103-0.004,0.201,0,0.299-0.008c0.099-0.007,0.197-0.128,0.296-0.136
				c0.103-0.007,0.208,0.049,0.311,0.042c0.103-0.007,0.186-0.242,0.288-0.25c0.106-0.007,0.204,0.008,0.311-0.003
				c0.099-0.008,0.231,0.311,0.333,0.303c0.106-0.007,0.205-0.038,0.304-0.045c0.105-0.007,0.196-0.129,0.295-0.136
				c0.106-0.011,0.216,0.099,0.318,0.091c0.106-0.011,0.182-0.265,0.288-0.273c0.099-0.007,0.22,0.156,0.318,0.144
				c0.099-0.011,0.197-0.083,0.299-0.091c0.103-0.007,0.189-0.167,0.292-0.174c0.106-0.007,0.22,0.167,0.326,0.159
				c0.102-0.008,0.182-0.246,0.284-0.254c0.102-0.007,0.216,0.125,0.321,0.11c0.099-0.011,0.197-0.076,0.296-0.083
				c0.105-0.012,0.22,0.098,0.322,0.091c0.102-0.015,0.186-0.216,0.287-0.224c0.103-0.011,0.217,0.117,0.322,0.106
				c0.103-0.011,0.22,0.14,0.322,0.133c0.103-0.015,0.182-0.243,0.284-0.258c0.105-0.007,0.212,0.023,0.311,0.015
				c0.106-0.007,0.204-0.03,0.307-0.038c0.103-0.015,0.216,0.057,0.314,0.045c0.106-0.012,0.197-0.072,0.303-0.083
				c0.103-0.011,0.193-0.117,0.296-0.129c0.103-0.007,0.193-0.121,0.292-0.136c0.102-0.011,0.216,0.053,0.314,0.038
				c0.117-0.015,0.234,0.076,0.325,0.083c0.129,0.008,0.182,0.125,0.262,0.163c0.099,0.053,0.299,0.004,0.345,0.102
				c0.038,0.083-0.121,0.239-0.106,0.353c0.008,0.095-0.007,0.193-0.007,0.307c0,0.106,0.311,0.208,0.311,0.311
				c0,0.106-0.235,0.208-0.235,0.318c0,0.106-0.151,0.205-0.151,0.314c0,0.106,0.314,0.208,0.314,0.314s0.049,0.212,0.049,0.318
				s-0.303,0.208-0.303,0.314c0,0.11-0.061,0.208-0.061,0.314c0,0.11,0,0.212,0,0.318c0,0.106,0.224,0.212,0.224,0.318
				s0.159,0.208,0.159,0.311c0,0.106,0,0.208,0,0.311c0,0.106-0.175,0.212-0.175,0.311c0,0.11,0.05,0.212,0.05,0.314
				c0,0.106,0,0.216,0,0.314c0,0.106-0.05,0.212-0.05,0.314c0,0.106-0.132,0.208-0.132,0.314c0,0.106,0.098,0.205,0.098,0.311
				C37.694,7.995,37.725,8.097,37.725,8.195z M17.287,4.157c0.004,0.098,0.103,0.189,0.106,0.288
				c0.004,0.099,0.068,0.193,0.072,0.292c0.004,0.098-0.099,0.205-0.095,0.303c0.004,0.099,0.106,0.189,0.11,0.288
				s-0.076,0.201-0.076,0.299c0.007,0.099-0.042,0.197-0.034,0.295c0.004,0.099,0.095,0.193,0.099,0.292
				c0.003,0.099-0.099,0.205-0.095,0.303c0.003,0.099,0.128,0.189,0.128,0.295c0.008,0.099-0.182,0.201-0.174,0.303
				c0,0.102,0.068,0.205,0.068,0.311c0,0.099-0.114,0.205-0.11,0.307c0,0.102,0.004,0.205,0.008,0.307
				c0,0.106,0.102,0.205,0.11,0.311c0,0.099,0.083,0.205,0.083,0.307c0,0.102,0.114,0.205,0.114,0.307
				c0,0.106,0.008,0.205,0.008,0.311c0,0.103-0.28,0.208-0.28,0.311c0,0.103,0.197,0.201,0.205,0.303
				c0,0.106-0.008,0.205-0.008,0.311c0,0.103,0.102,0.205,0.106,0.307c0.004,0.102-0.186,0.208-0.182,0.314
				c0,0.098-0.136,0.205-0.136,0.307c0,0.103,0.242,0.201,0.246,0.303c0,0.102-0.163,0.208-0.163,0.314
				c0,0.098,0.288,0.197,0.288,0.303c0,0.103-0.049,0.205-0.049,0.307c0,0.102,0.008,0.208,0.008,0.307
				c0,0.106-0.057,0.208-0.057,0.311c0,0.103,0.008,0.205,0.015,0.307c0,0.102-0.147,0.208-0.144,0.307
				c0,0.106-0.007,0.208-0.007,0.311c0,0.103,0.061,0.205,0.068,0.311c0,0.098,0.034,0.205,0.034,0.303
				c0,0.106,0.14,0.208,0.14,0.311c0,0.102-0.098,0.205-0.098,0.311c0,0.098-0.053,0.205-0.053,0.307
				c0,0.103,0.182,0.205,0.182,0.307c0,0.102-0.311,0.212-0.311,0.311c0,0.106,0.224,0.205,0.224,0.307
				c0,0.103-0.269,0.208-0.265,0.311c0,0.103,0.364,0.201,0.364,0.307c0,0.099-0.027,0.205-0.027,0.307
				c0.008,0.103-0.242,0.208-0.242,0.314c0,0.099,0.159,0.205,0.159,0.303c0,0.106,0.053,0.208,0.053,0.311
				c0,0.103-0.311,0.212-0.311,0.311c0,0.106,0.197,0.205,0.197,0.307c0,0.102,0.095,0.205,0.095,0.307
				c0,0.103-0.023,0.205-0.023,0.311c0,0.099,0.011,0.205,0.011,0.307c0,0.098,0.053,0.201,0.053,0.299
				c0,0.098-0.167,0.205-0.167,0.303c0,0.099,0.227,0.197,0.235,0.303c0,0.099-0.258,0.205-0.258,0.303
				c0,0.098,0.182,0.197,0.182,0.303c0,0.099-0.295,0.205-0.288,0.303c0,0.099,0.197,0.201,0.197,0.303
				c0,0.098,0.167,0.197,0.167,0.299c0,0.098-0.159,0.208-0.159,0.307s-0.083,0.197-0.083,0.303c0,0.098,0.288,0.197,0.288,0.295
				s-0.353,0.205-0.353,0.311c0,0.099,0.254,0.197,0.258,0.295c0,0.099,0.007,0.201,0.007,0.299s-0.182,0.205-0.178,0.303
				c0,0.102-0.095,0.201-0.095,0.307c0,0.099,0.193,0.197,0.193,0.299c0,0.099-0.167,0.205-0.167,0.303s0.235,0.197,0.239,0.299
				c0,0.098-0.072,0.197-0.068,0.303c0,0.099,0.148,0.197,0.155,0.299c0,0.099,0.034,0.201,0.034,0.299
				c0,0.099-0.015,0.205-0.015,0.303s-0.17,0.205-0.17,0.303c0,0.098,0.004,0.201,0.004,0.299c0,0.098,0.011,0.201,0.011,0.299
				c0,0.099,0.174,0.197,0.178,0.304c0,0.098-0.186,0.204-0.186,0.303s0.061,0.201,0.064,0.299c0,0.099,0.011,0.201,0.015,0.3
				c0,0.099-0.178,0.204-0.178,0.307c0,0.099,0.272,0.197,0.272,0.296c0,0.102-0.174,0.204-0.174,0.307
				c0,0.105,0.235,0.204,0.243,0.303c0,0.099-0.212,0.205-0.212,0.307c0,0.103,0.064,0.201,0.064,0.308
				c0,0.098,0.057,0.196,0.057,0.303c0,0.099,0.015,0.201,0.019,0.303c0.004,0.103-0.223,0.205-0.223,0.307
				c0,0.103,0.125,0.201,0.125,0.308c0,0.099,0.042,0.2,0.042,0.303s-0.197,0.205-0.197,0.307c0,0.103,0.371,0.201,0.378,0.3
				c0,0.105-0.299,0.212-0.299,0.311c0,0.103,0.098,0.2,0.102,0.303c0,0.106,0.023,0.205,0.023,0.303c0,0.106,0,0.209,0,0.308
				c0,0.102,0.159,0.2,0.159,0.303s-0.034,0.208-0.03,0.307c0.004,0.099-0.182,0.205-0.178,0.307c0,0.103-0.027,0.205-0.027,0.304
				s0.091,0.2,0.091,0.307c0.007,0.099-0.106,0.205-0.106,0.307c0,0.103,0.133,0.201,0.133,0.304c0,0.102,0.095,0.2,0.095,0.307
				c0,0.099-0.095,0.204-0.095,0.307s-0.034,0.204-0.034,0.303c0.008,0.099,0.189,0.201,0.189,0.308
				c0,0.098-0.224,0.204-0.224,0.307s0.034,0.2,0.034,0.303s0.049,0.201,0.049,0.307c0,0.099-0.163,0.205-0.163,0.308
				c0,0.102,0.318,0.196,0.318,0.299s-0.235,0.204-0.227,0.311c0,0.099,0.174,0.197,0.174,0.303c0,0.103-0.042,0.205-0.038,0.304
				c0,0.103,0.011,0.204,0.011,0.303c0,0.106-0.125,0.205-0.125,0.311c0,0.103-0.045,0.205-0.045,0.307c0,0.103,0.25,0.201,0.25,0.3
				s-0.276,0.212-0.276,0.311s0.269,0.201,0.269,0.299c0,0.099-0.163,0.205-0.163,0.308c0,0.105,0.216,0.204,0.216,0.303
				c0,0.106,0.049,0.204,0.049,0.307s-0.231,0.205-0.224,0.307c0,0.106,0.152,0.205,0.152,0.304c0,0.105-0.235,0.208-0.235,0.311
				s0.117,0.2,0.121,0.303c0,0.106-0.136,0.205-0.136,0.311c0,0.103,0.352,0.197,0.352,0.3c0,0.102-0.292,0.208-0.292,0.307
				s0.212,0.204,0.212,0.303c0.008,0.106-0.193,0.209-0.193,0.311c0,0.103,0.201,0.201,0.208,0.304c0,0.105-0.144,0.204-0.144,0.311
				c0,0.103-0.113,0.204-0.106,0.307c0,0.103,0.026,0.201,0.03,0.307c0.004,0.099,0.318,0.197,0.326,0.296
				c0,0.105-0.314,0.212-0.314,0.311s0.292,0.197,0.292,0.295c0,0.099-0.125,0.205-0.125,0.304s-0.14,0.197-0.14,0.295
				c0,0.103-0.008,0.201-0.008,0.304c0,0.099,0.288,0.196,0.288,0.299s-0.015,0.201-0.015,0.3s-0.258,0.196-0.265,0.303
				c0,0.099-0.053,0.197-0.053,0.299c0,0.099,0.197,0.201,0.197,0.3s-0.22,0.197-0.22,0.295c0,0.099,0.11,0.205,0.11,0.304
				s0.208,0.2,0.208,0.299s-0.303,0.197-0.303,0.3c0,0.121,0.22,0.224,0.235,0.321c0.007,0.118-0.189,0.292-0.152,0.387
				c0.038,0.106,0.216,0.182,0.292,0.262c0.072,0.075,0.189,0.125,0.299,0.17c0.091,0.034,0.205,0.118,0.318,0.129
				c0.099,0.008,0.224,0.02,0.349,0.012c0.099-0.008,0.197-0.034,0.295-0.038c0.099-0.004,0.201,0.099,0.299,0.099
				c0.099-0.004,0.193-0.276,0.292-0.276c0.098,0,0.205,0.125,0.303,0.125c0.099,0,0.197-0.026,0.295-0.026
				c0.099,0,0.201,0.087,0.299,0.087c0.099,0,0.205-0.242,0.303-0.235c0.099,0,0.201,0,0.299,0s0.197,0.197,0.295,0.205
				c0.099,0,0.201,0.103,0.299,0.105c0.099,0,0.201,0.023,0.299,0.027c0.099,0,0.205-0.308,0.303-0.308
				c0.098,0,0.205,0.175,0.307,0.175s0.205-0.151,0.307-0.151c0.103,0,0.205,0.007,0.311,0.007c0.098,0,0.205,0.243,0.307,0.243
				c0.103,0,0.205-0.054,0.307-0.054c0.106,0,0.205,0.08,0.311,0.08c0.098,0,0.205-0.008,0.307-0.008
				c0.103,0,0.205-0.068,0.307-0.068c0.106,0,0.205,0.064,0.311,0.064c0.102,0,0.205-0.196,0.307-0.196
				c0.103,0,0.205,0.049,0.307,0.049c0.106,0,0.205-0.117,0.311-0.121c0.102,0,0.205-0.08,0.307-0.08
				c0.103,0,0.208,0.084,0.307,0.084c0.106,0,0.205,0.091,0.311,0.091c0.102,0,0.201-0.155,0.303-0.155
				c0.102,0,0.204-0.023,0.311-0.023c0.098,0,0.205,0,0.307-0.003c0.102,0,0.204,0.128,0.307,0.128c0.105,0,0.204-0.136,0.303-0.14
				c0.106-0.004,0.205,0.022,0.311,0.019c0.106-0.004,0.209,0.038,0.311,0.03c0.106-0.007,0.22,0.133,0.326,0.122
				c0.106-0.016,0.216,0.026,0.318,0.015c0.105-0.015,0.196-0.121,0.303-0.137c0.106-0.011,0.235,0.163,0.337,0.152
				c0.103-0.012,0.193-0.183,0.292-0.193c0.106-0.012,0.212,0.011,0.318,0.004c0.106-0.012,0.201-0.129,0.303-0.137
				c0.106-0.008,0.212-0.026,0.318-0.03s0.212,0.113,0.314,0.121c0.103,0,0.208-0.113,0.314-0.106c0.106,0,0.208,0.106,0.314,0.106
				c0.103,0.008,0.205,0.113,0.307,0.117c0.106,0.004,0.22-0.2,0.326-0.2c0.103,0.007,0.216-0.106,0.318-0.099
				c0.105,0.008,0.204,0.049,0.311,0.057c0.105,0.008,0.208,0.091,0.311,0.099c0.103,0.012,0.212-0.026,0.318-0.02
				c0.099,0.008,0.212-0.075,0.318-0.067c0.102,0.007,0.212,0.022,0.311,0.03c0.105,0.007,0.212,0.015,0.314,0.022
				c0.102,0.008,0.186,0.333,0.288,0.341c0.102,0.008,0.216-0.106,0.321-0.099c0.099,0.008,0.205,0.061,0.307,0.068
				c0.103,0.008,0.205,0.08,0.308,0.083c0.102,0.008,0.22-0.034,0.303-0.045c0.106-0.016,0.091-0.272,0.163-0.318
				c0.079-0.053,0.109-0.046,0.159-0.137c0.041-0.071,0.261-0.079,0.276-0.182c0.015-0.087,0.095-0.197,0.095-0.295
				c0-0.099-0.072-0.197-0.072-0.304c0-0.099,0.095-0.2,0.095-0.299s-0.307-0.197-0.307-0.3c0-0.099,0.216-0.196,0.216-0.303
				c0-0.099-0.189-0.201-0.186-0.299c0-0.099,0.046-0.201,0.046-0.3s0.053-0.197,0.053-0.303c0-0.099,0.189-0.197,0.189-0.296
				c0-0.103-0.084-0.204-0.084-0.303s-0.067-0.201-0.067-0.3c0-0.102,0.129-0.2,0.129-0.299s-0.197-0.197-0.197-0.303
				c0-0.099-0.061-0.197-0.061-0.3c0-0.099,0.064-0.2,0.064-0.299s0.163-0.205,0.163-0.304s-0.312-0.189-0.312-0.295
				c0-0.099,0.072-0.201,0.068-0.3s0.016-0.196,0.016-0.299c-0.008-0.099,0.022-0.205,0.015-0.304c0-0.098,0.145-0.204,0.133-0.303
				c-0.012-0.095-0.109-0.182-0.125-0.28c-0.015-0.095-0.174-0.159-0.197-0.258c-0.022-0.095,0.205-0.242,0.183-0.341
				c-0.023-0.091-0.251-0.14-0.273-0.234c-0.019-0.095-0.045-0.193-0.061-0.288c-0.015-0.095,0.061-0.212,0.053-0.304
				c-0.011-0.098,0.106-0.196,0.106-0.295c0-0.103-0.057-0.205-0.057-0.307c0-0.103,0.133-0.209,0.133-0.308
				c0-0.105,0.007-0.204,0.007-0.311c0-0.102-0.182-0.208-0.182-0.311c0-0.105-0.075-0.212-0.075-0.311
				c0-0.105,0.189-0.208,0.189-0.311s-0.068-0.208-0.068-0.311c0-0.106,0.095-0.204,0.099-0.311
				c0.004-0.103,0.015-0.205,0.015-0.307c0.004-0.103-0.325-0.216-0.325-0.314c0.007-0.106,0.015-0.209,0.015-0.314
				c0.004-0.103,0.242-0.201,0.242-0.304c0-0.102-0.238-0.216-0.238-0.314c0.004-0.105,0.262-0.204,0.269-0.307
				c0.004-0.103-0.113-0.208-0.113-0.314c0-0.099-0.049-0.204-0.046-0.311c0.004-0.103,0.228-0.2,0.228-0.303
				s-0.224-0.212-0.224-0.318c0-0.099,0.08-0.205,0.084-0.307c0-0.103-0.012-0.205-0.012-0.314c0-0.099,0.012-0.205,0.016-0.311
				c0-0.103,0.144-0.205,0.144-0.308c0-0.102,0.049-0.208,0.049-0.314c0-0.098-0.284-0.208-0.284-0.311
				c0-0.102,0.061-0.2,0.061-0.299s-0.057-0.201-0.063-0.3c-0.004-0.098,0.026-0.196,0.019-0.295
				c-0.008-0.103-0.129-0.189-0.137-0.292c-0.007-0.099-0.007-0.2-0.015-0.299s0.174-0.22,0.159-0.318
				c-0.012-0.106,0.022-0.208,0.015-0.307s0-0.201-0.008-0.3c-0.007-0.099-0.182-0.186-0.192-0.288
				c-0.008-0.098,0.23-0.212,0.223-0.317c0-0.099-0.041-0.197-0.041-0.296c0-0.103-0.11-0.201-0.11-0.303
				c0-0.106-0.212-0.205-0.212-0.304c0-0.105,0.05-0.208,0.046-0.311s0.113-0.204,0.113-0.311c0-0.099,0.159-0.204,0.159-0.303
				c0-0.106,0.03-0.209,0.03-0.311c0-0.103-0.28-0.205-0.28-0.311c0-0.099,0.234-0.205,0.234-0.308c0-0.102-0.007-0.204-0.007-0.307
				s-0.038-0.204-0.038-0.311c0-0.099-0.03-0.204-0.03-0.307s0.144-0.205,0.144-0.307c0-0.106-0.091-0.205-0.091-0.311
				c0-0.099-0.163-0.205-0.163-0.308c0-0.102-0.064-0.204-0.064-0.307c0-0.106,0.205-0.204,0.205-0.311
				c0-0.099-0.246-0.205-0.242-0.307c0-0.103,0.269-0.205,0.269-0.307c0-0.106,0.022-0.205,0.022-0.311
				c0-0.103-0.034-0.205-0.034-0.307c0-0.102-0.049-0.208-0.049-0.307c0-0.106,0.026-0.235,0.026-0.337
				c-0.075-0.076-0.288-0.064-0.337-0.141c-0.061-0.091,0.105-0.28,0.072-0.371c-0.034-0.091-0.016-0.167-0.023-0.257
				c-0.015-0.099-0.144-0.174-0.136-0.273c0.004-0.099-0.095-0.205-0.076-0.307c0.016-0.095-0.019-0.208,0.004-0.307
				c0.026-0.095,0.17-0.163,0.193-0.257c0.022-0.095-0.076-0.216-0.054-0.311c0.027-0.098,0.02-0.189,0.03-0.28
				c0.012-0.098,0.012-0.17,0.008-0.272c-0.004-0.099,0.151-0.205,0.151-0.311c0-0.102-0.159-0.204-0.159-0.311
				c0-0.102,0-0.212,0-0.311c0-0.106,0.122-0.205,0.122-0.311c0.007-0.103,0.246-0.201,0.246-0.303
				c0.004-0.106-0.349-0.22-0.345-0.318c0.004-0.106,0.341-0.197,0.345-0.299c0.004-0.103-0.349-0.216-0.345-0.322
				s0.394-0.197,0.401-0.295c0-0.106-0.106-0.212-0.099-0.314c0-0.102-0.228-0.216-0.228-0.314c0.004-0.106-0.007-0.205-0.004-0.311
				c0.004-0.103,0.322-0.205,0.322-0.307c0-0.102-0.105-0.208-0.105-0.314c0-0.099,0.057-0.208,0.053-0.311
				c-0.004-0.102-0.235-0.197-0.242-0.299c-0.004-0.102,0.295-0.223,0.287-0.33c-0.007-0.102-0.348-0.182-0.355-0.284
				c-0.008-0.103,0.295-0.239,0.28-0.337c-0.008-0.106-0.387-0.159-0.405-0.265c-0.016-0.099,0.189-0.235,0.174-0.333
				c-0.015-0.102,0.004-0.212-0.015-0.311c-0.02-0.106-0.02-0.212-0.042-0.311c-0.026-0.099-0.258-0.152-0.28-0.25
				c-0.022-0.068,0.106-0.182,0.121-0.258c0.016-0.076-0.121-0.144-0.133-0.22c-0.007-0.114,0.314-0.25,0.3-0.367
				c-0.008-0.11-0.159-0.208-0.175-0.322c-0.007-0.114-0.132-0.22-0.14-0.33c-0.008-0.117-0.042-0.246-0.034-0.364
				c0-0.117,0.265-0.216,0.284-0.337c0.011-0.091-0.133-0.205-0.117-0.295c0.022-0.083,0.227-0.133,0.25-0.22
				c0.022-0.091-0.076-0.212-0.061-0.303c0.015-0.091-0.016-0.189-0.016-0.28c0-0.099-0.167-0.208-0.167-0.314
				c0-0.102,0.137-0.208,0.137-0.314c0-0.099-0.144-0.205-0.144-0.311c0-0.103,0.105-0.208,0.105-0.311
				c0-0.103-0.03-0.212-0.03-0.311c0-0.106-0.026-0.212-0.026-0.314c0-0.103,0.238-0.212,0.238-0.314
				c0-0.106-0.159-0.212-0.162-0.314c0-0.103-0.08-0.208-0.08-0.311c0-0.102,0.151-0.208,0.151-0.314
				c0-0.098,0.133-0.204,0.133-0.311c0-0.102,0.019-0.205,0.026-0.311c0-0.106-0.265-0.22-0.265-0.326
				c0.007-0.103-0.03-0.197-0.03-0.295c0-0.103,0.196-0.212,0.186-0.311c-0.008-0.099-0.129-0.189-0.141-0.288
				c-0.008-0.103,0.137-0.224,0.125-0.322c-0.011-0.098-0.163-0.182-0.178-0.28c-0.016-0.102,0.099-0.216,0.083-0.314
				c-0.015-0.102,0.054-0.212,0.038-0.311c-0.008-0.099-0.363-0.163-0.371-0.261c-0.016-0.099,0.17-0.224,0.163-0.322
				c-0.008-0.098,0.064-0.197,0.061-0.295c0-0.099-0.151-0.205-0.148-0.303c0.008-0.099-0.041-0.208-0.03-0.311
				c0.012-0.098,0.213-0.17,0.235-0.269c0.015-0.091,0.121-0.182,0.133-0.276c0.011-0.095-0.068-0.212-0.068-0.303
				c0.004-0.098,0.064-0.208,0.057-0.303s-0.22-0.167-0.242-0.258c-0.016-0.076,0.068-0.227,0.011-0.311
				c-0.049-0.076-0.329,0.045-0.394-0.011c-0.087-0.08-0.064-0.458-0.125-0.451c-0.106,0.012-0.204,0.118-0.303,0.137
				C36.013,2.57,35.96,2.85,35.854,2.869c-0.099,0.019-0.265-0.25-0.363-0.224c-0.106,0.023-0.175,0.197-0.273,0.224
				c-0.105,0.022-0.189,0.121-0.287,0.147c-0.106,0.023-0.25-0.147-0.349-0.125c-0.106,0.027-0.175,0.208-0.273,0.231
				c-0.098,0.019-0.223-0.064-0.325-0.064c-0.103,0.003-0.228,0.178-0.326,0.163c-0.099-0.007-0.147-0.337-0.246-0.36
				c-0.103-0.026-0.216,0.034-0.314,0.019c-0.099-0.019-0.204,0.068-0.303,0.072c-0.103,0.004-0.201-0.049-0.304-0.045
				c-0.105,0.004-0.204,0.019-0.303,0.027c-0.099,0-0.197,0.189-0.296,0.189c-0.102,0.007-0.208-0.33-0.311-0.326
				c-0.102,0.004-0.204-0.026-0.303-0.022c-0.106,0.004-0.204,0.019-0.303,0.022c-0.099,0.004-0.197,0.228-0.296,0.228
				c-0.103,0-0.204-0.068-0.303-0.068C30.27,2.96,30.171,2.79,30.065,2.793c-0.099,0.003-0.201,0.049-0.3,0.049
				s-0.196,0.216-0.295,0.216c-0.103,0.003-0.201,0.034-0.3,0.042c-0.099,0-0.204-0.174-0.311-0.174
				c-0.103,0.008-0.197,0.197-0.295,0.197c-0.103,0-0.201,0.049-0.3,0.053c-0.103,0.004-0.208-0.132-0.307-0.129
				c-0.106,0.004-0.197,0.137-0.303,0.144c-0.102,0-0.205-0.167-0.307-0.159c-0.103,0-0.201-0.045-0.307-0.042
				c-0.099,0.004-0.197,0.216-0.295,0.216s-0.208-0.235-0.307-0.231c-0.099,0.004-0.201,0.007-0.307,0.007
				c-0.099,0-0.197-0.003-0.303,0c-0.102,0.004-0.197,0.125-0.299,0.125c-0.103,0-0.205-0.061-0.307-0.057
				c-0.099,0.004-0.189,0.231-0.295,0.231c-0.099,0.008-0.197-0.015-0.303-0.015c-0.102,0.004-0.212-0.326-0.311-0.318
				c-0.099,0.003-0.205,0.026-0.303,0.03C23.913,2.982,23.814,3.1,23.712,3.1c-0.102,0.008-0.204-0.114-0.303-0.11
				c-0.103,0.004-0.193,0.25-0.299,0.254c-0.099,0.004-0.205-0.167-0.303-0.163c-0.106,0.004-0.205,0.072-0.303,0.072
				c-0.103,0.003-0.197,0.151-0.296,0.159c-0.106,0-0.212-0.182-0.311-0.178s-0.189,0.231-0.295,0.239
				c-0.102,0-0.205-0.137-0.307-0.137c-0.103,0.004-0.201,0.061-0.299,0.068c-0.099,0-0.205-0.114-0.303-0.106
				c-0.099,0.007-0.182,0.205-0.28,0.216c-0.099,0.007-0.208-0.118-0.307-0.11c-0.098,0.015-0.223-0.136-0.322-0.121
				s-0.159,0.25-0.258,0.265c-0.098,0.015-0.205-0.008-0.303,0.015c-0.099,0.015-0.193,0.045-0.288,0.064
				c-0.095,0.026-0.212-0.027-0.307,0c-0.091,0.026-0.17,0.11-0.265,0.147c-0.091,0.034-0.148,0.159-0.239,0.197
				c-0.083,0.034-0.136,0.167-0.228,0.208c-0.087,0.042-0.212,0.008-0.303,0.042C17.511,4.176,17.382,4.123,17.287,4.157z"/>
		</g>
		<g>
			<path d="M31.444,21.432c0.004,0.114-0.27,0.231-0.27,0.322c0,0.122,0.095,0.22,0.091,0.307c-0.007,0.132,0.103,0.269,0.064,0.345
				c-0.045,0.091-0.204,0.061-0.325,0.091c-0.076,0.026-0.167,0.11-0.292,0.121c-0.091,0.008-0.201-0.128-0.322-0.121
				c-0.091,0.008-0.196,0.057-0.311,0.064c-0.103,0.011-0.204,0.064-0.311,0.072c-0.103,0.008-0.22-0.113-0.326-0.102
				c-0.105,0.011-0.188,0.224-0.295,0.239c-0.103,0.007-0.201,0.064-0.307,0.076c-0.103,0.015-0.243-0.235-0.349-0.22
				c-0.103,0.015-0.186,0.174-0.292,0.189s-0.196,0.102-0.303,0.121c-0.099,0.015-0.231-0.121-0.333-0.102
				c-0.103,0.019-0.197,0.087-0.303,0.11c-0.099,0.015-0.163,0.253-0.265,0.272c-0.106,0.023-0.22-0.03-0.322-0.011
				c-0.103,0.019-0.231-0.095-0.337-0.072c-0.099,0.015-0.189,0.128-0.288,0.147c-0.106,0.019-0.208,0.049-0.311,0.072
				c-0.102,0.019-0.22-0.076-0.326-0.08c-0.106-0.004-0.208-0.012-0.311-0.034c-0.103-0.023-0.189-0.083-0.284-0.129
				c-0.095-0.042-0.201-0.061-0.284-0.125c-0.087-0.064-0.053-0.231-0.121-0.307c-0.068-0.083-0.068-0.148-0.114-0.243
				c-0.042-0.095-0.398-0.099-0.409-0.205c-0.011-0.099,0.258-0.231,0.243-0.33c-0.008-0.099-0.061-0.189-0.072-0.288
				c-0.011-0.098-0.254-0.163-0.265-0.261c-0.019-0.099,0.224-0.227,0.208-0.326c-0.011-0.099-0.318-0.155-0.326-0.254
				c-0.015-0.102-0.008-0.201-0.015-0.299c-0.015-0.099,0.288-0.227,0.28-0.326c-0.015-0.099-0.197-0.178-0.205-0.273
				c-0.008-0.098-0.004-0.197-0.011-0.292c-0.004-0.099-0.163-0.189-0.163-0.292c0-0.091,0.151-0.189,0.147-0.288
				c0-0.099-0.167-0.197-0.163-0.295c0.004-0.091,0.276-0.174,0.288-0.273c0.007-0.091,0.079-0.174,0.091-0.273
				c0.015-0.091,0.022-0.182,0.038-0.272s-0.242-0.239-0.22-0.333c0.023-0.095,0.318-0.106,0.345-0.197
				c0.027-0.091-0.057-0.212-0.019-0.303c0.038-0.091,0.061-0.197,0.144-0.28c0.068-0.076,0.159-0.14,0.25-0.208
				c0.087-0.064,0.106-0.269,0.205-0.322c0.099-0.049,0.303,0.151,0.409,0.121c0.11-0.038,0.182-0.174,0.28-0.186
				c0.099-0.011,0.186-0.17,0.284-0.182c0.099-0.011,0.205,0.004,0.307-0.003c0.098-0.008,0.205,0.019,0.303,0.011
				c0.099-0.008,0.208,0.091,0.307,0.083c0.099-0.008,0.205,0.072,0.307,0.072c0.099-0.007,0.197-0.148,0.295-0.155
				c0.099-0.004,0.205-0.004,0.303-0.008c0.099-0.003,0.197-0.132,0.295-0.132c0.099-0.008,0.201,0.03,0.303,0.022
				c0.106,0,0.205,0.053,0.304,0.049c0.099-0.003,0.208,0.095,0.307,0.091c0.103-0.003,0.197-0.147,0.296-0.155
				c0.102,0,0.2-0.053,0.299-0.057c0.106-0.004,0.216,0.212,0.314,0.205c0.103-0.004,0.186,0.049,0.276,0.061
				c0.106,0.008,0.258-0.307,0.349-0.276c0.103,0.026,0.228,0.11,0.307,0.159c0.084,0.053-0.011,0.314,0.05,0.394
				c0.057,0.076,0.341,0.034,0.379,0.129c0.03,0.083-0.258,0.269-0.239,0.372c0.02,0.091,0.391,0.144,0.398,0.25
				c0.007,0.102-0.342,0.227-0.33,0.333c0.008,0.099-0.012,0.208-0.004,0.311c0.008,0.102,0.046,0.205,0.054,0.311
				c0.007,0.098,0.057,0.197,0.067,0.303c0.008,0.103,0.311,0.174,0.318,0.281c0.008,0.102-0.333,0.242-0.325,0.341
				c0.011,0.106,0.071,0.205,0.083,0.307c0.012,0.103,0.178,0.189,0.186,0.292c0.012,0.102,0.099,0.197,0.106,0.299
				c0.011,0.102,0.075,0.201,0.087,0.307c0.011,0.099-0.038,0.212-0.03,0.314c0.011,0.102-0.212,0.231-0.197,0.33
				c0.008,0.106,0.272,0.182,0.28,0.288C31.421,21.223,31.437,21.33,31.444,21.432z M28.891,17.64
				c0.008-0.121,0.228-0.136,0.22-0.235c-0.008-0.125-0.129-0.243-0.163-0.333c-0.041-0.114-0.204-0.117-0.288-0.174
				c-0.083-0.061-0.132-0.205-0.257-0.224c-0.099-0.011-0.209,0.068-0.33,0.083c-0.106,0.011-0.227-0.11-0.33-0.099
				c-0.102,0.012-0.201,0.072-0.307,0.08c-0.106,0.012-0.205,0.068-0.311,0.083c-0.103,0.011-0.22-0.114-0.326-0.106
				c-0.106,0.007-0.189,0.227-0.296,0.235c-0.11,0.007-0.208,0.061-0.314,0.068c-0.109,0.008-0.257-0.242-0.36-0.22
				c-0.11,0.015-0.189,0.197-0.284,0.231c-0.106,0.042-0.167,0.147-0.254,0.205c-0.091,0.061-0.277,0.026-0.349,0.102
				c-0.068,0.08-0.091,0.22-0.133,0.322c-0.042,0.095,0.148,0.246,0.125,0.36c-0.015,0.098-0.091,0.174-0.091,0.292
				c0,0.099-0.14,0.201-0.136,0.299c0,0.099,0.095,0.197,0.095,0.303c0,0.098,0.015,0.197,0.015,0.299
				c0.004,0.098-0.099,0.201-0.099,0.303c0.004,0.099,0.012,0.201,0.015,0.299c0.004,0.099-0.019,0.205-0.015,0.303
				s0.042,0.197,0.049,0.299c0,0.098-0.144,0.205-0.14,0.303c0.004,0.103-0.026,0.201-0.026,0.299
				c0.007,0.099,0.356,0.189,0.356,0.288s-0.28,0.208-0.28,0.311c0.007,0.106,0.053,0.22,0.076,0.299
				c0.023,0.11,0.258,0.083,0.311,0.148c0.061,0.068,0.004,0.326,0.099,0.348c0.076,0.027,0.208-0.246,0.311-0.25
				c0.087,0,0.163,0.015,0.261,0c0.103-0.015,0.25,0.284,0.353,0.269c0.102-0.019,0.178-0.201,0.28-0.216
				c0.103-0.015,0.205-0.023,0.311-0.034c0.099-0.011,0.182-0.178,0.288-0.189c0.099-0.011,0.224,0.125,0.326,0.11
				c0.103-0.011,0.186-0.189,0.288-0.201c0.102-0.011,0.235,0.25,0.337,0.239c0.103-0.008,0.209,0.049,0.311,0.042
				c0.103-0.007,0.201-0.015,0.307-0.019c0.099-0.003,0.189-0.292,0.296-0.292c0.103-0.004,0.208,0.28,0.311,0.28
				c0.114,0,0.212-0.125,0.311-0.125c0.106,0,0.212-0.049,0.304-0.053c0.117-0.007,0.22-0.015,0.307-0.03
				c0.117-0.022,0.117-0.197,0.182-0.253c0.076-0.064,0.337-0.012,0.36-0.118c0.022-0.083-0.088-0.212-0.088-0.33
				c0-0.091-0.147-0.178-0.163-0.292c-0.007-0.091,0.008-0.197,0-0.303c-0.007-0.091,0.016-0.197,0.008-0.307
				c-0.015-0.103,0.03-0.231-0.045-0.322c-0.064-0.083-0.091-0.231-0.175-0.311c-0.083-0.076-0.261-0.053-0.333-0.129
				c-0.034-0.03-0.333,0.136-0.33,0.151c0.03,0.083,0.183,0.114,0.22,0.197c0.042,0.083,0.05,0.189,0.088,0.273
				c0.037,0.083,0.022,0.197,0.053,0.28c0.026,0.083-0.05,0.197-0.03,0.28c0.022,0.091,0.174,0.159,0.182,0.239
				c0.008,0.091,0.053,0.201,0.042,0.284c-0.004,0.042-0.28-0.019-0.413,0.015c-0.129,0.027-0.137,0.016-0.182-0.022
				c-0.076-0.068-0.364,0.129-0.439,0.076c-0.091-0.061-0.133-0.114-0.22-0.151c-0.099-0.038-0.121-0.311-0.216-0.322
				c-0.103-0.011-0.189,0.254-0.292,0.269c-0.099,0.015-0.273-0.28-0.371-0.246c-0.091,0.034-0.034,0.413-0.122,0.458
				c-0.091,0.045-0.348-0.212-0.432-0.159c-0.083,0.049-0.189,0.083-0.273,0.132c-0.083,0.049-0.151,0.133-0.239,0.182
				c-0.087,0.049-0.132,0.117-0.216,0.147c-0.099,0.038-0.151,0.345-0.242,0.345c-0.099,0-0.08-0.345-0.152-0.405
				c-0.068-0.053-0.113-0.03-0.151-0.136c-0.03-0.076-0.197-0.125-0.212-0.235c-0.008-0.106-0.091-0.205-0.099-0.303
				c-0.011-0.106-0.068-0.208-0.076-0.311c-0.008-0.103,0.049-0.208,0.045-0.311c-0.004-0.106,0.22-0.228,0.212-0.33
				c-0.011-0.103-0.272-0.182-0.28-0.284c-0.015-0.103,0.114-0.228,0.099-0.326c-0.023-0.106-0.099-0.189-0.133-0.288
				c-0.042-0.129-0.083-0.235-0.087-0.326c-0.008-0.136,0.061-0.247,0.121-0.318c0.061-0.083,0.174-0.083,0.295-0.121
				c0.091-0.03,0.174-0.212,0.288-0.228c0.102-0.015,0.197-0.061,0.295-0.072s0.228,0.178,0.326,0.163
				c0.099-0.016,0.159-0.182,0.254-0.205c0.103-0.031,0.265,0.132,0.353,0.087c0.087-0.042,0.08-0.239,0.151-0.303
				c0.076-0.064,0.034-0.178,0.091-0.269c0.045-0.079,0.099-0.121,0.133-0.227c0.026-0.083,0.16-0.22,0.178-0.326
				c0.083,0.068,0.242,0.151,0.311,0.212c0.075,0.064,0.099,0.182,0.174,0.243c0.072,0.061,0.072,0.208,0.147,0.272
				C28.731,17.708,28.808,17.575,28.891,17.64z"/>
		</g>
		<g>
			<path d="M34.202,8.032c0.008,0.103-0.235,0.174-0.224,0.277c0.008,0.102-0.034,0.208-0.026,0.314
				c0.008,0.098,0.117,0.189,0.129,0.295c0.011,0.102,0.091,0.193,0.102,0.295c0.012,0.103-0.003,0.205,0.008,0.311
				c0.012,0.099-0.178,0.22-0.163,0.322c0.008,0.102,0.114,0.193,0.121,0.295c0.008,0.102,0.243,0.186,0.251,0.284
				c0.007,0.102-0.322,0.227-0.314,0.326c0.007,0.102,0.019,0.205,0.026,0.303c0.004,0.102,0.227,0.193,0.234,0.292
				c0.004,0.103,0.133,0.201,0.133,0.307c0.004,0.106-0.22,0.216-0.224,0.329c-0.008,0.106,0.083,0.224,0.076,0.33
				c-0.008,0.114,0.091,0.239,0.075,0.349c-0.019,0.114-0.136,0.212-0.166,0.314c-0.023,0.11-0.254,0.133-0.304,0.231
				c-0.045,0.099-0.004,0.224-0.068,0.303c-0.067,0.076-0.196,0.034-0.287,0.091c-0.092,0.061-0.038,0.387-0.145,0.432
				c-0.099,0.038-0.258-0.083-0.363-0.057c-0.103,0.027-0.189,0.122-0.296,0.148c-0.099,0.03-0.238-0.061-0.341-0.034
				c-0.106,0.026-0.22,0.049-0.318,0.083c-0.091,0.03-0.189,0.007-0.288,0.03c-0.102,0.026-0.192,0.004-0.291,0.019
				s-0.171,0.159-0.273,0.163c-0.098,0.012-0.196,0.125-0.295,0.125s-0.201-0.007-0.307-0.007c-0.099-0.008-0.175-0.239-0.28-0.246
				c-0.099-0.012-0.235,0.33-0.334,0.314c-0.099-0.012-0.186-0.118-0.284-0.133c-0.099-0.019-0.208,0.057-0.307,0.038
				c-0.099-0.015-0.189-0.072-0.288-0.091c-0.099-0.015-0.189-0.087-0.292-0.098c-0.098-0.012-0.178-0.231-0.276-0.239
				c-0.099-0.008-0.2-0.049-0.303-0.053c-0.099-0.004-0.205,0.341-0.303,0.341s-0.189,0-0.288,0.008
				c-0.099,0.008-0.208-0.015-0.307-0.008c-0.099,0.012-0.224-0.318-0.322-0.311c-0.099,0.008-0.189,0.163-0.288,0.167
				c-0.099,0.003-0.197,0.098-0.303,0.102c-0.098,0.004-0.201-0.049-0.303-0.049c-0.099,0-0.205,0.174-0.303,0.167
				c-0.099,0-0.197-0.14-0.295-0.14s-0.201-0.231-0.299-0.231c-0.099-0.007-0.208,0.372-0.314,0.364
				c-0.099,0-0.189-0.326-0.288-0.33c-0.098-0.004-0.205,0.106-0.307,0.103c-0.099-0.004-0.208,0.17-0.307,0.167
				c-0.099-0.004-0.197-0.061-0.303-0.064c-0.099-0.004-0.189-0.299-0.288-0.303c-0.098-0.003-0.208,0.095-0.307,0.091
				c-0.099-0.004-0.201,0.042-0.303,0.038c-0.102-0.004-0.201-0.057-0.299-0.057c-0.099-0.008-0.205,0-0.303,0
				c-0.099,0-0.201-0.064-0.299-0.064c-0.099,0-0.201,0.099-0.307,0.099c-0.099,0-0.197,0.212-0.295,0.212
				c-0.106,0-0.216-0.034-0.307-0.038c-0.106-0.008-0.239,0.011-0.322-0.012c-0.099-0.03-0.03-0.394-0.099-0.447
				c-0.076-0.057-0.356,0.076-0.397-0.023c-0.034-0.076,0.061-0.22,0.042-0.326c-0.015-0.087-0.057-0.178-0.057-0.288
				c-0.004-0.102,0.147-0.212,0.147-0.311c0-0.106-0.272-0.208-0.272-0.311s0.189-0.208,0.189-0.311
				c0-0.106-0.189-0.197-0.197-0.303c0-0.099,0.239-0.22,0.231-0.322c-0.007-0.103-0.269-0.178-0.28-0.28
				c-0.011-0.103,0.027-0.208,0.004-0.307c-0.019-0.099,0.136-0.242,0.114-0.345c-0.026-0.099-0.25-0.14-0.284-0.242
				c-0.03-0.095,0.072-0.247,0.034-0.337c-0.042-0.091-0.023-0.182-0.045-0.28c-0.015-0.091-0.106-0.174-0.106-0.273
				c0-0.098,0.008-0.197,0.019-0.295c0.008-0.095,0.095-0.182,0.11-0.28c0.015-0.095-0.007-0.197,0.008-0.295
				c0.022-0.095-0.167-0.235-0.144-0.326c0.019-0.099,0.299-0.144,0.318-0.243c0.015-0.099-0.053-0.212-0.042-0.303
				c0.012-0.098,0.189-0.197,0.193-0.288c0.004-0.099-0.25-0.189-0.258-0.288c-0.007-0.095,0.087-0.201,0.076-0.295
				c-0.012-0.095-0.008-0.193-0.023-0.288s-0.064-0.182-0.08-0.276c-0.019-0.095-0.034-0.186-0.042-0.28
				c-0.008-0.095,0.098-0.189,0.091-0.284c0-0.114-0.243-0.254-0.216-0.341c0.034-0.103,0.208-0.152,0.269-0.228
				c0.068-0.076,0.128-0.182,0.227-0.227c0.083-0.038,0.205-0.034,0.307-0.061c0.094-0.019,0.189-0.159,0.295-0.167
				c0.102-0.007,0.216,0.11,0.314,0.106c0.098-0.007,0.205,0.031,0.307,0.023c0.103-0.008,0.205,0.011,0.307,0.004
				c0.103-0.008,0.212,0.117,0.311,0.11c0.098-0.004,0.208,0.007,0.307-0.004c0.099-0.007,0.193-0.118,0.295-0.125
				c0.103-0.008,0.189-0.186,0.292-0.189c0.106-0.007,0.205,0.015,0.311,0.008c0.099-0.008,0.216,0.193,0.318,0.186
				c0.102-0.008,0.182-0.292,0.284-0.299c0.103-0.008,0.208,0.091,0.314,0.083c0.099-0.008,0.201-0.023,0.303-0.034
				c0.103-0.008,0.208,0.061,0.311,0.053c0.099-0.011,0.197-0.102,0.295-0.11c0.099-0.007,0.216,0.197,0.318,0.189
				c0.103-0.007,0.182-0.288,0.284-0.295c0.102-0.007,0.216,0.106,0.314,0.099c0.099-0.008,0.197-0.038,0.303-0.045
				c0.102-0.008,0.212,0.121,0.311,0.11c0.099-0.008,0.205,0.042,0.311,0.034c0.099-0.008,0.197-0.083,0.299-0.091
				c0.102-0.007,0.205,0.019,0.307,0.008c0.106-0.008,0.189-0.189,0.296-0.197c0.098-0.007,0.211,0.14,0.314,0.133
				c0.103-0.008,0.182-0.307,0.284-0.314s0.22,0.25,0.318,0.243c0.106-0.008,0.205-0.019,0.303-0.023
				c0.106-0.008,0.201-0.129,0.3-0.136c0.103-0.008,0.208,0.113,0.314,0.106c0.099-0.008,0.189-0.22,0.288-0.224
				c0.098-0.007,0.208,0.057,0.307,0.053s0.2,0.007,0.299,0.004c0.099-0.004,0.197-0.068,0.304-0.068
				c0.098-0.004,0.196-0.011,0.295-0.011s0.205-0.042,0.307-0.034c0.099,0,0.197,0.167,0.3,0.167c0.099,0,0.204-0.144,0.303-0.14
				s0.197,0.186,0.296,0.189s0.2-0.004,0.299,0.004c0.099,0.007,0.216-0.152,0.314-0.144c0.099,0.007,0.205-0.011,0.304,0
				c0.075,0.007,0.121,0.239,0.212,0.303c0.075,0.049,0.182,0.068,0.25,0.144c0.068,0.076,0.075,0.182,0.121,0.262
				c0.053,0.095,0.076,0.163,0.083,0.246c0.012,0.103,0.151,0.197,0.159,0.303s0.076,0.212,0.084,0.318
				c0.007,0.106-0.262,0.216-0.262,0.322s0.099,0.208,0.099,0.314S34.21,6.62,34.21,6.726s-0.133,0.208-0.137,0.314
				c0,0.106,0.068,0.212,0.068,0.314c0,0.106-0.141,0.208-0.141,0.314c0,0.106,0.05,0.197,0.05,0.303
				C34.017,7.972,34.232,8.029,34.202,8.032z M33.02,5.543c-0.109-0.011-0.075-0.224-0.182-0.239
				c-0.109-0.011-0.208-0.076-0.314-0.091C32.414,5.207,32.3,5.29,32.187,5.278c-0.106-0.011-0.224,0.049-0.333,0.034
				c-0.106-0.008-0.205-0.049-0.314-0.061c-0.106-0.015-0.171-0.228-0.284-0.254c-0.106-0.023-0.235,0.049-0.341,0.026
				c-0.11-0.026-0.258,0.17-0.364,0.159c-0.109-0.015-0.212-0.36-0.322-0.352c-0.102,0.011-0.208,0.019-0.307,0.026
				c-0.105,0.007-0.189,0.235-0.295,0.242c-0.099,0.008-0.197,0.137-0.3,0.148c-0.103,0.008-0.224-0.216-0.321-0.208
				c-0.099,0.008-0.197,0.106-0.296,0.118c-0.106,0.007-0.201,0.121-0.303,0.129c-0.103,0.007-0.209-0.08-0.312-0.072
				c-0.105,0.008-0.219-0.197-0.321-0.189c-0.103,0.008-0.197,0.114-0.299,0.122c-0.103,0.011-0.212-0.099-0.318-0.091
				c-0.099,0.008-0.182,0.333-0.28,0.341c-0.106,0.007-0.22-0.148-0.322-0.144c-0.102,0.004-0.201,0.083-0.299,0.091
				c-0.106,0.008-0.212-0.106-0.318-0.099c-0.103,0.008-0.205,0.004-0.307,0.012c-0.102,0.007-0.208-0.034-0.314-0.027
				c-0.098,0.008-0.208-0.022-0.307-0.015c-0.099,0.008-0.193,0.152-0.295,0.159c-0.103,0.008-0.201,0.129-0.299,0.136
				c-0.106,0.012-0.205,0.015-0.311,0.023C24,5.54,23.883,5.32,23.776,5.328c-0.098,0.011-0.174,0.371-0.28,0.379
				c-0.098,0.007-0.212-0.08-0.314-0.072c-0.095,0.008-0.186,0.099-0.28,0.106c-0.095,0.007-0.193-0.03-0.288-0.023
				c-0.095,0.008-0.193-0.042-0.288-0.034c-0.095,0.008-0.208-0.189-0.307-0.182c-0.091,0.015-0.197-0.008-0.288,0
				c-0.099,0.019-0.133,0.371-0.228,0.39c-0.095,0.015-0.178,0.026-0.272,0.049c-0.076,0.022-0.087,0.015-0.167,0.106
				c-0.061,0.072-0.397-0.015-0.439,0.076c-0.045,0.106,0.061,0.288,0.064,0.372c0.004,0.098,0.103,0.197,0.106,0.303
				c0.003,0.103-0.049,0.205-0.042,0.307c0.004,0.102,0.174,0.197,0.186,0.299c0.004,0.106-0.132,0.212-0.125,0.311
				c0,0.106-0.22,0.22-0.216,0.318c0.004,0.103,0.39,0.186,0.39,0.288c0.008,0.106-0.311,0.22-0.307,0.326
				c0.004,0.103,0.125,0.197,0.125,0.299c0.007,0.103,0.189,0.193,0.197,0.295c0,0.103-0.042,0.208-0.038,0.307
				c0.003,0.106-0.28,0.224-0.277,0.326c0.004,0.103,0.118,0.197,0.118,0.303c0.007,0.098,0.061,0.197,0.068,0.303
				c0.004,0.103-0.038,0.205-0.03,0.307c0.004,0.102,0.015,0.208,0.019,0.307c0.004,0.106-0.049,0.205-0.042,0.311
				c0,0.103,0.106,0.197,0.117,0.299c0.004,0.103,0.22,0.193,0.231,0.299c0,0.099-0.027,0.205-0.023,0.303
				c0.004,0.106,0.045,0.205,0.053,0.307c0,0.133-0.345,0.307-0.318,0.398c0.038,0.129,0.345,0.064,0.432,0.121
				c0.083,0.053,0.122,0.197,0.25,0.212c0.099,0.011,0.216-0.023,0.341-0.03c0.098,0,0.205,0.151,0.303,0.151
				c0.099,0,0.197-0.273,0.296-0.273c0.098,0,0.197,0.197,0.299,0.197c0.103,0,0.201-0.189,0.299-0.189
				c0.099,0,0.197,0.246,0.296,0.246c0.098,0,0.205-0.246,0.303-0.246c0.099,0,0.197,0.057,0.295,0.061
				c0.099,0.004,0.193,0.186,0.292,0.189c0.102,0.004,0.208-0.197,0.307-0.193c0.099,0.004,0.189,0.155,0.295,0.159
				c0.099,0.004,0.197,0.038,0.296,0.042c0.098,0.003,0.201-0.076,0.303-0.076c0.099,0.008,0.197,0.008,0.295,0.015
				c0.099,0,0.197,0.076,0.296,0.076c0.098,0.007,0.201-0.038,0.299-0.034c0.099,0.004,0.201-0.201,0.307-0.201
				c0.099,0,0.189,0.269,0.288,0.272c0.099,0,0.205-0.08,0.303-0.08s0.197,0.174,0.295,0.174c0.103,0,0.212-0.246,0.311-0.246
				c0.106,0,0.205,0.114,0.31,0.114c0.103,0,0.205,0.022,0.308,0.022c0.102,0,0.208-0.034,0.307-0.034
				c0.105,0,0.204-0.007,0.311-0.007c0.103,0,0.204,0.117,0.307,0.117s0.208-0.265,0.307-0.265c0.106,0,0.209,0.121,0.311,0.121
				c0.103,0,0.205-0.053,0.311-0.053c0.099,0,0.205,0.038,0.304,0.038c0.105,0,0.208-0.128,0.311-0.128s0.204,0.121,0.311,0.121
				c0.099,0,0.205,0.049,0.303,0.045c0.106,0,0.209,0.023,0.311,0.023c0.103,0,0.205,0.132,0.312,0.132
				c0.105,0,0.204,0.019,0.311,0.019c0.102,0,0.208-0.106,0.311-0.106c0.105,0,0.151-0.144,0.258-0.144
				c0-0.106,0.007-0.151,0.007-0.258c0-0.098,0.213-0.205,0.213-0.307c0-0.103-0.281-0.205-0.281-0.307
				c0-0.106,0.106-0.205,0.106-0.311c0-0.098-0.008-0.205-0.008-0.307c0-0.103,0.072-0.205,0.072-0.307
				c0-0.106-0.087-0.205-0.087-0.311c0-0.102,0.212-0.205,0.212-0.307c0-0.103-0.272-0.205-0.272-0.307
				c0-0.106,0.121-0.205,0.121-0.311c0-0.102-0.022-0.205-0.022-0.307c0-0.103,0.132-0.208,0.132-0.307
				c0-0.106,0.058-0.205,0.058-0.311c0-0.102-0.076-0.205-0.076-0.307c0-0.103,0.038-0.208,0.038-0.307
				c0-0.106-0.182-0.208-0.182-0.311s0.155-0.205,0.155-0.307c0-0.103-0.292-0.208-0.292-0.307c0-0.106,0.262-0.208,0.262-0.311
				c0-0.103-0.004-0.205-0.004-0.311c0-0.099-0.114-0.205-0.114-0.303c0-0.106,0.125-0.208,0.125-0.311
				c0-0.103-0.208-0.205-0.208-0.303c0-0.106,0.068-0.205,0.068-0.311c0-0.102,0.015-0.205,0.015-0.303
				C33.134,5.619,33.02,5.646,33.02,5.543z"/>
		</g>
		<g>
			<path d="M28.031,41.381c0.083,0.072,0.337-0.016,0.412,0.042c0.091,0.067,0.118,0.166,0.189,0.216
				c0.106,0.064,0.145,0.132,0.228,0.14c0.099,0.016,0.284,0.167,0.371,0.091c0.064-0.049-0.008-0.265,0.054-0.363
				c0.049-0.076,0.23-0.091,0.28-0.189c0.045-0.076-0.064-0.242-0.016-0.341c0.038-0.084,0.175,0.034,0.216-0.064
				c0.057,0.072,0.141-0.11,0.205-0.042c0.068,0.068,0.041,0.228,0.102,0.292c0.072,0.072,0.239,0.064,0.288,0.125
				c0.072,0.095,0.114,0.25,0.099,0.326c-0.019,0.105-0.299,0.182-0.303,0.272c-0.004,0.105,0.234,0.204,0.254,0.295
				c0.019,0.103,0.083,0.159,0.132,0.243c0.046,0.083,0.023,0.22,0.099,0.288c0.068,0.067,0.091,0.242,0.183,0.295
				c0.083,0.046,0.272-0.113,0.371-0.072c0.057,0.027,0.068,0.159,0.155,0.345c0.041,0.084,0.133,0.205,0.2,0.334
				c-0.105-0.023-0.216-0.235-0.311-0.258c-0.105-0.016-0.25,0.208-0.349,0.189c-0.102-0.016-0.182-0.147-0.28-0.163
				c-0.102-0.019-0.196-0.068-0.295-0.083c-0.106-0.02-0.228,0.091-0.326,0.075c-0.099-0.019-0.265-0.265-0.363-0.284
				c-0.034,0.076,0.064,0.356,0.03,0.439c-0.03,0.076-0.273,0.076-0.311,0.155c-0.03,0.08,0.23,0.281,0.196,0.36
				c-0.041,0.095-0.355,0.053-0.401,0.137c-0.045,0.091-0.099,0.144-0.151,0.22c-0.061,0.083,0.113,0.363,0.042,0.424
				c-0.076,0.076-0.148,0.201-0.231,0.25c-0.083,0.046-0.231,0.064-0.326,0.091c-0.091,0.023-0.234-0.25-0.333-0.25
				c-0.095,0.008-0.159-0.038-0.257-0.053c-0.091-0.016-0.22,0.144-0.314,0.113c-0.087-0.03-0.216,0.016-0.314-0.03
				c-0.091-0.045-0.045-0.325-0.122-0.375c-0.091-0.057-0.186-0.041-0.25-0.099c-0.083-0.071-0.091-0.125-0.132-0.2
				c-0.049-0.084-0.049-0.099-0.042-0.197c0-0.083-0.091-0.182-0.045-0.272c0.038-0.084-0.038-0.239,0.023-0.326
				c0.049-0.072,0.345,0.038,0.409-0.045c0.068-0.076-0.122-0.356-0.057-0.439c0.061-0.084,0.095-0.171,0.152-0.262
				c0.049-0.091,0.208-0.117,0.254-0.216c0.038-0.091,0.205-0.334,0.235-0.439c-0.087,0.068-0.25,0.314-0.341,0.379
				c-0.083,0.068-0.174,0.121-0.257,0.189c-0.083,0.068-0.182,0.117-0.265,0.186c-0.087,0.064-0.212,0.079-0.296,0.14
				c-0.091,0.068-0.136,0.151-0.219,0.22c-0.103-0.079-0.159-0.147-0.258-0.227c0.057-0.092,0.015-0.209,0.072-0.304
				c0.057-0.091,0.314-0.061,0.368-0.159c0.053-0.091-0.129-0.333-0.076-0.432c0.057-0.091,0.242-0.106,0.295-0.197
				c0.057-0.091-0.042-0.182,0.015-0.272c-0.08-0.057-0.042-0.106-0.129-0.159c-0.076-0.053-0.182-0.064-0.265-0.121
				c-0.076-0.053-0.019-0.314-0.11-0.371c-0.072-0.054-0.155,0.041-0.246-0.02c0.106-0.03,0.147,0.061,0.242,0.027
				c0.106-0.03,0.122-0.308,0.212-0.338c0.098-0.034,0.254,0.114,0.345,0.08c0.102-0.03,0.231,0.053,0.326,0.022
				c0.099-0.03,0.148-0.204,0.246-0.228c0.099-0.03,0.152-0.265,0.25-0.28c0.114-0.022,0.269,0.023,0.387,0.03
				c0.114,0.004,0.25-0.041,0.364-0.03c0.113,0.016,0.155,0.258,0.272,0.266c-0.045,0.075-0.144,0.038-0.193,0.121
				c-0.041,0.076-0.004,0.204-0.057,0.28c-0.042,0.076-0.022,0.189-0.076,0.272C28.235,41.226,28.08,41.298,28.031,41.381z"/>
		</g>
		<g>
			<path d="M30.179,24.568c-0.083,0.049-0.265-0.064-0.341-0.023c-0.091,0.049-0.068,0.262-0.144,0.303
				c-0.088,0.049-0.189,0.049-0.258,0.095c-0.084,0.045-0.25,0.239-0.322,0.28c0.113-0.004,0.345-0.235,0.443-0.22
				c0.113,0.019,0.159,0.25,0.238,0.292c0.095,0.049,0.276-0.004,0.345,0.072s0.228,0.136,0.273,0.235
				c0.045,0.091,0.095,0.205,0.136,0.303c0.034,0.091,0.042,0.208,0.076,0.303c0.038,0.099-0.022,0.228,0.022,0.318
				c0.05,0.099,0.091,0.182,0.155,0.265c0.064,0.08,0.208,0.205,0.292,0.265c-0.11,0.045-0.349,0.008-0.439,0.061
				c-0.099,0.061-0.022,0.311-0.099,0.383c-0.083,0.083-0.167,0.095-0.212,0.189c-0.046,0.099-0.114,0.163-0.129,0.273
				c-0.016,0.103-0.239,0.216-0.228,0.329c0.008,0.106,0.212,0.197,0.238,0.307c0.02,0.103-0.102,0.247-0.071,0.356
				c0.022,0.083,0.193,0.147,0.189,0.254c-0.008,0.091-0.258,0.129-0.284,0.224c-0.022,0.091,0.216,0.265,0.182,0.353
				c-0.042,0.091-0.201,0.113-0.254,0.189c-0.061,0.083-0.034,0.25-0.103,0.299c-0.071,0.053-0.17,0.095-0.254,0.147
				c-0.083,0.046-0.272-0.162-0.363-0.129c-0.091,0.031-0.117,0.273-0.212,0.281c-0.095,0.007-0.212,0.041-0.307,0.007
				c-0.088-0.022-0.133-0.159-0.209-0.227c-0.068-0.054-0.015-0.197-0.075-0.284c-0.058-0.084-0.288-0.08-0.311-0.189
				c-0.027-0.099,0.015-0.216,0.015-0.33c0-0.105-0.038-0.224-0.022-0.329c0.015-0.11,0.265-0.152,0.295-0.254
				c0.034-0.106-0.159-0.288-0.113-0.383c0.053-0.103,0.204-0.133,0.266-0.216c0.071-0.091,0.151-0.125,0.234-0.175
				c0.091-0.049,0.125-0.196,0.235-0.28c0.075-0.053,0.378-0.105,0.462-0.224c-0.095-0.011-0.387,0.042-0.481,0.027
				c-0.095-0.02-0.155-0.266-0.246-0.273c-0.099-0.015-0.22,0.288-0.314,0.288c-0.103-0.008-0.193-0.303-0.299-0.307
				c-0.099-0.004-0.155-0.019-0.262-0.049c-0.091-0.023-0.36,0.151-0.462,0.091c0.064-0.068,0.122-0.303,0.189-0.379
				c0.064-0.068,0.163-0.106,0.231-0.174c0.064-0.072,0.378-0.061,0.443-0.132c-0.087-0.034-0.238-0.208-0.337-0.254
				c-0.076-0.034-0.239,0.106-0.341,0.061c-0.08-0.034-0.269-0.076-0.372-0.117c0.091-0.072,0.383-0.019,0.455-0.076
				c0.099-0.076,0.14-0.189,0.216-0.247c0.103-0.083,0.246-0.193,0.307-0.242c-0.015-0.091-0.037-0.265-0.061-0.372
				c-0.022-0.098-0.166-0.167-0.188-0.257c-0.031-0.106-0.198-0.178-0.213-0.265c-0.026-0.144,0.197-0.137,0.25-0.167
				c0.084-0.061-0.008-0.379,0.08-0.432c0.087-0.049,0.182-0.118,0.272-0.159s0.238,0.042,0.337,0.015
				c0.099-0.03,0.22,0.167,0.318,0.159c0.095-0.008,0.186-0.235,0.288-0.224c0.095,0.011,0.197,0.042,0.295,0.072
				c0.092,0.026,0.183,0.076,0.281,0.117C29.997,24.455,30.088,24.512,30.179,24.568z"/>
		</g>
		<g>
			<path d="M28.103,33.646c-0.022,0.102-0.295,0.087-0.311,0.196c-0.019,0.11,0.189,0.25,0.174,0.356
				c-0.015,0.109-0.026,0.238-0.061,0.337c-0.03,0.11-0.091,0.266-0.155,0.349c-0.064,0.072-0.239,0.057-0.322,0.121
				c-0.076,0.061-0.137,0.159-0.224,0.205c-0.083,0.045-0.201,0.045-0.288,0.087c-0.087,0.042-0.265-0.091-0.352-0.042
				c-0.091,0.042-0.095,0.266-0.178,0.311c-0.049-0.091-0.064-0.212-0.121-0.303c-0.061-0.091-0.027-0.235-0.083-0.326
				c-0.061-0.095-0.364-0.061-0.405-0.159c-0.042-0.102,0.129-0.257,0.129-0.363s-0.152-0.22-0.137-0.322
				c0.023-0.102-0.038-0.254,0-0.349c0.03-0.095,0.091-0.216,0.148-0.307c0.049-0.091,0.155-0.182,0.224-0.254
				c0.068-0.079,0.227-0.087,0.303-0.155c0.083-0.068,0.174-0.129,0.258-0.182c0.091-0.053,0.167-0.159,0.257-0.197
				c0.099-0.037,0.254,0.099,0.353,0.072s0.17-0.284,0.273-0.299c0.102-0.008,0.231,0.057,0.33,0.067
				c0.106,0.008,0.212,0.072,0.31,0.099c0.103,0.03,0.084,0.266,0.167,0.322s0.272-0.026,0.333,0.057
				c0.058,0.084-0.033,0.231,0.008,0.33c0.034,0.091,0.224,0.14,0.239,0.242c0.019,0.095-0.217,0.204-0.22,0.307
				c0,0.099,0.276,0.22,0.254,0.318c-0.016,0.099-0.167,0.174-0.197,0.272c-0.034,0.091,0.053,0.239,0.008,0.33
				c-0.046,0.091-0.118,0.178-0.175,0.265c-0.053,0.084-0.129-0.064-0.197,0.012c-0.015-0.099-0.113,0-0.125-0.095
				c-0.015-0.099-0.064-0.189-0.083-0.284c-0.015-0.099,0.072-0.208,0.061-0.303c-0.019-0.099,0.106-0.22,0.091-0.311
				c-0.019-0.099-0.246-0.167-0.261-0.266c-0.016-0.091,0.022-0.197,0.007-0.288C28.072,33.505,28.163,33.63,28.103,33.646z"/>
		</g>
		<g>
			<path d="M26.057,38.915c0.099-0.012,0.212,0.151,0.318,0.14c0.098-0.012,0.189-0.095,0.292-0.109
				c0.099-0.008,0.224,0.159,0.322,0.147c0.102-0.012,0.189-0.117,0.292-0.129c0.099-0.012,0.186-0.155,0.288-0.163
				c0.098-0.011,0.208,0.053,0.307,0.046c0.106-0.008,0.197-0.151,0.295-0.159c0.106-0.008,0.216,0.151,0.318,0.144
				s0.197-0.242,0.303-0.25c0.099,0,0.179,0.307,0.288,0.334c0.099,0.022,0.272-0.152,0.363-0.106
				c0.099,0.045,0.213,0.087,0.296,0.144c0.091,0.054,0.205,0.11,0.28,0.175c0.053,0.038-0.022,0.265-0.042,0.39
				c-0.011,0.088,0.02,0.197-0.003,0.292c-0.02,0.099-0.103,0.193-0.114,0.276c-0.103-0.057-0.121-0.284-0.22-0.337
				c-0.099-0.061-0.295,0.053-0.394-0.008c-0.076-0.041-0.11-0.186-0.189-0.216c-0.076-0.034-0.179-0.159-0.288-0.17
				c-0.091-0.012-0.201,0.269-0.311,0.272c-0.091,0-0.197-0.201-0.296-0.189c-0.099,0.008-0.174,0.178-0.272,0.193
				c-0.099,0.011-0.174,0.125-0.273,0.14c-0.091,0.023-0.182,0.038-0.28,0.061c-0.091,0.023-0.189,0.016-0.288,0.038
				c-0.091,0.026-0.216-0.049-0.307-0.015c-0.095,0.026-0.189,0.053-0.28,0.083c-0.095,0.03-0.167,0.121-0.254,0.159
				c-0.095,0.038-0.257-0.091-0.341-0.053c-0.099,0.045-0.068,0.307-0.151,0.355c-0.091,0.05-0.197,0.038-0.273,0.091
				c-0.091,0.061-0.186,0.076-0.246,0.137c-0.049,0.053-0.246-0.083-0.322-0.046c-0.091,0.05-0.132,0.247-0.174,0.224
				c-0.064-0.041,0.004-0.193-0.038-0.28c-0.034-0.083-0.22-0.125-0.224-0.2c-0.004-0.106,0.239-0.183,0.254-0.273
				c0.011-0.105-0.243-0.257-0.212-0.345c0.038-0.095,0.205-0.125,0.266-0.2c0.061-0.072,0.053-0.239,0.14-0.296
				c0.08-0.053,0.189-0.091,0.288-0.125c0.087-0.03,0.239,0.208,0.345,0.186c0.091-0.015,0.152-0.258,0.258-0.265
				C25.86,38.994,25.958,38.911,26.057,38.915z"/>
		</g>
		<g>
			<path d="M36.134,49.696c-0.099,0.019-0.295-0.016-0.39,0c-0.099,0.015-0.201,0-0.296,0.019c-0.103,0.016-0.171,0.197-0.269,0.212
				c-0.099,0.02-0.228-0.22-0.326-0.212s-0.182,0.125-0.284,0.133c-0.099,0.008-0.212-0.182-0.311-0.174
				c-0.103,0.007-0.182,0.196-0.28,0.204c-0.103,0.008-0.193,0.076-0.292,0.083c-0.099,0.008-0.197,0.034-0.295,0.042
				c-0.099,0.004-0.209-0.163-0.308-0.155c-0.098,0-0.192,0.076-0.291,0.079c-0.099,0.004-0.205-0.178-0.304-0.17
				c-0.098,0-0.189,0.099-0.287,0.099c-0.099,0-0.201,0.136-0.3,0.136s-0.197-0.079-0.295-0.079c-0.099,0-0.201,0.133-0.3,0.133
				c-0.099-0.008-0.197-0.175-0.296-0.175c-0.098-0.008-0.208,0.224-0.307,0.216c-0.099-0.004-0.178-0.307-0.276-0.314
				c-0.103-0.007-0.28,0.125-0.379,0.046c-0.091-0.072-0.234-0.22-0.325-0.28c0.071-0.061,0.166-0.266,0.238-0.334
				c0.083-0.083,0.269-0.061,0.353-0.067c0.102,0,0.196-0.058,0.299-0.064c0.103-0.004,0.209,0.049,0.307,0.041
				c0.099-0.007,0.213,0.183,0.311,0.179c0.099-0.004,0.193-0.201,0.292-0.209c0.099-0.007,0.209,0.038,0.307,0.038
				c0.099-0.008,0.205,0.091,0.304,0.091c0.105-0.008,0.193-0.295,0.295-0.303c0.103-0.008,0.209,0.197,0.311,0.193
				c0.106-0.004,0.197-0.171,0.296-0.171c0.106-0.008,0.197-0.109,0.303-0.113c0.103-0.004,0.201-0.008,0.304-0.012
				c0.102-0.004,0.204,0.022,0.303,0.022c0.106-0.003,0.204,0.103,0.311,0.095c0.103-0.003,0.201-0.003,0.303-0.003
				c0.103,0,0.205-0.064,0.304-0.064c0.105-0.008,0.204,0.174,0.311,0.174c0.105,0,0.265-0.212,0.371-0.174
				c0.099,0.034,0.186,0.144,0.284,0.189c0.099,0.045,0.201,0.158,0.299,0.196C36.111,49.352,36.149,49.59,36.134,49.696z"/>
		</g>
		<g>
			<path d="M23.875,29.815c-0.007-0.11,0.151-0.183,0.167-0.273c0.023-0.105,0.034-0.151,0.083-0.23
				c0.049-0.091,0.045-0.148,0.125-0.209c0.072-0.053,0.049-0.348,0.148-0.379c0.091-0.026,0.231,0.05,0.337,0.042
				c0.095-0.011,0.201,0.022,0.307,0.03c0.106,0.008,0.265-0.133,0.364-0.105c0.098,0.026,0.113,0.307,0.204,0.352
				c0.099,0.054,0.25,0.016,0.322,0.084c0.083,0.068-0.004,0.272,0.049,0.355c0.068,0.091,0.257,0.099,0.272,0.197
				c0.019,0.103,0.061,0.25,0.012,0.349c-0.042,0.091-0.083,0.208-0.144,0.303c-0.057,0.091-0.261,0.084-0.33,0.167
				c-0.068,0.091-0.083,0.216-0.159,0.292c-0.08,0.079-0.273,0.011-0.356,0.079c-0.091,0.068-0.106,0.197-0.201,0.242
				c-0.103,0.054-0.167,0.213-0.266,0.228c-0.102,0.012-0.197-0.072-0.284-0.095c-0.091-0.026-0.258,0.034-0.326-0.026
				c-0.068-0.061-0.015-0.246-0.068-0.329c-0.045-0.08-0.303-0.08-0.333-0.171c-0.03-0.087,0.227-0.262,0.208-0.356
				c-0.015-0.091-0.247-0.159-0.254-0.25C23.746,30.02,23.868,29.914,23.875,29.815z"/>
		</g>
		<g>
			<path d="M20.303,47.529c0.102-0.022,0.303,0.008,0.405-0.02c0.106-0.026,0.174-0.2,0.28-0.223
				c0.099-0.027,0.239,0.075,0.345,0.075c0.103-0.004,0.208-0.068,0.307-0.068c0.106-0.007,0.212,0.099,0.314,0.099
				c0.102,0,0.205-0.008,0.314-0.008c0.106-0.007,0.204-0.075,0.311-0.075c0.102,0,0.208,0.099,0.311,0.099
				c0.102,0,0.212,0.151,0.311,0.151c0.106,0,0.205-0.008,0.314-0.008c0.103,0,0.205-0.038,0.314-0.042
				c0.099,0,0.205-0.276,0.311-0.28c0.103,0,0.208,0.099,0.311,0.099c0.103,0,0.205,0.03,0.311,0.03
				c0.106,0,0.212-0.162,0.314-0.162c0.102,0,0.204,0.25,0.307,0.25c0.08,0,0.182-0.062,0.261-0.008
				c0.072,0.045-0.042,0.174,0.034,0.212c-0.049,0.076,0.091,0.151,0.045,0.238c-0.053,0.103-0.095,0.262-0.174,0.292
				c-0.087,0.03-0.193,0.083-0.288,0.095c-0.091,0.012-0.205-0.155-0.295-0.147c-0.099,0-0.189,0.068-0.281,0.068
				c-0.106,0-0.212-0.183-0.322-0.183c-0.106,0-0.212,0.099-0.322,0.099c-0.106,0-0.212,0.137-0.318,0.137s-0.212-0.076-0.318-0.076
				s-0.212,0.137-0.322,0.137c-0.106,0-0.212-0.159-0.322-0.159c-0.106,0-0.212,0.235-0.322,0.235c-0.106,0-0.208-0.3-0.314-0.304
				c-0.106-0.004-0.22,0.22-0.326,0.22c-0.106-0.008-0.212,0.008-0.318,0.008c-0.091-0.008-0.205,0-0.295-0.016
				c-0.091-0.015-0.159-0.166-0.247-0.188c-0.087-0.027-0.189,0-0.28-0.027c-0.087-0.022-0.167-0.105-0.257-0.125
				C20.394,47.84,20.295,47.643,20.303,47.529z"/>
		</g>
		<g>
			<path d="M32.523,48.158c-0.095,0.008-0.254-0.129-0.349-0.121c-0.095,0.007-0.189,0.022-0.28,0.03
				c-0.095,0.007-0.189,0-0.284,0.007c-0.095,0.008-0.192-0.083-0.287-0.079s-0.186,0.125-0.28,0.125
				c-0.076,0-0.152-0.099-0.228-0.159c-0.068-0.053-0.205-0.106-0.273-0.151c0.054-0.061,0.129-0.178,0.175-0.25
				c0.057-0.083,0.106-0.266,0.178-0.28c0.091-0.026,0.216,0.057,0.307,0.03c0.092-0.016,0.159-0.189,0.258-0.205
				c0.091-0.015,0.212,0.092,0.304,0.084c0.098-0.008,0.2-0.076,0.295-0.076c0.099,0.008,0.197,0.106,0.3,0.114
				c0.102,0.003,0.2,0.003,0.299,0.007s0.205-0.061,0.303-0.057c0.103,0.004,0.201,0.11,0.3,0.11
				c0.099,0.007,0.193,0.162,0.292,0.174c0.098,0,0.204,0.008,0.303,0.016c0.099,0.007,0.197-0.03,0.303-0.023
				c0.099,0.008,0.22-0.257,0.322-0.25c0.103,0.008,0.193,0.114,0.292,0.125c0.099,0.008,0.196,0.05,0.295,0.064
				c0.084,0.008,0.288-0.057,0.364,0.008c0.061,0.061-0.054,0.311,0.007,0.379s0.213,0.113,0.273,0.167
				c-0.084,0.049-0.304-0.03-0.395,0.033c-0.091,0.058-0.075,0.273-0.159,0.322c-0.105,0.054-0.227,0.155-0.318,0.145
				c-0.098-0.012-0.204-0.004-0.307-0.016c-0.102-0.015-0.17-0.204-0.269-0.22c-0.099-0.022-0.212,0.03-0.311,0.008
				c-0.099-0.016-0.155-0.22-0.258-0.239c-0.099-0.019-0.212,0.05-0.314,0.027c-0.099-0.023-0.224,0.083-0.322,0.061
				c-0.099-0.023-0.178-0.121-0.28-0.145c-0.099-0.022-0.189,0.091-0.28,0.072C32.489,48.029,32.535,48.12,32.523,48.158z"/>
		</g>
		<g>
			<path d="M23.845,27.118c-0.114-0.053-0.144-0.318-0.22-0.375c-0.106-0.08-0.053-0.11-0.061-0.208
				c-0.015-0.091-0.14-0.152-0.061-0.265c0.061-0.072,0.042-0.25,0.14-0.333c0.08-0.072,0.33-0.038,0.375-0.144
				c0.038-0.099,0.072-0.231,0.099-0.341c0.03-0.114-0.137-0.265-0.114-0.372c0.022-0.098,0.22-0.182,0.227-0.288
				c0.008-0.106-0.144-0.22-0.136-0.322c0.015-0.106-0.117-0.276-0.076-0.371c0.022-0.049,0.349-0.034,0.504-0.042
				c0.147,0,0.33,0.026,0.364,0.083c0.057,0.072,0.08,0.182,0.102,0.28c0.019,0.091-0.061,0.197-0.045,0.296
				c0.008,0.095,0.136,0.174,0.155,0.265c0.015,0.091-0.022,0.197-0.004,0.341c0.091,0.022,0.197-0.026,0.288-0.011
				c0.091,0.019,0.178,0.064,0.273,0.083c0.091,0.019,0.205-0.064,0.303-0.042c0.091,0.019,0.174,0.151,0.273,0.174
				c0.022,0.083,0.182,0.265,0.205,0.349c-0.091,0.049-0.311,0.064-0.402,0.113c-0.083,0.045-0.144,0.148-0.235,0.197
				c-0.083,0.045-0.22,0.004-0.311,0.049c-0.083,0.049-0.174,0.095-0.265,0.144c-0.091,0.038-0.151,0.141-0.242,0.186
				c-0.091,0.045-0.22-0.008-0.311,0.034c-0.091,0.042-0.25-0.057-0.341-0.015c-0.091,0.042-0.182,0.083-0.269,0.125
				C23.97,26.754,23.936,27.08,23.845,27.118z"/>
		</g>
		<g>
			<path d="M28.542,49.916c-0.099,0-0.295-0.182-0.397-0.182s-0.205-0.061-0.307-0.061c-0.102,0-0.205,0.182-0.311,0.182
				c-0.098,0-0.205-0.266-0.307-0.266c-0.103,0-0.205,0.061-0.307,0.061c-0.106,0-0.205,0.273-0.311,0.273
				c-0.099,0-0.205-0.235-0.303-0.235c-0.103,0-0.205-0.083-0.307-0.083c-0.102,0-0.208,0.159-0.307,0.159
				c-0.106,0-0.208,0.132-0.311,0.132c-0.102,0-0.205-0.238-0.311-0.238c-0.098,0-0.205,0.008-0.303,0.008
				c-0.106,0-0.208,0.189-0.311,0.189c-0.102,0-0.102-0.141-0.205-0.141c0.034-0.103-0.057-0.14-0.015-0.224
				c0.049-0.099-0.022-0.288,0.034-0.363c0.064-0.083,0.273-0.064,0.356-0.121c0.079-0.054,0.186-0.095,0.295-0.11
				c0.091-0.011,0.197,0,0.307,0.016c0.091,0.011,0.167,0.125,0.28,0.155c0.099,0.03,0.235-0.064,0.345-0.046
				c0.11,0.016,0.208,0.072,0.322,0.076c0.106,0.004,0.216-0.061,0.326-0.061c0.114,0,0.22,0.03,0.33,0.03s0.22-0.106,0.33-0.099
				c0.114,0.004,0.22,0.117,0.33,0.125s0.257-0.117,0.367-0.099c0.11,0.02,0.201,0.167,0.311,0.193
				c0.106,0.03,0.288,0.022,0.395,0.046c0,0.075-0.072,0.238-0.076,0.317C28.478,49.632,28.55,49.836,28.542,49.916z"/>
		</g>
		<g>
			<path d="M26.538,47.733c0.087-0.067,0.375-0.075,0.462-0.121c0.099-0.053,0.102-0.318,0.201-0.353
				c0.102-0.033,0.265,0.141,0.368,0.125c0.106-0.022,0.205,0.03,0.314,0.027c0.106-0.004,0.205-0.183,0.314-0.175
				c0.106,0.004,0.189,0.276,0.296,0.284c0.105,0.008,0.216-0.045,0.322-0.038c0.109,0.008,0.223-0.254,0.329-0.254
				c0.11,0,0.224,0.231,0.33,0.213c0.102-0.012,0.075,0.004,0.174-0.03c-0.016,0.109,0.068,0.071,0.038,0.162
				c-0.03,0.11,0.038,0.273-0.012,0.349c-0.061,0.091-0.299,0.008-0.379,0.068c-0.079,0.061-0.133,0.087-0.238,0.121
				c-0.091,0.023-0.159,0.228-0.266,0.231c-0.099,0.004-0.189-0.193-0.299-0.208c-0.095-0.008-0.216,0.128-0.322,0.105
				c-0.099-0.022-0.242,0.11-0.349,0.076c-0.098-0.023-0.155-0.205-0.257-0.243c-0.095-0.03-0.193-0.061-0.295-0.098
				c-0.099-0.038-0.189-0.088-0.288-0.129C26.883,47.817,26.637,47.771,26.538,47.733z"/>
		</g>
		<g>
			<path d="M20.424,49.423c0.11-0.037,0.33,0.084,0.432,0.042c0.102-0.042,0.223-0.057,0.322-0.105
				c0.099-0.05,0.076-0.398,0.174-0.437c0.106-0.037,0.288,0.155,0.394,0.129c0.11-0.022,0.224-0.265,0.33-0.25
				c0.11,0.016,0.174,0.25,0.276,0.3c0.099,0.041,0.155,0.147,0.254,0.208c0.091,0.061,0.28-0.019,0.371,0.05
				c0.087,0.063,0.019,0.348,0.11,0.412c0.091,0.064,0.167-0.015,0.258,0.042c-0.083,0.049,0.011,0.205-0.08,0.246
				c-0.091,0.034-0.254-0.155-0.356-0.133c-0.095,0.027-0.193-0.037-0.292-0.022c-0.095,0.016-0.17,0.182-0.269,0.186
				c-0.098,0.004-0.197,0.137-0.295,0.137c-0.098-0.008-0.182-0.25-0.276-0.258c-0.099-0.015-0.186-0.022-0.28-0.045
				c-0.099-0.02-0.243,0.136-0.333,0.105c-0.099-0.03-0.11-0.242-0.193-0.288c-0.095-0.045-0.253,0.03-0.322-0.03
				C20.572,49.643,20.466,49.507,20.424,49.423z"/>
		</g>
		<g>
			<path d="M23.989,27.012c0.091-0.042,0.015-0.178,0.106-0.22c0.091-0.038,0.254,0.076,0.345,0.038
				c0.091-0.038,0.106-0.247,0.197-0.288c0.091-0.042,0.269,0.11,0.36,0.068c0.091-0.038,0.121-0.034,0.208-0.076
				c0.11,0.045,0.292-0.228,0.405-0.182c0.114,0.049,0.083,0.273,0.205,0.318c-0.072,0.08,0.038,0.242-0.03,0.311
				c-0.083,0.076-0.295-0.015-0.378,0.045c-0.083,0.068-0.189,0.068-0.273,0.118c-0.099,0.057-0.114,0.257-0.205,0.292
				c-0.103,0.03-0.228-0.208-0.326-0.208c-0.106,0.004-0.152,0.057-0.243,0.019c-0.091-0.034-0.318,0.14-0.401,0.068
				C23.89,27.254,24.049,27.103,23.989,27.012z"/>
		</g>
		<g>
			<path d="M25.853,27.322c0.023,0.371,0.121,0.212,0.114,0.212c-0.091,0.045-0.182,0.083-0.28,0.128
				c-0.091,0.042-0.174,0.103-0.265,0.145c-0.091,0.037-0.182,0.099-0.273,0.136c-0.091,0.038-0.099,0.273-0.189,0.311
				c-0.091,0.038-0.254-0.083-0.349-0.041c-0.098,0.038-0.121,0.246-0.212,0.28c-0.019,0.004-0.023-0.292-0.091-0.413
				c0.091-0.042,0.106,0.064,0.197,0.022c0.083-0.037,0.042-0.379,0.129-0.416c0.087-0.038,0.269,0.144,0.356,0.105
				c0.087-0.034,0.076-0.295,0.167-0.333c0.083-0.038,0.258,0.117,0.341,0.076c0.091-0.034,0.197-0.019,0.288-0.057
				C25.875,27.444,25.762,27.36,25.853,27.322z"/>
		</g>
		<g>
			<path d="M27.209,38.252c0.03-0.099-0.144-0.155-0.114-0.258c0.026-0.099-0.03-0.22,0-0.314c0.026-0.099,0.371-0.106,0.397-0.197
				c0.034-0.099,0.064-0.189,0.099-0.28c0.011-0.015-0.072,0.121,0.042,0.145c0.083,0.015,0.046-0.076,0.114-0.062
				c-0.022,0.099-0.03,0.106-0.053,0.209c-0.027,0.103-0.03,0.208-0.053,0.311s0.159,0.254,0.133,0.353
				c-0.023,0.102-0.178,0.102-0.201,0.204c-0.091-0.022-0.136,0.114-0.227,0.091C27.254,38.43,27.296,38.278,27.209,38.252z"/>
		</g>
	</g>
	<path fill="#EB6668" d="M26.807,11.646c-0.894-0.038-1.682-0.439-2.122-1.356c-0.436-0.897-0.28-1.765,0.341-2.5
		c0.651-0.788,1.538-1.152,2.564-0.917c0.989,0.231,1.694,0.841,1.822,1.879C29.588,10.124,28.808,11.556,26.807,11.646z"/>
</g>
</svg>
