<?xml version="1.0" encoding="utf-8"?>
<!-- Generator: Adobe Illustrator 16.0.0, SVG Export Plug-In . SVG Version: 6.00 Build 0)  -->
<!DOCTYPE svg PUBLIC "-//W3C//DTD SVG 1.1//EN" "http://www.w3.org/Graphics/SVG/1.1/DTD/svg11.dtd">
<svg version="1.1" id="圖層_1" xmlns="http://www.w3.org/2000/svg" xmlns:xlink="http://www.w3.org/1999/xlink" x="0px" y="0px"
	 width="55px" height="55px" viewBox="0 0 55 55" enable-background="new 0 0 55 55" xml:space="preserve">
<path d="M28.566,20.618c-0.145,0-0.231,0.087-0.376,0.087c-0.131,0-0.276-0.101-0.414-0.101s-0.283,0.159-0.413,0.159
	c-0.138,0-0.275-0.181-0.413-0.181s-0.283-0.08-0.413-0.08c-0.145,0-0.283,0.043-0.413,0.043c-0.138,0-0.283-0.116-0.413-0.116
	c-0.145,0-0.283,0.087-0.42,0.087c-0.13,0-0.275,0.131-0.406,0.131c-0.138,0-0.275,0.29-0.413,0.29s-0.275-0.174-0.413-0.174
	c-0.145,0-0.275,0.043-0.413,0.043s-0.275-0.319-0.413-0.319c-0.145,0-0.275,0.174-0.413,0.174s-0.283,0.015-0.413,0.015
	c-0.138,0-0.275-0.116-0.406-0.116c-0.145,0-0.283,0.043-0.413,0.043c-0.138,0-0.283-0.16-0.413-0.16
	c-0.138,0-0.275,0.015-0.406,0.015c-0.145,0-0.283,0.377-0.42,0.377s-0.275-0.261-0.413-0.261s-0.275,0.087-0.413,0.087
	c-0.145,0-0.275-0.072-0.413-0.072s-0.275-0.087-0.413-0.087s-0.275,0.304-0.413,0.29c-0.138,0-0.283-0.101-0.413-0.101
	c-0.138,0-0.275-0.109-0.406-0.109c-0.145,0-0.275,0.355-0.42,0.355c-0.138,0-0.275-0.072-0.406-0.072
	c-0.145,0-0.283,0.051-0.42,0.051c-0.145,0-0.283-0.275-0.399-0.254c-0.145,0.015-0.239,0.16-0.355,0.203
	c-0.13,0.058-0.304,0.029-0.391,0.116c-0.087,0.094,0.13,0.326,0.087,0.464c-0.043,0.109-0.384,0.145-0.399,0.29
	c-0.007,0.116,0.058,0.261,0.065,0.406c0,0.13,0.152,0.268,0.152,0.406s-0.203,0.275-0.196,0.42c0,0.13,0.217,0.268,0.217,0.406
	c0,0.145-0.203,0.275-0.203,0.42c0,0.138,0.275,0.268,0.275,0.406c0,0.145-0.037,0.275-0.029,0.42c0,0.138-0.043,0.275-0.036,0.413
	c0,0.138,0.072,0.275,0.08,0.413c0,0.138-0.101,0.275-0.101,0.42c0,0.13-0.087,0.275-0.087,0.413s0.087,0.268,0.087,0.413
	c0,0.13-0.065,0.275-0.058,0.413c0,0.138,0.145,0.268,0.145,0.413c0,0.138,0.065,0.268,0.065,0.406c0,0.145-0.196,0.276-0.196,0.42
	c0,0.138-0.203,0.275-0.195,0.413c0,0.138,0.275,0.275,0.283,0.413c0,0.138-0.326,0.282-0.326,0.42c0,0.131,0.253,0.269,0.253,0.406
	s-0.015,0.275-0.015,0.413c0,0.131-0.13,0.275-0.13,0.413c0,0.145,0.348,0.275,0.348,0.406c0,0.13-0.124,0.275-0.124,0.42
	c0,0.138,0.094,0.269,0.094,0.406c0,0.145-0.152,0.275-0.152,0.42c0,0.138,0.108,0.275,0.108,0.406c0,0.145-0.188,0.282-0.181,0.42
	c0,0.138,0.261,0.275,0.261,0.406c0,0.145-0.124,0.282-0.124,0.42s-0.232,0.275-0.232,0.421c0,0.13-0.072,0.275-0.072,0.413
	s0.138,0.268,0.145,0.413c0,0.138,0.34,0.268,0.34,0.405c0,0.146-0.348,0.29-0.348,0.421c0,0.138-0.036,0.275-0.036,0.405
	c0,0.146,0.203,0.275,0.203,0.413s-0.072,0.283-0.072,0.413c0,0.146,0.065,0.275,0.065,0.421c0,0.13-0.167,0.275-0.167,0.405
	c0,0.146,0.413,0.275,0.413,0.406c0,0.145-0.109,0.282-0.109,0.42c0,0.146-0.159,0.275-0.159,0.421c0,0.13-0.029,0.275-0.029,0.405
	c0,0.146,0.261,0.275,0.275,0.413c0,0.138,0.072,0.275,0.072,0.421c0.007,0.145-0.392,0.289-0.392,0.427s0.283,0.275,0.29,0.421
	c0,0.13-0.377,0.282-0.377,0.42c0,0.146,0.319,0.275,0.319,0.421c0,0.138-0.058,0.282-0.058,0.42s-0.058,0.283-0.051,0.421
	c0,0.145,0.297,0.275,0.297,0.42c0.007,0.138-0.058,0.275-0.051,0.42c0.007,0.138-0.384,0.29-0.384,0.421
	c0.007,0.145,0.058,0.282,0.058,0.428c0,0.145,0.376,0.275,0.376,0.413c0,0.145-0.181,0.29-0.181,0.42
	c0,0.146-0.043,0.29-0.036,0.421c0,0.145,0.058,0.282,0.058,0.427c0,0.138,0.232,0.283,0.232,0.421s-0.29,0.282-0.29,0.42
	s0.087,0.283,0.087,0.428c0,0.138-0.051,0.275-0.072,0.406c-0.029,0.145,0.13,0.362,0.08,0.478
	c-0.051,0.131-0.384,0.116-0.464,0.218c-0.08,0.116-0.094,0.305-0.21,0.377c-0.109,0.072-0.218,0.239-0.355,0.282
	c-0.123,0.036-0.326-0.34-0.471-0.326c-0.131,0.008-0.261,0.428-0.406,0.421c-0.13-0.015-0.217-0.348-0.362-0.377
	c-0.13-0.029-0.275,0-0.398-0.036c-0.138-0.044-0.247-0.108-0.362-0.152c-0.123-0.058-0.145-0.275-0.254-0.348
	c-0.116-0.065-0.29-0.008-0.391-0.087c-0.109-0.087-0.449,0.072-0.536-0.022c-0.094-0.101,0-0.369-0.073-0.485
	c-0.072-0.108-0.348-0.123-0.406-0.246c-0.058-0.116,0.247-0.384,0.203-0.508c-0.029-0.13,0.036-0.261,0.014-0.398
	c-0.029-0.13-0.217-0.225-0.232-0.354c-0.014-0.131,0.109-0.269,0.102-0.406c-0.007-0.13-0.174-0.246-0.174-0.392
	c0-0.13,0.029-0.261,0.029-0.405c0-0.131-0.275-0.261-0.275-0.392c0-0.138,0-0.275,0-0.406c-0.007-0.13,0.167-0.275,0.167-0.405
	c-0.007-0.131,0.029-0.261,0.021-0.406c0-0.138-0.217-0.261-0.217-0.391c-0.007-0.131,0.29-0.275,0.29-0.413
	c-0.007-0.138-0.174-0.262-0.174-0.399c-0.014-0.13-0.072-0.261-0.072-0.391c-0.007-0.138-0.102-0.275-0.109-0.406
	c-0.007-0.131-0.036-0.261-0.036-0.398c-0.007-0.138,0.384-0.283,0.377-0.413c0-0.138-0.377-0.261-0.384-0.392
	c-0.007-0.138,0.355-0.29,0.355-0.42c0-0.131-0.087-0.261-0.094-0.398s0.123-0.269,0.123-0.406c-0.015-0.138-0.5-0.254-0.507-0.384
	c0-0.138,0.319-0.283,0.319-0.421c-0.007-0.13,0.116-0.268,0.116-0.405c0-0.131-0.261-0.261-0.269-0.392
	c0-0.145-0.181-0.275-0.181-0.421c0-0.13,0.5-0.275,0.5-0.413s-0.268-0.268-0.268-0.398c0-0.138-0.159-0.275-0.159-0.42
	c0-0.131,0.29-0.275,0.29-0.406c0-0.145-0.174-0.275-0.174-0.413s0.087-0.268,0.087-0.413c0-0.13,0.145-0.268,0.145-0.405
	c0-0.146-0.29-0.275-0.29-0.413s0.188-0.269,0.188-0.413c0-0.138,0.087-0.269,0.087-0.406c0-0.145-0.413-0.275-0.413-0.413
	s0.413-0.268,0.413-0.413c0-0.138-0.131-0.275-0.131-0.405c0-0.146,0.058-0.275,0.058-0.413s-0.102-0.269-0.102-0.413
	c0-0.138-0.13-0.275-0.13-0.406c0-0.145,0.102-0.275,0.102-0.413s0.203-0.275,0.203-0.413s-0.406-0.275-0.392-0.406
	c0-0.145,0.145-0.275,0.145-0.42c0-0.131-0.073-0.269-0.073-0.406s0.218-0.275,0.218-0.413s-0.015-0.268-0.015-0.413
	c0-0.13-0.058-0.268-0.058-0.405c0-0.145-0.072-0.275-0.072-0.413s-0.029-0.269-0.029-0.413c0-0.131,0.239-0.269,0.239-0.406
	c0-0.145-0.348-0.275-0.348-0.413s0.312-0.268,0.312-0.413c0-0.138-0.015-0.268-0.015-0.406c0-0.145-0.203-0.275-0.203-0.42
	c0-0.145-0.116-0.282-0.116-0.42c0-0.145,0.116-0.29,0.116-0.428s0.333-0.283,0.333-0.428c0-0.138-0.471-0.275-0.471-0.406
	c-0.007-0.145,0.312-0.29,0.312-0.435c0-0.13-0.247-0.268-0.253-0.406c-0.007-0.138,0.108-0.283,0.101-0.427
	c-0.007-0.138,0.254-0.297,0.247-0.442c-0.007-0.116-0.406-0.203-0.543-0.326c-0.138-0.123-0.239-0.406-0.362-0.413
	c-0.13-0.007-0.275,0.29-0.406,0.29c-0.131-0.015-0.261-0.16-0.392-0.16c-0.138,0-0.261,0.131-0.398,0.131s-0.268-0.247-0.399-0.247
	c-0.138,0-0.261,0.174-0.398,0.174c-0.13,0-0.268-0.232-0.398-0.232s-0.261-0.043-0.392-0.043c-0.138,0-0.261-0.072-0.391-0.072
	c-0.13-0.015-0.29,0.319-0.413,0.312c-0.124-0.007-0.261,0-0.392-0.022c-0.123-0.021-0.253-0.08-0.37-0.116
	c-0.13-0.043-0.29,0.007-0.406-0.043c-0.116-0.051-0.261-0.102-0.37-0.167c-0.108-0.065-0.268-0.138-0.355-0.21
	c-0.087-0.072-0.217-0.398-0.239-0.594c-0.014-0.159,0.297-0.333,0.312-0.493c0.029-0.203-0.029-0.442,0.058-0.493
	c0.123-0.087,0.297-0.073,0.435-0.145c0.13-0.065,0.297-0.029,0.435-0.094c0.13-0.051,0.232-0.21,0.37-0.239
	c0.138-0.043,0.312,0.058,0.457,0.029c0.145-0.029,0.261-0.326,0.406-0.333c0.138-0.015,0.29,0.21,0.435,0.21
	c0.145,0.007,0.297-0.138,0.449-0.123c0.145,0.014,0.297-0.051,0.435-0.029c0.145,0.015,0.261,0.319,0.406,0.333
	s0.304-0.174,0.449-0.159c0.145,0.007,0.29,0.029,0.435,0.036c0.145,0.007,0.304,0.181,0.449,0.174
	c0.116-0.007,0.406-0.022,0.543-0.13c0.123-0.094-0.036-0.493,0.051-0.602c0.116-0.145,0.203-0.203,0.203-0.319
	c0-0.13,0.232-0.275,0.232-0.406c-0.014-0.138,0.022-0.283,0.015-0.42c-0.007-0.13-0.232-0.247-0.247-0.384
	c-0.007-0.138,0.275-0.297,0.261-0.428c-0.007-0.138-0.464-0.232-0.479-0.362c-0.014-0.13,0.015-0.275,0-0.406
	c-0.007-0.13,0.152-0.29,0.145-0.42c-0.021-0.13,0.029-0.275,0.015-0.413c-0.007-0.13,0.058-0.268,0.043-0.413
	c-0.007-0.152-0.203-0.304-0.188-0.464c0.029-0.159,0.247-0.253,0.297-0.398c0.051-0.138-0.181-0.355-0.152-0.471
	c0.043-0.145-0.029-0.261-0.015-0.376c0.015-0.145,0.362-0.29,0.333-0.406c-0.029-0.13-0.167-0.275-0.261-0.376
	c-0.087-0.087-0.21-0.188-0.333-0.261c-0.102-0.058-0.218-0.174-0.348-0.232c-0.116-0.043-0.253-0.087-0.391-0.13
	c-0.124-0.051-0.21-0.21-0.333-0.261c-0.13-0.051-0.283-0.051-0.406-0.102c-0.13-0.051-0.247-0.13-0.377-0.188
	c-0.123-0.051-0.406,0.254-0.529,0.203c-0.124-0.058-0.283-0.051-0.413-0.102c-0.131-0.058-0.247-0.13-0.377-0.181
	c-0.124-0.051-0.16-0.312-0.283-0.37c-0.13-0.058-0.225-0.174-0.355-0.225s-0.29-0.022-0.42-0.08
	c-0.13-0.044-0.319,0.036-0.442-0.015c-0.123-0.058-0.195-0.247-0.326-0.29c-0.131-0.058-0.326,0.058-0.45,0
	C4.115,8.805,4.071,8.581,3.97,8.516C3.854,8.443,3.897,8.211,3.811,8.124S3.528,8.059,3.462,7.95
	C3.397,7.834,3.55,7.667,3.521,7.544C3.492,7.421,3.506,7.341,3.499,7.204C3.492,7.081,3.23,6.965,3.245,6.834
	C3.267,6.66,3.26,6.486,3.289,6.327c0.029-0.13,0.16-0.275,0.145-0.406S3.332,5.667,3.296,5.537
	c-0.022-0.124-0.312-0.21-0.333-0.333C2.941,5.066,3.23,4.943,3.26,4.819C3.289,4.704,3.23,4.566,3.332,4.472
	c0.087-0.073,0.102-0.384,0.247-0.435c0.13-0.043,0.319,0.029,0.449,0c0.13-0.029,0.29,0.116,0.428,0.116
	C4.593,4.146,4.724,4.08,4.861,4.095S5.122,4.16,5.26,4.189C5.383,4.225,5.542,4.167,5.673,4.21c0.124,0.043,0.225,0.16,0.355,0.203
	c0.123,0.051,0.268,0.072,0.391,0.123s0.174,0.261,0.297,0.312C6.84,4.906,6.912,5.066,7.042,5.124
	c0.116,0.058,0.363-0.145,0.479-0.08c0.13,0.058,0.275,0.037,0.406,0.094c0.116,0.058,0.109,0.406,0.239,0.471
	C8.289,5.66,8.572,5.356,8.695,5.406c0.116,0.051,0.109,0.428,0.239,0.479C9.058,5.936,9.26,5.791,9.391,5.849
	c0.124,0.058,0.152,0.348,0.275,0.398c0.131,0.051,0.29,0.007,0.413,0.065c0.131,0.043,0.283,0.029,0.406,0.072
	c0.13,0.051,0.268,0.043,0.398,0.087c0.13,0.036,0.232,0.167,0.362,0.21c0.13,0.036,0.275,0.007,0.406,0.051
	c0.13,0.029,0.29-0.022,0.42,0.014c0.13,0.043,0.159,0.42,0.297,0.457c0.124,0.037,0.269,0.065,0.399,0.094
	c0.13,0.029,0.333-0.217,0.464-0.188c0.138,0.029,0.261,0.087,0.391,0.116c0.13,0.029,0.261,0.102,0.392,0.13
	c0.13,0.029,0.246,0.16,0.384,0.188c0.138,0.015,0.326-0.355,0.457-0.341C15,7.226,15.102,7.508,15.232,7.522
	c0.145,0.022,0.247,0.283,0.392,0.297c0.13,0.015,0.29-0.036,0.42-0.015c0.138,0.015,0.261,0.109,0.406,0.124
	c0.138,0.021,0.29-0.065,0.42-0.051c0.145,0.014,0.29-0.087,0.435-0.065c0.13,0.015,0.275,0.007,0.413,0.015
	c0.138,0.021,0.304-0.254,0.442-0.239s0.275,0.058,0.406,0.072c0.145,0.007,0.246,0.45,0.384,0.457
	c0.138,0.007,0.312-0.326,0.449-0.304c0.138,0.007,0.247,0.398,0.384,0.413c0.138,0.007,0.29-0.13,0.428-0.116
	c0.138,0.014,0.297-0.16,0.427-0.145c0.145,0.007,0.275,0.13,0.406,0.145c0.145,0.014,0.275,0.116,0.413,0.123
	s0.283,0.058,0.413,0.065c0.145,0.015,0.304-0.29,0.442-0.282c0.138,0.007,0.268,0.108,0.413,0.108
	c0.138,0.007,0.268,0.13,0.406,0.145c0.145,0,0.275,0.109,0.413,0.116c0.138,0.007,0.29-0.254,0.428-0.247
	c0.138,0.015,0.275,0.188,0.406,0.188c0.145,0.007,0.29-0.174,0.435-0.167c0.13,0.007,0.261,0.341,0.406,0.341
	c0.13,0.015,0.275,0,0.413,0.015c0.138,0,0.283-0.305,0.427-0.305c0.138,0.007,0.275,0.08,0.42,0.08
	c0.13,0.007,0.275-0.037,0.413-0.037s0.268,0.21,0.413,0.218c0.13,0,0.275,0.007,0.413,0.014c0.138,0,0.275-0.021,0.413-0.021
	c0.146,0,0.275,0.021,0.421,0.021c0.138,0,0.282-0.304,0.42-0.304s0.275-0.015,0.42-0.015c0.131,0,0.269,0.479,0.406,0.479
	s0.275-0.029,0.42-0.029c0.131,0,0.275-0.333,0.421-0.333c0.138,0,0.275,0.145,0.413,0.145s0.282-0.073,0.413-0.065
	c0.145,0,0.282,0.109,0.42,0.109s0.275-0.029,0.421-0.029c0.13,0,0.275,0.225,0.413,0.225s0.275-0.036,0.413-0.043
	c0.145,0,0.268-0.457,0.405-0.464c0.146-0.007,0.29,0.399,0.428,0.399c0.138-0.015,0.269-0.348,0.398-0.348
	c0.146-0.014,0.29,0.087,0.421,0.073c0.138,0,0.282,0.13,0.42,0.13c0.138-0.015,0.261-0.239,0.406-0.247
	c0.13-0.014,0.29,0.174,0.428,0.16c0.138-0.007,0.297,0.167,0.427,0.159c0.146-0.014,0.247-0.398,0.377-0.413
	c0.146-0.014,0.319,0.348,0.464,0.326c0.131-0.014,0.247-0.29,0.377-0.312c0.138-0.021,0.239-0.268,0.377-0.283
	c0.138-0.029,0.269-0.058,0.406-0.087c0.138-0.015,0.268-0.043,0.405-0.072c0.138-0.029,0.305,0.174,0.449,0.145
	c0.131-0.029,0.262-0.087,0.399-0.116s0.34,0.217,0.471,0.188c0.13-0.036,0.203-0.333,0.341-0.362
	c0.138-0.043,0.282-0.073,0.413-0.102c0.145-0.029,0.261-0.174,0.405-0.188c0.146-0.021,0.312,0.13,0.457,0.109
	c0.138-0.015,0.282-0.058,0.42-0.065c0.146-0.014,0.312,0.217,0.449,0.203c0.146-0.007,0.269-0.174,0.413-0.188
	c0.146-0.015,0.254-0.362,0.392-0.377c0.146-0.015,0.29,0.065,0.435,0.051c0.146-0.022,0.262-0.123,0.406-0.138
	s0.333,0.304,0.464,0.29c0.145-0.015,0.29-0.037,0.435-0.058c0.131-0.029,0.21-0.377,0.348-0.398
	c0.146-0.037,0.362,0.297,0.508,0.253c0.13-0.043,0.29-0.043,0.42-0.094c0.131-0.051,0.116-0.478,0.254-0.543
	c0.123-0.043,0.413,0.333,0.536,0.29s0.225-0.13,0.348-0.174c0.124-0.043,0.138-0.435,0.254-0.478
	c0.131-0.043,0.254-0.087,0.384-0.123c0.124-0.037,0.37,0.312,0.493,0.275c0.131-0.037,0.232-0.152,0.355-0.181
	c0.13-0.044,0.159-0.406,0.29-0.442c0.13-0.036,0.318,0.181,0.449,0.138c0.13-0.043,0.152-0.398,0.275-0.435
	c0.13-0.043,0.354,0.239,0.485,0.195c0.123-0.043,0.254-0.065,0.377-0.116c0.159-0.058,0.282-0.16,0.413-0.181
	c0.174-0.029,0.304-0.015,0.435,0.014c0.145,0.029,0.145,0.188,0.246,0.305c0.095,0.102,0.196,0.145,0.262,0.304
	c0.058,0.13,0.115,0.247,0.159,0.406c0.028,0.145,0.362,0.225,0.392,0.363c0.028,0.145,0.028,0.297,0.058,0.435
	c0.015,0.145-0.283,0.333-0.275,0.464c0.015,0.152,0.181,0.29,0.174,0.42c-0.015,0.145-0.08,0.283-0.123,0.406
	c-0.044,0.145-0.159,0.232-0.239,0.348c-0.072,0.116,0.015,0.377-0.102,0.479c-0.087,0.087-0.188,0.239-0.318,0.319
	c-0.116,0.072-0.334-0.015-0.479,0.058c-0.116,0.058-0.348-0.13-0.493-0.073c-0.123,0.058-0.072,0.573-0.218,0.624
	c-0.13,0.051-0.275,0.065-0.405,0.108c-0.138,0.051-0.398-0.29-0.536-0.246c-0.131,0.043-0.174,0.355-0.305,0.398
	s-0.261,0.102-0.392,0.145c-0.138,0.036-0.354-0.196-0.492-0.152c-0.131,0.036-0.152,0.435-0.29,0.479
	c-0.131,0.043-0.377-0.297-0.508-0.254c-0.138,0.043-0.138,0.493-0.275,0.537c-0.13,0.043-0.275,0.043-0.405,0.087
	c-0.131,0.043-0.305-0.029-0.436,0.021c-0.13,0.051-0.348-0.123-0.478-0.072c-0.109,0.043-0.254,0.167-0.37,0.253
	c-0.108,0.073-0.275,0.145-0.369,0.239c-0.102,0.102-0.218,0.247-0.283,0.355c-0.079,0.131,0.036,0.363,0.022,0.493
	c-0.022,0.13-0.102,0.261-0.116,0.391s0.231,0.29,0.225,0.42c-0.008,0.138-0.029,0.275-0.036,0.406
	c-0.015,0.13-0.188,0.261-0.203,0.392c0,0.138,0.21,0.275,0.203,0.42c0,0.13-0.196,0.261-0.196,0.391
	c-0.007,0.138,0.08,0.275,0.08,0.406c-0.007,0.13-0.116,0.268-0.116,0.406c-0.015,0.13,0.065,0.268,0.065,0.406
	c-0.007,0.131-0.29,0.261-0.297,0.392c0,0.13,0.333,0.283,0.333,0.42c-0.015,0.159,0.065,0.217,0.102,0.333
	c0.044,0.145,0.044,0.116,0.159,0.188c0.102,0.073,0.087,0.333,0.232,0.348c0.13,0.015,0.261-0.145,0.405-0.16
	c0.146-0.014,0.298,0.174,0.442,0.167c0.146-0.007,0.283-0.022,0.428-0.029c0.145-0.007,0.29,0.029,0.42,0.022
	c0.146-0.007,0.298,0.123,0.436,0.116c0.145-0.014,0.261-0.464,0.405-0.464c0.146-0.007,0.29,0.007,0.428,0
	c0.146,0,0.305,0.42,0.449,0.42c0.146-0.007,0.283-0.007,0.428-0.014c0.145,0,0.282-0.015,0.428-0.029
	c0.145,0,0.297-0.485,0.428-0.471c0.145,0.021,0.239,0.34,0.354,0.384c0.131,0.051,0.283,0.073,0.37,0.174
	c0.087,0.087,0.116,0.232,0.167,0.37c0.036,0.124-0.175,0.269-0.167,0.413c0.015,0.131,0.188,0.239,0.181,0.362
	c-0.007,0.131,0.152,0.29,0.124,0.406c-0.029,0.13-0.377,0.101-0.442,0.217c-0.072,0.102,0.065,0.355-0.044,0.428
	c-0.094,0.065-0.239,0.065-0.369,0.108c-0.116,0.036-0.225,0.312-0.362,0.319c-0.146,0.015-0.283-0.014-0.421-0.014
	c-0.13,0.014-0.275-0.145-0.42-0.131c-0.131,0.015-0.269,0.029-0.406,0.037c-0.145,0.007-0.275,0.021-0.413,0.029
	s-0.289-0.297-0.428-0.29c-0.137,0.007-0.261,0.21-0.405,0.21c-0.138,0.014-0.275-0.203-0.421-0.203c-0.13,0-0.268,0-0.398,0
	c-0.138,0-0.275,0.16-0.413,0.16c-0.145-0.007-0.304-0.029-0.435-0.015c-0.159,0.015-0.348-0.058-0.471-0.015
	c-0.146,0.051-0.211,0.319-0.312,0.406c-0.102,0.087,0.043,0.29-0.015,0.435c-0.044,0.116-0.529,0.16-0.536,0.319
	c-0.008,0.123,0.064,0.29,0.087,0.449c0.014,0.145,0.13,0.261,0.138,0.399c0.007,0.138-0.196,0.268-0.196,0.406
	s0.334,0.283,0.326,0.413c-0.007,0.145,0.036,0.283,0.021,0.42c-0.007,0.138-0.318,0.246-0.333,0.391
	c-0.015,0.138,0.087,0.283,0.072,0.42c0,0.138,0.036,0.275,0.036,0.42c0,0.13,0.269,0.261,0.275,0.406
	c0.008,0.13-0.123,0.268-0.108,0.406c0.015,0.13,0.108,0.247,0.138,0.384c0.021,0.138,0.146,0.225,0.182,0.355
	c0.043,0.13-0.312,0.406-0.247,0.536c0.059,0.124,0.08,0.29,0.16,0.413c0.043,0.073,0.101,0.037,0.087,0.167
	c-0.015,0.102,0.246,0.275,0.225,0.362c-0.036,0.138-0.109,0.253-0.146,0.377c-0.036,0.138,0.087,0.305,0.051,0.435
	c-0.028,0.138-0.13,0.246-0.159,0.377c-0.029,0.138,0,0.275-0.029,0.406c-0.021,0.138-0.181,0.246-0.203,0.384
	c-0.021,0.13,0.088,0.282,0.073,0.42c-0.022,0.138-0.261,0.239-0.275,0.385c-0.015,0.13,0.174,0.282,0.152,0.42
	c-0.008,0.131-0.008,0.275-0.015,0.406c-0.008,0.13,0.043,0.275,0.036,0.405c0,0.146-0.421,0.261-0.421,0.392
	c-0.007,0.138,0.182,0.275,0.174,0.42c0,0.131-0.108,0.269-0.108,0.406c0,0.131-0.087,0.269-0.087,0.406s0.341,0.275,0.341,0.405
	c0,0.138,0.065,0.275,0.072,0.406c0,0.138-0.203,0.275-0.203,0.405c0.008,0.146,0.087,0.275,0.087,0.406
	c0.008,0.145,0.146,0.275,0.146,0.405c0,0.146-0.341,0.29-0.334,0.421c0,0.138,0.131,0.268,0.138,0.405
	c0.008,0.138-0.094,0.275-0.094,0.406c0.007,0.145,0.254,0.275,0.261,0.406c0,0.145-0.094,0.282-0.094,0.42
	c0,0.131-0.073,0.269-0.065,0.406c0,0.145-0.261,0.282-0.269,0.427c0,0.146-0.021,0.283-0.021,0.428
	c-0.007,0.146,0.138,0.29,0.131,0.436c0,0.145-0.16,0.275-0.16,0.42c-0.015,0.145,0.146,0.29,0.146,0.435
	c-0.015,0.146,0.181,0.305,0.174,0.442c0,0.145,0.029,0.29,0.029,0.435c-0.015,0.138,0.021,0.283,0.014,0.428
	c-0.007,0.146-0.239,0.275-0.246,0.421c0,0.138-0.159,0.268-0.167,0.405c-0.007,0.146,0.022,0.283,0.008,0.421
	c-0.008,0.138,0.13,0.289,0.116,0.427c-0.008,0.138,0.159,0.29,0.151,0.428c-0.007,0.138-0.094,0.275-0.108,0.406
	c-0.007,0.145-0.116,0.275-0.131,0.42c-0.007,0.131-0.028,0.275-0.036,0.406c-0.007,0.145-0.246,0.275-0.253,0.42
	c0,0.131,0.348,0.283,0.348,0.421c0,0.145-0.087,0.275-0.087,0.42c0,0.138,0.102,0.275,0.102,0.413
	c0.007,0.138-0.008,0.29-0.015,0.413c-0.015,0.146-0.146,0.261-0.174,0.398c-0.022,0.138,0.094,0.312,0.058,0.442
	c-0.043,0.131-0.442,0.116-0.493,0.246c-0.058,0.116,0.102,0.334,0.029,0.449c-0.058,0.116-0.174,0.203-0.246,0.319
	c-0.072,0.108-0.232,0.152-0.319,0.261c-0.072,0.102,0.044,0.377-0.051,0.479c-0.094,0.102-0.441-0.051-0.536,0.043
	c-0.094,0.102-0.043,0.334-0.138,0.421c-0.102,0.094-0.21,0.174-0.312,0.261c-0.102,0.094-0.152,0.239-0.254,0.333
	c-0.102,0.095-0.246-0.058-0.377-0.051c-0.13,0.008-0.202,0.059-0.333,0.008c-0.116-0.044-0.413,0.188-0.536,0.108
	c-0.102-0.072-0.261-0.159-0.362-0.261c-0.087-0.094-0.029-0.348-0.116-0.457c-0.072-0.115,0.072-0.333,0.008-0.464
	c-0.059-0.115-0.377-0.145-0.413-0.268c-0.029-0.138,0.101-0.297,0.101-0.428c0-0.138,0.029-0.275,0.029-0.413
	s0.174-0.269,0.174-0.413c0-0.131-0.275-0.269-0.275-0.406c0-0.13,0.015-0.268,0.015-0.405s-0.087-0.275-0.087-0.413
	s0.131-0.269,0.131-0.413c0-0.131,0.145-0.269,0.145-0.406c0-0.145-0.246-0.275-0.246-0.413s-0.131-0.268-0.131-0.413
	c0-0.138,0.449-0.268,0.449-0.405c0-0.146-0.217-0.275-0.217-0.413s-0.262-0.269-0.262-0.413c0-0.138,0.247-0.269,0.247-0.406
	c0-0.145-0.188-0.275-0.182-0.413c0-0.138,0.398-0.268,0.398-0.405s-0.492-0.269-0.492-0.413c0-0.138,0.362-0.275,0.362-0.406
	c0-0.138-0.348-0.275-0.348-0.406c0-0.145,0.5-0.275,0.5-0.405c0-0.146-0.362-0.275-0.362-0.413s0.261-0.269,0.268-0.413
	c0-0.131-0.203-0.261-0.203-0.398s0.138-0.269,0.146-0.399c0-0.13,0.079-0.268,0.079-0.405c0-0.131-0.354-0.269-0.354-0.406
	c0-0.13-0.059-0.261-0.051-0.391c0-0.138,0.282-0.269,0.282-0.399c0-0.138-0.115-0.268-0.115-0.398c0-0.138-0.102-0.268-0.102-0.405
	c0-0.131-0.044-0.262-0.044-0.399s0.131-0.268,0.123-0.398c0-0.13-0.028-0.268-0.028-0.405c0-0.131,0.369-0.269,0.369-0.406
	c-0.007-0.13-0.369-0.246-0.377-0.384c0-0.138,0.152-0.29,0.146-0.428c-0.008-0.138-0.044-0.282-0.051-0.42
	c-0.008-0.146,0.014-0.283,0-0.428c-0.008-0.138,0.151-0.298,0.138-0.442c-0.022-0.131-0.319-0.246-0.326-0.392
	c-0.015-0.138,0.239-0.304,0.225-0.441s-0.247-0.262-0.261-0.399c-0.008-0.145-0.131-0.275-0.146-0.42
	c0-0.138,0.326-0.29,0.326-0.435c-0.007-0.131-0.108-0.275-0.108-0.413c0.007-0.138-0.29-0.305-0.275-0.442s0.217-0.261,0.239-0.398
	c0.021-0.138,0.036-0.283,0.058-0.413c0.029-0.146-0.065-0.305-0.029-0.442c0.022-0.138,0.334-0.217,0.362-0.354
	c0.022-0.146-0.159-0.319-0.138-0.457c0.029-0.138,0.283-0.247,0.298-0.384s-0.196-0.297-0.188-0.442
	c0.007-0.145-0.152-0.268-0.16-0.42c-0.007-0.145,0.109-0.297,0.088-0.442c-0.022-0.145,0.064-0.312,0.036-0.457
	c-0.029-0.145-0.275-0.247-0.298-0.384c-0.028-0.145,0.124-0.333,0.109-0.478c-0.029-0.145-0.218-0.275-0.232-0.42
	c-0.015-0.13,0.385-0.29,0.377-0.413c-0.015-0.13-0.043-0.254-0.058-0.384c0-0.13-0.442-0.247-0.442-0.377
	c-0.007-0.13,0.406-0.261,0.413-0.391c0-0.124,0.029-0.247,0.044-0.377c0.007-0.13-0.087-0.254-0.073-0.377
	c0.015-0.13,0.059-0.246,0.08-0.377c0.021-0.145-0.297-0.326-0.282-0.449c0.028-0.145,0.464-0.225,0.471-0.333
	c0.007-0.159-0.312-0.21-0.377-0.297c-0.065-0.094-0.007-0.471-0.167-0.5c-0.102-0.022-0.289,0.384-0.435,0.377
	c-0.116,0-0.239,0.007-0.384,0.007c-0.138,0-0.283-0.065-0.413-0.065c-0.146,0-0.275-0.116-0.421-0.116
	c-0.138,0-0.275,0.116-0.42,0.116c-0.131,0-0.275-0.305-0.413-0.305s-0.275,0.319-0.413,0.319c-0.146,0-0.275-0.232-0.421-0.232
	c-0.137,0-0.275-0.043-0.412-0.043c-0.139,0-0.283,0-0.414,0c-0.145,0-0.282,0.391-0.42,0.391s-0.275-0.087-0.42-0.087
	c-0.131,0-0.275,0.029-0.413,0.029s-0.275,0.043-0.413,0.043c-0.146,0-0.275-0.398-0.421-0.398c-0.138,0-0.275-0.022-0.413-0.022
	s-0.282,0.363-0.413,0.363c-0.145,0-0.282,0.014-0.42,0.014s-0.275,0.029-0.421,0.029c-0.13,0-0.275-0.043-0.413-0.043
	s-0.275,0.058-0.413,0.058c-0.145,0-0.275-0.072-0.42-0.072c-0.138,0-0.275-0.362-0.413-0.362s-0.282,0.319-0.413,0.319
	c-0.145,0-0.283,0.087-0.42,0.087c-0.139,0-0.275-0.188-0.421-0.188c-0.131,0-0.231,0.072-0.369,0.072
	C28.653,20.618,28.566,20.539,28.566,20.618z M15.073,12.11c-0.015,0.152,0.043,0.362,0.029,0.507
	c-0.015,0.16-0.13,0.297-0.145,0.435c-0.015,0.16,0.13,0.319,0.116,0.464c-0.015,0.152-0.203,0.275-0.225,0.413
	c-0.022,0.152-0.131,0.268-0.167,0.413c-0.029,0.13-0.015,0.275-0.043,0.406c-0.029,0.145-0.167,0.261-0.188,0.384
	c-0.014,0.138,0.043,0.297,0.029,0.427c-0.015,0.145,0.101,0.305,0.094,0.428c-0.007,0.145,0.282,0.261,0.297,0.392
	c0.015,0.138-0.13,0.282-0.102,0.398c0.043,0.13,0.13,0.217,0.203,0.326c0.072,0.108-0.029,0.427,0.08,0.515
	c0.102,0.072,0.326,0.007,0.457,0.058c0.116,0.051,0.261,0.08,0.392,0.116c0.13,0.029,0.246,0.174,0.384,0.188
	c0.124,0.029,0.268-0.007,0.413,0.007c0.124,0.007,0.254,0.181,0.399,0.188c0.123,0.007,0.268,0.007,0.413,0.007
	c0.145,0.007,0.29-0.37,0.435-0.37c0.138,0,0.29,0.261,0.428,0.254c0.138,0,0.275-0.094,0.42-0.102c0.138,0,0.283,0.051,0.427,0.043
	c0.138-0.015,0.29,0.058,0.435,0.051c0.13-0.007,0.247-0.326,0.391-0.341c0.131-0.014,0.283,0.065,0.428,0.058
	c0.138-0.015,0.297,0.08,0.428,0.058c0.145-0.015,0.246-0.384,0.384-0.406c0.138-0.015,0.283,0.043,0.428,0.029
	c0.138-0.015,0.275-0.08,0.413-0.087c0.138-0.015,0.312,0.247,0.449,0.232s0.269-0.138,0.413-0.145
	c0.138-0.015,0.29,0.102,0.42,0.094c0.145-0.007,0.275-0.326,0.42-0.326c0.138-0.007,0.29,0.326,0.428,0.326s0.283-0.08,0.42-0.072
	c0.138,0.007,0.297-0.131,0.435-0.124c0.138,0.015,0.261,0.232,0.406,0.247c0.138,0.015,0.297-0.174,0.428-0.16
	c0.145,0.015,0.253,0.239,0.391,0.261c0.145,0.014,0.305-0.247,0.435-0.232c0.145,0.014,0.275,0.072,0.406,0.087
	c0.145,0.007,0.275,0.065,0.406,0.072c0.145,0.015,0.283-0.043,0.421-0.029c0.138,0.007,0.268,0.116,0.405,0.123
	s0.275,0.109,0.406,0.124c0.145,0,0.282-0.087,0.42-0.087s0.275,0.073,0.421,0.073c0.13,0,0.268-0.152,0.405-0.16
	c0.131,0,0.261-0.072,0.406-0.087c0.13-0.007,0.282,0.174,0.42,0.167c0.146-0.022,0.305,0.174,0.449,0.152
	c0.131-0.021,0.225-0.319,0.362-0.333c0.131-0.029,0.349,0.275,0.479,0.239c0.131-0.036,0.218-0.304,0.348-0.34
	c0.131-0.043,0.262-0.065,0.399-0.109s0.312,0.051,0.441,0c0.131-0.051,0.131-0.42,0.261-0.471c0.131-0.058,0.413,0.131,0.58,0.145
	c0.131,0.007,0.269-0.072,0.406-0.072c0.13,0.014,0.253,0.181,0.391,0.188c0.131,0.014,0.269-0.087,0.406-0.073
	c0.131,0.015,0.246,0.203,0.377,0.218c0.13,0,0.29-0.247,0.42-0.232c0.131,0.014,0.254,0.145,0.392,0.152
	c0.131,0.007,0.246,0.254,0.377,0.261c0.138,0.007,0.261,0.094,0.398,0.094c0.138,0.007,0.269-0.116,0.406-0.116
	c0.138,0.007,0.282-0.319,0.413-0.319c0.13,0.007,0.253,0.362,0.391,0.362c0.131,0.007,0.262,0.043,0.392,0.043
	c0.138,0,0.275-0.188,0.406-0.188c0.123,0,0.318-0.029,0.471-0.152c0.116-0.102,0.182-0.283,0.275-0.413
	c0.102-0.145,0.355-0.283,0.37-0.413c0.021-0.138-0.377-0.326-0.362-0.457c0.007-0.145,0.13-0.275,0.13-0.406
	c0.008-0.145,0.174-0.283,0.174-0.42s0.029-0.282,0.029-0.42c-0.015-0.138-0.275-0.275-0.275-0.42c0-0.13-0.072-0.275-0.072-0.42
	c0-0.138,0.391-0.275,0.398-0.413c0.007-0.145-0.283-0.247-0.305-0.355c-0.029-0.145,0.254-0.435,0.182-0.522
	c-0.073-0.116-0.406,0.015-0.522-0.036c-0.108-0.051-0.202-0.145-0.333-0.16c-0.123-0.007-0.261-0.072-0.392-0.058
	c-0.145,0.007-0.261,0.312-0.398,0.326c-0.138,0.015-0.282-0.036-0.428-0.014c-0.138,0.014-0.326-0.355-0.464-0.341
	c-0.138,0.015-0.275,0.087-0.42,0.094c-0.131,0.015-0.246,0.392-0.384,0.406c-0.138,0.015-0.298-0.159-0.442-0.159
	c-0.131,0.007-0.275-0.029-0.413-0.022s-0.269,0.073-0.413,0.08c-0.138,0.007-0.261,0.246-0.406,0.253
	c-0.138,0.007-0.29-0.283-0.42-0.268c-0.146,0-0.275,0.102-0.413,0.102c-0.138,0.007-0.283-0.029-0.413-0.022
	c-0.146,0.007-0.275,0.225-0.406,0.225c-0.145,0.007-0.29-0.283-0.435-0.275c-0.131,0-0.269,0.145-0.406,0.16
	c-0.145,0-0.275,0.116-0.413,0.13c-0.138,0-0.297-0.406-0.427-0.398c-0.146,0.007-0.262,0.442-0.406,0.442
	c-0.138,0.007-0.29-0.297-0.42-0.29c-0.146,0-0.275,0.073-0.421,0.087c-0.13,0-0.275-0.014-0.413-0.014
	c-0.138,0.014-0.282-0.174-0.428-0.167c-0.138,0.007-0.275,0.16-0.405,0.167c-0.146,0-0.261,0.362-0.406,0.376
	c-0.138,0-0.29-0.231-0.42-0.217c-0.146,0-0.225,0.261-0.362,0.305c-0.138,0.029-0.377-0.283-0.508-0.239
	c-0.145,0.043-0.29-0.022-0.42,0.007c-0.138,0.036-0.225,0.21-0.362,0.203c-0.145,0-0.268-0.145-0.413-0.167
	c-0.145-0.022-0.312,0.123-0.442,0.094c-0.145-0.029-0.283-0.094-0.42-0.13c-0.145-0.029-0.348,0.203-0.478,0.174
	c-0.145-0.029-0.283-0.058-0.42-0.08c-0.145-0.029-0.254-0.225-0.399-0.239c-0.138-0.015-0.282-0.058-0.413-0.073
	c-0.145-0.014-0.304,0.181-0.442,0.167c-0.138-0.007-0.253-0.326-0.398-0.341c-0.13-0.015-0.29,0.138-0.435,0.123
	c-0.138-0.007-0.29,0.029-0.42,0.015c-0.145-0.015-0.29,0.065-0.435,0.051c-0.138-0.007-0.275,0-0.42-0.007
	c-0.138-0.007-0.247-0.427-0.392-0.435c-0.13-0.007-0.304,0.348-0.449,0.34c-0.145-0.014-0.253-0.391-0.391-0.406
	s-0.29,0.058-0.428,0.043c-0.138-0.007-0.268-0.152-0.413-0.159c-0.13-0.015-0.319,0.464-0.457,0.449s-0.254-0.348-0.398-0.355
	c-0.131-0.015-0.269-0.145-0.406-0.152c-0.138-0.015-0.304,0.232-0.442,0.217c-0.145-0.007-0.297,0.16-0.442,0.145
	s-0.232-0.522-0.377-0.536c-0.145-0.007-0.304,0.246-0.449,0.232c-0.145-0.007-0.305,0.145-0.449,0.145
	c-0.152,0-0.305-0.29-0.45-0.282C15.428,12.045,15.217,12.11,15.073,12.11z M51.425,6.051c-0.131,0.043-0.29,0.174-0.392,0.203
	c-0.123,0.036-0.261-0.022-0.377,0.015c-0.131,0.043-0.21,0.239-0.341,0.283c-0.138,0.043-0.312-0.08-0.449-0.044
	c-0.138,0.044-0.29,0.007-0.42,0.044c-0.138,0.043-0.254,0.123-0.385,0.159c-0.13,0.036-0.304-0.029-0.435,0.007
	s-0.239,0.159-0.377,0.196c-0.13,0.036-0.225,0.203-0.362,0.239c-0.13,0.037-0.203,0.348-0.333,0.377
	c-0.131,0.036-0.319-0.102-0.449-0.058c-0.131,0.037-0.262,0.102-0.392,0.138c-0.131,0.037-0.348-0.239-0.479-0.195
	c-0.138,0.029-0.231,0.232-0.362,0.253c-0.138,0.036-0.275,0.08-0.406,0.109c-0.13,0.036-0.289-0.051-0.435-0.015
	c-0.13,0.029-0.261,0.102-0.392,0.13c-0.13,0.029-0.304-0.087-0.435-0.065c-0.138,0.029-0.268,0.065-0.405,0.094
	c-0.146,0.029-0.203,0.42-0.341,0.449s-0.319-0.203-0.457-0.181c-0.138,0.029-0.261,0.138-0.391,0.167
	c-0.146,0.022-0.29-0.021-0.421,0c-0.145,0.022-0.29-0.036-0.435-0.014c-0.138,0.021-0.218,0.348-0.362,0.362
	c-0.138,0.029-0.29-0.058-0.421-0.029c-0.145,0.015-0.289-0.072-0.435-0.051c-0.13,0.022-0.218,0.399-0.362,0.413
	c-0.138,0.022-0.29-0.029-0.42-0.014c-0.138,0.021-0.275,0.087-0.406,0.101c-0.138,0.015-0.305-0.239-0.449-0.225
	c-0.138,0.022-0.261,0.152-0.398,0.167c-0.138,0.014-0.283-0.087-0.428-0.073c-0.138,0.007-0.246,0.341-0.377,0.355
	c-0.138,0.014-0.312-0.297-0.449-0.283c-0.138,0.014-0.261,0.102-0.406,0.116c-0.138,0.015-0.261,0.174-0.398,0.188
	s-0.297-0.181-0.428-0.174c-0.145,0.015-0.268,0.239-0.405,0.247c-0.138,0.007-0.29-0.188-0.436-0.182
	c-0.138,0.007-0.261,0.29-0.398,0.297c-0.138,0.015-0.282-0.015-0.42-0.015c-0.138,0.015-0.283-0.029-0.421-0.014
	c-0.138,0-0.268,0.08-0.413,0.087c-0.138,0-0.282-0.087-0.42-0.087c-0.138,0.007-0.275-0.087-0.42-0.087
	c-0.131,0.007-0.269,0.101-0.406,0.101c-0.131,0.007-0.275-0.058-0.406-0.058c-0.145,0.007-0.275,0.145-0.413,0.152
	c-0.138,0-0.268,0.065-0.413,0.065c-0.13,0-0.275-0.196-0.405-0.196c-0.146,0-0.275-0.21-0.413-0.21s-0.283,0.268-0.413,0.268
	c-0.138,0-0.261-0.333-0.406-0.333c-0.138,0-0.275,0.239-0.413,0.239c-0.138-0.007-0.268-0.015-0.413-0.022
	c-0.138-0.007-0.261-0.152-0.405-0.152c-0.138-0.007-0.283,0.34-0.42,0.333c-0.138,0-0.269-0.138-0.406-0.145
	c-0.138,0-0.275,0.08-0.42,0.072c-0.131,0-0.261-0.167-0.406-0.174c-0.13-0.015-0.275,0.087-0.406,0.08
	c-0.145-0.007-0.268-0.203-0.406-0.21c-0.138,0-0.29,0.246-0.42,0.239c-0.13-0.007-0.268-0.145-0.406-0.152
	c-0.138,0-0.261-0.254-0.391-0.261c-0.145,0-0.275-0.087-0.406-0.101c-0.145-0.007-0.29,0.116-0.42,0.116
	c-0.138-0.015-0.29,0.319-0.435,0.304c-0.138-0.007-0.247-0.362-0.391-0.369c-0.131-0.007-0.269-0.058-0.406-0.065
	c-0.13-0.015-0.282,0.174-0.42,0.167c-0.131-0.007-0.261-0.094-0.406-0.108c-0.13-0.015-0.275,0.043-0.413,0.036
	s-0.261-0.188-0.398-0.196c-0.145-0.015-0.304,0.384-0.435,0.377c-0.145-0.007-0.275-0.13-0.406-0.13
	c-0.138-0.015-0.261-0.188-0.398-0.203c-0.138-0.007-0.283-0.036-0.413-0.043C19,8.849,18.841,9.095,18.704,9.088
	s-0.283,0.051-0.42,0.036c-0.138-0.014-0.239-0.42-0.384-0.435c-0.13-0.007-0.304,0.247-0.435,0.232
	c-0.145-0.015-0.239-0.406-0.377-0.428c-0.138-0.014-0.319,0.29-0.449,0.275c-0.138-0.021-0.261-0.108-0.406-0.123
	c-0.138-0.015-0.261-0.087-0.406-0.116c-0.138-0.014-0.319,0.247-0.449,0.232c-0.145-0.029-0.268-0.116-0.406-0.13
	c-0.145-0.029-0.21-0.435-0.348-0.449c-0.145-0.022-0.282,0-0.42-0.022c-0.138-0.029-0.341,0.312-0.479,0.283
	c-0.138-0.029-0.232-0.232-0.377-0.268c-0.13-0.021-0.261-0.102-0.391-0.123c-0.138-0.036-0.29-0.015-0.428-0.036
	c-0.13-0.037-0.326,0.159-0.457,0.123c-0.13-0.029-0.203-0.348-0.333-0.377c-0.138-0.036-0.297,0.015-0.435-0.029
	c-0.13-0.029-0.261-0.102-0.392-0.138s-0.326,0.123-0.464,0.08c-0.13-0.043-0.174-0.362-0.312-0.406
	c-0.13-0.043-0.312,0.051-0.435,0C9.565,7.226,9.405,7.291,9.268,7.247c-0.13-0.043-0.123-0.485-0.253-0.529
	C8.883,6.675,8.608,7.022,8.478,6.979s-0.152-0.391-0.29-0.435C8.064,6.494,7.912,6.501,7.782,6.45S7.528,6.327,7.405,6.276
	C7.274,6.226,7.217,5.994,7.101,5.936C6.97,5.885,6.789,5.964,6.659,5.907C6.535,5.841,6.26,6.109,6.129,6.044
	c-0.13-0.058-0.145-0.341-0.275-0.399c-0.116-0.058-0.275,0.145-0.413,0.13c-0.123-0.014-0.232-0.391-0.37-0.391
	c-0.123,0.015-0.268-0.087-0.398-0.08c-0.13,0.007-0.312,0.21-0.442,0.203C4.26,5.646,4.144,5.87,4.158,6.015
	C4.188,6.153,4.361,6.283,4.39,6.428c0.015,0.145,0.007,0.305,0.043,0.435c0.029,0.145,0.319,0.217,0.37,0.348
	c0.051,0.138,0.08,0.232,0.167,0.348c0.072,0.101,0,0.29,0.101,0.376C5.173,8.016,5.26,8.11,5.376,8.175
	c0.102,0.058,0.304-0.08,0.42-0.021c0.123,0.043,0.13,0.376,0.246,0.42c0.13,0.044,0.305-0.072,0.42-0.029
	c0.13,0.043,0.275,0.029,0.398,0.073c0.131,0.043,0.283,0,0.413,0.05c0.131,0.037,0.261,0.065,0.392,0.109
	C7.789,8.82,7.782,9.24,7.912,9.284c0.131,0.043,0.377-0.261,0.507-0.217C8.543,9.11,8.55,9.501,8.681,9.544
	c0.123,0.043,0.275,0.015,0.406,0.058s0.217,0.21,0.348,0.254C9.558,9.9,9.84,9.472,9.963,9.516s0.159,0.391,0.283,0.435
	c0.13,0.029,0.232,0.196,0.362,0.232c0.13,0.037,0.333-0.174,0.464-0.145c0.123,0.029,0.29-0.102,0.427-0.073
	c0.138,0.029,0.152,0.551,0.283,0.58c0.13,0.029,0.319-0.203,0.449-0.174c0.138,0.029,0.29-0.116,0.428-0.094
	c0.138,0.022,0.225,0.326,0.362,0.348c0.138,0.021,0.297-0.124,0.428-0.109c0.145,0.022,0.261,0.13,0.398,0.152
	c0.138,0.021,0.254,0.174,0.392,0.196c0.138,0.021,0.312-0.239,0.442-0.225c0.138,0.021,0.254,0.225,0.392,0.239
	c0.138,0.015,0.261,0.13,0.398,0.145s0.326-0.377,0.464-0.362s0.225,0.449,0.355,0.464c0.145,0.015,0.29-0.102,0.428-0.087
	s0.268,0.094,0.406,0.108c0.138,0.022,0.283-0.065,0.428-0.05c0.13,0.021,0.283-0.102,0.42-0.08
	c0.145,0.015,0.261,0.124,0.406,0.138c0.13,0.022,0.246,0.247,0.384,0.254s0.312-0.37,0.457-0.355
	c0.138,0.014,0.261,0.174,0.392,0.188c0.13,0.007,0.29-0.05,0.42-0.029c0.145,0.015,0.253,0.239,0.391,0.261
	c0.145,0.015,0.275,0.007,0.42,0.022c0.138,0.015,0.275-0.022,0.413-0.015c0.138,0.015,0.283-0.051,0.428-0.036
	c0.13,0.015,0.275,0,0.406,0.015c0.145,0.021,0.261,0.261,0.391,0.275c0.145,0.014,0.312-0.319,0.45-0.305
	c0.145,0.015,0.246,0.348,0.376,0.362c0.145,0.015,0.283,0.007,0.42,0.015c0.138,0.015,0.29-0.174,0.435-0.159
	c0.138,0.014,0.29-0.087,0.42-0.073c0.116,0.015,0.195,0.116,0.326,0.087c0.116-0.014,0.326,0.283,0.442,0.247
	c0.123-0.043,0.116-0.522,0.239-0.551c0.123-0.029,0.326,0.247,0.442,0.239c0.13-0.007,0.319-0.218,0.428-0.167
	c0.123,0.065,0.196,0.225,0.312,0.268c0.13,0.051,0.188,0.355,0.319,0.384c0.13,0.036,0.333-0.239,0.471-0.217
	c0.13,0.021,0.239,0.239,0.377,0.247c0.138,0.014,0.282-0.29,0.413-0.29c0.138,0,0.275,0.159,0.405,0.145
	c0.138,0,0.262-0.145,0.399-0.16c0.138-0.007,0.297,0.232,0.427,0.21c0.131-0.015,0.247-0.196,0.385-0.21s0.297,0.203,0.428,0.188
	c0.13-0.015,0.261,0.022,0.405,0.015c0.131-0.015,0.283,0.036,0.413,0.029c0.138-0.021,0.232-0.377,0.37-0.391
	c0.13-0.015,0.261-0.065,0.391-0.087c0.131-0.014,0.262-0.014,0.399-0.029c0.138-0.029,0.253-0.145,0.384-0.174
	c0.13-0.015,0.261-0.043,0.392-0.073c0.138-0.014,0.261-0.072,0.398-0.094c0.138-0.015,0.268-0.037,0.405-0.051
	c0.138-0.015,0.298,0.275,0.428,0.261c0.138-0.007,0.261-0.167,0.392-0.174c0.145,0,0.275,0.087,0.42,0.087
	c0.138,0.007,0.261,0.102,0.406,0.116c0.138,0.007,0.282-0.094,0.42-0.08c0.138,0.022,0.261,0.16,0.399,0.181
	c0.137,0.015,0.304-0.253,0.441-0.247c0.131,0.015,0.261,0.247,0.392,0.247c0.138,0.007,0.275-0.13,0.42-0.13
	c0.131,0,0.262-0.08,0.392-0.102c0.146-0.015,0.319,0.261,0.449,0.254c0.146-0.015,0.261-0.225,0.398-0.239
	c0.138-0.022,0.283-0.029,0.413-0.043c0.146-0.015,0.305,0.145,0.442,0.13s0.297,0.058,0.428,0.043
	c0.145-0.029,0.225-0.435,0.362-0.457c0.138-0.022,0.282,0.007,0.42-0.015c0.138-0.021,0.319,0.181,0.45,0.16
	c0.137-0.022,0.282-0.007,0.42-0.036c0.138-0.015,0.231-0.261,0.377-0.283c0.138-0.029,0.333,0.239,0.464,0.217
	c0.138-0.022,0.188-0.485,0.318-0.515c0.146-0.029,0.29-0.015,0.421-0.043c0.138-0.029,0.312,0.116,0.449,0.094
	c0.138-0.029,0.29,0,0.42-0.036c0.138-0.029,0.29,0.015,0.428-0.015c0.138-0.029,0.225-0.253,0.362-0.29
	c0.138-0.029,0.326,0.131,0.457,0.094c0.13-0.036,0.195-0.348,0.333-0.384c0.131-0.029,0.246-0.16,0.377-0.188
	c0.138-0.043,0.362,0.268,0.5,0.232c0.131-0.036,0.254-0.116,0.384-0.16c0.138-0.029,0.275-0.072,0.406-0.116
	c0.138-0.036,0.29-0.029,0.42-0.073c0.131-0.043,0.261-0.101,0.392-0.138c0.138-0.043,0.305,0.037,0.442-0.007
	s0.254-0.145,0.384-0.188c0.131-0.043,0.275-0.058,0.406-0.109c0.13-0.043,0.138-0.457,0.275-0.5c0.13-0.051,0.231-0.16,0.362-0.203
	c0.145-0.051,0.261-0.072,0.377-0.13c0.138-0.065,0.348,0.073,0.449,0.015c0.13-0.087,0.29-0.138,0.362-0.232
	c0.094-0.109,0.072-0.275,0.108-0.42c0.036-0.116-0.108-0.247-0.108-0.391c-0.008-0.124,0.116-0.261,0.102-0.406
	c-0.022-0.123-0.232-0.21-0.269-0.348C51.243,6.472,51.468,6.196,51.425,6.051z M41.365,30.337c-0.102,0-0.13,0.065-0.231,0.065
	c0,0.13-0.102,0.268-0.102,0.405s0.159,0.275,0.159,0.406c0,0.145-0.182,0.282-0.182,0.42c0,0.131-0.079,0.275-0.079,0.406
	c0,0.138,0.043,0.275,0.043,0.413c0,0.13-0.115,0.275-0.115,0.413c0,0.13,0.087,0.275,0.087,0.405c0,0.146,0.13,0.275,0.13,0.413
	s0.275,0.275,0.275,0.413c0,0.131-0.166,0.275-0.166,0.406s0.036,0.275,0.036,0.413s-0.305,0.282-0.305,0.413
	c0,0.138,0.159,0.275,0.159,0.406c0,0.138,0.015,0.275,0.015,0.413s-0.116,0.282-0.116,0.413c0,0.138,0.044,0.275,0.044,0.405
	c0,0.138-0.146,0.283-0.146,0.413c0,0.138,0.008,0.283,0.008,0.413c0,0.131,0.377,0.275,0.377,0.406c0,0.138-0.261,0.282-0.261,0.42
	c0,0.131,0.087,0.275,0.087,0.406c0,0.13-0.065,0.275-0.065,0.405c0,0.138-0.087,0.283-0.087,0.421c0,0.13,0.305,0.275,0.305,0.405
	c0,0.131-0.102,0.275-0.102,0.413c0,0.131-0.116,0.275-0.116,0.413c0,0.131,0.362,0.275,0.362,0.406
	c0,0.145-0.072,0.275-0.072,0.413s0.051,0.275,0.051,0.413s-0.275,0.275-0.275,0.406c0,0.145,0.115,0.275,0.115,0.413
	s-0.123,0.282-0.123,0.413c0,0.13,0.319,0.275,0.319,0.405c0,0.138-0.334,0.275-0.334,0.413s0.08,0.283,0.08,0.413
	c0,0.131,0.152,0.275,0.152,0.406c0,0.145-0.21,0.282-0.21,0.42s0.21,0.283,0.21,0.421c0,0.145-0.218,0.275-0.218,0.42
	c0,0.131,0.275,0.275,0.275,0.413s-0.043,0.282-0.043,0.413c0.007,0.145-0.029,0.282-0.029,0.42
	c0.007,0.138,0.087,0.275,0.087,0.406c0.015,0.138-0.043,0.261,0.044,0.42c0.094,0.16,0.13,0.341,0.246,0.37
	s0.246-0.095,0.413-0.182c0.152-0.079,0.318-0.13,0.384-0.246c0.073-0.123,0.015-0.318,0.087-0.449
	c0.073-0.131,0.087-0.282,0.16-0.406c0.072-0.13,0.304-0.174,0.377-0.304c0.058-0.131,0.318-0.188,0.369-0.326
	s-0.159-0.37-0.123-0.508c0.043-0.138,0.392-0.239,0.405-0.384c0.015-0.145-0.217-0.305-0.202-0.442
	c0.007-0.138,0.021-0.275,0.028-0.413c0.015-0.145,0.16-0.275,0.174-0.413c0-0.138-0.34-0.297-0.333-0.428
	c0-0.145,0.138-0.275,0.138-0.42c0.007-0.131-0.087-0.275-0.08-0.413c0-0.138,0.16-0.269,0.16-0.413
	c0-0.131-0.102-0.275-0.102-0.413s0.195-0.275,0.195-0.413c0-0.145-0.254-0.275-0.254-0.42c0-0.138,0.131-0.275,0.131-0.413
	s0.231-0.283,0.231-0.413c0-0.146,0.088-0.283,0.088-0.421c0-0.145-0.138-0.275-0.138-0.42c0-0.131-0.334-0.275-0.326-0.421
	c0-0.138,0.354-0.275,0.354-0.405c0.008-0.146,0.051-0.275,0.051-0.421c0-0.138-0.188-0.282-0.181-0.42
	c0.007-0.138,0.094-0.275,0.102-0.413c0.007-0.138-0.051-0.283-0.037-0.421c0.015-0.138,0.188-0.261,0.211-0.398
	c0.007-0.145-0.385-0.318-0.377-0.456c0.007-0.131,0.138-0.254,0.145-0.385c0.008-0.13,0.196-0.253,0.196-0.391
	c0.014-0.131,0.043-0.262,0.058-0.399c0-0.13-0.246-0.275-0.246-0.413c0.014-0.13-0.059-0.261-0.059-0.391
	c0.008-0.138,0.406-0.261,0.406-0.392c0-0.138-0.269-0.275-0.269-0.406c0-0.138,0.385-0.268,0.385-0.405
	c0-0.131-0.319-0.261-0.319-0.398s0.072-0.269,0.072-0.399c0-0.13,0.044-0.268,0.044-0.405c0-0.131-0.29-0.261-0.29-0.392
	c0-0.13,0.058-0.261,0.058-0.398s0.392-0.269,0.392-0.406s-0.072-0.282-0.087-0.405c-0.007-0.123-0.392-0.21-0.413-0.348
	c-0.021-0.124,0.138-0.283,0.116-0.413c-0.022-0.131,0-0.269-0.022-0.399c-0.021-0.13-0.094-0.253-0.115-0.384
	c-0.015-0.13-0.247-0.261-0.261-0.392c0-0.13,0.289-0.261,0.304-0.398c0.015-0.13-0.058-0.275-0.043-0.413
	c0.015-0.13,0.058-0.261,0.072-0.391c0.015-0.138-0.182-0.29-0.174-0.428c0.015-0.138,0.326-0.239,0.333-0.376
	c0.015-0.138-0.116-0.283-0.102-0.413c0.015-0.138-0.087-0.283-0.072-0.42c0.015-0.13,0.435-0.232,0.442-0.37
	c0.007-0.13-0.406-0.305-0.398-0.435c0.014-0.138,0.333-0.246,0.348-0.384c0.007-0.131-0.051-0.275-0.044-0.406
	c0.015-0.13,0.044-0.268,0.051-0.406c0.008-0.13,0.21-0.261,0.21-0.391c0.015-0.138-0.13-0.283-0.115-0.42
	c0-0.13-0.349-0.283-0.334-0.42c0-0.13,0.247-0.261,0.247-0.398c0.014-0.138-0.232-0.268-0.232-0.413
	c0-0.13,0.377-0.261,0.377-0.406c0-0.131,0.102-0.269,0.102-0.406c0-0.13-0.167-0.268-0.174-0.406c0-0.13,0.123-0.275,0.116-0.413
	c0-0.13-0.175-0.261-0.188-0.398c0-0.13,0.021-0.275,0.014-0.406c-0.014-0.13-0.297-0.247-0.304-0.377
	c-0.015-0.13-0.029-0.268-0.036-0.406c-0.015-0.13,0.152-0.29,0.138-0.42c-0.022-0.13,0-0.268-0.029-0.406
	c-0.015-0.13-0.246-0.232-0.261-0.362c-0.029-0.138,0.254-0.319,0.231-0.457c-0.028-0.109-0.138-0.225-0.079-0.355
	c0.051-0.108,0.058-0.232,0.087-0.348c0.021-0.102-0.008-0.261,0.021-0.377c0.044-0.159,0.094-0.102,0.036-0.159
	c-0.102-0.102,0.138-0.45,0.065-0.551c-0.072-0.131-0.464-0.102-0.493-0.218c-0.036-0.13,0.305-0.304,0.319-0.435
	c0-0.13-0.059-0.247-0.029-0.37c0.036-0.124,0.203-0.188,0.246-0.312c0.051-0.116-0.348-0.435-0.289-0.558
	c0.058-0.124,0.405-0.109,0.464-0.232c0.064-0.152,0.231-0.261,0.268-0.384c0.036-0.159-0.195-0.348-0.203-0.478
	c-0.007-0.16-0.181-0.145-0.275-0.254c-0.079-0.094,0.065-0.58-0.094-0.63c-0.116-0.043-0.341,0.174-0.5,0.167
	c-0.138-0.007-0.269,0.152-0.428,0.167c-0.159,0.014-0.348-0.247-0.479-0.225c-0.159,0.037-0.246,0.247-0.362,0.312
	c-0.138,0.072-0.305,0.101-0.392,0.21s-0.297,0.21-0.348,0.355c-0.043,0.131,0.203,0.348,0.188,0.5
	c-0.015,0.138-0.203,0.269-0.203,0.428c0,0.145-0.094,0.283-0.087,0.42c0,0.13,0.421,0.268,0.421,0.406
	c0,0.145-0.421,0.275-0.421,0.42c0,0.13,0.146,0.268,0.146,0.406c0,0.145-0.059,0.275-0.059,0.413s0.095,0.268,0.095,0.413
	c0,0.138,0.138,0.268,0.138,0.406c0,0.145-0.102,0.275-0.102,0.413s-0.203,0.283-0.203,0.413c0,0.138,0.406,0.275,0.406,0.406
	c0,0.145-0.146,0.275-0.146,0.413s0.072,0.268,0.072,0.413c0,0.138-0.217,0.275-0.217,0.406c0,0.145,0.015,0.275,0.015,0.42
	c0,0.13,0.058,0.268,0.058,0.406s0.08,0.275,0.08,0.406c0,0.145,0.021,0.275,0.021,0.42c0,0.13-0.232,0.268-0.232,0.406
	s0.349,0.275,0.349,0.413s-0.319,0.268-0.319,0.413c0,0.13,0.015,0.268,0.015,0.406c0,0.145,0.203,0.275,0.203,0.413
	s0.116,0.268,0.116,0.413c0,0.13-0.109,0.268-0.109,0.406c0,0.145-0.341,0.275-0.341,0.413s0.464,0.268,0.464,0.413
	c0,0.138-0.326,0.268-0.326,0.406c0,0.145,0.239,0.275,0.239,0.413s-0.115,0.269-0.123,0.413c0,0.138-0.268,0.275-0.268,0.406
	c0,0.145,0.312,0.275,0.304,0.413c0,0.138-0.203,0.275-0.203,0.413s0.305,0.275,0.305,0.406c0,0.145-0.145,0.275-0.145,0.42
	c0,0.13,0.13,0.268,0.13,0.406s-0.246,0.275-0.246,0.406c0,0.145,0.159,0.275,0.159,0.42c-0.015,0.131-0.239,0.269-0.239,0.406
	s-0.051,0.275-0.051,0.413s-0.058,0.269-0.058,0.413C41.177,30.119,41.365,30.199,41.365,30.337z M10.956,26.764
	c0.145,0,0.37-0.072,0.522-0.072c0,0.13-0.102,0.275-0.102,0.406c0,0.145,0.16,0.275,0.16,0.413s-0.181,0.268-0.181,0.413
	c0,0.138-0.08,0.268-0.08,0.406c0,0.146,0.043,0.275,0.043,0.413s-0.116,0.269-0.116,0.413c0,0.138,0.087,0.275,0.087,0.406
	c0,0.145,0.13,0.275,0.13,0.413s0.275,0.268,0.275,0.413c0,0.138-0.174,0.275-0.174,0.405c0,0.146,0.043,0.275,0.043,0.413
	s-0.312,0.275-0.312,0.413s0.167,0.275,0.167,0.406c0,0.145,0.015,0.275,0.015,0.42c0,0.131-0.116,0.269-0.116,0.406
	s0.043,0.275,0.043,0.406c0,0.145-0.145,0.275-0.145,0.42c0,0.131,0.007,0.269,0.007,0.406c0,0.145,0.377,0.275,0.377,0.413
	s-0.261,0.268-0.261,0.413c0,0.13,0.087,0.268,0.087,0.405c0,0.146-0.065,0.275-0.065,0.413s-0.087,0.269-0.087,0.413
	c0,0.138,0.305,0.269,0.305,0.406c0,0.145-0.102,0.275-0.102,0.413s-0.116,0.268-0.116,0.413c0,0.138,0.363,0.275,0.363,0.405
	c0,0.146-0.073,0.275-0.073,0.413s0.051,0.269,0.051,0.413c0,0.138-0.275,0.275-0.275,0.406c0,0.145,0.116,0.275,0.116,0.413
	S11.42,39.7,11.42,39.838s0.319,0.275,0.319,0.406c0,0.145-0.333,0.275-0.333,0.42c0,0.131,0.08,0.269,0.08,0.406
	s0.152,0.275,0.152,0.413s-0.203,0.268-0.203,0.413c0,0.13,0.203,0.268,0.203,0.405c0,0.146-0.203,0.275-0.203,0.413
	s0.268,0.269,0.268,0.413c0,0.131-0.043,0.269-0.043,0.406c0,0.145-0.051,0.275-0.051,0.413s0.072,0.268,0.072,0.413
	c0,0.138-0.101,0.268-0.101,0.405c0,0.146-0.102,0.275-0.102,0.413s0.087,0.269,0.087,0.413c0,0.138-0.065,0.275-0.065,0.406
	c0,0.116,0.124,0.261,0.124,0.392c0,0.151,0,0.13,0.072,0.202c0.102,0.102,0.058,0.334,0.16,0.436
	c0.101,0.094,0.065,0.348,0.167,0.441c0.109,0.095,0.398-0.014,0.5,0.08c0.109,0.094,0,0.435,0.102,0.529
	c0.109,0.094,0.377,0,0.479,0.094c0.116,0.087,0.217,0.188,0.319,0.29c0.05-0.116,0.246-0.159,0.312-0.282
	c0.065-0.124-0.167-0.406-0.109-0.515c0.073-0.131,0.247-0.182,0.283-0.29c0.065-0.159,0-0.188-0.051-0.29
	c-0.058-0.123,0.029-0.318-0.015-0.442c-0.05-0.138-0.188-0.239-0.217-0.369c-0.029-0.131,0.145-0.297,0.13-0.428
	c-0.007-0.138-0.261-0.275-0.261-0.413c0.007-0.131,0.152-0.261,0.174-0.398c0.022-0.131,0.283-0.218,0.312-0.341
	c0.029-0.138,0.131-0.239,0.167-0.377c0.043-0.123-0.058-0.29-0.015-0.42c0.029-0.131-0.253-0.348-0.217-0.479
	c0.043-0.159,0.398-0.275,0.406-0.449c0-0.174,0.029-0.348,0.022-0.521c-0.007-0.131-0.21-0.262-0.21-0.392
	c-0.015-0.138,0.058-0.275,0.058-0.413c-0.015-0.138-0.087-0.269-0.087-0.398c-0.007-0.138,0.159-0.275,0.145-0.421
	c-0.007-0.138-0.42-0.246-0.435-0.377c-0.007-0.13,0.102-0.275,0.087-0.413c-0.007-0.13,0.16-0.275,0.145-0.413
	c-0.007-0.13,0.015-0.275,0.007-0.405c-0.007-0.131-0.275-0.261-0.283-0.392c0-0.131-0.087-0.269-0.094-0.398
	c-0.007-0.138,0.377-0.297,0.37-0.428c0-0.131-0.29-0.261-0.297-0.392c-0.007-0.13,0.37-0.29,0.363-0.428
	c-0.007-0.13-0.333-0.253-0.341-0.384c0-0.131,0.058-0.275,0.043-0.406c0-0.13,0.043-0.275,0.043-0.405
	c-0.007-0.131-0.304-0.254-0.312-0.392c-0.007-0.13,0.051-0.268,0.051-0.405c-0.007-0.131,0.377-0.275,0.377-0.406
	c-0.015-0.131-0.065-0.269-0.073-0.406c0-0.13-0.362-0.261-0.37-0.391c-0.007-0.131,0.181-0.275,0.181-0.406
	c0-0.13,0.043-0.261,0.036-0.406c0-0.13-0.058-0.261-0.065-0.398c0-0.138-0.232-0.268-0.232-0.398c0-0.13,0.29-0.275,0.283-0.405
	c0-0.131-0.094-0.269-0.094-0.406c-0.007-0.131,0.029-0.261,0.029-0.406c-0.014-0.13-0.217-0.268-0.225-0.405
	c-0.007-0.146,0.29-0.283,0.29-0.421c0-0.145-0.145-0.275-0.145-0.42c0-0.138-0.109-0.275-0.109-0.413s0.42-0.275,0.42-0.413
	s-0.42-0.282-0.42-0.42s0.319-0.275,0.319-0.413s-0.065-0.276-0.058-0.414c0-0.145,0.029-0.275,0.029-0.42
	c0-0.138,0.203-0.268,0.203-0.406c0.007-0.145-0.131-0.29-0.131-0.42c0-0.145-0.348-0.29-0.34-0.435
	c0.007-0.13,0.253-0.261,0.253-0.406c0.015-0.131-0.225-0.275-0.225-0.42c0.007-0.13,0.384-0.261,0.384-0.406
	c0.015-0.131,0.116-0.275,0.116-0.406c0.007-0.145-0.159-0.282-0.159-0.42c0.007-0.145,0.138-0.275,0.138-0.42
	c0-0.138-0.167-0.275-0.16-0.42c0-0.13,0.036-0.275,0.036-0.406c0-0.145-0.275-0.283-0.275-0.42c0-0.145,0.015-0.275,0-0.42
	c0-0.138,0.182-0.275,0.174-0.413c0-0.138,0.029-0.283,0.021-0.413c-0.007-0.145-0.217-0.275-0.225-0.406
	c0-0.145,0.29-0.297,0.29-0.435c-0.015-0.138-0.188-0.268-0.196-0.406s-0.08-0.275-0.094-0.406c-0.007-0.138-0.116-0.268-0.13-0.398
	c-0.015-0.138-0.058-0.269-0.072-0.406c-0.015-0.138,0.362-0.326,0.333-0.471c-0.014-0.13-0.406-0.218-0.427-0.348
	c-0.022-0.138,0.319-0.333,0.297-0.478c-0.029-0.13-0.138-0.261-0.159-0.392c-0.037-0.159,0.108-0.29,0.13-0.457
	c0.014-0.145-0.449-0.348-0.435-0.5c0.015-0.145,0.355-0.247,0.377-0.391c0.015-0.145,0.16-0.275,0.174-0.42
	c0.015-0.145-0.217-0.319-0.203-0.471c0.014-0.145-0.138-0.312-0.124-0.457c0.022-0.152,0.537-0.232,0.558-0.377
	c0.015-0.145-0.225-0.319-0.21-0.471c0.014-0.145-0.124-0.312-0.109-0.457s0.304-0.268,0.297-0.391
	c-0.007-0.145-0.203-0.261-0.254-0.37c-0.051-0.13-0.051-0.29-0.145-0.384c-0.087-0.094-0.159-0.297-0.283-0.362
	c-0.116-0.051-0.34,0.167-0.478,0.13c-0.123-0.029-0.225-0.246-0.355-0.261c-0.138-0.022-0.261-0.123-0.399-0.145
	c-0.152-0.015-0.261,0.398-0.37,0.42c-0.159,0.029-0.449-0.239-0.507-0.145c-0.072,0.102,0.007,0.319,0,0.464
	c0,0.116-0.05,0.261-0.043,0.384c0,0.138,0.102,0.268,0.08,0.384c-0.037,0.16,0.065,0.348,0.051,0.515
	c-0.029,0.167-0.131,0.326-0.131,0.5c0,0.13-0.21,0.275-0.21,0.413s0.406,0.275,0.398,0.413c0,0.145-0.145,0.275-0.145,0.42
	c0,0.138,0.073,0.275,0.073,0.413s-0.217,0.283-0.217,0.413c0,0.145,0.014,0.283,0.014,0.42s0.065,0.275,0.065,0.42
	c0,0.13,0.072,0.275,0.072,0.413s0.022,0.275,0.022,0.413c0,0.145-0.232,0.275-0.232,0.42c0,0.138,0.348,0.275,0.348,0.413
	s-0.319,0.283-0.319,0.413c0,0.145,0.015,0.283,0.015,0.42c0,0.145,0.203,0.275,0.203,0.42c0,0.131,0.116,0.275,0.116,0.413
	s-0.109,0.283-0.109,0.413c0,0.145-0.34,0.275-0.34,0.42c0,0.138,0.464,0.275,0.464,0.42c0,0.13-0.326,0.275-0.326,0.413
	s0.239,0.275,0.239,0.413c0,0.145-0.116,0.275-0.116,0.42c0,0.138-0.275,0.275-0.275,0.413s0.319,0.283,0.319,0.413
	c0,0.145-0.203,0.283-0.203,0.42s0.304,0.275,0.304,0.42c0,0.13-0.152,0.275-0.152,0.413s0.138,0.275,0.138,0.413
	c0,0.145-0.253,0.275-0.253,0.42c0,0.138,0.167,0.275,0.167,0.413s-0.232,0.282-0.232,0.413
	C10.869,26.416,10.956,26.619,10.956,26.764z M40.344,19.184c-0.008-0.188-0.109-0.406-0.116-0.595
	c-0.138-0.007-0.254-0.116-0.384-0.123c-0.138-0.007-0.283,0.138-0.421,0.13c-0.13-0.007-0.253-0.195-0.377-0.203
	c-0.138-0.007-0.261-0.102-0.398-0.109c-0.138-0.015-0.268,0.015-0.398,0.007s-0.261-0.13-0.392-0.138
	c-0.138-0.015-0.29,0.072-0.428,0.058c-0.138,0-0.282,0.116-0.427,0.116c-0.138-0.007-0.283,0.275-0.421,0.268
	c-0.138,0-0.275-0.174-0.42-0.167c-0.131,0-0.275,0.043-0.413,0.043s-0.283-0.304-0.428-0.304c-0.138,0.007-0.275,0.174-0.413,0.188
	c-0.138,0-0.283,0.021-0.413,0.029c-0.146,0.007-0.29-0.102-0.435-0.094c-0.131,0.007-0.275,0.065-0.413,0.072
	c-0.138,0.007-0.283-0.138-0.428-0.13c-0.138,0.007-0.275,0.029-0.421,0.036c-0.13,0.007-0.246,0.392-0.391,0.406
	c-0.138,0.007-0.29-0.247-0.436-0.247c-0.13,0.007-0.268,0.102-0.413,0.109c-0.138,0.007-0.282-0.051-0.42-0.051
	c-0.138,0.007-0.282-0.073-0.421-0.073c-0.137,0.007-0.275,0.312-0.412,0.312c-0.139,0-0.283-0.094-0.421-0.094
	s-0.275-0.116-0.42-0.116c-0.131,0-0.29,0.348-0.428,0.348c-0.138-0.007-0.283-0.087-0.428-0.087
	c-0.131-0.014-0.261,0.029-0.406,0.022c-0.13-0.007-0.246-0.283-0.391-0.297c-0.13,0-0.275,0.116-0.406,0.116
	s-0.261-0.13-0.398-0.13s-0.268,0.312-0.399,0.319c-0.13,0-0.275-0.326-0.406-0.326s-0.268,0.08-0.406,0.087
	c-0.13,0.007-0.261,0.152-0.391,0.159c-0.138,0.007-0.283-0.195-0.42-0.195c-0.13,0.007-0.261,0.217-0.392,0.225
	s-0.275-0.196-0.406-0.188c-0.138,0.007-0.261,0.283-0.391,0.283c-0.13,0.007-0.275-0.022-0.406-0.015
	c-0.131,0-0.275-0.036-0.406-0.029c-0.13,0-0.268,0.087-0.406,0.087c-0.13,0.007-0.268-0.087-0.406-0.087
	c-0.13,0.014-0.275-0.087-0.406-0.08c-0.13,0.007-0.268,0.102-0.406,0.109c-0.124,0-0.247-0.036-0.377,0.015
	c-0.116,0.051-0.16,0.239-0.29,0.304c-0.116,0.058-0.087,0.043-0.217,0.094c0.065,0.123-0.072,0.152-0.007,0.283
	c0.123-0.036,0.297,0.123,0.42,0.072c0.123-0.043,0.152-0.348,0.283-0.391c0.116-0.043,0.34,0.232,0.471,0.196
	c0.123-0.037,0.181-0.305,0.312-0.326c0.13-0.022,0.261-0.029,0.391-0.022s0.268,0.152,0.406,0.167c0.138,0,0.305-0.333,0.435-0.333
	c0.145,0.015,0.275,0.145,0.413,0.159c0.138,0.007,0.29-0.072,0.428-0.058c0.138,0.007,0.268,0.174,0.406,0.195
	c0.138,0.007,0.29-0.08,0.427-0.065c0.138,0.007,0.261,0.21,0.399,0.217c0.145,0.015,0.304-0.232,0.435-0.217
	c0.145,0.014,0.275,0.145,0.406,0.167c0.145,0.007,0.261,0.261,0.406,0.268c0.138,0.015,0.275,0.102,0.413,0.109
	s0.29-0.116,0.427-0.109c0.145,0.015,0.305-0.319,0.435-0.312c0.145,0.007,0.261,0.362,0.406,0.37c0.145,0,0.289,0.043,0.42,0.043
	c0.145,0,0.282-0.188,0.42-0.188s0.275,0.087,0.413,0.087s0.275-0.058,0.413-0.058c0.146,0,0.275,0.174,0.413,0.174
	s0.275-0.406,0.413-0.406c0.146,0,0.275,0.116,0.413,0.116s0.283,0.174,0.413,0.174c0.146,0,0.283,0.029,0.421,0.029
	s0.275-0.261,0.405-0.261c0.146,0,0.283-0.08,0.421-0.08c0.13,0,0.275,0.398,0.413,0.398s0.268-0.282,0.413-0.282
	c0.13,0,0.275,0.384,0.413,0.384s0.268-0.333,0.413-0.333c0.138,0,0.275,0.073,0.413,0.073s0.282,0.051,0.413,0.051
	c0.145,0,0.275-0.297,0.413-0.297s0.282,0.058,0.413,0.058c0.145,0,0.29,0.391,0.428,0.377c0.138,0,0.275-0.058,0.413-0.058
	c0.13,0,0.268-0.362,0.405-0.37c0.146,0,0.275,0.181,0.421,0.181c0.138,0,0.275,0.036,0.413,0.036s0.282-0.065,0.413-0.065
	c0.13,0,0.275-0.232,0.405-0.239c0.152,0,0.312,0.268,0.464,0.232c0.146-0.036,0.261-0.167,0.406-0.21
	C39.959,19.154,40.206,19.212,40.344,19.184z M50.555,19.082c-0.116-0.073-0.333-0.152-0.464-0.218
	c-0.13-0.058-0.225-0.21-0.362-0.261c-0.13-0.043-0.318,0.073-0.449,0.036c-0.138-0.036-0.246-0.239-0.384-0.253
	c-0.146-0.022-0.29-0.123-0.428-0.13c-0.146-0.015-0.305,0.029-0.442,0.036c-0.152,0.007-0.326-0.094-0.456-0.065
	c-0.152,0.015-0.305,0.145-0.436,0.188c-0.138,0.043-0.239,0.232-0.348,0.305c-0.13,0.08,0,0.101-0.065,0.217
	c0.131,0,0.065,0.058,0.196,0.058c0.13,0,0.261-0.037,0.391-0.037c0.131,0,0.262,0.312,0.392,0.312c0.131,0,0.261-0.167,0.392-0.167
	c0.13,0,0.261-0.014,0.398-0.014c0.123,0,0.261,0.116,0.398,0.116c0.123,0,0.261-0.051,0.392-0.051s0.261,0.16,0.392,0.16
	c0.13,0,0.261-0.015,0.405-0.015C50.192,19.314,50.425,19.082,50.555,19.082z M14.536,19.024c0.116,0.087,0.326,0.188,0.442,0.247
	c0.13,0.08,0.21,0.232,0.333,0.29c0.131,0.058,0.326-0.043,0.457-0.014c0.145,0.043,0.253,0.232,0.384,0.246
	c0.152,0.007,0.333,0.073,0.464,0.051c0.138-0.029,0.312-0.138,0.428-0.203c0.116-0.073,0.348-0.109,0.449-0.21
	c0.087-0.102,0.13-0.493,0.203-0.623c-0.145,0.014-0.442,0.058-0.58,0.058c-0.145,0.015-0.261,0.297-0.406,0.305
	c-0.13,0.015-0.275-0.16-0.42-0.145c-0.13,0.007-0.268,0.058-0.413,0.058c-0.138,0.007-0.29-0.29-0.435-0.29
	c-0.131,0.007-0.269,0.188-0.413,0.188C14.898,18.995,14.674,19.024,14.536,19.024z M8.833,19.792
	c-0.007-0.102-0.08-0.275-0.094-0.377c-0.145,0-0.29-0.101-0.435-0.101s-0.29,0.159-0.435,0.159c-0.145,0-0.297-0.174-0.442-0.174
	c-0.138,0-0.297-0.072-0.435-0.072c-0.145,0-0.297,0.029-0.442,0.029s-0.29-0.109-0.435-0.109c-0.145,0-0.29,0.087-0.435,0.087
	s-0.319,0.138-0.464,0.138c0,0.102,0.167,0.043,0.174,0.145c0.138,0,0.145,0.138,0.29,0.138c0.138,0,0.275-0.036,0.413-0.036
	s0.283,0.304,0.413,0.304c0.152,0,0.304-0.159,0.457-0.159s0.297-0.015,0.457-0.015c0.145,0,0.297,0.116,0.449,0.116
	c0.152,0,0.305-0.051,0.457-0.051C8.478,19.814,8.681,19.792,8.833,19.792z"/>
<g>
</g>
<g>
</g>
<g>
</g>
<g>
</g>
<g>
</g>
<g>
</g>
<g>
</g>
<g>
</g>
<g>
</g>
<g>
</g>
<g>
</g>
<g>
</g>
<g>
</g>
<g>
</g>
<g>
</g>
</svg>
