<?xml version="1.0" encoding="utf-8"?>
<!-- Generator: Adobe Illustrator 16.0.0, SVG Export Plug-In . SVG Version: 6.00 Build 0)  -->
<!DOCTYPE svg PUBLIC "-//W3C//DTD SVG 1.1//EN" "http://www.w3.org/Graphics/SVG/1.1/DTD/svg11.dtd">
<svg version="1.1" id="圖層_1" xmlns="http://www.w3.org/2000/svg" xmlns:xlink="http://www.w3.org/1999/xlink" x="0px" y="0px"
	 width="55px" height="55px" viewBox="0 0 55 55" enable-background="new 0 0 55 55" xml:space="preserve">
<g>
	<path fill="#EB6668" d="M51.86,5.597c0.521,1.682,0.303,2.192-1.086,2.692c-4.119,1.469-8.365,2.39-12.707,2.842
		c-1.128,0.117-2.298-0.213-3.438-0.149c-1.383,0.08-2.767,0.416-4.156,0.532c-1.521,0.112-3.038,0.522-4.57-0.245
		c-0.474-0.234-1.278,0.309-1.905,0.245c-4.14-0.42-8.301-0.766-12.409-1.426C9.397,9.737,7.285,8.864,5.162,8.162
		C4.539,7.96,3.773,7.694,3.459,7.204C3.065,6.608,3.086,5.746,2.927,5.001C3.47,5.028,4.097,4.884,4.55,5.097
		c4.507,2.182,9.307,3.15,14.245,3.448c4.682,0.276,9.391,0.681,14.069,0.479c6.205-0.266,12.351-1.245,18.289-3.193
		C51.349,5.763,51.552,5.693,51.86,5.597z"/>
	<path fill="#EB6668" d="M41.526,30.824c0-5.847,0.021-11.701-0.011-17.554c-0.011-1.139,0.33-1.735,1.543-1.814
		c1.256-0.091,1.745,0.399,1.224,1.602c-0.398,0.926-0.946,1.724-0.063,2.661c0.101,0.112-0.059,0.479-0.128,0.734
		c-0.063,0.245-0.267,0.511-0.233,0.724c0.744,3.938,0.298,7.854-0.07,11.781c-0.09,0.932,0.271,1.905,0.283,2.852
		c0.021,1.947,0.079,3.906-0.107,5.838c-0.313,3.176-0.031,6.358-0.313,9.524c-0.08,0.867-0.628,1.703-1.054,2.507
		c-0.133,0.244-0.612,0.5-0.856,0.436c-0.234-0.059-0.489-0.51-0.511-0.809c-0.063-1.011-0.037-2.033-0.037-3.044
		c0-5.145,0-10.291,0-15.441C41.308,30.824,41.42,30.824,41.526,30.824z"/>
	<path fill="#EB6668" d="M9.887,26.978c0-4.48,0-8.95,0.011-13.431c0-0.351,0.042-0.712,0.117-1.053
		c0.112-0.554-0.351-1.512,0.846-1.373c1.006,0.106,2.017,0.266,1.857,1.682c-0.139,1.203-0.298,2.41-0.437,3.618
		c-0.021,0.175-0.032,0.356,0,0.532c1,4.863,0.213,9.77,0.383,14.66c0.053,1.532,0.016,3.07,0.085,4.607
		c0.106,2.379,0.266,4.758,0.394,7.136c0.021,0.352,0.042,0.725-0.048,1.054c-0.335,1.224-0.782,2.39-0.112,3.693
		c0.16,0.318-0.383,0.989-0.606,1.501c-0.66-0.586-1.347-1.149-1.958-1.772c-0.139-0.144-0.064-0.512-0.064-0.777
		c0-6.688,0-13.383,0-20.065C10.201,26.978,10.046,26.978,9.887,26.978z"/>
	<path fill="#EB6668" d="M40.303,19.113c-0.458,0.117-0.91,0.324-1.373,0.33c-3.587,0.048-7.168,0.128-10.755,0.064
		c-2.176-0.042-4.336-0.362-6.518-0.447c-0.639-0.021-1.309,0.33-1.958,0.516c-0.064-0.128-0.127-0.261-0.197-0.389
		c0.378-0.16,0.75-0.447,1.133-0.468c2.522-0.096,5.055-0.298,7.567-0.154c3.208,0.187,6.385-0.415,9.589-0.186
		c0.824,0.058,1.649,0.117,2.485,0.17C40.276,18.741,40.291,18.927,40.303,19.113z"/>
	<path fill="#EB6668" d="M50.913,19.039c-1.607,0-2.874,0-4.108,0C47.188,18.272,49.381,18.102,50.913,19.039z"/>
	<path fill="#EB6668" d="M13.633,19.028c1.229-0.059,2.118-0.101,3.028-0.149C16.145,19.863,14.995,20.007,13.633,19.028z"/>
	<path fill="#EB6668" d="M7.556,19.72c-0.782,0-1.564,0-2.352,0c-0.436,0-0.873,0-1.304,0c-0.005-0.106-0.01-0.203-0.016-0.309
		c1.213,0,2.426,0,3.639,0C7.535,19.517,7.545,19.619,7.556,19.72z"/>
	<g>
		<path d="M28.133,20.656c-0.144,0-0.239,0.09-0.383,0.09s-0.293-0.106-0.431-0.106c-0.149,0-0.292,0.165-0.431,0.165
			c-0.144,0-0.287-0.181-0.431-0.181c-0.149,0-0.288-0.085-0.437-0.085c-0.138,0-0.288,0.042-0.426,0.042
			c-0.144,0-0.287-0.112-0.437-0.112c-0.138,0-0.287,0.091-0.425,0.091c-0.139,0-0.287,0.138-0.426,0.138
			c-0.144,0-0.287,0.293-0.426,0.293c-0.149,0-0.288-0.176-0.436-0.176c-0.139,0-0.288,0.037-0.426,0.037
			c-0.144,0-0.288-0.324-0.431-0.324s-0.292,0.17-0.431,0.17c-0.138,0-0.287,0.021-0.426,0.021c-0.144,0-0.287-0.123-0.431-0.123
			c-0.144,0-0.293,0.048-0.431,0.048s-0.288-0.159-0.426-0.159c-0.144,0-0.287,0.005-0.426,0.005c-0.148,0-0.287,0.394-0.436,0.394
			c-0.139,0-0.287-0.271-0.426-0.271c-0.144,0-0.287,0.085-0.431,0.085c-0.144,0-0.292-0.069-0.431-0.069
			c-0.139,0-0.288-0.09-0.426-0.09c-0.144,0-0.288,0.314-0.431,0.309c-0.144,0-0.292-0.106-0.431-0.106
			c-0.138,0-0.287-0.117-0.426-0.117c-0.144,0-0.287,0.373-0.431,0.373c-0.144,0-0.293-0.074-0.431-0.074s-0.288,0.042-0.431,0.042
			c-0.149,0-0.292-0.277-0.415-0.266c-0.149,0.027-0.25,0.17-0.368,0.224c-0.138,0.053-0.319,0.021-0.404,0.117
			s0.133,0.34,0.085,0.479c-0.042,0.118-0.394,0.149-0.416,0.298c-0.01,0.128,0.064,0.277,0.069,0.426
			c0,0.139,0.16,0.282,0.16,0.426s-0.208,0.288-0.208,0.431s0.223,0.282,0.234,0.431c0,0.138-0.213,0.287-0.213,0.431
			c0,0.144,0.287,0.282,0.287,0.426c0,0.144-0.042,0.293-0.032,0.431c0,0.149-0.042,0.292-0.042,0.437
			c0,0.143,0.08,0.282,0.085,0.426c0,0.149-0.096,0.287-0.096,0.436c0,0.139-0.106,0.288-0.106,0.431
			c0,0.144,0.106,0.283,0.106,0.426c0,0.144-0.074,0.293-0.069,0.432c0,0.148,0.149,0.287,0.154,0.431
			c0,0.144,0.064,0.282,0.064,0.425s-0.197,0.293-0.197,0.432c0,0.148-0.219,0.292-0.208,0.436c0,0.145,0.287,0.281,0.287,0.426
			c0,0.149-0.335,0.298-0.335,0.437c0,0.144,0.261,0.282,0.261,0.426c0,0.143-0.005,0.287-0.005,0.426
			c0,0.138-0.144,0.287-0.144,0.436c0,0.145,0.362,0.282,0.362,0.421c0,0.144-0.128,0.287-0.128,0.431
			c0,0.149,0.106,0.287,0.106,0.426c0,0.149-0.165,0.293-0.165,0.437s0.112,0.282,0.112,0.426c0,0.148-0.191,0.287-0.191,0.437
			c0,0.139,0.276,0.282,0.276,0.425c0,0.145-0.127,0.288-0.127,0.437c0,0.139-0.245,0.288-0.245,0.426
			c0,0.148-0.08,0.293-0.075,0.437c0,0.145,0.149,0.282,0.149,0.426c0.011,0.149,0.356,0.287,0.356,0.426
			c0,0.148-0.356,0.298-0.356,0.437c0,0.144-0.042,0.287-0.038,0.425c0,0.149,0.208,0.288,0.208,0.427
			c0,0.148-0.08,0.292-0.08,0.437c0,0.143,0.069,0.281,0.069,0.425c0,0.149-0.17,0.288-0.17,0.437c0,0.144,0.426,0.282,0.426,0.421
			c0,0.143-0.106,0.287-0.106,0.431c0,0.149-0.17,0.287-0.17,0.437c0,0.144-0.032,0.287-0.021,0.425
			c0,0.145,0.266,0.282,0.277,0.427c0,0.148,0.075,0.286,0.08,0.436c0,0.149-0.404,0.304-0.404,0.447
			c0,0.145,0.287,0.287,0.292,0.437c0,0.139-0.394,0.298-0.394,0.441s0.341,0.282,0.341,0.431c0,0.149-0.063,0.298-0.063,0.437
			c0,0.149-0.059,0.299-0.054,0.441c0,0.145,0.303,0.293,0.309,0.432c0,0.148-0.058,0.298-0.053,0.441
			c0,0.144-0.399,0.298-0.394,0.442c0.005,0.148,0.063,0.286,0.063,0.436c0,0.148,0.378,0.293,0.383,0.437
			c0,0.144-0.186,0.298-0.186,0.437c0,0.149-0.048,0.298-0.038,0.441c0,0.144,0.059,0.288,0.059,0.437
			c0,0.144,0.244,0.293,0.244,0.441c0,0.144-0.303,0.288-0.303,0.437c0,0.149,0.085,0.298,0.085,0.436
			c0,0.149-0.048,0.299-0.074,0.432c-0.021,0.148,0.138,0.367,0.085,0.494c-0.053,0.139-0.399,0.129-0.479,0.234
			c-0.09,0.107-0.101,0.314-0.218,0.384c-0.117,0.08-0.234,0.256-0.373,0.298c-0.127,0.037-0.335-0.356-0.49-0.346
			c-0.133,0.01-0.276,0.452-0.425,0.441c-0.133-0.011-0.229-0.361-0.372-0.394c-0.139-0.032-0.288,0-0.416-0.038
			c-0.144-0.042-0.255-0.111-0.378-0.159c-0.133-0.059-0.149-0.292-0.266-0.356c-0.122-0.074-0.298-0.011-0.404-0.096
			c-0.112-0.085-0.469,0.079-0.564-0.021c-0.096-0.107,0.011-0.384-0.064-0.501c-0.08-0.116-0.367-0.128-0.426-0.255
			c-0.058-0.128,0.256-0.404,0.213-0.538c-0.038-0.127,0.032-0.271,0.005-0.41c-0.026-0.133-0.218-0.229-0.229-0.371
			c-0.021-0.134,0.106-0.277,0.096-0.416c-0.005-0.133-0.181-0.261-0.181-0.404c0-0.139,0.031-0.277,0.031-0.426
			c0-0.138-0.287-0.276-0.287-0.415s0-0.277,0-0.414c0-0.139,0.176-0.283,0.176-0.421c-0.005-0.145,0.026-0.282,0.026-0.42
			c-0.01-0.139-0.224-0.277-0.234-0.416c0-0.138,0.309-0.287,0.303-0.425c-0.005-0.139-0.176-0.271-0.187-0.41
			c0-0.139-0.063-0.282-0.069-0.421s-0.106-0.276-0.112-0.414c-0.005-0.139-0.032-0.277-0.042-0.416
			c0-0.139,0.404-0.292,0.399-0.431c-0.005-0.144-0.399-0.271-0.399-0.41c-0.011-0.139,0.373-0.287,0.373-0.425
			c-0.011-0.145-0.096-0.282-0.102-0.421c-0.005-0.139,0.128-0.281,0.123-0.42c-0.011-0.139-0.517-0.267-0.522-0.405
			c-0.01-0.138,0.33-0.287,0.325-0.425c-0.005-0.144,0.123-0.288,0.123-0.427c0-0.138-0.271-0.276-0.277-0.414
			c0-0.149-0.191-0.288-0.191-0.426c0-0.148,0.521-0.287,0.521-0.437c0-0.145-0.277-0.282-0.277-0.42c0-0.145-0.17-0.282-0.17-0.432
			c0-0.138,0.298-0.287,0.298-0.426c0-0.144-0.175-0.282-0.175-0.425c0-0.145,0.096-0.283,0.096-0.427
			c0-0.148,0.144-0.287,0.144-0.425c0-0.149-0.298-0.288-0.298-0.432s0.197-0.282,0.197-0.432c0-0.137,0.096-0.275,0.096-0.425
			c0-0.145-0.431-0.282-0.431-0.426s0.431-0.282,0.431-0.426c0-0.148-0.144-0.287-0.144-0.426c0-0.149,0.059-0.287,0.059-0.431
			s-0.101-0.282-0.101-0.426s-0.139-0.282-0.139-0.432c0-0.138,0.107-0.276,0.107-0.425c0-0.144,0.218-0.282,0.218-0.427
			c0-0.143-0.42-0.286-0.42-0.425c0-0.149,0.154-0.288,0.16-0.431c0-0.145-0.08-0.282-0.08-0.427c0-0.143,0.229-0.281,0.229-0.431
			c0-0.139-0.016-0.276-0.016-0.425c0-0.145-0.059-0.283-0.059-0.426c0-0.144-0.08-0.282-0.08-0.425
			c0-0.149-0.027-0.288-0.027-0.426c0-0.149,0.245-0.288,0.245-0.431c0-0.144-0.362-0.283-0.362-0.432
			c0-0.138,0.33-0.276,0.33-0.426c0-0.138-0.016-0.282-0.016-0.425S8.887,25.1,8.887,24.956c0-0.149-0.128-0.288-0.128-0.436
			c0-0.149,0.117-0.298,0.117-0.442c0-0.144,0.356-0.293,0.351-0.441c0-0.149-0.49-0.288-0.49-0.431s0.33-0.298,0.33-0.441
			c-0.005-0.149-0.261-0.288-0.266-0.426c-0.005-0.149,0.106-0.298,0.106-0.447c-0.011-0.144,0.266-0.309,0.255-0.458
			c-0.011-0.128-0.426-0.208-0.564-0.341c-0.149-0.138-0.255-0.426-0.383-0.436c-0.138,0-0.287,0.298-0.42,0.298
			c-0.138,0-0.271-0.159-0.41-0.159s-0.271,0.138-0.415,0.138c-0.139,0-0.276-0.255-0.415-0.255
			c-0.138,0.01-0.266,0.175-0.404,0.181c-0.144,0-0.282-0.239-0.42-0.239c-0.139,0-0.271-0.048-0.41-0.048
			c-0.139,0-0.266-0.075-0.404-0.08c-0.139-0.005-0.298,0.335-0.426,0.325s-0.277,0-0.404-0.021
			c-0.128-0.021-0.266-0.08-0.394-0.117c-0.128-0.042-0.298,0.01-0.42-0.042c-0.122-0.054-0.271-0.106-0.383-0.176
			c-0.117-0.069-0.277-0.139-0.373-0.224c-0.08-0.069-0.218-0.41-0.24-0.612c-0.021-0.165,0.309-0.352,0.325-0.511
			c0.027-0.213-0.038-0.463,0.059-0.522c0.123-0.085,0.309-0.074,0.447-0.143c0.133-0.069,0.309-0.038,0.447-0.102
			c0.149-0.053,0.245-0.213,0.388-0.255c0.154-0.042,0.325,0.064,0.474,0.037c0.148-0.026,0.271-0.34,0.42-0.346
			c0.154-0.011,0.314,0.218,0.463,0.218c0.148,0.005,0.303-0.144,0.457-0.127c0.149,0.01,0.309-0.048,0.463-0.038
			c0.149,0.021,0.266,0.341,0.415,0.352c0.154,0.021,0.325-0.176,0.474-0.165c0.148,0.011,0.297,0.032,0.447,0.037
			c0.149,0.005,0.309,0.191,0.463,0.181c0.122,0,0.42-0.021,0.569-0.138c0.122-0.091-0.037-0.511,0.053-0.628
			c0.117-0.138,0.213-0.202,0.213-0.325c0-0.138,0.239-0.288,0.234-0.425c-0.005-0.139,0.032-0.293,0.021-0.431
			c-0.011-0.139-0.245-0.266-0.255-0.404c-0.011-0.139,0.287-0.309,0.276-0.447c-0.01-0.138-0.489-0.234-0.5-0.372
			c-0.021-0.139,0.011-0.283,0-0.42c-0.01-0.144,0.149-0.304,0.139-0.442c-0.011-0.138,0.037-0.282,0.026-0.426
			C8.78,13.638,8.849,13.5,8.839,13.355c-0.011-0.16-0.218-0.319-0.197-0.484c0.026-0.166,0.255-0.266,0.309-0.415
			c0.053-0.144-0.191-0.368-0.154-0.49c0.043-0.149-0.026-0.271-0.016-0.394c0.016-0.154,0.373-0.304,0.341-0.431
			c-0.032-0.128-0.17-0.277-0.271-0.383c-0.08-0.091-0.218-0.197-0.346-0.277c-0.106-0.058-0.224-0.175-0.362-0.234
			c-0.117-0.053-0.266-0.09-0.404-0.138c-0.127-0.054-0.218-0.218-0.351-0.277C7.252,9.785,7.098,9.785,6.96,9.737
			C6.832,9.679,6.715,9.599,6.577,9.541C6.449,9.487,6.162,9.801,6.023,9.748C5.896,9.695,5.731,9.695,5.598,9.642
			C5.465,9.588,5.343,9.508,5.209,9.45C5.077,9.396,5.034,9.125,4.906,9.067C4.778,9.014,4.672,8.891,4.544,8.833
			C4.417,8.779,4.236,8.812,4.108,8.758C3.97,8.705,3.778,8.79,3.645,8.737C3.512,8.684,3.438,8.487,3.31,8.428
			C3.171,8.375,2.969,8.492,2.831,8.439C2.703,8.38,2.655,8.141,2.554,8.077C2.437,8.002,2.479,7.758,2.389,7.672
			c-0.09-0.095-0.298-0.074-0.367-0.191c-0.063-0.117,0.096-0.287,0.064-0.42C2.054,6.938,2.064,6.853,2.064,6.709
			c-0.01-0.127-0.276-0.25-0.266-0.389C1.82,6.146,1.81,5.97,1.847,5.794c0.026-0.127,0.165-0.282,0.149-0.42
			C1.979,5.246,1.884,5.113,1.852,4.98c-0.027-0.133-0.33-0.224-0.351-0.351C1.484,4.491,1.788,4.357,1.81,4.235
			c0.032-0.128-0.032-0.266,0.085-0.368c0.08-0.08,0.101-0.399,0.255-0.447c0.127-0.048,0.33,0.026,0.463,0
			c0.138-0.026,0.303,0.123,0.441,0.112c0.139,0,0.288-0.074,0.426-0.059C3.619,3.49,3.746,3.543,3.89,3.576
			c0.133,0.032,0.298-0.017,0.431,0.026C4.448,3.65,4.56,3.767,4.693,3.815C4.821,3.863,4.97,3.884,5.098,3.937
			C5.226,3.99,5.279,4.208,5.406,4.262c0.128,0.064,0.208,0.229,0.335,0.292c0.127,0.059,0.378-0.149,0.505-0.09
			c0.128,0.059,0.288,0.042,0.415,0.101c0.127,0.053,0.117,0.426,0.25,0.49c0.133,0.059,0.42-0.266,0.548-0.213
			c0.127,0.053,0.117,0.441,0.255,0.5C7.844,5.395,8.056,5.246,8.184,5.3c0.127,0.058,0.16,0.367,0.287,0.415
			C8.599,5.768,8.77,5.725,8.908,5.778c0.128,0.053,0.288,0.042,0.42,0.085C9.461,5.911,9.61,5.9,9.743,5.948
			c0.133,0.043,0.239,0.17,0.373,0.218c0.133,0.048,0.292,0.011,0.431,0.048c0.128,0.042,0.288-0.01,0.431,0.021
			c0.133,0.042,0.17,0.436,0.309,0.474c0.133,0.037,0.282,0.069,0.42,0.101c0.139,0.032,0.34-0.234,0.479-0.202
			c0.138,0.038,0.266,0.096,0.404,0.128c0.139,0.021,0.266,0.106,0.405,0.127c0.138,0.032,0.266,0.176,0.404,0.197
			c0.139,0.021,0.335-0.367,0.474-0.351c0.143,0.027,0.25,0.314,0.394,0.335c0.144,0.016,0.255,0.287,0.399,0.303
			c0.149,0.016,0.298-0.032,0.437-0.016c0.149,0.016,0.282,0.117,0.426,0.133c0.144,0.016,0.298-0.069,0.447-0.059
			c0.139,0.021,0.298-0.08,0.442-0.063c0.143,0.021,0.287,0.005,0.431,0.021c0.149,0.011,0.319-0.271,0.463-0.255
			c0.144,0.01,0.282,0.058,0.426,0.074c0.144,0.011,0.25,0.468,0.394,0.479c0.144,0.01,0.325-0.335,0.468-0.319
			c0.144,0.011,0.256,0.415,0.399,0.426c0.144,0.01,0.298-0.128,0.447-0.117c0.139,0.011,0.298-0.16,0.447-0.149
			c0.144,0.01,0.276,0.138,0.42,0.149c0.144,0.011,0.282,0.127,0.431,0.127c0.139,0.011,0.288,0.064,0.431,0.069
			c0.144,0.011,0.309-0.298,0.452-0.293c0.149,0.011,0.288,0.107,0.426,0.117c0.149,0.005,0.288,0.133,0.431,0.144
			c0.144,0.005,0.282,0.117,0.426,0.127c0.144,0.005,0.303-0.266,0.441-0.255c0.149,0.005,0.288,0.187,0.431,0.197
			c0.144,0,0.303-0.187,0.442-0.181c0.149,0.005,0.276,0.356,0.425,0.362c0.144,0.005,0.288,0,0.431,0.005s0.303-0.314,0.442-0.314
			c0.148,0.011,0.292,0.085,0.436,0.085c0.144,0.005,0.287-0.037,0.431-0.037c0.144,0.005,0.282,0.218,0.431,0.218
			c0.139,0.011,0.288,0.011,0.432,0.021c0.143,0,0.287-0.021,0.431-0.021c0.149,0,0.287,0.021,0.437,0.021
			c0.138,0,0.292-0.319,0.437-0.319c0.144,0,0.287-0.011,0.436-0.011c0.139,0,0.277,0.495,0.426,0.495
			c0.144,0,0.288-0.037,0.432-0.037c0.143,0,0.292-0.341,0.441-0.341c0.139,0,0.287,0.154,0.431,0.154
			c0.145,0,0.287-0.08,0.432-0.069c0.148,0,0.287,0.106,0.436,0.106c0.139,0,0.288-0.026,0.432-0.026s0.287,0.234,0.431,0.234
			c0.148,0,0.287-0.037,0.437-0.042c0.139,0,0.277-0.479,0.42-0.484c0.144-0.005,0.299,0.415,0.441,0.41
			c0.149-0.005,0.277-0.356,0.416-0.356c0.149-0.011,0.298,0.09,0.436,0.08c0.145-0.006,0.294,0.133,0.437,0.127
			c0.149-0.011,0.277-0.245,0.415-0.256c0.149-0.01,0.309,0.187,0.453,0.176c0.143-0.021,0.303,0.17,0.451,0.159
			c0.139-0.021,0.245-0.415,0.384-0.425c0.148-0.021,0.335,0.356,0.479,0.335c0.149-0.016,0.256-0.303,0.395-0.325
			c0.148-0.021,0.249-0.282,0.394-0.298c0.149-0.021,0.276-0.064,0.426-0.085c0.138-0.021,0.276-0.047,0.42-0.074
			c0.145-0.032,0.325,0.176,0.464,0.149c0.138-0.027,0.275-0.085,0.414-0.122c0.144-0.027,0.352,0.229,0.489,0.197
			c0.139-0.032,0.219-0.346,0.357-0.383c0.144-0.032,0.292-0.069,0.431-0.096c0.149-0.032,0.276-0.181,0.426-0.202
			c0.144-0.021,0.318,0.138,0.468,0.117c0.149-0.016,0.288-0.058,0.442-0.074c0.148-0.011,0.324,0.234,0.463,0.223
			c0.148-0.016,0.276-0.186,0.431-0.202c0.148-0.011,0.267-0.378,0.41-0.394c0.148-0.01,0.298,0.075,0.446,0.053
			c0.149-0.016,0.276-0.127,0.432-0.144c0.148-0.016,0.335,0.325,0.484,0.303c0.139-0.021,0.292-0.038,0.441-0.063
			c0.144-0.032,0.218-0.383,0.366-0.41c0.145-0.037,0.379,0.303,0.522,0.261c0.143-0.042,0.303-0.042,0.447-0.096
			c0.138-0.053,0.116-0.5,0.255-0.564c0.128-0.042,0.437,0.351,0.564,0.303c0.127-0.048,0.234-0.144,0.361-0.186
			c0.128-0.048,0.139-0.453,0.267-0.5c0.127-0.042,0.255-0.086,0.394-0.128c0.127-0.031,0.383,0.33,0.51,0.293
			c0.139-0.037,0.246-0.154,0.373-0.197c0.139-0.037,0.165-0.415,0.298-0.452c0.133-0.038,0.341,0.186,0.469,0.138
			c0.138-0.037,0.159-0.41,0.287-0.452s0.373,0.255,0.501,0.207c0.127-0.042,0.266-0.069,0.394-0.122
			c0.17-0.064,0.292-0.165,0.431-0.191c0.176-0.032,0.313-0.011,0.452,0.016c0.149,0.037,0.149,0.197,0.267,0.324
			c0.09,0.102,0.196,0.149,0.266,0.314c0.054,0.133,0.117,0.25,0.159,0.426c0.037,0.149,0.384,0.229,0.41,0.367
			c0.031,0.154,0.031,0.319,0.059,0.458c0.021,0.149-0.293,0.341-0.282,0.479c0.017,0.159,0.187,0.298,0.176,0.437
			c-0.011,0.16-0.08,0.297-0.128,0.431c-0.042,0.144-0.159,0.229-0.239,0.356c-0.08,0.117,0.011,0.394-0.106,0.5
			c-0.102,0.09-0.208,0.245-0.336,0.33c-0.116,0.074-0.351-0.011-0.499,0.063c-0.118,0.059-0.362-0.138-0.512-0.075
			c-0.127,0.054-0.079,0.586-0.224,0.644c-0.139,0.048-0.286,0.069-0.425,0.112c-0.139,0.048-0.416-0.298-0.554-0.255
			s-0.181,0.373-0.319,0.415c-0.138,0.042-0.276,0.106-0.415,0.144c-0.139,0.048-0.362-0.197-0.501-0.154
			c-0.138,0.042-0.159,0.458-0.297,0.5c-0.145,0.042-0.405-0.309-0.543-0.266c-0.139,0.042-0.139,0.516-0.276,0.564
			c-0.139,0.042-0.288,0.042-0.427,0.09c-0.138,0.042-0.319-0.027-0.452,0.021c-0.133,0.048-0.355-0.123-0.494-0.069
			c-0.117,0.042-0.266,0.17-0.384,0.255c-0.116,0.08-0.292,0.149-0.394,0.255c-0.096,0.102-0.224,0.256-0.287,0.373
			c-0.085,0.128,0.032,0.372,0.016,0.5c-0.016,0.138-0.101,0.276-0.111,0.415c-0.021,0.138,0.24,0.303,0.229,0.441
			c-0.011,0.139-0.026,0.276-0.037,0.415c-0.011,0.138-0.191,0.266-0.208,0.41c-0.005,0.138,0.219,0.288,0.213,0.437
			c-0.005,0.138-0.207,0.271-0.207,0.409c-0.006,0.139,0.085,0.283,0.079,0.42c-0.005,0.139-0.122,0.277-0.122,0.416
			c-0.005,0.138,0.074,0.288,0.074,0.425c-0.01,0.139-0.303,0.266-0.309,0.41c-0.004,0.138,0.347,0.293,0.342,0.431
			c-0.011,0.171,0.074,0.234,0.105,0.351c0.048,0.154,0.054,0.123,0.166,0.203c0.111,0.074,0.09,0.34,0.249,0.356
			c0.134,0.016,0.267-0.154,0.42-0.165c0.149-0.011,0.305,0.181,0.453,0.17c0.149-0.005,0.298-0.021,0.447-0.027
			s0.298,0.027,0.446,0.016c0.139-0.011,0.304,0.133,0.447,0.123c0.148-0.005,0.271-0.474,0.42-0.484
			c0.155,0,0.304,0.011,0.441,0.011c0.155-0.011,0.32,0.437,0.47,0.431c0.148-0.005,0.297-0.005,0.446-0.016
			c0.148,0,0.293-0.011,0.442-0.021c0.153-0.01,0.313-0.511,0.441-0.5c0.153,0.021,0.255,0.351,0.372,0.394
			c0.139,0.059,0.287,0.085,0.384,0.187c0.09,0.095,0.127,0.239,0.175,0.388c0.037,0.123-0.175,0.271-0.165,0.426
			c0.011,0.139,0.187,0.255,0.181,0.383c-0.005,0.138,0.16,0.298,0.128,0.425c-0.032,0.128-0.394,0.107-0.457,0.213
			c-0.075,0.112,0.063,0.372-0.048,0.452c-0.102,0.069-0.251,0.069-0.389,0.112c-0.117,0.038-0.229,0.325-0.378,0.341
			c-0.145,0.01-0.287-0.027-0.426-0.021c-0.144,0.01-0.293-0.149-0.441-0.139c-0.144,0.011-0.282,0.032-0.426,0.042
			c-0.144,0-0.282,0.021-0.426,0.021c-0.149,0.011-0.298-0.303-0.447-0.298c-0.144,0.01-0.276,0.218-0.42,0.224
			c-0.144,0.005-0.288-0.213-0.432-0.213c-0.148,0-0.287,0-0.425,0c-0.145,0-0.283,0.16-0.426,0.16
			c-0.155,0-0.319-0.021-0.458-0.011c-0.159,0.011-0.362-0.058-0.484-0.01c-0.154,0.048-0.218,0.324-0.324,0.415
			c-0.106,0.096,0.042,0.303-0.016,0.452c-0.048,0.123-0.549,0.165-0.56,0.325c-0.01,0.138,0.075,0.314,0.096,0.479
			c0.011,0.149,0.139,0.266,0.139,0.416c0.011,0.138-0.197,0.276-0.197,0.42c0,0.144,0.336,0.292,0.336,0.431
			c-0.011,0.149,0.037,0.288,0.026,0.437c-0.011,0.138-0.335,0.255-0.352,0.404c-0.011,0.144,0.091,0.293,0.08,0.436
			c-0.01,0.144,0.032,0.288,0.032,0.437c0,0.138,0.281,0.276,0.287,0.415c0.011,0.148-0.128,0.287-0.106,0.431
			c0.011,0.144,0.106,0.261,0.138,0.399c0.022,0.139,0.149,0.229,0.192,0.368c0.042,0.133-0.33,0.431-0.267,0.558
			c0.064,0.128,0.085,0.309,0.165,0.426c0.048,0.08,0.112,0.048,0.096,0.176c-0.011,0.112,0.261,0.287,0.234,0.383
			c-0.037,0.138-0.116,0.261-0.154,0.394c-0.032,0.138,0.096,0.313,0.059,0.452c-0.031,0.139-0.139,0.255-0.165,0.394
			c-0.031,0.139-0.011,0.277-0.031,0.421c-0.021,0.139-0.192,0.25-0.214,0.394c-0.021,0.139,0.096,0.293,0.075,0.437
			c-0.021,0.144-0.276,0.25-0.288,0.399c-0.015,0.138,0.182,0.297,0.16,0.441c-0.011,0.139,0,0.282-0.011,0.421
			c-0.016,0.138,0.043,0.281,0.032,0.425c0,0.139-0.426,0.267-0.437,0.405c-0.006,0.138,0.192,0.286,0.181,0.431
			c0,0.144-0.112,0.282-0.112,0.421c0,0.143-0.09,0.281-0.09,0.425c0,0.149,0.356,0.287,0.356,0.426
			c0,0.144,0.069,0.282,0.069,0.421c0,0.143-0.212,0.286-0.202,0.425c0.005,0.145,0.085,0.282,0.085,0.421
			c0.011,0.148,0.149,0.276,0.149,0.426c0,0.144-0.352,0.292-0.346,0.431c0.005,0.144,0.139,0.282,0.144,0.421
			c0.006,0.148-0.096,0.287-0.096,0.425c0.011,0.149,0.266,0.282,0.266,0.426c0.011,0.144-0.096,0.288-0.096,0.426
			c0,0.148-0.074,0.287-0.068,0.426c0,0.154-0.271,0.298-0.277,0.447c0,0.149-0.017,0.298-0.021,0.447
			c-0.006,0.148,0.144,0.297,0.139,0.446c-0.006,0.149-0.165,0.287-0.176,0.437c0,0.149,0.16,0.309,0.149,0.458
			c-0.011,0.148,0.196,0.309,0.19,0.457c-0.004,0.149,0.033,0.303,0.022,0.452c-0.012,0.149,0.031,0.304,0.021,0.453
			c-0.01,0.148-0.244,0.276-0.256,0.431c0,0.144-0.164,0.276-0.175,0.425c-0.011,0.145,0.027,0.294,0.011,0.432
			c-0.011,0.148,0.133,0.304,0.122,0.447s0.17,0.298,0.16,0.447c-0.011,0.138-0.106,0.276-0.118,0.426
			c-0.011,0.144-0.127,0.281-0.127,0.425c-0.011,0.145-0.043,0.288-0.048,0.437c-0.006,0.139-0.256,0.276-0.261,0.426
			c-0.006,0.144,0.356,0.298,0.356,0.442c0,0.144-0.091,0.292-0.085,0.431c0,0.149,0.102,0.292,0.106,0.436
			c0.005,0.145-0.011,0.298-0.017,0.432c-0.011,0.144-0.148,0.271-0.181,0.409c-0.021,0.139,0.096,0.325,0.059,0.458
			c-0.037,0.139-0.463,0.128-0.517,0.256c-0.053,0.127,0.107,0.351,0.038,0.468c-0.069,0.128-0.181,0.213-0.262,0.33
			c-0.074,0.117-0.233,0.159-0.329,0.271c-0.08,0.111,0.043,0.394-0.054,0.501c-0.096,0.105-0.458-0.049-0.558,0.047
			c-0.102,0.102-0.049,0.347-0.145,0.441c-0.102,0.091-0.218,0.176-0.319,0.271c-0.105,0.096-0.159,0.245-0.266,0.341
			s-0.256-0.063-0.399-0.053c-0.128,0.011-0.207,0.063-0.346,0.005c-0.117-0.042-0.426,0.202-0.543,0.117
			c-0.117-0.08-0.281-0.165-0.383-0.271c-0.096-0.102-0.037-0.362-0.117-0.479c-0.08-0.117,0.063-0.352,0-0.479
			c-0.059-0.127-0.394-0.149-0.426-0.276c-0.032-0.139,0.106-0.309,0.106-0.447c0-0.144,0.026-0.281,0.026-0.426
			c0-0.149,0.187-0.287,0.187-0.426c0-0.148-0.298-0.287-0.298-0.426c0-0.144,0.021-0.282,0.021-0.425
			c0-0.149-0.085-0.288-0.085-0.427c0-0.148,0.128-0.287,0.128-0.431s0.154-0.282,0.154-0.425c0-0.145-0.261-0.283-0.261-0.433
			c0-0.137-0.127-0.275-0.127-0.425c0-0.144,0.468-0.282,0.468-0.426s-0.229-0.287-0.229-0.426c0-0.148-0.281-0.287-0.281-0.431
			c0-0.145,0.256-0.282,0.256-0.426s-0.187-0.282-0.182-0.432c0-0.138,0.416-0.276,0.416-0.414c0-0.139-0.512-0.288-0.512-0.431
			c0-0.145,0.373-0.283,0.373-0.421c0-0.149-0.352-0.287-0.352-0.426c0-0.149,0.511-0.288,0.511-0.426
			c0-0.144-0.373-0.282-0.373-0.426s0.271-0.288,0.277-0.426c0-0.138-0.202-0.276-0.202-0.415c0-0.144,0.139-0.282,0.139-0.42
			c0-0.139,0.085-0.277,0.085-0.415c0-0.139-0.373-0.282-0.373-0.421c0-0.138-0.054-0.276-0.048-0.415
			c0-0.138,0.293-0.276,0.293-0.415s-0.123-0.277-0.123-0.414c0-0.139-0.101-0.277-0.101-0.416s-0.042-0.276-0.042-0.415
			c0-0.138,0.127-0.276,0.122-0.415c0-0.144-0.027-0.282-0.027-0.421c0-0.138,0.384-0.281,0.384-0.42
			c-0.011-0.138-0.384-0.266-0.394-0.404c0-0.149,0.159-0.298,0.153-0.447c-0.015-0.144-0.048-0.292-0.058-0.436
			c-0.011-0.149,0.021-0.298,0-0.447c-0.011-0.145,0.159-0.309,0.138-0.453c-0.01-0.144-0.318-0.26-0.329-0.408
			c-0.017-0.149,0.244-0.32,0.234-0.464c-0.011-0.144-0.257-0.271-0.267-0.415c-0.011-0.144-0.149-0.293-0.16-0.431
			c0-0.149,0.342-0.309,0.342-0.453c-0.006-0.143-0.118-0.287-0.112-0.431c0.005-0.149-0.304-0.319-0.293-0.462
			c0.016-0.145,0.233-0.271,0.256-0.416c0.021-0.144,0.031-0.292,0.063-0.431c0.021-0.149-0.069-0.314-0.037-0.458
			c0.026-0.144,0.351-0.229,0.378-0.373c0.026-0.143-0.17-0.329-0.139-0.468c0.021-0.149,0.287-0.255,0.309-0.404
			c0.011-0.144-0.202-0.309-0.197-0.458c0.006-0.149-0.153-0.288-0.165-0.436c-0.011-0.154,0.107-0.314,0.086-0.463
			c-0.021-0.154,0.063-0.325,0.042-0.474c-0.031-0.149-0.287-0.255-0.313-0.404c-0.026-0.149,0.133-0.341,0.111-0.49
			c-0.021-0.149-0.229-0.288-0.239-0.442c-0.011-0.133,0.399-0.292,0.388-0.431c-0.01-0.127-0.042-0.255-0.052-0.394
			c-0.011-0.139-0.464-0.255-0.464-0.394c-0.005-0.128,0.421-0.266,0.431-0.405c0-0.133,0.033-0.261,0.043-0.394
			c0.011-0.133-0.091-0.266-0.074-0.399c0.021-0.133,0.054-0.256,0.085-0.389c0.027-0.144-0.309-0.34-0.287-0.458
			c0.026-0.16,0.479-0.245,0.479-0.352c0.012-0.17-0.319-0.223-0.383-0.309c-0.069-0.096-0.011-0.489-0.176-0.521
			c-0.106-0.027-0.304,0.394-0.463,0.394c-0.116-0.011-0.245,0-0.394,0c-0.139,0-0.288-0.059-0.431-0.059
			c-0.144,0-0.288-0.123-0.432-0.123c-0.148,0-0.287,0.117-0.437,0.117c-0.144,0-0.287-0.319-0.431-0.319s-0.292,0.335-0.431,0.335
			c-0.149,0-0.288-0.245-0.437-0.245c-0.144,0-0.287-0.042-0.432-0.042c-0.143,0-0.292,0-0.431,0c-0.149,0-0.287,0.405-0.437,0.405
			c-0.144,0-0.287-0.08-0.431-0.08s-0.293,0.021-0.432,0.021c-0.148,0-0.292,0.042-0.436,0.042s-0.287-0.415-0.432-0.415
			c-0.144,0-0.292-0.021-0.431-0.021c-0.149,0-0.293,0.373-0.436,0.373c-0.145,0-0.288,0.021-0.437,0.021
			c-0.139,0-0.288,0.038-0.427,0.038c-0.148,0-0.292-0.059-0.436-0.059c-0.145,0-0.287,0.063-0.437,0.063
			c-0.139,0-0.288-0.063-0.431-0.063c-0.144,0-0.288-0.383-0.432-0.383s-0.287,0.335-0.437,0.335c-0.139,0-0.287,0.08-0.431,0.08
			s-0.288-0.187-0.431-0.187c-0.149,0-0.245,0.075-0.39,0.075C28.223,20.667,28.133,20.571,28.133,20.656z M14.106,11.813
			c-0.016,0.16,0.038,0.383,0.026,0.532c-0.016,0.16-0.133,0.303-0.149,0.447c-0.016,0.16,0.139,0.335,0.123,0.479
			c-0.016,0.16-0.218,0.287-0.24,0.436c-0.021,0.149-0.133,0.277-0.165,0.426c-0.038,0.144-0.021,0.293-0.048,0.426
			c-0.032,0.144-0.176,0.271-0.197,0.399c-0.021,0.144,0.048,0.313,0.026,0.441c-0.016,0.149,0.106,0.314,0.101,0.447
			c-0.005,0.149,0.293,0.271,0.303,0.404c0.021,0.149-0.139,0.298-0.096,0.415c0.043,0.139,0.128,0.229,0.202,0.341
			c0.08,0.112-0.032,0.447,0.085,0.532c0.106,0.075,0.34,0.01,0.479,0.064c0.117,0.053,0.266,0.08,0.405,0.117
			c0.127,0.037,0.255,0.181,0.399,0.202c0.133,0.021,0.282-0.011,0.425,0.005c0.133,0.011,0.266,0.187,0.42,0.197
			c0.128,0,0.277,0,0.426,0.011c0.149,0,0.303-0.394,0.453-0.394c0.144,0,0.303,0.276,0.442,0.266c0.149,0,0.292-0.096,0.441-0.101
			c0.144-0.005,0.303,0.048,0.442,0.037c0.148-0.011,0.303,0.064,0.452,0.053c0.144-0.01,0.261-0.335,0.405-0.351
			c0.144-0.016,0.303,0.075,0.452,0.063c0.138-0.021,0.304,0.08,0.447,0.064c0.144-0.016,0.25-0.404,0.394-0.425
			c0.144-0.011,0.298,0.042,0.447,0.032c0.139-0.021,0.288-0.085,0.431-0.096c0.144-0.016,0.325,0.261,0.463,0.245
			c0.149-0.011,0.288-0.144,0.431-0.154c0.144-0.016,0.298,0.101,0.441,0.101c0.149-0.011,0.288-0.341,0.437-0.341
			c0.138-0.005,0.298,0.341,0.442,0.341c0.144,0,0.292-0.08,0.441-0.075c0.138,0.005,0.303-0.138,0.447-0.127
			c0.144,0.01,0.271,0.239,0.42,0.255c0.144,0.016,0.314-0.181,0.453-0.17c0.144,0.021,0.255,0.256,0.404,0.271
			c0.144,0.016,0.319-0.25,0.458-0.234c0.139,0.017,0.276,0.069,0.415,0.08c0.149,0.011,0.282,0.074,0.426,0.085
			c0.144,0.01,0.288-0.048,0.436-0.037c0.139,0.01,0.277,0.127,0.415,0.133c0.149,0.005,0.287,0.117,0.431,0.122
			c0.145,0.005,0.288-0.085,0.432-0.085c0.148,0,0.287,0.075,0.437,0.075c0.139,0,0.281-0.154,0.42-0.165
			c0.144,0,0.277-0.075,0.421-0.085s0.298,0.176,0.447,0.165c0.139-0.016,0.313,0.187,0.457,0.165
			c0.144-0.027,0.239-0.33,0.384-0.351c0.138-0.032,0.356,0.282,0.494,0.245c0.138-0.032,0.219-0.314,0.356-0.351
			c0.144-0.042,0.282-0.064,0.421-0.112s0.324,0.048,0.462,0c0.129-0.048,0.129-0.441,0.267-0.495
			c0.139-0.063,0.432,0.149,0.607,0.16c0.138,0,0.275-0.08,0.414-0.074c0.139,0.011,0.266,0.181,0.404,0.191
			c0.145,0.011,0.288-0.085,0.426-0.074c0.139,0.01,0.266,0.212,0.399,0.223c0.138,0.011,0.293-0.255,0.432-0.245
			c0.138,0.01,0.266,0.154,0.404,0.165c0.138,0.011,0.266,0.266,0.403,0.271c0.139,0.005,0.267,0.096,0.41,0.102
			c0.139,0.005,0.282-0.128,0.421-0.123s0.287-0.34,0.425-0.335c0.139,0.005,0.267,0.373,0.405,0.378s0.276,0.042,0.42,0.042
			c0.139,0,0.276-0.197,0.415-0.197c0.128,0,0.335-0.021,0.489-0.154c0.123-0.106,0.197-0.288,0.287-0.426
			c0.107-0.159,0.367-0.298,0.384-0.437c0.021-0.143-0.388-0.33-0.378-0.479c0.011-0.144,0.133-0.277,0.139-0.42
			c0.005-0.144,0.181-0.287,0.181-0.431c0-0.149,0.031-0.298,0.021-0.437c0-0.148-0.276-0.287-0.276-0.436
			c0-0.144-0.08-0.298-0.08-0.436c0-0.149,0.409-0.288,0.414-0.437c0.006-0.148-0.286-0.255-0.313-0.372
			c-0.032-0.144,0.266-0.442,0.191-0.542c-0.074-0.112-0.425,0.021-0.548-0.032c-0.111-0.053-0.207-0.149-0.352-0.17
			c-0.122-0.011-0.261-0.069-0.403-0.059c-0.144,0.011-0.267,0.325-0.41,0.335c-0.144,0.021-0.298-0.032-0.447-0.011
			c-0.139,0.011-0.336-0.367-0.479-0.351c-0.149,0.016-0.288,0.085-0.437,0.096c-0.138,0.021-0.256,0.41-0.404,0.426
			c-0.144,0.011-0.309-0.17-0.458-0.17c-0.139,0.011-0.287-0.021-0.425-0.021c-0.149,0.01-0.288,0.074-0.432,0.085
			c-0.144,0.005-0.276,0.255-0.42,0.261c-0.149,0.005-0.298-0.288-0.447-0.282c-0.145,0.006-0.282,0.106-0.426,0.112
			s-0.288-0.026-0.437-0.026c-0.138,0.011-0.276,0.234-0.415,0.234c-0.149,0.011-0.303-0.292-0.447-0.288
			c-0.144,0.005-0.286,0.16-0.425,0.171c-0.149,0-0.288,0.117-0.427,0.127c-0.148,0.01-0.309-0.415-0.451-0.405
			c-0.145,0-0.271,0.453-0.421,0.458c-0.139,0.005-0.298-0.309-0.441-0.309c-0.145,0.011-0.283,0.086-0.426,0.091
			c-0.144,0.005-0.293-0.011-0.432-0.005c-0.148,0.005-0.303-0.181-0.446-0.176c-0.144,0.005-0.282,0.165-0.426,0.17
			c-0.148,0.006-0.277,0.378-0.415,0.389c-0.149,0.005-0.304-0.234-0.448-0.224c-0.143,0-0.223,0.277-0.372,0.314
			c-0.144,0.038-0.394-0.293-0.532-0.245c-0.143,0.042-0.292-0.016-0.436,0.011c-0.139,0.037-0.229,0.218-0.373,0.207
			c-0.149,0-0.277-0.149-0.426-0.17c-0.149-0.027-0.324,0.123-0.468,0.09c-0.149-0.027-0.287-0.09-0.436-0.127
			c-0.149-0.032-0.351,0.207-0.5,0.186c-0.149-0.037-0.288-0.069-0.432-0.09c-0.148-0.026-0.266-0.229-0.415-0.245
			c-0.144-0.016-0.288-0.059-0.432-0.08c-0.148-0.01-0.309,0.192-0.457,0.17c-0.144-0.01-0.261-0.34-0.41-0.351
			c-0.149-0.01-0.304,0.144-0.453,0.128c-0.149-0.011-0.303,0.032-0.447,0.016c-0.143-0.011-0.297,0.069-0.446,0.058
			c-0.139-0.01-0.288,0-0.437-0.01c-0.143-0.016-0.255-0.441-0.404-0.453c-0.144-0.016-0.319,0.357-0.468,0.346
			c-0.154-0.01-0.266-0.404-0.41-0.42c-0.144-0.016-0.298,0.059-0.441,0.048c-0.149-0.011-0.288-0.16-0.425-0.17
			c-0.149-0.01-0.335,0.49-0.479,0.474c-0.149-0.017-0.266-0.362-0.415-0.373c-0.138-0.01-0.276-0.149-0.426-0.159
			c-0.144-0.017-0.309,0.239-0.458,0.229s-0.309,0.165-0.458,0.154c-0.149-0.016-0.25-0.548-0.399-0.559
			c-0.149-0.011-0.314,0.255-0.463,0.245c-0.149-0.016-0.314,0.149-0.463,0.149c-0.165,0-0.314-0.303-0.463-0.298
			C14.474,11.743,14.245,11.813,14.106,11.813z M51.902,5.512c-0.133,0.042-0.297,0.17-0.404,0.202
			c-0.127,0.042-0.271-0.021-0.388,0.021c-0.139,0.042-0.224,0.245-0.362,0.292c-0.139,0.043-0.325-0.085-0.464-0.048
			c-0.138,0.048-0.303,0.011-0.441,0.048c-0.139,0.043-0.261,0.123-0.398,0.165c-0.139,0.042-0.31-0.032-0.447,0.005
			s-0.256,0.165-0.394,0.207c-0.138,0.038-0.234,0.213-0.383,0.245c-0.139,0.038-0.202,0.362-0.341,0.394
			c-0.139,0.037-0.33-0.102-0.469-0.064c-0.139,0.043-0.271,0.112-0.409,0.149c-0.139,0.032-0.356-0.245-0.5-0.208
			c-0.139,0.032-0.24,0.239-0.379,0.266c-0.138,0.032-0.275,0.08-0.414,0.117C45.57,7.337,45.4,7.247,45.262,7.279
			c-0.139,0.037-0.277,0.117-0.415,0.139c-0.139,0.032-0.314-0.091-0.452-0.064c-0.139,0.032-0.282,0.064-0.421,0.096
			c-0.149,0.026-0.207,0.447-0.351,0.468c-0.149,0.032-0.33-0.208-0.479-0.186C43,7.758,42.878,7.869,42.734,7.896
			c-0.145,0.032-0.293-0.016-0.442,0.011c-0.138,0.021-0.297-0.042-0.441-0.021c-0.144,0.021-0.229,0.361-0.377,0.383
			c-0.145,0.021-0.299-0.059-0.441-0.037c-0.145,0.021-0.304-0.069-0.442-0.048c-0.149,0.021-0.234,0.404-0.384,0.431
			c-0.138,0.021-0.298-0.038-0.436-0.017c-0.145,0.021-0.282,0.085-0.426,0.106c-0.139,0.011-0.319-0.255-0.463-0.234
			c-0.144,0.016-0.271,0.154-0.415,0.17s-0.303-0.085-0.441-0.074c-0.149,0.01-0.256,0.351-0.394,0.372
			c-0.149,0.011-0.325-0.314-0.469-0.298c-0.148,0.016-0.277,0.111-0.426,0.123c-0.139,0.01-0.266,0.186-0.415,0.197
			c-0.145,0.01-0.304-0.191-0.447-0.181c-0.148,0.011-0.276,0.245-0.414,0.25c-0.149,0.01-0.309-0.197-0.453-0.187
			c-0.144,0.016-0.271,0.304-0.415,0.314c-0.144,0.011-0.293-0.021-0.441-0.016c-0.139,0.011-0.293-0.032-0.437-0.021
			c-0.144,0.01-0.281,0.085-0.426,0.095c-0.149,0-0.298-0.095-0.436-0.09c-0.149,0.005-0.294-0.095-0.437-0.09
			c-0.144,0.005-0.282,0.106-0.427,0.106c-0.138,0.006-0.286-0.063-0.425-0.063c-0.139,0.01-0.282,0.149-0.427,0.159
			c-0.143,0-0.281,0.064-0.425,0.064c-0.149,0-0.287-0.203-0.426-0.203c-0.149,0-0.287-0.218-0.432-0.218
			c-0.143,0-0.287,0.282-0.425,0.282c-0.145,0-0.282-0.351-0.42-0.351c-0.149,0-0.288,0.255-0.438,0.255
			c-0.144-0.011-0.281-0.021-0.426-0.027c-0.144-0.005-0.276-0.154-0.425-0.159c-0.138-0.005-0.288,0.356-0.436,0.346
			c-0.144,0-0.277-0.139-0.42-0.149c-0.144,0-0.293,0.085-0.431,0.08c-0.149-0.005-0.277-0.176-0.426-0.187
			c-0.144-0.01-0.287,0.096-0.431,0.085c-0.144,0-0.271-0.213-0.415-0.213c-0.143-0.011-0.303,0.255-0.441,0.245
			c-0.144-0.01-0.276-0.149-0.42-0.16c-0.144,0-0.271-0.266-0.41-0.271c-0.144-0.005-0.277-0.09-0.426-0.102
			c-0.138-0.01-0.287,0.117-0.426,0.117c-0.149-0.016-0.309,0.33-0.452,0.319s-0.261-0.383-0.41-0.388
			c-0.139-0.016-0.277-0.059-0.415-0.069c-0.149-0.011-0.303,0.181-0.442,0.17c-0.144-0.01-0.277-0.095-0.42-0.106
			c-0.148-0.01-0.287,0.043-0.436,0.038c-0.144-0.011-0.271-0.197-0.416-0.208c-0.143-0.011-0.309,0.404-0.458,0.394
			c-0.138-0.01-0.276-0.127-0.415-0.138c-0.144-0.011-0.266-0.197-0.415-0.208c-0.144-0.016-0.288-0.048-0.431-0.059
			s-0.314,0.255-0.452,0.24c-0.149-0.011-0.298,0.047-0.442,0.037c-0.144-0.011-0.25-0.431-0.394-0.447
			c-0.144-0.01-0.313,0.256-0.463,0.24c-0.144-0.016-0.245-0.431-0.388-0.442c-0.144-0.021-0.325,0.298-0.463,0.277
			c-0.149-0.011-0.277-0.106-0.426-0.127c-0.144-0.011-0.276-0.091-0.42-0.112c-0.144-0.027-0.335,0.25-0.474,0.229
			c-0.138-0.021-0.277-0.106-0.42-0.127c-0.144-0.021-0.219-0.447-0.357-0.469c-0.149-0.021-0.298,0.006-0.437-0.021
			c-0.144-0.032-0.356,0.319-0.5,0.292c-0.144-0.026-0.245-0.245-0.388-0.277c-0.144-0.037-0.271-0.106-0.416-0.132
			c-0.138-0.032-0.292-0.005-0.441-0.032c-0.138-0.032-0.335,0.165-0.474,0.127c-0.144-0.032-0.213-0.361-0.351-0.394
			c-0.138-0.037-0.304,0.011-0.441-0.021C10.046,7.215,9.908,7.14,9.77,7.103C9.631,7.066,9.435,7.231,9.291,7.188
			C9.152,7.151,9.11,6.811,8.966,6.768c-0.139-0.048-0.325,0.053-0.453,0C8.376,6.726,8.205,6.789,8.062,6.747
			c-0.138-0.048-0.133-0.5-0.266-0.553c-0.138-0.048-0.42,0.319-0.559,0.271C7.104,6.417,7.077,6.06,6.939,6.012
			C6.811,5.959,6.646,5.97,6.513,5.917C6.38,5.863,6.252,5.789,6.12,5.736C5.986,5.677,5.928,5.438,5.8,5.385
			C5.672,5.331,5.481,5.406,5.348,5.342C5.215,5.283,4.933,5.555,4.8,5.491C4.667,5.433,4.64,5.14,4.512,5.076
			C4.385,5.022,4.225,5.235,4.087,5.214C3.948,5.204,3.842,4.81,3.704,4.81c-0.139,0.01-0.287-0.096-0.42-0.085
			C3.145,4.73,2.959,4.938,2.82,4.938C2.857,5.076,2.73,5.31,2.751,5.459C2.772,5.608,2.959,5.736,2.985,5.89
			c0.021,0.154,0.011,0.314,0.042,0.463c0.038,0.149,0.341,0.213,0.389,0.351c0.053,0.144,0.09,0.245,0.17,0.367
			c0.075,0.106,0,0.298,0.117,0.389c0.096,0.085,0.187,0.181,0.309,0.25c0.106,0.059,0.319-0.08,0.442-0.026
			c0.122,0.053,0.127,0.399,0.255,0.441C4.837,8.173,5.023,8.056,5.14,8.093c0.139,0.042,0.288,0.032,0.42,0.08
			c0.133,0.042,0.293,0,0.426,0.048C6.12,8.263,6.257,8.29,6.391,8.332c0.133,0.048,0.128,0.49,0.261,0.532
			C6.79,8.907,7.045,8.588,7.173,8.636c0.139,0.048,0.139,0.452,0.276,0.5c0.128,0.042,0.288,0.011,0.426,0.059
			C8.008,9.237,8.099,9.413,8.227,9.46c0.138,0.042,0.426-0.404,0.559-0.362c0.133,0.048,0.165,0.41,0.298,0.452
			c0.133,0.038,0.234,0.208,0.373,0.245C9.589,9.833,9.802,9.61,9.929,9.647c0.139,0.032,0.314-0.112,0.453-0.08
			c0.138,0.032,0.154,0.575,0.292,0.606c0.138,0.027,0.335-0.212,0.474-0.181c0.138,0.026,0.303-0.117,0.441-0.096
			c0.139,0.021,0.234,0.34,0.373,0.362c0.149,0.021,0.314-0.128,0.453-0.106c0.143,0.021,0.271,0.133,0.409,0.154
			c0.144,0.021,0.266,0.187,0.405,0.208c0.149,0.021,0.319-0.255,0.468-0.234c0.144,0.017,0.261,0.234,0.399,0.245
			c0.144,0.021,0.271,0.127,0.415,0.154c0.144,0.016,0.341-0.394,0.484-0.378s0.234,0.468,0.378,0.479
			c0.144,0.021,0.298-0.101,0.441-0.085c0.149,0.016,0.277,0.096,0.426,0.112c0.139,0.016,0.293-0.069,0.437-0.047
			c0.144,0.01,0.298-0.107,0.447-0.091c0.139,0.016,0.266,0.133,0.415,0.149c0.139,0.016,0.256,0.25,0.404,0.261
			c0.144,0.016,0.33-0.388,0.469-0.373c0.148,0.016,0.276,0.181,0.415,0.191c0.139,0.021,0.293-0.048,0.437-0.032
			c0.144,0.021,0.261,0.255,0.404,0.277c0.144,0.011,0.288,0.011,0.437,0.021c0.138,0.021,0.292-0.021,0.431-0.01
			c0.144,0.01,0.292-0.054,0.436-0.042c0.144,0.021,0.293,0.005,0.431,0.021c0.149,0.021,0.266,0.276,0.405,0.288
			c0.149,0.01,0.324-0.33,0.468-0.32c0.149,0.011,0.255,0.357,0.394,0.373c0.149,0.017,0.288,0.011,0.437,0.021
			c0.144,0.021,0.304-0.181,0.447-0.165c0.149,0.016,0.298-0.096,0.437-0.08c0.128,0.011,0.208,0.117,0.341,0.096
			c0.122-0.021,0.34,0.287,0.463,0.25c0.127-0.038,0.122-0.538,0.25-0.569c0.133-0.037,0.34,0.255,0.458,0.245
			c0.139-0.01,0.335-0.223,0.447-0.17c0.127,0.064,0.202,0.235,0.33,0.277c0.128,0.053,0.191,0.367,0.325,0.404
			c0.138,0.032,0.346-0.255,0.484-0.234c0.139,0.027,0.256,0.255,0.394,0.266c0.144,0.01,0.298-0.303,0.437-0.303
			c0.138,0,0.276,0.154,0.425,0.154c0.139-0.011,0.267-0.16,0.405-0.17c0.138-0.011,0.309,0.234,0.446,0.218
			c0.139-0.016,0.262-0.202,0.399-0.218c0.139-0.016,0.304,0.213,0.441,0.192c0.139-0.011,0.277,0.026,0.427,0.01
			c0.138-0.01,0.292,0.042,0.431,0.032c0.138-0.017,0.239-0.383,0.378-0.399c0.138-0.016,0.271-0.069,0.409-0.09
			c0.144-0.021,0.282-0.016,0.421-0.037c0.139-0.027,0.255-0.154,0.394-0.176c0.139-0.021,0.277-0.053,0.414-0.074
			c0.139-0.021,0.271-0.075,0.41-0.102c0.139-0.016,0.282-0.037,0.421-0.059c0.139-0.01,0.309,0.298,0.447,0.282
			c0.138-0.011,0.266-0.176,0.409-0.186c0.144,0,0.288,0.09,0.432,0.09c0.148,0.005,0.276,0.106,0.425,0.117
			c0.139,0.011,0.287-0.09,0.437-0.08c0.144,0.021,0.271,0.17,0.415,0.187c0.144,0.016,0.319-0.261,0.457-0.25
			c0.139,0.01,0.267,0.25,0.41,0.255c0.145,0.005,0.288-0.138,0.431-0.138c0.145,0,0.271-0.086,0.416-0.102
			c0.149-0.016,0.324,0.271,0.468,0.261c0.144-0.016,0.266-0.239,0.41-0.255c0.144-0.016,0.292-0.021,0.431-0.037
			c0.149-0.016,0.313,0.149,0.458,0.133c0.144-0.021,0.309,0.063,0.447,0.042c0.148-0.021,0.234-0.447,0.371-0.468
			c0.149-0.021,0.299,0,0.442-0.021s0.324,0.191,0.463,0.17c0.149-0.021,0.298-0.01,0.441-0.031c0.145-0.027,0.24-0.277,0.389-0.304
			c0.144-0.026,0.34,0.25,0.479,0.229c0.149-0.032,0.203-0.506,0.342-0.532c0.138-0.032,0.298-0.021,0.436-0.042
			c0.139-0.032,0.319,0.117,0.463,0.09s0.303,0,0.441-0.032c0.139-0.037,0.304,0.017,0.441-0.016
			c0.139-0.032,0.234-0.266,0.379-0.298c0.139-0.038,0.329,0.127,0.468,0.09c0.139-0.031,0.207-0.356,0.351-0.399
			c0.149-0.037,0.256-0.159,0.395-0.202c0.138-0.038,0.384,0.287,0.521,0.245c0.138-0.038,0.267-0.117,0.404-0.16
			c0.138-0.038,0.276-0.075,0.421-0.123c0.138-0.037,0.292-0.032,0.431-0.08c0.138-0.042,0.271-0.102,0.415-0.139
			c0.139-0.048,0.314,0.032,0.452-0.01c0.138-0.048,0.261-0.149,0.398-0.197c0.139-0.048,0.288-0.059,0.421-0.112
			c0.133-0.054,0.144-0.468,0.282-0.522c0.138-0.053,0.256-0.16,0.383-0.212c0.149-0.048,0.277-0.075,0.394-0.128
			c0.139-0.069,0.362,0.074,0.469,0.011c0.133-0.085,0.298-0.139,0.378-0.245c0.091-0.106,0.068-0.287,0.111-0.431
			c0.032-0.128-0.111-0.256-0.117-0.41c-0.005-0.127,0.128-0.266,0.107-0.426c-0.022-0.122-0.24-0.212-0.277-0.361
			C51.722,5.938,51.945,5.661,51.902,5.512z M41.446,30.767c-0.111,0-0.139,0.058-0.25,0.058c0,0.144-0.106,0.282-0.106,0.432
			c0,0.139,0.17,0.287,0.17,0.425c0,0.139-0.186,0.288-0.186,0.426c0,0.139-0.08,0.288-0.08,0.427c0,0.138,0.032,0.286,0.032,0.425
			c0,0.149-0.112,0.293-0.112,0.431c0,0.145,0.091,0.288,0.091,0.427c0,0.144,0.127,0.292,0.127,0.431s0.299,0.288,0.299,0.425
			c0,0.145-0.181,0.288-0.181,0.427c0,0.148,0.042,0.287,0.042,0.425c0,0.139-0.319,0.294-0.319,0.432s0.171,0.287,0.171,0.426
			s0.011,0.292,0.011,0.431s-0.117,0.288-0.117,0.426c0,0.139,0.047,0.287,0.047,0.426s-0.159,0.287-0.159,0.426
			c0,0.149,0.011,0.288,0.011,0.425c0,0.145,0.394,0.294,0.394,0.432c0,0.139-0.271,0.287-0.271,0.432
			c0,0.138,0.086,0.286,0.086,0.425s-0.063,0.288-0.063,0.427c0,0.138-0.086,0.286-0.086,0.425s0.313,0.288,0.313,0.426
			c0,0.149-0.105,0.293-0.105,0.432s-0.118,0.287-0.118,0.425c0,0.145,0.373,0.293,0.373,0.431c0,0.139-0.068,0.288-0.068,0.427
			c0,0.143,0.048,0.287,0.048,0.426c0,0.148-0.293,0.287-0.293,0.425c0,0.139,0.127,0.288,0.127,0.432
			c0,0.139-0.127,0.287-0.127,0.426c0,0.144,0.324,0.292,0.324,0.431s-0.346,0.288-0.346,0.426c0,0.144,0.085,0.287,0.085,0.426
			s0.159,0.288,0.159,0.425c0,0.149-0.223,0.288-0.223,0.438c0,0.144,0.223,0.292,0.223,0.437c0,0.143-0.223,0.287-0.223,0.436
			c0,0.139,0.282,0.287,0.282,0.432c0,0.144-0.037,0.287-0.037,0.431c0,0.149-0.043,0.287-0.038,0.436
			c0.005,0.139,0.09,0.283,0.096,0.427c0.011,0.139-0.048,0.271,0.037,0.425c0.102,0.171,0.139,0.362,0.256,0.389
			c0.122,0.038,0.267-0.101,0.437-0.186c0.159-0.085,0.329-0.139,0.394-0.251c0.074-0.133,0.021-0.34,0.096-0.473
			c0.069-0.134,0.091-0.293,0.159-0.426c0.074-0.133,0.325-0.17,0.395-0.309c0.063-0.139,0.33-0.197,0.383-0.341
			c0.059-0.148-0.16-0.383-0.128-0.532c0.042-0.148,0.41-0.244,0.426-0.404c0.011-0.138-0.229-0.309-0.224-0.452
			c0.012-0.144,0.032-0.288,0.043-0.431c0.011-0.149,0.165-0.288,0.17-0.427c0.006-0.148-0.351-0.309-0.346-0.452
			c0.006-0.143,0.145-0.281,0.145-0.431c0.01-0.139-0.086-0.287-0.086-0.431s0.176-0.282,0.176-0.427
			c0-0.143-0.106-0.292-0.106-0.431c0-0.148,0.202-0.287,0.202-0.436c0-0.145-0.271-0.287-0.271-0.432
			c0-0.144,0.138-0.293,0.138-0.431c0-0.149,0.245-0.293,0.245-0.437s0.086-0.287,0.086-0.431c0-0.145-0.139-0.293-0.139-0.432
			c0-0.148-0.341-0.297-0.341-0.441c0-0.144,0.372-0.282,0.372-0.431c0-0.139,0.048-0.288,0.048-0.426
			c0.006-0.148-0.187-0.298-0.187-0.442c0.012-0.143,0.097-0.281,0.107-0.431c0.011-0.139-0.048-0.287-0.037-0.436
			c0.011-0.145,0.196-0.271,0.218-0.416c0.011-0.143-0.404-0.329-0.394-0.468c0.011-0.144,0.139-0.266,0.154-0.404
			c0.011-0.139,0.197-0.267,0.208-0.404c0.01-0.139,0.042-0.277,0.052-0.415c0.006-0.139-0.255-0.288-0.249-0.426
			c0.005-0.139-0.069-0.277-0.06-0.415c0-0.144,0.416-0.271,0.416-0.41c0-0.138-0.277-0.282-0.277-0.421
			c0-0.137,0.394-0.275,0.394-0.414s-0.329-0.277-0.329-0.415c0-0.139,0.074-0.277,0.074-0.42c0-0.139,0.054-0.277,0.054-0.416
			s-0.309-0.271-0.309-0.41c0-0.138,0.063-0.275,0.063-0.414s0.399-0.288,0.399-0.427c0-0.138-0.069-0.286-0.08-0.42
			c-0.011-0.133-0.415-0.218-0.437-0.361c-0.021-0.133,0.149-0.298,0.122-0.431c-0.021-0.134,0-0.277-0.021-0.416
			c-0.021-0.127-0.102-0.266-0.117-0.394c-0.016-0.139-0.266-0.276-0.271-0.404c-0.005-0.139,0.298-0.277,0.318-0.42
			c0.012-0.139-0.068-0.288-0.052-0.427c0.01-0.138,0.063-0.275,0.074-0.42c0.011-0.138-0.187-0.297-0.176-0.436
			c0.017-0.138,0.335-0.245,0.346-0.394c0.011-0.138-0.122-0.292-0.106-0.431c0.011-0.139-0.086-0.293-0.074-0.431
			c0.011-0.138,0.446-0.245,0.457-0.383c0.012-0.139-0.42-0.32-0.409-0.458s0.346-0.255,0.356-0.394
			c0.011-0.139-0.054-0.288-0.043-0.426s0.043-0.277,0.054-0.426c0.011-0.138,0.213-0.266,0.224-0.41
			c0-0.139-0.139-0.288-0.128-0.431c0.01-0.144-0.362-0.298-0.351-0.437c0.004-0.138,0.26-0.266,0.266-0.415
			c0.005-0.138-0.245-0.282-0.245-0.426c0-0.138,0.394-0.276,0.394-0.425c0-0.138,0.106-0.277,0.106-0.426
			c0-0.138-0.181-0.276-0.181-0.42c-0.011-0.138,0.128-0.287,0.117-0.426c-0.006-0.138-0.187-0.271-0.191-0.42
			c-0.006-0.138,0.016-0.276,0.005-0.415c-0.011-0.144-0.304-0.255-0.313-0.394c-0.011-0.144-0.027-0.282-0.038-0.42
			c-0.016-0.138,0.155-0.303,0.139-0.441c-0.016-0.139,0-0.277-0.021-0.415c-0.022-0.139-0.256-0.245-0.277-0.383
			c-0.026-0.139,0.266-0.335,0.24-0.474c-0.022-0.117-0.139-0.239-0.081-0.367c0.059-0.117,0.059-0.245,0.091-0.367
			c0.027-0.107-0.01-0.266,0.021-0.395c0.043-0.159,0.102-0.101,0.043-0.159c-0.107-0.112,0.138-0.474,0.068-0.58
			c-0.08-0.127-0.484-0.096-0.516-0.224c-0.043-0.138,0.319-0.314,0.33-0.452c0-0.133-0.064-0.25-0.027-0.383
			c0.037-0.128,0.207-0.197,0.256-0.325c0.048-0.117-0.357-0.452-0.298-0.58c0.059-0.123,0.421-0.112,0.473-0.239
			c0.07-0.154,0.245-0.271,0.277-0.405c0.048-0.165-0.196-0.362-0.207-0.495c-0.011-0.165-0.187-0.148-0.282-0.26
			c-0.091-0.106,0.063-0.607-0.097-0.66c-0.127-0.042-0.36,0.191-0.526,0.181c-0.139-0.011-0.276,0.159-0.441,0.17
			c-0.171,0.011-0.361-0.261-0.494-0.234c-0.166,0.042-0.257,0.255-0.379,0.319c-0.149,0.08-0.319,0.106-0.415,0.224
			c-0.085,0.117-0.298,0.223-0.352,0.372c-0.042,0.133,0.214,0.357,0.192,0.517c-0.011,0.138-0.213,0.282-0.213,0.452
			c0,0.144-0.096,0.287-0.091,0.426c0,0.144,0.432,0.282,0.442,0.426c0,0.149-0.437,0.287-0.437,0.436
			c0,0.139,0.144,0.282,0.144,0.426c0,0.144-0.059,0.282-0.059,0.426c0,0.149,0.096,0.288,0.096,0.425
			c0,0.149,0.139,0.288,0.139,0.431s-0.096,0.282-0.096,0.426c0,0.143-0.218,0.292-0.218,0.431c0,0.138,0.42,0.277,0.42,0.426
			c0,0.144-0.148,0.282-0.148,0.426c0,0.144,0.079,0.287,0.079,0.425c0,0.149-0.229,0.287-0.229,0.431
			c0,0.144,0.016,0.282,0.016,0.426s0.059,0.282,0.059,0.431c0,0.138,0.085,0.277,0.085,0.426c0,0.143,0.021,0.282,0.021,0.426
			c0,0.143-0.245,0.282-0.245,0.425c0,0.149,0.362,0.287,0.362,0.426c0,0.149-0.324,0.287-0.324,0.431
			c0,0.144,0.016,0.282,0.016,0.425c0,0.144,0.212,0.282,0.212,0.431c0,0.139,0.118,0.282,0.118,0.425
			c0,0.144-0.118,0.283-0.118,0.426c0,0.149-0.351,0.288-0.351,0.426c0,0.148,0.479,0.287,0.479,0.431s-0.335,0.282-0.335,0.426
			c0,0.144,0.25,0.282,0.25,0.431c0,0.139-0.122,0.276-0.128,0.425c0,0.144-0.281,0.282-0.281,0.426
			c0,0.144,0.324,0.288,0.324,0.426c-0.01,0.149-0.213,0.288-0.213,0.426c0,0.149,0.314,0.288,0.314,0.431s-0.154,0.282-0.154,0.431
			c0,0.138,0.138,0.276,0.138,0.425c0,0.144-0.261,0.282-0.261,0.426s0.176,0.282,0.166,0.426c0,0.149-0.246,0.287-0.246,0.426
			c0,0.148-0.048,0.287-0.048,0.432c0,0.143-0.068,0.281-0.068,0.425C41.25,30.543,41.446,30.628,41.446,30.767z M9.823,27.052
			c0.154,0,0.383-0.08,0.538-0.08c0,0.144-0.106,0.293-0.106,0.432c0,0.138,0.165,0.276,0.165,0.425
			c0,0.143-0.181,0.282-0.181,0.426c0,0.143-0.085,0.287-0.085,0.425c0,0.149,0.042,0.287,0.042,0.432
			c0,0.144-0.117,0.282-0.117,0.426c0,0.143,0.085,0.281,0.085,0.431c0,0.139,0.138,0.277,0.138,0.426
			c0,0.144,0.292,0.282,0.292,0.426s-0.175,0.281-0.175,0.426c0,0.149,0.037,0.287,0.037,0.425c0,0.149-0.325,0.288-0.325,0.432
			s0.17,0.282,0.17,0.432c0,0.138,0.021,0.276,0.021,0.425c0,0.139-0.122,0.282-0.122,0.427c0,0.143,0.048,0.281,0.048,0.425
			c0,0.149-0.16,0.287-0.16,0.426c0,0.149,0.011,0.287,0.011,0.432c0,0.143,0.394,0.281,0.394,0.425
			c0,0.145-0.271,0.282-0.271,0.431c0,0.139,0.09,0.277,0.09,0.427c0,0.143-0.069,0.281-0.069,0.426c0,0.144-0.09,0.286-0.09,0.425
			c0,0.149,0.319,0.288,0.319,0.432s-0.106,0.281-0.106,0.426c0,0.144-0.117,0.282-0.117,0.431c0,0.139,0.373,0.276,0.373,0.425
			c0,0.145-0.075,0.283-0.075,0.427s0.053,0.281,0.053,0.425c0,0.149-0.287,0.288-0.287,0.427c0,0.148,0.117,0.287,0.117,0.431
			s-0.128,0.281-0.128,0.426c0,0.144,0.33,0.282,0.33,0.431c0,0.139-0.341,0.282-0.341,0.426c0,0.145,0.08,0.281,0.08,0.426
			c0,0.149,0.154,0.288,0.154,0.426c0,0.148-0.212,0.287-0.212,0.431c0,0.145,0.224,0.282,0.224,0.426s-0.224,0.282-0.224,0.431
			c0,0.139,0.287,0.277,0.287,0.427c0,0.144-0.042,0.281-0.042,0.425c0,0.145-0.053,0.288-0.053,0.427
			c0,0.148,0.075,0.286,0.075,0.425c0,0.149-0.106,0.287-0.106,0.431c0,0.145-0.106,0.282-0.106,0.431
			c0,0.139,0.096,0.277,0.096,0.427c0,0.144-0.074,0.281-0.074,0.426c0,0.122,0.127,0.271,0.127,0.404
			c-0.005,0.159,0,0.133,0.08,0.213c0.102,0.106,0.059,0.351,0.166,0.446c0.106,0.102,0.063,0.362,0.17,0.464
			c0.117,0.101,0.415-0.017,0.521,0.079c0.117,0.102,0,0.457,0.106,0.554c0.112,0.096,0.394,0,0.5,0.096
			c0.112,0.096,0.218,0.202,0.33,0.303c0.048-0.116,0.245-0.164,0.319-0.292c0.069-0.128-0.175-0.426-0.107-0.543
			c0.069-0.128,0.245-0.181,0.288-0.298c0.064-0.159,0-0.191-0.042-0.292c-0.069-0.133,0.021-0.342-0.026-0.469
			c-0.048-0.139-0.197-0.25-0.219-0.383c-0.031-0.139,0.149-0.309,0.139-0.442c-0.01-0.148-0.276-0.287-0.276-0.426
			c0.01-0.138,0.159-0.281,0.181-0.42c0.021-0.139,0.292-0.229,0.319-0.356c0.032-0.139,0.138-0.244,0.181-0.383
			c0.037-0.139-0.064-0.309-0.021-0.441c0.032-0.134-0.266-0.368-0.224-0.501c0.042-0.165,0.415-0.288,0.42-0.463
			c0.005-0.181,0.032-0.372,0.021-0.543c-0.005-0.144-0.218-0.271-0.218-0.415c-0.011-0.144,0.064-0.282,0.059-0.425
			c-0.006-0.139-0.085-0.277-0.091-0.416c-0.005-0.139,0.171-0.287,0.16-0.437c-0.01-0.138-0.447-0.255-0.452-0.394
			c-0.011-0.138,0.101-0.287,0.09-0.425c-0.01-0.139,0.16-0.288,0.149-0.438c-0.011-0.138,0.01-0.275,0.005-0.42
			c-0.016-0.139-0.293-0.266-0.293-0.404c-0.011-0.139-0.096-0.277-0.101-0.415c-0.005-0.138,0.394-0.304,0.389-0.442
			c-0.011-0.138-0.298-0.266-0.309-0.403c-0.011-0.144,0.383-0.304,0.372-0.447c-0.005-0.144-0.351-0.261-0.351-0.399
			c-0.011-0.144,0.059-0.282,0.048-0.42c-0.006-0.139,0.047-0.287,0.037-0.426c-0.006-0.139-0.314-0.266-0.32-0.404
			c-0.01-0.139,0.048-0.282,0.048-0.42c-0.006-0.139,0.394-0.294,0.389-0.432c-0.006-0.139-0.064-0.276-0.064-0.415
			s-0.383-0.271-0.394-0.41c0-0.138,0.192-0.282,0.192-0.421c0-0.137,0.042-0.275,0.042-0.425c-0.011-0.139-0.064-0.277-0.069-0.415
			s-0.245-0.276-0.245-0.415s0.303-0.282,0.292-0.421c0-0.139-0.096-0.281-0.096-0.42c-0.011-0.139,0.021-0.276,0.021-0.415
			c0-0.148-0.218-0.287-0.224-0.431c-0.005-0.145,0.298-0.293,0.298-0.442c0-0.138-0.149-0.287-0.149-0.431
			s-0.112-0.287-0.112-0.432c0-0.143,0.432-0.287,0.432-0.425c0-0.149-0.437-0.298-0.437-0.442c0-0.144,0.335-0.282,0.335-0.425
			c0-0.144-0.069-0.293-0.059-0.432c0-0.148,0.032-0.292,0.032-0.436c0-0.144,0.203-0.282,0.208-0.426
			c0.005-0.149-0.138-0.298-0.138-0.436c0.005-0.149-0.356-0.304-0.346-0.447c0-0.144,0.256-0.277,0.266-0.426
			c0-0.139-0.245-0.287-0.245-0.436c0.011-0.144,0.404-0.277,0.41-0.42c0.005-0.144,0.112-0.288,0.112-0.431
			c0.011-0.138-0.16-0.288-0.16-0.437c0-0.144,0.139-0.287,0.139-0.431c0-0.144-0.171-0.293-0.166-0.431
			c0-0.149,0.037-0.288,0.037-0.437c0-0.144-0.276-0.287-0.276-0.431c0-0.144,0-0.292,0-0.431c0-0.149,0.181-0.287,0.17-0.436
			c0-0.144,0.032-0.288,0.026-0.432c-0.005-0.143-0.229-0.282-0.234-0.42c-0.005-0.149,0.303-0.309,0.292-0.452
			c-0.01-0.144-0.186-0.277-0.197-0.42c-0.016-0.149-0.085-0.288-0.096-0.426c-0.011-0.139-0.123-0.277-0.138-0.415
			c-0.016-0.144-0.059-0.277-0.069-0.42c-0.021-0.144,0.373-0.335,0.346-0.484c-0.021-0.144-0.42-0.223-0.452-0.362
			c-0.021-0.149,0.335-0.351,0.309-0.5c-0.027-0.139-0.139-0.266-0.17-0.405c-0.032-0.17,0.117-0.309,0.143-0.479
			c0.016-0.149-0.474-0.362-0.452-0.522c0.01-0.148,0.367-0.255,0.394-0.404c0.01-0.149,0.159-0.288,0.181-0.442
			c0.016-0.148-0.229-0.334-0.213-0.484c0.016-0.154-0.144-0.325-0.127-0.479c0.016-0.149,0.553-0.239,0.575-0.394
			c0.026-0.149-0.229-0.33-0.213-0.484c0.016-0.154-0.133-0.325-0.117-0.474c0.016-0.154,0.319-0.282,0.309-0.409
			c-0.011-0.155-0.208-0.266-0.256-0.383c-0.058-0.139-0.058-0.303-0.154-0.399c-0.09-0.101-0.165-0.309-0.292-0.378
			c-0.123-0.058-0.362,0.176-0.5,0.133c-0.133-0.032-0.234-0.25-0.373-0.271c-0.138-0.021-0.266-0.128-0.41-0.144
			c-0.16-0.021-0.271,0.41-0.383,0.431c-0.166,0.027-0.463-0.25-0.532-0.154c-0.069,0.107,0.011,0.341,0.005,0.479
			c-0.005,0.127-0.054,0.276-0.054,0.409c0.011,0.139,0.106,0.271,0.085,0.394c-0.032,0.17,0.075,0.367,0.053,0.538
			c-0.021,0.181-0.139,0.34-0.139,0.516c0,0.144-0.212,0.292-0.212,0.431c0,0.149,0.415,0.288,0.415,0.437
			c0,0.144-0.149,0.287-0.149,0.431c0,0.144,0.075,0.292,0.075,0.431c0,0.149-0.224,0.293-0.224,0.437s0.016,0.288,0.016,0.431
			s0.059,0.292,0.059,0.431c0,0.149,0.08,0.292,0.08,0.436c0,0.144,0.021,0.288,0.021,0.436c0,0.139-0.24,0.288-0.24,0.426
			c0,0.148,0.357,0.292,0.357,0.436c0,0.144-0.325,0.287-0.325,0.437c0,0.138,0.011,0.287,0.011,0.431
			c0,0.144,0.213,0.288,0.213,0.431s0.127,0.288,0.127,0.437c0,0.138-0.117,0.287-0.117,0.431c0,0.144-0.361,0.288-0.361,0.431
			c0,0.149,0.489,0.288,0.489,0.437c0,0.138-0.34,0.287-0.34,0.431c0,0.144,0.245,0.287,0.245,0.431
			c0,0.149-0.117,0.288-0.117,0.437c0,0.144-0.287,0.287-0.287,0.431c0,0.144,0.33,0.287,0.33,0.431
			c0,0.149-0.212,0.287-0.212,0.437c0,0.144,0.319,0.288,0.319,0.431s-0.16,0.292-0.16,0.431c0,0.149,0.138,0.287,0.138,0.436
			c0,0.144-0.255,0.288-0.255,0.431c0,0.144,0.17,0.293,0.17,0.432c0,0.148-0.245,0.287-0.245,0.436
			C9.727,26.675,9.823,26.903,9.823,27.052z M40.388,19.166c-0.011-0.191-0.111-0.425-0.122-0.612
			c-0.145-0.011-0.267-0.123-0.41-0.133c-0.139-0.011-0.287,0.149-0.426,0.139c-0.139-0.011-0.266-0.203-0.394-0.213
			c-0.144-0.01-0.277-0.106-0.415-0.117c-0.139-0.011-0.277,0.021-0.415,0.01c-0.139-0.01-0.266-0.138-0.404-0.138
			c-0.149-0.011-0.299,0.069-0.447,0.059c-0.144-0.005-0.298,0.122-0.441,0.117c-0.144-0.005-0.293,0.288-0.441,0.283
			c-0.139,0-0.288-0.181-0.431-0.181c-0.145,0-0.288,0.048-0.432,0.048c-0.148,0.005-0.298-0.314-0.447-0.314
			c-0.144,0.01-0.281,0.186-0.431,0.191c-0.145,0.005-0.293,0.027-0.432,0.042c-0.148,0-0.303-0.106-0.446-0.106
			c-0.145,0.011-0.287,0.069-0.431,0.075c-0.145,0.01-0.304-0.144-0.442-0.133c-0.149,0.01-0.293,0.026-0.436,0.037
			c-0.145,0.011-0.267,0.404-0.41,0.415c-0.145,0.011-0.304-0.255-0.453-0.245c-0.144,0-0.281,0.107-0.431,0.107
			c-0.144,0.01-0.292-0.054-0.441-0.048c-0.139,0.005-0.288-0.08-0.437-0.08c-0.144,0.011-0.282,0.325-0.426,0.325
			c-0.148,0-0.298-0.102-0.437-0.102c-0.148,0-0.292-0.117-0.436-0.117c-0.145,0-0.298,0.367-0.447,0.362s-0.298-0.085-0.442-0.096
			c-0.138,0-0.276,0.032-0.42,0.032c-0.138-0.01-0.266-0.298-0.41-0.309c-0.144-0.005-0.282,0.117-0.42,0.112
			c-0.138,0-0.276-0.127-0.415-0.127c-0.144,0-0.283,0.324-0.42,0.324c-0.139,0-0.282-0.335-0.42-0.335
			c-0.139,0-0.277,0.08-0.415,0.091c-0.139,0.005-0.277,0.16-0.416,0.165c-0.144,0.005-0.292-0.208-0.431-0.197
			c-0.139,0-0.271,0.223-0.41,0.229c-0.138,0.005-0.287-0.208-0.425-0.197c-0.138,0.005-0.266,0.292-0.404,0.298
			c-0.139,0.005-0.288-0.026-0.426-0.021c-0.139,0.005-0.282-0.032-0.42-0.032c-0.144,0.011-0.282,0.096-0.42,0.096
			c-0.139,0.01-0.277-0.096-0.426-0.085c-0.138,0.005-0.282-0.096-0.42-0.09c-0.138,0.005-0.276,0.106-0.415,0.112
			c-0.133,0.005-0.261-0.032-0.399,0.021c-0.117,0.053-0.17,0.245-0.298,0.309c-0.117,0.069-0.096,0.053-0.224,0.101
			c0.064,0.127-0.08,0.165-0.011,0.293c0.128-0.037,0.304,0.127,0.437,0.08c0.127-0.042,0.159-0.356,0.287-0.404
			s0.362,0.239,0.495,0.197c0.133-0.038,0.197-0.314,0.325-0.335c0.127-0.027,0.266-0.027,0.404-0.027
			c0.144,0.011,0.283,0.165,0.426,0.17c0.144,0.006,0.309-0.34,0.458-0.34c0.139,0.01,0.277,0.148,0.426,0.159
			c0.144,0.016,0.298-0.069,0.442-0.059c0.144,0.011,0.282,0.187,0.42,0.208c0.149,0.01,0.303-0.085,0.447-0.075
			s0.271,0.223,0.415,0.234c0.149,0.01,0.309-0.245,0.458-0.229c0.144,0.016,0.277,0.154,0.42,0.175
			c0.144,0.011,0.271,0.266,0.416,0.282c0.144,0.011,0.282,0.101,0.431,0.112s0.303-0.128,0.447-0.112
			c0.143,0.011,0.309-0.335,0.458-0.33c0.138,0.005,0.266,0.378,0.42,0.383c0.144,0.005,0.292,0.048,0.436,0.048
			c0.145,0,0.293-0.192,0.432-0.192c0.149,0,0.293,0.091,0.432,0.091c0.138,0,0.286-0.059,0.431-0.059
			c0.149,0,0.287,0.181,0.425,0.181c0.149,0,0.294-0.426,0.437-0.426c0.144,0,0.288,0.117,0.427,0.117
			c0.148,0,0.286,0.181,0.436,0.181c0.139,0,0.287,0.026,0.431,0.026c0.145,0,0.288-0.271,0.431-0.271
			c0.139,0,0.288-0.08,0.427-0.08s0.287,0.41,0.431,0.41s0.282-0.288,0.426-0.288s0.293,0.394,0.432,0.394
			c0.148,0,0.286-0.341,0.431-0.341c0.144,0,0.287,0.075,0.431,0.069c0.149,0,0.288,0.059,0.437,0.059
			c0.144,0,0.282-0.309,0.426-0.309s0.287,0.064,0.437,0.064c0.139,0,0.287,0.399,0.436,0.394c0.145,0,0.287-0.064,0.426-0.064
			c0.144,0,0.282-0.383,0.427-0.389c0.148,0,0.286,0.187,0.436,0.187c0.145,0,0.287,0.042,0.431,0.042
			c0.145,0,0.293-0.064,0.431-0.064c0.139,0,0.277-0.245,0.427-0.255c0.154,0,0.319,0.277,0.479,0.245
			c0.149-0.042,0.277-0.175,0.426-0.224C39.982,19.134,40.239,19.204,40.388,19.166z M51.009,19.065
			c-0.128-0.08-0.352-0.166-0.49-0.229c-0.127-0.064-0.234-0.213-0.372-0.266s-0.33,0.063-0.468,0.032
			c-0.149-0.032-0.256-0.245-0.405-0.266c-0.148-0.021-0.298-0.128-0.441-0.133c-0.148-0.011-0.314,0.037-0.463,0.037
			c-0.148,0.011-0.335-0.09-0.474-0.069c-0.154,0.021-0.313,0.154-0.441,0.197c-0.148,0.048-0.256,0.245-0.372,0.314
			c-0.139,0.09,0,0.112-0.064,0.229c0.133,0,0.064,0.063,0.208,0.063c0.133,0,0.271-0.037,0.403-0.037
			c0.134,0,0.271,0.325,0.405,0.325c0.133,0,0.271-0.176,0.409-0.176c0.134,0,0.277-0.016,0.416-0.016
			c0.128,0,0.266,0.122,0.403,0.122c0.139,0,0.277-0.048,0.416-0.048c0.133,0,0.271,0.16,0.409,0.16
			c0.134,0,0.271-0.011,0.415-0.011C50.631,19.294,50.864,19.065,51.009,19.065z M13.537,19.006
			c0.117,0.085,0.341,0.192,0.463,0.256c0.133,0.08,0.224,0.245,0.346,0.303c0.138,0.059,0.341-0.048,0.468-0.016
			c0.149,0.042,0.266,0.245,0.405,0.255c0.16,0.011,0.351,0.08,0.489,0.053c0.139-0.026,0.319-0.138,0.442-0.212
			c0.122-0.069,0.356-0.117,0.463-0.224c0.096-0.102,0.138-0.5,0.208-0.639c-0.144,0.011-0.453,0.059-0.601,0.064
			c-0.139,0.005-0.266,0.309-0.415,0.319c-0.139,0-0.293-0.17-0.437-0.16c-0.138,0.011-0.287,0.059-0.436,0.064
			c-0.138,0.005-0.298-0.309-0.447-0.298c-0.138,0-0.276,0.187-0.425,0.191C13.92,18.969,13.686,18.996,13.537,19.006z
			 M7.609,19.805c-0.011-0.106-0.08-0.288-0.091-0.394c-0.149,0-0.303-0.101-0.452-0.101c-0.148,0-0.309,0.165-0.458,0.165
			S6.3,19.294,6.151,19.294s-0.303-0.085-0.452-0.085c-0.154,0-0.304,0.043-0.453,0.043c-0.154,0-0.309-0.117-0.458-0.117
			S4.48,19.22,4.332,19.22c-0.149,0-0.33,0.143-0.479,0.143c0,0.107,0.175,0.048,0.181,0.154c0.144,0,0.154,0.139,0.298,0.139
			c0.149,0,0.288-0.037,0.437-0.037c0.143,0,0.287,0.325,0.431,0.325c0.154,0,0.314-0.17,0.474-0.17
			c0.154,0,0.309-0.021,0.468-0.021s0.309,0.122,0.474,0.122c0.154,0,0.314-0.048,0.474-0.048
			C7.242,19.826,7.46,19.805,7.609,19.805z"/>
	</g>
</g>
</svg>
