<?xml version="1.0" encoding="utf-8"?>
<!-- Generator: Adobe Illustrator 16.0.0, SVG Export Plug-In . SVG Version: 6.00 Build 0)  -->
<!DOCTYPE svg PUBLIC "-//W3C//DTD SVG 1.1//EN" "http://www.w3.org/Graphics/SVG/1.1/DTD/svg11.dtd">
<svg version="1.1" id="圖層_1" xmlns="http://www.w3.org/2000/svg" xmlns:xlink="http://www.w3.org/1999/xlink" x="0px" y="0px"
	 width="55px" height="55px" viewBox="0 0 55 55" enable-background="new 0 0 55 55" xml:space="preserve">
<g>
	<path fill="#9FBFC1" d="M30.079,20.48c0.45-0.715,0.918-1.377,1.283-2.082c0.988-1.887,1.22-2.061,3.285-1.44
		c1.114,0.336,2.171,0.894,3.207,1.44c0.373,0.195,0.609,0.668,0.956,1.083c-3.774,1.85-7.394,3.627-11.018,5.404
		c-0.047-0.053-0.097-0.1-0.152-0.147c0.313-0.326,0.667-0.61,0.909-0.978c0.131-0.2,0.05-0.525,0.065-0.799
		c-0.273,0.01-0.651-0.105-0.793,0.042c-1.333,1.272-2.544,2.676-3.948,3.853c-0.844,0.709-1.958,1.125-2.983,1.583
		c-0.082,0.042-0.702-0.631-0.646-0.862c0.877-3.753,2.747-6.792,6.392-8.468C27.74,18.609,28.387,18.825,30.079,20.48z"/>
	<path fill="#4F5F60" d="M28.742,29.48c0.791,0.205,1.156,0.368,1.534,0.389c1.953,0.105,2.808,0.726,2.912,2.545
		c0.056,0.909-0.344,1.84-0.564,2.754c-0.691,2.886-1.398,5.771-2.095,8.652c-0.037,0.168-0.056,0.474-0.126,0.489
		c-1.199,0.278-2.411,0.651-3.625,0.688c-0.376,0.011-1.096-0.936-1.112-1.461c-0.1-2.64-0.273-5.257,1.02-7.801
		C27.656,33.812,28.068,31.599,28.742,29.48z"/>
	<path fill="#4F5F60" d="M33.886,30.548c1.729,0,3.39-0.079,5.041,0.021c1.324,0.079,1.708,1.33,2.365,2.224
		c0.268,0.368,0.547,0.783,0.925,1.01c1.131,0.709,2.303,1.351,3.47,1.992c1.136,0.62,2.229,1.34,3.427,1.766
		c1.341,0.479,1.451,0.621,0.747,1.908c-0.6,1.104-1.377,1.524-2.66,1.346c-6.098-0.852-10.587-3.879-13.236-9.509
		c-0.058-0.116-0.095-0.247-0.123-0.373C33.825,30.857,33.859,30.773,33.886,30.548z"/>
	<path fill="#FFFFFF" d="M27.449,15.745c-0.97,0.625-1.695,1.172-2.484,1.577c-0.768,0.395-1.606,0.657-2.413,0.973
		c-0.076-0.121-0.152-0.242-0.229-0.363c0.218-0.5,0.471-0.988,0.642-1.509c0.065-0.2-0.074-0.473-0.116-0.704
		c-0.258,0.095-0.555,0.137-0.768,0.294c-0.155,0.116-0.187,0.389-0.308,0.567c-0.17,0.252-0.323,0.621-0.565,0.694
		c-0.405,0.126-1.19,0.2-1.262,0.047c-0.491-1.056-2.817-0.047-2.357-2.171c0.15-0.678-0.061-1.461-0.234-2.171
		c-0.357-1.445-0.539-2.875,0.399-4.158c0.476-0.642,1.267-1.735,1.656-1.64c0.873,0.231,1.606,1.057,2.363,1.682
		c1.081,0.888,2.111,1.85,3.217,2.702c0.192,0.147,0.66-0.037,0.994-0.095c0.273-0.042,0.536-0.126,0.807-0.189
		c0.071,0.315,0.3,0.725,0.182,0.941c-0.489,0.852-1.23,1.698,0.667,1.346c0.121-0.026,0.329,0.247,0.454,0.415
		c0.526,0.694,1.086,1.377,1.53,2.124c0.236,0.394,0.488,1.177,0.323,1.319c-0.379,0.331-1.041,0.563-1.52,0.478
		c-0.339-0.063-0.602-0.704-0.833-1.12C27.488,16.57,27.52,16.286,27.449,15.745z M18.907,12.717
		c0.389-0.825,0.712-1.456,0.97-2.108c0.061-0.147-0.05-0.463-0.181-0.552c-0.126-0.089-0.476-0.058-0.565,0.047
		C18.555,10.809,18.139,11.565,18.907,12.717z"/>
	<path fill="#9FBFC1" d="M29.126,27.167c1.382-0.631,2.746-1.304,4.163-1.855c0.289-0.116,0.844,0.126,1.111,0.373
		c0.269,0.247,0.331,0.715,0.494,1.083c0.184-0.137,0.362-0.268,0.536-0.394c0.105-0.263,0.227-0.515,0.3-0.783
		c0.157-0.568,0.095-1.398,0.452-1.651c0.946-0.667,2.065-1.125,3.154-1.566c0.115-0.053,0.715,0.531,0.725,0.841
		c0.09,1.545,0.379,3.091-0.331,4.636c-0.479,1.031-1.009,1.783-2.202,1.657c-2.292-0.242-4.587-0.51-6.862-0.889
		c-0.568-0.095-1.067-0.625-1.601-0.957C29.089,27.498,29.104,27.335,29.126,27.167z"/>
	<path fill="#8E8E8E" d="M13.138,45.949c-0.284,0.458-0.4,0.684-0.558,0.884c-0.841,1.056-1.69,2.107-2.775,3.442
		c-2.215-3.111-4.336-6.087-6.458-9.072C7.295,41.539,9.75,44.457,13.138,45.949z"/>
	<path fill="#FFFFFF" d="M32.805,23.466c3.23-1.456,6.453-2.901,9.686-4.357c0.058,0.126,0.126,0.257,0.185,0.384
		c-3.186,1.545-6.371,3.101-9.557,4.646C33.013,23.913,32.91,23.687,32.805,23.466z"/>
	<path fill="#FFFFFF" d="M18.523,30.542c0.494-0.325,1.015-0.946,1.475-0.909c0.515,0.042,1.337,0.636,1.398,1.078
		c0.131,0.945-0.751,1.351-1.556,1.293c-0.444-0.032-0.857-0.578-1.285-0.894C18.549,30.921,18.539,30.731,18.523,30.542z"/>
	<path fill="#FFFFFF" d="M26.736,25.632c0.515,0.741,1.057,1.188,1.041,1.603c-0.016,0.378-0.647,0.736-1.004,1.1
		c-0.389-0.453-0.898-0.853-1.111-1.373C25.58,26.768,26.182,26.294,26.736,25.632z"/>
	<path fill="#FFFFFF" d="M4.235,39.531c1.501-0.789,3.009-1.577,4.513-2.365c0.087,0.179,0.179,0.347,0.268,0.525
		c-1.503,0.799-2.999,1.598-4.502,2.396C4.427,39.899,4.333,39.721,4.235,39.531z"/>
	<path fill="#FFFFFF" d="M44.162,18.178c1.724-0.741,3.438-1.482,5.162-2.218c0.053,0.095,0.1,0.2,0.146,0.3
		c-1.687,0.814-3.374,1.64-5.066,2.455C44.325,18.541,44.246,18.357,44.162,18.178z"/>
	<path fill="#FFFFFF" d="M24.723,28.419c-0.762,0.378-1.524,0.768-2.281,1.141c-0.076-0.152-0.158-0.305-0.234-0.458
		c0.757-0.399,1.506-0.799,2.263-1.188C24.555,28.082,24.642,28.25,24.723,28.419z"/>
	<path fill="#FFFFFF" d="M14.339,34.769c-0.833,0.421-1.661,0.852-2.495,1.272c-0.076-0.147-0.158-0.295-0.236-0.452
		c0.841-0.41,1.679-0.825,2.513-1.241C14.191,34.495,14.262,34.632,14.339,34.769z"/>
	<g>
		<g>
			<path d="M24.505,18.814c-0.137,0.037-0.384-0.079-0.521-0.047c-0.139,0.037-0.276,0.031-0.413,0.058
				c-0.142,0.026-0.242,0.258-0.378,0.273c-0.142,0.016-0.289-0.11-0.426-0.1c-0.145,0.01-0.271,0.378-0.413,0.378
				s-0.279-0.273-0.415-0.284c-0.145-0.01-0.281,0.011-0.418-0.01c-0.142-0.021-0.263-0.1-0.4-0.131
				c-0.136-0.032-0.257-0.089-0.389-0.131c-0.131-0.042-0.407,0.242-0.534,0.189c-0.126-0.058-0.05-0.536-0.176-0.61
				c-0.118-0.063-0.349,0.058-0.47-0.021c-0.116-0.073-0.318-0.042-0.434-0.126c-0.108-0.084-0.273-0.137-0.378-0.226
				c-0.103-0.095-0.103-0.226-0.268-0.252c-0.147-0.026-0.258-0.299-0.395-0.331c-0.142-0.026-0.221-0.147-0.339-0.189
				c-0.139-0.042-0.271,0.011-0.378-0.052c-0.121-0.068-0.329,0.021-0.423-0.068c-0.1-0.095-0.202-0.194-0.273-0.31
				c-0.071-0.105-0.236-0.21-0.281-0.336c-0.037-0.126-0.173-0.273-0.192-0.41c-0.016-0.126,0.192-0.294,0.192-0.437
				c0-0.126,0.071-0.263,0.089-0.399c0.016-0.137,0.268-0.289,0.268-0.426c0-0.147-0.455-0.263-0.465-0.399
				c-0.013-0.137,0.021-0.284,0.005-0.42c-0.023-0.137,0.108-0.3,0.087-0.442c-0.021-0.136-0.236-0.242-0.257-0.378
				c-0.021-0.137-0.087-0.273-0.111-0.42c-0.021-0.137,0.247-0.315,0.231-0.452c-0.01-0.147,0.045-0.284,0.04-0.42
				c-0.008-0.137,0.113-0.263,0.118-0.41c0.008-0.142-0.536-0.305-0.525-0.441c0.01-0.142,0.215-0.268,0.231-0.41
				c0.016-0.137-0.11-0.315-0.082-0.452c0.026-0.136,0.46-0.189,0.492-0.326c0.034-0.137-0.213-0.347-0.176-0.483
				c0.045-0.137,0.11-0.263,0.161-0.4c0.05-0.126-0.011-0.315,0.05-0.447c0.061-0.126,0.56-0.037,0.625-0.158
				c0.066-0.126,0.042-0.289,0.113-0.399c0.071-0.121,0.066-0.289,0.145-0.405c0.081-0.116,0.173-0.21,0.257-0.32
				c0.087-0.111-0.029-0.395,0.066-0.5c0.092-0.105,0.476,0.063,0.575-0.037c0.098-0.1,0.142-0.242,0.247-0.336
				c0.103-0.089,0.218-0.163,0.329-0.252c0.108-0.089,0.208-0.174,0.323-0.258c0.116-0.084,0.213-0.168,0.334-0.242
				s0.208-0.194,0.329-0.263c0.121-0.063,0.11-0.41,0.242-0.473c0.131-0.058,0.399,0.194,0.531,0.137
				c0.131-0.053,0.276-0.068,0.408-0.116c0.131-0.053,0.147-0.452,0.278-0.494c0.137-0.042,0.384,0.279,0.521,0.242
				c0.137-0.042,0.215-0.305,0.352-0.342c0.137-0.031,0.344,0.311,0.481,0.289c0.145-0.026,0.266-0.058,0.402-0.068
				c0.142-0.016,0.263-0.084,0.405-0.089c0.142-0.005,0.273-0.084,0.41-0.084c0.145,0.011,0.313-0.32,0.457-0.305
				c0.142,0.016,0.239,0.352,0.378,0.378c0.137,0.026,0.284,0,0.421,0.032c0.136,0.042,0.202,0.263,0.341,0.315
				c0.131,0.042,0.273,0.031,0.405,0.094c0.126,0.053,0.203,0.189,0.329,0.252c0.126,0.068,0.242,0.116,0.363,0.189
				c0.121,0.073,0.46-0.2,0.581-0.121c0.115,0.079,0.273,0.121,0.383,0.205c0.11,0.095,0.061,0.378,0.171,0.473
				c0.103,0.095,0.142,0.263,0.245,0.357c0.099,0.095,0.11,0.284,0.21,0.378c0.097,0.1,0.449-0.037,0.541,0.074
				c0.095,0.105,0.011,0.357,0.105,0.473c0.087,0.105,0.121,0.284,0.218,0.389c0.1,0.105,0.227,0.189,0.323,0.294
				c0.101,0.105,0.271,0.142,0.363,0.252c0.1,0.116,0.207,0.2,0.291,0.315c0.087,0.121,0.066,0.284,0.127,0.41
				c0.061,0.137,0.016,0.242,0.036,0.389c0.016,0.147,0.363,0.226,0.399,0.352c0.04,0.142,0.008,0.289,0.066,0.416
				c0.061,0.126,0.26,0.158,0.336,0.263c0.082,0.116,0.006,0.347,0.103,0.447c0.1,0.1,0.166,0.258,0.276,0.342
				c0.112,0.084,0.257,0.126,0.384,0.2c0.12,0.068,0.35-0.074,0.476-0.016c0.126,0.058,0.089,0.494,0.221,0.552
				c0.131,0.053,0.449-0.331,0.575-0.273c0.132,0.053,0.174,0.305,0.295,0.363c0.126,0.058,0.281,0.084,0.396,0.152
				c0.113,0.068,0.189,0.221,0.32,0.263c0.127,0.031,0.242,0.194,0.379,0.215c0.126,0.026,0.284-0.1,0.421-0.089
				c0.137,0,0.273-0.126,0.399-0.126c0.137,0,0.273,0.21,0.41,0.205c0.131-0.005,0.268,0.026,0.399,0.021
				c0.131-0.005,0.257-0.311,0.394-0.311s0.279-0.021,0.405-0.01c0.137,0.005,0.263,0.173,0.389,0.173
				c0.137,0,0.273-0.194,0.399-0.194c0.137,0,0.263-0.011,0.399-0.011c0.127,0,0.253,0.468,0.39,0.468
				c0.126,0,0.268-0.236,0.399-0.226c0.131,0,0.241,0.252,0.378,0.263c0.137,0.01,0.337-0.515,0.474-0.494
				c0.137,0.01,0.252,0.231,0.389,0.252c0.137,0.021,0.295-0.063,0.431-0.042c0.137,0.021,0.222,0.389,0.368,0.41
				c0.137,0.011,0.295-0.074,0.432-0.068c0.137,0.011,0.283,0.194,0.431,0.194c0.137-0.01,0.3-0.021,0.441-0.037
				c0.137-0.016,0.279-0.142,0.421-0.184c0.126-0.031,0.236-0.168,0.378-0.226c0.127-0.047,0.332-0.257,0.505-0.194
				c0.137,0.042,0.263,0.205,0.41,0.284c0.137,0.068,0.231,0.231,0.368,0.305c0.147,0.084,0.273,0.179,0.41,0.231
				c-0.116,0.094-0.263,0.173-0.379,0.289c-0.115,0.11-0.284,0.173-0.389,0.273c-0.126,0.116-0.032,0.489-0.158,0.573
				c-0.142,0.095-0.436-0.237-0.589-0.216c-0.146,0.016-0.252,0.311-0.399,0.332c-0.137,0.01-0.283,0-0.436,0.01
				c-0.143,0.011-0.3-0.137-0.447-0.121c-0.137,0.01-0.263,0.352-0.41,0.362c-0.137,0.011-0.284,0.042-0.431,0.053
				c-0.143,0.011-0.295-0.084-0.441-0.074c-0.137,0.011-0.311-0.273-0.452-0.252c-0.143,0.01-0.273,0.21-0.416,0.221
				c-0.142,0.021-0.31-0.116-0.451-0.095c-0.143,0.021-0.258,0.263-0.4,0.284c-0.142,0.026-0.289-0.01-0.436,0.021
				c-0.147,0.026-0.331-0.158-0.474-0.131c-0.137,0.032-0.247,0.1-0.384,0.11c-0.137,0.021-0.252,0.273-0.389,0.279
				s-0.278-0.11-0.426-0.11c-0.137,0-0.273-0.074-0.41-0.084c-0.137-0.011-0.3,0.231-0.437,0.215s-0.278-0.047-0.415-0.068
				c-0.137-0.01-0.252-0.179-0.389-0.2s-0.284,0.042-0.421,0.021c-0.142-0.021-0.231-0.336-0.368-0.357s-0.273-0.032-0.409-0.053
				c-0.137-0.021-0.311,0.231-0.45,0.21c-0.137-0.011-0.244-0.284-0.384-0.3c-0.131-0.01-0.268,0.353-0.404,0.357
				c-0.137,0.011-0.273-0.058-0.41-0.047c-0.14,0.011-0.302,0.084-0.438,0.079c-0.14-0.011-0.227-0.331-0.353-0.389
				c-0.121-0.047-0.152-0.152-0.252-0.263c-0.082-0.089-0.208-0.205-0.279-0.342c-0.1,0.053-0.281,0.158-0.394,0.205
				c-0.116,0.047-0.177,0.216-0.276,0.263c-0.132,0.068-0.399,0.016-0.426,0.11c-0.045,0.153,0.016,0.368,0.076,0.51
				c0.056,0.131,0.197,0.252,0.313,0.357c0.103,0.1,0.253,0.163,0.39,0.236c0.131,0.068,0.233,0.294,0.373,0.331
				c0.146,0.037,0.35-0.068,0.491-0.079c0.14,0,0.276-0.068,0.413-0.079c0.137-0.01,0.294,0.195,0.434,0.174
				c0.137-0.016,0.273-0.016,0.41-0.026c0.136-0.011,0.257-0.1,0.394-0.11c0.137-0.005,0.276-0.357,0.413-0.347
				c0.137,0,0.233,0.431,0.37,0.452s0.379-0.431,0.516-0.389c0.126,0.042,0.294,0.1,0.42,0.168c0.116,0.053,0.137,0.336,0.253,0.42
				c0.115,0.074,0.115,0.315,0.231,0.389c0.115,0.074,0.441-0.168,0.557-0.1c0.116,0.079,0.026,0.458,0.143,0.531
				c0.115,0.073,0.399-0.121,0.515-0.053c0.115,0.074,0.068,0.41,0.184,0.483c0.116,0.068,0.4-0.126,0.516-0.058
				s0.047,0.447,0.168,0.515c0.116,0.068,0.415-0.168,0.536-0.105c0.121,0.068,0.032,0.489,0.152,0.552
				c0.121,0.068,0.231,0.158,0.353,0.221c0.121,0.068,0.326-0.026,0.441,0.042c0.116,0.063,0.342-0.058,0.463,0
				c0.121,0.068,0.1,0.4,0.221,0.463c0.105,0.063,0.347-0.268,0.483-0.242c0.126,0.01,0.231,0.294,0.368,0.284
				c0.126-0.011,0.231-0.205,0.357-0.231c0.137-0.031,0.231-0.084,0.347-0.131c0.132-0.063,0.278-0.089,0.41-0.152
				c0.132-0.058,0.357,0.084,0.489,0.026c0.131-0.058,0.31-0.026,0.436-0.089c0.137-0.063,0.273-0.116,0.4-0.179
				c0.136-0.058,0.115-0.452,0.241-0.515c0.137-0.063,0.311-0.032,0.441-0.089c0.132-0.058,0.348,0.058,0.483,0
				c0.127-0.058,0.116-0.426,0.253-0.484c0.126-0.058,0.273-0.1,0.404-0.158c0.132-0.058,0.263-0.126,0.395-0.184
				c0.132-0.063,0.284-0.073,0.415-0.136c0.132-0.068,0.311-0.037,0.437-0.105c0.126-0.058,0.221-0.215,0.347-0.284
				c0.126-0.058,0.211-0.231,0.342-0.289c0.132-0.058,0.379,0.121,0.51,0.058c0.132-0.068,0.143-0.378,0.273-0.436
				c0.132-0.058,0.463,0.289,0.594,0.231c0.132-0.058,0.237-0.163,0.374-0.231c0.131-0.058,0.131-0.4,0.263-0.458
				c0.137-0.068,0.399,0.2,0.536,0.158c0.147-0.053,0.21-0.441,0.357-0.452c0.152-0.01,0.221,0.374,0.357,0.431
				c0.126,0.047,0.189,0.032,0.305,0.152c0.095,0.1,0.421,0.032,0.494,0.179c0.063,0.131-0.016,0.31,0.011,0.426
				c0.042,0.137-0.063,0.242-0.074,0.368c-0.01,0.137,0.242,0.363,0.174,0.473s-0.258,0.168-0.362,0.257
				c-0.095,0.084-0.158,0.263-0.273,0.331c-0.11,0.063-0.305-0.01-0.432,0.053c-0.126,0.063-0.367-0.121-0.494-0.063
				c-0.126,0.063-0.078,0.494-0.21,0.557c-0.126,0.063-0.368-0.11-0.494-0.053c-0.126,0.063-0.305,0.011-0.441,0.074
				c-0.126,0.063-0.184,0.263-0.315,0.326c-0.126,0.058-0.326-0.021-0.452,0.037c-0.126,0.058-0.273,0.079-0.399,0.142
				c-0.126,0.063-0.205,0.226-0.331,0.284c-0.126,0.063-0.216,0.21-0.342,0.273c-0.126,0.068-0.137,0.368-0.269,0.426
				c-0.126,0.058-0.436-0.263-0.572-0.205c-0.126,0.063-0.263,0.105-0.39,0.168c-0.126,0.058-0.162,0.305-0.289,0.368
				c-0.126,0.063-0.226,0.184-0.352,0.242c-0.126,0.063-0.263,0.105-0.39,0.168c-0.126,0.058-0.252,0.142-0.378,0.2
				c-0.126,0.063-0.347-0.074-0.474-0.016c-0.126,0.058-0.115,0.405-0.241,0.473c-0.126,0.058-0.258,0.121-0.384,0.179
				c-0.126,0.058-0.269,0.105-0.395,0.163c-0.137,0.068-0.342-0.01-0.457,0.053c-0.137,0.073-0.205,0.236-0.311,0.315
				c-0.126,0.095-0.273,0.147-0.352,0.263c-0.09,0.126-0.11,0.273-0.127,0.41c-0.01,0.137-0.184,0.331-0.137,0.483
				c0.037,0.126,0.363,0.147,0.447,0.294c0.058,0.116,0.011,0.305,0.095,0.437c0.084,0.131,0,0.31,0.053,0.426
				c0.058,0.147,0.146,0.215,0.168,0.347c0.021,0.147,0.132,0.263,0.115,0.399c-0.021,0.137-0.263,0.21-0.305,0.353
				c-0.031,0.126-0.011,0.268-0.058,0.415c-0.047,0.126,0.09,0.315,0.058,0.447c-0.042,0.131,0.147,0.331,0.105,0.458
				c-0.037,0.137-0.21,0.221-0.247,0.357c-0.031,0.137-0.205,0.231-0.236,0.363c-0.037,0.131,0.042,0.289,0.01,0.426
				c-0.031,0.137,0.147,0.31,0.116,0.441c-0.026,0.137-0.205,0.236-0.231,0.374c-0.021,0.137,0.011,0.273-0.011,0.41
				c-0.011,0.137-0.431,0.231-0.441,0.368s0.126,0.289,0.121,0.426c-0.006,0.137-0.163,0.273-0.163,0.41s0.494,0.194,0.547,0.331
				c0.042,0.121-0.315,0.446-0.236,0.572c0.068,0.116,0.494,0,0.583,0.105c0.084,0.105,0,0.357,0.095,0.457
				c0.1,0.101,0.32,0.068,0.426,0.153c0.11,0.094,0.269,0.094,0.373,0.168c0.105,0.084,0.168,0.231,0.278,0.305
				c0.11,0.084,0.143,0.273,0.253,0.353c0.11,0.078,0.079,0.373,0.194,0.446c0.115,0.079,0.347-0.031,0.463,0.042
				c0.115,0.079,0.21,0.174,0.325,0.253c0.116,0.068,0.137,0.305,0.253,0.378c0.115,0.068,0.431-0.179,0.547-0.105
				c0.115,0.068,0.084,0.379,0.199,0.452c0.116,0.074,0.273,0.085,0.389,0.158c0.116,0.068,0.273,0.084,0.39,0.157
				c0.115,0.074,0.325-0.01,0.441,0.059c0.115,0.073,0.152,0.278,0.268,0.347c0.116,0.079,0.3,0.058,0.416,0.131
				c0.115,0.074,0.058,0.432,0.168,0.511c0.126,0.078,0.231,0.157,0.347,0.236c0.126,0.073,0.205,0.199,0.326,0.273
				c0.121,0.073,0.247,0.137,0.362,0.21c0.121,0.073,0.311,0.021,0.432,0.095c0.121,0.079,0.384-0.084,0.504-0.011
				c0.121,0.079,0.137,0.305,0.253,0.389c0.115,0.074,0.241,0.137,0.362,0.211c0.116,0.073,0.137,0.305,0.253,0.378
				c0.115,0.074,0.221,0.179,0.336,0.253c0.116,0.073,0.474-0.216,0.584-0.137c0.115,0.073,0.194,0.21,0.31,0.283
				c0.116,0.074,0.185,0.231,0.305,0.306c0.121,0.078,0.074,0.389,0.189,0.462c0.116,0.074,0.426-0.126,0.536-0.042
				c0.126,0.084,0.321,0.053,0.426,0.132c0.126,0.089,0.185,0.263,0.289,0.342c0.121,0.089,0.169,0.263,0.273,0.347
				c0.116,0.1,0.242,0.179,0.326,0.273c0.105,0.115,0.305,0.194,0.362,0.31c0.059,0.127-0.257,0.342-0.252,0.489
				c0.005,0.126,0.115,0.252,0.089,0.404c-0.021,0.127,0.195,0.332,0.147,0.479c-0.042,0.116-0.241,0.205-0.294,0.348
				c-0.042,0.126-0.179,0.226-0.231,0.367c-0.042,0.127-0.021,0.284-0.079,0.421c-0.047,0.147,0.021,0.331-0.026,0.473
				c-0.053,0.147-0.011,0.315-0.068,0.463c-0.053,0.142-0.431,0.152-0.488,0.295c-0.053,0.137-0.185,0.241-0.242,0.384
				c-0.063,0.136,0.147,0.394,0.084,0.53c-0.063,0.137,0,0.347-0.073,0.479c-0.068,0.132-0.368,0.147-0.441,0.273
				c-0.074,0.121-0.021,0.426-0.143,0.515c-0.11,0.09-0.384-0.021-0.515,0.048c-0.126,0.073-0.174,0.305-0.3,0.368
				c-0.137,0.073-0.273-0.242-0.399-0.158c-0.053-0.142,0.021-0.173-0.048-0.315c-0.058-0.147-0.184-0.247-0.236-0.389
				c-0.053-0.147-0.394-0.221-0.415-0.368c-0.021-0.137,0.047-0.294,0.026-0.431c-0.016-0.137-0.116-0.279-0.126-0.421
				c-0.011-0.137-0.026-0.278-0.037-0.421c-0.005-0.136-0.047-0.272-0.058-0.42c0-0.137,0.426-0.3,0.41-0.441
				c0-0.137-0.242-0.263-0.253-0.41c-0.146,0.016-0.305-0.168-0.446-0.158c-0.143,0.011-0.278,0-0.421,0.011
				c-0.142,0-0.268,0.41-0.415,0.41c-0.137,0.005-0.284,0.021-0.431,0.021c-0.143,0-0.279-0.415-0.421-0.42
				c-0.142-0.011-0.295,0.199-0.431,0.199c-0.147-0.016-0.295,0.011-0.432,0c-0.142-0.016-0.315,0.185-0.452,0.169
				c-0.146-0.021-0.215-0.547-0.357-0.563c-0.147-0.021-0.294,0.084-0.441,0.058c-0.137-0.021-0.347,0.278-0.483,0.252
				c-0.137-0.031-0.179-0.499-0.315-0.536c-0.137-0.031-0.395,0.39-0.531,0.348c-0.137-0.037-0.184-0.395-0.32-0.432
				c-0.137-0.042-0.331,0.105-0.474,0.058c-0.137-0.047-0.325,0.063-0.462,0.006c-0.132-0.048-0.074-0.578-0.211-0.631
				c-0.126-0.058-0.415,0.241-0.541,0.184c-0.132-0.058-0.11-0.437-0.236-0.499c-0.126-0.063-0.395,0.152-0.521,0.084
				c-0.121-0.063-0.3-0.047-0.426-0.115s-0.263-0.127-0.384-0.195s0.005-0.552-0.115-0.631c-0.121-0.078-0.511,0.269-0.631,0.185
				c-0.121-0.074-0.079-0.399-0.195-0.479c-0.115-0.084-0.162-0.258-0.272-0.342c-0.116-0.084-0.442,0.11-0.558,0.021
				c-0.115-0.084-0.221-0.185-0.337-0.273c-0.104-0.084-0.084-0.348-0.188-0.441c-0.11-0.095-0.384,0.01-0.494-0.085
				c-0.11-0.094-0.189-0.221-0.295-0.314c-0.1-0.095-0.263-0.147-0.362-0.242c-0.105-0.1,0.021-0.441-0.084-0.536
				c-0.101-0.105-0.263-0.137-0.363-0.242c-0.104-0.095-0.146-0.252-0.241-0.352c-0.105-0.105-0.399-0.017-0.505-0.121
				c-0.095-0.105,0.089-0.468,0-0.568c-0.095-0.104-0.189-0.21-0.289-0.32c-0.09-0.105-0.426-0.005-0.521-0.115
				s0.132-0.484,0.042-0.595c-0.095-0.104-0.483,0.032-0.573-0.084c-0.095-0.104-0.11-0.547-0.194-0.662
				c-0.053,0.126,0,0.525-0.053,0.652c-0.052,0.126-0.333,0.152-0.384,0.272c-0.055,0.127,0.227,0.39,0.174,0.505
				c-0.053,0.126-0.415,0.116-0.465,0.242c-0.048,0.126,0.104,0.326,0.061,0.452c-0.048,0.126-0.295,0.179-0.34,0.305
				c-0.044,0.126,0.006,0.284-0.031,0.41c-0.045,0.137-0.236,0.231-0.281,0.368s0.192,0.357,0.155,0.494
				c-0.039,0.137,0.042,0.315,0,0.457c-0.045,0.142-0.14,0.258-0.176,0.399c-0.045,0.142-0.258,0.226-0.298,0.362
				c-0.044,0.137-0.191,0.247-0.236,0.384c-0.036,0.137-0.113,0.269-0.152,0.405s-0.131,0.263-0.176,0.399
				c-0.037,0.137,0.115,0.336,0.079,0.473c-0.04,0.137-0.171,0.253-0.211,0.395c-0.036,0.142,0.202,0.353,0.171,0.494
				c-0.039,0.137-0.317,0.216-0.357,0.357c-0.031,0.142,0.263,0.362,0.231,0.505c-0.034,0.142-0.373,0.205-0.404,0.342
				c-0.034,0.146-0.066,0.289-0.095,0.431c-0.026,0.142,0.181,0.326,0.16,0.473c-0.023,0.137-0.056,0.279-0.074,0.426
				c-0.016,0.143,0.009,0.29-0.01,0.437c-0.016,0.137-0.263,0.263-0.279,0.399c-0.016,0.147,0.011,0.295,0,0.441
				c-0.01,0.143-0.278,0.269-0.297,0.41c-0.011,0.147,0.489,0.337,0.479,0.479c-0.011,0.143-0.115,0.284-0.126,0.426
				c-0.016,0.158-0.402,0.21-0.434,0.326c-0.045,0.137,0.142,0.373,0.05,0.473c-0.09,0.084-0.281,0.063-0.418,0.127
				c-0.11,0.052-0.263-0.021-0.41,0.025c-0.131,0.037-0.202,0.258-0.334,0.3c-0.126,0.042-0.336-0.137-0.462-0.095
				c-0.126,0.048-0.239,0.147-0.365,0.195c-0.127,0.047-0.14,0.394-0.266,0.446c-0.127,0.048-0.219,0.168-0.345,0.216
				c-0.126,0.047-0.389-0.227-0.51-0.168c-0.126,0.052-0.226,0.157-0.352,0.215c-0.126,0.053-0.197,0.227-0.315,0.284
				c-0.126,0.053-0.194,0.242-0.313,0.3c-0.121,0.058-0.318-0.058-0.444,0c-0.126,0.058-0.363-0.174-0.489-0.126
				c-0.136,0.058-0.16,0.426-0.302,0.483c-0.147,0.058-0.313,0.115-0.46,0.115c-0.166,0-0.323-0.104-0.483-0.121
				c-0.158-0.021-0.365,0.253-0.526,0.221c-0.157-0.021-0.404-0.226-0.57-0.252c0.071-0.126,0.505-0.231,0.565-0.378
				c0.061-0.137-0.334-0.494-0.263-0.631c0.071-0.127,0.374-0.137,0.471-0.242c0.095-0.1,0.1-0.284,0.197-0.384
				c0.1-0.095,0.307-0.073,0.413-0.163c0.097-0.095,0.05-0.357,0.152-0.452c0.105-0.089,0.347-0.016,0.449-0.11
				c0.105-0.089,0.055-0.352,0.161-0.446c0.103-0.084,0.247,0,0.35-0.095c-0.108-0.1,0.071-0.384-0.026-0.483
				c-0.105-0.11-0.423-0.011-0.51-0.121c-0.095-0.116-0.242-0.194-0.324-0.311c-0.081-0.126-0.247-0.21-0.318-0.336
				c-0.071-0.127,0.187-0.421,0.126-0.558c-0.061-0.126-0.329-0.179-0.374-0.315c-0.05-0.137-0.252-0.241-0.284-0.384
				c-0.04-0.142-0.074-0.3-0.095-0.446c-0.026-0.137,0.329-0.342,0.313-0.484c-0.016-0.142-0.273-0.268-0.279-0.409
				c-0.008-0.147,0.061-0.295,0.061-0.447c0-0.142,0.244-0.284,0.25-0.426c0.008-0.147-0.299-0.305-0.289-0.452
				c0.011-0.142,0.289-0.263,0.302-0.41c0.016-0.142-0.095-0.305-0.079-0.441c0.018-0.147-0.087-0.31-0.071-0.452
				c0.024-0.142,0.384-0.241,0.408-0.378c0.021-0.137-0.353-0.337-0.323-0.474c0.021-0.142,0.46-0.21,0.481-0.347
				c0.023-0.137-0.368-0.353-0.339-0.494c0.026-0.137,0.273-0.231,0.308-0.373c0.026-0.143-0.116-0.311-0.089-0.447
				c0.029-0.142,0.242-0.241,0.276-0.378c0.032-0.137-0.187-0.337-0.155-0.474c0.034-0.137,0.252-0.226,0.286-0.362
				c0.032-0.143-0.192-0.342-0.155-0.479c0.034-0.137,0.095-0.269,0.126-0.404c0.04-0.137,0.318-0.211,0.357-0.348
				c0.037-0.137-0.131-0.331-0.095-0.457c0.04-0.137,0.024-0.284,0.061-0.426c0.04-0.137,0.51-0.152,0.549-0.289
				s0.04-0.284,0.076-0.421c0.04-0.137-0.297-0.368-0.257-0.504c0.04-0.137,0.489-0.158,0.525-0.295
				c0.04-0.142,0.1-0.273,0.131-0.41c0.04-0.137-0.42-0.399-0.389-0.536c0.034-0.137,0.544-0.157,0.576-0.294
				c0.034-0.137-0.097-0.311-0.066-0.447c0.029-0.121-0.197-0.268-0.187-0.394c0.013-0.121-0.032-0.231-0.032-0.357
				c0-0.127,0.105-0.242,0.105-0.368s0.086-0.211,0.092-0.337c-0.137-0.011-0.257,0.011-0.405-0.011
				c-0.145-0.021-0.257-0.341-0.402-0.357c-0.153-0.021-0.334,0.074-0.471,0.085c-0.16,0.01-0.192,0.325-0.308,0.399
				c-0.126,0.073-0.318,0.026-0.439,0.104c-0.121,0.084-0.213,0.2-0.329,0.284c-0.115,0.095-0.257,0.142-0.373,0.231
				c-0.116,0.084-0.373,0-0.486,0.089c-0.11,0.095-0.166,0.253-0.276,0.353c-0.108,0.095-0.026,0.41-0.137,0.505
				s-0.242,0.163-0.35,0.257c-0.11,0.09-0.192,0.227-0.302,0.321c-0.095,0.079-0.215,0.115-0.302,0.21
				c-0.086,0.1-0.428-0.031-0.515,0.063c-0.086,0.095-0.176,0.146-0.268,0.221c-0.105,0.089-0.01,0.536-0.131,0.567
				c-0.142,0.031-0.394-0.373-0.534-0.336c-0.137,0.042-0.187,0.394-0.323,0.441c-0.137,0.042-0.344-0.126-0.476-0.079
				c-0.137,0.047-0.176,0.368-0.313,0.415c-0.136,0.053-0.307-0.01-0.444,0.042c-0.131,0.059-0.292,0.053-0.423,0.105
				c-0.131,0.058-0.333-0.037-0.465,0.021c-0.131,0.058-0.242,0.162-0.373,0.23c-0.131,0.059-0.257,0.127-0.389,0.189
				c-0.131,0.063-0.097,0.441-0.231,0.505c-0.126,0.063-0.234,0.163-0.36,0.231c-0.126,0.063-0.384-0.105-0.51-0.032
				c-0.126,0.068-0.15,0.326-0.276,0.39c-0.126,0.073-0.405-0.126-0.531-0.058c-0.126,0.068-0.208,0.215-0.333,0.283
				c-0.126,0.074-0.226,0.185-0.347,0.263c-0.126,0.074-0.107,0.379-0.234,0.452c-0.121,0.068-0.473-0.231-0.594-0.152
				c-0.118,0.068-0.268,0.105-0.395,0.179c-0.121,0.074-0.121,0.363-0.242,0.432c-0.124,0.073-0.202,0.226-0.323,0.294
				c-0.126,0.073-0.394-0.1-0.521-0.031c-0.126,0.073-0.147,0.315-0.273,0.389c-0.126,0.068-0.152,0.311-0.278,0.379
				c-0.126,0.073-0.392-0.105-0.518-0.037c-0.126,0.073-0.244,0.142-0.37,0.21c-0.126,0.068-0.247,0.147-0.374,0.216
				c-0.126,0.063-0.236,0.168-0.368,0.231c-0.132,0.063-0.242,0.157-0.374,0.226s-0.394-0.131-0.525-0.058
				c-0.126,0.063-0.045,0.536-0.171,0.6c-0.126,0.073-0.389-0.105-0.521-0.037c-0.126,0.068-0.066,0.473-0.192,0.541
				c-0.126,0.074-0.257,0.127-0.384,0.2c-0.126,0.073-0.329,0.005-0.455,0.084c-0.126,0.068-0.181,0.263-0.308,0.337
				c-0.126,0.073-0.5-0.284-0.625-0.211c-0.126,0.074-0.082,0.441-0.213,0.516c-0.126,0.068-0.034,0.084-0.166,0.157
				c0.121,0.074,0.04,0.032,0.16,0.105c0.121,0.084,0.203,0.21,0.323,0.289c0.121,0.079,0.147,0.294,0.263,0.373
				c0.121,0.073,0.329,0,0.449,0.073c0.121,0.079,0.087,0.4,0.208,0.474c0.121,0.079,0.297,0.053,0.418,0.131
				c0.121,0.079,0.308,0.037,0.429,0.111c0.118,0.073,0.323,0.01,0.436,0.084c0.121,0.073,0.029,0.494,0.15,0.563
				s0.389-0.101,0.51-0.026c0.121,0.073,0.11,0.357,0.229,0.426c0.121,0.073,0.323,0.005,0.444,0.078
				c0.121,0.074,0.161,0.273,0.281,0.348c0.121,0.068,0.46-0.227,0.581-0.158c0.121,0.074,0.086,0.399,0.208,0.468
				s0.137,0.311,0.258,0.384c0.121,0.074,0.468-0.247,0.586-0.179c0.131,0.079,0.044,0.516,0.166,0.589
				c0.131,0.084,0.344,0.011,0.465,0.084c0.131,0.084,0.226,0.211,0.336,0.284c0.131,0.1,0.223,0.189,0.323,0.284
				c0.121,0.11,0.071,0.272,0.137,0.389c0.076,0.137,0.428,0.137,0.434,0.284c0,0.126,0.065,0.347,0.005,0.494
				c-0.045,0.126-0.221,0.23-0.302,0.367c-0.066,0.116-0.016,0.337-0.11,0.463c-0.077,0.11-0.576-0.063-0.668,0.063
				c-0.084,0.115-0.071,0.305-0.166,0.431c-0.086,0.115-0.152,0.242-0.242,0.347c-0.087,0.116-0.247,0.174-0.334,0.284
				c-0.086,0.115-0.176,0.221-0.263,0.336c-0.087,0.116,0.026,0.379-0.061,0.494c-0.086,0.105-0.158,0.231-0.247,0.348
				c-0.086,0.11-0.181,0.221-0.273,0.325c-0.09,0.116-0.242,0.174-0.329,0.289c-0.089,0.11-0.258,0.153-0.353,0.264
				c-0.097,0.12-0.168,0.226-0.273,0.31c-0.121,0.1-0.263,0.063-0.389,0.116c-0.142,0.052-0.208,0.115-0.352,0.115
				c-0.142,0-0.247,0.021-0.384-0.037c-0.126-0.047-0.192-0.146-0.313-0.241c-0.103-0.09-0.329-0.048-0.426-0.174
				c-0.089-0.105-0.023-0.342-0.11-0.452c-0.087-0.104-0.515,0.063-0.604-0.047c-0.087-0.11,0.11-0.463,0.024-0.563
				c-0.09-0.116-0.09-0.3-0.176-0.41c-0.087-0.105-0.395-0.037-0.484-0.147c-0.092-0.11,0-0.368-0.086-0.479
				c-0.087-0.11-0.203-0.194-0.297-0.305c-0.087-0.11-0.305-0.11-0.4-0.221c-0.086-0.11-0.142-0.247-0.229-0.353
				c-0.089-0.115-0.392-0.047-0.479-0.157c-0.086-0.11-0.086-0.289-0.181-0.399c-0.087-0.11-0.279-0.137-0.368-0.247
				c-0.086-0.11,0.187-0.505,0.1-0.62c-0.087-0.11-0.526,0.058-0.615-0.058c-0.086-0.111,0.055-0.4-0.031-0.516
				c-0.082-0.11-0.418-0.042-0.5-0.158c-0.082-0.115-0.061-0.305-0.142-0.42c-0.084-0.116,0.042-0.384-0.034-0.499
				c-0.081-0.121-0.158-0.237-0.242-0.353c-0.076-0.126-0.42-0.079-0.497-0.2c-0.079-0.12-0.216-0.215-0.287-0.336
				c-0.071-0.126-0.071-0.289-0.142-0.415c-0.071-0.127,0.192-0.437,0.121-0.563c-0.065-0.127-0.473-0.074-0.539-0.2
				c-0.066-0.126,0.2-0.431,0.131-0.557c-0.066-0.127-0.339-0.147-0.399-0.273c-0.066-0.127,0.136-0.39,0.076-0.526
				c-0.061-0.126-0.137-0.252-0.203-0.378C2.096,40.53,1.57,40.63,1.505,40.498c-0.05-0.104,0.362-0.347,0.404-0.525
				c0.034-0.142,0.121-0.231,0.192-0.362c0.084-0.152,0.121-0.169,0.221-0.227c0.126-0.073-0.005-0.599,0.121-0.667
				c0.126-0.068,0.329-0.006,0.455-0.079c0.126-0.068,0.379,0.089,0.505,0.021c0.126-0.073,0.213-0.215,0.339-0.283
				c0.126-0.068,0.152-0.315,0.279-0.379c0.126-0.073,0.302-0.053,0.428-0.126c0.126-0.068,0.374,0.084,0.5,0.021
				c0.126-0.068,0.137-0.352,0.263-0.42c0.126-0.074,0.344,0.031,0.471-0.037c0.126-0.068,0.105-0.41,0.236-0.479
				c0.126-0.063,0.273-0.104,0.399-0.168c0.126-0.063,0.297-0.063,0.423-0.126c0.126-0.063,0.334,0.021,0.465-0.053
				c0.126-0.063,0.166-0.305,0.292-0.368c0.126-0.068,0.357,0.058,0.489-0.011c0.132-0.063,0.258-0.126,0.389-0.188
				c0.126-0.063,0.208-0.221,0.339-0.284c0.126-0.063,0.292-0.073,0.418-0.137c0.131-0.073,0.137-0.441,0.284-0.494
				c0.142-0.042,0.323,0.016,0.47-0.021c0.15-0.042,0.368,0.173,0.51,0.131c0.145-0.047,0.292-0.163,0.423-0.226
				c0.121-0.063,0.187-0.237,0.308-0.306c0.121-0.063,0.197-0.215,0.318-0.272c0.121-0.063,0.339,0.052,0.46-0.011
				c0.121-0.068,0.273-0.074,0.395-0.137c0.121-0.068,0.17-0.263,0.292-0.331s0.097-0.395,0.218-0.458
				c0.121-0.063,0.468,0.284,0.586,0.216c0.121-0.068,0.171-0.263,0.292-0.331c0.121-0.063,0.11-0.368,0.231-0.437
				c0.121-0.068,0.431,0.216,0.552,0.152c0.121-0.063,0.145-0.315,0.263-0.378c0.121-0.063,0.171-0.258,0.292-0.326
				c0.121-0.063,0.231-0.147,0.353-0.216c0.118-0.068,0.289-0.047,0.41-0.11c0.121-0.063,0.176-0.247,0.297-0.315
				c0.121-0.063,0.257-0.095,0.378-0.162c0.103-0.059,0.179-0.174,0.289-0.253c0.131-0.089,0.504,0.048,0.525-0.058
				c0.029-0.147-0.328-0.384-0.284-0.525c0.04-0.137,0.203-0.253,0.252-0.39c0.055-0.137,0.026-0.315,0.092-0.446
				c0.061-0.132,0.297-0.185,0.368-0.311c0.071-0.121,0.044-0.305,0.116-0.431c0.076-0.126,0.47-0.048,0.549-0.174
				c0.076-0.121-0.116-0.415-0.04-0.541c0.076-0.116,0.192-0.216,0.268-0.337s0.192-0.221,0.268-0.347
				c0.079-0.126-0.037-0.347,0.034-0.473c0.071-0.126,0.224-0.2,0.284-0.331c0.061-0.131,0.192-0.226,0.247-0.357
				s0.095-0.263,0.137-0.405c0.045-0.137,0.242-0.237,0.276-0.378c0.026-0.137,0.158-0.279,0.174-0.426
				c0.018-0.142-0.273-0.31-0.273-0.458c0-0.147,0.208-0.273,0.252-0.42c0.039-0.142,0.202-0.215,0.268-0.352
				c0.061-0.132-0.103-0.379-0.021-0.51c0.076-0.126,0.197-0.221,0.284-0.347c0.089-0.126,0.013-0.368,0.105-0.494
				c0.095-0.116,0.308-0.147,0.399-0.263c0.095-0.116,0.04-0.357,0.132-0.468c0.094-0.121,0.565,0.053,0.66-0.063
				c0.082-0.11,0.092-0.268,0.181-0.373c0.087-0.105-0.034-0.389,0.061-0.494c0.087-0.105,0.213-0.179,0.305-0.284
				c0.095-0.095,0.363-0.032,0.463-0.132c0.092-0.1-0.079-0.447,0.021-0.546c0.092-0.1,0.444,0.047,0.542-0.047
				c0.094-0.1,0.166-0.221,0.265-0.326c0.092-0.1,0.032-0.353,0.126-0.452c0.092-0.095,0.278-0.116,0.375-0.21
				C24.269,19.072,24.405,18.914,24.505,18.814z M30.079,20.407c-0.107-0.116-0.081-0.284-0.187-0.378
				c-0.112-0.116-0.207-0.242-0.313-0.336c-0.118-0.105-0.37-0.042-0.48-0.131c-0.127-0.1-0.161-0.311-0.273-0.389
				c-0.135-0.095-0.444,0.147-0.565,0.079c-0.145-0.068-0.177-0.368-0.308-0.405c-0.147-0.037-0.313-0.016-0.46-0.01
				c-0.145,0.005-0.313-0.016-0.462,0.037c-0.131,0.032-0.289,0.079-0.431,0.147c-0.131,0.058-0.095,0.447-0.221,0.515
				c-0.126,0.063-0.465-0.273-0.586-0.21c-0.126,0.074-0.137,0.336-0.258,0.405c-0.121,0.068-0.166,0.268-0.278,0.347
				c-0.121,0.079-0.192,0.205-0.308,0.29c-0.116,0.084-0.313,0.042-0.429,0.126c-0.11,0.089-0.389-0.026-0.499,0.063
				c-0.108,0.095-0.284,0.116-0.389,0.21s-0.137,0.284-0.242,0.378c-0.097,0.1-0.066,0.336-0.158,0.441
				c-0.095,0.105-0.176,0.221-0.268,0.326c-0.095,0.11-0.089,0.284-0.176,0.399c-0.089,0.11-0.082,0.284-0.171,0.399
				c-0.082,0.116-0.333,0.105-0.415,0.215c-0.079,0.116-0.21,0.205-0.281,0.326c-0.071,0.121-0.36,0.121-0.434,0.236
				c-0.071,0.126,0.26,0.463,0.192,0.589c-0.066,0.126-0.174,0.226-0.234,0.352c-0.061,0.126-0.263,0.184-0.318,0.321
				c-0.055,0.126,0.066,0.326,0.011,0.458s-0.061,0.273-0.11,0.405c-0.05,0.137-0.36,0.168-0.41,0.305
				c-0.045,0.126-0.15,0.252-0.192,0.389c-0.044,0.126-0.197,0.242-0.236,0.378c-0.04,0.137,0.449,0.415,0.417,0.552
				c-0.034,0.137-0.252,0.226-0.281,0.363c-0.016,0.084,0.155,0.053,0.247,0.189c0.066,0.104-0.176,0.458-0.092,0.547
				c0.131,0.137,0.329,0.01,0.36-0.011c0.126-0.058,0.271-0.095,0.396-0.147c0.131-0.058,0.208-0.232,0.334-0.294
				c0.131-0.053,0.46,0.336,0.586,0.274c0.131-0.059,0.218-0.211,0.344-0.269c0.126-0.058,0.216-0.216,0.336-0.278
				c0.126-0.063,0.258-0.126,0.379-0.2c0.118-0.068,0.086-0.368,0.202-0.452c0.116-0.084,0.465,0.142,0.576,0.052
				c0.11-0.095,0.168-0.242,0.273-0.336c0.105-0.089,0.226-0.173,0.329-0.263c0.105-0.095,0.197-0.205,0.302-0.305
				c0.105-0.095,0.191-0.21,0.292-0.315c0.097-0.095,0.163-0.237,0.263-0.336c0.097-0.1-0.023-0.421,0.076-0.521
				c0.098-0.1,0.444,0.037,0.542-0.058c0.1-0.105,0.231-0.179,0.331-0.273c0.098-0.105-0.065-0.463,0.032-0.568
				c0.1-0.105,0.471,0.063,0.57-0.032c0.1-0.1,0.026-0.378,0.126-0.473c0.1-0.1,0.46,0.063,0.565-0.031
				c0.097-0.1,0.192-0.205,0.289-0.305c0.079-0.073,0.049-0.073,0.21-0.058c0.136,0.011,0.223-0.084,0.349-0.089
				c-0.005,0.126,0.324,0.2,0.324,0.336c0.005,0.147-0.313,0.252-0.379,0.357c-0.081,0.126-0.126,0.263-0.224,0.378
				c-0.1,0.105-0.347,0.068-0.449,0.168c-0.11,0.105-0.21,0.315-0.313,0.415c0.05,0.047,0.257,0.384,0.308,0.437
				c0.126-0.063,0.333-0.163,0.46-0.221c0.126-0.063,0.07-0.5,0.196-0.558c0.127-0.063,0.231-0.179,0.358-0.242
				c0.126-0.058,0.365,0.116,0.491,0.047c0.126-0.058,0.297-0.037,0.423-0.095c0.126-0.058,0.308-0.01,0.434-0.079
				c0.127-0.058,0.098-0.437,0.224-0.505c0.126-0.058,0.357,0.084,0.483,0.026c0.127-0.058,0.295-0.037,0.421-0.1
				c0.126-0.063,0.236-0.158,0.362-0.221c0.127-0.058,0.208-0.21,0.334-0.278c0.126-0.058,0.242-0.147,0.368-0.216
				c0.126-0.058,0.297-0.031,0.423-0.094s0.284-0.058,0.41-0.116c0.126-0.063,0.11-0.42,0.236-0.479
				c0.127-0.058,0.292-0.058,0.416-0.116c0.123-0.058,0.187-0.263,0.313-0.331c0.126-0.058,0.347,0.068,0.473,0.011
				c0.127-0.063,0.289-0.053,0.416-0.116c0.126-0.058,0.236-0.147,0.367-0.21c0.127-0.063,0.152-0.326,0.279-0.394
				c0.126-0.058,0.431,0.247,0.557,0.184c0.126-0.058,0.048-0.552,0.174-0.61c0.126-0.063,0.342,0.063,0.479,0
				c0.126-0.058,0.231-0.168,0.357-0.226c0.126-0.058,0.3-0.026,0.426-0.095c0.126-0.058,0.31-0.005,0.436-0.068
				c0.127-0.063,0.2-0.252,0.326-0.31s0.152-0.173,0.279-0.242c-0.111-0.126-0.017-0.331-0.111-0.458
				c-0.094-0.137-0.173-0.299-0.272-0.42c-0.11-0.131-0.421-0.011-0.558-0.084c-0.137-0.063-0.263-0.126-0.399-0.189
				c-0.126-0.063-0.179-0.278-0.311-0.347c-0.131-0.068-0.352,0.042-0.479-0.021c-0.136-0.063-0.272-0.105-0.404-0.174
				c-0.132-0.058-0.079-0.552-0.205-0.61c-0.137-0.058-0.368,0.105-0.505,0.047c-0.137-0.052-0.199-0.331-0.336-0.378
				c-0.137-0.052-0.441,0.42-0.589,0.378c-0.142-0.047-0.221-0.273-0.347-0.31c-0.147-0.047-0.305,0.037-0.432,0.005
				c-0.146-0.032-0.223-0.399-0.35-0.416c-0.152-0.026-0.317,0.079-0.443,0.089c-0.147,0.011-0.379-0.115-0.5-0.063
				c-0.121,0.053-0.297,0.189-0.399,0.294c-0.089,0.084-0.121,0.284-0.216,0.41c-0.07,0.105-0.07,0.278-0.146,0.41
				c-0.066,0.105,0.076,0.347,0.005,0.483c-0.061,0.116-0.202,0.194-0.273,0.326c-0.061,0.121-0.207,0.2-0.278,0.315
				c-0.065,0.116-0.16,0.231-0.231,0.347c-0.071,0.11-0.176,0.205-0.252,0.315c-0.071,0.116-0.213,0.184-0.284,0.294
				c-0.073,0.116,0.137,0.41,0.065,0.525C30.416,20.365,30.15,20.281,30.079,20.407z M28.71,29.407
				c-0.045,0.131-0.236,0.273-0.276,0.404c-0.036,0.132-0.112,0.258-0.152,0.395c-0.039,0.126,0.127,0.32,0.087,0.452
				c-0.037,0.131-0.218,0.221-0.258,0.357c-0.036,0.126,0.281,0.357,0.242,0.494c-0.037,0.137-0.334,0.194-0.373,0.325
				c-0.037,0.132-0.037,0.273-0.076,0.41c-0.037,0.127-0.121,0.247-0.158,0.379c-0.04,0.137-0.095,0.263-0.131,0.389
				c-0.04,0.137,0.268,0.373,0.229,0.505c-0.044,0.137-0.521,0.121-0.565,0.247c-0.042,0.132,0.121,0.336,0.079,0.463
				c-0.05,0.131,0.037,0.31-0.013,0.436c-0.047,0.127-0.037,0.284-0.092,0.41s-0.252,0.2-0.308,0.321
				c-0.06,0.126-0.357,0.131-0.415,0.252c-0.066,0.126-0.216,0.216-0.276,0.342c-0.061,0.126-0.016,0.31-0.071,0.441
				c-0.05,0.132,0.076,0.326,0.034,0.463c-0.044,0.131-0.073,0.268-0.11,0.404c-0.04,0.137,0.04,0.295,0,0.437
				c-0.034,0.137,0.04,0.284,0.011,0.421c-0.026,0.137-0.263,0.23-0.284,0.367c-0.023,0.137-0.105,0.264-0.126,0.399
				c-0.019,0.143-0.287,0.253-0.297,0.4c-0.016,0.137,0.418,0.315,0.41,0.451c-0.01,0.137-0.071,0.273-0.076,0.41
				c-0.005,0.137-0.168,0.279-0.168,0.416c-0.008,0.137,0.179,0.278,0.179,0.42c0,0.137,0.044,0.278,0.044,0.415
				s-0.278,0.284-0.273,0.421c0.005,0.142-0.055,0.284-0.055,0.426c0.005,0.137-0.11,0.289-0.105,0.426
				c0.005,0.137,0.555,0.252,0.56,0.399c0.005,0.137-0.176,0.284-0.171,0.426c0.005,0.11,0.176,0.147,0.231,0.278
				c0.044,0.11-0.263,0.41-0.192,0.526c0.071,0.11,0.389,0.042,0.47,0.137c0.089,0.104,0.155,0.199,0.242,0.273
				c0.126,0.1,0.171,0.01,0.268,0.01c0.14-0.01,0.302,0.474,0.439,0.463s0.276-0.126,0.408-0.142
				c0.137-0.016,0.257-0.137,0.394-0.163c0.137-0.021,0.273-0.031,0.404-0.058c0.132-0.026,0.211-0.315,0.342-0.353
				c0.132-0.031,0.355,0.32,0.486,0.289c0.132-0.037,0.247-0.142,0.384-0.174c0.132-0.031,0.269-0.047,0.407-0.078
				c0.137-0.037,0.264-0.079,0.395-0.11c0.076-0.017,0.158-0.421,0.197-0.589c0.031-0.137,0.011-0.289,0.045-0.426
				c0.031-0.137-0.236-0.353-0.205-0.489c0.034-0.137,0.402-0.189,0.434-0.326c0.034-0.137,0.11-0.263,0.142-0.399
				c0.034-0.137-0.289-0.367-0.258-0.504c0.034-0.137,0.439-0.185,0.474-0.321c0.031-0.137-0.171-0.331-0.137-0.473
				c0.031-0.137,0.426-0.185,0.46-0.321c0.031-0.137,0.055-0.283,0.087-0.42c0.034-0.137,0.005-0.289,0.039-0.426
				c0.031-0.137-0.016-0.295,0.016-0.437c0.034-0.137-0.268-0.353-0.231-0.489c0.034-0.142,0.374-0.199,0.408-0.341
				c0.031-0.143,0.005-0.289,0.036-0.426c0.034-0.143,0.261-0.231,0.292-0.368c0.034-0.137,0.005-0.289,0.039-0.426
				c0.032-0.137,0.152-0.253,0.187-0.39c0.032-0.137,0.053-0.283,0.087-0.42c0.032-0.137-0.339-0.368-0.308-0.51
				c0.034-0.137,0.011-0.289,0.045-0.426c0.031-0.137,0.318-0.216,0.35-0.353c0.034-0.132,0.166-0.226,0.197-0.362
				c0.039-0.132,0.191-0.221,0.231-0.348c0.039-0.137-0.263-0.357-0.227-0.494c0.04-0.126,0.292-0.199,0.326-0.331
				c0.031-0.131,0.152-0.252,0.174-0.384c0.023-0.131,0-0.289,0.01-0.42c0.014-0.137-0.086-0.284-0.097-0.421
				c-0.011-0.152-0.056-0.3-0.071-0.441c-0.023-0.152,0.045-0.326,0.006-0.463c-0.04-0.146-0.029-0.336-0.087-0.462
				c-0.068-0.137-0.424-0.105-0.51-0.216c-0.095-0.116-0.127-0.263-0.242-0.353c-0.115-0.084-0.297-0.016-0.438-0.084
				c-0.127-0.058-0.177-0.3-0.323-0.342c-0.132-0.036-0.264-0.163-0.413-0.184c-0.137-0.031-0.294-0.021-0.449-0.037
				c-0.143-0.016-0.3,0.205-0.455,0.194c-0.126-0.01-0.182-0.431-0.317-0.473c-0.116-0.026-0.363,0.395-0.505,0.353
				c-0.116-0.037-0.177-0.279-0.318-0.321C29.013,29.554,28.847,29.449,28.71,29.407z M33.825,30.5
				c-0.026,0.231-0.192,0.39-0.182,0.474c0.023,0.126,0.045,0.32,0.105,0.441c0.061,0.131,0.31,0.168,0.378,0.294
				s-0.005,0.326,0.058,0.452c0.068,0.126,0.458,0.074,0.526,0.2c0.073,0.126-0.095,0.384-0.021,0.505
				c0.068,0.126,0.168,0.23,0.247,0.352s0.11,0.269,0.185,0.389c0.084,0.121,0.146,0.253,0.23,0.368
				c0.079,0.121,0.458,0.021,0.547,0.137c0.084,0.116-0.205,0.505-0.115,0.615c0.084,0.115,0.347,0.084,0.441,0.2
				c0.084,0.104,0.284,0.126,0.378,0.23c0.09,0.11,0.231,0.169,0.326,0.273c0.095,0.105,0.074,0.315,0.174,0.41
				c0.1,0.105,0.005,0.399,0.11,0.494c0.1,0.1,0.142,0.273,0.241,0.379c0.105,0.095,0.284,0.115,0.39,0.21
				c0.104,0.095,0.336,0.042,0.452,0.137c0.104,0.095,0.231,0.168,0.336,0.258c0.11,0.089,0.295,0.084,0.41,0.173
				c0.116,0.084,0.284,0.079,0.399,0.163c0.116,0.079,0.105,0.331,0.221,0.415c0.126,0.074,0.205,0.211,0.326,0.284
				c0.121,0.079,0.115,0.363,0.242,0.441c0.115,0.074,0.462-0.247,0.588-0.179c0.127,0.068,0.222,0.185,0.348,0.253
				c0.126,0.063,0.179,0.263,0.305,0.325c0.126,0.063,0.336-0.052,0.468,0.011c0.132,0.063,0.278,0.073,0.404,0.132
				c0.127,0.058,0.147,0.373,0.284,0.426c0.126,0.042,0.242,0.157,0.379,0.21c0.126,0.053,0.231,0.21,0.367,0.258
				c0.127,0.047,0.437-0.437,0.573-0.39c0.137,0.048,0.216,0.264,0.353,0.3c0.137,0.042,0.31-0.068,0.446-0.036
				c0.143,0.036,0.174,0.468,0.311,0.504c0.142,0.032,0.347-0.23,0.483-0.194c0.137,0.031,0.273,0.074,0.41,0.1
				c0.142,0.026,0.305-0.078,0.441-0.047c0.137,0.026,0.2,0.531,0.342,0.552c0.142,0.026,0.3-0.047,0.447-0.031
				c0.137,0.021,0.283-0.068,0.42-0.058c0.137,0,0.284,0.01,0.41,0c0.137-0.011,0.21-0.3,0.337-0.331
				c0.137-0.037,0.399,0.278,0.515,0.215c0.126-0.058,0.221-0.21,0.326-0.294c0.104-0.084,0.231-0.174,0.315-0.278
				c0.089-0.101,0.168-0.227,0.252-0.342c0.068-0.105,0.126-0.242,0.194-0.368c0.079-0.147,0.101-0.311,0.163-0.426
				c0.074-0.158-0.163-0.395-0.126-0.516c0.053-0.179,0.379-0.268,0.337-0.389c-0.053-0.121-0.158-0.284-0.326-0.379
				c-0.105-0.058-0.39,0.216-0.558,0.153c-0.126-0.053-0.126-0.463-0.283-0.521c-0.137-0.048-0.357,0.126-0.489,0.073
				c-0.132-0.058-0.11-0.447-0.242-0.51c-0.131-0.063-0.257-0.105-0.384-0.168c-0.126-0.068-0.278-0.079-0.404-0.147
				c-0.126-0.063-0.289-0.058-0.415-0.126c-0.127-0.074-0.41,0.157-0.536,0.084c-0.127-0.073-0.095-0.415-0.221-0.489
				c-0.127-0.068-0.273-0.089-0.4-0.157c-0.126-0.068-0.146-0.311-0.272-0.384c-0.137-0.073-0.295-0.09-0.426-0.158
				c-0.132-0.073-0.216-0.226-0.342-0.294c-0.137-0.073-0.263-0.137-0.399-0.205c-0.132-0.073-0.463,0.216-0.589,0.147
				c-0.137-0.068-0.284-0.101-0.421-0.174c-0.126-0.068-0.126-0.368-0.252-0.441s-0.211-0.236-0.337-0.315
				c-0.126-0.073-0.194-0.252-0.32-0.331s-0.437,0.147-0.563,0.068c-0.126-0.084-0.105-0.357-0.21-0.474
				c-0.105-0.11-0.121-0.273-0.211-0.394c-0.095-0.121-0.215-0.221-0.305-0.342c-0.084-0.116-0.242-0.168-0.315-0.289
				c-0.079-0.121-0.179-0.227-0.252-0.348c-0.074-0.12-0.063-0.294-0.137-0.415c-0.079-0.121-0.105-0.294-0.194-0.41
				c-0.09-0.104-0.426,0-0.526-0.094c-0.104-0.101-0.152-0.237-0.278-0.306c-0.121-0.073-0.284,0.021-0.421-0.01
				c-0.126-0.043-0.221-0.264-0.367-0.279c-0.137-0.011-0.273-0.1-0.41-0.1c-0.147-0.011-0.284,0.021-0.426,0.011
				c-0.137,0-0.284,0.231-0.426,0.221c-0.137,0-0.273-0.415-0.41-0.415s-0.284,0.478-0.426,0.478c-0.137,0-0.278-0.215-0.415-0.215
				s-0.284,0.058-0.421,0.058S35.72,30.5,35.572,30.5c-0.142,0-0.278-0.126-0.42-0.126c-0.137,0-0.284,0.142-0.421,0.142
				s-0.273,0.132-0.42,0.137C34.169,30.658,33.964,30.5,33.825,30.5z M27.399,15.802c0.029,0.205-0.111,0.336-0.098,0.479
				c0.016,0.226,0.021,0.478,0.092,0.604c0.071,0.126,0.329,0.168,0.405,0.315c0.079,0.147,0.039,0.389,0.126,0.499
				c0.11,0.153,0.407-0.026,0.539-0.005c0.126,0.021,0.242,0.294,0.384,0.273c0.132-0.016,0.269-0.084,0.399-0.126
				c0.132-0.047,0.292-0.058,0.407-0.126c0.127-0.063,0.269-0.142,0.366-0.231c0.07-0.058-0.264-0.252-0.306-0.468
				c-0.034-0.142,0.36-0.426,0.3-0.573c-0.061-0.163-0.339-0.231-0.404-0.347c-0.076-0.126-0.273-0.168-0.353-0.284
				c-0.081-0.126-0.213-0.2-0.3-0.315c-0.084-0.121-0.044-0.326-0.131-0.442c-0.09-0.115,0.036-0.389-0.05-0.504
				c-0.09-0.116-0.101-0.294-0.192-0.41c-0.09-0.116-0.263-0.163-0.353-0.278c-0.126-0.163-0.459-0.311-0.581-0.289
				c-0.163,0.031-0.313,0.073-0.439,0.084c-0.187,0.021-0.35,0.137-0.465,0.126c-0.218-0.026-0.56-0.215-0.581-0.336
				c-0.023-0.11,0.242-0.326,0.323-0.489c0.061-0.121,0.192-0.221,0.273-0.357c0.076-0.126,0.373-0.126,0.444-0.258
				c0.065-0.115-0.374-0.368-0.434-0.546c-0.047-0.158-0.016-0.273-0.042-0.42c-0.131,0.037-0.202-0.063-0.341-0.032
				c-0.132,0.032-0.234,0.252-0.371,0.273c-0.155,0.031-0.318,0.116-0.484,0.158c-0.202,0.042-0.378-0.2-0.483-0.284
				c-0.108-0.084-0.179-0.215-0.289-0.305c-0.11-0.084-0.137-0.268-0.247-0.357c-0.11-0.084-0.565,0.242-0.676,0.158
				c-0.107-0.089-0.092-0.326-0.202-0.42c-0.103-0.095-0.313-0.063-0.42-0.158c-0.105-0.095,0.06-0.494-0.05-0.589
				s-0.407,0.042-0.515-0.047c-0.105-0.095-0.197-0.194-0.308-0.289c-0.11-0.095-0.297-0.084-0.404-0.168
				c-0.111-0.094,0.097-0.557-0.013-0.651c-0.103-0.084-0.268-0.095-0.374-0.189c-0.103-0.095-0.273-0.11-0.375-0.205
				c-0.105-0.089-0.2-0.194-0.308-0.289c-0.105-0.095-0.384,0.032-0.494-0.053c-0.11-0.089,0-0.494-0.116-0.567
				c-0.121-0.074-0.294-0.084-0.416-0.147c-0.126-0.063-0.276-0.137-0.407-0.168c-0.097-0.032-0.333,0.058-0.47,0.163
				c-0.095,0.068-0.192,0.184-0.297,0.294c-0.086,0.089-0.137,0.237-0.223,0.342c-0.084,0.095,0.076,0.399-0.005,0.505
				c-0.084,0.105-0.434,0.005-0.51,0.105c-0.084,0.116-0.197,0.2-0.271,0.3c-0.086,0.121,0.15,0.436,0.079,0.562
				c-0.071,0.126-0.479,0.084-0.534,0.21c-0.055,0.137,0.131,0.352,0.095,0.489c-0.04,0.142-0.428,0.216-0.45,0.353
				c-0.023,0.147-0.023,0.315-0.029,0.457c-0.005,0.142,0.055,0.31,0.066,0.452c0.005,0.142,0.105,0.289,0.121,0.431
				c0.016,0.142,0.379,0.231,0.4,0.373c0.023,0.142-0.258,0.342-0.229,0.484c0.032,0.142,0.121,0.268,0.158,0.41
				c0.034,0.137-0.121,0.326-0.086,0.473c0.031,0.142,0.126,0.268,0.152,0.41c0.029,0.147-0.042,0.294-0.026,0.431
				c0.016,0.147,0.04,0.263,0.032,0.41c-0.005,0.153,0.396,0.347,0.362,0.484c-0.031,0.158,0.011,0.263,0.005,0.389
				c-0.005,0.158-0.252,0.284-0.218,0.4c0.037,0.147,0.037,0.336,0.132,0.426c0.092,0.089,0.202,0.299,0.333,0.357
				c0.121,0.047,0.368-0.247,0.51-0.221c0.132,0.026,0.221,0.278,0.358,0.31c0.136,0.021,0.234,0.137,0.36,0.184
				c0.137,0.042,0.231,0.037,0.342,0.116c0.107,0.079,0.239,0.068,0.299,0.205c0.034,0.063,0.252,0.095,0.468,0.089
				c0.132-0.005,0.308,0.079,0.45,0.058c0.152-0.021,0.344,0.01,0.465-0.021c0.126-0.042,0.071-0.426,0.171-0.568
				c0.081-0.126,0.223-0.226,0.307-0.347c0.061-0.084-0.055-0.242-0.018-0.347c0.044-0.105,0.281-0.126,0.362-0.184
				c0.111-0.079,0.258-0.047,0.395-0.089c0.131-0.042,0.202-0.105,0.329-0.152c0.023,0.116,0.247,0.126,0.276,0.247
				c0.032,0.126-0.342,0.215-0.378,0.315c-0.045,0.137,0.354,0.42,0.308,0.546c-0.05,0.126-0.302,0.168-0.363,0.294
				c-0.055,0.126-0.066,0.268-0.126,0.395c-0.055,0.126-0.213,0.231-0.268,0.357c0.076,0.121,0.147,0.415,0.229,0.531
				c0.131-0.053,0.341-0.231,0.478-0.284c0.137-0.053,0.224-0.226,0.36-0.273c0.139-0.053,0.347,0.095,0.483,0.047
				s0.284-0.068,0.423-0.121c0.131-0.052,0.147-0.389,0.278-0.447c0.132-0.058,0.247-0.131,0.379-0.2
				c0.126-0.068,0.323,0.016,0.444-0.053c0.121-0.073,0.131-0.31,0.252-0.389c0.116-0.074,0.218-0.163,0.339-0.242
				c0.116-0.079,0.494,0.237,0.61,0.158c0.116-0.079,0.092-0.352,0.213-0.436c0.116-0.074,0.363,0.047,0.484-0.032
				C27.362,16.123,27.278,15.881,27.399,15.802z M29.06,27.13c-0.016,0.163-0.152,0.457-0.168,0.62
				c0.132,0.079,0.294,0.279,0.426,0.374c0.126,0.095,0.379,0.021,0.505,0.11c0.131,0.09,0.197,0.311,0.328,0.384
				c0.145,0.074,0.402-0.215,0.555-0.189c0.142,0.021,0.242,0.311,0.384,0.332c0.142,0.021,0.292,0.005,0.434,0.025
				c0.142,0.021,0.278,0.095,0.423,0.116c0.143,0.021,0.284,0.063,0.426,0.084c0.143,0.021,0.334-0.326,0.479-0.305
				c0.143,0.021,0.224,0.488,0.365,0.515c0.145,0.021,0.318-0.188,0.463-0.168c0.142,0.016,0.297-0.105,0.449-0.084
				c0.143,0.011,0.295-0.037,0.437-0.021c0.147,0.021,0.273,0.189,0.41,0.205c0.147,0.017,0.263,0.295,0.399,0.311
				c0.147,0.021,0.278,0.137,0.426,0.147c0.142,0.01,0.3-0.074,0.446-0.063c0.137,0.016,0.306-0.157,0.447-0.142
				s0.289,0.011,0.437,0.026c0.137,0.016,0.294-0.084,0.441-0.074c0.152,0.021,0.252-0.078,0.389-0.095
				c0.147-0.01,0.295,0.174,0.421,0.127c0.137-0.053,0.284-0.063,0.399-0.147c0.115-0.079,0.41-0.011,0.505-0.116
				c0.095-0.104-0.169-0.494-0.095-0.614c0.079-0.116,0.189-0.2,0.263-0.331c0.063-0.121,0.268-0.179,0.326-0.311
				c0.063-0.132-0.059-0.331-0.016-0.462c0.047-0.137,0.047-0.268,0.084-0.405c0.036-0.137,0.342-0.21,0.362-0.357
				c0.026-0.142,0.115-0.284,0.126-0.421c0.011-0.142,0.137-0.294,0.147-0.431c0.005-0.147-0.536-0.294-0.547-0.437
				c0-0.142,0.185-0.284,0.179-0.426c-0.005-0.147-0.168-0.273-0.179-0.42c-0.011-0.137,0.389-0.31,0.379-0.452
				c-0.011-0.142-0.326-0.263-0.337-0.41c-0.011-0.137,0-0.284-0.011-0.42c-0.01-0.105-0.157-0.095-0.241-0.221
				c-0.074-0.105,0.199-0.526,0.115-0.615c-0.137-0.131-0.499-0.184-0.557-0.163c-0.137,0.058-0.231,0.205-0.368,0.263
				c-0.137,0.052-0.284,0.095-0.421,0.152c-0.137,0.053-0.163,0.363-0.294,0.42c-0.137,0.058-0.432-0.236-0.567-0.173
				c-0.127,0.058-0.231,0.194-0.368,0.263c-0.126,0.063-0.273,0.116-0.399,0.189c-0.127,0.074-0.253,0.168-0.379,0.242
				c-0.126,0.079-0.242,0.179-0.357,0.263c-0.115,0.079-0.157,0.273-0.21,0.431c-0.042,0.126,0.241,0.326,0.221,0.484
				c-0.021,0.136-0.373,0.236-0.399,0.378c-0.021,0.147-0.079,0.284-0.116,0.41c-0.042,0.137,0.253,0.4,0.211,0.526
				c-0.059,0.137-0.452,0.095-0.505,0.221c-0.084,0.068,0,0.3-0.095,0.368c-0.09,0.063-0.158-0.21-0.252-0.142
				c-0.042-0.121,0.052-0.079,0.01-0.215c-0.042-0.126-0.146-0.252-0.205-0.379c-0.058-0.126-0.226-0.242-0.32-0.32
				c-0.089-0.079-0.389,0.126-0.515,0.058c-0.124-0.063-0.129-0.399-0.255-0.431c-0.147-0.037-0.313,0.016-0.424,0.063
				c-0.126,0.047-0.328-0.084-0.46-0.032c-0.126,0.058-0.233,0.168-0.36,0.221c-0.126,0.053-0.291,0.021-0.417,0.084
				c-0.127,0.053-0.247,0.126-0.374,0.179c-0.126,0.053-0.081,0.494-0.207,0.558c-0.126,0.052-0.227,0.163-0.353,0.221
				c-0.126,0.063-0.354-0.116-0.48-0.058c-0.127,0.053-0.292,0.026-0.418,0.079c-0.127,0.058-0.3,0.01-0.426,0.063
				c-0.127,0.063-0.105,0.441-0.227,0.494C29.428,27.167,29.186,27.072,29.06,27.13z M13.216,45.944
				c-0.131-0.053-0.247-0.295-0.373-0.353c-0.126-0.058-0.231-0.152-0.357-0.216c-0.126-0.067-0.344,0.053-0.471-0.016
				c-0.126-0.068-0.171-0.268-0.292-0.342c-0.121-0.068-0.426,0.174-0.547,0.105c-0.121-0.073-0.1-0.378-0.221-0.457
				s-0.258-0.121-0.378-0.194c-0.121-0.074-0.208-0.189-0.329-0.273c-0.121-0.074-0.224-0.168-0.344-0.247
				c-0.116-0.079-0.439,0.152-0.555,0.079c-0.116-0.079,0.016-0.537-0.105-0.615c-0.121-0.079-0.355,0.031-0.476-0.037
				c-0.121-0.079-0.313-0.031-0.434-0.105c-0.121-0.078-0.273-0.089-0.394-0.157c-0.121-0.073-0.166-0.273-0.287-0.347
				c-0.121-0.074-0.113-0.374-0.239-0.442c-0.126-0.063-0.21-0.215-0.336-0.283c-0.126-0.063-0.305-0.031-0.431-0.095
				c-0.126-0.058-0.336,0.058-0.468,0c-0.131-0.053-0.263-0.084-0.394-0.137s-0.297,0.011-0.434-0.037
				c-0.131-0.042-0.289,0.016-0.42-0.021c-0.14-0.037-0.21-0.279-0.347-0.311c-0.137-0.036-0.257-0.126-0.399-0.147
				c-0.137-0.031-0.247-0.299-0.384-0.314c-0.137-0.017-0.16,0.314-0.297,0.305c0.084,0.115,0.11,0.073,0.192,0.188
				c0.084,0.116,0.039,0.326,0.121,0.437c0.082,0.116,0.318,0.121,0.4,0.242c0.084,0.115,0.2,0.205,0.281,0.32
				c0.082,0.116-0.065,0.399,0.016,0.516c0.082,0.115,0.116,0.273,0.197,0.389c0.082,0.115,0.066,0.3,0.15,0.415
				c0.082,0.116,0.607-0.078,0.689,0.032c0.084,0.115,0.013,0.341,0.094,0.457c0.082,0.115,0.289,0.142,0.374,0.258
				c0.082,0.11-0.171,0.468-0.089,0.583c0.084,0.116,0.413,0.063,0.494,0.179c0.082,0.116,0.147,0.242,0.231,0.357
				c0.082,0.116,0.268,0.163,0.35,0.278c0.082,0.111-0.236,0.516-0.152,0.626c0.082,0.115,0.247,0.179,0.329,0.294
				c0.082,0.116,0.247,0.179,0.329,0.289c0.082,0.116,0.152,0.242,0.236,0.358c0.082,0.115,0.384,0.078,0.465,0.194
				c0.082,0.115-0.152,0.457-0.071,0.572c0.081,0.116,0.231,0.185,0.313,0.311c0.082,0.115,0.147,0.242,0.229,0.357
				c0.084,0.115,0.182,0.226,0.266,0.342c0.082,0.115,0.187,0.216,0.268,0.342c0.082,0.115,0.213,0.199,0.294,0.315
				c0.084,0.115,0.205-0.063,0.287,0.063c0.092-0.115,0.247,0.084,0.333-0.031c0.095-0.115,0.221-0.21,0.313-0.32
				c0.095-0.116-0.097-0.468-0.011-0.573c0.092-0.115,0.484,0.011,0.576-0.105c0.092-0.115,0-0.389,0.087-0.504
				c0.095-0.116,0.479,0,0.565-0.105c0.095-0.115,0.176-0.242,0.268-0.357c0.095-0.116,0.139-0.269,0.231-0.384
				c0.092-0.115,0.121-0.278,0.208-0.395c0.095-0.115-0.087-0.441,0.005-0.557c0.095-0.116,0.428-0.059,0.539-0.242
				C13.001,46.313,13.101,46.117,13.216,45.944z M32.734,23.43c0.05,0.116-0.006,0.342,0.045,0.447
				c0.047,0.116,0.218,0.368,0.268,0.483c0.126-0.058,0.328-0.326,0.455-0.389c0.126-0.058,0.317,0.01,0.452-0.047
				c0.126-0.058,0.089-0.458,0.221-0.515c0.126-0.058,0.373,0.121,0.499,0.058s0.236-0.163,0.368-0.221
				c0.126-0.063,0.273-0.079,0.404-0.147c0.126-0.058,0.263-0.105,0.39-0.168c0.126-0.058,0.094-0.452,0.221-0.515
				c0.126-0.058,0.452,0.294,0.578,0.226c0.126-0.058,0.163-0.321,0.289-0.389c0.126-0.058,0.194-0.252,0.32-0.32
				c0.126-0.058,0.221-0.184,0.347-0.242c0.127-0.063,0.326,0.01,0.452-0.053c0.127-0.063,0.368,0.116,0.494,0.053
				c0.127-0.058,0.3-0.037,0.426-0.095c0.127-0.063,0.205-0.221,0.331-0.284c0.127-0.058,0.174-0.294,0.306-0.352
				c0.126-0.058,0.247-0.142,0.373-0.205c0.121-0.063,0.205-0.231,0.331-0.289c0.126-0.058,0.205-0.215,0.336-0.278
				c0.132-0.068,0.353,0.068,0.474,0.005c0.126-0.063,0.284-0.068,0.415-0.131c0.126-0.063,0.363,0.095,0.494,0.037
				c0.132-0.058,0.058-0.526,0.185-0.583c0.126-0.063,0.215,0,0.341-0.068c-0.058-0.126,0.006-0.247-0.058-0.374
				c-0.126,0.063-0.199,0.289-0.331,0.347c-0.131,0.058-0.242,0.152-0.373,0.21c-0.132,0.063-0.373-0.142-0.505-0.084
				c-0.131,0.053-0.284,0.058-0.41,0.116c-0.131,0.058-0.305,0-0.441,0.063c-0.126,0.063-0.031,0.615-0.163,0.673
				c-0.131,0.063-0.331-0.052-0.468,0.011c-0.126,0.058-0.194,0.252-0.32,0.315c-0.132,0.063-0.426-0.263-0.563-0.2
				c-0.126,0.058-0.137,0.389-0.263,0.447c-0.126,0.058-0.263,0.1-0.39,0.152c-0.126,0.052-0.21,0.236-0.336,0.294
				c-0.137,0.058-0.463-0.331-0.589-0.279c-0.126,0.058-0.221,0.205-0.347,0.263c-0.126,0.058-0.221,0.21-0.347,0.268
				c-0.127,0.053-0.264,0.1-0.39,0.158c-0.137,0.053-0.146,0.358-0.273,0.421c-0.137,0.063-0.42-0.242-0.552-0.189
				c-0.131,0.058-0.226,0.189-0.353,0.242c-0.136,0.063-0.272,0.1-0.399,0.158c-0.126,0.063-0.252,0.137-0.378,0.189
				c-0.126,0.052-0.242,0.137-0.379,0.189c-0.129,0.063-0.233,0.174-0.359,0.226c-0.132,0.063-0.132,0.405-0.258,0.463
				C33.173,23.593,32.865,23.372,32.734,23.43z M18.452,30.516c0.01,0.185-0.084,0.479-0.071,0.668
				c0.103,0.073,0.224,0.258,0.329,0.353c0.097,0.089,0.339,0.026,0.439,0.11c0.103,0.095,0.131,0.305,0.242,0.368
				c0.118,0.067,0.344-0.222,0.471-0.211c0.131,0.011,0.257,0.273,0.389,0.263c0.132-0.016,0.263-0.084,0.389-0.126
				s0.287-0.063,0.389-0.137c0.11-0.079,0.242-0.179,0.313-0.294c0.071-0.101-0.223-0.331-0.197-0.463
				c0.021-0.121,0.478-0.226,0.46-0.368c-0.016-0.126-0.313-0.221-0.434-0.357c-0.092-0.104-0.294-0.095-0.42-0.184
				c-0.126-0.095-0.263-0.095-0.399-0.163c-0.155-0.068-0.215-0.242-0.347-0.252c-0.136-0.011-0.349-0.211-0.499-0.137
				c-0.121,0.068-0.323,0.095-0.45,0.194c-0.116,0.089-0.163,0.273-0.278,0.368C18.654,30.248,18.573,30.438,18.452,30.516z
				 M26.736,25.559c-0.1,0.116-0.334,0.163-0.434,0.268c-0.105,0.116-0.231,0.194-0.323,0.284c-0.116,0.116-0.066,0.374-0.142,0.468
				c-0.145,0.163-0.368,0.368-0.336,0.452c0.055,0.137,0.452,0.079,0.539,0.205c0.082,0.116-0.034,0.394,0.071,0.504
				c0.1,0.11,0.231,0.194,0.334,0.3c0.105,0.105,0.226,0.273,0.318,0.379c0.084-0.084,0.263-0.174,0.363-0.253
				c0.097-0.084-0.04-0.447,0.055-0.531c0.103-0.09,0.521,0.152,0.591,0.058c0.095-0.105-0.026-0.347-0.021-0.458
				c0.005-0.121-0.161-0.152-0.231-0.278c-0.055-0.1-0.171-0.147-0.257-0.252c-0.071-0.095-0.032-0.284-0.121-0.389
				c-0.076-0.095,0.05-0.363-0.032-0.468C27.031,25.737,26.813,25.664,26.736,25.559z M4.165,39.531
				c0.092,0.184,0.168,0.552,0.263,0.73c0.126-0.068,0.455-0.1,0.576-0.168c0.126-0.068,0.147-0.321,0.273-0.384
				c0.126-0.063,0.318,0,0.444-0.063c0.126-0.068,0.077-0.457,0.203-0.525c0.126-0.063,0.378,0.105,0.504,0.042
				c0.126-0.068,0.231-0.168,0.358-0.231c0.126-0.068,0.273-0.089,0.399-0.157c0.126-0.063,0.257-0.116,0.384-0.185
				c0.126-0.068,0.076-0.457,0.202-0.525s0.468,0.273,0.591,0.205c0.126-0.063,0.145-0.326,0.271-0.399
				c0.126-0.063,0.092-0.126,0.218-0.194c-0.086-0.174-0.121-0.11-0.208-0.289c-0.126,0.068-0.1,0-0.226,0.063
				c-0.126,0.063-0.373-0.104-0.497-0.036c-0.126,0.068-0.297,0.042-0.423,0.11c-0.126,0.063-0.202,0.221-0.329,0.289
				c-0.126,0.068-0.166,0.3-0.292,0.368c-0.126,0.067-0.242,0.146-0.368,0.215c-0.126,0.063-0.197,0.231-0.323,0.3
				c-0.126,0.068-0.202,0.226-0.329,0.289c-0.126,0.068-0.35-0.058-0.476,0.005c-0.126,0.068-0.281,0.079-0.407,0.143
				C4.848,39.2,4.609,39.048,4.482,39.11C4.367,39.163,4.291,39.458,4.165,39.531z M44.094,18.163
				c0.079,0.179,0.137,0.546,0.216,0.73c0.131-0.063,0.462-0.089,0.588-0.158c0.127-0.058,0.169-0.315,0.295-0.378
				c0.126-0.058,0.32,0.011,0.452-0.052c0.137-0.063,0.1-0.452,0.231-0.521c0.131-0.058,0.378,0.116,0.51,0.058
				c0.131-0.063,0.241-0.163,0.373-0.231c0.132-0.058,0.278-0.079,0.41-0.136c0.137-0.063,0.273-0.116,0.399-0.179
				c0.126-0.063,0.095-0.452,0.226-0.521c0.132-0.058,0.463,0.284,0.595,0.226c0.131-0.063,0.163-0.332,0.289-0.389
				c0.126-0.063,0.194-0.263,0.331-0.321c0.126-0.058,0.115-0.079,0.241-0.142c-0.047-0.1,0.105-0.005,0.053-0.105
				c-0.131,0.053-0.315-0.137-0.441-0.073c-0.137,0.052-0.305,0.026-0.437,0.084c-0.131,0.053-0.226,0.21-0.352,0.263
				c-0.137,0.058-0.194,0.284-0.326,0.347c-0.137,0.063-0.263,0.131-0.389,0.189c-0.137,0.053-0.221,0.221-0.353,0.273
				s-0.226,0.21-0.357,0.263c-0.132,0.053-0.353-0.084-0.479-0.031c-0.137,0.058-0.294,0.058-0.426,0.116
				c-0.131,0.058-0.362-0.116-0.494-0.058c-0.131,0.058-0.089,0.521-0.216,0.583c-0.137,0.058-0.289,0.063-0.42,0.116
				C44.482,18.178,44.225,18.104,44.094,18.163z M24.799,28.429c-0.082-0.168-0.158-0.526-0.239-0.694
				c-0.126,0.063-0.444,0.105-0.57,0.168c-0.126,0.068-0.155,0.322-0.281,0.384c-0.126,0.068-0.323,0-0.449,0.068
				c-0.126,0.063-0.082,0.452-0.208,0.521c-0.126,0.068-0.378-0.11-0.504-0.037c-0.126,0.068-0.252,0.189-0.378,0.253
				c0.076,0.157,0.16,0.399,0.242,0.552c0.126-0.068,0.334-0.116,0.46-0.174c0.126-0.068,0.089-0.457,0.213-0.525
				c0.126-0.063,0.462,0.284,0.589,0.221c0.126-0.063,0.152-0.326,0.278-0.389c0.126-0.063,0.187-0.258,0.318-0.315
				C24.4,28.397,24.668,28.497,24.799,28.429z M14.41,34.79c-0.071-0.137-0.142-0.474-0.218-0.621
				c-0.121,0.063-0.418,0.095-0.536,0.158c-0.121,0.058-0.15,0.305-0.266,0.368c-0.121,0.058-0.305-0.021-0.426,0.042
				c-0.121,0.063-0.079,0.452-0.197,0.505c-0.121,0.063-0.363-0.127-0.479-0.063c-0.121,0.058-0.224,0.147-0.339,0.21
				c-0.121,0.063-0.308,0.137-0.429,0.2c0.076,0.147,0.203,0.41,0.279,0.557c0.121-0.063,0.16-0.452,0.281-0.51
				c0.121-0.058,0.444,0.289,0.565,0.227c0.121-0.063,0.137-0.326,0.252-0.39c0.121-0.058,0.168-0.252,0.289-0.31
				s0.208-0.179,0.323-0.236c0.121-0.063,0.308,0.01,0.428-0.053C14.06,34.811,14.289,34.853,14.41,34.79z"/>
		</g>
		<g>
			<path d="M18.886,12.569c-0.084-0.121,0.021-0.173-0.034-0.289c-0.066-0.126-0.152-0.215-0.187-0.336
				c-0.037-0.142-0.121-0.247-0.121-0.373c-0.005-0.142-0.208-0.321-0.176-0.447c0.034-0.126,0.068-0.305,0.126-0.431
				c0.061-0.121,0.11-0.289,0.187-0.399c0.079-0.11,0.302-0.131,0.392-0.237c0.087-0.11,0.384,0.089,0.51,0.174
				c0.131,0.094,0.481,0.284,0.426,0.431c-0.055,0.142-0.137,0.279-0.202,0.421c-0.061,0.137-0.476,0.121-0.542,0.263
				c-0.066,0.137,0.124,0.399,0.058,0.536c-0.065,0.137-0.147,0.273-0.218,0.416C19.038,12.428,18.957,12.428,18.886,12.569z"/>
		</g>
		<g>
			<path d="M21.719,13.016c0,0.137-0.137,0.184-0.192,0.305c-0.05,0.126-0.044,0.189-0.142,0.284
				c-0.095,0.095-0.147,0.105-0.273,0.158c-0.121,0.053-0.171,0.452-0.308,0.452s-0.276-0.179-0.394-0.237
				c-0.126-0.047-0.331-0.037-0.429-0.131c-0.094-0.094,0.116-0.384,0.061-0.51c-0.05-0.121-0.05-0.173-0.05-0.31
				s0-0.194,0.055-0.315c0.05-0.126-0.187-0.441-0.095-0.531c0.095-0.095,0.413,0.152,0.539,0.1
				c0.121-0.052,0.168-0.126,0.307-0.126c0.137,0,0.305-0.21,0.426-0.158c0.126,0.047,0.252,0.163,0.347,0.252
				c0.092,0.094,0.061,0.284,0.116,0.41C21.74,12.774,21.719,12.879,21.719,13.016z"/>
		</g>
	</g>
</g>
</svg>
