<?xml version="1.0" encoding="utf-8"?>
<!-- Generator: Adobe Illustrator 16.0.0, SVG Export Plug-In . SVG Version: 6.00 Build 0)  -->
<!DOCTYPE svg PUBLIC "-//W3C//DTD SVG 1.1//EN" "http://www.w3.org/Graphics/SVG/1.1/DTD/svg11.dtd">
<svg version="1.1" id="圖層_1" xmlns="http://www.w3.org/2000/svg" xmlns:xlink="http://www.w3.org/1999/xlink" x="0px" y="0px"
	 width="55px" height="55px" viewBox="0 0 55 55" enable-background="new 0 0 55 55" xml:space="preserve">
<g>
	<path d="M51.193,16.623c0.01,0.088,0.235,0.176,0.245,0.264c0.01,0.093-0.235,0.215-0.226,0.304
		c0.015,0.093,0.313,0.146,0.323,0.245c0.01,0.088,0.034,0.176,0.044,0.274c0.015,0.088-0.015,0.186-0.005,0.274
		c0.01,0.093-0.059,0.196-0.049,0.284c0.01,0.093,0.093,0.176,0.107,0.269c0.01,0.093-0.186,0.206-0.171,0.298
		c0.01,0.098,0.229,0.157,0.244,0.25c0.01,0.093-0.137,0.201-0.127,0.294c0.015,0.088-0.005,0.186,0.005,0.279
		c0.01,0.088,0.02,0.181,0.029,0.274c0.01,0.088,0.284,0.147,0.294,0.24c0.01,0.088-0.029,0.186-0.02,0.279
		c0.01,0.088,0.034,0.181,0.049,0.274c0.01,0.088,0.049,0.181,0.059,0.274c0.015,0.088-0.244,0.215-0.225,0.304
		c0.01,0.088,0.01,0.186,0.02,0.274s0.264,0.152,0.273,0.245c0.01,0.088,0.039,0.176,0.049,0.264c0.01,0.098,0.049,0.186,0.06,0.274
		c0.01,0.098-0.016,0.191,0,0.284c0.015,0.093,0.063,0.181,0.078,0.269c0.01,0.093-0.02,0.191-0.01,0.279
		c0.01,0.093-0.226,0.22-0.211,0.313c0.015,0.093,0.24,0.157,0.26,0.245c0.01,0.088,0.073,0.176,0.088,0.27
		c0.01,0.093-0.098,0.2-0.088,0.293c0.01,0.093,0.078,0.176,0.088,0.269c0.015,0.088-0.103,0.206-0.088,0.294
		c0.01,0.088,0.156,0.166,0.166,0.259c0.01,0.088,0.039,0.181,0.049,0.269c0.01,0.093-0.127,0.206-0.117,0.298
		c0.01,0.093,0.098,0.171,0.107,0.27c0.01,0.088,0.128,0.166,0.143,0.264c0.01,0.088-0.201,0.21-0.182,0.303
		c0.01,0.088,0.147,0.167,0.157,0.26c0.01,0.093,0.142,0.171,0.156,0.259c0.01,0.088-0.221,0.215-0.206,0.303
		c0.01,0.093,0.274,0.157,0.284,0.245c0.01,0.088-0.024,0.191-0.01,0.284c0.01,0.088-0.225,0.215-0.205,0.304
		c0.01,0.093,0.107,0.176,0.117,0.264c0.01,0.093,0,0.187,0.01,0.274c0.01,0.093-0.029,0.195-0.02,0.283
		c0.015,0.089,0.323,0.147,0.333,0.235c0.015,0.098-0.255,0.226-0.245,0.313c0.015,0.098,0.323,0.146,0.333,0.239
		c0.01,0.094-0.117,0.201-0.107,0.299c0.01,0.088,0.098,0.171,0.107,0.265c0.01,0.093,0.098,0.176,0.107,0.264
		c0.01,0.098-0.02,0.196-0.01,0.284c0.01,0.093,0.01,0.186,0.02,0.274c0.01,0.098,0.068,0.186,0.078,0.273
		c0.01,0.093-0.127,0.201-0.117,0.294c0.015,0.098-0.103,0.195-0.088,0.294c0.01,0.083,0.22,0.176,0.195,0.273
		c-0.015,0.088-0.01,0.216-0.044,0.299c-0.034,0.093-0.142,0.166-0.19,0.239c-0.059,0.079-0.177,0.118-0.245,0.157
		c-0.088,0.049-0.205,0.02-0.294,0.063c-0.078,0.049-0.093,0.21-0.176,0.26c-0.078,0.049-0.27-0.094-0.348-0.05
		c-0.083,0.05-0.063,0.274-0.142,0.323c-0.088,0.049-0.196,0.039-0.284,0.083c-0.078,0.045-0.156,0.104-0.234,0.152
		c-0.089,0.039-0.152,0.117-0.235,0.161c-0.078,0.044-0.146,0.132-0.229,0.172c-0.084,0.039-0.26-0.108-0.343-0.069
		s-0.093,0.245-0.182,0.279c-0.088,0.034-0.225-0.039-0.308-0.005c-0.084,0.039-0.221-0.059-0.309-0.029
		c-0.088,0.034-0.156,0.088-0.25,0.117c-0.093,0.029-0.171,0.073-0.259,0.098c-0.098,0.021-0.157,0.23-0.255,0.235
		c-0.098,0.01-0.2-0.01-0.304-0.02c-0.088-0.005-0.186-0.059-0.283-0.078c-0.098-0.015-0.211,0.029-0.304,0.01
		c-0.098-0.02-0.146-0.216-0.24-0.245c-0.093-0.024-0.22,0.068-0.313,0.039s-0.162-0.156-0.25-0.186
		c-0.098-0.029-0.2-0.024-0.294-0.049c-0.098-0.024-0.215,0.059-0.313,0.034c-0.088-0.015-0.187-0.034-0.274-0.063
		c-0.083-0.029-0.186-0.029-0.274-0.059c-0.083-0.029-0.112-0.255-0.195-0.274c-0.093-0.024-0.19-0.117-0.284-0.127
		c-0.088-0.01-0.19,0.059-0.283,0.044c-0.099-0.005-0.206,0.156-0.294,0.151c-0.098-0.01-0.195,0.068-0.289,0.059
		c-0.093-0.01-0.161-0.283-0.259-0.288c-0.093-0.005-0.187-0.074-0.274-0.084c-0.098-0.01-0.205,0.265-0.304,0.255
		c-0.093-0.005-0.176-0.137-0.269-0.146s-0.191,0.098-0.289,0.088c-0.093-0.005-0.171-0.172-0.265-0.177
		c-0.098-0.01-0.186,0.02-0.283,0.005c-0.093-0.005-0.206,0.182-0.299,0.172s-0.151-0.323-0.245-0.333
		c-0.093-0.01-0.19,0.049-0.283,0.039s-0.221,0.187-0.309,0.177c-0.093-0.02-0.19,0-0.284-0.02c-0.088-0.011-0.127-0.304-0.22-0.323
		c-0.088-0.02-0.182-0.01-0.27-0.034s-0.19,0.015-0.283-0.005c-0.089-0.02-0.211,0.078-0.294,0.054
		c-0.093-0.024-0.156-0.143-0.24-0.172c-0.088-0.02-0.132-0.195-0.22-0.225c-0.088-0.024-0.177-0.049-0.265-0.078
		c-0.088-0.02-0.176-0.029-0.269-0.059c-0.089-0.025-0.211,0.073-0.304,0.044c-0.083-0.024-0.132-0.201-0.221-0.23
		c-0.088-0.02-0.254,0.216-0.337,0.191c-0.094-0.025-0.177-0.045-0.27-0.069c-0.088-0.024-0.146-0.146-0.24-0.166
		c-0.093-0.024-0.146-0.186-0.239-0.205c-0.088-0.016-0.206,0.098-0.294,0.083c-0.093-0.02-0.205,0.078-0.294,0.059
		c-0.088-0.01-0.166-0.142-0.254-0.157c-0.093-0.015-0.167-0.176-0.26-0.195c-0.093-0.01-0.2,0.068-0.288,0.059
		c-0.094-0.01-0.196,0.054-0.284,0.049c-0.093-0.01-0.187,0.02-0.284,0.01c-0.088-0.005-0.19,0.099-0.283,0.088
		c-0.089-0.004-0.177-0.098-0.27-0.103s-0.19,0.063-0.284,0.059c-0.093-0.005-0.171-0.21-0.259-0.22
		c-0.099-0.005-0.191,0.029-0.284,0.02c-0.054,0-0.156,0.049-0.245,0.137c-0.059,0.063-0.171,0.113-0.215,0.187
		c-0.068,0.107-0.068,0.264-0.049,0.313c0.039,0.099,0.02,0.187,0.039,0.274c0.02,0.098,0.088,0.166,0.093,0.26
		c0,0.098,0.068,0.2,0.049,0.288c-0.024,0.089-0.103,0.167-0.142,0.245c-0.039,0.088-0.039,0.205-0.088,0.284
		c-0.059,0.073-0.138,0.137-0.206,0.205c-0.063,0.063-0.088,0.181-0.166,0.235c-0.068,0.063-0.265-0.034-0.343,0.024
		c-0.068,0.059,0.01,0.308-0.059,0.367c-0.088,0.068-0.333-0.069-0.401,0c-0.078,0.078-0.186,0.161-0.23,0.234
		c-0.049,0.098-0.049,0.265-0.034,0.362c0.01,0.088,0,0.25,0.059,0.353c0.045,0.073,0.333-0.01,0.406,0.078
		c0.045,0.054,0.015,0.225,0.03,0.343c0.005,0.093,0.054,0.215,0.039,0.303c-0.024,0.118-0.089,0.284-0.143,0.323
		c-0.078,0.054-0.239-0.02-0.322,0.029c-0.079,0.049-0.045,0.284-0.123,0.328c-0.083,0.044-0.166,0.093-0.249,0.142
		c-0.084,0.049-0.313-0.181-0.392-0.137c-0.083,0.039-0.133,0.146-0.216,0.191c-0.078,0.039-0.059,0.308-0.142,0.347
		s-0.309-0.225-0.387-0.186c-0.088,0.039-0.127,0.195-0.216,0.234c-0.088,0.035-0.146,0.157-0.234,0.187
		c-0.093,0.029-0.265-0.167-0.357-0.137c-0.093,0.029-0.171,0.088-0.26,0.122c-0.093,0.034-0.098,0.309-0.19,0.338
		c-0.093,0.034-0.2,0.015-0.289,0.049c-0.088,0.039-0.264-0.128-0.352-0.093c-0.089,0.039-0.079,0.298-0.167,0.337
		s-0.2,0.02-0.289,0.059c-0.083,0.04-0.117,0.206-0.205,0.245c-0.083,0.039-0.26-0.103-0.348-0.059
		c-0.083,0.039-0.127,0.166-0.215,0.205c-0.088,0.039-0.23-0.029-0.313,0.01c-0.088,0.039-0.162,0.118-0.245,0.157
		c-0.088,0.039-0.201,0.029-0.284,0.068c-0.088,0.039-0.132,0.176-0.22,0.225c-0.083,0.04-0.245-0.068-0.328-0.029
		c-0.088,0.039-0.093,0.265-0.176,0.304c-0.088,0.039-0.23-0.039-0.323,0c-0.083,0.039-0.186,0.044-0.274,0.083
		c-0.088,0.039-0.073,0.328-0.156,0.362c-0.088,0.034-0.215-0.044-0.304-0.005c-0.078,0.039-0.23-0.078-0.313-0.039
		c-0.079,0.039-0.137,0.132-0.225,0.166c-0.079,0.04-0.127,0.157-0.21,0.196c-0.083,0.034-0.118,0.171-0.201,0.21
		c-0.083,0.039-0.245-0.093-0.323-0.049c-0.088,0.039-0.098,0.211-0.181,0.25c-0.083,0.039-0.21-0.01-0.289,0.034
		s-0.083,0.229-0.167,0.27c-0.078,0.044-0.201,0-0.284,0.044c-0.079,0.044-0.21-0.005-0.289,0.034
		c-0.083,0.049-0.073,0.229-0.156,0.273c-0.079,0.049-0.23-0.029-0.309,0.015c-0.078,0.05-0.054,0.25-0.127,0.299
		c-0.079,0.049-0.284-0.098-0.362-0.044c-0.073,0.049-0.098,0.176-0.171,0.23c-0.073,0.054-0.112,0.156-0.181,0.205
		c-0.073,0.059-0.137,0.127-0.206,0.186c-0.068,0.055-0.073,0.187-0.146,0.245c-0.069,0.059-0.343-0.142-0.421-0.088
		c-0.079,0.054-0.088,0.186-0.167,0.234c-0.078,0.054-0.215,0-0.293,0.049c-0.079,0.045-0.142,0.113-0.225,0.157
		c-0.079,0.049-0.093,0.215-0.176,0.254c-0.083,0.05-0.127,0.157-0.215,0.196c-0.079,0.049-0.152,0.107-0.235,0.146
		c-0.083,0.049-0.206,0.01-0.289,0.049c-0.083,0.044-0.201,0.02-0.279,0.064c-0.088,0.044-0.186-0.016-0.274,0.01
		c-0.088,0.029-0.127,0.22-0.21,0.229c-0.093,0.005-0.176-0.039-0.27-0.059c-0.083-0.02-0.235,0.107-0.313,0.068
		s-0.01-0.323-0.088-0.382c-0.069-0.054-0.357,0.138-0.421,0.068c-0.069-0.068,0.078-0.337,0.01-0.406
		c-0.069-0.068-0.245-0.029-0.313-0.093c-0.059-0.068-0.152-0.112-0.215-0.176c-0.068-0.068-0.034-0.235-0.098-0.304
		c-0.069-0.068-0.255-0.01-0.318-0.078s0.015-0.279-0.049-0.348s-0.132-0.132-0.201-0.2c-0.063-0.069-0.303,0.029-0.372-0.034
		c-0.068-0.064,0.044-0.309-0.02-0.367c-0.068-0.069-0.225-0.049-0.293-0.118c-0.064-0.068-0.127-0.137-0.196-0.195
		c-0.068-0.068-0.054-0.216-0.123-0.284c-0.063-0.068-0.191-0.073-0.259-0.137c-0.068-0.068-0.122-0.146-0.191-0.211
		c-0.063-0.068-0.157-0.107-0.225-0.176c-0.063-0.068-0.152-0.112-0.22-0.181c-0.063-0.069-0.206-0.06-0.274-0.128
		c-0.063-0.063-0.157-0.107-0.215-0.176c-0.068-0.063-0.088-0.177-0.157-0.245c-0.068-0.063-0.176-0.088-0.245-0.156
		c-0.068-0.059-0.068-0.195-0.137-0.26c-0.068-0.063-0.068-0.2-0.132-0.269c-0.069-0.068-0.049-0.216-0.118-0.284
		s-0.117-0.156-0.186-0.215c-0.068-0.069-0.171-0.099-0.23-0.167c-0.068-0.063-0.245-0.02-0.313-0.088
		c-0.064-0.063,0.015-0.279-0.049-0.343c-0.069-0.059-0.167-0.098-0.235-0.156c-0.059-0.063-0.107-0.147-0.176-0.216
		c-0.064-0.059-0.215-0.039-0.279-0.098c-0.063-0.068-0.142-0.117-0.21-0.176c-0.068-0.069-0.078-0.191-0.142-0.255
		c-0.064-0.063-0.27,0.01-0.333-0.049c-0.063-0.068-0.181-0.083-0.245-0.146c-0.063-0.06,0.034-0.294-0.034-0.362
		c-0.069-0.063-0.113-0.147-0.181-0.211s-0.279,0.024-0.348-0.034c-0.068-0.063-0.088-0.176-0.146-0.244
		c-0.069-0.064-0.064-0.201-0.132-0.265c-0.063-0.063-0.21-0.044-0.274-0.107c-0.064-0.068-0.201-0.059-0.265-0.128
		c-0.063-0.059,0.035-0.303-0.034-0.361c-0.068-0.069-0.274,0.029-0.342-0.039c-0.069-0.064,0.054-0.323-0.015-0.392
		c-0.069-0.06-0.294,0.049-0.362-0.02c-0.068-0.06-0.005-0.265-0.073-0.328c-0.069-0.063-0.313,0.068-0.382,0.005
		c-0.069-0.059-0.157-0.107-0.215-0.167c-0.069-0.059-0.132-0.127-0.201-0.19s-0.034-0.23-0.103-0.289
		c-0.068-0.063-0.098-0.176-0.161-0.234c-0.069-0.059-0.044-0.226-0.108-0.289c-0.068-0.059-0.289,0.044-0.357-0.02
		c-0.063-0.063,0.02-0.289-0.049-0.357c-0.068-0.059-0.333,0.093-0.401,0.029c-0.068-0.059-0.103-0.156-0.166-0.22
		c-0.069-0.063-0.054-0.216-0.118-0.279c-0.068-0.059-0.098-0.166-0.167-0.225c-0.068-0.06-0.176-0.084-0.24-0.147
		c-0.068-0.059-0.259,0.01-0.328-0.049c-0.069-0.063-0.103-0.161-0.171-0.225c-0.069-0.06-0.167-0.035-0.25-0.079
		c-0.079-0.049-0.108-0.166-0.196-0.205c-0.083-0.039-0.079-0.27-0.157-0.309c-0.088-0.044-0.225,0.024-0.303-0.024
		c-0.079-0.059-0.005-0.225-0.064-0.294c-0.059-0.078-0.191-0.088-0.24-0.166s-0.02-0.195-0.059-0.274
		C3.82,30.6,3.771,30.531,3.736,30.443s-0.318-0.098-0.347-0.191c-0.02-0.088,0.186-0.229,0.176-0.327
		c-0.02-0.094,0.059-0.187,0.049-0.274c-0.01-0.098-0.24-0.186-0.24-0.274c0.005-0.098,0.054-0.19,0.063-0.283
		c0.01-0.094-0.098-0.216-0.079-0.304c0.02-0.098,0.113-0.176,0.137-0.27c0.029-0.093,0.284-0.098,0.323-0.181
		c0.034-0.088-0.186-0.289-0.147-0.372c0.044-0.088,0.073-0.186,0.117-0.269c0.049-0.079,0.098-0.181,0.152-0.254
		c0.054-0.074,0.269-0.035,0.328-0.103c0.063-0.068,0.171-0.088,0.24-0.157c0.068-0.063,0.127-0.127,0.201-0.186
		c0.068-0.059,0.127-0.127,0.206-0.176c0.078-0.049,0.162-0.083,0.245-0.127c0.078-0.044,0.098-0.23,0.186-0.264
		c0.088-0.039,0.196-0.02,0.284-0.049c0.088-0.035,0.21,0.02,0.304-0.01c0.088-0.04,0.127-0.206,0.215-0.235
		c0.088-0.029,0.206,0,0.289-0.029c0.093-0.029,0.132-0.196,0.22-0.23s0.167-0.073,0.254-0.112c0.088-0.034,0.25,0.112,0.338,0.073
		c0.083-0.039,0.122-0.167,0.21-0.201c0.078-0.039,0.21,0.049,0.293,0.015c0.088-0.034,0.108-0.25,0.191-0.279s0.206,0.029,0.289,0
		c0.088-0.029,0.206,0.02,0.294-0.02c0.078-0.034,0.146-0.108,0.235-0.147c0.078-0.039,0.181-0.049,0.259-0.088
		c0.083-0.044,0.157-0.103,0.23-0.152c0.078-0.054,0.029-0.264,0.098-0.318c0.068-0.059,0.25,0.01,0.313-0.054
		c0.068-0.063,0.02-0.303,0.098-0.352c0.079-0.054,0.26,0.054,0.353,0.01c0.078-0.04,0.167-0.083,0.254-0.118
		c0.093-0.034,0.167-0.103,0.265-0.132c0.088-0.024,0.225,0.137,0.323,0.113c0.093-0.024,0.191-0.01,0.284-0.034
		c0.093-0.02,0.167-0.127,0.265-0.147c0.093-0.02,0.196-0.01,0.284-0.034c0.098-0.024,0.157-0.167,0.25-0.196
		c0.093-0.029,0.21,0.054,0.289,0.024c0.098-0.029,0.147-0.157,0.226-0.186c0.088-0.039,0.176-0.078,0.245-0.117
		c0.078-0.059,0.186-0.113,0.215-0.186c0.034-0.078,0.107-0.201,0.098-0.304c-0.01-0.073-0.167-0.142-0.196-0.24
		c-0.029-0.073,0.01-0.191-0.029-0.279c-0.034-0.073,0.01-0.196-0.034-0.284c-0.039-0.088-0.191-0.118-0.225-0.196
		c-0.034-0.088-0.225-0.118-0.259-0.206c-0.029-0.088,0.142-0.24,0.117-0.323c-0.024-0.093-0.201-0.146-0.22-0.235
		c-0.015-0.093-0.093-0.186-0.107-0.274c-0.01-0.093-0.044-0.196-0.049-0.284c-0.005-0.098,0.318-0.181,0.328-0.27
		c0.005-0.093-0.049-0.181-0.029-0.269c0.02-0.093-0.147-0.235-0.118-0.323c0.029-0.088,0.186-0.127,0.225-0.215
		c0.04-0.079,0.147-0.118,0.196-0.196c0.049-0.079-0.005-0.225,0.054-0.299c0.054-0.073,0.24-0.024,0.309-0.093
		c0.059-0.068,0.157-0.079,0.225-0.142c0.068-0.054-0.034-0.318,0.039-0.377c0.079-0.054,0.22-0.01,0.299-0.059
		c0.073-0.054,0.201-0.015,0.284-0.059c0.083-0.049,0.142-0.103,0.23-0.147s0.059-0.303,0.132-0.337
		c0.088-0.049,0.22,0.015,0.293-0.025c0.093-0.059,0.191-0.073,0.245-0.127c0.083-0.068,0.279-0.108,0.299-0.186
		c0.02-0.073,0.01-0.245-0.02-0.348c-0.02-0.073-0.284-0.083-0.323-0.176c-0.034-0.074,0.073-0.22,0.034-0.309
		c-0.034-0.078-0.029-0.176-0.068-0.269c-0.034-0.079-0.108-0.142-0.142-0.22c-0.039-0.088-0.024-0.186-0.059-0.264
		c-0.029-0.088-0.137-0.137-0.167-0.215c-0.029-0.088-0.073-0.167-0.098-0.245c-0.03-0.088,0.073-0.215,0.049-0.293
		c-0.029-0.088-0.21-0.127-0.235-0.206c-0.029-0.088-0.152-0.147-0.176-0.235c-0.02-0.083,0.21-0.225,0.196-0.313
		c-0.02-0.088-0.176-0.147-0.191-0.235c-0.015-0.083,0.015-0.176,0.005-0.264c-0.01-0.078-0.167-0.215-0.127-0.308
		c0.029-0.074,0.225-0.093,0.284-0.167c0.049-0.073,0.039-0.201,0.103-0.269c0.063-0.069,0.186-0.069,0.259-0.118
		c0.079-0.063,0.191,0.015,0.265-0.01c0.093-0.024,0.156-0.147,0.245-0.167c0.088-0.029,0.156-0.137,0.245-0.166
		c0.088-0.025,0.215,0.068,0.303,0.039c0.088-0.024,0.127-0.23,0.215-0.254c0.088-0.025,0.215,0.059,0.304,0.039
		c0.088-0.029,0.137-0.186,0.23-0.215c0.088-0.02,0.25,0.206,0.342,0.181c0.088-0.025,0.171-0.088,0.26-0.113
		c0.088-0.024,0.117-0.284,0.206-0.303c0.088-0.03,0.215,0.088,0.308,0.068c0.093-0.029,0.162-0.127,0.25-0.157
		c0.088-0.024,0.206,0.059,0.299,0.034c0.093-0.024,0.181-0.049,0.269-0.073c0.088-0.024,0.186-0.02,0.279-0.039
		c0.093-0.029,0.162-0.127,0.25-0.147c0.093-0.024,0.201,0.02,0.294-0.01c0.088-0.02,0.186-0.01,0.279-0.034
		c0.093-0.02,0.113-0.318,0.206-0.348c0.088-0.02,0.25,0.245,0.343,0.225c0.088-0.024,0.181-0.039,0.274-0.059
		c0.088-0.024,0.132-0.264,0.22-0.284c0.093-0.02,0.176-0.088,0.264-0.108c0.088-0.02,0.196,0.015,0.289,0
		c0.093-0.02,0.181-0.039,0.274-0.059c0.093-0.02,0.171-0.103,0.264-0.118c0.088-0.015,0.22,0.196,0.308,0.186
		c0.088-0.02,0.186,0.029,0.284,0.02c0.088-0.01,0.146-0.313,0.24-0.323c0.093-0.01,0.186-0.01,0.279-0.02
		c0.098-0.01,0.186-0.049,0.279-0.054c0.093-0.005,0.205,0.308,0.298,0.308c0.088-0.005,0.171-0.264,0.264-0.269
		c0.093-0.005,0.186-0.054,0.274-0.054c0.098,0,0.191,0.284,0.284,0.284c0.093,0,0.186-0.225,0.279-0.225
		c0.088,0,0.181,0.098,0.269,0.103c0.088,0.005,0.201-0.132,0.289-0.112c0.083,0.02,0.146,0.151,0.23,0.181
		c0.078,0.029,0.167,0.054,0.245,0.093s0.206,0,0.284,0.044c0.074,0.044,0.142,0.123,0.21,0.171c0.074,0.049-0.01,0.284,0.054,0.343
		c0.069,0.059,0.196,0.039,0.255,0.098c0.059,0.078,0.264,0.024,0.313,0.083c0.068,0.074,0.098,0.162,0.157,0.22
		c0.068,0.079-0.079,0.362-0.015,0.416c0.073,0.064,0.25,0.01,0.328,0.044c0.079,0.034,0.176,0.029,0.274,0.039
		c0.078,0,0.166-0.02,0.264-0.039c0.083-0.01,0.157-0.098,0.254-0.118c0.078-0.015,0.215,0.186,0.313,0.167
		c0.078-0.02,0.107-0.333,0.195-0.353c0.098-0.02,0.206,0.063,0.304,0.039c0.093-0.02,0.186-0.039,0.274-0.059
		c0.098-0.02,0.171-0.117,0.264-0.132c0.088-0.02,0.182-0.039,0.274-0.063c0.098-0.02,0.225,0.167,0.318,0.147
		c0.093-0.02,0.166-0.127,0.259-0.147s0.177-0.103,0.265-0.117c0.098-0.02,0.176-0.118,0.269-0.127
		c0.094-0.02,0.24,0.289,0.333,0.274c0.093-0.01,0.157-0.21,0.25-0.225c0.098-0.01,0.176-0.151,0.269-0.161
		c0.094-0.015,0.216,0.24,0.309,0.23c0.098-0.005,0.187-0.04,0.279-0.049c0.093-0.005,0.181-0.127,0.273-0.132
		c0.094-0.005,0.191,0.171,0.284,0.171s0.191-0.313,0.284-0.313c0.093,0.005,0.19,0.059,0.288,0.063
		c0.089,0.005,0.182,0.098,0.274,0.103c0.093,0.01,0.187,0.039,0.284,0.049c0.088,0.015,0.171,0.127,0.259,0.137
		c0.094,0.02,0.206-0.074,0.299-0.054c0.093,0.015,0.211-0.073,0.304-0.054c0.078,0.02,0.127,0.21,0.215,0.225
		s0.196-0.167,0.279-0.156c0.088,0.01,0.142,0.293,0.229,0.303c0.089,0.005,0.177,0.01,0.26,0.015
		c0.103,0.015,0.191-0.015,0.289,0.005c0.098,0.024,0.146,0.118,0.239,0.157c0.094,0.039,0.226-0.039,0.309,0.01
		c0.078,0.059,0.255,0,0.333,0.068c0.068,0.063-0.039,0.304,0.024,0.377s0.22,0.073,0.279,0.162
		c0.049,0.083,0.186,0.127,0.234,0.215c0.039,0.073,0.01,0.176,0.063,0.254c0.049,0.068,0.177,0.054,0.23,0.117
		c0.063,0.069,0.059,0.167,0.127,0.215c0.078,0.054,0.098,0.201,0.176,0.225c0.089,0.02,0.167,0.088,0.255,0.108
		s0.196-0.029,0.284-0.01s0.171,0.088,0.264,0.107c0.089,0.02,0.177,0.059,0.265,0.079c0.088,0.01,0.2-0.108,0.294-0.093
		c0.088,0.015,0.181-0.005,0.273,0.005c0.088,0.01,0.167,0.098,0.265,0.108c0.088,0.01,0.186-0.113,0.284-0.108
		c0.088,0,0.176-0.044,0.273-0.044c0.088,0,0.177,0.044,0.265,0.044c0.093,0,0.19,0.201,0.284,0.196
		c0.088,0,0.181-0.063,0.273-0.068c0.088-0.01,0.196,0.113,0.289,0.103c0.088-0.01,0.161-0.181,0.254-0.19
		c0.094-0.01,0.191,0.01,0.279-0.01c0.088-0.01,0.137-0.245,0.23-0.26c0.093-0.02,0.19,0.054,0.283,0.034
		c0.093-0.02,0.201,0.049,0.289,0.03s0.205,0.039,0.294,0.015c0.088-0.024,0.156-0.113,0.244-0.142s0.157,0.063,0.255,0.068
		c0.098,0.01,0.225-0.171,0.304-0.142c0.088,0.034,0.107,0.274,0.195,0.298c0.088,0.029,0.205-0.02,0.294,0.01
		c0.088,0.029,0.22-0.088,0.313-0.063c0.089,0.024,0.118,0.274,0.211,0.293c0.088,0.024,0.19,0.015,0.284,0.034
		c0.093,0.02,0.229-0.206,0.327-0.191c0.089,0.015,0.177,0.044,0.265,0.054c0.098,0.02,0.19-0.024,0.284-0.015
		c0.093,0.01,0.166,0.132,0.264,0.142c0.093,0.005,0.177,0.069,0.274,0.074c0.093,0.005,0.186,0.054,0.279,0.054
		c0.093,0,0.181-0.176,0.273-0.186c0.093,0,0.191,0.137,0.284,0.127c0.093-0.005,0.19,0.029,0.289,0.02
		c0.088-0.015,0.171-0.118,0.264-0.132c0.088-0.015,0.166-0.103,0.26-0.122c0.093-0.015,0.22,0.142,0.308,0.122
		c0.089-0.024,0.138-0.23,0.226-0.25c0.088-0.029,0.171-0.059,0.265-0.088c0.088-0.03,0.205,0.039,0.293,0.01
		c0.088-0.035,0.191-0.03,0.279-0.059c0.088-0.039,0.19-0.015,0.279-0.049c0.088-0.034,0.146-0.127,0.225-0.152
		c0.098-0.034,0.151-0.161,0.23-0.186c0.098-0.024,0.19-0.078,0.269-0.093c0.098-0.024,0.211-0.049,0.289-0.049
		c0.103,0.01,0.181,0.132,0.26,0.176c0.068,0.039,0.234,0.039,0.283,0.132c0.039,0.069,0.098,0.171,0.128,0.27
		c0.02,0.078-0.177,0.225-0.157,0.323c0.02,0.083,0.187,0.137,0.201,0.235c0.015,0.088-0.182,0.206-0.172,0.304
		c0.01,0.088,0.044,0.176,0.059,0.274c0.01,0.083,0.182,0.152,0.187,0.24c0,0.083,0,0.171,0,0.259c0,0.088,0.034,0.176,0.029,0.259
		c0,0.083,0.112,0.176,0.112,0.26c0,0.088-0.142,0.176-0.142,0.259c-0.005,0.083-0.073,0.167-0.073,0.25
		C51.321,16.623,51.208,16.623,51.193,16.623z M15.751,17.21c0.098-0.029,0.226-0.255,0.323-0.274
		c0.098-0.029,0.264,0.191,0.353,0.167c0.098-0.029,0.117-0.333,0.21-0.357c0.098-0.024,0.191-0.063,0.279-0.088
		c0.098-0.029,0.206-0.02,0.298-0.044c0.098-0.029,0.21,0.024,0.309-0.005c0.088-0.024,0.167-0.123,0.264-0.152
		c0.083-0.029,0.23,0.142,0.323,0.113c0.083-0.029,0.107-0.26,0.195-0.289c0.088-0.029,0.226,0.098,0.313,0.069
		c0.083-0.03,0.181-0.03,0.264-0.059c0.088-0.029,0.176-0.059,0.264-0.088c0.088-0.029,0.098-0.303,0.181-0.333
		c0.088-0.029,0.196-0.005,0.279-0.034c0.088-0.029,0.176-0.068,0.264-0.093c0.088-0.029,0.167-0.083,0.254-0.108
		c0.093-0.029,0.254,0.206,0.338,0.186c0.093-0.02,0.176-0.029,0.269-0.054c0.088-0.024,0.127-0.279,0.215-0.298
		c0.088-0.015,0.176-0.049,0.269-0.069c0.093-0.01,0.176-0.049,0.269-0.068c0.088-0.01,0.186,0.015,0.274,0
		c0.088-0.01,0.176-0.059,0.264-0.068c0.088-0.01,0.186,0.024,0.274,0.015c0.088-0.01,0.201,0.23,0.294,0.22
		c0.088-0.005,0.161-0.235,0.25-0.24c0.093-0.005,0.176-0.064,0.269-0.074c0.088-0.005,0.186,0.113,0.274,0.108
		c0.093-0.01,0.176-0.069,0.27-0.074c0.093-0.005,0.186,0.118,0.279,0.113c0.088-0.01,0.167-0.142,0.254-0.147
		c0.093-0.01,0.176-0.029,0.269-0.039c0.093-0.005,0.196,0.142,0.279,0.137c0.093-0.01,0.176-0.093,0.264-0.103
		c0.088-0.015,0.167-0.122,0.254-0.132c0.108-0.02,0.23,0.195,0.323,0.181c0.098-0.015,0.181-0.142,0.274-0.151
		c0.107-0.01,0.196-0.142,0.284-0.147c0.108,0,0.186,0.245,0.274,0.254c0.108,0.02,0.279-0.181,0.357-0.132
		c0.073,0.054,0.132,0.176,0.191,0.269c0.049,0.068-0.127,0.264-0.083,0.362c0.034,0.078,0.142,0.127,0.186,0.23
		c0.035,0.083,0.04,0.181,0.074,0.279c0.029,0.088,0.005,0.196,0.039,0.293c0.029,0.083,0.348,0.079,0.377,0.167
		c0.029,0.083-0.21,0.264-0.181,0.353c0.029,0.083,0.342,0.078,0.372,0.166c0.029,0.088-0.083,0.226-0.054,0.313
		c0.03,0.083,0.132,0.147,0.162,0.24c0.024,0.088,0.127,0.152,0.157,0.24c0.029,0.088,0.01,0.191,0.039,0.279
		c0.029,0.088,0.039,0.181,0.068,0.27c0.029,0.088,0.103,0.161,0.133,0.25c0.029,0.083-0.084,0.22-0.055,0.308
		c0.029,0.088-0.059,0.215-0.029,0.309c0.029,0.083,0.274,0.103,0.304,0.191c0.029,0.088,0.107,0.156,0.137,0.245
		c0.029,0.093,0.015,0.196,0.049,0.284c0.03,0.083,0.01,0.191,0.04,0.274c0.034,0.088-0.01,0.206,0.02,0.294
		c0.029,0.088,0.195,0.127,0.229,0.21c0.034,0.088-0.132,0.25-0.093,0.337c0.039,0.088,0.265,0.098,0.299,0.181
		c0.034,0.088,0.015,0.196,0.044,0.279c0.039,0.088,0.088,0.166,0.127,0.254c0.034,0.088,0.107,0.156,0.142,0.245
		c0.034,0.083,0.113,0.147,0.152,0.235s-0.123,0.254-0.088,0.333c0.039,0.088,0.244,0.103,0.278,0.19
		c0.034,0.083-0.039,0.215-0.005,0.299c0.039,0.088-0.049,0.225-0.02,0.313c0.039,0.088,0.107,0.157,0.137,0.245
		c0.039,0.088,0.089,0.162,0.128,0.25c0.034,0.083,0.254,0.093,0.293,0.181c0.029,0.088,0.05,0.176,0.089,0.265
		c0.034,0.083,0.029,0.186,0.068,0.274c0.034,0.083,0.137,0.142,0.171,0.225s-0.093,0.24-0.054,0.323
		c0.039,0.088,0.186,0.122,0.226,0.21c0.034,0.083-0.03,0.21,0.01,0.293c0.039,0.088,0.098,0.162,0.137,0.25
		c0.039,0.083,0.166,0.127,0.205,0.215c0.034,0.083,0.084,0.167,0.118,0.25c0.039,0.083,0.107,0.162,0.142,0.24
		c0.034,0.088-0.112,0.25-0.073,0.338c0.039,0.083,0.01,0.201,0.049,0.284c0.034,0.083,0.137,0.142,0.176,0.23
		c0.034,0.083,0.23,0.098,0.265,0.186c0.039,0.088,0.151,0.137,0.195,0.215c0.03,0.088-0.171,0.284-0.137,0.367
		c0.039,0.083,0.02,0.195,0.054,0.279c0.034,0.088,0.328,0.059,0.367,0.142s-0.049,0.226-0.005,0.309
		c0.039,0.078,0.177,0.122,0.216,0.205c0.039,0.088-0.069,0.235-0.029,0.323c0.039,0.083,0.103,0.156,0.142,0.244
		c0.039,0.079,0.264,0.084,0.304,0.167c0.039,0.088-0.177,0.323-0.118,0.406c0.049,0.083,0.182,0.122,0.25,0.195
		c0.063,0.073,0.284-0.02,0.357,0.049c0.078,0.064,0.161,0.094,0.244,0.152c0.083,0.054,0.015,0.343,0.099,0.387
		c0.088,0.049,0.2,0.078,0.293,0.112c0.088,0.039,0.216,0.01,0.309,0.034c0.088,0.024,0.2-0.083,0.294-0.063
		c0.093,0.02,0.161,0.137,0.249,0.156c0.088,0.015,0.152,0.187,0.245,0.206c0.088,0.015,0.181,0.029,0.269,0.044
		c0.094,0.02,0.187,0.015,0.274,0.029c0.093,0.015,0.2-0.098,0.294-0.083c0.093,0.015,0.156,0.186,0.249,0.195
		c0.089,0.02,0.226-0.239,0.313-0.225s0.176,0.029,0.274,0.039c0.088,0.01,0.166,0.127,0.254,0.142s0.162,0.171,0.255,0.186
		c0.088,0.016,0.2-0.107,0.289-0.093c0.093,0.01,0.2-0.088,0.288-0.078s0.167,0.137,0.255,0.156c0.093,0.01,0.161,0.177,0.254,0.196
		c0.089,0.01,0.196-0.068,0.284-0.054s0.191-0.054,0.284-0.034c0.088,0.01,0.186-0.02,0.278,0c0.094,0.01,0.201-0.088,0.289-0.068
		c0.098,0.01,0.196,0.127,0.294,0.161s0.225,0,0.323,0.039c0.093,0.039,0.117,0.26,0.21,0.299c0.083,0.029,0.181,0.029,0.265,0.059
		c0.083,0.039,0.151,0.093,0.239,0.127c0.078,0.039,0.147,0.127,0.226,0.157c0.088,0.029,0.19,0.02,0.273,0.044
		c0.089,0.024,0.182,0.083,0.265,0.093c0.093,0.015,0.195-0.039,0.284-0.029c0.088,0.005,0.19-0.059,0.283-0.054
		c0.089,0.01,0.177,0.068,0.265,0.078c0.088,0.015,0.186-0.054,0.284-0.049c0.088,0.005,0.176,0.034,0.264,0.039
		c0.093,0.005,0.191-0.044,0.279-0.039c0.093,0.005,0.166,0.215,0.259,0.22c0.089,0.01,0.196-0.225,0.289-0.22
		s0.162,0.278,0.25,0.288c0.093,0.01,0.186,0.049,0.273,0.06c0.089,0.005,0.187-0.025,0.274-0.021
		c0.093,0.01,0.176,0.089,0.27,0.094c0.093,0.005,0.205-0.26,0.298-0.255c0.089,0.005,0.177,0.093,0.265,0.103
		s0.186-0.039,0.274-0.029c0.093,0.01,0.186,0.005,0.273,0.01c0.098,0.01,0.167,0.187,0.26,0.211s0.259-0.143,0.348-0.103
		c0.088,0.039,0.186,0.093,0.269,0.137c0.078,0.039,0.024,0.353,0.108,0.396c0.083,0.039,0.2,0.005,0.283,0.039
		c0.088,0.034,0.25-0.177,0.338-0.151c0.088,0.029,0.088,0.366,0.171,0.391c0.094,0.02,0.211-0.093,0.299-0.078
		s0.187-0.068,0.274-0.059c0.088,0.005,0.176,0.255,0.264,0.255c0.089,0,0.191-0.034,0.279-0.044
		c0.093-0.005,0.151-0.274,0.24-0.289c0.088-0.015,0.176,0.02,0.269,0c0.083-0.02,0.24,0.166,0.328,0.142
		c0.078-0.029,0.088-0.288,0.166-0.322c0.089-0.035,0.191-0.011,0.274-0.05c0.078-0.039,0.093-0.2,0.171-0.244
		c0.074-0.044,0.25,0.093,0.328,0.054s0.112-0.166,0.187-0.206c0.083-0.039,0.21,0.03,0.283-0.005
		c0.083-0.034,0.147-0.112,0.221-0.146s0.181-0.024,0.259-0.063c0.079-0.039,0.108-0.171,0.187-0.211
		c0.088-0.044,0.273,0.035,0.348-0.015c0.083-0.063,0.015-0.283,0.078-0.361c0.063-0.074,0.225-0.099,0.259-0.187
		c0.03-0.088,0.084-0.205,0.089-0.309c0-0.093-0.274-0.161-0.289-0.269c-0.02-0.093,0.083-0.206,0.073-0.299
		c-0.02-0.093,0.127-0.21,0.112-0.299c-0.015-0.098-0.088-0.176-0.103-0.273c-0.01-0.093-0.107-0.172-0.122-0.265
		c-0.015-0.098-0.132-0.176-0.142-0.264c-0.015-0.099,0.156-0.211,0.142-0.304s-0.172-0.162-0.187-0.255
		c-0.01-0.098,0.074-0.205,0.06-0.293c-0.015-0.094-0.196-0.157-0.211-0.245c-0.02-0.098,0.059-0.206,0.039-0.299
		s0.073-0.205,0.049-0.298c-0.015-0.099-0.19-0.152-0.21-0.245c-0.015-0.098,0.103-0.216,0.088-0.309
		c-0.02-0.093-0.21-0.146-0.235-0.24c-0.024-0.098,0.201-0.235,0.182-0.323c-0.02-0.098-0.127-0.176-0.146-0.274
		c-0.016-0.098-0.089-0.186-0.108-0.284c-0.02-0.098-0.059-0.191-0.073-0.289c-0.02-0.093-0.132-0.176-0.151-0.274
		c-0.015-0.093,0.293-0.25,0.273-0.348c-0.01-0.098-0.127-0.176-0.142-0.274c-0.015-0.098,0.093-0.206,0.083-0.304
		c-0.02-0.098-0.059-0.186-0.068-0.284s-0.161-0.171-0.171-0.264c-0.015-0.093-0.094-0.176-0.104-0.27
		c-0.015-0.093-0.049-0.186-0.059-0.279c-0.01-0.093,0.068-0.196,0.063-0.289c-0.015-0.093,0.055-0.191,0.045-0.289
		c-0.01-0.093,0.078-0.195,0.068-0.284c-0.01-0.098-0.201-0.167-0.211-0.264c-0.01-0.093,0.029-0.186,0.015-0.284
		c-0.01-0.093-0.176-0.167-0.186-0.265c-0.01-0.088,0.269-0.215,0.254-0.308c-0.01-0.093-0.342-0.152-0.352-0.245
		c-0.01-0.093,0.264-0.215,0.259-0.309c-0.015-0.098-0.171-0.171-0.181-0.264c-0.01-0.093-0.049-0.186-0.059-0.279
		c-0.015-0.093,0.117-0.201,0.107-0.294c-0.01-0.093-0.187-0.171-0.196-0.264c-0.01-0.093,0.187-0.21,0.177-0.298
		c-0.01-0.088-0.02-0.186-0.029-0.284c-0.01-0.088-0.26-0.156-0.27-0.25c-0.015-0.093,0.221-0.206,0.211-0.298
		c-0.01-0.088-0.147-0.157-0.162-0.245c-0.01-0.088-0.024-0.176-0.034-0.265c-0.01-0.093,0.088-0.195,0.073-0.284
		c-0.01-0.088-0.107-0.167-0.117-0.254c-0.015-0.093-0.015-0.181-0.024-0.269c-0.01-0.093-0.049-0.171-0.059-0.259
		c-0.01-0.093-0.044-0.181-0.049-0.27c-0.01-0.093-0.118-0.171-0.128-0.264c0-0.098-0.034-0.201-0.039-0.298
		c0-0.093,0.069-0.196,0.069-0.294c0.005-0.098-0.06-0.196-0.05-0.293c0-0.098,0.099-0.191,0.104-0.289
		c0.005-0.098,0.107-0.186,0.112-0.284c0.01-0.098,0.132-0.191,0.137-0.289c0-0.093,0.034-0.191,0.039-0.289
		c0-0.098-0.044-0.2-0.044-0.298c0-0.088-0.161-0.167-0.171-0.25c-0.01-0.093,0.156-0.254,0.127-0.323
		c-0.044-0.083-0.181-0.181-0.254-0.23c-0.064-0.039-0.201-0.117-0.294-0.127c-0.078-0.01-0.177,0.117-0.274,0.127
		c-0.078,0.01-0.156,0.054-0.254,0.079c-0.089,0.024-0.206-0.024-0.304,0c-0.088,0.024-0.132,0.235-0.226,0.259
		c-0.098,0.024-0.176,0.112-0.269,0.137c-0.093,0.024-0.245-0.191-0.338-0.162c-0.093,0.02-0.195,0.01-0.289,0.034
		c-0.093,0.024-0.142,0.25-0.239,0.269c-0.093,0.024-0.206-0.024-0.299,0c-0.093,0.02-0.21-0.063-0.309-0.039
		c-0.088,0.015-0.161,0.147-0.259,0.167c-0.099,0.015-0.172,0.127-0.27,0.146c-0.088,0.015-0.234-0.205-0.333-0.186
		c-0.098,0.02-0.176,0.245-0.283,0.245c-0.108,0.005-0.196-0.269-0.294-0.284c-0.107-0.01-0.245,0.196-0.343,0.167
		c-0.088-0.029-0.117-0.235-0.205-0.254c-0.089-0.029-0.245,0.206-0.333,0.176c-0.083-0.024-0.177-0.02-0.265-0.034
		c-0.088-0.024-0.166-0.044-0.254-0.064c-0.089-0.02-0.147-0.176-0.235-0.196c-0.088-0.01-0.171-0.088-0.259-0.098
		c-0.094-0.01-0.167-0.157-0.26-0.167c-0.088-0.01-0.196,0.215-0.284,0.21c-0.093-0.005-0.176-0.235-0.264-0.235
		c-0.089,0-0.177,0.299-0.265,0.299c-0.093,0.005-0.181-0.04-0.27-0.03c-0.093,0.005-0.19-0.107-0.278-0.098
		c-0.099,0.01-0.196-0.034-0.289-0.024c-0.093,0.015-0.181,0.073-0.274,0.083c-0.093,0.01-0.176,0.196-0.269,0.206
		c-0.093,0.005-0.196-0.034-0.289-0.029c-0.093,0-0.186,0.083-0.279,0.088c-0.098,0-0.195-0.088-0.288-0.088
		s-0.191-0.206-0.289-0.206c-0.088,0-0.186,0.127-0.284,0.127c-0.088,0-0.181-0.181-0.273-0.186c-0.098,0-0.196,0.103-0.284,0.098
		c-0.098,0-0.186-0.088-0.279-0.093c-0.093-0.005-0.19,0.005-0.278,0.005c-0.098-0.01-0.206,0.264-0.304,0.254
		c-0.093-0.005-0.166-0.245-0.265-0.254c-0.088-0.01-0.176-0.098-0.273-0.108c-0.088-0.005-0.211,0.215-0.304,0.206
		s-0.186-0.068-0.279-0.083c-0.093-0.02-0.22,0.083-0.308,0.054c-0.093-0.02-0.177-0.117-0.26-0.157
		c-0.088-0.034-0.059-0.293-0.142-0.337c-0.078-0.044-0.313,0.127-0.392,0.063c-0.068-0.063-0.161-0.132-0.226-0.206
		c-0.059-0.073-0.137-0.167-0.186-0.25c-0.039-0.083,0.098-0.254,0.068-0.348c-0.029-0.088,0.01-0.186-0.015-0.284
		c-0.015-0.059-0.107-0.186-0.181-0.25c-0.06-0.049-0.157-0.093-0.23-0.132s-0.151-0.088-0.229-0.117
		c-0.084-0.029-0.211,0.098-0.284,0.083c-0.088-0.015-0.167-0.083-0.255-0.103c-0.093-0.01-0.166-0.118-0.254-0.137
		c-0.088-0.015-0.206,0.118-0.294,0.098c-0.093-0.015-0.171-0.098-0.255-0.112c-0.093-0.015-0.205,0.107-0.293,0.093
		c-0.093-0.015-0.182-0.02-0.274-0.029c-0.088-0.02-0.146-0.23-0.239-0.24c-0.094-0.015-0.191,0.078-0.279,0.068
		c-0.093-0.005-0.177-0.137-0.265-0.142c-0.088,0-0.186,0.186-0.278,0.186c-0.089,0-0.182-0.103-0.27-0.098
		c-0.088,0-0.19-0.078-0.284-0.073c-0.088,0.005-0.176,0.063-0.264,0.073c-0.094,0.02-0.196-0.005-0.284,0.015
		s-0.181,0.049-0.265,0.079c-0.088,0.024-0.107,0.245-0.195,0.279c-0.078,0.029-0.23-0.093-0.313-0.059
		c-0.088,0.039-0.063,0.274-0.142,0.313c-0.073,0.044-0.27-0.083-0.338-0.112c-0.093-0.035-0.181-0.054-0.274-0.074
		c-0.098-0.024-0.186,0.01-0.283,0.005s-0.196-0.191-0.294-0.181c-0.088,0.005-0.21-0.005-0.304,0.01
		c-0.088,0.025-0.166,0.137-0.259,0.167s-0.196,0.029-0.289,0.069c-0.083,0.029-0.127,0.181-0.215,0.215
		c-0.089,0.039-0.216-0.03-0.309,0.01c-0.083,0.029-0.142,0.156-0.23,0.186c-0.088,0.035-0.186,0.049-0.274,0.074
		c-0.078,0.024-0.166-0.015-0.264-0.01c-0.088,0-0.157-0.064-0.245-0.083c-0.093-0.01-0.206,0.098-0.284,0.069
		c-0.093-0.029-0.132-0.137-0.196-0.186c-0.069-0.059-0.069-0.176-0.132-0.235c-0.063-0.064-0.21-0.039-0.269-0.108
		c-0.054-0.068-0.235-0.029-0.293-0.098c-0.054-0.069,0.059-0.274,0.005-0.343c-0.054-0.068-0.235-0.039-0.289-0.107
		c-0.059-0.069-0.157-0.083-0.215-0.147s-0.137-0.108-0.215-0.171c-0.068-0.063,0.049-0.377-0.029-0.426
		c-0.088-0.054-0.259-0.039-0.343-0.039c-0.088,0.01-0.171,0.206-0.264,0.215c-0.088,0.01-0.191-0.118-0.284-0.118
		c-0.088,0.01-0.186-0.059-0.279-0.049c-0.088,0.005-0.171,0.137-0.27,0.147c-0.088,0.005-0.191-0.157-0.284-0.147
		c-0.088,0.005-0.186-0.039-0.284-0.034c-0.088,0.005-0.157,0.279-0.25,0.289c-0.093,0.015-0.195-0.098-0.289-0.088
		c-0.088,0.01-0.191-0.078-0.284-0.068c-0.088,0.01-0.176,0.039-0.274,0.049c-0.088,0.01-0.152,0.264-0.245,0.274
		c-0.088,0.01-0.196-0.098-0.284-0.088c-0.093,0.015-0.191-0.01-0.279,0c-0.093,0.015-0.201-0.113-0.294-0.098
		c-0.093,0.01-0.206,0.029-0.298,0.049c-0.093,0.024-0.137,0.284-0.23,0.313c-0.093,0.024-0.23-0.103-0.328-0.073
		c-0.088,0.029-0.196,0.01-0.293,0.034c-0.093,0.029-0.176,0.098-0.269,0.117c-0.093,0.03-0.201,0.01-0.289,0.03
		c-0.098,0.02-0.171,0.122-0.269,0.137c-0.098,0.02-0.191,0.039-0.289,0.049c-0.093,0.01-0.186-0.122-0.284-0.127
		c-0.098,0-0.19,0.167-0.284,0.167c-0.093,0.005-0.176,0.117-0.264,0.132c-0.098,0.01-0.22-0.235-0.313-0.22
		c-0.088,0.015-0.156,0.167-0.25,0.186c-0.093,0.02-0.196,0-0.279,0.02c-0.093,0.029-0.127,0.235-0.215,0.264
		c-0.088,0.03-0.225-0.098-0.313-0.068c-0.088,0.034-0.137,0.147-0.225,0.181c-0.088,0.034-0.206-0.005-0.293,0.034
		c-0.078,0.034-0.22-0.039-0.303,0c-0.083,0.039-0.127,0.167-0.206,0.206c-0.088,0.039-0.127,0.162-0.215,0.206
		c-0.079,0.039-0.22-0.029-0.299,0.01c-0.059,0.029,0.005,0.23-0.034,0.313c-0.039,0.079-0.176,0.113-0.196,0.196
		c-0.02,0.093,0.103,0.157,0.127,0.215c0.034,0.093-0.186,0.27-0.147,0.362c0.029,0.083,0.098,0.167,0.127,0.25
		c0.034,0.088,0.293,0.088,0.328,0.176c0.034,0.088-0.068,0.23-0.034,0.318c0.039,0.088,0.147,0.146,0.181,0.23
		c0.034,0.088-0.034,0.22,0.005,0.303c0.034,0.083,0.068,0.171,0.107,0.259c0.035,0.088,0.049,0.186,0.083,0.27
		c0.034,0.088,0.142,0.142,0.181,0.23c0.034,0.088,0.01,0.201,0.044,0.284C15.658,16.945,15.722,17.122,15.751,17.21z M4.29,27.8
		c0.063,0.069,0.313,0.098,0.377,0.167c0.063,0.068-0.059,0.313,0.005,0.382c0.068,0.068,0.342-0.063,0.401,0
		c0.069,0.068,0.137,0.132,0.196,0.2c0.069,0.069,0.103,0.162,0.167,0.23s0.069,0.19,0.132,0.26
		c0.063,0.068,0.181,0.083,0.245,0.151s-0.024,0.274,0.039,0.343s0.289-0.01,0.348,0.054c0.063,0.068,0.015,0.244,0.078,0.309
		c0.059,0.068,0.098,0.156,0.167,0.225c0.063,0.068,0.127,0.132,0.191,0.201c0.063,0.068,0.318-0.045,0.377,0.02
		c0.068,0.063,0.088,0.171,0.151,0.239c0.064,0.059,0.137,0.117,0.201,0.187c0.069,0.063,0.157,0.107,0.215,0.171
		c0.069,0.063-0.054,0.318,0.01,0.387c0.069,0.063,0.123,0.137,0.186,0.2c0.068,0.063,0.304-0.044,0.362,0.02
		c0.068,0.064,0.147,0.113,0.215,0.182c0.059,0.063,0.147,0.107,0.215,0.171s0.107,0.152,0.176,0.216
		c0.068,0.063,0.161,0.098,0.23,0.161c0.068,0.059,0.103,0.156,0.171,0.216c0.068,0.063-0.03,0.308,0.039,0.371
		c0.068,0.064,0.284-0.039,0.352,0.021c0.069,0.063,0.171,0.088,0.24,0.151c0.068,0.063,0.054,0.215,0.122,0.279
		c0.068,0.059,0.176,0.078,0.245,0.142c0.069,0.063,0.049,0.22,0.118,0.279c0.068,0.063,0.225,0.029,0.293,0.088
		s0.147,0.112,0.215,0.176c0.069,0.059,0.029,0.235,0.103,0.304c0.068,0.059,0.186,0.068,0.254,0.127s0.206,0.049,0.274,0.107
		c0.068,0.06-0.01,0.289,0.059,0.353c0.069,0.059,0.22,0.029,0.289,0.088c0.068,0.064,0.22,0.035,0.289,0.099
		s-0.029,0.308,0.039,0.372c0.069,0.059,0.309-0.064,0.377,0c0.068,0.059,0.103,0.156,0.171,0.22s-0.029,0.309,0.034,0.367
		c0.068,0.063,0.191,0.063,0.259,0.127c0.069,0.059,0.113,0.147,0.181,0.206s0.098,0.166,0.167,0.225
		c0.068,0.063,0.337-0.088,0.406-0.029c0.068,0.059-0.064,0.333,0.005,0.396c0.068,0.063,0.337-0.093,0.406-0.029
		c0.068,0.063,0.034,0.235,0.103,0.299c0.069,0.059,0.186,0.068,0.25,0.127c0.069,0.063,0.186,0.078,0.25,0.137
		c0.068,0.059,0.107,0.157,0.176,0.216c0.059,0.063,0.118,0.137,0.186,0.205c0.064,0.059,0.167,0.094,0.23,0.157
		c0.064,0.059,0.034,0.234,0.093,0.293c0.068,0.059,0.049,0.221,0.117,0.284c0.069,0.059,0.284-0.039,0.353,0.02
		c0.068,0.063,0.167,0.098,0.23,0.156c0.068,0.064,0.093,0.167,0.162,0.226c0.068,0.063,0.098,0.166,0.167,0.234
		c0.068,0.06,0.073,0.187,0.137,0.255c0.068,0.059,0.23,0.02,0.299,0.083c0.068,0.063-0.015,0.279,0.054,0.343
		c0.063,0.063,0.274-0.029,0.342,0.034c0.069,0.063,0.093,0.172,0.157,0.235c0.068,0.059,0.147,0.107,0.215,0.171
		c0.069,0.063,0.162,0.093,0.23,0.151c0.069,0.064,0.162,0.089,0.23,0.157c0.069,0.054,0.064,0.284,0.176,0.318
		c0.093,0.034,0.235-0.128,0.333-0.123c0.122,0.01,0.245,0.104,0.323,0.063c0.079-0.044,0.225,0.025,0.304-0.029
		c0.083-0.044,0.146-0.122,0.225-0.171c0.078-0.044,0.146-0.112,0.225-0.156c0.083-0.049,0.059-0.274,0.137-0.323
		c0.079-0.049,0.167-0.078,0.25-0.127c0.078-0.05,0.181-0.06,0.259-0.108c0.078-0.054,0.117-0.161,0.196-0.215
		c0.078-0.049,0.254,0.054,0.333,0c0.079-0.049,0.088-0.206,0.167-0.25c0.083-0.044,0.215-0.01,0.293-0.063
		c0.079-0.049,0.142-0.122,0.22-0.176c0.083-0.049,0.103-0.187,0.181-0.235c0.079-0.049,0.152-0.107,0.23-0.156
		c0.083-0.054,0.137-0.133,0.22-0.187c0.079-0.049,0.265,0.068,0.343,0.02c0.073-0.049,0.191-0.039,0.269-0.093
		c0.083-0.049,0.123-0.161,0.201-0.21c0.079-0.049,0.068-0.245,0.147-0.289c0.083-0.044,0.127-0.171,0.206-0.221
		c0.088-0.044,0.298,0.147,0.382,0.099c0.083-0.039,0.196-0.029,0.274-0.073c0.088-0.045,0.049-0.328,0.127-0.372
		c0.088-0.044,0.23,0.034,0.313-0.005c0.088-0.039,0.127-0.177,0.21-0.216c0.088-0.039,0.235,0.068,0.323,0.029
		c0.083-0.034,0.162-0.098,0.25-0.137c0.083-0.034,0.103-0.255,0.186-0.284c0.088-0.039,0.284,0.221,0.372,0.191
		c0.093-0.034,0.157-0.133,0.245-0.162c0.088-0.024,0.118-0.259,0.206-0.288c0.088-0.029,0.171-0.084,0.265-0.113
		c0.088-0.024,0.254,0.216,0.342,0.191c0.088-0.024,0.176-0.068,0.264-0.088c0.093-0.024,0.167-0.104,0.265-0.128
		c0.088-0.024,0.156-0.166,0.245-0.186c0.098-0.02,0.206,0.063,0.298,0.044c0.093-0.02,0.21,0.117,0.303,0.098
		c0.094-0.01,0.182-0.029,0.279-0.049c0.088-0.01,0.176-0.044,0.265-0.059c0.088-0.015,0.156-0.156,0.244-0.176
		c0.083-0.021,0.206,0.117,0.294,0.098c0.088-0.015,0.112-0.304,0.205-0.323c0.089-0.02,0.172-0.039,0.255-0.063
		c0.088-0.02,0.2,0.059,0.289,0.034c0.083-0.029,0.215,0.098,0.298,0.068c0.083-0.02,0.133-0.176,0.221-0.205
		c0.093-0.029,0.112-0.157,0.181-0.196c0.078-0.054,0.206-0.01,0.255-0.078c0.054-0.068,0.244-0.146,0.244-0.24
		c0-0.078-0.122-0.195-0.166-0.283c-0.034-0.068-0.156-0.104-0.226-0.172c-0.059-0.068-0.156-0.107-0.22-0.176
		c-0.063-0.063-0.211-0.049-0.274-0.117c-0.063-0.069-0.073-0.196-0.137-0.26s-0.19-0.073-0.25-0.142
		c-0.068-0.063,0.005-0.27-0.059-0.333c-0.068-0.068-0.161-0.103-0.229-0.166c-0.068-0.069-0.118-0.147-0.187-0.211
		s-0.093-0.171-0.161-0.23c-0.068-0.068-0.166-0.098-0.235-0.161c-0.068-0.063-0.107-0.161-0.176-0.22
		c-0.068-0.064-0.181-0.079-0.25-0.147c-0.068-0.059-0.19-0.068-0.259-0.127s-0.107-0.161-0.177-0.226
		c-0.068-0.059-0.186-0.068-0.254-0.127c-0.069-0.059-0.127-0.137-0.196-0.195c-0.069-0.063-0.181-0.084-0.25-0.147
		c-0.068-0.059-0.005-0.269-0.073-0.332c-0.068-0.06-0.303,0.059-0.372,0c-0.068-0.064,0.04-0.323-0.029-0.392
		c-0.068-0.059-0.112-0.147-0.181-0.211c-0.068-0.059-0.161-0.093-0.23-0.161c-0.068-0.059-0.093-0.177-0.161-0.235
		c-0.069-0.063-0.328,0.078-0.396,0.02c-0.069-0.059-0.083-0.186-0.152-0.249s-0.176-0.084-0.245-0.143
		c-0.068-0.063-0.152-0.112-0.22-0.176s-0.029-0.245-0.098-0.304c-0.068-0.063-0.284,0.029-0.352-0.029
		c-0.069-0.059-0.137-0.127-0.206-0.19c-0.069-0.063,0.068-0.357,0-0.416c-0.074-0.059-0.186-0.068-0.254-0.128
		c-0.069-0.063-0.309,0.064-0.382,0c-0.069-0.059,0.078-0.366,0.01-0.431c-0.068-0.068-0.225-0.024-0.294-0.088
		c-0.068-0.059-0.2-0.054-0.269-0.112c-0.068-0.063,0.024-0.309-0.044-0.367c-0.068-0.063-0.157-0.103-0.225-0.167
		c-0.068-0.059-0.313,0.069-0.382,0.01c-0.068-0.059-0.103-0.161-0.171-0.225c-0.068-0.068,0.01-0.293-0.063-0.352
		c-0.068-0.064-0.293,0.054-0.362-0.01c-0.068-0.059-0.098-0.167-0.166-0.225c-0.069-0.064-0.235-0.024-0.304-0.088
		c-0.068-0.059-0.005-0.274-0.073-0.333c-0.069-0.059-0.206-0.049-0.274-0.108c-0.069-0.063-0.064-0.215-0.132-0.274
		c-0.068-0.063-0.167-0.098-0.235-0.157c-0.069-0.068-0.108-0.171-0.181-0.235c-0.073-0.059-0.215-0.039-0.289-0.098
		c-0.079-0.059-0.049-0.25-0.127-0.313c-0.073-0.059-0.274,0.049-0.353-0.01c-0.078-0.059-0.068-0.22-0.146-0.279
		c-0.079-0.059-0.137-0.142-0.21-0.201c-0.074-0.059-0.318,0.103-0.392,0.049c-0.073-0.059-0.079-0.215-0.162-0.274
		c-0.073-0.059-0.054-0.245-0.127-0.299c-0.078-0.059-0.195-0.063-0.269-0.127c-0.073-0.054-0.206-0.044-0.279-0.108
		c-0.078-0.054-0.225-0.034-0.293-0.098c-0.074-0.063-0.035-0.259-0.108-0.323c-0.068-0.063-0.235-0.005-0.303-0.059
		c-0.079-0.054-0.088-0.191-0.157-0.24c-0.078-0.054-0.24,0.039-0.313-0.01c-0.083-0.044-0.107-0.171-0.19-0.21
		c-0.083-0.039-0.123-0.176-0.21-0.21c-0.088-0.029-0.21,0.098-0.304,0.078c-0.088-0.024-0.147-0.181-0.24-0.186
		c-0.093-0.01-0.171,0.167-0.269,0.176c-0.088,0-0.206-0.225-0.294-0.201c-0.088,0.015-0.156,0.132-0.245,0.162
		c-0.088,0.024-0.146,0.113-0.23,0.152c-0.078,0.034-0.147,0.093-0.23,0.142c-0.078,0.04-0.093,0.171-0.176,0.226
		c-0.073,0.054-0.323-0.176-0.411-0.132c-0.078,0.044-0.112,0.171-0.196,0.206c-0.088,0.034-0.215-0.049-0.303-0.015
		c-0.088,0.029-0.162,0.088-0.254,0.107c-0.088,0.029-0.137,0.191-0.225,0.22c-0.088,0.024-0.157,0.123-0.245,0.152
		c-0.093,0.024-0.171,0.078-0.265,0.103c-0.088,0.03-0.206-0.024-0.289,0.005c-0.083,0.039-0.196-0.005-0.279,0.029
		c-0.088,0.029-0.206-0.029-0.294,0.01c-0.078,0.029-0.103,0.23-0.186,0.259c-0.078,0.034-0.186,0.024-0.269,0.054
		c-0.083,0.029-0.112,0.215-0.196,0.25c-0.083,0.035-0.269-0.201-0.357-0.171c-0.079,0.034-0.044,0.376-0.132,0.411
		c-0.083,0.03-0.274-0.205-0.357-0.171c-0.083,0.034-0.107,0.21-0.196,0.24c-0.078,0.034-0.151,0.098-0.235,0.137
		c-0.083,0.035-0.22-0.063-0.303-0.029c-0.083,0.039-0.098,0.225-0.186,0.265C9.8,25.54,9.634,25.388,9.545,25.427
		c-0.078,0.034-0.166,0.073-0.25,0.113c-0.083,0.044-0.063,0.298-0.151,0.337c-0.083,0.044-0.27-0.142-0.353-0.103
		s-0.113,0.196-0.196,0.235c-0.078,0.039-0.167,0.078-0.245,0.117c-0.088,0.044-0.215-0.01-0.299,0.03
		c-0.083,0.039-0.122,0.156-0.21,0.195c-0.078,0.04-0.166,0.074-0.25,0.113c-0.083,0.044-0.151,0.113-0.235,0.157
		c-0.083,0.039-0.152,0.107-0.235,0.146c-0.083,0.04-0.117,0.176-0.201,0.215c-0.083,0.044-0.157,0.113-0.24,0.152
		s-0.191,0.015-0.279,0.054c-0.079,0.035-0.142,0.132-0.22,0.167c-0.083,0.034-0.201-0.015-0.279,0.02
		c-0.088,0.034-0.206-0.029-0.284,0.005c-0.083,0.029-0.206-0.054-0.289-0.02c-0.083,0.029-0.171,0.029-0.254,0.063
		c-0.083,0.03-0.152,0.103-0.23,0.132c-0.088,0.029-0.112,0.206-0.195,0.235C4.593,27.795,4.368,27.766,4.29,27.8z M30.512,33.541
		c0.088-0.024,0.073-0.22,0.156-0.24c0.088-0.02,0.235,0.211,0.323,0.187c0.088-0.02,0.107-0.323,0.186-0.343
		c0.094-0.02,0.177-0.049,0.265-0.068s0.186,0,0.274-0.015c0.088-0.015,0.186,0.049,0.273,0.039
		c0.108-0.015,0.182-0.098,0.265-0.112c0.107-0.024,0.254,0.146,0.333,0.117c0.103-0.034,0.078-0.265,0.137-0.318
		c0.068-0.063,0.245-0.063,0.265-0.161c0.01-0.078,0.044-0.201,0.029-0.309c-0.01-0.083-0.029-0.186-0.059-0.283
		c-0.025-0.084-0.304-0.099-0.333-0.196c-0.029-0.083-0.01-0.171-0.049-0.25c-0.039-0.078-0.094-0.142-0.147-0.215
		c-0.049-0.078-0.117-0.127-0.176-0.2c-0.049-0.074,0.103-0.309,0.049-0.377c-0.059-0.074-0.103-0.147-0.156-0.226
		c-0.059-0.068-0.309-0.005-0.353-0.078c-0.049-0.078-0.117-0.156-0.157-0.24c-0.039-0.078-0.107-0.176-0.127-0.259
		c-0.029-0.088-0.02-0.206-0.024-0.304c-0.005-0.088-0.044-0.2-0.039-0.294c0.005-0.088,0.073-0.186,0.098-0.283
		c0.015-0.059,0.143-0.221,0.049-0.313c-0.073-0.068-0.313,0.005-0.367-0.063c-0.059-0.078-0.186-0.122-0.259-0.211
		c-0.093-0.107-0.073-0.293-0.059-0.377c0.02-0.093-0.024-0.181-0.02-0.269c0.005-0.093,0.132-0.186,0.117-0.274
		c-0.01-0.088-0.151-0.156-0.181-0.245c-0.025-0.083-0.064-0.157-0.099-0.24c-0.029-0.083,0.073-0.225,0.029-0.308
		c-0.039-0.079-0.146-0.127-0.195-0.206c-0.039-0.079-0.176-0.098-0.221-0.181c-0.049-0.074,0.104-0.269,0.055-0.348
		c-0.05-0.073-0.196-0.088-0.235-0.171c-0.049-0.078-0.195-0.107-0.23-0.191c-0.034-0.083,0.162-0.254,0.133-0.333
		c-0.029-0.093-0.299-0.103-0.328-0.196c-0.034-0.088-0.015-0.186-0.049-0.279c-0.034-0.093,0.161-0.26,0.132-0.353
		c-0.039-0.088-0.151-0.147-0.186-0.235c-0.039-0.083-0.049-0.186-0.083-0.274c-0.035-0.083-0.024-0.201-0.064-0.284
		c-0.034-0.088-0.352-0.054-0.386-0.142c-0.035-0.088,0.181-0.284,0.146-0.372c-0.039-0.088-0.348-0.059-0.387-0.142
		c-0.039-0.088,0.059-0.235,0.02-0.318c-0.039-0.088-0.146-0.147-0.186-0.23c-0.04-0.083-0.147-0.142-0.187-0.23
		c-0.039-0.088-0.039-0.191-0.068-0.279c-0.039-0.083-0.059-0.181-0.098-0.269c-0.034-0.088-0.118-0.157-0.147-0.25
		c-0.029-0.093,0.069-0.23,0.039-0.318c-0.039-0.093,0.05-0.225,0.021-0.313c-0.035-0.088-0.274-0.103-0.304-0.196
		c-0.03-0.088-0.103-0.167-0.127-0.254c-0.029-0.093-0.01-0.201-0.034-0.294c-0.024-0.088,0.005-0.195-0.02-0.284
		c-0.024-0.093,0.039-0.206,0.02-0.298c-0.024-0.093-0.181-0.157-0.191-0.25c-0.02-0.088,0.176-0.215,0.162-0.313
		c-0.015-0.068-0.24-0.088-0.274-0.147c-0.034-0.068-0.015-0.156-0.034-0.225c-0.034-0.078-0.088-0.156-0.122-0.245
		c-0.034-0.078-0.108-0.146-0.142-0.235c-0.029-0.083-0.107-0.157-0.137-0.245c-0.029-0.088,0.147-0.22,0.137-0.313
		c-0.01-0.088-0.215-0.142-0.24-0.235c-0.024-0.088,0.054-0.215,0.015-0.298c-0.039-0.088,0.02-0.25-0.029-0.328
		c-0.049-0.078-0.142-0.151-0.206-0.22c-0.059-0.073-0.157-0.137-0.225-0.201c-0.069-0.059-0.264,0.04-0.343-0.01
		c-0.078-0.054-0.142-0.117-0.225-0.156c-0.088-0.039-0.157-0.108-0.245-0.137s-0.186,0.02-0.284,0.005
		c-0.088-0.015-0.167-0.201-0.265-0.201c-0.098,0-0.186,0.137-0.274,0.152c-0.093,0.015-0.201-0.073-0.293-0.054
		c-0.088,0.02-0.167,0.068-0.254,0.088c-0.093,0.015-0.157,0.137-0.245,0.157c-0.088,0.02-0.171,0.049-0.264,0.068
		c-0.083,0.024-0.167,0.078-0.254,0.098c-0.088,0.02-0.225-0.157-0.308-0.137c-0.088,0.024-0.191-0.029-0.279-0.005
		c-0.093,0.02-0.161,0.107-0.254,0.127c-0.088,0.015-0.142,0.201-0.23,0.22c-0.093,0.02-0.167,0.118-0.259,0.127
		c-0.098,0.015-0.215-0.245-0.318-0.254c-0.103-0.01-0.181-0.078-0.284-0.093c-0.103-0.015-0.24,0.245-0.338,0.23
		c-0.103-0.01-0.196-0.147-0.293-0.137c-0.107,0.01-0.162,0.127-0.245,0.181c-0.083,0.044-0.24-0.054-0.323-0.02
		c-0.088,0.039-0.161,0.098-0.245,0.127c-0.093,0.029-0.132,0.25-0.225,0.27c-0.088,0.02-0.245-0.26-0.333-0.245
		c-0.098,0.02-0.171,0.108-0.265,0.118c-0.098,0.02-0.156,0.24-0.245,0.254c-0.098,0.015-0.176,0.059-0.274,0.078
		c-0.093,0.01-0.235-0.24-0.323-0.225c-0.098,0.025-0.201,0.074-0.293,0.108c-0.098,0.029-0.171,0.127-0.264,0.167
		c-0.098,0.034-0.127,0.196-0.225,0.235c-0.088,0.039-0.225-0.005-0.313,0.039c-0.088,0.039-0.245-0.059-0.333-0.02
		c-0.093,0.039-0.176,0.078-0.274,0.117c-0.088,0.035-0.171,0.083-0.264,0.118c-0.088,0.029-0.127,0.186-0.22,0.225
		c-0.093,0.029-0.235-0.078-0.323-0.049c-0.093,0.029-0.088,0.323-0.181,0.357c-0.088,0.035-0.176,0.069-0.264,0.103
		c-0.093,0.029-0.22-0.034-0.309,0c-0.093,0.034-0.235-0.068-0.328-0.034c-0.088,0.034-0.127,0.191-0.215,0.23
		c-0.093,0.039-0.137,0.176-0.225,0.215c-0.088,0.029-0.225-0.034-0.313,0.005c-0.059,0.029-0.259,0.005-0.323,0.083
		c-0.049,0.069-0.035,0.225-0.069,0.304c-0.039,0.098,0.02,0.215,0.034,0.279c0.025,0.088,0.093,0.162,0.123,0.245
		c0.029,0.088,0.162,0.137,0.191,0.22c0.029,0.088-0.024,0.196,0.005,0.284c0.029,0.078,0.137,0.137,0.167,0.225
		c0.029,0.083-0.127,0.235-0.098,0.323c0.029,0.078,0.098,0.152,0.127,0.24c0.029,0.083,0.039,0.176,0.068,0.259
		c0.034,0.079,0.01,0.186,0.039,0.274c0.034,0.078,0.108,0.146,0.137,0.235c0.034,0.088,0.024,0.186,0.049,0.269
		c0.039,0.083,0.127,0.142,0.157,0.23c0.034,0.083,0.137,0.137,0.167,0.225c0.029,0.088,0.01,0.186,0.044,0.274
		c0.073-0.064,0.103-0.181,0.176-0.235c0.083-0.059,0.176-0.103,0.25-0.146c0.088-0.054,0.157-0.157,0.235-0.196
		c0.093-0.039,0.254,0.107,0.343,0.088c0.098-0.029,0.146-0.293,0.24-0.303c0.098-0.02,0.21,0.245,0.308,0.25
		c0.098,0.005,0.167,0.044,0.259,0.063c0.093,0.02,0.181,0.01,0.265,0.039c0.088,0.035,0.132,0.132,0.22,0.176
		c0.083,0.039,0.308-0.151,0.386-0.098c0.079,0.049,0.113,0.176,0.191,0.235c0.079,0.059,0.186,0.078,0.26,0.137
		c0.073,0.063,0.151,0.122,0.23,0.186c0.068,0.069,0.029,0.245,0.098,0.313c0.02,0.02,0.176-0.137,0.196-0.118
		c0.078,0.054,0.147,0.108,0.225,0.167c0.078,0.054-0.029,0.362,0.049,0.411c0.074,0.059,0.196,0.054,0.27,0.108
		c0.073,0.054,0.298-0.098,0.376-0.04c0.074,0.054-0.049,0.372,0.029,0.431c0.079,0.054,0.226,0.005,0.304,0.059
		c0.078,0.059,0.206,0.039,0.284,0.093c0.074,0.054,0,0.309,0.079,0.367c0.073,0.049,0.166,0.083,0.24,0.142
		c0.073,0.054,0.303-0.093,0.376-0.044c0.079,0.059,0.118,0.157,0.196,0.215c0.074,0.059,0.01,0.294,0.088,0.348
		c0.073,0.054,0.293-0.083,0.367-0.024c0.073,0.059,0.107,0.167,0.181,0.225c0.079,0.054,0.235,0,0.309,0.059
		c0.073,0.059,0.024,0.274,0.098,0.333c0.074,0.059,0.21,0.034,0.279,0.093c0.073,0.054,0.073,0.21,0.146,0.264
		c0.069,0.059,0.167,0.088,0.245,0.142c0.079,0.059,0.108,0.167,0.186,0.225c0.069,0.059,0.21,0.034,0.284,0.093
		c0.068,0.054,0.039,0.245,0.107,0.309c0.073,0.054,0.274-0.039,0.348,0.015c0.073,0.063,0.059,0.22,0.132,0.279
		c0.069,0.064,0.118,0.147,0.186,0.206c0.079,0.064,0.323-0.078,0.392-0.02c0.073,0.059,0.059,0.215,0.137,0.274
		c0.068,0.059,0.034,0.245,0.103,0.303c0.068,0.06,0.181,0.079,0.25,0.138c0.069,0.063,0.196,0.063,0.265,0.127
		c0.068,0.059,0.21,0.044,0.279,0.107c0.068,0.068,0.01,0.265,0.078,0.328c0.069,0.063,0.24,0.02,0.304,0.083
		c0.068,0.068,0.063,0.206,0.132,0.27c0.069,0.063,0.245,0.015,0.313,0.078c0.068,0.063,0.068,0.201,0.127,0.27
		c0.069,0.063,0.059,0.205,0.123,0.273c0.063,0.064,0.24,0.015,0.308,0.079c0.069,0.068,0.03,0.234,0.098,0.303
		c0.059,0.063,0.254,0,0.323,0.063c0.064,0.064-0.034,0.299,0.034,0.362c0.069,0.063,0.196,0.063,0.265,0.128
		c0.068,0.063,0.171,0.083,0.24,0.146s0.147,0.117,0.215,0.181c0.068,0.068,0.2,0.054,0.27,0.118
		c0.068,0.068-0.094,0.371-0.024,0.431c0.068,0.063,0.205,0.054,0.273,0.117c0.068,0.068,0.049,0.215,0.117,0.279
		c0.069,0.063,0.157,0.103,0.226,0.171c0.068,0.063,0.23,0.02,0.299,0.083c0.063,0.063,0.181,0.073,0.249,0.137
		c0.068,0.064,0.152,0.113,0.221,0.172c0.068,0.068,0.073,0.195,0.142,0.259c0.068,0.064,0.083,0.182,0.151,0.245
		c0.069,0.063,0.069,0.2,0.138,0.26C30.198,33.507,30.546,33.565,30.512,33.541z M4.27,29.083c-0.059,0.088-0.005,0.332-0.044,0.416
		c-0.044,0.098-0.318,0.137-0.328,0.229c-0.02,0.103,0.274,0.196,0.298,0.294c0.025,0.088,0.059,0.142,0.113,0.225
		c0.054,0.079,0.078,0.162,0.152,0.235c0.068,0.068,0.093,0.186,0.171,0.249c0.079,0.06,0.196,0.055,0.279,0.108
		c0.078,0.054,0.044,0.278,0.122,0.338c0.079,0.049,0.284-0.069,0.362-0.021c0.078,0.06,0.068,0.245,0.147,0.299
		c0.083,0.054,0.146,0.132,0.225,0.191c0.078,0.054,0.156,0.112,0.235,0.166c0.078,0.059,0.313-0.098,0.392-0.039
		c0.078,0.059,0.117,0.161,0.196,0.225c0.078,0.06,0.161,0.108,0.235,0.172c0.078,0.063,0.176,0.103,0.245,0.171
		c0.073,0.063-0.039,0.323,0.029,0.392c0.068,0.063,0.127,0.137,0.196,0.206c0.068,0.063,0.303-0.039,0.372,0.024
		c0.068,0.063,0.142,0.122,0.21,0.186c0.068,0.063,0.151,0.117,0.215,0.182c0.068,0.068,0.107,0.156,0.176,0.225
		c0.069,0.063,0.162,0.103,0.23,0.166c0.068,0.069,0.107,0.167,0.171,0.235c0.064,0.068-0.039,0.309,0.024,0.372
		c0.069,0.063,0.289-0.024,0.357,0.044c0.068,0.063,0.171,0.093,0.24,0.161c0.069,0.064,0.044,0.221,0.108,0.289
		c0.068,0.063,0.171,0.093,0.24,0.161c0.063,0.069,0.044,0.226,0.107,0.294c0.064,0.068,0.225,0.039,0.294,0.107
		c0.063,0.064,0.142,0.123,0.21,0.191c0.063,0.063,0.02,0.244,0.088,0.309c0.068,0.068,0.186,0.083,0.254,0.146
		c0.059,0.068,0.206,0.063,0.274,0.132c0.059,0.068-0.029,0.289,0.039,0.357c0.063,0.068,0.215,0.049,0.284,0.117
		c0.063,0.068,0.215,0.044,0.284,0.113c0.064,0.068-0.044,0.308,0.025,0.376c0.068,0.069,0.308-0.049,0.376,0.021
		c0.069,0.068,0.098,0.166,0.167,0.234s-0.039,0.309,0.029,0.377c0.069,0.068,0.186,0.073,0.254,0.142
		c0.069,0.063,0.118,0.147,0.181,0.216c0.064,0.068,0.093,0.176,0.162,0.244c0.063,0.068,0.343-0.078,0.411-0.01
		s-0.068,0.333,0,0.401c0.068,0.063,0.343-0.073,0.411-0.01c0.063,0.068,0.029,0.235,0.088,0.304
		c0.069,0.068,0.191,0.083,0.255,0.151c0.068,0.068,0.186,0.083,0.254,0.147c0.068,0.063,0.098,0.166,0.167,0.229
		c0.063,0.068,0.117,0.147,0.181,0.216c0.064,0.068,0.167,0.103,0.235,0.171c0.064,0.068,0.025,0.24,0.093,0.309
		c0.059,0.068,0.039,0.225,0.103,0.294c0.064,0.068,0.289-0.021,0.357,0.049c0.063,0.068,0.162,0.107,0.225,0.176
		c0.068,0.068,0.093,0.176,0.157,0.245c0.068,0.068,0.093,0.176,0.157,0.244c0.068,0.068,0.068,0.201,0.137,0.27
		c0.059,0.068,0.225,0.044,0.294,0.112c0.063,0.068-0.03,0.284,0.034,0.353c0.063,0.068,0.279,0,0.347,0.068
		c0.064,0.068,0.083,0.186,0.147,0.255c0.068,0.068,0.142,0.127,0.21,0.2c0.063,0.063,0.157,0.112,0.22,0.182
		c0.068,0.068,0.167,0.107,0.235,0.176c0.063,0.073-0.024,0.284,0.044,0.353c0.069,0.078,0.181-0.005,0.245,0.068
		c0.049-0.112,0.151-0.117,0.19-0.206c0.044-0.117,0.206-0.156,0.245-0.244c0.039-0.103-0.03-0.127,0.01-0.226
		c0.068,0.054,0,0.069,0.059,0.123c0.063,0.059,0.254-0.039,0.318,0.015c0.064,0.054,0.113,0.122,0.176,0.176
		c0.063,0.049,0.103,0.142,0.162,0.196c0.049,0.078,0.098,0.078,0.147,0.156c0.068-0.063,0.191,0.029,0.259-0.029
		c0.068-0.063,0.054-0.216,0.122-0.274c0.079-0.063,0.215-0.039,0.284-0.098c0.068-0.059,0.122-0.142,0.196-0.195
		c0.068-0.06,0.078-0.196,0.156-0.255c0.069-0.059,0.142-0.117,0.215-0.176c0.074-0.05,0.127-0.138,0.206-0.187
		c0.074-0.059,0.265,0.054,0.343,0.005c0.073-0.054,0.186-0.044,0.264-0.093c0.079-0.049,0.113-0.167,0.191-0.211
		c0.078-0.054,0.063-0.244,0.142-0.288c0.078-0.054,0.117-0.172,0.191-0.221c0.078-0.044,0.293,0.137,0.376,0.093
		c0.079-0.049,0.186-0.039,0.265-0.088c0.083-0.044,0.029-0.328,0.107-0.372c0.079-0.039,0.225,0.024,0.304-0.02
		c0.083-0.039,0.107-0.181,0.196-0.225c0.078-0.049,0.235,0.049,0.313,0.01c0.078-0.049,0.147-0.117,0.235-0.157
		c0.078-0.044,0.073-0.264,0.152-0.303c0.083-0.039,0.303,0.195,0.387,0.151c0.083-0.044,0.132-0.151,0.215-0.19
		c0.083-0.039,0.073-0.274,0.156-0.313c0.083-0.039,0.157-0.107,0.235-0.146c0.088-0.04,0.284,0.176,0.372,0.137
		c0.079-0.039,0.157-0.098,0.24-0.137c0.083-0.04,0.142-0.138,0.22-0.177c0.088-0.039,0.118-0.195,0.196-0.234
		c0.083-0.04,0.21,0.01,0.294-0.024c0.083-0.04,0.23,0.063,0.318,0.024c0.083-0.04,0.162-0.079,0.25-0.118
		c0.079-0.039,0.157-0.093,0.24-0.132c0.083-0.039,0.113-0.195,0.191-0.235c0.088-0.039,0.235,0.064,0.323,0.024
		c0.078-0.039,0.044-0.332,0.127-0.371c0.083-0.039,0.167-0.079,0.25-0.123c0.083-0.039,0.21,0.015,0.293-0.024
		c0.083-0.049,0.23,0.049,0.313,0.01s0.103-0.205,0.191-0.244c0.078-0.049,0.107-0.187,0.195-0.23
		c0.078-0.044,0.216,0.02,0.294-0.024c0.088-0.044,0.239,0.049,0.318,0.01c0.083-0.049,0.122-0.171,0.2-0.215s0.122-0.157,0.2-0.201
		c0.079-0.044,0.113-0.083,0.196-0.127c-0.093-0.063-0.211,0.015-0.309-0.029c-0.103-0.054-0.151-0.162-0.244-0.191
		c-0.118-0.029-0.157,0.039-0.26,0.069c-0.093,0.024-0.24-0.138-0.328-0.118c-0.093,0.024-0.176,0.088-0.264,0.108
		c-0.099,0.024-0.196,0.024-0.284,0.049c-0.093,0.029-0.196-0.01-0.293,0.015c-0.088,0.024-0.171,0.093-0.265,0.112
		c-0.093,0.029-0.196,0.01-0.289,0.029c-0.093,0.029-0.171,0.117-0.259,0.137c-0.098,0.029-0.167,0.128-0.259,0.157
		c-0.093,0.02-0.201,0-0.289,0.029c-0.093,0.02-0.162,0.122-0.254,0.151c-0.088,0.029-0.186,0.039-0.274,0.073
		c-0.088,0.029-0.157,0.118-0.25,0.147c-0.093,0.039-0.25-0.123-0.338-0.089s-0.088,0.294-0.176,0.333
		c-0.088,0.039-0.279-0.176-0.372-0.132c-0.083,0.039-0.186,0.049-0.274,0.088c-0.088,0.044-0.157,0.117-0.245,0.161
		c-0.078,0.04-0.196,0.02-0.284,0.069c-0.079,0.039-0.034,0.332-0.118,0.376c-0.088,0.045-0.206,0.016-0.293,0.064
		c-0.079,0.044-0.137,0.137-0.215,0.181c-0.088,0.044-0.157,0.103-0.24,0.151c-0.083,0.05-0.24-0.044-0.328,0.01
		c-0.078,0.045-0.049,0.274-0.137,0.323c-0.078,0.049-0.156,0.098-0.245,0.143c-0.078,0.054-0.318-0.167-0.401-0.113
		c-0.078,0.049-0.122,0.157-0.201,0.211c-0.083,0.054-0.024,0.313-0.103,0.367c-0.078,0.049-0.338-0.182-0.416-0.128
		c-0.083,0.049-0.088,0.211-0.167,0.265c-0.078,0.049-0.107,0.176-0.191,0.225c-0.078,0.055-0.289-0.098-0.367-0.049
		c-0.083,0.049-0.142,0.128-0.22,0.182c-0.079,0.054-0.015,0.318-0.093,0.372c-0.083,0.049-0.191,0.054-0.269,0.112
		c-0.078,0.049-0.279-0.088-0.362-0.029c-0.078,0.049-0.02,0.304-0.098,0.353c-0.083,0.059-0.196,0.059-0.264,0.107
		c-0.088,0.054-0.093,0.22-0.162,0.265c-0.093,0.059-0.274-0.069-0.348-0.03c-0.098,0.05-0.157,0.167-0.235,0.172
		c-0.088,0.005-0.137-0.132-0.235-0.182c-0.059-0.039-0.152-0.059-0.235-0.132c-0.059-0.054-0.088-0.151-0.162-0.225
		c-0.063-0.06-0.201-0.05-0.274-0.118c-0.069-0.063-0.024-0.249-0.083-0.317c-0.068-0.069-0.284,0.02-0.352-0.05
		c-0.069-0.063-0.039-0.225-0.108-0.293c-0.068-0.068-0.112-0.152-0.181-0.216c-0.068-0.068-0.328,0.059-0.396-0.005
		c-0.064-0.063-0.049-0.22-0.118-0.288c-0.068-0.06-0.02-0.245-0.088-0.304c-0.069-0.068-0.176-0.088-0.245-0.156
		c-0.068-0.069-0.195-0.069-0.264-0.138c-0.068-0.068-0.206-0.059-0.274-0.127s-0.005-0.26-0.073-0.328
		c-0.069-0.063-0.24-0.029-0.309-0.093c-0.068-0.068-0.063-0.206-0.127-0.274c-0.069-0.063-0.25-0.01-0.318-0.078
		c-0.068-0.063-0.063-0.2-0.132-0.265c-0.068-0.068-0.059-0.215-0.127-0.278s-0.245-0.015-0.313-0.083
		c-0.068-0.064-0.034-0.235-0.103-0.304c-0.068-0.063-0.259,0-0.328-0.063c-0.068-0.063,0.03-0.304-0.039-0.367
		c-0.068-0.068-0.196-0.068-0.264-0.127c-0.068-0.069-0.176-0.089-0.245-0.157c-0.069-0.063-0.147-0.112-0.215-0.176
		c-0.069-0.068-0.206-0.059-0.274-0.127c-0.069-0.06,0.083-0.362,0.015-0.431c-0.069-0.064-0.206-0.055-0.274-0.118
		c-0.068-0.068-0.054-0.215-0.122-0.283c-0.069-0.064-0.162-0.108-0.23-0.167c-0.069-0.059-0.23-0.02-0.304-0.083
		c-0.068-0.063-0.186-0.073-0.254-0.132c-0.068-0.063-0.157-0.108-0.225-0.172s-0.078-0.19-0.147-0.249
		c-0.068-0.063-0.088-0.182-0.161-0.245c-0.069-0.059-0.074-0.195-0.142-0.254c-0.068-0.06-0.259,0.01-0.328-0.05
		c-0.068-0.063-0.107-0.161-0.176-0.225c-0.069-0.059-0.245,0-0.318-0.059c-0.068-0.063,0.054-0.343-0.024-0.401
		c-0.063-0.063-0.353,0.127-0.426,0.063c-0.068-0.063,0.054-0.338-0.015-0.401c-0.068-0.059-0.245-0.005-0.313-0.068
		c-0.068-0.059-0.161-0.093-0.23-0.156c-0.068-0.064-0.044-0.23-0.122-0.294c-0.069-0.063-0.25,0.005-0.318-0.054
		C8.366,32.9,8.43,32.685,8.361,32.621s-0.142-0.122-0.21-0.182c-0.068-0.063-0.298,0.06-0.367,0
		c-0.068-0.063,0.02-0.308-0.049-0.371c-0.068-0.06-0.225-0.024-0.298-0.089c-0.074-0.059-0.142-0.117-0.21-0.181
		c-0.069-0.063-0.069-0.2-0.137-0.26c-0.073-0.063-0.196-0.059-0.269-0.122c-0.074-0.063-0.132-0.132-0.201-0.19
		c-0.074-0.059-0.162-0.099-0.235-0.157c-0.069-0.063-0.157-0.103-0.23-0.166c-0.074-0.059-0.21-0.039-0.279-0.098
		c-0.073-0.059-0.167-0.099-0.235-0.157c-0.068-0.063-0.098-0.176-0.167-0.234c-0.073-0.059-0.181-0.073-0.254-0.138
		c-0.068-0.059-0.078-0.19-0.147-0.249c-0.068-0.063-0.078-0.201-0.146-0.26c-0.068-0.063-0.059-0.215-0.137-0.273
		c-0.068-0.064-0.117-0.147-0.191-0.206C4.544,29.21,4.338,29.142,4.27,29.083z M13.255,19.945c-0.034,0.093,0.029,0.333,0.01,0.421
		c-0.02,0.093-0.294,0.142-0.304,0.24c-0.02,0.098,0.265,0.22,0.26,0.313c-0.005,0.098,0.005,0.176,0.015,0.274
		c0.01,0.098-0.02,0.186,0,0.274c0.02,0.098-0.039,0.206-0.005,0.293s0.132,0.147,0.181,0.235c0.039,0.083-0.088,0.274-0.04,0.353
		c0.059,0.078,0.284,0.02,0.353,0.098c0.059,0.074,0.01,0.25,0.083,0.313c0.069,0.068,0.132,0.156,0.21,0.215
		c0.074,0.049,0.274,0.103,0.362,0.156c-0.034-0.098-0.284-0.206-0.313-0.298c-0.04-0.093-0.015-0.201-0.049-0.289
		c-0.029-0.088-0.073-0.176-0.107-0.265c-0.029-0.093-0.088-0.171-0.118-0.264c-0.034-0.088,0.186-0.264,0.152-0.357
		c-0.034-0.093-0.054-0.19-0.083-0.274c-0.029-0.093-0.294-0.103-0.323-0.191c-0.034-0.088-0.078-0.176-0.107-0.264
		c-0.035-0.088-0.088-0.171-0.118-0.264c-0.029-0.088-0.029-0.186-0.059-0.279C13.221,20.288,13.285,20.039,13.255,19.945z
		 M33.145,33.83c-0.02-0.098-0.206-0.172-0.226-0.274c-0.083,0.039-0.186-0.156-0.259-0.127c-0.073,0.039-0.044,0.333-0.122,0.372
		c-0.079,0.034-0.152,0.073-0.23,0.107c-0.083,0.039-0.171,0.039-0.25,0.078c-0.078,0.029-0.19,0-0.264,0.039
		c-0.078,0.039-0.117,0.143-0.196,0.187c-0.029,0.01-0.137,0.132-0.078,0.298c0.034,0.113,0.23,0.108,0.255,0.201
		c0.078-0.059,0.156,0.024,0.225-0.029c0.073-0.059,0.167-0.088,0.235-0.147c0.073-0.054,0.146-0.107,0.215-0.161
		c0.068-0.059-0.02-0.318,0.049-0.372c0.079-0.059,0.182-0.068,0.255-0.122C32.821,33.82,33.076,33.889,33.145,33.83z
		 M31.896,36.697c-0.093-0.039-0.338,0-0.421-0.02c-0.103-0.034-0.156-0.308-0.239-0.313c-0.108-0.01-0.187,0.278-0.274,0.303
		c-0.088,0.029-0.122,0.06-0.196,0.128c-0.068,0.059-0.137,0.088-0.186,0.176c-0.039,0.078-0.151,0.127-0.186,0.226
		c0.098-0.029,0.156-0.138,0.244-0.167c0.098-0.034,0.255,0.128,0.353,0.088c0.088-0.029,0.107-0.264,0.205-0.298
		c0.089-0.034,0.235,0.083,0.328,0.049C31.607,36.835,31.804,36.732,31.896,36.697z"/>
	<path d="M35.151,14.317c-0.039,0.083-0.138,0.068-0.167,0.142c-0.044,0.088,0.108,0.264,0.078,0.337
		c-0.039,0.093-0.068,0.171-0.098,0.25c-0.034,0.093-0.176,0.146-0.186,0.235c-0.015,0.088-0.068,0.206-0.059,0.293
		c0.01,0.083,0.244,0.118,0.278,0.206c0.029,0.078-0.044,0.201,0,0.293c0.034,0.069-0.063,0.22-0.015,0.309
		c0.039,0.073,0.088,0.146,0.138,0.24c0.039,0.073,0.225,0.078,0.273,0.167c0.039,0.083,0.152,0.156,0.177,0.259
		c0.024,0.093-0.068,0.22-0.059,0.318c0.01,0.098,0.005,0.196,0.005,0.299c0,0.103,0.063,0.206,0.054,0.303
		c-0.015,0.103-0.235,0.162-0.26,0.254c-0.015,0.093,0.26,0.23,0.25,0.309c-0.01,0.093-0.23,0.162-0.235,0.245
		c0,0.088,0.059,0.176,0.068,0.264c0,0.088,0.133,0.157,0.147,0.245c0.015,0.079-0.055,0.181-0.029,0.27
		c0.02,0.083,0.132,0.137,0.156,0.22c0.029,0.078-0.117,0.23-0.083,0.313c0.034,0.088,0.229,0.118,0.249,0.206
		c0.029,0.088-0.098,0.21-0.078,0.304c0.02,0.093,0.187,0.166,0.201,0.254c0.01,0.093-0.074,0.196-0.064,0.289
		c0.005,0.093,0.196,0.176,0.196,0.269c0.005,0.093-0.196,0.196-0.196,0.289c0.005,0.093,0.118,0.181,0.118,0.279
		c0.01,0.093-0.138,0.196-0.128,0.284c0,0.093-0.068,0.196-0.059,0.289c0.01,0.103,0.039,0.191,0.044,0.293s0.25,0.181,0.255,0.289
		c0.005,0.098,0.049,0.191,0.063,0.294c0.01,0.098,0.044,0.186,0.054,0.293c0.015,0.098-0.073,0.206-0.054,0.304
		c0.02,0.088,0.02,0.181,0.029,0.269c0.02,0.093-0.059,0.196-0.039,0.289c0.02,0.088,0.02,0.176,0.034,0.264
		c0.02,0.093-0.073,0.201-0.054,0.294c0.015,0.088,0.117,0.157,0.137,0.25c0.015,0.093,0.089,0.171,0.099,0.259
		c0.02,0.088,0.063,0.167,0.083,0.259c0.015,0.093-0.088,0.201-0.073,0.289c0.02,0.093,0.254,0.137,0.273,0.23
		c0.02,0.093,0.049,0.176,0.059,0.269c0.02,0.088-0.049,0.196-0.029,0.284c0.02,0.088-0.107,0.206-0.088,0.294
		c0.02,0.088,0.156,0.157,0.172,0.245c0.015,0.088-0.099,0.206-0.079,0.293c0.015,0.088,0.162,0.157,0.182,0.24
		c0.02,0.093,0.171,0.152,0.186,0.24c0.02,0.093-0.225,0.229-0.21,0.323c0.015,0.088,0.063,0.166,0.083,0.259
		s-0.049,0.196-0.029,0.289c0.015,0.088,0.181,0.146,0.195,0.234c0.01,0.063-0.156,0.039-0.225,0.138
		c-0.039,0.059,0.044,0.156,0,0.234c-0.073-0.088-0.143-0.107-0.216-0.176c-0.088-0.088-0.098-0.167-0.117-0.255
		c-0.015-0.098,0.049-0.22,0.029-0.313c-0.029-0.093-0.387-0.088-0.416-0.181s0.034-0.21,0-0.299
		c-0.034-0.093,0.063-0.229,0.029-0.322c-0.034-0.089-0.176-0.138-0.21-0.235c-0.029-0.088,0.098-0.23,0.068-0.323
		c-0.029-0.093-0.005-0.186-0.029-0.284c-0.024-0.093-0.323-0.127-0.338-0.225c-0.015-0.098,0.029-0.206,0.024-0.303
		c-0.01-0.093,0.117-0.196,0.127-0.294c0-0.088-0.127-0.176-0.137-0.269c-0.01-0.093,0.186-0.21,0.176-0.298
		c-0.02-0.088-0.156-0.157-0.176-0.25c-0.02-0.083-0.029-0.181-0.049-0.27c-0.029-0.083-0.068-0.166-0.098-0.254
		c-0.02-0.088-0.216-0.117-0.235-0.21c-0.029-0.083,0.078-0.21,0.054-0.303c-0.024-0.083-0.054-0.171-0.073-0.259
		c-0.024-0.093,0.093-0.206,0.078-0.294c-0.02-0.098-0.078-0.186-0.083-0.284c-0.005-0.103,0.005-0.196,0.005-0.299
		c-0.005-0.103-0.255-0.201-0.255-0.298s0.323-0.196,0.323-0.293c0.005-0.103-0.254-0.206-0.254-0.309
		c0-0.093,0.254-0.171,0.254-0.259c0.005-0.088-0.142-0.186-0.137-0.269c0-0.093,0.171-0.171,0.176-0.259
		c0-0.088,0.01-0.176,0.02-0.265c0-0.093-0.244-0.191-0.244-0.284c0.005-0.088,0.029-0.176,0.029-0.264
		c0-0.088,0.01-0.176,0.01-0.265c0-0.078,0.146-0.2,0.122-0.284c-0.024-0.103-0.107-0.308-0.161-0.337
		c-0.108-0.044-0.27,0.073-0.343,0.024c-0.098-0.064-0.029-0.245-0.083-0.313c-0.063-0.088-0.26-0.068-0.284-0.157
		c-0.024-0.098,0.127-0.186,0.137-0.293c0.01-0.088-0.142-0.215-0.112-0.318c0.02-0.093,0-0.21,0.034-0.309
		c0.034-0.088,0.328-0.088,0.362-0.181c0.034-0.093-0.151-0.25-0.132-0.337c0.029-0.088,0.083-0.171,0.098-0.259
		c0.01-0.093,0.029-0.186,0.034-0.274c0.005-0.093,0.181-0.21,0.166-0.298c-0.01-0.088-0.249-0.147-0.278-0.235
		c-0.029-0.088-0.117-0.137-0.162-0.22c-0.039-0.083,0.133-0.299,0.074-0.377c-0.055-0.068-0.123-0.157-0.191-0.225
		c-0.063-0.073-0.151-0.098-0.2-0.191c-0.044-0.088-0.068-0.171-0.104-0.269c-0.034-0.088-0.044-0.181-0.063-0.279
		c-0.02-0.103-0.073-0.19-0.088-0.279c-0.015-0.098-0.054-0.176-0.044-0.264c0.015-0.098-0.103-0.24-0.063-0.323
		c0.044-0.088,0.098-0.206,0.161-0.274s0.152-0.176,0.23-0.225c0.073-0.049,0.225,0,0.323-0.029
		c0.088-0.029,0.205,0.137,0.303,0.132C35.053,14.401,35.063,14.303,35.151,14.317z"/>
	<path d="M49.618,30.296c-0.01-0.083-0.182-0.078-0.196-0.166s-0.024-0.176-0.039-0.265c-0.015-0.088-0.005-0.181-0.015-0.269
		c-0.015-0.083,0.098-0.191,0.083-0.279s-0.073-0.171-0.088-0.254c-0.01-0.089,0.02-0.187,0.01-0.274
		c-0.015-0.088-0.166-0.156-0.176-0.24c-0.02-0.088,0.205-0.21,0.195-0.298c-0.02-0.089-0.171-0.167-0.19-0.255
		c-0.015-0.088-0.133-0.162-0.152-0.254c-0.02-0.088,0.073-0.196,0.054-0.289c-0.015-0.093-0.093-0.171-0.107-0.27
		c-0.01-0.078,0.161-0.176,0.156-0.259c-0.005-0.083-0.259-0.162-0.259-0.24c0-0.088,0.205-0.171,0.205-0.259
		c0-0.083-0.171-0.167-0.171-0.25c0-0.079,0.107-0.137,0.083-0.157c-0.083-0.059,0-0.284-0.059-0.353
		c-0.068-0.068-0.132-0.107-0.176-0.186c-0.04-0.088-0.015-0.171-0.04-0.264c-0.024-0.088-0.239-0.137-0.254-0.225
		c-0.01-0.098-0.015-0.196-0.015-0.289c-0.005-0.093,0.117-0.191,0.117-0.284c0-0.093,0.054-0.19,0.054-0.284
		c-0.01-0.093-0.229-0.171-0.239-0.264c-0.015-0.093,0.078-0.201,0.054-0.289c-0.024-0.093,0.078-0.255,0.029-0.338
		c-0.039-0.083-0.088-0.157-0.127-0.245c-0.04-0.088-0.226-0.113-0.26-0.201c-0.034-0.093-0.137-0.162-0.166-0.254
		c-0.029-0.088,0.054-0.215,0.029-0.313c-0.024-0.088-0.039-0.186-0.064-0.274c-0.02-0.098-0.107-0.176-0.127-0.269
		c-0.02-0.093,0.167-0.23,0.152-0.328c-0.02-0.088-0.328-0.137-0.343-0.225c-0.015-0.098,0.176-0.23,0.161-0.323
		c-0.015-0.098-0.088-0.181-0.103-0.274c-0.015-0.098-0.151-0.171-0.167-0.264c-0.015-0.093,0.064-0.206,0.055-0.303
		c-0.01-0.098-0.099-0.196-0.094-0.294c0-0.098,0.201-0.186,0.201-0.284c0.005-0.088-0.162-0.201-0.156-0.294
		c0.01-0.098,0.161-0.186,0.166-0.284c0.005-0.098-0.146-0.206-0.146-0.298c0.005-0.098,0.093-0.191,0.088-0.294
		c0-0.098-0.187-0.176-0.201-0.274c-0.01-0.098,0.182-0.215,0.162-0.308c-0.02-0.098-0.147-0.157-0.177-0.255
		c-0.024-0.088,0.118-0.2,0.133-0.303c0.015-0.093,0.107-0.142,0.142-0.235c0.039-0.088,0.049-0.167,0.098-0.24
		c0.054-0.083-0.049-0.309,0.029-0.377c0.078-0.059,0.152-0.157,0.235-0.215s0.283-0.167,0.362-0.235
		c0.01,0.083,0.073,0.323,0.098,0.411c0.029,0.088,0.039,0.186,0.059,0.269c0.024,0.093-0.044,0.206-0.029,0.284
		c0.015,0.123,0.02,0.171-0.029,0.21c-0.088,0.079-0.245,0.088-0.294,0.157c-0.068,0.088-0.044,0.254-0.059,0.338
		c-0.015,0.093,0.059,0.201,0.088,0.293c0.029,0.083,0.103,0.157,0.157,0.24c0.039,0.079-0.02,0.225,0.024,0.309
		c0.044,0.073,0.278,0.098,0.288,0.201c0.01,0.083,0.02,0.206,0.015,0.293c-0.005,0.093-0.112,0.186-0.132,0.274
		c-0.029,0.093-0.186,0.127-0.225,0.206c-0.04,0.088,0.029,0.225-0.011,0.309c-0.039,0.093-0.205,0.142-0.225,0.23
		c-0.024,0.098,0.088,0.225,0.098,0.313c0.005,0.093,0.147,0.103,0.196,0.186c0.044,0.078-0.108,0.304-0.029,0.382
		c0.059,0.054,0.166,0.093,0.264,0.147c0.068,0.044,0.029,0.137,0.078,0.245c0.049,0.083,0.216,0.117,0.235,0.215
		c0.02,0.107-0.127,0.186-0.146,0.269c-0.02,0.093,0.059,0.206,0.049,0.289c-0.01,0.093,0.024,0.191,0.024,0.284
		c-0.005,0.088-0.054,0.186-0.054,0.274c0.01,0.088-0.079,0.196-0.06,0.284c0.011,0.088,0.372,0.118,0.387,0.206
		c0.02,0.088-0.054,0.191-0.034,0.279c0.024,0.083-0.083,0.21-0.059,0.298c0.029,0.083,0.167,0.127,0.196,0.215
		s-0.089,0.225-0.059,0.313c0.029,0.079,0.02,0.186,0.049,0.27c0.029,0.083,0.327,0.068,0.356,0.151
		c0.035,0.079,0.015,0.186,0.04,0.274c0.029,0.088-0.064,0.21-0.04,0.293c0.03,0.088,0.182,0.147,0.206,0.235
		c0.024,0.093-0.151,0.235-0.132,0.328c0.02,0.093,0.151,0.161,0.161,0.254c0.005,0.093,0,0.181,0.01,0.269
		c0.005,0.093,0.034,0.176,0.044,0.269c0.01,0.093,0.187,0.162,0.196,0.25c0.01,0.093-0.123,0.196-0.118,0.284
		c0.01,0.088,0.02,0.176,0.034,0.264c0.005,0.093-0.122,0.196-0.112,0.284c0.01,0.088,0.059,0.171,0.068,0.264
		c0.01,0.088-0.01,0.176,0,0.269c0.01,0.088,0.265,0.156,0.27,0.25c0.005,0.088-0.309,0.2-0.299,0.288
		c0.01,0.093,0.274,0.162,0.279,0.255c0.005,0.088-0.24,0.19-0.23,0.284c0.005,0.093,0.157,0.171,0.167,0.259
		c0,0.088-0.167,0.167-0.177,0.255s-0.029,0.166-0.049,0.254c-0.02,0.094,0.206,0.235,0.187,0.328
		c-0.024,0.088-0.099,0.211-0.118,0.299C49.853,30.443,49.745,30.306,49.618,30.296z"/>
	<path d="M46.319,30.276c-0.02-0.088,0.117-0.215,0.093-0.303c-0.024-0.089-0.299-0.118-0.323-0.211s0.093-0.215,0.068-0.308
		c-0.024-0.089,0.024-0.196,0.005-0.289c-0.024-0.093-0.273-0.127-0.298-0.221c-0.02-0.088,0.024-0.195,0.005-0.288
		c-0.02-0.094,0.098-0.216,0.078-0.309c-0.024-0.088-0.122-0.166-0.146-0.255c-0.02-0.093-0.094-0.186-0.108-0.289
		c-0.01-0.103-0.039-0.171-0.088-0.25c-0.059-0.088-0.029-0.215-0.078-0.303c-0.049-0.088-0.26-0.108-0.294-0.206
		c-0.039-0.088,0-0.235-0.02-0.328c-0.015-0.098-0.083-0.225-0.078-0.328c0.005-0.088,0.093-0.206,0.127-0.309
		c0.029-0.088,0.255-0.093,0.309-0.186c0.034-0.063-0.151-0.176-0.195-0.22c-0.074-0.068-0.034-0.245-0.084-0.318
		c-0.059-0.079-0.039-0.186-0.078-0.274c-0.039-0.083-0.254-0.113-0.283-0.206c-0.02-0.093-0.045-0.201-0.06-0.289
		c-0.015-0.098-0.005-0.201-0.015-0.298c-0.01-0.093,0.108-0.201,0.099-0.299c-0.005-0.098-0.064-0.186-0.074-0.284
		c-0.01-0.098,0.03-0.196,0.01-0.293c-0.01-0.093-0.166-0.157-0.186-0.254c-0.029-0.088,0.161-0.26,0.127-0.353
		c-0.039-0.083-0.21-0.118-0.264-0.196c-0.049-0.078-0.187-0.083-0.255-0.157c-0.059-0.063-0.059-0.206-0.142-0.264
		c-0.063-0.044-0.162-0.123-0.167-0.245c-0.005-0.088,0.172-0.186,0.182-0.289c0.005-0.098-0.235-0.21-0.23-0.308
		c0.005-0.107,0.23-0.196,0.23-0.284c0-0.083-0.162-0.191-0.147-0.284c0.016-0.088,0.021-0.186,0.03-0.274
		c0.02-0.098,0.254-0.167,0.254-0.25c0.01-0.113-0.068-0.279-0.127-0.328c-0.068-0.059-0.088-0.151-0.142-0.215
		c-0.064-0.068-0.274-0.01-0.323-0.078c-0.049-0.073-0.103-0.157-0.133-0.24c-0.039-0.083,0.05-0.206,0.025-0.289
		c-0.025-0.088,0.02-0.171,0.005-0.265c-0.011-0.083-0.226-0.156-0.226-0.245c0-0.088,0.112-0.176,0.117-0.269
		c0-0.083,0.167-0.157,0.177-0.25c0.01-0.088,0.01-0.171,0.02-0.265c0.01-0.078-0.177-0.176-0.211-0.259
		c-0.034-0.073-0.142-0.112-0.181-0.191c-0.049-0.073,0.005-0.206-0.029-0.274c-0.049-0.093-0.068-0.176-0.093-0.254
		c-0.03-0.103-0.104-0.186-0.094-0.274c0.015-0.093,0.226-0.064,0.284-0.137c0.049-0.068-0.088-0.338,0-0.392
		c0.068-0.049,0.255,0.098,0.343,0.054c0.083-0.034,0.112-0.122,0.205-0.151c0.01,0.088,0.123,0.146,0.128,0.245
		c0.01,0.088-0.069,0.196-0.064,0.284c0.005,0.098,0.104,0.186,0.113,0.274c0.01,0.098-0.177,0.206-0.167,0.304
		c0.005,0.088,0.187,0.171,0.196,0.264c0.01,0.093-0.128,0.206-0.123,0.294c0.005,0.098,0.172,0.176,0.182,0.269
		c0.005,0.093-0.073,0.191-0.068,0.289c0.01,0.093,0.205,0.167,0.21,0.264c0.005,0.093-0.186,0.206-0.176,0.294
		c0.015,0.107,0.112,0.196,0.19,0.245c0.078,0.054,0.059,0.225,0.117,0.284c0.074,0.064,0.06,0.167,0.108,0.235
		c0.059,0.074,0.107,0.108,0.142,0.186c0.034,0.088,0.279,0.098,0.299,0.186s0.068,0.196,0.068,0.284c0,0.088,0.02,0.196,0.01,0.289
		c-0.01,0.083-0.122,0.171-0.142,0.259c-0.015,0.083-0.054,0.167-0.074,0.254c-0.024,0.088-0.137,0.147-0.161,0.235
		c-0.02,0.079-0.044,0.176-0.044,0.259c0,0.083-0.093,0.206-0.073,0.289c0.024,0.088,0.142,0.171,0.186,0.235
		c0.054,0.078,0.143,0.127,0.191,0.206c0.049,0.078,0.117,0.147,0.156,0.225c0.049,0.088-0.02,0.215,0.02,0.303
		c0.039,0.079,0.284,0.069,0.318,0.152s0.088,0.171,0.122,0.25c0.029,0.088-0.02,0.206,0.015,0.294
		c0.034,0.088-0.073,0.215-0.044,0.308c0.029,0.083,0.171,0.137,0.201,0.23c0.024,0.083-0.084,0.21-0.055,0.293
		c0.024,0.093,0.177,0.147,0.196,0.235c0.02,0.093,0.176,0.151,0.2,0.24c0.015,0.093-0.225,0.235-0.205,0.323
		c0.015,0.093,0.063,0.171,0.083,0.264c0.01,0.093-0.059,0.191-0.039,0.284c0.01,0.093,0.176,0.162,0.186,0.25
		c0.02,0.088-0.122,0.201-0.112,0.293c0.015,0.088,0.112,0.167,0.132,0.254c0.01,0.093,0.064,0.176,0.074,0.27
		c0.015,0.098-0.034,0.201-0.015,0.298c0.02,0.098-0.055,0.215-0.029,0.309c0.02,0.093,0.376,0.112,0.4,0.21
		c0.021,0.088-0.049,0.206-0.029,0.303s-0.088,0.22-0.059,0.313c0.02,0.098,0.157,0.167,0.177,0.255
		c0.024,0.098-0.118,0.225-0.099,0.318c0.02,0.093-0.015,0.195,0,0.288c0.01,0.088,0.304,0.147,0.304,0.24
		c0.005,0.088-0.049,0.181-0.059,0.273c0,0.089-0.137,0.172-0.146,0.26c-0.005,0.088,0.112,0.186,0.107,0.274
		c-0.01,0.093-0.166,0.063-0.171,0.156C46.485,30.159,46.446,30.271,46.319,30.276z"/>
	<path d="M33.154,27.355c-0.068-0.083-0.255,0.044-0.313-0.005c-0.098-0.098,0.118-0.274,0.123-0.337
		c0.005-0.098-0.108-0.206-0.113-0.299c0-0.093-0.01-0.196-0.02-0.289c-0.02-0.093-0.01-0.201-0.034-0.289
		c-0.024-0.093-0.122-0.166-0.151-0.254c-0.029-0.088-0.132-0.156-0.162-0.25c-0.029-0.093,0.045-0.21,0.015-0.308
		c-0.024-0.088-0.049-0.181-0.078-0.274c-0.029-0.088-0.254-0.117-0.283-0.215c-0.024-0.088,0.269-0.264,0.244-0.352
		c-0.02-0.098-0.323-0.137-0.338-0.23c-0.015-0.093-0.063-0.201-0.063-0.299c-0.005-0.088,0.167-0.196,0.177-0.289
		c0.01-0.093,0.176-0.162,0.19-0.25c0.015-0.093-0.215-0.245-0.19-0.338c0.029-0.083,0.195-0.132,0.234-0.22
		c0.039-0.078,0.117-0.196,0.103-0.303c-0.01-0.079-0.259-0.118-0.293-0.206c-0.029-0.088,0.005-0.191-0.044-0.274
		c-0.039-0.088,0.049-0.235,0-0.313c-0.044-0.088-0.157-0.127-0.206-0.206s-0.161-0.123-0.205-0.196
		c-0.059-0.083-0.138-0.157-0.187-0.245c-0.044-0.088-0.01-0.215-0.039-0.309c-0.034-0.093-0.239-0.151-0.254-0.25
		c-0.02-0.098,0.049-0.225,0.049-0.328c0-0.093-0.059-0.21-0.039-0.318c0.01-0.088,0.088-0.166,0.098-0.254
		c0.005-0.098,0.225-0.171,0.225-0.264c0.01-0.088-0.229-0.186-0.229-0.279c0-0.093,0.142-0.181,0.132-0.279
		c0-0.093,0.059-0.191,0.054-0.279c-0.005-0.093-0.215-0.162-0.229-0.25c-0.01-0.093-0.02-0.181-0.039-0.269
		c-0.02-0.093-0.01-0.181-0.034-0.27c-0.021-0.093,0.083-0.21,0.054-0.298c-0.024-0.088-0.094-0.162-0.123-0.25
		c-0.024-0.088-0.01-0.196-0.044-0.279c-0.029-0.083-0.186-0.122-0.225-0.21c-0.039-0.088,0.146-0.264,0.112-0.342
		c-0.034-0.088-0.2-0.118-0.25-0.196c-0.039-0.083-0.166-0.118-0.205-0.196c-0.054-0.098,0.005-0.235-0.029-0.318
		c-0.034-0.103-0.127-0.186-0.137-0.274c-0.01-0.107,0.171-0.162,0.195-0.25c0.039-0.088-0.098-0.313-0.02-0.372
		c0.068-0.054,0.265,0.079,0.362,0.039c0.088-0.024,0.195-0.205,0.299-0.225c0.024,0.088,0.098,0.225,0.122,0.318
		c0.02,0.093-0.177,0.23-0.157,0.318c0.024,0.093,0.079,0.171,0.099,0.265c0.02,0.088-0.01,0.186,0.01,0.279
		c0.024,0.093,0.244,0.132,0.269,0.22s0.044,0.176,0.068,0.264c0.025,0.088-0.073,0.206-0.054,0.294
		c0.02,0.088-0.015,0.19,0.01,0.284c0.02,0.088,0.25,0.127,0.265,0.215c0.024,0.093-0.068,0.206-0.049,0.293
		c0.02,0.088-0.107,0.21-0.093,0.304c0.02,0.088,0.054,0.176,0.063,0.264c0.02,0.088,0.195,0.147,0.215,0.24
		c0.015,0.093,0.108,0.171,0.118,0.259c0.015,0.088-0.084,0.196-0.069,0.289c0.01,0.093,0.01,0.181,0.02,0.274
		c0.015,0.093,0.094,0.171,0.104,0.264c0.015,0.088-0.187,0.21-0.172,0.299c0.01,0.088,0.313,0.137,0.333,0.23
		c0.01,0.093-0.186,0.215-0.166,0.308c0.01,0.088,0.088,0.171,0.107,0.254c0.02,0.093,0.156,0.157,0.176,0.245
		c0.02,0.088-0.039,0.196-0.015,0.284c0.024,0.088,0.143,0.146,0.172,0.23c0.029,0.088-0.118,0.24-0.078,0.328
		c0.039,0.083,0.234,0.088,0.278,0.176c0.044,0.079-0.044,0.235,0.01,0.309c0.044,0.073,0.23,0.063,0.284,0.137
		c0.054,0.074,0.044,0.201,0.103,0.27c0.059,0.068,0.279,0.166,0.294,0.293c0.01,0.127-0.201,0.259-0.245,0.333
		c-0.059,0.079-0.01,0.215-0.049,0.294c-0.039,0.093-0.21,0.122-0.239,0.206c-0.024,0.098-0.133,0.186-0.143,0.274
		c-0.015,0.098,0,0.215,0.005,0.309c0.005,0.093,0.24,0.161,0.26,0.259c0.02,0.088,0.073,0.156,0.103,0.245
		c0.024,0.088,0.078,0.157,0.112,0.245c0.039,0.088-0.02,0.206,0.024,0.293c0.04,0.079,0.064,0.176,0.084,0.265
		c0.029,0.078-0.039,0.196-0.029,0.279c0.02,0.088,0.015,0.171,0.02,0.259c0.01,0.088-0.099,0.167-0.104,0.254
		c-0.005,0.088,0.074,0.176,0.063,0.265c-0.01,0.088,0.03,0.181,0.011,0.269c-0.021,0.083-0.021,0.176-0.04,0.259
		c-0.029,0.088-0.171,0.127-0.205,0.21C33.125,27.223,33.198,27.272,33.154,27.355z"/>
	<path d="M41.826,28.251c-0.02-0.089-0.137-0.196-0.151-0.289s-0.054-0.191-0.063-0.289c-0.02-0.093,0.269-0.235,0.254-0.328
		c-0.015-0.093-0.02-0.201-0.034-0.293c-0.015-0.093-0.093-0.181-0.117-0.279c-0.024-0.088-0.26-0.127-0.289-0.22
		c-0.02-0.083,0.167-0.24,0.138-0.318c-0.024-0.088-0.167-0.127-0.196-0.215c-0.034-0.078,0.059-0.21,0.029-0.293
		c-0.029-0.079-0.039-0.176-0.068-0.255c-0.029-0.078-0.234-0.088-0.274-0.166c-0.029-0.083-0.068-0.162-0.103-0.24
		c-0.034-0.083-0.21-0.112-0.249-0.19c-0.024-0.079,0.273-0.279,0.249-0.362c-0.029-0.088-0.156-0.147-0.181-0.24
		c-0.02-0.093-0.284-0.132-0.299-0.23c-0.024-0.093,0.294-0.255,0.279-0.348c-0.02-0.093-0.147-0.171-0.162-0.264
		c-0.015-0.093-0.024-0.191-0.034-0.284c-0.015-0.093-0.005-0.19-0.02-0.279c-0.015-0.098-0.107-0.176-0.122-0.269
		c-0.015-0.093-0.103-0.176-0.112-0.269c-0.01-0.088,0.083-0.196,0.068-0.289c-0.01-0.093-0.01-0.191-0.029-0.279
		c-0.01-0.098-0.226-0.167-0.235-0.259c-0.01-0.093,0.309-0.22,0.299-0.313c-0.015-0.093-0.309-0.161-0.313-0.254
		c-0.005-0.088-0.054-0.176-0.054-0.269c-0.005-0.088,0.166-0.181,0.166-0.269c-0.005-0.083,0.157-0.176,0.157-0.26
		c0-0.088-0.27-0.176-0.27-0.264c0-0.088,0.138-0.176,0.138-0.264c0-0.083,0.068-0.176,0.063-0.264c0-0.088-0.245-0.167-0.245-0.255
		c-0.005-0.088,0.063-0.176,0.059-0.264c-0.01-0.093,0.133-0.191,0.128-0.284c-0.01-0.088-0.094-0.167-0.099-0.259
		c-0.01-0.093-0.088-0.171-0.098-0.26c-0.005-0.088-0.039-0.176-0.049-0.264c-0.01-0.088,0.078-0.186,0.068-0.274
		s-0.195-0.167-0.2-0.254c-0.005-0.088,0.063-0.186,0.054-0.274c0-0.088-0.068-0.176-0.073-0.264
		c-0.005-0.088,0.073-0.196,0.088-0.284c0.015-0.083,0.239-0.127,0.259-0.21c0.025-0.083-0.156-0.284-0.137-0.367
		c0.083-0.01,0.245,0.083,0.323,0.074c0.049,0.098,0.054,0.22,0.112,0.318c0.063,0.108,0.299,0.162,0.304,0.269
		c0.005,0.093,0.005,0.181,0.015,0.279c0,0.093-0.015,0.186-0.01,0.274c0.01,0.098-0.107,0.196-0.107,0.284
		c0.01,0.098,0.063,0.186,0.068,0.274c0.01,0.098-0.029,0.19-0.024,0.284c0.005,0.093,0.151,0.171,0.161,0.264
		s-0.215,0.206-0.205,0.298c0.01,0.093,0.151,0.171,0.166,0.26c0.01,0.098,0.117,0.176,0.127,0.269s-0.088,0.201-0.078,0.289
		c0.01,0.093,0.093,0.176,0.103,0.265c0.015,0.098-0.151,0.205-0.142,0.303c0.01,0.088,0.274,0.147,0.284,0.24
		c0.02,0.093-0.182,0.21-0.172,0.308c0.015,0.088,0.201,0.157,0.211,0.245c0.015,0.088,0.039,0.181,0.054,0.274
		c0.015,0.088-0.191,0.215-0.176,0.313c0.015,0.088,0.063,0.176,0.073,0.27c0.02,0.088-0.024,0.191-0.01,0.284
		s0.234,0.147,0.249,0.24c0.015,0.088,0.034,0.186,0.044,0.274c0.02,0.088-0.083,0.206-0.068,0.294
		c0.02,0.093-0.029,0.196-0.01,0.289c0.02,0.088,0.245,0.142,0.265,0.23c0.02,0.093-0.078,0.206-0.059,0.299
		c0.015,0.093-0.123,0.21-0.104,0.303c0.015,0.093,0.045,0.181,0.064,0.269c0.02,0.088,0.195,0.152,0.215,0.245
		c0.02,0.088,0.112,0.167,0.132,0.255c0.015,0.093-0.073,0.206-0.059,0.298c0.02,0.093,0.024,0.181,0.044,0.274
		c0.02,0.093,0.099,0.171,0.118,0.26c0.02,0.088-0.167,0.225-0.157,0.313c0.02,0.088,0.333,0.123,0.348,0.215
		c0.02,0.088-0.171,0.225-0.151,0.313c0.015,0.088,0.088,0.171,0.107,0.265c0.02,0.093,0.156,0.156,0.176,0.25
		c0.02,0.088-0.049,0.196-0.034,0.289c0.02,0.088,0.123,0.167,0.143,0.254c0.015,0.083-0.172,0.181-0.177,0.265
		c0,0.088,0.167,0.181,0.157,0.264c-0.015,0.083-0.172,0.147-0.187,0.235c-0.01,0.078,0.098,0.245,0.093,0.328
		C42.14,28.285,41.954,28.251,41.826,28.251z"/>
	<path d="M39.291,25.011c0.02,0.093,0.015,0.088,0.044,0.176c0.03,0.093-0.122,0.235-0.093,0.323
		c0.029,0.088,0.068,0.176,0.098,0.259c0.03,0.093,0.06,0.176,0.089,0.264c0.024,0.088,0.054,0.176,0.078,0.269
		c0.02,0.088,0.039,0.176,0.059,0.264c0.02,0.093,0.26,0.137,0.274,0.23c0.02,0.093-0.221,0.235-0.206,0.323
		c0.02,0.093-0.02,0.191-0.005,0.289c0.015,0.088,0.323,0.137,0.338,0.225c0.01,0.098-0.103,0.206-0.083,0.304
		c0.015,0.093,0.171,0.156,0.186,0.25c0.015,0.083-0.244,0.21-0.229,0.298c0.015,0.078,0.186,0.138,0.195,0.216
		c0.02,0.088,0.122,0.146,0.137,0.234c0.02,0.078,0.055,0.162,0.069,0.245c0.02,0.088-0.255,0.244-0.235,0.333
		c0.02,0.088,0.029,0.181,0.049,0.273c0.02,0.088,0.088,0.157,0.107,0.245c0.01,0.098,0.235,0.176,0.235,0.264
		c-0.01,0.094-0.284,0.094-0.377,0.187c-0.088,0.078-0.103,0.239-0.171,0.313c-0.049-0.089,0.015-0.24-0.034-0.333
		c-0.055-0.088-0.05-0.127-0.06-0.226c-0.01-0.098-0.205-0.171-0.21-0.264c-0.01-0.099-0.029-0.196-0.034-0.289
		c-0.005-0.098-0.172-0.181-0.182-0.274c-0.01-0.098,0.343-0.22,0.333-0.313c-0.01-0.099-0.117-0.187-0.122-0.279
		c-0.005-0.098-0.26-0.176-0.265-0.274c-0.005-0.098,0.328-0.22,0.318-0.313c-0.01-0.099-0.127-0.187-0.142-0.274
		c-0.01-0.098-0.01-0.196-0.02-0.293c-0.015-0.088,0.005-0.196-0.015-0.284c-0.01-0.088-0.128-0.167-0.177-0.259
		c-0.039-0.078-0.156-0.107-0.215-0.181c-0.063-0.073-0.049-0.215-0.118-0.274c-0.068-0.068-0.127-0.142-0.19-0.206
		c-0.068-0.078-0.289-0.02-0.348-0.098c-0.059-0.078,0.172-0.328,0.133-0.411c-0.045-0.088-0.348-0.079-0.367-0.167
		c-0.02-0.088-0.068-0.22-0.064-0.318c0.006-0.088,0.191-0.176,0.221-0.274c0.02-0.083,0.195-0.118,0.226-0.21
		c0.034-0.083-0.177-0.274-0.133-0.362c0.034-0.078,0.172-0.122,0.167-0.215c-0.005-0.083,0.054-0.186,0.039-0.269
		c-0.01-0.088-0.255-0.167-0.25-0.25c0-0.093,0.093-0.196,0.112-0.289c0.024-0.093,0.133-0.093,0.152-0.181
		c0.088,0.044,0.166,0.01,0.273,0.049c0.128,0.054,0.304,0.068,0.333,0.157c0.029,0.078,0.083,0.166,0.098,0.245
		c0.02,0.083-0.049,0.186-0.039,0.274c0.02,0.078,0.206,0.147,0.216,0.225c0.015,0.088-0.054,0.186-0.044,0.264
		c0.01,0.088,0.063,0.265,0.073,0.353C39.438,25.001,39.365,24.996,39.291,25.011z"/>
	<path d="M43.021,31.089c-0.103-0.039-0.244-0.205-0.313-0.229c-0.176-0.063-0.367,0-0.372-0.024
		c-0.02-0.078,0.133-0.206,0.113-0.284c-0.015-0.088-0.221-0.127-0.24-0.21c-0.02-0.084,0.005-0.177-0.01-0.26
		c-0.02-0.083,0.147-0.206,0.127-0.289c-0.02-0.083-0.059-0.112-0.078-0.2c0.078-0.005,0.128,0.01,0.221,0
		c0.137-0.02,0.19-0.073,0.2-0.063c0.02,0.098,0.029,0.19,0.049,0.293c0.02,0.094,0.25,0.157,0.265,0.26
		c0.015,0.093-0.235,0.229-0.221,0.333c0.016,0.088-0.024,0.195-0.01,0.303C42.756,30.806,43.001,30.991,43.021,31.089z"/>
	<path d="M38.597,16.887c-0.099,0.093-0.333,0.079-0.401,0.147c-0.098,0.083-0.123,0.313-0.196,0.382
		c-0.044-0.079-0.117-0.225-0.156-0.304c-0.049-0.073-0.176-0.103-0.216-0.176c-0.044-0.078,0.064-0.235,0.03-0.313
		c-0.04-0.078-0.235-0.098-0.265-0.186c-0.015-0.049,0.22-0.147,0.313-0.24c0.073-0.068,0.137-0.318,0.195-0.382
		c0.049,0.073,0.171,0.24,0.226,0.313c0.049,0.073-0.055,0.254,0,0.328c0.049,0.073,0.117,0.137,0.171,0.215
		C38.342,16.745,38.543,16.809,38.597,16.887z"/>
	<path d="M38.127,20.968c-0.02-0.088,0.049-0.191,0.029-0.279c-0.024-0.093-0.245-0.132-0.265-0.22
		c-0.024-0.088-0.034-0.186-0.059-0.274c-0.02-0.088-0.059-0.235-0.083-0.323c0.068-0.01,0.269,0.093,0.353,0.078
		c0.127-0.029,0.308-0.156,0.308-0.146c0.029,0.088-0.005,0.196,0.01,0.284c0.024,0.088,0.133,0.162,0.152,0.254
		c0.015,0.088-0.133,0.21-0.118,0.299c0.02,0.093,0.191,0.235,0.211,0.328c-0.073,0.01-0.265-0.078-0.343-0.063
		C38.254,20.91,38.2,20.958,38.127,20.968z"/>
	<path d="M17.361,35.405c-0.005,0.069,0.157,0.216,0.093,0.309c-0.049,0.063-0.117,0.162-0.186,0.23
		c-0.059,0.059-0.22,0.034-0.294,0.093c-0.068,0.054-0.254-0.049-0.333,0.005c-0.069,0.049-0.127,0.107-0.21,0.156
		c-0.074,0.049-0.083,0.206-0.162,0.245c-0.083,0.044-0.088,0.234-0.176,0.273c-0.078,0.04-0.235-0.068-0.318-0.034
		c-0.093,0.034-0.201-0.02-0.279,0.005c-0.098,0.029-0.142,0.25-0.22,0.265c-0.112,0.01-0.259-0.015-0.318-0.049
		c-0.059-0.029-0.147-0.083-0.196-0.137c-0.049-0.055,0.049-0.226,0.01-0.284c-0.049-0.068-0.245-0.034-0.293-0.103
		c-0.054-0.068-0.059-0.172-0.113-0.24c-0.049-0.068-0.176-0.083-0.22-0.156c-0.049-0.068,0.039-0.235-0.01-0.313
		c-0.054-0.068-0.245-0.039-0.293-0.107c-0.044-0.068,0.049-0.24,0-0.313c-0.044-0.063-0.27-0.068-0.313-0.156
		c-0.059-0.123-0.039-0.377-0.01-0.406c0.073-0.068,0.274-0.005,0.343-0.073c0.073-0.069,0.127-0.152,0.206-0.221
		c0.068-0.063,0.137-0.142,0.21-0.2c0.073-0.069,0.142-0.138,0.22-0.196c0.073-0.068,0.156-0.122,0.23-0.186
		c0.078-0.059,0.034-0.299,0.112-0.353c0.088-0.049,0.304,0.127,0.392,0.078c0.068-0.039,0.059,0.039,0.181,0.088
		c0.083,0.034,0.308-0.176,0.396-0.117c0.088,0.054,0.103,0.226,0.186,0.284c0.083,0.068,0.254,0.02,0.328,0.078
		c0.074,0.063-0.034,0.338,0.039,0.406c0.074,0.068,0.25,0.034,0.318,0.103c0.068,0.073,0.206,0.088,0.274,0.166
		c0.063,0.079,0.147,0.143,0.215,0.216c0.059,0.078-0.098,0.353-0.039,0.426C17.224,35.298,17.322,35.342,17.361,35.405z"/>
	<path d="M10.989,30.683c0.088-0.02,0.015-0.317,0.093-0.332c0.078-0.015,0.245,0.298,0.323,0.278
		c0.083-0.015,0.147-0.117,0.225-0.137c0.083-0.02,0.132-0.211,0.215-0.226c0.079-0.02,0.196,0.128,0.274,0.118
		c0.122-0.02,0.235-0.005,0.303,0.078c0.063,0.088,0.206,0.289,0.147,0.392c-0.049,0.088-0.215,0.107-0.304,0.195
		c-0.068,0.068-0.02,0.157-0.107,0.245c0.088,0.054,0.049,0.137,0.132,0.186c0.083,0.049,0.142,0.147,0.23,0.196
		c0.079,0.049,0.284-0.094,0.372-0.039c0.078,0.049,0.093,0.063,0.186,0.117c0.059-0.049,0.088,0.034,0.167-0.024
		c0.054-0.044,0.24,0.054,0.313-0.005c0.059-0.044,0.108-0.107,0.181-0.167c0.059-0.044,0.024-0.195,0.093-0.254
		c0,0.103,0.156,0.186,0.156,0.278c0,0.104-0.161,0.201-0.161,0.289c0,0.103-0.093,0.201-0.093,0.294
		c0,0.103,0.206,0.195,0.206,0.294c0,0.098-0.01,0.195-0.01,0.293s0.015,0.191,0.015,0.289s-0.167,0.137-0.167,0.234
		c-0.093,0.01-0.107,0.172-0.201,0.182c-0.093,0.02-0.196-0.029-0.284-0.02c-0.098,0.005-0.206,0.093-0.293,0.088
		c-0.098-0.01-0.157-0.195-0.235-0.24c-0.079-0.039-0.274,0.025-0.338-0.049c-0.054-0.063,0.044-0.239,0.005-0.337
		c-0.034-0.079-0.245-0.118-0.264-0.221c-0.01-0.059,0-0.049-0.137-0.093c-0.093-0.029-0.157-0.235-0.264-0.245
		c-0.118-0.01-0.245,0.005-0.333,0.02c-0.098,0.024-0.181,0.039-0.259,0.049c-0.112,0.005-0.181,0-0.254-0.02
		c-0.093-0.029-0.123-0.054-0.162-0.142c-0.029-0.068-0.264-0.137-0.259-0.245c0.005-0.078,0.279-0.142,0.298-0.244
		c0.015-0.098,0.083-0.191,0.103-0.279c0.015-0.098-0.259-0.239-0.245-0.338c0.015-0.103,0.151-0.176,0.171-0.269
		C10.838,30.762,10.979,30.771,10.989,30.683z"/>
	<path d="M10.27,28.388c-0.068,0.059,0.02,0.19-0.039,0.25c-0.059,0.063-0.215,0.044-0.274,0.103
		c-0.059,0.068-0.073,0.186-0.127,0.244c-0.069,0.069-0.274-0.01-0.333,0.05c-0.068,0.068,0.074,0.381,0.01,0.425
		c-0.083,0.06-0.264-0.225-0.342-0.225c-0.083,0-0.123,0.068-0.21,0.015c-0.074-0.039-0.25,0.039-0.318-0.029
		c-0.068-0.054-0.01-0.24-0.078-0.309c-0.059-0.063-0.123-0.132-0.186-0.2c-0.068-0.068-0.284-0.083-0.353-0.143
		c0.079-0.054,0.265-0.088,0.343-0.151c0.073-0.059,0.068-0.215,0.142-0.279c0.073-0.063,0.24-0.015,0.318-0.063
		c0.078-0.059,0.176-0.068,0.264-0.112c0.079-0.049,0.079-0.298,0.171-0.328c0.073-0.029,0.299,0.01,0.416,0.083
		c0.068,0.044,0.093,0.21,0.181,0.279c0.073,0.059,0.049,0.274,0.132,0.343C10.074,28.388,10.182,28.329,10.27,28.388z"/>
	<path d="M9.453,30.008c0.044-0.093,0.162-0.211,0.21-0.289c0.044-0.098,0.186-0.132,0.235-0.215
		c0.054-0.089,0.118-0.157,0.167-0.226c0.068-0.088,0.01-0.294,0.078-0.343c0.088-0.068,0.25-0.005,0.333-0.02
		c0.098-0.015,0.206-0.059,0.303-0.01c0.079,0.039,0.029,0.255,0.108,0.333c0.063,0.059,0.411,0.034,0.479,0.117
		c-0.083,0.054-0.431-0.068-0.509-0.015c-0.083,0.049-0.118,0.177-0.196,0.226c-0.088,0.054-0.074,0.254-0.157,0.303
		c-0.078,0.055-0.245-0.039-0.328,0.015c-0.083,0.05-0.161,0.094-0.25,0.147c-0.078,0.049-0.137,0.254-0.22,0.309
		C9.653,30.257,9.497,30.091,9.453,30.008z"/>
</g>
<g>
</g>
<g>
</g>
<g>
</g>
<g>
</g>
<g>
</g>
<g>
</g>
<g>
</g>
<g>
</g>
<g>
</g>
<g>
</g>
<g>
</g>
<g>
</g>
<g>
</g>
<g>
</g>
<g>
</g>
</svg>
