<?xml version="1.0" encoding="utf-8"?>
<!-- Generator: Adobe Illustrator 16.0.0, SVG Export Plug-In . SVG Version: 6.00 Build 0)  -->
<!DOCTYPE svg PUBLIC "-//W3C//DTD SVG 1.1//EN" "http://www.w3.org/Graphics/SVG/1.1/DTD/svg11.dtd">
<svg version="1.1" id="圖層_1" xmlns="http://www.w3.org/2000/svg" xmlns:xlink="http://www.w3.org/1999/xlink" x="0px" y="0px"
	 width="55px" height="55px" viewBox="0 0 55 55" enable-background="new 0 0 55 55" xml:space="preserve">
<g>
	<path fill="#9EB6B7" d="M28.134,9.297c6.503,0,12.992-0.004,19.495,0c1.33,0,1.743,0.508,2.045,1.808
		c0.676,2.922-0.318,5.672-0.74,8.47c-0.207,1.36-0.078,2.557,0.31,3.882c0.495,1.687,0.715,3.503,0.749,5.271
		c0.043,2.505-0.232,5.01-0.293,7.519c-0.009,0.495,0.332,0.999,0.499,1.498c0.62,1.846,0.225,3.684-0.072,5.518
		c-0.182,1.093-0.443,2.173-0.556,3.271c-0.068,0.642-0.258,0.964-0.921,1.071c-1.566,0.254-3.095,0.413-4.661-0.133
		c-0.499-0.173-1.162,0.197-1.752,0.189c-5.198-0.073-10.397-0.173-15.596-0.268c-0.035,0-0.073,0.009-0.104-0.004
		c-2.487-1.003-5.035,0.211-7.531-0.211c-0.827-0.138-1.653-0.318-2.475-0.474c-0.207-0.038-0.491-0.142-0.616-0.047
		c-1.093,0.796-2.281,0.335-3.443,0.322c-2.229-0.025-4.455-0.043-6.675,0c-0.908,0.013-1.235-0.292-1.252-1.227
		c-0.043-2.173-0.155-4.359-0.31-6.528c-0.129-1.847-0.534-3.692-0.491-5.535c0.052-2.246,0.379-4.493,0.71-6.722
		c0.177-1.192,0.503-2.393,0.947-3.512c1.334-3.387,1.016-6.912,1.115-10.424c0.03-1.067,0.323-2.161,0.688-3.167
		c0.112-0.31,0.874-0.542,1.334-0.546c4.992-0.039,9.98-0.026,14.968-0.026C25.048,9.293,26.588,9.297,28.134,9.297L28.134,9.297z"
		/>
	<path fill="#6D635C" d="M47.535,8.049c1.472,0,2.939-0.025,4.406,0.03c0.194,0.009,0.375,0.422,0.564,0.65
		c-0.232,0.172-0.452,0.486-0.688,0.499c-0.835,0.052-1.648,0.138-2.419-0.525c-0.431-0.37-1.235-0.31-1.872-0.443
		C47.53,8.191,47.53,8.118,47.535,8.049z"/>
	<path fill="#6D635C" d="M2.479,9.026C4.2,8.084,5.926,8.644,7.488,8.205C5.948,8.798,4.558,10.288,2.479,9.026z"/>
	<path fill="#6D635C" d="M24.083,8.738c-0.508-0.405-1.136-0.68-1.127-0.938c0.026-1.016,0.938-0.598,1.48-0.646
		c0.258-0.026,0.555,0.387,0.835,0.603C24.923,8.041,24.579,8.325,24.083,8.738z"/>
	<path fill="#6D635C" d="M29.859,7.417c0.568-0.134,0.994-0.323,1.416-0.306c0.254,0.009,0.572,0.301,0.706,0.546
		c0.064,0.134-0.194,0.616-0.357,0.637c-0.517,0.082-1.059,0.082-1.566-0.03C29.924,8.239,29.915,7.679,29.859,7.417z"/>
	<path fill="#6D635C" d="M38.376,7.068c0.422,0.327,0.702,0.534,0.978,0.74c-0.311,0.198-0.611,0.555-0.921,0.56
		c-0.422,0.004-0.844-0.267-1.266-0.417C37.524,7.679,37.89,7.417,38.376,7.068z"/>
	<path fill="#6D635C" d="M8.762,8.308c0.788-0.835,2.023-1.093,2.514-0.667c0.112,0.099,0.025,0.435,0.025,0.667
		C10.536,8.308,9.761,8.308,8.762,8.308z"/>
	<path fill="#6D635C" d="M46.343,8.342c-0.62,0-1.196,0.026-1.765-0.026c-0.121-0.009-0.275-0.301-0.293-0.474
		c-0.017-0.12,0.15-0.31,0.284-0.387C45.181,7.107,46.016,7.481,46.343,8.342z"/>
	<path fill="#6D635C" d="M16.333,8.514c0-0.439-0.013-0.499,0-0.508c0.564-0.245,1.124-0.482,1.687-0.723
		c0.064,0.25,0.194,0.715,0.181,0.723C17.628,8.191,17.034,8.333,16.333,8.514z"/>
	<path fill="#6D635C" d="M21.725,8.308c-0.818,0-1.635,0-2.458,0c0-0.103-0.004-0.198-0.004-0.301c0.835,0,1.67,0,2.5,0
		C21.755,8.11,21.734,8.205,21.725,8.308z"/>
	<path fill="#6D635C" d="M33.048,8.093c0.935,0,1.873,0,2.807,0c0,0.069,0,0.129-0.005,0.198c-0.934,0-1.872,0-2.806,0
		C33.044,8.222,33.044,8.162,33.048,8.093z"/>
	<path fill="#6D635C" d="M12.691,7.968c0.736,0,1.468,0,2.204,0c0,0.082,0,0.159,0,0.237c-0.736,0-1.467,0-2.204,0
		C12.691,8.127,12.691,8.049,12.691,7.968z"/>
	<path fill="#6D635C" d="M28.801,8.278c-0.827,0-1.653,0-2.479,0c-0.009-0.082-0.009-0.16-0.009-0.237c0.826,0,1.652,0,2.479,0
		C28.801,8.118,28.801,8.196,28.801,8.278z"/>
	<path fill="#FFFFFF" d="M14.383,34.173c-0.68,1.971-0.443,2.866,1.124,3.701c1.252,0.667,2.655,1.055,3.989,1.558
		c0.663,0.245,1.309,0.586,1.989,0.697c0.68,0.112,1.407-0.095,2.1-0.025c4.347,0.456,8.659,0.232,12.928-0.654
		c1.885-0.392,3.685-0.981,5.113-2.342c0.297-0.283,0.503-0.705,0.646-1.097c0.224-0.629,0.508-0.826,1.093-0.384
		c1.231,0.926,1.291,2.148,0.018,2.962c-0.775,0.499-1.73,0.714-2.591,1.088c-0.611,0.263-1.171,0.693-1.804,0.831
		c-1.924,0.409-3.86,0.938-5.797,0.981c-1.472,0.025-2.948,0.478-4.347,0.241c-2.178-0.357-4.355,0.197-6.516-0.293
		s-4.381-0.697-6.524-1.252c-1.291-0.341-2.539-0.994-3.675-1.7c-1.317-0.818-1.283-2.04-0.018-2.961
		C12.73,35.051,13.445,34.715,14.383,34.173z"/>
	<path fill="#FFFFFF" d="M22.909,31.401c-0.039-0.129-0.107-0.259-0.121-0.388c-0.168-1.704-1.123-2.905-2.208-4.183
		c-1.842-2.169-2.419-3.314-0.465-6.292c0.064,0.095,0.172,0.198,0.146,0.25c-0.62,1.498-0.082,2.935,0.263,4.373
		c0.073,0.292,0.349,0.568,0.581,0.792c1.097,1.067,2.044,2.233,2.264,3.8c0.069,0.533-0.095,1.098-0.15,1.657
		C23.12,31.401,23.012,31.401,22.909,31.401z"/>
	<path fill="#FFFFFF" d="M26.674,20.466c0.258,1.313,0.362,2.569,0.775,3.723c0.318,0.887,1.106,1.592,1.549,2.449
		c0.306,0.607,0.384,1.33,0.568,2c-0.09,0.035-0.185,0.065-0.275,0.091c-0.942-1.359-1.945-2.681-2.806-4.092
		C25.65,23.259,25.93,21.843,26.674,20.466z"/>
	<path fill="#FFFFFF" d="M34.615,26.198c2.053,0.766,2.526,3.051,1.329,5.186C35.506,29.671,35.075,28.01,34.615,26.198z"/>
	<path fill="#FFFFFF" d="M34.869,26.349c-1.36-0.564-1.782-2.677-0.908-4.88C34.077,23.302,35.385,24.602,34.869,26.349z"/>
	<g>
		<g>
			<path d="M5.375,10.481c-0.116,0.004-0.077-0.288-0.202-0.288c-0.121-0.009-0.25,0.396-0.37,0.392
				c-0.125-0.004-0.237-0.383-0.357-0.383c-0.121,0-0.246,0.121-0.366,0.129c-0.12,0.008-0.207,0.215-0.327,0.237
				c-0.121,0.03-0.319-0.198-0.422-0.151c-0.121,0.056-0.215,0.095-0.31,0.125c-0.129,0.034-0.207,0.207-0.31,0.207
				c-0.134,0.004-0.164-0.228-0.267-0.275c-0.107-0.047-0.28,0.056-0.361-0.035c-0.069-0.086,0.064-0.28,0.008-0.392
				C2.048,9.947,1.704,9.96,1.661,9.844C1.623,9.724,1.558,9.59,1.532,9.479c-0.021-0.129,0.25-0.28,0.25-0.396
				c0-0.129-0.31-0.297-0.28-0.409c0.026-0.125,0.439-0.099,0.495-0.202c0.061-0.107,0.056-0.198,0.151-0.275
				c0.09-0.086,0.133-0.172,0.254-0.224c0.103-0.052,0.181-0.189,0.31-0.215c0.112-0.017,0.224-0.06,0.344-0.078
				c0.116-0.021,0.232-0.03,0.349-0.043C3.521,7.624,3.658,7.838,3.778,7.83c0.112-0.013,0.207-0.297,0.319-0.306
				c0.12-0.013,0.25,0.099,0.366,0.09c0.116-0.013,0.228-0.086,0.349-0.099c0.112-0.008,0.245,0.125,0.361,0.116
				c0.116-0.013,0.241,0.039,0.362,0.026C5.646,7.645,5.758,7.533,5.87,7.52c0.121-0.013,0.207-0.245,0.318-0.262
				C6.309,7.24,6.464,7.507,6.584,7.49c0.112-0.018,0.189-0.224,0.301-0.254c0.112-0.026,0.207-0.121,0.31-0.151
				c0.112-0.034,0.224-0.043,0.335-0.078c0.104-0.034,0.215-0.06,0.327-0.095C7.962,6.883,8.065,6.81,8.177,6.78
				c0.112-0.03,0.267,0.133,0.379,0.112c0.112-0.03,0.189-0.228,0.301-0.245c0.112-0.021,0.232-0.112,0.344-0.112
				C9.313,6.526,9.438,6.672,9.55,6.677c0.112,0,0.215,0.176,0.327,0.176c0.112,0.009,0.245-0.271,0.357-0.263
				c0.112,0.009,0.189,0.375,0.301,0.383c0.112,0.017,0.262-0.336,0.374-0.327c0.112,0.017,0.211,0.112,0.323,0.129
				c0.112,0.013,0.241-0.112,0.353-0.099c0.112,0.013,0.198,0.262,0.31,0.271s0.224-0.039,0.335-0.035
				c0.112,0.004,0.228-0.146,0.34-0.146c0.112,0,0.219,0.069,0.331,0.064s0.241,0.237,0.353,0.228
				c0.112-0.008,0.215-0.112,0.327-0.129c0.112-0.013,0.241,0.077,0.353,0.064c0.112-0.013,0.224-0.03,0.335-0.047
				c0.112-0.013,0.185-0.327,0.297-0.344c0.112-0.013,0.237,0.069,0.349,0.052c0.112-0.009,0.224,0.039,0.336,0.03
				c0.121-0.008,0.232-0.064,0.344-0.073c0.116-0.013,0.232,0.018,0.349,0c0.116-0.013,0.207-0.232,0.323-0.245
				c0.121-0.013,0.271,0.327,0.383,0.314c0.116-0.018,0.203-0.327,0.314-0.345c0.116-0.008,0.232-0.017,0.353-0.03
				c0.112-0.009,0.254,0.271,0.366,0.262c0.116-0.008,0.232,0.047,0.349,0.039c0.12-0.004,0.224-0.31,0.335-0.314
				c0.121-0.004,0.232,0.146,0.353,0.146c0.116,0,0.232-0.017,0.344-0.017c0.112,0.008,0.241-0.207,0.353-0.198
				c0.112,0.009,0.207,0.207,0.318,0.224c0.112,0.008,0.215,0.086,0.318,0.103c0.112,0.009,0.237-0.078,0.344-0.069
				c0.112,0.013,0.198,0.292,0.306,0.306c0.112,0.008,0.228,0.026,0.336,0.034c0.112,0.004,0.236-0.301,0.349-0.301
				c0.112,0,0.224,0.263,0.335,0.254c0.112,0,0.207-0.284,0.31-0.297c0.112-0.013,0.215-0.013,0.327-0.039
				c0.103-0.021,0.236,0.069,0.349,0.039c0.112-0.03,0.224-0.064,0.34-0.095c0.112-0.03,0.241,0.056,0.361,0.03
				c0.112-0.021,0.189-0.219,0.31-0.237c0.116-0.017,0.245,0.129,0.361,0.121c0.121-0.009,0.224-0.15,0.336-0.15
				c0.12,0,0.224,0.133,0.344,0.142c0.116,0.009,0.215,0.056,0.327,0.073c0.112,0.018,0.292-0.28,0.409-0.25
				c0.112,0.026,0.151,0.301,0.263,0.344c0.103,0.039,0.146,0.198,0.25,0.25c0.103,0.052,0.34-0.146,0.443-0.082
				c0.095,0.06,0.185,0.15,0.28,0.219c0.077,0.065,0.198-0.047,0.31-0.021c0.104,0.021,0.159,0.414,0.275,0.414
				c0.104,0.004,0.232-0.121,0.344-0.134c0.104-0.008,0.198-0.176,0.301-0.193c0.113-0.021,0.215-0.021,0.328-0.047
				c0.104-0.03,0.301,0.198,0.404,0.167c0.104-0.034,0.121-0.335,0.216-0.374c0.103-0.052,0.283,0.086,0.391,0.043
				c0.116-0.043,0.151-0.267,0.263-0.306c0.112-0.039,0.216-0.112,0.327-0.142c0.112-0.026,0.293,0.241,0.409,0.215
				s0.215-0.026,0.331-0.035c0.116-0.017,0.207-0.275,0.318-0.284c0.116,0,0.22,0.254,0.336,0.262
				c0.12,0.009,0.267-0.327,0.383-0.31c0.112,0.021,0.254-0.004,0.366,0.03c0.111,0.026,0.15,0.301,0.263,0.344
				c0.107,0.035,0.288-0.103,0.399-0.06c0.104,0.043,0.198,0.129,0.311,0.181c0.095,0.052,0.163,0.164,0.275,0.202
				c0.104,0.035,0.258-0.125,0.37-0.099c0.107,0.026,0.198,0.069,0.31,0.086c0.107,0.017,0.211,0.017,0.323,0.03
				c0.111,0.008,0.206,0.245,0.318,0.245c0.111,0.009,0.224-0.133,0.34-0.138c0.112-0.004,0.232,0.202,0.345,0.194
				c0.111-0.009,0.228-0.056,0.34-0.073c0.111-0.013,0.197-0.189,0.31-0.211c0.112-0.017,0.229,0.013,0.336-0.017
				c0.116-0.026,0.263,0.064,0.374,0.039c0.112-0.026,0.229-0.047,0.345-0.078c0.116-0.025,0.215-0.112,0.327-0.138
				c0.116-0.026,0.232-0.043,0.344-0.06c0.121-0.026,0.232-0.06,0.345-0.078c0.12-0.013,0.236-0.043,0.353-0.051
				c0.116,0,0.241-0.073,0.361-0.069c0.112,0.008,0.225,0.138,0.336,0.163c0.112,0.018,0.224,0.039,0.34,0.073
				c0.107,0.039,0.207,0.095,0.314,0.142c0.104,0.052,0.12,0.232,0.229,0.293c0.094,0.06,0.322-0.069,0.417,0.008
				c0.091,0.064,0.138,0.258,0.258,0.301c0.112,0.035,0.25,0.082,0.379,0.099c0.112,0.013,0.25-0.151,0.375-0.151
				c0.116,0,0.254,0.254,0.383,0.246c0.12-0.009,0.189-0.413,0.31-0.435c0.121-0.018,0.318,0.31,0.431,0.275
				c0.125-0.026,0.254-0.073,0.366-0.112c0.124-0.043,0.094-0.43,0.197-0.482c0.116-0.051,0.194-0.099,0.284-0.164
				c0.099-0.069,0.263-0.129,0.383-0.181c0.112-0.047,0.302,0.039,0.422,0.017c0.134-0.025,0.245,0.224,0.366,0.237
				c0.111,0.013,0.279-0.392,0.392-0.375c0.111,0.009,0.215,0.095,0.327,0.112c0.111,0.008,0.232-0.047,0.344-0.03
				c0.112,0.013,0.225,0.039,0.336,0.056c0.112,0.013,0.181,0.349,0.293,0.37c0.111,0.009,0.271-0.301,0.383-0.284
				c0.112,0.017,0.207,0.181,0.318,0.198c0.112,0.009,0.245-0.112,0.357-0.095c0.111,0.009,0.206,0.146,0.318,0.159
				c0.112,0.013,0.241-0.073,0.353-0.056c0.112,0.008,0.189,0.357,0.302,0.37c0.111,0.013,0.22,0.09,0.331,0.099
				c0.112,0.013,0.237-0.104,0.349-0.095c0.112,0.008,0.216,0.15,0.327,0.159c0.112,0.008,0.254-0.289,0.366-0.284
				c0.111,0.009,0.228-0.035,0.34-0.026c0.111,0.004,0.215,0.258,0.327,0.267c0.111,0.008,0.224,0.12,0.336,0.12
				c0.111,0.009,0.232-0.133,0.349-0.133c0.111,0,0.224-0.193,0.34-0.193c0.111,0,0.224,0.025,0.335,0.025
				c0.112-0.008,0.232,0.151,0.345,0.142c0.138-0.008,0.271-0.193,0.383-0.181c0.134,0.021,0.173,0.301,0.275,0.349
				c0.116,0.056,0.245,0.026,0.327,0.112c0.073,0.095,0.237,0.142,0.288,0.258c0.044,0.107-0.193,0.289-0.172,0.417
				c0.026,0.112,0.25,0.198,0.259,0.327c0.008,0.116,0.163,0.245,0.159,0.379c-0.005,0.138-0.168,0.262-0.194,0.374
				c-0.029,0.129-0.172,0.198-0.228,0.297c-0.064,0.116-0.177,0.095-0.28,0.168c-0.095,0.069-0.138,0.116-0.267,0.146
				c-0.111,0.026-0.202,0.417-0.336,0.417c-0.12,0-0.224-0.362-0.356-0.383c-0.125-0.017-0.254-0.077-0.357-0.082
				c-0.129-0.004-0.259,0.168-0.361,0.185c-0.125,0.026-0.254,0.064-0.336,0.142c-0.077,0.073-0.1,0.207-0.129,0.332
				c-0.026,0.099-0.146,0.215-0.138,0.353c0,0.104-0.018,0.237,0,0.366c0.017,0.116,0.176,0.211,0.189,0.323
				c0.017,0.116,0.224,0.215,0.232,0.335c0.008,0.112-0.327,0.258-0.319,0.375c0.009,0.116,0.284,0.219,0.284,0.335
				c0.009,0.116-0.06,0.237-0.06,0.357c0,0.112-0.25,0.224-0.25,0.344c-0.009,0.116,0.155,0.237,0.146,0.353
				c-0.009,0.121-0.146,0.224-0.155,0.344c-0.009,0.112-0.052,0.224-0.061,0.34c-0.008,0.116,0.087,0.241,0.069,0.353
				c-0.013,0.116,0.061,0.245,0.043,0.357c-0.018,0.112-0.025,0.232-0.043,0.344c-0.018,0.116,0.146,0.258,0.129,0.378
				c-0.017,0.112-0.159,0.207-0.177,0.327c-0.021,0.116-0.021,0.232-0.038,0.349c-0.026,0.116-0.302,0.177-0.318,0.297
				c-0.026,0.112,0.318,0.301,0.301,0.413c-0.025,0.112-0.267,0.181-0.293,0.301c-0.017,0.112,0.018,0.241-0.008,0.353
				c-0.021,0.112-0.078,0.22-0.104,0.336c-0.021,0.112-0.232,0.189-0.254,0.305c-0.021,0.116,0.271,0.293,0.245,0.409
				c-0.021,0.112-0.388,0.164-0.413,0.275c-0.021,0.112-0.009,0.237-0.03,0.349s-0.082,0.228-0.095,0.34s0.211,0.254,0.207,0.362
				c-0.009,0.112-0.25,0.219-0.25,0.331s0.25,0.224,0.254,0.34c0.005,0.112-0.095,0.232-0.086,0.344
				c0.009,0.112,0.241,0.198,0.263,0.31c0.013,0.112-0.332,0.275-0.314,0.388c0.018,0.112,0.443,0.146,0.465,0.258
				c0.026,0.108-0.349,0.301-0.327,0.414c0.026,0.107,0.129,0.198,0.155,0.31c0.03,0.104,0.189,0.189,0.215,0.301
				c0.026,0.112,0.116,0.207,0.143,0.318c0.029,0.112,0.004,0.241,0.029,0.353c0.026,0.112,0.225,0.194,0.241,0.306
				c0.026,0.112-0.111,0.263-0.086,0.375c0.021,0.112,0.146,0.207,0.164,0.318c0.017,0.112-0.271,0.28-0.254,0.396
				c0.017,0.112,0.271,0.189,0.288,0.301c0.017,0.112-0.112,0.25-0.1,0.366c0.014,0.116,0.194,0.211,0.207,0.323
				s0.107,0.224,0.116,0.336c0.009,0.112-0.293,0.258-0.279,0.378c0.013,0.116,0.34,0.198,0.349,0.319
				c0.008,0.116-0.121,0.241-0.112,0.357s-0.104,0.237-0.095,0.357c0.009,0.112,0.056,0.228,0.061,0.344
				c0.004,0.116,0.181,0.224,0.185,0.336c0.005,0.116-0.198,0.24-0.193,0.353c0.004,0.12,0.043,0.232,0.043,0.349
				c0.009,0.116-0.12,0.229-0.12,0.345s0.154,0.228,0.154,0.349c0,0.111,0.034,0.231,0.03,0.344
				c-0.004,0.116-0.116,0.229-0.116,0.34c-0.004,0.116,0.189,0.237,0.186,0.357c-0.005,0.112,0.017,0.232,0.013,0.345
				c-0.005,0.116,0.004,0.232,0,0.344c-0.005,0.116-0.034,0.232-0.043,0.345c-0.009,0.12,0.03,0.232,0.025,0.353
				c-0.009,0.116-0.288,0.215-0.293,0.331c-0.004,0.116,0.276,0.246,0.268,0.357c0,0.121-0.34,0.216-0.345,0.336
				c-0.004,0.112,0.168,0.236,0.164,0.353c-0.009,0.116,0.029,0.229,0.029,0.345c0,0.12-0.279,0.232-0.279,0.344
				c0,0.121,0.073,0.237,0.073,0.354S50.5,35.103,50.5,35.223c0,0.121,0,0.254,0.018,0.37c0.008,0.121,0.396,0.194,0.413,0.314
				c0.017,0.116-0.168,0.271-0.146,0.383c0.025,0.121-0.086,0.267-0.061,0.383c0.03,0.116,0.349,0.173,0.375,0.289
				c0.029,0.116-0.014,0.249,0.008,0.37c0.03,0.111-0.064,0.258-0.043,0.374s0.289,0.193,0.306,0.31
				c0.021,0.116-0.12,0.263-0.111,0.384c0.017,0.12-0.112,0.245-0.104,0.37c0.013,0.12,0.271,0.232,0.267,0.353
				c-0.004,0.112-0.349,0.22-0.353,0.331c-0.005,0.112,0.301,0.241,0.292,0.354c0,0.116-0.279,0.219-0.283,0.331
				c-0.005,0.112,0.172,0.232,0.163,0.353c-0.009,0.112,0.095,0.237,0.082,0.349c-0.009,0.112-0.186,0.216-0.194,0.332
				c-0.008,0.111,0.232,0.249,0.225,0.361c-0.009,0.112-0.461,0.181-0.47,0.301c-0.013,0.112,0.237,0.25,0.224,0.366
				c-0.013,0.116-0.081,0.22-0.099,0.34c-0.013,0.112,0.12,0.241,0.104,0.357c-0.013,0.112-0.349,0.185-0.361,0.306
				c-0.018,0.111,0.181,0.249,0.172,0.361c-0.018,0.112,0,0.232-0.018,0.345c-0.013,0.111,0.164,0.249,0.146,0.365
				c-0.009,0.112-0.284,0.198-0.293,0.311c-0.017,0.111,0.116,0.245,0.104,0.356c-0.017,0.112-0.241,0.198-0.249,0.318
				c-0.018,0.112,0.077,0.237,0.068,0.354c-0.009,0.09-0.104,0.146-0.138,0.228c-0.034,0.082,0.104,0.225,0.077,0.311
				c-0.034,0.107-0.374,0.15-0.396,0.271c-0.026,0.121,0.25,0.293,0.229,0.413c-0.022,0.125,0.038,0.259,0.013,0.375
				c-0.026,0.125-0.232,0.202-0.268,0.314c-0.034,0.129-0.154,0.193-0.206,0.292c-0.061,0.116,0.052,0.431-0.048,0.482
				c-0.103,0.06-0.279,0.017-0.392,0.068c-0.103,0.043-0.188,0.202-0.31,0.241c-0.111,0.034-0.249,0.048-0.365,0.077
				c-0.116,0.026-0.284-0.197-0.405-0.181c-0.116,0.021-0.236-0.008-0.357,0.009c-0.12,0.013-0.224,0.181-0.348,0.189
				c-0.121,0.009-0.25-0.241-0.366-0.232c-0.12,0-0.241,0.026-0.357,0.026s-0.236,0.326-0.353,0.326S46.454,48.9,46.334,48.9
				c-0.112,0-0.232-0.271-0.353-0.271c-0.116,0-0.237,0.177-0.362,0.177c-0.12,0-0.232,0.068-0.353,0.068
				c-0.116-0.004-0.236,0-0.353,0c-0.121,0-0.241-0.025-0.354-0.025c-0.12-0.005-0.232-0.31-0.349-0.314
				c-0.116-0.004-0.24,0.138-0.356,0.138c-0.121-0.004-0.232-0.193-0.354-0.202c-0.116,0-0.245,0.336-0.365,0.336
				c-0.125-0.009-0.237-0.018-0.357-0.018c-0.112-0.009-0.237-0.009-0.354-0.013s-0.228-0.193-0.353-0.193
				c-0.112,0-0.241,0.172-0.357,0.168c-0.116-0.005-0.232-0.039-0.353-0.039c-0.125-0.009-0.237,0-0.357-0.009
				c-0.112,0-0.224-0.349-0.344-0.353c-0.121-0.005-0.241,0.146-0.362,0.146c-0.111-0.009-0.232,0.129-0.356,0.12
				c-0.116,0-0.229-0.138-0.345-0.146c-0.116,0-0.236,0.186-0.357,0.181c-0.111-0.004-0.224-0.189-0.344-0.193
				c-0.116-0.005-0.237,0.189-0.354,0.185c-0.12-0.004-0.232-0.129-0.344-0.129c-0.121,0-0.232-0.185-0.349-0.189
				c-0.116-0.004-0.237,0.284-0.354,0.284c-0.116-0.009-0.228-0.301-0.349-0.31c-0.111,0-0.232,0.043-0.349,0.038
				c-0.116-0.004-0.236,0.125-0.356,0.121c-0.112-0.005-0.232-0.064-0.345-0.064c-0.12-0.009-0.241,0.197-0.357,0.189
				c-0.116,0-0.236-0.009-0.349-0.009c-0.12-0.005-0.232-0.121-0.344-0.125c-0.121-0.004-0.237-0.056-0.354-0.056
				s-0.232-0.095-0.353-0.095c-0.112,0-0.232,0.263-0.353,0.263c-0.116-0.005-0.225-0.392-0.341-0.392s-0.236,0.12-0.356,0.12
				c-0.112,0-0.237,0.146-0.354,0.146s-0.228-0.186-0.344-0.189c-0.121-0.005-0.232-0.116-0.354-0.116
				c-0.111-0.005-0.24,0.413-0.356,0.413c-0.116-0.004-0.229-0.271-0.349-0.271c-0.112-0.008-0.232,0.164-0.354,0.159
				c-0.116-0.004-0.236,0.1-0.353,0.1c-0.116-0.005-0.232-0.28-0.345-0.284c-0.12-0.005-0.232,0.043-0.353,0.043
				c-0.116,0-0.229-0.168-0.345-0.172c-0.116-0.005-0.24,0.313-0.361,0.313c-0.111-0.004-0.232-0.099-0.349-0.099
				c-0.116-0.004-0.228-0.163-0.344-0.163c-0.116-0.009-0.237,0.146-0.357,0.146c-0.112-0.008-0.232-0.095-0.349-0.099
				s-0.237,0.186-0.357,0.177c-0.112,0-0.224,0.043-0.335,0.038c-0.112-0.004-0.224-0.404-0.336-0.404
				c-0.112-0.004-0.228,0.021-0.34,0.021c-0.112-0.004-0.237,0.275-0.349,0.271c-0.112-0.005-0.224,0.056-0.336,0.056
				c-0.116,0-0.224-0.254-0.34-0.258c-0.112-0.005-0.228,0.099-0.344,0.099c-0.116-0.004-0.228,0.021-0.34,0.018
				c-0.112-0.005-0.224-0.048-0.344-0.048c-0.112-0.009-0.229,0.052-0.34,0.052c-0.112-0.004-0.224-0.198-0.34-0.198
				c-0.112-0.004-0.224,0.082-0.336,0.078c-0.112-0.005-0.236,0.181-0.349,0.172c-0.112,0-0.224-0.215-0.335-0.215
				s-0.224-0.112-0.34-0.112c-0.112,0-0.232,0.302-0.344,0.302c-0.112,0-0.232,0-0.345,0c-0.112,0-0.224-0.263-0.335-0.263
				s-0.232,0.322-0.344,0.322s-0.224-0.052-0.344-0.052c-0.116,0-0.228,0.052-0.34,0.052c-0.112,0-0.224-0.12-0.34-0.12
				c-0.112,0-0.232-0.168-0.344-0.172c-0.112-0.005-0.224,0.017-0.34,0.017c-0.112,0-0.229-0.104-0.34-0.104
				s-0.224,0.225-0.344,0.225c-0.112,0.008-0.232-0.146-0.344-0.138c-0.112,0.004-0.224,0.09-0.335,0.099
				c-0.112,0.009-0.224,0.018-0.34,0.03c-0.112,0.009-0.211,0.172-0.323,0.181c-0.112,0.013-0.241-0.104-0.353-0.095
				c-0.112,0.018-0.245-0.172-0.357-0.155c-0.112,0.013-0.224,0.039-0.34,0.048c-0.112,0.009-0.215,0.111-0.327,0.125
				c-0.112,0.008-0.198,0.275-0.31,0.288s-0.245-0.159-0.357-0.15c-0.103,0.013-0.215,0.025-0.323,0.025
				c-0.112,0-0.224,0.021-0.318-0.013c-0.107-0.048-0.181-0.186-0.284-0.22c-0.112-0.034-0.228-0.064-0.34-0.104
				c-0.112-0.025-0.237-0.017-0.349-0.043c-0.112-0.025-0.215-0.095-0.327-0.125c-0.112-0.021-0.275,0.254-0.387,0.237
				c-0.112-0.018-0.181-0.361-0.292-0.375c-0.112-0.013-0.237,0.057-0.353,0.048c-0.112-0.009-0.232,0.017-0.344,0.009
				c-0.116-0.005-0.232,0.017-0.349,0.008c-0.112,0-0.228-0.077-0.34-0.077c-0.121,0-0.232,0.168-0.345,0.168
				c-0.112,0-0.224,0.021-0.34,0.021c-0.116,0.009-0.232-0.181-0.349-0.177c-0.121,0.005-0.232-0.081-0.344-0.077
				c-0.121,0.004-0.232,0.009-0.349,0.013c-0.116,0.005-0.224,0.082-0.34,0.086c-0.116,0.005-0.22,0.25-0.336,0.25
				c-0.12,0.009-0.232-0.095-0.344-0.086c-0.121,0-0.232,0.129-0.344,0.133c-0.116,0-0.232-0.313-0.344-0.313
				c-0.121,0-0.232,0.107-0.344,0.104c-0.121-0.005-0.224-0.052-0.344-0.065c-0.112-0.004-0.228,0.014-0.34,0
				c-0.112-0.008-0.211-0.15-0.327-0.167c-0.116-0.009-0.263,0.206-0.383,0.197c-0.116-0.009-0.241,0.048-0.361,0.039
				c-0.121-0.009-0.232-0.048-0.353-0.056c-0.121-0.009-0.245,0.034-0.361,0.025c-0.121-0.018-0.203-0.301-0.319-0.318
				c-0.12-0.018-0.25,0.052-0.361,0.025c-0.095-0.025-0.318,0.061-0.422-0.034c-0.077-0.077-0.198-0.198-0.258-0.301
				c-0.069-0.112-0.064-0.302-0.073-0.405c-0.013-0.111,0.151-0.249,0.142-0.361c-0.017-0.116-0.086-0.224-0.095-0.34
				c-0.017-0.116,0.021-0.236,0.009-0.349c-0.017-0.12-0.207-0.215-0.215-0.327c-0.017-0.12,0-0.236-0.017-0.353
				c-0.009-0.116,0.198-0.25,0.181-0.37c-0.013-0.112-0.133-0.216-0.142-0.336c-0.013-0.116-0.262-0.207-0.28-0.323
				c-0.013-0.116,0.267-0.258,0.25-0.374c-0.009-0.12,0.047-0.241,0.039-0.357s-0.263-0.206-0.271-0.322
				c-0.013-0.116,0.077-0.241,0.064-0.354c-0.009-0.12,0.095-0.24,0.082-0.361c-0.008-0.116-0.112-0.224-0.12-0.336
				c-0.009-0.116,0.15-0.249,0.142-0.361c-0.009-0.111-0.056-0.224-0.065-0.344c-0.008-0.116,0.035-0.232,0.026-0.349
				c-0.008-0.116-0.207-0.216-0.207-0.332c-0.009-0.12,0.151-0.24,0.142-0.361c-0.009-0.116-0.039-0.228-0.047-0.344
				s-0.112-0.225-0.121-0.345c-0.013-0.112,0.056-0.232,0.052-0.344c-0.009-0.121-0.185-0.225-0.194-0.341
				c-0.008-0.116,0.021-0.232,0.018-0.349C3.099,38.382,3.004,38.27,3,38.158c-0.004-0.112,0.021-0.232,0.021-0.349
				c-0.008-0.116,0.017-0.232,0.009-0.349c0-0.121-0.086-0.232-0.086-0.345c-0.008-0.12,0-0.236,0-0.353s-0.155-0.229-0.159-0.345
				c-0.004-0.12,0.357-0.24,0.349-0.361c0-0.116-0.34-0.224-0.34-0.34c-0.004-0.116,0.202-0.236,0.202-0.357
				c0-0.111-0.181-0.224-0.181-0.344c0-0.116,0.155-0.232,0.155-0.349s0.224-0.232,0.224-0.349c0-0.121-0.435-0.232-0.435-0.345
				c0-0.12,0.392-0.232,0.4-0.349c0-0.116-0.4-0.232-0.4-0.349c0-0.12,0.383-0.232,0.383-0.344c0-0.112-0.292-0.237-0.292-0.354
				c0.008-0.116,0.361-0.224,0.366-0.344c0.004-0.112-0.4-0.241-0.392-0.354c0-0.12,0.383-0.224,0.387-0.34
				s-0.284-0.245-0.275-0.357c0-0.12,0.292-0.215,0.301-0.335c0.008-0.112,0.052-0.225,0.064-0.34
				c0.013-0.116-0.327-0.271-0.314-0.384c0.013-0.12,0.232-0.206,0.25-0.318c0.017-0.12-0.095-0.249-0.078-0.365
				c0.021-0.116,0.078-0.225,0.095-0.341c0.021-0.111,0.047-0.224,0.069-0.335c0.026-0.112-0.107-0.254-0.086-0.37
				c0.017-0.116,0.129-0.216,0.146-0.327C3.4,27.95,3.339,27.83,3.348,27.718c0.017-0.121,0.017-0.237,0.026-0.349
				c0.017-0.116,0.207-0.207,0.224-0.323c0.013-0.112-0.185-0.232-0.181-0.344c0.004-0.112,0.207-0.215,0.207-0.327
				s0.026-0.224,0.017-0.34c-0.004-0.112-0.107-0.219-0.112-0.331s0.009-0.224,0.009-0.336s-0.155-0.224-0.155-0.335
				c0-0.104,0.348-0.194,0.353-0.297c0.009-0.116-0.155-0.254-0.099-0.332c0.073-0.086,0.245-0.104,0.31-0.189
				c0.069-0.095-0.073-0.327-0.013-0.417c0.06-0.099,0.077-0.207,0.129-0.306c0.052-0.103,0.129-0.176,0.177-0.28
				c0.047-0.103,0.039-0.219,0.082-0.323c0.039-0.107,0.172-0.172,0.207-0.275c0.035-0.112-0.009-0.237,0.021-0.344
				s0.452-0.121,0.478-0.232c0.026-0.107-0.224-0.284-0.207-0.396c0.026-0.112,0.056-0.219,0.078-0.331
				c0.026-0.112,0.073-0.215,0.095-0.327c0.017-0.112-0.107-0.246-0.086-0.357c0.017-0.112,0.31-0.181,0.327-0.292
				c0.017-0.112,0.12-0.207,0.142-0.318c0.022-0.112-0.198-0.267-0.176-0.379c0.026-0.116,0.138-0.215,0.155-0.327
				c0.018-0.121-0.129-0.258-0.112-0.375s0.267-0.202,0.284-0.318c0.009-0.116-0.138-0.25-0.125-0.366
				c0.013-0.121-0.082-0.241-0.073-0.357c0.009-0.116,0.151-0.224,0.155-0.34s0.112-0.228,0.116-0.344
				c0.004-0.121-0.159-0.241-0.159-0.357c0.008-0.116-0.043-0.232-0.043-0.349s0.279-0.232,0.279-0.353
				c0-0.112-0.34-0.232-0.349-0.348c0-0.116,0.396-0.237,0.396-0.353s-0.112-0.237-0.116-0.349c0-0.121,0.009-0.237,0.004-0.353
				c0-0.116-0.06-0.232-0.06-0.353c0-0.112-0.146-0.232-0.146-0.344c0-0.121,0.099-0.237,0.099-0.353s-0.142-0.232-0.142-0.353
				c0-0.112,0.078-0.232,0.078-0.349c0.008-0.116,0.15-0.228,0.155-0.344s-0.107-0.237-0.104-0.357
				c0.004-0.112,0.018-0.232,0.021-0.349c0.013-0.116,0.254-0.215,0.263-0.332c0.009-0.116-0.099-0.241-0.09-0.361
				c0.013-0.112,0.082-0.224,0.099-0.335C5.78,10.795,5.44,10.774,5.375,10.481z M28.129,9.487L28.134,9.1
				c-0.116,0-0.237,0.409-0.357,0.409c-0.121,0-0.241-0.378-0.357-0.378s-0.237,0.125-0.353,0.125s-0.236,0.189-0.357,0.189
				c-0.112,0-0.237-0.275-0.353-0.275s-0.241,0.009-0.353,0.009c-0.121,0-0.241,0.15-0.357,0.15s-0.237-0.224-0.353-0.224
				s-0.237,0.198-0.357,0.198c-0.112,0-0.236-0.215-0.353-0.215s-0.241,0.327-0.353,0.327c-0.121,0-0.241,0.039-0.357,0.039
				s-0.236-0.284-0.353-0.284s-0.237,0.318-0.349,0.318c-0.121,0-0.237-0.396-0.353-0.396s-0.232,0.061-0.353,0.061
				c-0.112,0-0.232,0.047-0.344,0.047c-0.121,0-0.237,0.121-0.353,0.121s-0.232,0.03-0.353,0.03c-0.112,0-0.232-0.008-0.344-0.008
				c-0.12,0-0.236-0.232-0.353-0.232s-0.232,0.267-0.353,0.267c-0.112,0-0.232-0.121-0.349-0.121s-0.232,0.065-0.349,0.065
				s-0.232-0.151-0.353-0.151c-0.112,0-0.232-0.06-0.349-0.06s-0.232,0.099-0.349,0.099c-0.12,0-0.232,0.215-0.353,0.215
				c-0.112,0-0.232-0.28-0.349-0.28s-0.232,0.185-0.349,0.185c-0.121,0-0.232,0.073-0.353,0.073c-0.116,0-0.232-0.026-0.349-0.026
				s-0.232-0.009-0.349-0.009c-0.121,0-0.232,0.043-0.353,0.043c-0.116,0-0.232-0.203-0.349-0.203s-0.236,0.185-0.349,0.185
				c-0.12,0-0.232,0.078-0.353,0.078c-0.116,0-0.232-0.15-0.349-0.15s-0.237-0.168-0.349-0.168c-0.121,0-0.237,0.284-0.349,0.284
				c-0.116,0-0.232-0.353-0.349-0.353c-0.121,0-0.232,0.37-0.344,0.37c-0.121,0-0.232-0.086-0.353-0.086
				c-0.116,0-0.232,0.138-0.344,0.138c-0.121,0-0.232-0.241-0.353-0.241c-0.112,0-0.232,0.056-0.349,0.056s-0.232,0.15-0.344,0.15
				c-0.116,0-0.237-0.064-0.349-0.064c-0.121,0-0.237-0.254-0.353-0.254s-0.232,0.103-0.344,0.103s-0.232-0.103-0.353-0.103
				c-0.112,0-0.232,0-0.349,0s-0.229,0.31-0.349,0.31c-0.112,0-0.232-0.095-0.344-0.095c-0.121,0-0.237-0.06-0.353-0.06
				S8.607,9.349,8.496,9.349c-0.112,0-0.241-0.021-0.37,0.009C8.005,9.375,7.953,9.612,7.833,9.65
				C7.708,9.693,7.454,9.422,7.355,9.479c-0.133,0.077,0.004,0.335-0.03,0.43c-0.039,0.116-0.077,0.228-0.112,0.34
				c-0.043,0.112-0.353,0.142-0.387,0.254c-0.035,0.121-0.129,0.215-0.168,0.336c-0.03,0.112,0.228,0.31,0.198,0.422
				c-0.03,0.12-0.202,0.207-0.224,0.318c-0.03,0.121-0.03,0.245-0.047,0.361c-0.021,0.121,0.185,0.271,0.168,0.388
				c-0.013,0.12-0.22,0.215-0.228,0.335c-0.009,0.121-0.082,0.241-0.086,0.361c-0.004,0.112,0.099,0.237,0.094,0.353
				c-0.004,0.116-0.279,0.228-0.279,0.344c0,0.121-0.013,0.232-0.013,0.353c0,0.112,0.31,0.237,0.31,0.353s-0.258,0.232-0.258,0.353
				c0,0.112,0.271,0.232,0.271,0.353c0,0.121-0.013,0.232-0.013,0.349s-0.116,0.237-0.116,0.349c0,0.121,0.004,0.232,0,0.353
				c0,0.116-0.116,0.232-0.116,0.349s0.172,0.237,0.172,0.357c-0.008,0.112-0.172,0.229-0.172,0.345
				c-0.004,0.116,0.121,0.236,0.116,0.353c-0.004,0.121-0.142,0.232-0.151,0.344c0,0.121-0.047,0.232-0.056,0.349
				c-0.004,0.116,0.31,0.254,0.305,0.375c-0.008,0.112-0.267,0.215-0.275,0.327c-0.008,0.121-0.146,0.224-0.155,0.34
				c-0.017,0.116,0.258,0.263,0.245,0.375c-0.013,0.121-0.056,0.232-0.064,0.349c-0.017,0.116,0.112,0.254,0.095,0.375
				c-0.017,0.112-0.413,0.168-0.43,0.28c-0.021,0.116,0.077,0.254,0.056,0.366c-0.021,0.116,0.099,0.258,0.073,0.37
				c-0.03,0.112-0.078,0.224-0.103,0.336c-0.03,0.112-0.327,0.155-0.362,0.271c-0.03,0.112,0.202,0.301,0.164,0.413
				c-0.034,0.112-0.25,0.168-0.284,0.271c-0.034,0.112,0.112,0.293,0.069,0.396c-0.039,0.112-0.043,0.232-0.086,0.344
				c-0.043,0.104-0.366,0.104-0.404,0.207c-0.043,0.104-0.095,0.207-0.129,0.31c-0.034,0.104,0.164,0.292,0.133,0.396
				c-0.039,0.103-0.31,0.129-0.348,0.241c-0.026,0.103,0.275,0.31,0.245,0.413c-0.03,0.112-0.009,0.228-0.039,0.335
				c-0.026,0.108-0.301,0.155-0.327,0.258c-0.03,0.112,0.142,0.263,0.121,0.37c-0.026,0.107-0.078,0.207-0.104,0.318
				c-0.017,0.108-0.121,0.203-0.138,0.31s0.168,0.245,0.146,0.361c-0.018,0.112-0.052,0.232-0.069,0.344
				c-0.018,0.121-0.021,0.241-0.043,0.357c-0.017,0.116-0.258,0.203-0.275,0.318c-0.017,0.116,0.104,0.254,0.09,0.374
				c-0.013,0.116-0.245,0.207-0.262,0.323s0.008,0.24-0.013,0.356c-0.017,0.121,0.134,0.259,0.116,0.375
				c-0.017,0.116-0.086,0.228-0.095,0.344c-0.017,0.116-0.155,0.22-0.167,0.34c-0.013,0.112-0.039,0.232-0.047,0.354
				c-0.013,0.116,0.034,0.241,0.026,0.357c-0.018,0.116-0.035,0.236-0.043,0.356c-0.008,0.116,0,0.237-0.008,0.354
				c-0.009,0.116,0,0.241-0.009,0.353c-0.008,0.121,0.052,0.245,0.052,0.361c-0.009,0.116-0.138,0.229-0.146,0.345
				c-0.008,0.12-0.004,0.241-0.013,0.353c-0.004,0.121-0.03,0.241-0.039,0.357c0,0.116-0.155,0.232-0.16,0.357
				c-0.004,0.111,0.229,0.232,0.229,0.349s-0.151,0.232-0.146,0.349s-0.009,0.232,0,0.353c0.004,0.112,0.189,0.216,0.198,0.336
				c0.009,0.116-0.241,0.25-0.232,0.366c0.009,0.116,0.414,0.193,0.422,0.31c0.009,0.116-0.335,0.271-0.318,0.387
				c0.009,0.116,0.034,0.229,0.047,0.345c0.013,0.116,0.4,0.186,0.413,0.297c0.013,0.116,0.026,0.229,0.047,0.345
				C4.2,37.22,4.192,37.332,4.2,37.443c0.017,0.121-0.103,0.25-0.086,0.366c0.013,0.116-0.232,0.263-0.215,0.374
				c0.009,0.112,0.443,0.181,0.457,0.302c0.013,0.111-0.043,0.236-0.035,0.353s0.095,0.229,0.104,0.345
				c0.008,0.111,0.008,0.224,0.017,0.344c0.008,0.112-0.306,0.25-0.301,0.361c0.008,0.116,0.34,0.207,0.353,0.323
				c0.008,0.116-0.138,0.236-0.134,0.357c0.004,0.111,0.151,0.215,0.159,0.336c0.009,0.115-0.112,0.236-0.103,0.348
				c0.009,0.112,0.121,0.229,0.125,0.341c0.004,0.111-0.323,0.245-0.314,0.361c0.004,0.116-0.056,0.232-0.043,0.344
				c0.009,0.112,0.138,0.225,0.138,0.336c0.009,0.121-0.112,0.232-0.112,0.353c0.008,0.116,0.318,0.216,0.327,0.332
				c0.004,0.116,0.06,0.228,0.06,0.34c0.009,0.12-0.241,0.241-0.237,0.353c0.004,0.121-0.103,0.237-0.099,0.349
				c0.004,0.116,0.146,0.225,0.146,0.34c0.009,0.121,0.198,0.225,0.207,0.345c0,0.112-0.026,0.224-0.026,0.345
				c0.009,0.116-0.15,0.232-0.15,0.344c0,0.129,0.202,0.224,0.215,0.327c0.017,0.129-0.211,0.306-0.172,0.4
				c0.047,0.116,0.22,0.189,0.292,0.263c0.073,0.077,0.229,0.043,0.34,0.086c0.099,0.034,0.164,0.327,0.288,0.345
				c0.104,0.008,0.246-0.207,0.366-0.207c0.12,0,0.236-0.159,0.353-0.163c0.116-0.005,0.237,0.146,0.353,0.146
				c0.121,0,0.232,0.104,0.353,0.104s0.237,0.104,0.353,0.095c0.116,0,0.232-0.03,0.353-0.03c0.112,0,0.232-0.383,0.349-0.383
				s0.232,0.357,0.353,0.357c0.116,0,0.237,0.047,0.349,0.047c0.121,0,0.237-0.159,0.353-0.159s0.232,0.018,0.349,0.018
				s0.236-0.048,0.349-0.048c0.12,0,0.236,0.112,0.353,0.112s0.232,0.034,0.353,0.034c0.112,0,0.232-0.138,0.344-0.138
				c0.121,0,0.241-0.193,0.357-0.193s0.237,0.344,0.349,0.344c0.12,0,0.241-0.271,0.357-0.262c0.116,0,0.232,0.064,0.349,0.068
				c0.121,0,0.232,0.25,0.353,0.25c0.112,0,0.237-0.155,0.353-0.146s0.219,0.155,0.335,0.163c0.121,0.014,0.232,0.061,0.353,0.069
				c0.112,0.009,0.245-0.086,0.366-0.069c0.116,0.009,0.246-0.068,0.357-0.064c0.121,0.005,0.241-0.004,0.357-0.013
				s0.198-0.207,0.314-0.224c0.116-0.026,0.241,0.068,0.353,0.034c0.112-0.034,0.198-0.095,0.306-0.155
				c0.104-0.056,0.34,0.104,0.443,0.03c0.064-0.047,0.129-0.383,0.25-0.357c0.104,0.018,0.172,0.268,0.267,0.284
				c0.121,0.026,0.25-0.017,0.366,0.009c0.116,0.018,0.228,0.078,0.344,0.104c0.116,0.018,0.198,0.232,0.323,0.254
				c0.121,0.021,0.293-0.271,0.413-0.245c0.121,0.017,0.172,0.387,0.289,0.413c0.116,0.017,0.245,0.009,0.366,0.025
				c0.112,0.026,0.224,0.086,0.349,0.104c0.112,0.021,0.263-0.198,0.383-0.185c0.112,0.013,0.207,0.262,0.327,0.262
				c0.116,0.009,0.241-0.236,0.357-0.236s0.228,0.116,0.349,0.112c0.112,0,0.215-0.232,0.335-0.237
				c0.116-0.004,0.25,0.354,0.366,0.345s0.198-0.427,0.31-0.439c0.116-0.009,0.271,0.379,0.383,0.37
				c0.116-0.009,0.219-0.104,0.335-0.111c0.116-0.018,0.215-0.159,0.327-0.173c0.121-0.017,0.224-0.086,0.335-0.095
				c0.121-0.013,0.232,0.026,0.353,0.018c0.116-0.009,0.22-0.189,0.332-0.202c0.116-0.009,0.245,0.15,0.357,0.142
				c0.112,0,0.232-0.111,0.345-0.111c0.116,0,0.224,0.31,0.34,0.318c0.116,0,0.241-0.232,0.357-0.224
				c0.112,0.009,0.215,0.168,0.327,0.181c0.112,0.013,0.254-0.129,0.366-0.107c0.112,0.021,0.254-0.03,0.366-0.005
				c0.112,0.026,0.133,0.361,0.245,0.4c0.107,0.034,0.327-0.228,0.435-0.181c0.035,0.013,0,0.125,0.035,0.125
				c0.121,0,0.232,0.129,0.344,0.129c0.121,0,0.237-0.043,0.349-0.039c0.116,0,0.232-0.168,0.349-0.159
				c0.121,0,0.232,0.207,0.344,0.207c0.112,0,0.232-0.026,0.345-0.026c0.116,0,0.228,0.13,0.344,0.138
				c0.121,0,0.232-0.154,0.354-0.146c0.111,0,0.231-0.035,0.344-0.035c0.116,0,0.229,0.112,0.345,0.116
				c0.12,0,0.232-0.193,0.353-0.185c0.112,0,0.232-0.026,0.345-0.026c0.116,0,0.232-0.008,0.344-0.008
				c0.121,0,0.232,0.034,0.345,0.034c0.12,0,0.236-0.043,0.349-0.043c0.116,0,0.224,0.275,0.34,0.284
				c0.116,0,0.241-0.284,0.353-0.28c0.112,0,0.224,0.331,0.336,0.336c0.12,0,0.236-0.168,0.353-0.168s0.232-0.034,0.345-0.034
				c0.12,0,0.224,0.279,0.344,0.279c0.116,0,0.232-0.064,0.345-0.064c0.116,0,0.229,0.082,0.345,0.082
				c0.12,0,0.232,0.013,0.344,0.013c0.121,0,0.241-0.37,0.357-0.37s0.228,0.215,0.34,0.22c0.12,0,0.232,0.133,0.345,0.138
				c0.12,0,0.24-0.297,0.353-0.297c0.116,0,0.229,0.073,0.345,0.077c0.12,0,0.232,0.12,0.344,0.125
				c0.121,0.004,0.237-0.245,0.354-0.241c0.116,0,0.228,0.168,0.344,0.168c0.12,0,0.232,0.142,0.345,0.142
				c0.12,0,0.236-0.254,0.353-0.254s0.224,0.349,0.34,0.349s0.237-0.306,0.349-0.306c0.121,0,0.232,0.276,0.345,0.276
				c0.116,0,0.232-0.177,0.349-0.177s0.236-0.104,0.349-0.104c0.12,0,0.232,0.168,0.349,0.168s0.232-0.25,0.349-0.25
				c0.12,0,0.224,0.448,0.344,0.448c0.112,0,0.232-0.259,0.349-0.254c0.116,0,0.229,0.064,0.345,0.064
				c0.116,0.009,0.236-0.138,0.349-0.138c0.12,0,0.224,0.335,0.344,0.335c0.116,0,0.237-0.224,0.354-0.245
				c0.12-0.017,0.224-0.073,0.344-0.099c0.112-0.026,0.198-0.241,0.31-0.267c0.121-0.018,0.28,0.215,0.393,0.215
				c0.124-0.009,0.271-0.129,0.383-0.095c0.107,0.039,0.146,0.284,0.258,0.31c0.104,0.035,0.241-0.043,0.354-0.017
				c0.111,0.03,0.206,0.12,0.318,0.138c0.111,0.017,0.249-0.146,0.356-0.138c0.116,0.017,0.194,0.344,0.306,0.353
				c0.112,0.009,0.241-0.288,0.354-0.284c0.111,0.005,0.224-0.077,0.335-0.077c0.112,0,0.225,0.177,0.336,0.172
				c0.112-0.004,0.229,0.078,0.34,0.069c0.116-0.009,0.198-0.318,0.311-0.327c0.116-0.009,0.236,0.095,0.349,0.077
				c0.111-0.013,0.197-0.146,0.31-0.163c0.112-0.018,0.224-0.009,0.336-0.026c0.103-0.009,0.258,0.216,0.37,0.198
				c0.146-0.026,0.306-0.026,0.408-0.069c0.134-0.06,0.151-0.267,0.229-0.365c0.073-0.091,0.361-0.125,0.396-0.263
				c0.035-0.112,0.035-0.275,0.052-0.422c0.014-0.112-0.292-0.25-0.279-0.366c0.013-0.107-0.048-0.232-0.03-0.34
				c0.021-0.107,0.301-0.181,0.323-0.288c0.017-0.107-0.143-0.245-0.117-0.357c0.018-0.111-0.034-0.232-0.017-0.344
				c0.025-0.104,0.039-0.216,0.056-0.327c0.021-0.104,0.064-0.216,0.082-0.323c0.021-0.107,0.34-0.159,0.357-0.271
				c0.021-0.104-0.1-0.241-0.082-0.354c0.018-0.107,0.224-0.189,0.245-0.292c0.018-0.121-0.301-0.293-0.284-0.405
				c0.018-0.111,0.048-0.224,0.064-0.335c0.018-0.121,0.03-0.232,0.048-0.349c0.021-0.116,0.215-0.203,0.236-0.314
				c0.018-0.116-0.146-0.259-0.129-0.37c0.018-0.112,0.061-0.224,0.073-0.34s0.018-0.229,0.025-0.345
				c0.009-0.116,0.366-0.206,0.366-0.322c0.009-0.121-0.138-0.241-0.129-0.362c0-0.116-0.134-0.232-0.138-0.349
				c0-0.116,0.138-0.232,0.129-0.349c-0.009-0.12-0.207-0.215-0.22-0.326c-0.013-0.121,0.159-0.254,0.143-0.37
				c-0.018-0.112-0.225-0.189-0.254-0.306c-0.021-0.112,0.073-0.254,0.038-0.366c-0.03-0.112,0.112-0.275,0.069-0.388
				c-0.03-0.099-0.345-0.095-0.388-0.193c-0.038-0.099,0.186-0.314,0.146-0.409c-0.043-0.099-0.129-0.172-0.163-0.267
				c-0.039-0.104-0.189-0.163-0.216-0.263c-0.021-0.103,0.026-0.215,0.026-0.318c0.008-0.111-0.198-0.236-0.189-0.349
				c0-0.111,0.009-0.232,0.013-0.344c0.004-0.112,0.125-0.224,0.129-0.336c0.005-0.112,0.056-0.224,0.064-0.34
				c0-0.116,0.095-0.229,0.104-0.34c0-0.112-0.258-0.241-0.25-0.354c0.009-0.111,0.396-0.206,0.405-0.318
				c0.004-0.111-0.112-0.232-0.107-0.349c0.004-0.116-0.134-0.236-0.13-0.349c0.005-0.111,0.194-0.215,0.202-0.336
				c0.005-0.111,0.125-0.219,0.13-0.335c0.004-0.112-0.409-0.25-0.4-0.361c0.004-0.112,0.279-0.216,0.288-0.327
				c0.004-0.116-0.155-0.241-0.155-0.354c0.009-0.111-0.095-0.232-0.086-0.344c0-0.112,0.284-0.216,0.284-0.336
				c0.009-0.112-0.043-0.224-0.039-0.345c0.005-0.111,0.177-0.224,0.177-0.335c0-0.112-0.318-0.232-0.318-0.345
				s0.095-0.224,0.095-0.345c0-0.116,0.163-0.228,0.159-0.34c0-0.111-0.159-0.224-0.159-0.34c0-0.12,0.086-0.241,0.086-0.361
				c-0.009-0.116-0.198-0.229-0.206-0.344c0-0.116-0.052-0.232-0.061-0.353c-0.009-0.112,0.379-0.263,0.37-0.379
				s-0.048-0.236-0.056-0.353c-0.014-0.121-0.302-0.215-0.314-0.327c-0.018-0.121-0.091-0.224-0.107-0.349
				c-0.014-0.116,0.219-0.271,0.202-0.383c-0.018-0.12-0.138-0.224-0.164-0.34c-0.017-0.116-0.068-0.228-0.086-0.344
				c-0.025-0.116,0-0.245-0.03-0.357c-0.021-0.12-0.107-0.224-0.133-0.335c-0.026-0.121,0.129-0.275,0.104-0.396
				c-0.026-0.112-0.138-0.207-0.173-0.318c-0.03-0.121-0.236-0.181-0.267-0.293c-0.039-0.12,0.138-0.288,0.104-0.404
				c-0.026-0.121,0.043-0.25,0.017-0.37c-0.025-0.116-0.344-0.172-0.37-0.284c-0.021-0.121-0.043-0.241-0.06-0.357
				c-0.018-0.116,0.215-0.271,0.206-0.383c-0.017-0.121-0.353-0.215-0.357-0.332c-0.008-0.116,0.039-0.245,0.039-0.366
				c-0.009-0.121-0.064-0.25-0.061-0.366c0.005-0.116,0.13-0.237,0.134-0.357c0.013-0.12,0.186-0.224,0.198-0.344
				c0.013-0.112,0.009-0.232,0.03-0.353c0.017-0.112,0.138-0.207,0.154-0.319c0.018-0.112-0.176-0.258-0.154-0.37
				c0.017-0.112,0.189-0.198,0.215-0.31c0.018-0.112-0.034-0.241-0.018-0.353c0.026-0.112,0.043-0.224,0.069-0.336
				c0.021-0.112-0.099-0.258-0.077-0.361c0.025-0.112,0.172-0.198,0.193-0.31c0.021-0.112,0.245-0.185,0.263-0.301
				c0.021-0.112,0.03-0.224,0.052-0.335c0.025-0.112-0.044-0.245-0.018-0.357c0.021-0.112-0.211-0.271-0.189-0.383
				c0.018-0.112,0.215-0.189,0.232-0.31c0.018-0.112,0.034-0.224,0.052-0.34c0.018-0.112,0-0.232,0.013-0.344
				c0.013-0.116,0.129-0.22,0.143-0.332c0.017-0.112,0.017-0.224,0.025-0.344c0.009-0.112-0.034-0.232-0.025-0.344
				c0.008-0.112,0.06-0.228,0.064-0.34c0.004-0.116-0.297-0.228-0.297-0.349c0-0.112,0.327-0.232,0.322-0.344
				c-0.004-0.112-0.09-0.224-0.104-0.34c-0.008-0.112-0.056-0.228-0.064-0.34c-0.017-0.112-0.056-0.224-0.068-0.336
				c-0.018-0.112,0.03-0.241,0.013-0.353c-0.021-0.112-0.207-0.189-0.232-0.301c-0.03-0.116-0.073-0.215-0.099-0.319
				c-0.035-0.116,0.111-0.275,0.077-0.378c-0.043-0.112-0.009-0.263-0.061-0.357c-0.052-0.107-0.129-0.224-0.197-0.31
				c-0.069-0.09-0.22-0.134-0.311-0.203c-0.086-0.069-0.292,0.095-0.396,0.052s-0.159-0.164-0.275-0.189
				c-0.104-0.026-0.216,0.086-0.336,0.078c-0.112-0.009-0.207-0.327-0.327-0.327c-0.112,0-0.232,0.112-0.349,0.112
				s-0.232-0.051-0.349-0.051c-0.12,0-0.232,0.021-0.353,0.021c-0.116,0-0.232-0.134-0.349-0.134s-0.237,0.229-0.349,0.229
				c-0.121,0-0.232,0.064-0.354,0.064c-0.116,0-0.232-0.026-0.349-0.026S44.896,9.41,44.784,9.41c-0.12,0-0.232-0.275-0.353-0.275
				c-0.116,0-0.232,0.094-0.349,0.094s-0.236,0.194-0.349,0.194c-0.12,0-0.236,0.013-0.353,0.013s-0.232-0.078-0.354-0.078
				c-0.111,0-0.232-0.177-0.344-0.177c-0.121,0-0.237,0.052-0.354,0.052s-0.232-0.047-0.353-0.047c-0.112,0-0.232,0.181-0.345,0.181
				c-0.12,0-0.236-0.025-0.353-0.025s-0.232-0.22-0.353-0.22c-0.112,0-0.232,0.112-0.349,0.112s-0.232,0.246-0.349,0.246
				S39.999,9.19,39.878,9.19c-0.111,0-0.232-0.069-0.349-0.069s-0.232,0.245-0.349,0.245c-0.12,0-0.231-0.103-0.353-0.103
				c-0.111,0-0.232-0.121-0.349-0.121s-0.232,0.095-0.349,0.095c-0.12,0-0.232-0.172-0.353-0.172c-0.116,0-0.232,0.035-0.349,0.035
				s-0.232-0.052-0.349-0.052c-0.121,0-0.232,0.185-0.354,0.185c-0.116,0-0.232-0.168-0.349-0.168c-0.115,0-0.236,0.018-0.348,0.018
				c-0.121,0-0.232,0.103-0.354,0.103c-0.116,0-0.232-0.073-0.349-0.073s-0.236,0.172-0.349,0.172c-0.12,0-0.236-0.039-0.353-0.039
				s-0.232,0.086-0.349,0.086s-0.237-0.035-0.349-0.035c-0.12,0-0.236-0.034-0.353-0.034s-0.232,0.078-0.354,0.078
				c-0.111,0-0.232-0.013-0.344-0.013c-0.121,0-0.237,0.151-0.354,0.151s-0.232-0.366-0.353-0.366c-0.112,0-0.232,0.332-0.345,0.332
				c-0.12,0-0.236-0.207-0.353-0.207s-0.232,0.176-0.353,0.176c-0.112,0-0.232-0.159-0.349-0.159s-0.232-0.224-0.349-0.224
				c-0.121,0-0.232,0.439-0.354,0.439c-0.111,0-0.232-0.396-0.349-0.396s-0.232,0.405-0.349,0.405c-0.12,0-0.232-0.383-0.353-0.383
				c-0.111,0-0.232,0.301-0.349,0.301S28.443,9.04,28.327,9.04C28.207,9.04,28.245,9.487,28.129,9.487z M47.629,8.205
				c-0.004,0.073-0.236,0.129-0.236,0.198c0.104,0.026,0.366-0.314,0.478-0.301c0.107,0.017,0.173,0.4,0.28,0.413
				c0.107,0.009,0.228-0.095,0.331-0.086c0.112,0.017,0.254-0.155,0.357-0.133c0.111,0.021,0.129,0.314,0.232,0.357
				s0.163,0.078,0.245,0.142c0.099,0.086,0.293,0.039,0.392,0.099c0.107,0.069,0.125,0.327,0.232,0.37
				c0.116,0.047,0.306-0.104,0.422-0.073c0.12,0.026,0.22,0.254,0.345,0.271c0.12,0.009,0.258-0.318,0.378-0.318
				c0.121,0,0.232-0.039,0.354-0.043c0.12-0.004,0.263,0.267,0.383,0.258c0.125-0.009,0.112-0.37,0.232-0.482
				c0.107-0.099,0.538-0.009,0.642-0.086c-0.057-0.069-0.182-0.301-0.237-0.387s-0.159-0.15-0.211-0.219
				c-0.077-0.095-0.228-0.082-0.306-0.082c-0.111-0.008-0.228,0.017-0.34,0.017C51.49,8.11,51.378,8.11,51.266,8.101
				c-0.111,0-0.224-0.237-0.335-0.237c-0.112,0-0.232,0.271-0.345,0.271c-0.111,0-0.224-0.129-0.336-0.129
				c-0.111,0-0.224,0.064-0.344,0.064c-0.112,0-0.224-0.15-0.336-0.15s-0.229-0.06-0.344-0.06c-0.112,0-0.225,0.103-0.341,0.103
				s-0.228,0.215-0.34,0.22c-0.111,0.004-0.224-0.28-0.336-0.28c-0.111,0-0.228,0.185-0.34,0.185
				C47.759,8.084,47.741,8.205,47.629,8.205z M2.664,9.031c0.099,0.06-0.073,0.289,0.021,0.335c0.103,0.056,0.37-0.275,0.473-0.236
				c0.104,0.039,0.095,0.435,0.198,0.46c0.112,0.026,0.258-0.064,0.366-0.052c0.112,0.017,0.237-0.172,0.34-0.172
				c0.112,0,0.241,0.271,0.353,0.258C4.527,9.612,4.648,9.59,4.76,9.564c0.107-0.03,0.181-0.207,0.289-0.241
				c0.107-0.034,0.297,0.138,0.4,0.095C5.552,9.375,5.578,9.143,5.681,9.1c0.104-0.052,0.301,0.095,0.396,0.043
				C6.18,9.091,6.128,8.747,6.228,8.691c0.099-0.056,0.181-0.134,0.28-0.189c0.094-0.056,0.327,0.15,0.43,0.099
				c0.099-0.052,0.06-0.388,0.164-0.435c0.103-0.047,0.448-0.039,0.551-0.082C7.54,8.118,7.239,8.118,7.127,8.144
				C7.015,8.166,6.92,8.23,6.8,8.248C6.688,8.26,6.593,8.39,6.481,8.398C6.369,8.411,6.257,8.445,6.137,8.445
				c-0.112,0.009-0.229,0.009-0.34,0.013S5.56,8.23,5.448,8.23C5.336,8.239,5.233,8.514,5.121,8.514
				C5.009,8.523,4.885,8.402,4.772,8.411c-0.112,0-0.219,0.077-0.335,0.086C4.325,8.506,4.192,8.372,4.08,8.39
				C3.968,8.411,3.834,8.364,3.723,8.385C3.611,8.411,3.516,8.532,3.404,8.566c-0.108,0.03-0.151,0.267-0.254,0.31
				C3.038,8.91,2.832,8.695,2.729,8.738C2.625,8.786,2.767,8.979,2.664,9.031z M24.075,8.549c0.103-0.082,0.335,0.172,0.43,0.095
				c0.104-0.086-0.052-0.482,0.034-0.564c0.104-0.082,0.443,0.125,0.534,0.047c0.104-0.086,0.142-0.289,0.237-0.37
				c-0.086-0.069-0.323-0.052-0.409-0.133c-0.086-0.086,0.009-0.375-0.078-0.443c-0.103-0.082-0.301-0.164-0.404-0.155
				c-0.095,0.008-0.198,0.155-0.31,0.146c-0.103-0.008-0.198-0.25-0.301-0.258c-0.112-0.008-0.232,0.189-0.335,0.203
				c-0.112,0.013-0.34-0.125-0.422-0.064c-0.078,0.06,0.095,0.344,0.056,0.469c-0.03,0.082-0.004,0.159-0.008,0.28
				c-0.004,0.095-0.151,0.289-0.021,0.396c0.086,0.069,0.375-0.125,0.491-0.047c0.099,0.064-0.018,0.46,0.09,0.534
				C23.77,8.755,23.976,8.476,24.075,8.549z M29.992,7.55c0.018,0.078-0.297,0.078-0.288,0.185c0.013,0.099,0.426,0.15,0.439,0.237
				c0.025,0.138-0.181,0.447-0.13,0.456c0.104,0.026,0.232-0.073,0.345-0.06c0.104,0.013,0.215-0.172,0.327-0.164
				c0.104,0,0.207,0.275,0.31,0.275c0.104-0.004,0.216-0.013,0.318-0.021c0.104-0.013,0.198-0.177,0.302-0.189
				c0.073-0.013,0.357-0.009,0.431-0.151c0.086-0.142-0.043-0.387-0.073-0.456c-0.039-0.078,0.047-0.314-0.021-0.396
				c-0.073-0.077-0.37,0.104-0.456,0.047c-0.095-0.064-0.139-0.047-0.229-0.056c-0.116-0.004-0.254-0.276-0.374-0.25
				c-0.112,0.021-0.155,0.362-0.276,0.396c-0.111,0.035-0.335-0.318-0.456-0.28C30.049,7.154,30.117,7.52,29.992,7.55z
				 M38.385,7.253c-0.107,0.077-0.331-0.194-0.431-0.125c-0.107,0.078,0.03,0.482-0.064,0.551c-0.103,0.078-0.43-0.155-0.524-0.086
				c-0.104,0.078-0.155,0.284-0.254,0.357c0.103,0.034,0.313-0.056,0.417-0.009c0.104,0.043,0.1,0.344,0.202,0.383
				c0.107,0.047,0.229,0.086,0.332,0.112c0.111,0.034,0.249-0.104,0.361-0.104c0.111,0,0.336,0.151,0.447,0.078
				c0.1-0.061,0.091-0.31,0.189-0.387c0.095-0.073,0.404-0.121,0.499-0.186c-0.077-0.064-0.438-0.056-0.517-0.125
				c-0.077-0.056-0.181-0.086-0.267-0.155c-0.077-0.061,0.013-0.345-0.068-0.414C38.622,7.094,38.476,7.322,38.385,7.253z
				 M8.93,8.222c0.125,0,0.082,0.275,0.198,0.275c0.125,0,0.246-0.409,0.366-0.409c0.12,0,0.241,0.378,0.361,0.378
				s0.241-0.125,0.361-0.125s0.241-0.189,0.366-0.189c0.121,0,0.241,0.275,0.366,0.275c0.12,0,0.318-0.034,0.439-0.034
				c0-0.104-0.095-0.323-0.086-0.435c0.013-0.142,0.172-0.413,0.104-0.469c-0.082-0.069-0.318,0.03-0.43-0.009
				c-0.104-0.026-0.224-0.254-0.349-0.254c-0.112,0-0.207,0.335-0.327,0.357c-0.112,0.018-0.198,0.078-0.31,0.121
				C9.881,7.74,9.666,7.52,9.559,7.576C9.455,7.624,9.511,7.959,9.417,8.024C9.313,8.084,8.986,7.834,8.9,7.912
				C8.797,7.977,9.012,8.136,8.93,8.222z M46.179,8.239c-0.043-0.121,0.224-0.241,0.155-0.344c-0.064-0.103-0.461,0.052-0.547-0.034
				c-0.09-0.091,0.039-0.465-0.064-0.521c-0.111-0.064-0.301-0.009-0.422-0.034c-0.129-0.03-0.241,0.159-0.365,0.176
				c-0.121,0.017-0.323-0.207-0.435-0.138c-0.138,0.078-0.362,0.392-0.345,0.512c0.009,0.082,0.198,0.159,0.245,0.245
				c0.056,0.112,0.091,0.405,0.159,0.413c0.112,0.009,0.25-0.181,0.366-0.181c0.116,0.009,0.232,0.224,0.349,0.224
				c0.12,0,0.232-0.327,0.353-0.327c0.116,0,0.232-0.039,0.354-0.043C46.098,8.187,46.063,8.239,46.179,8.239z M16.509,8.467
				c0.112-0.03,0.086,0.185,0.181,0.159c0.112-0.03,0.112-0.452,0.215-0.478c0.112-0.03,0.301,0.31,0.405,0.28
				c0.112-0.026,0.181-0.168,0.284-0.198c0.103-0.026,0.155-0.246,0.258-0.271c0.104-0.03,0.28,0.203,0.383,0.168
				c0.009,0,0.047-0.318-0.004-0.508c-0.03-0.129-0.198-0.202-0.224-0.306c-0.112,0.047-0.293-0.112-0.405-0.064
				c-0.112,0.052-0.146,0.28-0.258,0.327c-0.112,0.052-0.31-0.095-0.421-0.052c-0.112,0.043-0.095,0.396-0.207,0.443
				c-0.112,0.047-0.215,0.133-0.327,0.181C16.38,8.153,16.509,8.032,16.509,8.467z M21.613,8.157
				c0.009-0.099,0.271-0.194,0.284-0.293c-0.121,0-0.37,0.357-0.491,0.357s-0.241-0.379-0.362-0.379
				c-0.12,0-0.236,0.121-0.361,0.121c-0.121,0-0.232,0.194-0.357,0.194c-0.121,0-0.237-0.271-0.357-0.271s-0.241,0-0.361,0
				c-0.121,0-0.22,0.146-0.336,0.146c0,0.095-0.138,0.323-0.138,0.422c0.116,0,0.357-0.155,0.474-0.155
				c0.12,0,0.232,0.215,0.353,0.215c0.116,0,0.232-0.327,0.349-0.327s0.237-0.034,0.349-0.034c0.121,0,0.232,0.284,0.353,0.284
				c0.116,0,0.232-0.327,0.349-0.327S21.493,8.157,21.613,8.157z M33.139,8.26c0,0.064-0.189,0.138-0.189,0.207
				c0.12,0,0.336-0.383,0.447-0.383c0.121,0,0.232,0.379,0.354,0.379c0.116,0,0.232-0.121,0.349-0.121s0.236-0.194,0.349-0.194
				c0.12,0,0.236,0.271,0.353,0.271s0.232,0,0.349,0s0.236-0.155,0.349-0.155c0.12,0,0.331,0.202,0.447,0.202
				c0-0.069-0.095-0.301-0.095-0.366c-0.116,0-0.232-0.215-0.353-0.215c-0.112,0-0.232,0.327-0.349,0.327S34.916,8.252,34.8,8.252
				s-0.232-0.284-0.353-0.284c-0.112,0-0.232,0.323-0.349,0.323s-0.232-0.396-0.349-0.396c-0.121,0-0.232,0.056-0.354,0.056
				C33.285,7.946,33.255,8.26,33.139,8.26z M12.795,8.127c0,0.078-0.207,0.164-0.207,0.245c0.121,0,0.349-0.374,0.469-0.374
				c0.12,0,0.25,0.374,0.37,0.374c0.12,0,0.25-0.12,0.37-0.12c0.12,0,0.245-0.194,0.366-0.194c0.125,0,0.245,0.275,0.366,0.275
				c0.125,0,0.31-0.026,0.439-0.026c0-0.077-0.086-0.232-0.086-0.31c-0.121,0-0.228-0.224-0.353-0.224
				c-0.121,0-0.241,0.198-0.366,0.198c-0.121,0-0.246-0.215-0.366-0.215c-0.121,0-0.25,0.327-0.37,0.327
				c-0.121,0-0.25,0.034-0.37,0.034C12.937,8.118,12.916,8.127,12.795,8.127z M28.697,8.127c0-0.082,0.207-0.172,0.207-0.25
				c-0.112,0-0.345,0.378-0.461,0.378s-0.236-0.378-0.357-0.378c-0.112,0-0.232,0.121-0.353,0.121c-0.116,0-0.237,0.193-0.353,0.193
				c-0.121,0-0.241-0.271-0.353-0.271c-0.121,0-0.241,0-0.357,0s-0.219,0.15-0.335,0.15c0.004,0.082-0.125,0.297-0.116,0.375
				c0.116,0,0.34-0.164,0.46-0.164c0.116,0,0.237,0.215,0.357,0.215c0.112,0,0.236-0.327,0.353-0.327s0.237-0.034,0.353-0.034
				c0.121,0,0.241,0.284,0.353,0.284c0.121,0,0.241-0.327,0.357-0.327S28.577,8.127,28.697,8.127z"/>
		</g>
		<g>
			<path d="M39.009,33.269c0.1-0.034,0.095-0.064,0.198-0.111c0.116-0.048,0.163-0.026,0.258,0.009
				c0.112,0.034,0.216,0.095,0.332,0.129c0.111,0.03,0.263-0.052,0.374-0.018c0.112,0.03,0.232,0.013,0.353,0.039
				c0.112,0.03,0.211,0.12,0.323,0.15c0.112,0.034,0.193,0.168,0.31,0.198c0.112,0.034,0.28-0.125,0.392-0.095
				c0.112,0.034,0.189,0.172,0.302,0.206c0.111,0.039,0.172,0.182,0.279,0.225c0.107,0.047,0.198,0.103,0.302,0.154
				s0.392-0.232,0.495-0.172c0.095,0.061,0.086,0.31,0.181,0.379c0.095,0.068,0.189,0.125,0.279,0.206
				c0.056,0.052,0.091,0.216,0.15,0.232c0.104,0.026,0.263-0.228,0.37-0.211c0.108,0.014,0.194,0.189,0.297,0.207
				c0.108,0.021,0.28-0.15,0.384-0.116c0.103,0.034,0.047,0.361,0.133,0.435c0.073,0.069,0.22,0.061,0.271,0.164
				c0.039,0.081,0.224,0.159,0.241,0.279c0.017,0.12-0.146,0.263-0.138,0.374c0.017,0.116-0.151,0.246-0.143,0.357
				c0.005,0.112,0.086,0.216,0.086,0.336c0,0.116,0.095,0.232,0.091,0.344c-0.009,0.116-0.129,0.216-0.146,0.332
				c-0.009,0.116,0.086,0.245,0.064,0.357c-0.021,0.111-0.142,0.206-0.168,0.318c-0.034,0.111,0.13,0.284,0.095,0.387
				c-0.034,0.112,0.035,0.275-0.008,0.384c-0.044,0.107-0.431,0.056-0.482,0.159c-0.056,0.103-0.091,0.206-0.15,0.31
				c-0.057,0.086-0.039,0.198-0.151,0.25c-0.094,0.051-0.197,0.077-0.313,0.111c-0.107,0.034-0.207,0.107-0.323,0.138
				c-0.111,0.034-0.284-0.104-0.387-0.068c-0.108,0.038-0.138,0.31-0.241,0.344c-0.104,0.043-0.28-0.104-0.383-0.068
				c-0.108,0.043-0.198,0.129-0.306,0.163c-0.108,0.039-0.25-0.013-0.354,0.021c-0.111,0.039-0.197,0.125-0.31,0.159
				c-0.104,0.043-0.193,0.134-0.302,0.173c-0.107,0.043-0.181,0.181-0.288,0.215c-0.107,0.043-0.189,0.159-0.297,0.198
				c-0.107,0.043-0.318-0.216-0.426-0.173c-0.107,0.039-0.168,0.207-0.28,0.246c-0.103,0.034-0.206,0.09-0.318,0.124
				c-0.104,0.035-0.249-0.03-0.357,0.005c-0.107,0.038-0.219,0.068-0.326,0.104c-0.108,0.038-0.182,0.181-0.289,0.215
				c-0.107,0.039-0.206,0.099-0.313,0.133c-0.104,0.039-0.186,0.146-0.289,0.182c-0.103,0.034-0.197,0.12-0.301,0.159
				c-0.104,0.029-0.216,0.073-0.318,0.107c-0.104,0.034-0.216,0.052-0.318,0.086c-0.112,0.03-0.259-0.082-0.362-0.056
				c-0.107,0.03-0.211,0.073-0.318,0.099c-0.111,0.025-0.163,0.267-0.271,0.297c-0.108,0.026-0.289-0.263-0.392-0.236
				c-0.112,0.021-0.164,0.335-0.271,0.356c-0.107,0.018-0.275-0.318-0.388-0.305c-0.12,0.017-0.211,0.288-0.331,0.297
				c-0.12,0.008-0.258-0.211-0.379-0.202c-0.125,0.004-0.236,0.331-0.357,0.335c-0.124,0.009-0.245-0.267-0.365-0.267
				c-0.125,0-0.245,0.245-0.366,0.245c-0.125,0-0.245-0.15-0.365-0.15c-0.121,0-0.241,0.047-0.362,0.047
				c-0.12,0-0.24,0.121-0.361,0.125c-0.12,0.009-0.254-0.219-0.374-0.211c-0.116,0.014-0.229,0.091-0.349,0.104
				c-0.121,0.013-0.224,0.125-0.345,0.134c-0.116,0.017-0.249-0.104-0.37-0.086c-0.111,0.013-0.249-0.13-0.37-0.121
				c-0.116,0.018-0.211,0.207-0.327,0.224c-0.116,0.018-0.258-0.129-0.37-0.111c-0.12,0.009-0.197,0.353-0.31,0.365
				c-0.12,0.014-0.258-0.159-0.379-0.142c-0.12,0.013-0.249-0.129-0.37-0.12c-0.116,0.008-0.215,0.301-0.331,0.31
				S28.116,42.914,28,42.918c-0.121,0.004-0.25,0.025-0.37,0.021s-0.237-0.112-0.361-0.12c-0.121-0.009-0.241-0.009-0.362-0.021
				c-0.121-0.014-0.267,0.154-0.387,0.133c-0.121-0.013-0.198-0.34-0.318-0.353c-0.121-0.021-0.263,0.104-0.383,0.082
				c-0.125-0.018-0.262,0.103-0.383,0.086c-0.121-0.018-0.215-0.25-0.336-0.263c-0.138-0.013-0.314-0.104-0.447-0.086
				c-0.121,0.017-0.207,0.31-0.319,0.318c-0.12,0.009-0.254-0.021-0.37-0.018c-0.12,0-0.236-0.189-0.361-0.198
				c-0.121-0.004-0.25,0.168-0.37,0.16c-0.121-0.009-0.25,0.021-0.37,0c-0.112-0.018-0.198-0.275-0.318-0.302
				c-0.112-0.018-0.237-0.009-0.357-0.025c-0.116-0.026-0.271,0.12-0.383,0.103c-0.121-0.025-0.241-0.043-0.357-0.064
				c-0.116-0.03-0.211-0.15-0.327-0.181c-0.116-0.021-0.219-0.142-0.331-0.168c-0.121-0.021-0.25,0.026-0.37,0.009
				c-0.116-0.017-0.25,0.086-0.37,0.073c-0.121-0.013-0.224-0.107-0.345-0.12c-0.116-0.014-0.232-0.026-0.353-0.03
				c-0.121-0.005-0.25,0.142-0.362,0.133c-0.12-0.008-0.228-0.185-0.344-0.197c-0.116-0.014-0.25,0.047-0.361,0.03
				c-0.112-0.018-0.224-0.073-0.344-0.095c-0.116-0.018-0.246,0.029-0.362,0.008c-0.12-0.025-0.176-0.318-0.288-0.344
				c-0.116-0.03-0.207-0.125-0.323-0.155c-0.112-0.025-0.314,0.267-0.426,0.237c-0.112-0.03-0.245-0.009-0.357-0.048
				c-0.112-0.034-0.151-0.301-0.263-0.344c-0.112-0.035-0.181-0.189-0.292-0.229c-0.112-0.039-0.366,0.297-0.469,0.254
				c-0.112-0.034-0.138-0.297-0.241-0.345c-0.112-0.043-0.164-0.215-0.275-0.262c-0.103-0.048-0.232-0.039-0.344-0.091
				c-0.104-0.052-0.271,0.025-0.375-0.021c-0.107-0.052-0.189-0.15-0.297-0.198c-0.104-0.056-0.241-0.047-0.344-0.103
				c-0.104-0.057-0.082-0.341-0.185-0.396c-0.104-0.056-0.185-0.142-0.289-0.202c-0.103-0.061-0.318,0.082-0.417,0.018
				c-0.099-0.057-0.31,0.056-0.409-0.009c-0.104-0.061-0.138-0.232-0.232-0.293c-0.099-0.068-0.189-0.155-0.275-0.224
				c-0.095-0.077-0.263-0.069-0.349-0.146c-0.09-0.082-0.142-0.211-0.219-0.293c-0.082-0.09,0.03-0.331-0.035-0.426
				c-0.073-0.095-0.142-0.177-0.198-0.271c-0.061-0.103-0.129-0.188-0.172-0.292c-0.043-0.112-0.207-0.186-0.228-0.293
				c-0.021-0.12,0.138-0.25,0.138-0.365c-0.004-0.116,0.082-0.194,0.099-0.314c0.017-0.112-0.043-0.22-0.009-0.332
				c0.035-0.107-0.138-0.305-0.082-0.413c0.047-0.099,0.267-0.111,0.331-0.211c0.064-0.095,0.017-0.283,0.095-0.37
				c0.073-0.086,0.104-0.24,0.189-0.327c0.082-0.077,0.37,0.078,0.465,0c0.095-0.068,0.232-0.06,0.327-0.129
				c0.095-0.068,0.026-0.379,0.125-0.443c0.099-0.064,0.28,0.014,0.383-0.047c0.103-0.056,0.095-0.318,0.198-0.37
				c0.104-0.052,0.198-0.146,0.301-0.193c0.104-0.048,0.267,0.013,0.375-0.03s0.31,0.142,0.417,0.099
				c0.107-0.047,0.116-0.34,0.224-0.388c0.108-0.038,0.211-0.107,0.319-0.15c0.107-0.038,0.297,0.146,0.409,0.104
				c0.107-0.039,0.159-0.258,0.263-0.302c0.112-0.034,0.198-0.138,0.31-0.176c0.104-0.039,0.224-0.064,0.327-0.104
				c0.112-0.039,0.232-0.047,0.34-0.086c0.095-0.034,0.22,0.193,0.336,0.228c0.099,0.026,0.254-0.086,0.357-0.047
				c0.104,0.039,0.215,0.134,0.319,0.159c-0.052,0.112-0.009,0.293-0.056,0.404c-0.047,0.104-0.219,0.164-0.271,0.268
				c-0.056,0.107,0.017,0.31-0.047,0.404c-0.056,0.077-0.246,0.163-0.349,0.211c-0.095,0.043-0.353-0.189-0.439-0.134
				c-0.104,0.061-0.064,0.318-0.151,0.388c-0.095,0.077-0.047,0.258-0.125,0.335c-0.082,0.095-0.362,0.018-0.417,0.112
				c-0.056,0.104,0.064,0.271,0.034,0.379c-0.03,0.111-0.047,0.193-0.043,0.31c0,0.116,0.035,0.189,0.073,0.302
				c0.035,0.103-0.056,0.258,0.009,0.361c0.064,0.086,0.125,0.198,0.215,0.279c0.078,0.073,0.121,0.246,0.224,0.306
				c0.095,0.061,0.211,0.129,0.323,0.181c0.103,0.043,0.366-0.24,0.46-0.193c0.103,0.047,0.185,0.142,0.288,0.193
				c0.104,0.048,0.134,0.237,0.237,0.284c0.104,0.052,0.168,0.189,0.271,0.232c0.104,0.048,0.177,0.172,0.28,0.22
				c0.104,0.047,0.271-0.064,0.375-0.021c0.108,0.034,0.207,0.104,0.314,0.134c0.107,0.029,0.215,0.094,0.327,0.116
				c0.112,0.021,0.224,0.094,0.336,0.107c0.112,0.013,0.245-0.151,0.357-0.151c0.112,0.009,0.224,0.048,0.34,0.039
				c0.121-0.009,0.241-0.125,0.361-0.116c0.116,0.013,0.263-0.052,0.379-0.025c0.112,0.025,0.198,0.197,0.31,0.236
				c0.112,0.034,0.203,0.134,0.319,0.177c0.103,0.038,0.224,0.068,0.327,0.111c0.112,0.043,0.275-0.06,0.383-0.017
				c0.112,0.038,0.125,0.361,0.237,0.396s0.258-0.021,0.37,0.009c0.116,0.025,0.232,0.064,0.353,0.077
				c0.112,0.018,0.215,0.138,0.327,0.155c0.121,0.009,0.25-0.086,0.362-0.069c0.116,0.014,0.215,0.164,0.327,0.173
				c0.116,0.017,0.232,0.047,0.344,0.06c0.121,0.018,0.275-0.37,0.392-0.356c0.116,0.013,0.202,0.318,0.314,0.331
				c0.121,0.013,0.25-0.163,0.362-0.146c0.121,0.009,0.215,0.237,0.331,0.245c0.116,0.009,0.229,0.048,0.345,0.057
				c0.116,0.008,0.236,0.043,0.348,0.051c0.112,0.009,0.25-0.322,0.366-0.313c0.116,0.004,0.215,0.344,0.327,0.349
				c0.116,0.009,0.236-0.048,0.348-0.043c0.121,0.004,0.232-0.035,0.353-0.035c0.116,0.009,0.232-0.008,0.349,0
				c0.116,0,0.237-0.197,0.349-0.188c0.121,0,0.233,0.262,0.349,0.262s0.232-0.288,0.349-0.288c0.12,0,0.232,0.172,0.353,0.172
				c0.111,0,0.232,0.078,0.349,0.078c0.116-0.005,0.228-0.112,0.344-0.121c0.116,0,0.237,0.069,0.349,0.069
				c0.121-0.009,0.225-0.198,0.341-0.207c0.111-0.013,0.24,0.198,0.356,0.194c0.121-0.005,0.211-0.289,0.327-0.297
				c0.121-0.014,0.241,0.159,0.361,0.15c0.116-0.013,0.232,0.009,0.349-0.005c0.116-0.008,0.237-0.017,0.349-0.025
				c0.112-0.009,0.225-0.052,0.336-0.064c0.121-0.013,0.224-0.095,0.34-0.112c0.116-0.013,0.22-0.099,0.336-0.111
				c0.116-0.014,0.254,0.168,0.374,0.15c0.116-0.018,0.198-0.25,0.311-0.267c0.111-0.018,0.232-0.018,0.344-0.035
				c0.112-0.017,0.25,0.082,0.362,0.064c0.111-0.021,0.224-0.064,0.34-0.086c0.111-0.021,0.249,0.073,0.361,0.048
				c0.116-0.018,0.177-0.302,0.288-0.318c0.112-0.026,0.22-0.064,0.336-0.086c0.111-0.026,0.258,0.103,0.379,0.077
				c0.111-0.026,0.236,0.009,0.353-0.021c0.12-0.026,0.224-0.056,0.336-0.082c0.111-0.03,0.224-0.052,0.327-0.086
				c0.111-0.025,0.163-0.232,0.271-0.267c0.108-0.035,0.246,0.025,0.349-0.013c0.112-0.039,0.155-0.225,0.259-0.271
				c0.104-0.039,0.275,0.095,0.379,0.052c0.103-0.043,0.206-0.095,0.31-0.138c0.104-0.048,0.138-0.237,0.241-0.284
				c0.103-0.052,0.232-0.034,0.331-0.086s0.207-0.091,0.306-0.146s0.215-0.077,0.31-0.138c0.1-0.061,0.267,0.009,0.361-0.052
				s0.207-0.099,0.302-0.163c0.104-0.061,0.206-0.143,0.284-0.211c0.09-0.082,0.077-0.263,0.138-0.345
				c0.064-0.095,0.267-0.159,0.293-0.263c0.025-0.104-0.198-0.249-0.216-0.357c-0.013-0.103-0.03-0.193-0.077-0.297
				c-0.048-0.095-0.164-0.124-0.237-0.215c-0.064-0.082-0.159-0.107-0.245-0.186c-0.077-0.072-0.129-0.146-0.224-0.215
				c-0.082-0.064-0.095-0.232-0.177-0.297c-0.086-0.061-0.262,0-0.349-0.069c-0.086-0.06-0.034-0.318-0.12-0.383
				s-0.112-0.206-0.198-0.271c-0.086-0.061-0.318,0.068-0.404,0c-0.082-0.064-0.146-0.159-0.232-0.229
				C38.889,33.536,39.052,33.441,39.009,33.269z M14.478,34.069c-0.099,0.061-0.318,0.164-0.413,0.215
				c-0.099,0.057-0.224,0.061-0.318,0.112c-0.099,0.052-0.207,0.086-0.301,0.138s-0.138,0.207-0.232,0.259
				c-0.099,0.051-0.172,0.154-0.267,0.206s-0.224,0.052-0.318,0.107c-0.095,0.061-0.25,0.021-0.34,0.082
				c-0.095,0.061-0.073,0.284-0.159,0.353c-0.095,0.064-0.25,0.057-0.327,0.13c-0.086,0.077-0.258,0.086-0.327,0.167
				c-0.078,0.091-0.181,0.189-0.237,0.28c-0.064,0.099,0.228,0.37,0.189,0.474c-0.039,0.103-0.271,0.138-0.292,0.245
				c-0.018,0.111,0,0.228,0.013,0.336c0.017,0.107-0.06,0.262-0.021,0.365s0.332,0.073,0.396,0.168
				c0.056,0.091-0.004,0.263,0.073,0.349c0.073,0.077,0.292-0.009,0.378,0.061c0.086,0.068-0.008,0.387,0.091,0.447
				c0.094,0.061,0.254,0.018,0.357,0.077c0.095,0.061,0.271-0.017,0.366,0.043c0.099,0.057,0.104,0.268,0.203,0.327
				c0.099,0.052,0.116,0.263,0.215,0.311c0.099,0.056,0.237,0.043,0.34,0.095c0.099,0.047,0.245,0.008,0.348,0.06
				c0.104,0.052,0.164,0.198,0.263,0.25c0.104,0.043,0.254-0.021,0.357,0.025c0.103,0.043,0.176,0.182,0.28,0.22
				c0.107,0.039,0.284-0.116,0.392-0.077c0.107,0.039,0.25-0.048,0.353-0.018c0.112,0.03,0.121,0.422,0.224,0.448
				c0.112,0.029,0.232,0.047,0.349,0.072c0.112,0.026,0.25-0.043,0.361-0.017c0.116,0.025,0.228,0.056,0.34,0.086
				c0.112,0.018,0.241,0,0.357,0.018c0.112,0.025,0.194,0.228,0.31,0.249c0.116,0.026,0.271-0.198,0.392-0.181
				c0.112,0.026,0.198,0.232,0.31,0.254s0.237-0.013,0.353,0.009c0.116,0.018,0.215,0.134,0.327,0.159
				c0.116,0.018,0.241-0.009,0.353,0.009c0.12,0.017,0.241-0.018,0.357,0c0.116,0.017,0.246-0.069,0.366-0.052
				c0.112,0.018,0.241-0.043,0.357-0.025c0.116,0.017,0.176,0.34,0.289,0.361c0.12,0.025,0.254-0.095,0.37-0.078
				c0.12,0.026,0.232,0.03,0.344,0.052c0.12,0.021,0.207,0.155,0.327,0.173c0.112,0.025,0.224,0.056,0.34,0.077
				c0.116,0.025,0.254-0.061,0.366-0.034c0.112,0.025,0.232,0.017,0.344,0.043c0.112,0.017,0.237-0.048,0.349-0.03
				c0.112,0.013,0.228-0.026,0.349-0.018c0.112,0.009,0.224,0.013,0.336,0.018c0.12,0.009,0.224,0.021,0.344,0.03
				c0.116,0,0.224,0.154,0.34,0.154s0.228-0.008,0.349-0.008c0.112,0,0.224-0.225,0.335-0.225c0.121,0,0.241,0.311,0.353,0.311
				c0.116-0.009,0.22-0.311,0.336-0.311c0.12-0.008,0.241,0.354,0.353,0.349c0.121-0.004,0.229-0.263,0.34-0.263
				c0.116-0.008,0.232,0.225,0.344,0.225c0.116,0,0.228-0.327,0.349-0.327c0.112,0,0.224,0.271,0.34,0.275
				c0.116,0.004,0.241-0.232,0.353-0.229c0.116,0.005,0.22,0.159,0.34,0.168c0.112,0.009,0.232-0.018,0.345-0.009
				c0.111,0.018,0.245-0.086,0.361-0.06c0.111,0.017,0.189,0.267,0.301,0.275c0.112,0.008,0.232-0.057,0.345-0.052
				c0.111,0.004,0.215-0.091,0.327-0.095c0.111-0.005,0.232,0.129,0.344,0.12c0.112-0.009,0.237,0.15,0.349,0.138
				c0.116-0.009,0.207-0.198,0.323-0.215c0.111-0.009,0.241,0.138,0.353,0.125c0.112-0.014,0.181-0.357,0.293-0.37
				c0.112-0.014,0.245,0.159,0.357,0.142c0.111-0.009,0.236,0.129,0.349,0.112c0.111-0.009,0.193-0.306,0.306-0.318
				c0.116-0.009,0.228,0.056,0.34,0.047c0.111-0.004,0.224-0.03,0.336-0.034c0.12,0,0.236,0.099,0.353,0.09s0.232-0.025,0.344-0.034
				c0.121-0.009,0.216-0.198,0.327-0.207c0.121-0.017,0.268,0.28,0.379,0.268c0.116-0.018,0.216-0.164,0.327-0.186
				c0.112-0.017,0.207-0.168,0.327-0.185c0.112-0.021,0.263,0.176,0.374,0.159c0.112-0.021,0.225-0.057,0.341-0.082
				c0.111-0.021,0.176-0.318,0.288-0.34c0.111-0.021,0.232-0.013,0.349-0.03c0.111-0.025,0.263,0.138,0.374,0.112
				c0.112-0.026,0.186-0.225,0.302-0.254c0.111-0.026,0.215-0.1,0.327-0.121c0.111-0.03,0.279,0.189,0.392,0.168
				c0.116-0.025,0.224-0.082,0.336-0.111c0.111-0.026,0.188-0.216,0.301-0.246c0.112-0.021,0.224-0.056,0.336-0.081
				c0.107-0.026,0.232,0.047,0.335,0.008c0.104-0.034,0.25,0.009,0.345-0.038c0.104-0.048,0.168-0.159,0.267-0.216
				c0.1-0.056,0.13-0.219,0.232-0.271c0.095-0.057,0.232-0.039,0.327-0.095c0.104-0.048,0.207-0.095,0.311-0.138
				c0.103-0.043,0.159-0.237,0.267-0.275c0.107-0.043,0.275,0.068,0.387,0.03c0.116-0.039,0.198-0.151,0.311-0.189
				c0.111-0.039,0.232-0.039,0.344-0.082c0.112-0.039,0.194-0.146,0.302-0.189s0.327,0.172,0.435,0.12
				c0.107-0.047,0.254-0.038,0.357-0.095c0.103-0.051,0.038-0.404,0.138-0.469c0.107-0.064,0.154-0.177,0.245-0.25
				c0.099-0.081,0.357,0.014,0.426-0.072c0.086-0.1,0.267-0.155,0.327-0.25c0.056-0.112-0.275-0.366-0.245-0.482
				c0.025-0.12,0.263-0.189,0.263-0.31c-0.009-0.116,0.103-0.284,0.064-0.404c-0.034-0.112-0.15-0.22-0.211-0.332
				c-0.061-0.103-0.25-0.124-0.323-0.224c-0.073-0.09-0.12-0.206-0.211-0.297c-0.086-0.077-0.219-0.104-0.318-0.181
				c-0.116-0.086-0.111-0.379-0.206-0.422c-0.138-0.056-0.413-0.095-0.517-0.052c-0.099,0.039-0.095,0.336-0.164,0.461
				c-0.056,0.095,0.087,0.275,0.039,0.409c-0.039,0.099-0.193,0.163-0.236,0.267c-0.043,0.095-0.104,0.198-0.155,0.284
				c-0.052,0.095-0.025,0.262-0.09,0.349c-0.065,0.09-0.194,0.154-0.271,0.228c-0.082,0.078-0.336-0.017-0.422,0.061
				c-0.095,0.073-0.172,0.159-0.267,0.232c-0.095,0.068-0.173,0.163-0.267,0.232c-0.104,0.068-0.125,0.249-0.225,0.31
				c-0.095,0.061-0.292-0.034-0.396,0.026c-0.104,0.06-0.245,0.043-0.349,0.099s-0.168,0.185-0.271,0.236
				c-0.111,0.048-0.12,0.311-0.232,0.357c-0.103,0.043-0.284-0.073-0.396-0.03c-0.112,0.039-0.172,0.229-0.284,0.268
				c-0.112,0.043-0.202,0.163-0.314,0.197c-0.116,0.035-0.313-0.224-0.435-0.189c-0.111,0.035-0.249-0.025-0.361,0.005
				c-0.116,0.03-0.155,0.349-0.267,0.383c-0.121,0.025-0.267-0.095-0.383-0.073c-0.116,0.03-0.186,0.279-0.302,0.306
				c-0.116,0.025-0.224,0.09-0.336,0.112c-0.116,0.025-0.254-0.078-0.365-0.052c-0.121,0.021-0.284-0.202-0.396-0.186
				c-0.111,0.021-0.181,0.314-0.292,0.331c-0.121,0.018-0.232,0.069-0.345,0.087c-0.112,0.017-0.267-0.194-0.388-0.177
				c-0.111,0.021-0.197,0.229-0.318,0.245c-0.111,0.021-0.224,0.104-0.335,0.125c-0.121,0.018-0.237,0.018-0.354,0.034
				c-0.116,0.013-0.236-0.004-0.353,0.013c-0.121,0.018-0.263-0.188-0.379-0.181c-0.116,0.018-0.215,0.189-0.331,0.207
				c-0.116,0.009-0.237,0-0.357,0.009c-0.112,0.008-0.224,0.12-0.34,0.133c-0.116,0.009-0.246-0.111-0.366-0.103
				c-0.112,0.008-0.215,0.185-0.336,0.193c-0.111,0.009-0.236-0.018-0.353-0.018c-0.116,0.009-0.25-0.301-0.37-0.288
				c-0.112,0.004-0.215,0.236-0.336,0.245c-0.116,0.009-0.228,0.168-0.344,0.172c-0.116,0.005-0.241-0.271-0.362-0.271
				c-0.111,0.004-0.224,0.189-0.344,0.193c-0.116,0.005-0.232-0.004-0.349,0c-0.116,0-0.236,0.026-0.349,0.026
				c-0.12,0-0.232-0.155-0.353-0.155c-0.116,0-0.232-0.034-0.349-0.034s-0.237-0.112-0.349-0.112
				c-0.121-0.009-0.237-0.009-0.353-0.018c-0.116-0.004-0.25,0.366-0.361,0.362c-0.121-0.009-0.232-0.061-0.353-0.064
				c-0.116-0.005-0.228-0.168-0.344-0.168c-0.116-0.009-0.228-0.112-0.344-0.112c-0.121-0.009-0.232-0.104-0.344-0.112
				c-0.121-0.008-0.25,0.146-0.366,0.138c-0.116-0.008-0.228-0.051-0.349-0.06c-0.112-0.009-0.224-0.061-0.344-0.069
				c-0.116-0.009-0.228-0.077-0.344-0.086c-0.116-0.017-0.25,0.155-0.362,0.155c-0.121,0-0.237-0.043-0.357-0.03
				c-0.116,0.009-0.224,0.138-0.34,0.146c-0.121,0.013-0.232,0.104-0.353,0.116c-0.112,0-0.246-0.143-0.357-0.146
				c-0.116-0.004-0.228-0.077-0.349-0.095c-0.112-0.018-0.224-0.034-0.344-0.069c-0.112-0.029-0.275,0.082-0.387,0.048
				c-0.112-0.039-0.112-0.357-0.224-0.404c-0.103-0.048-0.25,0.004-0.357-0.039c-0.108-0.047-0.211-0.104-0.319-0.15
				c-0.107-0.048-0.185-0.186-0.292-0.229c-0.112-0.043-0.263,0.026-0.375-0.013s-0.181-0.207-0.292-0.245
				c-0.112-0.043-0.224-0.095-0.336-0.138c-0.112-0.039-0.353,0.301-0.464,0.258c-0.112-0.039-0.125-0.357-0.237-0.396
				c-0.116-0.043-0.289,0.095-0.4,0.052c-0.112-0.039-0.146-0.284-0.258-0.327c-0.112-0.039-0.215-0.112-0.318-0.155
				c-0.112-0.047-0.207-0.112-0.318-0.159c-0.112-0.043-0.357,0.215-0.465,0.168c-0.108-0.052-0.078-0.4-0.181-0.456
				c-0.108-0.052-0.232-0.048-0.34-0.104c-0.103-0.056-0.219-0.069-0.31-0.129c-0.104-0.061-0.198-0.107-0.289-0.173
				c-0.095-0.064-0.31,0.009-0.387-0.06c-0.086-0.082,0.026-0.345-0.043-0.422c-0.069-0.091-0.379-0.018-0.431-0.116
				c-0.051-0.1,0.061-0.284,0.026-0.392c-0.03-0.104,0.026-0.22,0.017-0.332c-0.017-0.107-0.129-0.206-0.129-0.322
				c0-0.107,0.086-0.211,0.104-0.327c0.017-0.112-0.155-0.25-0.129-0.366c0.021-0.103,0.258-0.167,0.284-0.279
				c0.03-0.104-0.207-0.293-0.168-0.404C14.146,34.341,14.439,34.177,14.478,34.069z"/>
		</g>
		<g>
			<path d="M24.562,30.007c-0.013,0.12-0.332,0.224-0.349,0.336c-0.018,0.111,0.15,0.254,0.12,0.365
				c-0.025,0.116-0.25,0.168-0.279,0.271c-0.039,0.111-0.078,0.206-0.116,0.31c-0.043,0.104,0.189,0.34,0.142,0.439
				c-0.056,0.103-0.142,0.189-0.202,0.292c-0.06,0.095-0.133,0.189-0.207,0.284c-0.069,0.091-0.301,0.048-0.379,0.129
				c-0.073,0.087-0.198,0.104-0.284,0.182c-0.086,0.077-0.018,0.326-0.104,0.399c-0.09,0.073-0.314-0.047-0.409,0.021
				c-0.095,0.069-0.056,0.327-0.151,0.388c-0.103,0.061-0.288-0.052-0.392,0.009c-0.107,0.061-0.168,0.297-0.306,0.301
				c-0.138,0.005-0.335,0.061-0.447,0.014c-0.061-0.021,0.168-0.311,0.164-0.47c-0.004-0.12-0.275-0.254-0.267-0.357
				c0.009-0.103,0.078-0.215,0.112-0.318c0.03-0.103,0.086-0.202,0.125-0.297c0.047-0.116,0.306-0.146,0.34-0.258
				c0.043-0.112-0.193-0.31-0.164-0.422c0.03-0.12-0.03-0.241-0.008-0.353c0.017-0.121,0.353-0.198,0.357-0.319
				c0.009-0.111,0.009-0.249,0.004-0.365s-0.082-0.245-0.095-0.357c-0.017-0.12-0.021-0.25-0.052-0.366
				c-0.025-0.111-0.043-0.245-0.086-0.356c-0.034-0.112-0.121-0.216-0.176-0.327c-0.047-0.104-0.151-0.189-0.215-0.293
				c-0.056-0.095-0.28-0.095-0.349-0.185c-0.064-0.095-0.15-0.164-0.224-0.254c-0.078-0.087-0.181-0.138-0.263-0.225
				c-0.082-0.077-0.073-0.253-0.159-0.331c-0.095-0.073-0.021-0.327-0.103-0.409c-0.086-0.078-0.366,0.043-0.448-0.039
				c-0.078-0.086-0.155-0.189-0.228-0.275c-0.078-0.09,0.09-0.375,0.017-0.469c-0.073-0.091-0.327-0.035-0.392-0.129
				c-0.069-0.095-0.116-0.207-0.181-0.301c-0.061-0.103-0.241-0.138-0.297-0.241c-0.056-0.104-0.091-0.224-0.134-0.332
				c-0.051-0.107,0.112-0.297,0.069-0.405c-0.039-0.107,0.052-0.245,0.018-0.357c-0.03-0.112-0.25-0.172-0.276-0.284
				c-0.017-0.112-0.254-0.198-0.267-0.314s0.215-0.263,0.211-0.375s-0.104-0.228-0.104-0.344s-0.129-0.25-0.12-0.362
				c0.008-0.121,0.112-0.232,0.129-0.344c0.021-0.116,0.047-0.237,0.073-0.349c0.021-0.112-0.086-0.262-0.052-0.383
				c0.026-0.112,0.271-0.164,0.31-0.275c0.034-0.112,0.176-0.181,0.224-0.289c0.039-0.107,0.06-0.219,0.112-0.327
				c0.043-0.103-0.034-0.271,0.021-0.375c0.056-0.107,0.116-0.207,0.168-0.318c0.043-0.107,0.168-0.189,0.215-0.301
				c0.043-0.112-0.146-0.31-0.104-0.422c0.043-0.112,0.052-0.241,0.095-0.353c0.047-0.112,0.474-0.065,0.525-0.172
				c0.047-0.112,0.047-0.228,0.104-0.332c0.06-0.107-0.142-0.374-0.078-0.469c0.078-0.104,0.142-0.241,0.224-0.327
				c0.077-0.086,0.284-0.061,0.37-0.138c0.086-0.078,0.146-0.198,0.241-0.267c0.095-0.073,0.146-0.207,0.246-0.275
				c0.094-0.069,0.4,0.172,0.499,0.112c0.099-0.06,0.215-0.082,0.318-0.146c0.099-0.056,0.151-0.207,0.254-0.263
				c0.104-0.056,0.052-0.375,0.155-0.435c0.103-0.061,0.37,0.172,0.473,0.112c0.104-0.06,0.241-0.06,0.336-0.116
				c0.103-0.06,0-0.469,0.103-0.525c0.069-0.047,0.732,0.327,0.723,0.392c-0.009,0.121-0.292,0.207-0.327,0.318
				c-0.043,0.112-0.138,0.189-0.189,0.292c-0.056,0.104,0.086,0.301,0.035,0.4c-0.052,0.104-0.198,0.159-0.25,0.254
				c-0.056,0.104-0.293,0.104-0.349,0.207c-0.056,0.104-0.047,0.237-0.104,0.336c-0.056,0.099-0.017,0.25-0.073,0.349
				c-0.052,0.099-0.017,0.254-0.069,0.349c-0.056,0.103-0.017,0.25-0.073,0.353c-0.056,0.104-0.112,0.198-0.167,0.301
				c-0.052,0.104-0.189,0.155-0.246,0.254c-0.047,0.104-0.254,0.125-0.306,0.228c-0.051,0.104-0.086,0.215-0.133,0.319
				c-0.047,0.103-0.125,0.198-0.168,0.301c-0.043,0.103,0.138,0.31,0.095,0.413c-0.043,0.112-0.37,0.095-0.404,0.198
				c-0.043,0.099,0.25,0.28,0.241,0.392c-0.008,0.104-0.207,0.203-0.193,0.314c0.008,0.107-0.164,0.25-0.142,0.361
				c0.017,0.104,0.198,0.185,0.224,0.293c0.021,0.112,0.232,0.181,0.254,0.288c0.018,0.107-0.176,0.254-0.167,0.357
				c0.017,0.112,0.31,0.181,0.327,0.288c0.018,0.116-0.267,0.293-0.232,0.4c0.026,0.107-0.034,0.267,0.009,0.37
				c0.035,0.103,0.181,0.181,0.232,0.284c0.047,0.099,0.379,0.056,0.435,0.155c0.056,0.095,0.064,0.211,0.125,0.301
				c0.06,0.095-0.069,0.318-0.009,0.413c0.061,0.095,0.37,0.013,0.435,0.104c0.065,0.095,0.065,0.232,0.134,0.318
				c0.064,0.095,0.207,0.129,0.271,0.219s-0.211,0.443-0.142,0.534c0.064,0.09,0.215,0.116,0.28,0.207
				c0.069,0.091,0.284,0.073,0.349,0.168c0.06,0.095,0.009,0.263,0.064,0.362c0.064,0.094,0.151,0.172,0.207,0.267
				c0.064,0.111,0.021,0.257,0.069,0.374c0.047,0.112,0.159,0.193,0.203,0.31c0.039,0.116,0.021,0.245,0.06,0.366
				c0.034,0.12,0.047,0.245,0.078,0.361c0.034,0.116,0.181,0.207,0.215,0.323C24.325,29.8,24.522,29.891,24.562,30.007z
				 M22.999,31.298c0.104,0.009,0.241,0.241,0.344,0.245c0.013-0.107-0.103-0.357-0.086-0.46c0.017-0.112,0.241-0.189,0.258-0.297
				c0.017-0.116,0.039-0.229,0.052-0.341c0.017-0.111-0.293-0.245-0.284-0.356c0-0.112,0.03-0.211,0.008-0.319
				c-0.017-0.115-0.025-0.224-0.051-0.335c-0.021-0.112,0.146-0.28,0.116-0.392c-0.03-0.112,0-0.259-0.039-0.361
				c-0.043-0.112-0.301-0.139-0.353-0.241c-0.047-0.107,0.103-0.311,0.051-0.413c-0.051-0.103-0.323-0.094-0.378-0.189
				c-0.061-0.104,0.034-0.302-0.035-0.396c-0.069-0.095-0.314-0.061-0.387-0.155c-0.069-0.086-0.198-0.129-0.275-0.219
				c-0.069-0.09,0.116-0.405,0.039-0.486c-0.073-0.086-0.366,0.017-0.443-0.069c-0.082-0.086-0.129-0.198-0.207-0.284
				c-0.082-0.078-0.155-0.172-0.241-0.25c-0.073-0.078,0.008-0.31-0.065-0.392c-0.077-0.082-0.357,0.008-0.417-0.082
				c-0.06-0.095-0.202-0.202-0.232-0.306c-0.025-0.112,0.263-0.297,0.232-0.413c-0.025-0.112-0.06-0.219-0.086-0.331
				c-0.026-0.112-0.121-0.207-0.146-0.314c-0.025-0.112-0.034-0.224-0.064-0.335c-0.026-0.112-0.03-0.228-0.056-0.34
				c-0.018-0.112-0.086-0.207-0.104-0.327c-0.017-0.112-0.086-0.215-0.095-0.327c-0.017-0.116-0.207-0.22-0.215-0.336
				c0-0.112-0.03-0.241-0.026-0.353c0.008-0.112-0.021-0.25-0.009-0.361c0.017-0.112,0.168-0.215,0.189-0.327
				s0.275-0.155,0.314-0.267c0.03-0.112-0.193-0.31-0.15-0.422c0.026-0.047,0.021-0.009-0.039-0.112
				c-0.064,0.103-0.323-0.009-0.383,0.086c-0.06,0.104,0.073,0.327,0.017,0.43c-0.064,0.104-0.138,0.198-0.189,0.297
				c-0.06,0.107,0.018,0.275-0.034,0.378c-0.052,0.108-0.121,0.202-0.164,0.306c-0.052,0.112-0.292,0.142-0.332,0.245
				c-0.039,0.116-0.198,0.203-0.228,0.31c-0.034,0.116,0.133,0.289,0.112,0.4c-0.017,0.121,0.181,0.25,0.181,0.361
				c-0.009,0.121-0.254,0.232-0.246,0.349s0.116,0.22,0.142,0.336s0.181,0.176,0.224,0.292c0.035,0.107-0.008,0.237,0.039,0.344
				c0.047,0.104,0.086,0.207,0.142,0.31c0.056,0.099,0.232,0.12,0.297,0.224c0.064,0.095-0.056,0.31,0.013,0.409
				c0.069,0.095,0.043,0.258,0.121,0.353c0.064,0.095,0.155,0.176,0.232,0.267c0.069,0.09,0.25,0.094,0.327,0.189
				c0.069,0.086,0.133,0.189,0.211,0.284c0.073,0.086,0.082,0.232,0.159,0.318c0.073,0.086,0.335,0.021,0.404,0.112
				c0.073,0.086,0.181,0.155,0.25,0.245c0.078,0.09-0.181,0.431-0.112,0.525c0.065,0.095,0.172,0.15,0.241,0.245
				s0.387,0.009,0.452,0.104c0.065,0.095,0.159,0.185,0.22,0.283c0.056,0.1-0.021,0.28,0.034,0.384
				c0.052,0.103,0.151,0.185,0.198,0.288s0.168,0.189,0.207,0.301c0.043,0.104-0.267,0.327-0.232,0.443
				c0.034,0.108,0.017,0.216,0.043,0.327c0.03,0.112,0.146,0.194,0.172,0.306c0.017,0.112,0.327,0.189,0.344,0.302
				C22.973,31.126,22.956,31.178,22.999,31.298z"/>
		</g>
		<g>
			<path d="M29.11,15.951c-0.039,0.121,0.025,0.387,0,0.499c-0.039,0.112-0.155,0.207-0.189,0.319
				c-0.038,0.12-0.327,0.159-0.361,0.271c-0.034,0.116,0.211,0.323,0.177,0.439c-0.039,0.116-0.245,0.181-0.28,0.297
				c-0.034,0.116-0.154,0.211-0.189,0.327c-0.034,0.121,0.168,0.306,0.13,0.417c-0.035,0.116-0.064,0.237-0.104,0.349
				c-0.034,0.112-0.095,0.215-0.129,0.335c-0.03,0.112-0.207,0.181-0.237,0.284c-0.026,0.112,0.009,0.237-0.013,0.349
				c-0.026,0.112-0.099,0.215-0.112,0.327c-0.018,0.112,0.142,0.245,0.133,0.357c-0.009,0.112-0.31,0.207-0.314,0.318
				c-0.004,0.112,0.172,0.232,0.177,0.349c0.004,0.112,0.133,0.215,0.142,0.327c0.008,0.112-0.112,0.236-0.095,0.349
				c0.017,0.112,0.12,0.207,0.146,0.318c0.021,0.112-0.167,0.275-0.138,0.383c0.026,0.108,0.362,0.129,0.396,0.237
				c0.034,0.112-0.172,0.301-0.134,0.409c0.039,0.104,0.28,0.125,0.327,0.229c0.048,0.103,0.107,0.193,0.159,0.292
				c0.048,0.099-0.142,0.335-0.086,0.43c0.056,0.099,0.15,0.181,0.215,0.28c0.061,0.095,0.061,0.232,0.13,0.327
				c0.06,0.095,0.335,0.039,0.408,0.133c0.064,0.09,0.138,0.185,0.202,0.28c0.069,0.095,0,0.271,0.061,0.375
				c0.061,0.095,0.052,0.228,0.111,0.327c0.057,0.103,0.345,0.078,0.396,0.181c0.056,0.104-0.026,0.267,0.025,0.37
				c0.043,0.107-0.095,0.28-0.052,0.387c0.044,0.108,0.095,0.198,0.125,0.31c0.039,0.107,0.268,0.155,0.293,0.267
				c0.03,0.112,0.15,0.207,0.177,0.319c0.021,0.112-0.095,0.253-0.078,0.369c0.018,0.112,0.018,0.229,0.026,0.341
				c0.009,0.111,0.104,0.228,0.111,0.34c0,0.111-0.258,0.224-0.262,0.335c0,0.112,0.365,0.246,0.353,0.362
				c-0.009,0.111-0.28,0.202-0.297,0.318c-0.013,0.111,0.043,0.232,0.025,0.353c-0.017,0.112,0.104,0.254,0.078,0.366
				c-0.026,0.111-0.159,0.197-0.189,0.31c-0.03,0.107,0.047,0.254,0.009,0.366c-0.035,0.103-0.293,0.142-0.327,0.249
				c-0.03,0.107,0.142,0.284,0.103,0.388c-0.034,0.104-0.24,0.15-0.284,0.254c-0.034,0.107,0.095,0.288,0.048,0.387
				c-0.048,0.1-0.207,0.146-0.263,0.241c-0.064,0.095,0.039,0.34-0.034,0.418c-0.077,0.081-0.34-0.021-0.435,0.043
				c-0.082,0.064-0.116,0.245-0.224,0.293c-0.095,0.043-0.271-0.078-0.383-0.048c-0.087,0.025-0.173-0.064-0.268-0.061
				c-0.095,0.005-0.181,0.03-0.279,0.021c-0.099,0-0.302,0.232-0.4,0.241c0.017-0.095-0.061-0.293-0.061-0.392
				c0.009-0.099-0.017-0.215,0-0.31c0.013-0.1,0.164-0.202,0.207-0.288c0.056-0.108,0.121-0.198,0.172-0.311
				c0.043-0.104,0.198-0.172,0.241-0.275c0.043-0.111,0.095-0.224,0.134-0.327c0.034-0.111,0.197-0.206,0.224-0.318
				c0.03-0.111-0.057-0.258-0.039-0.374c0.013-0.116-0.047-0.245-0.043-0.357c0.009-0.12-0.034-0.236-0.043-0.353
				c-0.009-0.112,0.129-0.259,0.112-0.37c-0.018-0.112-0.319-0.168-0.354-0.284c-0.025-0.112-0.068-0.207-0.111-0.323
				c-0.035-0.107,0.025-0.254-0.018-0.357c-0.048-0.103,0.068-0.283,0.018-0.378c-0.043-0.104-0.233-0.138-0.28-0.241
				c-0.047-0.095,0.043-0.275-0.013-0.375c-0.051-0.099-0.254-0.116-0.31-0.21c-0.056-0.099-0.258-0.104-0.319-0.198
				c-0.056-0.095,0.164-0.37,0.104-0.456c-0.06-0.095-0.155-0.168-0.215-0.263c-0.064-0.094-0.043-0.245-0.103-0.335
				c-0.064-0.09-0.284-0.073-0.353-0.164s0.026-0.289-0.043-0.383c-0.069-0.086-0.232-0.104-0.297-0.198
				c-0.065-0.086-0.181-0.138-0.246-0.232c-0.069-0.086-0.073-0.215-0.138-0.31c-0.06-0.095-0.017-0.246-0.069-0.345
				c-0.056-0.099-0.491-0.004-0.542-0.107c-0.047-0.103,0.017-0.263-0.021-0.366c-0.039-0.112,0.086-0.271,0.056-0.379
				c-0.034-0.107-0.202-0.181-0.224-0.292c-0.026-0.112,0.155-0.254,0.138-0.37c-0.017-0.112,0.03-0.215,0.021-0.327
				s-0.366-0.207-0.375-0.318c0-0.112,0.069-0.237,0.073-0.349s0.176-0.211,0.189-0.323c0.013-0.112-0.129-0.25-0.108-0.362
				c0.021-0.112,0.297-0.159,0.323-0.267c0.03-0.112-0.082-0.258-0.047-0.362c0.034-0.103,0.094-0.207,0.133-0.31
				c0.039-0.112,0.064-0.224,0.112-0.327s-0.095-0.301-0.039-0.404c0.051-0.104,0.258-0.121,0.318-0.224
				c0.052-0.095,0.103-0.198,0.164-0.301c0.06-0.095,0.258-0.103,0.327-0.198c0.06-0.095,0.069-0.224,0.138-0.319
				c0.06-0.094,0.146-0.176,0.215-0.267c0.069-0.095-0.12-0.37-0.056-0.465c0.069-0.095,0.46,0.052,0.525-0.043
				c0.069-0.095-0.125-0.379-0.056-0.474c0.069-0.086,0.387,0.009,0.452-0.086c0.064-0.09-0.013-0.297,0.056-0.387
				s0.301-0.061,0.37-0.155c0.069-0.091,0.146-0.181,0.21-0.271c0.069-0.095-0.12-0.366-0.056-0.46s0.155-0.168,0.216-0.267
				c0.038-0.052,0.197-0.086,0.378-0.104C28.771,15.999,28.977,15.977,29.11,15.951z M26.653,20.586
				c-0.056,0.099,0.099,0.168,0.047,0.271c-0.047,0.104-0.172,0.159-0.215,0.263c-0.043,0.103-0.331,0.112-0.37,0.219
				c-0.034,0.112,0.207,0.306,0.181,0.413c-0.035,0.108-0.237,0.172-0.258,0.28c-0.026,0.112-0.129,0.211-0.146,0.323
				c-0.009,0.112,0.224,0.241,0.215,0.353c0,0.112,0,0.215,0.008,0.327c0,0.112-0.017,0.215,0,0.327
				c0.022,0.112-0.112,0.25-0.077,0.357c0.026,0.108,0.121,0.198,0.155,0.306c0.043,0.104,0.035,0.232,0.082,0.336
				c0.047,0.099,0.254,0.112,0.31,0.211c0.064,0.103-0.129,0.357-0.064,0.46c0.06,0.095,0.271,0.103,0.335,0.207
				c0.061,0.095,0.232,0.129,0.293,0.228c0.069,0.099,0.021,0.271,0.086,0.366c0.069,0.099,0.207,0.146,0.271,0.25
				c0.065,0.095-0.047,0.319,0.018,0.413c0.069,0.104,0.392,0.022,0.46,0.116c0.065,0.099-0.082,0.345-0.018,0.439
				c0.07,0.095,0.31,0.065,0.383,0.168c0.073,0.095,0.15,0.181,0.22,0.275c0.068,0.095-0.086,0.354-0.018,0.448
				c0.069,0.093,0.173,0.171,0.241,0.266c0.064,0.099,0.073,0.232,0.138,0.331c0.068,0.099,0.31,0.021,0.379,0.116
				c0.09-0.03,0.086-0.021,0.176-0.052c-0.029-0.111,0.087-0.211,0.065-0.322c-0.026-0.116,0.017-0.246-0.009-0.357
				c-0.026-0.112-0.311-0.164-0.336-0.275c-0.025-0.112,0.082-0.263,0.052-0.37c-0.034-0.112,0.111-0.293,0.068-0.396
				c-0.038-0.112-0.111-0.232-0.163-0.336c-0.052-0.107-0.301-0.116-0.361-0.219c-0.064-0.104-0.215-0.151-0.284-0.246
				c-0.064-0.099-0.025-0.28-0.095-0.378c-0.073-0.099-0.138-0.203-0.206-0.301c-0.073-0.099-0.211-0.146-0.285-0.246
				c-0.069-0.099,0.086-0.34,0.026-0.443c-0.069-0.103-0.448-0.025-0.5-0.129c-0.056-0.112,0.138-0.327,0.095-0.443
				c-0.039-0.107-0.142-0.193-0.181-0.301c-0.034-0.112-0.207-0.176-0.241-0.288c-0.03-0.112,0.051-0.254,0.025-0.366
				c-0.025-0.112-0.159-0.202-0.185-0.314c-0.021-0.112,0.194-0.267,0.168-0.387c-0.017-0.112-0.25-0.189-0.271-0.301
				s0.138-0.254,0.121-0.366c-0.018-0.116-0.228-0.194-0.254-0.31c-0.018-0.112,0.077-0.245,0.056-0.357
				c-0.017-0.112-0.262-0.189-0.288-0.301C26.502,20.737,26.674,20.703,26.653,20.586z"/>
		</g>
		<g>
			<path d="M35.351,17.66c-0.013,0.112-0.172,0.232-0.189,0.349c-0.021,0.112,0.121,0.241,0.104,0.353s-0.104,0.207-0.12,0.323
				c-0.018,0.112,0.172,0.25,0.154,0.357c-0.008,0.107-0.197,0.198-0.215,0.31c-0.009,0.112-0.095,0.215-0.112,0.327
				c-0.008,0.121,0.177,0.254,0.168,0.366c-0.009,0.116-0.111,0.224-0.116,0.336c-0.004,0.116-0.146,0.228-0.146,0.349
				c0,0.112-0.008,0.232-0.008,0.344c0.008,0.121,0.24,0.224,0.249,0.34s-0.146,0.245-0.138,0.357
				c0.018,0.12,0.112,0.224,0.125,0.335c0.018,0.121-0.22,0.275-0.202,0.387c0.018,0.112,0.447,0.151,0.474,0.263
				c0.025,0.112-0.37,0.323-0.34,0.435c0.029,0.112,0.167,0.203,0.197,0.314s0.271,0.159,0.311,0.271
				c0.038,0.112-0.121,0.284-0.087,0.396c0.039,0.103,0.078,0.215,0.125,0.327c0.039,0.103,0.284,0.133,0.327,0.241
				c0.048,0.108-0.039,0.267,0.009,0.379c0.052,0.104,0.241,0.142,0.293,0.245c0.052,0.104-0.052,0.289,0,0.392
				c0.056,0.104,0.056,0.237,0.111,0.336c0.052,0.103,0.354,0.06,0.413,0.164c0.057,0.103,0.129,0.189,0.189,0.288
				c0.061,0.099-0.013,0.28,0.052,0.375c0.061,0.095-0.104,0.301-0.056,0.405c0.047,0.103,0.099,0.181,0.133,0.292
				c0.039,0.104,0.216,0.164,0.246,0.276c0.025,0.107,0.249,0.189,0.271,0.3c0.018,0.112-0.181,0.259-0.163,0.37
				c0.009,0.112-0.095,0.232-0.095,0.345c0.004,0.111,0.249,0.228,0.249,0.34c0,0.111-0.025,0.232-0.034,0.349
				c-0.009,0.111,0,0.232-0.017,0.344c-0.018,0.116-0.268,0.189-0.289,0.302c-0.021,0.111,0.168,0.271,0.143,0.383
				c-0.035,0.116-0.134,0.207-0.168,0.314c-0.039,0.107,0.025,0.258-0.021,0.37c-0.043,0.107-0.284,0.125-0.336,0.224
				c-0.052,0.104,0.082,0.31,0.018,0.409c-0.057,0.099-0.302,0.073-0.37,0.168c-0.069,0.086,0.052,0.318-0.021,0.404
				s-0.189,0.138-0.263,0.215c-0.078,0.082-0.323,0-0.396,0.069c-0.086,0.077-0.146,0.163-0.224,0.24
				c-0.086,0.069-0.159,0.146-0.245,0.216c-0.086,0.073-0.168,0.142-0.254,0.215c-0.082,0.064-0.172,0.129-0.258,0.198
				c-0.087,0.064,0,0.353-0.087,0.422c-0.068,0.052-0.275-0.232-0.396-0.245c-0.095-0.009-0.172-0.095-0.275-0.116
				c-0.104-0.026-0.392,0.24-0.482,0.232c0.026-0.095,0.173-0.293,0.181-0.396c0.014-0.104-0.146-0.245-0.124-0.34
				c0.025-0.107,0.356-0.048,0.426-0.112c0.086-0.086,0.021-0.306,0.095-0.396c0.077-0.091,0.047-0.245,0.111-0.34
				c0.069-0.1,0.095-0.198,0.146-0.297c0.057-0.104,0.448-0.057,0.486-0.159c0.048-0.112,0.104-0.241,0.13-0.354
				c0.029-0.111-0.022-0.258-0.005-0.379c0.013-0.111-0.25-0.249-0.25-0.365s0.284-0.241,0.276-0.357
				c-0.014-0.112-0.173-0.215-0.198-0.336c-0.018-0.111,0.12-0.267,0.095-0.379c-0.034-0.111-0.03-0.249-0.069-0.361
				c-0.034-0.104-0.292-0.142-0.335-0.249c-0.044-0.108-0.104-0.211-0.146-0.314c-0.052-0.104-0.275-0.112-0.327-0.211
				c-0.052-0.104,0.267-0.417,0.206-0.517c-0.06-0.098-0.232-0.128-0.297-0.227c-0.064-0.1-0.383-0.03-0.443-0.125
				c-0.064-0.095,0.232-0.422,0.173-0.517c-0.065-0.104-0.241-0.121-0.302-0.224c-0.056-0.095-0.104-0.198-0.15-0.301
				c-0.048-0.104-0.064-0.215-0.107-0.319c-0.043-0.103-0.173-0.167-0.211-0.275c-0.035-0.103-0.159-0.185-0.186-0.292
				c-0.03-0.108,0.078-0.246,0.061-0.353c-0.026-0.112-0.034-0.215-0.043-0.327c-0.018-0.112-0.28-0.207-0.293-0.31
				c-0.009-0.112,0.396-0.232,0.396-0.345c0-0.112-0.354-0.236-0.345-0.348c0.009-0.112-0.021-0.232-0.013-0.349
				c0.009-0.112,0.236-0.207,0.254-0.319c0.009-0.112,0.215-0.207,0.232-0.318c0.013-0.112-0.302-0.263-0.288-0.375
				c0.013-0.112,0.197-0.207,0.21-0.318c0.014-0.112,0.116-0.215,0.13-0.327c0.017-0.116-0.259-0.267-0.241-0.378
				c0.018-0.112,0.125-0.215,0.138-0.327c0.018-0.112,0.215-0.198,0.232-0.31s-0.052-0.241-0.034-0.357
				c0.017-0.112-0.052-0.241-0.026-0.353c0.021-0.112,0.005-0.232,0.03-0.344c0.021-0.112,0.159-0.203,0.181-0.314
				c0.026-0.112-0.168-0.271-0.142-0.387c0.025-0.112,0.146-0.202,0.172-0.314c0.025-0.104,0.018-0.276,0.073-0.37
				c0.056-0.091,0.202-0.155,0.271-0.241c0.068-0.086,0.335,0.017,0.413-0.064c0.077-0.078-0.048-0.37,0.038-0.443
				c0.082-0.069,0.28-0.009,0.366-0.086c0.077-0.069,0.224-0.082,0.297-0.155c0.082-0.077,0.099-0.37,0.172-0.443
				C35.109,17.346,35.252,17.557,35.351,17.66z M34.813,26.383c0.03-0.112,0.198-0.232,0.22-0.344
				c0.018-0.112-0.125-0.241-0.116-0.353c0.005-0.112,0.082-0.219,0.073-0.335c-0.009-0.112-0.224-0.189-0.241-0.297
				c-0.017-0.112,0.129-0.246,0.104-0.357c-0.025-0.103,0.018-0.237-0.018-0.344c-0.029-0.107-0.254-0.146-0.292-0.258
				c-0.039-0.103,0.009-0.232-0.026-0.344c-0.038-0.103,0.052-0.254,0.009-0.357c-0.039-0.104-0.061-0.215-0.104-0.319
				c-0.034-0.103-0.292-0.142-0.327-0.245c-0.034-0.104,0.091-0.263,0.061-0.37c-0.034-0.107-0.138-0.198-0.163-0.31
				c-0.021-0.107,0.211-0.258,0.197-0.37c-0.017-0.112-0.249,0.018-0.258-0.095c-0.043,0.104-0.267-0.069-0.302,0.039
				c-0.034,0.112,0.03,0.262,0,0.375c-0.034,0.112,0.151,0.275,0.125,0.387c-0.03,0.112-0.254,0.185-0.271,0.297
				c-0.018,0.116-0.039,0.237-0.052,0.349c-0.018,0.112,0.189,0.25,0.189,0.361c-0.009,0.116-0.155,0.228-0.155,0.34
				c0,0.116,0.163,0.228,0.177,0.34c0.008,0.112-0.151,0.25-0.134,0.357c0.018,0.116-0.018,0.25,0.009,0.357
				c0.03,0.121,0.331,0.138,0.365,0.241c0.048,0.112,0.1,0.189,0.151,0.28c0.06,0.103-0.018,0.271,0.056,0.357
				c0.077,0.086,0.009,0.357,0.099,0.422c0.095,0.078,0.181,0.086,0.284,0.125c0.03,0.116,0.172,0.116,0.198,0.232
				c0.034,0.116,0.263,0.181,0.293,0.297c0.029,0.116-0.146,0.284-0.112,0.4c0.025,0.116-0.052,0.263-0.021,0.375
				c0.03,0.121,0.301,0.172,0.331,0.289c0.035,0.116,0.048,0.236,0.078,0.348c0.034,0.12,0.081,0.224,0.111,0.344
				c0.034,0.116-0.163,0.284-0.133,0.405c0.029,0.116,0.271,0.172,0.306,0.292c0.029,0.112-0.009,0.246,0.017,0.362
				c0.026,0.115,0.172,0.202,0.198,0.313c0.03,0.116-0.146,0.28-0.116,0.396s0.271,0.176,0.297,0.288
				c0.025,0.12-0.15,0.284-0.12,0.404c0.025,0.112,0.138,0.034,0.163,0.15c0.061-0.103-0.034-0.081,0.013-0.185
				c0.048-0.107,0.311-0.116,0.349-0.22c0.048-0.107,0.069-0.228,0.104-0.336c0.039-0.116,0.068-0.228,0.095-0.34
				c0.025-0.111,0.056-0.236,0.073-0.349c0.021-0.116,0.047-0.232,0.056-0.349c0.013-0.12-0.263-0.24-0.258-0.353
				c0-0.12,0.327-0.245,0.318-0.357c-0.009-0.116,0.034-0.254,0.017-0.365c-0.021-0.121-0.404-0.146-0.435-0.254
				c-0.029-0.112,0.086-0.262,0.039-0.375c-0.047-0.103-0.254-0.112-0.31-0.215c-0.061-0.095,0.154-0.388,0.086-0.478
				c-0.077-0.09-0.302-0.047-0.388-0.125c-0.086-0.078-0.232-0.056-0.336-0.121c-0.094-0.061-0.181-0.086-0.292-0.138
				C35.007,26.59,34.925,26.418,34.813,26.383z"/>
		</g>
	</g>
</g>
</svg>
