<?xml version="1.0" encoding="utf-8"?>
<!-- Generator: Adobe Illustrator 16.0.0, SVG Export Plug-In . SVG Version: 6.00 Build 0)  -->
<!DOCTYPE svg PUBLIC "-//W3C//DTD SVG 1.1//EN" "http://www.w3.org/Graphics/SVG/1.1/DTD/svg11.dtd">
<svg version="1.1" id="圖層_1" xmlns="http://www.w3.org/2000/svg" xmlns:xlink="http://www.w3.org/1999/xlink" x="0px" y="0px"
	 width="55px" height="55px" viewBox="0 0 55 55" enable-background="new 0 0 55 55" xml:space="preserve">
<g>
	<path fill="#E2D0E2" d="M26.295,20.452c0.873,0.461,1.28,0.903,1.072,1.747c-0.05,0.199,0.119,0.546,0.298,0.68
		c0.119,0.094,0.437-0.03,0.655-0.094c0.511-0.144,1.042-0.492,1.528-0.427c1.847,0.238,3.679,0.586,5.51,0.933
		c1.082,0.208,2.194,0.368,3.212,0.76c1.568,0.605,3.092,1.345,4.581,2.129c0.903,0.477,1.797,1.052,2.517,1.767
		c1.147,1.143,2.273,2.333,3.152,3.679c0.829,1.256,0.655,2.671-0.219,3.966c-0.144,0.219-0.139,0.626-0.055,0.898
		c0.586,1.911,0.174,3.648-1.018,5.167c-0.387,0.492-0.516,0.904-0.337,1.43c0.824,2.418-0.188,4.239-1.861,5.838
		c-1.872,1.797-4.016,2.114-6.379,1.092c-0.486-0.208-0.794-0.184-0.992,0.407c-0.824,2.452-3.882,3.544-6.046,2.114
		c-0.765-0.511-1.222-0.774-1.808,0.248c-0.525,0.903-2.63,1.048-3.633,0.159c-1.33-1.191-2.671-2.481-3.624-3.971
		c-1.236-1.932-2.283-4.031-3.042-6.195c-0.531-1.514-0.601-3.246-0.571-4.879c0.04-1.906,0.397-3.813,0.625-5.714
		c0.049-0.456,0.109-0.918,0.144-1.385c0.035-0.641-0.144-1.052-0.918-1.117c-0.392-0.029-0.903-0.282-1.107-0.595
		c-0.233-0.357-0.343-0.964-0.194-1.321c0.104-0.258,0.765-0.451,1.132-0.396c0.596,0.094,1.107-0.03,0.859-0.596
		c-0.422-0.953-0.129-1.494,0.372-2.333c0.581-0.963,1.331-1.519,2.224-2.005c0.725-0.387,1.459-0.467,2.213,0.01
		c0.521,0.338,0.903,0.298,1.053-0.457C25.749,21.484,26.057,21.007,26.295,20.452z M28.638,36.256
		c0.65,0.829,1.191,1.425,1.618,2.095c1.072,1.688,2.07,3.42,3.157,5.103c0.188,0.288,0.784,0.655,0.963,0.557
		c0.665-0.357,0.129-0.789-0.114-1.137c-0.69-0.998-1.449-1.951-2.109-2.964c-0.348-0.531-0.497-1.201-0.854-1.732
		c-0.486-0.729-1.072-1.404-1.678-2.05C29.517,36.008,29.095,36.187,28.638,36.256z M24.577,36.296
		c-0.387,0.844-0.625,1.449-0.079,2.194c0.288,0.387,0.308,0.982,0.437,1.483c0.055,0.224,0.045,0.467,0.129,0.671
		c0.626,1.514,1.261,3.027,1.916,4.526c0.109,0.238,0.357,0.417,0.531,0.626c0.085-0.288,0.303-0.616,0.229-0.845
		c-0.263-0.823-0.67-1.607-0.948-2.432c-0.317-0.953-0.517-1.956-0.814-2.924c-0.303-0.958-0.654-1.906-1.002-2.844
		C24.935,36.634,24.796,36.534,24.577,36.296z M34.112,28.503c-0.089,0.119-0.184,0.233-0.272,0.353
		c0.303,0.253,0.565,0.57,0.903,0.744c1.559,0.77,3.146,1.484,4.705,2.249c0.646,0.317,1.231,0.734,1.877,1.052
		c0.277,0.14,0.62,0.159,0.933,0.233c0.035-0.104,0.064-0.203,0.1-0.313C39.896,30.826,36.888,29.893,34.112,28.503z M39.627,38.848
		c0.09-0.104,0.174-0.214,0.264-0.318c-0.1-0.169-0.154-0.392-0.293-0.506c-1.946-1.549-3.882-3.093-5.857-4.606
		c-0.203-0.149-0.586-0.069-0.884-0.1c0.149,0.233,0.249,0.526,0.447,0.695c1.311,1.082,2.631,2.164,3.98,3.201
		C38.029,37.79,38.838,38.301,39.627,38.848z"/>
	<path fill="#9EB6B7" d="M16.466,35.551c-0.238,0.224-0.268,0.238-0.278,0.269c-0.233,0.576-0.372,1.578-0.71,1.647
		c-0.834,0.179-1.762-0.054-2.646-0.163c-0.437-0.055-0.903-0.134-1.271-0.348c-0.387-0.219-0.854-0.561-0.943-0.929
		c-0.099-0.401,0.099-0.963,0.357-1.33c0.199-0.288,0.675-0.387,1.032-0.565c-0.149-0.188-0.292-0.378-0.447-0.562
		c-0.317,0.145-0.66,0.259-0.953,0.452c-1.211,0.77-2.115,0.804-3.117,0.079c-0.69-0.491-0.69-1.106,0.119-1.375
		c0.705-0.238,1.519-0.193,2.273-0.282c0.263-0.03,0.705-0.045,0.735-0.154c0.06-0.258-0.02-0.581-0.129-0.849
		c-0.318-0.794-0.636-1.594-1.028-2.353c-0.452-0.864-1.087-1.644-1.464-2.542c-1.37-3.236-2.144-6.666-2.34-10.156
		C5.457,12.837,5.419,9.233,7.045,5.888c0.874-1.792,1.911-3.504,4.09-3.703c1.052-0.089,2.184,0.318,3.227,0.675
		c0.417,0.139,0.616,0.218,0.953-0.08c1.856-1.618,3.693-1.712,5.877-0.357c0.119,0.08,0.303,0.159,0.422,0.119
		c0.74-0.233,1.45-0.596,2.209-0.734c0.928-0.179,1.916-0.337,2.839-0.218c2.492,0.317,4.706,1.271,6.12,3.479
		c0.367,0.576,0.551,1.33,0.621,2.02c0.108,0.993,0.525,1.638,1.39,2.025c1.722,0.764,3.216,2.834,2.898,4.586
		c-0.148,0.854,0.04,1.211,0.924,1.439c1.623,0.417,2.392,2.542,1.638,4.041c-0.507,1.003-0.884,2.075-1.36,3.098
		c-0.313,0.685-0.765,0.794-1.578,0.645c-2.8-0.526-5.639-0.864-8.458-1.311c-0.254-0.044-0.576-0.317-0.666-0.556
		c-0.277-0.685-0.615-1.231-1.424-1.291c-0.854-0.06-1.396,0.322-1.772,1.092c-0.129,0.268-0.586,0.566-0.863,0.541
		c-1.425-0.134-2.591,0.497-3.604,1.306c-1.618,1.3-1.668,1.549-1.876,3.306c-0.64,0.566-1.3,0.903-1.578,1.45
		c-0.636,1.25-0.169,2.283,1.271,2.79c0.973,0.343,1.072,0.908,0.839,1.728c-0.313,1.102-0.67,2.199-0.953,3.306
		c-0.055,0.229,0.134,0.506,0.139,0.765c0.005,0.313-0.075,0.625-0.119,0.943c-0.323-0.119-0.7-0.159-0.948-0.368
		C16.973,36.336,16.754,35.938,16.466,35.551z M20.179,8.519c-0.129-0.04-0.258-0.08-0.382-0.119
		c-0.119,0.218-0.283,0.427-0.353,0.665c-0.472,1.544-0.923,3.087-1.39,4.636c-0.149,0.506-0.357,1.003-0.466,1.519
		c-0.169,0.844-0.229,1.698-0.422,2.531c-0.293,1.276-0.68,2.532-0.983,3.797c-0.045,0.194,0.094,0.432,0.154,0.66
		c0.193-0.154,0.397-0.288,0.571-0.457c0.075-0.08,0.075-0.233,0.109-0.353c0.988-3.757,1.98-7.52,2.953-11.283
		C20.09,9.591,20.11,9.05,20.179,8.519z M11.016,23.648c0.129,0.01,0.253,0.02,0.387,0.04c0.08-0.249,0.213-0.497,0.229-0.745
		c0.03-0.402-0.06-0.809-0.035-1.211c0.159-2.7,0.352-5.391,0.496-8.091c0.015-0.303-0.193-0.625-0.303-0.943
		c-0.139,0.278-0.377,0.546-0.402,0.833c-0.075,1.122-1.038,2.135-0.422,3.356c0.06,0.129-0.149,0.387-0.214,0.59
		c-0.054,0.174-0.144,0.348-0.129,0.521c0.05,0.864,0.129,1.722,0.194,2.586C10.887,21.603,10.947,22.625,11.016,23.648z
		 M31.254,12.479c-0.14-0.099-0.278-0.208-0.422-0.313c-0.388,0.477-0.779,0.948-1.147,1.435c-0.699,0.933-1.424,1.856-2.064,2.829
		c-0.203,0.323-0.174,0.804-0.248,1.211c0.139,0.06,0.283,0.119,0.422,0.174C28.945,16.039,30.097,14.267,31.254,12.479z"/>
	<g>
		<g>
			<path d="M39.379,23.142c0.119,0.06,0.045,0.129,0.164,0.189c0.119,0.055,0.303-0.02,0.422,0.035
				c0.119,0.064,0.09,0.422,0.198,0.481c0.119,0.06,0.309-0.015,0.417,0.05c0.119,0.06,0.298,0.01,0.412,0.069
				s0.184,0.213,0.303,0.278c0.109,0.06,0.169,0.229,0.288,0.293c0.114,0.064,0.288,0.02,0.407,0.084
				c0.109,0.06,0.248,0.084,0.367,0.149c0.109,0.069,0.184,0.198,0.298,0.268c0.114,0.069,0.149,0.263,0.263,0.333
				c0.114,0.064,0.293,0.025,0.402,0.094c0.119,0.064,0.357-0.074,0.467-0.01c0.119,0.069,0.174,0.228,0.278,0.298
				c0.108,0.069,0.024,0.457,0.134,0.526c0.104,0.075,0.258,0.084,0.367,0.159c0.104,0.069,0.233,0.119,0.343,0.188
				c0.108,0.074,0.337-0.03,0.446,0.04c0.109,0.08,0.09,0.328,0.198,0.407c0.104,0.079,0.199,0.168,0.309,0.248
				c0.099,0.08,0.317,0.01,0.422,0.094c0.104,0.084,0.272,0.075,0.377,0.159c0.104,0.084,0.174,0.204,0.283,0.283
				c0.099,0.084,0.248,0.119,0.347,0.203c0.1,0.085,0.03,0.368,0.13,0.457c0.099,0.084,0.258,0.109,0.357,0.193
				c0.099,0.09,0.099,0.264,0.188,0.357c0.089,0.1,0.039,0.293,0.114,0.397c0.074,0.1,0.541-0.06,0.61,0.05
				c0.069,0.108-0.258,0.466-0.188,0.575c0.064,0.114,0.193,0.188,0.258,0.298c0.069,0.109,0.372,0.085,0.437,0.193
				c0.069,0.114,0.129,0.224,0.204,0.328c0.074,0.104,0.024,0.303,0.109,0.397c0.084,0.099,0.292,0.084,0.382,0.174
				c0.094,0.089,0.015,0.382,0.119,0.456c0.029,0.02,0.198-0.034,0.188-0.02c-0.05,0.129-0.01,0.258-0.029,0.387
				c-0.025,0.14-0.194,0.248-0.194,0.388c0,0.134,0.104,0.263,0.119,0.396c0.01,0.135,0.129,0.254,0.145,0.388
				c0.015,0.134,0.094,0.268,0.099,0.407c0.011,0.129-0.069,0.287-0.074,0.422c-0.005,0.134-0.263,0.238-0.293,0.367
				c-0.029,0.129,0.119,0.322,0.055,0.446c-0.055,0.114-0.05,0.313-0.139,0.432c-0.074,0.095-0.357,0.07-0.412,0.209
				c-0.05,0.129-0.293,0.243-0.308,0.382c-0.021,0.145,0.417,0.283,0.437,0.417c0.03,0.129-0.224,0.303-0.208,0.433
				c0.015,0.129,0.198,0.238,0.208,0.367s0.03,0.268,0.035,0.396s-0.204,0.264-0.214,0.393c-0.005,0.129-0.109,0.248-0.124,0.377
				c-0.01,0.129,0.184,0.273,0.164,0.402c-0.01,0.129-0.283,0.213-0.308,0.337c-0.025,0.13,0.01,0.259-0.021,0.388
				c-0.029,0.119,0.308,0.357,0.269,0.477c-0.04,0.129-0.372,0.148-0.417,0.278c-0.05,0.119,0.164,0.347,0.109,0.466
				c-0.05,0.119-0.169,0.219-0.229,0.338c-0.06,0.109-0.317,0.129-0.377,0.238c-0.065,0.119-0.1,0.238-0.169,0.357
				c-0.069,0.104-0.124,0.224-0.199,0.332c-0.055,0.09,0.119,0.313,0.08,0.423c-0.05,0.144-0.348,0.258-0.298,0.337
				c0.069,0.119,0.208,0.198,0.263,0.323c0.05,0.129,0.035,0.282,0.064,0.411c0.04,0.13,0.055,0.259,0.069,0.393
				c0.016,0.139-0.124,0.263-0.129,0.397c-0.005,0.139,0.288,0.293,0.269,0.432c-0.021,0.134,0.069,0.303,0.039,0.437
				c-0.034,0.139-0.401,0.179-0.446,0.313c-0.04,0.13,0.079,0.313,0.034,0.442c-0.044,0.129-0.332,0.169-0.377,0.298
				c-0.055,0.129,0.085,0.332,0.035,0.461c-0.05,0.13-0.199,0.214-0.243,0.348c-0.045,0.124,0.203,0.388,0.144,0.507
				c-0.055,0.124-0.327,0.139-0.397,0.258c-0.069,0.119-0.029,0.303-0.108,0.412c-0.07,0.119-0.308,0.119-0.388,0.229
				c-0.084,0.109-0.069,0.287-0.158,0.387c-0.085,0.109-0.249,0.145-0.338,0.238c-0.095,0.1-0.219,0.159-0.317,0.253
				c-0.1,0.085-0.238,0.13-0.338,0.214c-0.109,0.084-0.149,0.258-0.258,0.332c-0.109,0.08-0.08,0.383-0.189,0.457
				c-0.119,0.074-0.268,0.114-0.377,0.184c-0.119,0.064-0.348-0.064-0.467,0c-0.119,0.06-0.287,0.025-0.411,0.074
				c-0.125,0.055-0.185,0.273-0.313,0.318c-0.129,0.044-0.238,0.139-0.367,0.184c-0.129,0.029-0.303-0.069-0.437-0.04
				c-0.129,0.03-0.224,0.298-0.353,0.323c-0.134,0.02-0.333-0.402-0.467-0.383c-0.134,0.01-0.233,0.486-0.367,0.486
				c-0.134,0.01-0.283-0.313-0.412-0.317c-0.139-0.005-0.268,0.005-0.396-0.01c-0.149-0.015-0.283-0.03-0.428-0.06
				c-0.139-0.035-0.313,0.029-0.451-0.01c-0.139-0.04-0.333,0.094-0.467,0.055c-0.159-0.045-0.214-0.109-0.333-0.095
				c-0.139,0.015-0.277-0.104-0.382,0.01c-0.074,0.09-0.064,0.248-0.134,0.397c-0.06,0.129-0.264,0.174-0.353,0.288
				c-0.084,0.108-0.074,0.317-0.174,0.417c-0.1,0.099-0.327,0.069-0.432,0.168c-0.109,0.09-0.02,0.402-0.124,0.497
				c-0.114,0.099-0.397,0.02-0.546,0.079c-0.14,0.069-0.238,0.184-0.338,0.288c-0.095,0.099-0.224,0.164-0.322,0.238
				c-0.109,0.079-0.135,0.327-0.243,0.387c-0.119,0.06-0.318-0.015-0.438,0.025c-0.129,0.044-0.282-0.03-0.412-0.011
				c-0.129,0.021-0.258-0.029-0.392-0.024c-0.129,0.005-0.258,0.179-0.388,0.179c-0.129-0.01-0.248-0.164-0.377-0.174
				c-0.129-0.015-0.268,0.074-0.397,0.055c-0.129-0.02-0.268,0.03-0.392,0.01c-0.134-0.024-0.253,0.045-0.393,0.04
				c-0.129-0.005-0.258-0.377-0.387-0.388c-0.144-0.01-0.328,0.269-0.457,0.229c-0.129-0.039-0.069-0.417-0.179-0.506
				c-0.099-0.08-0.139-0.109-0.218-0.248c-0.025-0.04-0.338,0.148-0.492,0.179c-0.113,0.024-0.163,0.198-0.248,0.228
				c-0.124,0.055-0.332-0.094-0.451-0.039c-0.119,0.064-0.159,0.288-0.278,0.353s-0.224,0.163-0.343,0.223s-0.248,0.13-0.372,0.189
				c-0.124,0.054-0.387-0.209-0.511-0.164c-0.13,0.045-0.229,0.134-0.357,0.164c-0.135,0.029-0.248,0.108-0.383,0.108
				c-0.129,0-0.248-0.064-0.377-0.084c-0.129-0.024-0.298,0.139-0.427,0.104c-0.124-0.04-0.224-0.174-0.348-0.219
				c-0.119-0.05-0.219-0.139-0.338-0.203s-0.144-0.269-0.253-0.333c-0.114-0.074-0.396,0.119-0.501,0.04
				c-0.109-0.085-0.079-0.328-0.169-0.417c-0.104-0.09-0.224-0.159-0.327-0.253c-0.1-0.095-0.06-0.333-0.169-0.423
				c-0.1-0.094-0.388,0.016-0.486-0.079c-0.1-0.094-0.278-0.114-0.378-0.208c-0.099-0.1-0.099-0.283-0.198-0.383
				c-0.1-0.099-0.203-0.184-0.298-0.282c-0.089-0.1-0.06-0.323-0.154-0.422c-0.094-0.095-0.119-0.259-0.213-0.363
				c-0.09-0.099-0.556,0.13-0.646,0.03c-0.094-0.109,0.035-0.402-0.06-0.506c-0.089-0.1-0.357-0.055-0.447-0.159
				c-0.084-0.104-0.099-0.278-0.188-0.377c-0.089-0.109-0.169-0.224-0.248-0.333c-0.08-0.109-0.258-0.148-0.343-0.258
				s0.184-0.462,0.114-0.576s-0.497-0.029-0.556-0.153c-0.064-0.119-0.02-0.309-0.079-0.433s0.188-0.372,0.139-0.501
				c-0.049-0.124-0.536-0.079-0.585-0.209c-0.05-0.134,0.114-0.337,0.069-0.466c-0.049-0.129-0.323-0.179-0.367-0.308
				c-0.05-0.13,0.06-0.318,0.01-0.442c-0.049-0.129-0.084-0.258-0.139-0.382c-0.05-0.119-0.109-0.233-0.164-0.353
				c-0.049-0.119,0.199-0.362,0.144-0.481c-0.05-0.119-0.447-0.09-0.501-0.209c-0.049-0.119,0.055-0.303,0-0.422
				c-0.049-0.119,0.045-0.303-0.005-0.422s-0.06-0.253-0.114-0.367c-0.049-0.119-0.124-0.229-0.168-0.348
				c-0.055-0.119-0.144-0.228-0.194-0.347c-0.044-0.119-0.089-0.238-0.134-0.357c-0.045-0.119,0-0.283-0.045-0.402
				c-0.049-0.119-0.516-0.064-0.566-0.184c-0.049-0.119,0.089-0.318,0.04-0.438c-0.05-0.119-0.01-0.272-0.055-0.396
				c-0.055-0.139-0.005-0.288-0.035-0.437c-0.02-0.154-0.387-0.309-0.368-0.457c0.03-0.144,0.189-0.258,0.208-0.388
				c0.03-0.148,0.139-0.272,0.159-0.401c0.01-0.154,0.119-0.303,0.119-0.427c0-0.154-0.229-0.273-0.258-0.397
				c-0.045-0.134-0.129-0.209-0.229-0.313c-0.079-0.1-0.02-0.378-0.149-0.467c-0.109-0.064-0.208-0.209-0.337-0.283
				c-0.119-0.055-0.402,0.204-0.541,0.134c-0.114-0.054-0.233-0.356-0.372-0.416c-0.05,0.134-0.238,0.268-0.308,0.377
				c-0.069,0.119-0.03,0.272-0.119,0.367c-0.099,0.095-0.198,0.148-0.313,0.219c-0.114,0.069-0.199,0.163-0.328,0.208
				c-0.124,0.045-0.194,0.348-0.333,0.377c-0.129,0.021-0.293-0.055-0.427-0.049c-0.149,0.01-0.278-0.368-0.422-0.383
				c-0.144-0.015-0.283,0.064-0.422,0.035c-0.139-0.035-0.322,0.119-0.461,0.074c-0.134-0.045-0.194-0.333-0.328-0.372
				c-0.134-0.05-0.333,0.114-0.472,0.079c-0.139-0.04-0.263-0.139-0.402-0.153c-0.144-0.021-0.283,0.134-0.422,0.153
				c-0.129,0.01-0.278,0.035-0.387,0.02c-0.129-0.02-0.253-0.129-0.357-0.184c-0.099-0.049-0.273-0.074-0.362-0.158
				c-0.075-0.08-0.184-0.174-0.258-0.273c-0.084-0.109-0.094-0.268-0.174-0.377c-0.084-0.109,0-0.348-0.079-0.457
				c-0.08-0.104-0.08-0.288-0.169-0.396c-0.08-0.1-0.208-0.174-0.298-0.283c-0.08-0.104-0.308-0.095-0.397-0.209
				C9.333,35.681,9.14,35.81,9.056,35.7c-0.134,0.01-0.184,0.04-0.318,0.029c-0.129-0.01-0.253-0.238-0.382-0.268
				c-0.124-0.03-0.243-0.109-0.367-0.164c-0.119-0.044-0.367,0.124-0.486,0.055c-0.114-0.06-0.248-0.148-0.357-0.233
				c-0.104-0.079-0.099-0.317-0.199-0.412c-0.089-0.089,0.04-0.382-0.055-0.486c-0.094-0.109-0.551,0.064-0.62-0.044
				c-0.075-0.125-0.129-0.304-0.169-0.423c-0.044-0.139,0.213-0.327,0.218-0.456c0.005-0.139-0.049-0.269,0.02-0.397
				c0.064-0.109,0.084-0.283,0.199-0.382c0.089-0.085,0.352,0.064,0.481-0.01c0.114-0.064,0.184-0.174,0.303-0.233
				c0.119-0.05,0.278,0.029,0.407-0.025c0.119-0.044,0.08-0.531,0.199-0.57c0.119-0.04,0.313,0.109,0.437,0.069
				c0.119-0.04,0.179-0.268,0.308-0.313c0.119-0.04,0.357,0.263,0.477,0.218c0.129-0.044,0.069-0.422,0.193-0.466
				c-0.005-0.03,0.119-0.03,0.015-0.14c-0.099-0.094-0.188-0.193-0.268-0.293c-0.08-0.099-0.169-0.203-0.233-0.313
				S8.544,30.31,8.485,30.19c-0.06-0.114,0.228-0.388,0.179-0.507c-0.045-0.118-0.07-0.248-0.119-0.367
				c-0.045-0.119-0.348-0.139-0.387-0.268c-0.045-0.119,0.258-0.377,0.213-0.496c-0.045-0.119-0.119-0.243-0.174-0.357
				c-0.05-0.119-0.089-0.264-0.149-0.373C7.983,27.708,7.83,27.629,7.76,27.52c-0.079-0.104-0.109-0.219-0.179-0.333
				c-0.064-0.114-0.486-0.035-0.541-0.154c-0.054-0.119,0.194-0.377,0.154-0.496c-0.05-0.119-0.199-0.199-0.238-0.323
				c-0.045-0.124-0.08-0.253-0.109-0.372c-0.04-0.129-0.328-0.189-0.357-0.318c-0.035-0.124,0.208-0.318,0.184-0.447
				c-0.025-0.119,0.164-0.293,0.134-0.422c-0.025-0.134-0.353-0.213-0.387-0.348c-0.04-0.134,0.079-0.313,0.04-0.446
				c-0.04-0.134,0.04-0.313,0-0.442c-0.04-0.139-0.144-0.249-0.188-0.387c-0.05-0.129-0.084-0.268-0.129-0.397
				c-0.049-0.129-0.446-0.134-0.494-0.263c-0.047-0.129-0.151-0.243-0.196-0.377c-0.047-0.134,0.295-0.392,0.249-0.521
				c-0.042-0.139-0.333-0.194-0.368-0.328c-0.037-0.139-0.166-0.258-0.198-0.387c-0.03-0.129,0.37-0.348,0.342-0.477
				c-0.02-0.129-0.528-0.184-0.543-0.313c-0.015-0.129,0.263-0.293,0.253-0.432c-0.01-0.129,0.047-0.263,0.037-0.397
				c-0.01-0.129-0.027-0.258-0.032-0.392c-0.005-0.134,0.022-0.263,0.017-0.392c-0.005-0.129,0.057-0.273,0.045-0.402
				c-0.005-0.129-0.164-0.253-0.169-0.387c-0.012-0.139,0.045-0.293,0.035-0.432c-0.01-0.139-0.372-0.253-0.382-0.392
				c-0.01-0.139,0.285-0.313,0.273-0.452C5,16.153,5.104,16.004,5.1,15.865c-0.01-0.139-0.01-0.278-0.015-0.417
				c-0.007-0.144-0.223-0.278-0.223-0.422c0-0.144-0.213-0.292-0.201-0.437c0.005-0.134,0.144-0.268,0.149-0.402
				c0.005-0.134-0.057-0.278-0.052-0.417c0.01-0.134-0.025-0.273-0.015-0.412c0.01-0.134,0.01-0.273,0.02-0.412
				c0.01-0.129,0.333-0.248,0.343-0.377c0.01-0.139-0.067-0.283-0.052-0.417c0.01-0.134,0.229-0.253,0.238-0.387
				c0.01-0.139-0.161-0.292-0.149-0.427c0.01-0.134-0.109-0.283-0.094-0.417c0.01-0.139,0.156-0.258,0.166-0.397
				c0.01-0.134,0.02-0.268,0.035-0.407C5.258,9.983,5.151,9.839,5.162,9.7c0.01-0.139,0.077-0.273,0.087-0.407
				c0.01-0.149-0.062-0.298-0.072-0.447C5.167,8.697,5.343,8.539,5.348,8.39C5.353,8.28,5.39,8.166,5.39,8.052
				c0-0.114-0.146-0.233-0.131-0.342c0.017-0.114,0.184-0.164,0.229-0.263c0.057-0.119,0.129-0.238,0.186-0.357
				s0.094-0.253,0.146-0.372c0.057-0.119,0.052-0.273,0.109-0.392c0.055-0.129-0.094-0.338-0.042-0.467
				C5.943,5.739,6.35,5.778,6.41,5.66c0.06-0.125-0.04-0.318,0.015-0.437S6.37,4.895,6.43,4.776s0.263-0.169,0.328-0.288
				c0.069-0.119-0.04-0.337,0.03-0.457c0.069-0.109,0.477-0.01,0.556-0.119c0.074-0.109-0.149-0.442-0.07-0.546
				c0.08-0.104,0.243-0.159,0.338-0.253C7.7,3.014,7.909,3.034,8.013,2.949C8.112,2.86,8.147,2.686,8.256,2.602
				c0.109-0.074,0.238-0.129,0.353-0.193s0.253-0.089,0.377-0.154C9.105,2.19,9.175,2.016,9.294,1.961
				c0.114-0.055,0.322,0.089,0.452,0.035c0.119-0.05,0.293,0.045,0.417,0c0.129-0.05,0.124-0.477,0.253-0.516
				c0.129-0.04,0.243-0.154,0.373-0.188c0.129-0.04,0.298,0.06,0.432,0.035c0.124-0.035,0.278,0.193,0.407,0.184
				c0.124,0,0.248-0.188,0.382-0.179c0.119,0.01,0.268-0.069,0.397-0.05c0.119,0.025,0.218,0.208,0.347,0.238
				c0.119,0.025,0.293-0.168,0.417-0.139s0.208,0.238,0.328,0.258c0.129,0.03,0.229,0.189,0.348,0.219
				c0.129,0.02,0.258,0.089,0.382,0.104c0.129,0.015,0.288-0.323,0.432-0.313c0.139,0,0.248,0.064,0.377,0.044
				c0.139-0.02,0.422,0.268,0.531,0.204c0.119-0.075,0.213-0.159,0.323-0.218c0.119-0.07,0.208-0.179,0.328-0.238
				s0.193-0.219,0.318-0.268c0.129-0.045,0.288,0.015,0.417-0.02c0.129-0.045,0.168-0.432,0.298-0.467
				c0.134-0.03,0.347,0.382,0.481,0.357c0.134-0.02,0.243-0.184,0.377-0.193c0.134-0.01,0.263-0.124,0.402-0.124
				c0.129,0,0.268,0.03,0.407,0.04c0.134,0.01,0.273-0.005,0.407,0.01c0.134,0.02,0.258,0.095,0.397,0.119
				c0.129,0.03,0.248,0.114,0.377,0.149c0.129,0.035,0.337-0.184,0.466-0.139c0.129,0.04,0.229,0.188,0.357,0.238
				c0.119,0.044,0.129,0.377,0.258,0.427c0.109,0.05,0.337-0.323,0.466-0.308c0.129,0.01,0.238,0.208,0.357,0.193
				c0.129-0.015,0.258-0.035,0.368-0.074c0.129-0.055,0.208-0.219,0.333-0.263c0.124-0.045,0.223-0.213,0.347-0.248
				c0.129-0.035,0.377,0.392,0.511,0.357c0.129-0.03,0.169-0.457,0.298-0.481c0.129-0.024,0.317,0.278,0.447,0.253
				c0.129-0.02,0.238-0.213,0.367-0.229c0.129-0.015,0.272,0.015,0.401,0.005c0.135-0.005,0.264-0.089,0.397-0.099
				c0.134,0,0.273-0.05,0.402-0.044c0.139,0.005,0.258,0.198,0.392,0.208c0.135,0.01,0.264,0.01,0.393,0.024
				c0.129,0.015,0.298-0.198,0.427-0.179c0.129,0.025,0.209,0.338,0.348,0.368c0.129,0.024,0.277-0.06,0.407-0.03
				c0.129,0.03,0.228,0.184,0.357,0.213c0.129,0.035,0.258,0.044,0.387,0.079c0.129,0.04,0.298-0.054,0.417-0.005
				c0.129,0.04,0.219,0.189,0.338,0.243c0.129,0.045,0.208,0.184,0.332,0.233c0.124,0.05,0.362-0.149,0.481-0.089
				s0.085,0.417,0.204,0.477s0.223,0.129,0.332,0.199c0.119,0.064,0.393-0.129,0.497-0.055c0.108,0.074,0.298,0.055,0.406,0.129
				c0.109,0.08,0.069,0.357,0.169,0.442c0.109,0.08,0.328,0.03,0.427,0.124c0.1,0.084-0.05,0.432,0.05,0.531
				c0.09,0.089,0.214,0.139,0.303,0.238c0.085,0.099,0.323,0.069,0.412,0.174c0.079,0.104,0.258,0.139,0.338,0.248
				c0.074,0.104,0.074,0.268,0.139,0.382c0.06,0.109,0.104,0.238,0.159,0.352c0.049,0.114,0.238,0.184,0.287,0.303
				c0.05,0.119-0.253,0.357-0.208,0.476c0.04,0.119,0.387,0.149,0.427,0.268c0.035,0.119-0.104,0.293-0.074,0.417
				c0.034,0.125,0.263,0.199,0.293,0.323c0.034,0.124-0.149,0.298-0.129,0.417c0.034,0.144,0.287,0.184,0.327,0.283
				c0.04,0.129-0.229,0.412-0.139,0.506c0.074,0.07,0.377-0.159,0.506-0.099s0.209,0.199,0.328,0.258s0.168,0.243,0.277,0.313
				c0.119,0.064,0.248,0.104,0.357,0.174c0.109,0.074,0.204,0.179,0.303,0.253c0.104,0.084,0.333,0.015,0.433,0.104
				c0.099,0.089-0.021,0.407,0.069,0.506c0.094,0.089,0.348,0.03,0.437,0.129s0.278,0.129,0.357,0.238
				c0.079,0.099,0.079,0.268,0.154,0.387c0.074,0.109-0.145,0.387-0.075,0.506c0.06,0.114,0.069,0.243,0.129,0.362
				c0.055,0.119,0.338,0.129,0.388,0.248s0.1,0.243,0.144,0.368c0.04,0.124,0.129,0.233,0.164,0.362
				c0.04,0.124,0.149,0.238,0.179,0.367c0.035,0.124,0.015,0.268,0.04,0.397c0.024,0.129-0.08,0.278-0.06,0.417
				c0.02,0.129,0.313,0.218,0.327,0.357c0.01,0.099-0.417,0.357-0.367,0.477c0.05,0.109,0.288,0.154,0.357,0.238
				c0.095,0.119,0.268,0.02,0.357,0.03c0.148,0.02,0.278,0.114,0.407,0.149c0.139,0.04,0.268,0.124,0.377,0.188
				c0.129,0.064,0.119,0.293,0.219,0.382c0.099,0.094,0.193,0.154,0.268,0.263c0.08,0.114,0.397,0.099,0.447,0.223
				c0.06,0.124,0.193,0.249,0.238,0.377c0.039,0.129,0.069,0.283,0.099,0.412c0.03,0.139-0.308,0.347-0.277,0.477
				c0.024,0.139,0.367,0.213,0.387,0.347c0.03,0.129-0.317,0.313-0.298,0.442c0.01,0.129,0.338,0.233,0.348,0.362
				s-0.412,0.263-0.412,0.397c0,0.129,0.209,0.258,0.193,0.387c-0.01,0.129,0.209,0.288,0.199,0.412
				c-0.025,0.129-0.07,0.263-0.1,0.387c-0.02,0.124-0.129,0.243-0.164,0.367c-0.034,0.124-0.064,0.253-0.114,0.382
				c-0.039,0.119-0.005,0.283-0.049,0.402c-0.05,0.119-0.189,0.204-0.244,0.323c-0.054,0.119-0.173,0.204-0.238,0.318
				c-0.064,0.114-0.173,0.198-0.238,0.308c-0.069,0.109-0.173,0.194-0.243,0.303c-0.074,0.109-0.084,0.253-0.158,0.357
				c-0.074,0.099-0.188,0.174-0.259,0.283c-0.069,0.099-0.039,0.273-0.108,0.377C39.395,23.052,39.448,23.042,39.379,23.142z
				 M26.374,20.66c-0.055,0.134-0.139,0.074-0.203,0.198c-0.064,0.129,0.015,0.323-0.045,0.447c-0.06,0.129-0.427,0.119-0.477,0.248
				c-0.05,0.134,0.055,0.318,0.03,0.452c-0.03,0.144,0.049,0.323,0,0.417c-0.07,0.144-0.269,0.214-0.368,0.253
				c-0.104,0.05-0.233-0.069-0.367-0.109c-0.104-0.035-0.268,0.01-0.387-0.06c-0.109-0.069-0.238-0.084-0.348-0.134
				c-0.129-0.055-0.214-0.164-0.338-0.184c-0.129-0.03-0.253-0.194-0.387-0.189c-0.129,0-0.249,0.144-0.377,0.174
				c-0.129,0.025-0.164,0.293-0.283,0.343c-0.119,0.049-0.253,0-0.373,0.06c-0.114,0.064-0.407-0.199-0.516-0.139
				c-0.109,0.069-0.188,0.199-0.288,0.268c-0.109,0.069-0.198,0.179-0.298,0.253c-0.099,0.075-0.06,0.323-0.159,0.407
				c-0.089,0.084-0.328,0.015-0.422,0.104c-0.084,0.089-0.193,0.179-0.273,0.273c-0.08,0.094-0.01,0.313-0.089,0.412
				c-0.069,0.1-0.05,0.263-0.114,0.373c-0.074,0.124-0.184,0.213-0.243,0.333c-0.069,0.129-0.069,0.273-0.119,0.392
				c-0.06,0.129-0.337,0.169-0.372,0.298c-0.03,0.134,0.044,0.283,0.054,0.427c0,0.129-0.089,0.288-0.054,0.432
				c0.035,0.119-0.065,0.328,0,0.461c0.089,0.199,0.491,0.367,0.422,0.467c-0.07,0.109-0.422-0.204-0.606-0.194
				c-0.139,0.01-0.248,0.084-0.417,0.06c-0.119-0.02-0.268,0.258-0.417,0.288c-0.139,0.02-0.258,0.049-0.377,0.104
				c-0.159,0.07-0.367,0.045-0.402,0.144c-0.055,0.129,0.094,0.303,0.099,0.467c0.005,0.148-0.229,0.353-0.184,0.496
				c0.044,0.159,0.293,0.229,0.367,0.348c0.074,0.109,0.204,0.139,0.333,0.229c0.114,0.084,0.164,0.288,0.303,0.337
				c0.139,0.06,0.308-0.005,0.437,0.005c0.159,0.011,0.347-0.054,0.461-0.01c0.154,0.055,0.382,0.149,0.462,0.248
				c0.084,0.104,0.099,0.348,0.124,0.497c0.025,0.124-0.213,0.282-0.229,0.437c-0.01,0.154,0.184,0.322,0.164,0.481
				c-0.01,0.154,0.079,0.317,0.064,0.477c-0.02,0.154-0.293,0.278-0.313,0.427c-0.01,0.139-0.238,0.248-0.248,0.388
				c-0.02,0.129,0.407,0.322,0.387,0.466c-0.02,0.13-0.313,0.229-0.328,0.368c-0.02,0.139,0.129,0.297,0.109,0.432
				c-0.02,0.134-0.02,0.272-0.04,0.412c-0.02,0.129-0.248,0.238-0.268,0.377c-0.02,0.129-0.139,0.258-0.159,0.392
				c-0.015,0.135,0.169,0.304,0.154,0.433c-0.015,0.139-0.278,0.248-0.292,0.377c-0.02,0.139,0.035,0.283,0.02,0.422
				c-0.015,0.134,0.362,0.303,0.353,0.446c-0.01,0.135-0.333,0.249-0.337,0.388c-0.01,0.134,0.273,0.283,0.258,0.422
				c-0.005,0.139-0.074,0.273-0.084,0.407c0,0.134-0.228,0.268-0.228,0.407c0,0.139,0.035,0.277,0.035,0.417
				c0,0.134,0.02,0.272,0.025,0.411c0.005,0.135,0.278,0.264,0.278,0.402c0.01,0.139-0.283,0.288-0.273,0.427
				c0.015,0.135,0.114,0.269,0.124,0.407c0.02,0.129-0.035,0.278-0.02,0.417c0.015,0.134,0.03,0.273,0.05,0.407
				c0.02,0.139-0.099,0.303-0.064,0.437c0.025,0.134,0.357,0.209,0.387,0.338c0.035,0.134,0.184,0.229,0.218,0.362
				s-0.243,0.367-0.204,0.496c0.05,0.129,0.258,0.193,0.303,0.322c0.044,0.13-0.144,0.348-0.095,0.477
				c0.05,0.119,0.288,0.179,0.343,0.303c0.049,0.125,0.01,0.293,0.064,0.412c0.05,0.13,0.412,0.119,0.461,0.249
				c0.055,0.119-0.104,0.337-0.044,0.466c0.06,0.119,0.229,0.188,0.283,0.313c0.055,0.124-0.049,0.322,0.005,0.441
				c0.06,0.119,0.233,0.188,0.297,0.313c0.06,0.119,0.04,0.283,0.1,0.402c0.064,0.119,0.099,0.263,0.159,0.382
				s0.08,0.269,0.144,0.388s0.228,0.184,0.293,0.303c0.069,0.119,0.367,0.094,0.437,0.213c0.07,0.119,0.104,0.254,0.169,0.373
				c0.074,0.108-0.045,0.337,0.03,0.456c0.069,0.119,0.055,0.288,0.129,0.397c0.069,0.119,0.308,0.129,0.382,0.248
				c0.074,0.109,0.204,0.188,0.283,0.298c0.085,0.109,0.05,0.308,0.14,0.417c0.084,0.109,0.357,0.06,0.446,0.169
				c0.089,0.099-0.159,0.501-0.069,0.605c0.099,0.104,0.531-0.104,0.625-0.005c0.09,0.104-0.05,0.422,0.045,0.521
				c0.1,0.1,0.209,0.189,0.303,0.288c0.1,0.1,0.198,0.188,0.303,0.283c0.1,0.1,0.273,0.114,0.372,0.203
				c0.1,0.1,0.328,0.06,0.427,0.154c0.1,0.095,0.169,0.224,0.269,0.313c0.104,0.1,0.084,0.323,0.188,0.417
				c0.1,0.09,0.258,0.079,0.367,0.145c0.119,0.069,0.169,0.253,0.298,0.303c0.124,0.044,0.288-0.064,0.427-0.03
				c0.129,0.03,0.229,0.219,0.357,0.238c0.14,0.01,0.273-0.272,0.407-0.272s0.269,0.193,0.397,0.173
				c0.139-0.02,0.248-0.119,0.377-0.148c0.129-0.04,0.258-0.055,0.367-0.109c0.129-0.06,0.109-0.272,0.209-0.357
				c0.104-0.084,0.258-0.04,0.327-0.153c0.069-0.119,0.229-0.169,0.298-0.259c0.085-0.114,0.209-0.148,0.298-0.213
				c0.114-0.08,0.188-0.283,0.298-0.288c0.119-0.005,0.229,0.159,0.357,0.208c0.1,0.045,0.258,0.011,0.377,0.08
				c0.1,0.064,0.248,0.074,0.357,0.148s0.248,0.074,0.367,0.139c0.13,0.06,0.09,0.457,0.219,0.507s0.348-0.198,0.477-0.159
				c0.139,0.035,0.193,0.427,0.328,0.447c0.134,0.02,0.297,0.029,0.427,0.039c0.139,0.011,0.287-0.268,0.422-0.268
				c0.134-0.01,0.243-0.169,0.382-0.188c0.129-0.021,0.303,0.174,0.432,0.144c0.135-0.029,0.204-0.248,0.333-0.293
				c0.129-0.05,0.218-0.129,0.348-0.184c0.119-0.055,0.228-0.114,0.347-0.184c0.119-0.064,0.417,0.149,0.526,0.069
				c0.109-0.079,0.199-0.208,0.293-0.308c0.104-0.089,0.154-0.238,0.253-0.337c0.09-0.1,0.224-0.169,0.308-0.278
				c0.08-0.109-0.005-0.328,0.07-0.447c0.064-0.119,0.208-0.188,0.268-0.317c0.055-0.124,0.145-0.238,0.184-0.367
				c0.055-0.169,0.243-0.169,0.317-0.253c0.104-0.114,0.095-0.412,0.249-0.402c0.119,0.01,0.213,0.258,0.362,0.322
				c0.124,0.06,0.268,0.08,0.392,0.125c0.134,0.049,0.204,0.287,0.328,0.327c0.129,0.04,0.348-0.188,0.477-0.159
				c0.134,0.03,0.282-0.049,0.412-0.029c0.139,0.029,0.248,0.174,0.377,0.188c0.139,0.015,0.268,0.015,0.407,0.02
				c0.134,0.005,0.277,0.179,0.417,0.179c0.129-0.01,0.287,0.064,0.427,0.05c0.134-0.015,0.188-0.526,0.317-0.556
				c0.139-0.03,0.328,0.219,0.457,0.179s0.179-0.298,0.303-0.353c0.124-0.045,0.272-0.01,0.396-0.074
				c0.119-0.055,0.238-0.109,0.357-0.174c0.114-0.064,0.164-0.229,0.283-0.303c0.109-0.074,0.462,0.184,0.571,0.099
				c0.108-0.079-0.045-0.486,0.055-0.575c0.108-0.085,0.277-0.085,0.377-0.179c0.099-0.095,0.422,0.034,0.516-0.06
				c0.1-0.1-0.148-0.517-0.06-0.615c0.09-0.1,0.348-0.055,0.428-0.159c0.089-0.109-0.025-0.357,0.06-0.467
				c0.079-0.109,0.287-0.119,0.367-0.233c0.069-0.114,0.153-0.224,0.218-0.332c0.064-0.119,0.109-0.248,0.169-0.367
				c0.06-0.13,0.407-0.13,0.457-0.264c0.045-0.129-0.278-0.377-0.238-0.506c0.034-0.129,0.218-0.224,0.238-0.357
				c0.024-0.135,0.198-0.259,0.208-0.393c0.01-0.139,0.06-0.288,0.055-0.427c0-0.134-0.034-0.283-0.055-0.422
				c-0.015-0.134-0.079-0.273-0.109-0.412c-0.02-0.129-0.039-0.278-0.074-0.412c-0.034-0.129,0.025-0.303-0.024-0.432
				c-0.04-0.134-0.507-0.164-0.507-0.288c-0.01-0.129,0.204-0.263,0.238-0.387c0.03-0.119,0.174-0.184,0.238-0.303
				c0.064-0.104,0.199-0.14,0.288-0.248c0.079-0.104-0.139-0.423-0.06-0.531c0.079-0.109,0.269-0.14,0.333-0.248
				c0.064-0.109,0.223-0.174,0.282-0.293c0.06-0.114,0.204-0.204,0.259-0.323c0.05-0.119-0.1-0.322-0.05-0.441
				c0.05-0.124,0.04-0.253,0.079-0.383c0.035-0.129,0.308-0.198,0.338-0.327c0.024-0.129,0.119-0.258,0.139-0.387
				c0.015-0.13-0.332-0.298-0.327-0.428c0.005-0.129,0.268-0.258,0.263-0.387s0.064-0.278,0.055-0.407
				c-0.02-0.129-0.159-0.248-0.188-0.377c-0.021-0.129-0.03-0.269-0.06-0.397c-0.03-0.124-0.119-0.243-0.159-0.367
				c-0.039-0.134-0.337-0.298-0.337-0.457c0.01-0.168,0.158-0.401,0.238-0.516c0.069-0.109,0.456-0.021,0.521-0.134
				c0.064-0.114,0.04-0.283,0.095-0.402s-0.08-0.317-0.03-0.437c0.04-0.125,0.323-0.179,0.357-0.298
				c0.03-0.119-0.153-0.298-0.134-0.428c0.024-0.129,0.095-0.248,0.1-0.377s-0.164-0.243-0.174-0.372
				c-0.01-0.134-0.06-0.233-0.09-0.357c-0.029-0.124,0.01-0.253-0.039-0.382c-0.04-0.119-0.164-0.189-0.219-0.303
				c-0.06-0.114-0.129-0.204-0.198-0.313s-0.069-0.272-0.149-0.377c-0.079-0.109,0.021-0.348-0.06-0.457
				c-0.079-0.108-0.069-0.293-0.153-0.396c-0.085-0.109-0.219-0.179-0.303-0.283c-0.08-0.104-0.313-0.095-0.402-0.198
				c-0.085-0.104-0.367-0.035-0.452-0.135c-0.089-0.099-0.179-0.198-0.272-0.297c-0.095-0.104-0.025-0.343-0.119-0.442
				c-0.095-0.1-0.154-0.229-0.248-0.322c-0.095-0.1-0.373-0.016-0.467-0.109c-0.095-0.1-0.184-0.198-0.278-0.293
				c-0.094-0.095-0.055-0.322-0.153-0.422c-0.09-0.084,0.02-0.397-0.075-0.486c-0.094-0.08-0.496,0.188-0.596,0.109
				c-0.099-0.079-0.173-0.173-0.282-0.253c-0.1-0.075-0.04-0.382-0.149-0.452c-0.099-0.075-0.258-0.07-0.367-0.139
				s-0.268-0.06-0.377-0.129s-0.09-0.362-0.199-0.422c-0.119-0.064-0.258-0.07-0.377-0.124c-0.109-0.065-0.164-0.249-0.278-0.303
				c-0.113-0.065-0.446,0.292-0.556,0.233c-0.119-0.06-0.139-0.298-0.258-0.362c-0.109-0.055-0.317,0.064-0.432,0.005
				c-0.114-0.054-0.075-0.437-0.194-0.491s-0.396,0.233-0.516,0.174c-0.119-0.055-0.149-0.303-0.258-0.357
				c-0.119-0.055-0.238-0.1-0.357-0.149c-0.119-0.055-0.244-0.099-0.362-0.149c-0.119-0.05-0.323,0.089-0.442,0.04
				c-0.119-0.055-0.089-0.447-0.208-0.496c-0.119-0.05-0.238-0.119-0.357-0.164c-0.119-0.044-0.338,0.159-0.457,0.109
				c-0.129-0.055-0.139-0.447-0.268-0.492c-0.13-0.04-0.283-0.069-0.412-0.104c-0.135-0.035-0.264-0.104-0.402-0.134
				c-0.129-0.03-0.288,0.015-0.422-0.01c-0.134-0.03-0.263-0.089-0.397-0.114c-0.134-0.025-0.348,0.343-0.481,0.323
				c-0.139-0.03-0.213-0.382-0.348-0.407c-0.134-0.024-0.287,0.06-0.427,0.04c-0.129-0.03-0.258-0.055-0.392-0.08
				c-0.134-0.03-0.313,0.218-0.442,0.188c-0.129-0.024-0.208-0.317-0.337-0.347c-0.129-0.025-0.224-0.263-0.357-0.288
				c-0.129-0.025-0.313,0.248-0.442,0.224c-0.129-0.025-0.232-0.204-0.362-0.229c-0.129-0.025-0.238-0.174-0.372-0.204
				c-0.129-0.02-0.272,0.01-0.402-0.01c-0.129-0.02-0.268-0.055-0.396-0.08c-0.129-0.02-0.318,0.328-0.457,0.308
				c-0.129-0.02-0.268,0.02-0.402,0c-0.129-0.02-0.203-0.437-0.332-0.457c-0.129-0.02-0.303,0.219-0.432,0.204
				c-0.135-0.02-0.273,0.055-0.412,0.035c-0.129-0.015-0.288-0.427-0.422-0.397c-0.124,0.025-0.109,0.536-0.238,0.591
				c-0.124,0.044-0.353-0.174-0.477-0.129c-0.124,0.05-0.264,0.03-0.393,0.065c-0.099,0.02-0.213,0.074-0.327,0.099
				c-0.134,0.04-0.149,0.04-0.219-0.01c-0.089-0.07-0.069-0.159-0.129-0.288s-0.224-0.174-0.198-0.278
				c0.039-0.134,0.129-0.268,0.129-0.382c0-0.134-0.357-0.194-0.393-0.303c-0.034-0.119,0.188-0.353,0.104-0.452
				c-0.069-0.094-0.104-0.293-0.208-0.373c-0.09-0.074-0.209-0.168-0.328-0.238C26.638,20.392,26.493,20.72,26.374,20.66z
				 M16.402,35.343c0.094,0.119,0.293,0.422,0.377,0.546s0.293,0.149,0.382,0.258c0.095,0.119-0.06,0.457,0.06,0.552
				c0.08,0.074,0.273,0,0.382,0.039c0.104,0.045,0.243-0.05,0.357-0.02c0.104,0.035,0.134,0.174,0.243,0.208
				c0.02-0.153,0.154-0.263,0.174-0.411c0.025-0.159-0.074-0.328-0.074-0.487c0-0.119-0.089-0.218-0.129-0.347
				c-0.044-0.13-0.01-0.303,0.02-0.422c0.035-0.124,0.218-0.209,0.253-0.333c0.035-0.124-0.054-0.278-0.024-0.402
				c0.04-0.124-0.169-0.317-0.129-0.437c0.035-0.124,0.169-0.214,0.204-0.343c0.035-0.119,0.432-0.139,0.467-0.258
				c0.035-0.124,0-0.263,0.035-0.387c0.04-0.125,0.04-0.254,0.079-0.378c0.04-0.124-0.139-0.308-0.104-0.432
				s0.273-0.184,0.313-0.313c0.04-0.149,0.1-0.308,0.109-0.442c0.025-0.163-0.159-0.313-0.188-0.441
				c-0.03-0.148-0.159-0.188-0.253-0.308c-0.084-0.104-0.129-0.198-0.273-0.278c-0.114-0.069-0.248-0.055-0.407-0.109
				c-0.129-0.049-0.164-0.337-0.278-0.396c-0.124-0.06-0.288-0.04-0.392-0.109c-0.119-0.079-0.144-0.248-0.238-0.338
				c-0.099-0.089-0.044-0.268-0.114-0.367c-0.07-0.119-0.556-0.02-0.596-0.148c-0.04-0.124,0.382-0.338,0.377-0.477
				c-0.01-0.129-0.079-0.219-0.06-0.348c0.02-0.129-0.213-0.317-0.174-0.447c0.045-0.119,0.104-0.258,0.174-0.377
				c0.06-0.129,0.273-0.164,0.367-0.278c0.1-0.099,0.089-0.328,0.208-0.417c0.1-0.089,0.377,0.035,0.497-0.06
				c0.109-0.079,0.109-0.328,0.229-0.422c0.104-0.089,0.139-0.193,0.258-0.293c0.01-0.139,0.179-0.208,0.194-0.337
				c0.015-0.139-0.064-0.288-0.04-0.407c0.02-0.139-0.054-0.298-0.035-0.417c0.035-0.139,0.02-0.308,0.064-0.427
				c0.045-0.124,0.194-0.238,0.258-0.353c0.069-0.104,0.342-0.074,0.437-0.184c0.074-0.089,0.02-0.322,0.124-0.422
				c0.089-0.084,0.114-0.258,0.218-0.353c0.099-0.079,0.367,0.03,0.477-0.06c0.099-0.079,0.328,0,0.447-0.094
				c0.099-0.084-0.069-0.521,0.04-0.596c0.1-0.074,0.368,0.075,0.477,0c0.109-0.074,0.139-0.283,0.248-0.352
				c0.119-0.07,0.229-0.144,0.348-0.199c0.119-0.06,0.328,0.08,0.447,0.03s0.268,0.01,0.397-0.03
				c0.119-0.035,0.189-0.268,0.318-0.293s0.288,0.204,0.417,0.194c0.129-0.02,0.229-0.084,0.367-0.084
				c0.129,0,0.278-0.382,0.412-0.373c0.1,0.01,0.243,0.273,0.367,0.219c0.104-0.045,0.055-0.343,0.144-0.422
				c0.095-0.084,0.194-0.084,0.238-0.184c0.06-0.119,0.313-0.109,0.378-0.208c0.074-0.109,0.119-0.214,0.198-0.298
				c0.09-0.1,0.159-0.179,0.269-0.238c0.099-0.07,0.119-0.368,0.237-0.407c0.109-0.035,0.304,0.229,0.433,0.213
				c0.119-0.01,0.233-0.104,0.362-0.094c0.148,0.01,0.258,0.099,0.377,0.139c0.134,0.049,0.233,0.104,0.338,0.188
				c0.109,0.08,0.069,0.253,0.153,0.367c0.08,0.109,0.402,0.05,0.467,0.179c0.064,0.119,0.229,0.208,0.283,0.338
				c0.045,0.119-0.129,0.427-0.01,0.526c0.129,0.109,0.357,0.045,0.486,0.064c0.139,0.02,0.229,0.293,0.367,0.313
				c0.129,0.02,0.298-0.164,0.432-0.139c0.134,0.02,0.253,0.139,0.388,0.159c0.134,0.02,0.317-0.288,0.451-0.268
				c0.134,0.02,0.233,0.268,0.367,0.288s0.288-0.089,0.417-0.069c0.139,0.02,0.248,0.223,0.377,0.248
				c0.14,0.02,0.288-0.089,0.423-0.069c0.134,0.02,0.253,0.129,0.392,0.149c0.129,0.02,0.258,0.069,0.397,0.094
				c0.134,0.02,0.258,0.094,0.392,0.114c0.135,0.02,0.283-0.07,0.422-0.05c0.129,0.02,0.308-0.229,0.442-0.208
				c0.134,0.02,0.263,0.08,0.401,0.099c0.13,0.02,0.238,0.258,0.368,0.283c0.129,0.02,0.248,0.139,0.387,0.159
				c0.134,0.025,0.293-0.139,0.427-0.114c0.139,0.02,0.278-0.01,0.407,0.02c0.139,0.02,0.248,0.188,0.382,0.208
				c0.135,0.03,0.313-0.188,0.442-0.169c0.139,0.025,0.188,0.486,0.322,0.511s0.322-0.412,0.437-0.402
				c0.14,0.01,0.254,0.328,0.368,0.313c0.134-0.02,0.268-0.074,0.377-0.139c0.104-0.055,0.203-0.159,0.293-0.268
				c0.064-0.089,0.039-0.253,0.094-0.382s-0.05-0.328,0.005-0.457c0.06-0.129,0.159-0.238,0.214-0.368
				c0.055-0.129,0.283-0.188,0.332-0.322c0.05-0.134,0.016-0.303,0.07-0.432c0.049-0.129,0.238-0.198,0.298-0.333
				c0.06-0.134-0.03-0.323,0.029-0.452s0.278-0.188,0.338-0.308c0.06-0.129-0.134-0.387-0.069-0.511
				c0.06-0.124,0.292-0.154,0.332-0.283c0.045-0.129,0.005-0.278,0.025-0.407c0.02-0.139,0.064-0.258,0.069-0.402
				c0.005-0.134-0.199-0.243-0.214-0.382c-0.015-0.134,0.114-0.278,0.079-0.407c-0.034-0.139,0.03-0.293-0.024-0.422
				c-0.05-0.129-0.05-0.283-0.109-0.402c-0.069-0.119-0.293-0.139-0.377-0.248c-0.079-0.109-0.06-0.303-0.159-0.397
				c-0.099-0.1-0.268-0.1-0.382-0.179c-0.114-0.08-0.248-0.08-0.372-0.134s-0.243-0.025-0.378-0.064
				c-0.148-0.035-0.158-0.437-0.258-0.481c-0.139-0.055-0.412,0.134-0.496,0.055c-0.109-0.094,0.139-0.377,0.109-0.506
				c-0.04-0.109-0.045-0.164-0.04-0.313c0.005-0.119-0.253-0.273-0.229-0.412c0.03-0.139-0.109-0.273-0.109-0.407
				c0.01-0.134,0.224-0.268,0.209-0.407c-0.015-0.139-0.224-0.229-0.253-0.368c-0.035-0.139-0.1-0.238-0.145-0.367
				c-0.05-0.129-0.089-0.238-0.148-0.367c-0.06-0.119,0.184-0.402,0.119-0.521c-0.069-0.119-0.188-0.213-0.269-0.333
				c-0.079-0.109-0.218-0.184-0.308-0.293c-0.084-0.109-0.129-0.253-0.219-0.357c-0.094-0.104-0.327-0.065-0.427-0.154
				c-0.099-0.094-0.139-0.258-0.248-0.337c-0.109-0.089-0.198-0.204-0.308-0.278c-0.114-0.08-0.149-0.303-0.269-0.367
				c-0.118-0.07-0.396,0.154-0.521,0.099c-0.14-0.064-0.164-0.318-0.283-0.392c-0.124-0.084-0.248-0.139-0.348-0.233
				c-0.104-0.099-0.02-0.308-0.099-0.427c-0.08-0.119-0.383-0.094-0.438-0.233c-0.05-0.134-0.198-0.243-0.238-0.392
				c-0.029-0.129,0.075-0.303,0.06-0.452c-0.015-0.144-0.05-0.283-0.069-0.422c-0.024-0.139,0.119-0.318,0.085-0.457
				c-0.035-0.144,0.005-0.317-0.035-0.457c-0.05-0.129-0.561-0.079-0.625-0.208c-0.06-0.129,0.139-0.382,0.06-0.501
				c-0.07-0.114-0.338-0.094-0.417-0.203c-0.08-0.109-0.085-0.268-0.169-0.373c-0.09-0.104-0.159-0.213-0.253-0.313
				c-0.095-0.1-0.259-0.109-0.357-0.208c-0.095-0.089,0.089-0.486-0.016-0.576c-0.104-0.089-0.466,0.144-0.575,0.06
				c-0.109-0.08-0.14-0.253-0.254-0.328c-0.113-0.075-0.054-0.422-0.168-0.487c-0.114-0.069-0.467,0.268-0.586,0.204
				c-0.119-0.06-0.134-0.313-0.264-0.372c-0.119-0.055-0.332,0.114-0.456,0.06c-0.124-0.05-0.179-0.249-0.308-0.298
				c-0.129-0.045-0.248-0.1-0.383-0.139c-0.129-0.04-0.258-0.06-0.387-0.094s-0.184-0.377-0.323-0.407
				c-0.129-0.035-0.337,0.313-0.476,0.288c-0.135-0.025-0.229-0.204-0.368-0.223c-0.134-0.025-0.248-0.194-0.382-0.219
				c-0.134-0.01-0.283-0.069-0.422-0.074c-0.129-0.005-0.283,0.02-0.422,0.02c-0.134,0.005-0.278,0.055-0.412,0.07
				c-0.139,0.01-0.278,0.01-0.417,0.025c-0.134,0.015-0.288-0.07-0.427-0.05c-0.129,0.02-0.193,0.486-0.328,0.511
				c-0.134,0.025-0.297-0.154-0.437-0.124c-0.129,0.025-0.277-0.04-0.402-0.01c-0.124,0.04-0.283-0.01-0.401,0.035
				C22.87,1.847,22.88,2.234,22.75,2.279c-0.119,0.044-0.288-0.045-0.407,0.005c-0.119,0.049-0.273,0-0.397,0.049
				c-0.124,0.045-0.268,0-0.397,0.03c-0.119,0.04-0.278,0.159-0.397,0.08c-0.109-0.069-0.248-0.099-0.357-0.164
				c-0.119-0.065-0.129-0.353-0.238-0.412c-0.129-0.06-0.229-0.184-0.348-0.238c-0.129-0.05-0.387,0.238-0.511,0.199
				c-0.129-0.04-0.184-0.338-0.313-0.368c-0.129-0.03-0.258-0.139-0.387-0.159c-0.139-0.02-0.298,0.089-0.427,0.089
				c-0.139-0.01-0.278-0.03-0.407-0.02c-0.139,0-0.273,0.075-0.402,0.094c-0.129,0.025-0.194,0.318-0.323,0.353
				c-0.129,0.04-0.268-0.02-0.397,0.03c-0.125,0.04-0.393-0.248-0.517-0.188c-0.119,0.055-0.204,0.218-0.317,0.283
				c-0.114,0.064-0.119,0.303-0.229,0.382c-0.109,0.075-0.372-0.05-0.477,0.03c-0.109,0.084-0.08,0.337-0.179,0.427
				c-0.109,0.095-0.228,0.089-0.323,0.119c-0.104,0.04-0.223,0.189-0.342,0.159c-0.099-0.02-0.229-0.035-0.348-0.075
				c-0.129-0.044-0.238-0.164-0.367-0.204c-0.129-0.044-0.288-0.01-0.422-0.049c-0.129-0.04-0.263-0.075-0.402-0.109
				c-0.129-0.04-0.238-0.169-0.368-0.199c-0.139-0.035-0.228-0.278-0.357-0.308c-0.139-0.02-0.268-0.164-0.412-0.179
				c-0.139-0.015-0.303,0.03-0.442,0.03c-0.139-0.01-0.283,0.184-0.417,0.194c-0.139,0.01-0.233,0.283-0.362,0.313
				c-0.139,0.025-0.249,0.055-0.377,0.089c-0.134,0.04-0.323-0.109-0.452-0.06c-0.129,0.055-0.268,0.08-0.387,0.144
				S9.462,3.004,9.349,3.078C9.234,3.167,9.15,3.232,9.041,3.327C8.941,3.416,8.718,3.366,8.624,3.47
				C8.534,3.565,8.207,3.48,8.123,3.589C8.038,3.699,8.326,4.091,8.242,4.205C8.167,4.319,8.068,4.409,7.993,4.518
				C7.919,4.637,7.601,4.602,7.537,4.726C7.472,4.845,7.482,5.014,7.413,5.133s-0.05,0.288-0.114,0.412S6.936,5.674,6.876,5.798
				c-0.06,0.119-0.055,0.278-0.109,0.397c-0.06,0.119-0.233,0.189-0.288,0.313C6.43,6.632,6.812,6.93,6.767,7.049
				C6.718,7.168,6.479,7.223,6.439,7.347C6.4,7.471,6.549,7.655,6.509,7.784C6.464,7.903,6.087,7.933,6.052,8.062
				C6.013,8.191,6.35,8.415,6.32,8.543S6.052,8.747,6.022,8.876S5.968,9.134,5.943,9.263C5.916,9.392,5.906,9.526,5.886,9.655
				c-0.022,0.134,0.161,0.293,0.136,0.422c-0.02,0.129-0.402,0.208-0.422,0.337c-0.015,0.129-0.052,0.268-0.067,0.397
				c-0.015,0.129,0.243,0.288,0.233,0.417c-0.01,0.129-0.395,0.238-0.405,0.367c-0.01,0.129,0.005,0.268-0.005,0.407
				c-0.005,0.134-0.042,0.268-0.047,0.397c-0.005,0.134,0.072,0.268,0.072,0.407c-0.005,0.129-0.04,0.258-0.04,0.397
				c0,0.134,0.404,0.263,0.404,0.397c0,0.134-0.337,0.268-0.333,0.397c0,0.139,0.119,0.268,0.119,0.397
				c0.005,0.134,0.005,0.263,0.01,0.397c0.005,0.134,0.281,0.253,0.286,0.387c0.005,0.139-0.266,0.278-0.258,0.407
				c0.005,0.139-0.208,0.278-0.198,0.412c0.005,0.134,0.317,0.248,0.323,0.377c0.005,0.134-0.146,0.283-0.137,0.412
				c0.012,0.139-0.112,0.283-0.102,0.417c0.01,0.134,0.077,0.263,0.092,0.397c0.01,0.139,0.015,0.268,0.032,0.407
				c0.015,0.134,0.402,0.218,0.422,0.357c0.01,0.134,0.089,0.253,0.109,0.387c0.01,0.134-0.367,0.318-0.345,0.457
				c0.02,0.134,0.295,0.229,0.315,0.357c0.02,0.134,0.134,0.248,0.159,0.377c0.02,0.129-0.382,0.337-0.355,0.466
				c0.025,0.134,0.534,0.174,0.559,0.303c0.024,0.129-0.238,0.323-0.204,0.457c0.02,0.129-0.015,0.283,0.02,0.412
				c0.03,0.129,0.065,0.258,0.1,0.387c0.03,0.134,0.03,0.273,0.069,0.402c0.03,0.129,0.005,0.278,0.035,0.412
				c0.035,0.129,0.218,0.218,0.253,0.347c0.04,0.129,0.01,0.278,0.049,0.407c0.04,0.134,0.412,0.159,0.447,0.283
				c0.045,0.129-0.208,0.353-0.168,0.477c0.04,0.129-0.025,0.293,0.02,0.422c0.04,0.119,0.084,0.258,0.129,0.377
				c0.049,0.129,0.298,0.184,0.342,0.308s0.293,0.169,0.342,0.298c0.05,0.129-0.024,0.298,0.025,0.422
				c0.055,0.124,0.174,0.218,0.224,0.343c0.06,0.129,0.149,0.228,0.213,0.352s0.134,0.233,0.204,0.353
				c0.069,0.119-0.119,0.397-0.05,0.516s0.223,0.193,0.298,0.308c0.074,0.119-0.02,0.338,0.055,0.457
				c0.074,0.119,0.303,0.139,0.372,0.258c0.07,0.119,0.253,0.184,0.323,0.308c0.064,0.124,0.015,0.313,0.074,0.442
				c0.065,0.129,0.129,0.258,0.184,0.387c0.054,0.129,0.228,0.214,0.283,0.343c0.06,0.129,0.064,0.288,0.114,0.417
				c0.055,0.129,0.164,0.238,0.223,0.377c0.05,0.129-0.069,0.338-0.015,0.467s0.055,0.268,0.084,0.407
				c0.035,0.148,0.184,0.288,0.154,0.427c-0.015,0.06-0.224-0.03-0.402-0.01c-0.129,0.02-0.278,0.01-0.387,0.029
				c-0.119,0.01-0.248,0.05-0.367,0.055c-0.134,0.01-0.253,0.074-0.382,0.09c-0.129,0.005-0.238,0.233-0.367,0.248
				c-0.129,0.01-0.293-0.367-0.422-0.353s-0.238,0.198-0.357,0.229c-0.129,0.024-0.193,0.248-0.313,0.288
				c-0.134,0.049-0.293-0.045-0.387,0.015c-0.119,0.084-0.005,0.253-0.055,0.357c-0.045,0.114-0.422,0.213-0.382,0.342
				c0.035,0.104,0.422,0.03,0.521,0.13c0.069,0.084,0.079,0.213,0.193,0.287c0.119,0.09,0.144,0.304,0.263,0.368
				c0.129,0.069,0.308,0.024,0.432,0.064c0.134,0.044,0.253,0.108,0.392,0.129c0.139,0.024,0.278,0.079,0.417,0.069
				c0.139-0.015,0.249-0.154,0.392-0.193c0.129-0.03,0.333,0.119,0.462,0.069c0.129-0.05,0.328,0.01,0.457-0.064
				c0.119-0.06,0.04-0.491,0.164-0.571c0.095-0.06,0.184-0.198,0.293-0.248c0.104-0.05,0.278,0.03,0.387-0.01
				c0.109-0.05,0.218,0.139,0.323,0.089c0.074,0.095,0.218,0.016,0.293,0.109c0.069,0.095,0.248,0.254,0.317,0.348
				c-0.109,0.06-0.382,0.05-0.506,0.104c-0.124,0.05-0.144,0.298-0.258,0.353c-0.124,0.069-0.308-0.021-0.377,0.089
				c-0.06,0.09-0.243,0.129-0.298,0.238c-0.049,0.104-0.144,0.219-0.179,0.333c-0.04,0.114,0.278,0.293,0.268,0.412
				c-0.01,0.119-0.069,0.193-0.049,0.303c0.035,0.134-0.184,0.456-0.075,0.575c0.099,0.109,0.263,0.214,0.387,0.313
				c0.124,0.089,0.313,0.129,0.437,0.193c0.124,0.074,0.322,0.024,0.471,0.074c0.139,0.045,0.263,0.184,0.412,0.208
				c0.144,0.03,0.348-0.313,0.492-0.292c0.129,0.015,0.193,0.471,0.317,0.486c0.124,0.02,0.273-0.109,0.397-0.095
				c0.129,0.02,0.268-0.069,0.397-0.05c0.119,0.016,0.248,0.06,0.367,0.069c0.129,0.011,0.258-0.01,0.377-0.01
				c0.134,0,0.258,0.05,0.382,0.04c0.129-0.01,0.263,0.029,0.387,0c0.094-0.02-0.025-0.258,0.045-0.397
				c0.044-0.099,0.179-0.153,0.218-0.282c0.04-0.114,0.357-0.145,0.397-0.264c0.035-0.119-0.333-0.357-0.298-0.472
				c0.04-0.124,0.278-0.184,0.318-0.293C16.179,35.789,16.164,35.562,16.402,35.343z"/>
		</g>
		<g>
			<path d="M28.786,36.296c0.109-0.02,0.119,0.074,0.229,0.055c0.119-0.025,0.219-0.114,0.313-0.134
				c0.154-0.03,0.194-0.09,0.238-0.03c0.09,0.09,0.164,0.188,0.243,0.283c0.085,0.094,0.363,0.015,0.447,0.109
				c0.079,0.094,0.134,0.223,0.219,0.322c0.079,0.1,0.208,0.154,0.287,0.248c0.08,0.1,0.199,0.174,0.278,0.278
				c0.074,0.099-0.198,0.462-0.129,0.565c0.074,0.1,0.397,0.03,0.467,0.135c0.074,0.104,0.129,0.232,0.188,0.352
				c0.06,0.109-0.05,0.303,0,0.422s0.263,0.164,0.317,0.283c0.05,0.119,0.02,0.273,0.074,0.388c0.055,0.108,0.313,0.099,0.393,0.208
				c0.069,0.109-0.02,0.328,0.055,0.441c0.074,0.114,0.084,0.273,0.158,0.383c0.08,0.109,0.343,0.084,0.423,0.198
				c0.079,0.109,0.069,0.288,0.153,0.393c0.074,0.109,0.03,0.313,0.114,0.422c0.079,0.109,0.144,0.229,0.229,0.337
				c0.079,0.109,0.372,0.06,0.446,0.169c0.08,0.109,0.01,0.333,0.085,0.438c0.079,0.108,0.233,0.168,0.313,0.282
				c0.06,0.085-0.1,0.362-0.03,0.457c0.08,0.094,0.562-0.035,0.596,0.064c0.045,0.114-0.392,0.184-0.456,0.288
				c-0.05,0.079,0.02,0.179-0.119,0.253c-0.069,0.035-0.209,0.224-0.357,0.148c-0.109-0.054-0.1-0.322-0.204-0.411
				c-0.114-0.085-0.184-0.159-0.243-0.249c-0.069-0.108-0.357-0.084-0.427-0.198c-0.074-0.114-0.01-0.317-0.074-0.427
				c-0.074-0.109-0.293-0.129-0.367-0.238c-0.074-0.119,0.029-0.338-0.035-0.446c-0.074-0.119-0.079-0.269-0.148-0.378
				c-0.069-0.119-0.412-0.06-0.481-0.174c-0.064-0.114-0.159-0.218-0.224-0.332c-0.069-0.109,0.01-0.317-0.06-0.432
				s0.1-0.373,0.029-0.492c-0.069-0.108-0.153-0.213-0.228-0.327c-0.07-0.114-0.293-0.134-0.362-0.248
				c-0.064-0.114-0.343-0.104-0.412-0.219c-0.075-0.114,0.06-0.353-0.01-0.467c-0.07-0.114-0.03-0.293-0.1-0.406
				c-0.069-0.114-0.388-0.075-0.457-0.189c-0.069-0.099-0.119-0.208-0.188-0.317c-0.074-0.1-0.169-0.179-0.248-0.283
				c-0.069-0.094,0.06-0.362-0.02-0.461c-0.08-0.1-0.357-0.03-0.438-0.135c-0.079-0.094-0.094-0.243-0.179-0.342
				c-0.079-0.09-0.258-0.109-0.337-0.209C28.657,36.574,28.866,36.396,28.786,36.296z"/>
		</g>
		<g>
			<path d="M24.632,36.544c0.084,0.1,0.079-0.06,0.134,0c0.1,0.09,0.129,0.154,0.159,0.229c0.045,0.119,0.184,0.203,0.229,0.322
				c0.039,0.119,0.218,0.188,0.258,0.308c0.045,0.114-0.278,0.373-0.238,0.487c0.05,0.113,0.348,0.144,0.388,0.263
				c0.039,0.119,0.223,0.188,0.263,0.308c0.045,0.119-0.303,0.367-0.269,0.486c0.04,0.119,0.194,0.204,0.229,0.323
				c0.04,0.119,0.095,0.232,0.134,0.352c0.035,0.119-0.01,0.269,0.025,0.388c0.034,0.119,0.055,0.248,0.084,0.367
				c0.03,0.129,0.119,0.229,0.149,0.357c0.029,0.119,0.079,0.238,0.114,0.357c0.029,0.129,0.044,0.248,0.084,0.377
				c0.03,0.119,0.308,0.174,0.348,0.298c0.035,0.124,0.024,0.254,0.06,0.372c0.04,0.119,0.134,0.219,0.169,0.343
				c0.039,0.119,0.129,0.209,0.169,0.328c0.039,0.109-0.318,0.387-0.269,0.501c0.045,0.114,0.367,0.114,0.422,0.224
				c0.055,0.119,0.085,0.238,0.134,0.348c0.05,0.119-0.069,0.298-0.02,0.411c0.05,0.114,0.258,0.164,0.308,0.278
				c0.04,0.114,0,0.264,0.04,0.382c0.04,0.13,0.218,0.357,0.158,0.517c-0.054,0.139-0.337,0.229-0.377,0.362
				c-0.089-0.104-0.164-0.263-0.263-0.362c-0.1-0.1-0.388-0.1-0.442-0.219c-0.054-0.124-0.01-0.298-0.06-0.416
				c-0.06-0.13,0.03-0.313-0.02-0.442c-0.055-0.124-0.094-0.263-0.148-0.382c-0.05-0.129-0.348-0.149-0.402-0.278
				c-0.055-0.124,0.064-0.327,0.015-0.446c-0.05-0.13-0.188-0.219-0.248-0.348c-0.05-0.119,0.169-0.367,0.114-0.486
				c-0.055-0.129-0.551-0.069-0.601-0.194c-0.05-0.124,0.353-0.441,0.298-0.57c-0.05-0.124-0.219-0.198-0.269-0.328
				c-0.055-0.129-0.337-0.158-0.396-0.282c-0.05-0.124,0.114-0.343,0.06-0.472c-0.04-0.1-0.05-0.188-0.064-0.308
				c-0.016-0.114-0.273-0.184-0.303-0.288c-0.03-0.129,0.108-0.293,0.084-0.422s-0.224-0.224-0.253-0.348
				c-0.025-0.129,0.134-0.303,0.094-0.422c-0.044-0.129-0.044-0.298-0.124-0.402c-0.084-0.114-0.432-0.074-0.481-0.184
				c-0.055-0.119-0.134-0.298-0.144-0.422c-0.02-0.129,0.158-0.293,0.179-0.422c0.015-0.129,0.317-0.174,0.357-0.303
				c0.039-0.119,0.06-0.229,0.109-0.353C24.656,36.618,24.577,36.673,24.632,36.544z"/>
		</g>
		<g>
			<path d="M34.123,28.527c0.119,0.064,0.237,0.095,0.356,0.149c0.119,0.06,0.283,0.044,0.402,0.099
				c0.129,0.055,0.224,0.154,0.348,0.214c0.129,0.06,0.219,0.169,0.343,0.229c0.124,0.055,0.322-0.06,0.446-0.01
				c0.124,0.06,0.074,0.486,0.204,0.541c0.119,0.054,0.337-0.109,0.466-0.05c0.119,0.055,0.313-0.045,0.438,0.01
				s0.263,0.074,0.387,0.129c0.129,0.055,0.064,0.517,0.188,0.571c0.124,0.06,0.338-0.085,0.457-0.03
				c0.129,0.06,0.238,0.139,0.357,0.193c0.129,0.055,0.288,0.025,0.412,0.09c0.119,0.055,0.303-0.005,0.432,0.055
				c0.119,0.06,0.06,0.472,0.179,0.536c0.119,0.06,0.367-0.119,0.481-0.05c0.119,0.069,0.313,0.005,0.432,0.074
				c0.119,0.064,0.025,0.491,0.14,0.561c0.108,0.07,0.287,0.04,0.401,0.109c0.114,0.075,0.238,0.129,0.353,0.204
				c0.114,0.079,0.169,0.223,0.278,0.303c0.109,0.074,0.208,0.169,0.313,0.248c0.109,0.089,0.214,0.079,0.322,0.164
				c-0.029,0.104,0.011,0.084-0.02,0.184c-0.159-0.03-0.272-0.075-0.432-0.109c-0.164-0.03-0.402,0.169-0.551,0.1
				c-0.13-0.065-0.238-0.179-0.357-0.249c-0.129-0.064-0.283-0.084-0.407-0.158c-0.124-0.069-0.269-0.104-0.397-0.179
				c-0.119-0.069-0.029-0.517-0.148-0.586c-0.129-0.069-0.397,0.129-0.526,0.069c-0.119-0.06-0.233-0.134-0.353-0.188
				c-0.119-0.06-0.164-0.278-0.283-0.333c-0.119-0.054-0.322,0.045-0.441-0.01s-0.203-0.193-0.322-0.248s-0.348,0.095-0.467,0.04
				s-0.159-0.293-0.283-0.353c-0.119-0.055-0.203-0.188-0.322-0.248c-0.119-0.055-0.348,0.094-0.467,0.039
				c-0.119-0.06-0.193-0.213-0.313-0.272c-0.119-0.055-0.174-0.253-0.293-0.313s-0.238-0.13-0.357-0.194
				c-0.119-0.055-0.357,0.119-0.477,0.064c-0.119-0.06-0.149-0.292-0.269-0.347c-0.119-0.06-0.277-0.06-0.377-0.14
				c-0.1-0.084,0.01-0.396-0.089-0.486c-0.095-0.084-0.596,0-0.695-0.084C33.69,28.746,34.028,28.646,34.123,28.527z"/>
		</g>
		<g>
			<path d="M39.607,38.688c-0.119-0.079-0.074-0.188-0.188-0.269c-0.114-0.079-0.348,0.03-0.462-0.049
				c-0.114-0.08-0.263-0.095-0.377-0.169c-0.114-0.08-0.313-0.025-0.432-0.1c-0.109-0.079-0.188-0.203-0.303-0.288
				c-0.114-0.079-0.119-0.298-0.229-0.382c-0.109-0.085-0.074-0.343-0.184-0.422s-0.248-0.109-0.357-0.188
				c-0.1-0.085-0.467,0.179-0.571,0.089c-0.104-0.079-0.044-0.367-0.144-0.451c-0.095-0.085-0.219-0.14-0.322-0.224
				c-0.104-0.079-0.259-0.1-0.363-0.179c-0.104-0.079-0.179-0.198-0.277-0.283c-0.1-0.084-0.159-0.213-0.258-0.293
				c-0.1-0.084-0.323-0.02-0.428-0.104c-0.104-0.085,0.06-0.487-0.039-0.571c-0.104-0.079-0.357,0.02-0.452-0.069
				c-0.104-0.079-0.313-0.03-0.412-0.119c-0.099-0.079-0.229-0.129-0.322-0.214c-0.1-0.084,0.084-0.511-0.015-0.596
				c-0.104-0.089-0.318-0.024-0.388-0.153c-0.064-0.119-0.109-0.193-0.179-0.308c0.14,0.015,0.253-0.069,0.407-0.069
				c0.169,0,0.432-0.09,0.541-0.011c0.104,0.08-0.035,0.477,0.074,0.552c0.1,0.074,0.367-0.055,0.477,0.024
				c0.1,0.079,0.293,0.04,0.397,0.124c0.1,0.084-0.05,0.486,0.055,0.565c0.104,0.075,0.283,0.065,0.382,0.149
				c0.104,0.084,0.224,0.144,0.328,0.224c0.104,0.084,0.148,0.229,0.253,0.308c0.104,0.089,0.198,0.179,0.303,0.258
				c0.1,0.079,0.238,0.109,0.338,0.198c0.099,0.08,0.218,0.14,0.322,0.224c0.104,0.085,0.198,0.174,0.303,0.253
				c0.1,0.085,0.357-0.034,0.467,0.04c0.099,0.09,0.174,0.198,0.277,0.283c0.1,0.084,0.244,0.114,0.348,0.193
				c0.1,0.09,0.229,0.129,0.338,0.209c0.1,0.084-0.069,0.506,0.034,0.585c0.104,0.085,0.393-0.069,0.497,0.005
				c0.104,0.085,0.193,0.174,0.303,0.254c0.099,0.084,0.099,0.303,0.193,0.377c0.144,0.119,0.343,0.258,0.441,0.432
				C39.886,38.629,39.697,38.579,39.607,38.688z"/>
		</g>
		<g>
			<path d="M20.14,8.548c-0.02,0.134,0.154,0.253,0.139,0.387c-0.015,0.139-0.298,0.238-0.308,0.377
				c-0.02,0.129,0.184,0.292,0.164,0.422c-0.025,0.134,0.084,0.303,0.055,0.432c-0.035,0.129-0.109,0.248-0.144,0.377
				c-0.03,0.129-0.139,0.248-0.174,0.377c-0.03,0.129-0.08,0.253-0.109,0.382s-0.168,0.233-0.203,0.362
				c-0.035,0.129-0.214,0.224-0.249,0.353s-0.124,0.243-0.164,0.372c-0.03,0.129-0.02,0.268-0.055,0.397
				c-0.035,0.129-0.075,0.258-0.114,0.387c-0.035,0.139-0.069,0.258-0.099,0.387c-0.035,0.134,0.308,0.357,0.268,0.487
				c-0.03,0.134-0.422,0.168-0.452,0.298c-0.035,0.129-0.144,0.243-0.174,0.372c-0.035,0.134,0.139,0.318,0.109,0.447
				c-0.04,0.129,0,0.278-0.04,0.412c-0.04,0.129,0.089,0.298,0.05,0.427c-0.035,0.129-0.119,0.243-0.159,0.372
				c-0.035,0.129-0.238,0.214-0.273,0.343c-0.035,0.129-0.293,0.199-0.323,0.328s-0.005,0.278-0.035,0.407
				c-0.035,0.129,0.342,0.368,0.313,0.497c-0.04,0.129-0.328,0.188-0.367,0.323c-0.035,0.129-0.04,0.263-0.07,0.397
				c-0.03,0.134,0.015,0.283-0.02,0.412c-0.04,0.129-0.119,0.248-0.149,0.377c-0.04,0.129-0.129,0.238-0.169,0.368
				c-0.04,0.134,0.114,0.308,0.08,0.437c-0.04,0.129-0.467,0.159-0.506,0.288c-0.035,0.129,0.164,0.318,0.129,0.447
				c-0.04,0.129,0.089,0.303,0.06,0.432c-0.03,0.119-0.05,0.373-0.124,0.452c-0.084,0.089-0.472-0.179-0.571-0.104
				c-0.099,0.074-0.035,0.313-0.134,0.387c-0.024-0.104-0.024-0.204-0.064-0.303c-0.03-0.119-0.159-0.229-0.129-0.328
				c0.03-0.129-0.074-0.288-0.044-0.417c0.035-0.119,0.446-0.154,0.476-0.278c0.035-0.125-0.193-0.318-0.159-0.447
				c0.035-0.119-0.074-0.288-0.044-0.417c0.04-0.124,0.466-0.149,0.506-0.268c0.035-0.129-0.05-0.288-0.01-0.412
				c0.035-0.124,0.045-0.258,0.075-0.382c0.035-0.124,0.154-0.233,0.184-0.357s0.08-0.248,0.109-0.377
				c0.035-0.124,0.01-0.268,0.04-0.397c0.03-0.139,0.04-0.288,0.069-0.432c0.02-0.139,0.064-0.278,0.084-0.422
				c0.025-0.139-0.213-0.323-0.194-0.462c0.025-0.144,0.089-0.273,0.109-0.422c0.02-0.144-0.02-0.292,0-0.437
				c0.03-0.139,0.01-0.293,0.035-0.432c0.025-0.129,0.481-0.154,0.517-0.283c0.035-0.129-0.214-0.343-0.174-0.467
				c0.044-0.124,0.099-0.248,0.144-0.377c0.04-0.119,0.248-0.194,0.292-0.323c0.03-0.129-0.099-0.313-0.06-0.442
				c0.035-0.129,0.159-0.228,0.199-0.357c0.03-0.134-0.154-0.328-0.119-0.457c0.04-0.129,0.268-0.204,0.308-0.333
				c0.04-0.134,0.159-0.233,0.199-0.362c0.04-0.129-0.149-0.323-0.109-0.452c0.035-0.129,0.179-0.229,0.219-0.357
				c0.04-0.129,0.228-0.213,0.268-0.343c0.035-0.129,0.089-0.253,0.134-0.382c0.044-0.129-0.174-0.333-0.134-0.462
				c0.04-0.129,0.258-0.198,0.297-0.328c0.04-0.129-0.01-0.288,0.03-0.417c0.04-0.119,0.357-0.094,0.427-0.208
				c0.06-0.109-0.154-0.566-0.089-0.675C19.842,8.211,20.011,8.509,20.14,8.548z"/>
		</g>
		<g>
			<path d="M10.991,23.678c-0.01-0.129-0.129-0.278-0.134-0.407c-0.01-0.129-0.089-0.249-0.099-0.377
				c-0.01-0.129,0.069-0.258,0.06-0.387c-0.01-0.129,0.283-0.278,0.278-0.407c-0.01-0.129-0.348-0.229-0.353-0.357
				c-0.015-0.129,0.184-0.268,0.169-0.402c-0.01-0.129-0.084-0.248-0.094-0.377c-0.01-0.129-0.05-0.253-0.06-0.382
				c-0.01-0.144,0.024-0.288,0.015-0.437c-0.01-0.144,0.045-0.288,0.035-0.432c-0.015-0.144-0.238-0.273-0.253-0.412
				c-0.01-0.149-0.075-0.288-0.084-0.432s0.248-0.308,0.238-0.452C10.699,18.272,10.5,18.138,10.49,18
				c-0.01-0.174,0.337-0.318,0.392-0.487c0.03-0.099-0.114-0.278-0.064-0.377c0.06-0.119-0.02-0.08-0.055-0.149
				c-0.064-0.124-0.089-0.298-0.119-0.417c-0.035-0.129,0.01-0.298,0.005-0.422c-0.005-0.129,0.015-0.278,0.03-0.407
				c0.02-0.134,0.149-0.238,0.184-0.372c0.03-0.119,0.213-0.194,0.258-0.318c0.044-0.124,0.139-0.223,0.184-0.342
				c0.05-0.119,0.05-0.263,0.089-0.387s0.094-0.258,0.119-0.382c0.03-0.124,0.06-0.278,0.069-0.407
				c0.01-0.149-0.278-0.412-0.198-0.551c0.079-0.134,0.327,0,0.397-0.134c0.049,0.149-0.064,0.238,0,0.387
				c0.064,0.159,0.313,0.233,0.303,0.392c-0.005,0.134,0.055,0.273,0.044,0.412c0,0.129,0.149,0.278,0.139,0.412
				c-0.01,0.134-0.074,0.263-0.089,0.402c-0.01,0.139-0.188,0.258-0.199,0.397c-0.01,0.134-0.243,0.253-0.253,0.387
				c-0.01,0.134,0.055,0.273,0.044,0.407c-0.015,0.139,0.407,0.298,0.397,0.432c-0.01,0.134-0.278,0.253-0.293,0.387
				c-0.01,0.134,0.015,0.273,0.005,0.402c-0.005,0.139,0.069,0.278,0.06,0.412c-0.01,0.134-0.064,0.263-0.074,0.402
				c-0.01,0.139-0.084,0.268-0.084,0.397c-0.01,0.139,0.164,0.283,0.159,0.417c-0.01,0.134-0.432,0.243-0.437,0.377
				c-0.01,0.134,0.218,0.288,0.208,0.417c-0.01,0.139,0.149,0.283,0.139,0.417s0.02,0.278,0.015,0.407
				c-0.01,0.139-0.467,0.248-0.472,0.377c-0.01,0.139,0.204,0.288,0.198,0.422c-0.01,0.134-0.04,0.273-0.049,0.402
				c-0.01,0.139,0.094,0.268,0.109,0.407c0.01,0.134,0.159,0.258,0.169,0.392c0.01,0.134-0.377,0.263-0.387,0.402
				c-0.01,0.129,0.218,0.288,0.169,0.412c-0.05,0.119-0.04,0.392-0.08,0.516C11.384,23.842,11.116,23.688,10.991,23.678z"/>
		</g>
		<g>
			<path d="M31.06,12.544c-0.074,0.109-0.148,0.035-0.228,0.144c-0.07,0.104-0.104,0.238-0.179,0.357
				c-0.07,0.109-0.1,0.249-0.169,0.357c-0.074,0.114,0.179,0.432,0.109,0.546c-0.07,0.114-0.541-0.04-0.616,0.08
				c-0.069,0.109-0.084,0.258-0.158,0.367c-0.07,0.119,0.029,0.338-0.04,0.447c-0.069,0.109-0.06,0.278-0.134,0.387
				c-0.074,0.119-0.085,0.268-0.154,0.377c-0.074,0.109-0.213,0.174-0.288,0.288c-0.069,0.109-0.396,0.06-0.466,0.169
				c-0.08,0.109,0.129,0.402,0.06,0.506c-0.075,0.109-0.313,0.119-0.388,0.229c-0.069,0.119-0.079,0.268-0.148,0.377
				c-0.08,0.109-0.119,0.238-0.199,0.348c-0.069,0.119-0.188,0.208-0.258,0.317c-0.139-0.054-0.248-0.154-0.387-0.208
				c0.02-0.139-0.174-0.268-0.159-0.407c0.015-0.139-0.02-0.308,0.005-0.437c0.035-0.144,0.333-0.204,0.402-0.317
				c0.074-0.109-0.021-0.328,0.055-0.437c0.074-0.109,0.372-0.06,0.441-0.164c0.074-0.109-0.03-0.343,0.05-0.447
				c0.079-0.104,0.039-0.293,0.119-0.397c0.079-0.104,0.188-0.188,0.263-0.292c0.08-0.1,0.219-0.164,0.293-0.268
				c0.079-0.104,0.174-0.199,0.248-0.298c0.08-0.104,0.238-0.149,0.328-0.249c0.074-0.104,0.277-0.119,0.357-0.218
				c0.069-0.099,0.193-0.159,0.268-0.258c0.074-0.094,0.109-0.213,0.188-0.308c0.08-0.089,0.169-0.179,0.238-0.273
				c0.08-0.094,0.159-0.188,0.233-0.283c0.074-0.1,0.02-0.517,0.1-0.616C30.98,12.063,30.921,12.44,31.06,12.544z"/>
		</g>
	</g>
</g>
<g>
</g>
<g>
</g>
<g>
</g>
<g>
</g>
<g>
</g>
<g>
</g>
<g>
</g>
<g>
</g>
<g>
</g>
<g>
</g>
<g>
</g>
<g>
</g>
<g>
</g>
<g>
</g>
<g>
</g>
</svg>
