<?xml version="1.0" encoding="utf-8"?>
<!-- Generator: Adobe Illustrator 16.0.0, SVG Export Plug-In . SVG Version: 6.00 Build 0)  -->
<!DOCTYPE svg PUBLIC "-//W3C//DTD SVG 1.1//EN" "http://www.w3.org/Graphics/SVG/1.1/DTD/svg11.dtd">
<svg version="1.1" id="圖層_1" xmlns="http://www.w3.org/2000/svg" xmlns:xlink="http://www.w3.org/1999/xlink" x="0px" y="0px"
	 width="55px" height="55px" viewBox="0 0 55 55" enable-background="new 0 0 55 55" xml:space="preserve">
<g>
	<path fill="#B59152" d="M46.82,43.083c-0.272-0.538-0.577-1.066-0.822-1.619c-0.492-1.112-0.929-2.251-1.435-3.364
		c-0.381-0.833-1.004-1.118-1.981-0.991c-2.946,0.376-5.9,0.688-8.855,0.951c-3.35,0.292-6.626,1.007-9.934,1.573
		c-0.278,0.05-0.563,0.181-0.83,0.144c-1.583-0.236-2.823,0.657-4.168,1.207c-2.157,0.875-4.179,1.927-5.689,3.761
		c-0.662,0.797-1.282,1.62-1.947,2.416c-0.241,0.294-0.548,0.53-0.932,0.729c-0.102-1.235,0.601-2.172,0.947-3.227
		c0.346-1.054,0.661-2.222,0.534-3.285c-0.075-0.594-1-1.271-1.687-1.574c-2.124-0.943-4.393-0.643-6.625-0.484
		c-0.192,0.011-0.414,0.135-0.549,0.066c-0.462-0.222-0.887-0.51-1.33-0.777c0.233-0.35,0.395-0.789,0.714-1.026
		c0.466-0.345,1.014-0.668,1.578-0.8c3.052-0.722,4.081-3.089,4.435-5.746c0.458-3.487,0.677-7.015,0.853-10.533
		c0.079-1.544-0.124-3.115-0.36-4.648c-0.083-0.534-0.598-1.06-1.034-1.466c-0.917-0.872-1.917-1.653-2.871-2.491
		c-0.143-0.132-0.21-0.346-0.323-0.542c1.42-0.312,3.578,0.65,4.299,1.947c0.32,0.575,0.722,0.958,1.338,0.658
		c0.992-0.481,1.977-0.098,2.965-0.139c1.206-0.049,2.417-0.124,3.619-0.214c0.936-0.067,1.86-0.18,2.796-0.27
		c3.355-0.316,6.715-0.662,10.078-0.925c0.887-0.067,1.797,0.113,2.698,0.162c0.173,0.012,0.354-0.063,0.526-0.131
		c0.195-0.083,0.391-0.293,0.578-0.286c1.924,0.075,3.577-1.098,5.491-1.135c1.582-0.033,3.152-0.353,4.734-0.402
		c1.547-0.052,2.619-0.872,3.645-1.875c0.538-0.526,1.064-1.075,1.669-1.503c0.326-0.232,0.82-0.357,1.222-0.327
		c0.458,0.041,0.721,0.334,0.331,0.853c-0.851,1.143-1.649,2.326-2.511,3.465c-0.677,0.902-0.804,1.875-0.601,2.942
		c0.134,0.703,0.254,1.417,0.384,2.124c0.021,0.12,0.08,0.259,0.051,0.368c-0.308,1.218-0.661,2.431-0.931,3.66
		c-0.106,0.458-0.049,0.958-0.058,1.439c-0.025,1.74-0.063,3.484-0.079,5.22c-0.012,1.098,0.037,2.194,0.005,3.284
		c-0.035,1.405,0.492,2.21,1.868,2.495c1.18,0.24,2.344,0.204,3.487-0.342c0.313-0.146,0.815,0.082,1.23,0.139
		c-0.222,0.327-0.367,0.805-0.677,0.959c-0.78,0.387-1.614,0.688-2.457,0.913c-2.122,0.563-2.713,1.293-2.935,3.412
		c-0.139,1.326-0.146,2.604,0.196,3.908c0.102,0.376-0.146,0.857-0.238,1.285C47.1,43.054,46.963,43.068,46.82,43.083z"/>
	<g>
		<path fill="#6D4817" d="M16.319,31.167c0.019,0.102,0.026,0.222,0.034,0.315c0.007,0.104,0.083,0.199,0.083,0.297
			c0,0.104-0.195,0.188-0.207,0.286c-0.011,0.104,0.094,0.21,0.071,0.309c-0.022,0.097-0.135,0.153-0.172,0.243
			c-0.038,0.094,0.105,0.278,0.052,0.361c-0.057,0.086-0.067,0.237-0.139,0.304c-0.071,0.075-0.353-0.113-0.44-0.052
			c-0.083,0.052-0.143,0.086-0.24,0.127c-0.09,0.038-0.162,0.05-0.259,0.072c-0.094,0.026-0.169,0.041-0.271,0.048
			c-0.102,0.016-0.177,0.042-0.282,0.045c-0.098,0.005-0.188,0.023-0.293,0.012c-0.097-0.007-0.225,0.17-0.323,0.132
			c-0.086-0.037-0.086-0.236-0.172-0.293c-0.079-0.057-0.263,0.026-0.338-0.042c-0.075-0.063-0.011-0.285-0.083-0.356
			c-0.075-0.067-0.124-0.157-0.195-0.226c-0.076-0.068-0.373,0.105-0.443,0.042c-0.076-0.065,0.034-0.252-0.042-0.313
			c0.072-0.068-0.049-0.245,0.022-0.316c0.072-0.066,0.289,0.008,0.361-0.06c0.072-0.072,0.184-0.105,0.255-0.172
			c0.071-0.072,0.016-0.271,0.086-0.339c0.067-0.071,0.323,0.045,0.398-0.03c0.067-0.067,0.09-0.181,0.162-0.251
			c0.071-0.072-0.049-0.335,0.026-0.403c0.068-0.075,0.3,0.023,0.375-0.042c0.076-0.066,0.196-0.074,0.271-0.139
			c0.075-0.066,0.045-0.255,0.125-0.314c0.071-0.068,0.071-0.233,0.146-0.294c0.083-0.063,0.304,0.061,0.383,0.004
			c0.075-0.061,0.158-0.116,0.24-0.173c0.075-0.049,0.128-0.229,0.251-0.207c0.094,0.015,0.147,0.229,0.256,0.271
			c0.098,0.033,0.252-0.064,0.357-0.023c0.098,0.045,0.263-0.052,0.361-0.007c0.098,0.049,0.131,0.236,0.233,0.278
			c0.105,0.049,0.229,0.105,0.323,0.139c-0.076,0.063-0.169,0.153-0.245,0.218c-0.071,0.063-0.207,0.061-0.282,0.124
			c-0.075,0.06-0.067,0.218-0.143,0.278C16.548,31.089,16.397,31.104,16.319,31.167z"/>
	</g>
	<g>
		<path fill="#6D4817" d="M40.042,15.361c0.014,0.102,0.023,0.218,0.03,0.312c0.007,0.105,0.083,0.203,0.083,0.301
			c0,0.105-0.196,0.188-0.203,0.286c-0.017,0.105,0.09,0.21,0.067,0.304c-0.023,0.102-0.135,0.158-0.174,0.248
			c-0.037,0.094,0.106,0.278,0.054,0.357c-0.054,0.09-0.067,0.237-0.135,0.309c-0.076,0.071-0.353-0.113-0.443-0.053
			c-0.083,0.053-0.143,0.083-0.237,0.124c-0.09,0.038-0.166,0.049-0.264,0.072c-0.095,0.026-0.168,0.042-0.27,0.052
			c-0.098,0.015-0.179,0.038-0.282,0.045c-0.097,0-0.185,0.019-0.289,0.011c-0.099-0.011-0.23,0.169-0.327,0.128
			c-0.083-0.034-0.083-0.237-0.174-0.293c-0.073-0.056-0.263,0.026-0.337-0.041c-0.076-0.06-0.009-0.286-0.083-0.354
			c-0.071-0.067-0.12-0.162-0.196-0.229c-0.074-0.064-0.367,0.109-0.438,0.041c-0.076-0.063,0.029-0.252-0.042-0.308
			c0.067-0.068-0.049-0.249,0.023-0.316c0.066-0.072,0.288,0.007,0.36-0.064c0.066-0.071,0.18-0.101,0.256-0.173
			c0.067-0.071,0.014-0.267,0.081-0.334c0.071-0.076,0.328,0.041,0.399-0.031c0.067-0.067,0.09-0.184,0.166-0.255
			c0.067-0.067-0.051-0.331,0.021-0.402c0.068-0.071,0.305,0.027,0.376-0.041c0.076-0.064,0.198-0.075,0.274-0.139
			c0.072-0.067,0.042-0.251,0.12-0.312c0.074-0.068,0.072-0.233,0.15-0.297c0.078-0.064,0.3,0.063,0.379,0.003
			c0.078-0.06,0.159-0.117,0.24-0.172c0.076-0.049,0.129-0.226,0.256-0.207c0.091,0.019,0.144,0.229,0.252,0.271
			c0.102,0.034,0.252-0.063,0.358-0.019c0.097,0.045,0.263-0.057,0.36-0.007c0.097,0.045,0.136,0.232,0.232,0.277
			c0.104,0.045,0.229,0.106,0.323,0.136c-0.076,0.063-0.166,0.154-0.24,0.222c-0.076,0.063-0.212,0.056-0.286,0.12
			c-0.076,0.064-0.066,0.222-0.143,0.282C40.257,15.282,40.116,15.294,40.042,15.361z"/>
	</g>
	<g>
		<path fill="#6D4817" d="M13.339,36.244c-0.083,0.067-0.383-0.008-0.451,0.052c-0.083,0.068-0.045,0.264-0.117,0.323
			c-0.078,0.072-0.207,0.075-0.277,0.136c-0.079,0.075-0.098,0.195-0.169,0.263c-0.076,0.063-0.15,0.132-0.222,0.188
			c-0.079,0.067-0.109,0.188-0.188,0.244c-0.083,0.064-0.267-0.037-0.346,0.011c-0.086,0.057-0.101,0.203-0.188,0.249
			c-0.042,0.021-0.057-0.113-0.191-0.219c-0.079-0.066-0.309,0.016-0.391-0.066c-0.083-0.084-0.233-0.122-0.304-0.196
			c-0.117-0.136,0.071-0.278,0.09-0.309c0.049-0.082,0.102-0.157,0.15-0.24c0.049-0.082,0.113-0.146,0.169-0.226
			c0.053-0.075,0.109-0.149,0.166-0.222c0.063-0.075,0.105-0.154,0.172-0.229c0.064-0.067,0.113-0.142,0.181-0.21
			c0.071-0.067,0.008-0.285,0.075-0.346c0.075-0.06,0.255,0.016,0.334-0.038c0.042-0.029,0.117-0.146,0.244-0.063
			c0.075,0.042,0.034,0.273,0.127,0.342c0.076,0.054,0.128,0.136,0.218,0.195c0.072,0.053,0.346-0.15,0.428-0.094
			c0.079,0.057,0.023,0.304,0.102,0.365C13.027,36.206,13.256,36.191,13.339,36.244z"/>
	</g>
	<g>
		<path fill="#6D4817" d="M20.794,17.556c0.015,0.102,0.022,0.222,0.03,0.312c0.008,0.105,0.083,0.203,0.083,0.3
			c0,0.105-0.195,0.188-0.203,0.286c-0.012,0.105,0.097,0.21,0.071,0.305c-0.022,0.102-0.139,0.158-0.173,0.248
			c-0.037,0.093,0.109,0.278,0.049,0.361c-0.053,0.086-0.064,0.237-0.136,0.304c-0.067,0.071-0.354-0.113-0.436-0.053
			c-0.083,0.053-0.146,0.083-0.24,0.124c-0.091,0.042-0.166,0.049-0.264,0.072c-0.094,0.026-0.169,0.042-0.271,0.053
			c-0.098,0.015-0.177,0.038-0.282,0.045c-0.098,0.004-0.184,0.019-0.29,0.012c-0.097-0.008-0.229,0.169-0.327,0.127
			c-0.086-0.034-0.086-0.237-0.173-0.293c-0.079-0.056-0.259,0.026-0.342-0.042c-0.075-0.06-0.008-0.286-0.083-0.353
			c-0.067-0.068-0.121-0.162-0.195-0.229c-0.075-0.064-0.369,0.109-0.436,0.042c-0.075-0.064,0.03-0.251-0.045-0.308
			c0.071-0.067-0.045-0.248,0.022-0.316c0.071-0.071,0.293,0.008,0.361-0.064c0.071-0.071,0.188-0.101,0.256-0.173
			c0.071-0.071,0.015-0.267,0.086-0.334c0.071-0.072,0.327,0.041,0.395-0.03c0.071-0.067,0.097-0.184,0.165-0.255
			c0.071-0.068-0.045-0.331,0.022-0.402c0.071-0.072,0.308,0.026,0.376-0.042c0.075-0.064,0.203-0.072,0.278-0.139
			c0.075-0.068,0.041-0.252,0.12-0.312c0.075-0.067,0.068-0.233,0.15-0.293c0.076-0.067,0.301,0.06,0.38,0
			c0.079-0.056,0.154-0.116,0.237-0.172c0.079-0.049,0.131-0.226,0.255-0.207c0.094,0.018,0.146,0.232,0.255,0.271
			c0.098,0.034,0.248-0.064,0.357-0.019c0.098,0.045,0.263-0.052,0.361-0.007c0.098,0.045,0.131,0.232,0.229,0.278
			c0.105,0.045,0.233,0.105,0.328,0.135c-0.075,0.064-0.169,0.154-0.245,0.222c-0.076,0.064-0.207,0.057-0.282,0.12
			c-0.071,0.064-0.071,0.222-0.146,0.282C21.012,17.478,20.87,17.493,20.794,17.556z"/>
	</g>
	<g>
		<path fill="#6D4817" d="M16.138,20.198c-0.079,0.068-0.379-0.007-0.451,0.053c-0.079,0.067-0.041,0.263-0.113,0.323
			c-0.079,0.072-0.207,0.075-0.278,0.135c-0.079,0.071-0.098,0.195-0.169,0.263c-0.079,0.064-0.15,0.131-0.225,0.188
			c-0.075,0.068-0.105,0.188-0.188,0.244c-0.083,0.064-0.263-0.041-0.342,0.012c-0.086,0.057-0.102,0.203-0.191,0.248
			c-0.042,0.022-0.057-0.113-0.188-0.218c-0.083-0.067-0.308,0.015-0.391-0.067s-0.233-0.12-0.305-0.196
			c-0.116-0.135,0.071-0.278,0.09-0.312c0.049-0.079,0.098-0.154,0.147-0.237c0.052-0.083,0.116-0.146,0.172-0.225
			c0.053-0.076,0.105-0.151,0.165-0.222c0.064-0.076,0.106-0.154,0.169-0.23c0.067-0.067,0.117-0.143,0.184-0.21
			c0.071-0.068,0.004-0.286,0.075-0.346c0.075-0.06,0.255,0.015,0.331-0.038c0.045-0.03,0.12-0.147,0.249-0.064
			c0.071,0.042,0.03,0.275,0.127,0.343c0.075,0.052,0.127,0.135,0.214,0.195c0.075,0.053,0.35-0.154,0.433-0.094
			c0.075,0.057,0.019,0.305,0.101,0.365C15.831,20.16,16.052,20.141,16.138,20.198z"/>
	</g>
	<g>
		<path fill="#6D4817" d="M27.329,26.019c-0.101-0.026-0.213-0.063-0.304-0.101c-0.098-0.038-0.218-0.015-0.301-0.064
			c-0.09-0.057-0.041-0.256-0.112-0.319c-0.075-0.075-0.21-0.057-0.263-0.143c-0.053-0.086,0.008-0.192-0.019-0.293
			c-0.023-0.09-0.245-0.154-0.245-0.259c0-0.094-0.075-0.222-0.06-0.327c0.015-0.094,0.354-0.12,0.383-0.218
			c0.027-0.09,0.06-0.169,0.099-0.267c0.037-0.091,0.086-0.166,0.135-0.256c0.042-0.083,0.063-0.112,0.132-0.184
			c0.063-0.067,0.097-0.12,0.177-0.177c0.075-0.056,0.135-0.112,0.21-0.162c0.079-0.045,0.053-0.27,0.135-0.315
			c0.083-0.046,0.255,0.06,0.331,0.011c0.082-0.049,0.142-0.256,0.217-0.304c0.023,0.098-0.12,0.301-0.09,0.398
			c0.023,0.098,0.019,0.21,0.045,0.308c0.03,0.098,0.371,0.113,0.398,0.21c0.026,0.098-0.181,0.256-0.154,0.354
			c0.026,0.102,0.282,0.139,0.304,0.24c0.023,0.098-0.157,0.248-0.135,0.35c0.026,0.098-0.015,0.207,0.012,0.312
			c0.019,0.098,0.21,0.165,0.229,0.263c0.015,0.105-0.229,0.237-0.218,0.338c0.011,0.102,0.086,0.188,0.093,0.293
			c0.009,0.083,0.207,0.252,0.132,0.369c-0.053,0.079-0.309,0.022-0.387,0.112c-0.071,0.083-0.203,0.102-0.282,0.181
			c-0.075,0.083-0.038,0.271-0.113,0.346C27.6,26.797,27.51,27,27.445,27.082c-0.019-0.105,0.113-0.334,0.098-0.436
			c-0.023-0.105-0.042-0.203-0.06-0.308C27.46,26.225,27.348,26.12,27.329,26.019z"/>
	</g>
	<g>
		<path fill="#6D4817" d="M35.188,34.004c-0.068,0.075-0.376,0.038-0.436,0.105c-0.069,0.083-0.008,0.264-0.069,0.338
			c-0.067,0.079-0.194,0.105-0.255,0.174c-0.066,0.078-0.076,0.202-0.136,0.273c-0.074,0.08-0.139,0.146-0.21,0.207
			c-0.074,0.071-0.108,0.188-0.188,0.236c-0.037,0.026-0.037-0.202-0.159-0.334c-0.066-0.09-0.231-0.104-0.296-0.199
			c-0.098-0.139-0.082-0.195-0.063-0.229c0.041-0.099-0.108-0.287-0.061-0.377c0.045-0.097,0.03-0.236,0.082-0.326
			c0.057-0.091,0.389-0.004,0.451-0.091c0.06-0.086,0.12-0.158,0.189-0.236c0.066-0.083,0.139-0.135,0.212-0.207
			c0.042-0.033-0.104,0.034,0.023,0.15c0.067,0.057,0.154,0.116,0.24,0.2c0.071,0.07,0.162,0.135,0.245,0.21
			C34.835,33.966,35.104,33.929,35.188,34.004z"/>
	</g>
	<g>
		<path fill="#6D4817" d="M43.236,31.513c0.016,0.102,0.022,0.222,0.029,0.312c0.008,0.106,0.084,0.203,0.084,0.301
			c0,0.105-0.196,0.188-0.204,0.285c-0.014,0.105,0.091,0.211,0.067,0.306c-0.021,0.102-0.134,0.157-0.173,0.247
			c-0.037,0.095,0.105,0.278,0.053,0.361c-0.053,0.087-0.067,0.236-0.134,0.305c-0.076,0.07-0.354-0.113-0.443-0.053
			c-0.081,0.053-0.144,0.083-0.238,0.123c-0.09,0.042-0.161,0.05-0.263,0.075c-0.093,0.023-0.169,0.042-0.271,0.05
			c-0.097,0.015-0.176,0.041-0.281,0.045c-0.098,0.004-0.186,0.019-0.289,0.012c-0.1-0.008-0.231,0.168-0.328,0.13
			c-0.083-0.036-0.083-0.236-0.173-0.296c-0.074-0.056-0.264,0.026-0.337-0.037c-0.076-0.063-0.008-0.29-0.084-0.357
			c-0.071-0.067-0.12-0.161-0.196-0.226c-0.073-0.067-0.367,0.105-0.438,0.041c-0.074-0.066,0.03-0.255-0.041-0.312
			c0.066-0.068-0.049-0.244,0.022-0.315c0.067-0.071,0.289,0.007,0.36-0.061c0.067-0.074,0.181-0.104,0.257-0.173
			c0.066-0.075,0.014-0.271,0.083-0.338c0.071-0.072,0.325,0.041,0.396-0.03c0.067-0.068,0.091-0.181,0.167-0.255
			c0.066-0.068-0.049-0.332,0.021-0.403c0.069-0.07,0.305,0.026,0.376-0.037c0.076-0.068,0.199-0.075,0.275-0.144
			c0.071-0.063,0.041-0.251,0.12-0.312c0.076-0.066,0.071-0.233,0.15-0.293c0.078-0.063,0.3,0.06,0.378,0
			c0.081-0.057,0.16-0.117,0.243-0.172c0.073-0.05,0.127-0.227,0.254-0.203c0.09,0.015,0.143,0.229,0.256,0.27
			c0.098,0.034,0.247-0.066,0.354-0.021c0.097,0.045,0.264-0.054,0.36-0.008c0.097,0.045,0.136,0.232,0.233,0.278
			c0.106,0.045,0.229,0.104,0.323,0.135c-0.076,0.068-0.166,0.158-0.24,0.222c-0.076,0.063-0.21,0.057-0.286,0.125
			c-0.074,0.06-0.067,0.217-0.144,0.276C43.451,31.434,43.313,31.448,43.236,31.513z"/>
	</g>
	<g>
		<path fill="#6D4817" d="M37.314,32.591c-0.099-0.037-0.161-0.346-0.249-0.379c-0.095-0.042-0.252,0.07-0.342,0.037
			c-0.095-0.037-0.154-0.153-0.245-0.191c-0.097-0.037-0.217-0.004-0.307-0.037c-0.095-0.042-0.185-0.08-0.271-0.121
			c-0.095-0.041-0.219-0.019-0.298-0.061c-0.09-0.049-0.083-0.255-0.164-0.307c-0.088-0.05-0.23-0.005-0.305-0.062
			c-0.039-0.033,0.074-0.105,0.115-0.271c0.023-0.104-0.146-0.27-0.108-0.383c0.037-0.112,0.005-0.264,0.046-0.354
			c0.069-0.165,0.277-0.057,0.314-0.057c0.1,0.008,0.189,0.02,0.282,0.03c0.095,0.012,0.18,0.041,0.274,0.057
			c0.095,0.015,0.18,0.029,0.274,0.053c0.095,0.026,0.186,0.026,0.275,0.052c0.092,0.03,0.18,0.038,0.27,0.072
			c0.091,0.034,0.255-0.124,0.347-0.082c0.09,0.04,0.098,0.236,0.181,0.281c0.044,0.03,0.18,0.045,0.164,0.191
			c-0.008,0.082-0.233,0.15-0.255,0.259c-0.016,0.09-0.06,0.177-0.083,0.282c-0.016,0.09,0.294,0.244,0.277,0.346
			c-0.014,0.094-0.266,0.154-0.284,0.252C37.216,32.298,37.322,32.494,37.314,32.591z"/>
	</g>
	<g>
		<path fill="#6D4817" d="M17.999,38.066c-0.083,0.078-0.132,0.165-0.203,0.236c-0.083,0.083-0.271,0.042-0.346,0.117
			c-0.083,0.078-0.097,0.215-0.173,0.29c-0.075,0.078-0.049,0.267-0.12,0.337c-0.083,0.076-0.354-0.067-0.436,0
			c-0.083,0.068-0.057,0.263-0.143,0.323c-0.086,0.068-0.218,0.057-0.308,0.113c-0.022,0.015-0.034,0.026-0.147-0.063
			c-0.063-0.054-0.131-0.117-0.203-0.182c-0.067-0.063-0.181-0.078-0.244-0.139c-0.068-0.075,0.015-0.263-0.038-0.326
			c-0.083-0.109-0.218-0.087-0.203-0.124c0.045-0.098,0.165-0.136,0.218-0.227c0.053-0.086-0.076-0.285-0.022-0.368
			c0.056-0.082,0.053-0.217,0.116-0.3c0.064-0.083,0.38,0.038,0.44-0.042c0.067-0.078,0.131-0.153,0.199-0.229
			c0.064-0.08,0.139-0.151,0.203-0.229c0.064-0.079,0.011-0.094,0.075-0.177c0.076,0.063,0.027,0.071,0.106,0.135
			c0.075,0.068,0.162,0.117,0.236,0.182c0.075,0.066,0.286-0.035,0.361,0.033c0.075,0.063,0.038,0.259,0.116,0.327
			c0.072,0.06,0.263-0.016,0.342,0.057C17.908,37.878,17.923,37.998,17.999,38.066z"/>
	</g>
	<g>
		<path fill="#A06E32" d="M21.644,32.233c-0.06-0.086-0.12-0.184-0.173-0.267c-0.053-0.09-0.161-0.143-0.203-0.232
			c-0.049-0.091,0.09-0.252,0.052-0.342c-0.038-0.103-0.177-0.15-0.199-0.244c-0.026-0.102,0.049-0.199,0.049-0.298
			c-0.008-0.101-0.218-0.207-0.211-0.297c0.012-0.104-0.045-0.24-0.011-0.338c0.033-0.094,0.368-0.061,0.417-0.146
			c0.045-0.087,0.09-0.14,0.154-0.219c0.064-0.075,0.124-0.116,0.207-0.185c0.075-0.063,0.132-0.112,0.218-0.169
			c0.083-0.057,0.143-0.116,0.233-0.165c0.09-0.049,0.158-0.098,0.256-0.14c0.09-0.041,0.128-0.255,0.233-0.259
			c0.094-0.004,0.184,0.169,0.285,0.188c0.094,0.012,0.226-0.142,0.324-0.115c0.098,0.021,0.135,0.255,0.233,0.277
			c0.094,0.029,0.18,0.09,0.274,0.121c0.095,0.025,0.282-0.26,0.376-0.233c0.102,0.021,0.086,0.236,0.18,0.255
			c-0.033,0.094,0.154,0.203,0.124,0.293c-0.034,0.098-0.264,0.124-0.293,0.219c-0.034,0.094-0.12,0.172-0.15,0.262
			c-0.03,0.099,0.105,0.249,0.075,0.347c-0.033,0.09-0.312,0.105-0.345,0.203c-0.03,0.09,0,0.207-0.03,0.301
			c-0.034,0.093,0.188,0.278,0.153,0.371c-0.033,0.095-0.285,0.11-0.319,0.207c-0.038,0.09-0.146,0.154-0.188,0.245
			c-0.034,0.093,0.075,0.243,0.034,0.333c-0.042,0.091,0.042,0.241-0.004,0.327c-0.045,0.091-0.3,0.08-0.345,0.166
			c-0.045,0.091-0.086,0.173-0.136,0.263c-0.048,0.083-0.015,0.263-0.138,0.298c-0.09,0.03-0.229-0.144-0.35-0.128
			c-0.101,0.011-0.195,0.165-0.308,0.177c-0.105,0.003-0.211,0.161-0.323,0.168c-0.109,0-0.222-0.15-0.331-0.146
			c-0.112,0.008-0.251,0.008-0.349,0.02c0.038-0.09,0.079-0.211,0.12-0.305c0.042-0.09,0.162-0.146,0.199-0.236
			c0.038-0.091-0.03-0.226,0.007-0.315C21.486,32.403,21.602,32.324,21.644,32.233z"/>
	</g>
	<g>
		<path fill="#A06E32" d="M22.05,26.361c0.037-0.098,0.341-0.162,0.38-0.251c0.04-0.094-0.072-0.252-0.039-0.343
			c0.039-0.097,0.155-0.157,0.188-0.248c0.042-0.098,0.003-0.214,0.042-0.304c0.037-0.094,0.075-0.184,0.112-0.275
			c0.038-0.093,0.015-0.217,0.057-0.3c0.042-0.09,0.255-0.083,0.305-0.166c0.052-0.086,0-0.225,0.06-0.3
			c0.03-0.042,0.105,0.075,0.27,0.105c0.105,0.026,0.267-0.146,0.383-0.112c0.113,0.038,0.26,0.007,0.354,0.045
			c0.165,0.067,0.06,0.278,0.06,0.315c-0.003,0.098-0.015,0.188-0.03,0.278c-0.008,0.097-0.033,0.18-0.048,0.278
			c-0.015,0.09-0.035,0.18-0.05,0.27c-0.022,0.098-0.025,0.188-0.052,0.278c-0.03,0.098-0.038,0.18-0.072,0.278
			c-0.03,0.09,0.124,0.255,0.086,0.346c-0.038,0.09-0.233,0.098-0.282,0.18c-0.026,0.049-0.042,0.18-0.191,0.169
			c-0.083-0.007-0.155-0.229-0.263-0.244c-0.09-0.015-0.177-0.064-0.282-0.083c-0.09-0.015-0.245,0.293-0.342,0.27
			c-0.095-0.015-0.15-0.263-0.256-0.277C22.343,26.256,22.147,26.368,22.05,26.361z"/>
	</g>
	<g>
		<path fill="#A06E32" d="M38.558,19.39c-0.056-0.086-0.116-0.184-0.169-0.267c-0.053-0.09-0.166-0.143-0.208-0.233
			c-0.048-0.09,0.093-0.251,0.058-0.342c-0.036-0.102-0.178-0.15-0.203-0.244c-0.022-0.102,0.054-0.199,0.049-0.297
			c-0.007-0.101-0.215-0.207-0.206-0.297c0.012-0.105-0.046-0.24-0.016-0.338c0.034-0.093,0.369-0.06,0.418-0.146
			c0.049-0.086,0.09-0.139,0.157-0.218c0.064-0.075,0.124-0.116,0.203-0.184c0.076-0.064,0.132-0.112,0.222-0.169
			c0.083-0.057,0.139-0.113,0.233-0.165c0.085-0.049,0.156-0.098,0.256-0.139c0.09-0.042,0.127-0.256,0.231-0.259
			c0.09-0.004,0.182,0.169,0.286,0.188c0.09,0.012,0.222-0.143,0.323-0.117c0.095,0.022,0.136,0.256,0.233,0.278
			c0.095,0.03,0.18,0.09,0.27,0.12c0.098,0.026,0.287-0.259,0.379-0.232c0.1,0.022,0.088,0.236,0.183,0.255
			c-0.034,0.094,0.152,0.203,0.12,0.293c-0.03,0.098-0.261,0.124-0.293,0.218c-0.035,0.093-0.118,0.172-0.148,0.267
			c-0.032,0.094,0.106,0.244,0.072,0.342c-0.03,0.09-0.313,0.105-0.342,0.203c-0.03,0.094,0,0.207-0.035,0.3
			c-0.032,0.094,0.189,0.278,0.155,0.373c-0.03,0.093-0.287,0.108-0.319,0.207c-0.034,0.09-0.147,0.154-0.185,0.244
			c-0.034,0.094,0.071,0.244,0.03,0.334c-0.037,0.09,0.041,0.241,0,0.331c-0.044,0.09-0.301,0.075-0.347,0.162
			c-0.048,0.09-0.085,0.173-0.139,0.263c-0.048,0.083-0.012,0.263-0.139,0.297c-0.09,0.03-0.229-0.139-0.346-0.128
			c-0.104,0.011-0.194,0.169-0.308,0.176c-0.106,0.004-0.215,0.162-0.323,0.169c-0.113,0-0.227-0.15-0.33-0.146
			c-0.113,0.007-0.257,0.007-0.354,0.019c0.042-0.09,0.083-0.211,0.122-0.305c0.04-0.09,0.162-0.146,0.201-0.236
			c0.037-0.091-0.03-0.226,0.003-0.316C38.402,19.559,38.525,19.48,38.558,19.39z"/>
	</g>
	<g>
		<path fill="#A06E32" d="M41.548,14.948c0.042-0.094,0.344-0.162,0.381-0.252c0.037-0.09-0.076-0.248-0.037-0.338
			c0.037-0.097,0.15-0.157,0.188-0.248c0.037-0.098,0.005-0.218,0.037-0.308c0.037-0.09,0.078-0.181,0.113-0.271
			c0.041-0.098,0.022-0.218,0.06-0.301c0.046-0.09,0.257-0.083,0.308-0.165c0.051-0.09,0-0.229,0.058-0.304
			c0.034-0.038,0.102,0.075,0.27,0.109c0.102,0.026,0.269-0.146,0.379-0.113c0.113,0.038,0.264,0.004,0.358,0.045
			c0.166,0.068,0.06,0.278,0.06,0.316c-0.004,0.094-0.019,0.184-0.025,0.278c-0.016,0.094-0.039,0.18-0.053,0.274
			c-0.017,0.094-0.03,0.18-0.054,0.274c-0.014,0.094-0.022,0.184-0.048,0.278c-0.025,0.098-0.035,0.18-0.071,0.277
			c-0.03,0.087,0.127,0.252,0.085,0.343c-0.039,0.09-0.235,0.097-0.281,0.184c-0.03,0.045-0.037,0.18-0.192,0.169
			c-0.081-0.007-0.152-0.229-0.263-0.248c-0.091-0.015-0.176-0.064-0.282-0.079c-0.09-0.019-0.242,0.293-0.342,0.271
			c-0.092-0.015-0.152-0.263-0.252-0.278C41.846,14.847,41.647,14.959,41.548,14.948z"/>
	</g>
	<g>
		<path fill="#A06E32" d="M28.934,14.73c0.105-0.026,0.222-0.042,0.316-0.049c0.105-0.012,0.202-0.083,0.301-0.075
			c0.104,0.007,0.149,0.21,0.239,0.24c0.099,0.03,0.219-0.045,0.302,0.007c0.078,0.057,0.078,0.173,0.146,0.252
			c0.064,0.075,0.29,0.034,0.335,0.124c0.045,0.083,0.173,0.166,0.203,0.271c0.026,0.09-0.264,0.263-0.245,0.369
			c0.02,0.09,0.027,0.172,0.035,0.277c0.007,0.098-0.008,0.188-0.008,0.293c0,0.09-0.008,0.132-0.034,0.222
			c-0.026,0.086-0.034,0.154-0.079,0.237s-0.067,0.166-0.116,0.241c-0.049,0.079,0.071,0.267,0.019,0.346
			c-0.053,0.079-0.248,0.06-0.297,0.135c-0.049,0.083-0.011,0.293-0.056,0.376c-0.068-0.079-0.027-0.324-0.099-0.398
			c-0.067-0.083-0.108-0.181-0.177-0.256c-0.063-0.083-0.379,0.064-0.446-0.015c-0.068-0.075,0.041-0.308-0.027-0.387
			c-0.063-0.079-0.312,0.003-0.378-0.072c-0.068-0.083,0.025-0.293-0.038-0.372c-0.061-0.079-0.084-0.192-0.144-0.274
			c-0.063-0.076-0.263-0.053-0.323-0.136c-0.061-0.083,0.098-0.315,0.041-0.398c-0.057-0.09-0.161-0.132-0.214-0.222
			c-0.041-0.075-0.301-0.132-0.278-0.271c0.007-0.098,0.258-0.166,0.293-0.278c0.026-0.102,0.135-0.18,0.172-0.286
			c0.03-0.108-0.082-0.259-0.052-0.361c0.029-0.108,0.021-0.334,0.045-0.432c0.06,0.083,0.045,0.349,0.104,0.436
			c0.068,0.083,0.129,0.165,0.188,0.249C28.724,14.606,28.874,14.647,28.934,14.73z"/>
	</g>
	<g>
		<path fill="#A06E32" d="M34.292,23.813c0.03-0.098,0.323-0.203,0.347-0.293c0.022-0.105-0.108-0.241-0.091-0.331
			c0.023-0.105,0.128-0.177,0.155-0.27c0.021-0.106-0.027-0.218,0-0.309c0.025-0.102,0.056-0.188,0.092-0.278
			c0.04-0.09,0.017-0.214,0.061-0.293c0.027-0.038,0.129,0.166,0.293,0.233c0.102,0.042,0.257-0.015,0.354,0.038
			c0.15,0.083,0.159,0.143,0.159,0.177c0.007,0.105,0.222,0.203,0.222,0.312c0,0.105,0.079,0.222,0.072,0.327
			c-0.01,0.105-0.345,0.176-0.363,0.278c-0.014,0.105-0.037,0.196-0.06,0.297c-0.03,0.105-0.061,0.188-0.097,0.286
			c-0.023,0.049,0.083-0.075-0.091-0.124c-0.088-0.023-0.191-0.034-0.31-0.071c-0.09-0.03-0.2-0.045-0.312-0.076
			C34.622,23.685,34.398,23.839,34.292,23.813z"/>
	</g>
	<g>
		<path fill="#A06E32" d="M29.141,30.847c0.094-0.029,0.199-0.056,0.293-0.078c0.099-0.026,0.177-0.116,0.271-0.132
			c0.102-0.019,0.215,0.158,0.312,0.15c0.099-0.007,0.182-0.135,0.271-0.127c0.104,0.003,0.18,0.101,0.271,0.12
			c0.098,0.019,0.248-0.151,0.334-0.117c0.091,0.037,0.249,0.037,0.319,0.103c0.075,0.06-0.105,0.345-0.052,0.428
			c0.052,0.082,0.071,0.132,0.102,0.229c0.025,0.087,0.025,0.155,0.04,0.256c0.008,0.091,0,0.083-0.049,0.181
			c-0.041,0.079-0.063,0.146-0.123,0.229c-0.061,0.075-0.105,0.155-0.17,0.233c-0.063,0.075,0.026,0.282-0.033,0.357
			c-0.063,0.078-0.203,0.008-0.256,0.086c-0.09-0.045-0.196,0.075-0.293,0.034c-0.09-0.042-0.105-0.278-0.195-0.319
			c-0.102-0.045-0.181-0.113-0.278-0.158s-0.323,0.219-0.421,0.174c-0.098-0.046-0.098-0.309-0.188-0.351
			c-0.098-0.041-0.293,0.124-0.392,0.075c-0.093-0.049-0.093-0.281-0.18-0.335c-0.099-0.052-0.158-0.149-0.24-0.206
			c-0.092-0.056-0.278,0.034-0.361-0.025c-0.075-0.054,0.143-0.174,0.173-0.306c0.019-0.09-0.015-0.184,0.021-0.289
			c0.035-0.098-0.176-0.289-0.142-0.387c0.037-0.109,0.244-0.075,0.264-0.166c0.082,0.042,0.045,0.162,0.127,0.204
			c0.083,0.041,0.245-0.046,0.327-0.004C28.967,30.735,29.059,30.802,29.141,30.847z"/>
	</g>
	<g>
		<path fill="#A06E32" d="M39.583,24.512c0.105-0.003,0.293,0.237,0.395,0.233c0.102-0.008,0.191-0.177,0.286-0.185
			c0.102-0.011,0.206,0.064,0.305,0.064c0.104-0.008,0.194-0.098,0.294-0.106c0.097-0.007,0.193-0.011,0.295-0.015
			s0.199-0.075,0.298-0.075c0.103,0,0.188,0.188,0.282,0.196c0.097,0.007,0.205-0.098,0.296-0.076
			c0.053,0.011-0.019,0.124,0.022,0.29c0.023,0.101,0.25,0.177,0.271,0.29c0.017,0.12,0.108,0.232,0.118,0.342
			c0.011,0.177-0.222,0.177-0.262,0.188c-0.09,0.034-0.171,0.063-0.261,0.098c-0.09,0.03-0.178,0.048-0.272,0.071
			c-0.092,0.031-0.176,0.053-0.271,0.076c-0.092,0.026-0.173,0.06-0.27,0.083c-0.095,0.015-0.181,0.045-0.275,0.053
			c-0.097,0.012-0.175,0.226-0.266,0.226c-0.102,0.008-0.196-0.166-0.293-0.173c-0.053,0-0.18,0.045-0.233-0.098
			c-0.034-0.075,0.139-0.237,0.104-0.346c-0.021-0.083-0.015-0.188-0.049-0.286c-0.025-0.09-0.367-0.09-0.397-0.188
			c-0.027-0.09,0.169-0.256,0.139-0.346C39.805,24.73,39.617,24.606,39.583,24.512z"/>
	</g>
	<g>
		<path fill="#A06E32" d="M17.059,26.812c0.038-0.109,0.049-0.211,0.079-0.309c0.034-0.105,0.222-0.158,0.259-0.256
			c0.038-0.105-0.012-0.232,0.022-0.337c0.038-0.106-0.075-0.256-0.038-0.354c0.038-0.105,0.346-0.098,0.387-0.196
			c0.042-0.105-0.064-0.263-0.018-0.36c0.045-0.098,0.165-0.143,0.225-0.233c0.015-0.022,0.015-0.038,0.162-0.008
			c0.079,0.015,0.169,0.045,0.263,0.072c0.086,0.022,0.195-0.012,0.282,0.019c0.094,0.038,0.102,0.241,0.177,0.274
			c0.124,0.057,0.236-0.026,0.236,0.023c0.008,0.102-0.09,0.191-0.09,0.297c-0.007,0.097,0.195,0.217,0.18,0.319
			s0.049,0.222,0.03,0.319c-0.022,0.098-0.356,0.135-0.379,0.237c-0.027,0.098-0.049,0.196-0.072,0.293
			c-0.022,0.102-0.06,0.199-0.083,0.296c-0.022,0.098,0.03,0.09,0.011,0.188c-0.093-0.023-0.056-0.049-0.154-0.072
			C18.442,27,18.344,27,18.247,26.969c-0.098-0.022-0.241,0.158-0.338,0.128c-0.09-0.023-0.146-0.215-0.248-0.237
			c-0.094-0.022-0.233,0.124-0.334,0.102C17.228,26.936,17.164,26.834,17.059,26.812z"/>
	</g>
	<g>
		<path d="M51.631,6.857c0,0.105,0.019,0.21,0.011,0.312c-0.011,0.102-0.214,0.173-0.229,0.271
			c-0.022,0.102-0.019,0.191-0.041,0.289c-0.025,0.098,0.222,0.282,0.185,0.376c-0.037,0.098-0.102,0.188-0.144,0.282
			c-0.046,0.094-0.136,0.169-0.187,0.26c-0.047,0.09-0.333,0.038-0.384,0.12c-0.053,0.09,0.194,0.376,0.134,0.458
			c-0.055,0.083-0.305,0.03-0.367,0.105c-0.06,0.083,0.015,0.278-0.048,0.354c-0.069,0.083-0.374-0.06-0.443,0.015
			c-0.065,0.075,0.025,0.301-0.051,0.372c-0.067,0.071-0.134,0.154-0.201,0.222c-0.076,0.076-0.061,0.226-0.132,0.301
			c-0.071,0.072-0.222,0.067-0.291,0.139c-0.071,0.075-0.271,0.026-0.337,0.102c-0.067,0.075-0.12,0.169-0.189,0.244
			c-0.067,0.079,0.118,0.349,0.063,0.424c-0.064,0.076-0.159,0.113-0.213,0.196c-0.06,0.083-0.312,0.045-0.36,0.127
			c-0.044,0.087-0.173,0.15-0.21,0.233c-0.044,0.09-0.019,0.222-0.053,0.312c-0.03,0.094,0.173,0.259,0.15,0.354
			c-0.021,0.094-0.104,0.169-0.12,0.267c-0.015,0.098-0.128,0.18-0.135,0.282c-0.011,0.098,0.051,0.196,0.051,0.297
			c0.005,0.098,0.106,0.184,0.118,0.282c0.012,0.102,0.061,0.181,0.078,0.278c0.017,0.094,0.037,0.181,0.061,0.282
			c0.027,0.098-0.007,0.203,0.019,0.301c0.027,0.102,0.064,0.192,0.095,0.289c0.03,0.098,0.108,0.177,0.143,0.271
			c0.033,0.094-0.058,0.237-0.022,0.327c0.037,0.098-0.007,0.222,0.029,0.316c0.035,0.094-0.053,0.232-0.014,0.323
			c0.03,0.098,0.404,0.083,0.435,0.18s-0.051,0.256-0.051,0.368c0,0.105-0.054,0.229-0.093,0.323
			c-0.032,0.094-0.251,0.116-0.284,0.218c-0.036,0.09,0.194,0.293,0.164,0.383c-0.037,0.098-0.06,0.199-0.09,0.293
			c-0.037,0.094-0.33,0.102-0.36,0.195s0.113,0.248,0.083,0.35c-0.029,0.098-0.007,0.207-0.037,0.304
			c-0.029,0.098-0.239,0.135-0.272,0.233c-0.029,0.102-0.141,0.173-0.168,0.271c-0.025,0.102-0.063,0.196-0.093,0.293
			s0.134,0.248,0.104,0.346c-0.025,0.098-0.054,0.195-0.084,0.293c-0.021,0.098-0.06,0.191-0.08,0.293
			c-0.023,0.098,0.08,0.226,0.063,0.323c-0.019,0.098-0.319,0.143-0.342,0.24c-0.019,0.098,0.029,0.218,0.016,0.316
			c-0.021,0.098-0.113,0.188-0.129,0.286c-0.014,0.098,0.21,0.24,0.2,0.338c-0.011,0.098-0.219,0.173-0.23,0.271
			c-0.014,0.105,0,0.207-0.014,0.308c-0.007,0.102,0.18,0.225,0.173,0.323c-0.009,0.098,0.042,0.203,0.032,0.304
			c-0.012,0.102-0.132,0.192-0.132,0.293c-0.011,0.101,0.01,0.199,0,0.304c-0.007,0.098-0.138,0.195-0.143,0.293
			c-0.007,0.105-0.12,0.207-0.12,0.304c0,0.102,0.286,0.199,0.286,0.3c0,0.102-0.277,0.207-0.277,0.312
			c0,0.101,0.164,0.195,0.174,0.297c0.007,0.102,0.187,0.188,0.193,0.289s-0.014,0.199-0.007,0.301
			c0.007,0.105-0.127,0.218-0.117,0.316c0.011,0.101-0.139,0.222-0.127,0.323c0.011,0.098,0.196,0.181,0.21,0.278
			c0.019,0.098-0.042,0.211-0.025,0.312c0.007,0.102,0.198,0.195,0.203,0.301c0.002,0.1-0.106,0.213-0.106,0.318
			c0,0.102,0.067,0.207,0.067,0.312c0,0.102,0.034,0.206,0.029,0.312c-0.002,0.106-0.044,0.207-0.044,0.312
			c0,0.102-0.105,0.203-0.105,0.305c0,0.105-0.081,0.211-0.081,0.315c0,0.102,0.235,0.196,0.24,0.302
			c0.002,0.102-0.201,0.225-0.189,0.323c0.012,0.09,0.136,0.172,0.144,0.27c0.016,0.091,0.06,0.174,0.083,0.271
			c0.016,0.09-0.208,0.241-0.181,0.331c0.023,0.094,0.083,0.188,0.113,0.274c0.03,0.09,0.213,0.131,0.254,0.206
			c0.042,0.091-0.048,0.271,0.01,0.347c0.06,0.078,0.353-0.083,0.42-0.03c0.086,0.061,0.037,0.33,0.134,0.376
			c0.095,0.045,0.286-0.15,0.389-0.117c0.097,0.035,0.147,0.222,0.244,0.245c0.104,0.015,0.217-0.12,0.323-0.117
			c0.104,0.004,0.194,0.109,0.301,0.102c0.105-0.008,0.247,0.195,0.353,0.169c0.098-0.019,0.113-0.379,0.211-0.408
			c0.102-0.035,0.196-0.035,0.293-0.08c0.095-0.042,0.24,0.023,0.33-0.033c0.09-0.054,0.127-0.219,0.22-0.264
			c0.092-0.049,0.187-0.128,0.281-0.161c0.098-0.042,0.252,0.063,0.354,0.041c0.1-0.026,0.222,0.094,0.326,0.079
			c0.097-0.016,0.187-0.177,0.293-0.177c0.102,0,0.18,0.232,0.281,0.248c0.102,0.015,0.238-0.169,0.335-0.136
			c0.098,0.022,0.155,0.154,0.247,0.195c0.095,0.042,0.271-0.082,0.365-0.026c0.102,0.057,0.185,0.132,0.264,0.191
			c0.09,0.068,0.156,0.167,0.229,0.237c0.083,0.079,0.136,0.185,0.189,0.267c0.06,0.095,0.09,0.207,0.104,0.305
			c0.016,0.102,0.012,0.215-0.014,0.323c-0.03,0.094,0,0.245-0.061,0.342c-0.053,0.083-0.21,0.099-0.291,0.181
			c-0.066,0.071-0.048,0.263-0.139,0.331c-0.073,0.063-0.217,0.052-0.295,0.112c-0.081,0.068-0.222,0.057-0.298,0.121
			c-0.079,0.067-0.169,0.108-0.247,0.172c-0.079,0.061-0.12,0.174-0.203,0.229c-0.084,0.061-0.233,0-0.324,0.049
			c-0.083,0.054-0.112,0.207-0.207,0.248c-0.091,0.037-0.176,0.098-0.272,0.132c-0.095,0.026-0.189,0.094-0.291,0.108
			c-0.102,0.016-0.206,0.068-0.305,0.072c-0.098,0.003-0.194-0.063-0.291-0.049c-0.095,0.015-0.167,0.142-0.257,0.161
			c-0.097,0.022-0.215-0.056-0.31-0.034c-0.09,0.03-0.141,0.166-0.23,0.2c-0.091,0.033-0.294-0.215-0.384-0.174
			c-0.09,0.042-0.09,0.282-0.183,0.32c-0.09,0.041-0.2,0.037-0.288,0.075c-0.09,0.045-0.155,0.138-0.235,0.18
			c-0.091,0.038-0.137,0.18-0.222,0.218c-0.091,0.042-0.215-0.022-0.294,0.027c-0.083,0.055-0.078,0.177-0.139,0.243
			c-0.069,0.068-0.219,0.057-0.256,0.144c-0.046,0.082-0.264,0.135-0.279,0.236c-0.015,0.09,0.272,0.203,0.279,0.304
			c0.007,0.092-0.054,0.185-0.023,0.283c0.023,0.082,0.188,0.172,0.188,0.267c0.009,0.101-0.213,0.18-0.254,0.252
			c-0.059,0.09-0.008,0.229-0.049,0.318c-0.042,0.099-0.173,0.154-0.203,0.248c-0.035,0.099,0.032,0.226,0.012,0.323
			c-0.023,0.102,0.044,0.203,0.029,0.305c-0.011,0.101-0.06,0.192-0.069,0.289c0,0.102-0.276,0.21-0.276,0.309
			c0.007,0.104,0.337,0.188,0.346,0.285c0.007,0.104-0.041,0.206-0.027,0.308c0.012,0.103,0.083,0.192,0.1,0.29
			c0.014,0.102-0.102,0.222-0.083,0.323c0.018,0.102,0.062,0.195,0.078,0.297s-0.046,0.21-0.03,0.315
			c0.019,0.098,0.247,0.18,0.257,0.278c0.014,0.105-0.1,0.222-0.091,0.327c0.008,0.102,0.098,0.206,0.098,0.312
			c0,0.109,0,0.218-0.007,0.319c-0.01,0.105-0.113,0.207-0.125,0.305c-0.012,0.105,0.115,0.237,0.102,0.338
			c-0.019,0.095-0.281,0.151-0.383,0.244c-0.084,0.072-0.25,0.016-0.35,0.072c-0.11,0.057-0.147,0.285-0.244,0.308
			c-0.106,0.019-0.227-0.083-0.347-0.098c-0.113-0.015-0.235,0.003-0.342-0.037c-0.115-0.042-0.108-0.245-0.198-0.309
			c-0.083-0.06-0.301,0.063-0.377,0c-0.071-0.067-0.252-0.045-0.318-0.121c-0.064-0.075,0.108-0.337,0.049-0.42
			c-0.054-0.083-0.037-0.191-0.088-0.278c-0.049-0.087-0.181-0.12-0.222-0.21c-0.037-0.091-0.157-0.146-0.192-0.24
			c-0.032-0.09-0.002-0.207-0.032-0.302c-0.029-0.094-0.022-0.195-0.058-0.293c-0.03-0.09-0.205-0.139-0.235-0.232
			c-0.023-0.095,0.083-0.233,0.049-0.323c-0.03-0.098-0.091-0.195-0.125-0.286c-0.037-0.097,0.053-0.247,0.012-0.346
			c-0.042-0.09-0.432-0.038-0.476-0.131c-0.04-0.094,0.139-0.286,0.099-0.38c-0.039-0.094,0-0.226-0.039-0.315
			c-0.039-0.099-0.256-0.113-0.298-0.21c-0.042-0.095-0.042-0.204-0.078-0.302c-0.035-0.097-0.007-0.217-0.047-0.3
			c-0.044-0.091-0.029-0.226-0.08-0.301c-0.061-0.083-0.287-0.015-0.358-0.075c-0.076-0.068-0.139-0.098-0.222-0.143
			s-0.125-0.195-0.217-0.219c-0.09-0.021-0.196,0.105-0.298,0.099c-0.091,0-0.199-0.24-0.305-0.23
			c-0.091,0.012-0.188,0.08-0.284,0.099c-0.111,0.026-0.227-0.063-0.34-0.049c-0.104,0.019-0.203,0.03-0.316,0.041
			c-0.108,0.011-0.198,0.215-0.307,0.222c-0.113,0.008-0.218,0-0.331,0c-0.108,0.008-0.219,0.015-0.33,0.022
			c-0.106,0.007-0.203,0.144-0.316,0.15c-0.108,0.008-0.226-0.233-0.339-0.236c-0.108-0.004-0.24,0-0.345,0.019
			c-0.105,0.02-0.173,0.191-0.279,0.211c-0.097,0.015-0.193,0.063-0.293,0.078c-0.104,0.019-0.21,0-0.312,0.012
			c-0.102,0.015-0.206,0.015-0.303,0.03c-0.106,0.01-0.222-0.113-0.323-0.099c-0.102,0.016-0.174,0.278-0.275,0.294
			c-0.102,0.011-0.207-0.016-0.312-0.004c-0.1,0.011-0.215-0.09-0.316-0.079s-0.217-0.128-0.323-0.12
			c-0.097,0.015-0.203-0.034-0.307-0.022c-0.102,0.007-0.201,0.061-0.303,0.071c-0.104,0.008-0.176,0.349-0.277,0.357
			c-0.104,0.007-0.227-0.2-0.328-0.188c-0.099,0.007-0.21-0.06-0.312-0.053c-0.104,0.008-0.21-0.019-0.308-0.007
			c-0.105,0.007-0.196,0.153-0.298,0.161c-0.099,0.007-0.2,0.007-0.302,0.019c-0.106,0.008-0.211-0.097-0.316-0.09
			c-0.102,0.008-0.196,0.098-0.298,0.104c-0.102,0.009-0.184,0.245-0.285,0.252c-0.102,0.012-0.215-0.12-0.319-0.112
			c-0.098,0.011-0.214-0.102-0.315-0.091c-0.102,0.012-0.219-0.078-0.315-0.063c-0.106,0.008-0.196,0.105-0.302,0.113
			c-0.102,0.015-0.184,0.195-0.281,0.207c-0.097,0.011-0.191,0.09-0.293,0.102c-0.102,0.015-0.229-0.158-0.327-0.144
			c-0.105,0.015-0.195,0.113-0.293,0.128c-0.102,0.016-0.192,0.09-0.294,0.105c-0.101,0.015-0.202,0.03-0.3,0.052
			c-0.105,0.02-0.181,0.132-0.285,0.15c-0.099,0.022-0.237-0.157-0.339-0.136c-0.104,0.02-0.169,0.174-0.267,0.2
			c-0.102,0.021-0.199,0.057-0.297,0.082c-0.098,0.026-0.236-0.101-0.334-0.07c-0.099,0.025-0.162,0.191-0.26,0.217
			c-0.098,0.023-0.256-0.18-0.353-0.157c-0.099,0.025-0.192,0.056-0.294,0.075c-0.102,0.022-0.173,0.207-0.274,0.217
			c-0.102,0.012-0.213-0.175-0.32-0.168c-0.105,0.003-0.195,0.019-0.296,0.019c-0.101-0.004-0.188-0.034-0.289-0.045
			c-0.102-0.016-0.225,0.173-0.331,0.199c-0.097,0.019-0.157,0.146-0.262,0.184c-0.091,0.038-0.245-0.06-0.347-0.021
			c-0.09,0.045-0.173,0.12-0.27,0.165c-0.098,0.037-0.237-0.057-0.335-0.03c-0.112,0.03-0.188,0.226-0.304,0.24
			c-0.121,0.012-0.245-0.063-0.358-0.063c-0.09,0-0.146-0.181-0.237-0.2c-0.093-0.021-0.207,0.241-0.296,0.257
			c-0.097,0.015-0.184,0.104-0.285,0.12c-0.102,0.019-0.23-0.12-0.327-0.102c-0.098,0.019-0.173,0.177-0.271,0.195
			c-0.097,0.018-0.255-0.244-0.353-0.222c-0.098,0.022-0.14,0.319-0.236,0.338c-0.102,0.023-0.242-0.146-0.338-0.124
			c-0.098,0.022-0.181,0.117-0.278,0.139c-0.098,0.027-0.214-0.029-0.313-0.007c-0.098,0.025-0.154,0.218-0.251,0.24
			c-0.102,0.022-0.199,0.045-0.297,0.072c-0.098,0.025-0.173,0.119-0.271,0.146c-0.097,0.029-0.203,0-0.304,0.033
			c-0.098,0.026-0.259-0.154-0.349-0.125c-0.098,0.03-0.124,0.271-0.222,0.305c-0.094,0.03-0.222-0.041-0.32-0.003
			c-0.09,0.03-0.18,0.075-0.278,0.112c-0.09,0.038-0.207,0.02-0.301,0.053c-0.094,0.038-0.165,0.132-0.255,0.165
			c-0.098,0.038-0.192,0.071-0.286,0.113c-0.094,0.037-0.21,0.019-0.301,0.06c-0.094,0.037-0.21,0.03-0.301,0.072
			c-0.09,0.041-0.075,0.304-0.172,0.345c-0.09,0.042-0.271-0.104-0.361-0.063c-0.09,0.049-0.18,0.094-0.267,0.144
			c-0.09,0.045-0.214,0.037-0.296,0.082c-0.09,0.048-0.098,0.248-0.181,0.297c-0.09,0.049-0.24-0.012-0.327,0.041
			c-0.086,0.054-0.033,0.327-0.116,0.375c-0.09,0.057-0.369-0.187-0.447-0.13c-0.083,0.056-0.086,0.236-0.169,0.292
			c-0.083,0.06-0.158,0.125-0.241,0.191c-0.083,0.057-0.053,0.264-0.127,0.328c-0.079,0.063-0.233,0.019-0.316,0.086
			c-0.075,0.06-0.18,0.095-0.255,0.158c-0.083,0.067-0.064,0.236-0.139,0.305c-0.071,0.066-0.286-0.016-0.357,0.048
			c-0.075,0.068-0.09,0.203-0.157,0.271C14.083,44.83,14.113,45,14.042,45.07c-0.071,0.072-0.369-0.075-0.432-0.003
			c-0.075,0.075,0.083,0.354,0.015,0.428c-0.067,0.075-0.218,0.075-0.286,0.15c-0.06,0.075-0.21,0.095-0.263,0.182
			c-0.049,0.082-0.15,0.153-0.195,0.24c-0.042,0.086,0.042,0.24,0,0.323c-0.045,0.09-0.038,0.21-0.083,0.293
			c-0.053,0.082-0.158,0.132-0.222,0.207c-0.064,0.078-0.192,0.101-0.252,0.18c-0.067,0.079-0.191,0.102-0.256,0.181
			c-0.067,0.078,0.09,0.35,0.027,0.425c-0.068,0.075-0.154,0.139-0.222,0.213c-0.076,0.072-0.29,0-0.361,0.072
			c-0.075,0.068-0.181,0.083-0.256,0.146c-0.083,0.063,0.045,0.395-0.038,0.451c-0.083,0.061-0.289-0.064-0.376-0.015
			c-0.086,0.049-0.097,0.252-0.191,0.292c-0.09,0.042-0.274-0.139-0.372-0.108c-0.094,0.03-0.173,0.078-0.274,0.102
			c-0.079,0.019-0.087-0.108-0.207-0.2c-0.121-0.09-0.309-0.052-0.316-0.135c-0.008-0.097-0.12-0.18-0.128-0.278
			c-0.007-0.097,0-0.198-0.007-0.297c0-0.097-0.057-0.195-0.057-0.293c0-0.097,0.169-0.191,0.177-0.285
			c0.007-0.097-0.072-0.207-0.053-0.297c0.015-0.099,0.12-0.173,0.147-0.264c0.026-0.097-0.049-0.218-0.019-0.312
			c0.026-0.094,0.233-0.128,0.256-0.218c0.033-0.091-0.053-0.222-0.023-0.313c0.03-0.09,0.008-0.206,0.041-0.296
			c0.034-0.091,0.147-0.154,0.181-0.244c0.034-0.091,0.015-0.196,0.049-0.286c0.038-0.09-0.038-0.226,0-0.315
			s0.079-0.18,0.121-0.267c0.038-0.09,0.098-0.173,0.131-0.26c0.042-0.09,0.132-0.157,0.169-0.24c0.038-0.09-0.008-0.222,0.03-0.309
			c0.045-0.09,0.136-0.143,0.166-0.233c0.03-0.097,0.33-0.116,0.349-0.206c0.022-0.094-0.214-0.244-0.199-0.334
			c0.012-0.098,0.09-0.188,0.09-0.286c0-0.097-0.083-0.188-0.09-0.278c-0.007-0.101-0.098-0.172-0.113-0.271
			c-0.015-0.09,0.237-0.24,0.214-0.334c-0.026-0.094-0.263-0.124-0.297-0.223c-0.03-0.093,0.188-0.27,0.15-0.36
			c-0.03-0.083-0.124-0.21-0.199-0.281c-0.064-0.063-0.334,0.123-0.425,0.071c-0.075-0.053-0.075-0.225-0.166-0.267
			c-0.09-0.041-0.229,0.026-0.315-0.015c-0.09-0.042-0.158-0.14-0.233-0.181c-0.098-0.05-0.203-0.057-0.293-0.106
			C9.04,40.37,9.078,40.031,8.98,39.99c-0.098-0.041-0.293,0.177-0.391,0.146c-0.105-0.03-0.188-0.105-0.289-0.12
			c-0.102-0.021-0.196-0.198-0.297-0.203c-0.105-0.004-0.225,0.038-0.33,0.045c-0.102,0.015-0.211,0.068-0.313,0.102
			c-0.094,0.03-0.229,0.026-0.327,0.08c-0.083,0.045-0.038,0.314-0.128,0.383c-0.09,0.067-0.503,0.112-0.542,0.067
			c-0.075-0.09-0.097-0.172-0.176-0.229c-0.094-0.065-0.154-0.117-0.249-0.147c-0.102-0.034-0.184-0.09-0.293-0.09
			c-0.105-0.008-0.229-0.154-0.334-0.14c-0.105,0.016-0.21,0.057-0.316,0.075c-0.105,0.02-0.176,0.274-0.277,0.29
			c-0.106,0.015-0.237-0.016-0.343-0.016c-0.105,0-0.176-0.232-0.282-0.263c-0.09-0.03-0.225,0.24-0.331,0.3
			c-0.09,0.047-0.27-0.127-0.361-0.093c-0.098,0.033-0.127,0.296-0.225,0.319c-0.102,0.019-0.226-0.203-0.323-0.196
			c-0.105,0-0.195,0.091-0.293,0.083c-0.101-0.015-0.165-0.132-0.267-0.153c-0.098-0.026-0.192-0.005-0.285-0.045
			c-0.094-0.038-0.263,0.085-0.354,0.033c-0.086-0.049-0.199-0.083-0.282-0.146c-0.076-0.063-0.207-0.102-0.278-0.177
			c-0.067-0.075,0.053-0.315-0.004-0.398c-0.056-0.083-0.146-0.139-0.188-0.229c-0.042-0.091-0.034-0.191-0.064-0.29
			c-0.03-0.094-0.207-0.158-0.222-0.26C0.6,38.63,0.84,38.528,0.855,38.423c0.007-0.102-0.146-0.218-0.112-0.314
			c0.037-0.105,0.15-0.132,0.21-0.2c0.067-0.07,0.188-0.09,0.255-0.153c0.067-0.072,0.049-0.23,0.112-0.301
			c0.076-0.067-0.007-0.293,0.061-0.361c0.071-0.066,0.398,0.146,0.474,0.08c0.071-0.064,0.105-0.162,0.18-0.223
			c0.075-0.063,0.072-0.222,0.15-0.277c0.079-0.061,0.083-0.229,0.166-0.286c0.083-0.049,0.255,0.041,0.338,0
			c0.083-0.049,0.105-0.222,0.195-0.263c0.09-0.038,0.166-0.136,0.263-0.166c0.09-0.03,0.271,0.227,0.369,0.203
			c0.09-0.021,0.135-0.278,0.232-0.293c0.105-0.016,0.196-0.053,0.293-0.079s0.244,0.112,0.342,0.079
			c0.098-0.037,0.177-0.127,0.267-0.169c0.094-0.041,0.173-0.113,0.263-0.165c0.09-0.05,0.165-0.121,0.249-0.177
			c0.083-0.06,0.18-0.095,0.263-0.158c0.075-0.063,0.09-0.195,0.166-0.263c0.071-0.072,0.21-0.072,0.285-0.147
			c0.064-0.078,0.226-0.086,0.286-0.168c0.06-0.083-0.045-0.278,0.012-0.368c0.056-0.087,0.297-0.061,0.349-0.15
			c0.049-0.092-0.166-0.316-0.12-0.41s0.056-0.188,0.098-0.285c0.038-0.095,0.162-0.151,0.195-0.248
			c0.038-0.099,0.196-0.155,0.226-0.252c0.03-0.098,0.128-0.174,0.15-0.271c0.03-0.097-0.09-0.232-0.064-0.33
			c0.027-0.099,0.139-0.174,0.162-0.267c0.03-0.099-0.146-0.249-0.12-0.347c0.022-0.097,0.218-0.153,0.241-0.252
			c0.022-0.097-0.151-0.24-0.128-0.337c0.019-0.099,0.068-0.188,0.083-0.286c0.015-0.098,0.222-0.165,0.237-0.264
			c0.019-0.097,0.026-0.195,0.034-0.3c0.015-0.099,0.045-0.199,0.052-0.297c0.008-0.102,0-0.207,0.004-0.305
			c0.003-0.098-0.098-0.195-0.102-0.301c0-0.102,0.264-0.21,0.256-0.312c-0.004-0.098-0.391-0.17-0.398-0.271
			c-0.015-0.097,0.147-0.214,0.132-0.318c-0.019-0.099-0.102-0.2-0.109-0.301c-0.008-0.102-0.09-0.214-0.083-0.316
			c0.004-0.105,0.03-0.213,0.041-0.318c0.012-0.102,0.297-0.17,0.312-0.271c0.019-0.101,0.012-0.203,0.031-0.304
			c0.018-0.105-0.106-0.225-0.083-0.331c0.022-0.101,0.226-0.157,0.249-0.263C7.837,26.244,7.631,26.098,7.65,26
			c0.018-0.105,0.285-0.154,0.308-0.256c0.015-0.105-0.158-0.24-0.139-0.338c0.015-0.105,0.162-0.184,0.184-0.289
			c0.019-0.101,0.091-0.199,0.109-0.297c0.027-0.105-0.207-0.263-0.184-0.368s0.113-0.195,0.136-0.297
			c0.022-0.105,0.278-0.169,0.293-0.274c0.015-0.105-0.169-0.241-0.158-0.346c0.011-0.105-0.127-0.21-0.127-0.315
			c0-0.101,0.327-0.199,0.33-0.3c0-0.106-0.094-0.211-0.09-0.313c0-0.101,0.12-0.203,0.12-0.304S8.333,22.1,8.333,21.994
			s-0.105-0.207-0.105-0.312c0-0.102,0.038-0.203,0.038-0.304c0-0.105-0.158-0.203-0.158-0.308c0-0.102,0.323-0.203,0.323-0.305
			c0-0.102-0.09-0.203-0.09-0.304c0-0.105-0.21-0.203-0.21-0.308c0-0.102-0.06-0.203-0.06-0.304c0-0.102,0.308-0.207,0.308-0.313
			c0-0.098-0.03-0.203-0.03-0.304c0-0.101-0.007-0.203-0.007-0.304c-0.008-0.105-0.222-0.203-0.225-0.301
			c-0.004-0.105,0.071-0.21,0.067-0.312c-0.004-0.102-0.12-0.199-0.12-0.301c-0.008-0.101,0.222-0.214,0.218-0.312
			c-0.003-0.105-0.184-0.203-0.188-0.304c-0.004-0.102-0.076-0.199-0.079-0.301c-0.004-0.102-0.027-0.207-0.034-0.304
			c0-0.105,0.222-0.218,0.214-0.319c-0.004-0.102-0.245-0.162-0.267-0.259c-0.019-0.098,0.241-0.278,0.199-0.368
			c-0.033-0.094-0.146-0.169-0.199-0.252c-0.052-0.086-0.277-0.034-0.346-0.109c-0.06-0.075,0-0.264-0.075-0.331
			c-0.075-0.067-0.109-0.199-0.195-0.256c-0.083-0.052-0.301,0.139-0.395,0.098c-0.09-0.045-0.041-0.413-0.139-0.447
			c-0.09-0.034-0.214-0.042-0.312-0.064c-0.097-0.022-0.255,0.267-0.356,0.252c-0.087-0.011-0.192-0.124-0.293-0.176
			c-0.083-0.038-0.112-0.196-0.203-0.256c-0.076-0.053-0.248,0.011-0.331-0.053c-0.075-0.057-0.109-0.173-0.185-0.244
			c-0.071-0.067-0.154-0.132-0.222-0.199c-0.075-0.071-0.229-0.067-0.293-0.139c-0.068-0.071-0.026-0.244-0.09-0.327
			c-0.06-0.072-0.188-0.105-0.248-0.181c-0.06-0.083-0.041-0.222-0.098-0.304c-0.056-0.079,0.045-0.267-0.007-0.35
			c-0.056-0.083-0.417,0.008-0.458-0.075c-0.053-0.098-0.098-0.203-0.132-0.286c-0.041-0.097,0.049-0.255,0.027-0.346
			c-0.027-0.105-0.102-0.233-0.083-0.316c0.015-0.105,0.232-0.15,0.27-0.24c0.038-0.098,0.139-0.117,0.196-0.196
			c0.056-0.083,0.056-0.165,0.135-0.229c0.079-0.06,0.15-0.056,0.249-0.094c0.09-0.038,0.15-0.143,0.248-0.154
			c0.098-0.012,0.181,0.048,0.286,0.063c0.098,0.012,0.226-0.225,0.324-0.21c0.097,0.007,0.184,0.124,0.282,0.139
			c0.102,0.015,0.176,0.138,0.274,0.157c0.098,0.02,0.249-0.207,0.346-0.191c0.098,0.026,0.128,0.316,0.226,0.346
			c0.098,0.022,0.263-0.196,0.361-0.166c0.09,0.026,0.15,0.181,0.244,0.21c0.094,0.038,0.146,0.166,0.236,0.203
			c0.091,0.038,0.293-0.157,0.384-0.112c0.09,0.045,0.09,0.267,0.176,0.316c0.087,0.049,0.109,0.195,0.196,0.248
			c0.083,0.053,0.124,0.15,0.207,0.21c0.079,0.057,0.267-0.034,0.346,0.03c0.075,0.06,0.128,0.15,0.199,0.222
			c0.072,0.067,0.154,0.124,0.222,0.199c0.068,0.072,0.076,0.196,0.139,0.271C9.1,12.584,9.1,12.705,9.16,12.787
			c0.052,0.072,0.263,0.064,0.361,0.139c0.09,0.072,0.255,0.015,0.346,0.064c0.135,0.068,0.21,0.255,0.278,0.222
			c0.09-0.049,0.09-0.293,0.181-0.327c0.09-0.042,0.21-0.042,0.301-0.068c0.101-0.03,0.248,0.166,0.345,0.15
			c0.098-0.019,0.196,0.071,0.293,0.063c0.098-0.007,0.181-0.312,0.278-0.312c0.102,0,0.195,0.203,0.293,0.21
			c0.098,0.008,0.226-0.226,0.323-0.21c0.098,0.011,0.151,0.319,0.248,0.338c0.098,0.015,0.195,0.022,0.293,0.042
			c0.098,0.019,0.203-0.053,0.3-0.034c0.102,0.022,0.181,0.143,0.271,0.158c0.102,0.015,0.256-0.3,0.346-0.285
			c0.097,0.015,0.172,0.191,0.27,0.203c0.098,0.015,0.188,0.067,0.286,0.075c0.117,0.008,0.222,0.136,0.338,0.136
			c0.113,0.008,0.229-0.293,0.342-0.293c0.117,0,0.237,0.278,0.354,0.263c0.098-0.012,0.172-0.271,0.271-0.282
			c0.098-0.011,0.229,0.233,0.327,0.222c0.097-0.016,0.203,0.007,0.301,0c0.097-0.016,0.165-0.35,0.263-0.361
			c0.098-0.015,0.226,0.24,0.323,0.229c0.097-0.011,0.172-0.251,0.274-0.263c0.102-0.011,0.207,0.057,0.304,0.045
			c0.098-0.011,0.211,0.064,0.309,0.049c0.098-0.012,0.181-0.181,0.282-0.192c0.098-0.011,0.214,0.125,0.312,0.109
			c0.098-0.012,0.195-0.083,0.293-0.091c0.098-0.015,0.218,0.173,0.32,0.162c0.101-0.011,0.192-0.124,0.289-0.139
			c0.098-0.007,0.188-0.105,0.285-0.112c0.106-0.015,0.218,0.127,0.316,0.112c0.098-0.007,0.177-0.222,0.274-0.232
			c0.098-0.012,0.196-0.034,0.297-0.045c0.098-0.008,0.21,0.09,0.308,0.075c0.098-0.007,0.199-0.03,0.301-0.042
			c0.098-0.011,0.199-0.022,0.297-0.033c0.102-0.015,0.181-0.166,0.282-0.181c0.098-0.007,0.203-0.022,0.301-0.037
			c0.098-0.011,0.214,0.135,0.316,0.121c0.097-0.008,0.203,0.007,0.301,0c0.097-0.015,0.217,0.131,0.319,0.12
			c0.098-0.012,0.154-0.373,0.252-0.383c0.098-0.015,0.229,0.225,0.33,0.214c0.098-0.011,0.196-0.086,0.293-0.098
			c0.098-0.011,0.218,0.139,0.316,0.124c0.097-0.011,0.195-0.052,0.292-0.067c0.106-0.007,0.196-0.105,0.301-0.124
			c0.097-0.019,0.165-0.184,0.271-0.207c0.098-0.023,0.233,0.112,0.331,0.09c0.097-0.022,0.15-0.226,0.252-0.251
			c0.097-0.022,0.195-0.064,0.292-0.087c0.098-0.022,0.188-0.135,0.287-0.15c0.102-0.015,0.229,0.083,0.327,0.075
			c0.108-0.012,0.222,0.083,0.338,0.083c0.105,0,0.225-0.109,0.33-0.098c0.113,0.007,0.225-0.075,0.338-0.067
			c0.108,0.015,0.185,0.391,0.293,0.398c0.108,0.008,0.233-0.016,0.338-0.016c0.105,0,0.207-0.071,0.304-0.071
			c0.102,0,0.207,0.086,0.305,0.083c0.105-0.003,0.203-0.131,0.301-0.139c0.106-0.003,0.211,0.105,0.308,0.098
			c0.103,0,0.204-0.06,0.302-0.06c0.105-0.007,0.195-0.139,0.293-0.143c0.105-0.004,0.214,0.135,0.313,0.127
			c0.1-0.007,0.184-0.255,0.285-0.263c0.102-0.007,0.206,0.075,0.312,0.068c0.098-0.008,0.207,0.06,0.309,0.052
			c0.102-0.007,0.177-0.248,0.278-0.256c0.102-0.011,0.21,0.113,0.314,0.102c0.099-0.011,0.211,0.086,0.313,0.075
			c0.102-0.011,0.211,0.057,0.312,0.042c0.098-0.007,0.166-0.263,0.267-0.271c0.102-0.015,0.222,0.139,0.323,0.124
			c0.099-0.015,0.207,0.034,0.309,0.019c0.098-0.016,0.17-0.248,0.267-0.263c0.098-0.015,0.203-0.019,0.301-0.034
			c0.098-0.019,0.172-0.154,0.278-0.169c0.097-0.015,0.203,0.03,0.305,0.011c0.097-0.015,0.21,0.057,0.312,0.034
			c0.098-0.016,0.21,0.015,0.308-0.008c0.099-0.019,0.21,0.023,0.31,0.008c0.097-0.023,0.18-0.124,0.281-0.143
			c0.097-0.022,0.215,0.052,0.312,0.03c0.098-0.018,0.194-0.06,0.294-0.083c0.102-0.019,0.191-0.075,0.288-0.102
			c0.098-0.019,0.169-0.18,0.269-0.199c0.097-0.019,0.261,0.249,0.359,0.226c0.098-0.027,0.186-0.105,0.282-0.132
			c0.097-0.022,0.185-0.102,0.281-0.124c0.095-0.022,0.15-0.267,0.24-0.285c0.098-0.015,0.238,0.244,0.338,0.229
			c0.099-0.012,0.171-0.188,0.268-0.199c0.102-0.007,0.191-0.121,0.289-0.128c0.099-0.008,0.219,0.297,0.316,0.286
			c0.097-0.007,0.175-0.233,0.274-0.241c0.097-0.007,0.198,0.045,0.296,0.038c0.099-0.007,0.203,0.022,0.302,0.015
			c0.098-0.015,0.188-0.121,0.284-0.136c0.098-0.015,0.229,0.169,0.328,0.154c0.097-0.019,0.181-0.15,0.277-0.169
			c0.102-0.015,0.173-0.191,0.271-0.21c0.102-0.015,0.214,0.038,0.312,0.022c0.099-0.015,0.23,0.177,0.332,0.158
			c0.098-0.015,0.188-0.113,0.284-0.125c0.1-0.015,0.181-0.207,0.279-0.217c0.091-0.012,0.188-0.094,0.277-0.098
			c0.097-0.004,0.196,0.063,0.286,0.063c0.098-0.008,0.188,0.166,0.284,0.162c0.095-0.003,0.201,0.102,0.291,0.09
			c0.09-0.011,0.203-0.026,0.293-0.048c0.103-0.022,0.164-0.233,0.271-0.256c0.108-0.022,0.181-0.18,0.284-0.203
			c0.111-0.022,0.291,0.271,0.395,0.248c0.106-0.026,0.113-0.394,0.215-0.424c0.106-0.034,0.313,0.245,0.409,0.207
			c0.106-0.038,0.173-0.181,0.263-0.226c0.1-0.048,0.106-0.248,0.196-0.308c0.084-0.06,0.313,0.076,0.396,0.007
			c0.078-0.067,0.168-0.135,0.245-0.207c0.08-0.071,0.071-0.237,0.145-0.312c0.077-0.075,0.289-0.008,0.365-0.083
			c0.074-0.075,0.023-0.278,0.097-0.35c0.076-0.075,0.282-0.026,0.354-0.102c0.072-0.079-0.06-0.354,0.012-0.428
			c0.076-0.075,0.132-0.173,0.208-0.249c0.069-0.075,0.318,0.03,0.397-0.038c0.076-0.071-0.03-0.353,0.053-0.413
			c0.074-0.067,0.367,0.154,0.45,0.098c0.083-0.06,0.127-0.15,0.217-0.203c0.093-0.053,0.16-0.132,0.25-0.177
			c0.097-0.042,0.146-0.177,0.245-0.21c0.097-0.034,0.191-0.091,0.288-0.117c0.097-0.022,0.203-0.042,0.308-0.053
			c0.102-0.015,0.212,0.18,0.312,0.18c0.102,0,0.215-0.233,0.313-0.218c0.104,0.011,0.188,0.135,0.284,0.165
			c0.098,0.027,0.215,0,0.313,0.045c0.095,0.037,0.124,0.199,0.207,0.248c0.091,0.053,0.127,0.15,0.211,0.214
			C51.367,6.839,51.557,6.775,51.631,6.857z M46.825,43.072c0.138-0.016,0.251-0.049,0.395-0.068
			c0.014-0.105,0.217-0.139,0.256-0.244c0.03-0.104,0.044-0.225,0.074-0.326c0.03-0.11-0.224-0.275-0.21-0.38
			c0.007-0.113,0.041-0.177,0.016-0.278c-0.029-0.098-0.009-0.21-0.022-0.312c-0.028-0.098,0.217-0.252,0.203-0.351
			c-0.023-0.097-0.406-0.135-0.418-0.231c-0.014-0.102,0.198-0.233,0.187-0.335c-0.009-0.102-0.205-0.184-0.212-0.282
			c-0.01-0.102,0.303-0.225,0.3-0.323c-0.004-0.098-0.226-0.188-0.226-0.285c-0.008-0.104-0.008-0.207-0.008-0.305
			c0-0.102-0.112-0.203-0.112-0.305c0.007-0.105,0.12-0.202,0.12-0.301c0.007-0.097,0.191-0.188,0.198-0.285
			c0.009-0.104-0.007-0.203,0.005-0.305c0.007-0.102-0.294-0.229-0.282-0.334s0.079-0.206,0.095-0.305
			c0.014-0.104,0.266-0.173,0.282-0.27c0.018-0.106,0.115-0.186,0.138-0.282c0.023-0.106-0.022-0.211,0.008-0.309
			c0.027-0.104-0.174-0.278-0.139-0.376c0.034-0.097,0.139-0.173,0.187-0.264c0.051-0.097,0.189-0.135,0.245-0.217
			c0.06-0.087,0.066-0.203,0.136-0.281c0.067-0.08,0.074-0.222,0.152-0.294c0.077-0.067,0.148-0.17,0.231-0.229
			c0.081-0.052,0.18-0.12,0.271-0.173c0.09-0.045,0.217-0.041,0.316-0.082c0.09-0.042,0.187-0.091,0.288-0.129
			c0.095-0.033,0.181-0.116,0.277-0.149c0.095-0.03,0.238,0.063,0.34,0.033c0.092-0.025,0.212,0.023,0.318-0.004
			c0.097-0.021,0.227,0.068,0.318,0.039c0.095-0.027,0.083-0.398,0.178-0.429c0.093-0.026,0.215,0.045,0.305,0.015
			c0.093-0.03,0.199-0.03,0.289-0.06c0.09-0.03,0.247,0.111,0.337,0.082c0.091-0.037,0.076-0.342,0.167-0.38
			c0.09-0.034,0.173-0.086,0.256-0.124c0.09-0.041,0.293,0.165,0.379,0.128c0.09-0.038,0.095-0.256,0.18-0.301
			c0.086-0.041,0.095-0.124,0.155-0.207c0.06-0.07,0.27-0.049,0.313-0.139c0.047-0.086,0.171-0.139,0.22-0.225
			c0.044-0.091,0.104-0.32,0.157-0.403c-0.097-0.011-0.355,0.064-0.462,0.038c-0.102-0.023-0.203-0.057-0.305-0.079
			c-0.104-0.026-0.21-0.057-0.308-0.06c-0.113-0.008-0.159,0.12-0.249,0.165c-0.09,0.042-0.293-0.18-0.384-0.144
			c-0.097,0.038-0.156,0.136-0.247,0.17c-0.097,0.03-0.21-0.02-0.3,0.007c-0.102,0.027-0.137,0.29-0.233,0.313
			c-0.097,0.015-0.227-0.158-0.328-0.139c-0.097,0.015-0.187,0.049-0.284,0.057c-0.099,0.007-0.189,0.217-0.286,0.222
			c-0.097,0.003-0.205,0.063-0.305,0.063c-0.097-0.008-0.203-0.124-0.3-0.132c-0.098-0.008-0.204,0-0.301-0.012
			s-0.18-0.157-0.279-0.172c-0.097-0.015-0.169-0.151-0.266-0.17c-0.106-0.021-0.277,0.233-0.376,0.207
			c-0.109-0.033-0.109-0.339-0.206-0.376c-0.1-0.045-0.256,0.061-0.342,0.008c-0.095-0.053-0.298,0.026-0.372-0.037
			c-0.083-0.068-0.159-0.186-0.23-0.264c-0.063-0.075-0.019-0.263-0.071-0.354c-0.049-0.09,0.06-0.24,0.022-0.346
			c-0.037-0.091-0.229-0.136-0.251-0.237c-0.025-0.097,0.022-0.214,0.007-0.318c-0.012-0.099-0.203-0.188-0.213-0.302
			c0-0.101,0.111-0.21,0.111-0.322c0.004-0.098-0.067-0.196-0.063-0.293c0.002-0.102-0.039-0.203-0.035-0.302
			c0-0.097,0.035-0.198,0.035-0.296c0-0.102,0.108-0.199,0.108-0.297s0.071-0.203,0.071-0.301s-0.229-0.195-0.229-0.297
			s0.21-0.199,0.21-0.305c0-0.098-0.113-0.195-0.113-0.293c0-0.097-0.029-0.203-0.029-0.3c0-0.098,0.247-0.2,0.247-0.297
			c0-0.098-0.025-0.199-0.025-0.297c0-0.105-0.155-0.21-0.155-0.312s0.174-0.203,0.178-0.304c0-0.105-0.327-0.21-0.327-0.308
			c0-0.105,0.256-0.203,0.256-0.309c0-0.101-0.256-0.207-0.256-0.308c0-0.105,0.173-0.203,0.173-0.308
			c0-0.102-0.15-0.207-0.15-0.309c0-0.102,0.108-0.203,0.108-0.308c0-0.098,0.222-0.195,0.222-0.3c0-0.102-0.337-0.21-0.337-0.312
			c0.007-0.101,0.042-0.207,0.042-0.305c0-0.105,0.129-0.207,0.129-0.308c0-0.101-0.122-0.207-0.122-0.308
			c0-0.106-0.03-0.203-0.028-0.313c0.005-0.105,0.15-0.203,0.15-0.304c0-0.101,0.147-0.203,0.152-0.308
			c0-0.098-0.152-0.207-0.152-0.309c0-0.094,0.231-0.195,0.227-0.289c0-0.094-0.21-0.188-0.21-0.286s0.102-0.192,0.102-0.29
			c0.004-0.097-0.186-0.203-0.174-0.301c0.007-0.09,0.042-0.199,0.065-0.293c0.021-0.101,0.073-0.199,0.102-0.3
			c0.021-0.105,0.071-0.203,0.092-0.301c0.023-0.105,0.061-0.207,0.083-0.304c0.028-0.102,0.047-0.203,0.076-0.305
			c0.025-0.105-0.039-0.225-0.009-0.33c0.023-0.102,0.159-0.177,0.189-0.274c0.025-0.102-0.09-0.245-0.069-0.343
			c0.022-0.097,0.152-0.172,0.183-0.277c0.025-0.102,0.149-0.173,0.18-0.278c0.025-0.102,0.074-0.196,0.102-0.297
			c0.025-0.102-0.009-0.222,0.019-0.32c0.03-0.105,0.181-0.173,0.203-0.278c0.03-0.105-0.15-0.278-0.173-0.406
			c-0.019-0.102-0.061-0.196-0.083-0.297c-0.017-0.102-0.076-0.199-0.091-0.297c-0.022-0.105-0.076-0.195-0.09-0.3
			c-0.022-0.102,0.037-0.214,0.023-0.316c-0.023-0.105-0.147-0.184-0.162-0.286c-0.019-0.097,0.074-0.222,0.056-0.323
			c-0.023-0.101-0.146-0.18-0.166-0.282c-0.021-0.101,0.263-0.251,0.249-0.353c-0.007-0.101-0.24-0.18-0.249-0.282
			c-0.007-0.105,0.041-0.207,0.041-0.308c0-0.106-0.055-0.211-0.041-0.316c0.012-0.102-0.081-0.233-0.063-0.331
			s0.162-0.18,0.191-0.278c0.03-0.097-0.027-0.236,0.014-0.334c0.04-0.094,0.196-0.139,0.245-0.237
			c0.049-0.09,0.264-0.075,0.318-0.165c0.054-0.083-0.131-0.331-0.062-0.414c0.062-0.083,0.182-0.121,0.244-0.203
			c0.056-0.079,0.007-0.244,0.063-0.327c0.061-0.083,0.298-0.034,0.358-0.117c0.06-0.083,0.036-0.226,0.092-0.308
			c0.061-0.083,0.201-0.109,0.261-0.195c0.061-0.083,0.037-0.222,0.098-0.304c0.06-0.083,0.053-0.214,0.113-0.297
			c0.06-0.079,0.154-0.139,0.21-0.222c0.06-0.079,0.347-0.003,0.406-0.086c0.061-0.083-0.15-0.354-0.09-0.436
			c0.06-0.083,0.168-0.132,0.233-0.214c0.06-0.083,0.073-0.199,0.131-0.282c0.061-0.083,0.229-0.086,0.289-0.168
			c0.063-0.079,0.097-0.181,0.157-0.26c0.071-0.101,0.191-0.158,0.22-0.237c0.043-0.116-0.16-0.184-0.189-0.267
			c-0.03-0.094,0.029-0.18-0.067-0.233c-0.083-0.038-0.18,0.03-0.293,0.022c-0.098-0.007-0.188-0.007-0.298,0
			c-0.104,0.015-0.213-0.064-0.319-0.037c-0.104,0.03-0.143,0.195-0.24,0.24c-0.102,0.042-0.276-0.083-0.36-0.022
			c-0.087,0.06-0.261,0.015-0.346,0.083c-0.083,0.064-0.037,0.293-0.12,0.361c-0.083,0.072-0.233,0.064-0.308,0.136
			c-0.083,0.068-0.124,0.184-0.203,0.255c-0.076,0.075-0.281,0.022-0.362,0.098c-0.074,0.076,0.016,0.315-0.067,0.391
			c-0.071,0.075-0.048,0.256-0.127,0.331c-0.066,0.067-0.346-0.075-0.42-0.008c-0.076,0.075-0.196,0.083-0.272,0.15
			c-0.071,0.068-0.074,0.21-0.152,0.274c-0.079,0.068-0.1,0.199-0.178,0.255c-0.079,0.064-0.199,0.067-0.282,0.124
			c-0.083,0.06-0.185,0.083-0.266,0.135c-0.088,0.053-0.09,0.241-0.178,0.286c-0.085,0.053-0.245-0.03-0.335,0.012
			c-0.09,0.041-0.164,0.105-0.254,0.139c-0.09,0.042-0.227-0.056-0.323-0.022c-0.095,0.03-0.088,0.425-0.185,0.451
			c-0.095,0.022-0.245-0.195-0.349-0.173c-0.1,0.015-0.203-0.064-0.303-0.052c-0.097,0.011-0.18,0.21-0.281,0.214
			c-0.1,0.003-0.199-0.027-0.296-0.023c-0.098,0.004-0.208-0.056-0.305-0.049c-0.098,0.007-0.203-0.067-0.301-0.06
			c-0.097,0.007-0.178,0.233-0.279,0.248c-0.1,0.008-0.198,0.03-0.296,0.038c-0.097,0.011-0.21-0.113-0.307-0.098
			c-0.1,0.012-0.183,0.158-0.279,0.173c-0.098,0.011-0.227-0.218-0.323-0.211c-0.098,0.015-0.188,0.076-0.287,0.083
			c-0.097,0.015-0.21-0.083-0.307-0.068c-0.097,0.007-0.196,0.022-0.293,0.03c-0.098,0.011-0.176,0.214-0.275,0.226
			c-0.102,0.007-0.198,0-0.295,0.007c-0.1,0.008-0.196,0.015-0.301,0.022c-0.1,0.008-0.191,0.143-0.291,0.15
			c-0.097,0-0.203-0.229-0.305-0.229c-0.097,0.004-0.201,0.012-0.3,0.019c-0.098,0.008-0.181,0.177-0.277,0.188
			s-0.188,0.064-0.286,0.079c-0.098,0.019-0.194,0.004-0.294,0.026c-0.097,0.022-0.193,0.03-0.288,0.056
			c-0.095,0.022-0.229-0.079-0.319-0.056c-0.099,0.03-0.12,0.3-0.215,0.33c-0.095,0.027-0.198,0.023-0.293,0.053
			s-0.222-0.049-0.318-0.019c-0.09,0.034-0.233-0.079-0.33-0.049c-0.093,0.03-0.204,0.007-0.294,0.034
			c-0.099,0.027-0.173,0.098-0.272,0.125c-0.097,0.03-0.104,0.375-0.193,0.402c-0.1,0.022-0.25-0.162-0.347-0.139
			c-0.097,0.022-0.203-0.034-0.301-0.015c-0.097,0.022-0.196,0-0.293,0.015c-0.097,0.007-0.176,0.162-0.274,0.169
			c-0.098,0.007-0.194,0.004-0.293,0.007c-0.102,0.004-0.191-0.108-0.29-0.112c-0.097-0.003-0.231,0.139-0.334,0.199
			c-0.094,0.06-0.09,0.334-0.188,0.376c-0.083,0.03-0.222-0.068-0.312-0.038c-0.091,0.026-0.181-0.075-0.271-0.083
			c-0.099-0.004-0.188-0.109-0.286-0.117c-0.102-0.012-0.207,0.064-0.309,0.056c-0.097-0.007-0.217,0.151-0.315,0.139
			c-0.098-0.011-0.21,0.042-0.309,0.03c-0.097-0.011-0.18-0.203-0.281-0.21c-0.102-0.007-0.207,0.064-0.305,0.057
			c-0.105-0.007-0.202,0.049-0.301,0.045c-0.104-0.004-0.198-0.008-0.3-0.004c-0.102,0.004-0.188,0.105-0.286,0.113
			c-0.101,0.012-0.218-0.188-0.322-0.18c-0.099,0.011-0.188,0.154-0.293,0.162c-0.103,0.007-0.204,0.022-0.306,0.03
			c-0.102,0.007-0.214-0.139-0.319-0.132c-0.101,0.007-0.192,0.154-0.293,0.162c-0.101,0.012-0.226-0.211-0.323-0.203
			c-0.105,0.007-0.203,0.026-0.308,0.034c-0.102,0.007-0.188,0.188-0.29,0.195c-0.102,0.008-0.222-0.181-0.318-0.173
			c-0.106,0.007-0.207,0.034-0.309,0.042c-0.102,0.007-0.207-0.008-0.308,0c-0.105,0.007-0.188,0.203-0.293,0.214
			c-0.098,0.008-0.195,0.12-0.293,0.128c-0.105,0.011-0.218-0.128-0.319-0.117c-0.102,0.007-0.2,0.053-0.305,0.067
			c-0.098,0.008-0.215-0.12-0.315-0.112c-0.102,0.007-0.188,0.203-0.29,0.21c-0.102,0.008-0.214-0.06-0.312-0.049
			c-0.105,0.011-0.222-0.147-0.323-0.132c-0.105,0.012-0.177,0.297-0.278,0.304c-0.105,0.008-0.195,0.091-0.3,0.102
			c-0.098,0.008-0.218-0.139-0.32-0.127c-0.102,0.007-0.192,0.158-0.293,0.169c-0.102,0.007-0.232-0.267-0.334-0.256
			c-0.101,0.007-0.177,0.296-0.278,0.312c-0.102,0.008-0.226-0.18-0.323-0.165c-0.105,0.007-0.196,0.09-0.301,0.105
			c-0.102,0.008-0.21-0.063-0.312-0.052c-0.102,0.007-0.191,0.188-0.289,0.203c-0.105,0.007-0.203,0.007-0.308,0.022
			c-0.102,0.007-0.195,0.09-0.297,0.098c-0.102,0.007-0.207-0.038-0.312-0.03c-0.098,0.008-0.222-0.199-0.323-0.191
			c-0.102,0.011-0.184,0.244-0.289,0.256c-0.102,0.011-0.214-0.087-0.32-0.076c-0.105,0.011-0.207,0.034-0.312,0.049
			c-0.102,0.011-0.214-0.03-0.312-0.022c-0.105,0.015-0.203,0.083-0.304,0.09c-0.102,0.015-0.207,0.023-0.313,0.03
			c-0.098,0.012-0.21-0.045-0.315-0.038c-0.102,0.007-0.211-0.033-0.313-0.022c-0.101,0.015-0.192,0.256-0.289,0.263
			c-0.105,0.008-0.218-0.199-0.319-0.191c-0.102,0.007-0.199,0.018-0.301,0.022c-0.102,0.011-0.207-0.049-0.304-0.045
			c-0.105,0.007-0.188,0.176-0.293,0.184c-0.101,0.007-0.207-0.121-0.308-0.113c-0.102,0.007-0.185,0.271-0.286,0.271
			c-0.105,0.008-0.226-0.346-0.323-0.338c-0.098,0.004-0.191,0.158-0.293,0.158c-0.101,0.007-0.199,0.026-0.3,0.03
			c-0.106,0.003-0.196,0.192-0.293,0.199c-0.105,0.003-0.21-0.124-0.312-0.113c-0.102,0.004-0.204-0.033-0.305-0.033
			c-0.105,0.007-0.203,0.143-0.3,0.139c-0.097-0.004-0.188-0.214-0.293-0.222c-0.098-0.008-0.207,0.067-0.304,0.056
			c-0.098-0.011-0.214,0.124-0.312,0.109c-0.098-0.008-0.181-0.331-0.278-0.338c-0.105,0-0.214,0.297-0.312,0.297
			c-0.098,0-0.199-0.109-0.297-0.098c-0.098,0.007-0.218-0.087-0.319-0.064c-0.098,0.023-0.222-0.008-0.319,0.03
			c-0.098,0.03-0.143,0.195-0.237,0.244c-0.094,0.049-0.169,0.139-0.251,0.154c-0.098,0.019-0.199-0.038-0.286-0.06
			c-0.09-0.019-0.128-0.12-0.21-0.173c-0.076-0.045-0.076-0.15-0.143-0.218c-0.06-0.067-0.354,0.053-0.406-0.03
			c-0.053-0.075-0.086-0.18-0.135-0.263c-0.049-0.09,0.067-0.286,0.007-0.368c-0.06-0.083-0.09-0.214-0.157-0.293
			c-0.068-0.075-0.376,0.09-0.458,0.015c-0.072-0.071-0.007-0.301-0.091-0.369c-0.075-0.06-0.259,0.015-0.346-0.045
			c-0.086-0.06-0.038-0.316-0.127-0.372c-0.09-0.057-0.195-0.087-0.285-0.139c-0.091-0.045-0.151-0.188-0.249-0.229
			c-0.09-0.042-0.256,0.064-0.349,0.022c-0.102-0.042-0.229,0.027-0.328-0.004c-0.097-0.03-0.191-0.075-0.289-0.098
			c-0.102-0.022-0.207,0.004-0.312-0.015c-0.098-0.023-0.181-0.203-0.278-0.21c-0.105-0.007-0.218,0.075-0.319,0.075
			c-0.105,0-0.214-0.09-0.312-0.083c-0.105,0.007-0.154,0.105-0.251,0.124c0.056,0.094-0.068,0.229-0.019,0.327
			c0.049,0.098,0.214,0.132,0.289,0.195C4.884,11.942,5,11.96,5.071,12.024c0.076,0.064,0.098,0.192,0.173,0.256
			c0.075,0.063,0.18,0.083,0.255,0.146c0.076,0.06,0.226,0.034,0.301,0.098c0.075,0.06,0.143,0.127,0.218,0.192
			c0.075,0.063,0.135,0.139,0.21,0.203c0.075,0.064,0.112,0.169,0.188,0.229c0.075,0.064,0.214,0.053,0.285,0.121
			c0.075,0.06,0.109,0.176,0.181,0.24c0.075,0.06-0.034,0.334,0.038,0.402c0.071,0.063,0.316-0.064,0.387,0
			c0.072,0.063,0.102,0.184,0.169,0.252c0.071,0.067,0.203,0.067,0.271,0.135c0.071,0.068,0.203,0.083,0.274,0.158
			c0.072,0.068-0.057,0.331,0.011,0.414c0.072,0.071,0.309,0.007,0.369,0.083c0.064,0.083-0.09,0.315-0.034,0.398
			c0.056,0.083,0.094,0.158,0.132,0.248c0.041,0.09,0.375,0.105,0.39,0.203c0.016,0.105-0.112,0.229-0.105,0.331
			c0.015,0.105,0.158,0.188,0.173,0.293c0.015,0.098-0.027,0.214-0.012,0.316c0.019,0.102,0.067,0.199,0.079,0.304
			c0.011,0.102-0.297,0.249-0.282,0.35c0.011,0.102,0.292,0.176,0.304,0.278c0.015,0.102-0.026,0.211-0.015,0.316
			c0.015,0.105-0.143,0.222-0.136,0.327c0.012,0.102,0.053,0.207,0.061,0.305c0.007,0.105,0.041,0.207,0.048,0.312
			c0.004,0.101-0.041,0.207-0.041,0.312c0.007,0.105,0.263,0.203,0.27,0.308c0,0.105,0.015,0.21,0.015,0.312
			s-0.048,0.214-0.052,0.312c-0.004,0.105-0.03,0.211-0.038,0.316c0,0.102-0.049,0.203-0.057,0.3
			C9.1,20.89,8.935,20.979,8.927,21.084c-0.004,0.102,0.011,0.204,0.008,0.301c-0.004,0.102,0.225,0.218,0.225,0.316
			c-0.008,0.098-0.053,0.195-0.06,0.293c-0.004,0.105-0.233,0.191-0.241,0.293c-0.003,0.102,0.188,0.211,0.181,0.312
			c-0.004,0.102-0.249,0.191-0.249,0.289c-0.007,0.098,0.233,0.214,0.229,0.316c-0.003,0.102-0.244,0.188-0.252,0.286
			c-0.007,0.102,0.079,0.21,0.072,0.309c-0.008,0.097-0.117,0.188-0.124,0.292c-0.008,0.102,0.034,0.203,0.026,0.305
			c-0.007,0.101,0.173,0.214,0.165,0.312c-0.012,0.105,0.019,0.203,0.012,0.308c-0.008,0.101,0.045,0.203,0.038,0.304
			c-0.012,0.102-0.271,0.184-0.278,0.282c-0.008,0.105,0.03,0.203,0.022,0.309c-0.008,0.101-0.064,0.195-0.072,0.296
			c-0.011,0.102,0.139,0.21,0.132,0.312c-0.008,0.105-0.255,0.181-0.263,0.286c-0.012,0.098,0.153,0.214,0.146,0.316
			c-0.007,0.101-0.105,0.192-0.116,0.293c-0.007,0.102-0.09,0.191-0.098,0.292c-0.007,0.106,0.113,0.211,0.098,0.316
			c-0.007,0.102,0.203,0.222,0.188,0.323c-0.008,0.098-0.391,0.157-0.406,0.259c-0.011,0.102,0.03,0.207,0.022,0.305
			c-0.015,0.105,0.105,0.214,0.09,0.315c-0.007,0.102,0.117,0.218,0.105,0.316c-0.015,0.097-0.188,0.18-0.203,0.277
			c-0.007,0.106,0.12,0.218,0.105,0.319c-0.007,0.099,0.042,0.207,0.03,0.313c-0.011,0.098-0.323,0.158-0.334,0.263
			c-0.011,0.099,0.214,0.229,0.199,0.327s-0.015,0.203-0.03,0.301c-0.015,0.101-0.203,0.173-0.218,0.271
			c-0.015,0.102,0.022,0.207,0,0.304c-0.015,0.098-0.007,0.207-0.031,0.305c-0.022,0.099-0.022,0.203-0.048,0.297
			c-0.026,0.099-0.083,0.188-0.109,0.282c-0.03,0.102,0.027,0.226-0.007,0.319c-0.03,0.094-0.162,0.158-0.195,0.248
			c-0.037,0.098-0.181,0.143-0.222,0.233c-0.042,0.094,0.098,0.267,0.056,0.357c-0.045,0.09-0.285,0.078-0.334,0.165
			c-0.049,0.086,0.154,0.319,0.102,0.405c-0.053,0.086-0.087,0.191-0.144,0.274c-0.06,0.083-0.203,0.113-0.263,0.188
			c-0.064,0.078-0.233,0.066-0.301,0.146c-0.067,0.075-0.18,0.094-0.255,0.165c-0.068,0.071-0.034,0.252-0.105,0.315
			c-0.075,0.068-0.207,0.063-0.289,0.125c-0.079,0.063-0.042,0.292-0.12,0.352c-0.083,0.054-0.263-0.037-0.35,0.016
			c-0.086,0.049-0.079,0.278-0.169,0.323c-0.086,0.045-0.195,0.071-0.289,0.113c-0.09,0.038-0.259-0.099-0.357-0.061
			c-0.09,0.033-0.184,0.075-0.278,0.105c-0.094,0.029-0.195,0.038-0.292,0.067c-0.094,0.025-0.192,0.061-0.29,0.082
			c-0.09,0.027-0.158,0.15-0.251,0.188c-0.094,0.03-0.29-0.18-0.379-0.139c-0.09,0.041-0.015,0.417-0.105,0.466
			c-0.091,0.048-0.256-0.057-0.343-0.007c-0.086,0.048-0.124,0.168-0.207,0.222c-0.083,0.055-0.117,0.18-0.195,0.236
			C2.223,37.77,2.17,37.8,2.103,37.887c-0.06,0.081-0.346,0.015-0.398,0.104c-0.052,0.09-0.083,0.198-0.135,0.29
			c-0.053,0.097,0.03,0.229-0.03,0.315c0.087,0.053,0.06,0.24,0.143,0.293c0.091,0.057,0.301-0.09,0.383-0.033
			c0.09,0.055,0.049,0.318,0.136,0.371c0.086,0.053,0.274-0.064,0.364-0.015c0.09,0.052,0.125,0.217,0.214,0.264
			c0.075,0.033,0.256,0.066,0.354,0.04c0.09-0.021,0.143-0.312,0.232-0.312c0.102-0.007,0.211,0.053,0.308,0.045
			c0.105-0.007,0.222,0.218,0.324,0.21c0.102-0.007,0.188-0.214,0.289-0.222c0.102-0.007,0.192-0.16,0.297-0.169
			c0.098-0.007,0.226,0.309,0.327,0.301c0.102-0.007,0.196-0.108,0.297-0.112c0.105-0.008,0.21,0.105,0.308,0.102
			c0.105-0.005,0.196-0.113,0.301-0.116c0.102-0.005,0.199-0.113,0.301-0.113c0.105,0,0.203,0.033,0.309,0.033
			c0.097,0,0.207-0.153,0.308-0.153c0.102,0.007,0.191,0.327,0.293,0.33c0.105,0.005,0.204-0.075,0.309-0.07
			c0.098,0.011,0.218-0.191,0.319-0.185c0.102,0.008,0.214-0.033,0.312-0.019c0.106,0.012,0.158,0.334,0.256,0.354
			c0.105,0.015,0.203,0.007,0.301,0.025c0.098,0.022,0.195,0.038,0.297,0.064c0.098,0.021,0.251-0.158,0.349-0.132
			c0.102,0.03,0.181,0.132,0.271,0.165c0.097,0.03,0.236-0.033,0.331,0c0.098,0.038,0.105,0.285,0.195,0.33
			c0.09,0.038,0.256-0.078,0.346-0.029c0.086,0.049,0.21,0.046,0.301,0.098c0.083,0.049,0.18,0.099,0.263,0.158
			c0.083,0.057,0.022,0.301,0.105,0.36c0.076,0.064,0.309-0.033,0.376,0.03c0.076,0.075-0.079,0.354-0.022,0.428
			c0.067,0.08,0.166,0.113,0.21,0.195c0.045,0.092,0.285,0.14,0.297,0.233c0.012,0.102-0.154,0.227-0.146,0.323
			c0,0.105-0.083,0.203-0.09,0.305c0,0.102,0.271,0.214,0.259,0.319c-0.007,0.098-0.372,0.161-0.387,0.263
			c-0.012,0.105,0,0.195-0.015,0.302c-0.015,0.097,0.274,0.255,0.248,0.36c-0.015,0.098-0.113,0.18-0.139,0.278
			c-0.023,0.102-0.166,0.173-0.192,0.27c-0.03,0.099,0.098,0.237,0.068,0.339c-0.031,0.098-0.121,0.173-0.154,0.27
			c-0.034,0.099-0.049,0.196-0.083,0.294c-0.034,0.098,0.041,0.24,0.003,0.338c-0.038,0.094-0.214,0.14-0.256,0.237
			c-0.038,0.093-0.011,0.218-0.053,0.312c-0.045,0.098-0.172,0.15-0.217,0.245c-0.042,0.093-0.249,0.116-0.29,0.213
			c-0.042,0.099,0.255,0.323,0.222,0.418c-0.038,0.098-0.076,0.181-0.105,0.282c-0.03,0.097-0.18,0.157-0.207,0.259
			c-0.022,0.098,0.026,0.203,0.019,0.308c-0.015,0.102-0.218,0.188-0.222,0.297c-0.004,0.099,0.003,0.354,0.011,0.459
			c0.091-0.049,0.323-0.154,0.406-0.207c0.083-0.057,0.196-0.087,0.278-0.146c0.075-0.061,0.098-0.202,0.173-0.271
			c0.068-0.068,0.188-0.104,0.252-0.18c0.068-0.08-0.056-0.32,0.004-0.398c0.067-0.075,0.21-0.09,0.278-0.174
			c0.064-0.083,0.21-0.098,0.278-0.173c0.061-0.082-0.067-0.318-0.007-0.401c0.064-0.082,0.346,0.011,0.41-0.072
			c0.063-0.082-0.071-0.318-0.011-0.398c0.067-0.082,0.226-0.086,0.293-0.165c0.068-0.078,0.207-0.097,0.274-0.177
			c0.064-0.078-0.075-0.326-0.007-0.401c0.064-0.078,0.286-0.038,0.349-0.113c0.068-0.082,0.218-0.082,0.278-0.153
			c0.067-0.075,0.173-0.11,0.241-0.181c0.067-0.075,0.007-0.271,0.075-0.342c0.071-0.067,0.165-0.116,0.24-0.185
			c0.076-0.071,0.136-0.146,0.211-0.21c0.075-0.068,0.195-0.075,0.274-0.144c0.079-0.063,0.199-0.071,0.274-0.131
			c0.079-0.063,0.06-0.249,0.144-0.309c0.075-0.056,0.083-0.229,0.165-0.285c0.083-0.061,0.263,0.03,0.346-0.026
			s0.045-0.297,0.132-0.354c0.078-0.057,0.191-0.079,0.277-0.132c0.087-0.049,0.286,0.09,0.373,0.038
			c0.086-0.053,0.225-0.008,0.308-0.053c0.086-0.049,0.031-0.369,0.121-0.414c0.083-0.045,0.271,0.087,0.354,0.038
			c0.09-0.045,0.075-0.305,0.161-0.345c0.09-0.046,0.312,0.18,0.402,0.139c0.09-0.042,0.172-0.09,0.263-0.132
			c0.09-0.045,0.146-0.162,0.237-0.203c0.09-0.042,0.222,0.015,0.312-0.026c0.09-0.041,0.053-0.391,0.147-0.424
			c0.093-0.038,0.251,0.071,0.342,0.037c0.09-0.037,0.199-0.03,0.289-0.072c0.09-0.04,0.229,0.026,0.319-0.015
			s0.045-0.36,0.136-0.402c0.09-0.045,0.3,0.174,0.391,0.132c0.09-0.041,0.067-0.312,0.158-0.354c0.09-0.041,0.282,0.147,0.372,0.11
			c0.091-0.038,0.192-0.045,0.278-0.083c0.09-0.038,0.068-0.384,0.158-0.414c0.094-0.038,0.271,0.184,0.365,0.158
			c0.094-0.029,0.128-0.278,0.225-0.305c0.091-0.021,0.211,0.026,0.309,0.012c0.094-0.015,0.207,0.057,0.304,0.045
			c0.102-0.008,0.188-0.173,0.29-0.177c0.097,0,0.195,0.146,0.301,0.153c0.097,0.009,0.202-0.045,0.3-0.029
			c0.09,0.015,0.204,0.203,0.297,0.188c0.09-0.015,0.17-0.138,0.26-0.165c0.09-0.026,0.165-0.131,0.255-0.146
			c0.102-0.015,0.225,0.117,0.323,0.099c0.105-0.016,0.165-0.238,0.27-0.257c0.098-0.019,0.195-0.048,0.293-0.063
			c0.105-0.019,0.222,0.075,0.323,0.057c0.105-0.02,0.203-0.041,0.3-0.064c0.098-0.019,0.196-0.037,0.293-0.056
			c0.105-0.02,0.173-0.177,0.278-0.199c0.102-0.016,0.199-0.042,0.297-0.057c0.102-0.019,0.23,0.116,0.327,0.098
			c0.105-0.019,0.21-0.003,0.309-0.023c0.102-0.018,0.225,0.117,0.33,0.099c0.098-0.019,0.136-0.387,0.233-0.401
			c0.105-0.021,0.245,0.213,0.346,0.194c0.102-0.022,0.187-0.098,0.289-0.12c0.102-0.019,0.23,0.127,0.327,0.112
			c0.105-0.015,0.2-0.067,0.297-0.082c0.102-0.015,0.188-0.113,0.286-0.132c0.098-0.015,0.177-0.18,0.274-0.195
			c0.098-0.015,0.226,0.132,0.331,0.112c0.102-0.015,0.173-0.21,0.271-0.225c0.102-0.019,0.199-0.049,0.297-0.067
			c0.102-0.017,0.188-0.125,0.286-0.14c0.101-0.015,0.222,0.09,0.318,0.075c0.105-0.019,0.219,0.064,0.32,0.053
			c0.102-0.015,0.184-0.143,0.285-0.158c0.102-0.015,0.191-0.123,0.289-0.135c0.105-0.015,0.252,0.338,0.354,0.323
			c0.098-0.012,0.195-0.053,0.294-0.068c0.104-0.007,0.194-0.09,0.296-0.104c0.101-0.012,0.211,0.063,0.313,0.053
			c0.104-0.012,0.187-0.154,0.293-0.162c0.097-0.011,0.21,0.091,0.312,0.079c0.102-0.007,0.195-0.068,0.297-0.079
			c0.103-0.008,0.192-0.146,0.294-0.154c0.104-0.007,0.217,0.128,0.318,0.12c0.102-0.007,0.181-0.262,0.282-0.271
			c0.102-0.007,0.21,0.075,0.316,0.068c0.097-0.008,0.21,0.056,0.312,0.045c0.102-0.008,0.181-0.248,0.282-0.26
			c0.102-0.007,0.212,0.117,0.313,0.102c0.106-0.012,0.22,0.087,0.321,0.079c0.102-0.011,0.21,0.06,0.312,0.053
			c0.104-0.012,0.181-0.26,0.284-0.271c0.1-0.012,0.22,0.146,0.321,0.136c0.102-0.012,0.21,0.045,0.312,0.033
			c0.104-0.015,0.18-0.24,0.286-0.252c0.098-0.012,0.201-0.012,0.303-0.026c0.102-0.007,0.191-0.139,0.293-0.15
			s0.215,0.038,0.313,0.026c0.105-0.011,0.215,0.067,0.316,0.057c0.102-0.015,0.205,0.022,0.307,0.011
			c0.106-0.011,0.213,0.042,0.316,0.026c0.102-0.012,0.196-0.104,0.293-0.116c0.098-0.011,0.218,0.071,0.316,0.057
			c0.104-0.007,0.203-0.042,0.305-0.052c0.1-0.012,0.199-0.062,0.301-0.076c0.102-0.011,0.187-0.166,0.289-0.176
			c0.105-0.012,0.239,0.27,0.342,0.259c0.102-0.012,0.196-0.087,0.298-0.102c0.104-0.016,0.193-0.082,0.3-0.098
			c0.097-0.012,0.173-0.251,0.271-0.267c0.105-0.016,0.24,0.247,0.346,0.232c0.104-0.007,0.188-0.188,0.284-0.188
			c0.106-0.008,0.22-0.106,0.316-0.098c0.106,0.007,0.157,0.33,0.247,0.35c0.106,0.025,0.264-0.154,0.354-0.113
			c0.09,0.042,0.154,0.153,0.233,0.214c0.078,0.062,0.12,0.161,0.189,0.241c0.063,0.075,0.193,0.102,0.252,0.191
			c0.048,0.082-0.084,0.259-0.042,0.357c0.044,0.093,0.194,0.135,0.235,0.225c0.042,0.099,0.231,0.125,0.271,0.219
			c0.041,0.093,0.016,0.213,0.058,0.308c0.037,0.094-0.113,0.271-0.076,0.365c0.039,0.094,0.15,0.157,0.191,0.247
			c0.042,0.095,0.245,0.116,0.282,0.215c0.039,0.09,0.143,0.158,0.185,0.252c0.041,0.093,0.012,0.213,0.049,0.312
			c0.041,0.09-0.074,0.255-0.037,0.345c0.037,0.099-0.023,0.233,0.014,0.328c0.041,0.094,0.083,0.188,0.122,0.282
			c0.039,0.094,0.254,0.108,0.296,0.202c0.042,0.095,0.203,0.128,0.252,0.218c0.041,0.09-0.21,0.327-0.164,0.417
			c0.044,0.09,0.404,0.02,0.452,0.109c0.051,0.091-0.198,0.33-0.149,0.417c0.048,0.09,0.191,0.132,0.237,0.222
			C46.67,42.925,46.783,42.981,46.825,43.072z"/>
	</g>
</g>
<g>
</g>
<g>
</g>
<g>
</g>
<g>
</g>
<g>
</g>
<g>
</g>
<g>
</g>
<g>
</g>
<g>
</g>
<g>
</g>
<g>
</g>
<g>
</g>
<g>
</g>
<g>
</g>
<g>
</g>
</svg>
