<?xml version="1.0" encoding="utf-8"?>
<!-- Generator: Adobe Illustrator 16.0.0, SVG Export Plug-In . SVG Version: 6.00 Build 0)  -->
<!DOCTYPE svg PUBLIC "-//W3C//DTD SVG 1.1//EN" "http://www.w3.org/Graphics/SVG/1.1/DTD/svg11.dtd">
<svg version="1.1" id="圖層_1" xmlns="http://www.w3.org/2000/svg" xmlns:xlink="http://www.w3.org/1999/xlink" x="0px" y="0px"
	 width="55px" height="55px" viewBox="0 0 55 55" enable-background="new 0 0 55 55" xml:space="preserve">
<g>
	<path d="M26.423,48.854c-0.074-0.092-0.256-0.023-0.33-0.097c-0.074-0.092-0.125-0.194-0.199-0.273
		c-0.08-0.085-0.102-0.103-0.165-0.183c-0.108,0.046-0.193-0.073-0.29-0.034c-0.108,0.046-0.25,0.012-0.347,0.058
		c-0.097,0.045-0.091,0.341-0.193,0.387c-0.097,0.046-0.347-0.216-0.444-0.171c-0.097,0.046-0.108,0.324-0.205,0.37
		c-0.108,0.04-0.308-0.165-0.404-0.131c-0.108,0.04-0.102,0.398-0.205,0.433c-0.114,0.028-0.285-0.193-0.393-0.171
		c-0.108,0.022-0.205,0.063-0.313,0.079c-0.114,0.018-0.216,0.08-0.324,0.098c-0.108,0.017-0.211,0.063-0.325,0.079
		c-0.108,0.018-0.216-0.022-0.33-0.006c-0.108,0.012-0.205,0.262-0.319,0.262c-0.108,0.006-0.216-0.335-0.33-0.341
		c-0.108,0-0.239,0.238-0.353,0.216c-0.108-0.012-0.25,0.046-0.359,0.022c-0.108-0.034-0.233-0.079-0.335-0.131
		c-0.091-0.039-0.057-0.347-0.159-0.415c-0.091-0.051-0.353,0.131-0.444,0.057c-0.091-0.068,0.057-0.427-0.023-0.483
		c-0.091-0.063-0.347,0.119-0.427,0.074c-0.097-0.057-0.199-0.034-0.279-0.068c-0.114-0.046-0.136-0.33-0.228-0.33
		c-0.103,0.006-0.131,0.233-0.228,0.296c-0.074,0.046-0.171,0.046-0.25,0.137c-0.063,0.068-0.262,0.034-0.335,0.125
		c-0.057,0.074-0.182,0.113-0.25,0.205c-0.051,0.079-0.051,0.204-0.12,0.296c-0.057,0.091-0.022,0.25-0.074,0.347
		s-0.074,0.211-0.12,0.313c-0.051,0.091-0.285,0.091-0.341,0.193c-0.051,0.091-0.125,0.17-0.182,0.272
		c-0.051,0.092-0.091,0.183-0.154,0.279c-0.057,0.091,0.051,0.302-0.017,0.381c-0.068,0.091-0.034,0.285-0.114,0.364
		c-0.08,0.08-0.347-0.057-0.438,0c-0.085,0.068-0.085,0.308-0.188,0.353c-0.097,0.04-0.285-0.228-0.398-0.204
		c-0.103,0.022-0.171,0.353-0.29,0.358c-0.108,0-0.211-0.108-0.313-0.097c-0.103,0.011-0.216-0.08-0.325-0.068
		c-0.102,0.011-0.165,0.301-0.267,0.318c-0.103,0.017-0.233-0.148-0.336-0.125c-0.097,0.022-0.165,0.216-0.267,0.238
		c-0.103,0.018-0.273-0.262-0.376-0.232c-0.097,0.022-0.216-0.018-0.318,0.005c-0.097,0.023-0.12,0.37-0.216,0.398
		c-0.103,0.023-0.199,0.074-0.301,0.097c-0.097,0.028-0.245-0.153-0.347-0.125c-0.108,0.028-0.216-0.006-0.319,0.018
		c-0.103,0.022-0.171,0.216-0.273,0.238c-0.114,0.012-0.239-0.034-0.347-0.028s-0.222,0.04-0.336,0.046
		c-0.108,0.006-0.222-0.046-0.33-0.052c-0.114,0-0.216-0.119-0.33-0.125c-0.114,0-0.245,0.29-0.353,0.285
		c-0.114-0.012-0.222-0.103-0.33-0.108c-0.114-0.012-0.21-0.125-0.318-0.143c-0.114-0.012-0.228,0-0.336-0.012
		c-0.108-0.017-0.233,0.034-0.335,0.012c-0.114-0.012-0.21-0.113-0.319-0.137c-0.114-0.011-0.182-0.17-0.284-0.204
		c-0.108-0.034-0.25,0.039-0.342-0.012c-0.091-0.057-0.057-0.262-0.136-0.336c-0.091-0.074-0.347,0.04-0.421-0.045
		c-0.068-0.086-0.125-0.194-0.182-0.285c-0.057-0.091,0.131-0.302,0.091-0.403c-0.045-0.103-0.114-0.171-0.148-0.279
		s-0.336-0.125-0.364-0.233c-0.034-0.103,0.08-0.25,0.051-0.358s-0.131-0.199-0.154-0.302c-0.022-0.107-0.08-0.204-0.102-0.318
		c-0.023-0.108-0.137-0.193-0.165-0.302c-0.029-0.107-0.017-0.222-0.04-0.33c-0.028-0.107,0.216-0.278,0.193-0.387
		c-0.028-0.108-0.097-0.205-0.119-0.313c-0.029-0.108-0.08-0.211-0.108-0.319c-0.022-0.107-0.028-0.222-0.051-0.33
		C5.9,47.415,5.854,47.313,5.82,47.198c-0.028-0.103-0.011-0.222-0.04-0.33c-0.028-0.103-0.239-0.165-0.267-0.272
		c-0.023-0.114,0.017-0.229-0.012-0.342c-0.034-0.103,0.057-0.239,0.034-0.347c-0.022-0.108-0.239-0.165-0.267-0.268
		c-0.023-0.103,0.188-0.268,0.159-0.376c-0.028-0.103-0.108-0.193-0.125-0.307c-0.017-0.103-0.074-0.205-0.097-0.308
		c-0.022-0.114-0.284-0.171-0.307-0.279c-0.022-0.107,0.068-0.233,0.045-0.347c-0.017-0.103,0.16-0.245,0.143-0.353
		c-0.017-0.114-0.131-0.205-0.148-0.308c-0.017-0.108,0.074-0.228,0.063-0.341c-0.023-0.103,0.006-0.217-0.011-0.325
		c-0.017-0.107-0.353-0.176-0.364-0.284s0.057-0.228,0.045-0.336C4.66,41.97,4.739,41.85,4.728,41.742
		c-0.012-0.108-0.171-0.199-0.182-0.313c-0.012-0.103,0.182-0.228,0.17-0.341C4.705,40.979,4.512,40.889,4.5,40.78
		c-0.011-0.114,0.034-0.228,0.029-0.33c-0.006-0.114,0.153-0.233,0.142-0.342c-0.006-0.107-0.125-0.21-0.131-0.318
		s0.091-0.222,0.085-0.33c0-0.113-0.034-0.216-0.045-0.33c0-0.107-0.131-0.21-0.137-0.318c0-0.114,0.097-0.228,0.091-0.33
		c0-0.114,0.046-0.222,0.046-0.33c-0.006-0.108-0.313-0.205-0.319-0.313c0-0.108,0.41-0.233,0.404-0.342
		c-0.005-0.108-0.153-0.211-0.153-0.324c0-0.103-0.159-0.211-0.165-0.318c-0.006-0.114,0.268-0.228,0.268-0.336
		c-0.006-0.108-0.273-0.205-0.279-0.313c-0.006-0.102,0.125-0.216,0.119-0.324c-0.005-0.107,0.103-0.222,0.097-0.324
		c-0.005-0.113-0.063-0.216-0.063-0.318c-0.011-0.114-0.114-0.216-0.12-0.318c-0.005-0.108,0.04-0.217,0.046-0.319
		c0-0.107-0.205-0.228-0.199-0.33c0.011-0.107,0.216-0.193,0.228-0.301c0.017-0.108-0.137-0.245-0.108-0.348
		c0.028-0.103,0.051-0.21,0.08-0.313c0.028-0.103-0.017-0.233,0.017-0.336s0.296-0.125,0.335-0.222
		c0.04-0.103,0.222-0.137,0.268-0.233c0.034-0.091-0.108-0.273-0.068-0.364c0.045-0.103-0.057-0.262-0.017-0.353
		c0.04-0.097,0.12-0.177,0.165-0.273s0.108-0.182,0.148-0.284c0.045-0.091,0.137-0.171,0.182-0.262
		c0.034-0.103,0.006-0.228,0.045-0.318c0.034-0.103,0.262-0.137,0.296-0.229c0.034-0.107-0.205-0.284-0.182-0.393
		c0.023-0.107,0.364-0.153,0.375-0.256c0.023-0.107,0.012-0.222,0.028-0.33c0.017-0.107,0.08-0.21,0.097-0.318
		c0.011-0.108-0.262-0.273-0.239-0.376c0.023-0.113,0.262-0.164,0.296-0.272c0.028-0.103-0.108-0.285-0.057-0.387
		c0.045-0.103,0.318-0.08,0.375-0.183c0.057-0.091,0.148-0.17,0.205-0.273c0.057-0.091,0.028-0.25,0.08-0.347
		c0.034-0.103-0.125-0.29-0.08-0.387s0.341-0.091,0.381-0.193c0.04-0.097-0.216-0.325-0.176-0.421
		c0.034-0.102,0.364-0.085,0.398-0.188c0.034-0.091-0.125-0.279-0.08-0.375c0.034-0.103,0.341-0.097,0.387-0.194
		c0.04-0.102-0.256-0.341-0.216-0.438c0.045-0.103,0.296-0.108,0.341-0.21s0.063-0.21,0.103-0.307c0.045-0.103-0.045-0.262,0-0.353
		c0.045-0.097,0.284-0.102,0.33-0.205c0.045-0.091-0.143-0.313-0.091-0.41c0.045-0.091,0.205-0.137,0.25-0.233
		c0.057-0.091,0.103-0.199,0.159-0.285c0.057-0.085,0.239-0.097,0.302-0.182c0.063-0.085,0.057-0.216,0.125-0.301
		c0.063-0.08,0.045-0.239,0.114-0.319c0.063-0.08,0.268-0.057,0.336-0.131c0.074-0.08,0.131-0.17,0.199-0.25
		c0.074-0.074,0.119-0.177,0.193-0.256c0.074-0.08,0.125-0.17,0.193-0.25c0.063-0.08,0.063-0.216,0.131-0.301
		s0.08-0.199,0.148-0.279c0.057-0.085,0.103-0.176,0.165-0.262c0.063-0.091,0.262-0.068,0.324-0.154
		c0.057-0.085,0.12-0.165,0.176-0.256c0.063-0.085,0.074-0.205,0.137-0.285c0.057-0.091,0.205-0.114,0.256-0.205
		c0.057-0.085-0.005-0.25,0.046-0.336c0.057-0.085,0.199-0.125,0.25-0.21c0.051-0.097,0.285-0.091,0.33-0.182
		c0.051-0.091,0.023-0.233,0.068-0.324c0.045-0.108,0.011-0.256,0.034-0.37c0.034-0.114-0.034-0.239-0.011-0.358
		c0.011-0.114,0.25-0.213,0.25-0.333c0.012-0.117-0.364-0.248-0.364-0.364c0.005-0.117,0.41-0.216,0.41-0.33
		c0.011-0.114-0.364-0.242-0.364-0.355c0.011-0.114,0.228-0.222,0.233-0.336c0-0.114-0.199-0.228-0.199-0.338
		c0-0.114,0.148-0.23,0.148-0.344c-0.012-0.114-0.103-0.222-0.108-0.336c-0.005-0.114,0.165-0.239,0.16-0.353
		c-0.006-0.108-0.165-0.205-0.216-0.319c-0.057-0.119,0.005-0.398-0.08-0.446c-0.097-0.06-0.37,0.162-0.461,0.099
		c-0.085-0.063-0.103-0.23-0.182-0.301c-0.091-0.071-0.074-0.242-0.154-0.313c-0.08-0.077-0.347,0.023-0.421-0.057
		c-0.074-0.08-0.085-0.222-0.154-0.304c-0.068-0.088-0.193-0.14-0.25-0.23c-0.057-0.088,0.04-0.29-0.012-0.381
		c-0.057-0.091-0.262-0.108-0.307-0.205c-0.051-0.097,0.08-0.285,0.04-0.381c-0.04-0.103-0.137-0.176-0.177-0.276
		c-0.034-0.103,0.097-0.262,0.068-0.367c-0.045-0.102-0.341-0.125-0.37-0.225c-0.029-0.108,0.256-0.273,0.233-0.378
		c-0.023-0.108-0.444-0.162-0.45-0.27c-0.006-0.111,0.142-0.236,0.154-0.342c0-0.108,0.193-0.19,0.21-0.296
		c0.017-0.111-0.21-0.27-0.177-0.37c0.023-0.105,0.296-0.123,0.336-0.216c0.04-0.097,0.006-0.228,0.063-0.318
		c0.057-0.094,0.114-0.174,0.182-0.262c0.068-0.083,0.239-0.054,0.319-0.128c0.074-0.077,0.102-0.182,0.188-0.248
		c0.085-0.068,0.108-0.193,0.205-0.253c0.085-0.057,0.165-0.134,0.267-0.188c0.091-0.051,0.16-0.159,0.262-0.199
		c0.091-0.043,0.182-0.137,0.285-0.174s0.199-0.091,0.302-0.128c0.102-0.04,0.199-0.091,0.301-0.128
		c0.108-0.037,0.25,0.048,0.353,0.014c0.108-0.034,0.199-0.097,0.307-0.131c0.103-0.034,0.171-0.168,0.273-0.202
		c0.108-0.031,0.228-0.028,0.33-0.063c0.103-0.031,0.296,0.208,0.398,0.173c0.103-0.034,0.171-0.19,0.273-0.222
		c0.103-0.034,0.193-0.097,0.302-0.128c0.108-0.029,0.159-0.236,0.268-0.268c0.102-0.028,0.205-0.065,0.307-0.097
		c0.108-0.028,0.239,0.048,0.347,0.017c0.108-0.028,0.193-0.123,0.301-0.151c0.103-0.028,0.262,0.142,0.364,0.114
		s0.171-0.21,0.273-0.233c0.108-0.025,0.25,0.077,0.353,0.054c0.108-0.025,0.216-0.068,0.318-0.097
		c0.103-0.025,0.16-0.27,0.262-0.293c0.103-0.026,0.222-0.023,0.33-0.048c0.103-0.023,0.239,0.085,0.353,0.06
		c0.102-0.025,0.256,0.151,0.364,0.125c0.102-0.026,0.205-0.08,0.307-0.1c0.103-0.026,0.188-0.162,0.296-0.188
		c0.103-0.025,0.205-0.08,0.313-0.105c0.102-0.023,0.245,0.099,0.347,0.08c0.114-0.023,0.194-0.168,0.296-0.188
		c0.114-0.023,0.228,0.045,0.342,0.023c0.108-0.02,0.199-0.114,0.307-0.134c0.108-0.02,0.199-0.117,0.307-0.137
		c0.103-0.022,0.188-0.151,0.296-0.173c0.114-0.02,0.239,0.08,0.347,0.06c0.108-0.02,0.233,0.054,0.335,0.034
		c0.114-0.023,0.171-0.282,0.279-0.302c0.108-0.022,0.222,0.003,0.33-0.017c0.108-0.022,0.239,0.083,0.347,0.063
		c0.103-0.02,0.193-0.151,0.296-0.168c0.114-0.017,0.216-0.054,0.319-0.077c0.114-0.02,0.262,0.185,0.364,0.167
		c0.114-0.02,0.177-0.273,0.285-0.287c0.108-0.017,0.222,0.008,0.33-0.009c0.114-0.022,0.216-0.014,0.33-0.034
		c0.103-0.02,0.245,0.133,0.353,0.116c0.103-0.02,0.216-0.008,0.324-0.028c0.108-0.02,0.211-0.045,0.319-0.068
		c0.103-0.02,0.205-0.08,0.313-0.1c0.103-0.02,0.176-0.228,0.285-0.248c0.102-0.02,0.205-0.088,0.307-0.108
		c0.108-0.023,0.25,0.108,0.353,0.088c0.103-0.023,0.205-0.085,0.308-0.105c0.102-0.02,0.193-0.151,0.296-0.176
		c0.108-0.02,0.25,0.122,0.353,0.1C27.925,3.782,28,3.58,28.102,3.56c0.103-0.02,0.279,0.281,0.388,0.259
		c0.102-0.02,0.147-0.341,0.25-0.364c0.108-0.02,0.262,0.188,0.37,0.165c0.107-0.023,0.222,0.006,0.324-0.014
		c0.107-0.02,0.199-0.108,0.307-0.128c0.125-0.026,0.273-0.233,0.393-0.194c0.108,0.034,0.205,0.048,0.302,0.074
		c0.108,0.025,0.188,0.151,0.296,0.173c0.103,0.02,0.217-0.06,0.324-0.048c0.108,0.014,0.211-0.057,0.319-0.054
		c0.102,0.005,0.204,0.202,0.313,0.202c0.103,0,0.205-0.1,0.318-0.105c0.103-0.003,0.211,0.031,0.319,0.02
		c0.102-0.005,0.222,0.091,0.329,0.074c0.103-0.014,0.171-0.248,0.279-0.271c0.103-0.017,0.256,0.228,0.364,0.208
		c0.103-0.023,0.143-0.319,0.25-0.344c0.108-0.026,0.268,0.205,0.37,0.173c0.108-0.022,0.228-0.003,0.324-0.031
		c0.103-0.031,0.131-0.338,0.233-0.37c0.103-0.029,0.278-0.08,0.398-0.06c0.113,0.023,0.205,0.137,0.318,0.148
		c0.108,0.012,0.211,0.165,0.33,0.185c0.137,0.025,0.25-0.026,0.33-0.08c0.091-0.06,0.205-0.083,0.296-0.131
		c0.103-0.045,0.171-0.168,0.273-0.202c0.102-0.031,0.262,0.185,0.369,0.171c0.108-0.023,0.177-0.353,0.279-0.358
		c0.103-0.003,0.228,0.114,0.33,0.119c0.107,0.003,0.204,0.083,0.318,0.1c0.103,0.012,0.228-0.077,0.33-0.054
		c0.108,0.02,0.159,0.295,0.262,0.318c0.103,0.02,0.284-0.31,0.393-0.29c0.103,0.025,0.137,0.37,0.245,0.393
		c0.102,0.022,0.216,0.005,0.324,0.025c0.107,0.017,0.216,0.031,0.324,0.043c0.103,0.011,0.216,0.074,0.324,0.08
		c0.108,0.005,0.21-0.259,0.318-0.268c0.119-0.008,0.256-0.097,0.364-0.088c0.119,0.012,0.256,0.063,0.358,0.097
		c0.114,0.031,0.262,0.057,0.358,0.111c0.097,0.057,0.028,0.381,0.119,0.449c0.092,0.068,0.183,0.117,0.268,0.194
		c0.08,0.074,0.217,0.091,0.296,0.176c0.074,0.08,0.205,0.111,0.285,0.196c0.073,0.083,0.147,0.17,0.21,0.256
		c0.068,0.088,0.091,0.213,0.148,0.302c0.063,0.091,0.268,0.108,0.318,0.202c0.046,0.099-0.091,0.287-0.057,0.387
		c0.034,0.105-0.012,0.219,0.011,0.324c0.023,0.105,0.034,0.196,0.04,0.305c0.006,0.105-0.022,0.196-0.028,0.307
		c-0.012,0.105-0.034,0.193-0.057,0.301c-0.023,0.105,0.238,0.276,0.204,0.381c-0.028,0.1-0.113,0.193-0.153,0.299
		c-0.04,0.094-0.011,0.228-0.057,0.333c-0.04,0.097-0.239,0.128-0.29,0.228c-0.052,0.1-0.228,0.134-0.285,0.23
		c-0.051,0.1,0.012,0.259-0.045,0.355s-0.211,0.131-0.273,0.222c-0.057,0.097-0.017,0.25-0.085,0.344
		c-0.063,0.091-0.103,0.199-0.177,0.288c-0.068,0.088-0.057,0.248-0.125,0.335c-0.08,0.085-0.308,0.026-0.387,0.105
		c-0.08,0.08-0.137,0.171-0.228,0.248c-0.08,0.077-0.137,0.179-0.223,0.25c-0.085,0.071-0.256,0.031-0.347,0.097
		c-0.091,0.068-0.012,0.333-0.085,0.407c-0.08,0.08-0.052,0.205-0.114,0.293c-0.063,0.094-0.137,0.14-0.176,0.236
		c-0.04,0.1-0.239,0.142-0.251,0.25c-0.022,0.108-0.137,0.228-0.137,0.336c0.006,0.108-0.011,0.25,0.012,0.358
		c0.028,0.105,0.364,0.103,0.415,0.202c0.046,0.097,0.08,0.173,0.143,0.265c0.068,0.083-0.103,0.373-0.022,0.452
		c0.068,0.071,0.131,0.151,0.204,0.222c0.068,0.071,0.404-0.131,0.479-0.063c0.079,0.071,0.068,0.213,0.147,0.273
		c0.08,0.063,0,0.358,0.092,0.41c0.085,0.054,0.244,0.014,0.341,0.045c0.103,0.037,0.159,0.165,0.262,0.205
		c0.103,0.043,0.193,0.088,0.29,0.134c0.097,0.048,0.308-0.145,0.404-0.094c0.091,0.045,0.205,0.065,0.308,0.117
		c0.091,0.051,0.153,0.176,0.244,0.225c0.097,0.054,0.256-0.011,0.353,0.048c0.092,0.054,0.177,0.125,0.268,0.179
		c0.097,0.054,0.068,0.31,0.154,0.367c0.097,0.06,0.301-0.063,0.393-0.003c0.091,0.06,0.011,0.364,0.102,0.424
		c0.092,0.057,0.177,0.125,0.262,0.185c0.092,0.063,0.308-0.068,0.398-0.006c0.086,0.063,0.108,0.222,0.193,0.282
		c0.092,0.063,0.273-0.006,0.358,0.054c0.086,0.063,0.098,0.239,0.188,0.301c0.085,0.063,0.097,0.239,0.182,0.299
		c0.091,0.057,0.376-0.176,0.473-0.12c0.085,0.06,0.165,0.137,0.256,0.194c0.097,0.06,0.097,0.256,0.188,0.31
		c0.091,0.06,0.205,0.083,0.296,0.148c0.086,0.063,0.228,0.063,0.313,0.125c0.091,0.063,0.091,0.239,0.182,0.304
		c0.08,0.068,0.159,0.148,0.239,0.219c0.085,0.071,0.216,0.077,0.296,0.156c0.079,0.074,0.125,0.182,0.205,0.262
		c0.073,0.08,0.296,0.022,0.363,0.102c0.08,0.08,0.103,0.216,0.171,0.296c0.074,0.08-0.103,0.375-0.034,0.455
		c0.068,0.085,0.354,0,0.416,0.08c0.068,0.091-0.006,0.273,0.063,0.364c0.057,0.091,0.091,0.199,0.147,0.285
		c0.063,0.091,0.137,0.171,0.193,0.262c0.058,0.091,0.159,0.148,0.205,0.25c0.046,0.091,0.216,0.136,0.25,0.245
		c0.046,0.097-0.057,0.245-0.028,0.353c0.028,0.103,0.256,0.16,0.285,0.262c0.028,0.108-0.165,0.256-0.148,0.358
		c0.022,0.108,0.165,0.194,0.188,0.302c0.012,0.103-0.262,0.25-0.244,0.358c0.011,0.103,0.091,0.205,0.103,0.307
		c0.017,0.114,0.193,0.194,0.21,0.308c0.012,0.108,0.092,0.205,0.103,0.313c0.012,0.108,0.006,0.21,0.022,0.318
		c0.018,0.108-0.125,0.245-0.113,0.347c0.017,0.108,0.177,0.193,0.193,0.307c0.018,0.108-0.103,0.233-0.091,0.341
		c0.017,0.108,0.284,0.182,0.296,0.296c0.011,0.108,0.034,0.216,0.04,0.325c0.011,0.108-0.063,0.228-0.052,0.335
		c0.012,0.108,0.063,0.216,0.074,0.324c0.017,0.108-0.022,0.222-0.012,0.33c0.006,0.108-0.119,0.233-0.107,0.336
		c0.011,0.114,0.147,0.205,0.159,0.318c0.011,0.108-0.199,0.233-0.193,0.341c0.011,0.103,0.153,0.205,0.153,0.319
		c-0.006,0.103-0.074,0.205-0.086,0.307c-0.011,0.114-0.17,0.182-0.193,0.285c-0.022,0.108-0.045,0.205-0.068,0.308
		c-0.033,0.113,0.034,0.216-0.011,0.296c-0.052,0.097-0.046,0.216-0.137,0.262c-0.08,0.045-0.182,0.188-0.308,0.182
		c-0.091,0-0.136-0.336-0.256-0.364c-0.108-0.028-0.302,0.302-0.404,0.284c-0.113-0.022-0.17-0.307-0.272-0.329
		c-0.114-0.012-0.262,0.262-0.364,0.25c-0.114-0.012-0.211-0.063-0.318-0.068c-0.114-0.012-0.211-0.074-0.319-0.08
		c-0.113-0.011-0.21-0.17-0.318-0.182c-0.113-0.012-0.216-0.022-0.33-0.022c-0.108-0.006-0.233,0.193-0.341,0.182
		c-0.086,0-0.137-0.046-0.239,0.012c-0.086,0.045-0.211,0.045-0.273,0.107c-0.074,0.08-0.205,0.074-0.272,0.131
		c-0.092,0.058-0.148,0.126-0.239,0.16c-0.103,0.034-0.193,0-0.296,0.017c-0.097,0.018-0.193,0.012-0.296,0.028
		c-0.103,0.006-0.188,0.199-0.29,0.205c-0.108,0.012-0.256-0.085-0.358-0.046c-0.108,0.034-0.228,0.068-0.33,0.131
		c-0.097,0.052-0.262,0.028-0.354,0.097c-0.097,0.063-0.159,0.183-0.25,0.251s-0.012,0.353-0.091,0.421
		c-0.091,0.079-0.131,0.205-0.217,0.278c-0.085,0.074-0.295,0.006-0.375,0.097c-0.068,0.092-0.148,0.177-0.216,0.273
		c-0.068,0.097-0.023,0.262-0.086,0.364s-0.324,0.068-0.393,0.159c-0.057,0.091-0.074,0.183-0.137,0.251
		c-0.073,0.079-0.137,0.125-0.216,0.17c-0.091,0.052-0.125,0.273-0.228,0.285c-0.091,0.011-0.205-0.114-0.308-0.131
		c-0.091-0.018-0.137-0.177-0.244-0.211c-0.108-0.034-0.285,0.216-0.37,0.193c-0.114-0.022-0.183-0.113-0.273-0.119
		c-0.119-0.006-0.233-0.091-0.318-0.052c-0.085,0.04-0.171,0.126-0.233,0.217c-0.051,0.074-0.068,0.182-0.108,0.29
		c-0.022,0.085-0.097,0.171-0.125,0.278c-0.017,0.092-0.085,0.183-0.103,0.291c-0.022,0.107,0.034,0.222,0.006,0.33
		c-0.034,0.102,0.091,0.272,0.052,0.369c-0.046,0.103-0.131,0.188-0.177,0.285c-0.051,0.097-0.063,0.21-0.108,0.307
		c-0.045,0.103-0.147,0.165-0.188,0.268c-0.04,0.097-0.057,0.199-0.085,0.296c-0.034,0.108-0.193,0.165-0.211,0.273
		c-0.017,0.107-0.085,0.199-0.097,0.301c-0.012,0.103,0.182,0.228,0.177,0.336c-0.018,0.108-0.302,0.177-0.313,0.285
		c-0.006,0.107,0.086,0.216,0.08,0.324c-0.012,0.103,0.068,0.21,0.068,0.318c-0.012,0.103-0.058,0.205-0.058,0.308
		c-0.005,0.102-0.045,0.21-0.045,0.318c0,0.103,0.205,0.205,0.205,0.307c0,0.108-0.388,0.217-0.388,0.319
		c0,0.107,0.273,0.204,0.285,0.313c0,0.108-0.114,0.211-0.114,0.318c0.006,0.126-0.045,0.233-0.057,0.33
		c-0.012,0.131,0.228,0.336,0.182,0.427c-0.051,0.103-0.278,0.126-0.393,0.177c-0.085,0.04-0.21-0.04-0.347-0.028
		c-0.103,0.006-0.211,0.068-0.308,0.079c-0.107,0.012-0.188,0.137-0.284,0.16c-0.103,0.022-0.245-0.108-0.347-0.08
		c-0.098,0.028-0.108,0.308-0.199,0.353c-0.097,0.046-0.194,0.046-0.285,0.091c-0.091,0.052-0.182,0.08-0.272,0.137
		c-0.08,0.058-0.342-0.125-0.422-0.057c-0.079,0.063,0.058,0.381-0.022,0.455c-0.074,0.068-0.159,0.114-0.233,0.193
		c-0.074,0.08-0.324-0.125-0.449-0.079c-0.103,0.034-0.159,0.244-0.279,0.262c-0.119,0.028-0.256-0.023-0.363,0
		c-0.097,0.028-0.199,0-0.302,0.022c-0.103,0.012-0.183,0.216-0.285,0.228c-0.102,0.012-0.193,0.068-0.296,0.085
		c-0.102,0.018-0.272-0.198-0.369-0.165c-0.103,0.04-0.028,0.376-0.108,0.433c-0.091,0.068-0.182,0.125-0.273,0.183
		c-0.091,0.068-0.307-0.058-0.397,0c-0.086,0.057-0.126,0.205-0.217,0.262s-0.273-0.034-0.364,0.022
		c-0.091,0.052-0.034,0.364-0.137,0.41c-0.091,0.057-0.204,0.073-0.301,0.125c-0.097,0.051-0.165,0.147-0.268,0.205
		c-0.091,0.045-0.205,0.063-0.302,0.107c-0.097,0.052-0.193,0.108-0.29,0.148c-0.097,0.045-0.302-0.143-0.398-0.097
		c-0.097,0.034-0.205,0.068-0.302,0.107c-0.097,0.04-0.159,0.177-0.256,0.223c-0.103,0.039-0.279-0.126-0.381-0.086
		c-0.097,0.04-0.137,0.233-0.239,0.268c-0.097,0.04-0.131,0.273-0.233,0.308c-0.103,0.039-0.25-0.074-0.336-0.023
		c-0.097,0.058-0.21,0.08-0.278,0.148c-0.08,0.079,0.022,0.272-0.028,0.358c-0.052,0.085-0.171,0.119-0.205,0.222
		c-0.028,0.103-0.296,0.148-0.313,0.251c-0.017,0.102,0.302,0.25,0.296,0.353c-0.011,0.103-0.119,0.204-0.119,0.302
		c-0.006,0.107,0.085,0.222,0.085,0.313c-0.005,0.114-0.039,0.228-0.051,0.33c-0.018,0.108-0.273,0.177-0.296,0.278
		c-0.017,0.108-0.097,0.188-0.12,0.285c-0.034,0.107-0.045,0.193-0.08,0.296c-0.034,0.097,0.034,0.228-0.011,0.324
		s-0.011,0.228-0.057,0.324c-0.057,0.091-0.205,0.125-0.262,0.211c-0.057,0.091-0.125,0.159-0.193,0.244s-0.176,0.119-0.25,0.199
		c-0.074,0.08-0.125,0.159-0.199,0.239c-0.074,0.073-0.017,0.284-0.097,0.358C26.617,48.814,26.509,48.786,26.423,48.854z
		 M26.378,47.227c0.074,0.052,0.233-0.073,0.301-0.017c0.068,0.045,0.017,0.113,0.091,0.165c0.022-0.103-0.028-0.143,0-0.245
		c0.022-0.103,0.205-0.159,0.239-0.262c0.023-0.097,0.137-0.176,0.165-0.278c0.028-0.097-0.21-0.268-0.188-0.37
		c0.022-0.103,0.375-0.125,0.398-0.233c0.023-0.097-0.216-0.25-0.199-0.353c0.017-0.103,0.302-0.183,0.302-0.284
		c0.011-0.12-0.313-0.262-0.302-0.37c0.017-0.12,0.291-0.188,0.319-0.296c0.028-0.114,0.028-0.217,0.063-0.318
		c0.04-0.114,0.034-0.229,0.08-0.33c0.046-0.103,0.068-0.205,0.137-0.296c0.063-0.092,0.165-0.148,0.245-0.228
		c0.073-0.08,0-0.342,0.085-0.416c0.091-0.068,0.376,0.154,0.478,0.086c0.092-0.058,0.068-0.33,0.171-0.388
		c0.097-0.045,0.171-0.182,0.285-0.222c0.102-0.04,0.204-0.085,0.318-0.131c0.103-0.051,0.33,0.165,0.433,0.108
		c0.107-0.052,0.079-0.376,0.182-0.427c0.108-0.057,0.376,0.228,0.483,0.171c0.108-0.052,0.074-0.376,0.177-0.427
		c0.103-0.052,0.182-0.165,0.284-0.217c0.097-0.045,0.308,0.165,0.41,0.12c0.091-0.046,0.091-0.285,0.193-0.33
		c0.091-0.046,0.21-0.034,0.307-0.08c0.098-0.045,0.262,0.068,0.359,0.028c0.097-0.045,0.228-0.017,0.318-0.057
		c0.097-0.04,0.159-0.153,0.256-0.199c0.097-0.045,0.137-0.193,0.239-0.239c0.091-0.045,0.17-0.125,0.262-0.17
		c0.103-0.04,0.278,0.097,0.375,0.057c0.097-0.046,0.205-0.068,0.296-0.114c0.097-0.045,0.183-0.097,0.285-0.142
		c0.091-0.052,0.091-0.279,0.193-0.324c0.091-0.052,0.119-0.228,0.21-0.273s0.313,0.153,0.404,0.103
		c0.103-0.046,0.103-0.29,0.205-0.342c0.103-0.045,0.341,0.171,0.438,0.125c0.097-0.051,0.04-0.393,0.143-0.443
		c0.103-0.057,0.25-0.012,0.342-0.068c0.102-0.051,0.244-0.017,0.341-0.074c0.097-0.051,0.052-0.358,0.148-0.415
		c0.097-0.051,0.284,0.046,0.381-0.012c0.097-0.057,0.097-0.262,0.193-0.318c0.097-0.063,0.348,0.143,0.449,0.085
		c0.074-0.051,0.233-0.119,0.296-0.21c0.058-0.08-0.182-0.33-0.147-0.421c0.034-0.103,0.022-0.159,0.022-0.251
		c0-0.107,0.193-0.222,0.183-0.33c-0.012-0.107,0.022-0.228,0.005-0.341c-0.017-0.103-0.21-0.193-0.232-0.296
		c-0.012-0.114,0.034-0.239,0.022-0.348c-0.012-0.113-0.04-0.232-0.034-0.335c0.006-0.114,0.079-0.228,0.103-0.33
		c0.034-0.103,0.171-0.171,0.205-0.268c0.033-0.103-0.229-0.29-0.194-0.393s0.137-0.183,0.171-0.279s0.171-0.165,0.205-0.267
		c0.034-0.098,0.046-0.205,0.08-0.302c0.039-0.097,0.022-0.223,0.057-0.319c0.045-0.097,0.171-0.159,0.21-0.256
		c0.04-0.097,0.211-0.137,0.257-0.233c0.039-0.097-0.034-0.244,0.005-0.341c0.04-0.097,0.262-0.114,0.308-0.211
		c0.04-0.091-0.159-0.302-0.119-0.398c0.045-0.091,0.097-0.188,0.147-0.284c0.046-0.091,0.318-0.08,0.364-0.171
		c0.051-0.113,0.063-0.205,0.137-0.296c0.068-0.091-0.052-0.369,0.034-0.443c0.091-0.074,0.278-0.018,0.387-0.068
		c0.103-0.046,0.193-0.159,0.318-0.183c0.103-0.028,0.228-0.067,0.354-0.073c0.113-0.006,0.25-0.097,0.363-0.086
		c0.114,0.006,0.188,0.034,0.308,0.012c0.114-0.022,0.296,0.205,0.41,0.159c0.107-0.04,0.216-0.147,0.307-0.205
		c0.103-0.068,0.188-0.17,0.262-0.25c0.068-0.08,0.148-0.148,0.217-0.228c0.068-0.08,0.113-0.177,0.176-0.256
		c0.063-0.086,0.159-0.143,0.222-0.228c0.068-0.086-0.033-0.279,0.034-0.364c0.058-0.086,0.171-0.131,0.229-0.211
		c0.063-0.091,0.222-0.103,0.284-0.193c0.057-0.085-0.052-0.278,0.011-0.364c0.058-0.091,0.319-0.034,0.376-0.125
		c0.057-0.08,0.068-0.199,0.125-0.284c0.08-0.108,0.12-0.211,0.199-0.273c0.097-0.091,0.131-0.381,0.233-0.398
		c0.108-0.022,0.296,0.12,0.41,0.182c0.091,0.045,0.063,0.273,0.153,0.375c0.085,0.086,0.262,0.097,0.37,0.177
		c0.102,0.068,0.216,0.25,0.329,0.341c0.08-0.091,0.263-0.176,0.336-0.244c0.086-0.074-0.017-0.398,0.068-0.461
		c0.097-0.063,0.251-0.045,0.348-0.085c0.107-0.045,0.25,0.011,0.353-0.023c0.108-0.022,0.199-0.188,0.307-0.199
		c0.114-0.006,0.229,0.188,0.342,0.188c0.114,0,0.239-0.182,0.347-0.17c0.108,0.011,0.223,0.08,0.325,0.097
		c0.113,0.017,0.193,0.199,0.307,0.222c0.103,0.018,0.239-0.08,0.342-0.057c0.125,0.022,0.228,0.142,0.33,0.147
		c0.125,0.006,0.256-0.028,0.353-0.04c0.125-0.017,0.182-0.17,0.262-0.233c0.08-0.068,0.228-0.097,0.256-0.216
		c0.028-0.097,0.097-0.222,0.097-0.353c0-0.103-0.318-0.171-0.341-0.296c-0.012-0.108,0.375-0.285,0.358-0.387
		c-0.018-0.108-0.177-0.188-0.193-0.291c-0.018-0.108-0.188-0.182-0.211-0.29c-0.012-0.103,0.239-0.256,0.216-0.364
		c-0.022-0.103-0.301-0.159-0.318-0.262c-0.022-0.103,0.097-0.233,0.08-0.341c-0.023-0.103,0.073-0.228,0.057-0.33
		c-0.022-0.103-0.091-0.205-0.114-0.307c-0.011-0.097-0.136-0.182-0.159-0.29c-0.022-0.103,0-0.216-0.022-0.325
		c-0.018-0.102-0.239-0.165-0.262-0.273c-0.022-0.103,0.147-0.245,0.125-0.353c-0.017-0.103-0.205-0.171-0.228-0.273
		s-0.046-0.205-0.063-0.313c-0.022-0.108-0.125-0.193-0.147-0.29c-0.018-0.108,0.198-0.262,0.176-0.364s0.114-0.239,0.091-0.347
		c-0.022-0.108-0.238-0.165-0.267-0.267c-0.018-0.103-0.199-0.177-0.217-0.285c-0.022-0.103-0.006-0.216-0.028-0.319
		c-0.022-0.102-0.022-0.21-0.046-0.318c-0.022-0.091,0.012-0.193-0.022-0.296c-0.034-0.091-0.137-0.148-0.182-0.239
		c-0.046-0.091,0.068-0.285,0.011-0.359c-0.057-0.085-0.313,0.051-0.393-0.005c-0.085-0.063,0.006-0.387-0.079-0.455
		c-0.086-0.057-0.188-0.103-0.279-0.171c-0.091-0.057-0.147-0.165-0.239-0.228c-0.091-0.063-0.353,0.114-0.443,0.057
		c-0.091-0.068-0.046-0.307-0.137-0.375s-0.296,0.029-0.387-0.034c-0.085-0.063-0.034-0.321-0.125-0.384
		c-0.086-0.065-0.159-0.157-0.245-0.219c-0.085-0.063-0.233-0.051-0.324-0.114c-0.085-0.063-0.307,0.057-0.393-0.008
		c-0.085-0.063-0.017-0.356-0.108-0.418c-0.091-0.063-0.363,0.142-0.455,0.08c-0.091-0.063-0.011-0.375-0.103-0.435
		c-0.091-0.063-0.307,0.063-0.397,0c-0.092-0.063-0.023-0.364-0.114-0.424c-0.091-0.057-0.381,0.185-0.473,0.125
		c-0.097-0.057-0.063-0.313-0.153-0.373c-0.091-0.057-0.193-0.097-0.29-0.154c-0.097-0.06-0.268,0.009-0.358-0.048
		c-0.091-0.057-0.08-0.29-0.171-0.347c-0.091-0.054-0.318,0.123-0.421,0.063c-0.091-0.054-0.125-0.205-0.216-0.259
		c-0.097-0.054-0.194-0.097-0.285-0.151c-0.097-0.054-0.113-0.233-0.204-0.29c-0.098-0.054-0.229-0.037-0.319-0.091
		c-0.097-0.054-0.25-0.017-0.341-0.074c-0.092-0.06-0.08-0.265-0.171-0.327s-0.183-0.114-0.268-0.176s-0.188-0.114-0.268-0.179
		c-0.079-0.068-0.171-0.128-0.25-0.202c-0.074-0.077-0.217-0.094-0.285-0.173c-0.073-0.08-0.193-0.134-0.256-0.216
		c-0.068-0.085-0.153-0.171-0.21-0.262c-0.058-0.085,0.034-0.276-0.023-0.367c-0.045-0.094-0.091-0.188-0.136-0.29
		c-0.046-0.094-0.126-0.179-0.165-0.285c-0.029-0.1,0.039-0.23,0.017-0.335c-0.028-0.1-0.188-0.179-0.205-0.285
		c-0.022-0.105,0.063-0.23,0.058-0.338c-0.103,0.02-0.251-0.159-0.342-0.14c-0.103,0.023-0.188,0.128-0.29,0.148
		c-0.097,0.02-0.183,0.128-0.284,0.151c-0.098,0.02-0.183,0.125-0.285,0.145c-0.097,0.023-0.244-0.179-0.347-0.156
		c-0.103,0.02-0.125,0.41-0.228,0.43c-0.103,0.02-0.273-0.353-0.376-0.336s-0.137,0.413-0.239,0.43
		c-0.097,0.014-0.238-0.185-0.335-0.173c-0.108,0.017-0.177,0.23-0.29,0.247c-0.108,0.017-0.233-0.114-0.342-0.097
		c-0.103,0.017-0.193,0.125-0.296,0.143c-0.108,0.017-0.239-0.143-0.353-0.125c-0.103,0.017-0.193,0.165-0.296,0.179
		c-0.103,0.017-0.251-0.19-0.353-0.173c-0.103,0.017-0.16,0.364-0.268,0.381c-0.108,0.017-0.233-0.088-0.336-0.074
		c-0.103,0.017-0.233-0.1-0.342-0.083c-0.103,0.017-0.17,0.293-0.272,0.31s-0.223-0.042-0.33-0.025
		c-0.103,0.017-0.205,0.105-0.308,0.122s-0.239-0.153-0.347-0.139c-0.108,0.017-0.188,0.202-0.29,0.219
		c-0.108,0.017-0.251-0.168-0.354-0.151s-0.204,0.088-0.307,0.105s-0.239-0.148-0.354-0.131c-0.102,0.017-0.164,0.31-0.272,0.327
		s-0.262-0.273-0.364-0.256s-0.148,0.441-0.256,0.458c-0.108,0.017-0.233-0.125-0.348-0.111c-0.103,0.017-0.238-0.151-0.341-0.134
		c-0.108,0.017-0.171,0.285-0.285,0.302c-0.102,0.017-0.25-0.208-0.353-0.194c-0.108,0.017-0.199,0.128-0.307,0.145
		c-0.103,0.015-0.217,0.029-0.319,0.046c-0.102,0.017-0.239-0.111-0.341-0.097c-0.102,0.017-0.199,0.091-0.307,0.108
		c-0.103,0.017-0.205,0.117-0.307,0.134s-0.21,0.06-0.313,0.077c-0.108,0.017-0.199,0.097-0.313,0.114
		c-0.103,0.014-0.205,0.08-0.307,0.094c-0.103,0.017-0.21,0.051-0.319,0.065c-0.103,0.014-0.205,0.045-0.318,0.063
		c-0.103,0.014-0.228-0.097-0.33-0.08s-0.21,0.057-0.319,0.071c-0.103,0.017-0.193,0.128-0.301,0.145
		c-0.108,0.017-0.222-0.008-0.325,0.006c-0.114,0.017-0.262-0.253-0.364-0.236c-0.108,0.017-0.194,0.165-0.302,0.177
		c-0.108,0.011-0.21,0.068-0.313,0.085c-0.114,0.017-0.182,0.213-0.296,0.23c-0.108,0.015-0.216,0.037-0.318,0.054
		c-0.108,0.017-0.228-0.077-0.33-0.06c-0.114,0.017-0.21,0.097-0.313,0.114c-0.108,0.017-0.245-0.174-0.353-0.157
		c-0.108,0.017-0.193,0.191-0.301,0.205c-0.103,0.017-0.228-0.103-0.336-0.091c-0.108,0.015-0.21,0.046-0.318,0.063
		c-0.108,0.014-0.188,0.253-0.291,0.264c-0.114,0.015-0.222-0.002-0.33,0.015c-0.108,0.011-0.228-0.111-0.341-0.097
		c-0.102,0.012-0.239-0.182-0.341-0.167c-0.108,0.011-0.21,0.054-0.318,0.065c-0.108,0.014-0.205,0.139-0.308,0.151
		c-0.114,0.008-0.216,0.054-0.318,0.063c-0.114,0.008-0.228-0.134-0.341-0.125c-0.103,0.009-0.205,0.14-0.308,0.148
		c-0.114,0.003-0.222-0.085-0.33-0.08c-0.108,0.003-0.216,0.08-0.318,0.083c-0.114,0.006-0.216,0.08-0.33,0.085
		c-0.103,0-0.216,0.111-0.324,0.111c-0.108,0-0.216-0.125-0.324-0.128c-0.103-0.006-0.211-0.105-0.319-0.108
		c-0.114-0.006-0.228,0.233-0.335,0.225c-0.108-0.003-0.211-0.06-0.325-0.068c-0.108-0.008-0.205-0.142-0.313-0.154
		c-0.108-0.008-0.228,0.088-0.335,0.077c-0.108-0.014-0.216-0.014-0.33-0.026c-0.097-0.014-0.29-0.256-0.341-0.208
		c-0.068,0.057,0.005,0.299-0.068,0.361c-0.08,0.063-0.176,0.08-0.239,0.142c-0.085,0.085-0.148,0.1-0.137,0.174
		c0.017,0.108-0.148,0.233-0.137,0.341c0.012,0.111-0.011,0.213-0.011,0.318c0.006,0.108,0.023,0.211,0.023,0.319
		s0.028,0.213,0.022,0.319c0,0.108,0.171,0.23,0.159,0.338c-0.011,0.111,0.023,0.228,0.006,0.333
		c-0.017,0.108-0.188,0.188-0.21,0.293c-0.023,0.105-0.006,0.222-0.034,0.327c-0.023,0.102,0.057,0.242,0.023,0.341
		c-0.034,0.103-0.228,0.159-0.268,0.256c-0.04,0.103,0.091,0.268,0.051,0.37c-0.04,0.102-0.387,0.068-0.427,0.17
		c-0.051,0.097,0.182,0.319,0.137,0.421c-0.046,0.097-0.302,0.08-0.359,0.182c-0.051,0.091-0.148,0.16-0.205,0.25
		c-0.051,0.091-0.045,0.216-0.103,0.313c-0.057,0.091,0.045,0.285-0.011,0.37c-0.057,0.091-0.114,0.193-0.171,0.279
		c-0.068,0.085-0.21,0.119-0.273,0.205c-0.068,0.085-0.051,0.233-0.12,0.319c-0.063,0.085-0.063,0.222-0.131,0.313
		c-0.068,0.08-0.284,0.045-0.353,0.136c-0.068,0.08-0.051,0.228-0.12,0.313c-0.063,0.085-0.165,0.142-0.233,0.228
		s-0.216,0.097-0.284,0.188c-0.068,0.08,0.04,0.307-0.023,0.387c-0.068,0.085-0.341,0.011-0.41,0.103
		c-0.063,0.085,0.103,0.335,0.034,0.421c-0.057,0.091-0.336,0.028-0.398,0.114c-0.057,0.091-0.165,0.154-0.222,0.245
		c-0.063,0.085,0.131,0.342,0.074,0.433c-0.063,0.091-0.063,0.21-0.114,0.302c-0.057,0.091-0.182,0.136-0.239,0.233
		c-0.045,0.097-0.205,0.137-0.25,0.233c-0.051,0.091-0.034,0.222-0.08,0.319c-0.045,0.102-0.114,0.193-0.159,0.29
		c-0.046,0.103,0,0.233-0.051,0.341c-0.04,0.097-0.319,0.108-0.358,0.205c-0.046,0.097,0.216,0.324,0.17,0.427
		c-0.045,0.102-0.193,0.159-0.233,0.262c-0.04,0.102-0.148,0.17-0.188,0.279c-0.045,0.102,0.011,0.245-0.023,0.347
		c-0.045,0.103-0.318,0.114-0.364,0.216c-0.034,0.103,0.262,0.33,0.222,0.438c-0.04,0.108-0.393,0.091-0.427,0.193
		c-0.04,0.097-0.04,0.222-0.08,0.324c-0.034,0.103-0.068,0.205-0.103,0.313c-0.04,0.103-0.125,0.188-0.165,0.291
		c-0.04,0.107,0.176,0.296,0.137,0.397c-0.04,0.108,0.017,0.239-0.017,0.348c-0.04,0.103-0.091,0.199-0.125,0.302
		c-0.034,0.107-0.034,0.222-0.074,0.324c-0.034,0.107-0.37,0.113-0.398,0.222c-0.034,0.103-0.051,0.216-0.08,0.318
		c-0.034,0.103,0.011,0.239-0.017,0.342c-0.034,0.103,0,0.228-0.034,0.336c-0.028,0.102-0.068,0.21-0.102,0.313
		c-0.034,0.103-0.12,0.193-0.148,0.296c-0.034,0.103,0.102,0.262,0.068,0.364c-0.034,0.108-0.262,0.153-0.29,0.262
		c-0.028,0.103-0.131,0.193-0.159,0.296s-0.063,0.216-0.08,0.318c-0.029,0.103-0.074,0.211-0.097,0.318
		c-0.023,0.114-0.057,0.217-0.08,0.325c-0.017,0.107,0.256,0.267,0.233,0.369c-0.017,0.114-0.085,0.205-0.097,0.319
		c-0.022,0.107,0.04,0.222,0.023,0.33c-0.012,0.107-0.193,0.193-0.199,0.307c-0.011,0.108-0.165,0.205-0.176,0.313
		c-0.006,0.107,0.114,0.232,0.102,0.335c-0.005,0.114-0.125,0.217-0.136,0.324c0,0.108,0.114,0.229,0.108,0.336
		c-0.006,0.108,0.023,0.217,0.017,0.33c0,0.103,0.114,0.217,0.114,0.324c0,0.108-0.21,0.217-0.21,0.324
		c0,0.114,0.023,0.217,0.028,0.33c0,0.108,0.045,0.217,0.051,0.33c0.006,0.103-0.125,0.222-0.12,0.33
		c0,0.114,0.262,0.205,0.262,0.318c0.012,0.103,0.114,0.205,0.125,0.319c0.011,0.103-0.023,0.216-0.017,0.324
		s-0.154,0.233-0.148,0.341c0.017,0.108-0.085,0.233-0.074,0.336c0.017,0.114-0.011,0.222,0,0.33
		c0.017,0.114,0.347,0.183,0.364,0.284c0.011,0.114,0.017,0.217,0.028,0.325c0.017,0.107-0.279,0.262-0.262,0.369
		c0.017,0.108,0.017,0.217,0.029,0.33c0.022,0.103,0.415,0.159,0.432,0.262c0.017,0.114-0.08,0.233-0.057,0.342
		c0.017,0.107-0.245,0.262-0.228,0.37c0.022,0.107,0.148,0.198,0.165,0.301c0.017,0.114-0.051,0.233-0.04,0.342
		c0.023,0.113,0.034,0.216,0.057,0.324c0.017,0.108,0.29,0.171,0.307,0.278c0.022,0.114,0.08,0.211,0.103,0.319
		c0.022,0.113-0.04,0.239-0.023,0.341c0.023,0.108,0.182,0.188,0.205,0.296c0.023,0.114,0.029,0.217,0.057,0.33
		c0.023,0.108-0.182,0.262-0.159,0.37c0.022,0.108,0.256,0.177,0.284,0.279c0.023,0.102-0.239,0.278-0.216,0.387
		c0.022,0.113,0.045,0.216,0.068,0.33c0.023,0.107,0.273,0.159,0.296,0.272c0.023,0.108-0.063,0.239-0.034,0.354
		c0.023,0.102,0.199,0.176,0.228,0.284c0.022,0.113-0.091,0.25-0.063,0.358c0.029,0.108-0.085,0.244-0.063,0.358
		c0.028,0.103,0.398,0.131,0.427,0.239c0.028,0.113,0.034,0.222,0.063,0.33c0.023,0.107-0.114,0.25-0.091,0.358
		c0.028,0.107,0.091,0.204,0.114,0.313c0.028,0.114,0.125,0.199,0.153,0.308c0.029,0.113-0.074,0.25-0.045,0.341
		c0.034,0.114,0.063,0.217,0.108,0.313c0.045,0.103,0.17,0.153,0.222,0.239c0.063,0.091,0.097,0.198,0.176,0.267
		c0.08,0.068,0.25-0.045,0.347,0c0.097,0.052,0.143,0.137,0.245,0.16c0.103,0.022,0.16,0.363,0.273,0.375
		c0.102,0.012,0.228-0.268,0.341-0.273c0.097,0,0.216,0.16,0.33,0.148c0.102-0.012,0.205,0.017,0.307,0.017
		c0.103-0.005,0.205-0.028,0.307-0.028s0.205-0.057,0.307-0.051c0.103,0.006,0.216-0.131,0.319-0.131s0.205,0.137,0.307,0.137
		s0.205-0.205,0.302-0.217c0.108,0,0.222,0.205,0.324,0.193c0.103-0.017,0.188-0.159,0.296-0.176
		c0.103-0.012,0.239,0.262,0.347,0.244c0.108-0.017,0.199-0.097,0.301-0.113c0.103-0.018,0.182-0.193,0.285-0.217
		c0.103-0.011,0.199-0.097,0.296-0.113c0.108-0.018,0.216-0.012,0.319-0.034c0.102-0.018,0.233,0.125,0.341,0.107
		c0.103-0.017,0.176-0.176,0.284-0.198c0.103-0.018,0.228,0.091,0.33,0.073c0.103-0.017,0.16-0.29,0.262-0.313
		c0.103-0.018,0.205-0.04,0.308-0.057c0.108-0.018,0.228,0.051,0.33,0.034c0.103-0.023,0.194-0.08,0.302-0.103
		c0.114-0.023,0.176-0.058,0.239-0.171c0.051-0.085,0.222-0.108,0.279-0.193c0.046-0.091-0.011-0.245,0.04-0.342
		c0.051-0.091,0.29-0.057,0.347-0.147c0.057-0.092-0.017-0.251,0.034-0.342c0.057-0.085,0.159-0.143,0.216-0.228
		c0.051-0.091,0.228-0.113,0.284-0.205c0.045-0.091,0.097-0.188,0.148-0.284c0.045-0.091,0-0.228,0.034-0.324
		c0.045-0.091,0-0.222,0.034-0.324c0.04-0.091-0.045-0.228-0.011-0.324c0.045-0.131,0.375-0.108,0.432-0.199
		c0.068-0.125-0.114-0.444-0.028-0.501c0.097-0.063,0.29,0.165,0.427,0.171c0.103,0.011,0.285-0.251,0.41-0.217
		c0.097,0.029,0.193,0.103,0.285,0.137c0.091,0.034,0.182,0.125,0.273,0.165s0.103,0.233,0.193,0.279
		c0.091,0.051,0.165,0.103,0.245,0.171c0.091,0.067,0.302-0.046,0.393,0.022c0.097,0.057,0.148,0.171,0.245,0.222
		c0.097,0.057,0.16,0.177,0.256,0.222c0.103,0.046,0.17,0.177,0.273,0.217c0.103,0.034,0.233,0.034,0.336,0.068
		c0.108,0.022,0.216,0.102,0.318,0.125c0.108,0.022,0.233,0.045,0.341,0.057c0.108,0.012,0.233-0.171,0.342-0.171
		c0.108,0,0.228,0.125,0.341,0.12c0.108-0.006,0.222-0.006,0.335-0.029c0.114-0.011,0.25,0.068,0.358,0.046
		c0.108-0.022,0.211-0.103,0.319-0.137s0.125-0.324,0.233-0.364c0.102-0.034,0.17-0.147,0.273-0.182
		c0.103-0.046,0.279,0.091,0.381,0.046c0.103-0.046,0.205-0.092,0.307-0.143c0.097-0.052,0.131-0.211,0.233-0.268
		c0.091-0.057,0.296,0.114,0.404,0.08c0.103-0.034,0.188-0.114,0.302-0.143c0.108-0.028,0.216-0.051,0.33-0.08
		c0.102-0.028,0.17-0.244,0.284-0.267C26.139,47.107,26.27,47.255,26.378,47.227z M16.313,13.855c0,0.02,0.034-0.148,0.034-0.128
		c0.097-0.011,0.17,0.006,0.273-0.008c0.097-0.012,0.188-0.054,0.29-0.071c0.097-0.011,0.222,0.134,0.325,0.123
		c0.097-0.012,0.205,0.06,0.307,0.045c0.103-0.011,0.165-0.296,0.262-0.31c0.108-0.012,0.262,0.31,0.364,0.299
		c0.102-0.015,0.182-0.282,0.284-0.293c0.108-0.014,0.25,0.242,0.353,0.23c0.108-0.014,0.17-0.361,0.284-0.373
		c0.103-0.014,0.245,0.233,0.353,0.222c0.103-0.015,0.205-0.048,0.319-0.06c0.102-0.011,0.205-0.074,0.313-0.088
		c0.108-0.012,0.211-0.054,0.313-0.065c0.103-0.015,0.216,0.022,0.33,0.011c0.103-0.011,0.182-0.268,0.285-0.282
		c0.103-0.011,0.256,0.316,0.364,0.302c0.102-0.012,0.182-0.279,0.284-0.293c0.108-0.012,0.205-0.117,0.313-0.128
		c0.108-0.014,0.21-0.025,0.319-0.04c0.108-0.012,0.245,0.265,0.358,0.253c0.103-0.014,0.17-0.333,0.284-0.344
		c0.103-0.014,0.256,0.344,0.364,0.33c0.103-0.011,0.171-0.327,0.285-0.338c0.103-0.011,0.205-0.097,0.307-0.108
		c0.103-0.014,0.25,0.256,0.358,0.242c0.103-0.012,0.188-0.242,0.291-0.256c0.102-0.011,0.228,0.034,0.33,0.023
		c0.103-0.014,0.233,0.151,0.342,0.137c0.114-0.012,0.222,0.054,0.33,0.042c0.102-0.011,0.205-0.1,0.313-0.114
		c0.103-0.011,0.199-0.145,0.302-0.159c0.108-0.012,0.216-0.071,0.319-0.083c0.102-0.014,0.239,0.176,0.347,0.162
		c0.108-0.011,0.216,0,0.325-0.017c0.102-0.011,0.21-0.037,0.318-0.054c0.103-0.011,0.182-0.239,0.29-0.25
		c0.108-0.014,0.194-0.179,0.302-0.193c0.103-0.011,0.25,0.248,0.353,0.23c0.103-0.011,0.183-0.242,0.29-0.259
		c0.103-0.017,0.257,0.276,0.359,0.259c0.102-0.017,0.17-0.353,0.272-0.37s0.228,0.08,0.336,0.068
		c0.108-0.017,0.222,0.068,0.336,0.054c0.103-0.017,0.17-0.313,0.272-0.327c0.108-0.017,0.239,0.151,0.348,0.134
		c0.103-0.014,0.182-0.205,0.29-0.222c0.103-0.015,0.262,0.273,0.364,0.256s0.216,0.031,0.324,0.014s0.159-0.361,0.268-0.378
		c0.103-0.017,0.205-0.06,0.307-0.077c0.103-0.014,0.239,0.165,0.348,0.148c0.107-0.017,0.222,0.011,0.324-0.009
		c0.103-0.017,0.182-0.213,0.284-0.233c0.103-0.023,0.222,0.028,0.33,0.008c0.103-0.023,0.205-0.063,0.308-0.085
		c0.103-0.02,0.216,0.014,0.318-0.008c0.108-0.02,0.233,0.071,0.342,0.051c0.103-0.02,0.147-0.339,0.25-0.361
		c0.108-0.02,0.228,0.034,0.33,0.014c0.103-0.023,0.228,0.057,0.33,0.037c0.108-0.023,0.21-0.068,0.313-0.091
		c0.108-0.025,0.199-0.105,0.302-0.128c0.103-0.02,0.228,0.051,0.33,0.031c0.108-0.023,0.239,0.097,0.347,0.074
		c0.103-0.02,0.183-0.168,0.291-0.188c0.103-0.023,0.25,0.142,0.353,0.123c0.103-0.023,0.147-0.311,0.25-0.333
		c0.108-0.02,0.211-0.037,0.319-0.057c0.102-0.022,0.262,0.205,0.363,0.182c0.108-0.02,0.205-0.083,0.308-0.108
		c0.103-0.026,0.125-0.327,0.228-0.356c0.103-0.028,0.239,0.077,0.342,0.043s0.17-0.142,0.262-0.185
		c0.103-0.042,0.182-0.1,0.284-0.148c0.091-0.045,0.137-0.17,0.228-0.222c0.091-0.048,0.193-0.071,0.273-0.125
		c0.091-0.06,0.33,0.108,0.421,0.043c0.079-0.063,0.137-0.174,0.216-0.239c0.08-0.071,0.137-0.17,0.205-0.248
		c0.074-0.077,0.159-0.147,0.228-0.23c0.063-0.08,0.114-0.188,0.165-0.276c0.052-0.088,0.143-0.165,0.199-0.256
		c0.046-0.094-0.08-0.268-0.034-0.364c0.04-0.097,0.137-0.165,0.171-0.265c0.034-0.097,0.182-0.167,0.216-0.267
		c0.023-0.105-0.159-0.239-0.159-0.353c0-0.108,0.239-0.233,0.217-0.347c-0.012-0.108-0.086-0.213-0.103-0.324
		c-0.018-0.108-0.058-0.208-0.068-0.318c-0.012-0.108-0.262-0.228-0.251-0.339c0.006-0.114,0.114-0.205,0.114-0.304
		c0-0.114,0.193-0.23,0.182-0.333c-0.011-0.111-0.125-0.208-0.153-0.304c-0.028-0.108,0.028-0.262-0.017-0.353
		c-0.046-0.097-0.103-0.239-0.183-0.313c-0.068-0.077-0.342,0.12-0.443,0.065c-0.092-0.045-0.131-0.153-0.239-0.185
		c-0.097-0.023-0.177-0.137-0.29-0.151c-0.103-0.012-0.205,0.134-0.324,0.134c-0.103,0-0.217-0.196-0.319-0.196
		s-0.204,0.19-0.318,0.193c-0.103,0-0.216-0.051-0.318-0.051s-0.217-0.168-0.318-0.162c-0.108,0-0.211,0.117-0.319,0.117
		c-0.107,0-0.216-0.1-0.324-0.1c-0.108,0.003-0.21,0.034-0.318,0.034s-0.211,0.128-0.318,0.128c-0.108,0-0.211-0.1-0.325-0.097
		c-0.102,0.005-0.216-0.048-0.318-0.045c-0.108,0.005-0.205,0.31-0.313,0.31c-0.108,0.005-0.222-0.407-0.336-0.401
		c-0.103,0.003-0.205,0.151-0.313,0.154C35.92,4.038,35.823,4.197,35.715,4.2c-0.103,0.005-0.228-0.265-0.33-0.259
		c-0.108,0.003-0.205,0.276-0.307,0.282c-0.103,0.003-0.217-0.131-0.33-0.128c-0.103,0.006-0.217-0.105-0.325-0.1
		c-0.107,0.006-0.21,0.063-0.318,0.068c-0.108,0.003-0.205,0.117-0.313,0.12c-0.103,0.005-0.217-0.034-0.324-0.023
		c-0.108,0.003-0.199,0.222-0.308,0.228c-0.103,0.009-0.222-0.182-0.33-0.173c-0.108,0.008-0.199,0.182-0.313,0.188
		c-0.103,0.003-0.211,0.011-0.319,0.02c-0.103,0.008-0.204,0.097-0.307,0.105c-0.114,0.008-0.239-0.225-0.342-0.213
		c-0.113,0.011-0.239-0.14-0.353-0.123c-0.103,0.017-0.183,0.236-0.284,0.256c-0.103,0.017-0.183,0.188-0.291,0.211
		c-0.107,0.02-0.222,0.002-0.324,0.025c-0.103,0.02-0.216,0.02-0.318,0.04c-0.103,0.025-0.216-0.009-0.324,0.017
		c-0.108,0.025-0.193,0.122-0.302,0.142c-0.103,0.022-0.25-0.151-0.353-0.128c-0.108,0.02-0.159,0.313-0.268,0.333
		c-0.108,0.023-0.268-0.276-0.37-0.259c-0.107,0.017-0.204,0.06-0.318,0.071c-0.103,0.011-0.205-0.026-0.313-0.017
		c-0.108,0.008-0.188,0.318-0.29,0.327c-0.103,0.008-0.222-0.208-0.33-0.205c-0.103,0.003-0.193,0.202-0.302,0.205
		c-0.108,0.006-0.21-0.233-0.318-0.233c-0.108,0-0.21-0.031-0.313-0.031c-0.103,0.006-0.205,0.103-0.313,0.105
		c-0.103,0.005-0.199,0.23-0.302,0.236c-0.102,0.003-0.228-0.27-0.33-0.262c-0.103,0.009-0.177,0.341-0.285,0.353
		c-0.103,0.011-0.239-0.282-0.341-0.265c-0.114,0.017-0.188,0.253-0.296,0.27c-0.108,0.014-0.262-0.256-0.37-0.239
		c-0.108,0.017-0.165,0.393-0.267,0.41c-0.114,0.017-0.256-0.196-0.364-0.182c-0.108,0.017-0.216,0.06-0.319,0.077
		c-0.114,0.017-0.193,0.179-0.307,0.196c-0.108,0.017-0.25-0.17-0.358-0.15c-0.108,0.017-0.171,0.301-0.279,0.318
		s-0.233-0.074-0.341-0.054c-0.108,0.02-0.216,0.051-0.319,0.071c-0.114,0.02-0.25-0.105-0.353-0.083
		c-0.114,0.02-0.205,0.12-0.308,0.142c-0.114,0.02-0.193,0.154-0.295,0.177c-0.108,0.02-0.256-0.128-0.359-0.105
		c-0.108,0.02-0.21,0.057-0.318,0.083c-0.108,0.025-0.21,0.071-0.313,0.094c-0.114,0.023-0.21,0.065-0.319,0.091
		c-0.102,0.025-0.193,0.139-0.296,0.162c-0.102,0.025-0.193,0.105-0.307,0.137c-0.103,0.022-0.205,0.071-0.313,0.099
		c-0.108,0.026-0.256-0.114-0.358-0.083c-0.103,0.029-0.216,0.054-0.318,0.083c-0.103,0.029-0.199,0.105-0.308,0.134
		c-0.102,0.029-0.239-0.045-0.341-0.017c-0.108,0.029-0.17,0.194-0.285,0.222c-0.102,0.028-0.239-0.04-0.341-0.011
		c-0.102,0.028-0.267-0.134-0.375-0.105c-0.103,0.028-0.182,0.142-0.29,0.171c-0.108,0.031-0.188,0.147-0.29,0.176
		c-0.103,0.031-0.182,0.142-0.296,0.173c-0.103,0.028-0.273-0.156-0.375-0.122c-0.108,0.034-0.103,0.427-0.205,0.455
		c-0.108,0.034-0.33-0.316-0.432-0.285c-0.108,0.034-0.103,0.43-0.205,0.458c-0.103,0.034-0.273-0.148-0.381-0.114
		c-0.102,0.034-0.153,0.256-0.256,0.29c-0.103,0.032-0.25-0.077-0.353-0.042c-0.102,0.034-0.182,0.154-0.284,0.188
		c-0.108,0.034-0.268-0.1-0.37-0.065c-0.108,0.031-0.165,0.19-0.273,0.225s-0.285-0.142-0.381-0.105
		c-0.097,0.043-0.045,0.39-0.136,0.438c-0.091,0.048-0.239-0.006-0.319,0.054c-0.085,0.063-0.25,0.031-0.324,0.105
		c-0.074,0.074,0.074,0.313,0.011,0.401c-0.057,0.088-0.159,0.117-0.199,0.213c-0.034,0.091,0.012,0.194-0.011,0.293
		c-0.023,0.097-0.216,0.167-0.228,0.273c0,0.1,0.17,0.196,0.176,0.301c0.006,0.1-0.188,0.222-0.165,0.328
		c0.011,0.099,0.085,0.193,0.108,0.295c0.022,0.103-0.125,0.256-0.091,0.359c0.028,0.1,0.33,0.102,0.37,0.199
		c0.045,0.097-0.194,0.327-0.137,0.421c0.045,0.091,0.455-0.026,0.512,0.063c0.057,0.085-0.023,0.253,0.045,0.333
		c0.057,0.08-0.011,0.287,0.068,0.361c0.068,0.074,0.318-0.037,0.398,0.028c0.08,0.068,0.017,0.327,0.103,0.387
		c0.08,0.057,0.228,0.037,0.319,0.091c0.091,0.051,0.182,0.102,0.284,0.142c0.091,0.042,0.148,0.219,0.25,0.253
		c0.097,0.031,0.228,0.002,0.33,0.028c0.103,0.025,0.228-0.037,0.33-0.026c0.103,0.017,0.21,0,0.318,0.006
		c0.103,0.006,0.216-0.051,0.319-0.042c0.097,0.008,0.205-0.037,0.307-0.031c0.108,0.011,0.216-0.003,0.319,0.005
		c0.102,0.009,0.205,0,0.313,0.006c0.108,0.003,0.199,0.137,0.301,0.145s0.21-0.011,0.319-0.008c0.103,0.008,0.21-0.088,0.313-0.083
		c0.108,0.008,0.21,0.054,0.313,0.057C16.107,13.654,16.21,13.844,16.313,13.855z"/>
	<path d="M16.722,8.092c0.103-0.02,0.137,0.057,0.245,0.034c0.108-0.02,0.199-0.097,0.307-0.12c0.108-0.022,0.268,0.208,0.37,0.188
		c0.108-0.023,0.199-0.12,0.307-0.14c0.103-0.02,0.216,0,0.324-0.02c0.108-0.023,0.154-0.311,0.256-0.336
		c0.103-0.025,0.25,0.151,0.353,0.125c0.108-0.025,0.239,0.08,0.347,0.054c0.103-0.02,0.176-0.205,0.279-0.23
		c0.103-0.02,0.165-0.273,0.267-0.293c0.108-0.02,0.222,0.014,0.325-0.008c0.108-0.02,0.205-0.105,0.307-0.125
		c0.108-0.02,0.268,0.228,0.375,0.205c0.103-0.02,0.222,0.017,0.33-0.003c0.103-0.023,0.182-0.148,0.296-0.168
		c0.103-0.023,0.193-0.117,0.296-0.134c0.108-0.017,0.222-0.014,0.33-0.034c0.102-0.02,0.25,0.168,0.353,0.145
		c0.103-0.02,0.193-0.136,0.302-0.159c0.108-0.02,0.17-0.27,0.279-0.287c0.114-0.017,0.273,0.318,0.387,0.301
		c0.103-0.017,0.21-0.045,0.319-0.063c0.102-0.017,0.17-0.27,0.273-0.285c0.108-0.017,0.193-0.167,0.302-0.185
		c0.108-0.017,0.25,0.199,0.358,0.185c0.114-0.017,0.199-0.133,0.307-0.15s0.193-0.148,0.302-0.165
		c0.108-0.017,0.233,0.063,0.335,0.045s0.25,0.185,0.353,0.168c0.114-0.014,0.199-0.137,0.307-0.154
		c0.114-0.017,0.239,0.088,0.341,0.071c0.108-0.017,0.159-0.37,0.268-0.387c0.108-0.017,0.245,0.143,0.347,0.125
		c0.114-0.014,0.205-0.103,0.307-0.12c0.114-0.017,0.239,0.091,0.341,0.074c0.108-0.017,0.216-0.02,0.324-0.037s0.222,0.017,0.33,0
		s0.222,0.005,0.324-0.017c0.114-0.017,0.193-0.176,0.308-0.191c0.107-0.017,0.193-0.156,0.307-0.173
		c0.103-0.017,0.217-0.028,0.324-0.051c0.108-0.014,0.251,0.202,0.359,0.185c0.113-0.017,0.159-0.401,0.262-0.418
		c0.113-0.017,0.232,0.063,0.341,0.046c0.114-0.017,0.205-0.123,0.313-0.14c0.107-0.014,0.222,0.017,0.33,0
		c0.107-0.014,0.222,0.031,0.335,0.014c0.108-0.017,0.251,0.185,0.354,0.168c0.113-0.017,0.228,0.003,0.329-0.011
		c0.114-0.017,0.171-0.396,0.273-0.413c0.103-0.011,0.262,0.008,0.364,0.031c0.091,0.02,0.171,0.068,0.268,0.083
		c0.113,0.011,0.171,0.384,0.296,0.416c0.119,0.028,0.29-0.103,0.398-0.088c0.142,0.017,0.233-0.077,0.313-0.139
		c0.091-0.063,0.217-0.071,0.308-0.123c0.097-0.048,0.137-0.262,0.239-0.296c0.097-0.034,0.256,0.074,0.353,0.057
		c0.107-0.015,0.228,0.216,0.335,0.208c0.108-0.006,0.211-0.404,0.325-0.396c0.102,0.008,0.176,0.361,0.284,0.373
		c0.103,0.014,0.216-0.088,0.324-0.065c0.108,0.02,0.245-0.148,0.347-0.125c0.103,0.02,0.199,0.097,0.296,0.111
		c0.108,0.023,0.165,0.344,0.268,0.355c0.108,0.015,0.233-0.08,0.336-0.074c0.103,0.008,0.216-0.042,0.318-0.045
		c0.108-0.006,0.228,0.034,0.33,0.017c0.108-0.017,0.193-0.034,0.296-0.034c0.103-0.006,0.177,0.068,0.273,0.08
		c0.103,0.017,0.21-0.063,0.302-0.026c0.097,0.037,0.313-0.097,0.393-0.034c0.079,0.06,0.159,0.185,0.216,0.27
		c0.063,0.074,0.171,0.171,0.217,0.268c0.045,0.088-0.296,0.318-0.263,0.418c0.034,0.123,0.364,0.179,0.359,0.282
		c0,0.12-0.165,0.216-0.205,0.319c-0.04,0.102-0.068,0.216-0.143,0.304c-0.068,0.085-0.25,0.042-0.341,0.114
		c-0.08,0.071,0,0.367-0.092,0.436c-0.091,0.063-0.307-0.046-0.397,0.011c-0.092,0.06-0.074,0.29-0.171,0.341
		c-0.092,0.054-0.308-0.125-0.398-0.08c-0.103,0.045-0.08,0.335-0.183,0.375c-0.102,0.042-0.228,0.031-0.324,0.068
		s-0.268-0.114-0.364-0.08c-0.102,0.034-0.147,0.264-0.244,0.293c-0.108,0.028-0.25-0.1-0.353-0.077
		c-0.103,0.026-0.211,0.012-0.319,0.032c-0.103,0.02-0.193,0.125-0.296,0.145c-0.102,0.017-0.21,0.034-0.313,0.048
		c-0.108,0.014-0.222-0.048-0.324-0.031c-0.108,0.014-0.205,0.077-0.313,0.088c-0.107,0.014-0.188,0.248-0.29,0.259
		c-0.103,0.015-0.25-0.25-0.353-0.236C34.6,9.073,34.503,9.179,34.395,9.19c-0.103,0.017-0.238-0.145-0.341-0.128
		c-0.108,0.014-0.183,0.296-0.285,0.313c-0.113,0.02-0.238-0.071-0.353-0.051c-0.113,0.023-0.228,0.017-0.341,0.04
		c-0.103,0.02-0.211,0.08-0.319,0.1c-0.113,0.02-0.216,0.051-0.33,0.071c-0.107,0.02-0.238-0.077-0.353-0.054
		c-0.103,0.02-0.171,0.319-0.278,0.336c-0.108,0.02-0.245-0.094-0.348-0.077c-0.113,0.017-0.216,0.094-0.33,0.105
		c-0.113,0.011-0.228-0.011-0.341-0.005c-0.108,0.014-0.205,0.156-0.319,0.159c-0.107,0.005-0.228-0.125-0.329-0.125
		c-0.114,0-0.223-0.048-0.33-0.054c-0.108-0.003-0.217-0.034-0.325-0.037c-0.107-0.006-0.21-0.148-0.324-0.151
		c-0.102-0.006-0.216-0.025-0.324-0.028c-0.107,0-0.222,0.108-0.33,0.111c-0.107,0-0.21,0.185-0.318,0.193
		c-0.108,0.009-0.21-0.017-0.324-0.002c-0.108,0.011-0.239-0.194-0.353-0.177c-0.102,0.017-0.165,0.322-0.273,0.339
		c-0.103,0.017-0.228-0.074-0.33-0.054c-0.108,0.02-0.21,0.051-0.318,0.071c-0.103,0.02-0.228-0.034-0.33-0.012
		c-0.103,0.02-0.193,0.134-0.296,0.16c-0.103,0.022-0.262-0.177-0.364-0.157s-0.148,0.33-0.256,0.353
		c-0.108,0.02-0.239-0.08-0.347-0.06c-0.103,0.023-0.205,0.068-0.307,0.088c-0.103,0.02-0.233-0.097-0.342-0.08
		c-0.108,0.02-0.216-0.02-0.33-0.003c-0.103,0.017-0.188,0.108-0.296,0.12c-0.103,0.014-0.205-0.012-0.308-0.003
		c-0.102,0.008-0.193,0.205-0.296,0.213c-0.102,0.008-0.216-0.157-0.324-0.148c-0.103,0.005-0.188,0.324-0.29,0.333
		c-0.108,0.009-0.228-0.264-0.33-0.256c-0.108,0.009-0.216,0.02-0.319,0.034c-0.102,0.008-0.193,0.142-0.296,0.154
		c-0.114,0.017-0.245-0.097-0.353-0.08c-0.114,0.017-0.188,0.256-0.302,0.276c-0.114,0.022-0.233-0.029-0.347-0.009
		c-0.103,0.023-0.222,0.026-0.33,0.051c-0.114,0.02-0.21,0.105-0.319,0.131c-0.114,0.02-0.216,0.054-0.33,0.074
		c-0.114,0.022-0.216,0.085-0.33,0.105c-0.108,0.023-0.25-0.125-0.364-0.108c-0.097,0.017-0.177,0.188-0.273,0.196
		c-0.091,0.008-0.205-0.171-0.301-0.176c-0.108-0.003-0.216,0-0.325-0.003c-0.114-0.006-0.228,0.159-0.335,0.153
		c-0.108-0.003-0.222,0.017-0.324,0.014c-0.114-0.005-0.205-0.225-0.319-0.228c-0.108-0.002-0.222,0.051-0.33,0.046
		c-0.108-0.003-0.216-0.071-0.318-0.08c-0.114-0.002-0.222-0.02-0.33-0.028c-0.108-0.003-0.228,0.125-0.336,0.123
		c-0.108-0.006-0.222,0.057-0.33,0.054c-0.108-0.008-0.199-0.301-0.313-0.31c-0.108-0.008-0.216,0.088-0.33,0.08
		c-0.108-0.008-0.228,0.125-0.33,0.117c-0.114-0.008-0.21-0.15-0.319-0.159c-0.108-0.008-0.222,0.063-0.33,0.051
		c-0.102-0.009-0.193-0.165-0.29-0.176c-0.097-0.014-0.21,0.025-0.313,0.008c-0.097-0.017-0.205,0.017-0.307,0
		c-0.103-0.022-0.171-0.176-0.273-0.196c-0.103-0.022-0.25,0.162-0.353,0.137c-0.103-0.026-0.21-0.012-0.313-0.045
		c-0.097-0.029-0.097-0.33-0.199-0.367c-0.102-0.042-0.239,0.023-0.318-0.094c-0.068-0.097-0.193-0.171-0.256-0.285
		c-0.063-0.114,0.034-0.239-0.034-0.335c0.085-0.051,0.091-0.074,0.176-0.134c0.091-0.06,0.045-0.313,0.131-0.37
		c0.085-0.054,0.222-0.054,0.313-0.097c0.091-0.045,0.239,0.051,0.341,0.031c0.114-0.025,0.205-0.142,0.318-0.165
		c0.108-0.02,0.216-0.054,0.33-0.074s0.239,0.071,0.353,0.048c0.114-0.02,0.216-0.045,0.33-0.063s0.228-0.012,0.341-0.029
		s0.216-0.074,0.324-0.097c0.114-0.017,0.25,0.12,0.358,0.097c0.114-0.02,0.228-0.002,0.341-0.025
		c0.114-0.02,0.16-0.401,0.268-0.424c0.108-0.02,0.285,0.248,0.393,0.228c0.114-0.025,0.228-0.105,0.336-0.148
		c0.108-0.04,0.102-0.307,0.199-0.364c0.103-0.054,0.33,0.125,0.433,0.071c0.097-0.054,0.176-0.393,0.279-0.438
		C16.654,7.887,16.699,8.009,16.722,8.092z"/>
</g>
<g>
</g>
<g>
</g>
<g>
</g>
<g>
</g>
<g>
</g>
<g>
</g>
<g>
</g>
<g>
</g>
<g>
</g>
<g>
</g>
<g>
</g>
<g>
</g>
<g>
</g>
<g>
</g>
<g>
</g>
</svg>
