<?xml version="1.0" encoding="utf-8"?>
<!-- Generator: Adobe Illustrator 16.0.0, SVG Export Plug-In . SVG Version: 6.00 Build 0)  -->
<!DOCTYPE svg PUBLIC "-//W3C//DTD SVG 1.1//EN" "http://www.w3.org/Graphics/SVG/1.1/DTD/svg11.dtd">
<svg version="1.1" id="圖層_1" xmlns="http://www.w3.org/2000/svg" xmlns:xlink="http://www.w3.org/1999/xlink" x="0px" y="0px"
	 width="55px" height="55px" viewBox="0 0 55 55" enable-background="new 0 0 55 55" xml:space="preserve">
<g>
	<path fill="#937047" d="M6.832,35.094c0.242-0.545,0.524-1.09,0.72-1.671c0.206-0.571,0.185-1.244,0.483-1.753
		c0.617-1.069,1.244-2.18,2.098-3.054c1.552-1.579,3.203-3.09,4.95-4.462c2.195-1.732,3.563-3.886,4.519-6.529
		c0.638-1.737,2.016-3.239,3.208-4.729c0.647-0.797,1.563-1.434,2.468-1.954c0.529-0.308,1.274-0.241,1.923-0.344
		c0.205-0.031,0.447,0.016,0.611-0.077c1.825-0.987,3.346-0.206,4.827,0.813c0.031,0.021,0.052,0.082,0.082,0.092
		c2.241,0.483,3.866,2.426,5.953,2.874c2.365,0.499,4.236,1.743,6.303,2.709c4.41,2.077,4.4,7.053,2.189,10.219
		c-1.933,2.776-4.185,5.151-6.59,7.485c-1.255,1.208-2.139,2.838-3.033,4.369c-0.854,1.481-1.306,3.219-2.277,4.597
		c-1.013,1.439-2.272,2.827-3.722,3.793c-1.568,1.049-3.449,1.62-5.233,2.324c-1.907,0.761-3.583,0.313-5.084-1.09
		c-0.514-0.483-1.233-0.73-1.81-1.151c-0.581-0.411-1.182-0.833-1.634-1.378c-1.409-1.691-2.869-3.26-5.038-4.051
		c-0.833-0.309-1.594-0.977-2.221-1.635c-1.1-1.172-2.118-2.437-3.095-3.717C7.13,36.357,7.058,35.757,6.832,35.094z"/>
	<path fill="#FFFFFF" d="M42.235,5.514c0.838-0.303,1.332-0.463,1.805-0.668c0.457-0.211,0.874-0.627,1.342-0.679
		c0.575-0.062,1.244,0.046,1.742,0.319c0.236,0.128,0.36,0.956,0.186,1.224c-0.345,0.514-0.885,1.023-1.45,1.244
		c-1.419,0.545-2.909,0.792-3.485,2.591c-0.359,1.11-1.146,2.097-1.81,3.084c-0.493,0.72-2.308,0.602-3.259-0.175
		c-0.833-0.689-0.062-1.229,0.247-1.753c0.637-1.11,1.352-2.175,2.046-3.254c0.503-0.792,0.482-1.511,0.092-2.406
		c-0.267-0.637-0.267-1.614,0.031-2.231c0.401-0.833,1.337-1.285,2.298-0.817c0.951,0.468,0.931,1.336,0.591,2.226
		C42.492,4.485,42.436,4.773,42.235,5.514z"/>
	<path fill="#FFFFFF" d="M8.59,47.123c0.041,0,0.093-0.016,0.128,0c2.051,0.966,2.822-0.622,3.82-1.856
		c0.421-0.514,1.383-1.311,1.501-1.218c0.899,0.688,1.974,1.46,2.303,2.437c0.185,0.565-0.771,1.763-1.496,2.303
		c-0.879,0.663-1.023,1.142-0.602,2.118c0.175,0.411-0.046,1.342-0.37,1.532c-0.596,0.339-1.434,0.473-2.128,0.359
		c-0.339-0.041-0.822-0.822-0.802-1.254c0.051-1.301-0.262-1.445-1.357-0.803c-0.504,0.299-1.27,0.401-1.841,0.268
		c-0.946-0.226-1.737-0.802-1.547-2.005C6.379,47.843,7.331,47.107,8.59,47.123z"/>
	<g>
		<path fill="#B59152" d="M18.933,46.763c-1.285-1.789-2.622-3.454-4.725-4.411c-0.807-0.364-1.516-1.09-2.092-1.799
			c-1.023-1.244-1.943-2.575-2.817-3.928c-0.278-0.432-0.298-1.038-0.483-1.717c0.278-0.524,0.607-1.049,0.843-1.619
			c0.236-0.561,0.277-1.229,0.606-1.712c0.689-1.018,1.398-2.087,2.313-2.89c1.666-1.46,3.424-2.848,5.264-4.092
			c2.324-1.573,3.835-3.619,4.986-6.179c0.761-1.691,2.241-3.09,3.547-4.483c0.699-0.75,1.666-1.321,2.601-1.769
			c0.556-0.267,1.29-0.154,1.943-0.2c0.205-0.016,0.442,0.046,0.616-0.031c0.679-0.303,1.307-0.385,1.902-0.313
			c-0.236-0.082-0.473-0.154-0.709-0.206c-0.031-0.01-0.057-0.072-0.088-0.092c-1.48-1.018-3.002-1.789-4.827-0.813
			c-0.164,0.093-0.406,0.046-0.606,0.077c-0.652,0.098-1.398,0.036-1.928,0.344c-0.91,0.52-1.825,1.152-2.468,1.954
			c-1.197,1.491-2.575,2.992-3.202,4.729c-0.967,2.643-2.324,4.796-4.524,6.529c-1.743,1.373-3.393,2.884-4.956,4.462
			c-0.854,0.874-1.481,1.984-2.098,3.054c-0.288,0.504-0.278,1.183-0.473,1.753c-0.2,0.581-0.488,1.131-0.725,1.671
			c0.231,0.663,0.293,1.265,0.606,1.676c0.972,1.28,1.99,2.55,3.09,3.717c0.627,0.663,1.393,1.331,2.221,1.635
			c2.169,0.792,3.629,2.359,5.038,4.056c0.452,0.54,1.059,0.962,1.635,1.378c0.216,0.159,0.462,0.288,0.699,0.422
			C19.688,47.605,19.262,47.221,18.933,46.763z"/>
		<path fill="#B59152" d="M42.102,16.494c2.139,0.617,3.81,1.83,5.619,2.889c-0.591-0.951-1.48-1.789-2.74-2.385
			c-2.062-0.967-3.933-2.21-6.297-2.714c-0.104-0.021-0.195-0.041-0.288-0.072C39.629,15.06,40.739,16.098,42.102,16.494z"/>
	</g>
	<g>
		<g>
			<path d="M35.568,11.354c0.087-0.093,0.303-0.16,0.4-0.257c0.093-0.092,0.139-0.241,0.227-0.329
				c0.093-0.103-0.072-0.432,0.01-0.53c0.093-0.098,0.288-0.098,0.36-0.211c0.077-0.113,0.246-0.174,0.318-0.298
				s-0.123-0.391-0.051-0.514c0.066-0.124,0.123-0.252,0.189-0.375c0.067-0.123,0.19-0.226,0.257-0.349
				c0.067-0.124,0.304-0.16,0.371-0.278c0.056-0.103,0.035-0.293,0.112-0.38c0.077-0.098,0.227-0.128,0.293-0.226
				c0.077-0.103,0.083-0.201,0.124-0.314c0.041-0.123,0.35-0.169,0.4-0.308c0.052-0.134,0.149-0.268,0.19-0.401
				c0.046-0.144-0.077-0.345-0.066-0.473c0.01-0.159,0.01-0.329-0.047-0.442c-0.066-0.134-0.323-0.18-0.364-0.314
				c-0.057-0.133,0.195-0.365,0.164-0.499c-0.031-0.139-0.011-0.267-0.021-0.406c-0.021-0.149-0.195-0.262-0.195-0.406
				c0-0.144-0.103-0.293-0.082-0.437c0.021-0.139,0.309-0.227,0.339-0.36c0.036-0.139-0.309-0.412-0.257-0.54
				s0.339-0.165,0.406-0.288c0.066-0.124,0.334-0.103,0.416-0.216c0.088-0.113-0.123-0.483-0.021-0.586
				c0.103-0.098,0.195-0.247,0.313-0.329c0.108-0.093,0.479,0.2,0.602,0.133c0.123-0.072,0.067-0.504,0.195-0.56
				c0.134-0.057,0.257-0.134,0.381-0.18c0.134-0.057,0.359,0.17,0.483,0.134c0.144-0.031,0.251-0.144,0.375-0.165
				c0.148-0.016,0.262,0.154,0.396,0.165c0.134,0.021,0.231,0,0.36,0.051c0.118,0.051,0.257,0.051,0.364,0.128
				c0.104,0.077,0.376-0.025,0.483,0.077c0.093,0.083-0.057,0.417,0.036,0.524c0.088,0.093,0.175,0.195,0.257,0.309
				c0.088,0.103,0.134,0.247,0.222,0.339c0.092,0.098,0.21,0.185,0.303,0.272c0.103,0.092,0.37-0.036,0.483,0.036
				c0.103,0.077,0.195,0.154,0.313,0.211c0.118,0.062,0.154,0.313,0.283,0.355c0.118,0.041,0.313-0.175,0.447-0.154
				c0.123,0.021,0.231,0.072,0.375,0.082c0.123,0.01,0.257,0.324,0.391,0.324c0.129-0.005,0.241-0.056,0.391-0.025
				c0.134,0.021,0.309-0.128,0.442-0.087c0.139,0.046,0.309,0.015,0.437,0.077c0.139,0.057,0.329,0.036,0.447,0.103
				c0.129,0.083,0.145,0.329,0.236,0.422c0.113,0.108,0.041,0.298,0.093,0.411c0.052,0.134,0.381,0.211,0.391,0.37
				c0,0.144,0.036,0.329,0.011,0.483c-0.021,0.144-0.453,0.206-0.494,0.354c-0.03,0.144,0.304,0.406,0.247,0.55
				c-0.052,0.133-0.401,0.164-0.457,0.298c-0.057,0.139-0.231,0.216-0.294,0.35c-0.056,0.103,0.063,0.298-0.021,0.401
				c-0.082,0.093-0.112,0.242-0.216,0.329c-0.098,0.087-0.205,0.175-0.313,0.247c-0.107,0.072-0.164,0.268-0.277,0.324
				c-0.123,0.057-0.334-0.124-0.458-0.098c-0.133,0.031-0.185,0.334-0.308,0.37c-0.134,0.041-0.299-0.062-0.422-0.016
				c-0.123,0.057-0.144,0.272-0.268,0.339c-0.113,0.067-0.329-0.046-0.437,0.026c-0.113,0.072-0.396-0.052-0.494,0.031
				c-0.103,0.087-0.236,0.18-0.329,0.267c-0.098,0.098-0.18,0.226-0.267,0.329c-0.088,0.103-0.201,0.195-0.283,0.309
				c-0.082,0.103-0.113,0.257-0.185,0.37c-0.082,0.113,0.051,0.36-0.021,0.483c-0.072,0.108-0.026,0.293-0.093,0.401
				c-0.072,0.113-0.093,0.257-0.159,0.38c-0.067,0.113-0.54-0.01-0.612,0.103c-0.071,0.124,0.108,0.38,0.041,0.494
				c-0.071,0.113-0.185,0.195-0.246,0.309c-0.067,0.113-0.113,0.236-0.175,0.35c-0.062,0.113,0.051,0.329-0.011,0.442
				c-0.062,0.108-0.545-0.021-0.611,0.093c-0.067,0.108-0.139,0.216-0.201,0.329c-0.066,0.113,0.104,0.329,0.042,0.447
				c0.128,0.072,0.272,0.046,0.4,0.113c0.129,0.067,0.211,0.221,0.334,0.293c0.129,0.067,0.268,0.113,0.391,0.18
				c0.129,0.066,0.201,0.231,0.324,0.303c0.134,0.067,0.277,0.092,0.406,0.165c0.129,0.066,0.365-0.072,0.488,0
				c0.123,0.066,0.031,0.529,0.159,0.596c0.124,0.072,0.381-0.093,0.504-0.026c0.123,0.072,0.18,0.262,0.304,0.329
				c0.123,0.067,0.267,0.113,0.391,0.18c0.113,0.072,0.272,0.077,0.391,0.144c0.113,0.072,0.339-0.021,0.452,0.052
				c0.123,0.072,0.227,0.159,0.345,0.236c0.113,0.072,0.098,0.35,0.211,0.427c0.112,0.077,0.226,0.149,0.339,0.226
				s0.123,0.293,0.227,0.375c0.107,0.087,0.205,0.164,0.313,0.251c0.107,0.087,0.313,0.046,0.416,0.134
				c0.103,0.093,0.391-0.005,0.488,0.093s0.129,0.267,0.222,0.37c0.092,0.098-0.021,0.375,0.062,0.483s0.277,0.129,0.35,0.242
				c0.077,0.113,0.35,0.113,0.421,0.236c0.067,0.113,0.077,0.278,0.145,0.401c0.057,0.118-0.257,0.416-0.201,0.545
				c0.057,0.123,0.447,0.113,0.489,0.247c0.051,0.134,0.041,0.298,0.082,0.432c0.046,0.134,0.164,0.257,0.195,0.396
				c0.03,0.139,0.03,0.293,0.051,0.432c0.021,0.139,0.083,0.293,0.093,0.427c0.011,0.149-0.35,0.309-0.35,0.447
				c0.011,0.149,0.442,0.293,0.438,0.437c-0.006,0.139-0.041,0.293-0.057,0.432c-0.021,0.144-0.103,0.288-0.134,0.422
				C49.9,23.897,49.705,24,49.674,24.144c-0.03,0.139-0.185,0.236-0.221,0.375c-0.036,0.133-0.17,0.231-0.211,0.37
				c-0.041,0.133,0.186,0.354,0.129,0.488c-0.047,0.133-0.268,0.195-0.324,0.329c-0.052,0.133,0.186,0.391,0.123,0.524
				c-0.057,0.124-0.534,0.052-0.596,0.18c-0.062,0.124,0.113,0.37,0.046,0.499c-0.066,0.124-0.303,0.154-0.375,0.277
				c-0.072,0.124,0.144,0.401,0.077,0.524c-0.072,0.124-0.479,0.047-0.55,0.17c-0.067,0.118-0.052,0.288-0.124,0.406
				c-0.082,0.118-0.113,0.257-0.185,0.375c-0.072,0.118,0.015,0.35-0.062,0.458c-0.077,0.112-0.113,0.267-0.19,0.38
				c-0.082,0.113-0.313,0.113-0.396,0.227c-0.087,0.113-0.123,0.257-0.205,0.359c-0.082,0.113-0.35,0.083-0.432,0.19
				c-0.088,0.108,0,0.36-0.093,0.468c-0.093,0.103-0.186,0.206-0.277,0.313c-0.088,0.108-0.309,0.098-0.401,0.2
				c-0.093,0.104,0.093,0.453,0,0.556s-0.236,0.175-0.324,0.277c-0.098,0.104-0.139,0.257-0.236,0.35
				c-0.098,0.104-0.257,0.145-0.354,0.242c-0.093,0.098-0.277,0.118-0.375,0.216s-0.324,0.066-0.427,0.159
				c-0.093,0.098-0.103,0.288-0.2,0.391c-0.098,0.093-0.36,0.021-0.458,0.123c-0.103,0.093-0.113,0.278-0.216,0.37
				c-0.103,0.098-0.154,0.247-0.257,0.335c-0.104,0.098-0.165,0.236-0.268,0.323c-0.103,0.103-0.154,0.247-0.257,0.34
				c-0.103,0.098-0.236,0.154-0.34,0.246c-0.098,0.098-0.144,0.257-0.246,0.35c-0.098,0.098-0.195,0.186-0.288,0.288
				c-0.103,0.093-0.227,0.164-0.318,0.257c-0.098,0.104-0.108,0.277-0.201,0.381c-0.087,0.103-0.457-0.031-0.54,0.077
				c-0.087,0.107-0.062,0.303-0.144,0.416c-0.087,0.113-0.345,0.103-0.422,0.216c-0.082,0.113-0.015,0.329-0.092,0.447
				c-0.072,0.118-0.113,0.252-0.186,0.375c-0.072,0.119-0.128,0.247-0.185,0.37c-0.067,0.124,0.062,0.329,0,0.453
				c-0.057,0.123-0.083,0.257-0.134,0.38c-0.057,0.134-0.19,0.216-0.236,0.35c-0.052,0.134-0.355,0.175-0.401,0.309
				c-0.041,0.129,0.134,0.329,0.093,0.463c-0.036,0.134-0.272,0.216-0.309,0.35c-0.031,0.144-0.093,0.257-0.134,0.391
				c-0.046,0.134-0.03,0.277-0.093,0.416c-0.051,0.129-0.082,0.268-0.144,0.396c-0.066,0.128-0.227,0.195-0.298,0.318
				c-0.067,0.123-0.093,0.268-0.175,0.391c-0.072,0.123-0.129,0.247-0.211,0.37c-0.077,0.113-0.149,0.236-0.231,0.35
				c-0.093,0.123,0.134,0.458,0.041,0.57c-0.087,0.113-0.545-0.057-0.638,0.057c-0.087,0.113-0.103,0.278-0.195,0.381
				c-0.092,0.113-0.154,0.246-0.252,0.35c-0.092,0.103-0.252,0.144-0.344,0.241c-0.093,0.103,0.051,0.417-0.041,0.52
				c-0.098,0.093-0.093,0.293-0.186,0.391c-0.103,0.093-0.422-0.036-0.524,0.057c-0.093,0.098-0.093,0.303-0.185,0.391
				c-0.098,0.093-0.154,0.236-0.258,0.334c-0.098,0.093-0.38-0.021-0.482,0.072c-0.104,0.093-0.052,0.354-0.154,0.441
				c-0.093,0.083-0.134,0.258-0.237,0.35c-0.103,0.093-0.493-0.133-0.591-0.041c-0.103,0.088,0.036,0.447-0.066,0.535
				c-0.104,0.093-0.283,0.093-0.381,0.185c-0.103,0.093-0.227,0.165-0.329,0.258c-0.098,0.092-0.257,0.118-0.359,0.21
				c-0.104,0.098-0.288,0.088-0.391,0.17c-0.108,0.093-0.021,0.437-0.134,0.514c-0.113,0.083-0.401-0.103-0.524-0.03
				c-0.113,0.077-0.227,0.139-0.35,0.205c-0.123,0.072-0.062,0.474-0.186,0.535c-0.123,0.062-0.287,0.062-0.421,0.113
				c-0.124,0.051-0.313-0.041-0.442,0.01c-0.129,0.052-0.247,0.129-0.381,0.175c-0.133,0.041-0.195,0.319-0.328,0.36
				c-0.134,0.03-0.34-0.175-0.473-0.145c-0.134,0.031-0.303-0.071-0.441-0.046c-0.134,0.031-0.206,0.38-0.34,0.406
				c-0.134,0.03-0.288,0-0.427,0.021c-0.139,0.03-0.313-0.159-0.447-0.139c-0.134,0.025-0.272,0.057-0.406,0.082
				c-0.139,0.021-0.287-0.066-0.427-0.046c-0.144,0.021-0.216,0.452-0.354,0.473s-0.282,0.005-0.416,0.03
				c-0.124,0.021-0.298,0.011-0.432,0.011s-0.309,0.066-0.442,0.046c-0.123-0.021-0.2-0.359-0.329-0.396
				c-0.129-0.041-0.318,0.113-0.452,0.072c-0.124-0.052-0.129-0.406-0.252-0.463c-0.123-0.052-0.386,0.2-0.509,0.144
				c-0.123-0.062-0.251-0.118-0.37-0.175c-0.123-0.066-0.128-0.35-0.247-0.411c-0.124-0.062-0.195-0.205-0.309-0.272
				c-0.123-0.066-0.391,0.134-0.514,0.067c-0.113-0.072-0.082-0.401-0.2-0.474c-0.118-0.066-0.458,0.216-0.571,0.14
				c-0.123-0.077-0.041-0.453-0.154-0.53c-0.113-0.071-0.216-0.164-0.329-0.246c-0.113-0.077-0.401,0.087-0.514,0.01
				c-0.113-0.082-0.036-0.432-0.149-0.514c-0.108-0.077-0.401,0.093-0.514,0.01c-0.113-0.077-0.031-0.432-0.144-0.514
				c-0.113-0.077-0.437,0.144-0.55,0.062c-0.113-0.082-0.123-0.231-0.236-0.309c-0.093,0.103-0.144,0.195-0.236,0.293
				c-0.093,0.098-0.324,0.067-0.412,0.165c-0.103,0.103-0.092,0.293-0.185,0.396c-0.098,0.098-0.241,0.144-0.334,0.241
				c-0.087,0.104,0.005,0.376-0.077,0.474c-0.092,0.103-0.504-0.067-0.591,0.036c-0.087,0.098,0.077,0.4-0.005,0.514
				c-0.072,0.082-0.288,0.123-0.324,0.247c-0.031,0.112,0.092,0.257,0.087,0.38c-0.005,0.124-0.005,0.247,0.015,0.36
				c0.026,0.134,0.242,0.267,0.247,0.411c0.005,0.139-0.417,0.277-0.417,0.416c-0.01,0.139,0.247,0.313,0.226,0.447
				c-0.031,0.145-0.319,0.201-0.37,0.34c-0.046,0.134-0.057,0.257-0.124,0.38c-0.062,0.124-0.2,0.18-0.277,0.293
				c-0.093,0.108-0.139,0.211-0.237,0.309c-0.103,0.098-0.051,0.365-0.169,0.447s-0.252,0.134-0.386,0.195
				c-0.128,0.052-0.329-0.144-0.468-0.103c-0.133,0.046-0.169,0.473-0.298,0.493c-0.139,0.031-0.293,0.067-0.437,0.072
				c-0.139,0.005-0.288-0.195-0.421-0.206c-0.139-0.01-0.288,0.011-0.422-0.021c-0.134-0.03-0.2-0.252-0.324-0.303
				c-0.128-0.057-0.437,0.231-0.561,0.154c-0.113-0.067-0.216-0.231-0.318-0.324c-0.103-0.088,0.133-0.493,0.051-0.606
				c-0.093-0.103-0.165-0.17-0.236-0.293c-0.072-0.134-0.417-0.088-0.494-0.186c-0.103-0.123-0.185-0.2-0.288-0.272
				c-0.118-0.077-0.159-0.411-0.293-0.437c-0.128-0.026-0.324,0.021-0.473,0.036c-0.129,0.01-0.242,0.236-0.386,0.267
				c-0.154,0.041-0.298,0.104-0.432,0.113C7.994,52.284,7.85,52.15,7.711,52.14c-0.144-0.025-0.345,0.134-0.478,0.083
				c-0.139-0.052-0.144-0.381-0.268-0.453c-0.124-0.071-0.354,0.021-0.473-0.071c-0.113-0.088-0.247-0.165-0.35-0.278
				c-0.103-0.098-0.319-0.103-0.417-0.216c-0.098-0.107-0.139-0.277-0.231-0.386c-0.092-0.123-0.026-0.359-0.092-0.482
				c-0.077-0.134-0.046-0.293-0.093-0.427c-0.041-0.149-0.411-0.236-0.421-0.381c-0.01-0.144,0.421-0.282,0.442-0.432
				c0.021-0.144,0-0.263,0.046-0.411c0.046-0.134-0.098-0.345-0.026-0.483c0.062-0.134,0.365-0.108,0.453-0.231
				c0.092-0.128,0.067-0.334,0.159-0.463c0.087-0.128,0.118-0.298,0.201-0.427c0.092-0.133,0.401-0.118,0.483-0.246
				c0.083-0.129,0.134-0.216,0.216-0.313c0.103-0.108,0.113-0.222,0.231-0.288c0.124-0.067,0.139-0.468,0.283-0.488
				c0.134-0.021,0.329-0.052,0.479-0.036c0.128,0.01,0.231,0.324,0.38,0.365c0.139,0.041,0.303-0.072,0.447-0.057
				c0.144,0.025,0.272,0.236,0.416,0.236c0.149,0,0.283-0.159,0.427-0.18c0.134-0.021,0.324,0.112,0.458,0.066
				c0.139-0.041,0.262-0.149,0.396-0.211c0.134-0.057,0.334-0.01,0.458-0.092c0.118-0.077-0.026-0.524,0.092-0.612
				c0.108-0.087,0.262-0.103,0.365-0.205c0.103-0.099,0.226-0.154,0.329-0.268c0.087-0.108,0.216-0.18,0.303-0.304
				c0.077-0.107,0.242-0.175,0.324-0.298c0.072-0.118,0.098-0.272,0.165-0.401c0.067-0.123,0.247-0.298,0.313-0.432
				c-0.123-0.066-0.293-0.247-0.421-0.309c-0.124-0.062-0.406,0.186-0.529,0.124c-0.134-0.063-0.098-0.433-0.221-0.494
				c-0.124-0.071-0.396,0.113-0.509,0.031c-0.119-0.082-0.113-0.313-0.216-0.411c-0.098-0.093-0.391,0.015-0.488-0.083
				c-0.098-0.092-0.144-0.236-0.242-0.339c-0.092-0.093-0.062-0.318-0.154-0.411c-0.098-0.103-0.062-0.313-0.164-0.411
				c-0.093-0.098-0.422,0.03-0.514-0.062c-0.087-0.098,0.077-0.438-0.01-0.54c-0.093-0.098-0.422,0.016-0.514-0.088
				c-0.093-0.098-0.051-0.308-0.139-0.411c-0.087-0.103-0.37-0.041-0.458-0.144c-0.083-0.103-0.17-0.216-0.257-0.319
				c-0.082-0.103,0.134-0.437,0.051-0.545c-0.082-0.103-0.354-0.071-0.432-0.185c-0.082-0.103-0.124-0.247-0.206-0.354
				c-0.072-0.113-0.01-0.313-0.082-0.427c-0.072-0.113-0.396-0.067-0.463-0.18c-0.072-0.113-0.144-0.237-0.206-0.355
				c-0.072-0.118-0.124-0.246-0.185-0.364c-0.062-0.118,0.005-0.304-0.051-0.427c-0.062-0.134-0.278-0.206-0.324-0.334
				c-0.046-0.14,0.262-0.37,0.227-0.504c-0.031-0.145-0.55-0.201-0.571-0.345c-0.01-0.144,0.247-0.309,0.247-0.452
				c0-0.145,0.195-0.268,0.211-0.411c0.016-0.145,0.01-0.272,0.046-0.412c0.021-0.139-0.17-0.328-0.124-0.468
				c0.036-0.139,0.201-0.23,0.247-0.375c0.046-0.134-0.19-0.37-0.133-0.509c0.046-0.134,0.503-0.118,0.55-0.252
				c0.051-0.134,0.077-0.277,0.128-0.411c0.046-0.123,0.046-0.268,0.093-0.391c0.051-0.123,0.144-0.231,0.19-0.354
				c0.057-0.124,0.201-0.206,0.252-0.329c0.052-0.124-0.37-0.447-0.318-0.571c0.056-0.123,0.545-0.062,0.596-0.185
				s0.021-0.277,0.077-0.401c0.036-0.092-0.149-0.287-0.113-0.386c0.036-0.103,0.17-0.18,0.242-0.246
				c0.098-0.098,0.37-0.016,0.473-0.113c0.093-0.098-0.128-0.524-0.031-0.622c0.103-0.098,0.53,0.139,0.627,0.041
				c0.092-0.093,0.077-0.309,0.18-0.406c0.098-0.098,0.026-0.364,0.128-0.457c0.098-0.103,0.288-0.103,0.386-0.201
				c0.098-0.098,0.159-0.23,0.257-0.328c0.098-0.098,0.283-0.113,0.375-0.211c0.098-0.093,0.309-0.072,0.411-0.17
				c0.103-0.098,0.01-0.386,0.113-0.483c0.103-0.098,0.329-0.056,0.432-0.154c0.103-0.098,0.083-0.314,0.185-0.406
				c0.098-0.098,0.278-0.103,0.38-0.201c0.103-0.098,0.046-0.354,0.144-0.447c0.103-0.098,0.37-0.01,0.473-0.103
				c0.103-0.098-0.021-0.422,0.082-0.524c0.103-0.093,0.272-0.113,0.375-0.206c0.103-0.098,0.2-0.195,0.303-0.288
				c0.103-0.098,0.473,0.103,0.576,0.01c0.108-0.098-0.113-0.57,0-0.658c0.113-0.093,0.298-0.103,0.421-0.19
				c0.113-0.092,0.237-0.169,0.35-0.257c0.119-0.087,0.36-0.005,0.473-0.093c0.118-0.087,0.278-0.118,0.391-0.2
				c0.118-0.093,0.062-0.401,0.175-0.494c0.113-0.087,0.268-0.124,0.38-0.211c0.113-0.098,0.226-0.169,0.339-0.272
				c0.103-0.098,0.319-0.087,0.411-0.195c0.093-0.098,0.303-0.113,0.391-0.216c0.083-0.103-0.236-0.504-0.164-0.606
				c0.077-0.113,0.426-0.042,0.493-0.16c0.072-0.113-0.021-0.324,0.041-0.437c0.062-0.123,0.391-0.098,0.453-0.216
				s-0.057-0.329,0-0.442c0.062-0.124-0.057-0.329,0-0.447s0.226-0.18,0.288-0.303c0.056-0.124,0.349-0.144,0.406-0.272
				c0.057-0.129-0.221-0.401-0.159-0.53c0.051-0.128,0.494-0.098,0.55-0.226c0.057-0.128-0.21-0.391-0.159-0.519
				c0.051-0.129,0.036-0.283,0.093-0.417c0.051-0.134,0.18-0.236,0.236-0.36c0.051-0.134,0.313-0.18,0.37-0.309
				c0.051-0.128-0.036-0.319,0.021-0.442c0.057-0.134,0.201-0.221,0.257-0.35c0.062-0.128-0.165-0.391-0.098-0.514
				c0.057-0.134,0.345-0.144,0.412-0.267c0.066-0.124-0.098-0.381-0.026-0.504c0.072-0.124,0.262-0.175,0.339-0.293
				c0.072-0.119,0.072-0.298,0.149-0.412c0.077-0.113,0.345-0.098,0.437-0.21c0.082-0.103-0.021-0.386,0.077-0.488
				c0.092-0.098,0.19-0.221,0.293-0.314c0.098-0.092,0.504,0.16,0.606,0.072c0.108-0.093,0.231-0.134,0.345-0.216
				c0.108-0.083,0.067-0.371,0.18-0.453c0.113-0.072,0.222-0.154,0.34-0.231c0.112-0.077,0.221-0.159,0.339-0.236
				c0.118-0.067,0.159-0.262,0.277-0.334c0.118-0.067,0.206-0.195,0.319-0.257c0.123-0.072,0.427,0.175,0.545,0.103
				c0.118-0.067,0.246-0.128,0.359-0.195c0.118-0.072,0.283-0.067,0.401-0.134c0.118-0.072,0.154-0.278,0.277-0.344
				c0.113-0.077,0.304-0.046,0.411-0.119c0.123-0.082,0.159-0.267,0.277-0.334c0.124-0.067,0.319,0.026,0.442-0.031
				s0.154-0.334,0.277-0.375c0.139-0.051,0.304,0.042,0.433,0.005c0.133-0.036,0.251-0.103,0.391-0.124
				c0.133-0.021,0.277,0.098,0.411,0.093c0.133-0.01,0.256-0.201,0.4-0.195c0.139,0.005,0.278-0.031,0.411-0.016
				c0.14,0.016,0.299-0.092,0.433-0.072c0.134,0.025,0.298-0.021,0.432,0.01c0.134,0.036,0.236,0.216,0.37,0.247
				c0.134,0.041,0.309-0.041,0.442,0c0.133,0.041,0.226,0.201,0.359,0.247c0.123,0.042,0.236,0.154,0.37,0.201
				c0.123,0.046,0.298-0.016,0.427,0.036c0.129,0.046,0.211,0.226,0.334,0.277c0.134,0.046,0.319-0.062,0.447-0.01
				c0.129,0.046,0.18,0.329,0.304,0.37c0.134,0.046,0.298,0,0.427,0.046c0.133,0.046,0.226,0.231,0.354,0.267
				c0.123,0.036,0.226,0.067,0.35,0.113c0.123,0.046,0.288-0.031,0.406,0.021c0.118,0.057,0.282,0.01,0.396,0.072
				c0.118,0.056,0.309-0.016,0.422,0.046c0.112,0.062,0.226,0.119,0.334,0.175C35.414,10.932,35.455,11.302,35.568,11.354z
				 M6.713,35.094c0.046,0.144,0.01,0.349,0.046,0.482c0.041,0.154,0.154,0.283,0.195,0.417c0.041,0.148,0.417,0.169,0.473,0.303
				c0.056,0.145-0.031,0.319,0.062,0.438c0.082,0.107,0.077,0.277,0.154,0.386c0.082,0.107,0.401,0.025,0.494,0.133
				c0.077,0.108,0.164,0.206,0.257,0.309c0.077,0.108,0.113,0.247,0.201,0.355c0.087,0.107,0.025,0.323,0.108,0.432
				c0.082,0.098,0.272,0.118,0.36,0.221c0.082,0.103,0.103,0.268,0.185,0.37c0.087,0.098,0.216,0.17,0.298,0.268
				c0.093,0.103-0.031,0.391,0.062,0.483c0.092,0.103,0.144,0.236,0.236,0.334c0.092,0.103,0.309,0.087,0.396,0.19
				c0.092,0.092,0.169,0.205,0.262,0.308c0.092,0.098,0.334,0.042,0.432,0.134c0.092,0.093-0.021,0.411,0.072,0.494
				c0.098,0.092,0.175,0.221,0.278,0.308c0.103,0.083,0.313,0.036,0.421,0.113s0.278,0.057,0.391,0.124
				c0.113,0.071,0.108,0.37,0.227,0.427c0.118,0.056,0.401-0.272,0.524-0.227c0.129,0.046,0.175,0.324,0.298,0.375
				c0.134,0.052,0.154,0.319,0.278,0.375c0.123,0.057,0.426-0.241,0.545-0.174c0.118,0.066,0.277,0.098,0.385,0.164
				c0.118,0.066-0.01,0.52,0.103,0.602c0.113,0.072,0.458-0.175,0.57-0.098c0.103,0.082,0.237,0.149,0.339,0.236
				c0.108,0.087,0.031,0.391,0.134,0.483c0.103,0.087,0.267,0.118,0.36,0.211c0.103,0.092,0.077,0.309,0.175,0.406
				c0.092,0.098,0.216,0.159,0.313,0.257s0.236,0.148,0.334,0.246c0.093,0.104,0.375,0.031,0.463,0.134
				c0.093,0.104-0.067,0.427,0.026,0.529c0.087,0.104,0.18,0.206,0.267,0.309c0.087,0.104,0.134,0.247,0.221,0.35
				c0.092,0.104,0.216,0.211,0.319,0.313c0.098,0.104,0.391,0,0.493,0.093c0.108,0.088,0.206,0.19,0.324,0.277
				c0.108,0.088,0.098,0.35,0.21,0.438c0.124,0.082,0.38-0.047,0.504,0.041c0.113,0.082,0.206,0.185,0.329,0.257
				c0.123,0.072,0.098,0.411,0.226,0.483s0.278,0.082,0.401,0.154c0.124,0.072,0.345-0.016,0.458,0.072
				c0.118,0.077,0.288,0.112,0.391,0.205c0.108,0.098,0.283,0.108,0.386,0.195c0.113,0.093,0.103,0.329,0.216,0.406
				c0.118,0.088,0.139,0.313,0.257,0.391c0.123,0.077,0.401-0.134,0.524-0.066c0.129,0.062,0.257,0.082,0.391,0.123
				c0.134,0.057,0.145,0.483,0.278,0.524c0.133,0.036,0.359-0.324,0.503-0.298c0.134,0.03,0.237,0.359,0.381,0.37
				c0.134,0.01,0.298,0.134,0.437,0.123c0.14,0,0.283-0.216,0.417-0.236c0.144-0.021,0.268-0.123,0.4-0.154
				c0.14-0.031,0.272-0.066,0.412-0.113c0.133-0.041,0.205-0.226,0.339-0.277c0.134-0.046,0.35,0.123,0.473,0.077
				c0.124-0.047,0.154-0.36,0.278-0.406c0.133-0.052,0.313,0.052,0.441,0c0.134-0.046,0.195-0.268,0.319-0.313
				c0.128-0.046,0.329,0.103,0.461,0.057c0.124-0.052,0.35,0.154,0.483,0.103c0.124-0.046,0.268-0.082,0.391-0.129
				c0.124-0.051,0.247-0.128,0.37-0.18c0.134-0.051,0.268-0.082,0.391-0.144c0.124-0.052,0.227-0.175,0.35-0.231
				c0.124-0.057,0.145-0.345,0.258-0.406c0.123-0.066,0.18-0.247,0.298-0.313s0.195-0.18,0.318-0.252
				c0.113-0.072,0.483,0.252,0.597,0.175c0.113-0.072,0.066-0.391,0.175-0.473c0.113-0.077,0.257-0.113,0.359-0.201
				c0.113-0.087,0.195-0.189,0.304-0.282c0.103-0.088,0.066-0.34,0.17-0.432c0.098-0.093,0.524,0.164,0.627,0.071
				c0.093-0.098,0.205-0.185,0.303-0.287c0.098-0.093-0.005-0.381,0.088-0.483c0.093-0.104,0.123-0.257,0.216-0.36
				c0.093-0.103,0.257-0.144,0.345-0.246c0.087-0.108,0.154-0.227,0.241-0.335c0.082-0.107,0.257-0.144,0.34-0.257
				c0.092-0.107,0.139-0.246,0.216-0.354c0.082-0.113-0.026-0.35,0.051-0.463c0.083-0.123,0.535,0.011,0.606-0.113
				c0.083-0.123-0.082-0.38-0.01-0.503c0.066-0.124,0.247-0.19,0.313-0.319c0.066-0.128,0.098-0.272,0.159-0.4
				c0.062-0.129,0.052-0.288,0.113-0.422c0.052-0.134-0.066-0.34-0.016-0.473c0.057-0.124,0.129-0.258,0.181-0.381
				c0.056-0.134,0.339-0.17,0.4-0.298c0.062-0.129,0.103-0.268,0.159-0.396c0.057-0.128,0.272-0.189,0.324-0.313
				c0.066-0.134,0.123-0.246,0.195-0.38c0.066-0.124-0.021-0.329,0.052-0.452c0.066-0.119-0.104-0.376-0.041-0.494
				c0.071-0.118,0.216-0.195,0.287-0.309c0.067-0.123,0.36-0.112,0.427-0.226c0.067-0.124,0.016-0.309,0.088-0.427
				c0.071-0.118-0.052-0.354,0.021-0.468c0.071-0.124,0.205-0.201,0.277-0.319c0.077-0.118,0.493-0.005,0.565-0.118
				c0.082-0.113-0.144-0.437-0.066-0.55c0.082-0.113,0.205-0.19,0.282-0.304c0.082-0.112,0.103-0.272,0.19-0.38
				c0.087-0.108,0.2-0.2,0.293-0.304c0.087-0.098,0.154-0.236,0.247-0.334c0.092-0.103,0.452,0.067,0.545-0.036
				c0.103-0.092-0.104-0.504,0-0.602c0.103-0.098,0.216-0.18,0.309-0.272c0.098-0.098,0.246-0.144,0.344-0.246
				c0.098-0.098,0.313-0.077,0.411-0.181c0.098-0.098,0.283-0.112,0.386-0.21c0.093-0.093,0.257-0.134,0.354-0.236
				c0.098-0.098-0.015-0.401,0.083-0.494c0.098-0.103,0.323-0.077,0.416-0.18c0.098-0.098-0.041-0.422,0.052-0.524
				c0.092-0.103,0.524,0.113,0.616,0.011c0.104-0.104,0-0.386,0.088-0.489c0.093-0.103,0.334-0.071,0.427-0.175
				c0.092-0.103-0.057-0.421,0.036-0.523c0.087-0.104,0.478,0.046,0.57-0.057c0.087-0.108,0.103-0.278,0.19-0.381
				c0.092-0.107,0.144-0.241,0.231-0.35c0.092-0.107,0.015-0.345,0.107-0.447c0.088-0.107,0.129-0.257,0.211-0.359
				c0.087-0.108,0.318-0.104,0.401-0.211c0.092-0.108,0.123-0.252,0.216-0.365c0.082-0.113,0.344-0.082,0.427-0.195
				c0.087-0.113-0.016-0.359,0.066-0.473c0.077-0.113,0.164-0.222,0.247-0.334c0.077-0.113,0.303-0.129,0.38-0.242
				s-0.159-0.432-0.093-0.545c0.083-0.118,0.186-0.2,0.258-0.324c0.062-0.118,0.057-0.267,0.112-0.391
				c0.063-0.124,0.196-0.201,0.247-0.334c0.057-0.124,0.216-0.206,0.257-0.339c0.052-0.124,0.272-0.201,0.309-0.329
				c0.041-0.134-0.046-0.309-0.01-0.432c0.03-0.133,0.287-0.226,0.318-0.359c0.025-0.134-0.072-0.298-0.052-0.437
				c0.021-0.134-0.03-0.283-0.015-0.427c0.01-0.134-0.036-0.278-0.031-0.411c0.005-0.144-0.066-0.278-0.066-0.412
				c0-0.139,0.041-0.272,0.03-0.411c-0.01-0.144-0.113-0.257-0.134-0.401c-0.021-0.134-0.041-0.257-0.066-0.391
				c-0.025-0.134-0.016-0.272-0.057-0.406c-0.036-0.134-0.175-0.221-0.216-0.355c-0.041-0.123,0.236-0.385,0.185-0.514
				c-0.051-0.129-0.236-0.195-0.303-0.319c-0.067-0.124,0.051-0.35-0.016-0.468c-0.072-0.118-0.288-0.149-0.37-0.262
				s-0.19-0.206-0.277-0.313c-0.082-0.108-0.186-0.201-0.278-0.303c-0.092-0.098-0.328-0.052-0.432-0.139
				c-0.103-0.092-0.211-0.159-0.318-0.242c-0.103-0.087-0.149-0.241-0.263-0.324c-0.112-0.077-0.077-0.385-0.189-0.458
				c-0.124-0.072-0.35,0.046-0.474-0.021c-0.118-0.062-0.154-0.309-0.277-0.37s-0.236-0.144-0.35-0.201
				c-0.123-0.056-0.268-0.066-0.391-0.123s-0.257-0.093-0.37-0.16c-0.123-0.062-0.19-0.221-0.309-0.288
				c-0.118-0.062-0.257-0.083-0.38-0.144c-0.118-0.062-0.252-0.108-0.37-0.165c-0.118-0.062-0.247-0.113-0.365-0.175
				s-0.406,0.211-0.529,0.154c-0.124-0.062-0.041-0.54-0.165-0.596c-0.123-0.062-0.277-0.042-0.4-0.093
				c-0.124-0.051-0.268-0.082-0.391-0.134c-0.124-0.051-0.217-0.195-0.34-0.247s-0.359,0.206-0.493,0.154
				c-0.124-0.046-0.288,0.041-0.422,0c-0.128-0.041-0.154-0.386-0.288-0.421c-0.128-0.042-0.298,0.072-0.432,0.041
				c-0.123-0.031-0.268,0.005-0.406-0.021c-0.134-0.026-0.2-0.329-0.334-0.37c-0.134-0.042-0.339,0.128-0.468,0.072
				c-0.129-0.046-0.303-0.021-0.427-0.077c-0.123-0.057-0.062-0.499-0.185-0.56c-0.124-0.067-0.422,0.185-0.535,0.113
				c-0.123-0.067-0.18-0.236-0.298-0.313c-0.113-0.067-0.216-0.169-0.34-0.242c-0.112-0.072-0.18-0.226-0.298-0.298
				c-0.118-0.077-0.164-0.257-0.282-0.334s-0.406,0.134-0.53,0.057c-0.112-0.067-0.077-0.417-0.195-0.483
				c-0.123-0.072-0.246-0.144-0.37-0.206c-0.123-0.067-0.421,0.226-0.545,0.17c-0.123-0.057-0.216-0.17-0.344-0.221
				c-0.129-0.046-0.211-0.236-0.345-0.283c-0.134-0.036-0.277-0.036-0.411-0.067c-0.031-0.01-0.186,0.134-0.227,0.113
				c-0.113-0.077-0.071-0.37-0.185-0.437c-0.113-0.077-0.154-0.268-0.268-0.339c-0.113-0.067-0.396,0.149-0.504,0.087
				c-0.123-0.062-0.205-0.175-0.329-0.231c-0.118-0.057-0.154-0.303-0.277-0.354c-0.123-0.046-0.268-0.083-0.391-0.124
				c-0.134-0.036-0.247-0.175-0.381-0.206c-0.134-0.021-0.318,0.37-0.452,0.36s-0.247-0.041-0.38-0.036
				c-0.124,0.005-0.237,0.016-0.37,0.036c-0.134,0.021-0.217,0.134-0.345,0.175c-0.124,0.036-0.345-0.211-0.474-0.154
				c-0.118,0.046-0.148,0.288-0.266,0.35c-0.088,0.051-0.268-0.257-0.381-0.247c-0.103,0-0.18,0.329-0.282,0.345
				c-0.124,0.026-0.268,0.036-0.401,0.046c-0.123,0.015-0.282-0.221-0.411-0.211c-0.134,0.01-0.283-0.067-0.411-0.057
				c-0.134,0.021-0.206,0.339-0.329,0.38c-0.129,0.036-0.37-0.185-0.483-0.123c-0.113,0.066-0.016,0.493-0.128,0.565
				c-0.108,0.072-0.412-0.165-0.524-0.093c-0.113,0.072-0.237,0.134-0.345,0.211c-0.103,0.077-0.041,0.391-0.145,0.473
				c-0.103,0.077-0.416-0.098-0.514-0.01c-0.103,0.087,0.005,0.401-0.093,0.489c-0.092,0.092-0.427-0.042-0.514,0.051
				c-0.093,0.098,0.098,0.432,0.01,0.535c-0.082,0.108-0.251,0.154-0.339,0.257c-0.082,0.103-0.159,0.216-0.247,0.319
				c-0.087,0.108-0.324,0.082-0.412,0.195c-0.082,0.103-0.072,0.293-0.154,0.401c-0.083,0.103-0.231,0.165-0.319,0.272
				c-0.083,0.108,0.031,0.37-0.046,0.483c-0.087,0.108-0.509-0.036-0.591,0.067c-0.082,0.113,0.098,0.411,0.021,0.524
				c-0.082,0.113-0.318,0.113-0.391,0.226c-0.082,0.113-0.036,0.309-0.103,0.427c-0.072,0.118-0.154,0.231-0.216,0.344
				c-0.067,0.124,0.046,0.329-0.021,0.453c-0.056,0.123-0.493,0.072-0.55,0.195c-0.051,0.123,0.159,0.36,0.113,0.483
				c-0.046,0.139-0.334,0.175-0.391,0.309c-0.056,0.134-0.066,0.277-0.118,0.411c-0.051,0.124-0.185,0.221-0.247,0.35
				s-0.093,0.268-0.149,0.391c-0.057,0.134,0.098,0.36,0.031,0.488c-0.067,0.129-0.144,0.247-0.211,0.371
				c-0.062,0.123-0.35,0.123-0.421,0.247c-0.072,0.124,0.206,0.458,0.139,0.576c-0.077,0.118-0.134,0.257-0.211,0.375
				c-0.077,0.118-0.324,0.128-0.406,0.241c-0.077,0.108-0.129,0.257-0.211,0.37c-0.087,0.108-0.324,0.108-0.411,0.211
				c-0.083,0.113,0.123,0.473,0.031,0.581c-0.093,0.108-0.236,0.169-0.339,0.283c-0.092,0.098-0.514-0.113-0.612-0.01
				c-0.098,0.103-0.18,0.21-0.283,0.313c-0.103,0.098,0.01,0.417-0.092,0.514c-0.108,0.087-0.216,0.19-0.324,0.277
				c-0.108,0.093-0.406-0.056-0.514,0.036c-0.108,0.082-0.19,0.211-0.293,0.298c-0.108,0.082-0.092,0.329-0.2,0.421
				c-0.108,0.087-0.19,0.211-0.293,0.298c-0.108,0.092-0.288,0.082-0.401,0.175c-0.103,0.092-0.082,0.329-0.185,0.421
				c-0.108,0.087-0.406-0.046-0.509,0.046c-0.108,0.087-0.067,0.334-0.18,0.432c-0.103,0.093-0.185,0.211-0.288,0.303
				c-0.103,0.093-0.103,0.298-0.206,0.396c-0.098,0.098-0.247,0.134-0.35,0.231c-0.103,0.092-0.339,0.046-0.432,0.144
				c-0.103,0.093-0.272,0.124-0.37,0.216c-0.103,0.104,0.031,0.442-0.062,0.54c-0.103,0.098-0.499-0.113-0.596-0.01
				c-0.092,0.098-0.165,0.23-0.262,0.323c-0.098,0.098-0.046,0.36-0.139,0.452c-0.098,0.098-0.391,0.021-0.478,0.124
				c-0.087,0.103-0.077,0.298-0.16,0.411c-0.087,0.107-0.108,0.268-0.19,0.38c-0.077,0.108-0.375,0.072-0.458,0.186
				c-0.072,0.113-0.144,0.241-0.216,0.359c-0.077,0.113-0.083,0.278-0.154,0.396c-0.067,0.118,0.18,0.427,0.113,0.55
				c-0.072,0.113-0.113,0.247-0.185,0.37c-0.072,0.113-0.391,0.087-0.462,0.206c-0.072,0.128,0,0.318-0.041,0.473
				c-0.042,0.144-0.278,0.247-0.309,0.396c-0.021,0.149,0.092,0.324,0.067,0.479c-0.031,0.148-0.231,0.246-0.278,0.391
				c-0.046,0.144-0.046,0.298-0.108,0.442c-0.062,0.133-0.242,0.216-0.309,0.359c-0.062,0.134,0.278,0.458,0.216,0.597
				C7.171,34.919,6.77,34.949,6.713,35.094z M42.333,5.447c0.046-0.17,0.186-0.19,0.216-0.313c0.052-0.175,0.011-0.329,0.047-0.453
				c0.046-0.18-0.247-0.411-0.206-0.545c0.057-0.139,0.241-0.216,0.272-0.35c0.041-0.144,0.175-0.267,0.186-0.401
				c0.01-0.149-0.288-0.252-0.319-0.391c-0.025-0.144-0.046-0.185-0.123-0.319c-0.067-0.113-0.057-0.2-0.175-0.303
				c-0.103-0.087-0.098-0.303-0.236-0.37c-0.124-0.057-0.272,0.026-0.396,0c-0.128-0.031-0.221-0.134-0.35-0.134
				c-0.133,0-0.236,0.057-0.359,0.093c-0.129,0.031-0.345-0.18-0.458-0.124c-0.123,0.057-0.287,0.118-0.38,0.201
				c-0.103,0.077-0.093,0.308-0.17,0.411c-0.077,0.103-0.17,0.206-0.226,0.329c-0.052,0.103,0.103,0.293,0.071,0.416
				c-0.036,0.119-0.354,0.18-0.37,0.314c-0.016,0.123-0.077,0.267-0.077,0.401c0,0.124,0.175,0.257,0.186,0.38
				c0.021,0.134,0.148,0.236,0.18,0.36c0.036,0.124-0.18,0.334-0.129,0.447c0.063,0.134,0.499,0.124,0.545,0.252
				c0.041,0.139-0.144,0.35-0.123,0.483c0.021,0.144-0.195,0.278-0.195,0.417s0.386,0.324,0.354,0.463
				c-0.036,0.133-0.046,0.313-0.103,0.447C39.938,7.282,39.48,7.2,39.397,7.323c-0.077,0.118,0.19,0.462,0.113,0.576
				c-0.077,0.123-0.134,0.257-0.211,0.38c-0.071,0.113-0.396,0.082-0.473,0.2c-0.072,0.119-0.077,0.283-0.154,0.406
				c-0.082,0.124-0.304,0.144-0.38,0.268c-0.083,0.123-0.124,0.267-0.195,0.391c-0.077,0.123-0.093,0.277-0.165,0.401
				c-0.077,0.124,0.066,0.375-0.01,0.499c-0.072,0.124-0.433,0.077-0.504,0.201c-0.063,0.113-0.14,0.211-0.227,0.324
				c-0.082,0.113-0.227,0.206-0.293,0.324c-0.077,0.124-0.134,0.329-0.144,0.463c-0.011,0.124,0.267,0.216,0.35,0.35
				c0.056,0.098,0.118,0.185,0.241,0.298c0.093,0.077,0.082,0.334,0.195,0.406c0.113,0.067,0.345-0.108,0.468-0.057
				c0.118,0.046,0.221,0.124,0.35,0.154c0.129,0.041,0.19,0.37,0.324,0.396c0.133,0.021,0.287-0.026,0.416-0.016
				c0.134,0.005,0.272-0.185,0.401-0.195c0.133-0.01,0.241-0.108,0.364-0.139c0.134-0.036,0.175-0.169,0.283-0.231
				c0.118-0.072,0.313,0.016,0.386-0.092c0.071-0.103,0.287-0.113,0.364-0.227c0.077-0.103-0.107-0.391-0.03-0.503
				c0.077-0.113,0.118-0.247,0.19-0.36c0.077-0.108,0.493,0.01,0.56-0.103c0.077-0.113-0.189-0.442-0.123-0.555
				c0.067-0.113,0.406-0.062,0.473-0.18c0.067-0.118,0.242-0.19,0.299-0.304c0.057-0.123-0.067-0.334-0.016-0.458
				c0.052-0.123,0.03-0.272,0.062-0.406c0.046-0.134,0.093-0.268,0.149-0.391c0.057-0.134,0-0.334,0.077-0.447
				c0.071-0.124,0.354-0.098,0.441-0.201c0.093-0.103,0-0.406,0.104-0.499c0.103-0.087,0.329-0.057,0.441-0.134
				c0.108-0.077,0.154-0.313,0.278-0.375c0.123-0.062,0.35,0.062,0.473,0.01c0.123-0.052,0.35,0.154,0.479,0.103
				c0.128-0.051,0.262-0.072,0.396-0.118c0.123-0.046,0.247-0.118,0.38-0.159c0.124-0.052,0.268-0.072,0.401-0.119
				c0.113-0.046,0.236-0.18,0.35-0.251c0.103-0.062,0.082-0.35,0.185-0.432c0.104-0.077,0.093-0.257,0.196-0.35
				c0.087-0.087,0.123-0.206,0.2-0.308c0.087-0.103,0.54,0.077,0.606-0.026c0.057-0.093-0.159-0.375-0.159-0.55
				c0-0.144,0.03-0.293-0.011-0.426c-0.046-0.18-0.134-0.288-0.216-0.334c-0.128-0.072-0.329,0.072-0.473,0.021
				c-0.139-0.046-0.165-0.545-0.319-0.57c-0.144-0.026-0.323-0.057-0.473-0.057c-0.154-0.01-0.313,0.272-0.457,0.288
				c-0.124,0.01-0.201,0.123-0.313,0.174c-0.113,0.052-0.258,0.031-0.37,0.098c-0.113,0.066-0.201,0.159-0.309,0.226
				c-0.108,0.067-0.268,0.036-0.381,0.087c-0.113,0.051-0.216,0.133-0.339,0.185C43.536,5.02,43.5,5.287,43.371,5.333
				c-0.112,0.041-0.38-0.344-0.509-0.293c-0.112,0.036-0.144,0.334-0.272,0.38C42.498,5.457,42.456,5.4,42.333,5.447z M8.59,47.004
				c-0.144,0-0.309-0.077-0.442-0.066c-0.144,0.021-0.293,0.123-0.427,0.164c-0.139,0.036-0.134,0.412-0.257,0.474
				c-0.128,0.062-0.303-0.011-0.416,0.071c-0.108,0.088-0.288,0.098-0.38,0.206c-0.088,0.103,0.092,0.375,0.021,0.499
				c-0.072,0.118-0.098,0.2-0.144,0.334S6.41,48.901,6.39,49.045c-0.021,0.145-0.216,0.247-0.206,0.37
				c0,0.149,0.154,0.236,0.19,0.36c0.036,0.134,0.005,0.268,0.077,0.38c0.072,0.113,0.185,0.165,0.283,0.258
				c0.098,0.087,0.057,0.391,0.17,0.457c0.123,0.067,0.247,0.18,0.38,0.227c0.124,0.046,0.313-0.067,0.447-0.036
				c0.118,0.025,0.247,0.066,0.38,0.072c0.124,0.01,0.242-0.206,0.37-0.217c0.128-0.01,0.293,0.278,0.417,0.247
				c0.123-0.021,0.288-0.021,0.401-0.062c0.124-0.041,0.19-0.257,0.293-0.318c0.128-0.077,0.19-0.247,0.303-0.299
				c0.134-0.071,0.35,0.129,0.453,0.098c0.165-0.046,0.365-0.427,0.462-0.364c0.093,0.051,0.046,0.37,0.083,0.534
				c0.031,0.108-0.185,0.247-0.18,0.401c0.005,0.123,0.406,0.257,0.406,0.405c-0.01,0.108,0.051,0.154,0.103,0.294
				c0.041,0.118-0.298,0.432-0.227,0.545c0.067,0.123,0.473-0.011,0.555,0.071c0.103,0.113,0.113,0.113,0.216,0.129
				c0.134,0.021,0.247,0.313,0.401,0.313c0.144,0,0.288-0.088,0.437-0.103c0.149-0.021,0.329,0.134,0.473,0.103
				s0.293-0.123,0.427-0.175s0.257-0.18,0.38-0.252c0.093-0.052-0.031-0.298,0.041-0.447c0.052-0.123,0.412-0.134,0.442-0.277
				c0.031-0.145,0.051-0.309,0.051-0.442c0.005-0.154,0.026-0.375-0.021-0.483c-0.062-0.139-0.124-0.241-0.154-0.359
				c-0.046-0.145-0.339-0.227-0.339-0.35c-0.01-0.145,0.026-0.309,0.062-0.438c0.041-0.123,0.288-0.139,0.38-0.262
				c0.077-0.098-0.026-0.37,0.087-0.468c0.087-0.088,0.231-0.149,0.344-0.236c0.103-0.077,0.411,0.066,0.519-0.026
				c0.098-0.092,0.16-0.236,0.257-0.339c0.087-0.098,0.046-0.329,0.133-0.432c0.087-0.113,0.103-0.268,0.18-0.37
				c0.077-0.124,0.046-0.278,0.113-0.391c0.066-0.134,0.288-0.17,0.324-0.288c0.046-0.149,0.221-0.34,0.18-0.452
				c-0.041-0.134-0.391-0.134-0.462-0.258c-0.067-0.123-0.165-0.2-0.247-0.313c-0.087-0.113,0.134-0.478,0.036-0.581
				c-0.098-0.103-0.483,0.077-0.581-0.021c-0.103-0.092,0-0.421-0.113-0.514c-0.103-0.093-0.144-0.277-0.257-0.365
				c-0.113-0.087-0.349-0.016-0.462-0.098c-0.113-0.093-0.268-0.113-0.38-0.205c-0.046-0.031-0.134,0.041-0.303,0.164
				c-0.098,0.062-0.098,0.257-0.211,0.35c-0.103,0.082-0.36-0.021-0.452,0.072c-0.098,0.093,0,0.38-0.087,0.473
				c-0.098,0.103-0.304,0.088-0.375,0.175c-0.082,0.103-0.016,0.318-0.093,0.427c-0.082,0.108-0.329,0.077-0.411,0.19
				c-0.082,0.103-0.375,0.041-0.462,0.144c-0.083,0.103-0.175,0.18-0.268,0.277c-0.092,0.104-0.144,0.195-0.236,0.288
				c-0.103,0.093-0.195,0.134-0.303,0.211s-0.149,0.18-0.272,0.236c-0.113,0.052-0.144,0.324-0.278,0.354
				c-0.123,0.026-0.267,0.175-0.411,0.175c-0.124,0-0.298,0.041-0.442,0.016c-0.124-0.021-0.124-0.514-0.257-0.561
				c-0.124-0.041-0.339,0.181-0.468,0.124C8.651,47.164,8.631,47.004,8.59,47.004z"/>
		</g>
		<g>
			<path d="M29.281,36.363c0.021,0.148,0.035,0.309,0.035,0.447c0.011,0.154,0.104,0.298,0.098,0.437
				c-0.01,0.149-0.282,0.247-0.313,0.381c-0.03,0.148,0.093,0.313,0.031,0.437c-0.062,0.134-0.227,0.17-0.318,0.277
				c-0.093,0.113,0.01,0.412-0.104,0.494s-0.226,0.277-0.359,0.329c-0.124,0.057-0.39-0.329-0.54-0.299
				c-0.134,0.026-0.247,0.036-0.396,0.041c-0.139,0.006-0.258-0.01-0.406-0.021c-0.124-0.005-0.159-0.021-0.283-0.082
				c-0.103-0.051-0.189-0.071-0.298-0.154c-0.103-0.071-0.195-0.128-0.298-0.216c-0.098-0.082-0.381,0.041-0.474-0.046
				c-0.098-0.088-0.03-0.354-0.123-0.438c-0.098-0.082-0.391-0.066-0.493-0.144c0.103-0.103,0.441-0.062,0.545-0.164
				c0.098-0.104,0.231-0.175,0.334-0.272c0.103-0.104-0.118-0.52-0.016-0.622c0.103-0.104,0.432,0.021,0.534-0.083
				c0.104-0.103-0.025-0.432,0.077-0.534c0.098-0.103,0.406,0.005,0.51-0.093c0.103-0.093,0.262-0.134,0.37-0.227
				c0.103-0.103,0.062-0.37,0.164-0.462c0.113-0.093,0.447,0.103,0.555,0.016c0.112-0.088,0.175-0.237,0.293-0.319
				c0.103-0.066,0.18-0.4,0.354-0.365c0.123,0.031,0.17,0.381,0.318,0.442c0.124,0.052,0.206,0.216,0.34,0.272
				c0.128,0.057,0.354-0.077,0.483-0.016c0.139,0.062,0.432,0.072,0.565,0.118c-0.113,0.098-0.483,0.077-0.597,0.17
				c-0.113,0.098-0.221,0.195-0.329,0.288C29.435,36.06,29.389,36.271,29.281,36.363z"/>
		</g>
		<g>
			<path d="M26.14,42.198c-0.107,0.092-0.524-0.011-0.617,0.071c-0.107,0.093-0.062,0.354-0.153,0.442
				c-0.113,0.093-0.288,0.103-0.381,0.185c-0.113,0.098-0.134,0.268-0.236,0.355c-0.103,0.092-0.206,0.18-0.304,0.262
				c-0.107,0.093-0.148,0.252-0.257,0.334c-0.107,0.088-0.365-0.057-0.468,0.016c-0.123,0.072-0.144,0.272-0.257,0.34
				c-0.062,0.03-0.082-0.154-0.268-0.304c-0.103-0.088-0.416,0.025-0.534-0.088c-0.113-0.112-0.319-0.169-0.412-0.267
				c-0.165-0.186,0.093-0.381,0.124-0.427c0.062-0.113,0.134-0.216,0.2-0.324c0.072-0.113,0.159-0.2,0.231-0.309
				c0.072-0.107,0.154-0.205,0.231-0.309c0.087-0.103,0.139-0.205,0.231-0.308c0.093-0.098,0.154-0.195,0.252-0.288
				s0.005-0.391,0.098-0.473c0.103-0.088,0.35,0.021,0.463-0.052c0.051-0.046,0.153-0.2,0.334-0.088
				c0.098,0.057,0.046,0.376,0.169,0.468c0.104,0.067,0.181,0.186,0.299,0.268c0.103,0.072,0.473-0.211,0.586-0.134
				s0.03,0.422,0.144,0.504C25.719,42.142,26.022,42.126,26.14,42.198z"/>
		</g>
		<g>
			<path d="M31.789,41.828c-0.112,0.103-0.18,0.226-0.282,0.323c-0.108,0.108-0.37,0.057-0.473,0.159
				c-0.108,0.104-0.129,0.293-0.231,0.391c-0.108,0.113-0.067,0.37-0.17,0.463c-0.113,0.103-0.483-0.093-0.597,0
				c-0.112,0.098-0.071,0.36-0.195,0.447c-0.112,0.088-0.293,0.077-0.421,0.149c-0.031,0.021-0.041,0.041-0.195-0.082
				c-0.088-0.072-0.181-0.16-0.278-0.247c-0.092-0.088-0.246-0.113-0.339-0.195c-0.088-0.098,0.025-0.36-0.046-0.442
				c-0.118-0.154-0.304-0.123-0.278-0.175c0.057-0.128,0.227-0.185,0.293-0.309c0.072-0.112-0.103-0.391-0.025-0.504
				c0.077-0.112,0.066-0.298,0.159-0.411c0.082-0.112,0.515,0.052,0.606-0.051c0.083-0.108,0.175-0.211,0.268-0.319
				c0.088-0.103,0.19-0.205,0.277-0.309c0.083-0.107,0.016-0.128,0.104-0.241c0.103,0.088,0.036,0.098,0.144,0.19
				c0.103,0.082,0.216,0.154,0.324,0.246c0.098,0.083,0.386-0.051,0.493,0.042c0.098,0.092,0.046,0.359,0.159,0.447
				c0.104,0.087,0.36-0.016,0.468,0.082C31.661,41.57,31.682,41.735,31.789,41.828z"/>
		</g>
	</g>
</g>
<g>
</g>
<g>
</g>
<g>
</g>
<g>
</g>
<g>
</g>
<g>
</g>
<g>
</g>
<g>
</g>
<g>
</g>
<g>
</g>
<g>
</g>
<g>
</g>
<g>
</g>
<g>
</g>
<g>
</g>
</svg>
