<?xml version="1.0" encoding="utf-8"?>
<!-- Generator: Adobe Illustrator 16.0.0, SVG Export Plug-In . SVG Version: 6.00 Build 0)  -->
<!DOCTYPE svg PUBLIC "-//W3C//DTD SVG 1.1//EN" "http://www.w3.org/Graphics/SVG/1.1/DTD/svg11.dtd">
<svg version="1.1" id="圖層_1" xmlns="http://www.w3.org/2000/svg" xmlns:xlink="http://www.w3.org/1999/xlink" x="0px" y="0px"
	 width="55px" height="55px" viewBox="0 0 55 55" enable-background="new 0 0 55 55" xml:space="preserve">
<g>
	<path d="M3.752,13.611c-0.021-0.101-0.138-0.164-0.165-0.259c-0.026-0.096,0.133-0.244,0.111-0.344
		c-0.026-0.101-0.01-0.207-0.032-0.302c-0.021-0.106-0.18-0.174-0.19-0.275C3.46,12.33,3.365,12.229,3.36,12.134
		c-0.011-0.106,0.016-0.217,0.021-0.318c0-0.106-0.021-0.212-0.01-0.318c0.01-0.095,0.148-0.19,0.164-0.286
		c0.021-0.101,0.122-0.175,0.148-0.265c0.032-0.101-0.005-0.217,0.037-0.313c0.042-0.09,0-0.233,0.053-0.317
		c0.053-0.09,0.053-0.228,0.106-0.313C3.942,9.92,4.112,9.92,4.186,9.846c0.063-0.074,0.117-0.18,0.191-0.244
		c0.079-0.069,0.159-0.148,0.238-0.207c0.079-0.058,0.153-0.153,0.244-0.207c0.084-0.053,0.207-0.053,0.302-0.095
		C5.25,9.051,5.404,9.146,5.5,9.115s0.169-0.127,0.27-0.159C5.87,8.935,5.998,9.041,6.098,9.02c0.101-0.021,0.175-0.148,0.27-0.159
		C6.474,8.839,6.575,8.718,6.67,8.712c0.106-0.011,0.228-0.069,0.329-0.063C7.104,8.654,7.184,8.882,7.29,8.898
		C7.39,8.914,7.512,8.839,7.607,8.871c0.106,0.027,0.164,0.18,0.265,0.212C7.968,9.12,8.105,9.051,8.195,9.094
		c0.095,0.042,0.143,0.19,0.238,0.233c0.09,0.042,0.223,0.011,0.318,0.059c0.095,0.047,0.265-0.069,0.36-0.021
		c0.09,0.048,0.037,0.387,0.127,0.429c0.095,0.042,0.286-0.117,0.376-0.074c0.095,0.037,0.212,0,0.313,0.032
		c0.095,0.032,0.117,0.329,0.212,0.35c0.101,0.026,0.254-0.138,0.35-0.106c0.095,0.032,0.201,0.037,0.296,0.074
		c0.095,0.032,0.212,0.042,0.302,0.084c0.09,0.042,0.048,0.366,0.132,0.413c0.096,0.048,0.249-0.032,0.334,0.016
		c0.09,0.048,0.217,0.032,0.302,0.084c0.09,0.059,0.095,0.223,0.18,0.281c0.08,0.059,0.254-0.01,0.339,0.053
		c0.085,0.058,0.201,0.069,0.281,0.132c0.08,0.058-0.016,0.344,0.069,0.408c0.074,0.058,0.148,0.127,0.222,0.196
		c0.08,0.059,0.265,0,0.339,0.069c0.079,0.058,0.122,0.169,0.201,0.233c0.074,0.063,0.159,0.127,0.233,0.19
		c0.085,0.063,0.223,0.042,0.307,0.106c0.085,0.063,0.026,0.302,0.106,0.36c0.085,0.058,0.132,0.164,0.212,0.222
		c0.085,0.059,0.328-0.106,0.413-0.053c0.08,0.063,0.201,0.069,0.281,0.127c0.08,0.053,0.069,0.249,0.153,0.307
		c0.08,0.059,0.127,0.164,0.217,0.223c0.08,0.053,0.196,0.074,0.281,0.127c0.085,0.053,0.127,0.18,0.207,0.233
		c0.085,0.053,0.228,0.021,0.313,0.074c0.085,0.059,0.127,0.18,0.212,0.238c0.084,0.053,0.138,0.154,0.222,0.207
		c0.085,0.059,0.239,0,0.329,0.059c0.084,0.053,0.244-0.016,0.328,0.042c0.085,0.059,0.148,0.143,0.233,0.196
		c0.084,0.053,0.032,0.318,0.122,0.371c0.085,0.058,0.164,0.117,0.254,0.169c0.084,0.053,0.339-0.159,0.423-0.101
		c0.085,0.058,0.064,0.281,0.143,0.333c0.085,0.053,0.223,0.032,0.302,0.096c0.084,0.053,0.217,0.042,0.296,0.095
		c0.085,0.058,0.186,0.095,0.27,0.148c0.085,0.053,0.032,0.307,0.117,0.365c0.084,0.058,0.116,0.186,0.201,0.249
		c0.08,0.053,0.18,0.084,0.265,0.138c0.08,0.063,0.36-0.154,0.435-0.095c0.084,0.058-0.026,0.381,0.053,0.445
		c0.085,0.058,0.329-0.101,0.408-0.042c0.08,0.063,0.101,0.201,0.186,0.265c0.08,0.059,0.207,0.053,0.286,0.117
		c0.074,0.063,0.053,0.265,0.138,0.323c0.079,0.063,0.106,0.185,0.19,0.249c0.085,0.063,0.318-0.084,0.403-0.026
		c0.079,0.063,0.084,0.217,0.169,0.281c0.079,0.063,0.27-0.021,0.35,0.037c0.074,0.058,0.01,0.307,0.095,0.371
		c0.08,0.058,0.106,0.191,0.19,0.249c0.08,0.063,0.339-0.106,0.413-0.048c0.08,0.063,0.169,0.111,0.254,0.175
		c0.074,0.063,0.106,0.191,0.18,0.254c0.084,0.058,0.19,0.08,0.275,0.138c0.074,0.063,0.148,0.143,0.222,0.207
		c0.08,0.058,0.122,0.175,0.202,0.233c0.079,0.063,0.159,0.132,0.233,0.191c0.084,0.063,0.212,0.063,0.286,0.127
		c0.079,0.058,0.148,0.143,0.222,0.207c0.08,0.063,0.159,0.127,0.244,0.186c0.074,0.063-0.032,0.365,0.048,0.429
		c0.079,0.059,0.291-0.042,0.371,0.016c0.08,0.063,0.207,0.058,0.291,0.122c0.074,0.063-0.026,0.35,0.053,0.413
		c0.084,0.063,0.307-0.063,0.387-0.005c0.079,0.064,0.074,0.228,0.153,0.292c0.085,0.063,0.265,0,0.344,0.063
		c0.08,0.063,0.053,0.254,0.132,0.318c0.074,0.063,0.217,0.042,0.297,0.106c0.074,0.063,0.19,0.084,0.275,0.148
		c0.074,0.063,0.148,0.138,0.222,0.201c0.075,0.058,0.042,0.27,0.122,0.328c0.08,0.063,0.218,0.059,0.292,0.117
		c0.079,0.063,0.085,0.222,0.164,0.286c0.079,0.063,0.175,0.101,0.26,0.159c0.074,0.063,0.138,0.148,0.222,0.212
		c0.074,0.063,0.35-0.127,0.435-0.069c0.079,0.063-0.031,0.365,0.048,0.429c0.079,0.064,0.159,0.127,0.238,0.191
		c0.074,0.063,0.18,0.09,0.26,0.153c0.079,0.064,0.259-0.005,0.339,0.064c0.079,0.058,0.016,0.296,0.095,0.36
		c0.08,0.063,0.202,0.069,0.281,0.132c0.074,0.069,0.132,0.154,0.212,0.223c0.074,0.063,0.223,0.042,0.297,0.106
		c0.079,0.063,0.031,0.275,0.11,0.344c0.08,0.069,0.286-0.026,0.366,0.037c0.074,0.063,0.254,0,0.333,0.063
		c0.08,0.063,0.111,0.18,0.191,0.244c0.079,0.063,0.09,0.207,0.174,0.265c0.074,0.063,0.207,0.059,0.286,0.117
		c0.08,0.063,0.154,0.138,0.233,0.201c0.074,0.058,0.042,0.275,0.122,0.339c0.079,0.063,0.201,0.063,0.28,0.122
		c0.085,0.058,0.291-0.059,0.371,0c0.085,0.058,0.079,0.238,0.158,0.296c0.085,0.058,0.159,0.138,0.239,0.196
		c0.079,0.059,0.153,0.138,0.232,0.191c0.08,0.063,0.164,0.122,0.249,0.18c0.079,0.063,0.106,0.19,0.186,0.254
		c0.079,0.063,0.27-0.011,0.344,0.053c0.08,0.059,0.218,0.053,0.297,0.116c0.074,0.063,0.144,0.148,0.223,0.207
		c0.074,0.063,0.122,0.169,0.201,0.228c0.074,0.068,0.031,0.275,0.111,0.339c0.079,0.069,0.132,0.164,0.206,0.233
		c0.08,0.063,0.286-0.026,0.36,0.042c0.085,0.063,0.212,0.063,0.286,0.133c0.079,0.068,0,0.317,0.074,0.387
		c0.074,0.063,0.243,0.021,0.317,0.09c0.074,0.068,0.117,0.18,0.191,0.249c0.079,0.063,0.211,0.058,0.285,0.127
		c0.085,0.063,0.011,0.302,0.085,0.37c0.08,0.063,0.355-0.105,0.435-0.042c0.074,0.069,0.18,0.105,0.254,0.17
		c0.074,0.063,0.148,0.127,0.228,0.195c0.08,0.069-0.005,0.323,0.069,0.387c0.079,0.063,0.275-0.011,0.35,0.053
		c0.085,0.059,0.085,0.212,0.169,0.275c0.074,0.063,0.117,0.181,0.196,0.244s0.148,0.138,0.228,0.201
		c0.085,0.063,0.218,0.053,0.297,0.116c0.085,0.063,0.201,0.074,0.286,0.127c0.079,0.063,0.085,0.223,0.169,0.286
		c0.08,0.063,0.244,0.011,0.323,0.074c0.08,0.063,0.059,0.26,0.138,0.323c0.08,0.059,0.334-0.101,0.413-0.037
		c0.08,0.059,0.101,0.201,0.181,0.265c0.079,0.063,0.095,0.212,0.175,0.271c0.084,0.063,0.138,0.153,0.212,0.217
		c0.084,0.063,0.28-0.021,0.359,0.043c0.08,0.063,0.212,0.063,0.286,0.121c0.085,0.063,0.17,0.122,0.244,0.181
		c0.084,0.063-0.054,0.407,0.026,0.471c0.079,0.059,0.143,0.138,0.228,0.201c0.079,0.064,0.223,0.043,0.302,0.106
		s0.18,0.101,0.26,0.159c0.085,0.063,0.116,0.185,0.195,0.248c0.08,0.064,0.139,0.154,0.218,0.218
		c0.085,0.063,0.381-0.159,0.461-0.106c0.079,0.063,0.063,0.255,0.143,0.318c0.085,0.063,0.159,0.127,0.244,0.19
		c0.084,0.059,0.053,0.265,0.138,0.323c0.084,0.063,0.328-0.101,0.413-0.048c0.084,0.063,0.127,0.159,0.212,0.212
		c0.084,0.053,0.153,0.138,0.248,0.18c0.091,0.054,0.101,0.266,0.191,0.308c0.09,0.042,0.217,0.016,0.307,0.059
		c0.096,0.047,0.281-0.111,0.371-0.069s0.19,0.085,0.28,0.127c0.091,0.048,0.191,0.096,0.275,0.148
		c0.085,0.053,0.122,0.18,0.201,0.233c0.085,0.053,0.128,0.175,0.207,0.232c0.079,0.054,0.217,0.032,0.302,0.091
		c0.074,0.058,0.048,0.265,0.127,0.317c0.085,0.059,0.255-0.011,0.339,0.048c0.08,0.053,0.138,0.138,0.212,0.195
		c0.085,0.054,0.117,0.191,0.201,0.238c0.085,0.054,0.265-0.073,0.35-0.031c0.096,0.053,0.212,0.042,0.308,0.09
		c0.095,0.048,0.085,0.297,0.175,0.339c0.09,0.048,0.143,0.175,0.238,0.223c0.095,0.042,0.243-0.037,0.339,0.005
		c0.096,0.043,0.265-0.084,0.36-0.042c0.095,0.042,0.105,0.26,0.201,0.302c0.095,0.043,0.175,0.116,0.27,0.159
		c0.091,0.042,0.175,0.111,0.271,0.148s0.201,0.063,0.297,0.105c0.09,0.043,0.238-0.037,0.333,0.006
		c0.091,0.042,0.229,0,0.323,0.042c0.101,0.053,0.106,0.297,0.196,0.339c0.101,0.053,0.195,0.096,0.28,0.148
		c0.096,0.063,0.292,0,0.36,0.063c0.085,0.079-0.048,0.317,0.005,0.402c0.059,0.09,0.196,0.127,0.223,0.233
		c0.026,0.095-0.037,0.195-0.037,0.307c-0.005,0.101,0.032,0.201,0.021,0.318c-0.021,0.095,0.021,0.212-0.011,0.328
		c-0.021,0.096-0.265,0.133-0.297,0.238c-0.031,0.09,0.233,0.291,0.191,0.376c-0.032,0.096-0.281,0.085-0.323,0.175
		c-0.048,0.085,0.068,0.265,0.016,0.345c-0.048,0.084-0.138,0.147-0.196,0.228c-0.058,0.079-0.313-0.006-0.376,0.068
		s0.085,0.339,0.021,0.408c-0.063,0.068-0.175,0.105-0.243,0.175c-0.074,0.063-0.148,0.127-0.223,0.19s-0.212,0.048-0.286,0.106
		c-0.074,0.063-0.138,0.138-0.212,0.195c-0.074,0.059-0.111,0.175-0.19,0.238c-0.074,0.059-0.255-0.016-0.339,0.043
		c-0.074,0.063-0.191,0.074-0.265,0.138c-0.085,0.063-0.074,0.201-0.17,0.243c-0.096,0.043-0.17,0.106-0.275,0.127
		c-0.096,0.011-0.196,0.011-0.302,0c-0.101-0.011-0.144-0.19-0.244-0.222c-0.101-0.032-0.222,0.053-0.313,0
		c-0.084-0.048-0.212-0.043-0.296-0.117c-0.074-0.063-0.09-0.19-0.159-0.275c-0.063-0.074-0.127-0.148-0.18-0.238
		c-0.043-0.09-0.271-0.074-0.318-0.159c-0.053-0.09,0.106-0.296,0.053-0.386c-0.053-0.085-0.185-0.117-0.238-0.202
		c-0.058-0.079-0.068-0.195-0.121-0.275c-0.059-0.084-0.063-0.206-0.127-0.285c-0.054-0.074-0.139-0.148-0.202-0.223
		s-0.206-0.085-0.275-0.159c-0.063-0.085-0.169-0.116-0.232-0.19c-0.069-0.074,0.021-0.291-0.048-0.36
		c-0.069-0.074-0.249-0.042-0.323-0.111c-0.063-0.068-0.042-0.238-0.116-0.307c-0.069-0.069-0.265-0.006-0.339-0.069
		c-0.074-0.068-0.223-0.053-0.297-0.116c-0.074-0.069-0.042-0.254-0.116-0.318c-0.08-0.063-0.085-0.222-0.159-0.28
		c-0.085-0.063-0.17-0.122-0.243-0.175c-0.08-0.063-0.159-0.127-0.233-0.19c-0.085-0.053-0.265,0.026-0.345-0.032
		c-0.079-0.053-0.195-0.068-0.275-0.127c-0.079-0.053-0.095-0.206-0.185-0.26c-0.08-0.058-0.085-0.228-0.17-0.286
		c-0.079-0.058-0.308,0.111-0.392,0.064c-0.085-0.054-0.048-0.303-0.133-0.355c-0.09-0.048-0.18-0.085-0.27-0.138
		c-0.085-0.053-0.286,0.101-0.371,0.053c-0.085-0.053-0.17-0.105-0.254-0.153c-0.091-0.048-0.117-0.196-0.207-0.249
		c-0.085-0.042-0.143-0.158-0.228-0.201c-0.085-0.053-0.127-0.18-0.217-0.223c-0.085-0.053-0.334,0.196-0.419,0.148
		c-0.085-0.053-0.048-0.333-0.138-0.381c-0.085-0.048-0.238,0.021-0.328-0.021c-0.085-0.048-0.138-0.159-0.223-0.212
		c-0.09-0.042-0.143-0.159-0.233-0.201c-0.084-0.048-0.228,0-0.313-0.048c-0.084-0.048-0.185-0.074-0.27-0.127
		c-0.09-0.048-0.085-0.26-0.175-0.307c-0.085-0.048-0.196-0.059-0.281-0.106c-0.084-0.048-0.243,0.026-0.328-0.026
		c-0.09-0.048-0.111-0.207-0.201-0.254c-0.085-0.054-0.159-0.117-0.243-0.17c-0.085-0.048-0.128-0.186-0.212-0.233
		c-0.085-0.053-0.339,0.191-0.424,0.144c-0.09-0.053-0.021-0.365-0.106-0.419c-0.084-0.047-0.243,0.021-0.328-0.031
		s-0.243,0.026-0.328-0.021c-0.085-0.053-0.085-0.243-0.17-0.296c-0.084-0.054-0.095-0.233-0.18-0.286
		c-0.085-0.054-0.291,0.095-0.376,0.047c-0.09-0.053-0.122-0.185-0.207-0.238c-0.084-0.053-0.238,0.011-0.322-0.042
		c-0.091-0.053-0.106-0.212-0.196-0.265c-0.085-0.048-0.233,0.011-0.318-0.037c-0.084-0.048-0.053-0.302-0.138-0.354
		c-0.084-0.054-0.265,0.053-0.344,0c-0.085-0.054-0.063-0.281-0.148-0.329c-0.085-0.053-0.238,0-0.323-0.053
		c-0.084-0.048-0.105-0.201-0.19-0.249c-0.085-0.053-0.297,0.096-0.381,0.048c-0.085-0.053-0.159-0.122-0.244-0.18
		c-0.085-0.048-0.164-0.106-0.243-0.159c-0.085-0.053-0.201-0.053-0.292-0.101c-0.084-0.048-0.185-0.08-0.27-0.133
		s-0.063-0.27-0.148-0.317c-0.085-0.053-0.217-0.032-0.302-0.085c-0.09-0.053-0.063-0.265-0.148-0.323
		c-0.079-0.053-0.26,0.043-0.345-0.011c-0.084-0.058-0.116-0.195-0.201-0.249c-0.079-0.053-0.195-0.063-0.275-0.116
		c-0.084-0.053-0.148-0.143-0.228-0.195c-0.079-0.059-0.26,0.036-0.344-0.021c-0.085-0.053-0.117-0.19-0.196-0.244
		c-0.079-0.058-0.085-0.228-0.164-0.286c-0.085-0.058-0.328,0.133-0.413,0.074c-0.085-0.058-0.096-0.212-0.181-0.265
		c-0.079-0.058-0.047-0.28-0.127-0.333c-0.085-0.064-0.328,0.116-0.413,0.063c-0.079-0.059-0.021-0.318-0.101-0.382
		c-0.079-0.053-0.297,0.085-0.376,0.026c-0.074-0.053-0.011-0.333-0.096-0.387c-0.079-0.058-0.275,0.054-0.359,0
		c-0.085-0.053-0.138-0.143-0.223-0.201c-0.085-0.053-0.138-0.148-0.223-0.201s-0.254,0.021-0.339-0.037
		c-0.079-0.058-0.105-0.195-0.19-0.249c-0.08-0.053-0.138-0.147-0.223-0.201c-0.084-0.053-0.164-0.111-0.244-0.169
		c-0.084-0.054-0.201-0.059-0.286-0.117c-0.079-0.053-0.254,0.027-0.339-0.031c-0.079-0.053-0.159-0.116-0.238-0.17
		c-0.08-0.053-0.101-0.206-0.185-0.259c-0.074-0.048-0.165-0.091-0.244-0.144c-0.074-0.053-0.148-0.09-0.233-0.127
		c-0.084-0.042-0.127-0.159-0.222-0.17c-0.106-0.01-0.169-0.19-0.27-0.217c-0.106-0.026-0.249,0.096-0.344,0.059
		c-0.101-0.032-0.143-0.19-0.239-0.244c-0.101-0.042-0.323,0.17-0.418,0.117c-0.096-0.048-0.074-0.281-0.17-0.339
		c-0.084-0.059-0.238-0.021-0.323-0.085c-0.09-0.063-0.217-0.063-0.302-0.127c-0.085-0.063,0.047-0.397-0.032-0.466
		c-0.084-0.069-0.217-0.064-0.296-0.133c-0.084-0.069-0.201-0.095-0.286-0.164c-0.074-0.063-0.238-0.021-0.317-0.079
		c-0.085-0.059-0.016-0.334-0.096-0.387c-0.084-0.063-0.291,0.053-0.376,0c-0.084-0.053-0.175-0.096-0.265-0.148
		c-0.09-0.058-0.058-0.307-0.143-0.365c-0.085-0.048-0.244,0.016-0.339-0.027c-0.085-0.053-0.117-0.201-0.212-0.254
		c-0.085-0.048-0.307,0.148-0.402,0.106c-0.085-0.048-0.117-0.223-0.202-0.265c-0.09-0.042-0.254,0.059-0.349,0.011
		c-0.096-0.048-0.18-0.085-0.275-0.132c-0.09-0.048-0.191-0.08-0.275-0.132c-0.096-0.042-0.064-0.329-0.148-0.381
		c-0.095-0.042-0.212-0.042-0.297-0.085c-0.095-0.053-0.212-0.037-0.302-0.084c-0.09-0.053-0.09-0.265-0.18-0.313
		c-0.09-0.048-0.307,0.132-0.397,0.079c-0.09-0.047-0.169-0.122-0.254-0.175c-0.09-0.058-0.159-0.143-0.244-0.207
		c-0.084-0.053-0.074-0.244-0.159-0.307c-0.08-0.058-0.117-0.18-0.201-0.244c-0.08-0.053-0.329,0.106-0.413,0.053
		c-0.08-0.063-0.212-0.053-0.297-0.111c-0.084-0.058-0.01-0.339-0.095-0.397c-0.085-0.064-0.143-0.159-0.228-0.212
		c-0.09-0.053-0.228-0.021-0.323-0.074c-0.085-0.053-0.159-0.122-0.244-0.169c-0.09-0.042-0.286,0.116-0.371,0.074
		c-0.096-0.042-0.021-0.413-0.117-0.456c-0.09-0.042-0.339,0.244-0.429,0.201c-0.09-0.042-0.069-0.329-0.159-0.371
		c-0.09-0.042-0.175-0.106-0.259-0.148c-0.096-0.042-0.148-0.143-0.244-0.19c-0.085-0.042-0.318,0.18-0.408,0.138
		c-0.09-0.053-0.133-0.18-0.217-0.233c-0.085-0.053-0.18-0.095-0.265-0.159c-0.079-0.053-0.211-0.058-0.286-0.122
		c-0.085-0.069-0.053-0.249-0.117-0.323c-0.074-0.074-0.063-0.233-0.143-0.307c-0.079-0.069-0.354,0.095-0.434,0.032
		c-0.08-0.069-0.069-0.244-0.154-0.302c-0.079-0.063-0.212-0.058-0.291-0.116c-0.085-0.058-0.111-0.207-0.196-0.26
		c-0.095-0.058-0.185-0.095-0.275-0.148c-0.09-0.053-0.233,0-0.328-0.053c-0.09-0.042-0.074-0.296-0.169-0.344
		c-0.095-0.047-0.191-0.084-0.281-0.132c-0.095-0.042-0.249,0.048-0.344,0.005c-0.095-0.048-0.159-0.164-0.249-0.207
		c-0.095-0.042-0.196-0.053-0.291-0.095c-0.096-0.048-0.18-0.106-0.276-0.148c-0.095-0.042-0.254,0.063-0.349,0.021
		c-0.096-0.042-0.202-0.063-0.297-0.111c-0.084-0.047-0.063-0.302-0.148-0.344c-0.084-0.047-0.222-0.01-0.307-0.063
		c-0.084-0.053-0.143-0.148-0.222-0.201c-0.085-0.053-0.286,0.074-0.371,0.021c-0.08-0.053,0.026-0.392-0.064-0.445
		c-0.079-0.053-0.233,0-0.317-0.053c-0.08-0.053-0.117-0.18-0.191-0.233c-0.084-0.064-0.159-0.117-0.244-0.175
		c-0.08-0.059-0.116-0.165-0.196-0.228s-0.186-0.079-0.265-0.138c-0.079-0.063-0.312,0.074-0.386,0.021
		c-0.085-0.063-0.09-0.212-0.169-0.275c-0.074-0.063-0.106-0.191-0.18-0.249C5.987,16.599,5.77,16.71,5.69,16.646
		c-0.074-0.058-0.159-0.116-0.233-0.175c-0.074-0.063-0.122-0.153-0.201-0.217c-0.074-0.063-0.069-0.228-0.148-0.292
		c-0.074-0.058-0.222-0.058-0.296-0.132c-0.069-0.074-0.095-0.201-0.159-0.281c-0.059-0.08-0.154-0.143-0.207-0.228
		c-0.059-0.08,0.058-0.275,0.005-0.36c-0.053-0.084-0.074-0.19-0.122-0.275c-0.053-0.095-0.207-0.117-0.254-0.212
		c-0.047-0.084-0.09-0.18-0.132-0.27c-0.053-0.09-0.233-0.101-0.286-0.186c-0.053-0.095,0.106-0.233,0.048-0.313
		C3.773,13.675,3.699,13.638,3.752,13.611z M6.771,9.475c-0.106,0.032-0.18,0.138-0.275,0.159C6.389,9.655,6.251,9.491,6.156,9.507
		C6.05,9.533,5.923,9.518,5.838,9.56C5.738,9.602,5.722,9.771,5.653,9.851c-0.059,0.069-0.011,0.169-0.042,0.281
		c-0.026,0.085-0.063,0.159-0.069,0.275c0,0.074-0.159,0.244-0.302,0.307c-0.111,0.058-0.286,0-0.366,0.058
		C4.8,10.82,4.663,10.82,4.578,10.884c-0.106,0.074-0.148,0.217-0.148,0.292c0,0.101,0.101,0.207,0.095,0.313
		c0,0.106,0.08,0.212,0.074,0.307c0,0.106-0.127,0.212-0.127,0.313s0.047,0.207,0.053,0.307c0,0.106,0.021,0.207,0.032,0.302
		c0.011,0.106,0.074,0.191,0.09,0.292c0.021,0.101-0.011,0.201,0.026,0.302c0.032,0.095-0.074,0.244-0.042,0.333
		c0.037,0.09,0.132,0.165,0.175,0.26c0.048,0.09-0.042,0.244,0.005,0.333s0.191,0.132,0.244,0.217
		c0.048,0.09,0.196,0.116,0.254,0.201c0.053,0.085,0.159,0.127,0.217,0.212c0.059,0.08-0.053,0.286,0.011,0.371
		c0.063,0.074,0.201,0.09,0.27,0.164c0.063,0.074,0.042,0.238,0.111,0.313c0.069,0.069,0.223,0.063,0.296,0.133
		c0.074,0.068,0.069,0.222,0.148,0.291c0.074,0.063,0.212,0.063,0.292,0.127c0.074,0.064,0.265-0.016,0.344,0.042
		c0.079,0.063-0.037,0.387,0.042,0.445c0.08,0.063,0.297-0.063,0.376-0.005c0.084,0.059,0.211,0.048,0.296,0.106
		c0.085,0.059,0.021,0.339,0.106,0.397c0.084,0.053,0.275-0.063,0.36-0.016c0.084,0.053,0.19,0.08,0.275,0.132
		c0.084,0.048,0.19,0.064,0.28,0.117c0.09,0.048,0.021,0.371,0.111,0.418c0.09,0.048,0.254-0.026,0.339,0.021
		c0.09,0.048,0.223,0.021,0.307,0.074c0.096,0.048,0.111,0.217,0.202,0.265c0.09,0.047,0.254-0.037,0.344,0.016
		c0.09,0.053,0.207,0.042,0.291,0.095c0.095,0.048,0.042,0.339,0.132,0.387c0.09,0.048,0.175,0.111,0.26,0.164
		c0.084,0.048,0.254-0.047,0.344,0.005c0.09,0.048,0.148,0.148,0.238,0.196c0.09,0.053,0.18,0.095,0.265,0.148
		c0.09,0.048,0.233,0.005,0.318,0.053c0.085,0.053,0.063,0.296,0.148,0.35c0.095,0.053,0.148,0.148,0.244,0.196
		c0.084,0.048,0.313-0.143,0.402-0.09c0.085,0.053,0.201,0.047,0.286,0.095c0.095,0.053,0.095,0.254,0.18,0.302
		c0.095,0.048,0.148,0.154,0.233,0.207c0.095,0.048,0.201,0.053,0.291,0.106c0.09,0.053,0.138,0.169,0.223,0.223
		c0.085,0.053,0.228,0.01,0.313,0.063c0.095,0.053,0.138,0.169,0.223,0.222c0.09,0.053,0.148,0.148,0.238,0.201
		c0.084,0.053,0.238-0.01,0.323,0.042c0.09,0.053,0.249-0.021,0.339,0.032c0.085,0.053,0.159,0.138,0.244,0.191
		c0.085,0.047,0.042,0.318,0.138,0.371c0.085,0.048,0.169,0.106,0.26,0.154c0.084,0.047,0.333-0.17,0.418-0.117
		c0.084,0.048,0.074,0.275,0.159,0.323c0.085,0.053,0.223,0.032,0.307,0.084c0.096,0.053,0.217,0.032,0.307,0.085
		c0.085,0.053,0.191,0.079,0.275,0.138c0.085,0.047,0.053,0.307,0.138,0.36c0.085,0.053,0.127,0.18,0.212,0.233
		c0.09,0.053,0.196,0.074,0.275,0.127c0.085,0.047,0.35-0.186,0.435-0.138c0.084,0.053,0,0.381,0.084,0.439
		c0.085,0.048,0.318-0.132,0.403-0.08c0.084,0.053,0.116,0.191,0.201,0.244c0.084,0.053,0.212,0.032,0.296,0.09
		c0.085,0.047,0.074,0.259,0.159,0.307c0.084,0.058,0.127,0.175,0.212,0.228c0.084,0.059,0.307-0.116,0.392-0.063
		c0.09,0.053,0.106,0.212,0.191,0.265c0.09,0.053,0.275-0.053,0.354,0c0.085,0.053,0.042,0.308,0.127,0.36
		c0.09,0.053,0.127,0.18,0.207,0.233c0.084,0.053,0.328-0.148,0.413-0.09c0.084,0.058,0.18,0.09,0.259,0.143
		c0.085,0.053,0.122,0.18,0.207,0.233c0.09,0.053,0.201,0.063,0.286,0.117c0.08,0.053,0.159,0.127,0.244,0.175
		c0.084,0.053,0.132,0.153,0.222,0.207c0.085,0.058,0.165,0.116,0.244,0.169c0.085,0.053,0.212,0.037,0.297,0.095
		c0.084,0.053,0.159,0.127,0.244,0.18c0.084,0.053,0.164,0.106,0.249,0.159c0.09,0.053,0.005,0.36,0.09,0.418
		c0.084,0.053,0.286-0.074,0.371-0.021c0.08,0.058,0.212,0.037,0.297,0.09c0.084,0.053,0.01,0.35,0.095,0.408
		c0.084,0.053,0.302-0.101,0.381-0.047c0.084,0.058,0.101,0.222,0.19,0.275c0.085,0.053,0.254-0.032,0.339,0.021
		c0.085,0.058,0.08,0.254,0.165,0.307c0.084,0.053,0.222,0.021,0.307,0.079c0.09,0.054,0.201,0.059,0.286,0.111
		c0.084,0.054,0.159,0.122,0.249,0.17c0.085,0.058,0.064,0.265,0.148,0.323c0.085,0.053,0.223,0.031,0.302,0.084
		c0.08,0.059,0.101,0.207,0.191,0.26c0.084,0.059,0.185,0.085,0.27,0.138c0.084,0.053,0.154,0.127,0.244,0.181
		c0.084,0.053,0.339-0.165,0.424-0.106c0.085,0.053,0,0.36,0.085,0.419c0.084,0.058,0.175,0.105,0.254,0.158
		c0.085,0.059,0.19,0.074,0.275,0.133c0.09,0.053,0.26-0.032,0.35,0.021c0.085,0.053,0.048,0.296,0.132,0.349
		c0.091,0.054,0.212,0.043,0.297,0.096c0.09,0.053,0.153,0.138,0.238,0.19c0.085,0.054,0.233,0.017,0.318,0.069
		c0.084,0.058,0.063,0.275,0.147,0.328c0.085,0.059,0.286-0.068,0.371-0.011c0.085,0.053,0.254-0.026,0.339,0.026
		c0.085,0.054,0.138,0.17,0.223,0.223s0.116,0.19,0.201,0.244c0.085,0.053,0.223,0.037,0.308,0.095
		c0.084,0.053,0.158,0.117,0.243,0.17c0.09,0.053,0.063,0.275,0.148,0.328c0.09,0.053,0.212,0.053,0.297,0.105
		c0.084,0.054,0.286-0.073,0.37-0.021c0.085,0.058,0.096,0.243,0.181,0.291c0.084,0.059,0.153,0.133,0.243,0.186
		c0.085,0.053,0.153,0.127,0.238,0.18s0.175,0.106,0.26,0.159s0.116,0.18,0.201,0.233c0.09,0.058,0.265-0.037,0.354,0.016
		c0.085,0.053,0.218,0.037,0.302,0.09c0.08,0.053,0.159,0.127,0.244,0.18c0.085,0.054,0.143,0.148,0.233,0.202
		c0.084,0.053,0.074,0.265,0.158,0.317c0.085,0.053,0.148,0.143,0.233,0.19c0.085,0.053,0.28-0.063,0.371-0.011
		c0.084,0.054,0.211,0.037,0.296,0.085c0.085,0.053,0.054,0.313,0.138,0.371c0.085,0.048,0.244-0.021,0.329,0.037
		c0.084,0.048,0.138,0.153,0.228,0.206c0.084,0.053,0.217,0.032,0.302,0.085c0.085,0.048,0.053,0.297,0.148,0.35
		c0.084,0.053,0.328-0.164,0.413-0.116c0.084,0.053,0.19,0.074,0.28,0.121c0.09,0.054,0.175,0.101,0.26,0.154
		c0.09,0.053,0.042,0.322,0.138,0.37c0.085,0.053,0.265-0.058,0.35-0.011c0.09,0.054,0.122,0.201,0.212,0.255
		c0.085,0.042,0.143,0.153,0.228,0.201c0.09,0.053,0.17,0.116,0.254,0.169c0.09,0.043,0.218,0.017,0.308,0.063
		c0.09,0.048,0.206,0.043,0.297,0.085c0.09,0.043,0.121,0.196,0.212,0.244c0.09,0.042,0.238-0.037,0.333,0.011
		c0.085,0.047,0.096,0.243,0.19,0.285c0.085,0.043,0.303-0.158,0.393-0.116c0.095,0.042,0.138,0.18,0.223,0.223
		c0.095,0.042,0.138,0.186,0.222,0.232c0.096,0.043,0.17,0.128,0.255,0.17c0.095,0.042,0.265-0.085,0.359-0.042
		c0.091,0.042,0.212,0.016,0.303,0.058c0.09,0.048,0.185,0.08,0.27,0.127c0.096,0.043,0.032,0.408,0.116,0.45
		c0.096,0.043,0.17,0.111,0.266,0.159c0.09,0.043,0.222-0.005,0.317,0.037c0.085,0.042,0.19,0.059,0.286,0.101
		c0.085,0.043,0.148,0.159,0.232,0.201c0.091,0.043,0.159,0.127,0.255,0.175c0.085,0.043,0.339-0.238,0.424-0.19
		c0.095,0.048,0.105,0.238,0.195,0.28c0.08,0.037,0.154,0.101,0.218,0.159c0.068,0.059,0,0.249,0.063,0.313
		c0.063,0.069,0.328-0.059,0.392,0.005c0.063,0.069,0.085,0.175,0.138,0.244c0.063,0.063,0.096,0.164,0.153,0.233
		c0.059,0.063-0.016,0.259,0.037,0.328c0.063,0.063,0.181,0.085,0.244,0.148c0.063,0.074,0.297,0,0.36,0.074
		s0.138,0.138,0.206,0.212c0.069,0.073,0.133,0.143,0.201,0.211c0.069,0.074,0.069,0.202,0.138,0.275
		c0.069,0.074,0.08,0.202,0.144,0.276c0.063,0.073,0.212,0.073,0.275,0.147c0.068,0.074,0,0.266,0.068,0.339
		c0.069,0.074,0.249,0.043,0.313,0.117c0.069,0.074,0.106,0.18,0.17,0.254c0.068,0.074,0.053,0.212,0.121,0.286
		c0.069,0.074,0.281,0.021,0.345,0.096c0.063,0.079,0.175,0.116,0.238,0.19c0.059,0.079-0.059,0.297,0.005,0.376
		c0.054,0.079,0.037,0.217,0.096,0.291c0.063,0.09,0.238,0.09,0.297,0.164c0.074,0.09,0.275,0.032,0.344,0.101
		c0.08,0.074,0.017,0.275,0.096,0.334c0.09,0.068,0.169,0.153,0.26,0.186c0.095,0.042,0.212,0.085,0.317,0.085
		c0.096,0,0.207-0.043,0.313-0.08c0.09-0.031,0.122-0.19,0.217-0.249c0.08-0.053,0.096-0.175,0.181-0.243
		c0.074-0.063,0.296,0.042,0.376-0.032c0.068-0.068,0.121-0.143,0.195-0.201c0.064-0.068,0.011-0.254,0.085-0.317
		c0.063-0.069,0.313,0.053,0.382-0.016c0.063-0.069,0.042-0.223,0.101-0.292c0.063-0.068,0.175-0.095,0.238-0.169
		c0.063-0.063,0.085-0.17,0.138-0.244c0.063-0.085,0.063-0.201,0.116-0.28c0.053-0.09,0.297-0.085,0.328-0.17
		c0.043-0.101-0.228-0.28-0.212-0.37c0.021-0.101,0.244-0.186,0.233-0.281c-0.011-0.095-0.217-0.127-0.26-0.223
		c-0.042-0.079-0.058-0.158-0.121-0.232c-0.064-0.069,0.016-0.328-0.069-0.387c-0.074-0.053-0.313,0.148-0.408,0.101
		c-0.079-0.042-0.143-0.122-0.243-0.159c-0.09-0.031-0.18-0.063-0.275-0.09c-0.096-0.031-0.153-0.164-0.249-0.186
		c-0.09-0.031-0.196-0.042-0.291-0.068c-0.09-0.026-0.207,0.011-0.297-0.017c-0.096-0.026-0.138-0.222-0.233-0.248
		c-0.095-0.032-0.164-0.122-0.259-0.154c-0.09-0.031-0.223,0.054-0.313,0.017c-0.096-0.037-0.201-0.027-0.292-0.069
		c-0.09-0.042-0.18-0.085-0.265-0.127c-0.09-0.053-0.101-0.249-0.186-0.297c-0.095-0.053-0.243,0.006-0.333-0.053
		c-0.09-0.053-0.218-0.042-0.302-0.101c-0.085-0.059-0.138-0.175-0.223-0.238c-0.085-0.053-0.18-0.101-0.265-0.159
		c-0.085-0.063-0.286,0.053-0.371-0.011s-0.031-0.323-0.116-0.381c-0.085-0.059-0.223-0.048-0.308-0.106
		c-0.085-0.058-0.138-0.169-0.223-0.222c-0.084-0.064-0.138-0.175-0.222-0.233c-0.085-0.059-0.186-0.096-0.275-0.148
		c-0.085-0.059-0.229-0.026-0.318-0.085c-0.085-0.053-0.201-0.053-0.286-0.111c-0.084-0.053-0.053-0.285-0.138-0.344
		c-0.084-0.053-0.254,0.021-0.339-0.037c-0.084-0.053-0.084-0.228-0.169-0.28c-0.085-0.054-0.275,0.042-0.355-0.021
		c-0.079-0.053-0.228-0.026-0.313-0.08c-0.079-0.058-0.074-0.248-0.153-0.312c-0.079-0.054-0.101-0.207-0.18-0.266
		c-0.08-0.058-0.175-0.105-0.255-0.169c-0.079-0.059-0.158-0.127-0.238-0.181c-0.084-0.063-0.265,0.021-0.35-0.037
		c-0.084-0.058-0.195-0.079-0.275-0.138c-0.079-0.058-0.095-0.212-0.175-0.27c-0.079-0.063-0.073-0.233-0.153-0.297
		c-0.085-0.063-0.317,0.085-0.402,0.026c-0.079-0.063-0.016-0.302-0.096-0.365c-0.084-0.063-0.175-0.111-0.254-0.175
		c-0.074-0.059-0.302,0.063-0.381,0c-0.074-0.059-0.154-0.122-0.233-0.186c-0.085-0.063-0.096-0.212-0.17-0.275
		c-0.079-0.063-0.116-0.18-0.195-0.243c-0.08-0.059-0.101-0.19-0.186-0.255c-0.079-0.063-0.36,0.138-0.445,0.074
		c-0.074-0.063,0.011-0.333-0.068-0.396s-0.238-0.017-0.323-0.08c-0.074-0.063-0.105-0.186-0.19-0.249
		c-0.074-0.058-0.111-0.18-0.19-0.243c-0.074-0.063-0.223-0.037-0.308-0.101c-0.074-0.063-0.17-0.106-0.254-0.17
		c-0.08-0.063-0.043-0.27-0.117-0.328c-0.079-0.063-0.19-0.096-0.265-0.159c-0.079-0.058-0.249-0.01-0.328-0.074
		c-0.079-0.058-0.079-0.222-0.159-0.285c-0.074-0.063-0.148-0.138-0.222-0.202c-0.08-0.063-0.096-0.206-0.175-0.27
		c-0.08-0.063-0.371,0.143-0.45,0.079c-0.074-0.063,0.031-0.36-0.043-0.424c-0.079-0.063-0.243-0.026-0.323-0.084
		c-0.079-0.063-0.249-0.017-0.333-0.074c-0.074-0.063-0.054-0.265-0.127-0.323c-0.08-0.063-0.064-0.249-0.144-0.308
		c-0.079-0.063-0.302,0.048-0.381-0.016c-0.08-0.059-0.096-0.201-0.175-0.265c-0.074-0.063-0.233-0.032-0.313-0.09
		c-0.08-0.063-0.08-0.229-0.154-0.292c-0.084-0.063-0.243-0.021-0.322-0.084c-0.08-0.063-0.006-0.313-0.085-0.371
		c-0.08-0.063-0.271,0.011-0.355-0.053c-0.073-0.063-0.021-0.286-0.105-0.35c-0.074-0.063-0.233-0.032-0.313-0.096
		s-0.079-0.223-0.164-0.28c-0.074-0.063-0.308,0.053-0.387-0.006c-0.079-0.063-0.143-0.148-0.223-0.211
		c-0.079-0.063-0.153-0.138-0.232-0.196c-0.08-0.064-0.196-0.08-0.281-0.143c-0.074-0.064-0.169-0.106-0.249-0.169
		c-0.079-0.064-0.037-0.275-0.111-0.344c-0.079-0.059-0.217-0.059-0.296-0.122c-0.074-0.063-0.032-0.281-0.111-0.35
		c-0.08-0.058-0.271,0.016-0.345-0.053c-0.085-0.063-0.095-0.201-0.175-0.27c-0.079-0.064-0.19-0.08-0.27-0.148
		c-0.085-0.063-0.133-0.164-0.212-0.228c-0.08-0.063-0.265,0.011-0.35-0.058c-0.074-0.058-0.096-0.201-0.175-0.265
		c-0.08-0.059-0.069-0.238-0.144-0.302c-0.079-0.064-0.339,0.095-0.418,0.032c-0.079-0.064-0.079-0.223-0.159-0.286
		c-0.079-0.063-0.031-0.281-0.111-0.344c-0.074-0.063-0.333,0.09-0.413,0.026c-0.074-0.063,0-0.318-0.084-0.381
		c-0.074-0.063-0.303,0.053-0.382-0.011c-0.074-0.069,0.011-0.339-0.068-0.402c-0.08-0.058-0.292,0.037-0.366-0.021
		c-0.074-0.063-0.132-0.159-0.212-0.223c-0.073-0.063-0.132-0.159-0.211-0.222c-0.08-0.064-0.259,0-0.339-0.064
		c-0.074-0.063-0.095-0.201-0.169-0.265s-0.132-0.148-0.212-0.212c-0.074-0.058-0.154-0.116-0.233-0.18
		c-0.074-0.063-0.196-0.074-0.275-0.132c-0.074-0.058-0.254,0.011-0.334-0.047c-0.079-0.064-0.153-0.127-0.233-0.186
		s-0.09-0.212-0.164-0.27c-0.085-0.058-0.169-0.106-0.254-0.164c-0.074-0.059-0.159-0.111-0.244-0.165
		c-0.08-0.063-0.111-0.19-0.19-0.249c-0.074-0.059-0.063-0.249-0.143-0.302c-0.08-0.063-0.249,0.005-0.333-0.053
		c-0.074-0.058-0.08-0.223-0.159-0.281c-0.074-0.058-0.333,0.122-0.413,0.063c-0.074-0.058-0.032-0.286-0.117-0.344
		c-0.074-0.058-0.228-0.021-0.307-0.08c-0.084-0.058-0.212-0.053-0.286-0.111c-0.08-0.059,0.042-0.392-0.037-0.456
		c-0.08-0.063-0.212-0.042-0.292-0.106c-0.074-0.063-0.19-0.074-0.265-0.132c-0.08-0.059-0.238-0.016-0.318-0.074
		c-0.085-0.063,0-0.329-0.074-0.392c-0.084-0.058-0.296,0.048-0.371-0.016c-0.085-0.064-0.169-0.117-0.249-0.18
		s-0.005-0.318-0.08-0.376c-0.079-0.063-0.249-0.021-0.328-0.08c-0.074-0.069-0.074-0.222-0.154-0.286
		c-0.079-0.063-0.333,0.085-0.413,0.021c-0.079-0.063-0.069-0.233-0.148-0.297c-0.08-0.063-0.26,0.005-0.339-0.058
		c-0.079-0.058-0.164-0.117-0.244-0.18c-0.079-0.058-0.164-0.111-0.244-0.169c-0.079-0.058,0-0.339-0.09-0.397
		c-0.08-0.064-0.196-0.074-0.281-0.138c-0.09-0.053-0.207-0.059-0.291-0.117c-0.08-0.058-0.064-0.27-0.143-0.329
		c-0.085-0.058-0.323,0.101-0.408,0.042c-0.085-0.058-0.154-0.132-0.238-0.19c-0.09-0.059-0.148-0.148-0.228-0.207
		c-0.09-0.059-0.084-0.249-0.169-0.307c-0.085-0.059-0.122-0.186-0.201-0.238c-0.09-0.059-0.329,0.116-0.413,0.058
		c-0.09-0.058-0.223-0.042-0.307-0.101c-0.085-0.059-0.016-0.339-0.101-0.403c-0.09-0.053-0.143-0.148-0.228-0.207
		c-0.084-0.058-0.233-0.026-0.313-0.09c-0.084-0.053-0.153-0.132-0.238-0.19c-0.084-0.053-0.302,0.084-0.392,0.021
		c-0.084-0.053,0.037-0.413-0.047-0.471c-0.085-0.059-0.376,0.185-0.461,0.132c-0.084-0.063-0.016-0.339-0.101-0.403
		c-0.084-0.053-0.153-0.127-0.238-0.19c-0.09-0.053-0.138-0.169-0.217-0.223c-0.079-0.053-0.344,0.138-0.429,0.08
		c-0.085-0.058-0.117-0.19-0.201-0.249c-0.085-0.053-0.18-0.101-0.265-0.159c-0.084-0.063-0.212-0.053-0.296-0.111
		c-0.08-0.058-0.074-0.244-0.159-0.302c-0.09-0.063-0.101-0.223-0.18-0.275c-0.09-0.063-0.35,0.127-0.429,0.074
		c-0.08-0.064-0.084-0.238-0.169-0.297c-0.08-0.058-0.212-0.053-0.292-0.111c-0.084-0.058-0.106-0.211-0.185-0.265
		c-0.08-0.058-0.175-0.106-0.26-0.164c-0.079-0.058-0.233-0.016-0.317-0.074c-0.085-0.053-0.042-0.302-0.127-0.355
		c-0.084-0.058-0.175-0.106-0.259-0.153c-0.085-0.053-0.249,0.021-0.339-0.021c-0.09-0.047-0.143-0.164-0.228-0.212
		c-0.095-0.042-0.201-0.063-0.291-0.101c-0.09-0.037-0.18-0.095-0.271-0.132c-0.095-0.032-0.244,0.095-0.339,0.063
		c-0.095-0.026-0.19-0.021-0.286-0.042c-0.095-0.021-0.148-0.275-0.244-0.286c-0.101-0.021-0.211,0.063-0.317,0.053
		c-0.096-0.005-0.191-0.063-0.297-0.063c-0.074,0-0.238,0.154-0.307,0.117s0.037-0.381-0.026-0.413
		c-0.08-0.053-0.233,0.016-0.313-0.032c-0.085-0.042-0.127-0.159-0.212-0.212c-0.08-0.053-0.169-0.095-0.244-0.138
		C7.449,9.771,7.396,9.666,7.316,9.618C7.237,9.57,7.12,9.57,7.041,9.518C6.988,9.464,6.85,9.528,6.771,9.475z"/>
	<path d="M14.927,44.145c-0.101-0.006-0.201,0.053-0.307,0.047c-0.095-0.005-0.201-0.026-0.296-0.037
		c-0.101-0.01-0.196-0.068-0.297-0.079s-0.222,0.133-0.318,0.122c-0.106-0.011-0.185-0.148-0.286-0.164
		c-0.101-0.017-0.196-0.059-0.297-0.069c-0.095-0.021-0.228,0.127-0.323,0.116c-0.101-0.021-0.154-0.254-0.254-0.275
		c-0.101-0.021-0.19-0.058-0.292-0.084c-0.095-0.021-0.222,0.074-0.317,0.047c-0.101-0.026-0.207-0.036-0.297-0.063
		c-0.101-0.026-0.159-0.185-0.254-0.217c-0.096-0.031-0.254,0.127-0.35,0.085c-0.09-0.032-0.074-0.36-0.165-0.397
		c-0.09-0.037-0.217,0.016-0.307-0.026c-0.095-0.042-0.27,0.105-0.365,0.063c-0.085-0.042-0.196-0.063-0.286-0.105
		c-0.084-0.048-0.106-0.223-0.196-0.266c-0.085-0.053-0.085-0.243-0.175-0.296c-0.085-0.054-0.18-0.074-0.265-0.138
		c-0.08-0.054-0.202-0.043-0.286-0.106C8.91,42.243,8.826,42.2,8.746,42.137s-0.265-0.005-0.339-0.068
		c-0.08-0.063-0.101-0.196-0.175-0.266c-0.074-0.073,0.042-0.328-0.021-0.392c-0.074-0.074-0.403,0.085-0.472,0.011
		c-0.069-0.079,0.037-0.297-0.016-0.376c-0.063-0.079-0.212-0.101-0.265-0.186c-0.058-0.085-0.19-0.127-0.244-0.212
		c-0.053-0.085-0.138-0.164-0.18-0.254c-0.048-0.085,0.228-0.339,0.185-0.429C7.178,39.875,6.94,39.87,6.898,39.78
		c-0.032-0.096,0.042-0.233,0-0.329c-0.032-0.095-0.122-0.169-0.154-0.265c-0.026-0.095-0.217-0.148-0.244-0.243
		c-0.026-0.096,0.085-0.233,0.058-0.328c-0.021-0.101-0.09-0.191-0.111-0.286c-0.016-0.101-0.069-0.19-0.09-0.297
		c-0.021-0.096,0-0.201-0.021-0.302c-0.011-0.101,0.207-0.228,0.19-0.334c-0.01-0.101-0.169-0.186-0.169-0.291
		c-0.01-0.101,0.117-0.207,0.111-0.308c0-0.105-0.032-0.195-0.032-0.302c0.005-0.105,0.058-0.201,0.069-0.302
		c0.005-0.101-0.058-0.206-0.042-0.313c0.011-0.095,0.021-0.195,0.042-0.297c0.021-0.105,0.074-0.19,0.095-0.296
		c0.021-0.096-0.032-0.212-0.01-0.313c0.032-0.101-0.096-0.249-0.064-0.345c0.042-0.101,0.223-0.143,0.265-0.232
		c0.042-0.096,0.042-0.212,0.09-0.308c0.042-0.09,0.09-0.186,0.138-0.275c0.048-0.085,0.132-0.159,0.191-0.243
		c0.053-0.085,0.047-0.212,0.111-0.303c0.053-0.084,0.275-0.047,0.339-0.132c0.063-0.085,0.116-0.159,0.185-0.238
		c0.069-0.074-0.069-0.323-0.005-0.397s0.132-0.148,0.201-0.223c0.064-0.074,0.339,0.032,0.403-0.042
		c0.069-0.074-0.111-0.371-0.042-0.445c0.063-0.074,0.238-0.053,0.307-0.127s0.042-0.238,0.111-0.307
		c0.069-0.074,0.371,0.074,0.439,0.005c0.074-0.068,0.117-0.164,0.191-0.233c0.069-0.068,0.042-0.238,0.116-0.307
		c0.074-0.069,0.275,0.005,0.35-0.059c0.074-0.068-0.08-0.413,0-0.477c0.074-0.059,0.186-0.09,0.265-0.148
		c0.084-0.058,0.169-0.121,0.254-0.18c0.085-0.053,0.212-0.053,0.297-0.106c0.084-0.053,0.222-0.016,0.307-0.063
		c0.09-0.042,0.201-0.031,0.296-0.074c0.09-0.042,0.148-0.147,0.244-0.18c0.095-0.037,0.127-0.243,0.228-0.275
		c0.09-0.032,0.223,0.021,0.323,0c0.095-0.026,0.196-0.037,0.296-0.063c0.096-0.016,0.212,0.096,0.318,0.079
		c0.096-0.016,0.169-0.238,0.275-0.249c0.096-0.016,0.202-0.021,0.302-0.026c0.101-0.005,0.207,0.006,0.307,0
		c0.101,0,0.201,0.074,0.302,0.08c0.106,0,0.19,0.201,0.292,0.212c0.101,0.01,0.207-0.128,0.307-0.117s0.207-0.021,0.302-0.011
		c0.101,0.017,0.175,0.207,0.275,0.223c0.095,0.011,0.212-0.095,0.318-0.079c0.095,0.016,0.185,0.111,0.286,0.132
		c0.096,0.011,0.207-0.053,0.308-0.042c0.105,0.011,0.196,0.053,0.296,0.063c0.106,0.011,0.223-0.18,0.318-0.169
		c0.106,0.01,0.164,0.37,0.265,0.381c0.095,0.011,0.191,0.011,0.286,0.032c0.101,0.021,0.259-0.244,0.36-0.212
		c0.096,0.021,0.169,0.143,0.265,0.175c0.095,0.037,0.159,0.132,0.254,0.185c0.085,0.043,0.286-0.068,0.371-0.01
		c0.079,0.058,0.116,0.195,0.19,0.254c0.08,0.063,0.053,0.265,0.138,0.328c0.074,0.063,0.281-0.042,0.36,0.011
		c0.084,0.063,0,0.387,0.084,0.435c0.09,0.053,0.307-0.144,0.397-0.106c0.09,0.037,0.106,0.255,0.19,0.297
		c0.09,0.048,0.329-0.159,0.413-0.106c0.09,0.054,0.175,0.138,0.249,0.191c0.08,0.063-0.021,0.35,0.048,0.413
		c0.074,0.068,0.344-0.053,0.408,0.021c0.069,0.074-0.063,0.318,0,0.403c0.063,0.074,0.18,0.111,0.233,0.19
		c0.063,0.085,0.159,0.138,0.212,0.223c0.058,0.084,0.175,0.138,0.223,0.222c0.053,0.085,0.063,0.191,0.111,0.281
		c0.048,0.09-0.005,0.228,0.042,0.317s0.26,0.09,0.313,0.186c0.042,0.085,0.016,0.212,0.058,0.297
		c0.048,0.09-0.016,0.232,0.021,0.328c0.037,0.09,0.01,0.201,0.047,0.297c0.032,0.095,0.148,0.158,0.175,0.254
		c0.026,0.101,0,0.207,0.021,0.308c0.021,0.095,0.164,0.169,0.18,0.27c0.016,0.101,0.037,0.201,0.048,0.302
		c0.011,0.096-0.106,0.212-0.106,0.308c0.011,0.101,0.18,0.201,0.18,0.297c0,0.105-0.27,0.19-0.275,0.296
		c0,0.101,0.196,0.212,0.19,0.318c-0.01,0.095-0.222,0.169-0.233,0.27c-0.021,0.101,0.233,0.238,0.212,0.339
		c-0.016,0.101-0.164,0.175-0.18,0.271c-0.021,0.101,0.063,0.223,0.042,0.323c-0.026,0.101-0.095,0.186-0.117,0.28
		c-0.032,0.101-0.164,0.164-0.19,0.26c-0.032,0.101-0.159,0.169-0.191,0.271c-0.032,0.095,0.074,0.248,0.042,0.349
		c-0.032,0.096-0.074,0.191-0.116,0.292c-0.032,0.095,0.074,0.26,0.032,0.354c-0.037,0.096-0.381,0.063-0.424,0.164
		c-0.042,0.096-0.122,0.164-0.169,0.265c-0.042,0.091-0.095,0.186-0.138,0.275c-0.053,0.096,0,0.238-0.053,0.329
		c-0.047,0.09,0.037,0.259-0.01,0.35c-0.053,0.09-0.233,0.105-0.292,0.195c-0.053,0.09-0.032,0.228-0.09,0.318
		c-0.059,0.084-0.053,0.217-0.111,0.302c-0.058,0.079-0.292-0.006-0.36,0.058c-0.069,0.064-0.053,0.212-0.132,0.266
		c-0.084,0.053-0.132,0.153-0.217,0.201c-0.079,0.042-0.19,0.042-0.28,0.084c-0.085,0.043-0.202,0.011-0.286,0.043
		c-0.09,0.037-0.106,0.243-0.201,0.275c-0.085,0.037-0.26-0.148-0.344-0.116c-0.09,0.037-0.186,0.053-0.271,0.084
		c-0.095,0.037-0.116,0.249-0.211,0.281c-0.096,0.037-0.18,0.085-0.275,0.116c-0.096,0.037-0.186,0.069-0.281,0.101
		c-0.09,0.032-0.238-0.095-0.334-0.063c-0.095,0.032-0.09,0.339-0.185,0.371c-0.09,0.031-0.201,0.016-0.297,0.048
		c-0.09,0.031-0.164,0.132-0.259,0.158c-0.09,0.032-0.275-0.201-0.371-0.169c-0.09,0.026-0.106,0.302-0.202,0.333
		c-0.095,0.032-0.233-0.074-0.323-0.042c-0.095,0.031-0.175,0.096-0.27,0.127c-0.096,0.032-0.154,0.17-0.244,0.19
		C15.16,44.271,15.012,44.112,14.927,44.145z M10.833,31.163c-0.101,0.016-0.196,0.101-0.297,0.133
		c-0.09,0.031-0.19,0.058-0.286,0.095c-0.09,0.043-0.202,0.043-0.292,0.096c-0.085,0.053-0.085,0.232-0.169,0.291
		c-0.08,0.059-0.233,0.016-0.307,0.079c-0.085,0.064-0.175,0.111-0.249,0.181c-0.074,0.068-0.026,0.26-0.09,0.334
		c-0.074,0.073-0.297,0-0.366,0.079c-0.069,0.074-0.143,0.143-0.207,0.223c-0.063,0.079-0.021,0.232-0.084,0.317
		c-0.053,0.085-0.096,0.18-0.148,0.265c-0.053,0.085-0.223,0.096-0.275,0.19c-0.053,0.085,0.074,0.266,0.021,0.36
		c-0.042,0.085-0.371,0.032-0.413,0.127c-0.042,0.096,0,0.233-0.042,0.323c-0.042,0.09,0.117,0.271,0.08,0.36
		c-0.037,0.096-0.042,0.196-0.074,0.291c-0.037,0.101-0.196,0.148-0.222,0.249c-0.027,0.101-0.217,0.153-0.238,0.254
		c-0.032,0.096-0.021,0.207-0.042,0.308c-0.021,0.101,0.037,0.217,0.016,0.313c-0.016,0.106-0.01,0.212-0.026,0.308
		c-0.011,0.101,0.143,0.212,0.138,0.317c-0.011,0.101-0.095,0.19-0.095,0.297c-0.011,0.101-0.265,0.212-0.265,0.307
		c0.01,0.106,0.371,0.181,0.381,0.286c0.01,0.096-0.202,0.223-0.18,0.328c0.01,0.096,0.138,0.17,0.159,0.271
		c0.026,0.101,0.138,0.164,0.169,0.26c0.021,0.09,0.085,0.169,0.117,0.265c0.032,0.095-0.275,0.307-0.233,0.402
		c0.032,0.096,0.275,0.105,0.317,0.19c0.037,0.09-0.026,0.233,0.021,0.318c0.042,0.095,0.148,0.147,0.196,0.238
		c0.048,0.084,0.238,0.084,0.292,0.169c0.053,0.09-0.021,0.244,0.037,0.328c0.053,0.08,0.153,0.139,0.207,0.218
		c0.063,0.079,0.148,0.138,0.212,0.212c0.063,0.079,0.095,0.175,0.159,0.249c0.063,0.079-0.042,0.302,0.021,0.376
		s0.244,0.053,0.313,0.121c0.069,0.069,0.059,0.233,0.122,0.303c0.074,0.063,0.175,0.116,0.249,0.18
		c0.079,0.063,0.122,0.17,0.207,0.233c0.074,0.063,0.207,0.063,0.286,0.116c0.085,0.063,0.169,0.116,0.254,0.169
		c0.084,0.054,0.169,0.128,0.254,0.17c0.084,0.048,0.222,0.011,0.307,0.042c0.101,0.043,0.233-0.09,0.328-0.068
		c0.106,0.026,0.164,0.196,0.26,0.206c0.101,0.006,0.185-0.031,0.281-0.042c0.032-0.096,0.053-0.175,0.084-0.265
		s0.106-0.17,0.138-0.254c0.032-0.096,0-0.207,0.032-0.297c0.032-0.085,0.249-0.111,0.281-0.201c0.026-0.09,0.058-0.181,0.09-0.275
		c0.032-0.085-0.185-0.265-0.153-0.35c0.032-0.096,0.063-0.181,0.09-0.265c0.026-0.096,0.318-0.106,0.35-0.191
		c0.021-0.101-0.265-0.275-0.244-0.37c0.021-0.101,0.18-0.17,0.201-0.271c0.011-0.095-0.101-0.212-0.084-0.313
		c0.016-0.105,0.35-0.158,0.36-0.26c0.011-0.101-0.01-0.206,0-0.302c0.011-0.105-0.122-0.228-0.116-0.333
		c0-0.106,0.196-0.212,0.196-0.313c0-0.106-0.355-0.218-0.365-0.323c0-0.106,0.047-0.218,0.047-0.323
		c0-0.085-0.005-0.159-0.005-0.243c-0.01-0.091,0.059-0.175,0.053-0.26c-0.011-0.09,0.08-0.175,0.074-0.26
		c-0.011-0.096,0.021-0.212-0.005-0.307c-0.026-0.122-0.122-0.202-0.074-0.266c0.069-0.095-0.048-0.27-0.005-0.359
		c0.048-0.106,0.154-0.148,0.164-0.244c0.016-0.116,0.016-0.19-0.016-0.286c-0.037-0.101,0.011-0.265-0.063-0.333
		c-0.074-0.074-0.334-0.006-0.435-0.059c-0.021-0.116-0.063-0.291-0.084-0.392c-0.021-0.117-0.032-0.233-0.048-0.329
		c-0.021-0.116,0.026-0.232,0.005-0.339c-0.026-0.105,0.138-0.275,0.095-0.381c-0.026-0.09-0.201-0.127-0.244-0.218
		c-0.042-0.09-0.122-0.153-0.169-0.238c-0.047-0.084,0.059-0.259,0.011-0.344c-0.042-0.085-0.212-0.111-0.254-0.196
		c0.042-0.026,0.164-0.058,0.212-0.09c-0.053-0.085-0.175-0.164-0.222-0.249c-0.048-0.09-0.064-0.19-0.117-0.28
		c-0.042-0.085-0.27-0.074-0.318-0.164c-0.042-0.085,0.217-0.34,0.164-0.424c-0.047-0.085-0.101-0.164-0.153-0.255
		C11.061,31.285,10.88,31.253,10.833,31.163z M19.344,41.051c0.095,0.032,0.212,0,0.307,0.032c0.069-0.063,0.127-0.106,0.191-0.164
		c0.063-0.059,0.169-0.08,0.233-0.144s0-0.222,0.048-0.296c0.058-0.085,0.217-0.091,0.27-0.17c0.063-0.085,0.138-0.153,0.19-0.243
		c0.053-0.085-0.042-0.255,0.011-0.34c0.048-0.09,0.286-0.073,0.328-0.158c0.053-0.085,0.117-0.17,0.159-0.265
		c0.042-0.096-0.026-0.233,0.011-0.329c0.042-0.09,0.063-0.19,0.095-0.28c0.032-0.096,0.196-0.143,0.228-0.244
		c0.027-0.101-0.127-0.248-0.101-0.344c0.032-0.096,0.36-0.116,0.381-0.212c0.026-0.096-0.042-0.223-0.032-0.317
		c0.021-0.101-0.169-0.238-0.159-0.334c0.01-0.101-0.005-0.196,0-0.297c0.01-0.101,0.153-0.186,0.159-0.291
		c0-0.101,0.169-0.201,0.169-0.297c0-0.105-0.037-0.212-0.042-0.307c0-0.106-0.084-0.201-0.101-0.302
		c-0.01-0.101-0.042-0.201-0.058-0.297c-0.016-0.101-0.196-0.17-0.212-0.265c-0.021-0.101,0.037-0.212,0.011-0.313
		c-0.021-0.096,0.201-0.265,0.169-0.36c-0.032-0.101-0.402-0.074-0.439-0.175c-0.037-0.09,0.132-0.265,0.09-0.36
		c-0.042-0.09-0.18-0.143-0.228-0.228c-0.042-0.09-0.175-0.133-0.223-0.223c-0.048-0.085-0.122-0.148-0.175-0.232
		c-0.053-0.085,0.191-0.371,0.132-0.456c-0.058-0.079-0.296-0.031-0.354-0.116c-0.064-0.074-0.042-0.233-0.106-0.308
		c-0.064-0.079-0.18-0.105-0.249-0.18s-0.26-0.026-0.329-0.096c-0.069-0.074-0.047-0.243-0.122-0.307
		c-0.074-0.069-0.18-0.096-0.26-0.159c-0.079-0.063-0.18-0.096-0.259-0.148c-0.085-0.063-0.148-0.143-0.228-0.201
		c-0.079-0.053-0.047-0.302-0.132-0.354c-0.084-0.053-0.254,0.026-0.344-0.021c-0.084-0.048-0.122-0.206-0.217-0.249
		c-0.085-0.042-0.196-0.058-0.286-0.101c-0.095-0.037-0.175-0.132-0.265-0.164c-0.096-0.037-0.223-0.005-0.318-0.042
		c-0.096-0.032-0.191-0.063-0.292-0.091c-0.095-0.031-0.185-0.09-0.281-0.121c-0.106-0.021-0.233,0.031-0.323,0.011
		c-0.111-0.027-0.238,0.116-0.334,0.105c-0.116-0.021-0.19-0.19-0.275-0.19c-0.127,0.011-0.201,0.074-0.265,0.138
		c-0.063,0.058-0.095,0.138-0.117,0.254c-0.01,0.085-0.053,0.18-0.053,0.297c0,0.095,0.08,0.19,0.095,0.296
		c0.005,0.096-0.138,0.297-0.127,0.408c0.111,0.016,0.275,0.059,0.365,0.085c0.122,0.031,0.329-0.153,0.397-0.106
		c0.084,0.069,0.159,0.281,0.138,0.397c-0.011,0.079-0.307,0.069-0.371,0.17c-0.047,0.074,0.148,0.354,0.069,0.444
		c-0.079,0.09-0.238,0.074-0.275,0.164c-0.047,0.106,0.069,0.196,0.069,0.297s-0.286,0.281-0.238,0.376
		c0.048,0.09,0.154,0.201,0.228,0.286c0.069,0.068,0.254,0.042,0.35,0.105c0.084,0.064,0.069,0.286,0.164,0.355
		c0.09,0.058,0.461-0.048,0.562,0.026c-0.085,0.074-0.238,0.265-0.302,0.339c-0.074,0.079-0.122,0.148-0.18,0.228
		c-0.053,0.09-0.154,0.133-0.18,0.228c-0.032,0.106-0.138,0.191-0.132,0.297c0.005,0.096-0.032,0.233,0.005,0.334
		c0.037,0.09,0.154,0.164,0.217,0.26c0.053,0.079,0.26,0.042,0.334,0.127c0.042,0.053,0.032,0.206,0.063,0.28
		c0.026,0.074,0.042,0.19,0.032,0.26c-0.011,0.105-0.148,0.206-0.148,0.307c0,0.111,0.223,0.17,0.249,0.26
		c0.032,0.106,0.037,0.133,0.111,0.201c0.063,0.069,0.079,0.09,0.19,0.117c0.085,0.026,0.148,0.101,0.265,0.095
		c0.096-0.005,0.106,0.144,0.223,0.122c-0.021,0.105,0.053,0.105,0.032,0.212c-0.016,0.105,0,0.212-0.016,0.313
		c-0.021,0.101-0.217,0.169-0.239,0.27c-0.016,0.101,0.096,0.223,0.069,0.329c0.101-0.021,0.207,0.021,0.292,0
		c0.095-0.032,0.159-0.127,0.254-0.154c0.084-0.026,0.185-0.016,0.28-0.042c0.09-0.026,0.281-0.212,0.376-0.238
		c-0.011,0.101-0.307,0.313-0.318,0.402c-0.011,0.106-0.005,0.201-0.021,0.297c-0.01,0.095,0.265,0.223,0.254,0.323
		s-0.111,0.185-0.117,0.28c-0.01,0.096-0.074,0.212-0.084,0.308c0.117-0.011,0.212-0.229,0.318-0.244
		c0.111-0.016,0.233,0.053,0.333,0.043c0.111-0.017,0.175,0.121,0.286,0.105c0.005,0.111,0.19,0.153,0.196,0.265
		c0.011,0.111-0.296,0.244-0.296,0.35c0.01,0.116,0.286,0.207,0.296,0.318C19.439,40.808,19.333,40.939,19.344,41.051z
		 M15.16,36.592c0.011-0.09-0.042-0.18-0.032-0.271c0.021-0.101,0.042-0.185,0.063-0.275c0.011-0.101,0.074-0.195,0.074-0.275
		c0.005-0.111-0.138-0.111-0.19-0.175c-0.053-0.068-0.042-0.186-0.175-0.212c-0.101-0.021-0.212-0.053-0.323-0.053
		c-0.116,0.006-0.19,0.181-0.281,0.207c-0.079,0.016-0.249-0.144-0.333-0.08c-0.085,0.054-0.19,0.111-0.254,0.181
		c-0.079,0.084-0.032,0.228-0.032,0.307c-0.005,0.096,0.011,0.191,0.011,0.292c0,0.095-0.127,0.201-0.117,0.302
		c0,0.095,0.207,0.18,0.212,0.275c0.011,0.101-0.296,0.232-0.286,0.328c0.016,0.096,0.122,0.186,0.127,0.286
		c0.011,0.095,0.233,0.169,0.244,0.27c0.01,0.101,0.021,0.111,0.026,0.218c0.085,0.021,0.048,0.127,0.132,0.148
		c0.085,0.021,0.117,0.206,0.201,0.232c0.085,0.026,0.18,0.021,0.265,0.043c0.084,0.026,0.169-0.054,0.254-0.021
		c-0.084,0.059-0.143,0.105-0.217,0.169c-0.08,0.064-0.048,0.255-0.122,0.323c-0.074,0.074-0.201,0.08-0.265,0.154
		c-0.074,0.079-0.339,0.005-0.403,0.084c-0.063,0.085,0.186,0.366,0.138,0.45c-0.053,0.091-0.291,0.091-0.328,0.181
		c-0.042,0.101,0.032,0.228,0.005,0.323c-0.026,0.105,0.047,0.201,0.037,0.307c-0.011,0.101,0.021,0.186,0.021,0.286
		c0,0.105-0.355,0.228-0.344,0.328c0.016,0.101,0.249,0.175,0.27,0.275c0.016,0.096-0.074,0.228-0.047,0.328
		c0.026,0.096,0.122,0.181,0.153,0.275c0.032,0.096,0.223,0.128,0.265,0.229c0.042,0.095-0.053,0.249-0.011,0.344
		c-0.127,0.021-0.233,0.063-0.339,0.122c-0.074,0.037-0.127,0.111-0.196,0.153c-0.074,0.043-0.164,0.063-0.228,0.106
		c-0.074,0.047-0.35,0.031-0.424,0.079c0.074,0.048,0.297,0.133,0.366,0.196s0.063,0.222,0.132,0.275
		c0.079,0.053,0.228,0.095,0.313,0.101c0.106,0.011,0.212,0.074,0.313,0.079c0.106,0.011,0.222-0.053,0.328-0.053
		c0.106,0.005,0.223,0.005,0.329,0c0.106,0,0.222,0.021,0.323,0.011s0.201-0.111,0.307-0.127c0.101-0.021,0.165-0.207,0.271-0.223
		c0.101-0.021,0.228,0.116,0.328,0.105c0.101-0.021,0.191-0.085,0.286-0.105c0.106-0.021,0.201-0.043,0.296-0.069
		s0.207-0.005,0.307-0.037c0.096-0.026,0.169-0.127,0.271-0.148c0.101-0.031,0.259,0.117,0.354,0.085
		c0.095-0.037,0.191-0.079,0.286-0.122c0.095-0.036,0.069-0.322,0.159-0.365c0.09-0.048,0.169-0.09,0.254-0.148
		c0.09-0.053,0.329,0.117,0.413,0.059c0.085-0.063-0.106-0.271-0.032-0.334c-0.053-0.095,0.042-0.147-0.016-0.238
		c-0.053-0.09-0.222-0.111-0.27-0.201c-0.053-0.09,0.159-0.354,0.106-0.439c-0.053-0.09-0.138-0.164-0.19-0.254
		c-0.053-0.09-0.233-0.106-0.286-0.196s0.053-0.28,0-0.371c-0.053-0.09-0.418,0.006-0.477-0.079
		c-0.053-0.095-0.074-0.201-0.127-0.291c-0.053-0.09-0.105-0.175-0.159-0.265c-0.058-0.09-0.053-0.218-0.106-0.302
		c-0.053-0.096-0.032-0.244-0.09-0.329c-0.08,0.021-0.201-0.021-0.302,0.006c-0.084,0.026-0.159,0.121-0.254,0.143
		c-0.085,0.021-0.127,0.223-0.223,0.254c-0.084,0.021-0.286-0.073-0.381-0.053c0.037-0.105,0.069-0.275,0.106-0.365
		c0.037-0.105,0.196-0.164,0.228-0.26c0.037-0.105-0.133-0.275-0.111-0.365c0.032-0.111,0.058-0.206,0.074-0.297
		c0.026-0.116,0.053-0.19,0.053-0.291c0.005-0.111,0.074-0.19,0.042-0.286c-0.032-0.095,0.09-0.286,0.021-0.381
		c-0.053-0.074-0.238-0.063-0.328-0.138c-0.063-0.069-0.169-0.101-0.265-0.175C15.276,36.782,15.255,36.666,15.16,36.592z
		 M13.295,32.551c-0.053,0.09-0.042,0.201-0.084,0.291c-0.042,0.096-0.095,0.19-0.127,0.286c-0.032,0.106-0.095,0.196-0.111,0.297
		c-0.016,0.105,0.143,0.201,0.153,0.296c0.011,0.111-0.09,0.223-0.047,0.313c0.042,0.096,0.079,0.196,0.153,0.271
		c0.069,0.069,0.233-0.026,0.329,0.021c0.074,0.026,0.095,0.249,0.19,0.254c0.085,0,0.191,0.021,0.286,0
		c0.084-0.011,0.148-0.148,0.228-0.18c0.09-0.032,0.143-0.085,0.186-0.138c0.063-0.074,0.222-0.063,0.275-0.138
		c0.058-0.08-0.053-0.255-0.016-0.334c0.048-0.085,0.376-0.079,0.397-0.159c0.016-0.101-0.09-0.259-0.127-0.344
		c-0.037-0.074-0.239,0.005-0.334-0.053c-0.069-0.043-0.207-0.091-0.313-0.122c0-0.106,0.117-0.302,0.122-0.402
		s0.175-0.196,0.185-0.303c0-0.095-0.021-0.201-0.021-0.307c0.005-0.101-0.063-0.212-0.058-0.308
		c0.005-0.105-0.005-0.212-0.005-0.313c0.005-0.101-0.148-0.217-0.148-0.313c0.005-0.105,0.095-0.201,0.106-0.307
		c0-0.101,0.265-0.186,0.275-0.291c0-0.101-0.344-0.223-0.339-0.329c0-0.101,0.212-0.238,0.217-0.344
		c-0.101,0.021-0.217,0.138-0.318,0.153c-0.095,0.016-0.169,0.133-0.265,0.153c-0.101,0.021-0.186,0.074-0.281,0.096
		c-0.096,0.016-0.265-0.317-0.36-0.297c-0.101,0.021-0.148,0.255-0.244,0.275c-0.095,0.021-0.212-0.074-0.313-0.053
		s-0.18,0.106-0.27,0.127c-0.101,0.021-0.159,0.201-0.254,0.223c-0.095,0.021-0.222-0.101-0.317-0.074
		c-0.09,0.021-0.138,0.063-0.233,0.085c0,0.116,0.032,0.159,0.032,0.275c0.085,0.042,0.127,0.074,0.223,0.116
		c0.084,0.043,0.084,0.297,0.18,0.339c0.09,0.037,0.244-0.063,0.339-0.021c0.095,0.042,0.048,0.073,0.148,0.116
		c-0.096,0.09-0.111,0.105-0.159,0.18c-0.074,0.117-0.148,0.318-0.127,0.402c0.032,0.096,0.212,0.196,0.307,0.266
		c0.085,0.058,0.19,0.111,0.275,0.169C13.126,32.492,13.232,32.481,13.295,32.551z"/>
	<path d="M52.021,41.4c-0.063,0.074,0.011,0.127-0.053,0.201s-0.17,0.111-0.233,0.181c-0.063,0.074-0.105,0.169-0.164,0.243
		s-0.243,0.043-0.308,0.117c-0.058,0.073-0.058,0.201-0.121,0.275c-0.063,0.073-0.006,0.243-0.069,0.317s-0.344-0.042-0.407,0.032
		c-0.063,0.073,0,0.254-0.054,0.328c-0.063,0.074-0.074,0.053-0.138,0.127c-0.026-0.106-0.042-0.106-0.058-0.201
		c-0.011-0.106-0.017-0.207-0.006-0.308c0.006-0.101-0.048-0.212-0.021-0.313c0.026-0.101,0.232-0.116,0.28-0.206
		c0.048-0.096-0.005-0.223,0.069-0.308c0.063-0.074,0.19-0.063,0.275-0.127c0.084-0.059,0.063-0.286,0.164-0.328
		c0.09-0.043,0.186-0.159,0.291-0.186c0.096-0.026,0.243,0.28,0.354,0.271C51.926,41.507,51.916,41.4,52.021,41.4z"/>
</g>
<g>
</g>
<g>
</g>
<g>
</g>
<g>
</g>
<g>
</g>
<g>
</g>
<g>
</g>
<g>
</g>
<g>
</g>
<g>
</g>
<g>
</g>
<g>
</g>
<g>
</g>
<g>
</g>
<g>
</g>
</svg>
