<?xml version="1.0" encoding="utf-8"?>
<!-- Generator: Adobe Illustrator 16.0.0, SVG Export Plug-In . SVG Version: 6.00 Build 0)  -->
<!DOCTYPE svg PUBLIC "-//W3C//DTD SVG 1.1//EN" "http://www.w3.org/Graphics/SVG/1.1/DTD/svg11.dtd">
<svg version="1.1" id="圖層_1" xmlns="http://www.w3.org/2000/svg" xmlns:xlink="http://www.w3.org/1999/xlink" x="0px" y="0px"
	 width="55px" height="55px" viewBox="0 0 55 55" enable-background="new 0 0 55 55" xml:space="preserve">
<g>
	<path d="M19.072,27.307c0.11,0.018,0.208,0.196,0.331,0.208c0.116,0.012,0.275-0.27,0.392-0.257
		c0.116,0.012,0.208,0.208,0.331,0.233c0.116,0.012,0.245-0.037,0.355-0.025c0.122,0.013,0.239,0.025,0.355,0.037
		c0.122,0.024,0.257-0.086,0.373-0.062c0.117,0.012,0.202,0.257,0.325,0.27c0.11,0.019,0.245-0.098,0.367-0.086
		c0.123,0.013,0.22,0.129,0.343,0.141c0.116,0.018,0.239,0.018,0.355,0.03c0.116,0.019,0.227,0.123,0.343,0.135
		c0.117,0.024,0.27-0.184,0.38-0.165c0.122,0.018,0.22,0.141,0.343,0.153c0.116,0.012,0.239,0,0.355,0.012s0.232,0.049,0.355,0.062
		c0.11,0.012,0.245-0.086,0.361-0.074c0.116,0.012,0.208,0.27,0.324,0.281c0.116,0.013,0.257-0.195,0.379-0.184
		c0.116,0.013,0.233,0.05,0.355,0.062c0.11,0.013,0.245-0.098,0.361-0.092c0.116,0.006,0.227,0.08,0.349,0.092
		c0.116,0.013,0.22,0.189,0.343,0.196c0.116,0.006,0.232,0.049,0.349,0.049c0.116,0.012,0.214,0.146,0.325,0.159
		c0.11,0.012,0.269-0.318,0.379-0.3c0.11,0.018,0.208,0.135,0.318,0.152c0.11,0.024,0.227,0.049,0.343,0.074
		c0.104,0.024,0.245-0.037,0.355,0c0.11,0.03,0.122,0.367,0.227,0.397c0.11,0.037,0.33-0.251,0.435-0.214
		c0.11,0.049,0.122,0.318,0.232,0.36c0.098,0.043,0.196,0.11,0.3,0.153c0.104,0.049,0.318-0.159,0.423-0.122
		c0.104,0.049,0.135,0.27,0.232,0.318c0.104,0.043,0.122,0.27,0.227,0.318s0.373-0.264,0.472-0.215
		c0.109,0.043,0.135,0.264,0.232,0.307c0.104,0.043,0.146,0.238,0.245,0.281c0.109,0.043,0.244,0.019,0.343,0.067
		c0.098,0.037,0.195,0.086,0.281,0.196c0.073,0.085,0.349,0.073,0.404,0.184c0.055,0.109-0.264,0.379-0.221,0.502
		c0.037,0.109,0.196,0.184,0.214,0.3c0.019,0.128-0.122,0.214-0.141,0.312c-0.024,0.117,0.141,0.264,0.116,0.38
		c-0.019,0.11-0.012,0.227-0.03,0.343c-0.024,0.11-0.037,0.227-0.062,0.343c-0.019,0.11-0.122,0.208-0.141,0.318
		c-0.024,0.11,0.03,0.239,0,0.349c-0.024,0.116-0.024,0.227-0.049,0.343s-0.227,0.19-0.251,0.301
		c-0.024,0.109,0.012,0.232-0.013,0.343c-0.03,0.116-0.098,0.214-0.122,0.33c-0.03,0.11-0.062,0.221-0.086,0.331
		c-0.024,0.109,0.056,0.244,0.024,0.36c-0.024,0.116-0.244,0.172-0.275,0.288c-0.03,0.11,0.031,0.238,0,0.355
		c-0.03,0.109-0.03,0.226-0.067,0.33c-0.024,0.116,0.013,0.245-0.024,0.355c-0.036,0.104-0.159,0.189-0.195,0.293
		c-0.037,0.11-0.013,0.239-0.049,0.355c-0.037,0.104-0.08,0.208-0.11,0.318c-0.037,0.11-0.153,0.196-0.196,0.3
		c-0.037,0.104-0.146,0.184-0.189,0.294c-0.043,0.104,0.232,0.349,0.184,0.447c-0.049,0.109-0.202,0.171-0.251,0.269
		c-0.056,0.11,0.006,0.282-0.049,0.38c-0.062,0.104-0.294,0.104-0.355,0.196c-0.067,0.098,0.037,0.318-0.036,0.416
		c-0.074,0.086-0.221,0.122-0.294,0.221c-0.08,0.085-0.27,0.061-0.355,0.146c-0.079,0.086,0.013,0.367-0.073,0.44
		s-0.361-0.073-0.453,0.013c-0.086,0.067-0.141,0.195-0.232,0.257c-0.098,0.073-0.215,0.104-0.307,0.165
		c-0.098,0.067-0.055,0.361-0.159,0.423c-0.098,0.062-0.379-0.208-0.489-0.159c-0.098,0.062-0.049,0.416-0.159,0.465
		c-0.104,0.049-0.379-0.281-0.49-0.232s-0.08,0.416-0.184,0.453c-0.11,0.043-0.331-0.232-0.441-0.196
		c-0.11,0.037-0.122,0.38-0.239,0.41c-0.104,0.031-0.288-0.141-0.385-0.104c-0.11,0.036-0.098,0.33-0.196,0.379
		c-0.11,0.05-0.293-0.085-0.392-0.03c-0.092,0.055-0.098,0.227-0.184,0.3c-0.08,0.073-0.19,0.098-0.263,0.184
		c-0.074,0.08,0,0.251-0.067,0.343c-0.055,0.086-0.318,0.049-0.367,0.159c-0.062,0.11-0.208,0.147-0.282,0.245
		c-0.073,0.098-0.061,0.257-0.147,0.33c-0.098,0.086-0.245,0.05-0.355,0.117c-0.098,0.055-0.11,0.36-0.232,0.397
		c-0.11,0.037-0.288-0.172-0.417-0.146c-0.116,0.018-0.232-0.043-0.367-0.037c-0.11,0.012-0.227,0.024-0.355,0.024
		c-0.11,0-0.22,0.049-0.331,0.049c-0.11-0.012-0.239,0.245-0.355,0.245c-0.11-0.013-0.227,0.043-0.343,0.036
		c-0.11-0.012-0.184-0.452-0.3-0.465c-0.117-0.012-0.239,0.147-0.349,0.135c-0.116-0.013-0.232,0.122-0.343,0.11
		c-0.11,0-0.22-0.092-0.337-0.098c-0.11,0-0.22,0.122-0.336,0.122c-0.11,0.006-0.239-0.27-0.343-0.257
		c-0.116,0.006-0.19,0.36-0.306,0.373c-0.11,0.019-0.232-0.079-0.343-0.055c-0.104,0.024-0.202,0.061-0.312,0.098
		c-0.104,0.036-0.153,0.195-0.264,0.238c-0.098,0.043-0.306-0.141-0.404-0.085c-0.098,0.049-0.184,0.189-0.3,0.201
		c-0.11,0.013-0.239-0.012-0.361-0.03c-0.104-0.019-0.22-0.073-0.331-0.11c-0.11-0.03-0.269,0.031-0.374-0.019
		c-0.104-0.049-0.134-0.251-0.226-0.317c-0.098-0.062-0.318,0.024-0.41-0.05c-0.092-0.073-0.092-0.263-0.166-0.343
		c-0.085-0.085-0.012-0.281-0.073-0.379c-0.074-0.099-0.251-0.11-0.294-0.221c-0.049-0.11,0.098-0.343,0.043-0.435
		c-0.067-0.104-0.447,0.024-0.526-0.062c-0.08-0.092-0.117-0.189-0.208-0.257c-0.092-0.073-0.214-0.055-0.312-0.116
		c-0.11-0.049-0.153-0.178-0.27-0.221c-0.11-0.036-0.122-0.392-0.245-0.416c-0.116-0.024-0.337,0.337-0.453,0.306
		c-0.11-0.03-0.128-0.367-0.232-0.403c-0.116-0.037-0.282,0.073-0.379,0.036c-0.11-0.043-0.227-0.073-0.337-0.122
		c-0.104-0.043-0.275,0.037-0.386-0.019c-0.098-0.055-0.141-0.245-0.245-0.3c-0.104-0.062-0.171-0.165-0.27-0.232
		c-0.098-0.062-0.282,0-0.374-0.067s-0.092-0.275-0.189-0.343c-0.086-0.073-0.11-0.215-0.196-0.294
		c-0.086-0.079-0.282-0.037-0.368-0.116c-0.073-0.086-0.189-0.141-0.269-0.227s0.049-0.343-0.024-0.435
		c-0.074-0.086-0.239-0.098-0.306-0.196c-0.067-0.098-0.343-0.055-0.404-0.152c-0.061-0.104,0.098-0.331,0.043-0.435
		c-0.055-0.099-0.251-0.129-0.306-0.233c-0.049-0.104-0.153-0.195-0.196-0.306c-0.043-0.098-0.128-0.208-0.165-0.313
		c-0.037-0.104-0.006-0.251-0.037-0.361c-0.037-0.109,0.171-0.293,0.135-0.403c-0.03-0.11-0.202-0.184-0.232-0.294
		c-0.024-0.116-0.135-0.208-0.159-0.331c-0.024-0.109,0.135-0.257,0.116-0.373c-0.018-0.116,0.055-0.238,0.031-0.349
		c-0.012-0.11-0.245-0.208-0.257-0.318c-0.012-0.116-0.049-0.221-0.061-0.337c-0.019-0.116-0.08-0.214-0.098-0.33
		c-0.012-0.11,0.245-0.264,0.233-0.374c-0.019-0.11-0.062-0.22-0.074-0.33c-0.012-0.116-0.227-0.202-0.245-0.313
		c-0.012-0.116,0.012-0.232,0-0.343C8.274,33.71,8.25,33.6,8.237,33.489c-0.013-0.116,0.208-0.245,0.202-0.354
		c-0.006-0.11-0.208-0.215-0.214-0.331c0-0.11-0.159-0.227-0.159-0.343c0-0.11-0.018-0.232-0.012-0.343
		c0.012-0.11,0.055-0.232,0.074-0.343c0.012-0.11,0.184-0.208,0.208-0.318c0.012-0.116,0.11-0.208,0.141-0.318
		c0.019-0.11-0.018-0.232,0.013-0.343c0.03-0.11-0.006-0.245,0.03-0.343c0.043-0.11,0.092-0.208,0.141-0.313
		c0.049-0.104,0.349-0.055,0.41-0.146c0.055-0.092-0.055-0.288,0.019-0.373c0.067-0.086,0.019-0.294,0.098-0.367
		c0.08-0.08,0.263-0.05,0.361-0.117c0.086-0.066,0.257,0.007,0.355-0.049c0.092-0.055,0.074-0.33,0.171-0.379
		c0.098-0.043,0.282,0.116,0.392,0.073c0.11-0.043,0.257,0.024,0.367-0.019c0.11-0.036,0.104-0.435,0.208-0.465
		c0.116-0.037,0.257,0.024,0.367-0.013c0.11-0.024,0.196-0.178,0.306-0.208c0.11-0.024,0.306,0.239,0.417,0.208
		c0.11-0.024,0.232,0,0.355-0.024c0.11-0.03,0.153-0.367,0.27-0.392c0.11-0.024,0.263,0.135,0.379,0.11
		c0.11-0.025,0.214-0.141,0.331-0.159c0.11-0.019,0.208-0.147,0.324-0.159c0.116-0.024,0.227-0.049,0.349-0.062
		c0.116-0.018,0.257,0.208,0.379,0.196c0.116-0.012,0.22-0.08,0.337-0.092c0.116-0.018,0.238,0.062,0.355,0.055
		c0.116-0.012,0.22-0.171,0.336-0.177c0.123-0.006,0.233,0,0.355-0.006c0.117-0.012,0.233,0.055,0.349,0.049
		c0.116,0,0.227-0.092,0.349-0.092c0.117-0.006,0.233,0.067,0.349,0.062c0.116-0.006,0.232-0.135,0.349-0.135
		c0.116,0,0.232,0.123,0.355,0.123c0.11,0,0.232,0.147,0.349,0.147c0.117,0,0.233-0.049,0.349-0.049
		c0.123,0,0.232,0.043,0.355,0.043c0.116,0,0.294-0.085,0.404-0.085C19.108,27.564,19.06,27.393,19.072,27.307z M9.253,31.689
		c0,0.123-0.166,0.239-0.166,0.343c0,0.123,0.3,0.245,0.3,0.35c-0.006,0.116-0.196,0.227-0.196,0.336
		c0,0.123,0.074,0.233,0.074,0.343c0.006,0.117,0.024,0.221,0.037,0.331S9.449,33.6,9.467,33.71
		c0.012,0.116-0.196,0.257-0.177,0.373c0.018,0.11,0.171,0.202,0.189,0.313c0.019,0.11-0.067,0.245-0.042,0.354
		c0.012,0.11,0.049,0.221,0.073,0.331c0.012,0.11-0.061,0.245-0.037,0.355c0.012,0.109,0.251,0.184,0.27,0.3
		c0.012,0.116-0.074,0.244-0.055,0.354c0.018,0.116,0.067,0.227,0.092,0.337c0.012,0.116,0.006,0.232,0.012,0.355
		c0.012,0.122,0.135,0.232,0.147,0.354c0.006,0.116-0.233,0.257-0.214,0.374c0.012,0.122,0.257,0.195,0.282,0.312
		c0.03,0.11,0.037,0.208,0.092,0.313c0.055,0.104,0.22,0.135,0.275,0.227c0.055,0.098,0.061,0.22,0.128,0.318
		c0.061,0.098-0.019,0.287,0.049,0.379c0.074,0.099,0.11,0.208,0.184,0.294c0.074,0.092,0.049,0.27,0.129,0.355
		s0.41-0.073,0.496,0.012c0.074,0.086,0.086,0.233,0.171,0.307c0.086,0.073,0.171,0.146,0.257,0.22
		c0.092,0.067,0.232,0.062,0.318,0.135c0.092,0.062,0.006,0.386,0.098,0.447c0.098,0.067,0.379-0.165,0.472-0.104
		c0.104,0.056,0.073,0.331,0.177,0.386c0.098,0.056,0.196,0.135,0.294,0.178c0.11,0.049,0.318-0.165,0.428-0.122
		c0.11,0.036,0.141,0.257,0.251,0.294c0.104,0.036,0.166,0.257,0.276,0.293c0.11,0.024,0.318-0.33,0.428-0.3
		c0.11,0.024,0.178,0.227,0.294,0.239c0.116,0.024,0.208,0.195,0.318,0.208c0.116,0.012,0.245-0.049,0.361-0.037
		c0.117,0.013,0.239-0.012,0.361-0.006c0.116,0.006,0.251-0.227,0.367-0.214c0.123,0,0.221,0.416,0.343,0.416
		c0.11,0.006,0.239-0.123,0.361-0.123c0.116,0,0.239,0.147,0.355,0.159c0.116,0,0.245-0.195,0.361-0.189s0.239-0.03,0.355-0.019
		c0.123,0,0.245-0.012,0.355-0.012c0.123,0.012,0.239,0.086,0.355,0.098c0.123,0,0.245-0.067,0.367-0.062
		c0.11,0,0.233-0.012,0.355-0.006c0.123,0.006,0.233,0.196,0.343,0.202c0.123,0.013,0.245-0.037,0.368-0.024
		c0.11,0.012,0.227,0.073,0.343,0.086c0.116,0.012,0.232,0.03,0.355,0.049c0.11,0.019,0.239-0.073,0.355-0.062
		c0.11,0.013,0.214,0.221,0.331,0.232c0.11,0.013,0.232-0.073,0.349-0.073c0.11,0.006,0.232-0.024,0.349-0.03
		c0.11,0,0.227-0.067,0.343-0.08c0.11-0.006,0.233,0.073,0.349,0.067s0.227-0.079,0.336-0.092c0.11-0.019,0.233-0.024,0.343-0.049
		c0.11-0.012,0.245,0.049,0.355,0.024c0.11-0.024,0.245,0.037,0.355,0.013c0.11-0.024,0.146-0.38,0.257-0.41
		c0.116-0.031,0.251,0.055,0.355,0.03c0.11-0.03,0.19-0.196,0.294-0.227c0.11-0.024,0.27,0.129,0.379,0.104
		c0.11-0.037,0.166-0.27,0.27-0.301c0.11-0.03,0.245,0.019,0.355-0.006c0.116-0.036,0.275,0.073,0.379,0.037
		c0.116-0.037,0.123-0.331,0.233-0.367c0.11-0.049,0.331,0.178,0.435,0.128c0.104-0.049,0.184-0.165,0.281-0.214
		c0.104-0.062,0.227-0.079,0.325-0.135c0.098-0.062,0.049-0.354,0.147-0.416c0.098-0.062,0.41,0.171,0.502,0.098
		c0.092-0.062-0.024-0.404,0.062-0.478c0.098-0.073,0.452,0.159,0.538,0.08c0.086-0.08-0.073-0.41,0.013-0.496
		c0.079-0.08,0.403,0.062,0.483-0.024c0.079-0.086-0.086-0.38-0.013-0.472c0.074-0.092,0.313-0.049,0.386-0.141
		c0.062-0.098-0.092-0.349-0.024-0.44c0.062-0.099,0.294-0.086,0.361-0.184c0.062-0.099,0-0.27,0.055-0.367
		c0.062-0.099,0.159-0.178,0.215-0.282c0.055-0.104-0.043-0.275,0.006-0.379c0.049-0.104,0.318-0.11,0.355-0.221
		c0.049-0.104,0.189-0.172,0.232-0.281c0.043-0.11-0.031-0.264,0.006-0.38c0.037-0.104,0.178-0.184,0.214-0.3
		c0.025-0.116-0.208-0.3-0.177-0.41c0.03-0.116,0.3-0.165,0.324-0.281c0.03-0.11,0.129-0.215,0.153-0.331
		c0.018-0.11,0.03-0.232,0.049-0.343c0.019-0.116-0.007-0.245,0.006-0.361c0.024-0.116-0.227-0.263-0.214-0.379
		c0.018-0.117-0.037-0.227-0.031-0.35c0.013-0.11,0.466-0.195,0.466-0.312c0.012-0.117-0.172-0.301-0.172-0.417
		c-0.104,0.056-0.214,0.215-0.318,0.258c-0.11,0.042-0.251,0.006-0.354,0.055c-0.11,0.037-0.184,0.196-0.288,0.232
		c-0.104,0.043-0.313-0.184-0.422-0.146c-0.11,0.03-0.11,0.397-0.221,0.429c-0.11,0.036-0.257-0.05-0.367-0.013
		c-0.116,0.03-0.227,0.073-0.337,0.098c-0.116,0.031-0.202,0.19-0.313,0.221c-0.109,0.024-0.281-0.196-0.397-0.172
		c-0.11,0.025-0.202,0.172-0.318,0.185c-0.116,0.024-0.238,0.018-0.349,0.042c-0.11,0.019-0.233,0.013-0.343,0.031
		c-0.122,0.012-0.22,0.146-0.331,0.159c-0.122,0.019-0.257-0.123-0.367-0.11c-0.116,0.012-0.208,0.221-0.331,0.232
		c-0.116,0.013-0.245-0.11-0.355-0.104c-0.123,0.006-0.245-0.159-0.367-0.153c-0.11,0.012-0.22,0.165-0.331,0.171
		c-0.123,0-0.245-0.232-0.361-0.227c-0.116,0.007-0.22,0.398-0.336,0.398c-0.11,0.006-0.233-0.037-0.349-0.024
		c-0.116,0-0.232,0.086-0.349,0.086c-0.11,0-0.233-0.099-0.349-0.099s-0.227-0.33-0.349-0.33c-0.116,0-0.232,0.403-0.355,0.403
		c-0.116,0-0.22-0.306-0.343-0.312c-0.116-0.007-0.232,0.152-0.349,0.146c-0.117-0.006-0.239,0.006-0.349,0.006
		c-0.123,0-0.245,0.135-0.361,0.135c-0.116-0.006-0.226-0.159-0.343-0.159c-0.116-0.012-0.227-0.073-0.349-0.073
		c-0.11-0.006-0.233,0.135-0.355,0.135c-0.117-0.006-0.221-0.178-0.343-0.184c-0.117,0-0.227-0.098-0.343-0.11
		c-0.123,0-0.245,0.153-0.368,0.147c-0.11,0-0.232,0.036-0.355,0.024c-0.11-0.007-0.22-0.282-0.331-0.282
		c-0.123-0.012-0.245,0.11-0.361,0.099c-0.117-0.007-0.251,0.232-0.368,0.227c-0.116-0.007-0.214-0.27-0.336-0.282
		c-0.116-0.006-0.245,0.141-0.367,0.129c-0.11-0.013-0.233,0.024-0.355,0.019c-0.11-0.013-0.233,0.006-0.355-0.007
		c-0.116-0.012-0.22-0.109-0.343-0.122c-0.116-0.012-0.202-0.275-0.312-0.294c-0.116-0.012-0.251,0.116-0.374,0.098
		c-0.116-0.018-0.245,0.05-0.355,0.031c-0.123-0.019-0.208-0.221-0.318-0.239c-0.116-0.012-0.208-0.122-0.331-0.146
		c-0.116-0.019-0.269,0.171-0.385,0.146c-0.117-0.024-0.239-0.012-0.349-0.043c-0.116-0.03-0.245-0.006-0.361-0.03
		c-0.11-0.024-0.165-0.318-0.275-0.349c-0.11-0.031-0.227-0.037-0.343-0.067c-0.11-0.03-0.282,0.122-0.392,0.086
		c-0.11-0.037-0.214-0.099-0.318-0.135c-0.116-0.037-0.233-0.056-0.343-0.099c-0.116-0.036-0.147-0.293-0.257-0.33
		c-0.11-0.037-0.288,0.104-0.392,0.062c-0.11-0.043-0.282,0.055-0.392,0.012c-0.11-0.049-0.233-0.073-0.343-0.122
		c-0.104-0.049-0.196-0.129-0.306-0.178c-0.104-0.049-0.141-0.251-0.245-0.3c-0.104-0.056-0.171-0.178-0.275-0.232
		c-0.104-0.049-0.239-0.049-0.343-0.104C9.461,31.806,9.351,31.751,9.253,31.689z M18.949,28.458
		c-0.116-0.013-0.214-0.184-0.33-0.19c-0.123-0.006-0.257,0.288-0.368,0.275c-0.116,0-0.22-0.189-0.336-0.195
		c-0.116,0-0.239,0.062-0.349,0.062c-0.116,0-0.232,0.012-0.343,0.012c-0.123,0-0.232,0.122-0.343,0.122
		c-0.123,0-0.245-0.22-0.355-0.22c-0.116,0.006-0.227,0.146-0.336,0.159c-0.117,0.012-0.239-0.08-0.349-0.073
		c-0.123,0.012-0.232,0.036-0.343,0.049c-0.123,0.012-0.245-0.074-0.361-0.056c-0.11,0.013-0.202,0.239-0.312,0.258
		c-0.116,0.012-0.245-0.08-0.355-0.067c-0.116,0.024-0.221,0.073-0.343,0.098c-0.116,0.019-0.233,0.012-0.343,0.03
		c-0.11,0.019-0.202,0.153-0.318,0.178c-0.11,0.024-0.275-0.196-0.392-0.171c-0.11,0.024-0.177,0.269-0.288,0.293
		c-0.116,0.024-0.232,0.024-0.343,0.05c-0.116,0.024-0.196,0.171-0.306,0.195c-0.116,0.024-0.239,0-0.349,0.024
		c-0.11,0.024-0.27-0.11-0.38-0.073c-0.11,0.024-0.232,0.024-0.343,0.055c-0.11,0.031-0.257-0.067-0.367-0.03
		c-0.11,0.037-0.085,0.404-0.184,0.447c-0.098,0.043-0.22,0.006-0.306,0.061c-0.092,0.067-0.147,0.129-0.22,0.208
		c-0.073,0.086-0.037,0.184-0.073,0.276c-0.043,0.109-0.355,0.146-0.349,0.251c0.006,0.104,0.349,0.079,0.41,0.177
		c0.055,0.086-0.074,0.325,0.024,0.404c0.08,0.073,0.159,0.172,0.263,0.238c0.092,0.067,0.331-0.128,0.435-0.066
		c0.11,0.049,0.123,0.269,0.233,0.312c0.11,0.043,0.159,0.275,0.269,0.307c0.123,0.036,0.331-0.325,0.435-0.301
		c0.123,0.025,0.202,0.221,0.313,0.221c0.128,0.013,0.281,0.147,0.379,0.116c0.11-0.03,0.202-0.141,0.318-0.171
		c0.11-0.031,0.22-0.092,0.331-0.123c0.116-0.03,0.171-0.294,0.288-0.324c0.116-0.024,0.324,0.343,0.441,0.313
		c0.116-0.031,0.202-0.19,0.312-0.215c0.116-0.024,0.257,0.099,0.379,0.074c0.117-0.031,0.184-0.245,0.306-0.27
		c0.116-0.019,0.22-0.073,0.343-0.098c0.116-0.025,0.233-0.056,0.343-0.08c0.123-0.019,0.251,0.037,0.367,0.019
		c0.11-0.024,0.221-0.116,0.331-0.135c0.123-0.019,0.233-0.062,0.355-0.073c0.11-0.024,0.251,0.141,0.367,0.128
		c0.122-0.018,0.227-0.085,0.343-0.104c0.123-0.013,0.245,0.019,0.355,0c0.123-0.013,0.239-0.019,0.355-0.037
		c0.116-0.012,0.227-0.122,0.343-0.141c0.116-0.006,0.251,0.178,0.367,0.172c0.123-0.007,0.227-0.104,0.343-0.117
		c0.123-0.012,0.233-0.049,0.355-0.055c0.117-0.006,0.233-0.079,0.349-0.086c0.116-0.006,0.239,0.086,0.361,0.08
		c0.11,0,0.232-0.062,0.349-0.062c0.116-0.012,0.233,0,0.349,0c0.123,0,0.232,0.073,0.355,0.073s0.232,0.08,0.355,0.08
		c0.116,0,0.239-0.343,0.355-0.343s0.233,0.116,0.355,0.116c0.11,0.006,0.239-0.129,0.355-0.123c0.123,0,0.227,0.202,0.343,0.209
		c0.123,0.012,0.257-0.196,0.368-0.184c0.122,0.006,0.232,0.104,0.355,0.109c0.11,0.013,0.22,0.184,0.331,0.196
		c0.122,0.013,0.275-0.245,0.392-0.221c0.116,0.013,0.196,0.318,0.312,0.331c0.117,0.024,0.239-0.024,0.361-0.006
		c0.116,0.024,0.22,0.079,0.337,0.104c0.116,0.024,0.288-0.221,0.404-0.195c0.116,0.03,0.153,0.416,0.263,0.44
		c0.11,0.03,0.306-0.27,0.429-0.232c0.11,0.024,0.11,0.452,0.232,0.489c0.11,0.03,0.325-0.27,0.435-0.232
		c0.116,0.037,0.116,0.392,0.227,0.435s0.331-0.221,0.441-0.178c0.11,0.043,0.134,0.281,0.245,0.331
		c0.11,0.049,0.331-0.159,0.435-0.116c0.104,0.042,0.128,0.281,0.238,0.336c0.11,0.049,0.275-0.024,0.38,0.024
		c0.085,0.043,0.159,0.153,0.257,0.208c0.098,0.062,0.257-0.036,0.343,0c0.116,0.05,0.146,0.307,0.245,0.282
		c0.098-0.03,0.232,0.049,0.343,0.019c0.098-0.031,0.184-0.166,0.294-0.19c0.104-0.03,0.238,0.049,0.349,0.019
		c0.104-0.03,0.129-0.33,0.232-0.361c0.11-0.036,0.3,0.147,0.398,0.104c0.104-0.049,0.257-0.056,0.343-0.116
		c0.098-0.067,0.195-0.196,0.257-0.282c0.073-0.109,0.098-0.287,0.104-0.379c0.007-0.116-0.263-0.147-0.324-0.245
		c-0.049-0.086-0.135-0.073-0.22-0.146c-0.086-0.074,0.079-0.49-0.013-0.552c-0.098-0.049-0.281,0.031-0.38-0.012
		c-0.098-0.062-0.257,0.012-0.349-0.03c-0.092-0.05-0.153-0.172-0.251-0.215c-0.098-0.049-0.245,0.024-0.343-0.012
		c-0.098-0.037-0.104-0.343-0.208-0.374c-0.104-0.036-0.313,0.258-0.416,0.227c-0.104-0.03-0.172-0.178-0.275-0.202
		c-0.104-0.03-0.215-0.042-0.313-0.079c-0.11-0.03-0.257,0.062-0.38,0.037c-0.11-0.031-0.159-0.301-0.275-0.331
		c-0.116-0.024-0.257,0.062-0.373,0.037c-0.11-0.031-0.221-0.08-0.331-0.11c-0.117-0.024-0.227-0.073-0.343-0.098
		c-0.11-0.025-0.251,0.061-0.368,0.042c-0.11-0.018-0.196-0.201-0.312-0.227c-0.116-0.024-0.263,0.147-0.386,0.129
		c-0.116-0.024-0.202-0.178-0.318-0.202c-0.116-0.024-0.202-0.22-0.318-0.232c-0.11-0.024-0.257,0.104-0.368,0.086
		c-0.122-0.019-0.202-0.27-0.318-0.288c-0.11-0.019-0.281,0.349-0.397,0.337c-0.117-0.013-0.227-0.073-0.343-0.086
		c-0.116-0.012-0.238,0.056-0.355,0.043c-0.116-0.019-0.22-0.116-0.336-0.129c-0.123-0.012-0.208-0.354-0.318-0.367
		c-0.123-0.006-0.275,0.393-0.392,0.386c-0.117-0.006-0.208-0.324-0.331-0.337c-0.117,0-0.245,0.147-0.355,0.142
		c-0.123-0.007-0.239,0.006-0.355,0c-0.116-0.007-0.239,0.128-0.355,0.128c-0.122-0.012-0.232-0.159-0.349-0.165
		c-0.117-0.006-0.233-0.067-0.349-0.067c-0.123,0-0.232,0.147-0.355,0.147c-0.116,0-0.232-0.166-0.355-0.159
		c-0.11,0-0.233-0.092-0.355-0.092c-0.11,0.006-0.227,0.165-0.343,0.171C19.182,28.494,19.072,28.451,18.949,28.458z M28.132,32.944
		c-0.11-0.043-0.16-0.238-0.264-0.281c-0.11-0.043-0.331,0.196-0.435,0.153c-0.11-0.037-0.159-0.245-0.269-0.294
		c-0.104-0.037-0.239,0-0.349-0.037c-0.104-0.036-0.22-0.067-0.337-0.098c-0.11-0.037-0.245,0.049-0.361,0.012
		c-0.116-0.03-0.166-0.281-0.275-0.306c-0.11-0.037-0.257,0.073-0.368,0.049c-0.11-0.03-0.208-0.152-0.318-0.171
		c-0.11-0.031-0.233-0.037-0.343-0.062c-0.11-0.019-0.208-0.135-0.325-0.146c-0.11-0.025-0.263,0.171-0.374,0.146
		c-0.116-0.013-0.214-0.141-0.331-0.159c-0.11-0.019-0.232,0.006-0.343-0.013c-0.122-0.012-0.227-0.049-0.343-0.061
		c-0.122-0.013-0.245,0.098-0.355,0.086c-0.123-0.013-0.214-0.264-0.331-0.27c-0.11-0.013-0.245,0.208-0.355,0.208
		c-0.123-0.013-0.232-0.049-0.343-0.049c-0.123-0.007-0.232,0.116-0.349,0.11c-0.116,0-0.226-0.062-0.343-0.062
		c-0.116,0-0.226-0.172-0.349-0.172c-0.116,0-0.233-0.036-0.343-0.03c-0.123,0.006-0.239-0.122-0.355-0.116
		c-0.117,0-0.214,0.354-0.331,0.367c-0.123,0-0.233-0.086-0.355-0.086c-0.117,0.007-0.233,0.024-0.343,0.037
		c-0.116,0-0.22,0.104-0.336,0.11c-0.116,0.012-0.257-0.294-0.374-0.282c-0.122,0.013-0.196,0.361-0.312,0.374
		c-0.116,0.019-0.257-0.227-0.374-0.215c-0.11,0.013-0.232-0.006-0.343,0.013c-0.11,0.012-0.196,0.306-0.312,0.318
		c-0.116,0.012-0.251-0.159-0.367-0.147c-0.117,0.013-0.257-0.171-0.374-0.146c-0.116,0.012-0.171,0.422-0.294,0.44
		c-0.11,0.013-0.257-0.146-0.367-0.135c-0.11,0.024-0.251-0.109-0.367-0.092c-0.11,0.019-0.214,0.116-0.331,0.129
		c-0.11,0.024-0.221,0.073-0.331,0.086c-0.116,0.024-0.196,0.281-0.306,0.294c-0.11,0.018-0.453-0.172-0.563-0.159
		c0.11,0.036,0.404,0.109,0.514,0.135c0.11,0.03,0.196,0.208,0.306,0.232c0.11,0.024,0.276-0.135,0.392-0.11
		c0.11,0.03,0.232,0.024,0.349,0.049c0.117,0.024,0.233,0.037,0.349,0.062c0.11,0.019,0.214,0.122,0.331,0.141
		c0.11,0.019,0.239-0.03,0.355-0.006c0.123,0.018,0.232,0.012,0.355,0.036c0.116,0.013,0.202,0.208,0.318,0.232
		c0.116,0.013,0.245-0.024,0.361-0.006s0.227,0.08,0.343,0.092c0.116,0.024,0.232,0.037,0.349,0.049
		c0.123,0.013,0.251-0.079,0.368-0.061c0.116,0.012,0.208,0.227,0.331,0.232c0.116,0.012,0.245-0.062,0.355-0.049
		c0.122,0.006,0.245-0.013,0.361,0c0.116,0.006,0.239-0.049,0.355-0.043c0.117,0.006,0.227,0.104,0.349,0.116
		c0.116,0.012,0.232-0.049,0.355-0.037c0.116,0.007,0.233,0.024,0.355,0.024c0.11,0.013,0.233,0.099,0.343,0.099
		c0.123,0.006,0.239,0.085,0.355,0.092c0.123,0.006,0.245-0.337,0.361-0.337s0.239,0.11,0.349,0.11c0.122,0,0.239-0.141,0.355-0.141
		s0.232,0.189,0.355,0.189c0.116,0,0.232-0.214,0.349-0.221c0.117,0,0.233,0.086,0.349,0.073c0.123,0,0.245,0.147,0.355,0.147
		c0.123-0.013,0.221-0.281,0.343-0.288c0.116-0.006,0.245,0.275,0.367,0.27c0.117-0.006,0.233-0.079,0.349-0.092
		c0.116-0.006,0.239,0.024,0.355,0.013c0.116-0.007,0.214-0.282,0.325-0.294c0.122-0.013,0.269,0.343,0.385,0.33
		c0.117-0.006,0.202-0.354,0.325-0.367c0.11-0.012,0.269,0.38,0.392,0.38c0.116-0.019,0.196-0.38,0.306-0.392
		c0.123-0.013,0.282,0.306,0.392,0.293c0.123-0.012,0.196-0.343,0.318-0.36C27.88,32.865,28.009,32.963,28.132,32.944z
		 M22.769,43.517c-0.122-0.037-0.189-0.233-0.293-0.27c-0.135-0.043-0.343,0.208-0.453,0.171c-0.128-0.036-0.19-0.244-0.294-0.281
		c-0.135-0.037-0.27,0-0.379-0.024c-0.141-0.024-0.257-0.024-0.355-0.019c-0.135,0.013-0.129,0.129-0.214,0.221
		c-0.067,0.067-0.306,0.03-0.374,0.153c-0.049,0.098,0.024,0.201-0.03,0.33c0.116-0.013,0.177,0.03,0.288,0.013
		c0.116-0.013,0.232-0.037,0.355-0.062c0.11-0.013,0.245,0.062,0.361,0.049c0.116-0.013,0.208-0.245,0.324-0.264
		c0.123-0.018,0.245,0.08,0.367,0.067c0.116-0.018,0.233-0.073,0.343-0.085C22.53,43.498,22.653,43.528,22.769,43.517z
		 M17.982,43.755c0.024-0.092,0.202-0.153,0.232-0.251c0.024-0.092-0.22-0.135-0.196-0.232c-0.123-0.024-0.123-0.178-0.245-0.202
		c-0.123-0.019-0.257,0.024-0.38,0c-0.122-0.019-0.245-0.03-0.367-0.055s-0.263,0.061-0.386,0.043
		c-0.116-0.019-0.251-0.251-0.373-0.276c-0.037,0.147,0.037,0.325,0,0.478c0.116,0.031,0.159,0.116,0.281,0.147
		c0.123,0.036,0.245,0.049,0.367,0.079c0.11,0.031,0.208,0.147,0.331,0.178c0.117,0.037,0.294-0.146,0.41-0.116
		C17.774,43.577,17.86,43.725,17.982,43.755z"/>
	<path d="M34.718,42.99c0.104,0,0.062-0.013,0.172-0.013s0.22-0.086,0.33-0.086s0.221,0.318,0.331,0.318s0.22-0.287,0.33-0.287
		s0.221,0.165,0.331,0.165s0.22-0.037,0.33-0.03c0.11,0.006,0.227-0.117,0.343-0.117c0.11,0,0.221,0.215,0.331,0.215
		s0.227-0.116,0.337-0.116c0.116,0,0.226-0.013,0.336-0.013c0.116,0,0.232,0.135,0.343,0.135s0.227-0.227,0.343-0.221
		c0.11,0,0.221,0.196,0.331,0.196c0.11,0.006,0.227,0.019,0.343,0.024c0.11,0.013,0.221,0.067,0.33,0.08
		c0.11,0.018,0.221,0.042,0.331,0.067c0.11,0.024,0.245-0.043,0.349-0.019c0.11,0.03,0.215,0.085,0.324,0.122
		c0.104,0.037,0.147,0.227,0.258,0.275c0.104,0.056,0.354-0.159,0.459-0.104c0.104,0.055,0.067,0.336,0.165,0.397
		c0.098,0.073,0.135,0.208,0.221,0.281c0.092,0.074,0.165,0.159,0.257,0.245c0.086,0.073,0.416-0.11,0.502-0.024
		c0.086,0.08-0.08,0.404,0,0.49c0.086,0.085,0.129,0.201,0.208,0.287c0.086,0.086,0.397-0.036,0.478,0.049
		c0.073,0.092,0.153,0.178,0.227,0.275c0.073,0.086,0.019,0.27,0.092,0.367c0.067,0.092,0.208,0.135,0.27,0.233
		c0.067,0.085-0.024,0.281,0.036,0.379c0.062,0.099,0.331,0.074,0.386,0.172c0.056,0.098-0.116,0.324-0.061,0.429
		c0.055,0.098,0.3,0.098,0.354,0.201c0.056,0.099-0.055,0.288-0.006,0.393c0.049,0.104,0.146,0.177,0.208,0.275
		c0.049,0.104-0.013,0.269,0.049,0.367c0.062,0.098,0.141,0.189,0.208,0.294c0.056,0.098,0.27,0.092,0.331,0.189
		c0.067,0.092,0.165,0.165,0.232,0.257s-0.073,0.337-0.013,0.429c0.074,0.092,0.245,0.104,0.307,0.202
		c0.073,0.092,0.281,0.073,0.354,0.171c0.074,0.099,0.049,0.258,0.11,0.343c0.073,0.099,0.116,0.202,0.184,0.294
		c0.067,0.099,0.27,0.099,0.331,0.19c0.067,0.098-0.159,0.373-0.11,0.478c0.055,0.104,0.27,0.128,0.318,0.226
		c0.049,0.11,0.024,0.202,0.079,0.307c-0.104,0.049-0.03,0.306-0.128,0.367c-0.099,0.049-0.294-0.073-0.392-0.013
		c-0.099,0.05-0.159,0.221-0.264,0.258c-0.11,0.049-0.264-0.049-0.373-0.037c-0.11,0.006-0.221-0.049-0.337-0.049
		c-0.104,0-0.221,0.055-0.324,0.049c-0.11,0-0.221,0.037-0.337,0.037c-0.11-0.013-0.227,0.055-0.337,0.049
		c-0.11-0.013-0.221-0.049-0.33-0.062c-0.11-0.012-0.221,0.013-0.331,0c-0.11-0.006-0.221,0.013-0.33,0
		c-0.123-0.012-0.221-0.386-0.343-0.392c-0.123,0-0.245,0.037-0.361,0.037s-0.239,0.061-0.361,0.061
		c-0.116,0-0.238,0.147-0.355,0.147c-0.122,0-0.232-0.221-0.354-0.221c-0.123,0-0.245,0.208-0.367,0.208
		c-0.116-0.012-0.227-0.208-0.343-0.221c-0.116-0.006-0.264,0.361-0.38,0.355c-0.116-0.012-0.221-0.238-0.337-0.257
		c-0.116-0.013-0.227-0.067-0.349-0.086c-0.116-0.024-0.245,0.013-0.361-0.019c-0.116-0.03-0.244-0.006-0.361-0.03
		C39.15,51.927,38.979,52.05,38.881,52c-0.104-0.036-0.172-0.208-0.27-0.257c-0.11-0.036-0.086-0.343-0.184-0.392
		s-0.239-0.019-0.337-0.073c-0.104-0.062-0.349,0.141-0.446,0.086c-0.099-0.062-0.086-0.307-0.172-0.368
		c-0.098-0.061-0.146-0.195-0.232-0.257c-0.098-0.061-0.313,0.043-0.404-0.024c-0.086-0.067-0.221-0.073-0.318-0.146
		c-0.086-0.062-0.184-0.123-0.275-0.19s-0.122-0.227-0.214-0.287c-0.086-0.073-0.215-0.086-0.307-0.147
		c-0.092-0.073-0.061-0.306-0.159-0.379c-0.085-0.073-0.214-0.099-0.306-0.172c-0.086-0.073-0.281-0.024-0.367-0.098
		s-0.056-0.288-0.141-0.367c-0.08-0.086-0.227-0.098-0.313-0.184c-0.079-0.086-0.178-0.159-0.257-0.245
		c-0.074-0.086-0.11-0.214-0.184-0.306c-0.074-0.086-0.178-0.159-0.245-0.251c-0.073-0.092-0.049-0.251-0.104-0.35
		c-0.061-0.098-0.03-0.251-0.085-0.349c-0.056-0.098-0.337-0.086-0.386-0.189c-0.049-0.104-0.086-0.221-0.135-0.331
		c-0.043-0.11,0.227-0.33,0.189-0.44c-0.036-0.11-0.313-0.135-0.343-0.251c-0.03-0.104-0.043-0.227-0.067-0.343
		c-0.03-0.116,0.013-0.227-0.012-0.343c-0.11,0.043-0.215,0.067-0.318,0.104c-0.11,0.05-0.184,0.142-0.294,0.185
		c-0.104,0.036-0.147,0.232-0.257,0.275c-0.099,0.042-0.27-0.067-0.38-0.019c-0.098,0.036-0.294-0.135-0.404-0.099
		c-0.098,0.037-0.122,0.307-0.22,0.355c-0.11,0.037-0.301-0.146-0.41-0.11c-0.104,0.043-0.117,0.337-0.221,0.374
		c-0.104,0.042-0.307-0.19-0.41-0.153c-0.11,0.036-0.159,0.221-0.27,0.257c-0.11,0.037-0.221,0.062-0.33,0.086
		c-0.11,0.03-0.196,0.171-0.307,0.195c-0.116,0.025-0.244-0.036-0.361-0.024c-0.116,0.013-0.227,0.123-0.336,0.135
		c-0.116,0.013-0.239,0.024-0.355,0.024c-0.11,0-0.22-0.22-0.343-0.232c-0.11-0.006-0.232,0.104-0.349,0.086
		c-0.117-0.013-0.214-0.141-0.325-0.159s-0.269,0.208-0.386,0.184c-0.116-0.024-0.177-0.281-0.288-0.306
		c-0.116-0.024-0.245,0.018-0.355-0.013s-0.257,0.049-0.367,0.013c-0.11-0.037-0.208-0.123-0.318-0.166
		c-0.086-0.03-0.233-0.171-0.306-0.324c-0.073-0.159,0.098-0.275,0.147-0.343c0.049-0.086-0.178-0.367-0.11-0.453
		c0.062-0.085,0.38,0.037,0.453-0.036c0.073-0.086-0.086-0.429,0-0.484c0.092-0.066,0.294-0.018,0.386-0.036
		c0.116-0.019,0.251,0.178,0.361,0.171c0.117-0.012,0.208-0.251,0.325-0.257s0.239,0.104,0.349,0.104
		c0.11-0.013,0.233,0.085,0.343,0.085c0.11,0,0.22-0.244,0.33-0.244c0.11-0.007,0.233,0.036,0.343,0.036
		c0.11-0.012,0.227-0.03,0.343-0.036c0.11,0,0.227,0,0.343-0.013c0.11-0.012,0.258,0.232,0.367,0.221
		c0.123-0.019,0.233-0.147,0.35-0.165c0.122-0.025,0.244-0.037,0.361-0.067c0.116-0.024,0.159-0.294,0.275-0.331
		c0.116-0.036,0.22-0.062,0.336-0.104c0.11-0.043,0.215-0.08,0.318-0.129c0.11-0.056,0.367,0.159,0.466,0.098
		c0.098-0.061,0.135-0.238,0.232-0.312c0.098-0.067,0.27-0.067,0.354-0.142c0.092-0.079,0.184-0.171,0.27-0.257
		s0.147-0.208,0.221-0.306c0.073-0.086,0.116-0.221,0.184-0.318c0.062-0.099,0.037-0.258,0.098-0.367
		c0.062-0.099-0.03-0.282,0.024-0.386c0.049-0.104,0.367-0.092,0.417-0.202c0.049-0.098-0.209-0.355-0.153-0.453
		c0.055-0.098,0.171-0.171,0.238-0.27c0.056-0.098,0.275-0.086,0.343-0.184c0.062-0.086,0.049-0.238,0.123-0.33
		c0.073-0.086,0.073-0.239,0.146-0.325c0.073-0.085,0.184-0.141,0.257-0.226c0.08-0.08,0.355,0.024,0.441-0.05
		c0.073-0.085-0.007-0.318,0.073-0.403c0.086-0.074,0.232-0.086,0.313-0.172c0.079-0.073-0.019-0.33,0.055-0.416
		c0.073-0.08,0.239-0.073,0.318-0.159c0.073-0.086,0.073-0.257,0.159-0.337c0.086-0.079,0.294-0.03,0.38-0.11
		c0.092-0.079,0.085-0.281,0.184-0.349c0.098-0.067,0.343,0.086,0.446,0.024c0.099-0.062,0.172-0.159,0.27-0.221
		c0.098-0.061,0.202-0.122,0.3-0.171c0.11-0.055,0.135-0.27,0.245-0.318c0.098-0.043,0.33,0.208,0.44,0.172
		c0.11-0.043,0.092-0.423,0.208-0.466c0.104-0.036,0.282,0.11,0.393,0.08c0.109-0.037,0.22-0.056,0.336-0.08
		c0.11-0.03,0.227-0.043,0.337-0.073c0.11-0.024,0.184-0.245,0.294-0.27s0.238,0.006,0.354-0.012c0.11-0.024,0.27,0.195,0.38,0.177
		c0.116-0.024,0.221-0.092,0.337-0.109c0.116-0.019,0.238,0.018,0.349-0.007c0.116-0.012,0.221-0.079,0.337-0.098
		c0.116-0.013,0.189-0.281,0.3-0.294c0.122-0.024,0.27,0.215,0.392,0.202c0.116-0.019,0.221-0.092,0.343-0.104
		c0.116-0.012,0.215-0.244,0.331-0.257c0.122-0.006,0.244,0.189,0.367,0.184c0.116,0,0.22-0.245,0.343-0.251
		c0.116-0.006,0.245,0.361,0.367,0.355c0.11-0.007,0.221-0.361,0.33-0.374c0.123,0,0.245,0.233,0.368,0.221
		c0.109,0,0.232-0.006,0.349-0.013c0.116-0.006,0.227-0.073,0.349-0.079c0.116-0.006,0.221-0.11,0.343-0.129
		c0.116-0.006,0.221-0.122,0.337-0.122c0.116-0.013,0.27,0.392,0.386,0.373c0.122-0.006,0.208-0.336,0.318-0.349
		c0.11-0.006,0.232-0.024,0.343-0.043c0.116-0.012,0.27,0.337,0.379,0.324c0.123-0.018,0.215-0.208,0.331-0.22
		c0.11-0.013,0.232-0.019,0.343-0.031c0.116-0.018,0.196-0.287,0.306-0.312c0.123-0.013,0.239,0.036,0.355,0.019
		c0.11-0.019,0.227-0.007,0.343-0.031c0.11-0.019,0.232,0.013,0.354-0.012c0.11-0.024,0.258,0.109,0.374,0.085
		s0.202-0.177,0.313-0.214c0.116-0.037,0.232-0.067,0.343-0.116c0.109-0.043,0.232-0.062,0.343-0.122
		c0.109-0.05,0.257-0.037,0.354-0.099c0.11-0.055,0.092-0.33,0.202-0.386c0.104-0.055,0.264-0.018,0.373-0.067
		c0.104-0.061,0.147-0.251,0.245-0.3c0.135-0.067,0.355,0.221,0.465,0.202c0.147-0.019,0.129,0.013,0.221,0.073
		c0.098,0.074,0.172,0.037,0.208,0.172c0.019,0.116,0.123,0.221,0.099,0.367c-0.013,0.116-0.099,0.232-0.104,0.355
		c-0.006,0.122,0.178,0.257,0.165,0.379c-0.012,0.123-0.024,0.245-0.03,0.367c-0.019,0.123-0.049,0.245-0.073,0.367
		c-0.019,0.123-0.104,0.233-0.142,0.35c-0.036,0.116-0.036,0.257-0.085,0.367c-0.056,0.11-0.099,0.244-0.178,0.343
		c-0.073,0.092-0.135,0.238-0.227,0.324c-0.086,0.073-0.281,0.055-0.392,0.129c-0.098,0.067-0.367-0.056-0.453,0.018
		c-0.092,0.086,0.086,0.441,0,0.526c-0.086,0.086-0.288,0.074-0.367,0.166c-0.073,0.092-0.024,0.287-0.098,0.386
		c-0.074,0.092-0.135,0.201-0.209,0.294c-0.073,0.098-0.392,0-0.465,0.092c-0.079,0.092-0.098,0.238-0.171,0.324
		c-0.086,0.086-0.013,0.354-0.099,0.44c-0.092,0.073-0.318-0.012-0.41,0.062c-0.092,0.079-0.043,0.337-0.141,0.41
		c-0.098,0.067-0.343-0.067-0.44,0s-0.221,0.079-0.318,0.141s-0.147,0.208-0.257,0.27c-0.099,0.061-0.245,0.036-0.343,0.098
		c-0.11,0.049-0.142,0.257-0.245,0.306c-0.11,0.05-0.184,0.19-0.288,0.233c-0.11,0.049-0.281-0.05-0.386-0.007
		c-0.116,0.043-0.202,0.153-0.318,0.19c-0.109,0.036-0.318-0.258-0.435-0.227c-0.109,0.03-0.184,0.202-0.3,0.227
		c-0.11,0.03-0.22,0.079-0.33,0.104c-0.123,0.019-0.221,0.086-0.343,0.104c-0.116,0.012-0.208,0.171-0.331,0.184
		c-0.116,0.024-0.227,0.086-0.343,0.104c-0.122,0.013-0.245,0-0.361,0.007c-0.116,0.012-0.257-0.337-0.373-0.331
		c-0.122,0.013-0.221,0.429-0.343,0.429c-0.116,0.012-0.232-0.44-0.355-0.44c-0.116,0-0.238,0.367-0.354,0.354
		c-0.123,0-0.232-0.27-0.343-0.275c-0.123-0.006-0.245,0.104-0.367,0.098c-0.11-0.006-0.221-0.128-0.343-0.141
		c-0.11-0.006-0.258,0.184-0.367,0.172c-0.123-0.013-0.245,0.073-0.367,0.061c-0.123-0.012-0.233,0.013-0.355,0
		c-0.122,0-0.232-0.055-0.355-0.055c-0.122,0-0.244-0.355-0.36-0.355c-0.117,0-0.233,0.202-0.355,0.202
		c-0.122,0.013-0.251-0.146-0.361-0.141c-0.122,0.006-0.232,0.313-0.354,0.324c-0.116,0.007-0.245-0.171-0.367-0.165
		c-0.123,0.006-0.233,0.08-0.355,0.086s-0.238,0.019-0.361,0.019c-0.116,0.012-0.238,0.128-0.361,0.128
		c-0.122,0-0.232-0.238-0.354-0.251c-0.123-0.019-0.245,0.11-0.367,0.123c-0.11,0.012-0.233-0.074-0.343-0.062
		c-0.11,0.013-0.221,0.049-0.331,0.062c-0.11,0.018-0.232-0.056-0.343-0.037s-0.189,0.245-0.294,0.27
		c-0.11,0.012-0.232-0.086-0.343-0.067C34.547,42.831,34.706,42.843,34.718,42.99z M48.308,37.064
		c-0.116,0.012-0.232-0.043-0.343-0.037c-0.122,0.013-0.221,0.099-0.343,0.11c-0.116,0.013-0.257-0.306-0.374-0.294
		c-0.116,0.013-0.201,0.307-0.317,0.318c-0.117,0.013-0.245-0.135-0.361-0.128c-0.116,0.006-0.232,0.055-0.343,0.067
		c-0.116,0-0.232,0.134-0.343,0.134c-0.123,0.007-0.239-0.208-0.355-0.208s-0.232,0.123-0.354,0.116
		c-0.11-0.006-0.233-0.006-0.343-0.006c-0.123-0.012-0.233-0.146-0.35-0.146c-0.116-0.007-0.232,0.22-0.349,0.22
		c-0.122,0-0.232-0.189-0.349-0.184c-0.116,0-0.239-0.006-0.35,0c-0.122,0-0.238-0.036-0.354-0.036c-0.116,0.006-0.232,0-0.355,0
		c-0.11,0.006-0.22,0.11-0.343,0.116c-0.11,0.006-0.232-0.006-0.349,0.006c-0.116,0.006-0.251-0.135-0.361-0.122
		c-0.122,0.012-0.195,0.33-0.306,0.349c-0.123,0.019-0.27-0.214-0.386-0.189c-0.116,0.012-0.251-0.049-0.367-0.031
		c-0.11,0.024-0.239,0.031-0.35,0.049c-0.109,0.025-0.146,0.398-0.263,0.423c-0.116,0.03-0.313-0.281-0.429-0.245
		c-0.116,0.031-0.238,0.024-0.349,0.062s-0.123,0.367-0.232,0.416c-0.11,0.031-0.221,0.073-0.331,0.11
		c-0.11,0.043-0.27-0.055-0.38-0.013c-0.104,0.05-0.171,0.185-0.275,0.233c-0.104,0.049-0.287-0.062-0.392-0.007
		c-0.104,0.056-0.092,0.325-0.195,0.386c-0.104,0.056-0.325-0.11-0.429-0.049c-0.098,0.062-0.08,0.313-0.178,0.38
		c-0.098,0.061-0.3-0.031-0.392,0.036c-0.098,0.067-0.165,0.184-0.257,0.245c-0.092,0.073-0.264,0.043-0.355,0.116
		c-0.092,0.067-0.171,0.178-0.257,0.251s-0.049,0.294-0.129,0.38c-0.079,0.073-0.128,0.189-0.208,0.275
		c-0.079,0.086-0.349,0-0.422,0.092c-0.074,0.086-0.056,0.257-0.135,0.343c-0.074,0.092-0.013,0.294-0.086,0.386
		s-0.232,0.104-0.313,0.189c-0.079,0.086-0.171,0.153-0.251,0.239c0.08,0.116,0.232,0.079,0.313,0.189
		c0.116-0.019,0.178,0.281,0.287,0.27c0.117-0.024,0.196-0.227,0.307-0.245c0.11-0.012,0.232,0.049,0.343,0.037
		c0.116-0.024,0.184-0.318,0.3-0.331c0.116-0.012,0.251,0.172,0.361,0.159c0.11-0.012,0.208-0.159,0.324-0.171
		c0.116-0.024,0.251,0.092,0.361,0.073s0.238,0.024,0.355,0c0.109-0.024,0.208-0.098,0.324-0.123
		c0.116-0.024,0.22-0.085,0.336-0.109c0.11-0.013,0.221-0.11,0.331-0.123c0.116-0.019,0.238-0.006,0.355-0.019
		c0.109-0.018,0.232-0.055,0.343-0.066c0.122-0.013,0.238-0.037,0.354-0.037c0.122,0,0.221,0.373,0.331,0.38
		c0.116,0.012,0.22-0.019,0.33,0c0.11,0.024,0.221-0.013,0.331,0.024c0.109,0.036,0.269-0.074,0.379-0.037
		c0.11,0.024,0.172,0.27,0.282,0.294c0.109,0.024,0.275-0.159,0.385-0.135c0.117,0.024,0.196,0.245,0.307,0.257
		c0.116,0.024,0.281-0.33,0.397-0.318c0.11,0.013,0.196,0.233,0.318,0.245c0.116,0.013,0.227,0.055,0.343,0.062
		c0.11,0,0.232-0.049,0.343-0.049c0.123,0,0.233-0.062,0.343-0.062c0.123-0.013,0.221-0.184,0.331-0.189
		c0.116-0.007,0.232,0.116,0.354,0.104c0.11-0.012,0.258,0.245,0.38,0.232c0.11-0.024,0.208-0.135,0.324-0.146
		c0.116-0.024,0.165-0.343,0.27-0.367c0.116-0.024,0.275,0.146,0.38,0.11c0.109-0.031,0.251,0.012,0.354-0.024
		c0.11-0.037,0.141-0.282,0.245-0.318c0.104-0.05,0.178-0.153,0.288-0.202c0.098-0.043,0.195-0.099,0.3-0.153
		c0.104-0.049,0.244,0,0.349-0.055c0.104-0.056,0.172-0.153,0.275-0.215c0.104-0.049,0.3,0.073,0.398,0.024
		c0.104-0.061,0.171-0.165,0.275-0.22c0.098-0.062,0.109-0.27,0.214-0.325c0.098-0.055,0.281,0.037,0.386-0.018
		c0.098-0.062,0.146-0.196,0.245-0.258c0.092-0.049,0.165-0.135,0.251-0.208c0.085-0.061,0.195-0.098,0.281-0.171
		c0.073-0.08,0.11-0.184,0.189-0.27c0.08-0.086,0.227-0.098,0.3-0.184c0.074-0.086,0.221-0.116,0.288-0.208
		c0.067-0.086-0.067-0.337-0.006-0.429c0.067-0.086,0.146-0.172,0.22-0.257c0.062-0.086,0.398,0.012,0.46-0.074
		c0.066-0.092-0.08-0.33-0.019-0.422c0.055-0.092,0.128-0.178,0.184-0.275c0.061-0.092,0.165-0.159,0.22-0.257
		c0.062-0.092,0.135-0.178,0.196-0.27c0.055-0.098,0.062-0.221,0.122-0.318c0.056-0.098-0.049-0.122,0.007-0.221
		c-0.104-0.079-0.007-0.165-0.104-0.245c-0.098,0.037-0.27-0.141-0.367-0.098c-0.11,0.037-0.116,0.307-0.221,0.35
		c-0.098,0.042-0.294-0.142-0.403-0.099c-0.099,0.043-0.099,0.337-0.202,0.374c-0.104,0.036-0.313-0.172-0.416-0.129
		c-0.104,0.043-0.142,0.227-0.251,0.27c-0.099,0.043-0.209,0.067-0.313,0.116c-0.104,0.036-0.159,0.195-0.264,0.232
		c-0.098,0.043-0.244,0.024-0.349,0.062C48.246,36.948,48.308,37.064,48.308,37.064z M44.978,51.021
		c-0.067-0.086-0.062,0.006-0.122-0.074c-0.074-0.085-0.202-0.109-0.27-0.184c-0.073-0.085,0.11-0.373,0.049-0.453
		c-0.067-0.085-0.373-0.018-0.416-0.109c-0.056-0.099,0.049-0.282,0.036-0.38c-0.012-0.116-0.073-0.221-0.092-0.337
		s-0.165-0.202-0.189-0.312c-0.024-0.117,0.159-0.27,0.129-0.386c-0.024-0.116-0.178-0.19-0.215-0.3
		c-0.036-0.11-0.073-0.209-0.11-0.318c-0.043-0.11,0.037-0.27-0.012-0.368c-0.049-0.109-0.307-0.109-0.355-0.208
		c-0.055-0.104,0.049-0.294-0.012-0.392c-0.062-0.098-0.123-0.195-0.196-0.281c-0.067-0.098-0.11-0.208-0.189-0.294
		c-0.08-0.086-0.153-0.184-0.239-0.27c-0.073-0.073-0.227-0.086-0.318-0.153c-0.085-0.073-0.159-0.159-0.257-0.226
		c-0.098-0.062-0.11-0.27-0.214-0.325c-0.099-0.055-0.35,0.166-0.447,0.104c-0.11-0.049-0.098-0.318-0.214-0.367
		c-0.11-0.043-0.135-0.172-0.227-0.245c-0.098-0.073-0.153-0.159-0.232-0.245c-0.086-0.085-0.429,0.074-0.502-0.012
		c-0.08-0.086,0.067-0.429-0.024-0.496c-0.099-0.073-0.196-0.189-0.301-0.251c-0.104-0.055-0.354,0.178-0.471,0.135
		c-0.104-0.049-0.208-0.08-0.331-0.11c-0.11-0.03-0.195-0.202-0.312-0.221c-0.116-0.018-0.251,0.067-0.361,0.062
		c-0.123,0-0.251-0.171-0.367-0.165c-0.123,0.006-0.208,0.275-0.324,0.3c-0.117,0.024-0.301-0.196-0.41-0.159
		c-0.123,0.037-0.147,0.288-0.245,0.343c-0.11,0.049-0.313-0.049-0.404,0.024c-0.098,0.073-0.165,0.196-0.245,0.282
		c-0.085,0.085-0.287,0.244-0.343,0.354c0.104,0.073,0.313,0.281,0.441,0.331c0.098,0.036,0.263-0.099,0.36-0.062
		c0.104,0.036,0.215,0.024,0.313,0.055c0.11,0.031,0.159,0.307,0.27,0.325c0.116,0.012,0.257-0.099,0.373-0.074
		s0.275-0.122,0.398-0.098c0.11,0.024,0.202,0.172,0.318,0.208c0.11,0.024,0.22,0.086,0.33,0.135c0.11,0.037,0.282-0.073,0.398-0.03
		s0.092,0.397,0.195,0.446c0.11,0.049,0.294-0.061,0.404-0.012c0.104,0.055,0.165,0.184,0.27,0.251
		c0.104,0.055,0.354-0.116,0.459-0.049c0.098,0.067,0.086,0.306,0.178,0.373c0.092,0.073,0.275,0.049,0.36,0.122
		c0.092,0.08,0.099,0.258,0.185,0.343c0.085,0.08,0.134,0.208,0.214,0.294c0.079,0.086,0.208,0.129,0.288,0.221
		c0.073,0.086,0.195,0.146,0.263,0.245c0.073,0.092,0.208,0.146,0.275,0.244c0.067,0.099,0.11,0.221,0.184,0.318
		c0.062,0.099,0.153,0.184,0.221,0.294c0.055,0.098,0.135,0.196,0.189,0.307c0.056,0.098-0.263,0.312-0.251,0.428
		c0.024,0.11,0.073,0.208,0.073,0.318c0.007,0.123,0.129,0.129,0.147,0.232c-0.098-0.061-0.153,0.013-0.257-0.036
		c-0.11-0.062-0.104-0.294-0.196-0.361c-0.11-0.067-0.318,0.024-0.38-0.067c-0.049-0.104,0.067-0.306,0.013-0.404
		c-0.062-0.098-0.44,0.013-0.496-0.085c-0.067-0.099,0.056-0.307-0.012-0.404c-0.067-0.086-0.11-0.208-0.178-0.294
		c-0.073-0.086-0.19-0.135-0.257-0.221c-0.08-0.085-0.196-0.128-0.282-0.208c-0.079-0.085-0.27-0.036-0.354-0.104
		c-0.086-0.08-0.08-0.245-0.166-0.313c-0.092-0.067-0.018-0.355-0.116-0.422c-0.092-0.067-0.244-0.056-0.343-0.11
		c-0.092-0.056-0.33,0.152-0.435,0.104c-0.098-0.049-0.104-0.287-0.214-0.33c-0.098-0.049-0.172-0.172-0.282-0.208
		c-0.098-0.043-0.281,0.122-0.385,0.092c-0.117-0.031-0.251-0.007-0.374-0.043c-0.11-0.037-0.232-0.056-0.354-0.086
		c-0.116-0.037-0.208-0.171-0.331-0.196c-0.11-0.036-0.245-0.012-0.367-0.036c-0.122-0.037-0.184-0.27-0.306-0.3
		c-0.116-0.031-0.251-0.019-0.367-0.043c-0.123-0.037-0.294,0.086-0.404,0.049c-0.116-0.037-0.172-0.245-0.281-0.281
		c-0.11-0.05-0.258-0.024-0.355-0.074c-0.11-0.061-0.245-0.122-0.318-0.201c-0.086-0.08-0.146-0.227-0.196-0.337
		c-0.049-0.098-0.141-0.232-0.159-0.355c-0.006-0.098,0.104-0.232,0.123-0.354c0.024-0.11,0.146-0.251,0.189-0.374
		c-0.116-0.018-0.324,0.178-0.422,0.166c-0.123-0.013-0.215-0.043-0.307-0.043c-0.128-0.007-0.27-0.325-0.367-0.3
		c-0.122,0.03-0.11,0.3-0.184,0.379c-0.073,0.073-0.11,0.123-0.135,0.251c-0.012,0.092-0.079,0.189-0.073,0.313
		c0,0.098-0.013,0.214,0,0.337c0.012,0.104,0.086,0.195,0.11,0.3c0.024,0.104,0.208,0.152,0.238,0.257
		c0.031,0.098-0.092,0.245-0.049,0.343s-0.135,0.294-0.092,0.392c0.043,0.099,0.306,0.086,0.355,0.178
		c0.061,0.104-0.099,0.324-0.043,0.423c0.061,0.098,0.349,0.061,0.416,0.152c0.062,0.092-0.104,0.349-0.03,0.447
		c0.067,0.098,0.263,0.098,0.336,0.184c0.074,0.086,0.142,0.184,0.215,0.27c0.079,0.085,0.251,0.085,0.33,0.171
		c0.086,0.08,0.11,0.221,0.196,0.294c0.086,0.08,0.238,0.073,0.33,0.146c0.086,0.074,0.184,0.135,0.275,0.202
		s0.056,0.325,0.142,0.386c0.098,0.062,0.257,0.037,0.354,0.099c0.098,0.061,0.135,0.22,0.232,0.281
		c0.099,0.062,0.325-0.086,0.423-0.03c0.098,0.055,0.086,0.312,0.184,0.373c0.104,0.049,0.238,0.036,0.343,0.092
		c0.104,0.055,0.263,0,0.367,0.049s0.184,0.153,0.288,0.202c0.109,0.049,0.232,0.055,0.336,0.098
		c0.11,0.049,0.129,0.307,0.245,0.349c0.104,0.043,0.337-0.244,0.44-0.201c0.117,0.036,0.123,0.392,0.239,0.422
		c0.11,0.03,0.318-0.275,0.429-0.251s0.195,0.184,0.306,0.202c0.11,0.03,0.189,0.257,0.307,0.275
		c0.109,0.024,0.263-0.184,0.379-0.159c0.116,0.013,0.221,0.147,0.331,0.159c0.116,0.013,0.22,0.122,0.343,0.135
		c0.116,0.012,0.244-0.221,0.367-0.221c0.11,0.013,0.227,0.062,0.343,0.062s0.232-0.024,0.349-0.024
		c0.116-0.006,0.227,0,0.349-0.006c0.11-0.007,0.251,0.238,0.367,0.227c0.117-0.013,0.221-0.135,0.337-0.147
		c0.116-0.012,0.239-0.024,0.35-0.043c0.116-0.019,0.189-0.287,0.3-0.312C44.897,50.996,44.855,51.046,44.978,51.021z"/>
	<path d="M13.612,16.374c0.024-0.116,0.098-0.165,0.122-0.269c0.025-0.123,0.037-0.233,0.062-0.343
		c0.024-0.123,0.061-0.233,0.08-0.343c0.03-0.117,0.042-0.233,0.073-0.337c0.024-0.116,0.141-0.208,0.166-0.312
		c0.024-0.116,0.147-0.208,0.177-0.318c0.024-0.11-0.275-0.306-0.251-0.417c0.037-0.11,0.184-0.189,0.221-0.293
		c0.03-0.117,0.269-0.171,0.3-0.282c0.03-0.11-0.355-0.343-0.325-0.453c0.031-0.11,0.282-0.159,0.318-0.282
		c0.024-0.11-0.03-0.245,0-0.355c0.024-0.116,0.037-0.232,0.074-0.343c0.024-0.11,0.239-0.177,0.269-0.293
		c0.037-0.11,0.092-0.214,0.123-0.325c0.031-0.116-0.067-0.263-0.037-0.374c0.037-0.11,0.024-0.232,0.061-0.349
		s0.147-0.202,0.184-0.313c0.037-0.11,0.067-0.22,0.104-0.331c0.037-0.11,0.171-0.184,0.214-0.3
		c0.037-0.104,0.171-0.177,0.214-0.288s-0.055-0.27-0.006-0.379c0.049-0.11,0.233-0.147,0.282-0.251s-0.171-0.349-0.11-0.453
		c0.062-0.092,0.221-0.128,0.294-0.214c0.074-0.085,0.074-0.245,0.159-0.331c0.086-0.08,0.202-0.135,0.294-0.208
		c0.085-0.073,0.269-0.024,0.361-0.098c0.092-0.067,0-0.379,0.092-0.447c0.098-0.067,0.306,0.019,0.392-0.055
		c0.098-0.067,0.196-0.122,0.288-0.196c0.092-0.061,0.208-0.11,0.3-0.177c0.086-0.067,0.27-0.031,0.355-0.098
		c0.098-0.073,0.159-0.177,0.251-0.245s0.159-0.178,0.251-0.239c0.085-0.074,0.049-0.318,0.141-0.386
		c0.092-0.074,0.386,0.128,0.483,0.055c0.086-0.074,0.135-0.196,0.227-0.27c0.092-0.073,0.11-0.239,0.202-0.306
		c0.085-0.073,0.294,0,0.379-0.067c0.098-0.067-0.012-0.397,0.086-0.471c0.098-0.073,0.196-0.123,0.293-0.184
		c0.092-0.073,0.331,0.055,0.417-0.012c0.098-0.074,0.214-0.11,0.306-0.171c0.092-0.074,0-0.392,0.092-0.459
		s0.373,0.122,0.471,0.055c0.092-0.067,0.074-0.281,0.171-0.355c0.092-0.061,0.184-0.128,0.275-0.196
		c0.092-0.073,0.166-0.171,0.257-0.239s0.251-0.042,0.349-0.116c0.098-0.061,0.257-0.037,0.355-0.098
		c0.092-0.073,0.147-0.184,0.239-0.257c0.117-0.08,0.202-0.08,0.288-0.11c0.134-0.049,0.122-0.061,0.208,0
		c0.085,0.049,0.22,0.024,0.269,0.153c0.037,0.092,0.214,0.177,0.233,0.312c0.024,0.11,0.123,0.208,0.147,0.331
		c0.024,0.11-0.318,0.282-0.294,0.398c0.019,0.116,0.379,0.171,0.398,0.288c0.018,0.11-0.318,0.294-0.3,0.404
		c0.012,0.11,0.245,0.196,0.263,0.306c0.018,0.11,0.202,0.196,0.22,0.318c0.024,0.11,0.043,0.221,0.067,0.343
		c0.018,0.11-0.031,0.239-0.012,0.355c0.024,0.11-0.294,0.282-0.282,0.398c0.024,0.116,0.282,0.19,0.294,0.3
		C25.23,6.5,25.034,6.653,25.059,6.77c0.019,0.117,0.27,0.184,0.288,0.3c0.024,0.116-0.104,0.257-0.08,0.367
		c0.019,0.116-0.049,0.245-0.024,0.361c0.019,0.116,0.227,0.189,0.245,0.312c0.024,0.135,0.055,0.294,0.024,0.428
		c-0.031,0.11,0,0.233-0.024,0.343c-0.025,0.116-0.159,0.202-0.19,0.312c-0.019,0.116,0.08,0.251,0.055,0.361
		c-0.024,0.11,0.061,0.245,0.03,0.355c-0.018,0.11-0.3,0.171-0.324,0.281c-0.024,0.117,0.123,0.27,0.098,0.374
		c-0.025,0.116-0.368,0.159-0.386,0.275c-0.024,0.11,0.251,0.282,0.227,0.398c-0.019,0.11-0.049,0.227-0.074,0.337
		c-0.024,0.11-0.269,0.171-0.294,0.281c-0.03,0.11,0.245,0.294,0.221,0.404c-0.024,0.11-0.184,0.196-0.208,0.306
		c-0.025,0.11,0.098,0.257,0.061,0.367c-0.024,0.116-0.41,0.128-0.441,0.232c-0.037,0.11,0.294,0.331,0.257,0.441
		c-0.031,0.104-0.343,0.135-0.379,0.239c-0.037,0.11,0,0.239-0.037,0.349c-0.03,0.11,0.074,0.27,0.037,0.38
		c-0.043,0.11-0.123,0.196-0.172,0.306c-0.037,0.098-0.159,0.171-0.22,0.27c-0.049,0.104-0.269,0.085-0.336,0.184
		c-0.062,0.092,0.03,0.294-0.043,0.379c-0.074,0.086-0.171,0.153-0.245,0.239c-0.073,0.08-0.104,0.214-0.184,0.294
		c-0.085,0.08-0.269,0.043-0.355,0.116c-0.085,0.067-0.012,0.343-0.098,0.41c-0.086,0.074-0.288,0-0.38,0.067
		c-0.085,0.067-0.037,0.331-0.134,0.404c-0.092,0.062-0.196,0.123-0.288,0.184c-0.092,0.067-0.196,0.122-0.288,0.184
		c-0.104,0.061-0.282,0.006-0.379,0.067c-0.098,0.055-0.135,0.226-0.245,0.288c-0.098,0.055-0.392-0.233-0.49-0.171
		c-0.11,0.055-0.116,0.281-0.22,0.331c-0.104,0.061-0.147,0.232-0.245,0.288c-0.11,0.055-0.171,0.196-0.27,0.251
		c-0.11,0.049-0.22,0.08-0.331,0.128s-0.312-0.104-0.422-0.055c-0.104,0.049-0.116,0.294-0.22,0.343
		c-0.104,0.049-0.251,0.025-0.349,0.074c-0.11,0.049-0.318-0.123-0.428-0.074c-0.098,0.049-0.214,0.092-0.318,0.141
		c-0.104,0.049-0.171,0.184-0.275,0.239c-0.104,0.049-0.184,0.153-0.288,0.202c-0.104,0.049-0.11,0.3-0.214,0.349
		c-0.104,0.061-0.251,0.024-0.361,0.073c-0.123,0.062-0.306-0.012-0.404,0.049c-0.123,0.073-0.123,0.245-0.196,0.331
		c-0.085,0.098-0.306,0.159-0.288,0.306c0.006,0.098,0.227,0.159,0.306,0.3c0.055,0.092-0.031,0.3,0.061,0.422
		c0.074,0.085,0.043,0.239,0.104,0.331c0.062,0.098,0.171,0.159,0.227,0.257c0.055,0.098,0.135,0.171,0.19,0.282
		c0.049,0.098,0.361,0.073,0.41,0.178c0.049,0.104-0.092,0.293-0.043,0.397c0.043,0.11,0.098,0.208,0.135,0.318
		c0.043,0.104,0.012,0.233,0.049,0.343c0.037,0.11,0.331,0.135,0.367,0.239c0.031,0.104-0.22,0.306-0.184,0.41
		c0.031,0.11,0.024,0.147-0.024,0.282c-0.043,0.098,0.049,0.27-0.024,0.392c-0.061,0.098,0.037,0.306-0.024,0.417
		c-0.067,0.104-0.374-0.074-0.417,0.037c-0.098-0.061-0.08-0.073-0.184-0.123c-0.11-0.061-0.306,0.074-0.404,0.019
		c-0.11-0.055-0.135-0.227-0.22-0.288c-0.098-0.08-0.245-0.086-0.294-0.19c-0.055-0.104-0.012-0.263-0.074-0.361
		c-0.061-0.11-0.343-0.067-0.41-0.165c-0.067-0.104-0.067-0.227-0.141-0.325c-0.073-0.092-0.208-0.122-0.288-0.208
		c-0.08-0.085-0.147-0.165-0.233-0.245c-0.085-0.086-0.024-0.318-0.116-0.392c-0.092-0.08-0.312,0.019-0.404-0.049
		c-0.098-0.067-0.037-0.374-0.135-0.441c-0.104-0.061-0.331,0.117-0.441,0.062c-0.104-0.049-0.055-0.441-0.159-0.49
		c-0.11-0.037-0.245-0.049-0.355-0.086c-0.11-0.049-0.245-0.061-0.355-0.098c-0.11-0.037-0.245-0.024-0.355-0.055
		c-0.116-0.031-0.294,0.202-0.416,0.178c-0.11-0.025-0.221-0.062-0.343-0.086c-0.11-0.024-0.178-0.257-0.294-0.294
		c-0.11-0.024-0.233-0.024-0.343-0.061c-0.11-0.037-0.214-0.086-0.325-0.135c-0.104-0.043-0.177-0.159-0.288-0.208
		c-0.104-0.049-0.196-0.116-0.294-0.171c-0.11-0.062-0.281,0.012-0.379-0.049c-0.098-0.062-0.282-0.013-0.379-0.086
		c-0.092-0.067-0.092-0.27-0.184-0.343c-0.086-0.073-0.208-0.123-0.294-0.208c-0.085-0.08,0-0.331-0.08-0.404
		c-0.08-0.085-0.147-0.189-0.227-0.281c-0.085-0.086-0.44,0.085-0.526,0c-0.08-0.092-0.031-0.3-0.11-0.392
		c-0.08-0.085-0.208-0.128-0.293-0.22c-0.074-0.086-0.025-0.288-0.104-0.379c-0.08-0.086-0.361-0.012-0.435-0.11
		c-0.073-0.098-0.159-0.184-0.232-0.275s0.098-0.374,0.024-0.471c-0.073-0.092-0.177-0.159-0.245-0.263
		C6.187,17.58,6.095,17.5,6.027,17.402c-0.067-0.098-0.128-0.208-0.19-0.306c-0.061-0.104-0.135-0.196-0.196-0.3
		s-0.031-0.257-0.085-0.361c-0.062-0.104-0.318-0.104-0.38-0.208c-0.049-0.11,0-0.269-0.042-0.379c-0.043-0.11,0-0.245-0.031-0.355
		c-0.037-0.11-0.11-0.202-0.141-0.318c-0.03-0.11-0.184-0.184-0.214-0.3c-0.024-0.116,0-0.233-0.024-0.349
		c-0.019-0.11,0.208-0.257,0.184-0.379c-0.012-0.11-0.196-0.196-0.208-0.312c-0.012-0.117-0.061-0.227-0.08-0.337
		c-0.012-0.11-0.08-0.22-0.092-0.343c-0.006-0.11-0.159-0.214-0.171-0.331c-0.012-0.11,0.318-0.257,0.306-0.367
		c-0.012-0.116-0.116-0.22-0.135-0.337c-0.012-0.116,0.067-0.239,0.049-0.355c-0.012-0.116-0.221-0.202-0.239-0.312
		c-0.019-0.116-0.196-0.196-0.214-0.306c-0.024-0.116,0.092-0.257,0.073-0.379c-0.018-0.11-0.171-0.208-0.189-0.325
		c-0.019-0.11-0.006-0.232-0.019-0.349c-0.018-0.11,0.331-0.282,0.318-0.392c-0.012-0.11-0.061-0.226-0.08-0.343
		c-0.019-0.11-0.135-0.22-0.153-0.331C4.056,8.918,3.854,8.833,3.83,8.716s0.306-0.3,0.282-0.41C4.087,8.19,3.665,8.171,3.634,8.062
		c-0.031-0.11,0.049-0.245,0-0.355c-0.031-0.11-0.037-0.22-0.085-0.33c-0.049-0.11,0.018-0.264-0.031-0.368s0.006-0.275-0.055-0.379
		c-0.061-0.098-0.416,0-0.49-0.098C2.924,6.458,2.948,6.274,2.936,6.164c-0.012-0.11,0.073-0.208,0.061-0.306
		C3.12,5.845,3.218,5.674,3.352,5.649c0.141-0.037,0.361-0.049,0.465,0S4.05,5.711,4.16,5.76c0.098,0.049,0.128,0.263,0.233,0.312
		C4.491,6.121,4.656,6.066,4.76,6.115s0.11,0.3,0.22,0.355c0.098,0.049,0.227,0.061,0.331,0.11C5.415,6.635,5.446,6.825,5.55,6.874
		c0.104,0.061,0.374-0.221,0.478-0.159c0.104,0.049,0.177,0.159,0.288,0.214c0.098,0.055,0.11,0.275,0.22,0.337
		c0.098,0.049,0.27-0.012,0.368,0.037C7.013,7.363,7.16,7.327,7.27,7.376c0.098,0.061,0.159,0.202,0.257,0.257
		c0.104,0.061,0.208,0.116,0.318,0.171c0.098,0.061,0.147,0.232,0.251,0.294C8.2,8.153,8.445,7.97,8.555,8.037
		c0.098,0.055,0.19,0.147,0.294,0.208c0.104,0.067,0.171,0.196,0.27,0.257c0.098,0.074,0.159,0.202,0.257,0.27
		c0.092,0.073,0.196,0.141,0.294,0.22c0.086,0.086,0.11,0.227,0.196,0.313c0.08,0.085,0.086,0.232,0.159,0.324
		c0.074,0.085,0.41-0.024,0.484,0.067c0.073,0.092-0.043,0.324,0.018,0.428c0.074,0.098,0.11,0.214,0.171,0.313
		c0.062,0.098,0.019,0.257,0.08,0.355c0.055,0.11,0.374,0.061,0.429,0.165c0.055,0.104,0.202,0.166,0.257,0.263
		c0.055,0.11-0.085,0.318-0.03,0.423c0.055,0.104-0.062,0.3-0.012,0.397c0.061,0.11,0.116,0.208,0.171,0.306
		c0.049,0.11,0.336,0.098,0.385,0.202c0.049,0.104,0.227,0.153,0.276,0.257c0.049,0.104-0.123,0.313-0.074,0.422
		c0.049,0.104,0.171,0.178,0.214,0.282c0.043,0.11,0.08,0.22,0.128,0.331c0.049,0.098,0.049,0.233,0.092,0.343
		c0.043,0.11,0.263,0.135,0.306,0.245c0.043,0.11-0.043,0.269,0.006,0.379c0.049,0.11,0.061,0.227,0.116,0.331
		c0.042,0.11,0.275,0.135,0.318,0.245c0.042,0.11-0.141,0.318-0.092,0.429c0.049,0.104,0.073,0.22,0.122,0.331
		C13.44,16.239,13.563,16.264,13.612,16.374z M14.64,19.967c0.098-0.061,0.208-0.03,0.3-0.098s0.178-0.141,0.27-0.214
		c0.092-0.062,0.189-0.123,0.288-0.196c0.092-0.062,0.184-0.135,0.275-0.196c0.092-0.074,0.239-0.062,0.337-0.123
		c0.092-0.062,0.232-0.037,0.331-0.098c0.098-0.061,0.024-0.41,0.122-0.465c0.098-0.049,0.257,0.006,0.367-0.037
		c0.098-0.049,0.276,0.11,0.386,0.074c0.104-0.037,0.067-0.478,0.178-0.514c0.11-0.037,0.294,0.141,0.404,0.098
		c0.11-0.037,0.184-0.159,0.288-0.208c0.104-0.037,0.202-0.098,0.313-0.141c0.11-0.043,0.281,0.092,0.386,0.042
		c0.104-0.042,0.226-0.061,0.324-0.11c0.104-0.055,0.147-0.227,0.245-0.282c0.11-0.049,0.184-0.135,0.282-0.196
		c0.098-0.049,0.233-0.049,0.337-0.104c0.092-0.055,0.189-0.129,0.275-0.19c0.098-0.067,0.251-0.061,0.336-0.135
		c0.092-0.067,0.251-0.067,0.337-0.147c0.085-0.073,0.067-0.263,0.147-0.343c0.085-0.085,0.281-0.061,0.355-0.159
		c0.073-0.085-0.098-0.373-0.031-0.465c0.067-0.086,0.214-0.123,0.275-0.221c0.067-0.085,0.031-0.239,0.086-0.336
		c0.055-0.092,0.159-0.171,0.232-0.251c0.074-0.086,0.257-0.049,0.337-0.116c0.092-0.08-0.019-0.374,0.061-0.453
		c0.086-0.086,0.3-0.031,0.374-0.116c0.073-0.092,0.159-0.178,0.22-0.27c0.074-0.098,0.159-0.184,0.22-0.288
		c0.049-0.104,0.233-0.153,0.276-0.263c0.042-0.11,0.042-0.251,0.08-0.367c0.024-0.11,0.012-0.239,0.037-0.355
		c0.024-0.11-0.184-0.257-0.166-0.379c0.006-0.11,0.349-0.208,0.349-0.331c0.006-0.116-0.074-0.245-0.08-0.355
		c-0.006-0.123-0.128-0.232-0.141-0.355c0-0.11,0.171-0.232,0.165-0.355c-0.006-0.123-0.336-0.233-0.336-0.349
		s0.024-0.251,0.037-0.361c0.006-0.123,0.257-0.208,0.275-0.331c0.019-0.117,0.08-0.208,0.116-0.318
		c0.037-0.11-0.202-0.337-0.147-0.441c0.062-0.11,0.392-0.073,0.441-0.184c0.037-0.11-0.098-0.282-0.067-0.392
		c0.031-0.123,0.055-0.233,0.067-0.343c0.012-0.117-0.019-0.227-0.019-0.343c0-0.123,0.104-0.245,0.092-0.355
		c-0.012-0.122,0.086-0.257,0.074-0.379c-0.024-0.11-0.11-0.22-0.135-0.331c-0.031-0.11-0.024-0.239-0.061-0.355
		c-0.025-0.11-0.074-0.22-0.104-0.331c-0.03-0.11-0.189-0.184-0.226-0.294c-0.037-0.116-0.214-0.189-0.245-0.306
		c-0.037-0.11-0.147-0.208-0.171-0.325c-0.018-0.116,0.318-0.288,0.294-0.41c-0.012-0.11-0.367-0.208-0.367-0.324
		S23.7,4.26,23.712,4.144c0-0.012-0.263-0.012-0.367-0.049c-0.123,0.098-0.147,0.331-0.282,0.435
		c-0.092,0.073-0.184,0.153-0.27,0.227c-0.092,0.073-0.232,0.085-0.318,0.159c-0.098,0.073-0.404-0.116-0.496-0.043
		c-0.092,0.074-0.031,0.337-0.123,0.41c-0.092,0.067-0.318-0.024-0.41,0.049c-0.085,0.067-0.037,0.325-0.122,0.404
		c-0.092,0.073-0.282,0.03-0.368,0.098c-0.098,0.074-0.238,0.08-0.33,0.147c-0.098,0.074-0.074,0.294-0.166,0.367
		c-0.092,0.074-0.19,0.147-0.288,0.208c-0.098,0.073-0.171,0.184-0.275,0.245s-0.263,0.012-0.374,0.074
		c-0.11,0.055-0.159,0.226-0.27,0.281c-0.11,0.049-0.165,0.196-0.269,0.257c-0.11,0.055-0.343-0.116-0.447-0.049
		c-0.104,0.062-0.104,0.27-0.196,0.343c-0.092,0.074-0.416-0.073-0.496,0.013c-0.073,0.085,0.073,0.379,0,0.465
		c-0.073,0.086-0.153,0.171-0.227,0.257c-0.073,0.092-0.324,0.037-0.392,0.128c-0.074,0.092,0.104,0.367,0.037,0.459
		c-0.067,0.086-0.239,0.11-0.312,0.202c-0.062,0.092,0,0.275-0.062,0.374c-0.061,0.092-0.435-0.012-0.49,0.085
		c-0.067,0.098,0.196,0.392,0.135,0.49c-0.061,0.098-0.367,0.049-0.416,0.159c-0.055,0.098-0.049,0.233-0.098,0.331
		c-0.049,0.11,0.043,0.275-0.006,0.379c-0.055,0.104-0.141,0.184-0.178,0.294c-0.049,0.098-0.166,0.178-0.208,0.282
		c-0.043,0.11-0.263,0.147-0.306,0.257c-0.037,0.11,0.104,0.282,0.073,0.392c-0.037,0.104-0.092,0.208-0.122,0.318
		c-0.031,0.11,0.012,0.245-0.012,0.355c-0.025,0.11-0.208,0.189-0.227,0.3c-0.019,0.116,0.208,0.275,0.189,0.386
		c-0.018,0.11-0.208,0.196-0.227,0.306c-0.012,0.116,0.214,0.257,0.208,0.367c-0.006,0.11-0.019,0.22-0.031,0.331
		c-0.006,0.116-0.019,0.227-0.024,0.343c0,0.11-0.147,0.22-0.147,0.331c0,0.116,0.128,0.22,0.135,0.343
		c0.012,0.159-0.514,0.294-0.539,0.465c-0.025,0.11,0.146,0.257,0.128,0.367c-0.019,0.116,0.092,0.251,0.08,0.367
		c-0.024,0.11,0.055,0.245,0.037,0.349c-0.019,0.116-0.067,0.22-0.085,0.336c-0.019,0.11-0.27,0.184-0.282,0.3
		c-0.019,0.117,0.177,0.257,0.159,0.374c-0.019,0.11-0.116,0.208-0.135,0.318s-0.282,0.196-0.294,0.306s-0.037,0.232-0.049,0.343
		c-0.012,0.092,0.11,0.232,0.147,0.331c0.037,0.085,0.135,0.153,0.177,0.245C14.548,19.839,14.604,19.875,14.64,19.967z
		 M4.687,7.449c0.012,0.123-0.042,0.196-0.024,0.318C4.681,7.884,4.711,8,4.736,8.11C4.748,8.233,4.76,8.349,4.778,8.465
		C4.797,8.582,4.815,8.698,4.833,8.82c0.019,0.11-0.061,0.239-0.043,0.355c0.019,0.123-0.067,0.251-0.049,0.367
		C4.76,9.659,5.115,9.727,5.127,9.849c0.024,0.11-0.092,0.245-0.073,0.367c0.018,0.117-0.178,0.264-0.159,0.38
		c0.012,0.122,0.453,0.171,0.477,0.294c0.013,0.11-0.196,0.269-0.177,0.379c0.018,0.123,0.128,0.22,0.141,0.343
		c0.019,0.116,0.062,0.232,0.08,0.343c0.019,0.123-0.153,0.269-0.128,0.386c0.019,0.116,0.012,0.239,0.037,0.361
		c0.019,0.11,0.171,0.208,0.196,0.318c0.024,0.123,0.08,0.227,0.098,0.343c0.024,0.123-0.024,0.251,0,0.367
		c0.024,0.117,0.055,0.233,0.08,0.343c0.024,0.116-0.043,0.251-0.019,0.367c0.024,0.11-0.037,0.251-0.006,0.367
		c0.03,0.11,0.202,0.184,0.239,0.294c0.03,0.11-0.074,0.269-0.043,0.379c0.037,0.11,0.379,0.116,0.422,0.22
		c0.037,0.11-0.012,0.257,0.024,0.367c0.049,0.104,0.19,0.171,0.232,0.27c0.049,0.11,0.062,0.227,0.11,0.331
		s-0.037,0.282,0.019,0.379c0.055,0.11,0.373,0.062,0.435,0.159c0.061,0.098-0.049,0.294,0.012,0.392
		c0.067,0.098,0.116,0.202,0.184,0.293s0.11,0.208,0.184,0.294c0.073,0.092,0.037,0.275,0.104,0.361
		c0.08,0.092,0.19,0.153,0.263,0.239c0.08,0.085,0.196,0.134,0.282,0.22c0.08,0.08,0.312,0,0.398,0.073
		c0.085,0.074-0.037,0.404,0.055,0.478c0.085,0.074,0.232,0.086,0.331,0.153c0.092,0.067,0.257,0.03,0.355,0.092
		c0.098,0.067,0.104,0.281,0.202,0.343c0.098,0.061,0.361-0.171,0.472-0.11c0.098,0.061,0.184,0.135,0.294,0.184
		c0.098,0.055,0.092,0.318,0.196,0.379c0.104,0.049,0.196,0.141,0.293,0.19c0.11,0.055,0.343-0.177,0.453-0.135
		c0.104,0.049,0.074,0.386,0.184,0.435c0.11,0.043,0.294-0.073,0.392-0.037c0.11,0.049,0.214,0.098,0.318,0.135
		c0.11,0.049,0.233,0.055,0.343,0.098c0.11,0.049,0.171,0.189,0.281,0.232c0.11,0.037,0.171,0.196,0.282,0.245
		c0.11,0.037,0.239,0.025,0.343,0.062c0.11,0.043,0.208,0.123,0.318,0.165c0.104,0.043,0.22,0.08,0.324,0.116
		c0.11,0.043,0.263-0.037,0.374,0.006s0.27-0.055,0.379-0.019c0.104,0.049,0.006,0.062,0.11,0.104
		c-0.049-0.104,0.184-0.104,0.135-0.202c-0.037-0.104-0.404-0.074-0.453-0.171c-0.043-0.104,0.245-0.355,0.196-0.465
		c-0.049-0.098-0.281-0.116-0.331-0.22c-0.043-0.104-0.239-0.141-0.288-0.245c-0.043-0.104-0.098-0.202-0.141-0.306
		c-0.049-0.11-0.024-0.245-0.074-0.343c-0.043-0.11,0.233-0.355,0.184-0.453c-0.049-0.11-0.312-0.11-0.355-0.221
		c-0.049-0.098,0.11-0.293,0.067-0.398c-0.043-0.104-0.306-0.116-0.349-0.226c-0.049-0.098,0.042-0.257,0-0.368
		c-0.049-0.11-0.013-0.245-0.062-0.355c-0.037-0.098-0.257-0.128-0.294-0.232c-0.03-0.098-0.067-0.196-0.098-0.306
		c-0.037-0.098-0.123-0.184-0.147-0.294c-0.037-0.098,0.049-0.232,0.019-0.343c-0.031-0.098-0.184-0.171-0.214-0.269
		c-0.037-0.098-0.159-0.171-0.196-0.27c-0.037-0.098,0.171-0.288,0.134-0.386c-0.042-0.104-0.245-0.141-0.293-0.251
		c-0.043-0.098,0.208-0.343,0.159-0.44c-0.049-0.11-0.374-0.08-0.422-0.178c-0.049-0.104-0.092-0.208-0.141-0.312
		c-0.055-0.104,0.104-0.306,0.055-0.404c-0.049-0.104-0.379-0.085-0.422-0.184c-0.049-0.11,0.031-0.263-0.012-0.367
		c-0.037-0.11-0.22-0.171-0.257-0.282c-0.037-0.11,0.27-0.343,0.233-0.459c-0.043-0.11-0.435-0.085-0.478-0.19
		c-0.049-0.11,0.165-0.336,0.116-0.44c-0.049-0.11-0.171-0.184-0.227-0.288c-0.061-0.104-0.257-0.129-0.318-0.227
		c-0.061-0.11-0.085-0.221-0.146-0.325c-0.067-0.098-0.062-0.239-0.135-0.336c-0.067-0.098,0.012-0.313-0.062-0.404
		c-0.073-0.092-0.3-0.061-0.379-0.159c-0.073-0.085-0.135-0.196-0.208-0.281c-0.086-0.086-0.22-0.123-0.3-0.208
		c-0.08-0.086-0.062-0.282-0.147-0.355C9.1,9.947,8.837,10.057,8.751,9.971C8.666,9.898,8.696,9.677,8.604,9.604
		C8.519,9.53,8.268,9.647,8.176,9.567C8.09,9.494,8.004,9.42,7.907,9.347C7.809,9.273,7.723,9.2,7.631,9.133
		C7.539,9.059,7.527,8.882,7.429,8.808C7.331,8.747,7.172,8.771,7.068,8.71C6.97,8.637,7.092,8.257,6.988,8.184
		c-0.092-0.061-0.3,0.037-0.398-0.012C6.493,8.11,6.327,8.19,6.229,8.147c-0.11-0.049-0.245,0-0.355-0.037
		C5.77,8.067,5.678,8.006,5.568,7.97C5.464,7.933,5.434,7.676,5.323,7.633c-0.11-0.037-0.288,0.135-0.392,0.092
		C4.797,7.664,4.785,7.492,4.687,7.449z"/>
	<path d="M48.16,37.034c0.099,0.079,0.441-0.153,0.539-0.067c0.086,0.073,0.006,0.354,0.104,0.44
		c0.092,0.073,0.227,0.104,0.324,0.184c0.092,0.079,0.349,0.135,0.446,0.221c-0.092,0.067-0.257,0.263-0.349,0.33
		c-0.098,0.062-0.214,0.11-0.313,0.172c-0.104,0.061-0.189,0.159-0.293,0.208c-0.104,0.055-0.361-0.232-0.472-0.184
		c-0.104,0.049-0.135,0.281-0.245,0.318c-0.104,0.043-0.208,0.098-0.318,0.135c-0.11,0.036-0.257-0.062-0.367-0.025
		c-0.11,0.031-0.22,0.062-0.33,0.086c-0.116,0.024-0.202,0.165-0.313,0.19c-0.116,0.018-0.238,0.006-0.349,0.024
		c-0.11,0.018-0.251-0.116-0.367-0.104c-0.11,0.019-0.221,0.037-0.343,0.055c-0.11,0.019-0.184,0.325-0.294,0.337
		c-0.123,0.024-0.245-0.012-0.367,0c-0.117,0.013-0.27-0.27-0.393-0.257c-0.116,0.013-0.232,0.062-0.354,0.073
		c-0.11,0.013-0.221,0.129-0.343,0.135c-0.116,0.013-0.232,0.049-0.355,0.056c-0.122,0.006-0.22,0.214-0.343,0.226
		c-0.122,0.013-0.257-0.22-0.379-0.208c-0.116,0.007-0.227,0.184-0.343,0.19c-0.116,0.006-0.258-0.178-0.374-0.166
		c-0.116,0.013-0.227,0.178-0.343,0.184c-0.116,0.019-0.245-0.024-0.361-0.012c-0.116,0.012-0.244-0.037-0.367-0.024
		c-0.11,0.012-0.227,0.036-0.343,0.049c-0.11,0.013-0.227,0.037-0.343,0.049c-0.11,0.013-0.208,0.159-0.318,0.184
		c-0.116,0.013-0.257-0.146-0.373-0.135c-0.116,0.024-0.227,0.037-0.343,0.056c-0.116,0.018-0.184,0.33-0.3,0.349
		c-0.11,0.019-0.245-0.073-0.355-0.055c-0.116,0.018-0.208,0.184-0.318,0.201c-0.116,0.019-0.251-0.098-0.367-0.079
		s-0.257-0.141-0.373-0.129c-0.11,0.019-0.19,0.3-0.3,0.318c-0.11,0.019-0.367,0.062-0.484,0.073
		c-0.036-0.122,0.178-0.354,0.142-0.477c0.109-0.062,0.049-0.245,0.152-0.318c0.104-0.074,0.337,0.061,0.447,0
		c0.116-0.062,0.135-0.38,0.27-0.404c0.11-0.013,0.232,0.049,0.354,0.03c0.11-0.019,0.251,0.129,0.361,0.116
		c0.116-0.018,0.189-0.336,0.3-0.354s0.232,0.012,0.343-0.007c0.116-0.012,0.251,0.117,0.367,0.104
		c0.11-0.012,0.202-0.232,0.318-0.245c0.11-0.012,0.233,0.024,0.35,0.013c0.116-0.013,0.251,0.135,0.36,0.122
		c0.117-0.012,0.233-0.055,0.343-0.073c0.11-0.013,0.251,0.146,0.368,0.129c0.109-0.013,0.184-0.35,0.3-0.361
		c0.116-0.013,0.238,0.073,0.354,0.049c0.116-0.013,0.221-0.086,0.337-0.098c0.11-0.013,0.27,0.294,0.386,0.269
		c0.116-0.012,0.221-0.073,0.337-0.085c0.11-0.013,0.195-0.251,0.318-0.264c0.109-0.019,0.244,0.123,0.367,0.104
		c0.11-0.019,0.189-0.294,0.306-0.307c0.098-0.012,0.232,0.147,0.343,0.123c0.098-0.024,0.227,0.024,0.324-0.007
		c0.104-0.03,0.196-0.098,0.294-0.128c0.099-0.037,0.202-0.073,0.3-0.099c0.11-0.03,0.159-0.232,0.264-0.257
		c0.116-0.03,0.238,0,0.349-0.03c0.116-0.03,0.288,0.141,0.404,0.116c0.11-0.03,0.221-0.037,0.33-0.062
		c0.123-0.024,0.196-0.232,0.318-0.244c0.11-0.013,0.239-0.099,0.355-0.086c0.129,0.012,0.245,0.208,0.349,0.195
		c0.129-0.012,0.153-0.312,0.239-0.354c0.11-0.049,0.373,0.135,0.446,0.043c0.067-0.08-0.036-0.275,0-0.398
		c0.031-0.098,0.123-0.184,0.135-0.318L48.16,37.034z"/>
	<path d="M16.231,17.611c-0.018-0.123,0.012-0.147,0-0.257c0-0.116-0.196-0.232-0.196-0.343c0-0.123,0.196-0.232,0.196-0.343
		c0.012-0.123,0.141-0.214,0.159-0.331c0.019-0.116-0.049-0.232-0.018-0.343c0.018-0.11-0.263-0.312-0.227-0.422
		c0.024-0.11,0.343-0.135,0.379-0.251c0.037-0.104,0.19-0.159,0.239-0.257c0.049-0.11-0.184-0.355-0.128-0.453
		c0.061-0.098,0.08-0.245,0.141-0.337c0.067-0.092,0.471,0.043,0.539-0.049s-0.177-0.429-0.104-0.521
		c0.074-0.085,0.355,0,0.422-0.085c0.074-0.086,0.092-0.22,0.166-0.306c0.073-0.086,0.012-0.282,0.08-0.367
		c0.067-0.086,0.134-0.184,0.202-0.27c0.067-0.085,0.147-0.171,0.221-0.257c0.067-0.086,0.098-0.196,0.171-0.294
		c0.061-0.086,0.428,0.049,0.49-0.043c0.073-0.092-0.031-0.306,0.042-0.398c0.067-0.085,0.117-0.196,0.184-0.281
		c0.067-0.086,0.239-0.104,0.313-0.196c0.061-0.085,0.135-0.177,0.196-0.269c0.067-0.086,0.037-0.251,0.098-0.343
		c0.073-0.086,0.165-0.159,0.232-0.251c0.061-0.092,0.257-0.092,0.324-0.178c0.067-0.092,0.129-0.184,0.196-0.281
		c0.067-0.098-0.117-0.349-0.067-0.453c0.049-0.11,0.147-0.196,0.184-0.306s0.367-0.128,0.404-0.245
		c0.037-0.11,0.037-0.245,0.074-0.355c0.037-0.122-0.025-0.257,0.024-0.373c0.042-0.117,0.067-0.227,0.116-0.343
		c0.043-0.117-0.092-0.3-0.043-0.41c0.043-0.11,0.318-0.123,0.367-0.239c0.049-0.116-0.055-0.288-0.012-0.398
		c0.049-0.116,0.196-0.074,0.245-0.196c0.122,0.061,0.196-0.024,0.294,0.024c0.11,0.073,0.184,0.184,0.257,0.257
		c0.092,0.086,0.073,0.178,0.092,0.294c0.012,0.098,0.006,0.171-0.043,0.306c-0.037,0.092-0.085,0.184-0.159,0.306
		c-0.061,0.098-0.012,0.269-0.073,0.367s-0.282,0.11-0.343,0.208c-0.055,0.098-0.11,0.208-0.171,0.306
		c-0.061,0.104,0.141,0.355,0.085,0.453c-0.061,0.104-0.208,0.159-0.269,0.257c-0.055,0.098,0.024,0.27-0.037,0.38
		c-0.062,0.098-0.233,0.134-0.294,0.238c-0.049,0.104-0.27,0.117-0.325,0.221c-0.055,0.104,0.123,0.336,0.062,0.435
		c-0.055,0.11-0.062,0.239-0.116,0.343c-0.049,0.104-0.417,0.037-0.478,0.135c-0.062,0.11,0.073,0.318,0.018,0.416
		c-0.055,0.11-0.324,0.092-0.379,0.196c-0.055,0.098,0.135,0.343,0.08,0.447c-0.061,0.104-0.196,0.165-0.251,0.263
		c-0.055,0.098-0.263,0.11-0.324,0.214c-0.062,0.104,0.122,0.38,0.049,0.478c-0.074,0.104-0.196,0.171-0.282,0.263
		c-0.073,0.098-0.269,0.086-0.355,0.171c-0.085,0.098-0.024,0.318-0.11,0.404c-0.085,0.092-0.208,0.135-0.288,0.227
		s-0.288,0.067-0.367,0.165c-0.08,0.098-0.128,0.208-0.19,0.313c-0.067,0.098-0.281,0.116-0.336,0.214
		c-0.055,0.11,0.171,0.361,0.116,0.465c-0.049,0.104-0.196,0.159-0.245,0.27c-0.049,0.11-0.043,0.245-0.086,0.343
		c-0.049,0.11-0.392,0.085-0.441,0.184c-0.049,0.11-0.061,0.232-0.11,0.336s0.085,0.306,0.037,0.41
		c-0.055,0.104-0.245,0.116-0.318,0.221c-0.073,0.092,0.061,0.343-0.012,0.44C16.464,17.611,16.299,17.513,16.231,17.611z"/>
	<path d="M11.793,19.863c-0.08-0.073-0.092-0.441-0.171-0.514s-0.11-0.208-0.196-0.282c-0.085-0.073-0.27-0.018-0.349-0.098
		c-0.085-0.074-0.33,0.037-0.416-0.043c-0.073-0.08,0.116-0.422,0.037-0.496c-0.073-0.086-0.128-0.159-0.196-0.245
		c-0.067-0.085-0.404,0.024-0.465-0.061c-0.073-0.086,0.012-0.288-0.049-0.38c-0.073-0.085-0.245-0.104-0.306-0.196
		c-0.061-0.092-0.22-0.122-0.288-0.22c-0.055-0.092,0.128-0.343,0.08-0.441c-0.055-0.098-0.147-0.171-0.196-0.269
		c-0.049-0.098-0.27-0.123-0.313-0.227c-0.042-0.098,0.08-0.275,0.043-0.374c-0.037-0.11,0.043-0.245,0.012-0.355
		c-0.03-0.098-0.135-0.184-0.159-0.294c-0.024-0.11-0.367-0.159-0.379-0.275c-0.012-0.104,0.245-0.263,0.22-0.374
		c-0.03-0.104,0.049-0.251,0.012-0.355c-0.037-0.104-0.373-0.092-0.416-0.196c-0.049-0.098-0.135-0.171-0.184-0.269
		c-0.049-0.098,0.269-0.38,0.22-0.478c-0.049-0.098-0.453-0.012-0.508-0.11c-0.055-0.098,0.128-0.318,0.08-0.416
		c-0.049-0.098-0.159-0.159-0.208-0.264c-0.049-0.098-0.251-0.128-0.293-0.226c-0.049-0.11-0.11-0.221-0.159-0.331
		c-0.049-0.104-0.086-0.221-0.135-0.331c-0.049-0.11-0.141-0.202-0.19-0.313c-0.055-0.104,0.239-0.361,0.19-0.478
		c-0.049-0.116-0.282-0.141-0.331-0.251c-0.049-0.11-0.11-0.22-0.153-0.331c-0.03-0.08,0.117-0.184,0.153-0.288
		c0.031-0.092,0.037-0.153,0.061-0.239c0.092,0.024,0.19-0.061,0.3-0.037C7.27,9.836,7.38,9.91,7.429,9.99
		c0.061,0.104-0.019,0.288,0.037,0.385c0.061,0.104,0.123,0.208,0.184,0.306c0.061,0.104,0.367,0.062,0.429,0.171
		c0.061,0.098,0.073,0.233,0.134,0.331c0.055,0.11-0.153,0.355-0.098,0.459c0.061,0.104,0.147,0.189,0.196,0.3
		c0.055,0.098,0.196,0.159,0.257,0.269c0.049,0.11,0.123,0.202,0.172,0.306c0.049,0.11,0.281,0.135,0.33,0.245
		c0.049,0.11-0.141,0.306-0.098,0.422c0.037,0.104,0.232,0.165,0.27,0.275c0.03,0.116-0.123,0.282-0.086,0.392
		c0.024,0.116,0.208,0.184,0.239,0.294c0.031,0.116,0.006,0.245,0.043,0.355c0.037,0.11,0.012,0.245,0.049,0.355
		c0.037,0.11,0.085,0.22,0.128,0.331s0.092,0.221,0.153,0.325c0.049,0.104,0.22,0.153,0.281,0.263c0.062,0.11-0.049,0.3,0.012,0.404
		c0.062,0.104,0.123,0.208,0.184,0.306c0.061,0.11,0.379,0.055,0.44,0.159c0.062,0.098,0.037,0.257,0.098,0.355
		c0.067,0.11,0.257,0.123,0.324,0.22c0.062,0.104,0.019,0.282,0.08,0.38c0.062,0.11-0.024,0.306,0.043,0.404
		c0.061,0.098,0.349,0.061,0.41,0.159c0.067,0.11,0.177,0.184,0.245,0.282c0.049,0.092-0.208,0.355-0.159,0.453
		c0.049,0.098,0.294,0.086,0.337,0.19c0.043,0.092-0.123,0.153-0.08,0.251C11.873,19.435,11.91,19.778,11.793,19.863z"/>
</g>
<g>
</g>
<g>
</g>
<g>
</g>
<g>
</g>
<g>
</g>
<g>
</g>
<g>
</g>
<g>
</g>
<g>
</g>
<g>
</g>
<g>
</g>
<g>
</g>
<g>
</g>
<g>
</g>
<g>
</g>
</svg>
