<?xml version="1.0" encoding="utf-8"?>
<!-- Generator: Adobe Illustrator 16.0.0, SVG Export Plug-In . SVG Version: 6.00 Build 0)  -->
<!DOCTYPE svg PUBLIC "-//W3C//DTD SVG 1.1//EN" "http://www.w3.org/Graphics/SVG/1.1/DTD/svg11.dtd">
<svg version="1.1" id="圖層_1" xmlns="http://www.w3.org/2000/svg" xmlns:xlink="http://www.w3.org/1999/xlink" x="0px" y="0px"
	 width="55px" height="55px" viewBox="0 0 55 55" enable-background="new 0 0 55 55" xml:space="preserve">
<path d="M42.659,40.317c1.186,1.187,2.326,2.328,3.479,3.469c0.407,0.396,0.622,0.87,0.564,1.435
	c-0.079,0.655-0.429,1.13-1.039,1.367c-0.655,0.248-1.265,0.124-1.762-0.361c-1.062-1.04-2.101-2.102-3.151-3.142
	c-0.135-0.135-0.271-0.26-0.429-0.407c-3.23,2.689-6.924,4.237-11.16,4.633v4.858c0,1.084-0.688,1.841-1.671,1.83
	c-0.96-0.011-1.638-0.757-1.638-1.819v-4.869c-4.213-0.396-7.907-1.932-11.183-4.645c-0.723,0.723-1.423,1.424-2.124,2.136
	c-0.463,0.463-0.927,0.938-1.389,1.39c-0.723,0.7-1.74,0.712-2.407,0.034c-0.644-0.667-0.632-1.661,0.057-2.361
	c1.152-1.164,2.315-2.316,3.513-3.525c-2.677-3.243-4.247-6.938-4.631-11.186H6.75c-1.345,0-2.689,0.011-4.033,0
	C1.746,29.144,1.012,28.443,1,27.517c-0.011-0.949,0.723-1.672,1.717-1.672c1.638-0.012,3.276,0,4.959,0
	c0.396-4.204,1.932-7.908,4.643-11.174c-1.152-1.152-2.293-2.282-3.411-3.422c-0.226-0.227-0.429-0.509-0.542-0.802
	C8.094,9.722,8.41,8.92,9.065,8.514c0.655-0.396,1.457-0.317,2.044,0.259c1.051,1.028,2.078,2.067,3.106,3.107
	c0.136,0.136,0.237,0.293,0.373,0.485c3.31-2.734,7.015-4.293,11.239-4.677V2.91c0-1.153,0.655-1.91,1.649-1.91
	c0.995-0.011,1.672,0.757,1.672,1.887v4.802c4.213,0.396,7.918,1.932,11.183,4.644c1.174-1.175,2.315-2.317,3.457-3.469
	c0.395-0.406,0.858-0.632,1.435-0.576c0.677,0.067,1.163,0.44,1.4,1.074c0.237,0.654,0.09,1.265-0.407,1.762
	c-1.028,1.04-2.067,2.079-3.106,3.107c-0.136,0.136-0.294,0.237-0.463,0.384c1.344,1.649,2.417,3.356,3.208,5.254
	c0.79,1.887,1.265,3.864,1.457,5.977h4.891c1.051,0,1.796,0.701,1.796,1.661s-0.746,1.649-1.796,1.661h-4.891
	c-0.192,2.08-0.667,4.044-1.446,5.931C45.076,36.962,44.014,38.691,42.659,40.317L42.659,40.317z M29.149,12.343
	c0,2.87,0,5.661,0.011,8.451c0,0.114,0.125,0.282,0.227,0.328c0.485,0.215,0.982,0.396,1.4,0.565
	c2.055-2.056,4.089-4.09,6.145-6.146C34.684,13.767,32.108,12.693,29.149,12.343L29.149,12.343z M29.171,42.588
	c2.316-0.045,6.62-1.863,7.76-3.23c-2.033-2.035-4.066-4.068-6.1-6.102c-0.531,0.226-1.084,0.453-1.661,0.69V42.588z M15.605,18.026
	c-1.626,1.751-3.389,6.079-3.163,7.785h8.596c0.237-0.576,0.474-1.129,0.688-1.661C19.683,22.104,17.65,20.071,15.605,18.026z
	 M12.364,29.166c0.338,2.938,1.423,5.525,3.197,7.751c2.067-2.057,4.111-4.101,6.156-6.147c-0.215-0.507-0.441-1.061-0.667-1.604
	H12.364z M39.417,18.071c-2.056,2.056-4.089,4.09-6.145,6.146c0.147,0.35,0.373,0.757,0.485,1.175c0.102,0.35,0.249,0.44,0.61,0.44
	c2.586-0.011,5.162-0.011,7.749-0.011c0.147,0,0.305-0.011,0.452-0.022C42.614,23.698,40.998,19.8,39.417,18.071z M39.383,36.973
	c1.808-2.283,2.892-4.87,3.231-7.807h-8.675c-0.249,0.588-0.475,1.141-0.689,1.66C35.283,32.872,37.305,34.895,39.383,36.973
	L39.383,36.973z M25.76,42.611c0.034-0.068,0.068-0.09,0.068-0.125c0-2.779,0.011-5.547,0-8.327c0-0.112-0.125-0.271-0.226-0.328
	c-0.486-0.214-0.983-0.406-1.378-0.565c-2.067,2.067-4.1,4.101-6.156,6.158C20.305,41.198,22.88,42.271,25.76,42.611L25.76,42.611z
	 M25.817,12.343c-2.959,0.361-5.535,1.435-7.783,3.219c2.078,2.079,4.1,4.102,6.134,6.147c0.52-0.215,1.073-0.452,1.649-0.689
	V12.343L25.817,12.343z"/>
<g>
</g>
<g>
</g>
<g>
</g>
<g>
</g>
<g>
</g>
<g>
</g>
<g>
</g>
<g>
</g>
<g>
</g>
<g>
</g>
<g>
</g>
<g>
</g>
<g>
</g>
<g>
</g>
<g>
</g>
</svg>
