<?xml version="1.0" encoding="utf-8"?>
<!-- Generator: Adobe Illustrator 16.0.0, SVG Export Plug-In . SVG Version: 6.00 Build 0)  -->
<!DOCTYPE svg PUBLIC "-//W3C//DTD SVG 1.1//EN" "http://www.w3.org/Graphics/SVG/1.1/DTD/svg11.dtd">
<svg version="1.1" id="圖層_1" xmlns="http://www.w3.org/2000/svg" xmlns:xlink="http://www.w3.org/1999/xlink" x="0px" y="0px"
	 width="315px" height="90px" viewBox="0 0 315 90" enable-background="new 0 0 315 90" xml:space="preserve">
<g>
	<path d="M280.081,58.108c-0.273,2.296-0.507,4.44-0.789,6.575c-0.424,3.145-1.218,6.168-2.847,8.94
		c-1.145,1.945-2.15,3.968-3.284,5.918c-0.505,0.873-1.256,0.689-1.744,0c-1.323-1.877-2.589-3.806-3.834-5.734
		c-0.328-0.506-0.512-1.105-0.762-1.667c-0.15,0-0.306,0.011-0.456,0.011c0,1.602-0.111,3.207,0.033,4.79
		c0.139,1.579-0.522,2.207-2.045,1.795c-1.955-0.527-3.929-0.988-5.907-1.406c-0.983-0.204-1.133-0.688-1.05-1.634
		c0.25-2.827,0.412-5.661,0.517-8.502c0.111-2.873,0.229-5.751,0.139-8.618c-0.089-2.746-0.456-5.479-0.684-8.219
		c-0.038-0.501-0.006-1.001-0.006-1.679c-0.61,0.961-1.15,1.851-1.738,2.712c-0.545,0.794-0.984,0.972-1.706,0
		c-1.223-1.64-2.724-3.072-3.969-4.695c-0.282-0.373-0.217-1.251,0.012-1.74c0.745-1.579,1.768-3.035,2.45-4.635
		c0.733-1.722,1.251-3.545,1.79-5.345c0.645-2.128,1.222-4.279,1.816-6.425c0.063-0.216,0.005-0.46,0.005-0.678
		c-1.238,0-2.411,0.012-3.583,0c-1.974-0.022-2.245-0.483-1.945-2.406c0.267-1.739,0.328-3.517,0.39-5.279
		c0.056-1.639,0.678-2.25,2.34-2.106c1.489,0.128,2.983,0.228,4.557,0.35c0-1.234,0.038-2.3-0.006-3.367
		c-0.116-2.874-0.283-5.741-0.412-8.614c-0.056-1.305,0.435-1.728,1.746-1.7c1.777,0.033,3.567,0.111,5.335-0.028
		c1.661-0.133,1.506,1.012,1.533,1.951c0.033,1.156-0.205,2.323-0.173,3.484c0.072,2.518,0.25,5.034,0.373,7.346
		c1.862,1.134,2.611-0.122,3.372-1.123c0.59-0.777,0.861-1.833,2.157-1.79c0.183,0.005,0.478-0.461,0.562-0.755
		c0.627-2.162,1.171-4.346,1.845-6.491c0.1-0.328,0.783-0.767,1.083-0.689c1.768,0.439,3.507,1.012,5.373,1.573
		c-0.455,2.033-0.849,3.817-1.238,5.568c1.345,0.756,2.65,1.495,4.273,2.407c0.061-1.112,0.211-2.023,0.145-2.918
		c-0.173-2.161-0.473-4.311-0.65-6.467c-0.021-0.295,0.35-0.879,0.589-0.907c1.706-0.183,3.43-0.25,5.141-0.361
		c0.378-0.022,0.806-0.222,1.111-0.1c0.583,0.245,1.501,0.595,1.572,1.017c0.484,2.973,0.783,5.973,1.128,8.869
		c2.417-0.289,2.096-2.457,2.591-4.045c0.35-1.128,0.488-2.329,0.639-3.513c0.1-0.783,0.428-0.978,1.156-0.783
		c0.961,0.25,1.944,0.417,2.906,0.683c1.577,0.429,1.811,1,1.5,2.629c-0.534,2.817-0.962,5.656-1.424,8.49
		c-0.01,0.061,0.106,0.145,0.328,0.439c0.34-0.928,0.667-1.717,0.918-2.528c0.244-0.789,0.361-1.617,0.633-2.395
		c0.278-0.795,1.645-1.206,2.295-0.74c1.062,0.762,2.079,1.579,3.15,2.318c1.352,0.928,1.524,1.844,0.752,3.194
		c-1.046,1.828-2.023,3.695-2.924,5.597c-0.483,1.017-0.772,2.134-1.072,3.228c-0.09,0.317,0.084,0.701,0.466,1.1
		c-0.41-1.817,0.579-2.556,1.906-3.262c1.618-0.855,2.229-0.955,3.618,1.229c1.506,2.362,2.557,5.018,3.746,7.574
		c0.333,0.717,0.133,1.323-0.701,1.751c-1.256,0.644-2.428,1.455-3.645,2.173c-1.062,0.622-1.545,0.389-1.757-0.828
		c-0.122-0.689-0.239-1.384-0.344-2.022c-1.184,0.588-2.29,1.139-3.135,1.562c2.751-0.584,3.052,2.25,4.473,3.9
		c1.124,0,2.362,0.006,3.602,0c0.84-0.005,1.25,0.25,1.046,1.211c-0.412,1.896-0.784,3.808-1.085,5.724
		c-0.205,1.313-0.999,1.601-2.14,1.546c-1.889-0.089-3.778-0.162-5.668-0.218c-0.455-0.01-0.911,0.078-1.367,0.123
		c-0.038,0.121-0.083,0.244-0.121,0.366c0.866,0.611,1.717,1.25,2.612,1.817c1.521,0.962,1.666,1.695,0.644,3.072
		c-0.944,1.279-1.967,2.524-2.695,3.924c-0.595,1.146-0.812,2.489-1.183,3.745c-0.04,0.135,0.016,0.328-0.056,0.423
		c-1.612,2.001-0.012,3.273,0.938,4.696c0.162,0.033,0.328,0.061,0.49,0.093c0.366-1.455,0.877-2.898,1.062-4.377
		c0.222-1.823,0.15-3.681,0.267-5.519c0.022-0.346,0.301-0.906,0.527-0.945c0.384-0.066,0.923,0.1,1.229,0.367
		c1.15,1.012,2.267,2.067,3.329,3.178c0.477,0.501,0.977,1.117,1.15,1.763c0.472,1.756,0.938,3.539,1.11,5.34
		c0.189,2.023,0.156,4.084,0.028,6.118c-0.172,2.645-0.456,5.291-0.839,7.913c-0.268,1.829-0.723,3.641-1.217,5.418
		c-0.306,1.096-2.507,2.057-3.679,2.073c-3.273,0.05-5.252-1.95-6.925-4.317c-1.639-2.323-3.085-4.785-4.651-7.241
		c-2.4,3.435-6.013,5.29-9.914,6.707c-0.833,0.306-1.455,0.156-1.855-0.761c-1.028-2.335-2.223-4.607-3.15-6.975
		c-0.701-1.795-1.178-3.689-1.557-5.579c-0.066-0.333,0.778-0.961,1.312-1.277c0.928-0.562,2.117-0.796,2.873-1.513
		c2.506-2.367,4.879-4.873,7.253-7.374c0.238-0.249,0.249-0.884,0.139-1.271c-0.317-1.156-0.745-2.279-0.951-2.873
		c-1.316,2.145-2.834,4.695-4.457,7.174c-0.238,0.366-1.005,0.622-1.461,0.544c-0.295-0.05-0.622-0.767-0.689-1.222
		C282.236,60.266,281.687,59.12,280.081,58.108L280.081,58.108z M272.623,48.328c-0.795,0.139-1.29,0.194-1.773,0.317
		c-2.006,0.499-2.54,0.116-2.679-1.924c-0.017-0.217-0.105-0.428-0.183-0.744c-1.768,0.772-2.034-0.794-2.663-1.656
		c0.384,7.659,0.763,15.298,1.168,23.401C270.317,61.665,271.128,55.097,272.623,48.328L272.623,48.328z M269.145,36.903
		c-0.178-0.772-0.306-1.557-0.545-2.307c-0.278-0.877-0.078-1.728,0.75-1.878c1.884-0.345,2.779-1.301,3.49-3.123
		c0.989-2.551,1.256-2.45-0.656-4.324c-0.256-0.249-0.572-0.445-0.895-0.695c-0.139,0.556-0.272,1.012-0.361,1.473
		c-0.223,1.139-0.584,1.89-2.023,2.084c-3.128,0.428-3.111,0.549-3.479,3.723c-0.038,0.361-0.121,0.711-0.193,1.117
		C268.166,32.83,267.889,35.436,269.145,36.903z M270.428,40.471c0.434,1.128,1.428,1.667,2.884,1.606
		c3.595-0.15,7.197-0.195,10.798-0.322c0.672-0.022,1.4-0.123,1.989-0.411c0.566-0.278,1.094-0.834,0.316-1.461
		c-0.967,0.444-1.839,0.933-2.767,1.244c-0.852,0.284-1.612,0.25-1.668-1.028c-0.028-0.672-0.372-1.333-0.644-2.234
		c-2.391,0.711-4.585,1.445-6.82,2.006C273.168,40.21,271.745,40.281,270.428,40.471L270.428,40.471z M281.636,49.59
		c1.028,0.089,2.001-0.122,2.5,0.267c1.284,1.007,2.362,2.272,3.519,3.44c0.271,0.277,0.522,0.583,0.778,0.877
		c0.039-1.589-0.194-3.033-0.428-4.473c-0.206-1.251-0.635-2.084-2.195-1.596c-0.694,0.218-1.512,0-2.262,0.079
		c-0.684,0.071-1.351,0.277-2.067,0.433C281.559,49.123,281.619,49.484,281.636,49.59L281.636,49.59z M295.512,37.003
		c0.051,1.007,0.012,2.029,0.179,3.013c0.188,1.127,0.633,2,2.145,1.783c0.906-0.127,1.867,0.167,2.807,0.272
		c-0.028-0.583-0.179-0.761-0.295-0.961c-1.117-1.938-0.828-2.517,1.423-2.929c0.361-0.066,0.7-0.244,1.051-0.372
		c-0.045-0.139-0.09-0.277-0.134-0.422c-1.534,0.378-3.073,0.716-4.59,1.139C296.651,38.938,296.034,38.586,295.512,37.003
		L295.512,37.003z M293.846,24.278c0.211,1.778,0.372,3.422,0.622,5.056c0.122,0.784,0.833,1.345,1.356,0.646
		c0.782-1.056,1.193-2.384,1.688-3.435C296.196,25.728,295.123,25.067,293.846,24.278z M297.413,52.291
		c0.183,0.022,0.366,0.044,0.55,0.066c0.789-0.923,1.583-1.84,2.529-2.945h-3.418C297.195,50.401,297.308,51.347,297.413,52.291
		L297.413,52.291z M284.281,26.75c-0.062-1.356-0.117-2.54-0.178-3.879c-0.562,1.2-1.062,2.278-1.584,3.396
		C283.164,26.444,283.664,26.578,284.281,26.75z"/>
	<path d="M101.698,43.555c-0.127,4.023-0.239,7.697-0.355,11.37c-0.005,0.145,0.027,0.295-0.005,0.434
		c-0.117,0.532-0.517,1.36-0.323,1.539c0.572,0.522,1.345,0.895,2.101,1.128c2.784,0.851,5.568,1.712,8.397,2.384
		c1.795,0.428,3.706,0.372,5.501,0.8c2.101,0.507,4.14,0.423,6.224,0.067c0.739-0.127,1.501-0.155,2.251-0.15
		c1.256,0.012,1.562,0.435,0.979,1.546c-0.479,0.904-1.212,1.672-1.773,2.545c-1.384,2.15-2.768,4.301-4.084,6.496
		c-0.456,0.756-0.856,1.105-1.828,0.86c-0.678-0.171-1.467,0.111-2.207,0.185c-0.328,0.032-0.678,0.139-0.983,0.072
		c-2.806-0.623-5.618-1.217-8.396-1.93c-2.801-0.717-5.635-1.377-8.324-2.399c-1.823-0.695-3.424-1.979-5.33-3.123
		C92.624,66,91.562,66.896,90.362,67.5c-1.295,0.65-2.734,1.022-4.102,1.545c-3.423,1.3-6.829,2.646-10.258,3.919
		c-0.839,0.311-1.756,0.444-2.651,0.583c-0.923,0.145-3.245-2.028-3.473-3.195c-0.373-1.873-0.733-3.74-1.106-5.614
		c-0.166-0.849-0.049-1.371,1.039-1.35c4.513,0.095,8.769-1.188,12.959-2.667c1.212-0.428,2.273-1.283,3.545-2.028
		c-1.422-1.046-2.89-1.828-3.968-2.984c-1.301-1.384-2.268-3.079-3.378-4.64c-0.301-0.423-0.573-0.873-0.912-1.267
		c-1.188-1.379-0.933-2.752,0.706-3.64c0.578-0.318,1.233-0.551,1.711-0.984c0.695-0.634,1.261-1.412,2.006-2.268
		c-0.689-0.067-1.412-0.223-2.118-0.184c-2.056,0.123-4.112,0.356-6.168,0.473c-0.311,0.017-0.884-0.311-0.928-0.556
		c-0.367-1.911-0.534-3.863-0.957-5.757c-0.439-1.962-1.127-3.862-1.645-5.813c-0.25-0.943-0.262-1.961-0.534-2.9
		c-0.862-3.018-0.311-5.891,0.75-8.73c0.355-0.95,0.889-1.228,2.034-1.217c3.439,0.034,6.879-0.255,10.319-0.395
		c1.401-0.056,2.834-0.238,4.208-0.033c2.045,0.305,1.873-1.234,2.116-2.318c0.512-2.239,0.878-4.512,1.284-6.773
		c0.111-0.606,0.25-1.245,0.177-1.845c-0.144-1.195,0.551-1.762,1.501-1.817c2.583-0.167,5.179-0.222,7.774-0.217
		c1.101,0,1.645,0.884,1.461,2c-0.627,3.84-1.25,7.68-1.912,11.714c1.112,0,2.273,0.078,3.412-0.017
		c2.107-0.178,4.201-0.555,6.308-0.667c3-0.162,6.013-0.201,9.019-0.184c0.372,0,1.117,0.755,1.061,1.039
		c-0.784,3.94,0.816,7.697,0.794,11.581c-0.011,1.95,0.717,3.895,0.84,5.863c0.139,2.211,0.039,4.45-0.101,6.668
		c-0.066,1.016-0.921,1.171-1.844,1.05c-0.784-0.106-1.583-0.078-2.373-0.134c-1.607-0.122-3.207-0.345-4.813-0.383
		c-3.146-0.071-6.291-0.066-9.436-0.05C102.276,43.294,101.827,43.522,101.698,43.555L101.698,43.555z M99.515,29.123
		c0.483,1.673,0.85,3.051,1.306,4.402c0.088,0.272,0.527,0.622,0.789,0.61c2.617-0.149,5.229-0.367,7.857-0.566
		c-0.161-1.833-0.299-3.495-0.455-5.291C105.916,28.557,102.76,28.834,99.515,29.123L99.515,29.123z M90.251,34.297
		c-0.289-1.256-0.45-2.256-0.772-3.196c-0.156-0.456-0.605-1.117-0.967-1.15c-2.829-0.228-5.668-0.322-8.825-0.472
		c0.372,0.945,0.517,1.439,0.756,1.89c0.289,0.527,0.861,0.972,0.95,1.517c0.233,1.351,0.995,1.728,2.224,1.628
		c1.227-0.1,2.462-0.167,3.694-0.211C88.245,34.269,89.184,34.297,90.251,34.297L90.251,34.297z M84.711,42.804
		c2.172,2.407,4.195,4.652,6.224,6.903c0.343-2.168,0.36-4.263,0.316-6.357c-0.005-0.184-0.439-0.512-0.678-0.517
		C88.678,42.788,86.783,42.804,84.711,42.804L84.711,42.804z"/>
	<path d="M56.564,16.915c0.2,1.688,0.405,3.373,0.622,5.217c1.284-0.61,2.406-1.139,3.523-1.678c0.172-0.083,0.34-0.267,0.506-0.261
		c0.733,0.005,1.467,0.066,2.207,0.105c-0.073,0.74,0.039,1.562-0.25,2.195c-0.573,1.255-1.367,2.412-2.146,3.729
		c1.717,0.244,3.457,0.489,5.196,0.744c0.733,0.106,1.522,0.111,2.168,0.412c0.499,0.228,1.166,0.883,1.133,1.294
		c-0.05,0.617-0.516,1.445-1.045,1.734c-1.095,0.589-2.351,0.889-3.545,1.284c-1.217,0.399-2.445,0.771-3.79,1.2
		c0.523,1.717,1.063,3.312,1.473,4.94c0.144,0.567-0.028,1.211-0.056,1.823c-0.544-0.156-1.134-0.223-1.617-0.479
		c-0.995-0.534-1.934-1.172-2.989-1.828c-0.323,1.078-0.717,2.212-0.995,3.378c-0.45,1.896-0.833,3.802-1.212,5.708
		c-0.244,1.256-0.372,2.534-0.666,3.772c-0.111,0.473-0.556,0.862-0.85,1.289c-0.317-0.394-0.811-0.75-0.923-1.199
		c-0.878-3.567-1.701-7.152-2.496-10.742c-0.149-0.679-0.105-1.4-0.149-2.167c-1.651,0.806-3.196,1.595-4.786,2.3
		c-0.311,0.14-1.049,0.04-1.122-0.139c-0.216-0.533-0.395-1.222-0.228-1.734c0.367-1.1,0.961-2.123,1.462-3.184
		c0.456-0.967,0.144-1.278-0.945-1.378c-1.017-0.094-2.023-0.412-3.018-0.694c-1.278-0.361-2.556-0.728-3.784-1.218
		c-0.417-0.166-0.678-0.717-1.051-1.133c0.25,0.472,0.545,0.944,0.762,1.455c0.178,0.417,0.255,0.867,0.383,1.306
		c-0.466,0.1-0.961,0.345-1.4,0.277c-1.028-0.155-1.834,0.051-2.489,0.979c1.729-1.511,2.667-0.083,3.745,0.845
		c0.823,0.711,1.717,1.345,2.491,2.106c0.272,0.272,0.522,0.99,0.366,1.2c-0.938,1.279-1.944,2.518-3.029,3.679
		c-0.727,0.779-1.928,0.595-2.577-0.283c-0.257-0.339-0.434-0.74-0.679-1.083c-0.205-0.29-0.466-0.545-0.694-0.801
		c0.211,1.768,0.406,3.545,0.656,5.318c0.145,1.04-0.205,1.45-1.289,1.55c-1.906,0.173-3.795,0.484-5.686,0.8
		c-1.3,0.217-1.633-0.072-1.511-1.405c0.117-1.301,0.189-2.606,0.284-3.913c-0.111-0.078-0.223-0.155-0.334-0.228
		c-0.917,1.045-1.867,2.057-2.74,3.135c-1.255,1.545-2.123,1.45-2.956-0.317c-0.578-1.222-1.25-2.4-2.057-3.934
		c-0.144,2.011-0.311,3.64-0.372,5.269c-0.155,4.201-0.517,8.335-1.889,12.375c-1.056,3.1-1.595,6.374-2.545,9.52
		c-0.734,2.416-1.746,4.75-2.64,7.119c-0.584,1.543-1.117,3.105-1.79,4.61c-0.267,0.59-0.767,1.185-1.317,1.479
		c-0.194,0.106-1.017-0.571-1.289-1.05c-1.323-2.328-2.601-4.69-3.791-7.091c-0.261-0.527-0.306-1.333-0.105-1.89
		c0.722-2.007,1.684-3.929,2.389-5.946c0.762-2.173,1.395-4.389,1.979-6.619c0.572-2.166,1.161-4.35,1.473-6.562
		c0.356-2.501,0.434-5.04,0.589-7.569c0.206-3.383,0.395-6.773,0.539-10.163c0.039-0.945-0.145-1.895-0.155-2.846
		c-0.028-2.322,0.1-4.656-0.039-6.974c-0.272-4.451-0.767-8.886-1.012-13.332C8.34,8.929,8.534,6.612,8.629,4.311
		c0.044-1.162,0.617-1.662,1.867-1.545c3.339,0.317,6.697,0.511,10.042,0.8c1.59,0.139,3.167,0.478,4.762,0.578
		c2.207,0.139,4.424,0.083,6.636,0.21c3.233,0.189,6.468,0.428,9.697,0.711c3.595,0.317,7.18,0.756,10.775,1.056
		c3.363,0.284,6.729,0.428,10.097,0.684c1.284,0.1,1.545,1.173,1.573,2.173c0.061,2.306-0.012,4.612,0,6.918
		c0,1.673-1.678,3.023-3.457,2.756c-0.979-0.15-2.006-0.139-2.929-0.439c-0.45-0.15-0.722-0.845-1.072-1.295
		c-0.245-1.472-0.495-2.945-0.74-4.417c-0.15,0.033-0.3,0.066-0.455,0.1c0.367,1.422,0.755,2.867,1.144,4.313H56.564z
		 M60.899,37.415c-0.461-1.512-0.817-2.807-1.25-4.08c-0.483-1.417-0.156-1.75,1.3-2.105c2.295-0.563,4.523-1.367,6.785-2.073
		c-0.011-0.134-0.016-0.272-0.027-0.406c-2.212-0.255-4.417-0.544-6.63-0.75c-2.167-0.206-2.523-0.879-1.35-2.689
		c0.689-1.067,1.362-2.14,2.045-3.207c-0.117-0.105-0.233-0.211-0.35-0.322c-1.306,0.611-2.623,1.201-3.923,1.833
		c-1.417,0.695-1.672,0.628-1.934-1.022c-0.339-2.101-0.478-4.24-0.823-6.34c-0.166-1.028-0.605-2.011-0.923-3.017
		c-0.694,1.873-1.144,3.657-1.472,5.462c-0.284,1.59-0.35,3.212-0.678,4.791c-0.145,0.711-0.701,1.316-1.606,0.745
		c-0.438-0.273-0.844-0.601-1.283-0.867c-0.872-0.528-1.762-1.034-2.84-1.662c0.733,1.767,1.362,3.195,1.901,4.652
		c0.1,0.277-0.039,0.821-0.262,0.999c-0.578,0.468-1.227,0.912-1.922,1.162c-1.74,0.634-3.523,1.156-5.33,1.739
		c1.534,0.544,2.862,1.034,4.207,1.473c0.239,0.078,0.545-0.062,0.823-0.089c1.629-0.15,2.756,1.261,2.184,2.756
		c-0.411,1.062-0.872,2.106-1.312,3.157c0.111,0.1,0.223,0.205,0.328,0.306c1.29-0.757,2.618-1.457,3.858-2.296
		c1.033-0.705,1.366-0.667,1.6,0.506c0.695,3.429,1.377,6.863,2.089,10.435c0.156-0.605,0.284-1.044,0.378-1.489
		c0.644-2.984,1.322-5.962,1.895-8.963c0.184-0.967,0.65-1.173,1.367-0.762C58.765,35.892,59.714,36.614,60.899,37.415
		L60.899,37.415z M26.456,25.461c-0.061-0.233-0.122-0.472-0.183-0.705c-1.078,0.078-2.163,0.2-3.24,0.205
		c-0.395,0-0.89-0.172-1.173-0.439c-1.65-1.589-1.834-3.801-2.295-5.862c-0.072-0.328,0.477-1.122,0.8-1.156
		c2.334-0.255,4.685-0.35,7.03-0.539c2.346-0.189,4.696-0.367,7.03-0.673c1.105-0.144,1.783,0.206,2.023,1.351
		c0.105,0.501,0.261,1,0.472,1.461c0.483,1.04,1.017,2.051,1.534,3.074c0.656,1.3,0.027,1.94-1.178,2.222
		c-0.639,0.15-1.306,0.245-1.962,0.25c-1.567,0.005-1.734,0.162-1.645,1.801c0.883-0.062,1.767-0.162,2.655-0.179
		c2.391-0.044,2.574,0.134,2.756,2.513c0,0.078,0.067,0.15,0.101,0.216c1.855-0.611,3.711-1.189,5.545-1.833
		c1.235-0.434,1.401-1.124,0.812-2.285c-0.478-0.933-0.873-1.928-1.162-2.934c-0.133-0.467-0.1-1.345,0.162-1.489
		c0.505-0.278,1.316-0.39,1.833-0.172c1.283,0.533,2.478,1.294,3.74,1.984c0.745-3.341,1.511-6.769,2.251-10.204
		c0.039-0.172-0.184-0.405-0.284-0.605c-0.122-0.006-0.25-0.017-0.372-0.022c-0.223,1.372-0.506,2.745-0.65,4.128
		c-0.145,1.406-0.855,1.873-2.201,1.734c-3.484-0.35-6.974-0.617-10.453-0.979c-2.873-0.299-5.734-0.739-8.608-1.034
		c-2.461-0.249-4.939-0.389-7.412-0.562c-1.25-0.088-2.506-0.133-3.851-0.199v24.39c0.117,0.027,0.238,0.056,0.355,0.083
		c1.784-1.967,3.567-3.939,5.352-5.908c-0.1-0.11-0.194-0.217-0.294-0.327c-0.228,0.033-0.456,0.078-0.684,0.088
		c-4.184,0.289-4.234,0.284-3.917-3.939c0.073-0.939-0.95-2.333,0.644-2.807c1.073-0.317,2.273-0.228,3.413-0.289
		c0.222-0.011,0.472,0.217,0.683,0.178C24.889,25.861,25.673,25.65,26.456,25.461L26.456,25.461z"/>
	<path d="M205.898,36.753c-4.189,0.267-8.152,0.512-12.114,0.767c-0.79,0.05-1.817,0.444-2.289,0.089
		c-0.434-0.323-0.25-1.45-0.356-2.224c-0.211-1.54-0.417-3.073-0.65-4.606c-0.233-1.501,0.201-2.14,1.707-2.173
		c4.123-0.1,8.252-0.144,12.375-0.211c2.79-0.044,5.585-0.038,8.375-0.155c0.328-0.011,0.895-0.606,0.912-0.951
		c0.094-2.057,0.094-4.118,0.06-6.18c-0.044-3.111-0.148-6.224-0.199-9.335c-0.027-1.668-0.05-3.339,0.066-5.002
		c0.028-0.372,0.579-0.956,0.961-1.017c2.479-0.395,4.974-0.662,7.464-0.989c1.817-0.239,2.223,0.233,2.278,2.062
		c0.088,3.012,0.416,6.013,0.522,9.025c0.061,1.694-0.161,3.4-0.189,5.101c-0.038,2.54-0.011,5.074-0.011,7.78
		c1.323,0.216,2.94,0.583,4.579,0.728c2.345,0.206,4.707,0.311,7.058,0.355c2.718,0.045,5.445,0.039,8.164-0.061
		c2.633-0.095,3.056,0.311,2.577,2.95c-0.327,1.834-0.755,3.657-1,5.502c-0.083,0.6,0.262,1.261,0.456,2.083
		c-5.629,1.195-10.992-0.772-16.655-1.479c0,4.668-0.022,9.125,0.017,13.582c0.007,0.9,0.063,1.884,0.435,2.661
		c0.294,0.605,1.066,1.212,1.729,1.362c1.071,0.244,2.378,0.456,3.317,0.05c1.022-0.44,2.061-1.444,2.517-2.462
		c0.679-1.512,1.051-3.234,1.189-4.9c0.233-2.829,1.245-2.63,3.262-2.079c1.507,0.411,2.99,0.906,4.513,1.256
		c2.017,0.462,2.734,1.578,2.528,3.611c-0.278,2.745-0.217,5.535-0.583,8.264c-0.334,2.474-0.639,5.097-1.701,7.285
		c-0.962,1.979-3.34,2.729-5.584,2.939c-2.729,0.262-5.463,0.434-8.203,0.529c-3.001,0.1-6.051-0.022-8.714-1.496
		c-1.378-0.761-2.561-2.095-3.473-3.417c-1.929-2.806-0.833-6.063-0.943-9.131c-0.118-3.167-0.162-6.34-0.207-9.508
		c-0.038-2.984-0.006-5.963-0.083-8.947c-0.012-0.333-0.483-0.872-0.817-0.938c-0.728-0.145-1.5-0.044-2.406-0.044
		c-0.111,0.96-0.177,1.85-0.315,2.728c-0.317,2-0.485,4.051-1.057,5.979c-1.063,3.591-2.178,7.186-3.612,10.636
		c-2.023,4.88-4.695,9.403-8.696,12.993c-2.006,1.801-4.347,2.907-7.041,3.156c-0.262,0.022-0.64-0.166-0.806-0.383
		c-0.983-1.279-1.929-2.584-2.878-3.89c-1.041-1.435-2.09-2.863-3.096-4.324c-0.789-1.145-0.5-1.789,0.922-2.039
		c2.473-0.434,4.367-1.757,6.234-3.406c2.39-2.112,4.174-4.662,5.801-7.28c1.457-2.351,2.457-4.995,2.856-7.819
		c0.2-1.411,0.795-2.762,1.018-4.167C206.231,38.771,205.993,37.87,205.898,36.753L205.898,36.753z"/>
	<path d="M33.024,64.812c0.889-0.084,1.7-0.067,2.445-0.278c0.372-0.106,0.828-0.595,0.906-0.973
		c0.495-2.451,0.928-4.917,1.323-7.391c0.222-1.39,0.367-2.79,0.477-4.195c0.084-1.028,0.172-2.085,0.04-3.096
		c-0.201-1.473,0.877-1.867,1.783-1.896c2.156-0.061,4.323,0.116,6.479,0.313c1.146,0.104,1.773,0.732,1.546,2.061
		c-0.15,0.866-0.317,1.995,0.1,2.612c0.294,0.434,1.562,0.255,2.395,0.271c3.023,0.056,6.051,0.106,9.075,0.106
		c0.967,0,1.656,0.261,1.583,1.328c-0.1,1.511-0.15,3.056-0.505,4.518c-0.639,2.64-0.733,2.562-3.557,2.679
		c-2.39,0.095-4.772,0.345-7.162,0.483c-0.561,0.033-1.128-0.09-1.945-0.161c-0.233,0.904-0.478,1.867-0.767,2.983
		c2.667-0.116,5.068-0.233,7.468-0.328c3.229-0.134,6.452-0.277,9.681-0.338c0.26,0,0.822,0.699,0.761,0.961
		c-0.611,2.628-1.278,5.24-2.05,7.824c-0.111,0.379-0.855,0.751-1.34,0.801c-1.156,0.11-2.333,0.033-3.506,0.027
		c-0.183,0-0.377-0.044-0.55-0.012c-2.445,0.472-4.878,1.046-7.341,1.406c-1.707,0.25-3.451,0.162-5.174,0.312
		c-1.194,0.105-2.373,0.361-3.563,0.55c-2.567,0.411-5.134,0.818-7.696,1.245c-1.989,0.334-3.968,0.705-5.952,1.045
		c-0.984,0.166-1.967,0.322-2.961,0.439c-2.779,0.316-5.563,0.6-8.341,0.928c-0.595,0.072-1.172,0.361-1.757,0.377
		c-0.761,0.017-1.567-0.021-2.283-0.255c-1.15-0.379-0.45-1.184-0.3-1.873c0.695-3.128,1.323-6.273,2.051-9.391
		c0.322-1.391,2.006-2.418,3.422-2.307c1.106,0.088,2.224,0.222,3.318,0.122c0.445-0.039,1.028-0.566,1.222-1.011
		c1.106-2.545,1.272-5.291,1.522-8.009c0.145-1.562,0.117-3.15,0.362-4.695c0.083-0.511,0.722-1.256,1.189-1.328
		c1.855-0.278,3.75-0.423,5.629-0.445c2.195-0.027,2.706,0.634,2.723,2.862c0.012,1.456,0.301,2.912,0.233,4.362
		c-0.072,1.684-0.389,3.362-0.617,5.041C33.296,63.249,33.158,64.011,33.024,64.812L33.024,64.812z"/>
	<path d="M139.993,59.409c0,1.751,0.1,3.489-0.028,5.213c-0.134,1.817-1.523,2.773-3.451,2.684c-0.894-0.039-1.8,0.134-2.7,0.161
		c-2.123,0.078-2.929-0.812-2.878-2.868c0.078-3.366,0.033-6.729,0.078-10.097c0.027-2.228,0.172-4.456,0.156-6.685
		c-0.017-1.973-0.179-3.945-0.284-5.919c-0.25-4.512-0.517-9.024-0.767-13.536c-0.205-3.735-0.467-7.463-0.55-11.204
		c-0.023-1.044,0.422-2.116,0.756-3.145c0.322-0.989,0.939-1.222,2.089-1.095c2.006,0.218,4.063,0.006,6.097,0
		c3.262-0.01,6.53,0.006,9.792-0.005c1.083-0.005,2.367,1.622,2.295,2.979c-0.194,3.6-0.472,7.196-0.566,10.797
		c-0.084,3.24,0.044,6.485,0.056,9.725c0.016,3.945,0.005,7.885,0.01,11.831c0,0.522,0,1.045,0.044,1.567
		c0.094,1.072,0.329,2.05-1.278,2.384c-0.784,0.161-1.05,1.094-0.345,1.967c0.473,0.59,0.979,1.306,1.073,2.012
		c0.228,1.756-0.95,2.068-2.428,2.168c-1.151,0.077-2.268,0.595-3.423,0.777C142.61,59.293,141.471,59.304,139.993,59.409
		L139.993,59.409z M142.06,49.151c-0.056-0.411-0.161-0.823-0.15-1.233c0.062-2.613,0.15-5.224,0.233-7.836
		c0.034-1.022-0.622-1.151-1.428-1.151c-1.011,0-1.039,0.506-0.86,1.323c0.149,0.689,0.093,1.418,0.127,2.134
		c0.1,1.945,0.15,3.895,0.328,5.829C140.398,49.168,140.837,49.89,142.06,49.151L142.06,49.151z M139.553,29.985
		c0.794-0.695,1.662-1.101,1.678-1.528c0.078-2.474-0.061-4.952-0.1-7.425c-0.017-0.989-0.784-1.022-1.384-1.005
		c-0.728,0.022-0.933,0.534-0.872,1.306c0.156,1.994,0.161,4.006,0.277,6.007C139.187,28.062,139.364,28.778,139.553,29.985z"/>
	<path d="M151.518,63.605c-1.245-0.212-2.567-0.435-3.89-0.668c-1.178-0.205-2.401-0.294-3.528-0.666
		c-1.073-0.351-1.117-1.262-0.194-1.928c0.338-0.245,0.761-0.391,1.161-0.519c2.018-0.638,4.04-1.249,6.279-1.938
		c-0.589-1.057-1.189-2.001-1.661-3.013c-0.301-0.633-0.406-1.35-0.6-2.033c0.661-0.039,1.35-0.229,1.967-0.089
		c1.322,0.295,2.611,0.761,3.912,1.161c0.705-3.396,1.406-6.779,2.128-10.242c-0.2,0.184-0.612,0.383-0.7,0.678
		c-0.417,1.356-0.867,2.724-1.067,4.118c-0.25,1.729-1.866,3.118-3.512,2.64c-0.416-0.121-0.95-0.766-0.967-1.194
		c-0.1-2.056-0.095-4.117-0.022-6.173c0.056-1.467,0.666-1.868,2.967-2.035c2.018-0.144,4.041-0.194,6.057-0.289
		c3.863-0.177,7.73-0.355,11.593-0.533c-0.005-0.14-0.012-0.278-0.017-0.417c0.044-0.084,0.127-0.161,0.127-0.245
		c0.162-3.101,0.156-3.123,3.174-3.446c1.5-0.161,3.017-0.294,4.522-0.294c1.329,0,1.862,0.79,1.662,2.09
		c-0.105,0.666-0.144,1.35-0.222,2.062c1.45,0,2.64-0.028,3.834,0.011c1.056,0.034,1.906,0.111,1.717,1.689
		c-0.228,1.9-0.034,3.851-0.078,5.779c-0.029,1.406-0.718,1.885-2.162,1.879c-0.923,0-1.862,0.205-2.756,0.438
		c-0.216,0.056-0.439,0.595-0.439,0.911c0.01,3.508,0.206,7.02,0.049,10.52c-0.095,2.135-0.489,4.318-1.167,6.341
		c-0.75,2.224-2.94,2.64-5.007,3.029c-1.556,0.289-3.095,0.649-4.635,1.022c-0.994,0.238-1.562-0.245-1.601-1.111
		c-0.094-2.19-0.661-4.196-1.695-6.136c-0.25-0.467,0.228-1.322,0.395-2.117c-0.428,0.139-0.973,0.322-1.734,0.573
		c0.479,1.11,0.935,2.179,1.401,3.233c0.116,0.255,0.382,0.495,0.389,0.745c0.022,0.738-0.05,1.479-0.083,2.217
		c-0.633-0.139-1.307-0.188-1.884-0.438c-0.901-0.395-1.74-0.929-2.846-1.54c-0.483,2.246-0.928,4.357-1.401,6.463
		c-0.345,1.528-0.678,3.063-1.094,4.574c-0.29,1.061-0.851,1.928-2.546,2.027c-0.761-4.316-1.528-8.668-2.317-13.147
		c-1.439,0.912-2.756,1.79-4.118,2.584c-0.299,0.179-0.916,0.245-1.117,0.061c-0.305-0.277-0.627-0.905-0.511-1.228
		C149.922,67.272,150.685,65.577,151.518,63.605L151.518,63.605z M172.79,59.32c0.772,1.023,0.456,1.789-0.605,2.278
		c-0.878,0.399-1.806,0.689-2.713,1.022c1.218-0.062,2.418-0.233,3.53-0.639c0.539-0.195,0.916-0.833,1.367-1.268
		c-0.534-0.461-1.061-0.916-1.595-1.377c-1.05-1.269-1.367-2.713-1.262-4.352c0.112-1.641,0.023-3.29,0.023-5.046
		c-0.733,0.115-1.051,0.183-1.373,0.21c-2.206,0.195-4.412,0.462-6.624,0.512c-0.606,0.012-1.367-0.517-1.806-1.011
		c-0.412-0.467-0.495-1.223-0.717-1.845c-0.1,0.033-0.201,0.061-0.3,0.094c0.333,1.822,0.672,3.65,0.99,5.369
		c1.377-0.667,2.583-1.335,3.856-1.84c0.483-0.194,1.205-0.201,1.623,0.044c0.238,0.14,0.25,1.017,0.084,1.45
		c-0.657,1.685-1.429,3.329-2.112,4.88c1.322,0.289,2.54,0.578,3.767,0.821C170.206,58.882,171.501,59.093,172.79,59.32z
		 M146.294,61.143c0.933,0.2,1.423,0.328,1.917,0.406c1.495,0.228,3.013,0.354,4.479,0.694c0.767,0.178,1.583,0.578,0.783,1.733
		c-0.761,1.096-1.322,2.329-1.984,3.529c0.223,0.056,0.339,0.123,0.4,0.089c0.862-0.5,1.7-1.033,2.567-1.518
		c1.84-1.027,2.073-0.889,2.085,1.185c0,0.189,0.083,0.372,0.117,0.562c0.355,1.883,0.717,3.767,1.062,5.656
		c0.289,1.589,0.544,3.185,0.816,4.773c0.395-1,0.522-1.983,0.733-2.945c0.583-2.678,1.25-5.34,1.784-8.023
		c0.323-1.629,0.822-1.906,2.178-0.984c0.667,0.456,1.345,0.895,2.017,1.345c0.101-0.1,0.201-0.193,0.3-0.293
		c-0.434-0.912-0.811-1.852-1.311-2.725c-0.889-1.55-0.479-2.578,1.255-2.917c0.979-0.194,1.957-0.378,2.935-0.577
		c0.7-0.146,1.4-0.317,2.1-0.479c-0.005-0.123-0.011-0.245-0.016-0.368c-0.346-0.093-0.679-0.222-1.028-0.271
		c-1.64-0.228-3.284-0.395-4.913-0.649c-1.46-0.229-1.667-0.983-0.905-2.168c0.783-1.217,1.333-2.578,1.984-3.879
		c-0.101-0.1-0.195-0.206-0.295-0.306c-0.944,0.656-1.867,1.351-2.845,1.956c-0.533,0.334-1.145,0.584-1.751,0.712
		c-0.105,0.022-0.482-0.739-0.555-1.161c-0.468-2.906-0.889-5.819-1.384-9.153c-0.467,0.689-0.778,0.962-0.845,1.284
		c-0.35,1.612-0.622,3.239-0.95,4.852c-0.262,1.295-0.583,2.572-0.834,3.867c-0.2,1.045-0.733,0.912-1.45,0.521
		c-1.095-0.588-2.211-1.127-3.628-1.839c0.777,1.268,1.372,2.218,1.945,3.179c0.255,0.428,0.767,1.067,0.634,1.284
		c-0.262,0.416-0.862,0.689-1.379,0.855C150.451,59.96,148.578,60.476,146.294,61.143L146.294,61.143z M158.769,43.044
		c1.84,0.722,0.957,2.9,2.089,3.984C161.609,44.944,160.853,43.466,158.769,43.044z"/>
	<path d="M164.16,14.72c0.073-1.389,0.106-2.756,0.245-4.118c0.033-0.323,0.4-0.833,0.656-0.867
		c2.212-0.301,4.434-0.566,6.657-0.695c0.339-0.022,0.973,0.672,1.034,1.105c0.149,1.106,0.055,2.257,0.061,3.385v1.367
		c1.668-0.128,9.242-0.294,10.82-0.356c1.633-0.066,3.3-0.222,4.884,0.084c0.473,0.088,0.957,1.562,1.018,2.439
		c0.078,1.09-0.267,3.202-0.439,4.313c-0.117,0.767-0.444,1.09-1.25,1.073c-2.645-0.056-11.292,0.005-13.942,0.039
		c-0.945,0.012-1.007,0.878-1.017,1.544c-0.017,0.984,0.161,2.623,0.244,3.451c2.607,0,3.224,0.028,5.808-0.011
		c1.462-0.022,2.923-0.118,4.379-0.272c1.034-0.111,1.412,0.739,1.457,1.433c0.133,2.033,0.127,2.445-0.017,4.473
		c-0.034,0.467-0.806,1.195-1.284,1.239c-3.206,0.306-4.456,0.517-7.674,0.639c-4.146,0.162-6.986,0.218-11.136,0.306
		c-2.862,0.062-5.724,0.079-8.586,0.14c-1.355,0.027-1.71-0.939-1.75-2.124c-0.062-1.688,0.078-1.423-0.05-3.106
		c-0.089-1.234,0.495-1.656,1.377-1.833c0.628-0.127,1.334-0.272,1.913-0.078c2.856,0.178,3.729-0.411,6.251-0.488
		c0.217-0.006,0.6-0.556,0.6-0.852c-0.016-1.088,0.684-2.956-0.11-4.189c-0.567-0.372-1.313-0.223-1.906-0.206
		c-1.333,0.033-5.363,0.022-6.697,0.056c-0.678,0.017-1.367,0.011-2.028,0.15c-1.211,0.25-1.939-0.133-2.067-1.411
		c-0.128-1.323-0.045-3.645-0.111-4.979c-0.039-0.8,0.261-0.928,0.938-0.938c2.156-0.023,7.008-0.111,9.164-0.24
		C162.399,15.147,163.198,14.902,164.16,14.72L164.16,14.72z"/>
	<path d="M231.406,15.448c0-0.694-0.161-1.711,0.038-2.651c0.312-1.467,0.751-2.929,1.356-4.296
		c0.316-0.723,1.056-1.289,1.689-1.834c2.65-2.278,7.535-2.473,9.958-0.083c0.806,0.795,1.795,1.434,2.484,2.312
		c1.095,1.395,1.84,2.967,1.601,4.851c-0.117,0.923-0.045,1.867-0.168,2.785c-0.222,1.656-1.122,3.028-2.194,4.218
		c-1.334,1.484-3.129,2.195-5.123,2.3c-0.806,0.039-1.623-0.139-2.418-0.05c-0.345,0.039-0.757,0.434-0.933,0.773
		c-0.939,1.8-2.008,3.328-4.291,3.556c-3.278,0.323-6.435-1.778-6.54-5.318c-0.045-1.54,0.399-2.907,1.128-4.001
		C228.693,16.959,230.1,16.386,231.406,15.448L231.406,15.448z M232.911,15.281c0.446,0.156,0.795,0.333,1.156,0.4
		c2.117,0.36,3.273,1.851,3.951,3.656c0.828,2.212,0.884,2.396,3.258,2.168c2.645-0.255,4.372-1.912,5.355-4.174
		c1.117-2.584,0.718-5.29-0.872-7.541c-1.572-2.229-3.813-3.451-6.769-3.262c-2.217,0.139-5.118,2.133-5.519,4.318
		C233.206,12.292,233.096,13.764,232.911,15.281L232.911,15.281z"/>
	<path d="M202.609,12.03c0.438,0.333,0.949,0.611,1.306,1.017c1.573,1.8,3.173,3.589,4.618,5.49c0.895,1.178,1.55,2.545,2.233,3.874
		c0.101,0.194-0.155,0.767-0.4,0.916c-1.928,1.167-3.922,2.229-5.84,3.418c-1.455,0.906-2.084,0.755-3.034-0.684
		c-1.956-2.967-3.979-5.896-6.019-8.808c-0.517-0.733-0.772-1.277,0.184-1.855C197.808,14.097,199.614,12.085,202.609,12.03z"/>
	<path fill="#FFFFFF" d="M60.899,37.415c-1.185-0.801-2.134-1.523-3.162-2.107c-0.723-0.411-1.184-0.211-1.367,0.762
		c-0.573,3-1.25,5.974-1.896,8.963c-0.093,0.444-0.222,0.884-0.377,1.489c-0.718-3.573-1.396-7.007-2.09-10.436
		c-0.238-1.172-0.566-1.206-1.6-0.506c-1.234,0.84-2.567,1.534-3.856,2.296c-0.111-0.101-0.223-0.206-0.328-0.306
		c0.439-1.051,0.906-2.095,1.312-3.157c0.573-1.495-0.556-2.906-2.184-2.756c-0.278,0.027-0.584,0.166-0.823,0.088
		c-1.345-0.438-2.673-0.928-4.207-1.472c1.806-0.583,3.59-1.105,5.329-1.739c0.695-0.25,1.345-0.695,1.923-1.162
		c0.223-0.178,0.361-0.728,0.262-1c-0.539-1.456-1.167-2.883-1.901-4.651c1.083,0.628,1.967,1.134,2.84,1.661
		c0.438,0.267,0.844,0.595,1.283,0.867c0.906,0.567,1.462-0.033,1.605-0.744c0.323-1.578,0.39-3.207,0.679-4.791
		c0.321-1.806,0.772-3.589,1.472-5.462c0.316,1.005,0.755,1.989,0.922,3.017c0.345,2.101,0.483,4.235,0.823,6.341
		c0.267,1.65,0.516,1.717,1.934,1.022c1.294-0.634,2.611-1.222,3.924-1.834c0.116,0.106,0.233,0.211,0.35,0.323
		c-0.684,1.073-1.356,2.145-2.045,3.206c-1.172,1.812-0.817,2.484,1.351,2.69c2.212,0.211,4.417,0.5,6.629,0.75
		c0.01,0.133,0.017,0.272,0.027,0.405c-2.256,0.705-4.49,1.511-6.785,2.072c-1.455,0.356-1.783,0.684-1.301,2.107
		C60.082,34.608,60.443,35.908,60.899,37.415L60.899,37.415z"/>
	<path fill="#FFFFFF" d="M146.294,61.143c2.284-0.667,4.157-1.183,6.008-1.772c0.516-0.16,1.116-0.439,1.377-0.855
		c0.133-0.212-0.378-0.856-0.634-1.284c-0.571-0.961-1.166-1.911-1.945-3.179c1.417,0.717,2.535,1.251,3.629,1.839
		c0.717,0.384,1.25,0.523,1.45-0.521c0.25-1.295,0.572-2.572,0.833-3.867c0.328-1.617,0.6-3.239,0.95-4.852
		c0.072-0.322,0.383-0.595,0.845-1.284c0.5,3.334,0.917,6.247,1.384,9.153c0.066,0.428,0.45,1.184,0.556,1.161
		c0.611-0.128,1.217-0.378,1.75-0.712c0.979-0.605,1.901-1.3,2.845-1.956c0.1,0.1,0.194,0.206,0.295,0.306
		c-0.65,1.301-1.201,2.667-1.984,3.879c-0.762,1.185-0.556,1.939,0.906,2.168c1.634,0.255,3.279,0.422,4.912,0.649
		c0.351,0.05,0.684,0.179,1.029,0.271c0.005,0.123,0.011,0.245,0.017,0.368c-0.7,0.161-1.4,0.328-2.101,0.479
		c-0.978,0.199-1.957,0.389-2.934,0.577c-1.729,0.339-2.145,1.367-1.256,2.917c0.5,0.873,0.877,1.813,1.311,2.725
		c-0.1,0.1-0.2,0.193-0.3,0.293c-0.672-0.45-1.35-0.889-2.018-1.345c-1.36-0.922-1.855-0.645-2.178,0.984
		c-0.533,2.688-1.2,5.346-1.783,8.023c-0.211,0.962-0.334,1.945-0.734,2.945c-0.272-1.589-0.527-3.185-0.816-4.773
		c-0.339-1.89-0.705-3.773-1.062-5.656c-0.034-0.189-0.117-0.379-0.117-0.562c-0.005-2.073-0.238-2.212-2.083-1.185
		c-0.867,0.484-1.707,1.018-2.567,1.518c-0.056,0.034-0.179-0.033-0.4-0.089c0.666-1.2,1.222-2.434,1.984-3.529
		c0.799-1.155-0.012-1.556-0.784-1.733c-1.467-0.345-2.984-0.467-4.479-0.694C147.717,61.471,147.227,61.343,146.294,61.143
		L146.294,61.143z"/>
</g>
<g>
</g>
<g>
</g>
<g>
</g>
<g>
</g>
<g>
</g>
<g>
</g>
<g>
</g>
<g>
</g>
<g>
</g>
<g>
</g>
<g>
</g>
<g>
</g>
<g>
</g>
<g>
</g>
<g>
</g>
</svg>
